<?xml version="1.0" encoding="utf-8" standalone="no"?>
<!DOCTYPE svg PUBLIC "-//W3C//DTD SVG 1.1//EN"
  "http://www.w3.org/Graphics/SVG/1.1/DTD/svg11.dtd">
<svg xmlns:xlink="http://www.w3.org/1999/xlink" width="864pt" height="432pt" viewBox="0 0 864 432" xmlns="http://www.w3.org/2000/svg" version="1.1">
 <metadata>
  <rdf:RDF xmlns:dc="http://purl.org/dc/elements/1.1/" xmlns:cc="http://creativecommons.org/ns#" xmlns:rdf="http://www.w3.org/1999/02/22-rdf-syntax-ns#">
   <cc:Work>
    <dc:type rdf:resource="http://purl.org/dc/dcmitype/StillImage"/>
    <dc:date>2025-05-24T02:22:50.164416</dc:date>
    <dc:format>image/svg+xml</dc:format>
    <dc:creator>
     <cc:Agent>
      <dc:title>Matplotlib v3.10.3, https://matplotlib.org/</dc:title>
     </cc:Agent>
    </dc:creator>
   </cc:Work>
  </rdf:RDF>
 </metadata>
 <defs>
  <style type="text/css">*{stroke-linejoin: round; stroke-linecap: butt}</style>
 </defs>
 <g id="figure_1">
  <g id="patch_1">
   <path d="M 0 432 
L 864 432 
L 864 0 
L 0 0 
z
" style="fill: #ffffff"/>
  </g>
  <g id="axes_1">
   <g id="patch_2">
    <path d="M 50.87 390.04 
L 844.866 390.04 
L 844.866 43.44 
L 50.87 43.44 
z
" style="fill: #ffffff"/>
   </g>
   <g id="FillBetweenPolyCollection_1">
    <defs>
     <path id="mf8cf3dcadf" d="M 52.193327 -308.132409 
L 52.193327 -57.714545 
L 54.83998 -61.163241 
L 57.486633 -79.278342 
L 60.133287 -93.688397 
L 62.77994 -106.336526 
L 65.426593 -117.202064 
L 68.073247 -126.743117 
L 70.7199 -135.103668 
L 73.366553 -141.814327 
L 76.013207 -147.924048 
L 78.65986 -153.259638 
L 81.306513 -158.401455 
L 83.953167 -162.961494 
L 86.59982 -166.600995 
L 89.246473 -170.302678 
L 91.893127 -173.8805 
L 94.53978 -177.469521 
L 97.186433 -180.488485 
L 99.833087 -183.509581 
L 102.47974 -186.1471 
L 105.126393 -188.832676 
L 107.773047 -191.495624 
L 110.4197 -193.53701 
L 113.066353 -195.180173 
L 115.713007 -196.907394 
L 118.35966 -198.550996 
L 121.006313 -200.306132 
L 123.652967 -201.845597 
L 126.29962 -203.334749 
L 128.946273 -204.800207 
L 131.592927 -206.120095 
L 134.23958 -207.422473 
L 136.886233 -208.930012 
L 139.532887 -210.187573 
L 142.17954 -211.11933 
L 144.826193 -212.363246 
L 147.472847 -213.456515 
L 150.1195 -214.827385 
L 152.766153 -215.851098 
L 155.412807 -217.006067 
L 158.05946 -217.95968 
L 160.706113 -218.871796 
L 163.352767 -219.638071 
L 165.99942 -220.391474 
L 168.646073 -221.274339 
L 171.292727 -222.048762 
L 173.93938 -222.947464 
L 176.586033 -223.612945 
L 179.232687 -224.356612 
L 181.87934 -225.106443 
L 184.525993 -225.698941 
L 187.172647 -226.483372 
L 189.8193 -227.084248 
L 192.465953 -227.929002 
L 195.112607 -228.5117 
L 197.75926 -229.007457 
L 200.405913 -229.582842 
L 203.052567 -230.124441 
L 205.69922 -230.668422 
L 208.345873 -231.221158 
L 210.992527 -231.849447 
L 213.63918 -232.419191 
L 216.285833 -232.855086 
L 218.932487 -233.406944 
L 221.57914 -233.98141 
L 224.225793 -234.482203 
L 226.872447 -234.901173 
L 229.5191 -235.331594 
L 232.165753 -235.701882 
L 234.812407 -236.213665 
L 237.45906 -236.588591 
L 240.105713 -237.04889 
L 242.752367 -237.361447 
L 245.39902 -237.808604 
L 248.045673 -238.359877 
L 250.692327 -238.755113 
L 253.33898 -239.062843 
L 255.985633 -239.409687 
L 258.632287 -239.757868 
L 261.27894 -240.140441 
L 263.925593 -240.538413 
L 266.572247 -240.912859 
L 269.2189 -241.303852 
L 271.865553 -241.625707 
L 274.512207 -242.017578 
L 277.15886 -242.288534 
L 279.805513 -242.592921 
L 282.452167 -242.856356 
L 285.09882 -243.201549 
L 287.745473 -243.582513 
L 290.392127 -243.975617 
L 293.03878 -244.260656 
L 295.685433 -244.619034 
L 298.332087 -244.803279 
L 300.97874 -245.143395 
L 303.625393 -245.441096 
L 306.272047 -245.739633 
L 308.9187 -246.130187 
L 311.565353 -246.382255 
L 314.212007 -246.625004 
L 316.85866 -246.901811 
L 319.505313 -247.113762 
L 322.151967 -247.40135 
L 324.79862 -247.694287 
L 327.445273 -247.89554 
L 330.091927 -248.184674 
L 332.73858 -248.410332 
L 335.385233 -248.615262 
L 338.031887 -248.82479 
L 340.67854 -249.007029 
L 343.325193 -249.21547 
L 345.971847 -249.461813 
L 348.6185 -249.673764 
L 351.265153 -249.894365 
L 353.911807 -250.072008 
L 356.55846 -250.245304 
L 359.205113 -250.374472 
L 361.851767 -250.606816 
L 364.49842 -250.811747 
L 367.145073 -251.040413 
L 369.791727 -251.234311 
L 372.43838 -251.436693 
L 375.085033 -251.637026 
L 377.731687 -251.799458 
L 380.37834 -251.981196 
L 383.024993 -252.197368 
L 385.671647 -252.383911 
L 388.3183 -252.535687 
L 390.964953 -252.687254 
L 393.611607 -252.863434 
L 396.25826 -253.05821 
L 398.904913 -253.159129 
L 401.551567 -253.313829 
L 404.19822 -253.474464 
L 406.844873 -253.600874 
L 409.491527 -253.768237 
L 412.13818 -253.908186 
L 414.784833 -254.069991 
L 417.431487 -254.223731 
L 420.07814 -254.388169 
L 422.724793 -254.551687 
L 425.371447 -254.8165 
L 428.0181 -254.904757 
L 430.664753 -255.060461 
L 433.311407 -255.191175 
L 435.95806 -255.337853 
L 438.604713 -255.500159 
L 441.251367 -255.678052 
L 443.89802 -255.812569 
L 446.544673 -255.99297 
L 449.191327 -256.189835 
L 451.83798 -256.32406 
L 454.484633 -256.465138 
L 457.131287 -256.621552 
L 459.77794 -256.822512 
L 462.424593 -256.944535 
L 465.071247 -257.08181 
L 467.7179 -257.288161 
L 470.364553 -257.399611 
L 473.011207 -257.535883 
L 475.65786 -257.728026 
L 478.304513 -257.848837 
L 480.951167 -257.97487 
L 483.59782 -258.143194 
L 486.244473 -258.295764 
L 488.891127 -258.426018 
L 491.53778 -258.547289 
L 494.184433 -258.646745 
L 496.831087 -258.798145 
L 499.47774 -258.915445 
L 502.124393 -259.037509 
L 504.771047 -259.216823 
L 507.4177 -259.333078 
L 510.064353 -259.453137 
L 512.711007 -259.560282 
L 515.35766 -259.691289 
L 518.004313 -259.804368 
L 520.650967 -259.914105 
L 523.29762 -260.043733 
L 525.944273 -260.222838 
L 528.590927 -260.402821 
L 531.23758 -260.574362 
L 533.884233 -260.703071 
L 536.530887 -260.885059 
L 539.17754 -260.991077 
L 541.824193 -261.082426 
L 544.470847 -261.188945 
L 547.1175 -261.277369 
L 549.764153 -261.36291 
L 552.410807 -261.471393 
L 555.05746 -261.588317 
L 557.704113 -261.699683 
L 560.350767 -261.768425 
L 562.99742 -261.887689 
L 565.644073 -261.950288 
L 568.290727 -262.05033 
L 570.93738 -262.178495 
L 573.584033 -262.263911 
L 576.230687 -262.389527 
L 578.87734 -262.493455 
L 581.523993 -262.596045 
L 584.170647 -262.661528 
L 586.8173 -262.729894 
L 589.463953 -262.864536 
L 592.110607 -262.965163 
L 594.75726 -263.102563 
L 597.403913 -263.179496 
L 600.050567 -263.30156 
L 602.69722 -263.368923 
L 605.343873 -263.431939 
L 607.990527 -263.575942 
L 610.63718 -263.633193 
L 613.283833 -263.697171 
L 615.930487 -263.745812 
L 618.57714 -263.856761 
L 621.223793 -263.94623 
L 623.870447 -264.035281 
L 626.5171 -264.094579 
L 629.163753 -264.169338 
L 631.810407 -264.285134 
L 634.45706 -264.391402 
L 637.103713 -264.454335 
L 639.750367 -264.514929 
L 642.39702 -264.585133 
L 645.043673 -264.661272 
L 647.690327 -264.737954 
L 650.33698 -264.826838 
L 652.983633 -264.859934 
L 655.630287 -264.950281 
L 658.27694 -265.046645 
L 660.923593 -265.131935 
L 663.570247 -265.250907 
L 666.2169 -265.352829 
L 668.863553 -265.416556 
L 671.510207 -265.476732 
L 674.15686 -265.524036 
L 676.803513 -265.573346 
L 679.450167 -265.643467 
L 682.09682 -265.709827 
L 684.743473 -265.849526 
L 687.390127 -265.945055 
L 690.03678 -266.030136 
L 692.683433 -266.066116 
L 695.330087 -266.132726 
L 697.97674 -266.177022 
L 700.623393 -266.261435 
L 703.270047 -266.325162 
L 705.9167 -266.420147 
L 708.563353 -266.511873 
L 711.210007 -266.56858 
L 713.85666 -266.654915 
L 716.503313 -266.71977 
L 719.149967 -266.787008 
L 721.79662 -266.907735 
L 724.443273 -266.97142 
L 727.089927 -267.075098 
L 729.73658 -267.178817 
L 732.383233 -267.224826 
L 735.029887 -267.305436 
L 737.67654 -267.352489 
L 740.323193 -267.415799 
L 742.969847 -267.441332 
L 745.6165 -267.508235 
L 748.263153 -267.566864 
L 750.909807 -267.624574 
L 753.55646 -267.64831 
L 756.203113 -267.749354 
L 758.849767 -267.799333 
L 761.49642 -267.842124 
L 764.143073 -267.936065 
L 766.789727 -267.980862 
L 769.43638 -268.033516 
L 772.083033 -268.09461 
L 774.729687 -268.143294 
L 777.37634 -268.22102 
L 780.022993 -268.285249 
L 782.669647 -268.293231 
L 785.3163 -268.302048 
L 787.962953 -268.343251 
L 790.609607 -268.397827 
L 793.25626 -268.44041 
L 795.902913 -268.493188 
L 798.549567 -268.556623 
L 801.19622 -268.615461 
L 803.842873 -268.644839 
L 806.489527 -268.694191 
L 809.13618 -268.781612 
L 811.782833 -268.819264 
L 814.429487 -268.845757 
L 817.07614 -268.908774 
L 819.722793 -268.983743 
L 822.369447 -269.030588 
L 825.0161 -269.049769 
L 827.662753 -269.104888 
L 830.309407 -269.176513 
L 832.95606 -269.242957 
L 835.602713 -269.288506 
L 838.249367 -269.341786 
L 840.89602 -269.40543 
L 843.542673 -269.430963 
L 843.542673 -372.805455 
L 843.542673 -372.805455 
L 840.89602 -372.763374 
L 838.249367 -372.709508 
L 835.602713 -372.664753 
L 832.95606 -372.621627 
L 830.309407 -372.625472 
L 827.662753 -372.606416 
L 825.0161 -372.583056 
L 822.369447 -372.523842 
L 819.722793 -372.510428 
L 817.07614 -372.487027 
L 814.429487 -372.448832 
L 811.782833 -372.39994 
L 809.13618 -372.370312 
L 806.489527 -372.378168 
L 803.842873 -372.338928 
L 801.19622 -372.294758 
L 798.549567 -372.288323 
L 795.902913 -372.251632 
L 793.25626 -372.224846 
L 790.609607 -372.183016 
L 787.962953 -372.147579 
L 785.3163 -372.102782 
L 782.669647 -372.042063 
L 780.022993 -371.979088 
L 777.37634 -371.923635 
L 774.729687 -371.910764 
L 772.083033 -371.871107 
L 769.43638 -371.840183 
L 766.789727 -371.798311 
L 764.143073 -371.758362 
L 761.49642 -371.742231 
L 758.849767 -371.645449 
L 756.203113 -371.599064 
L 753.55646 -371.580677 
L 750.909807 -371.469018 
L 748.263153 -371.44056 
L 745.6165 -371.381848 
L 742.969847 -371.352053 
L 740.323193 -371.291334 
L 737.67654 -371.260285 
L 735.029887 -371.222174 
L 732.383233 -371.199734 
L 729.73658 -371.156817 
L 727.089927 -371.10968 
L 724.443273 -371.107381 
L 721.79662 -371.073365 
L 719.149967 -371.081848 
L 716.503313 -371.049546 
L 713.85666 -371.038514 
L 711.210007 -370.993717 
L 708.563353 -370.933165 
L 705.9167 -370.936299 
L 703.270047 -370.927231 
L 700.623393 -370.851134 
L 697.97674 -370.799484 
L 695.330087 -370.748335 
L 692.683433 -370.705126 
L 690.03678 -370.621925 
L 687.390127 -370.587742 
L 684.743473 -370.574704 
L 682.09682 -370.584441 
L 679.450167 -370.543822 
L 676.803513 -370.485235 
L 674.15686 -370.423806 
L 671.510207 -370.345494 
L 668.863553 -370.264508 
L 666.2169 -370.183898 
L 663.570247 -370.166891 
L 660.923593 -370.142862 
L 658.27694 -370.103038 
L 655.630287 -370.068186 
L 652.983633 -370.036678 
L 650.33698 -369.947501 
L 647.690327 -369.903916 
L 645.043673 -369.856987 
L 642.39702 -369.798818 
L 639.750367 -369.732207 
L 637.103713 -369.685738 
L 634.45706 -369.618877 
L 631.810407 -369.603791 
L 629.163753 -369.582772 
L 626.5171 -369.539103 
L 623.870447 -369.471029 
L 621.223793 -369.443407 
L 618.57714 -369.375417 
L 615.930487 -369.374206 
L 613.283833 -369.286868 
L 610.63718 -369.22314 
L 607.990527 -369.154691 
L 605.343873 -369.165723 
L 602.69722 -369.076045 
L 600.050567 -369.013864 
L 597.403913 -368.96518 
L 594.75726 -368.894767 
L 592.110607 -368.875126 
L 589.463953 -368.79857 
L 586.8173 -368.756949 
L 584.170647 -368.693179 
L 581.523993 -368.612653 
L 578.87734 -368.567229 
L 576.230687 -368.522891 
L 573.584033 -368.48244 
L 570.93738 -368.453773 
L 568.290727 -368.41771 
L 565.644073 -368.362382 
L 562.99742 -368.296941 
L 560.350767 -368.248718 
L 557.704113 -368.179474 
L 555.05746 -368.132964 
L 552.410807 -368.079809 
L 549.764153 -368.009855 
L 547.1175 -367.924732 
L 544.470847 -367.855196 
L 541.824193 -367.77584 
L 539.17754 -367.709229 
L 536.530887 -367.61884 
L 533.884233 -367.586705 
L 531.23758 -367.566396 
L 528.590927 -367.500663 
L 525.944273 -367.490592 
L 523.29762 -367.495773 
L 520.650967 -367.459585 
L 518.004313 -367.397069 
L 515.35766 -367.316083 
L 512.711007 -367.243914 
L 510.064353 -367.176468 
L 507.4177 -367.100538 
L 504.771047 -367.014036 
L 502.124393 -367.020263 
L 499.47774 -366.923355 
L 496.831087 -366.852106 
L 494.184433 -366.751521 
L 491.53778 -366.642453 
L 488.891127 -366.579436 
L 486.244473 -366.507686 
L 483.59782 -366.473377 
L 480.951167 -366.452985 
L 478.304513 -366.416461 
L 475.65786 -366.372291 
L 473.011207 -366.346132 
L 470.364553 -366.267026 
L 467.7179 -366.185413 
L 465.071247 -366.169784 
L 462.424593 -366.085246 
L 459.77794 -365.96197 
L 457.131287 -365.914708 
L 454.484633 -365.818218 
L 451.83798 -365.750437 
L 449.191327 -365.69068 
L 446.544673 -365.636815 
L 443.89802 -365.617968 
L 441.251367 -365.512034 
L 438.604713 -365.48015 
L 435.95806 -365.416213 
L 433.311407 -365.342415 
L 430.664753 -365.205767 
L 428.0181 -365.148934 
L 425.371447 -365.029336 
L 422.724793 -365.044087 
L 420.07814 -364.974844 
L 417.431487 -364.907606 
L 414.784833 -364.817301 
L 412.13818 -364.733892 
L 409.491527 -364.621021 
L 406.844873 -364.492354 
L 404.19822 -364.382409 
L 401.551567 -364.290307 
L 398.904913 -364.216258 
L 396.25826 -364.064859 
L 393.611607 -363.979067 
L 390.964953 -363.868077 
L 388.3183 -363.694446 
L 385.671647 -363.548521 
L 383.024993 -363.434522 
L 380.37834 -363.330343 
L 377.731687 -363.213294 
L 375.085033 -363.079863 
L 372.43838 -363.004644 
L 369.791727 -362.933228 
L 367.145073 -362.836111 
L 364.49842 -362.774766 
L 361.851767 -362.647896 
L 359.205113 -362.554207 
L 356.55846 -362.387178 
L 353.911807 -362.232101 
L 351.265153 -362.117559 
L 348.6185 -362.008115 
L 345.971847 -361.903477 
L 343.325193 -361.772219 
L 340.67854 -361.643344 
L 338.031887 -361.433608 
L 335.385233 -361.283002 
L 332.73858 -361.097127 
L 330.091927 -361.025084 
L 327.445273 -360.905026 
L 324.79862 -360.723998 
L 322.151967 -360.601725 
L 319.505313 -360.517396 
L 316.85866 -360.345562 
L 314.212007 -360.156678 
L 311.565353 -360.030937 
L 308.9187 -359.870553 
L 306.272047 -359.831021 
L 303.625393 -359.739504 
L 300.97874 -359.643725 
L 298.332087 -359.503692 
L 295.685433 -359.243392 
L 293.03878 -359.137918 
L 290.392127 -358.995043 
L 287.745473 -358.919615 
L 285.09882 -358.843059 
L 282.452167 -358.704363 
L 279.805513 -358.515897 
L 277.15886 -358.348827 
L 274.512207 -358.114394 
L 271.865553 -357.986563 
L 269.2189 -357.852171 
L 266.572247 -357.69116 
L 263.925593 -357.555473 
L 261.27894 -357.383932 
L 258.632287 -357.205704 
L 255.985633 -357.044818 
L 253.33898 -356.864209 
L 250.692327 -356.629358 
L 248.045673 -356.450085 
L 245.39902 -356.356228 
L 242.752367 -356.258778 
L 240.105713 -355.959405 
L 237.45906 -355.843192 
L 234.812407 -355.607171 
L 232.165753 -355.38799 
L 229.5191 -355.131117 
L 226.872447 -354.848794 
L 224.225793 -354.486154 
L 221.57914 -354.245202 
L 218.932487 -354.092465 
L 216.285833 -353.92715 
L 213.63918 -353.559036 
L 210.992527 -353.39113 
L 208.345873 -353.226859 
L 205.69922 -352.983442 
L 203.052567 -352.726693 
L 200.405913 -352.499782 
L 197.75926 -352.167188 
L 195.112607 -351.838229 
L 192.465953 -351.596024 
L 189.8193 -351.458205 
L 187.172647 -351.070241 
L 184.525993 -350.910233 
L 181.87934 -350.492725 
L 179.232687 -350.249057 
L 176.586033 -349.9608 
L 173.93938 -349.533179 
L 171.292727 -349.229043 
L 168.646073 -348.958254 
L 165.99942 -348.733891 
L 163.352767 -348.307942 
L 160.706113 -347.885502 
L 158.05946 -347.607818 
L 155.412807 -347.213419 
L 152.766153 -346.969207 
L 150.1195 -346.59169 
L 147.472847 -346.485339 
L 144.826193 -345.969837 
L 142.17954 -345.669252 
L 139.532887 -345.009455 
L 136.886233 -344.501516 
L 134.23958 -344.211421 
L 131.592927 -343.743557 
L 128.946273 -343.283759 
L 126.29962 -342.670848 
L 123.652967 -342.212387 
L 121.006313 -341.596634 
L 118.35966 -341.040138 
L 115.713007 -340.348915 
L 113.066353 -339.711265 
L 110.4197 -338.84311 
L 107.773047 -338.15076 
L 105.126393 -337.901074 
L 102.47974 -337.575207 
L 99.833087 -336.874332 
L 97.186433 -336.457158 
L 94.53978 -335.809771 
L 91.893127 -335.361548 
L 89.246473 -334.835724 
L 86.59982 -333.857833 
L 83.953167 -332.443712 
L 81.306513 -331.760638 
L 78.65986 -330.81225 
L 76.013207 -329.665742 
L 73.366553 -328.216101 
L 70.7199 -326.804195 
L 68.073247 -325.446948 
L 65.426593 -323.8261 
L 62.77994 -321.504083 
L 60.133287 -318.146215 
L 57.486633 -313.694659 
L 54.83998 -307.203995 
L 52.193327 -308.132409 
z
" style="stroke: #0000ff; stroke-opacity: 0.2"/>
    </defs>
    <g clip-path="url(#p6f78c6fe9d)">
     <use xlink:href="#mf8cf3dcadf" x="0" y="432" style="fill: #0000ff; fill-opacity: 0.2; stroke: #0000ff; stroke-opacity: 0.2"/>
    </g>
   </g>
   <g id="matplotlib.axis_1">
    <g id="xtick_1">
     <g id="line2d_1">
      <defs>
       <path id="mde94570f4c" d="M 0 0 
L 0 3.5 
" style="stroke: #000000; stroke-width: 0.8"/>
      </defs>
      <g>
       <use xlink:href="#mde94570f4c" x="181.87934" y="390.04" style="stroke: #000000; stroke-width: 0.8"/>
      </g>
     </g>
     <g id="text_1">
      <!-- 50 -->
      <g transform="translate(175.51684 404.638438) scale(0.1 -0.1)">
       <defs>
        <path id="DejaVuSans-35" d="M 691 4666 
L 3169 4666 
L 3169 4134 
L 1269 4134 
L 1269 2991 
Q 1406 3038 1543 3061 
Q 1681 3084 1819 3084 
Q 2600 3084 3056 2656 
Q 3513 2228 3513 1497 
Q 3513 744 3044 326 
Q 2575 -91 1722 -91 
Q 1428 -91 1123 -41 
Q 819 9 494 109 
L 494 744 
Q 775 591 1075 516 
Q 1375 441 1709 441 
Q 2250 441 2565 725 
Q 2881 1009 2881 1497 
Q 2881 1984 2565 2268 
Q 2250 2553 1709 2553 
Q 1456 2553 1204 2497 
Q 953 2441 691 2322 
L 691 4666 
z
" transform="scale(0.015625)"/>
        <path id="DejaVuSans-30" d="M 2034 4250 
Q 1547 4250 1301 3770 
Q 1056 3291 1056 2328 
Q 1056 1369 1301 889 
Q 1547 409 2034 409 
Q 2525 409 2770 889 
Q 3016 1369 3016 2328 
Q 3016 3291 2770 3770 
Q 2525 4250 2034 4250 
z
M 2034 4750 
Q 2819 4750 3233 4129 
Q 3647 3509 3647 2328 
Q 3647 1150 3233 529 
Q 2819 -91 2034 -91 
Q 1250 -91 836 529 
Q 422 1150 422 2328 
Q 422 3509 836 4129 
Q 1250 4750 2034 4750 
z
" transform="scale(0.015625)"/>
       </defs>
       <use xlink:href="#DejaVuSans-35"/>
       <use xlink:href="#DejaVuSans-30" transform="translate(63.623047 0)"/>
      </g>
     </g>
    </g>
    <g id="xtick_2">
     <g id="line2d_2">
      <g>
       <use xlink:href="#mde94570f4c" x="314.212007" y="390.04" style="stroke: #000000; stroke-width: 0.8"/>
      </g>
     </g>
     <g id="text_2">
      <!-- 100 -->
      <g transform="translate(304.668257 404.638438) scale(0.1 -0.1)">
       <defs>
        <path id="DejaVuSans-31" d="M 794 531 
L 1825 531 
L 1825 4091 
L 703 3866 
L 703 4441 
L 1819 4666 
L 2450 4666 
L 2450 531 
L 3481 531 
L 3481 0 
L 794 0 
L 794 531 
z
" transform="scale(0.015625)"/>
       </defs>
       <use xlink:href="#DejaVuSans-31"/>
       <use xlink:href="#DejaVuSans-30" transform="translate(63.623047 0)"/>
       <use xlink:href="#DejaVuSans-30" transform="translate(127.246094 0)"/>
      </g>
     </g>
    </g>
    <g id="xtick_3">
     <g id="line2d_3">
      <g>
       <use xlink:href="#mde94570f4c" x="446.544673" y="390.04" style="stroke: #000000; stroke-width: 0.8"/>
      </g>
     </g>
     <g id="text_3">
      <!-- 150 -->
      <g transform="translate(437.000923 404.638438) scale(0.1 -0.1)">
       <use xlink:href="#DejaVuSans-31"/>
       <use xlink:href="#DejaVuSans-35" transform="translate(63.623047 0)"/>
       <use xlink:href="#DejaVuSans-30" transform="translate(127.246094 0)"/>
      </g>
     </g>
    </g>
    <g id="xtick_4">
     <g id="line2d_4">
      <g>
       <use xlink:href="#mde94570f4c" x="578.87734" y="390.04" style="stroke: #000000; stroke-width: 0.8"/>
      </g>
     </g>
     <g id="text_4">
      <!-- 200 -->
      <g transform="translate(569.33359 404.638438) scale(0.1 -0.1)">
       <defs>
        <path id="DejaVuSans-32" d="M 1228 531 
L 3431 531 
L 3431 0 
L 469 0 
L 469 531 
Q 828 903 1448 1529 
Q 2069 2156 2228 2338 
Q 2531 2678 2651 2914 
Q 2772 3150 2772 3378 
Q 2772 3750 2511 3984 
Q 2250 4219 1831 4219 
Q 1534 4219 1204 4116 
Q 875 4013 500 3803 
L 500 4441 
Q 881 4594 1212 4672 
Q 1544 4750 1819 4750 
Q 2544 4750 2975 4387 
Q 3406 4025 3406 3419 
Q 3406 3131 3298 2873 
Q 3191 2616 2906 2266 
Q 2828 2175 2409 1742 
Q 1991 1309 1228 531 
z
" transform="scale(0.015625)"/>
       </defs>
       <use xlink:href="#DejaVuSans-32"/>
       <use xlink:href="#DejaVuSans-30" transform="translate(63.623047 0)"/>
       <use xlink:href="#DejaVuSans-30" transform="translate(127.246094 0)"/>
      </g>
     </g>
    </g>
    <g id="xtick_5">
     <g id="line2d_5">
      <g>
       <use xlink:href="#mde94570f4c" x="711.210007" y="390.04" style="stroke: #000000; stroke-width: 0.8"/>
      </g>
     </g>
     <g id="text_5">
      <!-- 250 -->
      <g transform="translate(701.666257 404.638438) scale(0.1 -0.1)">
       <use xlink:href="#DejaVuSans-32"/>
       <use xlink:href="#DejaVuSans-35" transform="translate(63.623047 0)"/>
       <use xlink:href="#DejaVuSans-30" transform="translate(127.246094 0)"/>
      </g>
     </g>
    </g>
    <g id="xtick_6">
     <g id="line2d_6">
      <g>
       <use xlink:href="#mde94570f4c" x="843.542673" y="390.04" style="stroke: #000000; stroke-width: 0.8"/>
      </g>
     </g>
     <g id="text_6">
      <!-- 300 -->
      <g transform="translate(833.998923 404.638438) scale(0.1 -0.1)">
       <defs>
        <path id="DejaVuSans-33" d="M 2597 2516 
Q 3050 2419 3304 2112 
Q 3559 1806 3559 1356 
Q 3559 666 3084 287 
Q 2609 -91 1734 -91 
Q 1441 -91 1130 -33 
Q 819 25 488 141 
L 488 750 
Q 750 597 1062 519 
Q 1375 441 1716 441 
Q 2309 441 2620 675 
Q 2931 909 2931 1356 
Q 2931 1769 2642 2001 
Q 2353 2234 1838 2234 
L 1294 2234 
L 1294 2753 
L 1863 2753 
Q 2328 2753 2575 2939 
Q 2822 3125 2822 3475 
Q 2822 3834 2567 4026 
Q 2313 4219 1838 4219 
Q 1578 4219 1281 4162 
Q 984 4106 628 3988 
L 628 4550 
Q 988 4650 1302 4700 
Q 1616 4750 1894 4750 
Q 2613 4750 3031 4423 
Q 3450 4097 3450 3541 
Q 3450 3153 3228 2886 
Q 3006 2619 2597 2516 
z
" transform="scale(0.015625)"/>
       </defs>
       <use xlink:href="#DejaVuSans-33"/>
       <use xlink:href="#DejaVuSans-30" transform="translate(63.623047 0)"/>
       <use xlink:href="#DejaVuSans-30" transform="translate(127.246094 0)"/>
      </g>
     </g>
    </g>
    <g id="text_7">
     <!-- Step -->
     <g transform="translate(436.482844 418.316562) scale(0.1 -0.1)">
      <defs>
       <path id="DejaVuSans-53" d="M 3425 4513 
L 3425 3897 
Q 3066 4069 2747 4153 
Q 2428 4238 2131 4238 
Q 1616 4238 1336 4038 
Q 1056 3838 1056 3469 
Q 1056 3159 1242 3001 
Q 1428 2844 1947 2747 
L 2328 2669 
Q 3034 2534 3370 2195 
Q 3706 1856 3706 1288 
Q 3706 609 3251 259 
Q 2797 -91 1919 -91 
Q 1588 -91 1214 -16 
Q 841 59 441 206 
L 441 856 
Q 825 641 1194 531 
Q 1563 422 1919 422 
Q 2459 422 2753 634 
Q 3047 847 3047 1241 
Q 3047 1584 2836 1778 
Q 2625 1972 2144 2069 
L 1759 2144 
Q 1053 2284 737 2584 
Q 422 2884 422 3419 
Q 422 4038 858 4394 
Q 1294 4750 2059 4750 
Q 2388 4750 2728 4690 
Q 3069 4631 3425 4513 
z
" transform="scale(0.015625)"/>
       <path id="DejaVuSans-74" d="M 1172 4494 
L 1172 3500 
L 2356 3500 
L 2356 3053 
L 1172 3053 
L 1172 1153 
Q 1172 725 1289 603 
Q 1406 481 1766 481 
L 2356 481 
L 2356 0 
L 1766 0 
Q 1100 0 847 248 
Q 594 497 594 1153 
L 594 3053 
L 172 3053 
L 172 3500 
L 594 3500 
L 594 4494 
L 1172 4494 
z
" transform="scale(0.015625)"/>
       <path id="DejaVuSans-65" d="M 3597 1894 
L 3597 1613 
L 953 1613 
Q 991 1019 1311 708 
Q 1631 397 2203 397 
Q 2534 397 2845 478 
Q 3156 559 3463 722 
L 3463 178 
Q 3153 47 2828 -22 
Q 2503 -91 2169 -91 
Q 1331 -91 842 396 
Q 353 884 353 1716 
Q 353 2575 817 3079 
Q 1281 3584 2069 3584 
Q 2775 3584 3186 3129 
Q 3597 2675 3597 1894 
z
M 3022 2063 
Q 3016 2534 2758 2815 
Q 2500 3097 2075 3097 
Q 1594 3097 1305 2825 
Q 1016 2553 972 2059 
L 3022 2063 
z
" transform="scale(0.015625)"/>
       <path id="DejaVuSans-70" d="M 1159 525 
L 1159 -1331 
L 581 -1331 
L 581 3500 
L 1159 3500 
L 1159 2969 
Q 1341 3281 1617 3432 
Q 1894 3584 2278 3584 
Q 2916 3584 3314 3078 
Q 3713 2572 3713 1747 
Q 3713 922 3314 415 
Q 2916 -91 2278 -91 
Q 1894 -91 1617 61 
Q 1341 213 1159 525 
z
M 3116 1747 
Q 3116 2381 2855 2742 
Q 2594 3103 2138 3103 
Q 1681 3103 1420 2742 
Q 1159 2381 1159 1747 
Q 1159 1113 1420 752 
Q 1681 391 2138 391 
Q 2594 391 2855 752 
Q 3116 1113 3116 1747 
z
" transform="scale(0.015625)"/>
      </defs>
      <use xlink:href="#DejaVuSans-53"/>
      <use xlink:href="#DejaVuSans-74" transform="translate(63.476562 0)"/>
      <use xlink:href="#DejaVuSans-65" transform="translate(102.685547 0)"/>
      <use xlink:href="#DejaVuSans-70" transform="translate(164.208984 0)"/>
     </g>
    </g>
   </g>
   <g id="matplotlib.axis_2">
    <g id="ytick_1">
     <g id="line2d_7">
      <defs>
       <path id="m77c26fdef0" d="M 0 0 
L -3.5 0 
" style="stroke: #000000; stroke-width: 0.8"/>
      </defs>
      <g>
       <use xlink:href="#m77c26fdef0" x="50.87" y="333.819784" style="stroke: #000000; stroke-width: 0.8"/>
      </g>
     </g>
     <g id="text_8">
      <!-- 300 -->
      <g transform="translate(24.7825 337.619003) scale(0.1 -0.1)">
       <use xlink:href="#DejaVuSans-33"/>
       <use xlink:href="#DejaVuSans-30" transform="translate(63.623047 0)"/>
       <use xlink:href="#DejaVuSans-30" transform="translate(127.246094 0)"/>
      </g>
     </g>
    </g>
    <g id="ytick_2">
     <g id="line2d_8">
      <g>
       <use xlink:href="#m77c26fdef0" x="50.87" y="265.353602" style="stroke: #000000; stroke-width: 0.8"/>
      </g>
     </g>
     <g id="text_9">
      <!-- 400 -->
      <g transform="translate(24.7825 269.15282) scale(0.1 -0.1)">
       <defs>
        <path id="DejaVuSans-34" d="M 2419 4116 
L 825 1625 
L 2419 1625 
L 2419 4116 
z
M 2253 4666 
L 3047 4666 
L 3047 1625 
L 3713 1625 
L 3713 1100 
L 3047 1100 
L 3047 0 
L 2419 0 
L 2419 1100 
L 313 1100 
L 313 1709 
L 2253 4666 
z
" transform="scale(0.015625)"/>
       </defs>
       <use xlink:href="#DejaVuSans-34"/>
       <use xlink:href="#DejaVuSans-30" transform="translate(63.623047 0)"/>
       <use xlink:href="#DejaVuSans-30" transform="translate(127.246094 0)"/>
      </g>
     </g>
    </g>
    <g id="ytick_3">
     <g id="line2d_9">
      <g>
       <use xlink:href="#m77c26fdef0" x="50.87" y="196.887419" style="stroke: #000000; stroke-width: 0.8"/>
      </g>
     </g>
     <g id="text_10">
      <!-- 500 -->
      <g transform="translate(24.7825 200.686638) scale(0.1 -0.1)">
       <use xlink:href="#DejaVuSans-35"/>
       <use xlink:href="#DejaVuSans-30" transform="translate(63.623047 0)"/>
       <use xlink:href="#DejaVuSans-30" transform="translate(127.246094 0)"/>
      </g>
     </g>
    </g>
    <g id="ytick_4">
     <g id="line2d_10">
      <g>
       <use xlink:href="#m77c26fdef0" x="50.87" y="128.421236" style="stroke: #000000; stroke-width: 0.8"/>
      </g>
     </g>
     <g id="text_11">
      <!-- 600 -->
      <g transform="translate(24.7825 132.220455) scale(0.1 -0.1)">
       <defs>
        <path id="DejaVuSans-36" d="M 2113 2584 
Q 1688 2584 1439 2293 
Q 1191 2003 1191 1497 
Q 1191 994 1439 701 
Q 1688 409 2113 409 
Q 2538 409 2786 701 
Q 3034 994 3034 1497 
Q 3034 2003 2786 2293 
Q 2538 2584 2113 2584 
z
M 3366 4563 
L 3366 3988 
Q 3128 4100 2886 4159 
Q 2644 4219 2406 4219 
Q 1781 4219 1451 3797 
Q 1122 3375 1075 2522 
Q 1259 2794 1537 2939 
Q 1816 3084 2150 3084 
Q 2853 3084 3261 2657 
Q 3669 2231 3669 1497 
Q 3669 778 3244 343 
Q 2819 -91 2113 -91 
Q 1303 -91 875 529 
Q 447 1150 447 2328 
Q 447 3434 972 4092 
Q 1497 4750 2381 4750 
Q 2619 4750 2861 4703 
Q 3103 4656 3366 4563 
z
" transform="scale(0.015625)"/>
       </defs>
       <use xlink:href="#DejaVuSans-36"/>
       <use xlink:href="#DejaVuSans-30" transform="translate(63.623047 0)"/>
       <use xlink:href="#DejaVuSans-30" transform="translate(127.246094 0)"/>
      </g>
     </g>
    </g>
    <g id="ytick_5">
     <g id="line2d_11">
      <g>
       <use xlink:href="#m77c26fdef0" x="50.87" y="59.955053" style="stroke: #000000; stroke-width: 0.8"/>
      </g>
     </g>
     <g id="text_12">
      <!-- 700 -->
      <g transform="translate(24.7825 63.754272) scale(0.1 -0.1)">
       <defs>
        <path id="DejaVuSans-37" d="M 525 4666 
L 3525 4666 
L 3525 4397 
L 1831 0 
L 1172 0 
L 2766 4134 
L 525 4134 
L 525 4666 
z
" transform="scale(0.015625)"/>
       </defs>
       <use xlink:href="#DejaVuSans-37"/>
       <use xlink:href="#DejaVuSans-30" transform="translate(63.623047 0)"/>
       <use xlink:href="#DejaVuSans-30" transform="translate(127.246094 0)"/>
      </g>
     </g>
    </g>
    <g id="text_13">
     <!-- Profit -->
     <g transform="translate(18.702813 229.779063) rotate(-90) scale(0.1 -0.1)">
      <defs>
       <path id="DejaVuSans-50" d="M 1259 4147 
L 1259 2394 
L 2053 2394 
Q 2494 2394 2734 2622 
Q 2975 2850 2975 3272 
Q 2975 3691 2734 3919 
Q 2494 4147 2053 4147 
L 1259 4147 
z
M 628 4666 
L 2053 4666 
Q 2838 4666 3239 4311 
Q 3641 3956 3641 3272 
Q 3641 2581 3239 2228 
Q 2838 1875 2053 1875 
L 1259 1875 
L 1259 0 
L 628 0 
L 628 4666 
z
" transform="scale(0.015625)"/>
       <path id="DejaVuSans-72" d="M 2631 2963 
Q 2534 3019 2420 3045 
Q 2306 3072 2169 3072 
Q 1681 3072 1420 2755 
Q 1159 2438 1159 1844 
L 1159 0 
L 581 0 
L 581 3500 
L 1159 3500 
L 1159 2956 
Q 1341 3275 1631 3429 
Q 1922 3584 2338 3584 
Q 2397 3584 2469 3576 
Q 2541 3569 2628 3553 
L 2631 2963 
z
" transform="scale(0.015625)"/>
       <path id="DejaVuSans-6f" d="M 1959 3097 
Q 1497 3097 1228 2736 
Q 959 2375 959 1747 
Q 959 1119 1226 758 
Q 1494 397 1959 397 
Q 2419 397 2687 759 
Q 2956 1122 2956 1747 
Q 2956 2369 2687 2733 
Q 2419 3097 1959 3097 
z
M 1959 3584 
Q 2709 3584 3137 3096 
Q 3566 2609 3566 1747 
Q 3566 888 3137 398 
Q 2709 -91 1959 -91 
Q 1206 -91 779 398 
Q 353 888 353 1747 
Q 353 2609 779 3096 
Q 1206 3584 1959 3584 
z
" transform="scale(0.015625)"/>
       <path id="DejaVuSans-66" d="M 2375 4863 
L 2375 4384 
L 1825 4384 
Q 1516 4384 1395 4259 
Q 1275 4134 1275 3809 
L 1275 3500 
L 2222 3500 
L 2222 3053 
L 1275 3053 
L 1275 0 
L 697 0 
L 697 3053 
L 147 3053 
L 147 3500 
L 697 3500 
L 697 3744 
Q 697 4328 969 4595 
Q 1241 4863 1831 4863 
L 2375 4863 
z
" transform="scale(0.015625)"/>
       <path id="DejaVuSans-69" d="M 603 3500 
L 1178 3500 
L 1178 0 
L 603 0 
L 603 3500 
z
M 603 4863 
L 1178 4863 
L 1178 4134 
L 603 4134 
L 603 4863 
z
" transform="scale(0.015625)"/>
      </defs>
      <use xlink:href="#DejaVuSans-50"/>
      <use xlink:href="#DejaVuSans-72" transform="translate(58.552734 0)"/>
      <use xlink:href="#DejaVuSans-6f" transform="translate(97.416016 0)"/>
      <use xlink:href="#DejaVuSans-66" transform="translate(158.597656 0)"/>
      <use xlink:href="#DejaVuSans-69" transform="translate(193.802734 0)"/>
      <use xlink:href="#DejaVuSans-74" transform="translate(221.585938 0)"/>
     </g>
    </g>
   </g>
   <g id="line2d_12">
    <path d="M 52.193327 249.076523 
L 54.83998 247.816392 
L 57.486633 235.513499 
L 60.133287 226.082705 
L 62.77994 218.079696 
L 65.426593 211.485918 
L 68.073247 205.904967 
L 70.7199 201.046058 
L 73.366553 196.984786 
L 76.013207 193.205105 
L 78.65986 189.964056 
L 81.306513 186.918953 
L 86.59982 181.770575 
L 89.246473 179.430799 
L 94.53978 175.360354 
L 99.833087 171.808044 
L 102.47974 170.138846 
L 107.773047 167.176798 
L 113.066353 164.554281 
L 121.006313 161.048607 
L 126.29962 158.997212 
L 128.946273 157.958017 
L 142.17954 153.605709 
L 152.766153 150.589837 
L 158.05946 149.216251 
L 168.646073 146.883704 
L 192.465953 142.237498 
L 216.285833 138.608882 
L 237.45906 135.784109 
L 269.2189 132.421978 
L 319.505313 128.184421 
L 356.55846 125.683759 
L 412.13818 122.678961 
L 449.191327 121.059742 
L 465.071247 120.374203 
L 483.59782 119.691714 
L 570.93738 116.683866 
L 586.8173 116.256579 
L 610.63718 115.571833 
L 716.503313 113.115342 
L 825.0161 111.183587 
L 843.542673 110.881791 
L 843.542673 110.881791 
" clip-path="url(#p6f78c6fe9d)" style="fill: none; stroke: #0000ff; stroke-width: 1.5; stroke-linecap: square"/>
   </g>
   <g id="patch_3">
    <path d="M 50.87 390.04 
L 50.87 43.44 
" style="fill: none; stroke: #000000; stroke-width: 0.8; stroke-linejoin: miter; stroke-linecap: square"/>
   </g>
   <g id="patch_4">
    <path d="M 844.866 390.04 
L 844.866 43.44 
" style="fill: none; stroke: #000000; stroke-width: 0.8; stroke-linejoin: miter; stroke-linecap: square"/>
   </g>
   <g id="patch_5">
    <path d="M 50.87 390.04 
L 844.866 390.04 
" style="fill: none; stroke: #000000; stroke-width: 0.8; stroke-linejoin: miter; stroke-linecap: square"/>
   </g>
   <g id="patch_6">
    <path d="M 50.87 43.44 
L 844.866 43.44 
" style="fill: none; stroke: #000000; stroke-width: 0.8; stroke-linejoin: miter; stroke-linecap: square"/>
   </g>
   <g id="text_14">
    <!-- Mean profit per step with confidence interval per simulation step -->
    <g transform="translate(220.284875 21.763062) scale(0.14 -0.14)">
     <defs>
      <path id="DejaVuSans-4d" d="M 628 4666 
L 1569 4666 
L 2759 1491 
L 3956 4666 
L 4897 4666 
L 4897 0 
L 4281 0 
L 4281 4097 
L 3078 897 
L 2444 897 
L 1241 4097 
L 1241 0 
L 628 0 
L 628 4666 
z
" transform="scale(0.015625)"/>
      <path id="DejaVuSans-61" d="M 2194 1759 
Q 1497 1759 1228 1600 
Q 959 1441 959 1056 
Q 959 750 1161 570 
Q 1363 391 1709 391 
Q 2188 391 2477 730 
Q 2766 1069 2766 1631 
L 2766 1759 
L 2194 1759 
z
M 3341 1997 
L 3341 0 
L 2766 0 
L 2766 531 
Q 2569 213 2275 61 
Q 1981 -91 1556 -91 
Q 1019 -91 701 211 
Q 384 513 384 1019 
Q 384 1609 779 1909 
Q 1175 2209 1959 2209 
L 2766 2209 
L 2766 2266 
Q 2766 2663 2505 2880 
Q 2244 3097 1772 3097 
Q 1472 3097 1187 3025 
Q 903 2953 641 2809 
L 641 3341 
Q 956 3463 1253 3523 
Q 1550 3584 1831 3584 
Q 2591 3584 2966 3190 
Q 3341 2797 3341 1997 
z
" transform="scale(0.015625)"/>
      <path id="DejaVuSans-6e" d="M 3513 2113 
L 3513 0 
L 2938 0 
L 2938 2094 
Q 2938 2591 2744 2837 
Q 2550 3084 2163 3084 
Q 1697 3084 1428 2787 
Q 1159 2491 1159 1978 
L 1159 0 
L 581 0 
L 581 3500 
L 1159 3500 
L 1159 2956 
Q 1366 3272 1645 3428 
Q 1925 3584 2291 3584 
Q 2894 3584 3203 3211 
Q 3513 2838 3513 2113 
z
" transform="scale(0.015625)"/>
      <path id="DejaVuSans-20" transform="scale(0.015625)"/>
      <path id="DejaVuSans-73" d="M 2834 3397 
L 2834 2853 
Q 2591 2978 2328 3040 
Q 2066 3103 1784 3103 
Q 1356 3103 1142 2972 
Q 928 2841 928 2578 
Q 928 2378 1081 2264 
Q 1234 2150 1697 2047 
L 1894 2003 
Q 2506 1872 2764 1633 
Q 3022 1394 3022 966 
Q 3022 478 2636 193 
Q 2250 -91 1575 -91 
Q 1294 -91 989 -36 
Q 684 19 347 128 
L 347 722 
Q 666 556 975 473 
Q 1284 391 1588 391 
Q 1994 391 2212 530 
Q 2431 669 2431 922 
Q 2431 1156 2273 1281 
Q 2116 1406 1581 1522 
L 1381 1569 
Q 847 1681 609 1914 
Q 372 2147 372 2553 
Q 372 3047 722 3315 
Q 1072 3584 1716 3584 
Q 2034 3584 2315 3537 
Q 2597 3491 2834 3397 
z
" transform="scale(0.015625)"/>
      <path id="DejaVuSans-77" d="M 269 3500 
L 844 3500 
L 1563 769 
L 2278 3500 
L 2956 3500 
L 3675 769 
L 4391 3500 
L 4966 3500 
L 4050 0 
L 3372 0 
L 2619 2869 
L 1863 0 
L 1184 0 
L 269 3500 
z
" transform="scale(0.015625)"/>
      <path id="DejaVuSans-68" d="M 3513 2113 
L 3513 0 
L 2938 0 
L 2938 2094 
Q 2938 2591 2744 2837 
Q 2550 3084 2163 3084 
Q 1697 3084 1428 2787 
Q 1159 2491 1159 1978 
L 1159 0 
L 581 0 
L 581 4863 
L 1159 4863 
L 1159 2956 
Q 1366 3272 1645 3428 
Q 1925 3584 2291 3584 
Q 2894 3584 3203 3211 
Q 3513 2838 3513 2113 
z
" transform="scale(0.015625)"/>
      <path id="DejaVuSans-63" d="M 3122 3366 
L 3122 2828 
Q 2878 2963 2633 3030 
Q 2388 3097 2138 3097 
Q 1578 3097 1268 2742 
Q 959 2388 959 1747 
Q 959 1106 1268 751 
Q 1578 397 2138 397 
Q 2388 397 2633 464 
Q 2878 531 3122 666 
L 3122 134 
Q 2881 22 2623 -34 
Q 2366 -91 2075 -91 
Q 1284 -91 818 406 
Q 353 903 353 1747 
Q 353 2603 823 3093 
Q 1294 3584 2113 3584 
Q 2378 3584 2631 3529 
Q 2884 3475 3122 3366 
z
" transform="scale(0.015625)"/>
      <path id="DejaVuSans-64" d="M 2906 2969 
L 2906 4863 
L 3481 4863 
L 3481 0 
L 2906 0 
L 2906 525 
Q 2725 213 2448 61 
Q 2172 -91 1784 -91 
Q 1150 -91 751 415 
Q 353 922 353 1747 
Q 353 2572 751 3078 
Q 1150 3584 1784 3584 
Q 2172 3584 2448 3432 
Q 2725 3281 2906 2969 
z
M 947 1747 
Q 947 1113 1208 752 
Q 1469 391 1925 391 
Q 2381 391 2643 752 
Q 2906 1113 2906 1747 
Q 2906 2381 2643 2742 
Q 2381 3103 1925 3103 
Q 1469 3103 1208 2742 
Q 947 2381 947 1747 
z
" transform="scale(0.015625)"/>
      <path id="DejaVuSans-76" d="M 191 3500 
L 800 3500 
L 1894 563 
L 2988 3500 
L 3597 3500 
L 2284 0 
L 1503 0 
L 191 3500 
z
" transform="scale(0.015625)"/>
      <path id="DejaVuSans-6c" d="M 603 4863 
L 1178 4863 
L 1178 0 
L 603 0 
L 603 4863 
z
" transform="scale(0.015625)"/>
      <path id="DejaVuSans-6d" d="M 3328 2828 
Q 3544 3216 3844 3400 
Q 4144 3584 4550 3584 
Q 5097 3584 5394 3201 
Q 5691 2819 5691 2113 
L 5691 0 
L 5113 0 
L 5113 2094 
Q 5113 2597 4934 2840 
Q 4756 3084 4391 3084 
Q 3944 3084 3684 2787 
Q 3425 2491 3425 1978 
L 3425 0 
L 2847 0 
L 2847 2094 
Q 2847 2600 2669 2842 
Q 2491 3084 2119 3084 
Q 1678 3084 1418 2786 
Q 1159 2488 1159 1978 
L 1159 0 
L 581 0 
L 581 3500 
L 1159 3500 
L 1159 2956 
Q 1356 3278 1631 3431 
Q 1906 3584 2284 3584 
Q 2666 3584 2933 3390 
Q 3200 3197 3328 2828 
z
" transform="scale(0.015625)"/>
      <path id="DejaVuSans-75" d="M 544 1381 
L 544 3500 
L 1119 3500 
L 1119 1403 
Q 1119 906 1312 657 
Q 1506 409 1894 409 
Q 2359 409 2629 706 
Q 2900 1003 2900 1516 
L 2900 3500 
L 3475 3500 
L 3475 0 
L 2900 0 
L 2900 538 
Q 2691 219 2414 64 
Q 2138 -91 1772 -91 
Q 1169 -91 856 284 
Q 544 659 544 1381 
z
M 1991 3584 
L 1991 3584 
z
" transform="scale(0.015625)"/>
     </defs>
     <use xlink:href="#DejaVuSans-4d"/>
     <use xlink:href="#DejaVuSans-65" transform="translate(86.279297 0)"/>
     <use xlink:href="#DejaVuSans-61" transform="translate(147.802734 0)"/>
     <use xlink:href="#DejaVuSans-6e" transform="translate(209.082031 0)"/>
     <use xlink:href="#DejaVuSans-20" transform="translate(272.460938 0)"/>
     <use xlink:href="#DejaVuSans-70" transform="translate(304.248047 0)"/>
     <use xlink:href="#DejaVuSans-72" transform="translate(367.724609 0)"/>
     <use xlink:href="#DejaVuSans-6f" transform="translate(406.587891 0)"/>
     <use xlink:href="#DejaVuSans-66" transform="translate(467.769531 0)"/>
     <use xlink:href="#DejaVuSans-69" transform="translate(502.974609 0)"/>
     <use xlink:href="#DejaVuSans-74" transform="translate(530.757812 0)"/>
     <use xlink:href="#DejaVuSans-20" transform="translate(569.966797 0)"/>
     <use xlink:href="#DejaVuSans-70" transform="translate(601.753906 0)"/>
     <use xlink:href="#DejaVuSans-65" transform="translate(665.230469 0)"/>
     <use xlink:href="#DejaVuSans-72" transform="translate(726.753906 0)"/>
     <use xlink:href="#DejaVuSans-20" transform="translate(767.867188 0)"/>
     <use xlink:href="#DejaVuSans-73" transform="translate(799.654297 0)"/>
     <use xlink:href="#DejaVuSans-74" transform="translate(851.753906 0)"/>
     <use xlink:href="#DejaVuSans-65" transform="translate(890.962891 0)"/>
     <use xlink:href="#DejaVuSans-70" transform="translate(952.486328 0)"/>
     <use xlink:href="#DejaVuSans-20" transform="translate(1015.962891 0)"/>
     <use xlink:href="#DejaVuSans-77" transform="translate(1047.75 0)"/>
     <use xlink:href="#DejaVuSans-69" transform="translate(1129.537109 0)"/>
     <use xlink:href="#DejaVuSans-74" transform="translate(1157.320312 0)"/>
     <use xlink:href="#DejaVuSans-68" transform="translate(1196.529297 0)"/>
     <use xlink:href="#DejaVuSans-20" transform="translate(1259.908203 0)"/>
     <use xlink:href="#DejaVuSans-63" transform="translate(1291.695312 0)"/>
     <use xlink:href="#DejaVuSans-6f" transform="translate(1346.675781 0)"/>
     <use xlink:href="#DejaVuSans-6e" transform="translate(1407.857422 0)"/>
     <use xlink:href="#DejaVuSans-66" transform="translate(1471.236328 0)"/>
     <use xlink:href="#DejaVuSans-69" transform="translate(1506.441406 0)"/>
     <use xlink:href="#DejaVuSans-64" transform="translate(1534.224609 0)"/>
     <use xlink:href="#DejaVuSans-65" transform="translate(1597.701172 0)"/>
     <use xlink:href="#DejaVuSans-6e" transform="translate(1659.224609 0)"/>
     <use xlink:href="#DejaVuSans-63" transform="translate(1722.603516 0)"/>
     <use xlink:href="#DejaVuSans-65" transform="translate(1777.583984 0)"/>
     <use xlink:href="#DejaVuSans-20" transform="translate(1839.107422 0)"/>
     <use xlink:href="#DejaVuSans-69" transform="translate(1870.894531 0)"/>
     <use xlink:href="#DejaVuSans-6e" transform="translate(1898.677734 0)"/>
     <use xlink:href="#DejaVuSans-74" transform="translate(1962.056641 0)"/>
     <use xlink:href="#DejaVuSans-65" transform="translate(2001.265625 0)"/>
     <use xlink:href="#DejaVuSans-72" transform="translate(2062.789062 0)"/>
     <use xlink:href="#DejaVuSans-76" transform="translate(2103.902344 0)"/>
     <use xlink:href="#DejaVuSans-61" transform="translate(2163.082031 0)"/>
     <use xlink:href="#DejaVuSans-6c" transform="translate(2224.361328 0)"/>
     <use xlink:href="#DejaVuSans-20" transform="translate(2252.144531 0)"/>
     <use xlink:href="#DejaVuSans-70" transform="translate(2283.931641 0)"/>
     <use xlink:href="#DejaVuSans-65" transform="translate(2347.408203 0)"/>
     <use xlink:href="#DejaVuSans-72" transform="translate(2408.931641 0)"/>
     <use xlink:href="#DejaVuSans-20" transform="translate(2450.044922 0)"/>
     <use xlink:href="#DejaVuSans-73" transform="translate(2481.832031 0)"/>
     <use xlink:href="#DejaVuSans-69" transform="translate(2533.931641 0)"/>
     <use xlink:href="#DejaVuSans-6d" transform="translate(2561.714844 0)"/>
     <use xlink:href="#DejaVuSans-75" transform="translate(2659.126953 0)"/>
     <use xlink:href="#DejaVuSans-6c" transform="translate(2722.505859 0)"/>
     <use xlink:href="#DejaVuSans-61" transform="translate(2750.289062 0)"/>
     <use xlink:href="#DejaVuSans-74" transform="translate(2811.568359 0)"/>
     <use xlink:href="#DejaVuSans-69" transform="translate(2850.777344 0)"/>
     <use xlink:href="#DejaVuSans-6f" transform="translate(2878.560547 0)"/>
     <use xlink:href="#DejaVuSans-6e" transform="translate(2939.742188 0)"/>
     <use xlink:href="#DejaVuSans-20" transform="translate(3003.121094 0)"/>
     <use xlink:href="#DejaVuSans-73" transform="translate(3034.908203 0)"/>
     <use xlink:href="#DejaVuSans-74" transform="translate(3087.007812 0)"/>
     <use xlink:href="#DejaVuSans-65" transform="translate(3126.216797 0)"/>
     <use xlink:href="#DejaVuSans-70" transform="translate(3187.740234 0)"/>
    </g>
    <!-- Base Product: Cocaine, Recipe size: 10, T0: 5.0 -->
    <g transform="translate(283.410656 37.44) scale(0.14 -0.14)">
     <defs>
      <path id="DejaVuSans-42" d="M 1259 2228 
L 1259 519 
L 2272 519 
Q 2781 519 3026 730 
Q 3272 941 3272 1375 
Q 3272 1813 3026 2020 
Q 2781 2228 2272 2228 
L 1259 2228 
z
M 1259 4147 
L 1259 2741 
L 2194 2741 
Q 2656 2741 2882 2914 
Q 3109 3088 3109 3444 
Q 3109 3797 2882 3972 
Q 2656 4147 2194 4147 
L 1259 4147 
z
M 628 4666 
L 2241 4666 
Q 2963 4666 3353 4366 
Q 3744 4066 3744 3513 
Q 3744 3084 3544 2831 
Q 3344 2578 2956 2516 
Q 3422 2416 3680 2098 
Q 3938 1781 3938 1306 
Q 3938 681 3513 340 
Q 3088 0 2303 0 
L 628 0 
L 628 4666 
z
" transform="scale(0.015625)"/>
      <path id="DejaVuSans-3a" d="M 750 794 
L 1409 794 
L 1409 0 
L 750 0 
L 750 794 
z
M 750 3309 
L 1409 3309 
L 1409 2516 
L 750 2516 
L 750 3309 
z
" transform="scale(0.015625)"/>
      <path id="DejaVuSans-43" d="M 4122 4306 
L 4122 3641 
Q 3803 3938 3442 4084 
Q 3081 4231 2675 4231 
Q 1875 4231 1450 3742 
Q 1025 3253 1025 2328 
Q 1025 1406 1450 917 
Q 1875 428 2675 428 
Q 3081 428 3442 575 
Q 3803 722 4122 1019 
L 4122 359 
Q 3791 134 3420 21 
Q 3050 -91 2638 -91 
Q 1578 -91 968 557 
Q 359 1206 359 2328 
Q 359 3453 968 4101 
Q 1578 4750 2638 4750 
Q 3056 4750 3426 4639 
Q 3797 4528 4122 4306 
z
" transform="scale(0.015625)"/>
      <path id="DejaVuSans-2c" d="M 750 794 
L 1409 794 
L 1409 256 
L 897 -744 
L 494 -744 
L 750 256 
L 750 794 
z
" transform="scale(0.015625)"/>
      <path id="DejaVuSans-52" d="M 2841 2188 
Q 3044 2119 3236 1894 
Q 3428 1669 3622 1275 
L 4263 0 
L 3584 0 
L 2988 1197 
Q 2756 1666 2539 1819 
Q 2322 1972 1947 1972 
L 1259 1972 
L 1259 0 
L 628 0 
L 628 4666 
L 2053 4666 
Q 2853 4666 3247 4331 
Q 3641 3997 3641 3322 
Q 3641 2881 3436 2590 
Q 3231 2300 2841 2188 
z
M 1259 4147 
L 1259 2491 
L 2053 2491 
Q 2509 2491 2742 2702 
Q 2975 2913 2975 3322 
Q 2975 3731 2742 3939 
Q 2509 4147 2053 4147 
L 1259 4147 
z
" transform="scale(0.015625)"/>
      <path id="DejaVuSans-7a" d="M 353 3500 
L 3084 3500 
L 3084 2975 
L 922 459 
L 3084 459 
L 3084 0 
L 275 0 
L 275 525 
L 2438 3041 
L 353 3041 
L 353 3500 
z
" transform="scale(0.015625)"/>
      <path id="DejaVuSans-54" d="M -19 4666 
L 3928 4666 
L 3928 4134 
L 2272 4134 
L 2272 0 
L 1638 0 
L 1638 4134 
L -19 4134 
L -19 4666 
z
" transform="scale(0.015625)"/>
      <path id="DejaVuSans-2e" d="M 684 794 
L 1344 794 
L 1344 0 
L 684 0 
L 684 794 
z
" transform="scale(0.015625)"/>
     </defs>
     <use xlink:href="#DejaVuSans-42"/>
     <use xlink:href="#DejaVuSans-61" transform="translate(68.603516 0)"/>
     <use xlink:href="#DejaVuSans-73" transform="translate(129.882812 0)"/>
     <use xlink:href="#DejaVuSans-65" transform="translate(181.982422 0)"/>
     <use xlink:href="#DejaVuSans-20" transform="translate(243.505859 0)"/>
     <use xlink:href="#DejaVuSans-50" transform="translate(275.292969 0)"/>
     <use xlink:href="#DejaVuSans-72" transform="translate(333.845703 0)"/>
     <use xlink:href="#DejaVuSans-6f" transform="translate(372.708984 0)"/>
     <use xlink:href="#DejaVuSans-64" transform="translate(433.890625 0)"/>
     <use xlink:href="#DejaVuSans-75" transform="translate(497.367188 0)"/>
     <use xlink:href="#DejaVuSans-63" transform="translate(560.746094 0)"/>
     <use xlink:href="#DejaVuSans-74" transform="translate(615.726562 0)"/>
     <use xlink:href="#DejaVuSans-3a" transform="translate(654.935547 0)"/>
     <use xlink:href="#DejaVuSans-20" transform="translate(688.626953 0)"/>
     <use xlink:href="#DejaVuSans-43" transform="translate(720.414062 0)"/>
     <use xlink:href="#DejaVuSans-6f" transform="translate(790.238281 0)"/>
     <use xlink:href="#DejaVuSans-63" transform="translate(851.419922 0)"/>
     <use xlink:href="#DejaVuSans-61" transform="translate(906.400391 0)"/>
     <use xlink:href="#DejaVuSans-69" transform="translate(967.679688 0)"/>
     <use xlink:href="#DejaVuSans-6e" transform="translate(995.462891 0)"/>
     <use xlink:href="#DejaVuSans-65" transform="translate(1058.841797 0)"/>
     <use xlink:href="#DejaVuSans-2c" transform="translate(1120.365234 0)"/>
     <use xlink:href="#DejaVuSans-20" transform="translate(1152.152344 0)"/>
     <use xlink:href="#DejaVuSans-52" transform="translate(1183.939453 0)"/>
     <use xlink:href="#DejaVuSans-65" transform="translate(1248.921875 0)"/>
     <use xlink:href="#DejaVuSans-63" transform="translate(1310.445312 0)"/>
     <use xlink:href="#DejaVuSans-69" transform="translate(1365.425781 0)"/>
     <use xlink:href="#DejaVuSans-70" transform="translate(1393.208984 0)"/>
     <use xlink:href="#DejaVuSans-65" transform="translate(1456.685547 0)"/>
     <use xlink:href="#DejaVuSans-20" transform="translate(1518.208984 0)"/>
     <use xlink:href="#DejaVuSans-73" transform="translate(1549.996094 0)"/>
     <use xlink:href="#DejaVuSans-69" transform="translate(1602.095703 0)"/>
     <use xlink:href="#DejaVuSans-7a" transform="translate(1629.878906 0)"/>
     <use xlink:href="#DejaVuSans-65" transform="translate(1682.369141 0)"/>
     <use xlink:href="#DejaVuSans-3a" transform="translate(1743.892578 0)"/>
     <use xlink:href="#DejaVuSans-20" transform="translate(1777.583984 0)"/>
     <use xlink:href="#DejaVuSans-31" transform="translate(1809.371094 0)"/>
     <use xlink:href="#DejaVuSans-30" transform="translate(1872.994141 0)"/>
     <use xlink:href="#DejaVuSans-2c" transform="translate(1936.617188 0)"/>
     <use xlink:href="#DejaVuSans-20" transform="translate(1968.404297 0)"/>
     <use xlink:href="#DejaVuSans-54" transform="translate(2000.191406 0)"/>
     <use xlink:href="#DejaVuSans-30" transform="translate(2061.275391 0)"/>
     <use xlink:href="#DejaVuSans-3a" transform="translate(2124.898438 0)"/>
     <use xlink:href="#DejaVuSans-20" transform="translate(2158.589844 0)"/>
     <use xlink:href="#DejaVuSans-35" transform="translate(2190.376953 0)"/>
     <use xlink:href="#DejaVuSans-2e" transform="translate(2254 0)"/>
     <use xlink:href="#DejaVuSans-30" transform="translate(2285.787109 0)"/>
    </g>
   </g>
  </g>
 </g>
 <defs>
  <clipPath id="p6f78c6fe9d">
   <rect x="50.87" y="43.44" width="793.996" height="346.6"/>
  </clipPath>
 </defs>
</svg>
