<?xml version="1.0" encoding="utf-8" standalone="no"?>
<!DOCTYPE svg PUBLIC "-//W3C//DTD SVG 1.1//EN"
  "http://www.w3.org/Graphics/SVG/1.1/DTD/svg11.dtd">
<svg xmlns:xlink="http://www.w3.org/1999/xlink" width="864pt" height="432pt" viewBox="0 0 864 432" xmlns="http://www.w3.org/2000/svg" version="1.1">
 <metadata>
  <rdf:RDF xmlns:dc="http://purl.org/dc/elements/1.1/" xmlns:cc="http://creativecommons.org/ns#" xmlns:rdf="http://www.w3.org/1999/02/22-rdf-syntax-ns#">
   <cc:Work>
    <dc:type rdf:resource="http://purl.org/dc/dcmitype/StillImage"/>
    <dc:date>2025-05-24T02:21:00.222545</dc:date>
    <dc:format>image/svg+xml</dc:format>
    <dc:creator>
     <cc:Agent>
      <dc:title>Matplotlib v3.10.3, https://matplotlib.org/</dc:title>
     </cc:Agent>
    </dc:creator>
   </cc:Work>
  </rdf:RDF>
 </metadata>
 <defs>
  <style type="text/css">*{stroke-linejoin: round; stroke-linecap: butt}</style>
 </defs>
 <g id="figure_1">
  <g id="patch_1">
   <path d="M 0 432 
L 864 432 
L 864 0 
L 0 0 
z
" style="fill: #ffffff"/>
  </g>
  <g id="axes_1">
   <g id="patch_2">
    <path d="M 50.87 390.04 
L 844.866 390.04 
L 844.866 43.44 
L 50.87 43.44 
z
" style="fill: #ffffff"/>
   </g>
   <g id="FillBetweenPolyCollection_1">
    <defs>
     <path id="maf37d44306" d="M 52.193327 -304.319291 
L 52.193327 -57.714545 
L 54.83998 -59.405652 
L 57.486633 -76.26417 
L 60.133287 -91.037317 
L 62.77994 -103.47627 
L 65.426593 -114.616182 
L 68.073247 -124.310745 
L 70.7199 -133.075926 
L 73.366553 -141.146337 
L 76.013207 -147.885538 
L 78.65986 -154.084379 
L 81.306513 -159.595657 
L 83.953167 -164.733611 
L 86.59982 -169.283542 
L 89.246473 -173.094521 
L 91.893127 -177.39337 
L 94.53978 -181.042485 
L 97.186433 -184.583977 
L 99.833087 -187.571019 
L 102.47974 -190.880649 
L 105.126393 -193.784296 
L 107.773047 -196.32936 
L 110.4197 -198.887291 
L 113.066353 -201.079778 
L 115.713007 -203.19909 
L 118.35966 -205.155215 
L 121.006313 -207.21027 
L 123.652967 -208.961592 
L 126.29962 -211.000929 
L 128.946273 -212.76178 
L 131.592927 -214.243676 
L 134.23958 -215.852334 
L 136.886233 -217.279379 
L 139.532887 -218.726683 
L 142.17954 -220.28782 
L 144.826193 -221.20523 
L 147.472847 -222.406725 
L 150.1195 -223.557605 
L 152.766153 -224.898282 
L 155.412807 -225.797795 
L 158.05946 -226.835615 
L 160.706113 -227.885081 
L 163.352767 -228.847873 
L 165.99942 -229.899293 
L 168.646073 -230.770485 
L 171.292727 -231.828625 
L 173.93938 -232.574357 
L 176.586033 -233.43997 
L 179.232687 -234.347118 
L 181.87934 -235.167837 
L 184.525993 -235.917825 
L 187.172647 -236.890187 
L 189.8193 -237.620832 
L 192.465953 -238.532541 
L 195.112607 -239.209538 
L 197.75926 -239.863955 
L 200.405913 -240.595374 
L 203.052567 -241.267464 
L 205.69922 -241.951098 
L 208.345873 -242.48372 
L 210.992527 -243.05521 
L 213.63918 -243.4639 
L 216.285833 -243.956739 
L 218.932487 -244.449516 
L 221.57914 -244.909941 
L 224.225793 -245.590582 
L 226.872447 -245.993348 
L 229.5191 -246.446199 
L 232.165753 -246.93069 
L 234.812407 -247.393802 
L 237.45906 -247.816337 
L 240.105713 -248.257319 
L 242.752367 -248.632109 
L 245.39902 -249.023737 
L 248.045673 -249.400339 
L 250.692327 -249.769632 
L 253.33898 -250.139903 
L 255.985633 -250.585913 
L 258.632287 -251.026182 
L 261.27894 -251.406754 
L 263.925593 -251.876341 
L 266.572247 -252.20414 
L 269.2189 -252.557105 
L 271.865553 -252.930755 
L 274.512207 -253.316336 
L 277.15886 -253.849386 
L 279.805513 -254.172237 
L 282.452167 -254.591128 
L 285.09882 -254.906772 
L 287.745473 -255.338041 
L 290.392127 -255.700391 
L 293.03878 -256.077543 
L 295.685433 -256.400293 
L 298.332087 -256.665464 
L 300.97874 -256.98858 
L 303.625393 -257.349078 
L 306.272047 -257.681478 
L 308.9187 -257.94217 
L 311.565353 -258.202658 
L 314.212007 -258.502564 
L 316.85866 -258.708568 
L 319.505313 -259.013808 
L 322.151967 -259.266478 
L 324.79862 -259.532178 
L 327.445273 -259.703611 
L 330.091927 -259.922646 
L 332.73858 -260.182971 
L 335.385233 -260.375782 
L 338.031887 -260.533492 
L 340.67854 -260.754766 
L 343.325193 -260.98276 
L 345.971847 -261.214988 
L 348.6185 -261.433941 
L 351.265153 -261.708723 
L 353.911807 -261.921446 
L 356.55846 -262.204004 
L 359.205113 -262.416361 
L 361.851767 -262.624972 
L 364.49842 -262.8267 
L 367.145073 -263.034171 
L 369.791727 -263.236877 
L 372.43838 -263.439379 
L 375.085033 -263.628769 
L 377.731687 -263.780656 
L 380.37834 -263.944922 
L 383.024993 -264.147547 
L 385.671647 -264.298049 
L 388.3183 -264.541394 
L 390.964953 -264.701303 
L 393.611607 -264.879129 
L 396.25826 -265.065995 
L 398.904913 -265.205218 
L 401.551567 -265.407191 
L 404.19822 -265.643002 
L 406.844873 -265.825633 
L 409.491527 -266.006961 
L 412.13818 -266.153025 
L 414.784833 -266.291556 
L 417.431487 -266.444216 
L 420.07814 -266.697131 
L 422.724793 -266.843887 
L 425.371447 -267.059664 
L 428.0181 -267.305086 
L 430.664753 -267.467153 
L 433.311407 -267.69987 
L 435.95806 -267.884292 
L 438.604713 -268.056824 
L 441.251367 -268.211643 
L 443.89802 -268.304079 
L 446.544673 -268.446396 
L 449.191327 -268.588877 
L 451.83798 -268.74618 
L 454.484633 -268.864432 
L 457.131287 -269.056184 
L 459.77794 -269.145972 
L 462.424593 -269.244556 
L 465.071247 -269.429305 
L 467.7179 -269.609044 
L 470.364553 -269.761053 
L 473.011207 -269.918967 
L 475.65786 -270.028016 
L 478.304513 -270.158525 
L 480.951167 -270.400974 
L 483.59782 -270.610032 
L 486.244473 -270.77267 
L 488.891127 -270.964992 
L 491.53778 -271.106821 
L 494.184433 -271.216644 
L 496.831087 -271.297555 
L 499.47774 -271.373254 
L 502.124393 -271.444759 
L 504.771047 -271.572825 
L 507.4177 -271.701053 
L 510.064353 -271.826961 
L 512.711007 -271.946964 
L 515.35766 -272.081789 
L 518.004313 -272.14633 
L 520.650967 -272.30856 
L 523.29762 -272.414393 
L 525.944273 -272.559439 
L 528.590927 -272.682251 
L 531.23758 -272.808647 
L 533.884233 -272.913136 
L 536.530887 -272.988428 
L 539.17754 -273.071009 
L 541.824193 -273.185555 
L 544.470847 -273.338053 
L 547.1175 -273.459033 
L 549.764153 -273.557495 
L 552.410807 -273.70531 
L 555.05746 -273.728358 
L 557.704113 -273.855853 
L 560.350767 -273.921698 
L 562.99742 -273.9998 
L 565.644073 -274.09081 
L 568.290727 -274.207718 
L 570.93738 -274.319617 
L 573.584033 -274.37801 
L 576.230687 -274.486612 
L 578.87734 -274.600954 
L 581.523993 -274.683169 
L 584.170647 -274.746489 
L 586.8173 -274.801176 
L 589.463953 -274.936938 
L 592.110607 -275.023102 
L 594.75726 -275.145996 
L 597.403913 -275.225564 
L 600.050567 -275.306109 
L 602.69722 -275.420981 
L 605.343873 -275.50853 
L 607.990527 -275.566312 
L 610.63718 -275.585166 
L 613.283833 -275.660498 
L 615.930487 -275.742468 
L 618.57714 -275.811204 
L 621.223793 -275.91382 
L 623.870447 -275.977873 
L 626.5171 -276.083909 
L 629.163753 -276.156839 
L 631.810407 -276.221869 
L 634.45706 -276.28014 
L 637.103713 -276.34965 
L 639.750367 -276.422132 
L 642.39702 -276.459554 
L 645.043673 -276.530611 
L 647.690327 -276.599347 
L 650.33698 -276.669631 
L 652.983633 -276.728634 
L 655.630287 -276.814391 
L 658.27694 -276.865088 
L 660.923593 -276.990588 
L 663.570247 -277.037254 
L 666.2169 -277.090923 
L 668.863553 -277.162225 
L 671.510207 -277.232712 
L 674.15686 -277.310854 
L 676.803513 -277.36375 
L 679.450167 -277.431427 
L 682.09682 -277.458791 
L 684.743473 -277.583925 
L 687.390127 -277.646757 
L 690.03678 -277.724614 
L 692.683433 -277.794612 
L 695.330087 -277.832075 
L 697.97674 -277.918484 
L 700.623393 -277.980867 
L 703.270047 -278.069515 
L 705.9167 -278.135564 
L 708.563353 -278.205033 
L 711.210007 -278.226615 
L 713.85666 -278.270959 
L 716.503313 -278.337374 
L 719.149967 -278.37109 
L 721.79662 -278.425045 
L 724.443273 -278.491704 
L 727.089927 -278.57681 
L 729.73658 -278.625878 
L 732.383233 -278.679425 
L 735.029887 -278.786153 
L 737.67654 -278.838275 
L 740.323193 -278.946103 
L 742.969847 -278.965974 
L 745.6165 -278.99965 
L 748.263153 -279.088135 
L 750.909807 -279.146121 
L 753.55646 -279.232937 
L 756.203113 -279.287258 
L 758.849767 -279.35579 
L 761.49642 -279.416179 
L 764.143073 -279.443869 
L 766.789727 -279.481128 
L 769.43638 -279.496968 
L 772.083033 -279.535937 
L 774.729687 -279.614528 
L 777.37634 -279.695968 
L 780.022993 -279.743896 
L 782.669647 -279.801882 
L 785.3163 -279.849566 
L 787.962953 -279.887598 
L 790.609607 -279.911216 
L 793.25626 -279.937562 
L 795.902913 -279.959918 
L 798.549567 -280.038508 
L 801.19622 -280.089327 
L 803.842873 -280.146336 
L 806.489527 -280.195078 
L 809.13618 -280.245816 
L 811.782833 -280.30091 
L 814.429487 -280.414724 
L 817.07614 -280.431867 
L 819.722793 -280.461674 
L 822.369447 -280.478532 
L 825.0161 -280.486514 
L 827.662753 -280.577768 
L 830.309407 -280.613765 
L 832.95606 -280.685392 
L 835.602713 -280.741179 
L 838.249367 -280.764837 
L 840.89602 -280.785238 
L 843.542673 -280.802585 
L 843.542673 -372.805455 
L 843.542673 -372.805455 
L 840.89602 -372.781022 
L 838.249367 -372.74018 
L 835.602713 -372.707807 
L 832.95606 -372.70512 
L 830.309407 -372.725358 
L 827.662753 -372.701577 
L 825.0161 -372.733624 
L 822.369447 -372.701455 
L 819.722793 -372.652672 
L 817.07614 -372.607554 
L 814.429487 -372.566711 
L 811.782833 -372.596966 
L 809.13618 -372.601649 
L 806.489527 -372.608979 
L 803.842873 -372.597536 
L 801.19622 -372.59322 
L 798.549567 -372.574081 
L 795.902913 -372.575303 
L 793.25626 -372.516788 
L 790.609607 -372.492722 
L 787.962953 -372.458924 
L 785.3163 -372.432293 
L 782.669647 -372.415394 
L 780.022993 -372.41344 
L 777.37634 -372.407209 
L 774.729687 -372.406558 
L 772.083033 -372.392794 
L 769.43638 -372.365715 
L 766.789727 -372.314774 
L 764.143073 -372.270104 
L 761.49642 -372.240622 
L 758.849767 -372.234962 
L 756.203113 -372.199983 
L 753.55646 -372.172864 
L 750.909807 -372.167407 
L 748.263153 -372.122207 
L 745.6165 -372.144237 
L 742.969847 -372.127664 
L 740.323193 -372.053064 
L 737.67654 -372.089224 
L 735.029887 -372.079533 
L 732.383233 -372.099689 
L 729.73658 -372.055426 
L 727.089927 -372.034537 
L 724.443273 -372.040563 
L 721.79662 -372.039545 
L 719.149967 -372.032826 
L 716.503313 -372.005299 
L 713.85666 -371.996952 
L 711.210007 -371.968162 
L 708.563353 -371.923859 
L 705.9167 -371.899426 
L 703.270047 -371.878333 
L 700.623393 -371.888065 
L 697.97674 -371.872917 
L 695.330087 -371.866891 
L 692.683433 -371.816805 
L 690.03678 -371.794856 
L 687.390127 -371.791925 
L 684.743473 -371.772664 
L 682.09682 -371.8109 
L 679.450167 -371.769936 
L 676.803513 -371.763502 
L 674.15686 -371.709059 
L 671.510207 -371.687029 
L 668.863553 -371.631038 
L 666.2169 -371.613162 
L 663.570247 -371.562913 
L 660.923593 -371.525939 
L 658.27694 -371.537015 
L 655.630287 -371.510099 
L 652.983633 -371.47793 
L 650.33698 -371.441485 
L 647.690327 -371.380486 
L 645.043673 -371.339114 
L 642.39702 -371.316351 
L 639.750367 -371.266143 
L 637.103713 -371.224445 
L 634.45706 -371.203882 
L 631.810407 -371.145774 
L 629.163753 -371.121789 
L 626.5171 -371.109858 
L 623.870447 -371.122807 
L 621.223793 -371.04043 
L 618.57714 -371.024875 
L 615.930487 -370.998325 
L 613.283833 -370.953085 
L 610.63718 -370.919694 
L 607.990527 -370.843018 
L 605.343873 -370.821395 
L 602.69722 -370.809423 
L 600.050567 -370.802216 
L 597.403913 -370.740728 
L 594.75726 -370.707338 
L 592.110607 -370.71597 
L 589.463953 -370.699519 
L 586.8173 -370.683964 
L 584.170647 -370.597678 
L 581.523993 -370.560256 
L 578.87734 -370.521042 
L 576.230687 -370.513305 
L 573.584033 -370.474417 
L 570.93738 -370.465459 
L 568.290727 -370.463097 
L 565.644073 -370.451491 
L 562.99742 -370.40674 
L 560.350767 -370.365124 
L 557.704113 -370.313449 
L 555.05746 -370.315363 
L 552.410807 -370.232457 
L 549.764153 -370.248256 
L 547.1175 -370.204685 
L 544.470847 -370.192184 
L 541.824193 -370.209572 
L 539.17754 -370.208798 
L 536.530887 -370.141691 
L 533.884233 -370.081954 
L 531.23758 -370.028855 
L 528.590927 -369.997744 
L 525.944273 -369.972742 
L 523.29762 -369.962969 
L 520.650967 -369.928479 
L 518.004313 -369.93475 
L 515.35766 -369.841297 
L 512.711007 -369.816091 
L 510.064353 -369.783067 
L 507.4177 -369.768163 
L 504.771047 -369.702318 
L 502.124393 -369.698775 
L 499.47774 -369.632971 
L 496.831087 -369.539518 
L 494.184433 -369.481003 
L 491.53778 -369.437473 
L 488.891127 -369.396142 
L 486.244473 -369.390807 
L 483.59782 -369.384699 
L 480.951167 -369.365805 
L 478.304513 -369.400417 
L 475.65786 -369.373664 
L 473.011207 -369.305254 
L 470.364553 -369.272026 
L 467.7179 -369.226134 
L 465.071247 -369.201213 
L 462.424593 -369.167456 
L 459.77794 -369.083124 
L 457.131287 -369.002131 
L 454.484633 -369.012434 
L 451.83798 -368.956239 
L 449.191327 -368.911814 
L 446.544673 -368.836847 
L 443.89802 -368.777355 
L 441.251367 -368.693389 
L 438.604713 -368.664397 
L 435.95806 -368.616876 
L 433.311407 -368.56512 
L 430.664753 -368.576481 
L 428.0181 -368.491131 
L 425.371447 -368.50404 
L 422.724793 -368.494308 
L 420.07814 -368.463442 
L 417.431487 -368.480178 
L 414.784833 -368.418568 
L 412.13818 -368.312613 
L 409.491527 -368.268432 
L 406.844873 -368.223273 
L 404.19822 -368.19766 
L 401.551567 -368.185566 
L 398.904913 -368.155107 
L 396.25826 -368.058885 
L 393.611607 -367.995727 
L 390.964953 -367.929801 
L 388.3183 -367.817128 
L 385.671647 -367.808251 
L 383.024993 -367.73471 
L 380.37834 -367.675584 
L 377.731687 -367.626557 
L 375.085033 -367.571095 
L 372.43838 -367.505821 
L 369.791727 -367.393555 
L 367.145073 -367.318955 
L 364.49842 -367.261824 
L 361.851767 -367.212715 
L 359.205113 -367.12309 
L 356.55846 -367.050078 
L 353.911807 -367.015262 
L 351.265153 -366.959557 
L 348.6185 -366.915172 
L 345.971847 -366.862194 
L 343.325193 -366.829252 
L 340.67854 -366.738486 
L 338.031887 -366.655824 
L 335.385233 -366.498358 
L 332.73858 -366.392689 
L 330.091927 -366.294349 
L 327.445273 -366.169785 
L 324.79862 -366.028893 
L 322.151967 -365.926563 
L 319.505313 -365.858437 
L 316.85866 -365.788235 
L 314.212007 -365.705451 
L 311.565353 -365.629752 
L 308.9187 -365.539149 
L 306.272047 -365.412101 
L 303.625393 -365.364744 
L 300.97874 -365.293442 
L 298.332087 -365.193881 
L 295.685433 -365.065856 
L 293.03878 -364.98694 
L 290.392127 -364.931479 
L 287.745473 -364.84731 
L 285.09882 -364.824995 
L 282.452167 -364.67604 
L 279.805513 -364.628031 
L 277.15886 -364.436278 
L 274.512207 -364.397757 
L 271.865553 -364.275229 
L 269.2189 -364.118619 
L 266.572247 -363.982694 
L 263.925593 -363.838137 
L 261.27894 -363.681852 
L 258.632287 -363.605542 
L 255.985633 -363.534444 
L 253.33898 -363.479757 
L 250.692327 -363.303153 
L 248.045673 -363.129643 
L 245.39902 -362.931417 
L 242.752367 -362.727407 
L 240.105713 -362.544899 
L 237.45906 -362.385641 
L 234.812407 -362.092495 
L 232.165753 -361.932831 
L 229.5191 -361.79316 
L 226.872447 -361.611099 
L 224.225793 -361.330088 
L 221.57914 -361.315225 
L 218.932487 -361.059135 
L 216.285833 -360.838349 
L 213.63918 -360.626562 
L 210.992527 -360.206084 
L 208.345873 -360.021661 
L 205.69922 -359.744559 
L 203.052567 -359.618937 
L 200.405913 -359.473931 
L 197.75926 -359.264792 
L 195.112607 -359.090305 
L 192.465953 -358.86899 
L 189.8193 -358.896842 
L 187.172647 -358.621695 
L 184.525993 -358.543064 
L 181.87934 -358.27716 
L 179.232687 -358.099823 
L 176.586033 -357.889176 
L 173.93938 -357.672707 
L 171.292727 -357.19469 
L 168.646073 -357.005015 
L 165.99942 -356.739884 
L 163.352767 -356.484731 
L 160.706113 -356.262479 
L 158.05946 -355.925966 
L 155.412807 -355.671097 
L 152.766153 -355.168363 
L 150.1195 -355.077638 
L 147.472847 -354.623728 
L 144.826193 -354.214244 
L 142.17954 -353.672582 
L 139.532887 -353.556366 
L 136.886233 -353.258211 
L 134.23958 -352.893805 
L 131.592927 -352.490551 
L 128.946273 -352.027153 
L 126.29962 -351.814348 
L 123.652967 -351.676225 
L 121.006313 -351.143888 
L 118.35966 -350.688837 
L 115.713007 -350.155645 
L 113.066353 -349.464946 
L 110.4197 -349.000978 
L 107.773047 -348.558796 
L 105.126393 -347.823019 
L 102.47974 -347.293532 
L 99.833087 -346.79369 
L 97.186433 -345.77963 
L 94.53978 -345.324662 
L 91.893127 -344.511802 
L 89.246473 -343.596001 
L 86.59982 -342.290383 
L 83.953167 -340.976744 
L 81.306513 -339.682447 
L 78.65986 -338.031725 
L 76.013207 -336.18807 
L 73.366553 -334.030542 
L 70.7199 -332.311002 
L 68.073247 -330.385946 
L 65.426593 -327.512921 
L 62.77994 -323.751499 
L 60.133287 -319.123873 
L 57.486633 -313.839591 
L 54.83998 -304.972201 
L 52.193327 -304.319291 
z
" style="stroke: #0000ff; stroke-opacity: 0.2"/>
    </defs>
    <g clip-path="url(#p6d529641f2)">
     <use xlink:href="#maf37d44306" x="0" y="432" style="fill: #0000ff; fill-opacity: 0.2; stroke: #0000ff; stroke-opacity: 0.2"/>
    </g>
   </g>
   <g id="matplotlib.axis_1">
    <g id="xtick_1">
     <g id="line2d_1">
      <defs>
       <path id="m40dea34309" d="M 0 0 
L 0 3.5 
" style="stroke: #000000; stroke-width: 0.8"/>
      </defs>
      <g>
       <use xlink:href="#m40dea34309" x="181.87934" y="390.04" style="stroke: #000000; stroke-width: 0.8"/>
      </g>
     </g>
     <g id="text_1">
      <!-- 50 -->
      <g transform="translate(175.51684 404.638438) scale(0.1 -0.1)">
       <defs>
        <path id="DejaVuSans-35" d="M 691 4666 
L 3169 4666 
L 3169 4134 
L 1269 4134 
L 1269 2991 
Q 1406 3038 1543 3061 
Q 1681 3084 1819 3084 
Q 2600 3084 3056 2656 
Q 3513 2228 3513 1497 
Q 3513 744 3044 326 
Q 2575 -91 1722 -91 
Q 1428 -91 1123 -41 
Q 819 9 494 109 
L 494 744 
Q 775 591 1075 516 
Q 1375 441 1709 441 
Q 2250 441 2565 725 
Q 2881 1009 2881 1497 
Q 2881 1984 2565 2268 
Q 2250 2553 1709 2553 
Q 1456 2553 1204 2497 
Q 953 2441 691 2322 
L 691 4666 
z
" transform="scale(0.015625)"/>
        <path id="DejaVuSans-30" d="M 2034 4250 
Q 1547 4250 1301 3770 
Q 1056 3291 1056 2328 
Q 1056 1369 1301 889 
Q 1547 409 2034 409 
Q 2525 409 2770 889 
Q 3016 1369 3016 2328 
Q 3016 3291 2770 3770 
Q 2525 4250 2034 4250 
z
M 2034 4750 
Q 2819 4750 3233 4129 
Q 3647 3509 3647 2328 
Q 3647 1150 3233 529 
Q 2819 -91 2034 -91 
Q 1250 -91 836 529 
Q 422 1150 422 2328 
Q 422 3509 836 4129 
Q 1250 4750 2034 4750 
z
" transform="scale(0.015625)"/>
       </defs>
       <use xlink:href="#DejaVuSans-35"/>
       <use xlink:href="#DejaVuSans-30" transform="translate(63.623047 0)"/>
      </g>
     </g>
    </g>
    <g id="xtick_2">
     <g id="line2d_2">
      <g>
       <use xlink:href="#m40dea34309" x="314.212007" y="390.04" style="stroke: #000000; stroke-width: 0.8"/>
      </g>
     </g>
     <g id="text_2">
      <!-- 100 -->
      <g transform="translate(304.668257 404.638438) scale(0.1 -0.1)">
       <defs>
        <path id="DejaVuSans-31" d="M 794 531 
L 1825 531 
L 1825 4091 
L 703 3866 
L 703 4441 
L 1819 4666 
L 2450 4666 
L 2450 531 
L 3481 531 
L 3481 0 
L 794 0 
L 794 531 
z
" transform="scale(0.015625)"/>
       </defs>
       <use xlink:href="#DejaVuSans-31"/>
       <use xlink:href="#DejaVuSans-30" transform="translate(63.623047 0)"/>
       <use xlink:href="#DejaVuSans-30" transform="translate(127.246094 0)"/>
      </g>
     </g>
    </g>
    <g id="xtick_3">
     <g id="line2d_3">
      <g>
       <use xlink:href="#m40dea34309" x="446.544673" y="390.04" style="stroke: #000000; stroke-width: 0.8"/>
      </g>
     </g>
     <g id="text_3">
      <!-- 150 -->
      <g transform="translate(437.000923 404.638438) scale(0.1 -0.1)">
       <use xlink:href="#DejaVuSans-31"/>
       <use xlink:href="#DejaVuSans-35" transform="translate(63.623047 0)"/>
       <use xlink:href="#DejaVuSans-30" transform="translate(127.246094 0)"/>
      </g>
     </g>
    </g>
    <g id="xtick_4">
     <g id="line2d_4">
      <g>
       <use xlink:href="#m40dea34309" x="578.87734" y="390.04" style="stroke: #000000; stroke-width: 0.8"/>
      </g>
     </g>
     <g id="text_4">
      <!-- 200 -->
      <g transform="translate(569.33359 404.638438) scale(0.1 -0.1)">
       <defs>
        <path id="DejaVuSans-32" d="M 1228 531 
L 3431 531 
L 3431 0 
L 469 0 
L 469 531 
Q 828 903 1448 1529 
Q 2069 2156 2228 2338 
Q 2531 2678 2651 2914 
Q 2772 3150 2772 3378 
Q 2772 3750 2511 3984 
Q 2250 4219 1831 4219 
Q 1534 4219 1204 4116 
Q 875 4013 500 3803 
L 500 4441 
Q 881 4594 1212 4672 
Q 1544 4750 1819 4750 
Q 2544 4750 2975 4387 
Q 3406 4025 3406 3419 
Q 3406 3131 3298 2873 
Q 3191 2616 2906 2266 
Q 2828 2175 2409 1742 
Q 1991 1309 1228 531 
z
" transform="scale(0.015625)"/>
       </defs>
       <use xlink:href="#DejaVuSans-32"/>
       <use xlink:href="#DejaVuSans-30" transform="translate(63.623047 0)"/>
       <use xlink:href="#DejaVuSans-30" transform="translate(127.246094 0)"/>
      </g>
     </g>
    </g>
    <g id="xtick_5">
     <g id="line2d_5">
      <g>
       <use xlink:href="#m40dea34309" x="711.210007" y="390.04" style="stroke: #000000; stroke-width: 0.8"/>
      </g>
     </g>
     <g id="text_5">
      <!-- 250 -->
      <g transform="translate(701.666257 404.638438) scale(0.1 -0.1)">
       <use xlink:href="#DejaVuSans-32"/>
       <use xlink:href="#DejaVuSans-35" transform="translate(63.623047 0)"/>
       <use xlink:href="#DejaVuSans-30" transform="translate(127.246094 0)"/>
      </g>
     </g>
    </g>
    <g id="xtick_6">
     <g id="line2d_6">
      <g>
       <use xlink:href="#m40dea34309" x="843.542673" y="390.04" style="stroke: #000000; stroke-width: 0.8"/>
      </g>
     </g>
     <g id="text_6">
      <!-- 300 -->
      <g transform="translate(833.998923 404.638438) scale(0.1 -0.1)">
       <defs>
        <path id="DejaVuSans-33" d="M 2597 2516 
Q 3050 2419 3304 2112 
Q 3559 1806 3559 1356 
Q 3559 666 3084 287 
Q 2609 -91 1734 -91 
Q 1441 -91 1130 -33 
Q 819 25 488 141 
L 488 750 
Q 750 597 1062 519 
Q 1375 441 1716 441 
Q 2309 441 2620 675 
Q 2931 909 2931 1356 
Q 2931 1769 2642 2001 
Q 2353 2234 1838 2234 
L 1294 2234 
L 1294 2753 
L 1863 2753 
Q 2328 2753 2575 2939 
Q 2822 3125 2822 3475 
Q 2822 3834 2567 4026 
Q 2313 4219 1838 4219 
Q 1578 4219 1281 4162 
Q 984 4106 628 3988 
L 628 4550 
Q 988 4650 1302 4700 
Q 1616 4750 1894 4750 
Q 2613 4750 3031 4423 
Q 3450 4097 3450 3541 
Q 3450 3153 3228 2886 
Q 3006 2619 2597 2516 
z
" transform="scale(0.015625)"/>
       </defs>
       <use xlink:href="#DejaVuSans-33"/>
       <use xlink:href="#DejaVuSans-30" transform="translate(63.623047 0)"/>
       <use xlink:href="#DejaVuSans-30" transform="translate(127.246094 0)"/>
      </g>
     </g>
    </g>
    <g id="text_7">
     <!-- Step -->
     <g transform="translate(436.482844 418.316562) scale(0.1 -0.1)">
      <defs>
       <path id="DejaVuSans-53" d="M 3425 4513 
L 3425 3897 
Q 3066 4069 2747 4153 
Q 2428 4238 2131 4238 
Q 1616 4238 1336 4038 
Q 1056 3838 1056 3469 
Q 1056 3159 1242 3001 
Q 1428 2844 1947 2747 
L 2328 2669 
Q 3034 2534 3370 2195 
Q 3706 1856 3706 1288 
Q 3706 609 3251 259 
Q 2797 -91 1919 -91 
Q 1588 -91 1214 -16 
Q 841 59 441 206 
L 441 856 
Q 825 641 1194 531 
Q 1563 422 1919 422 
Q 2459 422 2753 634 
Q 3047 847 3047 1241 
Q 3047 1584 2836 1778 
Q 2625 1972 2144 2069 
L 1759 2144 
Q 1053 2284 737 2584 
Q 422 2884 422 3419 
Q 422 4038 858 4394 
Q 1294 4750 2059 4750 
Q 2388 4750 2728 4690 
Q 3069 4631 3425 4513 
z
" transform="scale(0.015625)"/>
       <path id="DejaVuSans-74" d="M 1172 4494 
L 1172 3500 
L 2356 3500 
L 2356 3053 
L 1172 3053 
L 1172 1153 
Q 1172 725 1289 603 
Q 1406 481 1766 481 
L 2356 481 
L 2356 0 
L 1766 0 
Q 1100 0 847 248 
Q 594 497 594 1153 
L 594 3053 
L 172 3053 
L 172 3500 
L 594 3500 
L 594 4494 
L 1172 4494 
z
" transform="scale(0.015625)"/>
       <path id="DejaVuSans-65" d="M 3597 1894 
L 3597 1613 
L 953 1613 
Q 991 1019 1311 708 
Q 1631 397 2203 397 
Q 2534 397 2845 478 
Q 3156 559 3463 722 
L 3463 178 
Q 3153 47 2828 -22 
Q 2503 -91 2169 -91 
Q 1331 -91 842 396 
Q 353 884 353 1716 
Q 353 2575 817 3079 
Q 1281 3584 2069 3584 
Q 2775 3584 3186 3129 
Q 3597 2675 3597 1894 
z
M 3022 2063 
Q 3016 2534 2758 2815 
Q 2500 3097 2075 3097 
Q 1594 3097 1305 2825 
Q 1016 2553 972 2059 
L 3022 2063 
z
" transform="scale(0.015625)"/>
       <path id="DejaVuSans-70" d="M 1159 525 
L 1159 -1331 
L 581 -1331 
L 581 3500 
L 1159 3500 
L 1159 2969 
Q 1341 3281 1617 3432 
Q 1894 3584 2278 3584 
Q 2916 3584 3314 3078 
Q 3713 2572 3713 1747 
Q 3713 922 3314 415 
Q 2916 -91 2278 -91 
Q 1894 -91 1617 61 
Q 1341 213 1159 525 
z
M 3116 1747 
Q 3116 2381 2855 2742 
Q 2594 3103 2138 3103 
Q 1681 3103 1420 2742 
Q 1159 2381 1159 1747 
Q 1159 1113 1420 752 
Q 1681 391 2138 391 
Q 2594 391 2855 752 
Q 3116 1113 3116 1747 
z
" transform="scale(0.015625)"/>
      </defs>
      <use xlink:href="#DejaVuSans-53"/>
      <use xlink:href="#DejaVuSans-74" transform="translate(63.476562 0)"/>
      <use xlink:href="#DejaVuSans-65" transform="translate(102.685547 0)"/>
      <use xlink:href="#DejaVuSans-70" transform="translate(164.208984 0)"/>
     </g>
    </g>
   </g>
   <g id="matplotlib.axis_2">
    <g id="ytick_1">
     <g id="line2d_7">
      <defs>
       <path id="ma35503f88e" d="M 0 0 
L -3.5 0 
" style="stroke: #000000; stroke-width: 0.8"/>
      </defs>
      <g>
       <use xlink:href="#ma35503f88e" x="50.87" y="384.752106" style="stroke: #000000; stroke-width: 0.8"/>
      </g>
     </g>
     <g id="text_8">
      <!-- 200 -->
      <g transform="translate(24.7825 388.551325) scale(0.1 -0.1)">
       <use xlink:href="#DejaVuSans-32"/>
       <use xlink:href="#DejaVuSans-30" transform="translate(63.623047 0)"/>
       <use xlink:href="#DejaVuSans-30" transform="translate(127.246094 0)"/>
      </g>
     </g>
    </g>
    <g id="ytick_2">
     <g id="line2d_8">
      <g>
       <use xlink:href="#ma35503f88e" x="50.87" y="318.035853" style="stroke: #000000; stroke-width: 0.8"/>
      </g>
     </g>
     <g id="text_9">
      <!-- 300 -->
      <g transform="translate(24.7825 321.835072) scale(0.1 -0.1)">
       <use xlink:href="#DejaVuSans-33"/>
       <use xlink:href="#DejaVuSans-30" transform="translate(63.623047 0)"/>
       <use xlink:href="#DejaVuSans-30" transform="translate(127.246094 0)"/>
      </g>
     </g>
    </g>
    <g id="ytick_3">
     <g id="line2d_9">
      <g>
       <use xlink:href="#ma35503f88e" x="50.87" y="251.3196" style="stroke: #000000; stroke-width: 0.8"/>
      </g>
     </g>
     <g id="text_10">
      <!-- 400 -->
      <g transform="translate(24.7825 255.118819) scale(0.1 -0.1)">
       <defs>
        <path id="DejaVuSans-34" d="M 2419 4116 
L 825 1625 
L 2419 1625 
L 2419 4116 
z
M 2253 4666 
L 3047 4666 
L 3047 1625 
L 3713 1625 
L 3713 1100 
L 3047 1100 
L 3047 0 
L 2419 0 
L 2419 1100 
L 313 1100 
L 313 1709 
L 2253 4666 
z
" transform="scale(0.015625)"/>
       </defs>
       <use xlink:href="#DejaVuSans-34"/>
       <use xlink:href="#DejaVuSans-30" transform="translate(63.623047 0)"/>
       <use xlink:href="#DejaVuSans-30" transform="translate(127.246094 0)"/>
      </g>
     </g>
    </g>
    <g id="ytick_4">
     <g id="line2d_10">
      <g>
       <use xlink:href="#ma35503f88e" x="50.87" y="184.603347" style="stroke: #000000; stroke-width: 0.8"/>
      </g>
     </g>
     <g id="text_11">
      <!-- 500 -->
      <g transform="translate(24.7825 188.402566) scale(0.1 -0.1)">
       <use xlink:href="#DejaVuSans-35"/>
       <use xlink:href="#DejaVuSans-30" transform="translate(63.623047 0)"/>
       <use xlink:href="#DejaVuSans-30" transform="translate(127.246094 0)"/>
      </g>
     </g>
    </g>
    <g id="ytick_5">
     <g id="line2d_11">
      <g>
       <use xlink:href="#ma35503f88e" x="50.87" y="117.887094" style="stroke: #000000; stroke-width: 0.8"/>
      </g>
     </g>
     <g id="text_12">
      <!-- 600 -->
      <g transform="translate(24.7825 121.686313) scale(0.1 -0.1)">
       <defs>
        <path id="DejaVuSans-36" d="M 2113 2584 
Q 1688 2584 1439 2293 
Q 1191 2003 1191 1497 
Q 1191 994 1439 701 
Q 1688 409 2113 409 
Q 2538 409 2786 701 
Q 3034 994 3034 1497 
Q 3034 2003 2786 2293 
Q 2538 2584 2113 2584 
z
M 3366 4563 
L 3366 3988 
Q 3128 4100 2886 4159 
Q 2644 4219 2406 4219 
Q 1781 4219 1451 3797 
Q 1122 3375 1075 2522 
Q 1259 2794 1537 2939 
Q 1816 3084 2150 3084 
Q 2853 3084 3261 2657 
Q 3669 2231 3669 1497 
Q 3669 778 3244 343 
Q 2819 -91 2113 -91 
Q 1303 -91 875 529 
Q 447 1150 447 2328 
Q 447 3434 972 4092 
Q 1497 4750 2381 4750 
Q 2619 4750 2861 4703 
Q 3103 4656 3366 4563 
z
" transform="scale(0.015625)"/>
       </defs>
       <use xlink:href="#DejaVuSans-36"/>
       <use xlink:href="#DejaVuSans-30" transform="translate(63.623047 0)"/>
       <use xlink:href="#DejaVuSans-30" transform="translate(127.246094 0)"/>
      </g>
     </g>
    </g>
    <g id="ytick_6">
     <g id="line2d_12">
      <g>
       <use xlink:href="#ma35503f88e" x="50.87" y="51.170841" style="stroke: #000000; stroke-width: 0.8"/>
      </g>
     </g>
     <g id="text_13">
      <!-- 700 -->
      <g transform="translate(24.7825 54.97006) scale(0.1 -0.1)">
       <defs>
        <path id="DejaVuSans-37" d="M 525 4666 
L 3525 4666 
L 3525 4397 
L 1831 0 
L 1172 0 
L 2766 4134 
L 525 4134 
L 525 4666 
z
" transform="scale(0.015625)"/>
       </defs>
       <use xlink:href="#DejaVuSans-37"/>
       <use xlink:href="#DejaVuSans-30" transform="translate(63.623047 0)"/>
       <use xlink:href="#DejaVuSans-30" transform="translate(127.246094 0)"/>
      </g>
     </g>
    </g>
    <g id="text_14">
     <!-- Profit -->
     <g transform="translate(18.702813 229.779063) rotate(-90) scale(0.1 -0.1)">
      <defs>
       <path id="DejaVuSans-50" d="M 1259 4147 
L 1259 2394 
L 2053 2394 
Q 2494 2394 2734 2622 
Q 2975 2850 2975 3272 
Q 2975 3691 2734 3919 
Q 2494 4147 2053 4147 
L 1259 4147 
z
M 628 4666 
L 2053 4666 
Q 2838 4666 3239 4311 
Q 3641 3956 3641 3272 
Q 3641 2581 3239 2228 
Q 2838 1875 2053 1875 
L 1259 1875 
L 1259 0 
L 628 0 
L 628 4666 
z
" transform="scale(0.015625)"/>
       <path id="DejaVuSans-72" d="M 2631 2963 
Q 2534 3019 2420 3045 
Q 2306 3072 2169 3072 
Q 1681 3072 1420 2755 
Q 1159 2438 1159 1844 
L 1159 0 
L 581 0 
L 581 3500 
L 1159 3500 
L 1159 2956 
Q 1341 3275 1631 3429 
Q 1922 3584 2338 3584 
Q 2397 3584 2469 3576 
Q 2541 3569 2628 3553 
L 2631 2963 
z
" transform="scale(0.015625)"/>
       <path id="DejaVuSans-6f" d="M 1959 3097 
Q 1497 3097 1228 2736 
Q 959 2375 959 1747 
Q 959 1119 1226 758 
Q 1494 397 1959 397 
Q 2419 397 2687 759 
Q 2956 1122 2956 1747 
Q 2956 2369 2687 2733 
Q 2419 3097 1959 3097 
z
M 1959 3584 
Q 2709 3584 3137 3096 
Q 3566 2609 3566 1747 
Q 3566 888 3137 398 
Q 2709 -91 1959 -91 
Q 1206 -91 779 398 
Q 353 888 353 1747 
Q 353 2609 779 3096 
Q 1206 3584 1959 3584 
z
" transform="scale(0.015625)"/>
       <path id="DejaVuSans-66" d="M 2375 4863 
L 2375 4384 
L 1825 4384 
Q 1516 4384 1395 4259 
Q 1275 4134 1275 3809 
L 1275 3500 
L 2222 3500 
L 2222 3053 
L 1275 3053 
L 1275 0 
L 697 0 
L 697 3053 
L 147 3053 
L 147 3500 
L 697 3500 
L 697 3744 
Q 697 4328 969 4595 
Q 1241 4863 1831 4863 
L 2375 4863 
z
" transform="scale(0.015625)"/>
       <path id="DejaVuSans-69" d="M 603 3500 
L 1178 3500 
L 1178 0 
L 603 0 
L 603 3500 
z
M 603 4863 
L 1178 4863 
L 1178 4134 
L 603 4134 
L 603 4863 
z
" transform="scale(0.015625)"/>
      </defs>
      <use xlink:href="#DejaVuSans-50"/>
      <use xlink:href="#DejaVuSans-72" transform="translate(58.552734 0)"/>
      <use xlink:href="#DejaVuSans-6f" transform="translate(97.416016 0)"/>
      <use xlink:href="#DejaVuSans-66" transform="translate(158.597656 0)"/>
      <use xlink:href="#DejaVuSans-69" transform="translate(193.802734 0)"/>
      <use xlink:href="#DejaVuSans-74" transform="translate(221.585938 0)"/>
     </g>
    </g>
   </g>
   <g id="line2d_13">
    <path d="M 52.193327 250.983087 
L 54.83998 249.811073 
L 57.486633 236.94812 
L 60.133287 226.919405 
L 62.77994 218.386126 
L 65.426593 210.935459 
L 68.073247 204.651654 
L 70.7199 199.306536 
L 73.366553 194.411561 
L 76.013207 189.963206 
L 78.65986 185.941948 
L 81.306513 182.360937 
L 83.953167 179.144822 
L 86.59982 176.213037 
L 91.893127 171.047414 
L 94.53978 168.816426 
L 102.47974 162.912909 
L 107.773047 159.555922 
L 110.4197 158.055865 
L 121.006313 152.822931 
L 126.29962 150.592351 
L 136.886233 146.731205 
L 142.17954 145.019809 
L 147.472847 143.484773 
L 152.766153 141.966677 
L 160.706113 139.92622 
L 181.87934 135.277501 
L 195.112607 132.850079 
L 216.285833 129.602466 
L 232.165753 127.56824 
L 250.692327 125.463607 
L 266.572247 123.906583 
L 298.332087 121.070327 
L 314.212007 119.895993 
L 327.445273 119.063302 
L 345.971847 117.961409 
L 404.19822 115.079669 
L 491.53778 111.727853 
L 557.704113 109.915349 
L 655.630287 107.837755 
L 695.330087 107.150517 
L 735.029887 106.567157 
L 772.083033 106.035634 
L 793.25626 105.772825 
L 825.0161 105.389931 
L 843.542673 105.19598 
L 843.542673 105.19598 
" clip-path="url(#p6d529641f2)" style="fill: none; stroke: #0000ff; stroke-width: 1.5; stroke-linecap: square"/>
   </g>
   <g id="patch_3">
    <path d="M 50.87 390.04 
L 50.87 43.44 
" style="fill: none; stroke: #000000; stroke-width: 0.8; stroke-linejoin: miter; stroke-linecap: square"/>
   </g>
   <g id="patch_4">
    <path d="M 844.866 390.04 
L 844.866 43.44 
" style="fill: none; stroke: #000000; stroke-width: 0.8; stroke-linejoin: miter; stroke-linecap: square"/>
   </g>
   <g id="patch_5">
    <path d="M 50.87 390.04 
L 844.866 390.04 
" style="fill: none; stroke: #000000; stroke-width: 0.8; stroke-linejoin: miter; stroke-linecap: square"/>
   </g>
   <g id="patch_6">
    <path d="M 50.87 43.44 
L 844.866 43.44 
" style="fill: none; stroke: #000000; stroke-width: 0.8; stroke-linejoin: miter; stroke-linecap: square"/>
   </g>
   <g id="text_15">
    <!-- Mean profit per step with confidence interval per simulation step -->
    <g transform="translate(220.284875 21.763062) scale(0.14 -0.14)">
     <defs>
      <path id="DejaVuSans-4d" d="M 628 4666 
L 1569 4666 
L 2759 1491 
L 3956 4666 
L 4897 4666 
L 4897 0 
L 4281 0 
L 4281 4097 
L 3078 897 
L 2444 897 
L 1241 4097 
L 1241 0 
L 628 0 
L 628 4666 
z
" transform="scale(0.015625)"/>
      <path id="DejaVuSans-61" d="M 2194 1759 
Q 1497 1759 1228 1600 
Q 959 1441 959 1056 
Q 959 750 1161 570 
Q 1363 391 1709 391 
Q 2188 391 2477 730 
Q 2766 1069 2766 1631 
L 2766 1759 
L 2194 1759 
z
M 3341 1997 
L 3341 0 
L 2766 0 
L 2766 531 
Q 2569 213 2275 61 
Q 1981 -91 1556 -91 
Q 1019 -91 701 211 
Q 384 513 384 1019 
Q 384 1609 779 1909 
Q 1175 2209 1959 2209 
L 2766 2209 
L 2766 2266 
Q 2766 2663 2505 2880 
Q 2244 3097 1772 3097 
Q 1472 3097 1187 3025 
Q 903 2953 641 2809 
L 641 3341 
Q 956 3463 1253 3523 
Q 1550 3584 1831 3584 
Q 2591 3584 2966 3190 
Q 3341 2797 3341 1997 
z
" transform="scale(0.015625)"/>
      <path id="DejaVuSans-6e" d="M 3513 2113 
L 3513 0 
L 2938 0 
L 2938 2094 
Q 2938 2591 2744 2837 
Q 2550 3084 2163 3084 
Q 1697 3084 1428 2787 
Q 1159 2491 1159 1978 
L 1159 0 
L 581 0 
L 581 3500 
L 1159 3500 
L 1159 2956 
Q 1366 3272 1645 3428 
Q 1925 3584 2291 3584 
Q 2894 3584 3203 3211 
Q 3513 2838 3513 2113 
z
" transform="scale(0.015625)"/>
      <path id="DejaVuSans-20" transform="scale(0.015625)"/>
      <path id="DejaVuSans-73" d="M 2834 3397 
L 2834 2853 
Q 2591 2978 2328 3040 
Q 2066 3103 1784 3103 
Q 1356 3103 1142 2972 
Q 928 2841 928 2578 
Q 928 2378 1081 2264 
Q 1234 2150 1697 2047 
L 1894 2003 
Q 2506 1872 2764 1633 
Q 3022 1394 3022 966 
Q 3022 478 2636 193 
Q 2250 -91 1575 -91 
Q 1294 -91 989 -36 
Q 684 19 347 128 
L 347 722 
Q 666 556 975 473 
Q 1284 391 1588 391 
Q 1994 391 2212 530 
Q 2431 669 2431 922 
Q 2431 1156 2273 1281 
Q 2116 1406 1581 1522 
L 1381 1569 
Q 847 1681 609 1914 
Q 372 2147 372 2553 
Q 372 3047 722 3315 
Q 1072 3584 1716 3584 
Q 2034 3584 2315 3537 
Q 2597 3491 2834 3397 
z
" transform="scale(0.015625)"/>
      <path id="DejaVuSans-77" d="M 269 3500 
L 844 3500 
L 1563 769 
L 2278 3500 
L 2956 3500 
L 3675 769 
L 4391 3500 
L 4966 3500 
L 4050 0 
L 3372 0 
L 2619 2869 
L 1863 0 
L 1184 0 
L 269 3500 
z
" transform="scale(0.015625)"/>
      <path id="DejaVuSans-68" d="M 3513 2113 
L 3513 0 
L 2938 0 
L 2938 2094 
Q 2938 2591 2744 2837 
Q 2550 3084 2163 3084 
Q 1697 3084 1428 2787 
Q 1159 2491 1159 1978 
L 1159 0 
L 581 0 
L 581 4863 
L 1159 4863 
L 1159 2956 
Q 1366 3272 1645 3428 
Q 1925 3584 2291 3584 
Q 2894 3584 3203 3211 
Q 3513 2838 3513 2113 
z
" transform="scale(0.015625)"/>
      <path id="DejaVuSans-63" d="M 3122 3366 
L 3122 2828 
Q 2878 2963 2633 3030 
Q 2388 3097 2138 3097 
Q 1578 3097 1268 2742 
Q 959 2388 959 1747 
Q 959 1106 1268 751 
Q 1578 397 2138 397 
Q 2388 397 2633 464 
Q 2878 531 3122 666 
L 3122 134 
Q 2881 22 2623 -34 
Q 2366 -91 2075 -91 
Q 1284 -91 818 406 
Q 353 903 353 1747 
Q 353 2603 823 3093 
Q 1294 3584 2113 3584 
Q 2378 3584 2631 3529 
Q 2884 3475 3122 3366 
z
" transform="scale(0.015625)"/>
      <path id="DejaVuSans-64" d="M 2906 2969 
L 2906 4863 
L 3481 4863 
L 3481 0 
L 2906 0 
L 2906 525 
Q 2725 213 2448 61 
Q 2172 -91 1784 -91 
Q 1150 -91 751 415 
Q 353 922 353 1747 
Q 353 2572 751 3078 
Q 1150 3584 1784 3584 
Q 2172 3584 2448 3432 
Q 2725 3281 2906 2969 
z
M 947 1747 
Q 947 1113 1208 752 
Q 1469 391 1925 391 
Q 2381 391 2643 752 
Q 2906 1113 2906 1747 
Q 2906 2381 2643 2742 
Q 2381 3103 1925 3103 
Q 1469 3103 1208 2742 
Q 947 2381 947 1747 
z
" transform="scale(0.015625)"/>
      <path id="DejaVuSans-76" d="M 191 3500 
L 800 3500 
L 1894 563 
L 2988 3500 
L 3597 3500 
L 2284 0 
L 1503 0 
L 191 3500 
z
" transform="scale(0.015625)"/>
      <path id="DejaVuSans-6c" d="M 603 4863 
L 1178 4863 
L 1178 0 
L 603 0 
L 603 4863 
z
" transform="scale(0.015625)"/>
      <path id="DejaVuSans-6d" d="M 3328 2828 
Q 3544 3216 3844 3400 
Q 4144 3584 4550 3584 
Q 5097 3584 5394 3201 
Q 5691 2819 5691 2113 
L 5691 0 
L 5113 0 
L 5113 2094 
Q 5113 2597 4934 2840 
Q 4756 3084 4391 3084 
Q 3944 3084 3684 2787 
Q 3425 2491 3425 1978 
L 3425 0 
L 2847 0 
L 2847 2094 
Q 2847 2600 2669 2842 
Q 2491 3084 2119 3084 
Q 1678 3084 1418 2786 
Q 1159 2488 1159 1978 
L 1159 0 
L 581 0 
L 581 3500 
L 1159 3500 
L 1159 2956 
Q 1356 3278 1631 3431 
Q 1906 3584 2284 3584 
Q 2666 3584 2933 3390 
Q 3200 3197 3328 2828 
z
" transform="scale(0.015625)"/>
      <path id="DejaVuSans-75" d="M 544 1381 
L 544 3500 
L 1119 3500 
L 1119 1403 
Q 1119 906 1312 657 
Q 1506 409 1894 409 
Q 2359 409 2629 706 
Q 2900 1003 2900 1516 
L 2900 3500 
L 3475 3500 
L 3475 0 
L 2900 0 
L 2900 538 
Q 2691 219 2414 64 
Q 2138 -91 1772 -91 
Q 1169 -91 856 284 
Q 544 659 544 1381 
z
M 1991 3584 
L 1991 3584 
z
" transform="scale(0.015625)"/>
     </defs>
     <use xlink:href="#DejaVuSans-4d"/>
     <use xlink:href="#DejaVuSans-65" transform="translate(86.279297 0)"/>
     <use xlink:href="#DejaVuSans-61" transform="translate(147.802734 0)"/>
     <use xlink:href="#DejaVuSans-6e" transform="translate(209.082031 0)"/>
     <use xlink:href="#DejaVuSans-20" transform="translate(272.460938 0)"/>
     <use xlink:href="#DejaVuSans-70" transform="translate(304.248047 0)"/>
     <use xlink:href="#DejaVuSans-72" transform="translate(367.724609 0)"/>
     <use xlink:href="#DejaVuSans-6f" transform="translate(406.587891 0)"/>
     <use xlink:href="#DejaVuSans-66" transform="translate(467.769531 0)"/>
     <use xlink:href="#DejaVuSans-69" transform="translate(502.974609 0)"/>
     <use xlink:href="#DejaVuSans-74" transform="translate(530.757812 0)"/>
     <use xlink:href="#DejaVuSans-20" transform="translate(569.966797 0)"/>
     <use xlink:href="#DejaVuSans-70" transform="translate(601.753906 0)"/>
     <use xlink:href="#DejaVuSans-65" transform="translate(665.230469 0)"/>
     <use xlink:href="#DejaVuSans-72" transform="translate(726.753906 0)"/>
     <use xlink:href="#DejaVuSans-20" transform="translate(767.867188 0)"/>
     <use xlink:href="#DejaVuSans-73" transform="translate(799.654297 0)"/>
     <use xlink:href="#DejaVuSans-74" transform="translate(851.753906 0)"/>
     <use xlink:href="#DejaVuSans-65" transform="translate(890.962891 0)"/>
     <use xlink:href="#DejaVuSans-70" transform="translate(952.486328 0)"/>
     <use xlink:href="#DejaVuSans-20" transform="translate(1015.962891 0)"/>
     <use xlink:href="#DejaVuSans-77" transform="translate(1047.75 0)"/>
     <use xlink:href="#DejaVuSans-69" transform="translate(1129.537109 0)"/>
     <use xlink:href="#DejaVuSans-74" transform="translate(1157.320312 0)"/>
     <use xlink:href="#DejaVuSans-68" transform="translate(1196.529297 0)"/>
     <use xlink:href="#DejaVuSans-20" transform="translate(1259.908203 0)"/>
     <use xlink:href="#DejaVuSans-63" transform="translate(1291.695312 0)"/>
     <use xlink:href="#DejaVuSans-6f" transform="translate(1346.675781 0)"/>
     <use xlink:href="#DejaVuSans-6e" transform="translate(1407.857422 0)"/>
     <use xlink:href="#DejaVuSans-66" transform="translate(1471.236328 0)"/>
     <use xlink:href="#DejaVuSans-69" transform="translate(1506.441406 0)"/>
     <use xlink:href="#DejaVuSans-64" transform="translate(1534.224609 0)"/>
     <use xlink:href="#DejaVuSans-65" transform="translate(1597.701172 0)"/>
     <use xlink:href="#DejaVuSans-6e" transform="translate(1659.224609 0)"/>
     <use xlink:href="#DejaVuSans-63" transform="translate(1722.603516 0)"/>
     <use xlink:href="#DejaVuSans-65" transform="translate(1777.583984 0)"/>
     <use xlink:href="#DejaVuSans-20" transform="translate(1839.107422 0)"/>
     <use xlink:href="#DejaVuSans-69" transform="translate(1870.894531 0)"/>
     <use xlink:href="#DejaVuSans-6e" transform="translate(1898.677734 0)"/>
     <use xlink:href="#DejaVuSans-74" transform="translate(1962.056641 0)"/>
     <use xlink:href="#DejaVuSans-65" transform="translate(2001.265625 0)"/>
     <use xlink:href="#DejaVuSans-72" transform="translate(2062.789062 0)"/>
     <use xlink:href="#DejaVuSans-76" transform="translate(2103.902344 0)"/>
     <use xlink:href="#DejaVuSans-61" transform="translate(2163.082031 0)"/>
     <use xlink:href="#DejaVuSans-6c" transform="translate(2224.361328 0)"/>
     <use xlink:href="#DejaVuSans-20" transform="translate(2252.144531 0)"/>
     <use xlink:href="#DejaVuSans-70" transform="translate(2283.931641 0)"/>
     <use xlink:href="#DejaVuSans-65" transform="translate(2347.408203 0)"/>
     <use xlink:href="#DejaVuSans-72" transform="translate(2408.931641 0)"/>
     <use xlink:href="#DejaVuSans-20" transform="translate(2450.044922 0)"/>
     <use xlink:href="#DejaVuSans-73" transform="translate(2481.832031 0)"/>
     <use xlink:href="#DejaVuSans-69" transform="translate(2533.931641 0)"/>
     <use xlink:href="#DejaVuSans-6d" transform="translate(2561.714844 0)"/>
     <use xlink:href="#DejaVuSans-75" transform="translate(2659.126953 0)"/>
     <use xlink:href="#DejaVuSans-6c" transform="translate(2722.505859 0)"/>
     <use xlink:href="#DejaVuSans-61" transform="translate(2750.289062 0)"/>
     <use xlink:href="#DejaVuSans-74" transform="translate(2811.568359 0)"/>
     <use xlink:href="#DejaVuSans-69" transform="translate(2850.777344 0)"/>
     <use xlink:href="#DejaVuSans-6f" transform="translate(2878.560547 0)"/>
     <use xlink:href="#DejaVuSans-6e" transform="translate(2939.742188 0)"/>
     <use xlink:href="#DejaVuSans-20" transform="translate(3003.121094 0)"/>
     <use xlink:href="#DejaVuSans-73" transform="translate(3034.908203 0)"/>
     <use xlink:href="#DejaVuSans-74" transform="translate(3087.007812 0)"/>
     <use xlink:href="#DejaVuSans-65" transform="translate(3126.216797 0)"/>
     <use xlink:href="#DejaVuSans-70" transform="translate(3187.740234 0)"/>
    </g>
    <!-- Base Product: Cocaine, Recipe size: 8, T0: 5.0 -->
    <g transform="translate(287.864406 37.44) scale(0.14 -0.14)">
     <defs>
      <path id="DejaVuSans-42" d="M 1259 2228 
L 1259 519 
L 2272 519 
Q 2781 519 3026 730 
Q 3272 941 3272 1375 
Q 3272 1813 3026 2020 
Q 2781 2228 2272 2228 
L 1259 2228 
z
M 1259 4147 
L 1259 2741 
L 2194 2741 
Q 2656 2741 2882 2914 
Q 3109 3088 3109 3444 
Q 3109 3797 2882 3972 
Q 2656 4147 2194 4147 
L 1259 4147 
z
M 628 4666 
L 2241 4666 
Q 2963 4666 3353 4366 
Q 3744 4066 3744 3513 
Q 3744 3084 3544 2831 
Q 3344 2578 2956 2516 
Q 3422 2416 3680 2098 
Q 3938 1781 3938 1306 
Q 3938 681 3513 340 
Q 3088 0 2303 0 
L 628 0 
L 628 4666 
z
" transform="scale(0.015625)"/>
      <path id="DejaVuSans-3a" d="M 750 794 
L 1409 794 
L 1409 0 
L 750 0 
L 750 794 
z
M 750 3309 
L 1409 3309 
L 1409 2516 
L 750 2516 
L 750 3309 
z
" transform="scale(0.015625)"/>
      <path id="DejaVuSans-43" d="M 4122 4306 
L 4122 3641 
Q 3803 3938 3442 4084 
Q 3081 4231 2675 4231 
Q 1875 4231 1450 3742 
Q 1025 3253 1025 2328 
Q 1025 1406 1450 917 
Q 1875 428 2675 428 
Q 3081 428 3442 575 
Q 3803 722 4122 1019 
L 4122 359 
Q 3791 134 3420 21 
Q 3050 -91 2638 -91 
Q 1578 -91 968 557 
Q 359 1206 359 2328 
Q 359 3453 968 4101 
Q 1578 4750 2638 4750 
Q 3056 4750 3426 4639 
Q 3797 4528 4122 4306 
z
" transform="scale(0.015625)"/>
      <path id="DejaVuSans-2c" d="M 750 794 
L 1409 794 
L 1409 256 
L 897 -744 
L 494 -744 
L 750 256 
L 750 794 
z
" transform="scale(0.015625)"/>
      <path id="DejaVuSans-52" d="M 2841 2188 
Q 3044 2119 3236 1894 
Q 3428 1669 3622 1275 
L 4263 0 
L 3584 0 
L 2988 1197 
Q 2756 1666 2539 1819 
Q 2322 1972 1947 1972 
L 1259 1972 
L 1259 0 
L 628 0 
L 628 4666 
L 2053 4666 
Q 2853 4666 3247 4331 
Q 3641 3997 3641 3322 
Q 3641 2881 3436 2590 
Q 3231 2300 2841 2188 
z
M 1259 4147 
L 1259 2491 
L 2053 2491 
Q 2509 2491 2742 2702 
Q 2975 2913 2975 3322 
Q 2975 3731 2742 3939 
Q 2509 4147 2053 4147 
L 1259 4147 
z
" transform="scale(0.015625)"/>
      <path id="DejaVuSans-7a" d="M 353 3500 
L 3084 3500 
L 3084 2975 
L 922 459 
L 3084 459 
L 3084 0 
L 275 0 
L 275 525 
L 2438 3041 
L 353 3041 
L 353 3500 
z
" transform="scale(0.015625)"/>
      <path id="DejaVuSans-38" d="M 2034 2216 
Q 1584 2216 1326 1975 
Q 1069 1734 1069 1313 
Q 1069 891 1326 650 
Q 1584 409 2034 409 
Q 2484 409 2743 651 
Q 3003 894 3003 1313 
Q 3003 1734 2745 1975 
Q 2488 2216 2034 2216 
z
M 1403 2484 
Q 997 2584 770 2862 
Q 544 3141 544 3541 
Q 544 4100 942 4425 
Q 1341 4750 2034 4750 
Q 2731 4750 3128 4425 
Q 3525 4100 3525 3541 
Q 3525 3141 3298 2862 
Q 3072 2584 2669 2484 
Q 3125 2378 3379 2068 
Q 3634 1759 3634 1313 
Q 3634 634 3220 271 
Q 2806 -91 2034 -91 
Q 1263 -91 848 271 
Q 434 634 434 1313 
Q 434 1759 690 2068 
Q 947 2378 1403 2484 
z
M 1172 3481 
Q 1172 3119 1398 2916 
Q 1625 2713 2034 2713 
Q 2441 2713 2670 2916 
Q 2900 3119 2900 3481 
Q 2900 3844 2670 4047 
Q 2441 4250 2034 4250 
Q 1625 4250 1398 4047 
Q 1172 3844 1172 3481 
z
" transform="scale(0.015625)"/>
      <path id="DejaVuSans-54" d="M -19 4666 
L 3928 4666 
L 3928 4134 
L 2272 4134 
L 2272 0 
L 1638 0 
L 1638 4134 
L -19 4134 
L -19 4666 
z
" transform="scale(0.015625)"/>
      <path id="DejaVuSans-2e" d="M 684 794 
L 1344 794 
L 1344 0 
L 684 0 
L 684 794 
z
" transform="scale(0.015625)"/>
     </defs>
     <use xlink:href="#DejaVuSans-42"/>
     <use xlink:href="#DejaVuSans-61" transform="translate(68.603516 0)"/>
     <use xlink:href="#DejaVuSans-73" transform="translate(129.882812 0)"/>
     <use xlink:href="#DejaVuSans-65" transform="translate(181.982422 0)"/>
     <use xlink:href="#DejaVuSans-20" transform="translate(243.505859 0)"/>
     <use xlink:href="#DejaVuSans-50" transform="translate(275.292969 0)"/>
     <use xlink:href="#DejaVuSans-72" transform="translate(333.845703 0)"/>
     <use xlink:href="#DejaVuSans-6f" transform="translate(372.708984 0)"/>
     <use xlink:href="#DejaVuSans-64" transform="translate(433.890625 0)"/>
     <use xlink:href="#DejaVuSans-75" transform="translate(497.367188 0)"/>
     <use xlink:href="#DejaVuSans-63" transform="translate(560.746094 0)"/>
     <use xlink:href="#DejaVuSans-74" transform="translate(615.726562 0)"/>
     <use xlink:href="#DejaVuSans-3a" transform="translate(654.935547 0)"/>
     <use xlink:href="#DejaVuSans-20" transform="translate(688.626953 0)"/>
     <use xlink:href="#DejaVuSans-43" transform="translate(720.414062 0)"/>
     <use xlink:href="#DejaVuSans-6f" transform="translate(790.238281 0)"/>
     <use xlink:href="#DejaVuSans-63" transform="translate(851.419922 0)"/>
     <use xlink:href="#DejaVuSans-61" transform="translate(906.400391 0)"/>
     <use xlink:href="#DejaVuSans-69" transform="translate(967.679688 0)"/>
     <use xlink:href="#DejaVuSans-6e" transform="translate(995.462891 0)"/>
     <use xlink:href="#DejaVuSans-65" transform="translate(1058.841797 0)"/>
     <use xlink:href="#DejaVuSans-2c" transform="translate(1120.365234 0)"/>
     <use xlink:href="#DejaVuSans-20" transform="translate(1152.152344 0)"/>
     <use xlink:href="#DejaVuSans-52" transform="translate(1183.939453 0)"/>
     <use xlink:href="#DejaVuSans-65" transform="translate(1248.921875 0)"/>
     <use xlink:href="#DejaVuSans-63" transform="translate(1310.445312 0)"/>
     <use xlink:href="#DejaVuSans-69" transform="translate(1365.425781 0)"/>
     <use xlink:href="#DejaVuSans-70" transform="translate(1393.208984 0)"/>
     <use xlink:href="#DejaVuSans-65" transform="translate(1456.685547 0)"/>
     <use xlink:href="#DejaVuSans-20" transform="translate(1518.208984 0)"/>
     <use xlink:href="#DejaVuSans-73" transform="translate(1549.996094 0)"/>
     <use xlink:href="#DejaVuSans-69" transform="translate(1602.095703 0)"/>
     <use xlink:href="#DejaVuSans-7a" transform="translate(1629.878906 0)"/>
     <use xlink:href="#DejaVuSans-65" transform="translate(1682.369141 0)"/>
     <use xlink:href="#DejaVuSans-3a" transform="translate(1743.892578 0)"/>
     <use xlink:href="#DejaVuSans-20" transform="translate(1777.583984 0)"/>
     <use xlink:href="#DejaVuSans-38" transform="translate(1809.371094 0)"/>
     <use xlink:href="#DejaVuSans-2c" transform="translate(1872.994141 0)"/>
     <use xlink:href="#DejaVuSans-20" transform="translate(1904.78125 0)"/>
     <use xlink:href="#DejaVuSans-54" transform="translate(1936.568359 0)"/>
     <use xlink:href="#DejaVuSans-30" transform="translate(1997.652344 0)"/>
     <use xlink:href="#DejaVuSans-3a" transform="translate(2061.275391 0)"/>
     <use xlink:href="#DejaVuSans-20" transform="translate(2094.966797 0)"/>
     <use xlink:href="#DejaVuSans-35" transform="translate(2126.753906 0)"/>
     <use xlink:href="#DejaVuSans-2e" transform="translate(2190.376953 0)"/>
     <use xlink:href="#DejaVuSans-30" transform="translate(2222.164062 0)"/>
    </g>
   </g>
  </g>
 </g>
 <defs>
  <clipPath id="p6d529641f2">
   <rect x="50.87" y="43.44" width="793.996" height="346.6"/>
  </clipPath>
 </defs>
</svg>
