<?xml version="1.0" encoding="utf-8" standalone="no"?>
<!DOCTYPE svg PUBLIC "-//W3C//DTD SVG 1.1//EN"
  "http://www.w3.org/Graphics/SVG/1.1/DTD/svg11.dtd">
<svg xmlns:xlink="http://www.w3.org/1999/xlink" width="864pt" height="432pt" viewBox="0 0 864 432" xmlns="http://www.w3.org/2000/svg" version="1.1">
 <metadata>
  <rdf:RDF xmlns:dc="http://purl.org/dc/elements/1.1/" xmlns:cc="http://creativecommons.org/ns#" xmlns:rdf="http://www.w3.org/1999/02/22-rdf-syntax-ns#">
   <cc:Work>
    <dc:type rdf:resource="http://purl.org/dc/dcmitype/StillImage"/>
    <dc:date>2025-05-24T02:23:22.209424</dc:date>
    <dc:format>image/svg+xml</dc:format>
    <dc:creator>
     <cc:Agent>
      <dc:title>Matplotlib v3.10.3, https://matplotlib.org/</dc:title>
     </cc:Agent>
    </dc:creator>
   </cc:Work>
  </rdf:RDF>
 </metadata>
 <defs>
  <style type="text/css">*{stroke-linejoin: round; stroke-linecap: butt}</style>
 </defs>
 <g id="figure_1">
  <g id="patch_1">
   <path d="M 0 432 
L 864 432 
L 864 0 
L 0 0 
z
" style="fill: #ffffff"/>
  </g>
  <g id="axes_1">
   <g id="patch_2">
    <path d="M 50.87 390.04 
L 844.866 390.04 
L 844.866 43.44 
L 50.87 43.44 
z
" style="fill: #ffffff"/>
   </g>
   <g id="FillBetweenPolyCollection_1">
    <defs>
     <path id="m47c89eb4c3" d="M 52.193327 -307.052629 
L 52.193327 -57.714545 
L 54.83998 -59.523024 
L 57.486633 -74.959225 
L 60.133287 -88.505393 
L 62.77994 -100.063885 
L 65.426593 -110.195592 
L 68.073247 -119.979847 
L 70.7199 -128.160107 
L 73.366553 -135.463007 
L 76.013207 -142.33485 
L 78.65986 -148.417831 
L 81.306513 -153.567352 
L 83.953167 -158.044979 
L 86.59982 -162.313332 
L 89.246473 -165.517933 
L 91.893127 -168.992802 
L 94.53978 -172.450268 
L 97.186433 -175.253493 
L 99.833087 -178.431844 
L 102.47974 -180.833632 
L 105.126393 -183.229751 
L 107.773047 -185.807618 
L 110.4197 -188.020525 
L 113.066353 -189.826954 
L 115.713007 -191.811763 
L 118.35966 -193.331316 
L 121.006313 -195.26059 
L 123.652967 -197.096826 
L 126.29962 -198.728431 
L 128.946273 -200.041597 
L 131.592927 -201.710936 
L 134.23958 -203.141655 
L 136.886233 -204.697833 
L 139.532887 -206.223097 
L 142.17954 -207.50336 
L 144.826193 -208.80521 
L 147.472847 -210.16502 
L 150.1195 -211.056165 
L 152.766153 -212.027778 
L 155.412807 -213.145224 
L 158.05946 -214.089122 
L 160.706113 -214.966922 
L 163.352767 -215.761933 
L 165.99942 -216.645925 
L 168.646073 -217.760464 
L 171.292727 -218.477768 
L 173.93938 -219.041752 
L 176.586033 -219.802836 
L 179.232687 -220.437853 
L 181.87934 -221.239537 
L 184.525993 -221.896726 
L 187.172647 -222.645553 
L 189.8193 -223.147078 
L 192.465953 -224.007622 
L 195.112607 -224.566669 
L 197.75926 -225.110886 
L 200.405913 -225.674974 
L 203.052567 -226.200784 
L 205.69922 -226.777527 
L 208.345873 -227.50301 
L 210.992527 -228.120395 
L 213.63918 -228.778504 
L 216.285833 -229.262188 
L 218.932487 -229.812952 
L 221.57914 -230.292766 
L 224.225793 -230.850223 
L 226.872447 -231.333383 
L 229.5191 -231.924915 
L 232.165753 -232.44652 
L 234.812407 -232.884814 
L 237.45906 -233.249354 
L 240.105713 -233.740547 
L 242.752367 -234.221595 
L 245.39902 -234.78608 
L 248.045673 -235.234058 
L 250.692327 -235.728577 
L 253.33898 -236.140599 
L 255.985633 -236.520325 
L 258.632287 -236.7789 
L 261.27894 -237.160174 
L 263.925593 -237.441737 
L 266.572247 -237.910758 
L 269.2189 -238.368128 
L 271.865553 -238.668558 
L 274.512207 -239.066293 
L 277.15886 -239.317673 
L 279.805513 -239.664622 
L 282.452167 -239.994524 
L 285.09882 -240.192357 
L 287.745473 -240.608813 
L 290.392127 -240.968626 
L 293.03878 -241.180933 
L 295.685433 -241.467997 
L 298.332087 -241.879413 
L 300.97874 -242.220212 
L 303.625393 -242.411456 
L 306.272047 -242.746671 
L 308.9187 -243.142503 
L 311.565353 -243.413461 
L 314.212007 -243.64543 
L 316.85866 -244.019258 
L 319.505313 -244.37426 
L 322.151967 -244.47508 
L 324.79862 -244.721607 
L 327.445273 -244.943536 
L 330.091927 -245.262393 
L 332.73858 -245.452905 
L 335.385233 -245.745073 
L 338.031887 -245.967462 
L 340.67854 -246.234111 
L 343.325193 -246.528245 
L 345.971847 -246.87053 
L 348.6185 -247.047152 
L 351.265153 -247.211685 
L 353.911807 -247.492976 
L 356.55846 -247.677171 
L 359.205113 -247.885336 
L 361.851767 -248.119857 
L 364.49842 -248.397676 
L 367.145073 -248.61061 
L 369.791727 -248.904828 
L 372.43838 -249.197414 
L 375.085033 -249.477241 
L 377.731687 -249.69666 
L 380.37834 -249.935908 
L 383.024993 -250.185405 
L 385.671647 -250.397544 
L 388.3183 -250.57287 
L 390.964953 -250.764386 
L 393.611607 -250.935445 
L 396.25826 -251.166535 
L 398.904913 -251.473596 
L 401.551567 -251.637375 
L 404.19822 -251.94293 
L 406.844873 -252.130388 
L 409.491527 -252.329015 
L 412.13818 -252.52509 
L 414.784833 -252.785339 
L 417.431487 -253.016889 
L 420.07814 -253.166948 
L 422.724793 -253.360346 
L 425.371447 -253.610847 
L 428.0181 -253.849677 
L 430.664753 -253.994464 
L 433.311407 -254.228106 
L 435.95806 -254.41891 
L 438.604713 -254.760609 
L 441.251367 -254.974088 
L 443.89802 -255.09549 
L 446.544673 -255.309888 
L 449.191327 -255.390293 
L 451.83798 -255.610423 
L 454.484633 -255.823567 
L 457.131287 -256.030979 
L 459.77794 -256.165684 
L 462.424593 -256.325782 
L 465.071247 -256.388282 
L 467.7179 -256.526418 
L 470.364553 -256.725547 
L 473.011207 -256.875312 
L 475.65786 -257.085235 
L 478.304513 -257.232448 
L 480.951167 -257.450319 
L 483.59782 -257.606778 
L 486.244473 -257.81122 
L 488.891127 -257.987717 
L 491.53778 -258.125058 
L 494.184433 -258.263151 
L 496.831087 -258.442995 
L 499.47774 -258.536619 
L 502.124393 -258.775993 
L 504.771047 -258.858155 
L 507.4177 -258.931238 
L 510.064353 -258.994659 
L 512.711007 -259.154924 
L 515.35766 -259.25725 
L 518.004313 -259.409693 
L 520.650967 -259.544439 
L 523.29762 -259.652413 
L 525.944273 -259.957424 
L 528.590927 -260.223613 
L 531.23758 -260.413329 
L 533.884233 -260.50482 
L 536.530887 -260.655464 
L 539.17754 -260.909521 
L 541.824193 -260.99779 
L 544.470847 -261.148351 
L 547.1175 -261.352416 
L 549.764153 -261.458674 
L 552.410807 -261.615049 
L 555.05746 -261.758958 
L 557.704113 -261.803051 
L 560.350767 -261.926503 
L 562.99742 -262.119524 
L 565.644073 -262.192775 
L 568.290727 -262.2928 
L 570.93738 -262.40504 
L 573.584033 -262.488248 
L 576.230687 -262.682148 
L 578.87734 -262.816519 
L 581.523993 -262.884122 
L 584.170647 -262.943694 
L 586.8173 -263.009164 
L 589.463953 -263.15349 
L 592.110607 -263.327519 
L 594.75726 -263.442981 
L 597.403913 -263.56271 
L 600.050567 -263.659262 
L 602.69722 -263.755145 
L 605.343873 -263.911269 
L 607.990527 -263.999999 
L 610.63718 -264.098351 
L 613.283833 -264.157002 
L 615.930487 -264.185365 
L 618.57714 -264.282963 
L 621.223793 -264.374412 
L 623.870447 -264.481172 
L 626.5171 -264.593329 
L 629.163753 -264.747027 
L 631.810407 -264.845755 
L 634.45706 -265.027356 
L 637.103713 -265.179756 
L 639.750367 -265.262713 
L 642.39702 -265.378802 
L 645.043673 -265.450505 
L 647.690327 -265.60186 
L 650.33698 -265.618217 
L 652.983633 -265.765347 
L 655.630287 -265.883402 
L 658.27694 -265.946781 
L 660.923593 -266.043082 
L 663.570247 -266.108343 
L 666.2169 -266.281494 
L 668.863553 -266.402854 
L 671.510207 -266.48648 
L 674.15686 -266.547892 
L 676.803513 -266.66511 
L 679.450167 -266.740537 
L 682.09682 -266.778187 
L 684.743473 -266.874531 
L 687.390127 -266.949581 
L 690.03678 -267.031659 
L 692.683433 -267.089097 
L 695.330087 -267.207068 
L 697.97674 -267.343196 
L 700.623393 -267.443639 
L 703.270047 -267.522705 
L 705.9167 -267.686401 
L 708.563353 -267.789898 
L 711.210007 -267.811986 
L 713.85666 -267.95966 
L 716.503313 -268.076627 
L 719.149967 -268.194306 
L 721.79662 -268.312612 
L 724.443273 -268.355199 
L 727.089927 -268.446062 
L 729.73658 -268.49597 
L 732.383233 -268.57809 
L 735.029887 -268.643142 
L 737.67654 -268.791276 
L 740.323193 -268.90293 
L 742.969847 -269.005089 
L 745.6165 -269.125236 
L 748.263153 -269.171797 
L 750.909807 -269.247851 
L 753.55646 -269.378707 
L 756.203113 -269.480112 
L 758.849767 -269.65456 
L 761.49642 -269.790813 
L 764.143073 -269.856534 
L 766.789727 -269.902007 
L 769.43638 -269.986637 
L 772.083033 -270.089548 
L 774.729687 -270.217225 
L 777.37634 -270.25245 
L 780.022993 -270.344735 
L 782.669647 -270.391505 
L 785.3163 -270.476512 
L 787.962953 -270.493873 
L 790.609607 -270.640333 
L 793.25626 -270.709945 
L 795.902913 -270.806999 
L 798.549567 -270.893094 
L 801.19622 -270.942123 
L 803.842873 -271.024912 
L 806.489527 -271.170536 
L 809.13618 -271.230275 
L 811.782833 -271.275623 
L 814.429487 -271.310345 
L 817.07614 -271.379622 
L 819.722793 -271.465632 
L 822.369447 -271.563105 
L 825.0161 -271.611465 
L 827.662753 -271.624224 
L 830.309407 -271.725797 
L 832.95606 -271.806495 
L 835.602713 -271.861883 
L 838.249367 -271.910117 
L 840.89602 -271.981737 
L 843.542673 -272.055992 
L 843.542673 -372.805455 
L 843.542673 -372.805455 
L 840.89602 -372.767177 
L 838.249367 -372.761236 
L 835.602713 -372.732664 
L 832.95606 -372.675435 
L 830.309407 -372.65548 
L 827.662753 -372.664684 
L 825.0161 -372.607078 
L 822.369447 -372.528096 
L 819.722793 -372.532949 
L 817.07614 -372.517219 
L 814.429487 -372.466265 
L 811.782833 -372.398997 
L 809.13618 -372.343441 
L 806.489527 -372.30052 
L 803.842873 -372.314785 
L 801.19622 -372.29642 
L 798.549567 -372.256761 
L 795.902913 -372.222374 
L 793.25626 -372.211162 
L 790.609607 -372.192086 
L 787.962953 -372.220073 
L 785.3163 -372.134188 
L 782.669647 -372.139877 
L 780.022993 -372.07378 
L 777.37634 -372.054369 
L 774.729687 -371.995383 
L 772.083033 -371.947191 
L 769.43638 -371.936397 
L 766.789727 -371.874441 
L 764.143073 -371.847793 
L 761.49642 -371.827839 
L 758.849767 -371.836665 
L 756.203113 -371.865531 
L 753.55646 -371.826793 
L 750.909807 -371.857331 
L 748.263153 -371.797258 
L 745.6165 -371.726601 
L 742.969847 -371.746932 
L 740.323193 -371.726935 
L 737.67654 -371.708235 
L 735.029887 -371.688783 
L 732.383233 -371.695518 
L 729.73658 -371.647534 
L 727.089927 -371.573279 
L 724.443273 -371.530525 
L 721.79662 -371.397995 
L 719.149967 -371.380592 
L 716.503313 -371.389168 
L 713.85666 -371.374443 
L 711.210007 -371.409667 
L 708.563353 -371.2804 
L 705.9167 -371.246431 
L 703.270047 -371.232082 
L 700.623393 -371.153351 
L 697.97674 -371.067633 
L 695.330087 -371.048473 
L 692.683433 -371.02856 
L 690.03678 -370.941337 
L 687.390127 -370.903352 
L 684.743473 -370.861601 
L 682.09682 -370.752959 
L 679.450167 -370.713049 
L 676.803513 -370.68364 
L 674.15686 -370.630678 
L 671.510207 -370.542827 
L 668.863553 -370.443053 
L 666.2169 -370.427031 
L 663.570247 -370.406658 
L 660.923593 -370.360892 
L 658.27694 -370.3337 
L 655.630287 -370.286971 
L 652.983633 -370.257771 
L 650.33698 -370.251789 
L 647.690327 -370.135867 
L 645.043673 -370.090519 
L 642.39702 -370.001748 
L 639.750367 -369.953179 
L 637.103713 -369.918666 
L 634.45706 -369.917369 
L 631.810407 -369.917996 
L 629.163753 -369.862106 
L 626.5171 -369.825292 
L 623.870447 -369.816549 
L 621.223793 -369.773209 
L 618.57714 -369.694394 
L 615.930487 -369.649841 
L 613.283833 -369.533124 
L 610.63718 -369.417328 
L 607.990527 -369.381226 
L 605.343873 -369.284715 
L 602.69722 -369.251833 
L 600.050567 -369.21937 
L 597.403913 -369.15595 
L 594.75726 -369.122985 
L 592.110607 -369.075211 
L 589.463953 -369.046345 
L 586.8173 -369.046847 
L 584.170647 -368.991669 
L 581.523993 -368.888172 
L 578.87734 -368.78685 
L 576.230687 -368.752379 
L 573.584033 -368.778358 
L 570.93738 -368.697576 
L 568.290727 -368.640975 
L 565.644073 -368.590816 
L 562.99742 -368.541578 
L 560.350767 -368.54208 
L 557.704113 -368.47753 
L 555.05746 -368.342825 
L 552.410807 -368.319816 
L 549.764153 -368.287019 
L 547.1175 -368.242173 
L 544.470847 -368.206447 
L 541.824193 -368.147168 
L 539.17754 -368.0594 
L 536.530887 -368.047561 
L 533.884233 -367.960087 
L 531.23758 -367.880644 
L 528.590927 -367.863785 
L 525.944273 -367.881314 
L 523.29762 -367.916663 
L 520.650967 -367.846842 
L 518.004313 -367.826386 
L 515.35766 -367.802122 
L 512.711007 -367.703227 
L 510.064353 -367.651144 
L 507.4177 -367.532001 
L 504.771047 -367.43047 
L 502.124393 -367.334252 
L 499.47774 -367.31618 
L 496.831087 -367.233516 
L 494.184433 -367.181433 
L 491.53778 -367.106257 
L 488.891127 -366.946661 
L 486.244473 -366.896 
L 483.59782 -366.842746 
L 480.951167 -366.754058 
L 478.304513 -366.706283 
L 475.65786 -366.653949 
L 473.011207 -366.606175 
L 470.364553 -366.484187 
L 467.7179 -366.409054 
L 465.071247 -366.361698 
L 462.424593 -366.187585 
L 459.77794 -366.122031 
L 457.131287 -366.029746 
L 454.484633 -365.924743 
L 451.83798 -365.906378 
L 449.191327 -365.907884 
L 446.544673 -365.725739 
L 443.89802 -365.677337 
L 441.251367 -365.5971 
L 438.604713 -365.547108 
L 435.95806 -365.565181 
L 433.311407 -365.448924 
L 430.664753 -365.375255 
L 428.0181 -365.271883 
L 425.371447 -365.248916 
L 422.724793 -365.187923 
L 420.07814 -365.12011 
L 417.431487 -364.972813 
L 414.784833 -364.912279 
L 412.13818 -364.904624 
L 409.491527 -364.814723 
L 406.844873 -364.710556 
L 404.19822 -364.622663 
L 401.551567 -364.581666 
L 398.904913 -364.473693 
L 396.25826 -364.434536 
L 393.611607 -364.36802 
L 390.964953 -364.265737 
L 388.3183 -364.163244 
L 385.671647 -364.025819 
L 383.024993 -363.897515 
L 380.37834 -363.822799 
L 377.731687 -363.765947 
L 375.085033 -363.586605 
L 372.43838 -363.507832 
L 369.791727 -363.459472 
L 367.145073 -363.388062 
L 364.49842 -363.299876 
L 361.851767 -363.278331 
L 359.205113 -363.180524 
L 356.55846 -363.040548 
L 353.911807 -362.900111 
L 351.265153 -362.771514 
L 348.6185 -362.576442 
L 345.971847 -362.362169 
L 343.325193 -362.375723 
L 340.67854 -362.269842 
L 338.031887 -362.151034 
L 335.385233 -362.003695 
L 332.73858 -361.849662 
L 330.091927 -361.633883 
L 327.445273 -361.538502 
L 324.79862 -361.400157 
L 322.151967 -361.225836 
L 319.505313 -360.976589 
L 316.85866 -360.89334 
L 314.212007 -360.819796 
L 311.565353 -360.585735 
L 308.9187 -360.420366 
L 306.272047 -360.355356 
L 303.625393 -360.11753 
L 300.97874 -359.882131 
L 298.332087 -359.786373 
L 295.685433 -359.723664 
L 293.03878 -359.586407 
L 290.392127 -359.358706 
L 287.745473 -359.250272 
L 285.09882 -359.08574 
L 282.452167 -358.783866 
L 279.805513 -358.628914 
L 277.15886 -358.470112 
L 274.512207 -358.158993 
L 271.865553 -357.986638 
L 269.2189 -357.82336 
L 266.572247 -357.735969 
L 263.925593 -357.612643 
L 261.27894 -357.39519 
L 258.632287 -357.155482 
L 255.985633 -356.812737 
L 253.33898 -356.622686 
L 250.692327 -356.483839 
L 248.045673 -356.374862 
L 245.39902 -356.196148 
L 242.752367 -356.004046 
L 240.105713 -355.765886 
L 237.45906 -355.583281 
L 234.812407 -355.33893 
L 232.165753 -355.051907 
L 229.5191 -354.807346 
L 226.872447 -354.589559 
L 224.225793 -354.395617 
L 221.57914 -354.234682 
L 218.932487 -353.989076 
L 216.285833 -353.88834 
L 213.63918 -353.545134 
L 210.992527 -353.406162 
L 208.345873 -353.12713 
L 205.69922 -352.980628 
L 203.052567 -352.755562 
L 200.405913 -352.425702 
L 197.75926 -352.068775 
L 195.112607 -351.741676 
L 192.465953 -351.469881 
L 189.8193 -351.350696 
L 187.172647 -350.87538 
L 184.525993 -350.509584 
L 181.87934 -350.173407 
L 179.232687 -349.83974 
L 176.586033 -349.459679 
L 173.93938 -349.096687 
L 171.292727 -348.645173 
L 168.646073 -348.148229 
L 165.99942 -347.961064 
L 163.352767 -347.432995 
L 160.706113 -346.979599 
L 158.05946 -346.594016 
L 155.412807 -346.219478 
L 152.766153 -345.933459 
L 150.1195 -345.535368 
L 147.472847 -344.912043 
L 144.826193 -344.572645 
L 142.17954 -344.284535 
L 139.532887 -343.852558 
L 136.886233 -343.618958 
L 134.23958 -343.422631 
L 131.592927 -342.953172 
L 128.946273 -342.557256 
L 126.29962 -341.908747 
L 123.652967 -341.47083 
L 121.006313 -341.229574 
L 118.35966 -340.74748 
L 115.713007 -339.999909 
L 113.066353 -339.587301 
L 110.4197 -338.729246 
L 107.773047 -338.300993 
L 105.126393 -337.997153 
L 102.47974 -337.133786 
L 99.833087 -336.362285 
L 97.186433 -335.945703 
L 94.53978 -335.130612 
L 91.893127 -334.336939 
L 89.246473 -333.485494 
L 86.59982 -332.088452 
L 83.953167 -331.114935 
L 81.306513 -329.806497 
L 78.65986 -328.692628 
L 76.013207 -327.68167 
L 73.366553 -326.374529 
L 70.7199 -325.09094 
L 68.073247 -323.344166 
L 65.426593 -322.136715 
L 62.77994 -319.570457 
L 60.133287 -316.336907 
L 57.486633 -311.766137 
L 54.83998 -306.857432 
L 52.193327 -307.052629 
z
" style="stroke: #0000ff; stroke-opacity: 0.2"/>
    </defs>
    <g clip-path="url(#pe25a606980)">
     <use xlink:href="#m47c89eb4c3" x="0" y="432" style="fill: #0000ff; fill-opacity: 0.2; stroke: #0000ff; stroke-opacity: 0.2"/>
    </g>
   </g>
   <g id="matplotlib.axis_1">
    <g id="xtick_1">
     <g id="line2d_1">
      <defs>
       <path id="m2e1964dd6a" d="M 0 0 
L 0 3.5 
" style="stroke: #000000; stroke-width: 0.8"/>
      </defs>
      <g>
       <use xlink:href="#m2e1964dd6a" x="181.87934" y="390.04" style="stroke: #000000; stroke-width: 0.8"/>
      </g>
     </g>
     <g id="text_1">
      <!-- 50 -->
      <g transform="translate(175.51684 404.638438) scale(0.1 -0.1)">
       <defs>
        <path id="DejaVuSans-35" d="M 691 4666 
L 3169 4666 
L 3169 4134 
L 1269 4134 
L 1269 2991 
Q 1406 3038 1543 3061 
Q 1681 3084 1819 3084 
Q 2600 3084 3056 2656 
Q 3513 2228 3513 1497 
Q 3513 744 3044 326 
Q 2575 -91 1722 -91 
Q 1428 -91 1123 -41 
Q 819 9 494 109 
L 494 744 
Q 775 591 1075 516 
Q 1375 441 1709 441 
Q 2250 441 2565 725 
Q 2881 1009 2881 1497 
Q 2881 1984 2565 2268 
Q 2250 2553 1709 2553 
Q 1456 2553 1204 2497 
Q 953 2441 691 2322 
L 691 4666 
z
" transform="scale(0.015625)"/>
        <path id="DejaVuSans-30" d="M 2034 4250 
Q 1547 4250 1301 3770 
Q 1056 3291 1056 2328 
Q 1056 1369 1301 889 
Q 1547 409 2034 409 
Q 2525 409 2770 889 
Q 3016 1369 3016 2328 
Q 3016 3291 2770 3770 
Q 2525 4250 2034 4250 
z
M 2034 4750 
Q 2819 4750 3233 4129 
Q 3647 3509 3647 2328 
Q 3647 1150 3233 529 
Q 2819 -91 2034 -91 
Q 1250 -91 836 529 
Q 422 1150 422 2328 
Q 422 3509 836 4129 
Q 1250 4750 2034 4750 
z
" transform="scale(0.015625)"/>
       </defs>
       <use xlink:href="#DejaVuSans-35"/>
       <use xlink:href="#DejaVuSans-30" transform="translate(63.623047 0)"/>
      </g>
     </g>
    </g>
    <g id="xtick_2">
     <g id="line2d_2">
      <g>
       <use xlink:href="#m2e1964dd6a" x="314.212007" y="390.04" style="stroke: #000000; stroke-width: 0.8"/>
      </g>
     </g>
     <g id="text_2">
      <!-- 100 -->
      <g transform="translate(304.668257 404.638438) scale(0.1 -0.1)">
       <defs>
        <path id="DejaVuSans-31" d="M 794 531 
L 1825 531 
L 1825 4091 
L 703 3866 
L 703 4441 
L 1819 4666 
L 2450 4666 
L 2450 531 
L 3481 531 
L 3481 0 
L 794 0 
L 794 531 
z
" transform="scale(0.015625)"/>
       </defs>
       <use xlink:href="#DejaVuSans-31"/>
       <use xlink:href="#DejaVuSans-30" transform="translate(63.623047 0)"/>
       <use xlink:href="#DejaVuSans-30" transform="translate(127.246094 0)"/>
      </g>
     </g>
    </g>
    <g id="xtick_3">
     <g id="line2d_3">
      <g>
       <use xlink:href="#m2e1964dd6a" x="446.544673" y="390.04" style="stroke: #000000; stroke-width: 0.8"/>
      </g>
     </g>
     <g id="text_3">
      <!-- 150 -->
      <g transform="translate(437.000923 404.638438) scale(0.1 -0.1)">
       <use xlink:href="#DejaVuSans-31"/>
       <use xlink:href="#DejaVuSans-35" transform="translate(63.623047 0)"/>
       <use xlink:href="#DejaVuSans-30" transform="translate(127.246094 0)"/>
      </g>
     </g>
    </g>
    <g id="xtick_4">
     <g id="line2d_4">
      <g>
       <use xlink:href="#m2e1964dd6a" x="578.87734" y="390.04" style="stroke: #000000; stroke-width: 0.8"/>
      </g>
     </g>
     <g id="text_4">
      <!-- 200 -->
      <g transform="translate(569.33359 404.638438) scale(0.1 -0.1)">
       <defs>
        <path id="DejaVuSans-32" d="M 1228 531 
L 3431 531 
L 3431 0 
L 469 0 
L 469 531 
Q 828 903 1448 1529 
Q 2069 2156 2228 2338 
Q 2531 2678 2651 2914 
Q 2772 3150 2772 3378 
Q 2772 3750 2511 3984 
Q 2250 4219 1831 4219 
Q 1534 4219 1204 4116 
Q 875 4013 500 3803 
L 500 4441 
Q 881 4594 1212 4672 
Q 1544 4750 1819 4750 
Q 2544 4750 2975 4387 
Q 3406 4025 3406 3419 
Q 3406 3131 3298 2873 
Q 3191 2616 2906 2266 
Q 2828 2175 2409 1742 
Q 1991 1309 1228 531 
z
" transform="scale(0.015625)"/>
       </defs>
       <use xlink:href="#DejaVuSans-32"/>
       <use xlink:href="#DejaVuSans-30" transform="translate(63.623047 0)"/>
       <use xlink:href="#DejaVuSans-30" transform="translate(127.246094 0)"/>
      </g>
     </g>
    </g>
    <g id="xtick_5">
     <g id="line2d_5">
      <g>
       <use xlink:href="#m2e1964dd6a" x="711.210007" y="390.04" style="stroke: #000000; stroke-width: 0.8"/>
      </g>
     </g>
     <g id="text_5">
      <!-- 250 -->
      <g transform="translate(701.666257 404.638438) scale(0.1 -0.1)">
       <use xlink:href="#DejaVuSans-32"/>
       <use xlink:href="#DejaVuSans-35" transform="translate(63.623047 0)"/>
       <use xlink:href="#DejaVuSans-30" transform="translate(127.246094 0)"/>
      </g>
     </g>
    </g>
    <g id="xtick_6">
     <g id="line2d_6">
      <g>
       <use xlink:href="#m2e1964dd6a" x="843.542673" y="390.04" style="stroke: #000000; stroke-width: 0.8"/>
      </g>
     </g>
     <g id="text_6">
      <!-- 300 -->
      <g transform="translate(833.998923 404.638438) scale(0.1 -0.1)">
       <defs>
        <path id="DejaVuSans-33" d="M 2597 2516 
Q 3050 2419 3304 2112 
Q 3559 1806 3559 1356 
Q 3559 666 3084 287 
Q 2609 -91 1734 -91 
Q 1441 -91 1130 -33 
Q 819 25 488 141 
L 488 750 
Q 750 597 1062 519 
Q 1375 441 1716 441 
Q 2309 441 2620 675 
Q 2931 909 2931 1356 
Q 2931 1769 2642 2001 
Q 2353 2234 1838 2234 
L 1294 2234 
L 1294 2753 
L 1863 2753 
Q 2328 2753 2575 2939 
Q 2822 3125 2822 3475 
Q 2822 3834 2567 4026 
Q 2313 4219 1838 4219 
Q 1578 4219 1281 4162 
Q 984 4106 628 3988 
L 628 4550 
Q 988 4650 1302 4700 
Q 1616 4750 1894 4750 
Q 2613 4750 3031 4423 
Q 3450 4097 3450 3541 
Q 3450 3153 3228 2886 
Q 3006 2619 2597 2516 
z
" transform="scale(0.015625)"/>
       </defs>
       <use xlink:href="#DejaVuSans-33"/>
       <use xlink:href="#DejaVuSans-30" transform="translate(63.623047 0)"/>
       <use xlink:href="#DejaVuSans-30" transform="translate(127.246094 0)"/>
      </g>
     </g>
    </g>
    <g id="text_7">
     <!-- Step -->
     <g transform="translate(436.482844 418.316562) scale(0.1 -0.1)">
      <defs>
       <path id="DejaVuSans-53" d="M 3425 4513 
L 3425 3897 
Q 3066 4069 2747 4153 
Q 2428 4238 2131 4238 
Q 1616 4238 1336 4038 
Q 1056 3838 1056 3469 
Q 1056 3159 1242 3001 
Q 1428 2844 1947 2747 
L 2328 2669 
Q 3034 2534 3370 2195 
Q 3706 1856 3706 1288 
Q 3706 609 3251 259 
Q 2797 -91 1919 -91 
Q 1588 -91 1214 -16 
Q 841 59 441 206 
L 441 856 
Q 825 641 1194 531 
Q 1563 422 1919 422 
Q 2459 422 2753 634 
Q 3047 847 3047 1241 
Q 3047 1584 2836 1778 
Q 2625 1972 2144 2069 
L 1759 2144 
Q 1053 2284 737 2584 
Q 422 2884 422 3419 
Q 422 4038 858 4394 
Q 1294 4750 2059 4750 
Q 2388 4750 2728 4690 
Q 3069 4631 3425 4513 
z
" transform="scale(0.015625)"/>
       <path id="DejaVuSans-74" d="M 1172 4494 
L 1172 3500 
L 2356 3500 
L 2356 3053 
L 1172 3053 
L 1172 1153 
Q 1172 725 1289 603 
Q 1406 481 1766 481 
L 2356 481 
L 2356 0 
L 1766 0 
Q 1100 0 847 248 
Q 594 497 594 1153 
L 594 3053 
L 172 3053 
L 172 3500 
L 594 3500 
L 594 4494 
L 1172 4494 
z
" transform="scale(0.015625)"/>
       <path id="DejaVuSans-65" d="M 3597 1894 
L 3597 1613 
L 953 1613 
Q 991 1019 1311 708 
Q 1631 397 2203 397 
Q 2534 397 2845 478 
Q 3156 559 3463 722 
L 3463 178 
Q 3153 47 2828 -22 
Q 2503 -91 2169 -91 
Q 1331 -91 842 396 
Q 353 884 353 1716 
Q 353 2575 817 3079 
Q 1281 3584 2069 3584 
Q 2775 3584 3186 3129 
Q 3597 2675 3597 1894 
z
M 3022 2063 
Q 3016 2534 2758 2815 
Q 2500 3097 2075 3097 
Q 1594 3097 1305 2825 
Q 1016 2553 972 2059 
L 3022 2063 
z
" transform="scale(0.015625)"/>
       <path id="DejaVuSans-70" d="M 1159 525 
L 1159 -1331 
L 581 -1331 
L 581 3500 
L 1159 3500 
L 1159 2969 
Q 1341 3281 1617 3432 
Q 1894 3584 2278 3584 
Q 2916 3584 3314 3078 
Q 3713 2572 3713 1747 
Q 3713 922 3314 415 
Q 2916 -91 2278 -91 
Q 1894 -91 1617 61 
Q 1341 213 1159 525 
z
M 3116 1747 
Q 3116 2381 2855 2742 
Q 2594 3103 2138 3103 
Q 1681 3103 1420 2742 
Q 1159 2381 1159 1747 
Q 1159 1113 1420 752 
Q 1681 391 2138 391 
Q 2594 391 2855 752 
Q 3116 1113 3116 1747 
z
" transform="scale(0.015625)"/>
      </defs>
      <use xlink:href="#DejaVuSans-53"/>
      <use xlink:href="#DejaVuSans-74" transform="translate(63.476562 0)"/>
      <use xlink:href="#DejaVuSans-65" transform="translate(102.685547 0)"/>
      <use xlink:href="#DejaVuSans-70" transform="translate(164.208984 0)"/>
     </g>
    </g>
   </g>
   <g id="matplotlib.axis_2">
    <g id="ytick_1">
     <g id="line2d_7">
      <defs>
       <path id="m48f1538c21" d="M 0 0 
L -3.5 0 
" style="stroke: #000000; stroke-width: 0.8"/>
      </defs>
      <g>
       <use xlink:href="#m48f1538c21" x="50.87" y="334.229155" style="stroke: #000000; stroke-width: 0.8"/>
      </g>
     </g>
     <g id="text_8">
      <!-- 300 -->
      <g transform="translate(24.7825 338.028374) scale(0.1 -0.1)">
       <use xlink:href="#DejaVuSans-33"/>
       <use xlink:href="#DejaVuSans-30" transform="translate(63.623047 0)"/>
       <use xlink:href="#DejaVuSans-30" transform="translate(127.246094 0)"/>
      </g>
     </g>
    </g>
    <g id="ytick_2">
     <g id="line2d_8">
      <g>
       <use xlink:href="#m48f1538c21" x="50.87" y="265.68852" style="stroke: #000000; stroke-width: 0.8"/>
      </g>
     </g>
     <g id="text_9">
      <!-- 400 -->
      <g transform="translate(24.7825 269.487739) scale(0.1 -0.1)">
       <defs>
        <path id="DejaVuSans-34" d="M 2419 4116 
L 825 1625 
L 2419 1625 
L 2419 4116 
z
M 2253 4666 
L 3047 4666 
L 3047 1625 
L 3713 1625 
L 3713 1100 
L 3047 1100 
L 3047 0 
L 2419 0 
L 2419 1100 
L 313 1100 
L 313 1709 
L 2253 4666 
z
" transform="scale(0.015625)"/>
       </defs>
       <use xlink:href="#DejaVuSans-34"/>
       <use xlink:href="#DejaVuSans-30" transform="translate(63.623047 0)"/>
       <use xlink:href="#DejaVuSans-30" transform="translate(127.246094 0)"/>
      </g>
     </g>
    </g>
    <g id="ytick_3">
     <g id="line2d_9">
      <g>
       <use xlink:href="#m48f1538c21" x="50.87" y="197.147885" style="stroke: #000000; stroke-width: 0.8"/>
      </g>
     </g>
     <g id="text_10">
      <!-- 500 -->
      <g transform="translate(24.7825 200.947104) scale(0.1 -0.1)">
       <use xlink:href="#DejaVuSans-35"/>
       <use xlink:href="#DejaVuSans-30" transform="translate(63.623047 0)"/>
       <use xlink:href="#DejaVuSans-30" transform="translate(127.246094 0)"/>
      </g>
     </g>
    </g>
    <g id="ytick_4">
     <g id="line2d_10">
      <g>
       <use xlink:href="#m48f1538c21" x="50.87" y="128.60725" style="stroke: #000000; stroke-width: 0.8"/>
      </g>
     </g>
     <g id="text_11">
      <!-- 600 -->
      <g transform="translate(24.7825 132.406469) scale(0.1 -0.1)">
       <defs>
        <path id="DejaVuSans-36" d="M 2113 2584 
Q 1688 2584 1439 2293 
Q 1191 2003 1191 1497 
Q 1191 994 1439 701 
Q 1688 409 2113 409 
Q 2538 409 2786 701 
Q 3034 994 3034 1497 
Q 3034 2003 2786 2293 
Q 2538 2584 2113 2584 
z
M 3366 4563 
L 3366 3988 
Q 3128 4100 2886 4159 
Q 2644 4219 2406 4219 
Q 1781 4219 1451 3797 
Q 1122 3375 1075 2522 
Q 1259 2794 1537 2939 
Q 1816 3084 2150 3084 
Q 2853 3084 3261 2657 
Q 3669 2231 3669 1497 
Q 3669 778 3244 343 
Q 2819 -91 2113 -91 
Q 1303 -91 875 529 
Q 447 1150 447 2328 
Q 447 3434 972 4092 
Q 1497 4750 2381 4750 
Q 2619 4750 2861 4703 
Q 3103 4656 3366 4563 
z
" transform="scale(0.015625)"/>
       </defs>
       <use xlink:href="#DejaVuSans-36"/>
       <use xlink:href="#DejaVuSans-30" transform="translate(63.623047 0)"/>
       <use xlink:href="#DejaVuSans-30" transform="translate(127.246094 0)"/>
      </g>
     </g>
    </g>
    <g id="ytick_5">
     <g id="line2d_11">
      <g>
       <use xlink:href="#m48f1538c21" x="50.87" y="60.066615" style="stroke: #000000; stroke-width: 0.8"/>
      </g>
     </g>
     <g id="text_12">
      <!-- 700 -->
      <g transform="translate(24.7825 63.865833) scale(0.1 -0.1)">
       <defs>
        <path id="DejaVuSans-37" d="M 525 4666 
L 3525 4666 
L 3525 4397 
L 1831 0 
L 1172 0 
L 2766 4134 
L 525 4134 
L 525 4666 
z
" transform="scale(0.015625)"/>
       </defs>
       <use xlink:href="#DejaVuSans-37"/>
       <use xlink:href="#DejaVuSans-30" transform="translate(63.623047 0)"/>
       <use xlink:href="#DejaVuSans-30" transform="translate(127.246094 0)"/>
      </g>
     </g>
    </g>
    <g id="text_13">
     <!-- Profit -->
     <g transform="translate(18.702813 229.779063) rotate(-90) scale(0.1 -0.1)">
      <defs>
       <path id="DejaVuSans-50" d="M 1259 4147 
L 1259 2394 
L 2053 2394 
Q 2494 2394 2734 2622 
Q 2975 2850 2975 3272 
Q 2975 3691 2734 3919 
Q 2494 4147 2053 4147 
L 1259 4147 
z
M 628 4666 
L 2053 4666 
Q 2838 4666 3239 4311 
Q 3641 3956 3641 3272 
Q 3641 2581 3239 2228 
Q 2838 1875 2053 1875 
L 1259 1875 
L 1259 0 
L 628 0 
L 628 4666 
z
" transform="scale(0.015625)"/>
       <path id="DejaVuSans-72" d="M 2631 2963 
Q 2534 3019 2420 3045 
Q 2306 3072 2169 3072 
Q 1681 3072 1420 2755 
Q 1159 2438 1159 1844 
L 1159 0 
L 581 0 
L 581 3500 
L 1159 3500 
L 1159 2956 
Q 1341 3275 1631 3429 
Q 1922 3584 2338 3584 
Q 2397 3584 2469 3576 
Q 2541 3569 2628 3553 
L 2631 2963 
z
" transform="scale(0.015625)"/>
       <path id="DejaVuSans-6f" d="M 1959 3097 
Q 1497 3097 1228 2736 
Q 959 2375 959 1747 
Q 959 1119 1226 758 
Q 1494 397 1959 397 
Q 2419 397 2687 759 
Q 2956 1122 2956 1747 
Q 2956 2369 2687 2733 
Q 2419 3097 1959 3097 
z
M 1959 3584 
Q 2709 3584 3137 3096 
Q 3566 2609 3566 1747 
Q 3566 888 3137 398 
Q 2709 -91 1959 -91 
Q 1206 -91 779 398 
Q 353 888 353 1747 
Q 353 2609 779 3096 
Q 1206 3584 1959 3584 
z
" transform="scale(0.015625)"/>
       <path id="DejaVuSans-66" d="M 2375 4863 
L 2375 4384 
L 1825 4384 
Q 1516 4384 1395 4259 
Q 1275 4134 1275 3809 
L 1275 3500 
L 2222 3500 
L 2222 3053 
L 1275 3053 
L 1275 0 
L 697 0 
L 697 3053 
L 147 3053 
L 147 3500 
L 697 3500 
L 697 3744 
Q 697 4328 969 4595 
Q 1241 4863 1831 4863 
L 2375 4863 
z
" transform="scale(0.015625)"/>
       <path id="DejaVuSans-69" d="M 603 3500 
L 1178 3500 
L 1178 0 
L 603 0 
L 603 3500 
z
M 603 4863 
L 1178 4863 
L 1178 4134 
L 603 4134 
L 603 4863 
z
" transform="scale(0.015625)"/>
      </defs>
      <use xlink:href="#DejaVuSans-50"/>
      <use xlink:href="#DejaVuSans-72" transform="translate(58.552734 0)"/>
      <use xlink:href="#DejaVuSans-6f" transform="translate(97.416016 0)"/>
      <use xlink:href="#DejaVuSans-66" transform="translate(158.597656 0)"/>
      <use xlink:href="#DejaVuSans-69" transform="translate(193.802734 0)"/>
      <use xlink:href="#DejaVuSans-74" transform="translate(221.585938 0)"/>
     </g>
    </g>
   </g>
   <g id="line2d_12">
    <path d="M 52.193327 249.616423 
L 54.83998 248.809782 
L 57.486633 238.637308 
L 60.133287 229.57885 
L 62.77994 222.182829 
L 65.426593 215.833847 
L 68.073247 210.337983 
L 70.7199 205.374476 
L 76.013207 196.99174 
L 78.65986 193.44477 
L 81.306513 190.313086 
L 83.953167 187.420043 
L 86.59982 184.799108 
L 91.893127 180.33514 
L 94.53978 178.20956 
L 99.833087 174.602936 
L 107.773047 169.945695 
L 115.713007 166.094175 
L 123.652967 162.716172 
L 131.592927 159.667946 
L 136.886233 157.841604 
L 144.826193 155.311073 
L 150.1195 153.704233 
L 160.706113 151.026739 
L 176.586033 147.368743 
L 197.75926 143.41017 
L 205.69922 142.120933 
L 216.285833 140.424736 
L 226.872447 139.038529 
L 234.812407 137.888139 
L 242.752367 136.887179 
L 248.045673 136.19554 
L 266.572247 134.176637 
L 290.392127 131.836324 
L 340.67854 127.748024 
L 356.55846 126.641141 
L 390.964953 124.484939 
L 414.784833 123.151191 
L 449.191327 121.350912 
L 473.011207 120.259256 
L 502.124393 118.944878 
L 533.884233 117.767547 
L 552.410807 117.032567 
L 637.103713 114.450789 
L 652.983633 113.988441 
L 732.383233 111.863196 
L 740.323193 111.685067 
L 806.489527 110.264472 
L 843.542673 109.569277 
L 843.542673 109.569277 
" clip-path="url(#pe25a606980)" style="fill: none; stroke: #0000ff; stroke-width: 1.5; stroke-linecap: square"/>
   </g>
   <g id="patch_3">
    <path d="M 50.87 390.04 
L 50.87 43.44 
" style="fill: none; stroke: #000000; stroke-width: 0.8; stroke-linejoin: miter; stroke-linecap: square"/>
   </g>
   <g id="patch_4">
    <path d="M 844.866 390.04 
L 844.866 43.44 
" style="fill: none; stroke: #000000; stroke-width: 0.8; stroke-linejoin: miter; stroke-linecap: square"/>
   </g>
   <g id="patch_5">
    <path d="M 50.87 390.04 
L 844.866 390.04 
" style="fill: none; stroke: #000000; stroke-width: 0.8; stroke-linejoin: miter; stroke-linecap: square"/>
   </g>
   <g id="patch_6">
    <path d="M 50.87 43.44 
L 844.866 43.44 
" style="fill: none; stroke: #000000; stroke-width: 0.8; stroke-linejoin: miter; stroke-linecap: square"/>
   </g>
   <g id="text_14">
    <!-- Mean profit per step with confidence interval per simulation step -->
    <g transform="translate(220.284875 21.763062) scale(0.14 -0.14)">
     <defs>
      <path id="DejaVuSans-4d" d="M 628 4666 
L 1569 4666 
L 2759 1491 
L 3956 4666 
L 4897 4666 
L 4897 0 
L 4281 0 
L 4281 4097 
L 3078 897 
L 2444 897 
L 1241 4097 
L 1241 0 
L 628 0 
L 628 4666 
z
" transform="scale(0.015625)"/>
      <path id="DejaVuSans-61" d="M 2194 1759 
Q 1497 1759 1228 1600 
Q 959 1441 959 1056 
Q 959 750 1161 570 
Q 1363 391 1709 391 
Q 2188 391 2477 730 
Q 2766 1069 2766 1631 
L 2766 1759 
L 2194 1759 
z
M 3341 1997 
L 3341 0 
L 2766 0 
L 2766 531 
Q 2569 213 2275 61 
Q 1981 -91 1556 -91 
Q 1019 -91 701 211 
Q 384 513 384 1019 
Q 384 1609 779 1909 
Q 1175 2209 1959 2209 
L 2766 2209 
L 2766 2266 
Q 2766 2663 2505 2880 
Q 2244 3097 1772 3097 
Q 1472 3097 1187 3025 
Q 903 2953 641 2809 
L 641 3341 
Q 956 3463 1253 3523 
Q 1550 3584 1831 3584 
Q 2591 3584 2966 3190 
Q 3341 2797 3341 1997 
z
" transform="scale(0.015625)"/>
      <path id="DejaVuSans-6e" d="M 3513 2113 
L 3513 0 
L 2938 0 
L 2938 2094 
Q 2938 2591 2744 2837 
Q 2550 3084 2163 3084 
Q 1697 3084 1428 2787 
Q 1159 2491 1159 1978 
L 1159 0 
L 581 0 
L 581 3500 
L 1159 3500 
L 1159 2956 
Q 1366 3272 1645 3428 
Q 1925 3584 2291 3584 
Q 2894 3584 3203 3211 
Q 3513 2838 3513 2113 
z
" transform="scale(0.015625)"/>
      <path id="DejaVuSans-20" transform="scale(0.015625)"/>
      <path id="DejaVuSans-73" d="M 2834 3397 
L 2834 2853 
Q 2591 2978 2328 3040 
Q 2066 3103 1784 3103 
Q 1356 3103 1142 2972 
Q 928 2841 928 2578 
Q 928 2378 1081 2264 
Q 1234 2150 1697 2047 
L 1894 2003 
Q 2506 1872 2764 1633 
Q 3022 1394 3022 966 
Q 3022 478 2636 193 
Q 2250 -91 1575 -91 
Q 1294 -91 989 -36 
Q 684 19 347 128 
L 347 722 
Q 666 556 975 473 
Q 1284 391 1588 391 
Q 1994 391 2212 530 
Q 2431 669 2431 922 
Q 2431 1156 2273 1281 
Q 2116 1406 1581 1522 
L 1381 1569 
Q 847 1681 609 1914 
Q 372 2147 372 2553 
Q 372 3047 722 3315 
Q 1072 3584 1716 3584 
Q 2034 3584 2315 3537 
Q 2597 3491 2834 3397 
z
" transform="scale(0.015625)"/>
      <path id="DejaVuSans-77" d="M 269 3500 
L 844 3500 
L 1563 769 
L 2278 3500 
L 2956 3500 
L 3675 769 
L 4391 3500 
L 4966 3500 
L 4050 0 
L 3372 0 
L 2619 2869 
L 1863 0 
L 1184 0 
L 269 3500 
z
" transform="scale(0.015625)"/>
      <path id="DejaVuSans-68" d="M 3513 2113 
L 3513 0 
L 2938 0 
L 2938 2094 
Q 2938 2591 2744 2837 
Q 2550 3084 2163 3084 
Q 1697 3084 1428 2787 
Q 1159 2491 1159 1978 
L 1159 0 
L 581 0 
L 581 4863 
L 1159 4863 
L 1159 2956 
Q 1366 3272 1645 3428 
Q 1925 3584 2291 3584 
Q 2894 3584 3203 3211 
Q 3513 2838 3513 2113 
z
" transform="scale(0.015625)"/>
      <path id="DejaVuSans-63" d="M 3122 3366 
L 3122 2828 
Q 2878 2963 2633 3030 
Q 2388 3097 2138 3097 
Q 1578 3097 1268 2742 
Q 959 2388 959 1747 
Q 959 1106 1268 751 
Q 1578 397 2138 397 
Q 2388 397 2633 464 
Q 2878 531 3122 666 
L 3122 134 
Q 2881 22 2623 -34 
Q 2366 -91 2075 -91 
Q 1284 -91 818 406 
Q 353 903 353 1747 
Q 353 2603 823 3093 
Q 1294 3584 2113 3584 
Q 2378 3584 2631 3529 
Q 2884 3475 3122 3366 
z
" transform="scale(0.015625)"/>
      <path id="DejaVuSans-64" d="M 2906 2969 
L 2906 4863 
L 3481 4863 
L 3481 0 
L 2906 0 
L 2906 525 
Q 2725 213 2448 61 
Q 2172 -91 1784 -91 
Q 1150 -91 751 415 
Q 353 922 353 1747 
Q 353 2572 751 3078 
Q 1150 3584 1784 3584 
Q 2172 3584 2448 3432 
Q 2725 3281 2906 2969 
z
M 947 1747 
Q 947 1113 1208 752 
Q 1469 391 1925 391 
Q 2381 391 2643 752 
Q 2906 1113 2906 1747 
Q 2906 2381 2643 2742 
Q 2381 3103 1925 3103 
Q 1469 3103 1208 2742 
Q 947 2381 947 1747 
z
" transform="scale(0.015625)"/>
      <path id="DejaVuSans-76" d="M 191 3500 
L 800 3500 
L 1894 563 
L 2988 3500 
L 3597 3500 
L 2284 0 
L 1503 0 
L 191 3500 
z
" transform="scale(0.015625)"/>
      <path id="DejaVuSans-6c" d="M 603 4863 
L 1178 4863 
L 1178 0 
L 603 0 
L 603 4863 
z
" transform="scale(0.015625)"/>
      <path id="DejaVuSans-6d" d="M 3328 2828 
Q 3544 3216 3844 3400 
Q 4144 3584 4550 3584 
Q 5097 3584 5394 3201 
Q 5691 2819 5691 2113 
L 5691 0 
L 5113 0 
L 5113 2094 
Q 5113 2597 4934 2840 
Q 4756 3084 4391 3084 
Q 3944 3084 3684 2787 
Q 3425 2491 3425 1978 
L 3425 0 
L 2847 0 
L 2847 2094 
Q 2847 2600 2669 2842 
Q 2491 3084 2119 3084 
Q 1678 3084 1418 2786 
Q 1159 2488 1159 1978 
L 1159 0 
L 581 0 
L 581 3500 
L 1159 3500 
L 1159 2956 
Q 1356 3278 1631 3431 
Q 1906 3584 2284 3584 
Q 2666 3584 2933 3390 
Q 3200 3197 3328 2828 
z
" transform="scale(0.015625)"/>
      <path id="DejaVuSans-75" d="M 544 1381 
L 544 3500 
L 1119 3500 
L 1119 1403 
Q 1119 906 1312 657 
Q 1506 409 1894 409 
Q 2359 409 2629 706 
Q 2900 1003 2900 1516 
L 2900 3500 
L 3475 3500 
L 3475 0 
L 2900 0 
L 2900 538 
Q 2691 219 2414 64 
Q 2138 -91 1772 -91 
Q 1169 -91 856 284 
Q 544 659 544 1381 
z
M 1991 3584 
L 1991 3584 
z
" transform="scale(0.015625)"/>
     </defs>
     <use xlink:href="#DejaVuSans-4d"/>
     <use xlink:href="#DejaVuSans-65" transform="translate(86.279297 0)"/>
     <use xlink:href="#DejaVuSans-61" transform="translate(147.802734 0)"/>
     <use xlink:href="#DejaVuSans-6e" transform="translate(209.082031 0)"/>
     <use xlink:href="#DejaVuSans-20" transform="translate(272.460938 0)"/>
     <use xlink:href="#DejaVuSans-70" transform="translate(304.248047 0)"/>
     <use xlink:href="#DejaVuSans-72" transform="translate(367.724609 0)"/>
     <use xlink:href="#DejaVuSans-6f" transform="translate(406.587891 0)"/>
     <use xlink:href="#DejaVuSans-66" transform="translate(467.769531 0)"/>
     <use xlink:href="#DejaVuSans-69" transform="translate(502.974609 0)"/>
     <use xlink:href="#DejaVuSans-74" transform="translate(530.757812 0)"/>
     <use xlink:href="#DejaVuSans-20" transform="translate(569.966797 0)"/>
     <use xlink:href="#DejaVuSans-70" transform="translate(601.753906 0)"/>
     <use xlink:href="#DejaVuSans-65" transform="translate(665.230469 0)"/>
     <use xlink:href="#DejaVuSans-72" transform="translate(726.753906 0)"/>
     <use xlink:href="#DejaVuSans-20" transform="translate(767.867188 0)"/>
     <use xlink:href="#DejaVuSans-73" transform="translate(799.654297 0)"/>
     <use xlink:href="#DejaVuSans-74" transform="translate(851.753906 0)"/>
     <use xlink:href="#DejaVuSans-65" transform="translate(890.962891 0)"/>
     <use xlink:href="#DejaVuSans-70" transform="translate(952.486328 0)"/>
     <use xlink:href="#DejaVuSans-20" transform="translate(1015.962891 0)"/>
     <use xlink:href="#DejaVuSans-77" transform="translate(1047.75 0)"/>
     <use xlink:href="#DejaVuSans-69" transform="translate(1129.537109 0)"/>
     <use xlink:href="#DejaVuSans-74" transform="translate(1157.320312 0)"/>
     <use xlink:href="#DejaVuSans-68" transform="translate(1196.529297 0)"/>
     <use xlink:href="#DejaVuSans-20" transform="translate(1259.908203 0)"/>
     <use xlink:href="#DejaVuSans-63" transform="translate(1291.695312 0)"/>
     <use xlink:href="#DejaVuSans-6f" transform="translate(1346.675781 0)"/>
     <use xlink:href="#DejaVuSans-6e" transform="translate(1407.857422 0)"/>
     <use xlink:href="#DejaVuSans-66" transform="translate(1471.236328 0)"/>
     <use xlink:href="#DejaVuSans-69" transform="translate(1506.441406 0)"/>
     <use xlink:href="#DejaVuSans-64" transform="translate(1534.224609 0)"/>
     <use xlink:href="#DejaVuSans-65" transform="translate(1597.701172 0)"/>
     <use xlink:href="#DejaVuSans-6e" transform="translate(1659.224609 0)"/>
     <use xlink:href="#DejaVuSans-63" transform="translate(1722.603516 0)"/>
     <use xlink:href="#DejaVuSans-65" transform="translate(1777.583984 0)"/>
     <use xlink:href="#DejaVuSans-20" transform="translate(1839.107422 0)"/>
     <use xlink:href="#DejaVuSans-69" transform="translate(1870.894531 0)"/>
     <use xlink:href="#DejaVuSans-6e" transform="translate(1898.677734 0)"/>
     <use xlink:href="#DejaVuSans-74" transform="translate(1962.056641 0)"/>
     <use xlink:href="#DejaVuSans-65" transform="translate(2001.265625 0)"/>
     <use xlink:href="#DejaVuSans-72" transform="translate(2062.789062 0)"/>
     <use xlink:href="#DejaVuSans-76" transform="translate(2103.902344 0)"/>
     <use xlink:href="#DejaVuSans-61" transform="translate(2163.082031 0)"/>
     <use xlink:href="#DejaVuSans-6c" transform="translate(2224.361328 0)"/>
     <use xlink:href="#DejaVuSans-20" transform="translate(2252.144531 0)"/>
     <use xlink:href="#DejaVuSans-70" transform="translate(2283.931641 0)"/>
     <use xlink:href="#DejaVuSans-65" transform="translate(2347.408203 0)"/>
     <use xlink:href="#DejaVuSans-72" transform="translate(2408.931641 0)"/>
     <use xlink:href="#DejaVuSans-20" transform="translate(2450.044922 0)"/>
     <use xlink:href="#DejaVuSans-73" transform="translate(2481.832031 0)"/>
     <use xlink:href="#DejaVuSans-69" transform="translate(2533.931641 0)"/>
     <use xlink:href="#DejaVuSans-6d" transform="translate(2561.714844 0)"/>
     <use xlink:href="#DejaVuSans-75" transform="translate(2659.126953 0)"/>
     <use xlink:href="#DejaVuSans-6c" transform="translate(2722.505859 0)"/>
     <use xlink:href="#DejaVuSans-61" transform="translate(2750.289062 0)"/>
     <use xlink:href="#DejaVuSans-74" transform="translate(2811.568359 0)"/>
     <use xlink:href="#DejaVuSans-69" transform="translate(2850.777344 0)"/>
     <use xlink:href="#DejaVuSans-6f" transform="translate(2878.560547 0)"/>
     <use xlink:href="#DejaVuSans-6e" transform="translate(2939.742188 0)"/>
     <use xlink:href="#DejaVuSans-20" transform="translate(3003.121094 0)"/>
     <use xlink:href="#DejaVuSans-73" transform="translate(3034.908203 0)"/>
     <use xlink:href="#DejaVuSans-74" transform="translate(3087.007812 0)"/>
     <use xlink:href="#DejaVuSans-65" transform="translate(3126.216797 0)"/>
     <use xlink:href="#DejaVuSans-70" transform="translate(3187.740234 0)"/>
    </g>
    <!-- Base Product: Cocaine, Recipe size: 10, T0: 20.0 -->
    <g transform="translate(278.956906 37.44) scale(0.14 -0.14)">
     <defs>
      <path id="DejaVuSans-42" d="M 1259 2228 
L 1259 519 
L 2272 519 
Q 2781 519 3026 730 
Q 3272 941 3272 1375 
Q 3272 1813 3026 2020 
Q 2781 2228 2272 2228 
L 1259 2228 
z
M 1259 4147 
L 1259 2741 
L 2194 2741 
Q 2656 2741 2882 2914 
Q 3109 3088 3109 3444 
Q 3109 3797 2882 3972 
Q 2656 4147 2194 4147 
L 1259 4147 
z
M 628 4666 
L 2241 4666 
Q 2963 4666 3353 4366 
Q 3744 4066 3744 3513 
Q 3744 3084 3544 2831 
Q 3344 2578 2956 2516 
Q 3422 2416 3680 2098 
Q 3938 1781 3938 1306 
Q 3938 681 3513 340 
Q 3088 0 2303 0 
L 628 0 
L 628 4666 
z
" transform="scale(0.015625)"/>
      <path id="DejaVuSans-3a" d="M 750 794 
L 1409 794 
L 1409 0 
L 750 0 
L 750 794 
z
M 750 3309 
L 1409 3309 
L 1409 2516 
L 750 2516 
L 750 3309 
z
" transform="scale(0.015625)"/>
      <path id="DejaVuSans-43" d="M 4122 4306 
L 4122 3641 
Q 3803 3938 3442 4084 
Q 3081 4231 2675 4231 
Q 1875 4231 1450 3742 
Q 1025 3253 1025 2328 
Q 1025 1406 1450 917 
Q 1875 428 2675 428 
Q 3081 428 3442 575 
Q 3803 722 4122 1019 
L 4122 359 
Q 3791 134 3420 21 
Q 3050 -91 2638 -91 
Q 1578 -91 968 557 
Q 359 1206 359 2328 
Q 359 3453 968 4101 
Q 1578 4750 2638 4750 
Q 3056 4750 3426 4639 
Q 3797 4528 4122 4306 
z
" transform="scale(0.015625)"/>
      <path id="DejaVuSans-2c" d="M 750 794 
L 1409 794 
L 1409 256 
L 897 -744 
L 494 -744 
L 750 256 
L 750 794 
z
" transform="scale(0.015625)"/>
      <path id="DejaVuSans-52" d="M 2841 2188 
Q 3044 2119 3236 1894 
Q 3428 1669 3622 1275 
L 4263 0 
L 3584 0 
L 2988 1197 
Q 2756 1666 2539 1819 
Q 2322 1972 1947 1972 
L 1259 1972 
L 1259 0 
L 628 0 
L 628 4666 
L 2053 4666 
Q 2853 4666 3247 4331 
Q 3641 3997 3641 3322 
Q 3641 2881 3436 2590 
Q 3231 2300 2841 2188 
z
M 1259 4147 
L 1259 2491 
L 2053 2491 
Q 2509 2491 2742 2702 
Q 2975 2913 2975 3322 
Q 2975 3731 2742 3939 
Q 2509 4147 2053 4147 
L 1259 4147 
z
" transform="scale(0.015625)"/>
      <path id="DejaVuSans-7a" d="M 353 3500 
L 3084 3500 
L 3084 2975 
L 922 459 
L 3084 459 
L 3084 0 
L 275 0 
L 275 525 
L 2438 3041 
L 353 3041 
L 353 3500 
z
" transform="scale(0.015625)"/>
      <path id="DejaVuSans-54" d="M -19 4666 
L 3928 4666 
L 3928 4134 
L 2272 4134 
L 2272 0 
L 1638 0 
L 1638 4134 
L -19 4134 
L -19 4666 
z
" transform="scale(0.015625)"/>
      <path id="DejaVuSans-2e" d="M 684 794 
L 1344 794 
L 1344 0 
L 684 0 
L 684 794 
z
" transform="scale(0.015625)"/>
     </defs>
     <use xlink:href="#DejaVuSans-42"/>
     <use xlink:href="#DejaVuSans-61" transform="translate(68.603516 0)"/>
     <use xlink:href="#DejaVuSans-73" transform="translate(129.882812 0)"/>
     <use xlink:href="#DejaVuSans-65" transform="translate(181.982422 0)"/>
     <use xlink:href="#DejaVuSans-20" transform="translate(243.505859 0)"/>
     <use xlink:href="#DejaVuSans-50" transform="translate(275.292969 0)"/>
     <use xlink:href="#DejaVuSans-72" transform="translate(333.845703 0)"/>
     <use xlink:href="#DejaVuSans-6f" transform="translate(372.708984 0)"/>
     <use xlink:href="#DejaVuSans-64" transform="translate(433.890625 0)"/>
     <use xlink:href="#DejaVuSans-75" transform="translate(497.367188 0)"/>
     <use xlink:href="#DejaVuSans-63" transform="translate(560.746094 0)"/>
     <use xlink:href="#DejaVuSans-74" transform="translate(615.726562 0)"/>
     <use xlink:href="#DejaVuSans-3a" transform="translate(654.935547 0)"/>
     <use xlink:href="#DejaVuSans-20" transform="translate(688.626953 0)"/>
     <use xlink:href="#DejaVuSans-43" transform="translate(720.414062 0)"/>
     <use xlink:href="#DejaVuSans-6f" transform="translate(790.238281 0)"/>
     <use xlink:href="#DejaVuSans-63" transform="translate(851.419922 0)"/>
     <use xlink:href="#DejaVuSans-61" transform="translate(906.400391 0)"/>
     <use xlink:href="#DejaVuSans-69" transform="translate(967.679688 0)"/>
     <use xlink:href="#DejaVuSans-6e" transform="translate(995.462891 0)"/>
     <use xlink:href="#DejaVuSans-65" transform="translate(1058.841797 0)"/>
     <use xlink:href="#DejaVuSans-2c" transform="translate(1120.365234 0)"/>
     <use xlink:href="#DejaVuSans-20" transform="translate(1152.152344 0)"/>
     <use xlink:href="#DejaVuSans-52" transform="translate(1183.939453 0)"/>
     <use xlink:href="#DejaVuSans-65" transform="translate(1248.921875 0)"/>
     <use xlink:href="#DejaVuSans-63" transform="translate(1310.445312 0)"/>
     <use xlink:href="#DejaVuSans-69" transform="translate(1365.425781 0)"/>
     <use xlink:href="#DejaVuSans-70" transform="translate(1393.208984 0)"/>
     <use xlink:href="#DejaVuSans-65" transform="translate(1456.685547 0)"/>
     <use xlink:href="#DejaVuSans-20" transform="translate(1518.208984 0)"/>
     <use xlink:href="#DejaVuSans-73" transform="translate(1549.996094 0)"/>
     <use xlink:href="#DejaVuSans-69" transform="translate(1602.095703 0)"/>
     <use xlink:href="#DejaVuSans-7a" transform="translate(1629.878906 0)"/>
     <use xlink:href="#DejaVuSans-65" transform="translate(1682.369141 0)"/>
     <use xlink:href="#DejaVuSans-3a" transform="translate(1743.892578 0)"/>
     <use xlink:href="#DejaVuSans-20" transform="translate(1777.583984 0)"/>
     <use xlink:href="#DejaVuSans-31" transform="translate(1809.371094 0)"/>
     <use xlink:href="#DejaVuSans-30" transform="translate(1872.994141 0)"/>
     <use xlink:href="#DejaVuSans-2c" transform="translate(1936.617188 0)"/>
     <use xlink:href="#DejaVuSans-20" transform="translate(1968.404297 0)"/>
     <use xlink:href="#DejaVuSans-54" transform="translate(2000.191406 0)"/>
     <use xlink:href="#DejaVuSans-30" transform="translate(2061.275391 0)"/>
     <use xlink:href="#DejaVuSans-3a" transform="translate(2124.898438 0)"/>
     <use xlink:href="#DejaVuSans-20" transform="translate(2158.589844 0)"/>
     <use xlink:href="#DejaVuSans-32" transform="translate(2190.376953 0)"/>
     <use xlink:href="#DejaVuSans-30" transform="translate(2254 0)"/>
     <use xlink:href="#DejaVuSans-2e" transform="translate(2317.623047 0)"/>
     <use xlink:href="#DejaVuSans-30" transform="translate(2349.410156 0)"/>
    </g>
   </g>
  </g>
 </g>
 <defs>
  <clipPath id="pe25a606980">
   <rect x="50.87" y="43.44" width="793.996" height="346.6"/>
  </clipPath>
 </defs>
</svg>
