<?xml version="1.0" encoding="utf-8" standalone="no"?>
<!DOCTYPE svg PUBLIC "-//W3C//DTD SVG 1.1//EN"
  "http://www.w3.org/Graphics/SVG/1.1/DTD/svg11.dtd">
<svg xmlns:xlink="http://www.w3.org/1999/xlink" width="864pt" height="432pt" viewBox="0 0 864 432" xmlns="http://www.w3.org/2000/svg" version="1.1">
 <metadata>
  <rdf:RDF xmlns:dc="http://purl.org/dc/elements/1.1/" xmlns:cc="http://creativecommons.org/ns#" xmlns:rdf="http://www.w3.org/1999/02/22-rdf-syntax-ns#">
   <cc:Work>
    <dc:type rdf:resource="http://purl.org/dc/dcmitype/StillImage"/>
    <dc:date>2025-05-24T02:20:16.073173</dc:date>
    <dc:format>image/svg+xml</dc:format>
    <dc:creator>
     <cc:Agent>
      <dc:title>Matplotlib v3.10.3, https://matplotlib.org/</dc:title>
     </cc:Agent>
    </dc:creator>
   </cc:Work>
  </rdf:RDF>
 </metadata>
 <defs>
  <style type="text/css">*{stroke-linejoin: round; stroke-linecap: butt}</style>
 </defs>
 <g id="figure_1">
  <g id="patch_1">
   <path d="M 0 432 
L 864 432 
L 864 0 
L 0 0 
z
" style="fill: #ffffff"/>
  </g>
  <g id="axes_1">
   <g id="patch_2">
    <path d="M 50.87 390.04 
L 844.866 390.04 
L 844.866 43.44 
L 50.87 43.44 
z
" style="fill: #ffffff"/>
   </g>
   <g id="FillBetweenPolyCollection_1">
    <defs>
     <path id="m24d3c17b88" d="M 52.193327 -315.074278 
L 52.193327 -57.714545 
L 54.83998 -60.883911 
L 57.486633 -80.572888 
L 60.133287 -96.60738 
L 62.77994 -111.244938 
L 65.426593 -122.609575 
L 68.073247 -132.37122 
L 70.7199 -141.646098 
L 73.366553 -149.51722 
L 76.013207 -157.195952 
L 78.65986 -163.762878 
L 81.306513 -169.186841 
L 83.953167 -174.32824 
L 86.59982 -179.50645 
L 89.246473 -184.068504 
L 91.893127 -188.328122 
L 94.53978 -191.973736 
L 97.186433 -195.441474 
L 99.833087 -198.163963 
L 102.47974 -200.986676 
L 105.126393 -203.603951 
L 107.773047 -205.975037 
L 110.4197 -208.038996 
L 113.066353 -210.263638 
L 115.713007 -212.577996 
L 118.35966 -214.294879 
L 121.006313 -216.515309 
L 123.652967 -218.363984 
L 126.29962 -220.309656 
L 128.946273 -222.025119 
L 131.592927 -223.582829 
L 134.23958 -225.219747 
L 136.886233 -226.657385 
L 139.532887 -228.278805 
L 142.17954 -229.748721 
L 144.826193 -230.981492 
L 147.472847 -232.053671 
L 150.1195 -233.203204 
L 152.766153 -234.449733 
L 155.412807 -235.421848 
L 158.05946 -236.262353 
L 160.706113 -237.070693 
L 163.352767 -238.042007 
L 165.99942 -238.839817 
L 168.646073 -239.903045 
L 171.292727 -240.942693 
L 173.93938 -241.814309 
L 176.586033 -242.60841 
L 179.232687 -243.350614 
L 181.87934 -244.025604 
L 184.525993 -244.829389 
L 187.172647 -245.568709 
L 189.8193 -246.303472 
L 192.465953 -247.096795 
L 195.112607 -247.746306 
L 197.75926 -248.420038 
L 200.405913 -249.254476 
L 203.052567 -250.001693 
L 205.69922 -250.750925 
L 208.345873 -251.341877 
L 210.992527 -251.967122 
L 213.63918 -252.529824 
L 216.285833 -253.132359 
L 218.932487 -253.833058 
L 221.57914 -254.378293 
L 224.225793 -254.884061 
L 226.872447 -255.464162 
L 229.5191 -256.016516 
L 232.165753 -256.495637 
L 234.812407 -257.12427 
L 237.45906 -257.703295 
L 240.105713 -258.106115 
L 242.752367 -258.509369 
L 245.39902 -258.834468 
L 248.045673 -259.292665 
L 250.692327 -259.672432 
L 253.33898 -260.111101 
L 255.985633 -260.568635 
L 258.632287 -260.921846 
L 261.27894 -261.364934 
L 263.925593 -261.732544 
L 266.572247 -262.235588 
L 269.2189 -262.666245 
L 271.865553 -263.044158 
L 274.512207 -263.403069 
L 277.15886 -263.782401 
L 279.805513 -264.236294 
L 282.452167 -264.534929 
L 285.09882 -264.917122 
L 287.745473 -265.270311 
L 290.392127 -265.558552 
L 293.03878 -265.90089 
L 295.685433 -266.209529 
L 298.332087 -266.556513 
L 300.97874 -266.924376 
L 303.625393 -267.204055 
L 306.272047 -267.409723 
L 308.9187 -267.739675 
L 311.565353 -268.099411 
L 314.212007 -268.344592 
L 316.85866 -268.581096 
L 319.505313 -268.927416 
L 322.151967 -269.230584 
L 324.79862 -269.409559 
L 327.445273 -269.703387 
L 330.091927 -269.910886 
L 332.73858 -270.149565 
L 335.385233 -270.370869 
L 338.031887 -270.685323 
L 340.67854 -270.908709 
L 343.325193 -271.062342 
L 345.971847 -271.411295 
L 348.6185 -271.787353 
L 351.265153 -272.042698 
L 353.911807 -272.317021 
L 356.55846 -272.485809 
L 359.205113 -272.689966 
L 361.851767 -272.942976 
L 364.49842 -273.185638 
L 367.145073 -273.310335 
L 369.791727 -273.481549 
L 372.43838 -273.683257 
L 375.085033 -273.860194 
L 377.731687 -274.084382 
L 380.37834 -274.175861 
L 383.024993 -274.370999 
L 385.671647 -274.515886 
L 388.3183 -274.656699 
L 390.964953 -274.904215 
L 393.611607 -274.985575 
L 396.25826 -275.118674 
L 398.904913 -275.279838 
L 401.551567 -275.494205 
L 404.19822 -275.672997 
L 406.844873 -275.830407 
L 409.491527 -275.936194 
L 412.13818 -276.113544 
L 414.784833 -276.272694 
L 417.431487 -276.439261 
L 420.07814 -276.551137 
L 422.724793 -276.658756 
L 425.371447 -276.795379 
L 428.0181 -276.934613 
L 430.664753 -277.060431 
L 433.311407 -277.197878 
L 435.95806 -277.311747 
L 438.604713 -277.520917 
L 441.251367 -277.664477 
L 443.89802 -277.816141 
L 446.544673 -277.95146 
L 449.191327 -278.083596 
L 451.83798 -278.184668 
L 454.484633 -278.298421 
L 457.131287 -278.399698 
L 459.77794 -278.470849 
L 462.424593 -278.589685 
L 465.071247 -278.718365 
L 467.7179 -278.841596 
L 470.364553 -279.017938 
L 473.011207 -279.169419 
L 475.65786 -279.273558 
L 478.304513 -279.329233 
L 480.951167 -279.464643 
L 483.59782 -279.538243 
L 486.244473 -279.595589 
L 488.891127 -279.698835 
L 491.53778 -279.891866 
L 494.184433 -280.019951 
L 496.831087 -280.100899 
L 499.47774 -280.185625 
L 502.124393 -280.342303 
L 504.771047 -280.428494 
L 507.4177 -280.464527 
L 510.064353 -280.590024 
L 512.711007 -280.691622 
L 515.35766 -280.805582 
L 518.004313 -280.884676 
L 520.650967 -280.964961 
L 523.29762 -281.115045 
L 525.944273 -281.21353 
L 528.590927 -281.27946 
L 531.23758 -281.342644 
L 533.884233 -281.472011 
L 536.530887 -281.556599 
L 539.17754 -281.616715 
L 541.824193 -281.7027 
L 544.470847 -281.791341 
L 547.1175 -281.900837 
L 549.764153 -282.007036 
L 552.410807 -282.090342 
L 555.05746 -282.146269 
L 557.704113 -282.208743 
L 560.350767 -282.269363 
L 562.99742 -282.3651 
L 565.644073 -282.53343 
L 568.290727 -282.646978 
L 570.93738 -282.780213 
L 573.584033 -282.91045 
L 576.230687 -283.009231 
L 578.87734 -283.128502 
L 581.523993 -283.204895 
L 584.170647 -283.261371 
L 586.8173 -283.338657 
L 589.463953 -283.404565 
L 592.110607 -283.517953 
L 594.75726 -283.691571 
L 597.403913 -283.761371 
L 600.050567 -283.843235 
L 602.69722 -283.919559 
L 605.343873 -284.040478 
L 607.990527 -284.095283 
L 610.63718 -284.146494 
L 613.283833 -284.197293 
L 615.930487 -284.298662 
L 618.57714 -284.381075 
L 621.223793 -284.496569 
L 623.870447 -284.555357 
L 626.5171 -284.601692 
L 629.163753 -284.714736 
L 631.810407 -284.822561 
L 634.45706 -284.890667 
L 637.103713 -284.973309 
L 639.750367 -285.038805 
L 642.39702 -285.138365 
L 645.043673 -285.209424 
L 647.690327 -285.321644 
L 650.33698 -285.388147 
L 652.983633 -285.429102 
L 655.630287 -285.472507 
L 658.27694 -285.566733 
L 660.923593 -285.673276 
L 663.570247 -285.749028 
L 666.2169 -285.84069 
L 668.863553 -285.910307 
L 671.510207 -285.944073 
L 674.15686 -285.980106 
L 676.803513 -286.040177 
L 679.450167 -286.093517 
L 682.09682 -286.145712 
L 684.743473 -286.196213 
L 687.390127 -286.247241 
L 690.03678 -286.303923 
L 692.683433 -286.345519 
L 695.330087 -286.356874 
L 697.97674 -286.401973 
L 700.623393 -286.467011 
L 703.270047 -286.4951 
L 705.9167 -286.5486 
L 708.563353 -286.61025 
L 711.210007 -286.641796 
L 713.85666 -286.70134 
L 716.503313 -286.75713 
L 719.149967 -286.812347 
L 721.79662 -286.889953 
L 724.443273 -286.944369 
L 727.089927 -286.978685 
L 729.73658 -287.008881 
L 732.383233 -287.085823 
L 735.029887 -287.153333 
L 737.67654 -287.178767 
L 740.323193 -287.265553 
L 742.969847 -287.324479 
L 745.6165 -287.336978 
L 748.263153 -287.372668 
L 750.909807 -287.397232 
L 753.55646 -287.454258 
L 756.203113 -287.50746 
L 758.849767 -287.54711 
L 761.49642 -287.5771 
L 764.143073 -287.643237 
L 766.789727 -287.696874 
L 769.43638 -287.776999 
L 772.083033 -287.811017 
L 774.729687 -287.872461 
L 777.37634 -287.901581 
L 780.022993 -287.926579 
L 782.669647 -287.972273 
L 785.3163 -287.982804 
L 787.962953 -288.032527 
L 790.609607 -288.0703 
L 793.25626 -288.080785 
L 795.902913 -288.112834 
L 798.549567 -288.13417 
L 801.19622 -288.16883 
L 803.842873 -288.174507 
L 806.489527 -288.209899 
L 809.13618 -288.246665 
L 811.782833 -288.283568 
L 814.429487 -288.306415 
L 817.07614 -288.366256 
L 819.722793 -288.390385 
L 822.369447 -288.404762 
L 825.0161 -288.442809 
L 827.662753 -288.459017 
L 830.309407 -288.467534 
L 832.95606 -288.482185 
L 835.602713 -288.494135 
L 838.249367 -288.574488 
L 840.89602 -288.591017 
L 843.542673 -288.632361 
L 843.542673 -372.805455 
L 843.542673 -372.805455 
L 840.89602 -372.800464 
L 838.249367 -372.774504 
L 835.602713 -372.802387 
L 832.95606 -372.771116 
L 830.309407 -372.741813 
L 827.662753 -372.705459 
L 825.0161 -372.656286 
L 822.369447 -372.657614 
L 819.722793 -372.608165 
L 817.07614 -372.583579 
L 814.429487 -372.581244 
L 811.782833 -372.561235 
L 809.13618 -372.553543 
L 806.489527 -372.534543 
L 803.842873 -372.513161 
L 801.19622 -372.479554 
L 798.549567 -372.464125 
L 795.902913 -372.434456 
L 793.25626 -372.419255 
L 790.609607 -372.389815 
L 787.962953 -372.373103 
L 785.3163 -372.360467 
L 782.669647 -372.317978 
L 780.022993 -372.321824 
L 777.37634 -372.313216 
L 774.729687 -372.295268 
L 772.083033 -372.291605 
L 769.43638 -372.27233 
L 766.789727 -372.288538 
L 764.143073 -372.277961 
L 761.49642 -372.294124 
L 758.849767 -372.267614 
L 756.203113 -372.268987 
L 753.55646 -372.267064 
L 750.909807 -372.229154 
L 748.263153 -372.206811 
L 745.6165 -372.192801 
L 742.969847 -372.157958 
L 740.323193 -372.152097 
L 737.67654 -372.161071 
L 735.029887 -372.138957 
L 732.383233 -372.144314 
L 729.73658 -372.142254 
L 727.089927 -372.120231 
L 724.443273 -372.093217 
L 721.79662 -372.098345 
L 719.149967 -372.099032 
L 716.503313 -372.097475 
L 713.85666 -372.087403 
L 711.210007 -372.092393 
L 708.563353 -372.070371 
L 705.9167 -372.045005 
L 703.270047 -372.032781 
L 700.623393 -372.020831 
L 697.97674 -372.007233 
L 695.330087 -371.995283 
L 692.683433 -371.938417 
L 690.03678 -371.920011 
L 687.390127 -371.902933 
L 684.743473 -371.87244 
L 682.09682 -371.864703 
L 679.450167 -371.831737 
L 676.803513 -371.814842 
L 674.15686 -371.806143 
L 671.510207 -371.769744 
L 668.863553 -371.742639 
L 666.2169 -371.715626 
L 663.570247 -371.710223 
L 660.923593 -371.710498 
L 658.27694 -371.723592 
L 655.630287 -371.720845 
L 652.983633 -371.683301 
L 650.33698 -371.648596 
L 647.690327 -371.632571 
L 645.043673 -371.653403 
L 642.39702 -371.658485 
L 639.750367 -371.671946 
L 637.103713 -371.669337 
L 634.45706 -371.67158 
L 631.810407 -371.667139 
L 629.163753 -371.680188 
L 626.5171 -371.701295 
L 623.870447 -371.660088 
L 621.223793 -371.637745 
L 618.57714 -371.653174 
L 615.930487 -371.659401 
L 613.283833 -371.659218 
L 610.63718 -371.610457 
L 607.990527 -371.562245 
L 605.343873 -371.533858 
L 602.69722 -371.572684 
L 600.050567 -371.562794 
L 597.403913 -371.561146 
L 594.75726 -371.516047 
L 592.110607 -371.568059 
L 589.463953 -371.570257 
L 586.8173 -371.509912 
L 584.170647 -371.465683 
L 581.523993 -371.438807 
L 578.87734 -371.426491 
L 576.230687 -371.440272 
L 573.584033 -371.460738 
L 570.93738 -371.465546 
L 568.290727 -371.503365 
L 565.644073 -371.538436 
L 562.99742 -371.571585 
L 560.350767 -371.527539 
L 557.704113 -371.49114 
L 555.05746 -371.452818 
L 552.410807 -371.393846 
L 549.764153 -371.395815 
L 547.1175 -371.406025 
L 544.470847 -371.410603 
L 541.824193 -371.381942 
L 539.17754 -371.360423 
L 536.530887 -371.340414 
L 533.884233 -371.304198 
L 531.23758 -371.316377 
L 528.590927 -371.280573 
L 525.944273 -371.202646 
L 523.29762 -371.184195 
L 520.650967 -371.180074 
L 518.004313 -371.1673 
L 515.35766 -371.133144 
L 512.711007 -371.132457 
L 510.064353 -371.095875 
L 507.4177 -371.073028 
L 504.771047 -371.001008 
L 502.124393 -370.972941 
L 499.47774 -371.006868 
L 496.831087 -370.960488 
L 494.184433 -370.949133 
L 491.53778 -370.913832 
L 488.891127 -370.936588 
L 486.244473 -370.925095 
L 483.59782 -370.847535 
L 480.951167 -370.769608 
L 478.304513 -370.753812 
L 475.65786 -370.665721 
L 473.011207 -370.647636 
L 470.364553 -370.612565 
L 467.7179 -370.627811 
L 465.071247 -370.584681 
L 462.424593 -370.524657 
L 459.77794 -370.511699 
L 457.131287 -370.441373 
L 454.484633 -370.408499 
L 451.83798 -370.35841 
L 449.191327 -370.285611 
L 446.544673 -370.228288 
L 443.89802 -370.20361 
L 441.251367 -370.204296 
L 438.604713 -370.173208 
L 435.95806 -370.212629 
L 433.311407 -370.1494 
L 430.664753 -370.102882 
L 428.0181 -370.057097 
L 425.371447 -370.002017 
L 422.724793 -369.982421 
L 420.07814 -369.923815 
L 417.431487 -369.870704 
L 414.784833 -369.806605 
L 412.13818 -369.742231 
L 409.491527 -369.716179 
L 406.844873 -369.621815 
L 404.19822 -369.561562 
L 401.551567 -369.57049 
L 398.904913 -369.592467 
L 396.25826 -369.546498 
L 393.611607 -369.456072 
L 390.964953 -369.338449 
L 388.3183 -369.36061 
L 385.671647 -369.290787 
L 383.024993 -369.214829 
L 380.37834 -369.196332 
L 377.731687 -369.068224 
L 375.085033 -369.042951 
L 372.43838 -369.000874 
L 369.791727 -368.979767 
L 367.145073 -368.924825 
L 364.49842 -368.831285 
L 361.851767 -368.786003 
L 359.205113 -368.759814 
L 356.55846 -368.735823 
L 353.911807 -368.6736 
L 351.265153 -368.650753 
L 348.6185 -368.642054 
L 345.971847 -368.694753 
L 343.325193 -368.725292 
L 340.67854 -368.628319 
L 338.031887 -368.58789 
L 335.385233 -368.588531 
L 332.73858 -368.528369 
L 330.091927 -368.438676 
L 327.445273 -368.385107 
L 324.79862 -368.382314 
L 322.151967 -368.236121 
L 319.505313 -368.191892 
L 316.85866 -368.228521 
L 314.212007 -368.086082 
L 311.565353 -368.00344 
L 308.9187 -368.027843 
L 306.272047 -367.951931 
L 303.625393 -367.860818 
L 300.97874 -367.805189 
L 298.332087 -367.805464 
L 295.685433 -367.737839 
L 293.03878 -367.645398 
L 290.392127 -367.606435 
L 287.745473 -367.471231 
L 285.09882 -367.400447 
L 282.452167 -367.337171 
L 279.805513 -367.121339 
L 277.15886 -367.103025 
L 274.512207 -367.021298 
L 271.865553 -366.940578 
L 269.2189 -366.899646 
L 266.572247 -366.856242 
L 263.925593 -366.891268 
L 261.27894 -366.785 
L 258.632287 -366.748463 
L 255.985633 -366.644805 
L 253.33898 -366.599706 
L 250.692327 -366.563856 
L 248.045673 -366.48886 
L 245.39902 -366.484831 
L 242.752367 -366.319912 
L 240.105713 -366.2679 
L 237.45906 -366.051335 
L 234.812407 -366.120563 
L 232.165753 -366.106919 
L 229.5191 -366.017042 
L 226.872447 -365.921534 
L 224.225793 -365.829597 
L 221.57914 -365.769114 
L 218.932487 -365.645585 
L 216.285833 -365.639816 
L 213.63918 -365.635146 
L 210.992527 -365.459147 
L 208.345873 -365.371148 
L 205.69922 -365.170562 
L 203.052567 -365.115803 
L 200.405913 -364.967916 
L 197.75926 -364.909173 
L 195.112607 -364.760051 
L 192.465953 -364.617109 
L 189.8193 -364.424398 
L 187.172647 -364.181552 
L 184.525993 -364.005004 
L 181.87934 -363.857438 
L 179.232687 -363.595683 
L 176.586033 -363.341299 
L 173.93938 -363.071441 
L 171.292727 -362.888162 
L 168.646073 -362.763763 
L 165.99942 -362.630619 
L 163.352767 -362.291212 
L 160.706113 -362.069153 
L 158.05946 -361.67224 
L 155.412807 -361.242773 
L 152.766153 -360.980515 
L 150.1195 -360.759142 
L 147.472847 -360.494137 
L 144.826193 -360.038069 
L 142.17954 -359.702416 
L 139.532887 -359.687811 
L 136.886233 -359.671923 
L 134.23958 -359.409024 
L 131.592927 -359.170985 
L 128.946273 -358.796003 
L 126.29962 -358.423402 
L 123.652967 -358.070901 
L 121.006313 -357.703061 
L 118.35966 -357.648302 
L 115.713007 -356.987481 
L 113.066353 -356.752877 
L 110.4197 -356.255831 
L 107.773047 -355.431283 
L 105.126393 -354.749539 
L 102.47974 -354.227586 
L 99.833087 -353.499553 
L 97.186433 -352.799128 
L 94.53978 -352.191007 
L 91.893127 -351.418287 
L 89.246473 -350.919822 
L 86.59982 -350.421403 
L 83.953167 -349.537516 
L 81.306513 -348.406618 
L 78.65986 -346.894922 
L 76.013207 -345.775516 
L 73.366553 -344.228932 
L 70.7199 -342.3108 
L 68.073247 -340.540509 
L 65.426593 -337.37294 
L 62.77994 -333.904424 
L 60.133287 -329.907728 
L 57.486633 -323.484317 
L 54.83998 -315.437448 
L 52.193327 -315.074278 
z
" style="stroke: #0000ff; stroke-opacity: 0.2"/>
    </defs>
    <g clip-path="url(#p55cd55ab65)">
     <use xlink:href="#m24d3c17b88" x="0" y="432" style="fill: #0000ff; fill-opacity: 0.2; stroke: #0000ff; stroke-opacity: 0.2"/>
    </g>
   </g>
   <g id="matplotlib.axis_1">
    <g id="xtick_1">
     <g id="line2d_1">
      <defs>
       <path id="m80bc4f5ecb" d="M 0 0 
L 0 3.5 
" style="stroke: #000000; stroke-width: 0.8"/>
      </defs>
      <g>
       <use xlink:href="#m80bc4f5ecb" x="181.87934" y="390.04" style="stroke: #000000; stroke-width: 0.8"/>
      </g>
     </g>
     <g id="text_1">
      <!-- 50 -->
      <g transform="translate(175.51684 404.638438) scale(0.1 -0.1)">
       <defs>
        <path id="DejaVuSans-35" d="M 691 4666 
L 3169 4666 
L 3169 4134 
L 1269 4134 
L 1269 2991 
Q 1406 3038 1543 3061 
Q 1681 3084 1819 3084 
Q 2600 3084 3056 2656 
Q 3513 2228 3513 1497 
Q 3513 744 3044 326 
Q 2575 -91 1722 -91 
Q 1428 -91 1123 -41 
Q 819 9 494 109 
L 494 744 
Q 775 591 1075 516 
Q 1375 441 1709 441 
Q 2250 441 2565 725 
Q 2881 1009 2881 1497 
Q 2881 1984 2565 2268 
Q 2250 2553 1709 2553 
Q 1456 2553 1204 2497 
Q 953 2441 691 2322 
L 691 4666 
z
" transform="scale(0.015625)"/>
        <path id="DejaVuSans-30" d="M 2034 4250 
Q 1547 4250 1301 3770 
Q 1056 3291 1056 2328 
Q 1056 1369 1301 889 
Q 1547 409 2034 409 
Q 2525 409 2770 889 
Q 3016 1369 3016 2328 
Q 3016 3291 2770 3770 
Q 2525 4250 2034 4250 
z
M 2034 4750 
Q 2819 4750 3233 4129 
Q 3647 3509 3647 2328 
Q 3647 1150 3233 529 
Q 2819 -91 2034 -91 
Q 1250 -91 836 529 
Q 422 1150 422 2328 
Q 422 3509 836 4129 
Q 1250 4750 2034 4750 
z
" transform="scale(0.015625)"/>
       </defs>
       <use xlink:href="#DejaVuSans-35"/>
       <use xlink:href="#DejaVuSans-30" transform="translate(63.623047 0)"/>
      </g>
     </g>
    </g>
    <g id="xtick_2">
     <g id="line2d_2">
      <g>
       <use xlink:href="#m80bc4f5ecb" x="314.212007" y="390.04" style="stroke: #000000; stroke-width: 0.8"/>
      </g>
     </g>
     <g id="text_2">
      <!-- 100 -->
      <g transform="translate(304.668257 404.638438) scale(0.1 -0.1)">
       <defs>
        <path id="DejaVuSans-31" d="M 794 531 
L 1825 531 
L 1825 4091 
L 703 3866 
L 703 4441 
L 1819 4666 
L 2450 4666 
L 2450 531 
L 3481 531 
L 3481 0 
L 794 0 
L 794 531 
z
" transform="scale(0.015625)"/>
       </defs>
       <use xlink:href="#DejaVuSans-31"/>
       <use xlink:href="#DejaVuSans-30" transform="translate(63.623047 0)"/>
       <use xlink:href="#DejaVuSans-30" transform="translate(127.246094 0)"/>
      </g>
     </g>
    </g>
    <g id="xtick_3">
     <g id="line2d_3">
      <g>
       <use xlink:href="#m80bc4f5ecb" x="446.544673" y="390.04" style="stroke: #000000; stroke-width: 0.8"/>
      </g>
     </g>
     <g id="text_3">
      <!-- 150 -->
      <g transform="translate(437.000923 404.638438) scale(0.1 -0.1)">
       <use xlink:href="#DejaVuSans-31"/>
       <use xlink:href="#DejaVuSans-35" transform="translate(63.623047 0)"/>
       <use xlink:href="#DejaVuSans-30" transform="translate(127.246094 0)"/>
      </g>
     </g>
    </g>
    <g id="xtick_4">
     <g id="line2d_4">
      <g>
       <use xlink:href="#m80bc4f5ecb" x="578.87734" y="390.04" style="stroke: #000000; stroke-width: 0.8"/>
      </g>
     </g>
     <g id="text_4">
      <!-- 200 -->
      <g transform="translate(569.33359 404.638438) scale(0.1 -0.1)">
       <defs>
        <path id="DejaVuSans-32" d="M 1228 531 
L 3431 531 
L 3431 0 
L 469 0 
L 469 531 
Q 828 903 1448 1529 
Q 2069 2156 2228 2338 
Q 2531 2678 2651 2914 
Q 2772 3150 2772 3378 
Q 2772 3750 2511 3984 
Q 2250 4219 1831 4219 
Q 1534 4219 1204 4116 
Q 875 4013 500 3803 
L 500 4441 
Q 881 4594 1212 4672 
Q 1544 4750 1819 4750 
Q 2544 4750 2975 4387 
Q 3406 4025 3406 3419 
Q 3406 3131 3298 2873 
Q 3191 2616 2906 2266 
Q 2828 2175 2409 1742 
Q 1991 1309 1228 531 
z
" transform="scale(0.015625)"/>
       </defs>
       <use xlink:href="#DejaVuSans-32"/>
       <use xlink:href="#DejaVuSans-30" transform="translate(63.623047 0)"/>
       <use xlink:href="#DejaVuSans-30" transform="translate(127.246094 0)"/>
      </g>
     </g>
    </g>
    <g id="xtick_5">
     <g id="line2d_5">
      <g>
       <use xlink:href="#m80bc4f5ecb" x="711.210007" y="390.04" style="stroke: #000000; stroke-width: 0.8"/>
      </g>
     </g>
     <g id="text_5">
      <!-- 250 -->
      <g transform="translate(701.666257 404.638438) scale(0.1 -0.1)">
       <use xlink:href="#DejaVuSans-32"/>
       <use xlink:href="#DejaVuSans-35" transform="translate(63.623047 0)"/>
       <use xlink:href="#DejaVuSans-30" transform="translate(127.246094 0)"/>
      </g>
     </g>
    </g>
    <g id="xtick_6">
     <g id="line2d_6">
      <g>
       <use xlink:href="#m80bc4f5ecb" x="843.542673" y="390.04" style="stroke: #000000; stroke-width: 0.8"/>
      </g>
     </g>
     <g id="text_6">
      <!-- 300 -->
      <g transform="translate(833.998923 404.638438) scale(0.1 -0.1)">
       <defs>
        <path id="DejaVuSans-33" d="M 2597 2516 
Q 3050 2419 3304 2112 
Q 3559 1806 3559 1356 
Q 3559 666 3084 287 
Q 2609 -91 1734 -91 
Q 1441 -91 1130 -33 
Q 819 25 488 141 
L 488 750 
Q 750 597 1062 519 
Q 1375 441 1716 441 
Q 2309 441 2620 675 
Q 2931 909 2931 1356 
Q 2931 1769 2642 2001 
Q 2353 2234 1838 2234 
L 1294 2234 
L 1294 2753 
L 1863 2753 
Q 2328 2753 2575 2939 
Q 2822 3125 2822 3475 
Q 2822 3834 2567 4026 
Q 2313 4219 1838 4219 
Q 1578 4219 1281 4162 
Q 984 4106 628 3988 
L 628 4550 
Q 988 4650 1302 4700 
Q 1616 4750 1894 4750 
Q 2613 4750 3031 4423 
Q 3450 4097 3450 3541 
Q 3450 3153 3228 2886 
Q 3006 2619 2597 2516 
z
" transform="scale(0.015625)"/>
       </defs>
       <use xlink:href="#DejaVuSans-33"/>
       <use xlink:href="#DejaVuSans-30" transform="translate(63.623047 0)"/>
       <use xlink:href="#DejaVuSans-30" transform="translate(127.246094 0)"/>
      </g>
     </g>
    </g>
    <g id="text_7">
     <!-- Step -->
     <g transform="translate(436.482844 418.316562) scale(0.1 -0.1)">
      <defs>
       <path id="DejaVuSans-53" d="M 3425 4513 
L 3425 3897 
Q 3066 4069 2747 4153 
Q 2428 4238 2131 4238 
Q 1616 4238 1336 4038 
Q 1056 3838 1056 3469 
Q 1056 3159 1242 3001 
Q 1428 2844 1947 2747 
L 2328 2669 
Q 3034 2534 3370 2195 
Q 3706 1856 3706 1288 
Q 3706 609 3251 259 
Q 2797 -91 1919 -91 
Q 1588 -91 1214 -16 
Q 841 59 441 206 
L 441 856 
Q 825 641 1194 531 
Q 1563 422 1919 422 
Q 2459 422 2753 634 
Q 3047 847 3047 1241 
Q 3047 1584 2836 1778 
Q 2625 1972 2144 2069 
L 1759 2144 
Q 1053 2284 737 2584 
Q 422 2884 422 3419 
Q 422 4038 858 4394 
Q 1294 4750 2059 4750 
Q 2388 4750 2728 4690 
Q 3069 4631 3425 4513 
z
" transform="scale(0.015625)"/>
       <path id="DejaVuSans-74" d="M 1172 4494 
L 1172 3500 
L 2356 3500 
L 2356 3053 
L 1172 3053 
L 1172 1153 
Q 1172 725 1289 603 
Q 1406 481 1766 481 
L 2356 481 
L 2356 0 
L 1766 0 
Q 1100 0 847 248 
Q 594 497 594 1153 
L 594 3053 
L 172 3053 
L 172 3500 
L 594 3500 
L 594 4494 
L 1172 4494 
z
" transform="scale(0.015625)"/>
       <path id="DejaVuSans-65" d="M 3597 1894 
L 3597 1613 
L 953 1613 
Q 991 1019 1311 708 
Q 1631 397 2203 397 
Q 2534 397 2845 478 
Q 3156 559 3463 722 
L 3463 178 
Q 3153 47 2828 -22 
Q 2503 -91 2169 -91 
Q 1331 -91 842 396 
Q 353 884 353 1716 
Q 353 2575 817 3079 
Q 1281 3584 2069 3584 
Q 2775 3584 3186 3129 
Q 3597 2675 3597 1894 
z
M 3022 2063 
Q 3016 2534 2758 2815 
Q 2500 3097 2075 3097 
Q 1594 3097 1305 2825 
Q 1016 2553 972 2059 
L 3022 2063 
z
" transform="scale(0.015625)"/>
       <path id="DejaVuSans-70" d="M 1159 525 
L 1159 -1331 
L 581 -1331 
L 581 3500 
L 1159 3500 
L 1159 2969 
Q 1341 3281 1617 3432 
Q 1894 3584 2278 3584 
Q 2916 3584 3314 3078 
Q 3713 2572 3713 1747 
Q 3713 922 3314 415 
Q 2916 -91 2278 -91 
Q 1894 -91 1617 61 
Q 1341 213 1159 525 
z
M 3116 1747 
Q 3116 2381 2855 2742 
Q 2594 3103 2138 3103 
Q 1681 3103 1420 2742 
Q 1159 2381 1159 1747 
Q 1159 1113 1420 752 
Q 1681 391 2138 391 
Q 2594 391 2855 752 
Q 3116 1113 3116 1747 
z
" transform="scale(0.015625)"/>
      </defs>
      <use xlink:href="#DejaVuSans-53"/>
      <use xlink:href="#DejaVuSans-74" transform="translate(63.476562 0)"/>
      <use xlink:href="#DejaVuSans-65" transform="translate(102.685547 0)"/>
      <use xlink:href="#DejaVuSans-70" transform="translate(164.208984 0)"/>
     </g>
    </g>
   </g>
   <g id="matplotlib.axis_2">
    <g id="ytick_1">
     <g id="line2d_7">
      <defs>
       <path id="ma68e682a7b" d="M 0 0 
L -3.5 0 
" style="stroke: #000000; stroke-width: 0.8"/>
      </defs>
      <g>
       <use xlink:href="#ma68e682a7b" x="50.87" y="378.198432" style="stroke: #000000; stroke-width: 0.8"/>
      </g>
     </g>
     <g id="text_8">
      <!-- 200 -->
      <g transform="translate(24.7825 381.997651) scale(0.1 -0.1)">
       <use xlink:href="#DejaVuSans-32"/>
       <use xlink:href="#DejaVuSans-30" transform="translate(63.623047 0)"/>
       <use xlink:href="#DejaVuSans-30" transform="translate(127.246094 0)"/>
      </g>
     </g>
    </g>
    <g id="ytick_2">
     <g id="line2d_8">
      <g>
       <use xlink:href="#ma68e682a7b" x="50.87" y="303.183693" style="stroke: #000000; stroke-width: 0.8"/>
      </g>
     </g>
     <g id="text_9">
      <!-- 300 -->
      <g transform="translate(24.7825 306.982912) scale(0.1 -0.1)">
       <use xlink:href="#DejaVuSans-33"/>
       <use xlink:href="#DejaVuSans-30" transform="translate(63.623047 0)"/>
       <use xlink:href="#DejaVuSans-30" transform="translate(127.246094 0)"/>
      </g>
     </g>
    </g>
    <g id="ytick_3">
     <g id="line2d_9">
      <g>
       <use xlink:href="#ma68e682a7b" x="50.87" y="228.168954" style="stroke: #000000; stroke-width: 0.8"/>
      </g>
     </g>
     <g id="text_10">
      <!-- 400 -->
      <g transform="translate(24.7825 231.968173) scale(0.1 -0.1)">
       <defs>
        <path id="DejaVuSans-34" d="M 2419 4116 
L 825 1625 
L 2419 1625 
L 2419 4116 
z
M 2253 4666 
L 3047 4666 
L 3047 1625 
L 3713 1625 
L 3713 1100 
L 3047 1100 
L 3047 0 
L 2419 0 
L 2419 1100 
L 313 1100 
L 313 1709 
L 2253 4666 
z
" transform="scale(0.015625)"/>
       </defs>
       <use xlink:href="#DejaVuSans-34"/>
       <use xlink:href="#DejaVuSans-30" transform="translate(63.623047 0)"/>
       <use xlink:href="#DejaVuSans-30" transform="translate(127.246094 0)"/>
      </g>
     </g>
    </g>
    <g id="ytick_4">
     <g id="line2d_10">
      <g>
       <use xlink:href="#ma68e682a7b" x="50.87" y="153.154215" style="stroke: #000000; stroke-width: 0.8"/>
      </g>
     </g>
     <g id="text_11">
      <!-- 500 -->
      <g transform="translate(24.7825 156.953433) scale(0.1 -0.1)">
       <use xlink:href="#DejaVuSans-35"/>
       <use xlink:href="#DejaVuSans-30" transform="translate(63.623047 0)"/>
       <use xlink:href="#DejaVuSans-30" transform="translate(127.246094 0)"/>
      </g>
     </g>
    </g>
    <g id="ytick_5">
     <g id="line2d_11">
      <g>
       <use xlink:href="#ma68e682a7b" x="50.87" y="78.139476" style="stroke: #000000; stroke-width: 0.8"/>
      </g>
     </g>
     <g id="text_12">
      <!-- 600 -->
      <g transform="translate(24.7825 81.938694) scale(0.1 -0.1)">
       <defs>
        <path id="DejaVuSans-36" d="M 2113 2584 
Q 1688 2584 1439 2293 
Q 1191 2003 1191 1497 
Q 1191 994 1439 701 
Q 1688 409 2113 409 
Q 2538 409 2786 701 
Q 3034 994 3034 1497 
Q 3034 2003 2786 2293 
Q 2538 2584 2113 2584 
z
M 3366 4563 
L 3366 3988 
Q 3128 4100 2886 4159 
Q 2644 4219 2406 4219 
Q 1781 4219 1451 3797 
Q 1122 3375 1075 2522 
Q 1259 2794 1537 2939 
Q 1816 3084 2150 3084 
Q 2853 3084 3261 2657 
Q 3669 2231 3669 1497 
Q 3669 778 3244 343 
Q 2819 -91 2113 -91 
Q 1303 -91 875 529 
Q 447 1150 447 2328 
Q 447 3434 972 4092 
Q 1497 4750 2381 4750 
Q 2619 4750 2861 4703 
Q 3103 4656 3366 4563 
z
" transform="scale(0.015625)"/>
       </defs>
       <use xlink:href="#DejaVuSans-36"/>
       <use xlink:href="#DejaVuSans-30" transform="translate(63.623047 0)"/>
       <use xlink:href="#DejaVuSans-30" transform="translate(127.246094 0)"/>
      </g>
     </g>
    </g>
    <g id="text_13">
     <!-- Profit -->
     <g transform="translate(18.702813 229.779063) rotate(-90) scale(0.1 -0.1)">
      <defs>
       <path id="DejaVuSans-50" d="M 1259 4147 
L 1259 2394 
L 2053 2394 
Q 2494 2394 2734 2622 
Q 2975 2850 2975 3272 
Q 2975 3691 2734 3919 
Q 2494 4147 2053 4147 
L 1259 4147 
z
M 628 4666 
L 2053 4666 
Q 2838 4666 3239 4311 
Q 3641 3956 3641 3272 
Q 3641 2581 3239 2228 
Q 2838 1875 2053 1875 
L 1259 1875 
L 1259 0 
L 628 0 
L 628 4666 
z
" transform="scale(0.015625)"/>
       <path id="DejaVuSans-72" d="M 2631 2963 
Q 2534 3019 2420 3045 
Q 2306 3072 2169 3072 
Q 1681 3072 1420 2755 
Q 1159 2438 1159 1844 
L 1159 0 
L 581 0 
L 581 3500 
L 1159 3500 
L 1159 2956 
Q 1341 3275 1631 3429 
Q 1922 3584 2338 3584 
Q 2397 3584 2469 3576 
Q 2541 3569 2628 3553 
L 2631 2963 
z
" transform="scale(0.015625)"/>
       <path id="DejaVuSans-6f" d="M 1959 3097 
Q 1497 3097 1228 2736 
Q 959 2375 959 1747 
Q 959 1119 1226 758 
Q 1494 397 1959 397 
Q 2419 397 2687 759 
Q 2956 1122 2956 1747 
Q 2956 2369 2687 2733 
Q 2419 3097 1959 3097 
z
M 1959 3584 
Q 2709 3584 3137 3096 
Q 3566 2609 3566 1747 
Q 3566 888 3137 398 
Q 2709 -91 1959 -91 
Q 1206 -91 779 398 
Q 353 888 353 1747 
Q 353 2609 779 3096 
Q 1206 3584 1959 3584 
z
" transform="scale(0.015625)"/>
       <path id="DejaVuSans-66" d="M 2375 4863 
L 2375 4384 
L 1825 4384 
Q 1516 4384 1395 4259 
Q 1275 4134 1275 3809 
L 1275 3500 
L 2222 3500 
L 2222 3053 
L 1275 3053 
L 1275 0 
L 697 0 
L 697 3053 
L 147 3053 
L 147 3500 
L 697 3500 
L 697 3744 
Q 697 4328 969 4595 
Q 1241 4863 1831 4863 
L 2375 4863 
z
" transform="scale(0.015625)"/>
       <path id="DejaVuSans-69" d="M 603 3500 
L 1178 3500 
L 1178 0 
L 603 0 
L 603 3500 
z
M 603 4863 
L 1178 4863 
L 1178 4134 
L 603 4134 
L 603 4863 
z
" transform="scale(0.015625)"/>
      </defs>
      <use xlink:href="#DejaVuSans-50"/>
      <use xlink:href="#DejaVuSans-72" transform="translate(58.552734 0)"/>
      <use xlink:href="#DejaVuSans-6f" transform="translate(97.416016 0)"/>
      <use xlink:href="#DejaVuSans-66" transform="translate(158.597656 0)"/>
      <use xlink:href="#DejaVuSans-69" transform="translate(193.802734 0)"/>
      <use xlink:href="#DejaVuSans-74" transform="translate(221.585938 0)"/>
     </g>
    </g>
   </g>
   <g id="line2d_12">
    <path d="M 52.193327 245.6056 
L 54.83998 243.839315 
L 57.486633 229.971409 
L 60.133287 218.742457 
L 62.77994 209.425319 
L 65.426593 202.008754 
L 68.073247 195.544135 
L 70.7199 190.021551 
L 73.366553 185.126912 
L 76.013207 180.514266 
L 78.65986 176.671111 
L 81.306513 173.203259 
L 86.59982 167.036062 
L 91.893127 162.126795 
L 94.53978 159.917629 
L 97.186433 157.879699 
L 105.126393 152.823255 
L 110.4197 149.852586 
L 115.713007 147.21725 
L 121.006313 144.890827 
L 128.946273 141.589427 
L 134.23958 139.685626 
L 139.532887 138.016704 
L 155.412807 133.667689 
L 163.352767 131.83339 
L 179.232687 128.526863 
L 200.405913 124.888804 
L 208.345873 123.643488 
L 221.57914 121.926308 
L 232.165753 120.698711 
L 240.105713 119.812993 
L 300.97874 114.635218 
L 340.67854 112.231486 
L 361.851767 111.135522 
L 372.43838 110.657935 
L 422.724793 108.679412 
L 518.004313 105.974 
L 544.470847 105.399028 
L 634.45706 103.718888 
L 716.503313 102.572697 
L 843.542673 101.281092 
L 843.542673 101.281092 
" clip-path="url(#p55cd55ab65)" style="fill: none; stroke: #0000ff; stroke-width: 1.5; stroke-linecap: square"/>
   </g>
   <g id="patch_3">
    <path d="M 50.87 390.04 
L 50.87 43.44 
" style="fill: none; stroke: #000000; stroke-width: 0.8; stroke-linejoin: miter; stroke-linecap: square"/>
   </g>
   <g id="patch_4">
    <path d="M 844.866 390.04 
L 844.866 43.44 
" style="fill: none; stroke: #000000; stroke-width: 0.8; stroke-linejoin: miter; stroke-linecap: square"/>
   </g>
   <g id="patch_5">
    <path d="M 50.87 390.04 
L 844.866 390.04 
" style="fill: none; stroke: #000000; stroke-width: 0.8; stroke-linejoin: miter; stroke-linecap: square"/>
   </g>
   <g id="patch_6">
    <path d="M 50.87 43.44 
L 844.866 43.44 
" style="fill: none; stroke: #000000; stroke-width: 0.8; stroke-linejoin: miter; stroke-linecap: square"/>
   </g>
   <g id="text_14">
    <!-- Mean profit per step with confidence interval per simulation step -->
    <g transform="translate(220.284875 21.763062) scale(0.14 -0.14)">
     <defs>
      <path id="DejaVuSans-4d" d="M 628 4666 
L 1569 4666 
L 2759 1491 
L 3956 4666 
L 4897 4666 
L 4897 0 
L 4281 0 
L 4281 4097 
L 3078 897 
L 2444 897 
L 1241 4097 
L 1241 0 
L 628 0 
L 628 4666 
z
" transform="scale(0.015625)"/>
      <path id="DejaVuSans-61" d="M 2194 1759 
Q 1497 1759 1228 1600 
Q 959 1441 959 1056 
Q 959 750 1161 570 
Q 1363 391 1709 391 
Q 2188 391 2477 730 
Q 2766 1069 2766 1631 
L 2766 1759 
L 2194 1759 
z
M 3341 1997 
L 3341 0 
L 2766 0 
L 2766 531 
Q 2569 213 2275 61 
Q 1981 -91 1556 -91 
Q 1019 -91 701 211 
Q 384 513 384 1019 
Q 384 1609 779 1909 
Q 1175 2209 1959 2209 
L 2766 2209 
L 2766 2266 
Q 2766 2663 2505 2880 
Q 2244 3097 1772 3097 
Q 1472 3097 1187 3025 
Q 903 2953 641 2809 
L 641 3341 
Q 956 3463 1253 3523 
Q 1550 3584 1831 3584 
Q 2591 3584 2966 3190 
Q 3341 2797 3341 1997 
z
" transform="scale(0.015625)"/>
      <path id="DejaVuSans-6e" d="M 3513 2113 
L 3513 0 
L 2938 0 
L 2938 2094 
Q 2938 2591 2744 2837 
Q 2550 3084 2163 3084 
Q 1697 3084 1428 2787 
Q 1159 2491 1159 1978 
L 1159 0 
L 581 0 
L 581 3500 
L 1159 3500 
L 1159 2956 
Q 1366 3272 1645 3428 
Q 1925 3584 2291 3584 
Q 2894 3584 3203 3211 
Q 3513 2838 3513 2113 
z
" transform="scale(0.015625)"/>
      <path id="DejaVuSans-20" transform="scale(0.015625)"/>
      <path id="DejaVuSans-73" d="M 2834 3397 
L 2834 2853 
Q 2591 2978 2328 3040 
Q 2066 3103 1784 3103 
Q 1356 3103 1142 2972 
Q 928 2841 928 2578 
Q 928 2378 1081 2264 
Q 1234 2150 1697 2047 
L 1894 2003 
Q 2506 1872 2764 1633 
Q 3022 1394 3022 966 
Q 3022 478 2636 193 
Q 2250 -91 1575 -91 
Q 1294 -91 989 -36 
Q 684 19 347 128 
L 347 722 
Q 666 556 975 473 
Q 1284 391 1588 391 
Q 1994 391 2212 530 
Q 2431 669 2431 922 
Q 2431 1156 2273 1281 
Q 2116 1406 1581 1522 
L 1381 1569 
Q 847 1681 609 1914 
Q 372 2147 372 2553 
Q 372 3047 722 3315 
Q 1072 3584 1716 3584 
Q 2034 3584 2315 3537 
Q 2597 3491 2834 3397 
z
" transform="scale(0.015625)"/>
      <path id="DejaVuSans-77" d="M 269 3500 
L 844 3500 
L 1563 769 
L 2278 3500 
L 2956 3500 
L 3675 769 
L 4391 3500 
L 4966 3500 
L 4050 0 
L 3372 0 
L 2619 2869 
L 1863 0 
L 1184 0 
L 269 3500 
z
" transform="scale(0.015625)"/>
      <path id="DejaVuSans-68" d="M 3513 2113 
L 3513 0 
L 2938 0 
L 2938 2094 
Q 2938 2591 2744 2837 
Q 2550 3084 2163 3084 
Q 1697 3084 1428 2787 
Q 1159 2491 1159 1978 
L 1159 0 
L 581 0 
L 581 4863 
L 1159 4863 
L 1159 2956 
Q 1366 3272 1645 3428 
Q 1925 3584 2291 3584 
Q 2894 3584 3203 3211 
Q 3513 2838 3513 2113 
z
" transform="scale(0.015625)"/>
      <path id="DejaVuSans-63" d="M 3122 3366 
L 3122 2828 
Q 2878 2963 2633 3030 
Q 2388 3097 2138 3097 
Q 1578 3097 1268 2742 
Q 959 2388 959 1747 
Q 959 1106 1268 751 
Q 1578 397 2138 397 
Q 2388 397 2633 464 
Q 2878 531 3122 666 
L 3122 134 
Q 2881 22 2623 -34 
Q 2366 -91 2075 -91 
Q 1284 -91 818 406 
Q 353 903 353 1747 
Q 353 2603 823 3093 
Q 1294 3584 2113 3584 
Q 2378 3584 2631 3529 
Q 2884 3475 3122 3366 
z
" transform="scale(0.015625)"/>
      <path id="DejaVuSans-64" d="M 2906 2969 
L 2906 4863 
L 3481 4863 
L 3481 0 
L 2906 0 
L 2906 525 
Q 2725 213 2448 61 
Q 2172 -91 1784 -91 
Q 1150 -91 751 415 
Q 353 922 353 1747 
Q 353 2572 751 3078 
Q 1150 3584 1784 3584 
Q 2172 3584 2448 3432 
Q 2725 3281 2906 2969 
z
M 947 1747 
Q 947 1113 1208 752 
Q 1469 391 1925 391 
Q 2381 391 2643 752 
Q 2906 1113 2906 1747 
Q 2906 2381 2643 2742 
Q 2381 3103 1925 3103 
Q 1469 3103 1208 2742 
Q 947 2381 947 1747 
z
" transform="scale(0.015625)"/>
      <path id="DejaVuSans-76" d="M 191 3500 
L 800 3500 
L 1894 563 
L 2988 3500 
L 3597 3500 
L 2284 0 
L 1503 0 
L 191 3500 
z
" transform="scale(0.015625)"/>
      <path id="DejaVuSans-6c" d="M 603 4863 
L 1178 4863 
L 1178 0 
L 603 0 
L 603 4863 
z
" transform="scale(0.015625)"/>
      <path id="DejaVuSans-6d" d="M 3328 2828 
Q 3544 3216 3844 3400 
Q 4144 3584 4550 3584 
Q 5097 3584 5394 3201 
Q 5691 2819 5691 2113 
L 5691 0 
L 5113 0 
L 5113 2094 
Q 5113 2597 4934 2840 
Q 4756 3084 4391 3084 
Q 3944 3084 3684 2787 
Q 3425 2491 3425 1978 
L 3425 0 
L 2847 0 
L 2847 2094 
Q 2847 2600 2669 2842 
Q 2491 3084 2119 3084 
Q 1678 3084 1418 2786 
Q 1159 2488 1159 1978 
L 1159 0 
L 581 0 
L 581 3500 
L 1159 3500 
L 1159 2956 
Q 1356 3278 1631 3431 
Q 1906 3584 2284 3584 
Q 2666 3584 2933 3390 
Q 3200 3197 3328 2828 
z
" transform="scale(0.015625)"/>
      <path id="DejaVuSans-75" d="M 544 1381 
L 544 3500 
L 1119 3500 
L 1119 1403 
Q 1119 906 1312 657 
Q 1506 409 1894 409 
Q 2359 409 2629 706 
Q 2900 1003 2900 1516 
L 2900 3500 
L 3475 3500 
L 3475 0 
L 2900 0 
L 2900 538 
Q 2691 219 2414 64 
Q 2138 -91 1772 -91 
Q 1169 -91 856 284 
Q 544 659 544 1381 
z
M 1991 3584 
L 1991 3584 
z
" transform="scale(0.015625)"/>
     </defs>
     <use xlink:href="#DejaVuSans-4d"/>
     <use xlink:href="#DejaVuSans-65" transform="translate(86.279297 0)"/>
     <use xlink:href="#DejaVuSans-61" transform="translate(147.802734 0)"/>
     <use xlink:href="#DejaVuSans-6e" transform="translate(209.082031 0)"/>
     <use xlink:href="#DejaVuSans-20" transform="translate(272.460938 0)"/>
     <use xlink:href="#DejaVuSans-70" transform="translate(304.248047 0)"/>
     <use xlink:href="#DejaVuSans-72" transform="translate(367.724609 0)"/>
     <use xlink:href="#DejaVuSans-6f" transform="translate(406.587891 0)"/>
     <use xlink:href="#DejaVuSans-66" transform="translate(467.769531 0)"/>
     <use xlink:href="#DejaVuSans-69" transform="translate(502.974609 0)"/>
     <use xlink:href="#DejaVuSans-74" transform="translate(530.757812 0)"/>
     <use xlink:href="#DejaVuSans-20" transform="translate(569.966797 0)"/>
     <use xlink:href="#DejaVuSans-70" transform="translate(601.753906 0)"/>
     <use xlink:href="#DejaVuSans-65" transform="translate(665.230469 0)"/>
     <use xlink:href="#DejaVuSans-72" transform="translate(726.753906 0)"/>
     <use xlink:href="#DejaVuSans-20" transform="translate(767.867188 0)"/>
     <use xlink:href="#DejaVuSans-73" transform="translate(799.654297 0)"/>
     <use xlink:href="#DejaVuSans-74" transform="translate(851.753906 0)"/>
     <use xlink:href="#DejaVuSans-65" transform="translate(890.962891 0)"/>
     <use xlink:href="#DejaVuSans-70" transform="translate(952.486328 0)"/>
     <use xlink:href="#DejaVuSans-20" transform="translate(1015.962891 0)"/>
     <use xlink:href="#DejaVuSans-77" transform="translate(1047.75 0)"/>
     <use xlink:href="#DejaVuSans-69" transform="translate(1129.537109 0)"/>
     <use xlink:href="#DejaVuSans-74" transform="translate(1157.320312 0)"/>
     <use xlink:href="#DejaVuSans-68" transform="translate(1196.529297 0)"/>
     <use xlink:href="#DejaVuSans-20" transform="translate(1259.908203 0)"/>
     <use xlink:href="#DejaVuSans-63" transform="translate(1291.695312 0)"/>
     <use xlink:href="#DejaVuSans-6f" transform="translate(1346.675781 0)"/>
     <use xlink:href="#DejaVuSans-6e" transform="translate(1407.857422 0)"/>
     <use xlink:href="#DejaVuSans-66" transform="translate(1471.236328 0)"/>
     <use xlink:href="#DejaVuSans-69" transform="translate(1506.441406 0)"/>
     <use xlink:href="#DejaVuSans-64" transform="translate(1534.224609 0)"/>
     <use xlink:href="#DejaVuSans-65" transform="translate(1597.701172 0)"/>
     <use xlink:href="#DejaVuSans-6e" transform="translate(1659.224609 0)"/>
     <use xlink:href="#DejaVuSans-63" transform="translate(1722.603516 0)"/>
     <use xlink:href="#DejaVuSans-65" transform="translate(1777.583984 0)"/>
     <use xlink:href="#DejaVuSans-20" transform="translate(1839.107422 0)"/>
     <use xlink:href="#DejaVuSans-69" transform="translate(1870.894531 0)"/>
     <use xlink:href="#DejaVuSans-6e" transform="translate(1898.677734 0)"/>
     <use xlink:href="#DejaVuSans-74" transform="translate(1962.056641 0)"/>
     <use xlink:href="#DejaVuSans-65" transform="translate(2001.265625 0)"/>
     <use xlink:href="#DejaVuSans-72" transform="translate(2062.789062 0)"/>
     <use xlink:href="#DejaVuSans-76" transform="translate(2103.902344 0)"/>
     <use xlink:href="#DejaVuSans-61" transform="translate(2163.082031 0)"/>
     <use xlink:href="#DejaVuSans-6c" transform="translate(2224.361328 0)"/>
     <use xlink:href="#DejaVuSans-20" transform="translate(2252.144531 0)"/>
     <use xlink:href="#DejaVuSans-70" transform="translate(2283.931641 0)"/>
     <use xlink:href="#DejaVuSans-65" transform="translate(2347.408203 0)"/>
     <use xlink:href="#DejaVuSans-72" transform="translate(2408.931641 0)"/>
     <use xlink:href="#DejaVuSans-20" transform="translate(2450.044922 0)"/>
     <use xlink:href="#DejaVuSans-73" transform="translate(2481.832031 0)"/>
     <use xlink:href="#DejaVuSans-69" transform="translate(2533.931641 0)"/>
     <use xlink:href="#DejaVuSans-6d" transform="translate(2561.714844 0)"/>
     <use xlink:href="#DejaVuSans-75" transform="translate(2659.126953 0)"/>
     <use xlink:href="#DejaVuSans-6c" transform="translate(2722.505859 0)"/>
     <use xlink:href="#DejaVuSans-61" transform="translate(2750.289062 0)"/>
     <use xlink:href="#DejaVuSans-74" transform="translate(2811.568359 0)"/>
     <use xlink:href="#DejaVuSans-69" transform="translate(2850.777344 0)"/>
     <use xlink:href="#DejaVuSans-6f" transform="translate(2878.560547 0)"/>
     <use xlink:href="#DejaVuSans-6e" transform="translate(2939.742188 0)"/>
     <use xlink:href="#DejaVuSans-20" transform="translate(3003.121094 0)"/>
     <use xlink:href="#DejaVuSans-73" transform="translate(3034.908203 0)"/>
     <use xlink:href="#DejaVuSans-74" transform="translate(3087.007812 0)"/>
     <use xlink:href="#DejaVuSans-65" transform="translate(3126.216797 0)"/>
     <use xlink:href="#DejaVuSans-70" transform="translate(3187.740234 0)"/>
    </g>
    <!-- Base Product: Cocaine, Recipe size: 7, T0: 5.0 -->
    <g transform="translate(287.864406 37.44) scale(0.14 -0.14)">
     <defs>
      <path id="DejaVuSans-42" d="M 1259 2228 
L 1259 519 
L 2272 519 
Q 2781 519 3026 730 
Q 3272 941 3272 1375 
Q 3272 1813 3026 2020 
Q 2781 2228 2272 2228 
L 1259 2228 
z
M 1259 4147 
L 1259 2741 
L 2194 2741 
Q 2656 2741 2882 2914 
Q 3109 3088 3109 3444 
Q 3109 3797 2882 3972 
Q 2656 4147 2194 4147 
L 1259 4147 
z
M 628 4666 
L 2241 4666 
Q 2963 4666 3353 4366 
Q 3744 4066 3744 3513 
Q 3744 3084 3544 2831 
Q 3344 2578 2956 2516 
Q 3422 2416 3680 2098 
Q 3938 1781 3938 1306 
Q 3938 681 3513 340 
Q 3088 0 2303 0 
L 628 0 
L 628 4666 
z
" transform="scale(0.015625)"/>
      <path id="DejaVuSans-3a" d="M 750 794 
L 1409 794 
L 1409 0 
L 750 0 
L 750 794 
z
M 750 3309 
L 1409 3309 
L 1409 2516 
L 750 2516 
L 750 3309 
z
" transform="scale(0.015625)"/>
      <path id="DejaVuSans-43" d="M 4122 4306 
L 4122 3641 
Q 3803 3938 3442 4084 
Q 3081 4231 2675 4231 
Q 1875 4231 1450 3742 
Q 1025 3253 1025 2328 
Q 1025 1406 1450 917 
Q 1875 428 2675 428 
Q 3081 428 3442 575 
Q 3803 722 4122 1019 
L 4122 359 
Q 3791 134 3420 21 
Q 3050 -91 2638 -91 
Q 1578 -91 968 557 
Q 359 1206 359 2328 
Q 359 3453 968 4101 
Q 1578 4750 2638 4750 
Q 3056 4750 3426 4639 
Q 3797 4528 4122 4306 
z
" transform="scale(0.015625)"/>
      <path id="DejaVuSans-2c" d="M 750 794 
L 1409 794 
L 1409 256 
L 897 -744 
L 494 -744 
L 750 256 
L 750 794 
z
" transform="scale(0.015625)"/>
      <path id="DejaVuSans-52" d="M 2841 2188 
Q 3044 2119 3236 1894 
Q 3428 1669 3622 1275 
L 4263 0 
L 3584 0 
L 2988 1197 
Q 2756 1666 2539 1819 
Q 2322 1972 1947 1972 
L 1259 1972 
L 1259 0 
L 628 0 
L 628 4666 
L 2053 4666 
Q 2853 4666 3247 4331 
Q 3641 3997 3641 3322 
Q 3641 2881 3436 2590 
Q 3231 2300 2841 2188 
z
M 1259 4147 
L 1259 2491 
L 2053 2491 
Q 2509 2491 2742 2702 
Q 2975 2913 2975 3322 
Q 2975 3731 2742 3939 
Q 2509 4147 2053 4147 
L 1259 4147 
z
" transform="scale(0.015625)"/>
      <path id="DejaVuSans-7a" d="M 353 3500 
L 3084 3500 
L 3084 2975 
L 922 459 
L 3084 459 
L 3084 0 
L 275 0 
L 275 525 
L 2438 3041 
L 353 3041 
L 353 3500 
z
" transform="scale(0.015625)"/>
      <path id="DejaVuSans-37" d="M 525 4666 
L 3525 4666 
L 3525 4397 
L 1831 0 
L 1172 0 
L 2766 4134 
L 525 4134 
L 525 4666 
z
" transform="scale(0.015625)"/>
      <path id="DejaVuSans-54" d="M -19 4666 
L 3928 4666 
L 3928 4134 
L 2272 4134 
L 2272 0 
L 1638 0 
L 1638 4134 
L -19 4134 
L -19 4666 
z
" transform="scale(0.015625)"/>
      <path id="DejaVuSans-2e" d="M 684 794 
L 1344 794 
L 1344 0 
L 684 0 
L 684 794 
z
" transform="scale(0.015625)"/>
     </defs>
     <use xlink:href="#DejaVuSans-42"/>
     <use xlink:href="#DejaVuSans-61" transform="translate(68.603516 0)"/>
     <use xlink:href="#DejaVuSans-73" transform="translate(129.882812 0)"/>
     <use xlink:href="#DejaVuSans-65" transform="translate(181.982422 0)"/>
     <use xlink:href="#DejaVuSans-20" transform="translate(243.505859 0)"/>
     <use xlink:href="#DejaVuSans-50" transform="translate(275.292969 0)"/>
     <use xlink:href="#DejaVuSans-72" transform="translate(333.845703 0)"/>
     <use xlink:href="#DejaVuSans-6f" transform="translate(372.708984 0)"/>
     <use xlink:href="#DejaVuSans-64" transform="translate(433.890625 0)"/>
     <use xlink:href="#DejaVuSans-75" transform="translate(497.367188 0)"/>
     <use xlink:href="#DejaVuSans-63" transform="translate(560.746094 0)"/>
     <use xlink:href="#DejaVuSans-74" transform="translate(615.726562 0)"/>
     <use xlink:href="#DejaVuSans-3a" transform="translate(654.935547 0)"/>
     <use xlink:href="#DejaVuSans-20" transform="translate(688.626953 0)"/>
     <use xlink:href="#DejaVuSans-43" transform="translate(720.414062 0)"/>
     <use xlink:href="#DejaVuSans-6f" transform="translate(790.238281 0)"/>
     <use xlink:href="#DejaVuSans-63" transform="translate(851.419922 0)"/>
     <use xlink:href="#DejaVuSans-61" transform="translate(906.400391 0)"/>
     <use xlink:href="#DejaVuSans-69" transform="translate(967.679688 0)"/>
     <use xlink:href="#DejaVuSans-6e" transform="translate(995.462891 0)"/>
     <use xlink:href="#DejaVuSans-65" transform="translate(1058.841797 0)"/>
     <use xlink:href="#DejaVuSans-2c" transform="translate(1120.365234 0)"/>
     <use xlink:href="#DejaVuSans-20" transform="translate(1152.152344 0)"/>
     <use xlink:href="#DejaVuSans-52" transform="translate(1183.939453 0)"/>
     <use xlink:href="#DejaVuSans-65" transform="translate(1248.921875 0)"/>
     <use xlink:href="#DejaVuSans-63" transform="translate(1310.445312 0)"/>
     <use xlink:href="#DejaVuSans-69" transform="translate(1365.425781 0)"/>
     <use xlink:href="#DejaVuSans-70" transform="translate(1393.208984 0)"/>
     <use xlink:href="#DejaVuSans-65" transform="translate(1456.685547 0)"/>
     <use xlink:href="#DejaVuSans-20" transform="translate(1518.208984 0)"/>
     <use xlink:href="#DejaVuSans-73" transform="translate(1549.996094 0)"/>
     <use xlink:href="#DejaVuSans-69" transform="translate(1602.095703 0)"/>
     <use xlink:href="#DejaVuSans-7a" transform="translate(1629.878906 0)"/>
     <use xlink:href="#DejaVuSans-65" transform="translate(1682.369141 0)"/>
     <use xlink:href="#DejaVuSans-3a" transform="translate(1743.892578 0)"/>
     <use xlink:href="#DejaVuSans-20" transform="translate(1777.583984 0)"/>
     <use xlink:href="#DejaVuSans-37" transform="translate(1809.371094 0)"/>
     <use xlink:href="#DejaVuSans-2c" transform="translate(1872.994141 0)"/>
     <use xlink:href="#DejaVuSans-20" transform="translate(1904.78125 0)"/>
     <use xlink:href="#DejaVuSans-54" transform="translate(1936.568359 0)"/>
     <use xlink:href="#DejaVuSans-30" transform="translate(1997.652344 0)"/>
     <use xlink:href="#DejaVuSans-3a" transform="translate(2061.275391 0)"/>
     <use xlink:href="#DejaVuSans-20" transform="translate(2094.966797 0)"/>
     <use xlink:href="#DejaVuSans-35" transform="translate(2126.753906 0)"/>
     <use xlink:href="#DejaVuSans-2e" transform="translate(2190.376953 0)"/>
     <use xlink:href="#DejaVuSans-30" transform="translate(2222.164062 0)"/>
    </g>
   </g>
  </g>
 </g>
 <defs>
  <clipPath id="p55cd55ab65">
   <rect x="50.87" y="43.44" width="793.996" height="346.6"/>
  </clipPath>
 </defs>
</svg>
