<?xml version="1.0" encoding="utf-8" standalone="no"?>
<!DOCTYPE svg PUBLIC "-//W3C//DTD SVG 1.1//EN"
  "http://www.w3.org/Graphics/SVG/1.1/DTD/svg11.dtd">
<svg xmlns:xlink="http://www.w3.org/1999/xlink" width="864pt" height="432pt" viewBox="0 0 864 432" xmlns="http://www.w3.org/2000/svg" version="1.1">
 <metadata>
  <rdf:RDF xmlns:dc="http://purl.org/dc/elements/1.1/" xmlns:cc="http://creativecommons.org/ns#" xmlns:rdf="http://www.w3.org/1999/02/22-rdf-syntax-ns#">
   <cc:Work>
    <dc:type rdf:resource="http://purl.org/dc/dcmitype/StillImage"/>
    <dc:date>2025-05-24T02:21:37.428095</dc:date>
    <dc:format>image/svg+xml</dc:format>
    <dc:creator>
     <cc:Agent>
      <dc:title>Matplotlib v3.10.3, https://matplotlib.org/</dc:title>
     </cc:Agent>
    </dc:creator>
   </cc:Work>
  </rdf:RDF>
 </metadata>
 <defs>
  <style type="text/css">*{stroke-linejoin: round; stroke-linecap: butt}</style>
 </defs>
 <g id="figure_1">
  <g id="patch_1">
   <path d="M 0 432 
L 864 432 
L 864 0 
L 0 0 
z
" style="fill: #ffffff"/>
  </g>
  <g id="axes_1">
   <g id="patch_2">
    <path d="M 50.87 390.04 
L 844.866 390.04 
L 844.866 43.44 
L 50.87 43.44 
z
" style="fill: #ffffff"/>
   </g>
   <g id="FillBetweenPolyCollection_1">
    <defs>
     <path id="meda8b54537" d="M 52.193327 -300.055913 
L 52.193327 -59.2165 
L 54.83998 -57.714545 
L 57.486633 -65.952449 
L 60.133287 -76.106973 
L 62.77994 -85.917867 
L 65.426593 -94.022156 
L 68.073247 -101.189326 
L 70.7199 -108.461742 
L 73.366553 -114.978596 
L 76.013207 -120.809095 
L 78.65986 -125.879168 
L 81.306513 -130.929791 
L 83.953167 -136.178455 
L 86.59982 -140.733622 
L 89.246473 -144.339161 
L 91.893127 -148.254664 
L 94.53978 -152.456121 
L 97.186433 -155.853187 
L 99.833087 -159.172246 
L 102.47974 -162.265763 
L 105.126393 -165.295923 
L 107.773047 -167.655588 
L 110.4197 -169.641084 
L 113.066353 -172.124275 
L 115.713007 -174.406257 
L 118.35966 -176.329748 
L 121.006313 -178.482332 
L 123.652967 -180.184053 
L 126.29962 -181.60559 
L 128.946273 -183.095287 
L 131.592927 -185.069887 
L 134.23958 -186.956231 
L 136.886233 -188.404423 
L 139.532887 -190.028037 
L 142.17954 -191.986091 
L 144.826193 -193.551231 
L 147.472847 -194.581327 
L 150.1195 -196.046246 
L 152.766153 -197.239981 
L 155.412807 -198.8368 
L 158.05946 -199.722849 
L 160.706113 -200.503654 
L 163.352767 -201.714519 
L 165.99942 -202.71667 
L 168.646073 -203.755503 
L 171.292727 -204.7744 
L 173.93938 -205.283335 
L 176.586033 -206.464741 
L 179.232687 -207.23925 
L 181.87934 -207.867675 
L 184.525993 -208.784293 
L 187.172647 -209.539271 
L 189.8193 -210.304519 
L 192.465953 -211.329308 
L 195.112607 -212.630669 
L 197.75926 -213.274489 
L 200.405913 -214.168307 
L 203.052567 -214.260558 
L 205.69922 -214.930448 
L 208.345873 -215.454777 
L 210.992527 -216.220267 
L 213.63918 -216.241756 
L 216.285833 -217.208193 
L 218.932487 -217.762143 
L 221.57914 -218.401887 
L 224.225793 -218.953012 
L 226.872447 -219.804054 
L 229.5191 -220.212485 
L 232.165753 -221.423532 
L 234.812407 -221.853573 
L 237.45906 -222.363072 
L 240.105713 -222.870291 
L 242.752367 -223.638404 
L 245.39902 -224.202039 
L 248.045673 -224.532969 
L 250.692327 -224.800743 
L 253.33898 -225.340993 
L 255.985633 -225.90606 
L 258.632287 -226.122685 
L 261.27894 -226.609606 
L 263.925593 -226.957101 
L 266.572247 -227.785383 
L 269.2189 -228.229003 
L 271.865553 -228.532269 
L 274.512207 -228.897883 
L 277.15886 -229.174233 
L 279.805513 -229.222396 
L 282.452167 -229.715148 
L 285.09882 -230.140952 
L 287.745473 -230.775773 
L 290.392127 -230.964855 
L 293.03878 -231.432486 
L 295.685433 -231.737346 
L 298.332087 -232.082844 
L 300.97874 -232.399145 
L 303.625393 -232.567666 
L 306.272047 -232.888648 
L 308.9187 -233.347603 
L 311.565353 -233.781982 
L 314.212007 -233.946549 
L 316.85866 -234.281574 
L 319.505313 -234.39025 
L 322.151967 -234.728403 
L 324.79862 -235.02608 
L 327.445273 -235.566491 
L 330.091927 -235.917618 
L 332.73858 -236.262389 
L 335.385233 -236.714019 
L 338.031887 -237.02239 
L 340.67854 -237.590989 
L 343.325193 -237.9175 
L 345.971847 -238.222098 
L 348.6185 -238.339934 
L 351.265153 -238.415881 
L 353.911807 -238.627138 
L 356.55846 -238.79677 
L 359.205113 -239.347048 
L 361.851767 -239.757658 
L 364.49842 -239.810885 
L 367.145073 -240.052853 
L 369.791727 -240.307068 
L 372.43838 -240.63606 
L 375.085033 -240.686221 
L 377.731687 -240.784586 
L 380.37834 -241.143985 
L 383.024993 -241.431776 
L 385.671647 -241.892163 
L 388.3183 -242.136653 
L 390.964953 -242.303096 
L 393.611607 -242.531968 
L 396.25826 -242.901356 
L 398.904913 -242.97805 
L 401.551567 -242.858801 
L 404.19822 -243.113702 
L 406.844873 -243.307244 
L 409.491527 -243.748423 
L 412.13818 -244.000378 
L 414.784833 -244.187684 
L 417.431487 -244.34533 
L 420.07814 -244.874866 
L 422.724793 -245.139533 
L 425.371447 -245.321956 
L 428.0181 -245.319212 
L 430.664753 -245.584626 
L 433.311407 -245.748345 
L 435.95806 -246.051873 
L 438.604713 -246.322715 
L 441.251367 -246.54059 
L 443.89802 -246.747146 
L 446.544673 -246.798195 
L 449.191327 -247.040465 
L 451.83798 -247.443306 
L 454.484633 -247.46988 
L 457.131287 -247.495889 
L 459.77794 -247.531138 
L 462.424593 -247.921208 
L 465.071247 -248.264909 
L 467.7179 -248.643801 
L 470.364553 -249.090225 
L 473.011207 -249.443451 
L 475.65786 -249.74478 
L 478.304513 -249.751701 
L 480.951167 -250.019455 
L 483.59782 -250.252039 
L 486.244473 -250.53303 
L 488.891127 -250.536823 
L 491.53778 -250.472639 
L 494.184433 -250.749594 
L 496.831087 -250.807765 
L 499.47774 -250.888555 
L 502.124393 -251.122472 
L 504.771047 -251.3418 
L 507.4177 -251.490588 
L 510.064353 -251.497973 
L 512.711007 -251.674525 
L 515.35766 -251.565608 
L 518.004313 -251.855516 
L 520.650967 -251.98562 
L 523.29762 -251.892038 
L 525.944273 -251.866049 
L 528.590927 -251.775775 
L 531.23758 -251.996657 
L 533.884233 -252.208782 
L 536.530887 -252.108137 
L 539.17754 -252.235255 
L 541.824193 -252.547702 
L 544.470847 -252.606176 
L 547.1175 -252.575426 
L 549.764153 -252.966221 
L 552.410807 -253.175239 
L 555.05746 -253.326004 
L 557.704113 -253.375399 
L 560.350767 -253.591297 
L 562.99742 -253.79872 
L 565.644073 -253.888429 
L 568.290727 -254.160824 
L 570.93738 -254.172567 
L 573.584033 -254.234794 
L 576.230687 -254.432008 
L 578.87734 -254.46982 
L 581.523993 -254.796936 
L 584.170647 -255.041769 
L 586.8173 -254.984424 
L 589.463953 -255.23305 
L 592.110607 -255.288861 
L 594.75726 -255.224818 
L 597.403913 -255.421467 
L 600.050567 -255.660165 
L 602.69722 -255.747735 
L 605.343873 -255.807823 
L 607.990527 -255.746686 
L 610.63718 -255.893819 
L 613.283833 -256.04967 
L 615.930487 -256.364356 
L 618.57714 -256.620851 
L 621.223793 -256.682029 
L 623.870447 -256.749946 
L 626.5171 -257.004827 
L 629.163753 -257.405025 
L 631.810407 -257.337835 
L 634.45706 -257.414468 
L 637.103713 -257.49203 
L 639.750367 -257.574515 
L 642.39702 -257.693723 
L 645.043673 -257.988919 
L 647.690327 -257.966401 
L 650.33698 -258.122654 
L 652.983633 -258.09715 
L 655.630287 -258.304049 
L 658.27694 -258.251749 
L 660.923593 -258.363532 
L 663.570247 -258.322491 
L 666.2169 -258.422692 
L 668.863553 -258.323218 
L 671.510207 -258.456146 
L 674.15686 -258.379311 
L 676.803513 -258.512078 
L 679.450167 -258.486009 
L 682.09682 -258.773738 
L 684.743473 -258.803278 
L 687.390127 -259.156625 
L 690.03678 -259.148473 
L 692.683433 -259.377325 
L 695.330087 -259.540923 
L 697.97674 -259.600043 
L 700.623393 -259.638178 
L 703.270047 -259.794109 
L 705.9167 -259.694917 
L 708.563353 -259.710413 
L 711.210007 -259.92615 
L 713.85666 -260.02284 
L 716.503313 -260.092815 
L 719.149967 -260.048667 
L 721.79662 -259.786724 
L 724.443273 -260.113719 
L 727.089927 -260.373321 
L 729.73658 -260.432118 
L 732.383233 -260.703787 
L 735.029887 -260.953018 
L 737.67654 -260.975253 
L 740.323193 -260.97715 
L 742.969847 -261.209432 
L 745.6165 -261.252854 
L 748.263153 -261.092928 
L 750.909807 -261.100393 
L 753.55646 -261.136027 
L 756.203113 -261.130014 
L 758.849767 -261.180457 
L 761.49642 -261.296437 
L 764.143073 -261.231062 
L 766.789727 -261.160078 
L 769.43638 -261.223153 
L 772.083033 -261.07162 
L 774.729687 -261.359955 
L 777.37634 -261.351925 
L 780.022993 -261.367905 
L 782.669647 -261.404951 
L 785.3163 -261.626499 
L 787.962953 -261.606523 
L 790.609607 -261.667661 
L 793.25626 -261.954018 
L 795.902913 -262.048569 
L 798.549567 -262.226695 
L 801.19622 -262.222498 
L 803.842873 -262.411561 
L 806.489527 -262.459058 
L 809.13618 -262.62766 
L 811.782833 -262.740613 
L 814.429487 -263.021765 
L 817.07614 -263.153645 
L 819.722793 -263.155662 
L 822.369447 -263.081248 
L 825.0161 -263.119626 
L 827.662753 -263.286291 
L 830.309407 -263.427654 
L 832.95606 -263.436693 
L 835.602713 -263.401867 
L 838.249367 -263.728498 
L 840.89602 -263.799483 
L 843.542673 -263.810338 
L 843.542673 -372.52854 
L 843.542673 -372.52854 
L 840.89602 -372.482657 
L 838.249367 -372.425716 
L 835.602713 -372.615626 
L 832.95606 -372.525513 
L 830.309407 -372.445046 
L 827.662753 -372.499323 
L 825.0161 -372.508363 
L 822.369447 -372.538669 
L 819.722793 -372.479025 
L 817.07614 -372.466757 
L 814.429487 -372.537136 
L 811.782833 -372.681162 
L 809.13618 -372.708321 
L 806.489527 -372.719136 
L 803.842873 -372.700451 
L 801.19622 -372.708482 
L 798.549567 -372.62753 
L 795.902913 -372.657151 
L 793.25626 -372.653236 
L 790.609607 -372.752832 
L 787.962953 -372.754486 
L 785.3163 -372.707957 
L 782.669647 -372.805455 
L 780.022993 -372.702953 
L 777.37634 -372.628216 
L 774.729687 -372.57515 
L 772.083033 -372.673737 
L 769.43638 -372.554327 
L 766.789727 -372.543471 
L 764.143073 -372.478944 
L 761.49642 -372.321318 
L 758.849767 -372.326968 
L 756.203113 -372.247953 
L 753.55646 -372.176646 
L 750.909807 -372.146663 
L 748.263153 -372.112482 
L 745.6165 -371.946099 
L 742.969847 -371.905018 
L 740.323193 -372.011232 
L 737.67654 -371.864542 
L 735.029887 -371.789604 
L 732.383233 -371.851427 
L 729.73658 -371.884276 
L 727.089927 -371.818377 
L 724.443273 -371.953928 
L 721.79662 -372.046865 
L 719.149967 -371.790088 
L 716.503313 -371.66176 
L 713.85666 -371.623019 
L 711.210007 -371.608653 
L 708.563353 -371.743196 
L 705.9167 -371.674593 
L 703.270047 -371.546829 
L 700.623393 -371.547717 
L 697.97674 -371.515796 
L 695.330087 -371.484199 
L 692.683433 -371.513577 
L 690.03678 -371.600703 
L 687.390127 -371.62879 
L 684.743473 -371.821605 
L 682.09682 -371.761315 
L 679.450167 -371.902395 
L 676.803513 -371.75962 
L 674.15686 -371.758248 
L 671.510207 -371.621526 
L 668.863553 -371.613455 
L 666.2169 -371.449494 
L 663.570247 -371.356395 
L 660.923593 -371.156356 
L 658.27694 -371.170319 
L 655.630287 -371.010918 
L 652.983633 -371.093363 
L 650.33698 -370.992879 
L 647.690327 -370.983033 
L 645.043673 -370.817174 
L 642.39702 -370.923267 
L 639.750367 -370.864107 
L 637.103713 -370.769112 
L 634.45706 -370.78372 
L 631.810407 -370.743083 
L 629.163753 -370.595909 
L 626.5171 -370.709669 
L 623.870447 -370.819273 
L 621.223793 -370.69155 
L 618.57714 -370.551115 
L 615.930487 -370.545869 
L 613.283833 -370.561446 
L 610.63718 -370.603577 
L 607.990527 -370.629646 
L 605.343873 -370.456887 
L 602.69722 -370.420124 
L 600.050567 -370.376137 
L 597.403913 -370.486023 
L 594.75726 -370.447969 
L 592.110607 -370.296275 
L 589.463953 -370.243128 
L 586.8173 -370.250028 
L 584.170647 -370.095187 
L 581.523993 -370.157939 
L 578.87734 -370.179488 
L 576.230687 -370.037318 
L 573.584033 -370.121377 
L 570.93738 -370.036309 
L 568.290727 -369.952412 
L 565.644073 -370.01246 
L 562.99742 -369.898861 
L 560.350767 -369.8987 
L 557.704113 -369.946238 
L 555.05746 -369.866981 
L 552.410807 -369.87376 
L 549.764153 -369.959716 
L 547.1175 -370.068553 
L 544.470847 -369.861775 
L 541.824193 -369.76795 
L 539.17754 -369.854108 
L 536.530887 -369.780258 
L 533.884233 -369.576467 
L 531.23758 -369.636999 
L 528.590927 -369.600357 
L 525.944273 -369.44939 
L 523.29762 -369.258592 
L 520.650967 -368.947336 
L 518.004313 -368.89205 
L 515.35766 -368.987771 
L 512.711007 -368.767878 
L 510.064353 -368.774617 
L 507.4177 -368.568767 
L 504.771047 -368.51441 
L 502.124393 -368.565781 
L 499.47774 -368.529018 
L 496.831087 -368.497138 
L 494.184433 -368.463522 
L 491.53778 -368.508598 
L 488.891127 -368.340238 
L 486.244473 -368.167762 
L 483.59782 -368.158037 
L 480.951167 -368.230635 
L 478.304513 -368.216632 
L 475.65786 -367.968006 
L 473.011207 -368.054486 
L 470.364553 -368.147221 
L 467.7179 -368.26199 
L 465.071247 -368.339351 
L 462.424593 -368.328979 
L 459.77794 -368.409447 
L 457.131287 -368.233419 
L 454.484633 -368.1038 
L 451.83798 -367.931202 
L 449.191327 -367.884714 
L 446.544673 -367.813165 
L 443.89802 -367.710542 
L 441.251367 -367.687016 
L 438.604713 -367.643392 
L 435.95806 -367.75461 
L 433.311407 -367.774747 
L 430.664753 -367.584313 
L 428.0181 -367.541254 
L 425.371447 -367.451263 
L 422.724793 -367.437018 
L 420.07814 -367.492142 
L 417.431487 -367.735885 
L 414.784833 -367.554047 
L 412.13818 -367.526121 
L 409.491527 -367.392385 
L 406.844873 -367.417809 
L 404.19822 -367.363088 
L 401.551567 -367.329795 
L 398.904913 -367.077739 
L 396.25826 -366.856474 
L 393.611607 -366.922817 
L 390.964953 -366.804295 
L 388.3183 -366.67181 
L 385.671647 -366.676249 
L 383.024993 -366.813294 
L 380.37834 -366.695942 
L 377.731687 -366.782544 
L 375.085033 -366.658695 
L 372.43838 -366.597033 
L 369.791727 -366.444573 
L 367.145073 -366.332588 
L 364.49842 -366.312249 
L 361.851767 -366.022179 
L 359.205113 -366.091589 
L 356.55846 -366.121694 
L 353.911807 -365.985698 
L 351.265153 -365.805676 
L 348.6185 -365.61165 
L 345.971847 -365.360966 
L 343.325193 -365.284857 
L 340.67854 -365.293856 
L 338.031887 -365.429367 
L 335.385233 -365.363912 
L 332.73858 -365.393815 
L 330.091927 -365.301281 
L 327.445273 -365.142041 
L 324.79862 -365.204793 
L 322.151967 -365.05318 
L 319.505313 -364.997773 
L 316.85866 -364.781027 
L 314.212007 -364.701851 
L 311.565353 -364.480304 
L 308.9187 -364.463919 
L 306.272047 -364.404638 
L 303.625393 -364.350966 
L 300.97874 -364.251774 
L 298.332087 -364.208675 
L 295.685433 -364.1205 
L 293.03878 -364.105367 
L 290.392127 -364.102381 
L 287.745473 -363.954642 
L 285.09882 -363.931801 
L 282.452167 -363.835474 
L 279.805513 -363.705572 
L 277.15886 -363.437657 
L 274.512207 -363.222405 
L 271.865553 -363.007475 
L 269.2189 -362.771359 
L 266.572247 -362.615307 
L 263.925593 -362.718575 
L 261.27894 -362.487625 
L 258.632287 -362.373663 
L 255.985633 -362.195214 
L 253.33898 -362.018581 
L 250.692327 -362.005789 
L 248.045673 -361.539812 
L 245.39902 -361.173592 
L 242.752367 -361.063545 
L 240.105713 -361.157652 
L 237.45906 -361.016935 
L 234.812407 -360.949341 
L 232.165753 -360.642523 
L 229.5191 -360.912658 
L 226.872447 -360.546923 
L 224.225793 -360.612903 
L 221.57914 -360.452654 
L 218.932487 -360.298055 
L 216.285833 -360.032238 
L 213.63918 -359.896 
L 210.992527 -359.248911 
L 208.345873 -359.038381 
L 205.69922 -358.746414 
L 203.052567 -358.573937 
L 200.405913 -358.016315 
L 197.75926 -358.083344 
L 195.112607 -357.751144 
L 192.465953 -358.035241 
L 189.8193 -357.860909 
L 187.172647 -357.737544 
L 184.525993 -357.559216 
L 181.87934 -357.45381 
L 179.232687 -357.023143 
L 176.586033 -356.761201 
L 173.93938 -356.638885 
L 171.292727 -356.169317 
L 168.646073 -355.87622 
L 165.99942 -355.747408 
L 163.352767 -355.453907 
L 160.706113 -355.417911 
L 158.05946 -354.815212 
L 155.412807 -354.286323 
L 152.766153 -354.118568 
L 150.1195 -353.84125 
L 147.472847 -353.596619 
L 144.826193 -353.078221 
L 142.17954 -352.978021 
L 139.532887 -352.837546 
L 136.886233 -352.511035 
L 134.23958 -352.058375 
L 131.592927 -351.731502 
L 128.946273 -351.368995 
L 126.29962 -350.537484 
L 123.652967 -349.67704 
L 121.006313 -349.096536 
L 118.35966 -348.834755 
L 115.713007 -348.012768 
L 113.066353 -347.270079 
L 110.4197 -346.90624 
L 107.773047 -345.86658 
L 105.126393 -344.76211 
L 102.47974 -343.92495 
L 99.833087 -343.140816 
L 97.186433 -342.407933 
L 94.53978 -341.187362 
L 91.893127 -340.476029 
L 89.246473 -339.018454 
L 86.59982 -337.658982 
L 83.953167 -336.80907 
L 81.306513 -335.382408 
L 78.65986 -333.602036 
L 76.013207 -331.616903 
L 73.366553 -329.869541 
L 70.7199 -326.84382 
L 68.073247 -324.196143 
L 65.426593 -320.033467 
L 62.77994 -315.803317 
L 60.133287 -311.865498 
L 57.486633 -307.299798 
L 54.83998 -301.366677 
L 52.193327 -300.055913 
z
" style="stroke: #0000ff; stroke-opacity: 0.2"/>
    </defs>
    <g clip-path="url(#pda75ad866c)">
     <use xlink:href="#meda8b54537" x="0" y="432" style="fill: #0000ff; fill-opacity: 0.2; stroke: #0000ff; stroke-opacity: 0.2"/>
    </g>
   </g>
   <g id="matplotlib.axis_1">
    <g id="xtick_1">
     <g id="line2d_1">
      <defs>
       <path id="m8a3ed9b4bf" d="M 0 0 
L 0 3.5 
" style="stroke: #000000; stroke-width: 0.8"/>
      </defs>
      <g>
       <use xlink:href="#m8a3ed9b4bf" x="181.87934" y="390.04" style="stroke: #000000; stroke-width: 0.8"/>
      </g>
     </g>
     <g id="text_1">
      <!-- 50 -->
      <g transform="translate(175.51684 404.638438) scale(0.1 -0.1)">
       <defs>
        <path id="DejaVuSans-35" d="M 691 4666 
L 3169 4666 
L 3169 4134 
L 1269 4134 
L 1269 2991 
Q 1406 3038 1543 3061 
Q 1681 3084 1819 3084 
Q 2600 3084 3056 2656 
Q 3513 2228 3513 1497 
Q 3513 744 3044 326 
Q 2575 -91 1722 -91 
Q 1428 -91 1123 -41 
Q 819 9 494 109 
L 494 744 
Q 775 591 1075 516 
Q 1375 441 1709 441 
Q 2250 441 2565 725 
Q 2881 1009 2881 1497 
Q 2881 1984 2565 2268 
Q 2250 2553 1709 2553 
Q 1456 2553 1204 2497 
Q 953 2441 691 2322 
L 691 4666 
z
" transform="scale(0.015625)"/>
        <path id="DejaVuSans-30" d="M 2034 4250 
Q 1547 4250 1301 3770 
Q 1056 3291 1056 2328 
Q 1056 1369 1301 889 
Q 1547 409 2034 409 
Q 2525 409 2770 889 
Q 3016 1369 3016 2328 
Q 3016 3291 2770 3770 
Q 2525 4250 2034 4250 
z
M 2034 4750 
Q 2819 4750 3233 4129 
Q 3647 3509 3647 2328 
Q 3647 1150 3233 529 
Q 2819 -91 2034 -91 
Q 1250 -91 836 529 
Q 422 1150 422 2328 
Q 422 3509 836 4129 
Q 1250 4750 2034 4750 
z
" transform="scale(0.015625)"/>
       </defs>
       <use xlink:href="#DejaVuSans-35"/>
       <use xlink:href="#DejaVuSans-30" transform="translate(63.623047 0)"/>
      </g>
     </g>
    </g>
    <g id="xtick_2">
     <g id="line2d_2">
      <g>
       <use xlink:href="#m8a3ed9b4bf" x="314.212007" y="390.04" style="stroke: #000000; stroke-width: 0.8"/>
      </g>
     </g>
     <g id="text_2">
      <!-- 100 -->
      <g transform="translate(304.668257 404.638438) scale(0.1 -0.1)">
       <defs>
        <path id="DejaVuSans-31" d="M 794 531 
L 1825 531 
L 1825 4091 
L 703 3866 
L 703 4441 
L 1819 4666 
L 2450 4666 
L 2450 531 
L 3481 531 
L 3481 0 
L 794 0 
L 794 531 
z
" transform="scale(0.015625)"/>
       </defs>
       <use xlink:href="#DejaVuSans-31"/>
       <use xlink:href="#DejaVuSans-30" transform="translate(63.623047 0)"/>
       <use xlink:href="#DejaVuSans-30" transform="translate(127.246094 0)"/>
      </g>
     </g>
    </g>
    <g id="xtick_3">
     <g id="line2d_3">
      <g>
       <use xlink:href="#m8a3ed9b4bf" x="446.544673" y="390.04" style="stroke: #000000; stroke-width: 0.8"/>
      </g>
     </g>
     <g id="text_3">
      <!-- 150 -->
      <g transform="translate(437.000923 404.638438) scale(0.1 -0.1)">
       <use xlink:href="#DejaVuSans-31"/>
       <use xlink:href="#DejaVuSans-35" transform="translate(63.623047 0)"/>
       <use xlink:href="#DejaVuSans-30" transform="translate(127.246094 0)"/>
      </g>
     </g>
    </g>
    <g id="xtick_4">
     <g id="line2d_4">
      <g>
       <use xlink:href="#m8a3ed9b4bf" x="578.87734" y="390.04" style="stroke: #000000; stroke-width: 0.8"/>
      </g>
     </g>
     <g id="text_4">
      <!-- 200 -->
      <g transform="translate(569.33359 404.638438) scale(0.1 -0.1)">
       <defs>
        <path id="DejaVuSans-32" d="M 1228 531 
L 3431 531 
L 3431 0 
L 469 0 
L 469 531 
Q 828 903 1448 1529 
Q 2069 2156 2228 2338 
Q 2531 2678 2651 2914 
Q 2772 3150 2772 3378 
Q 2772 3750 2511 3984 
Q 2250 4219 1831 4219 
Q 1534 4219 1204 4116 
Q 875 4013 500 3803 
L 500 4441 
Q 881 4594 1212 4672 
Q 1544 4750 1819 4750 
Q 2544 4750 2975 4387 
Q 3406 4025 3406 3419 
Q 3406 3131 3298 2873 
Q 3191 2616 2906 2266 
Q 2828 2175 2409 1742 
Q 1991 1309 1228 531 
z
" transform="scale(0.015625)"/>
       </defs>
       <use xlink:href="#DejaVuSans-32"/>
       <use xlink:href="#DejaVuSans-30" transform="translate(63.623047 0)"/>
       <use xlink:href="#DejaVuSans-30" transform="translate(127.246094 0)"/>
      </g>
     </g>
    </g>
    <g id="xtick_5">
     <g id="line2d_5">
      <g>
       <use xlink:href="#m8a3ed9b4bf" x="711.210007" y="390.04" style="stroke: #000000; stroke-width: 0.8"/>
      </g>
     </g>
     <g id="text_5">
      <!-- 250 -->
      <g transform="translate(701.666257 404.638438) scale(0.1 -0.1)">
       <use xlink:href="#DejaVuSans-32"/>
       <use xlink:href="#DejaVuSans-35" transform="translate(63.623047 0)"/>
       <use xlink:href="#DejaVuSans-30" transform="translate(127.246094 0)"/>
      </g>
     </g>
    </g>
    <g id="xtick_6">
     <g id="line2d_6">
      <g>
       <use xlink:href="#m8a3ed9b4bf" x="843.542673" y="390.04" style="stroke: #000000; stroke-width: 0.8"/>
      </g>
     </g>
     <g id="text_6">
      <!-- 300 -->
      <g transform="translate(833.998923 404.638438) scale(0.1 -0.1)">
       <defs>
        <path id="DejaVuSans-33" d="M 2597 2516 
Q 3050 2419 3304 2112 
Q 3559 1806 3559 1356 
Q 3559 666 3084 287 
Q 2609 -91 1734 -91 
Q 1441 -91 1130 -33 
Q 819 25 488 141 
L 488 750 
Q 750 597 1062 519 
Q 1375 441 1716 441 
Q 2309 441 2620 675 
Q 2931 909 2931 1356 
Q 2931 1769 2642 2001 
Q 2353 2234 1838 2234 
L 1294 2234 
L 1294 2753 
L 1863 2753 
Q 2328 2753 2575 2939 
Q 2822 3125 2822 3475 
Q 2822 3834 2567 4026 
Q 2313 4219 1838 4219 
Q 1578 4219 1281 4162 
Q 984 4106 628 3988 
L 628 4550 
Q 988 4650 1302 4700 
Q 1616 4750 1894 4750 
Q 2613 4750 3031 4423 
Q 3450 4097 3450 3541 
Q 3450 3153 3228 2886 
Q 3006 2619 2597 2516 
z
" transform="scale(0.015625)"/>
       </defs>
       <use xlink:href="#DejaVuSans-33"/>
       <use xlink:href="#DejaVuSans-30" transform="translate(63.623047 0)"/>
       <use xlink:href="#DejaVuSans-30" transform="translate(127.246094 0)"/>
      </g>
     </g>
    </g>
    <g id="text_7">
     <!-- Step -->
     <g transform="translate(436.482844 418.316562) scale(0.1 -0.1)">
      <defs>
       <path id="DejaVuSans-53" d="M 3425 4513 
L 3425 3897 
Q 3066 4069 2747 4153 
Q 2428 4238 2131 4238 
Q 1616 4238 1336 4038 
Q 1056 3838 1056 3469 
Q 1056 3159 1242 3001 
Q 1428 2844 1947 2747 
L 2328 2669 
Q 3034 2534 3370 2195 
Q 3706 1856 3706 1288 
Q 3706 609 3251 259 
Q 2797 -91 1919 -91 
Q 1588 -91 1214 -16 
Q 841 59 441 206 
L 441 856 
Q 825 641 1194 531 
Q 1563 422 1919 422 
Q 2459 422 2753 634 
Q 3047 847 3047 1241 
Q 3047 1584 2836 1778 
Q 2625 1972 2144 2069 
L 1759 2144 
Q 1053 2284 737 2584 
Q 422 2884 422 3419 
Q 422 4038 858 4394 
Q 1294 4750 2059 4750 
Q 2388 4750 2728 4690 
Q 3069 4631 3425 4513 
z
" transform="scale(0.015625)"/>
       <path id="DejaVuSans-74" d="M 1172 4494 
L 1172 3500 
L 2356 3500 
L 2356 3053 
L 1172 3053 
L 1172 1153 
Q 1172 725 1289 603 
Q 1406 481 1766 481 
L 2356 481 
L 2356 0 
L 1766 0 
Q 1100 0 847 248 
Q 594 497 594 1153 
L 594 3053 
L 172 3053 
L 172 3500 
L 594 3500 
L 594 4494 
L 1172 4494 
z
" transform="scale(0.015625)"/>
       <path id="DejaVuSans-65" d="M 3597 1894 
L 3597 1613 
L 953 1613 
Q 991 1019 1311 708 
Q 1631 397 2203 397 
Q 2534 397 2845 478 
Q 3156 559 3463 722 
L 3463 178 
Q 3153 47 2828 -22 
Q 2503 -91 2169 -91 
Q 1331 -91 842 396 
Q 353 884 353 1716 
Q 353 2575 817 3079 
Q 1281 3584 2069 3584 
Q 2775 3584 3186 3129 
Q 3597 2675 3597 1894 
z
M 3022 2063 
Q 3016 2534 2758 2815 
Q 2500 3097 2075 3097 
Q 1594 3097 1305 2825 
Q 1016 2553 972 2059 
L 3022 2063 
z
" transform="scale(0.015625)"/>
       <path id="DejaVuSans-70" d="M 1159 525 
L 1159 -1331 
L 581 -1331 
L 581 3500 
L 1159 3500 
L 1159 2969 
Q 1341 3281 1617 3432 
Q 1894 3584 2278 3584 
Q 2916 3584 3314 3078 
Q 3713 2572 3713 1747 
Q 3713 922 3314 415 
Q 2916 -91 2278 -91 
Q 1894 -91 1617 61 
Q 1341 213 1159 525 
z
M 3116 1747 
Q 3116 2381 2855 2742 
Q 2594 3103 2138 3103 
Q 1681 3103 1420 2742 
Q 1159 2381 1159 1747 
Q 1159 1113 1420 752 
Q 1681 391 2138 391 
Q 2594 391 2855 752 
Q 3116 1113 3116 1747 
z
" transform="scale(0.015625)"/>
      </defs>
      <use xlink:href="#DejaVuSans-53"/>
      <use xlink:href="#DejaVuSans-74" transform="translate(63.476562 0)"/>
      <use xlink:href="#DejaVuSans-65" transform="translate(102.685547 0)"/>
      <use xlink:href="#DejaVuSans-70" transform="translate(164.208984 0)"/>
     </g>
    </g>
   </g>
   <g id="matplotlib.axis_2">
    <g id="ytick_1">
     <g id="line2d_7">
      <defs>
       <path id="mb13ef64e11" d="M 0 0 
L -3.5 0 
" style="stroke: #000000; stroke-width: 0.8"/>
      </defs>
      <g>
       <use xlink:href="#mb13ef64e11" x="50.87" y="385.131438" style="stroke: #000000; stroke-width: 0.8"/>
      </g>
     </g>
     <g id="text_8">
      <!-- 200 -->
      <g transform="translate(24.7825 388.930656) scale(0.1 -0.1)">
       <use xlink:href="#DejaVuSans-32"/>
       <use xlink:href="#DejaVuSans-30" transform="translate(63.623047 0)"/>
       <use xlink:href="#DejaVuSans-30" transform="translate(127.246094 0)"/>
      </g>
     </g>
    </g>
    <g id="ytick_2">
     <g id="line2d_8">
      <g>
       <use xlink:href="#mb13ef64e11" x="50.87" y="319.014164" style="stroke: #000000; stroke-width: 0.8"/>
      </g>
     </g>
     <g id="text_9">
      <!-- 300 -->
      <g transform="translate(24.7825 322.813383) scale(0.1 -0.1)">
       <use xlink:href="#DejaVuSans-33"/>
       <use xlink:href="#DejaVuSans-30" transform="translate(63.623047 0)"/>
       <use xlink:href="#DejaVuSans-30" transform="translate(127.246094 0)"/>
      </g>
     </g>
    </g>
    <g id="ytick_3">
     <g id="line2d_9">
      <g>
       <use xlink:href="#mb13ef64e11" x="50.87" y="252.89689" style="stroke: #000000; stroke-width: 0.8"/>
      </g>
     </g>
     <g id="text_10">
      <!-- 400 -->
      <g transform="translate(24.7825 256.696109) scale(0.1 -0.1)">
       <defs>
        <path id="DejaVuSans-34" d="M 2419 4116 
L 825 1625 
L 2419 1625 
L 2419 4116 
z
M 2253 4666 
L 3047 4666 
L 3047 1625 
L 3713 1625 
L 3713 1100 
L 3047 1100 
L 3047 0 
L 2419 0 
L 2419 1100 
L 313 1100 
L 313 1709 
L 2253 4666 
z
" transform="scale(0.015625)"/>
       </defs>
       <use xlink:href="#DejaVuSans-34"/>
       <use xlink:href="#DejaVuSans-30" transform="translate(63.623047 0)"/>
       <use xlink:href="#DejaVuSans-30" transform="translate(127.246094 0)"/>
      </g>
     </g>
    </g>
    <g id="ytick_4">
     <g id="line2d_10">
      <g>
       <use xlink:href="#mb13ef64e11" x="50.87" y="186.779617" style="stroke: #000000; stroke-width: 0.8"/>
      </g>
     </g>
     <g id="text_11">
      <!-- 500 -->
      <g transform="translate(24.7825 190.578835) scale(0.1 -0.1)">
       <use xlink:href="#DejaVuSans-35"/>
       <use xlink:href="#DejaVuSans-30" transform="translate(63.623047 0)"/>
       <use xlink:href="#DejaVuSans-30" transform="translate(127.246094 0)"/>
      </g>
     </g>
    </g>
    <g id="ytick_5">
     <g id="line2d_11">
      <g>
       <use xlink:href="#mb13ef64e11" x="50.87" y="120.662343" style="stroke: #000000; stroke-width: 0.8"/>
      </g>
     </g>
     <g id="text_12">
      <!-- 600 -->
      <g transform="translate(24.7825 124.461562) scale(0.1 -0.1)">
       <defs>
        <path id="DejaVuSans-36" d="M 2113 2584 
Q 1688 2584 1439 2293 
Q 1191 2003 1191 1497 
Q 1191 994 1439 701 
Q 1688 409 2113 409 
Q 2538 409 2786 701 
Q 3034 994 3034 1497 
Q 3034 2003 2786 2293 
Q 2538 2584 2113 2584 
z
M 3366 4563 
L 3366 3988 
Q 3128 4100 2886 4159 
Q 2644 4219 2406 4219 
Q 1781 4219 1451 3797 
Q 1122 3375 1075 2522 
Q 1259 2794 1537 2939 
Q 1816 3084 2150 3084 
Q 2853 3084 3261 2657 
Q 3669 2231 3669 1497 
Q 3669 778 3244 343 
Q 2819 -91 2113 -91 
Q 1303 -91 875 529 
Q 447 1150 447 2328 
Q 447 3434 972 4092 
Q 1497 4750 2381 4750 
Q 2619 4750 2861 4703 
Q 3103 4656 3366 4563 
z
" transform="scale(0.015625)"/>
       </defs>
       <use xlink:href="#DejaVuSans-36"/>
       <use xlink:href="#DejaVuSans-30" transform="translate(63.623047 0)"/>
       <use xlink:href="#DejaVuSans-30" transform="translate(127.246094 0)"/>
      </g>
     </g>
    </g>
    <g id="ytick_6">
     <g id="line2d_12">
      <g>
       <use xlink:href="#mb13ef64e11" x="50.87" y="54.545069" style="stroke: #000000; stroke-width: 0.8"/>
      </g>
     </g>
     <g id="text_13">
      <!-- 700 -->
      <g transform="translate(24.7825 58.344288) scale(0.1 -0.1)">
       <defs>
        <path id="DejaVuSans-37" d="M 525 4666 
L 3525 4666 
L 3525 4397 
L 1831 0 
L 1172 0 
L 2766 4134 
L 525 4134 
L 525 4666 
z
" transform="scale(0.015625)"/>
       </defs>
       <use xlink:href="#DejaVuSans-37"/>
       <use xlink:href="#DejaVuSans-30" transform="translate(63.623047 0)"/>
       <use xlink:href="#DejaVuSans-30" transform="translate(127.246094 0)"/>
      </g>
     </g>
    </g>
    <g id="text_14">
     <!-- Profit -->
     <g transform="translate(18.702813 229.779063) rotate(-90) scale(0.1 -0.1)">
      <defs>
       <path id="DejaVuSans-50" d="M 1259 4147 
L 1259 2394 
L 2053 2394 
Q 2494 2394 2734 2622 
Q 2975 2850 2975 3272 
Q 2975 3691 2734 3919 
Q 2494 4147 2053 4147 
L 1259 4147 
z
M 628 4666 
L 2053 4666 
Q 2838 4666 3239 4311 
Q 3641 3956 3641 3272 
Q 3641 2581 3239 2228 
Q 2838 1875 2053 1875 
L 1259 1875 
L 1259 0 
L 628 0 
L 628 4666 
z
" transform="scale(0.015625)"/>
       <path id="DejaVuSans-72" d="M 2631 2963 
Q 2534 3019 2420 3045 
Q 2306 3072 2169 3072 
Q 1681 3072 1420 2755 
Q 1159 2438 1159 1844 
L 1159 0 
L 581 0 
L 581 3500 
L 1159 3500 
L 1159 2956 
Q 1341 3275 1631 3429 
Q 1922 3584 2338 3584 
Q 2397 3584 2469 3576 
Q 2541 3569 2628 3553 
L 2631 2963 
z
" transform="scale(0.015625)"/>
       <path id="DejaVuSans-6f" d="M 1959 3097 
Q 1497 3097 1228 2736 
Q 959 2375 959 1747 
Q 959 1119 1226 758 
Q 1494 397 1959 397 
Q 2419 397 2687 759 
Q 2956 1122 2956 1747 
Q 2956 2369 2687 2733 
Q 2419 3097 1959 3097 
z
M 1959 3584 
Q 2709 3584 3137 3096 
Q 3566 2609 3566 1747 
Q 3566 888 3137 398 
Q 2709 -91 1959 -91 
Q 1206 -91 779 398 
Q 353 888 353 1747 
Q 353 2609 779 3096 
Q 1206 3584 1959 3584 
z
" transform="scale(0.015625)"/>
       <path id="DejaVuSans-66" d="M 2375 4863 
L 2375 4384 
L 1825 4384 
Q 1516 4384 1395 4259 
Q 1275 4134 1275 3809 
L 1275 3500 
L 2222 3500 
L 2222 3053 
L 1275 3053 
L 1275 0 
L 697 0 
L 697 3053 
L 147 3053 
L 147 3500 
L 697 3500 
L 697 3744 
Q 697 4328 969 4595 
Q 1241 4863 1831 4863 
L 2375 4863 
z
" transform="scale(0.015625)"/>
       <path id="DejaVuSans-69" d="M 603 3500 
L 1178 3500 
L 1178 0 
L 603 0 
L 603 3500 
z
M 603 4863 
L 1178 4863 
L 1178 4134 
L 603 4134 
L 603 4863 
z
" transform="scale(0.015625)"/>
      </defs>
      <use xlink:href="#DejaVuSans-50"/>
      <use xlink:href="#DejaVuSans-72" transform="translate(58.552734 0)"/>
      <use xlink:href="#DejaVuSans-6f" transform="translate(97.416016 0)"/>
      <use xlink:href="#DejaVuSans-66" transform="translate(158.597656 0)"/>
      <use xlink:href="#DejaVuSans-69" transform="translate(193.802734 0)"/>
      <use xlink:href="#DejaVuSans-74" transform="translate(221.585938 0)"/>
     </g>
    </g>
   </g>
   <g id="line2d_13">
    <path d="M 52.193327 252.363783 
L 54.83998 252.459384 
L 62.77994 231.139408 
L 65.426593 224.972189 
L 68.073247 219.307265 
L 73.366553 209.575932 
L 76.013207 205.787001 
L 81.306513 198.8439 
L 83.953167 195.506237 
L 86.59982 192.803698 
L 89.246473 190.321193 
L 91.893127 187.634654 
L 97.186433 182.86944 
L 102.47974 178.904643 
L 105.126393 176.970983 
L 107.773047 175.238916 
L 115.713007 170.790487 
L 118.35966 169.417739 
L 123.652967 167.069454 
L 134.23958 162.492697 
L 139.532887 160.567209 
L 142.17954 159.517944 
L 150.1195 157.056262 
L 152.766153 156.320716 
L 155.412807 155.438439 
L 163.352767 153.415777 
L 171.292727 151.528141 
L 173.93938 151.03888 
L 176.586033 150.387029 
L 187.172647 148.361582 
L 189.8193 147.917276 
L 195.112607 146.809094 
L 200.405913 145.907689 
L 205.69922 145.161569 
L 213.63918 143.931112 
L 216.285833 143.379785 
L 234.812407 140.598533 
L 242.752367 139.649025 
L 255.985633 137.949363 
L 261.27894 137.451385 
L 282.452167 135.224689 
L 293.03878 134.231073 
L 306.272047 133.353357 
L 314.212007 132.6758 
L 348.6185 130.024208 
L 356.55846 129.540758 
L 361.851767 129.110092 
L 375.085033 128.327532 
L 380.37834 128.080036 
L 385.671647 127.715794 
L 393.611607 127.272618 
L 404.19822 126.761605 
L 409.491527 126.429606 
L 417.431487 125.959392 
L 425.371447 125.61339 
L 430.664753 125.415531 
L 435.95806 125.096768 
L 446.544673 124.69431 
L 457.131287 124.135356 
L 462.424593 123.874906 
L 473.011207 123.251021 
L 496.831087 122.347559 
L 504.771047 122.071895 
L 525.944273 121.342281 
L 531.23758 121.183162 
L 547.1175 120.678001 
L 552.410807 120.4755 
L 578.87734 119.675346 
L 584.170647 119.431522 
L 594.75726 119.163607 
L 602.69722 118.916071 
L 613.283833 118.694442 
L 621.223793 118.31321 
L 634.45706 117.900906 
L 639.750367 117.780689 
L 655.630287 117.342517 
L 737.67654 115.580102 
L 745.6165 115.400523 
L 756.203113 115.311017 
L 766.789727 115.148225 
L 795.902913 114.64714 
L 814.429487 114.22055 
L 843.542673 113.830561 
L 843.542673 113.830561 
" clip-path="url(#pda75ad866c)" style="fill: none; stroke: #0000ff; stroke-width: 1.5; stroke-linecap: square"/>
   </g>
   <g id="patch_3">
    <path d="M 50.87 390.04 
L 50.87 43.44 
" style="fill: none; stroke: #000000; stroke-width: 0.8; stroke-linejoin: miter; stroke-linecap: square"/>
   </g>
   <g id="patch_4">
    <path d="M 844.866 390.04 
L 844.866 43.44 
" style="fill: none; stroke: #000000; stroke-width: 0.8; stroke-linejoin: miter; stroke-linecap: square"/>
   </g>
   <g id="patch_5">
    <path d="M 50.87 390.04 
L 844.866 390.04 
" style="fill: none; stroke: #000000; stroke-width: 0.8; stroke-linejoin: miter; stroke-linecap: square"/>
   </g>
   <g id="patch_6">
    <path d="M 50.87 43.44 
L 844.866 43.44 
" style="fill: none; stroke: #000000; stroke-width: 0.8; stroke-linejoin: miter; stroke-linecap: square"/>
   </g>
   <g id="text_15">
    <!-- Mean profit per step with confidence interval per simulation step -->
    <g transform="translate(220.284875 21.763062) scale(0.14 -0.14)">
     <defs>
      <path id="DejaVuSans-4d" d="M 628 4666 
L 1569 4666 
L 2759 1491 
L 3956 4666 
L 4897 4666 
L 4897 0 
L 4281 0 
L 4281 4097 
L 3078 897 
L 2444 897 
L 1241 4097 
L 1241 0 
L 628 0 
L 628 4666 
z
" transform="scale(0.015625)"/>
      <path id="DejaVuSans-61" d="M 2194 1759 
Q 1497 1759 1228 1600 
Q 959 1441 959 1056 
Q 959 750 1161 570 
Q 1363 391 1709 391 
Q 2188 391 2477 730 
Q 2766 1069 2766 1631 
L 2766 1759 
L 2194 1759 
z
M 3341 1997 
L 3341 0 
L 2766 0 
L 2766 531 
Q 2569 213 2275 61 
Q 1981 -91 1556 -91 
Q 1019 -91 701 211 
Q 384 513 384 1019 
Q 384 1609 779 1909 
Q 1175 2209 1959 2209 
L 2766 2209 
L 2766 2266 
Q 2766 2663 2505 2880 
Q 2244 3097 1772 3097 
Q 1472 3097 1187 3025 
Q 903 2953 641 2809 
L 641 3341 
Q 956 3463 1253 3523 
Q 1550 3584 1831 3584 
Q 2591 3584 2966 3190 
Q 3341 2797 3341 1997 
z
" transform="scale(0.015625)"/>
      <path id="DejaVuSans-6e" d="M 3513 2113 
L 3513 0 
L 2938 0 
L 2938 2094 
Q 2938 2591 2744 2837 
Q 2550 3084 2163 3084 
Q 1697 3084 1428 2787 
Q 1159 2491 1159 1978 
L 1159 0 
L 581 0 
L 581 3500 
L 1159 3500 
L 1159 2956 
Q 1366 3272 1645 3428 
Q 1925 3584 2291 3584 
Q 2894 3584 3203 3211 
Q 3513 2838 3513 2113 
z
" transform="scale(0.015625)"/>
      <path id="DejaVuSans-20" transform="scale(0.015625)"/>
      <path id="DejaVuSans-73" d="M 2834 3397 
L 2834 2853 
Q 2591 2978 2328 3040 
Q 2066 3103 1784 3103 
Q 1356 3103 1142 2972 
Q 928 2841 928 2578 
Q 928 2378 1081 2264 
Q 1234 2150 1697 2047 
L 1894 2003 
Q 2506 1872 2764 1633 
Q 3022 1394 3022 966 
Q 3022 478 2636 193 
Q 2250 -91 1575 -91 
Q 1294 -91 989 -36 
Q 684 19 347 128 
L 347 722 
Q 666 556 975 473 
Q 1284 391 1588 391 
Q 1994 391 2212 530 
Q 2431 669 2431 922 
Q 2431 1156 2273 1281 
Q 2116 1406 1581 1522 
L 1381 1569 
Q 847 1681 609 1914 
Q 372 2147 372 2553 
Q 372 3047 722 3315 
Q 1072 3584 1716 3584 
Q 2034 3584 2315 3537 
Q 2597 3491 2834 3397 
z
" transform="scale(0.015625)"/>
      <path id="DejaVuSans-77" d="M 269 3500 
L 844 3500 
L 1563 769 
L 2278 3500 
L 2956 3500 
L 3675 769 
L 4391 3500 
L 4966 3500 
L 4050 0 
L 3372 0 
L 2619 2869 
L 1863 0 
L 1184 0 
L 269 3500 
z
" transform="scale(0.015625)"/>
      <path id="DejaVuSans-68" d="M 3513 2113 
L 3513 0 
L 2938 0 
L 2938 2094 
Q 2938 2591 2744 2837 
Q 2550 3084 2163 3084 
Q 1697 3084 1428 2787 
Q 1159 2491 1159 1978 
L 1159 0 
L 581 0 
L 581 4863 
L 1159 4863 
L 1159 2956 
Q 1366 3272 1645 3428 
Q 1925 3584 2291 3584 
Q 2894 3584 3203 3211 
Q 3513 2838 3513 2113 
z
" transform="scale(0.015625)"/>
      <path id="DejaVuSans-63" d="M 3122 3366 
L 3122 2828 
Q 2878 2963 2633 3030 
Q 2388 3097 2138 3097 
Q 1578 3097 1268 2742 
Q 959 2388 959 1747 
Q 959 1106 1268 751 
Q 1578 397 2138 397 
Q 2388 397 2633 464 
Q 2878 531 3122 666 
L 3122 134 
Q 2881 22 2623 -34 
Q 2366 -91 2075 -91 
Q 1284 -91 818 406 
Q 353 903 353 1747 
Q 353 2603 823 3093 
Q 1294 3584 2113 3584 
Q 2378 3584 2631 3529 
Q 2884 3475 3122 3366 
z
" transform="scale(0.015625)"/>
      <path id="DejaVuSans-64" d="M 2906 2969 
L 2906 4863 
L 3481 4863 
L 3481 0 
L 2906 0 
L 2906 525 
Q 2725 213 2448 61 
Q 2172 -91 1784 -91 
Q 1150 -91 751 415 
Q 353 922 353 1747 
Q 353 2572 751 3078 
Q 1150 3584 1784 3584 
Q 2172 3584 2448 3432 
Q 2725 3281 2906 2969 
z
M 947 1747 
Q 947 1113 1208 752 
Q 1469 391 1925 391 
Q 2381 391 2643 752 
Q 2906 1113 2906 1747 
Q 2906 2381 2643 2742 
Q 2381 3103 1925 3103 
Q 1469 3103 1208 2742 
Q 947 2381 947 1747 
z
" transform="scale(0.015625)"/>
      <path id="DejaVuSans-76" d="M 191 3500 
L 800 3500 
L 1894 563 
L 2988 3500 
L 3597 3500 
L 2284 0 
L 1503 0 
L 191 3500 
z
" transform="scale(0.015625)"/>
      <path id="DejaVuSans-6c" d="M 603 4863 
L 1178 4863 
L 1178 0 
L 603 0 
L 603 4863 
z
" transform="scale(0.015625)"/>
      <path id="DejaVuSans-6d" d="M 3328 2828 
Q 3544 3216 3844 3400 
Q 4144 3584 4550 3584 
Q 5097 3584 5394 3201 
Q 5691 2819 5691 2113 
L 5691 0 
L 5113 0 
L 5113 2094 
Q 5113 2597 4934 2840 
Q 4756 3084 4391 3084 
Q 3944 3084 3684 2787 
Q 3425 2491 3425 1978 
L 3425 0 
L 2847 0 
L 2847 2094 
Q 2847 2600 2669 2842 
Q 2491 3084 2119 3084 
Q 1678 3084 1418 2786 
Q 1159 2488 1159 1978 
L 1159 0 
L 581 0 
L 581 3500 
L 1159 3500 
L 1159 2956 
Q 1356 3278 1631 3431 
Q 1906 3584 2284 3584 
Q 2666 3584 2933 3390 
Q 3200 3197 3328 2828 
z
" transform="scale(0.015625)"/>
      <path id="DejaVuSans-75" d="M 544 1381 
L 544 3500 
L 1119 3500 
L 1119 1403 
Q 1119 906 1312 657 
Q 1506 409 1894 409 
Q 2359 409 2629 706 
Q 2900 1003 2900 1516 
L 2900 3500 
L 3475 3500 
L 3475 0 
L 2900 0 
L 2900 538 
Q 2691 219 2414 64 
Q 2138 -91 1772 -91 
Q 1169 -91 856 284 
Q 544 659 544 1381 
z
M 1991 3584 
L 1991 3584 
z
" transform="scale(0.015625)"/>
     </defs>
     <use xlink:href="#DejaVuSans-4d"/>
     <use xlink:href="#DejaVuSans-65" transform="translate(86.279297 0)"/>
     <use xlink:href="#DejaVuSans-61" transform="translate(147.802734 0)"/>
     <use xlink:href="#DejaVuSans-6e" transform="translate(209.082031 0)"/>
     <use xlink:href="#DejaVuSans-20" transform="translate(272.460938 0)"/>
     <use xlink:href="#DejaVuSans-70" transform="translate(304.248047 0)"/>
     <use xlink:href="#DejaVuSans-72" transform="translate(367.724609 0)"/>
     <use xlink:href="#DejaVuSans-6f" transform="translate(406.587891 0)"/>
     <use xlink:href="#DejaVuSans-66" transform="translate(467.769531 0)"/>
     <use xlink:href="#DejaVuSans-69" transform="translate(502.974609 0)"/>
     <use xlink:href="#DejaVuSans-74" transform="translate(530.757812 0)"/>
     <use xlink:href="#DejaVuSans-20" transform="translate(569.966797 0)"/>
     <use xlink:href="#DejaVuSans-70" transform="translate(601.753906 0)"/>
     <use xlink:href="#DejaVuSans-65" transform="translate(665.230469 0)"/>
     <use xlink:href="#DejaVuSans-72" transform="translate(726.753906 0)"/>
     <use xlink:href="#DejaVuSans-20" transform="translate(767.867188 0)"/>
     <use xlink:href="#DejaVuSans-73" transform="translate(799.654297 0)"/>
     <use xlink:href="#DejaVuSans-74" transform="translate(851.753906 0)"/>
     <use xlink:href="#DejaVuSans-65" transform="translate(890.962891 0)"/>
     <use xlink:href="#DejaVuSans-70" transform="translate(952.486328 0)"/>
     <use xlink:href="#DejaVuSans-20" transform="translate(1015.962891 0)"/>
     <use xlink:href="#DejaVuSans-77" transform="translate(1047.75 0)"/>
     <use xlink:href="#DejaVuSans-69" transform="translate(1129.537109 0)"/>
     <use xlink:href="#DejaVuSans-74" transform="translate(1157.320312 0)"/>
     <use xlink:href="#DejaVuSans-68" transform="translate(1196.529297 0)"/>
     <use xlink:href="#DejaVuSans-20" transform="translate(1259.908203 0)"/>
     <use xlink:href="#DejaVuSans-63" transform="translate(1291.695312 0)"/>
     <use xlink:href="#DejaVuSans-6f" transform="translate(1346.675781 0)"/>
     <use xlink:href="#DejaVuSans-6e" transform="translate(1407.857422 0)"/>
     <use xlink:href="#DejaVuSans-66" transform="translate(1471.236328 0)"/>
     <use xlink:href="#DejaVuSans-69" transform="translate(1506.441406 0)"/>
     <use xlink:href="#DejaVuSans-64" transform="translate(1534.224609 0)"/>
     <use xlink:href="#DejaVuSans-65" transform="translate(1597.701172 0)"/>
     <use xlink:href="#DejaVuSans-6e" transform="translate(1659.224609 0)"/>
     <use xlink:href="#DejaVuSans-63" transform="translate(1722.603516 0)"/>
     <use xlink:href="#DejaVuSans-65" transform="translate(1777.583984 0)"/>
     <use xlink:href="#DejaVuSans-20" transform="translate(1839.107422 0)"/>
     <use xlink:href="#DejaVuSans-69" transform="translate(1870.894531 0)"/>
     <use xlink:href="#DejaVuSans-6e" transform="translate(1898.677734 0)"/>
     <use xlink:href="#DejaVuSans-74" transform="translate(1962.056641 0)"/>
     <use xlink:href="#DejaVuSans-65" transform="translate(2001.265625 0)"/>
     <use xlink:href="#DejaVuSans-72" transform="translate(2062.789062 0)"/>
     <use xlink:href="#DejaVuSans-76" transform="translate(2103.902344 0)"/>
     <use xlink:href="#DejaVuSans-61" transform="translate(2163.082031 0)"/>
     <use xlink:href="#DejaVuSans-6c" transform="translate(2224.361328 0)"/>
     <use xlink:href="#DejaVuSans-20" transform="translate(2252.144531 0)"/>
     <use xlink:href="#DejaVuSans-70" transform="translate(2283.931641 0)"/>
     <use xlink:href="#DejaVuSans-65" transform="translate(2347.408203 0)"/>
     <use xlink:href="#DejaVuSans-72" transform="translate(2408.931641 0)"/>
     <use xlink:href="#DejaVuSans-20" transform="translate(2450.044922 0)"/>
     <use xlink:href="#DejaVuSans-73" transform="translate(2481.832031 0)"/>
     <use xlink:href="#DejaVuSans-69" transform="translate(2533.931641 0)"/>
     <use xlink:href="#DejaVuSans-6d" transform="translate(2561.714844 0)"/>
     <use xlink:href="#DejaVuSans-75" transform="translate(2659.126953 0)"/>
     <use xlink:href="#DejaVuSans-6c" transform="translate(2722.505859 0)"/>
     <use xlink:href="#DejaVuSans-61" transform="translate(2750.289062 0)"/>
     <use xlink:href="#DejaVuSans-74" transform="translate(2811.568359 0)"/>
     <use xlink:href="#DejaVuSans-69" transform="translate(2850.777344 0)"/>
     <use xlink:href="#DejaVuSans-6f" transform="translate(2878.560547 0)"/>
     <use xlink:href="#DejaVuSans-6e" transform="translate(2939.742188 0)"/>
     <use xlink:href="#DejaVuSans-20" transform="translate(3003.121094 0)"/>
     <use xlink:href="#DejaVuSans-73" transform="translate(3034.908203 0)"/>
     <use xlink:href="#DejaVuSans-74" transform="translate(3087.007812 0)"/>
     <use xlink:href="#DejaVuSans-65" transform="translate(3126.216797 0)"/>
     <use xlink:href="#DejaVuSans-70" transform="translate(3187.740234 0)"/>
    </g>
    <!-- Base Product: Cocaine, Recipe size: 8, T0: 50.0 -->
    <g transform="translate(283.410656 37.44) scale(0.14 -0.14)">
     <defs>
      <path id="DejaVuSans-42" d="M 1259 2228 
L 1259 519 
L 2272 519 
Q 2781 519 3026 730 
Q 3272 941 3272 1375 
Q 3272 1813 3026 2020 
Q 2781 2228 2272 2228 
L 1259 2228 
z
M 1259 4147 
L 1259 2741 
L 2194 2741 
Q 2656 2741 2882 2914 
Q 3109 3088 3109 3444 
Q 3109 3797 2882 3972 
Q 2656 4147 2194 4147 
L 1259 4147 
z
M 628 4666 
L 2241 4666 
Q 2963 4666 3353 4366 
Q 3744 4066 3744 3513 
Q 3744 3084 3544 2831 
Q 3344 2578 2956 2516 
Q 3422 2416 3680 2098 
Q 3938 1781 3938 1306 
Q 3938 681 3513 340 
Q 3088 0 2303 0 
L 628 0 
L 628 4666 
z
" transform="scale(0.015625)"/>
      <path id="DejaVuSans-3a" d="M 750 794 
L 1409 794 
L 1409 0 
L 750 0 
L 750 794 
z
M 750 3309 
L 1409 3309 
L 1409 2516 
L 750 2516 
L 750 3309 
z
" transform="scale(0.015625)"/>
      <path id="DejaVuSans-43" d="M 4122 4306 
L 4122 3641 
Q 3803 3938 3442 4084 
Q 3081 4231 2675 4231 
Q 1875 4231 1450 3742 
Q 1025 3253 1025 2328 
Q 1025 1406 1450 917 
Q 1875 428 2675 428 
Q 3081 428 3442 575 
Q 3803 722 4122 1019 
L 4122 359 
Q 3791 134 3420 21 
Q 3050 -91 2638 -91 
Q 1578 -91 968 557 
Q 359 1206 359 2328 
Q 359 3453 968 4101 
Q 1578 4750 2638 4750 
Q 3056 4750 3426 4639 
Q 3797 4528 4122 4306 
z
" transform="scale(0.015625)"/>
      <path id="DejaVuSans-2c" d="M 750 794 
L 1409 794 
L 1409 256 
L 897 -744 
L 494 -744 
L 750 256 
L 750 794 
z
" transform="scale(0.015625)"/>
      <path id="DejaVuSans-52" d="M 2841 2188 
Q 3044 2119 3236 1894 
Q 3428 1669 3622 1275 
L 4263 0 
L 3584 0 
L 2988 1197 
Q 2756 1666 2539 1819 
Q 2322 1972 1947 1972 
L 1259 1972 
L 1259 0 
L 628 0 
L 628 4666 
L 2053 4666 
Q 2853 4666 3247 4331 
Q 3641 3997 3641 3322 
Q 3641 2881 3436 2590 
Q 3231 2300 2841 2188 
z
M 1259 4147 
L 1259 2491 
L 2053 2491 
Q 2509 2491 2742 2702 
Q 2975 2913 2975 3322 
Q 2975 3731 2742 3939 
Q 2509 4147 2053 4147 
L 1259 4147 
z
" transform="scale(0.015625)"/>
      <path id="DejaVuSans-7a" d="M 353 3500 
L 3084 3500 
L 3084 2975 
L 922 459 
L 3084 459 
L 3084 0 
L 275 0 
L 275 525 
L 2438 3041 
L 353 3041 
L 353 3500 
z
" transform="scale(0.015625)"/>
      <path id="DejaVuSans-38" d="M 2034 2216 
Q 1584 2216 1326 1975 
Q 1069 1734 1069 1313 
Q 1069 891 1326 650 
Q 1584 409 2034 409 
Q 2484 409 2743 651 
Q 3003 894 3003 1313 
Q 3003 1734 2745 1975 
Q 2488 2216 2034 2216 
z
M 1403 2484 
Q 997 2584 770 2862 
Q 544 3141 544 3541 
Q 544 4100 942 4425 
Q 1341 4750 2034 4750 
Q 2731 4750 3128 4425 
Q 3525 4100 3525 3541 
Q 3525 3141 3298 2862 
Q 3072 2584 2669 2484 
Q 3125 2378 3379 2068 
Q 3634 1759 3634 1313 
Q 3634 634 3220 271 
Q 2806 -91 2034 -91 
Q 1263 -91 848 271 
Q 434 634 434 1313 
Q 434 1759 690 2068 
Q 947 2378 1403 2484 
z
M 1172 3481 
Q 1172 3119 1398 2916 
Q 1625 2713 2034 2713 
Q 2441 2713 2670 2916 
Q 2900 3119 2900 3481 
Q 2900 3844 2670 4047 
Q 2441 4250 2034 4250 
Q 1625 4250 1398 4047 
Q 1172 3844 1172 3481 
z
" transform="scale(0.015625)"/>
      <path id="DejaVuSans-54" d="M -19 4666 
L 3928 4666 
L 3928 4134 
L 2272 4134 
L 2272 0 
L 1638 0 
L 1638 4134 
L -19 4134 
L -19 4666 
z
" transform="scale(0.015625)"/>
      <path id="DejaVuSans-2e" d="M 684 794 
L 1344 794 
L 1344 0 
L 684 0 
L 684 794 
z
" transform="scale(0.015625)"/>
     </defs>
     <use xlink:href="#DejaVuSans-42"/>
     <use xlink:href="#DejaVuSans-61" transform="translate(68.603516 0)"/>
     <use xlink:href="#DejaVuSans-73" transform="translate(129.882812 0)"/>
     <use xlink:href="#DejaVuSans-65" transform="translate(181.982422 0)"/>
     <use xlink:href="#DejaVuSans-20" transform="translate(243.505859 0)"/>
     <use xlink:href="#DejaVuSans-50" transform="translate(275.292969 0)"/>
     <use xlink:href="#DejaVuSans-72" transform="translate(333.845703 0)"/>
     <use xlink:href="#DejaVuSans-6f" transform="translate(372.708984 0)"/>
     <use xlink:href="#DejaVuSans-64" transform="translate(433.890625 0)"/>
     <use xlink:href="#DejaVuSans-75" transform="translate(497.367188 0)"/>
     <use xlink:href="#DejaVuSans-63" transform="translate(560.746094 0)"/>
     <use xlink:href="#DejaVuSans-74" transform="translate(615.726562 0)"/>
     <use xlink:href="#DejaVuSans-3a" transform="translate(654.935547 0)"/>
     <use xlink:href="#DejaVuSans-20" transform="translate(688.626953 0)"/>
     <use xlink:href="#DejaVuSans-43" transform="translate(720.414062 0)"/>
     <use xlink:href="#DejaVuSans-6f" transform="translate(790.238281 0)"/>
     <use xlink:href="#DejaVuSans-63" transform="translate(851.419922 0)"/>
     <use xlink:href="#DejaVuSans-61" transform="translate(906.400391 0)"/>
     <use xlink:href="#DejaVuSans-69" transform="translate(967.679688 0)"/>
     <use xlink:href="#DejaVuSans-6e" transform="translate(995.462891 0)"/>
     <use xlink:href="#DejaVuSans-65" transform="translate(1058.841797 0)"/>
     <use xlink:href="#DejaVuSans-2c" transform="translate(1120.365234 0)"/>
     <use xlink:href="#DejaVuSans-20" transform="translate(1152.152344 0)"/>
     <use xlink:href="#DejaVuSans-52" transform="translate(1183.939453 0)"/>
     <use xlink:href="#DejaVuSans-65" transform="translate(1248.921875 0)"/>
     <use xlink:href="#DejaVuSans-63" transform="translate(1310.445312 0)"/>
     <use xlink:href="#DejaVuSans-69" transform="translate(1365.425781 0)"/>
     <use xlink:href="#DejaVuSans-70" transform="translate(1393.208984 0)"/>
     <use xlink:href="#DejaVuSans-65" transform="translate(1456.685547 0)"/>
     <use xlink:href="#DejaVuSans-20" transform="translate(1518.208984 0)"/>
     <use xlink:href="#DejaVuSans-73" transform="translate(1549.996094 0)"/>
     <use xlink:href="#DejaVuSans-69" transform="translate(1602.095703 0)"/>
     <use xlink:href="#DejaVuSans-7a" transform="translate(1629.878906 0)"/>
     <use xlink:href="#DejaVuSans-65" transform="translate(1682.369141 0)"/>
     <use xlink:href="#DejaVuSans-3a" transform="translate(1743.892578 0)"/>
     <use xlink:href="#DejaVuSans-20" transform="translate(1777.583984 0)"/>
     <use xlink:href="#DejaVuSans-38" transform="translate(1809.371094 0)"/>
     <use xlink:href="#DejaVuSans-2c" transform="translate(1872.994141 0)"/>
     <use xlink:href="#DejaVuSans-20" transform="translate(1904.78125 0)"/>
     <use xlink:href="#DejaVuSans-54" transform="translate(1936.568359 0)"/>
     <use xlink:href="#DejaVuSans-30" transform="translate(1997.652344 0)"/>
     <use xlink:href="#DejaVuSans-3a" transform="translate(2061.275391 0)"/>
     <use xlink:href="#DejaVuSans-20" transform="translate(2094.966797 0)"/>
     <use xlink:href="#DejaVuSans-35" transform="translate(2126.753906 0)"/>
     <use xlink:href="#DejaVuSans-30" transform="translate(2190.376953 0)"/>
     <use xlink:href="#DejaVuSans-2e" transform="translate(2254 0)"/>
     <use xlink:href="#DejaVuSans-30" transform="translate(2285.787109 0)"/>
    </g>
   </g>
  </g>
 </g>
 <defs>
  <clipPath id="pda75ad866c">
   <rect x="50.87" y="43.44" width="793.996" height="346.6"/>
  </clipPath>
 </defs>
</svg>
