<?xml version="1.0" encoding="utf-8" standalone="no"?>
<!DOCTYPE svg PUBLIC "-//W3C//DTD SVG 1.1//EN"
  "http://www.w3.org/Graphics/SVG/1.1/DTD/svg11.dtd">
<svg xmlns:xlink="http://www.w3.org/1999/xlink" width="864pt" height="432pt" viewBox="0 0 864 432" xmlns="http://www.w3.org/2000/svg" version="1.1">
 <metadata>
  <rdf:RDF xmlns:dc="http://purl.org/dc/elements/1.1/" xmlns:cc="http://creativecommons.org/ns#" xmlns:rdf="http://www.w3.org/1999/02/22-rdf-syntax-ns#">
   <cc:Work>
    <dc:type rdf:resource="http://purl.org/dc/dcmitype/StillImage"/>
    <dc:date>2025-05-24T02:20:37.285765</dc:date>
    <dc:format>image/svg+xml</dc:format>
    <dc:creator>
     <cc:Agent>
      <dc:title>Matplotlib v3.10.3, https://matplotlib.org/</dc:title>
     </cc:Agent>
    </dc:creator>
   </cc:Work>
  </rdf:RDF>
 </metadata>
 <defs>
  <style type="text/css">*{stroke-linejoin: round; stroke-linecap: butt}</style>
 </defs>
 <g id="figure_1">
  <g id="patch_1">
   <path d="M 0 432 
L 864 432 
L 864 0 
L 0 0 
z
" style="fill: #ffffff"/>
  </g>
  <g id="axes_1">
   <g id="patch_2">
    <path d="M 50.87 390.04 
L 844.866 390.04 
L 844.866 43.44 
L 50.87 43.44 
z
" style="fill: #ffffff"/>
   </g>
   <g id="FillBetweenPolyCollection_1">
    <defs>
     <path id="m60a5b4c72f" d="M 52.193327 -317.112827 
L 52.193327 -58.289806 
L 54.83998 -57.714545 
L 57.486633 -73.640175 
L 60.133287 -88.746212 
L 62.77994 -102.768323 
L 65.426593 -115.08054 
L 68.073247 -125.522581 
L 70.7199 -134.649204 
L 73.366553 -142.06079 
L 76.013207 -149.584513 
L 78.65986 -156.342789 
L 81.306513 -161.919226 
L 83.953167 -167.523865 
L 86.59982 -172.505272 
L 89.246473 -176.984543 
L 91.893127 -181.630016 
L 94.53978 -185.536409 
L 97.186433 -189.458861 
L 99.833087 -192.80312 
L 102.47974 -195.993914 
L 105.126393 -199.1889 
L 107.773047 -201.952629 
L 110.4197 -204.300359 
L 113.066353 -206.492196 
L 115.713007 -209.072106 
L 118.35966 -210.954331 
L 121.006313 -212.977147 
L 123.652967 -214.811883 
L 126.29962 -216.512602 
L 128.946273 -218.442821 
L 131.592927 -220.144297 
L 134.23958 -221.792075 
L 136.886233 -223.211819 
L 139.532887 -224.410288 
L 142.17954 -225.870626 
L 144.826193 -227.416048 
L 147.472847 -228.590875 
L 150.1195 -229.989864 
L 152.766153 -230.997068 
L 155.412807 -232.416767 
L 158.05946 -233.624193 
L 160.706113 -234.838424 
L 163.352767 -236.038748 
L 165.99942 -237.159694 
L 168.646073 -238.144837 
L 171.292727 -239.283973 
L 173.93938 -239.998839 
L 176.586033 -241.120449 
L 179.232687 -241.847274 
L 181.87934 -242.846208 
L 184.525993 -243.457573 
L 187.172647 -244.303775 
L 189.8193 -245.155566 
L 192.465953 -245.876962 
L 195.112607 -246.783482 
L 197.75926 -247.527924 
L 200.405913 -248.279787 
L 203.052567 -249.026268 
L 205.69922 -249.548724 
L 208.345873 -250.121487 
L 210.992527 -250.683484 
L 213.63918 -251.326462 
L 216.285833 -252.108772 
L 218.932487 -252.69945 
L 221.57914 -253.391201 
L 224.225793 -254.161346 
L 226.872447 -254.880955 
L 229.5191 -255.419974 
L 232.165753 -256.09003 
L 234.812407 -256.515537 
L 237.45906 -257.03506 
L 240.105713 -257.429732 
L 242.752367 -257.848549 
L 245.39902 -258.300377 
L 248.045673 -258.728495 
L 250.692327 -259.187288 
L 253.33898 -259.551788 
L 255.985633 -260.02034 
L 258.632287 -260.444357 
L 261.27894 -260.807552 
L 263.925593 -261.242978 
L 266.572247 -261.643559 
L 269.2189 -261.960158 
L 271.865553 -262.347681 
L 274.512207 -262.690281 
L 277.15886 -263.040349 
L 279.805513 -263.381964 
L 282.452167 -263.781767 
L 285.09882 -264.083978 
L 287.745473 -264.520252 
L 290.392127 -264.901086 
L 293.03878 -265.066853 
L 295.685433 -265.467298 
L 298.332087 -265.775786 
L 300.97874 -266.163196 
L 303.625393 -266.458031 
L 306.272047 -266.73589 
L 308.9187 -266.99595 
L 311.565353 -267.270007 
L 314.212007 -267.475979 
L 316.85866 -267.787308 
L 319.505313 -267.989592 
L 322.151967 -268.230913 
L 324.79862 -268.498624 
L 327.445273 -268.662925 
L 330.091927 -268.984472 
L 332.73858 -269.215094 
L 335.385233 -269.42716 
L 338.031887 -269.745224 
L 340.67854 -270.029636 
L 343.325193 -270.153228 
L 345.971847 -270.46946 
L 348.6185 -270.875838 
L 351.265153 -271.152391 
L 353.911807 -271.351079 
L 356.55846 -271.608527 
L 359.205113 -271.893419 
L 361.851767 -272.213569 
L 364.49842 -272.474178 
L 367.145073 -272.762736 
L 369.791727 -272.99022 
L 372.43838 -273.085909 
L 375.085033 -273.351101 
L 377.731687 -273.632007 
L 380.37834 -273.82861 
L 383.024993 -274.015911 
L 385.671647 -274.144704 
L 388.3183 -274.371615 
L 390.964953 -274.584986 
L 393.611607 -274.768531 
L 396.25826 -274.92273 
L 398.904913 -275.074706 
L 401.551567 -275.341272 
L 404.19822 -275.590198 
L 406.844873 -275.819376 
L 409.491527 -275.994239 
L 412.13818 -276.131989 
L 414.784833 -276.340412 
L 417.431487 -276.49752 
L 420.07814 -276.690892 
L 422.724793 -276.939727 
L 425.371447 -277.128151 
L 428.0181 -277.300791 
L 430.664753 -277.504999 
L 433.311407 -277.677044 
L 435.95806 -277.772413 
L 438.604713 -277.907253 
L 441.251367 -278.026997 
L 443.89802 -278.235924 
L 446.544673 -278.370651 
L 449.191327 -278.477932 
L 451.83798 -278.641775 
L 454.484633 -278.733479 
L 457.131287 -278.863211 
L 459.77794 -279.015324 
L 462.424593 -279.179717 
L 465.071247 -279.393341 
L 467.7179 -279.492742 
L 470.364553 -279.689047 
L 473.011207 -279.839992 
L 475.65786 -279.979163 
L 478.304513 -280.07137 
L 480.951167 -280.194894 
L 483.59782 -280.402676 
L 486.244473 -280.548536 
L 488.891127 -280.733157 
L 491.53778 -280.867425 
L 494.184433 -281.069617 
L 496.831087 -281.132501 
L 499.47774 -281.171675 
L 502.124393 -281.314832 
L 504.771047 -281.482638 
L 507.4177 -281.638669 
L 510.064353 -281.693582 
L 512.711007 -281.826498 
L 515.35766 -281.940194 
L 518.004313 -281.989608 
L 520.650967 -282.116362 
L 523.29762 -282.300433 
L 525.944273 -282.501686 
L 528.590927 -282.570664 
L 531.23758 -282.653456 
L 533.884233 -282.725642 
L 536.530887 -282.819293 
L 539.17754 -282.886759 
L 541.824193 -282.939013 
L 544.470847 -283.075916 
L 547.1175 -283.172339 
L 549.764153 -283.300559 
L 552.410807 -283.451939 
L 555.05746 -283.555326 
L 557.704113 -283.74918 
L 560.350767 -283.892611 
L 562.99742 -284.038105 
L 565.644073 -284.137918 
L 568.290727 -284.253057 
L 570.93738 -284.321142 
L 573.584033 -284.295621 
L 576.230687 -284.40989 
L 578.87734 -284.550481 
L 581.523993 -284.686971 
L 584.170647 -284.789235 
L 586.8173 -284.843048 
L 589.463953 -284.831044 
L 592.110607 -284.999033 
L 594.75726 -285.136783 
L 597.403913 -285.313272 
L 600.050567 -285.447173 
L 602.69722 -285.570239 
L 605.343873 -285.599173 
L 607.990527 -285.671725 
L 610.63718 -285.665516 
L 613.283833 -285.74982 
L 615.930487 -285.77486 
L 618.57714 -285.867617 
L 621.223793 -285.915634 
L 623.870447 -285.969492 
L 626.5171 -286.065892 
L 629.163753 -286.093382 
L 631.810407 -286.158397 
L 634.45706 -286.160528 
L 637.103713 -286.277752 
L 639.750367 -286.301141 
L 642.39702 -286.384117 
L 645.043673 -286.440793 
L 647.690327 -286.496163 
L 650.33698 -286.546768 
L 652.983633 -286.628805 
L 655.630287 -286.713269 
L 658.27694 -286.738148 
L 660.923593 -286.806049 
L 663.570247 -286.893583 
L 666.2169 -287.015893 
L 668.863553 -287.075753 
L 671.510207 -287.105031 
L 674.15686 -287.181935 
L 676.803513 -287.282825 
L 679.450167 -287.328941 
L 682.09682 -287.394322 
L 684.743473 -287.532874 
L 687.390127 -287.608816 
L 690.03678 -287.645401 
L 692.683433 -287.763335 
L 695.330087 -287.828167 
L 697.97674 -287.916915 
L 700.623393 -287.975997 
L 703.270047 -288.039477 
L 705.9167 -288.111823 
L 708.563353 -288.199426 
L 711.210007 -288.286502 
L 713.85666 -288.380382 
L 716.503313 -288.39864 
L 719.149967 -288.413141 
L 721.79662 -288.528807 
L 724.443273 -288.598587 
L 727.089927 -288.67272 
L 729.73658 -288.737597 
L 732.383233 -288.825704 
L 735.029887 -288.893651 
L 737.67654 -289.007462 
L 740.323193 -289.053783 
L 742.969847 -289.09259 
L 745.6165 -289.15252 
L 748.263153 -289.165073 
L 750.909807 -289.155131 
L 753.55646 -289.215518 
L 756.203113 -289.270499 
L 758.849767 -289.329695 
L 761.49642 -289.321403 
L 764.143073 -289.405477 
L 766.789727 -289.421605 
L 769.43638 -289.422751 
L 772.083033 -289.477732 
L 774.729687 -289.501465 
L 777.37634 -289.607212 
L 780.022993 -289.699213 
L 782.669647 -289.737516 
L 785.3163 -289.811374 
L 787.962953 -289.828006 
L 790.609607 -289.907636 
L 793.25626 -289.930087 
L 795.902913 -290.038399 
L 798.549567 -290.070517 
L 801.19622 -290.076061 
L 803.842873 -290.120504 
L 806.489527 -290.14804 
L 809.13618 -290.198027 
L 811.782833 -290.22034 
L 814.429487 -290.2416 
L 817.07614 -290.252916 
L 819.722793 -290.283797 
L 822.369447 -290.358709 
L 825.0161 -290.434537 
L 827.662753 -290.450527 
L 830.309407 -290.514992 
L 832.95606 -290.556869 
L 835.602713 -290.569423 
L 838.249367 -290.589079 
L 840.89602 -290.590041 
L 843.542673 -290.617623 
L 843.542673 -372.805455 
L 843.542673 -372.805455 
L 840.89602 -372.780622 
L 838.249367 -372.7343 
L 835.602713 -372.698517 
L 832.95606 -372.678265 
L 830.309407 -372.667727 
L 827.662753 -372.663283 
L 825.0161 -372.645735 
L 822.369447 -372.665024 
L 819.722793 -372.68019 
L 817.07614 -372.653799 
L 814.429487 -372.605278 
L 811.782833 -372.578887 
L 809.13618 -372.514789 
L 806.489527 -372.509795 
L 803.842873 -372.468697 
L 801.19622 -372.474103 
L 798.549567 -372.436579 
L 795.902913 -372.419855 
L 793.25626 -372.443405 
L 790.609607 -372.413624 
L 787.962953 -372.423887 
L 785.3163 -372.357498 
L 782.669647 -372.361346 
L 780.022993 -372.36153 
L 777.37634 -372.396901 
L 774.729687 -372.410646 
L 772.083033 -372.36437 
L 769.43638 -372.335872 
L 766.789727 -372.279746 
L 764.143073 -372.23402 
L 761.49642 -372.229667 
L 758.849767 -372.1707 
L 756.203113 -372.124883 
L 753.55646 -372.116452 
L 750.909807 -372.125799 
L 748.263153 -372.056752 
L 745.6165 -372.016983 
L 742.969847 -372.011026 
L 740.323193 -371.974968 
L 737.67654 -371.944958 
L 735.029887 -371.936619 
L 732.383233 -371.930983 
L 729.73658 -371.934695 
L 727.089927 -371.922232 
L 724.443273 -371.934878 
L 721.79662 -371.934374 
L 719.149967 -371.98042 
L 716.503313 -371.931946 
L 713.85666 -371.846771 
L 711.210007 -371.850757 
L 708.563353 -371.857446 
L 705.9167 -371.850299 
L 703.270047 -371.860791 
L 700.623393 -371.868443 
L 697.97674 -371.816761 
L 695.330087 -371.785376 
L 692.683433 -371.772409 
L 690.03678 -371.776716 
L 687.390127 -371.753578 
L 684.743473 -371.72815 
L 682.09682 -371.7265 
L 679.450167 -371.70043 
L 676.803513 -371.665884 
L 674.15686 -371.669091 
L 671.510207 -371.667029 
L 668.863553 -371.612827 
L 666.2169 -371.584558 
L 663.570247 -371.596791 
L 660.923593 -371.576586 
L 658.27694 -371.545063 
L 655.630287 -371.481789 
L 652.983633 -371.463875 
L 650.33698 -371.466899 
L 647.690327 -371.440187 
L 645.043673 -371.425205 
L 642.39702 -371.407794 
L 639.750367 -371.380212 
L 637.103713 -371.316893 
L 634.45706 -371.328942 
L 631.810407 -371.280193 
L 629.163753 -371.244409 
L 626.5171 -371.17495 
L 623.870447 -371.147002 
L 621.223793 -371.105353 
L 618.57714 -371.066134 
L 615.930487 -371.090738 
L 613.283833 -371.02586 
L 610.63718 -371.002539 
L 607.990527 -370.974591 
L 605.343873 -370.941098 
L 602.69722 -370.872464 
L 600.050567 -370.883551 
L 597.403913 -370.860368 
L 594.75726 -370.92607 
L 592.110607 -370.940686 
L 589.463953 -370.953469 
L 586.8173 -370.842636 
L 584.170647 -370.795857 
L 581.523993 -370.774414 
L 578.87734 -370.795811 
L 576.230687 -370.809419 
L 573.584033 -370.816475 
L 570.93738 -370.705138 
L 568.290727 -370.665048 
L 565.644073 -370.672012 
L 562.99742 -370.632105 
L 560.350767 -370.662116 
L 557.704113 -370.682321 
L 555.05746 -370.734324 
L 552.410807 -370.718609 
L 549.764153 -370.750406 
L 547.1175 -370.785227 
L 544.470847 -370.74949 
L 541.824193 -370.775926 
L 539.17754 -370.691714 
L 536.530887 -370.632243 
L 533.884233 -370.582943 
L 531.23758 -370.518891 
L 528.590927 -370.483382 
L 525.944273 -370.442834 
L 523.29762 -370.462947 
L 520.650967 -370.460336 
L 518.004313 -370.425011 
L 515.35766 -370.333742 
L 512.711007 -370.273722 
L 510.064353 -370.266986 
L 507.4177 -370.184057 
L 504.771047 -370.176909 
L 502.124393 -370.17274 
L 499.47774 -370.165867 
L 496.831087 -370.092605 
L 494.184433 -369.987775 
L 491.53778 -370.025895 
L 488.891127 -369.988233 
L 486.244473 -370.052882 
L 483.59782 -370.068551 
L 480.951167 -370.080693 
L 478.304513 -370.024429 
L 475.65786 -369.953412 
L 473.011207 -369.92638 
L 470.364553 -369.898569 
L 467.7179 -369.893529 
L 465.071247 -369.8429 
L 462.424593 -369.815272 
L 459.77794 -369.812432 
L 457.131287 -369.782284 
L 454.484633 -369.738299 
L 451.83798 -369.677041 
L 449.191327 -369.670169 
L 446.544673 -369.593379 
L 443.89802 -369.572211 
L 441.251367 -369.567721 
L 438.604713 -369.507105 
L 435.95806 -369.449924 
L 433.311407 -369.363009 
L 430.664753 -369.310914 
L 428.0181 -369.302072 
L 425.371447 -369.282004 
L 422.724793 -369.241455 
L 420.07814 -369.223082 
L 417.431487 -369.23417 
L 414.784833 -369.176211 
L 412.13818 -369.169201 
L 409.491527 -369.125766 
L 406.844873 -369.071839 
L 404.19822 -369.059102 
L 401.551567 -369.081232 
L 398.904913 -369.092594 
L 396.25826 -369.038667 
L 393.611607 -368.957845 
L 390.964953 -368.933058 
L 388.3183 -368.895488 
L 385.671647 -368.886049 
L 383.024993 -368.786763 
L 380.37834 -368.779524 
L 377.731687 -368.732011 
L 375.085033 -368.721061 
L 372.43838 -368.68624 
L 369.791727 -368.634649 
L 367.145073 -368.581364 
L 364.49842 -368.576919 
L 361.851767 -368.537883 
L 359.205113 -368.581272 
L 356.55846 -368.517586 
L 353.911807 -368.527895 
L 351.265153 -368.43429 
L 348.6185 -368.451105 
L 345.971847 -368.52652 
L 343.325193 -368.549429 
L 340.67854 -368.440338 
L 338.031887 -368.400843 
L 335.385233 -368.401393 
L 332.73858 -368.348061 
L 330.091927 -368.307375 
L 327.445273 -368.279427 
L 324.79862 -368.170656 
L 322.151967 -368.128 
L 319.505313 -368.002873 
L 316.85866 -367.902945 
L 314.212007 -367.862947 
L 311.565353 -367.747487 
L 308.9187 -367.669551 
L 306.272047 -367.59157 
L 303.625393 -367.567287 
L 300.97874 -367.521836 
L 298.332087 -367.542591 
L 295.685433 -367.428185 
L 293.03878 -367.383284 
L 290.392127 -367.278087 
L 287.745473 -367.216784 
L 285.09882 -367.223839 
L 282.452167 -367.070809 
L 279.805513 -367.087212 
L 277.15886 -367.006482 
L 274.512207 -366.941558 
L 271.865553 -366.866005 
L 269.2189 -366.806443 
L 266.572247 -366.678612 
L 263.925593 -366.622669 
L 261.27894 -366.496305 
L 258.632287 -366.430007 
L 255.985633 -366.403433 
L 253.33898 -366.326826 
L 250.692327 -366.144656 
L 248.045673 -366.082207 
L 245.39902 -365.927207 
L 242.752367 -365.809135 
L 240.105713 -365.716996 
L 237.45906 -365.544539 
L 234.812407 -365.513613 
L 232.165753 -365.415059 
L 229.5191 -365.477646 
L 226.872447 -365.418404 
L 224.225793 -365.439847 
L 221.57914 -365.488734 
L 218.932487 -365.466283 
L 216.285833 -365.359895 
L 213.63918 -365.306839 
L 210.992527 -365.27834 
L 208.345873 -365.199992 
L 205.69922 -365.006322 
L 203.052567 -364.796983 
L 200.405913 -364.74782 
L 197.75926 -364.598227 
L 195.112607 -364.406022 
L 192.465953 -364.377753 
L 189.8193 -364.247128 
L 187.172647 -364.159387 
L 184.525993 -364.074946 
L 181.87934 -363.717203 
L 179.232687 -363.674593 
L 176.586033 -363.476754 
L 173.93938 -363.383836 
L 171.292727 -363.057616 
L 168.646073 -363.021374 
L 165.99942 -362.820282 
L 163.352767 -362.63857 
L 160.706113 -362.456217 
L 158.05946 -362.319726 
L 155.412807 -362.074924 
L 152.766153 -362.001799 
L 150.1195 -361.515722 
L 147.472847 -361.353529 
L 144.826193 -361.156239 
L 142.17954 -361.07363 
L 139.532887 -360.813296 
L 136.886233 -360.462655 
L 134.23958 -360.06528 
L 131.592927 -359.728156 
L 128.946273 -359.399187 
L 126.29962 -359.178622 
L 123.652967 -358.852356 
L 121.006313 -358.329213 
L 118.35966 -357.952731 
L 115.713007 -357.387023 
L 113.066353 -357.177271 
L 110.4197 -356.702145 
L 107.773047 -356.130481 
L 105.126393 -355.792715 
L 102.47974 -355.271496 
L 99.833087 -354.619422 
L 97.186433 -353.668024 
L 94.53978 -353.128432 
L 91.893127 -352.474343 
L 89.246473 -351.685 
L 86.59982 -350.856713 
L 83.953167 -349.884971 
L 81.306513 -348.80785 
L 78.65986 -347.099318 
L 76.013207 -345.709493 
L 73.366553 -344.061532 
L 70.7199 -341.985545 
L 68.073247 -339.652522 
L 65.426593 -337.250681 
L 62.77994 -334.344391 
L 60.133287 -330.347921 
L 57.486633 -323.497988 
L 54.83998 -316.039004 
L 52.193327 -317.112827 
z
" style="stroke: #0000ff; stroke-opacity: 0.2"/>
    </defs>
    <g clip-path="url(#pe60fcc44fe)">
     <use xlink:href="#m60a5b4c72f" x="0" y="432" style="fill: #0000ff; fill-opacity: 0.2; stroke: #0000ff; stroke-opacity: 0.2"/>
    </g>
   </g>
   <g id="matplotlib.axis_1">
    <g id="xtick_1">
     <g id="line2d_1">
      <defs>
       <path id="meb2e029416" d="M 0 0 
L 0 3.5 
" style="stroke: #000000; stroke-width: 0.8"/>
      </defs>
      <g>
       <use xlink:href="#meb2e029416" x="181.87934" y="390.04" style="stroke: #000000; stroke-width: 0.8"/>
      </g>
     </g>
     <g id="text_1">
      <!-- 50 -->
      <g transform="translate(175.51684 404.638438) scale(0.1 -0.1)">
       <defs>
        <path id="DejaVuSans-35" d="M 691 4666 
L 3169 4666 
L 3169 4134 
L 1269 4134 
L 1269 2991 
Q 1406 3038 1543 3061 
Q 1681 3084 1819 3084 
Q 2600 3084 3056 2656 
Q 3513 2228 3513 1497 
Q 3513 744 3044 326 
Q 2575 -91 1722 -91 
Q 1428 -91 1123 -41 
Q 819 9 494 109 
L 494 744 
Q 775 591 1075 516 
Q 1375 441 1709 441 
Q 2250 441 2565 725 
Q 2881 1009 2881 1497 
Q 2881 1984 2565 2268 
Q 2250 2553 1709 2553 
Q 1456 2553 1204 2497 
Q 953 2441 691 2322 
L 691 4666 
z
" transform="scale(0.015625)"/>
        <path id="DejaVuSans-30" d="M 2034 4250 
Q 1547 4250 1301 3770 
Q 1056 3291 1056 2328 
Q 1056 1369 1301 889 
Q 1547 409 2034 409 
Q 2525 409 2770 889 
Q 3016 1369 3016 2328 
Q 3016 3291 2770 3770 
Q 2525 4250 2034 4250 
z
M 2034 4750 
Q 2819 4750 3233 4129 
Q 3647 3509 3647 2328 
Q 3647 1150 3233 529 
Q 2819 -91 2034 -91 
Q 1250 -91 836 529 
Q 422 1150 422 2328 
Q 422 3509 836 4129 
Q 1250 4750 2034 4750 
z
" transform="scale(0.015625)"/>
       </defs>
       <use xlink:href="#DejaVuSans-35"/>
       <use xlink:href="#DejaVuSans-30" transform="translate(63.623047 0)"/>
      </g>
     </g>
    </g>
    <g id="xtick_2">
     <g id="line2d_2">
      <g>
       <use xlink:href="#meb2e029416" x="314.212007" y="390.04" style="stroke: #000000; stroke-width: 0.8"/>
      </g>
     </g>
     <g id="text_2">
      <!-- 100 -->
      <g transform="translate(304.668257 404.638438) scale(0.1 -0.1)">
       <defs>
        <path id="DejaVuSans-31" d="M 794 531 
L 1825 531 
L 1825 4091 
L 703 3866 
L 703 4441 
L 1819 4666 
L 2450 4666 
L 2450 531 
L 3481 531 
L 3481 0 
L 794 0 
L 794 531 
z
" transform="scale(0.015625)"/>
       </defs>
       <use xlink:href="#DejaVuSans-31"/>
       <use xlink:href="#DejaVuSans-30" transform="translate(63.623047 0)"/>
       <use xlink:href="#DejaVuSans-30" transform="translate(127.246094 0)"/>
      </g>
     </g>
    </g>
    <g id="xtick_3">
     <g id="line2d_3">
      <g>
       <use xlink:href="#meb2e029416" x="446.544673" y="390.04" style="stroke: #000000; stroke-width: 0.8"/>
      </g>
     </g>
     <g id="text_3">
      <!-- 150 -->
      <g transform="translate(437.000923 404.638438) scale(0.1 -0.1)">
       <use xlink:href="#DejaVuSans-31"/>
       <use xlink:href="#DejaVuSans-35" transform="translate(63.623047 0)"/>
       <use xlink:href="#DejaVuSans-30" transform="translate(127.246094 0)"/>
      </g>
     </g>
    </g>
    <g id="xtick_4">
     <g id="line2d_4">
      <g>
       <use xlink:href="#meb2e029416" x="578.87734" y="390.04" style="stroke: #000000; stroke-width: 0.8"/>
      </g>
     </g>
     <g id="text_4">
      <!-- 200 -->
      <g transform="translate(569.33359 404.638438) scale(0.1 -0.1)">
       <defs>
        <path id="DejaVuSans-32" d="M 1228 531 
L 3431 531 
L 3431 0 
L 469 0 
L 469 531 
Q 828 903 1448 1529 
Q 2069 2156 2228 2338 
Q 2531 2678 2651 2914 
Q 2772 3150 2772 3378 
Q 2772 3750 2511 3984 
Q 2250 4219 1831 4219 
Q 1534 4219 1204 4116 
Q 875 4013 500 3803 
L 500 4441 
Q 881 4594 1212 4672 
Q 1544 4750 1819 4750 
Q 2544 4750 2975 4387 
Q 3406 4025 3406 3419 
Q 3406 3131 3298 2873 
Q 3191 2616 2906 2266 
Q 2828 2175 2409 1742 
Q 1991 1309 1228 531 
z
" transform="scale(0.015625)"/>
       </defs>
       <use xlink:href="#DejaVuSans-32"/>
       <use xlink:href="#DejaVuSans-30" transform="translate(63.623047 0)"/>
       <use xlink:href="#DejaVuSans-30" transform="translate(127.246094 0)"/>
      </g>
     </g>
    </g>
    <g id="xtick_5">
     <g id="line2d_5">
      <g>
       <use xlink:href="#meb2e029416" x="711.210007" y="390.04" style="stroke: #000000; stroke-width: 0.8"/>
      </g>
     </g>
     <g id="text_5">
      <!-- 250 -->
      <g transform="translate(701.666257 404.638438) scale(0.1 -0.1)">
       <use xlink:href="#DejaVuSans-32"/>
       <use xlink:href="#DejaVuSans-35" transform="translate(63.623047 0)"/>
       <use xlink:href="#DejaVuSans-30" transform="translate(127.246094 0)"/>
      </g>
     </g>
    </g>
    <g id="xtick_6">
     <g id="line2d_6">
      <g>
       <use xlink:href="#meb2e029416" x="843.542673" y="390.04" style="stroke: #000000; stroke-width: 0.8"/>
      </g>
     </g>
     <g id="text_6">
      <!-- 300 -->
      <g transform="translate(833.998923 404.638438) scale(0.1 -0.1)">
       <defs>
        <path id="DejaVuSans-33" d="M 2597 2516 
Q 3050 2419 3304 2112 
Q 3559 1806 3559 1356 
Q 3559 666 3084 287 
Q 2609 -91 1734 -91 
Q 1441 -91 1130 -33 
Q 819 25 488 141 
L 488 750 
Q 750 597 1062 519 
Q 1375 441 1716 441 
Q 2309 441 2620 675 
Q 2931 909 2931 1356 
Q 2931 1769 2642 2001 
Q 2353 2234 1838 2234 
L 1294 2234 
L 1294 2753 
L 1863 2753 
Q 2328 2753 2575 2939 
Q 2822 3125 2822 3475 
Q 2822 3834 2567 4026 
Q 2313 4219 1838 4219 
Q 1578 4219 1281 4162 
Q 984 4106 628 3988 
L 628 4550 
Q 988 4650 1302 4700 
Q 1616 4750 1894 4750 
Q 2613 4750 3031 4423 
Q 3450 4097 3450 3541 
Q 3450 3153 3228 2886 
Q 3006 2619 2597 2516 
z
" transform="scale(0.015625)"/>
       </defs>
       <use xlink:href="#DejaVuSans-33"/>
       <use xlink:href="#DejaVuSans-30" transform="translate(63.623047 0)"/>
       <use xlink:href="#DejaVuSans-30" transform="translate(127.246094 0)"/>
      </g>
     </g>
    </g>
    <g id="text_7">
     <!-- Step -->
     <g transform="translate(436.482844 418.316562) scale(0.1 -0.1)">
      <defs>
       <path id="DejaVuSans-53" d="M 3425 4513 
L 3425 3897 
Q 3066 4069 2747 4153 
Q 2428 4238 2131 4238 
Q 1616 4238 1336 4038 
Q 1056 3838 1056 3469 
Q 1056 3159 1242 3001 
Q 1428 2844 1947 2747 
L 2328 2669 
Q 3034 2534 3370 2195 
Q 3706 1856 3706 1288 
Q 3706 609 3251 259 
Q 2797 -91 1919 -91 
Q 1588 -91 1214 -16 
Q 841 59 441 206 
L 441 856 
Q 825 641 1194 531 
Q 1563 422 1919 422 
Q 2459 422 2753 634 
Q 3047 847 3047 1241 
Q 3047 1584 2836 1778 
Q 2625 1972 2144 2069 
L 1759 2144 
Q 1053 2284 737 2584 
Q 422 2884 422 3419 
Q 422 4038 858 4394 
Q 1294 4750 2059 4750 
Q 2388 4750 2728 4690 
Q 3069 4631 3425 4513 
z
" transform="scale(0.015625)"/>
       <path id="DejaVuSans-74" d="M 1172 4494 
L 1172 3500 
L 2356 3500 
L 2356 3053 
L 1172 3053 
L 1172 1153 
Q 1172 725 1289 603 
Q 1406 481 1766 481 
L 2356 481 
L 2356 0 
L 1766 0 
Q 1100 0 847 248 
Q 594 497 594 1153 
L 594 3053 
L 172 3053 
L 172 3500 
L 594 3500 
L 594 4494 
L 1172 4494 
z
" transform="scale(0.015625)"/>
       <path id="DejaVuSans-65" d="M 3597 1894 
L 3597 1613 
L 953 1613 
Q 991 1019 1311 708 
Q 1631 397 2203 397 
Q 2534 397 2845 478 
Q 3156 559 3463 722 
L 3463 178 
Q 3153 47 2828 -22 
Q 2503 -91 2169 -91 
Q 1331 -91 842 396 
Q 353 884 353 1716 
Q 353 2575 817 3079 
Q 1281 3584 2069 3584 
Q 2775 3584 3186 3129 
Q 3597 2675 3597 1894 
z
M 3022 2063 
Q 3016 2534 2758 2815 
Q 2500 3097 2075 3097 
Q 1594 3097 1305 2825 
Q 1016 2553 972 2059 
L 3022 2063 
z
" transform="scale(0.015625)"/>
       <path id="DejaVuSans-70" d="M 1159 525 
L 1159 -1331 
L 581 -1331 
L 581 3500 
L 1159 3500 
L 1159 2969 
Q 1341 3281 1617 3432 
Q 1894 3584 2278 3584 
Q 2916 3584 3314 3078 
Q 3713 2572 3713 1747 
Q 3713 922 3314 415 
Q 2916 -91 2278 -91 
Q 1894 -91 1617 61 
Q 1341 213 1159 525 
z
M 3116 1747 
Q 3116 2381 2855 2742 
Q 2594 3103 2138 3103 
Q 1681 3103 1420 2742 
Q 1159 2381 1159 1747 
Q 1159 1113 1420 752 
Q 1681 391 2138 391 
Q 2594 391 2855 752 
Q 3116 1113 3116 1747 
z
" transform="scale(0.015625)"/>
      </defs>
      <use xlink:href="#DejaVuSans-53"/>
      <use xlink:href="#DejaVuSans-74" transform="translate(63.476562 0)"/>
      <use xlink:href="#DejaVuSans-65" transform="translate(102.685547 0)"/>
      <use xlink:href="#DejaVuSans-70" transform="translate(164.208984 0)"/>
     </g>
    </g>
   </g>
   <g id="matplotlib.axis_2">
    <g id="ytick_1">
     <g id="line2d_7">
      <defs>
       <path id="m64d1e0ddc5" d="M 0 0 
L -3.5 0 
" style="stroke: #000000; stroke-width: 0.8"/>
      </defs>
      <g>
       <use xlink:href="#m64d1e0ddc5" x="50.87" y="377.694408" style="stroke: #000000; stroke-width: 0.8"/>
      </g>
     </g>
     <g id="text_8">
      <!-- 200 -->
      <g transform="translate(24.7825 381.493627) scale(0.1 -0.1)">
       <use xlink:href="#DejaVuSans-32"/>
       <use xlink:href="#DejaVuSans-30" transform="translate(63.623047 0)"/>
       <use xlink:href="#DejaVuSans-30" transform="translate(127.246094 0)"/>
      </g>
     </g>
    </g>
    <g id="ytick_2">
     <g id="line2d_8">
      <g>
       <use xlink:href="#m64d1e0ddc5" x="50.87" y="302.627153" style="stroke: #000000; stroke-width: 0.8"/>
      </g>
     </g>
     <g id="text_9">
      <!-- 300 -->
      <g transform="translate(24.7825 306.426371) scale(0.1 -0.1)">
       <use xlink:href="#DejaVuSans-33"/>
       <use xlink:href="#DejaVuSans-30" transform="translate(63.623047 0)"/>
       <use xlink:href="#DejaVuSans-30" transform="translate(127.246094 0)"/>
      </g>
     </g>
    </g>
    <g id="ytick_3">
     <g id="line2d_9">
      <g>
       <use xlink:href="#m64d1e0ddc5" x="50.87" y="227.559897" style="stroke: #000000; stroke-width: 0.8"/>
      </g>
     </g>
     <g id="text_10">
      <!-- 400 -->
      <g transform="translate(24.7825 231.359116) scale(0.1 -0.1)">
       <defs>
        <path id="DejaVuSans-34" d="M 2419 4116 
L 825 1625 
L 2419 1625 
L 2419 4116 
z
M 2253 4666 
L 3047 4666 
L 3047 1625 
L 3713 1625 
L 3713 1100 
L 3047 1100 
L 3047 0 
L 2419 0 
L 2419 1100 
L 313 1100 
L 313 1709 
L 2253 4666 
z
" transform="scale(0.015625)"/>
       </defs>
       <use xlink:href="#DejaVuSans-34"/>
       <use xlink:href="#DejaVuSans-30" transform="translate(63.623047 0)"/>
       <use xlink:href="#DejaVuSans-30" transform="translate(127.246094 0)"/>
      </g>
     </g>
    </g>
    <g id="ytick_4">
     <g id="line2d_10">
      <g>
       <use xlink:href="#m64d1e0ddc5" x="50.87" y="152.492642" style="stroke: #000000; stroke-width: 0.8"/>
      </g>
     </g>
     <g id="text_11">
      <!-- 500 -->
      <g transform="translate(24.7825 156.291861) scale(0.1 -0.1)">
       <use xlink:href="#DejaVuSans-35"/>
       <use xlink:href="#DejaVuSans-30" transform="translate(63.623047 0)"/>
       <use xlink:href="#DejaVuSans-30" transform="translate(127.246094 0)"/>
      </g>
     </g>
    </g>
    <g id="ytick_5">
     <g id="line2d_11">
      <g>
       <use xlink:href="#m64d1e0ddc5" x="50.87" y="77.425387" style="stroke: #000000; stroke-width: 0.8"/>
      </g>
     </g>
     <g id="text_12">
      <!-- 600 -->
      <g transform="translate(24.7825 81.224606) scale(0.1 -0.1)">
       <defs>
        <path id="DejaVuSans-36" d="M 2113 2584 
Q 1688 2584 1439 2293 
Q 1191 2003 1191 1497 
Q 1191 994 1439 701 
Q 1688 409 2113 409 
Q 2538 409 2786 701 
Q 3034 994 3034 1497 
Q 3034 2003 2786 2293 
Q 2538 2584 2113 2584 
z
M 3366 4563 
L 3366 3988 
Q 3128 4100 2886 4159 
Q 2644 4219 2406 4219 
Q 1781 4219 1451 3797 
Q 1122 3375 1075 2522 
Q 1259 2794 1537 2939 
Q 1816 3084 2150 3084 
Q 2853 3084 3261 2657 
Q 3669 2231 3669 1497 
Q 3669 778 3244 343 
Q 2819 -91 2113 -91 
Q 1303 -91 875 529 
Q 447 1150 447 2328 
Q 447 3434 972 4092 
Q 1497 4750 2381 4750 
Q 2619 4750 2861 4703 
Q 3103 4656 3366 4563 
z
" transform="scale(0.015625)"/>
       </defs>
       <use xlink:href="#DejaVuSans-36"/>
       <use xlink:href="#DejaVuSans-30" transform="translate(63.623047 0)"/>
       <use xlink:href="#DejaVuSans-30" transform="translate(127.246094 0)"/>
      </g>
     </g>
    </g>
    <g id="text_13">
     <!-- Profit -->
     <g transform="translate(18.702813 229.779063) rotate(-90) scale(0.1 -0.1)">
      <defs>
       <path id="DejaVuSans-50" d="M 1259 4147 
L 1259 2394 
L 2053 2394 
Q 2494 2394 2734 2622 
Q 2975 2850 2975 3272 
Q 2975 3691 2734 3919 
Q 2494 4147 2053 4147 
L 1259 4147 
z
M 628 4666 
L 2053 4666 
Q 2838 4666 3239 4311 
Q 3641 3956 3641 3272 
Q 3641 2581 3239 2228 
Q 2838 1875 2053 1875 
L 1259 1875 
L 1259 0 
L 628 0 
L 628 4666 
z
" transform="scale(0.015625)"/>
       <path id="DejaVuSans-72" d="M 2631 2963 
Q 2534 3019 2420 3045 
Q 2306 3072 2169 3072 
Q 1681 3072 1420 2755 
Q 1159 2438 1159 1844 
L 1159 0 
L 581 0 
L 581 3500 
L 1159 3500 
L 1159 2956 
Q 1341 3275 1631 3429 
Q 1922 3584 2338 3584 
Q 2397 3584 2469 3576 
Q 2541 3569 2628 3553 
L 2631 2963 
z
" transform="scale(0.015625)"/>
       <path id="DejaVuSans-6f" d="M 1959 3097 
Q 1497 3097 1228 2736 
Q 959 2375 959 1747 
Q 959 1119 1226 758 
Q 1494 397 1959 397 
Q 2419 397 2687 759 
Q 2956 1122 2956 1747 
Q 2956 2369 2687 2733 
Q 2419 3097 1959 3097 
z
M 1959 3584 
Q 2709 3584 3137 3096 
Q 3566 2609 3566 1747 
Q 3566 888 3137 398 
Q 2709 -91 1959 -91 
Q 1206 -91 779 398 
Q 353 888 353 1747 
Q 353 2609 779 3096 
Q 1206 3584 1959 3584 
z
" transform="scale(0.015625)"/>
       <path id="DejaVuSans-66" d="M 2375 4863 
L 2375 4384 
L 1825 4384 
Q 1516 4384 1395 4259 
Q 1275 4134 1275 3809 
L 1275 3500 
L 2222 3500 
L 2222 3053 
L 1275 3053 
L 1275 0 
L 697 0 
L 697 3053 
L 147 3053 
L 147 3500 
L 697 3500 
L 697 3744 
Q 697 4328 969 4595 
Q 1241 4863 1831 4863 
L 2375 4863 
z
" transform="scale(0.015625)"/>
       <path id="DejaVuSans-69" d="M 603 3500 
L 1178 3500 
L 1178 0 
L 603 0 
L 603 3500 
z
M 603 4863 
L 1178 4863 
L 1178 4134 
L 603 4134 
L 603 4863 
z
" transform="scale(0.015625)"/>
      </defs>
      <use xlink:href="#DejaVuSans-50"/>
      <use xlink:href="#DejaVuSans-72" transform="translate(58.552734 0)"/>
      <use xlink:href="#DejaVuSans-6f" transform="translate(97.416016 0)"/>
      <use xlink:href="#DejaVuSans-66" transform="translate(158.597656 0)"/>
      <use xlink:href="#DejaVuSans-69" transform="translate(193.802734 0)"/>
      <use xlink:href="#DejaVuSans-74" transform="translate(221.585938 0)"/>
     </g>
    </g>
   </g>
   <g id="line2d_12">
    <path d="M 52.193327 244.298695 
L 54.83998 245.123225 
L 57.486633 233.430918 
L 60.133287 222.452928 
L 62.77994 213.443643 
L 65.426593 205.834378 
L 68.073247 199.412449 
L 70.7199 193.682637 
L 76.013207 184.352997 
L 78.65986 180.278935 
L 81.306513 176.636451 
L 83.953167 173.295582 
L 86.59982 170.319008 
L 91.893127 164.947809 
L 97.186433 160.436558 
L 99.833087 158.288729 
L 105.126393 154.509181 
L 110.4197 151.498748 
L 118.35966 147.546469 
L 123.652967 145.167881 
L 136.886233 140.162763 
L 142.17954 138.52786 
L 144.826193 137.713868 
L 150.1195 136.247207 
L 160.706113 133.352691 
L 165.99942 132.010012 
L 176.586033 129.70141 
L 205.69922 124.722477 
L 218.932487 122.917133 
L 229.5191 121.551179 
L 240.105713 120.426636 
L 274.512207 117.184092 
L 303.625393 114.98733 
L 322.151967 113.820544 
L 353.911807 112.060513 
L 364.49842 111.474463 
L 380.37834 110.695933 
L 398.904913 109.91635 
L 417.431487 109.134155 
L 435.95806 108.388843 
L 483.59782 106.764386 
L 512.711007 105.94989 
L 536.530887 105.274221 
L 605.343873 103.729853 
L 637.103713 103.202678 
L 780.022993 100.969629 
L 806.489527 100.671082 
L 843.542673 100.288461 
L 843.542673 100.288461 
" clip-path="url(#pe60fcc44fe)" style="fill: none; stroke: #0000ff; stroke-width: 1.5; stroke-linecap: square"/>
   </g>
   <g id="patch_3">
    <path d="M 50.87 390.04 
L 50.87 43.44 
" style="fill: none; stroke: #000000; stroke-width: 0.8; stroke-linejoin: miter; stroke-linecap: square"/>
   </g>
   <g id="patch_4">
    <path d="M 844.866 390.04 
L 844.866 43.44 
" style="fill: none; stroke: #000000; stroke-width: 0.8; stroke-linejoin: miter; stroke-linecap: square"/>
   </g>
   <g id="patch_5">
    <path d="M 50.87 390.04 
L 844.866 390.04 
" style="fill: none; stroke: #000000; stroke-width: 0.8; stroke-linejoin: miter; stroke-linecap: square"/>
   </g>
   <g id="patch_6">
    <path d="M 50.87 43.44 
L 844.866 43.44 
" style="fill: none; stroke: #000000; stroke-width: 0.8; stroke-linejoin: miter; stroke-linecap: square"/>
   </g>
   <g id="text_14">
    <!-- Mean profit per step with confidence interval per simulation step -->
    <g transform="translate(220.284875 21.763062) scale(0.14 -0.14)">
     <defs>
      <path id="DejaVuSans-4d" d="M 628 4666 
L 1569 4666 
L 2759 1491 
L 3956 4666 
L 4897 4666 
L 4897 0 
L 4281 0 
L 4281 4097 
L 3078 897 
L 2444 897 
L 1241 4097 
L 1241 0 
L 628 0 
L 628 4666 
z
" transform="scale(0.015625)"/>
      <path id="DejaVuSans-61" d="M 2194 1759 
Q 1497 1759 1228 1600 
Q 959 1441 959 1056 
Q 959 750 1161 570 
Q 1363 391 1709 391 
Q 2188 391 2477 730 
Q 2766 1069 2766 1631 
L 2766 1759 
L 2194 1759 
z
M 3341 1997 
L 3341 0 
L 2766 0 
L 2766 531 
Q 2569 213 2275 61 
Q 1981 -91 1556 -91 
Q 1019 -91 701 211 
Q 384 513 384 1019 
Q 384 1609 779 1909 
Q 1175 2209 1959 2209 
L 2766 2209 
L 2766 2266 
Q 2766 2663 2505 2880 
Q 2244 3097 1772 3097 
Q 1472 3097 1187 3025 
Q 903 2953 641 2809 
L 641 3341 
Q 956 3463 1253 3523 
Q 1550 3584 1831 3584 
Q 2591 3584 2966 3190 
Q 3341 2797 3341 1997 
z
" transform="scale(0.015625)"/>
      <path id="DejaVuSans-6e" d="M 3513 2113 
L 3513 0 
L 2938 0 
L 2938 2094 
Q 2938 2591 2744 2837 
Q 2550 3084 2163 3084 
Q 1697 3084 1428 2787 
Q 1159 2491 1159 1978 
L 1159 0 
L 581 0 
L 581 3500 
L 1159 3500 
L 1159 2956 
Q 1366 3272 1645 3428 
Q 1925 3584 2291 3584 
Q 2894 3584 3203 3211 
Q 3513 2838 3513 2113 
z
" transform="scale(0.015625)"/>
      <path id="DejaVuSans-20" transform="scale(0.015625)"/>
      <path id="DejaVuSans-73" d="M 2834 3397 
L 2834 2853 
Q 2591 2978 2328 3040 
Q 2066 3103 1784 3103 
Q 1356 3103 1142 2972 
Q 928 2841 928 2578 
Q 928 2378 1081 2264 
Q 1234 2150 1697 2047 
L 1894 2003 
Q 2506 1872 2764 1633 
Q 3022 1394 3022 966 
Q 3022 478 2636 193 
Q 2250 -91 1575 -91 
Q 1294 -91 989 -36 
Q 684 19 347 128 
L 347 722 
Q 666 556 975 473 
Q 1284 391 1588 391 
Q 1994 391 2212 530 
Q 2431 669 2431 922 
Q 2431 1156 2273 1281 
Q 2116 1406 1581 1522 
L 1381 1569 
Q 847 1681 609 1914 
Q 372 2147 372 2553 
Q 372 3047 722 3315 
Q 1072 3584 1716 3584 
Q 2034 3584 2315 3537 
Q 2597 3491 2834 3397 
z
" transform="scale(0.015625)"/>
      <path id="DejaVuSans-77" d="M 269 3500 
L 844 3500 
L 1563 769 
L 2278 3500 
L 2956 3500 
L 3675 769 
L 4391 3500 
L 4966 3500 
L 4050 0 
L 3372 0 
L 2619 2869 
L 1863 0 
L 1184 0 
L 269 3500 
z
" transform="scale(0.015625)"/>
      <path id="DejaVuSans-68" d="M 3513 2113 
L 3513 0 
L 2938 0 
L 2938 2094 
Q 2938 2591 2744 2837 
Q 2550 3084 2163 3084 
Q 1697 3084 1428 2787 
Q 1159 2491 1159 1978 
L 1159 0 
L 581 0 
L 581 4863 
L 1159 4863 
L 1159 2956 
Q 1366 3272 1645 3428 
Q 1925 3584 2291 3584 
Q 2894 3584 3203 3211 
Q 3513 2838 3513 2113 
z
" transform="scale(0.015625)"/>
      <path id="DejaVuSans-63" d="M 3122 3366 
L 3122 2828 
Q 2878 2963 2633 3030 
Q 2388 3097 2138 3097 
Q 1578 3097 1268 2742 
Q 959 2388 959 1747 
Q 959 1106 1268 751 
Q 1578 397 2138 397 
Q 2388 397 2633 464 
Q 2878 531 3122 666 
L 3122 134 
Q 2881 22 2623 -34 
Q 2366 -91 2075 -91 
Q 1284 -91 818 406 
Q 353 903 353 1747 
Q 353 2603 823 3093 
Q 1294 3584 2113 3584 
Q 2378 3584 2631 3529 
Q 2884 3475 3122 3366 
z
" transform="scale(0.015625)"/>
      <path id="DejaVuSans-64" d="M 2906 2969 
L 2906 4863 
L 3481 4863 
L 3481 0 
L 2906 0 
L 2906 525 
Q 2725 213 2448 61 
Q 2172 -91 1784 -91 
Q 1150 -91 751 415 
Q 353 922 353 1747 
Q 353 2572 751 3078 
Q 1150 3584 1784 3584 
Q 2172 3584 2448 3432 
Q 2725 3281 2906 2969 
z
M 947 1747 
Q 947 1113 1208 752 
Q 1469 391 1925 391 
Q 2381 391 2643 752 
Q 2906 1113 2906 1747 
Q 2906 2381 2643 2742 
Q 2381 3103 1925 3103 
Q 1469 3103 1208 2742 
Q 947 2381 947 1747 
z
" transform="scale(0.015625)"/>
      <path id="DejaVuSans-76" d="M 191 3500 
L 800 3500 
L 1894 563 
L 2988 3500 
L 3597 3500 
L 2284 0 
L 1503 0 
L 191 3500 
z
" transform="scale(0.015625)"/>
      <path id="DejaVuSans-6c" d="M 603 4863 
L 1178 4863 
L 1178 0 
L 603 0 
L 603 4863 
z
" transform="scale(0.015625)"/>
      <path id="DejaVuSans-6d" d="M 3328 2828 
Q 3544 3216 3844 3400 
Q 4144 3584 4550 3584 
Q 5097 3584 5394 3201 
Q 5691 2819 5691 2113 
L 5691 0 
L 5113 0 
L 5113 2094 
Q 5113 2597 4934 2840 
Q 4756 3084 4391 3084 
Q 3944 3084 3684 2787 
Q 3425 2491 3425 1978 
L 3425 0 
L 2847 0 
L 2847 2094 
Q 2847 2600 2669 2842 
Q 2491 3084 2119 3084 
Q 1678 3084 1418 2786 
Q 1159 2488 1159 1978 
L 1159 0 
L 581 0 
L 581 3500 
L 1159 3500 
L 1159 2956 
Q 1356 3278 1631 3431 
Q 1906 3584 2284 3584 
Q 2666 3584 2933 3390 
Q 3200 3197 3328 2828 
z
" transform="scale(0.015625)"/>
      <path id="DejaVuSans-75" d="M 544 1381 
L 544 3500 
L 1119 3500 
L 1119 1403 
Q 1119 906 1312 657 
Q 1506 409 1894 409 
Q 2359 409 2629 706 
Q 2900 1003 2900 1516 
L 2900 3500 
L 3475 3500 
L 3475 0 
L 2900 0 
L 2900 538 
Q 2691 219 2414 64 
Q 2138 -91 1772 -91 
Q 1169 -91 856 284 
Q 544 659 544 1381 
z
M 1991 3584 
L 1991 3584 
z
" transform="scale(0.015625)"/>
     </defs>
     <use xlink:href="#DejaVuSans-4d"/>
     <use xlink:href="#DejaVuSans-65" transform="translate(86.279297 0)"/>
     <use xlink:href="#DejaVuSans-61" transform="translate(147.802734 0)"/>
     <use xlink:href="#DejaVuSans-6e" transform="translate(209.082031 0)"/>
     <use xlink:href="#DejaVuSans-20" transform="translate(272.460938 0)"/>
     <use xlink:href="#DejaVuSans-70" transform="translate(304.248047 0)"/>
     <use xlink:href="#DejaVuSans-72" transform="translate(367.724609 0)"/>
     <use xlink:href="#DejaVuSans-6f" transform="translate(406.587891 0)"/>
     <use xlink:href="#DejaVuSans-66" transform="translate(467.769531 0)"/>
     <use xlink:href="#DejaVuSans-69" transform="translate(502.974609 0)"/>
     <use xlink:href="#DejaVuSans-74" transform="translate(530.757812 0)"/>
     <use xlink:href="#DejaVuSans-20" transform="translate(569.966797 0)"/>
     <use xlink:href="#DejaVuSans-70" transform="translate(601.753906 0)"/>
     <use xlink:href="#DejaVuSans-65" transform="translate(665.230469 0)"/>
     <use xlink:href="#DejaVuSans-72" transform="translate(726.753906 0)"/>
     <use xlink:href="#DejaVuSans-20" transform="translate(767.867188 0)"/>
     <use xlink:href="#DejaVuSans-73" transform="translate(799.654297 0)"/>
     <use xlink:href="#DejaVuSans-74" transform="translate(851.753906 0)"/>
     <use xlink:href="#DejaVuSans-65" transform="translate(890.962891 0)"/>
     <use xlink:href="#DejaVuSans-70" transform="translate(952.486328 0)"/>
     <use xlink:href="#DejaVuSans-20" transform="translate(1015.962891 0)"/>
     <use xlink:href="#DejaVuSans-77" transform="translate(1047.75 0)"/>
     <use xlink:href="#DejaVuSans-69" transform="translate(1129.537109 0)"/>
     <use xlink:href="#DejaVuSans-74" transform="translate(1157.320312 0)"/>
     <use xlink:href="#DejaVuSans-68" transform="translate(1196.529297 0)"/>
     <use xlink:href="#DejaVuSans-20" transform="translate(1259.908203 0)"/>
     <use xlink:href="#DejaVuSans-63" transform="translate(1291.695312 0)"/>
     <use xlink:href="#DejaVuSans-6f" transform="translate(1346.675781 0)"/>
     <use xlink:href="#DejaVuSans-6e" transform="translate(1407.857422 0)"/>
     <use xlink:href="#DejaVuSans-66" transform="translate(1471.236328 0)"/>
     <use xlink:href="#DejaVuSans-69" transform="translate(1506.441406 0)"/>
     <use xlink:href="#DejaVuSans-64" transform="translate(1534.224609 0)"/>
     <use xlink:href="#DejaVuSans-65" transform="translate(1597.701172 0)"/>
     <use xlink:href="#DejaVuSans-6e" transform="translate(1659.224609 0)"/>
     <use xlink:href="#DejaVuSans-63" transform="translate(1722.603516 0)"/>
     <use xlink:href="#DejaVuSans-65" transform="translate(1777.583984 0)"/>
     <use xlink:href="#DejaVuSans-20" transform="translate(1839.107422 0)"/>
     <use xlink:href="#DejaVuSans-69" transform="translate(1870.894531 0)"/>
     <use xlink:href="#DejaVuSans-6e" transform="translate(1898.677734 0)"/>
     <use xlink:href="#DejaVuSans-74" transform="translate(1962.056641 0)"/>
     <use xlink:href="#DejaVuSans-65" transform="translate(2001.265625 0)"/>
     <use xlink:href="#DejaVuSans-72" transform="translate(2062.789062 0)"/>
     <use xlink:href="#DejaVuSans-76" transform="translate(2103.902344 0)"/>
     <use xlink:href="#DejaVuSans-61" transform="translate(2163.082031 0)"/>
     <use xlink:href="#DejaVuSans-6c" transform="translate(2224.361328 0)"/>
     <use xlink:href="#DejaVuSans-20" transform="translate(2252.144531 0)"/>
     <use xlink:href="#DejaVuSans-70" transform="translate(2283.931641 0)"/>
     <use xlink:href="#DejaVuSans-65" transform="translate(2347.408203 0)"/>
     <use xlink:href="#DejaVuSans-72" transform="translate(2408.931641 0)"/>
     <use xlink:href="#DejaVuSans-20" transform="translate(2450.044922 0)"/>
     <use xlink:href="#DejaVuSans-73" transform="translate(2481.832031 0)"/>
     <use xlink:href="#DejaVuSans-69" transform="translate(2533.931641 0)"/>
     <use xlink:href="#DejaVuSans-6d" transform="translate(2561.714844 0)"/>
     <use xlink:href="#DejaVuSans-75" transform="translate(2659.126953 0)"/>
     <use xlink:href="#DejaVuSans-6c" transform="translate(2722.505859 0)"/>
     <use xlink:href="#DejaVuSans-61" transform="translate(2750.289062 0)"/>
     <use xlink:href="#DejaVuSans-74" transform="translate(2811.568359 0)"/>
     <use xlink:href="#DejaVuSans-69" transform="translate(2850.777344 0)"/>
     <use xlink:href="#DejaVuSans-6f" transform="translate(2878.560547 0)"/>
     <use xlink:href="#DejaVuSans-6e" transform="translate(2939.742188 0)"/>
     <use xlink:href="#DejaVuSans-20" transform="translate(3003.121094 0)"/>
     <use xlink:href="#DejaVuSans-73" transform="translate(3034.908203 0)"/>
     <use xlink:href="#DejaVuSans-74" transform="translate(3087.007812 0)"/>
     <use xlink:href="#DejaVuSans-65" transform="translate(3126.216797 0)"/>
     <use xlink:href="#DejaVuSans-70" transform="translate(3187.740234 0)"/>
    </g>
    <!-- Base Product: Cocaine, Recipe size: 7, T0: 20.0 -->
    <g transform="translate(283.410656 37.44) scale(0.14 -0.14)">
     <defs>
      <path id="DejaVuSans-42" d="M 1259 2228 
L 1259 519 
L 2272 519 
Q 2781 519 3026 730 
Q 3272 941 3272 1375 
Q 3272 1813 3026 2020 
Q 2781 2228 2272 2228 
L 1259 2228 
z
M 1259 4147 
L 1259 2741 
L 2194 2741 
Q 2656 2741 2882 2914 
Q 3109 3088 3109 3444 
Q 3109 3797 2882 3972 
Q 2656 4147 2194 4147 
L 1259 4147 
z
M 628 4666 
L 2241 4666 
Q 2963 4666 3353 4366 
Q 3744 4066 3744 3513 
Q 3744 3084 3544 2831 
Q 3344 2578 2956 2516 
Q 3422 2416 3680 2098 
Q 3938 1781 3938 1306 
Q 3938 681 3513 340 
Q 3088 0 2303 0 
L 628 0 
L 628 4666 
z
" transform="scale(0.015625)"/>
      <path id="DejaVuSans-3a" d="M 750 794 
L 1409 794 
L 1409 0 
L 750 0 
L 750 794 
z
M 750 3309 
L 1409 3309 
L 1409 2516 
L 750 2516 
L 750 3309 
z
" transform="scale(0.015625)"/>
      <path id="DejaVuSans-43" d="M 4122 4306 
L 4122 3641 
Q 3803 3938 3442 4084 
Q 3081 4231 2675 4231 
Q 1875 4231 1450 3742 
Q 1025 3253 1025 2328 
Q 1025 1406 1450 917 
Q 1875 428 2675 428 
Q 3081 428 3442 575 
Q 3803 722 4122 1019 
L 4122 359 
Q 3791 134 3420 21 
Q 3050 -91 2638 -91 
Q 1578 -91 968 557 
Q 359 1206 359 2328 
Q 359 3453 968 4101 
Q 1578 4750 2638 4750 
Q 3056 4750 3426 4639 
Q 3797 4528 4122 4306 
z
" transform="scale(0.015625)"/>
      <path id="DejaVuSans-2c" d="M 750 794 
L 1409 794 
L 1409 256 
L 897 -744 
L 494 -744 
L 750 256 
L 750 794 
z
" transform="scale(0.015625)"/>
      <path id="DejaVuSans-52" d="M 2841 2188 
Q 3044 2119 3236 1894 
Q 3428 1669 3622 1275 
L 4263 0 
L 3584 0 
L 2988 1197 
Q 2756 1666 2539 1819 
Q 2322 1972 1947 1972 
L 1259 1972 
L 1259 0 
L 628 0 
L 628 4666 
L 2053 4666 
Q 2853 4666 3247 4331 
Q 3641 3997 3641 3322 
Q 3641 2881 3436 2590 
Q 3231 2300 2841 2188 
z
M 1259 4147 
L 1259 2491 
L 2053 2491 
Q 2509 2491 2742 2702 
Q 2975 2913 2975 3322 
Q 2975 3731 2742 3939 
Q 2509 4147 2053 4147 
L 1259 4147 
z
" transform="scale(0.015625)"/>
      <path id="DejaVuSans-7a" d="M 353 3500 
L 3084 3500 
L 3084 2975 
L 922 459 
L 3084 459 
L 3084 0 
L 275 0 
L 275 525 
L 2438 3041 
L 353 3041 
L 353 3500 
z
" transform="scale(0.015625)"/>
      <path id="DejaVuSans-37" d="M 525 4666 
L 3525 4666 
L 3525 4397 
L 1831 0 
L 1172 0 
L 2766 4134 
L 525 4134 
L 525 4666 
z
" transform="scale(0.015625)"/>
      <path id="DejaVuSans-54" d="M -19 4666 
L 3928 4666 
L 3928 4134 
L 2272 4134 
L 2272 0 
L 1638 0 
L 1638 4134 
L -19 4134 
L -19 4666 
z
" transform="scale(0.015625)"/>
      <path id="DejaVuSans-2e" d="M 684 794 
L 1344 794 
L 1344 0 
L 684 0 
L 684 794 
z
" transform="scale(0.015625)"/>
     </defs>
     <use xlink:href="#DejaVuSans-42"/>
     <use xlink:href="#DejaVuSans-61" transform="translate(68.603516 0)"/>
     <use xlink:href="#DejaVuSans-73" transform="translate(129.882812 0)"/>
     <use xlink:href="#DejaVuSans-65" transform="translate(181.982422 0)"/>
     <use xlink:href="#DejaVuSans-20" transform="translate(243.505859 0)"/>
     <use xlink:href="#DejaVuSans-50" transform="translate(275.292969 0)"/>
     <use xlink:href="#DejaVuSans-72" transform="translate(333.845703 0)"/>
     <use xlink:href="#DejaVuSans-6f" transform="translate(372.708984 0)"/>
     <use xlink:href="#DejaVuSans-64" transform="translate(433.890625 0)"/>
     <use xlink:href="#DejaVuSans-75" transform="translate(497.367188 0)"/>
     <use xlink:href="#DejaVuSans-63" transform="translate(560.746094 0)"/>
     <use xlink:href="#DejaVuSans-74" transform="translate(615.726562 0)"/>
     <use xlink:href="#DejaVuSans-3a" transform="translate(654.935547 0)"/>
     <use xlink:href="#DejaVuSans-20" transform="translate(688.626953 0)"/>
     <use xlink:href="#DejaVuSans-43" transform="translate(720.414062 0)"/>
     <use xlink:href="#DejaVuSans-6f" transform="translate(790.238281 0)"/>
     <use xlink:href="#DejaVuSans-63" transform="translate(851.419922 0)"/>
     <use xlink:href="#DejaVuSans-61" transform="translate(906.400391 0)"/>
     <use xlink:href="#DejaVuSans-69" transform="translate(967.679688 0)"/>
     <use xlink:href="#DejaVuSans-6e" transform="translate(995.462891 0)"/>
     <use xlink:href="#DejaVuSans-65" transform="translate(1058.841797 0)"/>
     <use xlink:href="#DejaVuSans-2c" transform="translate(1120.365234 0)"/>
     <use xlink:href="#DejaVuSans-20" transform="translate(1152.152344 0)"/>
     <use xlink:href="#DejaVuSans-52" transform="translate(1183.939453 0)"/>
     <use xlink:href="#DejaVuSans-65" transform="translate(1248.921875 0)"/>
     <use xlink:href="#DejaVuSans-63" transform="translate(1310.445312 0)"/>
     <use xlink:href="#DejaVuSans-69" transform="translate(1365.425781 0)"/>
     <use xlink:href="#DejaVuSans-70" transform="translate(1393.208984 0)"/>
     <use xlink:href="#DejaVuSans-65" transform="translate(1456.685547 0)"/>
     <use xlink:href="#DejaVuSans-20" transform="translate(1518.208984 0)"/>
     <use xlink:href="#DejaVuSans-73" transform="translate(1549.996094 0)"/>
     <use xlink:href="#DejaVuSans-69" transform="translate(1602.095703 0)"/>
     <use xlink:href="#DejaVuSans-7a" transform="translate(1629.878906 0)"/>
     <use xlink:href="#DejaVuSans-65" transform="translate(1682.369141 0)"/>
     <use xlink:href="#DejaVuSans-3a" transform="translate(1743.892578 0)"/>
     <use xlink:href="#DejaVuSans-20" transform="translate(1777.583984 0)"/>
     <use xlink:href="#DejaVuSans-37" transform="translate(1809.371094 0)"/>
     <use xlink:href="#DejaVuSans-2c" transform="translate(1872.994141 0)"/>
     <use xlink:href="#DejaVuSans-20" transform="translate(1904.78125 0)"/>
     <use xlink:href="#DejaVuSans-54" transform="translate(1936.568359 0)"/>
     <use xlink:href="#DejaVuSans-30" transform="translate(1997.652344 0)"/>
     <use xlink:href="#DejaVuSans-3a" transform="translate(2061.275391 0)"/>
     <use xlink:href="#DejaVuSans-20" transform="translate(2094.966797 0)"/>
     <use xlink:href="#DejaVuSans-32" transform="translate(2126.753906 0)"/>
     <use xlink:href="#DejaVuSans-30" transform="translate(2190.376953 0)"/>
     <use xlink:href="#DejaVuSans-2e" transform="translate(2254 0)"/>
     <use xlink:href="#DejaVuSans-30" transform="translate(2285.787109 0)"/>
    </g>
   </g>
  </g>
 </g>
 <defs>
  <clipPath id="pe60fcc44fe">
   <rect x="50.87" y="43.44" width="793.996" height="346.6"/>
  </clipPath>
 </defs>
</svg>
