<?xml version="1.0" encoding="utf-8" standalone="no"?>
<!DOCTYPE svg PUBLIC "-//W3C//DTD SVG 1.1//EN"
  "http://www.w3.org/Graphics/SVG/1.1/DTD/svg11.dtd">
<svg xmlns:xlink="http://www.w3.org/1999/xlink" width="864pt" height="432pt" viewBox="0 0 864 432" xmlns="http://www.w3.org/2000/svg" version="1.1">
 <metadata>
  <rdf:RDF xmlns:dc="http://purl.org/dc/elements/1.1/" xmlns:cc="http://creativecommons.org/ns#" xmlns:rdf="http://www.w3.org/1999/02/22-rdf-syntax-ns#">
   <cc:Work>
    <dc:type rdf:resource="http://purl.org/dc/dcmitype/StillImage"/>
    <dc:date>2025-05-24T02:22:19.977347</dc:date>
    <dc:format>image/svg+xml</dc:format>
    <dc:creator>
     <cc:Agent>
      <dc:title>Matplotlib v3.10.3, https://matplotlib.org/</dc:title>
     </cc:Agent>
    </dc:creator>
   </cc:Work>
  </rdf:RDF>
 </metadata>
 <defs>
  <style type="text/css">*{stroke-linejoin: round; stroke-linecap: butt}</style>
 </defs>
 <g id="figure_1">
  <g id="patch_1">
   <path d="M 0 432 
L 864 432 
L 864 0 
L 0 0 
z
" style="fill: #ffffff"/>
  </g>
  <g id="axes_1">
   <g id="patch_2">
    <path d="M 50.87 390.04 
L 844.866 390.04 
L 844.866 43.44 
L 50.87 43.44 
z
" style="fill: #ffffff"/>
   </g>
   <g id="FillBetweenPolyCollection_1">
    <defs>
     <path id="mfd8a6641cb" d="M 52.193327 -308.203443 
L 52.193327 -58.894094 
L 54.83998 -57.714545 
L 57.486633 -73.095884 
L 60.133287 -87.484022 
L 62.77994 -99.82915 
L 65.426593 -110.585515 
L 68.073247 -121.057549 
L 70.7199 -129.788981 
L 73.366553 -137.987182 
L 76.013207 -145.110727 
L 78.65986 -151.589703 
L 81.306513 -157.47953 
L 83.953167 -162.720152 
L 86.59982 -167.753202 
L 89.246473 -171.516401 
L 91.893127 -175.676324 
L 94.53978 -179.020446 
L 97.186433 -181.867721 
L 99.833087 -184.446083 
L 102.47974 -187.224028 
L 105.126393 -189.80239 
L 107.773047 -192.375392 
L 110.4197 -194.583829 
L 113.066353 -196.616026 
L 115.713007 -198.677197 
L 118.35966 -200.835986 
L 121.006313 -202.89873 
L 123.652967 -204.516239 
L 126.29962 -206.25053 
L 128.946273 -207.753119 
L 131.592927 -209.12744 
L 134.23958 -210.220514 
L 136.886233 -211.846487 
L 139.532887 -213.407126 
L 142.17954 -214.477021 
L 144.826193 -215.630132 
L 147.472847 -216.619979 
L 150.1195 -217.622698 
L 152.766153 -218.605716 
L 155.412807 -219.671721 
L 158.05946 -220.719866 
L 160.706113 -221.635562 
L 163.352767 -222.648112 
L 165.99942 -223.411658 
L 168.646073 -224.180067 
L 171.292727 -225.133925 
L 173.93938 -226.024891 
L 176.586033 -227.005115 
L 179.232687 -227.838569 
L 181.87934 -228.541437 
L 184.525993 -229.125287 
L 187.172647 -230.027118 
L 189.8193 -230.576035 
L 192.465953 -230.97605 
L 195.112607 -231.693219 
L 197.75926 -232.510303 
L 200.405913 -233.091918 
L 203.052567 -233.75501 
L 205.69922 -234.356803 
L 208.345873 -234.93221 
L 210.992527 -235.484686 
L 213.63918 -235.983004 
L 216.285833 -236.629126 
L 218.932487 -237.186217 
L 221.57914 -237.718889 
L 224.225793 -238.303691 
L 226.872447 -238.712068 
L 229.5191 -239.184744 
L 232.165753 -239.571204 
L 234.812407 -239.916875 
L 237.45906 -240.396277 
L 240.105713 -241.02367 
L 242.752367 -241.500713 
L 245.39902 -242.07107 
L 248.045673 -242.381952 
L 250.692327 -242.821081 
L 253.33898 -243.232376 
L 255.985633 -243.605819 
L 258.632287 -243.99557 
L 261.27894 -244.44364 
L 263.925593 -244.817186 
L 266.572247 -245.236511 
L 269.2189 -245.734311 
L 271.865553 -245.963199 
L 274.512207 -246.341733 
L 277.15886 -246.703194 
L 279.805513 -247.184375 
L 282.452167 -247.490477 
L 285.09882 -247.763735 
L 287.745473 -248.041153 
L 290.392127 -248.450419 
L 293.03878 -248.731128 
L 295.685433 -249.14296 
L 298.332087 -249.467046 
L 300.97874 -249.773871 
L 303.625393 -250.111657 
L 306.272047 -250.34932 
L 308.9187 -250.580856 
L 311.565353 -250.955852 
L 314.212007 -251.323149 
L 316.85866 -251.62331 
L 319.505313 -251.887463 
L 322.151967 -252.138619 
L 324.79862 -252.596643 
L 327.445273 -252.889644 
L 330.091927 -253.154003 
L 332.73858 -253.47962 
L 335.385233 -253.677507 
L 338.031887 -253.932015 
L 340.67854 -254.132758 
L 343.325193 -254.443557 
L 345.971847 -254.6729 
L 348.6185 -254.850298 
L 351.265153 -255.123722 
L 353.911807 -255.320781 
L 356.55846 -255.59197 
L 359.205113 -255.843622 
L 361.851767 -256.052063 
L 364.49842 -256.270604 
L 367.145073 -256.529127 
L 369.791727 -256.727883 
L 372.43838 -256.991621 
L 375.085033 -257.203084 
L 377.731687 -257.442567 
L 380.37834 -257.55279 
L 383.024993 -257.817935 
L 385.671647 -257.946245 
L 388.3183 -258.158204 
L 390.964953 -258.445701 
L 393.611607 -258.739199 
L 396.25826 -258.995735 
L 398.904913 -259.220484 
L 401.551567 -259.39929 
L 404.19822 -259.530704 
L 406.844873 -259.768077 
L 409.491527 -259.985789 
L 412.13818 -260.253667 
L 414.784833 -260.36302 
L 417.431487 -260.543522 
L 420.07814 -260.649647 
L 422.724793 -260.83077 
L 425.371447 -260.993103 
L 428.0181 -261.126669 
L 430.664753 -261.243431 
L 433.311407 -261.367767 
L 435.95806 -261.575091 
L 438.604713 -261.737589 
L 441.251367 -261.932371 
L 443.89802 -262.052775 
L 446.544673 -262.234561 
L 449.191327 -262.417837 
L 451.83798 -262.605127 
L 454.484633 -262.680954 
L 457.131287 -262.819612 
L 459.77794 -263.000487 
L 462.424593 -263.142579 
L 465.071247 -263.345433 
L 467.7179 -263.477054 
L 470.364553 -263.625769 
L 473.011207 -263.760246 
L 475.65786 -263.99439 
L 478.304513 -264.194843 
L 480.951167 -264.349559 
L 483.59782 -264.46181 
L 486.244473 -264.61694 
L 488.891127 -264.730639 
L 491.53778 -264.819463 
L 494.184433 -264.914991 
L 496.831087 -265.103151 
L 499.47774 -265.245037 
L 502.124393 -265.403023 
L 504.771047 -265.532368 
L 507.4177 -265.709187 
L 510.064353 -265.90161 
L 512.711007 -265.999249 
L 515.35766 -266.1264 
L 518.004313 -266.228137 
L 520.650967 -266.381985 
L 523.29762 -266.496304 
L 525.944273 -266.632519 
L 528.590927 -266.700689 
L 531.23758 -266.823618 
L 533.884233 -266.987192 
L 536.530887 -267.135783 
L 539.17754 -267.258712 
L 541.824193 -267.42746 
L 544.470847 -267.495754 
L 547.1175 -267.532384 
L 549.764153 -267.652995 
L 552.410807 -267.767646 
L 555.05746 -267.881635 
L 557.704113 -267.988504 
L 560.350767 -268.17774 
L 562.99742 -268.350338 
L 565.644073 -268.381215 
L 568.290727 -268.441106 
L 570.93738 -268.61093 
L 573.584033 -268.772849 
L 576.230687 -268.820365 
L 578.87734 -268.98725 
L 581.523993 -269.100577 
L 584.170647 -269.239234 
L 586.8173 -269.391053 
L 589.463953 -269.48087 
L 592.110607 -269.620272 
L 594.75726 -269.746057 
L 597.403913 -269.904209 
L 600.050567 -270.004125 
L 602.69722 -270.072998 
L 605.343873 -270.147252 
L 607.990527 -270.277921 
L 610.63718 -270.333012 
L 613.283833 -270.443937 
L 615.930487 -270.588472 
L 618.57714 -270.690747 
L 621.223793 -270.752915 
L 623.870447 -270.826673 
L 626.5171 -270.914172 
L 629.163753 -270.972035 
L 631.810407 -271.032423 
L 634.45706 -271.120005 
L 637.103713 -271.211312 
L 639.750367 -271.311725 
L 642.39702 -271.401127 
L 645.043673 -271.524719 
L 647.690327 -271.668343 
L 650.33698 -271.777985 
L 652.983633 -271.8743 
L 655.630287 -271.955756 
L 658.27694 -272.040648 
L 660.923593 -272.081417 
L 663.570247 -272.139777 
L 666.2169 -272.239362 
L 668.863553 -272.324791 
L 671.510207 -272.397017 
L 674.15686 -272.521147 
L 676.803513 -272.630168 
L 679.450167 -272.671021 
L 682.09682 -272.792128 
L 684.743473 -272.826855 
L 687.390127 -272.918493 
L 690.03678 -273.042498 
L 692.683433 -273.087779 
L 695.330087 -273.210459 
L 697.97674 -273.265177 
L 700.623393 -273.312445 
L 703.270047 -273.355449 
L 705.9167 -273.366583 
L 708.563353 -273.448287 
L 711.210007 -273.518485 
L 713.85666 -273.604411 
L 716.503313 -273.680031 
L 719.149967 -273.746214 
L 721.79662 -273.842984 
L 724.443273 -273.906725 
L 727.089927 -274.046914 
L 729.73658 -274.050474 
L 732.383233 -274.162103 
L 735.029887 -274.177169 
L 737.67654 -274.228824 
L 740.323193 -274.270918 
L 742.969847 -274.292896 
L 745.6165 -274.353947 
L 748.263153 -274.431719 
L 750.909807 -274.48565 
L 753.55646 -274.590699 
L 756.203113 -274.613339 
L 758.849767 -274.78635 
L 761.49642 -274.789041 
L 764.143073 -274.826209 
L 766.789727 -274.878568 
L 769.43638 -274.930595 
L 772.083033 -275.034443 
L 774.729687 -275.102489 
L 777.37634 -275.159524 
L 780.022993 -275.206006 
L 782.669647 -275.300417 
L 785.3163 -275.408197 
L 787.962953 -275.476946 
L 790.609607 -275.509065 
L 793.25626 -275.552731 
L 795.902913 -275.576903 
L 798.549567 -275.571109 
L 801.19622 -275.58841 
L 803.842873 -275.683111 
L 806.489527 -275.769285 
L 809.13618 -275.835385 
L 811.782833 -275.927644 
L 814.429487 -275.997014 
L 817.07614 -276.054836 
L 819.722793 -276.081574 
L 822.369447 -276.140141 
L 825.0161 -276.152145 
L 827.662753 -276.186954 
L 830.309407 -276.215016 
L 832.95606 -276.296762 
L 835.602713 -276.327929 
L 838.249367 -276.365345 
L 840.89602 -276.419401 
L 843.542673 -276.541709 
L 843.542673 -372.795314 
L 843.542673 -372.795314 
L 840.89602 -372.805455 
L 838.249367 -372.757525 
L 835.602713 -372.738899 
L 832.95606 -372.668908 
L 830.309407 -372.637576 
L 827.662753 -372.587328 
L 825.0161 -372.532238 
L 822.369447 -372.452686 
L 819.722793 -372.399251 
L 817.07614 -372.375907 
L 814.429487 -372.332406 
L 811.782833 -372.30782 
L 809.13618 -372.296438 
L 806.489527 -372.282406 
L 803.842873 -372.291926 
L 801.19622 -372.285883 
L 798.549567 -372.176779 
L 795.902913 -372.077277 
L 793.25626 -372.03928 
L 790.609607 -371.998594 
L 787.962953 -371.926161 
L 785.3163 -371.907577 
L 782.669647 -371.918007 
L 780.022993 -371.892469 
L 777.37634 -371.872147 
L 774.729687 -371.82728 
L 772.083033 -371.781254 
L 769.43638 -371.77757 
L 766.789727 -371.719913 
L 764.143073 -371.689078 
L 761.49642 -371.647191 
L 758.849767 -371.57662 
L 756.203113 -371.625461 
L 753.55646 -371.543632 
L 750.909807 -371.535023 
L 748.263153 -371.481092 
L 745.6165 -371.470206 
L 742.969847 -371.395083 
L 740.323193 -371.329976 
L 737.67654 -371.301127 
L 735.029887 -371.288793 
L 732.383233 -371.230598 
L 729.73658 -371.224514 
L 727.089927 -371.130393 
L 724.443273 -371.1205 
L 721.79662 -371.089127 
L 719.149967 -371.057918 
L 716.503313 -370.992894 
L 713.85666 -370.942026 
L 711.210007 -370.917937 
L 708.563353 -370.858749 
L 705.9167 -370.810653 
L 703.270047 -370.750017 
L 700.623393 -370.65337 
L 697.97674 -370.590043 
L 695.330087 -370.525806 
L 692.683433 -370.506518 
L 690.03678 -370.425559 
L 687.390127 -370.420012 
L 684.743473 -370.386983 
L 682.09682 -370.294476 
L 679.450167 -370.263847 
L 676.803513 -370.21629 
L 674.15686 -370.191538 
L 671.510207 -370.169229 
L 668.863553 -370.14634 
L 666.2169 -370.066374 
L 663.570247 -370.02457 
L 660.923593 -369.934422 
L 658.27694 -369.872378 
L 655.630287 -369.844771 
L 652.983633 -369.805782 
L 650.33698 -369.790343 
L 647.690327 -369.791626 
L 645.043673 -369.761163 
L 642.39702 -369.77507 
L 639.750367 -369.710832 
L 637.103713 -369.688233 
L 634.45706 -369.672753 
L 631.810407 -369.655535 
L 629.163753 -369.608226 
L 626.5171 -369.555661 
L 623.870447 -369.546058 
L 621.223793 -369.494237 
L 618.57714 -369.43389 
L 615.930487 -369.361747 
L 613.283833 -369.395108 
L 610.63718 -369.34693 
L 607.990527 -369.276856 
L 605.343873 -369.241799 
L 602.69722 -369.145277 
L 600.050567 -369.076072 
L 597.403913 -369.048092 
L 594.75726 -369.067339 
L 592.110607 -369.029963 
L 589.463953 -368.982116 
L 586.8173 -368.923011 
L 584.170647 -368.899336 
L 581.523993 -368.864734 
L 578.87734 -368.815314 
L 576.230687 -368.777566 
L 573.584033 -368.667633 
L 570.93738 -368.707203 
L 568.290727 -368.734065 
L 565.644073 -368.680961 
L 562.99742 -368.569042 
L 560.350767 -368.535764 
L 557.704113 -368.526162 
L 555.05746 -368.446941 
L 552.410807 -368.371114 
L 549.764153 -368.27186 
L 547.1175 -368.210023 
L 544.470847 -368.069835 
L 541.824193 -367.970746 
L 539.17754 -367.934861 
L 536.530887 -367.89107 
L 533.884233 -367.872941 
L 531.23758 -367.803902 
L 528.590927 -367.766734 
L 525.944273 -367.630602 
L 523.29762 -367.589667 
L 520.650967 -367.548856 
L 518.004313 -367.500388 
L 515.35766 -367.433915 
L 512.711007 -367.414462 
L 510.064353 -367.332385 
L 507.4177 -367.328288 
L 504.771047 -367.28102 
L 502.124393 -367.263264 
L 499.47774 -367.193355 
L 496.831087 -367.14824 
L 494.184433 -367.125724 
L 491.53778 -367.066536 
L 488.891127 -366.974401 
L 486.244473 -366.914675 
L 483.59782 -366.864593 
L 480.951167 -366.760124 
L 478.304513 -366.717327 
L 475.65786 -366.689223 
L 473.011207 -366.725108 
L 470.364553 -366.626972 
L 467.7179 -366.595225 
L 465.071247 -366.515756 
L 462.424593 -366.463646 
L 459.77794 -366.391172 
L 457.131287 -366.382066 
L 454.484633 -366.334302 
L 451.83798 -366.170893 
L 449.191327 -366.1062 
L 446.544673 -366.082773 
L 443.89802 -365.948834 
L 441.251367 -365.797553 
L 438.604713 -365.705253 
L 435.95806 -365.646976 
L 433.311407 -365.5971 
L 430.664753 -365.508774 
L 428.0181 -365.426614 
L 425.371447 -365.316558 
L 422.724793 -365.22881 
L 420.07814 -365.160103 
L 417.431487 -364.982787 
L 414.784833 -364.933739 
L 412.13818 -364.831175 
L 409.491527 -364.810148 
L 406.844873 -364.755265 
L 404.19822 -364.712923 
L 401.551567 -364.593429 
L 398.904913 -364.541857 
L 396.25826 -364.452868 
L 393.611607 -364.429607 
L 390.964953 -364.407049 
L 388.3183 -364.391321 
L 385.671647 -364.297986 
L 383.024993 -364.136067 
L 380.37834 -364.087889 
L 377.731687 -363.994802 
L 375.085033 -363.960366 
L 372.43838 -363.865541 
L 369.791727 -363.754698 
L 367.145073 -363.597829 
L 364.49842 -363.548161 
L 361.851767 -363.485165 
L 359.205113 -363.364471 
L 356.55846 -363.268363 
L 353.911807 -363.211079 
L 351.265153 -363.094979 
L 348.6185 -362.998623 
L 345.971847 -362.909386 
L 343.325193 -362.810256 
L 340.67854 -362.738361 
L 338.031887 -362.618164 
L 335.385233 -362.55165 
L 332.73858 -362.427024 
L 330.091927 -362.321189 
L 327.445273 -362.207739 
L 324.79862 -362.168045 
L 322.151967 -362.222101 
L 319.505313 -362.115645 
L 316.85866 -362.008279 
L 314.212007 -361.891393 
L 311.565353 -361.836344 
L 308.9187 -361.782537 
L 306.272047 -361.69421 
L 303.625393 -361.49562 
L 300.97874 -361.320829 
L 298.332087 -361.189581 
L 295.685433 -361.140989 
L 293.03878 -361.113754 
L 290.392127 -360.91475 
L 287.745473 -360.933458 
L 285.09882 -360.776175 
L 282.452167 -360.606807 
L 279.805513 -360.446544 
L 277.15886 -360.41517 
L 274.512207 -360.271587 
L 271.865553 -360.183136 
L 269.2189 -359.955407 
L 266.572247 -359.85901 
L 263.925593 -359.728175 
L 261.27894 -359.482441 
L 258.632287 -359.312783 
L 255.985633 -359.139399 
L 253.33898 -359.001322 
L 250.692327 -358.824958 
L 248.045673 -358.702939 
L 245.39902 -358.456792 
L 242.752367 -358.389243 
L 240.105713 -358.231008 
L 237.45906 -358.16884 
L 234.812407 -357.918222 
L 232.165753 -357.711147 
L 229.5191 -357.430728 
L 226.872447 -357.197909 
L 224.225793 -356.910164 
L 221.57914 -356.713684 
L 218.932487 -356.502056 
L 216.285833 -356.33724 
L 213.63918 -356.239849 
L 210.992527 -355.971599 
L 208.345873 -355.772512 
L 205.69922 -355.477317 
L 203.052567 -355.218835 
L 200.405913 -355.099094 
L 197.75926 -354.762757 
L 195.112607 -354.579936 
L 192.465953 -354.363838 
L 189.8193 -353.854159 
L 187.172647 -353.506564 
L 184.525993 -353.34419 
L 181.87934 -353.044276 
L 179.232687 -352.761912 
L 176.586033 -352.50223 
L 173.93938 -352.423382 
L 171.292727 -352.191348 
L 168.646073 -351.982452 
L 165.99942 -351.61859 
L 163.352767 -351.379769 
L 160.706113 -351.137181 
L 158.05946 -350.87456 
L 155.412807 -350.550557 
L 152.766153 -350.215835 
L 150.1195 -349.840757 
L 147.472847 -349.360796 
L 144.826193 -348.865313 
L 142.17954 -348.349012 
L 139.532887 -347.892105 
L 136.886233 -347.498195 
L 134.23958 -347.10118 
L 131.592927 -346.368449 
L 128.946273 -345.888074 
L 126.29962 -345.37885 
L 123.652967 -345.010519 
L 121.006313 -344.340121 
L 118.35966 -344.051259 
L 115.713007 -343.68003 
L 113.066353 -343.315631 
L 110.4197 -342.676524 
L 107.773047 -342.053891 
L 105.126393 -341.629476 
L 102.47974 -340.842979 
L 99.833087 -340.291496 
L 97.186433 -339.225036 
L 94.53978 -338.1837 
L 91.893127 -337.199564 
L 89.246473 -336.906398 
L 86.59982 -335.654261 
L 83.953167 -335.004931 
L 81.306513 -334.222035 
L 78.65986 -333.120435 
L 76.013207 -332.210264 
L 73.366553 -331.409943 
L 70.7199 -330.614961 
L 68.073247 -329.427393 
L 65.426593 -327.385614 
L 62.77994 -324.284162 
L 60.133287 -320.724935 
L 57.486633 -316.111333 
L 54.83998 -309.452683 
L 52.193327 -308.203443 
z
" style="stroke: #0000ff; stroke-opacity: 0.2"/>
    </defs>
    <g clip-path="url(#p154ce790b3)">
     <use xlink:href="#mfd8a6641cb" x="0" y="432" style="fill: #0000ff; fill-opacity: 0.2; stroke: #0000ff; stroke-opacity: 0.2"/>
    </g>
   </g>
   <g id="matplotlib.axis_1">
    <g id="xtick_1">
     <g id="line2d_1">
      <defs>
       <path id="mc5727ef7ac" d="M 0 0 
L 0 3.5 
" style="stroke: #000000; stroke-width: 0.8"/>
      </defs>
      <g>
       <use xlink:href="#mc5727ef7ac" x="181.87934" y="390.04" style="stroke: #000000; stroke-width: 0.8"/>
      </g>
     </g>
     <g id="text_1">
      <!-- 50 -->
      <g transform="translate(175.51684 404.638438) scale(0.1 -0.1)">
       <defs>
        <path id="DejaVuSans-35" d="M 691 4666 
L 3169 4666 
L 3169 4134 
L 1269 4134 
L 1269 2991 
Q 1406 3038 1543 3061 
Q 1681 3084 1819 3084 
Q 2600 3084 3056 2656 
Q 3513 2228 3513 1497 
Q 3513 744 3044 326 
Q 2575 -91 1722 -91 
Q 1428 -91 1123 -41 
Q 819 9 494 109 
L 494 744 
Q 775 591 1075 516 
Q 1375 441 1709 441 
Q 2250 441 2565 725 
Q 2881 1009 2881 1497 
Q 2881 1984 2565 2268 
Q 2250 2553 1709 2553 
Q 1456 2553 1204 2497 
Q 953 2441 691 2322 
L 691 4666 
z
" transform="scale(0.015625)"/>
        <path id="DejaVuSans-30" d="M 2034 4250 
Q 1547 4250 1301 3770 
Q 1056 3291 1056 2328 
Q 1056 1369 1301 889 
Q 1547 409 2034 409 
Q 2525 409 2770 889 
Q 3016 1369 3016 2328 
Q 3016 3291 2770 3770 
Q 2525 4250 2034 4250 
z
M 2034 4750 
Q 2819 4750 3233 4129 
Q 3647 3509 3647 2328 
Q 3647 1150 3233 529 
Q 2819 -91 2034 -91 
Q 1250 -91 836 529 
Q 422 1150 422 2328 
Q 422 3509 836 4129 
Q 1250 4750 2034 4750 
z
" transform="scale(0.015625)"/>
       </defs>
       <use xlink:href="#DejaVuSans-35"/>
       <use xlink:href="#DejaVuSans-30" transform="translate(63.623047 0)"/>
      </g>
     </g>
    </g>
    <g id="xtick_2">
     <g id="line2d_2">
      <g>
       <use xlink:href="#mc5727ef7ac" x="314.212007" y="390.04" style="stroke: #000000; stroke-width: 0.8"/>
      </g>
     </g>
     <g id="text_2">
      <!-- 100 -->
      <g transform="translate(304.668257 404.638438) scale(0.1 -0.1)">
       <defs>
        <path id="DejaVuSans-31" d="M 794 531 
L 1825 531 
L 1825 4091 
L 703 3866 
L 703 4441 
L 1819 4666 
L 2450 4666 
L 2450 531 
L 3481 531 
L 3481 0 
L 794 0 
L 794 531 
z
" transform="scale(0.015625)"/>
       </defs>
       <use xlink:href="#DejaVuSans-31"/>
       <use xlink:href="#DejaVuSans-30" transform="translate(63.623047 0)"/>
       <use xlink:href="#DejaVuSans-30" transform="translate(127.246094 0)"/>
      </g>
     </g>
    </g>
    <g id="xtick_3">
     <g id="line2d_3">
      <g>
       <use xlink:href="#mc5727ef7ac" x="446.544673" y="390.04" style="stroke: #000000; stroke-width: 0.8"/>
      </g>
     </g>
     <g id="text_3">
      <!-- 150 -->
      <g transform="translate(437.000923 404.638438) scale(0.1 -0.1)">
       <use xlink:href="#DejaVuSans-31"/>
       <use xlink:href="#DejaVuSans-35" transform="translate(63.623047 0)"/>
       <use xlink:href="#DejaVuSans-30" transform="translate(127.246094 0)"/>
      </g>
     </g>
    </g>
    <g id="xtick_4">
     <g id="line2d_4">
      <g>
       <use xlink:href="#mc5727ef7ac" x="578.87734" y="390.04" style="stroke: #000000; stroke-width: 0.8"/>
      </g>
     </g>
     <g id="text_4">
      <!-- 200 -->
      <g transform="translate(569.33359 404.638438) scale(0.1 -0.1)">
       <defs>
        <path id="DejaVuSans-32" d="M 1228 531 
L 3431 531 
L 3431 0 
L 469 0 
L 469 531 
Q 828 903 1448 1529 
Q 2069 2156 2228 2338 
Q 2531 2678 2651 2914 
Q 2772 3150 2772 3378 
Q 2772 3750 2511 3984 
Q 2250 4219 1831 4219 
Q 1534 4219 1204 4116 
Q 875 4013 500 3803 
L 500 4441 
Q 881 4594 1212 4672 
Q 1544 4750 1819 4750 
Q 2544 4750 2975 4387 
Q 3406 4025 3406 3419 
Q 3406 3131 3298 2873 
Q 3191 2616 2906 2266 
Q 2828 2175 2409 1742 
Q 1991 1309 1228 531 
z
" transform="scale(0.015625)"/>
       </defs>
       <use xlink:href="#DejaVuSans-32"/>
       <use xlink:href="#DejaVuSans-30" transform="translate(63.623047 0)"/>
       <use xlink:href="#DejaVuSans-30" transform="translate(127.246094 0)"/>
      </g>
     </g>
    </g>
    <g id="xtick_5">
     <g id="line2d_5">
      <g>
       <use xlink:href="#mc5727ef7ac" x="711.210007" y="390.04" style="stroke: #000000; stroke-width: 0.8"/>
      </g>
     </g>
     <g id="text_5">
      <!-- 250 -->
      <g transform="translate(701.666257 404.638438) scale(0.1 -0.1)">
       <use xlink:href="#DejaVuSans-32"/>
       <use xlink:href="#DejaVuSans-35" transform="translate(63.623047 0)"/>
       <use xlink:href="#DejaVuSans-30" transform="translate(127.246094 0)"/>
      </g>
     </g>
    </g>
    <g id="xtick_6">
     <g id="line2d_6">
      <g>
       <use xlink:href="#mc5727ef7ac" x="843.542673" y="390.04" style="stroke: #000000; stroke-width: 0.8"/>
      </g>
     </g>
     <g id="text_6">
      <!-- 300 -->
      <g transform="translate(833.998923 404.638438) scale(0.1 -0.1)">
       <defs>
        <path id="DejaVuSans-33" d="M 2597 2516 
Q 3050 2419 3304 2112 
Q 3559 1806 3559 1356 
Q 3559 666 3084 287 
Q 2609 -91 1734 -91 
Q 1441 -91 1130 -33 
Q 819 25 488 141 
L 488 750 
Q 750 597 1062 519 
Q 1375 441 1716 441 
Q 2309 441 2620 675 
Q 2931 909 2931 1356 
Q 2931 1769 2642 2001 
Q 2353 2234 1838 2234 
L 1294 2234 
L 1294 2753 
L 1863 2753 
Q 2328 2753 2575 2939 
Q 2822 3125 2822 3475 
Q 2822 3834 2567 4026 
Q 2313 4219 1838 4219 
Q 1578 4219 1281 4162 
Q 984 4106 628 3988 
L 628 4550 
Q 988 4650 1302 4700 
Q 1616 4750 1894 4750 
Q 2613 4750 3031 4423 
Q 3450 4097 3450 3541 
Q 3450 3153 3228 2886 
Q 3006 2619 2597 2516 
z
" transform="scale(0.015625)"/>
       </defs>
       <use xlink:href="#DejaVuSans-33"/>
       <use xlink:href="#DejaVuSans-30" transform="translate(63.623047 0)"/>
       <use xlink:href="#DejaVuSans-30" transform="translate(127.246094 0)"/>
      </g>
     </g>
    </g>
    <g id="text_7">
     <!-- Step -->
     <g transform="translate(436.482844 418.316562) scale(0.1 -0.1)">
      <defs>
       <path id="DejaVuSans-53" d="M 3425 4513 
L 3425 3897 
Q 3066 4069 2747 4153 
Q 2428 4238 2131 4238 
Q 1616 4238 1336 4038 
Q 1056 3838 1056 3469 
Q 1056 3159 1242 3001 
Q 1428 2844 1947 2747 
L 2328 2669 
Q 3034 2534 3370 2195 
Q 3706 1856 3706 1288 
Q 3706 609 3251 259 
Q 2797 -91 1919 -91 
Q 1588 -91 1214 -16 
Q 841 59 441 206 
L 441 856 
Q 825 641 1194 531 
Q 1563 422 1919 422 
Q 2459 422 2753 634 
Q 3047 847 3047 1241 
Q 3047 1584 2836 1778 
Q 2625 1972 2144 2069 
L 1759 2144 
Q 1053 2284 737 2584 
Q 422 2884 422 3419 
Q 422 4038 858 4394 
Q 1294 4750 2059 4750 
Q 2388 4750 2728 4690 
Q 3069 4631 3425 4513 
z
" transform="scale(0.015625)"/>
       <path id="DejaVuSans-74" d="M 1172 4494 
L 1172 3500 
L 2356 3500 
L 2356 3053 
L 1172 3053 
L 1172 1153 
Q 1172 725 1289 603 
Q 1406 481 1766 481 
L 2356 481 
L 2356 0 
L 1766 0 
Q 1100 0 847 248 
Q 594 497 594 1153 
L 594 3053 
L 172 3053 
L 172 3500 
L 594 3500 
L 594 4494 
L 1172 4494 
z
" transform="scale(0.015625)"/>
       <path id="DejaVuSans-65" d="M 3597 1894 
L 3597 1613 
L 953 1613 
Q 991 1019 1311 708 
Q 1631 397 2203 397 
Q 2534 397 2845 478 
Q 3156 559 3463 722 
L 3463 178 
Q 3153 47 2828 -22 
Q 2503 -91 2169 -91 
Q 1331 -91 842 396 
Q 353 884 353 1716 
Q 353 2575 817 3079 
Q 1281 3584 2069 3584 
Q 2775 3584 3186 3129 
Q 3597 2675 3597 1894 
z
M 3022 2063 
Q 3016 2534 2758 2815 
Q 2500 3097 2075 3097 
Q 1594 3097 1305 2825 
Q 1016 2553 972 2059 
L 3022 2063 
z
" transform="scale(0.015625)"/>
       <path id="DejaVuSans-70" d="M 1159 525 
L 1159 -1331 
L 581 -1331 
L 581 3500 
L 1159 3500 
L 1159 2969 
Q 1341 3281 1617 3432 
Q 1894 3584 2278 3584 
Q 2916 3584 3314 3078 
Q 3713 2572 3713 1747 
Q 3713 922 3314 415 
Q 2916 -91 2278 -91 
Q 1894 -91 1617 61 
Q 1341 213 1159 525 
z
M 3116 1747 
Q 3116 2381 2855 2742 
Q 2594 3103 2138 3103 
Q 1681 3103 1420 2742 
Q 1159 2381 1159 1747 
Q 1159 1113 1420 752 
Q 1681 391 2138 391 
Q 2594 391 2855 752 
Q 3116 1113 3116 1747 
z
" transform="scale(0.015625)"/>
      </defs>
      <use xlink:href="#DejaVuSans-53"/>
      <use xlink:href="#DejaVuSans-74" transform="translate(63.476562 0)"/>
      <use xlink:href="#DejaVuSans-65" transform="translate(102.685547 0)"/>
      <use xlink:href="#DejaVuSans-70" transform="translate(164.208984 0)"/>
     </g>
    </g>
   </g>
   <g id="matplotlib.axis_2">
    <g id="ytick_1">
     <g id="line2d_7">
      <defs>
       <path id="m7661a3b40e" d="M 0 0 
L -3.5 0 
" style="stroke: #000000; stroke-width: 0.8"/>
      </defs>
      <g>
       <use xlink:href="#m7661a3b40e" x="50.87" y="327.66418" style="stroke: #000000; stroke-width: 0.8"/>
      </g>
     </g>
     <g id="text_8">
      <!-- 300 -->
      <g transform="translate(24.7825 331.463399) scale(0.1 -0.1)">
       <use xlink:href="#DejaVuSans-33"/>
       <use xlink:href="#DejaVuSans-30" transform="translate(63.623047 0)"/>
       <use xlink:href="#DejaVuSans-30" transform="translate(127.246094 0)"/>
      </g>
     </g>
    </g>
    <g id="ytick_2">
     <g id="line2d_8">
      <g>
       <use xlink:href="#m7661a3b40e" x="50.87" y="259.850453" style="stroke: #000000; stroke-width: 0.8"/>
      </g>
     </g>
     <g id="text_9">
      <!-- 400 -->
      <g transform="translate(24.7825 263.649672) scale(0.1 -0.1)">
       <defs>
        <path id="DejaVuSans-34" d="M 2419 4116 
L 825 1625 
L 2419 1625 
L 2419 4116 
z
M 2253 4666 
L 3047 4666 
L 3047 1625 
L 3713 1625 
L 3713 1100 
L 3047 1100 
L 3047 0 
L 2419 0 
L 2419 1100 
L 313 1100 
L 313 1709 
L 2253 4666 
z
" transform="scale(0.015625)"/>
       </defs>
       <use xlink:href="#DejaVuSans-34"/>
       <use xlink:href="#DejaVuSans-30" transform="translate(63.623047 0)"/>
       <use xlink:href="#DejaVuSans-30" transform="translate(127.246094 0)"/>
      </g>
     </g>
    </g>
    <g id="ytick_3">
     <g id="line2d_9">
      <g>
       <use xlink:href="#m7661a3b40e" x="50.87" y="192.036727" style="stroke: #000000; stroke-width: 0.8"/>
      </g>
     </g>
     <g id="text_10">
      <!-- 500 -->
      <g transform="translate(24.7825 195.835946) scale(0.1 -0.1)">
       <use xlink:href="#DejaVuSans-35"/>
       <use xlink:href="#DejaVuSans-30" transform="translate(63.623047 0)"/>
       <use xlink:href="#DejaVuSans-30" transform="translate(127.246094 0)"/>
      </g>
     </g>
    </g>
    <g id="ytick_4">
     <g id="line2d_10">
      <g>
       <use xlink:href="#m7661a3b40e" x="50.87" y="124.223" style="stroke: #000000; stroke-width: 0.8"/>
      </g>
     </g>
     <g id="text_11">
      <!-- 600 -->
      <g transform="translate(24.7825 128.022219) scale(0.1 -0.1)">
       <defs>
        <path id="DejaVuSans-36" d="M 2113 2584 
Q 1688 2584 1439 2293 
Q 1191 2003 1191 1497 
Q 1191 994 1439 701 
Q 1688 409 2113 409 
Q 2538 409 2786 701 
Q 3034 994 3034 1497 
Q 3034 2003 2786 2293 
Q 2538 2584 2113 2584 
z
M 3366 4563 
L 3366 3988 
Q 3128 4100 2886 4159 
Q 2644 4219 2406 4219 
Q 1781 4219 1451 3797 
Q 1122 3375 1075 2522 
Q 1259 2794 1537 2939 
Q 1816 3084 2150 3084 
Q 2853 3084 3261 2657 
Q 3669 2231 3669 1497 
Q 3669 778 3244 343 
Q 2819 -91 2113 -91 
Q 1303 -91 875 529 
Q 447 1150 447 2328 
Q 447 3434 972 4092 
Q 1497 4750 2381 4750 
Q 2619 4750 2861 4703 
Q 3103 4656 3366 4563 
z
" transform="scale(0.015625)"/>
       </defs>
       <use xlink:href="#DejaVuSans-36"/>
       <use xlink:href="#DejaVuSans-30" transform="translate(63.623047 0)"/>
       <use xlink:href="#DejaVuSans-30" transform="translate(127.246094 0)"/>
      </g>
     </g>
    </g>
    <g id="ytick_5">
     <g id="line2d_11">
      <g>
       <use xlink:href="#m7661a3b40e" x="50.87" y="56.409274" style="stroke: #000000; stroke-width: 0.8"/>
      </g>
     </g>
     <g id="text_12">
      <!-- 700 -->
      <g transform="translate(24.7825 60.208493) scale(0.1 -0.1)">
       <defs>
        <path id="DejaVuSans-37" d="M 525 4666 
L 3525 4666 
L 3525 4397 
L 1831 0 
L 1172 0 
L 2766 4134 
L 525 4134 
L 525 4666 
z
" transform="scale(0.015625)"/>
       </defs>
       <use xlink:href="#DejaVuSans-37"/>
       <use xlink:href="#DejaVuSans-30" transform="translate(63.623047 0)"/>
       <use xlink:href="#DejaVuSans-30" transform="translate(127.246094 0)"/>
      </g>
     </g>
    </g>
    <g id="text_13">
     <!-- Profit -->
     <g transform="translate(18.702813 229.779063) rotate(-90) scale(0.1 -0.1)">
      <defs>
       <path id="DejaVuSans-50" d="M 1259 4147 
L 1259 2394 
L 2053 2394 
Q 2494 2394 2734 2622 
Q 2975 2850 2975 3272 
Q 2975 3691 2734 3919 
Q 2494 4147 2053 4147 
L 1259 4147 
z
M 628 4666 
L 2053 4666 
Q 2838 4666 3239 4311 
Q 3641 3956 3641 3272 
Q 3641 2581 3239 2228 
Q 2838 1875 2053 1875 
L 1259 1875 
L 1259 0 
L 628 0 
L 628 4666 
z
" transform="scale(0.015625)"/>
       <path id="DejaVuSans-72" d="M 2631 2963 
Q 2534 3019 2420 3045 
Q 2306 3072 2169 3072 
Q 1681 3072 1420 2755 
Q 1159 2438 1159 1844 
L 1159 0 
L 581 0 
L 581 3500 
L 1159 3500 
L 1159 2956 
Q 1341 3275 1631 3429 
Q 1922 3584 2338 3584 
Q 2397 3584 2469 3576 
Q 2541 3569 2628 3553 
L 2631 2963 
z
" transform="scale(0.015625)"/>
       <path id="DejaVuSans-6f" d="M 1959 3097 
Q 1497 3097 1228 2736 
Q 959 2375 959 1747 
Q 959 1119 1226 758 
Q 1494 397 1959 397 
Q 2419 397 2687 759 
Q 2956 1122 2956 1747 
Q 2956 2369 2687 2733 
Q 2419 3097 1959 3097 
z
M 1959 3584 
Q 2709 3584 3137 3096 
Q 3566 2609 3566 1747 
Q 3566 888 3137 398 
Q 2709 -91 1959 -91 
Q 1206 -91 779 398 
Q 353 888 353 1747 
Q 353 2609 779 3096 
Q 1206 3584 1959 3584 
z
" transform="scale(0.015625)"/>
       <path id="DejaVuSans-66" d="M 2375 4863 
L 2375 4384 
L 1825 4384 
Q 1516 4384 1395 4259 
Q 1275 4134 1275 3809 
L 1275 3500 
L 2222 3500 
L 2222 3053 
L 1275 3053 
L 1275 0 
L 697 0 
L 697 3053 
L 147 3053 
L 147 3500 
L 697 3500 
L 697 3744 
Q 697 4328 969 4595 
Q 1241 4863 1831 4863 
L 2375 4863 
z
" transform="scale(0.015625)"/>
       <path id="DejaVuSans-69" d="M 603 3500 
L 1178 3500 
L 1178 0 
L 603 0 
L 603 3500 
z
M 603 4863 
L 1178 4863 
L 1178 4134 
L 603 4134 
L 603 4863 
z
" transform="scale(0.015625)"/>
      </defs>
      <use xlink:href="#DejaVuSans-50"/>
      <use xlink:href="#DejaVuSans-72" transform="translate(58.552734 0)"/>
      <use xlink:href="#DejaVuSans-6f" transform="translate(97.416016 0)"/>
      <use xlink:href="#DejaVuSans-66" transform="translate(158.597656 0)"/>
      <use xlink:href="#DejaVuSans-69" transform="translate(193.802734 0)"/>
      <use xlink:href="#DejaVuSans-74" transform="translate(221.585938 0)"/>
     </g>
    </g>
   </g>
   <g id="line2d_12">
    <path d="M 52.193327 248.451237 
L 54.83998 248.416386 
L 57.486633 237.396386 
L 60.133287 227.895532 
L 62.77994 219.943354 
L 65.426593 213.014425 
L 68.073247 206.757529 
L 70.7199 201.798029 
L 73.366553 197.301438 
L 76.013207 193.339504 
L 78.65986 189.644931 
L 81.306513 186.149217 
L 83.953167 183.137458 
L 86.59982 180.296268 
L 89.246473 177.788601 
L 94.53978 173.397927 
L 99.833087 169.631211 
L 105.126393 166.284067 
L 110.4197 163.369823 
L 115.713007 160.821386 
L 121.006313 158.380564 
L 126.29962 156.18531 
L 131.592927 154.252056 
L 136.886233 152.327659 
L 139.532887 151.350395 
L 152.766153 147.589225 
L 158.05946 146.202777 
L 173.93938 142.775874 
L 187.172647 140.233149 
L 210.992527 136.271857 
L 229.5191 133.692253 
L 248.045673 131.457554 
L 279.805513 128.18454 
L 295.685433 126.858025 
L 303.625393 126.196362 
L 319.505313 124.998446 
L 361.851767 122.231386 
L 390.964953 120.573625 
L 404.19822 119.878187 
L 428.0181 118.723358 
L 441.251367 118.135038 
L 457.131287 117.399161 
L 480.951167 116.445158 
L 502.124393 115.666857 
L 518.004313 115.135737 
L 547.1175 114.128796 
L 594.75726 112.593302 
L 655.630287 111.099736 
L 692.683433 110.202852 
L 719.149967 109.597934 
L 737.67654 109.235024 
L 756.203113 108.8806 
L 777.37634 108.484164 
L 798.549567 108.126056 
L 817.07614 107.784628 
L 830.309407 107.573704 
L 843.542673 107.331488 
L 843.542673 107.331488 
" clip-path="url(#p154ce790b3)" style="fill: none; stroke: #0000ff; stroke-width: 1.5; stroke-linecap: square"/>
   </g>
   <g id="patch_3">
    <path d="M 50.87 390.04 
L 50.87 43.44 
" style="fill: none; stroke: #000000; stroke-width: 0.8; stroke-linejoin: miter; stroke-linecap: square"/>
   </g>
   <g id="patch_4">
    <path d="M 844.866 390.04 
L 844.866 43.44 
" style="fill: none; stroke: #000000; stroke-width: 0.8; stroke-linejoin: miter; stroke-linecap: square"/>
   </g>
   <g id="patch_5">
    <path d="M 50.87 390.04 
L 844.866 390.04 
" style="fill: none; stroke: #000000; stroke-width: 0.8; stroke-linejoin: miter; stroke-linecap: square"/>
   </g>
   <g id="patch_6">
    <path d="M 50.87 43.44 
L 844.866 43.44 
" style="fill: none; stroke: #000000; stroke-width: 0.8; stroke-linejoin: miter; stroke-linecap: square"/>
   </g>
   <g id="text_14">
    <!-- Mean profit per step with confidence interval per simulation step -->
    <g transform="translate(220.284875 21.763062) scale(0.14 -0.14)">
     <defs>
      <path id="DejaVuSans-4d" d="M 628 4666 
L 1569 4666 
L 2759 1491 
L 3956 4666 
L 4897 4666 
L 4897 0 
L 4281 0 
L 4281 4097 
L 3078 897 
L 2444 897 
L 1241 4097 
L 1241 0 
L 628 0 
L 628 4666 
z
" transform="scale(0.015625)"/>
      <path id="DejaVuSans-61" d="M 2194 1759 
Q 1497 1759 1228 1600 
Q 959 1441 959 1056 
Q 959 750 1161 570 
Q 1363 391 1709 391 
Q 2188 391 2477 730 
Q 2766 1069 2766 1631 
L 2766 1759 
L 2194 1759 
z
M 3341 1997 
L 3341 0 
L 2766 0 
L 2766 531 
Q 2569 213 2275 61 
Q 1981 -91 1556 -91 
Q 1019 -91 701 211 
Q 384 513 384 1019 
Q 384 1609 779 1909 
Q 1175 2209 1959 2209 
L 2766 2209 
L 2766 2266 
Q 2766 2663 2505 2880 
Q 2244 3097 1772 3097 
Q 1472 3097 1187 3025 
Q 903 2953 641 2809 
L 641 3341 
Q 956 3463 1253 3523 
Q 1550 3584 1831 3584 
Q 2591 3584 2966 3190 
Q 3341 2797 3341 1997 
z
" transform="scale(0.015625)"/>
      <path id="DejaVuSans-6e" d="M 3513 2113 
L 3513 0 
L 2938 0 
L 2938 2094 
Q 2938 2591 2744 2837 
Q 2550 3084 2163 3084 
Q 1697 3084 1428 2787 
Q 1159 2491 1159 1978 
L 1159 0 
L 581 0 
L 581 3500 
L 1159 3500 
L 1159 2956 
Q 1366 3272 1645 3428 
Q 1925 3584 2291 3584 
Q 2894 3584 3203 3211 
Q 3513 2838 3513 2113 
z
" transform="scale(0.015625)"/>
      <path id="DejaVuSans-20" transform="scale(0.015625)"/>
      <path id="DejaVuSans-73" d="M 2834 3397 
L 2834 2853 
Q 2591 2978 2328 3040 
Q 2066 3103 1784 3103 
Q 1356 3103 1142 2972 
Q 928 2841 928 2578 
Q 928 2378 1081 2264 
Q 1234 2150 1697 2047 
L 1894 2003 
Q 2506 1872 2764 1633 
Q 3022 1394 3022 966 
Q 3022 478 2636 193 
Q 2250 -91 1575 -91 
Q 1294 -91 989 -36 
Q 684 19 347 128 
L 347 722 
Q 666 556 975 473 
Q 1284 391 1588 391 
Q 1994 391 2212 530 
Q 2431 669 2431 922 
Q 2431 1156 2273 1281 
Q 2116 1406 1581 1522 
L 1381 1569 
Q 847 1681 609 1914 
Q 372 2147 372 2553 
Q 372 3047 722 3315 
Q 1072 3584 1716 3584 
Q 2034 3584 2315 3537 
Q 2597 3491 2834 3397 
z
" transform="scale(0.015625)"/>
      <path id="DejaVuSans-77" d="M 269 3500 
L 844 3500 
L 1563 769 
L 2278 3500 
L 2956 3500 
L 3675 769 
L 4391 3500 
L 4966 3500 
L 4050 0 
L 3372 0 
L 2619 2869 
L 1863 0 
L 1184 0 
L 269 3500 
z
" transform="scale(0.015625)"/>
      <path id="DejaVuSans-68" d="M 3513 2113 
L 3513 0 
L 2938 0 
L 2938 2094 
Q 2938 2591 2744 2837 
Q 2550 3084 2163 3084 
Q 1697 3084 1428 2787 
Q 1159 2491 1159 1978 
L 1159 0 
L 581 0 
L 581 4863 
L 1159 4863 
L 1159 2956 
Q 1366 3272 1645 3428 
Q 1925 3584 2291 3584 
Q 2894 3584 3203 3211 
Q 3513 2838 3513 2113 
z
" transform="scale(0.015625)"/>
      <path id="DejaVuSans-63" d="M 3122 3366 
L 3122 2828 
Q 2878 2963 2633 3030 
Q 2388 3097 2138 3097 
Q 1578 3097 1268 2742 
Q 959 2388 959 1747 
Q 959 1106 1268 751 
Q 1578 397 2138 397 
Q 2388 397 2633 464 
Q 2878 531 3122 666 
L 3122 134 
Q 2881 22 2623 -34 
Q 2366 -91 2075 -91 
Q 1284 -91 818 406 
Q 353 903 353 1747 
Q 353 2603 823 3093 
Q 1294 3584 2113 3584 
Q 2378 3584 2631 3529 
Q 2884 3475 3122 3366 
z
" transform="scale(0.015625)"/>
      <path id="DejaVuSans-64" d="M 2906 2969 
L 2906 4863 
L 3481 4863 
L 3481 0 
L 2906 0 
L 2906 525 
Q 2725 213 2448 61 
Q 2172 -91 1784 -91 
Q 1150 -91 751 415 
Q 353 922 353 1747 
Q 353 2572 751 3078 
Q 1150 3584 1784 3584 
Q 2172 3584 2448 3432 
Q 2725 3281 2906 2969 
z
M 947 1747 
Q 947 1113 1208 752 
Q 1469 391 1925 391 
Q 2381 391 2643 752 
Q 2906 1113 2906 1747 
Q 2906 2381 2643 2742 
Q 2381 3103 1925 3103 
Q 1469 3103 1208 2742 
Q 947 2381 947 1747 
z
" transform="scale(0.015625)"/>
      <path id="DejaVuSans-76" d="M 191 3500 
L 800 3500 
L 1894 563 
L 2988 3500 
L 3597 3500 
L 2284 0 
L 1503 0 
L 191 3500 
z
" transform="scale(0.015625)"/>
      <path id="DejaVuSans-6c" d="M 603 4863 
L 1178 4863 
L 1178 0 
L 603 0 
L 603 4863 
z
" transform="scale(0.015625)"/>
      <path id="DejaVuSans-6d" d="M 3328 2828 
Q 3544 3216 3844 3400 
Q 4144 3584 4550 3584 
Q 5097 3584 5394 3201 
Q 5691 2819 5691 2113 
L 5691 0 
L 5113 0 
L 5113 2094 
Q 5113 2597 4934 2840 
Q 4756 3084 4391 3084 
Q 3944 3084 3684 2787 
Q 3425 2491 3425 1978 
L 3425 0 
L 2847 0 
L 2847 2094 
Q 2847 2600 2669 2842 
Q 2491 3084 2119 3084 
Q 1678 3084 1418 2786 
Q 1159 2488 1159 1978 
L 1159 0 
L 581 0 
L 581 3500 
L 1159 3500 
L 1159 2956 
Q 1356 3278 1631 3431 
Q 1906 3584 2284 3584 
Q 2666 3584 2933 3390 
Q 3200 3197 3328 2828 
z
" transform="scale(0.015625)"/>
      <path id="DejaVuSans-75" d="M 544 1381 
L 544 3500 
L 1119 3500 
L 1119 1403 
Q 1119 906 1312 657 
Q 1506 409 1894 409 
Q 2359 409 2629 706 
Q 2900 1003 2900 1516 
L 2900 3500 
L 3475 3500 
L 3475 0 
L 2900 0 
L 2900 538 
Q 2691 219 2414 64 
Q 2138 -91 1772 -91 
Q 1169 -91 856 284 
Q 544 659 544 1381 
z
M 1991 3584 
L 1991 3584 
z
" transform="scale(0.015625)"/>
     </defs>
     <use xlink:href="#DejaVuSans-4d"/>
     <use xlink:href="#DejaVuSans-65" transform="translate(86.279297 0)"/>
     <use xlink:href="#DejaVuSans-61" transform="translate(147.802734 0)"/>
     <use xlink:href="#DejaVuSans-6e" transform="translate(209.082031 0)"/>
     <use xlink:href="#DejaVuSans-20" transform="translate(272.460938 0)"/>
     <use xlink:href="#DejaVuSans-70" transform="translate(304.248047 0)"/>
     <use xlink:href="#DejaVuSans-72" transform="translate(367.724609 0)"/>
     <use xlink:href="#DejaVuSans-6f" transform="translate(406.587891 0)"/>
     <use xlink:href="#DejaVuSans-66" transform="translate(467.769531 0)"/>
     <use xlink:href="#DejaVuSans-69" transform="translate(502.974609 0)"/>
     <use xlink:href="#DejaVuSans-74" transform="translate(530.757812 0)"/>
     <use xlink:href="#DejaVuSans-20" transform="translate(569.966797 0)"/>
     <use xlink:href="#DejaVuSans-70" transform="translate(601.753906 0)"/>
     <use xlink:href="#DejaVuSans-65" transform="translate(665.230469 0)"/>
     <use xlink:href="#DejaVuSans-72" transform="translate(726.753906 0)"/>
     <use xlink:href="#DejaVuSans-20" transform="translate(767.867188 0)"/>
     <use xlink:href="#DejaVuSans-73" transform="translate(799.654297 0)"/>
     <use xlink:href="#DejaVuSans-74" transform="translate(851.753906 0)"/>
     <use xlink:href="#DejaVuSans-65" transform="translate(890.962891 0)"/>
     <use xlink:href="#DejaVuSans-70" transform="translate(952.486328 0)"/>
     <use xlink:href="#DejaVuSans-20" transform="translate(1015.962891 0)"/>
     <use xlink:href="#DejaVuSans-77" transform="translate(1047.75 0)"/>
     <use xlink:href="#DejaVuSans-69" transform="translate(1129.537109 0)"/>
     <use xlink:href="#DejaVuSans-74" transform="translate(1157.320312 0)"/>
     <use xlink:href="#DejaVuSans-68" transform="translate(1196.529297 0)"/>
     <use xlink:href="#DejaVuSans-20" transform="translate(1259.908203 0)"/>
     <use xlink:href="#DejaVuSans-63" transform="translate(1291.695312 0)"/>
     <use xlink:href="#DejaVuSans-6f" transform="translate(1346.675781 0)"/>
     <use xlink:href="#DejaVuSans-6e" transform="translate(1407.857422 0)"/>
     <use xlink:href="#DejaVuSans-66" transform="translate(1471.236328 0)"/>
     <use xlink:href="#DejaVuSans-69" transform="translate(1506.441406 0)"/>
     <use xlink:href="#DejaVuSans-64" transform="translate(1534.224609 0)"/>
     <use xlink:href="#DejaVuSans-65" transform="translate(1597.701172 0)"/>
     <use xlink:href="#DejaVuSans-6e" transform="translate(1659.224609 0)"/>
     <use xlink:href="#DejaVuSans-63" transform="translate(1722.603516 0)"/>
     <use xlink:href="#DejaVuSans-65" transform="translate(1777.583984 0)"/>
     <use xlink:href="#DejaVuSans-20" transform="translate(1839.107422 0)"/>
     <use xlink:href="#DejaVuSans-69" transform="translate(1870.894531 0)"/>
     <use xlink:href="#DejaVuSans-6e" transform="translate(1898.677734 0)"/>
     <use xlink:href="#DejaVuSans-74" transform="translate(1962.056641 0)"/>
     <use xlink:href="#DejaVuSans-65" transform="translate(2001.265625 0)"/>
     <use xlink:href="#DejaVuSans-72" transform="translate(2062.789062 0)"/>
     <use xlink:href="#DejaVuSans-76" transform="translate(2103.902344 0)"/>
     <use xlink:href="#DejaVuSans-61" transform="translate(2163.082031 0)"/>
     <use xlink:href="#DejaVuSans-6c" transform="translate(2224.361328 0)"/>
     <use xlink:href="#DejaVuSans-20" transform="translate(2252.144531 0)"/>
     <use xlink:href="#DejaVuSans-70" transform="translate(2283.931641 0)"/>
     <use xlink:href="#DejaVuSans-65" transform="translate(2347.408203 0)"/>
     <use xlink:href="#DejaVuSans-72" transform="translate(2408.931641 0)"/>
     <use xlink:href="#DejaVuSans-20" transform="translate(2450.044922 0)"/>
     <use xlink:href="#DejaVuSans-73" transform="translate(2481.832031 0)"/>
     <use xlink:href="#DejaVuSans-69" transform="translate(2533.931641 0)"/>
     <use xlink:href="#DejaVuSans-6d" transform="translate(2561.714844 0)"/>
     <use xlink:href="#DejaVuSans-75" transform="translate(2659.126953 0)"/>
     <use xlink:href="#DejaVuSans-6c" transform="translate(2722.505859 0)"/>
     <use xlink:href="#DejaVuSans-61" transform="translate(2750.289062 0)"/>
     <use xlink:href="#DejaVuSans-74" transform="translate(2811.568359 0)"/>
     <use xlink:href="#DejaVuSans-69" transform="translate(2850.777344 0)"/>
     <use xlink:href="#DejaVuSans-6f" transform="translate(2878.560547 0)"/>
     <use xlink:href="#DejaVuSans-6e" transform="translate(2939.742188 0)"/>
     <use xlink:href="#DejaVuSans-20" transform="translate(3003.121094 0)"/>
     <use xlink:href="#DejaVuSans-73" transform="translate(3034.908203 0)"/>
     <use xlink:href="#DejaVuSans-74" transform="translate(3087.007812 0)"/>
     <use xlink:href="#DejaVuSans-65" transform="translate(3126.216797 0)"/>
     <use xlink:href="#DejaVuSans-70" transform="translate(3187.740234 0)"/>
    </g>
    <!-- Base Product: Cocaine, Recipe size: 9, T0: 20.0 -->
    <g transform="translate(283.410656 37.44) scale(0.14 -0.14)">
     <defs>
      <path id="DejaVuSans-42" d="M 1259 2228 
L 1259 519 
L 2272 519 
Q 2781 519 3026 730 
Q 3272 941 3272 1375 
Q 3272 1813 3026 2020 
Q 2781 2228 2272 2228 
L 1259 2228 
z
M 1259 4147 
L 1259 2741 
L 2194 2741 
Q 2656 2741 2882 2914 
Q 3109 3088 3109 3444 
Q 3109 3797 2882 3972 
Q 2656 4147 2194 4147 
L 1259 4147 
z
M 628 4666 
L 2241 4666 
Q 2963 4666 3353 4366 
Q 3744 4066 3744 3513 
Q 3744 3084 3544 2831 
Q 3344 2578 2956 2516 
Q 3422 2416 3680 2098 
Q 3938 1781 3938 1306 
Q 3938 681 3513 340 
Q 3088 0 2303 0 
L 628 0 
L 628 4666 
z
" transform="scale(0.015625)"/>
      <path id="DejaVuSans-3a" d="M 750 794 
L 1409 794 
L 1409 0 
L 750 0 
L 750 794 
z
M 750 3309 
L 1409 3309 
L 1409 2516 
L 750 2516 
L 750 3309 
z
" transform="scale(0.015625)"/>
      <path id="DejaVuSans-43" d="M 4122 4306 
L 4122 3641 
Q 3803 3938 3442 4084 
Q 3081 4231 2675 4231 
Q 1875 4231 1450 3742 
Q 1025 3253 1025 2328 
Q 1025 1406 1450 917 
Q 1875 428 2675 428 
Q 3081 428 3442 575 
Q 3803 722 4122 1019 
L 4122 359 
Q 3791 134 3420 21 
Q 3050 -91 2638 -91 
Q 1578 -91 968 557 
Q 359 1206 359 2328 
Q 359 3453 968 4101 
Q 1578 4750 2638 4750 
Q 3056 4750 3426 4639 
Q 3797 4528 4122 4306 
z
" transform="scale(0.015625)"/>
      <path id="DejaVuSans-2c" d="M 750 794 
L 1409 794 
L 1409 256 
L 897 -744 
L 494 -744 
L 750 256 
L 750 794 
z
" transform="scale(0.015625)"/>
      <path id="DejaVuSans-52" d="M 2841 2188 
Q 3044 2119 3236 1894 
Q 3428 1669 3622 1275 
L 4263 0 
L 3584 0 
L 2988 1197 
Q 2756 1666 2539 1819 
Q 2322 1972 1947 1972 
L 1259 1972 
L 1259 0 
L 628 0 
L 628 4666 
L 2053 4666 
Q 2853 4666 3247 4331 
Q 3641 3997 3641 3322 
Q 3641 2881 3436 2590 
Q 3231 2300 2841 2188 
z
M 1259 4147 
L 1259 2491 
L 2053 2491 
Q 2509 2491 2742 2702 
Q 2975 2913 2975 3322 
Q 2975 3731 2742 3939 
Q 2509 4147 2053 4147 
L 1259 4147 
z
" transform="scale(0.015625)"/>
      <path id="DejaVuSans-7a" d="M 353 3500 
L 3084 3500 
L 3084 2975 
L 922 459 
L 3084 459 
L 3084 0 
L 275 0 
L 275 525 
L 2438 3041 
L 353 3041 
L 353 3500 
z
" transform="scale(0.015625)"/>
      <path id="DejaVuSans-39" d="M 703 97 
L 703 672 
Q 941 559 1184 500 
Q 1428 441 1663 441 
Q 2288 441 2617 861 
Q 2947 1281 2994 2138 
Q 2813 1869 2534 1725 
Q 2256 1581 1919 1581 
Q 1219 1581 811 2004 
Q 403 2428 403 3163 
Q 403 3881 828 4315 
Q 1253 4750 1959 4750 
Q 2769 4750 3195 4129 
Q 3622 3509 3622 2328 
Q 3622 1225 3098 567 
Q 2575 -91 1691 -91 
Q 1453 -91 1209 -44 
Q 966 3 703 97 
z
M 1959 2075 
Q 2384 2075 2632 2365 
Q 2881 2656 2881 3163 
Q 2881 3666 2632 3958 
Q 2384 4250 1959 4250 
Q 1534 4250 1286 3958 
Q 1038 3666 1038 3163 
Q 1038 2656 1286 2365 
Q 1534 2075 1959 2075 
z
" transform="scale(0.015625)"/>
      <path id="DejaVuSans-54" d="M -19 4666 
L 3928 4666 
L 3928 4134 
L 2272 4134 
L 2272 0 
L 1638 0 
L 1638 4134 
L -19 4134 
L -19 4666 
z
" transform="scale(0.015625)"/>
      <path id="DejaVuSans-2e" d="M 684 794 
L 1344 794 
L 1344 0 
L 684 0 
L 684 794 
z
" transform="scale(0.015625)"/>
     </defs>
     <use xlink:href="#DejaVuSans-42"/>
     <use xlink:href="#DejaVuSans-61" transform="translate(68.603516 0)"/>
     <use xlink:href="#DejaVuSans-73" transform="translate(129.882812 0)"/>
     <use xlink:href="#DejaVuSans-65" transform="translate(181.982422 0)"/>
     <use xlink:href="#DejaVuSans-20" transform="translate(243.505859 0)"/>
     <use xlink:href="#DejaVuSans-50" transform="translate(275.292969 0)"/>
     <use xlink:href="#DejaVuSans-72" transform="translate(333.845703 0)"/>
     <use xlink:href="#DejaVuSans-6f" transform="translate(372.708984 0)"/>
     <use xlink:href="#DejaVuSans-64" transform="translate(433.890625 0)"/>
     <use xlink:href="#DejaVuSans-75" transform="translate(497.367188 0)"/>
     <use xlink:href="#DejaVuSans-63" transform="translate(560.746094 0)"/>
     <use xlink:href="#DejaVuSans-74" transform="translate(615.726562 0)"/>
     <use xlink:href="#DejaVuSans-3a" transform="translate(654.935547 0)"/>
     <use xlink:href="#DejaVuSans-20" transform="translate(688.626953 0)"/>
     <use xlink:href="#DejaVuSans-43" transform="translate(720.414062 0)"/>
     <use xlink:href="#DejaVuSans-6f" transform="translate(790.238281 0)"/>
     <use xlink:href="#DejaVuSans-63" transform="translate(851.419922 0)"/>
     <use xlink:href="#DejaVuSans-61" transform="translate(906.400391 0)"/>
     <use xlink:href="#DejaVuSans-69" transform="translate(967.679688 0)"/>
     <use xlink:href="#DejaVuSans-6e" transform="translate(995.462891 0)"/>
     <use xlink:href="#DejaVuSans-65" transform="translate(1058.841797 0)"/>
     <use xlink:href="#DejaVuSans-2c" transform="translate(1120.365234 0)"/>
     <use xlink:href="#DejaVuSans-20" transform="translate(1152.152344 0)"/>
     <use xlink:href="#DejaVuSans-52" transform="translate(1183.939453 0)"/>
     <use xlink:href="#DejaVuSans-65" transform="translate(1248.921875 0)"/>
     <use xlink:href="#DejaVuSans-63" transform="translate(1310.445312 0)"/>
     <use xlink:href="#DejaVuSans-69" transform="translate(1365.425781 0)"/>
     <use xlink:href="#DejaVuSans-70" transform="translate(1393.208984 0)"/>
     <use xlink:href="#DejaVuSans-65" transform="translate(1456.685547 0)"/>
     <use xlink:href="#DejaVuSans-20" transform="translate(1518.208984 0)"/>
     <use xlink:href="#DejaVuSans-73" transform="translate(1549.996094 0)"/>
     <use xlink:href="#DejaVuSans-69" transform="translate(1602.095703 0)"/>
     <use xlink:href="#DejaVuSans-7a" transform="translate(1629.878906 0)"/>
     <use xlink:href="#DejaVuSans-65" transform="translate(1682.369141 0)"/>
     <use xlink:href="#DejaVuSans-3a" transform="translate(1743.892578 0)"/>
     <use xlink:href="#DejaVuSans-20" transform="translate(1777.583984 0)"/>
     <use xlink:href="#DejaVuSans-39" transform="translate(1809.371094 0)"/>
     <use xlink:href="#DejaVuSans-2c" transform="translate(1872.994141 0)"/>
     <use xlink:href="#DejaVuSans-20" transform="translate(1904.78125 0)"/>
     <use xlink:href="#DejaVuSans-54" transform="translate(1936.568359 0)"/>
     <use xlink:href="#DejaVuSans-30" transform="translate(1997.652344 0)"/>
     <use xlink:href="#DejaVuSans-3a" transform="translate(2061.275391 0)"/>
     <use xlink:href="#DejaVuSans-20" transform="translate(2094.966797 0)"/>
     <use xlink:href="#DejaVuSans-32" transform="translate(2126.753906 0)"/>
     <use xlink:href="#DejaVuSans-30" transform="translate(2190.376953 0)"/>
     <use xlink:href="#DejaVuSans-2e" transform="translate(2254 0)"/>
     <use xlink:href="#DejaVuSans-30" transform="translate(2285.787109 0)"/>
    </g>
   </g>
  </g>
 </g>
 <defs>
  <clipPath id="p154ce790b3">
   <rect x="50.87" y="43.44" width="793.996" height="346.6"/>
  </clipPath>
 </defs>
</svg>
