<?xml version="1.0" encoding="utf-8" standalone="no"?>
<!DOCTYPE svg PUBLIC "-//W3C//DTD SVG 1.1//EN"
  "http://www.w3.org/Graphics/SVG/1.1/DTD/svg11.dtd">
<svg xmlns:xlink="http://www.w3.org/1999/xlink" width="864pt" height="432pt" viewBox="0 0 864 432" xmlns="http://www.w3.org/2000/svg" version="1.1">
 <metadata>
  <rdf:RDF xmlns:dc="http://purl.org/dc/elements/1.1/" xmlns:cc="http://creativecommons.org/ns#" xmlns:rdf="http://www.w3.org/1999/02/22-rdf-syntax-ns#">
   <cc:Work>
    <dc:type rdf:resource="http://purl.org/dc/dcmitype/StillImage"/>
    <dc:date>2025-05-24T02:22:05.781675</dc:date>
    <dc:format>image/svg+xml</dc:format>
    <dc:creator>
     <cc:Agent>
      <dc:title>Matplotlib v3.10.3, https://matplotlib.org/</dc:title>
     </cc:Agent>
    </dc:creator>
   </cc:Work>
  </rdf:RDF>
 </metadata>
 <defs>
  <style type="text/css">*{stroke-linejoin: round; stroke-linecap: butt}</style>
 </defs>
 <g id="figure_1">
  <g id="patch_1">
   <path d="M 0 432 
L 864 432 
L 864 0 
L 0 0 
z
" style="fill: #ffffff"/>
  </g>
  <g id="axes_1">
   <g id="patch_2">
    <path d="M 50.87 390.04 
L 844.866 390.04 
L 844.866 43.44 
L 50.87 43.44 
z
" style="fill: #ffffff"/>
   </g>
   <g id="FillBetweenPolyCollection_1">
    <defs>
     <path id="md6ce2668d8" d="M 52.193327 -308.405318 
L 52.193327 -57.829028 
L 54.83998 -57.714545 
L 57.486633 -75.444275 
L 60.133287 -91.426239 
L 62.77994 -104.677841 
L 65.426593 -115.799581 
L 68.073247 -125.995815 
L 70.7199 -133.814704 
L 73.366553 -141.526046 
L 76.013207 -148.420343 
L 78.65986 -154.493157 
L 81.306513 -160.310195 
L 83.953167 -165.088148 
L 86.59982 -169.296245 
L 89.246473 -173.408365 
L 91.893127 -177.346548 
L 94.53978 -180.647179 
L 97.186433 -183.703335 
L 99.833087 -186.849477 
L 102.47974 -190.031032 
L 105.126393 -192.946197 
L 107.773047 -195.376848 
L 110.4197 -197.67306 
L 113.066353 -199.84661 
L 115.713007 -201.697745 
L 118.35966 -203.482697 
L 121.006313 -205.395205 
L 123.652967 -206.970308 
L 126.29962 -208.491523 
L 128.946273 -209.861753 
L 131.592927 -211.675795 
L 134.23958 -213.168397 
L 136.886233 -214.626933 
L 139.532887 -215.953621 
L 142.17954 -217.048441 
L 144.826193 -218.161319 
L 147.472847 -219.255994 
L 150.1195 -220.253384 
L 152.766153 -221.51758 
L 155.412807 -222.529609 
L 158.05946 -223.666166 
L 160.706113 -224.665961 
L 163.352767 -225.41334 
L 165.99942 -226.334243 
L 168.646073 -227.229829 
L 171.292727 -228.280568 
L 173.93938 -229.231618 
L 176.586033 -230.118495 
L 179.232687 -230.802138 
L 181.87934 -231.48744 
L 184.525993 -232.202557 
L 187.172647 -232.783255 
L 189.8193 -233.477431 
L 192.465953 -234.145668 
L 195.112607 -234.840943 
L 197.75926 -235.56369 
L 200.405913 -236.246752 
L 203.052567 -236.778414 
L 205.69922 -237.280178 
L 208.345873 -237.799628 
L 210.992527 -238.323163 
L 213.63918 -238.788227 
L 216.285833 -239.326047 
L 218.932487 -239.867102 
L 221.57914 -240.424122 
L 224.225793 -240.851306 
L 226.872447 -241.263395 
L 229.5191 -241.698125 
L 232.165753 -242.175609 
L 234.812407 -242.570323 
L 237.45906 -243.055977 
L 240.105713 -243.495082 
L 242.752367 -243.982415 
L 245.39902 -244.278373 
L 248.045673 -244.616338 
L 250.692327 -244.99009 
L 253.33898 -245.359549 
L 255.985633 -245.722644 
L 258.632287 -246.080493 
L 261.27894 -246.387916 
L 263.925593 -246.656153 
L 266.572247 -246.882257 
L 269.2189 -247.356631 
L 271.865553 -247.691735 
L 274.512207 -248.021012 
L 277.15886 -248.376705 
L 279.805513 -248.666028 
L 282.452167 -249.04065 
L 285.09882 -249.324914 
L 287.745473 -249.672085 
L 290.392127 -250.056494 
L 293.03878 -250.38065 
L 295.685433 -250.627592 
L 298.332087 -250.919859 
L 300.97874 -251.1758 
L 303.625393 -251.509452 
L 306.272047 -251.920069 
L 308.9187 -252.285071 
L 311.565353 -252.687104 
L 314.212007 -253.024364 
L 316.85866 -253.280761 
L 319.505313 -253.53127 
L 322.151967 -253.838673 
L 324.79862 -254.118707 
L 327.445273 -254.373611 
L 330.091927 -254.707429 
L 332.73858 -255.013173 
L 335.385233 -255.28736 
L 338.031887 -255.625076 
L 340.67854 -255.92319 
L 343.325193 -256.226529 
L 345.971847 -256.461612 
L 348.6185 -256.732482 
L 351.265153 -256.922447 
L 353.911807 -257.213594 
L 356.55846 -257.378886 
L 359.205113 -257.643991 
L 361.851767 -257.847351 
L 364.49842 -258.018365 
L 367.145073 -258.369807 
L 369.791727 -258.592864 
L 372.43838 -258.793487 
L 375.085033 -259.045032 
L 377.731687 -259.292016 
L 380.37834 -259.49579 
L 383.024993 -259.686585 
L 385.671647 -260.000415 
L 388.3183 -260.263281 
L 390.964953 -260.455196 
L 393.611607 -260.722457 
L 396.25826 -260.849101 
L 398.904913 -261.087335 
L 401.551567 -261.315948 
L 404.19822 -261.528472 
L 406.844873 -261.751819 
L 409.491527 -261.98769 
L 412.13818 -262.102017 
L 414.784833 -262.264406 
L 417.431487 -262.384415 
L 420.07814 -262.54809 
L 422.724793 -262.760448 
L 425.371447 -262.900154 
L 428.0181 -263.107494 
L 430.664753 -263.293852 
L 433.311407 -263.459019 
L 435.95806 -263.67486 
L 438.604713 -263.89601 
L 441.251367 -264.106916 
L 443.89802 -264.271337 
L 446.544673 -264.389397 
L 449.191327 -264.542953 
L 451.83798 -264.67308 
L 454.484633 -264.776294 
L 457.131287 -264.916083 
L 459.77794 -265.016145 
L 462.424593 -265.156515 
L 465.071247 -265.363067 
L 467.7179 -265.567173 
L 470.364553 -265.692365 
L 473.011207 -265.800058 
L 475.65786 -265.913058 
L 478.304513 -266.039909 
L 480.951167 -266.189526 
L 483.59782 -266.346068 
L 486.244473 -266.455461 
L 488.891127 -266.573604 
L 491.53778 -266.699293 
L 494.184433 -266.841114 
L 496.831087 -266.986045 
L 499.47774 -267.121812 
L 502.124393 -267.216691 
L 504.771047 -267.29407 
L 507.4177 -267.384595 
L 510.064353 -267.540142 
L 512.711007 -267.643853 
L 515.35766 -267.716215 
L 518.004313 -267.845761 
L 520.650967 -267.934379 
L 523.29762 -268.097929 
L 525.944273 -268.22959 
L 528.590927 -268.362371 
L 531.23758 -268.543171 
L 533.884233 -268.662475 
L 536.530887 -268.771163 
L 539.17754 -268.881966 
L 541.824193 -268.978462 
L 544.470847 -269.105852 
L 547.1175 -269.202016 
L 549.764153 -269.32837 
L 552.410807 -269.425239 
L 555.05746 -269.47583 
L 557.704113 -269.524182 
L 560.350767 -269.616407 
L 562.99742 -269.696772 
L 565.644073 -269.852692 
L 568.290727 -270.011224 
L 570.93738 -270.107721 
L 573.584033 -270.200277 
L 576.230687 -270.255928 
L 578.87734 -270.328414 
L 581.523993 -270.413755 
L 584.170647 -270.449086 
L 586.8173 -270.562584 
L 589.463953 -270.656758 
L 592.110607 -270.787548 
L 594.75726 -270.877037 
L 597.403913 -270.990327 
L 600.050567 -271.116224 
L 602.69722 -271.19236 
L 605.343873 -271.269366 
L 607.990527 -271.381288 
L 610.63718 -271.434533 
L 613.283833 -271.574654 
L 615.930487 -271.650748 
L 618.57714 -271.746125 
L 621.223793 -271.782077 
L 623.870447 -271.932855 
L 626.5171 -272.03777 
L 629.163753 -272.083841 
L 631.810407 -272.118259 
L 634.45706 -272.214382 
L 637.103713 -272.24963 
L 639.750367 -272.307893 
L 642.39702 -272.43549 
L 645.043673 -272.487491 
L 647.690327 -272.586226 
L 650.33698 -272.689316 
L 652.983633 -272.759604 
L 655.630287 -272.907106 
L 658.27694 -272.991826 
L 660.923593 -273.129168 
L 663.570247 -273.208123 
L 666.2169 -273.316521 
L 668.863553 -273.363006 
L 671.510207 -273.423384 
L 674.15686 -273.507937 
L 676.803513 -273.589712 
L 679.450167 -273.674805 
L 682.09682 -273.700432 
L 684.743473 -273.72664 
L 687.390127 -273.784861 
L 690.03678 -273.87352 
L 692.683433 -273.940947 
L 695.330087 -274.000827 
L 697.97674 -274.059463 
L 700.623393 -274.107027 
L 703.270047 -274.146795 
L 705.9167 -274.185899 
L 708.563353 -274.199003 
L 711.210007 -274.25287 
L 713.85666 -274.318182 
L 716.503313 -274.368234 
L 719.149967 -274.434998 
L 721.79662 -274.488865 
L 724.443273 -274.545883 
L 727.089927 -274.624839 
L 729.73658 -274.687124 
L 732.383233 -274.725565 
L 735.029887 -274.774248 
L 737.67654 -274.844205 
L 740.323193 -274.898943 
L 742.969847 -274.985984 
L 745.6165 -275.047233 
L 748.263153 -275.139872 
L 750.909807 -275.216091 
L 753.55646 -275.279122 
L 756.203113 -275.375826 
L 758.849767 -275.455361 
L 761.49642 -275.465106 
L 764.143073 -275.532451 
L 766.789727 -275.599629 
L 769.43638 -275.629362 
L 772.083033 -275.662785 
L 774.729687 -275.757 
L 777.37634 -275.823722 
L 780.022993 -275.898241 
L 782.669647 -275.980886 
L 785.3163 -276.008214 
L 787.962953 -276.052585 
L 790.609607 -276.112548 
L 793.25626 -276.129135 
L 795.902913 -276.185241 
L 798.549567 -276.30865 
L 801.19622 -276.344022 
L 803.842873 -276.378358 
L 806.489527 -276.465856 
L 809.13618 -276.536808 
L 811.782833 -276.608423 
L 814.429487 -276.671911 
L 817.07614 -276.738052 
L 819.722793 -276.805396 
L 822.369447 -276.83911 
L 825.0161 -276.880744 
L 827.662753 -276.966127 
L 830.309407 -277.007263 
L 832.95606 -277.056651 
L 835.602713 -277.127769 
L 838.249367 -277.177365 
L 840.89602 -277.225758 
L 843.542673 -277.317776 
L 843.542673 -372.791894 
L 843.542673 -372.791894 
L 840.89602 -372.805455 
L 838.249367 -372.763282 
L 835.602713 -372.738401 
L 832.95606 -372.738276 
L 830.309407 -372.700996 
L 827.662753 -372.647254 
L 825.0161 -372.653598 
L 822.369447 -372.62059 
L 819.722793 -372.582315 
L 817.07614 -372.568382 
L 814.429487 -372.559134 
L 811.782833 -372.53811 
L 809.13618 -372.508875 
L 806.489527 -372.49291 
L 803.842873 -372.494734 
L 801.19622 -372.452188 
L 798.549567 -372.413498 
L 795.902913 -372.435145 
L 793.25626 -372.390649 
L 790.609607 -372.32795 
L 787.962953 -372.313021 
L 785.3163 -372.280593 
L 782.669647 -372.248289 
L 780.022993 -372.256707 
L 777.37634 -372.228136 
L 774.729687 -372.186378 
L 772.083033 -372.192017 
L 769.43638 -372.145407 
L 766.789727 -372.102571 
L 764.143073 -372.077607 
L 761.49642 -372.058531 
L 758.849767 -371.986667 
L 756.203113 -371.933173 
L 753.55646 -371.932178 
L 750.909807 -371.904312 
L 748.263153 -371.892949 
L 745.6165 -371.882748 
L 742.969847 -371.836097 
L 740.323193 -371.821541 
L 737.67654 -371.769292 
L 735.029887 -371.741964 
L 732.383233 -371.684406 
L 729.73658 -371.632364 
L 727.089927 -371.604995 
L 724.443273 -371.600517 
L 721.79662 -371.568462 
L 719.149967 -371.529108 
L 716.503313 -371.49751 
L 713.85666 -371.447707 
L 711.210007 -371.429751 
L 708.563353 -371.363775 
L 705.9167 -371.294109 
L 703.270047 -371.230704 
L 700.623393 -371.167797 
L 697.97674 -371.132591 
L 695.330087 -371.083575 
L 692.683433 -371.018305 
L 690.03678 -371.00462 
L 687.390127 -370.971031 
L 684.743473 -370.936115 
L 682.09682 -370.844139 
L 679.450167 -370.778287 
L 676.803513 -370.766096 
L 674.15686 -370.733751 
L 671.510207 -370.701696 
L 668.863553 -370.657574 
L 666.2169 -370.611586 
L 663.570247 -370.586622 
L 660.923593 -370.534455 
L 658.27694 -370.536197 
L 655.630287 -370.463835 
L 652.983633 -370.473414 
L 650.33698 -370.405697 
L 647.690327 -370.382558 
L 645.043673 -370.367007 
L 642.39702 -370.314094 
L 639.750367 -370.319775 
L 637.103713 -370.264996 
L 634.45706 -370.19931 
L 631.810407 -370.18463 
L 629.163753 -370.097299 
L 626.5171 -370.020458 
L 623.870447 -369.983718 
L 621.223793 -369.994416 
L 618.57714 -369.880006 
L 615.930487 -369.844094 
L 613.283833 -369.788071 
L 610.63718 -369.797401 
L 607.990527 -369.714963 
L 605.343873 -369.6951 
L 602.69722 -369.655664 
L 600.050567 -369.609385 
L 597.403913 -369.597857 
L 594.75726 -369.57505 
L 592.110607 -369.534328 
L 589.463953 -369.511686 
L 586.8173 -369.456575 
L 584.170647 -369.436878 
L 581.523993 -369.326988 
L 578.87734 -369.275318 
L 576.230687 -369.219171 
L 573.584033 -369.142538 
L 570.93738 -369.075193 
L 568.290727 -369.054169 
L 565.644073 -369.052635 
L 562.99742 -369.068144 
L 560.350767 -368.954521 
L 557.704113 -368.906667 
L 555.05746 -368.802665 
L 552.410807 -368.70621 
L 549.764153 -368.657859 
L 547.1175 -368.617344 
L 544.470847 -368.544153 
L 541.824193 -368.487342 
L 539.17754 -368.410253 
L 536.530887 -368.360989 
L 533.884233 -368.308117 
L 531.23758 -368.282863 
L 528.590927 -368.27714 
L 525.944273 -368.244132 
L 523.29762 -368.214897 
L 520.650967 -368.150123 
L 518.004313 -368.080581 
L 515.35766 -368.036625 
L 512.711007 -367.934904 
L 510.064353 -367.855161 
L 507.4177 -367.845499 
L 504.771047 -367.765092 
L 502.124393 -367.649396 
L 499.47774 -367.554849 
L 496.831087 -367.455492 
L 494.184433 -367.366294 
L 491.53778 -367.333949 
L 488.891127 -367.297249 
L 486.244473 -367.25491 
L 483.59782 -367.21054 
L 480.951167 -367.173177 
L 478.304513 -367.116614 
L 475.65786 -367.079583 
L 473.011207 -367.036498 
L 470.364553 -366.96903 
L 467.7179 -366.893516 
L 465.071247 -366.863991 
L 462.424593 -366.84844 
L 459.77794 -366.783709 
L 457.131287 -366.705375 
L 454.484633 -366.615514 
L 451.83798 -366.490737 
L 449.191327 -366.407635 
L 446.544673 -366.348957 
L 443.89802 -366.252876 
L 441.251367 -366.18491 
L 438.604713 -366.121795 
L 435.95806 -366.065606 
L 433.311407 -366.045909 
L 430.664753 -365.995359 
L 428.0181 -365.96376 
L 425.371447 -365.941699 
L 422.724793 -365.822147 
L 420.07814 -365.720509 
L 417.431487 -365.677589 
L 414.784833 -365.594072 
L 412.13818 -365.539003 
L 409.491527 -365.419616 
L 406.844873 -365.383622 
L 404.19822 -365.339915 
L 401.551567 -365.281154 
L 398.904913 -365.252002 
L 396.25826 -365.214722 
L 393.611607 -365.073316 
L 390.964953 -365.048974 
L 388.3183 -365.01862 
L 385.671647 -364.991873 
L 383.024993 -364.964338 
L 380.37834 -364.818744 
L 377.731687 -364.763342 
L 375.085033 -364.714825 
L 372.43838 -364.657184 
L 369.791727 -364.541488 
L 367.145073 -364.421604 
L 364.49842 -364.456064 
L 361.851767 -364.378519 
L 359.205113 -364.235951 
L 356.55846 -364.214181 
L 353.911807 -364.067218 
L 351.265153 -364.037236 
L 348.6185 -363.889568 
L 345.971847 -363.798836 
L 343.325193 -363.729709 
L 340.67854 -363.677998 
L 338.031887 -363.629688 
L 335.385233 -363.560022 
L 332.73858 -363.524857 
L 330.091927 -363.469414 
L 327.445273 -363.392034 
L 324.79862 -363.254402 
L 322.151967 -363.133274 
L 319.505313 -363.057926 
L 316.85866 -362.957449 
L 314.212007 -362.821392 
L 311.565353 -362.706982 
L 308.9187 -362.6527 
L 306.272047 -362.566446 
L 303.625393 -362.519256 
L 300.97874 -362.423713 
L 298.332087 -362.292674 
L 295.685433 -362.124231 
L 293.03878 -361.931611 
L 290.392127 -361.797462 
L 287.745473 -361.689562 
L 285.09882 -361.590619 
L 282.452167 -361.424042 
L 279.805513 -361.306356 
L 277.15886 -361.084875 
L 274.512207 -360.931277 
L 271.865553 -360.831588 
L 269.2189 -360.605379 
L 266.572247 -360.53534 
L 263.925593 -360.336417 
L 261.27894 -360.093207 
L 258.632287 -359.909047 
L 255.985633 -359.719124 
L 253.33898 -359.548316 
L 250.692327 -359.414375 
L 248.045673 -359.250451 
L 245.39902 -359.077861 
L 242.752367 -358.762911 
L 240.105713 -358.618685 
L 237.45906 -358.420509 
L 234.812407 -358.247048 
L 232.165753 -358.087272 
L 229.5191 -357.963489 
L 226.872447 -357.719864 
L 224.225793 -357.473627 
L 221.57914 -357.254302 
L 218.932487 -357.05115 
L 216.285833 -356.883578 
L 213.63918 -356.654508 
L 210.992527 -356.453595 
L 208.345873 -356.215527 
L 205.69922 -355.98513 
L 203.052567 -355.649736 
L 200.405913 -355.395164 
L 197.75926 -355.239493 
L 195.112607 -355.145236 
L 192.465953 -354.948345 
L 189.8193 -354.653715 
L 187.172647 -354.451516 
L 184.525993 -354.106253 
L 181.87934 -353.814235 
L 179.232687 -353.527441 
L 176.586033 -353.124164 
L 173.93938 -352.949501 
L 171.292727 -352.79553 
L 168.646073 -352.516408 
L 165.99942 -352.227044 
L 163.352767 -351.924825 
L 160.706113 -351.510351 
L 158.05946 -351.267763 
L 155.412807 -351.001372 
L 152.766153 -350.735852 
L 150.1195 -350.457518 
L 147.472847 -349.971844 
L 144.826193 -349.523574 
L 142.17954 -349.109432 
L 139.532887 -348.651625 
L 136.886233 -348.252494 
L 134.23958 -348.005013 
L 131.592927 -347.675424 
L 128.946273 -347.415668 
L 126.29962 -346.833871 
L 123.652967 -346.336171 
L 121.006313 -345.777099 
L 118.35966 -345.47405 
L 115.713007 -344.934882 
L 113.066353 -344.547487 
L 110.4197 -344.071475 
L 107.773047 -343.332472 
L 105.126393 -342.899753 
L 102.47974 -342.67512 
L 99.833087 -342.355111 
L 97.186433 -342.093821 
L 94.53978 -341.314594 
L 91.893127 -340.452348 
L 89.246473 -339.687677 
L 86.59982 -338.464037 
L 83.953167 -337.300276 
L 81.306513 -336.177404 
L 78.65986 -335.202572 
L 76.013207 -333.784198 
L 73.366553 -332.583282 
L 70.7199 -330.559598 
L 68.073247 -327.912649 
L 65.426593 -326.042522 
L 62.77994 -323.412367 
L 60.133287 -320.193947 
L 57.486633 -315.969759 
L 54.83998 -309.161115 
L 52.193327 -308.405318 
z
" style="stroke: #0000ff; stroke-opacity: 0.2"/>
    </defs>
    <g clip-path="url(#p74526ee123)">
     <use xlink:href="#md6ce2668d8" x="0" y="432" style="fill: #0000ff; fill-opacity: 0.2; stroke: #0000ff; stroke-opacity: 0.2"/>
    </g>
   </g>
   <g id="matplotlib.axis_1">
    <g id="xtick_1">
     <g id="line2d_1">
      <defs>
       <path id="m8bdc5b4a8c" d="M 0 0 
L 0 3.5 
" style="stroke: #000000; stroke-width: 0.8"/>
      </defs>
      <g>
       <use xlink:href="#m8bdc5b4a8c" x="181.87934" y="390.04" style="stroke: #000000; stroke-width: 0.8"/>
      </g>
     </g>
     <g id="text_1">
      <!-- 50 -->
      <g transform="translate(175.51684 404.638438) scale(0.1 -0.1)">
       <defs>
        <path id="DejaVuSans-35" d="M 691 4666 
L 3169 4666 
L 3169 4134 
L 1269 4134 
L 1269 2991 
Q 1406 3038 1543 3061 
Q 1681 3084 1819 3084 
Q 2600 3084 3056 2656 
Q 3513 2228 3513 1497 
Q 3513 744 3044 326 
Q 2575 -91 1722 -91 
Q 1428 -91 1123 -41 
Q 819 9 494 109 
L 494 744 
Q 775 591 1075 516 
Q 1375 441 1709 441 
Q 2250 441 2565 725 
Q 2881 1009 2881 1497 
Q 2881 1984 2565 2268 
Q 2250 2553 1709 2553 
Q 1456 2553 1204 2497 
Q 953 2441 691 2322 
L 691 4666 
z
" transform="scale(0.015625)"/>
        <path id="DejaVuSans-30" d="M 2034 4250 
Q 1547 4250 1301 3770 
Q 1056 3291 1056 2328 
Q 1056 1369 1301 889 
Q 1547 409 2034 409 
Q 2525 409 2770 889 
Q 3016 1369 3016 2328 
Q 3016 3291 2770 3770 
Q 2525 4250 2034 4250 
z
M 2034 4750 
Q 2819 4750 3233 4129 
Q 3647 3509 3647 2328 
Q 3647 1150 3233 529 
Q 2819 -91 2034 -91 
Q 1250 -91 836 529 
Q 422 1150 422 2328 
Q 422 3509 836 4129 
Q 1250 4750 2034 4750 
z
" transform="scale(0.015625)"/>
       </defs>
       <use xlink:href="#DejaVuSans-35"/>
       <use xlink:href="#DejaVuSans-30" transform="translate(63.623047 0)"/>
      </g>
     </g>
    </g>
    <g id="xtick_2">
     <g id="line2d_2">
      <g>
       <use xlink:href="#m8bdc5b4a8c" x="314.212007" y="390.04" style="stroke: #000000; stroke-width: 0.8"/>
      </g>
     </g>
     <g id="text_2">
      <!-- 100 -->
      <g transform="translate(304.668257 404.638438) scale(0.1 -0.1)">
       <defs>
        <path id="DejaVuSans-31" d="M 794 531 
L 1825 531 
L 1825 4091 
L 703 3866 
L 703 4441 
L 1819 4666 
L 2450 4666 
L 2450 531 
L 3481 531 
L 3481 0 
L 794 0 
L 794 531 
z
" transform="scale(0.015625)"/>
       </defs>
       <use xlink:href="#DejaVuSans-31"/>
       <use xlink:href="#DejaVuSans-30" transform="translate(63.623047 0)"/>
       <use xlink:href="#DejaVuSans-30" transform="translate(127.246094 0)"/>
      </g>
     </g>
    </g>
    <g id="xtick_3">
     <g id="line2d_3">
      <g>
       <use xlink:href="#m8bdc5b4a8c" x="446.544673" y="390.04" style="stroke: #000000; stroke-width: 0.8"/>
      </g>
     </g>
     <g id="text_3">
      <!-- 150 -->
      <g transform="translate(437.000923 404.638438) scale(0.1 -0.1)">
       <use xlink:href="#DejaVuSans-31"/>
       <use xlink:href="#DejaVuSans-35" transform="translate(63.623047 0)"/>
       <use xlink:href="#DejaVuSans-30" transform="translate(127.246094 0)"/>
      </g>
     </g>
    </g>
    <g id="xtick_4">
     <g id="line2d_4">
      <g>
       <use xlink:href="#m8bdc5b4a8c" x="578.87734" y="390.04" style="stroke: #000000; stroke-width: 0.8"/>
      </g>
     </g>
     <g id="text_4">
      <!-- 200 -->
      <g transform="translate(569.33359 404.638438) scale(0.1 -0.1)">
       <defs>
        <path id="DejaVuSans-32" d="M 1228 531 
L 3431 531 
L 3431 0 
L 469 0 
L 469 531 
Q 828 903 1448 1529 
Q 2069 2156 2228 2338 
Q 2531 2678 2651 2914 
Q 2772 3150 2772 3378 
Q 2772 3750 2511 3984 
Q 2250 4219 1831 4219 
Q 1534 4219 1204 4116 
Q 875 4013 500 3803 
L 500 4441 
Q 881 4594 1212 4672 
Q 1544 4750 1819 4750 
Q 2544 4750 2975 4387 
Q 3406 4025 3406 3419 
Q 3406 3131 3298 2873 
Q 3191 2616 2906 2266 
Q 2828 2175 2409 1742 
Q 1991 1309 1228 531 
z
" transform="scale(0.015625)"/>
       </defs>
       <use xlink:href="#DejaVuSans-32"/>
       <use xlink:href="#DejaVuSans-30" transform="translate(63.623047 0)"/>
       <use xlink:href="#DejaVuSans-30" transform="translate(127.246094 0)"/>
      </g>
     </g>
    </g>
    <g id="xtick_5">
     <g id="line2d_5">
      <g>
       <use xlink:href="#m8bdc5b4a8c" x="711.210007" y="390.04" style="stroke: #000000; stroke-width: 0.8"/>
      </g>
     </g>
     <g id="text_5">
      <!-- 250 -->
      <g transform="translate(701.666257 404.638438) scale(0.1 -0.1)">
       <use xlink:href="#DejaVuSans-32"/>
       <use xlink:href="#DejaVuSans-35" transform="translate(63.623047 0)"/>
       <use xlink:href="#DejaVuSans-30" transform="translate(127.246094 0)"/>
      </g>
     </g>
    </g>
    <g id="xtick_6">
     <g id="line2d_6">
      <g>
       <use xlink:href="#m8bdc5b4a8c" x="843.542673" y="390.04" style="stroke: #000000; stroke-width: 0.8"/>
      </g>
     </g>
     <g id="text_6">
      <!-- 300 -->
      <g transform="translate(833.998923 404.638438) scale(0.1 -0.1)">
       <defs>
        <path id="DejaVuSans-33" d="M 2597 2516 
Q 3050 2419 3304 2112 
Q 3559 1806 3559 1356 
Q 3559 666 3084 287 
Q 2609 -91 1734 -91 
Q 1441 -91 1130 -33 
Q 819 25 488 141 
L 488 750 
Q 750 597 1062 519 
Q 1375 441 1716 441 
Q 2309 441 2620 675 
Q 2931 909 2931 1356 
Q 2931 1769 2642 2001 
Q 2353 2234 1838 2234 
L 1294 2234 
L 1294 2753 
L 1863 2753 
Q 2328 2753 2575 2939 
Q 2822 3125 2822 3475 
Q 2822 3834 2567 4026 
Q 2313 4219 1838 4219 
Q 1578 4219 1281 4162 
Q 984 4106 628 3988 
L 628 4550 
Q 988 4650 1302 4700 
Q 1616 4750 1894 4750 
Q 2613 4750 3031 4423 
Q 3450 4097 3450 3541 
Q 3450 3153 3228 2886 
Q 3006 2619 2597 2516 
z
" transform="scale(0.015625)"/>
       </defs>
       <use xlink:href="#DejaVuSans-33"/>
       <use xlink:href="#DejaVuSans-30" transform="translate(63.623047 0)"/>
       <use xlink:href="#DejaVuSans-30" transform="translate(127.246094 0)"/>
      </g>
     </g>
    </g>
    <g id="text_7">
     <!-- Step -->
     <g transform="translate(436.482844 418.316562) scale(0.1 -0.1)">
      <defs>
       <path id="DejaVuSans-53" d="M 3425 4513 
L 3425 3897 
Q 3066 4069 2747 4153 
Q 2428 4238 2131 4238 
Q 1616 4238 1336 4038 
Q 1056 3838 1056 3469 
Q 1056 3159 1242 3001 
Q 1428 2844 1947 2747 
L 2328 2669 
Q 3034 2534 3370 2195 
Q 3706 1856 3706 1288 
Q 3706 609 3251 259 
Q 2797 -91 1919 -91 
Q 1588 -91 1214 -16 
Q 841 59 441 206 
L 441 856 
Q 825 641 1194 531 
Q 1563 422 1919 422 
Q 2459 422 2753 634 
Q 3047 847 3047 1241 
Q 3047 1584 2836 1778 
Q 2625 1972 2144 2069 
L 1759 2144 
Q 1053 2284 737 2584 
Q 422 2884 422 3419 
Q 422 4038 858 4394 
Q 1294 4750 2059 4750 
Q 2388 4750 2728 4690 
Q 3069 4631 3425 4513 
z
" transform="scale(0.015625)"/>
       <path id="DejaVuSans-74" d="M 1172 4494 
L 1172 3500 
L 2356 3500 
L 2356 3053 
L 1172 3053 
L 1172 1153 
Q 1172 725 1289 603 
Q 1406 481 1766 481 
L 2356 481 
L 2356 0 
L 1766 0 
Q 1100 0 847 248 
Q 594 497 594 1153 
L 594 3053 
L 172 3053 
L 172 3500 
L 594 3500 
L 594 4494 
L 1172 4494 
z
" transform="scale(0.015625)"/>
       <path id="DejaVuSans-65" d="M 3597 1894 
L 3597 1613 
L 953 1613 
Q 991 1019 1311 708 
Q 1631 397 2203 397 
Q 2534 397 2845 478 
Q 3156 559 3463 722 
L 3463 178 
Q 3153 47 2828 -22 
Q 2503 -91 2169 -91 
Q 1331 -91 842 396 
Q 353 884 353 1716 
Q 353 2575 817 3079 
Q 1281 3584 2069 3584 
Q 2775 3584 3186 3129 
Q 3597 2675 3597 1894 
z
M 3022 2063 
Q 3016 2534 2758 2815 
Q 2500 3097 2075 3097 
Q 1594 3097 1305 2825 
Q 1016 2553 972 2059 
L 3022 2063 
z
" transform="scale(0.015625)"/>
       <path id="DejaVuSans-70" d="M 1159 525 
L 1159 -1331 
L 581 -1331 
L 581 3500 
L 1159 3500 
L 1159 2969 
Q 1341 3281 1617 3432 
Q 1894 3584 2278 3584 
Q 2916 3584 3314 3078 
Q 3713 2572 3713 1747 
Q 3713 922 3314 415 
Q 2916 -91 2278 -91 
Q 1894 -91 1617 61 
Q 1341 213 1159 525 
z
M 3116 1747 
Q 3116 2381 2855 2742 
Q 2594 3103 2138 3103 
Q 1681 3103 1420 2742 
Q 1159 2381 1159 1747 
Q 1159 1113 1420 752 
Q 1681 391 2138 391 
Q 2594 391 2855 752 
Q 3116 1113 3116 1747 
z
" transform="scale(0.015625)"/>
      </defs>
      <use xlink:href="#DejaVuSans-53"/>
      <use xlink:href="#DejaVuSans-74" transform="translate(63.476562 0)"/>
      <use xlink:href="#DejaVuSans-65" transform="translate(102.685547 0)"/>
      <use xlink:href="#DejaVuSans-70" transform="translate(164.208984 0)"/>
     </g>
    </g>
   </g>
   <g id="matplotlib.axis_2">
    <g id="ytick_1">
     <g id="line2d_7">
      <defs>
       <path id="m3848c7a9fe" d="M 0 0 
L -3.5 0 
" style="stroke: #000000; stroke-width: 0.8"/>
      </defs>
      <g>
       <use xlink:href="#m3848c7a9fe" x="50.87" y="327.946481" style="stroke: #000000; stroke-width: 0.8"/>
      </g>
     </g>
     <g id="text_8">
      <!-- 300 -->
      <g transform="translate(24.7825 331.7457) scale(0.1 -0.1)">
       <use xlink:href="#DejaVuSans-33"/>
       <use xlink:href="#DejaVuSans-30" transform="translate(63.623047 0)"/>
       <use xlink:href="#DejaVuSans-30" transform="translate(127.246094 0)"/>
      </g>
     </g>
    </g>
    <g id="ytick_2">
     <g id="line2d_8">
      <g>
       <use xlink:href="#m3848c7a9fe" x="50.87" y="260.005178" style="stroke: #000000; stroke-width: 0.8"/>
      </g>
     </g>
     <g id="text_9">
      <!-- 400 -->
      <g transform="translate(24.7825 263.804397) scale(0.1 -0.1)">
       <defs>
        <path id="DejaVuSans-34" d="M 2419 4116 
L 825 1625 
L 2419 1625 
L 2419 4116 
z
M 2253 4666 
L 3047 4666 
L 3047 1625 
L 3713 1625 
L 3713 1100 
L 3047 1100 
L 3047 0 
L 2419 0 
L 2419 1100 
L 313 1100 
L 313 1709 
L 2253 4666 
z
" transform="scale(0.015625)"/>
       </defs>
       <use xlink:href="#DejaVuSans-34"/>
       <use xlink:href="#DejaVuSans-30" transform="translate(63.623047 0)"/>
       <use xlink:href="#DejaVuSans-30" transform="translate(127.246094 0)"/>
      </g>
     </g>
    </g>
    <g id="ytick_3">
     <g id="line2d_9">
      <g>
       <use xlink:href="#m3848c7a9fe" x="50.87" y="192.063874" style="stroke: #000000; stroke-width: 0.8"/>
      </g>
     </g>
     <g id="text_10">
      <!-- 500 -->
      <g transform="translate(24.7825 195.863093) scale(0.1 -0.1)">
       <use xlink:href="#DejaVuSans-35"/>
       <use xlink:href="#DejaVuSans-30" transform="translate(63.623047 0)"/>
       <use xlink:href="#DejaVuSans-30" transform="translate(127.246094 0)"/>
      </g>
     </g>
    </g>
    <g id="ytick_4">
     <g id="line2d_10">
      <g>
       <use xlink:href="#m3848c7a9fe" x="50.87" y="124.122571" style="stroke: #000000; stroke-width: 0.8"/>
      </g>
     </g>
     <g id="text_11">
      <!-- 600 -->
      <g transform="translate(24.7825 127.92179) scale(0.1 -0.1)">
       <defs>
        <path id="DejaVuSans-36" d="M 2113 2584 
Q 1688 2584 1439 2293 
Q 1191 2003 1191 1497 
Q 1191 994 1439 701 
Q 1688 409 2113 409 
Q 2538 409 2786 701 
Q 3034 994 3034 1497 
Q 3034 2003 2786 2293 
Q 2538 2584 2113 2584 
z
M 3366 4563 
L 3366 3988 
Q 3128 4100 2886 4159 
Q 2644 4219 2406 4219 
Q 1781 4219 1451 3797 
Q 1122 3375 1075 2522 
Q 1259 2794 1537 2939 
Q 1816 3084 2150 3084 
Q 2853 3084 3261 2657 
Q 3669 2231 3669 1497 
Q 3669 778 3244 343 
Q 2819 -91 2113 -91 
Q 1303 -91 875 529 
Q 447 1150 447 2328 
Q 447 3434 972 4092 
Q 1497 4750 2381 4750 
Q 2619 4750 2861 4703 
Q 3103 4656 3366 4563 
z
" transform="scale(0.015625)"/>
       </defs>
       <use xlink:href="#DejaVuSans-36"/>
       <use xlink:href="#DejaVuSans-30" transform="translate(63.623047 0)"/>
       <use xlink:href="#DejaVuSans-30" transform="translate(127.246094 0)"/>
      </g>
     </g>
    </g>
    <g id="ytick_5">
     <g id="line2d_11">
      <g>
       <use xlink:href="#m3848c7a9fe" x="50.87" y="56.181267" style="stroke: #000000; stroke-width: 0.8"/>
      </g>
     </g>
     <g id="text_12">
      <!-- 700 -->
      <g transform="translate(24.7825 59.980486) scale(0.1 -0.1)">
       <defs>
        <path id="DejaVuSans-37" d="M 525 4666 
L 3525 4666 
L 3525 4397 
L 1831 0 
L 1172 0 
L 2766 4134 
L 525 4134 
L 525 4666 
z
" transform="scale(0.015625)"/>
       </defs>
       <use xlink:href="#DejaVuSans-37"/>
       <use xlink:href="#DejaVuSans-30" transform="translate(63.623047 0)"/>
       <use xlink:href="#DejaVuSans-30" transform="translate(127.246094 0)"/>
      </g>
     </g>
    </g>
    <g id="text_13">
     <!-- Profit -->
     <g transform="translate(18.702813 229.779063) rotate(-90) scale(0.1 -0.1)">
      <defs>
       <path id="DejaVuSans-50" d="M 1259 4147 
L 1259 2394 
L 2053 2394 
Q 2494 2394 2734 2622 
Q 2975 2850 2975 3272 
Q 2975 3691 2734 3919 
Q 2494 4147 2053 4147 
L 1259 4147 
z
M 628 4666 
L 2053 4666 
Q 2838 4666 3239 4311 
Q 3641 3956 3641 3272 
Q 3641 2581 3239 2228 
Q 2838 1875 2053 1875 
L 1259 1875 
L 1259 0 
L 628 0 
L 628 4666 
z
" transform="scale(0.015625)"/>
       <path id="DejaVuSans-72" d="M 2631 2963 
Q 2534 3019 2420 3045 
Q 2306 3072 2169 3072 
Q 1681 3072 1420 2755 
Q 1159 2438 1159 1844 
L 1159 0 
L 581 0 
L 581 3500 
L 1159 3500 
L 1159 2956 
Q 1341 3275 1631 3429 
Q 1922 3584 2338 3584 
Q 2397 3584 2469 3576 
Q 2541 3569 2628 3553 
L 2631 2963 
z
" transform="scale(0.015625)"/>
       <path id="DejaVuSans-6f" d="M 1959 3097 
Q 1497 3097 1228 2736 
Q 959 2375 959 1747 
Q 959 1119 1226 758 
Q 1494 397 1959 397 
Q 2419 397 2687 759 
Q 2956 1122 2956 1747 
Q 2956 2369 2687 2733 
Q 2419 3097 1959 3097 
z
M 1959 3584 
Q 2709 3584 3137 3096 
Q 3566 2609 3566 1747 
Q 3566 888 3137 398 
Q 2709 -91 1959 -91 
Q 1206 -91 779 398 
Q 353 888 353 1747 
Q 353 2609 779 3096 
Q 1206 3584 1959 3584 
z
" transform="scale(0.015625)"/>
       <path id="DejaVuSans-66" d="M 2375 4863 
L 2375 4384 
L 1825 4384 
Q 1516 4384 1395 4259 
Q 1275 4134 1275 3809 
L 1275 3500 
L 2222 3500 
L 2222 3053 
L 1275 3053 
L 1275 0 
L 697 0 
L 697 3053 
L 147 3053 
L 147 3500 
L 697 3500 
L 697 3744 
Q 697 4328 969 4595 
Q 1241 4863 1831 4863 
L 2375 4863 
z
" transform="scale(0.015625)"/>
       <path id="DejaVuSans-69" d="M 603 3500 
L 1178 3500 
L 1178 0 
L 603 0 
L 603 3500 
z
M 603 4863 
L 1178 4863 
L 1178 4134 
L 603 4134 
L 603 4863 
z
" transform="scale(0.015625)"/>
      </defs>
      <use xlink:href="#DejaVuSans-50"/>
      <use xlink:href="#DejaVuSans-72" transform="translate(58.552734 0)"/>
      <use xlink:href="#DejaVuSans-6f" transform="translate(97.416016 0)"/>
      <use xlink:href="#DejaVuSans-66" transform="translate(158.597656 0)"/>
      <use xlink:href="#DejaVuSans-69" transform="translate(193.802734 0)"/>
      <use xlink:href="#DejaVuSans-74" transform="translate(221.585938 0)"/>
     </g>
    </g>
   </g>
   <g id="line2d_12">
    <path d="M 52.193327 248.882837 
L 54.83998 248.562165 
L 57.486633 236.292983 
L 60.133287 226.189907 
L 62.77994 217.954885 
L 65.426593 211.078938 
L 68.073247 205.045768 
L 70.7199 199.812849 
L 73.366553 194.945325 
L 76.013207 190.89773 
L 78.65986 187.152125 
L 81.306513 183.7562 
L 83.953167 180.805788 
L 89.246473 175.451968 
L 91.893127 173.100562 
L 94.53978 171.019114 
L 97.186433 169.101422 
L 105.126393 164.077025 
L 113.066353 159.802952 
L 123.652967 155.34675 
L 134.23958 151.413295 
L 142.17954 148.921064 
L 152.766153 145.873284 
L 171.292727 141.461951 
L 181.87934 139.349152 
L 189.8193 137.934427 
L 197.75926 136.598409 
L 210.992527 134.611632 
L 218.932487 133.540884 
L 226.872447 132.508371 
L 237.45906 131.261757 
L 248.045673 130.066606 
L 271.865553 127.738339 
L 279.805513 127.013808 
L 298.332087 125.393733 
L 308.9187 124.531114 
L 319.505313 123.705402 
L 351.265153 121.520158 
L 388.3183 119.359049 
L 401.551567 118.701449 
L 417.431487 117.968998 
L 433.311407 117.247536 
L 473.011207 115.581722 
L 496.831087 114.779232 
L 510.064353 114.302349 
L 552.410807 112.934275 
L 629.163753 110.90943 
L 703.270047 109.311251 
L 780.022993 107.922526 
L 843.542673 106.945165 
L 843.542673 106.945165 
" clip-path="url(#p74526ee123)" style="fill: none; stroke: #0000ff; stroke-width: 1.5; stroke-linecap: square"/>
   </g>
   <g id="patch_3">
    <path d="M 50.87 390.04 
L 50.87 43.44 
" style="fill: none; stroke: #000000; stroke-width: 0.8; stroke-linejoin: miter; stroke-linecap: square"/>
   </g>
   <g id="patch_4">
    <path d="M 844.866 390.04 
L 844.866 43.44 
" style="fill: none; stroke: #000000; stroke-width: 0.8; stroke-linejoin: miter; stroke-linecap: square"/>
   </g>
   <g id="patch_5">
    <path d="M 50.87 390.04 
L 844.866 390.04 
" style="fill: none; stroke: #000000; stroke-width: 0.8; stroke-linejoin: miter; stroke-linecap: square"/>
   </g>
   <g id="patch_6">
    <path d="M 50.87 43.44 
L 844.866 43.44 
" style="fill: none; stroke: #000000; stroke-width: 0.8; stroke-linejoin: miter; stroke-linecap: square"/>
   </g>
   <g id="text_14">
    <!-- Mean profit per step with confidence interval per simulation step -->
    <g transform="translate(220.284875 21.763062) scale(0.14 -0.14)">
     <defs>
      <path id="DejaVuSans-4d" d="M 628 4666 
L 1569 4666 
L 2759 1491 
L 3956 4666 
L 4897 4666 
L 4897 0 
L 4281 0 
L 4281 4097 
L 3078 897 
L 2444 897 
L 1241 4097 
L 1241 0 
L 628 0 
L 628 4666 
z
" transform="scale(0.015625)"/>
      <path id="DejaVuSans-61" d="M 2194 1759 
Q 1497 1759 1228 1600 
Q 959 1441 959 1056 
Q 959 750 1161 570 
Q 1363 391 1709 391 
Q 2188 391 2477 730 
Q 2766 1069 2766 1631 
L 2766 1759 
L 2194 1759 
z
M 3341 1997 
L 3341 0 
L 2766 0 
L 2766 531 
Q 2569 213 2275 61 
Q 1981 -91 1556 -91 
Q 1019 -91 701 211 
Q 384 513 384 1019 
Q 384 1609 779 1909 
Q 1175 2209 1959 2209 
L 2766 2209 
L 2766 2266 
Q 2766 2663 2505 2880 
Q 2244 3097 1772 3097 
Q 1472 3097 1187 3025 
Q 903 2953 641 2809 
L 641 3341 
Q 956 3463 1253 3523 
Q 1550 3584 1831 3584 
Q 2591 3584 2966 3190 
Q 3341 2797 3341 1997 
z
" transform="scale(0.015625)"/>
      <path id="DejaVuSans-6e" d="M 3513 2113 
L 3513 0 
L 2938 0 
L 2938 2094 
Q 2938 2591 2744 2837 
Q 2550 3084 2163 3084 
Q 1697 3084 1428 2787 
Q 1159 2491 1159 1978 
L 1159 0 
L 581 0 
L 581 3500 
L 1159 3500 
L 1159 2956 
Q 1366 3272 1645 3428 
Q 1925 3584 2291 3584 
Q 2894 3584 3203 3211 
Q 3513 2838 3513 2113 
z
" transform="scale(0.015625)"/>
      <path id="DejaVuSans-20" transform="scale(0.015625)"/>
      <path id="DejaVuSans-73" d="M 2834 3397 
L 2834 2853 
Q 2591 2978 2328 3040 
Q 2066 3103 1784 3103 
Q 1356 3103 1142 2972 
Q 928 2841 928 2578 
Q 928 2378 1081 2264 
Q 1234 2150 1697 2047 
L 1894 2003 
Q 2506 1872 2764 1633 
Q 3022 1394 3022 966 
Q 3022 478 2636 193 
Q 2250 -91 1575 -91 
Q 1294 -91 989 -36 
Q 684 19 347 128 
L 347 722 
Q 666 556 975 473 
Q 1284 391 1588 391 
Q 1994 391 2212 530 
Q 2431 669 2431 922 
Q 2431 1156 2273 1281 
Q 2116 1406 1581 1522 
L 1381 1569 
Q 847 1681 609 1914 
Q 372 2147 372 2553 
Q 372 3047 722 3315 
Q 1072 3584 1716 3584 
Q 2034 3584 2315 3537 
Q 2597 3491 2834 3397 
z
" transform="scale(0.015625)"/>
      <path id="DejaVuSans-77" d="M 269 3500 
L 844 3500 
L 1563 769 
L 2278 3500 
L 2956 3500 
L 3675 769 
L 4391 3500 
L 4966 3500 
L 4050 0 
L 3372 0 
L 2619 2869 
L 1863 0 
L 1184 0 
L 269 3500 
z
" transform="scale(0.015625)"/>
      <path id="DejaVuSans-68" d="M 3513 2113 
L 3513 0 
L 2938 0 
L 2938 2094 
Q 2938 2591 2744 2837 
Q 2550 3084 2163 3084 
Q 1697 3084 1428 2787 
Q 1159 2491 1159 1978 
L 1159 0 
L 581 0 
L 581 4863 
L 1159 4863 
L 1159 2956 
Q 1366 3272 1645 3428 
Q 1925 3584 2291 3584 
Q 2894 3584 3203 3211 
Q 3513 2838 3513 2113 
z
" transform="scale(0.015625)"/>
      <path id="DejaVuSans-63" d="M 3122 3366 
L 3122 2828 
Q 2878 2963 2633 3030 
Q 2388 3097 2138 3097 
Q 1578 3097 1268 2742 
Q 959 2388 959 1747 
Q 959 1106 1268 751 
Q 1578 397 2138 397 
Q 2388 397 2633 464 
Q 2878 531 3122 666 
L 3122 134 
Q 2881 22 2623 -34 
Q 2366 -91 2075 -91 
Q 1284 -91 818 406 
Q 353 903 353 1747 
Q 353 2603 823 3093 
Q 1294 3584 2113 3584 
Q 2378 3584 2631 3529 
Q 2884 3475 3122 3366 
z
" transform="scale(0.015625)"/>
      <path id="DejaVuSans-64" d="M 2906 2969 
L 2906 4863 
L 3481 4863 
L 3481 0 
L 2906 0 
L 2906 525 
Q 2725 213 2448 61 
Q 2172 -91 1784 -91 
Q 1150 -91 751 415 
Q 353 922 353 1747 
Q 353 2572 751 3078 
Q 1150 3584 1784 3584 
Q 2172 3584 2448 3432 
Q 2725 3281 2906 2969 
z
M 947 1747 
Q 947 1113 1208 752 
Q 1469 391 1925 391 
Q 2381 391 2643 752 
Q 2906 1113 2906 1747 
Q 2906 2381 2643 2742 
Q 2381 3103 1925 3103 
Q 1469 3103 1208 2742 
Q 947 2381 947 1747 
z
" transform="scale(0.015625)"/>
      <path id="DejaVuSans-76" d="M 191 3500 
L 800 3500 
L 1894 563 
L 2988 3500 
L 3597 3500 
L 2284 0 
L 1503 0 
L 191 3500 
z
" transform="scale(0.015625)"/>
      <path id="DejaVuSans-6c" d="M 603 4863 
L 1178 4863 
L 1178 0 
L 603 0 
L 603 4863 
z
" transform="scale(0.015625)"/>
      <path id="DejaVuSans-6d" d="M 3328 2828 
Q 3544 3216 3844 3400 
Q 4144 3584 4550 3584 
Q 5097 3584 5394 3201 
Q 5691 2819 5691 2113 
L 5691 0 
L 5113 0 
L 5113 2094 
Q 5113 2597 4934 2840 
Q 4756 3084 4391 3084 
Q 3944 3084 3684 2787 
Q 3425 2491 3425 1978 
L 3425 0 
L 2847 0 
L 2847 2094 
Q 2847 2600 2669 2842 
Q 2491 3084 2119 3084 
Q 1678 3084 1418 2786 
Q 1159 2488 1159 1978 
L 1159 0 
L 581 0 
L 581 3500 
L 1159 3500 
L 1159 2956 
Q 1356 3278 1631 3431 
Q 1906 3584 2284 3584 
Q 2666 3584 2933 3390 
Q 3200 3197 3328 2828 
z
" transform="scale(0.015625)"/>
      <path id="DejaVuSans-75" d="M 544 1381 
L 544 3500 
L 1119 3500 
L 1119 1403 
Q 1119 906 1312 657 
Q 1506 409 1894 409 
Q 2359 409 2629 706 
Q 2900 1003 2900 1516 
L 2900 3500 
L 3475 3500 
L 3475 0 
L 2900 0 
L 2900 538 
Q 2691 219 2414 64 
Q 2138 -91 1772 -91 
Q 1169 -91 856 284 
Q 544 659 544 1381 
z
M 1991 3584 
L 1991 3584 
z
" transform="scale(0.015625)"/>
     </defs>
     <use xlink:href="#DejaVuSans-4d"/>
     <use xlink:href="#DejaVuSans-65" transform="translate(86.279297 0)"/>
     <use xlink:href="#DejaVuSans-61" transform="translate(147.802734 0)"/>
     <use xlink:href="#DejaVuSans-6e" transform="translate(209.082031 0)"/>
     <use xlink:href="#DejaVuSans-20" transform="translate(272.460938 0)"/>
     <use xlink:href="#DejaVuSans-70" transform="translate(304.248047 0)"/>
     <use xlink:href="#DejaVuSans-72" transform="translate(367.724609 0)"/>
     <use xlink:href="#DejaVuSans-6f" transform="translate(406.587891 0)"/>
     <use xlink:href="#DejaVuSans-66" transform="translate(467.769531 0)"/>
     <use xlink:href="#DejaVuSans-69" transform="translate(502.974609 0)"/>
     <use xlink:href="#DejaVuSans-74" transform="translate(530.757812 0)"/>
     <use xlink:href="#DejaVuSans-20" transform="translate(569.966797 0)"/>
     <use xlink:href="#DejaVuSans-70" transform="translate(601.753906 0)"/>
     <use xlink:href="#DejaVuSans-65" transform="translate(665.230469 0)"/>
     <use xlink:href="#DejaVuSans-72" transform="translate(726.753906 0)"/>
     <use xlink:href="#DejaVuSans-20" transform="translate(767.867188 0)"/>
     <use xlink:href="#DejaVuSans-73" transform="translate(799.654297 0)"/>
     <use xlink:href="#DejaVuSans-74" transform="translate(851.753906 0)"/>
     <use xlink:href="#DejaVuSans-65" transform="translate(890.962891 0)"/>
     <use xlink:href="#DejaVuSans-70" transform="translate(952.486328 0)"/>
     <use xlink:href="#DejaVuSans-20" transform="translate(1015.962891 0)"/>
     <use xlink:href="#DejaVuSans-77" transform="translate(1047.75 0)"/>
     <use xlink:href="#DejaVuSans-69" transform="translate(1129.537109 0)"/>
     <use xlink:href="#DejaVuSans-74" transform="translate(1157.320312 0)"/>
     <use xlink:href="#DejaVuSans-68" transform="translate(1196.529297 0)"/>
     <use xlink:href="#DejaVuSans-20" transform="translate(1259.908203 0)"/>
     <use xlink:href="#DejaVuSans-63" transform="translate(1291.695312 0)"/>
     <use xlink:href="#DejaVuSans-6f" transform="translate(1346.675781 0)"/>
     <use xlink:href="#DejaVuSans-6e" transform="translate(1407.857422 0)"/>
     <use xlink:href="#DejaVuSans-66" transform="translate(1471.236328 0)"/>
     <use xlink:href="#DejaVuSans-69" transform="translate(1506.441406 0)"/>
     <use xlink:href="#DejaVuSans-64" transform="translate(1534.224609 0)"/>
     <use xlink:href="#DejaVuSans-65" transform="translate(1597.701172 0)"/>
     <use xlink:href="#DejaVuSans-6e" transform="translate(1659.224609 0)"/>
     <use xlink:href="#DejaVuSans-63" transform="translate(1722.603516 0)"/>
     <use xlink:href="#DejaVuSans-65" transform="translate(1777.583984 0)"/>
     <use xlink:href="#DejaVuSans-20" transform="translate(1839.107422 0)"/>
     <use xlink:href="#DejaVuSans-69" transform="translate(1870.894531 0)"/>
     <use xlink:href="#DejaVuSans-6e" transform="translate(1898.677734 0)"/>
     <use xlink:href="#DejaVuSans-74" transform="translate(1962.056641 0)"/>
     <use xlink:href="#DejaVuSans-65" transform="translate(2001.265625 0)"/>
     <use xlink:href="#DejaVuSans-72" transform="translate(2062.789062 0)"/>
     <use xlink:href="#DejaVuSans-76" transform="translate(2103.902344 0)"/>
     <use xlink:href="#DejaVuSans-61" transform="translate(2163.082031 0)"/>
     <use xlink:href="#DejaVuSans-6c" transform="translate(2224.361328 0)"/>
     <use xlink:href="#DejaVuSans-20" transform="translate(2252.144531 0)"/>
     <use xlink:href="#DejaVuSans-70" transform="translate(2283.931641 0)"/>
     <use xlink:href="#DejaVuSans-65" transform="translate(2347.408203 0)"/>
     <use xlink:href="#DejaVuSans-72" transform="translate(2408.931641 0)"/>
     <use xlink:href="#DejaVuSans-20" transform="translate(2450.044922 0)"/>
     <use xlink:href="#DejaVuSans-73" transform="translate(2481.832031 0)"/>
     <use xlink:href="#DejaVuSans-69" transform="translate(2533.931641 0)"/>
     <use xlink:href="#DejaVuSans-6d" transform="translate(2561.714844 0)"/>
     <use xlink:href="#DejaVuSans-75" transform="translate(2659.126953 0)"/>
     <use xlink:href="#DejaVuSans-6c" transform="translate(2722.505859 0)"/>
     <use xlink:href="#DejaVuSans-61" transform="translate(2750.289062 0)"/>
     <use xlink:href="#DejaVuSans-74" transform="translate(2811.568359 0)"/>
     <use xlink:href="#DejaVuSans-69" transform="translate(2850.777344 0)"/>
     <use xlink:href="#DejaVuSans-6f" transform="translate(2878.560547 0)"/>
     <use xlink:href="#DejaVuSans-6e" transform="translate(2939.742188 0)"/>
     <use xlink:href="#DejaVuSans-20" transform="translate(3003.121094 0)"/>
     <use xlink:href="#DejaVuSans-73" transform="translate(3034.908203 0)"/>
     <use xlink:href="#DejaVuSans-74" transform="translate(3087.007812 0)"/>
     <use xlink:href="#DejaVuSans-65" transform="translate(3126.216797 0)"/>
     <use xlink:href="#DejaVuSans-70" transform="translate(3187.740234 0)"/>
    </g>
    <!-- Base Product: Cocaine, Recipe size: 9, T0: 10.0 -->
    <g transform="translate(283.410656 37.44) scale(0.14 -0.14)">
     <defs>
      <path id="DejaVuSans-42" d="M 1259 2228 
L 1259 519 
L 2272 519 
Q 2781 519 3026 730 
Q 3272 941 3272 1375 
Q 3272 1813 3026 2020 
Q 2781 2228 2272 2228 
L 1259 2228 
z
M 1259 4147 
L 1259 2741 
L 2194 2741 
Q 2656 2741 2882 2914 
Q 3109 3088 3109 3444 
Q 3109 3797 2882 3972 
Q 2656 4147 2194 4147 
L 1259 4147 
z
M 628 4666 
L 2241 4666 
Q 2963 4666 3353 4366 
Q 3744 4066 3744 3513 
Q 3744 3084 3544 2831 
Q 3344 2578 2956 2516 
Q 3422 2416 3680 2098 
Q 3938 1781 3938 1306 
Q 3938 681 3513 340 
Q 3088 0 2303 0 
L 628 0 
L 628 4666 
z
" transform="scale(0.015625)"/>
      <path id="DejaVuSans-3a" d="M 750 794 
L 1409 794 
L 1409 0 
L 750 0 
L 750 794 
z
M 750 3309 
L 1409 3309 
L 1409 2516 
L 750 2516 
L 750 3309 
z
" transform="scale(0.015625)"/>
      <path id="DejaVuSans-43" d="M 4122 4306 
L 4122 3641 
Q 3803 3938 3442 4084 
Q 3081 4231 2675 4231 
Q 1875 4231 1450 3742 
Q 1025 3253 1025 2328 
Q 1025 1406 1450 917 
Q 1875 428 2675 428 
Q 3081 428 3442 575 
Q 3803 722 4122 1019 
L 4122 359 
Q 3791 134 3420 21 
Q 3050 -91 2638 -91 
Q 1578 -91 968 557 
Q 359 1206 359 2328 
Q 359 3453 968 4101 
Q 1578 4750 2638 4750 
Q 3056 4750 3426 4639 
Q 3797 4528 4122 4306 
z
" transform="scale(0.015625)"/>
      <path id="DejaVuSans-2c" d="M 750 794 
L 1409 794 
L 1409 256 
L 897 -744 
L 494 -744 
L 750 256 
L 750 794 
z
" transform="scale(0.015625)"/>
      <path id="DejaVuSans-52" d="M 2841 2188 
Q 3044 2119 3236 1894 
Q 3428 1669 3622 1275 
L 4263 0 
L 3584 0 
L 2988 1197 
Q 2756 1666 2539 1819 
Q 2322 1972 1947 1972 
L 1259 1972 
L 1259 0 
L 628 0 
L 628 4666 
L 2053 4666 
Q 2853 4666 3247 4331 
Q 3641 3997 3641 3322 
Q 3641 2881 3436 2590 
Q 3231 2300 2841 2188 
z
M 1259 4147 
L 1259 2491 
L 2053 2491 
Q 2509 2491 2742 2702 
Q 2975 2913 2975 3322 
Q 2975 3731 2742 3939 
Q 2509 4147 2053 4147 
L 1259 4147 
z
" transform="scale(0.015625)"/>
      <path id="DejaVuSans-7a" d="M 353 3500 
L 3084 3500 
L 3084 2975 
L 922 459 
L 3084 459 
L 3084 0 
L 275 0 
L 275 525 
L 2438 3041 
L 353 3041 
L 353 3500 
z
" transform="scale(0.015625)"/>
      <path id="DejaVuSans-39" d="M 703 97 
L 703 672 
Q 941 559 1184 500 
Q 1428 441 1663 441 
Q 2288 441 2617 861 
Q 2947 1281 2994 2138 
Q 2813 1869 2534 1725 
Q 2256 1581 1919 1581 
Q 1219 1581 811 2004 
Q 403 2428 403 3163 
Q 403 3881 828 4315 
Q 1253 4750 1959 4750 
Q 2769 4750 3195 4129 
Q 3622 3509 3622 2328 
Q 3622 1225 3098 567 
Q 2575 -91 1691 -91 
Q 1453 -91 1209 -44 
Q 966 3 703 97 
z
M 1959 2075 
Q 2384 2075 2632 2365 
Q 2881 2656 2881 3163 
Q 2881 3666 2632 3958 
Q 2384 4250 1959 4250 
Q 1534 4250 1286 3958 
Q 1038 3666 1038 3163 
Q 1038 2656 1286 2365 
Q 1534 2075 1959 2075 
z
" transform="scale(0.015625)"/>
      <path id="DejaVuSans-54" d="M -19 4666 
L 3928 4666 
L 3928 4134 
L 2272 4134 
L 2272 0 
L 1638 0 
L 1638 4134 
L -19 4134 
L -19 4666 
z
" transform="scale(0.015625)"/>
      <path id="DejaVuSans-2e" d="M 684 794 
L 1344 794 
L 1344 0 
L 684 0 
L 684 794 
z
" transform="scale(0.015625)"/>
     </defs>
     <use xlink:href="#DejaVuSans-42"/>
     <use xlink:href="#DejaVuSans-61" transform="translate(68.603516 0)"/>
     <use xlink:href="#DejaVuSans-73" transform="translate(129.882812 0)"/>
     <use xlink:href="#DejaVuSans-65" transform="translate(181.982422 0)"/>
     <use xlink:href="#DejaVuSans-20" transform="translate(243.505859 0)"/>
     <use xlink:href="#DejaVuSans-50" transform="translate(275.292969 0)"/>
     <use xlink:href="#DejaVuSans-72" transform="translate(333.845703 0)"/>
     <use xlink:href="#DejaVuSans-6f" transform="translate(372.708984 0)"/>
     <use xlink:href="#DejaVuSans-64" transform="translate(433.890625 0)"/>
     <use xlink:href="#DejaVuSans-75" transform="translate(497.367188 0)"/>
     <use xlink:href="#DejaVuSans-63" transform="translate(560.746094 0)"/>
     <use xlink:href="#DejaVuSans-74" transform="translate(615.726562 0)"/>
     <use xlink:href="#DejaVuSans-3a" transform="translate(654.935547 0)"/>
     <use xlink:href="#DejaVuSans-20" transform="translate(688.626953 0)"/>
     <use xlink:href="#DejaVuSans-43" transform="translate(720.414062 0)"/>
     <use xlink:href="#DejaVuSans-6f" transform="translate(790.238281 0)"/>
     <use xlink:href="#DejaVuSans-63" transform="translate(851.419922 0)"/>
     <use xlink:href="#DejaVuSans-61" transform="translate(906.400391 0)"/>
     <use xlink:href="#DejaVuSans-69" transform="translate(967.679688 0)"/>
     <use xlink:href="#DejaVuSans-6e" transform="translate(995.462891 0)"/>
     <use xlink:href="#DejaVuSans-65" transform="translate(1058.841797 0)"/>
     <use xlink:href="#DejaVuSans-2c" transform="translate(1120.365234 0)"/>
     <use xlink:href="#DejaVuSans-20" transform="translate(1152.152344 0)"/>
     <use xlink:href="#DejaVuSans-52" transform="translate(1183.939453 0)"/>
     <use xlink:href="#DejaVuSans-65" transform="translate(1248.921875 0)"/>
     <use xlink:href="#DejaVuSans-63" transform="translate(1310.445312 0)"/>
     <use xlink:href="#DejaVuSans-69" transform="translate(1365.425781 0)"/>
     <use xlink:href="#DejaVuSans-70" transform="translate(1393.208984 0)"/>
     <use xlink:href="#DejaVuSans-65" transform="translate(1456.685547 0)"/>
     <use xlink:href="#DejaVuSans-20" transform="translate(1518.208984 0)"/>
     <use xlink:href="#DejaVuSans-73" transform="translate(1549.996094 0)"/>
     <use xlink:href="#DejaVuSans-69" transform="translate(1602.095703 0)"/>
     <use xlink:href="#DejaVuSans-7a" transform="translate(1629.878906 0)"/>
     <use xlink:href="#DejaVuSans-65" transform="translate(1682.369141 0)"/>
     <use xlink:href="#DejaVuSans-3a" transform="translate(1743.892578 0)"/>
     <use xlink:href="#DejaVuSans-20" transform="translate(1777.583984 0)"/>
     <use xlink:href="#DejaVuSans-39" transform="translate(1809.371094 0)"/>
     <use xlink:href="#DejaVuSans-2c" transform="translate(1872.994141 0)"/>
     <use xlink:href="#DejaVuSans-20" transform="translate(1904.78125 0)"/>
     <use xlink:href="#DejaVuSans-54" transform="translate(1936.568359 0)"/>
     <use xlink:href="#DejaVuSans-30" transform="translate(1997.652344 0)"/>
     <use xlink:href="#DejaVuSans-3a" transform="translate(2061.275391 0)"/>
     <use xlink:href="#DejaVuSans-20" transform="translate(2094.966797 0)"/>
     <use xlink:href="#DejaVuSans-31" transform="translate(2126.753906 0)"/>
     <use xlink:href="#DejaVuSans-30" transform="translate(2190.376953 0)"/>
     <use xlink:href="#DejaVuSans-2e" transform="translate(2254 0)"/>
     <use xlink:href="#DejaVuSans-30" transform="translate(2285.787109 0)"/>
    </g>
   </g>
  </g>
 </g>
 <defs>
  <clipPath id="p74526ee123">
   <rect x="50.87" y="43.44" width="793.996" height="346.6"/>
  </clipPath>
 </defs>
</svg>
