<?xml version="1.0" encoding="utf-8" standalone="no"?>
<!DOCTYPE svg PUBLIC "-//W3C//DTD SVG 1.1//EN"
  "http://www.w3.org/Graphics/SVG/1.1/DTD/svg11.dtd">
<svg xmlns:xlink="http://www.w3.org/1999/xlink" width="864pt" height="432pt" viewBox="0 0 864 432" xmlns="http://www.w3.org/2000/svg" version="1.1">
 <metadata>
  <rdf:RDF xmlns:dc="http://purl.org/dc/elements/1.1/" xmlns:cc="http://creativecommons.org/ns#" xmlns:rdf="http://www.w3.org/1999/02/22-rdf-syntax-ns#">
   <cc:Work>
    <dc:type rdf:resource="http://purl.org/dc/dcmitype/StillImage"/>
    <dc:date>2025-05-24T02:21:51.565150</dc:date>
    <dc:format>image/svg+xml</dc:format>
    <dc:creator>
     <cc:Agent>
      <dc:title>Matplotlib v3.10.3, https://matplotlib.org/</dc:title>
     </cc:Agent>
    </dc:creator>
   </cc:Work>
  </rdf:RDF>
 </metadata>
 <defs>
  <style type="text/css">*{stroke-linejoin: round; stroke-linecap: butt}</style>
 </defs>
 <g id="figure_1">
  <g id="patch_1">
   <path d="M 0 432 
L 864 432 
L 864 0 
L 0 0 
z
" style="fill: #ffffff"/>
  </g>
  <g id="axes_1">
   <g id="patch_2">
    <path d="M 50.87 390.04 
L 844.866 390.04 
L 844.866 43.44 
L 50.87 43.44 
z
" style="fill: #ffffff"/>
   </g>
   <g id="FillBetweenPolyCollection_1">
    <defs>
     <path id="m8a6acb2234" d="M 52.193327 -306.116633 
L 52.193327 -57.714545 
L 54.83998 -60.050907 
L 57.486633 -79.05649 
L 60.133287 -94.056193 
L 62.77994 -107.514294 
L 65.426593 -118.766236 
L 68.073247 -127.88092 
L 70.7199 -136.351449 
L 73.366553 -144.535895 
L 76.013207 -151.324909 
L 78.65986 -156.930291 
L 81.306513 -162.074818 
L 83.953167 -166.740845 
L 86.59982 -170.892364 
L 89.246473 -174.570347 
L 91.893127 -178.303652 
L 94.53978 -181.56246 
L 97.186433 -184.435472 
L 99.833087 -187.170971 
L 102.47974 -189.958245 
L 105.126393 -192.877881 
L 107.773047 -194.969807 
L 110.4197 -197.585795 
L 113.066353 -199.509335 
L 115.713007 -201.30844 
L 118.35966 -203.244079 
L 121.006313 -205.256527 
L 123.652967 -207.093745 
L 126.29962 -208.762346 
L 128.946273 -210.290994 
L 131.592927 -211.660912 
L 134.23958 -212.97676 
L 136.886233 -214.325255 
L 139.532887 -215.56588 
L 142.17954 -216.745153 
L 144.826193 -218.061001 
L 147.472847 -218.970004 
L 150.1195 -220.038841 
L 152.766153 -221.202114 
L 155.412807 -222.210372 
L 158.05946 -223.186066 
L 160.706113 -223.93828 
L 163.352767 -224.961557 
L 165.99942 -225.910904 
L 168.646073 -227.036545 
L 171.292727 -227.849485 
L 173.93938 -228.802461 
L 176.586033 -229.604574 
L 179.232687 -230.339328 
L 181.87934 -230.948772 
L 184.525993 -231.603734 
L 187.172647 -232.334482 
L 189.8193 -233.055259 
L 192.465953 -233.555247 
L 195.112607 -234.304895 
L 197.75926 -235.0724 
L 200.405913 -235.487319 
L 203.052567 -236.031323 
L 205.69922 -236.619092 
L 208.345873 -237.063341 
L 210.992527 -237.698276 
L 213.63918 -238.240215 
L 216.285833 -238.817846 
L 218.932487 -239.48595 
L 221.57914 -239.928092 
L 224.225793 -240.369607 
L 226.872447 -240.881465 
L 229.5191 -241.326673 
L 232.165753 -242.001911 
L 234.812407 -242.408631 
L 237.45906 -242.785959 
L 240.105713 -243.221425 
L 242.752367 -243.729653 
L 245.39902 -244.132514 
L 248.045673 -244.62082 
L 250.692327 -245.136808 
L 253.33898 -245.462714 
L 255.985633 -245.69506 
L 258.632287 -246.075975 
L 261.27894 -246.456432 
L 263.925593 -246.73029 
L 266.572247 -247.05751 
L 269.2189 -247.399708 
L 271.865553 -247.746579 
L 274.512207 -248.151526 
L 277.15886 -248.466939 
L 279.805513 -248.747264 
L 282.452167 -249.073066 
L 285.09882 -249.406169 
L 287.745473 -249.596168 
L 290.392127 -249.96732 
L 293.03878 -250.247354 
L 295.685433 -250.550042 
L 298.332087 -250.890863 
L 300.97874 -251.260472 
L 303.625393 -251.486101 
L 306.272047 -251.831678 
L 308.9187 -252.107289 
L 311.565353 -252.305507 
L 314.212007 -252.616706 
L 316.85866 -252.919853 
L 319.505313 -253.175438 
L 322.151967 -253.462146 
L 324.79862 -253.693449 
L 327.445273 -253.925879 
L 330.091927 -254.167278 
L 332.73858 -254.421236 
L 335.385233 -254.723214 
L 338.031887 -255.034789 
L 340.67854 -255.329675 
L 343.325193 -255.580754 
L 345.971847 -255.834169 
L 348.6185 -256.053331 
L 351.265153 -256.333323 
L 353.911807 -256.484437 
L 356.55846 -256.680777 
L 359.205113 -256.849999 
L 361.851767 -257.02139 
L 364.49842 -257.245225 
L 367.145073 -257.458254 
L 369.791727 -257.686678 
L 372.43838 -257.828822 
L 375.085033 -257.993955 
L 377.731687 -258.125878 
L 380.37834 -258.306615 
L 383.024993 -258.485724 
L 385.671647 -258.635754 
L 388.3183 -258.78958 
L 390.964953 -258.904856 
L 393.611607 -259.124394 
L 396.25826 -259.303712 
L 398.904913 -259.448568 
L 401.551567 -259.519995 
L 404.19822 -259.720341 
L 406.844873 -259.997829 
L 409.491527 -260.15516 
L 412.13818 -260.322463 
L 414.784833 -260.567867 
L 417.431487 -260.71506 
L 420.07814 -260.798753 
L 422.724793 -260.942608 
L 425.371447 -261.08688 
L 428.0181 -261.250636 
L 430.664753 -261.409761 
L 433.311407 -261.556787 
L 435.95806 -261.744032 
L 438.604713 -261.86711 
L 441.251367 -261.930067 
L 443.89802 -262.064494 
L 446.544673 -262.222075 
L 449.191327 -262.44349 
L 451.83798 -262.541326 
L 454.484633 -262.688352 
L 457.131287 -262.895331 
L 459.77794 -263.008855 
L 462.424593 -263.148663 
L 465.071247 -263.245623 
L 467.7179 -263.353765 
L 470.364553 -263.506381 
L 473.011207 -263.583441 
L 475.65786 -263.726879 
L 478.304513 -263.841946 
L 480.951167 -263.994354 
L 483.59782 -264.120227 
L 486.244473 -264.242095 
L 488.891127 -264.384949 
L 491.53778 -264.520292 
L 494.184433 -264.654301 
L 496.831087 -264.759314 
L 499.47774 -264.954528 
L 502.124393 -265.037762 
L 504.771047 -265.185121 
L 507.4177 -265.334442 
L 510.064353 -265.463235 
L 512.711007 -265.597703 
L 515.35766 -265.688113 
L 518.004313 -265.770513 
L 520.650967 -265.815822 
L 523.29762 -265.880115 
L 525.944273 -265.973153 
L 528.590927 -266.080001 
L 531.23758 -266.243424 
L 533.884233 -266.29641 
L 536.530887 -266.403842 
L 539.17754 -266.529256 
L 541.824193 -266.652543 
L 544.470847 -266.808455 
L 547.1175 -266.847339 
L 549.764153 -266.905708 
L 552.410807 -267.038089 
L 555.05746 -267.198674 
L 557.704113 -267.324798 
L 560.350767 -267.431229 
L 562.99742 -267.496565 
L 565.644073 -267.621645 
L 568.290727 -267.682975 
L 570.93738 -267.763456 
L 573.584033 -267.860917 
L 576.230687 -267.949783 
L 578.87734 -268.058717 
L 581.523993 -268.153383 
L 584.170647 -268.234656 
L 586.8173 -268.342881 
L 589.463953 -268.414809 
L 592.110607 -268.474178 
L 594.75726 -268.55082 
L 597.403913 -268.677778 
L 600.050567 -268.733768 
L 602.69722 -268.813497 
L 605.343873 -268.900945 
L 607.990527 -268.981551 
L 610.63718 -269.074422 
L 613.283833 -269.209599 
L 615.930487 -269.285949 
L 618.57714 -269.372354 
L 621.223793 -269.439984 
L 623.870447 -269.483792 
L 626.5171 -269.565857 
L 629.163753 -269.649008 
L 631.810407 -269.740878 
L 634.45706 -269.798662 
L 637.103713 -269.887487 
L 639.750367 -269.986867 
L 642.39702 -270.083201 
L 645.043673 -270.145533 
L 647.690327 -270.259098 
L 650.33698 -270.321055 
L 652.983633 -270.384179 
L 655.630287 -270.457692 
L 658.27694 -270.567794 
L 660.923593 -270.636551 
L 663.570247 -270.698716 
L 666.2169 -270.765553 
L 668.863553 -270.819082 
L 671.510207 -270.908323 
L 674.15686 -270.985341 
L 676.803513 -271.082593 
L 679.450167 -271.123731 
L 682.09682 -271.163616 
L 684.743473 -271.193781 
L 687.390127 -271.297917 
L 690.03678 -271.350361 
L 692.683433 -271.405516 
L 695.330087 -271.462841 
L 697.97674 -271.506231 
L 700.623393 -271.545825 
L 703.270047 -271.615207 
L 705.9167 -271.705701 
L 708.563353 -271.776377 
L 711.210007 -271.840169 
L 713.85666 -271.93279 
L 716.503313 -271.978141 
L 719.149967 -272.049526 
L 721.79662 -272.118575 
L 724.443273 -272.144943 
L 727.089927 -272.200974 
L 729.73658 -272.244198 
L 732.383233 -272.303233 
L 735.029887 -272.40858 
L 737.67654 -272.448423 
L 740.323193 -272.531657 
L 742.969847 -272.59983 
L 745.6165 -272.61147 
L 748.263153 -272.689531 
L 750.909807 -272.717693 
L 753.55646 -272.780024 
L 756.203113 -272.837516 
L 758.849767 -272.918038 
L 761.49642 -272.963765 
L 764.143073 -273.045455 
L 766.789727 -273.140121 
L 769.43638 -273.211047 
L 772.083033 -273.275047 
L 774.729687 -273.31994 
L 777.37634 -273.365708 
L 780.022993 -273.386026 
L 782.669647 -273.459456 
L 785.3163 -273.541772 
L 787.962953 -273.560338 
L 790.609607 -273.598304 
L 793.25626 -273.669022 
L 795.902913 -273.738696 
L 798.549567 -273.806118 
L 801.19622 -273.875751 
L 803.842873 -273.917013 
L 806.489527 -273.963866 
L 809.13618 -274.014224 
L 811.782833 -274.042761 
L 814.429487 -274.062412 
L 817.07614 -274.124451 
L 819.722793 -274.173516 
L 822.369447 -274.221412 
L 825.0161 -274.282658 
L 827.662753 -274.365517 
L 830.309407 -274.400688 
L 832.95606 -274.421841 
L 835.602713 -274.464355 
L 838.249367 -274.533696 
L 840.89602 -274.547839 
L 843.542673 -274.568658 
L 843.542673 -372.805455 
L 843.542673 -372.805455 
L 840.89602 -372.766529 
L 838.249367 -372.711749 
L 835.602713 -372.719842 
L 832.95606 -372.712041 
L 830.309407 -372.662351 
L 827.662753 -372.622089 
L 825.0161 -372.629599 
L 822.369447 -372.632186 
L 819.722793 -372.6044 
L 817.07614 -372.58454 
L 814.429487 -372.589672 
L 811.782833 -372.551914 
L 809.13618 -372.508941 
L 806.489527 -372.51424 
L 803.842873 -372.485327 
L 801.19622 -372.461504 
L 798.549567 -372.449113 
L 795.902913 -372.431507 
L 793.25626 -372.425832 
L 790.609607 -372.404263 
L 787.962953 -372.374557 
L 785.3163 -372.344726 
L 782.669647 -372.344768 
L 780.022993 -372.33876 
L 777.37634 -372.294828 
L 774.729687 -372.257487 
L 772.083033 -372.237711 
L 769.43638 -372.187395 
L 766.789727 -372.167703 
L 764.143073 -372.170498 
L 761.49642 -372.156063 
L 758.849767 -372.100073 
L 756.203113 -372.091061 
L 753.55646 -372.043415 
L 750.909807 -372.014127 
L 748.263153 -371.943493 
L 745.6165 -371.890131 
L 742.969847 -371.807982 
L 740.323193 -371.775022 
L 737.67654 -371.759543 
L 735.029887 -371.746651 
L 732.383233 -371.740936 
L 729.73658 -371.728628 
L 727.089927 -371.701759 
L 724.443273 -371.678437 
L 721.79662 -371.603923 
L 719.149967 -371.564163 
L 716.503313 -371.546014 
L 713.85666 -371.513012 
L 711.210007 -371.491651 
L 708.563353 -371.452892 
L 705.9167 -371.449471 
L 703.270047 -371.444089 
L 700.623393 -371.430279 
L 697.97674 -371.368239 
L 695.330087 -371.308161 
L 692.683433 -371.251503 
L 690.03678 -371.193928 
L 687.390127 -371.14866 
L 684.743473 -371.135059 
L 682.09682 -371.04782 
L 679.450167 -371.02479 
L 676.803513 -370.978729 
L 674.15686 -370.989619 
L 671.510207 -370.963751 
L 668.863553 -370.952528 
L 666.2169 -370.908846 
L 663.570247 -370.864037 
L 660.923593 -370.804376 
L 658.27694 -370.756814 
L 655.630287 -370.771291 
L 652.983633 -370.755437 
L 650.33698 -370.720767 
L 647.690327 -370.67383 
L 645.043673 -370.674831 
L 642.39702 -370.628938 
L 639.750367 -370.644583 
L 637.103713 -370.614377 
L 634.45706 -370.570862 
L 631.810407 -370.51967 
L 629.163753 -370.500562 
L 626.5171 -370.472233 
L 623.870447 -370.455336 
L 621.223793 -370.37498 
L 618.57714 -370.323455 
L 615.930487 -370.27268 
L 613.283833 -370.207428 
L 610.63718 -370.218025 
L 607.990527 -370.210348 
L 605.343873 -370.196163 
L 602.69722 -370.156862 
L 600.050567 -370.111928 
L 597.403913 -370.082055 
L 594.75726 -370.069581 
L 592.110607 -370.008042 
L 589.463953 -369.950758 
L 586.8173 -369.917048 
L 584.170647 -369.881 
L 581.523993 -369.808906 
L 578.87734 -369.755795 
L 576.230687 -369.750162 
L 573.584033 -369.699262 
L 570.93738 -369.649364 
L 568.290727 -369.61436 
L 565.644073 -369.488612 
L 562.99742 -369.427782 
L 560.350767 -369.348511 
L 557.704113 -369.320266 
L 555.05746 -369.287932 
L 552.410807 -369.274623 
L 549.764153 -369.300198 
L 547.1175 -369.209538 
L 544.470847 -369.075696 
L 541.824193 -369.086001 
L 539.17754 -369.049411 
L 536.530887 -369.030387 
L 533.884233 -368.993797 
L 531.23758 -368.864878 
L 528.590927 -368.843392 
L 525.944273 -368.808471 
L 523.29762 -368.75707 
L 520.650967 -368.685602 
L 518.004313 -368.54934 
L 515.35766 -368.470946 
L 512.711007 -368.37094 
L 510.064353 -368.32901 
L 507.4177 -368.251366 
L 504.771047 -368.209353 
L 502.124393 -368.161874 
L 499.47774 -368.104424 
L 496.831087 -368.106719 
L 494.184433 -368.052356 
L 491.53778 -367.976757 
L 488.891127 -367.93053 
L 486.244473 -367.852344 
L 483.59782 -367.805241 
L 480.951167 -367.760057 
L 478.304513 -367.711702 
L 475.65786 -367.661302 
L 473.011207 -367.622335 
L 470.364553 -367.548363 
L 467.7179 -367.449734 
L 465.071247 -367.350854 
L 462.424593 -367.220433 
L 459.77794 -367.127436 
L 457.131287 -367.088677 
L 454.484633 -367.069945 
L 451.83798 -367.012202 
L 449.191327 -366.916452 
L 446.544673 -366.917161 
L 443.89802 -366.86188 
L 441.251367 -366.789202 
L 438.604713 -366.606922 
L 435.95806 -366.53466 
L 433.311407 -366.516804 
L 430.664753 -366.423932 
L 428.0181 -366.350252 
L 425.371447 -366.287044 
L 422.724793 -366.185078 
L 420.07814 -366.093374 
L 417.431487 -365.968461 
L 414.784833 -365.871167 
L 412.13818 -365.84046 
L 409.491527 -365.778045 
L 406.844873 -365.703238 
L 404.19822 -365.712125 
L 401.551567 -365.620755 
L 398.904913 -365.43885 
L 396.25826 -365.310349 
L 393.611607 -365.199871 
L 390.964953 -365.147886 
L 388.3183 -364.999984 
L 385.671647 -364.854001 
L 383.024993 -364.746778 
L 380.37834 -364.639012 
L 377.731687 -364.586443 
L 375.085033 -364.419474 
L 372.43838 -364.320761 
L 369.791727 -364.20098 
L 367.145073 -364.145198 
L 364.49842 -364.007101 
L 361.851767 -363.8985 
L 359.205113 -363.777425 
L 356.55846 -363.581502 
L 353.911807 -363.447493 
L 351.265153 -363.353119 
L 348.6185 -363.281985 
L 345.971847 -363.203674 
L 343.325193 -363.122484 
L 340.67854 -362.985221 
L 338.031887 -362.949007 
L 335.385233 -362.896688 
L 332.73858 -362.82159 
L 330.091927 -362.714325 
L 327.445273 -362.628629 
L 324.79862 -362.517358 
L 322.151967 -362.363157 
L 319.505313 -362.268533 
L 316.85866 -362.149627 
L 314.212007 -362.063014 
L 311.565353 -361.958084 
L 308.9187 -361.778808 
L 306.272047 -361.686687 
L 303.625393 -361.604121 
L 300.97874 -361.37649 
L 298.332087 -361.276233 
L 295.685433 -361.175059 
L 293.03878 -361.091658 
L 290.392127 -360.943297 
L 287.745473 -360.886223 
L 285.09882 -360.705236 
L 282.452167 -360.568807 
L 279.805513 -360.424743 
L 277.15886 -360.261571 
L 274.512207 -360.151427 
L 271.865553 -360.061226 
L 269.2189 -359.937647 
L 266.572247 -359.76634 
L 263.925593 -359.561864 
L 261.27894 -359.363854 
L 258.632287 -359.230138 
L 255.985633 -359.121162 
L 253.33898 -358.89499 
L 250.692327 -358.705617 
L 248.045673 -358.646874 
L 245.39902 -358.489918 
L 242.752367 -358.360916 
L 240.105713 -358.262037 
L 237.45906 -358.062233 
L 234.812407 -357.748072 
L 232.165753 -357.490109 
L 229.5191 -357.457984 
L 226.872447 -357.15054 
L 224.225793 -356.929375 
L 221.57914 -356.748305 
L 218.932487 -356.467687 
L 216.285833 -356.357835 
L 213.63918 -356.227206 
L 210.992527 -355.943876 
L 208.345873 -355.792887 
L 205.69922 -355.519946 
L 203.052567 -355.338542 
L 200.405913 -355.053961 
L 197.75926 -354.70805 
L 195.112607 -354.593066 
L 192.465953 -354.49936 
L 189.8193 -354.169344 
L 187.172647 -353.950808 
L 184.525993 -353.643781 
L 181.87934 -353.403592 
L 179.232687 -353.08263 
L 176.586033 -352.831426 
L 173.93938 -352.596577 
L 171.292727 -352.325054 
L 168.646073 -352.137934 
L 165.99942 -352.016192 
L 163.352767 -351.78322 
L 160.706113 -351.541946 
L 158.05946 -351.134537 
L 155.412807 -350.87186 
L 152.766153 -350.599629 
L 150.1195 -350.433494 
L 147.472847 -349.973976 
L 144.826193 -349.530061 
L 142.17954 -349.133334 
L 139.532887 -348.69017 
L 136.886233 -348.206537 
L 134.23958 -347.851697 
L 131.592927 -347.400815 
L 128.946273 -346.857312 
L 126.29962 -346.504975 
L 123.652967 -346.116467 
L 121.006313 -345.785033 
L 118.35966 -345.496905 
L 115.713007 -345.130926 
L 113.066353 -344.597895 
L 110.4197 -343.907408 
L 107.773047 -343.77949 
L 105.126393 -343.175699 
L 102.47974 -342.839843 
L 99.833087 -342.379198 
L 97.186433 -341.783835 
L 94.53978 -340.856538 
L 91.893127 -340.003629 
L 89.246473 -339.261241 
L 86.59982 -338.228805 
L 83.953167 -337.163077 
L 81.306513 -336.2644 
L 78.65986 -334.669937 
L 76.013207 -333.259924 
L 73.366553 -331.848117 
L 70.7199 -330.812261 
L 68.073247 -328.725737 
L 65.426593 -325.922775 
L 62.77994 -322.976876 
L 60.133287 -319.564533 
L 57.486633 -314.448793 
L 54.83998 -307.809224 
L 52.193327 -306.116633 
z
" style="stroke: #0000ff; stroke-opacity: 0.2"/>
    </defs>
    <g clip-path="url(#pdbda183b1b)">
     <use xlink:href="#m8a6acb2234" x="0" y="432" style="fill: #0000ff; fill-opacity: 0.2; stroke: #0000ff; stroke-opacity: 0.2"/>
    </g>
   </g>
   <g id="matplotlib.axis_1">
    <g id="xtick_1">
     <g id="line2d_1">
      <defs>
       <path id="mef7d057072" d="M 0 0 
L 0 3.5 
" style="stroke: #000000; stroke-width: 0.8"/>
      </defs>
      <g>
       <use xlink:href="#mef7d057072" x="181.87934" y="390.04" style="stroke: #000000; stroke-width: 0.8"/>
      </g>
     </g>
     <g id="text_1">
      <!-- 50 -->
      <g transform="translate(175.51684 404.638438) scale(0.1 -0.1)">
       <defs>
        <path id="DejaVuSans-35" d="M 691 4666 
L 3169 4666 
L 3169 4134 
L 1269 4134 
L 1269 2991 
Q 1406 3038 1543 3061 
Q 1681 3084 1819 3084 
Q 2600 3084 3056 2656 
Q 3513 2228 3513 1497 
Q 3513 744 3044 326 
Q 2575 -91 1722 -91 
Q 1428 -91 1123 -41 
Q 819 9 494 109 
L 494 744 
Q 775 591 1075 516 
Q 1375 441 1709 441 
Q 2250 441 2565 725 
Q 2881 1009 2881 1497 
Q 2881 1984 2565 2268 
Q 2250 2553 1709 2553 
Q 1456 2553 1204 2497 
Q 953 2441 691 2322 
L 691 4666 
z
" transform="scale(0.015625)"/>
        <path id="DejaVuSans-30" d="M 2034 4250 
Q 1547 4250 1301 3770 
Q 1056 3291 1056 2328 
Q 1056 1369 1301 889 
Q 1547 409 2034 409 
Q 2525 409 2770 889 
Q 3016 1369 3016 2328 
Q 3016 3291 2770 3770 
Q 2525 4250 2034 4250 
z
M 2034 4750 
Q 2819 4750 3233 4129 
Q 3647 3509 3647 2328 
Q 3647 1150 3233 529 
Q 2819 -91 2034 -91 
Q 1250 -91 836 529 
Q 422 1150 422 2328 
Q 422 3509 836 4129 
Q 1250 4750 2034 4750 
z
" transform="scale(0.015625)"/>
       </defs>
       <use xlink:href="#DejaVuSans-35"/>
       <use xlink:href="#DejaVuSans-30" transform="translate(63.623047 0)"/>
      </g>
     </g>
    </g>
    <g id="xtick_2">
     <g id="line2d_2">
      <g>
       <use xlink:href="#mef7d057072" x="314.212007" y="390.04" style="stroke: #000000; stroke-width: 0.8"/>
      </g>
     </g>
     <g id="text_2">
      <!-- 100 -->
      <g transform="translate(304.668257 404.638438) scale(0.1 -0.1)">
       <defs>
        <path id="DejaVuSans-31" d="M 794 531 
L 1825 531 
L 1825 4091 
L 703 3866 
L 703 4441 
L 1819 4666 
L 2450 4666 
L 2450 531 
L 3481 531 
L 3481 0 
L 794 0 
L 794 531 
z
" transform="scale(0.015625)"/>
       </defs>
       <use xlink:href="#DejaVuSans-31"/>
       <use xlink:href="#DejaVuSans-30" transform="translate(63.623047 0)"/>
       <use xlink:href="#DejaVuSans-30" transform="translate(127.246094 0)"/>
      </g>
     </g>
    </g>
    <g id="xtick_3">
     <g id="line2d_3">
      <g>
       <use xlink:href="#mef7d057072" x="446.544673" y="390.04" style="stroke: #000000; stroke-width: 0.8"/>
      </g>
     </g>
     <g id="text_3">
      <!-- 150 -->
      <g transform="translate(437.000923 404.638438) scale(0.1 -0.1)">
       <use xlink:href="#DejaVuSans-31"/>
       <use xlink:href="#DejaVuSans-35" transform="translate(63.623047 0)"/>
       <use xlink:href="#DejaVuSans-30" transform="translate(127.246094 0)"/>
      </g>
     </g>
    </g>
    <g id="xtick_4">
     <g id="line2d_4">
      <g>
       <use xlink:href="#mef7d057072" x="578.87734" y="390.04" style="stroke: #000000; stroke-width: 0.8"/>
      </g>
     </g>
     <g id="text_4">
      <!-- 200 -->
      <g transform="translate(569.33359 404.638438) scale(0.1 -0.1)">
       <defs>
        <path id="DejaVuSans-32" d="M 1228 531 
L 3431 531 
L 3431 0 
L 469 0 
L 469 531 
Q 828 903 1448 1529 
Q 2069 2156 2228 2338 
Q 2531 2678 2651 2914 
Q 2772 3150 2772 3378 
Q 2772 3750 2511 3984 
Q 2250 4219 1831 4219 
Q 1534 4219 1204 4116 
Q 875 4013 500 3803 
L 500 4441 
Q 881 4594 1212 4672 
Q 1544 4750 1819 4750 
Q 2544 4750 2975 4387 
Q 3406 4025 3406 3419 
Q 3406 3131 3298 2873 
Q 3191 2616 2906 2266 
Q 2828 2175 2409 1742 
Q 1991 1309 1228 531 
z
" transform="scale(0.015625)"/>
       </defs>
       <use xlink:href="#DejaVuSans-32"/>
       <use xlink:href="#DejaVuSans-30" transform="translate(63.623047 0)"/>
       <use xlink:href="#DejaVuSans-30" transform="translate(127.246094 0)"/>
      </g>
     </g>
    </g>
    <g id="xtick_5">
     <g id="line2d_5">
      <g>
       <use xlink:href="#mef7d057072" x="711.210007" y="390.04" style="stroke: #000000; stroke-width: 0.8"/>
      </g>
     </g>
     <g id="text_5">
      <!-- 250 -->
      <g transform="translate(701.666257 404.638438) scale(0.1 -0.1)">
       <use xlink:href="#DejaVuSans-32"/>
       <use xlink:href="#DejaVuSans-35" transform="translate(63.623047 0)"/>
       <use xlink:href="#DejaVuSans-30" transform="translate(127.246094 0)"/>
      </g>
     </g>
    </g>
    <g id="xtick_6">
     <g id="line2d_6">
      <g>
       <use xlink:href="#mef7d057072" x="843.542673" y="390.04" style="stroke: #000000; stroke-width: 0.8"/>
      </g>
     </g>
     <g id="text_6">
      <!-- 300 -->
      <g transform="translate(833.998923 404.638438) scale(0.1 -0.1)">
       <defs>
        <path id="DejaVuSans-33" d="M 2597 2516 
Q 3050 2419 3304 2112 
Q 3559 1806 3559 1356 
Q 3559 666 3084 287 
Q 2609 -91 1734 -91 
Q 1441 -91 1130 -33 
Q 819 25 488 141 
L 488 750 
Q 750 597 1062 519 
Q 1375 441 1716 441 
Q 2309 441 2620 675 
Q 2931 909 2931 1356 
Q 2931 1769 2642 2001 
Q 2353 2234 1838 2234 
L 1294 2234 
L 1294 2753 
L 1863 2753 
Q 2328 2753 2575 2939 
Q 2822 3125 2822 3475 
Q 2822 3834 2567 4026 
Q 2313 4219 1838 4219 
Q 1578 4219 1281 4162 
Q 984 4106 628 3988 
L 628 4550 
Q 988 4650 1302 4700 
Q 1616 4750 1894 4750 
Q 2613 4750 3031 4423 
Q 3450 4097 3450 3541 
Q 3450 3153 3228 2886 
Q 3006 2619 2597 2516 
z
" transform="scale(0.015625)"/>
       </defs>
       <use xlink:href="#DejaVuSans-33"/>
       <use xlink:href="#DejaVuSans-30" transform="translate(63.623047 0)"/>
       <use xlink:href="#DejaVuSans-30" transform="translate(127.246094 0)"/>
      </g>
     </g>
    </g>
    <g id="text_7">
     <!-- Step -->
     <g transform="translate(436.482844 418.316562) scale(0.1 -0.1)">
      <defs>
       <path id="DejaVuSans-53" d="M 3425 4513 
L 3425 3897 
Q 3066 4069 2747 4153 
Q 2428 4238 2131 4238 
Q 1616 4238 1336 4038 
Q 1056 3838 1056 3469 
Q 1056 3159 1242 3001 
Q 1428 2844 1947 2747 
L 2328 2669 
Q 3034 2534 3370 2195 
Q 3706 1856 3706 1288 
Q 3706 609 3251 259 
Q 2797 -91 1919 -91 
Q 1588 -91 1214 -16 
Q 841 59 441 206 
L 441 856 
Q 825 641 1194 531 
Q 1563 422 1919 422 
Q 2459 422 2753 634 
Q 3047 847 3047 1241 
Q 3047 1584 2836 1778 
Q 2625 1972 2144 2069 
L 1759 2144 
Q 1053 2284 737 2584 
Q 422 2884 422 3419 
Q 422 4038 858 4394 
Q 1294 4750 2059 4750 
Q 2388 4750 2728 4690 
Q 3069 4631 3425 4513 
z
" transform="scale(0.015625)"/>
       <path id="DejaVuSans-74" d="M 1172 4494 
L 1172 3500 
L 2356 3500 
L 2356 3053 
L 1172 3053 
L 1172 1153 
Q 1172 725 1289 603 
Q 1406 481 1766 481 
L 2356 481 
L 2356 0 
L 1766 0 
Q 1100 0 847 248 
Q 594 497 594 1153 
L 594 3053 
L 172 3053 
L 172 3500 
L 594 3500 
L 594 4494 
L 1172 4494 
z
" transform="scale(0.015625)"/>
       <path id="DejaVuSans-65" d="M 3597 1894 
L 3597 1613 
L 953 1613 
Q 991 1019 1311 708 
Q 1631 397 2203 397 
Q 2534 397 2845 478 
Q 3156 559 3463 722 
L 3463 178 
Q 3153 47 2828 -22 
Q 2503 -91 2169 -91 
Q 1331 -91 842 396 
Q 353 884 353 1716 
Q 353 2575 817 3079 
Q 1281 3584 2069 3584 
Q 2775 3584 3186 3129 
Q 3597 2675 3597 1894 
z
M 3022 2063 
Q 3016 2534 2758 2815 
Q 2500 3097 2075 3097 
Q 1594 3097 1305 2825 
Q 1016 2553 972 2059 
L 3022 2063 
z
" transform="scale(0.015625)"/>
       <path id="DejaVuSans-70" d="M 1159 525 
L 1159 -1331 
L 581 -1331 
L 581 3500 
L 1159 3500 
L 1159 2969 
Q 1341 3281 1617 3432 
Q 1894 3584 2278 3584 
Q 2916 3584 3314 3078 
Q 3713 2572 3713 1747 
Q 3713 922 3314 415 
Q 2916 -91 2278 -91 
Q 1894 -91 1617 61 
Q 1341 213 1159 525 
z
M 3116 1747 
Q 3116 2381 2855 2742 
Q 2594 3103 2138 3103 
Q 1681 3103 1420 2742 
Q 1159 2381 1159 1747 
Q 1159 1113 1420 752 
Q 1681 391 2138 391 
Q 2594 391 2855 752 
Q 3116 1113 3116 1747 
z
" transform="scale(0.015625)"/>
      </defs>
      <use xlink:href="#DejaVuSans-53"/>
      <use xlink:href="#DejaVuSans-74" transform="translate(63.476562 0)"/>
      <use xlink:href="#DejaVuSans-65" transform="translate(102.685547 0)"/>
      <use xlink:href="#DejaVuSans-70" transform="translate(164.208984 0)"/>
     </g>
    </g>
   </g>
   <g id="matplotlib.axis_2">
    <g id="ytick_1">
     <g id="line2d_7">
      <defs>
       <path id="m3c92c8000d" d="M 0 0 
L -3.5 0 
" style="stroke: #000000; stroke-width: 0.8"/>
      </defs>
      <g>
       <use xlink:href="#m3c92c8000d" x="50.87" y="329.760696" style="stroke: #000000; stroke-width: 0.8"/>
      </g>
     </g>
     <g id="text_8">
      <!-- 300 -->
      <g transform="translate(24.7825 333.559915) scale(0.1 -0.1)">
       <use xlink:href="#DejaVuSans-33"/>
       <use xlink:href="#DejaVuSans-30" transform="translate(63.623047 0)"/>
       <use xlink:href="#DejaVuSans-30" transform="translate(127.246094 0)"/>
      </g>
     </g>
    </g>
    <g id="ytick_2">
     <g id="line2d_8">
      <g>
       <use xlink:href="#m3c92c8000d" x="50.87" y="261.404525" style="stroke: #000000; stroke-width: 0.8"/>
      </g>
     </g>
     <g id="text_9">
      <!-- 400 -->
      <g transform="translate(24.7825 265.203744) scale(0.1 -0.1)">
       <defs>
        <path id="DejaVuSans-34" d="M 2419 4116 
L 825 1625 
L 2419 1625 
L 2419 4116 
z
M 2253 4666 
L 3047 4666 
L 3047 1625 
L 3713 1625 
L 3713 1100 
L 3047 1100 
L 3047 0 
L 2419 0 
L 2419 1100 
L 313 1100 
L 313 1709 
L 2253 4666 
z
" transform="scale(0.015625)"/>
       </defs>
       <use xlink:href="#DejaVuSans-34"/>
       <use xlink:href="#DejaVuSans-30" transform="translate(63.623047 0)"/>
       <use xlink:href="#DejaVuSans-30" transform="translate(127.246094 0)"/>
      </g>
     </g>
    </g>
    <g id="ytick_3">
     <g id="line2d_9">
      <g>
       <use xlink:href="#m3c92c8000d" x="50.87" y="193.048353" style="stroke: #000000; stroke-width: 0.8"/>
      </g>
     </g>
     <g id="text_10">
      <!-- 500 -->
      <g transform="translate(24.7825 196.847572) scale(0.1 -0.1)">
       <use xlink:href="#DejaVuSans-35"/>
       <use xlink:href="#DejaVuSans-30" transform="translate(63.623047 0)"/>
       <use xlink:href="#DejaVuSans-30" transform="translate(127.246094 0)"/>
      </g>
     </g>
    </g>
    <g id="ytick_4">
     <g id="line2d_10">
      <g>
       <use xlink:href="#m3c92c8000d" x="50.87" y="124.692182" style="stroke: #000000; stroke-width: 0.8"/>
      </g>
     </g>
     <g id="text_11">
      <!-- 600 -->
      <g transform="translate(24.7825 128.491401) scale(0.1 -0.1)">
       <defs>
        <path id="DejaVuSans-36" d="M 2113 2584 
Q 1688 2584 1439 2293 
Q 1191 2003 1191 1497 
Q 1191 994 1439 701 
Q 1688 409 2113 409 
Q 2538 409 2786 701 
Q 3034 994 3034 1497 
Q 3034 2003 2786 2293 
Q 2538 2584 2113 2584 
z
M 3366 4563 
L 3366 3988 
Q 3128 4100 2886 4159 
Q 2644 4219 2406 4219 
Q 1781 4219 1451 3797 
Q 1122 3375 1075 2522 
Q 1259 2794 1537 2939 
Q 1816 3084 2150 3084 
Q 2853 3084 3261 2657 
Q 3669 2231 3669 1497 
Q 3669 778 3244 343 
Q 2819 -91 2113 -91 
Q 1303 -91 875 529 
Q 447 1150 447 2328 
Q 447 3434 972 4092 
Q 1497 4750 2381 4750 
Q 2619 4750 2861 4703 
Q 3103 4656 3366 4563 
z
" transform="scale(0.015625)"/>
       </defs>
       <use xlink:href="#DejaVuSans-36"/>
       <use xlink:href="#DejaVuSans-30" transform="translate(63.623047 0)"/>
       <use xlink:href="#DejaVuSans-30" transform="translate(127.246094 0)"/>
      </g>
     </g>
    </g>
    <g id="ytick_5">
     <g id="line2d_11">
      <g>
       <use xlink:href="#m3c92c8000d" x="50.87" y="56.336011" style="stroke: #000000; stroke-width: 0.8"/>
      </g>
     </g>
     <g id="text_12">
      <!-- 700 -->
      <g transform="translate(24.7825 60.13523) scale(0.1 -0.1)">
       <defs>
        <path id="DejaVuSans-37" d="M 525 4666 
L 3525 4666 
L 3525 4397 
L 1831 0 
L 1172 0 
L 2766 4134 
L 525 4134 
L 525 4666 
z
" transform="scale(0.015625)"/>
       </defs>
       <use xlink:href="#DejaVuSans-37"/>
       <use xlink:href="#DejaVuSans-30" transform="translate(63.623047 0)"/>
       <use xlink:href="#DejaVuSans-30" transform="translate(127.246094 0)"/>
      </g>
     </g>
    </g>
    <g id="text_13">
     <!-- Profit -->
     <g transform="translate(18.702813 229.779063) rotate(-90) scale(0.1 -0.1)">
      <defs>
       <path id="DejaVuSans-50" d="M 1259 4147 
L 1259 2394 
L 2053 2394 
Q 2494 2394 2734 2622 
Q 2975 2850 2975 3272 
Q 2975 3691 2734 3919 
Q 2494 4147 2053 4147 
L 1259 4147 
z
M 628 4666 
L 2053 4666 
Q 2838 4666 3239 4311 
Q 3641 3956 3641 3272 
Q 3641 2581 3239 2228 
Q 2838 1875 2053 1875 
L 1259 1875 
L 1259 0 
L 628 0 
L 628 4666 
z
" transform="scale(0.015625)"/>
       <path id="DejaVuSans-72" d="M 2631 2963 
Q 2534 3019 2420 3045 
Q 2306 3072 2169 3072 
Q 1681 3072 1420 2755 
Q 1159 2438 1159 1844 
L 1159 0 
L 581 0 
L 581 3500 
L 1159 3500 
L 1159 2956 
Q 1341 3275 1631 3429 
Q 1922 3584 2338 3584 
Q 2397 3584 2469 3576 
Q 2541 3569 2628 3553 
L 2631 2963 
z
" transform="scale(0.015625)"/>
       <path id="DejaVuSans-6f" d="M 1959 3097 
Q 1497 3097 1228 2736 
Q 959 2375 959 1747 
Q 959 1119 1226 758 
Q 1494 397 1959 397 
Q 2419 397 2687 759 
Q 2956 1122 2956 1747 
Q 2956 2369 2687 2733 
Q 2419 3097 1959 3097 
z
M 1959 3584 
Q 2709 3584 3137 3096 
Q 3566 2609 3566 1747 
Q 3566 888 3137 398 
Q 2709 -91 1959 -91 
Q 1206 -91 779 398 
Q 353 888 353 1747 
Q 353 2609 779 3096 
Q 1206 3584 1959 3584 
z
" transform="scale(0.015625)"/>
       <path id="DejaVuSans-66" d="M 2375 4863 
L 2375 4384 
L 1825 4384 
Q 1516 4384 1395 4259 
Q 1275 4134 1275 3809 
L 1275 3500 
L 2222 3500 
L 2222 3053 
L 1275 3053 
L 1275 0 
L 697 0 
L 697 3053 
L 147 3053 
L 147 3500 
L 697 3500 
L 697 3744 
Q 697 4328 969 4595 
Q 1241 4863 1831 4863 
L 2375 4863 
z
" transform="scale(0.015625)"/>
       <path id="DejaVuSans-69" d="M 603 3500 
L 1178 3500 
L 1178 0 
L 603 0 
L 603 3500 
z
M 603 4863 
L 1178 4863 
L 1178 4134 
L 603 4134 
L 603 4863 
z
" transform="scale(0.015625)"/>
      </defs>
      <use xlink:href="#DejaVuSans-50"/>
      <use xlink:href="#DejaVuSans-72" transform="translate(58.552734 0)"/>
      <use xlink:href="#DejaVuSans-6f" transform="translate(97.416016 0)"/>
      <use xlink:href="#DejaVuSans-66" transform="translate(158.597656 0)"/>
      <use xlink:href="#DejaVuSans-69" transform="translate(193.802734 0)"/>
      <use xlink:href="#DejaVuSans-74" transform="translate(221.585938 0)"/>
     </g>
    </g>
   </g>
   <g id="line2d_12">
    <path d="M 52.193327 250.084411 
L 54.83998 248.06994 
L 57.486633 235.247358 
L 60.133287 225.189626 
L 62.77994 216.754415 
L 65.426593 209.655494 
L 68.073247 203.696671 
L 70.7199 198.418135 
L 73.366553 193.807994 
L 76.013207 189.707583 
L 81.306513 182.830391 
L 83.953167 180.048039 
L 86.59982 177.439415 
L 91.893127 172.84636 
L 94.53978 170.790501 
L 97.186433 168.890346 
L 105.126393 163.9732 
L 113.066353 159.946385 
L 123.652967 155.394884 
L 128.946273 153.425847 
L 134.23958 151.585771 
L 144.826193 148.204469 
L 160.706113 144.259887 
L 168.646073 142.41276 
L 173.93938 141.300471 
L 181.87934 139.823829 
L 203.052567 136.315068 
L 224.225793 133.350519 
L 240.105713 131.25828 
L 253.33898 129.821148 
L 266.572247 128.588075 
L 279.805513 127.413996 
L 293.03878 126.330494 
L 303.625393 125.454889 
L 319.505313 124.278015 
L 345.971847 122.481079 
L 406.844873 119.149466 
L 465.071247 116.701761 
L 496.831087 115.566984 
L 525.944273 114.609188 
L 565.644073 113.444872 
L 576.230687 113.150027 
L 713.85666 110.277099 
L 753.55646 109.58828 
L 785.3163 109.056751 
L 809.13618 108.738418 
L 843.542673 108.312944 
L 843.542673 108.312944 
" clip-path="url(#pdbda183b1b)" style="fill: none; stroke: #0000ff; stroke-width: 1.5; stroke-linecap: square"/>
   </g>
   <g id="patch_3">
    <path d="M 50.87 390.04 
L 50.87 43.44 
" style="fill: none; stroke: #000000; stroke-width: 0.8; stroke-linejoin: miter; stroke-linecap: square"/>
   </g>
   <g id="patch_4">
    <path d="M 844.866 390.04 
L 844.866 43.44 
" style="fill: none; stroke: #000000; stroke-width: 0.8; stroke-linejoin: miter; stroke-linecap: square"/>
   </g>
   <g id="patch_5">
    <path d="M 50.87 390.04 
L 844.866 390.04 
" style="fill: none; stroke: #000000; stroke-width: 0.8; stroke-linejoin: miter; stroke-linecap: square"/>
   </g>
   <g id="patch_6">
    <path d="M 50.87 43.44 
L 844.866 43.44 
" style="fill: none; stroke: #000000; stroke-width: 0.8; stroke-linejoin: miter; stroke-linecap: square"/>
   </g>
   <g id="text_14">
    <!-- Mean profit per step with confidence interval per simulation step -->
    <g transform="translate(220.284875 21.763062) scale(0.14 -0.14)">
     <defs>
      <path id="DejaVuSans-4d" d="M 628 4666 
L 1569 4666 
L 2759 1491 
L 3956 4666 
L 4897 4666 
L 4897 0 
L 4281 0 
L 4281 4097 
L 3078 897 
L 2444 897 
L 1241 4097 
L 1241 0 
L 628 0 
L 628 4666 
z
" transform="scale(0.015625)"/>
      <path id="DejaVuSans-61" d="M 2194 1759 
Q 1497 1759 1228 1600 
Q 959 1441 959 1056 
Q 959 750 1161 570 
Q 1363 391 1709 391 
Q 2188 391 2477 730 
Q 2766 1069 2766 1631 
L 2766 1759 
L 2194 1759 
z
M 3341 1997 
L 3341 0 
L 2766 0 
L 2766 531 
Q 2569 213 2275 61 
Q 1981 -91 1556 -91 
Q 1019 -91 701 211 
Q 384 513 384 1019 
Q 384 1609 779 1909 
Q 1175 2209 1959 2209 
L 2766 2209 
L 2766 2266 
Q 2766 2663 2505 2880 
Q 2244 3097 1772 3097 
Q 1472 3097 1187 3025 
Q 903 2953 641 2809 
L 641 3341 
Q 956 3463 1253 3523 
Q 1550 3584 1831 3584 
Q 2591 3584 2966 3190 
Q 3341 2797 3341 1997 
z
" transform="scale(0.015625)"/>
      <path id="DejaVuSans-6e" d="M 3513 2113 
L 3513 0 
L 2938 0 
L 2938 2094 
Q 2938 2591 2744 2837 
Q 2550 3084 2163 3084 
Q 1697 3084 1428 2787 
Q 1159 2491 1159 1978 
L 1159 0 
L 581 0 
L 581 3500 
L 1159 3500 
L 1159 2956 
Q 1366 3272 1645 3428 
Q 1925 3584 2291 3584 
Q 2894 3584 3203 3211 
Q 3513 2838 3513 2113 
z
" transform="scale(0.015625)"/>
      <path id="DejaVuSans-20" transform="scale(0.015625)"/>
      <path id="DejaVuSans-73" d="M 2834 3397 
L 2834 2853 
Q 2591 2978 2328 3040 
Q 2066 3103 1784 3103 
Q 1356 3103 1142 2972 
Q 928 2841 928 2578 
Q 928 2378 1081 2264 
Q 1234 2150 1697 2047 
L 1894 2003 
Q 2506 1872 2764 1633 
Q 3022 1394 3022 966 
Q 3022 478 2636 193 
Q 2250 -91 1575 -91 
Q 1294 -91 989 -36 
Q 684 19 347 128 
L 347 722 
Q 666 556 975 473 
Q 1284 391 1588 391 
Q 1994 391 2212 530 
Q 2431 669 2431 922 
Q 2431 1156 2273 1281 
Q 2116 1406 1581 1522 
L 1381 1569 
Q 847 1681 609 1914 
Q 372 2147 372 2553 
Q 372 3047 722 3315 
Q 1072 3584 1716 3584 
Q 2034 3584 2315 3537 
Q 2597 3491 2834 3397 
z
" transform="scale(0.015625)"/>
      <path id="DejaVuSans-77" d="M 269 3500 
L 844 3500 
L 1563 769 
L 2278 3500 
L 2956 3500 
L 3675 769 
L 4391 3500 
L 4966 3500 
L 4050 0 
L 3372 0 
L 2619 2869 
L 1863 0 
L 1184 0 
L 269 3500 
z
" transform="scale(0.015625)"/>
      <path id="DejaVuSans-68" d="M 3513 2113 
L 3513 0 
L 2938 0 
L 2938 2094 
Q 2938 2591 2744 2837 
Q 2550 3084 2163 3084 
Q 1697 3084 1428 2787 
Q 1159 2491 1159 1978 
L 1159 0 
L 581 0 
L 581 4863 
L 1159 4863 
L 1159 2956 
Q 1366 3272 1645 3428 
Q 1925 3584 2291 3584 
Q 2894 3584 3203 3211 
Q 3513 2838 3513 2113 
z
" transform="scale(0.015625)"/>
      <path id="DejaVuSans-63" d="M 3122 3366 
L 3122 2828 
Q 2878 2963 2633 3030 
Q 2388 3097 2138 3097 
Q 1578 3097 1268 2742 
Q 959 2388 959 1747 
Q 959 1106 1268 751 
Q 1578 397 2138 397 
Q 2388 397 2633 464 
Q 2878 531 3122 666 
L 3122 134 
Q 2881 22 2623 -34 
Q 2366 -91 2075 -91 
Q 1284 -91 818 406 
Q 353 903 353 1747 
Q 353 2603 823 3093 
Q 1294 3584 2113 3584 
Q 2378 3584 2631 3529 
Q 2884 3475 3122 3366 
z
" transform="scale(0.015625)"/>
      <path id="DejaVuSans-64" d="M 2906 2969 
L 2906 4863 
L 3481 4863 
L 3481 0 
L 2906 0 
L 2906 525 
Q 2725 213 2448 61 
Q 2172 -91 1784 -91 
Q 1150 -91 751 415 
Q 353 922 353 1747 
Q 353 2572 751 3078 
Q 1150 3584 1784 3584 
Q 2172 3584 2448 3432 
Q 2725 3281 2906 2969 
z
M 947 1747 
Q 947 1113 1208 752 
Q 1469 391 1925 391 
Q 2381 391 2643 752 
Q 2906 1113 2906 1747 
Q 2906 2381 2643 2742 
Q 2381 3103 1925 3103 
Q 1469 3103 1208 2742 
Q 947 2381 947 1747 
z
" transform="scale(0.015625)"/>
      <path id="DejaVuSans-76" d="M 191 3500 
L 800 3500 
L 1894 563 
L 2988 3500 
L 3597 3500 
L 2284 0 
L 1503 0 
L 191 3500 
z
" transform="scale(0.015625)"/>
      <path id="DejaVuSans-6c" d="M 603 4863 
L 1178 4863 
L 1178 0 
L 603 0 
L 603 4863 
z
" transform="scale(0.015625)"/>
      <path id="DejaVuSans-6d" d="M 3328 2828 
Q 3544 3216 3844 3400 
Q 4144 3584 4550 3584 
Q 5097 3584 5394 3201 
Q 5691 2819 5691 2113 
L 5691 0 
L 5113 0 
L 5113 2094 
Q 5113 2597 4934 2840 
Q 4756 3084 4391 3084 
Q 3944 3084 3684 2787 
Q 3425 2491 3425 1978 
L 3425 0 
L 2847 0 
L 2847 2094 
Q 2847 2600 2669 2842 
Q 2491 3084 2119 3084 
Q 1678 3084 1418 2786 
Q 1159 2488 1159 1978 
L 1159 0 
L 581 0 
L 581 3500 
L 1159 3500 
L 1159 2956 
Q 1356 3278 1631 3431 
Q 1906 3584 2284 3584 
Q 2666 3584 2933 3390 
Q 3200 3197 3328 2828 
z
" transform="scale(0.015625)"/>
      <path id="DejaVuSans-75" d="M 544 1381 
L 544 3500 
L 1119 3500 
L 1119 1403 
Q 1119 906 1312 657 
Q 1506 409 1894 409 
Q 2359 409 2629 706 
Q 2900 1003 2900 1516 
L 2900 3500 
L 3475 3500 
L 3475 0 
L 2900 0 
L 2900 538 
Q 2691 219 2414 64 
Q 2138 -91 1772 -91 
Q 1169 -91 856 284 
Q 544 659 544 1381 
z
M 1991 3584 
L 1991 3584 
z
" transform="scale(0.015625)"/>
     </defs>
     <use xlink:href="#DejaVuSans-4d"/>
     <use xlink:href="#DejaVuSans-65" transform="translate(86.279297 0)"/>
     <use xlink:href="#DejaVuSans-61" transform="translate(147.802734 0)"/>
     <use xlink:href="#DejaVuSans-6e" transform="translate(209.082031 0)"/>
     <use xlink:href="#DejaVuSans-20" transform="translate(272.460938 0)"/>
     <use xlink:href="#DejaVuSans-70" transform="translate(304.248047 0)"/>
     <use xlink:href="#DejaVuSans-72" transform="translate(367.724609 0)"/>
     <use xlink:href="#DejaVuSans-6f" transform="translate(406.587891 0)"/>
     <use xlink:href="#DejaVuSans-66" transform="translate(467.769531 0)"/>
     <use xlink:href="#DejaVuSans-69" transform="translate(502.974609 0)"/>
     <use xlink:href="#DejaVuSans-74" transform="translate(530.757812 0)"/>
     <use xlink:href="#DejaVuSans-20" transform="translate(569.966797 0)"/>
     <use xlink:href="#DejaVuSans-70" transform="translate(601.753906 0)"/>
     <use xlink:href="#DejaVuSans-65" transform="translate(665.230469 0)"/>
     <use xlink:href="#DejaVuSans-72" transform="translate(726.753906 0)"/>
     <use xlink:href="#DejaVuSans-20" transform="translate(767.867188 0)"/>
     <use xlink:href="#DejaVuSans-73" transform="translate(799.654297 0)"/>
     <use xlink:href="#DejaVuSans-74" transform="translate(851.753906 0)"/>
     <use xlink:href="#DejaVuSans-65" transform="translate(890.962891 0)"/>
     <use xlink:href="#DejaVuSans-70" transform="translate(952.486328 0)"/>
     <use xlink:href="#DejaVuSans-20" transform="translate(1015.962891 0)"/>
     <use xlink:href="#DejaVuSans-77" transform="translate(1047.75 0)"/>
     <use xlink:href="#DejaVuSans-69" transform="translate(1129.537109 0)"/>
     <use xlink:href="#DejaVuSans-74" transform="translate(1157.320312 0)"/>
     <use xlink:href="#DejaVuSans-68" transform="translate(1196.529297 0)"/>
     <use xlink:href="#DejaVuSans-20" transform="translate(1259.908203 0)"/>
     <use xlink:href="#DejaVuSans-63" transform="translate(1291.695312 0)"/>
     <use xlink:href="#DejaVuSans-6f" transform="translate(1346.675781 0)"/>
     <use xlink:href="#DejaVuSans-6e" transform="translate(1407.857422 0)"/>
     <use xlink:href="#DejaVuSans-66" transform="translate(1471.236328 0)"/>
     <use xlink:href="#DejaVuSans-69" transform="translate(1506.441406 0)"/>
     <use xlink:href="#DejaVuSans-64" transform="translate(1534.224609 0)"/>
     <use xlink:href="#DejaVuSans-65" transform="translate(1597.701172 0)"/>
     <use xlink:href="#DejaVuSans-6e" transform="translate(1659.224609 0)"/>
     <use xlink:href="#DejaVuSans-63" transform="translate(1722.603516 0)"/>
     <use xlink:href="#DejaVuSans-65" transform="translate(1777.583984 0)"/>
     <use xlink:href="#DejaVuSans-20" transform="translate(1839.107422 0)"/>
     <use xlink:href="#DejaVuSans-69" transform="translate(1870.894531 0)"/>
     <use xlink:href="#DejaVuSans-6e" transform="translate(1898.677734 0)"/>
     <use xlink:href="#DejaVuSans-74" transform="translate(1962.056641 0)"/>
     <use xlink:href="#DejaVuSans-65" transform="translate(2001.265625 0)"/>
     <use xlink:href="#DejaVuSans-72" transform="translate(2062.789062 0)"/>
     <use xlink:href="#DejaVuSans-76" transform="translate(2103.902344 0)"/>
     <use xlink:href="#DejaVuSans-61" transform="translate(2163.082031 0)"/>
     <use xlink:href="#DejaVuSans-6c" transform="translate(2224.361328 0)"/>
     <use xlink:href="#DejaVuSans-20" transform="translate(2252.144531 0)"/>
     <use xlink:href="#DejaVuSans-70" transform="translate(2283.931641 0)"/>
     <use xlink:href="#DejaVuSans-65" transform="translate(2347.408203 0)"/>
     <use xlink:href="#DejaVuSans-72" transform="translate(2408.931641 0)"/>
     <use xlink:href="#DejaVuSans-20" transform="translate(2450.044922 0)"/>
     <use xlink:href="#DejaVuSans-73" transform="translate(2481.832031 0)"/>
     <use xlink:href="#DejaVuSans-69" transform="translate(2533.931641 0)"/>
     <use xlink:href="#DejaVuSans-6d" transform="translate(2561.714844 0)"/>
     <use xlink:href="#DejaVuSans-75" transform="translate(2659.126953 0)"/>
     <use xlink:href="#DejaVuSans-6c" transform="translate(2722.505859 0)"/>
     <use xlink:href="#DejaVuSans-61" transform="translate(2750.289062 0)"/>
     <use xlink:href="#DejaVuSans-74" transform="translate(2811.568359 0)"/>
     <use xlink:href="#DejaVuSans-69" transform="translate(2850.777344 0)"/>
     <use xlink:href="#DejaVuSans-6f" transform="translate(2878.560547 0)"/>
     <use xlink:href="#DejaVuSans-6e" transform="translate(2939.742188 0)"/>
     <use xlink:href="#DejaVuSans-20" transform="translate(3003.121094 0)"/>
     <use xlink:href="#DejaVuSans-73" transform="translate(3034.908203 0)"/>
     <use xlink:href="#DejaVuSans-74" transform="translate(3087.007812 0)"/>
     <use xlink:href="#DejaVuSans-65" transform="translate(3126.216797 0)"/>
     <use xlink:href="#DejaVuSans-70" transform="translate(3187.740234 0)"/>
    </g>
    <!-- Base Product: Cocaine, Recipe size: 9, T0: 5.0 -->
    <g transform="translate(287.864406 37.44) scale(0.14 -0.14)">
     <defs>
      <path id="DejaVuSans-42" d="M 1259 2228 
L 1259 519 
L 2272 519 
Q 2781 519 3026 730 
Q 3272 941 3272 1375 
Q 3272 1813 3026 2020 
Q 2781 2228 2272 2228 
L 1259 2228 
z
M 1259 4147 
L 1259 2741 
L 2194 2741 
Q 2656 2741 2882 2914 
Q 3109 3088 3109 3444 
Q 3109 3797 2882 3972 
Q 2656 4147 2194 4147 
L 1259 4147 
z
M 628 4666 
L 2241 4666 
Q 2963 4666 3353 4366 
Q 3744 4066 3744 3513 
Q 3744 3084 3544 2831 
Q 3344 2578 2956 2516 
Q 3422 2416 3680 2098 
Q 3938 1781 3938 1306 
Q 3938 681 3513 340 
Q 3088 0 2303 0 
L 628 0 
L 628 4666 
z
" transform="scale(0.015625)"/>
      <path id="DejaVuSans-3a" d="M 750 794 
L 1409 794 
L 1409 0 
L 750 0 
L 750 794 
z
M 750 3309 
L 1409 3309 
L 1409 2516 
L 750 2516 
L 750 3309 
z
" transform="scale(0.015625)"/>
      <path id="DejaVuSans-43" d="M 4122 4306 
L 4122 3641 
Q 3803 3938 3442 4084 
Q 3081 4231 2675 4231 
Q 1875 4231 1450 3742 
Q 1025 3253 1025 2328 
Q 1025 1406 1450 917 
Q 1875 428 2675 428 
Q 3081 428 3442 575 
Q 3803 722 4122 1019 
L 4122 359 
Q 3791 134 3420 21 
Q 3050 -91 2638 -91 
Q 1578 -91 968 557 
Q 359 1206 359 2328 
Q 359 3453 968 4101 
Q 1578 4750 2638 4750 
Q 3056 4750 3426 4639 
Q 3797 4528 4122 4306 
z
" transform="scale(0.015625)"/>
      <path id="DejaVuSans-2c" d="M 750 794 
L 1409 794 
L 1409 256 
L 897 -744 
L 494 -744 
L 750 256 
L 750 794 
z
" transform="scale(0.015625)"/>
      <path id="DejaVuSans-52" d="M 2841 2188 
Q 3044 2119 3236 1894 
Q 3428 1669 3622 1275 
L 4263 0 
L 3584 0 
L 2988 1197 
Q 2756 1666 2539 1819 
Q 2322 1972 1947 1972 
L 1259 1972 
L 1259 0 
L 628 0 
L 628 4666 
L 2053 4666 
Q 2853 4666 3247 4331 
Q 3641 3997 3641 3322 
Q 3641 2881 3436 2590 
Q 3231 2300 2841 2188 
z
M 1259 4147 
L 1259 2491 
L 2053 2491 
Q 2509 2491 2742 2702 
Q 2975 2913 2975 3322 
Q 2975 3731 2742 3939 
Q 2509 4147 2053 4147 
L 1259 4147 
z
" transform="scale(0.015625)"/>
      <path id="DejaVuSans-7a" d="M 353 3500 
L 3084 3500 
L 3084 2975 
L 922 459 
L 3084 459 
L 3084 0 
L 275 0 
L 275 525 
L 2438 3041 
L 353 3041 
L 353 3500 
z
" transform="scale(0.015625)"/>
      <path id="DejaVuSans-39" d="M 703 97 
L 703 672 
Q 941 559 1184 500 
Q 1428 441 1663 441 
Q 2288 441 2617 861 
Q 2947 1281 2994 2138 
Q 2813 1869 2534 1725 
Q 2256 1581 1919 1581 
Q 1219 1581 811 2004 
Q 403 2428 403 3163 
Q 403 3881 828 4315 
Q 1253 4750 1959 4750 
Q 2769 4750 3195 4129 
Q 3622 3509 3622 2328 
Q 3622 1225 3098 567 
Q 2575 -91 1691 -91 
Q 1453 -91 1209 -44 
Q 966 3 703 97 
z
M 1959 2075 
Q 2384 2075 2632 2365 
Q 2881 2656 2881 3163 
Q 2881 3666 2632 3958 
Q 2384 4250 1959 4250 
Q 1534 4250 1286 3958 
Q 1038 3666 1038 3163 
Q 1038 2656 1286 2365 
Q 1534 2075 1959 2075 
z
" transform="scale(0.015625)"/>
      <path id="DejaVuSans-54" d="M -19 4666 
L 3928 4666 
L 3928 4134 
L 2272 4134 
L 2272 0 
L 1638 0 
L 1638 4134 
L -19 4134 
L -19 4666 
z
" transform="scale(0.015625)"/>
      <path id="DejaVuSans-2e" d="M 684 794 
L 1344 794 
L 1344 0 
L 684 0 
L 684 794 
z
" transform="scale(0.015625)"/>
     </defs>
     <use xlink:href="#DejaVuSans-42"/>
     <use xlink:href="#DejaVuSans-61" transform="translate(68.603516 0)"/>
     <use xlink:href="#DejaVuSans-73" transform="translate(129.882812 0)"/>
     <use xlink:href="#DejaVuSans-65" transform="translate(181.982422 0)"/>
     <use xlink:href="#DejaVuSans-20" transform="translate(243.505859 0)"/>
     <use xlink:href="#DejaVuSans-50" transform="translate(275.292969 0)"/>
     <use xlink:href="#DejaVuSans-72" transform="translate(333.845703 0)"/>
     <use xlink:href="#DejaVuSans-6f" transform="translate(372.708984 0)"/>
     <use xlink:href="#DejaVuSans-64" transform="translate(433.890625 0)"/>
     <use xlink:href="#DejaVuSans-75" transform="translate(497.367188 0)"/>
     <use xlink:href="#DejaVuSans-63" transform="translate(560.746094 0)"/>
     <use xlink:href="#DejaVuSans-74" transform="translate(615.726562 0)"/>
     <use xlink:href="#DejaVuSans-3a" transform="translate(654.935547 0)"/>
     <use xlink:href="#DejaVuSans-20" transform="translate(688.626953 0)"/>
     <use xlink:href="#DejaVuSans-43" transform="translate(720.414062 0)"/>
     <use xlink:href="#DejaVuSans-6f" transform="translate(790.238281 0)"/>
     <use xlink:href="#DejaVuSans-63" transform="translate(851.419922 0)"/>
     <use xlink:href="#DejaVuSans-61" transform="translate(906.400391 0)"/>
     <use xlink:href="#DejaVuSans-69" transform="translate(967.679688 0)"/>
     <use xlink:href="#DejaVuSans-6e" transform="translate(995.462891 0)"/>
     <use xlink:href="#DejaVuSans-65" transform="translate(1058.841797 0)"/>
     <use xlink:href="#DejaVuSans-2c" transform="translate(1120.365234 0)"/>
     <use xlink:href="#DejaVuSans-20" transform="translate(1152.152344 0)"/>
     <use xlink:href="#DejaVuSans-52" transform="translate(1183.939453 0)"/>
     <use xlink:href="#DejaVuSans-65" transform="translate(1248.921875 0)"/>
     <use xlink:href="#DejaVuSans-63" transform="translate(1310.445312 0)"/>
     <use xlink:href="#DejaVuSans-69" transform="translate(1365.425781 0)"/>
     <use xlink:href="#DejaVuSans-70" transform="translate(1393.208984 0)"/>
     <use xlink:href="#DejaVuSans-65" transform="translate(1456.685547 0)"/>
     <use xlink:href="#DejaVuSans-20" transform="translate(1518.208984 0)"/>
     <use xlink:href="#DejaVuSans-73" transform="translate(1549.996094 0)"/>
     <use xlink:href="#DejaVuSans-69" transform="translate(1602.095703 0)"/>
     <use xlink:href="#DejaVuSans-7a" transform="translate(1629.878906 0)"/>
     <use xlink:href="#DejaVuSans-65" transform="translate(1682.369141 0)"/>
     <use xlink:href="#DejaVuSans-3a" transform="translate(1743.892578 0)"/>
     <use xlink:href="#DejaVuSans-20" transform="translate(1777.583984 0)"/>
     <use xlink:href="#DejaVuSans-39" transform="translate(1809.371094 0)"/>
     <use xlink:href="#DejaVuSans-2c" transform="translate(1872.994141 0)"/>
     <use xlink:href="#DejaVuSans-20" transform="translate(1904.78125 0)"/>
     <use xlink:href="#DejaVuSans-54" transform="translate(1936.568359 0)"/>
     <use xlink:href="#DejaVuSans-30" transform="translate(1997.652344 0)"/>
     <use xlink:href="#DejaVuSans-3a" transform="translate(2061.275391 0)"/>
     <use xlink:href="#DejaVuSans-20" transform="translate(2094.966797 0)"/>
     <use xlink:href="#DejaVuSans-35" transform="translate(2126.753906 0)"/>
     <use xlink:href="#DejaVuSans-2e" transform="translate(2190.376953 0)"/>
     <use xlink:href="#DejaVuSans-30" transform="translate(2222.164062 0)"/>
    </g>
   </g>
  </g>
 </g>
 <defs>
  <clipPath id="pdbda183b1b">
   <rect x="50.87" y="43.44" width="793.996" height="346.6"/>
  </clipPath>
 </defs>
</svg>
