<?xml version="1.0" encoding="utf-8" standalone="no"?>
<!DOCTYPE svg PUBLIC "-//W3C//DTD SVG 1.1//EN"
  "http://www.w3.org/Graphics/SVG/1.1/DTD/svg11.dtd">
<svg xmlns:xlink="http://www.w3.org/1999/xlink" width="864pt" height="432pt" viewBox="0 0 864 432" xmlns="http://www.w3.org/2000/svg" version="1.1">
 <metadata>
  <rdf:RDF xmlns:dc="http://purl.org/dc/elements/1.1/" xmlns:cc="http://creativecommons.org/ns#" xmlns:rdf="http://www.w3.org/1999/02/22-rdf-syntax-ns#">
   <cc:Work>
    <dc:type rdf:resource="http://purl.org/dc/dcmitype/StillImage"/>
    <dc:date>2025-05-24T02:21:25.019854</dc:date>
    <dc:format>image/svg+xml</dc:format>
    <dc:creator>
     <cc:Agent>
      <dc:title>Matplotlib v3.10.3, https://matplotlib.org/</dc:title>
     </cc:Agent>
    </dc:creator>
   </cc:Work>
  </rdf:RDF>
 </metadata>
 <defs>
  <style type="text/css">*{stroke-linejoin: round; stroke-linecap: butt}</style>
 </defs>
 <g id="figure_1">
  <g id="patch_1">
   <path d="M 0 432 
L 864 432 
L 864 0 
L 0 0 
z
" style="fill: #ffffff"/>
  </g>
  <g id="axes_1">
   <g id="patch_2">
    <path d="M 50.87 390.04 
L 844.866 390.04 
L 844.866 43.44 
L 50.87 43.44 
z
" style="fill: #ffffff"/>
   </g>
   <g id="FillBetweenPolyCollection_1">
    <defs>
     <path id="m77285bb1c6" d="M 52.193327 -303.721907 
L 52.193327 -57.714545 
L 54.83998 -58.318433 
L 57.486633 -72.980533 
L 60.133287 -86.562328 
L 62.77994 -98.544196 
L 65.426593 -109.096508 
L 68.073247 -118.245296 
L 70.7199 -127.150072 
L 73.366553 -135.275287 
L 76.013207 -141.75969 
L 78.65986 -148.112952 
L 81.306513 -153.725273 
L 83.953167 -158.79201 
L 86.59982 -163.786885 
L 89.246473 -168.363455 
L 91.893127 -172.196365 
L 94.53978 -176.812105 
L 97.186433 -180.576523 
L 99.833087 -183.729646 
L 102.47974 -186.83937 
L 105.126393 -189.529991 
L 107.773047 -192.252264 
L 110.4197 -194.817447 
L 113.066353 -197.545011 
L 115.713007 -199.831856 
L 118.35966 -201.698189 
L 121.006313 -203.663233 
L 123.652967 -205.357479 
L 126.29962 -207.110898 
L 128.946273 -208.843946 
L 131.592927 -210.433187 
L 134.23958 -212.023939 
L 136.886233 -213.493013 
L 139.532887 -215.012699 
L 142.17954 -216.51328 
L 144.826193 -217.735625 
L 147.472847 -219.208275 
L 150.1195 -220.588362 
L 152.766153 -221.732694 
L 155.412807 -222.970037 
L 158.05946 -224.119681 
L 160.706113 -225.229889 
L 163.352767 -226.347637 
L 165.99942 -227.258521 
L 168.646073 -227.990105 
L 171.292727 -228.998986 
L 173.93938 -229.874664 
L 176.586033 -230.808147 
L 179.232687 -231.580148 
L 181.87934 -232.667001 
L 184.525993 -233.558392 
L 187.172647 -234.20144 
L 189.8193 -234.872032 
L 192.465953 -235.502473 
L 195.112607 -236.185386 
L 197.75926 -236.981702 
L 200.405913 -237.578428 
L 203.052567 -238.254516 
L 205.69922 -238.974883 
L 208.345873 -239.713557 
L 210.992527 -240.11241 
L 213.63918 -240.67583 
L 216.285833 -241.317407 
L 218.932487 -241.681074 
L 221.57914 -242.308429 
L 224.225793 -242.959099 
L 226.872447 -243.417943 
L 229.5191 -243.89816 
L 232.165753 -244.648502 
L 234.812407 -245.240529 
L 237.45906 -245.804112 
L 240.105713 -246.309809 
L 242.752367 -246.841273 
L 245.39902 -247.317117 
L 248.045673 -247.69474 
L 250.692327 -248.204074 
L 253.33898 -248.656073 
L 255.985633 -249.092134 
L 258.632287 -249.536042 
L 261.27894 -249.800057 
L 263.925593 -250.181767 
L 266.572247 -250.52778 
L 269.2189 -251.005463 
L 271.865553 -251.426833 
L 274.512207 -251.852535 
L 277.15886 -252.389964 
L 279.805513 -252.678561 
L 282.452167 -253.070936 
L 285.09882 -253.328188 
L 287.745473 -253.661083 
L 290.392127 -254.069396 
L 293.03878 -254.343403 
L 295.685433 -254.536863 
L 298.332087 -254.891785 
L 300.97874 -255.117079 
L 303.625393 -255.450628 
L 306.272047 -255.728109 
L 308.9187 -256.060513 
L 311.565353 -256.243062 
L 314.212007 -256.51474 
L 316.85866 -256.799862 
L 319.505313 -257.058217 
L 322.151967 -257.392706 
L 324.79862 -257.617469 
L 327.445273 -257.942355 
L 330.091927 -258.200465 
L 332.73858 -258.501811 
L 335.385233 -258.720158 
L 338.031887 -259.031231 
L 340.67854 -259.344714 
L 343.325193 -259.636784 
L 345.971847 -259.845487 
L 348.6185 -260.054027 
L 351.265153 -260.356395 
L 353.911807 -260.703388 
L 356.55846 -260.956063 
L 359.205113 -261.19611 
L 361.851767 -261.489529 
L 364.49842 -261.709225 
L 367.145073 -262.023934 
L 369.791727 -262.349841 
L 372.43838 -262.60742 
L 375.085033 -262.860544 
L 377.731687 -263.061769 
L 380.37834 -263.241988 
L 383.024993 -263.534181 
L 385.671647 -263.703856 
L 388.3183 -263.839409 
L 390.964953 -264.111495 
L 393.611607 -264.379168 
L 396.25826 -264.648026 
L 398.904913 -264.861919 
L 401.551567 -265.031922 
L 404.19822 -265.178794 
L 406.844873 -265.427301 
L 409.491527 -265.574868 
L 412.13818 -265.847445 
L 414.784833 -266.004411 
L 417.431487 -266.370898 
L 420.07814 -266.585322 
L 422.724793 -266.737957 
L 425.371447 -266.885279 
L 428.0181 -267.182662 
L 430.664753 -267.286421 
L 433.311407 -267.498516 
L 435.95806 -267.609467 
L 438.604713 -267.749678 
L 441.251367 -267.924749 
L 443.89802 -268.021887 
L 446.544673 -268.140726 
L 449.191327 -268.309666 
L 451.83798 -268.51984 
L 454.484633 -268.691355 
L 457.131287 -268.853389 
L 459.77794 -269.03512 
L 462.424593 -269.198053 
L 465.071247 -269.385302 
L 467.7179 -269.576759 
L 470.364553 -269.689018 
L 473.011207 -269.827758 
L 475.65786 -269.997475 
L 478.304513 -270.17136 
L 480.951167 -270.351294 
L 483.59782 -270.451947 
L 486.244473 -270.518191 
L 488.891127 -270.657585 
L 491.53778 -270.837722 
L 494.184433 -270.888274 
L 496.831087 -270.905969 
L 499.47774 -271.041235 
L 502.124393 -271.156641 
L 504.771047 -271.251369 
L 507.4177 -271.43355 
L 510.064353 -271.567835 
L 512.711007 -271.648015 
L 515.35766 -271.80633 
L 518.004313 -271.951936 
L 520.650967 -272.127946 
L 523.29762 -272.21499 
L 525.944273 -272.430763 
L 528.590927 -272.563619 
L 531.23758 -272.661656 
L 533.884233 -272.795615 
L 536.530887 -272.893939 
L 539.17754 -272.983844 
L 541.824193 -273.086868 
L 544.470847 -273.205093 
L 547.1175 -273.305992 
L 549.764153 -273.412039 
L 552.410807 -273.495488 
L 555.05746 -273.663038 
L 557.704113 -273.757398 
L 560.350767 -273.866551 
L 562.99742 -273.950695 
L 565.644073 -274.016571 
L 568.290727 -274.145258 
L 570.93738 -274.309049 
L 573.584033 -274.41432 
L 576.230687 -274.508353 
L 578.87734 -274.702344 
L 581.523993 -274.813255 
L 584.170647 -274.868424 
L 586.8173 -274.998623 
L 589.463953 -275.065071 
L 592.110607 -275.163477 
L 594.75726 -275.173039 
L 597.403913 -275.253137 
L 600.050567 -275.357836 
L 602.69722 -275.454525 
L 605.343873 -275.50005 
L 607.990527 -275.612636 
L 610.63718 -275.745655 
L 613.283833 -275.84357 
L 615.930487 -275.944672 
L 618.57714 -276.036621 
L 621.223793 -276.18521 
L 623.870447 -276.277567 
L 626.5171 -276.411772 
L 629.163753 -276.534451 
L 631.810407 -276.56126 
L 634.45706 -276.657663 
L 637.103713 -276.7472 
L 639.750367 -276.837269 
L 642.39702 -276.958069 
L 645.043673 -277.008253 
L 647.690327 -277.082465 
L 650.33698 -277.23698 
L 652.983633 -277.269877 
L 655.630287 -277.38561 
L 658.27694 -277.471919 
L 660.923593 -277.625657 
L 663.570247 -277.756142 
L 666.2169 -277.839713 
L 668.863553 -277.964028 
L 671.510207 -278.005793 
L 674.15686 -278.073304 
L 676.803513 -278.146005 
L 679.450167 -278.222792 
L 682.09682 -278.371708 
L 684.743473 -278.486255 
L 687.390127 -278.550783 
L 690.03678 -278.613717 
L 692.683433 -278.721562 
L 695.330087 -278.819641 
L 697.97674 -278.841422 
L 700.623393 -278.964838 
L 703.270047 -278.99655 
L 705.9167 -279.085597 
L 708.563353 -279.143504 
L 711.210007 -279.297038 
L 713.85666 -279.376686 
L 716.503313 -279.519554 
L 719.149967 -279.613382 
L 721.79662 -279.672434 
L 724.443273 -279.760091 
L 727.089927 -279.817713 
L 729.73658 -279.822698 
L 732.383233 -279.917671 
L 735.029887 -280.042599 
L 737.67654 -280.160702 
L 740.323193 -280.187551 
L 742.969847 -280.294701 
L 745.6165 -280.344517 
L 748.263153 -280.399114 
L 750.909807 -280.486445 
L 753.55646 -280.520813 
L 756.203113 -280.598867 
L 758.849767 -280.702872 
L 761.49642 -280.743615 
L 764.143073 -280.805731 
L 766.789727 -280.942388 
L 769.43638 -280.995268 
L 772.083033 -281.042019 
L 774.729687 -281.03548 
L 777.37634 -281.072137 
L 780.022993 -281.13548 
L 782.669647 -281.190322 
L 785.3163 -281.287583 
L 787.962953 -281.362981 
L 790.609607 -281.379654 
L 793.25626 -281.438992 
L 795.902913 -281.462081 
L 798.549567 -281.510099 
L 801.19622 -281.547859 
L 803.842873 -281.598165 
L 806.489527 -281.631348 
L 809.13618 -281.645938 
L 811.782833 -281.699595 
L 814.429487 -281.747858 
L 817.07614 -281.818352 
L 819.722793 -281.917942 
L 822.369447 -282.000369 
L 825.0161 -282.109032 
L 827.662753 -282.205149 
L 830.309407 -282.275684 
L 832.95606 -282.314752 
L 835.602713 -282.377808 
L 838.249367 -282.476377 
L 840.89602 -282.495829 
L 843.542673 -282.532976 
L 843.542673 -372.805455 
L 843.542673 -372.805455 
L 840.89602 -372.776317 
L 838.249367 -372.732018 
L 835.602713 -372.753514 
L 832.95606 -372.722415 
L 830.309407 -372.672395 
L 827.662753 -372.657765 
L 825.0161 -372.659726 
L 822.369447 -372.674969 
L 819.722793 -372.657519 
L 817.07614 -372.684614 
L 814.429487 -372.65188 
L 811.782833 -372.616694 
L 809.13618 -372.614283 
L 806.489527 -372.568717 
L 803.842873 -372.514856 
L 801.19622 -372.457112 
L 798.549567 -372.428179 
L 795.902913 -372.398306 
L 793.25626 -372.357072 
L 790.609607 -372.362875 
L 787.962953 -372.325033 
L 785.3163 -372.316165 
L 782.669647 -372.332185 
L 780.022993 -372.308401 
L 777.37634 -372.273828 
L 774.729687 -372.241666 
L 772.083033 -372.170723 
L 769.43638 -372.131001 
L 766.789727 -372.120785 
L 764.143073 -372.141626 
L 761.49642 -372.131655 
L 758.849767 -372.095734 
L 756.203113 -372.135742 
L 753.55646 -372.125934 
L 750.909807 -372.087152 
L 748.263153 -372.110241 
L 745.6165 -372.088092 
L 742.969847 -372.044569 
L 740.323193 -372.053723 
L 737.67654 -371.993609 
L 735.029887 -371.998023 
L 732.383233 -372.013184 
L 729.73658 -372.014247 
L 727.089927 -371.935947 
L 724.443273 -371.888461 
L 721.79662 -371.885069 
L 719.149967 -371.877182 
L 716.503313 -371.861735 
L 713.85666 -371.86811 
L 711.210007 -371.870521 
L 708.563353 -371.912654 
L 705.9167 -371.87616 
L 703.270047 -371.831003 
L 700.623393 -371.801008 
L 697.97674 -371.825854 
L 695.330087 -371.783313 
L 692.683433 -371.776937 
L 690.03678 -371.76431 
L 687.390127 -371.719275 
L 684.743473 -371.703379 
L 682.09682 -371.723362 
L 679.450167 -371.765127 
L 676.803513 -371.707057 
L 674.15686 -371.691568 
L 671.510207 -371.672279 
L 668.863553 -371.594307 
L 666.2169 -371.612288 
L 663.570247 -371.601459 
L 660.923593 -371.579187 
L 658.27694 -371.573956 
L 655.630287 -371.552052 
L 652.983633 -371.551479 
L 650.33698 -371.503298 
L 647.690327 -371.530474 
L 645.043673 -371.511512 
L 642.39702 -371.435502 
L 639.750367 -371.427655 
L 637.103713 -371.387525 
L 634.45706 -371.380455 
L 631.810407 -371.378289 
L 629.163753 -371.307019 
L 626.5171 -371.271465 
L 623.870447 -371.262475 
L 621.223793 -371.226839 
L 618.57714 -371.261085 
L 615.930487 -371.228311 
L 613.283833 -371.209349 
L 610.63718 -371.184175 
L 607.990527 -371.184461 
L 605.343873 -371.151401 
L 602.69722 -371.074899 
L 600.050567 -371.038774 
L 597.403913 -370.999379 
L 594.75726 -370.992186 
L 592.110607 -370.916666 
L 589.463953 -370.897704 
L 586.8173 -370.820712 
L 584.170647 -370.803467 
L 581.523993 -370.760639 
L 578.87734 -370.744048 
L 576.230687 -370.784056 
L 573.584033 -370.762928 
L 570.93738 -370.766688 
L 568.290727 -370.795376 
L 565.644073 -370.770978 
L 562.99742 -370.727742 
L 560.350767 -370.670325 
L 557.704113 -370.622144 
L 555.05746 -370.581401 
L 552.410807 -370.590391 
L 549.764153 -370.505063 
L 547.1175 -370.445194 
L 544.470847 -370.388676 
L 541.824193 -370.374741 
L 539.17754 -370.313565 
L 536.530887 -370.252511 
L 533.884233 -370.215077 
L 531.23758 -370.209356 
L 528.590927 -370.154718 
L 525.944273 -370.154514 
L 523.29762 -370.182303 
L 520.650967 -370.122965 
L 518.004313 -370.138535 
L 515.35766 -370.105475 
L 512.711007 -370.082263 
L 510.064353 -370.008786 
L 507.4177 -369.991295 
L 504.771047 -369.98541 
L 502.124393 -369.926318 
L 499.47774 -369.866163 
L 496.831087 -369.828648 
L 494.184433 -369.722601 
L 491.53778 -369.643116 
L 488.891127 -369.619495 
L 486.244473 -369.628854 
L 483.59782 -369.538009 
L 480.951167 -369.453702 
L 478.304513 -369.437233 
L 475.65786 -369.404499 
L 473.011207 -369.359506 
L 470.364553 -369.324238 
L 467.7179 -369.293057 
L 465.071247 -369.269314 
L 462.424593 -369.258362 
L 459.77794 -369.225792 
L 457.131287 -369.247655 
L 454.484633 -369.215003 
L 451.83798 -369.194284 
L 449.191327 -369.173483 
L 446.544673 -369.113492 
L 443.89802 -368.964167 
L 441.251367 -368.867029 
L 438.604713 -368.81472 
L 435.95806 -368.765313 
L 433.311407 -368.697761 
L 430.664753 -368.694165 
L 428.0181 -368.562127 
L 425.371447 -368.567971 
L 422.724793 -368.454241 
L 420.07814 -368.394699 
L 417.431487 -368.360167 
L 414.784833 -368.410759 
L 412.13818 -368.308716 
L 409.491527 -368.299399 
L 406.844873 -368.213703 
L 404.19822 -368.170834 
L 401.551567 -368.005572 
L 398.904913 -367.971653 
L 396.25826 -367.84644 
L 393.611607 -367.867077 
L 390.964953 -367.860211 
L 388.3183 -367.869692 
L 385.671647 -367.773616 
L 383.024993 -367.675946 
L 380.37834 -367.657802 
L 377.731687 -367.54068 
L 375.085033 -367.521391 
L 372.43838 -367.463688 
L 369.791727 -367.330914 
L 367.145073 -367.332917 
L 364.49842 -367.348487 
L 361.851767 -367.255721 
L 359.205113 -367.209951 
L 356.55846 -367.151022 
L 353.911807 -367.089682 
L 351.265153 -367.095607 
L 348.6185 -367.114365 
L 345.971847 -366.978077 
L 343.325193 -366.874481 
L 340.67854 -366.804886 
L 338.031887 -366.738806 
L 335.385233 -366.692627 
L 332.73858 -366.535742 
L 330.091927 -366.498554 
L 327.445273 -366.393038 
L 324.79862 -366.354706 
L 322.151967 -366.219766 
L 319.505313 -366.210653 
L 316.85866 -366.060347 
L 314.212007 -366.014455 
L 311.565353 -365.930026 
L 308.9187 -365.695495 
L 306.272047 -365.578864 
L 303.625393 -365.435342 
L 300.97874 -365.348542 
L 298.332087 -365.122267 
L 295.685433 -365.078009 
L 293.03878 -364.862808 
L 290.392127 -364.709602 
L 287.745473 -364.69064 
L 285.09882 -364.512055 
L 282.452167 -364.318922 
L 279.805513 -364.288681 
L 277.15886 -364.130284 
L 274.512207 -364.029795 
L 271.865553 -363.954397 
L 269.2189 -363.880307 
L 266.572247 -363.864491 
L 263.925593 -363.688236 
L 261.27894 -363.527469 
L 258.632287 -363.294737 
L 255.985633 -363.217827 
L 253.33898 -363.159266 
L 250.692327 -363.061555 
L 248.045673 -362.879497 
L 245.39902 -362.679457 
L 242.752367 -362.482605 
L 240.105713 -362.421511 
L 237.45906 -362.246481 
L 234.812407 -362.166506 
L 232.165753 -362.132465 
L 229.5191 -362.149098 
L 226.872447 -361.914485 
L 224.225793 -361.673457 
L 221.57914 -361.615019 
L 218.932487 -361.520169 
L 216.285833 -361.192014 
L 213.63918 -361.072645 
L 210.992527 -360.825691 
L 208.345873 -360.418665 
L 205.69922 -360.251441 
L 203.052567 -360.13109 
L 200.405913 -359.879437 
L 197.75926 -359.711805 
L 195.112607 -359.587654 
L 192.465953 -359.295992 
L 189.8193 -358.972701 
L 187.172647 -358.614755 
L 184.525993 -358.354847 
L 181.87934 -358.232004 
L 179.232687 -358.213124 
L 176.586033 -357.830413 
L 173.93938 -357.483623 
L 171.292727 -357.225881 
L 168.646073 -356.982687 
L 165.99942 -356.566916 
L 163.352767 -356.240846 
L 160.706113 -355.879917 
L 158.05946 -355.661814 
L 155.412807 -355.497696 
L 152.766153 -355.266067 
L 150.1195 -354.873753 
L 147.472847 -354.615194 
L 144.826193 -354.376863 
L 142.17954 -353.943396 
L 139.532887 -353.713198 
L 136.886233 -353.421414 
L 134.23958 -352.995999 
L 131.592927 -352.619786 
L 128.946273 -352.132621 
L 126.29962 -351.672878 
L 123.652967 -351.200548 
L 121.006313 -350.464101 
L 118.35966 -349.925936 
L 115.713007 -349.17731 
L 113.066353 -348.526396 
L 110.4197 -348.197669 
L 107.773047 -347.812915 
L 105.126393 -347.18464 
L 102.47974 -346.270385 
L 99.833087 -345.50435 
L 97.186433 -344.586498 
L 94.53978 -343.925286 
L 91.893127 -343.5145 
L 89.246473 -342.436371 
L 86.59982 -341.349498 
L 83.953167 -340.242518 
L 81.306513 -338.872973 
L 78.65986 -336.967185 
L 76.013207 -335.366624 
L 73.366553 -332.813313 
L 70.7199 -330.99653 
L 68.073247 -328.556295 
L 65.426593 -324.8128 
L 62.77994 -321.514664 
L 60.133287 -316.447681 
L 57.486633 -310.454346 
L 54.83998 -303.535272 
L 52.193327 -303.721907 
z
" style="stroke: #0000ff; stroke-opacity: 0.2"/>
    </defs>
    <g clip-path="url(#paecd22d43c)">
     <use xlink:href="#m77285bb1c6" x="0" y="432" style="fill: #0000ff; fill-opacity: 0.2; stroke: #0000ff; stroke-opacity: 0.2"/>
    </g>
   </g>
   <g id="matplotlib.axis_1">
    <g id="xtick_1">
     <g id="line2d_1">
      <defs>
       <path id="m22f4217e15" d="M 0 0 
L 0 3.5 
" style="stroke: #000000; stroke-width: 0.8"/>
      </defs>
      <g>
       <use xlink:href="#m22f4217e15" x="181.87934" y="390.04" style="stroke: #000000; stroke-width: 0.8"/>
      </g>
     </g>
     <g id="text_1">
      <!-- 50 -->
      <g transform="translate(175.51684 404.638438) scale(0.1 -0.1)">
       <defs>
        <path id="DejaVuSans-35" d="M 691 4666 
L 3169 4666 
L 3169 4134 
L 1269 4134 
L 1269 2991 
Q 1406 3038 1543 3061 
Q 1681 3084 1819 3084 
Q 2600 3084 3056 2656 
Q 3513 2228 3513 1497 
Q 3513 744 3044 326 
Q 2575 -91 1722 -91 
Q 1428 -91 1123 -41 
Q 819 9 494 109 
L 494 744 
Q 775 591 1075 516 
Q 1375 441 1709 441 
Q 2250 441 2565 725 
Q 2881 1009 2881 1497 
Q 2881 1984 2565 2268 
Q 2250 2553 1709 2553 
Q 1456 2553 1204 2497 
Q 953 2441 691 2322 
L 691 4666 
z
" transform="scale(0.015625)"/>
        <path id="DejaVuSans-30" d="M 2034 4250 
Q 1547 4250 1301 3770 
Q 1056 3291 1056 2328 
Q 1056 1369 1301 889 
Q 1547 409 2034 409 
Q 2525 409 2770 889 
Q 3016 1369 3016 2328 
Q 3016 3291 2770 3770 
Q 2525 4250 2034 4250 
z
M 2034 4750 
Q 2819 4750 3233 4129 
Q 3647 3509 3647 2328 
Q 3647 1150 3233 529 
Q 2819 -91 2034 -91 
Q 1250 -91 836 529 
Q 422 1150 422 2328 
Q 422 3509 836 4129 
Q 1250 4750 2034 4750 
z
" transform="scale(0.015625)"/>
       </defs>
       <use xlink:href="#DejaVuSans-35"/>
       <use xlink:href="#DejaVuSans-30" transform="translate(63.623047 0)"/>
      </g>
     </g>
    </g>
    <g id="xtick_2">
     <g id="line2d_2">
      <g>
       <use xlink:href="#m22f4217e15" x="314.212007" y="390.04" style="stroke: #000000; stroke-width: 0.8"/>
      </g>
     </g>
     <g id="text_2">
      <!-- 100 -->
      <g transform="translate(304.668257 404.638438) scale(0.1 -0.1)">
       <defs>
        <path id="DejaVuSans-31" d="M 794 531 
L 1825 531 
L 1825 4091 
L 703 3866 
L 703 4441 
L 1819 4666 
L 2450 4666 
L 2450 531 
L 3481 531 
L 3481 0 
L 794 0 
L 794 531 
z
" transform="scale(0.015625)"/>
       </defs>
       <use xlink:href="#DejaVuSans-31"/>
       <use xlink:href="#DejaVuSans-30" transform="translate(63.623047 0)"/>
       <use xlink:href="#DejaVuSans-30" transform="translate(127.246094 0)"/>
      </g>
     </g>
    </g>
    <g id="xtick_3">
     <g id="line2d_3">
      <g>
       <use xlink:href="#m22f4217e15" x="446.544673" y="390.04" style="stroke: #000000; stroke-width: 0.8"/>
      </g>
     </g>
     <g id="text_3">
      <!-- 150 -->
      <g transform="translate(437.000923 404.638438) scale(0.1 -0.1)">
       <use xlink:href="#DejaVuSans-31"/>
       <use xlink:href="#DejaVuSans-35" transform="translate(63.623047 0)"/>
       <use xlink:href="#DejaVuSans-30" transform="translate(127.246094 0)"/>
      </g>
     </g>
    </g>
    <g id="xtick_4">
     <g id="line2d_4">
      <g>
       <use xlink:href="#m22f4217e15" x="578.87734" y="390.04" style="stroke: #000000; stroke-width: 0.8"/>
      </g>
     </g>
     <g id="text_4">
      <!-- 200 -->
      <g transform="translate(569.33359 404.638438) scale(0.1 -0.1)">
       <defs>
        <path id="DejaVuSans-32" d="M 1228 531 
L 3431 531 
L 3431 0 
L 469 0 
L 469 531 
Q 828 903 1448 1529 
Q 2069 2156 2228 2338 
Q 2531 2678 2651 2914 
Q 2772 3150 2772 3378 
Q 2772 3750 2511 3984 
Q 2250 4219 1831 4219 
Q 1534 4219 1204 4116 
Q 875 4013 500 3803 
L 500 4441 
Q 881 4594 1212 4672 
Q 1544 4750 1819 4750 
Q 2544 4750 2975 4387 
Q 3406 4025 3406 3419 
Q 3406 3131 3298 2873 
Q 3191 2616 2906 2266 
Q 2828 2175 2409 1742 
Q 1991 1309 1228 531 
z
" transform="scale(0.015625)"/>
       </defs>
       <use xlink:href="#DejaVuSans-32"/>
       <use xlink:href="#DejaVuSans-30" transform="translate(63.623047 0)"/>
       <use xlink:href="#DejaVuSans-30" transform="translate(127.246094 0)"/>
      </g>
     </g>
    </g>
    <g id="xtick_5">
     <g id="line2d_5">
      <g>
       <use xlink:href="#m22f4217e15" x="711.210007" y="390.04" style="stroke: #000000; stroke-width: 0.8"/>
      </g>
     </g>
     <g id="text_5">
      <!-- 250 -->
      <g transform="translate(701.666257 404.638438) scale(0.1 -0.1)">
       <use xlink:href="#DejaVuSans-32"/>
       <use xlink:href="#DejaVuSans-35" transform="translate(63.623047 0)"/>
       <use xlink:href="#DejaVuSans-30" transform="translate(127.246094 0)"/>
      </g>
     </g>
    </g>
    <g id="xtick_6">
     <g id="line2d_6">
      <g>
       <use xlink:href="#m22f4217e15" x="843.542673" y="390.04" style="stroke: #000000; stroke-width: 0.8"/>
      </g>
     </g>
     <g id="text_6">
      <!-- 300 -->
      <g transform="translate(833.998923 404.638438) scale(0.1 -0.1)">
       <defs>
        <path id="DejaVuSans-33" d="M 2597 2516 
Q 3050 2419 3304 2112 
Q 3559 1806 3559 1356 
Q 3559 666 3084 287 
Q 2609 -91 1734 -91 
Q 1441 -91 1130 -33 
Q 819 25 488 141 
L 488 750 
Q 750 597 1062 519 
Q 1375 441 1716 441 
Q 2309 441 2620 675 
Q 2931 909 2931 1356 
Q 2931 1769 2642 2001 
Q 2353 2234 1838 2234 
L 1294 2234 
L 1294 2753 
L 1863 2753 
Q 2328 2753 2575 2939 
Q 2822 3125 2822 3475 
Q 2822 3834 2567 4026 
Q 2313 4219 1838 4219 
Q 1578 4219 1281 4162 
Q 984 4106 628 3988 
L 628 4550 
Q 988 4650 1302 4700 
Q 1616 4750 1894 4750 
Q 2613 4750 3031 4423 
Q 3450 4097 3450 3541 
Q 3450 3153 3228 2886 
Q 3006 2619 2597 2516 
z
" transform="scale(0.015625)"/>
       </defs>
       <use xlink:href="#DejaVuSans-33"/>
       <use xlink:href="#DejaVuSans-30" transform="translate(63.623047 0)"/>
       <use xlink:href="#DejaVuSans-30" transform="translate(127.246094 0)"/>
      </g>
     </g>
    </g>
    <g id="text_7">
     <!-- Step -->
     <g transform="translate(436.482844 418.316562) scale(0.1 -0.1)">
      <defs>
       <path id="DejaVuSans-53" d="M 3425 4513 
L 3425 3897 
Q 3066 4069 2747 4153 
Q 2428 4238 2131 4238 
Q 1616 4238 1336 4038 
Q 1056 3838 1056 3469 
Q 1056 3159 1242 3001 
Q 1428 2844 1947 2747 
L 2328 2669 
Q 3034 2534 3370 2195 
Q 3706 1856 3706 1288 
Q 3706 609 3251 259 
Q 2797 -91 1919 -91 
Q 1588 -91 1214 -16 
Q 841 59 441 206 
L 441 856 
Q 825 641 1194 531 
Q 1563 422 1919 422 
Q 2459 422 2753 634 
Q 3047 847 3047 1241 
Q 3047 1584 2836 1778 
Q 2625 1972 2144 2069 
L 1759 2144 
Q 1053 2284 737 2584 
Q 422 2884 422 3419 
Q 422 4038 858 4394 
Q 1294 4750 2059 4750 
Q 2388 4750 2728 4690 
Q 3069 4631 3425 4513 
z
" transform="scale(0.015625)"/>
       <path id="DejaVuSans-74" d="M 1172 4494 
L 1172 3500 
L 2356 3500 
L 2356 3053 
L 1172 3053 
L 1172 1153 
Q 1172 725 1289 603 
Q 1406 481 1766 481 
L 2356 481 
L 2356 0 
L 1766 0 
Q 1100 0 847 248 
Q 594 497 594 1153 
L 594 3053 
L 172 3053 
L 172 3500 
L 594 3500 
L 594 4494 
L 1172 4494 
z
" transform="scale(0.015625)"/>
       <path id="DejaVuSans-65" d="M 3597 1894 
L 3597 1613 
L 953 1613 
Q 991 1019 1311 708 
Q 1631 397 2203 397 
Q 2534 397 2845 478 
Q 3156 559 3463 722 
L 3463 178 
Q 3153 47 2828 -22 
Q 2503 -91 2169 -91 
Q 1331 -91 842 396 
Q 353 884 353 1716 
Q 353 2575 817 3079 
Q 1281 3584 2069 3584 
Q 2775 3584 3186 3129 
Q 3597 2675 3597 1894 
z
M 3022 2063 
Q 3016 2534 2758 2815 
Q 2500 3097 2075 3097 
Q 1594 3097 1305 2825 
Q 1016 2553 972 2059 
L 3022 2063 
z
" transform="scale(0.015625)"/>
       <path id="DejaVuSans-70" d="M 1159 525 
L 1159 -1331 
L 581 -1331 
L 581 3500 
L 1159 3500 
L 1159 2969 
Q 1341 3281 1617 3432 
Q 1894 3584 2278 3584 
Q 2916 3584 3314 3078 
Q 3713 2572 3713 1747 
Q 3713 922 3314 415 
Q 2916 -91 2278 -91 
Q 1894 -91 1617 61 
Q 1341 213 1159 525 
z
M 3116 1747 
Q 3116 2381 2855 2742 
Q 2594 3103 2138 3103 
Q 1681 3103 1420 2742 
Q 1159 2381 1159 1747 
Q 1159 1113 1420 752 
Q 1681 391 2138 391 
Q 2594 391 2855 752 
Q 3116 1113 3116 1747 
z
" transform="scale(0.015625)"/>
      </defs>
      <use xlink:href="#DejaVuSans-53"/>
      <use xlink:href="#DejaVuSans-74" transform="translate(63.476562 0)"/>
      <use xlink:href="#DejaVuSans-65" transform="translate(102.685547 0)"/>
      <use xlink:href="#DejaVuSans-70" transform="translate(164.208984 0)"/>
     </g>
    </g>
   </g>
   <g id="matplotlib.axis_2">
    <g id="ytick_1">
     <g id="line2d_7">
      <defs>
       <path id="m4ffbb63ed4" d="M 0 0 
L -3.5 0 
" style="stroke: #000000; stroke-width: 0.8"/>
      </defs>
      <g>
       <use xlink:href="#m4ffbb63ed4" x="50.87" y="385.485085" style="stroke: #000000; stroke-width: 0.8"/>
      </g>
     </g>
     <g id="text_8">
      <!-- 200 -->
      <g transform="translate(24.7825 389.284304) scale(0.1 -0.1)">
       <use xlink:href="#DejaVuSans-32"/>
       <use xlink:href="#DejaVuSans-30" transform="translate(63.623047 0)"/>
       <use xlink:href="#DejaVuSans-30" transform="translate(127.246094 0)"/>
      </g>
     </g>
    </g>
    <g id="ytick_2">
     <g id="line2d_8">
      <g>
       <use xlink:href="#m4ffbb63ed4" x="50.87" y="318.530128" style="stroke: #000000; stroke-width: 0.8"/>
      </g>
     </g>
     <g id="text_9">
      <!-- 300 -->
      <g transform="translate(24.7825 322.329347) scale(0.1 -0.1)">
       <use xlink:href="#DejaVuSans-33"/>
       <use xlink:href="#DejaVuSans-30" transform="translate(63.623047 0)"/>
       <use xlink:href="#DejaVuSans-30" transform="translate(127.246094 0)"/>
      </g>
     </g>
    </g>
    <g id="ytick_3">
     <g id="line2d_9">
      <g>
       <use xlink:href="#m4ffbb63ed4" x="50.87" y="251.575172" style="stroke: #000000; stroke-width: 0.8"/>
      </g>
     </g>
     <g id="text_10">
      <!-- 400 -->
      <g transform="translate(24.7825 255.37439) scale(0.1 -0.1)">
       <defs>
        <path id="DejaVuSans-34" d="M 2419 4116 
L 825 1625 
L 2419 1625 
L 2419 4116 
z
M 2253 4666 
L 3047 4666 
L 3047 1625 
L 3713 1625 
L 3713 1100 
L 3047 1100 
L 3047 0 
L 2419 0 
L 2419 1100 
L 313 1100 
L 313 1709 
L 2253 4666 
z
" transform="scale(0.015625)"/>
       </defs>
       <use xlink:href="#DejaVuSans-34"/>
       <use xlink:href="#DejaVuSans-30" transform="translate(63.623047 0)"/>
       <use xlink:href="#DejaVuSans-30" transform="translate(127.246094 0)"/>
      </g>
     </g>
    </g>
    <g id="ytick_4">
     <g id="line2d_10">
      <g>
       <use xlink:href="#m4ffbb63ed4" x="50.87" y="184.620215" style="stroke: #000000; stroke-width: 0.8"/>
      </g>
     </g>
     <g id="text_11">
      <!-- 500 -->
      <g transform="translate(24.7825 188.419434) scale(0.1 -0.1)">
       <use xlink:href="#DejaVuSans-35"/>
       <use xlink:href="#DejaVuSans-30" transform="translate(63.623047 0)"/>
       <use xlink:href="#DejaVuSans-30" transform="translate(127.246094 0)"/>
      </g>
     </g>
    </g>
    <g id="ytick_5">
     <g id="line2d_11">
      <g>
       <use xlink:href="#m4ffbb63ed4" x="50.87" y="117.665258" style="stroke: #000000; stroke-width: 0.8"/>
      </g>
     </g>
     <g id="text_12">
      <!-- 600 -->
      <g transform="translate(24.7825 121.464477) scale(0.1 -0.1)">
       <defs>
        <path id="DejaVuSans-36" d="M 2113 2584 
Q 1688 2584 1439 2293 
Q 1191 2003 1191 1497 
Q 1191 994 1439 701 
Q 1688 409 2113 409 
Q 2538 409 2786 701 
Q 3034 994 3034 1497 
Q 3034 2003 2786 2293 
Q 2538 2584 2113 2584 
z
M 3366 4563 
L 3366 3988 
Q 3128 4100 2886 4159 
Q 2644 4219 2406 4219 
Q 1781 4219 1451 3797 
Q 1122 3375 1075 2522 
Q 1259 2794 1537 2939 
Q 1816 3084 2150 3084 
Q 2853 3084 3261 2657 
Q 3669 2231 3669 1497 
Q 3669 778 3244 343 
Q 2819 -91 2113 -91 
Q 1303 -91 875 529 
Q 447 1150 447 2328 
Q 447 3434 972 4092 
Q 1497 4750 2381 4750 
Q 2619 4750 2861 4703 
Q 3103 4656 3366 4563 
z
" transform="scale(0.015625)"/>
       </defs>
       <use xlink:href="#DejaVuSans-36"/>
       <use xlink:href="#DejaVuSans-30" transform="translate(63.623047 0)"/>
       <use xlink:href="#DejaVuSans-30" transform="translate(127.246094 0)"/>
      </g>
     </g>
    </g>
    <g id="ytick_6">
     <g id="line2d_12">
      <g>
       <use xlink:href="#m4ffbb63ed4" x="50.87" y="50.710301" style="stroke: #000000; stroke-width: 0.8"/>
      </g>
     </g>
     <g id="text_13">
      <!-- 700 -->
      <g transform="translate(24.7825 54.50952) scale(0.1 -0.1)">
       <defs>
        <path id="DejaVuSans-37" d="M 525 4666 
L 3525 4666 
L 3525 4397 
L 1831 0 
L 1172 0 
L 2766 4134 
L 525 4134 
L 525 4666 
z
" transform="scale(0.015625)"/>
       </defs>
       <use xlink:href="#DejaVuSans-37"/>
       <use xlink:href="#DejaVuSans-30" transform="translate(63.623047 0)"/>
       <use xlink:href="#DejaVuSans-30" transform="translate(127.246094 0)"/>
      </g>
     </g>
    </g>
    <g id="text_14">
     <!-- Profit -->
     <g transform="translate(18.702813 229.779063) rotate(-90) scale(0.1 -0.1)">
      <defs>
       <path id="DejaVuSans-50" d="M 1259 4147 
L 1259 2394 
L 2053 2394 
Q 2494 2394 2734 2622 
Q 2975 2850 2975 3272 
Q 2975 3691 2734 3919 
Q 2494 4147 2053 4147 
L 1259 4147 
z
M 628 4666 
L 2053 4666 
Q 2838 4666 3239 4311 
Q 3641 3956 3641 3272 
Q 3641 2581 3239 2228 
Q 2838 1875 2053 1875 
L 1259 1875 
L 1259 0 
L 628 0 
L 628 4666 
z
" transform="scale(0.015625)"/>
       <path id="DejaVuSans-72" d="M 2631 2963 
Q 2534 3019 2420 3045 
Q 2306 3072 2169 3072 
Q 1681 3072 1420 2755 
Q 1159 2438 1159 1844 
L 1159 0 
L 581 0 
L 581 3500 
L 1159 3500 
L 1159 2956 
Q 1341 3275 1631 3429 
Q 1922 3584 2338 3584 
Q 2397 3584 2469 3576 
Q 2541 3569 2628 3553 
L 2631 2963 
z
" transform="scale(0.015625)"/>
       <path id="DejaVuSans-6f" d="M 1959 3097 
Q 1497 3097 1228 2736 
Q 959 2375 959 1747 
Q 959 1119 1226 758 
Q 1494 397 1959 397 
Q 2419 397 2687 759 
Q 2956 1122 2956 1747 
Q 2956 2369 2687 2733 
Q 2419 3097 1959 3097 
z
M 1959 3584 
Q 2709 3584 3137 3096 
Q 3566 2609 3566 1747 
Q 3566 888 3137 398 
Q 2709 -91 1959 -91 
Q 1206 -91 779 398 
Q 353 888 353 1747 
Q 353 2609 779 3096 
Q 1206 3584 1959 3584 
z
" transform="scale(0.015625)"/>
       <path id="DejaVuSans-66" d="M 2375 4863 
L 2375 4384 
L 1825 4384 
Q 1516 4384 1395 4259 
Q 1275 4134 1275 3809 
L 1275 3500 
L 2222 3500 
L 2222 3053 
L 1275 3053 
L 1275 0 
L 697 0 
L 697 3053 
L 147 3053 
L 147 3500 
L 697 3500 
L 697 3744 
Q 697 4328 969 4595 
Q 1241 4863 1831 4863 
L 2375 4863 
z
" transform="scale(0.015625)"/>
       <path id="DejaVuSans-69" d="M 603 3500 
L 1178 3500 
L 1178 0 
L 603 0 
L 603 3500 
z
M 603 4863 
L 1178 4863 
L 1178 4134 
L 603 4134 
L 603 4863 
z
" transform="scale(0.015625)"/>
      </defs>
      <use xlink:href="#DejaVuSans-50"/>
      <use xlink:href="#DejaVuSans-72" transform="translate(58.552734 0)"/>
      <use xlink:href="#DejaVuSans-6f" transform="translate(97.416016 0)"/>
      <use xlink:href="#DejaVuSans-66" transform="translate(158.597656 0)"/>
      <use xlink:href="#DejaVuSans-69" transform="translate(193.802734 0)"/>
      <use xlink:href="#DejaVuSans-74" transform="translate(221.585938 0)"/>
     </g>
    </g>
   </g>
   <g id="line2d_13">
    <path d="M 52.193327 251.281774 
L 54.83998 251.073152 
L 57.486633 240.28255 
L 60.133287 230.495006 
L 62.77994 221.97057 
L 65.426593 215.045346 
L 68.073247 208.599194 
L 70.7199 202.926699 
L 73.366553 197.95571 
L 76.013207 193.436843 
L 78.65986 189.459921 
L 81.306513 185.700877 
L 86.59982 179.431798 
L 89.246473 176.600087 
L 94.53978 171.631305 
L 97.186433 169.418489 
L 102.47974 165.445123 
L 107.773047 161.967421 
L 118.35966 156.187938 
L 123.652967 153.720976 
L 131.592927 150.473514 
L 139.532887 147.637041 
L 150.1195 144.268942 
L 155.412807 142.766134 
L 171.292727 138.887576 
L 187.172647 135.591892 
L 195.112607 134.11348 
L 203.052567 132.807197 
L 216.285833 130.7453 
L 245.39902 127.001723 
L 263.925593 125.064999 
L 287.745473 122.824149 
L 319.505313 120.365565 
L 375.085033 116.809032 
L 385.671647 116.261264 
L 401.551567 115.481253 
L 417.431487 114.634467 
L 441.251367 113.604111 
L 504.771047 111.381611 
L 528.590927 110.640831 
L 581.523993 109.213053 
L 605.343873 108.674275 
L 634.45706 107.980941 
L 660.923593 107.397578 
L 674.15686 107.117564 
L 716.503313 106.309356 
L 748.263153 105.745322 
L 801.19622 104.997514 
L 825.0161 104.615621 
L 843.542673 104.330785 
L 843.542673 104.330785 
" clip-path="url(#paecd22d43c)" style="fill: none; stroke: #0000ff; stroke-width: 1.5; stroke-linecap: square"/>
   </g>
   <g id="patch_3">
    <path d="M 50.87 390.04 
L 50.87 43.44 
" style="fill: none; stroke: #000000; stroke-width: 0.8; stroke-linejoin: miter; stroke-linecap: square"/>
   </g>
   <g id="patch_4">
    <path d="M 844.866 390.04 
L 844.866 43.44 
" style="fill: none; stroke: #000000; stroke-width: 0.8; stroke-linejoin: miter; stroke-linecap: square"/>
   </g>
   <g id="patch_5">
    <path d="M 50.87 390.04 
L 844.866 390.04 
" style="fill: none; stroke: #000000; stroke-width: 0.8; stroke-linejoin: miter; stroke-linecap: square"/>
   </g>
   <g id="patch_6">
    <path d="M 50.87 43.44 
L 844.866 43.44 
" style="fill: none; stroke: #000000; stroke-width: 0.8; stroke-linejoin: miter; stroke-linecap: square"/>
   </g>
   <g id="text_15">
    <!-- Mean profit per step with confidence interval per simulation step -->
    <g transform="translate(220.284875 21.763062) scale(0.14 -0.14)">
     <defs>
      <path id="DejaVuSans-4d" d="M 628 4666 
L 1569 4666 
L 2759 1491 
L 3956 4666 
L 4897 4666 
L 4897 0 
L 4281 0 
L 4281 4097 
L 3078 897 
L 2444 897 
L 1241 4097 
L 1241 0 
L 628 0 
L 628 4666 
z
" transform="scale(0.015625)"/>
      <path id="DejaVuSans-61" d="M 2194 1759 
Q 1497 1759 1228 1600 
Q 959 1441 959 1056 
Q 959 750 1161 570 
Q 1363 391 1709 391 
Q 2188 391 2477 730 
Q 2766 1069 2766 1631 
L 2766 1759 
L 2194 1759 
z
M 3341 1997 
L 3341 0 
L 2766 0 
L 2766 531 
Q 2569 213 2275 61 
Q 1981 -91 1556 -91 
Q 1019 -91 701 211 
Q 384 513 384 1019 
Q 384 1609 779 1909 
Q 1175 2209 1959 2209 
L 2766 2209 
L 2766 2266 
Q 2766 2663 2505 2880 
Q 2244 3097 1772 3097 
Q 1472 3097 1187 3025 
Q 903 2953 641 2809 
L 641 3341 
Q 956 3463 1253 3523 
Q 1550 3584 1831 3584 
Q 2591 3584 2966 3190 
Q 3341 2797 3341 1997 
z
" transform="scale(0.015625)"/>
      <path id="DejaVuSans-6e" d="M 3513 2113 
L 3513 0 
L 2938 0 
L 2938 2094 
Q 2938 2591 2744 2837 
Q 2550 3084 2163 3084 
Q 1697 3084 1428 2787 
Q 1159 2491 1159 1978 
L 1159 0 
L 581 0 
L 581 3500 
L 1159 3500 
L 1159 2956 
Q 1366 3272 1645 3428 
Q 1925 3584 2291 3584 
Q 2894 3584 3203 3211 
Q 3513 2838 3513 2113 
z
" transform="scale(0.015625)"/>
      <path id="DejaVuSans-20" transform="scale(0.015625)"/>
      <path id="DejaVuSans-73" d="M 2834 3397 
L 2834 2853 
Q 2591 2978 2328 3040 
Q 2066 3103 1784 3103 
Q 1356 3103 1142 2972 
Q 928 2841 928 2578 
Q 928 2378 1081 2264 
Q 1234 2150 1697 2047 
L 1894 2003 
Q 2506 1872 2764 1633 
Q 3022 1394 3022 966 
Q 3022 478 2636 193 
Q 2250 -91 1575 -91 
Q 1294 -91 989 -36 
Q 684 19 347 128 
L 347 722 
Q 666 556 975 473 
Q 1284 391 1588 391 
Q 1994 391 2212 530 
Q 2431 669 2431 922 
Q 2431 1156 2273 1281 
Q 2116 1406 1581 1522 
L 1381 1569 
Q 847 1681 609 1914 
Q 372 2147 372 2553 
Q 372 3047 722 3315 
Q 1072 3584 1716 3584 
Q 2034 3584 2315 3537 
Q 2597 3491 2834 3397 
z
" transform="scale(0.015625)"/>
      <path id="DejaVuSans-77" d="M 269 3500 
L 844 3500 
L 1563 769 
L 2278 3500 
L 2956 3500 
L 3675 769 
L 4391 3500 
L 4966 3500 
L 4050 0 
L 3372 0 
L 2619 2869 
L 1863 0 
L 1184 0 
L 269 3500 
z
" transform="scale(0.015625)"/>
      <path id="DejaVuSans-68" d="M 3513 2113 
L 3513 0 
L 2938 0 
L 2938 2094 
Q 2938 2591 2744 2837 
Q 2550 3084 2163 3084 
Q 1697 3084 1428 2787 
Q 1159 2491 1159 1978 
L 1159 0 
L 581 0 
L 581 4863 
L 1159 4863 
L 1159 2956 
Q 1366 3272 1645 3428 
Q 1925 3584 2291 3584 
Q 2894 3584 3203 3211 
Q 3513 2838 3513 2113 
z
" transform="scale(0.015625)"/>
      <path id="DejaVuSans-63" d="M 3122 3366 
L 3122 2828 
Q 2878 2963 2633 3030 
Q 2388 3097 2138 3097 
Q 1578 3097 1268 2742 
Q 959 2388 959 1747 
Q 959 1106 1268 751 
Q 1578 397 2138 397 
Q 2388 397 2633 464 
Q 2878 531 3122 666 
L 3122 134 
Q 2881 22 2623 -34 
Q 2366 -91 2075 -91 
Q 1284 -91 818 406 
Q 353 903 353 1747 
Q 353 2603 823 3093 
Q 1294 3584 2113 3584 
Q 2378 3584 2631 3529 
Q 2884 3475 3122 3366 
z
" transform="scale(0.015625)"/>
      <path id="DejaVuSans-64" d="M 2906 2969 
L 2906 4863 
L 3481 4863 
L 3481 0 
L 2906 0 
L 2906 525 
Q 2725 213 2448 61 
Q 2172 -91 1784 -91 
Q 1150 -91 751 415 
Q 353 922 353 1747 
Q 353 2572 751 3078 
Q 1150 3584 1784 3584 
Q 2172 3584 2448 3432 
Q 2725 3281 2906 2969 
z
M 947 1747 
Q 947 1113 1208 752 
Q 1469 391 1925 391 
Q 2381 391 2643 752 
Q 2906 1113 2906 1747 
Q 2906 2381 2643 2742 
Q 2381 3103 1925 3103 
Q 1469 3103 1208 2742 
Q 947 2381 947 1747 
z
" transform="scale(0.015625)"/>
      <path id="DejaVuSans-76" d="M 191 3500 
L 800 3500 
L 1894 563 
L 2988 3500 
L 3597 3500 
L 2284 0 
L 1503 0 
L 191 3500 
z
" transform="scale(0.015625)"/>
      <path id="DejaVuSans-6c" d="M 603 4863 
L 1178 4863 
L 1178 0 
L 603 0 
L 603 4863 
z
" transform="scale(0.015625)"/>
      <path id="DejaVuSans-6d" d="M 3328 2828 
Q 3544 3216 3844 3400 
Q 4144 3584 4550 3584 
Q 5097 3584 5394 3201 
Q 5691 2819 5691 2113 
L 5691 0 
L 5113 0 
L 5113 2094 
Q 5113 2597 4934 2840 
Q 4756 3084 4391 3084 
Q 3944 3084 3684 2787 
Q 3425 2491 3425 1978 
L 3425 0 
L 2847 0 
L 2847 2094 
Q 2847 2600 2669 2842 
Q 2491 3084 2119 3084 
Q 1678 3084 1418 2786 
Q 1159 2488 1159 1978 
L 1159 0 
L 581 0 
L 581 3500 
L 1159 3500 
L 1159 2956 
Q 1356 3278 1631 3431 
Q 1906 3584 2284 3584 
Q 2666 3584 2933 3390 
Q 3200 3197 3328 2828 
z
" transform="scale(0.015625)"/>
      <path id="DejaVuSans-75" d="M 544 1381 
L 544 3500 
L 1119 3500 
L 1119 1403 
Q 1119 906 1312 657 
Q 1506 409 1894 409 
Q 2359 409 2629 706 
Q 2900 1003 2900 1516 
L 2900 3500 
L 3475 3500 
L 3475 0 
L 2900 0 
L 2900 538 
Q 2691 219 2414 64 
Q 2138 -91 1772 -91 
Q 1169 -91 856 284 
Q 544 659 544 1381 
z
M 1991 3584 
L 1991 3584 
z
" transform="scale(0.015625)"/>
     </defs>
     <use xlink:href="#DejaVuSans-4d"/>
     <use xlink:href="#DejaVuSans-65" transform="translate(86.279297 0)"/>
     <use xlink:href="#DejaVuSans-61" transform="translate(147.802734 0)"/>
     <use xlink:href="#DejaVuSans-6e" transform="translate(209.082031 0)"/>
     <use xlink:href="#DejaVuSans-20" transform="translate(272.460938 0)"/>
     <use xlink:href="#DejaVuSans-70" transform="translate(304.248047 0)"/>
     <use xlink:href="#DejaVuSans-72" transform="translate(367.724609 0)"/>
     <use xlink:href="#DejaVuSans-6f" transform="translate(406.587891 0)"/>
     <use xlink:href="#DejaVuSans-66" transform="translate(467.769531 0)"/>
     <use xlink:href="#DejaVuSans-69" transform="translate(502.974609 0)"/>
     <use xlink:href="#DejaVuSans-74" transform="translate(530.757812 0)"/>
     <use xlink:href="#DejaVuSans-20" transform="translate(569.966797 0)"/>
     <use xlink:href="#DejaVuSans-70" transform="translate(601.753906 0)"/>
     <use xlink:href="#DejaVuSans-65" transform="translate(665.230469 0)"/>
     <use xlink:href="#DejaVuSans-72" transform="translate(726.753906 0)"/>
     <use xlink:href="#DejaVuSans-20" transform="translate(767.867188 0)"/>
     <use xlink:href="#DejaVuSans-73" transform="translate(799.654297 0)"/>
     <use xlink:href="#DejaVuSans-74" transform="translate(851.753906 0)"/>
     <use xlink:href="#DejaVuSans-65" transform="translate(890.962891 0)"/>
     <use xlink:href="#DejaVuSans-70" transform="translate(952.486328 0)"/>
     <use xlink:href="#DejaVuSans-20" transform="translate(1015.962891 0)"/>
     <use xlink:href="#DejaVuSans-77" transform="translate(1047.75 0)"/>
     <use xlink:href="#DejaVuSans-69" transform="translate(1129.537109 0)"/>
     <use xlink:href="#DejaVuSans-74" transform="translate(1157.320312 0)"/>
     <use xlink:href="#DejaVuSans-68" transform="translate(1196.529297 0)"/>
     <use xlink:href="#DejaVuSans-20" transform="translate(1259.908203 0)"/>
     <use xlink:href="#DejaVuSans-63" transform="translate(1291.695312 0)"/>
     <use xlink:href="#DejaVuSans-6f" transform="translate(1346.675781 0)"/>
     <use xlink:href="#DejaVuSans-6e" transform="translate(1407.857422 0)"/>
     <use xlink:href="#DejaVuSans-66" transform="translate(1471.236328 0)"/>
     <use xlink:href="#DejaVuSans-69" transform="translate(1506.441406 0)"/>
     <use xlink:href="#DejaVuSans-64" transform="translate(1534.224609 0)"/>
     <use xlink:href="#DejaVuSans-65" transform="translate(1597.701172 0)"/>
     <use xlink:href="#DejaVuSans-6e" transform="translate(1659.224609 0)"/>
     <use xlink:href="#DejaVuSans-63" transform="translate(1722.603516 0)"/>
     <use xlink:href="#DejaVuSans-65" transform="translate(1777.583984 0)"/>
     <use xlink:href="#DejaVuSans-20" transform="translate(1839.107422 0)"/>
     <use xlink:href="#DejaVuSans-69" transform="translate(1870.894531 0)"/>
     <use xlink:href="#DejaVuSans-6e" transform="translate(1898.677734 0)"/>
     <use xlink:href="#DejaVuSans-74" transform="translate(1962.056641 0)"/>
     <use xlink:href="#DejaVuSans-65" transform="translate(2001.265625 0)"/>
     <use xlink:href="#DejaVuSans-72" transform="translate(2062.789062 0)"/>
     <use xlink:href="#DejaVuSans-76" transform="translate(2103.902344 0)"/>
     <use xlink:href="#DejaVuSans-61" transform="translate(2163.082031 0)"/>
     <use xlink:href="#DejaVuSans-6c" transform="translate(2224.361328 0)"/>
     <use xlink:href="#DejaVuSans-20" transform="translate(2252.144531 0)"/>
     <use xlink:href="#DejaVuSans-70" transform="translate(2283.931641 0)"/>
     <use xlink:href="#DejaVuSans-65" transform="translate(2347.408203 0)"/>
     <use xlink:href="#DejaVuSans-72" transform="translate(2408.931641 0)"/>
     <use xlink:href="#DejaVuSans-20" transform="translate(2450.044922 0)"/>
     <use xlink:href="#DejaVuSans-73" transform="translate(2481.832031 0)"/>
     <use xlink:href="#DejaVuSans-69" transform="translate(2533.931641 0)"/>
     <use xlink:href="#DejaVuSans-6d" transform="translate(2561.714844 0)"/>
     <use xlink:href="#DejaVuSans-75" transform="translate(2659.126953 0)"/>
     <use xlink:href="#DejaVuSans-6c" transform="translate(2722.505859 0)"/>
     <use xlink:href="#DejaVuSans-61" transform="translate(2750.289062 0)"/>
     <use xlink:href="#DejaVuSans-74" transform="translate(2811.568359 0)"/>
     <use xlink:href="#DejaVuSans-69" transform="translate(2850.777344 0)"/>
     <use xlink:href="#DejaVuSans-6f" transform="translate(2878.560547 0)"/>
     <use xlink:href="#DejaVuSans-6e" transform="translate(2939.742188 0)"/>
     <use xlink:href="#DejaVuSans-20" transform="translate(3003.121094 0)"/>
     <use xlink:href="#DejaVuSans-73" transform="translate(3034.908203 0)"/>
     <use xlink:href="#DejaVuSans-74" transform="translate(3087.007812 0)"/>
     <use xlink:href="#DejaVuSans-65" transform="translate(3126.216797 0)"/>
     <use xlink:href="#DejaVuSans-70" transform="translate(3187.740234 0)"/>
    </g>
    <!-- Base Product: Cocaine, Recipe size: 8, T0: 20.0 -->
    <g transform="translate(283.410656 37.44) scale(0.14 -0.14)">
     <defs>
      <path id="DejaVuSans-42" d="M 1259 2228 
L 1259 519 
L 2272 519 
Q 2781 519 3026 730 
Q 3272 941 3272 1375 
Q 3272 1813 3026 2020 
Q 2781 2228 2272 2228 
L 1259 2228 
z
M 1259 4147 
L 1259 2741 
L 2194 2741 
Q 2656 2741 2882 2914 
Q 3109 3088 3109 3444 
Q 3109 3797 2882 3972 
Q 2656 4147 2194 4147 
L 1259 4147 
z
M 628 4666 
L 2241 4666 
Q 2963 4666 3353 4366 
Q 3744 4066 3744 3513 
Q 3744 3084 3544 2831 
Q 3344 2578 2956 2516 
Q 3422 2416 3680 2098 
Q 3938 1781 3938 1306 
Q 3938 681 3513 340 
Q 3088 0 2303 0 
L 628 0 
L 628 4666 
z
" transform="scale(0.015625)"/>
      <path id="DejaVuSans-3a" d="M 750 794 
L 1409 794 
L 1409 0 
L 750 0 
L 750 794 
z
M 750 3309 
L 1409 3309 
L 1409 2516 
L 750 2516 
L 750 3309 
z
" transform="scale(0.015625)"/>
      <path id="DejaVuSans-43" d="M 4122 4306 
L 4122 3641 
Q 3803 3938 3442 4084 
Q 3081 4231 2675 4231 
Q 1875 4231 1450 3742 
Q 1025 3253 1025 2328 
Q 1025 1406 1450 917 
Q 1875 428 2675 428 
Q 3081 428 3442 575 
Q 3803 722 4122 1019 
L 4122 359 
Q 3791 134 3420 21 
Q 3050 -91 2638 -91 
Q 1578 -91 968 557 
Q 359 1206 359 2328 
Q 359 3453 968 4101 
Q 1578 4750 2638 4750 
Q 3056 4750 3426 4639 
Q 3797 4528 4122 4306 
z
" transform="scale(0.015625)"/>
      <path id="DejaVuSans-2c" d="M 750 794 
L 1409 794 
L 1409 256 
L 897 -744 
L 494 -744 
L 750 256 
L 750 794 
z
" transform="scale(0.015625)"/>
      <path id="DejaVuSans-52" d="M 2841 2188 
Q 3044 2119 3236 1894 
Q 3428 1669 3622 1275 
L 4263 0 
L 3584 0 
L 2988 1197 
Q 2756 1666 2539 1819 
Q 2322 1972 1947 1972 
L 1259 1972 
L 1259 0 
L 628 0 
L 628 4666 
L 2053 4666 
Q 2853 4666 3247 4331 
Q 3641 3997 3641 3322 
Q 3641 2881 3436 2590 
Q 3231 2300 2841 2188 
z
M 1259 4147 
L 1259 2491 
L 2053 2491 
Q 2509 2491 2742 2702 
Q 2975 2913 2975 3322 
Q 2975 3731 2742 3939 
Q 2509 4147 2053 4147 
L 1259 4147 
z
" transform="scale(0.015625)"/>
      <path id="DejaVuSans-7a" d="M 353 3500 
L 3084 3500 
L 3084 2975 
L 922 459 
L 3084 459 
L 3084 0 
L 275 0 
L 275 525 
L 2438 3041 
L 353 3041 
L 353 3500 
z
" transform="scale(0.015625)"/>
      <path id="DejaVuSans-38" d="M 2034 2216 
Q 1584 2216 1326 1975 
Q 1069 1734 1069 1313 
Q 1069 891 1326 650 
Q 1584 409 2034 409 
Q 2484 409 2743 651 
Q 3003 894 3003 1313 
Q 3003 1734 2745 1975 
Q 2488 2216 2034 2216 
z
M 1403 2484 
Q 997 2584 770 2862 
Q 544 3141 544 3541 
Q 544 4100 942 4425 
Q 1341 4750 2034 4750 
Q 2731 4750 3128 4425 
Q 3525 4100 3525 3541 
Q 3525 3141 3298 2862 
Q 3072 2584 2669 2484 
Q 3125 2378 3379 2068 
Q 3634 1759 3634 1313 
Q 3634 634 3220 271 
Q 2806 -91 2034 -91 
Q 1263 -91 848 271 
Q 434 634 434 1313 
Q 434 1759 690 2068 
Q 947 2378 1403 2484 
z
M 1172 3481 
Q 1172 3119 1398 2916 
Q 1625 2713 2034 2713 
Q 2441 2713 2670 2916 
Q 2900 3119 2900 3481 
Q 2900 3844 2670 4047 
Q 2441 4250 2034 4250 
Q 1625 4250 1398 4047 
Q 1172 3844 1172 3481 
z
" transform="scale(0.015625)"/>
      <path id="DejaVuSans-54" d="M -19 4666 
L 3928 4666 
L 3928 4134 
L 2272 4134 
L 2272 0 
L 1638 0 
L 1638 4134 
L -19 4134 
L -19 4666 
z
" transform="scale(0.015625)"/>
      <path id="DejaVuSans-2e" d="M 684 794 
L 1344 794 
L 1344 0 
L 684 0 
L 684 794 
z
" transform="scale(0.015625)"/>
     </defs>
     <use xlink:href="#DejaVuSans-42"/>
     <use xlink:href="#DejaVuSans-61" transform="translate(68.603516 0)"/>
     <use xlink:href="#DejaVuSans-73" transform="translate(129.882812 0)"/>
     <use xlink:href="#DejaVuSans-65" transform="translate(181.982422 0)"/>
     <use xlink:href="#DejaVuSans-20" transform="translate(243.505859 0)"/>
     <use xlink:href="#DejaVuSans-50" transform="translate(275.292969 0)"/>
     <use xlink:href="#DejaVuSans-72" transform="translate(333.845703 0)"/>
     <use xlink:href="#DejaVuSans-6f" transform="translate(372.708984 0)"/>
     <use xlink:href="#DejaVuSans-64" transform="translate(433.890625 0)"/>
     <use xlink:href="#DejaVuSans-75" transform="translate(497.367188 0)"/>
     <use xlink:href="#DejaVuSans-63" transform="translate(560.746094 0)"/>
     <use xlink:href="#DejaVuSans-74" transform="translate(615.726562 0)"/>
     <use xlink:href="#DejaVuSans-3a" transform="translate(654.935547 0)"/>
     <use xlink:href="#DejaVuSans-20" transform="translate(688.626953 0)"/>
     <use xlink:href="#DejaVuSans-43" transform="translate(720.414062 0)"/>
     <use xlink:href="#DejaVuSans-6f" transform="translate(790.238281 0)"/>
     <use xlink:href="#DejaVuSans-63" transform="translate(851.419922 0)"/>
     <use xlink:href="#DejaVuSans-61" transform="translate(906.400391 0)"/>
     <use xlink:href="#DejaVuSans-69" transform="translate(967.679688 0)"/>
     <use xlink:href="#DejaVuSans-6e" transform="translate(995.462891 0)"/>
     <use xlink:href="#DejaVuSans-65" transform="translate(1058.841797 0)"/>
     <use xlink:href="#DejaVuSans-2c" transform="translate(1120.365234 0)"/>
     <use xlink:href="#DejaVuSans-20" transform="translate(1152.152344 0)"/>
     <use xlink:href="#DejaVuSans-52" transform="translate(1183.939453 0)"/>
     <use xlink:href="#DejaVuSans-65" transform="translate(1248.921875 0)"/>
     <use xlink:href="#DejaVuSans-63" transform="translate(1310.445312 0)"/>
     <use xlink:href="#DejaVuSans-69" transform="translate(1365.425781 0)"/>
     <use xlink:href="#DejaVuSans-70" transform="translate(1393.208984 0)"/>
     <use xlink:href="#DejaVuSans-65" transform="translate(1456.685547 0)"/>
     <use xlink:href="#DejaVuSans-20" transform="translate(1518.208984 0)"/>
     <use xlink:href="#DejaVuSans-73" transform="translate(1549.996094 0)"/>
     <use xlink:href="#DejaVuSans-69" transform="translate(1602.095703 0)"/>
     <use xlink:href="#DejaVuSans-7a" transform="translate(1629.878906 0)"/>
     <use xlink:href="#DejaVuSans-65" transform="translate(1682.369141 0)"/>
     <use xlink:href="#DejaVuSans-3a" transform="translate(1743.892578 0)"/>
     <use xlink:href="#DejaVuSans-20" transform="translate(1777.583984 0)"/>
     <use xlink:href="#DejaVuSans-38" transform="translate(1809.371094 0)"/>
     <use xlink:href="#DejaVuSans-2c" transform="translate(1872.994141 0)"/>
     <use xlink:href="#DejaVuSans-20" transform="translate(1904.78125 0)"/>
     <use xlink:href="#DejaVuSans-54" transform="translate(1936.568359 0)"/>
     <use xlink:href="#DejaVuSans-30" transform="translate(1997.652344 0)"/>
     <use xlink:href="#DejaVuSans-3a" transform="translate(2061.275391 0)"/>
     <use xlink:href="#DejaVuSans-20" transform="translate(2094.966797 0)"/>
     <use xlink:href="#DejaVuSans-32" transform="translate(2126.753906 0)"/>
     <use xlink:href="#DejaVuSans-30" transform="translate(2190.376953 0)"/>
     <use xlink:href="#DejaVuSans-2e" transform="translate(2254 0)"/>
     <use xlink:href="#DejaVuSans-30" transform="translate(2285.787109 0)"/>
    </g>
   </g>
  </g>
 </g>
 <defs>
  <clipPath id="paecd22d43c">
   <rect x="50.87" y="43.44" width="793.996" height="346.6"/>
  </clipPath>
 </defs>
</svg>
