<?xml version="1.0" encoding="utf-8" standalone="no"?>
<!DOCTYPE svg PUBLIC "-//W3C//DTD SVG 1.1//EN"
  "http://www.w3.org/Graphics/SVG/1.1/DTD/svg11.dtd">
<svg xmlns:xlink="http://www.w3.org/1999/xlink" width="864pt" height="432pt" viewBox="0 0 864 432" xmlns="http://www.w3.org/2000/svg" version="1.1">
 <metadata>
  <rdf:RDF xmlns:dc="http://purl.org/dc/elements/1.1/" xmlns:cc="http://creativecommons.org/ns#" xmlns:rdf="http://www.w3.org/1999/02/22-rdf-syntax-ns#">
   <cc:Work>
    <dc:type rdf:resource="http://purl.org/dc/dcmitype/StillImage"/>
    <dc:date>2025-05-24T02:22:05.401557</dc:date>
    <dc:format>image/svg+xml</dc:format>
    <dc:creator>
     <cc:Agent>
      <dc:title>Matplotlib v3.10.3, https://matplotlib.org/</dc:title>
     </cc:Agent>
    </dc:creator>
   </cc:Work>
  </rdf:RDF>
 </metadata>
 <defs>
  <style type="text/css">*{stroke-linejoin: round; stroke-linecap: butt}</style>
 </defs>
 <g id="figure_1">
  <g id="patch_1">
   <path d="M 0 432 
L 864 432 
L 864 0 
L 0 0 
z
" style="fill: #ffffff"/>
  </g>
  <g id="axes_1">
   <g id="patch_2">
    <path d="M 47.72 390.04 
L 713.11 390.04 
L 713.11 43.44 
L 47.72 43.44 
z
" style="fill: #ffffff"/>
   </g>
   <g id="patch_3">
    <path d="M 77.965 390.04 
L 132.955909 390.04 
L 132.955909 378.057543 
L 77.965 378.057543 
z
" clip-path="url(#p50c60a448d)" style="fill: #1f77b4"/>
   </g>
   <g id="patch_4">
    <path d="M 146.703636 390.04 
L 201.694545 390.04 
L 201.694545 375.119695 
L 146.703636 375.119695 
z
" clip-path="url(#p50c60a448d)" style="fill: #1f77b4"/>
   </g>
   <g id="patch_5">
    <path d="M 215.442273 390.04 
L 270.433182 390.04 
L 270.433182 370.993505 
L 215.442273 370.993505 
z
" clip-path="url(#p50c60a448d)" style="fill: #1f77b4"/>
   </g>
   <g id="patch_6">
    <path d="M 284.180909 390.04 
L 339.171818 390.04 
L 339.171818 369.739143 
L 284.180909 369.739143 
z
" clip-path="url(#p50c60a448d)" style="fill: #1f77b4"/>
   </g>
   <g id="patch_7">
    <path d="M 352.919545 390.04 
L 407.910455 390.04 
L 407.910455 369.508077 
L 352.919545 369.508077 
z
" clip-path="url(#p50c60a448d)" style="fill: #1f77b4"/>
   </g>
   <g id="patch_8">
    <path d="M 421.658182 390.04 
L 476.649091 390.04 
L 476.649091 367.626533 
L 421.658182 367.626533 
z
" clip-path="url(#p50c60a448d)" style="fill: #1f77b4"/>
   </g>
   <g id="patch_9">
    <path d="M 490.396818 390.04 
L 545.387727 390.04 
L 545.387727 365.943048 
L 490.396818 365.943048 
z
" clip-path="url(#p50c60a448d)" style="fill: #1f77b4"/>
   </g>
   <g id="patch_10">
    <path d="M 559.135455 390.04 
L 614.126364 390.04 
L 614.126364 363.962475 
L 559.135455 363.962475 
z
" clip-path="url(#p50c60a448d)" style="fill: #1f77b4"/>
   </g>
   <g id="patch_11">
    <path d="M 627.874091 390.04 
L 682.865 390.04 
L 682.865 373.337181 
L 627.874091 373.337181 
z
" clip-path="url(#p50c60a448d)" style="fill: #1f77b4"/>
   </g>
   <g id="patch_12">
    <path d="M 77.965 378.057543 
L 132.955909 378.057543 
L 132.955909 346.764514 
L 77.965 346.764514 
z
" clip-path="url(#p50c60a448d)" style="fill: #ff7f0e"/>
   </g>
   <g id="patch_13">
    <path d="M 146.703636 375.119695 
L 201.694545 375.119695 
L 201.694545 348.580039 
L 146.703636 348.580039 
z
" clip-path="url(#p50c60a448d)" style="fill: #ff7f0e"/>
   </g>
   <g id="patch_14">
    <path d="M 215.442273 370.993505 
L 270.433182 370.993505 
L 270.433182 350.296532 
L 215.442273 350.296532 
z
" clip-path="url(#p50c60a448d)" style="fill: #ff7f0e"/>
   </g>
   <g id="patch_15">
    <path d="M 284.180909 369.739143 
L 339.171818 369.739143 
L 339.171818 353.069333 
L 284.180909 353.069333 
z
" clip-path="url(#p50c60a448d)" style="fill: #ff7f0e"/>
   </g>
   <g id="patch_16">
    <path d="M 352.919545 369.508077 
L 407.910455 369.508077 
L 407.910455 353.960591 
L 352.919545 353.960591 
z
" clip-path="url(#p50c60a448d)" style="fill: #ff7f0e"/>
   </g>
   <g id="patch_17">
    <path d="M 421.658182 367.626533 
L 476.649091 367.626533 
L 476.649091 354.092628 
L 421.658182 354.092628 
z
" clip-path="url(#p50c60a448d)" style="fill: #ff7f0e"/>
   </g>
   <g id="patch_18">
    <path d="M 490.396818 365.943048 
L 545.387727 365.943048 
L 545.387727 354.75282 
L 490.396818 354.75282 
z
" clip-path="url(#p50c60a448d)" style="fill: #ff7f0e"/>
   </g>
   <g id="patch_19">
    <path d="M 559.135455 363.962475 
L 614.126364 363.962475 
L 614.126364 353.630494 
L 559.135455 353.630494 
z
" clip-path="url(#p50c60a448d)" style="fill: #ff7f0e"/>
   </g>
   <g id="patch_20">
    <path d="M 627.874091 373.337181 
L 682.865 373.337181 
L 682.865 352.475163 
L 627.874091 352.475163 
z
" clip-path="url(#p50c60a448d)" style="fill: #ff7f0e"/>
   </g>
   <g id="patch_21">
    <path d="M 77.965 346.764514 
L 132.955909 346.764514 
L 132.955909 339.304361 
L 77.965 339.304361 
z
" clip-path="url(#p50c60a448d)" style="fill: #2ca02c"/>
   </g>
   <g id="patch_22">
    <path d="M 146.703636 348.580039 
L 201.694545 348.580039 
L 201.694545 338.875239 
L 146.703636 338.875239 
z
" clip-path="url(#p50c60a448d)" style="fill: #2ca02c"/>
   </g>
   <g id="patch_23">
    <path d="M 215.442273 350.296532 
L 270.433182 350.296532 
L 270.433182 333.098571 
L 215.442273 333.098571 
z
" clip-path="url(#p50c60a448d)" style="fill: #2ca02c"/>
   </g>
   <g id="patch_24">
    <path d="M 284.180909 353.069333 
L 339.171818 353.069333 
L 339.171818 329.401505 
L 284.180909 329.401505 
z
" clip-path="url(#p50c60a448d)" style="fill: #2ca02c"/>
   </g>
   <g id="patch_25">
    <path d="M 352.919545 353.960591 
L 407.910455 353.960591 
L 407.910455 327.817049 
L 352.919545 327.817049 
z
" clip-path="url(#p50c60a448d)" style="fill: #2ca02c"/>
   </g>
   <g id="patch_26">
    <path d="M 421.658182 354.092628 
L 476.649091 354.092628 
L 476.649091 326.562684 
L 421.658182 326.562684 
z
" clip-path="url(#p50c60a448d)" style="fill: #2ca02c"/>
   </g>
   <g id="patch_27">
    <path d="M 490.396818 354.75282 
L 545.387727 354.75282 
L 545.387727 328.279181 
L 490.396818 328.279181 
z
" clip-path="url(#p50c60a448d)" style="fill: #2ca02c"/>
   </g>
   <g id="patch_28">
    <path d="M 559.135455 353.630494 
L 614.126364 353.630494 
L 614.126364 327.652 
L 559.135455 327.652 
z
" clip-path="url(#p50c60a448d)" style="fill: #2ca02c"/>
   </g>
   <g id="patch_29">
    <path d="M 627.874091 352.475163 
L 682.865 352.475163 
L 682.865 331.481105 
L 627.874091 331.481105 
z
" clip-path="url(#p50c60a448d)" style="fill: #2ca02c"/>
   </g>
   <g id="patch_30">
    <path d="M 77.965 339.304361 
L 132.955909 339.304361 
L 132.955909 321.842323 
L 77.965 321.842323 
z
" clip-path="url(#p50c60a448d)" style="fill: #d62728"/>
   </g>
   <g id="patch_31">
    <path d="M 146.703636 338.875239 
L 201.694545 338.875239 
L 201.694545 317.881181 
L 146.703636 317.881181 
z
" clip-path="url(#p50c60a448d)" style="fill: #d62728"/>
   </g>
   <g id="patch_32">
    <path d="M 215.442273 333.098571 
L 270.433182 333.098571 
L 270.433182 309.430743 
L 215.442273 309.430743 
z
" clip-path="url(#p50c60a448d)" style="fill: #d62728"/>
   </g>
   <g id="patch_33">
    <path d="M 284.180909 329.401505 
L 339.171818 329.401505 
L 339.171818 301.739523 
L 284.180909 301.739523 
z
" clip-path="url(#p50c60a448d)" style="fill: #d62728"/>
   </g>
   <g id="patch_34">
    <path d="M 352.919545 327.817049 
L 407.910455 327.817049 
L 407.910455 298.042459 
L 352.919545 298.042459 
z
" clip-path="url(#p50c60a448d)" style="fill: #d62728"/>
   </g>
   <g id="patch_35">
    <path d="M 421.658182 326.562684 
L 476.649091 326.562684 
L 476.649091 293.982284 
L 421.658182 293.982284 
z
" clip-path="url(#p50c60a448d)" style="fill: #d62728"/>
   </g>
   <g id="patch_36">
    <path d="M 490.396818 328.279181 
L 545.387727 328.279181 
L 545.387727 293.223067 
L 490.396818 293.223067 
z
" clip-path="url(#p50c60a448d)" style="fill: #d62728"/>
   </g>
   <g id="patch_37">
    <path d="M 559.135455 327.652 
L 614.126364 327.652 
L 614.126364 291.869676 
L 559.135455 291.869676 
z
" clip-path="url(#p50c60a448d)" style="fill: #d62728"/>
   </g>
   <g id="patch_38">
    <path d="M 627.874091 331.481105 
L 682.865 331.481105 
L 682.865 302.993886 
L 627.874091 302.993886 
z
" clip-path="url(#p50c60a448d)" style="fill: #d62728"/>
   </g>
   <g id="patch_39">
    <path d="M 77.965 321.842323 
L 132.955909 321.842323 
L 132.955909 263.943618 
L 77.965 263.943618 
z
" clip-path="url(#p50c60a448d)" style="fill: #9467bd"/>
   </g>
   <g id="patch_40">
    <path d="M 146.703636 317.881181 
L 201.694545 317.881181 
L 201.694545 268.663979 
L 146.703636 268.663979 
z
" clip-path="url(#p50c60a448d)" style="fill: #9467bd"/>
   </g>
   <g id="patch_41">
    <path d="M 215.442273 309.430743 
L 270.433182 309.430743 
L 270.433182 266.84846 
L 215.442273 266.84846 
z
" clip-path="url(#p50c60a448d)" style="fill: #9467bd"/>
   </g>
   <g id="patch_42">
    <path d="M 284.180909 301.739523 
L 339.171818 301.739523 
L 339.171818 265.561085 
L 284.180909 265.561085 
z
" clip-path="url(#p50c60a448d)" style="fill: #9467bd"/>
   </g>
   <g id="patch_43">
    <path d="M 352.919545 298.042459 
L 407.910455 298.042459 
L 407.910455 264.04265 
L 352.919545 264.04265 
z
" clip-path="url(#p50c60a448d)" style="fill: #9467bd"/>
   </g>
   <g id="patch_44">
    <path d="M 421.658182 293.982284 
L 476.649091 293.982284 
L 476.649091 263.184399 
L 421.658182 263.184399 
z
" clip-path="url(#p50c60a448d)" style="fill: #9467bd"/>
   </g>
   <g id="patch_45">
    <path d="M 490.396818 293.223067 
L 545.387727 293.223067 
L 545.387727 267.574668 
L 490.396818 267.574668 
z
" clip-path="url(#p50c60a448d)" style="fill: #9467bd"/>
   </g>
   <g id="patch_46">
    <path d="M 559.135455 291.869676 
L 614.126364 291.869676 
L 614.126364 272.724153 
L 559.135455 272.724153 
z
" clip-path="url(#p50c60a448d)" style="fill: #9467bd"/>
   </g>
   <g id="patch_47">
    <path d="M 627.874091 302.993886 
L 682.865 302.993886 
L 682.865 276.487238 
L 627.874091 276.487238 
z
" clip-path="url(#p50c60a448d)" style="fill: #9467bd"/>
   </g>
   <g id="patch_48">
    <path d="M 77.965 263.943618 
L 132.955909 263.943618 
L 132.955909 255.592208 
L 77.965 255.592208 
z
" clip-path="url(#p50c60a448d)" style="fill: #8c564b"/>
   </g>
   <g id="patch_49">
    <path d="M 146.703636 268.663979 
L 201.694545 268.663979 
L 201.694545 261.401884 
L 146.703636 261.401884 
z
" clip-path="url(#p50c60a448d)" style="fill: #8c564b"/>
   </g>
   <g id="patch_50">
    <path d="M 215.442273 266.84846 
L 270.433182 266.84846 
L 270.433182 259.025203 
L 215.442273 259.025203 
z
" clip-path="url(#p50c60a448d)" style="fill: #8c564b"/>
   </g>
   <g id="patch_51">
    <path d="M 284.180909 265.561085 
L 339.171818 265.561085 
L 339.171818 258.629085 
L 284.180909 258.629085 
z
" clip-path="url(#p50c60a448d)" style="fill: #8c564b"/>
   </g>
   <g id="patch_52">
    <path d="M 352.919545 264.04265 
L 407.910455 264.04265 
L 407.910455 258.893164 
L 352.919545 258.893164 
z
" clip-path="url(#p50c60a448d)" style="fill: #8c564b"/>
   </g>
   <g id="patch_53">
    <path d="M 421.658182 263.184399 
L 476.649091 263.184399 
L 476.649091 258.166951 
L 421.658182 258.166951 
z
" clip-path="url(#p50c60a448d)" style="fill: #8c564b"/>
   </g>
   <g id="patch_54">
    <path d="M 490.396818 267.574668 
L 545.387727 267.574668 
L 545.387727 264.108668 
L 490.396818 264.108668 
z
" clip-path="url(#p50c60a448d)" style="fill: #8c564b"/>
   </g>
   <g id="patch_55">
    <path d="M 559.135455 272.724153 
L 614.126364 272.724153 
L 614.126364 271.073676 
L 559.135455 271.073676 
z
" clip-path="url(#p50c60a448d)" style="fill: #8c564b"/>
   </g>
   <g id="patch_56">
    <path d="M 627.874091 276.487238 
L 682.865 276.487238 
L 682.865 273.285314 
L 627.874091 273.285314 
z
" clip-path="url(#p50c60a448d)" style="fill: #8c564b"/>
   </g>
   <g id="patch_57">
    <path d="M 77.965 255.592208 
L 132.955909 255.592208 
L 132.955909 234.400095 
L 77.965 234.400095 
z
" clip-path="url(#p50c60a448d)" style="fill: #e377c2"/>
   </g>
   <g id="patch_58">
    <path d="M 146.703636 261.401884 
L 201.694545 261.401884 
L 201.694545 241.62918 
L 146.703636 241.62918 
z
" clip-path="url(#p50c60a448d)" style="fill: #e377c2"/>
   </g>
   <g id="patch_59">
    <path d="M 215.442273 259.025203 
L 270.433182 259.025203 
L 270.433182 241.035013 
L 215.442273 241.035013 
z
" clip-path="url(#p50c60a448d)" style="fill: #e377c2"/>
   </g>
   <g id="patch_60">
    <path d="M 284.180909 258.629085 
L 339.171818 258.629085 
L 339.171818 243.147619 
L 284.180909 243.147619 
z
" clip-path="url(#p50c60a448d)" style="fill: #e377c2"/>
   </g>
   <g id="patch_61">
    <path d="M 352.919545 258.893164 
L 407.910455 258.893164 
L 407.910455 245.986441 
L 352.919545 245.986441 
z
" clip-path="url(#p50c60a448d)" style="fill: #e377c2"/>
   </g>
   <g id="patch_62">
    <path d="M 421.658182 258.166951 
L 476.649091 258.166951 
L 476.649091 249.980589 
L 421.658182 249.980589 
z
" clip-path="url(#p50c60a448d)" style="fill: #e377c2"/>
   </g>
   <g id="patch_63">
    <path d="M 490.396818 264.108668 
L 545.387727 264.108668 
L 545.387727 255.460173 
L 490.396818 255.460173 
z
" clip-path="url(#p50c60a448d)" style="fill: #e377c2"/>
   </g>
   <g id="patch_64">
    <path d="M 559.135455 271.073676 
L 614.126364 271.073676 
L 614.126364 265.330019 
L 559.135455 265.330019 
z
" clip-path="url(#p50c60a448d)" style="fill: #e377c2"/>
   </g>
   <g id="patch_65">
    <path d="M 627.874091 273.285314 
L 682.865 273.285314 
L 682.865 272.559105 
L 627.874091 272.559105 
z
" clip-path="url(#p50c60a448d)" style="fill: #e377c2"/>
   </g>
   <g id="patch_66">
    <path d="M 77.965 234.400095 
L 132.955909 234.400095 
L 132.955909 227.336056 
L 77.965 227.336056 
z
" clip-path="url(#p50c60a448d)" style="fill: #7f7f7f"/>
   </g>
   <g id="patch_67">
    <path d="M 146.703636 241.62918 
L 201.694545 241.62918 
L 201.694545 233.541847 
L 146.703636 233.541847 
z
" clip-path="url(#p50c60a448d)" style="fill: #7f7f7f"/>
   </g>
   <g id="patch_68">
    <path d="M 215.442273 241.035013 
L 270.433182 241.035013 
L 270.433182 235.126308 
L 215.442273 235.126308 
z
" clip-path="url(#p50c60a448d)" style="fill: #7f7f7f"/>
   </g>
   <g id="patch_69">
    <path d="M 284.180909 243.147619 
L 339.171818 243.147619 
L 339.171818 237.469981 
L 284.180909 237.469981 
z
" clip-path="url(#p50c60a448d)" style="fill: #7f7f7f"/>
   </g>
   <g id="patch_70">
    <path d="M 352.919545 245.986441 
L 407.910455 245.986441 
L 407.910455 241.398117 
L 352.919545 241.398117 
z
" clip-path="url(#p50c60a448d)" style="fill: #7f7f7f"/>
   </g>
   <g id="patch_71">
    <path d="M 421.658182 249.980589 
L 476.649091 249.980589 
L 476.649091 246.118475 
L 421.658182 246.118475 
z
" clip-path="url(#p50c60a448d)" style="fill: #7f7f7f"/>
   </g>
   <g id="patch_72">
    <path d="M 490.396818 255.460173 
L 545.387727 255.460173 
L 545.387727 251.928154 
L 490.396818 251.928154 
z
" clip-path="url(#p50c60a448d)" style="fill: #7f7f7f"/>
   </g>
   <g id="patch_73">
    <path d="M 559.135455 265.330019 
L 614.126364 265.330019 
L 614.126364 263.052362 
L 559.135455 263.052362 
z
" clip-path="url(#p50c60a448d)" style="fill: #7f7f7f"/>
   </g>
   <g id="patch_74">
    <path d="M 627.874091 272.559105 
L 682.865 272.559105 
L 682.865 270.545524 
L 627.874091 270.545524 
z
" clip-path="url(#p50c60a448d)" style="fill: #7f7f7f"/>
   </g>
   <g id="patch_75">
    <path d="M 77.965 227.336056 
L 132.955909 227.336056 
L 132.955909 199.343981 
L 77.965 199.343981 
z
" clip-path="url(#p50c60a448d)" style="fill: #bcbd22"/>
   </g>
   <g id="patch_76">
    <path d="M 146.703636 233.541847 
L 201.694545 233.541847 
L 201.694545 210.699256 
L 146.703636 210.699256 
z
" clip-path="url(#p50c60a448d)" style="fill: #bcbd22"/>
   </g>
   <g id="patch_77">
    <path d="M 215.442273 235.126308 
L 270.433182 235.126308 
L 270.433182 215.419623 
L 215.442273 215.419623 
z
" clip-path="url(#p50c60a448d)" style="fill: #bcbd22"/>
   </g>
   <g id="patch_78">
    <path d="M 284.180909 237.469981 
L 339.171818 237.469981 
L 339.171818 221.922495 
L 284.180909 221.922495 
z
" clip-path="url(#p50c60a448d)" style="fill: #bcbd22"/>
   </g>
   <g id="patch_79">
    <path d="M 352.919545 241.398117 
L 407.910455 241.398117 
L 407.910455 228.425375 
L 352.919545 228.425375 
z
" clip-path="url(#p50c60a448d)" style="fill: #bcbd22"/>
   </g>
   <g id="patch_80">
    <path d="M 421.658182 246.118475 
L 476.649091 246.118475 
L 476.649091 237.800075 
L 421.658182 237.800075 
z
" clip-path="url(#p50c60a448d)" style="fill: #bcbd22"/>
   </g>
   <g id="patch_81">
    <path d="M 490.396818 251.928154 
L 545.387727 251.928154 
L 545.387727 247.471868 
L 490.396818 247.471868 
z
" clip-path="url(#p50c60a448d)" style="fill: #bcbd22"/>
   </g>
   <g id="patch_82">
    <path d="M 559.135455 263.052362 
L 614.126364 263.052362 
L 614.126364 261.368876 
L 559.135455 261.368876 
z
" clip-path="url(#p50c60a448d)" style="fill: #bcbd22"/>
   </g>
   <g id="patch_83">
    <path d="M 627.874091 270.545524 
L 682.865 270.545524 
L 682.865 265.131962 
L 627.874091 265.131962 
z
" clip-path="url(#p50c60a448d)" style="fill: #bcbd22"/>
   </g>
   <g id="patch_84">
    <path d="M 77.965 199.343981 
L 132.955909 199.343981 
L 132.955909 178.382933 
L 77.965 178.382933 
z
" clip-path="url(#p50c60a448d)" style="fill: #17becf"/>
   </g>
   <g id="patch_85">
    <path d="M 146.703636 210.699256 
L 201.694545 210.699256 
L 201.694545 183.565428 
L 146.703636 183.565428 
z
" clip-path="url(#p50c60a448d)" style="fill: #17becf"/>
   </g>
   <g id="patch_86">
    <path d="M 215.442273 215.419623 
L 270.433182 215.419623 
L 270.433182 185.314937 
L 215.442273 185.314937 
z
" clip-path="url(#p50c60a448d)" style="fill: #17becf"/>
   </g>
   <g id="patch_87">
    <path d="M 284.180909 221.922495 
L 339.171818 221.922495 
L 339.171818 187.526572 
L 284.180909 187.526572 
z
" clip-path="url(#p50c60a448d)" style="fill: #17becf"/>
   </g>
   <g id="patch_88">
    <path d="M 352.919545 228.425375 
L 407.910455 228.425375 
L 407.910455 191.586748 
L 352.919545 191.586748 
z
" clip-path="url(#p50c60a448d)" style="fill: #17becf"/>
   </g>
   <g id="patch_89">
    <path d="M 421.658182 237.800075 
L 476.649091 237.800075 
L 476.649091 198.716799 
L 421.658182 198.716799 
z
" clip-path="url(#p50c60a448d)" style="fill: #17becf"/>
   </g>
   <g id="patch_90">
    <path d="M 490.396818 247.471868 
L 545.387727 247.471868 
L 545.387727 203.866287 
L 490.396818 203.866287 
z
" clip-path="url(#p50c60a448d)" style="fill: #17becf"/>
   </g>
   <g id="patch_91">
    <path d="M 559.135455 261.368876 
L 614.126364 261.368876 
L 614.126364 215.452629 
L 559.135455 215.452629 
z
" clip-path="url(#p50c60a448d)" style="fill: #17becf"/>
   </g>
   <g id="patch_92">
    <path d="M 627.874091 265.131962 
L 682.865 265.131962 
L 682.865 231.627296 
L 627.874091 231.627296 
z
" clip-path="url(#p50c60a448d)" style="fill: #17becf"/>
   </g>
   <g id="patch_93">
    <path d="M 77.965 178.382933 
L 132.955909 178.382933 
L 132.955909 170.229581 
L 77.965 170.229581 
z
" clip-path="url(#p50c60a448d)" style="fill: #1f77b4"/>
   </g>
   <g id="patch_94">
    <path d="M 146.703636 183.565428 
L 201.694545 183.565428 
L 201.694545 171.61598 
L 146.703636 171.61598 
z
" clip-path="url(#p50c60a448d)" style="fill: #1f77b4"/>
   </g>
   <g id="patch_95">
    <path d="M 215.442273 185.314937 
L 270.433182 185.314937 
L 270.433182 170.823755 
L 215.442273 170.823755 
z
" clip-path="url(#p50c60a448d)" style="fill: #1f77b4"/>
   </g>
   <g id="patch_96">
    <path d="M 284.180909 187.526572 
L 339.171818 187.526572 
L 339.171818 170.988801 
L 284.180909 170.988801 
z
" clip-path="url(#p50c60a448d)" style="fill: #1f77b4"/>
   </g>
   <g id="patch_97">
    <path d="M 352.919545 191.586748 
L 407.910455 191.586748 
L 407.910455 171.41793 
L 352.919545 171.41793 
z
" clip-path="url(#p50c60a448d)" style="fill: #1f77b4"/>
   </g>
   <g id="patch_98">
    <path d="M 421.658182 198.716799 
L 476.649091 198.716799 
L 476.649091 177.326627 
L 421.658182 177.326627 
z
" clip-path="url(#p50c60a448d)" style="fill: #1f77b4"/>
   </g>
   <g id="patch_99">
    <path d="M 490.396818 203.866287 
L 545.387727 203.866287 
L 545.387727 178.151869 
L 490.396818 178.151869 
z
" clip-path="url(#p50c60a448d)" style="fill: #1f77b4"/>
   </g>
   <g id="patch_100">
    <path d="M 559.135455 215.452629 
L 614.126364 215.452629 
L 614.126364 181.881944 
L 559.135455 181.881944 
z
" clip-path="url(#p50c60a448d)" style="fill: #1f77b4"/>
   </g>
   <g id="patch_101">
    <path d="M 627.874091 231.627296 
L 682.865 231.627296 
L 682.865 196.406134 
L 627.874091 196.406134 
z
" clip-path="url(#p50c60a448d)" style="fill: #1f77b4"/>
   </g>
   <g id="patch_102">
    <path d="M 77.965 170.229581 
L 132.955909 170.229581 
L 132.955909 134.843372 
L 77.965 134.843372 
z
" clip-path="url(#p50c60a448d)" style="fill: #ff7f0e"/>
   </g>
   <g id="patch_103">
    <path d="M 146.703636 171.61598 
L 201.694545 171.61598 
L 201.694545 136.29579 
L 146.703636 136.29579 
z
" clip-path="url(#p50c60a448d)" style="fill: #ff7f0e"/>
   </g>
   <g id="patch_104">
    <path d="M 215.442273 170.823755 
L 270.433182 170.823755 
L 270.433182 136.856956 
L 215.442273 136.856956 
z
" clip-path="url(#p50c60a448d)" style="fill: #ff7f0e"/>
   </g>
   <g id="patch_105">
    <path d="M 284.180909 170.988801 
L 339.171818 170.988801 
L 339.171818 141.214211 
L 284.180909 141.214211 
z
" clip-path="url(#p50c60a448d)" style="fill: #ff7f0e"/>
   </g>
   <g id="patch_106">
    <path d="M 352.919545 171.41793 
L 407.910455 171.41793 
L 407.910455 145.835549 
L 352.919545 145.835549 
z
" clip-path="url(#p50c60a448d)" style="fill: #ff7f0e"/>
   </g>
   <g id="patch_107">
    <path d="M 421.658182 177.326627 
L 476.649091 177.326627 
L 476.649091 151.249103 
L 421.658182 151.249103 
z
" clip-path="url(#p50c60a448d)" style="fill: #ff7f0e"/>
   </g>
   <g id="patch_108">
    <path d="M 490.396818 178.151869 
L 545.387727 178.151869 
L 545.387727 155.309278 
L 490.396818 155.309278 
z
" clip-path="url(#p50c60a448d)" style="fill: #ff7f0e"/>
   </g>
   <g id="patch_109">
    <path d="M 559.135455 181.881944 
L 614.126364 181.881944 
L 614.126364 159.666535 
L 559.135455 159.666535 
z
" clip-path="url(#p50c60a448d)" style="fill: #ff7f0e"/>
   </g>
   <g id="patch_110">
    <path d="M 627.874091 196.406134 
L 682.865 196.406134 
L 682.865 179.538267 
L 627.874091 179.538267 
z
" clip-path="url(#p50c60a448d)" style="fill: #ff7f0e"/>
   </g>
   <g id="patch_111">
    <path d="M 77.965 134.843372 
L 132.955909 134.843372 
L 132.955909 121.17743 
L 77.965 121.17743 
z
" clip-path="url(#p50c60a448d)" style="fill: #2ca02c"/>
   </g>
   <g id="patch_112">
    <path d="M 146.703636 136.29579 
L 201.694545 136.29579 
L 201.694545 123.950228 
L 146.703636 123.950228 
z
" clip-path="url(#p50c60a448d)" style="fill: #2ca02c"/>
   </g>
   <g id="patch_113">
    <path d="M 215.442273 136.856956 
L 270.433182 136.856956 
L 270.433182 123.554118 
L 215.442273 123.554118 
z
" clip-path="url(#p50c60a448d)" style="fill: #2ca02c"/>
   </g>
   <g id="patch_114">
    <path d="M 284.180909 141.214211 
L 339.171818 141.214211 
L 339.171818 125.99682 
L 284.180909 125.99682 
z
" clip-path="url(#p50c60a448d)" style="fill: #2ca02c"/>
   </g>
   <g id="patch_115">
    <path d="M 352.919545 145.835549 
L 407.910455 145.835549 
L 407.910455 128.340502 
L 352.919545 128.340502 
z
" clip-path="url(#p50c60a448d)" style="fill: #2ca02c"/>
   </g>
   <g id="patch_116">
    <path d="M 421.658182 151.249103 
L 476.649091 151.249103 
L 476.649091 132.10358 
L 421.658182 132.10358 
z
" clip-path="url(#p50c60a448d)" style="fill: #2ca02c"/>
   </g>
   <g id="patch_117">
    <path d="M 490.396818 155.309278 
L 545.387727 155.309278 
L 545.387727 133.522993 
L 490.396818 133.522993 
z
" clip-path="url(#p50c60a448d)" style="fill: #2ca02c"/>
   </g>
   <g id="patch_118">
    <path d="M 559.135455 159.666535 
L 614.126364 159.666535 
L 614.126364 133.787068 
L 559.135455 133.787068 
z
" clip-path="url(#p50c60a448d)" style="fill: #2ca02c"/>
   </g>
   <g id="patch_119">
    <path d="M 627.874091 179.538267 
L 682.865 179.538267 
L 682.865 146.000592 
L 627.874091 146.000592 
z
" clip-path="url(#p50c60a448d)" style="fill: #2ca02c"/>
   </g>
   <g id="patch_120">
    <path d="M 77.965 121.17743 
L 132.955909 121.17743 
L 132.955909 114.24543 
L 77.965 114.24543 
z
" clip-path="url(#p50c60a448d)" style="fill: #d62728"/>
   </g>
   <g id="patch_121">
    <path d="M 146.703636 123.950228 
L 201.694545 123.950228 
L 201.694545 116.027942 
L 146.703636 116.027942 
z
" clip-path="url(#p50c60a448d)" style="fill: #d62728"/>
   </g>
   <g id="patch_122">
    <path d="M 215.442273 123.554118 
L 270.433182 123.554118 
L 270.433182 114.278442 
L 215.442273 114.278442 
z
" clip-path="url(#p50c60a448d)" style="fill: #d62728"/>
   </g>
   <g id="patch_123">
    <path d="M 284.180909 125.99682 
L 339.171818 125.99682 
L 339.171818 115.202707 
L 284.180909 115.202707 
z
" clip-path="url(#p50c60a448d)" style="fill: #d62728"/>
   </g>
   <g id="patch_124">
    <path d="M 352.919545 128.340502 
L 407.910455 128.340502 
L 407.910455 114.278445 
L 352.919545 114.278445 
z
" clip-path="url(#p50c60a448d)" style="fill: #d62728"/>
   </g>
   <g id="patch_125">
    <path d="M 421.658182 132.10358 
L 476.649091 132.10358 
L 476.649091 116.85318 
L 421.658182 116.85318 
z
" clip-path="url(#p50c60a448d)" style="fill: #d62728"/>
   </g>
   <g id="patch_126">
    <path d="M 490.396818 133.522993 
L 545.387727 133.522993 
L 545.387727 116.192993 
L 490.396818 116.192993 
z
" clip-path="url(#p50c60a448d)" style="fill: #d62728"/>
   </g>
   <g id="patch_127">
    <path d="M 559.135455 133.787068 
L 614.126364 133.787068 
L 614.126364 114.014363 
L 559.135455 114.014363 
z
" clip-path="url(#p50c60a448d)" style="fill: #d62728"/>
   </g>
   <g id="patch_128">
    <path d="M 627.874091 146.000592 
L 682.865 146.000592 
L 682.865 111.241563 
L 627.874091 111.241563 
z
" clip-path="url(#p50c60a448d)" style="fill: #d62728"/>
   </g>
   <g id="patch_129">
    <path d="M 77.965 114.24543 
L 132.955909 114.24543 
L 132.955909 81.400954 
L 77.965 81.400954 
z
" clip-path="url(#p50c60a448d)" style="fill: #9467bd"/>
   </g>
   <g id="patch_130">
    <path d="M 146.703636 116.027942 
L 201.694545 116.027942 
L 201.694545 86.31937 
L 146.703636 86.31937 
z
" clip-path="url(#p50c60a448d)" style="fill: #9467bd"/>
   </g>
   <g id="patch_131">
    <path d="M 215.442273 114.278442 
L 270.433182 114.278442 
L 270.433182 85.857243 
L 215.442273 85.857243 
z
" clip-path="url(#p50c60a448d)" style="fill: #9467bd"/>
   </g>
   <g id="patch_132">
    <path d="M 284.180909 115.202707 
L 339.171818 115.202707 
L 339.171818 88.564021 
L 284.180909 88.564021 
z
" clip-path="url(#p50c60a448d)" style="fill: #9467bd"/>
   </g>
   <g id="patch_133">
    <path d="M 352.919545 114.278445 
L 407.910455 114.278445 
L 407.910455 89.75237 
L 352.919545 89.75237 
z
" clip-path="url(#p50c60a448d)" style="fill: #9467bd"/>
   </g>
   <g id="patch_134">
    <path d="M 421.658182 116.85318 
L 476.649091 116.85318 
L 476.649091 94.637771 
L 421.658182 94.637771 
z
" clip-path="url(#p50c60a448d)" style="fill: #9467bd"/>
   </g>
   <g id="patch_135">
    <path d="M 490.396818 116.192993 
L 545.387727 116.192993 
L 545.387727 97.212517 
L 490.396818 97.212517 
z
" clip-path="url(#p50c60a448d)" style="fill: #9467bd"/>
   </g>
   <g id="patch_136">
    <path d="M 559.135455 114.014363 
L 614.126364 114.014363 
L 614.126364 97.410573 
L 559.135455 97.410573 
z
" clip-path="url(#p50c60a448d)" style="fill: #9467bd"/>
   </g>
   <g id="patch_137">
    <path d="M 627.874091 111.241563 
L 682.865 111.241563 
L 682.865 88.762078 
L 627.874091 88.762078 
z
" clip-path="url(#p50c60a448d)" style="fill: #9467bd"/>
   </g>
   <g id="patch_138">
    <path d="M 77.965 81.400954 
L 132.955909 81.400954 
L 132.955909 59.944764 
L 77.965 59.944764 
z
" clip-path="url(#p50c60a448d)" style="fill: #8c564b"/>
   </g>
   <g id="patch_139">
    <path d="M 146.703636 86.31937 
L 201.694545 86.31937 
L 201.694545 59.944762 
L 146.703636 59.944762 
z
" clip-path="url(#p50c60a448d)" style="fill: #8c564b"/>
   </g>
   <g id="patch_140">
    <path d="M 215.442273 85.857243 
L 270.433182 85.857243 
L 270.433182 59.944766 
L 215.442273 59.944766 
z
" clip-path="url(#p50c60a448d)" style="fill: #8c564b"/>
   </g>
   <g id="patch_141">
    <path d="M 284.180909 88.564021 
L 339.171818 88.564021 
L 339.171818 59.944764 
L 284.180909 59.944764 
z
" clip-path="url(#p50c60a448d)" style="fill: #8c564b"/>
   </g>
   <g id="patch_142">
    <path d="M 352.919545 89.75237 
L 407.910455 89.75237 
L 407.910455 59.94477 
L 352.919545 59.94477 
z
" clip-path="url(#p50c60a448d)" style="fill: #8c564b"/>
   </g>
   <g id="patch_143">
    <path d="M 421.658182 94.637771 
L 476.649091 94.637771 
L 476.649091 59.944762 
L 421.658182 59.944762 
z
" clip-path="url(#p50c60a448d)" style="fill: #8c564b"/>
   </g>
   <g id="patch_144">
    <path d="M 490.396818 97.212517 
L 545.387727 97.212517 
L 545.387727 59.944766 
L 490.396818 59.944766 
z
" clip-path="url(#p50c60a448d)" style="fill: #8c564b"/>
   </g>
   <g id="patch_145">
    <path d="M 559.135455 97.410573 
L 614.126364 97.410573 
L 614.126364 59.944765 
L 559.135455 59.944765 
z
" clip-path="url(#p50c60a448d)" style="fill: #8c564b"/>
   </g>
   <g id="patch_146">
    <path d="M 627.874091 88.762078 
L 682.865 88.762078 
L 682.865 59.944763 
L 627.874091 59.944763 
z
" clip-path="url(#p50c60a448d)" style="fill: #8c564b"/>
   </g>
   <g id="matplotlib.axis_1">
    <g id="xtick_1">
     <g id="line2d_1">
      <defs>
       <path id="m4e12fc7319" d="M 0 0 
L 0 3.5 
" style="stroke: #000000; stroke-width: 0.8"/>
      </defs>
      <g>
       <use xlink:href="#m4e12fc7319" x="105.460455" y="390.04" style="stroke: #000000; stroke-width: 0.8"/>
      </g>
     </g>
     <g id="text_1">
      <!-- 1 -->
      <g transform="translate(102.279205 404.638438) scale(0.1 -0.1)">
       <defs>
        <path id="DejaVuSans-31" d="M 794 531 
L 1825 531 
L 1825 4091 
L 703 3866 
L 703 4441 
L 1819 4666 
L 2450 4666 
L 2450 531 
L 3481 531 
L 3481 0 
L 794 0 
L 794 531 
z
" transform="scale(0.015625)"/>
       </defs>
       <use xlink:href="#DejaVuSans-31"/>
      </g>
     </g>
    </g>
    <g id="xtick_2">
     <g id="line2d_2">
      <g>
       <use xlink:href="#m4e12fc7319" x="174.199091" y="390.04" style="stroke: #000000; stroke-width: 0.8"/>
      </g>
     </g>
     <g id="text_2">
      <!-- 2 -->
      <g transform="translate(171.017841 404.638438) scale(0.1 -0.1)">
       <defs>
        <path id="DejaVuSans-32" d="M 1228 531 
L 3431 531 
L 3431 0 
L 469 0 
L 469 531 
Q 828 903 1448 1529 
Q 2069 2156 2228 2338 
Q 2531 2678 2651 2914 
Q 2772 3150 2772 3378 
Q 2772 3750 2511 3984 
Q 2250 4219 1831 4219 
Q 1534 4219 1204 4116 
Q 875 4013 500 3803 
L 500 4441 
Q 881 4594 1212 4672 
Q 1544 4750 1819 4750 
Q 2544 4750 2975 4387 
Q 3406 4025 3406 3419 
Q 3406 3131 3298 2873 
Q 3191 2616 2906 2266 
Q 2828 2175 2409 1742 
Q 1991 1309 1228 531 
z
" transform="scale(0.015625)"/>
       </defs>
       <use xlink:href="#DejaVuSans-32"/>
      </g>
     </g>
    </g>
    <g id="xtick_3">
     <g id="line2d_3">
      <g>
       <use xlink:href="#m4e12fc7319" x="242.937727" y="390.04" style="stroke: #000000; stroke-width: 0.8"/>
      </g>
     </g>
     <g id="text_3">
      <!-- 3 -->
      <g transform="translate(239.756477 404.638438) scale(0.1 -0.1)">
       <defs>
        <path id="DejaVuSans-33" d="M 2597 2516 
Q 3050 2419 3304 2112 
Q 3559 1806 3559 1356 
Q 3559 666 3084 287 
Q 2609 -91 1734 -91 
Q 1441 -91 1130 -33 
Q 819 25 488 141 
L 488 750 
Q 750 597 1062 519 
Q 1375 441 1716 441 
Q 2309 441 2620 675 
Q 2931 909 2931 1356 
Q 2931 1769 2642 2001 
Q 2353 2234 1838 2234 
L 1294 2234 
L 1294 2753 
L 1863 2753 
Q 2328 2753 2575 2939 
Q 2822 3125 2822 3475 
Q 2822 3834 2567 4026 
Q 2313 4219 1838 4219 
Q 1578 4219 1281 4162 
Q 984 4106 628 3988 
L 628 4550 
Q 988 4650 1302 4700 
Q 1616 4750 1894 4750 
Q 2613 4750 3031 4423 
Q 3450 4097 3450 3541 
Q 3450 3153 3228 2886 
Q 3006 2619 2597 2516 
z
" transform="scale(0.015625)"/>
       </defs>
       <use xlink:href="#DejaVuSans-33"/>
      </g>
     </g>
    </g>
    <g id="xtick_4">
     <g id="line2d_4">
      <g>
       <use xlink:href="#m4e12fc7319" x="311.676364" y="390.04" style="stroke: #000000; stroke-width: 0.8"/>
      </g>
     </g>
     <g id="text_4">
      <!-- 4 -->
      <g transform="translate(308.495114 404.638438) scale(0.1 -0.1)">
       <defs>
        <path id="DejaVuSans-34" d="M 2419 4116 
L 825 1625 
L 2419 1625 
L 2419 4116 
z
M 2253 4666 
L 3047 4666 
L 3047 1625 
L 3713 1625 
L 3713 1100 
L 3047 1100 
L 3047 0 
L 2419 0 
L 2419 1100 
L 313 1100 
L 313 1709 
L 2253 4666 
z
" transform="scale(0.015625)"/>
       </defs>
       <use xlink:href="#DejaVuSans-34"/>
      </g>
     </g>
    </g>
    <g id="xtick_5">
     <g id="line2d_5">
      <g>
       <use xlink:href="#m4e12fc7319" x="380.415" y="390.04" style="stroke: #000000; stroke-width: 0.8"/>
      </g>
     </g>
     <g id="text_5">
      <!-- 5 -->
      <g transform="translate(377.23375 404.638438) scale(0.1 -0.1)">
       <defs>
        <path id="DejaVuSans-35" d="M 691 4666 
L 3169 4666 
L 3169 4134 
L 1269 4134 
L 1269 2991 
Q 1406 3038 1543 3061 
Q 1681 3084 1819 3084 
Q 2600 3084 3056 2656 
Q 3513 2228 3513 1497 
Q 3513 744 3044 326 
Q 2575 -91 1722 -91 
Q 1428 -91 1123 -41 
Q 819 9 494 109 
L 494 744 
Q 775 591 1075 516 
Q 1375 441 1709 441 
Q 2250 441 2565 725 
Q 2881 1009 2881 1497 
Q 2881 1984 2565 2268 
Q 2250 2553 1709 2553 
Q 1456 2553 1204 2497 
Q 953 2441 691 2322 
L 691 4666 
z
" transform="scale(0.015625)"/>
       </defs>
       <use xlink:href="#DejaVuSans-35"/>
      </g>
     </g>
    </g>
    <g id="xtick_6">
     <g id="line2d_6">
      <g>
       <use xlink:href="#m4e12fc7319" x="449.153636" y="390.04" style="stroke: #000000; stroke-width: 0.8"/>
      </g>
     </g>
     <g id="text_6">
      <!-- 6 -->
      <g transform="translate(445.972386 404.638438) scale(0.1 -0.1)">
       <defs>
        <path id="DejaVuSans-36" d="M 2113 2584 
Q 1688 2584 1439 2293 
Q 1191 2003 1191 1497 
Q 1191 994 1439 701 
Q 1688 409 2113 409 
Q 2538 409 2786 701 
Q 3034 994 3034 1497 
Q 3034 2003 2786 2293 
Q 2538 2584 2113 2584 
z
M 3366 4563 
L 3366 3988 
Q 3128 4100 2886 4159 
Q 2644 4219 2406 4219 
Q 1781 4219 1451 3797 
Q 1122 3375 1075 2522 
Q 1259 2794 1537 2939 
Q 1816 3084 2150 3084 
Q 2853 3084 3261 2657 
Q 3669 2231 3669 1497 
Q 3669 778 3244 343 
Q 2819 -91 2113 -91 
Q 1303 -91 875 529 
Q 447 1150 447 2328 
Q 447 3434 972 4092 
Q 1497 4750 2381 4750 
Q 2619 4750 2861 4703 
Q 3103 4656 3366 4563 
z
" transform="scale(0.015625)"/>
       </defs>
       <use xlink:href="#DejaVuSans-36"/>
      </g>
     </g>
    </g>
    <g id="xtick_7">
     <g id="line2d_7">
      <g>
       <use xlink:href="#m4e12fc7319" x="517.892273" y="390.04" style="stroke: #000000; stroke-width: 0.8"/>
      </g>
     </g>
     <g id="text_7">
      <!-- 7 -->
      <g transform="translate(514.711023 404.638438) scale(0.1 -0.1)">
       <defs>
        <path id="DejaVuSans-37" d="M 525 4666 
L 3525 4666 
L 3525 4397 
L 1831 0 
L 1172 0 
L 2766 4134 
L 525 4134 
L 525 4666 
z
" transform="scale(0.015625)"/>
       </defs>
       <use xlink:href="#DejaVuSans-37"/>
      </g>
     </g>
    </g>
    <g id="xtick_8">
     <g id="line2d_8">
      <g>
       <use xlink:href="#m4e12fc7319" x="586.630909" y="390.04" style="stroke: #000000; stroke-width: 0.8"/>
      </g>
     </g>
     <g id="text_8">
      <!-- 8 -->
      <g transform="translate(583.449659 404.638438) scale(0.1 -0.1)">
       <defs>
        <path id="DejaVuSans-38" d="M 2034 2216 
Q 1584 2216 1326 1975 
Q 1069 1734 1069 1313 
Q 1069 891 1326 650 
Q 1584 409 2034 409 
Q 2484 409 2743 651 
Q 3003 894 3003 1313 
Q 3003 1734 2745 1975 
Q 2488 2216 2034 2216 
z
M 1403 2484 
Q 997 2584 770 2862 
Q 544 3141 544 3541 
Q 544 4100 942 4425 
Q 1341 4750 2034 4750 
Q 2731 4750 3128 4425 
Q 3525 4100 3525 3541 
Q 3525 3141 3298 2862 
Q 3072 2584 2669 2484 
Q 3125 2378 3379 2068 
Q 3634 1759 3634 1313 
Q 3634 634 3220 271 
Q 2806 -91 2034 -91 
Q 1263 -91 848 271 
Q 434 634 434 1313 
Q 434 1759 690 2068 
Q 947 2378 1403 2484 
z
M 1172 3481 
Q 1172 3119 1398 2916 
Q 1625 2713 2034 2713 
Q 2441 2713 2670 2916 
Q 2900 3119 2900 3481 
Q 2900 3844 2670 4047 
Q 2441 4250 2034 4250 
Q 1625 4250 1398 4047 
Q 1172 3844 1172 3481 
z
" transform="scale(0.015625)"/>
       </defs>
       <use xlink:href="#DejaVuSans-38"/>
      </g>
     </g>
    </g>
    <g id="xtick_9">
     <g id="line2d_9">
      <g>
       <use xlink:href="#m4e12fc7319" x="655.369545" y="390.04" style="stroke: #000000; stroke-width: 0.8"/>
      </g>
     </g>
     <g id="text_9">
      <!-- 9 -->
      <g transform="translate(652.188295 404.638438) scale(0.1 -0.1)">
       <defs>
        <path id="DejaVuSans-39" d="M 703 97 
L 703 672 
Q 941 559 1184 500 
Q 1428 441 1663 441 
Q 2288 441 2617 861 
Q 2947 1281 2994 2138 
Q 2813 1869 2534 1725 
Q 2256 1581 1919 1581 
Q 1219 1581 811 2004 
Q 403 2428 403 3163 
Q 403 3881 828 4315 
Q 1253 4750 1959 4750 
Q 2769 4750 3195 4129 
Q 3622 3509 3622 2328 
Q 3622 1225 3098 567 
Q 2575 -91 1691 -91 
Q 1453 -91 1209 -44 
Q 966 3 703 97 
z
M 1959 2075 
Q 2384 2075 2632 2365 
Q 2881 2656 2881 3163 
Q 2881 3666 2632 3958 
Q 2384 4250 1959 4250 
Q 1534 4250 1286 3958 
Q 1038 3666 1038 3163 
Q 1038 2656 1286 2365 
Q 1534 2075 1959 2075 
z
" transform="scale(0.015625)"/>
       </defs>
       <use xlink:href="#DejaVuSans-39"/>
      </g>
     </g>
    </g>
    <g id="text_10">
     <!-- Recipe Position -->
     <g transform="translate(342.647031 418.316562) scale(0.1 -0.1)">
      <defs>
       <path id="DejaVuSans-52" d="M 2841 2188 
Q 3044 2119 3236 1894 
Q 3428 1669 3622 1275 
L 4263 0 
L 3584 0 
L 2988 1197 
Q 2756 1666 2539 1819 
Q 2322 1972 1947 1972 
L 1259 1972 
L 1259 0 
L 628 0 
L 628 4666 
L 2053 4666 
Q 2853 4666 3247 4331 
Q 3641 3997 3641 3322 
Q 3641 2881 3436 2590 
Q 3231 2300 2841 2188 
z
M 1259 4147 
L 1259 2491 
L 2053 2491 
Q 2509 2491 2742 2702 
Q 2975 2913 2975 3322 
Q 2975 3731 2742 3939 
Q 2509 4147 2053 4147 
L 1259 4147 
z
" transform="scale(0.015625)"/>
       <path id="DejaVuSans-65" d="M 3597 1894 
L 3597 1613 
L 953 1613 
Q 991 1019 1311 708 
Q 1631 397 2203 397 
Q 2534 397 2845 478 
Q 3156 559 3463 722 
L 3463 178 
Q 3153 47 2828 -22 
Q 2503 -91 2169 -91 
Q 1331 -91 842 396 
Q 353 884 353 1716 
Q 353 2575 817 3079 
Q 1281 3584 2069 3584 
Q 2775 3584 3186 3129 
Q 3597 2675 3597 1894 
z
M 3022 2063 
Q 3016 2534 2758 2815 
Q 2500 3097 2075 3097 
Q 1594 3097 1305 2825 
Q 1016 2553 972 2059 
L 3022 2063 
z
" transform="scale(0.015625)"/>
       <path id="DejaVuSans-63" d="M 3122 3366 
L 3122 2828 
Q 2878 2963 2633 3030 
Q 2388 3097 2138 3097 
Q 1578 3097 1268 2742 
Q 959 2388 959 1747 
Q 959 1106 1268 751 
Q 1578 397 2138 397 
Q 2388 397 2633 464 
Q 2878 531 3122 666 
L 3122 134 
Q 2881 22 2623 -34 
Q 2366 -91 2075 -91 
Q 1284 -91 818 406 
Q 353 903 353 1747 
Q 353 2603 823 3093 
Q 1294 3584 2113 3584 
Q 2378 3584 2631 3529 
Q 2884 3475 3122 3366 
z
" transform="scale(0.015625)"/>
       <path id="DejaVuSans-69" d="M 603 3500 
L 1178 3500 
L 1178 0 
L 603 0 
L 603 3500 
z
M 603 4863 
L 1178 4863 
L 1178 4134 
L 603 4134 
L 603 4863 
z
" transform="scale(0.015625)"/>
       <path id="DejaVuSans-70" d="M 1159 525 
L 1159 -1331 
L 581 -1331 
L 581 3500 
L 1159 3500 
L 1159 2969 
Q 1341 3281 1617 3432 
Q 1894 3584 2278 3584 
Q 2916 3584 3314 3078 
Q 3713 2572 3713 1747 
Q 3713 922 3314 415 
Q 2916 -91 2278 -91 
Q 1894 -91 1617 61 
Q 1341 213 1159 525 
z
M 3116 1747 
Q 3116 2381 2855 2742 
Q 2594 3103 2138 3103 
Q 1681 3103 1420 2742 
Q 1159 2381 1159 1747 
Q 1159 1113 1420 752 
Q 1681 391 2138 391 
Q 2594 391 2855 752 
Q 3116 1113 3116 1747 
z
" transform="scale(0.015625)"/>
       <path id="DejaVuSans-20" transform="scale(0.015625)"/>
       <path id="DejaVuSans-50" d="M 1259 4147 
L 1259 2394 
L 2053 2394 
Q 2494 2394 2734 2622 
Q 2975 2850 2975 3272 
Q 2975 3691 2734 3919 
Q 2494 4147 2053 4147 
L 1259 4147 
z
M 628 4666 
L 2053 4666 
Q 2838 4666 3239 4311 
Q 3641 3956 3641 3272 
Q 3641 2581 3239 2228 
Q 2838 1875 2053 1875 
L 1259 1875 
L 1259 0 
L 628 0 
L 628 4666 
z
" transform="scale(0.015625)"/>
       <path id="DejaVuSans-6f" d="M 1959 3097 
Q 1497 3097 1228 2736 
Q 959 2375 959 1747 
Q 959 1119 1226 758 
Q 1494 397 1959 397 
Q 2419 397 2687 759 
Q 2956 1122 2956 1747 
Q 2956 2369 2687 2733 
Q 2419 3097 1959 3097 
z
M 1959 3584 
Q 2709 3584 3137 3096 
Q 3566 2609 3566 1747 
Q 3566 888 3137 398 
Q 2709 -91 1959 -91 
Q 1206 -91 779 398 
Q 353 888 353 1747 
Q 353 2609 779 3096 
Q 1206 3584 1959 3584 
z
" transform="scale(0.015625)"/>
       <path id="DejaVuSans-73" d="M 2834 3397 
L 2834 2853 
Q 2591 2978 2328 3040 
Q 2066 3103 1784 3103 
Q 1356 3103 1142 2972 
Q 928 2841 928 2578 
Q 928 2378 1081 2264 
Q 1234 2150 1697 2047 
L 1894 2003 
Q 2506 1872 2764 1633 
Q 3022 1394 3022 966 
Q 3022 478 2636 193 
Q 2250 -91 1575 -91 
Q 1294 -91 989 -36 
Q 684 19 347 128 
L 347 722 
Q 666 556 975 473 
Q 1284 391 1588 391 
Q 1994 391 2212 530 
Q 2431 669 2431 922 
Q 2431 1156 2273 1281 
Q 2116 1406 1581 1522 
L 1381 1569 
Q 847 1681 609 1914 
Q 372 2147 372 2553 
Q 372 3047 722 3315 
Q 1072 3584 1716 3584 
Q 2034 3584 2315 3537 
Q 2597 3491 2834 3397 
z
" transform="scale(0.015625)"/>
       <path id="DejaVuSans-74" d="M 1172 4494 
L 1172 3500 
L 2356 3500 
L 2356 3053 
L 1172 3053 
L 1172 1153 
Q 1172 725 1289 603 
Q 1406 481 1766 481 
L 2356 481 
L 2356 0 
L 1766 0 
Q 1100 0 847 248 
Q 594 497 594 1153 
L 594 3053 
L 172 3053 
L 172 3500 
L 594 3500 
L 594 4494 
L 1172 4494 
z
" transform="scale(0.015625)"/>
       <path id="DejaVuSans-6e" d="M 3513 2113 
L 3513 0 
L 2938 0 
L 2938 2094 
Q 2938 2591 2744 2837 
Q 2550 3084 2163 3084 
Q 1697 3084 1428 2787 
Q 1159 2491 1159 1978 
L 1159 0 
L 581 0 
L 581 3500 
L 1159 3500 
L 1159 2956 
Q 1366 3272 1645 3428 
Q 1925 3584 2291 3584 
Q 2894 3584 3203 3211 
Q 3513 2838 3513 2113 
z
" transform="scale(0.015625)"/>
      </defs>
      <use xlink:href="#DejaVuSans-52"/>
      <use xlink:href="#DejaVuSans-65" transform="translate(64.982422 0)"/>
      <use xlink:href="#DejaVuSans-63" transform="translate(126.505859 0)"/>
      <use xlink:href="#DejaVuSans-69" transform="translate(181.486328 0)"/>
      <use xlink:href="#DejaVuSans-70" transform="translate(209.269531 0)"/>
      <use xlink:href="#DejaVuSans-65" transform="translate(272.746094 0)"/>
      <use xlink:href="#DejaVuSans-20" transform="translate(334.269531 0)"/>
      <use xlink:href="#DejaVuSans-50" transform="translate(366.056641 0)"/>
      <use xlink:href="#DejaVuSans-6f" transform="translate(422.734375 0)"/>
      <use xlink:href="#DejaVuSans-73" transform="translate(483.916016 0)"/>
      <use xlink:href="#DejaVuSans-69" transform="translate(536.015625 0)"/>
      <use xlink:href="#DejaVuSans-74" transform="translate(563.798828 0)"/>
      <use xlink:href="#DejaVuSans-69" transform="translate(603.007812 0)"/>
      <use xlink:href="#DejaVuSans-6f" transform="translate(630.791016 0)"/>
      <use xlink:href="#DejaVuSans-6e" transform="translate(691.972656 0)"/>
     </g>
    </g>
   </g>
   <g id="matplotlib.axis_2">
    <g id="ytick_1">
     <g id="line2d_10">
      <defs>
       <path id="mf67f779349" d="M 0 0 
L -3.5 0 
" style="stroke: #000000; stroke-width: 0.8"/>
      </defs>
      <g>
       <use xlink:href="#mf67f779349" x="47.72" y="390.04" style="stroke: #000000; stroke-width: 0.8"/>
      </g>
     </g>
     <g id="text_11">
      <!-- 0.0 -->
      <g transform="translate(24.816875 393.839219) scale(0.1 -0.1)">
       <defs>
        <path id="DejaVuSans-30" d="M 2034 4250 
Q 1547 4250 1301 3770 
Q 1056 3291 1056 2328 
Q 1056 1369 1301 889 
Q 1547 409 2034 409 
Q 2525 409 2770 889 
Q 3016 1369 3016 2328 
Q 3016 3291 2770 3770 
Q 2525 4250 2034 4250 
z
M 2034 4750 
Q 2819 4750 3233 4129 
Q 3647 3509 3647 2328 
Q 3647 1150 3233 529 
Q 2819 -91 2034 -91 
Q 1250 -91 836 529 
Q 422 1150 422 2328 
Q 422 3509 836 4129 
Q 1250 4750 2034 4750 
z
" transform="scale(0.015625)"/>
        <path id="DejaVuSans-2e" d="M 684 794 
L 1344 794 
L 1344 0 
L 684 0 
L 684 794 
z
" transform="scale(0.015625)"/>
       </defs>
       <use xlink:href="#DejaVuSans-30"/>
       <use xlink:href="#DejaVuSans-2e" transform="translate(63.623047 0)"/>
       <use xlink:href="#DejaVuSans-30" transform="translate(95.410156 0)"/>
      </g>
     </g>
    </g>
    <g id="ytick_2">
     <g id="line2d_11">
      <g>
       <use xlink:href="#mf67f779349" x="47.72" y="324.020953" style="stroke: #000000; stroke-width: 0.8"/>
      </g>
     </g>
     <g id="text_12">
      <!-- 0.2 -->
      <g transform="translate(24.816875 327.820172) scale(0.1 -0.1)">
       <use xlink:href="#DejaVuSans-30"/>
       <use xlink:href="#DejaVuSans-2e" transform="translate(63.623047 0)"/>
       <use xlink:href="#DejaVuSans-32" transform="translate(95.410156 0)"/>
      </g>
     </g>
    </g>
    <g id="ytick_3">
     <g id="line2d_12">
      <g>
       <use xlink:href="#mf67f779349" x="47.72" y="258.001906" style="stroke: #000000; stroke-width: 0.8"/>
      </g>
     </g>
     <g id="text_13">
      <!-- 0.4 -->
      <g transform="translate(24.816875 261.801125) scale(0.1 -0.1)">
       <use xlink:href="#DejaVuSans-30"/>
       <use xlink:href="#DejaVuSans-2e" transform="translate(63.623047 0)"/>
       <use xlink:href="#DejaVuSans-34" transform="translate(95.410156 0)"/>
      </g>
     </g>
    </g>
    <g id="ytick_4">
     <g id="line2d_13">
      <g>
       <use xlink:href="#mf67f779349" x="47.72" y="191.982859" style="stroke: #000000; stroke-width: 0.8"/>
      </g>
     </g>
     <g id="text_14">
      <!-- 0.6 -->
      <g transform="translate(24.816875 195.782078) scale(0.1 -0.1)">
       <use xlink:href="#DejaVuSans-30"/>
       <use xlink:href="#DejaVuSans-2e" transform="translate(63.623047 0)"/>
       <use xlink:href="#DejaVuSans-36" transform="translate(95.410156 0)"/>
      </g>
     </g>
    </g>
    <g id="ytick_5">
     <g id="line2d_14">
      <g>
       <use xlink:href="#mf67f779349" x="47.72" y="125.963812" style="stroke: #000000; stroke-width: 0.8"/>
      </g>
     </g>
     <g id="text_15">
      <!-- 0.8 -->
      <g transform="translate(24.816875 129.763031) scale(0.1 -0.1)">
       <use xlink:href="#DejaVuSans-30"/>
       <use xlink:href="#DejaVuSans-2e" transform="translate(63.623047 0)"/>
       <use xlink:href="#DejaVuSans-38" transform="translate(95.410156 0)"/>
      </g>
     </g>
    </g>
    <g id="ytick_6">
     <g id="line2d_15">
      <g>
       <use xlink:href="#mf67f779349" x="47.72" y="59.944766" style="stroke: #000000; stroke-width: 0.8"/>
      </g>
     </g>
     <g id="text_16">
      <!-- 1.0 -->
      <g transform="translate(24.816875 63.743984) scale(0.1 -0.1)">
       <use xlink:href="#DejaVuSans-31"/>
       <use xlink:href="#DejaVuSans-2e" transform="translate(63.623047 0)"/>
       <use xlink:href="#DejaVuSans-30" transform="translate(95.410156 0)"/>
      </g>
     </g>
    </g>
    <g id="text_17">
     <!-- Relative Frequency -->
     <g transform="translate(18.737187 264.322812) rotate(-90) scale(0.1 -0.1)">
      <defs>
       <path id="DejaVuSans-6c" d="M 603 4863 
L 1178 4863 
L 1178 0 
L 603 0 
L 603 4863 
z
" transform="scale(0.015625)"/>
       <path id="DejaVuSans-61" d="M 2194 1759 
Q 1497 1759 1228 1600 
Q 959 1441 959 1056 
Q 959 750 1161 570 
Q 1363 391 1709 391 
Q 2188 391 2477 730 
Q 2766 1069 2766 1631 
L 2766 1759 
L 2194 1759 
z
M 3341 1997 
L 3341 0 
L 2766 0 
L 2766 531 
Q 2569 213 2275 61 
Q 1981 -91 1556 -91 
Q 1019 -91 701 211 
Q 384 513 384 1019 
Q 384 1609 779 1909 
Q 1175 2209 1959 2209 
L 2766 2209 
L 2766 2266 
Q 2766 2663 2505 2880 
Q 2244 3097 1772 3097 
Q 1472 3097 1187 3025 
Q 903 2953 641 2809 
L 641 3341 
Q 956 3463 1253 3523 
Q 1550 3584 1831 3584 
Q 2591 3584 2966 3190 
Q 3341 2797 3341 1997 
z
" transform="scale(0.015625)"/>
       <path id="DejaVuSans-76" d="M 191 3500 
L 800 3500 
L 1894 563 
L 2988 3500 
L 3597 3500 
L 2284 0 
L 1503 0 
L 191 3500 
z
" transform="scale(0.015625)"/>
       <path id="DejaVuSans-46" d="M 628 4666 
L 3309 4666 
L 3309 4134 
L 1259 4134 
L 1259 2759 
L 3109 2759 
L 3109 2228 
L 1259 2228 
L 1259 0 
L 628 0 
L 628 4666 
z
" transform="scale(0.015625)"/>
       <path id="DejaVuSans-72" d="M 2631 2963 
Q 2534 3019 2420 3045 
Q 2306 3072 2169 3072 
Q 1681 3072 1420 2755 
Q 1159 2438 1159 1844 
L 1159 0 
L 581 0 
L 581 3500 
L 1159 3500 
L 1159 2956 
Q 1341 3275 1631 3429 
Q 1922 3584 2338 3584 
Q 2397 3584 2469 3576 
Q 2541 3569 2628 3553 
L 2631 2963 
z
" transform="scale(0.015625)"/>
       <path id="DejaVuSans-71" d="M 947 1747 
Q 947 1113 1208 752 
Q 1469 391 1925 391 
Q 2381 391 2643 752 
Q 2906 1113 2906 1747 
Q 2906 2381 2643 2742 
Q 2381 3103 1925 3103 
Q 1469 3103 1208 2742 
Q 947 2381 947 1747 
z
M 2906 525 
Q 2725 213 2448 61 
Q 2172 -91 1784 -91 
Q 1150 -91 751 415 
Q 353 922 353 1747 
Q 353 2572 751 3078 
Q 1150 3584 1784 3584 
Q 2172 3584 2448 3432 
Q 2725 3281 2906 2969 
L 2906 3500 
L 3481 3500 
L 3481 -1331 
L 2906 -1331 
L 2906 525 
z
" transform="scale(0.015625)"/>
       <path id="DejaVuSans-75" d="M 544 1381 
L 544 3500 
L 1119 3500 
L 1119 1403 
Q 1119 906 1312 657 
Q 1506 409 1894 409 
Q 2359 409 2629 706 
Q 2900 1003 2900 1516 
L 2900 3500 
L 3475 3500 
L 3475 0 
L 2900 0 
L 2900 538 
Q 2691 219 2414 64 
Q 2138 -91 1772 -91 
Q 1169 -91 856 284 
Q 544 659 544 1381 
z
M 1991 3584 
L 1991 3584 
z
" transform="scale(0.015625)"/>
       <path id="DejaVuSans-79" d="M 2059 -325 
Q 1816 -950 1584 -1140 
Q 1353 -1331 966 -1331 
L 506 -1331 
L 506 -850 
L 844 -850 
Q 1081 -850 1212 -737 
Q 1344 -625 1503 -206 
L 1606 56 
L 191 3500 
L 800 3500 
L 1894 763 
L 2988 3500 
L 3597 3500 
L 2059 -325 
z
" transform="scale(0.015625)"/>
      </defs>
      <use xlink:href="#DejaVuSans-52"/>
      <use xlink:href="#DejaVuSans-65" transform="translate(64.982422 0)"/>
      <use xlink:href="#DejaVuSans-6c" transform="translate(126.505859 0)"/>
      <use xlink:href="#DejaVuSans-61" transform="translate(154.289062 0)"/>
      <use xlink:href="#DejaVuSans-74" transform="translate(215.568359 0)"/>
      <use xlink:href="#DejaVuSans-69" transform="translate(254.777344 0)"/>
      <use xlink:href="#DejaVuSans-76" transform="translate(282.560547 0)"/>
      <use xlink:href="#DejaVuSans-65" transform="translate(341.740234 0)"/>
      <use xlink:href="#DejaVuSans-20" transform="translate(403.263672 0)"/>
      <use xlink:href="#DejaVuSans-46" transform="translate(435.050781 0)"/>
      <use xlink:href="#DejaVuSans-72" transform="translate(485.320312 0)"/>
      <use xlink:href="#DejaVuSans-65" transform="translate(524.183594 0)"/>
      <use xlink:href="#DejaVuSans-71" transform="translate(585.707031 0)"/>
      <use xlink:href="#DejaVuSans-75" transform="translate(649.183594 0)"/>
      <use xlink:href="#DejaVuSans-65" transform="translate(712.5625 0)"/>
      <use xlink:href="#DejaVuSans-6e" transform="translate(774.085938 0)"/>
      <use xlink:href="#DejaVuSans-63" transform="translate(837.464844 0)"/>
      <use xlink:href="#DejaVuSans-79" transform="translate(892.445312 0)"/>
     </g>
    </g>
   </g>
   <g id="patch_147">
    <path d="M 47.72 390.04 
L 47.72 43.44 
" style="fill: none; stroke: #000000; stroke-width: 0.8; stroke-linejoin: miter; stroke-linecap: square"/>
   </g>
   <g id="patch_148">
    <path d="M 713.11 390.04 
L 713.11 43.44 
" style="fill: none; stroke: #000000; stroke-width: 0.8; stroke-linejoin: miter; stroke-linecap: square"/>
   </g>
   <g id="patch_149">
    <path d="M 47.72 390.04 
L 713.11 390.04 
" style="fill: none; stroke: #000000; stroke-width: 0.8; stroke-linejoin: miter; stroke-linecap: square"/>
   </g>
   <g id="patch_150">
    <path d="M 47.72 43.44 
L 713.11 43.44 
" style="fill: none; stroke: #000000; stroke-width: 0.8; stroke-linejoin: miter; stroke-linecap: square"/>
   </g>
   <g id="text_18">
    <!-- Ingredient relative frequency per recipe position (at last step) -->
    <g transform="translate(164.070156 21.763062) scale(0.14 -0.14)">
     <defs>
      <path id="DejaVuSans-49" d="M 628 4666 
L 1259 4666 
L 1259 0 
L 628 0 
L 628 4666 
z
" transform="scale(0.015625)"/>
      <path id="DejaVuSans-67" d="M 2906 1791 
Q 2906 2416 2648 2759 
Q 2391 3103 1925 3103 
Q 1463 3103 1205 2759 
Q 947 2416 947 1791 
Q 947 1169 1205 825 
Q 1463 481 1925 481 
Q 2391 481 2648 825 
Q 2906 1169 2906 1791 
z
M 3481 434 
Q 3481 -459 3084 -895 
Q 2688 -1331 1869 -1331 
Q 1566 -1331 1297 -1286 
Q 1028 -1241 775 -1147 
L 775 -588 
Q 1028 -725 1275 -790 
Q 1522 -856 1778 -856 
Q 2344 -856 2625 -561 
Q 2906 -266 2906 331 
L 2906 616 
Q 2728 306 2450 153 
Q 2172 0 1784 0 
Q 1141 0 747 490 
Q 353 981 353 1791 
Q 353 2603 747 3093 
Q 1141 3584 1784 3584 
Q 2172 3584 2450 3431 
Q 2728 3278 2906 2969 
L 2906 3500 
L 3481 3500 
L 3481 434 
z
" transform="scale(0.015625)"/>
      <path id="DejaVuSans-64" d="M 2906 2969 
L 2906 4863 
L 3481 4863 
L 3481 0 
L 2906 0 
L 2906 525 
Q 2725 213 2448 61 
Q 2172 -91 1784 -91 
Q 1150 -91 751 415 
Q 353 922 353 1747 
Q 353 2572 751 3078 
Q 1150 3584 1784 3584 
Q 2172 3584 2448 3432 
Q 2725 3281 2906 2969 
z
M 947 1747 
Q 947 1113 1208 752 
Q 1469 391 1925 391 
Q 2381 391 2643 752 
Q 2906 1113 2906 1747 
Q 2906 2381 2643 2742 
Q 2381 3103 1925 3103 
Q 1469 3103 1208 2742 
Q 947 2381 947 1747 
z
" transform="scale(0.015625)"/>
      <path id="DejaVuSans-66" d="M 2375 4863 
L 2375 4384 
L 1825 4384 
Q 1516 4384 1395 4259 
Q 1275 4134 1275 3809 
L 1275 3500 
L 2222 3500 
L 2222 3053 
L 1275 3053 
L 1275 0 
L 697 0 
L 697 3053 
L 147 3053 
L 147 3500 
L 697 3500 
L 697 3744 
Q 697 4328 969 4595 
Q 1241 4863 1831 4863 
L 2375 4863 
z
" transform="scale(0.015625)"/>
      <path id="DejaVuSans-28" d="M 1984 4856 
Q 1566 4138 1362 3434 
Q 1159 2731 1159 2009 
Q 1159 1288 1364 580 
Q 1569 -128 1984 -844 
L 1484 -844 
Q 1016 -109 783 600 
Q 550 1309 550 2009 
Q 550 2706 781 3412 
Q 1013 4119 1484 4856 
L 1984 4856 
z
" transform="scale(0.015625)"/>
      <path id="DejaVuSans-29" d="M 513 4856 
L 1013 4856 
Q 1481 4119 1714 3412 
Q 1947 2706 1947 2009 
Q 1947 1309 1714 600 
Q 1481 -109 1013 -844 
L 513 -844 
Q 928 -128 1133 580 
Q 1338 1288 1338 2009 
Q 1338 2731 1133 3434 
Q 928 4138 513 4856 
z
" transform="scale(0.015625)"/>
     </defs>
     <use xlink:href="#DejaVuSans-49"/>
     <use xlink:href="#DejaVuSans-6e" transform="translate(29.492188 0)"/>
     <use xlink:href="#DejaVuSans-67" transform="translate(92.871094 0)"/>
     <use xlink:href="#DejaVuSans-72" transform="translate(156.347656 0)"/>
     <use xlink:href="#DejaVuSans-65" transform="translate(195.210938 0)"/>
     <use xlink:href="#DejaVuSans-64" transform="translate(256.734375 0)"/>
     <use xlink:href="#DejaVuSans-69" transform="translate(320.210938 0)"/>
     <use xlink:href="#DejaVuSans-65" transform="translate(347.994141 0)"/>
     <use xlink:href="#DejaVuSans-6e" transform="translate(409.517578 0)"/>
     <use xlink:href="#DejaVuSans-74" transform="translate(472.896484 0)"/>
     <use xlink:href="#DejaVuSans-20" transform="translate(512.105469 0)"/>
     <use xlink:href="#DejaVuSans-72" transform="translate(543.892578 0)"/>
     <use xlink:href="#DejaVuSans-65" transform="translate(582.755859 0)"/>
     <use xlink:href="#DejaVuSans-6c" transform="translate(644.279297 0)"/>
     <use xlink:href="#DejaVuSans-61" transform="translate(672.0625 0)"/>
     <use xlink:href="#DejaVuSans-74" transform="translate(733.341797 0)"/>
     <use xlink:href="#DejaVuSans-69" transform="translate(772.550781 0)"/>
     <use xlink:href="#DejaVuSans-76" transform="translate(800.333984 0)"/>
     <use xlink:href="#DejaVuSans-65" transform="translate(859.513672 0)"/>
     <use xlink:href="#DejaVuSans-20" transform="translate(921.037109 0)"/>
     <use xlink:href="#DejaVuSans-66" transform="translate(952.824219 0)"/>
     <use xlink:href="#DejaVuSans-72" transform="translate(988.029297 0)"/>
     <use xlink:href="#DejaVuSans-65" transform="translate(1026.892578 0)"/>
     <use xlink:href="#DejaVuSans-71" transform="translate(1088.416016 0)"/>
     <use xlink:href="#DejaVuSans-75" transform="translate(1151.892578 0)"/>
     <use xlink:href="#DejaVuSans-65" transform="translate(1215.271484 0)"/>
     <use xlink:href="#DejaVuSans-6e" transform="translate(1276.794922 0)"/>
     <use xlink:href="#DejaVuSans-63" transform="translate(1340.173828 0)"/>
     <use xlink:href="#DejaVuSans-79" transform="translate(1395.154297 0)"/>
     <use xlink:href="#DejaVuSans-20" transform="translate(1454.333984 0)"/>
     <use xlink:href="#DejaVuSans-70" transform="translate(1486.121094 0)"/>
     <use xlink:href="#DejaVuSans-65" transform="translate(1549.597656 0)"/>
     <use xlink:href="#DejaVuSans-72" transform="translate(1611.121094 0)"/>
     <use xlink:href="#DejaVuSans-20" transform="translate(1652.234375 0)"/>
     <use xlink:href="#DejaVuSans-72" transform="translate(1684.021484 0)"/>
     <use xlink:href="#DejaVuSans-65" transform="translate(1722.884766 0)"/>
     <use xlink:href="#DejaVuSans-63" transform="translate(1784.408203 0)"/>
     <use xlink:href="#DejaVuSans-69" transform="translate(1839.388672 0)"/>
     <use xlink:href="#DejaVuSans-70" transform="translate(1867.171875 0)"/>
     <use xlink:href="#DejaVuSans-65" transform="translate(1930.648438 0)"/>
     <use xlink:href="#DejaVuSans-20" transform="translate(1992.171875 0)"/>
     <use xlink:href="#DejaVuSans-70" transform="translate(2023.958984 0)"/>
     <use xlink:href="#DejaVuSans-6f" transform="translate(2087.435547 0)"/>
     <use xlink:href="#DejaVuSans-73" transform="translate(2148.617188 0)"/>
     <use xlink:href="#DejaVuSans-69" transform="translate(2200.716797 0)"/>
     <use xlink:href="#DejaVuSans-74" transform="translate(2228.5 0)"/>
     <use xlink:href="#DejaVuSans-69" transform="translate(2267.708984 0)"/>
     <use xlink:href="#DejaVuSans-6f" transform="translate(2295.492188 0)"/>
     <use xlink:href="#DejaVuSans-6e" transform="translate(2356.673828 0)"/>
     <use xlink:href="#DejaVuSans-20" transform="translate(2420.052734 0)"/>
     <use xlink:href="#DejaVuSans-28" transform="translate(2451.839844 0)"/>
     <use xlink:href="#DejaVuSans-61" transform="translate(2490.853516 0)"/>
     <use xlink:href="#DejaVuSans-74" transform="translate(2552.132812 0)"/>
     <use xlink:href="#DejaVuSans-20" transform="translate(2591.341797 0)"/>
     <use xlink:href="#DejaVuSans-6c" transform="translate(2623.128906 0)"/>
     <use xlink:href="#DejaVuSans-61" transform="translate(2650.912109 0)"/>
     <use xlink:href="#DejaVuSans-73" transform="translate(2712.191406 0)"/>
     <use xlink:href="#DejaVuSans-74" transform="translate(2764.291016 0)"/>
     <use xlink:href="#DejaVuSans-20" transform="translate(2803.5 0)"/>
     <use xlink:href="#DejaVuSans-73" transform="translate(2835.287109 0)"/>
     <use xlink:href="#DejaVuSans-74" transform="translate(2887.386719 0)"/>
     <use xlink:href="#DejaVuSans-65" transform="translate(2926.595703 0)"/>
     <use xlink:href="#DejaVuSans-70" transform="translate(2988.119141 0)"/>
     <use xlink:href="#DejaVuSans-29" transform="translate(3051.595703 0)"/>
    </g>
    <!-- Base Product: Cocaine, Recipe size: 9, T0: 10.0 -->
    <g transform="translate(215.957656 37.44) scale(0.14 -0.14)">
     <defs>
      <path id="DejaVuSans-42" d="M 1259 2228 
L 1259 519 
L 2272 519 
Q 2781 519 3026 730 
Q 3272 941 3272 1375 
Q 3272 1813 3026 2020 
Q 2781 2228 2272 2228 
L 1259 2228 
z
M 1259 4147 
L 1259 2741 
L 2194 2741 
Q 2656 2741 2882 2914 
Q 3109 3088 3109 3444 
Q 3109 3797 2882 3972 
Q 2656 4147 2194 4147 
L 1259 4147 
z
M 628 4666 
L 2241 4666 
Q 2963 4666 3353 4366 
Q 3744 4066 3744 3513 
Q 3744 3084 3544 2831 
Q 3344 2578 2956 2516 
Q 3422 2416 3680 2098 
Q 3938 1781 3938 1306 
Q 3938 681 3513 340 
Q 3088 0 2303 0 
L 628 0 
L 628 4666 
z
" transform="scale(0.015625)"/>
      <path id="DejaVuSans-3a" d="M 750 794 
L 1409 794 
L 1409 0 
L 750 0 
L 750 794 
z
M 750 3309 
L 1409 3309 
L 1409 2516 
L 750 2516 
L 750 3309 
z
" transform="scale(0.015625)"/>
      <path id="DejaVuSans-43" d="M 4122 4306 
L 4122 3641 
Q 3803 3938 3442 4084 
Q 3081 4231 2675 4231 
Q 1875 4231 1450 3742 
Q 1025 3253 1025 2328 
Q 1025 1406 1450 917 
Q 1875 428 2675 428 
Q 3081 428 3442 575 
Q 3803 722 4122 1019 
L 4122 359 
Q 3791 134 3420 21 
Q 3050 -91 2638 -91 
Q 1578 -91 968 557 
Q 359 1206 359 2328 
Q 359 3453 968 4101 
Q 1578 4750 2638 4750 
Q 3056 4750 3426 4639 
Q 3797 4528 4122 4306 
z
" transform="scale(0.015625)"/>
      <path id="DejaVuSans-2c" d="M 750 794 
L 1409 794 
L 1409 256 
L 897 -744 
L 494 -744 
L 750 256 
L 750 794 
z
" transform="scale(0.015625)"/>
      <path id="DejaVuSans-7a" d="M 353 3500 
L 3084 3500 
L 3084 2975 
L 922 459 
L 3084 459 
L 3084 0 
L 275 0 
L 275 525 
L 2438 3041 
L 353 3041 
L 353 3500 
z
" transform="scale(0.015625)"/>
      <path id="DejaVuSans-54" d="M -19 4666 
L 3928 4666 
L 3928 4134 
L 2272 4134 
L 2272 0 
L 1638 0 
L 1638 4134 
L -19 4134 
L -19 4666 
z
" transform="scale(0.015625)"/>
     </defs>
     <use xlink:href="#DejaVuSans-42"/>
     <use xlink:href="#DejaVuSans-61" transform="translate(68.603516 0)"/>
     <use xlink:href="#DejaVuSans-73" transform="translate(129.882812 0)"/>
     <use xlink:href="#DejaVuSans-65" transform="translate(181.982422 0)"/>
     <use xlink:href="#DejaVuSans-20" transform="translate(243.505859 0)"/>
     <use xlink:href="#DejaVuSans-50" transform="translate(275.292969 0)"/>
     <use xlink:href="#DejaVuSans-72" transform="translate(333.845703 0)"/>
     <use xlink:href="#DejaVuSans-6f" transform="translate(372.708984 0)"/>
     <use xlink:href="#DejaVuSans-64" transform="translate(433.890625 0)"/>
     <use xlink:href="#DejaVuSans-75" transform="translate(497.367188 0)"/>
     <use xlink:href="#DejaVuSans-63" transform="translate(560.746094 0)"/>
     <use xlink:href="#DejaVuSans-74" transform="translate(615.726562 0)"/>
     <use xlink:href="#DejaVuSans-3a" transform="translate(654.935547 0)"/>
     <use xlink:href="#DejaVuSans-20" transform="translate(688.626953 0)"/>
     <use xlink:href="#DejaVuSans-43" transform="translate(720.414062 0)"/>
     <use xlink:href="#DejaVuSans-6f" transform="translate(790.238281 0)"/>
     <use xlink:href="#DejaVuSans-63" transform="translate(851.419922 0)"/>
     <use xlink:href="#DejaVuSans-61" transform="translate(906.400391 0)"/>
     <use xlink:href="#DejaVuSans-69" transform="translate(967.679688 0)"/>
     <use xlink:href="#DejaVuSans-6e" transform="translate(995.462891 0)"/>
     <use xlink:href="#DejaVuSans-65" transform="translate(1058.841797 0)"/>
     <use xlink:href="#DejaVuSans-2c" transform="translate(1120.365234 0)"/>
     <use xlink:href="#DejaVuSans-20" transform="translate(1152.152344 0)"/>
     <use xlink:href="#DejaVuSans-52" transform="translate(1183.939453 0)"/>
     <use xlink:href="#DejaVuSans-65" transform="translate(1248.921875 0)"/>
     <use xlink:href="#DejaVuSans-63" transform="translate(1310.445312 0)"/>
     <use xlink:href="#DejaVuSans-69" transform="translate(1365.425781 0)"/>
     <use xlink:href="#DejaVuSans-70" transform="translate(1393.208984 0)"/>
     <use xlink:href="#DejaVuSans-65" transform="translate(1456.685547 0)"/>
     <use xlink:href="#DejaVuSans-20" transform="translate(1518.208984 0)"/>
     <use xlink:href="#DejaVuSans-73" transform="translate(1549.996094 0)"/>
     <use xlink:href="#DejaVuSans-69" transform="translate(1602.095703 0)"/>
     <use xlink:href="#DejaVuSans-7a" transform="translate(1629.878906 0)"/>
     <use xlink:href="#DejaVuSans-65" transform="translate(1682.369141 0)"/>
     <use xlink:href="#DejaVuSans-3a" transform="translate(1743.892578 0)"/>
     <use xlink:href="#DejaVuSans-20" transform="translate(1777.583984 0)"/>
     <use xlink:href="#DejaVuSans-39" transform="translate(1809.371094 0)"/>
     <use xlink:href="#DejaVuSans-2c" transform="translate(1872.994141 0)"/>
     <use xlink:href="#DejaVuSans-20" transform="translate(1904.78125 0)"/>
     <use xlink:href="#DejaVuSans-54" transform="translate(1936.568359 0)"/>
     <use xlink:href="#DejaVuSans-30" transform="translate(1997.652344 0)"/>
     <use xlink:href="#DejaVuSans-3a" transform="translate(2061.275391 0)"/>
     <use xlink:href="#DejaVuSans-20" transform="translate(2094.966797 0)"/>
     <use xlink:href="#DejaVuSans-31" transform="translate(2126.753906 0)"/>
     <use xlink:href="#DejaVuSans-30" transform="translate(2190.376953 0)"/>
     <use xlink:href="#DejaVuSans-2e" transform="translate(2254 0)"/>
     <use xlink:href="#DejaVuSans-30" transform="translate(2285.787109 0)"/>
    </g>
   </g>
   <g id="legend_1">
    <g id="patch_151">
     <path d="M 753.3795 300.968125 
L 851.249812 300.968125 
Q 853.249812 300.968125 853.249812 298.968125 
L 853.249812 50.44 
Q 853.249812 48.44 851.249812 48.44 
L 753.3795 48.44 
Q 751.3795 48.44 751.3795 50.44 
L 751.3795 298.968125 
Q 751.3795 300.968125 753.3795 300.968125 
z
" style="fill: #ffffff; opacity: 0.8; stroke: #cccccc; stroke-linejoin: miter"/>
    </g>
    <g id="text_19">
     <!-- Ingredient -->
     <g transform="translate(776.708406 60.038437) scale(0.1 -0.1)">
      <use xlink:href="#DejaVuSans-49"/>
      <use xlink:href="#DejaVuSans-6e" transform="translate(29.492188 0)"/>
      <use xlink:href="#DejaVuSans-67" transform="translate(92.871094 0)"/>
      <use xlink:href="#DejaVuSans-72" transform="translate(156.347656 0)"/>
      <use xlink:href="#DejaVuSans-65" transform="translate(195.210938 0)"/>
      <use xlink:href="#DejaVuSans-64" transform="translate(256.734375 0)"/>
      <use xlink:href="#DejaVuSans-69" transform="translate(320.210938 0)"/>
      <use xlink:href="#DejaVuSans-65" transform="translate(347.994141 0)"/>
      <use xlink:href="#DejaVuSans-6e" transform="translate(409.517578 0)"/>
      <use xlink:href="#DejaVuSans-74" transform="translate(472.896484 0)"/>
     </g>
    </g>
    <g id="patch_152">
     <path d="M 755.3795 74.716563 
L 775.3795 74.716563 
L 775.3795 67.716563 
L 755.3795 67.716563 
z
" style="fill: #1f77b4"/>
    </g>
    <g id="text_20">
     <!-- Addy -->
     <g transform="translate(783.3795 74.716563) scale(0.1 -0.1)">
      <defs>
       <path id="DejaVuSans-41" d="M 2188 4044 
L 1331 1722 
L 3047 1722 
L 2188 4044 
z
M 1831 4666 
L 2547 4666 
L 4325 0 
L 3669 0 
L 3244 1197 
L 1141 1197 
L 716 0 
L 50 0 
L 1831 4666 
z
" transform="scale(0.015625)"/>
      </defs>
      <use xlink:href="#DejaVuSans-41"/>
      <use xlink:href="#DejaVuSans-64" transform="translate(66.658203 0)"/>
      <use xlink:href="#DejaVuSans-64" transform="translate(130.134766 0)"/>
      <use xlink:href="#DejaVuSans-79" transform="translate(193.611328 0)"/>
     </g>
    </g>
    <g id="patch_153">
     <path d="M 755.3795 89.394688 
L 775.3795 89.394688 
L 775.3795 82.394688 
L 755.3795 82.394688 
z
" style="fill: #ff7f0e"/>
    </g>
    <g id="text_21">
     <!-- Banana -->
     <g transform="translate(783.3795 89.394688) scale(0.1 -0.1)">
      <use xlink:href="#DejaVuSans-42"/>
      <use xlink:href="#DejaVuSans-61" transform="translate(68.603516 0)"/>
      <use xlink:href="#DejaVuSans-6e" transform="translate(129.882812 0)"/>
      <use xlink:href="#DejaVuSans-61" transform="translate(193.261719 0)"/>
      <use xlink:href="#DejaVuSans-6e" transform="translate(254.541016 0)"/>
      <use xlink:href="#DejaVuSans-61" transform="translate(317.919922 0)"/>
     </g>
    </g>
    <g id="patch_154">
     <path d="M 755.3795 104.072813 
L 775.3795 104.072813 
L 775.3795 97.072813 
L 755.3795 97.072813 
z
" style="fill: #2ca02c"/>
    </g>
    <g id="text_22">
     <!-- Battery -->
     <g transform="translate(783.3795 104.072813) scale(0.1 -0.1)">
      <use xlink:href="#DejaVuSans-42"/>
      <use xlink:href="#DejaVuSans-61" transform="translate(68.603516 0)"/>
      <use xlink:href="#DejaVuSans-74" transform="translate(129.882812 0)"/>
      <use xlink:href="#DejaVuSans-74" transform="translate(169.091797 0)"/>
      <use xlink:href="#DejaVuSans-65" transform="translate(208.300781 0)"/>
      <use xlink:href="#DejaVuSans-72" transform="translate(269.824219 0)"/>
      <use xlink:href="#DejaVuSans-79" transform="translate(310.9375 0)"/>
     </g>
    </g>
    <g id="patch_155">
     <path d="M 755.3795 118.750938 
L 775.3795 118.750938 
L 775.3795 111.750938 
L 755.3795 111.750938 
z
" style="fill: #d62728"/>
    </g>
    <g id="text_23">
     <!-- Chili -->
     <g transform="translate(783.3795 118.750938) scale(0.1 -0.1)">
      <defs>
       <path id="DejaVuSans-68" d="M 3513 2113 
L 3513 0 
L 2938 0 
L 2938 2094 
Q 2938 2591 2744 2837 
Q 2550 3084 2163 3084 
Q 1697 3084 1428 2787 
Q 1159 2491 1159 1978 
L 1159 0 
L 581 0 
L 581 4863 
L 1159 4863 
L 1159 2956 
Q 1366 3272 1645 3428 
Q 1925 3584 2291 3584 
Q 2894 3584 3203 3211 
Q 3513 2838 3513 2113 
z
" transform="scale(0.015625)"/>
      </defs>
      <use xlink:href="#DejaVuSans-43"/>
      <use xlink:href="#DejaVuSans-68" transform="translate(69.824219 0)"/>
      <use xlink:href="#DejaVuSans-69" transform="translate(133.203125 0)"/>
      <use xlink:href="#DejaVuSans-6c" transform="translate(160.986328 0)"/>
      <use xlink:href="#DejaVuSans-69" transform="translate(188.769531 0)"/>
     </g>
    </g>
    <g id="patch_156">
     <path d="M 755.3795 133.429062 
L 775.3795 133.429062 
L 775.3795 126.429062 
L 755.3795 126.429062 
z
" style="fill: #9467bd"/>
    </g>
    <g id="text_24">
     <!-- Cuke -->
     <g transform="translate(783.3795 133.429062) scale(0.1 -0.1)">
      <defs>
       <path id="DejaVuSans-6b" d="M 581 4863 
L 1159 4863 
L 1159 1991 
L 2875 3500 
L 3609 3500 
L 1753 1863 
L 3688 0 
L 2938 0 
L 1159 1709 
L 1159 0 
L 581 0 
L 581 4863 
z
" transform="scale(0.015625)"/>
      </defs>
      <use xlink:href="#DejaVuSans-43"/>
      <use xlink:href="#DejaVuSans-75" transform="translate(69.824219 0)"/>
      <use xlink:href="#DejaVuSans-6b" transform="translate(133.203125 0)"/>
      <use xlink:href="#DejaVuSans-65" transform="translate(187.488281 0)"/>
     </g>
    </g>
    <g id="patch_157">
     <path d="M 755.3795 148.107188 
L 775.3795 148.107188 
L 775.3795 141.107188 
L 755.3795 141.107188 
z
" style="fill: #8c564b"/>
    </g>
    <g id="text_25">
     <!-- Donut -->
     <g transform="translate(783.3795 148.107188) scale(0.1 -0.1)">
      <defs>
       <path id="DejaVuSans-44" d="M 1259 4147 
L 1259 519 
L 2022 519 
Q 2988 519 3436 956 
Q 3884 1394 3884 2338 
Q 3884 3275 3436 3711 
Q 2988 4147 2022 4147 
L 1259 4147 
z
M 628 4666 
L 1925 4666 
Q 3281 4666 3915 4102 
Q 4550 3538 4550 2338 
Q 4550 1131 3912 565 
Q 3275 0 1925 0 
L 628 0 
L 628 4666 
z
" transform="scale(0.015625)"/>
      </defs>
      <use xlink:href="#DejaVuSans-44"/>
      <use xlink:href="#DejaVuSans-6f" transform="translate(77.001953 0)"/>
      <use xlink:href="#DejaVuSans-6e" transform="translate(138.183594 0)"/>
      <use xlink:href="#DejaVuSans-75" transform="translate(201.5625 0)"/>
      <use xlink:href="#DejaVuSans-74" transform="translate(264.941406 0)"/>
     </g>
    </g>
    <g id="patch_158">
     <path d="M 755.3795 162.785313 
L 775.3795 162.785313 
L 775.3795 155.785313 
L 755.3795 155.785313 
z
" style="fill: #e377c2"/>
    </g>
    <g id="text_26">
     <!-- Energy Drink -->
     <g transform="translate(783.3795 162.785313) scale(0.1 -0.1)">
      <defs>
       <path id="DejaVuSans-45" d="M 628 4666 
L 3578 4666 
L 3578 4134 
L 1259 4134 
L 1259 2753 
L 3481 2753 
L 3481 2222 
L 1259 2222 
L 1259 531 
L 3634 531 
L 3634 0 
L 628 0 
L 628 4666 
z
" transform="scale(0.015625)"/>
      </defs>
      <use xlink:href="#DejaVuSans-45"/>
      <use xlink:href="#DejaVuSans-6e" transform="translate(63.183594 0)"/>
      <use xlink:href="#DejaVuSans-65" transform="translate(126.5625 0)"/>
      <use xlink:href="#DejaVuSans-72" transform="translate(188.085938 0)"/>
      <use xlink:href="#DejaVuSans-67" transform="translate(227.449219 0)"/>
      <use xlink:href="#DejaVuSans-79" transform="translate(290.925781 0)"/>
      <use xlink:href="#DejaVuSans-20" transform="translate(350.105469 0)"/>
      <use xlink:href="#DejaVuSans-44" transform="translate(381.892578 0)"/>
      <use xlink:href="#DejaVuSans-72" transform="translate(458.894531 0)"/>
      <use xlink:href="#DejaVuSans-69" transform="translate(500.007812 0)"/>
      <use xlink:href="#DejaVuSans-6e" transform="translate(527.791016 0)"/>
      <use xlink:href="#DejaVuSans-6b" transform="translate(591.169922 0)"/>
     </g>
    </g>
    <g id="patch_159">
     <path d="M 755.3795 177.463437 
L 775.3795 177.463437 
L 775.3795 170.463437 
L 755.3795 170.463437 
z
" style="fill: #7f7f7f"/>
    </g>
    <g id="text_27">
     <!-- Flu Medicine -->
     <g transform="translate(783.3795 177.463437) scale(0.1 -0.1)">
      <defs>
       <path id="DejaVuSans-4d" d="M 628 4666 
L 1569 4666 
L 2759 1491 
L 3956 4666 
L 4897 4666 
L 4897 0 
L 4281 0 
L 4281 4097 
L 3078 897 
L 2444 897 
L 1241 4097 
L 1241 0 
L 628 0 
L 628 4666 
z
" transform="scale(0.015625)"/>
      </defs>
      <use xlink:href="#DejaVuSans-46"/>
      <use xlink:href="#DejaVuSans-6c" transform="translate(57.519531 0)"/>
      <use xlink:href="#DejaVuSans-75" transform="translate(85.302734 0)"/>
      <use xlink:href="#DejaVuSans-20" transform="translate(148.681641 0)"/>
      <use xlink:href="#DejaVuSans-4d" transform="translate(180.46875 0)"/>
      <use xlink:href="#DejaVuSans-65" transform="translate(266.748047 0)"/>
      <use xlink:href="#DejaVuSans-64" transform="translate(328.271484 0)"/>
      <use xlink:href="#DejaVuSans-69" transform="translate(391.748047 0)"/>
      <use xlink:href="#DejaVuSans-63" transform="translate(419.53125 0)"/>
      <use xlink:href="#DejaVuSans-69" transform="translate(474.511719 0)"/>
      <use xlink:href="#DejaVuSans-6e" transform="translate(502.294922 0)"/>
      <use xlink:href="#DejaVuSans-65" transform="translate(565.673828 0)"/>
     </g>
    </g>
    <g id="patch_160">
     <path d="M 755.3795 192.141563 
L 775.3795 192.141563 
L 775.3795 185.141563 
L 755.3795 185.141563 
z
" style="fill: #bcbd22"/>
    </g>
    <g id="text_28">
     <!-- Gasoline -->
     <g transform="translate(783.3795 192.141563) scale(0.1 -0.1)">
      <defs>
       <path id="DejaVuSans-47" d="M 3809 666 
L 3809 1919 
L 2778 1919 
L 2778 2438 
L 4434 2438 
L 4434 434 
Q 4069 175 3628 42 
Q 3188 -91 2688 -91 
Q 1594 -91 976 548 
Q 359 1188 359 2328 
Q 359 3472 976 4111 
Q 1594 4750 2688 4750 
Q 3144 4750 3555 4637 
Q 3966 4525 4313 4306 
L 4313 3634 
Q 3963 3931 3569 4081 
Q 3175 4231 2741 4231 
Q 1884 4231 1454 3753 
Q 1025 3275 1025 2328 
Q 1025 1384 1454 906 
Q 1884 428 2741 428 
Q 3075 428 3337 486 
Q 3600 544 3809 666 
z
" transform="scale(0.015625)"/>
      </defs>
      <use xlink:href="#DejaVuSans-47"/>
      <use xlink:href="#DejaVuSans-61" transform="translate(77.490234 0)"/>
      <use xlink:href="#DejaVuSans-73" transform="translate(138.769531 0)"/>
      <use xlink:href="#DejaVuSans-6f" transform="translate(190.869141 0)"/>
      <use xlink:href="#DejaVuSans-6c" transform="translate(252.050781 0)"/>
      <use xlink:href="#DejaVuSans-69" transform="translate(279.833984 0)"/>
      <use xlink:href="#DejaVuSans-6e" transform="translate(307.617188 0)"/>
      <use xlink:href="#DejaVuSans-65" transform="translate(370.996094 0)"/>
     </g>
    </g>
    <g id="patch_161">
     <path d="M 755.3795 206.819687 
L 775.3795 206.819687 
L 775.3795 199.819687 
L 755.3795 199.819687 
z
" style="fill: #17becf"/>
    </g>
    <g id="text_29">
     <!-- Horse S*men -->
     <g transform="translate(783.3795 206.819687) scale(0.1 -0.1)">
      <defs>
       <path id="DejaVuSans-48" d="M 628 4666 
L 1259 4666 
L 1259 2753 
L 3553 2753 
L 3553 4666 
L 4184 4666 
L 4184 0 
L 3553 0 
L 3553 2222 
L 1259 2222 
L 1259 0 
L 628 0 
L 628 4666 
z
" transform="scale(0.015625)"/>
       <path id="DejaVuSans-53" d="M 3425 4513 
L 3425 3897 
Q 3066 4069 2747 4153 
Q 2428 4238 2131 4238 
Q 1616 4238 1336 4038 
Q 1056 3838 1056 3469 
Q 1056 3159 1242 3001 
Q 1428 2844 1947 2747 
L 2328 2669 
Q 3034 2534 3370 2195 
Q 3706 1856 3706 1288 
Q 3706 609 3251 259 
Q 2797 -91 1919 -91 
Q 1588 -91 1214 -16 
Q 841 59 441 206 
L 441 856 
Q 825 641 1194 531 
Q 1563 422 1919 422 
Q 2459 422 2753 634 
Q 3047 847 3047 1241 
Q 3047 1584 2836 1778 
Q 2625 1972 2144 2069 
L 1759 2144 
Q 1053 2284 737 2584 
Q 422 2884 422 3419 
Q 422 4038 858 4394 
Q 1294 4750 2059 4750 
Q 2388 4750 2728 4690 
Q 3069 4631 3425 4513 
z
" transform="scale(0.015625)"/>
       <path id="DejaVuSans-2a" d="M 3009 3897 
L 1888 3291 
L 3009 2681 
L 2828 2375 
L 1778 3009 
L 1778 1831 
L 1422 1831 
L 1422 3009 
L 372 2375 
L 191 2681 
L 1313 3291 
L 191 3897 
L 372 4206 
L 1422 3572 
L 1422 4750 
L 1778 4750 
L 1778 3572 
L 2828 4206 
L 3009 3897 
z
" transform="scale(0.015625)"/>
       <path id="DejaVuSans-6d" d="M 3328 2828 
Q 3544 3216 3844 3400 
Q 4144 3584 4550 3584 
Q 5097 3584 5394 3201 
Q 5691 2819 5691 2113 
L 5691 0 
L 5113 0 
L 5113 2094 
Q 5113 2597 4934 2840 
Q 4756 3084 4391 3084 
Q 3944 3084 3684 2787 
Q 3425 2491 3425 1978 
L 3425 0 
L 2847 0 
L 2847 2094 
Q 2847 2600 2669 2842 
Q 2491 3084 2119 3084 
Q 1678 3084 1418 2786 
Q 1159 2488 1159 1978 
L 1159 0 
L 581 0 
L 581 3500 
L 1159 3500 
L 1159 2956 
Q 1356 3278 1631 3431 
Q 1906 3584 2284 3584 
Q 2666 3584 2933 3390 
Q 3200 3197 3328 2828 
z
" transform="scale(0.015625)"/>
      </defs>
      <use xlink:href="#DejaVuSans-48"/>
      <use xlink:href="#DejaVuSans-6f" transform="translate(75.195312 0)"/>
      <use xlink:href="#DejaVuSans-72" transform="translate(136.376953 0)"/>
      <use xlink:href="#DejaVuSans-73" transform="translate(177.490234 0)"/>
      <use xlink:href="#DejaVuSans-65" transform="translate(229.589844 0)"/>
      <use xlink:href="#DejaVuSans-20" transform="translate(291.113281 0)"/>
      <use xlink:href="#DejaVuSans-53" transform="translate(322.900391 0)"/>
      <use xlink:href="#DejaVuSans-2a" transform="translate(386.376953 0)"/>
      <use xlink:href="#DejaVuSans-6d" transform="translate(436.376953 0)"/>
      <use xlink:href="#DejaVuSans-65" transform="translate(533.789062 0)"/>
      <use xlink:href="#DejaVuSans-6e" transform="translate(595.3125 0)"/>
     </g>
    </g>
    <g id="patch_162">
     <path d="M 755.3795 221.497812 
L 775.3795 221.497812 
L 775.3795 214.497812 
L 755.3795 214.497812 
z
" style="fill: #1f77b4"/>
    </g>
    <g id="text_30">
     <!-- Iodine -->
     <g transform="translate(783.3795 221.497812) scale(0.1 -0.1)">
      <use xlink:href="#DejaVuSans-49"/>
      <use xlink:href="#DejaVuSans-6f" transform="translate(29.492188 0)"/>
      <use xlink:href="#DejaVuSans-64" transform="translate(90.673828 0)"/>
      <use xlink:href="#DejaVuSans-69" transform="translate(154.150391 0)"/>
      <use xlink:href="#DejaVuSans-6e" transform="translate(181.933594 0)"/>
      <use xlink:href="#DejaVuSans-65" transform="translate(245.3125 0)"/>
     </g>
    </g>
    <g id="patch_163">
     <path d="M 755.3795 236.175937 
L 775.3795 236.175937 
L 775.3795 229.175937 
L 755.3795 229.175937 
z
" style="fill: #ff7f0e"/>
    </g>
    <g id="text_31">
     <!-- Mega Bean -->
     <g transform="translate(783.3795 236.175937) scale(0.1 -0.1)">
      <use xlink:href="#DejaVuSans-4d"/>
      <use xlink:href="#DejaVuSans-65" transform="translate(86.279297 0)"/>
      <use xlink:href="#DejaVuSans-67" transform="translate(147.802734 0)"/>
      <use xlink:href="#DejaVuSans-61" transform="translate(211.279297 0)"/>
      <use xlink:href="#DejaVuSans-20" transform="translate(272.558594 0)"/>
      <use xlink:href="#DejaVuSans-42" transform="translate(304.345703 0)"/>
      <use xlink:href="#DejaVuSans-65" transform="translate(372.949219 0)"/>
      <use xlink:href="#DejaVuSans-61" transform="translate(434.472656 0)"/>
      <use xlink:href="#DejaVuSans-6e" transform="translate(495.751953 0)"/>
     </g>
    </g>
    <g id="patch_164">
     <path d="M 755.3795 250.854062 
L 775.3795 250.854062 
L 775.3795 243.854062 
L 755.3795 243.854062 
z
" style="fill: #2ca02c"/>
    </g>
    <g id="text_32">
     <!-- Motor Oil -->
     <g transform="translate(783.3795 250.854062) scale(0.1 -0.1)">
      <defs>
       <path id="DejaVuSans-4f" d="M 2522 4238 
Q 1834 4238 1429 3725 
Q 1025 3213 1025 2328 
Q 1025 1447 1429 934 
Q 1834 422 2522 422 
Q 3209 422 3611 934 
Q 4013 1447 4013 2328 
Q 4013 3213 3611 3725 
Q 3209 4238 2522 4238 
z
M 2522 4750 
Q 3503 4750 4090 4092 
Q 4678 3434 4678 2328 
Q 4678 1225 4090 567 
Q 3503 -91 2522 -91 
Q 1538 -91 948 565 
Q 359 1222 359 2328 
Q 359 3434 948 4092 
Q 1538 4750 2522 4750 
z
" transform="scale(0.015625)"/>
      </defs>
      <use xlink:href="#DejaVuSans-4d"/>
      <use xlink:href="#DejaVuSans-6f" transform="translate(86.279297 0)"/>
      <use xlink:href="#DejaVuSans-74" transform="translate(147.460938 0)"/>
      <use xlink:href="#DejaVuSans-6f" transform="translate(186.669922 0)"/>
      <use xlink:href="#DejaVuSans-72" transform="translate(247.851562 0)"/>
      <use xlink:href="#DejaVuSans-20" transform="translate(288.964844 0)"/>
      <use xlink:href="#DejaVuSans-4f" transform="translate(320.751953 0)"/>
      <use xlink:href="#DejaVuSans-69" transform="translate(399.462891 0)"/>
      <use xlink:href="#DejaVuSans-6c" transform="translate(427.246094 0)"/>
     </g>
    </g>
    <g id="patch_165">
     <path d="M 755.3795 265.532187 
L 775.3795 265.532187 
L 775.3795 258.532187 
L 755.3795 258.532187 
z
" style="fill: #d62728"/>
    </g>
    <g id="text_33">
     <!-- Mouth Wash -->
     <g transform="translate(783.3795 265.532187) scale(0.1 -0.1)">
      <defs>
       <path id="DejaVuSans-57" d="M 213 4666 
L 850 4666 
L 1831 722 
L 2809 4666 
L 3519 4666 
L 4500 722 
L 5478 4666 
L 6119 4666 
L 4947 0 
L 4153 0 
L 3169 4050 
L 2175 0 
L 1381 0 
L 213 4666 
z
" transform="scale(0.015625)"/>
      </defs>
      <use xlink:href="#DejaVuSans-4d"/>
      <use xlink:href="#DejaVuSans-6f" transform="translate(86.279297 0)"/>
      <use xlink:href="#DejaVuSans-75" transform="translate(147.460938 0)"/>
      <use xlink:href="#DejaVuSans-74" transform="translate(210.839844 0)"/>
      <use xlink:href="#DejaVuSans-68" transform="translate(250.048828 0)"/>
      <use xlink:href="#DejaVuSans-20" transform="translate(313.427734 0)"/>
      <use xlink:href="#DejaVuSans-57" transform="translate(345.214844 0)"/>
      <use xlink:href="#DejaVuSans-61" transform="translate(437.716797 0)"/>
      <use xlink:href="#DejaVuSans-73" transform="translate(498.996094 0)"/>
      <use xlink:href="#DejaVuSans-68" transform="translate(551.095703 0)"/>
     </g>
    </g>
    <g id="patch_166">
     <path d="M 755.3795 280.210312 
L 775.3795 280.210312 
L 775.3795 273.210312 
L 755.3795 273.210312 
z
" style="fill: #9467bd"/>
    </g>
    <g id="text_34">
     <!-- Paracetamol -->
     <g transform="translate(783.3795 280.210312) scale(0.1 -0.1)">
      <use xlink:href="#DejaVuSans-50"/>
      <use xlink:href="#DejaVuSans-61" transform="translate(55.802734 0)"/>
      <use xlink:href="#DejaVuSans-72" transform="translate(117.082031 0)"/>
      <use xlink:href="#DejaVuSans-61" transform="translate(158.195312 0)"/>
      <use xlink:href="#DejaVuSans-63" transform="translate(219.474609 0)"/>
      <use xlink:href="#DejaVuSans-65" transform="translate(274.455078 0)"/>
      <use xlink:href="#DejaVuSans-74" transform="translate(335.978516 0)"/>
      <use xlink:href="#DejaVuSans-61" transform="translate(375.1875 0)"/>
      <use xlink:href="#DejaVuSans-6d" transform="translate(436.466797 0)"/>
      <use xlink:href="#DejaVuSans-6f" transform="translate(533.878906 0)"/>
      <use xlink:href="#DejaVuSans-6c" transform="translate(595.060547 0)"/>
     </g>
    </g>
    <g id="patch_167">
     <path d="M 755.3795 294.888437 
L 775.3795 294.888437 
L 775.3795 287.888437 
L 755.3795 287.888437 
z
" style="fill: #8c564b"/>
    </g>
    <g id="text_35">
     <!-- V*agra -->
     <g transform="translate(783.3795 294.888437) scale(0.1 -0.1)">
      <defs>
       <path id="DejaVuSans-56" d="M 1831 0 
L 50 4666 
L 709 4666 
L 2188 738 
L 3669 4666 
L 4325 4666 
L 2547 0 
L 1831 0 
z
" transform="scale(0.015625)"/>
      </defs>
      <use xlink:href="#DejaVuSans-56"/>
      <use xlink:href="#DejaVuSans-2a" transform="translate(68.408203 0)"/>
      <use xlink:href="#DejaVuSans-61" transform="translate(118.408203 0)"/>
      <use xlink:href="#DejaVuSans-67" transform="translate(179.6875 0)"/>
      <use xlink:href="#DejaVuSans-72" transform="translate(243.164062 0)"/>
      <use xlink:href="#DejaVuSans-61" transform="translate(284.277344 0)"/>
     </g>
    </g>
   </g>
  </g>
 </g>
 <defs>
  <clipPath id="p50c60a448d">
   <rect x="47.72" y="43.44" width="665.39" height="346.6"/>
  </clipPath>
 </defs>
</svg>
