<?xml version="1.0" encoding="utf-8" standalone="no"?>
<!DOCTYPE svg PUBLIC "-//W3C//DTD SVG 1.1//EN"
  "http://www.w3.org/Graphics/SVG/1.1/DTD/svg11.dtd">
<svg xmlns:xlink="http://www.w3.org/1999/xlink" width="864pt" height="432pt" viewBox="0 0 864 432" xmlns="http://www.w3.org/2000/svg" version="1.1">
 <metadata>
  <rdf:RDF xmlns:dc="http://purl.org/dc/elements/1.1/" xmlns:cc="http://creativecommons.org/ns#" xmlns:rdf="http://www.w3.org/1999/02/22-rdf-syntax-ns#">
   <cc:Work>
    <dc:type rdf:resource="http://purl.org/dc/dcmitype/StillImage"/>
    <dc:date>2025-05-24T02:23:06.178857</dc:date>
    <dc:format>image/svg+xml</dc:format>
    <dc:creator>
     <cc:Agent>
      <dc:title>Matplotlib v3.10.3, https://matplotlib.org/</dc:title>
     </cc:Agent>
    </dc:creator>
   </cc:Work>
  </rdf:RDF>
 </metadata>
 <defs>
  <style type="text/css">*{stroke-linejoin: round; stroke-linecap: butt}</style>
 </defs>
 <g id="figure_1">
  <g id="patch_1">
   <path d="M 0 432 
L 864 432 
L 864 0 
L 0 0 
z
" style="fill: #ffffff"/>
  </g>
  <g id="axes_1">
   <g id="patch_2">
    <path d="M 50.87 390.04 
L 844.866 390.04 
L 844.866 43.44 
L 50.87 43.44 
z
" style="fill: #ffffff"/>
   </g>
   <g id="FillBetweenPolyCollection_1">
    <defs>
     <path id="mda508d74eb" d="M 52.193327 -305.910465 
L 52.193327 -57.714545 
L 54.83998 -59.016974 
L 57.486633 -76.077298 
L 60.133287 -91.028688 
L 62.77994 -103.697966 
L 65.426593 -115.17978 
L 68.073247 -124.670945 
L 70.7199 -132.814362 
L 73.366553 -139.695593 
L 76.013207 -146.257215 
L 78.65986 -151.968096 
L 81.306513 -156.725411 
L 83.953167 -161.467536 
L 86.59982 -165.44973 
L 89.246473 -168.934539 
L 91.893127 -172.836391 
L 94.53978 -176.006709 
L 97.186433 -179.159517 
L 99.833087 -181.743207 
L 102.47974 -184.249774 
L 105.126393 -186.745642 
L 107.773047 -189.061103 
L 110.4197 -191.098848 
L 113.066353 -193.146539 
L 115.713007 -194.655598 
L 118.35966 -196.597393 
L 121.006313 -198.348751 
L 123.652967 -199.926451 
L 126.29962 -201.578662 
L 128.946273 -203.17736 
L 131.592927 -204.493454 
L 134.23958 -205.709732 
L 136.886233 -207.065882 
L 139.532887 -208.496627 
L 142.17954 -209.971251 
L 144.826193 -211.084182 
L 147.472847 -212.020363 
L 150.1195 -213.114572 
L 152.766153 -213.968531 
L 155.412807 -214.735336 
L 158.05946 -215.608289 
L 160.706113 -216.580095 
L 163.352767 -217.580653 
L 165.99942 -218.316033 
L 168.646073 -219.120282 
L 171.292727 -219.960074 
L 173.93938 -220.785782 
L 176.586033 -221.511863 
L 179.232687 -222.076342 
L 181.87934 -223.005168 
L 184.525993 -223.646979 
L 187.172647 -224.219503 
L 189.8193 -224.911713 
L 192.465953 -225.777373 
L 195.112607 -226.368451 
L 197.75926 -226.964649 
L 200.405913 -227.522149 
L 203.052567 -228.220941 
L 205.69922 -228.820503 
L 208.345873 -229.47669 
L 210.992527 -229.993674 
L 213.63918 -230.603266 
L 216.285833 -231.13542 
L 218.932487 -231.59697 
L 221.57914 -232.212976 
L 224.225793 -232.618277 
L 226.872447 -232.972886 
L 229.5191 -233.363749 
L 232.165753 -233.853047 
L 234.812407 -234.277822 
L 237.45906 -234.772031 
L 240.105713 -235.161681 
L 242.752367 -235.52887 
L 245.39902 -235.989312 
L 248.045673 -236.419603 
L 250.692327 -236.784598 
L 253.33898 -237.136783 
L 255.985633 -237.538824 
L 258.632287 -237.99607 
L 261.27894 -238.341444 
L 263.925593 -238.688155 
L 266.572247 -238.988667 
L 269.2189 -239.364589 
L 271.865553 -239.613366 
L 274.512207 -239.99775 
L 277.15886 -240.317904 
L 279.805513 -240.678364 
L 282.452167 -241.005099 
L 285.09882 -241.244932 
L 287.745473 -241.499496 
L 290.392127 -241.74938 
L 293.03878 -242.040782 
L 295.685433 -242.393741 
L 298.332087 -242.650749 
L 300.97874 -242.934462 
L 303.625393 -243.262179 
L 306.272047 -243.611544 
L 308.9187 -243.946951 
L 311.565353 -244.234717 
L 314.212007 -244.689644 
L 316.85866 -245.0192 
L 319.505313 -245.331413 
L 322.151967 -245.580148 
L 324.79862 -245.819187 
L 327.445273 -246.078452 
L 330.091927 -246.44541 
L 332.73858 -246.758752 
L 335.385233 -246.983959 
L 338.031887 -247.202646 
L 340.67854 -247.512185 
L 343.325193 -247.756155 
L 345.971847 -247.977433 
L 348.6185 -248.215887 
L 351.265153 -248.4772 
L 353.911807 -248.678252 
L 356.55846 -248.907638 
L 359.205113 -249.043246 
L 361.851767 -249.337866 
L 364.49842 -249.603191 
L 367.145073 -249.875161 
L 369.791727 -250.119006 
L 372.43838 -250.348266 
L 375.085033 -250.545473 
L 377.731687 -250.774691 
L 380.37834 -250.87808 
L 383.024993 -251.096893 
L 385.671647 -251.220299 
L 388.3183 -251.417171 
L 390.964953 -251.560302 
L 393.611607 -251.729385 
L 396.25826 -251.997635 
L 398.904913 -252.190914 
L 401.551567 -252.431834 
L 404.19822 -252.592391 
L 406.844873 -252.78638 
L 409.491527 -252.978155 
L 412.13818 -253.138461 
L 414.784833 -253.472238 
L 417.431487 -253.602498 
L 420.07814 -253.79072 
L 422.724793 -253.965445 
L 425.371447 -254.202979 
L 428.0181 -254.311299 
L 430.664753 -254.449958 
L 433.311407 -254.616283 
L 435.95806 -254.840486 
L 438.604713 -254.98813 
L 441.251367 -255.188973 
L 443.89802 -255.403565 
L 446.544673 -255.544816 
L 449.191327 -255.679756 
L 451.83798 -255.883273 
L 454.484633 -255.995438 
L 457.131287 -256.25324 
L 459.77794 -256.486471 
L 462.424593 -256.660568 
L 465.071247 -256.829818 
L 467.7179 -256.927982 
L 470.364553 -257.058827 
L 473.011207 -257.194854 
L 475.65786 -257.414836 
L 478.304513 -257.645392 
L 480.951167 -257.770093 
L 483.59782 -257.953719 
L 486.244473 -258.110891 
L 488.891127 -258.257449 
L 491.53778 -258.468739 
L 494.184433 -258.614587 
L 496.831087 -258.819358 
L 499.47774 -258.957557 
L 502.124393 -259.061155 
L 504.771047 -259.199856 
L 507.4177 -259.252303 
L 510.064353 -259.412358 
L 512.711007 -259.573752 
L 515.35766 -259.660717 
L 518.004313 -259.734016 
L 520.650967 -259.911624 
L 523.29762 -259.995204 
L 525.944273 -260.102813 
L 528.590927 -260.269723 
L 531.23758 -260.320205 
L 533.884233 -260.373195 
L 536.530887 -260.470148 
L 539.17754 -260.584694 
L 541.824193 -260.673039 
L 544.470847 -260.801125 
L 547.1175 -260.9224 
L 549.764153 -261.051991 
L 552.410807 -261.184799 
L 555.05746 -261.229933 
L 557.704113 -261.36061 
L 560.350767 -261.488655 
L 562.99742 -261.612437 
L 565.644073 -261.710058 
L 568.290727 -261.818754 
L 570.93738 -261.9837 
L 573.584033 -262.104013 
L 576.230687 -262.167158 
L 578.87734 -262.289645 
L 581.523993 -262.452876 
L 584.170647 -262.516481 
L 586.8173 -262.662537 
L 589.463953 -262.742941 
L 592.110607 -262.808217 
L 594.75726 -262.917289 
L 597.403913 -263.011108 
L 600.050567 -263.119595 
L 602.69722 -263.213079 
L 605.343873 -263.351362 
L 607.990527 -263.456088 
L 610.63718 -263.572641 
L 613.283833 -263.684721 
L 615.930487 -263.776827 
L 618.57714 -263.878084 
L 621.223793 -263.95573 
L 623.870447 -264.052599 
L 626.5171 -264.17542 
L 629.163753 -264.250015 
L 631.810407 -264.40957 
L 634.45706 -264.493317 
L 637.103713 -264.589727 
L 639.750367 -264.652328 
L 642.39702 -264.710291 
L 645.043673 -264.786558 
L 647.690327 -264.867003 
L 650.33698 -264.930399 
L 652.983633 -265.014898 
L 655.630287 -265.04039 
L 658.27694 -265.133749 
L 660.923593 -265.231037 
L 663.570247 -265.343828 
L 666.2169 -265.429706 
L 668.863553 -265.504427 
L 671.510207 -265.558002 
L 674.15686 -265.670751 
L 676.803513 -265.742129 
L 679.450167 -265.814593 
L 682.09682 -265.937831 
L 684.743473 -265.997299 
L 687.390127 -266.117654 
L 690.03678 -266.180047 
L 692.683433 -266.265006 
L 695.330087 -266.322885 
L 697.97674 -266.382478 
L 700.623393 -266.442613 
L 703.270047 -266.525525 
L 705.9167 -266.597529 
L 708.563353 -266.717007 
L 711.210007 -266.821357 
L 713.85666 -266.896202 
L 716.503313 -266.977568 
L 719.149967 -267.033065 
L 721.79662 -267.070801 
L 724.443273 -267.130979 
L 727.089927 -267.235496 
L 729.73658 -267.286229 
L 732.383233 -267.356562 
L 735.029887 -267.432034 
L 737.67654 -267.506045 
L 740.323193 -267.591923 
L 742.969847 -267.624895 
L 745.6165 -267.730165 
L 748.263153 -267.803799 
L 750.909807 -267.913957 
L 753.55646 -267.976851 
L 756.203113 -268.032432 
L 758.849767 -268.074013 
L 761.49642 -268.185592 
L 764.143073 -268.218732 
L 766.789727 -268.288605 
L 769.43638 -268.352168 
L 772.083033 -268.413014 
L 774.729687 -268.483973 
L 777.37634 -268.545614 
L 780.022993 -268.599063 
L 782.669647 -268.696517 
L 785.3163 -268.762796 
L 787.962953 -268.844705 
L 790.609607 -268.940697 
L 793.25626 -269.016796 
L 795.902913 -269.098036 
L 798.549567 -269.114251 
L 801.19622 -269.175013 
L 803.842873 -269.249901 
L 806.489527 -269.340544 
L 809.13618 -269.401223 
L 811.782833 -269.467544 
L 814.429487 -269.5403 
L 817.07614 -269.617068 
L 819.722793 -269.698392 
L 822.369447 -269.744612 
L 825.0161 -269.806377 
L 827.662753 -269.81532 
L 830.309407 -269.879217 
L 832.95606 -270.012778 
L 835.602713 -270.053774 
L 838.249367 -270.098323 
L 840.89602 -270.187168 
L 843.542673 -270.263226 
L 843.542673 -372.805455 
L 843.542673 -372.805455 
L 840.89602 -372.761157 
L 838.249367 -372.736083 
L 835.602713 -372.665959 
L 832.95606 -372.62371 
L 830.309407 -372.639256 
L 827.662753 -372.629017 
L 825.0161 -372.546941 
L 822.369447 -372.504316 
L 819.722793 -372.435947 
L 817.07614 -372.399757 
L 814.429487 -372.38442 
L 811.782833 -372.361728 
L 809.13618 -372.335693 
L 806.489527 -372.296577 
L 803.842873 -372.294362 
L 801.19622 -372.267533 
L 798.549567 -372.231761 
L 795.902913 -372.156873 
L 793.25626 -372.12971 
L 790.609607 -372.123065 
L 787.962953 -372.121853 
L 785.3163 -372.095024 
L 782.669647 -372.03844 
L 780.022993 -372.029748 
L 777.37634 -371.978639 
L 774.729687 -371.977677 
L 772.083033 -371.926109 
L 769.43638 -371.883232 
L 766.789727 -371.838893 
L 764.143073 -371.796267 
L 761.49642 -371.736382 
L 758.849767 -371.71649 
L 756.203113 -371.651005 
L 753.55646 -371.621668 
L 750.909807 -371.549413 
L 748.263153 -371.540888 
L 745.6165 -371.504113 
L 742.969847 -371.501313 
L 740.323193 -371.458896 
L 737.67654 -371.419989 
L 735.029887 -371.387351 
L 732.383233 -371.349657 
L 729.73658 -371.277485 
L 727.089927 -371.179195 
L 724.443273 -371.173219 
L 721.79662 -371.123823 
L 719.149967 -371.073633 
L 716.503313 -371.020811 
L 713.85666 -370.985665 
L 711.210007 -370.940156 
L 708.563353 -370.903423 
L 705.9167 -370.902044 
L 703.270047 -370.850684 
L 700.623393 -370.786996 
L 697.97674 -370.729952 
L 695.330087 -370.690252 
L 692.683433 -370.618749 
L 690.03678 -370.581932 
L 687.390127 -370.495468 
L 684.743473 -370.512184 
L 682.09682 -370.433744 
L 679.450167 -370.423589 
L 676.803513 -370.368343 
L 674.15686 -370.316774 
L 671.510207 -370.283676 
L 668.863553 -370.208538 
L 666.2169 -370.146104 
L 663.570247 -370.113048 
L 660.923593 -370.102308 
L 658.27694 -370.028924 
L 655.630287 -369.990561 
L 652.983633 -369.912581 
L 650.33698 -369.889847 
L 647.690327 -369.824362 
L 645.043673 -369.789885 
L 642.39702 -369.748137 
L 639.750367 -369.674963 
L 637.103713 -369.618128 
L 634.45706 -369.585657 
L 631.810407 -369.512859 
L 629.163753 -369.521719 
L 626.5171 -369.469356 
L 623.870447 -369.43304 
L 621.223793 -369.397602 
L 618.57714 -369.369686 
L 615.930487 -369.31841 
L 613.283833 -369.290243 
L 610.63718 -369.243522 
L 607.990527 -369.187147 
L 605.343873 -369.12488 
L 602.69722 -369.127179 
L 600.050567 -369.078661 
L 597.403913 -369.019569 
L 594.75726 -368.927255 
L 592.110607 -368.880701 
L 589.463953 -368.819855 
L 586.8173 -368.759761 
L 584.170647 -368.73991 
L 581.523993 -368.659757 
L 578.87734 -368.623651 
L 576.230687 -368.549473 
L 573.584033 -368.468108 
L 570.93738 -368.407387 
L 568.290727 -368.361878 
L 565.644073 -368.320129 
L 562.99742 -368.253683 
L 560.350767 -368.225015 
L 557.704113 -368.163584 
L 555.05746 -368.146492 
L 552.410807 -368.033826 
L 549.764153 -367.985099 
L 547.1175 -367.956222 
L 544.470847 -367.891949 
L 541.824193 -367.836577 
L 539.17754 -367.752663 
L 536.530887 -367.694533 
L 533.884233 -367.61137 
L 531.23758 -367.504388 
L 528.590927 -367.394146 
L 525.944273 -367.397656 
L 523.29762 -367.330583 
L 520.650967 -367.251851 
L 518.004313 -367.240818 
L 515.35766 -367.131663 
L 512.711007 -367.054058 
L 510.064353 -367.031575 
L 507.4177 -367.004495 
L 504.771047 -366.870308 
L 502.124393 -366.837586 
L 499.47774 -366.771265 
L 496.831087 -366.69433 
L 494.184433 -366.690903 
L 491.53778 -366.588685 
L 488.891127 -366.531265 
L 486.244473 -366.443548 
L 483.59782 -366.37589 
L 480.951167 -366.319975 
L 478.304513 -366.278017 
L 475.65786 -366.241451 
L 473.011207 -366.239027 
L 470.364553 -366.134176 
L 467.7179 -366.058494 
L 465.071247 -365.964174 
L 462.424593 -365.886361 
L 459.77794 -365.821754 
L 457.131287 -365.812351 
L 454.484633 -365.805873 
L 451.83798 -365.66128 
L 449.191327 -365.618988 
L 446.544673 -365.531773 
L 443.89802 -365.39094 
L 441.251367 -365.350696 
L 438.604713 -365.32579 
L 435.95806 -365.230884 
L 433.311407 -365.178605 
L 430.664753 -365.088422 
L 428.0181 -364.961046 
L 425.371447 -364.833921 
L 422.724793 -364.763964 
L 420.07814 -364.659029 
L 417.431487 -364.594756 
L 414.784833 -364.468509 
L 412.13818 -364.491284 
L 409.491527 -364.363657 
L 406.844873 -364.245935 
L 404.19822 -364.15057 
L 401.551567 -364.039994 
L 398.904913 -363.965565 
L 396.25826 -363.871413 
L 393.611607 -363.835348 
L 390.964953 -363.687327 
L 388.3183 -363.558572 
L 385.671647 -363.469518 
L 383.024993 -363.336751 
L 380.37834 -363.284597 
L 377.731687 -363.05776 
L 375.085033 -362.970294 
L 372.43838 -362.861598 
L 369.791727 -362.763976 
L 367.145073 -362.690635 
L 364.49842 -362.608894 
L 361.851767 -362.577091 
L 359.205113 -362.491004 
L 356.55846 -362.287946 
L 353.911807 -362.210509 
L 351.265153 -362.104237 
L 348.6185 -361.977237 
L 345.971847 -361.849861 
L 343.325193 -361.722276 
L 340.67854 -361.619389 
L 338.031887 -361.563934 
L 335.385233 -361.403167 
L 332.73858 -361.232539 
L 330.091927 -361.128231 
L 327.445273 -361.090076 
L 324.79862 -360.898009 
L 322.151967 -360.714467 
L 319.505313 -360.56511 
L 316.85866 -360.425322 
L 314.212007 -360.334721 
L 311.565353 -360.29711 
L 308.9187 -360.150344 
L 306.272047 -359.997476 
L 303.625393 -359.894254 
L 300.97874 -359.818029 
L 298.332087 -359.69688 
L 295.685433 -359.536573 
L 293.03878 -359.495285 
L 290.392127 -359.294484 
L 287.745473 -359.075379 
L 285.09882 -358.895598 
L 282.452167 -358.652589 
L 279.805513 -358.574399 
L 277.15886 -358.420403 
L 274.512207 -358.210575 
L 271.865553 -358.012156 
L 269.2189 -357.793553 
L 266.572247 -357.591874 
L 263.925593 -357.365288 
L 261.27894 -357.15755 
L 258.632287 -356.924821 
L 255.985633 -356.832507 
L 253.33898 -356.613987 
L 250.692327 -356.378249 
L 248.045673 -356.163699 
L 245.39902 -355.97042 
L 242.752367 -355.844799 
L 240.105713 -355.61136 
L 237.45906 -355.419293 
L 234.812407 -355.272192 
L 232.165753 -355.057559 
L 229.5191 -354.856089 
L 226.872447 -354.530586 
L 224.225793 -354.217077 
L 221.57914 -353.923711 
L 218.932487 -353.834531 
L 216.285833 -353.506187 
L 213.63918 -353.278264 
L 210.992527 -353.096352 
L 208.345873 -352.822585 
L 205.69922 -352.584466 
L 203.052567 -352.265148 
L 200.405913 -351.997525 
L 197.75926 -351.679502 
L 195.112607 -351.383713 
L 192.465953 -351.044294 
L 189.8193 -350.967442 
L 187.172647 -350.745704 
L 184.525993 -350.20586 
L 181.87934 -349.868197 
L 179.232687 -349.712487 
L 176.586033 -349.255095 
L 173.93938 -348.994116 
L 171.292727 -348.676554 
L 168.646073 -348.355564 
L 165.99942 -348.031984 
L 163.352767 -347.624322 
L 160.706113 -347.322807 
L 158.05946 -346.987735 
L 155.412807 -346.654877 
L 152.766153 -346.232589 
L 150.1195 -345.833327 
L 147.472847 -345.556259 
L 144.826193 -345.084282 
L 142.17954 -344.609965 
L 139.532887 -344.380454 
L 136.886233 -344.040743 
L 134.23958 -343.651134 
L 131.592927 -343.096246 
L 128.946273 -342.286271 
L 126.29962 -341.790098 
L 123.652967 -341.289286 
L 121.006313 -340.715551 
L 118.35966 -340.200113 
L 115.713007 -339.718859 
L 113.066353 -338.87353 
L 110.4197 -338.205474 
L 107.773047 -337.438376 
L 105.126393 -336.960131 
L 102.47974 -336.414604 
L 99.833087 -335.738023 
L 97.186433 -335.013216 
L 94.53978 -334.341233 
L 91.893127 -333.543502 
L 89.246473 -333.170317 
L 86.59982 -331.964967 
L 83.953167 -331.031963 
L 81.306513 -330.307198 
L 78.65986 -329.05287 
L 76.013207 -327.667071 
L 73.366553 -326.655501 
L 70.7199 -325.326912 
L 68.073247 -323.832124 
L 65.426593 -321.959512 
L 62.77994 -320.039343 
L 60.133287 -316.606709 
L 57.486633 -312.532849 
L 54.83998 -306.830515 
L 52.193327 -305.910465 
z
" style="stroke: #0000ff; stroke-opacity: 0.2"/>
    </defs>
    <g clip-path="url(#p146b6d7b23)">
     <use xlink:href="#mda508d74eb" x="0" y="432" style="fill: #0000ff; fill-opacity: 0.2; stroke: #0000ff; stroke-opacity: 0.2"/>
    </g>
   </g>
   <g id="matplotlib.axis_1">
    <g id="xtick_1">
     <g id="line2d_1">
      <defs>
       <path id="m5d47e3422c" d="M 0 0 
L 0 3.5 
" style="stroke: #000000; stroke-width: 0.8"/>
      </defs>
      <g>
       <use xlink:href="#m5d47e3422c" x="181.87934" y="390.04" style="stroke: #000000; stroke-width: 0.8"/>
      </g>
     </g>
     <g id="text_1">
      <!-- 50 -->
      <g transform="translate(175.51684 404.638438) scale(0.1 -0.1)">
       <defs>
        <path id="DejaVuSans-35" d="M 691 4666 
L 3169 4666 
L 3169 4134 
L 1269 4134 
L 1269 2991 
Q 1406 3038 1543 3061 
Q 1681 3084 1819 3084 
Q 2600 3084 3056 2656 
Q 3513 2228 3513 1497 
Q 3513 744 3044 326 
Q 2575 -91 1722 -91 
Q 1428 -91 1123 -41 
Q 819 9 494 109 
L 494 744 
Q 775 591 1075 516 
Q 1375 441 1709 441 
Q 2250 441 2565 725 
Q 2881 1009 2881 1497 
Q 2881 1984 2565 2268 
Q 2250 2553 1709 2553 
Q 1456 2553 1204 2497 
Q 953 2441 691 2322 
L 691 4666 
z
" transform="scale(0.015625)"/>
        <path id="DejaVuSans-30" d="M 2034 4250 
Q 1547 4250 1301 3770 
Q 1056 3291 1056 2328 
Q 1056 1369 1301 889 
Q 1547 409 2034 409 
Q 2525 409 2770 889 
Q 3016 1369 3016 2328 
Q 3016 3291 2770 3770 
Q 2525 4250 2034 4250 
z
M 2034 4750 
Q 2819 4750 3233 4129 
Q 3647 3509 3647 2328 
Q 3647 1150 3233 529 
Q 2819 -91 2034 -91 
Q 1250 -91 836 529 
Q 422 1150 422 2328 
Q 422 3509 836 4129 
Q 1250 4750 2034 4750 
z
" transform="scale(0.015625)"/>
       </defs>
       <use xlink:href="#DejaVuSans-35"/>
       <use xlink:href="#DejaVuSans-30" transform="translate(63.623047 0)"/>
      </g>
     </g>
    </g>
    <g id="xtick_2">
     <g id="line2d_2">
      <g>
       <use xlink:href="#m5d47e3422c" x="314.212007" y="390.04" style="stroke: #000000; stroke-width: 0.8"/>
      </g>
     </g>
     <g id="text_2">
      <!-- 100 -->
      <g transform="translate(304.668257 404.638438) scale(0.1 -0.1)">
       <defs>
        <path id="DejaVuSans-31" d="M 794 531 
L 1825 531 
L 1825 4091 
L 703 3866 
L 703 4441 
L 1819 4666 
L 2450 4666 
L 2450 531 
L 3481 531 
L 3481 0 
L 794 0 
L 794 531 
z
" transform="scale(0.015625)"/>
       </defs>
       <use xlink:href="#DejaVuSans-31"/>
       <use xlink:href="#DejaVuSans-30" transform="translate(63.623047 0)"/>
       <use xlink:href="#DejaVuSans-30" transform="translate(127.246094 0)"/>
      </g>
     </g>
    </g>
    <g id="xtick_3">
     <g id="line2d_3">
      <g>
       <use xlink:href="#m5d47e3422c" x="446.544673" y="390.04" style="stroke: #000000; stroke-width: 0.8"/>
      </g>
     </g>
     <g id="text_3">
      <!-- 150 -->
      <g transform="translate(437.000923 404.638438) scale(0.1 -0.1)">
       <use xlink:href="#DejaVuSans-31"/>
       <use xlink:href="#DejaVuSans-35" transform="translate(63.623047 0)"/>
       <use xlink:href="#DejaVuSans-30" transform="translate(127.246094 0)"/>
      </g>
     </g>
    </g>
    <g id="xtick_4">
     <g id="line2d_4">
      <g>
       <use xlink:href="#m5d47e3422c" x="578.87734" y="390.04" style="stroke: #000000; stroke-width: 0.8"/>
      </g>
     </g>
     <g id="text_4">
      <!-- 200 -->
      <g transform="translate(569.33359 404.638438) scale(0.1 -0.1)">
       <defs>
        <path id="DejaVuSans-32" d="M 1228 531 
L 3431 531 
L 3431 0 
L 469 0 
L 469 531 
Q 828 903 1448 1529 
Q 2069 2156 2228 2338 
Q 2531 2678 2651 2914 
Q 2772 3150 2772 3378 
Q 2772 3750 2511 3984 
Q 2250 4219 1831 4219 
Q 1534 4219 1204 4116 
Q 875 4013 500 3803 
L 500 4441 
Q 881 4594 1212 4672 
Q 1544 4750 1819 4750 
Q 2544 4750 2975 4387 
Q 3406 4025 3406 3419 
Q 3406 3131 3298 2873 
Q 3191 2616 2906 2266 
Q 2828 2175 2409 1742 
Q 1991 1309 1228 531 
z
" transform="scale(0.015625)"/>
       </defs>
       <use xlink:href="#DejaVuSans-32"/>
       <use xlink:href="#DejaVuSans-30" transform="translate(63.623047 0)"/>
       <use xlink:href="#DejaVuSans-30" transform="translate(127.246094 0)"/>
      </g>
     </g>
    </g>
    <g id="xtick_5">
     <g id="line2d_5">
      <g>
       <use xlink:href="#m5d47e3422c" x="711.210007" y="390.04" style="stroke: #000000; stroke-width: 0.8"/>
      </g>
     </g>
     <g id="text_5">
      <!-- 250 -->
      <g transform="translate(701.666257 404.638438) scale(0.1 -0.1)">
       <use xlink:href="#DejaVuSans-32"/>
       <use xlink:href="#DejaVuSans-35" transform="translate(63.623047 0)"/>
       <use xlink:href="#DejaVuSans-30" transform="translate(127.246094 0)"/>
      </g>
     </g>
    </g>
    <g id="xtick_6">
     <g id="line2d_6">
      <g>
       <use xlink:href="#m5d47e3422c" x="843.542673" y="390.04" style="stroke: #000000; stroke-width: 0.8"/>
      </g>
     </g>
     <g id="text_6">
      <!-- 300 -->
      <g transform="translate(833.998923 404.638438) scale(0.1 -0.1)">
       <defs>
        <path id="DejaVuSans-33" d="M 2597 2516 
Q 3050 2419 3304 2112 
Q 3559 1806 3559 1356 
Q 3559 666 3084 287 
Q 2609 -91 1734 -91 
Q 1441 -91 1130 -33 
Q 819 25 488 141 
L 488 750 
Q 750 597 1062 519 
Q 1375 441 1716 441 
Q 2309 441 2620 675 
Q 2931 909 2931 1356 
Q 2931 1769 2642 2001 
Q 2353 2234 1838 2234 
L 1294 2234 
L 1294 2753 
L 1863 2753 
Q 2328 2753 2575 2939 
Q 2822 3125 2822 3475 
Q 2822 3834 2567 4026 
Q 2313 4219 1838 4219 
Q 1578 4219 1281 4162 
Q 984 4106 628 3988 
L 628 4550 
Q 988 4650 1302 4700 
Q 1616 4750 1894 4750 
Q 2613 4750 3031 4423 
Q 3450 4097 3450 3541 
Q 3450 3153 3228 2886 
Q 3006 2619 2597 2516 
z
" transform="scale(0.015625)"/>
       </defs>
       <use xlink:href="#DejaVuSans-33"/>
       <use xlink:href="#DejaVuSans-30" transform="translate(63.623047 0)"/>
       <use xlink:href="#DejaVuSans-30" transform="translate(127.246094 0)"/>
      </g>
     </g>
    </g>
    <g id="text_7">
     <!-- Step -->
     <g transform="translate(436.482844 418.316562) scale(0.1 -0.1)">
      <defs>
       <path id="DejaVuSans-53" d="M 3425 4513 
L 3425 3897 
Q 3066 4069 2747 4153 
Q 2428 4238 2131 4238 
Q 1616 4238 1336 4038 
Q 1056 3838 1056 3469 
Q 1056 3159 1242 3001 
Q 1428 2844 1947 2747 
L 2328 2669 
Q 3034 2534 3370 2195 
Q 3706 1856 3706 1288 
Q 3706 609 3251 259 
Q 2797 -91 1919 -91 
Q 1588 -91 1214 -16 
Q 841 59 441 206 
L 441 856 
Q 825 641 1194 531 
Q 1563 422 1919 422 
Q 2459 422 2753 634 
Q 3047 847 3047 1241 
Q 3047 1584 2836 1778 
Q 2625 1972 2144 2069 
L 1759 2144 
Q 1053 2284 737 2584 
Q 422 2884 422 3419 
Q 422 4038 858 4394 
Q 1294 4750 2059 4750 
Q 2388 4750 2728 4690 
Q 3069 4631 3425 4513 
z
" transform="scale(0.015625)"/>
       <path id="DejaVuSans-74" d="M 1172 4494 
L 1172 3500 
L 2356 3500 
L 2356 3053 
L 1172 3053 
L 1172 1153 
Q 1172 725 1289 603 
Q 1406 481 1766 481 
L 2356 481 
L 2356 0 
L 1766 0 
Q 1100 0 847 248 
Q 594 497 594 1153 
L 594 3053 
L 172 3053 
L 172 3500 
L 594 3500 
L 594 4494 
L 1172 4494 
z
" transform="scale(0.015625)"/>
       <path id="DejaVuSans-65" d="M 3597 1894 
L 3597 1613 
L 953 1613 
Q 991 1019 1311 708 
Q 1631 397 2203 397 
Q 2534 397 2845 478 
Q 3156 559 3463 722 
L 3463 178 
Q 3153 47 2828 -22 
Q 2503 -91 2169 -91 
Q 1331 -91 842 396 
Q 353 884 353 1716 
Q 353 2575 817 3079 
Q 1281 3584 2069 3584 
Q 2775 3584 3186 3129 
Q 3597 2675 3597 1894 
z
M 3022 2063 
Q 3016 2534 2758 2815 
Q 2500 3097 2075 3097 
Q 1594 3097 1305 2825 
Q 1016 2553 972 2059 
L 3022 2063 
z
" transform="scale(0.015625)"/>
       <path id="DejaVuSans-70" d="M 1159 525 
L 1159 -1331 
L 581 -1331 
L 581 3500 
L 1159 3500 
L 1159 2969 
Q 1341 3281 1617 3432 
Q 1894 3584 2278 3584 
Q 2916 3584 3314 3078 
Q 3713 2572 3713 1747 
Q 3713 922 3314 415 
Q 2916 -91 2278 -91 
Q 1894 -91 1617 61 
Q 1341 213 1159 525 
z
M 3116 1747 
Q 3116 2381 2855 2742 
Q 2594 3103 2138 3103 
Q 1681 3103 1420 2742 
Q 1159 2381 1159 1747 
Q 1159 1113 1420 752 
Q 1681 391 2138 391 
Q 2594 391 2855 752 
Q 3116 1113 3116 1747 
z
" transform="scale(0.015625)"/>
      </defs>
      <use xlink:href="#DejaVuSans-53"/>
      <use xlink:href="#DejaVuSans-74" transform="translate(63.476562 0)"/>
      <use xlink:href="#DejaVuSans-65" transform="translate(102.685547 0)"/>
      <use xlink:href="#DejaVuSans-70" transform="translate(164.208984 0)"/>
     </g>
    </g>
   </g>
   <g id="matplotlib.axis_2">
    <g id="ytick_1">
     <g id="line2d_7">
      <defs>
       <path id="m0201a7f9fd" d="M 0 0 
L -3.5 0 
" style="stroke: #000000; stroke-width: 0.8"/>
      </defs>
      <g>
       <use xlink:href="#m0201a7f9fd" x="50.87" y="334.69497" style="stroke: #000000; stroke-width: 0.8"/>
      </g>
     </g>
     <g id="text_8">
      <!-- 300 -->
      <g transform="translate(24.7825 338.494189) scale(0.1 -0.1)">
       <use xlink:href="#DejaVuSans-33"/>
       <use xlink:href="#DejaVuSans-30" transform="translate(63.623047 0)"/>
       <use xlink:href="#DejaVuSans-30" transform="translate(127.246094 0)"/>
      </g>
     </g>
    </g>
    <g id="ytick_2">
     <g id="line2d_8">
      <g>
       <use xlink:href="#m0201a7f9fd" x="50.87" y="266.226168" style="stroke: #000000; stroke-width: 0.8"/>
      </g>
     </g>
     <g id="text_9">
      <!-- 400 -->
      <g transform="translate(24.7825 270.025386) scale(0.1 -0.1)">
       <defs>
        <path id="DejaVuSans-34" d="M 2419 4116 
L 825 1625 
L 2419 1625 
L 2419 4116 
z
M 2253 4666 
L 3047 4666 
L 3047 1625 
L 3713 1625 
L 3713 1100 
L 3047 1100 
L 3047 0 
L 2419 0 
L 2419 1100 
L 313 1100 
L 313 1709 
L 2253 4666 
z
" transform="scale(0.015625)"/>
       </defs>
       <use xlink:href="#DejaVuSans-34"/>
       <use xlink:href="#DejaVuSans-30" transform="translate(63.623047 0)"/>
       <use xlink:href="#DejaVuSans-30" transform="translate(127.246094 0)"/>
      </g>
     </g>
    </g>
    <g id="ytick_3">
     <g id="line2d_9">
      <g>
       <use xlink:href="#m0201a7f9fd" x="50.87" y="197.757365" style="stroke: #000000; stroke-width: 0.8"/>
      </g>
     </g>
     <g id="text_10">
      <!-- 500 -->
      <g transform="translate(24.7825 201.556584) scale(0.1 -0.1)">
       <use xlink:href="#DejaVuSans-35"/>
       <use xlink:href="#DejaVuSans-30" transform="translate(63.623047 0)"/>
       <use xlink:href="#DejaVuSans-30" transform="translate(127.246094 0)"/>
      </g>
     </g>
    </g>
    <g id="ytick_4">
     <g id="line2d_10">
      <g>
       <use xlink:href="#m0201a7f9fd" x="50.87" y="129.288563" style="stroke: #000000; stroke-width: 0.8"/>
      </g>
     </g>
     <g id="text_11">
      <!-- 600 -->
      <g transform="translate(24.7825 133.087781) scale(0.1 -0.1)">
       <defs>
        <path id="DejaVuSans-36" d="M 2113 2584 
Q 1688 2584 1439 2293 
Q 1191 2003 1191 1497 
Q 1191 994 1439 701 
Q 1688 409 2113 409 
Q 2538 409 2786 701 
Q 3034 994 3034 1497 
Q 3034 2003 2786 2293 
Q 2538 2584 2113 2584 
z
M 3366 4563 
L 3366 3988 
Q 3128 4100 2886 4159 
Q 2644 4219 2406 4219 
Q 1781 4219 1451 3797 
Q 1122 3375 1075 2522 
Q 1259 2794 1537 2939 
Q 1816 3084 2150 3084 
Q 2853 3084 3261 2657 
Q 3669 2231 3669 1497 
Q 3669 778 3244 343 
Q 2819 -91 2113 -91 
Q 1303 -91 875 529 
Q 447 1150 447 2328 
Q 447 3434 972 4092 
Q 1497 4750 2381 4750 
Q 2619 4750 2861 4703 
Q 3103 4656 3366 4563 
z
" transform="scale(0.015625)"/>
       </defs>
       <use xlink:href="#DejaVuSans-36"/>
       <use xlink:href="#DejaVuSans-30" transform="translate(63.623047 0)"/>
       <use xlink:href="#DejaVuSans-30" transform="translate(127.246094 0)"/>
      </g>
     </g>
    </g>
    <g id="ytick_5">
     <g id="line2d_11">
      <g>
       <use xlink:href="#m0201a7f9fd" x="50.87" y="60.81976" style="stroke: #000000; stroke-width: 0.8"/>
      </g>
     </g>
     <g id="text_12">
      <!-- 700 -->
      <g transform="translate(24.7825 64.618979) scale(0.1 -0.1)">
       <defs>
        <path id="DejaVuSans-37" d="M 525 4666 
L 3525 4666 
L 3525 4397 
L 1831 0 
L 1172 0 
L 2766 4134 
L 525 4134 
L 525 4666 
z
" transform="scale(0.015625)"/>
       </defs>
       <use xlink:href="#DejaVuSans-37"/>
       <use xlink:href="#DejaVuSans-30" transform="translate(63.623047 0)"/>
       <use xlink:href="#DejaVuSans-30" transform="translate(127.246094 0)"/>
      </g>
     </g>
    </g>
    <g id="text_13">
     <!-- Profit -->
     <g transform="translate(18.702813 229.779063) rotate(-90) scale(0.1 -0.1)">
      <defs>
       <path id="DejaVuSans-50" d="M 1259 4147 
L 1259 2394 
L 2053 2394 
Q 2494 2394 2734 2622 
Q 2975 2850 2975 3272 
Q 2975 3691 2734 3919 
Q 2494 4147 2053 4147 
L 1259 4147 
z
M 628 4666 
L 2053 4666 
Q 2838 4666 3239 4311 
Q 3641 3956 3641 3272 
Q 3641 2581 3239 2228 
Q 2838 1875 2053 1875 
L 1259 1875 
L 1259 0 
L 628 0 
L 628 4666 
z
" transform="scale(0.015625)"/>
       <path id="DejaVuSans-72" d="M 2631 2963 
Q 2534 3019 2420 3045 
Q 2306 3072 2169 3072 
Q 1681 3072 1420 2755 
Q 1159 2438 1159 1844 
L 1159 0 
L 581 0 
L 581 3500 
L 1159 3500 
L 1159 2956 
Q 1341 3275 1631 3429 
Q 1922 3584 2338 3584 
Q 2397 3584 2469 3576 
Q 2541 3569 2628 3553 
L 2631 2963 
z
" transform="scale(0.015625)"/>
       <path id="DejaVuSans-6f" d="M 1959 3097 
Q 1497 3097 1228 2736 
Q 959 2375 959 1747 
Q 959 1119 1226 758 
Q 1494 397 1959 397 
Q 2419 397 2687 759 
Q 2956 1122 2956 1747 
Q 2956 2369 2687 2733 
Q 2419 3097 1959 3097 
z
M 1959 3584 
Q 2709 3584 3137 3096 
Q 3566 2609 3566 1747 
Q 3566 888 3137 398 
Q 2709 -91 1959 -91 
Q 1206 -91 779 398 
Q 353 888 353 1747 
Q 353 2609 779 3096 
Q 1206 3584 1959 3584 
z
" transform="scale(0.015625)"/>
       <path id="DejaVuSans-66" d="M 2375 4863 
L 2375 4384 
L 1825 4384 
Q 1516 4384 1395 4259 
Q 1275 4134 1275 3809 
L 1275 3500 
L 2222 3500 
L 2222 3053 
L 1275 3053 
L 1275 0 
L 697 0 
L 697 3053 
L 147 3053 
L 147 3500 
L 697 3500 
L 697 3744 
Q 697 4328 969 4595 
Q 1241 4863 1831 4863 
L 2375 4863 
z
" transform="scale(0.015625)"/>
       <path id="DejaVuSans-69" d="M 603 3500 
L 1178 3500 
L 1178 0 
L 603 0 
L 603 3500 
z
M 603 4863 
L 1178 4863 
L 1178 4134 
L 603 4134 
L 603 4863 
z
" transform="scale(0.015625)"/>
      </defs>
      <use xlink:href="#DejaVuSans-50"/>
      <use xlink:href="#DejaVuSans-72" transform="translate(58.552734 0)"/>
      <use xlink:href="#DejaVuSans-6f" transform="translate(97.416016 0)"/>
      <use xlink:href="#DejaVuSans-66" transform="translate(158.597656 0)"/>
      <use xlink:href="#DejaVuSans-69" transform="translate(193.802734 0)"/>
      <use xlink:href="#DejaVuSans-74" transform="translate(221.585938 0)"/>
     </g>
    </g>
   </g>
   <g id="line2d_12">
    <path d="M 52.193327 250.187484 
L 54.83998 249.076245 
L 57.486633 237.694937 
L 60.133287 228.182291 
L 62.77994 220.131335 
L 65.426593 213.430344 
L 68.073247 207.748465 
L 70.7199 202.929363 
L 73.366553 198.824453 
L 76.013207 195.037857 
L 78.65986 191.489528 
L 81.306513 188.483695 
L 83.953167 185.750251 
L 89.246473 180.947572 
L 91.893127 178.810053 
L 97.186433 174.913633 
L 102.47974 171.667801 
L 107.773047 168.750271 
L 113.066353 165.989955 
L 123.652967 161.392131 
L 131.592927 158.205139 
L 142.17954 154.709403 
L 147.472847 153.211689 
L 152.766153 151.89944 
L 160.706113 150.048559 
L 165.99942 148.825992 
L 179.232687 146.105585 
L 187.172647 144.517397 
L 213.63918 140.059235 
L 229.5191 137.890081 
L 240.105713 136.613479 
L 269.2189 133.420929 
L 277.15886 132.630846 
L 287.745473 131.712552 
L 300.97874 130.623754 
L 311.565353 129.734086 
L 322.151967 128.852692 
L 343.325193 127.260784 
L 380.37834 124.918662 
L 412.13818 123.185127 
L 425.371447 122.48155 
L 462.424593 120.726536 
L 486.244473 119.722781 
L 510.064353 118.778033 
L 555.05746 117.311788 
L 578.87734 116.543352 
L 592.110607 116.155541 
L 642.39702 114.770786 
L 708.563353 113.189785 
L 735.029887 112.590307 
L 843.542673 110.46566 
L 843.542673 110.46566 
" clip-path="url(#p146b6d7b23)" style="fill: none; stroke: #0000ff; stroke-width: 1.5; stroke-linecap: square"/>
   </g>
   <g id="patch_3">
    <path d="M 50.87 390.04 
L 50.87 43.44 
" style="fill: none; stroke: #000000; stroke-width: 0.8; stroke-linejoin: miter; stroke-linecap: square"/>
   </g>
   <g id="patch_4">
    <path d="M 844.866 390.04 
L 844.866 43.44 
" style="fill: none; stroke: #000000; stroke-width: 0.8; stroke-linejoin: miter; stroke-linecap: square"/>
   </g>
   <g id="patch_5">
    <path d="M 50.87 390.04 
L 844.866 390.04 
" style="fill: none; stroke: #000000; stroke-width: 0.8; stroke-linejoin: miter; stroke-linecap: square"/>
   </g>
   <g id="patch_6">
    <path d="M 50.87 43.44 
L 844.866 43.44 
" style="fill: none; stroke: #000000; stroke-width: 0.8; stroke-linejoin: miter; stroke-linecap: square"/>
   </g>
   <g id="text_14">
    <!-- Mean profit per step with confidence interval per simulation step -->
    <g transform="translate(220.284875 21.763062) scale(0.14 -0.14)">
     <defs>
      <path id="DejaVuSans-4d" d="M 628 4666 
L 1569 4666 
L 2759 1491 
L 3956 4666 
L 4897 4666 
L 4897 0 
L 4281 0 
L 4281 4097 
L 3078 897 
L 2444 897 
L 1241 4097 
L 1241 0 
L 628 0 
L 628 4666 
z
" transform="scale(0.015625)"/>
      <path id="DejaVuSans-61" d="M 2194 1759 
Q 1497 1759 1228 1600 
Q 959 1441 959 1056 
Q 959 750 1161 570 
Q 1363 391 1709 391 
Q 2188 391 2477 730 
Q 2766 1069 2766 1631 
L 2766 1759 
L 2194 1759 
z
M 3341 1997 
L 3341 0 
L 2766 0 
L 2766 531 
Q 2569 213 2275 61 
Q 1981 -91 1556 -91 
Q 1019 -91 701 211 
Q 384 513 384 1019 
Q 384 1609 779 1909 
Q 1175 2209 1959 2209 
L 2766 2209 
L 2766 2266 
Q 2766 2663 2505 2880 
Q 2244 3097 1772 3097 
Q 1472 3097 1187 3025 
Q 903 2953 641 2809 
L 641 3341 
Q 956 3463 1253 3523 
Q 1550 3584 1831 3584 
Q 2591 3584 2966 3190 
Q 3341 2797 3341 1997 
z
" transform="scale(0.015625)"/>
      <path id="DejaVuSans-6e" d="M 3513 2113 
L 3513 0 
L 2938 0 
L 2938 2094 
Q 2938 2591 2744 2837 
Q 2550 3084 2163 3084 
Q 1697 3084 1428 2787 
Q 1159 2491 1159 1978 
L 1159 0 
L 581 0 
L 581 3500 
L 1159 3500 
L 1159 2956 
Q 1366 3272 1645 3428 
Q 1925 3584 2291 3584 
Q 2894 3584 3203 3211 
Q 3513 2838 3513 2113 
z
" transform="scale(0.015625)"/>
      <path id="DejaVuSans-20" transform="scale(0.015625)"/>
      <path id="DejaVuSans-73" d="M 2834 3397 
L 2834 2853 
Q 2591 2978 2328 3040 
Q 2066 3103 1784 3103 
Q 1356 3103 1142 2972 
Q 928 2841 928 2578 
Q 928 2378 1081 2264 
Q 1234 2150 1697 2047 
L 1894 2003 
Q 2506 1872 2764 1633 
Q 3022 1394 3022 966 
Q 3022 478 2636 193 
Q 2250 -91 1575 -91 
Q 1294 -91 989 -36 
Q 684 19 347 128 
L 347 722 
Q 666 556 975 473 
Q 1284 391 1588 391 
Q 1994 391 2212 530 
Q 2431 669 2431 922 
Q 2431 1156 2273 1281 
Q 2116 1406 1581 1522 
L 1381 1569 
Q 847 1681 609 1914 
Q 372 2147 372 2553 
Q 372 3047 722 3315 
Q 1072 3584 1716 3584 
Q 2034 3584 2315 3537 
Q 2597 3491 2834 3397 
z
" transform="scale(0.015625)"/>
      <path id="DejaVuSans-77" d="M 269 3500 
L 844 3500 
L 1563 769 
L 2278 3500 
L 2956 3500 
L 3675 769 
L 4391 3500 
L 4966 3500 
L 4050 0 
L 3372 0 
L 2619 2869 
L 1863 0 
L 1184 0 
L 269 3500 
z
" transform="scale(0.015625)"/>
      <path id="DejaVuSans-68" d="M 3513 2113 
L 3513 0 
L 2938 0 
L 2938 2094 
Q 2938 2591 2744 2837 
Q 2550 3084 2163 3084 
Q 1697 3084 1428 2787 
Q 1159 2491 1159 1978 
L 1159 0 
L 581 0 
L 581 4863 
L 1159 4863 
L 1159 2956 
Q 1366 3272 1645 3428 
Q 1925 3584 2291 3584 
Q 2894 3584 3203 3211 
Q 3513 2838 3513 2113 
z
" transform="scale(0.015625)"/>
      <path id="DejaVuSans-63" d="M 3122 3366 
L 3122 2828 
Q 2878 2963 2633 3030 
Q 2388 3097 2138 3097 
Q 1578 3097 1268 2742 
Q 959 2388 959 1747 
Q 959 1106 1268 751 
Q 1578 397 2138 397 
Q 2388 397 2633 464 
Q 2878 531 3122 666 
L 3122 134 
Q 2881 22 2623 -34 
Q 2366 -91 2075 -91 
Q 1284 -91 818 406 
Q 353 903 353 1747 
Q 353 2603 823 3093 
Q 1294 3584 2113 3584 
Q 2378 3584 2631 3529 
Q 2884 3475 3122 3366 
z
" transform="scale(0.015625)"/>
      <path id="DejaVuSans-64" d="M 2906 2969 
L 2906 4863 
L 3481 4863 
L 3481 0 
L 2906 0 
L 2906 525 
Q 2725 213 2448 61 
Q 2172 -91 1784 -91 
Q 1150 -91 751 415 
Q 353 922 353 1747 
Q 353 2572 751 3078 
Q 1150 3584 1784 3584 
Q 2172 3584 2448 3432 
Q 2725 3281 2906 2969 
z
M 947 1747 
Q 947 1113 1208 752 
Q 1469 391 1925 391 
Q 2381 391 2643 752 
Q 2906 1113 2906 1747 
Q 2906 2381 2643 2742 
Q 2381 3103 1925 3103 
Q 1469 3103 1208 2742 
Q 947 2381 947 1747 
z
" transform="scale(0.015625)"/>
      <path id="DejaVuSans-76" d="M 191 3500 
L 800 3500 
L 1894 563 
L 2988 3500 
L 3597 3500 
L 2284 0 
L 1503 0 
L 191 3500 
z
" transform="scale(0.015625)"/>
      <path id="DejaVuSans-6c" d="M 603 4863 
L 1178 4863 
L 1178 0 
L 603 0 
L 603 4863 
z
" transform="scale(0.015625)"/>
      <path id="DejaVuSans-6d" d="M 3328 2828 
Q 3544 3216 3844 3400 
Q 4144 3584 4550 3584 
Q 5097 3584 5394 3201 
Q 5691 2819 5691 2113 
L 5691 0 
L 5113 0 
L 5113 2094 
Q 5113 2597 4934 2840 
Q 4756 3084 4391 3084 
Q 3944 3084 3684 2787 
Q 3425 2491 3425 1978 
L 3425 0 
L 2847 0 
L 2847 2094 
Q 2847 2600 2669 2842 
Q 2491 3084 2119 3084 
Q 1678 3084 1418 2786 
Q 1159 2488 1159 1978 
L 1159 0 
L 581 0 
L 581 3500 
L 1159 3500 
L 1159 2956 
Q 1356 3278 1631 3431 
Q 1906 3584 2284 3584 
Q 2666 3584 2933 3390 
Q 3200 3197 3328 2828 
z
" transform="scale(0.015625)"/>
      <path id="DejaVuSans-75" d="M 544 1381 
L 544 3500 
L 1119 3500 
L 1119 1403 
Q 1119 906 1312 657 
Q 1506 409 1894 409 
Q 2359 409 2629 706 
Q 2900 1003 2900 1516 
L 2900 3500 
L 3475 3500 
L 3475 0 
L 2900 0 
L 2900 538 
Q 2691 219 2414 64 
Q 2138 -91 1772 -91 
Q 1169 -91 856 284 
Q 544 659 544 1381 
z
M 1991 3584 
L 1991 3584 
z
" transform="scale(0.015625)"/>
     </defs>
     <use xlink:href="#DejaVuSans-4d"/>
     <use xlink:href="#DejaVuSans-65" transform="translate(86.279297 0)"/>
     <use xlink:href="#DejaVuSans-61" transform="translate(147.802734 0)"/>
     <use xlink:href="#DejaVuSans-6e" transform="translate(209.082031 0)"/>
     <use xlink:href="#DejaVuSans-20" transform="translate(272.460938 0)"/>
     <use xlink:href="#DejaVuSans-70" transform="translate(304.248047 0)"/>
     <use xlink:href="#DejaVuSans-72" transform="translate(367.724609 0)"/>
     <use xlink:href="#DejaVuSans-6f" transform="translate(406.587891 0)"/>
     <use xlink:href="#DejaVuSans-66" transform="translate(467.769531 0)"/>
     <use xlink:href="#DejaVuSans-69" transform="translate(502.974609 0)"/>
     <use xlink:href="#DejaVuSans-74" transform="translate(530.757812 0)"/>
     <use xlink:href="#DejaVuSans-20" transform="translate(569.966797 0)"/>
     <use xlink:href="#DejaVuSans-70" transform="translate(601.753906 0)"/>
     <use xlink:href="#DejaVuSans-65" transform="translate(665.230469 0)"/>
     <use xlink:href="#DejaVuSans-72" transform="translate(726.753906 0)"/>
     <use xlink:href="#DejaVuSans-20" transform="translate(767.867188 0)"/>
     <use xlink:href="#DejaVuSans-73" transform="translate(799.654297 0)"/>
     <use xlink:href="#DejaVuSans-74" transform="translate(851.753906 0)"/>
     <use xlink:href="#DejaVuSans-65" transform="translate(890.962891 0)"/>
     <use xlink:href="#DejaVuSans-70" transform="translate(952.486328 0)"/>
     <use xlink:href="#DejaVuSans-20" transform="translate(1015.962891 0)"/>
     <use xlink:href="#DejaVuSans-77" transform="translate(1047.75 0)"/>
     <use xlink:href="#DejaVuSans-69" transform="translate(1129.537109 0)"/>
     <use xlink:href="#DejaVuSans-74" transform="translate(1157.320312 0)"/>
     <use xlink:href="#DejaVuSans-68" transform="translate(1196.529297 0)"/>
     <use xlink:href="#DejaVuSans-20" transform="translate(1259.908203 0)"/>
     <use xlink:href="#DejaVuSans-63" transform="translate(1291.695312 0)"/>
     <use xlink:href="#DejaVuSans-6f" transform="translate(1346.675781 0)"/>
     <use xlink:href="#DejaVuSans-6e" transform="translate(1407.857422 0)"/>
     <use xlink:href="#DejaVuSans-66" transform="translate(1471.236328 0)"/>
     <use xlink:href="#DejaVuSans-69" transform="translate(1506.441406 0)"/>
     <use xlink:href="#DejaVuSans-64" transform="translate(1534.224609 0)"/>
     <use xlink:href="#DejaVuSans-65" transform="translate(1597.701172 0)"/>
     <use xlink:href="#DejaVuSans-6e" transform="translate(1659.224609 0)"/>
     <use xlink:href="#DejaVuSans-63" transform="translate(1722.603516 0)"/>
     <use xlink:href="#DejaVuSans-65" transform="translate(1777.583984 0)"/>
     <use xlink:href="#DejaVuSans-20" transform="translate(1839.107422 0)"/>
     <use xlink:href="#DejaVuSans-69" transform="translate(1870.894531 0)"/>
     <use xlink:href="#DejaVuSans-6e" transform="translate(1898.677734 0)"/>
     <use xlink:href="#DejaVuSans-74" transform="translate(1962.056641 0)"/>
     <use xlink:href="#DejaVuSans-65" transform="translate(2001.265625 0)"/>
     <use xlink:href="#DejaVuSans-72" transform="translate(2062.789062 0)"/>
     <use xlink:href="#DejaVuSans-76" transform="translate(2103.902344 0)"/>
     <use xlink:href="#DejaVuSans-61" transform="translate(2163.082031 0)"/>
     <use xlink:href="#DejaVuSans-6c" transform="translate(2224.361328 0)"/>
     <use xlink:href="#DejaVuSans-20" transform="translate(2252.144531 0)"/>
     <use xlink:href="#DejaVuSans-70" transform="translate(2283.931641 0)"/>
     <use xlink:href="#DejaVuSans-65" transform="translate(2347.408203 0)"/>
     <use xlink:href="#DejaVuSans-72" transform="translate(2408.931641 0)"/>
     <use xlink:href="#DejaVuSans-20" transform="translate(2450.044922 0)"/>
     <use xlink:href="#DejaVuSans-73" transform="translate(2481.832031 0)"/>
     <use xlink:href="#DejaVuSans-69" transform="translate(2533.931641 0)"/>
     <use xlink:href="#DejaVuSans-6d" transform="translate(2561.714844 0)"/>
     <use xlink:href="#DejaVuSans-75" transform="translate(2659.126953 0)"/>
     <use xlink:href="#DejaVuSans-6c" transform="translate(2722.505859 0)"/>
     <use xlink:href="#DejaVuSans-61" transform="translate(2750.289062 0)"/>
     <use xlink:href="#DejaVuSans-74" transform="translate(2811.568359 0)"/>
     <use xlink:href="#DejaVuSans-69" transform="translate(2850.777344 0)"/>
     <use xlink:href="#DejaVuSans-6f" transform="translate(2878.560547 0)"/>
     <use xlink:href="#DejaVuSans-6e" transform="translate(2939.742188 0)"/>
     <use xlink:href="#DejaVuSans-20" transform="translate(3003.121094 0)"/>
     <use xlink:href="#DejaVuSans-73" transform="translate(3034.908203 0)"/>
     <use xlink:href="#DejaVuSans-74" transform="translate(3087.007812 0)"/>
     <use xlink:href="#DejaVuSans-65" transform="translate(3126.216797 0)"/>
     <use xlink:href="#DejaVuSans-70" transform="translate(3187.740234 0)"/>
    </g>
    <!-- Base Product: Cocaine, Recipe size: 10, T0: 10.0 -->
    <g transform="translate(278.956906 37.44) scale(0.14 -0.14)">
     <defs>
      <path id="DejaVuSans-42" d="M 1259 2228 
L 1259 519 
L 2272 519 
Q 2781 519 3026 730 
Q 3272 941 3272 1375 
Q 3272 1813 3026 2020 
Q 2781 2228 2272 2228 
L 1259 2228 
z
M 1259 4147 
L 1259 2741 
L 2194 2741 
Q 2656 2741 2882 2914 
Q 3109 3088 3109 3444 
Q 3109 3797 2882 3972 
Q 2656 4147 2194 4147 
L 1259 4147 
z
M 628 4666 
L 2241 4666 
Q 2963 4666 3353 4366 
Q 3744 4066 3744 3513 
Q 3744 3084 3544 2831 
Q 3344 2578 2956 2516 
Q 3422 2416 3680 2098 
Q 3938 1781 3938 1306 
Q 3938 681 3513 340 
Q 3088 0 2303 0 
L 628 0 
L 628 4666 
z
" transform="scale(0.015625)"/>
      <path id="DejaVuSans-3a" d="M 750 794 
L 1409 794 
L 1409 0 
L 750 0 
L 750 794 
z
M 750 3309 
L 1409 3309 
L 1409 2516 
L 750 2516 
L 750 3309 
z
" transform="scale(0.015625)"/>
      <path id="DejaVuSans-43" d="M 4122 4306 
L 4122 3641 
Q 3803 3938 3442 4084 
Q 3081 4231 2675 4231 
Q 1875 4231 1450 3742 
Q 1025 3253 1025 2328 
Q 1025 1406 1450 917 
Q 1875 428 2675 428 
Q 3081 428 3442 575 
Q 3803 722 4122 1019 
L 4122 359 
Q 3791 134 3420 21 
Q 3050 -91 2638 -91 
Q 1578 -91 968 557 
Q 359 1206 359 2328 
Q 359 3453 968 4101 
Q 1578 4750 2638 4750 
Q 3056 4750 3426 4639 
Q 3797 4528 4122 4306 
z
" transform="scale(0.015625)"/>
      <path id="DejaVuSans-2c" d="M 750 794 
L 1409 794 
L 1409 256 
L 897 -744 
L 494 -744 
L 750 256 
L 750 794 
z
" transform="scale(0.015625)"/>
      <path id="DejaVuSans-52" d="M 2841 2188 
Q 3044 2119 3236 1894 
Q 3428 1669 3622 1275 
L 4263 0 
L 3584 0 
L 2988 1197 
Q 2756 1666 2539 1819 
Q 2322 1972 1947 1972 
L 1259 1972 
L 1259 0 
L 628 0 
L 628 4666 
L 2053 4666 
Q 2853 4666 3247 4331 
Q 3641 3997 3641 3322 
Q 3641 2881 3436 2590 
Q 3231 2300 2841 2188 
z
M 1259 4147 
L 1259 2491 
L 2053 2491 
Q 2509 2491 2742 2702 
Q 2975 2913 2975 3322 
Q 2975 3731 2742 3939 
Q 2509 4147 2053 4147 
L 1259 4147 
z
" transform="scale(0.015625)"/>
      <path id="DejaVuSans-7a" d="M 353 3500 
L 3084 3500 
L 3084 2975 
L 922 459 
L 3084 459 
L 3084 0 
L 275 0 
L 275 525 
L 2438 3041 
L 353 3041 
L 353 3500 
z
" transform="scale(0.015625)"/>
      <path id="DejaVuSans-54" d="M -19 4666 
L 3928 4666 
L 3928 4134 
L 2272 4134 
L 2272 0 
L 1638 0 
L 1638 4134 
L -19 4134 
L -19 4666 
z
" transform="scale(0.015625)"/>
      <path id="DejaVuSans-2e" d="M 684 794 
L 1344 794 
L 1344 0 
L 684 0 
L 684 794 
z
" transform="scale(0.015625)"/>
     </defs>
     <use xlink:href="#DejaVuSans-42"/>
     <use xlink:href="#DejaVuSans-61" transform="translate(68.603516 0)"/>
     <use xlink:href="#DejaVuSans-73" transform="translate(129.882812 0)"/>
     <use xlink:href="#DejaVuSans-65" transform="translate(181.982422 0)"/>
     <use xlink:href="#DejaVuSans-20" transform="translate(243.505859 0)"/>
     <use xlink:href="#DejaVuSans-50" transform="translate(275.292969 0)"/>
     <use xlink:href="#DejaVuSans-72" transform="translate(333.845703 0)"/>
     <use xlink:href="#DejaVuSans-6f" transform="translate(372.708984 0)"/>
     <use xlink:href="#DejaVuSans-64" transform="translate(433.890625 0)"/>
     <use xlink:href="#DejaVuSans-75" transform="translate(497.367188 0)"/>
     <use xlink:href="#DejaVuSans-63" transform="translate(560.746094 0)"/>
     <use xlink:href="#DejaVuSans-74" transform="translate(615.726562 0)"/>
     <use xlink:href="#DejaVuSans-3a" transform="translate(654.935547 0)"/>
     <use xlink:href="#DejaVuSans-20" transform="translate(688.626953 0)"/>
     <use xlink:href="#DejaVuSans-43" transform="translate(720.414062 0)"/>
     <use xlink:href="#DejaVuSans-6f" transform="translate(790.238281 0)"/>
     <use xlink:href="#DejaVuSans-63" transform="translate(851.419922 0)"/>
     <use xlink:href="#DejaVuSans-61" transform="translate(906.400391 0)"/>
     <use xlink:href="#DejaVuSans-69" transform="translate(967.679688 0)"/>
     <use xlink:href="#DejaVuSans-6e" transform="translate(995.462891 0)"/>
     <use xlink:href="#DejaVuSans-65" transform="translate(1058.841797 0)"/>
     <use xlink:href="#DejaVuSans-2c" transform="translate(1120.365234 0)"/>
     <use xlink:href="#DejaVuSans-20" transform="translate(1152.152344 0)"/>
     <use xlink:href="#DejaVuSans-52" transform="translate(1183.939453 0)"/>
     <use xlink:href="#DejaVuSans-65" transform="translate(1248.921875 0)"/>
     <use xlink:href="#DejaVuSans-63" transform="translate(1310.445312 0)"/>
     <use xlink:href="#DejaVuSans-69" transform="translate(1365.425781 0)"/>
     <use xlink:href="#DejaVuSans-70" transform="translate(1393.208984 0)"/>
     <use xlink:href="#DejaVuSans-65" transform="translate(1456.685547 0)"/>
     <use xlink:href="#DejaVuSans-20" transform="translate(1518.208984 0)"/>
     <use xlink:href="#DejaVuSans-73" transform="translate(1549.996094 0)"/>
     <use xlink:href="#DejaVuSans-69" transform="translate(1602.095703 0)"/>
     <use xlink:href="#DejaVuSans-7a" transform="translate(1629.878906 0)"/>
     <use xlink:href="#DejaVuSans-65" transform="translate(1682.369141 0)"/>
     <use xlink:href="#DejaVuSans-3a" transform="translate(1743.892578 0)"/>
     <use xlink:href="#DejaVuSans-20" transform="translate(1777.583984 0)"/>
     <use xlink:href="#DejaVuSans-31" transform="translate(1809.371094 0)"/>
     <use xlink:href="#DejaVuSans-30" transform="translate(1872.994141 0)"/>
     <use xlink:href="#DejaVuSans-2c" transform="translate(1936.617188 0)"/>
     <use xlink:href="#DejaVuSans-20" transform="translate(1968.404297 0)"/>
     <use xlink:href="#DejaVuSans-54" transform="translate(2000.191406 0)"/>
     <use xlink:href="#DejaVuSans-30" transform="translate(2061.275391 0)"/>
     <use xlink:href="#DejaVuSans-3a" transform="translate(2124.898438 0)"/>
     <use xlink:href="#DejaVuSans-20" transform="translate(2158.589844 0)"/>
     <use xlink:href="#DejaVuSans-31" transform="translate(2190.376953 0)"/>
     <use xlink:href="#DejaVuSans-30" transform="translate(2254 0)"/>
     <use xlink:href="#DejaVuSans-2e" transform="translate(2317.623047 0)"/>
     <use xlink:href="#DejaVuSans-30" transform="translate(2349.410156 0)"/>
    </g>
   </g>
  </g>
 </g>
 <defs>
  <clipPath id="p146b6d7b23">
   <rect x="50.87" y="43.44" width="793.996" height="346.6"/>
  </clipPath>
 </defs>
</svg>
