<?xml version="1.0" encoding="utf-8" standalone="no"?>
<!DOCTYPE svg PUBLIC "-//W3C//DTD SVG 1.1//EN"
  "http://www.w3.org/Graphics/SVG/1.1/DTD/svg11.dtd">
<svg xmlns:xlink="http://www.w3.org/1999/xlink" width="864pt" height="432pt" viewBox="0 0 864 432" xmlns="http://www.w3.org/2000/svg" version="1.1">
 <metadata>
  <rdf:RDF xmlns:dc="http://purl.org/dc/elements/1.1/" xmlns:cc="http://creativecommons.org/ns#" xmlns:rdf="http://www.w3.org/1999/02/22-rdf-syntax-ns#">
   <cc:Work>
    <dc:type rdf:resource="http://purl.org/dc/dcmitype/StillImage"/>
    <dc:date>2025-05-24T02:23:38.232078</dc:date>
    <dc:format>image/svg+xml</dc:format>
    <dc:creator>
     <cc:Agent>
      <dc:title>Matplotlib v3.10.3, https://matplotlib.org/</dc:title>
     </cc:Agent>
    </dc:creator>
   </cc:Work>
  </rdf:RDF>
 </metadata>
 <defs>
  <style type="text/css">*{stroke-linejoin: round; stroke-linecap: butt}</style>
 </defs>
 <g id="figure_1">
  <g id="patch_1">
   <path d="M 0 432 
L 864 432 
L 864 0 
L 0 0 
z
" style="fill: #ffffff"/>
  </g>
  <g id="axes_1">
   <g id="patch_2">
    <path d="M 50.87 390.04 
L 844.866 390.04 
L 844.866 43.44 
L 50.87 43.44 
z
" style="fill: #ffffff"/>
   </g>
   <g id="FillBetweenPolyCollection_1">
    <defs>
     <path id="mbc895e0537" d="M 52.193327 -307.002856 
L 52.193327 -57.714545 
L 54.83998 -58.055393 
L 57.486633 -68.778041 
L 60.133287 -78.329427 
L 62.77994 -87.708478 
L 65.426593 -96.220991 
L 68.073247 -103.772184 
L 70.7199 -111.159541 
L 73.366553 -116.867821 
L 76.013207 -123.241342 
L 78.65986 -128.177634 
L 81.306513 -133.009581 
L 83.953167 -137.286291 
L 86.59982 -142.135508 
L 89.246473 -145.491909 
L 91.893127 -148.608633 
L 94.53978 -151.400964 
L 97.186433 -154.320755 
L 99.833087 -157.335327 
L 102.47974 -160.27364 
L 105.126393 -163.018904 
L 107.773047 -165.287235 
L 110.4197 -167.160072 
L 113.066353 -169.154606 
L 115.713007 -170.864129 
L 118.35966 -173.228473 
L 121.006313 -174.833359 
L 123.652967 -176.75487 
L 126.29962 -178.104668 
L 128.946273 -179.549498 
L 131.592927 -181.391827 
L 134.23958 -182.636215 
L 136.886233 -183.963963 
L 139.532887 -185.17279 
L 142.17954 -186.267083 
L 144.826193 -187.976104 
L 147.472847 -189.004328 
L 150.1195 -190.265756 
L 152.766153 -190.86403 
L 155.412807 -191.922511 
L 158.05946 -192.979238 
L 160.706113 -194.113164 
L 163.352767 -195.095803 
L 165.99942 -195.768499 
L 168.646073 -196.535141 
L 171.292727 -197.142332 
L 173.93938 -198.233597 
L 176.586033 -199.019345 
L 179.232687 -199.882041 
L 181.87934 -200.562401 
L 184.525993 -201.463832 
L 187.172647 -201.984804 
L 189.8193 -202.900038 
L 192.465953 -203.676556 
L 195.112607 -204.146118 
L 197.75926 -205.186828 
L 200.405913 -205.761006 
L 203.052567 -206.266379 
L 205.69922 -206.845755 
L 208.345873 -207.102785 
L 210.992527 -208.010815 
L 213.63918 -208.621974 
L 216.285833 -208.784766 
L 218.932487 -208.839746 
L 221.57914 -209.599602 
L 224.225793 -210.487105 
L 226.872447 -211.342702 
L 229.5191 -211.494468 
L 232.165753 -211.939661 
L 234.812407 -212.085309 
L 237.45906 -212.629772 
L 240.105713 -212.848046 
L 242.752367 -213.754489 
L 245.39902 -214.129812 
L 248.045673 -214.370095 
L 250.692327 -214.572812 
L 253.33898 -214.872733 
L 255.985633 -215.22139 
L 258.632287 -215.79444 
L 261.27894 -216.168615 
L 263.925593 -216.905918 
L 266.572247 -217.044717 
L 269.2189 -217.636832 
L 271.865553 -218.148636 
L 274.512207 -218.659918 
L 277.15886 -218.751275 
L 279.805513 -218.975771 
L 282.452167 -219.403027 
L 285.09882 -219.703218 
L 287.745473 -219.897019 
L 290.392127 -220.409972 
L 293.03878 -220.818497 
L 295.685433 -220.869114 
L 298.332087 -221.269578 
L 300.97874 -221.640099 
L 303.625393 -221.803663 
L 306.272047 -222.519375 
L 308.9187 -222.85684 
L 311.565353 -223.122891 
L 314.212007 -223.188709 
L 316.85866 -223.489026 
L 319.505313 -224.053974 
L 322.151967 -224.133699 
L 324.79862 -224.516623 
L 327.445273 -224.51867 
L 330.091927 -225.211871 
L 332.73858 -225.608264 
L 335.385233 -225.843494 
L 338.031887 -226.039842 
L 340.67854 -226.242037 
L 343.325193 -226.772363 
L 345.971847 -226.848476 
L 348.6185 -227.565503 
L 351.265153 -227.637586 
L 353.911807 -227.751181 
L 356.55846 -227.989606 
L 359.205113 -228.178792 
L 361.851767 -228.192908 
L 364.49842 -228.4154 
L 367.145073 -228.475225 
L 369.791727 -229.064792 
L 372.43838 -228.881891 
L 375.085033 -229.066901 
L 377.731687 -229.58829 
L 380.37834 -229.578183 
L 383.024993 -229.80103 
L 385.671647 -229.929827 
L 388.3183 -230.811526 
L 390.964953 -230.753475 
L 393.611607 -230.731905 
L 396.25826 -231.028505 
L 398.904913 -231.2885 
L 401.551567 -231.298961 
L 404.19822 -231.566557 
L 406.844873 -232.078904 
L 409.491527 -232.334389 
L 412.13818 -232.116575 
L 414.784833 -232.167985 
L 417.431487 -232.280578 
L 420.07814 -232.29035 
L 422.724793 -232.374335 
L 425.371447 -232.613679 
L 428.0181 -232.475819 
L 430.664753 -232.781524 
L 433.311407 -232.995934 
L 435.95806 -233.02141 
L 438.604713 -233.377731 
L 441.251367 -233.564662 
L 443.89802 -234.133347 
L 446.544673 -234.403177 
L 449.191327 -234.736237 
L 451.83798 -234.901263 
L 454.484633 -234.94551 
L 457.131287 -235.290639 
L 459.77794 -235.364121 
L 462.424593 -235.757193 
L 465.071247 -235.888517 
L 467.7179 -236.068265 
L 470.364553 -236.354027 
L 473.011207 -236.623732 
L 475.65786 -236.926618 
L 478.304513 -237.424097 
L 480.951167 -237.654462 
L 483.59782 -237.826024 
L 486.244473 -237.945737 
L 488.891127 -237.955697 
L 491.53778 -237.81172 
L 494.184433 -237.91477 
L 496.831087 -238.108717 
L 499.47774 -238.209637 
L 502.124393 -238.626201 
L 504.771047 -238.644848 
L 507.4177 -238.728457 
L 510.064353 -238.955501 
L 512.711007 -238.998935 
L 515.35766 -239.239594 
L 518.004313 -239.312324 
L 520.650967 -239.600342 
L 523.29762 -239.696396 
L 525.944273 -239.724231 
L 528.590927 -239.794435 
L 531.23758 -240.217284 
L 533.884233 -240.480704 
L 536.530887 -240.576946 
L 539.17754 -240.699228 
L 541.824193 -240.909149 
L 544.470847 -241.032413 
L 547.1175 -240.963859 
L 549.764153 -241.089419 
L 552.410807 -241.579883 
L 555.05746 -241.654513 
L 557.704113 -241.566873 
L 560.350767 -241.597089 
L 562.99742 -241.529809 
L 565.644073 -241.564242 
L 568.290727 -241.545553 
L 570.93738 -241.650002 
L 573.584033 -241.634905 
L 576.230687 -241.659149 
L 578.87734 -241.811646 
L 581.523993 -241.728851 
L 584.170647 -242.027748 
L 586.8173 -242.035579 
L 589.463953 -242.201419 
L 592.110607 -242.212758 
L 594.75726 -242.278492 
L 597.403913 -242.398623 
L 600.050567 -242.465465 
L 602.69722 -242.612679 
L 605.343873 -242.853923 
L 607.990527 -243.049269 
L 610.63718 -243.117843 
L 613.283833 -243.261884 
L 615.930487 -243.16917 
L 618.57714 -243.375813 
L 621.223793 -243.629898 
L 623.870447 -243.816412 
L 626.5171 -244.053207 
L 629.163753 -244.130677 
L 631.810407 -244.302281 
L 634.45706 -244.344086 
L 637.103713 -244.430159 
L 639.750367 -244.557035 
L 642.39702 -244.682783 
L 645.043673 -244.882619 
L 647.690327 -244.95491 
L 650.33698 -245.136704 
L 652.983633 -245.340006 
L 655.630287 -245.395384 
L 658.27694 -245.354665 
L 660.923593 -245.426121 
L 663.570247 -245.33324 
L 666.2169 -245.53696 
L 668.863553 -245.750619 
L 671.510207 -245.779769 
L 674.15686 -245.781523 
L 676.803513 -245.774382 
L 679.450167 -246.141311 
L 682.09682 -245.812261 
L 684.743473 -246.0245 
L 687.390127 -246.291323 
L 690.03678 -246.321142 
L 692.683433 -246.386125 
L 695.330087 -246.599701 
L 697.97674 -246.832028 
L 700.623393 -246.960866 
L 703.270047 -247.101649 
L 705.9167 -247.300399 
L 708.563353 -247.284111 
L 711.210007 -247.498731 
L 713.85666 -247.731601 
L 716.503313 -247.75716 
L 719.149967 -247.926383 
L 721.79662 -247.993621 
L 724.443273 -248.181596 
L 727.089927 -248.320583 
L 729.73658 -248.482581 
L 732.383233 -248.653809 
L 735.029887 -248.620942 
L 737.67654 -248.418308 
L 740.323193 -248.415552 
L 742.969847 -248.470011 
L 745.6165 -248.615888 
L 748.263153 -248.685257 
L 750.909807 -248.825956 
L 753.55646 -248.665837 
L 756.203113 -248.754207 
L 758.849767 -248.831469 
L 761.49642 -248.950326 
L 764.143073 -248.873232 
L 766.789727 -248.925477 
L 769.43638 -249.044167 
L 772.083033 -249.223706 
L 774.729687 -249.433272 
L 777.37634 -249.553925 
L 780.022993 -249.476371 
L 782.669647 -249.52799 
L 785.3163 -249.535174 
L 787.962953 -249.710369 
L 790.609607 -250.03779 
L 793.25626 -250.101854 
L 795.902913 -250.293546 
L 798.549567 -250.39336 
L 801.19622 -250.614494 
L 803.842873 -250.67789 
L 806.489527 -250.775198 
L 809.13618 -251.090048 
L 811.782833 -251.214711 
L 814.429487 -251.31561 
L 817.07614 -251.393414 
L 819.722793 -251.50229 
L 822.369447 -251.392287 
L 825.0161 -251.484207 
L 827.662753 -251.65723 
L 830.309407 -251.899247 
L 832.95606 -252.105096 
L 835.602713 -252.128817 
L 838.249367 -252.255693 
L 840.89602 -252.036062 
L 843.542673 -252.136877 
L 843.542673 -372.805455 
L 843.542673 -372.805455 
L 840.89602 -372.772879 
L 838.249367 -372.463291 
L 835.602713 -372.461537 
L 832.95606 -372.318708 
L 830.309407 -372.394006 
L 827.662753 -372.488349 
L 825.0161 -372.518961 
L 822.369447 -372.470892 
L 819.722793 -372.363478 
L 817.07614 -372.393505 
L 814.429487 -372.354958 
L 811.782833 -372.286216 
L 809.13618 -372.342722 
L 806.489527 -372.465546 
L 803.842873 -372.395468 
L 801.19622 -372.331487 
L 798.549567 -372.311232 
L 795.902913 -372.32894 
L 793.25626 -372.369366 
L 790.609607 -372.34481 
L 787.962953 -372.454312 
L 785.3163 -372.477908 
L 782.669647 -372.441825 
L 780.022993 -372.377176 
L 777.37634 -372.24675 
L 774.729687 -372.287469 
L 772.083033 -372.373668 
L 769.43638 -372.358424 
L 766.789727 -372.238481 
L 764.143073 -372.164937 
L 761.49642 -372.048669 
L 758.849767 -372.012753 
L 756.203113 -371.938164 
L 753.55646 -371.92622 
L 750.909807 -371.709721 
L 748.263153 -371.709011 
L 745.6165 -371.627031 
L 742.969847 -371.681698 
L 740.323193 -371.614042 
L 737.67654 -371.541625 
L 735.029887 -371.315772 
L 732.383233 -371.22619 
L 729.73658 -371.203972 
L 727.089927 -371.28044 
L 724.443273 -371.337321 
L 721.79662 -371.256928 
L 719.149967 -371.191276 
L 716.503313 -371.263359 
L 713.85666 -371.203471 
L 711.210007 -371.191109 
L 708.563353 -371.191318 
L 705.9167 -371.043895 
L 703.270047 -371.030823 
L 700.623393 -371.013575 
L 697.97674 -370.91798 
L 695.330087 -370.920527 
L 692.683433 -370.9521 
L 690.03678 -370.852036 
L 687.390127 -370.807099 
L 684.743473 -370.898936 
L 682.09682 -370.913135 
L 679.450167 -370.484356 
L 676.803513 -370.67304 
L 674.15686 -370.632405 
L 671.510207 -370.452992 
L 668.863553 -370.410644 
L 666.2169 -370.445307 
L 663.570247 -370.443386 
L 660.923593 -370.350923 
L 658.27694 -370.237203 
L 655.630287 -370.079715 
L 652.983633 -369.97489 
L 650.33698 -369.953173 
L 647.690327 -369.954802 
L 645.043673 -369.912413 
L 642.39702 -369.876288 
L 639.750367 -369.823708 
L 637.103713 -369.883095 
L 634.45706 -369.816066 
L 631.810407 -369.597437 
L 629.163753 -369.581692 
L 626.5171 -369.531535 
L 623.870447 -369.571126 
L 621.223793 -369.5885 
L 618.57714 -369.579646 
L 615.930487 -369.559182 
L 613.283833 -369.311528 
L 610.63718 -369.255858 
L 607.990527 -369.179849 
L 605.343873 -369.127855 
L 602.69722 -369.175506 
L 600.050567 -369.230591 
L 597.403913 -369.109395 
L 594.75726 -369.048881 
L 592.110607 -369.089057 
L 589.463953 -368.943263 
L 586.8173 -368.997638 
L 584.170647 -368.802313 
L 581.523993 -368.782141 
L 578.87734 -368.650755 
L 576.230687 -368.584227 
L 573.584033 -368.483704 
L 570.93738 -368.340206 
L 568.290727 -368.303497 
L 565.644073 -368.139327 
L 562.99742 -368.092886 
L 560.350767 -367.863399 
L 557.704113 -367.674046 
L 555.05746 -367.489746 
L 552.410807 -367.398745 
L 549.764153 -367.543996 
L 547.1175 -367.33159 
L 544.470847 -367.186214 
L 541.824193 -367.121565 
L 539.17754 -367.079551 
L 536.530887 -367.011728 
L 533.884233 -366.900388 
L 531.23758 -366.979571 
L 528.590927 -367.150256 
L 525.944273 -366.962364 
L 523.29762 -366.746868 
L 520.650967 -366.619574 
L 518.004313 -366.567162 
L 515.35766 -366.514165 
L 512.711007 -366.444546 
L 510.064353 -366.251434 
L 507.4177 -366.23168 
L 504.771047 -366.082754 
L 502.124393 -365.946106 
L 499.47774 -366.165152 
L 496.831087 -366.012801 
L 494.184433 -366.000105 
L 491.53778 -365.973085 
L 488.891127 -365.766066 
L 486.244473 -365.551404 
L 483.59782 -365.467002 
L 480.951167 -365.252758 
L 478.304513 -365.190114 
L 475.65786 -365.377211 
L 473.011207 -365.457146 
L 470.364553 -365.440775 
L 467.7179 -365.530272 
L 465.071247 -365.451675 
L 462.424593 -365.380218 
L 459.77794 -365.433508 
L 457.131287 -365.214879 
L 454.484633 -365.236262 
L 451.83798 -365.239185 
L 449.191327 -365.090801 
L 446.544673 -365.098945 
L 443.89802 -364.938534 
L 441.251367 -365.123084 
L 438.604713 -364.990529 
L 435.95806 -364.987438 
L 433.311407 -364.783719 
L 430.664753 -364.650077 
L 428.0181 -364.576742 
L 425.371447 -364.328879 
L 422.724793 -364.320902 
L 420.07814 -364.234495 
L 417.431487 -363.991518 
L 414.784833 -363.838916 
L 412.13818 -363.740064 
L 409.491527 -363.346908 
L 406.844873 -363.216106 
L 404.19822 -363.307066 
L 401.551567 -363.346281 
L 398.904913 -363.069518 
L 396.25826 -362.875864 
L 393.611607 -362.881168 
L 390.964953 -362.58912 
L 388.3183 -362.306886 
L 385.671647 -362.72794 
L 383.024993 -362.587282 
L 380.37834 -362.508434 
L 377.731687 -362.16414 
L 375.085033 -362.278237 
L 372.43838 -362.225031 
L 369.791727 -361.934152 
L 367.145073 -362.047204 
L 364.49842 -361.807736 
L 361.851767 -361.800469 
L 359.205113 -361.568518 
L 356.55846 -361.486997 
L 353.911807 -361.374111 
L 351.265153 -361.164127 
L 348.6185 -360.889411 
L 345.971847 -361.122824 
L 343.325193 -360.773603 
L 340.67854 -360.86452 
L 338.031887 -360.800247 
L 335.385233 -360.540315 
L 332.73858 -360.292577 
L 330.091927 -360.178732 
L 327.445273 -360.285812 
L 324.79862 -360.065011 
L 322.151967 -359.995267 
L 319.505313 -359.722096 
L 316.85866 -359.84751 
L 314.212007 -359.77171 
L 311.565353 -359.53124 
L 308.9187 -359.309562 
L 306.272047 -359.054265 
L 303.625393 -359.239901 
L 300.97874 -359.038897 
L 298.332087 -358.872597 
L 295.685433 -358.554322 
L 293.03878 -358.19182 
L 290.392127 -358.122159 
L 287.745473 -358.215541 
L 285.09882 -358.044104 
L 282.452167 -357.789768 
L 279.805513 -357.67989 
L 277.15886 -357.518643 
L 274.512207 -357.189593 
L 271.865553 -357.110202 
L 269.2189 -356.999405 
L 266.572247 -357.06656 
L 263.925593 -356.608254 
L 261.27894 -356.650935 
L 258.632287 -356.556551 
L 255.985633 -356.268095 
L 253.33898 -356.058487 
L 250.692327 -355.729103 
L 248.045673 -355.312309 
L 245.39902 -355.054339 
L 242.752367 -354.921533 
L 240.105713 -355.075304 
L 237.45906 -354.630279 
L 234.812407 -354.446856 
L 232.165753 -353.998865 
L 229.5191 -353.704771 
L 226.872447 -353.296413 
L 224.225793 -353.176011 
L 221.57914 -353.272024 
L 218.932487 -353.075446 
L 216.285833 -352.399638 
L 213.63918 -351.739283 
L 210.992527 -351.592111 
L 208.345873 -351.509003 
L 205.69922 -351.132259 
L 203.052567 -350.803961 
L 200.405913 -350.525444 
L 197.75926 -350.409803 
L 195.112607 -350.533296 
L 192.465953 -350.066929 
L 189.8193 -349.913743 
L 187.172647 -350.01744 
L 184.525993 -349.788788 
L 181.87934 -349.705012 
L 179.232687 -349.39392 
L 176.586033 -349.162762 
L 173.93938 -348.670628 
L 171.292727 -348.637677 
L 168.646073 -348.204554 
L 165.99942 -347.747501 
L 163.352767 -347.370716 
L 160.706113 -346.988293 
L 158.05946 -346.763859 
L 155.412807 -346.468136 
L 152.766153 -346.202691 
L 150.1195 -345.737369 
L 147.472847 -345.33277 
L 144.826193 -344.822051 
L 142.17954 -344.696846 
L 139.532887 -344.022625 
L 136.886233 -343.387704 
L 134.23958 -342.915491 
L 131.592927 -342.34739 
L 128.946273 -342.320578 
L 126.29962 -341.638089 
L 123.652967 -340.889196 
L 121.006313 -340.743778 
L 118.35966 -339.930069 
L 115.713007 -339.809124 
L 113.066353 -339.396005 
L 110.4197 -338.797125 
L 107.773047 -338.287409 
L 105.126393 -337.887153 
L 102.47974 -337.436907 
L 99.833087 -337.094577 
L 97.186433 -336.575839 
L 94.53978 -335.899113 
L 91.893127 -335.077094 
L 89.246473 -333.756509 
L 86.59982 -332.767981 
L 83.953167 -332.010068 
L 81.306513 -330.865096 
L 78.65986 -330.090227 
L 76.013207 -328.575361 
L 73.366553 -327.507442 
L 70.7199 -325.405097 
L 68.073247 -323.706391 
L 65.426593 -321.52503 
L 62.77994 -319.485539 
L 60.133287 -316.024772 
L 57.486633 -312.239424 
L 54.83998 -308.08936 
L 52.193327 -307.002856 
z
" style="stroke: #0000ff; stroke-opacity: 0.2"/>
    </defs>
    <g clip-path="url(#pcdd25e7d81)">
     <use xlink:href="#mbc895e0537" x="0" y="432" style="fill: #0000ff; fill-opacity: 0.2; stroke: #0000ff; stroke-opacity: 0.2"/>
    </g>
   </g>
   <g id="matplotlib.axis_1">
    <g id="xtick_1">
     <g id="line2d_1">
      <defs>
       <path id="m05d996c0d4" d="M 0 0 
L 0 3.5 
" style="stroke: #000000; stroke-width: 0.8"/>
      </defs>
      <g>
       <use xlink:href="#m05d996c0d4" x="181.87934" y="390.04" style="stroke: #000000; stroke-width: 0.8"/>
      </g>
     </g>
     <g id="text_1">
      <!-- 50 -->
      <g transform="translate(175.51684 404.638438) scale(0.1 -0.1)">
       <defs>
        <path id="DejaVuSans-35" d="M 691 4666 
L 3169 4666 
L 3169 4134 
L 1269 4134 
L 1269 2991 
Q 1406 3038 1543 3061 
Q 1681 3084 1819 3084 
Q 2600 3084 3056 2656 
Q 3513 2228 3513 1497 
Q 3513 744 3044 326 
Q 2575 -91 1722 -91 
Q 1428 -91 1123 -41 
Q 819 9 494 109 
L 494 744 
Q 775 591 1075 516 
Q 1375 441 1709 441 
Q 2250 441 2565 725 
Q 2881 1009 2881 1497 
Q 2881 1984 2565 2268 
Q 2250 2553 1709 2553 
Q 1456 2553 1204 2497 
Q 953 2441 691 2322 
L 691 4666 
z
" transform="scale(0.015625)"/>
        <path id="DejaVuSans-30" d="M 2034 4250 
Q 1547 4250 1301 3770 
Q 1056 3291 1056 2328 
Q 1056 1369 1301 889 
Q 1547 409 2034 409 
Q 2525 409 2770 889 
Q 3016 1369 3016 2328 
Q 3016 3291 2770 3770 
Q 2525 4250 2034 4250 
z
M 2034 4750 
Q 2819 4750 3233 4129 
Q 3647 3509 3647 2328 
Q 3647 1150 3233 529 
Q 2819 -91 2034 -91 
Q 1250 -91 836 529 
Q 422 1150 422 2328 
Q 422 3509 836 4129 
Q 1250 4750 2034 4750 
z
" transform="scale(0.015625)"/>
       </defs>
       <use xlink:href="#DejaVuSans-35"/>
       <use xlink:href="#DejaVuSans-30" transform="translate(63.623047 0)"/>
      </g>
     </g>
    </g>
    <g id="xtick_2">
     <g id="line2d_2">
      <g>
       <use xlink:href="#m05d996c0d4" x="314.212007" y="390.04" style="stroke: #000000; stroke-width: 0.8"/>
      </g>
     </g>
     <g id="text_2">
      <!-- 100 -->
      <g transform="translate(304.668257 404.638438) scale(0.1 -0.1)">
       <defs>
        <path id="DejaVuSans-31" d="M 794 531 
L 1825 531 
L 1825 4091 
L 703 3866 
L 703 4441 
L 1819 4666 
L 2450 4666 
L 2450 531 
L 3481 531 
L 3481 0 
L 794 0 
L 794 531 
z
" transform="scale(0.015625)"/>
       </defs>
       <use xlink:href="#DejaVuSans-31"/>
       <use xlink:href="#DejaVuSans-30" transform="translate(63.623047 0)"/>
       <use xlink:href="#DejaVuSans-30" transform="translate(127.246094 0)"/>
      </g>
     </g>
    </g>
    <g id="xtick_3">
     <g id="line2d_3">
      <g>
       <use xlink:href="#m05d996c0d4" x="446.544673" y="390.04" style="stroke: #000000; stroke-width: 0.8"/>
      </g>
     </g>
     <g id="text_3">
      <!-- 150 -->
      <g transform="translate(437.000923 404.638438) scale(0.1 -0.1)">
       <use xlink:href="#DejaVuSans-31"/>
       <use xlink:href="#DejaVuSans-35" transform="translate(63.623047 0)"/>
       <use xlink:href="#DejaVuSans-30" transform="translate(127.246094 0)"/>
      </g>
     </g>
    </g>
    <g id="xtick_4">
     <g id="line2d_4">
      <g>
       <use xlink:href="#m05d996c0d4" x="578.87734" y="390.04" style="stroke: #000000; stroke-width: 0.8"/>
      </g>
     </g>
     <g id="text_4">
      <!-- 200 -->
      <g transform="translate(569.33359 404.638438) scale(0.1 -0.1)">
       <defs>
        <path id="DejaVuSans-32" d="M 1228 531 
L 3431 531 
L 3431 0 
L 469 0 
L 469 531 
Q 828 903 1448 1529 
Q 2069 2156 2228 2338 
Q 2531 2678 2651 2914 
Q 2772 3150 2772 3378 
Q 2772 3750 2511 3984 
Q 2250 4219 1831 4219 
Q 1534 4219 1204 4116 
Q 875 4013 500 3803 
L 500 4441 
Q 881 4594 1212 4672 
Q 1544 4750 1819 4750 
Q 2544 4750 2975 4387 
Q 3406 4025 3406 3419 
Q 3406 3131 3298 2873 
Q 3191 2616 2906 2266 
Q 2828 2175 2409 1742 
Q 1991 1309 1228 531 
z
" transform="scale(0.015625)"/>
       </defs>
       <use xlink:href="#DejaVuSans-32"/>
       <use xlink:href="#DejaVuSans-30" transform="translate(63.623047 0)"/>
       <use xlink:href="#DejaVuSans-30" transform="translate(127.246094 0)"/>
      </g>
     </g>
    </g>
    <g id="xtick_5">
     <g id="line2d_5">
      <g>
       <use xlink:href="#m05d996c0d4" x="711.210007" y="390.04" style="stroke: #000000; stroke-width: 0.8"/>
      </g>
     </g>
     <g id="text_5">
      <!-- 250 -->
      <g transform="translate(701.666257 404.638438) scale(0.1 -0.1)">
       <use xlink:href="#DejaVuSans-32"/>
       <use xlink:href="#DejaVuSans-35" transform="translate(63.623047 0)"/>
       <use xlink:href="#DejaVuSans-30" transform="translate(127.246094 0)"/>
      </g>
     </g>
    </g>
    <g id="xtick_6">
     <g id="line2d_6">
      <g>
       <use xlink:href="#m05d996c0d4" x="843.542673" y="390.04" style="stroke: #000000; stroke-width: 0.8"/>
      </g>
     </g>
     <g id="text_6">
      <!-- 300 -->
      <g transform="translate(833.998923 404.638438) scale(0.1 -0.1)">
       <defs>
        <path id="DejaVuSans-33" d="M 2597 2516 
Q 3050 2419 3304 2112 
Q 3559 1806 3559 1356 
Q 3559 666 3084 287 
Q 2609 -91 1734 -91 
Q 1441 -91 1130 -33 
Q 819 25 488 141 
L 488 750 
Q 750 597 1062 519 
Q 1375 441 1716 441 
Q 2309 441 2620 675 
Q 2931 909 2931 1356 
Q 2931 1769 2642 2001 
Q 2353 2234 1838 2234 
L 1294 2234 
L 1294 2753 
L 1863 2753 
Q 2328 2753 2575 2939 
Q 2822 3125 2822 3475 
Q 2822 3834 2567 4026 
Q 2313 4219 1838 4219 
Q 1578 4219 1281 4162 
Q 984 4106 628 3988 
L 628 4550 
Q 988 4650 1302 4700 
Q 1616 4750 1894 4750 
Q 2613 4750 3031 4423 
Q 3450 4097 3450 3541 
Q 3450 3153 3228 2886 
Q 3006 2619 2597 2516 
z
" transform="scale(0.015625)"/>
       </defs>
       <use xlink:href="#DejaVuSans-33"/>
       <use xlink:href="#DejaVuSans-30" transform="translate(63.623047 0)"/>
       <use xlink:href="#DejaVuSans-30" transform="translate(127.246094 0)"/>
      </g>
     </g>
    </g>
    <g id="text_7">
     <!-- Step -->
     <g transform="translate(436.482844 418.316562) scale(0.1 -0.1)">
      <defs>
       <path id="DejaVuSans-53" d="M 3425 4513 
L 3425 3897 
Q 3066 4069 2747 4153 
Q 2428 4238 2131 4238 
Q 1616 4238 1336 4038 
Q 1056 3838 1056 3469 
Q 1056 3159 1242 3001 
Q 1428 2844 1947 2747 
L 2328 2669 
Q 3034 2534 3370 2195 
Q 3706 1856 3706 1288 
Q 3706 609 3251 259 
Q 2797 -91 1919 -91 
Q 1588 -91 1214 -16 
Q 841 59 441 206 
L 441 856 
Q 825 641 1194 531 
Q 1563 422 1919 422 
Q 2459 422 2753 634 
Q 3047 847 3047 1241 
Q 3047 1584 2836 1778 
Q 2625 1972 2144 2069 
L 1759 2144 
Q 1053 2284 737 2584 
Q 422 2884 422 3419 
Q 422 4038 858 4394 
Q 1294 4750 2059 4750 
Q 2388 4750 2728 4690 
Q 3069 4631 3425 4513 
z
" transform="scale(0.015625)"/>
       <path id="DejaVuSans-74" d="M 1172 4494 
L 1172 3500 
L 2356 3500 
L 2356 3053 
L 1172 3053 
L 1172 1153 
Q 1172 725 1289 603 
Q 1406 481 1766 481 
L 2356 481 
L 2356 0 
L 1766 0 
Q 1100 0 847 248 
Q 594 497 594 1153 
L 594 3053 
L 172 3053 
L 172 3500 
L 594 3500 
L 594 4494 
L 1172 4494 
z
" transform="scale(0.015625)"/>
       <path id="DejaVuSans-65" d="M 3597 1894 
L 3597 1613 
L 953 1613 
Q 991 1019 1311 708 
Q 1631 397 2203 397 
Q 2534 397 2845 478 
Q 3156 559 3463 722 
L 3463 178 
Q 3153 47 2828 -22 
Q 2503 -91 2169 -91 
Q 1331 -91 842 396 
Q 353 884 353 1716 
Q 353 2575 817 3079 
Q 1281 3584 2069 3584 
Q 2775 3584 3186 3129 
Q 3597 2675 3597 1894 
z
M 3022 2063 
Q 3016 2534 2758 2815 
Q 2500 3097 2075 3097 
Q 1594 3097 1305 2825 
Q 1016 2553 972 2059 
L 3022 2063 
z
" transform="scale(0.015625)"/>
       <path id="DejaVuSans-70" d="M 1159 525 
L 1159 -1331 
L 581 -1331 
L 581 3500 
L 1159 3500 
L 1159 2969 
Q 1341 3281 1617 3432 
Q 1894 3584 2278 3584 
Q 2916 3584 3314 3078 
Q 3713 2572 3713 1747 
Q 3713 922 3314 415 
Q 2916 -91 2278 -91 
Q 1894 -91 1617 61 
Q 1341 213 1159 525 
z
M 3116 1747 
Q 3116 2381 2855 2742 
Q 2594 3103 2138 3103 
Q 1681 3103 1420 2742 
Q 1159 2381 1159 1747 
Q 1159 1113 1420 752 
Q 1681 391 2138 391 
Q 2594 391 2855 752 
Q 3116 1113 3116 1747 
z
" transform="scale(0.015625)"/>
      </defs>
      <use xlink:href="#DejaVuSans-53"/>
      <use xlink:href="#DejaVuSans-74" transform="translate(63.476562 0)"/>
      <use xlink:href="#DejaVuSans-65" transform="translate(102.685547 0)"/>
      <use xlink:href="#DejaVuSans-70" transform="translate(164.208984 0)"/>
     </g>
    </g>
   </g>
   <g id="matplotlib.axis_2">
    <g id="ytick_1">
     <g id="line2d_7">
      <defs>
       <path id="m5656e59875" d="M 0 0 
L -3.5 0 
" style="stroke: #000000; stroke-width: 0.8"/>
      </defs>
      <g>
       <use xlink:href="#m5656e59875" x="50.87" y="334.090827" style="stroke: #000000; stroke-width: 0.8"/>
      </g>
     </g>
     <g id="text_8">
      <!-- 300 -->
      <g transform="translate(24.7825 337.890046) scale(0.1 -0.1)">
       <use xlink:href="#DejaVuSans-33"/>
       <use xlink:href="#DejaVuSans-30" transform="translate(63.623047 0)"/>
       <use xlink:href="#DejaVuSans-30" transform="translate(127.246094 0)"/>
      </g>
     </g>
    </g>
    <g id="ytick_2">
     <g id="line2d_8">
      <g>
       <use xlink:href="#m5656e59875" x="50.87" y="265.666479" style="stroke: #000000; stroke-width: 0.8"/>
      </g>
     </g>
     <g id="text_9">
      <!-- 400 -->
      <g transform="translate(24.7825 269.465698) scale(0.1 -0.1)">
       <defs>
        <path id="DejaVuSans-34" d="M 2419 4116 
L 825 1625 
L 2419 1625 
L 2419 4116 
z
M 2253 4666 
L 3047 4666 
L 3047 1625 
L 3713 1625 
L 3713 1100 
L 3047 1100 
L 3047 0 
L 2419 0 
L 2419 1100 
L 313 1100 
L 313 1709 
L 2253 4666 
z
" transform="scale(0.015625)"/>
       </defs>
       <use xlink:href="#DejaVuSans-34"/>
       <use xlink:href="#DejaVuSans-30" transform="translate(63.623047 0)"/>
       <use xlink:href="#DejaVuSans-30" transform="translate(127.246094 0)"/>
      </g>
     </g>
    </g>
    <g id="ytick_3">
     <g id="line2d_9">
      <g>
       <use xlink:href="#m5656e59875" x="50.87" y="197.24213" style="stroke: #000000; stroke-width: 0.8"/>
      </g>
     </g>
     <g id="text_10">
      <!-- 500 -->
      <g transform="translate(24.7825 201.041349) scale(0.1 -0.1)">
       <use xlink:href="#DejaVuSans-35"/>
       <use xlink:href="#DejaVuSans-30" transform="translate(63.623047 0)"/>
       <use xlink:href="#DejaVuSans-30" transform="translate(127.246094 0)"/>
      </g>
     </g>
    </g>
    <g id="ytick_4">
     <g id="line2d_10">
      <g>
       <use xlink:href="#m5656e59875" x="50.87" y="128.817782" style="stroke: #000000; stroke-width: 0.8"/>
      </g>
     </g>
     <g id="text_11">
      <!-- 600 -->
      <g transform="translate(24.7825 132.617001) scale(0.1 -0.1)">
       <defs>
        <path id="DejaVuSans-36" d="M 2113 2584 
Q 1688 2584 1439 2293 
Q 1191 2003 1191 1497 
Q 1191 994 1439 701 
Q 1688 409 2113 409 
Q 2538 409 2786 701 
Q 3034 994 3034 1497 
Q 3034 2003 2786 2293 
Q 2538 2584 2113 2584 
z
M 3366 4563 
L 3366 3988 
Q 3128 4100 2886 4159 
Q 2644 4219 2406 4219 
Q 1781 4219 1451 3797 
Q 1122 3375 1075 2522 
Q 1259 2794 1537 2939 
Q 1816 3084 2150 3084 
Q 2853 3084 3261 2657 
Q 3669 2231 3669 1497 
Q 3669 778 3244 343 
Q 2819 -91 2113 -91 
Q 1303 -91 875 529 
Q 447 1150 447 2328 
Q 447 3434 972 4092 
Q 1497 4750 2381 4750 
Q 2619 4750 2861 4703 
Q 3103 4656 3366 4563 
z
" transform="scale(0.015625)"/>
       </defs>
       <use xlink:href="#DejaVuSans-36"/>
       <use xlink:href="#DejaVuSans-30" transform="translate(63.623047 0)"/>
       <use xlink:href="#DejaVuSans-30" transform="translate(127.246094 0)"/>
      </g>
     </g>
    </g>
    <g id="ytick_5">
     <g id="line2d_11">
      <g>
       <use xlink:href="#m5656e59875" x="50.87" y="60.393433" style="stroke: #000000; stroke-width: 0.8"/>
      </g>
     </g>
     <g id="text_12">
      <!-- 700 -->
      <g transform="translate(24.7825 64.192652) scale(0.1 -0.1)">
       <defs>
        <path id="DejaVuSans-37" d="M 525 4666 
L 3525 4666 
L 3525 4397 
L 1831 0 
L 1172 0 
L 2766 4134 
L 525 4134 
L 525 4666 
z
" transform="scale(0.015625)"/>
       </defs>
       <use xlink:href="#DejaVuSans-37"/>
       <use xlink:href="#DejaVuSans-30" transform="translate(63.623047 0)"/>
       <use xlink:href="#DejaVuSans-30" transform="translate(127.246094 0)"/>
      </g>
     </g>
    </g>
    <g id="text_13">
     <!-- Profit -->
     <g transform="translate(18.702813 229.779063) rotate(-90) scale(0.1 -0.1)">
      <defs>
       <path id="DejaVuSans-50" d="M 1259 4147 
L 1259 2394 
L 2053 2394 
Q 2494 2394 2734 2622 
Q 2975 2850 2975 3272 
Q 2975 3691 2734 3919 
Q 2494 4147 2053 4147 
L 1259 4147 
z
M 628 4666 
L 2053 4666 
Q 2838 4666 3239 4311 
Q 3641 3956 3641 3272 
Q 3641 2581 3239 2228 
Q 2838 1875 2053 1875 
L 1259 1875 
L 1259 0 
L 628 0 
L 628 4666 
z
" transform="scale(0.015625)"/>
       <path id="DejaVuSans-72" d="M 2631 2963 
Q 2534 3019 2420 3045 
Q 2306 3072 2169 3072 
Q 1681 3072 1420 2755 
Q 1159 2438 1159 1844 
L 1159 0 
L 581 0 
L 581 3500 
L 1159 3500 
L 1159 2956 
Q 1341 3275 1631 3429 
Q 1922 3584 2338 3584 
Q 2397 3584 2469 3576 
Q 2541 3569 2628 3553 
L 2631 2963 
z
" transform="scale(0.015625)"/>
       <path id="DejaVuSans-6f" d="M 1959 3097 
Q 1497 3097 1228 2736 
Q 959 2375 959 1747 
Q 959 1119 1226 758 
Q 1494 397 1959 397 
Q 2419 397 2687 759 
Q 2956 1122 2956 1747 
Q 2956 2369 2687 2733 
Q 2419 3097 1959 3097 
z
M 1959 3584 
Q 2709 3584 3137 3096 
Q 3566 2609 3566 1747 
Q 3566 888 3137 398 
Q 2709 -91 1959 -91 
Q 1206 -91 779 398 
Q 353 888 353 1747 
Q 353 2609 779 3096 
Q 1206 3584 1959 3584 
z
" transform="scale(0.015625)"/>
       <path id="DejaVuSans-66" d="M 2375 4863 
L 2375 4384 
L 1825 4384 
Q 1516 4384 1395 4259 
Q 1275 4134 1275 3809 
L 1275 3500 
L 2222 3500 
L 2222 3053 
L 1275 3053 
L 1275 0 
L 697 0 
L 697 3053 
L 147 3053 
L 147 3500 
L 697 3500 
L 697 3744 
Q 697 4328 969 4595 
Q 1241 4863 1831 4863 
L 2375 4863 
z
" transform="scale(0.015625)"/>
       <path id="DejaVuSans-69" d="M 603 3500 
L 1178 3500 
L 1178 0 
L 603 0 
L 603 3500 
z
M 603 4863 
L 1178 4863 
L 1178 4134 
L 603 4134 
L 603 4863 
z
" transform="scale(0.015625)"/>
      </defs>
      <use xlink:href="#DejaVuSans-50"/>
      <use xlink:href="#DejaVuSans-72" transform="translate(58.552734 0)"/>
      <use xlink:href="#DejaVuSans-6f" transform="translate(97.416016 0)"/>
      <use xlink:href="#DejaVuSans-66" transform="translate(158.597656 0)"/>
      <use xlink:href="#DejaVuSans-69" transform="translate(193.802734 0)"/>
      <use xlink:href="#DejaVuSans-74" transform="translate(221.585938 0)"/>
     </g>
    </g>
   </g>
   <g id="line2d_12">
    <path d="M 52.193327 249.641299 
L 54.83998 248.927634 
L 57.486633 241.491268 
L 62.77994 228.402981 
L 65.426593 223.126989 
L 68.073247 218.260713 
L 70.7199 213.717681 
L 76.013207 206.091649 
L 78.65986 202.86607 
L 86.59982 194.548256 
L 91.893127 190.157136 
L 99.833087 184.785048 
L 105.126393 181.546961 
L 107.773047 180.212678 
L 123.652967 173.177967 
L 131.592927 170.130402 
L 144.826193 165.600922 
L 150.1195 163.998438 
L 152.766153 163.466629 
L 165.99942 160.24199 
L 171.292727 159.110006 
L 184.525993 156.3737 
L 189.8193 155.59311 
L 197.75926 154.201695 
L 203.052567 153.46483 
L 205.69922 153.010993 
L 208.345873 152.694096 
L 210.992527 152.198537 
L 218.932487 151.042414 
L 226.872447 149.680442 
L 234.812407 148.733928 
L 242.752367 147.661999 
L 253.33898 146.534401 
L 255.985633 146.255258 
L 258.632287 145.824515 
L 261.27894 145.590225 
L 266.572247 144.944362 
L 287.745473 142.94371 
L 295.685433 142.288282 
L 300.97874 141.660502 
L 306.272047 141.21318 
L 311.565353 140.672935 
L 319.505313 140.111976 
L 330.091927 139.304699 
L 338.031887 138.579945 
L 343.325193 138.227007 
L 356.55846 137.261699 
L 385.671647 135.671117 
L 388.3183 135.440794 
L 396.25826 135.047805 
L 401.551567 134.677368 
L 406.844873 134.352495 
L 412.13818 134.071681 
L 420.07814 133.737578 
L 428.0181 133.47372 
L 438.604713 132.81587 
L 462.424593 131.431305 
L 475.65786 130.848086 
L 488.891127 130.139118 
L 496.831087 129.939241 
L 515.35766 129.12311 
L 520.650967 128.890032 
L 562.99742 127.188652 
L 576.230687 126.878312 
L 589.463953 126.427649 
L 623.870447 125.306231 
L 645.043673 124.602484 
L 655.630287 124.262451 
L 690.03678 123.413411 
L 711.210007 122.65508 
L 716.503313 122.489741 
L 729.73658 122.156723 
L 735.029887 122.031643 
L 745.6165 121.87854 
L 761.49642 121.500503 
L 766.789727 121.418021 
L 774.729687 121.139629 
L 793.25626 120.76439 
L 819.722793 120.067116 
L 825.0161 119.998416 
L 843.542673 119.528834 
L 843.542673 119.528834 
" clip-path="url(#pcdd25e7d81)" style="fill: none; stroke: #0000ff; stroke-width: 1.5; stroke-linecap: square"/>
   </g>
   <g id="patch_3">
    <path d="M 50.87 390.04 
L 50.87 43.44 
" style="fill: none; stroke: #000000; stroke-width: 0.8; stroke-linejoin: miter; stroke-linecap: square"/>
   </g>
   <g id="patch_4">
    <path d="M 844.866 390.04 
L 844.866 43.44 
" style="fill: none; stroke: #000000; stroke-width: 0.8; stroke-linejoin: miter; stroke-linecap: square"/>
   </g>
   <g id="patch_5">
    <path d="M 50.87 390.04 
L 844.866 390.04 
" style="fill: none; stroke: #000000; stroke-width: 0.8; stroke-linejoin: miter; stroke-linecap: square"/>
   </g>
   <g id="patch_6">
    <path d="M 50.87 43.44 
L 844.866 43.44 
" style="fill: none; stroke: #000000; stroke-width: 0.8; stroke-linejoin: miter; stroke-linecap: square"/>
   </g>
   <g id="text_14">
    <!-- Mean profit per step with confidence interval per simulation step -->
    <g transform="translate(220.284875 21.763062) scale(0.14 -0.14)">
     <defs>
      <path id="DejaVuSans-4d" d="M 628 4666 
L 1569 4666 
L 2759 1491 
L 3956 4666 
L 4897 4666 
L 4897 0 
L 4281 0 
L 4281 4097 
L 3078 897 
L 2444 897 
L 1241 4097 
L 1241 0 
L 628 0 
L 628 4666 
z
" transform="scale(0.015625)"/>
      <path id="DejaVuSans-61" d="M 2194 1759 
Q 1497 1759 1228 1600 
Q 959 1441 959 1056 
Q 959 750 1161 570 
Q 1363 391 1709 391 
Q 2188 391 2477 730 
Q 2766 1069 2766 1631 
L 2766 1759 
L 2194 1759 
z
M 3341 1997 
L 3341 0 
L 2766 0 
L 2766 531 
Q 2569 213 2275 61 
Q 1981 -91 1556 -91 
Q 1019 -91 701 211 
Q 384 513 384 1019 
Q 384 1609 779 1909 
Q 1175 2209 1959 2209 
L 2766 2209 
L 2766 2266 
Q 2766 2663 2505 2880 
Q 2244 3097 1772 3097 
Q 1472 3097 1187 3025 
Q 903 2953 641 2809 
L 641 3341 
Q 956 3463 1253 3523 
Q 1550 3584 1831 3584 
Q 2591 3584 2966 3190 
Q 3341 2797 3341 1997 
z
" transform="scale(0.015625)"/>
      <path id="DejaVuSans-6e" d="M 3513 2113 
L 3513 0 
L 2938 0 
L 2938 2094 
Q 2938 2591 2744 2837 
Q 2550 3084 2163 3084 
Q 1697 3084 1428 2787 
Q 1159 2491 1159 1978 
L 1159 0 
L 581 0 
L 581 3500 
L 1159 3500 
L 1159 2956 
Q 1366 3272 1645 3428 
Q 1925 3584 2291 3584 
Q 2894 3584 3203 3211 
Q 3513 2838 3513 2113 
z
" transform="scale(0.015625)"/>
      <path id="DejaVuSans-20" transform="scale(0.015625)"/>
      <path id="DejaVuSans-73" d="M 2834 3397 
L 2834 2853 
Q 2591 2978 2328 3040 
Q 2066 3103 1784 3103 
Q 1356 3103 1142 2972 
Q 928 2841 928 2578 
Q 928 2378 1081 2264 
Q 1234 2150 1697 2047 
L 1894 2003 
Q 2506 1872 2764 1633 
Q 3022 1394 3022 966 
Q 3022 478 2636 193 
Q 2250 -91 1575 -91 
Q 1294 -91 989 -36 
Q 684 19 347 128 
L 347 722 
Q 666 556 975 473 
Q 1284 391 1588 391 
Q 1994 391 2212 530 
Q 2431 669 2431 922 
Q 2431 1156 2273 1281 
Q 2116 1406 1581 1522 
L 1381 1569 
Q 847 1681 609 1914 
Q 372 2147 372 2553 
Q 372 3047 722 3315 
Q 1072 3584 1716 3584 
Q 2034 3584 2315 3537 
Q 2597 3491 2834 3397 
z
" transform="scale(0.015625)"/>
      <path id="DejaVuSans-77" d="M 269 3500 
L 844 3500 
L 1563 769 
L 2278 3500 
L 2956 3500 
L 3675 769 
L 4391 3500 
L 4966 3500 
L 4050 0 
L 3372 0 
L 2619 2869 
L 1863 0 
L 1184 0 
L 269 3500 
z
" transform="scale(0.015625)"/>
      <path id="DejaVuSans-68" d="M 3513 2113 
L 3513 0 
L 2938 0 
L 2938 2094 
Q 2938 2591 2744 2837 
Q 2550 3084 2163 3084 
Q 1697 3084 1428 2787 
Q 1159 2491 1159 1978 
L 1159 0 
L 581 0 
L 581 4863 
L 1159 4863 
L 1159 2956 
Q 1366 3272 1645 3428 
Q 1925 3584 2291 3584 
Q 2894 3584 3203 3211 
Q 3513 2838 3513 2113 
z
" transform="scale(0.015625)"/>
      <path id="DejaVuSans-63" d="M 3122 3366 
L 3122 2828 
Q 2878 2963 2633 3030 
Q 2388 3097 2138 3097 
Q 1578 3097 1268 2742 
Q 959 2388 959 1747 
Q 959 1106 1268 751 
Q 1578 397 2138 397 
Q 2388 397 2633 464 
Q 2878 531 3122 666 
L 3122 134 
Q 2881 22 2623 -34 
Q 2366 -91 2075 -91 
Q 1284 -91 818 406 
Q 353 903 353 1747 
Q 353 2603 823 3093 
Q 1294 3584 2113 3584 
Q 2378 3584 2631 3529 
Q 2884 3475 3122 3366 
z
" transform="scale(0.015625)"/>
      <path id="DejaVuSans-64" d="M 2906 2969 
L 2906 4863 
L 3481 4863 
L 3481 0 
L 2906 0 
L 2906 525 
Q 2725 213 2448 61 
Q 2172 -91 1784 -91 
Q 1150 -91 751 415 
Q 353 922 353 1747 
Q 353 2572 751 3078 
Q 1150 3584 1784 3584 
Q 2172 3584 2448 3432 
Q 2725 3281 2906 2969 
z
M 947 1747 
Q 947 1113 1208 752 
Q 1469 391 1925 391 
Q 2381 391 2643 752 
Q 2906 1113 2906 1747 
Q 2906 2381 2643 2742 
Q 2381 3103 1925 3103 
Q 1469 3103 1208 2742 
Q 947 2381 947 1747 
z
" transform="scale(0.015625)"/>
      <path id="DejaVuSans-76" d="M 191 3500 
L 800 3500 
L 1894 563 
L 2988 3500 
L 3597 3500 
L 2284 0 
L 1503 0 
L 191 3500 
z
" transform="scale(0.015625)"/>
      <path id="DejaVuSans-6c" d="M 603 4863 
L 1178 4863 
L 1178 0 
L 603 0 
L 603 4863 
z
" transform="scale(0.015625)"/>
      <path id="DejaVuSans-6d" d="M 3328 2828 
Q 3544 3216 3844 3400 
Q 4144 3584 4550 3584 
Q 5097 3584 5394 3201 
Q 5691 2819 5691 2113 
L 5691 0 
L 5113 0 
L 5113 2094 
Q 5113 2597 4934 2840 
Q 4756 3084 4391 3084 
Q 3944 3084 3684 2787 
Q 3425 2491 3425 1978 
L 3425 0 
L 2847 0 
L 2847 2094 
Q 2847 2600 2669 2842 
Q 2491 3084 2119 3084 
Q 1678 3084 1418 2786 
Q 1159 2488 1159 1978 
L 1159 0 
L 581 0 
L 581 3500 
L 1159 3500 
L 1159 2956 
Q 1356 3278 1631 3431 
Q 1906 3584 2284 3584 
Q 2666 3584 2933 3390 
Q 3200 3197 3328 2828 
z
" transform="scale(0.015625)"/>
      <path id="DejaVuSans-75" d="M 544 1381 
L 544 3500 
L 1119 3500 
L 1119 1403 
Q 1119 906 1312 657 
Q 1506 409 1894 409 
Q 2359 409 2629 706 
Q 2900 1003 2900 1516 
L 2900 3500 
L 3475 3500 
L 3475 0 
L 2900 0 
L 2900 538 
Q 2691 219 2414 64 
Q 2138 -91 1772 -91 
Q 1169 -91 856 284 
Q 544 659 544 1381 
z
M 1991 3584 
L 1991 3584 
z
" transform="scale(0.015625)"/>
     </defs>
     <use xlink:href="#DejaVuSans-4d"/>
     <use xlink:href="#DejaVuSans-65" transform="translate(86.279297 0)"/>
     <use xlink:href="#DejaVuSans-61" transform="translate(147.802734 0)"/>
     <use xlink:href="#DejaVuSans-6e" transform="translate(209.082031 0)"/>
     <use xlink:href="#DejaVuSans-20" transform="translate(272.460938 0)"/>
     <use xlink:href="#DejaVuSans-70" transform="translate(304.248047 0)"/>
     <use xlink:href="#DejaVuSans-72" transform="translate(367.724609 0)"/>
     <use xlink:href="#DejaVuSans-6f" transform="translate(406.587891 0)"/>
     <use xlink:href="#DejaVuSans-66" transform="translate(467.769531 0)"/>
     <use xlink:href="#DejaVuSans-69" transform="translate(502.974609 0)"/>
     <use xlink:href="#DejaVuSans-74" transform="translate(530.757812 0)"/>
     <use xlink:href="#DejaVuSans-20" transform="translate(569.966797 0)"/>
     <use xlink:href="#DejaVuSans-70" transform="translate(601.753906 0)"/>
     <use xlink:href="#DejaVuSans-65" transform="translate(665.230469 0)"/>
     <use xlink:href="#DejaVuSans-72" transform="translate(726.753906 0)"/>
     <use xlink:href="#DejaVuSans-20" transform="translate(767.867188 0)"/>
     <use xlink:href="#DejaVuSans-73" transform="translate(799.654297 0)"/>
     <use xlink:href="#DejaVuSans-74" transform="translate(851.753906 0)"/>
     <use xlink:href="#DejaVuSans-65" transform="translate(890.962891 0)"/>
     <use xlink:href="#DejaVuSans-70" transform="translate(952.486328 0)"/>
     <use xlink:href="#DejaVuSans-20" transform="translate(1015.962891 0)"/>
     <use xlink:href="#DejaVuSans-77" transform="translate(1047.75 0)"/>
     <use xlink:href="#DejaVuSans-69" transform="translate(1129.537109 0)"/>
     <use xlink:href="#DejaVuSans-74" transform="translate(1157.320312 0)"/>
     <use xlink:href="#DejaVuSans-68" transform="translate(1196.529297 0)"/>
     <use xlink:href="#DejaVuSans-20" transform="translate(1259.908203 0)"/>
     <use xlink:href="#DejaVuSans-63" transform="translate(1291.695312 0)"/>
     <use xlink:href="#DejaVuSans-6f" transform="translate(1346.675781 0)"/>
     <use xlink:href="#DejaVuSans-6e" transform="translate(1407.857422 0)"/>
     <use xlink:href="#DejaVuSans-66" transform="translate(1471.236328 0)"/>
     <use xlink:href="#DejaVuSans-69" transform="translate(1506.441406 0)"/>
     <use xlink:href="#DejaVuSans-64" transform="translate(1534.224609 0)"/>
     <use xlink:href="#DejaVuSans-65" transform="translate(1597.701172 0)"/>
     <use xlink:href="#DejaVuSans-6e" transform="translate(1659.224609 0)"/>
     <use xlink:href="#DejaVuSans-63" transform="translate(1722.603516 0)"/>
     <use xlink:href="#DejaVuSans-65" transform="translate(1777.583984 0)"/>
     <use xlink:href="#DejaVuSans-20" transform="translate(1839.107422 0)"/>
     <use xlink:href="#DejaVuSans-69" transform="translate(1870.894531 0)"/>
     <use xlink:href="#DejaVuSans-6e" transform="translate(1898.677734 0)"/>
     <use xlink:href="#DejaVuSans-74" transform="translate(1962.056641 0)"/>
     <use xlink:href="#DejaVuSans-65" transform="translate(2001.265625 0)"/>
     <use xlink:href="#DejaVuSans-72" transform="translate(2062.789062 0)"/>
     <use xlink:href="#DejaVuSans-76" transform="translate(2103.902344 0)"/>
     <use xlink:href="#DejaVuSans-61" transform="translate(2163.082031 0)"/>
     <use xlink:href="#DejaVuSans-6c" transform="translate(2224.361328 0)"/>
     <use xlink:href="#DejaVuSans-20" transform="translate(2252.144531 0)"/>
     <use xlink:href="#DejaVuSans-70" transform="translate(2283.931641 0)"/>
     <use xlink:href="#DejaVuSans-65" transform="translate(2347.408203 0)"/>
     <use xlink:href="#DejaVuSans-72" transform="translate(2408.931641 0)"/>
     <use xlink:href="#DejaVuSans-20" transform="translate(2450.044922 0)"/>
     <use xlink:href="#DejaVuSans-73" transform="translate(2481.832031 0)"/>
     <use xlink:href="#DejaVuSans-69" transform="translate(2533.931641 0)"/>
     <use xlink:href="#DejaVuSans-6d" transform="translate(2561.714844 0)"/>
     <use xlink:href="#DejaVuSans-75" transform="translate(2659.126953 0)"/>
     <use xlink:href="#DejaVuSans-6c" transform="translate(2722.505859 0)"/>
     <use xlink:href="#DejaVuSans-61" transform="translate(2750.289062 0)"/>
     <use xlink:href="#DejaVuSans-74" transform="translate(2811.568359 0)"/>
     <use xlink:href="#DejaVuSans-69" transform="translate(2850.777344 0)"/>
     <use xlink:href="#DejaVuSans-6f" transform="translate(2878.560547 0)"/>
     <use xlink:href="#DejaVuSans-6e" transform="translate(2939.742188 0)"/>
     <use xlink:href="#DejaVuSans-20" transform="translate(3003.121094 0)"/>
     <use xlink:href="#DejaVuSans-73" transform="translate(3034.908203 0)"/>
     <use xlink:href="#DejaVuSans-74" transform="translate(3087.007812 0)"/>
     <use xlink:href="#DejaVuSans-65" transform="translate(3126.216797 0)"/>
     <use xlink:href="#DejaVuSans-70" transform="translate(3187.740234 0)"/>
    </g>
    <!-- Base Product: Cocaine, Recipe size: 10, T0: 50.0 -->
    <g transform="translate(278.956906 37.44) scale(0.14 -0.14)">
     <defs>
      <path id="DejaVuSans-42" d="M 1259 2228 
L 1259 519 
L 2272 519 
Q 2781 519 3026 730 
Q 3272 941 3272 1375 
Q 3272 1813 3026 2020 
Q 2781 2228 2272 2228 
L 1259 2228 
z
M 1259 4147 
L 1259 2741 
L 2194 2741 
Q 2656 2741 2882 2914 
Q 3109 3088 3109 3444 
Q 3109 3797 2882 3972 
Q 2656 4147 2194 4147 
L 1259 4147 
z
M 628 4666 
L 2241 4666 
Q 2963 4666 3353 4366 
Q 3744 4066 3744 3513 
Q 3744 3084 3544 2831 
Q 3344 2578 2956 2516 
Q 3422 2416 3680 2098 
Q 3938 1781 3938 1306 
Q 3938 681 3513 340 
Q 3088 0 2303 0 
L 628 0 
L 628 4666 
z
" transform="scale(0.015625)"/>
      <path id="DejaVuSans-3a" d="M 750 794 
L 1409 794 
L 1409 0 
L 750 0 
L 750 794 
z
M 750 3309 
L 1409 3309 
L 1409 2516 
L 750 2516 
L 750 3309 
z
" transform="scale(0.015625)"/>
      <path id="DejaVuSans-43" d="M 4122 4306 
L 4122 3641 
Q 3803 3938 3442 4084 
Q 3081 4231 2675 4231 
Q 1875 4231 1450 3742 
Q 1025 3253 1025 2328 
Q 1025 1406 1450 917 
Q 1875 428 2675 428 
Q 3081 428 3442 575 
Q 3803 722 4122 1019 
L 4122 359 
Q 3791 134 3420 21 
Q 3050 -91 2638 -91 
Q 1578 -91 968 557 
Q 359 1206 359 2328 
Q 359 3453 968 4101 
Q 1578 4750 2638 4750 
Q 3056 4750 3426 4639 
Q 3797 4528 4122 4306 
z
" transform="scale(0.015625)"/>
      <path id="DejaVuSans-2c" d="M 750 794 
L 1409 794 
L 1409 256 
L 897 -744 
L 494 -744 
L 750 256 
L 750 794 
z
" transform="scale(0.015625)"/>
      <path id="DejaVuSans-52" d="M 2841 2188 
Q 3044 2119 3236 1894 
Q 3428 1669 3622 1275 
L 4263 0 
L 3584 0 
L 2988 1197 
Q 2756 1666 2539 1819 
Q 2322 1972 1947 1972 
L 1259 1972 
L 1259 0 
L 628 0 
L 628 4666 
L 2053 4666 
Q 2853 4666 3247 4331 
Q 3641 3997 3641 3322 
Q 3641 2881 3436 2590 
Q 3231 2300 2841 2188 
z
M 1259 4147 
L 1259 2491 
L 2053 2491 
Q 2509 2491 2742 2702 
Q 2975 2913 2975 3322 
Q 2975 3731 2742 3939 
Q 2509 4147 2053 4147 
L 1259 4147 
z
" transform="scale(0.015625)"/>
      <path id="DejaVuSans-7a" d="M 353 3500 
L 3084 3500 
L 3084 2975 
L 922 459 
L 3084 459 
L 3084 0 
L 275 0 
L 275 525 
L 2438 3041 
L 353 3041 
L 353 3500 
z
" transform="scale(0.015625)"/>
      <path id="DejaVuSans-54" d="M -19 4666 
L 3928 4666 
L 3928 4134 
L 2272 4134 
L 2272 0 
L 1638 0 
L 1638 4134 
L -19 4134 
L -19 4666 
z
" transform="scale(0.015625)"/>
      <path id="DejaVuSans-2e" d="M 684 794 
L 1344 794 
L 1344 0 
L 684 0 
L 684 794 
z
" transform="scale(0.015625)"/>
     </defs>
     <use xlink:href="#DejaVuSans-42"/>
     <use xlink:href="#DejaVuSans-61" transform="translate(68.603516 0)"/>
     <use xlink:href="#DejaVuSans-73" transform="translate(129.882812 0)"/>
     <use xlink:href="#DejaVuSans-65" transform="translate(181.982422 0)"/>
     <use xlink:href="#DejaVuSans-20" transform="translate(243.505859 0)"/>
     <use xlink:href="#DejaVuSans-50" transform="translate(275.292969 0)"/>
     <use xlink:href="#DejaVuSans-72" transform="translate(333.845703 0)"/>
     <use xlink:href="#DejaVuSans-6f" transform="translate(372.708984 0)"/>
     <use xlink:href="#DejaVuSans-64" transform="translate(433.890625 0)"/>
     <use xlink:href="#DejaVuSans-75" transform="translate(497.367188 0)"/>
     <use xlink:href="#DejaVuSans-63" transform="translate(560.746094 0)"/>
     <use xlink:href="#DejaVuSans-74" transform="translate(615.726562 0)"/>
     <use xlink:href="#DejaVuSans-3a" transform="translate(654.935547 0)"/>
     <use xlink:href="#DejaVuSans-20" transform="translate(688.626953 0)"/>
     <use xlink:href="#DejaVuSans-43" transform="translate(720.414062 0)"/>
     <use xlink:href="#DejaVuSans-6f" transform="translate(790.238281 0)"/>
     <use xlink:href="#DejaVuSans-63" transform="translate(851.419922 0)"/>
     <use xlink:href="#DejaVuSans-61" transform="translate(906.400391 0)"/>
     <use xlink:href="#DejaVuSans-69" transform="translate(967.679688 0)"/>
     <use xlink:href="#DejaVuSans-6e" transform="translate(995.462891 0)"/>
     <use xlink:href="#DejaVuSans-65" transform="translate(1058.841797 0)"/>
     <use xlink:href="#DejaVuSans-2c" transform="translate(1120.365234 0)"/>
     <use xlink:href="#DejaVuSans-20" transform="translate(1152.152344 0)"/>
     <use xlink:href="#DejaVuSans-52" transform="translate(1183.939453 0)"/>
     <use xlink:href="#DejaVuSans-65" transform="translate(1248.921875 0)"/>
     <use xlink:href="#DejaVuSans-63" transform="translate(1310.445312 0)"/>
     <use xlink:href="#DejaVuSans-69" transform="translate(1365.425781 0)"/>
     <use xlink:href="#DejaVuSans-70" transform="translate(1393.208984 0)"/>
     <use xlink:href="#DejaVuSans-65" transform="translate(1456.685547 0)"/>
     <use xlink:href="#DejaVuSans-20" transform="translate(1518.208984 0)"/>
     <use xlink:href="#DejaVuSans-73" transform="translate(1549.996094 0)"/>
     <use xlink:href="#DejaVuSans-69" transform="translate(1602.095703 0)"/>
     <use xlink:href="#DejaVuSans-7a" transform="translate(1629.878906 0)"/>
     <use xlink:href="#DejaVuSans-65" transform="translate(1682.369141 0)"/>
     <use xlink:href="#DejaVuSans-3a" transform="translate(1743.892578 0)"/>
     <use xlink:href="#DejaVuSans-20" transform="translate(1777.583984 0)"/>
     <use xlink:href="#DejaVuSans-31" transform="translate(1809.371094 0)"/>
     <use xlink:href="#DejaVuSans-30" transform="translate(1872.994141 0)"/>
     <use xlink:href="#DejaVuSans-2c" transform="translate(1936.617188 0)"/>
     <use xlink:href="#DejaVuSans-20" transform="translate(1968.404297 0)"/>
     <use xlink:href="#DejaVuSans-54" transform="translate(2000.191406 0)"/>
     <use xlink:href="#DejaVuSans-30" transform="translate(2061.275391 0)"/>
     <use xlink:href="#DejaVuSans-3a" transform="translate(2124.898438 0)"/>
     <use xlink:href="#DejaVuSans-20" transform="translate(2158.589844 0)"/>
     <use xlink:href="#DejaVuSans-35" transform="translate(2190.376953 0)"/>
     <use xlink:href="#DejaVuSans-30" transform="translate(2254 0)"/>
     <use xlink:href="#DejaVuSans-2e" transform="translate(2317.623047 0)"/>
     <use xlink:href="#DejaVuSans-30" transform="translate(2349.410156 0)"/>
    </g>
   </g>
  </g>
 </g>
 <defs>
  <clipPath id="pcdd25e7d81">
   <rect x="50.87" y="43.44" width="793.996" height="346.6"/>
  </clipPath>
 </defs>
</svg>
