<?xml version="1.0" encoding="utf-8" standalone="no"?>
<!DOCTYPE svg PUBLIC "-//W3C//DTD SVG 1.1//EN"
  "http://www.w3.org/Graphics/SVG/1.1/DTD/svg11.dtd">
<svg xmlns:xlink="http://www.w3.org/1999/xlink" width="864pt" height="432pt" viewBox="0 0 864 432" xmlns="http://www.w3.org/2000/svg" version="1.1">
 <metadata>
  <rdf:RDF xmlns:dc="http://purl.org/dc/elements/1.1/" xmlns:cc="http://creativecommons.org/ns#" xmlns:rdf="http://www.w3.org/1999/02/22-rdf-syntax-ns#">
   <cc:Work>
    <dc:type rdf:resource="http://purl.org/dc/dcmitype/StillImage"/>
    <dc:date>2025-05-24T02:21:12.628150</dc:date>
    <dc:format>image/svg+xml</dc:format>
    <dc:creator>
     <cc:Agent>
      <dc:title>Matplotlib v3.10.3, https://matplotlib.org/</dc:title>
     </cc:Agent>
    </dc:creator>
   </cc:Work>
  </rdf:RDF>
 </metadata>
 <defs>
  <style type="text/css">*{stroke-linejoin: round; stroke-linecap: butt}</style>
 </defs>
 <g id="figure_1">
  <g id="patch_1">
   <path d="M 0 432 
L 864 432 
L 864 0 
L 0 0 
z
" style="fill: #ffffff"/>
  </g>
  <g id="axes_1">
   <g id="patch_2">
    <path d="M 50.87 390.04 
L 844.866 390.04 
L 844.866 43.44 
L 50.87 43.44 
z
" style="fill: #ffffff"/>
   </g>
   <g id="FillBetweenPolyCollection_1">
    <defs>
     <path id="m09720f320d" d="M 52.193327 -305.316445 
L 52.193327 -57.714545 
L 54.83998 -58.88796 
L 57.486633 -75.854464 
L 60.133287 -90.341202 
L 62.77994 -102.693102 
L 65.426593 -114.353943 
L 68.073247 -124.864074 
L 70.7199 -133.427228 
L 73.366553 -141.346257 
L 76.013207 -147.793194 
L 78.65986 -154.011882 
L 81.306513 -160.065441 
L 83.953167 -165.390579 
L 86.59982 -170.544968 
L 89.246473 -175.35955 
L 91.893127 -179.165215 
L 94.53978 -183.082032 
L 97.186433 -186.741383 
L 99.833087 -189.373308 
L 102.47974 -192.487081 
L 105.126393 -195.620502 
L 107.773047 -198.137773 
L 110.4197 -200.609579 
L 113.066353 -202.937044 
L 115.713007 -204.804753 
L 118.35966 -207.02917 
L 121.006313 -208.830889 
L 123.652967 -210.565661 
L 126.29962 -212.187102 
L 128.946273 -214.079042 
L 131.592927 -215.785939 
L 134.23958 -217.577111 
L 136.886233 -218.919136 
L 139.532887 -220.397663 
L 142.17954 -221.892111 
L 144.826193 -223.163442 
L 147.472847 -224.412498 
L 150.1195 -225.536537 
L 152.766153 -227.098544 
L 155.412807 -227.985782 
L 158.05946 -229.023876 
L 160.706113 -230.120202 
L 163.352767 -231.092041 
L 165.99942 -232.031587 
L 168.646073 -233.095051 
L 171.292727 -233.930347 
L 173.93938 -234.623645 
L 176.586033 -235.470548 
L 179.232687 -236.263452 
L 181.87934 -236.994255 
L 184.525993 -237.776124 
L 187.172647 -238.602543 
L 189.8193 -239.322148 
L 192.465953 -240.034463 
L 195.112607 -240.678792 
L 197.75926 -241.309805 
L 200.405913 -241.959775 
L 203.052567 -242.553038 
L 205.69922 -243.18739 
L 208.345873 -243.777864 
L 210.992527 -244.359644 
L 213.63918 -244.940568 
L 216.285833 -245.521615 
L 218.932487 -246.060555 
L 221.57914 -246.67534 
L 224.225793 -247.188279 
L 226.872447 -247.662225 
L 229.5191 -248.150018 
L 232.165753 -248.57691 
L 234.812407 -248.923865 
L 237.45906 -249.373969 
L 240.105713 -249.810308 
L 242.752367 -250.244979 
L 245.39902 -250.669204 
L 248.045673 -250.991826 
L 250.692327 -251.503747 
L 253.33898 -251.825311 
L 255.985633 -252.21761 
L 258.632287 -252.596063 
L 261.27894 -253.065204 
L 263.925593 -253.37162 
L 266.572247 -253.777682 
L 269.2189 -254.084871 
L 271.865553 -254.404542 
L 274.512207 -254.756607 
L 277.15886 -255.108692 
L 279.805513 -255.495676 
L 282.452167 -255.84711 
L 285.09882 -256.205304 
L 287.745473 -256.589397 
L 290.392127 -257.010792 
L 293.03878 -257.369393 
L 295.685433 -257.725021 
L 298.332087 -258.034144 
L 300.97874 -258.342738 
L 303.625393 -258.661227 
L 306.272047 -258.997512 
L 308.9187 -259.286682 
L 311.565353 -259.677616 
L 314.212007 -260.077591 
L 316.85866 -260.438106 
L 319.505313 -260.805666 
L 322.151967 -261.118821 
L 324.79862 -261.428677 
L 327.445273 -261.645075 
L 330.091927 -261.914454 
L 332.73858 -262.23278 
L 335.385233 -262.417619 
L 338.031887 -262.645053 
L 340.67854 -262.894559 
L 343.325193 -263.183973 
L 345.971847 -263.395729 
L 348.6185 -263.599951 
L 351.265153 -263.792079 
L 353.911807 -263.99675 
L 356.55846 -264.139156 
L 359.205113 -264.3356 
L 361.851767 -264.504313 
L 364.49842 -264.689844 
L 367.145073 -264.933038 
L 369.791727 -265.097271 
L 372.43838 -265.308946 
L 375.085033 -265.502051 
L 377.731687 -265.676057 
L 380.37834 -265.979765 
L 383.024993 -266.185575 
L 385.671647 -266.396395 
L 388.3183 -266.592962 
L 390.964953 -266.793926 
L 393.611607 -266.977299 
L 396.25826 -267.186245 
L 398.904913 -267.367704 
L 401.551567 -267.509662 
L 404.19822 -267.664204 
L 406.844873 -267.80779 
L 409.491527 -267.992507 
L 412.13818 -268.221977 
L 414.784833 -268.41044 
L 417.431487 -268.529553 
L 420.07814 -268.688818 
L 422.724793 -268.852359 
L 425.371447 -268.983729 
L 428.0181 -269.1546 
L 430.664753 -269.315698 
L 433.311407 -269.478709 
L 435.95806 -269.657358 
L 438.604713 -269.809578 
L 441.251367 -270.020846 
L 443.89802 -270.166917 
L 446.544673 -270.30635 
L 449.191327 -270.475796 
L 451.83798 -270.603664 
L 454.484633 -270.680711 
L 457.131287 -270.781132 
L 459.77794 -270.93042 
L 462.424593 -271.072826 
L 465.071247 -271.27713 
L 467.7179 -271.502976 
L 470.364553 -271.632188 
L 473.011207 -271.718112 
L 475.65786 -271.883974 
L 478.304513 -272.019783 
L 480.951167 -272.179374 
L 483.59782 -272.300075 
L 486.244473 -272.445902 
L 488.891127 -272.559477 
L 491.53778 -272.709294 
L 494.184433 -272.911725 
L 496.831087 -273.023996 
L 499.47774 -273.146408 
L 502.124393 -273.306324 
L 504.771047 -273.407153 
L 507.4177 -273.565522 
L 510.064353 -273.646682 
L 512.711007 -273.717986 
L 515.35766 -273.865442 
L 518.004313 -273.984473 
L 520.650967 -274.083877 
L 523.29762 -274.189022 
L 525.944273 -274.313306 
L 528.590927 -274.387054 
L 531.23758 -274.478883 
L 533.884233 -274.607566 
L 536.530887 -274.725131 
L 539.17754 -274.829503 
L 541.824193 -274.960832 
L 544.470847 -275.078316 
L 547.1175 -275.166969 
L 549.764153 -275.288077 
L 552.410807 -275.408534 
L 555.05746 -275.570771 
L 557.704113 -275.66256 
L 560.350767 -275.790061 
L 562.99742 -275.87623 
L 565.644073 -276.014441 
L 568.290727 -276.136282 
L 570.93738 -276.179652 
L 573.584033 -276.274413 
L 576.230687 -276.353903 
L 578.87734 -276.417348 
L 581.523993 -276.55165 
L 584.170647 -276.691409 
L 586.8173 -276.764425 
L 589.463953 -276.858982 
L 592.110607 -276.975244 
L 594.75726 -277.014867 
L 597.403913 -277.103519 
L 600.050567 -277.213633 
L 602.69722 -277.295485 
L 605.343873 -277.395621 
L 607.990527 -277.471364 
L 610.63718 -277.578708 
L 613.283833 -277.751249 
L 615.930487 -277.8443 
L 618.57714 -277.924808 
L 621.223793 -278.010202 
L 623.870447 -278.055445 
L 626.5171 -278.109483 
L 629.163753 -278.223872 
L 631.810407 -278.265857 
L 634.45706 -278.337162 
L 637.103713 -278.454768 
L 639.750367 -278.522693 
L 642.39702 -278.557266 
L 645.043673 -278.622015 
L 647.690327 -278.707043 
L 650.33698 -278.78637 
L 652.983633 -278.859711 
L 655.630287 -278.92446 
L 658.27694 -278.969254 
L 660.923593 -279.019383 
L 663.570247 -279.099158 
L 666.2169 -279.184064 
L 668.863553 -279.2357 
L 671.510207 -279.27512 
L 674.15686 -279.343289 
L 676.803513 -279.479016 
L 679.450167 -279.600328 
L 682.09682 -279.614133 
L 684.743473 -279.648258 
L 687.390127 -279.649032 
L 690.03678 -279.730843 
L 692.683433 -279.752019 
L 695.330087 -279.856675 
L 697.97674 -279.945369 
L 700.623393 -279.990489 
L 703.270047 -280.032148 
L 705.9167 -280.106059 
L 708.563353 -280.165229 
L 711.210007 -280.210023 
L 713.85666 -280.262799 
L 716.503313 -280.305476 
L 719.149967 -280.376618 
L 721.79662 -280.466492 
L 724.443273 -280.519187 
L 727.089927 -280.566547 
L 729.73658 -280.653286 
L 732.383233 -280.706469 
L 735.029887 -280.75896 
L 737.67654 -280.804773 
L 740.323193 -280.861458 
L 742.969847 -280.908208 
L 745.6165 -280.936306 
L 748.263153 -281.015674 
L 750.909807 -281.068735 
L 753.55646 -281.123181 
L 756.203113 -281.207272 
L 758.849767 -281.259071 
L 761.49642 -281.387917 
L 764.143073 -281.455312 
L 766.789727 -281.519613 
L 769.43638 -281.572633 
L 772.083033 -281.659168 
L 774.729687 -281.700135 
L 777.37634 -281.752626 
L 780.022993 -281.829428 
L 782.669647 -281.887498 
L 785.3163 -281.941903 
L 787.962953 -281.99806 
L 790.609607 -282.06403 
L 793.25626 -282.086061 
L 795.902913 -282.174672 
L 798.549567 -282.219304 
L 801.19622 -282.247077 
L 803.842873 -282.300504 
L 806.489527 -282.352344 
L 809.13618 -282.408867 
L 811.782833 -282.44568 
L 814.429487 -282.501469 
L 817.07614 -282.56862 
L 819.722793 -282.623066 
L 822.369447 -282.663422 
L 825.0161 -282.708379 
L 827.662753 -282.722958 
L 830.309407 -282.792756 
L 832.95606 -282.845532 
L 835.602713 -282.877051 
L 838.249367 -282.935081 
L 840.89602 -283.002476 
L 843.542673 -283.03257 
L 843.542673 -372.805455 
L 843.542673 -372.805455 
L 840.89602 -372.772673 
L 838.249367 -372.777763 
L 835.602713 -372.755977 
L 832.95606 -372.755733 
L 830.309407 -372.761189 
L 827.662753 -372.760375 
L 825.0161 -372.723073 
L 822.369447 -372.687563 
L 819.722793 -372.665695 
L 817.07614 -372.669564 
L 814.429487 -372.653072 
L 811.782833 -372.644113 
L 809.13618 -372.620901 
L 806.489527 -372.599074 
L 803.842873 -372.582174 
L 801.19622 -372.556356 
L 798.549567 -372.537868 
L 795.902913 -372.521661 
L 793.25626 -372.529886 
L 790.609607 -372.498978 
L 787.962953 -372.488309 
L 785.3163 -372.464568 
L 782.669647 -372.446487 
L 780.022993 -372.443881 
L 777.37634 -372.453166 
L 774.729687 -372.450763 
L 772.083033 -372.436673 
L 769.43638 -372.424741 
L 766.789727 -372.395014 
L 764.143073 -372.386829 
L 761.49642 -372.361785 
L 758.849767 -372.392652 
L 756.203113 -372.370173 
L 753.55646 -372.391634 
L 750.909807 -372.392164 
L 748.263153 -372.352866 
L 745.6165 -372.334745 
L 742.969847 -372.295326 
L 740.323193 -372.286937 
L 737.67654 -372.263725 
L 735.029887 -372.221415 
L 732.383233 -372.191321 
L 729.73658 -372.170308 
L 727.089927 -372.171937 
L 724.443273 -372.131989 
L 721.79662 -372.094931 
L 719.149967 -372.099777 
L 716.503313 -372.089637 
L 713.85666 -372.059258 
L 711.210007 -372.006808 
L 708.563353 -371.984655 
L 705.9167 -371.949919 
L 703.270047 -371.932123 
L 700.623393 -371.872384 
L 697.97674 -371.818467 
L 695.330087 -371.821888 
L 692.683433 -371.825553 
L 690.03678 -371.750542 
L 687.390127 -371.767605 
L 684.743473 -371.703142 
L 682.09682 -371.6647 
L 679.450167 -371.595757 
L 676.803513 -371.611516 
L 674.15686 -371.657247 
L 671.510207 -371.620272 
L 668.863553 -371.597793 
L 666.2169 -371.54803 
L 663.570247 -371.549781 
L 660.923593 -371.546483 
L 658.27694 -371.520217 
L 655.630287 -371.498878 
L 652.983633 -371.459948 
L 650.33698 -371.425456 
L 647.690327 -371.401185 
L 645.043673 -371.392959 
L 642.39702 -371.353785 
L 639.750367 -371.300316 
L 637.103713 -371.27572 
L 634.45706 -371.257476 
L 631.810407 -371.218179 
L 629.163753 -371.196393 
L 626.5171 -371.180307 
L 623.870447 -371.13197 
L 621.223793 -371.062294 
L 618.57714 -371.035214 
L 615.930487 -371.024585 
L 613.283833 -371.016319 
L 610.63718 -371.034359 
L 607.990527 -371.020024 
L 605.343873 -371.006912 
L 602.69722 -370.986673 
L 600.050567 -370.965008 
L 597.403913 -370.946032 
L 594.75726 -370.893378 
L 592.110607 -370.839176 
L 589.463953 -370.82472 
L 586.8173 -370.778052 
L 584.170647 -370.747714 
L 581.523993 -370.74747 
L 578.87734 -370.711227 
L 576.230687 -370.675554 
L 573.584033 -370.609991 
L 570.93738 -370.559536 
L 568.290727 -370.482286 
L 565.644073 -370.457201 
L 562.99742 -370.473164 
L 560.350767 -370.398561 
L 557.704113 -370.391842 
L 555.05746 -370.345499 
L 552.410807 -370.345744 
L 549.764153 -370.314062 
L 547.1175 -370.28466 
L 544.470847 -370.209446 
L 541.824193 -370.199632 
L 539.17754 -370.185827 
L 536.530887 -370.169009 
L 533.884233 -370.126454 
L 531.23758 -370.091107 
L 528.590927 -370.029657 
L 525.944273 -369.941493 
L 523.29762 -369.909811 
L 520.650967 -369.90582 
L 518.004313 -369.859601 
L 515.35766 -369.853614 
L 512.711007 -369.849339 
L 510.064353 -369.773473 
L 507.4177 -369.711045 
L 504.771047 -369.705955 
L 502.124393 -369.656681 
L 499.47774 -369.641492 
L 496.831087 -369.580571 
L 494.184433 -369.529383 
L 491.53778 -369.508737 
L 488.891127 -369.457549 
L 486.244473 -369.385674 
L 483.59782 -369.370973 
L 480.951167 -369.311926 
L 478.304513 -369.303496 
L 475.65786 -369.258417 
L 473.011207 -369.225309 
L 470.364553 -369.13458 
L 467.7179 -369.07484 
L 465.071247 -369.092758 
L 462.424593 -369.100373 
L 459.77794 -369.070605 
L 457.131287 -369.055945 
L 454.484633 -368.963505 
L 451.83798 -368.854044 
L 449.191327 -368.750935 
L 446.544673 -368.736071 
L 443.89802 -368.670671 
L 441.251367 -368.633573 
L 438.604713 -368.626406 
L 435.95806 -368.547242 
L 433.311407 -368.511691 
L 430.664753 -368.401537 
L 428.0181 -368.360652 
L 425.371447 -368.334671 
L 422.724793 -368.228793 
L 420.07814 -368.170723 
L 417.431487 -368.117092 
L 414.784833 -368.006042 
L 412.13818 -367.942678 
L 409.491527 -367.954447 
L 406.844873 -367.919996 
L 404.19822 -367.849872 
L 401.551567 -367.780603 
L 398.904913 -367.702416 
L 396.25826 -367.598656 
L 393.611607 -367.576136 
L 390.964953 -367.518351 
L 388.3183 -367.444033 
L 385.671647 -367.393985 
L 383.024993 -367.303541 
L 380.37834 -367.218431 
L 377.731687 -367.230078 
L 375.085033 -367.123426 
L 372.43838 -367.05151 
L 369.791727 -366.993033 
L 367.145073 -366.913747 
L 364.49842 -366.890453 
L 361.851767 -366.83108 
L 359.205113 -366.688919 
L 356.55846 -366.594606 
L 353.911807 -366.471421 
L 351.265153 -366.375886 
L 348.6185 -366.272696 
L 345.971847 -366.222159 
L 343.325193 -366.113919 
L 340.67854 -366.069735 
L 338.031887 -365.984585 
L 335.385233 -365.871662 
L 332.73858 -365.744893 
L 330.091927 -365.702909 
L 327.445273 -365.621667 
L 324.79862 -365.50227 
L 322.151967 -365.415083 
L 319.505313 -365.349113 
L 316.85866 -365.400423 
L 314.212007 -365.426119 
L 311.565353 -365.419522 
L 308.9187 -365.401848 
L 306.272047 -365.262863 
L 303.625393 -365.125954 
L 300.97874 -365.030135 
L 298.332087 -364.957893 
L 295.685433 -364.865576 
L 293.03878 -364.759005 
L 290.392127 -364.680411 
L 287.745473 -364.67243 
L 285.09882 -364.547331 
L 282.452167 -364.437136 
L 279.805513 -364.360904 
L 277.15886 -364.247248 
L 274.512207 -364.184047 
L 271.865553 -364.017533 
L 269.2189 -363.909782 
L 266.572247 -363.730685 
L 263.925593 -363.621793 
L 261.27894 -363.447909 
L 258.632287 -363.334049 
L 255.985633 -363.181992 
L 253.33898 -363.069924 
L 250.692327 -362.903614 
L 248.045673 -362.843875 
L 245.39902 -362.59445 
L 242.752367 -362.409612 
L 240.105713 -362.297381 
L 237.45906 -362.173544 
L 234.812407 -361.992615 
L 232.165753 -361.701694 
L 229.5191 -361.476703 
L 226.872447 -361.263563 
L 224.225793 -361.035803 
L 221.57914 -360.86428 
L 218.932487 -360.760886 
L 216.285833 -360.546198 
L 213.63918 -360.319904 
L 210.992527 -360.182303 
L 208.345873 -359.973438 
L 205.69922 -359.786116 
L 203.052567 -359.622086 
L 200.405913 -359.454229 
L 197.75926 -359.314103 
L 195.112607 -359.157363 
L 192.465953 -358.825598 
L 189.8193 -358.657415 
L 187.172647 -358.454006 
L 184.525993 -358.266521 
L 181.87934 -358.006631 
L 179.232687 -357.800576 
L 176.586033 -357.60686 
L 173.93938 -357.440672 
L 171.292727 -357.081786 
L 168.646073 -356.818801 
L 165.99942 -356.643491 
L 163.352767 -356.292057 
L 160.706113 -356.040271 
L 158.05946 -355.813366 
L 155.412807 -355.546065 
L 152.766153 -355.116933 
L 150.1195 -355.10378 
L 147.472847 -354.718098 
L 144.826193 -354.246208 
L 142.17954 -354.001792 
L 139.532887 -353.471588 
L 136.886233 -353.191581 
L 134.23958 -352.956328 
L 131.592927 -352.709754 
L 128.946273 -352.38422 
L 126.29962 -352.068907 
L 123.652967 -351.583374 
L 121.006313 -350.931084 
L 118.35966 -350.315525 
L 115.713007 -350.037798 
L 113.066353 -349.561429 
L 110.4197 -348.950716 
L 107.773047 -348.322411 
L 105.126393 -347.65318 
L 102.47974 -346.94062 
L 99.833087 -346.560314 
L 97.186433 -345.33616 
L 94.53978 -344.645224 
L 91.893127 -343.79258 
L 89.246473 -342.713479 
L 86.59982 -341.985445 
L 83.953167 -341.186472 
L 81.306513 -340.078132 
L 78.65986 -338.937052 
L 76.013207 -337.048268 
L 73.366553 -335.05434 
L 70.7199 -332.56873 
L 68.073247 -330.010308 
L 65.426593 -327.841762 
L 62.77994 -324.068756 
L 60.133287 -319.330304 
L 57.486633 -313.701826 
L 54.83998 -306.008154 
L 52.193327 -305.316445 
z
" style="stroke: #0000ff; stroke-opacity: 0.2"/>
    </defs>
    <g clip-path="url(#pb631df7ae5)">
     <use xlink:href="#m09720f320d" x="0" y="432" style="fill: #0000ff; fill-opacity: 0.2; stroke: #0000ff; stroke-opacity: 0.2"/>
    </g>
   </g>
   <g id="matplotlib.axis_1">
    <g id="xtick_1">
     <g id="line2d_1">
      <defs>
       <path id="mc597c5bec7" d="M 0 0 
L 0 3.5 
" style="stroke: #000000; stroke-width: 0.8"/>
      </defs>
      <g>
       <use xlink:href="#mc597c5bec7" x="181.87934" y="390.04" style="stroke: #000000; stroke-width: 0.8"/>
      </g>
     </g>
     <g id="text_1">
      <!-- 50 -->
      <g transform="translate(175.51684 404.638438) scale(0.1 -0.1)">
       <defs>
        <path id="DejaVuSans-35" d="M 691 4666 
L 3169 4666 
L 3169 4134 
L 1269 4134 
L 1269 2991 
Q 1406 3038 1543 3061 
Q 1681 3084 1819 3084 
Q 2600 3084 3056 2656 
Q 3513 2228 3513 1497 
Q 3513 744 3044 326 
Q 2575 -91 1722 -91 
Q 1428 -91 1123 -41 
Q 819 9 494 109 
L 494 744 
Q 775 591 1075 516 
Q 1375 441 1709 441 
Q 2250 441 2565 725 
Q 2881 1009 2881 1497 
Q 2881 1984 2565 2268 
Q 2250 2553 1709 2553 
Q 1456 2553 1204 2497 
Q 953 2441 691 2322 
L 691 4666 
z
" transform="scale(0.015625)"/>
        <path id="DejaVuSans-30" d="M 2034 4250 
Q 1547 4250 1301 3770 
Q 1056 3291 1056 2328 
Q 1056 1369 1301 889 
Q 1547 409 2034 409 
Q 2525 409 2770 889 
Q 3016 1369 3016 2328 
Q 3016 3291 2770 3770 
Q 2525 4250 2034 4250 
z
M 2034 4750 
Q 2819 4750 3233 4129 
Q 3647 3509 3647 2328 
Q 3647 1150 3233 529 
Q 2819 -91 2034 -91 
Q 1250 -91 836 529 
Q 422 1150 422 2328 
Q 422 3509 836 4129 
Q 1250 4750 2034 4750 
z
" transform="scale(0.015625)"/>
       </defs>
       <use xlink:href="#DejaVuSans-35"/>
       <use xlink:href="#DejaVuSans-30" transform="translate(63.623047 0)"/>
      </g>
     </g>
    </g>
    <g id="xtick_2">
     <g id="line2d_2">
      <g>
       <use xlink:href="#mc597c5bec7" x="314.212007" y="390.04" style="stroke: #000000; stroke-width: 0.8"/>
      </g>
     </g>
     <g id="text_2">
      <!-- 100 -->
      <g transform="translate(304.668257 404.638438) scale(0.1 -0.1)">
       <defs>
        <path id="DejaVuSans-31" d="M 794 531 
L 1825 531 
L 1825 4091 
L 703 3866 
L 703 4441 
L 1819 4666 
L 2450 4666 
L 2450 531 
L 3481 531 
L 3481 0 
L 794 0 
L 794 531 
z
" transform="scale(0.015625)"/>
       </defs>
       <use xlink:href="#DejaVuSans-31"/>
       <use xlink:href="#DejaVuSans-30" transform="translate(63.623047 0)"/>
       <use xlink:href="#DejaVuSans-30" transform="translate(127.246094 0)"/>
      </g>
     </g>
    </g>
    <g id="xtick_3">
     <g id="line2d_3">
      <g>
       <use xlink:href="#mc597c5bec7" x="446.544673" y="390.04" style="stroke: #000000; stroke-width: 0.8"/>
      </g>
     </g>
     <g id="text_3">
      <!-- 150 -->
      <g transform="translate(437.000923 404.638438) scale(0.1 -0.1)">
       <use xlink:href="#DejaVuSans-31"/>
       <use xlink:href="#DejaVuSans-35" transform="translate(63.623047 0)"/>
       <use xlink:href="#DejaVuSans-30" transform="translate(127.246094 0)"/>
      </g>
     </g>
    </g>
    <g id="xtick_4">
     <g id="line2d_4">
      <g>
       <use xlink:href="#mc597c5bec7" x="578.87734" y="390.04" style="stroke: #000000; stroke-width: 0.8"/>
      </g>
     </g>
     <g id="text_4">
      <!-- 200 -->
      <g transform="translate(569.33359 404.638438) scale(0.1 -0.1)">
       <defs>
        <path id="DejaVuSans-32" d="M 1228 531 
L 3431 531 
L 3431 0 
L 469 0 
L 469 531 
Q 828 903 1448 1529 
Q 2069 2156 2228 2338 
Q 2531 2678 2651 2914 
Q 2772 3150 2772 3378 
Q 2772 3750 2511 3984 
Q 2250 4219 1831 4219 
Q 1534 4219 1204 4116 
Q 875 4013 500 3803 
L 500 4441 
Q 881 4594 1212 4672 
Q 1544 4750 1819 4750 
Q 2544 4750 2975 4387 
Q 3406 4025 3406 3419 
Q 3406 3131 3298 2873 
Q 3191 2616 2906 2266 
Q 2828 2175 2409 1742 
Q 1991 1309 1228 531 
z
" transform="scale(0.015625)"/>
       </defs>
       <use xlink:href="#DejaVuSans-32"/>
       <use xlink:href="#DejaVuSans-30" transform="translate(63.623047 0)"/>
       <use xlink:href="#DejaVuSans-30" transform="translate(127.246094 0)"/>
      </g>
     </g>
    </g>
    <g id="xtick_5">
     <g id="line2d_5">
      <g>
       <use xlink:href="#mc597c5bec7" x="711.210007" y="390.04" style="stroke: #000000; stroke-width: 0.8"/>
      </g>
     </g>
     <g id="text_5">
      <!-- 250 -->
      <g transform="translate(701.666257 404.638438) scale(0.1 -0.1)">
       <use xlink:href="#DejaVuSans-32"/>
       <use xlink:href="#DejaVuSans-35" transform="translate(63.623047 0)"/>
       <use xlink:href="#DejaVuSans-30" transform="translate(127.246094 0)"/>
      </g>
     </g>
    </g>
    <g id="xtick_6">
     <g id="line2d_6">
      <g>
       <use xlink:href="#mc597c5bec7" x="843.542673" y="390.04" style="stroke: #000000; stroke-width: 0.8"/>
      </g>
     </g>
     <g id="text_6">
      <!-- 300 -->
      <g transform="translate(833.998923 404.638438) scale(0.1 -0.1)">
       <defs>
        <path id="DejaVuSans-33" d="M 2597 2516 
Q 3050 2419 3304 2112 
Q 3559 1806 3559 1356 
Q 3559 666 3084 287 
Q 2609 -91 1734 -91 
Q 1441 -91 1130 -33 
Q 819 25 488 141 
L 488 750 
Q 750 597 1062 519 
Q 1375 441 1716 441 
Q 2309 441 2620 675 
Q 2931 909 2931 1356 
Q 2931 1769 2642 2001 
Q 2353 2234 1838 2234 
L 1294 2234 
L 1294 2753 
L 1863 2753 
Q 2328 2753 2575 2939 
Q 2822 3125 2822 3475 
Q 2822 3834 2567 4026 
Q 2313 4219 1838 4219 
Q 1578 4219 1281 4162 
Q 984 4106 628 3988 
L 628 4550 
Q 988 4650 1302 4700 
Q 1616 4750 1894 4750 
Q 2613 4750 3031 4423 
Q 3450 4097 3450 3541 
Q 3450 3153 3228 2886 
Q 3006 2619 2597 2516 
z
" transform="scale(0.015625)"/>
       </defs>
       <use xlink:href="#DejaVuSans-33"/>
       <use xlink:href="#DejaVuSans-30" transform="translate(63.623047 0)"/>
       <use xlink:href="#DejaVuSans-30" transform="translate(127.246094 0)"/>
      </g>
     </g>
    </g>
    <g id="text_7">
     <!-- Step -->
     <g transform="translate(436.482844 418.316562) scale(0.1 -0.1)">
      <defs>
       <path id="DejaVuSans-53" d="M 3425 4513 
L 3425 3897 
Q 3066 4069 2747 4153 
Q 2428 4238 2131 4238 
Q 1616 4238 1336 4038 
Q 1056 3838 1056 3469 
Q 1056 3159 1242 3001 
Q 1428 2844 1947 2747 
L 2328 2669 
Q 3034 2534 3370 2195 
Q 3706 1856 3706 1288 
Q 3706 609 3251 259 
Q 2797 -91 1919 -91 
Q 1588 -91 1214 -16 
Q 841 59 441 206 
L 441 856 
Q 825 641 1194 531 
Q 1563 422 1919 422 
Q 2459 422 2753 634 
Q 3047 847 3047 1241 
Q 3047 1584 2836 1778 
Q 2625 1972 2144 2069 
L 1759 2144 
Q 1053 2284 737 2584 
Q 422 2884 422 3419 
Q 422 4038 858 4394 
Q 1294 4750 2059 4750 
Q 2388 4750 2728 4690 
Q 3069 4631 3425 4513 
z
" transform="scale(0.015625)"/>
       <path id="DejaVuSans-74" d="M 1172 4494 
L 1172 3500 
L 2356 3500 
L 2356 3053 
L 1172 3053 
L 1172 1153 
Q 1172 725 1289 603 
Q 1406 481 1766 481 
L 2356 481 
L 2356 0 
L 1766 0 
Q 1100 0 847 248 
Q 594 497 594 1153 
L 594 3053 
L 172 3053 
L 172 3500 
L 594 3500 
L 594 4494 
L 1172 4494 
z
" transform="scale(0.015625)"/>
       <path id="DejaVuSans-65" d="M 3597 1894 
L 3597 1613 
L 953 1613 
Q 991 1019 1311 708 
Q 1631 397 2203 397 
Q 2534 397 2845 478 
Q 3156 559 3463 722 
L 3463 178 
Q 3153 47 2828 -22 
Q 2503 -91 2169 -91 
Q 1331 -91 842 396 
Q 353 884 353 1716 
Q 353 2575 817 3079 
Q 1281 3584 2069 3584 
Q 2775 3584 3186 3129 
Q 3597 2675 3597 1894 
z
M 3022 2063 
Q 3016 2534 2758 2815 
Q 2500 3097 2075 3097 
Q 1594 3097 1305 2825 
Q 1016 2553 972 2059 
L 3022 2063 
z
" transform="scale(0.015625)"/>
       <path id="DejaVuSans-70" d="M 1159 525 
L 1159 -1331 
L 581 -1331 
L 581 3500 
L 1159 3500 
L 1159 2969 
Q 1341 3281 1617 3432 
Q 1894 3584 2278 3584 
Q 2916 3584 3314 3078 
Q 3713 2572 3713 1747 
Q 3713 922 3314 415 
Q 2916 -91 2278 -91 
Q 1894 -91 1617 61 
Q 1341 213 1159 525 
z
M 3116 1747 
Q 3116 2381 2855 2742 
Q 2594 3103 2138 3103 
Q 1681 3103 1420 2742 
Q 1159 2381 1159 1747 
Q 1159 1113 1420 752 
Q 1681 391 2138 391 
Q 2594 391 2855 752 
Q 3116 1113 3116 1747 
z
" transform="scale(0.015625)"/>
      </defs>
      <use xlink:href="#DejaVuSans-53"/>
      <use xlink:href="#DejaVuSans-74" transform="translate(63.476562 0)"/>
      <use xlink:href="#DejaVuSans-65" transform="translate(102.685547 0)"/>
      <use xlink:href="#DejaVuSans-70" transform="translate(164.208984 0)"/>
     </g>
    </g>
   </g>
   <g id="matplotlib.axis_2">
    <g id="ytick_1">
     <g id="line2d_7">
      <defs>
       <path id="m20a7ff9f5b" d="M 0 0 
L -3.5 0 
" style="stroke: #000000; stroke-width: 0.8"/>
      </defs>
      <g>
       <use xlink:href="#m20a7ff9f5b" x="50.87" y="384.076103" style="stroke: #000000; stroke-width: 0.8"/>
      </g>
     </g>
     <g id="text_8">
      <!-- 200 -->
      <g transform="translate(24.7825 387.875321) scale(0.1 -0.1)">
       <use xlink:href="#DejaVuSans-32"/>
       <use xlink:href="#DejaVuSans-30" transform="translate(63.623047 0)"/>
       <use xlink:href="#DejaVuSans-30" transform="translate(127.246094 0)"/>
      </g>
     </g>
    </g>
    <g id="ytick_2">
     <g id="line2d_8">
      <g>
       <use xlink:href="#m20a7ff9f5b" x="50.87" y="317.356623" style="stroke: #000000; stroke-width: 0.8"/>
      </g>
     </g>
     <g id="text_9">
      <!-- 300 -->
      <g transform="translate(24.7825 321.155841) scale(0.1 -0.1)">
       <use xlink:href="#DejaVuSans-33"/>
       <use xlink:href="#DejaVuSans-30" transform="translate(63.623047 0)"/>
       <use xlink:href="#DejaVuSans-30" transform="translate(127.246094 0)"/>
      </g>
     </g>
    </g>
    <g id="ytick_3">
     <g id="line2d_9">
      <g>
       <use xlink:href="#m20a7ff9f5b" x="50.87" y="250.637143" style="stroke: #000000; stroke-width: 0.8"/>
      </g>
     </g>
     <g id="text_10">
      <!-- 400 -->
      <g transform="translate(24.7825 254.436361) scale(0.1 -0.1)">
       <defs>
        <path id="DejaVuSans-34" d="M 2419 4116 
L 825 1625 
L 2419 1625 
L 2419 4116 
z
M 2253 4666 
L 3047 4666 
L 3047 1625 
L 3713 1625 
L 3713 1100 
L 3047 1100 
L 3047 0 
L 2419 0 
L 2419 1100 
L 313 1100 
L 313 1709 
L 2253 4666 
z
" transform="scale(0.015625)"/>
       </defs>
       <use xlink:href="#DejaVuSans-34"/>
       <use xlink:href="#DejaVuSans-30" transform="translate(63.623047 0)"/>
       <use xlink:href="#DejaVuSans-30" transform="translate(127.246094 0)"/>
      </g>
     </g>
    </g>
    <g id="ytick_4">
     <g id="line2d_10">
      <g>
       <use xlink:href="#m20a7ff9f5b" x="50.87" y="183.917663" style="stroke: #000000; stroke-width: 0.8"/>
      </g>
     </g>
     <g id="text_11">
      <!-- 500 -->
      <g transform="translate(24.7825 187.716881) scale(0.1 -0.1)">
       <use xlink:href="#DejaVuSans-35"/>
       <use xlink:href="#DejaVuSans-30" transform="translate(63.623047 0)"/>
       <use xlink:href="#DejaVuSans-30" transform="translate(127.246094 0)"/>
      </g>
     </g>
    </g>
    <g id="ytick_5">
     <g id="line2d_11">
      <g>
       <use xlink:href="#m20a7ff9f5b" x="50.87" y="117.198183" style="stroke: #000000; stroke-width: 0.8"/>
      </g>
     </g>
     <g id="text_12">
      <!-- 600 -->
      <g transform="translate(24.7825 120.997401) scale(0.1 -0.1)">
       <defs>
        <path id="DejaVuSans-36" d="M 2113 2584 
Q 1688 2584 1439 2293 
Q 1191 2003 1191 1497 
Q 1191 994 1439 701 
Q 1688 409 2113 409 
Q 2538 409 2786 701 
Q 3034 994 3034 1497 
Q 3034 2003 2786 2293 
Q 2538 2584 2113 2584 
z
M 3366 4563 
L 3366 3988 
Q 3128 4100 2886 4159 
Q 2644 4219 2406 4219 
Q 1781 4219 1451 3797 
Q 1122 3375 1075 2522 
Q 1259 2794 1537 2939 
Q 1816 3084 2150 3084 
Q 2853 3084 3261 2657 
Q 3669 2231 3669 1497 
Q 3669 778 3244 343 
Q 2819 -91 2113 -91 
Q 1303 -91 875 529 
Q 447 1150 447 2328 
Q 447 3434 972 4092 
Q 1497 4750 2381 4750 
Q 2619 4750 2861 4703 
Q 3103 4656 3366 4563 
z
" transform="scale(0.015625)"/>
       </defs>
       <use xlink:href="#DejaVuSans-36"/>
       <use xlink:href="#DejaVuSans-30" transform="translate(63.623047 0)"/>
       <use xlink:href="#DejaVuSans-30" transform="translate(127.246094 0)"/>
      </g>
     </g>
    </g>
    <g id="ytick_6">
     <g id="line2d_12">
      <g>
       <use xlink:href="#m20a7ff9f5b" x="50.87" y="50.478703" style="stroke: #000000; stroke-width: 0.8"/>
      </g>
     </g>
     <g id="text_13">
      <!-- 700 -->
      <g transform="translate(24.7825 54.277921) scale(0.1 -0.1)">
       <defs>
        <path id="DejaVuSans-37" d="M 525 4666 
L 3525 4666 
L 3525 4397 
L 1831 0 
L 1172 0 
L 2766 4134 
L 525 4134 
L 525 4666 
z
" transform="scale(0.015625)"/>
       </defs>
       <use xlink:href="#DejaVuSans-37"/>
       <use xlink:href="#DejaVuSans-30" transform="translate(63.623047 0)"/>
       <use xlink:href="#DejaVuSans-30" transform="translate(127.246094 0)"/>
      </g>
     </g>
    </g>
    <g id="text_14">
     <!-- Profit -->
     <g transform="translate(18.702813 229.779063) rotate(-90) scale(0.1 -0.1)">
      <defs>
       <path id="DejaVuSans-50" d="M 1259 4147 
L 1259 2394 
L 2053 2394 
Q 2494 2394 2734 2622 
Q 2975 2850 2975 3272 
Q 2975 3691 2734 3919 
Q 2494 4147 2053 4147 
L 1259 4147 
z
M 628 4666 
L 2053 4666 
Q 2838 4666 3239 4311 
Q 3641 3956 3641 3272 
Q 3641 2581 3239 2228 
Q 2838 1875 2053 1875 
L 1259 1875 
L 1259 0 
L 628 0 
L 628 4666 
z
" transform="scale(0.015625)"/>
       <path id="DejaVuSans-72" d="M 2631 2963 
Q 2534 3019 2420 3045 
Q 2306 3072 2169 3072 
Q 1681 3072 1420 2755 
Q 1159 2438 1159 1844 
L 1159 0 
L 581 0 
L 581 3500 
L 1159 3500 
L 1159 2956 
Q 1341 3275 1631 3429 
Q 1922 3584 2338 3584 
Q 2397 3584 2469 3576 
Q 2541 3569 2628 3553 
L 2631 2963 
z
" transform="scale(0.015625)"/>
       <path id="DejaVuSans-6f" d="M 1959 3097 
Q 1497 3097 1228 2736 
Q 959 2375 959 1747 
Q 959 1119 1226 758 
Q 1494 397 1959 397 
Q 2419 397 2687 759 
Q 2956 1122 2956 1747 
Q 2956 2369 2687 2733 
Q 2419 3097 1959 3097 
z
M 1959 3584 
Q 2709 3584 3137 3096 
Q 3566 2609 3566 1747 
Q 3566 888 3137 398 
Q 2709 -91 1959 -91 
Q 1206 -91 779 398 
Q 353 888 353 1747 
Q 353 2609 779 3096 
Q 1206 3584 1959 3584 
z
" transform="scale(0.015625)"/>
       <path id="DejaVuSans-66" d="M 2375 4863 
L 2375 4384 
L 1825 4384 
Q 1516 4384 1395 4259 
Q 1275 4134 1275 3809 
L 1275 3500 
L 2222 3500 
L 2222 3053 
L 1275 3053 
L 1275 0 
L 697 0 
L 697 3053 
L 147 3053 
L 147 3500 
L 697 3500 
L 697 3744 
Q 697 4328 969 4595 
Q 1241 4863 1831 4863 
L 2375 4863 
z
" transform="scale(0.015625)"/>
       <path id="DejaVuSans-69" d="M 603 3500 
L 1178 3500 
L 1178 0 
L 603 0 
L 603 3500 
z
M 603 4863 
L 1178 4863 
L 1178 4134 
L 603 4134 
L 603 4863 
z
" transform="scale(0.015625)"/>
      </defs>
      <use xlink:href="#DejaVuSans-50"/>
      <use xlink:href="#DejaVuSans-72" transform="translate(58.552734 0)"/>
      <use xlink:href="#DejaVuSans-6f" transform="translate(97.416016 0)"/>
      <use xlink:href="#DejaVuSans-66" transform="translate(158.597656 0)"/>
      <use xlink:href="#DejaVuSans-69" transform="translate(193.802734 0)"/>
      <use xlink:href="#DejaVuSans-74" transform="translate(221.585938 0)"/>
     </g>
    </g>
   </g>
   <g id="line2d_13">
    <path d="M 52.193327 250.484495 
L 54.83998 249.551953 
L 57.486633 237.22186 
L 60.133287 227.164237 
L 62.77994 218.619061 
L 65.426593 210.902157 
L 68.073247 204.562809 
L 70.7199 199.002011 
L 73.366553 193.799691 
L 78.65986 185.525543 
L 81.306513 181.928213 
L 83.953167 178.711474 
L 86.59982 175.734794 
L 89.246473 172.963476 
L 94.53978 168.136372 
L 97.186433 165.961229 
L 99.833087 164.033189 
L 102.47974 162.28616 
L 105.126393 160.363169 
L 110.4197 157.219853 
L 113.066353 155.750754 
L 121.006313 152.119013 
L 123.652967 150.925482 
L 134.23958 146.73328 
L 139.532887 145.065375 
L 142.17954 144.053058 
L 150.1195 141.679842 
L 152.766153 140.892272 
L 168.646073 137.043074 
L 176.586033 135.461296 
L 195.112607 132.081912 
L 221.57914 128.23019 
L 240.105713 125.946155 
L 269.2189 123.002663 
L 285.09882 121.623683 
L 295.685433 120.704702 
L 330.091927 118.191319 
L 345.971847 117.191056 
L 375.085033 115.687262 
L 404.19822 114.242962 
L 480.951167 111.25435 
L 520.650967 110.005151 
L 533.884233 109.63299 
L 568.290727 108.690716 
L 655.630287 106.788331 
L 690.03678 106.259307 
L 742.969847 105.398233 
L 843.542673 104.080988 
L 843.542673 104.080988 
" clip-path="url(#pb631df7ae5)" style="fill: none; stroke: #0000ff; stroke-width: 1.5; stroke-linecap: square"/>
   </g>
   <g id="patch_3">
    <path d="M 50.87 390.04 
L 50.87 43.44 
" style="fill: none; stroke: #000000; stroke-width: 0.8; stroke-linejoin: miter; stroke-linecap: square"/>
   </g>
   <g id="patch_4">
    <path d="M 844.866 390.04 
L 844.866 43.44 
" style="fill: none; stroke: #000000; stroke-width: 0.8; stroke-linejoin: miter; stroke-linecap: square"/>
   </g>
   <g id="patch_5">
    <path d="M 50.87 390.04 
L 844.866 390.04 
" style="fill: none; stroke: #000000; stroke-width: 0.8; stroke-linejoin: miter; stroke-linecap: square"/>
   </g>
   <g id="patch_6">
    <path d="M 50.87 43.44 
L 844.866 43.44 
" style="fill: none; stroke: #000000; stroke-width: 0.8; stroke-linejoin: miter; stroke-linecap: square"/>
   </g>
   <g id="text_15">
    <!-- Mean profit per step with confidence interval per simulation step -->
    <g transform="translate(220.284875 21.763062) scale(0.14 -0.14)">
     <defs>
      <path id="DejaVuSans-4d" d="M 628 4666 
L 1569 4666 
L 2759 1491 
L 3956 4666 
L 4897 4666 
L 4897 0 
L 4281 0 
L 4281 4097 
L 3078 897 
L 2444 897 
L 1241 4097 
L 1241 0 
L 628 0 
L 628 4666 
z
" transform="scale(0.015625)"/>
      <path id="DejaVuSans-61" d="M 2194 1759 
Q 1497 1759 1228 1600 
Q 959 1441 959 1056 
Q 959 750 1161 570 
Q 1363 391 1709 391 
Q 2188 391 2477 730 
Q 2766 1069 2766 1631 
L 2766 1759 
L 2194 1759 
z
M 3341 1997 
L 3341 0 
L 2766 0 
L 2766 531 
Q 2569 213 2275 61 
Q 1981 -91 1556 -91 
Q 1019 -91 701 211 
Q 384 513 384 1019 
Q 384 1609 779 1909 
Q 1175 2209 1959 2209 
L 2766 2209 
L 2766 2266 
Q 2766 2663 2505 2880 
Q 2244 3097 1772 3097 
Q 1472 3097 1187 3025 
Q 903 2953 641 2809 
L 641 3341 
Q 956 3463 1253 3523 
Q 1550 3584 1831 3584 
Q 2591 3584 2966 3190 
Q 3341 2797 3341 1997 
z
" transform="scale(0.015625)"/>
      <path id="DejaVuSans-6e" d="M 3513 2113 
L 3513 0 
L 2938 0 
L 2938 2094 
Q 2938 2591 2744 2837 
Q 2550 3084 2163 3084 
Q 1697 3084 1428 2787 
Q 1159 2491 1159 1978 
L 1159 0 
L 581 0 
L 581 3500 
L 1159 3500 
L 1159 2956 
Q 1366 3272 1645 3428 
Q 1925 3584 2291 3584 
Q 2894 3584 3203 3211 
Q 3513 2838 3513 2113 
z
" transform="scale(0.015625)"/>
      <path id="DejaVuSans-20" transform="scale(0.015625)"/>
      <path id="DejaVuSans-73" d="M 2834 3397 
L 2834 2853 
Q 2591 2978 2328 3040 
Q 2066 3103 1784 3103 
Q 1356 3103 1142 2972 
Q 928 2841 928 2578 
Q 928 2378 1081 2264 
Q 1234 2150 1697 2047 
L 1894 2003 
Q 2506 1872 2764 1633 
Q 3022 1394 3022 966 
Q 3022 478 2636 193 
Q 2250 -91 1575 -91 
Q 1294 -91 989 -36 
Q 684 19 347 128 
L 347 722 
Q 666 556 975 473 
Q 1284 391 1588 391 
Q 1994 391 2212 530 
Q 2431 669 2431 922 
Q 2431 1156 2273 1281 
Q 2116 1406 1581 1522 
L 1381 1569 
Q 847 1681 609 1914 
Q 372 2147 372 2553 
Q 372 3047 722 3315 
Q 1072 3584 1716 3584 
Q 2034 3584 2315 3537 
Q 2597 3491 2834 3397 
z
" transform="scale(0.015625)"/>
      <path id="DejaVuSans-77" d="M 269 3500 
L 844 3500 
L 1563 769 
L 2278 3500 
L 2956 3500 
L 3675 769 
L 4391 3500 
L 4966 3500 
L 4050 0 
L 3372 0 
L 2619 2869 
L 1863 0 
L 1184 0 
L 269 3500 
z
" transform="scale(0.015625)"/>
      <path id="DejaVuSans-68" d="M 3513 2113 
L 3513 0 
L 2938 0 
L 2938 2094 
Q 2938 2591 2744 2837 
Q 2550 3084 2163 3084 
Q 1697 3084 1428 2787 
Q 1159 2491 1159 1978 
L 1159 0 
L 581 0 
L 581 4863 
L 1159 4863 
L 1159 2956 
Q 1366 3272 1645 3428 
Q 1925 3584 2291 3584 
Q 2894 3584 3203 3211 
Q 3513 2838 3513 2113 
z
" transform="scale(0.015625)"/>
      <path id="DejaVuSans-63" d="M 3122 3366 
L 3122 2828 
Q 2878 2963 2633 3030 
Q 2388 3097 2138 3097 
Q 1578 3097 1268 2742 
Q 959 2388 959 1747 
Q 959 1106 1268 751 
Q 1578 397 2138 397 
Q 2388 397 2633 464 
Q 2878 531 3122 666 
L 3122 134 
Q 2881 22 2623 -34 
Q 2366 -91 2075 -91 
Q 1284 -91 818 406 
Q 353 903 353 1747 
Q 353 2603 823 3093 
Q 1294 3584 2113 3584 
Q 2378 3584 2631 3529 
Q 2884 3475 3122 3366 
z
" transform="scale(0.015625)"/>
      <path id="DejaVuSans-64" d="M 2906 2969 
L 2906 4863 
L 3481 4863 
L 3481 0 
L 2906 0 
L 2906 525 
Q 2725 213 2448 61 
Q 2172 -91 1784 -91 
Q 1150 -91 751 415 
Q 353 922 353 1747 
Q 353 2572 751 3078 
Q 1150 3584 1784 3584 
Q 2172 3584 2448 3432 
Q 2725 3281 2906 2969 
z
M 947 1747 
Q 947 1113 1208 752 
Q 1469 391 1925 391 
Q 2381 391 2643 752 
Q 2906 1113 2906 1747 
Q 2906 2381 2643 2742 
Q 2381 3103 1925 3103 
Q 1469 3103 1208 2742 
Q 947 2381 947 1747 
z
" transform="scale(0.015625)"/>
      <path id="DejaVuSans-76" d="M 191 3500 
L 800 3500 
L 1894 563 
L 2988 3500 
L 3597 3500 
L 2284 0 
L 1503 0 
L 191 3500 
z
" transform="scale(0.015625)"/>
      <path id="DejaVuSans-6c" d="M 603 4863 
L 1178 4863 
L 1178 0 
L 603 0 
L 603 4863 
z
" transform="scale(0.015625)"/>
      <path id="DejaVuSans-6d" d="M 3328 2828 
Q 3544 3216 3844 3400 
Q 4144 3584 4550 3584 
Q 5097 3584 5394 3201 
Q 5691 2819 5691 2113 
L 5691 0 
L 5113 0 
L 5113 2094 
Q 5113 2597 4934 2840 
Q 4756 3084 4391 3084 
Q 3944 3084 3684 2787 
Q 3425 2491 3425 1978 
L 3425 0 
L 2847 0 
L 2847 2094 
Q 2847 2600 2669 2842 
Q 2491 3084 2119 3084 
Q 1678 3084 1418 2786 
Q 1159 2488 1159 1978 
L 1159 0 
L 581 0 
L 581 3500 
L 1159 3500 
L 1159 2956 
Q 1356 3278 1631 3431 
Q 1906 3584 2284 3584 
Q 2666 3584 2933 3390 
Q 3200 3197 3328 2828 
z
" transform="scale(0.015625)"/>
      <path id="DejaVuSans-75" d="M 544 1381 
L 544 3500 
L 1119 3500 
L 1119 1403 
Q 1119 906 1312 657 
Q 1506 409 1894 409 
Q 2359 409 2629 706 
Q 2900 1003 2900 1516 
L 2900 3500 
L 3475 3500 
L 3475 0 
L 2900 0 
L 2900 538 
Q 2691 219 2414 64 
Q 2138 -91 1772 -91 
Q 1169 -91 856 284 
Q 544 659 544 1381 
z
M 1991 3584 
L 1991 3584 
z
" transform="scale(0.015625)"/>
     </defs>
     <use xlink:href="#DejaVuSans-4d"/>
     <use xlink:href="#DejaVuSans-65" transform="translate(86.279297 0)"/>
     <use xlink:href="#DejaVuSans-61" transform="translate(147.802734 0)"/>
     <use xlink:href="#DejaVuSans-6e" transform="translate(209.082031 0)"/>
     <use xlink:href="#DejaVuSans-20" transform="translate(272.460938 0)"/>
     <use xlink:href="#DejaVuSans-70" transform="translate(304.248047 0)"/>
     <use xlink:href="#DejaVuSans-72" transform="translate(367.724609 0)"/>
     <use xlink:href="#DejaVuSans-6f" transform="translate(406.587891 0)"/>
     <use xlink:href="#DejaVuSans-66" transform="translate(467.769531 0)"/>
     <use xlink:href="#DejaVuSans-69" transform="translate(502.974609 0)"/>
     <use xlink:href="#DejaVuSans-74" transform="translate(530.757812 0)"/>
     <use xlink:href="#DejaVuSans-20" transform="translate(569.966797 0)"/>
     <use xlink:href="#DejaVuSans-70" transform="translate(601.753906 0)"/>
     <use xlink:href="#DejaVuSans-65" transform="translate(665.230469 0)"/>
     <use xlink:href="#DejaVuSans-72" transform="translate(726.753906 0)"/>
     <use xlink:href="#DejaVuSans-20" transform="translate(767.867188 0)"/>
     <use xlink:href="#DejaVuSans-73" transform="translate(799.654297 0)"/>
     <use xlink:href="#DejaVuSans-74" transform="translate(851.753906 0)"/>
     <use xlink:href="#DejaVuSans-65" transform="translate(890.962891 0)"/>
     <use xlink:href="#DejaVuSans-70" transform="translate(952.486328 0)"/>
     <use xlink:href="#DejaVuSans-20" transform="translate(1015.962891 0)"/>
     <use xlink:href="#DejaVuSans-77" transform="translate(1047.75 0)"/>
     <use xlink:href="#DejaVuSans-69" transform="translate(1129.537109 0)"/>
     <use xlink:href="#DejaVuSans-74" transform="translate(1157.320312 0)"/>
     <use xlink:href="#DejaVuSans-68" transform="translate(1196.529297 0)"/>
     <use xlink:href="#DejaVuSans-20" transform="translate(1259.908203 0)"/>
     <use xlink:href="#DejaVuSans-63" transform="translate(1291.695312 0)"/>
     <use xlink:href="#DejaVuSans-6f" transform="translate(1346.675781 0)"/>
     <use xlink:href="#DejaVuSans-6e" transform="translate(1407.857422 0)"/>
     <use xlink:href="#DejaVuSans-66" transform="translate(1471.236328 0)"/>
     <use xlink:href="#DejaVuSans-69" transform="translate(1506.441406 0)"/>
     <use xlink:href="#DejaVuSans-64" transform="translate(1534.224609 0)"/>
     <use xlink:href="#DejaVuSans-65" transform="translate(1597.701172 0)"/>
     <use xlink:href="#DejaVuSans-6e" transform="translate(1659.224609 0)"/>
     <use xlink:href="#DejaVuSans-63" transform="translate(1722.603516 0)"/>
     <use xlink:href="#DejaVuSans-65" transform="translate(1777.583984 0)"/>
     <use xlink:href="#DejaVuSans-20" transform="translate(1839.107422 0)"/>
     <use xlink:href="#DejaVuSans-69" transform="translate(1870.894531 0)"/>
     <use xlink:href="#DejaVuSans-6e" transform="translate(1898.677734 0)"/>
     <use xlink:href="#DejaVuSans-74" transform="translate(1962.056641 0)"/>
     <use xlink:href="#DejaVuSans-65" transform="translate(2001.265625 0)"/>
     <use xlink:href="#DejaVuSans-72" transform="translate(2062.789062 0)"/>
     <use xlink:href="#DejaVuSans-76" transform="translate(2103.902344 0)"/>
     <use xlink:href="#DejaVuSans-61" transform="translate(2163.082031 0)"/>
     <use xlink:href="#DejaVuSans-6c" transform="translate(2224.361328 0)"/>
     <use xlink:href="#DejaVuSans-20" transform="translate(2252.144531 0)"/>
     <use xlink:href="#DejaVuSans-70" transform="translate(2283.931641 0)"/>
     <use xlink:href="#DejaVuSans-65" transform="translate(2347.408203 0)"/>
     <use xlink:href="#DejaVuSans-72" transform="translate(2408.931641 0)"/>
     <use xlink:href="#DejaVuSans-20" transform="translate(2450.044922 0)"/>
     <use xlink:href="#DejaVuSans-73" transform="translate(2481.832031 0)"/>
     <use xlink:href="#DejaVuSans-69" transform="translate(2533.931641 0)"/>
     <use xlink:href="#DejaVuSans-6d" transform="translate(2561.714844 0)"/>
     <use xlink:href="#DejaVuSans-75" transform="translate(2659.126953 0)"/>
     <use xlink:href="#DejaVuSans-6c" transform="translate(2722.505859 0)"/>
     <use xlink:href="#DejaVuSans-61" transform="translate(2750.289062 0)"/>
     <use xlink:href="#DejaVuSans-74" transform="translate(2811.568359 0)"/>
     <use xlink:href="#DejaVuSans-69" transform="translate(2850.777344 0)"/>
     <use xlink:href="#DejaVuSans-6f" transform="translate(2878.560547 0)"/>
     <use xlink:href="#DejaVuSans-6e" transform="translate(2939.742188 0)"/>
     <use xlink:href="#DejaVuSans-20" transform="translate(3003.121094 0)"/>
     <use xlink:href="#DejaVuSans-73" transform="translate(3034.908203 0)"/>
     <use xlink:href="#DejaVuSans-74" transform="translate(3087.007812 0)"/>
     <use xlink:href="#DejaVuSans-65" transform="translate(3126.216797 0)"/>
     <use xlink:href="#DejaVuSans-70" transform="translate(3187.740234 0)"/>
    </g>
    <!-- Base Product: Cocaine, Recipe size: 8, T0: 10.0 -->
    <g transform="translate(283.410656 37.44) scale(0.14 -0.14)">
     <defs>
      <path id="DejaVuSans-42" d="M 1259 2228 
L 1259 519 
L 2272 519 
Q 2781 519 3026 730 
Q 3272 941 3272 1375 
Q 3272 1813 3026 2020 
Q 2781 2228 2272 2228 
L 1259 2228 
z
M 1259 4147 
L 1259 2741 
L 2194 2741 
Q 2656 2741 2882 2914 
Q 3109 3088 3109 3444 
Q 3109 3797 2882 3972 
Q 2656 4147 2194 4147 
L 1259 4147 
z
M 628 4666 
L 2241 4666 
Q 2963 4666 3353 4366 
Q 3744 4066 3744 3513 
Q 3744 3084 3544 2831 
Q 3344 2578 2956 2516 
Q 3422 2416 3680 2098 
Q 3938 1781 3938 1306 
Q 3938 681 3513 340 
Q 3088 0 2303 0 
L 628 0 
L 628 4666 
z
" transform="scale(0.015625)"/>
      <path id="DejaVuSans-3a" d="M 750 794 
L 1409 794 
L 1409 0 
L 750 0 
L 750 794 
z
M 750 3309 
L 1409 3309 
L 1409 2516 
L 750 2516 
L 750 3309 
z
" transform="scale(0.015625)"/>
      <path id="DejaVuSans-43" d="M 4122 4306 
L 4122 3641 
Q 3803 3938 3442 4084 
Q 3081 4231 2675 4231 
Q 1875 4231 1450 3742 
Q 1025 3253 1025 2328 
Q 1025 1406 1450 917 
Q 1875 428 2675 428 
Q 3081 428 3442 575 
Q 3803 722 4122 1019 
L 4122 359 
Q 3791 134 3420 21 
Q 3050 -91 2638 -91 
Q 1578 -91 968 557 
Q 359 1206 359 2328 
Q 359 3453 968 4101 
Q 1578 4750 2638 4750 
Q 3056 4750 3426 4639 
Q 3797 4528 4122 4306 
z
" transform="scale(0.015625)"/>
      <path id="DejaVuSans-2c" d="M 750 794 
L 1409 794 
L 1409 256 
L 897 -744 
L 494 -744 
L 750 256 
L 750 794 
z
" transform="scale(0.015625)"/>
      <path id="DejaVuSans-52" d="M 2841 2188 
Q 3044 2119 3236 1894 
Q 3428 1669 3622 1275 
L 4263 0 
L 3584 0 
L 2988 1197 
Q 2756 1666 2539 1819 
Q 2322 1972 1947 1972 
L 1259 1972 
L 1259 0 
L 628 0 
L 628 4666 
L 2053 4666 
Q 2853 4666 3247 4331 
Q 3641 3997 3641 3322 
Q 3641 2881 3436 2590 
Q 3231 2300 2841 2188 
z
M 1259 4147 
L 1259 2491 
L 2053 2491 
Q 2509 2491 2742 2702 
Q 2975 2913 2975 3322 
Q 2975 3731 2742 3939 
Q 2509 4147 2053 4147 
L 1259 4147 
z
" transform="scale(0.015625)"/>
      <path id="DejaVuSans-7a" d="M 353 3500 
L 3084 3500 
L 3084 2975 
L 922 459 
L 3084 459 
L 3084 0 
L 275 0 
L 275 525 
L 2438 3041 
L 353 3041 
L 353 3500 
z
" transform="scale(0.015625)"/>
      <path id="DejaVuSans-38" d="M 2034 2216 
Q 1584 2216 1326 1975 
Q 1069 1734 1069 1313 
Q 1069 891 1326 650 
Q 1584 409 2034 409 
Q 2484 409 2743 651 
Q 3003 894 3003 1313 
Q 3003 1734 2745 1975 
Q 2488 2216 2034 2216 
z
M 1403 2484 
Q 997 2584 770 2862 
Q 544 3141 544 3541 
Q 544 4100 942 4425 
Q 1341 4750 2034 4750 
Q 2731 4750 3128 4425 
Q 3525 4100 3525 3541 
Q 3525 3141 3298 2862 
Q 3072 2584 2669 2484 
Q 3125 2378 3379 2068 
Q 3634 1759 3634 1313 
Q 3634 634 3220 271 
Q 2806 -91 2034 -91 
Q 1263 -91 848 271 
Q 434 634 434 1313 
Q 434 1759 690 2068 
Q 947 2378 1403 2484 
z
M 1172 3481 
Q 1172 3119 1398 2916 
Q 1625 2713 2034 2713 
Q 2441 2713 2670 2916 
Q 2900 3119 2900 3481 
Q 2900 3844 2670 4047 
Q 2441 4250 2034 4250 
Q 1625 4250 1398 4047 
Q 1172 3844 1172 3481 
z
" transform="scale(0.015625)"/>
      <path id="DejaVuSans-54" d="M -19 4666 
L 3928 4666 
L 3928 4134 
L 2272 4134 
L 2272 0 
L 1638 0 
L 1638 4134 
L -19 4134 
L -19 4666 
z
" transform="scale(0.015625)"/>
      <path id="DejaVuSans-2e" d="M 684 794 
L 1344 794 
L 1344 0 
L 684 0 
L 684 794 
z
" transform="scale(0.015625)"/>
     </defs>
     <use xlink:href="#DejaVuSans-42"/>
     <use xlink:href="#DejaVuSans-61" transform="translate(68.603516 0)"/>
     <use xlink:href="#DejaVuSans-73" transform="translate(129.882812 0)"/>
     <use xlink:href="#DejaVuSans-65" transform="translate(181.982422 0)"/>
     <use xlink:href="#DejaVuSans-20" transform="translate(243.505859 0)"/>
     <use xlink:href="#DejaVuSans-50" transform="translate(275.292969 0)"/>
     <use xlink:href="#DejaVuSans-72" transform="translate(333.845703 0)"/>
     <use xlink:href="#DejaVuSans-6f" transform="translate(372.708984 0)"/>
     <use xlink:href="#DejaVuSans-64" transform="translate(433.890625 0)"/>
     <use xlink:href="#DejaVuSans-75" transform="translate(497.367188 0)"/>
     <use xlink:href="#DejaVuSans-63" transform="translate(560.746094 0)"/>
     <use xlink:href="#DejaVuSans-74" transform="translate(615.726562 0)"/>
     <use xlink:href="#DejaVuSans-3a" transform="translate(654.935547 0)"/>
     <use xlink:href="#DejaVuSans-20" transform="translate(688.626953 0)"/>
     <use xlink:href="#DejaVuSans-43" transform="translate(720.414062 0)"/>
     <use xlink:href="#DejaVuSans-6f" transform="translate(790.238281 0)"/>
     <use xlink:href="#DejaVuSans-63" transform="translate(851.419922 0)"/>
     <use xlink:href="#DejaVuSans-61" transform="translate(906.400391 0)"/>
     <use xlink:href="#DejaVuSans-69" transform="translate(967.679688 0)"/>
     <use xlink:href="#DejaVuSans-6e" transform="translate(995.462891 0)"/>
     <use xlink:href="#DejaVuSans-65" transform="translate(1058.841797 0)"/>
     <use xlink:href="#DejaVuSans-2c" transform="translate(1120.365234 0)"/>
     <use xlink:href="#DejaVuSans-20" transform="translate(1152.152344 0)"/>
     <use xlink:href="#DejaVuSans-52" transform="translate(1183.939453 0)"/>
     <use xlink:href="#DejaVuSans-65" transform="translate(1248.921875 0)"/>
     <use xlink:href="#DejaVuSans-63" transform="translate(1310.445312 0)"/>
     <use xlink:href="#DejaVuSans-69" transform="translate(1365.425781 0)"/>
     <use xlink:href="#DejaVuSans-70" transform="translate(1393.208984 0)"/>
     <use xlink:href="#DejaVuSans-65" transform="translate(1456.685547 0)"/>
     <use xlink:href="#DejaVuSans-20" transform="translate(1518.208984 0)"/>
     <use xlink:href="#DejaVuSans-73" transform="translate(1549.996094 0)"/>
     <use xlink:href="#DejaVuSans-69" transform="translate(1602.095703 0)"/>
     <use xlink:href="#DejaVuSans-7a" transform="translate(1629.878906 0)"/>
     <use xlink:href="#DejaVuSans-65" transform="translate(1682.369141 0)"/>
     <use xlink:href="#DejaVuSans-3a" transform="translate(1743.892578 0)"/>
     <use xlink:href="#DejaVuSans-20" transform="translate(1777.583984 0)"/>
     <use xlink:href="#DejaVuSans-38" transform="translate(1809.371094 0)"/>
     <use xlink:href="#DejaVuSans-2c" transform="translate(1872.994141 0)"/>
     <use xlink:href="#DejaVuSans-20" transform="translate(1904.78125 0)"/>
     <use xlink:href="#DejaVuSans-54" transform="translate(1936.568359 0)"/>
     <use xlink:href="#DejaVuSans-30" transform="translate(1997.652344 0)"/>
     <use xlink:href="#DejaVuSans-3a" transform="translate(2061.275391 0)"/>
     <use xlink:href="#DejaVuSans-20" transform="translate(2094.966797 0)"/>
     <use xlink:href="#DejaVuSans-31" transform="translate(2126.753906 0)"/>
     <use xlink:href="#DejaVuSans-30" transform="translate(2190.376953 0)"/>
     <use xlink:href="#DejaVuSans-2e" transform="translate(2254 0)"/>
     <use xlink:href="#DejaVuSans-30" transform="translate(2285.787109 0)"/>
    </g>
   </g>
  </g>
 </g>
 <defs>
  <clipPath id="pb631df7ae5">
   <rect x="50.87" y="43.44" width="793.996" height="346.6"/>
  </clipPath>
 </defs>
</svg>
