<?xml version="1.0" encoding="utf-8" standalone="no"?>
<!DOCTYPE svg PUBLIC "-//W3C//DTD SVG 1.1//EN"
  "http://www.w3.org/Graphics/SVG/1.1/DTD/svg11.dtd">
<svg xmlns:xlink="http://www.w3.org/1999/xlink" width="864pt" height="432pt" viewBox="0 0 864 432" xmlns="http://www.w3.org/2000/svg" version="1.1">
 <metadata>
  <rdf:RDF xmlns:dc="http://purl.org/dc/elements/1.1/" xmlns:cc="http://creativecommons.org/ns#" xmlns:rdf="http://www.w3.org/1999/02/22-rdf-syntax-ns#">
   <cc:Work>
    <dc:type rdf:resource="http://purl.org/dc/dcmitype/StillImage"/>
    <dc:date>2025-05-24T02:22:34.213334</dc:date>
    <dc:format>image/svg+xml</dc:format>
    <dc:creator>
     <cc:Agent>
      <dc:title>Matplotlib v3.10.3, https://matplotlib.org/</dc:title>
     </cc:Agent>
    </dc:creator>
   </cc:Work>
  </rdf:RDF>
 </metadata>
 <defs>
  <style type="text/css">*{stroke-linejoin: round; stroke-linecap: butt}</style>
 </defs>
 <g id="figure_1">
  <g id="patch_1">
   <path d="M 0 432 
L 864 432 
L 864 0 
L 0 0 
z
" style="fill: #ffffff"/>
  </g>
  <g id="axes_1">
   <g id="patch_2">
    <path d="M 50.87 390.04 
L 844.866 390.04 
L 844.866 43.44 
L 50.87 43.44 
z
" style="fill: #ffffff"/>
   </g>
   <g id="FillBetweenPolyCollection_1">
    <defs>
     <path id="mc93f9471e2" d="M 52.193327 -306.412853 
L 52.193327 -58.794252 
L 54.83998 -57.714545 
L 57.486633 -66.779491 
L 60.133287 -77.276708 
L 62.77994 -87.732288 
L 65.426593 -97.375629 
L 68.073247 -104.642816 
L 70.7199 -111.421694 
L 73.366553 -118.394124 
L 76.013207 -124.579098 
L 78.65986 -129.06133 
L 81.306513 -134.77866 
L 83.953167 -139.664992 
L 86.59982 -143.88133 
L 89.246473 -147.36682 
L 91.893127 -150.994678 
L 94.53978 -154.541683 
L 97.186433 -158.059907 
L 99.833087 -160.685185 
L 102.47974 -163.7732 
L 105.126393 -166.546726 
L 107.773047 -169.342944 
L 110.4197 -171.497057 
L 113.066353 -172.947695 
L 115.713007 -174.978034 
L 118.35966 -177.477321 
L 121.006313 -178.853649 
L 123.652967 -180.870881 
L 126.29962 -182.301248 
L 128.946273 -183.869574 
L 131.592927 -185.153184 
L 134.23958 -186.539657 
L 136.886233 -188.246168 
L 139.532887 -189.502924 
L 142.17954 -191.122226 
L 144.826193 -192.373018 
L 147.472847 -193.264019 
L 150.1195 -194.298051 
L 152.766153 -195.658725 
L 155.412807 -196.649152 
L 158.05946 -197.844434 
L 160.706113 -198.557537 
L 163.352767 -199.754497 
L 165.99942 -200.339601 
L 168.646073 -200.990548 
L 171.292727 -201.739698 
L 173.93938 -202.926388 
L 176.586033 -203.980359 
L 179.232687 -204.975382 
L 181.87934 -205.675689 
L 184.525993 -206.390718 
L 187.172647 -207.300333 
L 189.8193 -207.752158 
L 192.465953 -208.705419 
L 195.112607 -209.387734 
L 197.75926 -210.176866 
L 200.405913 -210.799219 
L 203.052567 -211.39658 
L 205.69922 -212.393053 
L 208.345873 -212.71806 
L 210.992527 -213.439942 
L 213.63918 -214.246632 
L 216.285833 -214.836892 
L 218.932487 -215.135459 
L 221.57914 -215.689568 
L 224.225793 -216.325338 
L 226.872447 -216.654258 
L 229.5191 -217.288951 
L 232.165753 -218.220803 
L 234.812407 -218.759218 
L 237.45906 -218.861542 
L 240.105713 -219.160171 
L 242.752367 -219.479567 
L 245.39902 -220.026968 
L 248.045673 -220.171054 
L 250.692327 -220.474756 
L 253.33898 -220.703609 
L 255.985633 -221.361947 
L 258.632287 -221.907277 
L 261.27894 -221.865412 
L 263.925593 -222.449274 
L 266.572247 -222.829501 
L 269.2189 -223.186146 
L 271.865553 -223.846679 
L 274.512207 -224.428843 
L 277.15886 -224.55502 
L 279.805513 -225.310382 
L 282.452167 -225.451507 
L 285.09882 -225.530787 
L 287.745473 -225.665204 
L 290.392127 -226.034417 
L 293.03878 -226.519909 
L 295.685433 -226.756527 
L 298.332087 -226.979997 
L 300.97874 -227.299289 
L 303.625393 -227.552574 
L 306.272047 -227.939303 
L 308.9187 -228.181718 
L 311.565353 -228.663711 
L 314.212007 -229.27772 
L 316.85866 -229.449655 
L 319.505313 -229.816983 
L 322.151967 -229.925167 
L 324.79862 -230.286264 
L 327.445273 -230.570151 
L 330.091927 -230.625123 
L 332.73858 -231.159065 
L 335.385233 -231.720834 
L 338.031887 -232.107916 
L 340.67854 -232.118496 
L 343.325193 -232.254342 
L 345.971847 -232.465264 
L 348.6185 -232.698445 
L 351.265153 -232.44046 
L 353.911807 -232.853815 
L 356.55846 -232.967776 
L 359.205113 -233.388482 
L 361.851767 -233.524618 
L 364.49842 -233.872215 
L 367.145073 -234.292113 
L 369.791727 -234.543721 
L 372.43838 -234.478293 
L 375.085033 -234.685675 
L 377.731687 -235.016335 
L 380.37834 -235.429194 
L 383.024993 -235.550836 
L 385.671647 -235.887977 
L 388.3183 -236.038254 
L 390.964953 -236.426287 
L 393.611607 -236.439518 
L 396.25826 -236.504511 
L 398.904913 -236.709926 
L 401.551567 -236.655223 
L 404.19822 -236.88331 
L 406.844873 -237.254966 
L 409.491527 -237.683789 
L 412.13818 -238.139528 
L 414.784833 -238.289743 
L 417.431487 -238.680095 
L 420.07814 -238.866814 
L 422.724793 -238.987856 
L 425.371447 -239.129996 
L 428.0181 -239.229194 
L 430.664753 -239.608676 
L 433.311407 -239.722078 
L 435.95806 -239.925919 
L 438.604713 -240.066092 
L 441.251367 -240.237447 
L 443.89802 -240.72472 
L 446.544673 -240.881892 
L 449.191327 -241.009125 
L 451.83798 -241.250815 
L 454.484633 -241.328728 
L 457.131287 -241.221186 
L 459.77794 -241.247295 
L 462.424593 -241.576195 
L 465.071247 -241.66943 
L 467.7179 -242.004956 
L 470.364553 -242.313937 
L 473.011207 -242.539622 
L 475.65786 -242.778373 
L 478.304513 -242.847196 
L 480.951167 -243.110958 
L 483.59782 -243.410539 
L 486.244473 -243.506694 
L 488.891127 -243.883692 
L 491.53778 -244.056558 
L 494.184433 -243.952101 
L 496.831087 -243.980715 
L 499.47774 -244.209051 
L 502.124393 -244.404941 
L 504.771047 -244.20375 
L 507.4177 -244.404134 
L 510.064353 -244.382352 
L 512.711007 -244.684874 
L 515.35766 -244.848879 
L 518.004313 -244.881945 
L 520.650967 -245.025803 
L 523.29762 -245.272649 
L 525.944273 -245.300208 
L 528.590927 -245.375139 
L 531.23758 -245.567965 
L 533.884233 -245.775679 
L 536.530887 -245.886906 
L 539.17754 -246.012648 
L 541.824193 -246.296473 
L 544.470847 -246.556922 
L 547.1175 -246.913836 
L 549.764153 -246.900129 
L 552.410807 -247.310835 
L 555.05746 -247.197826 
L 557.704113 -247.418418 
L 560.350767 -247.405333 
L 562.99742 -247.350009 
L 565.644073 -247.524097 
L 568.290727 -247.575528 
L 570.93738 -247.632384 
L 573.584033 -247.900059 
L 576.230687 -247.968883 
L 578.87734 -248.200324 
L 581.523993 -248.208482 
L 584.170647 -248.35292 
L 586.8173 -248.703623 
L 589.463953 -248.327039 
L 592.110607 -248.412758 
L 594.75726 -248.623618 
L 597.403913 -248.576162 
L 600.050567 -248.74582 
L 602.69722 -248.834562 
L 605.343873 -249.142777 
L 607.990527 -249.258063 
L 610.63718 -249.512528 
L 613.283833 -249.626861 
L 615.930487 -249.76571 
L 618.57714 -250.009698 
L 621.223793 -250.043613 
L 623.870447 -250.252693 
L 626.5171 -250.475728 
L 629.163753 -250.479827 
L 631.810407 -250.454733 
L 634.45706 -250.470758 
L 637.103713 -250.579211 
L 639.750367 -250.80734 
L 642.39702 -250.73011 
L 645.043673 -250.719468 
L 647.690327 -250.818314 
L 650.33698 -250.78738 
L 652.983633 -250.944325 
L 655.630287 -251.097252 
L 658.27694 -251.020478 
L 660.923593 -251.169554 
L 663.570247 -251.280161 
L 666.2169 -251.374162 
L 668.863553 -251.446754 
L 671.510207 -251.459881 
L 674.15686 -251.511602 
L 676.803513 -251.620386 
L 679.450167 -251.684779 
L 682.09682 -251.720806 
L 684.743473 -251.991752 
L 687.390127 -252.006908 
L 690.03678 -252.137226 
L 692.683433 -252.226051 
L 695.330087 -252.286178 
L 697.97674 -252.459065 
L 700.623393 -252.754237 
L 703.270047 -252.767364 
L 705.9167 -252.867825 
L 708.563353 -252.94667 
L 711.210007 -252.902858 
L 713.85666 -253.005638 
L 716.503313 -253.191031 
L 719.149967 -253.272402 
L 721.79662 -253.29555 
L 724.443273 -253.301886 
L 727.089927 -253.414148 
L 729.73658 -253.42123 
L 732.383233 -253.390255 
L 735.029887 -253.473241 
L 737.67654 -253.510054 
L 740.323193 -253.634823 
L 742.969847 -254.054142 
L 745.6165 -254.156011 
L 748.263153 -254.163051 
L 750.909807 -254.232702 
L 753.55646 -254.251254 
L 756.203113 -254.162968 
L 758.849767 -254.426046 
L 761.49642 -254.599389 
L 764.143073 -254.579429 
L 766.789727 -254.732647 
L 769.43638 -254.684363 
L 772.083033 -254.749873 
L 774.729687 -254.742461 
L 777.37634 -254.966117 
L 780.022993 -255.001191 
L 782.669647 -255.147121 
L 785.3163 -255.188655 
L 787.962953 -255.186419 
L 790.609607 -255.267459 
L 793.25626 -255.37293 
L 795.902913 -255.461009 
L 798.549567 -255.477781 
L 801.19622 -255.402456 
L 803.842873 -255.615635 
L 806.489527 -255.715723 
L 809.13618 -256.006298 
L 811.782833 -256.024187 
L 814.429487 -256.109575 
L 817.07614 -256.029653 
L 819.722793 -256.122619 
L 822.369447 -256.218069 
L 825.0161 -256.293684 
L 827.662753 -256.253682 
L 830.309407 -256.358574 
L 832.95606 -256.213183 
L 835.602713 -256.25451 
L 838.249367 -256.145063 
L 840.89602 -256.229084 
L 843.542673 -256.243578 
L 843.542673 -372.795765 
L 843.542673 -372.795765 
L 840.89602 -372.805455 
L 838.249367 -372.8021 
L 835.602713 -372.586809 
L 832.95606 -372.545896 
L 830.309407 -372.37069 
L 827.662753 -372.329735 
L 825.0161 -372.145874 
L 822.369447 -372.073158 
L 819.722793 -372.049761 
L 817.07614 -372.086244 
L 814.429487 -371.940563 
L 811.782833 -371.921017 
L 809.13618 -371.884908 
L 806.489527 -372.025992 
L 803.842873 -372.012782 
L 801.19622 -372.044088 
L 798.549567 -371.894308 
L 795.902913 -371.844823 
L 793.25626 -371.796663 
L 790.609607 -371.766475 
L 787.962953 -371.686594 
L 785.3163 -371.703324 
L 782.669647 -371.55139 
L 780.022993 -371.631478 
L 777.37634 -371.575947 
L 774.729687 -371.651769 
L 772.083033 -371.578017 
L 769.43638 -371.543647 
L 766.789727 -371.47739 
L 764.143073 -371.546545 
L 761.49642 -371.485673 
L 758.849767 -371.526834 
L 756.203113 -371.621788 
L 753.55646 -371.50733 
L 750.909807 -371.406455 
L 748.263153 -371.348398 
L 745.6165 -371.280568 
L 742.969847 -371.275185 
L 740.323193 -371.492505 
L 737.67654 -371.411548 
L 735.029887 -371.391464 
L 732.383233 -371.330674 
L 729.73658 -371.200647 
L 727.089927 -371.105942 
L 724.443273 -371.133231 
L 721.79662 -371.024281 
L 719.149967 -370.910776 
L 716.503313 -370.817479 
L 713.85666 -370.912267 
L 711.210007 -370.892721 
L 708.563353 -370.760043 
L 705.9167 -370.763604 
L 703.270047 -370.671011 
L 700.623393 -370.515847 
L 697.97674 -370.621609 
L 695.330087 -370.687824 
L 692.683433 -370.562185 
L 690.03678 -370.559825 
L 687.390127 -370.620905 
L 684.743473 -370.597136 
L 682.09682 -370.743769 
L 679.450167 -370.653909 
L 676.803513 -370.619249 
L 674.15686 -370.604299 
L 671.510207 -370.508104 
L 668.863553 -370.359234 
L 666.2169 -370.29948 
L 663.570247 -370.245149 
L 660.923593 -370.25778 
L 658.27694 -370.280307 
L 655.630287 -370.120712 
L 652.983633 -370.062282 
L 650.33698 -370.133425 
L 647.690327 -370.019174 
L 645.043673 -370.012176 
L 642.39702 -369.823305 
L 639.750367 -369.597412 
L 637.103713 -369.601512 
L 634.45706 -369.569253 
L 631.810407 -369.492769 
L 629.163753 -369.409369 
L 626.5171 -369.287002 
L 623.870447 -369.304311 
L 621.223793 -369.326797 
L 618.57714 -369.276815 
L 615.930487 -369.37562 
L 613.283833 -369.388581 
L 610.63718 -369.281287 
L 607.990527 -369.402909 
L 605.343873 -369.390817 
L 602.69722 -369.511942 
L 600.050567 -369.47107 
L 597.403913 -369.536374 
L 594.75726 -369.386055 
L 592.110607 -369.386718 
L 589.463953 -369.396076 
L 586.8173 -369.057176 
L 584.170647 -369.143185 
L 581.523993 -369.020279 
L 578.87734 -368.882839 
L 576.230687 -368.961643 
L 573.584033 -368.855964 
L 570.93738 -369.025663 
L 568.290727 -368.93543 
L 565.644073 -368.861058 
L 562.99742 -368.836211 
L 560.350767 -368.61533 
L 557.704113 -368.422607 
L 555.05746 -368.514745 
L 552.410807 -368.292579 
L 549.764153 -368.493004 
L 547.1175 -368.267609 
L 544.470847 -368.349311 
L 541.824193 -368.308398 
L 539.17754 -368.433332 
L 536.530887 -368.42269 
L 533.884233 -368.294319 
L 531.23758 -368.27469 
L 528.590927 -368.327778 
L 525.944273 -368.213817 
L 523.29762 -367.962458 
L 520.650967 -368.019687 
L 518.004313 -367.955004 
L 515.35766 -367.804478 
L 512.711007 -367.806342 
L 510.064353 -367.901626 
L 507.4177 -367.678923 
L 504.771047 -367.587034 
L 502.124393 -367.349091 
L 499.47774 -367.359609 
L 496.831087 -367.443837 
L 494.184433 -367.387478 
L 491.53778 -367.171028 
L 488.891127 -367.136864 
L 486.244473 -367.179682 
L 483.59782 -367.088828 
L 480.951167 -367.015408 
L 478.304513 -366.982156 
L 475.65786 -366.866373 
L 473.011207 -366.925507 
L 470.364553 -366.969692 
L 467.7179 -366.996111 
L 465.071247 -367.009901 
L 462.424593 -366.844881 
L 459.77794 -366.944638 
L 457.131287 -366.739079 
L 454.484633 -366.371812 
L 451.83798 -366.173499 
L 449.191327 -366.049227 
L 446.544673 -365.986864 
L 443.89802 -365.978085 
L 441.251367 -366.172008 
L 438.604713 -366.17499 
L 435.95806 -365.997713 
L 433.311407 -365.82934 
L 430.664753 -365.617113 
L 428.0181 -365.526673 
L 425.371447 -365.418551 
L 422.724793 -365.275065 
L 420.07814 -365.140192 
L 417.431487 -365.059567 
L 414.784833 -365.064081 
L 412.13818 -364.861295 
L 409.491527 -364.855995 
L 406.844873 -364.896701 
L 404.19822 -364.954634 
L 401.551567 -364.88581 
L 398.904913 -364.626541 
L 396.25826 -364.511007 
L 393.611607 -364.350501 
L 390.964953 -364.068581 
L 388.3183 -364.012263 
L 385.671647 -363.923273 
L 383.024993 -364.003816 
L 380.37834 -363.899131 
L 377.731687 -363.956774 
L 375.085033 -364.004354 
L 372.43838 -363.9405 
L 369.791727 -363.60574 
L 367.145073 -363.522837 
L 364.49842 -363.593152 
L 361.851767 -363.607811 
L 359.205113 -363.413639 
L 356.55846 -363.423494 
L 353.911807 -363.272596 
L 351.265153 -363.393265 
L 348.6185 -362.990841 
L 345.971847 -362.88744 
L 343.325193 -362.685028 
L 340.67854 -362.529822 
L 338.031887 -362.189141 
L 335.385233 -362.183758 
L 332.73858 -362.255066 
L 330.091927 -362.249269 
L 327.445273 -361.984989 
L 324.79862 -361.895668 
L 322.151967 -361.864196 
L 319.505313 -361.581075 
L 316.85866 -361.625715 
L 314.212007 -361.434897 
L 311.565353 -361.509436 
L 308.9187 -361.500864 
L 306.272047 -361.281142 
L 303.625393 -361.214927 
L 300.97874 -361.098978 
L 298.332087 -361.058935 
L 295.685433 -360.720573 
L 293.03878 -360.425567 
L 290.392127 -360.431779 
L 287.745473 -360.27558 
L 285.09882 -359.950759 
L 282.452167 -359.836964 
L 279.805513 -359.515621 
L 277.15886 -359.565934 
L 274.512207 -359.232707 
L 271.865553 -359.149555 
L 269.2189 -359.248194 
L 266.572247 -359.104004 
L 263.925593 -358.916748 
L 261.27894 -359.010914 
L 258.632287 -358.752018 
L 255.985633 -358.823989 
L 253.33898 -358.889334 
L 250.692327 -358.459332 
L 248.045673 -358.235054 
L 245.39902 -357.857063 
L 242.752367 -357.717511 
L 240.105713 -357.571167 
L 237.45906 -357.256575 
L 234.812407 -356.762096 
L 232.165753 -356.692362 
L 229.5191 -356.808269 
L 226.872447 -356.754063 
L 224.225793 -356.388121 
L 221.57914 -356.160159 
L 218.932487 -355.983462 
L 216.285833 -355.723241 
L 213.63918 -355.488776 
L 210.992527 -355.326987 
L 208.345873 -355.257004 
L 205.69922 -354.699706 
L 203.052567 -354.85193 
L 200.405913 -354.518827 
L 197.75926 -354.245603 
L 195.112607 -354.223531 
L 192.465953 -354.045758 
L 189.8193 -354.095698 
L 187.172647 -353.846368 
L 184.525993 -353.751042 
L 181.87934 -353.38626 
L 179.232687 -353.07469 
L 176.586033 -352.875176 
L 173.93938 -352.841055 
L 171.292727 -353.051873 
L 168.646073 -352.457266 
L 165.99942 -351.939059 
L 163.352767 -351.328467 
L 160.706113 -351.128663 
L 158.05946 -350.500886 
L 155.412807 -350.238138 
L 152.766153 -349.736662 
L 150.1195 -349.58096 
L 147.472847 -349.078696 
L 144.826193 -348.489679 
L 142.17954 -347.964226 
L 139.532887 -347.798006 
L 136.886233 -347.479769 
L 134.23958 -347.273546 
L 131.592927 -346.9286 
L 128.946273 -346.416564 
L 126.29962 -346.195889 
L 123.652967 -345.411747 
L 121.006313 -345.021788 
L 118.35966 -344.122567 
L 115.713007 -344.00165 
L 113.066353 -343.437644 
L 110.4197 -342.510181 
L 107.773047 -341.924352 
L 105.126393 -341.288334 
L 102.47974 -340.905829 
L 99.833087 -340.550364 
L 97.186433 -339.450843 
L 94.53978 -338.625829 
L 91.893127 -337.872703 
L 89.246473 -337.028185 
L 86.59982 -335.834166 
L 83.953167 -335.079673 
L 81.306513 -333.927809 
L 78.65986 -332.986143 
L 76.013207 -330.846316 
L 73.366553 -329.294513 
L 70.7199 -327.481371 
L 68.073247 -324.691198 
L 65.426593 -321.47682 
L 62.77994 -318.507383 
L 60.133287 -316.086423 
L 57.486633 -312.276029 
L 54.83998 -306.983609 
L 52.193327 -306.412853 
z
" style="stroke: #0000ff; stroke-opacity: 0.2"/>
    </defs>
    <g clip-path="url(#p2d464d1907)">
     <use xlink:href="#mc93f9471e2" x="0" y="432" style="fill: #0000ff; fill-opacity: 0.2; stroke: #0000ff; stroke-opacity: 0.2"/>
    </g>
   </g>
   <g id="matplotlib.axis_1">
    <g id="xtick_1">
     <g id="line2d_1">
      <defs>
       <path id="m5b7b2c6714" d="M 0 0 
L 0 3.5 
" style="stroke: #000000; stroke-width: 0.8"/>
      </defs>
      <g>
       <use xlink:href="#m5b7b2c6714" x="181.87934" y="390.04" style="stroke: #000000; stroke-width: 0.8"/>
      </g>
     </g>
     <g id="text_1">
      <!-- 50 -->
      <g transform="translate(175.51684 404.638438) scale(0.1 -0.1)">
       <defs>
        <path id="DejaVuSans-35" d="M 691 4666 
L 3169 4666 
L 3169 4134 
L 1269 4134 
L 1269 2991 
Q 1406 3038 1543 3061 
Q 1681 3084 1819 3084 
Q 2600 3084 3056 2656 
Q 3513 2228 3513 1497 
Q 3513 744 3044 326 
Q 2575 -91 1722 -91 
Q 1428 -91 1123 -41 
Q 819 9 494 109 
L 494 744 
Q 775 591 1075 516 
Q 1375 441 1709 441 
Q 2250 441 2565 725 
Q 2881 1009 2881 1497 
Q 2881 1984 2565 2268 
Q 2250 2553 1709 2553 
Q 1456 2553 1204 2497 
Q 953 2441 691 2322 
L 691 4666 
z
" transform="scale(0.015625)"/>
        <path id="DejaVuSans-30" d="M 2034 4250 
Q 1547 4250 1301 3770 
Q 1056 3291 1056 2328 
Q 1056 1369 1301 889 
Q 1547 409 2034 409 
Q 2525 409 2770 889 
Q 3016 1369 3016 2328 
Q 3016 3291 2770 3770 
Q 2525 4250 2034 4250 
z
M 2034 4750 
Q 2819 4750 3233 4129 
Q 3647 3509 3647 2328 
Q 3647 1150 3233 529 
Q 2819 -91 2034 -91 
Q 1250 -91 836 529 
Q 422 1150 422 2328 
Q 422 3509 836 4129 
Q 1250 4750 2034 4750 
z
" transform="scale(0.015625)"/>
       </defs>
       <use xlink:href="#DejaVuSans-35"/>
       <use xlink:href="#DejaVuSans-30" transform="translate(63.623047 0)"/>
      </g>
     </g>
    </g>
    <g id="xtick_2">
     <g id="line2d_2">
      <g>
       <use xlink:href="#m5b7b2c6714" x="314.212007" y="390.04" style="stroke: #000000; stroke-width: 0.8"/>
      </g>
     </g>
     <g id="text_2">
      <!-- 100 -->
      <g transform="translate(304.668257 404.638438) scale(0.1 -0.1)">
       <defs>
        <path id="DejaVuSans-31" d="M 794 531 
L 1825 531 
L 1825 4091 
L 703 3866 
L 703 4441 
L 1819 4666 
L 2450 4666 
L 2450 531 
L 3481 531 
L 3481 0 
L 794 0 
L 794 531 
z
" transform="scale(0.015625)"/>
       </defs>
       <use xlink:href="#DejaVuSans-31"/>
       <use xlink:href="#DejaVuSans-30" transform="translate(63.623047 0)"/>
       <use xlink:href="#DejaVuSans-30" transform="translate(127.246094 0)"/>
      </g>
     </g>
    </g>
    <g id="xtick_3">
     <g id="line2d_3">
      <g>
       <use xlink:href="#m5b7b2c6714" x="446.544673" y="390.04" style="stroke: #000000; stroke-width: 0.8"/>
      </g>
     </g>
     <g id="text_3">
      <!-- 150 -->
      <g transform="translate(437.000923 404.638438) scale(0.1 -0.1)">
       <use xlink:href="#DejaVuSans-31"/>
       <use xlink:href="#DejaVuSans-35" transform="translate(63.623047 0)"/>
       <use xlink:href="#DejaVuSans-30" transform="translate(127.246094 0)"/>
      </g>
     </g>
    </g>
    <g id="xtick_4">
     <g id="line2d_4">
      <g>
       <use xlink:href="#m5b7b2c6714" x="578.87734" y="390.04" style="stroke: #000000; stroke-width: 0.8"/>
      </g>
     </g>
     <g id="text_4">
      <!-- 200 -->
      <g transform="translate(569.33359 404.638438) scale(0.1 -0.1)">
       <defs>
        <path id="DejaVuSans-32" d="M 1228 531 
L 3431 531 
L 3431 0 
L 469 0 
L 469 531 
Q 828 903 1448 1529 
Q 2069 2156 2228 2338 
Q 2531 2678 2651 2914 
Q 2772 3150 2772 3378 
Q 2772 3750 2511 3984 
Q 2250 4219 1831 4219 
Q 1534 4219 1204 4116 
Q 875 4013 500 3803 
L 500 4441 
Q 881 4594 1212 4672 
Q 1544 4750 1819 4750 
Q 2544 4750 2975 4387 
Q 3406 4025 3406 3419 
Q 3406 3131 3298 2873 
Q 3191 2616 2906 2266 
Q 2828 2175 2409 1742 
Q 1991 1309 1228 531 
z
" transform="scale(0.015625)"/>
       </defs>
       <use xlink:href="#DejaVuSans-32"/>
       <use xlink:href="#DejaVuSans-30" transform="translate(63.623047 0)"/>
       <use xlink:href="#DejaVuSans-30" transform="translate(127.246094 0)"/>
      </g>
     </g>
    </g>
    <g id="xtick_5">
     <g id="line2d_5">
      <g>
       <use xlink:href="#m5b7b2c6714" x="711.210007" y="390.04" style="stroke: #000000; stroke-width: 0.8"/>
      </g>
     </g>
     <g id="text_5">
      <!-- 250 -->
      <g transform="translate(701.666257 404.638438) scale(0.1 -0.1)">
       <use xlink:href="#DejaVuSans-32"/>
       <use xlink:href="#DejaVuSans-35" transform="translate(63.623047 0)"/>
       <use xlink:href="#DejaVuSans-30" transform="translate(127.246094 0)"/>
      </g>
     </g>
    </g>
    <g id="xtick_6">
     <g id="line2d_6">
      <g>
       <use xlink:href="#m5b7b2c6714" x="843.542673" y="390.04" style="stroke: #000000; stroke-width: 0.8"/>
      </g>
     </g>
     <g id="text_6">
      <!-- 300 -->
      <g transform="translate(833.998923 404.638438) scale(0.1 -0.1)">
       <defs>
        <path id="DejaVuSans-33" d="M 2597 2516 
Q 3050 2419 3304 2112 
Q 3559 1806 3559 1356 
Q 3559 666 3084 287 
Q 2609 -91 1734 -91 
Q 1441 -91 1130 -33 
Q 819 25 488 141 
L 488 750 
Q 750 597 1062 519 
Q 1375 441 1716 441 
Q 2309 441 2620 675 
Q 2931 909 2931 1356 
Q 2931 1769 2642 2001 
Q 2353 2234 1838 2234 
L 1294 2234 
L 1294 2753 
L 1863 2753 
Q 2328 2753 2575 2939 
Q 2822 3125 2822 3475 
Q 2822 3834 2567 4026 
Q 2313 4219 1838 4219 
Q 1578 4219 1281 4162 
Q 984 4106 628 3988 
L 628 4550 
Q 988 4650 1302 4700 
Q 1616 4750 1894 4750 
Q 2613 4750 3031 4423 
Q 3450 4097 3450 3541 
Q 3450 3153 3228 2886 
Q 3006 2619 2597 2516 
z
" transform="scale(0.015625)"/>
       </defs>
       <use xlink:href="#DejaVuSans-33"/>
       <use xlink:href="#DejaVuSans-30" transform="translate(63.623047 0)"/>
       <use xlink:href="#DejaVuSans-30" transform="translate(127.246094 0)"/>
      </g>
     </g>
    </g>
    <g id="text_7">
     <!-- Step -->
     <g transform="translate(436.482844 418.316562) scale(0.1 -0.1)">
      <defs>
       <path id="DejaVuSans-53" d="M 3425 4513 
L 3425 3897 
Q 3066 4069 2747 4153 
Q 2428 4238 2131 4238 
Q 1616 4238 1336 4038 
Q 1056 3838 1056 3469 
Q 1056 3159 1242 3001 
Q 1428 2844 1947 2747 
L 2328 2669 
Q 3034 2534 3370 2195 
Q 3706 1856 3706 1288 
Q 3706 609 3251 259 
Q 2797 -91 1919 -91 
Q 1588 -91 1214 -16 
Q 841 59 441 206 
L 441 856 
Q 825 641 1194 531 
Q 1563 422 1919 422 
Q 2459 422 2753 634 
Q 3047 847 3047 1241 
Q 3047 1584 2836 1778 
Q 2625 1972 2144 2069 
L 1759 2144 
Q 1053 2284 737 2584 
Q 422 2884 422 3419 
Q 422 4038 858 4394 
Q 1294 4750 2059 4750 
Q 2388 4750 2728 4690 
Q 3069 4631 3425 4513 
z
" transform="scale(0.015625)"/>
       <path id="DejaVuSans-74" d="M 1172 4494 
L 1172 3500 
L 2356 3500 
L 2356 3053 
L 1172 3053 
L 1172 1153 
Q 1172 725 1289 603 
Q 1406 481 1766 481 
L 2356 481 
L 2356 0 
L 1766 0 
Q 1100 0 847 248 
Q 594 497 594 1153 
L 594 3053 
L 172 3053 
L 172 3500 
L 594 3500 
L 594 4494 
L 1172 4494 
z
" transform="scale(0.015625)"/>
       <path id="DejaVuSans-65" d="M 3597 1894 
L 3597 1613 
L 953 1613 
Q 991 1019 1311 708 
Q 1631 397 2203 397 
Q 2534 397 2845 478 
Q 3156 559 3463 722 
L 3463 178 
Q 3153 47 2828 -22 
Q 2503 -91 2169 -91 
Q 1331 -91 842 396 
Q 353 884 353 1716 
Q 353 2575 817 3079 
Q 1281 3584 2069 3584 
Q 2775 3584 3186 3129 
Q 3597 2675 3597 1894 
z
M 3022 2063 
Q 3016 2534 2758 2815 
Q 2500 3097 2075 3097 
Q 1594 3097 1305 2825 
Q 1016 2553 972 2059 
L 3022 2063 
z
" transform="scale(0.015625)"/>
       <path id="DejaVuSans-70" d="M 1159 525 
L 1159 -1331 
L 581 -1331 
L 581 3500 
L 1159 3500 
L 1159 2969 
Q 1341 3281 1617 3432 
Q 1894 3584 2278 3584 
Q 2916 3584 3314 3078 
Q 3713 2572 3713 1747 
Q 3713 922 3314 415 
Q 2916 -91 2278 -91 
Q 1894 -91 1617 61 
Q 1341 213 1159 525 
z
M 3116 1747 
Q 3116 2381 2855 2742 
Q 2594 3103 2138 3103 
Q 1681 3103 1420 2742 
Q 1159 2381 1159 1747 
Q 1159 1113 1420 752 
Q 1681 391 2138 391 
Q 2594 391 2855 752 
Q 3116 1113 3116 1747 
z
" transform="scale(0.015625)"/>
      </defs>
      <use xlink:href="#DejaVuSans-53"/>
      <use xlink:href="#DejaVuSans-74" transform="translate(63.476562 0)"/>
      <use xlink:href="#DejaVuSans-65" transform="translate(102.685547 0)"/>
      <use xlink:href="#DejaVuSans-70" transform="translate(164.208984 0)"/>
     </g>
    </g>
   </g>
   <g id="matplotlib.axis_2">
    <g id="ytick_1">
     <g id="line2d_7">
      <defs>
       <path id="mcca6033221" d="M 0 0 
L -3.5 0 
" style="stroke: #000000; stroke-width: 0.8"/>
      </defs>
      <g>
       <use xlink:href="#mcca6033221" x="50.87" y="329.417462" style="stroke: #000000; stroke-width: 0.8"/>
      </g>
     </g>
     <g id="text_8">
      <!-- 300 -->
      <g transform="translate(24.7825 333.216681) scale(0.1 -0.1)">
       <use xlink:href="#DejaVuSans-33"/>
       <use xlink:href="#DejaVuSans-30" transform="translate(63.623047 0)"/>
       <use xlink:href="#DejaVuSans-30" transform="translate(127.246094 0)"/>
      </g>
     </g>
    </g>
    <g id="ytick_2">
     <g id="line2d_8">
      <g>
       <use xlink:href="#mcca6033221" x="50.87" y="261.571117" style="stroke: #000000; stroke-width: 0.8"/>
      </g>
     </g>
     <g id="text_9">
      <!-- 400 -->
      <g transform="translate(24.7825 265.370335) scale(0.1 -0.1)">
       <defs>
        <path id="DejaVuSans-34" d="M 2419 4116 
L 825 1625 
L 2419 1625 
L 2419 4116 
z
M 2253 4666 
L 3047 4666 
L 3047 1625 
L 3713 1625 
L 3713 1100 
L 3047 1100 
L 3047 0 
L 2419 0 
L 2419 1100 
L 313 1100 
L 313 1709 
L 2253 4666 
z
" transform="scale(0.015625)"/>
       </defs>
       <use xlink:href="#DejaVuSans-34"/>
       <use xlink:href="#DejaVuSans-30" transform="translate(63.623047 0)"/>
       <use xlink:href="#DejaVuSans-30" transform="translate(127.246094 0)"/>
      </g>
     </g>
    </g>
    <g id="ytick_3">
     <g id="line2d_9">
      <g>
       <use xlink:href="#mcca6033221" x="50.87" y="193.724771" style="stroke: #000000; stroke-width: 0.8"/>
      </g>
     </g>
     <g id="text_10">
      <!-- 500 -->
      <g transform="translate(24.7825 197.52399) scale(0.1 -0.1)">
       <use xlink:href="#DejaVuSans-35"/>
       <use xlink:href="#DejaVuSans-30" transform="translate(63.623047 0)"/>
       <use xlink:href="#DejaVuSans-30" transform="translate(127.246094 0)"/>
      </g>
     </g>
    </g>
    <g id="ytick_4">
     <g id="line2d_10">
      <g>
       <use xlink:href="#mcca6033221" x="50.87" y="125.878426" style="stroke: #000000; stroke-width: 0.8"/>
      </g>
     </g>
     <g id="text_11">
      <!-- 600 -->
      <g transform="translate(24.7825 129.677645) scale(0.1 -0.1)">
       <defs>
        <path id="DejaVuSans-36" d="M 2113 2584 
Q 1688 2584 1439 2293 
Q 1191 2003 1191 1497 
Q 1191 994 1439 701 
Q 1688 409 2113 409 
Q 2538 409 2786 701 
Q 3034 994 3034 1497 
Q 3034 2003 2786 2293 
Q 2538 2584 2113 2584 
z
M 3366 4563 
L 3366 3988 
Q 3128 4100 2886 4159 
Q 2644 4219 2406 4219 
Q 1781 4219 1451 3797 
Q 1122 3375 1075 2522 
Q 1259 2794 1537 2939 
Q 1816 3084 2150 3084 
Q 2853 3084 3261 2657 
Q 3669 2231 3669 1497 
Q 3669 778 3244 343 
Q 2819 -91 2113 -91 
Q 1303 -91 875 529 
Q 447 1150 447 2328 
Q 447 3434 972 4092 
Q 1497 4750 2381 4750 
Q 2619 4750 2861 4703 
Q 3103 4656 3366 4563 
z
" transform="scale(0.015625)"/>
       </defs>
       <use xlink:href="#DejaVuSans-36"/>
       <use xlink:href="#DejaVuSans-30" transform="translate(63.623047 0)"/>
       <use xlink:href="#DejaVuSans-30" transform="translate(127.246094 0)"/>
      </g>
     </g>
    </g>
    <g id="ytick_5">
     <g id="line2d_11">
      <g>
       <use xlink:href="#mcca6033221" x="50.87" y="58.03208" style="stroke: #000000; stroke-width: 0.8"/>
      </g>
     </g>
     <g id="text_12">
      <!-- 700 -->
      <g transform="translate(24.7825 61.831299) scale(0.1 -0.1)">
       <defs>
        <path id="DejaVuSans-37" d="M 525 4666 
L 3525 4666 
L 3525 4397 
L 1831 0 
L 1172 0 
L 2766 4134 
L 525 4134 
L 525 4666 
z
" transform="scale(0.015625)"/>
       </defs>
       <use xlink:href="#DejaVuSans-37"/>
       <use xlink:href="#DejaVuSans-30" transform="translate(63.623047 0)"/>
       <use xlink:href="#DejaVuSans-30" transform="translate(127.246094 0)"/>
      </g>
     </g>
    </g>
    <g id="text_13">
     <!-- Profit -->
     <g transform="translate(18.702813 229.779063) rotate(-90) scale(0.1 -0.1)">
      <defs>
       <path id="DejaVuSans-50" d="M 1259 4147 
L 1259 2394 
L 2053 2394 
Q 2494 2394 2734 2622 
Q 2975 2850 2975 3272 
Q 2975 3691 2734 3919 
Q 2494 4147 2053 4147 
L 1259 4147 
z
M 628 4666 
L 2053 4666 
Q 2838 4666 3239 4311 
Q 3641 3956 3641 3272 
Q 3641 2581 3239 2228 
Q 2838 1875 2053 1875 
L 1259 1875 
L 1259 0 
L 628 0 
L 628 4666 
z
" transform="scale(0.015625)"/>
       <path id="DejaVuSans-72" d="M 2631 2963 
Q 2534 3019 2420 3045 
Q 2306 3072 2169 3072 
Q 1681 3072 1420 2755 
Q 1159 2438 1159 1844 
L 1159 0 
L 581 0 
L 581 3500 
L 1159 3500 
L 1159 2956 
Q 1341 3275 1631 3429 
Q 1922 3584 2338 3584 
Q 2397 3584 2469 3576 
Q 2541 3569 2628 3553 
L 2631 2963 
z
" transform="scale(0.015625)"/>
       <path id="DejaVuSans-6f" d="M 1959 3097 
Q 1497 3097 1228 2736 
Q 959 2375 959 1747 
Q 959 1119 1226 758 
Q 1494 397 1959 397 
Q 2419 397 2687 759 
Q 2956 1122 2956 1747 
Q 2956 2369 2687 2733 
Q 2419 3097 1959 3097 
z
M 1959 3584 
Q 2709 3584 3137 3096 
Q 3566 2609 3566 1747 
Q 3566 888 3137 398 
Q 2709 -91 1959 -91 
Q 1206 -91 779 398 
Q 353 888 353 1747 
Q 353 2609 779 3096 
Q 1206 3584 1959 3584 
z
" transform="scale(0.015625)"/>
       <path id="DejaVuSans-66" d="M 2375 4863 
L 2375 4384 
L 1825 4384 
Q 1516 4384 1395 4259 
Q 1275 4134 1275 3809 
L 1275 3500 
L 2222 3500 
L 2222 3053 
L 1275 3053 
L 1275 0 
L 697 0 
L 697 3053 
L 147 3053 
L 147 3500 
L 697 3500 
L 697 3744 
Q 697 4328 969 4595 
Q 1241 4863 1831 4863 
L 2375 4863 
z
" transform="scale(0.015625)"/>
       <path id="DejaVuSans-69" d="M 603 3500 
L 1178 3500 
L 1178 0 
L 603 0 
L 603 3500 
z
M 603 4863 
L 1178 4863 
L 1178 4134 
L 603 4134 
L 603 4863 
z
" transform="scale(0.015625)"/>
      </defs>
      <use xlink:href="#DejaVuSans-50"/>
      <use xlink:href="#DejaVuSans-72" transform="translate(58.552734 0)"/>
      <use xlink:href="#DejaVuSans-6f" transform="translate(97.416016 0)"/>
      <use xlink:href="#DejaVuSans-66" transform="translate(158.597656 0)"/>
      <use xlink:href="#DejaVuSans-69" transform="translate(193.802734 0)"/>
      <use xlink:href="#DejaVuSans-74" transform="translate(221.585938 0)"/>
     </g>
    </g>
   </g>
   <g id="line2d_12">
    <path d="M 52.193327 249.396437 
L 54.83998 249.650923 
L 60.133287 235.318445 
L 65.426593 222.573775 
L 68.073247 217.332993 
L 70.7199 212.548467 
L 73.366553 208.155682 
L 76.013207 204.287293 
L 81.306513 197.646765 
L 83.953167 194.627678 
L 89.246473 189.802508 
L 94.53978 185.416244 
L 97.186433 183.244615 
L 99.833087 181.382236 
L 102.47974 179.660486 
L 105.126393 178.08247 
L 107.773047 176.366352 
L 110.4197 174.996381 
L 115.713007 172.510158 
L 118.35966 171.200066 
L 126.29962 167.751431 
L 144.826193 161.568651 
L 163.352767 156.458518 
L 179.232687 152.974974 
L 187.172647 151.42665 
L 192.465953 150.624411 
L 216.285833 146.719934 
L 221.57914 146.075137 
L 226.872447 145.29584 
L 240.105713 143.634341 
L 245.39902 143.057995 
L 282.452167 139.355765 
L 285.09882 139.259238 
L 295.685433 138.261461 
L 300.97874 137.800856 
L 308.9187 137.158709 
L 316.85866 136.462315 
L 330.091927 135.562804 
L 338.031887 134.851461 
L 351.265153 134.083138 
L 364.49842 133.267317 
L 375.085033 132.654985 
L 409.491527 130.730119 
L 417.431487 130.130169 
L 433.311407 129.224281 
L 438.604713 128.879459 
L 449.191327 128.470824 
L 457.131287 128.019868 
L 480.951167 126.936827 
L 486.244473 126.656812 
L 491.53778 126.386197 
L 507.4177 125.958472 
L 568.290727 123.744521 
L 658.27694 121.349608 
L 761.49642 118.957469 
L 777.37634 118.728968 
L 806.489527 118.129143 
L 814.429487 117.974931 
L 827.662753 117.708291 
L 838.249367 117.526418 
L 843.542673 117.480329 
L 843.542673 117.480329 
" clip-path="url(#p2d464d1907)" style="fill: none; stroke: #0000ff; stroke-width: 1.5; stroke-linecap: square"/>
   </g>
   <g id="patch_3">
    <path d="M 50.87 390.04 
L 50.87 43.44 
" style="fill: none; stroke: #000000; stroke-width: 0.8; stroke-linejoin: miter; stroke-linecap: square"/>
   </g>
   <g id="patch_4">
    <path d="M 844.866 390.04 
L 844.866 43.44 
" style="fill: none; stroke: #000000; stroke-width: 0.8; stroke-linejoin: miter; stroke-linecap: square"/>
   </g>
   <g id="patch_5">
    <path d="M 50.87 390.04 
L 844.866 390.04 
" style="fill: none; stroke: #000000; stroke-width: 0.8; stroke-linejoin: miter; stroke-linecap: square"/>
   </g>
   <g id="patch_6">
    <path d="M 50.87 43.44 
L 844.866 43.44 
" style="fill: none; stroke: #000000; stroke-width: 0.8; stroke-linejoin: miter; stroke-linecap: square"/>
   </g>
   <g id="text_14">
    <!-- Mean profit per step with confidence interval per simulation step -->
    <g transform="translate(220.284875 21.763062) scale(0.14 -0.14)">
     <defs>
      <path id="DejaVuSans-4d" d="M 628 4666 
L 1569 4666 
L 2759 1491 
L 3956 4666 
L 4897 4666 
L 4897 0 
L 4281 0 
L 4281 4097 
L 3078 897 
L 2444 897 
L 1241 4097 
L 1241 0 
L 628 0 
L 628 4666 
z
" transform="scale(0.015625)"/>
      <path id="DejaVuSans-61" d="M 2194 1759 
Q 1497 1759 1228 1600 
Q 959 1441 959 1056 
Q 959 750 1161 570 
Q 1363 391 1709 391 
Q 2188 391 2477 730 
Q 2766 1069 2766 1631 
L 2766 1759 
L 2194 1759 
z
M 3341 1997 
L 3341 0 
L 2766 0 
L 2766 531 
Q 2569 213 2275 61 
Q 1981 -91 1556 -91 
Q 1019 -91 701 211 
Q 384 513 384 1019 
Q 384 1609 779 1909 
Q 1175 2209 1959 2209 
L 2766 2209 
L 2766 2266 
Q 2766 2663 2505 2880 
Q 2244 3097 1772 3097 
Q 1472 3097 1187 3025 
Q 903 2953 641 2809 
L 641 3341 
Q 956 3463 1253 3523 
Q 1550 3584 1831 3584 
Q 2591 3584 2966 3190 
Q 3341 2797 3341 1997 
z
" transform="scale(0.015625)"/>
      <path id="DejaVuSans-6e" d="M 3513 2113 
L 3513 0 
L 2938 0 
L 2938 2094 
Q 2938 2591 2744 2837 
Q 2550 3084 2163 3084 
Q 1697 3084 1428 2787 
Q 1159 2491 1159 1978 
L 1159 0 
L 581 0 
L 581 3500 
L 1159 3500 
L 1159 2956 
Q 1366 3272 1645 3428 
Q 1925 3584 2291 3584 
Q 2894 3584 3203 3211 
Q 3513 2838 3513 2113 
z
" transform="scale(0.015625)"/>
      <path id="DejaVuSans-20" transform="scale(0.015625)"/>
      <path id="DejaVuSans-73" d="M 2834 3397 
L 2834 2853 
Q 2591 2978 2328 3040 
Q 2066 3103 1784 3103 
Q 1356 3103 1142 2972 
Q 928 2841 928 2578 
Q 928 2378 1081 2264 
Q 1234 2150 1697 2047 
L 1894 2003 
Q 2506 1872 2764 1633 
Q 3022 1394 3022 966 
Q 3022 478 2636 193 
Q 2250 -91 1575 -91 
Q 1294 -91 989 -36 
Q 684 19 347 128 
L 347 722 
Q 666 556 975 473 
Q 1284 391 1588 391 
Q 1994 391 2212 530 
Q 2431 669 2431 922 
Q 2431 1156 2273 1281 
Q 2116 1406 1581 1522 
L 1381 1569 
Q 847 1681 609 1914 
Q 372 2147 372 2553 
Q 372 3047 722 3315 
Q 1072 3584 1716 3584 
Q 2034 3584 2315 3537 
Q 2597 3491 2834 3397 
z
" transform="scale(0.015625)"/>
      <path id="DejaVuSans-77" d="M 269 3500 
L 844 3500 
L 1563 769 
L 2278 3500 
L 2956 3500 
L 3675 769 
L 4391 3500 
L 4966 3500 
L 4050 0 
L 3372 0 
L 2619 2869 
L 1863 0 
L 1184 0 
L 269 3500 
z
" transform="scale(0.015625)"/>
      <path id="DejaVuSans-68" d="M 3513 2113 
L 3513 0 
L 2938 0 
L 2938 2094 
Q 2938 2591 2744 2837 
Q 2550 3084 2163 3084 
Q 1697 3084 1428 2787 
Q 1159 2491 1159 1978 
L 1159 0 
L 581 0 
L 581 4863 
L 1159 4863 
L 1159 2956 
Q 1366 3272 1645 3428 
Q 1925 3584 2291 3584 
Q 2894 3584 3203 3211 
Q 3513 2838 3513 2113 
z
" transform="scale(0.015625)"/>
      <path id="DejaVuSans-63" d="M 3122 3366 
L 3122 2828 
Q 2878 2963 2633 3030 
Q 2388 3097 2138 3097 
Q 1578 3097 1268 2742 
Q 959 2388 959 1747 
Q 959 1106 1268 751 
Q 1578 397 2138 397 
Q 2388 397 2633 464 
Q 2878 531 3122 666 
L 3122 134 
Q 2881 22 2623 -34 
Q 2366 -91 2075 -91 
Q 1284 -91 818 406 
Q 353 903 353 1747 
Q 353 2603 823 3093 
Q 1294 3584 2113 3584 
Q 2378 3584 2631 3529 
Q 2884 3475 3122 3366 
z
" transform="scale(0.015625)"/>
      <path id="DejaVuSans-64" d="M 2906 2969 
L 2906 4863 
L 3481 4863 
L 3481 0 
L 2906 0 
L 2906 525 
Q 2725 213 2448 61 
Q 2172 -91 1784 -91 
Q 1150 -91 751 415 
Q 353 922 353 1747 
Q 353 2572 751 3078 
Q 1150 3584 1784 3584 
Q 2172 3584 2448 3432 
Q 2725 3281 2906 2969 
z
M 947 1747 
Q 947 1113 1208 752 
Q 1469 391 1925 391 
Q 2381 391 2643 752 
Q 2906 1113 2906 1747 
Q 2906 2381 2643 2742 
Q 2381 3103 1925 3103 
Q 1469 3103 1208 2742 
Q 947 2381 947 1747 
z
" transform="scale(0.015625)"/>
      <path id="DejaVuSans-76" d="M 191 3500 
L 800 3500 
L 1894 563 
L 2988 3500 
L 3597 3500 
L 2284 0 
L 1503 0 
L 191 3500 
z
" transform="scale(0.015625)"/>
      <path id="DejaVuSans-6c" d="M 603 4863 
L 1178 4863 
L 1178 0 
L 603 0 
L 603 4863 
z
" transform="scale(0.015625)"/>
      <path id="DejaVuSans-6d" d="M 3328 2828 
Q 3544 3216 3844 3400 
Q 4144 3584 4550 3584 
Q 5097 3584 5394 3201 
Q 5691 2819 5691 2113 
L 5691 0 
L 5113 0 
L 5113 2094 
Q 5113 2597 4934 2840 
Q 4756 3084 4391 3084 
Q 3944 3084 3684 2787 
Q 3425 2491 3425 1978 
L 3425 0 
L 2847 0 
L 2847 2094 
Q 2847 2600 2669 2842 
Q 2491 3084 2119 3084 
Q 1678 3084 1418 2786 
Q 1159 2488 1159 1978 
L 1159 0 
L 581 0 
L 581 3500 
L 1159 3500 
L 1159 2956 
Q 1356 3278 1631 3431 
Q 1906 3584 2284 3584 
Q 2666 3584 2933 3390 
Q 3200 3197 3328 2828 
z
" transform="scale(0.015625)"/>
      <path id="DejaVuSans-75" d="M 544 1381 
L 544 3500 
L 1119 3500 
L 1119 1403 
Q 1119 906 1312 657 
Q 1506 409 1894 409 
Q 2359 409 2629 706 
Q 2900 1003 2900 1516 
L 2900 3500 
L 3475 3500 
L 3475 0 
L 2900 0 
L 2900 538 
Q 2691 219 2414 64 
Q 2138 -91 1772 -91 
Q 1169 -91 856 284 
Q 544 659 544 1381 
z
M 1991 3584 
L 1991 3584 
z
" transform="scale(0.015625)"/>
     </defs>
     <use xlink:href="#DejaVuSans-4d"/>
     <use xlink:href="#DejaVuSans-65" transform="translate(86.279297 0)"/>
     <use xlink:href="#DejaVuSans-61" transform="translate(147.802734 0)"/>
     <use xlink:href="#DejaVuSans-6e" transform="translate(209.082031 0)"/>
     <use xlink:href="#DejaVuSans-20" transform="translate(272.460938 0)"/>
     <use xlink:href="#DejaVuSans-70" transform="translate(304.248047 0)"/>
     <use xlink:href="#DejaVuSans-72" transform="translate(367.724609 0)"/>
     <use xlink:href="#DejaVuSans-6f" transform="translate(406.587891 0)"/>
     <use xlink:href="#DejaVuSans-66" transform="translate(467.769531 0)"/>
     <use xlink:href="#DejaVuSans-69" transform="translate(502.974609 0)"/>
     <use xlink:href="#DejaVuSans-74" transform="translate(530.757812 0)"/>
     <use xlink:href="#DejaVuSans-20" transform="translate(569.966797 0)"/>
     <use xlink:href="#DejaVuSans-70" transform="translate(601.753906 0)"/>
     <use xlink:href="#DejaVuSans-65" transform="translate(665.230469 0)"/>
     <use xlink:href="#DejaVuSans-72" transform="translate(726.753906 0)"/>
     <use xlink:href="#DejaVuSans-20" transform="translate(767.867188 0)"/>
     <use xlink:href="#DejaVuSans-73" transform="translate(799.654297 0)"/>
     <use xlink:href="#DejaVuSans-74" transform="translate(851.753906 0)"/>
     <use xlink:href="#DejaVuSans-65" transform="translate(890.962891 0)"/>
     <use xlink:href="#DejaVuSans-70" transform="translate(952.486328 0)"/>
     <use xlink:href="#DejaVuSans-20" transform="translate(1015.962891 0)"/>
     <use xlink:href="#DejaVuSans-77" transform="translate(1047.75 0)"/>
     <use xlink:href="#DejaVuSans-69" transform="translate(1129.537109 0)"/>
     <use xlink:href="#DejaVuSans-74" transform="translate(1157.320312 0)"/>
     <use xlink:href="#DejaVuSans-68" transform="translate(1196.529297 0)"/>
     <use xlink:href="#DejaVuSans-20" transform="translate(1259.908203 0)"/>
     <use xlink:href="#DejaVuSans-63" transform="translate(1291.695312 0)"/>
     <use xlink:href="#DejaVuSans-6f" transform="translate(1346.675781 0)"/>
     <use xlink:href="#DejaVuSans-6e" transform="translate(1407.857422 0)"/>
     <use xlink:href="#DejaVuSans-66" transform="translate(1471.236328 0)"/>
     <use xlink:href="#DejaVuSans-69" transform="translate(1506.441406 0)"/>
     <use xlink:href="#DejaVuSans-64" transform="translate(1534.224609 0)"/>
     <use xlink:href="#DejaVuSans-65" transform="translate(1597.701172 0)"/>
     <use xlink:href="#DejaVuSans-6e" transform="translate(1659.224609 0)"/>
     <use xlink:href="#DejaVuSans-63" transform="translate(1722.603516 0)"/>
     <use xlink:href="#DejaVuSans-65" transform="translate(1777.583984 0)"/>
     <use xlink:href="#DejaVuSans-20" transform="translate(1839.107422 0)"/>
     <use xlink:href="#DejaVuSans-69" transform="translate(1870.894531 0)"/>
     <use xlink:href="#DejaVuSans-6e" transform="translate(1898.677734 0)"/>
     <use xlink:href="#DejaVuSans-74" transform="translate(1962.056641 0)"/>
     <use xlink:href="#DejaVuSans-65" transform="translate(2001.265625 0)"/>
     <use xlink:href="#DejaVuSans-72" transform="translate(2062.789062 0)"/>
     <use xlink:href="#DejaVuSans-76" transform="translate(2103.902344 0)"/>
     <use xlink:href="#DejaVuSans-61" transform="translate(2163.082031 0)"/>
     <use xlink:href="#DejaVuSans-6c" transform="translate(2224.361328 0)"/>
     <use xlink:href="#DejaVuSans-20" transform="translate(2252.144531 0)"/>
     <use xlink:href="#DejaVuSans-70" transform="translate(2283.931641 0)"/>
     <use xlink:href="#DejaVuSans-65" transform="translate(2347.408203 0)"/>
     <use xlink:href="#DejaVuSans-72" transform="translate(2408.931641 0)"/>
     <use xlink:href="#DejaVuSans-20" transform="translate(2450.044922 0)"/>
     <use xlink:href="#DejaVuSans-73" transform="translate(2481.832031 0)"/>
     <use xlink:href="#DejaVuSans-69" transform="translate(2533.931641 0)"/>
     <use xlink:href="#DejaVuSans-6d" transform="translate(2561.714844 0)"/>
     <use xlink:href="#DejaVuSans-75" transform="translate(2659.126953 0)"/>
     <use xlink:href="#DejaVuSans-6c" transform="translate(2722.505859 0)"/>
     <use xlink:href="#DejaVuSans-61" transform="translate(2750.289062 0)"/>
     <use xlink:href="#DejaVuSans-74" transform="translate(2811.568359 0)"/>
     <use xlink:href="#DejaVuSans-69" transform="translate(2850.777344 0)"/>
     <use xlink:href="#DejaVuSans-6f" transform="translate(2878.560547 0)"/>
     <use xlink:href="#DejaVuSans-6e" transform="translate(2939.742188 0)"/>
     <use xlink:href="#DejaVuSans-20" transform="translate(3003.121094 0)"/>
     <use xlink:href="#DejaVuSans-73" transform="translate(3034.908203 0)"/>
     <use xlink:href="#DejaVuSans-74" transform="translate(3087.007812 0)"/>
     <use xlink:href="#DejaVuSans-65" transform="translate(3126.216797 0)"/>
     <use xlink:href="#DejaVuSans-70" transform="translate(3187.740234 0)"/>
    </g>
    <!-- Base Product: Cocaine, Recipe size: 9, T0: 50.0 -->
    <g transform="translate(283.410656 37.44) scale(0.14 -0.14)">
     <defs>
      <path id="DejaVuSans-42" d="M 1259 2228 
L 1259 519 
L 2272 519 
Q 2781 519 3026 730 
Q 3272 941 3272 1375 
Q 3272 1813 3026 2020 
Q 2781 2228 2272 2228 
L 1259 2228 
z
M 1259 4147 
L 1259 2741 
L 2194 2741 
Q 2656 2741 2882 2914 
Q 3109 3088 3109 3444 
Q 3109 3797 2882 3972 
Q 2656 4147 2194 4147 
L 1259 4147 
z
M 628 4666 
L 2241 4666 
Q 2963 4666 3353 4366 
Q 3744 4066 3744 3513 
Q 3744 3084 3544 2831 
Q 3344 2578 2956 2516 
Q 3422 2416 3680 2098 
Q 3938 1781 3938 1306 
Q 3938 681 3513 340 
Q 3088 0 2303 0 
L 628 0 
L 628 4666 
z
" transform="scale(0.015625)"/>
      <path id="DejaVuSans-3a" d="M 750 794 
L 1409 794 
L 1409 0 
L 750 0 
L 750 794 
z
M 750 3309 
L 1409 3309 
L 1409 2516 
L 750 2516 
L 750 3309 
z
" transform="scale(0.015625)"/>
      <path id="DejaVuSans-43" d="M 4122 4306 
L 4122 3641 
Q 3803 3938 3442 4084 
Q 3081 4231 2675 4231 
Q 1875 4231 1450 3742 
Q 1025 3253 1025 2328 
Q 1025 1406 1450 917 
Q 1875 428 2675 428 
Q 3081 428 3442 575 
Q 3803 722 4122 1019 
L 4122 359 
Q 3791 134 3420 21 
Q 3050 -91 2638 -91 
Q 1578 -91 968 557 
Q 359 1206 359 2328 
Q 359 3453 968 4101 
Q 1578 4750 2638 4750 
Q 3056 4750 3426 4639 
Q 3797 4528 4122 4306 
z
" transform="scale(0.015625)"/>
      <path id="DejaVuSans-2c" d="M 750 794 
L 1409 794 
L 1409 256 
L 897 -744 
L 494 -744 
L 750 256 
L 750 794 
z
" transform="scale(0.015625)"/>
      <path id="DejaVuSans-52" d="M 2841 2188 
Q 3044 2119 3236 1894 
Q 3428 1669 3622 1275 
L 4263 0 
L 3584 0 
L 2988 1197 
Q 2756 1666 2539 1819 
Q 2322 1972 1947 1972 
L 1259 1972 
L 1259 0 
L 628 0 
L 628 4666 
L 2053 4666 
Q 2853 4666 3247 4331 
Q 3641 3997 3641 3322 
Q 3641 2881 3436 2590 
Q 3231 2300 2841 2188 
z
M 1259 4147 
L 1259 2491 
L 2053 2491 
Q 2509 2491 2742 2702 
Q 2975 2913 2975 3322 
Q 2975 3731 2742 3939 
Q 2509 4147 2053 4147 
L 1259 4147 
z
" transform="scale(0.015625)"/>
      <path id="DejaVuSans-7a" d="M 353 3500 
L 3084 3500 
L 3084 2975 
L 922 459 
L 3084 459 
L 3084 0 
L 275 0 
L 275 525 
L 2438 3041 
L 353 3041 
L 353 3500 
z
" transform="scale(0.015625)"/>
      <path id="DejaVuSans-39" d="M 703 97 
L 703 672 
Q 941 559 1184 500 
Q 1428 441 1663 441 
Q 2288 441 2617 861 
Q 2947 1281 2994 2138 
Q 2813 1869 2534 1725 
Q 2256 1581 1919 1581 
Q 1219 1581 811 2004 
Q 403 2428 403 3163 
Q 403 3881 828 4315 
Q 1253 4750 1959 4750 
Q 2769 4750 3195 4129 
Q 3622 3509 3622 2328 
Q 3622 1225 3098 567 
Q 2575 -91 1691 -91 
Q 1453 -91 1209 -44 
Q 966 3 703 97 
z
M 1959 2075 
Q 2384 2075 2632 2365 
Q 2881 2656 2881 3163 
Q 2881 3666 2632 3958 
Q 2384 4250 1959 4250 
Q 1534 4250 1286 3958 
Q 1038 3666 1038 3163 
Q 1038 2656 1286 2365 
Q 1534 2075 1959 2075 
z
" transform="scale(0.015625)"/>
      <path id="DejaVuSans-54" d="M -19 4666 
L 3928 4666 
L 3928 4134 
L 2272 4134 
L 2272 0 
L 1638 0 
L 1638 4134 
L -19 4134 
L -19 4666 
z
" transform="scale(0.015625)"/>
      <path id="DejaVuSans-2e" d="M 684 794 
L 1344 794 
L 1344 0 
L 684 0 
L 684 794 
z
" transform="scale(0.015625)"/>
     </defs>
     <use xlink:href="#DejaVuSans-42"/>
     <use xlink:href="#DejaVuSans-61" transform="translate(68.603516 0)"/>
     <use xlink:href="#DejaVuSans-73" transform="translate(129.882812 0)"/>
     <use xlink:href="#DejaVuSans-65" transform="translate(181.982422 0)"/>
     <use xlink:href="#DejaVuSans-20" transform="translate(243.505859 0)"/>
     <use xlink:href="#DejaVuSans-50" transform="translate(275.292969 0)"/>
     <use xlink:href="#DejaVuSans-72" transform="translate(333.845703 0)"/>
     <use xlink:href="#DejaVuSans-6f" transform="translate(372.708984 0)"/>
     <use xlink:href="#DejaVuSans-64" transform="translate(433.890625 0)"/>
     <use xlink:href="#DejaVuSans-75" transform="translate(497.367188 0)"/>
     <use xlink:href="#DejaVuSans-63" transform="translate(560.746094 0)"/>
     <use xlink:href="#DejaVuSans-74" transform="translate(615.726562 0)"/>
     <use xlink:href="#DejaVuSans-3a" transform="translate(654.935547 0)"/>
     <use xlink:href="#DejaVuSans-20" transform="translate(688.626953 0)"/>
     <use xlink:href="#DejaVuSans-43" transform="translate(720.414062 0)"/>
     <use xlink:href="#DejaVuSans-6f" transform="translate(790.238281 0)"/>
     <use xlink:href="#DejaVuSans-63" transform="translate(851.419922 0)"/>
     <use xlink:href="#DejaVuSans-61" transform="translate(906.400391 0)"/>
     <use xlink:href="#DejaVuSans-69" transform="translate(967.679688 0)"/>
     <use xlink:href="#DejaVuSans-6e" transform="translate(995.462891 0)"/>
     <use xlink:href="#DejaVuSans-65" transform="translate(1058.841797 0)"/>
     <use xlink:href="#DejaVuSans-2c" transform="translate(1120.365234 0)"/>
     <use xlink:href="#DejaVuSans-20" transform="translate(1152.152344 0)"/>
     <use xlink:href="#DejaVuSans-52" transform="translate(1183.939453 0)"/>
     <use xlink:href="#DejaVuSans-65" transform="translate(1248.921875 0)"/>
     <use xlink:href="#DejaVuSans-63" transform="translate(1310.445312 0)"/>
     <use xlink:href="#DejaVuSans-69" transform="translate(1365.425781 0)"/>
     <use xlink:href="#DejaVuSans-70" transform="translate(1393.208984 0)"/>
     <use xlink:href="#DejaVuSans-65" transform="translate(1456.685547 0)"/>
     <use xlink:href="#DejaVuSans-20" transform="translate(1518.208984 0)"/>
     <use xlink:href="#DejaVuSans-73" transform="translate(1549.996094 0)"/>
     <use xlink:href="#DejaVuSans-69" transform="translate(1602.095703 0)"/>
     <use xlink:href="#DejaVuSans-7a" transform="translate(1629.878906 0)"/>
     <use xlink:href="#DejaVuSans-65" transform="translate(1682.369141 0)"/>
     <use xlink:href="#DejaVuSans-3a" transform="translate(1743.892578 0)"/>
     <use xlink:href="#DejaVuSans-20" transform="translate(1777.583984 0)"/>
     <use xlink:href="#DejaVuSans-39" transform="translate(1809.371094 0)"/>
     <use xlink:href="#DejaVuSans-2c" transform="translate(1872.994141 0)"/>
     <use xlink:href="#DejaVuSans-20" transform="translate(1904.78125 0)"/>
     <use xlink:href="#DejaVuSans-54" transform="translate(1936.568359 0)"/>
     <use xlink:href="#DejaVuSans-30" transform="translate(1997.652344 0)"/>
     <use xlink:href="#DejaVuSans-3a" transform="translate(2061.275391 0)"/>
     <use xlink:href="#DejaVuSans-20" transform="translate(2094.966797 0)"/>
     <use xlink:href="#DejaVuSans-35" transform="translate(2126.753906 0)"/>
     <use xlink:href="#DejaVuSans-30" transform="translate(2190.376953 0)"/>
     <use xlink:href="#DejaVuSans-2e" transform="translate(2254 0)"/>
     <use xlink:href="#DejaVuSans-30" transform="translate(2285.787109 0)"/>
    </g>
   </g>
  </g>
 </g>
 <defs>
  <clipPath id="p2d464d1907">
   <rect x="50.87" y="43.44" width="793.996" height="346.6"/>
  </clipPath>
 </defs>
</svg>
