<?xml version="1.0" encoding="utf-8" standalone="no"?>
<!DOCTYPE svg PUBLIC "-//W3C//DTD SVG 1.1//EN"
  "http://www.w3.org/Graphics/SVG/1.1/DTD/svg11.dtd">
<svg xmlns:xlink="http://www.w3.org/1999/xlink" width="864pt" height="432pt" viewBox="0 0 864 432" xmlns="http://www.w3.org/2000/svg" version="1.1">
 <metadata>
  <rdf:RDF xmlns:dc="http://purl.org/dc/elements/1.1/" xmlns:cc="http://creativecommons.org/ns#" xmlns:rdf="http://www.w3.org/1999/02/22-rdf-syntax-ns#">
   <cc:Work>
    <dc:type rdf:resource="http://purl.org/dc/dcmitype/StillImage"/>
    <dc:date>2025-05-24T02:20:47.897043</dc:date>
    <dc:format>image/svg+xml</dc:format>
    <dc:creator>
     <cc:Agent>
      <dc:title>Matplotlib v3.10.3, https://matplotlib.org/</dc:title>
     </cc:Agent>
    </dc:creator>
   </cc:Work>
  </rdf:RDF>
 </metadata>
 <defs>
  <style type="text/css">*{stroke-linejoin: round; stroke-linecap: butt}</style>
 </defs>
 <g id="figure_1">
  <g id="patch_1">
   <path d="M 0 432 
L 864 432 
L 864 0 
L 0 0 
z
" style="fill: #ffffff"/>
  </g>
  <g id="axes_1">
   <g id="patch_2">
    <path d="M 50.87 390.04 
L 844.866 390.04 
L 844.866 43.44 
L 50.87 43.44 
z
" style="fill: #ffffff"/>
   </g>
   <g id="FillBetweenPolyCollection_1">
    <defs>
     <path id="md1f63d4dc0" d="M 52.193327 -311.838211 
L 52.193327 -57.714545 
L 54.83998 -57.905565 
L 57.486633 -66.937892 
L 60.133287 -76.938586 
L 62.77994 -86.156364 
L 65.426593 -95.171547 
L 68.073247 -103.258054 
L 70.7199 -109.775516 
L 73.366553 -117.554246 
L 76.013207 -124.263794 
L 78.65986 -130.738995 
L 81.306513 -136.141804 
L 83.953167 -140.823741 
L 86.59982 -144.801558 
L 89.246473 -149.464812 
L 91.893127 -153.258157 
L 94.53978 -157.011777 
L 97.186433 -160.66776 
L 99.833087 -163.949071 
L 102.47974 -166.461544 
L 105.126393 -169.215955 
L 107.773047 -171.949797 
L 110.4197 -174.350464 
L 113.066353 -176.521342 
L 115.713007 -179.165922 
L 118.35966 -182.180819 
L 121.006313 -183.953895 
L 123.652967 -185.754053 
L 126.29962 -186.995671 
L 128.946273 -188.126785 
L 131.592927 -189.973807 
L 134.23958 -191.044785 
L 136.886233 -192.879233 
L 139.532887 -194.651635 
L 142.17954 -196.177811 
L 144.826193 -198.221613 
L 147.472847 -199.43862 
L 150.1195 -200.527787 
L 152.766153 -201.617335 
L 155.412807 -202.917091 
L 158.05946 -203.923082 
L 160.706113 -204.597223 
L 163.352767 -205.519477 
L 165.99942 -206.363989 
L 168.646073 -207.299088 
L 171.292727 -207.838158 
L 173.93938 -208.913874 
L 176.586033 -209.857102 
L 179.232687 -210.712123 
L 181.87934 -211.619422 
L 184.525993 -212.226802 
L 187.172647 -213.397056 
L 189.8193 -214.40271 
L 192.465953 -214.859728 
L 195.112607 -215.616933 
L 197.75926 -216.134805 
L 200.405913 -216.920978 
L 203.052567 -217.672007 
L 205.69922 -218.564417 
L 208.345873 -219.38827 
L 210.992527 -219.892782 
L 213.63918 -220.275493 
L 216.285833 -221.052931 
L 218.932487 -221.643582 
L 221.57914 -222.144949 
L 224.225793 -222.818439 
L 226.872447 -223.263802 
L 229.5191 -223.778307 
L 232.165753 -224.079482 
L 234.812407 -224.818453 
L 237.45906 -225.682636 
L 240.105713 -226.179759 
L 242.752367 -226.576236 
L 245.39902 -227.022116 
L 248.045673 -227.221028 
L 250.692327 -227.560603 
L 253.33898 -227.670119 
L 255.985633 -227.6416 
L 258.632287 -228.181097 
L 261.27894 -228.93069 
L 263.925593 -229.362849 
L 266.572247 -230.083518 
L 269.2189 -230.298441 
L 271.865553 -230.711356 
L 274.512207 -231.279888 
L 277.15886 -231.829558 
L 279.805513 -232.794522 
L 282.452167 -233.238718 
L 285.09882 -233.990196 
L 287.745473 -234.533646 
L 290.392127 -234.554103 
L 293.03878 -235.106647 
L 295.685433 -235.298598 
L 298.332087 -235.874181 
L 300.97874 -236.020367 
L 303.625393 -236.274071 
L 306.272047 -236.879566 
L 308.9187 -237.29129 
L 311.565353 -237.886747 
L 314.212007 -237.951958 
L 316.85866 -238.078877 
L 319.505313 -238.416655 
L 322.151967 -238.586869 
L 324.79862 -238.726588 
L 327.445273 -239.020398 
L 330.091927 -239.289731 
L 332.73858 -239.758987 
L 335.385233 -240.184005 
L 338.031887 -240.328799 
L 340.67854 -240.231769 
L 343.325193 -240.671114 
L 345.971847 -241.066603 
L 348.6185 -241.481359 
L 351.265153 -241.811165 
L 353.911807 -241.911092 
L 356.55846 -242.205823 
L 359.205113 -242.620601 
L 361.851767 -242.829259 
L 364.49842 -242.628798 
L 367.145073 -242.902757 
L 369.791727 -243.159717 
L 372.43838 -243.701976 
L 375.085033 -244.197797 
L 377.731687 -244.47984 
L 380.37834 -244.692517 
L 383.024993 -244.687263 
L 385.671647 -244.877125 
L 388.3183 -245.016867 
L 390.964953 -245.511385 
L 393.611607 -245.793182 
L 396.25826 -246.320553 
L 398.904913 -246.70661 
L 401.551567 -247.076455 
L 404.19822 -247.48041 
L 406.844873 -247.721157 
L 409.491527 -247.861392 
L 412.13818 -247.76764 
L 414.784833 -247.929613 
L 417.431487 -247.981777 
L 420.07814 -248.206177 
L 422.724793 -248.332624 
L 425.371447 -248.453728 
L 428.0181 -248.541844 
L 430.664753 -248.635866 
L 433.311407 -248.835631 
L 435.95806 -248.961248 
L 438.604713 -249.357096 
L 441.251367 -249.620277 
L 443.89802 -249.892035 
L 446.544673 -249.929558 
L 449.191327 -250.254874 
L 451.83798 -250.151398 
L 454.484633 -250.074981 
L 457.131287 -250.253683 
L 459.77794 -250.648634 
L 462.424593 -250.638326 
L 465.071247 -250.705042 
L 467.7179 -251.138055 
L 470.364553 -251.357671 
L 473.011207 -251.633853 
L 475.65786 -252.106971 
L 478.304513 -252.584962 
L 480.951167 -252.580628 
L 483.59782 -252.474481 
L 486.244473 -252.504773 
L 488.891127 -252.695399 
L 491.53778 -252.790701 
L 494.184433 -253.018851 
L 496.831087 -253.194364 
L 499.47774 -252.969134 
L 502.124393 -253.378905 
L 504.771047 -253.570766 
L 507.4177 -253.581836 
L 510.064353 -253.376659 
L 512.711007 -253.2759 
L 515.35766 -253.58909 
L 518.004313 -253.696203 
L 520.650967 -254.101258 
L 523.29762 -253.838123 
L 525.944273 -254.199502 
L 528.590927 -254.521381 
L 531.23758 -254.206665 
L 533.884233 -254.143789 
L 536.530887 -254.427651 
L 539.17754 -254.309557 
L 541.824193 -254.706169 
L 544.470847 -254.659147 
L 547.1175 -254.829315 
L 549.764153 -255.008691 
L 552.410807 -254.977411 
L 555.05746 -254.983316 
L 557.704113 -255.195253 
L 560.350767 -255.447587 
L 562.99742 -255.85006 
L 565.644073 -255.929283 
L 568.290727 -255.924837 
L 570.93738 -255.786825 
L 573.584033 -256.1714 
L 576.230687 -256.525167 
L 578.87734 -256.898964 
L 581.523993 -256.993098 
L 584.170647 -257.088377 
L 586.8173 -257.048271 
L 589.463953 -257.006571 
L 592.110607 -256.913111 
L 594.75726 -257.164389 
L 597.403913 -257.423011 
L 600.050567 -257.600478 
L 602.69722 -257.792923 
L 605.343873 -257.937021 
L 607.990527 -257.941355 
L 610.63718 -258.192589 
L 613.283833 -258.394106 
L 615.930487 -258.338192 
L 618.57714 -258.345826 
L 621.223793 -258.392422 
L 623.870447 -258.553227 
L 626.5171 -258.572696 
L 629.163753 -258.652908 
L 631.810407 -258.737947 
L 634.45706 -258.901694 
L 637.103713 -258.806886 
L 639.750367 -259.023695 
L 642.39702 -258.96338 
L 645.043673 -259.13658 
L 647.690327 -259.017745 
L 650.33698 -258.985296 
L 652.983633 -259.21632 
L 655.630287 -259.175204 
L 658.27694 -259.326061 
L 660.923593 -259.410696 
L 663.570247 -259.41265 
L 666.2169 -259.450286 
L 668.863553 -259.611158 
L 671.510207 -259.969168 
L 674.15686 -260.016842 
L 676.803513 -260.248943 
L 679.450167 -260.268255 
L 682.09682 -260.338856 
L 684.743473 -260.54053 
L 687.390127 -260.922231 
L 690.03678 -260.876444 
L 692.683433 -260.829871 
L 695.330087 -260.79008 
L 697.97674 -260.705826 
L 700.623393 -260.929215 
L 703.270047 -260.949493 
L 705.9167 -260.973587 
L 708.563353 -260.839392 
L 711.210007 -261.116675 
L 713.85666 -261.001567 
L 716.503313 -260.858345 
L 719.149967 -261.105986 
L 721.79662 -261.062736 
L 724.443273 -261.228145 
L 727.089927 -261.412596 
L 729.73658 -261.583842 
L 732.383233 -261.684107 
L 735.029887 -261.540728 
L 737.67654 -261.474708 
L 740.323193 -261.692371 
L 742.969847 -261.634345 
L 745.6165 -261.719834 
L 748.263153 -261.851716 
L 750.909807 -261.974234 
L 753.55646 -261.933252 
L 756.203113 -262.146042 
L 758.849767 -262.081931 
L 761.49642 -262.14474 
L 764.143073 -262.043644 
L 766.789727 -262.076789 
L 769.43638 -261.897728 
L 772.083033 -261.840645 
L 774.729687 -261.836334 
L 777.37634 -261.923641 
L 780.022993 -262.043824 
L 782.669647 -262.114559 
L 785.3163 -262.436349 
L 787.962953 -262.391078 
L 790.609607 -262.49388 
L 793.25626 -262.516785 
L 795.902913 -262.581368 
L 798.549567 -262.709455 
L 801.19622 -262.927364 
L 803.842873 -262.939221 
L 806.489527 -263.087608 
L 809.13618 -263.263526 
L 811.782833 -263.416673 
L 814.429487 -263.550172 
L 817.07614 -263.854334 
L 819.722793 -264.031644 
L 822.369447 -264.087379 
L 825.0161 -264.149424 
L 827.662753 -264.206259 
L 830.309407 -264.118659 
L 832.95606 -264.377596 
L 835.602713 -264.457717 
L 838.249367 -264.5437 
L 840.89602 -264.634084 
L 843.542673 -264.430007 
L 843.542673 -372.752145 
L 843.542673 -372.752145 
L 840.89602 -372.638699 
L 838.249367 -372.615659 
L 835.602713 -372.576137 
L 832.95606 -372.531136 
L 830.309407 -372.665601 
L 827.662753 -372.566302 
L 825.0161 -372.545867 
L 822.369447 -372.562484 
L 819.722793 -372.530642 
L 817.07614 -372.515193 
L 814.429487 -372.657606 
L 811.782833 -372.627157 
L 809.13618 -372.606947 
L 806.489527 -372.731665 
L 803.842873 -372.73436 
L 801.19622 -372.624327 
L 798.549567 -372.736875 
L 795.902913 -372.770918 
L 793.25626 -372.738851 
L 790.609607 -372.699509 
L 787.962953 -372.705123 
L 785.3163 -372.638564 
L 782.669647 -372.786277 
L 780.022993 -372.697937 
L 777.37634 -372.729195 
L 774.729687 -372.805455 
L 772.083033 -372.758657 
L 769.43638 -372.623698 
L 766.789727 -372.428738 
L 764.143073 -372.32679 
L 761.49642 -372.223 
L 758.849767 -372.130617 
L 756.203113 -371.972439 
L 753.55646 -372.025704 
L 750.909807 -371.941361 
L 748.263153 -371.910821 
L 745.6165 -371.947469 
L 742.969847 -371.988787 
L 740.323193 -371.868739 
L 737.67654 -371.97226 
L 735.029887 -371.859263 
L 732.383233 -371.701085 
L 729.73658 -371.776985 
L 727.089927 -371.815834 
L 724.443273 -371.806447 
L 721.79662 -371.849248 
L 719.149967 -371.738002 
L 716.503313 -371.778333 
L 713.85666 -371.568283 
L 711.210007 -371.365328 
L 708.563353 -371.437456 
L 705.9167 -371.287093 
L 703.270047 -371.234681 
L 700.623393 -371.189995 
L 697.97674 -371.293919 
L 695.330087 -371.166551 
L 692.683433 -371.111759 
L 690.03678 -370.984525 
L 687.390127 -370.9137 
L 684.743473 -371.140862 
L 682.09682 -371.1745 
L 679.450167 -371.139739 
L 676.803513 -371.130218 
L 674.15686 -371.213842 
L 671.510207 -371.115442 
L 668.863553 -371.229247 
L 666.2169 -371.254397 
L 663.570247 -371.124244 
L 660.923593 -371.055575 
L 658.27694 -370.977474 
L 655.630287 -371.029706 
L 652.983633 -370.856932 
L 650.33698 -370.975274 
L 647.690327 -370.851318 
L 645.043673 -370.659457 
L 642.39702 -370.727228 
L 639.750367 -370.597345 
L 637.103713 -370.628783 
L 634.45706 -370.437595 
L 631.810407 -370.429152 
L 629.163753 -370.453539 
L 626.5171 -370.427939 
L 623.870447 -370.414466 
L 621.223793 -370.492297 
L 618.57714 -370.419766 
L 615.930487 -370.35698 
L 613.283833 -370.19202 
L 610.63718 -370.243803 
L 607.990527 -370.306858 
L 605.343873 -370.194625 
L 602.69722 -370.213757 
L 600.050567 -370.179849 
L 597.403913 -370.261229 
L 594.75726 -370.425065 
L 592.110607 -370.475321 
L 589.463953 -370.31611 
L 586.8173 -370.149938 
L 584.170647 -370.048978 
L 581.523993 -369.967509 
L 578.87734 -369.959874 
L 576.230687 -370.093575 
L 573.584033 -370.096494 
L 570.93738 -370.190942 
L 568.290727 -370.103231 
L 565.644073 -369.932343 
L 562.99742 -369.926055 
L 560.350767 -370.025444 
L 557.704113 -370.160852 
L 555.05746 -370.231048 
L 552.410807 -370.024321 
L 549.764153 -369.864257 
L 547.1175 -369.90369 
L 544.470847 -369.934903 
L 541.824193 -369.799765 
L 539.17754 -370.037121 
L 536.530887 -369.82514 
L 533.884233 -369.933601 
L 531.23758 -369.819077 
L 528.590927 -369.489607 
L 525.944273 -369.567394 
L 523.29762 -369.742997 
L 520.650967 -369.383302 
L 518.004313 -369.495266 
L 515.35766 -369.456508 
L 512.711007 -369.503934 
L 510.064353 -369.310276 
L 507.4177 -368.991137 
L 504.771047 -368.942093 
L 502.124393 -368.878948 
L 499.47774 -368.948112 
L 496.831087 -368.679228 
L 494.184433 -368.78953 
L 491.53778 -368.762313 
L 488.891127 -368.741385 
L 486.244473 -368.794335 
L 483.59782 -368.587923 
L 480.951167 -368.392379 
L 478.304513 -368.279472 
L 475.65786 -368.299817 
L 473.011207 -368.545706 
L 470.364553 -368.553476 
L 467.7179 -368.646532 
L 465.071247 -368.8273 
L 462.424593 -368.640828 
L 459.77794 -368.484447 
L 457.131287 -368.675051 
L 454.484633 -368.637325 
L 451.83798 -368.414386 
L 449.191327 -368.256837 
L 446.544673 -368.4019 
L 443.89802 -368.266223 
L 441.251367 -368.307047 
L 438.604713 -368.320072 
L 435.95806 -368.390223 
L 433.311407 -368.280235 
L 430.664753 -368.192569 
L 428.0181 -368.164185 
L 425.371447 -368.178421 
L 422.724793 -368.064751 
L 420.07814 -367.933655 
L 417.431487 -367.965587 
L 414.784833 -367.821556 
L 412.13818 -367.786031 
L 409.491527 -367.564125 
L 406.844873 -367.378551 
L 404.19822 -367.420768 
L 401.551567 -367.524917 
L 398.904913 -367.671552 
L 396.25826 -367.732991 
L 393.611607 -367.83 
L 390.964953 -367.716329 
L 388.3183 -367.801077 
L 385.671647 -367.684128 
L 383.024993 -367.667376 
L 380.37834 -367.43963 
L 377.731687 -367.432849 
L 375.085033 -367.347517 
L 372.43838 -367.495006 
L 369.791727 -367.690415 
L 367.145073 -367.660459 
L 364.49842 -367.517731 
L 361.851767 -367.157767 
L 359.205113 -367.145327 
L 356.55846 -367.177573 
L 353.911807 -367.117167 
L 351.265153 -366.810603 
L 348.6185 -366.814106 
L 345.971847 -367.049216 
L 343.325193 -367.203981 
L 340.67854 -367.132347 
L 338.031887 -366.821426 
L 335.385233 -366.658578 
L 332.73858 -366.670794 
L 330.091927 -366.705914 
L 327.445273 -366.682246 
L 324.79862 -366.729672 
L 322.151967 -366.658039 
L 319.505313 -366.559952 
L 316.85866 -366.499996 
L 314.212007 -366.300769 
L 311.565353 -366.049266 
L 308.9187 -366.301488 
L 306.272047 -366.270769 
L 303.625393 -366.463618 
L 300.97874 -366.413092 
L 298.332087 -366.273373 
L 295.685433 -366.341459 
L 293.03878 -366.110974 
L 290.392127 -366.1306 
L 287.745473 -365.854081 
L 285.09882 -365.85242 
L 282.452167 -365.889561 
L 279.805513 -365.857495 
L 277.15886 -366.09786 
L 274.512207 -366.050029 
L 271.865553 -366.209869 
L 269.2189 -366.26475 
L 266.572247 -365.988231 
L 263.925593 -366.246966 
L 261.27894 -366.230753 
L 258.632287 -366.510281 
L 255.985633 -366.396071 
L 253.33898 -366.031122 
L 250.692327 -365.693883 
L 248.045673 -365.453742 
L 245.39902 -365.209379 
L 242.752367 -365.099257 
L 240.105713 -364.959313 
L 237.45906 -364.705789 
L 234.812407 -364.694651 
L 232.165753 -364.483927 
L 229.5191 -364.009304 
L 226.872447 -363.94544 
L 224.225793 -363.550849 
L 221.57914 -363.535804 
L 218.932487 -363.537646 
L 216.285833 -363.370531 
L 213.63918 -363.338329 
L 210.992527 -363.172427 
L 208.345873 -362.894111 
L 205.69922 -362.838781 
L 203.052567 -362.733284 
L 200.405913 -362.607353 
L 197.75926 -362.494041 
L 195.112607 -362.085573 
L 192.465953 -361.946617 
L 189.8193 -361.673287 
L 187.172647 -361.702659 
L 184.525993 -361.824234 
L 181.87934 -361.369372 
L 179.232687 -361.20868 
L 176.586033 -361.115354 
L 173.93938 -360.91469 
L 171.292727 -360.82599 
L 168.646073 -360.147111 
L 165.99942 -360.090208 
L 163.352767 -359.690408 
L 160.706113 -359.470073 
L 158.05946 -358.997112 
L 155.412807 -358.773633 
L 152.766153 -358.64851 
L 150.1195 -358.423594 
L 147.472847 -358.087792 
L 144.826193 -357.726705 
L 142.17954 -357.97511 
L 139.532887 -358.049393 
L 136.886233 -357.8512 
L 134.23958 -357.824298 
L 131.592927 -357.195988 
L 128.946273 -356.806517 
L 126.29962 -356.044642 
L 123.652967 -355.296869 
L 121.006313 -354.525023 
L 118.35966 -353.803657 
L 115.713007 -354.288789 
L 113.066353 -354.18208 
L 110.4197 -353.192594 
L 107.773047 -352.695875 
L 105.126393 -352.082566 
L 102.47974 -351.463059 
L 99.833087 -350.415772 
L 97.186433 -349.686951 
L 94.53978 -349.344772 
L 91.893127 -348.658572 
L 89.246473 -347.618696 
L 86.59982 -346.629344 
L 83.953167 -345.317889 
L 81.306513 -343.887329 
L 78.65986 -342.429373 
L 76.013207 -341.443794 
L 73.366553 -339.533671 
L 70.7199 -338.190957 
L 68.073247 -334.30541 
L 65.426593 -331.197996 
L 62.77994 -328.079355 
L 60.133287 -323.454477 
L 57.486633 -318.240768 
L 54.83998 -311.935938 
L 52.193327 -311.838211 
z
" style="stroke: #0000ff; stroke-opacity: 0.2"/>
    </defs>
    <g clip-path="url(#p6a45015560)">
     <use xlink:href="#md1f63d4dc0" x="0" y="432" style="fill: #0000ff; fill-opacity: 0.2; stroke: #0000ff; stroke-opacity: 0.2"/>
    </g>
   </g>
   <g id="matplotlib.axis_1">
    <g id="xtick_1">
     <g id="line2d_1">
      <defs>
       <path id="me0db3a76e7" d="M 0 0 
L 0 3.5 
" style="stroke: #000000; stroke-width: 0.8"/>
      </defs>
      <g>
       <use xlink:href="#me0db3a76e7" x="181.87934" y="390.04" style="stroke: #000000; stroke-width: 0.8"/>
      </g>
     </g>
     <g id="text_1">
      <!-- 50 -->
      <g transform="translate(175.51684 404.638438) scale(0.1 -0.1)">
       <defs>
        <path id="DejaVuSans-35" d="M 691 4666 
L 3169 4666 
L 3169 4134 
L 1269 4134 
L 1269 2991 
Q 1406 3038 1543 3061 
Q 1681 3084 1819 3084 
Q 2600 3084 3056 2656 
Q 3513 2228 3513 1497 
Q 3513 744 3044 326 
Q 2575 -91 1722 -91 
Q 1428 -91 1123 -41 
Q 819 9 494 109 
L 494 744 
Q 775 591 1075 516 
Q 1375 441 1709 441 
Q 2250 441 2565 725 
Q 2881 1009 2881 1497 
Q 2881 1984 2565 2268 
Q 2250 2553 1709 2553 
Q 1456 2553 1204 2497 
Q 953 2441 691 2322 
L 691 4666 
z
" transform="scale(0.015625)"/>
        <path id="DejaVuSans-30" d="M 2034 4250 
Q 1547 4250 1301 3770 
Q 1056 3291 1056 2328 
Q 1056 1369 1301 889 
Q 1547 409 2034 409 
Q 2525 409 2770 889 
Q 3016 1369 3016 2328 
Q 3016 3291 2770 3770 
Q 2525 4250 2034 4250 
z
M 2034 4750 
Q 2819 4750 3233 4129 
Q 3647 3509 3647 2328 
Q 3647 1150 3233 529 
Q 2819 -91 2034 -91 
Q 1250 -91 836 529 
Q 422 1150 422 2328 
Q 422 3509 836 4129 
Q 1250 4750 2034 4750 
z
" transform="scale(0.015625)"/>
       </defs>
       <use xlink:href="#DejaVuSans-35"/>
       <use xlink:href="#DejaVuSans-30" transform="translate(63.623047 0)"/>
      </g>
     </g>
    </g>
    <g id="xtick_2">
     <g id="line2d_2">
      <g>
       <use xlink:href="#me0db3a76e7" x="314.212007" y="390.04" style="stroke: #000000; stroke-width: 0.8"/>
      </g>
     </g>
     <g id="text_2">
      <!-- 100 -->
      <g transform="translate(304.668257 404.638438) scale(0.1 -0.1)">
       <defs>
        <path id="DejaVuSans-31" d="M 794 531 
L 1825 531 
L 1825 4091 
L 703 3866 
L 703 4441 
L 1819 4666 
L 2450 4666 
L 2450 531 
L 3481 531 
L 3481 0 
L 794 0 
L 794 531 
z
" transform="scale(0.015625)"/>
       </defs>
       <use xlink:href="#DejaVuSans-31"/>
       <use xlink:href="#DejaVuSans-30" transform="translate(63.623047 0)"/>
       <use xlink:href="#DejaVuSans-30" transform="translate(127.246094 0)"/>
      </g>
     </g>
    </g>
    <g id="xtick_3">
     <g id="line2d_3">
      <g>
       <use xlink:href="#me0db3a76e7" x="446.544673" y="390.04" style="stroke: #000000; stroke-width: 0.8"/>
      </g>
     </g>
     <g id="text_3">
      <!-- 150 -->
      <g transform="translate(437.000923 404.638438) scale(0.1 -0.1)">
       <use xlink:href="#DejaVuSans-31"/>
       <use xlink:href="#DejaVuSans-35" transform="translate(63.623047 0)"/>
       <use xlink:href="#DejaVuSans-30" transform="translate(127.246094 0)"/>
      </g>
     </g>
    </g>
    <g id="xtick_4">
     <g id="line2d_4">
      <g>
       <use xlink:href="#me0db3a76e7" x="578.87734" y="390.04" style="stroke: #000000; stroke-width: 0.8"/>
      </g>
     </g>
     <g id="text_4">
      <!-- 200 -->
      <g transform="translate(569.33359 404.638438) scale(0.1 -0.1)">
       <defs>
        <path id="DejaVuSans-32" d="M 1228 531 
L 3431 531 
L 3431 0 
L 469 0 
L 469 531 
Q 828 903 1448 1529 
Q 2069 2156 2228 2338 
Q 2531 2678 2651 2914 
Q 2772 3150 2772 3378 
Q 2772 3750 2511 3984 
Q 2250 4219 1831 4219 
Q 1534 4219 1204 4116 
Q 875 4013 500 3803 
L 500 4441 
Q 881 4594 1212 4672 
Q 1544 4750 1819 4750 
Q 2544 4750 2975 4387 
Q 3406 4025 3406 3419 
Q 3406 3131 3298 2873 
Q 3191 2616 2906 2266 
Q 2828 2175 2409 1742 
Q 1991 1309 1228 531 
z
" transform="scale(0.015625)"/>
       </defs>
       <use xlink:href="#DejaVuSans-32"/>
       <use xlink:href="#DejaVuSans-30" transform="translate(63.623047 0)"/>
       <use xlink:href="#DejaVuSans-30" transform="translate(127.246094 0)"/>
      </g>
     </g>
    </g>
    <g id="xtick_5">
     <g id="line2d_5">
      <g>
       <use xlink:href="#me0db3a76e7" x="711.210007" y="390.04" style="stroke: #000000; stroke-width: 0.8"/>
      </g>
     </g>
     <g id="text_5">
      <!-- 250 -->
      <g transform="translate(701.666257 404.638438) scale(0.1 -0.1)">
       <use xlink:href="#DejaVuSans-32"/>
       <use xlink:href="#DejaVuSans-35" transform="translate(63.623047 0)"/>
       <use xlink:href="#DejaVuSans-30" transform="translate(127.246094 0)"/>
      </g>
     </g>
    </g>
    <g id="xtick_6">
     <g id="line2d_6">
      <g>
       <use xlink:href="#me0db3a76e7" x="843.542673" y="390.04" style="stroke: #000000; stroke-width: 0.8"/>
      </g>
     </g>
     <g id="text_6">
      <!-- 300 -->
      <g transform="translate(833.998923 404.638438) scale(0.1 -0.1)">
       <defs>
        <path id="DejaVuSans-33" d="M 2597 2516 
Q 3050 2419 3304 2112 
Q 3559 1806 3559 1356 
Q 3559 666 3084 287 
Q 2609 -91 1734 -91 
Q 1441 -91 1130 -33 
Q 819 25 488 141 
L 488 750 
Q 750 597 1062 519 
Q 1375 441 1716 441 
Q 2309 441 2620 675 
Q 2931 909 2931 1356 
Q 2931 1769 2642 2001 
Q 2353 2234 1838 2234 
L 1294 2234 
L 1294 2753 
L 1863 2753 
Q 2328 2753 2575 2939 
Q 2822 3125 2822 3475 
Q 2822 3834 2567 4026 
Q 2313 4219 1838 4219 
Q 1578 4219 1281 4162 
Q 984 4106 628 3988 
L 628 4550 
Q 988 4650 1302 4700 
Q 1616 4750 1894 4750 
Q 2613 4750 3031 4423 
Q 3450 4097 3450 3541 
Q 3450 3153 3228 2886 
Q 3006 2619 2597 2516 
z
" transform="scale(0.015625)"/>
       </defs>
       <use xlink:href="#DejaVuSans-33"/>
       <use xlink:href="#DejaVuSans-30" transform="translate(63.623047 0)"/>
       <use xlink:href="#DejaVuSans-30" transform="translate(127.246094 0)"/>
      </g>
     </g>
    </g>
    <g id="text_7">
     <!-- Step -->
     <g transform="translate(436.482844 418.316562) scale(0.1 -0.1)">
      <defs>
       <path id="DejaVuSans-53" d="M 3425 4513 
L 3425 3897 
Q 3066 4069 2747 4153 
Q 2428 4238 2131 4238 
Q 1616 4238 1336 4038 
Q 1056 3838 1056 3469 
Q 1056 3159 1242 3001 
Q 1428 2844 1947 2747 
L 2328 2669 
Q 3034 2534 3370 2195 
Q 3706 1856 3706 1288 
Q 3706 609 3251 259 
Q 2797 -91 1919 -91 
Q 1588 -91 1214 -16 
Q 841 59 441 206 
L 441 856 
Q 825 641 1194 531 
Q 1563 422 1919 422 
Q 2459 422 2753 634 
Q 3047 847 3047 1241 
Q 3047 1584 2836 1778 
Q 2625 1972 2144 2069 
L 1759 2144 
Q 1053 2284 737 2584 
Q 422 2884 422 3419 
Q 422 4038 858 4394 
Q 1294 4750 2059 4750 
Q 2388 4750 2728 4690 
Q 3069 4631 3425 4513 
z
" transform="scale(0.015625)"/>
       <path id="DejaVuSans-74" d="M 1172 4494 
L 1172 3500 
L 2356 3500 
L 2356 3053 
L 1172 3053 
L 1172 1153 
Q 1172 725 1289 603 
Q 1406 481 1766 481 
L 2356 481 
L 2356 0 
L 1766 0 
Q 1100 0 847 248 
Q 594 497 594 1153 
L 594 3053 
L 172 3053 
L 172 3500 
L 594 3500 
L 594 4494 
L 1172 4494 
z
" transform="scale(0.015625)"/>
       <path id="DejaVuSans-65" d="M 3597 1894 
L 3597 1613 
L 953 1613 
Q 991 1019 1311 708 
Q 1631 397 2203 397 
Q 2534 397 2845 478 
Q 3156 559 3463 722 
L 3463 178 
Q 3153 47 2828 -22 
Q 2503 -91 2169 -91 
Q 1331 -91 842 396 
Q 353 884 353 1716 
Q 353 2575 817 3079 
Q 1281 3584 2069 3584 
Q 2775 3584 3186 3129 
Q 3597 2675 3597 1894 
z
M 3022 2063 
Q 3016 2534 2758 2815 
Q 2500 3097 2075 3097 
Q 1594 3097 1305 2825 
Q 1016 2553 972 2059 
L 3022 2063 
z
" transform="scale(0.015625)"/>
       <path id="DejaVuSans-70" d="M 1159 525 
L 1159 -1331 
L 581 -1331 
L 581 3500 
L 1159 3500 
L 1159 2969 
Q 1341 3281 1617 3432 
Q 1894 3584 2278 3584 
Q 2916 3584 3314 3078 
Q 3713 2572 3713 1747 
Q 3713 922 3314 415 
Q 2916 -91 2278 -91 
Q 1894 -91 1617 61 
Q 1341 213 1159 525 
z
M 3116 1747 
Q 3116 2381 2855 2742 
Q 2594 3103 2138 3103 
Q 1681 3103 1420 2742 
Q 1159 2381 1159 1747 
Q 1159 1113 1420 752 
Q 1681 391 2138 391 
Q 2594 391 2855 752 
Q 3116 1113 3116 1747 
z
" transform="scale(0.015625)"/>
      </defs>
      <use xlink:href="#DejaVuSans-53"/>
      <use xlink:href="#DejaVuSans-74" transform="translate(63.476562 0)"/>
      <use xlink:href="#DejaVuSans-65" transform="translate(102.685547 0)"/>
      <use xlink:href="#DejaVuSans-70" transform="translate(164.208984 0)"/>
     </g>
    </g>
   </g>
   <g id="matplotlib.axis_2">
    <g id="ytick_1">
     <g id="line2d_7">
      <defs>
       <path id="mf3976cc41e" d="M 0 0 
L -3.5 0 
" style="stroke: #000000; stroke-width: 0.8"/>
      </defs>
      <g>
       <use xlink:href="#mf3976cc41e" x="50.87" y="376.881553" style="stroke: #000000; stroke-width: 0.8"/>
      </g>
     </g>
     <g id="text_8">
      <!-- 200 -->
      <g transform="translate(24.7825 380.680772) scale(0.1 -0.1)">
       <use xlink:href="#DejaVuSans-32"/>
       <use xlink:href="#DejaVuSans-30" transform="translate(63.623047 0)"/>
       <use xlink:href="#DejaVuSans-30" transform="translate(127.246094 0)"/>
      </g>
     </g>
    </g>
    <g id="ytick_2">
     <g id="line2d_8">
      <g>
       <use xlink:href="#mf3976cc41e" x="50.87" y="303.298856" style="stroke: #000000; stroke-width: 0.8"/>
      </g>
     </g>
     <g id="text_9">
      <!-- 300 -->
      <g transform="translate(24.7825 307.098075) scale(0.1 -0.1)">
       <use xlink:href="#DejaVuSans-33"/>
       <use xlink:href="#DejaVuSans-30" transform="translate(63.623047 0)"/>
       <use xlink:href="#DejaVuSans-30" transform="translate(127.246094 0)"/>
      </g>
     </g>
    </g>
    <g id="ytick_3">
     <g id="line2d_9">
      <g>
       <use xlink:href="#mf3976cc41e" x="50.87" y="229.716159" style="stroke: #000000; stroke-width: 0.8"/>
      </g>
     </g>
     <g id="text_10">
      <!-- 400 -->
      <g transform="translate(24.7825 233.515377) scale(0.1 -0.1)">
       <defs>
        <path id="DejaVuSans-34" d="M 2419 4116 
L 825 1625 
L 2419 1625 
L 2419 4116 
z
M 2253 4666 
L 3047 4666 
L 3047 1625 
L 3713 1625 
L 3713 1100 
L 3047 1100 
L 3047 0 
L 2419 0 
L 2419 1100 
L 313 1100 
L 313 1709 
L 2253 4666 
z
" transform="scale(0.015625)"/>
       </defs>
       <use xlink:href="#DejaVuSans-34"/>
       <use xlink:href="#DejaVuSans-30" transform="translate(63.623047 0)"/>
       <use xlink:href="#DejaVuSans-30" transform="translate(127.246094 0)"/>
      </g>
     </g>
    </g>
    <g id="ytick_4">
     <g id="line2d_10">
      <g>
       <use xlink:href="#mf3976cc41e" x="50.87" y="156.133461" style="stroke: #000000; stroke-width: 0.8"/>
      </g>
     </g>
     <g id="text_11">
      <!-- 500 -->
      <g transform="translate(24.7825 159.93268) scale(0.1 -0.1)">
       <use xlink:href="#DejaVuSans-35"/>
       <use xlink:href="#DejaVuSans-30" transform="translate(63.623047 0)"/>
       <use xlink:href="#DejaVuSans-30" transform="translate(127.246094 0)"/>
      </g>
     </g>
    </g>
    <g id="ytick_5">
     <g id="line2d_11">
      <g>
       <use xlink:href="#mf3976cc41e" x="50.87" y="82.550764" style="stroke: #000000; stroke-width: 0.8"/>
      </g>
     </g>
     <g id="text_12">
      <!-- 600 -->
      <g transform="translate(24.7825 86.349983) scale(0.1 -0.1)">
       <defs>
        <path id="DejaVuSans-36" d="M 2113 2584 
Q 1688 2584 1439 2293 
Q 1191 2003 1191 1497 
Q 1191 994 1439 701 
Q 1688 409 2113 409 
Q 2538 409 2786 701 
Q 3034 994 3034 1497 
Q 3034 2003 2786 2293 
Q 2538 2584 2113 2584 
z
M 3366 4563 
L 3366 3988 
Q 3128 4100 2886 4159 
Q 2644 4219 2406 4219 
Q 1781 4219 1451 3797 
Q 1122 3375 1075 2522 
Q 1259 2794 1537 2939 
Q 1816 3084 2150 3084 
Q 2853 3084 3261 2657 
Q 3669 2231 3669 1497 
Q 3669 778 3244 343 
Q 2819 -91 2113 -91 
Q 1303 -91 875 529 
Q 447 1150 447 2328 
Q 447 3434 972 4092 
Q 1497 4750 2381 4750 
Q 2619 4750 2861 4703 
Q 3103 4656 3366 4563 
z
" transform="scale(0.015625)"/>
       </defs>
       <use xlink:href="#DejaVuSans-36"/>
       <use xlink:href="#DejaVuSans-30" transform="translate(63.623047 0)"/>
       <use xlink:href="#DejaVuSans-30" transform="translate(127.246094 0)"/>
      </g>
     </g>
    </g>
    <g id="text_13">
     <!-- Profit -->
     <g transform="translate(18.702813 229.779063) rotate(-90) scale(0.1 -0.1)">
      <defs>
       <path id="DejaVuSans-50" d="M 1259 4147 
L 1259 2394 
L 2053 2394 
Q 2494 2394 2734 2622 
Q 2975 2850 2975 3272 
Q 2975 3691 2734 3919 
Q 2494 4147 2053 4147 
L 1259 4147 
z
M 628 4666 
L 2053 4666 
Q 2838 4666 3239 4311 
Q 3641 3956 3641 3272 
Q 3641 2581 3239 2228 
Q 2838 1875 2053 1875 
L 1259 1875 
L 1259 0 
L 628 0 
L 628 4666 
z
" transform="scale(0.015625)"/>
       <path id="DejaVuSans-72" d="M 2631 2963 
Q 2534 3019 2420 3045 
Q 2306 3072 2169 3072 
Q 1681 3072 1420 2755 
Q 1159 2438 1159 1844 
L 1159 0 
L 581 0 
L 581 3500 
L 1159 3500 
L 1159 2956 
Q 1341 3275 1631 3429 
Q 1922 3584 2338 3584 
Q 2397 3584 2469 3576 
Q 2541 3569 2628 3553 
L 2631 2963 
z
" transform="scale(0.015625)"/>
       <path id="DejaVuSans-6f" d="M 1959 3097 
Q 1497 3097 1228 2736 
Q 959 2375 959 1747 
Q 959 1119 1226 758 
Q 1494 397 1959 397 
Q 2419 397 2687 759 
Q 2956 1122 2956 1747 
Q 2956 2369 2687 2733 
Q 2419 3097 1959 3097 
z
M 1959 3584 
Q 2709 3584 3137 3096 
Q 3566 2609 3566 1747 
Q 3566 888 3137 398 
Q 2709 -91 1959 -91 
Q 1206 -91 779 398 
Q 353 888 353 1747 
Q 353 2609 779 3096 
Q 1206 3584 1959 3584 
z
" transform="scale(0.015625)"/>
       <path id="DejaVuSans-66" d="M 2375 4863 
L 2375 4384 
L 1825 4384 
Q 1516 4384 1395 4259 
Q 1275 4134 1275 3809 
L 1275 3500 
L 2222 3500 
L 2222 3053 
L 1275 3053 
L 1275 0 
L 697 0 
L 697 3053 
L 147 3053 
L 147 3500 
L 697 3500 
L 697 3744 
Q 697 4328 969 4595 
Q 1241 4863 1831 4863 
L 2375 4863 
z
" transform="scale(0.015625)"/>
       <path id="DejaVuSans-69" d="M 603 3500 
L 1178 3500 
L 1178 0 
L 603 0 
L 603 3500 
z
M 603 4863 
L 1178 4863 
L 1178 4134 
L 603 4134 
L 603 4863 
z
" transform="scale(0.015625)"/>
      </defs>
      <use xlink:href="#DejaVuSans-50"/>
      <use xlink:href="#DejaVuSans-72" transform="translate(58.552734 0)"/>
      <use xlink:href="#DejaVuSans-6f" transform="translate(97.416016 0)"/>
      <use xlink:href="#DejaVuSans-66" transform="translate(158.597656 0)"/>
      <use xlink:href="#DejaVuSans-69" transform="translate(193.802734 0)"/>
      <use xlink:href="#DejaVuSans-74" transform="translate(221.585938 0)"/>
     </g>
    </g>
   </g>
   <g id="line2d_12">
    <path d="M 52.193327 247.223622 
L 54.83998 247.079254 
L 60.133287 231.803479 
L 62.77994 224.882152 
L 65.426593 218.81524 
L 68.073247 213.218257 
L 70.7199 208.016763 
L 73.366553 203.456042 
L 76.013207 199.146217 
L 78.65986 195.415816 
L 81.306513 191.985445 
L 83.953167 188.929185 
L 86.59982 186.28456 
L 89.246473 183.458246 
L 91.893127 181.041636 
L 94.53978 178.821737 
L 99.833087 174.817579 
L 105.126393 171.35074 
L 107.773047 169.677164 
L 110.4197 168.22846 
L 113.066353 166.648278 
L 118.35966 164.007762 
L 123.652967 161.474539 
L 134.23958 157.565459 
L 139.532887 155.649497 
L 142.17954 154.923551 
L 147.472847 153.236794 
L 155.412807 151.154638 
L 165.99942 148.772901 
L 171.292727 147.667926 
L 176.586033 146.513772 
L 181.87934 145.505603 
L 189.8193 143.962001 
L 195.112607 143.148747 
L 210.992527 140.467407 
L 213.63918 140.193089 
L 218.932487 139.409386 
L 224.225793 138.815344 
L 226.872447 138.395379 
L 232.165753 137.718296 
L 237.45906 136.805788 
L 242.752367 136.162253 
L 253.33898 135.149368 
L 255.985633 134.981176 
L 261.27894 134.41929 
L 277.15886 133.036291 
L 279.805513 132.673992 
L 282.452167 132.435872 
L 287.745473 131.806125 
L 290.392127 131.657649 
L 298.332087 130.926223 
L 306.272047 130.424833 
L 311.565353 130.031994 
L 383.024993 125.822681 
L 388.3183 125.591028 
L 398.904913 124.810919 
L 428.0181 123.646997 
L 433.311407 123.442067 
L 451.83798 122.717108 
L 462.424593 122.360423 
L 480.951167 121.513485 
L 488.891127 121.281608 
L 499.47774 121.041377 
L 504.771047 120.74357 
L 512.711007 120.610094 
L 520.650967 120.25772 
L 525.944273 120.116564 
L 528.590927 119.994495 
L 536.530887 119.873593 
L 552.410807 119.499123 
L 565.644073 119.069187 
L 597.403913 118.157891 
L 607.990527 117.875893 
L 615.930487 117.652414 
L 637.103713 117.282166 
L 645.043673 117.101981 
L 658.27694 116.848232 
L 679.450167 116.296003 
L 705.9167 115.86966 
L 711.210007 115.758998 
L 727.089927 115.385785 
L 732.383233 115.307415 
L 745.6165 115.166349 
L 817.07614 113.815237 
L 822.369447 113.675068 
L 835.602713 113.483073 
L 840.89602 113.363609 
L 843.542673 113.408924 
L 843.542673 113.408924 
" clip-path="url(#p6a45015560)" style="fill: none; stroke: #0000ff; stroke-width: 1.5; stroke-linecap: square"/>
   </g>
   <g id="patch_3">
    <path d="M 50.87 390.04 
L 50.87 43.44 
" style="fill: none; stroke: #000000; stroke-width: 0.8; stroke-linejoin: miter; stroke-linecap: square"/>
   </g>
   <g id="patch_4">
    <path d="M 844.866 390.04 
L 844.866 43.44 
" style="fill: none; stroke: #000000; stroke-width: 0.8; stroke-linejoin: miter; stroke-linecap: square"/>
   </g>
   <g id="patch_5">
    <path d="M 50.87 390.04 
L 844.866 390.04 
" style="fill: none; stroke: #000000; stroke-width: 0.8; stroke-linejoin: miter; stroke-linecap: square"/>
   </g>
   <g id="patch_6">
    <path d="M 50.87 43.44 
L 844.866 43.44 
" style="fill: none; stroke: #000000; stroke-width: 0.8; stroke-linejoin: miter; stroke-linecap: square"/>
   </g>
   <g id="text_14">
    <!-- Mean profit per step with confidence interval per simulation step -->
    <g transform="translate(220.284875 21.763062) scale(0.14 -0.14)">
     <defs>
      <path id="DejaVuSans-4d" d="M 628 4666 
L 1569 4666 
L 2759 1491 
L 3956 4666 
L 4897 4666 
L 4897 0 
L 4281 0 
L 4281 4097 
L 3078 897 
L 2444 897 
L 1241 4097 
L 1241 0 
L 628 0 
L 628 4666 
z
" transform="scale(0.015625)"/>
      <path id="DejaVuSans-61" d="M 2194 1759 
Q 1497 1759 1228 1600 
Q 959 1441 959 1056 
Q 959 750 1161 570 
Q 1363 391 1709 391 
Q 2188 391 2477 730 
Q 2766 1069 2766 1631 
L 2766 1759 
L 2194 1759 
z
M 3341 1997 
L 3341 0 
L 2766 0 
L 2766 531 
Q 2569 213 2275 61 
Q 1981 -91 1556 -91 
Q 1019 -91 701 211 
Q 384 513 384 1019 
Q 384 1609 779 1909 
Q 1175 2209 1959 2209 
L 2766 2209 
L 2766 2266 
Q 2766 2663 2505 2880 
Q 2244 3097 1772 3097 
Q 1472 3097 1187 3025 
Q 903 2953 641 2809 
L 641 3341 
Q 956 3463 1253 3523 
Q 1550 3584 1831 3584 
Q 2591 3584 2966 3190 
Q 3341 2797 3341 1997 
z
" transform="scale(0.015625)"/>
      <path id="DejaVuSans-6e" d="M 3513 2113 
L 3513 0 
L 2938 0 
L 2938 2094 
Q 2938 2591 2744 2837 
Q 2550 3084 2163 3084 
Q 1697 3084 1428 2787 
Q 1159 2491 1159 1978 
L 1159 0 
L 581 0 
L 581 3500 
L 1159 3500 
L 1159 2956 
Q 1366 3272 1645 3428 
Q 1925 3584 2291 3584 
Q 2894 3584 3203 3211 
Q 3513 2838 3513 2113 
z
" transform="scale(0.015625)"/>
      <path id="DejaVuSans-20" transform="scale(0.015625)"/>
      <path id="DejaVuSans-73" d="M 2834 3397 
L 2834 2853 
Q 2591 2978 2328 3040 
Q 2066 3103 1784 3103 
Q 1356 3103 1142 2972 
Q 928 2841 928 2578 
Q 928 2378 1081 2264 
Q 1234 2150 1697 2047 
L 1894 2003 
Q 2506 1872 2764 1633 
Q 3022 1394 3022 966 
Q 3022 478 2636 193 
Q 2250 -91 1575 -91 
Q 1294 -91 989 -36 
Q 684 19 347 128 
L 347 722 
Q 666 556 975 473 
Q 1284 391 1588 391 
Q 1994 391 2212 530 
Q 2431 669 2431 922 
Q 2431 1156 2273 1281 
Q 2116 1406 1581 1522 
L 1381 1569 
Q 847 1681 609 1914 
Q 372 2147 372 2553 
Q 372 3047 722 3315 
Q 1072 3584 1716 3584 
Q 2034 3584 2315 3537 
Q 2597 3491 2834 3397 
z
" transform="scale(0.015625)"/>
      <path id="DejaVuSans-77" d="M 269 3500 
L 844 3500 
L 1563 769 
L 2278 3500 
L 2956 3500 
L 3675 769 
L 4391 3500 
L 4966 3500 
L 4050 0 
L 3372 0 
L 2619 2869 
L 1863 0 
L 1184 0 
L 269 3500 
z
" transform="scale(0.015625)"/>
      <path id="DejaVuSans-68" d="M 3513 2113 
L 3513 0 
L 2938 0 
L 2938 2094 
Q 2938 2591 2744 2837 
Q 2550 3084 2163 3084 
Q 1697 3084 1428 2787 
Q 1159 2491 1159 1978 
L 1159 0 
L 581 0 
L 581 4863 
L 1159 4863 
L 1159 2956 
Q 1366 3272 1645 3428 
Q 1925 3584 2291 3584 
Q 2894 3584 3203 3211 
Q 3513 2838 3513 2113 
z
" transform="scale(0.015625)"/>
      <path id="DejaVuSans-63" d="M 3122 3366 
L 3122 2828 
Q 2878 2963 2633 3030 
Q 2388 3097 2138 3097 
Q 1578 3097 1268 2742 
Q 959 2388 959 1747 
Q 959 1106 1268 751 
Q 1578 397 2138 397 
Q 2388 397 2633 464 
Q 2878 531 3122 666 
L 3122 134 
Q 2881 22 2623 -34 
Q 2366 -91 2075 -91 
Q 1284 -91 818 406 
Q 353 903 353 1747 
Q 353 2603 823 3093 
Q 1294 3584 2113 3584 
Q 2378 3584 2631 3529 
Q 2884 3475 3122 3366 
z
" transform="scale(0.015625)"/>
      <path id="DejaVuSans-64" d="M 2906 2969 
L 2906 4863 
L 3481 4863 
L 3481 0 
L 2906 0 
L 2906 525 
Q 2725 213 2448 61 
Q 2172 -91 1784 -91 
Q 1150 -91 751 415 
Q 353 922 353 1747 
Q 353 2572 751 3078 
Q 1150 3584 1784 3584 
Q 2172 3584 2448 3432 
Q 2725 3281 2906 2969 
z
M 947 1747 
Q 947 1113 1208 752 
Q 1469 391 1925 391 
Q 2381 391 2643 752 
Q 2906 1113 2906 1747 
Q 2906 2381 2643 2742 
Q 2381 3103 1925 3103 
Q 1469 3103 1208 2742 
Q 947 2381 947 1747 
z
" transform="scale(0.015625)"/>
      <path id="DejaVuSans-76" d="M 191 3500 
L 800 3500 
L 1894 563 
L 2988 3500 
L 3597 3500 
L 2284 0 
L 1503 0 
L 191 3500 
z
" transform="scale(0.015625)"/>
      <path id="DejaVuSans-6c" d="M 603 4863 
L 1178 4863 
L 1178 0 
L 603 0 
L 603 4863 
z
" transform="scale(0.015625)"/>
      <path id="DejaVuSans-6d" d="M 3328 2828 
Q 3544 3216 3844 3400 
Q 4144 3584 4550 3584 
Q 5097 3584 5394 3201 
Q 5691 2819 5691 2113 
L 5691 0 
L 5113 0 
L 5113 2094 
Q 5113 2597 4934 2840 
Q 4756 3084 4391 3084 
Q 3944 3084 3684 2787 
Q 3425 2491 3425 1978 
L 3425 0 
L 2847 0 
L 2847 2094 
Q 2847 2600 2669 2842 
Q 2491 3084 2119 3084 
Q 1678 3084 1418 2786 
Q 1159 2488 1159 1978 
L 1159 0 
L 581 0 
L 581 3500 
L 1159 3500 
L 1159 2956 
Q 1356 3278 1631 3431 
Q 1906 3584 2284 3584 
Q 2666 3584 2933 3390 
Q 3200 3197 3328 2828 
z
" transform="scale(0.015625)"/>
      <path id="DejaVuSans-75" d="M 544 1381 
L 544 3500 
L 1119 3500 
L 1119 1403 
Q 1119 906 1312 657 
Q 1506 409 1894 409 
Q 2359 409 2629 706 
Q 2900 1003 2900 1516 
L 2900 3500 
L 3475 3500 
L 3475 0 
L 2900 0 
L 2900 538 
Q 2691 219 2414 64 
Q 2138 -91 1772 -91 
Q 1169 -91 856 284 
Q 544 659 544 1381 
z
M 1991 3584 
L 1991 3584 
z
" transform="scale(0.015625)"/>
     </defs>
     <use xlink:href="#DejaVuSans-4d"/>
     <use xlink:href="#DejaVuSans-65" transform="translate(86.279297 0)"/>
     <use xlink:href="#DejaVuSans-61" transform="translate(147.802734 0)"/>
     <use xlink:href="#DejaVuSans-6e" transform="translate(209.082031 0)"/>
     <use xlink:href="#DejaVuSans-20" transform="translate(272.460938 0)"/>
     <use xlink:href="#DejaVuSans-70" transform="translate(304.248047 0)"/>
     <use xlink:href="#DejaVuSans-72" transform="translate(367.724609 0)"/>
     <use xlink:href="#DejaVuSans-6f" transform="translate(406.587891 0)"/>
     <use xlink:href="#DejaVuSans-66" transform="translate(467.769531 0)"/>
     <use xlink:href="#DejaVuSans-69" transform="translate(502.974609 0)"/>
     <use xlink:href="#DejaVuSans-74" transform="translate(530.757812 0)"/>
     <use xlink:href="#DejaVuSans-20" transform="translate(569.966797 0)"/>
     <use xlink:href="#DejaVuSans-70" transform="translate(601.753906 0)"/>
     <use xlink:href="#DejaVuSans-65" transform="translate(665.230469 0)"/>
     <use xlink:href="#DejaVuSans-72" transform="translate(726.753906 0)"/>
     <use xlink:href="#DejaVuSans-20" transform="translate(767.867188 0)"/>
     <use xlink:href="#DejaVuSans-73" transform="translate(799.654297 0)"/>
     <use xlink:href="#DejaVuSans-74" transform="translate(851.753906 0)"/>
     <use xlink:href="#DejaVuSans-65" transform="translate(890.962891 0)"/>
     <use xlink:href="#DejaVuSans-70" transform="translate(952.486328 0)"/>
     <use xlink:href="#DejaVuSans-20" transform="translate(1015.962891 0)"/>
     <use xlink:href="#DejaVuSans-77" transform="translate(1047.75 0)"/>
     <use xlink:href="#DejaVuSans-69" transform="translate(1129.537109 0)"/>
     <use xlink:href="#DejaVuSans-74" transform="translate(1157.320312 0)"/>
     <use xlink:href="#DejaVuSans-68" transform="translate(1196.529297 0)"/>
     <use xlink:href="#DejaVuSans-20" transform="translate(1259.908203 0)"/>
     <use xlink:href="#DejaVuSans-63" transform="translate(1291.695312 0)"/>
     <use xlink:href="#DejaVuSans-6f" transform="translate(1346.675781 0)"/>
     <use xlink:href="#DejaVuSans-6e" transform="translate(1407.857422 0)"/>
     <use xlink:href="#DejaVuSans-66" transform="translate(1471.236328 0)"/>
     <use xlink:href="#DejaVuSans-69" transform="translate(1506.441406 0)"/>
     <use xlink:href="#DejaVuSans-64" transform="translate(1534.224609 0)"/>
     <use xlink:href="#DejaVuSans-65" transform="translate(1597.701172 0)"/>
     <use xlink:href="#DejaVuSans-6e" transform="translate(1659.224609 0)"/>
     <use xlink:href="#DejaVuSans-63" transform="translate(1722.603516 0)"/>
     <use xlink:href="#DejaVuSans-65" transform="translate(1777.583984 0)"/>
     <use xlink:href="#DejaVuSans-20" transform="translate(1839.107422 0)"/>
     <use xlink:href="#DejaVuSans-69" transform="translate(1870.894531 0)"/>
     <use xlink:href="#DejaVuSans-6e" transform="translate(1898.677734 0)"/>
     <use xlink:href="#DejaVuSans-74" transform="translate(1962.056641 0)"/>
     <use xlink:href="#DejaVuSans-65" transform="translate(2001.265625 0)"/>
     <use xlink:href="#DejaVuSans-72" transform="translate(2062.789062 0)"/>
     <use xlink:href="#DejaVuSans-76" transform="translate(2103.902344 0)"/>
     <use xlink:href="#DejaVuSans-61" transform="translate(2163.082031 0)"/>
     <use xlink:href="#DejaVuSans-6c" transform="translate(2224.361328 0)"/>
     <use xlink:href="#DejaVuSans-20" transform="translate(2252.144531 0)"/>
     <use xlink:href="#DejaVuSans-70" transform="translate(2283.931641 0)"/>
     <use xlink:href="#DejaVuSans-65" transform="translate(2347.408203 0)"/>
     <use xlink:href="#DejaVuSans-72" transform="translate(2408.931641 0)"/>
     <use xlink:href="#DejaVuSans-20" transform="translate(2450.044922 0)"/>
     <use xlink:href="#DejaVuSans-73" transform="translate(2481.832031 0)"/>
     <use xlink:href="#DejaVuSans-69" transform="translate(2533.931641 0)"/>
     <use xlink:href="#DejaVuSans-6d" transform="translate(2561.714844 0)"/>
     <use xlink:href="#DejaVuSans-75" transform="translate(2659.126953 0)"/>
     <use xlink:href="#DejaVuSans-6c" transform="translate(2722.505859 0)"/>
     <use xlink:href="#DejaVuSans-61" transform="translate(2750.289062 0)"/>
     <use xlink:href="#DejaVuSans-74" transform="translate(2811.568359 0)"/>
     <use xlink:href="#DejaVuSans-69" transform="translate(2850.777344 0)"/>
     <use xlink:href="#DejaVuSans-6f" transform="translate(2878.560547 0)"/>
     <use xlink:href="#DejaVuSans-6e" transform="translate(2939.742188 0)"/>
     <use xlink:href="#DejaVuSans-20" transform="translate(3003.121094 0)"/>
     <use xlink:href="#DejaVuSans-73" transform="translate(3034.908203 0)"/>
     <use xlink:href="#DejaVuSans-74" transform="translate(3087.007812 0)"/>
     <use xlink:href="#DejaVuSans-65" transform="translate(3126.216797 0)"/>
     <use xlink:href="#DejaVuSans-70" transform="translate(3187.740234 0)"/>
    </g>
    <!-- Base Product: Cocaine, Recipe size: 7, T0: 50.0 -->
    <g transform="translate(283.410656 37.44) scale(0.14 -0.14)">
     <defs>
      <path id="DejaVuSans-42" d="M 1259 2228 
L 1259 519 
L 2272 519 
Q 2781 519 3026 730 
Q 3272 941 3272 1375 
Q 3272 1813 3026 2020 
Q 2781 2228 2272 2228 
L 1259 2228 
z
M 1259 4147 
L 1259 2741 
L 2194 2741 
Q 2656 2741 2882 2914 
Q 3109 3088 3109 3444 
Q 3109 3797 2882 3972 
Q 2656 4147 2194 4147 
L 1259 4147 
z
M 628 4666 
L 2241 4666 
Q 2963 4666 3353 4366 
Q 3744 4066 3744 3513 
Q 3744 3084 3544 2831 
Q 3344 2578 2956 2516 
Q 3422 2416 3680 2098 
Q 3938 1781 3938 1306 
Q 3938 681 3513 340 
Q 3088 0 2303 0 
L 628 0 
L 628 4666 
z
" transform="scale(0.015625)"/>
      <path id="DejaVuSans-3a" d="M 750 794 
L 1409 794 
L 1409 0 
L 750 0 
L 750 794 
z
M 750 3309 
L 1409 3309 
L 1409 2516 
L 750 2516 
L 750 3309 
z
" transform="scale(0.015625)"/>
      <path id="DejaVuSans-43" d="M 4122 4306 
L 4122 3641 
Q 3803 3938 3442 4084 
Q 3081 4231 2675 4231 
Q 1875 4231 1450 3742 
Q 1025 3253 1025 2328 
Q 1025 1406 1450 917 
Q 1875 428 2675 428 
Q 3081 428 3442 575 
Q 3803 722 4122 1019 
L 4122 359 
Q 3791 134 3420 21 
Q 3050 -91 2638 -91 
Q 1578 -91 968 557 
Q 359 1206 359 2328 
Q 359 3453 968 4101 
Q 1578 4750 2638 4750 
Q 3056 4750 3426 4639 
Q 3797 4528 4122 4306 
z
" transform="scale(0.015625)"/>
      <path id="DejaVuSans-2c" d="M 750 794 
L 1409 794 
L 1409 256 
L 897 -744 
L 494 -744 
L 750 256 
L 750 794 
z
" transform="scale(0.015625)"/>
      <path id="DejaVuSans-52" d="M 2841 2188 
Q 3044 2119 3236 1894 
Q 3428 1669 3622 1275 
L 4263 0 
L 3584 0 
L 2988 1197 
Q 2756 1666 2539 1819 
Q 2322 1972 1947 1972 
L 1259 1972 
L 1259 0 
L 628 0 
L 628 4666 
L 2053 4666 
Q 2853 4666 3247 4331 
Q 3641 3997 3641 3322 
Q 3641 2881 3436 2590 
Q 3231 2300 2841 2188 
z
M 1259 4147 
L 1259 2491 
L 2053 2491 
Q 2509 2491 2742 2702 
Q 2975 2913 2975 3322 
Q 2975 3731 2742 3939 
Q 2509 4147 2053 4147 
L 1259 4147 
z
" transform="scale(0.015625)"/>
      <path id="DejaVuSans-7a" d="M 353 3500 
L 3084 3500 
L 3084 2975 
L 922 459 
L 3084 459 
L 3084 0 
L 275 0 
L 275 525 
L 2438 3041 
L 353 3041 
L 353 3500 
z
" transform="scale(0.015625)"/>
      <path id="DejaVuSans-37" d="M 525 4666 
L 3525 4666 
L 3525 4397 
L 1831 0 
L 1172 0 
L 2766 4134 
L 525 4134 
L 525 4666 
z
" transform="scale(0.015625)"/>
      <path id="DejaVuSans-54" d="M -19 4666 
L 3928 4666 
L 3928 4134 
L 2272 4134 
L 2272 0 
L 1638 0 
L 1638 4134 
L -19 4134 
L -19 4666 
z
" transform="scale(0.015625)"/>
      <path id="DejaVuSans-2e" d="M 684 794 
L 1344 794 
L 1344 0 
L 684 0 
L 684 794 
z
" transform="scale(0.015625)"/>
     </defs>
     <use xlink:href="#DejaVuSans-42"/>
     <use xlink:href="#DejaVuSans-61" transform="translate(68.603516 0)"/>
     <use xlink:href="#DejaVuSans-73" transform="translate(129.882812 0)"/>
     <use xlink:href="#DejaVuSans-65" transform="translate(181.982422 0)"/>
     <use xlink:href="#DejaVuSans-20" transform="translate(243.505859 0)"/>
     <use xlink:href="#DejaVuSans-50" transform="translate(275.292969 0)"/>
     <use xlink:href="#DejaVuSans-72" transform="translate(333.845703 0)"/>
     <use xlink:href="#DejaVuSans-6f" transform="translate(372.708984 0)"/>
     <use xlink:href="#DejaVuSans-64" transform="translate(433.890625 0)"/>
     <use xlink:href="#DejaVuSans-75" transform="translate(497.367188 0)"/>
     <use xlink:href="#DejaVuSans-63" transform="translate(560.746094 0)"/>
     <use xlink:href="#DejaVuSans-74" transform="translate(615.726562 0)"/>
     <use xlink:href="#DejaVuSans-3a" transform="translate(654.935547 0)"/>
     <use xlink:href="#DejaVuSans-20" transform="translate(688.626953 0)"/>
     <use xlink:href="#DejaVuSans-43" transform="translate(720.414062 0)"/>
     <use xlink:href="#DejaVuSans-6f" transform="translate(790.238281 0)"/>
     <use xlink:href="#DejaVuSans-63" transform="translate(851.419922 0)"/>
     <use xlink:href="#DejaVuSans-61" transform="translate(906.400391 0)"/>
     <use xlink:href="#DejaVuSans-69" transform="translate(967.679688 0)"/>
     <use xlink:href="#DejaVuSans-6e" transform="translate(995.462891 0)"/>
     <use xlink:href="#DejaVuSans-65" transform="translate(1058.841797 0)"/>
     <use xlink:href="#DejaVuSans-2c" transform="translate(1120.365234 0)"/>
     <use xlink:href="#DejaVuSans-20" transform="translate(1152.152344 0)"/>
     <use xlink:href="#DejaVuSans-52" transform="translate(1183.939453 0)"/>
     <use xlink:href="#DejaVuSans-65" transform="translate(1248.921875 0)"/>
     <use xlink:href="#DejaVuSans-63" transform="translate(1310.445312 0)"/>
     <use xlink:href="#DejaVuSans-69" transform="translate(1365.425781 0)"/>
     <use xlink:href="#DejaVuSans-70" transform="translate(1393.208984 0)"/>
     <use xlink:href="#DejaVuSans-65" transform="translate(1456.685547 0)"/>
     <use xlink:href="#DejaVuSans-20" transform="translate(1518.208984 0)"/>
     <use xlink:href="#DejaVuSans-73" transform="translate(1549.996094 0)"/>
     <use xlink:href="#DejaVuSans-69" transform="translate(1602.095703 0)"/>
     <use xlink:href="#DejaVuSans-7a" transform="translate(1629.878906 0)"/>
     <use xlink:href="#DejaVuSans-65" transform="translate(1682.369141 0)"/>
     <use xlink:href="#DejaVuSans-3a" transform="translate(1743.892578 0)"/>
     <use xlink:href="#DejaVuSans-20" transform="translate(1777.583984 0)"/>
     <use xlink:href="#DejaVuSans-37" transform="translate(1809.371094 0)"/>
     <use xlink:href="#DejaVuSans-2c" transform="translate(1872.994141 0)"/>
     <use xlink:href="#DejaVuSans-20" transform="translate(1904.78125 0)"/>
     <use xlink:href="#DejaVuSans-54" transform="translate(1936.568359 0)"/>
     <use xlink:href="#DejaVuSans-30" transform="translate(1997.652344 0)"/>
     <use xlink:href="#DejaVuSans-3a" transform="translate(2061.275391 0)"/>
     <use xlink:href="#DejaVuSans-20" transform="translate(2094.966797 0)"/>
     <use xlink:href="#DejaVuSans-35" transform="translate(2126.753906 0)"/>
     <use xlink:href="#DejaVuSans-30" transform="translate(2190.376953 0)"/>
     <use xlink:href="#DejaVuSans-2e" transform="translate(2254 0)"/>
     <use xlink:href="#DejaVuSans-30" transform="translate(2285.787109 0)"/>
    </g>
   </g>
  </g>
 </g>
 <defs>
  <clipPath id="p6a45015560">
   <rect x="50.87" y="43.44" width="793.996" height="346.6"/>
  </clipPath>
 </defs>
</svg>
