<?xml version="1.0" encoding="utf-8" standalone="no"?>
<!DOCTYPE svg PUBLIC "-//W3C//DTD SVG 1.1//EN"
  "http://www.w3.org/Graphics/SVG/1.1/DTD/svg11.dtd">
<svg xmlns:xlink="http://www.w3.org/1999/xlink" width="864pt" height="432pt" viewBox="0 0 864 432" xmlns="http://www.w3.org/2000/svg" version="1.1">
 <metadata>
  <rdf:RDF xmlns:dc="http://purl.org/dc/elements/1.1/" xmlns:cc="http://creativecommons.org/ns#" xmlns:rdf="http://www.w3.org/1999/02/22-rdf-syntax-ns#">
   <cc:Work>
    <dc:type rdf:resource="http://purl.org/dc/dcmitype/StillImage"/>
    <dc:date>2025-05-24T02:20:26.704365</dc:date>
    <dc:format>image/svg+xml</dc:format>
    <dc:creator>
     <cc:Agent>
      <dc:title>Matplotlib v3.10.3, https://matplotlib.org/</dc:title>
     </cc:Agent>
    </dc:creator>
   </cc:Work>
  </rdf:RDF>
 </metadata>
 <defs>
  <style type="text/css">*{stroke-linejoin: round; stroke-linecap: butt}</style>
 </defs>
 <g id="figure_1">
  <g id="patch_1">
   <path d="M 0 432 
L 864 432 
L 864 0 
L 0 0 
z
" style="fill: #ffffff"/>
  </g>
  <g id="axes_1">
   <g id="patch_2">
    <path d="M 50.87 390.04 
L 844.866 390.04 
L 844.866 43.44 
L 50.87 43.44 
z
" style="fill: #ffffff"/>
   </g>
   <g id="FillBetweenPolyCollection_1">
    <defs>
     <path id="mc472853786" d="M 52.193327 -314.012806 
L 52.193327 -57.714545 
L 54.83998 -57.980759 
L 57.486633 -76.696168 
L 60.133287 -92.347474 
L 62.77994 -107.22064 
L 65.426593 -119.649271 
L 68.073247 -130.05994 
L 70.7199 -139.26562 
L 73.366553 -147.270185 
L 76.013207 -154.84923 
L 78.65986 -161.43992 
L 81.306513 -167.42611 
L 83.953167 -172.694042 
L 86.59982 -177.823922 
L 89.246473 -182.57728 
L 91.893127 -186.766059 
L 94.53978 -190.47739 
L 97.186433 -194.096778 
L 99.833087 -197.256501 
L 102.47974 -200.439966 
L 105.126393 -203.149787 
L 107.773047 -205.812215 
L 110.4197 -208.291332 
L 113.066353 -210.574785 
L 115.713007 -212.687806 
L 118.35966 -214.7915 
L 121.006313 -216.974784 
L 123.652967 -218.707134 
L 126.29962 -220.392574 
L 128.946273 -221.71194 
L 131.592927 -223.350033 
L 134.23958 -224.91069 
L 136.886233 -226.417928 
L 139.532887 -227.829443 
L 142.17954 -228.988598 
L 144.826193 -230.059981 
L 147.472847 -231.264397 
L 150.1195 -232.454558 
L 152.766153 -233.526973 
L 155.412807 -234.697013 
L 158.05946 -235.632202 
L 160.706113 -236.638754 
L 163.352767 -237.808428 
L 165.99942 -238.82504 
L 168.646073 -239.823182 
L 171.292727 -240.662716 
L 173.93938 -241.529796 
L 176.586033 -242.310572 
L 179.232687 -243.129847 
L 181.87934 -243.933952 
L 184.525993 -244.580573 
L 187.172647 -245.413507 
L 189.8193 -246.146203 
L 192.465953 -247.002375 
L 195.112607 -247.723315 
L 197.75926 -248.361112 
L 200.405913 -249.114754 
L 203.052567 -249.841171 
L 205.69922 -250.356547 
L 208.345873 -250.761991 
L 210.992527 -251.360097 
L 213.63918 -252.019184 
L 216.285833 -252.724517 
L 218.932487 -253.267898 
L 221.57914 -253.887339 
L 224.225793 -254.292852 
L 226.872447 -254.999789 
L 229.5191 -255.56423 
L 232.165753 -256.106854 
L 234.812407 -256.660708 
L 237.45906 -257.088885 
L 240.105713 -257.709587 
L 242.752367 -258.267794 
L 245.39902 -258.718499 
L 248.045673 -259.209652 
L 250.692327 -259.513644 
L 253.33898 -259.753789 
L 255.985633 -260.178598 
L 258.632287 -260.512862 
L 261.27894 -260.990884 
L 263.925593 -261.360257 
L 266.572247 -261.786418 
L 269.2189 -262.168372 
L 271.865553 -262.519939 
L 274.512207 -262.835641 
L 277.15886 -263.239366 
L 279.805513 -263.581812 
L 282.452167 -263.903151 
L 285.09882 -264.236407 
L 287.745473 -264.590059 
L 290.392127 -264.824086 
L 293.03878 -265.216788 
L 295.685433 -265.566247 
L 298.332087 -265.87143 
L 300.97874 -266.193984 
L 303.625393 -266.540486 
L 306.272047 -266.793006 
L 308.9187 -267.07227 
L 311.565353 -267.390424 
L 314.212007 -267.704774 
L 316.85866 -267.935409 
L 319.505313 -268.144914 
L 322.151967 -268.420305 
L 324.79862 -268.631782 
L 327.445273 -268.849766 
L 330.091927 -269.079416 
L 332.73858 -269.285369 
L 335.385233 -269.521939 
L 338.031887 -269.726953 
L 340.67854 -269.90245 
L 343.325193 -270.178826 
L 345.971847 -270.454768 
L 348.6185 -270.704996 
L 351.265153 -270.940718 
L 353.911807 -271.154486 
L 356.55846 -271.323062 
L 359.205113 -271.480845 
L 361.851767 -271.680083 
L 364.49842 -271.951074 
L 367.145073 -272.231049 
L 369.791727 -272.473623 
L 372.43838 -272.677193 
L 375.085033 -272.915505 
L 377.731687 -273.102346 
L 380.37834 -273.292533 
L 383.024993 -273.441721 
L 385.671647 -273.596593 
L 388.3183 -273.838732 
L 390.964953 -273.98423 
L 393.611607 -274.186425 
L 396.25826 -274.457004 
L 398.904913 -274.696553 
L 401.551567 -274.794958 
L 404.19822 -274.966078 
L 406.844873 -275.114946 
L 409.491527 -275.291084 
L 412.13818 -275.455329 
L 414.784833 -275.672947 
L 417.431487 -275.854448 
L 420.07814 -275.956451 
L 422.724793 -276.116524 
L 425.371447 -276.274032 
L 428.0181 -276.451958 
L 430.664753 -276.634742 
L 433.311407 -276.757805 
L 435.95806 -276.858594 
L 438.604713 -277.004344 
L 441.251367 -277.112283 
L 443.89802 -277.309802 
L 446.544673 -277.463185 
L 449.191327 -277.591129 
L 451.83798 -277.814889 
L 454.484633 -277.985023 
L 457.131287 -278.153462 
L 459.77794 -278.325086 
L 462.424593 -278.552054 
L 465.071247 -278.668173 
L 467.7179 -278.833816 
L 470.364553 -278.91627 
L 473.011207 -279.056086 
L 475.65786 -279.220491 
L 478.304513 -279.290341 
L 480.951167 -279.415651 
L 483.59782 -279.546826 
L 486.244473 -279.697367 
L 488.891127 -279.750442 
L 491.53778 -279.858495 
L 494.184433 -280.015017 
L 496.831087 -280.128432 
L 499.47774 -280.252458 
L 502.124393 -280.337754 
L 504.771047 -280.45 
L 507.4177 -280.56628 
L 510.064353 -280.658291 
L 512.711007 -280.767307 
L 515.35766 -280.850999 
L 518.004313 -280.951718 
L 520.650967 -281.020331 
L 523.29762 -281.15208 
L 525.944273 -281.261874 
L 528.590927 -281.388902 
L 531.23758 -281.512469 
L 533.884233 -281.60762 
L 536.530887 -281.654347 
L 539.17754 -281.731531 
L 541.824193 -281.865984 
L 544.470847 -281.966818 
L 547.1175 -282.101798 
L 549.764153 -282.154621 
L 552.410807 -282.247503 
L 555.05746 -282.334541 
L 557.704113 -282.378931 
L 560.350767 -282.447223 
L 562.99742 -282.609245 
L 565.644073 -282.679187 
L 568.290727 -282.782587 
L 570.93738 -282.794092 
L 573.584033 -282.900746 
L 576.230687 -282.992849 
L 578.87734 -283.072439 
L 581.523993 -283.134704 
L 584.170647 -283.194242 
L 586.8173 -283.268378 
L 589.463953 -283.320582 
L 592.110607 -283.363093 
L 594.75726 -283.430033 
L 597.403913 -283.515788 
L 600.050567 -283.61009 
L 602.69722 -283.671989 
L 605.343873 -283.748072 
L 607.990527 -283.847669 
L 610.63718 -283.962482 
L 613.283833 -284.063522 
L 615.930487 -284.187548 
L 618.57714 -284.262486 
L 621.223793 -284.316249 
L 623.870447 -284.390637 
L 626.5171 -284.491241 
L 629.163753 -284.519727 
L 631.810407 -284.625511 
L 634.45706 -284.674072 
L 637.103713 -284.745893 
L 639.750367 -284.808868 
L 642.39702 -284.87881 
L 645.043673 -284.974557 
L 647.690327 -285.019405 
L 650.33698 -285.12457 
L 652.983633 -285.170198 
L 655.630287 -285.266013 
L 658.27694 -285.330317 
L 660.923593 -285.411466 
L 663.570247 -285.461562 
L 666.2169 -285.58946 
L 668.863553 -285.641848 
L 671.510207 -285.680853 
L 674.15686 -285.719307 
L 676.803513 -285.789639 
L 679.450167 -285.85337 
L 682.09682 -285.917194 
L 684.743473 -285.994423 
L 687.390127 -286.02614 
L 690.03678 -286.077863 
L 692.683433 -286.168431 
L 695.330087 -286.233537 
L 697.97674 -286.256752 
L 700.623393 -286.284573 
L 703.270047 -286.350344 
L 705.9167 -286.466968 
L 708.563353 -286.503199 
L 711.210007 -286.570346 
L 713.85666 -286.655413 
L 716.503313 -286.707251 
L 719.149967 -286.76523 
L 721.79662 -286.792478 
L 724.443273 -286.801759 
L 727.089927 -286.889485 
L 729.73658 -286.899935 
L 732.383233 -286.920629 
L 735.029887 -286.954385 
L 737.67654 -286.982275 
L 740.323193 -287.006704 
L 742.969847 -287.073828 
L 745.6165 -287.081276 
L 748.263153 -287.165312 
L 750.909807 -287.217172 
L 753.55646 -287.279712 
L 756.203113 -287.279804 
L 758.849767 -287.354788 
L 761.49642 -287.433622 
L 764.143073 -287.45883 
L 766.789727 -287.473359 
L 769.43638 -287.529872 
L 772.083033 -287.578731 
L 774.729687 -287.618881 
L 777.37634 -287.689877 
L 780.022993 -287.731357 
L 782.669647 -287.764403 
L 785.3163 -287.813582 
L 787.962953 -287.82527 
L 790.609607 -287.88412 
L 793.25626 -287.950762 
L 795.902913 -287.973725 
L 798.549567 -288.022171 
L 801.19622 -288.055721 
L 803.842873 -288.088492 
L 806.489527 -288.13813 
L 809.13618 -288.183551 
L 811.782833 -288.186759 
L 814.429487 -288.211464 
L 817.07614 -288.237314 
L 819.722793 -288.274714 
L 822.369447 -288.318806 
L 825.0161 -288.383019 
L 827.662753 -288.446911 
L 830.309407 -288.48399 
L 832.95606 -288.522491 
L 835.602713 -288.570387 
L 838.249367 -288.6357 
L 840.89602 -288.656325 
L 843.542673 -288.723333 
L 843.542673 -372.792346 
L 843.542673 -372.792346 
L 840.89602 -372.805455 
L 838.249367 -372.768238 
L 835.602713 -372.768467 
L 832.95606 -372.763654 
L 830.309407 -372.751096 
L 827.662753 -372.746742 
L 825.0161 -372.76095 
L 822.369447 -372.792071 
L 819.722793 -372.795738 
L 817.07614 -372.791888 
L 814.429487 -372.765579 
L 811.782833 -372.751417 
L 809.13618 -372.723367 
L 806.489527 -372.718829 
L 803.842873 -372.722633 
L 801.19622 -372.709021 
L 798.549567 -372.668779 
L 795.902913 -372.629958 
L 793.25626 -372.610753 
L 790.609607 -372.607362 
L 787.962953 -372.61552 
L 785.3163 -372.594391 
L 782.669647 -372.569595 
L 780.022993 -372.538199 
L 777.37634 -372.543745 
L 774.729687 -372.557082 
L 772.083033 -372.529949 
L 769.43638 -372.524449 
L 766.789727 -372.523028 
L 764.143073 -372.480265 
L 761.49642 -372.45359 
L 758.849767 -372.460007 
L 756.203113 -372.463673 
L 753.55646 -372.389056 
L 750.909807 -372.39419 
L 748.263153 -372.387865 
L 745.6165 -372.402577 
L 742.969847 -372.359814 
L 740.323193 -372.361327 
L 737.67654 -372.326493 
L 735.029887 -372.306831 
L 732.383233 -372.283181 
L 729.73658 -372.246789 
L 727.089927 -372.204072 
L 724.443273 -372.228272 
L 721.79662 -372.17868 
L 719.149967 -372.153976 
L 716.503313 -372.131746 
L 713.85666 -372.136101 
L 711.210007 -372.150034 
L 708.563353 -372.157413 
L 705.9167 -372.117905 
L 703.270047 -372.127942 
L 700.623393 -372.131013 
L 697.97674 -372.096592 
L 695.330087 -372.027887 
L 692.683433 -371.986454 
L 690.03678 -372.000937 
L 687.390127 -371.980495 
L 684.743473 -371.942729 
L 682.09682 -371.93732 
L 679.450167 -371.93567 
L 676.803513 -371.932737 
L 674.15686 -371.921783 
L 671.510207 -371.87792 
L 668.863553 -371.862474 
L 666.2169 -371.82952 
L 663.570247 -371.84492 
L 660.923593 -371.849961 
L 658.27694 -371.842078 
L 655.630287 -371.807199 
L 652.983633 -371.808894 
L 650.33698 -371.783915 
L 647.690327 -371.783182 
L 645.043673 -371.757194 
L 642.39702 -371.767873 
L 639.750367 -371.736798 
L 637.103713 -371.69894 
L 634.45706 -371.691835 
L 631.810407 -371.647102 
L 629.163753 -371.63711 
L 626.5171 -371.591231 
L 623.870447 -371.595676 
L 621.223793 -371.565289 
L 618.57714 -371.538934 
L 615.930487 -371.517622 
L 613.283833 -371.529172 
L 610.63718 -371.562035 
L 607.990527 -371.585318 
L 605.343873 -371.577801 
L 602.69722 -371.569185 
L 600.050567 -371.559651 
L 597.403913 -371.567076 
L 594.75726 -371.56011 
L 592.110607 -371.543564 
L 589.463953 -371.503459 
L 586.8173 -371.483476 
L 584.170647 -371.454646 
L 581.523993 -371.418392 
L 578.87734 -371.365638 
L 576.230687 -371.364263 
L 573.584033 -371.352117 
L 570.93738 -371.345654 
L 568.290727 -371.272183 
L 565.644073 -371.27585 
L 562.99742 -371.230978 
L 560.350767 -371.259899 
L 557.704113 -371.238083 
L 555.05746 -371.200407 
L 552.410807 -371.191378 
L 549.764153 -371.146049 
L 547.1175 -371.084265 
L 544.470847 -371.082294 
L 541.824193 -371.081928 
L 539.17754 -371.096228 
L 536.530887 -371.051998 
L 533.884233 -371.009281 
L 531.23758 -370.972981 
L 528.590927 -370.960331 
L 525.944273 -370.960239 
L 523.29762 -370.98146 
L 520.650967 -370.979902 
L 518.004313 -370.926093 
L 515.35766 -370.919264 
L 512.711007 -370.852164 
L 510.064353 -370.821547 
L 507.4177 -370.778097 
L 504.771047 -370.748351 
L 502.124393 -370.751605 
L 499.47774 -370.734875 
L 496.831087 -370.694909 
L 494.184433 -370.669013 
L 491.53778 -370.670342 
L 488.891127 -370.645912 
L 486.244473 -370.544162 
L 483.59782 -370.560387 
L 480.951167 -370.551037 
L 478.304513 -370.560937 
L 475.65786 -370.46982 
L 473.011207 -370.454511 
L 470.364553 -370.449653 
L 467.7179 -370.405698 
L 465.071247 -370.429532 
L 462.424593 -370.383836 
L 459.77794 -370.406019 
L 457.131287 -370.367657 
L 454.484633 -370.32196 
L 451.83798 -370.32416 
L 449.191327 -370.352394 
L 446.544673 -370.347994 
L 443.89802 -370.318477 
L 441.251367 -370.304269 
L 438.604713 -370.252202 
L 435.95806 -370.209118 
L 433.311407 -370.146647 
L 430.664753 -370.112088 
L 428.0181 -370.062038 
L 425.371447 -370.037059 
L 422.724793 -370.005938 
L 420.07814 -369.994204 
L 417.431487 -369.943879 
L 414.784833 -369.966704 
L 412.13818 -369.991729 
L 409.491527 -369.931229 
L 406.844873 -369.910971 
L 404.19822 -369.873341 
L 401.551567 -369.873662 
L 398.904913 -369.737399 
L 396.25826 -369.732724 
L 393.611607 -369.733365 
L 390.964953 -369.693673 
L 388.3183 -369.628131 
L 385.671647 -369.659436 
L 383.024993 -369.529681 
L 380.37834 -369.457218 
L 377.731687 -369.427288 
L 375.085033 -369.357392 
L 372.43838 -369.34708 
L 369.791727 -369.285021 
L 367.145073 -369.250004 
L 364.49842 -369.236391 
L 361.851767 -369.248583 
L 359.205113 -369.17557 
L 356.55846 -369.130241 
L 353.911807 -369.051499 
L 351.265153 -368.94269 
L 348.6185 -368.948327 
L 345.971847 -368.88361 
L 343.325193 -368.848777 
L 340.67854 -368.797351 
L 338.031887 -368.719572 
L 335.385233 -368.662234 
L 332.73858 -368.621671 
L 330.091927 -368.538987 
L 327.445273 -368.450987 
L 324.79862 -368.385582 
L 322.151967 -368.325082 
L 319.505313 -368.280532 
L 316.85866 -368.164343 
L 314.212007 -368.025009 
L 311.565353 -367.977434 
L 308.9187 -367.983026 
L 306.272047 -367.922571 
L 303.625393 -367.780716 
L 300.97874 -367.743362 
L 298.332087 -367.713707 
L 295.685433 -367.632353 
L 293.03878 -367.559844 
L 290.392127 -367.551869 
L 287.745473 -367.411526 
L 285.09882 -367.368901 
L 282.452167 -367.264721 
L 279.805513 -367.172733 
L 277.15886 -367.111775 
L 274.512207 -367.144683 
L 271.865553 -367.060441 
L 269.2189 -366.997328 
L 266.572247 -366.897915 
L 263.925593 -366.835123 
L 261.27894 -366.749093 
L 258.632287 -366.687722 
L 255.985633 -366.541467 
L 253.33898 -366.40997 
L 250.692327 -366.151835 
L 248.045673 -365.967401 
L 245.39902 -365.917259 
L 242.752367 -365.761241 
L 240.105713 -365.665174 
L 237.45906 -365.693729 
L 234.812407 -365.555036 
L 232.165753 -365.444027 
L 229.5191 -365.379722 
L 226.872447 -365.320735 
L 224.225793 -365.343743 
L 221.57914 -365.177184 
L 218.932487 -365.033679 
L 216.285833 -364.884857 
L 213.63918 -364.836503 
L 210.992527 -364.773711 
L 208.345873 -364.675718 
L 205.69922 -364.446917 
L 203.052567 -364.161007 
L 200.405913 -364.030427 
L 197.75926 -363.83623 
L 195.112607 -363.65482 
L 192.465953 -363.523416 
L 189.8193 -363.38124 
L 187.172647 -363.23613 
L 184.525993 -363.158626 
L 181.87934 -362.886374 
L 179.232687 -362.624481 
L 176.586033 -362.512601 
L 173.93938 -362.210328 
L 171.292727 -362.061003 
L 168.646073 -361.768355 
L 165.99942 -361.581446 
L 163.352767 -361.347694 
L 160.706113 -361.27051 
L 158.05946 -360.985288 
L 155.412807 -360.658953 
L 152.766153 -360.384318 
L 150.1195 -359.998215 
L 147.472847 -359.632876 
L 144.826193 -359.33844 
L 142.17954 -358.894542 
L 139.532887 -358.392068 
L 136.886233 -357.95092 
L 134.23958 -357.607168 
L 131.592927 -357.292428 
L 128.946273 -357.061885 
L 126.29962 -356.490707 
L 123.652967 -355.953537 
L 121.006313 -355.579397 
L 118.35966 -355.492726 
L 115.713007 -355.030769 
L 113.066353 -354.659975 
L 110.4197 -354.118863 
L 107.773047 -353.751919 
L 105.126393 -353.379934 
L 102.47974 -352.631379 
L 99.833087 -352.113505 
L 97.186433 -351.621252 
L 94.53978 -351.16365 
L 91.893127 -350.630697 
L 89.246473 -349.927105 
L 86.59982 -349.152654 
L 83.953167 -348.586059 
L 81.306513 -347.616862 
L 78.65986 -345.906535 
L 76.013207 -344.822937 
L 73.366553 -343.288611 
L 70.7199 -340.874509 
L 68.073247 -338.856088 
L 65.426593 -336.044838 
L 62.77994 -333.191742 
L 60.133287 -329.698442 
L 57.486633 -323.151294 
L 54.83998 -315.277309 
L 52.193327 -314.012806 
z
" style="stroke: #0000ff; stroke-opacity: 0.2"/>
    </defs>
    <g clip-path="url(#pae14ebe775)">
     <use xlink:href="#mc472853786" x="0" y="432" style="fill: #0000ff; fill-opacity: 0.2; stroke: #0000ff; stroke-opacity: 0.2"/>
    </g>
   </g>
   <g id="matplotlib.axis_1">
    <g id="xtick_1">
     <g id="line2d_1">
      <defs>
       <path id="md7370c3c88" d="M 0 0 
L 0 3.5 
" style="stroke: #000000; stroke-width: 0.8"/>
      </defs>
      <g>
       <use xlink:href="#md7370c3c88" x="181.87934" y="390.04" style="stroke: #000000; stroke-width: 0.8"/>
      </g>
     </g>
     <g id="text_1">
      <!-- 50 -->
      <g transform="translate(175.51684 404.638438) scale(0.1 -0.1)">
       <defs>
        <path id="DejaVuSans-35" d="M 691 4666 
L 3169 4666 
L 3169 4134 
L 1269 4134 
L 1269 2991 
Q 1406 3038 1543 3061 
Q 1681 3084 1819 3084 
Q 2600 3084 3056 2656 
Q 3513 2228 3513 1497 
Q 3513 744 3044 326 
Q 2575 -91 1722 -91 
Q 1428 -91 1123 -41 
Q 819 9 494 109 
L 494 744 
Q 775 591 1075 516 
Q 1375 441 1709 441 
Q 2250 441 2565 725 
Q 2881 1009 2881 1497 
Q 2881 1984 2565 2268 
Q 2250 2553 1709 2553 
Q 1456 2553 1204 2497 
Q 953 2441 691 2322 
L 691 4666 
z
" transform="scale(0.015625)"/>
        <path id="DejaVuSans-30" d="M 2034 4250 
Q 1547 4250 1301 3770 
Q 1056 3291 1056 2328 
Q 1056 1369 1301 889 
Q 1547 409 2034 409 
Q 2525 409 2770 889 
Q 3016 1369 3016 2328 
Q 3016 3291 2770 3770 
Q 2525 4250 2034 4250 
z
M 2034 4750 
Q 2819 4750 3233 4129 
Q 3647 3509 3647 2328 
Q 3647 1150 3233 529 
Q 2819 -91 2034 -91 
Q 1250 -91 836 529 
Q 422 1150 422 2328 
Q 422 3509 836 4129 
Q 1250 4750 2034 4750 
z
" transform="scale(0.015625)"/>
       </defs>
       <use xlink:href="#DejaVuSans-35"/>
       <use xlink:href="#DejaVuSans-30" transform="translate(63.623047 0)"/>
      </g>
     </g>
    </g>
    <g id="xtick_2">
     <g id="line2d_2">
      <g>
       <use xlink:href="#md7370c3c88" x="314.212007" y="390.04" style="stroke: #000000; stroke-width: 0.8"/>
      </g>
     </g>
     <g id="text_2">
      <!-- 100 -->
      <g transform="translate(304.668257 404.638438) scale(0.1 -0.1)">
       <defs>
        <path id="DejaVuSans-31" d="M 794 531 
L 1825 531 
L 1825 4091 
L 703 3866 
L 703 4441 
L 1819 4666 
L 2450 4666 
L 2450 531 
L 3481 531 
L 3481 0 
L 794 0 
L 794 531 
z
" transform="scale(0.015625)"/>
       </defs>
       <use xlink:href="#DejaVuSans-31"/>
       <use xlink:href="#DejaVuSans-30" transform="translate(63.623047 0)"/>
       <use xlink:href="#DejaVuSans-30" transform="translate(127.246094 0)"/>
      </g>
     </g>
    </g>
    <g id="xtick_3">
     <g id="line2d_3">
      <g>
       <use xlink:href="#md7370c3c88" x="446.544673" y="390.04" style="stroke: #000000; stroke-width: 0.8"/>
      </g>
     </g>
     <g id="text_3">
      <!-- 150 -->
      <g transform="translate(437.000923 404.638438) scale(0.1 -0.1)">
       <use xlink:href="#DejaVuSans-31"/>
       <use xlink:href="#DejaVuSans-35" transform="translate(63.623047 0)"/>
       <use xlink:href="#DejaVuSans-30" transform="translate(127.246094 0)"/>
      </g>
     </g>
    </g>
    <g id="xtick_4">
     <g id="line2d_4">
      <g>
       <use xlink:href="#md7370c3c88" x="578.87734" y="390.04" style="stroke: #000000; stroke-width: 0.8"/>
      </g>
     </g>
     <g id="text_4">
      <!-- 200 -->
      <g transform="translate(569.33359 404.638438) scale(0.1 -0.1)">
       <defs>
        <path id="DejaVuSans-32" d="M 1228 531 
L 3431 531 
L 3431 0 
L 469 0 
L 469 531 
Q 828 903 1448 1529 
Q 2069 2156 2228 2338 
Q 2531 2678 2651 2914 
Q 2772 3150 2772 3378 
Q 2772 3750 2511 3984 
Q 2250 4219 1831 4219 
Q 1534 4219 1204 4116 
Q 875 4013 500 3803 
L 500 4441 
Q 881 4594 1212 4672 
Q 1544 4750 1819 4750 
Q 2544 4750 2975 4387 
Q 3406 4025 3406 3419 
Q 3406 3131 3298 2873 
Q 3191 2616 2906 2266 
Q 2828 2175 2409 1742 
Q 1991 1309 1228 531 
z
" transform="scale(0.015625)"/>
       </defs>
       <use xlink:href="#DejaVuSans-32"/>
       <use xlink:href="#DejaVuSans-30" transform="translate(63.623047 0)"/>
       <use xlink:href="#DejaVuSans-30" transform="translate(127.246094 0)"/>
      </g>
     </g>
    </g>
    <g id="xtick_5">
     <g id="line2d_5">
      <g>
       <use xlink:href="#md7370c3c88" x="711.210007" y="390.04" style="stroke: #000000; stroke-width: 0.8"/>
      </g>
     </g>
     <g id="text_5">
      <!-- 250 -->
      <g transform="translate(701.666257 404.638438) scale(0.1 -0.1)">
       <use xlink:href="#DejaVuSans-32"/>
       <use xlink:href="#DejaVuSans-35" transform="translate(63.623047 0)"/>
       <use xlink:href="#DejaVuSans-30" transform="translate(127.246094 0)"/>
      </g>
     </g>
    </g>
    <g id="xtick_6">
     <g id="line2d_6">
      <g>
       <use xlink:href="#md7370c3c88" x="843.542673" y="390.04" style="stroke: #000000; stroke-width: 0.8"/>
      </g>
     </g>
     <g id="text_6">
      <!-- 300 -->
      <g transform="translate(833.998923 404.638438) scale(0.1 -0.1)">
       <defs>
        <path id="DejaVuSans-33" d="M 2597 2516 
Q 3050 2419 3304 2112 
Q 3559 1806 3559 1356 
Q 3559 666 3084 287 
Q 2609 -91 1734 -91 
Q 1441 -91 1130 -33 
Q 819 25 488 141 
L 488 750 
Q 750 597 1062 519 
Q 1375 441 1716 441 
Q 2309 441 2620 675 
Q 2931 909 2931 1356 
Q 2931 1769 2642 2001 
Q 2353 2234 1838 2234 
L 1294 2234 
L 1294 2753 
L 1863 2753 
Q 2328 2753 2575 2939 
Q 2822 3125 2822 3475 
Q 2822 3834 2567 4026 
Q 2313 4219 1838 4219 
Q 1578 4219 1281 4162 
Q 984 4106 628 3988 
L 628 4550 
Q 988 4650 1302 4700 
Q 1616 4750 1894 4750 
Q 2613 4750 3031 4423 
Q 3450 4097 3450 3541 
Q 3450 3153 3228 2886 
Q 3006 2619 2597 2516 
z
" transform="scale(0.015625)"/>
       </defs>
       <use xlink:href="#DejaVuSans-33"/>
       <use xlink:href="#DejaVuSans-30" transform="translate(63.623047 0)"/>
       <use xlink:href="#DejaVuSans-30" transform="translate(127.246094 0)"/>
      </g>
     </g>
    </g>
    <g id="text_7">
     <!-- Step -->
     <g transform="translate(436.482844 418.316562) scale(0.1 -0.1)">
      <defs>
       <path id="DejaVuSans-53" d="M 3425 4513 
L 3425 3897 
Q 3066 4069 2747 4153 
Q 2428 4238 2131 4238 
Q 1616 4238 1336 4038 
Q 1056 3838 1056 3469 
Q 1056 3159 1242 3001 
Q 1428 2844 1947 2747 
L 2328 2669 
Q 3034 2534 3370 2195 
Q 3706 1856 3706 1288 
Q 3706 609 3251 259 
Q 2797 -91 1919 -91 
Q 1588 -91 1214 -16 
Q 841 59 441 206 
L 441 856 
Q 825 641 1194 531 
Q 1563 422 1919 422 
Q 2459 422 2753 634 
Q 3047 847 3047 1241 
Q 3047 1584 2836 1778 
Q 2625 1972 2144 2069 
L 1759 2144 
Q 1053 2284 737 2584 
Q 422 2884 422 3419 
Q 422 4038 858 4394 
Q 1294 4750 2059 4750 
Q 2388 4750 2728 4690 
Q 3069 4631 3425 4513 
z
" transform="scale(0.015625)"/>
       <path id="DejaVuSans-74" d="M 1172 4494 
L 1172 3500 
L 2356 3500 
L 2356 3053 
L 1172 3053 
L 1172 1153 
Q 1172 725 1289 603 
Q 1406 481 1766 481 
L 2356 481 
L 2356 0 
L 1766 0 
Q 1100 0 847 248 
Q 594 497 594 1153 
L 594 3053 
L 172 3053 
L 172 3500 
L 594 3500 
L 594 4494 
L 1172 4494 
z
" transform="scale(0.015625)"/>
       <path id="DejaVuSans-65" d="M 3597 1894 
L 3597 1613 
L 953 1613 
Q 991 1019 1311 708 
Q 1631 397 2203 397 
Q 2534 397 2845 478 
Q 3156 559 3463 722 
L 3463 178 
Q 3153 47 2828 -22 
Q 2503 -91 2169 -91 
Q 1331 -91 842 396 
Q 353 884 353 1716 
Q 353 2575 817 3079 
Q 1281 3584 2069 3584 
Q 2775 3584 3186 3129 
Q 3597 2675 3597 1894 
z
M 3022 2063 
Q 3016 2534 2758 2815 
Q 2500 3097 2075 3097 
Q 1594 3097 1305 2825 
Q 1016 2553 972 2059 
L 3022 2063 
z
" transform="scale(0.015625)"/>
       <path id="DejaVuSans-70" d="M 1159 525 
L 1159 -1331 
L 581 -1331 
L 581 3500 
L 1159 3500 
L 1159 2969 
Q 1341 3281 1617 3432 
Q 1894 3584 2278 3584 
Q 2916 3584 3314 3078 
Q 3713 2572 3713 1747 
Q 3713 922 3314 415 
Q 2916 -91 2278 -91 
Q 1894 -91 1617 61 
Q 1341 213 1159 525 
z
M 3116 1747 
Q 3116 2381 2855 2742 
Q 2594 3103 2138 3103 
Q 1681 3103 1420 2742 
Q 1159 2381 1159 1747 
Q 1159 1113 1420 752 
Q 1681 391 2138 391 
Q 2594 391 2855 752 
Q 3116 1113 3116 1747 
z
" transform="scale(0.015625)"/>
      </defs>
      <use xlink:href="#DejaVuSans-53"/>
      <use xlink:href="#DejaVuSans-74" transform="translate(63.476562 0)"/>
      <use xlink:href="#DejaVuSans-65" transform="translate(102.685547 0)"/>
      <use xlink:href="#DejaVuSans-70" transform="translate(164.208984 0)"/>
     </g>
    </g>
   </g>
   <g id="matplotlib.axis_2">
    <g id="ytick_1">
     <g id="line2d_7">
      <defs>
       <path id="me0c67a4379" d="M 0 0 
L -3.5 0 
" style="stroke: #000000; stroke-width: 0.8"/>
      </defs>
      <g>
       <use xlink:href="#me0c67a4379" x="50.87" y="378.910226" style="stroke: #000000; stroke-width: 0.8"/>
      </g>
     </g>
     <g id="text_8">
      <!-- 200 -->
      <g transform="translate(24.7825 382.709445) scale(0.1 -0.1)">
       <use xlink:href="#DejaVuSans-32"/>
       <use xlink:href="#DejaVuSans-30" transform="translate(63.623047 0)"/>
       <use xlink:href="#DejaVuSans-30" transform="translate(127.246094 0)"/>
      </g>
     </g>
    </g>
    <g id="ytick_2">
     <g id="line2d_8">
      <g>
       <use xlink:href="#me0c67a4379" x="50.87" y="303.816442" style="stroke: #000000; stroke-width: 0.8"/>
      </g>
     </g>
     <g id="text_9">
      <!-- 300 -->
      <g transform="translate(24.7825 307.615661) scale(0.1 -0.1)">
       <use xlink:href="#DejaVuSans-33"/>
       <use xlink:href="#DejaVuSans-30" transform="translate(63.623047 0)"/>
       <use xlink:href="#DejaVuSans-30" transform="translate(127.246094 0)"/>
      </g>
     </g>
    </g>
    <g id="ytick_3">
     <g id="line2d_9">
      <g>
       <use xlink:href="#me0c67a4379" x="50.87" y="228.722658" style="stroke: #000000; stroke-width: 0.8"/>
      </g>
     </g>
     <g id="text_10">
      <!-- 400 -->
      <g transform="translate(24.7825 232.521877) scale(0.1 -0.1)">
       <defs>
        <path id="DejaVuSans-34" d="M 2419 4116 
L 825 1625 
L 2419 1625 
L 2419 4116 
z
M 2253 4666 
L 3047 4666 
L 3047 1625 
L 3713 1625 
L 3713 1100 
L 3047 1100 
L 3047 0 
L 2419 0 
L 2419 1100 
L 313 1100 
L 313 1709 
L 2253 4666 
z
" transform="scale(0.015625)"/>
       </defs>
       <use xlink:href="#DejaVuSans-34"/>
       <use xlink:href="#DejaVuSans-30" transform="translate(63.623047 0)"/>
       <use xlink:href="#DejaVuSans-30" transform="translate(127.246094 0)"/>
      </g>
     </g>
    </g>
    <g id="ytick_4">
     <g id="line2d_10">
      <g>
       <use xlink:href="#me0c67a4379" x="50.87" y="153.628874" style="stroke: #000000; stroke-width: 0.8"/>
      </g>
     </g>
     <g id="text_11">
      <!-- 500 -->
      <g transform="translate(24.7825 157.428093) scale(0.1 -0.1)">
       <use xlink:href="#DejaVuSans-35"/>
       <use xlink:href="#DejaVuSans-30" transform="translate(63.623047 0)"/>
       <use xlink:href="#DejaVuSans-30" transform="translate(127.246094 0)"/>
      </g>
     </g>
    </g>
    <g id="ytick_5">
     <g id="line2d_11">
      <g>
       <use xlink:href="#me0c67a4379" x="50.87" y="78.535091" style="stroke: #000000; stroke-width: 0.8"/>
      </g>
     </g>
     <g id="text_12">
      <!-- 600 -->
      <g transform="translate(24.7825 82.334309) scale(0.1 -0.1)">
       <defs>
        <path id="DejaVuSans-36" d="M 2113 2584 
Q 1688 2584 1439 2293 
Q 1191 2003 1191 1497 
Q 1191 994 1439 701 
Q 1688 409 2113 409 
Q 2538 409 2786 701 
Q 3034 994 3034 1497 
Q 3034 2003 2786 2293 
Q 2538 2584 2113 2584 
z
M 3366 4563 
L 3366 3988 
Q 3128 4100 2886 4159 
Q 2644 4219 2406 4219 
Q 1781 4219 1451 3797 
Q 1122 3375 1075 2522 
Q 1259 2794 1537 2939 
Q 1816 3084 2150 3084 
Q 2853 3084 3261 2657 
Q 3669 2231 3669 1497 
Q 3669 778 3244 343 
Q 2819 -91 2113 -91 
Q 1303 -91 875 529 
Q 447 1150 447 2328 
Q 447 3434 972 4092 
Q 1497 4750 2381 4750 
Q 2619 4750 2861 4703 
Q 3103 4656 3366 4563 
z
" transform="scale(0.015625)"/>
       </defs>
       <use xlink:href="#DejaVuSans-36"/>
       <use xlink:href="#DejaVuSans-30" transform="translate(63.623047 0)"/>
       <use xlink:href="#DejaVuSans-30" transform="translate(127.246094 0)"/>
      </g>
     </g>
    </g>
    <g id="text_13">
     <!-- Profit -->
     <g transform="translate(18.702813 229.779063) rotate(-90) scale(0.1 -0.1)">
      <defs>
       <path id="DejaVuSans-50" d="M 1259 4147 
L 1259 2394 
L 2053 2394 
Q 2494 2394 2734 2622 
Q 2975 2850 2975 3272 
Q 2975 3691 2734 3919 
Q 2494 4147 2053 4147 
L 1259 4147 
z
M 628 4666 
L 2053 4666 
Q 2838 4666 3239 4311 
Q 3641 3956 3641 3272 
Q 3641 2581 3239 2228 
Q 2838 1875 2053 1875 
L 1259 1875 
L 1259 0 
L 628 0 
L 628 4666 
z
" transform="scale(0.015625)"/>
       <path id="DejaVuSans-72" d="M 2631 2963 
Q 2534 3019 2420 3045 
Q 2306 3072 2169 3072 
Q 1681 3072 1420 2755 
Q 1159 2438 1159 1844 
L 1159 0 
L 581 0 
L 581 3500 
L 1159 3500 
L 1159 2956 
Q 1341 3275 1631 3429 
Q 1922 3584 2338 3584 
Q 2397 3584 2469 3576 
Q 2541 3569 2628 3553 
L 2631 2963 
z
" transform="scale(0.015625)"/>
       <path id="DejaVuSans-6f" d="M 1959 3097 
Q 1497 3097 1228 2736 
Q 959 2375 959 1747 
Q 959 1119 1226 758 
Q 1494 397 1959 397 
Q 2419 397 2687 759 
Q 2956 1122 2956 1747 
Q 2956 2369 2687 2733 
Q 2419 3097 1959 3097 
z
M 1959 3584 
Q 2709 3584 3137 3096 
Q 3566 2609 3566 1747 
Q 3566 888 3137 398 
Q 2709 -91 1959 -91 
Q 1206 -91 779 398 
Q 353 888 353 1747 
Q 353 2609 779 3096 
Q 1206 3584 1959 3584 
z
" transform="scale(0.015625)"/>
       <path id="DejaVuSans-66" d="M 2375 4863 
L 2375 4384 
L 1825 4384 
Q 1516 4384 1395 4259 
Q 1275 4134 1275 3809 
L 1275 3500 
L 2222 3500 
L 2222 3053 
L 1275 3053 
L 1275 0 
L 697 0 
L 697 3053 
L 147 3053 
L 147 3500 
L 697 3500 
L 697 3744 
Q 697 4328 969 4595 
Q 1241 4863 1831 4863 
L 2375 4863 
z
" transform="scale(0.015625)"/>
       <path id="DejaVuSans-69" d="M 603 3500 
L 1178 3500 
L 1178 0 
L 603 0 
L 603 3500 
z
M 603 4863 
L 1178 4863 
L 1178 4134 
L 603 4134 
L 603 4863 
z
" transform="scale(0.015625)"/>
      </defs>
      <use xlink:href="#DejaVuSans-50"/>
      <use xlink:href="#DejaVuSans-72" transform="translate(58.552734 0)"/>
      <use xlink:href="#DejaVuSans-6f" transform="translate(97.416016 0)"/>
      <use xlink:href="#DejaVuSans-66" transform="translate(158.597656 0)"/>
      <use xlink:href="#DejaVuSans-69" transform="translate(193.802734 0)"/>
      <use xlink:href="#DejaVuSans-74" transform="translate(221.585938 0)"/>
     </g>
    </g>
   </g>
   <g id="line2d_12">
    <path d="M 52.193327 246.136313 
L 54.83998 245.37096 
L 57.486633 232.076281 
L 60.133287 220.977031 
L 62.77994 211.793809 
L 65.426593 204.152957 
L 68.073247 197.541986 
L 70.7199 191.929936 
L 73.366553 186.720602 
L 76.013207 182.163917 
L 81.306513 174.478514 
L 83.953167 171.35995 
L 89.246473 165.747808 
L 91.893127 163.301622 
L 97.186433 159.140985 
L 105.126393 153.73514 
L 110.4197 150.794914 
L 113.066353 149.38262 
L 121.006313 145.722921 
L 128.946273 142.613088 
L 142.17954 138.058419 
L 155.412807 134.322017 
L 171.292727 130.638141 
L 187.172647 127.675181 
L 205.69922 124.59828 
L 213.63918 123.572157 
L 221.57914 122.46775 
L 232.165753 121.224559 
L 242.752367 119.985493 
L 250.692327 119.167272 
L 274.512207 117.009838 
L 293.03878 115.611684 
L 306.272047 114.642211 
L 332.73858 113.046469 
L 385.671647 110.371986 
L 438.604713 108.371715 
L 459.77794 107.634436 
L 470.364553 107.317038 
L 533.884233 105.691549 
L 560.350767 105.14645 
L 581.523993 104.723452 
L 668.863553 103.247839 
L 695.330087 102.869299 
L 721.79662 102.51441 
L 843.542673 101.24216 
L 843.542673 101.24216 
" clip-path="url(#pae14ebe775)" style="fill: none; stroke: #0000ff; stroke-width: 1.5; stroke-linecap: square"/>
   </g>
   <g id="patch_3">
    <path d="M 50.87 390.04 
L 50.87 43.44 
" style="fill: none; stroke: #000000; stroke-width: 0.8; stroke-linejoin: miter; stroke-linecap: square"/>
   </g>
   <g id="patch_4">
    <path d="M 844.866 390.04 
L 844.866 43.44 
" style="fill: none; stroke: #000000; stroke-width: 0.8; stroke-linejoin: miter; stroke-linecap: square"/>
   </g>
   <g id="patch_5">
    <path d="M 50.87 390.04 
L 844.866 390.04 
" style="fill: none; stroke: #000000; stroke-width: 0.8; stroke-linejoin: miter; stroke-linecap: square"/>
   </g>
   <g id="patch_6">
    <path d="M 50.87 43.44 
L 844.866 43.44 
" style="fill: none; stroke: #000000; stroke-width: 0.8; stroke-linejoin: miter; stroke-linecap: square"/>
   </g>
   <g id="text_14">
    <!-- Mean profit per step with confidence interval per simulation step -->
    <g transform="translate(220.284875 21.763062) scale(0.14 -0.14)">
     <defs>
      <path id="DejaVuSans-4d" d="M 628 4666 
L 1569 4666 
L 2759 1491 
L 3956 4666 
L 4897 4666 
L 4897 0 
L 4281 0 
L 4281 4097 
L 3078 897 
L 2444 897 
L 1241 4097 
L 1241 0 
L 628 0 
L 628 4666 
z
" transform="scale(0.015625)"/>
      <path id="DejaVuSans-61" d="M 2194 1759 
Q 1497 1759 1228 1600 
Q 959 1441 959 1056 
Q 959 750 1161 570 
Q 1363 391 1709 391 
Q 2188 391 2477 730 
Q 2766 1069 2766 1631 
L 2766 1759 
L 2194 1759 
z
M 3341 1997 
L 3341 0 
L 2766 0 
L 2766 531 
Q 2569 213 2275 61 
Q 1981 -91 1556 -91 
Q 1019 -91 701 211 
Q 384 513 384 1019 
Q 384 1609 779 1909 
Q 1175 2209 1959 2209 
L 2766 2209 
L 2766 2266 
Q 2766 2663 2505 2880 
Q 2244 3097 1772 3097 
Q 1472 3097 1187 3025 
Q 903 2953 641 2809 
L 641 3341 
Q 956 3463 1253 3523 
Q 1550 3584 1831 3584 
Q 2591 3584 2966 3190 
Q 3341 2797 3341 1997 
z
" transform="scale(0.015625)"/>
      <path id="DejaVuSans-6e" d="M 3513 2113 
L 3513 0 
L 2938 0 
L 2938 2094 
Q 2938 2591 2744 2837 
Q 2550 3084 2163 3084 
Q 1697 3084 1428 2787 
Q 1159 2491 1159 1978 
L 1159 0 
L 581 0 
L 581 3500 
L 1159 3500 
L 1159 2956 
Q 1366 3272 1645 3428 
Q 1925 3584 2291 3584 
Q 2894 3584 3203 3211 
Q 3513 2838 3513 2113 
z
" transform="scale(0.015625)"/>
      <path id="DejaVuSans-20" transform="scale(0.015625)"/>
      <path id="DejaVuSans-73" d="M 2834 3397 
L 2834 2853 
Q 2591 2978 2328 3040 
Q 2066 3103 1784 3103 
Q 1356 3103 1142 2972 
Q 928 2841 928 2578 
Q 928 2378 1081 2264 
Q 1234 2150 1697 2047 
L 1894 2003 
Q 2506 1872 2764 1633 
Q 3022 1394 3022 966 
Q 3022 478 2636 193 
Q 2250 -91 1575 -91 
Q 1294 -91 989 -36 
Q 684 19 347 128 
L 347 722 
Q 666 556 975 473 
Q 1284 391 1588 391 
Q 1994 391 2212 530 
Q 2431 669 2431 922 
Q 2431 1156 2273 1281 
Q 2116 1406 1581 1522 
L 1381 1569 
Q 847 1681 609 1914 
Q 372 2147 372 2553 
Q 372 3047 722 3315 
Q 1072 3584 1716 3584 
Q 2034 3584 2315 3537 
Q 2597 3491 2834 3397 
z
" transform="scale(0.015625)"/>
      <path id="DejaVuSans-77" d="M 269 3500 
L 844 3500 
L 1563 769 
L 2278 3500 
L 2956 3500 
L 3675 769 
L 4391 3500 
L 4966 3500 
L 4050 0 
L 3372 0 
L 2619 2869 
L 1863 0 
L 1184 0 
L 269 3500 
z
" transform="scale(0.015625)"/>
      <path id="DejaVuSans-68" d="M 3513 2113 
L 3513 0 
L 2938 0 
L 2938 2094 
Q 2938 2591 2744 2837 
Q 2550 3084 2163 3084 
Q 1697 3084 1428 2787 
Q 1159 2491 1159 1978 
L 1159 0 
L 581 0 
L 581 4863 
L 1159 4863 
L 1159 2956 
Q 1366 3272 1645 3428 
Q 1925 3584 2291 3584 
Q 2894 3584 3203 3211 
Q 3513 2838 3513 2113 
z
" transform="scale(0.015625)"/>
      <path id="DejaVuSans-63" d="M 3122 3366 
L 3122 2828 
Q 2878 2963 2633 3030 
Q 2388 3097 2138 3097 
Q 1578 3097 1268 2742 
Q 959 2388 959 1747 
Q 959 1106 1268 751 
Q 1578 397 2138 397 
Q 2388 397 2633 464 
Q 2878 531 3122 666 
L 3122 134 
Q 2881 22 2623 -34 
Q 2366 -91 2075 -91 
Q 1284 -91 818 406 
Q 353 903 353 1747 
Q 353 2603 823 3093 
Q 1294 3584 2113 3584 
Q 2378 3584 2631 3529 
Q 2884 3475 3122 3366 
z
" transform="scale(0.015625)"/>
      <path id="DejaVuSans-64" d="M 2906 2969 
L 2906 4863 
L 3481 4863 
L 3481 0 
L 2906 0 
L 2906 525 
Q 2725 213 2448 61 
Q 2172 -91 1784 -91 
Q 1150 -91 751 415 
Q 353 922 353 1747 
Q 353 2572 751 3078 
Q 1150 3584 1784 3584 
Q 2172 3584 2448 3432 
Q 2725 3281 2906 2969 
z
M 947 1747 
Q 947 1113 1208 752 
Q 1469 391 1925 391 
Q 2381 391 2643 752 
Q 2906 1113 2906 1747 
Q 2906 2381 2643 2742 
Q 2381 3103 1925 3103 
Q 1469 3103 1208 2742 
Q 947 2381 947 1747 
z
" transform="scale(0.015625)"/>
      <path id="DejaVuSans-76" d="M 191 3500 
L 800 3500 
L 1894 563 
L 2988 3500 
L 3597 3500 
L 2284 0 
L 1503 0 
L 191 3500 
z
" transform="scale(0.015625)"/>
      <path id="DejaVuSans-6c" d="M 603 4863 
L 1178 4863 
L 1178 0 
L 603 0 
L 603 4863 
z
" transform="scale(0.015625)"/>
      <path id="DejaVuSans-6d" d="M 3328 2828 
Q 3544 3216 3844 3400 
Q 4144 3584 4550 3584 
Q 5097 3584 5394 3201 
Q 5691 2819 5691 2113 
L 5691 0 
L 5113 0 
L 5113 2094 
Q 5113 2597 4934 2840 
Q 4756 3084 4391 3084 
Q 3944 3084 3684 2787 
Q 3425 2491 3425 1978 
L 3425 0 
L 2847 0 
L 2847 2094 
Q 2847 2600 2669 2842 
Q 2491 3084 2119 3084 
Q 1678 3084 1418 2786 
Q 1159 2488 1159 1978 
L 1159 0 
L 581 0 
L 581 3500 
L 1159 3500 
L 1159 2956 
Q 1356 3278 1631 3431 
Q 1906 3584 2284 3584 
Q 2666 3584 2933 3390 
Q 3200 3197 3328 2828 
z
" transform="scale(0.015625)"/>
      <path id="DejaVuSans-75" d="M 544 1381 
L 544 3500 
L 1119 3500 
L 1119 1403 
Q 1119 906 1312 657 
Q 1506 409 1894 409 
Q 2359 409 2629 706 
Q 2900 1003 2900 1516 
L 2900 3500 
L 3475 3500 
L 3475 0 
L 2900 0 
L 2900 538 
Q 2691 219 2414 64 
Q 2138 -91 1772 -91 
Q 1169 -91 856 284 
Q 544 659 544 1381 
z
M 1991 3584 
L 1991 3584 
z
" transform="scale(0.015625)"/>
     </defs>
     <use xlink:href="#DejaVuSans-4d"/>
     <use xlink:href="#DejaVuSans-65" transform="translate(86.279297 0)"/>
     <use xlink:href="#DejaVuSans-61" transform="translate(147.802734 0)"/>
     <use xlink:href="#DejaVuSans-6e" transform="translate(209.082031 0)"/>
     <use xlink:href="#DejaVuSans-20" transform="translate(272.460938 0)"/>
     <use xlink:href="#DejaVuSans-70" transform="translate(304.248047 0)"/>
     <use xlink:href="#DejaVuSans-72" transform="translate(367.724609 0)"/>
     <use xlink:href="#DejaVuSans-6f" transform="translate(406.587891 0)"/>
     <use xlink:href="#DejaVuSans-66" transform="translate(467.769531 0)"/>
     <use xlink:href="#DejaVuSans-69" transform="translate(502.974609 0)"/>
     <use xlink:href="#DejaVuSans-74" transform="translate(530.757812 0)"/>
     <use xlink:href="#DejaVuSans-20" transform="translate(569.966797 0)"/>
     <use xlink:href="#DejaVuSans-70" transform="translate(601.753906 0)"/>
     <use xlink:href="#DejaVuSans-65" transform="translate(665.230469 0)"/>
     <use xlink:href="#DejaVuSans-72" transform="translate(726.753906 0)"/>
     <use xlink:href="#DejaVuSans-20" transform="translate(767.867188 0)"/>
     <use xlink:href="#DejaVuSans-73" transform="translate(799.654297 0)"/>
     <use xlink:href="#DejaVuSans-74" transform="translate(851.753906 0)"/>
     <use xlink:href="#DejaVuSans-65" transform="translate(890.962891 0)"/>
     <use xlink:href="#DejaVuSans-70" transform="translate(952.486328 0)"/>
     <use xlink:href="#DejaVuSans-20" transform="translate(1015.962891 0)"/>
     <use xlink:href="#DejaVuSans-77" transform="translate(1047.75 0)"/>
     <use xlink:href="#DejaVuSans-69" transform="translate(1129.537109 0)"/>
     <use xlink:href="#DejaVuSans-74" transform="translate(1157.320312 0)"/>
     <use xlink:href="#DejaVuSans-68" transform="translate(1196.529297 0)"/>
     <use xlink:href="#DejaVuSans-20" transform="translate(1259.908203 0)"/>
     <use xlink:href="#DejaVuSans-63" transform="translate(1291.695312 0)"/>
     <use xlink:href="#DejaVuSans-6f" transform="translate(1346.675781 0)"/>
     <use xlink:href="#DejaVuSans-6e" transform="translate(1407.857422 0)"/>
     <use xlink:href="#DejaVuSans-66" transform="translate(1471.236328 0)"/>
     <use xlink:href="#DejaVuSans-69" transform="translate(1506.441406 0)"/>
     <use xlink:href="#DejaVuSans-64" transform="translate(1534.224609 0)"/>
     <use xlink:href="#DejaVuSans-65" transform="translate(1597.701172 0)"/>
     <use xlink:href="#DejaVuSans-6e" transform="translate(1659.224609 0)"/>
     <use xlink:href="#DejaVuSans-63" transform="translate(1722.603516 0)"/>
     <use xlink:href="#DejaVuSans-65" transform="translate(1777.583984 0)"/>
     <use xlink:href="#DejaVuSans-20" transform="translate(1839.107422 0)"/>
     <use xlink:href="#DejaVuSans-69" transform="translate(1870.894531 0)"/>
     <use xlink:href="#DejaVuSans-6e" transform="translate(1898.677734 0)"/>
     <use xlink:href="#DejaVuSans-74" transform="translate(1962.056641 0)"/>
     <use xlink:href="#DejaVuSans-65" transform="translate(2001.265625 0)"/>
     <use xlink:href="#DejaVuSans-72" transform="translate(2062.789062 0)"/>
     <use xlink:href="#DejaVuSans-76" transform="translate(2103.902344 0)"/>
     <use xlink:href="#DejaVuSans-61" transform="translate(2163.082031 0)"/>
     <use xlink:href="#DejaVuSans-6c" transform="translate(2224.361328 0)"/>
     <use xlink:href="#DejaVuSans-20" transform="translate(2252.144531 0)"/>
     <use xlink:href="#DejaVuSans-70" transform="translate(2283.931641 0)"/>
     <use xlink:href="#DejaVuSans-65" transform="translate(2347.408203 0)"/>
     <use xlink:href="#DejaVuSans-72" transform="translate(2408.931641 0)"/>
     <use xlink:href="#DejaVuSans-20" transform="translate(2450.044922 0)"/>
     <use xlink:href="#DejaVuSans-73" transform="translate(2481.832031 0)"/>
     <use xlink:href="#DejaVuSans-69" transform="translate(2533.931641 0)"/>
     <use xlink:href="#DejaVuSans-6d" transform="translate(2561.714844 0)"/>
     <use xlink:href="#DejaVuSans-75" transform="translate(2659.126953 0)"/>
     <use xlink:href="#DejaVuSans-6c" transform="translate(2722.505859 0)"/>
     <use xlink:href="#DejaVuSans-61" transform="translate(2750.289062 0)"/>
     <use xlink:href="#DejaVuSans-74" transform="translate(2811.568359 0)"/>
     <use xlink:href="#DejaVuSans-69" transform="translate(2850.777344 0)"/>
     <use xlink:href="#DejaVuSans-6f" transform="translate(2878.560547 0)"/>
     <use xlink:href="#DejaVuSans-6e" transform="translate(2939.742188 0)"/>
     <use xlink:href="#DejaVuSans-20" transform="translate(3003.121094 0)"/>
     <use xlink:href="#DejaVuSans-73" transform="translate(3034.908203 0)"/>
     <use xlink:href="#DejaVuSans-74" transform="translate(3087.007812 0)"/>
     <use xlink:href="#DejaVuSans-65" transform="translate(3126.216797 0)"/>
     <use xlink:href="#DejaVuSans-70" transform="translate(3187.740234 0)"/>
    </g>
    <!-- Base Product: Cocaine, Recipe size: 7, T0: 10.0 -->
    <g transform="translate(283.410656 37.44) scale(0.14 -0.14)">
     <defs>
      <path id="DejaVuSans-42" d="M 1259 2228 
L 1259 519 
L 2272 519 
Q 2781 519 3026 730 
Q 3272 941 3272 1375 
Q 3272 1813 3026 2020 
Q 2781 2228 2272 2228 
L 1259 2228 
z
M 1259 4147 
L 1259 2741 
L 2194 2741 
Q 2656 2741 2882 2914 
Q 3109 3088 3109 3444 
Q 3109 3797 2882 3972 
Q 2656 4147 2194 4147 
L 1259 4147 
z
M 628 4666 
L 2241 4666 
Q 2963 4666 3353 4366 
Q 3744 4066 3744 3513 
Q 3744 3084 3544 2831 
Q 3344 2578 2956 2516 
Q 3422 2416 3680 2098 
Q 3938 1781 3938 1306 
Q 3938 681 3513 340 
Q 3088 0 2303 0 
L 628 0 
L 628 4666 
z
" transform="scale(0.015625)"/>
      <path id="DejaVuSans-3a" d="M 750 794 
L 1409 794 
L 1409 0 
L 750 0 
L 750 794 
z
M 750 3309 
L 1409 3309 
L 1409 2516 
L 750 2516 
L 750 3309 
z
" transform="scale(0.015625)"/>
      <path id="DejaVuSans-43" d="M 4122 4306 
L 4122 3641 
Q 3803 3938 3442 4084 
Q 3081 4231 2675 4231 
Q 1875 4231 1450 3742 
Q 1025 3253 1025 2328 
Q 1025 1406 1450 917 
Q 1875 428 2675 428 
Q 3081 428 3442 575 
Q 3803 722 4122 1019 
L 4122 359 
Q 3791 134 3420 21 
Q 3050 -91 2638 -91 
Q 1578 -91 968 557 
Q 359 1206 359 2328 
Q 359 3453 968 4101 
Q 1578 4750 2638 4750 
Q 3056 4750 3426 4639 
Q 3797 4528 4122 4306 
z
" transform="scale(0.015625)"/>
      <path id="DejaVuSans-2c" d="M 750 794 
L 1409 794 
L 1409 256 
L 897 -744 
L 494 -744 
L 750 256 
L 750 794 
z
" transform="scale(0.015625)"/>
      <path id="DejaVuSans-52" d="M 2841 2188 
Q 3044 2119 3236 1894 
Q 3428 1669 3622 1275 
L 4263 0 
L 3584 0 
L 2988 1197 
Q 2756 1666 2539 1819 
Q 2322 1972 1947 1972 
L 1259 1972 
L 1259 0 
L 628 0 
L 628 4666 
L 2053 4666 
Q 2853 4666 3247 4331 
Q 3641 3997 3641 3322 
Q 3641 2881 3436 2590 
Q 3231 2300 2841 2188 
z
M 1259 4147 
L 1259 2491 
L 2053 2491 
Q 2509 2491 2742 2702 
Q 2975 2913 2975 3322 
Q 2975 3731 2742 3939 
Q 2509 4147 2053 4147 
L 1259 4147 
z
" transform="scale(0.015625)"/>
      <path id="DejaVuSans-7a" d="M 353 3500 
L 3084 3500 
L 3084 2975 
L 922 459 
L 3084 459 
L 3084 0 
L 275 0 
L 275 525 
L 2438 3041 
L 353 3041 
L 353 3500 
z
" transform="scale(0.015625)"/>
      <path id="DejaVuSans-37" d="M 525 4666 
L 3525 4666 
L 3525 4397 
L 1831 0 
L 1172 0 
L 2766 4134 
L 525 4134 
L 525 4666 
z
" transform="scale(0.015625)"/>
      <path id="DejaVuSans-54" d="M -19 4666 
L 3928 4666 
L 3928 4134 
L 2272 4134 
L 2272 0 
L 1638 0 
L 1638 4134 
L -19 4134 
L -19 4666 
z
" transform="scale(0.015625)"/>
      <path id="DejaVuSans-2e" d="M 684 794 
L 1344 794 
L 1344 0 
L 684 0 
L 684 794 
z
" transform="scale(0.015625)"/>
     </defs>
     <use xlink:href="#DejaVuSans-42"/>
     <use xlink:href="#DejaVuSans-61" transform="translate(68.603516 0)"/>
     <use xlink:href="#DejaVuSans-73" transform="translate(129.882812 0)"/>
     <use xlink:href="#DejaVuSans-65" transform="translate(181.982422 0)"/>
     <use xlink:href="#DejaVuSans-20" transform="translate(243.505859 0)"/>
     <use xlink:href="#DejaVuSans-50" transform="translate(275.292969 0)"/>
     <use xlink:href="#DejaVuSans-72" transform="translate(333.845703 0)"/>
     <use xlink:href="#DejaVuSans-6f" transform="translate(372.708984 0)"/>
     <use xlink:href="#DejaVuSans-64" transform="translate(433.890625 0)"/>
     <use xlink:href="#DejaVuSans-75" transform="translate(497.367188 0)"/>
     <use xlink:href="#DejaVuSans-63" transform="translate(560.746094 0)"/>
     <use xlink:href="#DejaVuSans-74" transform="translate(615.726562 0)"/>
     <use xlink:href="#DejaVuSans-3a" transform="translate(654.935547 0)"/>
     <use xlink:href="#DejaVuSans-20" transform="translate(688.626953 0)"/>
     <use xlink:href="#DejaVuSans-43" transform="translate(720.414062 0)"/>
     <use xlink:href="#DejaVuSans-6f" transform="translate(790.238281 0)"/>
     <use xlink:href="#DejaVuSans-63" transform="translate(851.419922 0)"/>
     <use xlink:href="#DejaVuSans-61" transform="translate(906.400391 0)"/>
     <use xlink:href="#DejaVuSans-69" transform="translate(967.679688 0)"/>
     <use xlink:href="#DejaVuSans-6e" transform="translate(995.462891 0)"/>
     <use xlink:href="#DejaVuSans-65" transform="translate(1058.841797 0)"/>
     <use xlink:href="#DejaVuSans-2c" transform="translate(1120.365234 0)"/>
     <use xlink:href="#DejaVuSans-20" transform="translate(1152.152344 0)"/>
     <use xlink:href="#DejaVuSans-52" transform="translate(1183.939453 0)"/>
     <use xlink:href="#DejaVuSans-65" transform="translate(1248.921875 0)"/>
     <use xlink:href="#DejaVuSans-63" transform="translate(1310.445312 0)"/>
     <use xlink:href="#DejaVuSans-69" transform="translate(1365.425781 0)"/>
     <use xlink:href="#DejaVuSans-70" transform="translate(1393.208984 0)"/>
     <use xlink:href="#DejaVuSans-65" transform="translate(1456.685547 0)"/>
     <use xlink:href="#DejaVuSans-20" transform="translate(1518.208984 0)"/>
     <use xlink:href="#DejaVuSans-73" transform="translate(1549.996094 0)"/>
     <use xlink:href="#DejaVuSans-69" transform="translate(1602.095703 0)"/>
     <use xlink:href="#DejaVuSans-7a" transform="translate(1629.878906 0)"/>
     <use xlink:href="#DejaVuSans-65" transform="translate(1682.369141 0)"/>
     <use xlink:href="#DejaVuSans-3a" transform="translate(1743.892578 0)"/>
     <use xlink:href="#DejaVuSans-20" transform="translate(1777.583984 0)"/>
     <use xlink:href="#DejaVuSans-37" transform="translate(1809.371094 0)"/>
     <use xlink:href="#DejaVuSans-2c" transform="translate(1872.994141 0)"/>
     <use xlink:href="#DejaVuSans-20" transform="translate(1904.78125 0)"/>
     <use xlink:href="#DejaVuSans-54" transform="translate(1936.568359 0)"/>
     <use xlink:href="#DejaVuSans-30" transform="translate(1997.652344 0)"/>
     <use xlink:href="#DejaVuSans-3a" transform="translate(2061.275391 0)"/>
     <use xlink:href="#DejaVuSans-20" transform="translate(2094.966797 0)"/>
     <use xlink:href="#DejaVuSans-31" transform="translate(2126.753906 0)"/>
     <use xlink:href="#DejaVuSans-30" transform="translate(2190.376953 0)"/>
     <use xlink:href="#DejaVuSans-2e" transform="translate(2254 0)"/>
     <use xlink:href="#DejaVuSans-30" transform="translate(2285.787109 0)"/>
    </g>
   </g>
  </g>
 </g>
 <defs>
  <clipPath id="pae14ebe775">
   <rect x="50.87" y="43.44" width="793.996" height="346.6"/>
  </clipPath>
 </defs>
</svg>
