<?xml version="1.0" encoding="utf-8" standalone="no"?>
<!DOCTYPE svg PUBLIC "-//W3C//DTD SVG 1.1//EN"
  "http://www.w3.org/Graphics/SVG/1.1/DTD/svg11.dtd">
<svg xmlns:xlink="http://www.w3.org/1999/xlink" width="864pt" height="432pt" viewBox="0 0 864 432" xmlns="http://www.w3.org/2000/svg" version="1.1">
 <metadata>
  <rdf:RDF xmlns:dc="http://purl.org/dc/elements/1.1/" xmlns:cc="http://creativecommons.org/ns#" xmlns:rdf="http://www.w3.org/1999/02/22-rdf-syntax-ns#">
   <cc:Work>
    <dc:type rdf:resource="http://purl.org/dc/dcmitype/StillImage"/>
    <dc:date>2025-05-24T02:16:13.733637</dc:date>
    <dc:format>image/svg+xml</dc:format>
    <dc:creator>
     <cc:Agent>
      <dc:title>Matplotlib v3.10.3, https://matplotlib.org/</dc:title>
     </cc:Agent>
    </dc:creator>
   </cc:Work>
  </rdf:RDF>
 </metadata>
 <defs>
  <style type="text/css">*{stroke-linejoin: round; stroke-linecap: butt}</style>
 </defs>
 <g id="figure_1">
  <g id="patch_1">
   <path d="M 0 432 
L 864 432 
L 864 0 
L 0 0 
z
" style="fill: #ffffff"/>
  </g>
  <g id="axes_1">
   <g id="patch_2">
    <path d="M 50.87 390.04 
L 844.866 390.04 
L 844.866 43.44 
L 50.87 43.44 
z
" style="fill: #ffffff"/>
   </g>
   <g id="FillBetweenPolyCollection_1">
    <defs>
     <path id="m759c92d15b" d="M 52.193327 -305.620565 
L 52.193327 -57.714545 
L 54.83998 -59.305449 
L 57.486633 -65.409412 
L 60.133287 -70.295879 
L 62.77994 -77.363315 
L 65.426593 -84.506206 
L 68.073247 -89.800517 
L 70.7199 -94.915272 
L 73.366553 -99.463074 
L 76.013207 -104.758843 
L 78.65986 -108.082735 
L 81.306513 -111.428931 
L 83.953167 -114.894687 
L 86.59982 -118.088029 
L 89.246473 -120.871281 
L 91.893127 -125.098387 
L 94.53978 -127.049735 
L 97.186433 -129.290395 
L 99.833087 -131.853818 
L 102.47974 -133.245066 
L 105.126393 -135.44603 
L 107.773047 -137.605566 
L 110.4197 -139.349586 
L 113.066353 -140.936249 
L 115.713007 -142.580368 
L 118.35966 -143.83946 
L 121.006313 -144.865751 
L 123.652967 -146.046722 
L 126.29962 -147.883075 
L 128.946273 -148.726997 
L 131.592927 -150.46917 
L 134.23958 -151.919584 
L 136.886233 -152.909086 
L 139.532887 -154.324034 
L 142.17954 -155.074626 
L 144.826193 -155.929087 
L 147.472847 -156.617563 
L 150.1195 -157.192042 
L 152.766153 -158.297378 
L 155.412807 -158.904941 
L 158.05946 -160.099892 
L 160.706113 -160.888217 
L 163.352767 -161.784399 
L 165.99942 -162.597831 
L 168.646073 -163.846679 
L 171.292727 -165.040172 
L 173.93938 -165.113686 
L 176.586033 -165.796778 
L 179.232687 -166.304817 
L 181.87934 -167.452715 
L 184.525993 -167.719429 
L 187.172647 -167.852078 
L 189.8193 -168.079033 
L 192.465953 -168.646763 
L 195.112607 -169.048929 
L 197.75926 -169.407704 
L 200.405913 -169.841222 
L 203.052567 -170.698369 
L 205.69922 -171.396071 
L 208.345873 -172.464126 
L 210.992527 -172.914049 
L 213.63918 -173.54297 
L 216.285833 -173.765822 
L 218.932487 -174.327044 
L 221.57914 -175.332837 
L 224.225793 -175.765031 
L 226.872447 -175.938174 
L 229.5191 -175.910212 
L 232.165753 -175.905447 
L 234.812407 -176.745497 
L 237.45906 -176.981248 
L 240.105713 -177.607252 
L 242.752367 -177.939304 
L 245.39902 -178.504242 
L 248.045673 -178.926266 
L 250.692327 -179.098926 
L 253.33898 -180.043684 
L 255.985633 -180.524947 
L 258.632287 -180.927743 
L 261.27894 -181.735359 
L 263.925593 -182.326212 
L 266.572247 -182.395643 
L 269.2189 -183.012673 
L 271.865553 -183.060441 
L 274.512207 -183.748634 
L 277.15886 -183.32619 
L 279.805513 -183.07757 
L 282.452167 -183.167217 
L 285.09882 -183.692501 
L 287.745473 -184.246775 
L 290.392127 -184.335697 
L 293.03878 -184.3986 
L 295.685433 -184.597006 
L 298.332087 -185.043297 
L 300.97874 -185.685108 
L 303.625393 -186.136038 
L 306.272047 -186.211022 
L 308.9187 -185.664337 
L 311.565353 -185.115143 
L 314.212007 -185.070492 
L 316.85866 -185.972479 
L 319.505313 -186.114836 
L 322.151967 -186.321944 
L 324.79862 -186.648675 
L 327.445273 -186.913469 
L 330.091927 -187.589549 
L 332.73858 -187.747 
L 335.385233 -188.491032 
L 338.031887 -189.405298 
L 340.67854 -189.370578 
L 343.325193 -190.049712 
L 345.971847 -189.982349 
L 348.6185 -190.931263 
L 351.265153 -190.856258 
L 353.911807 -191.744799 
L 356.55846 -191.485674 
L 359.205113 -191.521234 
L 361.851767 -191.805005 
L 364.49842 -192.138379 
L 367.145073 -191.901621 
L 369.791727 -192.566281 
L 372.43838 -192.923293 
L 375.085033 -193.097758 
L 377.731687 -193.35637 
L 380.37834 -193.960049 
L 383.024993 -193.660041 
L 385.671647 -193.722093 
L 388.3183 -193.925359 
L 390.964953 -194.142281 
L 393.611607 -194.225346 
L 396.25826 -194.17211 
L 398.904913 -193.760939 
L 401.551567 -194.310091 
L 404.19822 -194.464676 
L 406.844873 -194.301253 
L 409.491527 -194.780271 
L 412.13818 -194.52251 
L 414.784833 -194.42031 
L 417.431487 -194.920613 
L 420.07814 -195.414304 
L 422.724793 -195.452835 
L 425.371447 -195.341535 
L 428.0181 -196.46398 
L 430.664753 -197.045177 
L 433.311407 -197.402094 
L 435.95806 -197.609202 
L 438.604713 -197.769119 
L 441.251367 -197.665208 
L 443.89802 -197.912033 
L 446.544673 -197.864906 
L 449.191327 -197.980425 
L 451.83798 -198.222212 
L 454.484633 -198.787181 
L 457.131287 -198.9302 
L 459.77794 -198.821713 
L 462.424593 -199.341655 
L 465.071247 -199.696651 
L 467.7179 -200.11517 
L 470.364553 -199.971983 
L 473.011207 -200.020852 
L 475.65786 -200.461748 
L 478.304513 -200.457067 
L 480.951167 -200.905562 
L 483.59782 -200.818718 
L 486.244473 -200.955985 
L 488.891127 -200.74067 
L 491.53778 -200.95122 
L 494.184433 -201.251826 
L 496.831087 -201.501926 
L 499.47774 -201.798585 
L 502.124393 -201.874744 
L 504.771047 -202.339005 
L 507.4177 -202.232197 
L 510.064353 -202.555768 
L 512.711007 -202.670406 
L 515.35766 -202.50988 
L 518.004313 -202.676473 
L 520.650967 -202.855493 
L 523.29762 -203.014907 
L 525.944273 -202.735167 
L 528.590927 -202.31014 
L 531.23758 -202.085589 
L 533.884233 -202.578335 
L 536.530887 -203.051181 
L 539.17754 -202.605856 
L 541.824193 -203.300105 
L 544.470847 -203.185194 
L 547.1175 -202.867962 
L 549.764153 -203.450093 
L 552.410807 -203.78796 
L 555.05746 -204.012218 
L 557.704113 -204.208221 
L 560.350767 -204.131348 
L 562.99742 -203.952915 
L 565.644073 -204.466465 
L 568.290727 -204.616012 
L 570.93738 -204.625312 
L 573.584033 -205.093413 
L 576.230687 -205.295147 
L 578.87734 -206.139111 
L 581.523993 -206.680035 
L 584.170647 -206.760707 
L 586.8173 -206.802208 
L 589.463953 -207.20895 
L 592.110607 -207.227046 
L 594.75726 -207.041161 
L 597.403913 -206.805315 
L 600.050567 -206.609501 
L 602.69722 -206.800445 
L 605.343873 -207.350752 
L 607.990527 -207.403253 
L 610.63718 -207.36933 
L 613.283833 -207.81667 
L 615.930487 -207.923016 
L 618.57714 -208.031986 
L 621.223793 -208.036541 
L 623.870447 -207.720107 
L 626.5171 -207.273522 
L 629.163753 -207.496562 
L 631.810407 -207.680978 
L 634.45706 -208.165054 
L 637.103713 -208.386688 
L 639.750367 -208.476891 
L 642.39702 -208.206493 
L 645.043673 -208.395127 
L 647.690327 -208.872612 
L 650.33698 -208.490389 
L 652.983633 -208.524312 
L 655.630287 -208.934791 
L 658.27694 -209.376778 
L 660.923593 -209.414291 
L 663.570247 -209.983029 
L 666.2169 -209.995351 
L 668.863553 -209.85504 
L 671.510207 -210.353622 
L 674.15686 -210.530879 
L 676.803513 -210.533776 
L 679.450167 -210.332421 
L 682.09682 -210.554831 
L 684.743473 -210.81253 
L 687.390127 -211.157345 
L 690.03678 -211.474115 
L 692.683433 -211.483394 
L 695.330087 -211.471974 
L 697.97674 -211.041595 
L 700.623393 -211.38154 
L 703.270047 -211.371338 
L 705.9167 -211.205207 
L 708.563353 -211.115046 
L 711.210007 -211.724886 
L 713.85666 -211.204577 
L 716.503313 -211.543788 
L 719.149967 -211.936486 
L 721.79662 -211.914381 
L 724.443273 -211.823003 
L 727.089927 -211.871915 
L 729.73658 -211.741575 
L 732.383233 -211.961236 
L 735.029887 -211.862783 
L 737.67654 -211.452829 
L 740.323193 -211.605903 
L 742.969847 -211.899477 
L 745.6165 -212.098104 
L 748.263153 -212.633674 
L 750.909807 -212.45415 
L 753.55646 -212.309116 
L 756.203113 -212.533164 
L 758.849767 -212.72436 
L 761.49642 -212.595678 
L 764.143073 -212.603026 
L 766.789727 -212.515069 
L 769.43638 -212.573616 
L 772.083033 -212.810637 
L 774.729687 -212.57074 
L 777.37634 -212.86614 
L 780.022993 -213.022006 
L 782.669647 -213.053263 
L 785.3163 -213.109312 
L 787.962953 -213.108598 
L 790.609607 -213.121445 
L 793.25626 -213.424697 
L 795.902913 -214.111409 
L 798.549567 -214.071378 
L 801.19622 -213.939673 
L 803.842873 -213.903042 
L 806.489527 -213.690078 
L 809.13618 -213.931529 
L 811.782833 -214.39369 
L 814.429487 -214.192838 
L 817.07614 -214.089473 
L 819.722793 -214.496551 
L 822.369447 -214.865906 
L 825.0161 -215.165021 
L 827.662753 -215.612572 
L 830.309407 -215.552913 
L 832.95606 -215.645949 
L 835.602713 -216.068225 
L 838.249367 -215.833996 
L 840.89602 -215.824823 
L 843.542673 -215.869263 
L 843.542673 -372.665186 
L 843.542673 -372.665186 
L 840.89602 -372.494079 
L 838.249367 -372.285985 
L 835.602713 -372.229433 
L 832.95606 -372.412483 
L 830.309407 -372.471681 
L 827.662753 -372.40035 
L 825.0161 -372.484318 
L 822.369447 -372.510285 
L 819.722793 -372.608801 
L 817.07614 -372.798317 
L 814.429487 -372.520257 
L 811.782833 -372.424113 
L 809.13618 -372.805455 
L 806.489527 -372.719345 
L 803.842873 -372.487362 
L 801.19622 -372.239593 
L 798.549567 -371.922067 
L 795.902913 -371.780056 
L 793.25626 -372.138999 
L 790.609607 -372.24081 
L 787.962953 -372.198448 
L 785.3163 -372.026398 
L 782.669647 -371.91472 
L 780.022993 -371.970538 
L 777.37634 -371.816015 
L 774.729687 -371.991383 
L 772.083033 -371.667601 
L 769.43638 -371.815952 
L 766.789727 -371.72025 
L 764.143073 -371.319259 
L 761.49642 -371.189948 
L 758.849767 -371.011642 
L 756.203113 -371.101404 
L 753.55646 -371.228847 
L 750.909807 -370.98599 
L 748.263153 -370.810286 
L 745.6165 -370.993022 
L 742.969847 -371.10491 
L 740.323193 -371.194735 
L 737.67654 -371.253932 
L 735.029887 -370.891672 
L 732.383233 -370.784613 
L 729.73658 -370.910607 
L 727.089927 -370.527355 
L 724.443273 -370.353541 
L 721.79662 -370.360405 
L 719.149967 -370.47836 
L 716.503313 -370.716683 
L 713.85666 -370.862808 
L 711.210007 -370.464757 
L 708.563353 -370.687168 
L 705.9167 -370.454807 
L 703.270047 -370.279355 
L 700.623393 -370.132789 
L 697.97674 -370.190517 
L 695.330087 -369.775042 
L 692.683433 -369.655723 
L 690.03678 -369.652491 
L 687.390127 -369.715929 
L 684.743473 -369.853888 
L 682.09682 -370.038534 
L 679.450167 -370.044265 
L 676.803513 -369.959163 
L 674.15686 -369.969491 
L 671.510207 -369.897741 
L 668.863553 -370.426635 
L 666.2169 -370.255382 
L 663.570247 -370.108543 
L 660.923593 -370.480417 
L 658.27694 -370.218541 
L 655.630287 -370.285443 
L 652.983633 -370.25618 
L 650.33698 -370.042439 
L 647.690327 -369.667899 
L 645.043673 -369.624025 
L 642.39702 -369.600976 
L 639.750367 -369.101554 
L 637.103713 -369.217115 
L 634.45706 -369.358098 
L 631.810407 -369.523725 
L 629.163753 -369.681523 
L 626.5171 -369.812492 
L 623.870447 -369.296717 
L 621.223793 -369.177818 
L 618.57714 -368.789318 
L 615.930487 -368.53945 
L 613.283833 -368.808862 
L 610.63718 -368.980451 
L 607.990527 -368.903788 
L 605.343873 -368.777017 
L 602.69722 -368.957906 
L 600.050567 -369.104304 
L 597.403913 -368.699955 
L 594.75726 -368.619409 
L 592.110607 -368.538904 
L 589.463953 -368.400819 
L 586.8173 -368.527149 
L 584.170647 -368.412511 
L 581.523993 -368.238508 
L 578.87734 -368.427814 
L 576.230687 -368.716077 
L 573.584033 -368.414337 
L 570.93738 -368.630912 
L 568.290727 -368.584247 
L 565.644073 -368.568755 
L 562.99742 -368.708184 
L 560.350767 -368.102689 
L 557.704113 -367.931184 
L 555.05746 -368.139572 
L 552.410807 -368.071873 
L 549.764153 -368.099142 
L 547.1175 -368.313785 
L 544.470847 -367.973966 
L 541.824193 -367.933032 
L 539.17754 -368.043408 
L 536.530887 -367.66341 
L 533.884233 -367.816505 
L 531.23758 -367.918337 
L 528.590927 -367.60331 
L 525.944273 -367.118456 
L 523.29762 -366.735225 
L 520.650967 -366.468542 
L 518.004313 -366.572579 
L 515.35766 -366.413039 
L 512.711007 -365.900057 
L 510.064353 -365.927871 
L 507.4177 -366.090098 
L 504.771047 -366.155803 
L 502.124393 -366.312655 
L 499.47774 -366.259671 
L 496.831087 -366.345739 
L 494.184433 -366.208451 
L 491.53778 -366.333311 
L 488.891127 -366.284358 
L 486.244473 -365.913785 
L 483.59782 -365.777904 
L 480.951167 -365.671579 
L 478.304513 -365.912211 
L 475.65786 -365.663476 
L 473.011207 -365.81401 
L 470.364553 -365.727691 
L 467.7179 -365.340367 
L 465.071247 -365.366712 
L 462.424593 -365.297039 
L 459.77794 -365.484855 
L 457.131287 -364.91639 
L 454.484633 -364.898253 
L 451.83798 -365.079918 
L 449.191327 -365.035541 
L 446.544673 -364.949117 
L 443.89802 -364.684008 
L 441.251367 -364.642108 
L 438.604713 -364.469259 
L 435.95806 -364.26824 
L 433.311407 -364.178561 
L 430.664753 -364.266014 
L 428.0181 -364.520795 
L 425.371447 -365.266013 
L 422.724793 -364.938453 
L 420.07814 -364.800976 
L 417.431487 -364.660917 
L 414.784833 -364.869914 
L 412.13818 -364.71917 
L 409.491527 -364.364341 
L 406.844873 -364.568363 
L 404.19822 -364.265762 
L 401.551567 -364.180661 
L 398.904913 -364.333147 
L 396.25826 -363.641312 
L 393.611607 -363.612805 
L 390.964953 -363.432672 
L 388.3183 -363.207385 
L 385.671647 -363.101585 
L 383.024993 -362.841704 
L 380.37834 -362.218765 
L 377.731687 -362.288437 
L 375.085033 -362.013651 
L 372.43838 -361.783348 
L 369.791727 -361.812086 
L 367.145073 -362.05509 
L 364.49842 -361.904157 
L 361.851767 -361.845442 
L 359.205113 -361.831671 
L 356.55846 -361.492146 
L 353.911807 -361.037458 
L 351.265153 -361.414874 
L 348.6185 -361.19366 
L 345.971847 -361.746192 
L 343.325193 -361.457152 
L 340.67854 -361.752426 
L 338.031887 -361.471763 
L 335.385233 -361.812988 
L 332.73858 -362.150771 
L 330.091927 -361.67167 
L 327.445273 -361.817921 
L 324.79862 -361.475709 
L 322.151967 -361.422431 
L 319.505313 -361.30496 
L 316.85866 -361.070143 
L 314.212007 -361.370287 
L 311.565353 -360.839398 
L 308.9187 -360.261361 
L 306.272047 -359.620306 
L 303.625393 -359.629752 
L 300.97874 -359.490722 
L 298.332087 -359.475775 
L 295.685433 -359.264889 
L 293.03878 -358.868244 
L 290.392127 -358.633112 
L 287.745473 -358.366178 
L 285.09882 -358.281957 
L 282.452167 -358.451972 
L 279.805513 -358.19419 
L 277.15886 -357.716348 
L 274.512207 -356.929608 
L 271.865553 -356.743093 
L 269.2189 -356.404407 
L 266.572247 -356.57247 
L 263.925593 -356.108986 
L 261.27894 -355.852317 
L 258.632287 -355.944388 
L 255.985633 -355.600244 
L 253.33898 -355.541508 
L 250.692327 -355.745971 
L 248.045673 -355.471563 
L 245.39902 -355.299176 
L 242.752367 -355.260845 
L 240.105713 -354.99689 
L 237.45906 -355.080523 
L 234.812407 -354.728444 
L 232.165753 -354.755818 
L 229.5191 -354.331904 
L 226.872447 -353.730608 
L 224.225793 -353.309172 
L 221.57914 -353.276109 
L 218.932487 -353.156937 
L 216.285833 -353.151794 
L 213.63918 -352.747655 
L 210.992527 -352.798792 
L 208.345873 -352.644227 
L 205.69922 -352.948171 
L 203.052567 -352.503455 
L 200.405913 -352.27779 
L 197.75926 -351.762162 
L 195.112607 -351.24855 
L 192.465953 -350.691463 
L 189.8193 -350.098374 
L 187.172647 -349.805011 
L 184.525993 -348.888582 
L 181.87934 -348.238689 
L 179.232687 -347.902165 
L 176.586033 -347.356057 
L 173.93938 -347.331727 
L 171.292727 -346.672199 
L 168.646073 -346.28943 
L 165.99942 -346.21474 
L 163.352767 -346.19125 
L 160.706113 -345.788728 
L 158.05946 -345.269846 
L 155.412807 -345.038346 
L 152.766153 -344.402161 
L 150.1195 -344.523663 
L 147.472847 -343.741415 
L 144.826193 -343.052687 
L 142.17954 -342.584312 
L 139.532887 -342.135712 
L 136.886233 -341.554106 
L 134.23958 -341.211621 
L 131.592927 -340.747571 
L 128.946273 -340.893507 
L 126.29962 -339.995467 
L 123.652967 -339.980311 
L 121.006313 -339.242608 
L 118.35966 -338.519012 
L 115.713007 -337.861185 
L 113.066353 -337.056538 
L 110.4197 -335.99052 
L 107.773047 -334.776802 
L 105.126393 -334.256661 
L 102.47974 -333.768008 
L 99.833087 -331.985153 
L 97.186433 -331.008351 
L 94.53978 -330.408125 
L 91.893127 -329.468206 
L 89.246473 -328.843357 
L 86.59982 -328.217793 
L 83.953167 -327.356867 
L 81.306513 -326.339341 
L 78.65986 -325.102363 
L 76.013207 -323.667809 
L 73.366553 -322.65828 
L 70.7199 -320.430393 
L 68.073247 -318.660302 
L 65.426593 -316.541763 
L 62.77994 -314.537253 
L 60.133287 -312.15497 
L 57.486633 -306.77349 
L 54.83998 -303.578017 
L 52.193327 -305.620565 
z
" style="stroke: #0000ff; stroke-opacity: 0.2"/>
    </defs>
    <g clip-path="url(#pf811b06245)">
     <use xlink:href="#m759c92d15b" x="0" y="432" style="fill: #0000ff; fill-opacity: 0.2; stroke: #0000ff; stroke-opacity: 0.2"/>
    </g>
   </g>
   <g id="matplotlib.axis_1">
    <g id="xtick_1">
     <g id="line2d_1">
      <defs>
       <path id="m8cb3d83d0c" d="M 0 0 
L 0 3.5 
" style="stroke: #000000; stroke-width: 0.8"/>
      </defs>
      <g>
       <use xlink:href="#m8cb3d83d0c" x="181.87934" y="390.04" style="stroke: #000000; stroke-width: 0.8"/>
      </g>
     </g>
     <g id="text_1">
      <!-- 50 -->
      <g transform="translate(175.51684 404.638438) scale(0.1 -0.1)">
       <defs>
        <path id="DejaVuSans-35" d="M 691 4666 
L 3169 4666 
L 3169 4134 
L 1269 4134 
L 1269 2991 
Q 1406 3038 1543 3061 
Q 1681 3084 1819 3084 
Q 2600 3084 3056 2656 
Q 3513 2228 3513 1497 
Q 3513 744 3044 326 
Q 2575 -91 1722 -91 
Q 1428 -91 1123 -41 
Q 819 9 494 109 
L 494 744 
Q 775 591 1075 516 
Q 1375 441 1709 441 
Q 2250 441 2565 725 
Q 2881 1009 2881 1497 
Q 2881 1984 2565 2268 
Q 2250 2553 1709 2553 
Q 1456 2553 1204 2497 
Q 953 2441 691 2322 
L 691 4666 
z
" transform="scale(0.015625)"/>
        <path id="DejaVuSans-30" d="M 2034 4250 
Q 1547 4250 1301 3770 
Q 1056 3291 1056 2328 
Q 1056 1369 1301 889 
Q 1547 409 2034 409 
Q 2525 409 2770 889 
Q 3016 1369 3016 2328 
Q 3016 3291 2770 3770 
Q 2525 4250 2034 4250 
z
M 2034 4750 
Q 2819 4750 3233 4129 
Q 3647 3509 3647 2328 
Q 3647 1150 3233 529 
Q 2819 -91 2034 -91 
Q 1250 -91 836 529 
Q 422 1150 422 2328 
Q 422 3509 836 4129 
Q 1250 4750 2034 4750 
z
" transform="scale(0.015625)"/>
       </defs>
       <use xlink:href="#DejaVuSans-35"/>
       <use xlink:href="#DejaVuSans-30" transform="translate(63.623047 0)"/>
      </g>
     </g>
    </g>
    <g id="xtick_2">
     <g id="line2d_2">
      <g>
       <use xlink:href="#m8cb3d83d0c" x="314.212007" y="390.04" style="stroke: #000000; stroke-width: 0.8"/>
      </g>
     </g>
     <g id="text_2">
      <!-- 100 -->
      <g transform="translate(304.668257 404.638438) scale(0.1 -0.1)">
       <defs>
        <path id="DejaVuSans-31" d="M 794 531 
L 1825 531 
L 1825 4091 
L 703 3866 
L 703 4441 
L 1819 4666 
L 2450 4666 
L 2450 531 
L 3481 531 
L 3481 0 
L 794 0 
L 794 531 
z
" transform="scale(0.015625)"/>
       </defs>
       <use xlink:href="#DejaVuSans-31"/>
       <use xlink:href="#DejaVuSans-30" transform="translate(63.623047 0)"/>
       <use xlink:href="#DejaVuSans-30" transform="translate(127.246094 0)"/>
      </g>
     </g>
    </g>
    <g id="xtick_3">
     <g id="line2d_3">
      <g>
       <use xlink:href="#m8cb3d83d0c" x="446.544673" y="390.04" style="stroke: #000000; stroke-width: 0.8"/>
      </g>
     </g>
     <g id="text_3">
      <!-- 150 -->
      <g transform="translate(437.000923 404.638438) scale(0.1 -0.1)">
       <use xlink:href="#DejaVuSans-31"/>
       <use xlink:href="#DejaVuSans-35" transform="translate(63.623047 0)"/>
       <use xlink:href="#DejaVuSans-30" transform="translate(127.246094 0)"/>
      </g>
     </g>
    </g>
    <g id="xtick_4">
     <g id="line2d_4">
      <g>
       <use xlink:href="#m8cb3d83d0c" x="578.87734" y="390.04" style="stroke: #000000; stroke-width: 0.8"/>
      </g>
     </g>
     <g id="text_4">
      <!-- 200 -->
      <g transform="translate(569.33359 404.638438) scale(0.1 -0.1)">
       <defs>
        <path id="DejaVuSans-32" d="M 1228 531 
L 3431 531 
L 3431 0 
L 469 0 
L 469 531 
Q 828 903 1448 1529 
Q 2069 2156 2228 2338 
Q 2531 2678 2651 2914 
Q 2772 3150 2772 3378 
Q 2772 3750 2511 3984 
Q 2250 4219 1831 4219 
Q 1534 4219 1204 4116 
Q 875 4013 500 3803 
L 500 4441 
Q 881 4594 1212 4672 
Q 1544 4750 1819 4750 
Q 2544 4750 2975 4387 
Q 3406 4025 3406 3419 
Q 3406 3131 3298 2873 
Q 3191 2616 2906 2266 
Q 2828 2175 2409 1742 
Q 1991 1309 1228 531 
z
" transform="scale(0.015625)"/>
       </defs>
       <use xlink:href="#DejaVuSans-32"/>
       <use xlink:href="#DejaVuSans-30" transform="translate(63.623047 0)"/>
       <use xlink:href="#DejaVuSans-30" transform="translate(127.246094 0)"/>
      </g>
     </g>
    </g>
    <g id="xtick_5">
     <g id="line2d_5">
      <g>
       <use xlink:href="#m8cb3d83d0c" x="711.210007" y="390.04" style="stroke: #000000; stroke-width: 0.8"/>
      </g>
     </g>
     <g id="text_5">
      <!-- 250 -->
      <g transform="translate(701.666257 404.638438) scale(0.1 -0.1)">
       <use xlink:href="#DejaVuSans-32"/>
       <use xlink:href="#DejaVuSans-35" transform="translate(63.623047 0)"/>
       <use xlink:href="#DejaVuSans-30" transform="translate(127.246094 0)"/>
      </g>
     </g>
    </g>
    <g id="xtick_6">
     <g id="line2d_6">
      <g>
       <use xlink:href="#m8cb3d83d0c" x="843.542673" y="390.04" style="stroke: #000000; stroke-width: 0.8"/>
      </g>
     </g>
     <g id="text_6">
      <!-- 300 -->
      <g transform="translate(833.998923 404.638438) scale(0.1 -0.1)">
       <defs>
        <path id="DejaVuSans-33" d="M 2597 2516 
Q 3050 2419 3304 2112 
Q 3559 1806 3559 1356 
Q 3559 666 3084 287 
Q 2609 -91 1734 -91 
Q 1441 -91 1130 -33 
Q 819 25 488 141 
L 488 750 
Q 750 597 1062 519 
Q 1375 441 1716 441 
Q 2309 441 2620 675 
Q 2931 909 2931 1356 
Q 2931 1769 2642 2001 
Q 2353 2234 1838 2234 
L 1294 2234 
L 1294 2753 
L 1863 2753 
Q 2328 2753 2575 2939 
Q 2822 3125 2822 3475 
Q 2822 3834 2567 4026 
Q 2313 4219 1838 4219 
Q 1578 4219 1281 4162 
Q 984 4106 628 3988 
L 628 4550 
Q 988 4650 1302 4700 
Q 1616 4750 1894 4750 
Q 2613 4750 3031 4423 
Q 3450 4097 3450 3541 
Q 3450 3153 3228 2886 
Q 3006 2619 2597 2516 
z
" transform="scale(0.015625)"/>
       </defs>
       <use xlink:href="#DejaVuSans-33"/>
       <use xlink:href="#DejaVuSans-30" transform="translate(63.623047 0)"/>
       <use xlink:href="#DejaVuSans-30" transform="translate(127.246094 0)"/>
      </g>
     </g>
    </g>
    <g id="text_7">
     <!-- Step -->
     <g transform="translate(436.482844 418.316562) scale(0.1 -0.1)">
      <defs>
       <path id="DejaVuSans-53" d="M 3425 4513 
L 3425 3897 
Q 3066 4069 2747 4153 
Q 2428 4238 2131 4238 
Q 1616 4238 1336 4038 
Q 1056 3838 1056 3469 
Q 1056 3159 1242 3001 
Q 1428 2844 1947 2747 
L 2328 2669 
Q 3034 2534 3370 2195 
Q 3706 1856 3706 1288 
Q 3706 609 3251 259 
Q 2797 -91 1919 -91 
Q 1588 -91 1214 -16 
Q 841 59 441 206 
L 441 856 
Q 825 641 1194 531 
Q 1563 422 1919 422 
Q 2459 422 2753 634 
Q 3047 847 3047 1241 
Q 3047 1584 2836 1778 
Q 2625 1972 2144 2069 
L 1759 2144 
Q 1053 2284 737 2584 
Q 422 2884 422 3419 
Q 422 4038 858 4394 
Q 1294 4750 2059 4750 
Q 2388 4750 2728 4690 
Q 3069 4631 3425 4513 
z
" transform="scale(0.015625)"/>
       <path id="DejaVuSans-74" d="M 1172 4494 
L 1172 3500 
L 2356 3500 
L 2356 3053 
L 1172 3053 
L 1172 1153 
Q 1172 725 1289 603 
Q 1406 481 1766 481 
L 2356 481 
L 2356 0 
L 1766 0 
Q 1100 0 847 248 
Q 594 497 594 1153 
L 594 3053 
L 172 3053 
L 172 3500 
L 594 3500 
L 594 4494 
L 1172 4494 
z
" transform="scale(0.015625)"/>
       <path id="DejaVuSans-65" d="M 3597 1894 
L 3597 1613 
L 953 1613 
Q 991 1019 1311 708 
Q 1631 397 2203 397 
Q 2534 397 2845 478 
Q 3156 559 3463 722 
L 3463 178 
Q 3153 47 2828 -22 
Q 2503 -91 2169 -91 
Q 1331 -91 842 396 
Q 353 884 353 1716 
Q 353 2575 817 3079 
Q 1281 3584 2069 3584 
Q 2775 3584 3186 3129 
Q 3597 2675 3597 1894 
z
M 3022 2063 
Q 3016 2534 2758 2815 
Q 2500 3097 2075 3097 
Q 1594 3097 1305 2825 
Q 1016 2553 972 2059 
L 3022 2063 
z
" transform="scale(0.015625)"/>
       <path id="DejaVuSans-70" d="M 1159 525 
L 1159 -1331 
L 581 -1331 
L 581 3500 
L 1159 3500 
L 1159 2969 
Q 1341 3281 1617 3432 
Q 1894 3584 2278 3584 
Q 2916 3584 3314 3078 
Q 3713 2572 3713 1747 
Q 3713 922 3314 415 
Q 2916 -91 2278 -91 
Q 1894 -91 1617 61 
Q 1341 213 1159 525 
z
M 3116 1747 
Q 3116 2381 2855 2742 
Q 2594 3103 2138 3103 
Q 1681 3103 1420 2742 
Q 1159 2381 1159 1747 
Q 1159 1113 1420 752 
Q 1681 391 2138 391 
Q 2594 391 2855 752 
Q 3116 1113 3116 1747 
z
" transform="scale(0.015625)"/>
      </defs>
      <use xlink:href="#DejaVuSans-53"/>
      <use xlink:href="#DejaVuSans-74" transform="translate(63.476562 0)"/>
      <use xlink:href="#DejaVuSans-65" transform="translate(102.685547 0)"/>
      <use xlink:href="#DejaVuSans-70" transform="translate(164.208984 0)"/>
     </g>
    </g>
   </g>
   <g id="matplotlib.axis_2">
    <g id="ytick_1">
     <g id="line2d_7">
      <defs>
       <path id="m908c937e01" d="M 0 0 
L -3.5 0 
" style="stroke: #000000; stroke-width: 0.8"/>
      </defs>
      <g>
       <use xlink:href="#m908c937e01" x="50.87" y="353.368996" style="stroke: #000000; stroke-width: 0.8"/>
      </g>
     </g>
     <g id="text_8">
      <!-- 20 -->
      <g transform="translate(31.145 357.168215) scale(0.1 -0.1)">
       <use xlink:href="#DejaVuSans-32"/>
       <use xlink:href="#DejaVuSans-30" transform="translate(63.623047 0)"/>
      </g>
     </g>
    </g>
    <g id="ytick_2">
     <g id="line2d_8">
      <g>
       <use xlink:href="#m908c937e01" x="50.87" y="298.339596" style="stroke: #000000; stroke-width: 0.8"/>
      </g>
     </g>
     <g id="text_9">
      <!-- 40 -->
      <g transform="translate(31.145 302.138814) scale(0.1 -0.1)">
       <defs>
        <path id="DejaVuSans-34" d="M 2419 4116 
L 825 1625 
L 2419 1625 
L 2419 4116 
z
M 2253 4666 
L 3047 4666 
L 3047 1625 
L 3713 1625 
L 3713 1100 
L 3047 1100 
L 3047 0 
L 2419 0 
L 2419 1100 
L 313 1100 
L 313 1709 
L 2253 4666 
z
" transform="scale(0.015625)"/>
       </defs>
       <use xlink:href="#DejaVuSans-34"/>
       <use xlink:href="#DejaVuSans-30" transform="translate(63.623047 0)"/>
      </g>
     </g>
    </g>
    <g id="ytick_3">
     <g id="line2d_9">
      <g>
       <use xlink:href="#m908c937e01" x="50.87" y="243.310195" style="stroke: #000000; stroke-width: 0.8"/>
      </g>
     </g>
     <g id="text_10">
      <!-- 60 -->
      <g transform="translate(31.145 247.109413) scale(0.1 -0.1)">
       <defs>
        <path id="DejaVuSans-36" d="M 2113 2584 
Q 1688 2584 1439 2293 
Q 1191 2003 1191 1497 
Q 1191 994 1439 701 
Q 1688 409 2113 409 
Q 2538 409 2786 701 
Q 3034 994 3034 1497 
Q 3034 2003 2786 2293 
Q 2538 2584 2113 2584 
z
M 3366 4563 
L 3366 3988 
Q 3128 4100 2886 4159 
Q 2644 4219 2406 4219 
Q 1781 4219 1451 3797 
Q 1122 3375 1075 2522 
Q 1259 2794 1537 2939 
Q 1816 3084 2150 3084 
Q 2853 3084 3261 2657 
Q 3669 2231 3669 1497 
Q 3669 778 3244 343 
Q 2819 -91 2113 -91 
Q 1303 -91 875 529 
Q 447 1150 447 2328 
Q 447 3434 972 4092 
Q 1497 4750 2381 4750 
Q 2619 4750 2861 4703 
Q 3103 4656 3366 4563 
z
" transform="scale(0.015625)"/>
       </defs>
       <use xlink:href="#DejaVuSans-36"/>
       <use xlink:href="#DejaVuSans-30" transform="translate(63.623047 0)"/>
      </g>
     </g>
    </g>
    <g id="ytick_4">
     <g id="line2d_10">
      <g>
       <use xlink:href="#m908c937e01" x="50.87" y="188.280794" style="stroke: #000000; stroke-width: 0.8"/>
      </g>
     </g>
     <g id="text_11">
      <!-- 80 -->
      <g transform="translate(31.145 192.080012) scale(0.1 -0.1)">
       <defs>
        <path id="DejaVuSans-38" d="M 2034 2216 
Q 1584 2216 1326 1975 
Q 1069 1734 1069 1313 
Q 1069 891 1326 650 
Q 1584 409 2034 409 
Q 2484 409 2743 651 
Q 3003 894 3003 1313 
Q 3003 1734 2745 1975 
Q 2488 2216 2034 2216 
z
M 1403 2484 
Q 997 2584 770 2862 
Q 544 3141 544 3541 
Q 544 4100 942 4425 
Q 1341 4750 2034 4750 
Q 2731 4750 3128 4425 
Q 3525 4100 3525 3541 
Q 3525 3141 3298 2862 
Q 3072 2584 2669 2484 
Q 3125 2378 3379 2068 
Q 3634 1759 3634 1313 
Q 3634 634 3220 271 
Q 2806 -91 2034 -91 
Q 1263 -91 848 271 
Q 434 634 434 1313 
Q 434 1759 690 2068 
Q 947 2378 1403 2484 
z
M 1172 3481 
Q 1172 3119 1398 2916 
Q 1625 2713 2034 2713 
Q 2441 2713 2670 2916 
Q 2900 3119 2900 3481 
Q 2900 3844 2670 4047 
Q 2441 4250 2034 4250 
Q 1625 4250 1398 4047 
Q 1172 3844 1172 3481 
z
" transform="scale(0.015625)"/>
       </defs>
       <use xlink:href="#DejaVuSans-38"/>
       <use xlink:href="#DejaVuSans-30" transform="translate(63.623047 0)"/>
      </g>
     </g>
    </g>
    <g id="ytick_5">
     <g id="line2d_11">
      <g>
       <use xlink:href="#m908c937e01" x="50.87" y="133.251393" style="stroke: #000000; stroke-width: 0.8"/>
      </g>
     </g>
     <g id="text_12">
      <!-- 100 -->
      <g transform="translate(24.7825 137.050612) scale(0.1 -0.1)">
       <use xlink:href="#DejaVuSans-31"/>
       <use xlink:href="#DejaVuSans-30" transform="translate(63.623047 0)"/>
       <use xlink:href="#DejaVuSans-30" transform="translate(127.246094 0)"/>
      </g>
     </g>
    </g>
    <g id="ytick_6">
     <g id="line2d_12">
      <g>
       <use xlink:href="#m908c937e01" x="50.87" y="78.221992" style="stroke: #000000; stroke-width: 0.8"/>
      </g>
     </g>
     <g id="text_13">
      <!-- 120 -->
      <g transform="translate(24.7825 82.021211) scale(0.1 -0.1)">
       <use xlink:href="#DejaVuSans-31"/>
       <use xlink:href="#DejaVuSans-32" transform="translate(63.623047 0)"/>
       <use xlink:href="#DejaVuSans-30" transform="translate(127.246094 0)"/>
      </g>
     </g>
    </g>
    <g id="text_14">
     <!-- Profit -->
     <g transform="translate(18.702813 229.779063) rotate(-90) scale(0.1 -0.1)">
      <defs>
       <path id="DejaVuSans-50" d="M 1259 4147 
L 1259 2394 
L 2053 2394 
Q 2494 2394 2734 2622 
Q 2975 2850 2975 3272 
Q 2975 3691 2734 3919 
Q 2494 4147 2053 4147 
L 1259 4147 
z
M 628 4666 
L 2053 4666 
Q 2838 4666 3239 4311 
Q 3641 3956 3641 3272 
Q 3641 2581 3239 2228 
Q 2838 1875 2053 1875 
L 1259 1875 
L 1259 0 
L 628 0 
L 628 4666 
z
" transform="scale(0.015625)"/>
       <path id="DejaVuSans-72" d="M 2631 2963 
Q 2534 3019 2420 3045 
Q 2306 3072 2169 3072 
Q 1681 3072 1420 2755 
Q 1159 2438 1159 1844 
L 1159 0 
L 581 0 
L 581 3500 
L 1159 3500 
L 1159 2956 
Q 1341 3275 1631 3429 
Q 1922 3584 2338 3584 
Q 2397 3584 2469 3576 
Q 2541 3569 2628 3553 
L 2631 2963 
z
" transform="scale(0.015625)"/>
       <path id="DejaVuSans-6f" d="M 1959 3097 
Q 1497 3097 1228 2736 
Q 959 2375 959 1747 
Q 959 1119 1226 758 
Q 1494 397 1959 397 
Q 2419 397 2687 759 
Q 2956 1122 2956 1747 
Q 2956 2369 2687 2733 
Q 2419 3097 1959 3097 
z
M 1959 3584 
Q 2709 3584 3137 3096 
Q 3566 2609 3566 1747 
Q 3566 888 3137 398 
Q 2709 -91 1959 -91 
Q 1206 -91 779 398 
Q 353 888 353 1747 
Q 353 2609 779 3096 
Q 1206 3584 1959 3584 
z
" transform="scale(0.015625)"/>
       <path id="DejaVuSans-66" d="M 2375 4863 
L 2375 4384 
L 1825 4384 
Q 1516 4384 1395 4259 
Q 1275 4134 1275 3809 
L 1275 3500 
L 2222 3500 
L 2222 3053 
L 1275 3053 
L 1275 0 
L 697 0 
L 697 3053 
L 147 3053 
L 147 3500 
L 697 3500 
L 697 3744 
Q 697 4328 969 4595 
Q 1241 4863 1831 4863 
L 2375 4863 
z
" transform="scale(0.015625)"/>
       <path id="DejaVuSans-69" d="M 603 3500 
L 1178 3500 
L 1178 0 
L 603 0 
L 603 3500 
z
M 603 4863 
L 1178 4863 
L 1178 4134 
L 603 4134 
L 603 4863 
z
" transform="scale(0.015625)"/>
      </defs>
      <use xlink:href="#DejaVuSans-50"/>
      <use xlink:href="#DejaVuSans-72" transform="translate(58.552734 0)"/>
      <use xlink:href="#DejaVuSans-6f" transform="translate(97.416016 0)"/>
      <use xlink:href="#DejaVuSans-66" transform="translate(158.597656 0)"/>
      <use xlink:href="#DejaVuSans-69" transform="translate(193.802734 0)"/>
      <use xlink:href="#DejaVuSans-74" transform="translate(221.585938 0)"/>
     </g>
    </g>
   </g>
   <g id="line2d_13">
    <path d="M 52.193327 250.332445 
L 54.83998 250.558267 
L 57.486633 245.908549 
L 60.133287 240.774575 
L 65.426593 231.47601 
L 68.073247 227.769591 
L 73.366553 220.939323 
L 76.013207 217.786674 
L 81.306513 213.115859 
L 83.953167 210.874223 
L 86.59982 208.847083 
L 89.246473 207.142676 
L 91.893127 204.716709 
L 97.186433 201.850622 
L 99.833087 200.080509 
L 102.47974 198.493468 
L 107.773047 195.808816 
L 110.4197 194.329947 
L 115.713007 191.779224 
L 126.29962 188.060734 
L 134.23958 185.434398 
L 136.886233 184.768404 
L 139.532887 183.770127 
L 144.826193 182.509113 
L 150.1195 181.142153 
L 152.766153 180.650225 
L 158.05946 179.315131 
L 163.352767 178.012175 
L 165.99942 177.59372 
L 168.646073 176.931945 
L 171.292727 176.14382 
L 176.586033 175.423583 
L 179.232687 174.896514 
L 181.87934 174.154298 
L 187.172647 173.17145 
L 189.8193 172.911296 
L 195.112607 171.85126 
L 200.405913 170.940499 
L 205.69922 169.827879 
L 210.992527 169.14358 
L 218.932487 168.258009 
L 221.57914 167.695527 
L 226.872447 167.165604 
L 255.985633 163.937404 
L 266.572247 162.515949 
L 271.865553 162.098228 
L 274.512207 161.660879 
L 293.03878 160.366573 
L 303.625393 159.117105 
L 311.565353 159.022724 
L 322.151967 158.127812 
L 324.79862 157.937813 
L 332.73858 157.051109 
L 348.6185 155.937544 
L 351.265153 155.864428 
L 353.911807 155.608871 
L 359.205113 155.323547 
L 364.49842 154.978732 
L 367.145073 155.02164 
L 390.964953 153.212524 
L 393.611607 153.080925 
L 396.25826 153.093289 
L 409.491527 152.427694 
L 417.431487 152.20923 
L 420.07814 151.892355 
L 425.371447 151.696226 
L 433.311407 151.209672 
L 443.89802 150.701979 
L 457.131287 150.07671 
L 465.071247 149.468319 
L 470.364553 149.150163 
L 475.65786 148.937388 
L 480.951167 148.711429 
L 483.59782 148.701689 
L 491.53778 148.357734 
L 496.831087 148.076168 
L 504.771047 147.752596 
L 507.4177 147.838853 
L 515.35766 147.53854 
L 518.004313 147.375474 
L 520.650967 147.337982 
L 523.29762 147.124934 
L 531.23758 146.998037 
L 536.530887 146.642705 
L 539.17754 146.675368 
L 541.824193 146.383432 
L 547.1175 146.409126 
L 555.05746 145.924105 
L 560.350767 145.882981 
L 565.644073 145.48239 
L 573.584033 145.246125 
L 581.523993 144.540729 
L 592.110607 144.117025 
L 597.403913 144.247365 
L 613.283833 143.687234 
L 615.930487 143.768767 
L 621.223793 143.39282 
L 623.870447 143.491588 
L 631.810407 143.397649 
L 634.45706 143.238424 
L 645.043673 142.990424 
L 647.690327 142.729744 
L 650.33698 142.733586 
L 655.630287 142.389883 
L 660.923593 142.052646 
L 668.863553 141.859162 
L 671.510207 141.874318 
L 674.15686 141.749815 
L 684.743473 141.666791 
L 692.683433 141.430442 
L 708.563353 141.098893 
L 711.210007 140.905178 
L 713.85666 140.966307 
L 719.149967 140.792577 
L 724.443273 140.911728 
L 732.383233 140.627076 
L 740.323193 140.599681 
L 750.909807 140.27993 
L 766.789727 139.882341 
L 787.962953 139.346477 
L 793.25626 139.218152 
L 795.902913 139.054267 
L 806.489527 138.795288 
L 809.13618 138.631508 
L 819.722793 138.447324 
L 830.309407 137.987703 
L 840.89602 137.840549 
L 843.542673 137.732776 
L 843.542673 137.732776 
" clip-path="url(#pf811b06245)" style="fill: none; stroke: #0000ff; stroke-width: 1.5; stroke-linecap: square"/>
   </g>
   <g id="patch_3">
    <path d="M 50.87 390.04 
L 50.87 43.44 
" style="fill: none; stroke: #000000; stroke-width: 0.8; stroke-linejoin: miter; stroke-linecap: square"/>
   </g>
   <g id="patch_4">
    <path d="M 844.866 390.04 
L 844.866 43.44 
" style="fill: none; stroke: #000000; stroke-width: 0.8; stroke-linejoin: miter; stroke-linecap: square"/>
   </g>
   <g id="patch_5">
    <path d="M 50.87 390.04 
L 844.866 390.04 
" style="fill: none; stroke: #000000; stroke-width: 0.8; stroke-linejoin: miter; stroke-linecap: square"/>
   </g>
   <g id="patch_6">
    <path d="M 50.87 43.44 
L 844.866 43.44 
" style="fill: none; stroke: #000000; stroke-width: 0.8; stroke-linejoin: miter; stroke-linecap: square"/>
   </g>
   <g id="text_15">
    <!-- Mean profit per step with confidence interval per simulation step -->
    <g transform="translate(220.284875 21.763062) scale(0.14 -0.14)">
     <defs>
      <path id="DejaVuSans-4d" d="M 628 4666 
L 1569 4666 
L 2759 1491 
L 3956 4666 
L 4897 4666 
L 4897 0 
L 4281 0 
L 4281 4097 
L 3078 897 
L 2444 897 
L 1241 4097 
L 1241 0 
L 628 0 
L 628 4666 
z
" transform="scale(0.015625)"/>
      <path id="DejaVuSans-61" d="M 2194 1759 
Q 1497 1759 1228 1600 
Q 959 1441 959 1056 
Q 959 750 1161 570 
Q 1363 391 1709 391 
Q 2188 391 2477 730 
Q 2766 1069 2766 1631 
L 2766 1759 
L 2194 1759 
z
M 3341 1997 
L 3341 0 
L 2766 0 
L 2766 531 
Q 2569 213 2275 61 
Q 1981 -91 1556 -91 
Q 1019 -91 701 211 
Q 384 513 384 1019 
Q 384 1609 779 1909 
Q 1175 2209 1959 2209 
L 2766 2209 
L 2766 2266 
Q 2766 2663 2505 2880 
Q 2244 3097 1772 3097 
Q 1472 3097 1187 3025 
Q 903 2953 641 2809 
L 641 3341 
Q 956 3463 1253 3523 
Q 1550 3584 1831 3584 
Q 2591 3584 2966 3190 
Q 3341 2797 3341 1997 
z
" transform="scale(0.015625)"/>
      <path id="DejaVuSans-6e" d="M 3513 2113 
L 3513 0 
L 2938 0 
L 2938 2094 
Q 2938 2591 2744 2837 
Q 2550 3084 2163 3084 
Q 1697 3084 1428 2787 
Q 1159 2491 1159 1978 
L 1159 0 
L 581 0 
L 581 3500 
L 1159 3500 
L 1159 2956 
Q 1366 3272 1645 3428 
Q 1925 3584 2291 3584 
Q 2894 3584 3203 3211 
Q 3513 2838 3513 2113 
z
" transform="scale(0.015625)"/>
      <path id="DejaVuSans-20" transform="scale(0.015625)"/>
      <path id="DejaVuSans-73" d="M 2834 3397 
L 2834 2853 
Q 2591 2978 2328 3040 
Q 2066 3103 1784 3103 
Q 1356 3103 1142 2972 
Q 928 2841 928 2578 
Q 928 2378 1081 2264 
Q 1234 2150 1697 2047 
L 1894 2003 
Q 2506 1872 2764 1633 
Q 3022 1394 3022 966 
Q 3022 478 2636 193 
Q 2250 -91 1575 -91 
Q 1294 -91 989 -36 
Q 684 19 347 128 
L 347 722 
Q 666 556 975 473 
Q 1284 391 1588 391 
Q 1994 391 2212 530 
Q 2431 669 2431 922 
Q 2431 1156 2273 1281 
Q 2116 1406 1581 1522 
L 1381 1569 
Q 847 1681 609 1914 
Q 372 2147 372 2553 
Q 372 3047 722 3315 
Q 1072 3584 1716 3584 
Q 2034 3584 2315 3537 
Q 2597 3491 2834 3397 
z
" transform="scale(0.015625)"/>
      <path id="DejaVuSans-77" d="M 269 3500 
L 844 3500 
L 1563 769 
L 2278 3500 
L 2956 3500 
L 3675 769 
L 4391 3500 
L 4966 3500 
L 4050 0 
L 3372 0 
L 2619 2869 
L 1863 0 
L 1184 0 
L 269 3500 
z
" transform="scale(0.015625)"/>
      <path id="DejaVuSans-68" d="M 3513 2113 
L 3513 0 
L 2938 0 
L 2938 2094 
Q 2938 2591 2744 2837 
Q 2550 3084 2163 3084 
Q 1697 3084 1428 2787 
Q 1159 2491 1159 1978 
L 1159 0 
L 581 0 
L 581 4863 
L 1159 4863 
L 1159 2956 
Q 1366 3272 1645 3428 
Q 1925 3584 2291 3584 
Q 2894 3584 3203 3211 
Q 3513 2838 3513 2113 
z
" transform="scale(0.015625)"/>
      <path id="DejaVuSans-63" d="M 3122 3366 
L 3122 2828 
Q 2878 2963 2633 3030 
Q 2388 3097 2138 3097 
Q 1578 3097 1268 2742 
Q 959 2388 959 1747 
Q 959 1106 1268 751 
Q 1578 397 2138 397 
Q 2388 397 2633 464 
Q 2878 531 3122 666 
L 3122 134 
Q 2881 22 2623 -34 
Q 2366 -91 2075 -91 
Q 1284 -91 818 406 
Q 353 903 353 1747 
Q 353 2603 823 3093 
Q 1294 3584 2113 3584 
Q 2378 3584 2631 3529 
Q 2884 3475 3122 3366 
z
" transform="scale(0.015625)"/>
      <path id="DejaVuSans-64" d="M 2906 2969 
L 2906 4863 
L 3481 4863 
L 3481 0 
L 2906 0 
L 2906 525 
Q 2725 213 2448 61 
Q 2172 -91 1784 -91 
Q 1150 -91 751 415 
Q 353 922 353 1747 
Q 353 2572 751 3078 
Q 1150 3584 1784 3584 
Q 2172 3584 2448 3432 
Q 2725 3281 2906 2969 
z
M 947 1747 
Q 947 1113 1208 752 
Q 1469 391 1925 391 
Q 2381 391 2643 752 
Q 2906 1113 2906 1747 
Q 2906 2381 2643 2742 
Q 2381 3103 1925 3103 
Q 1469 3103 1208 2742 
Q 947 2381 947 1747 
z
" transform="scale(0.015625)"/>
      <path id="DejaVuSans-76" d="M 191 3500 
L 800 3500 
L 1894 563 
L 2988 3500 
L 3597 3500 
L 2284 0 
L 1503 0 
L 191 3500 
z
" transform="scale(0.015625)"/>
      <path id="DejaVuSans-6c" d="M 603 4863 
L 1178 4863 
L 1178 0 
L 603 0 
L 603 4863 
z
" transform="scale(0.015625)"/>
      <path id="DejaVuSans-6d" d="M 3328 2828 
Q 3544 3216 3844 3400 
Q 4144 3584 4550 3584 
Q 5097 3584 5394 3201 
Q 5691 2819 5691 2113 
L 5691 0 
L 5113 0 
L 5113 2094 
Q 5113 2597 4934 2840 
Q 4756 3084 4391 3084 
Q 3944 3084 3684 2787 
Q 3425 2491 3425 1978 
L 3425 0 
L 2847 0 
L 2847 2094 
Q 2847 2600 2669 2842 
Q 2491 3084 2119 3084 
Q 1678 3084 1418 2786 
Q 1159 2488 1159 1978 
L 1159 0 
L 581 0 
L 581 3500 
L 1159 3500 
L 1159 2956 
Q 1356 3278 1631 3431 
Q 1906 3584 2284 3584 
Q 2666 3584 2933 3390 
Q 3200 3197 3328 2828 
z
" transform="scale(0.015625)"/>
      <path id="DejaVuSans-75" d="M 544 1381 
L 544 3500 
L 1119 3500 
L 1119 1403 
Q 1119 906 1312 657 
Q 1506 409 1894 409 
Q 2359 409 2629 706 
Q 2900 1003 2900 1516 
L 2900 3500 
L 3475 3500 
L 3475 0 
L 2900 0 
L 2900 538 
Q 2691 219 2414 64 
Q 2138 -91 1772 -91 
Q 1169 -91 856 284 
Q 544 659 544 1381 
z
M 1991 3584 
L 1991 3584 
z
" transform="scale(0.015625)"/>
     </defs>
     <use xlink:href="#DejaVuSans-4d"/>
     <use xlink:href="#DejaVuSans-65" transform="translate(86.279297 0)"/>
     <use xlink:href="#DejaVuSans-61" transform="translate(147.802734 0)"/>
     <use xlink:href="#DejaVuSans-6e" transform="translate(209.082031 0)"/>
     <use xlink:href="#DejaVuSans-20" transform="translate(272.460938 0)"/>
     <use xlink:href="#DejaVuSans-70" transform="translate(304.248047 0)"/>
     <use xlink:href="#DejaVuSans-72" transform="translate(367.724609 0)"/>
     <use xlink:href="#DejaVuSans-6f" transform="translate(406.587891 0)"/>
     <use xlink:href="#DejaVuSans-66" transform="translate(467.769531 0)"/>
     <use xlink:href="#DejaVuSans-69" transform="translate(502.974609 0)"/>
     <use xlink:href="#DejaVuSans-74" transform="translate(530.757812 0)"/>
     <use xlink:href="#DejaVuSans-20" transform="translate(569.966797 0)"/>
     <use xlink:href="#DejaVuSans-70" transform="translate(601.753906 0)"/>
     <use xlink:href="#DejaVuSans-65" transform="translate(665.230469 0)"/>
     <use xlink:href="#DejaVuSans-72" transform="translate(726.753906 0)"/>
     <use xlink:href="#DejaVuSans-20" transform="translate(767.867188 0)"/>
     <use xlink:href="#DejaVuSans-73" transform="translate(799.654297 0)"/>
     <use xlink:href="#DejaVuSans-74" transform="translate(851.753906 0)"/>
     <use xlink:href="#DejaVuSans-65" transform="translate(890.962891 0)"/>
     <use xlink:href="#DejaVuSans-70" transform="translate(952.486328 0)"/>
     <use xlink:href="#DejaVuSans-20" transform="translate(1015.962891 0)"/>
     <use xlink:href="#DejaVuSans-77" transform="translate(1047.75 0)"/>
     <use xlink:href="#DejaVuSans-69" transform="translate(1129.537109 0)"/>
     <use xlink:href="#DejaVuSans-74" transform="translate(1157.320312 0)"/>
     <use xlink:href="#DejaVuSans-68" transform="translate(1196.529297 0)"/>
     <use xlink:href="#DejaVuSans-20" transform="translate(1259.908203 0)"/>
     <use xlink:href="#DejaVuSans-63" transform="translate(1291.695312 0)"/>
     <use xlink:href="#DejaVuSans-6f" transform="translate(1346.675781 0)"/>
     <use xlink:href="#DejaVuSans-6e" transform="translate(1407.857422 0)"/>
     <use xlink:href="#DejaVuSans-66" transform="translate(1471.236328 0)"/>
     <use xlink:href="#DejaVuSans-69" transform="translate(1506.441406 0)"/>
     <use xlink:href="#DejaVuSans-64" transform="translate(1534.224609 0)"/>
     <use xlink:href="#DejaVuSans-65" transform="translate(1597.701172 0)"/>
     <use xlink:href="#DejaVuSans-6e" transform="translate(1659.224609 0)"/>
     <use xlink:href="#DejaVuSans-63" transform="translate(1722.603516 0)"/>
     <use xlink:href="#DejaVuSans-65" transform="translate(1777.583984 0)"/>
     <use xlink:href="#DejaVuSans-20" transform="translate(1839.107422 0)"/>
     <use xlink:href="#DejaVuSans-69" transform="translate(1870.894531 0)"/>
     <use xlink:href="#DejaVuSans-6e" transform="translate(1898.677734 0)"/>
     <use xlink:href="#DejaVuSans-74" transform="translate(1962.056641 0)"/>
     <use xlink:href="#DejaVuSans-65" transform="translate(2001.265625 0)"/>
     <use xlink:href="#DejaVuSans-72" transform="translate(2062.789062 0)"/>
     <use xlink:href="#DejaVuSans-76" transform="translate(2103.902344 0)"/>
     <use xlink:href="#DejaVuSans-61" transform="translate(2163.082031 0)"/>
     <use xlink:href="#DejaVuSans-6c" transform="translate(2224.361328 0)"/>
     <use xlink:href="#DejaVuSans-20" transform="translate(2252.144531 0)"/>
     <use xlink:href="#DejaVuSans-70" transform="translate(2283.931641 0)"/>
     <use xlink:href="#DejaVuSans-65" transform="translate(2347.408203 0)"/>
     <use xlink:href="#DejaVuSans-72" transform="translate(2408.931641 0)"/>
     <use xlink:href="#DejaVuSans-20" transform="translate(2450.044922 0)"/>
     <use xlink:href="#DejaVuSans-73" transform="translate(2481.832031 0)"/>
     <use xlink:href="#DejaVuSans-69" transform="translate(2533.931641 0)"/>
     <use xlink:href="#DejaVuSans-6d" transform="translate(2561.714844 0)"/>
     <use xlink:href="#DejaVuSans-75" transform="translate(2659.126953 0)"/>
     <use xlink:href="#DejaVuSans-6c" transform="translate(2722.505859 0)"/>
     <use xlink:href="#DejaVuSans-61" transform="translate(2750.289062 0)"/>
     <use xlink:href="#DejaVuSans-74" transform="translate(2811.568359 0)"/>
     <use xlink:href="#DejaVuSans-69" transform="translate(2850.777344 0)"/>
     <use xlink:href="#DejaVuSans-6f" transform="translate(2878.560547 0)"/>
     <use xlink:href="#DejaVuSans-6e" transform="translate(2939.742188 0)"/>
     <use xlink:href="#DejaVuSans-20" transform="translate(3003.121094 0)"/>
     <use xlink:href="#DejaVuSans-73" transform="translate(3034.908203 0)"/>
     <use xlink:href="#DejaVuSans-74" transform="translate(3087.007812 0)"/>
     <use xlink:href="#DejaVuSans-65" transform="translate(3126.216797 0)"/>
     <use xlink:href="#DejaVuSans-70" transform="translate(3187.740234 0)"/>
    </g>
    <!-- Base Product: Grandaddy Purple, Recipe size: 10, T0: 20.0 -->
    <g transform="translate(243.830031 37.44) scale(0.14 -0.14)">
     <defs>
      <path id="DejaVuSans-42" d="M 1259 2228 
L 1259 519 
L 2272 519 
Q 2781 519 3026 730 
Q 3272 941 3272 1375 
Q 3272 1813 3026 2020 
Q 2781 2228 2272 2228 
L 1259 2228 
z
M 1259 4147 
L 1259 2741 
L 2194 2741 
Q 2656 2741 2882 2914 
Q 3109 3088 3109 3444 
Q 3109 3797 2882 3972 
Q 2656 4147 2194 4147 
L 1259 4147 
z
M 628 4666 
L 2241 4666 
Q 2963 4666 3353 4366 
Q 3744 4066 3744 3513 
Q 3744 3084 3544 2831 
Q 3344 2578 2956 2516 
Q 3422 2416 3680 2098 
Q 3938 1781 3938 1306 
Q 3938 681 3513 340 
Q 3088 0 2303 0 
L 628 0 
L 628 4666 
z
" transform="scale(0.015625)"/>
      <path id="DejaVuSans-3a" d="M 750 794 
L 1409 794 
L 1409 0 
L 750 0 
L 750 794 
z
M 750 3309 
L 1409 3309 
L 1409 2516 
L 750 2516 
L 750 3309 
z
" transform="scale(0.015625)"/>
      <path id="DejaVuSans-47" d="M 3809 666 
L 3809 1919 
L 2778 1919 
L 2778 2438 
L 4434 2438 
L 4434 434 
Q 4069 175 3628 42 
Q 3188 -91 2688 -91 
Q 1594 -91 976 548 
Q 359 1188 359 2328 
Q 359 3472 976 4111 
Q 1594 4750 2688 4750 
Q 3144 4750 3555 4637 
Q 3966 4525 4313 4306 
L 4313 3634 
Q 3963 3931 3569 4081 
Q 3175 4231 2741 4231 
Q 1884 4231 1454 3753 
Q 1025 3275 1025 2328 
Q 1025 1384 1454 906 
Q 1884 428 2741 428 
Q 3075 428 3337 486 
Q 3600 544 3809 666 
z
" transform="scale(0.015625)"/>
      <path id="DejaVuSans-79" d="M 2059 -325 
Q 1816 -950 1584 -1140 
Q 1353 -1331 966 -1331 
L 506 -1331 
L 506 -850 
L 844 -850 
Q 1081 -850 1212 -737 
Q 1344 -625 1503 -206 
L 1606 56 
L 191 3500 
L 800 3500 
L 1894 763 
L 2988 3500 
L 3597 3500 
L 2059 -325 
z
" transform="scale(0.015625)"/>
      <path id="DejaVuSans-2c" d="M 750 794 
L 1409 794 
L 1409 256 
L 897 -744 
L 494 -744 
L 750 256 
L 750 794 
z
" transform="scale(0.015625)"/>
      <path id="DejaVuSans-52" d="M 2841 2188 
Q 3044 2119 3236 1894 
Q 3428 1669 3622 1275 
L 4263 0 
L 3584 0 
L 2988 1197 
Q 2756 1666 2539 1819 
Q 2322 1972 1947 1972 
L 1259 1972 
L 1259 0 
L 628 0 
L 628 4666 
L 2053 4666 
Q 2853 4666 3247 4331 
Q 3641 3997 3641 3322 
Q 3641 2881 3436 2590 
Q 3231 2300 2841 2188 
z
M 1259 4147 
L 1259 2491 
L 2053 2491 
Q 2509 2491 2742 2702 
Q 2975 2913 2975 3322 
Q 2975 3731 2742 3939 
Q 2509 4147 2053 4147 
L 1259 4147 
z
" transform="scale(0.015625)"/>
      <path id="DejaVuSans-7a" d="M 353 3500 
L 3084 3500 
L 3084 2975 
L 922 459 
L 3084 459 
L 3084 0 
L 275 0 
L 275 525 
L 2438 3041 
L 353 3041 
L 353 3500 
z
" transform="scale(0.015625)"/>
      <path id="DejaVuSans-54" d="M -19 4666 
L 3928 4666 
L 3928 4134 
L 2272 4134 
L 2272 0 
L 1638 0 
L 1638 4134 
L -19 4134 
L -19 4666 
z
" transform="scale(0.015625)"/>
      <path id="DejaVuSans-2e" d="M 684 794 
L 1344 794 
L 1344 0 
L 684 0 
L 684 794 
z
" transform="scale(0.015625)"/>
     </defs>
     <use xlink:href="#DejaVuSans-42"/>
     <use xlink:href="#DejaVuSans-61" transform="translate(68.603516 0)"/>
     <use xlink:href="#DejaVuSans-73" transform="translate(129.882812 0)"/>
     <use xlink:href="#DejaVuSans-65" transform="translate(181.982422 0)"/>
     <use xlink:href="#DejaVuSans-20" transform="translate(243.505859 0)"/>
     <use xlink:href="#DejaVuSans-50" transform="translate(275.292969 0)"/>
     <use xlink:href="#DejaVuSans-72" transform="translate(333.845703 0)"/>
     <use xlink:href="#DejaVuSans-6f" transform="translate(372.708984 0)"/>
     <use xlink:href="#DejaVuSans-64" transform="translate(433.890625 0)"/>
     <use xlink:href="#DejaVuSans-75" transform="translate(497.367188 0)"/>
     <use xlink:href="#DejaVuSans-63" transform="translate(560.746094 0)"/>
     <use xlink:href="#DejaVuSans-74" transform="translate(615.726562 0)"/>
     <use xlink:href="#DejaVuSans-3a" transform="translate(654.935547 0)"/>
     <use xlink:href="#DejaVuSans-20" transform="translate(688.626953 0)"/>
     <use xlink:href="#DejaVuSans-47" transform="translate(720.414062 0)"/>
     <use xlink:href="#DejaVuSans-72" transform="translate(797.904297 0)"/>
     <use xlink:href="#DejaVuSans-61" transform="translate(839.017578 0)"/>
     <use xlink:href="#DejaVuSans-6e" transform="translate(900.296875 0)"/>
     <use xlink:href="#DejaVuSans-64" transform="translate(963.675781 0)"/>
     <use xlink:href="#DejaVuSans-61" transform="translate(1027.152344 0)"/>
     <use xlink:href="#DejaVuSans-64" transform="translate(1088.431641 0)"/>
     <use xlink:href="#DejaVuSans-64" transform="translate(1151.908203 0)"/>
     <use xlink:href="#DejaVuSans-79" transform="translate(1215.384766 0)"/>
     <use xlink:href="#DejaVuSans-20" transform="translate(1274.564453 0)"/>
     <use xlink:href="#DejaVuSans-50" transform="translate(1306.351562 0)"/>
     <use xlink:href="#DejaVuSans-75" transform="translate(1364.904297 0)"/>
     <use xlink:href="#DejaVuSans-72" transform="translate(1428.283203 0)"/>
     <use xlink:href="#DejaVuSans-70" transform="translate(1469.396484 0)"/>
     <use xlink:href="#DejaVuSans-6c" transform="translate(1532.873047 0)"/>
     <use xlink:href="#DejaVuSans-65" transform="translate(1560.65625 0)"/>
     <use xlink:href="#DejaVuSans-2c" transform="translate(1622.179688 0)"/>
     <use xlink:href="#DejaVuSans-20" transform="translate(1653.966797 0)"/>
     <use xlink:href="#DejaVuSans-52" transform="translate(1685.753906 0)"/>
     <use xlink:href="#DejaVuSans-65" transform="translate(1750.736328 0)"/>
     <use xlink:href="#DejaVuSans-63" transform="translate(1812.259766 0)"/>
     <use xlink:href="#DejaVuSans-69" transform="translate(1867.240234 0)"/>
     <use xlink:href="#DejaVuSans-70" transform="translate(1895.023438 0)"/>
     <use xlink:href="#DejaVuSans-65" transform="translate(1958.5 0)"/>
     <use xlink:href="#DejaVuSans-20" transform="translate(2020.023438 0)"/>
     <use xlink:href="#DejaVuSans-73" transform="translate(2051.810547 0)"/>
     <use xlink:href="#DejaVuSans-69" transform="translate(2103.910156 0)"/>
     <use xlink:href="#DejaVuSans-7a" transform="translate(2131.693359 0)"/>
     <use xlink:href="#DejaVuSans-65" transform="translate(2184.183594 0)"/>
     <use xlink:href="#DejaVuSans-3a" transform="translate(2245.707031 0)"/>
     <use xlink:href="#DejaVuSans-20" transform="translate(2279.398438 0)"/>
     <use xlink:href="#DejaVuSans-31" transform="translate(2311.185547 0)"/>
     <use xlink:href="#DejaVuSans-30" transform="translate(2374.808594 0)"/>
     <use xlink:href="#DejaVuSans-2c" transform="translate(2438.431641 0)"/>
     <use xlink:href="#DejaVuSans-20" transform="translate(2470.21875 0)"/>
     <use xlink:href="#DejaVuSans-54" transform="translate(2502.005859 0)"/>
     <use xlink:href="#DejaVuSans-30" transform="translate(2563.089844 0)"/>
     <use xlink:href="#DejaVuSans-3a" transform="translate(2626.712891 0)"/>
     <use xlink:href="#DejaVuSans-20" transform="translate(2660.404297 0)"/>
     <use xlink:href="#DejaVuSans-32" transform="translate(2692.191406 0)"/>
     <use xlink:href="#DejaVuSans-30" transform="translate(2755.814453 0)"/>
     <use xlink:href="#DejaVuSans-2e" transform="translate(2819.4375 0)"/>
     <use xlink:href="#DejaVuSans-30" transform="translate(2851.224609 0)"/>
    </g>
   </g>
  </g>
 </g>
 <defs>
  <clipPath id="pf811b06245">
   <rect x="50.87" y="43.44" width="793.996" height="346.6"/>
  </clipPath>
 </defs>
</svg>
