<?xml version="1.0" encoding="utf-8" standalone="no"?>
<!DOCTYPE svg PUBLIC "-//W3C//DTD SVG 1.1//EN"
  "http://www.w3.org/Graphics/SVG/1.1/DTD/svg11.dtd">
<svg xmlns:xlink="http://www.w3.org/1999/xlink" width="864pt" height="432pt" viewBox="0 0 864 432" xmlns="http://www.w3.org/2000/svg" version="1.1">
 <metadata>
  <rdf:RDF xmlns:dc="http://purl.org/dc/elements/1.1/" xmlns:cc="http://creativecommons.org/ns#" xmlns:rdf="http://www.w3.org/1999/02/22-rdf-syntax-ns#">
   <cc:Work>
    <dc:type rdf:resource="http://purl.org/dc/dcmitype/StillImage"/>
    <dc:date>2025-05-24T02:15:05.242514</dc:date>
    <dc:format>image/svg+xml</dc:format>
    <dc:creator>
     <cc:Agent>
      <dc:title>Matplotlib v3.10.3, https://matplotlib.org/</dc:title>
     </cc:Agent>
    </dc:creator>
   </cc:Work>
  </rdf:RDF>
 </metadata>
 <defs>
  <style type="text/css">*{stroke-linejoin: round; stroke-linecap: butt}</style>
 </defs>
 <g id="figure_1">
  <g id="patch_1">
   <path d="M 0 432 
L 864 432 
L 864 0 
L 0 0 
z
" style="fill: #ffffff"/>
  </g>
  <g id="axes_1">
   <g id="patch_2">
    <path d="M 50.87 390.04 
L 844.866 390.04 
L 844.866 43.44 
L 50.87 43.44 
z
" style="fill: #ffffff"/>
   </g>
   <g id="FillBetweenPolyCollection_1">
    <defs>
     <path id="mf9f2361b1b" d="M 52.193327 -306.844354 
L 52.193327 -58.221162 
L 54.83998 -57.714545 
L 57.486633 -65.024987 
L 60.133287 -72.912438 
L 62.77994 -79.077771 
L 65.426593 -85.692066 
L 68.073247 -93.119549 
L 70.7199 -98.324654 
L 73.366553 -102.664154 
L 76.013207 -107.339923 
L 78.65986 -111.069785 
L 81.306513 -114.364461 
L 83.953167 -118.582954 
L 86.59982 -122.179617 
L 89.246473 -125.935405 
L 91.893127 -127.353891 
L 94.53978 -129.809582 
L 97.186433 -132.640943 
L 99.833087 -134.877576 
L 102.47974 -135.969689 
L 105.126393 -137.933029 
L 107.773047 -139.871597 
L 110.4197 -141.752671 
L 113.066353 -143.154015 
L 115.713007 -145.308221 
L 118.35966 -146.641855 
L 121.006313 -148.090371 
L 123.652967 -149.964102 
L 126.29962 -151.405651 
L 128.946273 -152.689398 
L 131.592927 -153.728996 
L 134.23958 -154.086254 
L 136.886233 -155.031787 
L 139.532887 -156.202383 
L 142.17954 -157.147841 
L 144.826193 -158.212232 
L 147.472847 -158.7366 
L 150.1195 -159.535948 
L 152.766153 -161.100619 
L 155.412807 -162.337419 
L 158.05946 -162.4529 
L 160.706113 -163.313324 
L 163.352767 -164.196168 
L 165.99942 -164.562275 
L 168.646073 -166.36074 
L 171.292727 -166.930548 
L 173.93938 -167.574243 
L 176.586033 -168.150463 
L 179.232687 -168.661301 
L 181.87934 -168.622326 
L 184.525993 -169.735887 
L 187.172647 -169.674823 
L 189.8193 -170.330798 
L 192.465953 -170.282483 
L 195.112607 -171.603506 
L 197.75926 -172.55263 
L 200.405913 -172.903166 
L 203.052567 -174.033772 
L 205.69922 -174.12446 
L 208.345873 -174.581245 
L 210.992527 -175.634724 
L 213.63918 -175.037388 
L 216.285833 -175.645978 
L 218.932487 -176.328798 
L 221.57914 -176.999082 
L 224.225793 -177.407947 
L 226.872447 -177.201896 
L 229.5191 -177.715149 
L 232.165753 -178.119643 
L 234.812407 -178.622252 
L 237.45906 -178.879664 
L 240.105713 -179.696101 
L 242.752367 -180.001315 
L 245.39902 -180.168242 
L 248.045673 -180.196156 
L 250.692327 -180.834476 
L 253.33898 -181.050274 
L 255.985633 -181.853887 
L 258.632287 -182.114558 
L 261.27894 -182.764356 
L 263.925593 -183.420609 
L 266.572247 -183.792605 
L 269.2189 -184.31959 
L 271.865553 -183.972313 
L 274.512207 -184.869243 
L 277.15886 -185.670151 
L 279.805513 -185.521637 
L 282.452167 -185.460285 
L 285.09882 -185.984107 
L 287.745473 -186.589031 
L 290.392127 -187.230718 
L 293.03878 -187.202933 
L 295.685433 -187.286428 
L 298.332087 -187.594239 
L 300.97874 -188.086033 
L 303.625393 -188.14464 
L 306.272047 -188.681468 
L 308.9187 -189.127811 
L 311.565353 -189.272382 
L 314.212007 -189.928944 
L 316.85866 -190.106676 
L 319.505313 -190.327144 
L 322.151967 -190.293951 
L 324.79862 -190.695474 
L 327.445273 -191.074362 
L 330.091927 -191.717364 
L 332.73858 -191.945013 
L 335.385233 -191.855479 
L 338.031887 -191.95664 
L 340.67854 -192.293145 
L 343.325193 -192.433826 
L 345.971847 -192.326146 
L 348.6185 -192.744426 
L 351.265153 -193.039295 
L 353.911807 -193.236594 
L 356.55846 -193.237342 
L 359.205113 -193.414315 
L 361.851767 -193.33566 
L 364.49842 -193.629717 
L 367.145073 -193.576454 
L 369.791727 -193.484078 
L 372.43838 -193.610695 
L 375.085033 -194.171643 
L 377.731687 -194.736866 
L 380.37834 -195.133003 
L 383.024993 -195.390533 
L 385.671647 -195.404041 
L 388.3183 -195.492164 
L 390.964953 -195.278087 
L 393.611607 -195.34708 
L 396.25826 -195.818367 
L 398.904913 -196.45113 
L 401.551567 -196.586146 
L 404.19822 -196.483746 
L 406.844873 -196.821768 
L 409.491527 -197.273327 
L 412.13818 -197.20382 
L 414.784833 -198.172148 
L 417.431487 -198.361838 
L 420.07814 -198.590235 
L 422.724793 -198.390243 
L 425.371447 -198.401357 
L 428.0181 -198.536288 
L 430.664753 -198.479606 
L 433.311407 -198.865847 
L 435.95806 -198.73611 
L 438.604713 -199.541293 
L 441.251367 -199.727927 
L 443.89802 -199.523361 
L 446.544673 -200.058533 
L 449.191327 -199.244586 
L 451.83798 -199.398561 
L 454.484633 -198.785012 
L 457.131287 -199.31655 
L 459.77794 -199.784503 
L 462.424593 -199.881175 
L 465.071247 -200.091661 
L 467.7179 -200.501819 
L 470.364553 -200.40286 
L 473.011207 -200.827509 
L 475.65786 -200.751868 
L 478.304513 -200.674902 
L 480.951167 -201.216807 
L 483.59782 -201.348425 
L 486.244473 -201.647013 
L 488.891127 -201.532387 
L 491.53778 -201.607985 
L 494.184433 -201.703888 
L 496.831087 -202.0184 
L 499.47774 -202.464935 
L 502.124393 -202.898369 
L 504.771047 -203.086734 
L 507.4177 -202.786393 
L 510.064353 -203.26858 
L 512.711007 -203.296494 
L 515.35766 -203.327143 
L 518.004313 -203.303034 
L 520.650967 -203.789389 
L 523.29762 -203.837821 
L 525.944273 -204.196704 
L 528.590927 -204.079043 
L 531.23758 -203.622868 
L 533.884233 -204.129762 
L 536.530887 -204.708942 
L 539.17754 -205.148873 
L 541.824193 -205.397041 
L 544.470847 -205.692466 
L 547.1175 -205.932705 
L 549.764153 -206.175465 
L 552.410807 -206.510666 
L 555.05746 -206.183288 
L 557.704113 -206.277973 
L 560.350767 -206.193675 
L 562.99742 -206.355388 
L 565.644073 -206.137591 
L 568.290727 -206.247964 
L 570.93738 -206.342478 
L 573.584033 -206.743403 
L 576.230687 -206.695782 
L 578.87734 -206.884682 
L 581.523993 -206.690076 
L 584.170647 -206.753897 
L 586.8173 -206.68377 
L 589.463953 -206.14956 
L 592.110607 -206.105552 
L 594.75726 -206.606356 
L 597.403913 -207.055948 
L 600.050567 -207.393607 
L 602.69722 -207.698842 
L 605.343873 -207.736053 
L 607.990527 -207.696234 
L 610.63718 -207.478887 
L 613.283833 -207.434516 
L 615.930487 -207.717266 
L 618.57714 -207.668107 
L 621.223793 -207.859742 
L 623.870447 -208.146489 
L 626.5171 -208.476454 
L 629.163753 -208.397628 
L 631.810407 -208.19879 
L 634.45706 -208.491522 
L 637.103713 -208.314699 
L 639.750367 -208.556327 
L 642.39702 -208.730628 
L 645.043673 -209.072433 
L 647.690327 -209.04375 
L 650.33698 -209.149848 
L 652.983633 -208.797228 
L 655.630287 -209.11984 
L 658.27694 -209.698849 
L 660.923593 -210.033024 
L 663.570247 -209.709215 
L 666.2169 -209.987562 
L 668.863553 -210.26482 
L 671.510207 -210.300513 
L 674.15686 -210.624429 
L 676.803513 -211.158532 
L 679.450167 -210.927057 
L 682.09682 -211.35192 
L 684.743473 -211.707362 
L 687.390127 -211.704754 
L 690.03678 -211.940696 
L 692.683433 -212.08967 
L 695.330087 -211.931613 
L 697.97674 -211.642685 
L 700.623393 -211.347902 
L 703.270047 -211.468705 
L 705.9167 -211.726384 
L 708.563353 -211.563069 
L 711.210007 -211.366497 
L 713.85666 -211.559991 
L 716.503313 -211.438525 
L 719.149967 -211.310925 
L 721.79662 -211.005113 
L 724.443273 -210.991092 
L 727.089927 -211.142032 
L 729.73658 -211.162123 
L 732.383233 -211.138291 
L 735.029887 -211.674446 
L 737.67654 -211.933814 
L 740.323193 -212.139834 
L 742.969847 -212.52522 
L 745.6165 -212.572135 
L 748.263153 -212.690886 
L 750.909807 -212.598787 
L 753.55646 -212.982955 
L 756.203113 -213.100168 
L 758.849767 -213.140713 
L 761.49642 -213.142359 
L 764.143073 -213.294624 
L 766.789727 -213.526057 
L 769.43638 -213.300886 
L 772.083033 -213.147424 
L 774.729687 -213.377446 
L 777.37634 -213.256344 
L 780.022993 -213.735581 
L 782.669647 -213.917085 
L 785.3163 -213.753129 
L 787.962953 -213.786108 
L 790.609607 -213.778414 
L 793.25626 -213.88028 
L 795.902913 -213.932154 
L 798.549567 -213.785895 
L 801.19622 -214.213878 
L 803.842873 -214.293794 
L 806.489527 -214.668279 
L 809.13618 -214.49977 
L 811.782833 -214.82623 
L 814.429487 -214.638271 
L 817.07614 -214.465851 
L 819.722793 -214.450868 
L 822.369447 -214.488186 
L 825.0161 -214.368409 
L 827.662753 -214.367917 
L 830.309407 -214.030194 
L 832.95606 -214.160594 
L 835.602713 -214.168352 
L 838.249367 -214.379138 
L 840.89602 -214.141016 
L 843.542673 -214.357059 
L 843.542673 -372.610998 
L 843.542673 -372.610998 
L 840.89602 -372.729664 
L 838.249367 -372.564447 
L 835.602713 -372.607707 
L 832.95606 -372.646777 
L 830.309407 -372.805455 
L 827.662753 -372.474336 
L 825.0161 -372.397092 
L 822.369447 -372.390252 
L 819.722793 -372.313607 
L 817.07614 -372.163009 
L 814.429487 -372.139755 
L 811.782833 -371.900841 
L 809.13618 -371.963893 
L 806.489527 -371.888402 
L 803.842873 -372.154417 
L 801.19622 -372.035794 
L 798.549567 -372.058279 
L 795.902913 -371.878869 
L 793.25626 -371.777217 
L 790.609607 -371.863267 
L 787.962953 -371.841337 
L 785.3163 -371.831677 
L 782.669647 -371.656157 
L 780.022993 -371.561472 
L 777.37634 -371.736735 
L 774.729687 -371.656713 
L 772.083033 -371.587035 
L 769.43638 -371.547409 
L 766.789727 -371.380567 
L 764.143073 -371.35291 
L 761.49642 -371.434385 
L 758.849767 -371.251685 
L 756.203113 -371.118143 
L 753.55646 -371.228601 
L 750.909807 -371.281223 
L 748.263153 -371.247923 
L 745.6165 -371.233432 
L 742.969847 -371.261602 
L 740.323193 -371.544032 
L 737.67654 -371.733957 
L 735.029887 -371.795598 
L 732.383233 -372.080037 
L 729.73658 -371.851554 
L 727.089927 -371.683857 
L 724.443273 -371.686208 
L 721.79662 -371.567927 
L 719.149967 -371.202312 
L 716.503313 -370.952669 
L 713.85666 -370.641513 
L 711.210007 -370.650575 
L 708.563353 -370.444406 
L 705.9167 -370.261364 
L 703.270047 -370.206647 
L 700.623393 -370.373917 
L 697.97674 -369.912291 
L 695.330087 -369.575487 
L 692.683433 -369.269568 
L 690.03678 -369.259009 
L 687.390127 -369.34538 
L 684.743473 -369.258518 
L 682.09682 -369.181103 
L 679.450167 -369.371071 
L 676.803513 -369.24548 
L 674.15686 -369.419097 
L 671.510207 -369.454299 
L 668.863553 -369.49555 
L 666.2169 -369.612036 
L 663.570247 -369.753058 
L 660.923593 -369.386267 
L 658.27694 -369.430703 
L 655.630287 -369.64183 
L 652.983633 -369.63435 
L 650.33698 -369.499867 
L 647.690327 -369.47174 
L 645.043673 -369.452375 
L 642.39702 -369.45913 
L 639.750367 -369.587969 
L 637.103713 -369.611566 
L 634.45706 -369.28128 
L 631.810407 -369.212971 
L 629.163753 -369.034908 
L 626.5171 -368.948687 
L 623.870447 -369.003489 
L 621.223793 -369.132799 
L 618.57714 -369.129507 
L 615.930487 -368.984765 
L 613.283833 -368.855007 
L 610.63718 -368.701972 
L 607.990527 -368.557081 
L 605.343873 -368.481611 
L 602.69722 -368.432303 
L 600.050567 -368.562531 
L 597.403913 -368.80401 
L 594.75726 -368.942916 
L 592.110607 -369.25482 
L 589.463953 -369.068592 
L 586.8173 -368.490609 
L 584.170647 -368.411207 
L 581.523993 -368.536114 
L 578.87734 -368.399729 
L 576.230687 -368.383443 
L 573.584033 -368.164065 
L 570.93738 -368.28474 
L 568.290727 -368.035909 
L 565.644073 -367.99795 
L 562.99742 -367.893305 
L 560.350767 -367.970506 
L 557.704113 -367.908651 
L 555.05746 -367.837178 
L 552.410807 -367.345736 
L 549.764153 -367.442537 
L 547.1175 -367.251714 
L 544.470847 -367.068629 
L 541.824193 -367.194262 
L 539.17754 -367.1659 
L 536.530887 -367.331993 
L 533.884233 -367.89416 
L 531.23758 -368.045185 
L 528.590927 -367.635049 
L 525.944273 -367.329257 
L 523.29762 -367.561353 
L 520.650967 -367.301408 
L 518.004313 -367.479214 
L 515.35766 -367.367131 
L 512.711007 -367.17353 
L 510.064353 -367.048324 
L 507.4177 -367.198323 
L 504.771047 -366.670183 
L 502.124393 -366.692091 
L 499.47774 -366.814711 
L 496.831087 -366.930898 
L 494.184433 -366.916941 
L 491.53778 -366.729773 
L 488.891127 -366.723168 
L 486.244473 -366.556989 
L 483.59782 -366.533393 
L 480.951167 -366.377281 
L 478.304513 -366.513473 
L 475.65786 -366.270776 
L 473.011207 -366.130801 
L 470.364553 -366.47748 
L 467.7179 -366.197486 
L 465.071247 -366.379546 
L 462.424593 -366.246346 
L 459.77794 -366.028871 
L 457.131287 -366.02062 
L 454.484633 -366.364499 
L 451.83798 -365.871113 
L 449.191327 -365.866026 
L 446.544673 -364.897548 
L 443.89802 -365.017604 
L 441.251367 -364.573868 
L 438.604713 -364.592548 
L 435.95806 -364.892761 
L 433.311407 -364.489656 
L 430.664753 -364.244737 
L 428.0181 -363.882156 
L 425.371447 -363.675667 
L 422.724793 -363.433376 
L 420.07814 -363.18773 
L 417.431487 -363.323025 
L 414.784833 -363.37088 
L 412.13818 -363.912934 
L 409.491527 -363.592673 
L 406.844873 -363.677248 
L 404.19822 -363.746306 
L 401.551567 -363.309367 
L 398.904913 -363.223082 
L 396.25826 -363.700503 
L 393.611607 -363.810705 
L 390.964953 -363.646 
L 388.3183 -363.368743 
L 385.671647 -363.172042 
L 383.024993 -362.814078 
L 380.37834 -362.622465 
L 377.731687 -362.368804 
L 375.085033 -362.546225 
L 372.43838 -362.556762 
L 369.791727 -362.343326 
L 367.145073 -362.06795 
L 364.49842 -362.039267 
L 361.851767 -361.88884 
L 359.205113 -361.609616 
L 356.55846 -361.370104 
L 353.911807 -361.265395 
L 351.265153 -361.235579 
L 348.6185 -361.239298 
L 345.971847 -361.209461 
L 343.325193 -360.699317 
L 340.67854 -360.549874 
L 338.031887 -360.58779 
L 335.385233 -360.384036 
L 332.73858 -359.944319 
L 330.091927 -359.846193 
L 327.445273 -360.00098 
L 324.79862 -359.883533 
L 322.151967 -359.823943 
L 319.505313 -359.473738 
L 316.85866 -359.370098 
L 314.212007 -359.002388 
L 311.565353 -359.087882 
L 308.9187 -359.023462 
L 306.272047 -359.085552 
L 303.625393 -359.008842 
L 300.97874 -358.675586 
L 298.332087 -358.79889 
L 295.685433 -358.563589 
L 293.03878 -358.211631 
L 290.392127 -357.600989 
L 287.745473 -357.661669 
L 285.09882 -357.781147 
L 282.452167 -357.832743 
L 279.805513 -357.563906 
L 277.15886 -357.269828 
L 274.512207 -357.241145 
L 271.865553 -357.390353 
L 269.2189 -356.631465 
L 266.572247 -356.79292 
L 263.925593 -356.761416 
L 261.27894 -356.689302 
L 258.632287 -356.708281 
L 255.985633 -356.597395 
L 253.33898 -356.889529 
L 250.692327 -356.437115 
L 248.045673 -356.342281 
L 245.39902 -356.108497 
L 242.752367 -355.907629 
L 240.105713 -355.60156 
L 237.45906 -355.628961 
L 234.812407 -355.21269 
L 232.165753 -355.160624 
L 229.5191 -354.866995 
L 226.872447 -354.401565 
L 224.225793 -354.023937 
L 221.57914 -353.584647 
L 218.932487 -353.345712 
L 216.285833 -353.011516 
L 213.63918 -353.036138 
L 210.992527 -352.034254 
L 208.345873 -352.21672 
L 205.69922 -351.76514 
L 203.052567 -351.251192 
L 200.405913 -350.957947 
L 197.75926 -350.631061 
L 195.112607 -350.716191 
L 192.465953 -351.127439 
L 189.8193 -350.185615 
L 187.172647 -349.834597 
L 184.525993 -349.113775 
L 181.87934 -348.971684 
L 179.232687 -348.513713 
L 176.586033 -348.001946 
L 173.93938 -347.833651 
L 171.292727 -347.61688 
L 168.646073 -347.1046 
L 165.99942 -347.486715 
L 163.352767 -346.852157 
L 160.706113 -346.630278 
L 158.05946 -346.22946 
L 155.412807 -345.280925 
L 152.766153 -344.897868 
L 150.1195 -344.975967 
L 147.472847 -344.434469 
L 144.826193 -343.78217 
L 142.17954 -343.429122 
L 139.532887 -342.874116 
L 136.886233 -342.483429 
L 134.23958 -341.929256 
L 131.592927 -341.056383 
L 128.946273 -340.234335 
L 126.29962 -339.679628 
L 123.652967 -339.221572 
L 121.006313 -338.97411 
L 118.35966 -338.603151 
L 115.713007 -338.097496 
L 113.066353 -337.398945 
L 110.4197 -336.632383 
L 107.773047 -336.186553 
L 105.126393 -336.160541 
L 102.47974 -335.514911 
L 99.833087 -333.778846 
L 97.186433 -332.651692 
L 94.53978 -332.147341 
L 91.893127 -331.235204 
L 89.246473 -328.778723 
L 86.59982 -328.60968 
L 83.953167 -328.39789 
L 81.306513 -327.926261 
L 78.65986 -325.579982 
L 76.013207 -323.753379 
L 73.366553 -322.590061 
L 70.7199 -320.895696 
L 68.073247 -319.090701 
L 65.426593 -318.214344 
L 62.77994 -316.021805 
L 60.133287 -313.181925 
L 57.486633 -309.605814 
L 54.83998 -307.904395 
L 52.193327 -306.844354 
z
" style="stroke: #0000ff; stroke-opacity: 0.2"/>
    </defs>
    <g clip-path="url(#p3720d143ea)">
     <use xlink:href="#mf9f2361b1b" x="0" y="432" style="fill: #0000ff; fill-opacity: 0.2; stroke: #0000ff; stroke-opacity: 0.2"/>
    </g>
   </g>
   <g id="matplotlib.axis_1">
    <g id="xtick_1">
     <g id="line2d_1">
      <defs>
       <path id="mbe39571220" d="M 0 0 
L 0 3.5 
" style="stroke: #000000; stroke-width: 0.8"/>
      </defs>
      <g>
       <use xlink:href="#mbe39571220" x="181.87934" y="390.04" style="stroke: #000000; stroke-width: 0.8"/>
      </g>
     </g>
     <g id="text_1">
      <!-- 50 -->
      <g transform="translate(175.51684 404.638438) scale(0.1 -0.1)">
       <defs>
        <path id="DejaVuSans-35" d="M 691 4666 
L 3169 4666 
L 3169 4134 
L 1269 4134 
L 1269 2991 
Q 1406 3038 1543 3061 
Q 1681 3084 1819 3084 
Q 2600 3084 3056 2656 
Q 3513 2228 3513 1497 
Q 3513 744 3044 326 
Q 2575 -91 1722 -91 
Q 1428 -91 1123 -41 
Q 819 9 494 109 
L 494 744 
Q 775 591 1075 516 
Q 1375 441 1709 441 
Q 2250 441 2565 725 
Q 2881 1009 2881 1497 
Q 2881 1984 2565 2268 
Q 2250 2553 1709 2553 
Q 1456 2553 1204 2497 
Q 953 2441 691 2322 
L 691 4666 
z
" transform="scale(0.015625)"/>
        <path id="DejaVuSans-30" d="M 2034 4250 
Q 1547 4250 1301 3770 
Q 1056 3291 1056 2328 
Q 1056 1369 1301 889 
Q 1547 409 2034 409 
Q 2525 409 2770 889 
Q 3016 1369 3016 2328 
Q 3016 3291 2770 3770 
Q 2525 4250 2034 4250 
z
M 2034 4750 
Q 2819 4750 3233 4129 
Q 3647 3509 3647 2328 
Q 3647 1150 3233 529 
Q 2819 -91 2034 -91 
Q 1250 -91 836 529 
Q 422 1150 422 2328 
Q 422 3509 836 4129 
Q 1250 4750 2034 4750 
z
" transform="scale(0.015625)"/>
       </defs>
       <use xlink:href="#DejaVuSans-35"/>
       <use xlink:href="#DejaVuSans-30" transform="translate(63.623047 0)"/>
      </g>
     </g>
    </g>
    <g id="xtick_2">
     <g id="line2d_2">
      <g>
       <use xlink:href="#mbe39571220" x="314.212007" y="390.04" style="stroke: #000000; stroke-width: 0.8"/>
      </g>
     </g>
     <g id="text_2">
      <!-- 100 -->
      <g transform="translate(304.668257 404.638438) scale(0.1 -0.1)">
       <defs>
        <path id="DejaVuSans-31" d="M 794 531 
L 1825 531 
L 1825 4091 
L 703 3866 
L 703 4441 
L 1819 4666 
L 2450 4666 
L 2450 531 
L 3481 531 
L 3481 0 
L 794 0 
L 794 531 
z
" transform="scale(0.015625)"/>
       </defs>
       <use xlink:href="#DejaVuSans-31"/>
       <use xlink:href="#DejaVuSans-30" transform="translate(63.623047 0)"/>
       <use xlink:href="#DejaVuSans-30" transform="translate(127.246094 0)"/>
      </g>
     </g>
    </g>
    <g id="xtick_3">
     <g id="line2d_3">
      <g>
       <use xlink:href="#mbe39571220" x="446.544673" y="390.04" style="stroke: #000000; stroke-width: 0.8"/>
      </g>
     </g>
     <g id="text_3">
      <!-- 150 -->
      <g transform="translate(437.000923 404.638438) scale(0.1 -0.1)">
       <use xlink:href="#DejaVuSans-31"/>
       <use xlink:href="#DejaVuSans-35" transform="translate(63.623047 0)"/>
       <use xlink:href="#DejaVuSans-30" transform="translate(127.246094 0)"/>
      </g>
     </g>
    </g>
    <g id="xtick_4">
     <g id="line2d_4">
      <g>
       <use xlink:href="#mbe39571220" x="578.87734" y="390.04" style="stroke: #000000; stroke-width: 0.8"/>
      </g>
     </g>
     <g id="text_4">
      <!-- 200 -->
      <g transform="translate(569.33359 404.638438) scale(0.1 -0.1)">
       <defs>
        <path id="DejaVuSans-32" d="M 1228 531 
L 3431 531 
L 3431 0 
L 469 0 
L 469 531 
Q 828 903 1448 1529 
Q 2069 2156 2228 2338 
Q 2531 2678 2651 2914 
Q 2772 3150 2772 3378 
Q 2772 3750 2511 3984 
Q 2250 4219 1831 4219 
Q 1534 4219 1204 4116 
Q 875 4013 500 3803 
L 500 4441 
Q 881 4594 1212 4672 
Q 1544 4750 1819 4750 
Q 2544 4750 2975 4387 
Q 3406 4025 3406 3419 
Q 3406 3131 3298 2873 
Q 3191 2616 2906 2266 
Q 2828 2175 2409 1742 
Q 1991 1309 1228 531 
z
" transform="scale(0.015625)"/>
       </defs>
       <use xlink:href="#DejaVuSans-32"/>
       <use xlink:href="#DejaVuSans-30" transform="translate(63.623047 0)"/>
       <use xlink:href="#DejaVuSans-30" transform="translate(127.246094 0)"/>
      </g>
     </g>
    </g>
    <g id="xtick_5">
     <g id="line2d_5">
      <g>
       <use xlink:href="#mbe39571220" x="711.210007" y="390.04" style="stroke: #000000; stroke-width: 0.8"/>
      </g>
     </g>
     <g id="text_5">
      <!-- 250 -->
      <g transform="translate(701.666257 404.638438) scale(0.1 -0.1)">
       <use xlink:href="#DejaVuSans-32"/>
       <use xlink:href="#DejaVuSans-35" transform="translate(63.623047 0)"/>
       <use xlink:href="#DejaVuSans-30" transform="translate(127.246094 0)"/>
      </g>
     </g>
    </g>
    <g id="xtick_6">
     <g id="line2d_6">
      <g>
       <use xlink:href="#mbe39571220" x="843.542673" y="390.04" style="stroke: #000000; stroke-width: 0.8"/>
      </g>
     </g>
     <g id="text_6">
      <!-- 300 -->
      <g transform="translate(833.998923 404.638438) scale(0.1 -0.1)">
       <defs>
        <path id="DejaVuSans-33" d="M 2597 2516 
Q 3050 2419 3304 2112 
Q 3559 1806 3559 1356 
Q 3559 666 3084 287 
Q 2609 -91 1734 -91 
Q 1441 -91 1130 -33 
Q 819 25 488 141 
L 488 750 
Q 750 597 1062 519 
Q 1375 441 1716 441 
Q 2309 441 2620 675 
Q 2931 909 2931 1356 
Q 2931 1769 2642 2001 
Q 2353 2234 1838 2234 
L 1294 2234 
L 1294 2753 
L 1863 2753 
Q 2328 2753 2575 2939 
Q 2822 3125 2822 3475 
Q 2822 3834 2567 4026 
Q 2313 4219 1838 4219 
Q 1578 4219 1281 4162 
Q 984 4106 628 3988 
L 628 4550 
Q 988 4650 1302 4700 
Q 1616 4750 1894 4750 
Q 2613 4750 3031 4423 
Q 3450 4097 3450 3541 
Q 3450 3153 3228 2886 
Q 3006 2619 2597 2516 
z
" transform="scale(0.015625)"/>
       </defs>
       <use xlink:href="#DejaVuSans-33"/>
       <use xlink:href="#DejaVuSans-30" transform="translate(63.623047 0)"/>
       <use xlink:href="#DejaVuSans-30" transform="translate(127.246094 0)"/>
      </g>
     </g>
    </g>
    <g id="text_7">
     <!-- Step -->
     <g transform="translate(436.482844 418.316562) scale(0.1 -0.1)">
      <defs>
       <path id="DejaVuSans-53" d="M 3425 4513 
L 3425 3897 
Q 3066 4069 2747 4153 
Q 2428 4238 2131 4238 
Q 1616 4238 1336 4038 
Q 1056 3838 1056 3469 
Q 1056 3159 1242 3001 
Q 1428 2844 1947 2747 
L 2328 2669 
Q 3034 2534 3370 2195 
Q 3706 1856 3706 1288 
Q 3706 609 3251 259 
Q 2797 -91 1919 -91 
Q 1588 -91 1214 -16 
Q 841 59 441 206 
L 441 856 
Q 825 641 1194 531 
Q 1563 422 1919 422 
Q 2459 422 2753 634 
Q 3047 847 3047 1241 
Q 3047 1584 2836 1778 
Q 2625 1972 2144 2069 
L 1759 2144 
Q 1053 2284 737 2584 
Q 422 2884 422 3419 
Q 422 4038 858 4394 
Q 1294 4750 2059 4750 
Q 2388 4750 2728 4690 
Q 3069 4631 3425 4513 
z
" transform="scale(0.015625)"/>
       <path id="DejaVuSans-74" d="M 1172 4494 
L 1172 3500 
L 2356 3500 
L 2356 3053 
L 1172 3053 
L 1172 1153 
Q 1172 725 1289 603 
Q 1406 481 1766 481 
L 2356 481 
L 2356 0 
L 1766 0 
Q 1100 0 847 248 
Q 594 497 594 1153 
L 594 3053 
L 172 3053 
L 172 3500 
L 594 3500 
L 594 4494 
L 1172 4494 
z
" transform="scale(0.015625)"/>
       <path id="DejaVuSans-65" d="M 3597 1894 
L 3597 1613 
L 953 1613 
Q 991 1019 1311 708 
Q 1631 397 2203 397 
Q 2534 397 2845 478 
Q 3156 559 3463 722 
L 3463 178 
Q 3153 47 2828 -22 
Q 2503 -91 2169 -91 
Q 1331 -91 842 396 
Q 353 884 353 1716 
Q 353 2575 817 3079 
Q 1281 3584 2069 3584 
Q 2775 3584 3186 3129 
Q 3597 2675 3597 1894 
z
M 3022 2063 
Q 3016 2534 2758 2815 
Q 2500 3097 2075 3097 
Q 1594 3097 1305 2825 
Q 1016 2553 972 2059 
L 3022 2063 
z
" transform="scale(0.015625)"/>
       <path id="DejaVuSans-70" d="M 1159 525 
L 1159 -1331 
L 581 -1331 
L 581 3500 
L 1159 3500 
L 1159 2969 
Q 1341 3281 1617 3432 
Q 1894 3584 2278 3584 
Q 2916 3584 3314 3078 
Q 3713 2572 3713 1747 
Q 3713 922 3314 415 
Q 2916 -91 2278 -91 
Q 1894 -91 1617 61 
Q 1341 213 1159 525 
z
M 3116 1747 
Q 3116 2381 2855 2742 
Q 2594 3103 2138 3103 
Q 1681 3103 1420 2742 
Q 1159 2381 1159 1747 
Q 1159 1113 1420 752 
Q 1681 391 2138 391 
Q 2594 391 2855 752 
Q 3116 1113 3116 1747 
z
" transform="scale(0.015625)"/>
      </defs>
      <use xlink:href="#DejaVuSans-53"/>
      <use xlink:href="#DejaVuSans-74" transform="translate(63.476562 0)"/>
      <use xlink:href="#DejaVuSans-65" transform="translate(102.685547 0)"/>
      <use xlink:href="#DejaVuSans-70" transform="translate(164.208984 0)"/>
     </g>
    </g>
   </g>
   <g id="matplotlib.axis_2">
    <g id="ytick_1">
     <g id="line2d_7">
      <defs>
       <path id="m6c7627d4d3" d="M 0 0 
L -3.5 0 
" style="stroke: #000000; stroke-width: 0.8"/>
      </defs>
      <g>
       <use xlink:href="#m6c7627d4d3" x="50.87" y="365.110002" style="stroke: #000000; stroke-width: 0.8"/>
      </g>
     </g>
     <g id="text_8">
      <!-- 20 -->
      <g transform="translate(31.145 368.909221) scale(0.1 -0.1)">
       <use xlink:href="#DejaVuSans-32"/>
       <use xlink:href="#DejaVuSans-30" transform="translate(63.623047 0)"/>
      </g>
     </g>
    </g>
    <g id="ytick_2">
     <g id="line2d_8">
      <g>
       <use xlink:href="#m6c7627d4d3" x="50.87" y="309.080581" style="stroke: #000000; stroke-width: 0.8"/>
      </g>
     </g>
     <g id="text_9">
      <!-- 40 -->
      <g transform="translate(31.145 312.8798) scale(0.1 -0.1)">
       <defs>
        <path id="DejaVuSans-34" d="M 2419 4116 
L 825 1625 
L 2419 1625 
L 2419 4116 
z
M 2253 4666 
L 3047 4666 
L 3047 1625 
L 3713 1625 
L 3713 1100 
L 3047 1100 
L 3047 0 
L 2419 0 
L 2419 1100 
L 313 1100 
L 313 1709 
L 2253 4666 
z
" transform="scale(0.015625)"/>
       </defs>
       <use xlink:href="#DejaVuSans-34"/>
       <use xlink:href="#DejaVuSans-30" transform="translate(63.623047 0)"/>
      </g>
     </g>
    </g>
    <g id="ytick_3">
     <g id="line2d_9">
      <g>
       <use xlink:href="#m6c7627d4d3" x="50.87" y="253.05116" style="stroke: #000000; stroke-width: 0.8"/>
      </g>
     </g>
     <g id="text_10">
      <!-- 60 -->
      <g transform="translate(31.145 256.850379) scale(0.1 -0.1)">
       <defs>
        <path id="DejaVuSans-36" d="M 2113 2584 
Q 1688 2584 1439 2293 
Q 1191 2003 1191 1497 
Q 1191 994 1439 701 
Q 1688 409 2113 409 
Q 2538 409 2786 701 
Q 3034 994 3034 1497 
Q 3034 2003 2786 2293 
Q 2538 2584 2113 2584 
z
M 3366 4563 
L 3366 3988 
Q 3128 4100 2886 4159 
Q 2644 4219 2406 4219 
Q 1781 4219 1451 3797 
Q 1122 3375 1075 2522 
Q 1259 2794 1537 2939 
Q 1816 3084 2150 3084 
Q 2853 3084 3261 2657 
Q 3669 2231 3669 1497 
Q 3669 778 3244 343 
Q 2819 -91 2113 -91 
Q 1303 -91 875 529 
Q 447 1150 447 2328 
Q 447 3434 972 4092 
Q 1497 4750 2381 4750 
Q 2619 4750 2861 4703 
Q 3103 4656 3366 4563 
z
" transform="scale(0.015625)"/>
       </defs>
       <use xlink:href="#DejaVuSans-36"/>
       <use xlink:href="#DejaVuSans-30" transform="translate(63.623047 0)"/>
      </g>
     </g>
    </g>
    <g id="ytick_4">
     <g id="line2d_10">
      <g>
       <use xlink:href="#m6c7627d4d3" x="50.87" y="197.02174" style="stroke: #000000; stroke-width: 0.8"/>
      </g>
     </g>
     <g id="text_11">
      <!-- 80 -->
      <g transform="translate(31.145 200.820958) scale(0.1 -0.1)">
       <defs>
        <path id="DejaVuSans-38" d="M 2034 2216 
Q 1584 2216 1326 1975 
Q 1069 1734 1069 1313 
Q 1069 891 1326 650 
Q 1584 409 2034 409 
Q 2484 409 2743 651 
Q 3003 894 3003 1313 
Q 3003 1734 2745 1975 
Q 2488 2216 2034 2216 
z
M 1403 2484 
Q 997 2584 770 2862 
Q 544 3141 544 3541 
Q 544 4100 942 4425 
Q 1341 4750 2034 4750 
Q 2731 4750 3128 4425 
Q 3525 4100 3525 3541 
Q 3525 3141 3298 2862 
Q 3072 2584 2669 2484 
Q 3125 2378 3379 2068 
Q 3634 1759 3634 1313 
Q 3634 634 3220 271 
Q 2806 -91 2034 -91 
Q 1263 -91 848 271 
Q 434 634 434 1313 
Q 434 1759 690 2068 
Q 947 2378 1403 2484 
z
M 1172 3481 
Q 1172 3119 1398 2916 
Q 1625 2713 2034 2713 
Q 2441 2713 2670 2916 
Q 2900 3119 2900 3481 
Q 2900 3844 2670 4047 
Q 2441 4250 2034 4250 
Q 1625 4250 1398 4047 
Q 1172 3844 1172 3481 
z
" transform="scale(0.015625)"/>
       </defs>
       <use xlink:href="#DejaVuSans-38"/>
       <use xlink:href="#DejaVuSans-30" transform="translate(63.623047 0)"/>
      </g>
     </g>
    </g>
    <g id="ytick_5">
     <g id="line2d_11">
      <g>
       <use xlink:href="#m6c7627d4d3" x="50.87" y="140.992319" style="stroke: #000000; stroke-width: 0.8"/>
      </g>
     </g>
     <g id="text_12">
      <!-- 100 -->
      <g transform="translate(24.7825 144.791538) scale(0.1 -0.1)">
       <use xlink:href="#DejaVuSans-31"/>
       <use xlink:href="#DejaVuSans-30" transform="translate(63.623047 0)"/>
       <use xlink:href="#DejaVuSans-30" transform="translate(127.246094 0)"/>
      </g>
     </g>
    </g>
    <g id="ytick_6">
     <g id="line2d_12">
      <g>
       <use xlink:href="#m6c7627d4d3" x="50.87" y="84.962898" style="stroke: #000000; stroke-width: 0.8"/>
      </g>
     </g>
     <g id="text_13">
      <!-- 120 -->
      <g transform="translate(24.7825 88.762117) scale(0.1 -0.1)">
       <use xlink:href="#DejaVuSans-31"/>
       <use xlink:href="#DejaVuSans-32" transform="translate(63.623047 0)"/>
       <use xlink:href="#DejaVuSans-30" transform="translate(127.246094 0)"/>
      </g>
     </g>
    </g>
    <g id="text_14">
     <!-- Profit -->
     <g transform="translate(18.702813 229.779063) rotate(-90) scale(0.1 -0.1)">
      <defs>
       <path id="DejaVuSans-50" d="M 1259 4147 
L 1259 2394 
L 2053 2394 
Q 2494 2394 2734 2622 
Q 2975 2850 2975 3272 
Q 2975 3691 2734 3919 
Q 2494 4147 2053 4147 
L 1259 4147 
z
M 628 4666 
L 2053 4666 
Q 2838 4666 3239 4311 
Q 3641 3956 3641 3272 
Q 3641 2581 3239 2228 
Q 2838 1875 2053 1875 
L 1259 1875 
L 1259 0 
L 628 0 
L 628 4666 
z
" transform="scale(0.015625)"/>
       <path id="DejaVuSans-72" d="M 2631 2963 
Q 2534 3019 2420 3045 
Q 2306 3072 2169 3072 
Q 1681 3072 1420 2755 
Q 1159 2438 1159 1844 
L 1159 0 
L 581 0 
L 581 3500 
L 1159 3500 
L 1159 2956 
Q 1341 3275 1631 3429 
Q 1922 3584 2338 3584 
Q 2397 3584 2469 3576 
Q 2541 3569 2628 3553 
L 2631 2963 
z
" transform="scale(0.015625)"/>
       <path id="DejaVuSans-6f" d="M 1959 3097 
Q 1497 3097 1228 2736 
Q 959 2375 959 1747 
Q 959 1119 1226 758 
Q 1494 397 1959 397 
Q 2419 397 2687 759 
Q 2956 1122 2956 1747 
Q 2956 2369 2687 2733 
Q 2419 3097 1959 3097 
z
M 1959 3584 
Q 2709 3584 3137 3096 
Q 3566 2609 3566 1747 
Q 3566 888 3137 398 
Q 2709 -91 1959 -91 
Q 1206 -91 779 398 
Q 353 888 353 1747 
Q 353 2609 779 3096 
Q 1206 3584 1959 3584 
z
" transform="scale(0.015625)"/>
       <path id="DejaVuSans-66" d="M 2375 4863 
L 2375 4384 
L 1825 4384 
Q 1516 4384 1395 4259 
Q 1275 4134 1275 3809 
L 1275 3500 
L 2222 3500 
L 2222 3053 
L 1275 3053 
L 1275 0 
L 697 0 
L 697 3053 
L 147 3053 
L 147 3500 
L 697 3500 
L 697 3744 
Q 697 4328 969 4595 
Q 1241 4863 1831 4863 
L 2375 4863 
z
" transform="scale(0.015625)"/>
       <path id="DejaVuSans-69" d="M 603 3500 
L 1178 3500 
L 1178 0 
L 603 0 
L 603 3500 
z
M 603 4863 
L 1178 4863 
L 1178 4134 
L 603 4134 
L 603 4863 
z
" transform="scale(0.015625)"/>
      </defs>
      <use xlink:href="#DejaVuSans-50"/>
      <use xlink:href="#DejaVuSans-72" transform="translate(58.552734 0)"/>
      <use xlink:href="#DejaVuSans-6f" transform="translate(97.416016 0)"/>
      <use xlink:href="#DejaVuSans-66" transform="translate(158.597656 0)"/>
      <use xlink:href="#DejaVuSans-69" transform="translate(193.802734 0)"/>
      <use xlink:href="#DejaVuSans-74" transform="translate(221.585938 0)"/>
     </g>
    </g>
   </g>
   <g id="line2d_13">
    <path d="M 52.193327 249.467237 
L 54.83998 249.190524 
L 57.486633 244.6846 
L 60.133287 238.952818 
L 65.426593 230.04679 
L 68.073247 225.894875 
L 70.7199 222.38983 
L 76.013207 216.453354 
L 81.306513 210.854644 
L 83.953167 208.509583 
L 94.53978 201.021539 
L 99.833087 197.671794 
L 105.126393 194.95321 
L 107.773047 193.970925 
L 113.066353 191.72352 
L 115.713007 190.297136 
L 121.006313 188.467755 
L 126.29962 186.457361 
L 131.592927 184.607311 
L 134.23958 183.992245 
L 144.826193 181.002794 
L 150.1195 179.744042 
L 155.412807 178.190828 
L 160.706113 177.028194 
L 173.93938 174.296058 
L 176.586033 173.923796 
L 179.232687 173.412498 
L 181.87934 173.202995 
L 184.525993 172.575169 
L 187.172647 172.24529 
L 195.112607 170.840151 
L 200.405913 170.069443 
L 203.052567 169.357512 
L 205.69922 169.055205 
L 210.992527 168.165511 
L 216.285833 167.671248 
L 221.57914 166.708135 
L 224.225793 166.284063 
L 226.872447 166.19827 
L 229.5191 165.708923 
L 242.752367 164.045528 
L 248.045673 163.730782 
L 253.33898 163.030093 
L 274.512207 160.944806 
L 277.15886 160.53001 
L 282.452167 160.353486 
L 290.392127 159.584146 
L 298.332087 158.803435 
L 303.625393 158.423264 
L 306.272047 158.11649 
L 324.79862 156.710497 
L 332.73858 156.055334 
L 353.911807 154.749005 
L 356.55846 154.696277 
L 364.49842 154.165508 
L 369.791727 154.086298 
L 375.085033 153.641066 
L 377.731687 153.447165 
L 383.024993 152.897694 
L 388.3183 152.569547 
L 393.611607 152.421108 
L 398.904913 152.162894 
L 406.844873 151.750492 
L 414.784833 151.228486 
L 428.0181 150.790778 
L 430.664753 150.637829 
L 433.311407 150.322249 
L 435.95806 150.185565 
L 438.604713 149.933079 
L 443.89802 149.729518 
L 446.544673 149.52196 
L 451.83798 149.365163 
L 454.484633 149.425244 
L 457.131287 149.331415 
L 462.424593 148.936239 
L 467.7179 148.650347 
L 475.65786 148.488678 
L 478.304513 148.405813 
L 486.244473 147.897999 
L 491.53778 147.831121 
L 515.35766 146.652863 
L 520.650967 146.454602 
L 525.944273 146.237019 
L 528.590927 146.142954 
L 531.23758 146.165974 
L 533.884233 145.988039 
L 536.530887 145.979532 
L 557.704113 144.906688 
L 568.290727 144.858063 
L 573.584033 144.546266 
L 581.523993 144.386905 
L 589.463953 144.390924 
L 637.103713 143.036868 
L 645.043673 142.737596 
L 652.983633 142.784211 
L 660.923593 142.290355 
L 671.510207 142.122594 
L 676.803513 141.797994 
L 679.450167 141.850936 
L 695.330087 141.24645 
L 703.270047 141.162324 
L 705.9167 141.006126 
L 713.85666 140.899237 
L 721.79662 140.71348 
L 729.73658 140.493162 
L 740.323193 140.158067 
L 780.022993 139.351473 
L 782.669647 139.213379 
L 798.549567 139.077913 
L 803.842873 138.775905 
L 814.429487 138.610987 
L 817.07614 138.68556 
L 822.369447 138.560781 
L 827.662753 138.578884 
L 843.542673 138.515982 
L 843.542673 138.515982 
" clip-path="url(#p3720d143ea)" style="fill: none; stroke: #0000ff; stroke-width: 1.5; stroke-linecap: square"/>
   </g>
   <g id="patch_3">
    <path d="M 50.87 390.04 
L 50.87 43.44 
" style="fill: none; stroke: #000000; stroke-width: 0.8; stroke-linejoin: miter; stroke-linecap: square"/>
   </g>
   <g id="patch_4">
    <path d="M 844.866 390.04 
L 844.866 43.44 
" style="fill: none; stroke: #000000; stroke-width: 0.8; stroke-linejoin: miter; stroke-linecap: square"/>
   </g>
   <g id="patch_5">
    <path d="M 50.87 390.04 
L 844.866 390.04 
" style="fill: none; stroke: #000000; stroke-width: 0.8; stroke-linejoin: miter; stroke-linecap: square"/>
   </g>
   <g id="patch_6">
    <path d="M 50.87 43.44 
L 844.866 43.44 
" style="fill: none; stroke: #000000; stroke-width: 0.8; stroke-linejoin: miter; stroke-linecap: square"/>
   </g>
   <g id="text_15">
    <!-- Mean profit per step with confidence interval per simulation step -->
    <g transform="translate(220.284875 21.763062) scale(0.14 -0.14)">
     <defs>
      <path id="DejaVuSans-4d" d="M 628 4666 
L 1569 4666 
L 2759 1491 
L 3956 4666 
L 4897 4666 
L 4897 0 
L 4281 0 
L 4281 4097 
L 3078 897 
L 2444 897 
L 1241 4097 
L 1241 0 
L 628 0 
L 628 4666 
z
" transform="scale(0.015625)"/>
      <path id="DejaVuSans-61" d="M 2194 1759 
Q 1497 1759 1228 1600 
Q 959 1441 959 1056 
Q 959 750 1161 570 
Q 1363 391 1709 391 
Q 2188 391 2477 730 
Q 2766 1069 2766 1631 
L 2766 1759 
L 2194 1759 
z
M 3341 1997 
L 3341 0 
L 2766 0 
L 2766 531 
Q 2569 213 2275 61 
Q 1981 -91 1556 -91 
Q 1019 -91 701 211 
Q 384 513 384 1019 
Q 384 1609 779 1909 
Q 1175 2209 1959 2209 
L 2766 2209 
L 2766 2266 
Q 2766 2663 2505 2880 
Q 2244 3097 1772 3097 
Q 1472 3097 1187 3025 
Q 903 2953 641 2809 
L 641 3341 
Q 956 3463 1253 3523 
Q 1550 3584 1831 3584 
Q 2591 3584 2966 3190 
Q 3341 2797 3341 1997 
z
" transform="scale(0.015625)"/>
      <path id="DejaVuSans-6e" d="M 3513 2113 
L 3513 0 
L 2938 0 
L 2938 2094 
Q 2938 2591 2744 2837 
Q 2550 3084 2163 3084 
Q 1697 3084 1428 2787 
Q 1159 2491 1159 1978 
L 1159 0 
L 581 0 
L 581 3500 
L 1159 3500 
L 1159 2956 
Q 1366 3272 1645 3428 
Q 1925 3584 2291 3584 
Q 2894 3584 3203 3211 
Q 3513 2838 3513 2113 
z
" transform="scale(0.015625)"/>
      <path id="DejaVuSans-20" transform="scale(0.015625)"/>
      <path id="DejaVuSans-73" d="M 2834 3397 
L 2834 2853 
Q 2591 2978 2328 3040 
Q 2066 3103 1784 3103 
Q 1356 3103 1142 2972 
Q 928 2841 928 2578 
Q 928 2378 1081 2264 
Q 1234 2150 1697 2047 
L 1894 2003 
Q 2506 1872 2764 1633 
Q 3022 1394 3022 966 
Q 3022 478 2636 193 
Q 2250 -91 1575 -91 
Q 1294 -91 989 -36 
Q 684 19 347 128 
L 347 722 
Q 666 556 975 473 
Q 1284 391 1588 391 
Q 1994 391 2212 530 
Q 2431 669 2431 922 
Q 2431 1156 2273 1281 
Q 2116 1406 1581 1522 
L 1381 1569 
Q 847 1681 609 1914 
Q 372 2147 372 2553 
Q 372 3047 722 3315 
Q 1072 3584 1716 3584 
Q 2034 3584 2315 3537 
Q 2597 3491 2834 3397 
z
" transform="scale(0.015625)"/>
      <path id="DejaVuSans-77" d="M 269 3500 
L 844 3500 
L 1563 769 
L 2278 3500 
L 2956 3500 
L 3675 769 
L 4391 3500 
L 4966 3500 
L 4050 0 
L 3372 0 
L 2619 2869 
L 1863 0 
L 1184 0 
L 269 3500 
z
" transform="scale(0.015625)"/>
      <path id="DejaVuSans-68" d="M 3513 2113 
L 3513 0 
L 2938 0 
L 2938 2094 
Q 2938 2591 2744 2837 
Q 2550 3084 2163 3084 
Q 1697 3084 1428 2787 
Q 1159 2491 1159 1978 
L 1159 0 
L 581 0 
L 581 4863 
L 1159 4863 
L 1159 2956 
Q 1366 3272 1645 3428 
Q 1925 3584 2291 3584 
Q 2894 3584 3203 3211 
Q 3513 2838 3513 2113 
z
" transform="scale(0.015625)"/>
      <path id="DejaVuSans-63" d="M 3122 3366 
L 3122 2828 
Q 2878 2963 2633 3030 
Q 2388 3097 2138 3097 
Q 1578 3097 1268 2742 
Q 959 2388 959 1747 
Q 959 1106 1268 751 
Q 1578 397 2138 397 
Q 2388 397 2633 464 
Q 2878 531 3122 666 
L 3122 134 
Q 2881 22 2623 -34 
Q 2366 -91 2075 -91 
Q 1284 -91 818 406 
Q 353 903 353 1747 
Q 353 2603 823 3093 
Q 1294 3584 2113 3584 
Q 2378 3584 2631 3529 
Q 2884 3475 3122 3366 
z
" transform="scale(0.015625)"/>
      <path id="DejaVuSans-64" d="M 2906 2969 
L 2906 4863 
L 3481 4863 
L 3481 0 
L 2906 0 
L 2906 525 
Q 2725 213 2448 61 
Q 2172 -91 1784 -91 
Q 1150 -91 751 415 
Q 353 922 353 1747 
Q 353 2572 751 3078 
Q 1150 3584 1784 3584 
Q 2172 3584 2448 3432 
Q 2725 3281 2906 2969 
z
M 947 1747 
Q 947 1113 1208 752 
Q 1469 391 1925 391 
Q 2381 391 2643 752 
Q 2906 1113 2906 1747 
Q 2906 2381 2643 2742 
Q 2381 3103 1925 3103 
Q 1469 3103 1208 2742 
Q 947 2381 947 1747 
z
" transform="scale(0.015625)"/>
      <path id="DejaVuSans-76" d="M 191 3500 
L 800 3500 
L 1894 563 
L 2988 3500 
L 3597 3500 
L 2284 0 
L 1503 0 
L 191 3500 
z
" transform="scale(0.015625)"/>
      <path id="DejaVuSans-6c" d="M 603 4863 
L 1178 4863 
L 1178 0 
L 603 0 
L 603 4863 
z
" transform="scale(0.015625)"/>
      <path id="DejaVuSans-6d" d="M 3328 2828 
Q 3544 3216 3844 3400 
Q 4144 3584 4550 3584 
Q 5097 3584 5394 3201 
Q 5691 2819 5691 2113 
L 5691 0 
L 5113 0 
L 5113 2094 
Q 5113 2597 4934 2840 
Q 4756 3084 4391 3084 
Q 3944 3084 3684 2787 
Q 3425 2491 3425 1978 
L 3425 0 
L 2847 0 
L 2847 2094 
Q 2847 2600 2669 2842 
Q 2491 3084 2119 3084 
Q 1678 3084 1418 2786 
Q 1159 2488 1159 1978 
L 1159 0 
L 581 0 
L 581 3500 
L 1159 3500 
L 1159 2956 
Q 1356 3278 1631 3431 
Q 1906 3584 2284 3584 
Q 2666 3584 2933 3390 
Q 3200 3197 3328 2828 
z
" transform="scale(0.015625)"/>
      <path id="DejaVuSans-75" d="M 544 1381 
L 544 3500 
L 1119 3500 
L 1119 1403 
Q 1119 906 1312 657 
Q 1506 409 1894 409 
Q 2359 409 2629 706 
Q 2900 1003 2900 1516 
L 2900 3500 
L 3475 3500 
L 3475 0 
L 2900 0 
L 2900 538 
Q 2691 219 2414 64 
Q 2138 -91 1772 -91 
Q 1169 -91 856 284 
Q 544 659 544 1381 
z
M 1991 3584 
L 1991 3584 
z
" transform="scale(0.015625)"/>
     </defs>
     <use xlink:href="#DejaVuSans-4d"/>
     <use xlink:href="#DejaVuSans-65" transform="translate(86.279297 0)"/>
     <use xlink:href="#DejaVuSans-61" transform="translate(147.802734 0)"/>
     <use xlink:href="#DejaVuSans-6e" transform="translate(209.082031 0)"/>
     <use xlink:href="#DejaVuSans-20" transform="translate(272.460938 0)"/>
     <use xlink:href="#DejaVuSans-70" transform="translate(304.248047 0)"/>
     <use xlink:href="#DejaVuSans-72" transform="translate(367.724609 0)"/>
     <use xlink:href="#DejaVuSans-6f" transform="translate(406.587891 0)"/>
     <use xlink:href="#DejaVuSans-66" transform="translate(467.769531 0)"/>
     <use xlink:href="#DejaVuSans-69" transform="translate(502.974609 0)"/>
     <use xlink:href="#DejaVuSans-74" transform="translate(530.757812 0)"/>
     <use xlink:href="#DejaVuSans-20" transform="translate(569.966797 0)"/>
     <use xlink:href="#DejaVuSans-70" transform="translate(601.753906 0)"/>
     <use xlink:href="#DejaVuSans-65" transform="translate(665.230469 0)"/>
     <use xlink:href="#DejaVuSans-72" transform="translate(726.753906 0)"/>
     <use xlink:href="#DejaVuSans-20" transform="translate(767.867188 0)"/>
     <use xlink:href="#DejaVuSans-73" transform="translate(799.654297 0)"/>
     <use xlink:href="#DejaVuSans-74" transform="translate(851.753906 0)"/>
     <use xlink:href="#DejaVuSans-65" transform="translate(890.962891 0)"/>
     <use xlink:href="#DejaVuSans-70" transform="translate(952.486328 0)"/>
     <use xlink:href="#DejaVuSans-20" transform="translate(1015.962891 0)"/>
     <use xlink:href="#DejaVuSans-77" transform="translate(1047.75 0)"/>
     <use xlink:href="#DejaVuSans-69" transform="translate(1129.537109 0)"/>
     <use xlink:href="#DejaVuSans-74" transform="translate(1157.320312 0)"/>
     <use xlink:href="#DejaVuSans-68" transform="translate(1196.529297 0)"/>
     <use xlink:href="#DejaVuSans-20" transform="translate(1259.908203 0)"/>
     <use xlink:href="#DejaVuSans-63" transform="translate(1291.695312 0)"/>
     <use xlink:href="#DejaVuSans-6f" transform="translate(1346.675781 0)"/>
     <use xlink:href="#DejaVuSans-6e" transform="translate(1407.857422 0)"/>
     <use xlink:href="#DejaVuSans-66" transform="translate(1471.236328 0)"/>
     <use xlink:href="#DejaVuSans-69" transform="translate(1506.441406 0)"/>
     <use xlink:href="#DejaVuSans-64" transform="translate(1534.224609 0)"/>
     <use xlink:href="#DejaVuSans-65" transform="translate(1597.701172 0)"/>
     <use xlink:href="#DejaVuSans-6e" transform="translate(1659.224609 0)"/>
     <use xlink:href="#DejaVuSans-63" transform="translate(1722.603516 0)"/>
     <use xlink:href="#DejaVuSans-65" transform="translate(1777.583984 0)"/>
     <use xlink:href="#DejaVuSans-20" transform="translate(1839.107422 0)"/>
     <use xlink:href="#DejaVuSans-69" transform="translate(1870.894531 0)"/>
     <use xlink:href="#DejaVuSans-6e" transform="translate(1898.677734 0)"/>
     <use xlink:href="#DejaVuSans-74" transform="translate(1962.056641 0)"/>
     <use xlink:href="#DejaVuSans-65" transform="translate(2001.265625 0)"/>
     <use xlink:href="#DejaVuSans-72" transform="translate(2062.789062 0)"/>
     <use xlink:href="#DejaVuSans-76" transform="translate(2103.902344 0)"/>
     <use xlink:href="#DejaVuSans-61" transform="translate(2163.082031 0)"/>
     <use xlink:href="#DejaVuSans-6c" transform="translate(2224.361328 0)"/>
     <use xlink:href="#DejaVuSans-20" transform="translate(2252.144531 0)"/>
     <use xlink:href="#DejaVuSans-70" transform="translate(2283.931641 0)"/>
     <use xlink:href="#DejaVuSans-65" transform="translate(2347.408203 0)"/>
     <use xlink:href="#DejaVuSans-72" transform="translate(2408.931641 0)"/>
     <use xlink:href="#DejaVuSans-20" transform="translate(2450.044922 0)"/>
     <use xlink:href="#DejaVuSans-73" transform="translate(2481.832031 0)"/>
     <use xlink:href="#DejaVuSans-69" transform="translate(2533.931641 0)"/>
     <use xlink:href="#DejaVuSans-6d" transform="translate(2561.714844 0)"/>
     <use xlink:href="#DejaVuSans-75" transform="translate(2659.126953 0)"/>
     <use xlink:href="#DejaVuSans-6c" transform="translate(2722.505859 0)"/>
     <use xlink:href="#DejaVuSans-61" transform="translate(2750.289062 0)"/>
     <use xlink:href="#DejaVuSans-74" transform="translate(2811.568359 0)"/>
     <use xlink:href="#DejaVuSans-69" transform="translate(2850.777344 0)"/>
     <use xlink:href="#DejaVuSans-6f" transform="translate(2878.560547 0)"/>
     <use xlink:href="#DejaVuSans-6e" transform="translate(2939.742188 0)"/>
     <use xlink:href="#DejaVuSans-20" transform="translate(3003.121094 0)"/>
     <use xlink:href="#DejaVuSans-73" transform="translate(3034.908203 0)"/>
     <use xlink:href="#DejaVuSans-74" transform="translate(3087.007812 0)"/>
     <use xlink:href="#DejaVuSans-65" transform="translate(3126.216797 0)"/>
     <use xlink:href="#DejaVuSans-70" transform="translate(3187.740234 0)"/>
    </g>
    <!-- Base Product: Grandaddy Purple, Recipe size: 9, T0: 20.0 -->
    <g transform="translate(248.283781 37.44) scale(0.14 -0.14)">
     <defs>
      <path id="DejaVuSans-42" d="M 1259 2228 
L 1259 519 
L 2272 519 
Q 2781 519 3026 730 
Q 3272 941 3272 1375 
Q 3272 1813 3026 2020 
Q 2781 2228 2272 2228 
L 1259 2228 
z
M 1259 4147 
L 1259 2741 
L 2194 2741 
Q 2656 2741 2882 2914 
Q 3109 3088 3109 3444 
Q 3109 3797 2882 3972 
Q 2656 4147 2194 4147 
L 1259 4147 
z
M 628 4666 
L 2241 4666 
Q 2963 4666 3353 4366 
Q 3744 4066 3744 3513 
Q 3744 3084 3544 2831 
Q 3344 2578 2956 2516 
Q 3422 2416 3680 2098 
Q 3938 1781 3938 1306 
Q 3938 681 3513 340 
Q 3088 0 2303 0 
L 628 0 
L 628 4666 
z
" transform="scale(0.015625)"/>
      <path id="DejaVuSans-3a" d="M 750 794 
L 1409 794 
L 1409 0 
L 750 0 
L 750 794 
z
M 750 3309 
L 1409 3309 
L 1409 2516 
L 750 2516 
L 750 3309 
z
" transform="scale(0.015625)"/>
      <path id="DejaVuSans-47" d="M 3809 666 
L 3809 1919 
L 2778 1919 
L 2778 2438 
L 4434 2438 
L 4434 434 
Q 4069 175 3628 42 
Q 3188 -91 2688 -91 
Q 1594 -91 976 548 
Q 359 1188 359 2328 
Q 359 3472 976 4111 
Q 1594 4750 2688 4750 
Q 3144 4750 3555 4637 
Q 3966 4525 4313 4306 
L 4313 3634 
Q 3963 3931 3569 4081 
Q 3175 4231 2741 4231 
Q 1884 4231 1454 3753 
Q 1025 3275 1025 2328 
Q 1025 1384 1454 906 
Q 1884 428 2741 428 
Q 3075 428 3337 486 
Q 3600 544 3809 666 
z
" transform="scale(0.015625)"/>
      <path id="DejaVuSans-79" d="M 2059 -325 
Q 1816 -950 1584 -1140 
Q 1353 -1331 966 -1331 
L 506 -1331 
L 506 -850 
L 844 -850 
Q 1081 -850 1212 -737 
Q 1344 -625 1503 -206 
L 1606 56 
L 191 3500 
L 800 3500 
L 1894 763 
L 2988 3500 
L 3597 3500 
L 2059 -325 
z
" transform="scale(0.015625)"/>
      <path id="DejaVuSans-2c" d="M 750 794 
L 1409 794 
L 1409 256 
L 897 -744 
L 494 -744 
L 750 256 
L 750 794 
z
" transform="scale(0.015625)"/>
      <path id="DejaVuSans-52" d="M 2841 2188 
Q 3044 2119 3236 1894 
Q 3428 1669 3622 1275 
L 4263 0 
L 3584 0 
L 2988 1197 
Q 2756 1666 2539 1819 
Q 2322 1972 1947 1972 
L 1259 1972 
L 1259 0 
L 628 0 
L 628 4666 
L 2053 4666 
Q 2853 4666 3247 4331 
Q 3641 3997 3641 3322 
Q 3641 2881 3436 2590 
Q 3231 2300 2841 2188 
z
M 1259 4147 
L 1259 2491 
L 2053 2491 
Q 2509 2491 2742 2702 
Q 2975 2913 2975 3322 
Q 2975 3731 2742 3939 
Q 2509 4147 2053 4147 
L 1259 4147 
z
" transform="scale(0.015625)"/>
      <path id="DejaVuSans-7a" d="M 353 3500 
L 3084 3500 
L 3084 2975 
L 922 459 
L 3084 459 
L 3084 0 
L 275 0 
L 275 525 
L 2438 3041 
L 353 3041 
L 353 3500 
z
" transform="scale(0.015625)"/>
      <path id="DejaVuSans-39" d="M 703 97 
L 703 672 
Q 941 559 1184 500 
Q 1428 441 1663 441 
Q 2288 441 2617 861 
Q 2947 1281 2994 2138 
Q 2813 1869 2534 1725 
Q 2256 1581 1919 1581 
Q 1219 1581 811 2004 
Q 403 2428 403 3163 
Q 403 3881 828 4315 
Q 1253 4750 1959 4750 
Q 2769 4750 3195 4129 
Q 3622 3509 3622 2328 
Q 3622 1225 3098 567 
Q 2575 -91 1691 -91 
Q 1453 -91 1209 -44 
Q 966 3 703 97 
z
M 1959 2075 
Q 2384 2075 2632 2365 
Q 2881 2656 2881 3163 
Q 2881 3666 2632 3958 
Q 2384 4250 1959 4250 
Q 1534 4250 1286 3958 
Q 1038 3666 1038 3163 
Q 1038 2656 1286 2365 
Q 1534 2075 1959 2075 
z
" transform="scale(0.015625)"/>
      <path id="DejaVuSans-54" d="M -19 4666 
L 3928 4666 
L 3928 4134 
L 2272 4134 
L 2272 0 
L 1638 0 
L 1638 4134 
L -19 4134 
L -19 4666 
z
" transform="scale(0.015625)"/>
      <path id="DejaVuSans-2e" d="M 684 794 
L 1344 794 
L 1344 0 
L 684 0 
L 684 794 
z
" transform="scale(0.015625)"/>
     </defs>
     <use xlink:href="#DejaVuSans-42"/>
     <use xlink:href="#DejaVuSans-61" transform="translate(68.603516 0)"/>
     <use xlink:href="#DejaVuSans-73" transform="translate(129.882812 0)"/>
     <use xlink:href="#DejaVuSans-65" transform="translate(181.982422 0)"/>
     <use xlink:href="#DejaVuSans-20" transform="translate(243.505859 0)"/>
     <use xlink:href="#DejaVuSans-50" transform="translate(275.292969 0)"/>
     <use xlink:href="#DejaVuSans-72" transform="translate(333.845703 0)"/>
     <use xlink:href="#DejaVuSans-6f" transform="translate(372.708984 0)"/>
     <use xlink:href="#DejaVuSans-64" transform="translate(433.890625 0)"/>
     <use xlink:href="#DejaVuSans-75" transform="translate(497.367188 0)"/>
     <use xlink:href="#DejaVuSans-63" transform="translate(560.746094 0)"/>
     <use xlink:href="#DejaVuSans-74" transform="translate(615.726562 0)"/>
     <use xlink:href="#DejaVuSans-3a" transform="translate(654.935547 0)"/>
     <use xlink:href="#DejaVuSans-20" transform="translate(688.626953 0)"/>
     <use xlink:href="#DejaVuSans-47" transform="translate(720.414062 0)"/>
     <use xlink:href="#DejaVuSans-72" transform="translate(797.904297 0)"/>
     <use xlink:href="#DejaVuSans-61" transform="translate(839.017578 0)"/>
     <use xlink:href="#DejaVuSans-6e" transform="translate(900.296875 0)"/>
     <use xlink:href="#DejaVuSans-64" transform="translate(963.675781 0)"/>
     <use xlink:href="#DejaVuSans-61" transform="translate(1027.152344 0)"/>
     <use xlink:href="#DejaVuSans-64" transform="translate(1088.431641 0)"/>
     <use xlink:href="#DejaVuSans-64" transform="translate(1151.908203 0)"/>
     <use xlink:href="#DejaVuSans-79" transform="translate(1215.384766 0)"/>
     <use xlink:href="#DejaVuSans-20" transform="translate(1274.564453 0)"/>
     <use xlink:href="#DejaVuSans-50" transform="translate(1306.351562 0)"/>
     <use xlink:href="#DejaVuSans-75" transform="translate(1364.904297 0)"/>
     <use xlink:href="#DejaVuSans-72" transform="translate(1428.283203 0)"/>
     <use xlink:href="#DejaVuSans-70" transform="translate(1469.396484 0)"/>
     <use xlink:href="#DejaVuSans-6c" transform="translate(1532.873047 0)"/>
     <use xlink:href="#DejaVuSans-65" transform="translate(1560.65625 0)"/>
     <use xlink:href="#DejaVuSans-2c" transform="translate(1622.179688 0)"/>
     <use xlink:href="#DejaVuSans-20" transform="translate(1653.966797 0)"/>
     <use xlink:href="#DejaVuSans-52" transform="translate(1685.753906 0)"/>
     <use xlink:href="#DejaVuSans-65" transform="translate(1750.736328 0)"/>
     <use xlink:href="#DejaVuSans-63" transform="translate(1812.259766 0)"/>
     <use xlink:href="#DejaVuSans-69" transform="translate(1867.240234 0)"/>
     <use xlink:href="#DejaVuSans-70" transform="translate(1895.023438 0)"/>
     <use xlink:href="#DejaVuSans-65" transform="translate(1958.5 0)"/>
     <use xlink:href="#DejaVuSans-20" transform="translate(2020.023438 0)"/>
     <use xlink:href="#DejaVuSans-73" transform="translate(2051.810547 0)"/>
     <use xlink:href="#DejaVuSans-69" transform="translate(2103.910156 0)"/>
     <use xlink:href="#DejaVuSans-7a" transform="translate(2131.693359 0)"/>
     <use xlink:href="#DejaVuSans-65" transform="translate(2184.183594 0)"/>
     <use xlink:href="#DejaVuSans-3a" transform="translate(2245.707031 0)"/>
     <use xlink:href="#DejaVuSans-20" transform="translate(2279.398438 0)"/>
     <use xlink:href="#DejaVuSans-39" transform="translate(2311.185547 0)"/>
     <use xlink:href="#DejaVuSans-2c" transform="translate(2374.808594 0)"/>
     <use xlink:href="#DejaVuSans-20" transform="translate(2406.595703 0)"/>
     <use xlink:href="#DejaVuSans-54" transform="translate(2438.382812 0)"/>
     <use xlink:href="#DejaVuSans-30" transform="translate(2499.466797 0)"/>
     <use xlink:href="#DejaVuSans-3a" transform="translate(2563.089844 0)"/>
     <use xlink:href="#DejaVuSans-20" transform="translate(2596.78125 0)"/>
     <use xlink:href="#DejaVuSans-32" transform="translate(2628.568359 0)"/>
     <use xlink:href="#DejaVuSans-30" transform="translate(2692.191406 0)"/>
     <use xlink:href="#DejaVuSans-2e" transform="translate(2755.814453 0)"/>
     <use xlink:href="#DejaVuSans-30" transform="translate(2787.601562 0)"/>
    </g>
   </g>
  </g>
 </g>
 <defs>
  <clipPath id="p3720d143ea">
   <rect x="50.87" y="43.44" width="793.996" height="346.6"/>
  </clipPath>
 </defs>
</svg>
