<?xml version="1.0" encoding="utf-8" standalone="no"?>
<!DOCTYPE svg PUBLIC "-//W3C//DTD SVG 1.1//EN"
  "http://www.w3.org/Graphics/SVG/1.1/DTD/svg11.dtd">
<svg xmlns:xlink="http://www.w3.org/1999/xlink" width="864pt" height="432pt" viewBox="0 0 864 432" xmlns="http://www.w3.org/2000/svg" version="1.1">
 <metadata>
  <rdf:RDF xmlns:dc="http://purl.org/dc/elements/1.1/" xmlns:cc="http://creativecommons.org/ns#" xmlns:rdf="http://www.w3.org/1999/02/22-rdf-syntax-ns#">
   <cc:Work>
    <dc:type rdf:resource="http://purl.org/dc/dcmitype/StillImage"/>
    <dc:date>2025-05-24T02:12:59.456779</dc:date>
    <dc:format>image/svg+xml</dc:format>
    <dc:creator>
     <cc:Agent>
      <dc:title>Matplotlib v3.10.3, https://matplotlib.org/</dc:title>
     </cc:Agent>
    </dc:creator>
   </cc:Work>
  </rdf:RDF>
 </metadata>
 <defs>
  <style type="text/css">*{stroke-linejoin: round; stroke-linecap: butt}</style>
 </defs>
 <g id="figure_1">
  <g id="patch_1">
   <path d="M 0 432 
L 864 432 
L 864 0 
L 0 0 
z
" style="fill: #ffffff"/>
  </g>
  <g id="axes_1">
   <g id="patch_2">
    <path d="M 50.87 390.04 
L 844.866 390.04 
L 844.866 43.44 
L 50.87 43.44 
z
" style="fill: #ffffff"/>
   </g>
   <g id="FillBetweenPolyCollection_1">
    <defs>
     <path id="mcb74138904" d="M 52.193327 -308.672255 
L 52.193327 -57.714545 
L 54.83998 -58.623331 
L 57.486633 -68.222468 
L 60.133287 -80.597336 
L 62.77994 -90.416411 
L 65.426593 -99.566586 
L 68.073247 -108.586384 
L 70.7199 -115.98777 
L 73.366553 -123.58941 
L 76.013207 -130.74051 
L 78.65986 -136.750129 
L 81.306513 -142.030481 
L 83.953167 -147.297342 
L 86.59982 -151.678575 
L 89.246473 -156.403722 
L 91.893127 -160.573543 
L 94.53978 -164.386594 
L 97.186433 -167.41386 
L 99.833087 -170.548202 
L 102.47974 -173.600499 
L 105.126393 -176.519352 
L 107.773047 -179.004159 
L 110.4197 -181.44208 
L 113.066353 -183.561228 
L 115.713007 -185.716204 
L 118.35966 -188.042369 
L 121.006313 -190.063242 
L 123.652967 -191.987473 
L 126.29962 -193.992893 
L 128.946273 -195.471636 
L 131.592927 -196.783376 
L 134.23958 -198.514476 
L 136.886233 -199.881408 
L 139.532887 -201.188961 
L 142.17954 -203.138772 
L 144.826193 -204.542638 
L 147.472847 -205.947031 
L 150.1195 -207.090824 
L 152.766153 -208.208381 
L 155.412807 -209.262788 
L 158.05946 -210.068476 
L 160.706113 -211.120165 
L 163.352767 -212.051648 
L 165.99942 -212.522672 
L 168.646073 -213.655265 
L 171.292727 -214.636658 
L 173.93938 -215.485879 
L 176.586033 -216.161169 
L 179.232687 -216.906711 
L 181.87934 -217.769696 
L 184.525993 -218.562342 
L 187.172647 -219.086696 
L 189.8193 -220.134659 
L 192.465953 -220.843573 
L 195.112607 -221.347104 
L 197.75926 -222.334569 
L 200.405913 -223.000171 
L 203.052567 -223.699485 
L 205.69922 -224.434987 
L 208.345873 -225.289665 
L 210.992527 -225.692279 
L 213.63918 -226.031305 
L 216.285833 -227.083367 
L 218.932487 -227.838728 
L 221.57914 -228.346204 
L 224.225793 -229.368236 
L 226.872447 -229.756339 
L 229.5191 -230.37247 
L 232.165753 -230.630328 
L 234.812407 -230.989454 
L 237.45906 -231.566217 
L 240.105713 -232.141665 
L 242.752367 -232.406933 
L 245.39902 -232.673033 
L 248.045673 -233.306238 
L 250.692327 -233.744033 
L 253.33898 -234.061578 
L 255.985633 -234.608377 
L 258.632287 -235.110198 
L 261.27894 -235.249824 
L 263.925593 -235.774025 
L 266.572247 -236.186524 
L 269.2189 -236.343028 
L 271.865553 -236.669626 
L 274.512207 -236.945722 
L 277.15886 -237.207131 
L 279.805513 -237.747486 
L 282.452167 -238.005323 
L 285.09882 -238.25882 
L 287.745473 -238.523956 
L 290.392127 -238.810507 
L 293.03878 -239.080334 
L 295.685433 -239.574045 
L 298.332087 -239.807047 
L 300.97874 -240.443102 
L 303.625393 -240.998033 
L 306.272047 -241.201138 
L 308.9187 -241.757581 
L 311.565353 -242.105748 
L 314.212007 -242.372572 
L 316.85866 -242.852276 
L 319.505313 -243.279505 
L 322.151967 -243.56404 
L 324.79862 -243.932547 
L 327.445273 -244.319357 
L 330.091927 -244.498986 
L 332.73858 -244.826044 
L 335.385233 -245.156763 
L 338.031887 -245.163317 
L 340.67854 -245.390204 
L 343.325193 -245.79661 
L 345.971847 -246.064595 
L 348.6185 -246.11181 
L 351.265153 -246.421157 
L 353.911807 -246.720684 
L 356.55846 -246.939877 
L 359.205113 -247.150259 
L 361.851767 -247.480627 
L 364.49842 -247.80374 
L 367.145073 -248.017102 
L 369.791727 -248.318471 
L 372.43838 -248.386508 
L 375.085033 -248.685926 
L 377.731687 -248.721304 
L 380.37834 -248.8583 
L 383.024993 -249.234698 
L 385.671647 -249.608203 
L 388.3183 -249.920071 
L 390.964953 -250.263196 
L 393.611607 -250.330379 
L 396.25826 -250.781961 
L 398.904913 -250.959946 
L 401.551567 -251.090519 
L 404.19822 -251.585282 
L 406.844873 -251.892043 
L 409.491527 -252.130174 
L 412.13818 -252.272803 
L 414.784833 -252.362716 
L 417.431487 -252.579389 
L 420.07814 -252.786417 
L 422.724793 -253.117749 
L 425.371447 -253.444434 
L 428.0181 -253.637938 
L 430.664753 -253.810509 
L 433.311407 -253.889703 
L 435.95806 -253.99599 
L 438.604713 -254.330632 
L 441.251367 -254.491082 
L 443.89802 -254.759856 
L 446.544673 -254.86005 
L 449.191327 -255.089435 
L 451.83798 -255.557763 
L 454.484633 -255.749535 
L 457.131287 -255.798788 
L 459.77794 -255.968663 
L 462.424593 -256.170496 
L 465.071247 -256.333532 
L 467.7179 -256.456324 
L 470.364553 -256.686389 
L 473.011207 -256.768279 
L 475.65786 -257.108774 
L 478.304513 -257.410691 
L 480.951167 -257.598517 
L 483.59782 -257.837 
L 486.244473 -257.767976 
L 488.891127 -257.857012 
L 491.53778 -257.985876 
L 494.184433 -257.920227 
L 496.831087 -258.055075 
L 499.47774 -258.238013 
L 502.124393 -258.475202 
L 504.771047 -258.677781 
L 507.4177 -258.720677 
L 510.064353 -258.777316 
L 512.711007 -258.847853 
L 515.35766 -258.898771 
L 518.004313 -259.1186 
L 520.650967 -259.289856 
L 523.29762 -259.456114 
L 525.944273 -259.561852 
L 528.590927 -259.773856 
L 531.23758 -259.822451 
L 533.884233 -259.952937 
L 536.530887 -260.065777 
L 539.17754 -260.301827 
L 541.824193 -260.444719 
L 544.470847 -260.643461 
L 547.1175 -260.770001 
L 549.764153 -260.829227 
L 552.410807 -260.97578 
L 555.05746 -261.101027 
L 557.704113 -261.169459 
L 560.350767 -261.39948 
L 562.99742 -261.500265 
L 565.644073 -261.792493 
L 568.290727 -261.880653 
L 570.93738 -262.133273 
L 573.584033 -262.314743 
L 576.230687 -262.412657 
L 578.87734 -262.541783 
L 581.523993 -262.758434 
L 584.170647 -262.923399 
L 586.8173 -263.00518 
L 589.463953 -263.14702 
L 592.110607 -263.23553 
L 594.75726 -263.467348 
L 597.403913 -263.744146 
L 600.050567 -263.637179 
L 602.69722 -263.790505 
L 605.343873 -263.742107 
L 607.990527 -264.018181 
L 610.63718 -264.101869 
L 613.283833 -264.27102 
L 615.930487 -264.37529 
L 618.57714 -264.451876 
L 621.223793 -264.549768 
L 623.870447 -264.66434 
L 626.5171 -264.861242 
L 629.163753 -264.998084 
L 631.810407 -265.31199 
L 634.45706 -265.482391 
L 637.103713 -265.648868 
L 639.750367 -265.803378 
L 642.39702 -265.85149 
L 645.043673 -265.916043 
L 647.690327 -266.039558 
L 650.33698 -266.138853 
L 652.983633 -266.335622 
L 655.630287 -266.516786 
L 658.27694 -266.517618 
L 660.923593 -266.611828 
L 663.570247 -266.769011 
L 666.2169 -266.704503 
L 668.863553 -266.888888 
L 671.510207 -266.881194 
L 674.15686 -266.928014 
L 676.803513 -266.899168 
L 679.450167 -266.941582 
L 682.09682 -266.876218 
L 684.743473 -267.216823 
L 687.390127 -267.212285 
L 690.03678 -267.568387 
L 692.683433 -267.71358 
L 695.330087 -267.83087 
L 697.97674 -268.025908 
L 700.623393 -268.058327 
L 703.270047 -268.054754 
L 705.9167 -268.120688 
L 708.563353 -268.277433 
L 711.210007 -268.33142 
L 713.85666 -268.447417 
L 716.503313 -268.490642 
L 719.149967 -268.573672 
L 721.79662 -268.816297 
L 724.443273 -268.859412 
L 727.089927 -269.021067 
L 729.73658 -268.979311 
L 732.383233 -269.00728 
L 735.029887 -269.327521 
L 737.67654 -269.379207 
L 740.323193 -269.427561 
L 742.969847 -269.59314 
L 745.6165 -269.808212 
L 748.263153 -269.95266 
L 750.909807 -269.967478 
L 753.55646 -269.940363 
L 756.203113 -270.065106 
L 758.849767 -270.163677 
L 761.49642 -270.300564 
L 764.143073 -270.357992 
L 766.789727 -270.573086 
L 769.43638 -270.618503 
L 772.083033 -270.845675 
L 774.729687 -270.94201 
L 777.37634 -270.999242 
L 780.022993 -271.044352 
L 782.669647 -271.130889 
L 785.3163 -271.067323 
L 787.962953 -271.208703 
L 790.609607 -271.242086 
L 793.25626 -271.053974 
L 795.902913 -271.188712 
L 798.549567 -271.200987 
L 801.19622 -271.216155 
L 803.842873 -271.234852 
L 806.489527 -271.455843 
L 809.13618 -271.490213 
L 811.782833 -271.581704 
L 814.429487 -271.691673 
L 817.07614 -271.786036 
L 819.722793 -271.836538 
L 822.369447 -272.075261 
L 825.0161 -272.139243 
L 827.662753 -272.132207 
L 830.309407 -272.265696 
L 832.95606 -272.325536 
L 835.602713 -272.441971 
L 838.249367 -272.388641 
L 840.89602 -272.481009 
L 843.542673 -272.553716 
L 843.542673 -372.798221 
L 843.542673 -372.798221 
L 840.89602 -372.805455 
L 838.249367 -372.800369 
L 835.602713 -372.691343 
L 832.95606 -372.655483 
L 830.309407 -372.661182 
L 827.662753 -372.718698 
L 825.0161 -372.640709 
L 822.369447 -372.593933 
L 819.722793 -372.68595 
L 817.07614 -372.684811 
L 814.429487 -372.671571 
L 811.782833 -372.685205 
L 809.13618 -372.663374 
L 806.489527 -372.61594 
L 803.842873 -372.688405 
L 801.19622 -372.627557 
L 798.549567 -372.568814 
L 795.902913 -372.505861 
L 793.25626 -372.487493 
L 790.609607 -372.271193 
L 787.962953 -372.23301 
L 785.3163 -372.302669 
L 782.669647 -372.208066 
L 780.022993 -372.190793 
L 777.37634 -372.132575 
L 774.729687 -372.137705 
L 772.083033 -372.17694 
L 769.43638 -372.271368 
L 766.789727 -372.192722 
L 764.143073 -372.267204 
L 761.49642 -372.249931 
L 758.849767 -372.338705 
L 756.203113 -372.308412 
L 753.55646 -372.349314 
L 750.909807 -372.268431 
L 748.263153 -372.170583 
L 745.6165 -372.215825 
L 742.969847 -372.314988 
L 740.323193 -372.384516 
L 737.67654 -372.357161 
L 735.029887 -372.303941 
L 732.383233 -372.443304 
L 729.73658 -372.35304 
L 727.089927 -372.270711 
L 724.443273 -372.317443 
L 721.79662 -372.29811 
L 719.149967 -372.383464 
L 716.503313 -372.354443 
L 713.85666 -372.292543 
L 711.210007 -372.316303 
L 708.563353 -372.223014 
L 705.9167 -372.231256 
L 703.270047 -372.230949 
L 700.623393 -372.196404 
L 697.97674 -372.183034 
L 695.330087 -372.237744 
L 692.683433 -372.22411 
L 690.03678 -372.224373 
L 687.390127 -372.394292 
L 684.743473 -372.298285 
L 682.09682 -372.411608 
L 679.450167 -372.264004 
L 676.803513 -372.175669 
L 674.15686 -372.028152 
L 671.510207 -371.957528 
L 668.863553 -371.838111 
L 666.2169 -371.910401 
L 663.570247 -371.769855 
L 660.923593 -371.766961 
L 658.27694 -371.708042 
L 655.630287 -371.568986 
L 652.983633 -371.553862 
L 650.33698 -371.57109 
L 647.690327 -371.545576 
L 645.043673 -371.451849 
L 642.39702 -371.400032 
L 639.750367 -371.324673 
L 637.103713 -371.363427 
L 634.45706 -371.358166 
L 631.810407 -371.400952 
L 629.163753 -371.531372 
L 626.5171 -371.505069 
L 623.870447 -371.583628 
L 621.223793 -371.514056 
L 618.57714 -371.425283 
L 615.930487 -371.386223 
L 613.283833 -371.365312 
L 610.63718 -371.40538 
L 607.990527 -371.380129 
L 605.343873 -371.492444 
L 602.69722 -371.378113 
L 600.050567 -371.384601 
L 597.403913 -371.219022 
L 594.75726 -371.334581 
L 592.110607 -371.368731 
L 589.463953 -371.31253 
L 586.8173 -371.29232 
L 584.170647 -371.181672 
L 581.523993 -371.148004 
L 578.87734 -371.151686 
L 576.230687 -371.099123 
L 573.584033 -371.059318 
L 570.93738 -371.134194 
L 568.290727 -371.181452 
L 565.644073 -371.107234 
L 562.99742 -371.195744 
L 560.350767 -371.130906 
L 557.704113 -371.195963 
L 555.05746 -371.111749 
L 552.410807 -371.033541 
L 549.764153 -370.990184 
L 547.1175 -370.891811 
L 544.470847 -370.791595 
L 541.824193 -370.769676 
L 539.17754 -370.732633 
L 536.530887 -370.779014 
L 533.884233 -370.813076 
L 531.23758 -370.774192 
L 528.590927 -370.630927 
L 525.944273 -370.648857 
L 523.29762 -370.614181 
L 520.650967 -370.526153 
L 518.004313 -370.514886 
L 515.35766 -370.549562 
L 512.711007 -370.488539 
L 510.064353 -370.439001 
L 507.4177 -370.301567 
L 504.771047 -370.172901 
L 502.124393 -370.140592 
L 499.47774 -370.092238 
L 496.831087 -369.966903 
L 494.184433 -369.920259 
L 491.53778 -369.80812 
L 488.891127 -369.766341 
L 486.244473 -369.621586 
L 483.59782 -369.464469 
L 480.951167 -369.482092 
L 478.304513 -369.448906 
L 475.65786 -369.539213 
L 473.011207 -369.57538 
L 470.364553 -369.433475 
L 467.7179 -369.473982 
L 465.071247 -369.386173 
L 462.424593 -369.29718 
L 459.77794 -369.270088 
L 457.131287 -369.153916 
L 454.484633 -369.069307 
L 451.83798 -369.055498 
L 449.191327 -369.152031 
L 446.544673 -369.190477 
L 443.89802 -369.084782 
L 441.251367 -369.080179 
L 438.604713 -368.954012 
L 435.95806 -369.016964 
L 433.311407 -368.943929 
L 430.664753 -368.806188 
L 428.0181 -368.818024 
L 425.371447 -368.798867 
L 422.724793 -368.86309 
L 420.07814 -368.912584 
L 417.431487 -368.819778 
L 414.784833 -368.840557 
L 412.13818 -368.741482 
L 409.491527 -368.630263 
L 406.844873 -368.52641 
L 404.19822 -368.539605 
L 401.551567 -368.672568 
L 398.904913 -368.589888 
L 396.25826 -368.549907 
L 393.611607 -368.687297 
L 390.964953 -368.507208 
L 388.3183 -368.547233 
L 385.671647 -368.597954 
L 383.024993 -368.564286 
L 380.37834 -368.624915 
L 377.731687 -368.461046 
L 375.085033 -368.253383 
L 372.43838 -368.285166 
L 369.791727 -368.069216 
L 367.145073 -368.103367 
L 364.49842 -368.02814 
L 361.851767 -368.035022 
L 359.205113 -368.041028 
L 356.55846 -367.969001 
L 353.911807 -367.897588 
L 351.265153 -367.902323 
L 348.6185 -367.793296 
L 345.971847 -367.625964 
L 343.325193 -367.541575 
L 340.67854 -367.539909 
L 338.031887 -367.387263 
L 335.385233 -367.171577 
L 332.73858 -367.072414 
L 330.091927 -366.992101 
L 327.445273 -366.94743 
L 324.79862 -366.897585 
L 322.151967 -366.924765 
L 319.505313 -366.840639 
L 316.85866 -366.766113 
L 314.212007 -366.788427 
L 311.565353 -366.670676 
L 308.9187 -366.653097 
L 306.272047 -366.713551 
L 303.625393 -366.516014 
L 300.97874 -366.442913 
L 298.332087 -366.496966 
L 295.685433 -366.350063 
L 293.03878 -366.361987 
L 290.392127 -366.258966 
L 287.745473 -366.104413 
L 285.09882 -366.007836 
L 282.452167 -365.798923 
L 279.805513 -365.636611 
L 277.15886 -365.618593 
L 274.512207 -365.345829 
L 271.865553 -365.172667 
L 269.2189 -365.054171 
L 266.572247 -364.863385 
L 263.925593 -364.660215 
L 261.27894 -364.746424 
L 258.632287 -364.521005 
L 255.985633 -364.430435 
L 253.33898 -364.364545 
L 250.692327 -364.118063 
L 248.045673 -363.907571 
L 245.39902 -363.909588 
L 242.752367 -363.57865 
L 240.105713 -363.360334 
L 237.45906 -363.264612 
L 234.812407 -363.149207 
L 232.165753 -362.90542 
L 229.5191 -362.650805 
L 226.872447 -362.589979 
L 224.225793 -362.382754 
L 221.57914 -362.52078 
L 218.932487 -362.36169 
L 216.285833 -362.176055 
L 213.63918 -362.323945 
L 210.992527 -362.012844 
L 208.345873 -361.636664 
L 205.69922 -361.585329 
L 203.052567 -361.393996 
L 200.405913 -361.223946 
L 197.75926 -360.888843 
L 195.112607 -361.063715 
L 192.465953 -360.757064 
L 189.8193 -360.58719 
L 187.172647 -360.454578 
L 184.525993 -360.082388 
L 181.87934 -359.729925 
L 179.232687 -359.618465 
L 176.586033 -359.407317 
L 173.93938 -359.082911 
L 171.292727 -358.768829 
L 168.646073 -358.530237 
L 165.99942 -358.443985 
L 163.352767 -357.872526 
L 160.706113 -357.448782 
L 158.05946 -357.188643 
L 155.412807 -356.611661 
L 152.766153 -356.31106 
L 150.1195 -356.134719 
L 147.472847 -355.707117 
L 144.826193 -355.427887 
L 142.17954 -355.307528 
L 139.532887 -355.42278 
L 136.886233 -354.712616 
L 134.23958 -354.177872 
L 131.592927 -353.889765 
L 128.946273 -353.146787 
L 126.29962 -352.463146 
L 123.652967 -352.057134 
L 121.006313 -351.718065 
L 118.35966 -351.199278 
L 115.713007 -350.76019 
L 113.066353 -350.408473 
L 110.4197 -349.542397 
L 107.773047 -348.836902 
L 105.126393 -348.071611 
L 102.47974 -347.141289 
L 99.833087 -346.550104 
L 97.186433 -345.626972 
L 94.53978 -344.846008 
L 91.893127 -344.380464 
L 89.246473 -343.414458 
L 86.59982 -342.92364 
L 83.953167 -341.316998 
L 81.306513 -339.970802 
L 78.65986 -338.783169 
L 76.013207 -336.953038 
L 73.366553 -335.688951 
L 70.7199 -334.033933 
L 68.073247 -330.656276 
L 65.426593 -327.693442 
L 62.77994 -323.998065 
L 60.133287 -318.721121 
L 57.486633 -314.500097 
L 54.83998 -307.756948 
L 52.193327 -308.672255 
z
" style="stroke: #0000ff; stroke-opacity: 0.2"/>
    </defs>
    <g clip-path="url(#pb07a657a9c)">
     <use xlink:href="#mcb74138904" x="0" y="432" style="fill: #0000ff; fill-opacity: 0.2; stroke: #0000ff; stroke-opacity: 0.2"/>
    </g>
   </g>
   <g id="matplotlib.axis_1">
    <g id="xtick_1">
     <g id="line2d_1">
      <defs>
       <path id="m9029ea6730" d="M 0 0 
L 0 3.5 
" style="stroke: #000000; stroke-width: 0.8"/>
      </defs>
      <g>
       <use xlink:href="#m9029ea6730" x="181.87934" y="390.04" style="stroke: #000000; stroke-width: 0.8"/>
      </g>
     </g>
     <g id="text_1">
      <!-- 50 -->
      <g transform="translate(175.51684 404.638438) scale(0.1 -0.1)">
       <defs>
        <path id="DejaVuSans-35" d="M 691 4666 
L 3169 4666 
L 3169 4134 
L 1269 4134 
L 1269 2991 
Q 1406 3038 1543 3061 
Q 1681 3084 1819 3084 
Q 2600 3084 3056 2656 
Q 3513 2228 3513 1497 
Q 3513 744 3044 326 
Q 2575 -91 1722 -91 
Q 1428 -91 1123 -41 
Q 819 9 494 109 
L 494 744 
Q 775 591 1075 516 
Q 1375 441 1709 441 
Q 2250 441 2565 725 
Q 2881 1009 2881 1497 
Q 2881 1984 2565 2268 
Q 2250 2553 1709 2553 
Q 1456 2553 1204 2497 
Q 953 2441 691 2322 
L 691 4666 
z
" transform="scale(0.015625)"/>
        <path id="DejaVuSans-30" d="M 2034 4250 
Q 1547 4250 1301 3770 
Q 1056 3291 1056 2328 
Q 1056 1369 1301 889 
Q 1547 409 2034 409 
Q 2525 409 2770 889 
Q 3016 1369 3016 2328 
Q 3016 3291 2770 3770 
Q 2525 4250 2034 4250 
z
M 2034 4750 
Q 2819 4750 3233 4129 
Q 3647 3509 3647 2328 
Q 3647 1150 3233 529 
Q 2819 -91 2034 -91 
Q 1250 -91 836 529 
Q 422 1150 422 2328 
Q 422 3509 836 4129 
Q 1250 4750 2034 4750 
z
" transform="scale(0.015625)"/>
       </defs>
       <use xlink:href="#DejaVuSans-35"/>
       <use xlink:href="#DejaVuSans-30" transform="translate(63.623047 0)"/>
      </g>
     </g>
    </g>
    <g id="xtick_2">
     <g id="line2d_2">
      <g>
       <use xlink:href="#m9029ea6730" x="314.212007" y="390.04" style="stroke: #000000; stroke-width: 0.8"/>
      </g>
     </g>
     <g id="text_2">
      <!-- 100 -->
      <g transform="translate(304.668257 404.638438) scale(0.1 -0.1)">
       <defs>
        <path id="DejaVuSans-31" d="M 794 531 
L 1825 531 
L 1825 4091 
L 703 3866 
L 703 4441 
L 1819 4666 
L 2450 4666 
L 2450 531 
L 3481 531 
L 3481 0 
L 794 0 
L 794 531 
z
" transform="scale(0.015625)"/>
       </defs>
       <use xlink:href="#DejaVuSans-31"/>
       <use xlink:href="#DejaVuSans-30" transform="translate(63.623047 0)"/>
       <use xlink:href="#DejaVuSans-30" transform="translate(127.246094 0)"/>
      </g>
     </g>
    </g>
    <g id="xtick_3">
     <g id="line2d_3">
      <g>
       <use xlink:href="#m9029ea6730" x="446.544673" y="390.04" style="stroke: #000000; stroke-width: 0.8"/>
      </g>
     </g>
     <g id="text_3">
      <!-- 150 -->
      <g transform="translate(437.000923 404.638438) scale(0.1 -0.1)">
       <use xlink:href="#DejaVuSans-31"/>
       <use xlink:href="#DejaVuSans-35" transform="translate(63.623047 0)"/>
       <use xlink:href="#DejaVuSans-30" transform="translate(127.246094 0)"/>
      </g>
     </g>
    </g>
    <g id="xtick_4">
     <g id="line2d_4">
      <g>
       <use xlink:href="#m9029ea6730" x="578.87734" y="390.04" style="stroke: #000000; stroke-width: 0.8"/>
      </g>
     </g>
     <g id="text_4">
      <!-- 200 -->
      <g transform="translate(569.33359 404.638438) scale(0.1 -0.1)">
       <defs>
        <path id="DejaVuSans-32" d="M 1228 531 
L 3431 531 
L 3431 0 
L 469 0 
L 469 531 
Q 828 903 1448 1529 
Q 2069 2156 2228 2338 
Q 2531 2678 2651 2914 
Q 2772 3150 2772 3378 
Q 2772 3750 2511 3984 
Q 2250 4219 1831 4219 
Q 1534 4219 1204 4116 
Q 875 4013 500 3803 
L 500 4441 
Q 881 4594 1212 4672 
Q 1544 4750 1819 4750 
Q 2544 4750 2975 4387 
Q 3406 4025 3406 3419 
Q 3406 3131 3298 2873 
Q 3191 2616 2906 2266 
Q 2828 2175 2409 1742 
Q 1991 1309 1228 531 
z
" transform="scale(0.015625)"/>
       </defs>
       <use xlink:href="#DejaVuSans-32"/>
       <use xlink:href="#DejaVuSans-30" transform="translate(63.623047 0)"/>
       <use xlink:href="#DejaVuSans-30" transform="translate(127.246094 0)"/>
      </g>
     </g>
    </g>
    <g id="xtick_5">
     <g id="line2d_5">
      <g>
       <use xlink:href="#m9029ea6730" x="711.210007" y="390.04" style="stroke: #000000; stroke-width: 0.8"/>
      </g>
     </g>
     <g id="text_5">
      <!-- 250 -->
      <g transform="translate(701.666257 404.638438) scale(0.1 -0.1)">
       <use xlink:href="#DejaVuSans-32"/>
       <use xlink:href="#DejaVuSans-35" transform="translate(63.623047 0)"/>
       <use xlink:href="#DejaVuSans-30" transform="translate(127.246094 0)"/>
      </g>
     </g>
    </g>
    <g id="xtick_6">
     <g id="line2d_6">
      <g>
       <use xlink:href="#m9029ea6730" x="843.542673" y="390.04" style="stroke: #000000; stroke-width: 0.8"/>
      </g>
     </g>
     <g id="text_6">
      <!-- 300 -->
      <g transform="translate(833.998923 404.638438) scale(0.1 -0.1)">
       <defs>
        <path id="DejaVuSans-33" d="M 2597 2516 
Q 3050 2419 3304 2112 
Q 3559 1806 3559 1356 
Q 3559 666 3084 287 
Q 2609 -91 1734 -91 
Q 1441 -91 1130 -33 
Q 819 25 488 141 
L 488 750 
Q 750 597 1062 519 
Q 1375 441 1716 441 
Q 2309 441 2620 675 
Q 2931 909 2931 1356 
Q 2931 1769 2642 2001 
Q 2353 2234 1838 2234 
L 1294 2234 
L 1294 2753 
L 1863 2753 
Q 2328 2753 2575 2939 
Q 2822 3125 2822 3475 
Q 2822 3834 2567 4026 
Q 2313 4219 1838 4219 
Q 1578 4219 1281 4162 
Q 984 4106 628 3988 
L 628 4550 
Q 988 4650 1302 4700 
Q 1616 4750 1894 4750 
Q 2613 4750 3031 4423 
Q 3450 4097 3450 3541 
Q 3450 3153 3228 2886 
Q 3006 2619 2597 2516 
z
" transform="scale(0.015625)"/>
       </defs>
       <use xlink:href="#DejaVuSans-33"/>
       <use xlink:href="#DejaVuSans-30" transform="translate(63.623047 0)"/>
       <use xlink:href="#DejaVuSans-30" transform="translate(127.246094 0)"/>
      </g>
     </g>
    </g>
    <g id="text_7">
     <!-- Step -->
     <g transform="translate(436.482844 418.316562) scale(0.1 -0.1)">
      <defs>
       <path id="DejaVuSans-53" d="M 3425 4513 
L 3425 3897 
Q 3066 4069 2747 4153 
Q 2428 4238 2131 4238 
Q 1616 4238 1336 4038 
Q 1056 3838 1056 3469 
Q 1056 3159 1242 3001 
Q 1428 2844 1947 2747 
L 2328 2669 
Q 3034 2534 3370 2195 
Q 3706 1856 3706 1288 
Q 3706 609 3251 259 
Q 2797 -91 1919 -91 
Q 1588 -91 1214 -16 
Q 841 59 441 206 
L 441 856 
Q 825 641 1194 531 
Q 1563 422 1919 422 
Q 2459 422 2753 634 
Q 3047 847 3047 1241 
Q 3047 1584 2836 1778 
Q 2625 1972 2144 2069 
L 1759 2144 
Q 1053 2284 737 2584 
Q 422 2884 422 3419 
Q 422 4038 858 4394 
Q 1294 4750 2059 4750 
Q 2388 4750 2728 4690 
Q 3069 4631 3425 4513 
z
" transform="scale(0.015625)"/>
       <path id="DejaVuSans-74" d="M 1172 4494 
L 1172 3500 
L 2356 3500 
L 2356 3053 
L 1172 3053 
L 1172 1153 
Q 1172 725 1289 603 
Q 1406 481 1766 481 
L 2356 481 
L 2356 0 
L 1766 0 
Q 1100 0 847 248 
Q 594 497 594 1153 
L 594 3053 
L 172 3053 
L 172 3500 
L 594 3500 
L 594 4494 
L 1172 4494 
z
" transform="scale(0.015625)"/>
       <path id="DejaVuSans-65" d="M 3597 1894 
L 3597 1613 
L 953 1613 
Q 991 1019 1311 708 
Q 1631 397 2203 397 
Q 2534 397 2845 478 
Q 3156 559 3463 722 
L 3463 178 
Q 3153 47 2828 -22 
Q 2503 -91 2169 -91 
Q 1331 -91 842 396 
Q 353 884 353 1716 
Q 353 2575 817 3079 
Q 1281 3584 2069 3584 
Q 2775 3584 3186 3129 
Q 3597 2675 3597 1894 
z
M 3022 2063 
Q 3016 2534 2758 2815 
Q 2500 3097 2075 3097 
Q 1594 3097 1305 2825 
Q 1016 2553 972 2059 
L 3022 2063 
z
" transform="scale(0.015625)"/>
       <path id="DejaVuSans-70" d="M 1159 525 
L 1159 -1331 
L 581 -1331 
L 581 3500 
L 1159 3500 
L 1159 2969 
Q 1341 3281 1617 3432 
Q 1894 3584 2278 3584 
Q 2916 3584 3314 3078 
Q 3713 2572 3713 1747 
Q 3713 922 3314 415 
Q 2916 -91 2278 -91 
Q 1894 -91 1617 61 
Q 1341 213 1159 525 
z
M 3116 1747 
Q 3116 2381 2855 2742 
Q 2594 3103 2138 3103 
Q 1681 3103 1420 2742 
Q 1159 2381 1159 1747 
Q 1159 1113 1420 752 
Q 1681 391 2138 391 
Q 2594 391 2855 752 
Q 3116 1113 3116 1747 
z
" transform="scale(0.015625)"/>
      </defs>
      <use xlink:href="#DejaVuSans-53"/>
      <use xlink:href="#DejaVuSans-74" transform="translate(63.476562 0)"/>
      <use xlink:href="#DejaVuSans-65" transform="translate(102.685547 0)"/>
      <use xlink:href="#DejaVuSans-70" transform="translate(164.208984 0)"/>
     </g>
    </g>
   </g>
   <g id="matplotlib.axis_2">
    <g id="ytick_1">
     <g id="line2d_7">
      <defs>
       <path id="mac1c5d3b46" d="M 0 0 
L -3.5 0 
" style="stroke: #000000; stroke-width: 0.8"/>
      </defs>
      <g>
       <use xlink:href="#mac1c5d3b46" x="50.87" y="375.553355" style="stroke: #000000; stroke-width: 0.8"/>
      </g>
     </g>
     <g id="text_8">
      <!-- 20 -->
      <g transform="translate(31.145 379.352574) scale(0.1 -0.1)">
       <use xlink:href="#DejaVuSans-32"/>
       <use xlink:href="#DejaVuSans-30" transform="translate(63.623047 0)"/>
      </g>
     </g>
    </g>
    <g id="ytick_2">
     <g id="line2d_8">
      <g>
       <use xlink:href="#mac1c5d3b46" x="50.87" y="318.093184" style="stroke: #000000; stroke-width: 0.8"/>
      </g>
     </g>
     <g id="text_9">
      <!-- 40 -->
      <g transform="translate(31.145 321.892403) scale(0.1 -0.1)">
       <defs>
        <path id="DejaVuSans-34" d="M 2419 4116 
L 825 1625 
L 2419 1625 
L 2419 4116 
z
M 2253 4666 
L 3047 4666 
L 3047 1625 
L 3713 1625 
L 3713 1100 
L 3047 1100 
L 3047 0 
L 2419 0 
L 2419 1100 
L 313 1100 
L 313 1709 
L 2253 4666 
z
" transform="scale(0.015625)"/>
       </defs>
       <use xlink:href="#DejaVuSans-34"/>
       <use xlink:href="#DejaVuSans-30" transform="translate(63.623047 0)"/>
      </g>
     </g>
    </g>
    <g id="ytick_3">
     <g id="line2d_9">
      <g>
       <use xlink:href="#mac1c5d3b46" x="50.87" y="260.633013" style="stroke: #000000; stroke-width: 0.8"/>
      </g>
     </g>
     <g id="text_10">
      <!-- 60 -->
      <g transform="translate(31.145 264.432232) scale(0.1 -0.1)">
       <defs>
        <path id="DejaVuSans-36" d="M 2113 2584 
Q 1688 2584 1439 2293 
Q 1191 2003 1191 1497 
Q 1191 994 1439 701 
Q 1688 409 2113 409 
Q 2538 409 2786 701 
Q 3034 994 3034 1497 
Q 3034 2003 2786 2293 
Q 2538 2584 2113 2584 
z
M 3366 4563 
L 3366 3988 
Q 3128 4100 2886 4159 
Q 2644 4219 2406 4219 
Q 1781 4219 1451 3797 
Q 1122 3375 1075 2522 
Q 1259 2794 1537 2939 
Q 1816 3084 2150 3084 
Q 2853 3084 3261 2657 
Q 3669 2231 3669 1497 
Q 3669 778 3244 343 
Q 2819 -91 2113 -91 
Q 1303 -91 875 529 
Q 447 1150 447 2328 
Q 447 3434 972 4092 
Q 1497 4750 2381 4750 
Q 2619 4750 2861 4703 
Q 3103 4656 3366 4563 
z
" transform="scale(0.015625)"/>
       </defs>
       <use xlink:href="#DejaVuSans-36"/>
       <use xlink:href="#DejaVuSans-30" transform="translate(63.623047 0)"/>
      </g>
     </g>
    </g>
    <g id="ytick_4">
     <g id="line2d_10">
      <g>
       <use xlink:href="#mac1c5d3b46" x="50.87" y="203.172842" style="stroke: #000000; stroke-width: 0.8"/>
      </g>
     </g>
     <g id="text_11">
      <!-- 80 -->
      <g transform="translate(31.145 206.972061) scale(0.1 -0.1)">
       <defs>
        <path id="DejaVuSans-38" d="M 2034 2216 
Q 1584 2216 1326 1975 
Q 1069 1734 1069 1313 
Q 1069 891 1326 650 
Q 1584 409 2034 409 
Q 2484 409 2743 651 
Q 3003 894 3003 1313 
Q 3003 1734 2745 1975 
Q 2488 2216 2034 2216 
z
M 1403 2484 
Q 997 2584 770 2862 
Q 544 3141 544 3541 
Q 544 4100 942 4425 
Q 1341 4750 2034 4750 
Q 2731 4750 3128 4425 
Q 3525 4100 3525 3541 
Q 3525 3141 3298 2862 
Q 3072 2584 2669 2484 
Q 3125 2378 3379 2068 
Q 3634 1759 3634 1313 
Q 3634 634 3220 271 
Q 2806 -91 2034 -91 
Q 1263 -91 848 271 
Q 434 634 434 1313 
Q 434 1759 690 2068 
Q 947 2378 1403 2484 
z
M 1172 3481 
Q 1172 3119 1398 2916 
Q 1625 2713 2034 2713 
Q 2441 2713 2670 2916 
Q 2900 3119 2900 3481 
Q 2900 3844 2670 4047 
Q 2441 4250 2034 4250 
Q 1625 4250 1398 4047 
Q 1172 3844 1172 3481 
z
" transform="scale(0.015625)"/>
       </defs>
       <use xlink:href="#DejaVuSans-38"/>
       <use xlink:href="#DejaVuSans-30" transform="translate(63.623047 0)"/>
      </g>
     </g>
    </g>
    <g id="ytick_5">
     <g id="line2d_11">
      <g>
       <use xlink:href="#mac1c5d3b46" x="50.87" y="145.712671" style="stroke: #000000; stroke-width: 0.8"/>
      </g>
     </g>
     <g id="text_12">
      <!-- 100 -->
      <g transform="translate(24.7825 149.51189) scale(0.1 -0.1)">
       <use xlink:href="#DejaVuSans-31"/>
       <use xlink:href="#DejaVuSans-30" transform="translate(63.623047 0)"/>
       <use xlink:href="#DejaVuSans-30" transform="translate(127.246094 0)"/>
      </g>
     </g>
    </g>
    <g id="ytick_6">
     <g id="line2d_12">
      <g>
       <use xlink:href="#mac1c5d3b46" x="50.87" y="88.2525" style="stroke: #000000; stroke-width: 0.8"/>
      </g>
     </g>
     <g id="text_13">
      <!-- 120 -->
      <g transform="translate(24.7825 92.051719) scale(0.1 -0.1)">
       <use xlink:href="#DejaVuSans-31"/>
       <use xlink:href="#DejaVuSans-32" transform="translate(63.623047 0)"/>
       <use xlink:href="#DejaVuSans-30" transform="translate(127.246094 0)"/>
      </g>
     </g>
    </g>
    <g id="text_14">
     <!-- Profit -->
     <g transform="translate(18.702813 229.779063) rotate(-90) scale(0.1 -0.1)">
      <defs>
       <path id="DejaVuSans-50" d="M 1259 4147 
L 1259 2394 
L 2053 2394 
Q 2494 2394 2734 2622 
Q 2975 2850 2975 3272 
Q 2975 3691 2734 3919 
Q 2494 4147 2053 4147 
L 1259 4147 
z
M 628 4666 
L 2053 4666 
Q 2838 4666 3239 4311 
Q 3641 3956 3641 3272 
Q 3641 2581 3239 2228 
Q 2838 1875 2053 1875 
L 1259 1875 
L 1259 0 
L 628 0 
L 628 4666 
z
" transform="scale(0.015625)"/>
       <path id="DejaVuSans-72" d="M 2631 2963 
Q 2534 3019 2420 3045 
Q 2306 3072 2169 3072 
Q 1681 3072 1420 2755 
Q 1159 2438 1159 1844 
L 1159 0 
L 581 0 
L 581 3500 
L 1159 3500 
L 1159 2956 
Q 1341 3275 1631 3429 
Q 1922 3584 2338 3584 
Q 2397 3584 2469 3576 
Q 2541 3569 2628 3553 
L 2631 2963 
z
" transform="scale(0.015625)"/>
       <path id="DejaVuSans-6f" d="M 1959 3097 
Q 1497 3097 1228 2736 
Q 959 2375 959 1747 
Q 959 1119 1226 758 
Q 1494 397 1959 397 
Q 2419 397 2687 759 
Q 2956 1122 2956 1747 
Q 2956 2369 2687 2733 
Q 2419 3097 1959 3097 
z
M 1959 3584 
Q 2709 3584 3137 3096 
Q 3566 2609 3566 1747 
Q 3566 888 3137 398 
Q 2709 -91 1959 -91 
Q 1206 -91 779 398 
Q 353 888 353 1747 
Q 353 2609 779 3096 
Q 1206 3584 1959 3584 
z
" transform="scale(0.015625)"/>
       <path id="DejaVuSans-66" d="M 2375 4863 
L 2375 4384 
L 1825 4384 
Q 1516 4384 1395 4259 
Q 1275 4134 1275 3809 
L 1275 3500 
L 2222 3500 
L 2222 3053 
L 1275 3053 
L 1275 0 
L 697 0 
L 697 3053 
L 147 3053 
L 147 3500 
L 697 3500 
L 697 3744 
Q 697 4328 969 4595 
Q 1241 4863 1831 4863 
L 2375 4863 
z
" transform="scale(0.015625)"/>
       <path id="DejaVuSans-69" d="M 603 3500 
L 1178 3500 
L 1178 0 
L 603 0 
L 603 3500 
z
M 603 4863 
L 1178 4863 
L 1178 4134 
L 603 4134 
L 603 4863 
z
" transform="scale(0.015625)"/>
      </defs>
      <use xlink:href="#DejaVuSans-50"/>
      <use xlink:href="#DejaVuSans-72" transform="translate(58.552734 0)"/>
      <use xlink:href="#DejaVuSans-6f" transform="translate(97.416016 0)"/>
      <use xlink:href="#DejaVuSans-66" transform="translate(158.597656 0)"/>
      <use xlink:href="#DejaVuSans-69" transform="translate(193.802734 0)"/>
      <use xlink:href="#DejaVuSans-74" transform="translate(221.585938 0)"/>
     </g>
    </g>
   </g>
   <g id="line2d_13">
    <path d="M 52.193327 248.8066 
L 54.83998 248.809866 
L 60.133287 232.340766 
L 62.77994 224.792762 
L 65.426593 218.369986 
L 68.073247 212.37867 
L 70.7199 206.989149 
L 73.366553 202.360819 
L 76.013207 198.153231 
L 78.65986 194.233356 
L 86.59982 184.698892 
L 91.893127 179.522997 
L 94.53978 177.383693 
L 105.126393 169.704524 
L 110.4197 166.507767 
L 113.066353 165.015149 
L 115.713007 163.761803 
L 121.006313 161.109347 
L 131.592927 156.66343 
L 139.532887 153.69413 
L 142.17954 152.77685 
L 155.412807 149.062776 
L 163.352767 147.037913 
L 168.646073 145.907249 
L 173.93938 144.715605 
L 195.112607 140.79459 
L 200.405913 139.887942 
L 218.932487 136.899791 
L 242.752367 134.007209 
L 261.27894 132.001876 
L 277.15886 130.587138 
L 282.452167 130.097877 
L 295.685433 129.037946 
L 300.97874 128.556993 
L 303.625393 128.242977 
L 343.325193 125.330908 
L 356.55846 124.545561 
L 430.664753 120.691641 
L 449.191327 119.879267 
L 454.484633 119.590568 
L 459.77794 119.380625 
L 491.53778 118.103013 
L 496.831087 117.989011 
L 504.771047 117.574648 
L 610.63718 114.246376 
L 645.043673 113.316054 
L 655.630287 112.957103 
L 700.623393 111.872645 
L 708.563353 111.749787 
L 724.443273 111.411572 
L 758.849767 110.748798 
L 769.43638 110.555053 
L 782.669647 110.330534 
L 795.902913 110.152724 
L 822.369447 109.665392 
L 843.542673 109.324042 
L 843.542673 109.324042 
" clip-path="url(#pb07a657a9c)" style="fill: none; stroke: #0000ff; stroke-width: 1.5; stroke-linecap: square"/>
   </g>
   <g id="patch_3">
    <path d="M 50.87 390.04 
L 50.87 43.44 
" style="fill: none; stroke: #000000; stroke-width: 0.8; stroke-linejoin: miter; stroke-linecap: square"/>
   </g>
   <g id="patch_4">
    <path d="M 844.866 390.04 
L 844.866 43.44 
" style="fill: none; stroke: #000000; stroke-width: 0.8; stroke-linejoin: miter; stroke-linecap: square"/>
   </g>
   <g id="patch_5">
    <path d="M 50.87 390.04 
L 844.866 390.04 
" style="fill: none; stroke: #000000; stroke-width: 0.8; stroke-linejoin: miter; stroke-linecap: square"/>
   </g>
   <g id="patch_6">
    <path d="M 50.87 43.44 
L 844.866 43.44 
" style="fill: none; stroke: #000000; stroke-width: 0.8; stroke-linejoin: miter; stroke-linecap: square"/>
   </g>
   <g id="text_15">
    <!-- Mean profit per step with confidence interval per simulation step -->
    <g transform="translate(220.284875 21.763062) scale(0.14 -0.14)">
     <defs>
      <path id="DejaVuSans-4d" d="M 628 4666 
L 1569 4666 
L 2759 1491 
L 3956 4666 
L 4897 4666 
L 4897 0 
L 4281 0 
L 4281 4097 
L 3078 897 
L 2444 897 
L 1241 4097 
L 1241 0 
L 628 0 
L 628 4666 
z
" transform="scale(0.015625)"/>
      <path id="DejaVuSans-61" d="M 2194 1759 
Q 1497 1759 1228 1600 
Q 959 1441 959 1056 
Q 959 750 1161 570 
Q 1363 391 1709 391 
Q 2188 391 2477 730 
Q 2766 1069 2766 1631 
L 2766 1759 
L 2194 1759 
z
M 3341 1997 
L 3341 0 
L 2766 0 
L 2766 531 
Q 2569 213 2275 61 
Q 1981 -91 1556 -91 
Q 1019 -91 701 211 
Q 384 513 384 1019 
Q 384 1609 779 1909 
Q 1175 2209 1959 2209 
L 2766 2209 
L 2766 2266 
Q 2766 2663 2505 2880 
Q 2244 3097 1772 3097 
Q 1472 3097 1187 3025 
Q 903 2953 641 2809 
L 641 3341 
Q 956 3463 1253 3523 
Q 1550 3584 1831 3584 
Q 2591 3584 2966 3190 
Q 3341 2797 3341 1997 
z
" transform="scale(0.015625)"/>
      <path id="DejaVuSans-6e" d="M 3513 2113 
L 3513 0 
L 2938 0 
L 2938 2094 
Q 2938 2591 2744 2837 
Q 2550 3084 2163 3084 
Q 1697 3084 1428 2787 
Q 1159 2491 1159 1978 
L 1159 0 
L 581 0 
L 581 3500 
L 1159 3500 
L 1159 2956 
Q 1366 3272 1645 3428 
Q 1925 3584 2291 3584 
Q 2894 3584 3203 3211 
Q 3513 2838 3513 2113 
z
" transform="scale(0.015625)"/>
      <path id="DejaVuSans-20" transform="scale(0.015625)"/>
      <path id="DejaVuSans-73" d="M 2834 3397 
L 2834 2853 
Q 2591 2978 2328 3040 
Q 2066 3103 1784 3103 
Q 1356 3103 1142 2972 
Q 928 2841 928 2578 
Q 928 2378 1081 2264 
Q 1234 2150 1697 2047 
L 1894 2003 
Q 2506 1872 2764 1633 
Q 3022 1394 3022 966 
Q 3022 478 2636 193 
Q 2250 -91 1575 -91 
Q 1294 -91 989 -36 
Q 684 19 347 128 
L 347 722 
Q 666 556 975 473 
Q 1284 391 1588 391 
Q 1994 391 2212 530 
Q 2431 669 2431 922 
Q 2431 1156 2273 1281 
Q 2116 1406 1581 1522 
L 1381 1569 
Q 847 1681 609 1914 
Q 372 2147 372 2553 
Q 372 3047 722 3315 
Q 1072 3584 1716 3584 
Q 2034 3584 2315 3537 
Q 2597 3491 2834 3397 
z
" transform="scale(0.015625)"/>
      <path id="DejaVuSans-77" d="M 269 3500 
L 844 3500 
L 1563 769 
L 2278 3500 
L 2956 3500 
L 3675 769 
L 4391 3500 
L 4966 3500 
L 4050 0 
L 3372 0 
L 2619 2869 
L 1863 0 
L 1184 0 
L 269 3500 
z
" transform="scale(0.015625)"/>
      <path id="DejaVuSans-68" d="M 3513 2113 
L 3513 0 
L 2938 0 
L 2938 2094 
Q 2938 2591 2744 2837 
Q 2550 3084 2163 3084 
Q 1697 3084 1428 2787 
Q 1159 2491 1159 1978 
L 1159 0 
L 581 0 
L 581 4863 
L 1159 4863 
L 1159 2956 
Q 1366 3272 1645 3428 
Q 1925 3584 2291 3584 
Q 2894 3584 3203 3211 
Q 3513 2838 3513 2113 
z
" transform="scale(0.015625)"/>
      <path id="DejaVuSans-63" d="M 3122 3366 
L 3122 2828 
Q 2878 2963 2633 3030 
Q 2388 3097 2138 3097 
Q 1578 3097 1268 2742 
Q 959 2388 959 1747 
Q 959 1106 1268 751 
Q 1578 397 2138 397 
Q 2388 397 2633 464 
Q 2878 531 3122 666 
L 3122 134 
Q 2881 22 2623 -34 
Q 2366 -91 2075 -91 
Q 1284 -91 818 406 
Q 353 903 353 1747 
Q 353 2603 823 3093 
Q 1294 3584 2113 3584 
Q 2378 3584 2631 3529 
Q 2884 3475 3122 3366 
z
" transform="scale(0.015625)"/>
      <path id="DejaVuSans-64" d="M 2906 2969 
L 2906 4863 
L 3481 4863 
L 3481 0 
L 2906 0 
L 2906 525 
Q 2725 213 2448 61 
Q 2172 -91 1784 -91 
Q 1150 -91 751 415 
Q 353 922 353 1747 
Q 353 2572 751 3078 
Q 1150 3584 1784 3584 
Q 2172 3584 2448 3432 
Q 2725 3281 2906 2969 
z
M 947 1747 
Q 947 1113 1208 752 
Q 1469 391 1925 391 
Q 2381 391 2643 752 
Q 2906 1113 2906 1747 
Q 2906 2381 2643 2742 
Q 2381 3103 1925 3103 
Q 1469 3103 1208 2742 
Q 947 2381 947 1747 
z
" transform="scale(0.015625)"/>
      <path id="DejaVuSans-76" d="M 191 3500 
L 800 3500 
L 1894 563 
L 2988 3500 
L 3597 3500 
L 2284 0 
L 1503 0 
L 191 3500 
z
" transform="scale(0.015625)"/>
      <path id="DejaVuSans-6c" d="M 603 4863 
L 1178 4863 
L 1178 0 
L 603 0 
L 603 4863 
z
" transform="scale(0.015625)"/>
      <path id="DejaVuSans-6d" d="M 3328 2828 
Q 3544 3216 3844 3400 
Q 4144 3584 4550 3584 
Q 5097 3584 5394 3201 
Q 5691 2819 5691 2113 
L 5691 0 
L 5113 0 
L 5113 2094 
Q 5113 2597 4934 2840 
Q 4756 3084 4391 3084 
Q 3944 3084 3684 2787 
Q 3425 2491 3425 1978 
L 3425 0 
L 2847 0 
L 2847 2094 
Q 2847 2600 2669 2842 
Q 2491 3084 2119 3084 
Q 1678 3084 1418 2786 
Q 1159 2488 1159 1978 
L 1159 0 
L 581 0 
L 581 3500 
L 1159 3500 
L 1159 2956 
Q 1356 3278 1631 3431 
Q 1906 3584 2284 3584 
Q 2666 3584 2933 3390 
Q 3200 3197 3328 2828 
z
" transform="scale(0.015625)"/>
      <path id="DejaVuSans-75" d="M 544 1381 
L 544 3500 
L 1119 3500 
L 1119 1403 
Q 1119 906 1312 657 
Q 1506 409 1894 409 
Q 2359 409 2629 706 
Q 2900 1003 2900 1516 
L 2900 3500 
L 3475 3500 
L 3475 0 
L 2900 0 
L 2900 538 
Q 2691 219 2414 64 
Q 2138 -91 1772 -91 
Q 1169 -91 856 284 
Q 544 659 544 1381 
z
M 1991 3584 
L 1991 3584 
z
" transform="scale(0.015625)"/>
     </defs>
     <use xlink:href="#DejaVuSans-4d"/>
     <use xlink:href="#DejaVuSans-65" transform="translate(86.279297 0)"/>
     <use xlink:href="#DejaVuSans-61" transform="translate(147.802734 0)"/>
     <use xlink:href="#DejaVuSans-6e" transform="translate(209.082031 0)"/>
     <use xlink:href="#DejaVuSans-20" transform="translate(272.460938 0)"/>
     <use xlink:href="#DejaVuSans-70" transform="translate(304.248047 0)"/>
     <use xlink:href="#DejaVuSans-72" transform="translate(367.724609 0)"/>
     <use xlink:href="#DejaVuSans-6f" transform="translate(406.587891 0)"/>
     <use xlink:href="#DejaVuSans-66" transform="translate(467.769531 0)"/>
     <use xlink:href="#DejaVuSans-69" transform="translate(502.974609 0)"/>
     <use xlink:href="#DejaVuSans-74" transform="translate(530.757812 0)"/>
     <use xlink:href="#DejaVuSans-20" transform="translate(569.966797 0)"/>
     <use xlink:href="#DejaVuSans-70" transform="translate(601.753906 0)"/>
     <use xlink:href="#DejaVuSans-65" transform="translate(665.230469 0)"/>
     <use xlink:href="#DejaVuSans-72" transform="translate(726.753906 0)"/>
     <use xlink:href="#DejaVuSans-20" transform="translate(767.867188 0)"/>
     <use xlink:href="#DejaVuSans-73" transform="translate(799.654297 0)"/>
     <use xlink:href="#DejaVuSans-74" transform="translate(851.753906 0)"/>
     <use xlink:href="#DejaVuSans-65" transform="translate(890.962891 0)"/>
     <use xlink:href="#DejaVuSans-70" transform="translate(952.486328 0)"/>
     <use xlink:href="#DejaVuSans-20" transform="translate(1015.962891 0)"/>
     <use xlink:href="#DejaVuSans-77" transform="translate(1047.75 0)"/>
     <use xlink:href="#DejaVuSans-69" transform="translate(1129.537109 0)"/>
     <use xlink:href="#DejaVuSans-74" transform="translate(1157.320312 0)"/>
     <use xlink:href="#DejaVuSans-68" transform="translate(1196.529297 0)"/>
     <use xlink:href="#DejaVuSans-20" transform="translate(1259.908203 0)"/>
     <use xlink:href="#DejaVuSans-63" transform="translate(1291.695312 0)"/>
     <use xlink:href="#DejaVuSans-6f" transform="translate(1346.675781 0)"/>
     <use xlink:href="#DejaVuSans-6e" transform="translate(1407.857422 0)"/>
     <use xlink:href="#DejaVuSans-66" transform="translate(1471.236328 0)"/>
     <use xlink:href="#DejaVuSans-69" transform="translate(1506.441406 0)"/>
     <use xlink:href="#DejaVuSans-64" transform="translate(1534.224609 0)"/>
     <use xlink:href="#DejaVuSans-65" transform="translate(1597.701172 0)"/>
     <use xlink:href="#DejaVuSans-6e" transform="translate(1659.224609 0)"/>
     <use xlink:href="#DejaVuSans-63" transform="translate(1722.603516 0)"/>
     <use xlink:href="#DejaVuSans-65" transform="translate(1777.583984 0)"/>
     <use xlink:href="#DejaVuSans-20" transform="translate(1839.107422 0)"/>
     <use xlink:href="#DejaVuSans-69" transform="translate(1870.894531 0)"/>
     <use xlink:href="#DejaVuSans-6e" transform="translate(1898.677734 0)"/>
     <use xlink:href="#DejaVuSans-74" transform="translate(1962.056641 0)"/>
     <use xlink:href="#DejaVuSans-65" transform="translate(2001.265625 0)"/>
     <use xlink:href="#DejaVuSans-72" transform="translate(2062.789062 0)"/>
     <use xlink:href="#DejaVuSans-76" transform="translate(2103.902344 0)"/>
     <use xlink:href="#DejaVuSans-61" transform="translate(2163.082031 0)"/>
     <use xlink:href="#DejaVuSans-6c" transform="translate(2224.361328 0)"/>
     <use xlink:href="#DejaVuSans-20" transform="translate(2252.144531 0)"/>
     <use xlink:href="#DejaVuSans-70" transform="translate(2283.931641 0)"/>
     <use xlink:href="#DejaVuSans-65" transform="translate(2347.408203 0)"/>
     <use xlink:href="#DejaVuSans-72" transform="translate(2408.931641 0)"/>
     <use xlink:href="#DejaVuSans-20" transform="translate(2450.044922 0)"/>
     <use xlink:href="#DejaVuSans-73" transform="translate(2481.832031 0)"/>
     <use xlink:href="#DejaVuSans-69" transform="translate(2533.931641 0)"/>
     <use xlink:href="#DejaVuSans-6d" transform="translate(2561.714844 0)"/>
     <use xlink:href="#DejaVuSans-75" transform="translate(2659.126953 0)"/>
     <use xlink:href="#DejaVuSans-6c" transform="translate(2722.505859 0)"/>
     <use xlink:href="#DejaVuSans-61" transform="translate(2750.289062 0)"/>
     <use xlink:href="#DejaVuSans-74" transform="translate(2811.568359 0)"/>
     <use xlink:href="#DejaVuSans-69" transform="translate(2850.777344 0)"/>
     <use xlink:href="#DejaVuSans-6f" transform="translate(2878.560547 0)"/>
     <use xlink:href="#DejaVuSans-6e" transform="translate(2939.742188 0)"/>
     <use xlink:href="#DejaVuSans-20" transform="translate(3003.121094 0)"/>
     <use xlink:href="#DejaVuSans-73" transform="translate(3034.908203 0)"/>
     <use xlink:href="#DejaVuSans-74" transform="translate(3087.007812 0)"/>
     <use xlink:href="#DejaVuSans-65" transform="translate(3126.216797 0)"/>
     <use xlink:href="#DejaVuSans-70" transform="translate(3187.740234 0)"/>
    </g>
    <!-- Base Product: Grandaddy Purple, Recipe size: 7, T0: 10.0 -->
    <g transform="translate(248.283781 37.44) scale(0.14 -0.14)">
     <defs>
      <path id="DejaVuSans-42" d="M 1259 2228 
L 1259 519 
L 2272 519 
Q 2781 519 3026 730 
Q 3272 941 3272 1375 
Q 3272 1813 3026 2020 
Q 2781 2228 2272 2228 
L 1259 2228 
z
M 1259 4147 
L 1259 2741 
L 2194 2741 
Q 2656 2741 2882 2914 
Q 3109 3088 3109 3444 
Q 3109 3797 2882 3972 
Q 2656 4147 2194 4147 
L 1259 4147 
z
M 628 4666 
L 2241 4666 
Q 2963 4666 3353 4366 
Q 3744 4066 3744 3513 
Q 3744 3084 3544 2831 
Q 3344 2578 2956 2516 
Q 3422 2416 3680 2098 
Q 3938 1781 3938 1306 
Q 3938 681 3513 340 
Q 3088 0 2303 0 
L 628 0 
L 628 4666 
z
" transform="scale(0.015625)"/>
      <path id="DejaVuSans-3a" d="M 750 794 
L 1409 794 
L 1409 0 
L 750 0 
L 750 794 
z
M 750 3309 
L 1409 3309 
L 1409 2516 
L 750 2516 
L 750 3309 
z
" transform="scale(0.015625)"/>
      <path id="DejaVuSans-47" d="M 3809 666 
L 3809 1919 
L 2778 1919 
L 2778 2438 
L 4434 2438 
L 4434 434 
Q 4069 175 3628 42 
Q 3188 -91 2688 -91 
Q 1594 -91 976 548 
Q 359 1188 359 2328 
Q 359 3472 976 4111 
Q 1594 4750 2688 4750 
Q 3144 4750 3555 4637 
Q 3966 4525 4313 4306 
L 4313 3634 
Q 3963 3931 3569 4081 
Q 3175 4231 2741 4231 
Q 1884 4231 1454 3753 
Q 1025 3275 1025 2328 
Q 1025 1384 1454 906 
Q 1884 428 2741 428 
Q 3075 428 3337 486 
Q 3600 544 3809 666 
z
" transform="scale(0.015625)"/>
      <path id="DejaVuSans-79" d="M 2059 -325 
Q 1816 -950 1584 -1140 
Q 1353 -1331 966 -1331 
L 506 -1331 
L 506 -850 
L 844 -850 
Q 1081 -850 1212 -737 
Q 1344 -625 1503 -206 
L 1606 56 
L 191 3500 
L 800 3500 
L 1894 763 
L 2988 3500 
L 3597 3500 
L 2059 -325 
z
" transform="scale(0.015625)"/>
      <path id="DejaVuSans-2c" d="M 750 794 
L 1409 794 
L 1409 256 
L 897 -744 
L 494 -744 
L 750 256 
L 750 794 
z
" transform="scale(0.015625)"/>
      <path id="DejaVuSans-52" d="M 2841 2188 
Q 3044 2119 3236 1894 
Q 3428 1669 3622 1275 
L 4263 0 
L 3584 0 
L 2988 1197 
Q 2756 1666 2539 1819 
Q 2322 1972 1947 1972 
L 1259 1972 
L 1259 0 
L 628 0 
L 628 4666 
L 2053 4666 
Q 2853 4666 3247 4331 
Q 3641 3997 3641 3322 
Q 3641 2881 3436 2590 
Q 3231 2300 2841 2188 
z
M 1259 4147 
L 1259 2491 
L 2053 2491 
Q 2509 2491 2742 2702 
Q 2975 2913 2975 3322 
Q 2975 3731 2742 3939 
Q 2509 4147 2053 4147 
L 1259 4147 
z
" transform="scale(0.015625)"/>
      <path id="DejaVuSans-7a" d="M 353 3500 
L 3084 3500 
L 3084 2975 
L 922 459 
L 3084 459 
L 3084 0 
L 275 0 
L 275 525 
L 2438 3041 
L 353 3041 
L 353 3500 
z
" transform="scale(0.015625)"/>
      <path id="DejaVuSans-37" d="M 525 4666 
L 3525 4666 
L 3525 4397 
L 1831 0 
L 1172 0 
L 2766 4134 
L 525 4134 
L 525 4666 
z
" transform="scale(0.015625)"/>
      <path id="DejaVuSans-54" d="M -19 4666 
L 3928 4666 
L 3928 4134 
L 2272 4134 
L 2272 0 
L 1638 0 
L 1638 4134 
L -19 4134 
L -19 4666 
z
" transform="scale(0.015625)"/>
      <path id="DejaVuSans-2e" d="M 684 794 
L 1344 794 
L 1344 0 
L 684 0 
L 684 794 
z
" transform="scale(0.015625)"/>
     </defs>
     <use xlink:href="#DejaVuSans-42"/>
     <use xlink:href="#DejaVuSans-61" transform="translate(68.603516 0)"/>
     <use xlink:href="#DejaVuSans-73" transform="translate(129.882812 0)"/>
     <use xlink:href="#DejaVuSans-65" transform="translate(181.982422 0)"/>
     <use xlink:href="#DejaVuSans-20" transform="translate(243.505859 0)"/>
     <use xlink:href="#DejaVuSans-50" transform="translate(275.292969 0)"/>
     <use xlink:href="#DejaVuSans-72" transform="translate(333.845703 0)"/>
     <use xlink:href="#DejaVuSans-6f" transform="translate(372.708984 0)"/>
     <use xlink:href="#DejaVuSans-64" transform="translate(433.890625 0)"/>
     <use xlink:href="#DejaVuSans-75" transform="translate(497.367188 0)"/>
     <use xlink:href="#DejaVuSans-63" transform="translate(560.746094 0)"/>
     <use xlink:href="#DejaVuSans-74" transform="translate(615.726562 0)"/>
     <use xlink:href="#DejaVuSans-3a" transform="translate(654.935547 0)"/>
     <use xlink:href="#DejaVuSans-20" transform="translate(688.626953 0)"/>
     <use xlink:href="#DejaVuSans-47" transform="translate(720.414062 0)"/>
     <use xlink:href="#DejaVuSans-72" transform="translate(797.904297 0)"/>
     <use xlink:href="#DejaVuSans-61" transform="translate(839.017578 0)"/>
     <use xlink:href="#DejaVuSans-6e" transform="translate(900.296875 0)"/>
     <use xlink:href="#DejaVuSans-64" transform="translate(963.675781 0)"/>
     <use xlink:href="#DejaVuSans-61" transform="translate(1027.152344 0)"/>
     <use xlink:href="#DejaVuSans-64" transform="translate(1088.431641 0)"/>
     <use xlink:href="#DejaVuSans-64" transform="translate(1151.908203 0)"/>
     <use xlink:href="#DejaVuSans-79" transform="translate(1215.384766 0)"/>
     <use xlink:href="#DejaVuSans-20" transform="translate(1274.564453 0)"/>
     <use xlink:href="#DejaVuSans-50" transform="translate(1306.351562 0)"/>
     <use xlink:href="#DejaVuSans-75" transform="translate(1364.904297 0)"/>
     <use xlink:href="#DejaVuSans-72" transform="translate(1428.283203 0)"/>
     <use xlink:href="#DejaVuSans-70" transform="translate(1469.396484 0)"/>
     <use xlink:href="#DejaVuSans-6c" transform="translate(1532.873047 0)"/>
     <use xlink:href="#DejaVuSans-65" transform="translate(1560.65625 0)"/>
     <use xlink:href="#DejaVuSans-2c" transform="translate(1622.179688 0)"/>
     <use xlink:href="#DejaVuSans-20" transform="translate(1653.966797 0)"/>
     <use xlink:href="#DejaVuSans-52" transform="translate(1685.753906 0)"/>
     <use xlink:href="#DejaVuSans-65" transform="translate(1750.736328 0)"/>
     <use xlink:href="#DejaVuSans-63" transform="translate(1812.259766 0)"/>
     <use xlink:href="#DejaVuSans-69" transform="translate(1867.240234 0)"/>
     <use xlink:href="#DejaVuSans-70" transform="translate(1895.023438 0)"/>
     <use xlink:href="#DejaVuSans-65" transform="translate(1958.5 0)"/>
     <use xlink:href="#DejaVuSans-20" transform="translate(2020.023438 0)"/>
     <use xlink:href="#DejaVuSans-73" transform="translate(2051.810547 0)"/>
     <use xlink:href="#DejaVuSans-69" transform="translate(2103.910156 0)"/>
     <use xlink:href="#DejaVuSans-7a" transform="translate(2131.693359 0)"/>
     <use xlink:href="#DejaVuSans-65" transform="translate(2184.183594 0)"/>
     <use xlink:href="#DejaVuSans-3a" transform="translate(2245.707031 0)"/>
     <use xlink:href="#DejaVuSans-20" transform="translate(2279.398438 0)"/>
     <use xlink:href="#DejaVuSans-37" transform="translate(2311.185547 0)"/>
     <use xlink:href="#DejaVuSans-2c" transform="translate(2374.808594 0)"/>
     <use xlink:href="#DejaVuSans-20" transform="translate(2406.595703 0)"/>
     <use xlink:href="#DejaVuSans-54" transform="translate(2438.382812 0)"/>
     <use xlink:href="#DejaVuSans-30" transform="translate(2499.466797 0)"/>
     <use xlink:href="#DejaVuSans-3a" transform="translate(2563.089844 0)"/>
     <use xlink:href="#DejaVuSans-20" transform="translate(2596.78125 0)"/>
     <use xlink:href="#DejaVuSans-31" transform="translate(2628.568359 0)"/>
     <use xlink:href="#DejaVuSans-30" transform="translate(2692.191406 0)"/>
     <use xlink:href="#DejaVuSans-2e" transform="translate(2755.814453 0)"/>
     <use xlink:href="#DejaVuSans-30" transform="translate(2787.601562 0)"/>
    </g>
   </g>
  </g>
 </g>
 <defs>
  <clipPath id="pb07a657a9c">
   <rect x="50.87" y="43.44" width="793.996" height="346.6"/>
  </clipPath>
 </defs>
</svg>
