<?xml version="1.0" encoding="utf-8" standalone="no"?>
<!DOCTYPE svg PUBLIC "-//W3C//DTD SVG 1.1//EN"
  "http://www.w3.org/Graphics/SVG/1.1/DTD/svg11.dtd">
<svg xmlns:xlink="http://www.w3.org/1999/xlink" width="864pt" height="432pt" viewBox="0 0 864 432" xmlns="http://www.w3.org/2000/svg" version="1.1">
 <metadata>
  <rdf:RDF xmlns:dc="http://purl.org/dc/elements/1.1/" xmlns:cc="http://creativecommons.org/ns#" xmlns:rdf="http://www.w3.org/1999/02/22-rdf-syntax-ns#">
   <cc:Work>
    <dc:type rdf:resource="http://purl.org/dc/dcmitype/StillImage"/>
    <dc:date>2025-05-24T02:16:31.139788</dc:date>
    <dc:format>image/svg+xml</dc:format>
    <dc:creator>
     <cc:Agent>
      <dc:title>Matplotlib v3.10.3, https://matplotlib.org/</dc:title>
     </cc:Agent>
    </dc:creator>
   </cc:Work>
  </rdf:RDF>
 </metadata>
 <defs>
  <style type="text/css">*{stroke-linejoin: round; stroke-linecap: butt}</style>
 </defs>
 <g id="figure_1">
  <g id="patch_1">
   <path d="M 0 432 
L 864 432 
L 864 0 
L 0 0 
z
" style="fill: #ffffff"/>
  </g>
  <g id="axes_1">
   <g id="patch_2">
    <path d="M 50.87 390.04 
L 844.866 390.04 
L 844.866 43.44 
L 50.87 43.44 
z
" style="fill: #ffffff"/>
   </g>
   <g id="FillBetweenPolyCollection_1">
    <defs>
     <path id="m78e18dde21" d="M 52.193327 -329.250124 
L 52.193327 -57.714545 
L 54.83998 -57.952023 
L 57.486633 -63.282859 
L 60.133287 -65.745846 
L 62.77994 -69.482261 
L 65.426593 -72.879448 
L 68.073247 -75.519742 
L 70.7199 -78.579333 
L 73.366553 -81.469207 
L 76.013207 -83.526342 
L 78.65986 -85.705173 
L 81.306513 -86.892515 
L 83.953167 -88.991149 
L 86.59982 -90.177744 
L 89.246473 -92.032184 
L 91.893127 -93.493817 
L 94.53978 -95.530685 
L 97.186433 -96.974566 
L 99.833087 -97.096824 
L 102.47974 -98.276931 
L 105.126393 -99.847836 
L 107.773047 -99.898062 
L 110.4197 -102.901616 
L 113.066353 -102.769196 
L 115.713007 -102.626498 
L 118.35966 -103.278783 
L 121.006313 -104.663848 
L 123.652967 -105.473265 
L 126.29962 -105.953192 
L 128.946273 -107.22646 
L 131.592927 -110.004192 
L 134.23958 -109.629816 
L 136.886233 -110.649232 
L 139.532887 -111.229048 
L 142.17954 -111.624461 
L 144.826193 -112.148712 
L 147.472847 -112.271752 
L 150.1195 -113.211338 
L 152.766153 -112.877049 
L 155.412807 -114.110724 
L 158.05946 -113.989223 
L 160.706113 -114.223646 
L 163.352767 -115.379042 
L 165.99942 -115.280542 
L 168.646073 -115.693811 
L 171.292727 -115.146916 
L 173.93938 -116.032361 
L 176.586033 -116.65223 
L 179.232687 -116.822544 
L 181.87934 -118.844243 
L 184.525993 -119.372984 
L 187.172647 -119.954156 
L 189.8193 -119.505129 
L 192.465953 -120.241584 
L 195.112607 -120.022858 
L 197.75926 -119.503751 
L 200.405913 -120.825523 
L 203.052567 -120.389541 
L 205.69922 -121.544856 
L 208.345873 -121.362531 
L 210.992527 -121.428466 
L 213.63918 -121.996226 
L 216.285833 -120.859214 
L 218.932487 -121.226735 
L 221.57914 -120.792486 
L 224.225793 -120.737036 
L 226.872447 -120.907453 
L 229.5191 -122.966311 
L 232.165753 -123.49519 
L 234.812407 -122.555488 
L 237.45906 -123.769332 
L 240.105713 -124.331672 
L 242.752367 -124.298716 
L 245.39902 -123.868464 
L 248.045673 -124.410559 
L 250.692327 -125.186055 
L 253.33898 -124.339055 
L 255.985633 -125.128067 
L 258.632287 -125.185171 
L 261.27894 -124.359678 
L 263.925593 -124.680889 
L 266.572247 -125.224822 
L 269.2189 -125.411281 
L 271.865553 -126.740401 
L 274.512207 -126.270993 
L 277.15886 -127.208065 
L 279.805513 -128.610894 
L 282.452167 -129.136293 
L 285.09882 -129.320329 
L 287.745473 -129.900812 
L 290.392127 -129.812624 
L 293.03878 -129.219808 
L 295.685433 -129.508557 
L 298.332087 -129.775603 
L 300.97874 -130.834623 
L 303.625393 -130.849941 
L 306.272047 -130.871426 
L 308.9187 -129.990126 
L 311.565353 -129.624603 
L 314.212007 -129.983523 
L 316.85866 -130.362998 
L 319.505313 -131.042337 
L 322.151967 -130.734952 
L 324.79862 -130.007752 
L 327.445273 -131.858483 
L 330.091927 -130.360357 
L 332.73858 -130.26614 
L 335.385233 -131.044036 
L 338.031887 -131.190248 
L 340.67854 -131.493694 
L 343.325193 -131.957235 
L 345.971847 -130.39685 
L 348.6185 -131.313333 
L 351.265153 -131.462025 
L 353.911807 -131.765471 
L 356.55846 -132.679704 
L 359.205113 -131.479616 
L 361.851767 -131.928666 
L 364.49842 -132.90602 
L 367.145073 -131.699215 
L 369.791727 -132.207459 
L 372.43838 -131.974207 
L 375.085033 -131.359551 
L 377.731687 -132.034952 
L 380.37834 -132.370183 
L 383.024993 -131.423925 
L 385.671647 -132.427666 
L 388.3183 -132.058204 
L 390.964953 -132.406193 
L 393.611607 -132.780593 
L 396.25826 -132.437817 
L 398.904913 -133.22645 
L 401.551567 -131.902967 
L 404.19822 -133.07824 
L 406.844873 -133.026774 
L 409.491527 -133.45272 
L 412.13818 -133.573336 
L 414.784833 -132.662319 
L 417.431487 -132.807956 
L 420.07814 -132.187904 
L 422.724793 -131.491846 
L 425.371447 -132.406331 
L 428.0181 -132.392115 
L 430.664753 -133.309942 
L 433.311407 -133.642084 
L 435.95806 -133.484941 
L 438.604713 -134.243363 
L 441.251367 -133.960011 
L 443.89802 -134.576963 
L 446.544673 -136.020339 
L 449.191327 -135.776029 
L 451.83798 -136.092325 
L 454.484633 -135.493182 
L 457.131287 -135.023992 
L 459.77794 -134.193722 
L 462.424593 -134.818517 
L 465.071247 -135.317586 
L 467.7179 -136.091601 
L 470.364553 -134.877907 
L 473.011207 -135.884266 
L 475.65786 -135.862679 
L 478.304513 -136.093599 
L 480.951167 -136.962899 
L 483.59782 -137.060033 
L 486.244473 -136.998692 
L 488.891127 -137.738235 
L 491.53778 -138.632844 
L 494.184433 -137.97732 
L 496.831087 -137.144765 
L 499.47774 -136.84683 
L 502.124393 -137.411605 
L 504.771047 -138.19151 
L 507.4177 -138.701132 
L 510.064353 -139.03146 
L 512.711007 -138.900578 
L 515.35766 -139.875464 
L 518.004313 -138.675583 
L 520.650967 -138.317122 
L 523.29762 -137.631663 
L 525.944273 -137.596778 
L 528.590927 -138.155764 
L 531.23758 -138.916792 
L 533.884233 -138.197792 
L 536.530887 -137.66053 
L 539.17754 -138.190856 
L 541.824193 -139.021241 
L 544.470847 -138.369415 
L 547.1175 -138.459406 
L 549.764153 -138.488906 
L 552.410807 -138.543357 
L 555.05746 -138.23371 
L 557.704113 -138.882596 
L 560.350767 -139.524225 
L 562.99742 -139.596476 
L 565.644073 -139.824549 
L 568.290727 -139.487308 
L 570.93738 -137.530521 
L 573.584033 -136.456918 
L 576.230687 -137.800897 
L 578.87734 -139.502304 
L 581.523993 -138.949254 
L 584.170647 -138.85854 
L 586.8173 -139.378037 
L 589.463953 -140.145587 
L 592.110607 -140.266134 
L 594.75726 -139.551107 
L 597.403913 -139.64297 
L 600.050567 -139.07467 
L 602.69722 -139.684721 
L 605.343873 -138.996771 
L 607.990527 -138.045655 
L 610.63718 -137.714316 
L 613.283833 -137.594492 
L 615.930487 -138.010689 
L 618.57714 -139.190774 
L 621.223793 -138.358414 
L 623.870447 -139.542896 
L 626.5171 -140.278674 
L 629.163753 -140.777123 
L 631.810407 -140.432889 
L 634.45706 -140.84099 
L 637.103713 -140.194906 
L 639.750367 -140.182194 
L 642.39702 -139.913219 
L 645.043673 -139.605547 
L 647.690327 -139.985194 
L 650.33698 -140.06655 
L 652.983633 -139.903723 
L 655.630287 -139.90486 
L 658.27694 -140.408924 
L 660.923593 -140.198982 
L 663.570247 -140.975248 
L 666.2169 -140.817244 
L 668.863553 -140.956255 
L 671.510207 -140.787928 
L 674.15686 -140.924103 
L 676.803513 -141.12433 
L 679.450167 -141.768601 
L 682.09682 -142.094726 
L 684.743473 -142.047474 
L 687.390127 -142.993388 
L 690.03678 -142.370533 
L 692.683433 -142.739157 
L 695.330087 -142.139176 
L 697.97674 -140.946679 
L 700.623393 -140.580317 
L 703.270047 -140.91711 
L 705.9167 -141.098253 
L 708.563353 -141.394982 
L 711.210007 -140.941753 
L 713.85666 -141.653243 
L 716.503313 -141.706501 
L 719.149967 -140.711544 
L 721.79662 -140.679139 
L 724.443273 -140.445933 
L 727.089927 -140.181218 
L 729.73658 -140.15165 
L 732.383233 -140.550393 
L 735.029887 -140.227667 
L 737.67654 -141.567501 
L 740.323193 -141.514783 
L 742.969847 -141.307861 
L 745.6165 -141.114754 
L 748.263153 -140.271784 
L 750.909807 -140.438906 
L 753.55646 -141.743878 
L 756.203113 -143.362402 
L 758.849767 -142.797788 
L 761.49642 -142.7635 
L 764.143073 -142.470825 
L 766.789727 -142.791036 
L 769.43638 -142.726571 
L 772.083033 -143.202319 
L 774.729687 -142.944574 
L 777.37634 -144.042039 
L 780.022993 -143.231795 
L 782.669647 -143.37958 
L 785.3163 -143.032659 
L 787.962953 -144.401511 
L 790.609607 -144.109432 
L 793.25626 -143.949763 
L 795.902913 -144.030636 
L 798.549567 -144.3569 
L 801.19622 -144.420503 
L 803.842873 -144.52804 
L 806.489527 -144.615 
L 809.13618 -143.485808 
L 811.782833 -143.237686 
L 814.429487 -144.668201 
L 817.07614 -144.562925 
L 819.722793 -144.467491 
L 822.369447 -143.83893 
L 825.0161 -143.982259 
L 827.662753 -143.914361 
L 830.309407 -143.550698 
L 832.95606 -143.648279 
L 835.602713 -144.128494 
L 838.249367 -144.110626 
L 840.89602 -144.24493 
L 843.542673 -143.977241 
L 843.542673 -372.805455 
L 843.542673 -372.805455 
L 840.89602 -372.416874 
L 838.249367 -372.446224 
L 835.602713 -372.344256 
L 832.95606 -372.606617 
L 830.309407 -372.157246 
L 827.662753 -371.808649 
L 825.0161 -371.565556 
L 822.369447 -371.606619 
L 819.722793 -371.303654 
L 817.07614 -370.965369 
L 814.429487 -371.341915 
L 811.782833 -372.305283 
L 809.13618 -371.971177 
L 806.489527 -370.972281 
L 803.842873 -370.442163 
L 801.19622 -370.651059 
L 798.549567 -370.391087 
L 795.902913 -370.51896 
L 793.25626 -370.875664 
L 790.609607 -371.156329 
L 787.962953 -370.770366 
L 785.3163 -371.470363 
L 782.669647 -371.017891 
L 780.022993 -371.020992 
L 777.37634 -370.679858 
L 774.729687 -371.057186 
L 772.083033 -371.14023 
L 769.43638 -371.538984 
L 766.789727 -371.591599 
L 764.143073 -371.801299 
L 761.49642 -371.314379 
L 758.849767 -371.317572 
L 756.203113 -371.135752 
L 753.55646 -372.067082 
L 750.909807 -372.725074 
L 748.263153 -372.662722 
L 745.6165 -372.030934 
L 742.969847 -371.740325 
L 740.323193 -371.718186 
L 737.67654 -371.623108 
L 735.029887 -372.263325 
L 732.383233 -372.273269 
L 729.73658 -372.403278 
L 727.089927 -372.496818 
L 724.443273 -372.524905 
L 721.79662 -372.398065 
L 719.149967 -372.173597 
L 716.503313 -371.396069 
L 713.85666 -371.093862 
L 711.210007 -371.862136 
L 708.563353 -371.359829 
L 705.9167 -371.524884 
L 703.270047 -371.543417 
L 700.623393 -371.31895 
L 697.97674 -371.311577 
L 695.330087 -370.618953 
L 692.683433 -370.261491 
L 690.03678 -370.389158 
L 687.390127 -370.057555 
L 684.743473 -370.413708 
L 682.09682 -370.304368 
L 679.450167 -370.030892 
L 676.803513 -370.725928 
L 674.15686 -371.007763 
L 671.510207 -370.947363 
L 668.863553 -370.70558 
L 666.2169 -370.619711 
L 663.570247 -370.37586 
L 660.923593 -370.472707 
L 658.27694 -370.388055 
L 655.630287 -371.199137 
L 652.983633 -370.841124 
L 650.33698 -370.672463 
L 647.690327 -370.875228 
L 645.043673 -371.067015 
L 642.39702 -370.447422 
L 639.750367 -370.668582 
L 637.103713 -370.821511 
L 634.45706 -370.330388 
L 631.810407 -370.353997 
L 629.163753 -370.216225 
L 626.5171 -370.525069 
L 623.870447 -370.487084 
L 621.223793 -370.894542 
L 618.57714 -370.253522 
L 615.930487 -370.808076 
L 613.283833 -371.173944 
L 610.63718 -371.211424 
L 607.990527 -370.874378 
L 605.343873 -369.956483 
L 602.69722 -369.86981 
L 600.050567 -370.293942 
L 597.403913 -370.404269 
L 594.75726 -369.449077 
L 592.110607 -368.861934 
L 589.463953 -368.871281 
L 586.8173 -369.831273 
L 584.170647 -369.643666 
L 581.523993 -369.56967 
L 578.87734 -368.695708 
L 576.230687 -369.961994 
L 573.584033 -370.648326 
L 570.93738 -369.819032 
L 568.290727 -367.904951 
L 565.644073 -368.0489 
L 562.99742 -368.053562 
L 560.350767 -368.625869 
L 557.704113 -368.475696 
L 555.05746 -368.800891 
L 552.410807 -368.128523 
L 549.764153 -368.249529 
L 547.1175 -368.118303 
L 544.470847 -368.5352 
L 541.824193 -367.951066 
L 539.17754 -368.398807 
L 536.530887 -368.781738 
L 533.884233 -368.573025 
L 531.23758 -368.096164 
L 528.590927 -368.112837 
L 525.944273 -368.603248 
L 523.29762 -368.796505 
L 520.650967 -368.017988 
L 518.004313 -368.236531 
L 515.35766 -367.229505 
L 512.711007 -367.511272 
L 510.064353 -367.993093 
L 507.4177 -368.333239 
L 504.771047 -368.468852 
L 502.124393 -369.058177 
L 499.47774 -369.076549 
L 496.831087 -368.419935 
L 494.184433 -367.525327 
L 491.53778 -367.160493 
L 488.891127 -367.992496 
L 486.244473 -368.659009 
L 483.59782 -368.102548 
L 480.951167 -367.634667 
L 478.304513 -368.089848 
L 475.65786 -368.143749 
L 473.011207 -367.622931 
L 470.364553 -367.748738 
L 467.7179 -366.511985 
L 465.071247 -366.367278 
L 462.424593 -367.114056 
L 459.77794 -367.503785 
L 457.131287 -366.931088 
L 454.484633 -366.674422 
L 451.83798 -366.379978 
L 449.191327 -366.570893 
L 446.544673 -366.862971 
L 443.89802 -367.586416 
L 441.251367 -367.985055 
L 438.604713 -366.951137 
L 435.95806 -366.937036 
L 433.311407 -367.074371 
L 430.664753 -367.058525 
L 428.0181 -368.028254 
L 425.371447 -367.698259 
L 422.724793 -368.196203 
L 420.07814 -367.953661 
L 417.431487 -367.919511 
L 414.784833 -367.334343 
L 412.13818 -366.77244 
L 409.491527 -366.825445 
L 406.844873 -367.05508 
L 404.19822 -366.78475 
L 401.551567 -367.36769 
L 398.904913 -366.526821 
L 396.25826 -366.376786 
L 393.611607 -365.919377 
L 390.964953 -365.677639 
L 388.3183 -365.574293 
L 385.671647 -365.080414 
L 383.024993 -365.992936 
L 380.37834 -365.365488 
L 377.731687 -365.400282 
L 375.085033 -365.581504 
L 372.43838 -365.360252 
L 369.791727 -365.599004 
L 367.145073 -366.170898 
L 364.49842 -365.000241 
L 361.851767 -364.884471 
L 359.205113 -365.005845 
L 356.55846 -363.452991 
L 353.911807 -363.846877 
L 351.265153 -363.920804 
L 348.6185 -364.304884 
L 345.971847 -365.254449 
L 343.325193 -364.210701 
L 340.67854 -364.237249 
L 338.031887 -364.162174 
L 335.385233 -363.882359 
L 332.73858 -364.395277 
L 330.091927 -363.987726 
L 327.445273 -362.66166 
L 324.79862 -363.269679 
L 322.151967 -362.687198 
L 319.505313 -362.543869 
L 316.85866 -362.901928 
L 314.212007 -363.274226 
L 311.565353 -363.018089 
L 308.9187 -362.611733 
L 306.272047 -362.098379 
L 303.625393 -361.618716 
L 300.97874 -362.209005 
L 298.332087 -362.490175 
L 295.685433 -362.29593 
L 293.03878 -362.607139 
L 290.392127 -362.428764 
L 287.745473 -361.653302 
L 285.09882 -362.148169 
L 282.452167 -361.766615 
L 279.805513 -361.905443 
L 277.15886 -362.038897 
L 274.512207 -362.174395 
L 271.865553 -362.155288 
L 269.2189 -363.064319 
L 266.572247 -362.376793 
L 263.925593 -363.314094 
L 261.27894 -362.875816 
L 258.632287 -362.425687 
L 255.985633 -362.526966 
L 253.33898 -362.176876 
L 250.692327 -361.056445 
L 248.045673 -361.4377 
L 245.39902 -361.117029 
L 242.752367 -360.48508 
L 240.105713 -360.653189 
L 237.45906 -360.771004 
L 234.812407 -361.675395 
L 232.165753 -360.885097 
L 229.5191 -361.424977 
L 226.872447 -362.553147 
L 224.225793 -362.199497 
L 221.57914 -361.970551 
L 218.932487 -360.87242 
L 216.285833 -360.588632 
L 213.63918 -359.744755 
L 210.992527 -359.905378 
L 208.345873 -359.309118 
L 205.69922 -359.05468 
L 203.052567 -358.913808 
L 200.405913 -358.677031 
L 197.75926 -358.966905 
L 195.112607 -358.719058 
L 192.465953 -358.918815 
L 189.8193 -358.532944 
L 187.172647 -358.267368 
L 184.525993 -358.255196 
L 181.87934 -357.923961 
L 179.232687 -358.584341 
L 176.586033 -358.806604 
L 173.93938 -358.947729 
L 171.292727 -358.971544 
L 168.646073 -358.188274 
L 165.99942 -357.349977 
L 163.352767 -356.36989 
L 160.706113 -356.444345 
L 158.05946 -356.755394 
L 155.412807 -356.073012 
L 152.766153 -355.97504 
L 150.1195 -355.373658 
L 147.472847 -355.275204 
L 144.826193 -354.497055 
L 142.17954 -354.01962 
L 139.532887 -353.722443 
L 136.886233 -352.966203 
L 134.23958 -352.967788 
L 131.592927 -351.680924 
L 128.946273 -352.743527 
L 126.29962 -352.43721 
L 123.652967 -352.653433 
L 121.006313 -352.701224 
L 118.35966 -352.802917 
L 115.713007 -352.55445 
L 113.066353 -351.365742 
L 110.4197 -349.609045 
L 107.773047 -350.9327 
L 105.126393 -350.164472 
L 102.47974 -349.670708 
L 99.833087 -349.8218 
L 97.186433 -348.62735 
L 94.53978 -347.749071 
L 91.893127 -347.131636 
L 89.246473 -346.114023 
L 86.59982 -344.886503 
L 83.953167 -344.011875 
L 81.306513 -342.537564 
L 78.65986 -340.32185 
L 76.013207 -340.0447 
L 73.366553 -339.162585 
L 70.7199 -338.20776 
L 68.073247 -337.394887 
L 65.426593 -335.283185 
L 62.77994 -333.837857 
L 60.133287 -332.646807 
L 57.486633 -329.629243 
L 54.83998 -330.39235 
L 52.193327 -329.250124 
z
" style="stroke: #0000ff; stroke-opacity: 0.2"/>
    </defs>
    <g clip-path="url(#pc2d24d2a03)">
     <use xlink:href="#m78e18dde21" x="0" y="432" style="fill: #0000ff; fill-opacity: 0.2; stroke: #0000ff; stroke-opacity: 0.2"/>
    </g>
   </g>
   <g id="matplotlib.axis_1">
    <g id="xtick_1">
     <g id="line2d_1">
      <defs>
       <path id="m0d1dafe378" d="M 0 0 
L 0 3.5 
" style="stroke: #000000; stroke-width: 0.8"/>
      </defs>
      <g>
       <use xlink:href="#m0d1dafe378" x="181.87934" y="390.04" style="stroke: #000000; stroke-width: 0.8"/>
      </g>
     </g>
     <g id="text_1">
      <!-- 50 -->
      <g transform="translate(175.51684 404.638438) scale(0.1 -0.1)">
       <defs>
        <path id="DejaVuSans-35" d="M 691 4666 
L 3169 4666 
L 3169 4134 
L 1269 4134 
L 1269 2991 
Q 1406 3038 1543 3061 
Q 1681 3084 1819 3084 
Q 2600 3084 3056 2656 
Q 3513 2228 3513 1497 
Q 3513 744 3044 326 
Q 2575 -91 1722 -91 
Q 1428 -91 1123 -41 
Q 819 9 494 109 
L 494 744 
Q 775 591 1075 516 
Q 1375 441 1709 441 
Q 2250 441 2565 725 
Q 2881 1009 2881 1497 
Q 2881 1984 2565 2268 
Q 2250 2553 1709 2553 
Q 1456 2553 1204 2497 
Q 953 2441 691 2322 
L 691 4666 
z
" transform="scale(0.015625)"/>
        <path id="DejaVuSans-30" d="M 2034 4250 
Q 1547 4250 1301 3770 
Q 1056 3291 1056 2328 
Q 1056 1369 1301 889 
Q 1547 409 2034 409 
Q 2525 409 2770 889 
Q 3016 1369 3016 2328 
Q 3016 3291 2770 3770 
Q 2525 4250 2034 4250 
z
M 2034 4750 
Q 2819 4750 3233 4129 
Q 3647 3509 3647 2328 
Q 3647 1150 3233 529 
Q 2819 -91 2034 -91 
Q 1250 -91 836 529 
Q 422 1150 422 2328 
Q 422 3509 836 4129 
Q 1250 4750 2034 4750 
z
" transform="scale(0.015625)"/>
       </defs>
       <use xlink:href="#DejaVuSans-35"/>
       <use xlink:href="#DejaVuSans-30" transform="translate(63.623047 0)"/>
      </g>
     </g>
    </g>
    <g id="xtick_2">
     <g id="line2d_2">
      <g>
       <use xlink:href="#m0d1dafe378" x="314.212007" y="390.04" style="stroke: #000000; stroke-width: 0.8"/>
      </g>
     </g>
     <g id="text_2">
      <!-- 100 -->
      <g transform="translate(304.668257 404.638438) scale(0.1 -0.1)">
       <defs>
        <path id="DejaVuSans-31" d="M 794 531 
L 1825 531 
L 1825 4091 
L 703 3866 
L 703 4441 
L 1819 4666 
L 2450 4666 
L 2450 531 
L 3481 531 
L 3481 0 
L 794 0 
L 794 531 
z
" transform="scale(0.015625)"/>
       </defs>
       <use xlink:href="#DejaVuSans-31"/>
       <use xlink:href="#DejaVuSans-30" transform="translate(63.623047 0)"/>
       <use xlink:href="#DejaVuSans-30" transform="translate(127.246094 0)"/>
      </g>
     </g>
    </g>
    <g id="xtick_3">
     <g id="line2d_3">
      <g>
       <use xlink:href="#m0d1dafe378" x="446.544673" y="390.04" style="stroke: #000000; stroke-width: 0.8"/>
      </g>
     </g>
     <g id="text_3">
      <!-- 150 -->
      <g transform="translate(437.000923 404.638438) scale(0.1 -0.1)">
       <use xlink:href="#DejaVuSans-31"/>
       <use xlink:href="#DejaVuSans-35" transform="translate(63.623047 0)"/>
       <use xlink:href="#DejaVuSans-30" transform="translate(127.246094 0)"/>
      </g>
     </g>
    </g>
    <g id="xtick_4">
     <g id="line2d_4">
      <g>
       <use xlink:href="#m0d1dafe378" x="578.87734" y="390.04" style="stroke: #000000; stroke-width: 0.8"/>
      </g>
     </g>
     <g id="text_4">
      <!-- 200 -->
      <g transform="translate(569.33359 404.638438) scale(0.1 -0.1)">
       <defs>
        <path id="DejaVuSans-32" d="M 1228 531 
L 3431 531 
L 3431 0 
L 469 0 
L 469 531 
Q 828 903 1448 1529 
Q 2069 2156 2228 2338 
Q 2531 2678 2651 2914 
Q 2772 3150 2772 3378 
Q 2772 3750 2511 3984 
Q 2250 4219 1831 4219 
Q 1534 4219 1204 4116 
Q 875 4013 500 3803 
L 500 4441 
Q 881 4594 1212 4672 
Q 1544 4750 1819 4750 
Q 2544 4750 2975 4387 
Q 3406 4025 3406 3419 
Q 3406 3131 3298 2873 
Q 3191 2616 2906 2266 
Q 2828 2175 2409 1742 
Q 1991 1309 1228 531 
z
" transform="scale(0.015625)"/>
       </defs>
       <use xlink:href="#DejaVuSans-32"/>
       <use xlink:href="#DejaVuSans-30" transform="translate(63.623047 0)"/>
       <use xlink:href="#DejaVuSans-30" transform="translate(127.246094 0)"/>
      </g>
     </g>
    </g>
    <g id="xtick_5">
     <g id="line2d_5">
      <g>
       <use xlink:href="#m0d1dafe378" x="711.210007" y="390.04" style="stroke: #000000; stroke-width: 0.8"/>
      </g>
     </g>
     <g id="text_5">
      <!-- 250 -->
      <g transform="translate(701.666257 404.638438) scale(0.1 -0.1)">
       <use xlink:href="#DejaVuSans-32"/>
       <use xlink:href="#DejaVuSans-35" transform="translate(63.623047 0)"/>
       <use xlink:href="#DejaVuSans-30" transform="translate(127.246094 0)"/>
      </g>
     </g>
    </g>
    <g id="xtick_6">
     <g id="line2d_6">
      <g>
       <use xlink:href="#m0d1dafe378" x="843.542673" y="390.04" style="stroke: #000000; stroke-width: 0.8"/>
      </g>
     </g>
     <g id="text_6">
      <!-- 300 -->
      <g transform="translate(833.998923 404.638438) scale(0.1 -0.1)">
       <defs>
        <path id="DejaVuSans-33" d="M 2597 2516 
Q 3050 2419 3304 2112 
Q 3559 1806 3559 1356 
Q 3559 666 3084 287 
Q 2609 -91 1734 -91 
Q 1441 -91 1130 -33 
Q 819 25 488 141 
L 488 750 
Q 750 597 1062 519 
Q 1375 441 1716 441 
Q 2309 441 2620 675 
Q 2931 909 2931 1356 
Q 2931 1769 2642 2001 
Q 2353 2234 1838 2234 
L 1294 2234 
L 1294 2753 
L 1863 2753 
Q 2328 2753 2575 2939 
Q 2822 3125 2822 3475 
Q 2822 3834 2567 4026 
Q 2313 4219 1838 4219 
Q 1578 4219 1281 4162 
Q 984 4106 628 3988 
L 628 4550 
Q 988 4650 1302 4700 
Q 1616 4750 1894 4750 
Q 2613 4750 3031 4423 
Q 3450 4097 3450 3541 
Q 3450 3153 3228 2886 
Q 3006 2619 2597 2516 
z
" transform="scale(0.015625)"/>
       </defs>
       <use xlink:href="#DejaVuSans-33"/>
       <use xlink:href="#DejaVuSans-30" transform="translate(63.623047 0)"/>
       <use xlink:href="#DejaVuSans-30" transform="translate(127.246094 0)"/>
      </g>
     </g>
    </g>
    <g id="text_7">
     <!-- Step -->
     <g transform="translate(436.482844 418.316562) scale(0.1 -0.1)">
      <defs>
       <path id="DejaVuSans-53" d="M 3425 4513 
L 3425 3897 
Q 3066 4069 2747 4153 
Q 2428 4238 2131 4238 
Q 1616 4238 1336 4038 
Q 1056 3838 1056 3469 
Q 1056 3159 1242 3001 
Q 1428 2844 1947 2747 
L 2328 2669 
Q 3034 2534 3370 2195 
Q 3706 1856 3706 1288 
Q 3706 609 3251 259 
Q 2797 -91 1919 -91 
Q 1588 -91 1214 -16 
Q 841 59 441 206 
L 441 856 
Q 825 641 1194 531 
Q 1563 422 1919 422 
Q 2459 422 2753 634 
Q 3047 847 3047 1241 
Q 3047 1584 2836 1778 
Q 2625 1972 2144 2069 
L 1759 2144 
Q 1053 2284 737 2584 
Q 422 2884 422 3419 
Q 422 4038 858 4394 
Q 1294 4750 2059 4750 
Q 2388 4750 2728 4690 
Q 3069 4631 3425 4513 
z
" transform="scale(0.015625)"/>
       <path id="DejaVuSans-74" d="M 1172 4494 
L 1172 3500 
L 2356 3500 
L 2356 3053 
L 1172 3053 
L 1172 1153 
Q 1172 725 1289 603 
Q 1406 481 1766 481 
L 2356 481 
L 2356 0 
L 1766 0 
Q 1100 0 847 248 
Q 594 497 594 1153 
L 594 3053 
L 172 3053 
L 172 3500 
L 594 3500 
L 594 4494 
L 1172 4494 
z
" transform="scale(0.015625)"/>
       <path id="DejaVuSans-65" d="M 3597 1894 
L 3597 1613 
L 953 1613 
Q 991 1019 1311 708 
Q 1631 397 2203 397 
Q 2534 397 2845 478 
Q 3156 559 3463 722 
L 3463 178 
Q 3153 47 2828 -22 
Q 2503 -91 2169 -91 
Q 1331 -91 842 396 
Q 353 884 353 1716 
Q 353 2575 817 3079 
Q 1281 3584 2069 3584 
Q 2775 3584 3186 3129 
Q 3597 2675 3597 1894 
z
M 3022 2063 
Q 3016 2534 2758 2815 
Q 2500 3097 2075 3097 
Q 1594 3097 1305 2825 
Q 1016 2553 972 2059 
L 3022 2063 
z
" transform="scale(0.015625)"/>
       <path id="DejaVuSans-70" d="M 1159 525 
L 1159 -1331 
L 581 -1331 
L 581 3500 
L 1159 3500 
L 1159 2969 
Q 1341 3281 1617 3432 
Q 1894 3584 2278 3584 
Q 2916 3584 3314 3078 
Q 3713 2572 3713 1747 
Q 3713 922 3314 415 
Q 2916 -91 2278 -91 
Q 1894 -91 1617 61 
Q 1341 213 1159 525 
z
M 3116 1747 
Q 3116 2381 2855 2742 
Q 2594 3103 2138 3103 
Q 1681 3103 1420 2742 
Q 1159 2381 1159 1747 
Q 1159 1113 1420 752 
Q 1681 391 2138 391 
Q 2594 391 2855 752 
Q 3116 1113 3116 1747 
z
" transform="scale(0.015625)"/>
      </defs>
      <use xlink:href="#DejaVuSans-53"/>
      <use xlink:href="#DejaVuSans-74" transform="translate(63.476562 0)"/>
      <use xlink:href="#DejaVuSans-65" transform="translate(102.685547 0)"/>
      <use xlink:href="#DejaVuSans-70" transform="translate(164.208984 0)"/>
     </g>
    </g>
   </g>
   <g id="matplotlib.axis_2">
    <g id="ytick_1">
     <g id="line2d_7">
      <defs>
       <path id="me38d18f909" d="M 0 0 
L -3.5 0 
" style="stroke: #000000; stroke-width: 0.8"/>
      </defs>
      <g>
       <use xlink:href="#me38d18f909" x="50.87" y="350.427194" style="stroke: #000000; stroke-width: 0.8"/>
      </g>
     </g>
     <g id="text_8">
      <!-- 20 -->
      <g transform="translate(31.145 354.226413) scale(0.1 -0.1)">
       <use xlink:href="#DejaVuSans-32"/>
       <use xlink:href="#DejaVuSans-30" transform="translate(63.623047 0)"/>
      </g>
     </g>
    </g>
    <g id="ytick_2">
     <g id="line2d_8">
      <g>
       <use xlink:href="#me38d18f909" x="50.87" y="290.223821" style="stroke: #000000; stroke-width: 0.8"/>
      </g>
     </g>
     <g id="text_9">
      <!-- 40 -->
      <g transform="translate(31.145 294.02304) scale(0.1 -0.1)">
       <defs>
        <path id="DejaVuSans-34" d="M 2419 4116 
L 825 1625 
L 2419 1625 
L 2419 4116 
z
M 2253 4666 
L 3047 4666 
L 3047 1625 
L 3713 1625 
L 3713 1100 
L 3047 1100 
L 3047 0 
L 2419 0 
L 2419 1100 
L 313 1100 
L 313 1709 
L 2253 4666 
z
" transform="scale(0.015625)"/>
       </defs>
       <use xlink:href="#DejaVuSans-34"/>
       <use xlink:href="#DejaVuSans-30" transform="translate(63.623047 0)"/>
      </g>
     </g>
    </g>
    <g id="ytick_3">
     <g id="line2d_9">
      <g>
       <use xlink:href="#me38d18f909" x="50.87" y="230.020447" style="stroke: #000000; stroke-width: 0.8"/>
      </g>
     </g>
     <g id="text_10">
      <!-- 60 -->
      <g transform="translate(31.145 233.819666) scale(0.1 -0.1)">
       <defs>
        <path id="DejaVuSans-36" d="M 2113 2584 
Q 1688 2584 1439 2293 
Q 1191 2003 1191 1497 
Q 1191 994 1439 701 
Q 1688 409 2113 409 
Q 2538 409 2786 701 
Q 3034 994 3034 1497 
Q 3034 2003 2786 2293 
Q 2538 2584 2113 2584 
z
M 3366 4563 
L 3366 3988 
Q 3128 4100 2886 4159 
Q 2644 4219 2406 4219 
Q 1781 4219 1451 3797 
Q 1122 3375 1075 2522 
Q 1259 2794 1537 2939 
Q 1816 3084 2150 3084 
Q 2853 3084 3261 2657 
Q 3669 2231 3669 1497 
Q 3669 778 3244 343 
Q 2819 -91 2113 -91 
Q 1303 -91 875 529 
Q 447 1150 447 2328 
Q 447 3434 972 4092 
Q 1497 4750 2381 4750 
Q 2619 4750 2861 4703 
Q 3103 4656 3366 4563 
z
" transform="scale(0.015625)"/>
       </defs>
       <use xlink:href="#DejaVuSans-36"/>
       <use xlink:href="#DejaVuSans-30" transform="translate(63.623047 0)"/>
      </g>
     </g>
    </g>
    <g id="ytick_4">
     <g id="line2d_10">
      <g>
       <use xlink:href="#me38d18f909" x="50.87" y="169.817073" style="stroke: #000000; stroke-width: 0.8"/>
      </g>
     </g>
     <g id="text_11">
      <!-- 80 -->
      <g transform="translate(31.145 173.616292) scale(0.1 -0.1)">
       <defs>
        <path id="DejaVuSans-38" d="M 2034 2216 
Q 1584 2216 1326 1975 
Q 1069 1734 1069 1313 
Q 1069 891 1326 650 
Q 1584 409 2034 409 
Q 2484 409 2743 651 
Q 3003 894 3003 1313 
Q 3003 1734 2745 1975 
Q 2488 2216 2034 2216 
z
M 1403 2484 
Q 997 2584 770 2862 
Q 544 3141 544 3541 
Q 544 4100 942 4425 
Q 1341 4750 2034 4750 
Q 2731 4750 3128 4425 
Q 3525 4100 3525 3541 
Q 3525 3141 3298 2862 
Q 3072 2584 2669 2484 
Q 3125 2378 3379 2068 
Q 3634 1759 3634 1313 
Q 3634 634 3220 271 
Q 2806 -91 2034 -91 
Q 1263 -91 848 271 
Q 434 634 434 1313 
Q 434 1759 690 2068 
Q 947 2378 1403 2484 
z
M 1172 3481 
Q 1172 3119 1398 2916 
Q 1625 2713 2034 2713 
Q 2441 2713 2670 2916 
Q 2900 3119 2900 3481 
Q 2900 3844 2670 4047 
Q 2441 4250 2034 4250 
Q 1625 4250 1398 4047 
Q 1172 3844 1172 3481 
z
" transform="scale(0.015625)"/>
       </defs>
       <use xlink:href="#DejaVuSans-38"/>
       <use xlink:href="#DejaVuSans-30" transform="translate(63.623047 0)"/>
      </g>
     </g>
    </g>
    <g id="ytick_5">
     <g id="line2d_11">
      <g>
       <use xlink:href="#me38d18f909" x="50.87" y="109.6137" style="stroke: #000000; stroke-width: 0.8"/>
      </g>
     </g>
     <g id="text_12">
      <!-- 100 -->
      <g transform="translate(24.7825 113.412918) scale(0.1 -0.1)">
       <use xlink:href="#DejaVuSans-31"/>
       <use xlink:href="#DejaVuSans-30" transform="translate(63.623047 0)"/>
       <use xlink:href="#DejaVuSans-30" transform="translate(127.246094 0)"/>
      </g>
     </g>
    </g>
    <g id="ytick_6">
     <g id="line2d_12">
      <g>
       <use xlink:href="#me38d18f909" x="50.87" y="49.410326" style="stroke: #000000; stroke-width: 0.8"/>
      </g>
     </g>
     <g id="text_13">
      <!-- 120 -->
      <g transform="translate(24.7825 53.209545) scale(0.1 -0.1)">
       <use xlink:href="#DejaVuSans-31"/>
       <use xlink:href="#DejaVuSans-32" transform="translate(63.623047 0)"/>
       <use xlink:href="#DejaVuSans-30" transform="translate(127.246094 0)"/>
      </g>
     </g>
    </g>
    <g id="text_14">
     <!-- Profit -->
     <g transform="translate(18.702813 229.779063) rotate(-90) scale(0.1 -0.1)">
      <defs>
       <path id="DejaVuSans-50" d="M 1259 4147 
L 1259 2394 
L 2053 2394 
Q 2494 2394 2734 2622 
Q 2975 2850 2975 3272 
Q 2975 3691 2734 3919 
Q 2494 4147 2053 4147 
L 1259 4147 
z
M 628 4666 
L 2053 4666 
Q 2838 4666 3239 4311 
Q 3641 3956 3641 3272 
Q 3641 2581 3239 2228 
Q 2838 1875 2053 1875 
L 1259 1875 
L 1259 0 
L 628 0 
L 628 4666 
z
" transform="scale(0.015625)"/>
       <path id="DejaVuSans-72" d="M 2631 2963 
Q 2534 3019 2420 3045 
Q 2306 3072 2169 3072 
Q 1681 3072 1420 2755 
Q 1159 2438 1159 1844 
L 1159 0 
L 581 0 
L 581 3500 
L 1159 3500 
L 1159 2956 
Q 1341 3275 1631 3429 
Q 1922 3584 2338 3584 
Q 2397 3584 2469 3576 
Q 2541 3569 2628 3553 
L 2631 2963 
z
" transform="scale(0.015625)"/>
       <path id="DejaVuSans-6f" d="M 1959 3097 
Q 1497 3097 1228 2736 
Q 959 2375 959 1747 
Q 959 1119 1226 758 
Q 1494 397 1959 397 
Q 2419 397 2687 759 
Q 2956 1122 2956 1747 
Q 2956 2369 2687 2733 
Q 2419 3097 1959 3097 
z
M 1959 3584 
Q 2709 3584 3137 3096 
Q 3566 2609 3566 1747 
Q 3566 888 3137 398 
Q 2709 -91 1959 -91 
Q 1206 -91 779 398 
Q 353 888 353 1747 
Q 353 2609 779 3096 
Q 1206 3584 1959 3584 
z
" transform="scale(0.015625)"/>
       <path id="DejaVuSans-66" d="M 2375 4863 
L 2375 4384 
L 1825 4384 
Q 1516 4384 1395 4259 
Q 1275 4134 1275 3809 
L 1275 3500 
L 2222 3500 
L 2222 3053 
L 1275 3053 
L 1275 0 
L 697 0 
L 697 3053 
L 147 3053 
L 147 3500 
L 697 3500 
L 697 3744 
Q 697 4328 969 4595 
Q 1241 4863 1831 4863 
L 2375 4863 
z
" transform="scale(0.015625)"/>
       <path id="DejaVuSans-69" d="M 603 3500 
L 1178 3500 
L 1178 0 
L 603 0 
L 603 3500 
z
M 603 4863 
L 1178 4863 
L 1178 4134 
L 603 4134 
L 603 4863 
z
" transform="scale(0.015625)"/>
      </defs>
      <use xlink:href="#DejaVuSans-50"/>
      <use xlink:href="#DejaVuSans-72" transform="translate(58.552734 0)"/>
      <use xlink:href="#DejaVuSans-6f" transform="translate(97.416016 0)"/>
      <use xlink:href="#DejaVuSans-66" transform="translate(158.597656 0)"/>
      <use xlink:href="#DejaVuSans-69" transform="translate(193.802734 0)"/>
      <use xlink:href="#DejaVuSans-74" transform="translate(221.585938 0)"/>
     </g>
    </g>
   </g>
   <g id="line2d_13">
    <path d="M 52.193327 238.517665 
L 54.83998 237.827808 
L 57.486633 235.543955 
L 60.133287 232.803668 
L 68.073247 225.542686 
L 73.366553 221.684104 
L 76.013207 220.214479 
L 78.65986 218.986488 
L 83.953167 215.498482 
L 86.59982 214.467871 
L 89.246473 212.926891 
L 97.186433 209.199042 
L 99.833087 208.540682 
L 102.47974 208.02618 
L 105.126393 206.993846 
L 107.773047 206.584619 
L 113.066353 204.932531 
L 123.652967 202.936645 
L 126.29962 202.804799 
L 131.592927 201.157442 
L 136.886233 200.192282 
L 139.532887 199.524254 
L 142.17954 199.177954 
L 150.1195 197.707502 
L 152.766153 197.573956 
L 155.412807 196.908132 
L 158.05946 196.627697 
L 160.706113 196.666004 
L 168.646073 195.058952 
L 171.292727 194.94077 
L 173.93938 194.509955 
L 176.586033 194.270583 
L 179.232687 194.296557 
L 181.87934 193.615898 
L 184.525993 193.18591 
L 187.172647 192.889238 
L 189.8193 192.980964 
L 192.465953 192.419795 
L 197.75926 192.764672 
L 200.405913 192.248723 
L 203.052567 192.348326 
L 205.69922 191.700232 
L 208.345873 191.664176 
L 210.992527 191.333078 
L 213.63918 191.12951 
L 216.285833 191.276077 
L 221.57914 190.618475 
L 224.225793 190.531734 
L 226.872447 190.269694 
L 229.5191 189.804362 
L 237.45906 189.729838 
L 240.105713 189.507575 
L 242.752367 189.608097 
L 245.39902 189.507254 
L 248.045673 189.075865 
L 253.33898 188.742035 
L 255.985633 188.172484 
L 258.632287 188.194577 
L 261.27894 188.382253 
L 263.925593 188.002514 
L 266.572247 188.199193 
L 269.2189 187.7622 
L 271.865553 187.552155 
L 274.512207 187.777312 
L 277.15886 187.376513 
L 279.805513 186.741831 
L 290.392127 185.879306 
L 293.03878 186.086526 
L 295.685433 186.097756 
L 298.332087 185.867111 
L 300.97874 185.478186 
L 303.625393 185.765672 
L 306.272047 185.515092 
L 308.9187 185.699071 
L 311.565353 185.678654 
L 314.212007 185.37112 
L 316.85866 185.367537 
L 319.505313 185.206891 
L 324.79862 185.36129 
L 327.445273 184.739929 
L 330.091927 184.825958 
L 340.67854 184.134528 
L 343.325193 183.916032 
L 345.971847 184.174351 
L 353.911807 184.193826 
L 359.205113 183.757269 
L 361.851767 183.593432 
L 364.49842 183.046869 
L 369.791727 183.096774 
L 375.085033 183.529472 
L 380.37834 183.132164 
L 383.024993 183.29157 
L 388.3183 183.183745 
L 396.25826 182.592699 
L 398.904913 182.12337 
L 401.551567 182.364671 
L 404.19822 182.068505 
L 412.13818 181.827112 
L 414.784833 182.001675 
L 417.431487 181.636266 
L 422.724793 182.155982 
L 428.0181 181.789815 
L 430.664753 181.815767 
L 433.311407 181.641778 
L 435.95806 181.789012 
L 441.251367 181.027467 
L 443.89802 180.918311 
L 446.544673 180.558345 
L 449.191327 180.826539 
L 451.83798 180.763843 
L 459.77794 181.151252 
L 462.424593 181.033714 
L 465.071247 181.157568 
L 467.7179 180.698207 
L 470.364553 180.686678 
L 473.011207 180.246401 
L 475.65786 179.996786 
L 478.304513 179.908276 
L 483.59782 179.418715 
L 486.244473 179.171144 
L 491.53778 179.103326 
L 494.184433 179.248677 
L 496.831087 179.21765 
L 507.4177 178.482814 
L 510.064353 178.487729 
L 512.711007 178.794069 
L 515.35766 178.447516 
L 518.004313 178.543949 
L 520.650967 178.832445 
L 523.29762 178.785916 
L 525.944273 178.899987 
L 528.590927 178.865699 
L 531.23758 178.493516 
L 536.530887 178.778866 
L 539.17754 178.705169 
L 541.824193 178.513841 
L 544.470847 178.547692 
L 547.1175 178.71114 
L 549.764153 178.630783 
L 552.410807 178.66406 
L 557.704113 178.32086 
L 560.350767 177.924953 
L 562.99742 178.174981 
L 565.644073 178.063276 
L 568.290727 178.303865 
L 573.584033 178.447378 
L 578.87734 177.901 
L 581.523993 177.740538 
L 584.170647 177.748897 
L 586.8173 177.395339 
L 589.463953 177.491566 
L 592.110607 177.435966 
L 594.75726 177.499902 
L 597.403913 176.976375 
L 600.050567 177.315694 
L 602.69722 177.222729 
L 605.343873 177.523373 
L 615.930487 177.590617 
L 618.57714 177.277846 
L 621.223793 177.373522 
L 626.5171 176.598129 
L 629.163753 176.503326 
L 631.810407 176.606557 
L 634.45706 176.414311 
L 639.750367 176.574612 
L 642.39702 176.819679 
L 647.690327 176.569789 
L 652.983633 176.627571 
L 655.630287 176.448002 
L 660.923593 176.664155 
L 663.570247 176.324446 
L 671.510207 176.13236 
L 674.15686 176.034067 
L 679.450167 176.100254 
L 682.09682 175.800459 
L 684.743473 175.769409 
L 687.390127 175.474529 
L 690.03678 175.620155 
L 692.683433 175.499676 
L 695.330087 175.620935 
L 700.623393 176.050372 
L 703.270047 175.769731 
L 711.210007 175.598062 
L 713.85666 175.626447 
L 716.503313 175.448715 
L 719.149967 175.557435 
L 721.79662 175.461392 
L 735.029887 175.754504 
L 737.67654 175.40469 
L 740.323193 175.383515 
L 742.969847 175.475907 
L 745.6165 175.42715 
L 748.263153 175.532747 
L 750.909807 175.41801 
L 756.203113 174.750923 
L 758.849767 174.94232 
L 761.49642 174.96106 
L 766.789727 174.808682 
L 774.729687 174.999114 
L 777.37634 174.639057 
L 780.022993 174.873607 
L 785.3163 174.748489 
L 787.962953 174.414062 
L 790.609607 174.36712 
L 795.902913 174.725202 
L 803.842873 174.514904 
L 806.489527 174.206359 
L 811.782833 174.228521 
L 814.429487 173.994936 
L 817.07614 174.235847 
L 819.722793 174.114427 
L 822.369447 174.277232 
L 830.309407 174.146028 
L 832.95606 173.872552 
L 838.249367 173.721575 
L 843.542673 173.608652 
L 843.542673 173.608652 
" clip-path="url(#pc2d24d2a03)" style="fill: none; stroke: #0000ff; stroke-width: 1.5; stroke-linecap: square"/>
   </g>
   <g id="patch_3">
    <path d="M 50.87 390.04 
L 50.87 43.44 
" style="fill: none; stroke: #000000; stroke-width: 0.8; stroke-linejoin: miter; stroke-linecap: square"/>
   </g>
   <g id="patch_4">
    <path d="M 844.866 390.04 
L 844.866 43.44 
" style="fill: none; stroke: #000000; stroke-width: 0.8; stroke-linejoin: miter; stroke-linecap: square"/>
   </g>
   <g id="patch_5">
    <path d="M 50.87 390.04 
L 844.866 390.04 
" style="fill: none; stroke: #000000; stroke-width: 0.8; stroke-linejoin: miter; stroke-linecap: square"/>
   </g>
   <g id="patch_6">
    <path d="M 50.87 43.44 
L 844.866 43.44 
" style="fill: none; stroke: #000000; stroke-width: 0.8; stroke-linejoin: miter; stroke-linecap: square"/>
   </g>
   <g id="text_15">
    <!-- Mean profit per step with confidence interval per simulation step -->
    <g transform="translate(220.284875 21.763062) scale(0.14 -0.14)">
     <defs>
      <path id="DejaVuSans-4d" d="M 628 4666 
L 1569 4666 
L 2759 1491 
L 3956 4666 
L 4897 4666 
L 4897 0 
L 4281 0 
L 4281 4097 
L 3078 897 
L 2444 897 
L 1241 4097 
L 1241 0 
L 628 0 
L 628 4666 
z
" transform="scale(0.015625)"/>
      <path id="DejaVuSans-61" d="M 2194 1759 
Q 1497 1759 1228 1600 
Q 959 1441 959 1056 
Q 959 750 1161 570 
Q 1363 391 1709 391 
Q 2188 391 2477 730 
Q 2766 1069 2766 1631 
L 2766 1759 
L 2194 1759 
z
M 3341 1997 
L 3341 0 
L 2766 0 
L 2766 531 
Q 2569 213 2275 61 
Q 1981 -91 1556 -91 
Q 1019 -91 701 211 
Q 384 513 384 1019 
Q 384 1609 779 1909 
Q 1175 2209 1959 2209 
L 2766 2209 
L 2766 2266 
Q 2766 2663 2505 2880 
Q 2244 3097 1772 3097 
Q 1472 3097 1187 3025 
Q 903 2953 641 2809 
L 641 3341 
Q 956 3463 1253 3523 
Q 1550 3584 1831 3584 
Q 2591 3584 2966 3190 
Q 3341 2797 3341 1997 
z
" transform="scale(0.015625)"/>
      <path id="DejaVuSans-6e" d="M 3513 2113 
L 3513 0 
L 2938 0 
L 2938 2094 
Q 2938 2591 2744 2837 
Q 2550 3084 2163 3084 
Q 1697 3084 1428 2787 
Q 1159 2491 1159 1978 
L 1159 0 
L 581 0 
L 581 3500 
L 1159 3500 
L 1159 2956 
Q 1366 3272 1645 3428 
Q 1925 3584 2291 3584 
Q 2894 3584 3203 3211 
Q 3513 2838 3513 2113 
z
" transform="scale(0.015625)"/>
      <path id="DejaVuSans-20" transform="scale(0.015625)"/>
      <path id="DejaVuSans-73" d="M 2834 3397 
L 2834 2853 
Q 2591 2978 2328 3040 
Q 2066 3103 1784 3103 
Q 1356 3103 1142 2972 
Q 928 2841 928 2578 
Q 928 2378 1081 2264 
Q 1234 2150 1697 2047 
L 1894 2003 
Q 2506 1872 2764 1633 
Q 3022 1394 3022 966 
Q 3022 478 2636 193 
Q 2250 -91 1575 -91 
Q 1294 -91 989 -36 
Q 684 19 347 128 
L 347 722 
Q 666 556 975 473 
Q 1284 391 1588 391 
Q 1994 391 2212 530 
Q 2431 669 2431 922 
Q 2431 1156 2273 1281 
Q 2116 1406 1581 1522 
L 1381 1569 
Q 847 1681 609 1914 
Q 372 2147 372 2553 
Q 372 3047 722 3315 
Q 1072 3584 1716 3584 
Q 2034 3584 2315 3537 
Q 2597 3491 2834 3397 
z
" transform="scale(0.015625)"/>
      <path id="DejaVuSans-77" d="M 269 3500 
L 844 3500 
L 1563 769 
L 2278 3500 
L 2956 3500 
L 3675 769 
L 4391 3500 
L 4966 3500 
L 4050 0 
L 3372 0 
L 2619 2869 
L 1863 0 
L 1184 0 
L 269 3500 
z
" transform="scale(0.015625)"/>
      <path id="DejaVuSans-68" d="M 3513 2113 
L 3513 0 
L 2938 0 
L 2938 2094 
Q 2938 2591 2744 2837 
Q 2550 3084 2163 3084 
Q 1697 3084 1428 2787 
Q 1159 2491 1159 1978 
L 1159 0 
L 581 0 
L 581 4863 
L 1159 4863 
L 1159 2956 
Q 1366 3272 1645 3428 
Q 1925 3584 2291 3584 
Q 2894 3584 3203 3211 
Q 3513 2838 3513 2113 
z
" transform="scale(0.015625)"/>
      <path id="DejaVuSans-63" d="M 3122 3366 
L 3122 2828 
Q 2878 2963 2633 3030 
Q 2388 3097 2138 3097 
Q 1578 3097 1268 2742 
Q 959 2388 959 1747 
Q 959 1106 1268 751 
Q 1578 397 2138 397 
Q 2388 397 2633 464 
Q 2878 531 3122 666 
L 3122 134 
Q 2881 22 2623 -34 
Q 2366 -91 2075 -91 
Q 1284 -91 818 406 
Q 353 903 353 1747 
Q 353 2603 823 3093 
Q 1294 3584 2113 3584 
Q 2378 3584 2631 3529 
Q 2884 3475 3122 3366 
z
" transform="scale(0.015625)"/>
      <path id="DejaVuSans-64" d="M 2906 2969 
L 2906 4863 
L 3481 4863 
L 3481 0 
L 2906 0 
L 2906 525 
Q 2725 213 2448 61 
Q 2172 -91 1784 -91 
Q 1150 -91 751 415 
Q 353 922 353 1747 
Q 353 2572 751 3078 
Q 1150 3584 1784 3584 
Q 2172 3584 2448 3432 
Q 2725 3281 2906 2969 
z
M 947 1747 
Q 947 1113 1208 752 
Q 1469 391 1925 391 
Q 2381 391 2643 752 
Q 2906 1113 2906 1747 
Q 2906 2381 2643 2742 
Q 2381 3103 1925 3103 
Q 1469 3103 1208 2742 
Q 947 2381 947 1747 
z
" transform="scale(0.015625)"/>
      <path id="DejaVuSans-76" d="M 191 3500 
L 800 3500 
L 1894 563 
L 2988 3500 
L 3597 3500 
L 2284 0 
L 1503 0 
L 191 3500 
z
" transform="scale(0.015625)"/>
      <path id="DejaVuSans-6c" d="M 603 4863 
L 1178 4863 
L 1178 0 
L 603 0 
L 603 4863 
z
" transform="scale(0.015625)"/>
      <path id="DejaVuSans-6d" d="M 3328 2828 
Q 3544 3216 3844 3400 
Q 4144 3584 4550 3584 
Q 5097 3584 5394 3201 
Q 5691 2819 5691 2113 
L 5691 0 
L 5113 0 
L 5113 2094 
Q 5113 2597 4934 2840 
Q 4756 3084 4391 3084 
Q 3944 3084 3684 2787 
Q 3425 2491 3425 1978 
L 3425 0 
L 2847 0 
L 2847 2094 
Q 2847 2600 2669 2842 
Q 2491 3084 2119 3084 
Q 1678 3084 1418 2786 
Q 1159 2488 1159 1978 
L 1159 0 
L 581 0 
L 581 3500 
L 1159 3500 
L 1159 2956 
Q 1356 3278 1631 3431 
Q 1906 3584 2284 3584 
Q 2666 3584 2933 3390 
Q 3200 3197 3328 2828 
z
" transform="scale(0.015625)"/>
      <path id="DejaVuSans-75" d="M 544 1381 
L 544 3500 
L 1119 3500 
L 1119 1403 
Q 1119 906 1312 657 
Q 1506 409 1894 409 
Q 2359 409 2629 706 
Q 2900 1003 2900 1516 
L 2900 3500 
L 3475 3500 
L 3475 0 
L 2900 0 
L 2900 538 
Q 2691 219 2414 64 
Q 2138 -91 1772 -91 
Q 1169 -91 856 284 
Q 544 659 544 1381 
z
M 1991 3584 
L 1991 3584 
z
" transform="scale(0.015625)"/>
     </defs>
     <use xlink:href="#DejaVuSans-4d"/>
     <use xlink:href="#DejaVuSans-65" transform="translate(86.279297 0)"/>
     <use xlink:href="#DejaVuSans-61" transform="translate(147.802734 0)"/>
     <use xlink:href="#DejaVuSans-6e" transform="translate(209.082031 0)"/>
     <use xlink:href="#DejaVuSans-20" transform="translate(272.460938 0)"/>
     <use xlink:href="#DejaVuSans-70" transform="translate(304.248047 0)"/>
     <use xlink:href="#DejaVuSans-72" transform="translate(367.724609 0)"/>
     <use xlink:href="#DejaVuSans-6f" transform="translate(406.587891 0)"/>
     <use xlink:href="#DejaVuSans-66" transform="translate(467.769531 0)"/>
     <use xlink:href="#DejaVuSans-69" transform="translate(502.974609 0)"/>
     <use xlink:href="#DejaVuSans-74" transform="translate(530.757812 0)"/>
     <use xlink:href="#DejaVuSans-20" transform="translate(569.966797 0)"/>
     <use xlink:href="#DejaVuSans-70" transform="translate(601.753906 0)"/>
     <use xlink:href="#DejaVuSans-65" transform="translate(665.230469 0)"/>
     <use xlink:href="#DejaVuSans-72" transform="translate(726.753906 0)"/>
     <use xlink:href="#DejaVuSans-20" transform="translate(767.867188 0)"/>
     <use xlink:href="#DejaVuSans-73" transform="translate(799.654297 0)"/>
     <use xlink:href="#DejaVuSans-74" transform="translate(851.753906 0)"/>
     <use xlink:href="#DejaVuSans-65" transform="translate(890.962891 0)"/>
     <use xlink:href="#DejaVuSans-70" transform="translate(952.486328 0)"/>
     <use xlink:href="#DejaVuSans-20" transform="translate(1015.962891 0)"/>
     <use xlink:href="#DejaVuSans-77" transform="translate(1047.75 0)"/>
     <use xlink:href="#DejaVuSans-69" transform="translate(1129.537109 0)"/>
     <use xlink:href="#DejaVuSans-74" transform="translate(1157.320312 0)"/>
     <use xlink:href="#DejaVuSans-68" transform="translate(1196.529297 0)"/>
     <use xlink:href="#DejaVuSans-20" transform="translate(1259.908203 0)"/>
     <use xlink:href="#DejaVuSans-63" transform="translate(1291.695312 0)"/>
     <use xlink:href="#DejaVuSans-6f" transform="translate(1346.675781 0)"/>
     <use xlink:href="#DejaVuSans-6e" transform="translate(1407.857422 0)"/>
     <use xlink:href="#DejaVuSans-66" transform="translate(1471.236328 0)"/>
     <use xlink:href="#DejaVuSans-69" transform="translate(1506.441406 0)"/>
     <use xlink:href="#DejaVuSans-64" transform="translate(1534.224609 0)"/>
     <use xlink:href="#DejaVuSans-65" transform="translate(1597.701172 0)"/>
     <use xlink:href="#DejaVuSans-6e" transform="translate(1659.224609 0)"/>
     <use xlink:href="#DejaVuSans-63" transform="translate(1722.603516 0)"/>
     <use xlink:href="#DejaVuSans-65" transform="translate(1777.583984 0)"/>
     <use xlink:href="#DejaVuSans-20" transform="translate(1839.107422 0)"/>
     <use xlink:href="#DejaVuSans-69" transform="translate(1870.894531 0)"/>
     <use xlink:href="#DejaVuSans-6e" transform="translate(1898.677734 0)"/>
     <use xlink:href="#DejaVuSans-74" transform="translate(1962.056641 0)"/>
     <use xlink:href="#DejaVuSans-65" transform="translate(2001.265625 0)"/>
     <use xlink:href="#DejaVuSans-72" transform="translate(2062.789062 0)"/>
     <use xlink:href="#DejaVuSans-76" transform="translate(2103.902344 0)"/>
     <use xlink:href="#DejaVuSans-61" transform="translate(2163.082031 0)"/>
     <use xlink:href="#DejaVuSans-6c" transform="translate(2224.361328 0)"/>
     <use xlink:href="#DejaVuSans-20" transform="translate(2252.144531 0)"/>
     <use xlink:href="#DejaVuSans-70" transform="translate(2283.931641 0)"/>
     <use xlink:href="#DejaVuSans-65" transform="translate(2347.408203 0)"/>
     <use xlink:href="#DejaVuSans-72" transform="translate(2408.931641 0)"/>
     <use xlink:href="#DejaVuSans-20" transform="translate(2450.044922 0)"/>
     <use xlink:href="#DejaVuSans-73" transform="translate(2481.832031 0)"/>
     <use xlink:href="#DejaVuSans-69" transform="translate(2533.931641 0)"/>
     <use xlink:href="#DejaVuSans-6d" transform="translate(2561.714844 0)"/>
     <use xlink:href="#DejaVuSans-75" transform="translate(2659.126953 0)"/>
     <use xlink:href="#DejaVuSans-6c" transform="translate(2722.505859 0)"/>
     <use xlink:href="#DejaVuSans-61" transform="translate(2750.289062 0)"/>
     <use xlink:href="#DejaVuSans-74" transform="translate(2811.568359 0)"/>
     <use xlink:href="#DejaVuSans-69" transform="translate(2850.777344 0)"/>
     <use xlink:href="#DejaVuSans-6f" transform="translate(2878.560547 0)"/>
     <use xlink:href="#DejaVuSans-6e" transform="translate(2939.742188 0)"/>
     <use xlink:href="#DejaVuSans-20" transform="translate(3003.121094 0)"/>
     <use xlink:href="#DejaVuSans-73" transform="translate(3034.908203 0)"/>
     <use xlink:href="#DejaVuSans-74" transform="translate(3087.007812 0)"/>
     <use xlink:href="#DejaVuSans-65" transform="translate(3126.216797 0)"/>
     <use xlink:href="#DejaVuSans-70" transform="translate(3187.740234 0)"/>
    </g>
    <!-- Base Product: Grandaddy Purple, Recipe size: 10, T0: 50.0 -->
    <g transform="translate(243.830031 37.44) scale(0.14 -0.14)">
     <defs>
      <path id="DejaVuSans-42" d="M 1259 2228 
L 1259 519 
L 2272 519 
Q 2781 519 3026 730 
Q 3272 941 3272 1375 
Q 3272 1813 3026 2020 
Q 2781 2228 2272 2228 
L 1259 2228 
z
M 1259 4147 
L 1259 2741 
L 2194 2741 
Q 2656 2741 2882 2914 
Q 3109 3088 3109 3444 
Q 3109 3797 2882 3972 
Q 2656 4147 2194 4147 
L 1259 4147 
z
M 628 4666 
L 2241 4666 
Q 2963 4666 3353 4366 
Q 3744 4066 3744 3513 
Q 3744 3084 3544 2831 
Q 3344 2578 2956 2516 
Q 3422 2416 3680 2098 
Q 3938 1781 3938 1306 
Q 3938 681 3513 340 
Q 3088 0 2303 0 
L 628 0 
L 628 4666 
z
" transform="scale(0.015625)"/>
      <path id="DejaVuSans-3a" d="M 750 794 
L 1409 794 
L 1409 0 
L 750 0 
L 750 794 
z
M 750 3309 
L 1409 3309 
L 1409 2516 
L 750 2516 
L 750 3309 
z
" transform="scale(0.015625)"/>
      <path id="DejaVuSans-47" d="M 3809 666 
L 3809 1919 
L 2778 1919 
L 2778 2438 
L 4434 2438 
L 4434 434 
Q 4069 175 3628 42 
Q 3188 -91 2688 -91 
Q 1594 -91 976 548 
Q 359 1188 359 2328 
Q 359 3472 976 4111 
Q 1594 4750 2688 4750 
Q 3144 4750 3555 4637 
Q 3966 4525 4313 4306 
L 4313 3634 
Q 3963 3931 3569 4081 
Q 3175 4231 2741 4231 
Q 1884 4231 1454 3753 
Q 1025 3275 1025 2328 
Q 1025 1384 1454 906 
Q 1884 428 2741 428 
Q 3075 428 3337 486 
Q 3600 544 3809 666 
z
" transform="scale(0.015625)"/>
      <path id="DejaVuSans-79" d="M 2059 -325 
Q 1816 -950 1584 -1140 
Q 1353 -1331 966 -1331 
L 506 -1331 
L 506 -850 
L 844 -850 
Q 1081 -850 1212 -737 
Q 1344 -625 1503 -206 
L 1606 56 
L 191 3500 
L 800 3500 
L 1894 763 
L 2988 3500 
L 3597 3500 
L 2059 -325 
z
" transform="scale(0.015625)"/>
      <path id="DejaVuSans-2c" d="M 750 794 
L 1409 794 
L 1409 256 
L 897 -744 
L 494 -744 
L 750 256 
L 750 794 
z
" transform="scale(0.015625)"/>
      <path id="DejaVuSans-52" d="M 2841 2188 
Q 3044 2119 3236 1894 
Q 3428 1669 3622 1275 
L 4263 0 
L 3584 0 
L 2988 1197 
Q 2756 1666 2539 1819 
Q 2322 1972 1947 1972 
L 1259 1972 
L 1259 0 
L 628 0 
L 628 4666 
L 2053 4666 
Q 2853 4666 3247 4331 
Q 3641 3997 3641 3322 
Q 3641 2881 3436 2590 
Q 3231 2300 2841 2188 
z
M 1259 4147 
L 1259 2491 
L 2053 2491 
Q 2509 2491 2742 2702 
Q 2975 2913 2975 3322 
Q 2975 3731 2742 3939 
Q 2509 4147 2053 4147 
L 1259 4147 
z
" transform="scale(0.015625)"/>
      <path id="DejaVuSans-7a" d="M 353 3500 
L 3084 3500 
L 3084 2975 
L 922 459 
L 3084 459 
L 3084 0 
L 275 0 
L 275 525 
L 2438 3041 
L 353 3041 
L 353 3500 
z
" transform="scale(0.015625)"/>
      <path id="DejaVuSans-54" d="M -19 4666 
L 3928 4666 
L 3928 4134 
L 2272 4134 
L 2272 0 
L 1638 0 
L 1638 4134 
L -19 4134 
L -19 4666 
z
" transform="scale(0.015625)"/>
      <path id="DejaVuSans-2e" d="M 684 794 
L 1344 794 
L 1344 0 
L 684 0 
L 684 794 
z
" transform="scale(0.015625)"/>
     </defs>
     <use xlink:href="#DejaVuSans-42"/>
     <use xlink:href="#DejaVuSans-61" transform="translate(68.603516 0)"/>
     <use xlink:href="#DejaVuSans-73" transform="translate(129.882812 0)"/>
     <use xlink:href="#DejaVuSans-65" transform="translate(181.982422 0)"/>
     <use xlink:href="#DejaVuSans-20" transform="translate(243.505859 0)"/>
     <use xlink:href="#DejaVuSans-50" transform="translate(275.292969 0)"/>
     <use xlink:href="#DejaVuSans-72" transform="translate(333.845703 0)"/>
     <use xlink:href="#DejaVuSans-6f" transform="translate(372.708984 0)"/>
     <use xlink:href="#DejaVuSans-64" transform="translate(433.890625 0)"/>
     <use xlink:href="#DejaVuSans-75" transform="translate(497.367188 0)"/>
     <use xlink:href="#DejaVuSans-63" transform="translate(560.746094 0)"/>
     <use xlink:href="#DejaVuSans-74" transform="translate(615.726562 0)"/>
     <use xlink:href="#DejaVuSans-3a" transform="translate(654.935547 0)"/>
     <use xlink:href="#DejaVuSans-20" transform="translate(688.626953 0)"/>
     <use xlink:href="#DejaVuSans-47" transform="translate(720.414062 0)"/>
     <use xlink:href="#DejaVuSans-72" transform="translate(797.904297 0)"/>
     <use xlink:href="#DejaVuSans-61" transform="translate(839.017578 0)"/>
     <use xlink:href="#DejaVuSans-6e" transform="translate(900.296875 0)"/>
     <use xlink:href="#DejaVuSans-64" transform="translate(963.675781 0)"/>
     <use xlink:href="#DejaVuSans-61" transform="translate(1027.152344 0)"/>
     <use xlink:href="#DejaVuSans-64" transform="translate(1088.431641 0)"/>
     <use xlink:href="#DejaVuSans-64" transform="translate(1151.908203 0)"/>
     <use xlink:href="#DejaVuSans-79" transform="translate(1215.384766 0)"/>
     <use xlink:href="#DejaVuSans-20" transform="translate(1274.564453 0)"/>
     <use xlink:href="#DejaVuSans-50" transform="translate(1306.351562 0)"/>
     <use xlink:href="#DejaVuSans-75" transform="translate(1364.904297 0)"/>
     <use xlink:href="#DejaVuSans-72" transform="translate(1428.283203 0)"/>
     <use xlink:href="#DejaVuSans-70" transform="translate(1469.396484 0)"/>
     <use xlink:href="#DejaVuSans-6c" transform="translate(1532.873047 0)"/>
     <use xlink:href="#DejaVuSans-65" transform="translate(1560.65625 0)"/>
     <use xlink:href="#DejaVuSans-2c" transform="translate(1622.179688 0)"/>
     <use xlink:href="#DejaVuSans-20" transform="translate(1653.966797 0)"/>
     <use xlink:href="#DejaVuSans-52" transform="translate(1685.753906 0)"/>
     <use xlink:href="#DejaVuSans-65" transform="translate(1750.736328 0)"/>
     <use xlink:href="#DejaVuSans-63" transform="translate(1812.259766 0)"/>
     <use xlink:href="#DejaVuSans-69" transform="translate(1867.240234 0)"/>
     <use xlink:href="#DejaVuSans-70" transform="translate(1895.023438 0)"/>
     <use xlink:href="#DejaVuSans-65" transform="translate(1958.5 0)"/>
     <use xlink:href="#DejaVuSans-20" transform="translate(2020.023438 0)"/>
     <use xlink:href="#DejaVuSans-73" transform="translate(2051.810547 0)"/>
     <use xlink:href="#DejaVuSans-69" transform="translate(2103.910156 0)"/>
     <use xlink:href="#DejaVuSans-7a" transform="translate(2131.693359 0)"/>
     <use xlink:href="#DejaVuSans-65" transform="translate(2184.183594 0)"/>
     <use xlink:href="#DejaVuSans-3a" transform="translate(2245.707031 0)"/>
     <use xlink:href="#DejaVuSans-20" transform="translate(2279.398438 0)"/>
     <use xlink:href="#DejaVuSans-31" transform="translate(2311.185547 0)"/>
     <use xlink:href="#DejaVuSans-30" transform="translate(2374.808594 0)"/>
     <use xlink:href="#DejaVuSans-2c" transform="translate(2438.431641 0)"/>
     <use xlink:href="#DejaVuSans-20" transform="translate(2470.21875 0)"/>
     <use xlink:href="#DejaVuSans-54" transform="translate(2502.005859 0)"/>
     <use xlink:href="#DejaVuSans-30" transform="translate(2563.089844 0)"/>
     <use xlink:href="#DejaVuSans-3a" transform="translate(2626.712891 0)"/>
     <use xlink:href="#DejaVuSans-20" transform="translate(2660.404297 0)"/>
     <use xlink:href="#DejaVuSans-35" transform="translate(2692.191406 0)"/>
     <use xlink:href="#DejaVuSans-30" transform="translate(2755.814453 0)"/>
     <use xlink:href="#DejaVuSans-2e" transform="translate(2819.4375 0)"/>
     <use xlink:href="#DejaVuSans-30" transform="translate(2851.224609 0)"/>
    </g>
   </g>
  </g>
 </g>
 <defs>
  <clipPath id="pc2d24d2a03">
   <rect x="50.87" y="43.44" width="793.996" height="346.6"/>
  </clipPath>
 </defs>
</svg>
