<?xml version="1.0" encoding="utf-8" standalone="no"?>
<!DOCTYPE svg PUBLIC "-//W3C//DTD SVG 1.1//EN"
  "http://www.w3.org/Graphics/SVG/1.1/DTD/svg11.dtd">
<svg xmlns:xlink="http://www.w3.org/1999/xlink" width="864pt" height="432pt" viewBox="0 0 864 432" xmlns="http://www.w3.org/2000/svg" version="1.1">
 <metadata>
  <rdf:RDF xmlns:dc="http://purl.org/dc/elements/1.1/" xmlns:cc="http://creativecommons.org/ns#" xmlns:rdf="http://www.w3.org/1999/02/22-rdf-syntax-ns#">
   <cc:Work>
    <dc:type rdf:resource="http://purl.org/dc/dcmitype/StillImage"/>
    <dc:date>2025-05-24T02:13:50.907653</dc:date>
    <dc:format>image/svg+xml</dc:format>
    <dc:creator>
     <cc:Agent>
      <dc:title>Matplotlib v3.10.3, https://matplotlib.org/</dc:title>
     </cc:Agent>
    </dc:creator>
   </cc:Work>
  </rdf:RDF>
 </metadata>
 <defs>
  <style type="text/css">*{stroke-linejoin: round; stroke-linecap: butt}</style>
 </defs>
 <g id="figure_1">
  <g id="patch_1">
   <path d="M 0 432 
L 864 432 
L 864 0 
L 0 0 
z
" style="fill: #ffffff"/>
  </g>
  <g id="axes_1">
   <g id="patch_2">
    <path d="M 50.87 390.04 
L 844.866 390.04 
L 844.866 43.44 
L 50.87 43.44 
z
" style="fill: #ffffff"/>
   </g>
   <g id="FillBetweenPolyCollection_1">
    <defs>
     <path id="m0f5754b642" d="M 52.193327 -308.235512 
L 52.193327 -58.774056 
L 54.83998 -57.714545 
L 57.486633 -69.75667 
L 60.133287 -81.340139 
L 62.77994 -91.732277 
L 65.426593 -102.086513 
L 68.073247 -111.258534 
L 70.7199 -119.716479 
L 73.366553 -126.635868 
L 76.013207 -132.456884 
L 78.65986 -138.382867 
L 81.306513 -143.502053 
L 83.953167 -148.699449 
L 86.59982 -153.313716 
L 89.246473 -156.93966 
L 91.893127 -161.230956 
L 94.53978 -164.807981 
L 97.186433 -167.830243 
L 99.833087 -170.380439 
L 102.47974 -173.014422 
L 105.126393 -175.923905 
L 107.773047 -177.30492 
L 110.4197 -179.850411 
L 113.066353 -181.860397 
L 115.713007 -183.690141 
L 118.35966 -185.602701 
L 121.006313 -187.497697 
L 123.652967 -189.268057 
L 126.29962 -191.058658 
L 128.946273 -192.925818 
L 131.592927 -194.014005 
L 134.23958 -195.184147 
L 136.886233 -196.47983 
L 139.532887 -197.796552 
L 142.17954 -199.373637 
L 144.826193 -201.201093 
L 147.472847 -202.212786 
L 150.1195 -202.871244 
L 152.766153 -203.99605 
L 155.412807 -205.080461 
L 158.05946 -206.172749 
L 160.706113 -207.252219 
L 163.352767 -208.240909 
L 165.99942 -209.382891 
L 168.646073 -210.187736 
L 171.292727 -210.972815 
L 173.93938 -211.568934 
L 176.586033 -212.794963 
L 179.232687 -212.885289 
L 181.87934 -213.422607 
L 184.525993 -214.309837 
L 187.172647 -214.978826 
L 189.8193 -215.835458 
L 192.465953 -216.530534 
L 195.112607 -217.305968 
L 197.75926 -217.87848 
L 200.405913 -218.26201 
L 203.052567 -218.9775 
L 205.69922 -219.439122 
L 208.345873 -220.271932 
L 210.992527 -220.776969 
L 213.63918 -221.368384 
L 216.285833 -221.690006 
L 218.932487 -222.087779 
L 221.57914 -222.53859 
L 224.225793 -222.893314 
L 226.872447 -223.372781 
L 229.5191 -223.676925 
L 232.165753 -224.264952 
L 234.812407 -224.678325 
L 237.45906 -225.16979 
L 240.105713 -225.610309 
L 242.752367 -226.075469 
L 245.39902 -226.652103 
L 248.045673 -226.86618 
L 250.692327 -227.385718 
L 253.33898 -228.044824 
L 255.985633 -228.611272 
L 258.632287 -228.976958 
L 261.27894 -229.302465 
L 263.925593 -229.665064 
L 266.572247 -230.35384 
L 269.2189 -230.470233 
L 271.865553 -230.967718 
L 274.512207 -231.322463 
L 277.15886 -231.835635 
L 279.805513 -232.000492 
L 282.452167 -232.607465 
L 285.09882 -232.744141 
L 287.745473 -233.078517 
L 290.392127 -233.417294 
L 293.03878 -233.37977 
L 295.685433 -233.995309 
L 298.332087 -234.355772 
L 300.97874 -234.929083 
L 303.625393 -235.177599 
L 306.272047 -235.501487 
L 308.9187 -235.920126 
L 311.565353 -236.354473 
L 314.212007 -236.576491 
L 316.85866 -236.847556 
L 319.505313 -237.211601 
L 322.151967 -237.410444 
L 324.79862 -237.926961 
L 327.445273 -238.057078 
L 330.091927 -238.178714 
L 332.73858 -238.150597 
L 335.385233 -238.520965 
L 338.031887 -238.816392 
L 340.67854 -238.894915 
L 343.325193 -239.155191 
L 345.971847 -239.619424 
L 348.6185 -239.903199 
L 351.265153 -239.971623 
L 353.911807 -240.358239 
L 356.55846 -240.614243 
L 359.205113 -240.900715 
L 361.851767 -241.386677 
L 364.49842 -241.518347 
L 367.145073 -241.788549 
L 369.791727 -241.90628 
L 372.43838 -242.169124 
L 375.085033 -242.342591 
L 377.731687 -242.603018 
L 380.37834 -242.860985 
L 383.024993 -243.096467 
L 385.671647 -243.128058 
L 388.3183 -243.376423 
L 390.964953 -243.554011 
L 393.611607 -243.832068 
L 396.25826 -244.095494 
L 398.904913 -244.45326 
L 401.551567 -244.7516 
L 404.19822 -244.986802 
L 406.844873 -245.069792 
L 409.491527 -245.305426 
L 412.13818 -245.6365 
L 414.784833 -245.992842 
L 417.431487 -246.055764 
L 420.07814 -246.128417 
L 422.724793 -246.398663 
L 425.371447 -246.523255 
L 428.0181 -246.941311 
L 430.664753 -247.067004 
L 433.311407 -247.066248 
L 435.95806 -247.19548 
L 438.604713 -247.438645 
L 441.251367 -247.761174 
L 443.89802 -247.706646 
L 446.544673 -248.008309 
L 449.191327 -248.279158 
L 451.83798 -248.545476 
L 454.484633 -248.727293 
L 457.131287 -249.018707 
L 459.77794 -249.022634 
L 462.424593 -249.001552 
L 465.071247 -249.065294 
L 467.7179 -249.417083 
L 470.364553 -249.604252 
L 473.011207 -249.782359 
L 475.65786 -250.054308 
L 478.304513 -250.139844 
L 480.951167 -250.588714 
L 483.59782 -250.72129 
L 486.244473 -251.067836 
L 488.891127 -251.230168 
L 491.53778 -251.524905 
L 494.184433 -251.800458 
L 496.831087 -251.969696 
L 499.47774 -252.165259 
L 502.124393 -252.392736 
L 504.771047 -252.454363 
L 507.4177 -252.720336 
L 510.064353 -252.801319 
L 512.711007 -252.956272 
L 515.35766 -253.022279 
L 518.004313 -253.209211 
L 520.650967 -253.436041 
L 523.29762 -253.654951 
L 525.944273 -253.666172 
L 528.590927 -253.927333 
L 531.23758 -254.059089 
L 533.884233 -254.139792 
L 536.530887 -254.209489 
L 539.17754 -254.29783 
L 541.824193 -254.435369 
L 544.470847 -254.544469 
L 547.1175 -254.705248 
L 549.764153 -254.90955 
L 552.410807 -254.852023 
L 555.05746 -254.953138 
L 557.704113 -255.178867 
L 560.350767 -255.206552 
L 562.99742 -255.394455 
L 565.644073 -255.680215 
L 568.290727 -255.924998 
L 570.93738 -256.104722 
L 573.584033 -256.319684 
L 576.230687 -256.347347 
L 578.87734 -256.445657 
L 581.523993 -256.615888 
L 584.170647 -256.725893 
L 586.8173 -256.87215 
L 589.463953 -256.811904 
L 592.110607 -257.086875 
L 594.75726 -257.256458 
L 597.403913 -257.52079 
L 600.050567 -257.572276 
L 602.69722 -257.737565 
L 605.343873 -257.780311 
L 607.990527 -258.015837 
L 610.63718 -257.919512 
L 613.283833 -258.217938 
L 615.930487 -258.353169 
L 618.57714 -258.392894 
L 621.223793 -258.600347 
L 623.870447 -258.670886 
L 626.5171 -258.856998 
L 629.163753 -259.022243 
L 631.810407 -259.143728 
L 634.45706 -259.126595 
L 637.103713 -259.13609 
L 639.750367 -259.2046 
L 642.39702 -259.38385 
L 645.043673 -259.605307 
L 647.690327 -259.760044 
L 650.33698 -259.945833 
L 652.983633 -259.900561 
L 655.630287 -260.016436 
L 658.27694 -260.194715 
L 660.923593 -260.156285 
L 663.570247 -260.312187 
L 666.2169 -260.430263 
L 668.863553 -260.640715 
L 671.510207 -260.77711 
L 674.15686 -260.756438 
L 676.803513 -260.955756 
L 679.450167 -261.141976 
L 682.09682 -261.228224 
L 684.743473 -261.379465 
L 687.390127 -261.426419 
L 690.03678 -261.518256 
L 692.683433 -261.709676 
L 695.330087 -261.846503 
L 697.97674 -261.817481 
L 700.623393 -261.759673 
L 703.270047 -261.838843 
L 705.9167 -261.780841 
L 708.563353 -261.764183 
L 711.210007 -261.829564 
L 713.85666 -261.847733 
L 716.503313 -261.938189 
L 719.149967 -262.170888 
L 721.79662 -262.15997 
L 724.443273 -262.351109 
L 727.089927 -262.345369 
L 729.73658 -262.724951 
L 732.383233 -262.814134 
L 735.029887 -262.992369 
L 737.67654 -263.046768 
L 740.323193 -263.15166 
L 742.969847 -263.253768 
L 745.6165 -263.348841 
L 748.263153 -263.551805 
L 750.909807 -263.817907 
L 753.55646 -264.072724 
L 756.203113 -264.034445 
L 758.849767 -264.16031 
L 761.49642 -264.255858 
L 764.143073 -264.347285 
L 766.789727 -264.463786 
L 769.43638 -264.564793 
L 772.083033 -264.580114 
L 774.729687 -264.550012 
L 777.37634 -264.485277 
L 780.022993 -264.696032 
L 782.669647 -264.841835 
L 785.3163 -264.929227 
L 787.962953 -265.162012 
L 790.609607 -265.127444 
L 793.25626 -265.276204 
L 795.902913 -265.371839 
L 798.549567 -265.404012 
L 801.19622 -265.305723 
L 803.842873 -265.486699 
L 806.489527 -265.618585 
L 809.13618 -265.754441 
L 811.782833 -265.77794 
L 814.429487 -265.957514 
L 817.07614 -266.03718 
L 819.722793 -266.046826 
L 822.369447 -266.064563 
L 825.0161 -266.088795 
L 827.662753 -266.267916 
L 830.309407 -266.087263 
L 832.95606 -266.432104 
L 835.602713 -266.477548 
L 838.249367 -266.516906 
L 840.89602 -266.717734 
L 843.542673 -266.793668 
L 843.542673 -372.727298 
L 843.542673 -372.727298 
L 840.89602 -372.704857 
L 838.249367 -372.744604 
L 835.602713 -372.682243 
L 832.95606 -372.694586 
L 830.309407 -372.805455 
L 827.662753 -372.602231 
L 825.0161 -372.629765 
L 822.369447 -372.592866 
L 819.722793 -372.523039 
L 817.07614 -372.430037 
L 814.429487 -372.392189 
L 811.782833 -372.423909 
L 809.13618 -372.372122 
L 806.489527 -372.399353 
L 803.842873 -372.430771 
L 801.19622 -372.47341 
L 798.549567 -372.29923 
L 795.902913 -372.279379 
L 793.25626 -372.254477 
L 790.609607 -372.284169 
L 787.962953 -372.171272 
L 785.3163 -372.309933 
L 782.669647 -372.332547 
L 780.022993 -372.318651 
L 777.37634 -372.339668 
L 774.729687 -372.244336 
L 772.083033 -372.170452 
L 769.43638 -372.068991 
L 766.789727 -372.02946 
L 764.143073 -372.00266 
L 761.49642 -372.034811 
L 758.849767 -372.027863 
L 756.203113 -372.048751 
L 753.55646 -371.925669 
L 750.909807 -371.979744 
L 748.263153 -371.991137 
L 745.6165 -372.065798 
L 742.969847 -372.047801 
L 740.323193 -372.033948 
L 737.67654 -371.985354 
L 735.029887 -371.934084 
L 732.383233 -372.020052 
L 729.73658 -372.017678 
L 727.089927 -372.172523 
L 724.443273 -372.003609 
L 721.79662 -372.119527 
L 719.149967 -372.0084 
L 716.503313 -372.026698 
L 713.85666 -371.945435 
L 711.210007 -371.900077 
L 708.563353 -371.811003 
L 705.9167 -371.719036 
L 703.270047 -371.537995 
L 700.623393 -371.517669 
L 697.97674 -371.313841 
L 695.330087 -371.196326 
L 692.683433 -371.183034 
L 690.03678 -371.24095 
L 687.390127 -371.245654 
L 684.743473 -371.206511 
L 682.09682 -371.28074 
L 679.450167 -371.231542 
L 676.803513 -371.297658 
L 674.15686 -371.305469 
L 671.510207 -371.172073 
L 668.863553 -371.12801 
L 666.2169 -371.096635 
L 663.570247 -370.998627 
L 660.923593 -370.999706 
L 658.27694 -370.786643 
L 655.630287 -370.771495 
L 652.983633 -370.756736 
L 650.33698 -370.584887 
L 647.690327 -370.626015 
L 645.043673 -370.570559 
L 642.39702 -370.593001 
L 639.750367 -370.549024 
L 637.103713 -370.469012 
L 634.45706 -370.274636 
L 631.810407 -370.208434 
L 629.163753 -370.180598 
L 626.5171 -370.25172 
L 623.870447 -370.300746 
L 621.223793 -370.244427 
L 618.57714 -370.263027 
L 615.930487 -370.148361 
L 613.283833 -370.128854 
L 610.63718 -370.236572 
L 607.990527 -370.063299 
L 605.343873 -370.093854 
L 602.69722 -370.037708 
L 600.050567 -369.977289 
L 597.403913 -369.831981 
L 594.75726 -369.848424 
L 592.110607 -369.793961 
L 589.463953 -369.870995 
L 586.8173 -369.654479 
L 584.170647 -369.700139 
L 581.523993 -369.706051 
L 578.87734 -369.68266 
L 576.230687 -369.605669 
L 573.584033 -369.499073 
L 570.93738 -369.463944 
L 568.290727 -369.449875 
L 565.644073 -369.447803 
L 562.99742 -369.439345 
L 560.350767 -369.417594 
L 557.704113 -369.329426 
L 555.05746 -369.290153 
L 552.410807 -369.183686 
L 549.764153 -368.968423 
L 547.1175 -368.906105 
L 544.470847 -368.936357 
L 541.824193 -368.841974 
L 539.17754 -368.742585 
L 536.530887 -368.701716 
L 533.884233 -368.567457 
L 531.23758 -368.490164 
L 528.590927 -368.428968 
L 525.944273 -368.375886 
L 523.29762 -368.24482 
L 520.650967 -368.263593 
L 518.004313 -368.313611 
L 515.35766 -368.339807 
L 512.711007 -368.206626 
L 510.064353 -368.132311 
L 507.4177 -367.985752 
L 504.771047 -368.01307 
L 502.124393 -367.888435 
L 499.47774 -367.878983 
L 496.831087 -367.88071 
L 494.184433 -367.799101 
L 491.53778 -367.779724 
L 488.891127 -367.830821 
L 486.244473 -367.779896 
L 483.59782 -367.892837 
L 480.951167 -367.810796 
L 478.304513 -367.921147 
L 475.65786 -367.855075 
L 473.011207 -367.917824 
L 470.364553 -367.862498 
L 467.7179 -367.823614 
L 465.071247 -367.886493 
L 462.424593 -367.757196 
L 459.77794 -367.529633 
L 457.131287 -367.368789 
L 454.484633 -367.327445 
L 451.83798 -367.325978 
L 449.191327 -367.289122 
L 446.544673 -367.326841 
L 443.89802 -367.325805 
L 441.251367 -367.171046 
L 438.604713 -367.208938 
L 435.95806 -367.212994 
L 433.311407 -367.126811 
L 430.664753 -366.899334 
L 428.0181 -366.755451 
L 425.371447 -366.8223 
L 422.724793 -366.703232 
L 420.07814 -366.656321 
L 417.431487 -366.450594 
L 414.784833 -366.283493 
L 412.13818 -366.316551 
L 409.491527 -366.361433 
L 406.844873 -366.29726 
L 404.19822 -366.082255 
L 401.551567 -366.057397 
L 398.904913 -366.055411 
L 396.25826 -366.068876 
L 393.611607 -366.004357 
L 390.964953 -365.966078 
L 388.3183 -365.851713 
L 385.671647 -365.845542 
L 383.024993 -365.583281 
L 380.37834 -365.502902 
L 377.731687 -365.432924 
L 375.085033 -365.355221 
L 372.43838 -365.194097 
L 369.791727 -365.15312 
L 367.145073 -364.946012 
L 364.49842 -364.888269 
L 361.851767 -364.703603 
L 359.205113 -364.82593 
L 356.55846 -364.722959 
L 353.911807 -364.633668 
L 351.265153 -364.667395 
L 348.6185 -364.439637 
L 345.971847 -364.285591 
L 343.325193 -364.387569 
L 340.67854 -364.24498 
L 338.031887 -363.949252 
L 335.385233 -363.778719 
L 332.73858 -363.842634 
L 330.091927 -363.488601 
L 327.445273 -363.233223 
L 324.79862 -363.156448 
L 322.151967 -363.14076 
L 319.505313 -362.833768 
L 316.85866 -362.688784 
L 314.212007 -362.567773 
L 311.565353 -362.375059 
L 308.9187 -362.40995 
L 306.272047 -362.383992 
L 303.625393 -362.252581 
L 300.97874 -362.063664 
L 298.332087 -362.171878 
L 295.685433 -362.059823 
L 293.03878 -362.084508 
L 290.392127 -361.56113 
L 287.745473 -361.539336 
L 285.09882 -361.428122 
L 282.452167 -361.276384 
L 279.805513 -361.28823 
L 277.15886 -360.967104 
L 274.512207 -360.921617 
L 271.865553 -360.688616 
L 269.2189 -360.657953 
L 266.572247 -360.317061 
L 263.925593 -360.265791 
L 261.27894 -360.019412 
L 258.632287 -359.848448 
L 255.985633 -359.535758 
L 253.33898 -359.436305 
L 250.692327 -359.359335 
L 248.045673 -359.214481 
L 245.39902 -358.951767 
L 242.752367 -358.898361 
L 240.105713 -358.724937 
L 237.45906 -358.426662 
L 234.812407 -358.292402 
L 232.165753 -358.103442 
L 229.5191 -358.013224 
L 226.872447 -357.528988 
L 224.225793 -357.484925 
L 221.57914 -357.266575 
L 218.932487 -356.850117 
L 216.285833 -356.501413 
L 213.63918 -356.178064 
L 210.992527 -356.099649 
L 208.345873 -355.738452 
L 205.69922 -355.631705 
L 203.052567 -355.294502 
L 200.405913 -355.08282 
L 197.75926 -354.705289 
L 195.112607 -354.415709 
L 192.465953 -354.185859 
L 189.8193 -354.078442 
L 187.172647 -353.842399 
L 184.525993 -353.667378 
L 181.87934 -353.514065 
L 179.232687 -353.119724 
L 176.586033 -352.174298 
L 173.93938 -352.148965 
L 171.292727 -351.68348 
L 168.646073 -351.354694 
L 165.99942 -351.039069 
L 163.352767 -350.858439 
L 160.706113 -350.667752 
L 158.05946 -350.364277 
L 155.412807 -350.013459 
L 152.766153 -349.6558 
L 150.1195 -349.232242 
L 147.472847 -348.729492 
L 144.826193 -348.175602 
L 142.17954 -348.129381 
L 139.532887 -347.888159 
L 136.886233 -347.527307 
L 134.23958 -346.771553 
L 131.592927 -346.128178 
L 128.946273 -345.560715 
L 126.29962 -345.447861 
L 123.652967 -344.985397 
L 121.006313 -344.62215 
L 118.35966 -344.250574 
L 115.713007 -343.739085 
L 113.066353 -343.004261 
L 110.4197 -342.31486 
L 107.773047 -342.114442 
L 105.126393 -340.791678 
L 102.47974 -340.291798 
L 99.833087 -339.498304 
L 97.186433 -338.748936 
L 94.53978 -337.948278 
L 91.893127 -337.202364 
L 89.246473 -336.976397 
L 86.59982 -335.73919 
L 83.953167 -335.173152 
L 81.306513 -334.541709 
L 78.65986 -333.605065 
L 76.013207 -332.358623 
L 73.366553 -330.314004 
L 70.7199 -328.227351 
L 68.073247 -326.733105 
L 65.426593 -324.729097 
L 62.77994 -322.483153 
L 60.133287 -318.322362 
L 57.486633 -314.400916 
L 54.83998 -309.539331 
L 52.193327 -308.235512 
z
" style="stroke: #0000ff; stroke-opacity: 0.2"/>
    </defs>
    <g clip-path="url(#pb4f495bf6e)">
     <use xlink:href="#m0f5754b642" x="0" y="432" style="fill: #0000ff; fill-opacity: 0.2; stroke: #0000ff; stroke-opacity: 0.2"/>
    </g>
   </g>
   <g id="matplotlib.axis_1">
    <g id="xtick_1">
     <g id="line2d_1">
      <defs>
       <path id="m2441bcce10" d="M 0 0 
L 0 3.5 
" style="stroke: #000000; stroke-width: 0.8"/>
      </defs>
      <g>
       <use xlink:href="#m2441bcce10" x="181.87934" y="390.04" style="stroke: #000000; stroke-width: 0.8"/>
      </g>
     </g>
     <g id="text_1">
      <!-- 50 -->
      <g transform="translate(175.51684 404.638438) scale(0.1 -0.1)">
       <defs>
        <path id="DejaVuSans-35" d="M 691 4666 
L 3169 4666 
L 3169 4134 
L 1269 4134 
L 1269 2991 
Q 1406 3038 1543 3061 
Q 1681 3084 1819 3084 
Q 2600 3084 3056 2656 
Q 3513 2228 3513 1497 
Q 3513 744 3044 326 
Q 2575 -91 1722 -91 
Q 1428 -91 1123 -41 
Q 819 9 494 109 
L 494 744 
Q 775 591 1075 516 
Q 1375 441 1709 441 
Q 2250 441 2565 725 
Q 2881 1009 2881 1497 
Q 2881 1984 2565 2268 
Q 2250 2553 1709 2553 
Q 1456 2553 1204 2497 
Q 953 2441 691 2322 
L 691 4666 
z
" transform="scale(0.015625)"/>
        <path id="DejaVuSans-30" d="M 2034 4250 
Q 1547 4250 1301 3770 
Q 1056 3291 1056 2328 
Q 1056 1369 1301 889 
Q 1547 409 2034 409 
Q 2525 409 2770 889 
Q 3016 1369 3016 2328 
Q 3016 3291 2770 3770 
Q 2525 4250 2034 4250 
z
M 2034 4750 
Q 2819 4750 3233 4129 
Q 3647 3509 3647 2328 
Q 3647 1150 3233 529 
Q 2819 -91 2034 -91 
Q 1250 -91 836 529 
Q 422 1150 422 2328 
Q 422 3509 836 4129 
Q 1250 4750 2034 4750 
z
" transform="scale(0.015625)"/>
       </defs>
       <use xlink:href="#DejaVuSans-35"/>
       <use xlink:href="#DejaVuSans-30" transform="translate(63.623047 0)"/>
      </g>
     </g>
    </g>
    <g id="xtick_2">
     <g id="line2d_2">
      <g>
       <use xlink:href="#m2441bcce10" x="314.212007" y="390.04" style="stroke: #000000; stroke-width: 0.8"/>
      </g>
     </g>
     <g id="text_2">
      <!-- 100 -->
      <g transform="translate(304.668257 404.638438) scale(0.1 -0.1)">
       <defs>
        <path id="DejaVuSans-31" d="M 794 531 
L 1825 531 
L 1825 4091 
L 703 3866 
L 703 4441 
L 1819 4666 
L 2450 4666 
L 2450 531 
L 3481 531 
L 3481 0 
L 794 0 
L 794 531 
z
" transform="scale(0.015625)"/>
       </defs>
       <use xlink:href="#DejaVuSans-31"/>
       <use xlink:href="#DejaVuSans-30" transform="translate(63.623047 0)"/>
       <use xlink:href="#DejaVuSans-30" transform="translate(127.246094 0)"/>
      </g>
     </g>
    </g>
    <g id="xtick_3">
     <g id="line2d_3">
      <g>
       <use xlink:href="#m2441bcce10" x="446.544673" y="390.04" style="stroke: #000000; stroke-width: 0.8"/>
      </g>
     </g>
     <g id="text_3">
      <!-- 150 -->
      <g transform="translate(437.000923 404.638438) scale(0.1 -0.1)">
       <use xlink:href="#DejaVuSans-31"/>
       <use xlink:href="#DejaVuSans-35" transform="translate(63.623047 0)"/>
       <use xlink:href="#DejaVuSans-30" transform="translate(127.246094 0)"/>
      </g>
     </g>
    </g>
    <g id="xtick_4">
     <g id="line2d_4">
      <g>
       <use xlink:href="#m2441bcce10" x="578.87734" y="390.04" style="stroke: #000000; stroke-width: 0.8"/>
      </g>
     </g>
     <g id="text_4">
      <!-- 200 -->
      <g transform="translate(569.33359 404.638438) scale(0.1 -0.1)">
       <defs>
        <path id="DejaVuSans-32" d="M 1228 531 
L 3431 531 
L 3431 0 
L 469 0 
L 469 531 
Q 828 903 1448 1529 
Q 2069 2156 2228 2338 
Q 2531 2678 2651 2914 
Q 2772 3150 2772 3378 
Q 2772 3750 2511 3984 
Q 2250 4219 1831 4219 
Q 1534 4219 1204 4116 
Q 875 4013 500 3803 
L 500 4441 
Q 881 4594 1212 4672 
Q 1544 4750 1819 4750 
Q 2544 4750 2975 4387 
Q 3406 4025 3406 3419 
Q 3406 3131 3298 2873 
Q 3191 2616 2906 2266 
Q 2828 2175 2409 1742 
Q 1991 1309 1228 531 
z
" transform="scale(0.015625)"/>
       </defs>
       <use xlink:href="#DejaVuSans-32"/>
       <use xlink:href="#DejaVuSans-30" transform="translate(63.623047 0)"/>
       <use xlink:href="#DejaVuSans-30" transform="translate(127.246094 0)"/>
      </g>
     </g>
    </g>
    <g id="xtick_5">
     <g id="line2d_5">
      <g>
       <use xlink:href="#m2441bcce10" x="711.210007" y="390.04" style="stroke: #000000; stroke-width: 0.8"/>
      </g>
     </g>
     <g id="text_5">
      <!-- 250 -->
      <g transform="translate(701.666257 404.638438) scale(0.1 -0.1)">
       <use xlink:href="#DejaVuSans-32"/>
       <use xlink:href="#DejaVuSans-35" transform="translate(63.623047 0)"/>
       <use xlink:href="#DejaVuSans-30" transform="translate(127.246094 0)"/>
      </g>
     </g>
    </g>
    <g id="xtick_6">
     <g id="line2d_6">
      <g>
       <use xlink:href="#m2441bcce10" x="843.542673" y="390.04" style="stroke: #000000; stroke-width: 0.8"/>
      </g>
     </g>
     <g id="text_6">
      <!-- 300 -->
      <g transform="translate(833.998923 404.638438) scale(0.1 -0.1)">
       <defs>
        <path id="DejaVuSans-33" d="M 2597 2516 
Q 3050 2419 3304 2112 
Q 3559 1806 3559 1356 
Q 3559 666 3084 287 
Q 2609 -91 1734 -91 
Q 1441 -91 1130 -33 
Q 819 25 488 141 
L 488 750 
Q 750 597 1062 519 
Q 1375 441 1716 441 
Q 2309 441 2620 675 
Q 2931 909 2931 1356 
Q 2931 1769 2642 2001 
Q 2353 2234 1838 2234 
L 1294 2234 
L 1294 2753 
L 1863 2753 
Q 2328 2753 2575 2939 
Q 2822 3125 2822 3475 
Q 2822 3834 2567 4026 
Q 2313 4219 1838 4219 
Q 1578 4219 1281 4162 
Q 984 4106 628 3988 
L 628 4550 
Q 988 4650 1302 4700 
Q 1616 4750 1894 4750 
Q 2613 4750 3031 4423 
Q 3450 4097 3450 3541 
Q 3450 3153 3228 2886 
Q 3006 2619 2597 2516 
z
" transform="scale(0.015625)"/>
       </defs>
       <use xlink:href="#DejaVuSans-33"/>
       <use xlink:href="#DejaVuSans-30" transform="translate(63.623047 0)"/>
       <use xlink:href="#DejaVuSans-30" transform="translate(127.246094 0)"/>
      </g>
     </g>
    </g>
    <g id="text_7">
     <!-- Step -->
     <g transform="translate(436.482844 418.316562) scale(0.1 -0.1)">
      <defs>
       <path id="DejaVuSans-53" d="M 3425 4513 
L 3425 3897 
Q 3066 4069 2747 4153 
Q 2428 4238 2131 4238 
Q 1616 4238 1336 4038 
Q 1056 3838 1056 3469 
Q 1056 3159 1242 3001 
Q 1428 2844 1947 2747 
L 2328 2669 
Q 3034 2534 3370 2195 
Q 3706 1856 3706 1288 
Q 3706 609 3251 259 
Q 2797 -91 1919 -91 
Q 1588 -91 1214 -16 
Q 841 59 441 206 
L 441 856 
Q 825 641 1194 531 
Q 1563 422 1919 422 
Q 2459 422 2753 634 
Q 3047 847 3047 1241 
Q 3047 1584 2836 1778 
Q 2625 1972 2144 2069 
L 1759 2144 
Q 1053 2284 737 2584 
Q 422 2884 422 3419 
Q 422 4038 858 4394 
Q 1294 4750 2059 4750 
Q 2388 4750 2728 4690 
Q 3069 4631 3425 4513 
z
" transform="scale(0.015625)"/>
       <path id="DejaVuSans-74" d="M 1172 4494 
L 1172 3500 
L 2356 3500 
L 2356 3053 
L 1172 3053 
L 1172 1153 
Q 1172 725 1289 603 
Q 1406 481 1766 481 
L 2356 481 
L 2356 0 
L 1766 0 
Q 1100 0 847 248 
Q 594 497 594 1153 
L 594 3053 
L 172 3053 
L 172 3500 
L 594 3500 
L 594 4494 
L 1172 4494 
z
" transform="scale(0.015625)"/>
       <path id="DejaVuSans-65" d="M 3597 1894 
L 3597 1613 
L 953 1613 
Q 991 1019 1311 708 
Q 1631 397 2203 397 
Q 2534 397 2845 478 
Q 3156 559 3463 722 
L 3463 178 
Q 3153 47 2828 -22 
Q 2503 -91 2169 -91 
Q 1331 -91 842 396 
Q 353 884 353 1716 
Q 353 2575 817 3079 
Q 1281 3584 2069 3584 
Q 2775 3584 3186 3129 
Q 3597 2675 3597 1894 
z
M 3022 2063 
Q 3016 2534 2758 2815 
Q 2500 3097 2075 3097 
Q 1594 3097 1305 2825 
Q 1016 2553 972 2059 
L 3022 2063 
z
" transform="scale(0.015625)"/>
       <path id="DejaVuSans-70" d="M 1159 525 
L 1159 -1331 
L 581 -1331 
L 581 3500 
L 1159 3500 
L 1159 2969 
Q 1341 3281 1617 3432 
Q 1894 3584 2278 3584 
Q 2916 3584 3314 3078 
Q 3713 2572 3713 1747 
Q 3713 922 3314 415 
Q 2916 -91 2278 -91 
Q 1894 -91 1617 61 
Q 1341 213 1159 525 
z
M 3116 1747 
Q 3116 2381 2855 2742 
Q 2594 3103 2138 3103 
Q 1681 3103 1420 2742 
Q 1159 2381 1159 1747 
Q 1159 1113 1420 752 
Q 1681 391 2138 391 
Q 2594 391 2855 752 
Q 3116 1113 3116 1747 
z
" transform="scale(0.015625)"/>
      </defs>
      <use xlink:href="#DejaVuSans-53"/>
      <use xlink:href="#DejaVuSans-74" transform="translate(63.476562 0)"/>
      <use xlink:href="#DejaVuSans-65" transform="translate(102.685547 0)"/>
      <use xlink:href="#DejaVuSans-70" transform="translate(164.208984 0)"/>
     </g>
    </g>
   </g>
   <g id="matplotlib.axis_2">
    <g id="ytick_1">
     <g id="line2d_7">
      <defs>
       <path id="m07430550cc" d="M 0 0 
L -3.5 0 
" style="stroke: #000000; stroke-width: 0.8"/>
      </defs>
      <g>
       <use xlink:href="#m07430550cc" x="50.87" y="371.796951" style="stroke: #000000; stroke-width: 0.8"/>
      </g>
     </g>
     <g id="text_8">
      <!-- 20 -->
      <g transform="translate(31.145 375.59617) scale(0.1 -0.1)">
       <use xlink:href="#DejaVuSans-32"/>
       <use xlink:href="#DejaVuSans-30" transform="translate(63.623047 0)"/>
      </g>
     </g>
    </g>
    <g id="ytick_2">
     <g id="line2d_8">
      <g>
       <use xlink:href="#m07430550cc" x="50.87" y="315.231046" style="stroke: #000000; stroke-width: 0.8"/>
      </g>
     </g>
     <g id="text_9">
      <!-- 40 -->
      <g transform="translate(31.145 319.030265) scale(0.1 -0.1)">
       <defs>
        <path id="DejaVuSans-34" d="M 2419 4116 
L 825 1625 
L 2419 1625 
L 2419 4116 
z
M 2253 4666 
L 3047 4666 
L 3047 1625 
L 3713 1625 
L 3713 1100 
L 3047 1100 
L 3047 0 
L 2419 0 
L 2419 1100 
L 313 1100 
L 313 1709 
L 2253 4666 
z
" transform="scale(0.015625)"/>
       </defs>
       <use xlink:href="#DejaVuSans-34"/>
       <use xlink:href="#DejaVuSans-30" transform="translate(63.623047 0)"/>
      </g>
     </g>
    </g>
    <g id="ytick_3">
     <g id="line2d_9">
      <g>
       <use xlink:href="#m07430550cc" x="50.87" y="258.665142" style="stroke: #000000; stroke-width: 0.8"/>
      </g>
     </g>
     <g id="text_10">
      <!-- 60 -->
      <g transform="translate(31.145 262.46436) scale(0.1 -0.1)">
       <defs>
        <path id="DejaVuSans-36" d="M 2113 2584 
Q 1688 2584 1439 2293 
Q 1191 2003 1191 1497 
Q 1191 994 1439 701 
Q 1688 409 2113 409 
Q 2538 409 2786 701 
Q 3034 994 3034 1497 
Q 3034 2003 2786 2293 
Q 2538 2584 2113 2584 
z
M 3366 4563 
L 3366 3988 
Q 3128 4100 2886 4159 
Q 2644 4219 2406 4219 
Q 1781 4219 1451 3797 
Q 1122 3375 1075 2522 
Q 1259 2794 1537 2939 
Q 1816 3084 2150 3084 
Q 2853 3084 3261 2657 
Q 3669 2231 3669 1497 
Q 3669 778 3244 343 
Q 2819 -91 2113 -91 
Q 1303 -91 875 529 
Q 447 1150 447 2328 
Q 447 3434 972 4092 
Q 1497 4750 2381 4750 
Q 2619 4750 2861 4703 
Q 3103 4656 3366 4563 
z
" transform="scale(0.015625)"/>
       </defs>
       <use xlink:href="#DejaVuSans-36"/>
       <use xlink:href="#DejaVuSans-30" transform="translate(63.623047 0)"/>
      </g>
     </g>
    </g>
    <g id="ytick_4">
     <g id="line2d_10">
      <g>
       <use xlink:href="#m07430550cc" x="50.87" y="202.099237" style="stroke: #000000; stroke-width: 0.8"/>
      </g>
     </g>
     <g id="text_11">
      <!-- 80 -->
      <g transform="translate(31.145 205.898456) scale(0.1 -0.1)">
       <defs>
        <path id="DejaVuSans-38" d="M 2034 2216 
Q 1584 2216 1326 1975 
Q 1069 1734 1069 1313 
Q 1069 891 1326 650 
Q 1584 409 2034 409 
Q 2484 409 2743 651 
Q 3003 894 3003 1313 
Q 3003 1734 2745 1975 
Q 2488 2216 2034 2216 
z
M 1403 2484 
Q 997 2584 770 2862 
Q 544 3141 544 3541 
Q 544 4100 942 4425 
Q 1341 4750 2034 4750 
Q 2731 4750 3128 4425 
Q 3525 4100 3525 3541 
Q 3525 3141 3298 2862 
Q 3072 2584 2669 2484 
Q 3125 2378 3379 2068 
Q 3634 1759 3634 1313 
Q 3634 634 3220 271 
Q 2806 -91 2034 -91 
Q 1263 -91 848 271 
Q 434 634 434 1313 
Q 434 1759 690 2068 
Q 947 2378 1403 2484 
z
M 1172 3481 
Q 1172 3119 1398 2916 
Q 1625 2713 2034 2713 
Q 2441 2713 2670 2916 
Q 2900 3119 2900 3481 
Q 2900 3844 2670 4047 
Q 2441 4250 2034 4250 
Q 1625 4250 1398 4047 
Q 1172 3844 1172 3481 
z
" transform="scale(0.015625)"/>
       </defs>
       <use xlink:href="#DejaVuSans-38"/>
       <use xlink:href="#DejaVuSans-30" transform="translate(63.623047 0)"/>
      </g>
     </g>
    </g>
    <g id="ytick_5">
     <g id="line2d_11">
      <g>
       <use xlink:href="#m07430550cc" x="50.87" y="145.533333" style="stroke: #000000; stroke-width: 0.8"/>
      </g>
     </g>
     <g id="text_12">
      <!-- 100 -->
      <g transform="translate(24.7825 149.332551) scale(0.1 -0.1)">
       <use xlink:href="#DejaVuSans-31"/>
       <use xlink:href="#DejaVuSans-30" transform="translate(63.623047 0)"/>
       <use xlink:href="#DejaVuSans-30" transform="translate(127.246094 0)"/>
      </g>
     </g>
    </g>
    <g id="ytick_6">
     <g id="line2d_12">
      <g>
       <use xlink:href="#m07430550cc" x="50.87" y="88.967428" style="stroke: #000000; stroke-width: 0.8"/>
      </g>
     </g>
     <g id="text_13">
      <!-- 120 -->
      <g transform="translate(24.7825 92.766647) scale(0.1 -0.1)">
       <use xlink:href="#DejaVuSans-31"/>
       <use xlink:href="#DejaVuSans-32" transform="translate(63.623047 0)"/>
       <use xlink:href="#DejaVuSans-30" transform="translate(127.246094 0)"/>
      </g>
     </g>
    </g>
    <g id="text_14">
     <!-- Profit -->
     <g transform="translate(18.702813 229.779063) rotate(-90) scale(0.1 -0.1)">
      <defs>
       <path id="DejaVuSans-50" d="M 1259 4147 
L 1259 2394 
L 2053 2394 
Q 2494 2394 2734 2622 
Q 2975 2850 2975 3272 
Q 2975 3691 2734 3919 
Q 2494 4147 2053 4147 
L 1259 4147 
z
M 628 4666 
L 2053 4666 
Q 2838 4666 3239 4311 
Q 3641 3956 3641 3272 
Q 3641 2581 3239 2228 
Q 2838 1875 2053 1875 
L 1259 1875 
L 1259 0 
L 628 0 
L 628 4666 
z
" transform="scale(0.015625)"/>
       <path id="DejaVuSans-72" d="M 2631 2963 
Q 2534 3019 2420 3045 
Q 2306 3072 2169 3072 
Q 1681 3072 1420 2755 
Q 1159 2438 1159 1844 
L 1159 0 
L 581 0 
L 581 3500 
L 1159 3500 
L 1159 2956 
Q 1341 3275 1631 3429 
Q 1922 3584 2338 3584 
Q 2397 3584 2469 3576 
Q 2541 3569 2628 3553 
L 2631 2963 
z
" transform="scale(0.015625)"/>
       <path id="DejaVuSans-6f" d="M 1959 3097 
Q 1497 3097 1228 2736 
Q 959 2375 959 1747 
Q 959 1119 1226 758 
Q 1494 397 1959 397 
Q 2419 397 2687 759 
Q 2956 1122 2956 1747 
Q 2956 2369 2687 2733 
Q 2419 3097 1959 3097 
z
M 1959 3584 
Q 2709 3584 3137 3096 
Q 3566 2609 3566 1747 
Q 3566 888 3137 398 
Q 2709 -91 1959 -91 
Q 1206 -91 779 398 
Q 353 888 353 1747 
Q 353 2609 779 3096 
Q 1206 3584 1959 3584 
z
" transform="scale(0.015625)"/>
       <path id="DejaVuSans-66" d="M 2375 4863 
L 2375 4384 
L 1825 4384 
Q 1516 4384 1395 4259 
Q 1275 4134 1275 3809 
L 1275 3500 
L 2222 3500 
L 2222 3053 
L 1275 3053 
L 1275 0 
L 697 0 
L 697 3053 
L 147 3053 
L 147 3500 
L 697 3500 
L 697 3744 
Q 697 4328 969 4595 
Q 1241 4863 1831 4863 
L 2375 4863 
z
" transform="scale(0.015625)"/>
       <path id="DejaVuSans-69" d="M 603 3500 
L 1178 3500 
L 1178 0 
L 603 0 
L 603 3500 
z
M 603 4863 
L 1178 4863 
L 1178 4134 
L 603 4134 
L 603 4863 
z
" transform="scale(0.015625)"/>
      </defs>
      <use xlink:href="#DejaVuSans-50"/>
      <use xlink:href="#DejaVuSans-72" transform="translate(58.552734 0)"/>
      <use xlink:href="#DejaVuSans-6f" transform="translate(97.416016 0)"/>
      <use xlink:href="#DejaVuSans-66" transform="translate(158.597656 0)"/>
      <use xlink:href="#DejaVuSans-69" transform="translate(193.802734 0)"/>
      <use xlink:href="#DejaVuSans-74" transform="translate(221.585938 0)"/>
     </g>
    </g>
   </g>
   <g id="line2d_13">
    <path d="M 52.193327 248.495216 
L 54.83998 248.373062 
L 57.486633 239.921212 
L 60.133287 232.168755 
L 62.77994 224.89229 
L 65.426593 218.592195 
L 68.073247 213.00418 
L 70.7199 208.028079 
L 73.366553 203.525059 
L 76.013207 199.592241 
L 78.65986 196.006034 
L 83.953167 190.063705 
L 86.59982 187.473547 
L 89.246473 185.041966 
L 94.53978 180.62187 
L 97.186433 178.71041 
L 105.126393 173.642214 
L 115.713007 168.285387 
L 121.006313 165.940076 
L 128.946273 162.756734 
L 134.23958 161.02215 
L 136.886233 159.996431 
L 142.17954 158.248491 
L 144.826193 157.311653 
L 147.472847 156.528861 
L 150.1195 155.948257 
L 158.05946 153.731487 
L 163.352767 152.450326 
L 168.646073 151.228785 
L 181.87934 148.531664 
L 189.8193 147.04305 
L 195.112607 146.139162 
L 213.63918 143.226776 
L 218.932487 142.531052 
L 221.57914 142.097417 
L 229.5191 141.154926 
L 245.39902 139.198065 
L 250.692327 138.627473 
L 258.632287 137.587297 
L 263.925593 137.034572 
L 266.572247 136.664549 
L 274.512207 135.87796 
L 282.452167 135.058076 
L 287.745473 134.691074 
L 293.03878 134.267861 
L 298.332087 133.736175 
L 314.212007 132.427868 
L 319.505313 131.977316 
L 324.79862 131.458296 
L 330.091927 131.166343 
L 340.67854 130.430052 
L 356.55846 129.331399 
L 367.145073 128.632719 
L 404.19822 126.465472 
L 433.311407 124.90347 
L 454.484633 123.972631 
L 459.77794 123.723856 
L 483.59782 122.692937 
L 523.29762 121.050125 
L 528.590927 120.82185 
L 615.930487 117.749225 
L 703.270047 115.311581 
L 750.909807 114.101174 
L 758.849767 113.905913 
L 843.542673 112.239517 
L 843.542673 112.239517 
" clip-path="url(#pb4f495bf6e)" style="fill: none; stroke: #0000ff; stroke-width: 1.5; stroke-linecap: square"/>
   </g>
   <g id="patch_3">
    <path d="M 50.87 390.04 
L 50.87 43.44 
" style="fill: none; stroke: #000000; stroke-width: 0.8; stroke-linejoin: miter; stroke-linecap: square"/>
   </g>
   <g id="patch_4">
    <path d="M 844.866 390.04 
L 844.866 43.44 
" style="fill: none; stroke: #000000; stroke-width: 0.8; stroke-linejoin: miter; stroke-linecap: square"/>
   </g>
   <g id="patch_5">
    <path d="M 50.87 390.04 
L 844.866 390.04 
" style="fill: none; stroke: #000000; stroke-width: 0.8; stroke-linejoin: miter; stroke-linecap: square"/>
   </g>
   <g id="patch_6">
    <path d="M 50.87 43.44 
L 844.866 43.44 
" style="fill: none; stroke: #000000; stroke-width: 0.8; stroke-linejoin: miter; stroke-linecap: square"/>
   </g>
   <g id="text_15">
    <!-- Mean profit per step with confidence interval per simulation step -->
    <g transform="translate(220.284875 21.763062) scale(0.14 -0.14)">
     <defs>
      <path id="DejaVuSans-4d" d="M 628 4666 
L 1569 4666 
L 2759 1491 
L 3956 4666 
L 4897 4666 
L 4897 0 
L 4281 0 
L 4281 4097 
L 3078 897 
L 2444 897 
L 1241 4097 
L 1241 0 
L 628 0 
L 628 4666 
z
" transform="scale(0.015625)"/>
      <path id="DejaVuSans-61" d="M 2194 1759 
Q 1497 1759 1228 1600 
Q 959 1441 959 1056 
Q 959 750 1161 570 
Q 1363 391 1709 391 
Q 2188 391 2477 730 
Q 2766 1069 2766 1631 
L 2766 1759 
L 2194 1759 
z
M 3341 1997 
L 3341 0 
L 2766 0 
L 2766 531 
Q 2569 213 2275 61 
Q 1981 -91 1556 -91 
Q 1019 -91 701 211 
Q 384 513 384 1019 
Q 384 1609 779 1909 
Q 1175 2209 1959 2209 
L 2766 2209 
L 2766 2266 
Q 2766 2663 2505 2880 
Q 2244 3097 1772 3097 
Q 1472 3097 1187 3025 
Q 903 2953 641 2809 
L 641 3341 
Q 956 3463 1253 3523 
Q 1550 3584 1831 3584 
Q 2591 3584 2966 3190 
Q 3341 2797 3341 1997 
z
" transform="scale(0.015625)"/>
      <path id="DejaVuSans-6e" d="M 3513 2113 
L 3513 0 
L 2938 0 
L 2938 2094 
Q 2938 2591 2744 2837 
Q 2550 3084 2163 3084 
Q 1697 3084 1428 2787 
Q 1159 2491 1159 1978 
L 1159 0 
L 581 0 
L 581 3500 
L 1159 3500 
L 1159 2956 
Q 1366 3272 1645 3428 
Q 1925 3584 2291 3584 
Q 2894 3584 3203 3211 
Q 3513 2838 3513 2113 
z
" transform="scale(0.015625)"/>
      <path id="DejaVuSans-20" transform="scale(0.015625)"/>
      <path id="DejaVuSans-73" d="M 2834 3397 
L 2834 2853 
Q 2591 2978 2328 3040 
Q 2066 3103 1784 3103 
Q 1356 3103 1142 2972 
Q 928 2841 928 2578 
Q 928 2378 1081 2264 
Q 1234 2150 1697 2047 
L 1894 2003 
Q 2506 1872 2764 1633 
Q 3022 1394 3022 966 
Q 3022 478 2636 193 
Q 2250 -91 1575 -91 
Q 1294 -91 989 -36 
Q 684 19 347 128 
L 347 722 
Q 666 556 975 473 
Q 1284 391 1588 391 
Q 1994 391 2212 530 
Q 2431 669 2431 922 
Q 2431 1156 2273 1281 
Q 2116 1406 1581 1522 
L 1381 1569 
Q 847 1681 609 1914 
Q 372 2147 372 2553 
Q 372 3047 722 3315 
Q 1072 3584 1716 3584 
Q 2034 3584 2315 3537 
Q 2597 3491 2834 3397 
z
" transform="scale(0.015625)"/>
      <path id="DejaVuSans-77" d="M 269 3500 
L 844 3500 
L 1563 769 
L 2278 3500 
L 2956 3500 
L 3675 769 
L 4391 3500 
L 4966 3500 
L 4050 0 
L 3372 0 
L 2619 2869 
L 1863 0 
L 1184 0 
L 269 3500 
z
" transform="scale(0.015625)"/>
      <path id="DejaVuSans-68" d="M 3513 2113 
L 3513 0 
L 2938 0 
L 2938 2094 
Q 2938 2591 2744 2837 
Q 2550 3084 2163 3084 
Q 1697 3084 1428 2787 
Q 1159 2491 1159 1978 
L 1159 0 
L 581 0 
L 581 4863 
L 1159 4863 
L 1159 2956 
Q 1366 3272 1645 3428 
Q 1925 3584 2291 3584 
Q 2894 3584 3203 3211 
Q 3513 2838 3513 2113 
z
" transform="scale(0.015625)"/>
      <path id="DejaVuSans-63" d="M 3122 3366 
L 3122 2828 
Q 2878 2963 2633 3030 
Q 2388 3097 2138 3097 
Q 1578 3097 1268 2742 
Q 959 2388 959 1747 
Q 959 1106 1268 751 
Q 1578 397 2138 397 
Q 2388 397 2633 464 
Q 2878 531 3122 666 
L 3122 134 
Q 2881 22 2623 -34 
Q 2366 -91 2075 -91 
Q 1284 -91 818 406 
Q 353 903 353 1747 
Q 353 2603 823 3093 
Q 1294 3584 2113 3584 
Q 2378 3584 2631 3529 
Q 2884 3475 3122 3366 
z
" transform="scale(0.015625)"/>
      <path id="DejaVuSans-64" d="M 2906 2969 
L 2906 4863 
L 3481 4863 
L 3481 0 
L 2906 0 
L 2906 525 
Q 2725 213 2448 61 
Q 2172 -91 1784 -91 
Q 1150 -91 751 415 
Q 353 922 353 1747 
Q 353 2572 751 3078 
Q 1150 3584 1784 3584 
Q 2172 3584 2448 3432 
Q 2725 3281 2906 2969 
z
M 947 1747 
Q 947 1113 1208 752 
Q 1469 391 1925 391 
Q 2381 391 2643 752 
Q 2906 1113 2906 1747 
Q 2906 2381 2643 2742 
Q 2381 3103 1925 3103 
Q 1469 3103 1208 2742 
Q 947 2381 947 1747 
z
" transform="scale(0.015625)"/>
      <path id="DejaVuSans-76" d="M 191 3500 
L 800 3500 
L 1894 563 
L 2988 3500 
L 3597 3500 
L 2284 0 
L 1503 0 
L 191 3500 
z
" transform="scale(0.015625)"/>
      <path id="DejaVuSans-6c" d="M 603 4863 
L 1178 4863 
L 1178 0 
L 603 0 
L 603 4863 
z
" transform="scale(0.015625)"/>
      <path id="DejaVuSans-6d" d="M 3328 2828 
Q 3544 3216 3844 3400 
Q 4144 3584 4550 3584 
Q 5097 3584 5394 3201 
Q 5691 2819 5691 2113 
L 5691 0 
L 5113 0 
L 5113 2094 
Q 5113 2597 4934 2840 
Q 4756 3084 4391 3084 
Q 3944 3084 3684 2787 
Q 3425 2491 3425 1978 
L 3425 0 
L 2847 0 
L 2847 2094 
Q 2847 2600 2669 2842 
Q 2491 3084 2119 3084 
Q 1678 3084 1418 2786 
Q 1159 2488 1159 1978 
L 1159 0 
L 581 0 
L 581 3500 
L 1159 3500 
L 1159 2956 
Q 1356 3278 1631 3431 
Q 1906 3584 2284 3584 
Q 2666 3584 2933 3390 
Q 3200 3197 3328 2828 
z
" transform="scale(0.015625)"/>
      <path id="DejaVuSans-75" d="M 544 1381 
L 544 3500 
L 1119 3500 
L 1119 1403 
Q 1119 906 1312 657 
Q 1506 409 1894 409 
Q 2359 409 2629 706 
Q 2900 1003 2900 1516 
L 2900 3500 
L 3475 3500 
L 3475 0 
L 2900 0 
L 2900 538 
Q 2691 219 2414 64 
Q 2138 -91 1772 -91 
Q 1169 -91 856 284 
Q 544 659 544 1381 
z
M 1991 3584 
L 1991 3584 
z
" transform="scale(0.015625)"/>
     </defs>
     <use xlink:href="#DejaVuSans-4d"/>
     <use xlink:href="#DejaVuSans-65" transform="translate(86.279297 0)"/>
     <use xlink:href="#DejaVuSans-61" transform="translate(147.802734 0)"/>
     <use xlink:href="#DejaVuSans-6e" transform="translate(209.082031 0)"/>
     <use xlink:href="#DejaVuSans-20" transform="translate(272.460938 0)"/>
     <use xlink:href="#DejaVuSans-70" transform="translate(304.248047 0)"/>
     <use xlink:href="#DejaVuSans-72" transform="translate(367.724609 0)"/>
     <use xlink:href="#DejaVuSans-6f" transform="translate(406.587891 0)"/>
     <use xlink:href="#DejaVuSans-66" transform="translate(467.769531 0)"/>
     <use xlink:href="#DejaVuSans-69" transform="translate(502.974609 0)"/>
     <use xlink:href="#DejaVuSans-74" transform="translate(530.757812 0)"/>
     <use xlink:href="#DejaVuSans-20" transform="translate(569.966797 0)"/>
     <use xlink:href="#DejaVuSans-70" transform="translate(601.753906 0)"/>
     <use xlink:href="#DejaVuSans-65" transform="translate(665.230469 0)"/>
     <use xlink:href="#DejaVuSans-72" transform="translate(726.753906 0)"/>
     <use xlink:href="#DejaVuSans-20" transform="translate(767.867188 0)"/>
     <use xlink:href="#DejaVuSans-73" transform="translate(799.654297 0)"/>
     <use xlink:href="#DejaVuSans-74" transform="translate(851.753906 0)"/>
     <use xlink:href="#DejaVuSans-65" transform="translate(890.962891 0)"/>
     <use xlink:href="#DejaVuSans-70" transform="translate(952.486328 0)"/>
     <use xlink:href="#DejaVuSans-20" transform="translate(1015.962891 0)"/>
     <use xlink:href="#DejaVuSans-77" transform="translate(1047.75 0)"/>
     <use xlink:href="#DejaVuSans-69" transform="translate(1129.537109 0)"/>
     <use xlink:href="#DejaVuSans-74" transform="translate(1157.320312 0)"/>
     <use xlink:href="#DejaVuSans-68" transform="translate(1196.529297 0)"/>
     <use xlink:href="#DejaVuSans-20" transform="translate(1259.908203 0)"/>
     <use xlink:href="#DejaVuSans-63" transform="translate(1291.695312 0)"/>
     <use xlink:href="#DejaVuSans-6f" transform="translate(1346.675781 0)"/>
     <use xlink:href="#DejaVuSans-6e" transform="translate(1407.857422 0)"/>
     <use xlink:href="#DejaVuSans-66" transform="translate(1471.236328 0)"/>
     <use xlink:href="#DejaVuSans-69" transform="translate(1506.441406 0)"/>
     <use xlink:href="#DejaVuSans-64" transform="translate(1534.224609 0)"/>
     <use xlink:href="#DejaVuSans-65" transform="translate(1597.701172 0)"/>
     <use xlink:href="#DejaVuSans-6e" transform="translate(1659.224609 0)"/>
     <use xlink:href="#DejaVuSans-63" transform="translate(1722.603516 0)"/>
     <use xlink:href="#DejaVuSans-65" transform="translate(1777.583984 0)"/>
     <use xlink:href="#DejaVuSans-20" transform="translate(1839.107422 0)"/>
     <use xlink:href="#DejaVuSans-69" transform="translate(1870.894531 0)"/>
     <use xlink:href="#DejaVuSans-6e" transform="translate(1898.677734 0)"/>
     <use xlink:href="#DejaVuSans-74" transform="translate(1962.056641 0)"/>
     <use xlink:href="#DejaVuSans-65" transform="translate(2001.265625 0)"/>
     <use xlink:href="#DejaVuSans-72" transform="translate(2062.789062 0)"/>
     <use xlink:href="#DejaVuSans-76" transform="translate(2103.902344 0)"/>
     <use xlink:href="#DejaVuSans-61" transform="translate(2163.082031 0)"/>
     <use xlink:href="#DejaVuSans-6c" transform="translate(2224.361328 0)"/>
     <use xlink:href="#DejaVuSans-20" transform="translate(2252.144531 0)"/>
     <use xlink:href="#DejaVuSans-70" transform="translate(2283.931641 0)"/>
     <use xlink:href="#DejaVuSans-65" transform="translate(2347.408203 0)"/>
     <use xlink:href="#DejaVuSans-72" transform="translate(2408.931641 0)"/>
     <use xlink:href="#DejaVuSans-20" transform="translate(2450.044922 0)"/>
     <use xlink:href="#DejaVuSans-73" transform="translate(2481.832031 0)"/>
     <use xlink:href="#DejaVuSans-69" transform="translate(2533.931641 0)"/>
     <use xlink:href="#DejaVuSans-6d" transform="translate(2561.714844 0)"/>
     <use xlink:href="#DejaVuSans-75" transform="translate(2659.126953 0)"/>
     <use xlink:href="#DejaVuSans-6c" transform="translate(2722.505859 0)"/>
     <use xlink:href="#DejaVuSans-61" transform="translate(2750.289062 0)"/>
     <use xlink:href="#DejaVuSans-74" transform="translate(2811.568359 0)"/>
     <use xlink:href="#DejaVuSans-69" transform="translate(2850.777344 0)"/>
     <use xlink:href="#DejaVuSans-6f" transform="translate(2878.560547 0)"/>
     <use xlink:href="#DejaVuSans-6e" transform="translate(2939.742188 0)"/>
     <use xlink:href="#DejaVuSans-20" transform="translate(3003.121094 0)"/>
     <use xlink:href="#DejaVuSans-73" transform="translate(3034.908203 0)"/>
     <use xlink:href="#DejaVuSans-74" transform="translate(3087.007812 0)"/>
     <use xlink:href="#DejaVuSans-65" transform="translate(3126.216797 0)"/>
     <use xlink:href="#DejaVuSans-70" transform="translate(3187.740234 0)"/>
    </g>
    <!-- Base Product: Grandaddy Purple, Recipe size: 8, T0: 10.0 -->
    <g transform="translate(248.283781 37.44) scale(0.14 -0.14)">
     <defs>
      <path id="DejaVuSans-42" d="M 1259 2228 
L 1259 519 
L 2272 519 
Q 2781 519 3026 730 
Q 3272 941 3272 1375 
Q 3272 1813 3026 2020 
Q 2781 2228 2272 2228 
L 1259 2228 
z
M 1259 4147 
L 1259 2741 
L 2194 2741 
Q 2656 2741 2882 2914 
Q 3109 3088 3109 3444 
Q 3109 3797 2882 3972 
Q 2656 4147 2194 4147 
L 1259 4147 
z
M 628 4666 
L 2241 4666 
Q 2963 4666 3353 4366 
Q 3744 4066 3744 3513 
Q 3744 3084 3544 2831 
Q 3344 2578 2956 2516 
Q 3422 2416 3680 2098 
Q 3938 1781 3938 1306 
Q 3938 681 3513 340 
Q 3088 0 2303 0 
L 628 0 
L 628 4666 
z
" transform="scale(0.015625)"/>
      <path id="DejaVuSans-3a" d="M 750 794 
L 1409 794 
L 1409 0 
L 750 0 
L 750 794 
z
M 750 3309 
L 1409 3309 
L 1409 2516 
L 750 2516 
L 750 3309 
z
" transform="scale(0.015625)"/>
      <path id="DejaVuSans-47" d="M 3809 666 
L 3809 1919 
L 2778 1919 
L 2778 2438 
L 4434 2438 
L 4434 434 
Q 4069 175 3628 42 
Q 3188 -91 2688 -91 
Q 1594 -91 976 548 
Q 359 1188 359 2328 
Q 359 3472 976 4111 
Q 1594 4750 2688 4750 
Q 3144 4750 3555 4637 
Q 3966 4525 4313 4306 
L 4313 3634 
Q 3963 3931 3569 4081 
Q 3175 4231 2741 4231 
Q 1884 4231 1454 3753 
Q 1025 3275 1025 2328 
Q 1025 1384 1454 906 
Q 1884 428 2741 428 
Q 3075 428 3337 486 
Q 3600 544 3809 666 
z
" transform="scale(0.015625)"/>
      <path id="DejaVuSans-79" d="M 2059 -325 
Q 1816 -950 1584 -1140 
Q 1353 -1331 966 -1331 
L 506 -1331 
L 506 -850 
L 844 -850 
Q 1081 -850 1212 -737 
Q 1344 -625 1503 -206 
L 1606 56 
L 191 3500 
L 800 3500 
L 1894 763 
L 2988 3500 
L 3597 3500 
L 2059 -325 
z
" transform="scale(0.015625)"/>
      <path id="DejaVuSans-2c" d="M 750 794 
L 1409 794 
L 1409 256 
L 897 -744 
L 494 -744 
L 750 256 
L 750 794 
z
" transform="scale(0.015625)"/>
      <path id="DejaVuSans-52" d="M 2841 2188 
Q 3044 2119 3236 1894 
Q 3428 1669 3622 1275 
L 4263 0 
L 3584 0 
L 2988 1197 
Q 2756 1666 2539 1819 
Q 2322 1972 1947 1972 
L 1259 1972 
L 1259 0 
L 628 0 
L 628 4666 
L 2053 4666 
Q 2853 4666 3247 4331 
Q 3641 3997 3641 3322 
Q 3641 2881 3436 2590 
Q 3231 2300 2841 2188 
z
M 1259 4147 
L 1259 2491 
L 2053 2491 
Q 2509 2491 2742 2702 
Q 2975 2913 2975 3322 
Q 2975 3731 2742 3939 
Q 2509 4147 2053 4147 
L 1259 4147 
z
" transform="scale(0.015625)"/>
      <path id="DejaVuSans-7a" d="M 353 3500 
L 3084 3500 
L 3084 2975 
L 922 459 
L 3084 459 
L 3084 0 
L 275 0 
L 275 525 
L 2438 3041 
L 353 3041 
L 353 3500 
z
" transform="scale(0.015625)"/>
      <path id="DejaVuSans-54" d="M -19 4666 
L 3928 4666 
L 3928 4134 
L 2272 4134 
L 2272 0 
L 1638 0 
L 1638 4134 
L -19 4134 
L -19 4666 
z
" transform="scale(0.015625)"/>
      <path id="DejaVuSans-2e" d="M 684 794 
L 1344 794 
L 1344 0 
L 684 0 
L 684 794 
z
" transform="scale(0.015625)"/>
     </defs>
     <use xlink:href="#DejaVuSans-42"/>
     <use xlink:href="#DejaVuSans-61" transform="translate(68.603516 0)"/>
     <use xlink:href="#DejaVuSans-73" transform="translate(129.882812 0)"/>
     <use xlink:href="#DejaVuSans-65" transform="translate(181.982422 0)"/>
     <use xlink:href="#DejaVuSans-20" transform="translate(243.505859 0)"/>
     <use xlink:href="#DejaVuSans-50" transform="translate(275.292969 0)"/>
     <use xlink:href="#DejaVuSans-72" transform="translate(333.845703 0)"/>
     <use xlink:href="#DejaVuSans-6f" transform="translate(372.708984 0)"/>
     <use xlink:href="#DejaVuSans-64" transform="translate(433.890625 0)"/>
     <use xlink:href="#DejaVuSans-75" transform="translate(497.367188 0)"/>
     <use xlink:href="#DejaVuSans-63" transform="translate(560.746094 0)"/>
     <use xlink:href="#DejaVuSans-74" transform="translate(615.726562 0)"/>
     <use xlink:href="#DejaVuSans-3a" transform="translate(654.935547 0)"/>
     <use xlink:href="#DejaVuSans-20" transform="translate(688.626953 0)"/>
     <use xlink:href="#DejaVuSans-47" transform="translate(720.414062 0)"/>
     <use xlink:href="#DejaVuSans-72" transform="translate(797.904297 0)"/>
     <use xlink:href="#DejaVuSans-61" transform="translate(839.017578 0)"/>
     <use xlink:href="#DejaVuSans-6e" transform="translate(900.296875 0)"/>
     <use xlink:href="#DejaVuSans-64" transform="translate(963.675781 0)"/>
     <use xlink:href="#DejaVuSans-61" transform="translate(1027.152344 0)"/>
     <use xlink:href="#DejaVuSans-64" transform="translate(1088.431641 0)"/>
     <use xlink:href="#DejaVuSans-64" transform="translate(1151.908203 0)"/>
     <use xlink:href="#DejaVuSans-79" transform="translate(1215.384766 0)"/>
     <use xlink:href="#DejaVuSans-20" transform="translate(1274.564453 0)"/>
     <use xlink:href="#DejaVuSans-50" transform="translate(1306.351562 0)"/>
     <use xlink:href="#DejaVuSans-75" transform="translate(1364.904297 0)"/>
     <use xlink:href="#DejaVuSans-72" transform="translate(1428.283203 0)"/>
     <use xlink:href="#DejaVuSans-70" transform="translate(1469.396484 0)"/>
     <use xlink:href="#DejaVuSans-6c" transform="translate(1532.873047 0)"/>
     <use xlink:href="#DejaVuSans-65" transform="translate(1560.65625 0)"/>
     <use xlink:href="#DejaVuSans-2c" transform="translate(1622.179688 0)"/>
     <use xlink:href="#DejaVuSans-20" transform="translate(1653.966797 0)"/>
     <use xlink:href="#DejaVuSans-52" transform="translate(1685.753906 0)"/>
     <use xlink:href="#DejaVuSans-65" transform="translate(1750.736328 0)"/>
     <use xlink:href="#DejaVuSans-63" transform="translate(1812.259766 0)"/>
     <use xlink:href="#DejaVuSans-69" transform="translate(1867.240234 0)"/>
     <use xlink:href="#DejaVuSans-70" transform="translate(1895.023438 0)"/>
     <use xlink:href="#DejaVuSans-65" transform="translate(1958.5 0)"/>
     <use xlink:href="#DejaVuSans-20" transform="translate(2020.023438 0)"/>
     <use xlink:href="#DejaVuSans-73" transform="translate(2051.810547 0)"/>
     <use xlink:href="#DejaVuSans-69" transform="translate(2103.910156 0)"/>
     <use xlink:href="#DejaVuSans-7a" transform="translate(2131.693359 0)"/>
     <use xlink:href="#DejaVuSans-65" transform="translate(2184.183594 0)"/>
     <use xlink:href="#DejaVuSans-3a" transform="translate(2245.707031 0)"/>
     <use xlink:href="#DejaVuSans-20" transform="translate(2279.398438 0)"/>
     <use xlink:href="#DejaVuSans-38" transform="translate(2311.185547 0)"/>
     <use xlink:href="#DejaVuSans-2c" transform="translate(2374.808594 0)"/>
     <use xlink:href="#DejaVuSans-20" transform="translate(2406.595703 0)"/>
     <use xlink:href="#DejaVuSans-54" transform="translate(2438.382812 0)"/>
     <use xlink:href="#DejaVuSans-30" transform="translate(2499.466797 0)"/>
     <use xlink:href="#DejaVuSans-3a" transform="translate(2563.089844 0)"/>
     <use xlink:href="#DejaVuSans-20" transform="translate(2596.78125 0)"/>
     <use xlink:href="#DejaVuSans-31" transform="translate(2628.568359 0)"/>
     <use xlink:href="#DejaVuSans-30" transform="translate(2692.191406 0)"/>
     <use xlink:href="#DejaVuSans-2e" transform="translate(2755.814453 0)"/>
     <use xlink:href="#DejaVuSans-30" transform="translate(2787.601562 0)"/>
    </g>
   </g>
  </g>
 </g>
 <defs>
  <clipPath id="pb4f495bf6e">
   <rect x="50.87" y="43.44" width="793.996" height="346.6"/>
  </clipPath>
 </defs>
</svg>
