<?xml version="1.0" encoding="utf-8" standalone="no"?>
<!DOCTYPE svg PUBLIC "-//W3C//DTD SVG 1.1//EN"
  "http://www.w3.org/Graphics/SVG/1.1/DTD/svg11.dtd">
<svg xmlns:xlink="http://www.w3.org/1999/xlink" width="864pt" height="432pt" viewBox="0 0 864 432" xmlns="http://www.w3.org/2000/svg" version="1.1">
 <metadata>
  <rdf:RDF xmlns:dc="http://purl.org/dc/elements/1.1/" xmlns:cc="http://creativecommons.org/ns#" xmlns:rdf="http://www.w3.org/1999/02/22-rdf-syntax-ns#">
   <cc:Work>
    <dc:type rdf:resource="http://purl.org/dc/dcmitype/StillImage"/>
    <dc:date>2025-05-24T02:14:49.622933</dc:date>
    <dc:format>image/svg+xml</dc:format>
    <dc:creator>
     <cc:Agent>
      <dc:title>Matplotlib v3.10.3, https://matplotlib.org/</dc:title>
     </cc:Agent>
    </dc:creator>
   </cc:Work>
  </rdf:RDF>
 </metadata>
 <defs>
  <style type="text/css">*{stroke-linejoin: round; stroke-linecap: butt}</style>
 </defs>
 <g id="figure_1">
  <g id="patch_1">
   <path d="M 0 432 
L 864 432 
L 864 0 
L 0 0 
z
" style="fill: #ffffff"/>
  </g>
  <g id="axes_1">
   <g id="patch_2">
    <path d="M 50.87 390.04 
L 844.866 390.04 
L 844.866 43.44 
L 50.87 43.44 
z
" style="fill: #ffffff"/>
   </g>
   <g id="FillBetweenPolyCollection_1">
    <defs>
     <path id="m1ab5f29cf4" d="M 52.193327 -306.091442 
L 52.193327 -57.714545 
L 54.83998 -58.023549 
L 57.486633 -69.735662 
L 60.133287 -80.080548 
L 62.77994 -90.474405 
L 65.426593 -99.990975 
L 68.073247 -107.92595 
L 70.7199 -115.508848 
L 73.366553 -122.053419 
L 76.013207 -127.783219 
L 78.65986 -132.768005 
L 81.306513 -137.568289 
L 83.953167 -141.72494 
L 86.59982 -146.472721 
L 89.246473 -150.158451 
L 91.893127 -154.148944 
L 94.53978 -157.942989 
L 97.186433 -161.263976 
L 99.833087 -163.623319 
L 102.47974 -165.700291 
L 105.126393 -168.24127 
L 107.773047 -170.299709 
L 110.4197 -172.896796 
L 113.066353 -175.001849 
L 115.713007 -177.122105 
L 118.35966 -178.96148 
L 121.006313 -180.471406 
L 123.652967 -182.156592 
L 126.29962 -183.612745 
L 128.946273 -185.330526 
L 131.592927 -186.958082 
L 134.23958 -188.770719 
L 136.886233 -189.787944 
L 139.532887 -191.012411 
L 142.17954 -192.138216 
L 144.826193 -193.144847 
L 147.472847 -194.486373 
L 150.1195 -195.540644 
L 152.766153 -196.101601 
L 155.412807 -197.285131 
L 158.05946 -198.53493 
L 160.706113 -199.61208 
L 163.352767 -200.445343 
L 165.99942 -201.137758 
L 168.646073 -201.866036 
L 171.292727 -202.890894 
L 173.93938 -204.008367 
L 176.586033 -204.971545 
L 179.232687 -206.007505 
L 181.87934 -206.862864 
L 184.525993 -207.457145 
L 187.172647 -208.487776 
L 189.8193 -209.35172 
L 192.465953 -210.014617 
L 195.112607 -210.728876 
L 197.75926 -211.456604 
L 200.405913 -212.2458 
L 203.052567 -212.793542 
L 205.69922 -213.187009 
L 208.345873 -213.93364 
L 210.992527 -214.474911 
L 213.63918 -214.668219 
L 216.285833 -215.105118 
L 218.932487 -215.749154 
L 221.57914 -216.528095 
L 224.225793 -217.084971 
L 226.872447 -217.552022 
L 229.5191 -217.997379 
L 232.165753 -218.57946 
L 234.812407 -219.234491 
L 237.45906 -219.952344 
L 240.105713 -220.534193 
L 242.752367 -221.022263 
L 245.39902 -221.368069 
L 248.045673 -222.011639 
L 250.692327 -222.169085 
L 253.33898 -222.829699 
L 255.985633 -223.230482 
L 258.632287 -223.719207 
L 261.27894 -224.050529 
L 263.925593 -224.540544 
L 266.572247 -225.201729 
L 269.2189 -225.580225 
L 271.865553 -225.920259 
L 274.512207 -226.211722 
L 277.15886 -226.602842 
L 279.805513 -227.107341 
L 282.452167 -227.32209 
L 285.09882 -227.533435 
L 287.745473 -228.141503 
L 290.392127 -228.384206 
L 293.03878 -228.544951 
L 295.685433 -228.895028 
L 298.332087 -229.034966 
L 300.97874 -229.347617 
L 303.625393 -229.770137 
L 306.272047 -230.329106 
L 308.9187 -230.875177 
L 311.565353 -231.184952 
L 314.212007 -231.393823 
L 316.85866 -231.620624 
L 319.505313 -232.12246 
L 322.151967 -232.413986 
L 324.79862 -232.841412 
L 327.445273 -233.1854 
L 330.091927 -233.439859 
L 332.73858 -233.606355 
L 335.385233 -233.852145 
L 338.031887 -234.107599 
L 340.67854 -234.390921 
L 343.325193 -234.670966 
L 345.971847 -234.932065 
L 348.6185 -235.582508 
L 351.265153 -236.065397 
L 353.911807 -236.365276 
L 356.55846 -236.419196 
L 359.205113 -236.656274 
L 361.851767 -236.967445 
L 364.49842 -237.31638 
L 367.145073 -237.69014 
L 369.791727 -237.952423 
L 372.43838 -238.007993 
L 375.085033 -238.1758 
L 377.731687 -238.457134 
L 380.37834 -238.601492 
L 383.024993 -238.802179 
L 385.671647 -238.992929 
L 388.3183 -239.147309 
L 390.964953 -239.454335 
L 393.611607 -239.422194 
L 396.25826 -239.699765 
L 398.904913 -239.84721 
L 401.551567 -240.235179 
L 404.19822 -240.251736 
L 406.844873 -240.52734 
L 409.491527 -240.699672 
L 412.13818 -240.940261 
L 414.784833 -241.037084 
L 417.431487 -241.301968 
L 420.07814 -241.513968 
L 422.724793 -241.77771 
L 425.371447 -242.041283 
L 428.0181 -242.18287 
L 430.664753 -242.474735 
L 433.311407 -242.379731 
L 435.95806 -242.552528 
L 438.604713 -242.842469 
L 441.251367 -242.905122 
L 443.89802 -243.127377 
L 446.544673 -243.397103 
L 449.191327 -243.746885 
L 451.83798 -243.653889 
L 454.484633 -243.933595 
L 457.131287 -244.379925 
L 459.77794 -244.497999 
L 462.424593 -244.769607 
L 465.071247 -245.185763 
L 467.7179 -245.257783 
L 470.364553 -245.092259 
L 473.011207 -245.114884 
L 475.65786 -245.351497 
L 478.304513 -245.55153 
L 480.951167 -245.696331 
L 483.59782 -245.857118 
L 486.244473 -246.201021 
L 488.891127 -246.36646 
L 491.53778 -246.493118 
L 494.184433 -246.787669 
L 496.831087 -247.032106 
L 499.47774 -247.317225 
L 502.124393 -247.630088 
L 504.771047 -247.796541 
L 507.4177 -248.040153 
L 510.064353 -248.34756 
L 512.711007 -248.38209 
L 515.35766 -248.400655 
L 518.004313 -248.585019 
L 520.650967 -248.842502 
L 523.29762 -248.988234 
L 525.944273 -249.162723 
L 528.590927 -249.242482 
L 531.23758 -249.524599 
L 533.884233 -249.566403 
L 536.530887 -249.727253 
L 539.17754 -250.094289 
L 541.824193 -250.165717 
L 544.470847 -250.355303 
L 547.1175 -250.393491 
L 549.764153 -250.495389 
L 552.410807 -250.789474 
L 555.05746 -250.956245 
L 557.704113 -251.066919 
L 560.350767 -251.367855 
L 562.99742 -251.421183 
L 565.644073 -251.377074 
L 568.290727 -251.502084 
L 570.93738 -251.629757 
L 573.584033 -251.843365 
L 576.230687 -251.963595 
L 578.87734 -252.051559 
L 581.523993 -252.221755 
L 584.170647 -252.633576 
L 586.8173 -252.807515 
L 589.463953 -252.919753 
L 592.110607 -252.831409 
L 594.75726 -253.076121 
L 597.403913 -253.248833 
L 600.050567 -253.201638 
L 602.69722 -253.263212 
L 605.343873 -253.254077 
L 607.990527 -253.35181 
L 610.63718 -253.557889 
L 613.283833 -253.726331 
L 615.930487 -253.691378 
L 618.57714 -253.761876 
L 621.223793 -253.851658 
L 623.870447 -254.011028 
L 626.5171 -254.293695 
L 629.163753 -254.442217 
L 631.810407 -254.56082 
L 634.45706 -254.655233 
L 637.103713 -254.559995 
L 639.750367 -254.540098 
L 642.39702 -254.583889 
L 645.043673 -254.599135 
L 647.690327 -254.770304 
L 650.33698 -255.184895 
L 652.983633 -255.402795 
L 655.630287 -255.426858 
L 658.27694 -255.453183 
L 660.923593 -255.514821 
L 663.570247 -255.738874 
L 666.2169 -255.896912 
L 668.863553 -256.078781 
L 671.510207 -255.899999 
L 674.15686 -256.048755 
L 676.803513 -256.306597 
L 679.450167 -256.388154 
L 682.09682 -256.544373 
L 684.743473 -256.573173 
L 687.390127 -256.758636 
L 690.03678 -256.842413 
L 692.683433 -256.949407 
L 695.330087 -257.11715 
L 697.97674 -257.156269 
L 700.623393 -257.193632 
L 703.270047 -257.264806 
L 705.9167 -257.542356 
L 708.563353 -257.675971 
L 711.210007 -257.765478 
L 713.85666 -257.820413 
L 716.503313 -257.960668 
L 719.149967 -258.168884 
L 721.79662 -258.403911 
L 724.443273 -258.549346 
L 727.089927 -258.593857 
L 729.73658 -258.510693 
L 732.383233 -258.482782 
L 735.029887 -258.547697 
L 737.67654 -258.576116 
L 740.323193 -258.74109 
L 742.969847 -258.796532 
L 745.6165 -258.771179 
L 748.263153 -258.938584 
L 750.909807 -259.146144 
L 753.55646 -259.104658 
L 756.203113 -259.120411 
L 758.849767 -259.10286 
L 761.49642 -259.319703 
L 764.143073 -259.31209 
L 766.789727 -259.362691 
L 769.43638 -259.628759 
L 772.083033 -259.6369 
L 774.729687 -259.766201 
L 777.37634 -259.885481 
L 780.022993 -259.944348 
L 782.669647 -260.048572 
L 785.3163 -260.09581 
L 787.962953 -260.076695 
L 790.609607 -260.265711 
L 793.25626 -260.448721 
L 795.902913 -260.582062 
L 798.549567 -260.682924 
L 801.19622 -260.896277 
L 803.842873 -260.940809 
L 806.489527 -261.017713 
L 809.13618 -261.030464 
L 811.782833 -261.076814 
L 814.429487 -261.123037 
L 817.07614 -261.181059 
L 819.722793 -261.343897 
L 822.369447 -261.431627 
L 825.0161 -261.499905 
L 827.662753 -261.803188 
L 830.309407 -261.890665 
L 832.95606 -262.106873 
L 835.602713 -262.216151 
L 838.249367 -262.327649 
L 840.89602 -262.368459 
L 843.542673 -262.571663 
L 843.542673 -372.628513 
L 843.542673 -372.628513 
L 840.89602 -372.652618 
L 838.249367 -372.610666 
L 835.602713 -372.62255 
L 832.95606 -372.668139 
L 830.309407 -372.664967 
L 827.662753 -372.652914 
L 825.0161 -372.805455 
L 822.369447 -372.72578 
L 819.722793 -372.666743 
L 817.07614 -372.744515 
L 814.429487 -372.676766 
L 811.782833 -372.59891 
L 809.13618 -372.5208 
L 806.489527 -372.462609 
L 803.842873 -372.454066 
L 801.19622 -372.369951 
L 798.549567 -372.462524 
L 795.902913 -372.459522 
L 793.25626 -372.413468 
L 790.609607 -372.418416 
L 787.962953 -372.404333 
L 785.3163 -372.322755 
L 782.669647 -372.24934 
L 780.022993 -372.230478 
L 777.37634 -372.220667 
L 774.729687 -372.2534 
L 772.083033 -372.252385 
L 769.43638 -372.126783 
L 766.789727 -372.249678 
L 764.143073 -372.209883 
L 761.49642 -372.114731 
L 758.849767 -372.138624 
L 756.203113 -372.043725 
L 753.55646 -371.979064 
L 750.909807 -371.914275 
L 748.263153 -371.968576 
L 745.6165 -372.013573 
L 742.969847 -371.820941 
L 740.323193 -371.729891 
L 737.67654 -371.758437 
L 735.029887 -371.692549 
L 732.383233 -371.666244 
L 729.73658 -371.59562 
L 727.089927 -371.425698 
L 724.443273 -371.282969 
L 721.79662 -371.252816 
L 719.149967 -371.240467 
L 716.503313 -371.262247 
L 713.85666 -371.233701 
L 711.210007 -371.181515 
L 708.563353 -371.083487 
L 705.9167 -371.083106 
L 703.270047 -371.123916 
L 700.623393 -371.039674 
L 697.97674 -370.980553 
L 695.330087 -370.891574 
L 692.683433 -370.939151 
L 690.03678 -370.880325 
L 687.390127 -370.763224 
L 684.743473 -370.718946 
L 682.09682 -370.62705 
L 679.450167 -370.69945 
L 676.803513 -370.645023 
L 674.15686 -370.684691 
L 671.510207 -370.696194 
L 668.863553 -370.510118 
L 666.2169 -370.486097 
L 663.570247 -370.52327 
L 660.923593 -370.541539 
L 658.27694 -370.329116 
L 655.630287 -370.186345 
L 652.983633 -370.070089 
L 650.33698 -370.102187 
L 647.690327 -370.224321 
L 645.043673 -370.239123 
L 642.39702 -370.174503 
L 639.750367 -370.074741 
L 637.103713 -370.001833 
L 634.45706 -369.917464 
L 631.810407 -369.860965 
L 629.163753 -369.751687 
L 626.5171 -369.687152 
L 623.870447 -369.680217 
L 621.223793 -369.630061 
L 618.57714 -369.532667 
L 615.930487 -369.489658 
L 613.283833 -369.365917 
L 610.63718 -369.249069 
L 607.990527 -369.242726 
L 605.343873 -369.181574 
L 602.69722 -369.061175 
L 600.050567 -368.966995 
L 597.403913 -368.756813 
L 594.75726 -368.759139 
L 592.110607 -368.711055 
L 589.463953 -368.502945 
L 586.8173 -368.481673 
L 584.170647 -368.405424 
L 581.523993 -368.505863 
L 578.87734 -368.517832 
L 576.230687 -368.411091 
L 573.584033 -368.34681 
L 570.93738 -368.331121 
L 568.290727 -368.35142 
L 565.644073 -368.278258 
L 562.99742 -368.079791 
L 560.350767 -367.946873 
L 557.704113 -367.895068 
L 555.05746 -367.800549 
L 552.410807 -367.724131 
L 549.764153 -367.832817 
L 547.1175 -367.692794 
L 544.470847 -367.503165 
L 541.824193 -367.433429 
L 539.17754 -367.441506 
L 536.530887 -367.512765 
L 533.884233 -367.422391 
L 531.23758 -367.230563 
L 528.590927 -367.19246 
L 525.944273 -367.167805 
L 523.29762 -367.137483 
L 520.650967 -367.089357 
L 518.004313 -367.14833 
L 515.35766 -367.051338 
L 512.711007 -366.915249 
L 510.064353 -366.872514 
L 507.4177 -366.920429 
L 504.771047 -366.797851 
L 502.124393 -366.772012 
L 499.47774 -366.794383 
L 496.831087 -366.772562 
L 494.184433 -366.819927 
L 491.53778 -366.767149 
L 488.891127 -366.552696 
L 486.244473 -366.407767 
L 483.59782 -366.440289 
L 480.951167 -366.321115 
L 478.304513 -366.156268 
L 475.65786 -366.097908 
L 473.011207 -366.007703 
L 470.364553 -365.826532 
L 467.7179 -365.496331 
L 465.071247 -365.316049 
L 462.424593 -365.450637 
L 459.77794 -365.330766 
L 457.131287 -365.161436 
L 454.484633 -365.230285 
L 451.83798 -365.203092 
L 449.191327 -364.895305 
L 446.544673 -364.947279 
L 443.89802 -365.003144 
L 441.251367 -364.969249 
L 438.604713 -364.849293 
L 435.95806 -364.783997 
L 433.311407 -364.686941 
L 430.664753 -364.479614 
L 428.0181 -364.591958 
L 425.371447 -364.449102 
L 422.724793 -364.415333 
L 420.07814 -364.307811 
L 417.431487 -364.222046 
L 414.784833 -364.194621 
L 412.13818 -363.988859 
L 409.491527 -363.885037 
L 406.844873 -363.731397 
L 404.19822 -363.698537 
L 401.551567 -363.419825 
L 398.904913 -363.432089 
L 396.25826 -363.341186 
L 393.611607 -363.329366 
L 390.964953 -363.08087 
L 388.3183 -362.972607 
L 385.671647 -362.684717 
L 383.024993 -362.545266 
L 380.37834 -362.417698 
L 377.731687 -362.274524 
L 375.085033 -362.112871 
L 372.43838 -361.984436 
L 369.791727 -361.818405 
L 367.145073 -361.644254 
L 364.49842 -361.594267 
L 361.851767 -361.548932 
L 359.205113 -361.397238 
L 356.55846 -361.327248 
L 353.911807 -361.070039 
L 351.265153 -361.029272 
L 348.6185 -361.18048 
L 345.971847 -361.335367 
L 343.325193 -361.233068 
L 340.67854 -361.074818 
L 338.031887 -360.809553 
L 335.385233 -360.558414 
L 332.73858 -360.434123 
L 330.091927 -360.109039 
L 327.445273 -359.961574 
L 324.79862 -359.911248 
L 322.151967 -359.972358 
L 319.505313 -359.847961 
L 316.85866 -359.77647 
L 314.212007 -359.647316 
L 311.565353 -359.373319 
L 308.9187 -359.172229 
L 306.272047 -359.202868 
L 303.625393 -359.181025 
L 300.97874 -359.033898 
L 298.332087 -358.792041 
L 295.685433 -358.471144 
L 293.03878 -358.404875 
L 290.392127 -358.154899 
L 287.745473 -357.909659 
L 285.09882 -357.844934 
L 282.452167 -357.756738 
L 279.805513 -357.539113 
L 277.15886 -357.480774 
L 274.512207 -357.456647 
L 271.865553 -357.23454 
L 269.2189 -357.097287 
L 266.572247 -356.864311 
L 263.925593 -356.806437 
L 261.27894 -356.63254 
L 258.632287 -356.339787 
L 255.985633 -356.150856 
L 253.33898 -355.867174 
L 250.692327 -355.892802 
L 248.045673 -355.427695 
L 245.39902 -355.328441 
L 242.752367 -355.057319 
L 240.105713 -354.860078 
L 237.45906 -354.707728 
L 234.812407 -354.636744 
L 232.165753 -354.48653 
L 229.5191 -354.222851 
L 226.872447 -353.970125 
L 224.225793 -353.740701 
L 221.57914 -353.600468 
L 218.932487 -353.494615 
L 216.285833 -353.347784 
L 213.63918 -352.76693 
L 210.992527 -352.197959 
L 208.345873 -351.920451 
L 205.69922 -351.667684 
L 203.052567 -351.235733 
L 200.405913 -350.737851 
L 197.75926 -350.547736 
L 195.112607 -350.215252 
L 192.465953 -349.833732 
L 189.8193 -349.462213 
L 187.172647 -349.196631 
L 184.525993 -349.047707 
L 181.87934 -348.629014 
L 179.232687 -348.314502 
L 176.586033 -348.069664 
L 173.93938 -347.864874 
L 171.292727 -347.799155 
L 168.646073 -347.60128 
L 165.99942 -347.16713 
L 163.352767 -346.645566 
L 160.706113 -346.185344 
L 158.05946 -345.851147 
L 155.412807 -345.694843 
L 152.766153 -345.610601 
L 150.1195 -344.944722 
L 147.472847 -344.323417 
L 144.826193 -344.035845 
L 142.17954 -343.51094 
L 139.532887 -343.05205 
L 136.886233 -342.518138 
L 134.23958 -341.96547 
L 131.592927 -341.446571 
L 128.946273 -341.310545 
L 126.29962 -341.096853 
L 123.652967 -340.38953 
L 121.006313 -339.932733 
L 118.35966 -339.232536 
L 115.713007 -338.545026 
L 113.066353 -337.992506 
L 110.4197 -337.330476 
L 107.773047 -336.994207 
L 105.126393 -336.138678 
L 102.47974 -335.442139 
L 99.833087 -334.046418 
L 97.186433 -332.591153 
L 94.53978 -332.243253 
L 91.893127 -331.880151 
L 89.246473 -331.327546 
L 86.59982 -330.358532 
L 83.953167 -329.331517 
L 81.306513 -328.158686 
L 78.65986 -326.425025 
L 76.013207 -325.028818 
L 73.366553 -323.428941 
L 70.7199 -321.946399 
L 68.073247 -321.061331 
L 65.426593 -318.999689 
L 62.77994 -316.933437 
L 60.133287 -314.170626 
L 57.486633 -309.31382 
L 54.83998 -305.730518 
L 52.193327 -306.091442 
z
" style="stroke: #0000ff; stroke-opacity: 0.2"/>
    </defs>
    <g clip-path="url(#pbaa782898c)">
     <use xlink:href="#m1ab5f29cf4" x="0" y="432" style="fill: #0000ff; fill-opacity: 0.2; stroke: #0000ff; stroke-opacity: 0.2"/>
    </g>
   </g>
   <g id="matplotlib.axis_1">
    <g id="xtick_1">
     <g id="line2d_1">
      <defs>
       <path id="m9673242fec" d="M 0 0 
L 0 3.5 
" style="stroke: #000000; stroke-width: 0.8"/>
      </defs>
      <g>
       <use xlink:href="#m9673242fec" x="181.87934" y="390.04" style="stroke: #000000; stroke-width: 0.8"/>
      </g>
     </g>
     <g id="text_1">
      <!-- 50 -->
      <g transform="translate(175.51684 404.638438) scale(0.1 -0.1)">
       <defs>
        <path id="DejaVuSans-35" d="M 691 4666 
L 3169 4666 
L 3169 4134 
L 1269 4134 
L 1269 2991 
Q 1406 3038 1543 3061 
Q 1681 3084 1819 3084 
Q 2600 3084 3056 2656 
Q 3513 2228 3513 1497 
Q 3513 744 3044 326 
Q 2575 -91 1722 -91 
Q 1428 -91 1123 -41 
Q 819 9 494 109 
L 494 744 
Q 775 591 1075 516 
Q 1375 441 1709 441 
Q 2250 441 2565 725 
Q 2881 1009 2881 1497 
Q 2881 1984 2565 2268 
Q 2250 2553 1709 2553 
Q 1456 2553 1204 2497 
Q 953 2441 691 2322 
L 691 4666 
z
" transform="scale(0.015625)"/>
        <path id="DejaVuSans-30" d="M 2034 4250 
Q 1547 4250 1301 3770 
Q 1056 3291 1056 2328 
Q 1056 1369 1301 889 
Q 1547 409 2034 409 
Q 2525 409 2770 889 
Q 3016 1369 3016 2328 
Q 3016 3291 2770 3770 
Q 2525 4250 2034 4250 
z
M 2034 4750 
Q 2819 4750 3233 4129 
Q 3647 3509 3647 2328 
Q 3647 1150 3233 529 
Q 2819 -91 2034 -91 
Q 1250 -91 836 529 
Q 422 1150 422 2328 
Q 422 3509 836 4129 
Q 1250 4750 2034 4750 
z
" transform="scale(0.015625)"/>
       </defs>
       <use xlink:href="#DejaVuSans-35"/>
       <use xlink:href="#DejaVuSans-30" transform="translate(63.623047 0)"/>
      </g>
     </g>
    </g>
    <g id="xtick_2">
     <g id="line2d_2">
      <g>
       <use xlink:href="#m9673242fec" x="314.212007" y="390.04" style="stroke: #000000; stroke-width: 0.8"/>
      </g>
     </g>
     <g id="text_2">
      <!-- 100 -->
      <g transform="translate(304.668257 404.638438) scale(0.1 -0.1)">
       <defs>
        <path id="DejaVuSans-31" d="M 794 531 
L 1825 531 
L 1825 4091 
L 703 3866 
L 703 4441 
L 1819 4666 
L 2450 4666 
L 2450 531 
L 3481 531 
L 3481 0 
L 794 0 
L 794 531 
z
" transform="scale(0.015625)"/>
       </defs>
       <use xlink:href="#DejaVuSans-31"/>
       <use xlink:href="#DejaVuSans-30" transform="translate(63.623047 0)"/>
       <use xlink:href="#DejaVuSans-30" transform="translate(127.246094 0)"/>
      </g>
     </g>
    </g>
    <g id="xtick_3">
     <g id="line2d_3">
      <g>
       <use xlink:href="#m9673242fec" x="446.544673" y="390.04" style="stroke: #000000; stroke-width: 0.8"/>
      </g>
     </g>
     <g id="text_3">
      <!-- 150 -->
      <g transform="translate(437.000923 404.638438) scale(0.1 -0.1)">
       <use xlink:href="#DejaVuSans-31"/>
       <use xlink:href="#DejaVuSans-35" transform="translate(63.623047 0)"/>
       <use xlink:href="#DejaVuSans-30" transform="translate(127.246094 0)"/>
      </g>
     </g>
    </g>
    <g id="xtick_4">
     <g id="line2d_4">
      <g>
       <use xlink:href="#m9673242fec" x="578.87734" y="390.04" style="stroke: #000000; stroke-width: 0.8"/>
      </g>
     </g>
     <g id="text_4">
      <!-- 200 -->
      <g transform="translate(569.33359 404.638438) scale(0.1 -0.1)">
       <defs>
        <path id="DejaVuSans-32" d="M 1228 531 
L 3431 531 
L 3431 0 
L 469 0 
L 469 531 
Q 828 903 1448 1529 
Q 2069 2156 2228 2338 
Q 2531 2678 2651 2914 
Q 2772 3150 2772 3378 
Q 2772 3750 2511 3984 
Q 2250 4219 1831 4219 
Q 1534 4219 1204 4116 
Q 875 4013 500 3803 
L 500 4441 
Q 881 4594 1212 4672 
Q 1544 4750 1819 4750 
Q 2544 4750 2975 4387 
Q 3406 4025 3406 3419 
Q 3406 3131 3298 2873 
Q 3191 2616 2906 2266 
Q 2828 2175 2409 1742 
Q 1991 1309 1228 531 
z
" transform="scale(0.015625)"/>
       </defs>
       <use xlink:href="#DejaVuSans-32"/>
       <use xlink:href="#DejaVuSans-30" transform="translate(63.623047 0)"/>
       <use xlink:href="#DejaVuSans-30" transform="translate(127.246094 0)"/>
      </g>
     </g>
    </g>
    <g id="xtick_5">
     <g id="line2d_5">
      <g>
       <use xlink:href="#m9673242fec" x="711.210007" y="390.04" style="stroke: #000000; stroke-width: 0.8"/>
      </g>
     </g>
     <g id="text_5">
      <!-- 250 -->
      <g transform="translate(701.666257 404.638438) scale(0.1 -0.1)">
       <use xlink:href="#DejaVuSans-32"/>
       <use xlink:href="#DejaVuSans-35" transform="translate(63.623047 0)"/>
       <use xlink:href="#DejaVuSans-30" transform="translate(127.246094 0)"/>
      </g>
     </g>
    </g>
    <g id="xtick_6">
     <g id="line2d_6">
      <g>
       <use xlink:href="#m9673242fec" x="843.542673" y="390.04" style="stroke: #000000; stroke-width: 0.8"/>
      </g>
     </g>
     <g id="text_6">
      <!-- 300 -->
      <g transform="translate(833.998923 404.638438) scale(0.1 -0.1)">
       <defs>
        <path id="DejaVuSans-33" d="M 2597 2516 
Q 3050 2419 3304 2112 
Q 3559 1806 3559 1356 
Q 3559 666 3084 287 
Q 2609 -91 1734 -91 
Q 1441 -91 1130 -33 
Q 819 25 488 141 
L 488 750 
Q 750 597 1062 519 
Q 1375 441 1716 441 
Q 2309 441 2620 675 
Q 2931 909 2931 1356 
Q 2931 1769 2642 2001 
Q 2353 2234 1838 2234 
L 1294 2234 
L 1294 2753 
L 1863 2753 
Q 2328 2753 2575 2939 
Q 2822 3125 2822 3475 
Q 2822 3834 2567 4026 
Q 2313 4219 1838 4219 
Q 1578 4219 1281 4162 
Q 984 4106 628 3988 
L 628 4550 
Q 988 4650 1302 4700 
Q 1616 4750 1894 4750 
Q 2613 4750 3031 4423 
Q 3450 4097 3450 3541 
Q 3450 3153 3228 2886 
Q 3006 2619 2597 2516 
z
" transform="scale(0.015625)"/>
       </defs>
       <use xlink:href="#DejaVuSans-33"/>
       <use xlink:href="#DejaVuSans-30" transform="translate(63.623047 0)"/>
       <use xlink:href="#DejaVuSans-30" transform="translate(127.246094 0)"/>
      </g>
     </g>
    </g>
    <g id="text_7">
     <!-- Step -->
     <g transform="translate(436.482844 418.316562) scale(0.1 -0.1)">
      <defs>
       <path id="DejaVuSans-53" d="M 3425 4513 
L 3425 3897 
Q 3066 4069 2747 4153 
Q 2428 4238 2131 4238 
Q 1616 4238 1336 4038 
Q 1056 3838 1056 3469 
Q 1056 3159 1242 3001 
Q 1428 2844 1947 2747 
L 2328 2669 
Q 3034 2534 3370 2195 
Q 3706 1856 3706 1288 
Q 3706 609 3251 259 
Q 2797 -91 1919 -91 
Q 1588 -91 1214 -16 
Q 841 59 441 206 
L 441 856 
Q 825 641 1194 531 
Q 1563 422 1919 422 
Q 2459 422 2753 634 
Q 3047 847 3047 1241 
Q 3047 1584 2836 1778 
Q 2625 1972 2144 2069 
L 1759 2144 
Q 1053 2284 737 2584 
Q 422 2884 422 3419 
Q 422 4038 858 4394 
Q 1294 4750 2059 4750 
Q 2388 4750 2728 4690 
Q 3069 4631 3425 4513 
z
" transform="scale(0.015625)"/>
       <path id="DejaVuSans-74" d="M 1172 4494 
L 1172 3500 
L 2356 3500 
L 2356 3053 
L 1172 3053 
L 1172 1153 
Q 1172 725 1289 603 
Q 1406 481 1766 481 
L 2356 481 
L 2356 0 
L 1766 0 
Q 1100 0 847 248 
Q 594 497 594 1153 
L 594 3053 
L 172 3053 
L 172 3500 
L 594 3500 
L 594 4494 
L 1172 4494 
z
" transform="scale(0.015625)"/>
       <path id="DejaVuSans-65" d="M 3597 1894 
L 3597 1613 
L 953 1613 
Q 991 1019 1311 708 
Q 1631 397 2203 397 
Q 2534 397 2845 478 
Q 3156 559 3463 722 
L 3463 178 
Q 3153 47 2828 -22 
Q 2503 -91 2169 -91 
Q 1331 -91 842 396 
Q 353 884 353 1716 
Q 353 2575 817 3079 
Q 1281 3584 2069 3584 
Q 2775 3584 3186 3129 
Q 3597 2675 3597 1894 
z
M 3022 2063 
Q 3016 2534 2758 2815 
Q 2500 3097 2075 3097 
Q 1594 3097 1305 2825 
Q 1016 2553 972 2059 
L 3022 2063 
z
" transform="scale(0.015625)"/>
       <path id="DejaVuSans-70" d="M 1159 525 
L 1159 -1331 
L 581 -1331 
L 581 3500 
L 1159 3500 
L 1159 2969 
Q 1341 3281 1617 3432 
Q 1894 3584 2278 3584 
Q 2916 3584 3314 3078 
Q 3713 2572 3713 1747 
Q 3713 922 3314 415 
Q 2916 -91 2278 -91 
Q 1894 -91 1617 61 
Q 1341 213 1159 525 
z
M 3116 1747 
Q 3116 2381 2855 2742 
Q 2594 3103 2138 3103 
Q 1681 3103 1420 2742 
Q 1159 2381 1159 1747 
Q 1159 1113 1420 752 
Q 1681 391 2138 391 
Q 2594 391 2855 752 
Q 3116 1113 3116 1747 
z
" transform="scale(0.015625)"/>
      </defs>
      <use xlink:href="#DejaVuSans-53"/>
      <use xlink:href="#DejaVuSans-74" transform="translate(63.476562 0)"/>
      <use xlink:href="#DejaVuSans-65" transform="translate(102.685547 0)"/>
      <use xlink:href="#DejaVuSans-70" transform="translate(164.208984 0)"/>
     </g>
    </g>
   </g>
   <g id="matplotlib.axis_2">
    <g id="ytick_1">
     <g id="line2d_7">
      <defs>
       <path id="mc0ea57c5f4" d="M 0 0 
L -3.5 0 
" style="stroke: #000000; stroke-width: 0.8"/>
      </defs>
      <g>
       <use xlink:href="#mc0ea57c5f4" x="50.87" y="364.067355" style="stroke: #000000; stroke-width: 0.8"/>
      </g>
     </g>
     <g id="text_8">
      <!-- 20 -->
      <g transform="translate(31.145 367.866574) scale(0.1 -0.1)">
       <use xlink:href="#DejaVuSans-32"/>
       <use xlink:href="#DejaVuSans-30" transform="translate(63.623047 0)"/>
      </g>
     </g>
    </g>
    <g id="ytick_2">
     <g id="line2d_8">
      <g>
       <use xlink:href="#mc0ea57c5f4" x="50.87" y="308.636888" style="stroke: #000000; stroke-width: 0.8"/>
      </g>
     </g>
     <g id="text_9">
      <!-- 40 -->
      <g transform="translate(31.145 312.436107) scale(0.1 -0.1)">
       <defs>
        <path id="DejaVuSans-34" d="M 2419 4116 
L 825 1625 
L 2419 1625 
L 2419 4116 
z
M 2253 4666 
L 3047 4666 
L 3047 1625 
L 3713 1625 
L 3713 1100 
L 3047 1100 
L 3047 0 
L 2419 0 
L 2419 1100 
L 313 1100 
L 313 1709 
L 2253 4666 
z
" transform="scale(0.015625)"/>
       </defs>
       <use xlink:href="#DejaVuSans-34"/>
       <use xlink:href="#DejaVuSans-30" transform="translate(63.623047 0)"/>
      </g>
     </g>
    </g>
    <g id="ytick_3">
     <g id="line2d_9">
      <g>
       <use xlink:href="#mc0ea57c5f4" x="50.87" y="253.206422" style="stroke: #000000; stroke-width: 0.8"/>
      </g>
     </g>
     <g id="text_10">
      <!-- 60 -->
      <g transform="translate(31.145 257.005641) scale(0.1 -0.1)">
       <defs>
        <path id="DejaVuSans-36" d="M 2113 2584 
Q 1688 2584 1439 2293 
Q 1191 2003 1191 1497 
Q 1191 994 1439 701 
Q 1688 409 2113 409 
Q 2538 409 2786 701 
Q 3034 994 3034 1497 
Q 3034 2003 2786 2293 
Q 2538 2584 2113 2584 
z
M 3366 4563 
L 3366 3988 
Q 3128 4100 2886 4159 
Q 2644 4219 2406 4219 
Q 1781 4219 1451 3797 
Q 1122 3375 1075 2522 
Q 1259 2794 1537 2939 
Q 1816 3084 2150 3084 
Q 2853 3084 3261 2657 
Q 3669 2231 3669 1497 
Q 3669 778 3244 343 
Q 2819 -91 2113 -91 
Q 1303 -91 875 529 
Q 447 1150 447 2328 
Q 447 3434 972 4092 
Q 1497 4750 2381 4750 
Q 2619 4750 2861 4703 
Q 3103 4656 3366 4563 
z
" transform="scale(0.015625)"/>
       </defs>
       <use xlink:href="#DejaVuSans-36"/>
       <use xlink:href="#DejaVuSans-30" transform="translate(63.623047 0)"/>
      </g>
     </g>
    </g>
    <g id="ytick_4">
     <g id="line2d_10">
      <g>
       <use xlink:href="#mc0ea57c5f4" x="50.87" y="197.775955" style="stroke: #000000; stroke-width: 0.8"/>
      </g>
     </g>
     <g id="text_11">
      <!-- 80 -->
      <g transform="translate(31.145 201.575174) scale(0.1 -0.1)">
       <defs>
        <path id="DejaVuSans-38" d="M 2034 2216 
Q 1584 2216 1326 1975 
Q 1069 1734 1069 1313 
Q 1069 891 1326 650 
Q 1584 409 2034 409 
Q 2484 409 2743 651 
Q 3003 894 3003 1313 
Q 3003 1734 2745 1975 
Q 2488 2216 2034 2216 
z
M 1403 2484 
Q 997 2584 770 2862 
Q 544 3141 544 3541 
Q 544 4100 942 4425 
Q 1341 4750 2034 4750 
Q 2731 4750 3128 4425 
Q 3525 4100 3525 3541 
Q 3525 3141 3298 2862 
Q 3072 2584 2669 2484 
Q 3125 2378 3379 2068 
Q 3634 1759 3634 1313 
Q 3634 634 3220 271 
Q 2806 -91 2034 -91 
Q 1263 -91 848 271 
Q 434 634 434 1313 
Q 434 1759 690 2068 
Q 947 2378 1403 2484 
z
M 1172 3481 
Q 1172 3119 1398 2916 
Q 1625 2713 2034 2713 
Q 2441 2713 2670 2916 
Q 2900 3119 2900 3481 
Q 2900 3844 2670 4047 
Q 2441 4250 2034 4250 
Q 1625 4250 1398 4047 
Q 1172 3844 1172 3481 
z
" transform="scale(0.015625)"/>
       </defs>
       <use xlink:href="#DejaVuSans-38"/>
       <use xlink:href="#DejaVuSans-30" transform="translate(63.623047 0)"/>
      </g>
     </g>
    </g>
    <g id="ytick_5">
     <g id="line2d_11">
      <g>
       <use xlink:href="#mc0ea57c5f4" x="50.87" y="142.345489" style="stroke: #000000; stroke-width: 0.8"/>
      </g>
     </g>
     <g id="text_12">
      <!-- 100 -->
      <g transform="translate(24.7825 146.144708) scale(0.1 -0.1)">
       <use xlink:href="#DejaVuSans-31"/>
       <use xlink:href="#DejaVuSans-30" transform="translate(63.623047 0)"/>
       <use xlink:href="#DejaVuSans-30" transform="translate(127.246094 0)"/>
      </g>
     </g>
    </g>
    <g id="ytick_6">
     <g id="line2d_12">
      <g>
       <use xlink:href="#mc0ea57c5f4" x="50.87" y="86.915023" style="stroke: #000000; stroke-width: 0.8"/>
      </g>
     </g>
     <g id="text_13">
      <!-- 120 -->
      <g transform="translate(24.7825 90.714241) scale(0.1 -0.1)">
       <use xlink:href="#DejaVuSans-31"/>
       <use xlink:href="#DejaVuSans-32" transform="translate(63.623047 0)"/>
       <use xlink:href="#DejaVuSans-30" transform="translate(127.246094 0)"/>
      </g>
     </g>
    </g>
    <g id="text_14">
     <!-- Profit -->
     <g transform="translate(18.702813 229.779063) rotate(-90) scale(0.1 -0.1)">
      <defs>
       <path id="DejaVuSans-50" d="M 1259 4147 
L 1259 2394 
L 2053 2394 
Q 2494 2394 2734 2622 
Q 2975 2850 2975 3272 
Q 2975 3691 2734 3919 
Q 2494 4147 2053 4147 
L 1259 4147 
z
M 628 4666 
L 2053 4666 
Q 2838 4666 3239 4311 
Q 3641 3956 3641 3272 
Q 3641 2581 3239 2228 
Q 2838 1875 2053 1875 
L 1259 1875 
L 1259 0 
L 628 0 
L 628 4666 
z
" transform="scale(0.015625)"/>
       <path id="DejaVuSans-72" d="M 2631 2963 
Q 2534 3019 2420 3045 
Q 2306 3072 2169 3072 
Q 1681 3072 1420 2755 
Q 1159 2438 1159 1844 
L 1159 0 
L 581 0 
L 581 3500 
L 1159 3500 
L 1159 2956 
Q 1341 3275 1631 3429 
Q 1922 3584 2338 3584 
Q 2397 3584 2469 3576 
Q 2541 3569 2628 3553 
L 2631 2963 
z
" transform="scale(0.015625)"/>
       <path id="DejaVuSans-6f" d="M 1959 3097 
Q 1497 3097 1228 2736 
Q 959 2375 959 1747 
Q 959 1119 1226 758 
Q 1494 397 1959 397 
Q 2419 397 2687 759 
Q 2956 1122 2956 1747 
Q 2956 2369 2687 2733 
Q 2419 3097 1959 3097 
z
M 1959 3584 
Q 2709 3584 3137 3096 
Q 3566 2609 3566 1747 
Q 3566 888 3137 398 
Q 2709 -91 1959 -91 
Q 1206 -91 779 398 
Q 353 888 353 1747 
Q 353 2609 779 3096 
Q 1206 3584 1959 3584 
z
" transform="scale(0.015625)"/>
       <path id="DejaVuSans-66" d="M 2375 4863 
L 2375 4384 
L 1825 4384 
Q 1516 4384 1395 4259 
Q 1275 4134 1275 3809 
L 1275 3500 
L 2222 3500 
L 2222 3053 
L 1275 3053 
L 1275 0 
L 697 0 
L 697 3053 
L 147 3053 
L 147 3500 
L 697 3500 
L 697 3744 
Q 697 4328 969 4595 
Q 1241 4863 1831 4863 
L 2375 4863 
z
" transform="scale(0.015625)"/>
       <path id="DejaVuSans-69" d="M 603 3500 
L 1178 3500 
L 1178 0 
L 603 0 
L 603 3500 
z
M 603 4863 
L 1178 4863 
L 1178 4134 
L 603 4134 
L 603 4863 
z
" transform="scale(0.015625)"/>
      </defs>
      <use xlink:href="#DejaVuSans-50"/>
      <use xlink:href="#DejaVuSans-72" transform="translate(58.552734 0)"/>
      <use xlink:href="#DejaVuSans-6f" transform="translate(97.416016 0)"/>
      <use xlink:href="#DejaVuSans-66" transform="translate(158.597656 0)"/>
      <use xlink:href="#DejaVuSans-69" transform="translate(193.802734 0)"/>
      <use xlink:href="#DejaVuSans-74" transform="translate(221.585938 0)"/>
     </g>
    </g>
   </g>
   <g id="line2d_13">
    <path d="M 52.193327 250.097011 
L 54.83998 250.122967 
L 60.133287 234.874408 
L 62.77994 228.296079 
L 65.426593 222.504663 
L 68.073247 217.506355 
L 70.7199 213.272377 
L 73.366553 209.258814 
L 76.013207 205.593976 
L 81.306513 199.136512 
L 83.953167 196.471771 
L 86.59982 193.584373 
L 91.893127 188.985453 
L 94.53978 186.906874 
L 102.47974 181.428785 
L 105.126393 179.810026 
L 113.066353 175.502822 
L 118.35966 172.902997 
L 126.29962 169.645201 
L 136.886233 165.846959 
L 142.17954 164.175422 
L 147.472847 162.595105 
L 150.1195 161.757317 
L 158.05946 159.806961 
L 163.352767 158.454545 
L 181.87934 154.254061 
L 187.172647 153.157796 
L 197.75926 150.99783 
L 208.345873 149.072954 
L 237.45906 144.669964 
L 248.045673 143.280333 
L 263.925593 141.326509 
L 269.2189 140.661244 
L 308.9187 136.976297 
L 322.151967 135.806828 
L 335.385233 134.79472 
L 348.6185 133.618506 
L 364.49842 132.544676 
L 372.43838 132.003786 
L 385.671647 131.161177 
L 390.964953 130.732398 
L 398.904913 130.360351 
L 409.491527 129.707646 
L 428.0181 128.612586 
L 441.251367 128.062815 
L 459.77794 127.085618 
L 465.071247 126.749094 
L 488.891127 125.540422 
L 502.124393 124.79895 
L 507.4177 124.519709 
L 512.711007 124.351331 
L 523.29762 123.937142 
L 557.704113 122.519007 
L 562.99742 122.249513 
L 581.523993 121.63618 
L 586.8173 121.355416 
L 600.050567 120.915684 
L 623.870447 120.154378 
L 631.810407 119.789097 
L 637.103713 119.719086 
L 647.690327 119.502687 
L 652.983633 119.263558 
L 660.923593 118.97182 
L 668.863553 118.70554 
L 674.15686 118.633267 
L 682.09682 118.414289 
L 690.03678 118.138621 
L 729.73658 116.946844 
L 740.323193 116.76451 
L 756.203113 116.417921 
L 769.43638 116.122229 
L 811.782833 115.162138 
L 843.542673 114.399902 
L 843.542673 114.399902 
" clip-path="url(#pbaa782898c)" style="fill: none; stroke: #0000ff; stroke-width: 1.5; stroke-linecap: square"/>
   </g>
   <g id="patch_3">
    <path d="M 50.87 390.04 
L 50.87 43.44 
" style="fill: none; stroke: #000000; stroke-width: 0.8; stroke-linejoin: miter; stroke-linecap: square"/>
   </g>
   <g id="patch_4">
    <path d="M 844.866 390.04 
L 844.866 43.44 
" style="fill: none; stroke: #000000; stroke-width: 0.8; stroke-linejoin: miter; stroke-linecap: square"/>
   </g>
   <g id="patch_5">
    <path d="M 50.87 390.04 
L 844.866 390.04 
" style="fill: none; stroke: #000000; stroke-width: 0.8; stroke-linejoin: miter; stroke-linecap: square"/>
   </g>
   <g id="patch_6">
    <path d="M 50.87 43.44 
L 844.866 43.44 
" style="fill: none; stroke: #000000; stroke-width: 0.8; stroke-linejoin: miter; stroke-linecap: square"/>
   </g>
   <g id="text_15">
    <!-- Mean profit per step with confidence interval per simulation step -->
    <g transform="translate(220.284875 21.763062) scale(0.14 -0.14)">
     <defs>
      <path id="DejaVuSans-4d" d="M 628 4666 
L 1569 4666 
L 2759 1491 
L 3956 4666 
L 4897 4666 
L 4897 0 
L 4281 0 
L 4281 4097 
L 3078 897 
L 2444 897 
L 1241 4097 
L 1241 0 
L 628 0 
L 628 4666 
z
" transform="scale(0.015625)"/>
      <path id="DejaVuSans-61" d="M 2194 1759 
Q 1497 1759 1228 1600 
Q 959 1441 959 1056 
Q 959 750 1161 570 
Q 1363 391 1709 391 
Q 2188 391 2477 730 
Q 2766 1069 2766 1631 
L 2766 1759 
L 2194 1759 
z
M 3341 1997 
L 3341 0 
L 2766 0 
L 2766 531 
Q 2569 213 2275 61 
Q 1981 -91 1556 -91 
Q 1019 -91 701 211 
Q 384 513 384 1019 
Q 384 1609 779 1909 
Q 1175 2209 1959 2209 
L 2766 2209 
L 2766 2266 
Q 2766 2663 2505 2880 
Q 2244 3097 1772 3097 
Q 1472 3097 1187 3025 
Q 903 2953 641 2809 
L 641 3341 
Q 956 3463 1253 3523 
Q 1550 3584 1831 3584 
Q 2591 3584 2966 3190 
Q 3341 2797 3341 1997 
z
" transform="scale(0.015625)"/>
      <path id="DejaVuSans-6e" d="M 3513 2113 
L 3513 0 
L 2938 0 
L 2938 2094 
Q 2938 2591 2744 2837 
Q 2550 3084 2163 3084 
Q 1697 3084 1428 2787 
Q 1159 2491 1159 1978 
L 1159 0 
L 581 0 
L 581 3500 
L 1159 3500 
L 1159 2956 
Q 1366 3272 1645 3428 
Q 1925 3584 2291 3584 
Q 2894 3584 3203 3211 
Q 3513 2838 3513 2113 
z
" transform="scale(0.015625)"/>
      <path id="DejaVuSans-20" transform="scale(0.015625)"/>
      <path id="DejaVuSans-73" d="M 2834 3397 
L 2834 2853 
Q 2591 2978 2328 3040 
Q 2066 3103 1784 3103 
Q 1356 3103 1142 2972 
Q 928 2841 928 2578 
Q 928 2378 1081 2264 
Q 1234 2150 1697 2047 
L 1894 2003 
Q 2506 1872 2764 1633 
Q 3022 1394 3022 966 
Q 3022 478 2636 193 
Q 2250 -91 1575 -91 
Q 1294 -91 989 -36 
Q 684 19 347 128 
L 347 722 
Q 666 556 975 473 
Q 1284 391 1588 391 
Q 1994 391 2212 530 
Q 2431 669 2431 922 
Q 2431 1156 2273 1281 
Q 2116 1406 1581 1522 
L 1381 1569 
Q 847 1681 609 1914 
Q 372 2147 372 2553 
Q 372 3047 722 3315 
Q 1072 3584 1716 3584 
Q 2034 3584 2315 3537 
Q 2597 3491 2834 3397 
z
" transform="scale(0.015625)"/>
      <path id="DejaVuSans-77" d="M 269 3500 
L 844 3500 
L 1563 769 
L 2278 3500 
L 2956 3500 
L 3675 769 
L 4391 3500 
L 4966 3500 
L 4050 0 
L 3372 0 
L 2619 2869 
L 1863 0 
L 1184 0 
L 269 3500 
z
" transform="scale(0.015625)"/>
      <path id="DejaVuSans-68" d="M 3513 2113 
L 3513 0 
L 2938 0 
L 2938 2094 
Q 2938 2591 2744 2837 
Q 2550 3084 2163 3084 
Q 1697 3084 1428 2787 
Q 1159 2491 1159 1978 
L 1159 0 
L 581 0 
L 581 4863 
L 1159 4863 
L 1159 2956 
Q 1366 3272 1645 3428 
Q 1925 3584 2291 3584 
Q 2894 3584 3203 3211 
Q 3513 2838 3513 2113 
z
" transform="scale(0.015625)"/>
      <path id="DejaVuSans-63" d="M 3122 3366 
L 3122 2828 
Q 2878 2963 2633 3030 
Q 2388 3097 2138 3097 
Q 1578 3097 1268 2742 
Q 959 2388 959 1747 
Q 959 1106 1268 751 
Q 1578 397 2138 397 
Q 2388 397 2633 464 
Q 2878 531 3122 666 
L 3122 134 
Q 2881 22 2623 -34 
Q 2366 -91 2075 -91 
Q 1284 -91 818 406 
Q 353 903 353 1747 
Q 353 2603 823 3093 
Q 1294 3584 2113 3584 
Q 2378 3584 2631 3529 
Q 2884 3475 3122 3366 
z
" transform="scale(0.015625)"/>
      <path id="DejaVuSans-64" d="M 2906 2969 
L 2906 4863 
L 3481 4863 
L 3481 0 
L 2906 0 
L 2906 525 
Q 2725 213 2448 61 
Q 2172 -91 1784 -91 
Q 1150 -91 751 415 
Q 353 922 353 1747 
Q 353 2572 751 3078 
Q 1150 3584 1784 3584 
Q 2172 3584 2448 3432 
Q 2725 3281 2906 2969 
z
M 947 1747 
Q 947 1113 1208 752 
Q 1469 391 1925 391 
Q 2381 391 2643 752 
Q 2906 1113 2906 1747 
Q 2906 2381 2643 2742 
Q 2381 3103 1925 3103 
Q 1469 3103 1208 2742 
Q 947 2381 947 1747 
z
" transform="scale(0.015625)"/>
      <path id="DejaVuSans-76" d="M 191 3500 
L 800 3500 
L 1894 563 
L 2988 3500 
L 3597 3500 
L 2284 0 
L 1503 0 
L 191 3500 
z
" transform="scale(0.015625)"/>
      <path id="DejaVuSans-6c" d="M 603 4863 
L 1178 4863 
L 1178 0 
L 603 0 
L 603 4863 
z
" transform="scale(0.015625)"/>
      <path id="DejaVuSans-6d" d="M 3328 2828 
Q 3544 3216 3844 3400 
Q 4144 3584 4550 3584 
Q 5097 3584 5394 3201 
Q 5691 2819 5691 2113 
L 5691 0 
L 5113 0 
L 5113 2094 
Q 5113 2597 4934 2840 
Q 4756 3084 4391 3084 
Q 3944 3084 3684 2787 
Q 3425 2491 3425 1978 
L 3425 0 
L 2847 0 
L 2847 2094 
Q 2847 2600 2669 2842 
Q 2491 3084 2119 3084 
Q 1678 3084 1418 2786 
Q 1159 2488 1159 1978 
L 1159 0 
L 581 0 
L 581 3500 
L 1159 3500 
L 1159 2956 
Q 1356 3278 1631 3431 
Q 1906 3584 2284 3584 
Q 2666 3584 2933 3390 
Q 3200 3197 3328 2828 
z
" transform="scale(0.015625)"/>
      <path id="DejaVuSans-75" d="M 544 1381 
L 544 3500 
L 1119 3500 
L 1119 1403 
Q 1119 906 1312 657 
Q 1506 409 1894 409 
Q 2359 409 2629 706 
Q 2900 1003 2900 1516 
L 2900 3500 
L 3475 3500 
L 3475 0 
L 2900 0 
L 2900 538 
Q 2691 219 2414 64 
Q 2138 -91 1772 -91 
Q 1169 -91 856 284 
Q 544 659 544 1381 
z
M 1991 3584 
L 1991 3584 
z
" transform="scale(0.015625)"/>
     </defs>
     <use xlink:href="#DejaVuSans-4d"/>
     <use xlink:href="#DejaVuSans-65" transform="translate(86.279297 0)"/>
     <use xlink:href="#DejaVuSans-61" transform="translate(147.802734 0)"/>
     <use xlink:href="#DejaVuSans-6e" transform="translate(209.082031 0)"/>
     <use xlink:href="#DejaVuSans-20" transform="translate(272.460938 0)"/>
     <use xlink:href="#DejaVuSans-70" transform="translate(304.248047 0)"/>
     <use xlink:href="#DejaVuSans-72" transform="translate(367.724609 0)"/>
     <use xlink:href="#DejaVuSans-6f" transform="translate(406.587891 0)"/>
     <use xlink:href="#DejaVuSans-66" transform="translate(467.769531 0)"/>
     <use xlink:href="#DejaVuSans-69" transform="translate(502.974609 0)"/>
     <use xlink:href="#DejaVuSans-74" transform="translate(530.757812 0)"/>
     <use xlink:href="#DejaVuSans-20" transform="translate(569.966797 0)"/>
     <use xlink:href="#DejaVuSans-70" transform="translate(601.753906 0)"/>
     <use xlink:href="#DejaVuSans-65" transform="translate(665.230469 0)"/>
     <use xlink:href="#DejaVuSans-72" transform="translate(726.753906 0)"/>
     <use xlink:href="#DejaVuSans-20" transform="translate(767.867188 0)"/>
     <use xlink:href="#DejaVuSans-73" transform="translate(799.654297 0)"/>
     <use xlink:href="#DejaVuSans-74" transform="translate(851.753906 0)"/>
     <use xlink:href="#DejaVuSans-65" transform="translate(890.962891 0)"/>
     <use xlink:href="#DejaVuSans-70" transform="translate(952.486328 0)"/>
     <use xlink:href="#DejaVuSans-20" transform="translate(1015.962891 0)"/>
     <use xlink:href="#DejaVuSans-77" transform="translate(1047.75 0)"/>
     <use xlink:href="#DejaVuSans-69" transform="translate(1129.537109 0)"/>
     <use xlink:href="#DejaVuSans-74" transform="translate(1157.320312 0)"/>
     <use xlink:href="#DejaVuSans-68" transform="translate(1196.529297 0)"/>
     <use xlink:href="#DejaVuSans-20" transform="translate(1259.908203 0)"/>
     <use xlink:href="#DejaVuSans-63" transform="translate(1291.695312 0)"/>
     <use xlink:href="#DejaVuSans-6f" transform="translate(1346.675781 0)"/>
     <use xlink:href="#DejaVuSans-6e" transform="translate(1407.857422 0)"/>
     <use xlink:href="#DejaVuSans-66" transform="translate(1471.236328 0)"/>
     <use xlink:href="#DejaVuSans-69" transform="translate(1506.441406 0)"/>
     <use xlink:href="#DejaVuSans-64" transform="translate(1534.224609 0)"/>
     <use xlink:href="#DejaVuSans-65" transform="translate(1597.701172 0)"/>
     <use xlink:href="#DejaVuSans-6e" transform="translate(1659.224609 0)"/>
     <use xlink:href="#DejaVuSans-63" transform="translate(1722.603516 0)"/>
     <use xlink:href="#DejaVuSans-65" transform="translate(1777.583984 0)"/>
     <use xlink:href="#DejaVuSans-20" transform="translate(1839.107422 0)"/>
     <use xlink:href="#DejaVuSans-69" transform="translate(1870.894531 0)"/>
     <use xlink:href="#DejaVuSans-6e" transform="translate(1898.677734 0)"/>
     <use xlink:href="#DejaVuSans-74" transform="translate(1962.056641 0)"/>
     <use xlink:href="#DejaVuSans-65" transform="translate(2001.265625 0)"/>
     <use xlink:href="#DejaVuSans-72" transform="translate(2062.789062 0)"/>
     <use xlink:href="#DejaVuSans-76" transform="translate(2103.902344 0)"/>
     <use xlink:href="#DejaVuSans-61" transform="translate(2163.082031 0)"/>
     <use xlink:href="#DejaVuSans-6c" transform="translate(2224.361328 0)"/>
     <use xlink:href="#DejaVuSans-20" transform="translate(2252.144531 0)"/>
     <use xlink:href="#DejaVuSans-70" transform="translate(2283.931641 0)"/>
     <use xlink:href="#DejaVuSans-65" transform="translate(2347.408203 0)"/>
     <use xlink:href="#DejaVuSans-72" transform="translate(2408.931641 0)"/>
     <use xlink:href="#DejaVuSans-20" transform="translate(2450.044922 0)"/>
     <use xlink:href="#DejaVuSans-73" transform="translate(2481.832031 0)"/>
     <use xlink:href="#DejaVuSans-69" transform="translate(2533.931641 0)"/>
     <use xlink:href="#DejaVuSans-6d" transform="translate(2561.714844 0)"/>
     <use xlink:href="#DejaVuSans-75" transform="translate(2659.126953 0)"/>
     <use xlink:href="#DejaVuSans-6c" transform="translate(2722.505859 0)"/>
     <use xlink:href="#DejaVuSans-61" transform="translate(2750.289062 0)"/>
     <use xlink:href="#DejaVuSans-74" transform="translate(2811.568359 0)"/>
     <use xlink:href="#DejaVuSans-69" transform="translate(2850.777344 0)"/>
     <use xlink:href="#DejaVuSans-6f" transform="translate(2878.560547 0)"/>
     <use xlink:href="#DejaVuSans-6e" transform="translate(2939.742188 0)"/>
     <use xlink:href="#DejaVuSans-20" transform="translate(3003.121094 0)"/>
     <use xlink:href="#DejaVuSans-73" transform="translate(3034.908203 0)"/>
     <use xlink:href="#DejaVuSans-74" transform="translate(3087.007812 0)"/>
     <use xlink:href="#DejaVuSans-65" transform="translate(3126.216797 0)"/>
     <use xlink:href="#DejaVuSans-70" transform="translate(3187.740234 0)"/>
    </g>
    <!-- Base Product: Grandaddy Purple, Recipe size: 9, T0: 10.0 -->
    <g transform="translate(248.283781 37.44) scale(0.14 -0.14)">
     <defs>
      <path id="DejaVuSans-42" d="M 1259 2228 
L 1259 519 
L 2272 519 
Q 2781 519 3026 730 
Q 3272 941 3272 1375 
Q 3272 1813 3026 2020 
Q 2781 2228 2272 2228 
L 1259 2228 
z
M 1259 4147 
L 1259 2741 
L 2194 2741 
Q 2656 2741 2882 2914 
Q 3109 3088 3109 3444 
Q 3109 3797 2882 3972 
Q 2656 4147 2194 4147 
L 1259 4147 
z
M 628 4666 
L 2241 4666 
Q 2963 4666 3353 4366 
Q 3744 4066 3744 3513 
Q 3744 3084 3544 2831 
Q 3344 2578 2956 2516 
Q 3422 2416 3680 2098 
Q 3938 1781 3938 1306 
Q 3938 681 3513 340 
Q 3088 0 2303 0 
L 628 0 
L 628 4666 
z
" transform="scale(0.015625)"/>
      <path id="DejaVuSans-3a" d="M 750 794 
L 1409 794 
L 1409 0 
L 750 0 
L 750 794 
z
M 750 3309 
L 1409 3309 
L 1409 2516 
L 750 2516 
L 750 3309 
z
" transform="scale(0.015625)"/>
      <path id="DejaVuSans-47" d="M 3809 666 
L 3809 1919 
L 2778 1919 
L 2778 2438 
L 4434 2438 
L 4434 434 
Q 4069 175 3628 42 
Q 3188 -91 2688 -91 
Q 1594 -91 976 548 
Q 359 1188 359 2328 
Q 359 3472 976 4111 
Q 1594 4750 2688 4750 
Q 3144 4750 3555 4637 
Q 3966 4525 4313 4306 
L 4313 3634 
Q 3963 3931 3569 4081 
Q 3175 4231 2741 4231 
Q 1884 4231 1454 3753 
Q 1025 3275 1025 2328 
Q 1025 1384 1454 906 
Q 1884 428 2741 428 
Q 3075 428 3337 486 
Q 3600 544 3809 666 
z
" transform="scale(0.015625)"/>
      <path id="DejaVuSans-79" d="M 2059 -325 
Q 1816 -950 1584 -1140 
Q 1353 -1331 966 -1331 
L 506 -1331 
L 506 -850 
L 844 -850 
Q 1081 -850 1212 -737 
Q 1344 -625 1503 -206 
L 1606 56 
L 191 3500 
L 800 3500 
L 1894 763 
L 2988 3500 
L 3597 3500 
L 2059 -325 
z
" transform="scale(0.015625)"/>
      <path id="DejaVuSans-2c" d="M 750 794 
L 1409 794 
L 1409 256 
L 897 -744 
L 494 -744 
L 750 256 
L 750 794 
z
" transform="scale(0.015625)"/>
      <path id="DejaVuSans-52" d="M 2841 2188 
Q 3044 2119 3236 1894 
Q 3428 1669 3622 1275 
L 4263 0 
L 3584 0 
L 2988 1197 
Q 2756 1666 2539 1819 
Q 2322 1972 1947 1972 
L 1259 1972 
L 1259 0 
L 628 0 
L 628 4666 
L 2053 4666 
Q 2853 4666 3247 4331 
Q 3641 3997 3641 3322 
Q 3641 2881 3436 2590 
Q 3231 2300 2841 2188 
z
M 1259 4147 
L 1259 2491 
L 2053 2491 
Q 2509 2491 2742 2702 
Q 2975 2913 2975 3322 
Q 2975 3731 2742 3939 
Q 2509 4147 2053 4147 
L 1259 4147 
z
" transform="scale(0.015625)"/>
      <path id="DejaVuSans-7a" d="M 353 3500 
L 3084 3500 
L 3084 2975 
L 922 459 
L 3084 459 
L 3084 0 
L 275 0 
L 275 525 
L 2438 3041 
L 353 3041 
L 353 3500 
z
" transform="scale(0.015625)"/>
      <path id="DejaVuSans-39" d="M 703 97 
L 703 672 
Q 941 559 1184 500 
Q 1428 441 1663 441 
Q 2288 441 2617 861 
Q 2947 1281 2994 2138 
Q 2813 1869 2534 1725 
Q 2256 1581 1919 1581 
Q 1219 1581 811 2004 
Q 403 2428 403 3163 
Q 403 3881 828 4315 
Q 1253 4750 1959 4750 
Q 2769 4750 3195 4129 
Q 3622 3509 3622 2328 
Q 3622 1225 3098 567 
Q 2575 -91 1691 -91 
Q 1453 -91 1209 -44 
Q 966 3 703 97 
z
M 1959 2075 
Q 2384 2075 2632 2365 
Q 2881 2656 2881 3163 
Q 2881 3666 2632 3958 
Q 2384 4250 1959 4250 
Q 1534 4250 1286 3958 
Q 1038 3666 1038 3163 
Q 1038 2656 1286 2365 
Q 1534 2075 1959 2075 
z
" transform="scale(0.015625)"/>
      <path id="DejaVuSans-54" d="M -19 4666 
L 3928 4666 
L 3928 4134 
L 2272 4134 
L 2272 0 
L 1638 0 
L 1638 4134 
L -19 4134 
L -19 4666 
z
" transform="scale(0.015625)"/>
      <path id="DejaVuSans-2e" d="M 684 794 
L 1344 794 
L 1344 0 
L 684 0 
L 684 794 
z
" transform="scale(0.015625)"/>
     </defs>
     <use xlink:href="#DejaVuSans-42"/>
     <use xlink:href="#DejaVuSans-61" transform="translate(68.603516 0)"/>
     <use xlink:href="#DejaVuSans-73" transform="translate(129.882812 0)"/>
     <use xlink:href="#DejaVuSans-65" transform="translate(181.982422 0)"/>
     <use xlink:href="#DejaVuSans-20" transform="translate(243.505859 0)"/>
     <use xlink:href="#DejaVuSans-50" transform="translate(275.292969 0)"/>
     <use xlink:href="#DejaVuSans-72" transform="translate(333.845703 0)"/>
     <use xlink:href="#DejaVuSans-6f" transform="translate(372.708984 0)"/>
     <use xlink:href="#DejaVuSans-64" transform="translate(433.890625 0)"/>
     <use xlink:href="#DejaVuSans-75" transform="translate(497.367188 0)"/>
     <use xlink:href="#DejaVuSans-63" transform="translate(560.746094 0)"/>
     <use xlink:href="#DejaVuSans-74" transform="translate(615.726562 0)"/>
     <use xlink:href="#DejaVuSans-3a" transform="translate(654.935547 0)"/>
     <use xlink:href="#DejaVuSans-20" transform="translate(688.626953 0)"/>
     <use xlink:href="#DejaVuSans-47" transform="translate(720.414062 0)"/>
     <use xlink:href="#DejaVuSans-72" transform="translate(797.904297 0)"/>
     <use xlink:href="#DejaVuSans-61" transform="translate(839.017578 0)"/>
     <use xlink:href="#DejaVuSans-6e" transform="translate(900.296875 0)"/>
     <use xlink:href="#DejaVuSans-64" transform="translate(963.675781 0)"/>
     <use xlink:href="#DejaVuSans-61" transform="translate(1027.152344 0)"/>
     <use xlink:href="#DejaVuSans-64" transform="translate(1088.431641 0)"/>
     <use xlink:href="#DejaVuSans-64" transform="translate(1151.908203 0)"/>
     <use xlink:href="#DejaVuSans-79" transform="translate(1215.384766 0)"/>
     <use xlink:href="#DejaVuSans-20" transform="translate(1274.564453 0)"/>
     <use xlink:href="#DejaVuSans-50" transform="translate(1306.351562 0)"/>
     <use xlink:href="#DejaVuSans-75" transform="translate(1364.904297 0)"/>
     <use xlink:href="#DejaVuSans-72" transform="translate(1428.283203 0)"/>
     <use xlink:href="#DejaVuSans-70" transform="translate(1469.396484 0)"/>
     <use xlink:href="#DejaVuSans-6c" transform="translate(1532.873047 0)"/>
     <use xlink:href="#DejaVuSans-65" transform="translate(1560.65625 0)"/>
     <use xlink:href="#DejaVuSans-2c" transform="translate(1622.179688 0)"/>
     <use xlink:href="#DejaVuSans-20" transform="translate(1653.966797 0)"/>
     <use xlink:href="#DejaVuSans-52" transform="translate(1685.753906 0)"/>
     <use xlink:href="#DejaVuSans-65" transform="translate(1750.736328 0)"/>
     <use xlink:href="#DejaVuSans-63" transform="translate(1812.259766 0)"/>
     <use xlink:href="#DejaVuSans-69" transform="translate(1867.240234 0)"/>
     <use xlink:href="#DejaVuSans-70" transform="translate(1895.023438 0)"/>
     <use xlink:href="#DejaVuSans-65" transform="translate(1958.5 0)"/>
     <use xlink:href="#DejaVuSans-20" transform="translate(2020.023438 0)"/>
     <use xlink:href="#DejaVuSans-73" transform="translate(2051.810547 0)"/>
     <use xlink:href="#DejaVuSans-69" transform="translate(2103.910156 0)"/>
     <use xlink:href="#DejaVuSans-7a" transform="translate(2131.693359 0)"/>
     <use xlink:href="#DejaVuSans-65" transform="translate(2184.183594 0)"/>
     <use xlink:href="#DejaVuSans-3a" transform="translate(2245.707031 0)"/>
     <use xlink:href="#DejaVuSans-20" transform="translate(2279.398438 0)"/>
     <use xlink:href="#DejaVuSans-39" transform="translate(2311.185547 0)"/>
     <use xlink:href="#DejaVuSans-2c" transform="translate(2374.808594 0)"/>
     <use xlink:href="#DejaVuSans-20" transform="translate(2406.595703 0)"/>
     <use xlink:href="#DejaVuSans-54" transform="translate(2438.382812 0)"/>
     <use xlink:href="#DejaVuSans-30" transform="translate(2499.466797 0)"/>
     <use xlink:href="#DejaVuSans-3a" transform="translate(2563.089844 0)"/>
     <use xlink:href="#DejaVuSans-20" transform="translate(2596.78125 0)"/>
     <use xlink:href="#DejaVuSans-31" transform="translate(2628.568359 0)"/>
     <use xlink:href="#DejaVuSans-30" transform="translate(2692.191406 0)"/>
     <use xlink:href="#DejaVuSans-2e" transform="translate(2755.814453 0)"/>
     <use xlink:href="#DejaVuSans-30" transform="translate(2787.601562 0)"/>
    </g>
   </g>
  </g>
 </g>
 <defs>
  <clipPath id="pbaa782898c">
   <rect x="50.87" y="43.44" width="793.996" height="346.6"/>
  </clipPath>
 </defs>
</svg>
