<?xml version="1.0" encoding="utf-8" standalone="no"?>
<!DOCTYPE svg PUBLIC "-//W3C//DTD SVG 1.1//EN"
  "http://www.w3.org/Graphics/SVG/1.1/DTD/svg11.dtd">
<svg xmlns:xlink="http://www.w3.org/1999/xlink" width="864pt" height="432pt" viewBox="0 0 864 432" xmlns="http://www.w3.org/2000/svg" version="1.1">
 <metadata>
  <rdf:RDF xmlns:dc="http://purl.org/dc/elements/1.1/" xmlns:cc="http://creativecommons.org/ns#" xmlns:rdf="http://www.w3.org/1999/02/22-rdf-syntax-ns#">
   <cc:Work>
    <dc:type rdf:resource="http://purl.org/dc/dcmitype/StillImage"/>
    <dc:date>2025-05-24T02:15:56.312946</dc:date>
    <dc:format>image/svg+xml</dc:format>
    <dc:creator>
     <cc:Agent>
      <dc:title>Matplotlib v3.10.3, https://matplotlib.org/</dc:title>
     </cc:Agent>
    </dc:creator>
   </cc:Work>
  </rdf:RDF>
 </metadata>
 <defs>
  <style type="text/css">*{stroke-linejoin: round; stroke-linecap: butt}</style>
 </defs>
 <g id="figure_1">
  <g id="patch_1">
   <path d="M 0 432 
L 864 432 
L 864 0 
L 0 0 
z
" style="fill: #ffffff"/>
  </g>
  <g id="axes_1">
   <g id="patch_2">
    <path d="M 50.87 390.04 
L 844.866 390.04 
L 844.866 43.44 
L 50.87 43.44 
z
" style="fill: #ffffff"/>
   </g>
   <g id="FillBetweenPolyCollection_1">
    <defs>
     <path id="m04f30a18e1" d="M 52.193327 -302.524281 
L 52.193327 -57.714545 
L 54.83998 -58.263961 
L 57.486633 -68.601682 
L 60.133287 -79.057727 
L 62.77994 -88.185091 
L 65.426593 -97.261838 
L 68.073247 -104.58866 
L 70.7199 -111.32731 
L 73.366553 -118.074905 
L 76.013207 -123.562376 
L 78.65986 -128.894719 
L 81.306513 -133.660515 
L 83.953167 -137.713288 
L 86.59982 -142.026066 
L 89.246473 -145.771758 
L 91.893127 -149.107702 
L 94.53978 -151.371503 
L 97.186433 -154.671077 
L 99.833087 -157.554948 
L 102.47974 -160.465911 
L 105.126393 -163.19982 
L 107.773047 -165.041402 
L 110.4197 -167.437939 
L 113.066353 -169.31505 
L 115.713007 -171.497282 
L 118.35966 -173.439639 
L 121.006313 -174.986974 
L 123.652967 -176.609559 
L 126.29962 -178.43569 
L 128.946273 -179.957851 
L 131.592927 -181.392341 
L 134.23958 -183.185402 
L 136.886233 -184.659883 
L 139.532887 -186.128906 
L 142.17954 -187.706613 
L 144.826193 -189.246673 
L 147.472847 -190.51157 
L 150.1195 -191.569237 
L 152.766153 -192.496015 
L 155.412807 -193.697635 
L 158.05946 -194.616662 
L 160.706113 -195.427721 
L 163.352767 -196.64968 
L 165.99942 -197.596961 
L 168.646073 -198.324355 
L 171.292727 -199.126064 
L 173.93938 -200.040691 
L 176.586033 -200.791017 
L 179.232687 -201.959744 
L 181.87934 -202.597359 
L 184.525993 -203.366861 
L 187.172647 -204.353438 
L 189.8193 -205.202714 
L 192.465953 -205.9933 
L 195.112607 -206.743875 
L 197.75926 -207.202143 
L 200.405913 -207.961454 
L 203.052567 -208.680754 
L 205.69922 -209.321254 
L 208.345873 -209.906053 
L 210.992527 -210.472424 
L 213.63918 -211.298996 
L 216.285833 -212.082049 
L 218.932487 -212.806682 
L 221.57914 -213.261111 
L 224.225793 -214.073156 
L 226.872447 -214.627199 
L 229.5191 -215.129775 
L 232.165753 -215.59927 
L 234.812407 -215.983948 
L 237.45906 -216.671662 
L 240.105713 -217.317682 
L 242.752367 -218.015337 
L 245.39902 -218.418983 
L 248.045673 -218.703673 
L 250.692327 -218.968253 
L 253.33898 -219.230301 
L 255.985633 -219.959376 
L 258.632287 -220.370182 
L 261.27894 -220.938399 
L 263.925593 -221.098779 
L 266.572247 -221.633127 
L 269.2189 -222.208318 
L 271.865553 -222.392833 
L 274.512207 -223.123152 
L 277.15886 -223.483736 
L 279.805513 -223.803893 
L 282.452167 -224.147812 
L 285.09882 -224.477183 
L 287.745473 -224.996361 
L 290.392127 -225.592097 
L 293.03878 -225.98985 
L 295.685433 -226.257315 
L 298.332087 -226.934672 
L 300.97874 -227.412718 
L 303.625393 -227.755932 
L 306.272047 -228.222293 
L 308.9187 -228.70339 
L 311.565353 -229.171204 
L 314.212007 -229.882576 
L 316.85866 -229.970279 
L 319.505313 -230.417548 
L 322.151967 -230.623791 
L 324.79862 -230.858528 
L 327.445273 -231.25377 
L 330.091927 -231.483028 
L 332.73858 -231.882462 
L 335.385233 -232.278471 
L 338.031887 -232.597112 
L 340.67854 -232.656923 
L 343.325193 -232.847269 
L 345.971847 -233.111746 
L 348.6185 -233.42385 
L 351.265153 -233.686812 
L 353.911807 -233.672347 
L 356.55846 -233.915157 
L 359.205113 -234.341175 
L 361.851767 -234.637425 
L 364.49842 -234.742497 
L 367.145073 -235.108518 
L 369.791727 -235.380217 
L 372.43838 -235.84083 
L 375.085033 -236.321304 
L 377.731687 -236.698739 
L 380.37834 -236.889791 
L 383.024993 -237.194155 
L 385.671647 -237.495821 
L 388.3183 -237.63223 
L 390.964953 -237.859331 
L 393.611607 -238.016846 
L 396.25826 -238.145515 
L 398.904913 -238.526499 
L 401.551567 -238.847423 
L 404.19822 -239.304052 
L 406.844873 -239.493423 
L 409.491527 -239.67991 
L 412.13818 -240.136476 
L 414.784833 -240.385284 
L 417.431487 -240.761474 
L 420.07814 -240.916582 
L 422.724793 -240.966846 
L 425.371447 -241.036846 
L 428.0181 -241.181764 
L 430.664753 -241.19322 
L 433.311407 -241.503062 
L 435.95806 -241.805309 
L 438.604713 -242.0553 
L 441.251367 -242.013649 
L 443.89802 -242.122063 
L 446.544673 -242.17849 
L 449.191327 -242.471253 
L 451.83798 -242.612249 
L 454.484633 -242.918086 
L 457.131287 -242.993918 
L 459.77794 -243.33406 
L 462.424593 -243.600196 
L 465.071247 -243.608456 
L 467.7179 -243.803078 
L 470.364553 -243.854753 
L 473.011207 -244.147204 
L 475.65786 -244.300798 
L 478.304513 -244.622656 
L 480.951167 -244.810139 
L 483.59782 -244.984319 
L 486.244473 -245.225677 
L 488.891127 -245.336477 
L 491.53778 -245.480752 
L 494.184433 -245.725139 
L 496.831087 -245.764114 
L 499.47774 -245.994431 
L 502.124393 -246.106684 
L 504.771047 -246.332705 
L 507.4177 -246.444273 
L 510.064353 -246.56298 
L 512.711007 -246.805708 
L 515.35766 -247.098844 
L 518.004313 -247.363549 
L 520.650967 -247.451811 
L 523.29762 -247.507367 
L 525.944273 -247.591375 
L 528.590927 -247.800234 
L 531.23758 -248.081209 
L 533.884233 -248.190888 
L 536.530887 -248.36345 
L 539.17754 -248.585632 
L 541.824193 -248.703986 
L 544.470847 -249.092732 
L 547.1175 -249.238957 
L 549.764153 -249.288017 
L 552.410807 -249.402553 
L 555.05746 -249.65933 
L 557.704113 -249.850819 
L 560.350767 -249.913078 
L 562.99742 -250.158088 
L 565.644073 -250.164168 
L 568.290727 -250.363729 
L 570.93738 -250.488849 
L 573.584033 -250.575306 
L 576.230687 -250.63852 
L 578.87734 -250.675772 
L 581.523993 -250.824778 
L 584.170647 -250.916258 
L 586.8173 -251.078754 
L 589.463953 -251.335427 
L 592.110607 -251.448469 
L 594.75726 -251.576702 
L 597.403913 -251.74559 
L 600.050567 -251.937929 
L 602.69722 -252.081125 
L 605.343873 -252.245821 
L 607.990527 -252.508907 
L 610.63718 -252.646665 
L 613.283833 -252.815761 
L 615.930487 -252.907759 
L 618.57714 -253.140898 
L 621.223793 -253.249789 
L 623.870447 -253.423554 
L 626.5171 -253.648911 
L 629.163753 -253.840379 
L 631.810407 -254.05868 
L 634.45706 -254.338347 
L 637.103713 -254.473553 
L 639.750367 -254.416171 
L 642.39702 -254.549489 
L 645.043673 -254.502068 
L 647.690327 -254.671807 
L 650.33698 -254.931323 
L 652.983633 -255.088237 
L 655.630287 -255.164816 
L 658.27694 -255.364646 
L 660.923593 -255.530691 
L 663.570247 -255.84896 
L 666.2169 -255.758933 
L 668.863553 -255.773564 
L 671.510207 -255.887809 
L 674.15686 -255.999211 
L 676.803513 -256.200329 
L 679.450167 -256.34064 
L 682.09682 -256.351681 
L 684.743473 -256.343545 
L 687.390127 -256.567097 
L 690.03678 -256.618793 
L 692.683433 -256.753563 
L 695.330087 -256.883912 
L 697.97674 -256.848923 
L 700.623393 -257.041532 
L 703.270047 -257.072184 
L 705.9167 -257.103998 
L 708.563353 -257.240802 
L 711.210007 -257.500879 
L 713.85666 -257.558137 
L 716.503313 -257.633906 
L 719.149967 -257.645652 
L 721.79662 -257.829918 
L 724.443273 -258.016093 
L 727.089927 -258.109088 
L 729.73658 -258.124528 
L 732.383233 -258.475544 
L 735.029887 -258.467741 
L 737.67654 -258.571423 
L 740.323193 -258.836688 
L 742.969847 -258.992253 
L 745.6165 -259.210907 
L 748.263153 -259.287921 
L 750.909807 -259.293483 
L 753.55646 -259.527121 
L 756.203113 -259.551028 
L 758.849767 -259.610444 
L 761.49642 -259.615217 
L 764.143073 -259.751295 
L 766.789727 -259.821046 
L 769.43638 -259.862012 
L 772.083033 -259.880295 
L 774.729687 -260.213568 
L 777.37634 -260.099655 
L 780.022993 -260.21087 
L 782.669647 -260.231499 
L 785.3163 -260.37926 
L 787.962953 -260.27591 
L 790.609607 -260.354647 
L 793.25626 -260.532687 
L 795.902913 -260.696408 
L 798.549567 -260.686446 
L 801.19622 -260.820366 
L 803.842873 -260.993031 
L 806.489527 -261.091462 
L 809.13618 -261.150152 
L 811.782833 -261.273259 
L 814.429487 -261.255328 
L 817.07614 -261.180721 
L 819.722793 -261.164264 
L 822.369447 -261.32703 
L 825.0161 -261.397818 
L 827.662753 -261.555624 
L 830.309407 -261.791047 
L 832.95606 -262.021218 
L 835.602713 -262.174521 
L 838.249367 -262.446925 
L 840.89602 -262.599605 
L 843.542673 -262.77283 
L 843.542673 -372.613821 
L 843.542673 -372.613821 
L 840.89602 -372.645781 
L 838.249367 -372.619508 
L 835.602713 -372.666949 
L 832.95606 -372.67911 
L 830.309407 -372.716383 
L 827.662753 -372.696875 
L 825.0161 -372.796448 
L 822.369447 -372.746682 
L 819.722793 -372.805455 
L 817.07614 -372.65981 
L 814.429487 -372.512505 
L 811.782833 -372.391971 
L 809.13618 -372.33764 
L 806.489527 -372.284263 
L 803.842873 -372.204468 
L 801.19622 -372.203928 
L 798.549567 -372.211835 
L 795.902913 -372.026635 
L 793.25626 -372.089911 
L 790.609607 -372.064613 
L 787.962953 -372.056561 
L 785.3163 -371.886179 
L 782.669647 -371.858328 
L 780.022993 -371.766434 
L 777.37634 -371.785174 
L 774.729687 -371.600866 
L 772.083033 -371.686805 
L 769.43638 -371.578619 
L 766.789727 -371.5362 
L 764.143073 -371.499737 
L 761.49642 -371.512126 
L 758.849767 -371.394 
L 756.203113 -371.285856 
L 753.55646 -371.130043 
L 750.909807 -371.151833 
L 748.263153 -371.024534 
L 745.6165 -370.980974 
L 742.969847 -370.974582 
L 740.323193 -371.002432 
L 737.67654 -371.118442 
L 735.029887 -371.068385 
L 732.383233 -371.017873 
L 729.73658 -371.131267 
L 727.089927 -370.996497 
L 724.443273 -370.896032 
L 721.79662 -370.938306 
L 719.149967 -370.968335 
L 716.503313 -370.872705 
L 713.85666 -370.777594 
L 711.210007 -370.673684 
L 708.563353 -370.714858 
L 705.9167 -370.699667 
L 703.270047 -370.654031 
L 700.623393 -370.531982 
L 697.97674 -370.566577 
L 695.330087 -370.505605 
L 692.683433 -370.497034 
L 690.03678 -370.460882 
L 687.390127 -370.38503 
L 684.743473 -370.401176 
L 682.09682 -370.208173 
L 679.450167 -370.041485 
L 676.803513 -370.045033 
L 674.15686 -370.046216 
L 671.510207 -369.947972 
L 668.863553 -369.907441 
L 666.2169 -369.77954 
L 663.570247 -369.600898 
L 660.923593 -369.726827 
L 658.27694 -369.681814 
L 655.630287 -369.736374 
L 652.983633 -369.753682 
L 650.33698 -369.698541 
L 647.690327 -369.786762 
L 645.043673 -369.696673 
L 642.39702 -369.541503 
L 639.750367 -369.537892 
L 637.103713 -369.384548 
L 634.45706 -369.406774 
L 631.810407 -369.474886 
L 629.163753 -369.518363 
L 626.5171 -369.431906 
L 623.870447 -369.4863 
L 621.223793 -369.357195 
L 618.57714 -369.219541 
L 615.930487 -369.223318 
L 613.283833 -369.15062 
L 610.63718 -369.127252 
L 607.990527 -369.023113 
L 605.343873 -369.073107 
L 602.69722 -369.058788 
L 600.050567 -368.990303 
L 597.403913 -368.983745 
L 594.75726 -368.982126 
L 592.110607 -368.951391 
L 589.463953 -368.918954 
L 586.8173 -368.973659 
L 584.170647 -368.95137 
L 581.523993 -368.764676 
L 578.87734 -368.666805 
L 576.230687 -368.582485 
L 573.584033 -368.545669 
L 570.93738 -368.417914 
L 568.290727 -368.391454 
L 565.644073 -368.388963 
L 562.99742 -368.223334 
L 560.350767 -368.161614 
L 557.704113 -368.082213 
L 555.05746 -367.989053 
L 552.410807 -368.087235 
L 549.764153 -367.996731 
L 547.1175 -367.842038 
L 544.470847 -367.811656 
L 541.824193 -367.943272 
L 539.17754 -367.920464 
L 536.530887 -367.913366 
L 533.884233 -367.881137 
L 531.23758 -367.778306 
L 528.590927 -367.798748 
L 525.944273 -367.83299 
L 523.29762 -367.652605 
L 520.650967 -367.555335 
L 518.004313 -367.454496 
L 515.35766 -367.436836 
L 512.711007 -367.489113 
L 510.064353 -367.46342 
L 507.4177 -367.297189 
L 504.771047 -367.238707 
L 502.124393 -367.1812 
L 499.47774 -367.129836 
L 496.831087 -367.013868 
L 494.184433 -366.813851 
L 491.53778 -366.804761 
L 488.891127 -366.715938 
L 486.244473 -366.567865 
L 483.59782 -366.577246 
L 480.951167 -366.427222 
L 478.304513 -366.332132 
L 475.65786 -366.338088 
L 473.011207 -366.26705 
L 470.364553 -366.220398 
L 467.7179 -366.033039 
L 465.071247 -365.981779 
L 462.424593 -365.678785 
L 459.77794 -365.581412 
L 457.131287 -365.589589 
L 454.484633 -365.325569 
L 451.83798 -365.331276 
L 449.191327 -365.205845 
L 446.544673 -365.169548 
L 443.89802 -364.959299 
L 441.251367 -364.82897 
L 438.604713 -364.611665 
L 435.95806 -364.505659 
L 433.311407 -364.533634 
L 430.664753 -364.491298 
L 428.0181 -364.330669 
L 425.371447 -364.113945 
L 422.724793 -363.906519 
L 420.07814 -363.687409 
L 417.431487 -363.607925 
L 414.784833 -363.593501 
L 412.13818 -363.531429 
L 409.491527 -363.533214 
L 406.844873 -363.405873 
L 404.19822 -363.252197 
L 401.551567 -363.354489 
L 398.904913 -363.256036 
L 396.25826 -363.184231 
L 393.611607 -363.063698 
L 390.964953 -362.9811 
L 388.3183 -362.832364 
L 385.671647 -362.687611 
L 383.024993 -362.564795 
L 380.37834 -362.532296 
L 377.731687 -362.308329 
L 375.085033 -362.331012 
L 372.43838 -362.351807 
L 369.791727 -362.353612 
L 367.145073 -362.238973 
L 364.49842 -362.138134 
L 361.851767 -361.795522 
L 359.205113 -361.589465 
L 356.55846 -361.470011 
L 353.911807 -361.417838 
L 351.265153 -361.184636 
L 348.6185 -360.957827 
L 345.971847 -360.85238 
L 343.325193 -360.744257 
L 340.67854 -360.588776 
L 338.031887 -360.267934 
L 335.385233 -360.19671 
L 332.73858 -360.164459 
L 330.091927 -360.118118 
L 327.445273 -359.954812 
L 324.79862 -359.881534 
L 322.151967 -359.77368 
L 319.505313 -359.568474 
L 316.85866 -359.510283 
L 314.212007 -359.141668 
L 311.565353 -359.210028 
L 308.9187 -359.116266 
L 306.272047 -358.987556 
L 303.625393 -359.011754 
L 300.97874 -358.913509 
L 298.332087 -358.786646 
L 295.685433 -358.886115 
L 293.03878 -358.573616 
L 290.392127 -358.449887 
L 287.745473 -358.378372 
L 285.09882 -358.315428 
L 282.452167 -358.120495 
L 279.805513 -357.976718 
L 277.15886 -357.768959 
L 274.512207 -357.588221 
L 271.865553 -357.560018 
L 269.2189 -357.173867 
L 266.572247 -357.123727 
L 263.925593 -356.911382 
L 261.27894 -356.52189 
L 258.632287 -356.339263 
L 255.985633 -356.045421 
L 253.33898 -356.118742 
L 250.692327 -355.864123 
L 248.045673 -355.518481 
L 245.39902 -355.172944 
L 242.752367 -354.766309 
L 240.105713 -354.66493 
L 237.45906 -354.579075 
L 234.812407 -354.389019 
L 232.165753 -353.993923 
L 229.5191 -353.78218 
L 226.872447 -353.571558 
L 224.225793 -353.263064 
L 221.57914 -353.241294 
L 218.932487 -352.998837 
L 216.285833 -352.811956 
L 213.63918 -352.717779 
L 210.992527 -352.493833 
L 208.345873 -352.041811 
L 205.69922 -351.732903 
L 203.052567 -351.436155 
L 200.405913 -351.179565 
L 197.75926 -351.01794 
L 195.112607 -350.587398 
L 192.465953 -350.234369 
L 189.8193 -349.825098 
L 187.172647 -349.647307 
L 184.525993 -349.339436 
L 181.87934 -348.909496 
L 179.232687 -348.42869 
L 176.586033 -348.237721 
L 173.93938 -347.871119 
L 171.292727 -347.568747 
L 168.646073 -347.15321 
L 165.99942 -346.512979 
L 163.352767 -346.293682 
L 160.706113 -345.999902 
L 158.05946 -345.367828 
L 155.412807 -344.755406 
L 152.766153 -344.339578 
L 150.1195 -343.456122 
L 147.472847 -342.990258 
L 144.826193 -342.562787 
L 142.17954 -342.288329 
L 139.532887 -342.147603 
L 136.886233 -341.802646 
L 134.23958 -341.446088 
L 131.592927 -340.933862 
L 128.946273 -340.396525 
L 126.29962 -339.868963 
L 123.652967 -339.335839 
L 121.006313 -338.59755 
L 118.35966 -337.543878 
L 115.713007 -336.923861 
L 113.066353 -336.338169 
L 110.4197 -335.403577 
L 107.773047 -334.806679 
L 105.126393 -333.726319 
L 102.47974 -333.032317 
L 99.833087 -332.555724 
L 97.186433 -331.700617 
L 94.53978 -330.971729 
L 91.893127 -329.424405 
L 89.246473 -328.151851 
L 86.59982 -327.236041 
L 83.953167 -326.475878 
L 81.306513 -325.138097 
L 78.65986 -324.066266 
L 76.013207 -322.802262 
L 73.366553 -320.851852 
L 70.7199 -319.512328 
L 68.073247 -317.478926 
L 65.426593 -315.096003 
L 62.77994 -312.921128 
L 60.133287 -309.750067 
L 57.486633 -306.151327 
L 54.83998 -302.034136 
L 52.193327 -302.524281 
z
" style="stroke: #0000ff; stroke-opacity: 0.2"/>
    </defs>
    <g clip-path="url(#p5ec9d8e652)">
     <use xlink:href="#m04f30a18e1" x="0" y="432" style="fill: #0000ff; fill-opacity: 0.2; stroke: #0000ff; stroke-opacity: 0.2"/>
    </g>
   </g>
   <g id="matplotlib.axis_1">
    <g id="xtick_1">
     <g id="line2d_1">
      <defs>
       <path id="ma28d509012" d="M 0 0 
L 0 3.5 
" style="stroke: #000000; stroke-width: 0.8"/>
      </defs>
      <g>
       <use xlink:href="#ma28d509012" x="181.87934" y="390.04" style="stroke: #000000; stroke-width: 0.8"/>
      </g>
     </g>
     <g id="text_1">
      <!-- 50 -->
      <g transform="translate(175.51684 404.638438) scale(0.1 -0.1)">
       <defs>
        <path id="DejaVuSans-35" d="M 691 4666 
L 3169 4666 
L 3169 4134 
L 1269 4134 
L 1269 2991 
Q 1406 3038 1543 3061 
Q 1681 3084 1819 3084 
Q 2600 3084 3056 2656 
Q 3513 2228 3513 1497 
Q 3513 744 3044 326 
Q 2575 -91 1722 -91 
Q 1428 -91 1123 -41 
Q 819 9 494 109 
L 494 744 
Q 775 591 1075 516 
Q 1375 441 1709 441 
Q 2250 441 2565 725 
Q 2881 1009 2881 1497 
Q 2881 1984 2565 2268 
Q 2250 2553 1709 2553 
Q 1456 2553 1204 2497 
Q 953 2441 691 2322 
L 691 4666 
z
" transform="scale(0.015625)"/>
        <path id="DejaVuSans-30" d="M 2034 4250 
Q 1547 4250 1301 3770 
Q 1056 3291 1056 2328 
Q 1056 1369 1301 889 
Q 1547 409 2034 409 
Q 2525 409 2770 889 
Q 3016 1369 3016 2328 
Q 3016 3291 2770 3770 
Q 2525 4250 2034 4250 
z
M 2034 4750 
Q 2819 4750 3233 4129 
Q 3647 3509 3647 2328 
Q 3647 1150 3233 529 
Q 2819 -91 2034 -91 
Q 1250 -91 836 529 
Q 422 1150 422 2328 
Q 422 3509 836 4129 
Q 1250 4750 2034 4750 
z
" transform="scale(0.015625)"/>
       </defs>
       <use xlink:href="#DejaVuSans-35"/>
       <use xlink:href="#DejaVuSans-30" transform="translate(63.623047 0)"/>
      </g>
     </g>
    </g>
    <g id="xtick_2">
     <g id="line2d_2">
      <g>
       <use xlink:href="#ma28d509012" x="314.212007" y="390.04" style="stroke: #000000; stroke-width: 0.8"/>
      </g>
     </g>
     <g id="text_2">
      <!-- 100 -->
      <g transform="translate(304.668257 404.638438) scale(0.1 -0.1)">
       <defs>
        <path id="DejaVuSans-31" d="M 794 531 
L 1825 531 
L 1825 4091 
L 703 3866 
L 703 4441 
L 1819 4666 
L 2450 4666 
L 2450 531 
L 3481 531 
L 3481 0 
L 794 0 
L 794 531 
z
" transform="scale(0.015625)"/>
       </defs>
       <use xlink:href="#DejaVuSans-31"/>
       <use xlink:href="#DejaVuSans-30" transform="translate(63.623047 0)"/>
       <use xlink:href="#DejaVuSans-30" transform="translate(127.246094 0)"/>
      </g>
     </g>
    </g>
    <g id="xtick_3">
     <g id="line2d_3">
      <g>
       <use xlink:href="#ma28d509012" x="446.544673" y="390.04" style="stroke: #000000; stroke-width: 0.8"/>
      </g>
     </g>
     <g id="text_3">
      <!-- 150 -->
      <g transform="translate(437.000923 404.638438) scale(0.1 -0.1)">
       <use xlink:href="#DejaVuSans-31"/>
       <use xlink:href="#DejaVuSans-35" transform="translate(63.623047 0)"/>
       <use xlink:href="#DejaVuSans-30" transform="translate(127.246094 0)"/>
      </g>
     </g>
    </g>
    <g id="xtick_4">
     <g id="line2d_4">
      <g>
       <use xlink:href="#ma28d509012" x="578.87734" y="390.04" style="stroke: #000000; stroke-width: 0.8"/>
      </g>
     </g>
     <g id="text_4">
      <!-- 200 -->
      <g transform="translate(569.33359 404.638438) scale(0.1 -0.1)">
       <defs>
        <path id="DejaVuSans-32" d="M 1228 531 
L 3431 531 
L 3431 0 
L 469 0 
L 469 531 
Q 828 903 1448 1529 
Q 2069 2156 2228 2338 
Q 2531 2678 2651 2914 
Q 2772 3150 2772 3378 
Q 2772 3750 2511 3984 
Q 2250 4219 1831 4219 
Q 1534 4219 1204 4116 
Q 875 4013 500 3803 
L 500 4441 
Q 881 4594 1212 4672 
Q 1544 4750 1819 4750 
Q 2544 4750 2975 4387 
Q 3406 4025 3406 3419 
Q 3406 3131 3298 2873 
Q 3191 2616 2906 2266 
Q 2828 2175 2409 1742 
Q 1991 1309 1228 531 
z
" transform="scale(0.015625)"/>
       </defs>
       <use xlink:href="#DejaVuSans-32"/>
       <use xlink:href="#DejaVuSans-30" transform="translate(63.623047 0)"/>
       <use xlink:href="#DejaVuSans-30" transform="translate(127.246094 0)"/>
      </g>
     </g>
    </g>
    <g id="xtick_5">
     <g id="line2d_5">
      <g>
       <use xlink:href="#ma28d509012" x="711.210007" y="390.04" style="stroke: #000000; stroke-width: 0.8"/>
      </g>
     </g>
     <g id="text_5">
      <!-- 250 -->
      <g transform="translate(701.666257 404.638438) scale(0.1 -0.1)">
       <use xlink:href="#DejaVuSans-32"/>
       <use xlink:href="#DejaVuSans-35" transform="translate(63.623047 0)"/>
       <use xlink:href="#DejaVuSans-30" transform="translate(127.246094 0)"/>
      </g>
     </g>
    </g>
    <g id="xtick_6">
     <g id="line2d_6">
      <g>
       <use xlink:href="#ma28d509012" x="843.542673" y="390.04" style="stroke: #000000; stroke-width: 0.8"/>
      </g>
     </g>
     <g id="text_6">
      <!-- 300 -->
      <g transform="translate(833.998923 404.638438) scale(0.1 -0.1)">
       <defs>
        <path id="DejaVuSans-33" d="M 2597 2516 
Q 3050 2419 3304 2112 
Q 3559 1806 3559 1356 
Q 3559 666 3084 287 
Q 2609 -91 1734 -91 
Q 1441 -91 1130 -33 
Q 819 25 488 141 
L 488 750 
Q 750 597 1062 519 
Q 1375 441 1716 441 
Q 2309 441 2620 675 
Q 2931 909 2931 1356 
Q 2931 1769 2642 2001 
Q 2353 2234 1838 2234 
L 1294 2234 
L 1294 2753 
L 1863 2753 
Q 2328 2753 2575 2939 
Q 2822 3125 2822 3475 
Q 2822 3834 2567 4026 
Q 2313 4219 1838 4219 
Q 1578 4219 1281 4162 
Q 984 4106 628 3988 
L 628 4550 
Q 988 4650 1302 4700 
Q 1616 4750 1894 4750 
Q 2613 4750 3031 4423 
Q 3450 4097 3450 3541 
Q 3450 3153 3228 2886 
Q 3006 2619 2597 2516 
z
" transform="scale(0.015625)"/>
       </defs>
       <use xlink:href="#DejaVuSans-33"/>
       <use xlink:href="#DejaVuSans-30" transform="translate(63.623047 0)"/>
       <use xlink:href="#DejaVuSans-30" transform="translate(127.246094 0)"/>
      </g>
     </g>
    </g>
    <g id="text_7">
     <!-- Step -->
     <g transform="translate(436.482844 418.316562) scale(0.1 -0.1)">
      <defs>
       <path id="DejaVuSans-53" d="M 3425 4513 
L 3425 3897 
Q 3066 4069 2747 4153 
Q 2428 4238 2131 4238 
Q 1616 4238 1336 4038 
Q 1056 3838 1056 3469 
Q 1056 3159 1242 3001 
Q 1428 2844 1947 2747 
L 2328 2669 
Q 3034 2534 3370 2195 
Q 3706 1856 3706 1288 
Q 3706 609 3251 259 
Q 2797 -91 1919 -91 
Q 1588 -91 1214 -16 
Q 841 59 441 206 
L 441 856 
Q 825 641 1194 531 
Q 1563 422 1919 422 
Q 2459 422 2753 634 
Q 3047 847 3047 1241 
Q 3047 1584 2836 1778 
Q 2625 1972 2144 2069 
L 1759 2144 
Q 1053 2284 737 2584 
Q 422 2884 422 3419 
Q 422 4038 858 4394 
Q 1294 4750 2059 4750 
Q 2388 4750 2728 4690 
Q 3069 4631 3425 4513 
z
" transform="scale(0.015625)"/>
       <path id="DejaVuSans-74" d="M 1172 4494 
L 1172 3500 
L 2356 3500 
L 2356 3053 
L 1172 3053 
L 1172 1153 
Q 1172 725 1289 603 
Q 1406 481 1766 481 
L 2356 481 
L 2356 0 
L 1766 0 
Q 1100 0 847 248 
Q 594 497 594 1153 
L 594 3053 
L 172 3053 
L 172 3500 
L 594 3500 
L 594 4494 
L 1172 4494 
z
" transform="scale(0.015625)"/>
       <path id="DejaVuSans-65" d="M 3597 1894 
L 3597 1613 
L 953 1613 
Q 991 1019 1311 708 
Q 1631 397 2203 397 
Q 2534 397 2845 478 
Q 3156 559 3463 722 
L 3463 178 
Q 3153 47 2828 -22 
Q 2503 -91 2169 -91 
Q 1331 -91 842 396 
Q 353 884 353 1716 
Q 353 2575 817 3079 
Q 1281 3584 2069 3584 
Q 2775 3584 3186 3129 
Q 3597 2675 3597 1894 
z
M 3022 2063 
Q 3016 2534 2758 2815 
Q 2500 3097 2075 3097 
Q 1594 3097 1305 2825 
Q 1016 2553 972 2059 
L 3022 2063 
z
" transform="scale(0.015625)"/>
       <path id="DejaVuSans-70" d="M 1159 525 
L 1159 -1331 
L 581 -1331 
L 581 3500 
L 1159 3500 
L 1159 2969 
Q 1341 3281 1617 3432 
Q 1894 3584 2278 3584 
Q 2916 3584 3314 3078 
Q 3713 2572 3713 1747 
Q 3713 922 3314 415 
Q 2916 -91 2278 -91 
Q 1894 -91 1617 61 
Q 1341 213 1159 525 
z
M 3116 1747 
Q 3116 2381 2855 2742 
Q 2594 3103 2138 3103 
Q 1681 3103 1420 2742 
Q 1159 2381 1159 1747 
Q 1159 1113 1420 752 
Q 1681 391 2138 391 
Q 2594 391 2855 752 
Q 3116 1113 3116 1747 
z
" transform="scale(0.015625)"/>
      </defs>
      <use xlink:href="#DejaVuSans-53"/>
      <use xlink:href="#DejaVuSans-74" transform="translate(63.476562 0)"/>
      <use xlink:href="#DejaVuSans-65" transform="translate(102.685547 0)"/>
      <use xlink:href="#DejaVuSans-70" transform="translate(164.208984 0)"/>
     </g>
    </g>
   </g>
   <g id="matplotlib.axis_2">
    <g id="ytick_1">
     <g id="line2d_7">
      <defs>
       <path id="me6e3556eb1" d="M 0 0 
L -3.5 0 
" style="stroke: #000000; stroke-width: 0.8"/>
      </defs>
      <g>
       <use xlink:href="#me6e3556eb1" x="50.87" y="353.231726" style="stroke: #000000; stroke-width: 0.8"/>
      </g>
     </g>
     <g id="text_8">
      <!-- 20 -->
      <g transform="translate(31.145 357.030944) scale(0.1 -0.1)">
       <use xlink:href="#DejaVuSans-32"/>
       <use xlink:href="#DejaVuSans-30" transform="translate(63.623047 0)"/>
      </g>
     </g>
    </g>
    <g id="ytick_2">
     <g id="line2d_8">
      <g>
       <use xlink:href="#me6e3556eb1" x="50.87" y="298.828935" style="stroke: #000000; stroke-width: 0.8"/>
      </g>
     </g>
     <g id="text_9">
      <!-- 40 -->
      <g transform="translate(31.145 302.628154) scale(0.1 -0.1)">
       <defs>
        <path id="DejaVuSans-34" d="M 2419 4116 
L 825 1625 
L 2419 1625 
L 2419 4116 
z
M 2253 4666 
L 3047 4666 
L 3047 1625 
L 3713 1625 
L 3713 1100 
L 3047 1100 
L 3047 0 
L 2419 0 
L 2419 1100 
L 313 1100 
L 313 1709 
L 2253 4666 
z
" transform="scale(0.015625)"/>
       </defs>
       <use xlink:href="#DejaVuSans-34"/>
       <use xlink:href="#DejaVuSans-30" transform="translate(63.623047 0)"/>
      </g>
     </g>
    </g>
    <g id="ytick_3">
     <g id="line2d_9">
      <g>
       <use xlink:href="#me6e3556eb1" x="50.87" y="244.426144" style="stroke: #000000; stroke-width: 0.8"/>
      </g>
     </g>
     <g id="text_10">
      <!-- 60 -->
      <g transform="translate(31.145 248.225363) scale(0.1 -0.1)">
       <defs>
        <path id="DejaVuSans-36" d="M 2113 2584 
Q 1688 2584 1439 2293 
Q 1191 2003 1191 1497 
Q 1191 994 1439 701 
Q 1688 409 2113 409 
Q 2538 409 2786 701 
Q 3034 994 3034 1497 
Q 3034 2003 2786 2293 
Q 2538 2584 2113 2584 
z
M 3366 4563 
L 3366 3988 
Q 3128 4100 2886 4159 
Q 2644 4219 2406 4219 
Q 1781 4219 1451 3797 
Q 1122 3375 1075 2522 
Q 1259 2794 1537 2939 
Q 1816 3084 2150 3084 
Q 2853 3084 3261 2657 
Q 3669 2231 3669 1497 
Q 3669 778 3244 343 
Q 2819 -91 2113 -91 
Q 1303 -91 875 529 
Q 447 1150 447 2328 
Q 447 3434 972 4092 
Q 1497 4750 2381 4750 
Q 2619 4750 2861 4703 
Q 3103 4656 3366 4563 
z
" transform="scale(0.015625)"/>
       </defs>
       <use xlink:href="#DejaVuSans-36"/>
       <use xlink:href="#DejaVuSans-30" transform="translate(63.623047 0)"/>
      </g>
     </g>
    </g>
    <g id="ytick_4">
     <g id="line2d_10">
      <g>
       <use xlink:href="#me6e3556eb1" x="50.87" y="190.023354" style="stroke: #000000; stroke-width: 0.8"/>
      </g>
     </g>
     <g id="text_11">
      <!-- 80 -->
      <g transform="translate(31.145 193.822572) scale(0.1 -0.1)">
       <defs>
        <path id="DejaVuSans-38" d="M 2034 2216 
Q 1584 2216 1326 1975 
Q 1069 1734 1069 1313 
Q 1069 891 1326 650 
Q 1584 409 2034 409 
Q 2484 409 2743 651 
Q 3003 894 3003 1313 
Q 3003 1734 2745 1975 
Q 2488 2216 2034 2216 
z
M 1403 2484 
Q 997 2584 770 2862 
Q 544 3141 544 3541 
Q 544 4100 942 4425 
Q 1341 4750 2034 4750 
Q 2731 4750 3128 4425 
Q 3525 4100 3525 3541 
Q 3525 3141 3298 2862 
Q 3072 2584 2669 2484 
Q 3125 2378 3379 2068 
Q 3634 1759 3634 1313 
Q 3634 634 3220 271 
Q 2806 -91 2034 -91 
Q 1263 -91 848 271 
Q 434 634 434 1313 
Q 434 1759 690 2068 
Q 947 2378 1403 2484 
z
M 1172 3481 
Q 1172 3119 1398 2916 
Q 1625 2713 2034 2713 
Q 2441 2713 2670 2916 
Q 2900 3119 2900 3481 
Q 2900 3844 2670 4047 
Q 2441 4250 2034 4250 
Q 1625 4250 1398 4047 
Q 1172 3844 1172 3481 
z
" transform="scale(0.015625)"/>
       </defs>
       <use xlink:href="#DejaVuSans-38"/>
       <use xlink:href="#DejaVuSans-30" transform="translate(63.623047 0)"/>
      </g>
     </g>
    </g>
    <g id="ytick_5">
     <g id="line2d_11">
      <g>
       <use xlink:href="#me6e3556eb1" x="50.87" y="135.620563" style="stroke: #000000; stroke-width: 0.8"/>
      </g>
     </g>
     <g id="text_12">
      <!-- 100 -->
      <g transform="translate(24.7825 139.419782) scale(0.1 -0.1)">
       <use xlink:href="#DejaVuSans-31"/>
       <use xlink:href="#DejaVuSans-30" transform="translate(63.623047 0)"/>
       <use xlink:href="#DejaVuSans-30" transform="translate(127.246094 0)"/>
      </g>
     </g>
    </g>
    <g id="ytick_6">
     <g id="line2d_12">
      <g>
       <use xlink:href="#me6e3556eb1" x="50.87" y="81.217772" style="stroke: #000000; stroke-width: 0.8"/>
      </g>
     </g>
     <g id="text_13">
      <!-- 120 -->
      <g transform="translate(24.7825 85.016991) scale(0.1 -0.1)">
       <use xlink:href="#DejaVuSans-31"/>
       <use xlink:href="#DejaVuSans-32" transform="translate(63.623047 0)"/>
       <use xlink:href="#DejaVuSans-30" transform="translate(127.246094 0)"/>
      </g>
     </g>
    </g>
    <g id="text_14">
     <!-- Profit -->
     <g transform="translate(18.702813 229.779063) rotate(-90) scale(0.1 -0.1)">
      <defs>
       <path id="DejaVuSans-50" d="M 1259 4147 
L 1259 2394 
L 2053 2394 
Q 2494 2394 2734 2622 
Q 2975 2850 2975 3272 
Q 2975 3691 2734 3919 
Q 2494 4147 2053 4147 
L 1259 4147 
z
M 628 4666 
L 2053 4666 
Q 2838 4666 3239 4311 
Q 3641 3956 3641 3272 
Q 3641 2581 3239 2228 
Q 2838 1875 2053 1875 
L 1259 1875 
L 1259 0 
L 628 0 
L 628 4666 
z
" transform="scale(0.015625)"/>
       <path id="DejaVuSans-72" d="M 2631 2963 
Q 2534 3019 2420 3045 
Q 2306 3072 2169 3072 
Q 1681 3072 1420 2755 
Q 1159 2438 1159 1844 
L 1159 0 
L 581 0 
L 581 3500 
L 1159 3500 
L 1159 2956 
Q 1341 3275 1631 3429 
Q 1922 3584 2338 3584 
Q 2397 3584 2469 3576 
Q 2541 3569 2628 3553 
L 2631 2963 
z
" transform="scale(0.015625)"/>
       <path id="DejaVuSans-6f" d="M 1959 3097 
Q 1497 3097 1228 2736 
Q 959 2375 959 1747 
Q 959 1119 1226 758 
Q 1494 397 1959 397 
Q 2419 397 2687 759 
Q 2956 1122 2956 1747 
Q 2956 2369 2687 2733 
Q 2419 3097 1959 3097 
z
M 1959 3584 
Q 2709 3584 3137 3096 
Q 3566 2609 3566 1747 
Q 3566 888 3137 398 
Q 2709 -91 1959 -91 
Q 1206 -91 779 398 
Q 353 888 353 1747 
Q 353 2609 779 3096 
Q 1206 3584 1959 3584 
z
" transform="scale(0.015625)"/>
       <path id="DejaVuSans-66" d="M 2375 4863 
L 2375 4384 
L 1825 4384 
Q 1516 4384 1395 4259 
Q 1275 4134 1275 3809 
L 1275 3500 
L 2222 3500 
L 2222 3053 
L 1275 3053 
L 1275 0 
L 697 0 
L 697 3053 
L 147 3053 
L 147 3500 
L 697 3500 
L 697 3744 
Q 697 4328 969 4595 
Q 1241 4863 1831 4863 
L 2375 4863 
z
" transform="scale(0.015625)"/>
       <path id="DejaVuSans-69" d="M 603 3500 
L 1178 3500 
L 1178 0 
L 603 0 
L 603 3500 
z
M 603 4863 
L 1178 4863 
L 1178 4134 
L 603 4134 
L 603 4863 
z
" transform="scale(0.015625)"/>
      </defs>
      <use xlink:href="#DejaVuSans-50"/>
      <use xlink:href="#DejaVuSans-72" transform="translate(58.552734 0)"/>
      <use xlink:href="#DejaVuSans-6f" transform="translate(97.416016 0)"/>
      <use xlink:href="#DejaVuSans-66" transform="translate(158.597656 0)"/>
      <use xlink:href="#DejaVuSans-69" transform="translate(193.802734 0)"/>
      <use xlink:href="#DejaVuSans-74" transform="translate(221.585938 0)"/>
     </g>
    </g>
   </g>
   <g id="line2d_13">
    <path d="M 52.193327 251.880587 
L 54.83998 251.850951 
L 60.133287 237.596108 
L 62.77994 231.446896 
L 65.426593 225.821085 
L 68.073247 220.966207 
L 70.7199 216.580181 
L 73.366553 212.536622 
L 76.013207 208.817681 
L 78.65986 205.519507 
L 81.306513 202.600699 
L 83.953167 199.905422 
L 86.59982 197.368947 
L 91.893127 192.733947 
L 99.833087 186.944664 
L 105.126393 183.536936 
L 115.713007 177.789429 
L 123.652967 174.027301 
L 126.29962 172.847679 
L 136.886233 168.768736 
L 147.472847 165.249086 
L 150.1195 164.487326 
L 155.412807 162.773479 
L 163.352767 160.528314 
L 168.646073 159.261218 
L 192.465953 153.886165 
L 197.75926 152.889958 
L 210.992527 150.516872 
L 216.285833 149.552998 
L 221.57914 148.748797 
L 229.5191 147.544023 
L 234.812407 146.813516 
L 242.752367 145.609177 
L 248.045673 144.888923 
L 263.925593 142.99492 
L 269.2189 142.308908 
L 316.85866 137.259719 
L 322.151967 136.801264 
L 330.091927 136.199427 
L 340.67854 135.377151 
L 348.6185 134.809162 
L 351.265153 134.564276 
L 356.55846 134.307416 
L 367.145073 133.326255 
L 393.611607 131.459728 
L 398.904913 131.108732 
L 406.844873 130.550352 
L 443.89802 128.459319 
L 457.131287 127.708247 
L 473.011207 126.792873 
L 480.951167 126.38132 
L 488.891127 125.973793 
L 552.410807 123.255106 
L 560.350767 122.962654 
L 565.644073 122.723434 
L 594.75726 121.720586 
L 615.930487 120.934462 
L 637.103713 120.070949 
L 647.690327 119.770716 
L 695.330087 118.305241 
L 700.623393 118.213243 
L 785.3163 115.86728 
L 795.902913 115.638478 
L 814.429487 115.116083 
L 827.662753 114.87375 
L 838.249367 114.466784 
L 843.542673 114.306674 
L 843.542673 114.306674 
" clip-path="url(#p5ec9d8e652)" style="fill: none; stroke: #0000ff; stroke-width: 1.5; stroke-linecap: square"/>
   </g>
   <g id="patch_3">
    <path d="M 50.87 390.04 
L 50.87 43.44 
" style="fill: none; stroke: #000000; stroke-width: 0.8; stroke-linejoin: miter; stroke-linecap: square"/>
   </g>
   <g id="patch_4">
    <path d="M 844.866 390.04 
L 844.866 43.44 
" style="fill: none; stroke: #000000; stroke-width: 0.8; stroke-linejoin: miter; stroke-linecap: square"/>
   </g>
   <g id="patch_5">
    <path d="M 50.87 390.04 
L 844.866 390.04 
" style="fill: none; stroke: #000000; stroke-width: 0.8; stroke-linejoin: miter; stroke-linecap: square"/>
   </g>
   <g id="patch_6">
    <path d="M 50.87 43.44 
L 844.866 43.44 
" style="fill: none; stroke: #000000; stroke-width: 0.8; stroke-linejoin: miter; stroke-linecap: square"/>
   </g>
   <g id="text_15">
    <!-- Mean profit per step with confidence interval per simulation step -->
    <g transform="translate(220.284875 21.763062) scale(0.14 -0.14)">
     <defs>
      <path id="DejaVuSans-4d" d="M 628 4666 
L 1569 4666 
L 2759 1491 
L 3956 4666 
L 4897 4666 
L 4897 0 
L 4281 0 
L 4281 4097 
L 3078 897 
L 2444 897 
L 1241 4097 
L 1241 0 
L 628 0 
L 628 4666 
z
" transform="scale(0.015625)"/>
      <path id="DejaVuSans-61" d="M 2194 1759 
Q 1497 1759 1228 1600 
Q 959 1441 959 1056 
Q 959 750 1161 570 
Q 1363 391 1709 391 
Q 2188 391 2477 730 
Q 2766 1069 2766 1631 
L 2766 1759 
L 2194 1759 
z
M 3341 1997 
L 3341 0 
L 2766 0 
L 2766 531 
Q 2569 213 2275 61 
Q 1981 -91 1556 -91 
Q 1019 -91 701 211 
Q 384 513 384 1019 
Q 384 1609 779 1909 
Q 1175 2209 1959 2209 
L 2766 2209 
L 2766 2266 
Q 2766 2663 2505 2880 
Q 2244 3097 1772 3097 
Q 1472 3097 1187 3025 
Q 903 2953 641 2809 
L 641 3341 
Q 956 3463 1253 3523 
Q 1550 3584 1831 3584 
Q 2591 3584 2966 3190 
Q 3341 2797 3341 1997 
z
" transform="scale(0.015625)"/>
      <path id="DejaVuSans-6e" d="M 3513 2113 
L 3513 0 
L 2938 0 
L 2938 2094 
Q 2938 2591 2744 2837 
Q 2550 3084 2163 3084 
Q 1697 3084 1428 2787 
Q 1159 2491 1159 1978 
L 1159 0 
L 581 0 
L 581 3500 
L 1159 3500 
L 1159 2956 
Q 1366 3272 1645 3428 
Q 1925 3584 2291 3584 
Q 2894 3584 3203 3211 
Q 3513 2838 3513 2113 
z
" transform="scale(0.015625)"/>
      <path id="DejaVuSans-20" transform="scale(0.015625)"/>
      <path id="DejaVuSans-73" d="M 2834 3397 
L 2834 2853 
Q 2591 2978 2328 3040 
Q 2066 3103 1784 3103 
Q 1356 3103 1142 2972 
Q 928 2841 928 2578 
Q 928 2378 1081 2264 
Q 1234 2150 1697 2047 
L 1894 2003 
Q 2506 1872 2764 1633 
Q 3022 1394 3022 966 
Q 3022 478 2636 193 
Q 2250 -91 1575 -91 
Q 1294 -91 989 -36 
Q 684 19 347 128 
L 347 722 
Q 666 556 975 473 
Q 1284 391 1588 391 
Q 1994 391 2212 530 
Q 2431 669 2431 922 
Q 2431 1156 2273 1281 
Q 2116 1406 1581 1522 
L 1381 1569 
Q 847 1681 609 1914 
Q 372 2147 372 2553 
Q 372 3047 722 3315 
Q 1072 3584 1716 3584 
Q 2034 3584 2315 3537 
Q 2597 3491 2834 3397 
z
" transform="scale(0.015625)"/>
      <path id="DejaVuSans-77" d="M 269 3500 
L 844 3500 
L 1563 769 
L 2278 3500 
L 2956 3500 
L 3675 769 
L 4391 3500 
L 4966 3500 
L 4050 0 
L 3372 0 
L 2619 2869 
L 1863 0 
L 1184 0 
L 269 3500 
z
" transform="scale(0.015625)"/>
      <path id="DejaVuSans-68" d="M 3513 2113 
L 3513 0 
L 2938 0 
L 2938 2094 
Q 2938 2591 2744 2837 
Q 2550 3084 2163 3084 
Q 1697 3084 1428 2787 
Q 1159 2491 1159 1978 
L 1159 0 
L 581 0 
L 581 4863 
L 1159 4863 
L 1159 2956 
Q 1366 3272 1645 3428 
Q 1925 3584 2291 3584 
Q 2894 3584 3203 3211 
Q 3513 2838 3513 2113 
z
" transform="scale(0.015625)"/>
      <path id="DejaVuSans-63" d="M 3122 3366 
L 3122 2828 
Q 2878 2963 2633 3030 
Q 2388 3097 2138 3097 
Q 1578 3097 1268 2742 
Q 959 2388 959 1747 
Q 959 1106 1268 751 
Q 1578 397 2138 397 
Q 2388 397 2633 464 
Q 2878 531 3122 666 
L 3122 134 
Q 2881 22 2623 -34 
Q 2366 -91 2075 -91 
Q 1284 -91 818 406 
Q 353 903 353 1747 
Q 353 2603 823 3093 
Q 1294 3584 2113 3584 
Q 2378 3584 2631 3529 
Q 2884 3475 3122 3366 
z
" transform="scale(0.015625)"/>
      <path id="DejaVuSans-64" d="M 2906 2969 
L 2906 4863 
L 3481 4863 
L 3481 0 
L 2906 0 
L 2906 525 
Q 2725 213 2448 61 
Q 2172 -91 1784 -91 
Q 1150 -91 751 415 
Q 353 922 353 1747 
Q 353 2572 751 3078 
Q 1150 3584 1784 3584 
Q 2172 3584 2448 3432 
Q 2725 3281 2906 2969 
z
M 947 1747 
Q 947 1113 1208 752 
Q 1469 391 1925 391 
Q 2381 391 2643 752 
Q 2906 1113 2906 1747 
Q 2906 2381 2643 2742 
Q 2381 3103 1925 3103 
Q 1469 3103 1208 2742 
Q 947 2381 947 1747 
z
" transform="scale(0.015625)"/>
      <path id="DejaVuSans-76" d="M 191 3500 
L 800 3500 
L 1894 563 
L 2988 3500 
L 3597 3500 
L 2284 0 
L 1503 0 
L 191 3500 
z
" transform="scale(0.015625)"/>
      <path id="DejaVuSans-6c" d="M 603 4863 
L 1178 4863 
L 1178 0 
L 603 0 
L 603 4863 
z
" transform="scale(0.015625)"/>
      <path id="DejaVuSans-6d" d="M 3328 2828 
Q 3544 3216 3844 3400 
Q 4144 3584 4550 3584 
Q 5097 3584 5394 3201 
Q 5691 2819 5691 2113 
L 5691 0 
L 5113 0 
L 5113 2094 
Q 5113 2597 4934 2840 
Q 4756 3084 4391 3084 
Q 3944 3084 3684 2787 
Q 3425 2491 3425 1978 
L 3425 0 
L 2847 0 
L 2847 2094 
Q 2847 2600 2669 2842 
Q 2491 3084 2119 3084 
Q 1678 3084 1418 2786 
Q 1159 2488 1159 1978 
L 1159 0 
L 581 0 
L 581 3500 
L 1159 3500 
L 1159 2956 
Q 1356 3278 1631 3431 
Q 1906 3584 2284 3584 
Q 2666 3584 2933 3390 
Q 3200 3197 3328 2828 
z
" transform="scale(0.015625)"/>
      <path id="DejaVuSans-75" d="M 544 1381 
L 544 3500 
L 1119 3500 
L 1119 1403 
Q 1119 906 1312 657 
Q 1506 409 1894 409 
Q 2359 409 2629 706 
Q 2900 1003 2900 1516 
L 2900 3500 
L 3475 3500 
L 3475 0 
L 2900 0 
L 2900 538 
Q 2691 219 2414 64 
Q 2138 -91 1772 -91 
Q 1169 -91 856 284 
Q 544 659 544 1381 
z
M 1991 3584 
L 1991 3584 
z
" transform="scale(0.015625)"/>
     </defs>
     <use xlink:href="#DejaVuSans-4d"/>
     <use xlink:href="#DejaVuSans-65" transform="translate(86.279297 0)"/>
     <use xlink:href="#DejaVuSans-61" transform="translate(147.802734 0)"/>
     <use xlink:href="#DejaVuSans-6e" transform="translate(209.082031 0)"/>
     <use xlink:href="#DejaVuSans-20" transform="translate(272.460938 0)"/>
     <use xlink:href="#DejaVuSans-70" transform="translate(304.248047 0)"/>
     <use xlink:href="#DejaVuSans-72" transform="translate(367.724609 0)"/>
     <use xlink:href="#DejaVuSans-6f" transform="translate(406.587891 0)"/>
     <use xlink:href="#DejaVuSans-66" transform="translate(467.769531 0)"/>
     <use xlink:href="#DejaVuSans-69" transform="translate(502.974609 0)"/>
     <use xlink:href="#DejaVuSans-74" transform="translate(530.757812 0)"/>
     <use xlink:href="#DejaVuSans-20" transform="translate(569.966797 0)"/>
     <use xlink:href="#DejaVuSans-70" transform="translate(601.753906 0)"/>
     <use xlink:href="#DejaVuSans-65" transform="translate(665.230469 0)"/>
     <use xlink:href="#DejaVuSans-72" transform="translate(726.753906 0)"/>
     <use xlink:href="#DejaVuSans-20" transform="translate(767.867188 0)"/>
     <use xlink:href="#DejaVuSans-73" transform="translate(799.654297 0)"/>
     <use xlink:href="#DejaVuSans-74" transform="translate(851.753906 0)"/>
     <use xlink:href="#DejaVuSans-65" transform="translate(890.962891 0)"/>
     <use xlink:href="#DejaVuSans-70" transform="translate(952.486328 0)"/>
     <use xlink:href="#DejaVuSans-20" transform="translate(1015.962891 0)"/>
     <use xlink:href="#DejaVuSans-77" transform="translate(1047.75 0)"/>
     <use xlink:href="#DejaVuSans-69" transform="translate(1129.537109 0)"/>
     <use xlink:href="#DejaVuSans-74" transform="translate(1157.320312 0)"/>
     <use xlink:href="#DejaVuSans-68" transform="translate(1196.529297 0)"/>
     <use xlink:href="#DejaVuSans-20" transform="translate(1259.908203 0)"/>
     <use xlink:href="#DejaVuSans-63" transform="translate(1291.695312 0)"/>
     <use xlink:href="#DejaVuSans-6f" transform="translate(1346.675781 0)"/>
     <use xlink:href="#DejaVuSans-6e" transform="translate(1407.857422 0)"/>
     <use xlink:href="#DejaVuSans-66" transform="translate(1471.236328 0)"/>
     <use xlink:href="#DejaVuSans-69" transform="translate(1506.441406 0)"/>
     <use xlink:href="#DejaVuSans-64" transform="translate(1534.224609 0)"/>
     <use xlink:href="#DejaVuSans-65" transform="translate(1597.701172 0)"/>
     <use xlink:href="#DejaVuSans-6e" transform="translate(1659.224609 0)"/>
     <use xlink:href="#DejaVuSans-63" transform="translate(1722.603516 0)"/>
     <use xlink:href="#DejaVuSans-65" transform="translate(1777.583984 0)"/>
     <use xlink:href="#DejaVuSans-20" transform="translate(1839.107422 0)"/>
     <use xlink:href="#DejaVuSans-69" transform="translate(1870.894531 0)"/>
     <use xlink:href="#DejaVuSans-6e" transform="translate(1898.677734 0)"/>
     <use xlink:href="#DejaVuSans-74" transform="translate(1962.056641 0)"/>
     <use xlink:href="#DejaVuSans-65" transform="translate(2001.265625 0)"/>
     <use xlink:href="#DejaVuSans-72" transform="translate(2062.789062 0)"/>
     <use xlink:href="#DejaVuSans-76" transform="translate(2103.902344 0)"/>
     <use xlink:href="#DejaVuSans-61" transform="translate(2163.082031 0)"/>
     <use xlink:href="#DejaVuSans-6c" transform="translate(2224.361328 0)"/>
     <use xlink:href="#DejaVuSans-20" transform="translate(2252.144531 0)"/>
     <use xlink:href="#DejaVuSans-70" transform="translate(2283.931641 0)"/>
     <use xlink:href="#DejaVuSans-65" transform="translate(2347.408203 0)"/>
     <use xlink:href="#DejaVuSans-72" transform="translate(2408.931641 0)"/>
     <use xlink:href="#DejaVuSans-20" transform="translate(2450.044922 0)"/>
     <use xlink:href="#DejaVuSans-73" transform="translate(2481.832031 0)"/>
     <use xlink:href="#DejaVuSans-69" transform="translate(2533.931641 0)"/>
     <use xlink:href="#DejaVuSans-6d" transform="translate(2561.714844 0)"/>
     <use xlink:href="#DejaVuSans-75" transform="translate(2659.126953 0)"/>
     <use xlink:href="#DejaVuSans-6c" transform="translate(2722.505859 0)"/>
     <use xlink:href="#DejaVuSans-61" transform="translate(2750.289062 0)"/>
     <use xlink:href="#DejaVuSans-74" transform="translate(2811.568359 0)"/>
     <use xlink:href="#DejaVuSans-69" transform="translate(2850.777344 0)"/>
     <use xlink:href="#DejaVuSans-6f" transform="translate(2878.560547 0)"/>
     <use xlink:href="#DejaVuSans-6e" transform="translate(2939.742188 0)"/>
     <use xlink:href="#DejaVuSans-20" transform="translate(3003.121094 0)"/>
     <use xlink:href="#DejaVuSans-73" transform="translate(3034.908203 0)"/>
     <use xlink:href="#DejaVuSans-74" transform="translate(3087.007812 0)"/>
     <use xlink:href="#DejaVuSans-65" transform="translate(3126.216797 0)"/>
     <use xlink:href="#DejaVuSans-70" transform="translate(3187.740234 0)"/>
    </g>
    <!-- Base Product: Grandaddy Purple, Recipe size: 10, T0: 10.0 -->
    <g transform="translate(243.830031 37.44) scale(0.14 -0.14)">
     <defs>
      <path id="DejaVuSans-42" d="M 1259 2228 
L 1259 519 
L 2272 519 
Q 2781 519 3026 730 
Q 3272 941 3272 1375 
Q 3272 1813 3026 2020 
Q 2781 2228 2272 2228 
L 1259 2228 
z
M 1259 4147 
L 1259 2741 
L 2194 2741 
Q 2656 2741 2882 2914 
Q 3109 3088 3109 3444 
Q 3109 3797 2882 3972 
Q 2656 4147 2194 4147 
L 1259 4147 
z
M 628 4666 
L 2241 4666 
Q 2963 4666 3353 4366 
Q 3744 4066 3744 3513 
Q 3744 3084 3544 2831 
Q 3344 2578 2956 2516 
Q 3422 2416 3680 2098 
Q 3938 1781 3938 1306 
Q 3938 681 3513 340 
Q 3088 0 2303 0 
L 628 0 
L 628 4666 
z
" transform="scale(0.015625)"/>
      <path id="DejaVuSans-3a" d="M 750 794 
L 1409 794 
L 1409 0 
L 750 0 
L 750 794 
z
M 750 3309 
L 1409 3309 
L 1409 2516 
L 750 2516 
L 750 3309 
z
" transform="scale(0.015625)"/>
      <path id="DejaVuSans-47" d="M 3809 666 
L 3809 1919 
L 2778 1919 
L 2778 2438 
L 4434 2438 
L 4434 434 
Q 4069 175 3628 42 
Q 3188 -91 2688 -91 
Q 1594 -91 976 548 
Q 359 1188 359 2328 
Q 359 3472 976 4111 
Q 1594 4750 2688 4750 
Q 3144 4750 3555 4637 
Q 3966 4525 4313 4306 
L 4313 3634 
Q 3963 3931 3569 4081 
Q 3175 4231 2741 4231 
Q 1884 4231 1454 3753 
Q 1025 3275 1025 2328 
Q 1025 1384 1454 906 
Q 1884 428 2741 428 
Q 3075 428 3337 486 
Q 3600 544 3809 666 
z
" transform="scale(0.015625)"/>
      <path id="DejaVuSans-79" d="M 2059 -325 
Q 1816 -950 1584 -1140 
Q 1353 -1331 966 -1331 
L 506 -1331 
L 506 -850 
L 844 -850 
Q 1081 -850 1212 -737 
Q 1344 -625 1503 -206 
L 1606 56 
L 191 3500 
L 800 3500 
L 1894 763 
L 2988 3500 
L 3597 3500 
L 2059 -325 
z
" transform="scale(0.015625)"/>
      <path id="DejaVuSans-2c" d="M 750 794 
L 1409 794 
L 1409 256 
L 897 -744 
L 494 -744 
L 750 256 
L 750 794 
z
" transform="scale(0.015625)"/>
      <path id="DejaVuSans-52" d="M 2841 2188 
Q 3044 2119 3236 1894 
Q 3428 1669 3622 1275 
L 4263 0 
L 3584 0 
L 2988 1197 
Q 2756 1666 2539 1819 
Q 2322 1972 1947 1972 
L 1259 1972 
L 1259 0 
L 628 0 
L 628 4666 
L 2053 4666 
Q 2853 4666 3247 4331 
Q 3641 3997 3641 3322 
Q 3641 2881 3436 2590 
Q 3231 2300 2841 2188 
z
M 1259 4147 
L 1259 2491 
L 2053 2491 
Q 2509 2491 2742 2702 
Q 2975 2913 2975 3322 
Q 2975 3731 2742 3939 
Q 2509 4147 2053 4147 
L 1259 4147 
z
" transform="scale(0.015625)"/>
      <path id="DejaVuSans-7a" d="M 353 3500 
L 3084 3500 
L 3084 2975 
L 922 459 
L 3084 459 
L 3084 0 
L 275 0 
L 275 525 
L 2438 3041 
L 353 3041 
L 353 3500 
z
" transform="scale(0.015625)"/>
      <path id="DejaVuSans-54" d="M -19 4666 
L 3928 4666 
L 3928 4134 
L 2272 4134 
L 2272 0 
L 1638 0 
L 1638 4134 
L -19 4134 
L -19 4666 
z
" transform="scale(0.015625)"/>
      <path id="DejaVuSans-2e" d="M 684 794 
L 1344 794 
L 1344 0 
L 684 0 
L 684 794 
z
" transform="scale(0.015625)"/>
     </defs>
     <use xlink:href="#DejaVuSans-42"/>
     <use xlink:href="#DejaVuSans-61" transform="translate(68.603516 0)"/>
     <use xlink:href="#DejaVuSans-73" transform="translate(129.882812 0)"/>
     <use xlink:href="#DejaVuSans-65" transform="translate(181.982422 0)"/>
     <use xlink:href="#DejaVuSans-20" transform="translate(243.505859 0)"/>
     <use xlink:href="#DejaVuSans-50" transform="translate(275.292969 0)"/>
     <use xlink:href="#DejaVuSans-72" transform="translate(333.845703 0)"/>
     <use xlink:href="#DejaVuSans-6f" transform="translate(372.708984 0)"/>
     <use xlink:href="#DejaVuSans-64" transform="translate(433.890625 0)"/>
     <use xlink:href="#DejaVuSans-75" transform="translate(497.367188 0)"/>
     <use xlink:href="#DejaVuSans-63" transform="translate(560.746094 0)"/>
     <use xlink:href="#DejaVuSans-74" transform="translate(615.726562 0)"/>
     <use xlink:href="#DejaVuSans-3a" transform="translate(654.935547 0)"/>
     <use xlink:href="#DejaVuSans-20" transform="translate(688.626953 0)"/>
     <use xlink:href="#DejaVuSans-47" transform="translate(720.414062 0)"/>
     <use xlink:href="#DejaVuSans-72" transform="translate(797.904297 0)"/>
     <use xlink:href="#DejaVuSans-61" transform="translate(839.017578 0)"/>
     <use xlink:href="#DejaVuSans-6e" transform="translate(900.296875 0)"/>
     <use xlink:href="#DejaVuSans-64" transform="translate(963.675781 0)"/>
     <use xlink:href="#DejaVuSans-61" transform="translate(1027.152344 0)"/>
     <use xlink:href="#DejaVuSans-64" transform="translate(1088.431641 0)"/>
     <use xlink:href="#DejaVuSans-64" transform="translate(1151.908203 0)"/>
     <use xlink:href="#DejaVuSans-79" transform="translate(1215.384766 0)"/>
     <use xlink:href="#DejaVuSans-20" transform="translate(1274.564453 0)"/>
     <use xlink:href="#DejaVuSans-50" transform="translate(1306.351562 0)"/>
     <use xlink:href="#DejaVuSans-75" transform="translate(1364.904297 0)"/>
     <use xlink:href="#DejaVuSans-72" transform="translate(1428.283203 0)"/>
     <use xlink:href="#DejaVuSans-70" transform="translate(1469.396484 0)"/>
     <use xlink:href="#DejaVuSans-6c" transform="translate(1532.873047 0)"/>
     <use xlink:href="#DejaVuSans-65" transform="translate(1560.65625 0)"/>
     <use xlink:href="#DejaVuSans-2c" transform="translate(1622.179688 0)"/>
     <use xlink:href="#DejaVuSans-20" transform="translate(1653.966797 0)"/>
     <use xlink:href="#DejaVuSans-52" transform="translate(1685.753906 0)"/>
     <use xlink:href="#DejaVuSans-65" transform="translate(1750.736328 0)"/>
     <use xlink:href="#DejaVuSans-63" transform="translate(1812.259766 0)"/>
     <use xlink:href="#DejaVuSans-69" transform="translate(1867.240234 0)"/>
     <use xlink:href="#DejaVuSans-70" transform="translate(1895.023438 0)"/>
     <use xlink:href="#DejaVuSans-65" transform="translate(1958.5 0)"/>
     <use xlink:href="#DejaVuSans-20" transform="translate(2020.023438 0)"/>
     <use xlink:href="#DejaVuSans-73" transform="translate(2051.810547 0)"/>
     <use xlink:href="#DejaVuSans-69" transform="translate(2103.910156 0)"/>
     <use xlink:href="#DejaVuSans-7a" transform="translate(2131.693359 0)"/>
     <use xlink:href="#DejaVuSans-65" transform="translate(2184.183594 0)"/>
     <use xlink:href="#DejaVuSans-3a" transform="translate(2245.707031 0)"/>
     <use xlink:href="#DejaVuSans-20" transform="translate(2279.398438 0)"/>
     <use xlink:href="#DejaVuSans-31" transform="translate(2311.185547 0)"/>
     <use xlink:href="#DejaVuSans-30" transform="translate(2374.808594 0)"/>
     <use xlink:href="#DejaVuSans-2c" transform="translate(2438.431641 0)"/>
     <use xlink:href="#DejaVuSans-20" transform="translate(2470.21875 0)"/>
     <use xlink:href="#DejaVuSans-54" transform="translate(2502.005859 0)"/>
     <use xlink:href="#DejaVuSans-30" transform="translate(2563.089844 0)"/>
     <use xlink:href="#DejaVuSans-3a" transform="translate(2626.712891 0)"/>
     <use xlink:href="#DejaVuSans-20" transform="translate(2660.404297 0)"/>
     <use xlink:href="#DejaVuSans-31" transform="translate(2692.191406 0)"/>
     <use xlink:href="#DejaVuSans-30" transform="translate(2755.814453 0)"/>
     <use xlink:href="#DejaVuSans-2e" transform="translate(2819.4375 0)"/>
     <use xlink:href="#DejaVuSans-30" transform="translate(2851.224609 0)"/>
    </g>
   </g>
  </g>
 </g>
 <defs>
  <clipPath id="p5ec9d8e652">
   <rect x="50.87" y="43.44" width="793.996" height="346.6"/>
  </clipPath>
 </defs>
</svg>
