<?xml version="1.0" encoding="utf-8" standalone="no"?>
<!DOCTYPE svg PUBLIC "-//W3C//DTD SVG 1.1//EN"
  "http://www.w3.org/Graphics/SVG/1.1/DTD/svg11.dtd">
<svg xmlns:xlink="http://www.w3.org/1999/xlink" width="864pt" height="432pt" viewBox="0 0 864 432" xmlns="http://www.w3.org/2000/svg" version="1.1">
 <metadata>
  <rdf:RDF xmlns:dc="http://purl.org/dc/elements/1.1/" xmlns:cc="http://creativecommons.org/ns#" xmlns:rdf="http://www.w3.org/1999/02/22-rdf-syntax-ns#">
   <cc:Work>
    <dc:type rdf:resource="http://purl.org/dc/dcmitype/StillImage"/>
    <dc:date>2025-05-24T02:14:34.038690</dc:date>
    <dc:format>image/svg+xml</dc:format>
    <dc:creator>
     <cc:Agent>
      <dc:title>Matplotlib v3.10.3, https://matplotlib.org/</dc:title>
     </cc:Agent>
    </dc:creator>
   </cc:Work>
  </rdf:RDF>
 </metadata>
 <defs>
  <style type="text/css">*{stroke-linejoin: round; stroke-linecap: butt}</style>
 </defs>
 <g id="figure_1">
  <g id="patch_1">
   <path d="M 0 432 
L 864 432 
L 864 0 
L 0 0 
z
" style="fill: #ffffff"/>
  </g>
  <g id="axes_1">
   <g id="patch_2">
    <path d="M 50.87 390.04 
L 844.866 390.04 
L 844.866 43.44 
L 50.87 43.44 
z
" style="fill: #ffffff"/>
   </g>
   <g id="FillBetweenPolyCollection_1">
    <defs>
     <path id="mb1f6855057" d="M 52.193327 -301.995266 
L 52.193327 -57.714545 
L 54.83998 -57.80282 
L 57.486633 -72.361768 
L 60.133287 -85.880722 
L 62.77994 -97.82753 
L 65.426593 -109.132555 
L 68.073247 -118.734881 
L 70.7199 -126.201269 
L 73.366553 -133.367461 
L 76.013207 -139.659838 
L 78.65986 -145.526754 
L 81.306513 -151.064509 
L 83.953167 -155.189306 
L 86.59982 -159.789781 
L 89.246473 -163.53587 
L 91.893127 -166.961302 
L 94.53978 -169.941492 
L 97.186433 -173.092946 
L 99.833087 -175.847755 
L 102.47974 -178.655531 
L 105.126393 -180.881759 
L 107.773047 -183.083667 
L 110.4197 -184.908551 
L 113.066353 -187.085511 
L 115.713007 -189.136852 
L 118.35966 -190.970273 
L 121.006313 -192.576032 
L 123.652967 -194.370319 
L 126.29962 -195.761695 
L 128.946273 -197.293834 
L 131.592927 -198.786838 
L 134.23958 -199.92764 
L 136.886233 -201.523935 
L 139.532887 -202.760695 
L 142.17954 -203.663199 
L 144.826193 -204.766637 
L 147.472847 -205.875104 
L 150.1195 -206.801566 
L 152.766153 -207.810302 
L 155.412807 -208.925483 
L 158.05946 -209.60169 
L 160.706113 -210.576515 
L 163.352767 -211.507836 
L 165.99942 -212.33122 
L 168.646073 -213.560691 
L 171.292727 -214.563949 
L 173.93938 -215.502177 
L 176.586033 -216.10926 
L 179.232687 -217.115609 
L 181.87934 -217.89306 
L 184.525993 -218.589068 
L 187.172647 -219.418378 
L 189.8193 -220.178586 
L 192.465953 -220.931248 
L 195.112607 -221.75216 
L 197.75926 -222.424977 
L 200.405913 -223.035982 
L 203.052567 -223.832446 
L 205.69922 -224.409199 
L 208.345873 -224.949269 
L 210.992527 -225.641142 
L 213.63918 -226.297419 
L 216.285833 -226.887856 
L 218.932487 -227.58169 
L 221.57914 -228.014526 
L 224.225793 -228.439668 
L 226.872447 -228.971041 
L 229.5191 -229.428496 
L 232.165753 -229.971529 
L 234.812407 -230.620623 
L 237.45906 -231.14799 
L 240.105713 -231.801624 
L 242.752367 -232.289985 
L 245.39902 -232.878653 
L 248.045673 -233.462802 
L 250.692327 -233.880355 
L 253.33898 -234.295053 
L 255.985633 -234.663881 
L 258.632287 -235.07261 
L 261.27894 -235.241465 
L 263.925593 -235.613022 
L 266.572247 -236.073418 
L 269.2189 -236.408654 
L 271.865553 -236.914962 
L 274.512207 -237.40117 
L 277.15886 -237.70793 
L 279.805513 -237.977326 
L 282.452167 -238.356769 
L 285.09882 -238.784916 
L 287.745473 -239.210164 
L 290.392127 -239.443602 
L 293.03878 -239.648691 
L 295.685433 -239.980134 
L 298.332087 -240.333637 
L 300.97874 -240.559039 
L 303.625393 -241.017836 
L 306.272047 -241.401606 
L 308.9187 -241.570972 
L 311.565353 -241.841199 
L 314.212007 -242.14246 
L 316.85866 -242.465846 
L 319.505313 -242.650964 
L 322.151967 -242.968829 
L 324.79862 -243.422255 
L 327.445273 -243.695231 
L 330.091927 -243.997771 
L 332.73858 -244.176452 
L 335.385233 -244.518829 
L 338.031887 -244.78848 
L 340.67854 -245.129535 
L 343.325193 -245.463365 
L 345.971847 -245.694927 
L 348.6185 -245.951896 
L 351.265153 -246.287858 
L 353.911807 -246.479476 
L 356.55846 -246.780311 
L 359.205113 -247.01117 
L 361.851767 -247.374776 
L 364.49842 -247.590672 
L 367.145073 -247.742475 
L 369.791727 -248.124262 
L 372.43838 -248.468558 
L 375.085033 -248.691338 
L 377.731687 -248.901245 
L 380.37834 -249.107485 
L 383.024993 -249.458963 
L 385.671647 -249.534694 
L 388.3183 -249.66676 
L 390.964953 -249.968468 
L 393.611607 -250.132207 
L 396.25826 -250.302042 
L 398.904913 -250.564063 
L 401.551567 -250.807519 
L 404.19822 -250.897339 
L 406.844873 -251.028573 
L 409.491527 -251.325485 
L 412.13818 -251.493082 
L 414.784833 -251.715927 
L 417.431487 -251.839253 
L 420.07814 -251.998133 
L 422.724793 -252.226157 
L 425.371447 -252.428347 
L 428.0181 -252.650829 
L 430.664753 -252.878896 
L 433.311407 -253.081022 
L 435.95806 -253.210125 
L 438.604713 -253.395349 
L 441.251367 -253.644176 
L 443.89802 -253.819127 
L 446.544673 -253.931881 
L 449.191327 -254.147756 
L 451.83798 -254.419027 
L 454.484633 -254.583384 
L 457.131287 -254.721162 
L 459.77794 -254.898798 
L 462.424593 -255.015389 
L 465.071247 -255.181707 
L 467.7179 -255.337155 
L 470.364553 -255.519992 
L 473.011207 -255.569463 
L 475.65786 -255.739362 
L 478.304513 -255.926973 
L 480.951167 -256.119508 
L 483.59782 -256.287084 
L 486.244473 -256.448201 
L 488.891127 -256.60885 
L 491.53778 -256.778344 
L 494.184433 -256.905485 
L 496.831087 -257.141993 
L 499.47774 -257.343906 
L 502.124393 -257.392567 
L 504.771047 -257.509798 
L 507.4177 -257.609785 
L 510.064353 -257.778447 
L 512.711007 -257.843372 
L 515.35766 -258.000652 
L 518.004313 -258.154736 
L 520.650967 -258.312528 
L 523.29762 -258.431741 
L 525.944273 -258.677712 
L 528.590927 -258.829259 
L 531.23758 -258.964457 
L 533.884233 -259.173447 
L 536.530887 -259.355197 
L 539.17754 -259.465799 
L 541.824193 -259.533558 
L 544.470847 -259.654817 
L 547.1175 -259.787756 
L 549.764153 -259.901342 
L 552.410807 -260.019681 
L 555.05746 -260.206269 
L 557.704113 -260.278867 
L 560.350767 -260.451515 
L 562.99742 -260.652448 
L 565.644073 -260.78396 
L 568.290727 -260.871136 
L 570.93738 -260.993973 
L 573.584033 -261.125313 
L 576.230687 -261.215517 
L 578.87734 -261.392897 
L 581.523993 -261.474831 
L 584.170647 -261.596367 
L 586.8173 -261.802948 
L 589.463953 -262.002069 
L 592.110607 -262.149183 
L 594.75726 -262.341484 
L 597.403913 -262.364589 
L 600.050567 -262.413143 
L 602.69722 -262.562623 
L 605.343873 -262.660692 
L 607.990527 -262.770121 
L 610.63718 -262.823109 
L 613.283833 -262.940361 
L 615.930487 -263.080419 
L 618.57714 -263.212506 
L 621.223793 -263.308955 
L 623.870447 -263.480474 
L 626.5171 -263.490044 
L 629.163753 -263.643126 
L 631.810407 -263.699332 
L 634.45706 -263.824833 
L 637.103713 -263.933708 
L 639.750367 -264.031265 
L 642.39702 -264.168808 
L 645.043673 -264.233349 
L 647.690327 -264.356867 
L 650.33698 -264.461778 
L 652.983633 -264.583357 
L 655.630287 -264.678846 
L 658.27694 -264.801427 
L 660.923593 -264.854841 
L 663.570247 -264.938501 
L 666.2169 -264.988718 
L 668.863553 -265.100961 
L 671.510207 -265.213417 
L 674.15686 -265.314214 
L 676.803513 -265.3782 
L 679.450167 -265.487736 
L 682.09682 -265.590025 
L 684.743473 -265.66371 
L 687.390127 -265.756855 
L 690.03678 -265.869204 
L 692.683433 -265.969255 
L 695.330087 -265.973284 
L 697.97674 -266.079516 
L 700.623393 -266.179268 
L 703.270047 -266.221556 
L 705.9167 -266.330922 
L 708.563353 -266.476224 
L 711.210007 -266.561482 
L 713.85666 -266.724262 
L 716.503313 -266.773968 
L 719.149967 -266.875596 
L 721.79662 -266.998006 
L 724.443273 -267.027846 
L 727.089927 -267.120096 
L 729.73658 -267.218271 
L 732.383233 -267.312503 
L 735.029887 -267.398145 
L 737.67654 -267.455631 
L 740.323193 -267.541103 
L 742.969847 -267.642262 
L 745.6165 -267.755123 
L 748.263153 -267.898229 
L 750.909807 -268.047005 
L 753.55646 -268.146161 
L 756.203113 -268.227519 
L 758.849767 -268.389915 
L 761.49642 -268.432267 
L 764.143073 -268.495806 
L 766.789727 -268.550052 
L 769.43638 -268.674998 
L 772.083033 -268.775454 
L 774.729687 -268.935826 
L 777.37634 -269.0155 
L 780.022993 -269.102314 
L 782.669647 -269.154322 
L 785.3163 -269.204646 
L 787.962953 -269.231566 
L 790.609607 -269.291801 
L 793.25626 -269.370132 
L 795.902913 -269.456478 
L 798.549567 -269.514923 
L 801.19622 -269.585687 
L 803.842873 -269.610881 
L 806.489527 -269.740154 
L 809.13618 -269.850415 
L 811.782833 -269.875971 
L 814.429487 -269.921329 
L 817.07614 -269.983738 
L 819.722793 -270.08121 
L 822.369447 -270.150504 
L 825.0161 -270.19341 
L 827.662753 -270.276239 
L 830.309407 -270.354847 
L 832.95606 -270.395814 
L 835.602713 -270.433541 
L 838.249367 -270.527943 
L 840.89602 -270.530927 
L 843.542673 -270.601372 
L 843.542673 -372.805455 
L 843.542673 -372.805455 
L 840.89602 -372.791856 
L 838.249367 -372.717596 
L 835.602713 -372.698327 
L 832.95606 -372.65638 
L 830.309407 -372.580884 
L 827.662753 -372.540301 
L 825.0161 -372.510119 
L 822.369447 -372.446985 
L 819.722793 -372.417315 
L 817.07614 -372.403802 
L 814.429487 -372.391141 
L 811.782833 -372.346593 
L 809.13618 -372.263892 
L 806.489527 -372.25089 
L 803.842873 -372.300895 
L 801.19622 -372.253704 
L 798.549567 -372.228382 
L 795.902913 -372.191295 
L 793.25626 -372.157319 
L 790.609607 -372.139799 
L 787.962953 -372.098406 
L 785.3163 -372.044522 
L 782.669647 -371.967662 
L 780.022993 -371.905551 
L 777.37634 -371.868677 
L 774.729687 -371.857465 
L 772.083033 -371.875369 
L 769.43638 -371.840541 
L 766.789727 -371.772718 
L 764.143073 -371.737208 
L 761.49642 -371.688866 
L 758.849767 -371.595977 
L 756.203113 -371.612816 
L 753.55646 -371.556119 
L 750.909807 -371.5302 
L 748.263153 -371.566094 
L 745.6165 -371.570954 
L 742.969847 -371.534634 
L 740.323193 -371.533184 
L 737.67654 -371.49631 
L 735.029887 -371.422519 
L 732.383233 -371.391314 
L 729.73658 -371.346809 
L 727.089927 -371.301878 
L 724.443273 -371.247312 
L 721.79662 -371.152377 
L 719.149967 -371.163333 
L 716.503313 -371.130593 
L 713.85666 -371.045335 
L 711.210007 -371.051175 
L 708.563353 -370.992858 
L 705.9167 -370.965874 
L 703.270047 -370.968304 
L 700.623393 -370.880104 
L 697.97674 -370.831293 
L 695.330087 -370.811045 
L 692.683433 -370.710269 
L 690.03678 -370.643938 
L 687.390127 -370.612605 
L 684.743473 -370.596449 
L 682.09682 -370.52773 
L 679.450167 -370.489961 
L 676.803513 -370.446905 
L 674.15686 -370.404788 
L 671.510207 -370.325369 
L 668.863553 -370.302264 
L 666.2169 -370.262619 
L 663.570247 -370.214064 
L 660.923593 -370.146454 
L 658.27694 -370.075008 
L 655.630287 -370.07505 
L 652.983633 -370.003604 
L 650.33698 -369.954196 
L 647.690327 -369.905471 
L 645.043673 -369.884284 
L 642.39702 -369.779203 
L 639.750367 -369.736105 
L 637.103713 -369.6783 
L 634.45706 -369.654299 
L 631.810407 -369.615294 
L 629.163753 -369.557446 
L 626.5171 -369.573432 
L 623.870447 -369.460805 
L 621.223793 -369.471164 
L 618.57714 -369.43753 
L 615.930487 -369.378616 
L 613.283833 -369.385309 
L 610.63718 -369.322345 
L 607.990527 -369.210486 
L 605.343873 -369.161633 
L 602.69722 -369.102464 
L 600.050567 -369.064097 
L 597.403913 -368.978967 
L 594.75726 -368.814503 
L 592.110607 -368.769998 
L 589.463953 -368.698807 
L 586.8173 -368.692455 
L 584.170647 -368.692754 
L 581.523993 -368.623226 
L 578.87734 -368.515715 
L 576.230687 -368.467842 
L 573.584033 -368.374313 
L 570.93738 -368.32691 
L 568.290727 -368.291144 
L 565.644073 -368.199405 
L 562.99742 -368.134097 
L 560.350767 -368.159291 
L 557.704113 -368.143817 
L 555.05746 -368.085671 
L 552.410807 -368.112271 
L 549.764153 -368.059283 
L 547.1175 -367.976497 
L 544.470847 -367.923765 
L 541.824193 -367.864979 
L 539.17754 -367.752011 
L 536.530887 -367.675407 
L 533.884233 -367.656053 
L 531.23758 -367.628173 
L 528.590927 -367.545004 
L 525.944273 -367.493294 
L 523.29762 -367.522069 
L 520.650967 -367.458978 
L 518.004313 -367.39367 
L 515.35766 -367.251927 
L 512.711007 -367.148892 
L 510.064353 -366.980507 
L 507.4177 -366.952457 
L 504.771047 -366.889962 
L 502.124393 -366.832882 
L 499.47774 -366.654691 
L 496.831087 -366.582819 
L 494.184433 -366.57847 
L 491.53778 -366.502846 
L 488.891127 -366.417758 
L 486.244473 -366.370866 
L 483.59782 -366.241827 
L 480.951167 -366.155759 
L 478.304513 -366.095438 
L 475.65786 -366.037761 
L 473.011207 -365.954612 
L 470.364553 -365.821332 
L 467.7179 -365.7018 
L 465.071247 -365.586338 
L 462.424593 -365.498415 
L 459.77794 -365.414606 
L 457.131287 -365.330541 
L 454.484633 -365.21638 
L 451.83798 -365.180721 
L 449.191327 -365.134148 
L 446.544673 -365.090539 
L 443.89802 -364.952207 
L 441.251367 -364.851815 
L 438.604713 -364.839921 
L 435.95806 -364.739657 
L 433.311407 -364.612686 
L 430.664753 -364.533971 
L 428.0181 -364.44364 
L 425.371447 -364.36209 
L 422.724793 -364.275808 
L 420.07814 -364.188546 
L 417.431487 -364.039557 
L 414.784833 -363.912223 
L 412.13818 -363.825366 
L 409.491527 -363.724015 
L 406.844873 -363.728193 
L 404.19822 -363.545079 
L 401.551567 -363.427251 
L 398.904913 -363.383727 
L 396.25826 -363.366782 
L 393.611607 -363.23851 
L 390.964953 -363.081549 
L 388.3183 -362.998827 
L 385.671647 -362.814797 
L 383.024993 -362.585174 
L 380.37834 -362.59029 
L 377.731687 -362.465599 
L 375.085033 -362.31337 
L 372.43838 -362.237021 
L 369.791727 -362.2075 
L 367.145073 -362.220715 
L 364.49842 -362.05655 
L 361.851767 -361.931881 
L 359.205113 -361.930282 
L 356.55846 -361.768696 
L 353.911807 -361.712468 
L 351.265153 -361.563138 
L 348.6185 -361.528864 
L 345.971847 -361.42033 
L 343.325193 -361.279141 
L 340.67854 -361.181734 
L 338.031887 -361.121179 
L 335.385233 -361.039608 
L 332.73858 -360.905006 
L 330.091927 -360.697934 
L 327.445273 -360.620903 
L 324.79862 -360.520703 
L 322.151967 -360.539609 
L 319.505313 -360.383394 
L 316.85866 -360.096307 
L 314.212007 -359.930011 
L 311.565353 -359.850805 
L 308.9187 -359.692907 
L 306.272047 -359.464414 
L 303.625393 -359.320263 
L 300.97874 -359.235111 
L 298.332087 -358.985069 
L 295.685433 -358.876258 
L 293.03878 -358.683957 
L 290.392127 -358.476822 
L 287.745473 -358.270155 
L 285.09882 -358.221408 
L 282.452167 -358.108121 
L 279.805513 -357.889135 
L 277.15886 -357.698433 
L 274.512207 -357.429613 
L 271.865553 -357.273994 
L 269.2189 -357.265767 
L 266.572247 -357.025636 
L 263.925593 -356.901287 
L 261.27894 -356.702507 
L 258.632287 -356.35819 
L 255.985633 -356.178167 
L 253.33898 -355.907044 
L 250.692327 -355.659326 
L 248.045673 -355.467409 
L 245.39902 -355.33091 
L 242.752367 -355.255755 
L 240.105713 -355.0548 
L 237.45906 -354.960675 
L 234.812407 -354.781888 
L 232.165753 -354.675421 
L 229.5191 -354.466005 
L 226.872447 -354.215046 
L 224.225793 -353.972188 
L 221.57914 -353.635587 
L 218.932487 -353.229181 
L 216.285833 -353.092682 
L 213.63918 -352.878022 
L 210.992527 -352.754909 
L 208.345873 -352.640151 
L 205.69922 -352.27874 
L 203.052567 -351.809882 
L 200.405913 -351.665518 
L 197.75926 -351.349848 
L 195.112607 -351.024374 
L 192.465953 -350.745749 
L 189.8193 -350.432936 
L 187.172647 -350.160535 
L 184.525993 -349.830925 
L 181.87934 -349.505152 
L 179.232687 -349.190527 
L 176.586033 -348.973843 
L 173.93938 -348.36791 
L 171.292727 -348.078117 
L 168.646073 -347.88524 
L 165.99942 -347.746184 
L 163.352767 -347.260551 
L 160.706113 -346.810514 
L 158.05946 -346.420435 
L 155.412807 -345.671631 
L 152.766153 -345.356259 
L 150.1195 -344.901192 
L 147.472847 -344.381115 
L 144.826193 -343.867326 
L 142.17954 -343.359079 
L 139.532887 -342.558117 
L 136.886233 -342.075256 
L 134.23958 -341.801832 
L 131.592927 -341.151224 
L 128.946273 -340.435521 
L 126.29962 -339.939359 
L 123.652967 -339.131449 
L 121.006313 -338.635096 
L 118.35966 -337.873737 
L 115.713007 -337.15375 
L 113.066353 -336.619499 
L 110.4197 -335.898318 
L 107.773047 -334.960219 
L 105.126393 -334.051683 
L 102.47974 -333.315774 
L 99.833087 -332.697735 
L 97.186433 -331.886649 
L 94.53978 -330.930133 
L 91.893127 -329.82222 
L 89.246473 -329.063931 
L 86.59982 -328.14105 
L 83.953167 -327.557349 
L 81.306513 -326.291409 
L 78.65986 -325.287277 
L 76.013207 -324.028285 
L 73.366553 -322.617768 
L 70.7199 -321.168118 
L 68.073247 -319.167228 
L 65.426593 -317.385709 
L 62.77994 -315.77121 
L 60.133287 -312.496473 
L 57.486633 -308.62644 
L 54.83998 -303.00251 
L 52.193327 -301.995266 
z
" style="stroke: #0000ff; stroke-opacity: 0.2"/>
    </defs>
    <g clip-path="url(#pa3dcb88c74)">
     <use xlink:href="#mb1f6855057" x="0" y="432" style="fill: #0000ff; fill-opacity: 0.2; stroke: #0000ff; stroke-opacity: 0.2"/>
    </g>
   </g>
   <g id="matplotlib.axis_1">
    <g id="xtick_1">
     <g id="line2d_1">
      <defs>
       <path id="ma547bf1d5f" d="M 0 0 
L 0 3.5 
" style="stroke: #000000; stroke-width: 0.8"/>
      </defs>
      <g>
       <use xlink:href="#ma547bf1d5f" x="181.87934" y="390.04" style="stroke: #000000; stroke-width: 0.8"/>
      </g>
     </g>
     <g id="text_1">
      <!-- 50 -->
      <g transform="translate(175.51684 404.638438) scale(0.1 -0.1)">
       <defs>
        <path id="DejaVuSans-35" d="M 691 4666 
L 3169 4666 
L 3169 4134 
L 1269 4134 
L 1269 2991 
Q 1406 3038 1543 3061 
Q 1681 3084 1819 3084 
Q 2600 3084 3056 2656 
Q 3513 2228 3513 1497 
Q 3513 744 3044 326 
Q 2575 -91 1722 -91 
Q 1428 -91 1123 -41 
Q 819 9 494 109 
L 494 744 
Q 775 591 1075 516 
Q 1375 441 1709 441 
Q 2250 441 2565 725 
Q 2881 1009 2881 1497 
Q 2881 1984 2565 2268 
Q 2250 2553 1709 2553 
Q 1456 2553 1204 2497 
Q 953 2441 691 2322 
L 691 4666 
z
" transform="scale(0.015625)"/>
        <path id="DejaVuSans-30" d="M 2034 4250 
Q 1547 4250 1301 3770 
Q 1056 3291 1056 2328 
Q 1056 1369 1301 889 
Q 1547 409 2034 409 
Q 2525 409 2770 889 
Q 3016 1369 3016 2328 
Q 3016 3291 2770 3770 
Q 2525 4250 2034 4250 
z
M 2034 4750 
Q 2819 4750 3233 4129 
Q 3647 3509 3647 2328 
Q 3647 1150 3233 529 
Q 2819 -91 2034 -91 
Q 1250 -91 836 529 
Q 422 1150 422 2328 
Q 422 3509 836 4129 
Q 1250 4750 2034 4750 
z
" transform="scale(0.015625)"/>
       </defs>
       <use xlink:href="#DejaVuSans-35"/>
       <use xlink:href="#DejaVuSans-30" transform="translate(63.623047 0)"/>
      </g>
     </g>
    </g>
    <g id="xtick_2">
     <g id="line2d_2">
      <g>
       <use xlink:href="#ma547bf1d5f" x="314.212007" y="390.04" style="stroke: #000000; stroke-width: 0.8"/>
      </g>
     </g>
     <g id="text_2">
      <!-- 100 -->
      <g transform="translate(304.668257 404.638438) scale(0.1 -0.1)">
       <defs>
        <path id="DejaVuSans-31" d="M 794 531 
L 1825 531 
L 1825 4091 
L 703 3866 
L 703 4441 
L 1819 4666 
L 2450 4666 
L 2450 531 
L 3481 531 
L 3481 0 
L 794 0 
L 794 531 
z
" transform="scale(0.015625)"/>
       </defs>
       <use xlink:href="#DejaVuSans-31"/>
       <use xlink:href="#DejaVuSans-30" transform="translate(63.623047 0)"/>
       <use xlink:href="#DejaVuSans-30" transform="translate(127.246094 0)"/>
      </g>
     </g>
    </g>
    <g id="xtick_3">
     <g id="line2d_3">
      <g>
       <use xlink:href="#ma547bf1d5f" x="446.544673" y="390.04" style="stroke: #000000; stroke-width: 0.8"/>
      </g>
     </g>
     <g id="text_3">
      <!-- 150 -->
      <g transform="translate(437.000923 404.638438) scale(0.1 -0.1)">
       <use xlink:href="#DejaVuSans-31"/>
       <use xlink:href="#DejaVuSans-35" transform="translate(63.623047 0)"/>
       <use xlink:href="#DejaVuSans-30" transform="translate(127.246094 0)"/>
      </g>
     </g>
    </g>
    <g id="xtick_4">
     <g id="line2d_4">
      <g>
       <use xlink:href="#ma547bf1d5f" x="578.87734" y="390.04" style="stroke: #000000; stroke-width: 0.8"/>
      </g>
     </g>
     <g id="text_4">
      <!-- 200 -->
      <g transform="translate(569.33359 404.638438) scale(0.1 -0.1)">
       <defs>
        <path id="DejaVuSans-32" d="M 1228 531 
L 3431 531 
L 3431 0 
L 469 0 
L 469 531 
Q 828 903 1448 1529 
Q 2069 2156 2228 2338 
Q 2531 2678 2651 2914 
Q 2772 3150 2772 3378 
Q 2772 3750 2511 3984 
Q 2250 4219 1831 4219 
Q 1534 4219 1204 4116 
Q 875 4013 500 3803 
L 500 4441 
Q 881 4594 1212 4672 
Q 1544 4750 1819 4750 
Q 2544 4750 2975 4387 
Q 3406 4025 3406 3419 
Q 3406 3131 3298 2873 
Q 3191 2616 2906 2266 
Q 2828 2175 2409 1742 
Q 1991 1309 1228 531 
z
" transform="scale(0.015625)"/>
       </defs>
       <use xlink:href="#DejaVuSans-32"/>
       <use xlink:href="#DejaVuSans-30" transform="translate(63.623047 0)"/>
       <use xlink:href="#DejaVuSans-30" transform="translate(127.246094 0)"/>
      </g>
     </g>
    </g>
    <g id="xtick_5">
     <g id="line2d_5">
      <g>
       <use xlink:href="#ma547bf1d5f" x="711.210007" y="390.04" style="stroke: #000000; stroke-width: 0.8"/>
      </g>
     </g>
     <g id="text_5">
      <!-- 250 -->
      <g transform="translate(701.666257 404.638438) scale(0.1 -0.1)">
       <use xlink:href="#DejaVuSans-32"/>
       <use xlink:href="#DejaVuSans-35" transform="translate(63.623047 0)"/>
       <use xlink:href="#DejaVuSans-30" transform="translate(127.246094 0)"/>
      </g>
     </g>
    </g>
    <g id="xtick_6">
     <g id="line2d_6">
      <g>
       <use xlink:href="#ma547bf1d5f" x="843.542673" y="390.04" style="stroke: #000000; stroke-width: 0.8"/>
      </g>
     </g>
     <g id="text_6">
      <!-- 300 -->
      <g transform="translate(833.998923 404.638438) scale(0.1 -0.1)">
       <defs>
        <path id="DejaVuSans-33" d="M 2597 2516 
Q 3050 2419 3304 2112 
Q 3559 1806 3559 1356 
Q 3559 666 3084 287 
Q 2609 -91 1734 -91 
Q 1441 -91 1130 -33 
Q 819 25 488 141 
L 488 750 
Q 750 597 1062 519 
Q 1375 441 1716 441 
Q 2309 441 2620 675 
Q 2931 909 2931 1356 
Q 2931 1769 2642 2001 
Q 2353 2234 1838 2234 
L 1294 2234 
L 1294 2753 
L 1863 2753 
Q 2328 2753 2575 2939 
Q 2822 3125 2822 3475 
Q 2822 3834 2567 4026 
Q 2313 4219 1838 4219 
Q 1578 4219 1281 4162 
Q 984 4106 628 3988 
L 628 4550 
Q 988 4650 1302 4700 
Q 1616 4750 1894 4750 
Q 2613 4750 3031 4423 
Q 3450 4097 3450 3541 
Q 3450 3153 3228 2886 
Q 3006 2619 2597 2516 
z
" transform="scale(0.015625)"/>
       </defs>
       <use xlink:href="#DejaVuSans-33"/>
       <use xlink:href="#DejaVuSans-30" transform="translate(63.623047 0)"/>
       <use xlink:href="#DejaVuSans-30" transform="translate(127.246094 0)"/>
      </g>
     </g>
    </g>
    <g id="text_7">
     <!-- Step -->
     <g transform="translate(436.482844 418.316562) scale(0.1 -0.1)">
      <defs>
       <path id="DejaVuSans-53" d="M 3425 4513 
L 3425 3897 
Q 3066 4069 2747 4153 
Q 2428 4238 2131 4238 
Q 1616 4238 1336 4038 
Q 1056 3838 1056 3469 
Q 1056 3159 1242 3001 
Q 1428 2844 1947 2747 
L 2328 2669 
Q 3034 2534 3370 2195 
Q 3706 1856 3706 1288 
Q 3706 609 3251 259 
Q 2797 -91 1919 -91 
Q 1588 -91 1214 -16 
Q 841 59 441 206 
L 441 856 
Q 825 641 1194 531 
Q 1563 422 1919 422 
Q 2459 422 2753 634 
Q 3047 847 3047 1241 
Q 3047 1584 2836 1778 
Q 2625 1972 2144 2069 
L 1759 2144 
Q 1053 2284 737 2584 
Q 422 2884 422 3419 
Q 422 4038 858 4394 
Q 1294 4750 2059 4750 
Q 2388 4750 2728 4690 
Q 3069 4631 3425 4513 
z
" transform="scale(0.015625)"/>
       <path id="DejaVuSans-74" d="M 1172 4494 
L 1172 3500 
L 2356 3500 
L 2356 3053 
L 1172 3053 
L 1172 1153 
Q 1172 725 1289 603 
Q 1406 481 1766 481 
L 2356 481 
L 2356 0 
L 1766 0 
Q 1100 0 847 248 
Q 594 497 594 1153 
L 594 3053 
L 172 3053 
L 172 3500 
L 594 3500 
L 594 4494 
L 1172 4494 
z
" transform="scale(0.015625)"/>
       <path id="DejaVuSans-65" d="M 3597 1894 
L 3597 1613 
L 953 1613 
Q 991 1019 1311 708 
Q 1631 397 2203 397 
Q 2534 397 2845 478 
Q 3156 559 3463 722 
L 3463 178 
Q 3153 47 2828 -22 
Q 2503 -91 2169 -91 
Q 1331 -91 842 396 
Q 353 884 353 1716 
Q 353 2575 817 3079 
Q 1281 3584 2069 3584 
Q 2775 3584 3186 3129 
Q 3597 2675 3597 1894 
z
M 3022 2063 
Q 3016 2534 2758 2815 
Q 2500 3097 2075 3097 
Q 1594 3097 1305 2825 
Q 1016 2553 972 2059 
L 3022 2063 
z
" transform="scale(0.015625)"/>
       <path id="DejaVuSans-70" d="M 1159 525 
L 1159 -1331 
L 581 -1331 
L 581 3500 
L 1159 3500 
L 1159 2969 
Q 1341 3281 1617 3432 
Q 1894 3584 2278 3584 
Q 2916 3584 3314 3078 
Q 3713 2572 3713 1747 
Q 3713 922 3314 415 
Q 2916 -91 2278 -91 
Q 1894 -91 1617 61 
Q 1341 213 1159 525 
z
M 3116 1747 
Q 3116 2381 2855 2742 
Q 2594 3103 2138 3103 
Q 1681 3103 1420 2742 
Q 1159 2381 1159 1747 
Q 1159 1113 1420 752 
Q 1681 391 2138 391 
Q 2594 391 2855 752 
Q 3116 1113 3116 1747 
z
" transform="scale(0.015625)"/>
      </defs>
      <use xlink:href="#DejaVuSans-53"/>
      <use xlink:href="#DejaVuSans-74" transform="translate(63.476562 0)"/>
      <use xlink:href="#DejaVuSans-65" transform="translate(102.685547 0)"/>
      <use xlink:href="#DejaVuSans-70" transform="translate(164.208984 0)"/>
     </g>
    </g>
   </g>
   <g id="matplotlib.axis_2">
    <g id="ytick_1">
     <g id="line2d_7">
      <defs>
       <path id="mbf4f217f59" d="M 0 0 
L -3.5 0 
" style="stroke: #000000; stroke-width: 0.8"/>
      </defs>
      <g>
       <use xlink:href="#mbf4f217f59" x="50.87" y="367.631282" style="stroke: #000000; stroke-width: 0.8"/>
      </g>
     </g>
     <g id="text_8">
      <!-- 20 -->
      <g transform="translate(31.145 371.430501) scale(0.1 -0.1)">
       <use xlink:href="#DejaVuSans-32"/>
       <use xlink:href="#DejaVuSans-30" transform="translate(63.623047 0)"/>
      </g>
     </g>
    </g>
    <g id="ytick_2">
     <g id="line2d_8">
      <g>
       <use xlink:href="#mbf4f217f59" x="50.87" y="311.756256" style="stroke: #000000; stroke-width: 0.8"/>
      </g>
     </g>
     <g id="text_9">
      <!-- 40 -->
      <g transform="translate(31.145 315.555475) scale(0.1 -0.1)">
       <defs>
        <path id="DejaVuSans-34" d="M 2419 4116 
L 825 1625 
L 2419 1625 
L 2419 4116 
z
M 2253 4666 
L 3047 4666 
L 3047 1625 
L 3713 1625 
L 3713 1100 
L 3047 1100 
L 3047 0 
L 2419 0 
L 2419 1100 
L 313 1100 
L 313 1709 
L 2253 4666 
z
" transform="scale(0.015625)"/>
       </defs>
       <use xlink:href="#DejaVuSans-34"/>
       <use xlink:href="#DejaVuSans-30" transform="translate(63.623047 0)"/>
      </g>
     </g>
    </g>
    <g id="ytick_3">
     <g id="line2d_9">
      <g>
       <use xlink:href="#mbf4f217f59" x="50.87" y="255.881229" style="stroke: #000000; stroke-width: 0.8"/>
      </g>
     </g>
     <g id="text_10">
      <!-- 60 -->
      <g transform="translate(31.145 259.680448) scale(0.1 -0.1)">
       <defs>
        <path id="DejaVuSans-36" d="M 2113 2584 
Q 1688 2584 1439 2293 
Q 1191 2003 1191 1497 
Q 1191 994 1439 701 
Q 1688 409 2113 409 
Q 2538 409 2786 701 
Q 3034 994 3034 1497 
Q 3034 2003 2786 2293 
Q 2538 2584 2113 2584 
z
M 3366 4563 
L 3366 3988 
Q 3128 4100 2886 4159 
Q 2644 4219 2406 4219 
Q 1781 4219 1451 3797 
Q 1122 3375 1075 2522 
Q 1259 2794 1537 2939 
Q 1816 3084 2150 3084 
Q 2853 3084 3261 2657 
Q 3669 2231 3669 1497 
Q 3669 778 3244 343 
Q 2819 -91 2113 -91 
Q 1303 -91 875 529 
Q 447 1150 447 2328 
Q 447 3434 972 4092 
Q 1497 4750 2381 4750 
Q 2619 4750 2861 4703 
Q 3103 4656 3366 4563 
z
" transform="scale(0.015625)"/>
       </defs>
       <use xlink:href="#DejaVuSans-36"/>
       <use xlink:href="#DejaVuSans-30" transform="translate(63.623047 0)"/>
      </g>
     </g>
    </g>
    <g id="ytick_4">
     <g id="line2d_10">
      <g>
       <use xlink:href="#mbf4f217f59" x="50.87" y="200.006203" style="stroke: #000000; stroke-width: 0.8"/>
      </g>
     </g>
     <g id="text_11">
      <!-- 80 -->
      <g transform="translate(31.145 203.805422) scale(0.1 -0.1)">
       <defs>
        <path id="DejaVuSans-38" d="M 2034 2216 
Q 1584 2216 1326 1975 
Q 1069 1734 1069 1313 
Q 1069 891 1326 650 
Q 1584 409 2034 409 
Q 2484 409 2743 651 
Q 3003 894 3003 1313 
Q 3003 1734 2745 1975 
Q 2488 2216 2034 2216 
z
M 1403 2484 
Q 997 2584 770 2862 
Q 544 3141 544 3541 
Q 544 4100 942 4425 
Q 1341 4750 2034 4750 
Q 2731 4750 3128 4425 
Q 3525 4100 3525 3541 
Q 3525 3141 3298 2862 
Q 3072 2584 2669 2484 
Q 3125 2378 3379 2068 
Q 3634 1759 3634 1313 
Q 3634 634 3220 271 
Q 2806 -91 2034 -91 
Q 1263 -91 848 271 
Q 434 634 434 1313 
Q 434 1759 690 2068 
Q 947 2378 1403 2484 
z
M 1172 3481 
Q 1172 3119 1398 2916 
Q 1625 2713 2034 2713 
Q 2441 2713 2670 2916 
Q 2900 3119 2900 3481 
Q 2900 3844 2670 4047 
Q 2441 4250 2034 4250 
Q 1625 4250 1398 4047 
Q 1172 3844 1172 3481 
z
" transform="scale(0.015625)"/>
       </defs>
       <use xlink:href="#DejaVuSans-38"/>
       <use xlink:href="#DejaVuSans-30" transform="translate(63.623047 0)"/>
      </g>
     </g>
    </g>
    <g id="ytick_5">
     <g id="line2d_11">
      <g>
       <use xlink:href="#mbf4f217f59" x="50.87" y="144.131176" style="stroke: #000000; stroke-width: 0.8"/>
      </g>
     </g>
     <g id="text_12">
      <!-- 100 -->
      <g transform="translate(24.7825 147.930395) scale(0.1 -0.1)">
       <use xlink:href="#DejaVuSans-31"/>
       <use xlink:href="#DejaVuSans-30" transform="translate(63.623047 0)"/>
       <use xlink:href="#DejaVuSans-30" transform="translate(127.246094 0)"/>
      </g>
     </g>
    </g>
    <g id="ytick_6">
     <g id="line2d_12">
      <g>
       <use xlink:href="#mbf4f217f59" x="50.87" y="88.25615" style="stroke: #000000; stroke-width: 0.8"/>
      </g>
     </g>
     <g id="text_13">
      <!-- 120 -->
      <g transform="translate(24.7825 92.055368) scale(0.1 -0.1)">
       <use xlink:href="#DejaVuSans-31"/>
       <use xlink:href="#DejaVuSans-32" transform="translate(63.623047 0)"/>
       <use xlink:href="#DejaVuSans-30" transform="translate(127.246094 0)"/>
      </g>
     </g>
    </g>
    <g id="text_14">
     <!-- Profit -->
     <g transform="translate(18.702813 229.779063) rotate(-90) scale(0.1 -0.1)">
      <defs>
       <path id="DejaVuSans-50" d="M 1259 4147 
L 1259 2394 
L 2053 2394 
Q 2494 2394 2734 2622 
Q 2975 2850 2975 3272 
Q 2975 3691 2734 3919 
Q 2494 4147 2053 4147 
L 1259 4147 
z
M 628 4666 
L 2053 4666 
Q 2838 4666 3239 4311 
Q 3641 3956 3641 3272 
Q 3641 2581 3239 2228 
Q 2838 1875 2053 1875 
L 1259 1875 
L 1259 0 
L 628 0 
L 628 4666 
z
" transform="scale(0.015625)"/>
       <path id="DejaVuSans-72" d="M 2631 2963 
Q 2534 3019 2420 3045 
Q 2306 3072 2169 3072 
Q 1681 3072 1420 2755 
Q 1159 2438 1159 1844 
L 1159 0 
L 581 0 
L 581 3500 
L 1159 3500 
L 1159 2956 
Q 1341 3275 1631 3429 
Q 1922 3584 2338 3584 
Q 2397 3584 2469 3576 
Q 2541 3569 2628 3553 
L 2631 2963 
z
" transform="scale(0.015625)"/>
       <path id="DejaVuSans-6f" d="M 1959 3097 
Q 1497 3097 1228 2736 
Q 959 2375 959 1747 
Q 959 1119 1226 758 
Q 1494 397 1959 397 
Q 2419 397 2687 759 
Q 2956 1122 2956 1747 
Q 2956 2369 2687 2733 
Q 2419 3097 1959 3097 
z
M 1959 3584 
Q 2709 3584 3137 3096 
Q 3566 2609 3566 1747 
Q 3566 888 3137 398 
Q 2709 -91 1959 -91 
Q 1206 -91 779 398 
Q 353 888 353 1747 
Q 353 2609 779 3096 
Q 1206 3584 1959 3584 
z
" transform="scale(0.015625)"/>
       <path id="DejaVuSans-66" d="M 2375 4863 
L 2375 4384 
L 1825 4384 
Q 1516 4384 1395 4259 
Q 1275 4134 1275 3809 
L 1275 3500 
L 2222 3500 
L 2222 3053 
L 1275 3053 
L 1275 0 
L 697 0 
L 697 3053 
L 147 3053 
L 147 3500 
L 697 3500 
L 697 3744 
Q 697 4328 969 4595 
Q 1241 4863 1831 4863 
L 2375 4863 
z
" transform="scale(0.015625)"/>
       <path id="DejaVuSans-69" d="M 603 3500 
L 1178 3500 
L 1178 0 
L 603 0 
L 603 3500 
z
M 603 4863 
L 1178 4863 
L 1178 4134 
L 603 4134 
L 603 4863 
z
" transform="scale(0.015625)"/>
      </defs>
      <use xlink:href="#DejaVuSans-50"/>
      <use xlink:href="#DejaVuSans-72" transform="translate(58.552734 0)"/>
      <use xlink:href="#DejaVuSans-6f" transform="translate(97.416016 0)"/>
      <use xlink:href="#DejaVuSans-66" transform="translate(158.597656 0)"/>
      <use xlink:href="#DejaVuSans-69" transform="translate(193.802734 0)"/>
      <use xlink:href="#DejaVuSans-74" transform="translate(221.585938 0)"/>
     </g>
    </g>
   </g>
   <g id="line2d_13">
    <path d="M 52.193327 252.145094 
L 54.83998 251.59734 
L 57.486633 241.505896 
L 60.133287 232.811402 
L 62.77994 225.20063 
L 65.426593 218.740868 
L 68.073247 213.048945 
L 70.7199 208.315307 
L 73.366553 204.007385 
L 76.013207 200.155938 
L 78.65986 196.592984 
L 81.306513 193.322041 
L 86.59982 188.034585 
L 89.246473 185.7001 
L 97.186433 179.510203 
L 102.47974 176.014348 
L 113.066353 170.147495 
L 118.35966 167.577995 
L 123.652967 165.249116 
L 131.592927 162.030969 
L 142.17954 158.488861 
L 150.1195 156.148621 
L 160.706113 153.306486 
L 168.646073 151.277034 
L 184.525993 147.790003 
L 192.465953 146.161501 
L 197.75926 145.112587 
L 213.63918 142.412279 
L 234.812407 139.298744 
L 255.985633 136.578976 
L 277.15886 134.296819 
L 285.09882 133.496838 
L 324.79862 130.028521 
L 385.671647 125.825255 
L 414.784833 124.185925 
L 428.0181 123.452766 
L 441.251367 122.752004 
L 470.364553 121.329338 
L 480.951167 120.862377 
L 504.771047 119.80012 
L 515.35766 119.373721 
L 523.29762 119.023095 
L 552.410807 117.934024 
L 581.523993 116.950972 
L 623.870447 115.52935 
L 647.690327 114.868831 
L 692.683433 113.660227 
L 711.210007 113.193671 
L 735.029887 112.589657 
L 795.902913 111.176114 
L 843.542673 110.296587 
L 843.542673 110.296587 
" clip-path="url(#pa3dcb88c74)" style="fill: none; stroke: #0000ff; stroke-width: 1.5; stroke-linecap: square"/>
   </g>
   <g id="patch_3">
    <path d="M 50.87 390.04 
L 50.87 43.44 
" style="fill: none; stroke: #000000; stroke-width: 0.8; stroke-linejoin: miter; stroke-linecap: square"/>
   </g>
   <g id="patch_4">
    <path d="M 844.866 390.04 
L 844.866 43.44 
" style="fill: none; stroke: #000000; stroke-width: 0.8; stroke-linejoin: miter; stroke-linecap: square"/>
   </g>
   <g id="patch_5">
    <path d="M 50.87 390.04 
L 844.866 390.04 
" style="fill: none; stroke: #000000; stroke-width: 0.8; stroke-linejoin: miter; stroke-linecap: square"/>
   </g>
   <g id="patch_6">
    <path d="M 50.87 43.44 
L 844.866 43.44 
" style="fill: none; stroke: #000000; stroke-width: 0.8; stroke-linejoin: miter; stroke-linecap: square"/>
   </g>
   <g id="text_15">
    <!-- Mean profit per step with confidence interval per simulation step -->
    <g transform="translate(220.284875 21.763062) scale(0.14 -0.14)">
     <defs>
      <path id="DejaVuSans-4d" d="M 628 4666 
L 1569 4666 
L 2759 1491 
L 3956 4666 
L 4897 4666 
L 4897 0 
L 4281 0 
L 4281 4097 
L 3078 897 
L 2444 897 
L 1241 4097 
L 1241 0 
L 628 0 
L 628 4666 
z
" transform="scale(0.015625)"/>
      <path id="DejaVuSans-61" d="M 2194 1759 
Q 1497 1759 1228 1600 
Q 959 1441 959 1056 
Q 959 750 1161 570 
Q 1363 391 1709 391 
Q 2188 391 2477 730 
Q 2766 1069 2766 1631 
L 2766 1759 
L 2194 1759 
z
M 3341 1997 
L 3341 0 
L 2766 0 
L 2766 531 
Q 2569 213 2275 61 
Q 1981 -91 1556 -91 
Q 1019 -91 701 211 
Q 384 513 384 1019 
Q 384 1609 779 1909 
Q 1175 2209 1959 2209 
L 2766 2209 
L 2766 2266 
Q 2766 2663 2505 2880 
Q 2244 3097 1772 3097 
Q 1472 3097 1187 3025 
Q 903 2953 641 2809 
L 641 3341 
Q 956 3463 1253 3523 
Q 1550 3584 1831 3584 
Q 2591 3584 2966 3190 
Q 3341 2797 3341 1997 
z
" transform="scale(0.015625)"/>
      <path id="DejaVuSans-6e" d="M 3513 2113 
L 3513 0 
L 2938 0 
L 2938 2094 
Q 2938 2591 2744 2837 
Q 2550 3084 2163 3084 
Q 1697 3084 1428 2787 
Q 1159 2491 1159 1978 
L 1159 0 
L 581 0 
L 581 3500 
L 1159 3500 
L 1159 2956 
Q 1366 3272 1645 3428 
Q 1925 3584 2291 3584 
Q 2894 3584 3203 3211 
Q 3513 2838 3513 2113 
z
" transform="scale(0.015625)"/>
      <path id="DejaVuSans-20" transform="scale(0.015625)"/>
      <path id="DejaVuSans-73" d="M 2834 3397 
L 2834 2853 
Q 2591 2978 2328 3040 
Q 2066 3103 1784 3103 
Q 1356 3103 1142 2972 
Q 928 2841 928 2578 
Q 928 2378 1081 2264 
Q 1234 2150 1697 2047 
L 1894 2003 
Q 2506 1872 2764 1633 
Q 3022 1394 3022 966 
Q 3022 478 2636 193 
Q 2250 -91 1575 -91 
Q 1294 -91 989 -36 
Q 684 19 347 128 
L 347 722 
Q 666 556 975 473 
Q 1284 391 1588 391 
Q 1994 391 2212 530 
Q 2431 669 2431 922 
Q 2431 1156 2273 1281 
Q 2116 1406 1581 1522 
L 1381 1569 
Q 847 1681 609 1914 
Q 372 2147 372 2553 
Q 372 3047 722 3315 
Q 1072 3584 1716 3584 
Q 2034 3584 2315 3537 
Q 2597 3491 2834 3397 
z
" transform="scale(0.015625)"/>
      <path id="DejaVuSans-77" d="M 269 3500 
L 844 3500 
L 1563 769 
L 2278 3500 
L 2956 3500 
L 3675 769 
L 4391 3500 
L 4966 3500 
L 4050 0 
L 3372 0 
L 2619 2869 
L 1863 0 
L 1184 0 
L 269 3500 
z
" transform="scale(0.015625)"/>
      <path id="DejaVuSans-68" d="M 3513 2113 
L 3513 0 
L 2938 0 
L 2938 2094 
Q 2938 2591 2744 2837 
Q 2550 3084 2163 3084 
Q 1697 3084 1428 2787 
Q 1159 2491 1159 1978 
L 1159 0 
L 581 0 
L 581 4863 
L 1159 4863 
L 1159 2956 
Q 1366 3272 1645 3428 
Q 1925 3584 2291 3584 
Q 2894 3584 3203 3211 
Q 3513 2838 3513 2113 
z
" transform="scale(0.015625)"/>
      <path id="DejaVuSans-63" d="M 3122 3366 
L 3122 2828 
Q 2878 2963 2633 3030 
Q 2388 3097 2138 3097 
Q 1578 3097 1268 2742 
Q 959 2388 959 1747 
Q 959 1106 1268 751 
Q 1578 397 2138 397 
Q 2388 397 2633 464 
Q 2878 531 3122 666 
L 3122 134 
Q 2881 22 2623 -34 
Q 2366 -91 2075 -91 
Q 1284 -91 818 406 
Q 353 903 353 1747 
Q 353 2603 823 3093 
Q 1294 3584 2113 3584 
Q 2378 3584 2631 3529 
Q 2884 3475 3122 3366 
z
" transform="scale(0.015625)"/>
      <path id="DejaVuSans-64" d="M 2906 2969 
L 2906 4863 
L 3481 4863 
L 3481 0 
L 2906 0 
L 2906 525 
Q 2725 213 2448 61 
Q 2172 -91 1784 -91 
Q 1150 -91 751 415 
Q 353 922 353 1747 
Q 353 2572 751 3078 
Q 1150 3584 1784 3584 
Q 2172 3584 2448 3432 
Q 2725 3281 2906 2969 
z
M 947 1747 
Q 947 1113 1208 752 
Q 1469 391 1925 391 
Q 2381 391 2643 752 
Q 2906 1113 2906 1747 
Q 2906 2381 2643 2742 
Q 2381 3103 1925 3103 
Q 1469 3103 1208 2742 
Q 947 2381 947 1747 
z
" transform="scale(0.015625)"/>
      <path id="DejaVuSans-76" d="M 191 3500 
L 800 3500 
L 1894 563 
L 2988 3500 
L 3597 3500 
L 2284 0 
L 1503 0 
L 191 3500 
z
" transform="scale(0.015625)"/>
      <path id="DejaVuSans-6c" d="M 603 4863 
L 1178 4863 
L 1178 0 
L 603 0 
L 603 4863 
z
" transform="scale(0.015625)"/>
      <path id="DejaVuSans-6d" d="M 3328 2828 
Q 3544 3216 3844 3400 
Q 4144 3584 4550 3584 
Q 5097 3584 5394 3201 
Q 5691 2819 5691 2113 
L 5691 0 
L 5113 0 
L 5113 2094 
Q 5113 2597 4934 2840 
Q 4756 3084 4391 3084 
Q 3944 3084 3684 2787 
Q 3425 2491 3425 1978 
L 3425 0 
L 2847 0 
L 2847 2094 
Q 2847 2600 2669 2842 
Q 2491 3084 2119 3084 
Q 1678 3084 1418 2786 
Q 1159 2488 1159 1978 
L 1159 0 
L 581 0 
L 581 3500 
L 1159 3500 
L 1159 2956 
Q 1356 3278 1631 3431 
Q 1906 3584 2284 3584 
Q 2666 3584 2933 3390 
Q 3200 3197 3328 2828 
z
" transform="scale(0.015625)"/>
      <path id="DejaVuSans-75" d="M 544 1381 
L 544 3500 
L 1119 3500 
L 1119 1403 
Q 1119 906 1312 657 
Q 1506 409 1894 409 
Q 2359 409 2629 706 
Q 2900 1003 2900 1516 
L 2900 3500 
L 3475 3500 
L 3475 0 
L 2900 0 
L 2900 538 
Q 2691 219 2414 64 
Q 2138 -91 1772 -91 
Q 1169 -91 856 284 
Q 544 659 544 1381 
z
M 1991 3584 
L 1991 3584 
z
" transform="scale(0.015625)"/>
     </defs>
     <use xlink:href="#DejaVuSans-4d"/>
     <use xlink:href="#DejaVuSans-65" transform="translate(86.279297 0)"/>
     <use xlink:href="#DejaVuSans-61" transform="translate(147.802734 0)"/>
     <use xlink:href="#DejaVuSans-6e" transform="translate(209.082031 0)"/>
     <use xlink:href="#DejaVuSans-20" transform="translate(272.460938 0)"/>
     <use xlink:href="#DejaVuSans-70" transform="translate(304.248047 0)"/>
     <use xlink:href="#DejaVuSans-72" transform="translate(367.724609 0)"/>
     <use xlink:href="#DejaVuSans-6f" transform="translate(406.587891 0)"/>
     <use xlink:href="#DejaVuSans-66" transform="translate(467.769531 0)"/>
     <use xlink:href="#DejaVuSans-69" transform="translate(502.974609 0)"/>
     <use xlink:href="#DejaVuSans-74" transform="translate(530.757812 0)"/>
     <use xlink:href="#DejaVuSans-20" transform="translate(569.966797 0)"/>
     <use xlink:href="#DejaVuSans-70" transform="translate(601.753906 0)"/>
     <use xlink:href="#DejaVuSans-65" transform="translate(665.230469 0)"/>
     <use xlink:href="#DejaVuSans-72" transform="translate(726.753906 0)"/>
     <use xlink:href="#DejaVuSans-20" transform="translate(767.867188 0)"/>
     <use xlink:href="#DejaVuSans-73" transform="translate(799.654297 0)"/>
     <use xlink:href="#DejaVuSans-74" transform="translate(851.753906 0)"/>
     <use xlink:href="#DejaVuSans-65" transform="translate(890.962891 0)"/>
     <use xlink:href="#DejaVuSans-70" transform="translate(952.486328 0)"/>
     <use xlink:href="#DejaVuSans-20" transform="translate(1015.962891 0)"/>
     <use xlink:href="#DejaVuSans-77" transform="translate(1047.75 0)"/>
     <use xlink:href="#DejaVuSans-69" transform="translate(1129.537109 0)"/>
     <use xlink:href="#DejaVuSans-74" transform="translate(1157.320312 0)"/>
     <use xlink:href="#DejaVuSans-68" transform="translate(1196.529297 0)"/>
     <use xlink:href="#DejaVuSans-20" transform="translate(1259.908203 0)"/>
     <use xlink:href="#DejaVuSans-63" transform="translate(1291.695312 0)"/>
     <use xlink:href="#DejaVuSans-6f" transform="translate(1346.675781 0)"/>
     <use xlink:href="#DejaVuSans-6e" transform="translate(1407.857422 0)"/>
     <use xlink:href="#DejaVuSans-66" transform="translate(1471.236328 0)"/>
     <use xlink:href="#DejaVuSans-69" transform="translate(1506.441406 0)"/>
     <use xlink:href="#DejaVuSans-64" transform="translate(1534.224609 0)"/>
     <use xlink:href="#DejaVuSans-65" transform="translate(1597.701172 0)"/>
     <use xlink:href="#DejaVuSans-6e" transform="translate(1659.224609 0)"/>
     <use xlink:href="#DejaVuSans-63" transform="translate(1722.603516 0)"/>
     <use xlink:href="#DejaVuSans-65" transform="translate(1777.583984 0)"/>
     <use xlink:href="#DejaVuSans-20" transform="translate(1839.107422 0)"/>
     <use xlink:href="#DejaVuSans-69" transform="translate(1870.894531 0)"/>
     <use xlink:href="#DejaVuSans-6e" transform="translate(1898.677734 0)"/>
     <use xlink:href="#DejaVuSans-74" transform="translate(1962.056641 0)"/>
     <use xlink:href="#DejaVuSans-65" transform="translate(2001.265625 0)"/>
     <use xlink:href="#DejaVuSans-72" transform="translate(2062.789062 0)"/>
     <use xlink:href="#DejaVuSans-76" transform="translate(2103.902344 0)"/>
     <use xlink:href="#DejaVuSans-61" transform="translate(2163.082031 0)"/>
     <use xlink:href="#DejaVuSans-6c" transform="translate(2224.361328 0)"/>
     <use xlink:href="#DejaVuSans-20" transform="translate(2252.144531 0)"/>
     <use xlink:href="#DejaVuSans-70" transform="translate(2283.931641 0)"/>
     <use xlink:href="#DejaVuSans-65" transform="translate(2347.408203 0)"/>
     <use xlink:href="#DejaVuSans-72" transform="translate(2408.931641 0)"/>
     <use xlink:href="#DejaVuSans-20" transform="translate(2450.044922 0)"/>
     <use xlink:href="#DejaVuSans-73" transform="translate(2481.832031 0)"/>
     <use xlink:href="#DejaVuSans-69" transform="translate(2533.931641 0)"/>
     <use xlink:href="#DejaVuSans-6d" transform="translate(2561.714844 0)"/>
     <use xlink:href="#DejaVuSans-75" transform="translate(2659.126953 0)"/>
     <use xlink:href="#DejaVuSans-6c" transform="translate(2722.505859 0)"/>
     <use xlink:href="#DejaVuSans-61" transform="translate(2750.289062 0)"/>
     <use xlink:href="#DejaVuSans-74" transform="translate(2811.568359 0)"/>
     <use xlink:href="#DejaVuSans-69" transform="translate(2850.777344 0)"/>
     <use xlink:href="#DejaVuSans-6f" transform="translate(2878.560547 0)"/>
     <use xlink:href="#DejaVuSans-6e" transform="translate(2939.742188 0)"/>
     <use xlink:href="#DejaVuSans-20" transform="translate(3003.121094 0)"/>
     <use xlink:href="#DejaVuSans-73" transform="translate(3034.908203 0)"/>
     <use xlink:href="#DejaVuSans-74" transform="translate(3087.007812 0)"/>
     <use xlink:href="#DejaVuSans-65" transform="translate(3126.216797 0)"/>
     <use xlink:href="#DejaVuSans-70" transform="translate(3187.740234 0)"/>
    </g>
    <!-- Base Product: Grandaddy Purple, Recipe size: 9, T0: 5.0 -->
    <g transform="translate(252.737531 37.44) scale(0.14 -0.14)">
     <defs>
      <path id="DejaVuSans-42" d="M 1259 2228 
L 1259 519 
L 2272 519 
Q 2781 519 3026 730 
Q 3272 941 3272 1375 
Q 3272 1813 3026 2020 
Q 2781 2228 2272 2228 
L 1259 2228 
z
M 1259 4147 
L 1259 2741 
L 2194 2741 
Q 2656 2741 2882 2914 
Q 3109 3088 3109 3444 
Q 3109 3797 2882 3972 
Q 2656 4147 2194 4147 
L 1259 4147 
z
M 628 4666 
L 2241 4666 
Q 2963 4666 3353 4366 
Q 3744 4066 3744 3513 
Q 3744 3084 3544 2831 
Q 3344 2578 2956 2516 
Q 3422 2416 3680 2098 
Q 3938 1781 3938 1306 
Q 3938 681 3513 340 
Q 3088 0 2303 0 
L 628 0 
L 628 4666 
z
" transform="scale(0.015625)"/>
      <path id="DejaVuSans-3a" d="M 750 794 
L 1409 794 
L 1409 0 
L 750 0 
L 750 794 
z
M 750 3309 
L 1409 3309 
L 1409 2516 
L 750 2516 
L 750 3309 
z
" transform="scale(0.015625)"/>
      <path id="DejaVuSans-47" d="M 3809 666 
L 3809 1919 
L 2778 1919 
L 2778 2438 
L 4434 2438 
L 4434 434 
Q 4069 175 3628 42 
Q 3188 -91 2688 -91 
Q 1594 -91 976 548 
Q 359 1188 359 2328 
Q 359 3472 976 4111 
Q 1594 4750 2688 4750 
Q 3144 4750 3555 4637 
Q 3966 4525 4313 4306 
L 4313 3634 
Q 3963 3931 3569 4081 
Q 3175 4231 2741 4231 
Q 1884 4231 1454 3753 
Q 1025 3275 1025 2328 
Q 1025 1384 1454 906 
Q 1884 428 2741 428 
Q 3075 428 3337 486 
Q 3600 544 3809 666 
z
" transform="scale(0.015625)"/>
      <path id="DejaVuSans-79" d="M 2059 -325 
Q 1816 -950 1584 -1140 
Q 1353 -1331 966 -1331 
L 506 -1331 
L 506 -850 
L 844 -850 
Q 1081 -850 1212 -737 
Q 1344 -625 1503 -206 
L 1606 56 
L 191 3500 
L 800 3500 
L 1894 763 
L 2988 3500 
L 3597 3500 
L 2059 -325 
z
" transform="scale(0.015625)"/>
      <path id="DejaVuSans-2c" d="M 750 794 
L 1409 794 
L 1409 256 
L 897 -744 
L 494 -744 
L 750 256 
L 750 794 
z
" transform="scale(0.015625)"/>
      <path id="DejaVuSans-52" d="M 2841 2188 
Q 3044 2119 3236 1894 
Q 3428 1669 3622 1275 
L 4263 0 
L 3584 0 
L 2988 1197 
Q 2756 1666 2539 1819 
Q 2322 1972 1947 1972 
L 1259 1972 
L 1259 0 
L 628 0 
L 628 4666 
L 2053 4666 
Q 2853 4666 3247 4331 
Q 3641 3997 3641 3322 
Q 3641 2881 3436 2590 
Q 3231 2300 2841 2188 
z
M 1259 4147 
L 1259 2491 
L 2053 2491 
Q 2509 2491 2742 2702 
Q 2975 2913 2975 3322 
Q 2975 3731 2742 3939 
Q 2509 4147 2053 4147 
L 1259 4147 
z
" transform="scale(0.015625)"/>
      <path id="DejaVuSans-7a" d="M 353 3500 
L 3084 3500 
L 3084 2975 
L 922 459 
L 3084 459 
L 3084 0 
L 275 0 
L 275 525 
L 2438 3041 
L 353 3041 
L 353 3500 
z
" transform="scale(0.015625)"/>
      <path id="DejaVuSans-39" d="M 703 97 
L 703 672 
Q 941 559 1184 500 
Q 1428 441 1663 441 
Q 2288 441 2617 861 
Q 2947 1281 2994 2138 
Q 2813 1869 2534 1725 
Q 2256 1581 1919 1581 
Q 1219 1581 811 2004 
Q 403 2428 403 3163 
Q 403 3881 828 4315 
Q 1253 4750 1959 4750 
Q 2769 4750 3195 4129 
Q 3622 3509 3622 2328 
Q 3622 1225 3098 567 
Q 2575 -91 1691 -91 
Q 1453 -91 1209 -44 
Q 966 3 703 97 
z
M 1959 2075 
Q 2384 2075 2632 2365 
Q 2881 2656 2881 3163 
Q 2881 3666 2632 3958 
Q 2384 4250 1959 4250 
Q 1534 4250 1286 3958 
Q 1038 3666 1038 3163 
Q 1038 2656 1286 2365 
Q 1534 2075 1959 2075 
z
" transform="scale(0.015625)"/>
      <path id="DejaVuSans-54" d="M -19 4666 
L 3928 4666 
L 3928 4134 
L 2272 4134 
L 2272 0 
L 1638 0 
L 1638 4134 
L -19 4134 
L -19 4666 
z
" transform="scale(0.015625)"/>
      <path id="DejaVuSans-2e" d="M 684 794 
L 1344 794 
L 1344 0 
L 684 0 
L 684 794 
z
" transform="scale(0.015625)"/>
     </defs>
     <use xlink:href="#DejaVuSans-42"/>
     <use xlink:href="#DejaVuSans-61" transform="translate(68.603516 0)"/>
     <use xlink:href="#DejaVuSans-73" transform="translate(129.882812 0)"/>
     <use xlink:href="#DejaVuSans-65" transform="translate(181.982422 0)"/>
     <use xlink:href="#DejaVuSans-20" transform="translate(243.505859 0)"/>
     <use xlink:href="#DejaVuSans-50" transform="translate(275.292969 0)"/>
     <use xlink:href="#DejaVuSans-72" transform="translate(333.845703 0)"/>
     <use xlink:href="#DejaVuSans-6f" transform="translate(372.708984 0)"/>
     <use xlink:href="#DejaVuSans-64" transform="translate(433.890625 0)"/>
     <use xlink:href="#DejaVuSans-75" transform="translate(497.367188 0)"/>
     <use xlink:href="#DejaVuSans-63" transform="translate(560.746094 0)"/>
     <use xlink:href="#DejaVuSans-74" transform="translate(615.726562 0)"/>
     <use xlink:href="#DejaVuSans-3a" transform="translate(654.935547 0)"/>
     <use xlink:href="#DejaVuSans-20" transform="translate(688.626953 0)"/>
     <use xlink:href="#DejaVuSans-47" transform="translate(720.414062 0)"/>
     <use xlink:href="#DejaVuSans-72" transform="translate(797.904297 0)"/>
     <use xlink:href="#DejaVuSans-61" transform="translate(839.017578 0)"/>
     <use xlink:href="#DejaVuSans-6e" transform="translate(900.296875 0)"/>
     <use xlink:href="#DejaVuSans-64" transform="translate(963.675781 0)"/>
     <use xlink:href="#DejaVuSans-61" transform="translate(1027.152344 0)"/>
     <use xlink:href="#DejaVuSans-64" transform="translate(1088.431641 0)"/>
     <use xlink:href="#DejaVuSans-64" transform="translate(1151.908203 0)"/>
     <use xlink:href="#DejaVuSans-79" transform="translate(1215.384766 0)"/>
     <use xlink:href="#DejaVuSans-20" transform="translate(1274.564453 0)"/>
     <use xlink:href="#DejaVuSans-50" transform="translate(1306.351562 0)"/>
     <use xlink:href="#DejaVuSans-75" transform="translate(1364.904297 0)"/>
     <use xlink:href="#DejaVuSans-72" transform="translate(1428.283203 0)"/>
     <use xlink:href="#DejaVuSans-70" transform="translate(1469.396484 0)"/>
     <use xlink:href="#DejaVuSans-6c" transform="translate(1532.873047 0)"/>
     <use xlink:href="#DejaVuSans-65" transform="translate(1560.65625 0)"/>
     <use xlink:href="#DejaVuSans-2c" transform="translate(1622.179688 0)"/>
     <use xlink:href="#DejaVuSans-20" transform="translate(1653.966797 0)"/>
     <use xlink:href="#DejaVuSans-52" transform="translate(1685.753906 0)"/>
     <use xlink:href="#DejaVuSans-65" transform="translate(1750.736328 0)"/>
     <use xlink:href="#DejaVuSans-63" transform="translate(1812.259766 0)"/>
     <use xlink:href="#DejaVuSans-69" transform="translate(1867.240234 0)"/>
     <use xlink:href="#DejaVuSans-70" transform="translate(1895.023438 0)"/>
     <use xlink:href="#DejaVuSans-65" transform="translate(1958.5 0)"/>
     <use xlink:href="#DejaVuSans-20" transform="translate(2020.023438 0)"/>
     <use xlink:href="#DejaVuSans-73" transform="translate(2051.810547 0)"/>
     <use xlink:href="#DejaVuSans-69" transform="translate(2103.910156 0)"/>
     <use xlink:href="#DejaVuSans-7a" transform="translate(2131.693359 0)"/>
     <use xlink:href="#DejaVuSans-65" transform="translate(2184.183594 0)"/>
     <use xlink:href="#DejaVuSans-3a" transform="translate(2245.707031 0)"/>
     <use xlink:href="#DejaVuSans-20" transform="translate(2279.398438 0)"/>
     <use xlink:href="#DejaVuSans-39" transform="translate(2311.185547 0)"/>
     <use xlink:href="#DejaVuSans-2c" transform="translate(2374.808594 0)"/>
     <use xlink:href="#DejaVuSans-20" transform="translate(2406.595703 0)"/>
     <use xlink:href="#DejaVuSans-54" transform="translate(2438.382812 0)"/>
     <use xlink:href="#DejaVuSans-30" transform="translate(2499.466797 0)"/>
     <use xlink:href="#DejaVuSans-3a" transform="translate(2563.089844 0)"/>
     <use xlink:href="#DejaVuSans-20" transform="translate(2596.78125 0)"/>
     <use xlink:href="#DejaVuSans-35" transform="translate(2628.568359 0)"/>
     <use xlink:href="#DejaVuSans-2e" transform="translate(2692.191406 0)"/>
     <use xlink:href="#DejaVuSans-30" transform="translate(2723.978516 0)"/>
    </g>
   </g>
  </g>
 </g>
 <defs>
  <clipPath id="pa3dcb88c74">
   <rect x="50.87" y="43.44" width="793.996" height="346.6"/>
  </clipPath>
 </defs>
</svg>
