<?xml version="1.0" encoding="utf-8" standalone="no"?>
<!DOCTYPE svg PUBLIC "-//W3C//DTD SVG 1.1//EN"
  "http://www.w3.org/Graphics/SVG/1.1/DTD/svg11.dtd">
<svg xmlns:xlink="http://www.w3.org/1999/xlink" width="864pt" height="432pt" viewBox="0 0 864 432" xmlns="http://www.w3.org/2000/svg" version="1.1">
 <metadata>
  <rdf:RDF xmlns:dc="http://purl.org/dc/elements/1.1/" xmlns:cc="http://creativecommons.org/ns#" xmlns:rdf="http://www.w3.org/1999/02/22-rdf-syntax-ns#">
   <cc:Work>
    <dc:type rdf:resource="http://purl.org/dc/dcmitype/StillImage"/>
    <dc:date>2025-05-24T02:14:18.494791</dc:date>
    <dc:format>image/svg+xml</dc:format>
    <dc:creator>
     <cc:Agent>
      <dc:title>Matplotlib v3.10.3, https://matplotlib.org/</dc:title>
     </cc:Agent>
    </dc:creator>
   </cc:Work>
  </rdf:RDF>
 </metadata>
 <defs>
  <style type="text/css">*{stroke-linejoin: round; stroke-linecap: butt}</style>
 </defs>
 <g id="figure_1">
  <g id="patch_1">
   <path d="M 0 432 
L 864 432 
L 864 0 
L 0 0 
z
" style="fill: #ffffff"/>
  </g>
  <g id="axes_1">
   <g id="patch_2">
    <path d="M 50.87 390.04 
L 844.866 390.04 
L 844.866 43.44 
L 50.87 43.44 
z
" style="fill: #ffffff"/>
   </g>
   <g id="FillBetweenPolyCollection_1">
    <defs>
     <path id="ma2044c2918" d="M 52.193327 -326.862772 
L 52.193327 -57.714545 
L 54.83998 -58.17943 
L 57.486633 -60.412738 
L 60.133287 -65.574089 
L 62.77994 -68.728387 
L 65.426593 -72.776878 
L 68.073247 -75.608396 
L 70.7199 -77.333959 
L 73.366553 -80.970177 
L 76.013207 -84.562932 
L 78.65986 -86.751331 
L 81.306513 -87.834168 
L 83.953167 -89.688419 
L 86.59982 -90.533169 
L 89.246473 -92.36895 
L 91.893127 -95.387621 
L 94.53978 -95.694475 
L 97.186433 -96.641406 
L 99.833087 -97.131549 
L 102.47974 -100.193277 
L 105.126393 -101.442841 
L 107.773047 -100.754432 
L 110.4197 -101.561468 
L 113.066353 -103.34857 
L 115.713007 -103.894065 
L 118.35966 -105.871071 
L 121.006313 -105.312866 
L 123.652967 -105.913609 
L 126.29962 -106.012898 
L 128.946273 -106.18845 
L 131.592927 -106.787273 
L 134.23958 -109.238347 
L 136.886233 -109.000804 
L 139.532887 -108.6757 
L 142.17954 -110.289286 
L 144.826193 -110.661138 
L 147.472847 -112.245324 
L 150.1195 -113.529608 
L 152.766153 -114.068638 
L 155.412807 -113.463581 
L 158.05946 -114.173872 
L 160.706113 -114.506505 
L 163.352767 -115.356425 
L 165.99942 -114.957187 
L 168.646073 -115.147716 
L 171.292727 -115.338985 
L 173.93938 -116.23157 
L 176.586033 -117.780251 
L 179.232687 -118.805306 
L 181.87934 -118.720335 
L 184.525993 -118.361691 
L 187.172647 -118.772461 
L 189.8193 -119.833103 
L 192.465953 -119.094558 
L 195.112607 -117.95327 
L 197.75926 -119.154282 
L 200.405913 -120.355583 
L 203.052567 -120.310443 
L 205.69922 -121.219313 
L 208.345873 -121.005479 
L 210.992527 -120.826215 
L 213.63918 -121.416758 
L 216.285833 -120.936596 
L 218.932487 -120.660448 
L 221.57914 -121.859367 
L 224.225793 -121.716256 
L 226.872447 -121.46672 
L 229.5191 -122.141656 
L 232.165753 -121.920976 
L 234.812407 -123.227442 
L 237.45906 -123.53499 
L 240.105713 -123.152162 
L 242.752367 -123.605192 
L 245.39902 -123.379747 
L 248.045673 -122.430271 
L 250.692327 -121.892178 
L 253.33898 -123.476145 
L 255.985633 -123.523644 
L 258.632287 -123.969665 
L 261.27894 -124.868958 
L 263.925593 -125.546253 
L 266.572247 -126.028636 
L 269.2189 -125.79314 
L 271.865553 -126.154733 
L 274.512207 -125.220443 
L 277.15886 -124.722366 
L 279.805513 -125.518427 
L 282.452167 -126.204661 
L 285.09882 -126.54524 
L 287.745473 -126.648947 
L 290.392127 -127.431812 
L 293.03878 -126.774247 
L 295.685433 -126.686408 
L 298.332087 -126.333362 
L 300.97874 -126.146603 
L 303.625393 -127.513591 
L 306.272047 -128.072675 
L 308.9187 -127.225322 
L 311.565353 -127.896892 
L 314.212007 -127.329365 
L 316.85866 -128.14312 
L 319.505313 -127.130879 
L 322.151967 -127.080407 
L 324.79862 -129.610091 
L 327.445273 -129.525987 
L 330.091927 -128.637381 
L 332.73858 -128.877167 
L 335.385233 -127.877821 
L 338.031887 -129.181812 
L 340.67854 -128.966614 
L 343.325193 -131.043973 
L 345.971847 -129.293788 
L 348.6185 -128.659748 
L 351.265153 -129.012714 
L 353.911807 -128.892884 
L 356.55846 -129.859176 
L 359.205113 -130.888048 
L 361.851767 -131.609315 
L 364.49842 -129.938758 
L 367.145073 -130.280158 
L 369.791727 -130.097956 
L 372.43838 -131.101176 
L 375.085033 -130.313119 
L 377.731687 -129.531654 
L 380.37834 -129.810809 
L 383.024993 -129.36931 
L 385.671647 -130.235654 
L 388.3183 -130.587266 
L 390.964953 -131.289924 
L 393.611607 -132.52894 
L 396.25826 -132.827895 
L 398.904913 -132.745144 
L 401.551567 -132.602219 
L 404.19822 -131.800804 
L 406.844873 -132.276767 
L 409.491527 -132.90935 
L 412.13818 -132.423845 
L 414.784833 -132.58649 
L 417.431487 -131.873215 
L 420.07814 -131.905066 
L 422.724793 -130.993398 
L 425.371447 -132.911108 
L 428.0181 -132.111405 
L 430.664753 -132.233975 
L 433.311407 -132.193913 
L 435.95806 -131.9475 
L 438.604713 -132.412719 
L 441.251367 -132.947771 
L 443.89802 -131.668345 
L 446.544673 -131.195978 
L 449.191327 -131.848453 
L 451.83798 -133.727142 
L 454.484633 -132.835216 
L 457.131287 -133.84356 
L 459.77794 -133.335687 
L 462.424593 -133.587709 
L 465.071247 -133.691613 
L 467.7179 -133.814241 
L 470.364553 -133.538845 
L 473.011207 -135.012038 
L 475.65786 -133.771565 
L 478.304513 -133.834539 
L 480.951167 -134.45662 
L 483.59782 -134.500407 
L 486.244473 -134.672477 
L 488.891127 -134.476721 
L 491.53778 -134.432865 
L 494.184433 -134.898454 
L 496.831087 -134.808764 
L 499.47774 -134.560952 
L 502.124393 -134.510434 
L 504.771047 -135.436305 
L 507.4177 -135.528146 
L 510.064353 -135.255271 
L 512.711007 -135.664618 
L 515.35766 -136.548298 
L 518.004313 -136.371821 
L 520.650967 -137.289179 
L 523.29762 -136.463882 
L 525.944273 -137.273473 
L 528.590927 -136.733067 
L 531.23758 -137.245693 
L 533.884233 -136.657603 
L 536.530887 -136.766237 
L 539.17754 -136.611491 
L 541.824193 -136.112281 
L 544.470847 -135.729558 
L 547.1175 -135.862294 
L 549.764153 -136.945015 
L 552.410807 -136.875565 
L 555.05746 -136.250176 
L 557.704113 -137.240096 
L 560.350767 -137.087709 
L 562.99742 -137.660326 
L 565.644073 -138.030315 
L 568.290727 -137.576765 
L 570.93738 -138.287137 
L 573.584033 -139.280955 
L 576.230687 -139.252747 
L 578.87734 -138.695686 
L 581.523993 -139.429524 
L 584.170647 -139.116679 
L 586.8173 -139.043239 
L 589.463953 -138.781189 
L 592.110607 -139.168284 
L 594.75726 -139.521365 
L 597.403913 -139.437597 
L 600.050567 -140.671652 
L 602.69722 -140.093993 
L 605.343873 -140.592278 
L 607.990527 -138.820489 
L 610.63718 -138.754103 
L 613.283833 -139.016303 
L 615.930487 -140.233542 
L 618.57714 -139.683039 
L 621.223793 -139.791707 
L 623.870447 -139.509418 
L 626.5171 -140.367157 
L 629.163753 -139.296707 
L 631.810407 -139.783484 
L 634.45706 -139.79424 
L 637.103713 -140.453146 
L 639.750367 -139.869994 
L 642.39702 -139.94008 
L 645.043673 -140.041567 
L 647.690327 -138.861523 
L 650.33698 -139.096741 
L 652.983633 -139.595315 
L 655.630287 -138.713381 
L 658.27694 -137.787141 
L 660.923593 -138.462862 
L 663.570247 -139.179272 
L 666.2169 -139.651685 
L 668.863553 -140.774064 
L 671.510207 -141.258967 
L 674.15686 -140.756565 
L 676.803513 -141.543708 
L 679.450167 -140.732532 
L 682.09682 -141.485048 
L 684.743473 -140.192253 
L 687.390127 -140.461276 
L 690.03678 -140.257332 
L 692.683433 -141.083682 
L 695.330087 -140.870774 
L 697.97674 -140.433924 
L 700.623393 -140.163767 
L 703.270047 -140.748654 
L 705.9167 -141.545964 
L 708.563353 -140.142071 
L 711.210007 -140.357581 
L 713.85666 -141.133228 
L 716.503313 -140.692539 
L 719.149967 -141.089846 
L 721.79662 -141.863157 
L 724.443273 -141.5155 
L 727.089927 -141.662717 
L 729.73658 -141.242487 
L 732.383233 -141.651417 
L 735.029887 -142.269994 
L 737.67654 -142.378536 
L 740.323193 -142.835197 
L 742.969847 -142.317066 
L 745.6165 -142.105985 
L 748.263153 -141.038484 
L 750.909807 -140.750875 
L 753.55646 -140.895836 
L 756.203113 -140.363942 
L 758.849767 -141.015874 
L 761.49642 -141.235235 
L 764.143073 -141.174817 
L 766.789727 -141.893516 
L 769.43638 -141.085243 
L 772.083033 -140.955097 
L 774.729687 -141.177639 
L 777.37634 -142.227318 
L 780.022993 -143.142803 
L 782.669647 -144.40377 
L 785.3163 -145.163087 
L 787.962953 -144.406743 
L 790.609607 -144.006324 
L 793.25626 -144.277036 
L 795.902913 -144.196541 
L 798.549567 -143.683383 
L 801.19622 -143.260018 
L 803.842873 -143.962896 
L 806.489527 -144.354987 
L 809.13618 -145.064735 
L 811.782833 -144.746003 
L 814.429487 -144.922191 
L 817.07614 -144.912372 
L 819.722793 -143.624272 
L 822.369447 -143.632784 
L 825.0161 -142.648068 
L 827.662753 -141.829351 
L 830.309407 -141.807007 
L 832.95606 -142.427365 
L 835.602713 -142.315053 
L 838.249367 -142.088926 
L 840.89602 -142.506484 
L 843.542673 -141.845369 
L 843.542673 -372.191469 
L 843.542673 -372.191469 
L 840.89602 -372.267153 
L 838.249367 -372.805455 
L 835.602713 -372.5413 
L 832.95606 -372.644556 
L 830.309407 -372.687071 
L 827.662753 -372.352275 
L 825.0161 -371.978179 
L 822.369447 -371.535663 
L 819.722793 -371.534321 
L 817.07614 -370.667515 
L 814.429487 -370.690461 
L 811.782833 -370.475853 
L 809.13618 -369.94803 
L 806.489527 -370.128127 
L 803.842873 -370.492137 
L 801.19622 -370.91106 
L 798.549567 -370.632588 
L 795.902913 -370.227682 
L 793.25626 -369.876416 
L 790.609607 -369.826708 
L 787.962953 -369.562322 
L 785.3163 -369.227364 
L 782.669647 -369.510186 
L 780.022993 -370.103677 
L 777.37634 -370.8753 
L 774.729687 -371.534992 
L 772.083033 -371.445406 
L 769.43638 -370.941477 
L 766.789727 -370.110802 
L 764.143073 -370.475089 
L 761.49642 -370.702235 
L 758.849767 -370.415898 
L 756.203113 -370.292032 
L 753.55646 -370.013004 
L 750.909807 -370.257844 
L 748.263153 -369.863509 
L 745.6165 -369.017174 
L 742.969847 -368.789543 
L 740.323193 -369.01803 
L 737.67654 -369.152397 
L 735.029887 -369.288684 
L 732.383233 -369.679596 
L 729.73658 -369.8398 
L 727.089927 -369.690884 
L 724.443273 -370.126438 
L 721.79662 -370.011848 
L 719.149967 -370.494126 
L 716.503313 -370.247343 
L 713.85666 -369.749428 
L 711.210007 -370.122228 
L 708.563353 -370.794758 
L 705.9167 -369.933527 
L 703.270047 -370.177025 
L 700.623393 -370.438589 
L 697.97674 -370.156601 
L 695.330087 -369.719936 
L 692.683433 -369.952286 
L 690.03678 -370.357099 
L 687.390127 -370.54439 
L 684.743473 -370.675657 
L 682.09682 -369.917173 
L 679.450167 -370.43047 
L 676.803513 -369.840425 
L 674.15686 -369.858698 
L 671.510207 -369.815582 
L 668.863553 -370.024431 
L 666.2169 -370.562038 
L 663.570247 -370.995395 
L 660.923593 -371.486278 
L 658.27694 -371.894515 
L 655.630287 -370.89429 
L 652.983633 -370.448327 
L 650.33698 -370.784858 
L 647.690327 -370.912008 
L 645.043673 -370.340537 
L 642.39702 -369.8002 
L 639.750367 -369.680984 
L 637.103713 -369.415256 
L 634.45706 -369.703051 
L 631.810407 -369.99251 
L 629.163753 -370.761843 
L 626.5171 -369.183855 
L 623.870447 -370.078187 
L 621.223793 -369.137038 
L 618.57714 -368.925669 
L 615.930487 -367.882883 
L 613.283833 -369.041277 
L 610.63718 -369.974283 
L 607.990527 -369.783916 
L 605.343873 -368.531287 
L 602.69722 -368.680343 
L 600.050567 -368.241781 
L 597.403913 -368.575722 
L 594.75726 -368.828611 
L 592.110607 -369.281375 
L 589.463953 -369.210849 
L 586.8173 -369.457262 
L 584.170647 -369.657506 
L 581.523993 -369.538081 
L 578.87734 -369.870796 
L 576.230687 -369.565515 
L 573.584033 -368.990273 
L 570.93738 -369.203146 
L 568.290727 -369.583441 
L 565.644073 -368.879523 
L 562.99742 -368.719619 
L 560.350767 -369.016573 
L 557.704113 -369.2031 
L 555.05746 -370.098912 
L 552.410807 -369.445974 
L 549.764153 -370.05804 
L 547.1175 -370.393091 
L 544.470847 -369.74353 
L 541.824193 -369.191211 
L 539.17754 -369.32153 
L 536.530887 -369.133199 
L 533.884233 -368.897033 
L 531.23758 -368.024953 
L 528.590927 -368.683997 
L 525.944273 -367.994212 
L 523.29762 -368.680898 
L 520.650967 -368.206484 
L 518.004313 -368.41938 
L 515.35766 -368.698894 
L 512.711007 -368.886161 
L 510.064353 -369.140184 
L 507.4177 -368.69621 
L 504.771047 -368.366226 
L 502.124393 -368.48757 
L 499.47774 -368.284712 
L 496.831087 -368.075378 
L 494.184433 -368.309647 
L 491.53778 -368.30708 
L 488.891127 -368.131193 
L 486.244473 -367.889915 
L 483.59782 -367.405763 
L 480.951167 -367.335746 
L 478.304513 -367.647133 
L 475.65786 -367.40153 
L 473.011207 -366.592273 
L 470.364553 -367.440343 
L 467.7179 -367.058499 
L 465.071247 -366.830961 
L 462.424593 -367.190044 
L 459.77794 -367.128586 
L 457.131287 -366.585658 
L 454.484633 -367.824015 
L 451.83798 -367.406318 
L 449.191327 -368.084006 
L 446.544673 -368.50855 
L 443.89802 -367.828803 
L 441.251367 -367.365746 
L 438.604713 -368.131817 
L 435.95806 -368.419496 
L 433.311407 -368.070937 
L 430.664753 -368.375848 
L 428.0181 -368.294312 
L 425.371447 -367.353649 
L 422.724793 -368.377537 
L 420.07814 -367.794338 
L 417.431487 -367.660318 
L 414.784833 -366.570623 
L 412.13818 -366.872249 
L 409.491527 -365.956498 
L 406.844873 -366.551239 
L 404.19822 -366.82689 
L 401.551567 -366.843567 
L 398.904913 -366.561486 
L 396.25826 -366.299853 
L 393.611607 -366.058691 
L 390.964953 -366.415646 
L 388.3183 -367.265682 
L 385.671647 -366.984943 
L 383.024993 -367.486975 
L 380.37834 -366.647348 
L 377.731687 -366.818539 
L 375.085033 -366.569304 
L 372.43838 -365.315959 
L 369.791727 -366.002182 
L 367.145073 -365.33562 
L 364.49842 -365.491383 
L 361.851767 -364.190041 
L 359.205113 -363.942263 
L 356.55846 -364.349967 
L 353.911807 -364.606975 
L 351.265153 -363.808289 
L 348.6185 -363.852931 
L 345.971847 -363.636403 
L 343.325193 -363.11279 
L 340.67854 -364.460996 
L 338.031887 -364.372219 
L 335.385233 -365.367864 
L 332.73858 -364.987454 
L 330.091927 -364.652218 
L 327.445273 -363.899748 
L 324.79862 -362.648091 
L 322.151967 -364.897244 
L 319.505313 -364.564761 
L 316.85866 -363.564235 
L 314.212007 -363.670753 
L 311.565353 -363.452351 
L 308.9187 -363.982557 
L 306.272047 -363.15239 
L 303.625393 -363.088295 
L 300.97874 -364.049289 
L 298.332087 -363.627521 
L 295.685433 -362.836793 
L 293.03878 -362.888328 
L 290.392127 -362.788172 
L 287.745473 -363.59035 
L 285.09882 -363.481057 
L 282.452167 -363.336257 
L 279.805513 -363.397716 
L 277.15886 -363.910851 
L 274.512207 -362.626695 
L 271.865553 -361.763613 
L 269.2189 -362.12612 
L 266.572247 -361.810777 
L 263.925593 -362.163638 
L 261.27894 -362.74797 
L 258.632287 -363.331446 
L 255.985633 -363.450871 
L 253.33898 -362.384376 
L 250.692327 -362.662941 
L 248.045673 -362.321113 
L 245.39902 -361.805526 
L 242.752367 -361.231048 
L 240.105713 -360.945845 
L 237.45906 -360.336693 
L 234.812407 -360.636839 
L 232.165753 -361.466844 
L 229.5191 -361.234055 
L 226.872447 -361.073735 
L 224.225793 -360.109872 
L 221.57914 -359.845232 
L 218.932487 -360.644773 
L 216.285833 -360.332784 
L 213.63918 -359.973539 
L 210.992527 -359.703162 
L 208.345873 -359.378497 
L 205.69922 -359.175108 
L 203.052567 -359.497297 
L 200.405913 -358.235046 
L 197.75926 -359.336977 
L 195.112607 -360.135247 
L 192.465953 -359.148045 
L 189.8193 -358.680315 
L 187.172647 -358.900938 
L 184.525993 -358.59413 
L 181.87934 -357.85954 
L 179.232687 -357.680877 
L 176.586033 -357.631146 
L 173.93938 -358.533157 
L 171.292727 -358.17974 
L 168.646073 -358.489948 
L 165.99942 -358.73118 
L 163.352767 -357.219347 
L 160.706113 -356.412311 
L 158.05946 -356.448742 
L 155.412807 -357.020098 
L 152.766153 -355.542868 
L 150.1195 -354.879128 
L 147.472847 -355.144693 
L 144.826193 -356.110268 
L 142.17954 -356.047306 
L 139.532887 -356.52748 
L 136.886233 -354.531818 
L 134.23958 -353.033193 
L 131.592927 -354.910887 
L 128.946273 -354.2205 
L 126.29962 -353.56171 
L 123.652967 -353.106332 
L 121.006313 -351.797611 
L 118.35966 -350.433654 
L 115.713007 -350.680946 
L 113.066353 -350.037098 
L 110.4197 -350.467702 
L 107.773047 -349.724045 
L 105.126393 -348.879977 
L 102.47974 -348.517863 
L 99.833087 -349.755781 
L 97.186433 -348.792565 
L 94.53978 -347.648466 
L 91.893127 -346.135708 
L 89.246473 -346.946121 
L 86.59982 -345.904608 
L 83.953167 -345.174852 
L 81.306513 -344.392358 
L 78.65986 -342.253285 
L 76.013207 -340.706709 
L 73.366553 -340.51285 
L 70.7199 -339.877861 
L 68.073247 -336.393428 
L 65.426593 -334.833783 
L 62.77994 -334.218086 
L 60.133287 -330.838597 
L 57.486633 -329.595475 
L 54.83998 -326.577291 
L 52.193327 -326.862772 
z
" style="stroke: #0000ff; stroke-opacity: 0.2"/>
    </defs>
    <g clip-path="url(#pc2f20c1429)">
     <use xlink:href="#ma2044c2918" x="0" y="432" style="fill: #0000ff; fill-opacity: 0.2; stroke: #0000ff; stroke-opacity: 0.2"/>
    </g>
   </g>
   <g id="matplotlib.axis_1">
    <g id="xtick_1">
     <g id="line2d_1">
      <defs>
       <path id="mcad115c364" d="M 0 0 
L 0 3.5 
" style="stroke: #000000; stroke-width: 0.8"/>
      </defs>
      <g>
       <use xlink:href="#mcad115c364" x="181.87934" y="390.04" style="stroke: #000000; stroke-width: 0.8"/>
      </g>
     </g>
     <g id="text_1">
      <!-- 50 -->
      <g transform="translate(175.51684 404.638438) scale(0.1 -0.1)">
       <defs>
        <path id="DejaVuSans-35" d="M 691 4666 
L 3169 4666 
L 3169 4134 
L 1269 4134 
L 1269 2991 
Q 1406 3038 1543 3061 
Q 1681 3084 1819 3084 
Q 2600 3084 3056 2656 
Q 3513 2228 3513 1497 
Q 3513 744 3044 326 
Q 2575 -91 1722 -91 
Q 1428 -91 1123 -41 
Q 819 9 494 109 
L 494 744 
Q 775 591 1075 516 
Q 1375 441 1709 441 
Q 2250 441 2565 725 
Q 2881 1009 2881 1497 
Q 2881 1984 2565 2268 
Q 2250 2553 1709 2553 
Q 1456 2553 1204 2497 
Q 953 2441 691 2322 
L 691 4666 
z
" transform="scale(0.015625)"/>
        <path id="DejaVuSans-30" d="M 2034 4250 
Q 1547 4250 1301 3770 
Q 1056 3291 1056 2328 
Q 1056 1369 1301 889 
Q 1547 409 2034 409 
Q 2525 409 2770 889 
Q 3016 1369 3016 2328 
Q 3016 3291 2770 3770 
Q 2525 4250 2034 4250 
z
M 2034 4750 
Q 2819 4750 3233 4129 
Q 3647 3509 3647 2328 
Q 3647 1150 3233 529 
Q 2819 -91 2034 -91 
Q 1250 -91 836 529 
Q 422 1150 422 2328 
Q 422 3509 836 4129 
Q 1250 4750 2034 4750 
z
" transform="scale(0.015625)"/>
       </defs>
       <use xlink:href="#DejaVuSans-35"/>
       <use xlink:href="#DejaVuSans-30" transform="translate(63.623047 0)"/>
      </g>
     </g>
    </g>
    <g id="xtick_2">
     <g id="line2d_2">
      <g>
       <use xlink:href="#mcad115c364" x="314.212007" y="390.04" style="stroke: #000000; stroke-width: 0.8"/>
      </g>
     </g>
     <g id="text_2">
      <!-- 100 -->
      <g transform="translate(304.668257 404.638438) scale(0.1 -0.1)">
       <defs>
        <path id="DejaVuSans-31" d="M 794 531 
L 1825 531 
L 1825 4091 
L 703 3866 
L 703 4441 
L 1819 4666 
L 2450 4666 
L 2450 531 
L 3481 531 
L 3481 0 
L 794 0 
L 794 531 
z
" transform="scale(0.015625)"/>
       </defs>
       <use xlink:href="#DejaVuSans-31"/>
       <use xlink:href="#DejaVuSans-30" transform="translate(63.623047 0)"/>
       <use xlink:href="#DejaVuSans-30" transform="translate(127.246094 0)"/>
      </g>
     </g>
    </g>
    <g id="xtick_3">
     <g id="line2d_3">
      <g>
       <use xlink:href="#mcad115c364" x="446.544673" y="390.04" style="stroke: #000000; stroke-width: 0.8"/>
      </g>
     </g>
     <g id="text_3">
      <!-- 150 -->
      <g transform="translate(437.000923 404.638438) scale(0.1 -0.1)">
       <use xlink:href="#DejaVuSans-31"/>
       <use xlink:href="#DejaVuSans-35" transform="translate(63.623047 0)"/>
       <use xlink:href="#DejaVuSans-30" transform="translate(127.246094 0)"/>
      </g>
     </g>
    </g>
    <g id="xtick_4">
     <g id="line2d_4">
      <g>
       <use xlink:href="#mcad115c364" x="578.87734" y="390.04" style="stroke: #000000; stroke-width: 0.8"/>
      </g>
     </g>
     <g id="text_4">
      <!-- 200 -->
      <g transform="translate(569.33359 404.638438) scale(0.1 -0.1)">
       <defs>
        <path id="DejaVuSans-32" d="M 1228 531 
L 3431 531 
L 3431 0 
L 469 0 
L 469 531 
Q 828 903 1448 1529 
Q 2069 2156 2228 2338 
Q 2531 2678 2651 2914 
Q 2772 3150 2772 3378 
Q 2772 3750 2511 3984 
Q 2250 4219 1831 4219 
Q 1534 4219 1204 4116 
Q 875 4013 500 3803 
L 500 4441 
Q 881 4594 1212 4672 
Q 1544 4750 1819 4750 
Q 2544 4750 2975 4387 
Q 3406 4025 3406 3419 
Q 3406 3131 3298 2873 
Q 3191 2616 2906 2266 
Q 2828 2175 2409 1742 
Q 1991 1309 1228 531 
z
" transform="scale(0.015625)"/>
       </defs>
       <use xlink:href="#DejaVuSans-32"/>
       <use xlink:href="#DejaVuSans-30" transform="translate(63.623047 0)"/>
       <use xlink:href="#DejaVuSans-30" transform="translate(127.246094 0)"/>
      </g>
     </g>
    </g>
    <g id="xtick_5">
     <g id="line2d_5">
      <g>
       <use xlink:href="#mcad115c364" x="711.210007" y="390.04" style="stroke: #000000; stroke-width: 0.8"/>
      </g>
     </g>
     <g id="text_5">
      <!-- 250 -->
      <g transform="translate(701.666257 404.638438) scale(0.1 -0.1)">
       <use xlink:href="#DejaVuSans-32"/>
       <use xlink:href="#DejaVuSans-35" transform="translate(63.623047 0)"/>
       <use xlink:href="#DejaVuSans-30" transform="translate(127.246094 0)"/>
      </g>
     </g>
    </g>
    <g id="xtick_6">
     <g id="line2d_6">
      <g>
       <use xlink:href="#mcad115c364" x="843.542673" y="390.04" style="stroke: #000000; stroke-width: 0.8"/>
      </g>
     </g>
     <g id="text_6">
      <!-- 300 -->
      <g transform="translate(833.998923 404.638438) scale(0.1 -0.1)">
       <defs>
        <path id="DejaVuSans-33" d="M 2597 2516 
Q 3050 2419 3304 2112 
Q 3559 1806 3559 1356 
Q 3559 666 3084 287 
Q 2609 -91 1734 -91 
Q 1441 -91 1130 -33 
Q 819 25 488 141 
L 488 750 
Q 750 597 1062 519 
Q 1375 441 1716 441 
Q 2309 441 2620 675 
Q 2931 909 2931 1356 
Q 2931 1769 2642 2001 
Q 2353 2234 1838 2234 
L 1294 2234 
L 1294 2753 
L 1863 2753 
Q 2328 2753 2575 2939 
Q 2822 3125 2822 3475 
Q 2822 3834 2567 4026 
Q 2313 4219 1838 4219 
Q 1578 4219 1281 4162 
Q 984 4106 628 3988 
L 628 4550 
Q 988 4650 1302 4700 
Q 1616 4750 1894 4750 
Q 2613 4750 3031 4423 
Q 3450 4097 3450 3541 
Q 3450 3153 3228 2886 
Q 3006 2619 2597 2516 
z
" transform="scale(0.015625)"/>
       </defs>
       <use xlink:href="#DejaVuSans-33"/>
       <use xlink:href="#DejaVuSans-30" transform="translate(63.623047 0)"/>
       <use xlink:href="#DejaVuSans-30" transform="translate(127.246094 0)"/>
      </g>
     </g>
    </g>
    <g id="text_7">
     <!-- Step -->
     <g transform="translate(436.482844 418.316562) scale(0.1 -0.1)">
      <defs>
       <path id="DejaVuSans-53" d="M 3425 4513 
L 3425 3897 
Q 3066 4069 2747 4153 
Q 2428 4238 2131 4238 
Q 1616 4238 1336 4038 
Q 1056 3838 1056 3469 
Q 1056 3159 1242 3001 
Q 1428 2844 1947 2747 
L 2328 2669 
Q 3034 2534 3370 2195 
Q 3706 1856 3706 1288 
Q 3706 609 3251 259 
Q 2797 -91 1919 -91 
Q 1588 -91 1214 -16 
Q 841 59 441 206 
L 441 856 
Q 825 641 1194 531 
Q 1563 422 1919 422 
Q 2459 422 2753 634 
Q 3047 847 3047 1241 
Q 3047 1584 2836 1778 
Q 2625 1972 2144 2069 
L 1759 2144 
Q 1053 2284 737 2584 
Q 422 2884 422 3419 
Q 422 4038 858 4394 
Q 1294 4750 2059 4750 
Q 2388 4750 2728 4690 
Q 3069 4631 3425 4513 
z
" transform="scale(0.015625)"/>
       <path id="DejaVuSans-74" d="M 1172 4494 
L 1172 3500 
L 2356 3500 
L 2356 3053 
L 1172 3053 
L 1172 1153 
Q 1172 725 1289 603 
Q 1406 481 1766 481 
L 2356 481 
L 2356 0 
L 1766 0 
Q 1100 0 847 248 
Q 594 497 594 1153 
L 594 3053 
L 172 3053 
L 172 3500 
L 594 3500 
L 594 4494 
L 1172 4494 
z
" transform="scale(0.015625)"/>
       <path id="DejaVuSans-65" d="M 3597 1894 
L 3597 1613 
L 953 1613 
Q 991 1019 1311 708 
Q 1631 397 2203 397 
Q 2534 397 2845 478 
Q 3156 559 3463 722 
L 3463 178 
Q 3153 47 2828 -22 
Q 2503 -91 2169 -91 
Q 1331 -91 842 396 
Q 353 884 353 1716 
Q 353 2575 817 3079 
Q 1281 3584 2069 3584 
Q 2775 3584 3186 3129 
Q 3597 2675 3597 1894 
z
M 3022 2063 
Q 3016 2534 2758 2815 
Q 2500 3097 2075 3097 
Q 1594 3097 1305 2825 
Q 1016 2553 972 2059 
L 3022 2063 
z
" transform="scale(0.015625)"/>
       <path id="DejaVuSans-70" d="M 1159 525 
L 1159 -1331 
L 581 -1331 
L 581 3500 
L 1159 3500 
L 1159 2969 
Q 1341 3281 1617 3432 
Q 1894 3584 2278 3584 
Q 2916 3584 3314 3078 
Q 3713 2572 3713 1747 
Q 3713 922 3314 415 
Q 2916 -91 2278 -91 
Q 1894 -91 1617 61 
Q 1341 213 1159 525 
z
M 3116 1747 
Q 3116 2381 2855 2742 
Q 2594 3103 2138 3103 
Q 1681 3103 1420 2742 
Q 1159 2381 1159 1747 
Q 1159 1113 1420 752 
Q 1681 391 2138 391 
Q 2594 391 2855 752 
Q 3116 1113 3116 1747 
z
" transform="scale(0.015625)"/>
      </defs>
      <use xlink:href="#DejaVuSans-53"/>
      <use xlink:href="#DejaVuSans-74" transform="translate(63.476562 0)"/>
      <use xlink:href="#DejaVuSans-65" transform="translate(102.685547 0)"/>
      <use xlink:href="#DejaVuSans-70" transform="translate(164.208984 0)"/>
     </g>
    </g>
   </g>
   <g id="matplotlib.axis_2">
    <g id="ytick_1">
     <g id="line2d_7">
      <defs>
       <path id="m84cdf342fd" d="M 0 0 
L -3.5 0 
" style="stroke: #000000; stroke-width: 0.8"/>
      </defs>
      <g>
       <use xlink:href="#m84cdf342fd" x="50.87" y="371.470498" style="stroke: #000000; stroke-width: 0.8"/>
      </g>
     </g>
     <g id="text_8">
      <!-- 20 -->
      <g transform="translate(31.145 375.269717) scale(0.1 -0.1)">
       <use xlink:href="#DejaVuSans-32"/>
       <use xlink:href="#DejaVuSans-30" transform="translate(63.623047 0)"/>
      </g>
     </g>
    </g>
    <g id="ytick_2">
     <g id="line2d_8">
      <g>
       <use xlink:href="#m84cdf342fd" x="50.87" y="310.834328" style="stroke: #000000; stroke-width: 0.8"/>
      </g>
     </g>
     <g id="text_9">
      <!-- 40 -->
      <g transform="translate(31.145 314.633546) scale(0.1 -0.1)">
       <defs>
        <path id="DejaVuSans-34" d="M 2419 4116 
L 825 1625 
L 2419 1625 
L 2419 4116 
z
M 2253 4666 
L 3047 4666 
L 3047 1625 
L 3713 1625 
L 3713 1100 
L 3047 1100 
L 3047 0 
L 2419 0 
L 2419 1100 
L 313 1100 
L 313 1709 
L 2253 4666 
z
" transform="scale(0.015625)"/>
       </defs>
       <use xlink:href="#DejaVuSans-34"/>
       <use xlink:href="#DejaVuSans-30" transform="translate(63.623047 0)"/>
      </g>
     </g>
    </g>
    <g id="ytick_3">
     <g id="line2d_9">
      <g>
       <use xlink:href="#m84cdf342fd" x="50.87" y="250.198158" style="stroke: #000000; stroke-width: 0.8"/>
      </g>
     </g>
     <g id="text_10">
      <!-- 60 -->
      <g transform="translate(31.145 253.997376) scale(0.1 -0.1)">
       <defs>
        <path id="DejaVuSans-36" d="M 2113 2584 
Q 1688 2584 1439 2293 
Q 1191 2003 1191 1497 
Q 1191 994 1439 701 
Q 1688 409 2113 409 
Q 2538 409 2786 701 
Q 3034 994 3034 1497 
Q 3034 2003 2786 2293 
Q 2538 2584 2113 2584 
z
M 3366 4563 
L 3366 3988 
Q 3128 4100 2886 4159 
Q 2644 4219 2406 4219 
Q 1781 4219 1451 3797 
Q 1122 3375 1075 2522 
Q 1259 2794 1537 2939 
Q 1816 3084 2150 3084 
Q 2853 3084 3261 2657 
Q 3669 2231 3669 1497 
Q 3669 778 3244 343 
Q 2819 -91 2113 -91 
Q 1303 -91 875 529 
Q 447 1150 447 2328 
Q 447 3434 972 4092 
Q 1497 4750 2381 4750 
Q 2619 4750 2861 4703 
Q 3103 4656 3366 4563 
z
" transform="scale(0.015625)"/>
       </defs>
       <use xlink:href="#DejaVuSans-36"/>
       <use xlink:href="#DejaVuSans-30" transform="translate(63.623047 0)"/>
      </g>
     </g>
    </g>
    <g id="ytick_4">
     <g id="line2d_10">
      <g>
       <use xlink:href="#m84cdf342fd" x="50.87" y="189.561987" style="stroke: #000000; stroke-width: 0.8"/>
      </g>
     </g>
     <g id="text_11">
      <!-- 80 -->
      <g transform="translate(31.145 193.361206) scale(0.1 -0.1)">
       <defs>
        <path id="DejaVuSans-38" d="M 2034 2216 
Q 1584 2216 1326 1975 
Q 1069 1734 1069 1313 
Q 1069 891 1326 650 
Q 1584 409 2034 409 
Q 2484 409 2743 651 
Q 3003 894 3003 1313 
Q 3003 1734 2745 1975 
Q 2488 2216 2034 2216 
z
M 1403 2484 
Q 997 2584 770 2862 
Q 544 3141 544 3541 
Q 544 4100 942 4425 
Q 1341 4750 2034 4750 
Q 2731 4750 3128 4425 
Q 3525 4100 3525 3541 
Q 3525 3141 3298 2862 
Q 3072 2584 2669 2484 
Q 3125 2378 3379 2068 
Q 3634 1759 3634 1313 
Q 3634 634 3220 271 
Q 2806 -91 2034 -91 
Q 1263 -91 848 271 
Q 434 634 434 1313 
Q 434 1759 690 2068 
Q 947 2378 1403 2484 
z
M 1172 3481 
Q 1172 3119 1398 2916 
Q 1625 2713 2034 2713 
Q 2441 2713 2670 2916 
Q 2900 3119 2900 3481 
Q 2900 3844 2670 4047 
Q 2441 4250 2034 4250 
Q 1625 4250 1398 4047 
Q 1172 3844 1172 3481 
z
" transform="scale(0.015625)"/>
       </defs>
       <use xlink:href="#DejaVuSans-38"/>
       <use xlink:href="#DejaVuSans-30" transform="translate(63.623047 0)"/>
      </g>
     </g>
    </g>
    <g id="ytick_5">
     <g id="line2d_11">
      <g>
       <use xlink:href="#m84cdf342fd" x="50.87" y="128.925817" style="stroke: #000000; stroke-width: 0.8"/>
      </g>
     </g>
     <g id="text_12">
      <!-- 100 -->
      <g transform="translate(24.7825 132.725036) scale(0.1 -0.1)">
       <use xlink:href="#DejaVuSans-31"/>
       <use xlink:href="#DejaVuSans-30" transform="translate(63.623047 0)"/>
       <use xlink:href="#DejaVuSans-30" transform="translate(127.246094 0)"/>
      </g>
     </g>
    </g>
    <g id="ytick_6">
     <g id="line2d_12">
      <g>
       <use xlink:href="#m84cdf342fd" x="50.87" y="68.289647" style="stroke: #000000; stroke-width: 0.8"/>
      </g>
     </g>
     <g id="text_13">
      <!-- 120 -->
      <g transform="translate(24.7825 72.088866) scale(0.1 -0.1)">
       <use xlink:href="#DejaVuSans-31"/>
       <use xlink:href="#DejaVuSans-32" transform="translate(63.623047 0)"/>
       <use xlink:href="#DejaVuSans-30" transform="translate(127.246094 0)"/>
      </g>
     </g>
    </g>
    <g id="text_14">
     <!-- Profit -->
     <g transform="translate(18.702813 229.779063) rotate(-90) scale(0.1 -0.1)">
      <defs>
       <path id="DejaVuSans-50" d="M 1259 4147 
L 1259 2394 
L 2053 2394 
Q 2494 2394 2734 2622 
Q 2975 2850 2975 3272 
Q 2975 3691 2734 3919 
Q 2494 4147 2053 4147 
L 1259 4147 
z
M 628 4666 
L 2053 4666 
Q 2838 4666 3239 4311 
Q 3641 3956 3641 3272 
Q 3641 2581 3239 2228 
Q 2838 1875 2053 1875 
L 1259 1875 
L 1259 0 
L 628 0 
L 628 4666 
z
" transform="scale(0.015625)"/>
       <path id="DejaVuSans-72" d="M 2631 2963 
Q 2534 3019 2420 3045 
Q 2306 3072 2169 3072 
Q 1681 3072 1420 2755 
Q 1159 2438 1159 1844 
L 1159 0 
L 581 0 
L 581 3500 
L 1159 3500 
L 1159 2956 
Q 1341 3275 1631 3429 
Q 1922 3584 2338 3584 
Q 2397 3584 2469 3576 
Q 2541 3569 2628 3553 
L 2631 2963 
z
" transform="scale(0.015625)"/>
       <path id="DejaVuSans-6f" d="M 1959 3097 
Q 1497 3097 1228 2736 
Q 959 2375 959 1747 
Q 959 1119 1226 758 
Q 1494 397 1959 397 
Q 2419 397 2687 759 
Q 2956 1122 2956 1747 
Q 2956 2369 2687 2733 
Q 2419 3097 1959 3097 
z
M 1959 3584 
Q 2709 3584 3137 3096 
Q 3566 2609 3566 1747 
Q 3566 888 3137 398 
Q 2709 -91 1959 -91 
Q 1206 -91 779 398 
Q 353 888 353 1747 
Q 353 2609 779 3096 
Q 1206 3584 1959 3584 
z
" transform="scale(0.015625)"/>
       <path id="DejaVuSans-66" d="M 2375 4863 
L 2375 4384 
L 1825 4384 
Q 1516 4384 1395 4259 
Q 1275 4134 1275 3809 
L 1275 3500 
L 2222 3500 
L 2222 3053 
L 1275 3053 
L 1275 0 
L 697 0 
L 697 3053 
L 147 3053 
L 147 3500 
L 697 3500 
L 697 3744 
Q 697 4328 969 4595 
Q 1241 4863 1831 4863 
L 2375 4863 
z
" transform="scale(0.015625)"/>
       <path id="DejaVuSans-69" d="M 603 3500 
L 1178 3500 
L 1178 0 
L 603 0 
L 603 3500 
z
M 603 4863 
L 1178 4863 
L 1178 4134 
L 603 4134 
L 603 4863 
z
" transform="scale(0.015625)"/>
      </defs>
      <use xlink:href="#DejaVuSans-50"/>
      <use xlink:href="#DejaVuSans-72" transform="translate(58.552734 0)"/>
      <use xlink:href="#DejaVuSans-6f" transform="translate(97.416016 0)"/>
      <use xlink:href="#DejaVuSans-66" transform="translate(158.597656 0)"/>
      <use xlink:href="#DejaVuSans-69" transform="translate(193.802734 0)"/>
      <use xlink:href="#DejaVuSans-74" transform="translate(221.585938 0)"/>
     </g>
    </g>
   </g>
   <g id="line2d_13">
    <path d="M 52.193327 239.711341 
L 54.83998 239.62164 
L 57.486633 236.995894 
L 62.77994 230.526769 
L 73.366553 221.258487 
L 78.65986 217.497686 
L 81.306513 215.886737 
L 83.953167 214.56837 
L 86.59982 213.781112 
L 89.246473 212.342464 
L 91.893127 211.238336 
L 94.53978 210.328529 
L 97.186433 209.283014 
L 99.833087 208.556335 
L 105.126393 206.838591 
L 107.773047 206.760756 
L 113.066353 205.307166 
L 115.713007 204.712495 
L 118.35966 203.847632 
L 121.006313 203.444761 
L 123.652967 202.490035 
L 126.29962 202.212696 
L 128.946273 201.795531 
L 131.592927 201.15092 
L 134.23958 200.864236 
L 136.886233 200.233689 
L 139.532887 199.39841 
L 142.17954 198.831704 
L 147.472847 198.304991 
L 155.412807 196.758161 
L 160.706113 196.540592 
L 163.352767 195.712114 
L 165.99942 195.155817 
L 171.292727 195.240637 
L 173.93938 194.617631 
L 176.586033 194.294308 
L 179.232687 193.756908 
L 181.87934 193.710068 
L 184.525993 193.522084 
L 189.8193 192.743291 
L 195.112607 192.955748 
L 197.75926 192.75437 
L 200.405913 192.704685 
L 203.052567 192.096135 
L 205.69922 191.80279 
L 210.992527 191.735317 
L 213.63918 191.304852 
L 218.932487 191.347389 
L 221.57914 191.147701 
L 224.225793 191.086936 
L 229.5191 190.312144 
L 232.165753 190.306084 
L 234.812407 190.067859 
L 240.105713 189.951002 
L 242.752367 189.58188 
L 245.39902 189.407358 
L 248.045673 189.624302 
L 250.692327 189.722446 
L 255.985633 188.512748 
L 261.27894 188.19153 
L 271.865553 188.040832 
L 274.512207 188.076431 
L 277.15886 187.683391 
L 279.805513 187.541923 
L 285.09882 186.986852 
L 287.745473 186.880357 
L 290.392127 186.890003 
L 293.03878 187.168706 
L 295.685433 187.2384 
L 300.97874 186.902054 
L 308.9187 186.396066 
L 311.565353 186.325378 
L 314.212007 186.499947 
L 316.85866 186.146322 
L 319.505313 186.152174 
L 324.79862 185.870903 
L 327.445273 185.287126 
L 330.091927 185.3552 
L 332.73858 185.067684 
L 335.385233 185.377152 
L 338.031887 185.222984 
L 340.67854 185.286201 
L 343.325193 184.921612 
L 345.971847 185.534904 
L 348.6185 185.74366 
L 351.265153 185.589493 
L 359.205113 184.58485 
L 361.851767 184.100328 
L 364.49842 184.284935 
L 367.145073 184.192111 
L 375.085033 183.558788 
L 377.731687 183.824909 
L 380.37834 183.770921 
L 388.3183 183.073526 
L 390.964953 183.147221 
L 393.611607 182.706185 
L 396.25826 182.436132 
L 401.551567 182.277107 
L 404.19822 182.686153 
L 412.13818 182.351959 
L 414.784833 182.421444 
L 420.07814 182.150304 
L 422.724793 182.314533 
L 425.371447 181.867621 
L 430.664753 181.695088 
L 433.311407 181.867575 
L 438.604713 181.727726 
L 441.251367 181.843242 
L 443.89802 182.251432 
L 449.191327 182.03377 
L 451.83798 181.43327 
L 454.484633 181.670385 
L 457.131287 181.785391 
L 459.77794 181.767858 
L 462.424593 181.611123 
L 465.071247 181.738713 
L 467.7179 181.563636 
L 470.364553 181.510412 
L 473.011207 181.197844 
L 475.65786 181.413447 
L 488.891127 180.696043 
L 491.53778 180.630028 
L 494.184433 180.395943 
L 496.831087 180.557929 
L 502.124393 180.501004 
L 504.771047 180.098735 
L 507.4177 179.887828 
L 512.711007 179.724616 
L 515.35766 179.376404 
L 518.004313 179.604405 
L 520.650967 179.252168 
L 523.29762 179.427616 
L 528.590927 179.291468 
L 531.23758 179.364677 
L 539.17754 179.033489 
L 541.824193 179.348254 
L 544.470847 179.263456 
L 549.764153 178.498472 
L 552.410807 178.839236 
L 557.704113 178.778402 
L 560.350767 178.947859 
L 562.99742 178.810022 
L 565.644073 178.545081 
L 570.93738 178.254858 
L 573.584033 177.864386 
L 576.230687 177.590864 
L 578.87734 177.716765 
L 581.523993 177.516197 
L 586.8173 177.74975 
L 589.463953 178.003981 
L 592.110607 177.77517 
L 594.75726 177.825017 
L 597.403913 177.993341 
L 600.050567 177.543283 
L 602.69722 177.612838 
L 605.343873 177.438223 
L 607.990527 177.697798 
L 610.63718 177.635807 
L 613.283833 177.971204 
L 615.930487 177.941782 
L 623.870447 177.206197 
L 626.5171 177.224494 
L 629.163753 176.970725 
L 634.45706 177.251349 
L 637.103713 177.065793 
L 639.750367 177.224517 
L 642.39702 177.129866 
L 645.043673 176.808948 
L 647.690327 177.113234 
L 652.983633 176.978173 
L 655.630287 177.196159 
L 660.923593 177.02543 
L 668.863553 176.600747 
L 671.510207 176.462725 
L 674.15686 176.692368 
L 676.803513 176.307933 
L 679.450167 176.418499 
L 682.09682 176.298889 
L 684.743473 176.566051 
L 687.390127 176.497167 
L 690.03678 176.692785 
L 692.683433 176.482016 
L 695.330087 176.704651 
L 700.623393 176.698822 
L 703.270047 176.53716 
L 705.9167 176.260261 
L 711.210007 176.760096 
L 713.85666 176.558672 
L 716.503313 176.530059 
L 719.149967 176.208008 
L 721.79662 176.062492 
L 729.73658 176.458862 
L 735.029887 176.220661 
L 737.67654 176.234539 
L 740.323193 176.073386 
L 742.969847 176.446695 
L 745.6165 176.438415 
L 748.263153 176.549003 
L 753.55646 176.54558 
L 756.203113 176.672013 
L 758.849767 176.284109 
L 761.49642 176.031265 
L 764.143073 176.175047 
L 766.789727 175.997841 
L 769.43638 175.986646 
L 777.37634 175.448691 
L 780.022993 175.376754 
L 785.3163 174.804774 
L 787.962953 175.015473 
L 790.609607 175.083478 
L 795.902913 174.787889 
L 801.19622 174.914461 
L 803.842873 174.772484 
L 806.489527 174.758443 
L 809.13618 174.493618 
L 817.07614 174.210057 
L 819.722793 174.420709 
L 822.369447 174.415783 
L 827.662753 174.909187 
L 830.309407 174.752961 
L 832.95606 174.464034 
L 835.602713 174.571823 
L 840.89602 174.613181 
L 843.542673 174.981587 
L 843.542673 174.981587 
" clip-path="url(#pc2f20c1429)" style="fill: none; stroke: #0000ff; stroke-width: 1.5; stroke-linecap: square"/>
   </g>
   <g id="patch_3">
    <path d="M 50.87 390.04 
L 50.87 43.44 
" style="fill: none; stroke: #000000; stroke-width: 0.8; stroke-linejoin: miter; stroke-linecap: square"/>
   </g>
   <g id="patch_4">
    <path d="M 844.866 390.04 
L 844.866 43.44 
" style="fill: none; stroke: #000000; stroke-width: 0.8; stroke-linejoin: miter; stroke-linecap: square"/>
   </g>
   <g id="patch_5">
    <path d="M 50.87 390.04 
L 844.866 390.04 
" style="fill: none; stroke: #000000; stroke-width: 0.8; stroke-linejoin: miter; stroke-linecap: square"/>
   </g>
   <g id="patch_6">
    <path d="M 50.87 43.44 
L 844.866 43.44 
" style="fill: none; stroke: #000000; stroke-width: 0.8; stroke-linejoin: miter; stroke-linecap: square"/>
   </g>
   <g id="text_15">
    <!-- Mean profit per step with confidence interval per simulation step -->
    <g transform="translate(220.284875 21.763062) scale(0.14 -0.14)">
     <defs>
      <path id="DejaVuSans-4d" d="M 628 4666 
L 1569 4666 
L 2759 1491 
L 3956 4666 
L 4897 4666 
L 4897 0 
L 4281 0 
L 4281 4097 
L 3078 897 
L 2444 897 
L 1241 4097 
L 1241 0 
L 628 0 
L 628 4666 
z
" transform="scale(0.015625)"/>
      <path id="DejaVuSans-61" d="M 2194 1759 
Q 1497 1759 1228 1600 
Q 959 1441 959 1056 
Q 959 750 1161 570 
Q 1363 391 1709 391 
Q 2188 391 2477 730 
Q 2766 1069 2766 1631 
L 2766 1759 
L 2194 1759 
z
M 3341 1997 
L 3341 0 
L 2766 0 
L 2766 531 
Q 2569 213 2275 61 
Q 1981 -91 1556 -91 
Q 1019 -91 701 211 
Q 384 513 384 1019 
Q 384 1609 779 1909 
Q 1175 2209 1959 2209 
L 2766 2209 
L 2766 2266 
Q 2766 2663 2505 2880 
Q 2244 3097 1772 3097 
Q 1472 3097 1187 3025 
Q 903 2953 641 2809 
L 641 3341 
Q 956 3463 1253 3523 
Q 1550 3584 1831 3584 
Q 2591 3584 2966 3190 
Q 3341 2797 3341 1997 
z
" transform="scale(0.015625)"/>
      <path id="DejaVuSans-6e" d="M 3513 2113 
L 3513 0 
L 2938 0 
L 2938 2094 
Q 2938 2591 2744 2837 
Q 2550 3084 2163 3084 
Q 1697 3084 1428 2787 
Q 1159 2491 1159 1978 
L 1159 0 
L 581 0 
L 581 3500 
L 1159 3500 
L 1159 2956 
Q 1366 3272 1645 3428 
Q 1925 3584 2291 3584 
Q 2894 3584 3203 3211 
Q 3513 2838 3513 2113 
z
" transform="scale(0.015625)"/>
      <path id="DejaVuSans-20" transform="scale(0.015625)"/>
      <path id="DejaVuSans-73" d="M 2834 3397 
L 2834 2853 
Q 2591 2978 2328 3040 
Q 2066 3103 1784 3103 
Q 1356 3103 1142 2972 
Q 928 2841 928 2578 
Q 928 2378 1081 2264 
Q 1234 2150 1697 2047 
L 1894 2003 
Q 2506 1872 2764 1633 
Q 3022 1394 3022 966 
Q 3022 478 2636 193 
Q 2250 -91 1575 -91 
Q 1294 -91 989 -36 
Q 684 19 347 128 
L 347 722 
Q 666 556 975 473 
Q 1284 391 1588 391 
Q 1994 391 2212 530 
Q 2431 669 2431 922 
Q 2431 1156 2273 1281 
Q 2116 1406 1581 1522 
L 1381 1569 
Q 847 1681 609 1914 
Q 372 2147 372 2553 
Q 372 3047 722 3315 
Q 1072 3584 1716 3584 
Q 2034 3584 2315 3537 
Q 2597 3491 2834 3397 
z
" transform="scale(0.015625)"/>
      <path id="DejaVuSans-77" d="M 269 3500 
L 844 3500 
L 1563 769 
L 2278 3500 
L 2956 3500 
L 3675 769 
L 4391 3500 
L 4966 3500 
L 4050 0 
L 3372 0 
L 2619 2869 
L 1863 0 
L 1184 0 
L 269 3500 
z
" transform="scale(0.015625)"/>
      <path id="DejaVuSans-68" d="M 3513 2113 
L 3513 0 
L 2938 0 
L 2938 2094 
Q 2938 2591 2744 2837 
Q 2550 3084 2163 3084 
Q 1697 3084 1428 2787 
Q 1159 2491 1159 1978 
L 1159 0 
L 581 0 
L 581 4863 
L 1159 4863 
L 1159 2956 
Q 1366 3272 1645 3428 
Q 1925 3584 2291 3584 
Q 2894 3584 3203 3211 
Q 3513 2838 3513 2113 
z
" transform="scale(0.015625)"/>
      <path id="DejaVuSans-63" d="M 3122 3366 
L 3122 2828 
Q 2878 2963 2633 3030 
Q 2388 3097 2138 3097 
Q 1578 3097 1268 2742 
Q 959 2388 959 1747 
Q 959 1106 1268 751 
Q 1578 397 2138 397 
Q 2388 397 2633 464 
Q 2878 531 3122 666 
L 3122 134 
Q 2881 22 2623 -34 
Q 2366 -91 2075 -91 
Q 1284 -91 818 406 
Q 353 903 353 1747 
Q 353 2603 823 3093 
Q 1294 3584 2113 3584 
Q 2378 3584 2631 3529 
Q 2884 3475 3122 3366 
z
" transform="scale(0.015625)"/>
      <path id="DejaVuSans-64" d="M 2906 2969 
L 2906 4863 
L 3481 4863 
L 3481 0 
L 2906 0 
L 2906 525 
Q 2725 213 2448 61 
Q 2172 -91 1784 -91 
Q 1150 -91 751 415 
Q 353 922 353 1747 
Q 353 2572 751 3078 
Q 1150 3584 1784 3584 
Q 2172 3584 2448 3432 
Q 2725 3281 2906 2969 
z
M 947 1747 
Q 947 1113 1208 752 
Q 1469 391 1925 391 
Q 2381 391 2643 752 
Q 2906 1113 2906 1747 
Q 2906 2381 2643 2742 
Q 2381 3103 1925 3103 
Q 1469 3103 1208 2742 
Q 947 2381 947 1747 
z
" transform="scale(0.015625)"/>
      <path id="DejaVuSans-76" d="M 191 3500 
L 800 3500 
L 1894 563 
L 2988 3500 
L 3597 3500 
L 2284 0 
L 1503 0 
L 191 3500 
z
" transform="scale(0.015625)"/>
      <path id="DejaVuSans-6c" d="M 603 4863 
L 1178 4863 
L 1178 0 
L 603 0 
L 603 4863 
z
" transform="scale(0.015625)"/>
      <path id="DejaVuSans-6d" d="M 3328 2828 
Q 3544 3216 3844 3400 
Q 4144 3584 4550 3584 
Q 5097 3584 5394 3201 
Q 5691 2819 5691 2113 
L 5691 0 
L 5113 0 
L 5113 2094 
Q 5113 2597 4934 2840 
Q 4756 3084 4391 3084 
Q 3944 3084 3684 2787 
Q 3425 2491 3425 1978 
L 3425 0 
L 2847 0 
L 2847 2094 
Q 2847 2600 2669 2842 
Q 2491 3084 2119 3084 
Q 1678 3084 1418 2786 
Q 1159 2488 1159 1978 
L 1159 0 
L 581 0 
L 581 3500 
L 1159 3500 
L 1159 2956 
Q 1356 3278 1631 3431 
Q 1906 3584 2284 3584 
Q 2666 3584 2933 3390 
Q 3200 3197 3328 2828 
z
" transform="scale(0.015625)"/>
      <path id="DejaVuSans-75" d="M 544 1381 
L 544 3500 
L 1119 3500 
L 1119 1403 
Q 1119 906 1312 657 
Q 1506 409 1894 409 
Q 2359 409 2629 706 
Q 2900 1003 2900 1516 
L 2900 3500 
L 3475 3500 
L 3475 0 
L 2900 0 
L 2900 538 
Q 2691 219 2414 64 
Q 2138 -91 1772 -91 
Q 1169 -91 856 284 
Q 544 659 544 1381 
z
M 1991 3584 
L 1991 3584 
z
" transform="scale(0.015625)"/>
     </defs>
     <use xlink:href="#DejaVuSans-4d"/>
     <use xlink:href="#DejaVuSans-65" transform="translate(86.279297 0)"/>
     <use xlink:href="#DejaVuSans-61" transform="translate(147.802734 0)"/>
     <use xlink:href="#DejaVuSans-6e" transform="translate(209.082031 0)"/>
     <use xlink:href="#DejaVuSans-20" transform="translate(272.460938 0)"/>
     <use xlink:href="#DejaVuSans-70" transform="translate(304.248047 0)"/>
     <use xlink:href="#DejaVuSans-72" transform="translate(367.724609 0)"/>
     <use xlink:href="#DejaVuSans-6f" transform="translate(406.587891 0)"/>
     <use xlink:href="#DejaVuSans-66" transform="translate(467.769531 0)"/>
     <use xlink:href="#DejaVuSans-69" transform="translate(502.974609 0)"/>
     <use xlink:href="#DejaVuSans-74" transform="translate(530.757812 0)"/>
     <use xlink:href="#DejaVuSans-20" transform="translate(569.966797 0)"/>
     <use xlink:href="#DejaVuSans-70" transform="translate(601.753906 0)"/>
     <use xlink:href="#DejaVuSans-65" transform="translate(665.230469 0)"/>
     <use xlink:href="#DejaVuSans-72" transform="translate(726.753906 0)"/>
     <use xlink:href="#DejaVuSans-20" transform="translate(767.867188 0)"/>
     <use xlink:href="#DejaVuSans-73" transform="translate(799.654297 0)"/>
     <use xlink:href="#DejaVuSans-74" transform="translate(851.753906 0)"/>
     <use xlink:href="#DejaVuSans-65" transform="translate(890.962891 0)"/>
     <use xlink:href="#DejaVuSans-70" transform="translate(952.486328 0)"/>
     <use xlink:href="#DejaVuSans-20" transform="translate(1015.962891 0)"/>
     <use xlink:href="#DejaVuSans-77" transform="translate(1047.75 0)"/>
     <use xlink:href="#DejaVuSans-69" transform="translate(1129.537109 0)"/>
     <use xlink:href="#DejaVuSans-74" transform="translate(1157.320312 0)"/>
     <use xlink:href="#DejaVuSans-68" transform="translate(1196.529297 0)"/>
     <use xlink:href="#DejaVuSans-20" transform="translate(1259.908203 0)"/>
     <use xlink:href="#DejaVuSans-63" transform="translate(1291.695312 0)"/>
     <use xlink:href="#DejaVuSans-6f" transform="translate(1346.675781 0)"/>
     <use xlink:href="#DejaVuSans-6e" transform="translate(1407.857422 0)"/>
     <use xlink:href="#DejaVuSans-66" transform="translate(1471.236328 0)"/>
     <use xlink:href="#DejaVuSans-69" transform="translate(1506.441406 0)"/>
     <use xlink:href="#DejaVuSans-64" transform="translate(1534.224609 0)"/>
     <use xlink:href="#DejaVuSans-65" transform="translate(1597.701172 0)"/>
     <use xlink:href="#DejaVuSans-6e" transform="translate(1659.224609 0)"/>
     <use xlink:href="#DejaVuSans-63" transform="translate(1722.603516 0)"/>
     <use xlink:href="#DejaVuSans-65" transform="translate(1777.583984 0)"/>
     <use xlink:href="#DejaVuSans-20" transform="translate(1839.107422 0)"/>
     <use xlink:href="#DejaVuSans-69" transform="translate(1870.894531 0)"/>
     <use xlink:href="#DejaVuSans-6e" transform="translate(1898.677734 0)"/>
     <use xlink:href="#DejaVuSans-74" transform="translate(1962.056641 0)"/>
     <use xlink:href="#DejaVuSans-65" transform="translate(2001.265625 0)"/>
     <use xlink:href="#DejaVuSans-72" transform="translate(2062.789062 0)"/>
     <use xlink:href="#DejaVuSans-76" transform="translate(2103.902344 0)"/>
     <use xlink:href="#DejaVuSans-61" transform="translate(2163.082031 0)"/>
     <use xlink:href="#DejaVuSans-6c" transform="translate(2224.361328 0)"/>
     <use xlink:href="#DejaVuSans-20" transform="translate(2252.144531 0)"/>
     <use xlink:href="#DejaVuSans-70" transform="translate(2283.931641 0)"/>
     <use xlink:href="#DejaVuSans-65" transform="translate(2347.408203 0)"/>
     <use xlink:href="#DejaVuSans-72" transform="translate(2408.931641 0)"/>
     <use xlink:href="#DejaVuSans-20" transform="translate(2450.044922 0)"/>
     <use xlink:href="#DejaVuSans-73" transform="translate(2481.832031 0)"/>
     <use xlink:href="#DejaVuSans-69" transform="translate(2533.931641 0)"/>
     <use xlink:href="#DejaVuSans-6d" transform="translate(2561.714844 0)"/>
     <use xlink:href="#DejaVuSans-75" transform="translate(2659.126953 0)"/>
     <use xlink:href="#DejaVuSans-6c" transform="translate(2722.505859 0)"/>
     <use xlink:href="#DejaVuSans-61" transform="translate(2750.289062 0)"/>
     <use xlink:href="#DejaVuSans-74" transform="translate(2811.568359 0)"/>
     <use xlink:href="#DejaVuSans-69" transform="translate(2850.777344 0)"/>
     <use xlink:href="#DejaVuSans-6f" transform="translate(2878.560547 0)"/>
     <use xlink:href="#DejaVuSans-6e" transform="translate(2939.742188 0)"/>
     <use xlink:href="#DejaVuSans-20" transform="translate(3003.121094 0)"/>
     <use xlink:href="#DejaVuSans-73" transform="translate(3034.908203 0)"/>
     <use xlink:href="#DejaVuSans-74" transform="translate(3087.007812 0)"/>
     <use xlink:href="#DejaVuSans-65" transform="translate(3126.216797 0)"/>
     <use xlink:href="#DejaVuSans-70" transform="translate(3187.740234 0)"/>
    </g>
    <!-- Base Product: Grandaddy Purple, Recipe size: 8, T0: 50.0 -->
    <g transform="translate(248.283781 37.44) scale(0.14 -0.14)">
     <defs>
      <path id="DejaVuSans-42" d="M 1259 2228 
L 1259 519 
L 2272 519 
Q 2781 519 3026 730 
Q 3272 941 3272 1375 
Q 3272 1813 3026 2020 
Q 2781 2228 2272 2228 
L 1259 2228 
z
M 1259 4147 
L 1259 2741 
L 2194 2741 
Q 2656 2741 2882 2914 
Q 3109 3088 3109 3444 
Q 3109 3797 2882 3972 
Q 2656 4147 2194 4147 
L 1259 4147 
z
M 628 4666 
L 2241 4666 
Q 2963 4666 3353 4366 
Q 3744 4066 3744 3513 
Q 3744 3084 3544 2831 
Q 3344 2578 2956 2516 
Q 3422 2416 3680 2098 
Q 3938 1781 3938 1306 
Q 3938 681 3513 340 
Q 3088 0 2303 0 
L 628 0 
L 628 4666 
z
" transform="scale(0.015625)"/>
      <path id="DejaVuSans-3a" d="M 750 794 
L 1409 794 
L 1409 0 
L 750 0 
L 750 794 
z
M 750 3309 
L 1409 3309 
L 1409 2516 
L 750 2516 
L 750 3309 
z
" transform="scale(0.015625)"/>
      <path id="DejaVuSans-47" d="M 3809 666 
L 3809 1919 
L 2778 1919 
L 2778 2438 
L 4434 2438 
L 4434 434 
Q 4069 175 3628 42 
Q 3188 -91 2688 -91 
Q 1594 -91 976 548 
Q 359 1188 359 2328 
Q 359 3472 976 4111 
Q 1594 4750 2688 4750 
Q 3144 4750 3555 4637 
Q 3966 4525 4313 4306 
L 4313 3634 
Q 3963 3931 3569 4081 
Q 3175 4231 2741 4231 
Q 1884 4231 1454 3753 
Q 1025 3275 1025 2328 
Q 1025 1384 1454 906 
Q 1884 428 2741 428 
Q 3075 428 3337 486 
Q 3600 544 3809 666 
z
" transform="scale(0.015625)"/>
      <path id="DejaVuSans-79" d="M 2059 -325 
Q 1816 -950 1584 -1140 
Q 1353 -1331 966 -1331 
L 506 -1331 
L 506 -850 
L 844 -850 
Q 1081 -850 1212 -737 
Q 1344 -625 1503 -206 
L 1606 56 
L 191 3500 
L 800 3500 
L 1894 763 
L 2988 3500 
L 3597 3500 
L 2059 -325 
z
" transform="scale(0.015625)"/>
      <path id="DejaVuSans-2c" d="M 750 794 
L 1409 794 
L 1409 256 
L 897 -744 
L 494 -744 
L 750 256 
L 750 794 
z
" transform="scale(0.015625)"/>
      <path id="DejaVuSans-52" d="M 2841 2188 
Q 3044 2119 3236 1894 
Q 3428 1669 3622 1275 
L 4263 0 
L 3584 0 
L 2988 1197 
Q 2756 1666 2539 1819 
Q 2322 1972 1947 1972 
L 1259 1972 
L 1259 0 
L 628 0 
L 628 4666 
L 2053 4666 
Q 2853 4666 3247 4331 
Q 3641 3997 3641 3322 
Q 3641 2881 3436 2590 
Q 3231 2300 2841 2188 
z
M 1259 4147 
L 1259 2491 
L 2053 2491 
Q 2509 2491 2742 2702 
Q 2975 2913 2975 3322 
Q 2975 3731 2742 3939 
Q 2509 4147 2053 4147 
L 1259 4147 
z
" transform="scale(0.015625)"/>
      <path id="DejaVuSans-7a" d="M 353 3500 
L 3084 3500 
L 3084 2975 
L 922 459 
L 3084 459 
L 3084 0 
L 275 0 
L 275 525 
L 2438 3041 
L 353 3041 
L 353 3500 
z
" transform="scale(0.015625)"/>
      <path id="DejaVuSans-54" d="M -19 4666 
L 3928 4666 
L 3928 4134 
L 2272 4134 
L 2272 0 
L 1638 0 
L 1638 4134 
L -19 4134 
L -19 4666 
z
" transform="scale(0.015625)"/>
      <path id="DejaVuSans-2e" d="M 684 794 
L 1344 794 
L 1344 0 
L 684 0 
L 684 794 
z
" transform="scale(0.015625)"/>
     </defs>
     <use xlink:href="#DejaVuSans-42"/>
     <use xlink:href="#DejaVuSans-61" transform="translate(68.603516 0)"/>
     <use xlink:href="#DejaVuSans-73" transform="translate(129.882812 0)"/>
     <use xlink:href="#DejaVuSans-65" transform="translate(181.982422 0)"/>
     <use xlink:href="#DejaVuSans-20" transform="translate(243.505859 0)"/>
     <use xlink:href="#DejaVuSans-50" transform="translate(275.292969 0)"/>
     <use xlink:href="#DejaVuSans-72" transform="translate(333.845703 0)"/>
     <use xlink:href="#DejaVuSans-6f" transform="translate(372.708984 0)"/>
     <use xlink:href="#DejaVuSans-64" transform="translate(433.890625 0)"/>
     <use xlink:href="#DejaVuSans-75" transform="translate(497.367188 0)"/>
     <use xlink:href="#DejaVuSans-63" transform="translate(560.746094 0)"/>
     <use xlink:href="#DejaVuSans-74" transform="translate(615.726562 0)"/>
     <use xlink:href="#DejaVuSans-3a" transform="translate(654.935547 0)"/>
     <use xlink:href="#DejaVuSans-20" transform="translate(688.626953 0)"/>
     <use xlink:href="#DejaVuSans-47" transform="translate(720.414062 0)"/>
     <use xlink:href="#DejaVuSans-72" transform="translate(797.904297 0)"/>
     <use xlink:href="#DejaVuSans-61" transform="translate(839.017578 0)"/>
     <use xlink:href="#DejaVuSans-6e" transform="translate(900.296875 0)"/>
     <use xlink:href="#DejaVuSans-64" transform="translate(963.675781 0)"/>
     <use xlink:href="#DejaVuSans-61" transform="translate(1027.152344 0)"/>
     <use xlink:href="#DejaVuSans-64" transform="translate(1088.431641 0)"/>
     <use xlink:href="#DejaVuSans-64" transform="translate(1151.908203 0)"/>
     <use xlink:href="#DejaVuSans-79" transform="translate(1215.384766 0)"/>
     <use xlink:href="#DejaVuSans-20" transform="translate(1274.564453 0)"/>
     <use xlink:href="#DejaVuSans-50" transform="translate(1306.351562 0)"/>
     <use xlink:href="#DejaVuSans-75" transform="translate(1364.904297 0)"/>
     <use xlink:href="#DejaVuSans-72" transform="translate(1428.283203 0)"/>
     <use xlink:href="#DejaVuSans-70" transform="translate(1469.396484 0)"/>
     <use xlink:href="#DejaVuSans-6c" transform="translate(1532.873047 0)"/>
     <use xlink:href="#DejaVuSans-65" transform="translate(1560.65625 0)"/>
     <use xlink:href="#DejaVuSans-2c" transform="translate(1622.179688 0)"/>
     <use xlink:href="#DejaVuSans-20" transform="translate(1653.966797 0)"/>
     <use xlink:href="#DejaVuSans-52" transform="translate(1685.753906 0)"/>
     <use xlink:href="#DejaVuSans-65" transform="translate(1750.736328 0)"/>
     <use xlink:href="#DejaVuSans-63" transform="translate(1812.259766 0)"/>
     <use xlink:href="#DejaVuSans-69" transform="translate(1867.240234 0)"/>
     <use xlink:href="#DejaVuSans-70" transform="translate(1895.023438 0)"/>
     <use xlink:href="#DejaVuSans-65" transform="translate(1958.5 0)"/>
     <use xlink:href="#DejaVuSans-20" transform="translate(2020.023438 0)"/>
     <use xlink:href="#DejaVuSans-73" transform="translate(2051.810547 0)"/>
     <use xlink:href="#DejaVuSans-69" transform="translate(2103.910156 0)"/>
     <use xlink:href="#DejaVuSans-7a" transform="translate(2131.693359 0)"/>
     <use xlink:href="#DejaVuSans-65" transform="translate(2184.183594 0)"/>
     <use xlink:href="#DejaVuSans-3a" transform="translate(2245.707031 0)"/>
     <use xlink:href="#DejaVuSans-20" transform="translate(2279.398438 0)"/>
     <use xlink:href="#DejaVuSans-38" transform="translate(2311.185547 0)"/>
     <use xlink:href="#DejaVuSans-2c" transform="translate(2374.808594 0)"/>
     <use xlink:href="#DejaVuSans-20" transform="translate(2406.595703 0)"/>
     <use xlink:href="#DejaVuSans-54" transform="translate(2438.382812 0)"/>
     <use xlink:href="#DejaVuSans-30" transform="translate(2499.466797 0)"/>
     <use xlink:href="#DejaVuSans-3a" transform="translate(2563.089844 0)"/>
     <use xlink:href="#DejaVuSans-20" transform="translate(2596.78125 0)"/>
     <use xlink:href="#DejaVuSans-35" transform="translate(2628.568359 0)"/>
     <use xlink:href="#DejaVuSans-30" transform="translate(2692.191406 0)"/>
     <use xlink:href="#DejaVuSans-2e" transform="translate(2755.814453 0)"/>
     <use xlink:href="#DejaVuSans-30" transform="translate(2787.601562 0)"/>
    </g>
   </g>
  </g>
 </g>
 <defs>
  <clipPath id="pc2f20c1429">
   <rect x="50.87" y="43.44" width="793.996" height="346.6"/>
  </clipPath>
 </defs>
</svg>
