<?xml version="1.0" encoding="utf-8" standalone="no"?>
<!DOCTYPE svg PUBLIC "-//W3C//DTD SVG 1.1//EN"
  "http://www.w3.org/Graphics/SVG/1.1/DTD/svg11.dtd">
<svg xmlns:xlink="http://www.w3.org/1999/xlink" width="864pt" height="432pt" viewBox="0 0 864 432" xmlns="http://www.w3.org/2000/svg" version="1.1">
 <metadata>
  <rdf:RDF xmlns:dc="http://purl.org/dc/elements/1.1/" xmlns:cc="http://creativecommons.org/ns#" xmlns:rdf="http://www.w3.org/1999/02/22-rdf-syntax-ns#">
   <cc:Work>
    <dc:type rdf:resource="http://purl.org/dc/dcmitype/StillImage"/>
    <dc:date>2025-05-24T02:14:04.725571</dc:date>
    <dc:format>image/svg+xml</dc:format>
    <dc:creator>
     <cc:Agent>
      <dc:title>Matplotlib v3.10.3, https://matplotlib.org/</dc:title>
     </cc:Agent>
    </dc:creator>
   </cc:Work>
  </rdf:RDF>
 </metadata>
 <defs>
  <style type="text/css">*{stroke-linejoin: round; stroke-linecap: butt}</style>
 </defs>
 <g id="figure_1">
  <g id="patch_1">
   <path d="M 0 432 
L 864 432 
L 864 0 
L 0 0 
z
" style="fill: #ffffff"/>
  </g>
  <g id="axes_1">
   <g id="patch_2">
    <path d="M 50.87 390.04 
L 844.866 390.04 
L 844.866 43.44 
L 50.87 43.44 
z
" style="fill: #ffffff"/>
   </g>
   <g id="FillBetweenPolyCollection_1">
    <defs>
     <path id="mfe5d851c8e" d="M 52.193327 -310.025258 
L 52.193327 -57.844492 
L 54.83998 -57.714545 
L 57.486633 -65.13534 
L 60.133287 -73.389669 
L 62.77994 -78.902089 
L 65.426593 -86.03594 
L 68.073247 -94.180505 
L 70.7199 -98.728887 
L 73.366553 -103.643209 
L 76.013207 -107.605546 
L 78.65986 -113.579497 
L 81.306513 -117.877884 
L 83.953167 -122.002606 
L 86.59982 -124.910478 
L 89.246473 -127.355512 
L 91.893127 -129.862541 
L 94.53978 -132.705729 
L 97.186433 -135.573256 
L 99.833087 -138.578079 
L 102.47974 -140.857889 
L 105.126393 -143.816175 
L 107.773047 -145.869462 
L 110.4197 -147.902138 
L 113.066353 -149.325317 
L 115.713007 -149.401935 
L 118.35966 -151.451987 
L 121.006313 -152.702144 
L 123.652967 -153.879956 
L 126.29962 -155.654677 
L 128.946273 -156.751758 
L 131.592927 -157.806908 
L 134.23958 -158.53852 
L 136.886233 -159.992756 
L 139.532887 -161.183209 
L 142.17954 -162.436354 
L 144.826193 -163.258972 
L 147.472847 -163.99007 
L 150.1195 -164.113857 
L 152.766153 -165.343358 
L 155.412807 -165.915628 
L 158.05946 -166.512493 
L 160.706113 -167.568265 
L 163.352767 -167.827623 
L 165.99942 -169.535903 
L 168.646073 -170.195043 
L 171.292727 -171.365163 
L 173.93938 -172.826502 
L 176.586033 -174.011363 
L 179.232687 -174.703059 
L 181.87934 -175.127598 
L 184.525993 -175.759077 
L 187.172647 -176.437414 
L 189.8193 -176.242633 
L 192.465953 -177.084716 
L 195.112607 -177.307147 
L 197.75926 -178.143798 
L 200.405913 -178.250295 
L 203.052567 -178.767371 
L 205.69922 -179.140789 
L 208.345873 -179.232255 
L 210.992527 -179.450572 
L 213.63918 -179.185 
L 216.285833 -179.973273 
L 218.932487 -180.179281 
L 221.57914 -180.336234 
L 224.225793 -181.151856 
L 226.872447 -181.821698 
L 229.5191 -182.126039 
L 232.165753 -182.456262 
L 234.812407 -183.27092 
L 237.45906 -184.329124 
L 240.105713 -184.591471 
L 242.752367 -183.872436 
L 245.39902 -184.450447 
L 248.045673 -184.805138 
L 250.692327 -185.934754 
L 253.33898 -186.473567 
L 255.985633 -187.179436 
L 258.632287 -186.947674 
L 261.27894 -187.822827 
L 263.925593 -188.301991 
L 266.572247 -188.339186 
L 269.2189 -188.441601 
L 271.865553 -188.789104 
L 274.512207 -189.346814 
L 277.15886 -190.040192 
L 279.805513 -189.942727 
L 282.452167 -190.04572 
L 285.09882 -190.339916 
L 287.745473 -190.449701 
L 290.392127 -191.570478 
L 293.03878 -192.059755 
L 295.685433 -192.491397 
L 298.332087 -192.672208 
L 300.97874 -192.553082 
L 303.625393 -193.012812 
L 306.272047 -193.320656 
L 308.9187 -193.365479 
L 311.565353 -193.534056 
L 314.212007 -193.92606 
L 316.85866 -194.500054 
L 319.505313 -194.490413 
L 322.151967 -195.27395 
L 324.79862 -195.621539 
L 327.445273 -195.681616 
L 330.091927 -195.969042 
L 332.73858 -195.999466 
L 335.385233 -196.37163 
L 338.031887 -196.359675 
L 340.67854 -196.390571 
L 343.325193 -196.729825 
L 345.971847 -197.075292 
L 348.6185 -197.4938 
L 351.265153 -197.987426 
L 353.911807 -197.817349 
L 356.55846 -198.56247 
L 359.205113 -198.860737 
L 361.851767 -198.527504 
L 364.49842 -198.112274 
L 367.145073 -198.343735 
L 369.791727 -198.396657 
L 372.43838 -198.73094 
L 375.085033 -198.690253 
L 377.731687 -198.880427 
L 380.37834 -199.101326 
L 383.024993 -199.090549 
L 385.671647 -198.798517 
L 388.3183 -199.01963 
L 390.964953 -199.271724 
L 393.611607 -199.496008 
L 396.25826 -199.77917 
L 398.904913 -200.288073 
L 401.551567 -200.139979 
L 404.19822 -200.905047 
L 406.844873 -201.3603 
L 409.491527 -201.240916 
L 412.13818 -201.842999 
L 414.784833 -201.945199 
L 417.431487 -202.630285 
L 420.07814 -202.597354 
L 422.724793 -202.028995 
L 425.371447 -202.148915 
L 428.0181 -202.684792 
L 430.664753 -203.277212 
L 433.311407 -203.5785 
L 435.95806 -203.839208 
L 438.604713 -203.819968 
L 441.251367 -203.708383 
L 443.89802 -203.728737 
L 446.544673 -203.635643 
L 449.191327 -203.898728 
L 451.83798 -203.529757 
L 454.484633 -204.15453 
L 457.131287 -204.418515 
L 459.77794 -204.253495 
L 462.424593 -204.469209 
L 465.071247 -204.658312 
L 467.7179 -204.812684 
L 470.364553 -204.74065 
L 473.011207 -205.037075 
L 475.65786 -205.272779 
L 478.304513 -204.91137 
L 480.951167 -205.120378 
L 483.59782 -205.077398 
L 486.244473 -205.09321 
L 488.891127 -204.874925 
L 491.53778 -205.761477 
L 494.184433 -206.045389 
L 496.831087 -205.654948 
L 499.47774 -205.358696 
L 502.124393 -205.963521 
L 504.771047 -205.69645 
L 507.4177 -205.93946 
L 510.064353 -206.42728 
L 512.711007 -206.933783 
L 515.35766 -206.521746 
L 518.004313 -207.116565 
L 520.650967 -207.481145 
L 523.29762 -207.843496 
L 525.944273 -207.967229 
L 528.590927 -208.210196 
L 531.23758 -208.617134 
L 533.884233 -209.271025 
L 536.530887 -209.000847 
L 539.17754 -208.71972 
L 541.824193 -208.546558 
L 544.470847 -208.86383 
L 547.1175 -208.858002 
L 549.764153 -208.502528 
L 552.410807 -208.802145 
L 555.05746 -208.68169 
L 557.704113 -208.949361 
L 560.350767 -209.007339 
L 562.99742 -209.144934 
L 565.644073 -209.35467 
L 568.290727 -209.387902 
L 570.93738 -209.513006 
L 573.584033 -209.45655 
L 576.230687 -209.961938 
L 578.87734 -210.096663 
L 581.523993 -210.010789 
L 584.170647 -210.234687 
L 586.8173 -210.349143 
L 589.463953 -210.60998 
L 592.110607 -210.822629 
L 594.75726 -210.535954 
L 597.403913 -210.519263 
L 600.050567 -211.073074 
L 602.69722 -211.131631 
L 605.343873 -210.79724 
L 607.990527 -210.606123 
L 610.63718 -210.92648 
L 613.283833 -211.333439 
L 615.930487 -211.49561 
L 618.57714 -211.686106 
L 621.223793 -211.013596 
L 623.870447 -211.308842 
L 626.5171 -211.193465 
L 629.163753 -211.517271 
L 631.810407 -211.768852 
L 634.45706 -212.196423 
L 637.103713 -212.220291 
L 639.750367 -212.370399 
L 642.39702 -212.50988 
L 645.043673 -212.622086 
L 647.690327 -212.71186 
L 650.33698 -213.124947 
L 652.983633 -213.148644 
L 655.630287 -212.687456 
L 658.27694 -212.746634 
L 660.923593 -212.96404 
L 663.570247 -212.462615 
L 666.2169 -212.865568 
L 668.863553 -213.57208 
L 671.510207 -213.735558 
L 674.15686 -214.109736 
L 676.803513 -214.004386 
L 679.450167 -213.839665 
L 682.09682 -213.808512 
L 684.743473 -213.45426 
L 687.390127 -213.689278 
L 690.03678 -214.204951 
L 692.683433 -214.420279 
L 695.330087 -214.423279 
L 697.97674 -213.854299 
L 700.623393 -214.257294 
L 703.270047 -214.552326 
L 705.9167 -214.520423 
L 708.563353 -214.567088 
L 711.210007 -214.610947 
L 713.85666 -214.623223 
L 716.503313 -215.073977 
L 719.149967 -214.823682 
L 721.79662 -215.262501 
L 724.443273 -215.89051 
L 727.089927 -215.694957 
L 729.73658 -216.098339 
L 732.383233 -216.028448 
L 735.029887 -215.749829 
L 737.67654 -215.600406 
L 740.323193 -215.287955 
L 742.969847 -215.358488 
L 745.6165 -215.574781 
L 748.263153 -215.867434 
L 750.909807 -216.325751 
L 753.55646 -216.478644 
L 756.203113 -216.464204 
L 758.849767 -216.727804 
L 761.49642 -216.867263 
L 764.143073 -216.781753 
L 766.789727 -216.837289 
L 769.43638 -216.977306 
L 772.083033 -216.832125 
L 774.729687 -216.995903 
L 777.37634 -217.208532 
L 780.022993 -217.56724 
L 782.669647 -217.778583 
L 785.3163 -217.644351 
L 787.962953 -217.83744 
L 790.609607 -217.90568 
L 793.25626 -217.966144 
L 795.902913 -218.439073 
L 798.549567 -218.539752 
L 801.19622 -218.409698 
L 803.842873 -218.790239 
L 806.489527 -218.730012 
L 809.13618 -218.834955 
L 811.782833 -218.962395 
L 814.429487 -219.134036 
L 817.07614 -219.663443 
L 819.722793 -219.837012 
L 822.369447 -219.68399 
L 825.0161 -219.813016 
L 827.662753 -219.716814 
L 830.309407 -219.777278 
L 832.95606 -219.880228 
L 835.602713 -220.392966 
L 838.249367 -220.636469 
L 840.89602 -220.398108 
L 843.542673 -219.978272 
L 843.542673 -372.805455 
L 843.542673 -372.805455 
L 840.89602 -372.391853 
L 838.249367 -372.138387 
L 835.602713 -372.22589 
L 832.95606 -372.495554 
L 830.309407 -372.2591 
L 827.662753 -372.267799 
L 825.0161 -372.194223 
L 822.369447 -372.285153 
L 819.722793 -372.147172 
L 817.07614 -372.167612 
L 814.429487 -372.521564 
L 811.782833 -372.589869 
L 809.13618 -372.466029 
L 806.489527 -372.523664 
L 803.842873 -372.505581 
L 801.19622 -372.579799 
L 798.549567 -372.144815 
L 795.902913 -372.131317 
L 793.25626 -372.566601 
L 790.609607 -372.52195 
L 787.962953 -372.476613 
L 785.3163 -372.511023 
L 782.669647 -372.202065 
L 780.022993 -372.224861 
L 777.37634 -372.333747 
L 774.729687 -372.241531 
L 772.083033 -372.146015 
L 769.43638 -371.876866 
L 766.789727 -371.932744 
L 764.143073 -371.859639 
L 761.49642 -371.812631 
L 758.849767 -371.798362 
L 756.203113 -371.978209 
L 753.55646 -371.921088 
L 750.909807 -371.87738 
L 748.263153 -372.104192 
L 745.6165 -372.305336 
L 742.969847 -372.320377 
L 740.323193 -372.279711 
L 737.67654 -372.138945 
L 735.029887 -371.972038 
L 732.383233 -371.646797 
L 729.73658 -371.488975 
L 727.089927 -371.644697 
L 724.443273 -371.491546 
L 721.79662 -371.753539 
L 719.149967 -371.867653 
L 716.503313 -371.532212 
L 713.85666 -371.712445 
L 711.210007 -371.604588 
L 708.563353 -371.596061 
L 705.9167 -371.467935 
L 703.270047 -371.569064 
L 700.623393 -371.77865 
L 697.97674 -371.937372 
L 695.330087 -371.460436 
L 692.683433 -371.328454 
L 690.03678 -371.419556 
L 687.390127 -371.599489 
L 684.743473 -371.771023 
L 682.09682 -371.539883 
L 679.450167 -371.481776 
L 676.803513 -371.320484 
L 674.15686 -371.098214 
L 671.510207 -371.207742 
L 668.863553 -371.238852 
L 666.2169 -371.504102 
L 663.570247 -371.571807 
L 660.923593 -371.060204 
L 658.27694 -371.223125 
L 655.630287 -371.158591 
L 652.983633 -370.75416 
L 650.33698 -370.563043 
L 647.690327 -370.84749 
L 645.043673 -370.992499 
L 642.39702 -370.934436 
L 639.750367 -370.842734 
L 637.103713 -370.726521 
L 634.45706 -370.628606 
L 631.810407 -370.774386 
L 629.163753 -370.845219 
L 626.5171 -370.999356 
L 623.870447 -370.918366 
L 621.223793 -370.977458 
L 618.57714 -370.473269 
L 615.930487 -370.361642 
L 613.283833 -370.409721 
L 610.63718 -370.560343 
L 607.990527 -370.717222 
L 605.343873 -370.589611 
L 602.69722 -370.210891 
L 600.050567 -370.063268 
L 597.403913 -370.31819 
L 594.75726 -370.160412 
L 592.110607 -369.709958 
L 589.463953 -369.702673 
L 586.8173 -369.775649 
L 584.170647 -369.607586 
L 581.523993 -369.562035 
L 578.87734 -369.320439 
L 576.230687 -369.445694 
L 573.584033 -369.643881 
L 570.93738 -369.439652 
L 568.290727 -369.373232 
L 565.644073 -369.186186 
L 562.99742 -369.24305 
L 560.350767 -369.186743 
L 557.704113 -369.078715 
L 555.05746 -369.022537 
L 552.410807 -368.957488 
L 549.764153 -369.051418 
L 547.1175 -368.483724 
L 544.470847 -368.298306 
L 541.824193 -368.387394 
L 539.17754 -368.124244 
L 536.530887 -367.934798 
L 533.884233 -367.511941 
L 531.23758 -367.660978 
L 528.590927 -367.710085 
L 525.944273 -367.724141 
L 523.29762 -367.694873 
L 520.650967 -367.879262 
L 518.004313 -367.9165 
L 515.35766 -368.174251 
L 512.711007 -367.790817 
L 510.064353 -367.974907 
L 507.4177 -368.137399 
L 504.771047 -368.124629 
L 502.124393 -367.850295 
L 499.47774 -368.09969 
L 496.831087 -367.683389 
L 494.184433 -367.180442 
L 491.53778 -367.219266 
L 488.891127 -367.620997 
L 486.244473 -367.2826 
L 483.59782 -367.260103 
L 480.951167 -367.194155 
L 478.304513 -367.084413 
L 475.65786 -366.765041 
L 473.011207 -366.781239 
L 470.364553 -366.699007 
L 467.7179 -366.405861 
L 465.071247 -366.539429 
L 462.424593 -366.511747 
L 459.77794 -366.503777 
L 457.131287 -366.076034 
L 454.484633 -366.257339 
L 451.83798 -366.409161 
L 449.191327 -365.906429 
L 446.544673 -365.934796 
L 443.89802 -365.81327 
L 441.251367 -365.593357 
L 438.604713 -365.273771 
L 435.95806 -365.073141 
L 433.311407 -364.942959 
L 430.664753 -365.120963 
L 428.0181 -365.486228 
L 425.371447 -365.843909 
L 422.724793 -365.672503 
L 420.07814 -364.929375 
L 417.431487 -364.497605 
L 414.784833 -364.856528 
L 412.13818 -364.920248 
L 409.491527 -365.001837 
L 406.844873 -364.618274 
L 404.19822 -364.945273 
L 401.551567 -365.276985 
L 398.904913 -364.835359 
L 396.25826 -365.067613 
L 393.611607 -364.881981 
L 390.964953 -364.532786 
L 388.3183 -364.344325 
L 385.671647 -364.298432 
L 383.024993 -363.93878 
L 380.37834 -363.644927 
L 377.731687 -363.459423 
L 375.085033 -363.168934 
L 372.43838 -362.773566 
L 369.791727 -362.979038 
L 367.145073 -362.885022 
L 364.49842 -362.71938 
L 361.851767 -362.397181 
L 359.205113 -361.968218 
L 356.55846 -362.072796 
L 353.911807 -362.352509 
L 351.265153 -362.004384 
L 348.6185 -362.079695 
L 345.971847 -362.343167 
L 343.325193 -362.196015 
L 340.67854 -362.243538 
L 338.031887 -361.879515 
L 335.385233 -361.650346 
L 332.73858 -361.649575 
L 330.091927 -361.485368 
L 327.445273 -361.446352 
L 324.79862 -361.394416 
L 322.151967 -361.184723 
L 319.505313 -361.406693 
L 316.85866 -361.0428 
L 314.212007 -361.125546 
L 311.565353 -361.000248 
L 308.9187 -360.666222 
L 306.272047 -360.462378 
L 303.625393 -360.457322 
L 300.97874 -360.366241 
L 298.332087 -359.999091 
L 295.685433 -359.823336 
L 293.03878 -359.897126 
L 290.392127 -360.060047 
L 287.745473 -360.456207 
L 285.09882 -360.168803 
L 282.452167 -359.876921 
L 279.805513 -359.516606 
L 277.15886 -358.950432 
L 274.512207 -359.164989 
L 271.865553 -359.049547 
L 269.2189 -359.000504 
L 266.572247 -358.685546 
L 263.925593 -358.34882 
L 261.27894 -358.465376 
L 258.632287 -358.788133 
L 255.985633 -358.030713 
L 253.33898 -358.039262 
L 250.692327 -358.098483 
L 248.045673 -358.524597 
L 245.39902 -358.077421 
L 242.752367 -357.944775 
L 240.105713 -356.623646 
L 237.45906 -356.154188 
L 234.812407 -356.467196 
L 232.165753 -356.935283 
L 229.5191 -356.538179 
L 226.872447 -356.112365 
L 224.225793 -356.215808 
L 221.57914 -356.316723 
L 218.932487 -355.798243 
L 216.285833 -355.269008 
L 213.63918 -355.278328 
L 210.992527 -354.552833 
L 208.345873 -354.142617 
L 205.69922 -353.626858 
L 203.052567 -353.395225 
L 200.405913 -353.272949 
L 197.75926 -352.674079 
L 195.112607 -352.591055 
L 192.465953 -352.235903 
L 189.8193 -352.162241 
L 187.172647 -351.45243 
L 184.525993 -351.093807 
L 181.87934 -350.98023 
L 179.232687 -350.283209 
L 176.586033 -349.809745 
L 173.93938 -349.868901 
L 171.292727 -350.127488 
L 168.646073 -350.205541 
L 165.99942 -350.083886 
L 163.352767 -350.273096 
L 160.706113 -349.713715 
L 158.05946 -349.852467 
L 155.412807 -349.453478 
L 152.766153 -348.982028 
L 150.1195 -348.594566 
L 147.472847 -348.035099 
L 144.826193 -347.481373 
L 142.17954 -346.851844 
L 139.532887 -346.230842 
L 136.886233 -345.937696 
L 134.23958 -345.958565 
L 131.592927 -345.239347 
L 128.946273 -344.265315 
L 126.29962 -343.444154 
L 123.652967 -343.380584 
L 121.006313 -342.916375 
L 118.35966 -342.261885 
L 115.713007 -342.052856 
L 113.066353 -340.153898 
L 110.4197 -339.253591 
L 107.773047 -338.912602 
L 105.126393 -338.930878 
L 102.47974 -338.852802 
L 99.833087 -338.226294 
L 97.186433 -337.880527 
L 94.53978 -337.390178 
L 91.893127 -336.306639 
L 89.246473 -334.908978 
L 86.59982 -333.143566 
L 83.953167 -332.037765 
L 81.306513 -331.514315 
L 78.65986 -330.205977 
L 76.013207 -329.409713 
L 73.366553 -327.41901 
L 70.7199 -326.533915 
L 68.073247 -323.86644 
L 65.426593 -323.192024 
L 62.77994 -320.929215 
L 60.133287 -316.289463 
L 57.486633 -312.556381 
L 54.83998 -310.041799 
L 52.193327 -310.025258 
z
" style="stroke: #0000ff; stroke-opacity: 0.2"/>
    </defs>
    <g clip-path="url(#p7ad27061fc)">
     <use xlink:href="#mfe5d851c8e" x="0" y="432" style="fill: #0000ff; fill-opacity: 0.2; stroke: #0000ff; stroke-opacity: 0.2"/>
    </g>
   </g>
   <g id="matplotlib.axis_1">
    <g id="xtick_1">
     <g id="line2d_1">
      <defs>
       <path id="mbabc93a913" d="M 0 0 
L 0 3.5 
" style="stroke: #000000; stroke-width: 0.8"/>
      </defs>
      <g>
       <use xlink:href="#mbabc93a913" x="181.87934" y="390.04" style="stroke: #000000; stroke-width: 0.8"/>
      </g>
     </g>
     <g id="text_1">
      <!-- 50 -->
      <g transform="translate(175.51684 404.638438) scale(0.1 -0.1)">
       <defs>
        <path id="DejaVuSans-35" d="M 691 4666 
L 3169 4666 
L 3169 4134 
L 1269 4134 
L 1269 2991 
Q 1406 3038 1543 3061 
Q 1681 3084 1819 3084 
Q 2600 3084 3056 2656 
Q 3513 2228 3513 1497 
Q 3513 744 3044 326 
Q 2575 -91 1722 -91 
Q 1428 -91 1123 -41 
Q 819 9 494 109 
L 494 744 
Q 775 591 1075 516 
Q 1375 441 1709 441 
Q 2250 441 2565 725 
Q 2881 1009 2881 1497 
Q 2881 1984 2565 2268 
Q 2250 2553 1709 2553 
Q 1456 2553 1204 2497 
Q 953 2441 691 2322 
L 691 4666 
z
" transform="scale(0.015625)"/>
        <path id="DejaVuSans-30" d="M 2034 4250 
Q 1547 4250 1301 3770 
Q 1056 3291 1056 2328 
Q 1056 1369 1301 889 
Q 1547 409 2034 409 
Q 2525 409 2770 889 
Q 3016 1369 3016 2328 
Q 3016 3291 2770 3770 
Q 2525 4250 2034 4250 
z
M 2034 4750 
Q 2819 4750 3233 4129 
Q 3647 3509 3647 2328 
Q 3647 1150 3233 529 
Q 2819 -91 2034 -91 
Q 1250 -91 836 529 
Q 422 1150 422 2328 
Q 422 3509 836 4129 
Q 1250 4750 2034 4750 
z
" transform="scale(0.015625)"/>
       </defs>
       <use xlink:href="#DejaVuSans-35"/>
       <use xlink:href="#DejaVuSans-30" transform="translate(63.623047 0)"/>
      </g>
     </g>
    </g>
    <g id="xtick_2">
     <g id="line2d_2">
      <g>
       <use xlink:href="#mbabc93a913" x="314.212007" y="390.04" style="stroke: #000000; stroke-width: 0.8"/>
      </g>
     </g>
     <g id="text_2">
      <!-- 100 -->
      <g transform="translate(304.668257 404.638438) scale(0.1 -0.1)">
       <defs>
        <path id="DejaVuSans-31" d="M 794 531 
L 1825 531 
L 1825 4091 
L 703 3866 
L 703 4441 
L 1819 4666 
L 2450 4666 
L 2450 531 
L 3481 531 
L 3481 0 
L 794 0 
L 794 531 
z
" transform="scale(0.015625)"/>
       </defs>
       <use xlink:href="#DejaVuSans-31"/>
       <use xlink:href="#DejaVuSans-30" transform="translate(63.623047 0)"/>
       <use xlink:href="#DejaVuSans-30" transform="translate(127.246094 0)"/>
      </g>
     </g>
    </g>
    <g id="xtick_3">
     <g id="line2d_3">
      <g>
       <use xlink:href="#mbabc93a913" x="446.544673" y="390.04" style="stroke: #000000; stroke-width: 0.8"/>
      </g>
     </g>
     <g id="text_3">
      <!-- 150 -->
      <g transform="translate(437.000923 404.638438) scale(0.1 -0.1)">
       <use xlink:href="#DejaVuSans-31"/>
       <use xlink:href="#DejaVuSans-35" transform="translate(63.623047 0)"/>
       <use xlink:href="#DejaVuSans-30" transform="translate(127.246094 0)"/>
      </g>
     </g>
    </g>
    <g id="xtick_4">
     <g id="line2d_4">
      <g>
       <use xlink:href="#mbabc93a913" x="578.87734" y="390.04" style="stroke: #000000; stroke-width: 0.8"/>
      </g>
     </g>
     <g id="text_4">
      <!-- 200 -->
      <g transform="translate(569.33359 404.638438) scale(0.1 -0.1)">
       <defs>
        <path id="DejaVuSans-32" d="M 1228 531 
L 3431 531 
L 3431 0 
L 469 0 
L 469 531 
Q 828 903 1448 1529 
Q 2069 2156 2228 2338 
Q 2531 2678 2651 2914 
Q 2772 3150 2772 3378 
Q 2772 3750 2511 3984 
Q 2250 4219 1831 4219 
Q 1534 4219 1204 4116 
Q 875 4013 500 3803 
L 500 4441 
Q 881 4594 1212 4672 
Q 1544 4750 1819 4750 
Q 2544 4750 2975 4387 
Q 3406 4025 3406 3419 
Q 3406 3131 3298 2873 
Q 3191 2616 2906 2266 
Q 2828 2175 2409 1742 
Q 1991 1309 1228 531 
z
" transform="scale(0.015625)"/>
       </defs>
       <use xlink:href="#DejaVuSans-32"/>
       <use xlink:href="#DejaVuSans-30" transform="translate(63.623047 0)"/>
       <use xlink:href="#DejaVuSans-30" transform="translate(127.246094 0)"/>
      </g>
     </g>
    </g>
    <g id="xtick_5">
     <g id="line2d_5">
      <g>
       <use xlink:href="#mbabc93a913" x="711.210007" y="390.04" style="stroke: #000000; stroke-width: 0.8"/>
      </g>
     </g>
     <g id="text_5">
      <!-- 250 -->
      <g transform="translate(701.666257 404.638438) scale(0.1 -0.1)">
       <use xlink:href="#DejaVuSans-32"/>
       <use xlink:href="#DejaVuSans-35" transform="translate(63.623047 0)"/>
       <use xlink:href="#DejaVuSans-30" transform="translate(127.246094 0)"/>
      </g>
     </g>
    </g>
    <g id="xtick_6">
     <g id="line2d_6">
      <g>
       <use xlink:href="#mbabc93a913" x="843.542673" y="390.04" style="stroke: #000000; stroke-width: 0.8"/>
      </g>
     </g>
     <g id="text_6">
      <!-- 300 -->
      <g transform="translate(833.998923 404.638438) scale(0.1 -0.1)">
       <defs>
        <path id="DejaVuSans-33" d="M 2597 2516 
Q 3050 2419 3304 2112 
Q 3559 1806 3559 1356 
Q 3559 666 3084 287 
Q 2609 -91 1734 -91 
Q 1441 -91 1130 -33 
Q 819 25 488 141 
L 488 750 
Q 750 597 1062 519 
Q 1375 441 1716 441 
Q 2309 441 2620 675 
Q 2931 909 2931 1356 
Q 2931 1769 2642 2001 
Q 2353 2234 1838 2234 
L 1294 2234 
L 1294 2753 
L 1863 2753 
Q 2328 2753 2575 2939 
Q 2822 3125 2822 3475 
Q 2822 3834 2567 4026 
Q 2313 4219 1838 4219 
Q 1578 4219 1281 4162 
Q 984 4106 628 3988 
L 628 4550 
Q 988 4650 1302 4700 
Q 1616 4750 1894 4750 
Q 2613 4750 3031 4423 
Q 3450 4097 3450 3541 
Q 3450 3153 3228 2886 
Q 3006 2619 2597 2516 
z
" transform="scale(0.015625)"/>
       </defs>
       <use xlink:href="#DejaVuSans-33"/>
       <use xlink:href="#DejaVuSans-30" transform="translate(63.623047 0)"/>
       <use xlink:href="#DejaVuSans-30" transform="translate(127.246094 0)"/>
      </g>
     </g>
    </g>
    <g id="text_7">
     <!-- Step -->
     <g transform="translate(436.482844 418.316562) scale(0.1 -0.1)">
      <defs>
       <path id="DejaVuSans-53" d="M 3425 4513 
L 3425 3897 
Q 3066 4069 2747 4153 
Q 2428 4238 2131 4238 
Q 1616 4238 1336 4038 
Q 1056 3838 1056 3469 
Q 1056 3159 1242 3001 
Q 1428 2844 1947 2747 
L 2328 2669 
Q 3034 2534 3370 2195 
Q 3706 1856 3706 1288 
Q 3706 609 3251 259 
Q 2797 -91 1919 -91 
Q 1588 -91 1214 -16 
Q 841 59 441 206 
L 441 856 
Q 825 641 1194 531 
Q 1563 422 1919 422 
Q 2459 422 2753 634 
Q 3047 847 3047 1241 
Q 3047 1584 2836 1778 
Q 2625 1972 2144 2069 
L 1759 2144 
Q 1053 2284 737 2584 
Q 422 2884 422 3419 
Q 422 4038 858 4394 
Q 1294 4750 2059 4750 
Q 2388 4750 2728 4690 
Q 3069 4631 3425 4513 
z
" transform="scale(0.015625)"/>
       <path id="DejaVuSans-74" d="M 1172 4494 
L 1172 3500 
L 2356 3500 
L 2356 3053 
L 1172 3053 
L 1172 1153 
Q 1172 725 1289 603 
Q 1406 481 1766 481 
L 2356 481 
L 2356 0 
L 1766 0 
Q 1100 0 847 248 
Q 594 497 594 1153 
L 594 3053 
L 172 3053 
L 172 3500 
L 594 3500 
L 594 4494 
L 1172 4494 
z
" transform="scale(0.015625)"/>
       <path id="DejaVuSans-65" d="M 3597 1894 
L 3597 1613 
L 953 1613 
Q 991 1019 1311 708 
Q 1631 397 2203 397 
Q 2534 397 2845 478 
Q 3156 559 3463 722 
L 3463 178 
Q 3153 47 2828 -22 
Q 2503 -91 2169 -91 
Q 1331 -91 842 396 
Q 353 884 353 1716 
Q 353 2575 817 3079 
Q 1281 3584 2069 3584 
Q 2775 3584 3186 3129 
Q 3597 2675 3597 1894 
z
M 3022 2063 
Q 3016 2534 2758 2815 
Q 2500 3097 2075 3097 
Q 1594 3097 1305 2825 
Q 1016 2553 972 2059 
L 3022 2063 
z
" transform="scale(0.015625)"/>
       <path id="DejaVuSans-70" d="M 1159 525 
L 1159 -1331 
L 581 -1331 
L 581 3500 
L 1159 3500 
L 1159 2969 
Q 1341 3281 1617 3432 
Q 1894 3584 2278 3584 
Q 2916 3584 3314 3078 
Q 3713 2572 3713 1747 
Q 3713 922 3314 415 
Q 2916 -91 2278 -91 
Q 1894 -91 1617 61 
Q 1341 213 1159 525 
z
M 3116 1747 
Q 3116 2381 2855 2742 
Q 2594 3103 2138 3103 
Q 1681 3103 1420 2742 
Q 1159 2381 1159 1747 
Q 1159 1113 1420 752 
Q 1681 391 2138 391 
Q 2594 391 2855 752 
Q 3116 1113 3116 1747 
z
" transform="scale(0.015625)"/>
      </defs>
      <use xlink:href="#DejaVuSans-53"/>
      <use xlink:href="#DejaVuSans-74" transform="translate(63.476562 0)"/>
      <use xlink:href="#DejaVuSans-65" transform="translate(102.685547 0)"/>
      <use xlink:href="#DejaVuSans-70" transform="translate(164.208984 0)"/>
     </g>
    </g>
   </g>
   <g id="matplotlib.axis_2">
    <g id="ytick_1">
     <g id="line2d_7">
      <defs>
       <path id="m046509ca4b" d="M 0 0 
L -3.5 0 
" style="stroke: #000000; stroke-width: 0.8"/>
      </defs>
      <g>
       <use xlink:href="#m046509ca4b" x="50.87" y="370.453697" style="stroke: #000000; stroke-width: 0.8"/>
      </g>
     </g>
     <g id="text_8">
      <!-- 20 -->
      <g transform="translate(31.145 374.252916) scale(0.1 -0.1)">
       <use xlink:href="#DejaVuSans-32"/>
       <use xlink:href="#DejaVuSans-30" transform="translate(63.623047 0)"/>
      </g>
     </g>
    </g>
    <g id="ytick_2">
     <g id="line2d_8">
      <g>
       <use xlink:href="#m046509ca4b" x="50.87" y="314.287565" style="stroke: #000000; stroke-width: 0.8"/>
      </g>
     </g>
     <g id="text_9">
      <!-- 40 -->
      <g transform="translate(31.145 318.086784) scale(0.1 -0.1)">
       <defs>
        <path id="DejaVuSans-34" d="M 2419 4116 
L 825 1625 
L 2419 1625 
L 2419 4116 
z
M 2253 4666 
L 3047 4666 
L 3047 1625 
L 3713 1625 
L 3713 1100 
L 3047 1100 
L 3047 0 
L 2419 0 
L 2419 1100 
L 313 1100 
L 313 1709 
L 2253 4666 
z
" transform="scale(0.015625)"/>
       </defs>
       <use xlink:href="#DejaVuSans-34"/>
       <use xlink:href="#DejaVuSans-30" transform="translate(63.623047 0)"/>
      </g>
     </g>
    </g>
    <g id="ytick_3">
     <g id="line2d_9">
      <g>
       <use xlink:href="#m046509ca4b" x="50.87" y="258.121433" style="stroke: #000000; stroke-width: 0.8"/>
      </g>
     </g>
     <g id="text_10">
      <!-- 60 -->
      <g transform="translate(31.145 261.920652) scale(0.1 -0.1)">
       <defs>
        <path id="DejaVuSans-36" d="M 2113 2584 
Q 1688 2584 1439 2293 
Q 1191 2003 1191 1497 
Q 1191 994 1439 701 
Q 1688 409 2113 409 
Q 2538 409 2786 701 
Q 3034 994 3034 1497 
Q 3034 2003 2786 2293 
Q 2538 2584 2113 2584 
z
M 3366 4563 
L 3366 3988 
Q 3128 4100 2886 4159 
Q 2644 4219 2406 4219 
Q 1781 4219 1451 3797 
Q 1122 3375 1075 2522 
Q 1259 2794 1537 2939 
Q 1816 3084 2150 3084 
Q 2853 3084 3261 2657 
Q 3669 2231 3669 1497 
Q 3669 778 3244 343 
Q 2819 -91 2113 -91 
Q 1303 -91 875 529 
Q 447 1150 447 2328 
Q 447 3434 972 4092 
Q 1497 4750 2381 4750 
Q 2619 4750 2861 4703 
Q 3103 4656 3366 4563 
z
" transform="scale(0.015625)"/>
       </defs>
       <use xlink:href="#DejaVuSans-36"/>
       <use xlink:href="#DejaVuSans-30" transform="translate(63.623047 0)"/>
      </g>
     </g>
    </g>
    <g id="ytick_4">
     <g id="line2d_10">
      <g>
       <use xlink:href="#m046509ca4b" x="50.87" y="201.955301" style="stroke: #000000; stroke-width: 0.8"/>
      </g>
     </g>
     <g id="text_11">
      <!-- 80 -->
      <g transform="translate(31.145 205.75452) scale(0.1 -0.1)">
       <defs>
        <path id="DejaVuSans-38" d="M 2034 2216 
Q 1584 2216 1326 1975 
Q 1069 1734 1069 1313 
Q 1069 891 1326 650 
Q 1584 409 2034 409 
Q 2484 409 2743 651 
Q 3003 894 3003 1313 
Q 3003 1734 2745 1975 
Q 2488 2216 2034 2216 
z
M 1403 2484 
Q 997 2584 770 2862 
Q 544 3141 544 3541 
Q 544 4100 942 4425 
Q 1341 4750 2034 4750 
Q 2731 4750 3128 4425 
Q 3525 4100 3525 3541 
Q 3525 3141 3298 2862 
Q 3072 2584 2669 2484 
Q 3125 2378 3379 2068 
Q 3634 1759 3634 1313 
Q 3634 634 3220 271 
Q 2806 -91 2034 -91 
Q 1263 -91 848 271 
Q 434 634 434 1313 
Q 434 1759 690 2068 
Q 947 2378 1403 2484 
z
M 1172 3481 
Q 1172 3119 1398 2916 
Q 1625 2713 2034 2713 
Q 2441 2713 2670 2916 
Q 2900 3119 2900 3481 
Q 2900 3844 2670 4047 
Q 2441 4250 2034 4250 
Q 1625 4250 1398 4047 
Q 1172 3844 1172 3481 
z
" transform="scale(0.015625)"/>
       </defs>
       <use xlink:href="#DejaVuSans-38"/>
       <use xlink:href="#DejaVuSans-30" transform="translate(63.623047 0)"/>
      </g>
     </g>
    </g>
    <g id="ytick_5">
     <g id="line2d_11">
      <g>
       <use xlink:href="#m046509ca4b" x="50.87" y="145.789169" style="stroke: #000000; stroke-width: 0.8"/>
      </g>
     </g>
     <g id="text_12">
      <!-- 100 -->
      <g transform="translate(24.7825 149.588388) scale(0.1 -0.1)">
       <use xlink:href="#DejaVuSans-31"/>
       <use xlink:href="#DejaVuSans-30" transform="translate(63.623047 0)"/>
       <use xlink:href="#DejaVuSans-30" transform="translate(127.246094 0)"/>
      </g>
     </g>
    </g>
    <g id="ytick_6">
     <g id="line2d_12">
      <g>
       <use xlink:href="#m046509ca4b" x="50.87" y="89.623038" style="stroke: #000000; stroke-width: 0.8"/>
      </g>
     </g>
     <g id="text_13">
      <!-- 120 -->
      <g transform="translate(24.7825 93.422256) scale(0.1 -0.1)">
       <use xlink:href="#DejaVuSans-31"/>
       <use xlink:href="#DejaVuSans-32" transform="translate(63.623047 0)"/>
       <use xlink:href="#DejaVuSans-30" transform="translate(127.246094 0)"/>
      </g>
     </g>
    </g>
    <g id="text_14">
     <!-- Profit -->
     <g transform="translate(18.702813 229.779063) rotate(-90) scale(0.1 -0.1)">
      <defs>
       <path id="DejaVuSans-50" d="M 1259 4147 
L 1259 2394 
L 2053 2394 
Q 2494 2394 2734 2622 
Q 2975 2850 2975 3272 
Q 2975 3691 2734 3919 
Q 2494 4147 2053 4147 
L 1259 4147 
z
M 628 4666 
L 2053 4666 
Q 2838 4666 3239 4311 
Q 3641 3956 3641 3272 
Q 3641 2581 3239 2228 
Q 2838 1875 2053 1875 
L 1259 1875 
L 1259 0 
L 628 0 
L 628 4666 
z
" transform="scale(0.015625)"/>
       <path id="DejaVuSans-72" d="M 2631 2963 
Q 2534 3019 2420 3045 
Q 2306 3072 2169 3072 
Q 1681 3072 1420 2755 
Q 1159 2438 1159 1844 
L 1159 0 
L 581 0 
L 581 3500 
L 1159 3500 
L 1159 2956 
Q 1341 3275 1631 3429 
Q 1922 3584 2338 3584 
Q 2397 3584 2469 3576 
Q 2541 3569 2628 3553 
L 2631 2963 
z
" transform="scale(0.015625)"/>
       <path id="DejaVuSans-6f" d="M 1959 3097 
Q 1497 3097 1228 2736 
Q 959 2375 959 1747 
Q 959 1119 1226 758 
Q 1494 397 1959 397 
Q 2419 397 2687 759 
Q 2956 1122 2956 1747 
Q 2956 2369 2687 2733 
Q 2419 3097 1959 3097 
z
M 1959 3584 
Q 2709 3584 3137 3096 
Q 3566 2609 3566 1747 
Q 3566 888 3137 398 
Q 2709 -91 1959 -91 
Q 1206 -91 779 398 
Q 353 888 353 1747 
Q 353 2609 779 3096 
Q 1206 3584 1959 3584 
z
" transform="scale(0.015625)"/>
       <path id="DejaVuSans-66" d="M 2375 4863 
L 2375 4384 
L 1825 4384 
Q 1516 4384 1395 4259 
Q 1275 4134 1275 3809 
L 1275 3500 
L 2222 3500 
L 2222 3053 
L 1275 3053 
L 1275 0 
L 697 0 
L 697 3053 
L 147 3053 
L 147 3500 
L 697 3500 
L 697 3744 
Q 697 4328 969 4595 
Q 1241 4863 1831 4863 
L 2375 4863 
z
" transform="scale(0.015625)"/>
       <path id="DejaVuSans-69" d="M 603 3500 
L 1178 3500 
L 1178 0 
L 603 0 
L 603 3500 
z
M 603 4863 
L 1178 4863 
L 1178 4134 
L 603 4134 
L 603 4863 
z
" transform="scale(0.015625)"/>
      </defs>
      <use xlink:href="#DejaVuSans-50"/>
      <use xlink:href="#DejaVuSans-72" transform="translate(58.552734 0)"/>
      <use xlink:href="#DejaVuSans-6f" transform="translate(97.416016 0)"/>
      <use xlink:href="#DejaVuSans-66" transform="translate(158.597656 0)"/>
      <use xlink:href="#DejaVuSans-69" transform="translate(193.802734 0)"/>
      <use xlink:href="#DejaVuSans-74" transform="translate(221.585938 0)"/>
     </g>
    </g>
   </g>
   <g id="line2d_13">
    <path d="M 52.193327 248.06513 
L 54.83998 248.121822 
L 57.486633 243.154139 
L 60.133287 237.160434 
L 62.77994 232.084348 
L 65.426593 227.386018 
L 68.073247 222.976528 
L 70.7199 219.368593 
L 76.013207 213.492365 
L 78.65986 210.107258 
L 81.306513 207.303901 
L 83.953167 204.979814 
L 94.53978 196.952041 
L 99.833087 193.597808 
L 105.126393 190.626474 
L 107.773047 189.608968 
L 113.066353 187.260392 
L 115.713007 186.272604 
L 118.35966 185.143064 
L 121.006313 184.190735 
L 126.29962 182.450584 
L 131.592927 180.476872 
L 139.532887 178.292974 
L 142.17954 177.355901 
L 147.472847 175.987421 
L 150.1195 175.645789 
L 152.766153 174.837312 
L 160.706113 173.359005 
L 163.352767 172.949646 
L 165.99942 172.190105 
L 168.646073 171.799708 
L 179.232687 169.50686 
L 181.87934 168.946086 
L 184.525993 168.573558 
L 187.172647 168.055078 
L 189.8193 167.797563 
L 192.465953 167.339696 
L 195.112607 167.050899 
L 200.405913 166.238373 
L 210.992527 164.998298 
L 213.63918 164.768336 
L 224.225793 163.316168 
L 229.5191 162.667891 
L 232.165753 162.304233 
L 234.812407 162.130942 
L 250.692327 159.983382 
L 255.985633 159.394926 
L 263.925593 158.674594 
L 271.865553 158.080674 
L 277.15886 157.504688 
L 287.745473 156.547046 
L 290.392127 156.184737 
L 308.9187 154.98415 
L 324.79862 153.492022 
L 330.091927 153.272795 
L 338.031887 152.880405 
L 345.971847 152.29077 
L 348.6185 152.213252 
L 351.265153 152.004095 
L 353.911807 151.915071 
L 356.55846 151.682367 
L 361.851767 151.537658 
L 364.49842 151.584173 
L 367.145073 151.385621 
L 375.085033 151.070406 
L 380.37834 150.626873 
L 385.671647 150.451526 
L 390.964953 150.097745 
L 396.25826 149.576608 
L 409.491527 148.878624 
L 412.13818 148.618388 
L 414.784833 148.599126 
L 425.371447 148.003578 
L 438.604713 147.453131 
L 480.951167 145.842734 
L 488.891127 145.752039 
L 491.53778 145.509629 
L 496.831087 145.330831 
L 499.47774 145.270818 
L 502.124393 145.093092 
L 504.771047 145.089471 
L 536.530887 143.532188 
L 541.824193 143.533024 
L 552.410807 143.120194 
L 555.05746 143.147897 
L 560.350767 142.902959 
L 605.343873 141.306575 
L 607.990527 141.338327 
L 623.870447 140.886396 
L 629.163753 140.818755 
L 652.983633 140.048587 
L 658.27694 140.01512 
L 663.570247 139.982789 
L 674.15686 139.396025 
L 682.09682 139.325792 
L 687.390127 139.355617 
L 692.683433 139.125633 
L 695.330087 139.058142 
L 697.97674 139.104165 
L 703.270047 138.939294 
L 705.9167 139.005821 
L 735.029887 138.139066 
L 748.263153 138.014198 
L 753.55646 137.800134 
L 769.43638 137.572914 
L 774.729687 137.381283 
L 782.669647 137.009676 
L 793.25626 136.733628 
L 798.549567 136.657716 
L 803.842873 136.352079 
L 809.13618 136.349508 
L 814.429487 136.172189 
L 822.369447 136.015417 
L 830.309407 135.981822 
L 835.602713 135.690561 
L 840.89602 135.60503 
L 843.542673 135.608137 
L 843.542673 135.608137 
" clip-path="url(#p7ad27061fc)" style="fill: none; stroke: #0000ff; stroke-width: 1.5; stroke-linecap: square"/>
   </g>
   <g id="patch_3">
    <path d="M 50.87 390.04 
L 50.87 43.44 
" style="fill: none; stroke: #000000; stroke-width: 0.8; stroke-linejoin: miter; stroke-linecap: square"/>
   </g>
   <g id="patch_4">
    <path d="M 844.866 390.04 
L 844.866 43.44 
" style="fill: none; stroke: #000000; stroke-width: 0.8; stroke-linejoin: miter; stroke-linecap: square"/>
   </g>
   <g id="patch_5">
    <path d="M 50.87 390.04 
L 844.866 390.04 
" style="fill: none; stroke: #000000; stroke-width: 0.8; stroke-linejoin: miter; stroke-linecap: square"/>
   </g>
   <g id="patch_6">
    <path d="M 50.87 43.44 
L 844.866 43.44 
" style="fill: none; stroke: #000000; stroke-width: 0.8; stroke-linejoin: miter; stroke-linecap: square"/>
   </g>
   <g id="text_15">
    <!-- Mean profit per step with confidence interval per simulation step -->
    <g transform="translate(220.284875 21.763062) scale(0.14 -0.14)">
     <defs>
      <path id="DejaVuSans-4d" d="M 628 4666 
L 1569 4666 
L 2759 1491 
L 3956 4666 
L 4897 4666 
L 4897 0 
L 4281 0 
L 4281 4097 
L 3078 897 
L 2444 897 
L 1241 4097 
L 1241 0 
L 628 0 
L 628 4666 
z
" transform="scale(0.015625)"/>
      <path id="DejaVuSans-61" d="M 2194 1759 
Q 1497 1759 1228 1600 
Q 959 1441 959 1056 
Q 959 750 1161 570 
Q 1363 391 1709 391 
Q 2188 391 2477 730 
Q 2766 1069 2766 1631 
L 2766 1759 
L 2194 1759 
z
M 3341 1997 
L 3341 0 
L 2766 0 
L 2766 531 
Q 2569 213 2275 61 
Q 1981 -91 1556 -91 
Q 1019 -91 701 211 
Q 384 513 384 1019 
Q 384 1609 779 1909 
Q 1175 2209 1959 2209 
L 2766 2209 
L 2766 2266 
Q 2766 2663 2505 2880 
Q 2244 3097 1772 3097 
Q 1472 3097 1187 3025 
Q 903 2953 641 2809 
L 641 3341 
Q 956 3463 1253 3523 
Q 1550 3584 1831 3584 
Q 2591 3584 2966 3190 
Q 3341 2797 3341 1997 
z
" transform="scale(0.015625)"/>
      <path id="DejaVuSans-6e" d="M 3513 2113 
L 3513 0 
L 2938 0 
L 2938 2094 
Q 2938 2591 2744 2837 
Q 2550 3084 2163 3084 
Q 1697 3084 1428 2787 
Q 1159 2491 1159 1978 
L 1159 0 
L 581 0 
L 581 3500 
L 1159 3500 
L 1159 2956 
Q 1366 3272 1645 3428 
Q 1925 3584 2291 3584 
Q 2894 3584 3203 3211 
Q 3513 2838 3513 2113 
z
" transform="scale(0.015625)"/>
      <path id="DejaVuSans-20" transform="scale(0.015625)"/>
      <path id="DejaVuSans-73" d="M 2834 3397 
L 2834 2853 
Q 2591 2978 2328 3040 
Q 2066 3103 1784 3103 
Q 1356 3103 1142 2972 
Q 928 2841 928 2578 
Q 928 2378 1081 2264 
Q 1234 2150 1697 2047 
L 1894 2003 
Q 2506 1872 2764 1633 
Q 3022 1394 3022 966 
Q 3022 478 2636 193 
Q 2250 -91 1575 -91 
Q 1294 -91 989 -36 
Q 684 19 347 128 
L 347 722 
Q 666 556 975 473 
Q 1284 391 1588 391 
Q 1994 391 2212 530 
Q 2431 669 2431 922 
Q 2431 1156 2273 1281 
Q 2116 1406 1581 1522 
L 1381 1569 
Q 847 1681 609 1914 
Q 372 2147 372 2553 
Q 372 3047 722 3315 
Q 1072 3584 1716 3584 
Q 2034 3584 2315 3537 
Q 2597 3491 2834 3397 
z
" transform="scale(0.015625)"/>
      <path id="DejaVuSans-77" d="M 269 3500 
L 844 3500 
L 1563 769 
L 2278 3500 
L 2956 3500 
L 3675 769 
L 4391 3500 
L 4966 3500 
L 4050 0 
L 3372 0 
L 2619 2869 
L 1863 0 
L 1184 0 
L 269 3500 
z
" transform="scale(0.015625)"/>
      <path id="DejaVuSans-68" d="M 3513 2113 
L 3513 0 
L 2938 0 
L 2938 2094 
Q 2938 2591 2744 2837 
Q 2550 3084 2163 3084 
Q 1697 3084 1428 2787 
Q 1159 2491 1159 1978 
L 1159 0 
L 581 0 
L 581 4863 
L 1159 4863 
L 1159 2956 
Q 1366 3272 1645 3428 
Q 1925 3584 2291 3584 
Q 2894 3584 3203 3211 
Q 3513 2838 3513 2113 
z
" transform="scale(0.015625)"/>
      <path id="DejaVuSans-63" d="M 3122 3366 
L 3122 2828 
Q 2878 2963 2633 3030 
Q 2388 3097 2138 3097 
Q 1578 3097 1268 2742 
Q 959 2388 959 1747 
Q 959 1106 1268 751 
Q 1578 397 2138 397 
Q 2388 397 2633 464 
Q 2878 531 3122 666 
L 3122 134 
Q 2881 22 2623 -34 
Q 2366 -91 2075 -91 
Q 1284 -91 818 406 
Q 353 903 353 1747 
Q 353 2603 823 3093 
Q 1294 3584 2113 3584 
Q 2378 3584 2631 3529 
Q 2884 3475 3122 3366 
z
" transform="scale(0.015625)"/>
      <path id="DejaVuSans-64" d="M 2906 2969 
L 2906 4863 
L 3481 4863 
L 3481 0 
L 2906 0 
L 2906 525 
Q 2725 213 2448 61 
Q 2172 -91 1784 -91 
Q 1150 -91 751 415 
Q 353 922 353 1747 
Q 353 2572 751 3078 
Q 1150 3584 1784 3584 
Q 2172 3584 2448 3432 
Q 2725 3281 2906 2969 
z
M 947 1747 
Q 947 1113 1208 752 
Q 1469 391 1925 391 
Q 2381 391 2643 752 
Q 2906 1113 2906 1747 
Q 2906 2381 2643 2742 
Q 2381 3103 1925 3103 
Q 1469 3103 1208 2742 
Q 947 2381 947 1747 
z
" transform="scale(0.015625)"/>
      <path id="DejaVuSans-76" d="M 191 3500 
L 800 3500 
L 1894 563 
L 2988 3500 
L 3597 3500 
L 2284 0 
L 1503 0 
L 191 3500 
z
" transform="scale(0.015625)"/>
      <path id="DejaVuSans-6c" d="M 603 4863 
L 1178 4863 
L 1178 0 
L 603 0 
L 603 4863 
z
" transform="scale(0.015625)"/>
      <path id="DejaVuSans-6d" d="M 3328 2828 
Q 3544 3216 3844 3400 
Q 4144 3584 4550 3584 
Q 5097 3584 5394 3201 
Q 5691 2819 5691 2113 
L 5691 0 
L 5113 0 
L 5113 2094 
Q 5113 2597 4934 2840 
Q 4756 3084 4391 3084 
Q 3944 3084 3684 2787 
Q 3425 2491 3425 1978 
L 3425 0 
L 2847 0 
L 2847 2094 
Q 2847 2600 2669 2842 
Q 2491 3084 2119 3084 
Q 1678 3084 1418 2786 
Q 1159 2488 1159 1978 
L 1159 0 
L 581 0 
L 581 3500 
L 1159 3500 
L 1159 2956 
Q 1356 3278 1631 3431 
Q 1906 3584 2284 3584 
Q 2666 3584 2933 3390 
Q 3200 3197 3328 2828 
z
" transform="scale(0.015625)"/>
      <path id="DejaVuSans-75" d="M 544 1381 
L 544 3500 
L 1119 3500 
L 1119 1403 
Q 1119 906 1312 657 
Q 1506 409 1894 409 
Q 2359 409 2629 706 
Q 2900 1003 2900 1516 
L 2900 3500 
L 3475 3500 
L 3475 0 
L 2900 0 
L 2900 538 
Q 2691 219 2414 64 
Q 2138 -91 1772 -91 
Q 1169 -91 856 284 
Q 544 659 544 1381 
z
M 1991 3584 
L 1991 3584 
z
" transform="scale(0.015625)"/>
     </defs>
     <use xlink:href="#DejaVuSans-4d"/>
     <use xlink:href="#DejaVuSans-65" transform="translate(86.279297 0)"/>
     <use xlink:href="#DejaVuSans-61" transform="translate(147.802734 0)"/>
     <use xlink:href="#DejaVuSans-6e" transform="translate(209.082031 0)"/>
     <use xlink:href="#DejaVuSans-20" transform="translate(272.460938 0)"/>
     <use xlink:href="#DejaVuSans-70" transform="translate(304.248047 0)"/>
     <use xlink:href="#DejaVuSans-72" transform="translate(367.724609 0)"/>
     <use xlink:href="#DejaVuSans-6f" transform="translate(406.587891 0)"/>
     <use xlink:href="#DejaVuSans-66" transform="translate(467.769531 0)"/>
     <use xlink:href="#DejaVuSans-69" transform="translate(502.974609 0)"/>
     <use xlink:href="#DejaVuSans-74" transform="translate(530.757812 0)"/>
     <use xlink:href="#DejaVuSans-20" transform="translate(569.966797 0)"/>
     <use xlink:href="#DejaVuSans-70" transform="translate(601.753906 0)"/>
     <use xlink:href="#DejaVuSans-65" transform="translate(665.230469 0)"/>
     <use xlink:href="#DejaVuSans-72" transform="translate(726.753906 0)"/>
     <use xlink:href="#DejaVuSans-20" transform="translate(767.867188 0)"/>
     <use xlink:href="#DejaVuSans-73" transform="translate(799.654297 0)"/>
     <use xlink:href="#DejaVuSans-74" transform="translate(851.753906 0)"/>
     <use xlink:href="#DejaVuSans-65" transform="translate(890.962891 0)"/>
     <use xlink:href="#DejaVuSans-70" transform="translate(952.486328 0)"/>
     <use xlink:href="#DejaVuSans-20" transform="translate(1015.962891 0)"/>
     <use xlink:href="#DejaVuSans-77" transform="translate(1047.75 0)"/>
     <use xlink:href="#DejaVuSans-69" transform="translate(1129.537109 0)"/>
     <use xlink:href="#DejaVuSans-74" transform="translate(1157.320312 0)"/>
     <use xlink:href="#DejaVuSans-68" transform="translate(1196.529297 0)"/>
     <use xlink:href="#DejaVuSans-20" transform="translate(1259.908203 0)"/>
     <use xlink:href="#DejaVuSans-63" transform="translate(1291.695312 0)"/>
     <use xlink:href="#DejaVuSans-6f" transform="translate(1346.675781 0)"/>
     <use xlink:href="#DejaVuSans-6e" transform="translate(1407.857422 0)"/>
     <use xlink:href="#DejaVuSans-66" transform="translate(1471.236328 0)"/>
     <use xlink:href="#DejaVuSans-69" transform="translate(1506.441406 0)"/>
     <use xlink:href="#DejaVuSans-64" transform="translate(1534.224609 0)"/>
     <use xlink:href="#DejaVuSans-65" transform="translate(1597.701172 0)"/>
     <use xlink:href="#DejaVuSans-6e" transform="translate(1659.224609 0)"/>
     <use xlink:href="#DejaVuSans-63" transform="translate(1722.603516 0)"/>
     <use xlink:href="#DejaVuSans-65" transform="translate(1777.583984 0)"/>
     <use xlink:href="#DejaVuSans-20" transform="translate(1839.107422 0)"/>
     <use xlink:href="#DejaVuSans-69" transform="translate(1870.894531 0)"/>
     <use xlink:href="#DejaVuSans-6e" transform="translate(1898.677734 0)"/>
     <use xlink:href="#DejaVuSans-74" transform="translate(1962.056641 0)"/>
     <use xlink:href="#DejaVuSans-65" transform="translate(2001.265625 0)"/>
     <use xlink:href="#DejaVuSans-72" transform="translate(2062.789062 0)"/>
     <use xlink:href="#DejaVuSans-76" transform="translate(2103.902344 0)"/>
     <use xlink:href="#DejaVuSans-61" transform="translate(2163.082031 0)"/>
     <use xlink:href="#DejaVuSans-6c" transform="translate(2224.361328 0)"/>
     <use xlink:href="#DejaVuSans-20" transform="translate(2252.144531 0)"/>
     <use xlink:href="#DejaVuSans-70" transform="translate(2283.931641 0)"/>
     <use xlink:href="#DejaVuSans-65" transform="translate(2347.408203 0)"/>
     <use xlink:href="#DejaVuSans-72" transform="translate(2408.931641 0)"/>
     <use xlink:href="#DejaVuSans-20" transform="translate(2450.044922 0)"/>
     <use xlink:href="#DejaVuSans-73" transform="translate(2481.832031 0)"/>
     <use xlink:href="#DejaVuSans-69" transform="translate(2533.931641 0)"/>
     <use xlink:href="#DejaVuSans-6d" transform="translate(2561.714844 0)"/>
     <use xlink:href="#DejaVuSans-75" transform="translate(2659.126953 0)"/>
     <use xlink:href="#DejaVuSans-6c" transform="translate(2722.505859 0)"/>
     <use xlink:href="#DejaVuSans-61" transform="translate(2750.289062 0)"/>
     <use xlink:href="#DejaVuSans-74" transform="translate(2811.568359 0)"/>
     <use xlink:href="#DejaVuSans-69" transform="translate(2850.777344 0)"/>
     <use xlink:href="#DejaVuSans-6f" transform="translate(2878.560547 0)"/>
     <use xlink:href="#DejaVuSans-6e" transform="translate(2939.742188 0)"/>
     <use xlink:href="#DejaVuSans-20" transform="translate(3003.121094 0)"/>
     <use xlink:href="#DejaVuSans-73" transform="translate(3034.908203 0)"/>
     <use xlink:href="#DejaVuSans-74" transform="translate(3087.007812 0)"/>
     <use xlink:href="#DejaVuSans-65" transform="translate(3126.216797 0)"/>
     <use xlink:href="#DejaVuSans-70" transform="translate(3187.740234 0)"/>
    </g>
    <!-- Base Product: Grandaddy Purple, Recipe size: 8, T0: 20.0 -->
    <g transform="translate(248.283781 37.44) scale(0.14 -0.14)">
     <defs>
      <path id="DejaVuSans-42" d="M 1259 2228 
L 1259 519 
L 2272 519 
Q 2781 519 3026 730 
Q 3272 941 3272 1375 
Q 3272 1813 3026 2020 
Q 2781 2228 2272 2228 
L 1259 2228 
z
M 1259 4147 
L 1259 2741 
L 2194 2741 
Q 2656 2741 2882 2914 
Q 3109 3088 3109 3444 
Q 3109 3797 2882 3972 
Q 2656 4147 2194 4147 
L 1259 4147 
z
M 628 4666 
L 2241 4666 
Q 2963 4666 3353 4366 
Q 3744 4066 3744 3513 
Q 3744 3084 3544 2831 
Q 3344 2578 2956 2516 
Q 3422 2416 3680 2098 
Q 3938 1781 3938 1306 
Q 3938 681 3513 340 
Q 3088 0 2303 0 
L 628 0 
L 628 4666 
z
" transform="scale(0.015625)"/>
      <path id="DejaVuSans-3a" d="M 750 794 
L 1409 794 
L 1409 0 
L 750 0 
L 750 794 
z
M 750 3309 
L 1409 3309 
L 1409 2516 
L 750 2516 
L 750 3309 
z
" transform="scale(0.015625)"/>
      <path id="DejaVuSans-47" d="M 3809 666 
L 3809 1919 
L 2778 1919 
L 2778 2438 
L 4434 2438 
L 4434 434 
Q 4069 175 3628 42 
Q 3188 -91 2688 -91 
Q 1594 -91 976 548 
Q 359 1188 359 2328 
Q 359 3472 976 4111 
Q 1594 4750 2688 4750 
Q 3144 4750 3555 4637 
Q 3966 4525 4313 4306 
L 4313 3634 
Q 3963 3931 3569 4081 
Q 3175 4231 2741 4231 
Q 1884 4231 1454 3753 
Q 1025 3275 1025 2328 
Q 1025 1384 1454 906 
Q 1884 428 2741 428 
Q 3075 428 3337 486 
Q 3600 544 3809 666 
z
" transform="scale(0.015625)"/>
      <path id="DejaVuSans-79" d="M 2059 -325 
Q 1816 -950 1584 -1140 
Q 1353 -1331 966 -1331 
L 506 -1331 
L 506 -850 
L 844 -850 
Q 1081 -850 1212 -737 
Q 1344 -625 1503 -206 
L 1606 56 
L 191 3500 
L 800 3500 
L 1894 763 
L 2988 3500 
L 3597 3500 
L 2059 -325 
z
" transform="scale(0.015625)"/>
      <path id="DejaVuSans-2c" d="M 750 794 
L 1409 794 
L 1409 256 
L 897 -744 
L 494 -744 
L 750 256 
L 750 794 
z
" transform="scale(0.015625)"/>
      <path id="DejaVuSans-52" d="M 2841 2188 
Q 3044 2119 3236 1894 
Q 3428 1669 3622 1275 
L 4263 0 
L 3584 0 
L 2988 1197 
Q 2756 1666 2539 1819 
Q 2322 1972 1947 1972 
L 1259 1972 
L 1259 0 
L 628 0 
L 628 4666 
L 2053 4666 
Q 2853 4666 3247 4331 
Q 3641 3997 3641 3322 
Q 3641 2881 3436 2590 
Q 3231 2300 2841 2188 
z
M 1259 4147 
L 1259 2491 
L 2053 2491 
Q 2509 2491 2742 2702 
Q 2975 2913 2975 3322 
Q 2975 3731 2742 3939 
Q 2509 4147 2053 4147 
L 1259 4147 
z
" transform="scale(0.015625)"/>
      <path id="DejaVuSans-7a" d="M 353 3500 
L 3084 3500 
L 3084 2975 
L 922 459 
L 3084 459 
L 3084 0 
L 275 0 
L 275 525 
L 2438 3041 
L 353 3041 
L 353 3500 
z
" transform="scale(0.015625)"/>
      <path id="DejaVuSans-54" d="M -19 4666 
L 3928 4666 
L 3928 4134 
L 2272 4134 
L 2272 0 
L 1638 0 
L 1638 4134 
L -19 4134 
L -19 4666 
z
" transform="scale(0.015625)"/>
      <path id="DejaVuSans-2e" d="M 684 794 
L 1344 794 
L 1344 0 
L 684 0 
L 684 794 
z
" transform="scale(0.015625)"/>
     </defs>
     <use xlink:href="#DejaVuSans-42"/>
     <use xlink:href="#DejaVuSans-61" transform="translate(68.603516 0)"/>
     <use xlink:href="#DejaVuSans-73" transform="translate(129.882812 0)"/>
     <use xlink:href="#DejaVuSans-65" transform="translate(181.982422 0)"/>
     <use xlink:href="#DejaVuSans-20" transform="translate(243.505859 0)"/>
     <use xlink:href="#DejaVuSans-50" transform="translate(275.292969 0)"/>
     <use xlink:href="#DejaVuSans-72" transform="translate(333.845703 0)"/>
     <use xlink:href="#DejaVuSans-6f" transform="translate(372.708984 0)"/>
     <use xlink:href="#DejaVuSans-64" transform="translate(433.890625 0)"/>
     <use xlink:href="#DejaVuSans-75" transform="translate(497.367188 0)"/>
     <use xlink:href="#DejaVuSans-63" transform="translate(560.746094 0)"/>
     <use xlink:href="#DejaVuSans-74" transform="translate(615.726562 0)"/>
     <use xlink:href="#DejaVuSans-3a" transform="translate(654.935547 0)"/>
     <use xlink:href="#DejaVuSans-20" transform="translate(688.626953 0)"/>
     <use xlink:href="#DejaVuSans-47" transform="translate(720.414062 0)"/>
     <use xlink:href="#DejaVuSans-72" transform="translate(797.904297 0)"/>
     <use xlink:href="#DejaVuSans-61" transform="translate(839.017578 0)"/>
     <use xlink:href="#DejaVuSans-6e" transform="translate(900.296875 0)"/>
     <use xlink:href="#DejaVuSans-64" transform="translate(963.675781 0)"/>
     <use xlink:href="#DejaVuSans-61" transform="translate(1027.152344 0)"/>
     <use xlink:href="#DejaVuSans-64" transform="translate(1088.431641 0)"/>
     <use xlink:href="#DejaVuSans-64" transform="translate(1151.908203 0)"/>
     <use xlink:href="#DejaVuSans-79" transform="translate(1215.384766 0)"/>
     <use xlink:href="#DejaVuSans-20" transform="translate(1274.564453 0)"/>
     <use xlink:href="#DejaVuSans-50" transform="translate(1306.351562 0)"/>
     <use xlink:href="#DejaVuSans-75" transform="translate(1364.904297 0)"/>
     <use xlink:href="#DejaVuSans-72" transform="translate(1428.283203 0)"/>
     <use xlink:href="#DejaVuSans-70" transform="translate(1469.396484 0)"/>
     <use xlink:href="#DejaVuSans-6c" transform="translate(1532.873047 0)"/>
     <use xlink:href="#DejaVuSans-65" transform="translate(1560.65625 0)"/>
     <use xlink:href="#DejaVuSans-2c" transform="translate(1622.179688 0)"/>
     <use xlink:href="#DejaVuSans-20" transform="translate(1653.966797 0)"/>
     <use xlink:href="#DejaVuSans-52" transform="translate(1685.753906 0)"/>
     <use xlink:href="#DejaVuSans-65" transform="translate(1750.736328 0)"/>
     <use xlink:href="#DejaVuSans-63" transform="translate(1812.259766 0)"/>
     <use xlink:href="#DejaVuSans-69" transform="translate(1867.240234 0)"/>
     <use xlink:href="#DejaVuSans-70" transform="translate(1895.023438 0)"/>
     <use xlink:href="#DejaVuSans-65" transform="translate(1958.5 0)"/>
     <use xlink:href="#DejaVuSans-20" transform="translate(2020.023438 0)"/>
     <use xlink:href="#DejaVuSans-73" transform="translate(2051.810547 0)"/>
     <use xlink:href="#DejaVuSans-69" transform="translate(2103.910156 0)"/>
     <use xlink:href="#DejaVuSans-7a" transform="translate(2131.693359 0)"/>
     <use xlink:href="#DejaVuSans-65" transform="translate(2184.183594 0)"/>
     <use xlink:href="#DejaVuSans-3a" transform="translate(2245.707031 0)"/>
     <use xlink:href="#DejaVuSans-20" transform="translate(2279.398438 0)"/>
     <use xlink:href="#DejaVuSans-38" transform="translate(2311.185547 0)"/>
     <use xlink:href="#DejaVuSans-2c" transform="translate(2374.808594 0)"/>
     <use xlink:href="#DejaVuSans-20" transform="translate(2406.595703 0)"/>
     <use xlink:href="#DejaVuSans-54" transform="translate(2438.382812 0)"/>
     <use xlink:href="#DejaVuSans-30" transform="translate(2499.466797 0)"/>
     <use xlink:href="#DejaVuSans-3a" transform="translate(2563.089844 0)"/>
     <use xlink:href="#DejaVuSans-20" transform="translate(2596.78125 0)"/>
     <use xlink:href="#DejaVuSans-32" transform="translate(2628.568359 0)"/>
     <use xlink:href="#DejaVuSans-30" transform="translate(2692.191406 0)"/>
     <use xlink:href="#DejaVuSans-2e" transform="translate(2755.814453 0)"/>
     <use xlink:href="#DejaVuSans-30" transform="translate(2787.601562 0)"/>
    </g>
   </g>
  </g>
 </g>
 <defs>
  <clipPath id="p7ad27061fc">
   <rect x="50.87" y="43.44" width="793.996" height="346.6"/>
  </clipPath>
 </defs>
</svg>
