<?xml version="1.0" encoding="utf-8" standalone="no"?>
<!DOCTYPE svg PUBLIC "-//W3C//DTD SVG 1.1//EN"
  "http://www.w3.org/Graphics/SVG/1.1/DTD/svg11.dtd">
<svg xmlns:xlink="http://www.w3.org/1999/xlink" width="864pt" height="432pt" viewBox="0 0 864 432" xmlns="http://www.w3.org/2000/svg" version="1.1">
 <metadata>
  <rdf:RDF xmlns:dc="http://purl.org/dc/elements/1.1/" xmlns:cc="http://creativecommons.org/ns#" xmlns:rdf="http://www.w3.org/1999/02/22-rdf-syntax-ns#">
   <cc:Work>
    <dc:type rdf:resource="http://purl.org/dc/dcmitype/StillImage"/>
    <dc:date>2025-05-24T02:13:37.144737</dc:date>
    <dc:format>image/svg+xml</dc:format>
    <dc:creator>
     <cc:Agent>
      <dc:title>Matplotlib v3.10.3, https://matplotlib.org/</dc:title>
     </cc:Agent>
    </dc:creator>
   </cc:Work>
  </rdf:RDF>
 </metadata>
 <defs>
  <style type="text/css">*{stroke-linejoin: round; stroke-linecap: butt}</style>
 </defs>
 <g id="figure_1">
  <g id="patch_1">
   <path d="M 0 432 
L 864 432 
L 864 0 
L 0 0 
z
" style="fill: #ffffff"/>
  </g>
  <g id="axes_1">
   <g id="patch_2">
    <path d="M 50.87 390.04 
L 844.866 390.04 
L 844.866 43.44 
L 50.87 43.44 
z
" style="fill: #ffffff"/>
   </g>
   <g id="FillBetweenPolyCollection_1">
    <defs>
     <path id="m9d1311708d" d="M 52.193327 -308.352514 
L 52.193327 -57.714545 
L 54.83998 -58.56551 
L 57.486633 -74.034471 
L 60.133287 -89.561959 
L 62.77994 -101.38284 
L 65.426593 -113.12027 
L 68.073247 -123.642599 
L 70.7199 -132.133992 
L 73.366553 -140.00966 
L 76.013207 -146.788389 
L 78.65986 -153.316497 
L 81.306513 -158.651824 
L 83.953167 -163.346953 
L 86.59982 -167.405348 
L 89.246473 -171.685558 
L 91.893127 -175.720912 
L 94.53978 -179.081325 
L 97.186433 -181.888369 
L 99.833087 -185.299822 
L 102.47974 -188.223587 
L 105.126393 -190.965111 
L 107.773047 -193.278668 
L 110.4197 -195.468373 
L 113.066353 -197.618987 
L 115.713007 -199.329543 
L 118.35966 -201.165674 
L 121.006313 -202.865925 
L 123.652967 -204.68691 
L 126.29962 -206.0528 
L 128.946273 -207.67173 
L 131.592927 -208.901676 
L 134.23958 -210.336215 
L 136.886233 -211.466898 
L 139.532887 -212.624559 
L 142.17954 -214.134717 
L 144.826193 -215.34842 
L 147.472847 -216.517419 
L 150.1195 -217.480834 
L 152.766153 -218.417444 
L 155.412807 -219.242786 
L 158.05946 -220.32203 
L 160.706113 -221.388194 
L 163.352767 -222.181976 
L 165.99942 -223.087972 
L 168.646073 -223.770767 
L 171.292727 -224.550393 
L 173.93938 -225.34198 
L 176.586033 -226.066016 
L 179.232687 -226.820428 
L 181.87934 -227.71528 
L 184.525993 -228.273748 
L 187.172647 -228.972656 
L 189.8193 -229.677222 
L 192.465953 -230.385079 
L 195.112607 -231.005269 
L 197.75926 -231.900702 
L 200.405913 -232.47509 
L 203.052567 -233.060449 
L 205.69922 -233.636795 
L 208.345873 -234.151547 
L 210.992527 -234.647583 
L 213.63918 -235.204524 
L 216.285833 -235.662437 
L 218.932487 -236.242204 
L 221.57914 -236.819496 
L 224.225793 -237.349265 
L 226.872447 -237.875226 
L 229.5191 -238.433866 
L 232.165753 -238.825238 
L 234.812407 -239.199572 
L 237.45906 -239.65 
L 240.105713 -240.015212 
L 242.752367 -240.43651 
L 245.39902 -240.922542 
L 248.045673 -241.307504 
L 250.692327 -241.756511 
L 253.33898 -242.07192 
L 255.985633 -242.514387 
L 258.632287 -243.028301 
L 261.27894 -243.424192 
L 263.925593 -243.866723 
L 266.572247 -244.264012 
L 269.2189 -244.66128 
L 271.865553 -245.217725 
L 274.512207 -245.58922 
L 277.15886 -245.998771 
L 279.805513 -246.246348 
L 282.452167 -246.584131 
L 285.09882 -246.95029 
L 287.745473 -247.234225 
L 290.392127 -247.617745 
L 293.03878 -248.001631 
L 295.685433 -248.22748 
L 298.332087 -248.57049 
L 300.97874 -248.874733 
L 303.625393 -249.187668 
L 306.272047 -249.507272 
L 308.9187 -249.817259 
L 311.565353 -250.10085 
L 314.212007 -250.279089 
L 316.85866 -250.612203 
L 319.505313 -250.764239 
L 322.151967 -251.000134 
L 324.79862 -251.325934 
L 327.445273 -251.571123 
L 330.091927 -251.902322 
L 332.73858 -252.153685 
L 335.385233 -252.474236 
L 338.031887 -252.801262 
L 340.67854 -253.088682 
L 343.325193 -253.251302 
L 345.971847 -253.53657 
L 348.6185 -253.788407 
L 351.265153 -253.921919 
L 353.911807 -254.208844 
L 356.55846 -254.476838 
L 359.205113 -254.790289 
L 361.851767 -254.946476 
L 364.49842 -255.098017 
L 367.145073 -255.299233 
L 369.791727 -255.547541 
L 372.43838 -255.641146 
L 375.085033 -255.803637 
L 377.731687 -256.085937 
L 380.37834 -256.469715 
L 383.024993 -256.633131 
L 385.671647 -256.84448 
L 388.3183 -257.000194 
L 390.964953 -257.165224 
L 393.611607 -257.384812 
L 396.25826 -257.57299 
L 398.904913 -257.729543 
L 401.551567 -257.874824 
L 404.19822 -258.021244 
L 406.844873 -258.177733 
L 409.491527 -258.408271 
L 412.13818 -258.557058 
L 414.784833 -258.782498 
L 417.431487 -258.951099 
L 420.07814 -259.09511 
L 422.724793 -259.272316 
L 425.371447 -259.310739 
L 428.0181 -259.567481 
L 430.664753 -259.649383 
L 433.311407 -259.799159 
L 435.95806 -259.954659 
L 438.604713 -260.189736 
L 441.251367 -260.36066 
L 443.89802 -260.585562 
L 446.544673 -260.690139 
L 449.191327 -260.807065 
L 451.83798 -260.945913 
L 454.484633 -261.074369 
L 457.131287 -261.264204 
L 459.77794 -261.512857 
L 462.424593 -261.69841 
L 465.071247 -261.77844 
L 467.7179 -261.909802 
L 470.364553 -262.210065 
L 473.011207 -262.380451 
L 475.65786 -262.649241 
L 478.304513 -262.753344 
L 480.951167 -262.870743 
L 483.59782 -263.026974 
L 486.244473 -263.161949 
L 488.891127 -263.279477 
L 491.53778 -263.451865 
L 494.184433 -263.60887 
L 496.831087 -263.63617 
L 499.47774 -263.729991 
L 502.124393 -263.858447 
L 504.771047 -264.061836 
L 507.4177 -264.364078 
L 510.064353 -264.486985 
L 512.711007 -264.560324 
L 515.35766 -264.674044 
L 518.004313 -264.791508 
L 520.650967 -264.917189 
L 523.29762 -265.030759 
L 525.944273 -265.199145 
L 528.590927 -265.310326 
L 531.23758 -265.46219 
L 533.884233 -265.637976 
L 536.530887 -265.751524 
L 539.17754 -265.975909 
L 541.824193 -266.22923 
L 544.470847 -266.370273 
L 547.1175 -266.483261 
L 549.764153 -266.655606 
L 552.410807 -266.760161 
L 555.05746 -266.89959 
L 557.704113 -267.008986 
L 560.350767 -267.121522 
L 562.99742 -267.277474 
L 565.644073 -267.408577 
L 568.290727 -267.525007 
L 570.93738 -267.651463 
L 573.584033 -267.754577 
L 576.230687 -267.873568 
L 578.87734 -267.939314 
L 581.523993 -268.055336 
L 584.170647 -268.224281 
L 586.8173 -268.34581 
L 589.463953 -268.481969 
L 592.110607 -268.568711 
L 594.75726 -268.643879 
L 597.403913 -268.67473 
L 600.050567 -268.721521 
L 602.69722 -268.906602 
L 605.343873 -268.995904 
L 607.990527 -269.09891 
L 610.63718 -269.248235 
L 613.283833 -269.362364 
L 615.930487 -269.495468 
L 618.57714 -269.526404 
L 621.223793 -269.599206 
L 623.870447 -269.706149 
L 626.5171 -269.736763 
L 629.163753 -269.792999 
L 631.810407 -269.922768 
L 634.45706 -269.989933 
L 637.103713 -270.047632 
L 639.750367 -270.184028 
L 642.39702 -270.287679 
L 645.043673 -270.400238 
L 647.690327 -270.474717 
L 650.33698 -270.587405 
L 652.983633 -270.73318 
L 655.630287 -270.793461 
L 658.27694 -270.904406 
L 660.923593 -270.968172 
L 663.570247 -271.098672 
L 666.2169 -271.256796 
L 668.863553 -271.310042 
L 671.510207 -271.358705 
L 674.15686 -271.499705 
L 676.803513 -271.625386 
L 679.450167 -271.722046 
L 682.09682 -271.8533 
L 684.743473 -271.956263 
L 687.390127 -272.017232 
L 690.03678 -272.079213 
L 692.683433 -272.13745 
L 695.330087 -272.250137 
L 697.97674 -272.305039 
L 700.623393 -272.399613 
L 703.270047 -272.416694 
L 705.9167 -272.511891 
L 708.563353 -272.582305 
L 711.210007 -272.645554 
L 713.85666 -272.74727 
L 716.503313 -272.838336 
L 719.149967 -272.843435 
L 721.79662 -272.907717 
L 724.443273 -272.992782 
L 727.089927 -273.051126 
L 729.73658 -273.137847 
L 732.383233 -273.172591 
L 735.029887 -273.267164 
L 737.67654 -273.407195 
L 740.323193 -273.517301 
L 742.969847 -273.575796 
L 745.6165 -273.680825 
L 748.263153 -273.787639 
L 750.909807 -273.852438 
L 753.55646 -273.966631 
L 756.203113 -274.028827 
L 758.849767 -274.091216 
L 761.49642 -274.14145 
L 764.143073 -274.182626 
L 766.789727 -274.282965 
L 769.43638 -274.384616 
L 772.083033 -274.470455 
L 774.729687 -274.570019 
L 777.37634 -274.667088 
L 780.022993 -274.713256 
L 782.669647 -274.815488 
L 785.3163 -274.928885 
L 787.962953 -274.972278 
L 790.609607 -275.115471 
L 793.25626 -275.128939 
L 795.902913 -275.188617 
L 798.549567 -275.361972 
L 801.19622 -275.454287 
L 803.842873 -275.51347 
L 806.489527 -275.677661 
L 809.13618 -275.749946 
L 811.782833 -275.828427 
L 814.429487 -275.885825 
L 817.07614 -275.94176 
L 819.722793 -276.106209 
L 822.369447 -276.156486 
L 825.0161 -276.218337 
L 827.662753 -276.342233 
L 830.309407 -276.356411 
L 832.95606 -276.404923 
L 835.602713 -276.493882 
L 838.249367 -276.523333 
L 840.89602 -276.559498 
L 843.542673 -276.616723 
L 843.542673 -372.805455 
L 843.542673 -372.805455 
L 840.89602 -372.771119 
L 838.249367 -372.683516 
L 835.602713 -372.649525 
L 832.95606 -372.637822 
L 830.309407 -372.597118 
L 827.662753 -372.541829 
L 825.0161 -372.541011 
L 822.369447 -372.508784 
L 819.722793 -372.475911 
L 817.07614 -372.50887 
L 814.429487 -372.506719 
L 811.782833 -372.477417 
L 809.13618 -372.434347 
L 806.489527 -372.442006 
L 803.842873 -372.475782 
L 801.19622 -372.411887 
L 798.549567 -372.433616 
L 795.902913 -372.47092 
L 793.25626 -372.426043 
L 790.609607 -372.364084 
L 787.962953 -372.367398 
L 785.3163 -372.355436 
L 782.669647 -372.36473 
L 780.022993 -372.362794 
L 777.37634 -372.304621 
L 774.729687 -372.294123 
L 772.083033 -372.28186 
L 769.43638 -372.260992 
L 766.789727 -372.232465 
L 764.143073 -372.228248 
L 761.49642 -372.183414 
L 758.849767 -372.129158 
L 756.203113 -372.095381 
L 753.55646 -372.046933 
L 750.909807 -372.065951 
L 748.263153 -372.022408 
L 745.6165 -372.031702 
L 742.969847 -372.045642 
L 740.323193 -372.007736 
L 737.67654 -372.018406 
L 735.029887 -372.028388 
L 732.383233 -372.018837 
L 729.73658 -371.940226 
L 727.089927 -371.914927 
L 724.443273 -371.829733 
L 721.79662 -371.795656 
L 719.149967 -371.724403 
L 716.503313 -371.641878 
L 713.85666 -371.618772 
L 711.210007 -371.590934 
L 708.563353 -371.558319 
L 705.9167 -371.493048 
L 703.270047 -371.46138 
L 700.623393 -371.353081 
L 697.97674 -371.350586 
L 695.330087 -371.273782 
L 692.683433 -371.262552 
L 690.03678 -371.211781 
L 687.390127 -371.148015 
L 684.743473 -371.084335 
L 682.09682 -371.057013 
L 679.450167 -371.069319 
L 676.803513 -371.032918 
L 674.15686 -371.037005 
L 671.510207 -371.055765 
L 668.863553 -370.969238 
L 666.2169 -370.878322 
L 663.570247 -370.91326 
L 660.923593 -370.846912 
L 658.27694 -370.791494 
L 655.630287 -370.767011 
L 652.983633 -370.708366 
L 650.33698 -370.694984 
L 647.690327 -370.651527 
L 645.043673 -370.641115 
L 642.39702 -370.627475 
L 639.750367 -370.589741 
L 637.103713 -370.579414 
L 634.45706 -370.516294 
L 631.810407 -370.446934 
L 629.163753 -370.423269 
L 626.5171 -370.338679 
L 623.870447 -370.284938 
L 621.223793 -370.265103 
L 618.57714 -370.189504 
L 615.930487 -370.056207 
L 613.283833 -369.984395 
L 610.63718 -369.96258 
L 607.990527 -369.94395 
L 605.343873 -369.930525 
L 602.69722 -369.870115 
L 600.050567 -369.87601 
L 597.403913 -369.788493 
L 594.75726 -369.699471 
L 592.110607 -369.590527 
L 589.463953 -369.556793 
L 586.8173 -369.561871 
L 584.170647 -369.540185 
L 581.523993 -369.52177 
L 578.87734 -369.477624 
L 576.230687 -369.416655 
L 573.584033 -369.385546 
L 570.93738 -369.318812 
L 568.290727 -369.268384 
L 565.644073 -369.231209 
L 562.99742 -369.213568 
L 560.350767 -369.170498 
L 557.704113 -369.108195 
L 555.05746 -369.064695 
L 552.410807 -369.044472 
L 549.764153 -369.005188 
L 547.1175 -369.022399 
L 544.470847 -368.989871 
L 541.824193 -368.972488 
L 539.17754 -369.008932 
L 536.530887 -369.02696 
L 533.884233 -368.992323 
L 531.23758 -368.942885 
L 528.590927 -368.879507 
L 525.944273 -368.836179 
L 523.29762 -368.792291 
L 520.650967 -368.721469 
L 518.004313 -368.675645 
L 515.35766 -368.627584 
L 512.711007 -368.571821 
L 510.064353 -368.460382 
L 507.4177 -368.383234 
L 504.771047 -368.418646 
L 502.124393 -368.37493 
L 499.47774 -368.291071 
L 496.831087 -368.208975 
L 494.184433 -368.041687 
L 491.53778 -367.960968 
L 488.891127 -367.912477 
L 486.244473 -367.850604 
L 483.59782 -367.848281 
L 480.951167 -367.791872 
L 478.304513 -367.684477 
L 475.65786 -367.625789 
L 473.011207 -367.665287 
L 470.364553 -367.640504 
L 467.7179 -367.689856 
L 465.071247 -367.656295 
L 462.424593 -367.472527 
L 459.77794 -367.43561 
L 457.131287 -367.469515 
L 454.484633 -367.417753 
L 451.83798 -367.284972 
L 449.191327 -367.218453 
L 446.544673 -367.100344 
L 443.89802 -366.985634 
L 441.251367 -366.943081 
L 438.604713 -366.875141 
L 435.95806 -366.826176 
L 433.311407 -366.755354 
L 430.664753 -366.657941 
L 428.0181 -366.542113 
L 425.371447 -366.572318 
L 422.724793 -366.389281 
L 420.07814 -366.294063 
L 417.431487 -366.182537 
L 414.784833 -366.109391 
L 412.13818 -366.067935 
L 409.491527 -365.980547 
L 406.844873 -365.902453 
L 404.19822 -365.787528 
L 401.551567 -365.679531 
L 398.904913 -365.573792 
L 396.25826 -365.471151 
L 393.611607 -365.429351 
L 390.964953 -365.357087 
L 388.3183 -365.256856 
L 385.671647 -365.116072 
L 383.024993 -365.060567 
L 380.37834 -364.986346 
L 377.731687 -365.032191 
L 375.085033 -365.025048 
L 372.43838 -364.909327 
L 369.791727 -364.752774 
L 367.145073 -364.70794 
L 364.49842 -364.624102 
L 361.851767 -364.475229 
L 359.205113 -364.338446 
L 356.55846 -364.302132 
L 353.911807 -364.217046 
L 351.265153 -364.101884 
L 348.6185 -363.867216 
L 345.971847 -363.791144 
L 343.325193 -363.714857 
L 340.67854 -363.54617 
L 338.031887 -363.453404 
L 335.385233 -363.393833 
L 332.73858 -363.33678 
L 330.091927 -363.225813 
L 327.445273 -363.18866 
L 324.79862 -363.027674 
L 322.151967 -363.023071 
L 319.505313 -362.806021 
L 316.85866 -362.597319 
L 314.212007 -362.528476 
L 311.565353 -362.28204 
L 308.9187 -362.086482 
L 306.272047 -361.926401 
L 303.625393 -361.80485 
L 300.97874 -361.716042 
L 298.332087 -361.59363 
L 295.685433 -361.455385 
L 293.03878 -361.258967 
L 290.392127 -361.125627 
L 287.745473 -361.017091 
L 285.09882 -360.854493 
L 282.452167 -360.782595 
L 279.805513 -360.652675 
L 277.15886 -360.464948 
L 274.512207 -360.390318 
L 271.865553 -360.256289 
L 269.2189 -360.276921 
L 266.572247 -360.12254 
L 263.925593 -359.956908 
L 261.27894 -359.93419 
L 258.632287 -359.77555 
L 255.985633 -359.656795 
L 253.33898 -359.592621 
L 250.692327 -359.416533 
L 248.045673 -359.149228 
L 245.39902 -358.937149 
L 242.752367 -358.852472 
L 240.105713 -358.680515 
L 237.45906 -358.512409 
L 234.812407 -358.252505 
L 232.165753 -358.065165 
L 229.5191 -357.785662 
L 226.872447 -357.617578 
L 224.225793 -357.506138 
L 221.57914 -357.330868 
L 218.932487 -357.08157 
L 216.285833 -356.930051 
L 213.63918 -356.668167 
L 210.992527 -356.482549 
L 208.345873 -356.171185 
L 205.69922 -355.903794 
L 203.052567 -355.629412 
L 200.405913 -355.416149 
L 197.75926 -355.15732 
L 195.112607 -355.129697 
L 192.465953 -354.875752 
L 189.8193 -354.670148 
L 187.172647 -354.393399 
L 184.525993 -354.123384 
L 181.87934 -353.772822 
L 179.232687 -353.691437 
L 176.586033 -353.303226 
L 173.93938 -352.962044 
L 171.292727 -352.5796 
L 168.646073 -352.33454 
L 165.99942 -351.890889 
L 163.352767 -351.615495 
L 160.706113 -351.288082 
L 158.05946 -350.911209 
L 155.412807 -350.605503 
L 152.766153 -350.135735 
L 150.1195 -349.597038 
L 147.472847 -349.080672 
L 144.826193 -348.654921 
L 142.17954 -348.312728 
L 139.532887 -348.066356 
L 136.886233 -347.685847 
L 134.23958 -346.949721 
L 131.592927 -346.570891 
L 128.946273 -345.928392 
L 126.29962 -345.511762 
L 123.652967 -344.891959 
L 121.006313 -344.602216 
L 118.35966 -344.089981 
L 115.713007 -343.5845 
L 113.066353 -342.959728 
L 110.4197 -342.510226 
L 107.773047 -342.121844 
L 105.126393 -341.370723 
L 102.47974 -341.040513 
L 99.833087 -340.464511 
L 97.186433 -339.968304 
L 94.53978 -339.01302 
L 91.893127 -338.145963 
L 89.246473 -337.54279 
L 86.59982 -336.782118 
L 83.953167 -335.464849 
L 81.306513 -334.362026 
L 78.65986 -333.207334 
L 76.013207 -332.275134 
L 73.366553 -330.664637 
L 70.7199 -328.537688 
L 68.073247 -326.946918 
L 65.426593 -325.632252 
L 62.77994 -323.477013 
L 60.133287 -319.316116 
L 57.486633 -315.702974 
L 54.83998 -309.227876 
L 52.193327 -308.352514 
z
" style="stroke: #0000ff; stroke-opacity: 0.2"/>
    </defs>
    <g clip-path="url(#p974ad02684)">
     <use xlink:href="#m9d1311708d" x="0" y="432" style="fill: #0000ff; fill-opacity: 0.2; stroke: #0000ff; stroke-opacity: 0.2"/>
    </g>
   </g>
   <g id="matplotlib.axis_1">
    <g id="xtick_1">
     <g id="line2d_1">
      <defs>
       <path id="md70b7bca37" d="M 0 0 
L 0 3.5 
" style="stroke: #000000; stroke-width: 0.8"/>
      </defs>
      <g>
       <use xlink:href="#md70b7bca37" x="181.87934" y="390.04" style="stroke: #000000; stroke-width: 0.8"/>
      </g>
     </g>
     <g id="text_1">
      <!-- 50 -->
      <g transform="translate(175.51684 404.638438) scale(0.1 -0.1)">
       <defs>
        <path id="DejaVuSans-35" d="M 691 4666 
L 3169 4666 
L 3169 4134 
L 1269 4134 
L 1269 2991 
Q 1406 3038 1543 3061 
Q 1681 3084 1819 3084 
Q 2600 3084 3056 2656 
Q 3513 2228 3513 1497 
Q 3513 744 3044 326 
Q 2575 -91 1722 -91 
Q 1428 -91 1123 -41 
Q 819 9 494 109 
L 494 744 
Q 775 591 1075 516 
Q 1375 441 1709 441 
Q 2250 441 2565 725 
Q 2881 1009 2881 1497 
Q 2881 1984 2565 2268 
Q 2250 2553 1709 2553 
Q 1456 2553 1204 2497 
Q 953 2441 691 2322 
L 691 4666 
z
" transform="scale(0.015625)"/>
        <path id="DejaVuSans-30" d="M 2034 4250 
Q 1547 4250 1301 3770 
Q 1056 3291 1056 2328 
Q 1056 1369 1301 889 
Q 1547 409 2034 409 
Q 2525 409 2770 889 
Q 3016 1369 3016 2328 
Q 3016 3291 2770 3770 
Q 2525 4250 2034 4250 
z
M 2034 4750 
Q 2819 4750 3233 4129 
Q 3647 3509 3647 2328 
Q 3647 1150 3233 529 
Q 2819 -91 2034 -91 
Q 1250 -91 836 529 
Q 422 1150 422 2328 
Q 422 3509 836 4129 
Q 1250 4750 2034 4750 
z
" transform="scale(0.015625)"/>
       </defs>
       <use xlink:href="#DejaVuSans-35"/>
       <use xlink:href="#DejaVuSans-30" transform="translate(63.623047 0)"/>
      </g>
     </g>
    </g>
    <g id="xtick_2">
     <g id="line2d_2">
      <g>
       <use xlink:href="#md70b7bca37" x="314.212007" y="390.04" style="stroke: #000000; stroke-width: 0.8"/>
      </g>
     </g>
     <g id="text_2">
      <!-- 100 -->
      <g transform="translate(304.668257 404.638438) scale(0.1 -0.1)">
       <defs>
        <path id="DejaVuSans-31" d="M 794 531 
L 1825 531 
L 1825 4091 
L 703 3866 
L 703 4441 
L 1819 4666 
L 2450 4666 
L 2450 531 
L 3481 531 
L 3481 0 
L 794 0 
L 794 531 
z
" transform="scale(0.015625)"/>
       </defs>
       <use xlink:href="#DejaVuSans-31"/>
       <use xlink:href="#DejaVuSans-30" transform="translate(63.623047 0)"/>
       <use xlink:href="#DejaVuSans-30" transform="translate(127.246094 0)"/>
      </g>
     </g>
    </g>
    <g id="xtick_3">
     <g id="line2d_3">
      <g>
       <use xlink:href="#md70b7bca37" x="446.544673" y="390.04" style="stroke: #000000; stroke-width: 0.8"/>
      </g>
     </g>
     <g id="text_3">
      <!-- 150 -->
      <g transform="translate(437.000923 404.638438) scale(0.1 -0.1)">
       <use xlink:href="#DejaVuSans-31"/>
       <use xlink:href="#DejaVuSans-35" transform="translate(63.623047 0)"/>
       <use xlink:href="#DejaVuSans-30" transform="translate(127.246094 0)"/>
      </g>
     </g>
    </g>
    <g id="xtick_4">
     <g id="line2d_4">
      <g>
       <use xlink:href="#md70b7bca37" x="578.87734" y="390.04" style="stroke: #000000; stroke-width: 0.8"/>
      </g>
     </g>
     <g id="text_4">
      <!-- 200 -->
      <g transform="translate(569.33359 404.638438) scale(0.1 -0.1)">
       <defs>
        <path id="DejaVuSans-32" d="M 1228 531 
L 3431 531 
L 3431 0 
L 469 0 
L 469 531 
Q 828 903 1448 1529 
Q 2069 2156 2228 2338 
Q 2531 2678 2651 2914 
Q 2772 3150 2772 3378 
Q 2772 3750 2511 3984 
Q 2250 4219 1831 4219 
Q 1534 4219 1204 4116 
Q 875 4013 500 3803 
L 500 4441 
Q 881 4594 1212 4672 
Q 1544 4750 1819 4750 
Q 2544 4750 2975 4387 
Q 3406 4025 3406 3419 
Q 3406 3131 3298 2873 
Q 3191 2616 2906 2266 
Q 2828 2175 2409 1742 
Q 1991 1309 1228 531 
z
" transform="scale(0.015625)"/>
       </defs>
       <use xlink:href="#DejaVuSans-32"/>
       <use xlink:href="#DejaVuSans-30" transform="translate(63.623047 0)"/>
       <use xlink:href="#DejaVuSans-30" transform="translate(127.246094 0)"/>
      </g>
     </g>
    </g>
    <g id="xtick_5">
     <g id="line2d_5">
      <g>
       <use xlink:href="#md70b7bca37" x="711.210007" y="390.04" style="stroke: #000000; stroke-width: 0.8"/>
      </g>
     </g>
     <g id="text_5">
      <!-- 250 -->
      <g transform="translate(701.666257 404.638438) scale(0.1 -0.1)">
       <use xlink:href="#DejaVuSans-32"/>
       <use xlink:href="#DejaVuSans-35" transform="translate(63.623047 0)"/>
       <use xlink:href="#DejaVuSans-30" transform="translate(127.246094 0)"/>
      </g>
     </g>
    </g>
    <g id="xtick_6">
     <g id="line2d_6">
      <g>
       <use xlink:href="#md70b7bca37" x="843.542673" y="390.04" style="stroke: #000000; stroke-width: 0.8"/>
      </g>
     </g>
     <g id="text_6">
      <!-- 300 -->
      <g transform="translate(833.998923 404.638438) scale(0.1 -0.1)">
       <defs>
        <path id="DejaVuSans-33" d="M 2597 2516 
Q 3050 2419 3304 2112 
Q 3559 1806 3559 1356 
Q 3559 666 3084 287 
Q 2609 -91 1734 -91 
Q 1441 -91 1130 -33 
Q 819 25 488 141 
L 488 750 
Q 750 597 1062 519 
Q 1375 441 1716 441 
Q 2309 441 2620 675 
Q 2931 909 2931 1356 
Q 2931 1769 2642 2001 
Q 2353 2234 1838 2234 
L 1294 2234 
L 1294 2753 
L 1863 2753 
Q 2328 2753 2575 2939 
Q 2822 3125 2822 3475 
Q 2822 3834 2567 4026 
Q 2313 4219 1838 4219 
Q 1578 4219 1281 4162 
Q 984 4106 628 3988 
L 628 4550 
Q 988 4650 1302 4700 
Q 1616 4750 1894 4750 
Q 2613 4750 3031 4423 
Q 3450 4097 3450 3541 
Q 3450 3153 3228 2886 
Q 3006 2619 2597 2516 
z
" transform="scale(0.015625)"/>
       </defs>
       <use xlink:href="#DejaVuSans-33"/>
       <use xlink:href="#DejaVuSans-30" transform="translate(63.623047 0)"/>
       <use xlink:href="#DejaVuSans-30" transform="translate(127.246094 0)"/>
      </g>
     </g>
    </g>
    <g id="text_7">
     <!-- Step -->
     <g transform="translate(436.482844 418.316562) scale(0.1 -0.1)">
      <defs>
       <path id="DejaVuSans-53" d="M 3425 4513 
L 3425 3897 
Q 3066 4069 2747 4153 
Q 2428 4238 2131 4238 
Q 1616 4238 1336 4038 
Q 1056 3838 1056 3469 
Q 1056 3159 1242 3001 
Q 1428 2844 1947 2747 
L 2328 2669 
Q 3034 2534 3370 2195 
Q 3706 1856 3706 1288 
Q 3706 609 3251 259 
Q 2797 -91 1919 -91 
Q 1588 -91 1214 -16 
Q 841 59 441 206 
L 441 856 
Q 825 641 1194 531 
Q 1563 422 1919 422 
Q 2459 422 2753 634 
Q 3047 847 3047 1241 
Q 3047 1584 2836 1778 
Q 2625 1972 2144 2069 
L 1759 2144 
Q 1053 2284 737 2584 
Q 422 2884 422 3419 
Q 422 4038 858 4394 
Q 1294 4750 2059 4750 
Q 2388 4750 2728 4690 
Q 3069 4631 3425 4513 
z
" transform="scale(0.015625)"/>
       <path id="DejaVuSans-74" d="M 1172 4494 
L 1172 3500 
L 2356 3500 
L 2356 3053 
L 1172 3053 
L 1172 1153 
Q 1172 725 1289 603 
Q 1406 481 1766 481 
L 2356 481 
L 2356 0 
L 1766 0 
Q 1100 0 847 248 
Q 594 497 594 1153 
L 594 3053 
L 172 3053 
L 172 3500 
L 594 3500 
L 594 4494 
L 1172 4494 
z
" transform="scale(0.015625)"/>
       <path id="DejaVuSans-65" d="M 3597 1894 
L 3597 1613 
L 953 1613 
Q 991 1019 1311 708 
Q 1631 397 2203 397 
Q 2534 397 2845 478 
Q 3156 559 3463 722 
L 3463 178 
Q 3153 47 2828 -22 
Q 2503 -91 2169 -91 
Q 1331 -91 842 396 
Q 353 884 353 1716 
Q 353 2575 817 3079 
Q 1281 3584 2069 3584 
Q 2775 3584 3186 3129 
Q 3597 2675 3597 1894 
z
M 3022 2063 
Q 3016 2534 2758 2815 
Q 2500 3097 2075 3097 
Q 1594 3097 1305 2825 
Q 1016 2553 972 2059 
L 3022 2063 
z
" transform="scale(0.015625)"/>
       <path id="DejaVuSans-70" d="M 1159 525 
L 1159 -1331 
L 581 -1331 
L 581 3500 
L 1159 3500 
L 1159 2969 
Q 1341 3281 1617 3432 
Q 1894 3584 2278 3584 
Q 2916 3584 3314 3078 
Q 3713 2572 3713 1747 
Q 3713 922 3314 415 
Q 2916 -91 2278 -91 
Q 1894 -91 1617 61 
Q 1341 213 1159 525 
z
M 3116 1747 
Q 3116 2381 2855 2742 
Q 2594 3103 2138 3103 
Q 1681 3103 1420 2742 
Q 1159 2381 1159 1747 
Q 1159 1113 1420 752 
Q 1681 391 2138 391 
Q 2594 391 2855 752 
Q 3116 1113 3116 1747 
z
" transform="scale(0.015625)"/>
      </defs>
      <use xlink:href="#DejaVuSans-53"/>
      <use xlink:href="#DejaVuSans-74" transform="translate(63.476562 0)"/>
      <use xlink:href="#DejaVuSans-65" transform="translate(102.685547 0)"/>
      <use xlink:href="#DejaVuSans-70" transform="translate(164.208984 0)"/>
     </g>
    </g>
   </g>
   <g id="matplotlib.axis_2">
    <g id="ytick_1">
     <g id="line2d_7">
      <defs>
       <path id="m8043f6b0c2" d="M 0 0 
L -3.5 0 
" style="stroke: #000000; stroke-width: 0.8"/>
      </defs>
      <g>
       <use xlink:href="#m8043f6b0c2" x="50.87" y="370.369274" style="stroke: #000000; stroke-width: 0.8"/>
      </g>
     </g>
     <g id="text_8">
      <!-- 20 -->
      <g transform="translate(31.145 374.168493) scale(0.1 -0.1)">
       <use xlink:href="#DejaVuSans-32"/>
       <use xlink:href="#DejaVuSans-30" transform="translate(63.623047 0)"/>
      </g>
     </g>
    </g>
    <g id="ytick_2">
     <g id="line2d_8">
      <g>
       <use xlink:href="#m8043f6b0c2" x="50.87" y="313.973037" style="stroke: #000000; stroke-width: 0.8"/>
      </g>
     </g>
     <g id="text_9">
      <!-- 40 -->
      <g transform="translate(31.145 317.772256) scale(0.1 -0.1)">
       <defs>
        <path id="DejaVuSans-34" d="M 2419 4116 
L 825 1625 
L 2419 1625 
L 2419 4116 
z
M 2253 4666 
L 3047 4666 
L 3047 1625 
L 3713 1625 
L 3713 1100 
L 3047 1100 
L 3047 0 
L 2419 0 
L 2419 1100 
L 313 1100 
L 313 1709 
L 2253 4666 
z
" transform="scale(0.015625)"/>
       </defs>
       <use xlink:href="#DejaVuSans-34"/>
       <use xlink:href="#DejaVuSans-30" transform="translate(63.623047 0)"/>
      </g>
     </g>
    </g>
    <g id="ytick_3">
     <g id="line2d_9">
      <g>
       <use xlink:href="#m8043f6b0c2" x="50.87" y="257.576801" style="stroke: #000000; stroke-width: 0.8"/>
      </g>
     </g>
     <g id="text_10">
      <!-- 60 -->
      <g transform="translate(31.145 261.37602) scale(0.1 -0.1)">
       <defs>
        <path id="DejaVuSans-36" d="M 2113 2584 
Q 1688 2584 1439 2293 
Q 1191 2003 1191 1497 
Q 1191 994 1439 701 
Q 1688 409 2113 409 
Q 2538 409 2786 701 
Q 3034 994 3034 1497 
Q 3034 2003 2786 2293 
Q 2538 2584 2113 2584 
z
M 3366 4563 
L 3366 3988 
Q 3128 4100 2886 4159 
Q 2644 4219 2406 4219 
Q 1781 4219 1451 3797 
Q 1122 3375 1075 2522 
Q 1259 2794 1537 2939 
Q 1816 3084 2150 3084 
Q 2853 3084 3261 2657 
Q 3669 2231 3669 1497 
Q 3669 778 3244 343 
Q 2819 -91 2113 -91 
Q 1303 -91 875 529 
Q 447 1150 447 2328 
Q 447 3434 972 4092 
Q 1497 4750 2381 4750 
Q 2619 4750 2861 4703 
Q 3103 4656 3366 4563 
z
" transform="scale(0.015625)"/>
       </defs>
       <use xlink:href="#DejaVuSans-36"/>
       <use xlink:href="#DejaVuSans-30" transform="translate(63.623047 0)"/>
      </g>
     </g>
    </g>
    <g id="ytick_4">
     <g id="line2d_10">
      <g>
       <use xlink:href="#m8043f6b0c2" x="50.87" y="201.180564" style="stroke: #000000; stroke-width: 0.8"/>
      </g>
     </g>
     <g id="text_11">
      <!-- 80 -->
      <g transform="translate(31.145 204.979783) scale(0.1 -0.1)">
       <defs>
        <path id="DejaVuSans-38" d="M 2034 2216 
Q 1584 2216 1326 1975 
Q 1069 1734 1069 1313 
Q 1069 891 1326 650 
Q 1584 409 2034 409 
Q 2484 409 2743 651 
Q 3003 894 3003 1313 
Q 3003 1734 2745 1975 
Q 2488 2216 2034 2216 
z
M 1403 2484 
Q 997 2584 770 2862 
Q 544 3141 544 3541 
Q 544 4100 942 4425 
Q 1341 4750 2034 4750 
Q 2731 4750 3128 4425 
Q 3525 4100 3525 3541 
Q 3525 3141 3298 2862 
Q 3072 2584 2669 2484 
Q 3125 2378 3379 2068 
Q 3634 1759 3634 1313 
Q 3634 634 3220 271 
Q 2806 -91 2034 -91 
Q 1263 -91 848 271 
Q 434 634 434 1313 
Q 434 1759 690 2068 
Q 947 2378 1403 2484 
z
M 1172 3481 
Q 1172 3119 1398 2916 
Q 1625 2713 2034 2713 
Q 2441 2713 2670 2916 
Q 2900 3119 2900 3481 
Q 2900 3844 2670 4047 
Q 2441 4250 2034 4250 
Q 1625 4250 1398 4047 
Q 1172 3844 1172 3481 
z
" transform="scale(0.015625)"/>
       </defs>
       <use xlink:href="#DejaVuSans-38"/>
       <use xlink:href="#DejaVuSans-30" transform="translate(63.623047 0)"/>
      </g>
     </g>
    </g>
    <g id="ytick_5">
     <g id="line2d_11">
      <g>
       <use xlink:href="#m8043f6b0c2" x="50.87" y="144.784328" style="stroke: #000000; stroke-width: 0.8"/>
      </g>
     </g>
     <g id="text_12">
      <!-- 100 -->
      <g transform="translate(24.7825 148.583547) scale(0.1 -0.1)">
       <use xlink:href="#DejaVuSans-31"/>
       <use xlink:href="#DejaVuSans-30" transform="translate(63.623047 0)"/>
       <use xlink:href="#DejaVuSans-30" transform="translate(127.246094 0)"/>
      </g>
     </g>
    </g>
    <g id="ytick_6">
     <g id="line2d_12">
      <g>
       <use xlink:href="#m8043f6b0c2" x="50.87" y="88.388091" style="stroke: #000000; stroke-width: 0.8"/>
      </g>
     </g>
     <g id="text_13">
      <!-- 120 -->
      <g transform="translate(24.7825 92.18731) scale(0.1 -0.1)">
       <use xlink:href="#DejaVuSans-31"/>
       <use xlink:href="#DejaVuSans-32" transform="translate(63.623047 0)"/>
       <use xlink:href="#DejaVuSans-30" transform="translate(127.246094 0)"/>
      </g>
     </g>
    </g>
    <g id="text_14">
     <!-- Profit -->
     <g transform="translate(18.702813 229.779063) rotate(-90) scale(0.1 -0.1)">
      <defs>
       <path id="DejaVuSans-50" d="M 1259 4147 
L 1259 2394 
L 2053 2394 
Q 2494 2394 2734 2622 
Q 2975 2850 2975 3272 
Q 2975 3691 2734 3919 
Q 2494 4147 2053 4147 
L 1259 4147 
z
M 628 4666 
L 2053 4666 
Q 2838 4666 3239 4311 
Q 3641 3956 3641 3272 
Q 3641 2581 3239 2228 
Q 2838 1875 2053 1875 
L 1259 1875 
L 1259 0 
L 628 0 
L 628 4666 
z
" transform="scale(0.015625)"/>
       <path id="DejaVuSans-72" d="M 2631 2963 
Q 2534 3019 2420 3045 
Q 2306 3072 2169 3072 
Q 1681 3072 1420 2755 
Q 1159 2438 1159 1844 
L 1159 0 
L 581 0 
L 581 3500 
L 1159 3500 
L 1159 2956 
Q 1341 3275 1631 3429 
Q 1922 3584 2338 3584 
Q 2397 3584 2469 3576 
Q 2541 3569 2628 3553 
L 2631 2963 
z
" transform="scale(0.015625)"/>
       <path id="DejaVuSans-6f" d="M 1959 3097 
Q 1497 3097 1228 2736 
Q 959 2375 959 1747 
Q 959 1119 1226 758 
Q 1494 397 1959 397 
Q 2419 397 2687 759 
Q 2956 1122 2956 1747 
Q 2956 2369 2687 2733 
Q 2419 3097 1959 3097 
z
M 1959 3584 
Q 2709 3584 3137 3096 
Q 3566 2609 3566 1747 
Q 3566 888 3137 398 
Q 2709 -91 1959 -91 
Q 1206 -91 779 398 
Q 353 888 353 1747 
Q 353 2609 779 3096 
Q 1206 3584 1959 3584 
z
" transform="scale(0.015625)"/>
       <path id="DejaVuSans-66" d="M 2375 4863 
L 2375 4384 
L 1825 4384 
Q 1516 4384 1395 4259 
Q 1275 4134 1275 3809 
L 1275 3500 
L 2222 3500 
L 2222 3053 
L 1275 3053 
L 1275 0 
L 697 0 
L 697 3053 
L 147 3053 
L 147 3500 
L 697 3500 
L 697 3744 
Q 697 4328 969 4595 
Q 1241 4863 1831 4863 
L 2375 4863 
z
" transform="scale(0.015625)"/>
       <path id="DejaVuSans-69" d="M 603 3500 
L 1178 3500 
L 1178 0 
L 603 0 
L 603 3500 
z
M 603 4863 
L 1178 4863 
L 1178 4134 
L 603 4134 
L 603 4863 
z
" transform="scale(0.015625)"/>
      </defs>
      <use xlink:href="#DejaVuSans-50"/>
      <use xlink:href="#DejaVuSans-72" transform="translate(58.552734 0)"/>
      <use xlink:href="#DejaVuSans-6f" transform="translate(97.416016 0)"/>
      <use xlink:href="#DejaVuSans-66" transform="translate(158.597656 0)"/>
      <use xlink:href="#DejaVuSans-69" transform="translate(193.802734 0)"/>
      <use xlink:href="#DejaVuSans-74" transform="translate(221.585938 0)"/>
     </g>
    </g>
   </g>
   <g id="line2d_13">
    <path d="M 52.193327 248.96647 
L 54.83998 248.103307 
L 57.486633 237.131272 
L 60.133287 227.560968 
L 62.77994 219.570074 
L 65.426593 212.623744 
L 68.073247 206.705242 
L 73.366553 196.662846 
L 76.013207 192.468238 
L 78.65986 188.738084 
L 81.306513 185.493081 
L 83.953167 182.594099 
L 86.59982 179.906273 
L 89.246473 177.38582 
L 91.893127 175.066562 
L 94.53978 172.952822 
L 102.47974 167.36795 
L 107.773047 164.299744 
L 115.713007 160.542978 
L 121.006313 158.265929 
L 128.946273 155.199939 
L 136.886233 152.423627 
L 142.17954 150.776277 
L 152.766153 147.72341 
L 158.05946 146.38338 
L 160.706113 145.661862 
L 181.87934 141.255949 
L 205.69922 137.229705 
L 224.225793 134.572299 
L 253.33898 131.16773 
L 266.572247 129.806724 
L 277.15886 128.76814 
L 308.9187 126.048129 
L 316.85866 125.395239 
L 369.791727 121.849843 
L 390.964953 120.738845 
L 409.491527 119.805591 
L 483.59782 116.562373 
L 491.53778 116.293584 
L 512.711007 115.433927 
L 610.63718 112.394592 
L 721.79662 109.648313 
L 774.729687 108.567929 
L 835.602713 107.428297 
L 843.542673 107.288911 
L 843.542673 107.288911 
" clip-path="url(#p974ad02684)" style="fill: none; stroke: #0000ff; stroke-width: 1.5; stroke-linecap: square"/>
   </g>
   <g id="patch_3">
    <path d="M 50.87 390.04 
L 50.87 43.44 
" style="fill: none; stroke: #000000; stroke-width: 0.8; stroke-linejoin: miter; stroke-linecap: square"/>
   </g>
   <g id="patch_4">
    <path d="M 844.866 390.04 
L 844.866 43.44 
" style="fill: none; stroke: #000000; stroke-width: 0.8; stroke-linejoin: miter; stroke-linecap: square"/>
   </g>
   <g id="patch_5">
    <path d="M 50.87 390.04 
L 844.866 390.04 
" style="fill: none; stroke: #000000; stroke-width: 0.8; stroke-linejoin: miter; stroke-linecap: square"/>
   </g>
   <g id="patch_6">
    <path d="M 50.87 43.44 
L 844.866 43.44 
" style="fill: none; stroke: #000000; stroke-width: 0.8; stroke-linejoin: miter; stroke-linecap: square"/>
   </g>
   <g id="text_15">
    <!-- Mean profit per step with confidence interval per simulation step -->
    <g transform="translate(220.284875 21.763062) scale(0.14 -0.14)">
     <defs>
      <path id="DejaVuSans-4d" d="M 628 4666 
L 1569 4666 
L 2759 1491 
L 3956 4666 
L 4897 4666 
L 4897 0 
L 4281 0 
L 4281 4097 
L 3078 897 
L 2444 897 
L 1241 4097 
L 1241 0 
L 628 0 
L 628 4666 
z
" transform="scale(0.015625)"/>
      <path id="DejaVuSans-61" d="M 2194 1759 
Q 1497 1759 1228 1600 
Q 959 1441 959 1056 
Q 959 750 1161 570 
Q 1363 391 1709 391 
Q 2188 391 2477 730 
Q 2766 1069 2766 1631 
L 2766 1759 
L 2194 1759 
z
M 3341 1997 
L 3341 0 
L 2766 0 
L 2766 531 
Q 2569 213 2275 61 
Q 1981 -91 1556 -91 
Q 1019 -91 701 211 
Q 384 513 384 1019 
Q 384 1609 779 1909 
Q 1175 2209 1959 2209 
L 2766 2209 
L 2766 2266 
Q 2766 2663 2505 2880 
Q 2244 3097 1772 3097 
Q 1472 3097 1187 3025 
Q 903 2953 641 2809 
L 641 3341 
Q 956 3463 1253 3523 
Q 1550 3584 1831 3584 
Q 2591 3584 2966 3190 
Q 3341 2797 3341 1997 
z
" transform="scale(0.015625)"/>
      <path id="DejaVuSans-6e" d="M 3513 2113 
L 3513 0 
L 2938 0 
L 2938 2094 
Q 2938 2591 2744 2837 
Q 2550 3084 2163 3084 
Q 1697 3084 1428 2787 
Q 1159 2491 1159 1978 
L 1159 0 
L 581 0 
L 581 3500 
L 1159 3500 
L 1159 2956 
Q 1366 3272 1645 3428 
Q 1925 3584 2291 3584 
Q 2894 3584 3203 3211 
Q 3513 2838 3513 2113 
z
" transform="scale(0.015625)"/>
      <path id="DejaVuSans-20" transform="scale(0.015625)"/>
      <path id="DejaVuSans-73" d="M 2834 3397 
L 2834 2853 
Q 2591 2978 2328 3040 
Q 2066 3103 1784 3103 
Q 1356 3103 1142 2972 
Q 928 2841 928 2578 
Q 928 2378 1081 2264 
Q 1234 2150 1697 2047 
L 1894 2003 
Q 2506 1872 2764 1633 
Q 3022 1394 3022 966 
Q 3022 478 2636 193 
Q 2250 -91 1575 -91 
Q 1294 -91 989 -36 
Q 684 19 347 128 
L 347 722 
Q 666 556 975 473 
Q 1284 391 1588 391 
Q 1994 391 2212 530 
Q 2431 669 2431 922 
Q 2431 1156 2273 1281 
Q 2116 1406 1581 1522 
L 1381 1569 
Q 847 1681 609 1914 
Q 372 2147 372 2553 
Q 372 3047 722 3315 
Q 1072 3584 1716 3584 
Q 2034 3584 2315 3537 
Q 2597 3491 2834 3397 
z
" transform="scale(0.015625)"/>
      <path id="DejaVuSans-77" d="M 269 3500 
L 844 3500 
L 1563 769 
L 2278 3500 
L 2956 3500 
L 3675 769 
L 4391 3500 
L 4966 3500 
L 4050 0 
L 3372 0 
L 2619 2869 
L 1863 0 
L 1184 0 
L 269 3500 
z
" transform="scale(0.015625)"/>
      <path id="DejaVuSans-68" d="M 3513 2113 
L 3513 0 
L 2938 0 
L 2938 2094 
Q 2938 2591 2744 2837 
Q 2550 3084 2163 3084 
Q 1697 3084 1428 2787 
Q 1159 2491 1159 1978 
L 1159 0 
L 581 0 
L 581 4863 
L 1159 4863 
L 1159 2956 
Q 1366 3272 1645 3428 
Q 1925 3584 2291 3584 
Q 2894 3584 3203 3211 
Q 3513 2838 3513 2113 
z
" transform="scale(0.015625)"/>
      <path id="DejaVuSans-63" d="M 3122 3366 
L 3122 2828 
Q 2878 2963 2633 3030 
Q 2388 3097 2138 3097 
Q 1578 3097 1268 2742 
Q 959 2388 959 1747 
Q 959 1106 1268 751 
Q 1578 397 2138 397 
Q 2388 397 2633 464 
Q 2878 531 3122 666 
L 3122 134 
Q 2881 22 2623 -34 
Q 2366 -91 2075 -91 
Q 1284 -91 818 406 
Q 353 903 353 1747 
Q 353 2603 823 3093 
Q 1294 3584 2113 3584 
Q 2378 3584 2631 3529 
Q 2884 3475 3122 3366 
z
" transform="scale(0.015625)"/>
      <path id="DejaVuSans-64" d="M 2906 2969 
L 2906 4863 
L 3481 4863 
L 3481 0 
L 2906 0 
L 2906 525 
Q 2725 213 2448 61 
Q 2172 -91 1784 -91 
Q 1150 -91 751 415 
Q 353 922 353 1747 
Q 353 2572 751 3078 
Q 1150 3584 1784 3584 
Q 2172 3584 2448 3432 
Q 2725 3281 2906 2969 
z
M 947 1747 
Q 947 1113 1208 752 
Q 1469 391 1925 391 
Q 2381 391 2643 752 
Q 2906 1113 2906 1747 
Q 2906 2381 2643 2742 
Q 2381 3103 1925 3103 
Q 1469 3103 1208 2742 
Q 947 2381 947 1747 
z
" transform="scale(0.015625)"/>
      <path id="DejaVuSans-76" d="M 191 3500 
L 800 3500 
L 1894 563 
L 2988 3500 
L 3597 3500 
L 2284 0 
L 1503 0 
L 191 3500 
z
" transform="scale(0.015625)"/>
      <path id="DejaVuSans-6c" d="M 603 4863 
L 1178 4863 
L 1178 0 
L 603 0 
L 603 4863 
z
" transform="scale(0.015625)"/>
      <path id="DejaVuSans-6d" d="M 3328 2828 
Q 3544 3216 3844 3400 
Q 4144 3584 4550 3584 
Q 5097 3584 5394 3201 
Q 5691 2819 5691 2113 
L 5691 0 
L 5113 0 
L 5113 2094 
Q 5113 2597 4934 2840 
Q 4756 3084 4391 3084 
Q 3944 3084 3684 2787 
Q 3425 2491 3425 1978 
L 3425 0 
L 2847 0 
L 2847 2094 
Q 2847 2600 2669 2842 
Q 2491 3084 2119 3084 
Q 1678 3084 1418 2786 
Q 1159 2488 1159 1978 
L 1159 0 
L 581 0 
L 581 3500 
L 1159 3500 
L 1159 2956 
Q 1356 3278 1631 3431 
Q 1906 3584 2284 3584 
Q 2666 3584 2933 3390 
Q 3200 3197 3328 2828 
z
" transform="scale(0.015625)"/>
      <path id="DejaVuSans-75" d="M 544 1381 
L 544 3500 
L 1119 3500 
L 1119 1403 
Q 1119 906 1312 657 
Q 1506 409 1894 409 
Q 2359 409 2629 706 
Q 2900 1003 2900 1516 
L 2900 3500 
L 3475 3500 
L 3475 0 
L 2900 0 
L 2900 538 
Q 2691 219 2414 64 
Q 2138 -91 1772 -91 
Q 1169 -91 856 284 
Q 544 659 544 1381 
z
M 1991 3584 
L 1991 3584 
z
" transform="scale(0.015625)"/>
     </defs>
     <use xlink:href="#DejaVuSans-4d"/>
     <use xlink:href="#DejaVuSans-65" transform="translate(86.279297 0)"/>
     <use xlink:href="#DejaVuSans-61" transform="translate(147.802734 0)"/>
     <use xlink:href="#DejaVuSans-6e" transform="translate(209.082031 0)"/>
     <use xlink:href="#DejaVuSans-20" transform="translate(272.460938 0)"/>
     <use xlink:href="#DejaVuSans-70" transform="translate(304.248047 0)"/>
     <use xlink:href="#DejaVuSans-72" transform="translate(367.724609 0)"/>
     <use xlink:href="#DejaVuSans-6f" transform="translate(406.587891 0)"/>
     <use xlink:href="#DejaVuSans-66" transform="translate(467.769531 0)"/>
     <use xlink:href="#DejaVuSans-69" transform="translate(502.974609 0)"/>
     <use xlink:href="#DejaVuSans-74" transform="translate(530.757812 0)"/>
     <use xlink:href="#DejaVuSans-20" transform="translate(569.966797 0)"/>
     <use xlink:href="#DejaVuSans-70" transform="translate(601.753906 0)"/>
     <use xlink:href="#DejaVuSans-65" transform="translate(665.230469 0)"/>
     <use xlink:href="#DejaVuSans-72" transform="translate(726.753906 0)"/>
     <use xlink:href="#DejaVuSans-20" transform="translate(767.867188 0)"/>
     <use xlink:href="#DejaVuSans-73" transform="translate(799.654297 0)"/>
     <use xlink:href="#DejaVuSans-74" transform="translate(851.753906 0)"/>
     <use xlink:href="#DejaVuSans-65" transform="translate(890.962891 0)"/>
     <use xlink:href="#DejaVuSans-70" transform="translate(952.486328 0)"/>
     <use xlink:href="#DejaVuSans-20" transform="translate(1015.962891 0)"/>
     <use xlink:href="#DejaVuSans-77" transform="translate(1047.75 0)"/>
     <use xlink:href="#DejaVuSans-69" transform="translate(1129.537109 0)"/>
     <use xlink:href="#DejaVuSans-74" transform="translate(1157.320312 0)"/>
     <use xlink:href="#DejaVuSans-68" transform="translate(1196.529297 0)"/>
     <use xlink:href="#DejaVuSans-20" transform="translate(1259.908203 0)"/>
     <use xlink:href="#DejaVuSans-63" transform="translate(1291.695312 0)"/>
     <use xlink:href="#DejaVuSans-6f" transform="translate(1346.675781 0)"/>
     <use xlink:href="#DejaVuSans-6e" transform="translate(1407.857422 0)"/>
     <use xlink:href="#DejaVuSans-66" transform="translate(1471.236328 0)"/>
     <use xlink:href="#DejaVuSans-69" transform="translate(1506.441406 0)"/>
     <use xlink:href="#DejaVuSans-64" transform="translate(1534.224609 0)"/>
     <use xlink:href="#DejaVuSans-65" transform="translate(1597.701172 0)"/>
     <use xlink:href="#DejaVuSans-6e" transform="translate(1659.224609 0)"/>
     <use xlink:href="#DejaVuSans-63" transform="translate(1722.603516 0)"/>
     <use xlink:href="#DejaVuSans-65" transform="translate(1777.583984 0)"/>
     <use xlink:href="#DejaVuSans-20" transform="translate(1839.107422 0)"/>
     <use xlink:href="#DejaVuSans-69" transform="translate(1870.894531 0)"/>
     <use xlink:href="#DejaVuSans-6e" transform="translate(1898.677734 0)"/>
     <use xlink:href="#DejaVuSans-74" transform="translate(1962.056641 0)"/>
     <use xlink:href="#DejaVuSans-65" transform="translate(2001.265625 0)"/>
     <use xlink:href="#DejaVuSans-72" transform="translate(2062.789062 0)"/>
     <use xlink:href="#DejaVuSans-76" transform="translate(2103.902344 0)"/>
     <use xlink:href="#DejaVuSans-61" transform="translate(2163.082031 0)"/>
     <use xlink:href="#DejaVuSans-6c" transform="translate(2224.361328 0)"/>
     <use xlink:href="#DejaVuSans-20" transform="translate(2252.144531 0)"/>
     <use xlink:href="#DejaVuSans-70" transform="translate(2283.931641 0)"/>
     <use xlink:href="#DejaVuSans-65" transform="translate(2347.408203 0)"/>
     <use xlink:href="#DejaVuSans-72" transform="translate(2408.931641 0)"/>
     <use xlink:href="#DejaVuSans-20" transform="translate(2450.044922 0)"/>
     <use xlink:href="#DejaVuSans-73" transform="translate(2481.832031 0)"/>
     <use xlink:href="#DejaVuSans-69" transform="translate(2533.931641 0)"/>
     <use xlink:href="#DejaVuSans-6d" transform="translate(2561.714844 0)"/>
     <use xlink:href="#DejaVuSans-75" transform="translate(2659.126953 0)"/>
     <use xlink:href="#DejaVuSans-6c" transform="translate(2722.505859 0)"/>
     <use xlink:href="#DejaVuSans-61" transform="translate(2750.289062 0)"/>
     <use xlink:href="#DejaVuSans-74" transform="translate(2811.568359 0)"/>
     <use xlink:href="#DejaVuSans-69" transform="translate(2850.777344 0)"/>
     <use xlink:href="#DejaVuSans-6f" transform="translate(2878.560547 0)"/>
     <use xlink:href="#DejaVuSans-6e" transform="translate(2939.742188 0)"/>
     <use xlink:href="#DejaVuSans-20" transform="translate(3003.121094 0)"/>
     <use xlink:href="#DejaVuSans-73" transform="translate(3034.908203 0)"/>
     <use xlink:href="#DejaVuSans-74" transform="translate(3087.007812 0)"/>
     <use xlink:href="#DejaVuSans-65" transform="translate(3126.216797 0)"/>
     <use xlink:href="#DejaVuSans-70" transform="translate(3187.740234 0)"/>
    </g>
    <!-- Base Product: Grandaddy Purple, Recipe size: 8, T0: 5.0 -->
    <g transform="translate(252.737531 37.44) scale(0.14 -0.14)">
     <defs>
      <path id="DejaVuSans-42" d="M 1259 2228 
L 1259 519 
L 2272 519 
Q 2781 519 3026 730 
Q 3272 941 3272 1375 
Q 3272 1813 3026 2020 
Q 2781 2228 2272 2228 
L 1259 2228 
z
M 1259 4147 
L 1259 2741 
L 2194 2741 
Q 2656 2741 2882 2914 
Q 3109 3088 3109 3444 
Q 3109 3797 2882 3972 
Q 2656 4147 2194 4147 
L 1259 4147 
z
M 628 4666 
L 2241 4666 
Q 2963 4666 3353 4366 
Q 3744 4066 3744 3513 
Q 3744 3084 3544 2831 
Q 3344 2578 2956 2516 
Q 3422 2416 3680 2098 
Q 3938 1781 3938 1306 
Q 3938 681 3513 340 
Q 3088 0 2303 0 
L 628 0 
L 628 4666 
z
" transform="scale(0.015625)"/>
      <path id="DejaVuSans-3a" d="M 750 794 
L 1409 794 
L 1409 0 
L 750 0 
L 750 794 
z
M 750 3309 
L 1409 3309 
L 1409 2516 
L 750 2516 
L 750 3309 
z
" transform="scale(0.015625)"/>
      <path id="DejaVuSans-47" d="M 3809 666 
L 3809 1919 
L 2778 1919 
L 2778 2438 
L 4434 2438 
L 4434 434 
Q 4069 175 3628 42 
Q 3188 -91 2688 -91 
Q 1594 -91 976 548 
Q 359 1188 359 2328 
Q 359 3472 976 4111 
Q 1594 4750 2688 4750 
Q 3144 4750 3555 4637 
Q 3966 4525 4313 4306 
L 4313 3634 
Q 3963 3931 3569 4081 
Q 3175 4231 2741 4231 
Q 1884 4231 1454 3753 
Q 1025 3275 1025 2328 
Q 1025 1384 1454 906 
Q 1884 428 2741 428 
Q 3075 428 3337 486 
Q 3600 544 3809 666 
z
" transform="scale(0.015625)"/>
      <path id="DejaVuSans-79" d="M 2059 -325 
Q 1816 -950 1584 -1140 
Q 1353 -1331 966 -1331 
L 506 -1331 
L 506 -850 
L 844 -850 
Q 1081 -850 1212 -737 
Q 1344 -625 1503 -206 
L 1606 56 
L 191 3500 
L 800 3500 
L 1894 763 
L 2988 3500 
L 3597 3500 
L 2059 -325 
z
" transform="scale(0.015625)"/>
      <path id="DejaVuSans-2c" d="M 750 794 
L 1409 794 
L 1409 256 
L 897 -744 
L 494 -744 
L 750 256 
L 750 794 
z
" transform="scale(0.015625)"/>
      <path id="DejaVuSans-52" d="M 2841 2188 
Q 3044 2119 3236 1894 
Q 3428 1669 3622 1275 
L 4263 0 
L 3584 0 
L 2988 1197 
Q 2756 1666 2539 1819 
Q 2322 1972 1947 1972 
L 1259 1972 
L 1259 0 
L 628 0 
L 628 4666 
L 2053 4666 
Q 2853 4666 3247 4331 
Q 3641 3997 3641 3322 
Q 3641 2881 3436 2590 
Q 3231 2300 2841 2188 
z
M 1259 4147 
L 1259 2491 
L 2053 2491 
Q 2509 2491 2742 2702 
Q 2975 2913 2975 3322 
Q 2975 3731 2742 3939 
Q 2509 4147 2053 4147 
L 1259 4147 
z
" transform="scale(0.015625)"/>
      <path id="DejaVuSans-7a" d="M 353 3500 
L 3084 3500 
L 3084 2975 
L 922 459 
L 3084 459 
L 3084 0 
L 275 0 
L 275 525 
L 2438 3041 
L 353 3041 
L 353 3500 
z
" transform="scale(0.015625)"/>
      <path id="DejaVuSans-54" d="M -19 4666 
L 3928 4666 
L 3928 4134 
L 2272 4134 
L 2272 0 
L 1638 0 
L 1638 4134 
L -19 4134 
L -19 4666 
z
" transform="scale(0.015625)"/>
      <path id="DejaVuSans-2e" d="M 684 794 
L 1344 794 
L 1344 0 
L 684 0 
L 684 794 
z
" transform="scale(0.015625)"/>
     </defs>
     <use xlink:href="#DejaVuSans-42"/>
     <use xlink:href="#DejaVuSans-61" transform="translate(68.603516 0)"/>
     <use xlink:href="#DejaVuSans-73" transform="translate(129.882812 0)"/>
     <use xlink:href="#DejaVuSans-65" transform="translate(181.982422 0)"/>
     <use xlink:href="#DejaVuSans-20" transform="translate(243.505859 0)"/>
     <use xlink:href="#DejaVuSans-50" transform="translate(275.292969 0)"/>
     <use xlink:href="#DejaVuSans-72" transform="translate(333.845703 0)"/>
     <use xlink:href="#DejaVuSans-6f" transform="translate(372.708984 0)"/>
     <use xlink:href="#DejaVuSans-64" transform="translate(433.890625 0)"/>
     <use xlink:href="#DejaVuSans-75" transform="translate(497.367188 0)"/>
     <use xlink:href="#DejaVuSans-63" transform="translate(560.746094 0)"/>
     <use xlink:href="#DejaVuSans-74" transform="translate(615.726562 0)"/>
     <use xlink:href="#DejaVuSans-3a" transform="translate(654.935547 0)"/>
     <use xlink:href="#DejaVuSans-20" transform="translate(688.626953 0)"/>
     <use xlink:href="#DejaVuSans-47" transform="translate(720.414062 0)"/>
     <use xlink:href="#DejaVuSans-72" transform="translate(797.904297 0)"/>
     <use xlink:href="#DejaVuSans-61" transform="translate(839.017578 0)"/>
     <use xlink:href="#DejaVuSans-6e" transform="translate(900.296875 0)"/>
     <use xlink:href="#DejaVuSans-64" transform="translate(963.675781 0)"/>
     <use xlink:href="#DejaVuSans-61" transform="translate(1027.152344 0)"/>
     <use xlink:href="#DejaVuSans-64" transform="translate(1088.431641 0)"/>
     <use xlink:href="#DejaVuSans-64" transform="translate(1151.908203 0)"/>
     <use xlink:href="#DejaVuSans-79" transform="translate(1215.384766 0)"/>
     <use xlink:href="#DejaVuSans-20" transform="translate(1274.564453 0)"/>
     <use xlink:href="#DejaVuSans-50" transform="translate(1306.351562 0)"/>
     <use xlink:href="#DejaVuSans-75" transform="translate(1364.904297 0)"/>
     <use xlink:href="#DejaVuSans-72" transform="translate(1428.283203 0)"/>
     <use xlink:href="#DejaVuSans-70" transform="translate(1469.396484 0)"/>
     <use xlink:href="#DejaVuSans-6c" transform="translate(1532.873047 0)"/>
     <use xlink:href="#DejaVuSans-65" transform="translate(1560.65625 0)"/>
     <use xlink:href="#DejaVuSans-2c" transform="translate(1622.179688 0)"/>
     <use xlink:href="#DejaVuSans-20" transform="translate(1653.966797 0)"/>
     <use xlink:href="#DejaVuSans-52" transform="translate(1685.753906 0)"/>
     <use xlink:href="#DejaVuSans-65" transform="translate(1750.736328 0)"/>
     <use xlink:href="#DejaVuSans-63" transform="translate(1812.259766 0)"/>
     <use xlink:href="#DejaVuSans-69" transform="translate(1867.240234 0)"/>
     <use xlink:href="#DejaVuSans-70" transform="translate(1895.023438 0)"/>
     <use xlink:href="#DejaVuSans-65" transform="translate(1958.5 0)"/>
     <use xlink:href="#DejaVuSans-20" transform="translate(2020.023438 0)"/>
     <use xlink:href="#DejaVuSans-73" transform="translate(2051.810547 0)"/>
     <use xlink:href="#DejaVuSans-69" transform="translate(2103.910156 0)"/>
     <use xlink:href="#DejaVuSans-7a" transform="translate(2131.693359 0)"/>
     <use xlink:href="#DejaVuSans-65" transform="translate(2184.183594 0)"/>
     <use xlink:href="#DejaVuSans-3a" transform="translate(2245.707031 0)"/>
     <use xlink:href="#DejaVuSans-20" transform="translate(2279.398438 0)"/>
     <use xlink:href="#DejaVuSans-38" transform="translate(2311.185547 0)"/>
     <use xlink:href="#DejaVuSans-2c" transform="translate(2374.808594 0)"/>
     <use xlink:href="#DejaVuSans-20" transform="translate(2406.595703 0)"/>
     <use xlink:href="#DejaVuSans-54" transform="translate(2438.382812 0)"/>
     <use xlink:href="#DejaVuSans-30" transform="translate(2499.466797 0)"/>
     <use xlink:href="#DejaVuSans-3a" transform="translate(2563.089844 0)"/>
     <use xlink:href="#DejaVuSans-20" transform="translate(2596.78125 0)"/>
     <use xlink:href="#DejaVuSans-35" transform="translate(2628.568359 0)"/>
     <use xlink:href="#DejaVuSans-2e" transform="translate(2692.191406 0)"/>
     <use xlink:href="#DejaVuSans-30" transform="translate(2723.978516 0)"/>
    </g>
   </g>
  </g>
 </g>
 <defs>
  <clipPath id="p974ad02684">
   <rect x="50.87" y="43.44" width="793.996" height="346.6"/>
  </clipPath>
 </defs>
</svg>
