<?xml version="1.0" encoding="utf-8" standalone="no"?>
<!DOCTYPE svg PUBLIC "-//W3C//DTD SVG 1.1//EN"
  "http://www.w3.org/Graphics/SVG/1.1/DTD/svg11.dtd">
<svg xmlns:xlink="http://www.w3.org/1999/xlink" width="864pt" height="432pt" viewBox="0 0 864 432" xmlns="http://www.w3.org/2000/svg" version="1.1">
 <metadata>
  <rdf:RDF xmlns:dc="http://purl.org/dc/elements/1.1/" xmlns:cc="http://creativecommons.org/ns#" xmlns:rdf="http://www.w3.org/1999/02/22-rdf-syntax-ns#">
   <cc:Work>
    <dc:type rdf:resource="http://purl.org/dc/dcmitype/StillImage"/>
    <dc:date>2025-05-24T02:12:47.466041</dc:date>
    <dc:format>image/svg+xml</dc:format>
    <dc:creator>
     <cc:Agent>
      <dc:title>Matplotlib v3.10.3, https://matplotlib.org/</dc:title>
     </cc:Agent>
    </dc:creator>
   </cc:Work>
  </rdf:RDF>
 </metadata>
 <defs>
  <style type="text/css">*{stroke-linejoin: round; stroke-linecap: butt}</style>
 </defs>
 <g id="figure_1">
  <g id="patch_1">
   <path d="M 0 432 
L 864 432 
L 864 0 
L 0 0 
z
" style="fill: #ffffff"/>
  </g>
  <g id="axes_1">
   <g id="patch_2">
    <path d="M 50.87 390.04 
L 844.866 390.04 
L 844.866 43.44 
L 50.87 43.44 
z
" style="fill: #ffffff"/>
   </g>
   <g id="FillBetweenPolyCollection_1">
    <defs>
     <path id="m6607dc5bdf" d="M 52.193327 -308.867087 
L 52.193327 -59.174214 
L 54.83998 -57.714545 
L 57.486633 -73.023364 
L 60.133287 -87.253359 
L 62.77994 -100.754133 
L 65.426593 -112.281903 
L 68.073247 -122.035031 
L 70.7199 -131.388862 
L 73.366553 -139.774747 
L 76.013207 -147.229557 
L 78.65986 -153.583447 
L 81.306513 -159.479291 
L 83.953167 -164.258023 
L 86.59982 -168.957875 
L 89.246473 -173.322963 
L 91.893127 -177.838029 
L 94.53978 -181.591834 
L 97.186433 -185.006572 
L 99.833087 -187.994164 
L 102.47974 -190.938135 
L 105.126393 -193.729086 
L 107.773047 -196.473803 
L 110.4197 -198.489849 
L 113.066353 -200.933601 
L 115.713007 -202.947649 
L 118.35966 -205.019128 
L 121.006313 -207.236733 
L 123.652967 -209.327883 
L 126.29962 -210.98619 
L 128.946273 -212.748318 
L 131.592927 -214.523969 
L 134.23958 -216.105482 
L 136.886233 -217.363856 
L 139.532887 -218.708311 
L 142.17954 -219.91505 
L 144.826193 -221.289669 
L 147.472847 -222.163258 
L 150.1195 -223.333267 
L 152.766153 -224.333244 
L 155.412807 -225.438051 
L 158.05946 -226.198248 
L 160.706113 -227.128609 
L 163.352767 -228.022461 
L 165.99942 -229.042437 
L 168.646073 -229.856267 
L 171.292727 -230.647331 
L 173.93938 -231.432204 
L 176.586033 -232.326956 
L 179.232687 -233.08364 
L 181.87934 -233.806801 
L 184.525993 -234.555603 
L 187.172647 -235.198918 
L 189.8193 -235.958061 
L 192.465953 -236.758652 
L 195.112607 -237.36144 
L 197.75926 -237.855929 
L 200.405913 -238.445281 
L 203.052567 -239.18146 
L 205.69922 -239.82787 
L 208.345873 -240.39676 
L 210.992527 -241.206002 
L 213.63918 -241.748153 
L 216.285833 -242.366176 
L 218.932487 -242.837482 
L 221.57914 -243.189841 
L 224.225793 -243.751597 
L 226.872447 -244.232036 
L 229.5191 -244.519346 
L 232.165753 -244.885954 
L 234.812407 -245.332715 
L 237.45906 -245.820837 
L 240.105713 -246.20132 
L 242.752367 -246.50773 
L 245.39902 -246.876028 
L 248.045673 -247.17605 
L 250.692327 -247.55594 
L 253.33898 -247.944435 
L 255.985633 -248.368079 
L 258.632287 -248.770867 
L 261.27894 -249.05293 
L 263.925593 -249.471151 
L 266.572247 -249.869658 
L 269.2189 -250.113522 
L 271.865553 -250.543159 
L 274.512207 -250.965595 
L 277.15886 -251.295891 
L 279.805513 -251.640128 
L 282.452167 -251.889151 
L 285.09882 -252.283574 
L 287.745473 -252.55589 
L 290.392127 -252.952552 
L 293.03878 -253.239336 
L 295.685433 -253.458523 
L 298.332087 -253.782277 
L 300.97874 -253.944867 
L 303.625393 -254.256393 
L 306.272047 -254.407589 
L 308.9187 -254.711365 
L 311.565353 -255.032243 
L 314.212007 -255.27457 
L 316.85866 -255.589388 
L 319.505313 -255.802033 
L 322.151967 -256.051824 
L 324.79862 -256.325743 
L 327.445273 -256.689299 
L 330.091927 -257.058014 
L 332.73858 -257.318387 
L 335.385233 -257.59033 
L 338.031887 -257.846641 
L 340.67854 -258.140362 
L 343.325193 -258.320779 
L 345.971847 -258.601349 
L 348.6185 -258.846508 
L 351.265153 -259.058583 
L 353.911807 -259.333796 
L 356.55846 -259.570613 
L 359.205113 -259.63204 
L 361.851767 -259.831227 
L 364.49842 -260.118099 
L 367.145073 -260.333005 
L 369.791727 -260.64958 
L 372.43838 -260.816078 
L 375.085033 -260.961852 
L 377.731687 -261.127384 
L 380.37834 -261.29847 
L 383.024993 -261.538009 
L 385.671647 -261.70971 
L 388.3183 -261.829447 
L 390.964953 -262.00949 
L 393.611607 -262.416208 
L 396.25826 -262.636273 
L 398.904913 -262.771114 
L 401.551567 -262.967865 
L 404.19822 -263.077063 
L 406.844873 -263.245976 
L 409.491527 -263.422573 
L 412.13818 -263.662617 
L 414.784833 -263.752716 
L 417.431487 -263.931859 
L 420.07814 -264.053528 
L 422.724793 -264.144197 
L 425.371447 -264.285317 
L 428.0181 -264.508544 
L 430.664753 -264.664109 
L 433.311407 -264.776293 
L 435.95806 -265.007687 
L 438.604713 -265.16694 
L 441.251367 -265.362088 
L 443.89802 -265.608915 
L 446.544673 -265.862087 
L 449.191327 -266.025556 
L 451.83798 -266.150957 
L 454.484633 -266.395347 
L 457.131287 -266.632273 
L 459.77794 -266.731812 
L 462.424593 -266.928387 
L 465.071247 -267.205357 
L 467.7179 -267.322174 
L 470.364553 -267.486169 
L 473.011207 -267.609616 
L 475.65786 -267.83776 
L 478.304513 -268.026432 
L 480.951167 -268.125136 
L 483.59782 -268.236004 
L 486.244473 -268.364785 
L 488.891127 -268.445575 
L 491.53778 -268.595388 
L 494.184433 -268.731766 
L 496.831087 -268.855147 
L 499.47774 -268.952534 
L 502.124393 -269.093917 
L 504.771047 -269.251919 
L 507.4177 -269.35789 
L 510.064353 -269.484696 
L 512.711007 -269.574224 
L 515.35766 -269.674904 
L 518.004313 -269.742917 
L 520.650967 -269.888471 
L 523.29762 -270.020722 
L 525.944273 -270.22441 
L 528.590927 -270.43442 
L 531.23758 -270.647944 
L 533.884233 -270.7715 
L 536.530887 -270.910512 
L 539.17754 -271.167328 
L 541.824193 -271.314814 
L 544.470847 -271.444606 
L 547.1175 -271.567196 
L 549.764153 -271.662366 
L 552.410807 -271.800215 
L 555.05746 -271.896855 
L 557.704113 -271.906932 
L 560.350767 -271.986822 
L 562.99742 -272.166164 
L 565.644073 -272.279511 
L 568.290727 -272.420368 
L 570.93738 -272.513496 
L 573.584033 -272.653913 
L 576.230687 -272.792398 
L 578.87734 -272.888183 
L 581.523993 -272.950773 
L 584.170647 -273.104823 
L 586.8173 -273.250004 
L 589.463953 -273.266031 
L 592.110607 -273.431475 
L 594.75726 -273.571058 
L 597.403913 -273.643308 
L 600.050567 -273.763659 
L 602.69722 -273.914285 
L 605.343873 -273.942561 
L 607.990527 -274.052857 
L 610.63718 -274.084317 
L 613.283833 -274.17176 
L 615.930487 -274.289696 
L 618.57714 -274.431035 
L 621.223793 -274.506688 
L 623.870447 -274.619728 
L 626.5171 -274.713449 
L 629.163753 -274.846007 
L 631.810407 -274.911868 
L 634.45706 -274.957401 
L 637.103713 -275.085787 
L 639.750367 -275.17694 
L 642.39702 -275.29672 
L 645.043673 -275.350156 
L 647.690327 -275.369673 
L 650.33698 -275.49751 
L 652.983633 -275.620496 
L 655.630287 -275.738454 
L 658.27694 -275.771077 
L 660.923593 -275.812285 
L 663.570247 -275.803986 
L 666.2169 -275.869321 
L 668.863553 -275.901417 
L 671.510207 -275.94313 
L 674.15686 -276.019002 
L 676.803513 -276.151033 
L 679.450167 -276.192328 
L 682.09682 -276.310198 
L 684.743473 -276.374633 
L 687.390127 -276.405873 
L 690.03678 -276.460407 
L 692.683433 -276.572657 
L 695.330087 -276.644556 
L 697.97674 -276.740494 
L 700.623393 -276.840823 
L 703.270047 -276.881241 
L 705.9167 -277.011888 
L 708.563353 -277.090856 
L 711.210007 -277.130724 
L 713.85666 -277.16517 
L 716.503313 -277.239374 
L 719.149967 -277.324775 
L 721.79662 -277.3718 
L 724.443273 -277.420559 
L 727.089927 -277.515334 
L 729.73658 -277.638759 
L 732.383233 -277.754939 
L 735.029887 -277.801876 
L 737.67654 -277.776541 
L 740.323193 -277.866508 
L 742.969847 -277.974346 
L 745.6165 -278.053511 
L 748.263153 -278.148484 
L 750.909807 -278.296189 
L 753.55646 -278.401546 
L 756.203113 -278.444181 
L 758.849767 -278.512611 
L 761.49642 -278.566486 
L 764.143073 -278.637528 
L 766.789727 -278.720777 
L 769.43638 -278.757067 
L 772.083033 -278.824465 
L 774.729687 -278.869449 
L 777.37634 -278.884685 
L 780.022993 -278.964904 
L 782.669647 -279.073927 
L 785.3163 -279.104575 
L 787.962953 -279.195727 
L 790.609607 -279.256693 
L 793.25626 -279.312632 
L 795.902913 -279.40385 
L 798.549567 -279.522686 
L 801.19622 -279.604245 
L 803.842873 -279.652192 
L 806.489527 -279.71307 
L 809.13618 -279.807933 
L 811.782833 -279.824069 
L 814.429487 -279.890809 
L 817.07614 -279.918273 
L 819.722793 -280.000007 
L 822.369447 -280.106264 
L 825.0161 -280.170457 
L 827.662753 -280.214585 
L 830.309407 -280.273706 
L 832.95606 -280.302686 
L 835.602713 -280.3379 
L 838.249367 -280.430018 
L 840.89602 -280.513091 
L 843.542673 -280.6224 
L 843.542673 -372.803259 
L 843.542673 -372.803259 
L 840.89602 -372.777222 
L 838.249367 -372.788989 
L 835.602713 -372.805455 
L 832.95606 -372.79215 
L 830.309407 -372.767606 
L 827.662753 -372.744774 
L 825.0161 -372.729406 
L 822.369447 -372.719395 
L 819.722793 -372.764664 
L 817.07614 -372.755751 
L 814.429487 -372.700339 
L 811.782833 -372.671887 
L 809.13618 -372.615158 
L 806.489527 -372.613226 
L 803.842873 -372.614368 
L 801.19622 -372.592678 
L 798.549567 -372.603128 
L 795.902913 -372.597903 
L 793.25626 -372.63641 
L 790.609607 -372.611646 
L 787.962953 -372.602557 
L 785.3163 -372.596102 
L 782.669647 -372.565674 
L 780.022993 -372.607387 
L 777.37634 -372.61832 
L 774.729687 -372.564796 
L 772.083033 -372.531207 
L 769.43638 -372.516015 
L 766.789727 -372.495773 
L 764.143073 -372.481328 
L 761.49642 -372.468419 
L 758.849767 -372.431404 
L 756.203113 -372.410285 
L 753.55646 -372.375773 
L 750.909807 -372.370329 
L 748.263153 -372.376739 
L 745.6165 -372.382272 
L 742.969847 -372.375773 
L 740.323193 -372.356849 
L 737.67654 -372.344643 
L 735.029887 -372.254017 
L 732.383233 -372.186575 
L 729.73658 -372.205982 
L 727.089927 -372.185609 
L 724.443273 -372.197684 
L 721.79662 -372.140516 
L 719.149967 -372.043831 
L 716.503313 -372.014808 
L 713.85666 -372.017223 
L 711.210007 -371.995181 
L 708.563353 -371.935554 
L 705.9167 -371.952547 
L 703.270047 -371.968924 
L 700.623393 -371.935203 
L 697.97674 -371.959572 
L 695.330087 -371.934018 
L 692.683433 -371.927475 
L 690.03678 -371.919089 
L 687.390127 -371.875269 
L 684.743473 -371.816564 
L 682.09682 -371.793337 
L 679.450167 -371.799748 
L 676.803513 -371.765456 
L 674.15686 -371.788068 
L 671.510207 -371.749649 
L 668.863553 -371.703678 
L 666.2169 -371.660999 
L 663.570247 -371.622492 
L 660.923593 -371.54662 
L 658.27694 -371.510088 
L 655.630287 -371.427849 
L 652.983633 -371.408442 
L 650.33698 -371.446159 
L 647.690327 -371.429474 
L 645.043673 -371.373052 
L 642.39702 -371.323041 
L 639.750367 -371.321065 
L 637.103713 -371.323963 
L 634.45706 -371.314216 
L 631.810407 -371.280846 
L 629.163753 -371.211164 
L 626.5171 -371.187849 
L 623.870447 -371.177707 
L 621.223793 -371.16291 
L 618.57714 -371.108991 
L 615.930487 -371.109474 
L 613.283833 -371.097619 
L 610.63718 -371.069167 
L 607.990527 -371.029869 
L 605.343873 -371.03707 
L 602.69722 -370.981044 
L 600.050567 -370.984513 
L 597.403913 -370.969408 
L 594.75726 -370.948069 
L 592.110607 -370.957026 
L 589.463953 -370.95527 
L 586.8173 -370.875841 
L 584.170647 -370.885632 
L 581.523993 -370.882734 
L 578.87734 -370.839529 
L 576.230687 -370.828947 
L 573.584033 -370.808004 
L 570.93738 -370.788948 
L 568.290727 -370.786708 
L 565.644073 -370.781527 
L 562.99742 -370.729848 
L 560.350767 -370.744513 
L 557.704113 -370.726423 
L 555.05746 -370.610506 
L 552.410807 -370.58144 
L 549.764153 -370.576302 
L 547.1175 -370.564755 
L 544.470847 -370.552021 
L 541.824193 -370.507982 
L 539.17754 -370.486643 
L 536.530887 -370.534107 
L 533.884233 -370.462581 
L 531.23758 -370.42245 
L 528.590927 -370.403701 
L 525.944273 -370.413097 
L 523.29762 -370.398652 
L 520.650967 -370.349914 
L 518.004313 -370.324008 
L 515.35766 -370.24616 
L 512.711007 -370.184514 
L 510.064353 -370.157598 
L 507.4177 -370.085765 
L 504.771047 -370.051561 
L 502.124393 -370.04155 
L 499.47774 -370.007434 
L 496.831087 -369.931781 
L 494.184433 -369.848927 
L 491.53778 -369.826182 
L 488.891127 -369.758608 
L 486.244473 -369.668905 
L 483.59782 -369.635974 
L 480.951167 -369.581089 
L 478.304513 -369.53683 
L 475.65786 -369.521726 
L 473.011207 -369.53323 
L 470.364553 -369.489542 
L 467.7179 -369.447127 
L 465.071247 -369.389915 
L 462.424593 -369.417665 
L 459.77794 -369.409322 
L 457.131287 -369.304032 
L 454.484633 -369.31053 
L 451.83798 -369.267764 
L 449.191327 -369.193516 
L 446.544673 -369.124844 
L 443.89802 -369.155009 
L 441.251367 -369.14952 
L 438.604713 -369.080541 
L 435.95806 -369.008576 
L 433.311407 -369.000058 
L 430.664753 -368.891387 
L 428.0181 -368.815734 
L 425.371447 -368.834833 
L 422.724793 -368.723879 
L 420.07814 -368.610377 
L 417.431487 -368.530685 
L 414.784833 -368.516107 
L 412.13818 -368.396283 
L 409.491527 -368.359488 
L 406.844873 -368.303374 
L 404.19822 -368.257578 
L 401.551567 -368.135822 
L 398.904913 -368.062804 
L 396.25826 -367.980828 
L 393.611607 -367.988556 
L 390.964953 -368.051695 
L 388.3183 -367.960433 
L 385.671647 -367.857689 
L 383.024993 -367.799621 
L 380.37834 -367.686229 
L 377.731687 -367.54882 
L 375.085033 -367.450115 
L 372.43838 -367.322475 
L 369.791727 -367.233518 
L 367.145073 -367.237075 
L 364.49842 -367.175318 
L 361.851767 -367.187371 
L 359.205113 -367.103968 
L 356.55846 -366.857251 
L 353.911807 -366.809589 
L 351.265153 -366.746932 
L 348.6185 -366.672245 
L 345.971847 -366.585067 
L 343.325193 -366.543266 
L 340.67854 -366.406494 
L 338.031887 -366.311543 
L 335.385233 -366.276702 
L 332.73858 -366.189041 
L 330.091927 -366.116329 
L 327.445273 -366.084518 
L 324.79862 -366.012027 
L 322.151967 -365.948558 
L 319.505313 -365.820128 
L 316.85866 -365.708822 
L 314.212007 -365.649898 
L 311.565353 -365.54307 
L 308.9187 -365.438218 
L 306.272047 -365.372642 
L 303.625393 -365.197955 
L 300.97874 -365.133016 
L 298.332087 -364.959756 
L 295.685433 -364.874684 
L 293.03878 -364.783927 
L 290.392127 -364.687572 
L 287.745473 -364.644059 
L 285.09882 -364.478395 
L 282.452167 -364.430492 
L 279.805513 -364.334707 
L 277.15886 -364.244301 
L 274.512207 -364.129065 
L 271.865553 -364.058637 
L 269.2189 -364.0171 
L 266.572247 -363.850031 
L 263.925593 -363.760284 
L 261.27894 -363.624828 
L 258.632287 -363.409373 
L 255.985633 -363.240306 
L 253.33898 -363.089857 
L 250.692327 -362.964368 
L 248.045673 -362.843271 
L 245.39902 -362.595938 
L 242.752367 -362.435456 
L 240.105713 -362.231614 
L 237.45906 -362.089902 
L 234.812407 -362.006609 
L 232.165753 -361.793041 
L 229.5191 -361.613437 
L 226.872447 -361.314535 
L 224.225793 -361.150232 
L 221.57914 -361.052845 
L 218.932487 -360.791418 
L 216.285833 -360.650694 
L 213.63918 -360.529838 
L 210.992527 -360.325776 
L 208.345873 -360.307928 
L 205.69922 -360.199585 
L 203.052567 -360.019827 
L 200.405913 -359.900596 
L 197.75926 -359.667028 
L 195.112607 -359.337896 
L 192.465953 -359.087863 
L 189.8193 -358.954186 
L 187.172647 -358.760092 
L 184.525993 -358.515855 
L 181.87934 -358.226503 
L 179.232687 -358.017327 
L 176.586033 -357.784989 
L 173.93938 -357.496164 
L 171.292727 -357.301148 
L 168.646073 -357.013223 
L 165.99942 -356.611467 
L 163.352767 -356.384771 
L 160.706113 -356.093948 
L 158.05946 -355.871555 
L 155.412807 -355.449141 
L 152.766153 -355.30003 
L 150.1195 -354.911425 
L 147.472847 -354.598363 
L 144.826193 -354.084466 
L 142.17954 -353.806003 
L 139.532887 -353.393512 
L 136.886233 -352.976432 
L 134.23958 -352.539968 
L 131.592927 -352.280341 
L 128.946273 -352.184249 
L 126.29962 -351.880078 
L 123.652967 -351.458169 
L 121.006313 -351.238805 
L 118.35966 -351.021857 
L 115.713007 -350.655359 
L 113.066353 -350.048028 
L 110.4197 -349.625218 
L 107.773047 -348.512749 
L 105.126393 -348.18489 
L 102.47974 -347.706076 
L 99.833087 -347.057603 
L 97.186433 -346.184607 
L 94.53978 -345.458219 
L 91.893127 -344.755959 
L 89.246473 -344.078287 
L 86.59982 -342.902833 
L 83.953167 -341.807027 
L 81.306513 -340.249971 
L 78.65986 -339.128611 
L 76.013207 -337.347449 
L 73.366553 -335.96486 
L 70.7199 -334.327475 
L 68.073247 -332.151802 
L 65.426593 -329.370027 
L 62.77994 -325.909263 
L 60.133287 -321.873944 
L 57.486633 -316.623478 
L 54.83998 -309.741115 
L 52.193327 -308.867087 
z
" style="stroke: #0000ff; stroke-opacity: 0.2"/>
    </defs>
    <g clip-path="url(#p766d9675db)">
     <use xlink:href="#m6607dc5bdf" x="0" y="432" style="fill: #0000ff; fill-opacity: 0.2; stroke: #0000ff; stroke-opacity: 0.2"/>
    </g>
   </g>
   <g id="matplotlib.axis_1">
    <g id="xtick_1">
     <g id="line2d_1">
      <defs>
       <path id="m249d13f35c" d="M 0 0 
L 0 3.5 
" style="stroke: #000000; stroke-width: 0.8"/>
      </defs>
      <g>
       <use xlink:href="#m249d13f35c" x="181.87934" y="390.04" style="stroke: #000000; stroke-width: 0.8"/>
      </g>
     </g>
     <g id="text_1">
      <!-- 50 -->
      <g transform="translate(175.51684 404.638438) scale(0.1 -0.1)">
       <defs>
        <path id="DejaVuSans-35" d="M 691 4666 
L 3169 4666 
L 3169 4134 
L 1269 4134 
L 1269 2991 
Q 1406 3038 1543 3061 
Q 1681 3084 1819 3084 
Q 2600 3084 3056 2656 
Q 3513 2228 3513 1497 
Q 3513 744 3044 326 
Q 2575 -91 1722 -91 
Q 1428 -91 1123 -41 
Q 819 9 494 109 
L 494 744 
Q 775 591 1075 516 
Q 1375 441 1709 441 
Q 2250 441 2565 725 
Q 2881 1009 2881 1497 
Q 2881 1984 2565 2268 
Q 2250 2553 1709 2553 
Q 1456 2553 1204 2497 
Q 953 2441 691 2322 
L 691 4666 
z
" transform="scale(0.015625)"/>
        <path id="DejaVuSans-30" d="M 2034 4250 
Q 1547 4250 1301 3770 
Q 1056 3291 1056 2328 
Q 1056 1369 1301 889 
Q 1547 409 2034 409 
Q 2525 409 2770 889 
Q 3016 1369 3016 2328 
Q 3016 3291 2770 3770 
Q 2525 4250 2034 4250 
z
M 2034 4750 
Q 2819 4750 3233 4129 
Q 3647 3509 3647 2328 
Q 3647 1150 3233 529 
Q 2819 -91 2034 -91 
Q 1250 -91 836 529 
Q 422 1150 422 2328 
Q 422 3509 836 4129 
Q 1250 4750 2034 4750 
z
" transform="scale(0.015625)"/>
       </defs>
       <use xlink:href="#DejaVuSans-35"/>
       <use xlink:href="#DejaVuSans-30" transform="translate(63.623047 0)"/>
      </g>
     </g>
    </g>
    <g id="xtick_2">
     <g id="line2d_2">
      <g>
       <use xlink:href="#m249d13f35c" x="314.212007" y="390.04" style="stroke: #000000; stroke-width: 0.8"/>
      </g>
     </g>
     <g id="text_2">
      <!-- 100 -->
      <g transform="translate(304.668257 404.638438) scale(0.1 -0.1)">
       <defs>
        <path id="DejaVuSans-31" d="M 794 531 
L 1825 531 
L 1825 4091 
L 703 3866 
L 703 4441 
L 1819 4666 
L 2450 4666 
L 2450 531 
L 3481 531 
L 3481 0 
L 794 0 
L 794 531 
z
" transform="scale(0.015625)"/>
       </defs>
       <use xlink:href="#DejaVuSans-31"/>
       <use xlink:href="#DejaVuSans-30" transform="translate(63.623047 0)"/>
       <use xlink:href="#DejaVuSans-30" transform="translate(127.246094 0)"/>
      </g>
     </g>
    </g>
    <g id="xtick_3">
     <g id="line2d_3">
      <g>
       <use xlink:href="#m249d13f35c" x="446.544673" y="390.04" style="stroke: #000000; stroke-width: 0.8"/>
      </g>
     </g>
     <g id="text_3">
      <!-- 150 -->
      <g transform="translate(437.000923 404.638438) scale(0.1 -0.1)">
       <use xlink:href="#DejaVuSans-31"/>
       <use xlink:href="#DejaVuSans-35" transform="translate(63.623047 0)"/>
       <use xlink:href="#DejaVuSans-30" transform="translate(127.246094 0)"/>
      </g>
     </g>
    </g>
    <g id="xtick_4">
     <g id="line2d_4">
      <g>
       <use xlink:href="#m249d13f35c" x="578.87734" y="390.04" style="stroke: #000000; stroke-width: 0.8"/>
      </g>
     </g>
     <g id="text_4">
      <!-- 200 -->
      <g transform="translate(569.33359 404.638438) scale(0.1 -0.1)">
       <defs>
        <path id="DejaVuSans-32" d="M 1228 531 
L 3431 531 
L 3431 0 
L 469 0 
L 469 531 
Q 828 903 1448 1529 
Q 2069 2156 2228 2338 
Q 2531 2678 2651 2914 
Q 2772 3150 2772 3378 
Q 2772 3750 2511 3984 
Q 2250 4219 1831 4219 
Q 1534 4219 1204 4116 
Q 875 4013 500 3803 
L 500 4441 
Q 881 4594 1212 4672 
Q 1544 4750 1819 4750 
Q 2544 4750 2975 4387 
Q 3406 4025 3406 3419 
Q 3406 3131 3298 2873 
Q 3191 2616 2906 2266 
Q 2828 2175 2409 1742 
Q 1991 1309 1228 531 
z
" transform="scale(0.015625)"/>
       </defs>
       <use xlink:href="#DejaVuSans-32"/>
       <use xlink:href="#DejaVuSans-30" transform="translate(63.623047 0)"/>
       <use xlink:href="#DejaVuSans-30" transform="translate(127.246094 0)"/>
      </g>
     </g>
    </g>
    <g id="xtick_5">
     <g id="line2d_5">
      <g>
       <use xlink:href="#m249d13f35c" x="711.210007" y="390.04" style="stroke: #000000; stroke-width: 0.8"/>
      </g>
     </g>
     <g id="text_5">
      <!-- 250 -->
      <g transform="translate(701.666257 404.638438) scale(0.1 -0.1)">
       <use xlink:href="#DejaVuSans-32"/>
       <use xlink:href="#DejaVuSans-35" transform="translate(63.623047 0)"/>
       <use xlink:href="#DejaVuSans-30" transform="translate(127.246094 0)"/>
      </g>
     </g>
    </g>
    <g id="xtick_6">
     <g id="line2d_6">
      <g>
       <use xlink:href="#m249d13f35c" x="843.542673" y="390.04" style="stroke: #000000; stroke-width: 0.8"/>
      </g>
     </g>
     <g id="text_6">
      <!-- 300 -->
      <g transform="translate(833.998923 404.638438) scale(0.1 -0.1)">
       <defs>
        <path id="DejaVuSans-33" d="M 2597 2516 
Q 3050 2419 3304 2112 
Q 3559 1806 3559 1356 
Q 3559 666 3084 287 
Q 2609 -91 1734 -91 
Q 1441 -91 1130 -33 
Q 819 25 488 141 
L 488 750 
Q 750 597 1062 519 
Q 1375 441 1716 441 
Q 2309 441 2620 675 
Q 2931 909 2931 1356 
Q 2931 1769 2642 2001 
Q 2353 2234 1838 2234 
L 1294 2234 
L 1294 2753 
L 1863 2753 
Q 2328 2753 2575 2939 
Q 2822 3125 2822 3475 
Q 2822 3834 2567 4026 
Q 2313 4219 1838 4219 
Q 1578 4219 1281 4162 
Q 984 4106 628 3988 
L 628 4550 
Q 988 4650 1302 4700 
Q 1616 4750 1894 4750 
Q 2613 4750 3031 4423 
Q 3450 4097 3450 3541 
Q 3450 3153 3228 2886 
Q 3006 2619 2597 2516 
z
" transform="scale(0.015625)"/>
       </defs>
       <use xlink:href="#DejaVuSans-33"/>
       <use xlink:href="#DejaVuSans-30" transform="translate(63.623047 0)"/>
       <use xlink:href="#DejaVuSans-30" transform="translate(127.246094 0)"/>
      </g>
     </g>
    </g>
    <g id="text_7">
     <!-- Step -->
     <g transform="translate(436.482844 418.316562) scale(0.1 -0.1)">
      <defs>
       <path id="DejaVuSans-53" d="M 3425 4513 
L 3425 3897 
Q 3066 4069 2747 4153 
Q 2428 4238 2131 4238 
Q 1616 4238 1336 4038 
Q 1056 3838 1056 3469 
Q 1056 3159 1242 3001 
Q 1428 2844 1947 2747 
L 2328 2669 
Q 3034 2534 3370 2195 
Q 3706 1856 3706 1288 
Q 3706 609 3251 259 
Q 2797 -91 1919 -91 
Q 1588 -91 1214 -16 
Q 841 59 441 206 
L 441 856 
Q 825 641 1194 531 
Q 1563 422 1919 422 
Q 2459 422 2753 634 
Q 3047 847 3047 1241 
Q 3047 1584 2836 1778 
Q 2625 1972 2144 2069 
L 1759 2144 
Q 1053 2284 737 2584 
Q 422 2884 422 3419 
Q 422 4038 858 4394 
Q 1294 4750 2059 4750 
Q 2388 4750 2728 4690 
Q 3069 4631 3425 4513 
z
" transform="scale(0.015625)"/>
       <path id="DejaVuSans-74" d="M 1172 4494 
L 1172 3500 
L 2356 3500 
L 2356 3053 
L 1172 3053 
L 1172 1153 
Q 1172 725 1289 603 
Q 1406 481 1766 481 
L 2356 481 
L 2356 0 
L 1766 0 
Q 1100 0 847 248 
Q 594 497 594 1153 
L 594 3053 
L 172 3053 
L 172 3500 
L 594 3500 
L 594 4494 
L 1172 4494 
z
" transform="scale(0.015625)"/>
       <path id="DejaVuSans-65" d="M 3597 1894 
L 3597 1613 
L 953 1613 
Q 991 1019 1311 708 
Q 1631 397 2203 397 
Q 2534 397 2845 478 
Q 3156 559 3463 722 
L 3463 178 
Q 3153 47 2828 -22 
Q 2503 -91 2169 -91 
Q 1331 -91 842 396 
Q 353 884 353 1716 
Q 353 2575 817 3079 
Q 1281 3584 2069 3584 
Q 2775 3584 3186 3129 
Q 3597 2675 3597 1894 
z
M 3022 2063 
Q 3016 2534 2758 2815 
Q 2500 3097 2075 3097 
Q 1594 3097 1305 2825 
Q 1016 2553 972 2059 
L 3022 2063 
z
" transform="scale(0.015625)"/>
       <path id="DejaVuSans-70" d="M 1159 525 
L 1159 -1331 
L 581 -1331 
L 581 3500 
L 1159 3500 
L 1159 2969 
Q 1341 3281 1617 3432 
Q 1894 3584 2278 3584 
Q 2916 3584 3314 3078 
Q 3713 2572 3713 1747 
Q 3713 922 3314 415 
Q 2916 -91 2278 -91 
Q 1894 -91 1617 61 
Q 1341 213 1159 525 
z
M 3116 1747 
Q 3116 2381 2855 2742 
Q 2594 3103 2138 3103 
Q 1681 3103 1420 2742 
Q 1159 2381 1159 1747 
Q 1159 1113 1420 752 
Q 1681 391 2138 391 
Q 2594 391 2855 752 
Q 3116 1113 3116 1747 
z
" transform="scale(0.015625)"/>
      </defs>
      <use xlink:href="#DejaVuSans-53"/>
      <use xlink:href="#DejaVuSans-74" transform="translate(63.476562 0)"/>
      <use xlink:href="#DejaVuSans-65" transform="translate(102.685547 0)"/>
      <use xlink:href="#DejaVuSans-70" transform="translate(164.208984 0)"/>
     </g>
    </g>
   </g>
   <g id="matplotlib.axis_2">
    <g id="ytick_1">
     <g id="line2d_7">
      <defs>
       <path id="m033dab90c1" d="M 0 0 
L -3.5 0 
" style="stroke: #000000; stroke-width: 0.8"/>
      </defs>
      <g>
       <use xlink:href="#m033dab90c1" x="50.87" y="374.418769" style="stroke: #000000; stroke-width: 0.8"/>
      </g>
     </g>
     <g id="text_8">
      <!-- 20 -->
      <g transform="translate(31.145 378.217988) scale(0.1 -0.1)">
       <use xlink:href="#DejaVuSans-32"/>
       <use xlink:href="#DejaVuSans-30" transform="translate(63.623047 0)"/>
      </g>
     </g>
    </g>
    <g id="ytick_2">
     <g id="line2d_8">
      <g>
       <use xlink:href="#m033dab90c1" x="50.87" y="316.868013" style="stroke: #000000; stroke-width: 0.8"/>
      </g>
     </g>
     <g id="text_9">
      <!-- 40 -->
      <g transform="translate(31.145 320.667231) scale(0.1 -0.1)">
       <defs>
        <path id="DejaVuSans-34" d="M 2419 4116 
L 825 1625 
L 2419 1625 
L 2419 4116 
z
M 2253 4666 
L 3047 4666 
L 3047 1625 
L 3713 1625 
L 3713 1100 
L 3047 1100 
L 3047 0 
L 2419 0 
L 2419 1100 
L 313 1100 
L 313 1709 
L 2253 4666 
z
" transform="scale(0.015625)"/>
       </defs>
       <use xlink:href="#DejaVuSans-34"/>
       <use xlink:href="#DejaVuSans-30" transform="translate(63.623047 0)"/>
      </g>
     </g>
    </g>
    <g id="ytick_3">
     <g id="line2d_9">
      <g>
       <use xlink:href="#m033dab90c1" x="50.87" y="259.317256" style="stroke: #000000; stroke-width: 0.8"/>
      </g>
     </g>
     <g id="text_10">
      <!-- 60 -->
      <g transform="translate(31.145 263.116475) scale(0.1 -0.1)">
       <defs>
        <path id="DejaVuSans-36" d="M 2113 2584 
Q 1688 2584 1439 2293 
Q 1191 2003 1191 1497 
Q 1191 994 1439 701 
Q 1688 409 2113 409 
Q 2538 409 2786 701 
Q 3034 994 3034 1497 
Q 3034 2003 2786 2293 
Q 2538 2584 2113 2584 
z
M 3366 4563 
L 3366 3988 
Q 3128 4100 2886 4159 
Q 2644 4219 2406 4219 
Q 1781 4219 1451 3797 
Q 1122 3375 1075 2522 
Q 1259 2794 1537 2939 
Q 1816 3084 2150 3084 
Q 2853 3084 3261 2657 
Q 3669 2231 3669 1497 
Q 3669 778 3244 343 
Q 2819 -91 2113 -91 
Q 1303 -91 875 529 
Q 447 1150 447 2328 
Q 447 3434 972 4092 
Q 1497 4750 2381 4750 
Q 2619 4750 2861 4703 
Q 3103 4656 3366 4563 
z
" transform="scale(0.015625)"/>
       </defs>
       <use xlink:href="#DejaVuSans-36"/>
       <use xlink:href="#DejaVuSans-30" transform="translate(63.623047 0)"/>
      </g>
     </g>
    </g>
    <g id="ytick_4">
     <g id="line2d_10">
      <g>
       <use xlink:href="#m033dab90c1" x="50.87" y="201.766499" style="stroke: #000000; stroke-width: 0.8"/>
      </g>
     </g>
     <g id="text_11">
      <!-- 80 -->
      <g transform="translate(31.145 205.565718) scale(0.1 -0.1)">
       <defs>
        <path id="DejaVuSans-38" d="M 2034 2216 
Q 1584 2216 1326 1975 
Q 1069 1734 1069 1313 
Q 1069 891 1326 650 
Q 1584 409 2034 409 
Q 2484 409 2743 651 
Q 3003 894 3003 1313 
Q 3003 1734 2745 1975 
Q 2488 2216 2034 2216 
z
M 1403 2484 
Q 997 2584 770 2862 
Q 544 3141 544 3541 
Q 544 4100 942 4425 
Q 1341 4750 2034 4750 
Q 2731 4750 3128 4425 
Q 3525 4100 3525 3541 
Q 3525 3141 3298 2862 
Q 3072 2584 2669 2484 
Q 3125 2378 3379 2068 
Q 3634 1759 3634 1313 
Q 3634 634 3220 271 
Q 2806 -91 2034 -91 
Q 1263 -91 848 271 
Q 434 634 434 1313 
Q 434 1759 690 2068 
Q 947 2378 1403 2484 
z
M 1172 3481 
Q 1172 3119 1398 2916 
Q 1625 2713 2034 2713 
Q 2441 2713 2670 2916 
Q 2900 3119 2900 3481 
Q 2900 3844 2670 4047 
Q 2441 4250 2034 4250 
Q 1625 4250 1398 4047 
Q 1172 3844 1172 3481 
z
" transform="scale(0.015625)"/>
       </defs>
       <use xlink:href="#DejaVuSans-38"/>
       <use xlink:href="#DejaVuSans-30" transform="translate(63.623047 0)"/>
      </g>
     </g>
    </g>
    <g id="ytick_5">
     <g id="line2d_11">
      <g>
       <use xlink:href="#m033dab90c1" x="50.87" y="144.215742" style="stroke: #000000; stroke-width: 0.8"/>
      </g>
     </g>
     <g id="text_12">
      <!-- 100 -->
      <g transform="translate(24.7825 148.014961) scale(0.1 -0.1)">
       <use xlink:href="#DejaVuSans-31"/>
       <use xlink:href="#DejaVuSans-30" transform="translate(63.623047 0)"/>
       <use xlink:href="#DejaVuSans-30" transform="translate(127.246094 0)"/>
      </g>
     </g>
    </g>
    <g id="ytick_6">
     <g id="line2d_12">
      <g>
       <use xlink:href="#m033dab90c1" x="50.87" y="86.664986" style="stroke: #000000; stroke-width: 0.8"/>
      </g>
     </g>
     <g id="text_13">
      <!-- 120 -->
      <g transform="translate(24.7825 90.464204) scale(0.1 -0.1)">
       <use xlink:href="#DejaVuSans-31"/>
       <use xlink:href="#DejaVuSans-32" transform="translate(63.623047 0)"/>
       <use xlink:href="#DejaVuSans-30" transform="translate(127.246094 0)"/>
      </g>
     </g>
    </g>
    <g id="text_14">
     <!-- Profit -->
     <g transform="translate(18.702813 229.779063) rotate(-90) scale(0.1 -0.1)">
      <defs>
       <path id="DejaVuSans-50" d="M 1259 4147 
L 1259 2394 
L 2053 2394 
Q 2494 2394 2734 2622 
Q 2975 2850 2975 3272 
Q 2975 3691 2734 3919 
Q 2494 4147 2053 4147 
L 1259 4147 
z
M 628 4666 
L 2053 4666 
Q 2838 4666 3239 4311 
Q 3641 3956 3641 3272 
Q 3641 2581 3239 2228 
Q 2838 1875 2053 1875 
L 1259 1875 
L 1259 0 
L 628 0 
L 628 4666 
z
" transform="scale(0.015625)"/>
       <path id="DejaVuSans-72" d="M 2631 2963 
Q 2534 3019 2420 3045 
Q 2306 3072 2169 3072 
Q 1681 3072 1420 2755 
Q 1159 2438 1159 1844 
L 1159 0 
L 581 0 
L 581 3500 
L 1159 3500 
L 1159 2956 
Q 1341 3275 1631 3429 
Q 1922 3584 2338 3584 
Q 2397 3584 2469 3576 
Q 2541 3569 2628 3553 
L 2631 2963 
z
" transform="scale(0.015625)"/>
       <path id="DejaVuSans-6f" d="M 1959 3097 
Q 1497 3097 1228 2736 
Q 959 2375 959 1747 
Q 959 1119 1226 758 
Q 1494 397 1959 397 
Q 2419 397 2687 759 
Q 2956 1122 2956 1747 
Q 2956 2369 2687 2733 
Q 2419 3097 1959 3097 
z
M 1959 3584 
Q 2709 3584 3137 3096 
Q 3566 2609 3566 1747 
Q 3566 888 3137 398 
Q 2709 -91 1959 -91 
Q 1206 -91 779 398 
Q 353 888 353 1747 
Q 353 2609 779 3096 
Q 1206 3584 1959 3584 
z
" transform="scale(0.015625)"/>
       <path id="DejaVuSans-66" d="M 2375 4863 
L 2375 4384 
L 1825 4384 
Q 1516 4384 1395 4259 
Q 1275 4134 1275 3809 
L 1275 3500 
L 2222 3500 
L 2222 3053 
L 1275 3053 
L 1275 0 
L 697 0 
L 697 3053 
L 147 3053 
L 147 3500 
L 697 3500 
L 697 3744 
Q 697 4328 969 4595 
Q 1241 4863 1831 4863 
L 2375 4863 
z
" transform="scale(0.015625)"/>
       <path id="DejaVuSans-69" d="M 603 3500 
L 1178 3500 
L 1178 0 
L 603 0 
L 603 3500 
z
M 603 4863 
L 1178 4863 
L 1178 4134 
L 603 4134 
L 603 4863 
z
" transform="scale(0.015625)"/>
      </defs>
      <use xlink:href="#DejaVuSans-50"/>
      <use xlink:href="#DejaVuSans-72" transform="translate(58.552734 0)"/>
      <use xlink:href="#DejaVuSans-6f" transform="translate(97.416016 0)"/>
      <use xlink:href="#DejaVuSans-66" transform="translate(158.597656 0)"/>
      <use xlink:href="#DejaVuSans-69" transform="translate(193.802734 0)"/>
      <use xlink:href="#DejaVuSans-74" transform="translate(221.585938 0)"/>
     </g>
    </g>
   </g>
   <g id="line2d_13">
    <path d="M 52.193327 247.979344 
L 54.83998 248.272164 
L 57.486633 237.176579 
L 60.133287 227.436349 
L 62.77994 218.668302 
L 65.426593 211.17404 
L 68.073247 204.906583 
L 70.7199 199.141826 
L 73.366553 194.130196 
L 76.013207 189.711497 
L 78.65986 185.643971 
L 81.306513 182.135369 
L 83.953167 178.96747 
L 89.246473 173.299375 
L 91.893127 170.703001 
L 94.53978 168.474968 
L 99.833087 164.474116 
L 102.47974 162.677895 
L 107.773047 159.506724 
L 110.4197 157.942466 
L 115.713007 155.198496 
L 123.652967 151.606974 
L 131.592927 148.597845 
L 139.532887 145.949088 
L 147.472847 143.61919 
L 152.766153 142.183363 
L 160.706113 140.388722 
L 176.586033 136.944027 
L 192.465953 134.076742 
L 205.69922 131.986273 
L 213.63918 130.861005 
L 218.932487 130.18555 
L 242.752367 127.528407 
L 274.512207 124.45267 
L 293.03878 122.988369 
L 306.272047 122.109884 
L 348.6185 119.240623 
L 404.19822 116.332679 
L 446.544673 114.506534 
L 478.304513 113.218369 
L 494.184433 112.709654 
L 510.064353 112.178853 
L 523.29762 111.790313 
L 544.470847 111.001686 
L 607.990527 109.458637 
L 618.57714 109.229987 
L 658.27694 108.359428 
L 695.330087 107.710713 
L 711.210007 107.437036 
L 724.443273 107.19089 
L 750.909807 106.666741 
L 772.083033 106.322175 
L 843.542673 105.28716 
L 843.542673 105.28716 
" clip-path="url(#p766d9675db)" style="fill: none; stroke: #0000ff; stroke-width: 1.5; stroke-linecap: square"/>
   </g>
   <g id="patch_3">
    <path d="M 50.87 390.04 
L 50.87 43.44 
" style="fill: none; stroke: #000000; stroke-width: 0.8; stroke-linejoin: miter; stroke-linecap: square"/>
   </g>
   <g id="patch_4">
    <path d="M 844.866 390.04 
L 844.866 43.44 
" style="fill: none; stroke: #000000; stroke-width: 0.8; stroke-linejoin: miter; stroke-linecap: square"/>
   </g>
   <g id="patch_5">
    <path d="M 50.87 390.04 
L 844.866 390.04 
" style="fill: none; stroke: #000000; stroke-width: 0.8; stroke-linejoin: miter; stroke-linecap: square"/>
   </g>
   <g id="patch_6">
    <path d="M 50.87 43.44 
L 844.866 43.44 
" style="fill: none; stroke: #000000; stroke-width: 0.8; stroke-linejoin: miter; stroke-linecap: square"/>
   </g>
   <g id="text_15">
    <!-- Mean profit per step with confidence interval per simulation step -->
    <g transform="translate(220.284875 21.763062) scale(0.14 -0.14)">
     <defs>
      <path id="DejaVuSans-4d" d="M 628 4666 
L 1569 4666 
L 2759 1491 
L 3956 4666 
L 4897 4666 
L 4897 0 
L 4281 0 
L 4281 4097 
L 3078 897 
L 2444 897 
L 1241 4097 
L 1241 0 
L 628 0 
L 628 4666 
z
" transform="scale(0.015625)"/>
      <path id="DejaVuSans-61" d="M 2194 1759 
Q 1497 1759 1228 1600 
Q 959 1441 959 1056 
Q 959 750 1161 570 
Q 1363 391 1709 391 
Q 2188 391 2477 730 
Q 2766 1069 2766 1631 
L 2766 1759 
L 2194 1759 
z
M 3341 1997 
L 3341 0 
L 2766 0 
L 2766 531 
Q 2569 213 2275 61 
Q 1981 -91 1556 -91 
Q 1019 -91 701 211 
Q 384 513 384 1019 
Q 384 1609 779 1909 
Q 1175 2209 1959 2209 
L 2766 2209 
L 2766 2266 
Q 2766 2663 2505 2880 
Q 2244 3097 1772 3097 
Q 1472 3097 1187 3025 
Q 903 2953 641 2809 
L 641 3341 
Q 956 3463 1253 3523 
Q 1550 3584 1831 3584 
Q 2591 3584 2966 3190 
Q 3341 2797 3341 1997 
z
" transform="scale(0.015625)"/>
      <path id="DejaVuSans-6e" d="M 3513 2113 
L 3513 0 
L 2938 0 
L 2938 2094 
Q 2938 2591 2744 2837 
Q 2550 3084 2163 3084 
Q 1697 3084 1428 2787 
Q 1159 2491 1159 1978 
L 1159 0 
L 581 0 
L 581 3500 
L 1159 3500 
L 1159 2956 
Q 1366 3272 1645 3428 
Q 1925 3584 2291 3584 
Q 2894 3584 3203 3211 
Q 3513 2838 3513 2113 
z
" transform="scale(0.015625)"/>
      <path id="DejaVuSans-20" transform="scale(0.015625)"/>
      <path id="DejaVuSans-73" d="M 2834 3397 
L 2834 2853 
Q 2591 2978 2328 3040 
Q 2066 3103 1784 3103 
Q 1356 3103 1142 2972 
Q 928 2841 928 2578 
Q 928 2378 1081 2264 
Q 1234 2150 1697 2047 
L 1894 2003 
Q 2506 1872 2764 1633 
Q 3022 1394 3022 966 
Q 3022 478 2636 193 
Q 2250 -91 1575 -91 
Q 1294 -91 989 -36 
Q 684 19 347 128 
L 347 722 
Q 666 556 975 473 
Q 1284 391 1588 391 
Q 1994 391 2212 530 
Q 2431 669 2431 922 
Q 2431 1156 2273 1281 
Q 2116 1406 1581 1522 
L 1381 1569 
Q 847 1681 609 1914 
Q 372 2147 372 2553 
Q 372 3047 722 3315 
Q 1072 3584 1716 3584 
Q 2034 3584 2315 3537 
Q 2597 3491 2834 3397 
z
" transform="scale(0.015625)"/>
      <path id="DejaVuSans-77" d="M 269 3500 
L 844 3500 
L 1563 769 
L 2278 3500 
L 2956 3500 
L 3675 769 
L 4391 3500 
L 4966 3500 
L 4050 0 
L 3372 0 
L 2619 2869 
L 1863 0 
L 1184 0 
L 269 3500 
z
" transform="scale(0.015625)"/>
      <path id="DejaVuSans-68" d="M 3513 2113 
L 3513 0 
L 2938 0 
L 2938 2094 
Q 2938 2591 2744 2837 
Q 2550 3084 2163 3084 
Q 1697 3084 1428 2787 
Q 1159 2491 1159 1978 
L 1159 0 
L 581 0 
L 581 4863 
L 1159 4863 
L 1159 2956 
Q 1366 3272 1645 3428 
Q 1925 3584 2291 3584 
Q 2894 3584 3203 3211 
Q 3513 2838 3513 2113 
z
" transform="scale(0.015625)"/>
      <path id="DejaVuSans-63" d="M 3122 3366 
L 3122 2828 
Q 2878 2963 2633 3030 
Q 2388 3097 2138 3097 
Q 1578 3097 1268 2742 
Q 959 2388 959 1747 
Q 959 1106 1268 751 
Q 1578 397 2138 397 
Q 2388 397 2633 464 
Q 2878 531 3122 666 
L 3122 134 
Q 2881 22 2623 -34 
Q 2366 -91 2075 -91 
Q 1284 -91 818 406 
Q 353 903 353 1747 
Q 353 2603 823 3093 
Q 1294 3584 2113 3584 
Q 2378 3584 2631 3529 
Q 2884 3475 3122 3366 
z
" transform="scale(0.015625)"/>
      <path id="DejaVuSans-64" d="M 2906 2969 
L 2906 4863 
L 3481 4863 
L 3481 0 
L 2906 0 
L 2906 525 
Q 2725 213 2448 61 
Q 2172 -91 1784 -91 
Q 1150 -91 751 415 
Q 353 922 353 1747 
Q 353 2572 751 3078 
Q 1150 3584 1784 3584 
Q 2172 3584 2448 3432 
Q 2725 3281 2906 2969 
z
M 947 1747 
Q 947 1113 1208 752 
Q 1469 391 1925 391 
Q 2381 391 2643 752 
Q 2906 1113 2906 1747 
Q 2906 2381 2643 2742 
Q 2381 3103 1925 3103 
Q 1469 3103 1208 2742 
Q 947 2381 947 1747 
z
" transform="scale(0.015625)"/>
      <path id="DejaVuSans-76" d="M 191 3500 
L 800 3500 
L 1894 563 
L 2988 3500 
L 3597 3500 
L 2284 0 
L 1503 0 
L 191 3500 
z
" transform="scale(0.015625)"/>
      <path id="DejaVuSans-6c" d="M 603 4863 
L 1178 4863 
L 1178 0 
L 603 0 
L 603 4863 
z
" transform="scale(0.015625)"/>
      <path id="DejaVuSans-6d" d="M 3328 2828 
Q 3544 3216 3844 3400 
Q 4144 3584 4550 3584 
Q 5097 3584 5394 3201 
Q 5691 2819 5691 2113 
L 5691 0 
L 5113 0 
L 5113 2094 
Q 5113 2597 4934 2840 
Q 4756 3084 4391 3084 
Q 3944 3084 3684 2787 
Q 3425 2491 3425 1978 
L 3425 0 
L 2847 0 
L 2847 2094 
Q 2847 2600 2669 2842 
Q 2491 3084 2119 3084 
Q 1678 3084 1418 2786 
Q 1159 2488 1159 1978 
L 1159 0 
L 581 0 
L 581 3500 
L 1159 3500 
L 1159 2956 
Q 1356 3278 1631 3431 
Q 1906 3584 2284 3584 
Q 2666 3584 2933 3390 
Q 3200 3197 3328 2828 
z
" transform="scale(0.015625)"/>
      <path id="DejaVuSans-75" d="M 544 1381 
L 544 3500 
L 1119 3500 
L 1119 1403 
Q 1119 906 1312 657 
Q 1506 409 1894 409 
Q 2359 409 2629 706 
Q 2900 1003 2900 1516 
L 2900 3500 
L 3475 3500 
L 3475 0 
L 2900 0 
L 2900 538 
Q 2691 219 2414 64 
Q 2138 -91 1772 -91 
Q 1169 -91 856 284 
Q 544 659 544 1381 
z
M 1991 3584 
L 1991 3584 
z
" transform="scale(0.015625)"/>
     </defs>
     <use xlink:href="#DejaVuSans-4d"/>
     <use xlink:href="#DejaVuSans-65" transform="translate(86.279297 0)"/>
     <use xlink:href="#DejaVuSans-61" transform="translate(147.802734 0)"/>
     <use xlink:href="#DejaVuSans-6e" transform="translate(209.082031 0)"/>
     <use xlink:href="#DejaVuSans-20" transform="translate(272.460938 0)"/>
     <use xlink:href="#DejaVuSans-70" transform="translate(304.248047 0)"/>
     <use xlink:href="#DejaVuSans-72" transform="translate(367.724609 0)"/>
     <use xlink:href="#DejaVuSans-6f" transform="translate(406.587891 0)"/>
     <use xlink:href="#DejaVuSans-66" transform="translate(467.769531 0)"/>
     <use xlink:href="#DejaVuSans-69" transform="translate(502.974609 0)"/>
     <use xlink:href="#DejaVuSans-74" transform="translate(530.757812 0)"/>
     <use xlink:href="#DejaVuSans-20" transform="translate(569.966797 0)"/>
     <use xlink:href="#DejaVuSans-70" transform="translate(601.753906 0)"/>
     <use xlink:href="#DejaVuSans-65" transform="translate(665.230469 0)"/>
     <use xlink:href="#DejaVuSans-72" transform="translate(726.753906 0)"/>
     <use xlink:href="#DejaVuSans-20" transform="translate(767.867188 0)"/>
     <use xlink:href="#DejaVuSans-73" transform="translate(799.654297 0)"/>
     <use xlink:href="#DejaVuSans-74" transform="translate(851.753906 0)"/>
     <use xlink:href="#DejaVuSans-65" transform="translate(890.962891 0)"/>
     <use xlink:href="#DejaVuSans-70" transform="translate(952.486328 0)"/>
     <use xlink:href="#DejaVuSans-20" transform="translate(1015.962891 0)"/>
     <use xlink:href="#DejaVuSans-77" transform="translate(1047.75 0)"/>
     <use xlink:href="#DejaVuSans-69" transform="translate(1129.537109 0)"/>
     <use xlink:href="#DejaVuSans-74" transform="translate(1157.320312 0)"/>
     <use xlink:href="#DejaVuSans-68" transform="translate(1196.529297 0)"/>
     <use xlink:href="#DejaVuSans-20" transform="translate(1259.908203 0)"/>
     <use xlink:href="#DejaVuSans-63" transform="translate(1291.695312 0)"/>
     <use xlink:href="#DejaVuSans-6f" transform="translate(1346.675781 0)"/>
     <use xlink:href="#DejaVuSans-6e" transform="translate(1407.857422 0)"/>
     <use xlink:href="#DejaVuSans-66" transform="translate(1471.236328 0)"/>
     <use xlink:href="#DejaVuSans-69" transform="translate(1506.441406 0)"/>
     <use xlink:href="#DejaVuSans-64" transform="translate(1534.224609 0)"/>
     <use xlink:href="#DejaVuSans-65" transform="translate(1597.701172 0)"/>
     <use xlink:href="#DejaVuSans-6e" transform="translate(1659.224609 0)"/>
     <use xlink:href="#DejaVuSans-63" transform="translate(1722.603516 0)"/>
     <use xlink:href="#DejaVuSans-65" transform="translate(1777.583984 0)"/>
     <use xlink:href="#DejaVuSans-20" transform="translate(1839.107422 0)"/>
     <use xlink:href="#DejaVuSans-69" transform="translate(1870.894531 0)"/>
     <use xlink:href="#DejaVuSans-6e" transform="translate(1898.677734 0)"/>
     <use xlink:href="#DejaVuSans-74" transform="translate(1962.056641 0)"/>
     <use xlink:href="#DejaVuSans-65" transform="translate(2001.265625 0)"/>
     <use xlink:href="#DejaVuSans-72" transform="translate(2062.789062 0)"/>
     <use xlink:href="#DejaVuSans-76" transform="translate(2103.902344 0)"/>
     <use xlink:href="#DejaVuSans-61" transform="translate(2163.082031 0)"/>
     <use xlink:href="#DejaVuSans-6c" transform="translate(2224.361328 0)"/>
     <use xlink:href="#DejaVuSans-20" transform="translate(2252.144531 0)"/>
     <use xlink:href="#DejaVuSans-70" transform="translate(2283.931641 0)"/>
     <use xlink:href="#DejaVuSans-65" transform="translate(2347.408203 0)"/>
     <use xlink:href="#DejaVuSans-72" transform="translate(2408.931641 0)"/>
     <use xlink:href="#DejaVuSans-20" transform="translate(2450.044922 0)"/>
     <use xlink:href="#DejaVuSans-73" transform="translate(2481.832031 0)"/>
     <use xlink:href="#DejaVuSans-69" transform="translate(2533.931641 0)"/>
     <use xlink:href="#DejaVuSans-6d" transform="translate(2561.714844 0)"/>
     <use xlink:href="#DejaVuSans-75" transform="translate(2659.126953 0)"/>
     <use xlink:href="#DejaVuSans-6c" transform="translate(2722.505859 0)"/>
     <use xlink:href="#DejaVuSans-61" transform="translate(2750.289062 0)"/>
     <use xlink:href="#DejaVuSans-74" transform="translate(2811.568359 0)"/>
     <use xlink:href="#DejaVuSans-69" transform="translate(2850.777344 0)"/>
     <use xlink:href="#DejaVuSans-6f" transform="translate(2878.560547 0)"/>
     <use xlink:href="#DejaVuSans-6e" transform="translate(2939.742188 0)"/>
     <use xlink:href="#DejaVuSans-20" transform="translate(3003.121094 0)"/>
     <use xlink:href="#DejaVuSans-73" transform="translate(3034.908203 0)"/>
     <use xlink:href="#DejaVuSans-74" transform="translate(3087.007812 0)"/>
     <use xlink:href="#DejaVuSans-65" transform="translate(3126.216797 0)"/>
     <use xlink:href="#DejaVuSans-70" transform="translate(3187.740234 0)"/>
    </g>
    <!-- Base Product: Grandaddy Purple, Recipe size: 7, T0: 5.0 -->
    <g transform="translate(252.737531 37.44) scale(0.14 -0.14)">
     <defs>
      <path id="DejaVuSans-42" d="M 1259 2228 
L 1259 519 
L 2272 519 
Q 2781 519 3026 730 
Q 3272 941 3272 1375 
Q 3272 1813 3026 2020 
Q 2781 2228 2272 2228 
L 1259 2228 
z
M 1259 4147 
L 1259 2741 
L 2194 2741 
Q 2656 2741 2882 2914 
Q 3109 3088 3109 3444 
Q 3109 3797 2882 3972 
Q 2656 4147 2194 4147 
L 1259 4147 
z
M 628 4666 
L 2241 4666 
Q 2963 4666 3353 4366 
Q 3744 4066 3744 3513 
Q 3744 3084 3544 2831 
Q 3344 2578 2956 2516 
Q 3422 2416 3680 2098 
Q 3938 1781 3938 1306 
Q 3938 681 3513 340 
Q 3088 0 2303 0 
L 628 0 
L 628 4666 
z
" transform="scale(0.015625)"/>
      <path id="DejaVuSans-3a" d="M 750 794 
L 1409 794 
L 1409 0 
L 750 0 
L 750 794 
z
M 750 3309 
L 1409 3309 
L 1409 2516 
L 750 2516 
L 750 3309 
z
" transform="scale(0.015625)"/>
      <path id="DejaVuSans-47" d="M 3809 666 
L 3809 1919 
L 2778 1919 
L 2778 2438 
L 4434 2438 
L 4434 434 
Q 4069 175 3628 42 
Q 3188 -91 2688 -91 
Q 1594 -91 976 548 
Q 359 1188 359 2328 
Q 359 3472 976 4111 
Q 1594 4750 2688 4750 
Q 3144 4750 3555 4637 
Q 3966 4525 4313 4306 
L 4313 3634 
Q 3963 3931 3569 4081 
Q 3175 4231 2741 4231 
Q 1884 4231 1454 3753 
Q 1025 3275 1025 2328 
Q 1025 1384 1454 906 
Q 1884 428 2741 428 
Q 3075 428 3337 486 
Q 3600 544 3809 666 
z
" transform="scale(0.015625)"/>
      <path id="DejaVuSans-79" d="M 2059 -325 
Q 1816 -950 1584 -1140 
Q 1353 -1331 966 -1331 
L 506 -1331 
L 506 -850 
L 844 -850 
Q 1081 -850 1212 -737 
Q 1344 -625 1503 -206 
L 1606 56 
L 191 3500 
L 800 3500 
L 1894 763 
L 2988 3500 
L 3597 3500 
L 2059 -325 
z
" transform="scale(0.015625)"/>
      <path id="DejaVuSans-2c" d="M 750 794 
L 1409 794 
L 1409 256 
L 897 -744 
L 494 -744 
L 750 256 
L 750 794 
z
" transform="scale(0.015625)"/>
      <path id="DejaVuSans-52" d="M 2841 2188 
Q 3044 2119 3236 1894 
Q 3428 1669 3622 1275 
L 4263 0 
L 3584 0 
L 2988 1197 
Q 2756 1666 2539 1819 
Q 2322 1972 1947 1972 
L 1259 1972 
L 1259 0 
L 628 0 
L 628 4666 
L 2053 4666 
Q 2853 4666 3247 4331 
Q 3641 3997 3641 3322 
Q 3641 2881 3436 2590 
Q 3231 2300 2841 2188 
z
M 1259 4147 
L 1259 2491 
L 2053 2491 
Q 2509 2491 2742 2702 
Q 2975 2913 2975 3322 
Q 2975 3731 2742 3939 
Q 2509 4147 2053 4147 
L 1259 4147 
z
" transform="scale(0.015625)"/>
      <path id="DejaVuSans-7a" d="M 353 3500 
L 3084 3500 
L 3084 2975 
L 922 459 
L 3084 459 
L 3084 0 
L 275 0 
L 275 525 
L 2438 3041 
L 353 3041 
L 353 3500 
z
" transform="scale(0.015625)"/>
      <path id="DejaVuSans-37" d="M 525 4666 
L 3525 4666 
L 3525 4397 
L 1831 0 
L 1172 0 
L 2766 4134 
L 525 4134 
L 525 4666 
z
" transform="scale(0.015625)"/>
      <path id="DejaVuSans-54" d="M -19 4666 
L 3928 4666 
L 3928 4134 
L 2272 4134 
L 2272 0 
L 1638 0 
L 1638 4134 
L -19 4134 
L -19 4666 
z
" transform="scale(0.015625)"/>
      <path id="DejaVuSans-2e" d="M 684 794 
L 1344 794 
L 1344 0 
L 684 0 
L 684 794 
z
" transform="scale(0.015625)"/>
     </defs>
     <use xlink:href="#DejaVuSans-42"/>
     <use xlink:href="#DejaVuSans-61" transform="translate(68.603516 0)"/>
     <use xlink:href="#DejaVuSans-73" transform="translate(129.882812 0)"/>
     <use xlink:href="#DejaVuSans-65" transform="translate(181.982422 0)"/>
     <use xlink:href="#DejaVuSans-20" transform="translate(243.505859 0)"/>
     <use xlink:href="#DejaVuSans-50" transform="translate(275.292969 0)"/>
     <use xlink:href="#DejaVuSans-72" transform="translate(333.845703 0)"/>
     <use xlink:href="#DejaVuSans-6f" transform="translate(372.708984 0)"/>
     <use xlink:href="#DejaVuSans-64" transform="translate(433.890625 0)"/>
     <use xlink:href="#DejaVuSans-75" transform="translate(497.367188 0)"/>
     <use xlink:href="#DejaVuSans-63" transform="translate(560.746094 0)"/>
     <use xlink:href="#DejaVuSans-74" transform="translate(615.726562 0)"/>
     <use xlink:href="#DejaVuSans-3a" transform="translate(654.935547 0)"/>
     <use xlink:href="#DejaVuSans-20" transform="translate(688.626953 0)"/>
     <use xlink:href="#DejaVuSans-47" transform="translate(720.414062 0)"/>
     <use xlink:href="#DejaVuSans-72" transform="translate(797.904297 0)"/>
     <use xlink:href="#DejaVuSans-61" transform="translate(839.017578 0)"/>
     <use xlink:href="#DejaVuSans-6e" transform="translate(900.296875 0)"/>
     <use xlink:href="#DejaVuSans-64" transform="translate(963.675781 0)"/>
     <use xlink:href="#DejaVuSans-61" transform="translate(1027.152344 0)"/>
     <use xlink:href="#DejaVuSans-64" transform="translate(1088.431641 0)"/>
     <use xlink:href="#DejaVuSans-64" transform="translate(1151.908203 0)"/>
     <use xlink:href="#DejaVuSans-79" transform="translate(1215.384766 0)"/>
     <use xlink:href="#DejaVuSans-20" transform="translate(1274.564453 0)"/>
     <use xlink:href="#DejaVuSans-50" transform="translate(1306.351562 0)"/>
     <use xlink:href="#DejaVuSans-75" transform="translate(1364.904297 0)"/>
     <use xlink:href="#DejaVuSans-72" transform="translate(1428.283203 0)"/>
     <use xlink:href="#DejaVuSans-70" transform="translate(1469.396484 0)"/>
     <use xlink:href="#DejaVuSans-6c" transform="translate(1532.873047 0)"/>
     <use xlink:href="#DejaVuSans-65" transform="translate(1560.65625 0)"/>
     <use xlink:href="#DejaVuSans-2c" transform="translate(1622.179688 0)"/>
     <use xlink:href="#DejaVuSans-20" transform="translate(1653.966797 0)"/>
     <use xlink:href="#DejaVuSans-52" transform="translate(1685.753906 0)"/>
     <use xlink:href="#DejaVuSans-65" transform="translate(1750.736328 0)"/>
     <use xlink:href="#DejaVuSans-63" transform="translate(1812.259766 0)"/>
     <use xlink:href="#DejaVuSans-69" transform="translate(1867.240234 0)"/>
     <use xlink:href="#DejaVuSans-70" transform="translate(1895.023438 0)"/>
     <use xlink:href="#DejaVuSans-65" transform="translate(1958.5 0)"/>
     <use xlink:href="#DejaVuSans-20" transform="translate(2020.023438 0)"/>
     <use xlink:href="#DejaVuSans-73" transform="translate(2051.810547 0)"/>
     <use xlink:href="#DejaVuSans-69" transform="translate(2103.910156 0)"/>
     <use xlink:href="#DejaVuSans-7a" transform="translate(2131.693359 0)"/>
     <use xlink:href="#DejaVuSans-65" transform="translate(2184.183594 0)"/>
     <use xlink:href="#DejaVuSans-3a" transform="translate(2245.707031 0)"/>
     <use xlink:href="#DejaVuSans-20" transform="translate(2279.398438 0)"/>
     <use xlink:href="#DejaVuSans-37" transform="translate(2311.185547 0)"/>
     <use xlink:href="#DejaVuSans-2c" transform="translate(2374.808594 0)"/>
     <use xlink:href="#DejaVuSans-20" transform="translate(2406.595703 0)"/>
     <use xlink:href="#DejaVuSans-54" transform="translate(2438.382812 0)"/>
     <use xlink:href="#DejaVuSans-30" transform="translate(2499.466797 0)"/>
     <use xlink:href="#DejaVuSans-3a" transform="translate(2563.089844 0)"/>
     <use xlink:href="#DejaVuSans-20" transform="translate(2596.78125 0)"/>
     <use xlink:href="#DejaVuSans-35" transform="translate(2628.568359 0)"/>
     <use xlink:href="#DejaVuSans-2e" transform="translate(2692.191406 0)"/>
     <use xlink:href="#DejaVuSans-30" transform="translate(2723.978516 0)"/>
    </g>
   </g>
  </g>
 </g>
 <defs>
  <clipPath id="p766d9675db">
   <rect x="50.87" y="43.44" width="793.996" height="346.6"/>
  </clipPath>
 </defs>
</svg>
