<?xml version="1.0" encoding="utf-8" standalone="no"?>
<!DOCTYPE svg PUBLIC "-//W3C//DTD SVG 1.1//EN"
  "http://www.w3.org/Graphics/SVG/1.1/DTD/svg11.dtd">
<svg xmlns:xlink="http://www.w3.org/1999/xlink" width="864pt" height="432pt" viewBox="0 0 864 432" xmlns="http://www.w3.org/2000/svg" version="1.1">
 <metadata>
  <rdf:RDF xmlns:dc="http://purl.org/dc/elements/1.1/" xmlns:cc="http://creativecommons.org/ns#" xmlns:rdf="http://www.w3.org/1999/02/22-rdf-syntax-ns#">
   <cc:Work>
    <dc:type rdf:resource="http://purl.org/dc/dcmitype/StillImage"/>
    <dc:date>2025-05-24T02:15:38.168238</dc:date>
    <dc:format>image/svg+xml</dc:format>
    <dc:creator>
     <cc:Agent>
      <dc:title>Matplotlib v3.10.3, https://matplotlib.org/</dc:title>
     </cc:Agent>
    </dc:creator>
   </cc:Work>
  </rdf:RDF>
 </metadata>
 <defs>
  <style type="text/css">*{stroke-linejoin: round; stroke-linecap: butt}</style>
 </defs>
 <g id="figure_1">
  <g id="patch_1">
   <path d="M 0 432 
L 864 432 
L 864 0 
L 0 0 
z
" style="fill: #ffffff"/>
  </g>
  <g id="axes_1">
   <g id="patch_2">
    <path d="M 50.87 390.04 
L 844.866 390.04 
L 844.866 43.44 
L 50.87 43.44 
z
" style="fill: #ffffff"/>
   </g>
   <g id="FillBetweenPolyCollection_1">
    <defs>
     <path id="mcaa48a0df2" d="M 52.193327 -299.702842 
L 52.193327 -57.714545 
L 54.83998 -58.865629 
L 57.486633 -73.255865 
L 60.133287 -85.805261 
L 62.77994 -97.671853 
L 65.426593 -107.88451 
L 68.073247 -116.876334 
L 70.7199 -124.159838 
L 73.366553 -130.916527 
L 76.013207 -136.906407 
L 78.65986 -142.068265 
L 81.306513 -146.591715 
L 83.953167 -151.167295 
L 86.59982 -154.86403 
L 89.246473 -158.667436 
L 91.893127 -162.09252 
L 94.53978 -165.340595 
L 97.186433 -168.329727 
L 99.833087 -171.267614 
L 102.47974 -173.998617 
L 105.126393 -176.766704 
L 107.773047 -178.946525 
L 110.4197 -181.319843 
L 113.066353 -183.443704 
L 115.713007 -185.395251 
L 118.35966 -187.667923 
L 121.006313 -189.534498 
L 123.652967 -191.453554 
L 126.29962 -192.952023 
L 128.946273 -194.482396 
L 131.592927 -195.908777 
L 134.23958 -197.158447 
L 136.886233 -198.664413 
L 139.532887 -200.038385 
L 142.17954 -201.326262 
L 144.826193 -202.667587 
L 147.472847 -203.869802 
L 150.1195 -205.168122 
L 152.766153 -206.253182 
L 155.412807 -207.315565 
L 158.05946 -208.333809 
L 160.706113 -209.279326 
L 163.352767 -210.082334 
L 165.99942 -210.838031 
L 168.646073 -211.740315 
L 171.292727 -212.533292 
L 173.93938 -213.400417 
L 176.586033 -214.092491 
L 179.232687 -215.074835 
L 181.87934 -216.138721 
L 184.525993 -216.899382 
L 187.172647 -217.72482 
L 189.8193 -218.399942 
L 192.465953 -219.292937 
L 195.112607 -219.845425 
L 197.75926 -220.674612 
L 200.405913 -221.368868 
L 203.052567 -221.994764 
L 205.69922 -222.663995 
L 208.345873 -223.364348 
L 210.992527 -223.854964 
L 213.63918 -224.524566 
L 216.285833 -225.159998 
L 218.932487 -225.754319 
L 221.57914 -226.362522 
L 224.225793 -227.038365 
L 226.872447 -227.669039 
L 229.5191 -228.257552 
L 232.165753 -228.734389 
L 234.812407 -229.217013 
L 237.45906 -229.77185 
L 240.105713 -230.273258 
L 242.752367 -230.74439 
L 245.39902 -231.160321 
L 248.045673 -231.541198 
L 250.692327 -231.97785 
L 253.33898 -232.550729 
L 255.985633 -233.102374 
L 258.632287 -233.441191 
L 261.27894 -233.835393 
L 263.925593 -234.371034 
L 266.572247 -234.709583 
L 269.2189 -235.26166 
L 271.865553 -235.743461 
L 274.512207 -236.235374 
L 277.15886 -236.652768 
L 279.805513 -236.96619 
L 282.452167 -237.416107 
L 285.09882 -237.710353 
L 287.745473 -238.164965 
L 290.392127 -238.462589 
L 293.03878 -238.886059 
L 295.685433 -239.25468 
L 298.332087 -239.617205 
L 300.97874 -240.003127 
L 303.625393 -240.236077 
L 306.272047 -240.427442 
L 308.9187 -240.767886 
L 311.565353 -240.960878 
L 314.212007 -241.293785 
L 316.85866 -241.588875 
L 319.505313 -241.862153 
L 322.151967 -242.297508 
L 324.79862 -242.747013 
L 327.445273 -243.013103 
L 330.091927 -243.157507 
L 332.73858 -243.368377 
L 335.385233 -243.698935 
L 338.031887 -244.025848 
L 340.67854 -244.339352 
L 343.325193 -244.669972 
L 345.971847 -244.975917 
L 348.6185 -245.31564 
L 351.265153 -245.617116 
L 353.911807 -245.871754 
L 356.55846 -246.117474 
L 359.205113 -246.360681 
L 361.851767 -246.611179 
L 364.49842 -246.838568 
L 367.145073 -247.093804 
L 369.791727 -247.450293 
L 372.43838 -247.607117 
L 375.085033 -247.897965 
L 377.731687 -248.010712 
L 380.37834 -248.204383 
L 383.024993 -248.428518 
L 385.671647 -248.706204 
L 388.3183 -248.946198 
L 390.964953 -249.26137 
L 393.611607 -249.53607 
L 396.25826 -249.617262 
L 398.904913 -249.87911 
L 401.551567 -250.137929 
L 404.19822 -250.317368 
L 406.844873 -250.509289 
L 409.491527 -250.754165 
L 412.13818 -251.112405 
L 414.784833 -251.291391 
L 417.431487 -251.47186 
L 420.07814 -251.714408 
L 422.724793 -251.988449 
L 425.371447 -252.162204 
L 428.0181 -252.46096 
L 430.664753 -252.652799 
L 433.311407 -252.915037 
L 435.95806 -253.064096 
L 438.604713 -253.268973 
L 441.251367 -253.392719 
L 443.89802 -253.606966 
L 446.544673 -253.837095 
L 449.191327 -254.04434 
L 451.83798 -254.253212 
L 454.484633 -254.39949 
L 457.131287 -254.497572 
L 459.77794 -254.611493 
L 462.424593 -254.811509 
L 465.071247 -255.03795 
L 467.7179 -255.139575 
L 470.364553 -255.294422 
L 473.011207 -255.534807 
L 475.65786 -255.647018 
L 478.304513 -255.794965 
L 480.951167 -256.000686 
L 483.59782 -256.170857 
L 486.244473 -256.448522 
L 488.891127 -256.622627 
L 491.53778 -256.797782 
L 494.184433 -257.03135 
L 496.831087 -257.200573 
L 499.47774 -257.325761 
L 502.124393 -257.435665 
L 504.771047 -257.5908 
L 507.4177 -257.709891 
L 510.064353 -257.906014 
L 512.711007 -258.020367 
L 515.35766 -258.178386 
L 518.004313 -258.336116 
L 520.650967 -258.513517 
L 523.29762 -258.594895 
L 525.944273 -258.652669 
L 528.590927 -258.863292 
L 531.23758 -258.892848 
L 533.884233 -259.07478 
L 536.530887 -259.253148 
L 539.17754 -259.427418 
L 541.824193 -259.57831 
L 544.470847 -259.669183 
L 547.1175 -259.805493 
L 549.764153 -259.921247 
L 552.410807 -260.076032 
L 555.05746 -260.093518 
L 557.704113 -260.169356 
L 560.350767 -260.33205 
L 562.99742 -260.490707 
L 565.644073 -260.769299 
L 568.290727 -260.849256 
L 570.93738 -261.047439 
L 573.584033 -261.068756 
L 576.230687 -261.231698 
L 578.87734 -261.382837 
L 581.523993 -261.509734 
L 584.170647 -261.662459 
L 586.8173 -261.718894 
L 589.463953 -261.828222 
L 592.110607 -261.950794 
L 594.75726 -262.06006 
L 597.403913 -262.143168 
L 600.050567 -262.318632 
L 602.69722 -262.4825 
L 605.343873 -262.681054 
L 607.990527 -262.781772 
L 610.63718 -262.940924 
L 613.283833 -263.037049 
L 615.930487 -263.095008 
L 618.57714 -263.188518 
L 621.223793 -263.347113 
L 623.870447 -263.462455 
L 626.5171 -263.577818 
L 629.163753 -263.691512 
L 631.810407 -263.818656 
L 634.45706 -263.947263 
L 637.103713 -264.145116 
L 639.750367 -264.264907 
L 642.39702 -264.391618 
L 645.043673 -264.453903 
L 647.690327 -264.537402 
L 650.33698 -264.596309 
L 652.983633 -264.713011 
L 655.630287 -264.817395 
L 658.27694 -264.927691 
L 660.923593 -265.044558 
L 663.570247 -265.151022 
L 666.2169 -265.279135 
L 668.863553 -265.45326 
L 671.510207 -265.547017 
L 674.15686 -265.657313 
L 676.803513 -265.774941 
L 679.450167 -265.920601 
L 682.09682 -266.053183 
L 684.743473 -266.134067 
L 687.390127 -266.293012 
L 690.03678 -266.45377 
L 692.683433 -266.543572 
L 695.330087 -266.696318 
L 697.97674 -266.766471 
L 700.623393 -266.954396 
L 703.270047 -266.948011 
L 705.9167 -267.053467 
L 708.563353 -267.202691 
L 711.210007 -267.304233 
L 713.85666 -267.357599 
L 716.503313 -267.481901 
L 719.149967 -267.69378 
L 721.79662 -267.752193 
L 724.443273 -267.848751 
L 727.089927 -267.941787 
L 729.73658 -268.039086 
L 732.383233 -268.084873 
L 735.029887 -268.145324 
L 737.67654 -268.252798 
L 740.323193 -268.332817 
L 742.969847 -268.472298 
L 745.6165 -268.532935 
L 748.263153 -268.640059 
L 750.909807 -268.682242 
L 753.55646 -268.834287 
L 756.203113 -268.887509 
L 758.849767 -269.008845 
L 761.49642 -269.10565 
L 764.143073 -269.185978 
L 766.789727 -269.244946 
L 769.43638 -269.257943 
L 772.083033 -269.386714 
L 774.729687 -269.447619 
L 777.37634 -269.521191 
L 780.022993 -269.568646 
L 782.669647 -269.713936 
L 785.3163 -269.802873 
L 787.962953 -269.823016 
L 790.609607 -269.867485 
L 793.25626 -269.933147 
L 795.902913 -270.076089 
L 798.549567 -270.143338 
L 801.19622 -270.234026 
L 803.842873 -270.26731 
L 806.489527 -270.272583 
L 809.13618 -270.35221 
L 811.782833 -270.391962 
L 814.429487 -270.462053 
L 817.07614 -270.560444 
L 819.722793 -270.681965 
L 822.369447 -270.787894 
L 825.0161 -270.873598 
L 827.662753 -270.928879 
L 830.309407 -270.985376 
L 832.95606 -271.025005 
L 835.602713 -271.160635 
L 838.249367 -271.237852 
L 840.89602 -271.30024 
L 843.542673 -271.365284 
L 843.542673 -372.805455 
L 843.542673 -372.805455 
L 840.89602 -372.772252 
L 838.249367 -372.743623 
L 835.602713 -372.709721 
L 832.95606 -372.750296 
L 830.309407 -372.7166 
L 827.662753 -372.651926 
L 825.0161 -372.591207 
L 822.369447 -372.556522 
L 819.722793 -372.529869 
L 817.07614 -372.50643 
L 814.429487 -372.46845 
L 811.782833 -372.421448 
L 809.13618 -372.342232 
L 806.489527 -372.328227 
L 803.842873 -372.261699 
L 801.19622 -372.205016 
L 798.549567 -372.188045 
L 795.902913 -372.116615 
L 793.25626 -372.138901 
L 790.609607 -372.100467 
L 787.962953 -372.048275 
L 785.3163 -371.975939 
L 782.669647 -371.938782 
L 780.022993 -371.951181 
L 777.37634 -371.86381 
L 774.729687 -371.822287 
L 772.083033 -371.763668 
L 769.43638 -371.772772 
L 766.789727 -371.68713 
L 764.143073 -371.618749 
L 761.49642 -371.621674 
L 758.849767 -371.579038 
L 756.203113 -371.58633 
L 753.55646 -371.559554 
L 750.909807 -371.577185 
L 748.263153 -371.485241 
L 745.6165 -371.438939 
L 742.969847 -371.398775 
L 740.323193 -371.397663 
L 737.67654 -371.371958 
L 735.029887 -371.33855 
L 732.383233 -371.298881 
L 729.73658 -371.240715 
L 727.089927 -371.215876 
L 724.443273 -371.171922 
L 721.79662 -371.128092 
L 719.149967 -371.03829 
L 716.503313 -371.08039 
L 713.85666 -371.051884 
L 711.210007 -370.970774 
L 708.563353 -370.948447 
L 705.9167 -370.945028 
L 703.270047 -370.893783 
L 700.623393 -370.766577 
L 697.97674 -370.778976 
L 695.330087 -370.739018 
L 692.683433 -370.727772 
L 690.03678 -370.66384 
L 687.390127 -370.648475 
L 684.743473 -370.688597 
L 682.09682 -370.604665 
L 679.450167 -370.585243 
L 676.803513 -370.544996 
L 674.15686 -370.554409 
L 671.510207 -370.492804 
L 668.863553 -370.457542 
L 666.2169 -370.455853 
L 663.570247 -370.463886 
L 660.923593 -370.391076 
L 658.27694 -370.36669 
L 655.630287 -370.322015 
L 652.983633 -370.302448 
L 650.33698 -370.274643 
L 647.690327 -370.197899 
L 645.043673 -370.117448 
L 642.39702 -370.010921 
L 639.750367 -369.982745 
L 637.103713 -369.938668 
L 634.45706 -369.915682 
L 631.810407 -369.878525 
L 629.163753 -369.826147 
L 626.5171 -369.804397 
L 623.870447 -369.777889 
L 621.223793 -369.724832 
L 618.57714 -369.67301 
L 615.930487 -369.581972 
L 613.283833 -369.452048 
L 610.63718 -369.420061 
L 607.990527 -369.417651 
L 605.343873 -369.350711 
L 602.69722 -369.346056 
L 600.050567 -369.355902 
L 597.403913 -369.373841 
L 594.75726 -369.30754 
L 592.110607 -369.238026 
L 589.463953 -369.185154 
L 586.8173 -369.116072 
L 584.170647 -369.018073 
L 581.523993 -368.971339 
L 578.87734 -368.87991 
L 576.230687 -368.801724 
L 573.584033 -368.770685 
L 570.93738 -368.642058 
L 568.290727 -368.629864 
L 565.644073 -368.510526 
L 562.99742 -368.566714 
L 560.350767 -368.550628 
L 557.704113 -368.511515 
L 555.05746 -368.447459 
L 552.410807 -368.291891 
L 549.764153 -368.250554 
L 547.1175 -368.176941 
L 544.470847 -368.106088 
L 541.824193 -368.023371 
L 539.17754 -367.989963 
L 536.530887 -367.937873 
L 533.884233 -367.885805 
L 531.23758 -367.863375 
L 528.590927 -367.674935 
L 525.944273 -367.640414 
L 523.29762 -367.476814 
L 520.650967 -367.312802 
L 518.004313 -367.267509 
L 515.35766 -367.160859 
L 512.711007 -367.137049 
L 510.064353 -366.966878 
L 507.4177 -366.926715 
L 504.771047 -366.830569 
L 502.124393 -366.766966 
L 499.47774 -366.646516 
L 496.831087 -366.56833 
L 494.184433 -366.496365 
L 491.53778 -366.466376 
L 488.891127 -366.387614 
L 486.244473 -366.30397 
L 483.59782 -366.316843 
L 480.951167 -366.221233 
L 478.304513 -366.148691 
L 475.65786 -366.072503 
L 473.011207 -365.951682 
L 470.364553 -365.936049 
L 467.7179 -365.835908 
L 465.071247 -365.672781 
L 462.424593 -365.633359 
L 459.77794 -365.617355 
L 457.131287 -365.484979 
L 454.484633 -365.3083 
L 451.83798 -365.192052 
L 449.191327 -365.102147 
L 446.544673 -365.043816 
L 443.89802 -364.991027 
L 441.251367 -364.906827 
L 438.604713 -364.800259 
L 435.95806 -364.6781 
L 433.311407 -364.517012 
L 430.664753 -364.424203 
L 428.0181 -364.299839 
L 425.371447 -364.232797 
L 422.724793 -364.070576 
L 420.07814 -364.016304 
L 417.431487 -363.903721 
L 414.784833 -363.797813 
L 412.13818 -363.68004 
L 409.491527 -363.661359 
L 406.844873 -363.533267 
L 404.19822 -363.484535 
L 401.551567 -363.301883 
L 398.904913 -363.227075 
L 396.25826 -363.165759 
L 393.611607 -362.966464 
L 390.964953 -362.928463 
L 388.3183 -362.885621 
L 385.671647 -362.816416 
L 383.024993 -362.757798 
L 380.37834 -362.681136 
L 377.731687 -362.538627 
L 375.085033 -362.329446 
L 372.43838 -362.31439 
L 369.791727 -362.138987 
L 367.145073 -362.088196 
L 364.49842 -361.956458 
L 361.851767 -361.795556 
L 359.205113 -361.762684 
L 356.55846 -361.595644 
L 353.911807 -361.490023 
L 351.265153 -361.370129 
L 348.6185 -361.254396 
L 345.971847 -361.200473 
L 343.325193 -361.081918 
L 340.67854 -360.981694 
L 338.031887 -360.931417 
L 335.385233 -360.833582 
L 332.73858 -360.682752 
L 330.091927 -360.485682 
L 327.445273 -360.214813 
L 324.79862 -360.052407 
L 322.151967 -360.009484 
L 319.505313 -359.971318 
L 316.85866 -359.800982 
L 314.212007 -359.5966 
L 311.565353 -359.48305 
L 308.9187 -359.240419 
L 306.272047 -359.137209 
L 303.625393 -358.85357 
L 300.97874 -358.544165 
L 298.332087 -358.431315 
L 295.685433 -358.197027 
L 293.03878 -358.000595 
L 290.392127 -357.819302 
L 287.745473 -357.570987 
L 285.09882 -357.469032 
L 282.452167 -357.215156 
L 279.805513 -357.146981 
L 277.15886 -356.93057 
L 274.512207 -356.791727 
L 271.865553 -356.649671 
L 269.2189 -356.47122 
L 266.572247 -356.244573 
L 263.925593 -355.991953 
L 261.27894 -355.833111 
L 258.632287 -355.626504 
L 255.985633 -355.325832 
L 253.33898 -355.166722 
L 250.692327 -355.018425 
L 248.045673 -354.805289 
L 245.39902 -354.516728 
L 242.752367 -354.290204 
L 240.105713 -354.10162 
L 237.45906 -353.8428 
L 234.812407 -353.635267 
L 232.165753 -353.314575 
L 229.5191 -353.087248 
L 226.872447 -352.90614 
L 224.225793 -352.719574 
L 221.57914 -352.484832 
L 218.932487 -352.198392 
L 216.285833 -351.861326 
L 213.63918 -351.703987 
L 210.992527 -351.543455 
L 208.345873 -351.138852 
L 205.69922 -350.858426 
L 203.052567 -350.589185 
L 200.405913 -350.371106 
L 197.75926 -350.112842 
L 195.112607 -349.927554 
L 192.465953 -349.392696 
L 189.8193 -349.075629 
L 187.172647 -348.731415 
L 184.525993 -348.399435 
L 181.87934 -348.00927 
L 179.232687 -347.850448 
L 176.586033 -347.680936 
L 173.93938 -347.267044 
L 171.292727 -346.81379 
L 168.646073 -346.325358 
L 165.99942 -345.818285 
L 163.352767 -345.251502 
L 160.706113 -344.685523 
L 158.05946 -344.230786 
L 155.412807 -343.845976 
L 152.766153 -343.471238 
L 150.1195 -342.976523 
L 147.472847 -342.534125 
L 144.826193 -342.109563 
L 142.17954 -341.606898 
L 139.532887 -341.024832 
L 136.886233 -340.561363 
L 134.23958 -340.067657 
L 131.592927 -339.409919 
L 128.946273 -338.826164 
L 126.29962 -338.270545 
L 123.652967 -337.496393 
L 121.006313 -337.072758 
L 118.35966 -336.47819 
L 115.713007 -335.846548 
L 113.066353 -335.14222 
L 110.4197 -334.543676 
L 107.773047 -333.983073 
L 105.126393 -332.938691 
L 102.47974 -332.26291 
L 99.833087 -331.270927 
L 97.186433 -330.458836 
L 94.53978 -329.529137 
L 91.893127 -328.547452 
L 89.246473 -327.520084 
L 86.59982 -326.285882 
L 83.953167 -324.610146 
L 81.306513 -323.485561 
L 78.65986 -321.891059 
L 76.013207 -320.212832 
L 73.366553 -319.117494 
L 70.7199 -317.377393 
L 68.073247 -314.78683 
L 65.426593 -313.321408 
L 62.77994 -310.908555 
L 60.133287 -308.243864 
L 57.486633 -304.015134 
L 54.83998 -299.305674 
L 52.193327 -299.702842 
z
" style="stroke: #0000ff; stroke-opacity: 0.2"/>
    </defs>
    <g clip-path="url(#pd6efb478d5)">
     <use xlink:href="#mcaa48a0df2" x="0" y="432" style="fill: #0000ff; fill-opacity: 0.2; stroke: #0000ff; stroke-opacity: 0.2"/>
    </g>
   </g>
   <g id="matplotlib.axis_1">
    <g id="xtick_1">
     <g id="line2d_1">
      <defs>
       <path id="mc9691a9d9f" d="M 0 0 
L 0 3.5 
" style="stroke: #000000; stroke-width: 0.8"/>
      </defs>
      <g>
       <use xlink:href="#mc9691a9d9f" x="181.87934" y="390.04" style="stroke: #000000; stroke-width: 0.8"/>
      </g>
     </g>
     <g id="text_1">
      <!-- 50 -->
      <g transform="translate(175.51684 404.638438) scale(0.1 -0.1)">
       <defs>
        <path id="DejaVuSans-35" d="M 691 4666 
L 3169 4666 
L 3169 4134 
L 1269 4134 
L 1269 2991 
Q 1406 3038 1543 3061 
Q 1681 3084 1819 3084 
Q 2600 3084 3056 2656 
Q 3513 2228 3513 1497 
Q 3513 744 3044 326 
Q 2575 -91 1722 -91 
Q 1428 -91 1123 -41 
Q 819 9 494 109 
L 494 744 
Q 775 591 1075 516 
Q 1375 441 1709 441 
Q 2250 441 2565 725 
Q 2881 1009 2881 1497 
Q 2881 1984 2565 2268 
Q 2250 2553 1709 2553 
Q 1456 2553 1204 2497 
Q 953 2441 691 2322 
L 691 4666 
z
" transform="scale(0.015625)"/>
        <path id="DejaVuSans-30" d="M 2034 4250 
Q 1547 4250 1301 3770 
Q 1056 3291 1056 2328 
Q 1056 1369 1301 889 
Q 1547 409 2034 409 
Q 2525 409 2770 889 
Q 3016 1369 3016 2328 
Q 3016 3291 2770 3770 
Q 2525 4250 2034 4250 
z
M 2034 4750 
Q 2819 4750 3233 4129 
Q 3647 3509 3647 2328 
Q 3647 1150 3233 529 
Q 2819 -91 2034 -91 
Q 1250 -91 836 529 
Q 422 1150 422 2328 
Q 422 3509 836 4129 
Q 1250 4750 2034 4750 
z
" transform="scale(0.015625)"/>
       </defs>
       <use xlink:href="#DejaVuSans-35"/>
       <use xlink:href="#DejaVuSans-30" transform="translate(63.623047 0)"/>
      </g>
     </g>
    </g>
    <g id="xtick_2">
     <g id="line2d_2">
      <g>
       <use xlink:href="#mc9691a9d9f" x="314.212007" y="390.04" style="stroke: #000000; stroke-width: 0.8"/>
      </g>
     </g>
     <g id="text_2">
      <!-- 100 -->
      <g transform="translate(304.668257 404.638438) scale(0.1 -0.1)">
       <defs>
        <path id="DejaVuSans-31" d="M 794 531 
L 1825 531 
L 1825 4091 
L 703 3866 
L 703 4441 
L 1819 4666 
L 2450 4666 
L 2450 531 
L 3481 531 
L 3481 0 
L 794 0 
L 794 531 
z
" transform="scale(0.015625)"/>
       </defs>
       <use xlink:href="#DejaVuSans-31"/>
       <use xlink:href="#DejaVuSans-30" transform="translate(63.623047 0)"/>
       <use xlink:href="#DejaVuSans-30" transform="translate(127.246094 0)"/>
      </g>
     </g>
    </g>
    <g id="xtick_3">
     <g id="line2d_3">
      <g>
       <use xlink:href="#mc9691a9d9f" x="446.544673" y="390.04" style="stroke: #000000; stroke-width: 0.8"/>
      </g>
     </g>
     <g id="text_3">
      <!-- 150 -->
      <g transform="translate(437.000923 404.638438) scale(0.1 -0.1)">
       <use xlink:href="#DejaVuSans-31"/>
       <use xlink:href="#DejaVuSans-35" transform="translate(63.623047 0)"/>
       <use xlink:href="#DejaVuSans-30" transform="translate(127.246094 0)"/>
      </g>
     </g>
    </g>
    <g id="xtick_4">
     <g id="line2d_4">
      <g>
       <use xlink:href="#mc9691a9d9f" x="578.87734" y="390.04" style="stroke: #000000; stroke-width: 0.8"/>
      </g>
     </g>
     <g id="text_4">
      <!-- 200 -->
      <g transform="translate(569.33359 404.638438) scale(0.1 -0.1)">
       <defs>
        <path id="DejaVuSans-32" d="M 1228 531 
L 3431 531 
L 3431 0 
L 469 0 
L 469 531 
Q 828 903 1448 1529 
Q 2069 2156 2228 2338 
Q 2531 2678 2651 2914 
Q 2772 3150 2772 3378 
Q 2772 3750 2511 3984 
Q 2250 4219 1831 4219 
Q 1534 4219 1204 4116 
Q 875 4013 500 3803 
L 500 4441 
Q 881 4594 1212 4672 
Q 1544 4750 1819 4750 
Q 2544 4750 2975 4387 
Q 3406 4025 3406 3419 
Q 3406 3131 3298 2873 
Q 3191 2616 2906 2266 
Q 2828 2175 2409 1742 
Q 1991 1309 1228 531 
z
" transform="scale(0.015625)"/>
       </defs>
       <use xlink:href="#DejaVuSans-32"/>
       <use xlink:href="#DejaVuSans-30" transform="translate(63.623047 0)"/>
       <use xlink:href="#DejaVuSans-30" transform="translate(127.246094 0)"/>
      </g>
     </g>
    </g>
    <g id="xtick_5">
     <g id="line2d_5">
      <g>
       <use xlink:href="#mc9691a9d9f" x="711.210007" y="390.04" style="stroke: #000000; stroke-width: 0.8"/>
      </g>
     </g>
     <g id="text_5">
      <!-- 250 -->
      <g transform="translate(701.666257 404.638438) scale(0.1 -0.1)">
       <use xlink:href="#DejaVuSans-32"/>
       <use xlink:href="#DejaVuSans-35" transform="translate(63.623047 0)"/>
       <use xlink:href="#DejaVuSans-30" transform="translate(127.246094 0)"/>
      </g>
     </g>
    </g>
    <g id="xtick_6">
     <g id="line2d_6">
      <g>
       <use xlink:href="#mc9691a9d9f" x="843.542673" y="390.04" style="stroke: #000000; stroke-width: 0.8"/>
      </g>
     </g>
     <g id="text_6">
      <!-- 300 -->
      <g transform="translate(833.998923 404.638438) scale(0.1 -0.1)">
       <defs>
        <path id="DejaVuSans-33" d="M 2597 2516 
Q 3050 2419 3304 2112 
Q 3559 1806 3559 1356 
Q 3559 666 3084 287 
Q 2609 -91 1734 -91 
Q 1441 -91 1130 -33 
Q 819 25 488 141 
L 488 750 
Q 750 597 1062 519 
Q 1375 441 1716 441 
Q 2309 441 2620 675 
Q 2931 909 2931 1356 
Q 2931 1769 2642 2001 
Q 2353 2234 1838 2234 
L 1294 2234 
L 1294 2753 
L 1863 2753 
Q 2328 2753 2575 2939 
Q 2822 3125 2822 3475 
Q 2822 3834 2567 4026 
Q 2313 4219 1838 4219 
Q 1578 4219 1281 4162 
Q 984 4106 628 3988 
L 628 4550 
Q 988 4650 1302 4700 
Q 1616 4750 1894 4750 
Q 2613 4750 3031 4423 
Q 3450 4097 3450 3541 
Q 3450 3153 3228 2886 
Q 3006 2619 2597 2516 
z
" transform="scale(0.015625)"/>
       </defs>
       <use xlink:href="#DejaVuSans-33"/>
       <use xlink:href="#DejaVuSans-30" transform="translate(63.623047 0)"/>
       <use xlink:href="#DejaVuSans-30" transform="translate(127.246094 0)"/>
      </g>
     </g>
    </g>
    <g id="text_7">
     <!-- Step -->
     <g transform="translate(436.482844 418.316562) scale(0.1 -0.1)">
      <defs>
       <path id="DejaVuSans-53" d="M 3425 4513 
L 3425 3897 
Q 3066 4069 2747 4153 
Q 2428 4238 2131 4238 
Q 1616 4238 1336 4038 
Q 1056 3838 1056 3469 
Q 1056 3159 1242 3001 
Q 1428 2844 1947 2747 
L 2328 2669 
Q 3034 2534 3370 2195 
Q 3706 1856 3706 1288 
Q 3706 609 3251 259 
Q 2797 -91 1919 -91 
Q 1588 -91 1214 -16 
Q 841 59 441 206 
L 441 856 
Q 825 641 1194 531 
Q 1563 422 1919 422 
Q 2459 422 2753 634 
Q 3047 847 3047 1241 
Q 3047 1584 2836 1778 
Q 2625 1972 2144 2069 
L 1759 2144 
Q 1053 2284 737 2584 
Q 422 2884 422 3419 
Q 422 4038 858 4394 
Q 1294 4750 2059 4750 
Q 2388 4750 2728 4690 
Q 3069 4631 3425 4513 
z
" transform="scale(0.015625)"/>
       <path id="DejaVuSans-74" d="M 1172 4494 
L 1172 3500 
L 2356 3500 
L 2356 3053 
L 1172 3053 
L 1172 1153 
Q 1172 725 1289 603 
Q 1406 481 1766 481 
L 2356 481 
L 2356 0 
L 1766 0 
Q 1100 0 847 248 
Q 594 497 594 1153 
L 594 3053 
L 172 3053 
L 172 3500 
L 594 3500 
L 594 4494 
L 1172 4494 
z
" transform="scale(0.015625)"/>
       <path id="DejaVuSans-65" d="M 3597 1894 
L 3597 1613 
L 953 1613 
Q 991 1019 1311 708 
Q 1631 397 2203 397 
Q 2534 397 2845 478 
Q 3156 559 3463 722 
L 3463 178 
Q 3153 47 2828 -22 
Q 2503 -91 2169 -91 
Q 1331 -91 842 396 
Q 353 884 353 1716 
Q 353 2575 817 3079 
Q 1281 3584 2069 3584 
Q 2775 3584 3186 3129 
Q 3597 2675 3597 1894 
z
M 3022 2063 
Q 3016 2534 2758 2815 
Q 2500 3097 2075 3097 
Q 1594 3097 1305 2825 
Q 1016 2553 972 2059 
L 3022 2063 
z
" transform="scale(0.015625)"/>
       <path id="DejaVuSans-70" d="M 1159 525 
L 1159 -1331 
L 581 -1331 
L 581 3500 
L 1159 3500 
L 1159 2969 
Q 1341 3281 1617 3432 
Q 1894 3584 2278 3584 
Q 2916 3584 3314 3078 
Q 3713 2572 3713 1747 
Q 3713 922 3314 415 
Q 2916 -91 2278 -91 
Q 1894 -91 1617 61 
Q 1341 213 1159 525 
z
M 3116 1747 
Q 3116 2381 2855 2742 
Q 2594 3103 2138 3103 
Q 1681 3103 1420 2742 
Q 1159 2381 1159 1747 
Q 1159 1113 1420 752 
Q 1681 391 2138 391 
Q 2594 391 2855 752 
Q 3116 1113 3116 1747 
z
" transform="scale(0.015625)"/>
      </defs>
      <use xlink:href="#DejaVuSans-53"/>
      <use xlink:href="#DejaVuSans-74" transform="translate(63.476562 0)"/>
      <use xlink:href="#DejaVuSans-65" transform="translate(102.685547 0)"/>
      <use xlink:href="#DejaVuSans-70" transform="translate(164.208984 0)"/>
     </g>
    </g>
   </g>
   <g id="matplotlib.axis_2">
    <g id="ytick_1">
     <g id="line2d_7">
      <defs>
       <path id="m789e1ad9cf" d="M 0 0 
L -3.5 0 
" style="stroke: #000000; stroke-width: 0.8"/>
      </defs>
      <g>
       <use xlink:href="#m789e1ad9cf" x="50.87" y="352.933859" style="stroke: #000000; stroke-width: 0.8"/>
      </g>
     </g>
     <g id="text_8">
      <!-- 20 -->
      <g transform="translate(31.145 356.733078) scale(0.1 -0.1)">
       <use xlink:href="#DejaVuSans-32"/>
       <use xlink:href="#DejaVuSans-30" transform="translate(63.623047 0)"/>
      </g>
     </g>
    </g>
    <g id="ytick_2">
     <g id="line2d_8">
      <g>
       <use xlink:href="#m789e1ad9cf" x="50.87" y="298.940571" style="stroke: #000000; stroke-width: 0.8"/>
      </g>
     </g>
     <g id="text_9">
      <!-- 40 -->
      <g transform="translate(31.145 302.73979) scale(0.1 -0.1)">
       <defs>
        <path id="DejaVuSans-34" d="M 2419 4116 
L 825 1625 
L 2419 1625 
L 2419 4116 
z
M 2253 4666 
L 3047 4666 
L 3047 1625 
L 3713 1625 
L 3713 1100 
L 3047 1100 
L 3047 0 
L 2419 0 
L 2419 1100 
L 313 1100 
L 313 1709 
L 2253 4666 
z
" transform="scale(0.015625)"/>
       </defs>
       <use xlink:href="#DejaVuSans-34"/>
       <use xlink:href="#DejaVuSans-30" transform="translate(63.623047 0)"/>
      </g>
     </g>
    </g>
    <g id="ytick_3">
     <g id="line2d_9">
      <g>
       <use xlink:href="#m789e1ad9cf" x="50.87" y="244.947283" style="stroke: #000000; stroke-width: 0.8"/>
      </g>
     </g>
     <g id="text_10">
      <!-- 60 -->
      <g transform="translate(31.145 248.746502) scale(0.1 -0.1)">
       <defs>
        <path id="DejaVuSans-36" d="M 2113 2584 
Q 1688 2584 1439 2293 
Q 1191 2003 1191 1497 
Q 1191 994 1439 701 
Q 1688 409 2113 409 
Q 2538 409 2786 701 
Q 3034 994 3034 1497 
Q 3034 2003 2786 2293 
Q 2538 2584 2113 2584 
z
M 3366 4563 
L 3366 3988 
Q 3128 4100 2886 4159 
Q 2644 4219 2406 4219 
Q 1781 4219 1451 3797 
Q 1122 3375 1075 2522 
Q 1259 2794 1537 2939 
Q 1816 3084 2150 3084 
Q 2853 3084 3261 2657 
Q 3669 2231 3669 1497 
Q 3669 778 3244 343 
Q 2819 -91 2113 -91 
Q 1303 -91 875 529 
Q 447 1150 447 2328 
Q 447 3434 972 4092 
Q 1497 4750 2381 4750 
Q 2619 4750 2861 4703 
Q 3103 4656 3366 4563 
z
" transform="scale(0.015625)"/>
       </defs>
       <use xlink:href="#DejaVuSans-36"/>
       <use xlink:href="#DejaVuSans-30" transform="translate(63.623047 0)"/>
      </g>
     </g>
    </g>
    <g id="ytick_4">
     <g id="line2d_10">
      <g>
       <use xlink:href="#m789e1ad9cf" x="50.87" y="190.953995" style="stroke: #000000; stroke-width: 0.8"/>
      </g>
     </g>
     <g id="text_11">
      <!-- 80 -->
      <g transform="translate(31.145 194.753214) scale(0.1 -0.1)">
       <defs>
        <path id="DejaVuSans-38" d="M 2034 2216 
Q 1584 2216 1326 1975 
Q 1069 1734 1069 1313 
Q 1069 891 1326 650 
Q 1584 409 2034 409 
Q 2484 409 2743 651 
Q 3003 894 3003 1313 
Q 3003 1734 2745 1975 
Q 2488 2216 2034 2216 
z
M 1403 2484 
Q 997 2584 770 2862 
Q 544 3141 544 3541 
Q 544 4100 942 4425 
Q 1341 4750 2034 4750 
Q 2731 4750 3128 4425 
Q 3525 4100 3525 3541 
Q 3525 3141 3298 2862 
Q 3072 2584 2669 2484 
Q 3125 2378 3379 2068 
Q 3634 1759 3634 1313 
Q 3634 634 3220 271 
Q 2806 -91 2034 -91 
Q 1263 -91 848 271 
Q 434 634 434 1313 
Q 434 1759 690 2068 
Q 947 2378 1403 2484 
z
M 1172 3481 
Q 1172 3119 1398 2916 
Q 1625 2713 2034 2713 
Q 2441 2713 2670 2916 
Q 2900 3119 2900 3481 
Q 2900 3844 2670 4047 
Q 2441 4250 2034 4250 
Q 1625 4250 1398 4047 
Q 1172 3844 1172 3481 
z
" transform="scale(0.015625)"/>
       </defs>
       <use xlink:href="#DejaVuSans-38"/>
       <use xlink:href="#DejaVuSans-30" transform="translate(63.623047 0)"/>
      </g>
     </g>
    </g>
    <g id="ytick_5">
     <g id="line2d_11">
      <g>
       <use xlink:href="#m789e1ad9cf" x="50.87" y="136.960707" style="stroke: #000000; stroke-width: 0.8"/>
      </g>
     </g>
     <g id="text_12">
      <!-- 100 -->
      <g transform="translate(24.7825 140.759926) scale(0.1 -0.1)">
       <use xlink:href="#DejaVuSans-31"/>
       <use xlink:href="#DejaVuSans-30" transform="translate(63.623047 0)"/>
       <use xlink:href="#DejaVuSans-30" transform="translate(127.246094 0)"/>
      </g>
     </g>
    </g>
    <g id="ytick_6">
     <g id="line2d_12">
      <g>
       <use xlink:href="#m789e1ad9cf" x="50.87" y="82.967419" style="stroke: #000000; stroke-width: 0.8"/>
      </g>
     </g>
     <g id="text_13">
      <!-- 120 -->
      <g transform="translate(24.7825 86.766638) scale(0.1 -0.1)">
       <use xlink:href="#DejaVuSans-31"/>
       <use xlink:href="#DejaVuSans-32" transform="translate(63.623047 0)"/>
       <use xlink:href="#DejaVuSans-30" transform="translate(127.246094 0)"/>
      </g>
     </g>
    </g>
    <g id="text_14">
     <!-- Profit -->
     <g transform="translate(18.702813 229.779063) rotate(-90) scale(0.1 -0.1)">
      <defs>
       <path id="DejaVuSans-50" d="M 1259 4147 
L 1259 2394 
L 2053 2394 
Q 2494 2394 2734 2622 
Q 2975 2850 2975 3272 
Q 2975 3691 2734 3919 
Q 2494 4147 2053 4147 
L 1259 4147 
z
M 628 4666 
L 2053 4666 
Q 2838 4666 3239 4311 
Q 3641 3956 3641 3272 
Q 3641 2581 3239 2228 
Q 2838 1875 2053 1875 
L 1259 1875 
L 1259 0 
L 628 0 
L 628 4666 
z
" transform="scale(0.015625)"/>
       <path id="DejaVuSans-72" d="M 2631 2963 
Q 2534 3019 2420 3045 
Q 2306 3072 2169 3072 
Q 1681 3072 1420 2755 
Q 1159 2438 1159 1844 
L 1159 0 
L 581 0 
L 581 3500 
L 1159 3500 
L 1159 2956 
Q 1341 3275 1631 3429 
Q 1922 3584 2338 3584 
Q 2397 3584 2469 3576 
Q 2541 3569 2628 3553 
L 2631 2963 
z
" transform="scale(0.015625)"/>
       <path id="DejaVuSans-6f" d="M 1959 3097 
Q 1497 3097 1228 2736 
Q 959 2375 959 1747 
Q 959 1119 1226 758 
Q 1494 397 1959 397 
Q 2419 397 2687 759 
Q 2956 1122 2956 1747 
Q 2956 2369 2687 2733 
Q 2419 3097 1959 3097 
z
M 1959 3584 
Q 2709 3584 3137 3096 
Q 3566 2609 3566 1747 
Q 3566 888 3137 398 
Q 2709 -91 1959 -91 
Q 1206 -91 779 398 
Q 353 888 353 1747 
Q 353 2609 779 3096 
Q 1206 3584 1959 3584 
z
" transform="scale(0.015625)"/>
       <path id="DejaVuSans-66" d="M 2375 4863 
L 2375 4384 
L 1825 4384 
Q 1516 4384 1395 4259 
Q 1275 4134 1275 3809 
L 1275 3500 
L 2222 3500 
L 2222 3053 
L 1275 3053 
L 1275 0 
L 697 0 
L 697 3053 
L 147 3053 
L 147 3500 
L 697 3500 
L 697 3744 
Q 697 4328 969 4595 
Q 1241 4863 1831 4863 
L 2375 4863 
z
" transform="scale(0.015625)"/>
       <path id="DejaVuSans-69" d="M 603 3500 
L 1178 3500 
L 1178 0 
L 603 0 
L 603 3500 
z
M 603 4863 
L 1178 4863 
L 1178 4134 
L 603 4134 
L 603 4863 
z
" transform="scale(0.015625)"/>
      </defs>
      <use xlink:href="#DejaVuSans-50"/>
      <use xlink:href="#DejaVuSans-72" transform="translate(58.552734 0)"/>
      <use xlink:href="#DejaVuSans-6f" transform="translate(97.416016 0)"/>
      <use xlink:href="#DejaVuSans-66" transform="translate(158.597656 0)"/>
      <use xlink:href="#DejaVuSans-69" transform="translate(193.802734 0)"/>
      <use xlink:href="#DejaVuSans-74" transform="translate(221.585938 0)"/>
     </g>
    </g>
   </g>
   <g id="line2d_13">
    <path d="M 52.193327 253.291306 
L 54.83998 252.914343 
L 57.486633 243.364501 
L 60.133287 234.975433 
L 62.77994 227.709796 
L 65.426593 221.397041 
L 68.073247 216.168418 
L 70.7199 211.231385 
L 73.366553 206.982985 
L 78.65986 200.020338 
L 81.306513 196.961362 
L 83.953167 194.111279 
L 86.59982 191.425044 
L 89.246473 188.90624 
L 94.53978 184.565134 
L 99.833087 180.73073 
L 102.47974 178.869232 
L 107.773047 175.535206 
L 113.066353 172.707038 
L 121.006313 168.696367 
L 126.29962 166.388721 
L 131.592927 164.340657 
L 144.826193 159.611425 
L 155.412807 156.419229 
L 168.646073 152.967164 
L 176.586033 151.113286 
L 197.75926 146.606273 
L 210.992527 144.30079 
L 240.105713 139.812561 
L 279.805513 134.943415 
L 293.03878 133.556673 
L 306.272047 132.217675 
L 353.911807 128.319111 
L 396.25826 125.60849 
L 454.484633 122.146105 
L 475.65786 121.140239 
L 491.53778 120.367921 
L 507.4177 119.681697 
L 547.1175 118.008783 
L 610.63718 115.819508 
L 621.223793 115.464028 
L 668.863553 114.044599 
L 692.683433 113.364328 
L 724.443273 112.489664 
L 761.49642 111.636338 
L 777.37634 111.30751 
L 803.842873 110.735496 
L 817.07614 110.466563 
L 835.602713 110.064822 
L 843.542673 109.914631 
L 843.542673 109.914631 
" clip-path="url(#pd6efb478d5)" style="fill: none; stroke: #0000ff; stroke-width: 1.5; stroke-linecap: square"/>
   </g>
   <g id="patch_3">
    <path d="M 50.87 390.04 
L 50.87 43.44 
" style="fill: none; stroke: #000000; stroke-width: 0.8; stroke-linejoin: miter; stroke-linecap: square"/>
   </g>
   <g id="patch_4">
    <path d="M 844.866 390.04 
L 844.866 43.44 
" style="fill: none; stroke: #000000; stroke-width: 0.8; stroke-linejoin: miter; stroke-linecap: square"/>
   </g>
   <g id="patch_5">
    <path d="M 50.87 390.04 
L 844.866 390.04 
" style="fill: none; stroke: #000000; stroke-width: 0.8; stroke-linejoin: miter; stroke-linecap: square"/>
   </g>
   <g id="patch_6">
    <path d="M 50.87 43.44 
L 844.866 43.44 
" style="fill: none; stroke: #000000; stroke-width: 0.8; stroke-linejoin: miter; stroke-linecap: square"/>
   </g>
   <g id="text_15">
    <!-- Mean profit per step with confidence interval per simulation step -->
    <g transform="translate(220.284875 21.763062) scale(0.14 -0.14)">
     <defs>
      <path id="DejaVuSans-4d" d="M 628 4666 
L 1569 4666 
L 2759 1491 
L 3956 4666 
L 4897 4666 
L 4897 0 
L 4281 0 
L 4281 4097 
L 3078 897 
L 2444 897 
L 1241 4097 
L 1241 0 
L 628 0 
L 628 4666 
z
" transform="scale(0.015625)"/>
      <path id="DejaVuSans-61" d="M 2194 1759 
Q 1497 1759 1228 1600 
Q 959 1441 959 1056 
Q 959 750 1161 570 
Q 1363 391 1709 391 
Q 2188 391 2477 730 
Q 2766 1069 2766 1631 
L 2766 1759 
L 2194 1759 
z
M 3341 1997 
L 3341 0 
L 2766 0 
L 2766 531 
Q 2569 213 2275 61 
Q 1981 -91 1556 -91 
Q 1019 -91 701 211 
Q 384 513 384 1019 
Q 384 1609 779 1909 
Q 1175 2209 1959 2209 
L 2766 2209 
L 2766 2266 
Q 2766 2663 2505 2880 
Q 2244 3097 1772 3097 
Q 1472 3097 1187 3025 
Q 903 2953 641 2809 
L 641 3341 
Q 956 3463 1253 3523 
Q 1550 3584 1831 3584 
Q 2591 3584 2966 3190 
Q 3341 2797 3341 1997 
z
" transform="scale(0.015625)"/>
      <path id="DejaVuSans-6e" d="M 3513 2113 
L 3513 0 
L 2938 0 
L 2938 2094 
Q 2938 2591 2744 2837 
Q 2550 3084 2163 3084 
Q 1697 3084 1428 2787 
Q 1159 2491 1159 1978 
L 1159 0 
L 581 0 
L 581 3500 
L 1159 3500 
L 1159 2956 
Q 1366 3272 1645 3428 
Q 1925 3584 2291 3584 
Q 2894 3584 3203 3211 
Q 3513 2838 3513 2113 
z
" transform="scale(0.015625)"/>
      <path id="DejaVuSans-20" transform="scale(0.015625)"/>
      <path id="DejaVuSans-73" d="M 2834 3397 
L 2834 2853 
Q 2591 2978 2328 3040 
Q 2066 3103 1784 3103 
Q 1356 3103 1142 2972 
Q 928 2841 928 2578 
Q 928 2378 1081 2264 
Q 1234 2150 1697 2047 
L 1894 2003 
Q 2506 1872 2764 1633 
Q 3022 1394 3022 966 
Q 3022 478 2636 193 
Q 2250 -91 1575 -91 
Q 1294 -91 989 -36 
Q 684 19 347 128 
L 347 722 
Q 666 556 975 473 
Q 1284 391 1588 391 
Q 1994 391 2212 530 
Q 2431 669 2431 922 
Q 2431 1156 2273 1281 
Q 2116 1406 1581 1522 
L 1381 1569 
Q 847 1681 609 1914 
Q 372 2147 372 2553 
Q 372 3047 722 3315 
Q 1072 3584 1716 3584 
Q 2034 3584 2315 3537 
Q 2597 3491 2834 3397 
z
" transform="scale(0.015625)"/>
      <path id="DejaVuSans-77" d="M 269 3500 
L 844 3500 
L 1563 769 
L 2278 3500 
L 2956 3500 
L 3675 769 
L 4391 3500 
L 4966 3500 
L 4050 0 
L 3372 0 
L 2619 2869 
L 1863 0 
L 1184 0 
L 269 3500 
z
" transform="scale(0.015625)"/>
      <path id="DejaVuSans-68" d="M 3513 2113 
L 3513 0 
L 2938 0 
L 2938 2094 
Q 2938 2591 2744 2837 
Q 2550 3084 2163 3084 
Q 1697 3084 1428 2787 
Q 1159 2491 1159 1978 
L 1159 0 
L 581 0 
L 581 4863 
L 1159 4863 
L 1159 2956 
Q 1366 3272 1645 3428 
Q 1925 3584 2291 3584 
Q 2894 3584 3203 3211 
Q 3513 2838 3513 2113 
z
" transform="scale(0.015625)"/>
      <path id="DejaVuSans-63" d="M 3122 3366 
L 3122 2828 
Q 2878 2963 2633 3030 
Q 2388 3097 2138 3097 
Q 1578 3097 1268 2742 
Q 959 2388 959 1747 
Q 959 1106 1268 751 
Q 1578 397 2138 397 
Q 2388 397 2633 464 
Q 2878 531 3122 666 
L 3122 134 
Q 2881 22 2623 -34 
Q 2366 -91 2075 -91 
Q 1284 -91 818 406 
Q 353 903 353 1747 
Q 353 2603 823 3093 
Q 1294 3584 2113 3584 
Q 2378 3584 2631 3529 
Q 2884 3475 3122 3366 
z
" transform="scale(0.015625)"/>
      <path id="DejaVuSans-64" d="M 2906 2969 
L 2906 4863 
L 3481 4863 
L 3481 0 
L 2906 0 
L 2906 525 
Q 2725 213 2448 61 
Q 2172 -91 1784 -91 
Q 1150 -91 751 415 
Q 353 922 353 1747 
Q 353 2572 751 3078 
Q 1150 3584 1784 3584 
Q 2172 3584 2448 3432 
Q 2725 3281 2906 2969 
z
M 947 1747 
Q 947 1113 1208 752 
Q 1469 391 1925 391 
Q 2381 391 2643 752 
Q 2906 1113 2906 1747 
Q 2906 2381 2643 2742 
Q 2381 3103 1925 3103 
Q 1469 3103 1208 2742 
Q 947 2381 947 1747 
z
" transform="scale(0.015625)"/>
      <path id="DejaVuSans-76" d="M 191 3500 
L 800 3500 
L 1894 563 
L 2988 3500 
L 3597 3500 
L 2284 0 
L 1503 0 
L 191 3500 
z
" transform="scale(0.015625)"/>
      <path id="DejaVuSans-6c" d="M 603 4863 
L 1178 4863 
L 1178 0 
L 603 0 
L 603 4863 
z
" transform="scale(0.015625)"/>
      <path id="DejaVuSans-6d" d="M 3328 2828 
Q 3544 3216 3844 3400 
Q 4144 3584 4550 3584 
Q 5097 3584 5394 3201 
Q 5691 2819 5691 2113 
L 5691 0 
L 5113 0 
L 5113 2094 
Q 5113 2597 4934 2840 
Q 4756 3084 4391 3084 
Q 3944 3084 3684 2787 
Q 3425 2491 3425 1978 
L 3425 0 
L 2847 0 
L 2847 2094 
Q 2847 2600 2669 2842 
Q 2491 3084 2119 3084 
Q 1678 3084 1418 2786 
Q 1159 2488 1159 1978 
L 1159 0 
L 581 0 
L 581 3500 
L 1159 3500 
L 1159 2956 
Q 1356 3278 1631 3431 
Q 1906 3584 2284 3584 
Q 2666 3584 2933 3390 
Q 3200 3197 3328 2828 
z
" transform="scale(0.015625)"/>
      <path id="DejaVuSans-75" d="M 544 1381 
L 544 3500 
L 1119 3500 
L 1119 1403 
Q 1119 906 1312 657 
Q 1506 409 1894 409 
Q 2359 409 2629 706 
Q 2900 1003 2900 1516 
L 2900 3500 
L 3475 3500 
L 3475 0 
L 2900 0 
L 2900 538 
Q 2691 219 2414 64 
Q 2138 -91 1772 -91 
Q 1169 -91 856 284 
Q 544 659 544 1381 
z
M 1991 3584 
L 1991 3584 
z
" transform="scale(0.015625)"/>
     </defs>
     <use xlink:href="#DejaVuSans-4d"/>
     <use xlink:href="#DejaVuSans-65" transform="translate(86.279297 0)"/>
     <use xlink:href="#DejaVuSans-61" transform="translate(147.802734 0)"/>
     <use xlink:href="#DejaVuSans-6e" transform="translate(209.082031 0)"/>
     <use xlink:href="#DejaVuSans-20" transform="translate(272.460938 0)"/>
     <use xlink:href="#DejaVuSans-70" transform="translate(304.248047 0)"/>
     <use xlink:href="#DejaVuSans-72" transform="translate(367.724609 0)"/>
     <use xlink:href="#DejaVuSans-6f" transform="translate(406.587891 0)"/>
     <use xlink:href="#DejaVuSans-66" transform="translate(467.769531 0)"/>
     <use xlink:href="#DejaVuSans-69" transform="translate(502.974609 0)"/>
     <use xlink:href="#DejaVuSans-74" transform="translate(530.757812 0)"/>
     <use xlink:href="#DejaVuSans-20" transform="translate(569.966797 0)"/>
     <use xlink:href="#DejaVuSans-70" transform="translate(601.753906 0)"/>
     <use xlink:href="#DejaVuSans-65" transform="translate(665.230469 0)"/>
     <use xlink:href="#DejaVuSans-72" transform="translate(726.753906 0)"/>
     <use xlink:href="#DejaVuSans-20" transform="translate(767.867188 0)"/>
     <use xlink:href="#DejaVuSans-73" transform="translate(799.654297 0)"/>
     <use xlink:href="#DejaVuSans-74" transform="translate(851.753906 0)"/>
     <use xlink:href="#DejaVuSans-65" transform="translate(890.962891 0)"/>
     <use xlink:href="#DejaVuSans-70" transform="translate(952.486328 0)"/>
     <use xlink:href="#DejaVuSans-20" transform="translate(1015.962891 0)"/>
     <use xlink:href="#DejaVuSans-77" transform="translate(1047.75 0)"/>
     <use xlink:href="#DejaVuSans-69" transform="translate(1129.537109 0)"/>
     <use xlink:href="#DejaVuSans-74" transform="translate(1157.320312 0)"/>
     <use xlink:href="#DejaVuSans-68" transform="translate(1196.529297 0)"/>
     <use xlink:href="#DejaVuSans-20" transform="translate(1259.908203 0)"/>
     <use xlink:href="#DejaVuSans-63" transform="translate(1291.695312 0)"/>
     <use xlink:href="#DejaVuSans-6f" transform="translate(1346.675781 0)"/>
     <use xlink:href="#DejaVuSans-6e" transform="translate(1407.857422 0)"/>
     <use xlink:href="#DejaVuSans-66" transform="translate(1471.236328 0)"/>
     <use xlink:href="#DejaVuSans-69" transform="translate(1506.441406 0)"/>
     <use xlink:href="#DejaVuSans-64" transform="translate(1534.224609 0)"/>
     <use xlink:href="#DejaVuSans-65" transform="translate(1597.701172 0)"/>
     <use xlink:href="#DejaVuSans-6e" transform="translate(1659.224609 0)"/>
     <use xlink:href="#DejaVuSans-63" transform="translate(1722.603516 0)"/>
     <use xlink:href="#DejaVuSans-65" transform="translate(1777.583984 0)"/>
     <use xlink:href="#DejaVuSans-20" transform="translate(1839.107422 0)"/>
     <use xlink:href="#DejaVuSans-69" transform="translate(1870.894531 0)"/>
     <use xlink:href="#DejaVuSans-6e" transform="translate(1898.677734 0)"/>
     <use xlink:href="#DejaVuSans-74" transform="translate(1962.056641 0)"/>
     <use xlink:href="#DejaVuSans-65" transform="translate(2001.265625 0)"/>
     <use xlink:href="#DejaVuSans-72" transform="translate(2062.789062 0)"/>
     <use xlink:href="#DejaVuSans-76" transform="translate(2103.902344 0)"/>
     <use xlink:href="#DejaVuSans-61" transform="translate(2163.082031 0)"/>
     <use xlink:href="#DejaVuSans-6c" transform="translate(2224.361328 0)"/>
     <use xlink:href="#DejaVuSans-20" transform="translate(2252.144531 0)"/>
     <use xlink:href="#DejaVuSans-70" transform="translate(2283.931641 0)"/>
     <use xlink:href="#DejaVuSans-65" transform="translate(2347.408203 0)"/>
     <use xlink:href="#DejaVuSans-72" transform="translate(2408.931641 0)"/>
     <use xlink:href="#DejaVuSans-20" transform="translate(2450.044922 0)"/>
     <use xlink:href="#DejaVuSans-73" transform="translate(2481.832031 0)"/>
     <use xlink:href="#DejaVuSans-69" transform="translate(2533.931641 0)"/>
     <use xlink:href="#DejaVuSans-6d" transform="translate(2561.714844 0)"/>
     <use xlink:href="#DejaVuSans-75" transform="translate(2659.126953 0)"/>
     <use xlink:href="#DejaVuSans-6c" transform="translate(2722.505859 0)"/>
     <use xlink:href="#DejaVuSans-61" transform="translate(2750.289062 0)"/>
     <use xlink:href="#DejaVuSans-74" transform="translate(2811.568359 0)"/>
     <use xlink:href="#DejaVuSans-69" transform="translate(2850.777344 0)"/>
     <use xlink:href="#DejaVuSans-6f" transform="translate(2878.560547 0)"/>
     <use xlink:href="#DejaVuSans-6e" transform="translate(2939.742188 0)"/>
     <use xlink:href="#DejaVuSans-20" transform="translate(3003.121094 0)"/>
     <use xlink:href="#DejaVuSans-73" transform="translate(3034.908203 0)"/>
     <use xlink:href="#DejaVuSans-74" transform="translate(3087.007812 0)"/>
     <use xlink:href="#DejaVuSans-65" transform="translate(3126.216797 0)"/>
     <use xlink:href="#DejaVuSans-70" transform="translate(3187.740234 0)"/>
    </g>
    <!-- Base Product: Grandaddy Purple, Recipe size: 10, T0: 5.0 -->
    <g transform="translate(248.283781 37.44) scale(0.14 -0.14)">
     <defs>
      <path id="DejaVuSans-42" d="M 1259 2228 
L 1259 519 
L 2272 519 
Q 2781 519 3026 730 
Q 3272 941 3272 1375 
Q 3272 1813 3026 2020 
Q 2781 2228 2272 2228 
L 1259 2228 
z
M 1259 4147 
L 1259 2741 
L 2194 2741 
Q 2656 2741 2882 2914 
Q 3109 3088 3109 3444 
Q 3109 3797 2882 3972 
Q 2656 4147 2194 4147 
L 1259 4147 
z
M 628 4666 
L 2241 4666 
Q 2963 4666 3353 4366 
Q 3744 4066 3744 3513 
Q 3744 3084 3544 2831 
Q 3344 2578 2956 2516 
Q 3422 2416 3680 2098 
Q 3938 1781 3938 1306 
Q 3938 681 3513 340 
Q 3088 0 2303 0 
L 628 0 
L 628 4666 
z
" transform="scale(0.015625)"/>
      <path id="DejaVuSans-3a" d="M 750 794 
L 1409 794 
L 1409 0 
L 750 0 
L 750 794 
z
M 750 3309 
L 1409 3309 
L 1409 2516 
L 750 2516 
L 750 3309 
z
" transform="scale(0.015625)"/>
      <path id="DejaVuSans-47" d="M 3809 666 
L 3809 1919 
L 2778 1919 
L 2778 2438 
L 4434 2438 
L 4434 434 
Q 4069 175 3628 42 
Q 3188 -91 2688 -91 
Q 1594 -91 976 548 
Q 359 1188 359 2328 
Q 359 3472 976 4111 
Q 1594 4750 2688 4750 
Q 3144 4750 3555 4637 
Q 3966 4525 4313 4306 
L 4313 3634 
Q 3963 3931 3569 4081 
Q 3175 4231 2741 4231 
Q 1884 4231 1454 3753 
Q 1025 3275 1025 2328 
Q 1025 1384 1454 906 
Q 1884 428 2741 428 
Q 3075 428 3337 486 
Q 3600 544 3809 666 
z
" transform="scale(0.015625)"/>
      <path id="DejaVuSans-79" d="M 2059 -325 
Q 1816 -950 1584 -1140 
Q 1353 -1331 966 -1331 
L 506 -1331 
L 506 -850 
L 844 -850 
Q 1081 -850 1212 -737 
Q 1344 -625 1503 -206 
L 1606 56 
L 191 3500 
L 800 3500 
L 1894 763 
L 2988 3500 
L 3597 3500 
L 2059 -325 
z
" transform="scale(0.015625)"/>
      <path id="DejaVuSans-2c" d="M 750 794 
L 1409 794 
L 1409 256 
L 897 -744 
L 494 -744 
L 750 256 
L 750 794 
z
" transform="scale(0.015625)"/>
      <path id="DejaVuSans-52" d="M 2841 2188 
Q 3044 2119 3236 1894 
Q 3428 1669 3622 1275 
L 4263 0 
L 3584 0 
L 2988 1197 
Q 2756 1666 2539 1819 
Q 2322 1972 1947 1972 
L 1259 1972 
L 1259 0 
L 628 0 
L 628 4666 
L 2053 4666 
Q 2853 4666 3247 4331 
Q 3641 3997 3641 3322 
Q 3641 2881 3436 2590 
Q 3231 2300 2841 2188 
z
M 1259 4147 
L 1259 2491 
L 2053 2491 
Q 2509 2491 2742 2702 
Q 2975 2913 2975 3322 
Q 2975 3731 2742 3939 
Q 2509 4147 2053 4147 
L 1259 4147 
z
" transform="scale(0.015625)"/>
      <path id="DejaVuSans-7a" d="M 353 3500 
L 3084 3500 
L 3084 2975 
L 922 459 
L 3084 459 
L 3084 0 
L 275 0 
L 275 525 
L 2438 3041 
L 353 3041 
L 353 3500 
z
" transform="scale(0.015625)"/>
      <path id="DejaVuSans-54" d="M -19 4666 
L 3928 4666 
L 3928 4134 
L 2272 4134 
L 2272 0 
L 1638 0 
L 1638 4134 
L -19 4134 
L -19 4666 
z
" transform="scale(0.015625)"/>
      <path id="DejaVuSans-2e" d="M 684 794 
L 1344 794 
L 1344 0 
L 684 0 
L 684 794 
z
" transform="scale(0.015625)"/>
     </defs>
     <use xlink:href="#DejaVuSans-42"/>
     <use xlink:href="#DejaVuSans-61" transform="translate(68.603516 0)"/>
     <use xlink:href="#DejaVuSans-73" transform="translate(129.882812 0)"/>
     <use xlink:href="#DejaVuSans-65" transform="translate(181.982422 0)"/>
     <use xlink:href="#DejaVuSans-20" transform="translate(243.505859 0)"/>
     <use xlink:href="#DejaVuSans-50" transform="translate(275.292969 0)"/>
     <use xlink:href="#DejaVuSans-72" transform="translate(333.845703 0)"/>
     <use xlink:href="#DejaVuSans-6f" transform="translate(372.708984 0)"/>
     <use xlink:href="#DejaVuSans-64" transform="translate(433.890625 0)"/>
     <use xlink:href="#DejaVuSans-75" transform="translate(497.367188 0)"/>
     <use xlink:href="#DejaVuSans-63" transform="translate(560.746094 0)"/>
     <use xlink:href="#DejaVuSans-74" transform="translate(615.726562 0)"/>
     <use xlink:href="#DejaVuSans-3a" transform="translate(654.935547 0)"/>
     <use xlink:href="#DejaVuSans-20" transform="translate(688.626953 0)"/>
     <use xlink:href="#DejaVuSans-47" transform="translate(720.414062 0)"/>
     <use xlink:href="#DejaVuSans-72" transform="translate(797.904297 0)"/>
     <use xlink:href="#DejaVuSans-61" transform="translate(839.017578 0)"/>
     <use xlink:href="#DejaVuSans-6e" transform="translate(900.296875 0)"/>
     <use xlink:href="#DejaVuSans-64" transform="translate(963.675781 0)"/>
     <use xlink:href="#DejaVuSans-61" transform="translate(1027.152344 0)"/>
     <use xlink:href="#DejaVuSans-64" transform="translate(1088.431641 0)"/>
     <use xlink:href="#DejaVuSans-64" transform="translate(1151.908203 0)"/>
     <use xlink:href="#DejaVuSans-79" transform="translate(1215.384766 0)"/>
     <use xlink:href="#DejaVuSans-20" transform="translate(1274.564453 0)"/>
     <use xlink:href="#DejaVuSans-50" transform="translate(1306.351562 0)"/>
     <use xlink:href="#DejaVuSans-75" transform="translate(1364.904297 0)"/>
     <use xlink:href="#DejaVuSans-72" transform="translate(1428.283203 0)"/>
     <use xlink:href="#DejaVuSans-70" transform="translate(1469.396484 0)"/>
     <use xlink:href="#DejaVuSans-6c" transform="translate(1532.873047 0)"/>
     <use xlink:href="#DejaVuSans-65" transform="translate(1560.65625 0)"/>
     <use xlink:href="#DejaVuSans-2c" transform="translate(1622.179688 0)"/>
     <use xlink:href="#DejaVuSans-20" transform="translate(1653.966797 0)"/>
     <use xlink:href="#DejaVuSans-52" transform="translate(1685.753906 0)"/>
     <use xlink:href="#DejaVuSans-65" transform="translate(1750.736328 0)"/>
     <use xlink:href="#DejaVuSans-63" transform="translate(1812.259766 0)"/>
     <use xlink:href="#DejaVuSans-69" transform="translate(1867.240234 0)"/>
     <use xlink:href="#DejaVuSans-70" transform="translate(1895.023438 0)"/>
     <use xlink:href="#DejaVuSans-65" transform="translate(1958.5 0)"/>
     <use xlink:href="#DejaVuSans-20" transform="translate(2020.023438 0)"/>
     <use xlink:href="#DejaVuSans-73" transform="translate(2051.810547 0)"/>
     <use xlink:href="#DejaVuSans-69" transform="translate(2103.910156 0)"/>
     <use xlink:href="#DejaVuSans-7a" transform="translate(2131.693359 0)"/>
     <use xlink:href="#DejaVuSans-65" transform="translate(2184.183594 0)"/>
     <use xlink:href="#DejaVuSans-3a" transform="translate(2245.707031 0)"/>
     <use xlink:href="#DejaVuSans-20" transform="translate(2279.398438 0)"/>
     <use xlink:href="#DejaVuSans-31" transform="translate(2311.185547 0)"/>
     <use xlink:href="#DejaVuSans-30" transform="translate(2374.808594 0)"/>
     <use xlink:href="#DejaVuSans-2c" transform="translate(2438.431641 0)"/>
     <use xlink:href="#DejaVuSans-20" transform="translate(2470.21875 0)"/>
     <use xlink:href="#DejaVuSans-54" transform="translate(2502.005859 0)"/>
     <use xlink:href="#DejaVuSans-30" transform="translate(2563.089844 0)"/>
     <use xlink:href="#DejaVuSans-3a" transform="translate(2626.712891 0)"/>
     <use xlink:href="#DejaVuSans-20" transform="translate(2660.404297 0)"/>
     <use xlink:href="#DejaVuSans-35" transform="translate(2692.191406 0)"/>
     <use xlink:href="#DejaVuSans-2e" transform="translate(2755.814453 0)"/>
     <use xlink:href="#DejaVuSans-30" transform="translate(2787.601562 0)"/>
    </g>
   </g>
  </g>
 </g>
 <defs>
  <clipPath id="pd6efb478d5">
   <rect x="50.87" y="43.44" width="793.996" height="346.6"/>
  </clipPath>
 </defs>
</svg>
