<?xml version="1.0" encoding="utf-8" standalone="no"?>
<!DOCTYPE svg PUBLIC "-//W3C//DTD SVG 1.1//EN"
  "http://www.w3.org/Graphics/SVG/1.1/DTD/svg11.dtd">
<svg xmlns:xlink="http://www.w3.org/1999/xlink" width="864pt" height="432pt" viewBox="0 0 864 432" xmlns="http://www.w3.org/2000/svg" version="1.1">
 <metadata>
  <rdf:RDF xmlns:dc="http://purl.org/dc/elements/1.1/" xmlns:cc="http://creativecommons.org/ns#" xmlns:rdf="http://www.w3.org/1999/02/22-rdf-syntax-ns#">
   <cc:Work>
    <dc:type rdf:resource="http://purl.org/dc/dcmitype/StillImage"/>
    <dc:date>2025-05-24T02:15:20.807328</dc:date>
    <dc:format>image/svg+xml</dc:format>
    <dc:creator>
     <cc:Agent>
      <dc:title>Matplotlib v3.10.3, https://matplotlib.org/</dc:title>
     </cc:Agent>
    </dc:creator>
   </cc:Work>
  </rdf:RDF>
 </metadata>
 <defs>
  <style type="text/css">*{stroke-linejoin: round; stroke-linecap: butt}</style>
 </defs>
 <g id="figure_1">
  <g id="patch_1">
   <path d="M 0 432 
L 864 432 
L 864 0 
L 0 0 
z
" style="fill: #ffffff"/>
  </g>
  <g id="axes_1">
   <g id="patch_2">
    <path d="M 50.87 390.04 
L 844.866 390.04 
L 844.866 43.44 
L 50.87 43.44 
z
" style="fill: #ffffff"/>
   </g>
   <g id="FillBetweenPolyCollection_1">
    <defs>
     <path id="ma1420faa68" d="M 52.193327 -327.914809 
L 52.193327 -59.173087 
L 54.83998 -57.714545 
L 57.486633 -61.469055 
L 60.133287 -64.710802 
L 62.77994 -68.809193 
L 65.426593 -71.055987 
L 68.073247 -75.859109 
L 70.7199 -78.361964 
L 73.366553 -81.945188 
L 76.013207 -83.914877 
L 78.65986 -85.612678 
L 81.306513 -87.95323 
L 83.953167 -89.355951 
L 86.59982 -92.675503 
L 89.246473 -93.626686 
L 91.893127 -94.944107 
L 94.53978 -95.18404 
L 97.186433 -96.896192 
L 99.833087 -97.595879 
L 102.47974 -100.084221 
L 105.126393 -101.095279 
L 107.773047 -101.604846 
L 110.4197 -102.964423 
L 113.066353 -104.7 
L 115.713007 -103.785931 
L 118.35966 -104.907189 
L 121.006313 -105.667636 
L 123.652967 -106.131584 
L 126.29962 -107.517549 
L 128.946273 -108.396167 
L 131.592927 -109.816166 
L 134.23958 -111.564315 
L 136.886233 -110.741286 
L 139.532887 -111.344054 
L 142.17954 -112.926913 
L 144.826193 -113.173005 
L 147.472847 -112.906242 
L 150.1195 -114.147996 
L 152.766153 -113.847339 
L 155.412807 -114.749904 
L 158.05946 -115.423692 
L 160.706113 -115.683983 
L 163.352767 -115.551809 
L 165.99942 -116.715294 
L 168.646073 -116.190215 
L 171.292727 -116.963884 
L 173.93938 -116.920926 
L 176.586033 -116.405492 
L 179.232687 -116.306678 
L 181.87934 -117.42803 
L 184.525993 -119.653432 
L 187.172647 -118.398396 
L 189.8193 -119.851349 
L 192.465953 -119.761645 
L 195.112607 -120.080813 
L 197.75926 -119.789707 
L 200.405913 -119.987496 
L 203.052567 -120.939747 
L 205.69922 -121.481605 
L 208.345873 -121.410156 
L 210.992527 -122.958285 
L 213.63918 -122.565611 
L 216.285833 -122.639047 
L 218.932487 -123.349936 
L 221.57914 -123.471012 
L 224.225793 -122.787627 
L 226.872447 -122.661822 
L 229.5191 -123.037321 
L 232.165753 -123.017336 
L 234.812407 -122.985695 
L 237.45906 -122.762959 
L 240.105713 -123.13861 
L 242.752367 -124.048008 
L 245.39902 -124.007711 
L 248.045673 -123.921029 
L 250.692327 -125.371564 
L 253.33898 -125.164642 
L 255.985633 -125.258982 
L 258.632287 -125.534111 
L 261.27894 -125.426804 
L 263.925593 -125.288612 
L 266.572247 -125.248199 
L 269.2189 -125.194446 
L 271.865553 -125.9152 
L 274.512207 -126.574927 
L 277.15886 -126.451608 
L 279.805513 -127.037713 
L 282.452167 -127.657655 
L 285.09882 -128.474945 
L 287.745473 -128.078553 
L 290.392127 -128.491468 
L 293.03878 -129.267275 
L 295.685433 -128.693033 
L 298.332087 -128.052908 
L 300.97874 -128.108543 
L 303.625393 -128.790034 
L 306.272047 -127.946031 
L 308.9187 -127.659015 
L 311.565353 -128.001817 
L 314.212007 -129.246848 
L 316.85866 -129.083917 
L 319.505313 -129.456303 
L 322.151967 -130.584708 
L 324.79862 -130.867425 
L 327.445273 -130.538775 
L 330.091927 -130.940791 
L 332.73858 -131.432336 
L 335.385233 -131.29713 
L 338.031887 -131.522574 
L 340.67854 -130.779534 
L 343.325193 -130.841757 
L 345.971847 -130.91969 
L 348.6185 -131.070303 
L 351.265153 -131.366639 
L 353.911807 -130.745024 
L 356.55846 -131.056011 
L 359.205113 -131.029228 
L 361.851767 -132.080339 
L 364.49842 -131.281176 
L 367.145073 -132.574417 
L 369.791727 -132.353749 
L 372.43838 -132.955947 
L 375.085033 -131.856429 
L 377.731687 -133.409717 
L 380.37834 -131.721897 
L 383.024993 -131.466567 
L 385.671647 -132.472118 
L 388.3183 -132.400239 
L 390.964953 -132.572546 
L 393.611607 -132.236112 
L 396.25826 -132.22986 
L 398.904913 -132.623696 
L 401.551567 -132.600085 
L 404.19822 -133.537068 
L 406.844873 -134.257159 
L 409.491527 -133.838841 
L 412.13818 -133.456765 
L 414.784833 -133.044431 
L 417.431487 -133.961533 
L 420.07814 -134.303475 
L 422.724793 -134.503298 
L 425.371447 -134.304347 
L 428.0181 -133.725585 
L 430.664753 -135.019941 
L 433.311407 -135.427278 
L 435.95806 -134.926798 
L 438.604713 -133.403094 
L 441.251367 -133.781475 
L 443.89802 -133.848334 
L 446.544673 -134.30667 
L 449.191327 -135.395046 
L 451.83798 -134.810044 
L 454.484633 -134.641106 
L 457.131287 -135.201881 
L 459.77794 -135.084778 
L 462.424593 -135.605547 
L 465.071247 -136.099625 
L 467.7179 -136.951552 
L 470.364553 -136.486663 
L 473.011207 -136.864858 
L 475.65786 -136.090689 
L 478.304513 -135.397079 
L 480.951167 -136.036507 
L 483.59782 -135.665341 
L 486.244473 -135.172123 
L 488.891127 -135.519724 
L 491.53778 -135.845445 
L 494.184433 -135.073287 
L 496.831087 -134.897098 
L 499.47774 -135.431624 
L 502.124393 -136.375684 
L 504.771047 -135.419691 
L 507.4177 -136.408277 
L 510.064353 -137.129983 
L 512.711007 -136.782731 
L 515.35766 -136.996357 
L 518.004313 -137.828067 
L 520.650967 -138.289575 
L 523.29762 -138.028331 
L 525.944273 -138.182117 
L 528.590927 -138.069209 
L 531.23758 -137.360412 
L 533.884233 -137.506633 
L 536.530887 -139.694469 
L 539.17754 -139.395833 
L 541.824193 -139.003043 
L 544.470847 -139.559797 
L 547.1175 -138.723115 
L 549.764153 -138.907681 
L 552.410807 -139.230102 
L 555.05746 -139.136762 
L 557.704113 -138.294571 
L 560.350767 -138.948954 
L 562.99742 -139.998299 
L 565.644073 -139.29982 
L 568.290727 -139.595702 
L 570.93738 -138.485296 
L 573.584033 -136.882508 
L 576.230687 -136.904214 
L 578.87734 -137.753097 
L 581.523993 -137.682694 
L 584.170647 -137.903745 
L 586.8173 -137.844485 
L 589.463953 -139.023668 
L 592.110607 -138.921926 
L 594.75726 -137.884108 
L 597.403913 -137.847901 
L 600.050567 -138.308387 
L 602.69722 -138.455608 
L 605.343873 -138.710054 
L 607.990527 -139.797326 
L 610.63718 -140.091139 
L 613.283833 -140.678395 
L 615.930487 -140.394167 
L 618.57714 -141.518459 
L 621.223793 -142.139365 
L 623.870447 -141.113503 
L 626.5171 -139.901519 
L 629.163753 -140.014961 
L 631.810407 -141.185313 
L 634.45706 -140.357473 
L 637.103713 -140.722887 
L 639.750367 -139.941525 
L 642.39702 -140.110242 
L 645.043673 -140.650915 
L 647.690327 -140.684216 
L 650.33698 -140.949341 
L 652.983633 -141.052071 
L 655.630287 -141.614019 
L 658.27694 -140.482976 
L 660.923593 -139.53356 
L 663.570247 -140.16023 
L 666.2169 -141.479556 
L 668.863553 -142.46741 
L 671.510207 -142.185809 
L 674.15686 -141.454609 
L 676.803513 -141.828377 
L 679.450167 -141.632064 
L 682.09682 -142.22786 
L 684.743473 -142.112907 
L 687.390127 -142.879245 
L 690.03678 -142.089831 
L 692.683433 -141.714982 
L 695.330087 -141.542593 
L 697.97674 -141.331395 
L 700.623393 -140.738678 
L 703.270047 -141.879039 
L 705.9167 -141.240227 
L 708.563353 -140.556865 
L 711.210007 -142.152728 
L 713.85666 -141.944946 
L 716.503313 -141.648146 
L 719.149967 -142.635569 
L 721.79662 -142.252412 
L 724.443273 -142.547574 
L 727.089927 -143.813683 
L 729.73658 -143.630488 
L 732.383233 -144.666761 
L 735.029887 -144.476548 
L 737.67654 -144.317091 
L 740.323193 -144.922241 
L 742.969847 -145.70602 
L 745.6165 -145.096257 
L 748.263153 -145.349448 
L 750.909807 -144.121661 
L 753.55646 -144.121673 
L 756.203113 -144.032167 
L 758.849767 -142.978894 
L 761.49642 -143.336732 
L 764.143073 -144.529917 
L 766.789727 -143.497118 
L 769.43638 -143.364294 
L 772.083033 -144.277445 
L 774.729687 -143.827836 
L 777.37634 -143.79867 
L 780.022993 -143.157744 
L 782.669647 -143.745511 
L 785.3163 -142.387793 
L 787.962953 -143.273638 
L 790.609607 -142.290072 
L 793.25626 -142.016708 
L 795.902913 -142.825074 
L 798.549567 -143.829788 
L 801.19622 -144.618121 
L 803.842873 -143.799089 
L 806.489527 -143.361075 
L 809.13618 -142.84162 
L 811.782833 -142.692726 
L 814.429487 -143.334978 
L 817.07614 -142.97757 
L 819.722793 -142.10102 
L 822.369447 -142.136565 
L 825.0161 -143.081159 
L 827.662753 -143.445213 
L 830.309407 -143.699509 
L 832.95606 -143.733008 
L 835.602713 -144.857973 
L 838.249367 -144.818467 
L 840.89602 -143.932842 
L 843.542673 -143.927869 
L 843.542673 -371.741818 
L 843.542673 -371.741818 
L 840.89602 -371.774445 
L 838.249367 -371.453488 
L 835.602713 -371.380703 
L 832.95606 -372.394445 
L 830.309407 -372.446803 
L 827.662753 -372.519891 
L 825.0161 -372.670504 
L 822.369447 -372.805455 
L 819.722793 -372.601251 
L 817.07614 -372.068887 
L 814.429487 -371.97593 
L 811.782833 -372.233955 
L 809.13618 -372.305462 
L 806.489527 -372.019248 
L 803.842873 -371.392532 
L 801.19622 -370.689684 
L 798.549567 -371.140246 
L 795.902913 -371.946183 
L 793.25626 -372.448709 
L 790.609607 -372.145251 
L 787.962953 -371.34847 
L 785.3163 -372.120664 
L 782.669647 -371.189676 
L 780.022993 -371.496388 
L 777.37634 -371.016474 
L 774.729687 -371.220933 
L 772.083033 -370.368703 
L 769.43638 -370.984567 
L 766.789727 -371.107061 
L 764.143073 -370.576927 
L 761.49642 -371.241174 
L 758.849767 -371.373824 
L 756.203113 -370.611182 
L 753.55646 -370.01714 
L 750.909807 -369.362049 
L 748.263153 -367.951171 
L 745.6165 -368.377565 
L 742.969847 -367.862839 
L 740.323193 -368.187282 
L 737.67654 -368.669775 
L 735.029887 -368.891803 
L 732.383233 -369.008952 
L 729.73658 -369.220685 
L 727.089927 -368.611677 
L 724.443273 -369.438785 
L 721.79662 -369.719353 
L 719.149967 -369.488401 
L 716.503313 -370.336819 
L 713.85666 -369.997294 
L 711.210007 -369.74473 
L 708.563353 -371.14257 
L 705.9167 -370.501097 
L 703.270047 -370.738812 
L 700.623393 -371.239176 
L 697.97674 -370.79203 
L 695.330087 -370.333519 
L 692.683433 -370.065338 
L 690.03678 -369.92897 
L 687.390127 -368.960986 
L 684.743473 -369.919559 
L 682.09682 -369.532462 
L 679.450167 -369.90694 
L 676.803513 -369.63016 
L 674.15686 -369.264235 
L 671.510207 -368.415724 
L 668.863553 -368.489857 
L 666.2169 -368.913601 
L 663.570247 -369.821791 
L 660.923593 -369.978888 
L 658.27694 -369.288404 
L 655.630287 -369.031517 
L 652.983633 -369.27711 
L 650.33698 -369.89783 
L 647.690327 -369.542223 
L 645.043673 -369.208833 
L 642.39702 -369.430512 
L 639.750367 -369.370276 
L 637.103713 -368.86201 
L 634.45706 -369.391261 
L 631.810407 -368.869819 
L 629.163753 -369.409783 
L 626.5171 -369.405716 
L 623.870447 -368.504126 
L 621.223793 -367.862955 
L 618.57714 -368.049148 
L 615.930487 -368.675632 
L 613.283833 -368.46943 
L 610.63718 -368.381492 
L 607.990527 -368.873537 
L 605.343873 -369.738548 
L 602.69722 -370.133406 
L 600.050567 -370.057576 
L 597.403913 -369.976123 
L 594.75726 -370.219066 
L 592.110607 -369.802944 
L 589.463953 -369.557724 
L 586.8173 -369.91842 
L 584.170647 -369.597439 
L 581.523993 -369.864272 
L 578.87734 -369.950258 
L 576.230687 -370.559591 
L 573.584033 -370.500842 
L 570.93738 -368.896823 
L 568.290727 -368.053099 
L 565.644073 -367.997231 
L 562.99742 -367.153693 
L 560.350767 -367.509719 
L 557.704113 -367.83135 
L 555.05746 -367.251949 
L 552.410807 -367.067057 
L 549.764153 -367.203054 
L 547.1175 -367.009006 
L 544.470847 -366.419961 
L 541.824193 -366.695973 
L 539.17754 -366.160076 
L 536.530887 -365.982528 
L 533.884233 -367.421131 
L 531.23758 -367.695726 
L 528.590927 -367.338817 
L 525.944273 -367.652082 
L 523.29762 -367.519688 
L 520.650967 -367.072681 
L 518.004313 -367.341327 
L 515.35766 -367.607184 
L 512.711007 -367.545507 
L 510.064353 -367.500795 
L 507.4177 -367.621662 
L 504.771047 -368.396017 
L 502.124393 -367.202356 
L 499.47774 -368.062603 
L 496.831087 -368.362599 
L 494.184433 -368.640866 
L 491.53778 -367.787149 
L 488.891127 -368.039155 
L 486.244473 -368.365481 
L 483.59782 -367.966091 
L 480.951167 -367.296103 
L 478.304513 -368.199413 
L 475.65786 -367.265962 
L 473.011207 -366.804593 
L 470.364553 -367.045491 
L 467.7179 -367.14872 
L 465.071247 -367.424756 
L 462.424593 -367.291897 
L 459.77794 -366.99139 
L 457.131287 -366.424423 
L 454.484633 -367.630423 
L 451.83798 -367.125063 
L 449.191327 -366.750795 
L 446.544673 -367.150068 
L 443.89802 -367.088554 
L 441.251367 -367.352807 
L 438.604713 -367.621128 
L 435.95806 -366.999664 
L 433.311407 -366.209483 
L 430.664753 -366.087709 
L 428.0181 -367.443835 
L 425.371447 -366.74194 
L 422.724793 -366.570109 
L 420.07814 -366.168628 
L 417.431487 -366.46465 
L 414.784833 -366.559419 
L 412.13818 -366.184152 
L 409.491527 -366.344224 
L 406.844873 -365.437452 
L 404.19822 -365.329111 
L 401.551567 -366.207112 
L 398.904913 -366.357099 
L 396.25826 -366.52226 
L 393.611607 -366.554772 
L 390.964953 -366.502321 
L 388.3183 -366.173741 
L 385.671647 -365.597686 
L 383.024993 -366.755187 
L 380.37834 -366.241158 
L 377.731687 -365.367967 
L 375.085033 -365.862428 
L 372.43838 -364.789402 
L 369.791727 -365.327089 
L 367.145073 -364.876619 
L 364.49842 -365.718809 
L 361.851767 -365.187769 
L 359.205113 -365.606355 
L 356.55846 -365.353767 
L 353.911807 -365.866286 
L 351.265153 -364.872901 
L 348.6185 -364.69275 
L 345.971847 -364.509114 
L 343.325193 -364.706229 
L 340.67854 -365.29804 
L 338.031887 -364.353364 
L 335.385233 -364.100266 
L 332.73858 -364.072146 
L 330.091927 -363.993528 
L 327.445273 -364.052788 
L 324.79862 -364.439907 
L 322.151967 -364.543252 
L 319.505313 -365.124605 
L 316.85866 -364.899138 
L 314.212007 -364.253389 
L 311.565353 -364.31172 
L 308.9187 -364.015559 
L 306.272047 -364.18639 
L 303.625393 -363.32361 
L 300.97874 -364.162198 
L 298.332087 -364.309628 
L 295.685433 -363.178039 
L 293.03878 -362.373404 
L 290.392127 -362.671958 
L 287.745473 -362.841698 
L 285.09882 -362.452952 
L 282.452167 -363.353101 
L 279.805513 -362.726385 
L 277.15886 -363.069094 
L 274.512207 -362.666195 
L 271.865553 -362.745604 
L 269.2189 -363.125542 
L 266.572247 -363.026264 
L 263.925593 -362.423206 
L 261.27894 -362.383025 
L 258.632287 -362.258253 
L 255.985633 -362.46987 
L 253.33898 -362.401918 
L 250.692327 -361.616107 
L 248.045673 -361.828653 
L 245.39902 -361.432005 
L 242.752367 -360.761553 
L 240.105713 -360.994922 
L 237.45906 -360.776566 
L 234.812407 -361.243814 
L 232.165753 -360.821185 
L 229.5191 -360.309038 
L 226.872447 -360.386658 
L 224.225793 -360.072788 
L 221.57914 -360.108205 
L 218.932487 -359.270802 
L 216.285833 -360.508664 
L 213.63918 -360.540594 
L 210.992527 -359.979994 
L 208.345873 -360.589025 
L 205.69922 -360.136278 
L 203.052567 -360.239832 
L 200.405913 -360.363186 
L 197.75926 -359.834795 
L 195.112607 -359.52648 
L 192.465953 -359.234409 
L 189.8193 -358.72547 
L 187.172647 -359.206662 
L 184.525993 -357.980815 
L 181.87934 -358.884333 
L 179.232687 -359.505565 
L 176.586033 -358.199054 
L 173.93938 -357.260189 
L 171.292727 -357.080085 
L 168.646073 -357.289842 
L 165.99942 -356.644791 
L 163.352767 -356.776673 
L 160.706113 -356.482906 
L 158.05946 -356.129739 
L 155.412807 -356.321393 
L 152.766153 -356.543096 
L 150.1195 -355.750289 
L 147.472847 -355.742364 
L 144.826193 -355.884983 
L 142.17954 -355.563352 
L 139.532887 -355.446296 
L 136.886233 -355.006168 
L 134.23958 -353.555784 
L 131.592927 -353.586645 
L 128.946273 -353.837606 
L 126.29962 -353.636029 
L 123.652967 -353.612952 
L 121.006313 -352.787448 
L 118.35966 -352.953585 
L 115.713007 -353.263875 
L 113.066353 -351.437712 
L 110.4197 -351.061027 
L 107.773047 -351.20855 
L 105.126393 -350.216002 
L 102.47974 -349.857862 
L 99.833087 -349.673226 
L 97.186433 -348.408268 
L 94.53978 -347.99928 
L 91.893127 -346.732021 
L 89.246473 -346.353663 
L 86.59982 -345.106087 
L 83.953167 -344.843274 
L 81.306513 -345.089192 
L 78.65986 -343.569229 
L 76.013207 -342.117311 
L 73.366553 -341.134291 
L 70.7199 -339.952203 
L 68.073247 -337.604249 
L 65.426593 -336.432085 
L 62.77994 -333.84063 
L 60.133287 -332.002522 
L 57.486633 -329.754381 
L 54.83998 -328.270346 
L 52.193327 -327.914809 
z
" style="stroke: #0000ff; stroke-opacity: 0.2"/>
    </defs>
    <g clip-path="url(#pa22793db79)">
     <use xlink:href="#ma1420faa68" x="0" y="432" style="fill: #0000ff; fill-opacity: 0.2; stroke: #0000ff; stroke-opacity: 0.2"/>
    </g>
   </g>
   <g id="matplotlib.axis_1">
    <g id="xtick_1">
     <g id="line2d_1">
      <defs>
       <path id="mcbb7d64d4e" d="M 0 0 
L 0 3.5 
" style="stroke: #000000; stroke-width: 0.8"/>
      </defs>
      <g>
       <use xlink:href="#mcbb7d64d4e" x="181.87934" y="390.04" style="stroke: #000000; stroke-width: 0.8"/>
      </g>
     </g>
     <g id="text_1">
      <!-- 50 -->
      <g transform="translate(175.51684 404.638438) scale(0.1 -0.1)">
       <defs>
        <path id="DejaVuSans-35" d="M 691 4666 
L 3169 4666 
L 3169 4134 
L 1269 4134 
L 1269 2991 
Q 1406 3038 1543 3061 
Q 1681 3084 1819 3084 
Q 2600 3084 3056 2656 
Q 3513 2228 3513 1497 
Q 3513 744 3044 326 
Q 2575 -91 1722 -91 
Q 1428 -91 1123 -41 
Q 819 9 494 109 
L 494 744 
Q 775 591 1075 516 
Q 1375 441 1709 441 
Q 2250 441 2565 725 
Q 2881 1009 2881 1497 
Q 2881 1984 2565 2268 
Q 2250 2553 1709 2553 
Q 1456 2553 1204 2497 
Q 953 2441 691 2322 
L 691 4666 
z
" transform="scale(0.015625)"/>
        <path id="DejaVuSans-30" d="M 2034 4250 
Q 1547 4250 1301 3770 
Q 1056 3291 1056 2328 
Q 1056 1369 1301 889 
Q 1547 409 2034 409 
Q 2525 409 2770 889 
Q 3016 1369 3016 2328 
Q 3016 3291 2770 3770 
Q 2525 4250 2034 4250 
z
M 2034 4750 
Q 2819 4750 3233 4129 
Q 3647 3509 3647 2328 
Q 3647 1150 3233 529 
Q 2819 -91 2034 -91 
Q 1250 -91 836 529 
Q 422 1150 422 2328 
Q 422 3509 836 4129 
Q 1250 4750 2034 4750 
z
" transform="scale(0.015625)"/>
       </defs>
       <use xlink:href="#DejaVuSans-35"/>
       <use xlink:href="#DejaVuSans-30" transform="translate(63.623047 0)"/>
      </g>
     </g>
    </g>
    <g id="xtick_2">
     <g id="line2d_2">
      <g>
       <use xlink:href="#mcbb7d64d4e" x="314.212007" y="390.04" style="stroke: #000000; stroke-width: 0.8"/>
      </g>
     </g>
     <g id="text_2">
      <!-- 100 -->
      <g transform="translate(304.668257 404.638438) scale(0.1 -0.1)">
       <defs>
        <path id="DejaVuSans-31" d="M 794 531 
L 1825 531 
L 1825 4091 
L 703 3866 
L 703 4441 
L 1819 4666 
L 2450 4666 
L 2450 531 
L 3481 531 
L 3481 0 
L 794 0 
L 794 531 
z
" transform="scale(0.015625)"/>
       </defs>
       <use xlink:href="#DejaVuSans-31"/>
       <use xlink:href="#DejaVuSans-30" transform="translate(63.623047 0)"/>
       <use xlink:href="#DejaVuSans-30" transform="translate(127.246094 0)"/>
      </g>
     </g>
    </g>
    <g id="xtick_3">
     <g id="line2d_3">
      <g>
       <use xlink:href="#mcbb7d64d4e" x="446.544673" y="390.04" style="stroke: #000000; stroke-width: 0.8"/>
      </g>
     </g>
     <g id="text_3">
      <!-- 150 -->
      <g transform="translate(437.000923 404.638438) scale(0.1 -0.1)">
       <use xlink:href="#DejaVuSans-31"/>
       <use xlink:href="#DejaVuSans-35" transform="translate(63.623047 0)"/>
       <use xlink:href="#DejaVuSans-30" transform="translate(127.246094 0)"/>
      </g>
     </g>
    </g>
    <g id="xtick_4">
     <g id="line2d_4">
      <g>
       <use xlink:href="#mcbb7d64d4e" x="578.87734" y="390.04" style="stroke: #000000; stroke-width: 0.8"/>
      </g>
     </g>
     <g id="text_4">
      <!-- 200 -->
      <g transform="translate(569.33359 404.638438) scale(0.1 -0.1)">
       <defs>
        <path id="DejaVuSans-32" d="M 1228 531 
L 3431 531 
L 3431 0 
L 469 0 
L 469 531 
Q 828 903 1448 1529 
Q 2069 2156 2228 2338 
Q 2531 2678 2651 2914 
Q 2772 3150 2772 3378 
Q 2772 3750 2511 3984 
Q 2250 4219 1831 4219 
Q 1534 4219 1204 4116 
Q 875 4013 500 3803 
L 500 4441 
Q 881 4594 1212 4672 
Q 1544 4750 1819 4750 
Q 2544 4750 2975 4387 
Q 3406 4025 3406 3419 
Q 3406 3131 3298 2873 
Q 3191 2616 2906 2266 
Q 2828 2175 2409 1742 
Q 1991 1309 1228 531 
z
" transform="scale(0.015625)"/>
       </defs>
       <use xlink:href="#DejaVuSans-32"/>
       <use xlink:href="#DejaVuSans-30" transform="translate(63.623047 0)"/>
       <use xlink:href="#DejaVuSans-30" transform="translate(127.246094 0)"/>
      </g>
     </g>
    </g>
    <g id="xtick_5">
     <g id="line2d_5">
      <g>
       <use xlink:href="#mcbb7d64d4e" x="711.210007" y="390.04" style="stroke: #000000; stroke-width: 0.8"/>
      </g>
     </g>
     <g id="text_5">
      <!-- 250 -->
      <g transform="translate(701.666257 404.638438) scale(0.1 -0.1)">
       <use xlink:href="#DejaVuSans-32"/>
       <use xlink:href="#DejaVuSans-35" transform="translate(63.623047 0)"/>
       <use xlink:href="#DejaVuSans-30" transform="translate(127.246094 0)"/>
      </g>
     </g>
    </g>
    <g id="xtick_6">
     <g id="line2d_6">
      <g>
       <use xlink:href="#mcbb7d64d4e" x="843.542673" y="390.04" style="stroke: #000000; stroke-width: 0.8"/>
      </g>
     </g>
     <g id="text_6">
      <!-- 300 -->
      <g transform="translate(833.998923 404.638438) scale(0.1 -0.1)">
       <defs>
        <path id="DejaVuSans-33" d="M 2597 2516 
Q 3050 2419 3304 2112 
Q 3559 1806 3559 1356 
Q 3559 666 3084 287 
Q 2609 -91 1734 -91 
Q 1441 -91 1130 -33 
Q 819 25 488 141 
L 488 750 
Q 750 597 1062 519 
Q 1375 441 1716 441 
Q 2309 441 2620 675 
Q 2931 909 2931 1356 
Q 2931 1769 2642 2001 
Q 2353 2234 1838 2234 
L 1294 2234 
L 1294 2753 
L 1863 2753 
Q 2328 2753 2575 2939 
Q 2822 3125 2822 3475 
Q 2822 3834 2567 4026 
Q 2313 4219 1838 4219 
Q 1578 4219 1281 4162 
Q 984 4106 628 3988 
L 628 4550 
Q 988 4650 1302 4700 
Q 1616 4750 1894 4750 
Q 2613 4750 3031 4423 
Q 3450 4097 3450 3541 
Q 3450 3153 3228 2886 
Q 3006 2619 2597 2516 
z
" transform="scale(0.015625)"/>
       </defs>
       <use xlink:href="#DejaVuSans-33"/>
       <use xlink:href="#DejaVuSans-30" transform="translate(63.623047 0)"/>
       <use xlink:href="#DejaVuSans-30" transform="translate(127.246094 0)"/>
      </g>
     </g>
    </g>
    <g id="text_7">
     <!-- Step -->
     <g transform="translate(436.482844 418.316562) scale(0.1 -0.1)">
      <defs>
       <path id="DejaVuSans-53" d="M 3425 4513 
L 3425 3897 
Q 3066 4069 2747 4153 
Q 2428 4238 2131 4238 
Q 1616 4238 1336 4038 
Q 1056 3838 1056 3469 
Q 1056 3159 1242 3001 
Q 1428 2844 1947 2747 
L 2328 2669 
Q 3034 2534 3370 2195 
Q 3706 1856 3706 1288 
Q 3706 609 3251 259 
Q 2797 -91 1919 -91 
Q 1588 -91 1214 -16 
Q 841 59 441 206 
L 441 856 
Q 825 641 1194 531 
Q 1563 422 1919 422 
Q 2459 422 2753 634 
Q 3047 847 3047 1241 
Q 3047 1584 2836 1778 
Q 2625 1972 2144 2069 
L 1759 2144 
Q 1053 2284 737 2584 
Q 422 2884 422 3419 
Q 422 4038 858 4394 
Q 1294 4750 2059 4750 
Q 2388 4750 2728 4690 
Q 3069 4631 3425 4513 
z
" transform="scale(0.015625)"/>
       <path id="DejaVuSans-74" d="M 1172 4494 
L 1172 3500 
L 2356 3500 
L 2356 3053 
L 1172 3053 
L 1172 1153 
Q 1172 725 1289 603 
Q 1406 481 1766 481 
L 2356 481 
L 2356 0 
L 1766 0 
Q 1100 0 847 248 
Q 594 497 594 1153 
L 594 3053 
L 172 3053 
L 172 3500 
L 594 3500 
L 594 4494 
L 1172 4494 
z
" transform="scale(0.015625)"/>
       <path id="DejaVuSans-65" d="M 3597 1894 
L 3597 1613 
L 953 1613 
Q 991 1019 1311 708 
Q 1631 397 2203 397 
Q 2534 397 2845 478 
Q 3156 559 3463 722 
L 3463 178 
Q 3153 47 2828 -22 
Q 2503 -91 2169 -91 
Q 1331 -91 842 396 
Q 353 884 353 1716 
Q 353 2575 817 3079 
Q 1281 3584 2069 3584 
Q 2775 3584 3186 3129 
Q 3597 2675 3597 1894 
z
M 3022 2063 
Q 3016 2534 2758 2815 
Q 2500 3097 2075 3097 
Q 1594 3097 1305 2825 
Q 1016 2553 972 2059 
L 3022 2063 
z
" transform="scale(0.015625)"/>
       <path id="DejaVuSans-70" d="M 1159 525 
L 1159 -1331 
L 581 -1331 
L 581 3500 
L 1159 3500 
L 1159 2969 
Q 1341 3281 1617 3432 
Q 1894 3584 2278 3584 
Q 2916 3584 3314 3078 
Q 3713 2572 3713 1747 
Q 3713 922 3314 415 
Q 2916 -91 2278 -91 
Q 1894 -91 1617 61 
Q 1341 213 1159 525 
z
M 3116 1747 
Q 3116 2381 2855 2742 
Q 2594 3103 2138 3103 
Q 1681 3103 1420 2742 
Q 1159 2381 1159 1747 
Q 1159 1113 1420 752 
Q 1681 391 2138 391 
Q 2594 391 2855 752 
Q 3116 1113 3116 1747 
z
" transform="scale(0.015625)"/>
      </defs>
      <use xlink:href="#DejaVuSans-53"/>
      <use xlink:href="#DejaVuSans-74" transform="translate(63.476562 0)"/>
      <use xlink:href="#DejaVuSans-65" transform="translate(102.685547 0)"/>
      <use xlink:href="#DejaVuSans-70" transform="translate(164.208984 0)"/>
     </g>
    </g>
   </g>
   <g id="matplotlib.axis_2">
    <g id="ytick_1">
     <g id="line2d_7">
      <defs>
       <path id="m00dc8fda9b" d="M 0 0 
L -3.5 0 
" style="stroke: #000000; stroke-width: 0.8"/>
      </defs>
      <g>
       <use xlink:href="#m00dc8fda9b" x="50.87" y="363.322155" style="stroke: #000000; stroke-width: 0.8"/>
      </g>
     </g>
     <g id="text_8">
      <!-- 20 -->
      <g transform="translate(31.145 367.121373) scale(0.1 -0.1)">
       <use xlink:href="#DejaVuSans-32"/>
       <use xlink:href="#DejaVuSans-30" transform="translate(63.623047 0)"/>
      </g>
     </g>
    </g>
    <g id="ytick_2">
     <g id="line2d_8">
      <g>
       <use xlink:href="#m00dc8fda9b" x="50.87" y="302.401868" style="stroke: #000000; stroke-width: 0.8"/>
      </g>
     </g>
     <g id="text_9">
      <!-- 40 -->
      <g transform="translate(31.145 306.201087) scale(0.1 -0.1)">
       <defs>
        <path id="DejaVuSans-34" d="M 2419 4116 
L 825 1625 
L 2419 1625 
L 2419 4116 
z
M 2253 4666 
L 3047 4666 
L 3047 1625 
L 3713 1625 
L 3713 1100 
L 3047 1100 
L 3047 0 
L 2419 0 
L 2419 1100 
L 313 1100 
L 313 1709 
L 2253 4666 
z
" transform="scale(0.015625)"/>
       </defs>
       <use xlink:href="#DejaVuSans-34"/>
       <use xlink:href="#DejaVuSans-30" transform="translate(63.623047 0)"/>
      </g>
     </g>
    </g>
    <g id="ytick_3">
     <g id="line2d_9">
      <g>
       <use xlink:href="#m00dc8fda9b" x="50.87" y="241.481581" style="stroke: #000000; stroke-width: 0.8"/>
      </g>
     </g>
     <g id="text_10">
      <!-- 60 -->
      <g transform="translate(31.145 245.2808) scale(0.1 -0.1)">
       <defs>
        <path id="DejaVuSans-36" d="M 2113 2584 
Q 1688 2584 1439 2293 
Q 1191 2003 1191 1497 
Q 1191 994 1439 701 
Q 1688 409 2113 409 
Q 2538 409 2786 701 
Q 3034 994 3034 1497 
Q 3034 2003 2786 2293 
Q 2538 2584 2113 2584 
z
M 3366 4563 
L 3366 3988 
Q 3128 4100 2886 4159 
Q 2644 4219 2406 4219 
Q 1781 4219 1451 3797 
Q 1122 3375 1075 2522 
Q 1259 2794 1537 2939 
Q 1816 3084 2150 3084 
Q 2853 3084 3261 2657 
Q 3669 2231 3669 1497 
Q 3669 778 3244 343 
Q 2819 -91 2113 -91 
Q 1303 -91 875 529 
Q 447 1150 447 2328 
Q 447 3434 972 4092 
Q 1497 4750 2381 4750 
Q 2619 4750 2861 4703 
Q 3103 4656 3366 4563 
z
" transform="scale(0.015625)"/>
       </defs>
       <use xlink:href="#DejaVuSans-36"/>
       <use xlink:href="#DejaVuSans-30" transform="translate(63.623047 0)"/>
      </g>
     </g>
    </g>
    <g id="ytick_4">
     <g id="line2d_10">
      <g>
       <use xlink:href="#m00dc8fda9b" x="50.87" y="180.561294" style="stroke: #000000; stroke-width: 0.8"/>
      </g>
     </g>
     <g id="text_11">
      <!-- 80 -->
      <g transform="translate(31.145 184.360513) scale(0.1 -0.1)">
       <defs>
        <path id="DejaVuSans-38" d="M 2034 2216 
Q 1584 2216 1326 1975 
Q 1069 1734 1069 1313 
Q 1069 891 1326 650 
Q 1584 409 2034 409 
Q 2484 409 2743 651 
Q 3003 894 3003 1313 
Q 3003 1734 2745 1975 
Q 2488 2216 2034 2216 
z
M 1403 2484 
Q 997 2584 770 2862 
Q 544 3141 544 3541 
Q 544 4100 942 4425 
Q 1341 4750 2034 4750 
Q 2731 4750 3128 4425 
Q 3525 4100 3525 3541 
Q 3525 3141 3298 2862 
Q 3072 2584 2669 2484 
Q 3125 2378 3379 2068 
Q 3634 1759 3634 1313 
Q 3634 634 3220 271 
Q 2806 -91 2034 -91 
Q 1263 -91 848 271 
Q 434 634 434 1313 
Q 434 1759 690 2068 
Q 947 2378 1403 2484 
z
M 1172 3481 
Q 1172 3119 1398 2916 
Q 1625 2713 2034 2713 
Q 2441 2713 2670 2916 
Q 2900 3119 2900 3481 
Q 2900 3844 2670 4047 
Q 2441 4250 2034 4250 
Q 1625 4250 1398 4047 
Q 1172 3844 1172 3481 
z
" transform="scale(0.015625)"/>
       </defs>
       <use xlink:href="#DejaVuSans-38"/>
       <use xlink:href="#DejaVuSans-30" transform="translate(63.623047 0)"/>
      </g>
     </g>
    </g>
    <g id="ytick_5">
     <g id="line2d_11">
      <g>
       <use xlink:href="#m00dc8fda9b" x="50.87" y="119.641007" style="stroke: #000000; stroke-width: 0.8"/>
      </g>
     </g>
     <g id="text_12">
      <!-- 100 -->
      <g transform="translate(24.7825 123.440226) scale(0.1 -0.1)">
       <use xlink:href="#DejaVuSans-31"/>
       <use xlink:href="#DejaVuSans-30" transform="translate(63.623047 0)"/>
       <use xlink:href="#DejaVuSans-30" transform="translate(127.246094 0)"/>
      </g>
     </g>
    </g>
    <g id="ytick_6">
     <g id="line2d_12">
      <g>
       <use xlink:href="#m00dc8fda9b" x="50.87" y="58.72072" style="stroke: #000000; stroke-width: 0.8"/>
      </g>
     </g>
     <g id="text_13">
      <!-- 120 -->
      <g transform="translate(24.7825 62.519939) scale(0.1 -0.1)">
       <use xlink:href="#DejaVuSans-31"/>
       <use xlink:href="#DejaVuSans-32" transform="translate(63.623047 0)"/>
       <use xlink:href="#DejaVuSans-30" transform="translate(127.246094 0)"/>
      </g>
     </g>
    </g>
    <g id="text_14">
     <!-- Profit -->
     <g transform="translate(18.702813 229.779063) rotate(-90) scale(0.1 -0.1)">
      <defs>
       <path id="DejaVuSans-50" d="M 1259 4147 
L 1259 2394 
L 2053 2394 
Q 2494 2394 2734 2622 
Q 2975 2850 2975 3272 
Q 2975 3691 2734 3919 
Q 2494 4147 2053 4147 
L 1259 4147 
z
M 628 4666 
L 2053 4666 
Q 2838 4666 3239 4311 
Q 3641 3956 3641 3272 
Q 3641 2581 3239 2228 
Q 2838 1875 2053 1875 
L 1259 1875 
L 1259 0 
L 628 0 
L 628 4666 
z
" transform="scale(0.015625)"/>
       <path id="DejaVuSans-72" d="M 2631 2963 
Q 2534 3019 2420 3045 
Q 2306 3072 2169 3072 
Q 1681 3072 1420 2755 
Q 1159 2438 1159 1844 
L 1159 0 
L 581 0 
L 581 3500 
L 1159 3500 
L 1159 2956 
Q 1341 3275 1631 3429 
Q 1922 3584 2338 3584 
Q 2397 3584 2469 3576 
Q 2541 3569 2628 3553 
L 2631 2963 
z
" transform="scale(0.015625)"/>
       <path id="DejaVuSans-6f" d="M 1959 3097 
Q 1497 3097 1228 2736 
Q 959 2375 959 1747 
Q 959 1119 1226 758 
Q 1494 397 1959 397 
Q 2419 397 2687 759 
Q 2956 1122 2956 1747 
Q 2956 2369 2687 2733 
Q 2419 3097 1959 3097 
z
M 1959 3584 
Q 2709 3584 3137 3096 
Q 3566 2609 3566 1747 
Q 3566 888 3137 398 
Q 2709 -91 1959 -91 
Q 1206 -91 779 398 
Q 353 888 353 1747 
Q 353 2609 779 3096 
Q 1206 3584 1959 3584 
z
" transform="scale(0.015625)"/>
       <path id="DejaVuSans-66" d="M 2375 4863 
L 2375 4384 
L 1825 4384 
Q 1516 4384 1395 4259 
Q 1275 4134 1275 3809 
L 1275 3500 
L 2222 3500 
L 2222 3053 
L 1275 3053 
L 1275 0 
L 697 0 
L 697 3053 
L 147 3053 
L 147 3500 
L 697 3500 
L 697 3744 
Q 697 4328 969 4595 
Q 1241 4863 1831 4863 
L 2375 4863 
z
" transform="scale(0.015625)"/>
       <path id="DejaVuSans-69" d="M 603 3500 
L 1178 3500 
L 1178 0 
L 603 0 
L 603 3500 
z
M 603 4863 
L 1178 4863 
L 1178 4134 
L 603 4134 
L 603 4863 
z
" transform="scale(0.015625)"/>
      </defs>
      <use xlink:href="#DejaVuSans-50"/>
      <use xlink:href="#DejaVuSans-72" transform="translate(58.552734 0)"/>
      <use xlink:href="#DejaVuSans-6f" transform="translate(97.416016 0)"/>
      <use xlink:href="#DejaVuSans-66" transform="translate(158.597656 0)"/>
      <use xlink:href="#DejaVuSans-69" transform="translate(193.802734 0)"/>
      <use xlink:href="#DejaVuSans-74" transform="translate(221.585938 0)"/>
     </g>
    </g>
   </g>
   <g id="line2d_13">
    <path d="M 52.193327 238.456052 
L 54.83998 239.007554 
L 60.133287 233.643332 
L 62.77994 230.675088 
L 65.426593 228.255964 
L 68.073247 225.268327 
L 73.366553 220.460266 
L 78.65986 217.409046 
L 81.306513 215.478795 
L 83.953167 214.900393 
L 86.59982 213.109205 
L 89.246473 212.009826 
L 94.53978 210.40834 
L 99.833087 208.365448 
L 102.47974 207.028959 
L 110.4197 204.987275 
L 113.066353 203.931144 
L 118.35966 203.069619 
L 121.006313 202.772458 
L 134.23958 199.439951 
L 136.886233 199.126267 
L 139.532887 198.604825 
L 142.17954 197.754873 
L 144.826193 197.471006 
L 147.472847 197.675697 
L 150.1195 197.050863 
L 158.05946 196.223291 
L 160.706113 195.916556 
L 163.352767 195.835753 
L 165.99942 195.319958 
L 168.646073 195.259977 
L 171.292727 194.978016 
L 173.93938 194.909437 
L 176.586033 194.697727 
L 179.232687 194.093878 
L 181.87934 193.843824 
L 184.525993 193.182877 
L 187.172647 193.197471 
L 189.8193 192.711585 
L 200.405913 191.824659 
L 203.052567 191.41021 
L 208.345873 191.00041 
L 210.992527 190.530861 
L 216.285833 190.426145 
L 218.932487 190.689631 
L 221.57914 190.210391 
L 224.225793 190.569786 
L 229.5191 190.32682 
L 234.812407 189.885251 
L 237.45906 190.230238 
L 248.045673 189.125165 
L 250.692327 188.506165 
L 253.33898 188.21672 
L 258.632287 188.103824 
L 263.925593 188.144097 
L 266.572247 187.862763 
L 269.2189 187.840012 
L 271.865553 187.669598 
L 274.512207 187.379433 
L 279.805513 187.117945 
L 282.452167 186.494622 
L 287.745473 186.539869 
L 290.392127 186.418281 
L 293.03878 186.179661 
L 295.685433 186.064464 
L 298.332087 185.818732 
L 306.272047 185.933789 
L 308.9187 186.162719 
L 311.565353 185.843226 
L 314.212007 185.249882 
L 324.79862 184.34634 
L 327.445273 184.704224 
L 330.091927 184.532835 
L 332.73858 184.247759 
L 335.385233 184.301302 
L 338.031887 184.062031 
L 340.67854 183.961219 
L 343.325193 184.226007 
L 345.971847 184.285592 
L 353.911807 183.694339 
L 356.55846 183.795105 
L 359.205113 183.682209 
L 361.851767 183.365946 
L 364.49842 183.500013 
L 369.791727 183.159581 
L 375.085033 183.140572 
L 377.731687 182.611158 
L 380.37834 183.018473 
L 383.024993 182.889123 
L 385.671647 182.965092 
L 390.964953 182.462567 
L 393.611607 182.604558 
L 396.25826 182.62394 
L 398.904913 182.509603 
L 401.551567 182.596401 
L 404.19822 182.566911 
L 406.844873 182.152694 
L 409.491527 181.908473 
L 412.13818 182.179536 
L 414.784833 182.198081 
L 417.431487 181.786909 
L 420.07814 181.763948 
L 422.724793 181.463302 
L 430.664753 181.446175 
L 433.311407 181.181619 
L 435.95806 181.036769 
L 438.604713 181.487889 
L 441.251367 181.432859 
L 443.89802 181.531556 
L 449.191327 180.92708 
L 451.83798 181.032447 
L 454.484633 180.864241 
L 457.131287 181.186848 
L 459.77794 180.961916 
L 465.071247 180.237804 
L 467.7179 179.94987 
L 470.364553 180.233923 
L 473.011207 180.165274 
L 475.65786 180.321674 
L 478.304513 180.20176 
L 480.951167 180.333689 
L 483.59782 180.184284 
L 488.891127 180.22056 
L 494.184433 180.142918 
L 496.831087 180.370151 
L 510.064353 179.684617 
L 512.711007 179.835881 
L 515.35766 179.698235 
L 518.004313 179.415297 
L 525.944273 179.082906 
L 531.23758 179.471931 
L 533.884233 179.536118 
L 536.530887 179.161501 
L 539.17754 179.22204 
L 544.470847 179.010121 
L 547.1175 179.13394 
L 552.410807 178.85142 
L 555.05746 178.805639 
L 557.704113 178.937034 
L 560.350767 178.770664 
L 562.99742 178.424004 
L 570.93738 178.308947 
L 576.230687 178.268092 
L 578.87734 178.148317 
L 584.170647 178.249408 
L 586.8173 178.118547 
L 589.463953 177.709304 
L 592.110607 177.637565 
L 594.75726 177.948413 
L 597.403913 178.087988 
L 600.050567 177.817018 
L 602.69722 177.705493 
L 605.343873 177.775699 
L 607.990527 177.664569 
L 610.63718 177.763684 
L 613.283833 177.426088 
L 615.930487 177.465106 
L 621.223793 176.998834 
L 626.5171 177.346377 
L 629.163753 177.287628 
L 631.810407 176.972434 
L 639.750367 177.3441 
L 645.043673 177.070132 
L 647.690327 176.886774 
L 650.33698 176.576414 
L 652.983633 176.835416 
L 655.630287 176.677226 
L 658.27694 177.11431 
L 660.923593 177.243776 
L 668.863553 176.521361 
L 671.510207 176.699234 
L 674.15686 176.640578 
L 676.803513 176.270725 
L 682.09682 176.119833 
L 684.743473 175.983767 
L 687.390127 176.079885 
L 690.03678 175.990599 
L 692.683433 176.10984 
L 700.623393 176.011073 
L 703.270047 175.691069 
L 705.9167 176.129338 
L 708.563353 176.150276 
L 713.85666 176.028874 
L 724.443273 176.00682 
L 729.73658 175.574408 
L 732.383233 175.162144 
L 737.67654 175.506572 
L 740.323193 175.445244 
L 742.969847 175.215571 
L 750.909807 175.258145 
L 756.203113 174.678326 
L 758.849767 174.823641 
L 761.49642 174.711047 
L 764.143073 174.446584 
L 766.789727 174.697916 
L 769.43638 174.82557 
L 774.729687 174.47561 
L 780.022993 174.672934 
L 782.669647 174.532407 
L 785.3163 174.745766 
L 787.962953 174.688946 
L 793.25626 174.767286 
L 801.19622 174.346097 
L 803.842873 174.404196 
L 806.489527 174.309844 
L 811.782833 174.536659 
L 814.429487 174.34454 
L 819.722793 174.648858 
L 822.369447 174.52899 
L 825.0161 174.124163 
L 830.309407 173.926838 
L 838.249367 173.864023 
L 840.89602 174.146356 
L 843.542673 174.165157 
L 843.542673 174.165157 
" clip-path="url(#pa22793db79)" style="fill: none; stroke: #0000ff; stroke-width: 1.5; stroke-linecap: square"/>
   </g>
   <g id="patch_3">
    <path d="M 50.87 390.04 
L 50.87 43.44 
" style="fill: none; stroke: #000000; stroke-width: 0.8; stroke-linejoin: miter; stroke-linecap: square"/>
   </g>
   <g id="patch_4">
    <path d="M 844.866 390.04 
L 844.866 43.44 
" style="fill: none; stroke: #000000; stroke-width: 0.8; stroke-linejoin: miter; stroke-linecap: square"/>
   </g>
   <g id="patch_5">
    <path d="M 50.87 390.04 
L 844.866 390.04 
" style="fill: none; stroke: #000000; stroke-width: 0.8; stroke-linejoin: miter; stroke-linecap: square"/>
   </g>
   <g id="patch_6">
    <path d="M 50.87 43.44 
L 844.866 43.44 
" style="fill: none; stroke: #000000; stroke-width: 0.8; stroke-linejoin: miter; stroke-linecap: square"/>
   </g>
   <g id="text_15">
    <!-- Mean profit per step with confidence interval per simulation step -->
    <g transform="translate(220.284875 21.763062) scale(0.14 -0.14)">
     <defs>
      <path id="DejaVuSans-4d" d="M 628 4666 
L 1569 4666 
L 2759 1491 
L 3956 4666 
L 4897 4666 
L 4897 0 
L 4281 0 
L 4281 4097 
L 3078 897 
L 2444 897 
L 1241 4097 
L 1241 0 
L 628 0 
L 628 4666 
z
" transform="scale(0.015625)"/>
      <path id="DejaVuSans-61" d="M 2194 1759 
Q 1497 1759 1228 1600 
Q 959 1441 959 1056 
Q 959 750 1161 570 
Q 1363 391 1709 391 
Q 2188 391 2477 730 
Q 2766 1069 2766 1631 
L 2766 1759 
L 2194 1759 
z
M 3341 1997 
L 3341 0 
L 2766 0 
L 2766 531 
Q 2569 213 2275 61 
Q 1981 -91 1556 -91 
Q 1019 -91 701 211 
Q 384 513 384 1019 
Q 384 1609 779 1909 
Q 1175 2209 1959 2209 
L 2766 2209 
L 2766 2266 
Q 2766 2663 2505 2880 
Q 2244 3097 1772 3097 
Q 1472 3097 1187 3025 
Q 903 2953 641 2809 
L 641 3341 
Q 956 3463 1253 3523 
Q 1550 3584 1831 3584 
Q 2591 3584 2966 3190 
Q 3341 2797 3341 1997 
z
" transform="scale(0.015625)"/>
      <path id="DejaVuSans-6e" d="M 3513 2113 
L 3513 0 
L 2938 0 
L 2938 2094 
Q 2938 2591 2744 2837 
Q 2550 3084 2163 3084 
Q 1697 3084 1428 2787 
Q 1159 2491 1159 1978 
L 1159 0 
L 581 0 
L 581 3500 
L 1159 3500 
L 1159 2956 
Q 1366 3272 1645 3428 
Q 1925 3584 2291 3584 
Q 2894 3584 3203 3211 
Q 3513 2838 3513 2113 
z
" transform="scale(0.015625)"/>
      <path id="DejaVuSans-20" transform="scale(0.015625)"/>
      <path id="DejaVuSans-73" d="M 2834 3397 
L 2834 2853 
Q 2591 2978 2328 3040 
Q 2066 3103 1784 3103 
Q 1356 3103 1142 2972 
Q 928 2841 928 2578 
Q 928 2378 1081 2264 
Q 1234 2150 1697 2047 
L 1894 2003 
Q 2506 1872 2764 1633 
Q 3022 1394 3022 966 
Q 3022 478 2636 193 
Q 2250 -91 1575 -91 
Q 1294 -91 989 -36 
Q 684 19 347 128 
L 347 722 
Q 666 556 975 473 
Q 1284 391 1588 391 
Q 1994 391 2212 530 
Q 2431 669 2431 922 
Q 2431 1156 2273 1281 
Q 2116 1406 1581 1522 
L 1381 1569 
Q 847 1681 609 1914 
Q 372 2147 372 2553 
Q 372 3047 722 3315 
Q 1072 3584 1716 3584 
Q 2034 3584 2315 3537 
Q 2597 3491 2834 3397 
z
" transform="scale(0.015625)"/>
      <path id="DejaVuSans-77" d="M 269 3500 
L 844 3500 
L 1563 769 
L 2278 3500 
L 2956 3500 
L 3675 769 
L 4391 3500 
L 4966 3500 
L 4050 0 
L 3372 0 
L 2619 2869 
L 1863 0 
L 1184 0 
L 269 3500 
z
" transform="scale(0.015625)"/>
      <path id="DejaVuSans-68" d="M 3513 2113 
L 3513 0 
L 2938 0 
L 2938 2094 
Q 2938 2591 2744 2837 
Q 2550 3084 2163 3084 
Q 1697 3084 1428 2787 
Q 1159 2491 1159 1978 
L 1159 0 
L 581 0 
L 581 4863 
L 1159 4863 
L 1159 2956 
Q 1366 3272 1645 3428 
Q 1925 3584 2291 3584 
Q 2894 3584 3203 3211 
Q 3513 2838 3513 2113 
z
" transform="scale(0.015625)"/>
      <path id="DejaVuSans-63" d="M 3122 3366 
L 3122 2828 
Q 2878 2963 2633 3030 
Q 2388 3097 2138 3097 
Q 1578 3097 1268 2742 
Q 959 2388 959 1747 
Q 959 1106 1268 751 
Q 1578 397 2138 397 
Q 2388 397 2633 464 
Q 2878 531 3122 666 
L 3122 134 
Q 2881 22 2623 -34 
Q 2366 -91 2075 -91 
Q 1284 -91 818 406 
Q 353 903 353 1747 
Q 353 2603 823 3093 
Q 1294 3584 2113 3584 
Q 2378 3584 2631 3529 
Q 2884 3475 3122 3366 
z
" transform="scale(0.015625)"/>
      <path id="DejaVuSans-64" d="M 2906 2969 
L 2906 4863 
L 3481 4863 
L 3481 0 
L 2906 0 
L 2906 525 
Q 2725 213 2448 61 
Q 2172 -91 1784 -91 
Q 1150 -91 751 415 
Q 353 922 353 1747 
Q 353 2572 751 3078 
Q 1150 3584 1784 3584 
Q 2172 3584 2448 3432 
Q 2725 3281 2906 2969 
z
M 947 1747 
Q 947 1113 1208 752 
Q 1469 391 1925 391 
Q 2381 391 2643 752 
Q 2906 1113 2906 1747 
Q 2906 2381 2643 2742 
Q 2381 3103 1925 3103 
Q 1469 3103 1208 2742 
Q 947 2381 947 1747 
z
" transform="scale(0.015625)"/>
      <path id="DejaVuSans-76" d="M 191 3500 
L 800 3500 
L 1894 563 
L 2988 3500 
L 3597 3500 
L 2284 0 
L 1503 0 
L 191 3500 
z
" transform="scale(0.015625)"/>
      <path id="DejaVuSans-6c" d="M 603 4863 
L 1178 4863 
L 1178 0 
L 603 0 
L 603 4863 
z
" transform="scale(0.015625)"/>
      <path id="DejaVuSans-6d" d="M 3328 2828 
Q 3544 3216 3844 3400 
Q 4144 3584 4550 3584 
Q 5097 3584 5394 3201 
Q 5691 2819 5691 2113 
L 5691 0 
L 5113 0 
L 5113 2094 
Q 5113 2597 4934 2840 
Q 4756 3084 4391 3084 
Q 3944 3084 3684 2787 
Q 3425 2491 3425 1978 
L 3425 0 
L 2847 0 
L 2847 2094 
Q 2847 2600 2669 2842 
Q 2491 3084 2119 3084 
Q 1678 3084 1418 2786 
Q 1159 2488 1159 1978 
L 1159 0 
L 581 0 
L 581 3500 
L 1159 3500 
L 1159 2956 
Q 1356 3278 1631 3431 
Q 1906 3584 2284 3584 
Q 2666 3584 2933 3390 
Q 3200 3197 3328 2828 
z
" transform="scale(0.015625)"/>
      <path id="DejaVuSans-75" d="M 544 1381 
L 544 3500 
L 1119 3500 
L 1119 1403 
Q 1119 906 1312 657 
Q 1506 409 1894 409 
Q 2359 409 2629 706 
Q 2900 1003 2900 1516 
L 2900 3500 
L 3475 3500 
L 3475 0 
L 2900 0 
L 2900 538 
Q 2691 219 2414 64 
Q 2138 -91 1772 -91 
Q 1169 -91 856 284 
Q 544 659 544 1381 
z
M 1991 3584 
L 1991 3584 
z
" transform="scale(0.015625)"/>
     </defs>
     <use xlink:href="#DejaVuSans-4d"/>
     <use xlink:href="#DejaVuSans-65" transform="translate(86.279297 0)"/>
     <use xlink:href="#DejaVuSans-61" transform="translate(147.802734 0)"/>
     <use xlink:href="#DejaVuSans-6e" transform="translate(209.082031 0)"/>
     <use xlink:href="#DejaVuSans-20" transform="translate(272.460938 0)"/>
     <use xlink:href="#DejaVuSans-70" transform="translate(304.248047 0)"/>
     <use xlink:href="#DejaVuSans-72" transform="translate(367.724609 0)"/>
     <use xlink:href="#DejaVuSans-6f" transform="translate(406.587891 0)"/>
     <use xlink:href="#DejaVuSans-66" transform="translate(467.769531 0)"/>
     <use xlink:href="#DejaVuSans-69" transform="translate(502.974609 0)"/>
     <use xlink:href="#DejaVuSans-74" transform="translate(530.757812 0)"/>
     <use xlink:href="#DejaVuSans-20" transform="translate(569.966797 0)"/>
     <use xlink:href="#DejaVuSans-70" transform="translate(601.753906 0)"/>
     <use xlink:href="#DejaVuSans-65" transform="translate(665.230469 0)"/>
     <use xlink:href="#DejaVuSans-72" transform="translate(726.753906 0)"/>
     <use xlink:href="#DejaVuSans-20" transform="translate(767.867188 0)"/>
     <use xlink:href="#DejaVuSans-73" transform="translate(799.654297 0)"/>
     <use xlink:href="#DejaVuSans-74" transform="translate(851.753906 0)"/>
     <use xlink:href="#DejaVuSans-65" transform="translate(890.962891 0)"/>
     <use xlink:href="#DejaVuSans-70" transform="translate(952.486328 0)"/>
     <use xlink:href="#DejaVuSans-20" transform="translate(1015.962891 0)"/>
     <use xlink:href="#DejaVuSans-77" transform="translate(1047.75 0)"/>
     <use xlink:href="#DejaVuSans-69" transform="translate(1129.537109 0)"/>
     <use xlink:href="#DejaVuSans-74" transform="translate(1157.320312 0)"/>
     <use xlink:href="#DejaVuSans-68" transform="translate(1196.529297 0)"/>
     <use xlink:href="#DejaVuSans-20" transform="translate(1259.908203 0)"/>
     <use xlink:href="#DejaVuSans-63" transform="translate(1291.695312 0)"/>
     <use xlink:href="#DejaVuSans-6f" transform="translate(1346.675781 0)"/>
     <use xlink:href="#DejaVuSans-6e" transform="translate(1407.857422 0)"/>
     <use xlink:href="#DejaVuSans-66" transform="translate(1471.236328 0)"/>
     <use xlink:href="#DejaVuSans-69" transform="translate(1506.441406 0)"/>
     <use xlink:href="#DejaVuSans-64" transform="translate(1534.224609 0)"/>
     <use xlink:href="#DejaVuSans-65" transform="translate(1597.701172 0)"/>
     <use xlink:href="#DejaVuSans-6e" transform="translate(1659.224609 0)"/>
     <use xlink:href="#DejaVuSans-63" transform="translate(1722.603516 0)"/>
     <use xlink:href="#DejaVuSans-65" transform="translate(1777.583984 0)"/>
     <use xlink:href="#DejaVuSans-20" transform="translate(1839.107422 0)"/>
     <use xlink:href="#DejaVuSans-69" transform="translate(1870.894531 0)"/>
     <use xlink:href="#DejaVuSans-6e" transform="translate(1898.677734 0)"/>
     <use xlink:href="#DejaVuSans-74" transform="translate(1962.056641 0)"/>
     <use xlink:href="#DejaVuSans-65" transform="translate(2001.265625 0)"/>
     <use xlink:href="#DejaVuSans-72" transform="translate(2062.789062 0)"/>
     <use xlink:href="#DejaVuSans-76" transform="translate(2103.902344 0)"/>
     <use xlink:href="#DejaVuSans-61" transform="translate(2163.082031 0)"/>
     <use xlink:href="#DejaVuSans-6c" transform="translate(2224.361328 0)"/>
     <use xlink:href="#DejaVuSans-20" transform="translate(2252.144531 0)"/>
     <use xlink:href="#DejaVuSans-70" transform="translate(2283.931641 0)"/>
     <use xlink:href="#DejaVuSans-65" transform="translate(2347.408203 0)"/>
     <use xlink:href="#DejaVuSans-72" transform="translate(2408.931641 0)"/>
     <use xlink:href="#DejaVuSans-20" transform="translate(2450.044922 0)"/>
     <use xlink:href="#DejaVuSans-73" transform="translate(2481.832031 0)"/>
     <use xlink:href="#DejaVuSans-69" transform="translate(2533.931641 0)"/>
     <use xlink:href="#DejaVuSans-6d" transform="translate(2561.714844 0)"/>
     <use xlink:href="#DejaVuSans-75" transform="translate(2659.126953 0)"/>
     <use xlink:href="#DejaVuSans-6c" transform="translate(2722.505859 0)"/>
     <use xlink:href="#DejaVuSans-61" transform="translate(2750.289062 0)"/>
     <use xlink:href="#DejaVuSans-74" transform="translate(2811.568359 0)"/>
     <use xlink:href="#DejaVuSans-69" transform="translate(2850.777344 0)"/>
     <use xlink:href="#DejaVuSans-6f" transform="translate(2878.560547 0)"/>
     <use xlink:href="#DejaVuSans-6e" transform="translate(2939.742188 0)"/>
     <use xlink:href="#DejaVuSans-20" transform="translate(3003.121094 0)"/>
     <use xlink:href="#DejaVuSans-73" transform="translate(3034.908203 0)"/>
     <use xlink:href="#DejaVuSans-74" transform="translate(3087.007812 0)"/>
     <use xlink:href="#DejaVuSans-65" transform="translate(3126.216797 0)"/>
     <use xlink:href="#DejaVuSans-70" transform="translate(3187.740234 0)"/>
    </g>
    <!-- Base Product: Grandaddy Purple, Recipe size: 9, T0: 50.0 -->
    <g transform="translate(248.283781 37.44) scale(0.14 -0.14)">
     <defs>
      <path id="DejaVuSans-42" d="M 1259 2228 
L 1259 519 
L 2272 519 
Q 2781 519 3026 730 
Q 3272 941 3272 1375 
Q 3272 1813 3026 2020 
Q 2781 2228 2272 2228 
L 1259 2228 
z
M 1259 4147 
L 1259 2741 
L 2194 2741 
Q 2656 2741 2882 2914 
Q 3109 3088 3109 3444 
Q 3109 3797 2882 3972 
Q 2656 4147 2194 4147 
L 1259 4147 
z
M 628 4666 
L 2241 4666 
Q 2963 4666 3353 4366 
Q 3744 4066 3744 3513 
Q 3744 3084 3544 2831 
Q 3344 2578 2956 2516 
Q 3422 2416 3680 2098 
Q 3938 1781 3938 1306 
Q 3938 681 3513 340 
Q 3088 0 2303 0 
L 628 0 
L 628 4666 
z
" transform="scale(0.015625)"/>
      <path id="DejaVuSans-3a" d="M 750 794 
L 1409 794 
L 1409 0 
L 750 0 
L 750 794 
z
M 750 3309 
L 1409 3309 
L 1409 2516 
L 750 2516 
L 750 3309 
z
" transform="scale(0.015625)"/>
      <path id="DejaVuSans-47" d="M 3809 666 
L 3809 1919 
L 2778 1919 
L 2778 2438 
L 4434 2438 
L 4434 434 
Q 4069 175 3628 42 
Q 3188 -91 2688 -91 
Q 1594 -91 976 548 
Q 359 1188 359 2328 
Q 359 3472 976 4111 
Q 1594 4750 2688 4750 
Q 3144 4750 3555 4637 
Q 3966 4525 4313 4306 
L 4313 3634 
Q 3963 3931 3569 4081 
Q 3175 4231 2741 4231 
Q 1884 4231 1454 3753 
Q 1025 3275 1025 2328 
Q 1025 1384 1454 906 
Q 1884 428 2741 428 
Q 3075 428 3337 486 
Q 3600 544 3809 666 
z
" transform="scale(0.015625)"/>
      <path id="DejaVuSans-79" d="M 2059 -325 
Q 1816 -950 1584 -1140 
Q 1353 -1331 966 -1331 
L 506 -1331 
L 506 -850 
L 844 -850 
Q 1081 -850 1212 -737 
Q 1344 -625 1503 -206 
L 1606 56 
L 191 3500 
L 800 3500 
L 1894 763 
L 2988 3500 
L 3597 3500 
L 2059 -325 
z
" transform="scale(0.015625)"/>
      <path id="DejaVuSans-2c" d="M 750 794 
L 1409 794 
L 1409 256 
L 897 -744 
L 494 -744 
L 750 256 
L 750 794 
z
" transform="scale(0.015625)"/>
      <path id="DejaVuSans-52" d="M 2841 2188 
Q 3044 2119 3236 1894 
Q 3428 1669 3622 1275 
L 4263 0 
L 3584 0 
L 2988 1197 
Q 2756 1666 2539 1819 
Q 2322 1972 1947 1972 
L 1259 1972 
L 1259 0 
L 628 0 
L 628 4666 
L 2053 4666 
Q 2853 4666 3247 4331 
Q 3641 3997 3641 3322 
Q 3641 2881 3436 2590 
Q 3231 2300 2841 2188 
z
M 1259 4147 
L 1259 2491 
L 2053 2491 
Q 2509 2491 2742 2702 
Q 2975 2913 2975 3322 
Q 2975 3731 2742 3939 
Q 2509 4147 2053 4147 
L 1259 4147 
z
" transform="scale(0.015625)"/>
      <path id="DejaVuSans-7a" d="M 353 3500 
L 3084 3500 
L 3084 2975 
L 922 459 
L 3084 459 
L 3084 0 
L 275 0 
L 275 525 
L 2438 3041 
L 353 3041 
L 353 3500 
z
" transform="scale(0.015625)"/>
      <path id="DejaVuSans-39" d="M 703 97 
L 703 672 
Q 941 559 1184 500 
Q 1428 441 1663 441 
Q 2288 441 2617 861 
Q 2947 1281 2994 2138 
Q 2813 1869 2534 1725 
Q 2256 1581 1919 1581 
Q 1219 1581 811 2004 
Q 403 2428 403 3163 
Q 403 3881 828 4315 
Q 1253 4750 1959 4750 
Q 2769 4750 3195 4129 
Q 3622 3509 3622 2328 
Q 3622 1225 3098 567 
Q 2575 -91 1691 -91 
Q 1453 -91 1209 -44 
Q 966 3 703 97 
z
M 1959 2075 
Q 2384 2075 2632 2365 
Q 2881 2656 2881 3163 
Q 2881 3666 2632 3958 
Q 2384 4250 1959 4250 
Q 1534 4250 1286 3958 
Q 1038 3666 1038 3163 
Q 1038 2656 1286 2365 
Q 1534 2075 1959 2075 
z
" transform="scale(0.015625)"/>
      <path id="DejaVuSans-54" d="M -19 4666 
L 3928 4666 
L 3928 4134 
L 2272 4134 
L 2272 0 
L 1638 0 
L 1638 4134 
L -19 4134 
L -19 4666 
z
" transform="scale(0.015625)"/>
      <path id="DejaVuSans-2e" d="M 684 794 
L 1344 794 
L 1344 0 
L 684 0 
L 684 794 
z
" transform="scale(0.015625)"/>
     </defs>
     <use xlink:href="#DejaVuSans-42"/>
     <use xlink:href="#DejaVuSans-61" transform="translate(68.603516 0)"/>
     <use xlink:href="#DejaVuSans-73" transform="translate(129.882812 0)"/>
     <use xlink:href="#DejaVuSans-65" transform="translate(181.982422 0)"/>
     <use xlink:href="#DejaVuSans-20" transform="translate(243.505859 0)"/>
     <use xlink:href="#DejaVuSans-50" transform="translate(275.292969 0)"/>
     <use xlink:href="#DejaVuSans-72" transform="translate(333.845703 0)"/>
     <use xlink:href="#DejaVuSans-6f" transform="translate(372.708984 0)"/>
     <use xlink:href="#DejaVuSans-64" transform="translate(433.890625 0)"/>
     <use xlink:href="#DejaVuSans-75" transform="translate(497.367188 0)"/>
     <use xlink:href="#DejaVuSans-63" transform="translate(560.746094 0)"/>
     <use xlink:href="#DejaVuSans-74" transform="translate(615.726562 0)"/>
     <use xlink:href="#DejaVuSans-3a" transform="translate(654.935547 0)"/>
     <use xlink:href="#DejaVuSans-20" transform="translate(688.626953 0)"/>
     <use xlink:href="#DejaVuSans-47" transform="translate(720.414062 0)"/>
     <use xlink:href="#DejaVuSans-72" transform="translate(797.904297 0)"/>
     <use xlink:href="#DejaVuSans-61" transform="translate(839.017578 0)"/>
     <use xlink:href="#DejaVuSans-6e" transform="translate(900.296875 0)"/>
     <use xlink:href="#DejaVuSans-64" transform="translate(963.675781 0)"/>
     <use xlink:href="#DejaVuSans-61" transform="translate(1027.152344 0)"/>
     <use xlink:href="#DejaVuSans-64" transform="translate(1088.431641 0)"/>
     <use xlink:href="#DejaVuSans-64" transform="translate(1151.908203 0)"/>
     <use xlink:href="#DejaVuSans-79" transform="translate(1215.384766 0)"/>
     <use xlink:href="#DejaVuSans-20" transform="translate(1274.564453 0)"/>
     <use xlink:href="#DejaVuSans-50" transform="translate(1306.351562 0)"/>
     <use xlink:href="#DejaVuSans-75" transform="translate(1364.904297 0)"/>
     <use xlink:href="#DejaVuSans-72" transform="translate(1428.283203 0)"/>
     <use xlink:href="#DejaVuSans-70" transform="translate(1469.396484 0)"/>
     <use xlink:href="#DejaVuSans-6c" transform="translate(1532.873047 0)"/>
     <use xlink:href="#DejaVuSans-65" transform="translate(1560.65625 0)"/>
     <use xlink:href="#DejaVuSans-2c" transform="translate(1622.179688 0)"/>
     <use xlink:href="#DejaVuSans-20" transform="translate(1653.966797 0)"/>
     <use xlink:href="#DejaVuSans-52" transform="translate(1685.753906 0)"/>
     <use xlink:href="#DejaVuSans-65" transform="translate(1750.736328 0)"/>
     <use xlink:href="#DejaVuSans-63" transform="translate(1812.259766 0)"/>
     <use xlink:href="#DejaVuSans-69" transform="translate(1867.240234 0)"/>
     <use xlink:href="#DejaVuSans-70" transform="translate(1895.023438 0)"/>
     <use xlink:href="#DejaVuSans-65" transform="translate(1958.5 0)"/>
     <use xlink:href="#DejaVuSans-20" transform="translate(2020.023438 0)"/>
     <use xlink:href="#DejaVuSans-73" transform="translate(2051.810547 0)"/>
     <use xlink:href="#DejaVuSans-69" transform="translate(2103.910156 0)"/>
     <use xlink:href="#DejaVuSans-7a" transform="translate(2131.693359 0)"/>
     <use xlink:href="#DejaVuSans-65" transform="translate(2184.183594 0)"/>
     <use xlink:href="#DejaVuSans-3a" transform="translate(2245.707031 0)"/>
     <use xlink:href="#DejaVuSans-20" transform="translate(2279.398438 0)"/>
     <use xlink:href="#DejaVuSans-39" transform="translate(2311.185547 0)"/>
     <use xlink:href="#DejaVuSans-2c" transform="translate(2374.808594 0)"/>
     <use xlink:href="#DejaVuSans-20" transform="translate(2406.595703 0)"/>
     <use xlink:href="#DejaVuSans-54" transform="translate(2438.382812 0)"/>
     <use xlink:href="#DejaVuSans-30" transform="translate(2499.466797 0)"/>
     <use xlink:href="#DejaVuSans-3a" transform="translate(2563.089844 0)"/>
     <use xlink:href="#DejaVuSans-20" transform="translate(2596.78125 0)"/>
     <use xlink:href="#DejaVuSans-35" transform="translate(2628.568359 0)"/>
     <use xlink:href="#DejaVuSans-30" transform="translate(2692.191406 0)"/>
     <use xlink:href="#DejaVuSans-2e" transform="translate(2755.814453 0)"/>
     <use xlink:href="#DejaVuSans-30" transform="translate(2787.601562 0)"/>
    </g>
   </g>
  </g>
 </g>
 <defs>
  <clipPath id="pa22793db79">
   <rect x="50.87" y="43.44" width="793.996" height="346.6"/>
  </clipPath>
 </defs>
</svg>
