<?xml version="1.0" encoding="utf-8" standalone="no"?>
<!DOCTYPE svg PUBLIC "-//W3C//DTD SVG 1.1//EN"
  "http://www.w3.org/Graphics/SVG/1.1/DTD/svg11.dtd">
<svg xmlns:xlink="http://www.w3.org/1999/xlink" width="864pt" height="432pt" viewBox="0 0 864 432" xmlns="http://www.w3.org/2000/svg" version="1.1">
 <metadata>
  <rdf:RDF xmlns:dc="http://purl.org/dc/elements/1.1/" xmlns:cc="http://creativecommons.org/ns#" xmlns:rdf="http://www.w3.org/1999/02/22-rdf-syntax-ns#">
   <cc:Work>
    <dc:type rdf:resource="http://purl.org/dc/dcmitype/StillImage"/>
    <dc:date>2025-05-24T02:13:23.406694</dc:date>
    <dc:format>image/svg+xml</dc:format>
    <dc:creator>
     <cc:Agent>
      <dc:title>Matplotlib v3.10.3, https://matplotlib.org/</dc:title>
     </cc:Agent>
    </dc:creator>
   </cc:Work>
  </rdf:RDF>
 </metadata>
 <defs>
  <style type="text/css">*{stroke-linejoin: round; stroke-linecap: butt}</style>
 </defs>
 <g id="figure_1">
  <g id="patch_1">
   <path d="M 0 432 
L 864 432 
L 864 0 
L 0 0 
z
" style="fill: #ffffff"/>
  </g>
  <g id="axes_1">
   <g id="patch_2">
    <path d="M 50.87 390.04 
L 844.866 390.04 
L 844.866 43.44 
L 50.87 43.44 
z
" style="fill: #ffffff"/>
   </g>
   <g id="FillBetweenPolyCollection_1">
    <defs>
     <path id="m878cc61bb5" d="M 52.193327 -318.906019 
L 52.193327 -57.875809 
L 54.83998 -57.714545 
L 57.486633 -60.899071 
L 60.133287 -62.700098 
L 62.77994 -66.253226 
L 65.426593 -70.523325 
L 68.073247 -72.617978 
L 70.7199 -74.216564 
L 73.366553 -76.509831 
L 76.013207 -81.2057 
L 78.65986 -82.841107 
L 81.306513 -82.769741 
L 83.953167 -84.212547 
L 86.59982 -86.017195 
L 89.246473 -88.631712 
L 91.893127 -90.769095 
L 94.53978 -91.844725 
L 97.186433 -92.669262 
L 99.833087 -93.762687 
L 102.47974 -95.774421 
L 105.126393 -95.800781 
L 107.773047 -97.658183 
L 110.4197 -98.625809 
L 113.066353 -99.811316 
L 115.713007 -99.636706 
L 118.35966 -100.879001 
L 121.006313 -100.463451 
L 123.652967 -101.076247 
L 126.29962 -103.206606 
L 128.946273 -104.267601 
L 131.592927 -105.222432 
L 134.23958 -105.462155 
L 136.886233 -104.70181 
L 139.532887 -107.005848 
L 142.17954 -107.852492 
L 144.826193 -107.534311 
L 147.472847 -108.117758 
L 150.1195 -108.71323 
L 152.766153 -108.383415 
L 155.412807 -108.438641 
L 158.05946 -108.46269 
L 160.706113 -110.070415 
L 163.352767 -109.846074 
L 165.99942 -109.963757 
L 168.646073 -110.075933 
L 171.292727 -110.32092 
L 173.93938 -110.176878 
L 176.586033 -110.106293 
L 179.232687 -111.48755 
L 181.87934 -110.646436 
L 184.525993 -111.253381 
L 187.172647 -110.39239 
L 189.8193 -111.608463 
L 192.465953 -113.403788 
L 195.112607 -114.540771 
L 197.75926 -114.441838 
L 200.405913 -114.616666 
L 203.052567 -115.902888 
L 205.69922 -115.700607 
L 208.345873 -115.125149 
L 210.992527 -115.718012 
L 213.63918 -115.426949 
L 216.285833 -115.556289 
L 218.932487 -115.544367 
L 221.57914 -115.232888 
L 224.225793 -115.29408 
L 226.872447 -116.789848 
L 229.5191 -115.693491 
L 232.165753 -116.343614 
L 234.812407 -117.791582 
L 237.45906 -118.404976 
L 240.105713 -117.999277 
L 242.752367 -118.456304 
L 245.39902 -117.26451 
L 248.045673 -117.429302 
L 250.692327 -118.320125 
L 253.33898 -118.966546 
L 255.985633 -119.341333 
L 258.632287 -120.26116 
L 261.27894 -120.718774 
L 263.925593 -121.114218 
L 266.572247 -121.488315 
L 269.2189 -120.752686 
L 271.865553 -120.633509 
L 274.512207 -118.846622 
L 277.15886 -120.532737 
L 279.805513 -120.103874 
L 282.452167 -120.717831 
L 285.09882 -120.750675 
L 287.745473 -122.21077 
L 290.392127 -122.551564 
L 293.03878 -121.397832 
L 295.685433 -122.101226 
L 298.332087 -121.862079 
L 300.97874 -121.825706 
L 303.625393 -122.874182 
L 306.272047 -123.138862 
L 308.9187 -123.293469 
L 311.565353 -123.192076 
L 314.212007 -122.421063 
L 316.85866 -123.021835 
L 319.505313 -123.656438 
L 322.151967 -122.835763 
L 324.79862 -121.93648 
L 327.445273 -120.654179 
L 330.091927 -120.624106 
L 332.73858 -121.096377 
L 335.385233 -122.123011 
L 338.031887 -123.00543 
L 340.67854 -123.112606 
L 343.325193 -124.427003 
L 345.971847 -123.518753 
L 348.6185 -123.3133 
L 351.265153 -123.649345 
L 353.911807 -124.593865 
L 356.55846 -124.41837 
L 359.205113 -124.843382 
L 361.851767 -124.56662 
L 364.49842 -124.689292 
L 367.145073 -124.271269 
L 369.791727 -124.331266 
L 372.43838 -124.214572 
L 375.085033 -124.461973 
L 377.731687 -124.121743 
L 380.37834 -125.942888 
L 383.024993 -126.790578 
L 385.671647 -126.987248 
L 388.3183 -126.323009 
L 390.964953 -126.012254 
L 393.611607 -126.587608 
L 396.25826 -127.145293 
L 398.904913 -127.022483 
L 401.551567 -126.753148 
L 404.19822 -127.726131 
L 406.844873 -127.693379 
L 409.491527 -126.402272 
L 412.13818 -126.871141 
L 414.784833 -125.754483 
L 417.431487 -126.602081 
L 420.07814 -125.013278 
L 422.724793 -125.69974 
L 425.371447 -126.279405 
L 428.0181 -126.829261 
L 430.664753 -127.376301 
L 433.311407 -128.036817 
L 435.95806 -128.219807 
L 438.604713 -129.078522 
L 441.251367 -128.825625 
L 443.89802 -129.050966 
L 446.544673 -128.843088 
L 449.191327 -127.981614 
L 451.83798 -129.279181 
L 454.484633 -129.725587 
L 457.131287 -130.712905 
L 459.77794 -129.817312 
L 462.424593 -129.779399 
L 465.071247 -130.357685 
L 467.7179 -130.221563 
L 470.364553 -130.316507 
L 473.011207 -130.427602 
L 475.65786 -130.595694 
L 478.304513 -130.76113 
L 480.951167 -131.157334 
L 483.59782 -130.997795 
L 486.244473 -130.740426 
L 488.891127 -131.526741 
L 491.53778 -131.010762 
L 494.184433 -130.382343 
L 496.831087 -129.946698 
L 499.47774 -130.238243 
L 502.124393 -129.168281 
L 504.771047 -128.411408 
L 507.4177 -129.042287 
L 510.064353 -129.229565 
L 512.711007 -129.851489 
L 515.35766 -129.522444 
L 518.004313 -129.683639 
L 520.650967 -128.664833 
L 523.29762 -128.293679 
L 525.944273 -129.955768 
L 528.590927 -130.355535 
L 531.23758 -130.136344 
L 533.884233 -129.783124 
L 536.530887 -129.944215 
L 539.17754 -129.776468 
L 541.824193 -129.899174 
L 544.470847 -130.304114 
L 547.1175 -131.275223 
L 549.764153 -131.775027 
L 552.410807 -132.470605 
L 555.05746 -131.803939 
L 557.704113 -131.133411 
L 560.350767 -131.48508 
L 562.99742 -131.544697 
L 565.644073 -131.690062 
L 568.290727 -131.788558 
L 570.93738 -132.342886 
L 573.584033 -132.083782 
L 576.230687 -132.749137 
L 578.87734 -132.569779 
L 581.523993 -132.009772 
L 584.170647 -133.400019 
L 586.8173 -133.414492 
L 589.463953 -133.292245 
L 592.110607 -133.950232 
L 594.75726 -134.32572 
L 597.403913 -133.918227 
L 600.050567 -134.702668 
L 602.69722 -134.928813 
L 605.343873 -133.485444 
L 607.990527 -133.222546 
L 610.63718 -133.841861 
L 613.283833 -131.824517 
L 615.930487 -131.902769 
L 618.57714 -132.631845 
L 621.223793 -131.982596 
L 623.870447 -131.349797 
L 626.5171 -132.595484 
L 629.163753 -132.893306 
L 631.810407 -132.601163 
L 634.45706 -131.565976 
L 637.103713 -131.50983 
L 639.750367 -131.393711 
L 642.39702 -131.67437 
L 645.043673 -132.901974 
L 647.690327 -131.979825 
L 650.33698 -131.696626 
L 652.983633 -131.902171 
L 655.630287 -132.410321 
L 658.27694 -132.176346 
L 660.923593 -132.751195 
L 663.570247 -133.460498 
L 666.2169 -133.443875 
L 668.863553 -134.131624 
L 671.510207 -134.044267 
L 674.15686 -133.188933 
L 676.803513 -132.801673 
L 679.450167 -133.518713 
L 682.09682 -135.22198 
L 684.743473 -134.663007 
L 687.390127 -136.328464 
L 690.03678 -134.960381 
L 692.683433 -134.955851 
L 695.330087 -135.266537 
L 697.97674 -134.932963 
L 700.623393 -134.473556 
L 703.270047 -133.902087 
L 705.9167 -135.609274 
L 708.563353 -135.338202 
L 711.210007 -135.482532 
L 713.85666 -135.15581 
L 716.503313 -134.878266 
L 719.149967 -134.270034 
L 721.79662 -134.428596 
L 724.443273 -134.868058 
L 727.089927 -135.02639 
L 729.73658 -134.802164 
L 732.383233 -135.543426 
L 735.029887 -135.130266 
L 737.67654 -135.826878 
L 740.323193 -136.183789 
L 742.969847 -136.011639 
L 745.6165 -136.043977 
L 748.263153 -135.764778 
L 750.909807 -135.593088 
L 753.55646 -137.365226 
L 756.203113 -137.517948 
L 758.849767 -136.760994 
L 761.49642 -136.562967 
L 764.143073 -135.694458 
L 766.789727 -135.816061 
L 769.43638 -137.388183 
L 772.083033 -137.798055 
L 774.729687 -138.351785 
L 777.37634 -137.157749 
L 780.022993 -137.981494 
L 782.669647 -138.916862 
L 785.3163 -138.259026 
L 787.962953 -138.222354 
L 790.609607 -139.269014 
L 793.25626 -138.048997 
L 795.902913 -138.288662 
L 798.549567 -137.605488 
L 801.19622 -137.187569 
L 803.842873 -137.114617 
L 806.489527 -136.239785 
L 809.13618 -136.565599 
L 811.782833 -137.039871 
L 814.429487 -137.225218 
L 817.07614 -136.942444 
L 819.722793 -137.05039 
L 822.369447 -137.086912 
L 825.0161 -137.469125 
L 827.662753 -138.141366 
L 830.309407 -138.338209 
L 832.95606 -139.1763 
L 835.602713 -140.255068 
L 838.249367 -139.898341 
L 840.89602 -140.181219 
L 843.542673 -139.764633 
L 843.542673 -371.355901 
L 843.542673 -371.355901 
L 840.89602 -371.096739 
L 838.249367 -371.007531 
L 835.602713 -371.233217 
L 832.95606 -371.491275 
L 830.309407 -371.725468 
L 827.662753 -371.230826 
L 825.0161 -371.868016 
L 822.369447 -372.47495 
L 819.722793 -372.805455 
L 817.07614 -372.369326 
L 814.429487 -372.146422 
L 811.782833 -372.085012 
L 809.13618 -372.174679 
L 806.489527 -372.296351 
L 803.842873 -371.454903 
L 801.19622 -371.430991 
L 798.549567 -371.353648 
L 795.902913 -370.873122 
L 793.25626 -371.037007 
L 790.609607 -370.420647 
L 787.962953 -371.364086 
L 785.3163 -371.276901 
L 782.669647 -370.984402 
L 780.022993 -371.108787 
L 777.37634 -371.35866 
L 774.729687 -370.027398 
L 772.083033 -370.553447 
L 769.43638 -370.982448 
L 766.789727 -372.141962 
L 764.143073 -371.866867 
L 761.49642 -371.090462 
L 758.849767 -370.879882 
L 756.203113 -370.480586 
L 753.55646 -370.800009 
L 750.909807 -371.897561 
L 748.263153 -371.828609 
L 745.6165 -371.413334 
L 742.969847 -371.974008 
L 740.323193 -371.786925 
L 737.67654 -371.93667 
L 735.029887 -372.049352 
L 732.383233 -372.043006 
L 729.73658 -371.798168 
L 727.089927 -371.380847 
L 724.443273 -371.06055 
L 721.79662 -371.45012 
L 719.149967 -371.031903 
L 716.503313 -370.806309 
L 713.85666 -370.823276 
L 711.210007 -370.522178 
L 708.563353 -370.039606 
L 705.9167 -370.385033 
L 703.270047 -371.151919 
L 700.623393 -370.897677 
L 697.97674 -370.763176 
L 695.330087 -369.985093 
L 692.683433 -370.293204 
L 690.03678 -370.13647 
L 687.390127 -369.067083 
L 684.743473 -370.223333 
L 682.09682 -370.046711 
L 679.450167 -371.074897 
L 676.803513 -372.292189 
L 674.15686 -372.474398 
L 671.510207 -371.569309 
L 668.863553 -371.563285 
L 666.2169 -372.338816 
L 663.570247 -371.884984 
L 660.923593 -372.135685 
L 658.27694 -372.050731 
L 655.630287 -371.759266 
L 652.983633 -371.757749 
L 650.33698 -371.259244 
L 647.690327 -370.978516 
L 645.043673 -370.379308 
L 642.39702 -370.788283 
L 639.750367 -371.192499 
L 637.103713 -371.346428 
L 634.45706 -371.592531 
L 631.810407 -370.680314 
L 629.163753 -369.840706 
L 626.5171 -370.005303 
L 623.870447 -371.06793 
L 621.223793 -370.711859 
L 618.57714 -371.015808 
L 615.930487 -371.372823 
L 613.283833 -371.104096 
L 610.63718 -369.471989 
L 607.990527 -370.283525 
L 605.343873 -370.251175 
L 602.69722 -369.676201 
L 600.050567 -368.82459 
L 597.403913 -369.139599 
L 594.75726 -368.842731 
L 592.110607 -368.868527 
L 589.463953 -369.170683 
L 586.8173 -368.889933 
L 584.170647 -369.124746 
L 581.523993 -370.279386 
L 578.87734 -370.137827 
L 576.230687 -369.926373 
L 573.584033 -369.981346 
L 570.93738 -369.519237 
L 568.290727 -369.85703 
L 565.644073 -370.161991 
L 562.99742 -369.41182 
L 560.350767 -369.254442 
L 557.704113 -369.372504 
L 555.05746 -369.048874 
L 552.410807 -368.708138 
L 549.764153 -368.877632 
L 547.1175 -368.619436 
L 544.470847 -368.669374 
L 541.824193 -368.673006 
L 539.17754 -368.732923 
L 536.530887 -368.839972 
L 533.884233 -368.705838 
L 531.23758 -368.327971 
L 528.590927 -368.189446 
L 525.944273 -368.790471 
L 523.29762 -369.668866 
L 520.650967 -370.181419 
L 518.004313 -369.608973 
L 515.35766 -369.183375 
L 512.711007 -368.683307 
L 510.064353 -368.649555 
L 507.4177 -368.647992 
L 504.771047 -369.138357 
L 502.124393 -369.058254 
L 499.47774 -368.090053 
L 496.831087 -367.814499 
L 494.184433 -367.603481 
L 491.53778 -367.12606 
L 488.891127 -367.090975 
L 486.244473 -367.805187 
L 483.59782 -367.338181 
L 480.951167 -366.701611 
L 478.304513 -366.564857 
L 475.65786 -366.767735 
L 473.011207 -366.55366 
L 470.364553 -366.675562 
L 467.7179 -366.51892 
L 465.071247 -366.356553 
L 462.424593 -366.804982 
L 459.77794 -366.603184 
L 457.131287 -365.892168 
L 454.484633 -366.42424 
L 451.83798 -366.359634 
L 449.191327 -367.169882 
L 446.544673 -366.730857 
L 443.89802 -366.86384 
L 441.251367 -367.829443 
L 438.604713 -367.511469 
L 435.95806 -367.817281 
L 433.311407 -367.142039 
L 430.664753 -366.846597 
L 428.0181 -367.243478 
L 425.371447 -367.277115 
L 422.724793 -367.843445 
L 420.07814 -368.313693 
L 417.431487 -366.772977 
L 414.784833 -367.114587 
L 412.13818 -366.329745 
L 409.491527 -366.167906 
L 406.844873 -364.812618 
L 404.19822 -365.246034 
L 401.551567 -366.086263 
L 398.904913 -365.559433 
L 396.25826 -366.199888 
L 393.611607 -366.342344 
L 390.964953 -366.197313 
L 388.3183 -366.044097 
L 385.671647 -365.73863 
L 383.024993 -365.749298 
L 380.37834 -366.259252 
L 377.731687 -366.618887 
L 375.085033 -366.21074 
L 372.43838 -365.876924 
L 369.791727 -366.339171 
L 367.145073 -365.868463 
L 364.49842 -365.89226 
L 361.851767 -365.552006 
L 359.205113 -364.998023 
L 356.55846 -365.193705 
L 353.911807 -364.597095 
L 351.265153 -365.210949 
L 348.6185 -365.520278 
L 345.971847 -365.436772 
L 343.325193 -364.849589 
L 340.67854 -365.388283 
L 338.031887 -364.966065 
L 335.385233 -365.549178 
L 332.73858 -365.729387 
L 330.091927 -366.713222 
L 327.445273 -366.964613 
L 324.79862 -366.524438 
L 322.151967 -365.438704 
L 319.505313 -364.41753 
L 316.85866 -364.354717 
L 314.212007 -364.543524 
L 311.565353 -364.373018 
L 308.9187 -364.129951 
L 306.272047 -364.094819 
L 303.625393 -364.161035 
L 300.97874 -363.910059 
L 298.332087 -364.160346 
L 295.685433 -364.00729 
L 293.03878 -364.494506 
L 290.392127 -363.043872 
L 287.745473 -363.421348 
L 285.09882 -364.238517 
L 282.452167 -363.760889 
L 279.805513 -363.442501 
L 277.15886 -363.244336 
L 274.512207 -363.976344 
L 271.865553 -362.301839 
L 269.2189 -361.915488 
L 266.572247 -361.667753 
L 263.925593 -361.553784 
L 261.27894 -361.579304 
L 258.632287 -361.65313 
L 255.985633 -361.402774 
L 253.33898 -360.909351 
L 250.692327 -361.83934 
L 248.045673 -362.33366 
L 245.39902 -362.459562 
L 242.752367 -361.044703 
L 240.105713 -361.490373 
L 237.45906 -361.074638 
L 234.812407 -360.742937 
L 232.165753 -361.522262 
L 229.5191 -361.251811 
L 226.872447 -360.258113 
L 224.225793 -361.062774 
L 221.57914 -360.960346 
L 218.932487 -359.871485 
L 216.285833 -359.013736 
L 213.63918 -359.296878 
L 210.992527 -358.402297 
L 208.345873 -359.345965 
L 205.69922 -358.481687 
L 203.052567 -357.602303 
L 200.405913 -358.146952 
L 197.75926 -357.503645 
L 195.112607 -356.535261 
L 192.465953 -357.556963 
L 189.8193 -358.234159 
L 187.172647 -358.881833 
L 184.525993 -358.011876 
L 181.87934 -358.794235 
L 179.232687 -358.428231 
L 176.586033 -358.414505 
L 173.93938 -358.698912 
L 171.292727 -357.739655 
L 168.646073 -357.264831 
L 165.99942 -357.009371 
L 163.352767 -356.543446 
L 160.706113 -355.901979 
L 158.05946 -357.182659 
L 155.412807 -356.648931 
L 152.766153 -356.016891 
L 150.1195 -355.083385 
L 147.472847 -354.778906 
L 144.826193 -353.992891 
L 142.17954 -352.455256 
L 139.532887 -352.489698 
L 136.886233 -353.389775 
L 134.23958 -352.370463 
L 131.592927 -351.824366 
L 128.946273 -351.085461 
L 126.29962 -351.067826 
L 123.652967 -351.742631 
L 121.006313 -351.919091 
L 118.35966 -349.682281 
L 115.713007 -349.690604 
L 113.066353 -348.492418 
L 110.4197 -347.974232 
L 107.773047 -347.150028 
L 105.126393 -347.041921 
L 102.47974 -345.875211 
L 99.833087 -345.305271 
L 97.186433 -345.525416 
L 94.53978 -344.103084 
L 91.893127 -342.992197 
L 89.246473 -342.949042 
L 86.59982 -343.080462 
L 83.953167 -342.064507 
L 81.306513 -341.481531 
L 78.65986 -337.991815 
L 76.013207 -336.97701 
L 73.366553 -337.664644 
L 70.7199 -335.77588 
L 68.073247 -332.176287 
L 65.426593 -329.832128 
L 62.77994 -328.974494 
L 60.133287 -326.113966 
L 57.486633 -322.016672 
L 54.83998 -319.335341 
L 52.193327 -318.906019 
z
" style="stroke: #0000ff; stroke-opacity: 0.2"/>
    </defs>
    <g clip-path="url(#pc991c7606c)">
     <use xlink:href="#m878cc61bb5" x="0" y="432" style="fill: #0000ff; fill-opacity: 0.2; stroke: #0000ff; stroke-opacity: 0.2"/>
    </g>
   </g>
   <g id="matplotlib.axis_1">
    <g id="xtick_1">
     <g id="line2d_1">
      <defs>
       <path id="mf778867c8d" d="M 0 0 
L 0 3.5 
" style="stroke: #000000; stroke-width: 0.8"/>
      </defs>
      <g>
       <use xlink:href="#mf778867c8d" x="181.87934" y="390.04" style="stroke: #000000; stroke-width: 0.8"/>
      </g>
     </g>
     <g id="text_1">
      <!-- 50 -->
      <g transform="translate(175.51684 404.638438) scale(0.1 -0.1)">
       <defs>
        <path id="DejaVuSans-35" d="M 691 4666 
L 3169 4666 
L 3169 4134 
L 1269 4134 
L 1269 2991 
Q 1406 3038 1543 3061 
Q 1681 3084 1819 3084 
Q 2600 3084 3056 2656 
Q 3513 2228 3513 1497 
Q 3513 744 3044 326 
Q 2575 -91 1722 -91 
Q 1428 -91 1123 -41 
Q 819 9 494 109 
L 494 744 
Q 775 591 1075 516 
Q 1375 441 1709 441 
Q 2250 441 2565 725 
Q 2881 1009 2881 1497 
Q 2881 1984 2565 2268 
Q 2250 2553 1709 2553 
Q 1456 2553 1204 2497 
Q 953 2441 691 2322 
L 691 4666 
z
" transform="scale(0.015625)"/>
        <path id="DejaVuSans-30" d="M 2034 4250 
Q 1547 4250 1301 3770 
Q 1056 3291 1056 2328 
Q 1056 1369 1301 889 
Q 1547 409 2034 409 
Q 2525 409 2770 889 
Q 3016 1369 3016 2328 
Q 3016 3291 2770 3770 
Q 2525 4250 2034 4250 
z
M 2034 4750 
Q 2819 4750 3233 4129 
Q 3647 3509 3647 2328 
Q 3647 1150 3233 529 
Q 2819 -91 2034 -91 
Q 1250 -91 836 529 
Q 422 1150 422 2328 
Q 422 3509 836 4129 
Q 1250 4750 2034 4750 
z
" transform="scale(0.015625)"/>
       </defs>
       <use xlink:href="#DejaVuSans-35"/>
       <use xlink:href="#DejaVuSans-30" transform="translate(63.623047 0)"/>
      </g>
     </g>
    </g>
    <g id="xtick_2">
     <g id="line2d_2">
      <g>
       <use xlink:href="#mf778867c8d" x="314.212007" y="390.04" style="stroke: #000000; stroke-width: 0.8"/>
      </g>
     </g>
     <g id="text_2">
      <!-- 100 -->
      <g transform="translate(304.668257 404.638438) scale(0.1 -0.1)">
       <defs>
        <path id="DejaVuSans-31" d="M 794 531 
L 1825 531 
L 1825 4091 
L 703 3866 
L 703 4441 
L 1819 4666 
L 2450 4666 
L 2450 531 
L 3481 531 
L 3481 0 
L 794 0 
L 794 531 
z
" transform="scale(0.015625)"/>
       </defs>
       <use xlink:href="#DejaVuSans-31"/>
       <use xlink:href="#DejaVuSans-30" transform="translate(63.623047 0)"/>
       <use xlink:href="#DejaVuSans-30" transform="translate(127.246094 0)"/>
      </g>
     </g>
    </g>
    <g id="xtick_3">
     <g id="line2d_3">
      <g>
       <use xlink:href="#mf778867c8d" x="446.544673" y="390.04" style="stroke: #000000; stroke-width: 0.8"/>
      </g>
     </g>
     <g id="text_3">
      <!-- 150 -->
      <g transform="translate(437.000923 404.638438) scale(0.1 -0.1)">
       <use xlink:href="#DejaVuSans-31"/>
       <use xlink:href="#DejaVuSans-35" transform="translate(63.623047 0)"/>
       <use xlink:href="#DejaVuSans-30" transform="translate(127.246094 0)"/>
      </g>
     </g>
    </g>
    <g id="xtick_4">
     <g id="line2d_4">
      <g>
       <use xlink:href="#mf778867c8d" x="578.87734" y="390.04" style="stroke: #000000; stroke-width: 0.8"/>
      </g>
     </g>
     <g id="text_4">
      <!-- 200 -->
      <g transform="translate(569.33359 404.638438) scale(0.1 -0.1)">
       <defs>
        <path id="DejaVuSans-32" d="M 1228 531 
L 3431 531 
L 3431 0 
L 469 0 
L 469 531 
Q 828 903 1448 1529 
Q 2069 2156 2228 2338 
Q 2531 2678 2651 2914 
Q 2772 3150 2772 3378 
Q 2772 3750 2511 3984 
Q 2250 4219 1831 4219 
Q 1534 4219 1204 4116 
Q 875 4013 500 3803 
L 500 4441 
Q 881 4594 1212 4672 
Q 1544 4750 1819 4750 
Q 2544 4750 2975 4387 
Q 3406 4025 3406 3419 
Q 3406 3131 3298 2873 
Q 3191 2616 2906 2266 
Q 2828 2175 2409 1742 
Q 1991 1309 1228 531 
z
" transform="scale(0.015625)"/>
       </defs>
       <use xlink:href="#DejaVuSans-32"/>
       <use xlink:href="#DejaVuSans-30" transform="translate(63.623047 0)"/>
       <use xlink:href="#DejaVuSans-30" transform="translate(127.246094 0)"/>
      </g>
     </g>
    </g>
    <g id="xtick_5">
     <g id="line2d_5">
      <g>
       <use xlink:href="#mf778867c8d" x="711.210007" y="390.04" style="stroke: #000000; stroke-width: 0.8"/>
      </g>
     </g>
     <g id="text_5">
      <!-- 250 -->
      <g transform="translate(701.666257 404.638438) scale(0.1 -0.1)">
       <use xlink:href="#DejaVuSans-32"/>
       <use xlink:href="#DejaVuSans-35" transform="translate(63.623047 0)"/>
       <use xlink:href="#DejaVuSans-30" transform="translate(127.246094 0)"/>
      </g>
     </g>
    </g>
    <g id="xtick_6">
     <g id="line2d_6">
      <g>
       <use xlink:href="#mf778867c8d" x="843.542673" y="390.04" style="stroke: #000000; stroke-width: 0.8"/>
      </g>
     </g>
     <g id="text_6">
      <!-- 300 -->
      <g transform="translate(833.998923 404.638438) scale(0.1 -0.1)">
       <defs>
        <path id="DejaVuSans-33" d="M 2597 2516 
Q 3050 2419 3304 2112 
Q 3559 1806 3559 1356 
Q 3559 666 3084 287 
Q 2609 -91 1734 -91 
Q 1441 -91 1130 -33 
Q 819 25 488 141 
L 488 750 
Q 750 597 1062 519 
Q 1375 441 1716 441 
Q 2309 441 2620 675 
Q 2931 909 2931 1356 
Q 2931 1769 2642 2001 
Q 2353 2234 1838 2234 
L 1294 2234 
L 1294 2753 
L 1863 2753 
Q 2328 2753 2575 2939 
Q 2822 3125 2822 3475 
Q 2822 3834 2567 4026 
Q 2313 4219 1838 4219 
Q 1578 4219 1281 4162 
Q 984 4106 628 3988 
L 628 4550 
Q 988 4650 1302 4700 
Q 1616 4750 1894 4750 
Q 2613 4750 3031 4423 
Q 3450 4097 3450 3541 
Q 3450 3153 3228 2886 
Q 3006 2619 2597 2516 
z
" transform="scale(0.015625)"/>
       </defs>
       <use xlink:href="#DejaVuSans-33"/>
       <use xlink:href="#DejaVuSans-30" transform="translate(63.623047 0)"/>
       <use xlink:href="#DejaVuSans-30" transform="translate(127.246094 0)"/>
      </g>
     </g>
    </g>
    <g id="text_7">
     <!-- Step -->
     <g transform="translate(436.482844 418.316562) scale(0.1 -0.1)">
      <defs>
       <path id="DejaVuSans-53" d="M 3425 4513 
L 3425 3897 
Q 3066 4069 2747 4153 
Q 2428 4238 2131 4238 
Q 1616 4238 1336 4038 
Q 1056 3838 1056 3469 
Q 1056 3159 1242 3001 
Q 1428 2844 1947 2747 
L 2328 2669 
Q 3034 2534 3370 2195 
Q 3706 1856 3706 1288 
Q 3706 609 3251 259 
Q 2797 -91 1919 -91 
Q 1588 -91 1214 -16 
Q 841 59 441 206 
L 441 856 
Q 825 641 1194 531 
Q 1563 422 1919 422 
Q 2459 422 2753 634 
Q 3047 847 3047 1241 
Q 3047 1584 2836 1778 
Q 2625 1972 2144 2069 
L 1759 2144 
Q 1053 2284 737 2584 
Q 422 2884 422 3419 
Q 422 4038 858 4394 
Q 1294 4750 2059 4750 
Q 2388 4750 2728 4690 
Q 3069 4631 3425 4513 
z
" transform="scale(0.015625)"/>
       <path id="DejaVuSans-74" d="M 1172 4494 
L 1172 3500 
L 2356 3500 
L 2356 3053 
L 1172 3053 
L 1172 1153 
Q 1172 725 1289 603 
Q 1406 481 1766 481 
L 2356 481 
L 2356 0 
L 1766 0 
Q 1100 0 847 248 
Q 594 497 594 1153 
L 594 3053 
L 172 3053 
L 172 3500 
L 594 3500 
L 594 4494 
L 1172 4494 
z
" transform="scale(0.015625)"/>
       <path id="DejaVuSans-65" d="M 3597 1894 
L 3597 1613 
L 953 1613 
Q 991 1019 1311 708 
Q 1631 397 2203 397 
Q 2534 397 2845 478 
Q 3156 559 3463 722 
L 3463 178 
Q 3153 47 2828 -22 
Q 2503 -91 2169 -91 
Q 1331 -91 842 396 
Q 353 884 353 1716 
Q 353 2575 817 3079 
Q 1281 3584 2069 3584 
Q 2775 3584 3186 3129 
Q 3597 2675 3597 1894 
z
M 3022 2063 
Q 3016 2534 2758 2815 
Q 2500 3097 2075 3097 
Q 1594 3097 1305 2825 
Q 1016 2553 972 2059 
L 3022 2063 
z
" transform="scale(0.015625)"/>
       <path id="DejaVuSans-70" d="M 1159 525 
L 1159 -1331 
L 581 -1331 
L 581 3500 
L 1159 3500 
L 1159 2969 
Q 1341 3281 1617 3432 
Q 1894 3584 2278 3584 
Q 2916 3584 3314 3078 
Q 3713 2572 3713 1747 
Q 3713 922 3314 415 
Q 2916 -91 2278 -91 
Q 1894 -91 1617 61 
Q 1341 213 1159 525 
z
M 3116 1747 
Q 3116 2381 2855 2742 
Q 2594 3103 2138 3103 
Q 1681 3103 1420 2742 
Q 1159 2381 1159 1747 
Q 1159 1113 1420 752 
Q 1681 391 2138 391 
Q 2594 391 2855 752 
Q 3116 1113 3116 1747 
z
" transform="scale(0.015625)"/>
      </defs>
      <use xlink:href="#DejaVuSans-53"/>
      <use xlink:href="#DejaVuSans-74" transform="translate(63.476562 0)"/>
      <use xlink:href="#DejaVuSans-65" transform="translate(102.685547 0)"/>
      <use xlink:href="#DejaVuSans-70" transform="translate(164.208984 0)"/>
     </g>
    </g>
   </g>
   <g id="matplotlib.axis_2">
    <g id="ytick_1">
     <g id="line2d_7">
      <defs>
       <path id="m565b20b836" d="M 0 0 
L -3.5 0 
" style="stroke: #000000; stroke-width: 0.8"/>
      </defs>
      <g>
       <use xlink:href="#m565b20b836" x="50.87" y="374.63387" style="stroke: #000000; stroke-width: 0.8"/>
      </g>
     </g>
     <g id="text_8">
      <!-- 20 -->
      <g transform="translate(31.145 378.433089) scale(0.1 -0.1)">
       <use xlink:href="#DejaVuSans-32"/>
       <use xlink:href="#DejaVuSans-30" transform="translate(63.623047 0)"/>
      </g>
     </g>
    </g>
    <g id="ytick_2">
     <g id="line2d_8">
      <g>
       <use xlink:href="#m565b20b836" x="50.87" y="314.362669" style="stroke: #000000; stroke-width: 0.8"/>
      </g>
     </g>
     <g id="text_9">
      <!-- 40 -->
      <g transform="translate(31.145 318.161888) scale(0.1 -0.1)">
       <defs>
        <path id="DejaVuSans-34" d="M 2419 4116 
L 825 1625 
L 2419 1625 
L 2419 4116 
z
M 2253 4666 
L 3047 4666 
L 3047 1625 
L 3713 1625 
L 3713 1100 
L 3047 1100 
L 3047 0 
L 2419 0 
L 2419 1100 
L 313 1100 
L 313 1709 
L 2253 4666 
z
" transform="scale(0.015625)"/>
       </defs>
       <use xlink:href="#DejaVuSans-34"/>
       <use xlink:href="#DejaVuSans-30" transform="translate(63.623047 0)"/>
      </g>
     </g>
    </g>
    <g id="ytick_3">
     <g id="line2d_9">
      <g>
       <use xlink:href="#m565b20b836" x="50.87" y="254.091469" style="stroke: #000000; stroke-width: 0.8"/>
      </g>
     </g>
     <g id="text_10">
      <!-- 60 -->
      <g transform="translate(31.145 257.890687) scale(0.1 -0.1)">
       <defs>
        <path id="DejaVuSans-36" d="M 2113 2584 
Q 1688 2584 1439 2293 
Q 1191 2003 1191 1497 
Q 1191 994 1439 701 
Q 1688 409 2113 409 
Q 2538 409 2786 701 
Q 3034 994 3034 1497 
Q 3034 2003 2786 2293 
Q 2538 2584 2113 2584 
z
M 3366 4563 
L 3366 3988 
Q 3128 4100 2886 4159 
Q 2644 4219 2406 4219 
Q 1781 4219 1451 3797 
Q 1122 3375 1075 2522 
Q 1259 2794 1537 2939 
Q 1816 3084 2150 3084 
Q 2853 3084 3261 2657 
Q 3669 2231 3669 1497 
Q 3669 778 3244 343 
Q 2819 -91 2113 -91 
Q 1303 -91 875 529 
Q 447 1150 447 2328 
Q 447 3434 972 4092 
Q 1497 4750 2381 4750 
Q 2619 4750 2861 4703 
Q 3103 4656 3366 4563 
z
" transform="scale(0.015625)"/>
       </defs>
       <use xlink:href="#DejaVuSans-36"/>
       <use xlink:href="#DejaVuSans-30" transform="translate(63.623047 0)"/>
      </g>
     </g>
    </g>
    <g id="ytick_4">
     <g id="line2d_10">
      <g>
       <use xlink:href="#m565b20b836" x="50.87" y="193.820268" style="stroke: #000000; stroke-width: 0.8"/>
      </g>
     </g>
     <g id="text_11">
      <!-- 80 -->
      <g transform="translate(31.145 197.619487) scale(0.1 -0.1)">
       <defs>
        <path id="DejaVuSans-38" d="M 2034 2216 
Q 1584 2216 1326 1975 
Q 1069 1734 1069 1313 
Q 1069 891 1326 650 
Q 1584 409 2034 409 
Q 2484 409 2743 651 
Q 3003 894 3003 1313 
Q 3003 1734 2745 1975 
Q 2488 2216 2034 2216 
z
M 1403 2484 
Q 997 2584 770 2862 
Q 544 3141 544 3541 
Q 544 4100 942 4425 
Q 1341 4750 2034 4750 
Q 2731 4750 3128 4425 
Q 3525 4100 3525 3541 
Q 3525 3141 3298 2862 
Q 3072 2584 2669 2484 
Q 3125 2378 3379 2068 
Q 3634 1759 3634 1313 
Q 3634 634 3220 271 
Q 2806 -91 2034 -91 
Q 1263 -91 848 271 
Q 434 634 434 1313 
Q 434 1759 690 2068 
Q 947 2378 1403 2484 
z
M 1172 3481 
Q 1172 3119 1398 2916 
Q 1625 2713 2034 2713 
Q 2441 2713 2670 2916 
Q 2900 3119 2900 3481 
Q 2900 3844 2670 4047 
Q 2441 4250 2034 4250 
Q 1625 4250 1398 4047 
Q 1172 3844 1172 3481 
z
" transform="scale(0.015625)"/>
       </defs>
       <use xlink:href="#DejaVuSans-38"/>
       <use xlink:href="#DejaVuSans-30" transform="translate(63.623047 0)"/>
      </g>
     </g>
    </g>
    <g id="ytick_5">
     <g id="line2d_11">
      <g>
       <use xlink:href="#m565b20b836" x="50.87" y="133.549067" style="stroke: #000000; stroke-width: 0.8"/>
      </g>
     </g>
     <g id="text_12">
      <!-- 100 -->
      <g transform="translate(24.7825 137.348286) scale(0.1 -0.1)">
       <use xlink:href="#DejaVuSans-31"/>
       <use xlink:href="#DejaVuSans-30" transform="translate(63.623047 0)"/>
       <use xlink:href="#DejaVuSans-30" transform="translate(127.246094 0)"/>
      </g>
     </g>
    </g>
    <g id="ytick_6">
     <g id="line2d_12">
      <g>
       <use xlink:href="#m565b20b836" x="50.87" y="73.277867" style="stroke: #000000; stroke-width: 0.8"/>
      </g>
     </g>
     <g id="text_13">
      <!-- 120 -->
      <g transform="translate(24.7825 77.077085) scale(0.1 -0.1)">
       <use xlink:href="#DejaVuSans-31"/>
       <use xlink:href="#DejaVuSans-32" transform="translate(63.623047 0)"/>
       <use xlink:href="#DejaVuSans-30" transform="translate(127.246094 0)"/>
      </g>
     </g>
    </g>
    <g id="text_14">
     <!-- Profit -->
     <g transform="translate(18.702813 229.779063) rotate(-90) scale(0.1 -0.1)">
      <defs>
       <path id="DejaVuSans-50" d="M 1259 4147 
L 1259 2394 
L 2053 2394 
Q 2494 2394 2734 2622 
Q 2975 2850 2975 3272 
Q 2975 3691 2734 3919 
Q 2494 4147 2053 4147 
L 1259 4147 
z
M 628 4666 
L 2053 4666 
Q 2838 4666 3239 4311 
Q 3641 3956 3641 3272 
Q 3641 2581 3239 2228 
Q 2838 1875 2053 1875 
L 1259 1875 
L 1259 0 
L 628 0 
L 628 4666 
z
" transform="scale(0.015625)"/>
       <path id="DejaVuSans-72" d="M 2631 2963 
Q 2534 3019 2420 3045 
Q 2306 3072 2169 3072 
Q 1681 3072 1420 2755 
Q 1159 2438 1159 1844 
L 1159 0 
L 581 0 
L 581 3500 
L 1159 3500 
L 1159 2956 
Q 1341 3275 1631 3429 
Q 1922 3584 2338 3584 
Q 2397 3584 2469 3576 
Q 2541 3569 2628 3553 
L 2631 2963 
z
" transform="scale(0.015625)"/>
       <path id="DejaVuSans-6f" d="M 1959 3097 
Q 1497 3097 1228 2736 
Q 959 2375 959 1747 
Q 959 1119 1226 758 
Q 1494 397 1959 397 
Q 2419 397 2687 759 
Q 2956 1122 2956 1747 
Q 2956 2369 2687 2733 
Q 2419 3097 1959 3097 
z
M 1959 3584 
Q 2709 3584 3137 3096 
Q 3566 2609 3566 1747 
Q 3566 888 3137 398 
Q 2709 -91 1959 -91 
Q 1206 -91 779 398 
Q 353 888 353 1747 
Q 353 2609 779 3096 
Q 1206 3584 1959 3584 
z
" transform="scale(0.015625)"/>
       <path id="DejaVuSans-66" d="M 2375 4863 
L 2375 4384 
L 1825 4384 
Q 1516 4384 1395 4259 
Q 1275 4134 1275 3809 
L 1275 3500 
L 2222 3500 
L 2222 3053 
L 1275 3053 
L 1275 0 
L 697 0 
L 697 3053 
L 147 3053 
L 147 3500 
L 697 3500 
L 697 3744 
Q 697 4328 969 4595 
Q 1241 4863 1831 4863 
L 2375 4863 
z
" transform="scale(0.015625)"/>
       <path id="DejaVuSans-69" d="M 603 3500 
L 1178 3500 
L 1178 0 
L 603 0 
L 603 3500 
z
M 603 4863 
L 1178 4863 
L 1178 4134 
L 603 4134 
L 603 4863 
z
" transform="scale(0.015625)"/>
      </defs>
      <use xlink:href="#DejaVuSans-50"/>
      <use xlink:href="#DejaVuSans-72" transform="translate(58.552734 0)"/>
      <use xlink:href="#DejaVuSans-6f" transform="translate(97.416016 0)"/>
      <use xlink:href="#DejaVuSans-66" transform="translate(158.597656 0)"/>
      <use xlink:href="#DejaVuSans-69" transform="translate(193.802734 0)"/>
      <use xlink:href="#DejaVuSans-74" transform="translate(221.585938 0)"/>
     </g>
    </g>
   </g>
   <g id="line2d_13">
    <path d="M 52.193327 243.609086 
L 54.83998 243.475057 
L 60.133287 237.592968 
L 62.77994 234.38614 
L 65.426593 231.822273 
L 68.073247 229.602868 
L 70.7199 227.003778 
L 76.013207 222.908645 
L 78.65986 221.583545 
L 81.306513 219.87437 
L 83.953167 218.861473 
L 86.59982 217.451166 
L 89.246473 216.209617 
L 97.186433 212.902661 
L 99.833087 212.466027 
L 102.47974 211.175184 
L 105.126393 210.578643 
L 110.4197 208.699973 
L 113.066353 207.848133 
L 118.35966 206.719359 
L 121.006313 205.808729 
L 123.652967 205.590561 
L 126.29962 204.862784 
L 128.946273 204.323469 
L 131.592927 203.476595 
L 134.23958 203.083691 
L 136.886233 202.954202 
L 139.532887 202.252221 
L 142.17954 201.84612 
L 150.1195 200.101698 
L 158.05946 199.17732 
L 163.352767 198.805246 
L 173.93938 197.562111 
L 176.586033 197.739607 
L 179.232687 197.042109 
L 181.87934 197.279659 
L 187.172647 197.362889 
L 189.8193 197.078689 
L 192.465953 196.519624 
L 195.112607 196.461984 
L 203.052567 195.247405 
L 205.69922 194.908853 
L 208.345873 194.764443 
L 210.992527 194.939846 
L 213.63918 194.638081 
L 216.285833 194.714988 
L 221.57914 193.903383 
L 224.225793 193.821578 
L 226.872447 193.476014 
L 229.5191 193.527354 
L 232.165753 193.067062 
L 234.812407 192.73274 
L 237.45906 192.260193 
L 245.39902 192.13797 
L 248.045673 192.118519 
L 250.692327 191.920262 
L 253.33898 192.062051 
L 255.985633 191.627946 
L 258.632287 191.042855 
L 266.572247 190.421966 
L 269.2189 190.665907 
L 271.865553 190.532326 
L 274.512207 190.588517 
L 277.15886 190.111464 
L 279.805513 190.226813 
L 282.452167 189.760634 
L 287.745473 189.183935 
L 290.392127 189.202282 
L 295.685433 188.945742 
L 300.97874 189.132112 
L 303.625393 188.482391 
L 311.565353 188.217459 
L 314.212007 188.517706 
L 316.85866 188.311724 
L 319.505313 187.96301 
L 324.79862 187.769535 
L 327.445273 188.190604 
L 330.091927 188.331336 
L 332.73858 188.587118 
L 335.385233 188.163911 
L 338.031887 188.014258 
L 340.67854 187.749556 
L 343.325193 187.36171 
L 348.6185 187.583211 
L 351.265153 187.569853 
L 364.49842 186.70923 
L 367.145073 186.930134 
L 369.791727 186.664787 
L 372.43838 186.954252 
L 375.085033 186.663638 
L 377.731687 186.629679 
L 380.37834 185.898936 
L 385.671647 185.637061 
L 390.964953 185.895211 
L 393.611607 185.535024 
L 396.25826 185.32741 
L 398.904913 185.709048 
L 404.19822 185.513918 
L 406.844873 185.747007 
L 409.491527 185.714911 
L 412.13818 185.399557 
L 414.784833 185.565465 
L 417.431487 185.312465 
L 420.07814 185.336514 
L 430.664753 184.888545 
L 435.95806 183.981456 
L 438.604713 183.705005 
L 441.251367 183.672471 
L 443.89802 184.042591 
L 449.191327 184.424252 
L 457.131287 183.697463 
L 459.77794 183.789752 
L 470.364553 183.503966 
L 473.011207 183.509369 
L 475.65786 183.318285 
L 478.304513 183.337 
L 483.59782 182.832012 
L 488.891127 182.691142 
L 491.53778 182.931589 
L 496.831087 183.119408 
L 499.47774 182.835852 
L 502.124393 182.886732 
L 504.771047 183.225123 
L 510.064353 183.060434 
L 512.711007 182.732596 
L 515.35766 182.64709 
L 518.004313 182.353694 
L 520.650967 182.576874 
L 523.29762 183.018727 
L 525.944273 182.626881 
L 531.23758 182.767842 
L 533.884233 182.755519 
L 536.530887 182.607913 
L 539.17754 182.745311 
L 541.824193 182.713904 
L 544.470847 182.513256 
L 549.764153 181.67367 
L 552.410807 181.410623 
L 557.704113 181.747037 
L 562.99742 181.521742 
L 565.644073 181.073979 
L 568.290727 181.177212 
L 573.584033 180.967436 
L 576.230687 180.662245 
L 578.87734 180.646197 
L 581.523993 180.855421 
L 584.170647 180.737612 
L 586.8173 180.847788 
L 592.110607 180.590626 
L 594.75726 180.415775 
L 597.403913 180.471093 
L 600.050567 180.236371 
L 602.69722 179.697493 
L 605.343873 180.13169 
L 613.283833 180.535699 
L 618.57714 180.176179 
L 621.223793 180.652773 
L 623.870447 180.791136 
L 629.163753 180.633 
L 631.810407 180.359261 
L 637.103713 180.571865 
L 642.39702 180.768674 
L 645.043673 180.359353 
L 647.690327 180.520824 
L 650.33698 180.522065 
L 655.630287 179.915201 
L 658.27694 179.886461 
L 663.570247 179.327259 
L 666.2169 179.108654 
L 674.15686 179.168341 
L 679.450167 179.703195 
L 682.09682 179.365655 
L 684.743473 179.55683 
L 687.390127 179.302221 
L 690.03678 179.451575 
L 697.97674 179.151924 
L 703.270047 179.473003 
L 705.9167 179.002847 
L 708.563353 179.311096 
L 711.210007 178.997651 
L 713.85666 179.010457 
L 719.149967 179.349032 
L 721.79662 179.060648 
L 724.443273 179.035702 
L 727.089927 178.796382 
L 729.73658 178.69984 
L 732.383233 178.206784 
L 735.029887 178.410191 
L 737.67654 178.11822 
L 742.969847 178.007171 
L 745.6165 178.271345 
L 748.263153 178.203312 
L 750.909807 178.254676 
L 753.55646 177.917388 
L 764.143073 178.219338 
L 769.43638 177.814685 
L 777.37634 177.741801 
L 780.022993 177.454866 
L 782.669647 177.049362 
L 785.3163 177.232031 
L 790.609607 177.15517 
L 793.25626 177.457004 
L 795.902913 177.419114 
L 806.489527 177.731938 
L 811.782833 177.437553 
L 814.429487 177.31418 
L 817.07614 177.344115 
L 819.722793 177.072078 
L 825.0161 177.331424 
L 827.662753 177.313904 
L 835.602713 176.255852 
L 838.249367 176.547064 
L 840.89602 176.361015 
L 843.542673 176.439739 
L 843.542673 176.439739 
" clip-path="url(#pc991c7606c)" style="fill: none; stroke: #0000ff; stroke-width: 1.5; stroke-linecap: square"/>
   </g>
   <g id="patch_3">
    <path d="M 50.87 390.04 
L 50.87 43.44 
" style="fill: none; stroke: #000000; stroke-width: 0.8; stroke-linejoin: miter; stroke-linecap: square"/>
   </g>
   <g id="patch_4">
    <path d="M 844.866 390.04 
L 844.866 43.44 
" style="fill: none; stroke: #000000; stroke-width: 0.8; stroke-linejoin: miter; stroke-linecap: square"/>
   </g>
   <g id="patch_5">
    <path d="M 50.87 390.04 
L 844.866 390.04 
" style="fill: none; stroke: #000000; stroke-width: 0.8; stroke-linejoin: miter; stroke-linecap: square"/>
   </g>
   <g id="patch_6">
    <path d="M 50.87 43.44 
L 844.866 43.44 
" style="fill: none; stroke: #000000; stroke-width: 0.8; stroke-linejoin: miter; stroke-linecap: square"/>
   </g>
   <g id="text_15">
    <!-- Mean profit per step with confidence interval per simulation step -->
    <g transform="translate(220.284875 21.763062) scale(0.14 -0.14)">
     <defs>
      <path id="DejaVuSans-4d" d="M 628 4666 
L 1569 4666 
L 2759 1491 
L 3956 4666 
L 4897 4666 
L 4897 0 
L 4281 0 
L 4281 4097 
L 3078 897 
L 2444 897 
L 1241 4097 
L 1241 0 
L 628 0 
L 628 4666 
z
" transform="scale(0.015625)"/>
      <path id="DejaVuSans-61" d="M 2194 1759 
Q 1497 1759 1228 1600 
Q 959 1441 959 1056 
Q 959 750 1161 570 
Q 1363 391 1709 391 
Q 2188 391 2477 730 
Q 2766 1069 2766 1631 
L 2766 1759 
L 2194 1759 
z
M 3341 1997 
L 3341 0 
L 2766 0 
L 2766 531 
Q 2569 213 2275 61 
Q 1981 -91 1556 -91 
Q 1019 -91 701 211 
Q 384 513 384 1019 
Q 384 1609 779 1909 
Q 1175 2209 1959 2209 
L 2766 2209 
L 2766 2266 
Q 2766 2663 2505 2880 
Q 2244 3097 1772 3097 
Q 1472 3097 1187 3025 
Q 903 2953 641 2809 
L 641 3341 
Q 956 3463 1253 3523 
Q 1550 3584 1831 3584 
Q 2591 3584 2966 3190 
Q 3341 2797 3341 1997 
z
" transform="scale(0.015625)"/>
      <path id="DejaVuSans-6e" d="M 3513 2113 
L 3513 0 
L 2938 0 
L 2938 2094 
Q 2938 2591 2744 2837 
Q 2550 3084 2163 3084 
Q 1697 3084 1428 2787 
Q 1159 2491 1159 1978 
L 1159 0 
L 581 0 
L 581 3500 
L 1159 3500 
L 1159 2956 
Q 1366 3272 1645 3428 
Q 1925 3584 2291 3584 
Q 2894 3584 3203 3211 
Q 3513 2838 3513 2113 
z
" transform="scale(0.015625)"/>
      <path id="DejaVuSans-20" transform="scale(0.015625)"/>
      <path id="DejaVuSans-73" d="M 2834 3397 
L 2834 2853 
Q 2591 2978 2328 3040 
Q 2066 3103 1784 3103 
Q 1356 3103 1142 2972 
Q 928 2841 928 2578 
Q 928 2378 1081 2264 
Q 1234 2150 1697 2047 
L 1894 2003 
Q 2506 1872 2764 1633 
Q 3022 1394 3022 966 
Q 3022 478 2636 193 
Q 2250 -91 1575 -91 
Q 1294 -91 989 -36 
Q 684 19 347 128 
L 347 722 
Q 666 556 975 473 
Q 1284 391 1588 391 
Q 1994 391 2212 530 
Q 2431 669 2431 922 
Q 2431 1156 2273 1281 
Q 2116 1406 1581 1522 
L 1381 1569 
Q 847 1681 609 1914 
Q 372 2147 372 2553 
Q 372 3047 722 3315 
Q 1072 3584 1716 3584 
Q 2034 3584 2315 3537 
Q 2597 3491 2834 3397 
z
" transform="scale(0.015625)"/>
      <path id="DejaVuSans-77" d="M 269 3500 
L 844 3500 
L 1563 769 
L 2278 3500 
L 2956 3500 
L 3675 769 
L 4391 3500 
L 4966 3500 
L 4050 0 
L 3372 0 
L 2619 2869 
L 1863 0 
L 1184 0 
L 269 3500 
z
" transform="scale(0.015625)"/>
      <path id="DejaVuSans-68" d="M 3513 2113 
L 3513 0 
L 2938 0 
L 2938 2094 
Q 2938 2591 2744 2837 
Q 2550 3084 2163 3084 
Q 1697 3084 1428 2787 
Q 1159 2491 1159 1978 
L 1159 0 
L 581 0 
L 581 4863 
L 1159 4863 
L 1159 2956 
Q 1366 3272 1645 3428 
Q 1925 3584 2291 3584 
Q 2894 3584 3203 3211 
Q 3513 2838 3513 2113 
z
" transform="scale(0.015625)"/>
      <path id="DejaVuSans-63" d="M 3122 3366 
L 3122 2828 
Q 2878 2963 2633 3030 
Q 2388 3097 2138 3097 
Q 1578 3097 1268 2742 
Q 959 2388 959 1747 
Q 959 1106 1268 751 
Q 1578 397 2138 397 
Q 2388 397 2633 464 
Q 2878 531 3122 666 
L 3122 134 
Q 2881 22 2623 -34 
Q 2366 -91 2075 -91 
Q 1284 -91 818 406 
Q 353 903 353 1747 
Q 353 2603 823 3093 
Q 1294 3584 2113 3584 
Q 2378 3584 2631 3529 
Q 2884 3475 3122 3366 
z
" transform="scale(0.015625)"/>
      <path id="DejaVuSans-64" d="M 2906 2969 
L 2906 4863 
L 3481 4863 
L 3481 0 
L 2906 0 
L 2906 525 
Q 2725 213 2448 61 
Q 2172 -91 1784 -91 
Q 1150 -91 751 415 
Q 353 922 353 1747 
Q 353 2572 751 3078 
Q 1150 3584 1784 3584 
Q 2172 3584 2448 3432 
Q 2725 3281 2906 2969 
z
M 947 1747 
Q 947 1113 1208 752 
Q 1469 391 1925 391 
Q 2381 391 2643 752 
Q 2906 1113 2906 1747 
Q 2906 2381 2643 2742 
Q 2381 3103 1925 3103 
Q 1469 3103 1208 2742 
Q 947 2381 947 1747 
z
" transform="scale(0.015625)"/>
      <path id="DejaVuSans-76" d="M 191 3500 
L 800 3500 
L 1894 563 
L 2988 3500 
L 3597 3500 
L 2284 0 
L 1503 0 
L 191 3500 
z
" transform="scale(0.015625)"/>
      <path id="DejaVuSans-6c" d="M 603 4863 
L 1178 4863 
L 1178 0 
L 603 0 
L 603 4863 
z
" transform="scale(0.015625)"/>
      <path id="DejaVuSans-6d" d="M 3328 2828 
Q 3544 3216 3844 3400 
Q 4144 3584 4550 3584 
Q 5097 3584 5394 3201 
Q 5691 2819 5691 2113 
L 5691 0 
L 5113 0 
L 5113 2094 
Q 5113 2597 4934 2840 
Q 4756 3084 4391 3084 
Q 3944 3084 3684 2787 
Q 3425 2491 3425 1978 
L 3425 0 
L 2847 0 
L 2847 2094 
Q 2847 2600 2669 2842 
Q 2491 3084 2119 3084 
Q 1678 3084 1418 2786 
Q 1159 2488 1159 1978 
L 1159 0 
L 581 0 
L 581 3500 
L 1159 3500 
L 1159 2956 
Q 1356 3278 1631 3431 
Q 1906 3584 2284 3584 
Q 2666 3584 2933 3390 
Q 3200 3197 3328 2828 
z
" transform="scale(0.015625)"/>
      <path id="DejaVuSans-75" d="M 544 1381 
L 544 3500 
L 1119 3500 
L 1119 1403 
Q 1119 906 1312 657 
Q 1506 409 1894 409 
Q 2359 409 2629 706 
Q 2900 1003 2900 1516 
L 2900 3500 
L 3475 3500 
L 3475 0 
L 2900 0 
L 2900 538 
Q 2691 219 2414 64 
Q 2138 -91 1772 -91 
Q 1169 -91 856 284 
Q 544 659 544 1381 
z
M 1991 3584 
L 1991 3584 
z
" transform="scale(0.015625)"/>
     </defs>
     <use xlink:href="#DejaVuSans-4d"/>
     <use xlink:href="#DejaVuSans-65" transform="translate(86.279297 0)"/>
     <use xlink:href="#DejaVuSans-61" transform="translate(147.802734 0)"/>
     <use xlink:href="#DejaVuSans-6e" transform="translate(209.082031 0)"/>
     <use xlink:href="#DejaVuSans-20" transform="translate(272.460938 0)"/>
     <use xlink:href="#DejaVuSans-70" transform="translate(304.248047 0)"/>
     <use xlink:href="#DejaVuSans-72" transform="translate(367.724609 0)"/>
     <use xlink:href="#DejaVuSans-6f" transform="translate(406.587891 0)"/>
     <use xlink:href="#DejaVuSans-66" transform="translate(467.769531 0)"/>
     <use xlink:href="#DejaVuSans-69" transform="translate(502.974609 0)"/>
     <use xlink:href="#DejaVuSans-74" transform="translate(530.757812 0)"/>
     <use xlink:href="#DejaVuSans-20" transform="translate(569.966797 0)"/>
     <use xlink:href="#DejaVuSans-70" transform="translate(601.753906 0)"/>
     <use xlink:href="#DejaVuSans-65" transform="translate(665.230469 0)"/>
     <use xlink:href="#DejaVuSans-72" transform="translate(726.753906 0)"/>
     <use xlink:href="#DejaVuSans-20" transform="translate(767.867188 0)"/>
     <use xlink:href="#DejaVuSans-73" transform="translate(799.654297 0)"/>
     <use xlink:href="#DejaVuSans-74" transform="translate(851.753906 0)"/>
     <use xlink:href="#DejaVuSans-65" transform="translate(890.962891 0)"/>
     <use xlink:href="#DejaVuSans-70" transform="translate(952.486328 0)"/>
     <use xlink:href="#DejaVuSans-20" transform="translate(1015.962891 0)"/>
     <use xlink:href="#DejaVuSans-77" transform="translate(1047.75 0)"/>
     <use xlink:href="#DejaVuSans-69" transform="translate(1129.537109 0)"/>
     <use xlink:href="#DejaVuSans-74" transform="translate(1157.320312 0)"/>
     <use xlink:href="#DejaVuSans-68" transform="translate(1196.529297 0)"/>
     <use xlink:href="#DejaVuSans-20" transform="translate(1259.908203 0)"/>
     <use xlink:href="#DejaVuSans-63" transform="translate(1291.695312 0)"/>
     <use xlink:href="#DejaVuSans-6f" transform="translate(1346.675781 0)"/>
     <use xlink:href="#DejaVuSans-6e" transform="translate(1407.857422 0)"/>
     <use xlink:href="#DejaVuSans-66" transform="translate(1471.236328 0)"/>
     <use xlink:href="#DejaVuSans-69" transform="translate(1506.441406 0)"/>
     <use xlink:href="#DejaVuSans-64" transform="translate(1534.224609 0)"/>
     <use xlink:href="#DejaVuSans-65" transform="translate(1597.701172 0)"/>
     <use xlink:href="#DejaVuSans-6e" transform="translate(1659.224609 0)"/>
     <use xlink:href="#DejaVuSans-63" transform="translate(1722.603516 0)"/>
     <use xlink:href="#DejaVuSans-65" transform="translate(1777.583984 0)"/>
     <use xlink:href="#DejaVuSans-20" transform="translate(1839.107422 0)"/>
     <use xlink:href="#DejaVuSans-69" transform="translate(1870.894531 0)"/>
     <use xlink:href="#DejaVuSans-6e" transform="translate(1898.677734 0)"/>
     <use xlink:href="#DejaVuSans-74" transform="translate(1962.056641 0)"/>
     <use xlink:href="#DejaVuSans-65" transform="translate(2001.265625 0)"/>
     <use xlink:href="#DejaVuSans-72" transform="translate(2062.789062 0)"/>
     <use xlink:href="#DejaVuSans-76" transform="translate(2103.902344 0)"/>
     <use xlink:href="#DejaVuSans-61" transform="translate(2163.082031 0)"/>
     <use xlink:href="#DejaVuSans-6c" transform="translate(2224.361328 0)"/>
     <use xlink:href="#DejaVuSans-20" transform="translate(2252.144531 0)"/>
     <use xlink:href="#DejaVuSans-70" transform="translate(2283.931641 0)"/>
     <use xlink:href="#DejaVuSans-65" transform="translate(2347.408203 0)"/>
     <use xlink:href="#DejaVuSans-72" transform="translate(2408.931641 0)"/>
     <use xlink:href="#DejaVuSans-20" transform="translate(2450.044922 0)"/>
     <use xlink:href="#DejaVuSans-73" transform="translate(2481.832031 0)"/>
     <use xlink:href="#DejaVuSans-69" transform="translate(2533.931641 0)"/>
     <use xlink:href="#DejaVuSans-6d" transform="translate(2561.714844 0)"/>
     <use xlink:href="#DejaVuSans-75" transform="translate(2659.126953 0)"/>
     <use xlink:href="#DejaVuSans-6c" transform="translate(2722.505859 0)"/>
     <use xlink:href="#DejaVuSans-61" transform="translate(2750.289062 0)"/>
     <use xlink:href="#DejaVuSans-74" transform="translate(2811.568359 0)"/>
     <use xlink:href="#DejaVuSans-69" transform="translate(2850.777344 0)"/>
     <use xlink:href="#DejaVuSans-6f" transform="translate(2878.560547 0)"/>
     <use xlink:href="#DejaVuSans-6e" transform="translate(2939.742188 0)"/>
     <use xlink:href="#DejaVuSans-20" transform="translate(3003.121094 0)"/>
     <use xlink:href="#DejaVuSans-73" transform="translate(3034.908203 0)"/>
     <use xlink:href="#DejaVuSans-74" transform="translate(3087.007812 0)"/>
     <use xlink:href="#DejaVuSans-65" transform="translate(3126.216797 0)"/>
     <use xlink:href="#DejaVuSans-70" transform="translate(3187.740234 0)"/>
    </g>
    <!-- Base Product: Grandaddy Purple, Recipe size: 7, T0: 50.0 -->
    <g transform="translate(248.283781 37.44) scale(0.14 -0.14)">
     <defs>
      <path id="DejaVuSans-42" d="M 1259 2228 
L 1259 519 
L 2272 519 
Q 2781 519 3026 730 
Q 3272 941 3272 1375 
Q 3272 1813 3026 2020 
Q 2781 2228 2272 2228 
L 1259 2228 
z
M 1259 4147 
L 1259 2741 
L 2194 2741 
Q 2656 2741 2882 2914 
Q 3109 3088 3109 3444 
Q 3109 3797 2882 3972 
Q 2656 4147 2194 4147 
L 1259 4147 
z
M 628 4666 
L 2241 4666 
Q 2963 4666 3353 4366 
Q 3744 4066 3744 3513 
Q 3744 3084 3544 2831 
Q 3344 2578 2956 2516 
Q 3422 2416 3680 2098 
Q 3938 1781 3938 1306 
Q 3938 681 3513 340 
Q 3088 0 2303 0 
L 628 0 
L 628 4666 
z
" transform="scale(0.015625)"/>
      <path id="DejaVuSans-3a" d="M 750 794 
L 1409 794 
L 1409 0 
L 750 0 
L 750 794 
z
M 750 3309 
L 1409 3309 
L 1409 2516 
L 750 2516 
L 750 3309 
z
" transform="scale(0.015625)"/>
      <path id="DejaVuSans-47" d="M 3809 666 
L 3809 1919 
L 2778 1919 
L 2778 2438 
L 4434 2438 
L 4434 434 
Q 4069 175 3628 42 
Q 3188 -91 2688 -91 
Q 1594 -91 976 548 
Q 359 1188 359 2328 
Q 359 3472 976 4111 
Q 1594 4750 2688 4750 
Q 3144 4750 3555 4637 
Q 3966 4525 4313 4306 
L 4313 3634 
Q 3963 3931 3569 4081 
Q 3175 4231 2741 4231 
Q 1884 4231 1454 3753 
Q 1025 3275 1025 2328 
Q 1025 1384 1454 906 
Q 1884 428 2741 428 
Q 3075 428 3337 486 
Q 3600 544 3809 666 
z
" transform="scale(0.015625)"/>
      <path id="DejaVuSans-79" d="M 2059 -325 
Q 1816 -950 1584 -1140 
Q 1353 -1331 966 -1331 
L 506 -1331 
L 506 -850 
L 844 -850 
Q 1081 -850 1212 -737 
Q 1344 -625 1503 -206 
L 1606 56 
L 191 3500 
L 800 3500 
L 1894 763 
L 2988 3500 
L 3597 3500 
L 2059 -325 
z
" transform="scale(0.015625)"/>
      <path id="DejaVuSans-2c" d="M 750 794 
L 1409 794 
L 1409 256 
L 897 -744 
L 494 -744 
L 750 256 
L 750 794 
z
" transform="scale(0.015625)"/>
      <path id="DejaVuSans-52" d="M 2841 2188 
Q 3044 2119 3236 1894 
Q 3428 1669 3622 1275 
L 4263 0 
L 3584 0 
L 2988 1197 
Q 2756 1666 2539 1819 
Q 2322 1972 1947 1972 
L 1259 1972 
L 1259 0 
L 628 0 
L 628 4666 
L 2053 4666 
Q 2853 4666 3247 4331 
Q 3641 3997 3641 3322 
Q 3641 2881 3436 2590 
Q 3231 2300 2841 2188 
z
M 1259 4147 
L 1259 2491 
L 2053 2491 
Q 2509 2491 2742 2702 
Q 2975 2913 2975 3322 
Q 2975 3731 2742 3939 
Q 2509 4147 2053 4147 
L 1259 4147 
z
" transform="scale(0.015625)"/>
      <path id="DejaVuSans-7a" d="M 353 3500 
L 3084 3500 
L 3084 2975 
L 922 459 
L 3084 459 
L 3084 0 
L 275 0 
L 275 525 
L 2438 3041 
L 353 3041 
L 353 3500 
z
" transform="scale(0.015625)"/>
      <path id="DejaVuSans-37" d="M 525 4666 
L 3525 4666 
L 3525 4397 
L 1831 0 
L 1172 0 
L 2766 4134 
L 525 4134 
L 525 4666 
z
" transform="scale(0.015625)"/>
      <path id="DejaVuSans-54" d="M -19 4666 
L 3928 4666 
L 3928 4134 
L 2272 4134 
L 2272 0 
L 1638 0 
L 1638 4134 
L -19 4134 
L -19 4666 
z
" transform="scale(0.015625)"/>
      <path id="DejaVuSans-2e" d="M 684 794 
L 1344 794 
L 1344 0 
L 684 0 
L 684 794 
z
" transform="scale(0.015625)"/>
     </defs>
     <use xlink:href="#DejaVuSans-42"/>
     <use xlink:href="#DejaVuSans-61" transform="translate(68.603516 0)"/>
     <use xlink:href="#DejaVuSans-73" transform="translate(129.882812 0)"/>
     <use xlink:href="#DejaVuSans-65" transform="translate(181.982422 0)"/>
     <use xlink:href="#DejaVuSans-20" transform="translate(243.505859 0)"/>
     <use xlink:href="#DejaVuSans-50" transform="translate(275.292969 0)"/>
     <use xlink:href="#DejaVuSans-72" transform="translate(333.845703 0)"/>
     <use xlink:href="#DejaVuSans-6f" transform="translate(372.708984 0)"/>
     <use xlink:href="#DejaVuSans-64" transform="translate(433.890625 0)"/>
     <use xlink:href="#DejaVuSans-75" transform="translate(497.367188 0)"/>
     <use xlink:href="#DejaVuSans-63" transform="translate(560.746094 0)"/>
     <use xlink:href="#DejaVuSans-74" transform="translate(615.726562 0)"/>
     <use xlink:href="#DejaVuSans-3a" transform="translate(654.935547 0)"/>
     <use xlink:href="#DejaVuSans-20" transform="translate(688.626953 0)"/>
     <use xlink:href="#DejaVuSans-47" transform="translate(720.414062 0)"/>
     <use xlink:href="#DejaVuSans-72" transform="translate(797.904297 0)"/>
     <use xlink:href="#DejaVuSans-61" transform="translate(839.017578 0)"/>
     <use xlink:href="#DejaVuSans-6e" transform="translate(900.296875 0)"/>
     <use xlink:href="#DejaVuSans-64" transform="translate(963.675781 0)"/>
     <use xlink:href="#DejaVuSans-61" transform="translate(1027.152344 0)"/>
     <use xlink:href="#DejaVuSans-64" transform="translate(1088.431641 0)"/>
     <use xlink:href="#DejaVuSans-64" transform="translate(1151.908203 0)"/>
     <use xlink:href="#DejaVuSans-79" transform="translate(1215.384766 0)"/>
     <use xlink:href="#DejaVuSans-20" transform="translate(1274.564453 0)"/>
     <use xlink:href="#DejaVuSans-50" transform="translate(1306.351562 0)"/>
     <use xlink:href="#DejaVuSans-75" transform="translate(1364.904297 0)"/>
     <use xlink:href="#DejaVuSans-72" transform="translate(1428.283203 0)"/>
     <use xlink:href="#DejaVuSans-70" transform="translate(1469.396484 0)"/>
     <use xlink:href="#DejaVuSans-6c" transform="translate(1532.873047 0)"/>
     <use xlink:href="#DejaVuSans-65" transform="translate(1560.65625 0)"/>
     <use xlink:href="#DejaVuSans-2c" transform="translate(1622.179688 0)"/>
     <use xlink:href="#DejaVuSans-20" transform="translate(1653.966797 0)"/>
     <use xlink:href="#DejaVuSans-52" transform="translate(1685.753906 0)"/>
     <use xlink:href="#DejaVuSans-65" transform="translate(1750.736328 0)"/>
     <use xlink:href="#DejaVuSans-63" transform="translate(1812.259766 0)"/>
     <use xlink:href="#DejaVuSans-69" transform="translate(1867.240234 0)"/>
     <use xlink:href="#DejaVuSans-70" transform="translate(1895.023438 0)"/>
     <use xlink:href="#DejaVuSans-65" transform="translate(1958.5 0)"/>
     <use xlink:href="#DejaVuSans-20" transform="translate(2020.023438 0)"/>
     <use xlink:href="#DejaVuSans-73" transform="translate(2051.810547 0)"/>
     <use xlink:href="#DejaVuSans-69" transform="translate(2103.910156 0)"/>
     <use xlink:href="#DejaVuSans-7a" transform="translate(2131.693359 0)"/>
     <use xlink:href="#DejaVuSans-65" transform="translate(2184.183594 0)"/>
     <use xlink:href="#DejaVuSans-3a" transform="translate(2245.707031 0)"/>
     <use xlink:href="#DejaVuSans-20" transform="translate(2279.398438 0)"/>
     <use xlink:href="#DejaVuSans-37" transform="translate(2311.185547 0)"/>
     <use xlink:href="#DejaVuSans-2c" transform="translate(2374.808594 0)"/>
     <use xlink:href="#DejaVuSans-20" transform="translate(2406.595703 0)"/>
     <use xlink:href="#DejaVuSans-54" transform="translate(2438.382812 0)"/>
     <use xlink:href="#DejaVuSans-30" transform="translate(2499.466797 0)"/>
     <use xlink:href="#DejaVuSans-3a" transform="translate(2563.089844 0)"/>
     <use xlink:href="#DejaVuSans-20" transform="translate(2596.78125 0)"/>
     <use xlink:href="#DejaVuSans-35" transform="translate(2628.568359 0)"/>
     <use xlink:href="#DejaVuSans-30" transform="translate(2692.191406 0)"/>
     <use xlink:href="#DejaVuSans-2e" transform="translate(2755.814453 0)"/>
     <use xlink:href="#DejaVuSans-30" transform="translate(2787.601562 0)"/>
    </g>
   </g>
  </g>
 </g>
 <defs>
  <clipPath id="pc991c7606c">
   <rect x="50.87" y="43.44" width="793.996" height="346.6"/>
  </clipPath>
 </defs>
</svg>
