<?xml version="1.0" encoding="utf-8" standalone="no"?>
<!DOCTYPE svg PUBLIC "-//W3C//DTD SVG 1.1//EN"
  "http://www.w3.org/Graphics/SVG/1.1/DTD/svg11.dtd">
<svg xmlns:xlink="http://www.w3.org/1999/xlink" width="864pt" height="432pt" viewBox="0 0 864 432" xmlns="http://www.w3.org/2000/svg" version="1.1">
 <metadata>
  <rdf:RDF xmlns:dc="http://purl.org/dc/elements/1.1/" xmlns:cc="http://creativecommons.org/ns#" xmlns:rdf="http://www.w3.org/1999/02/22-rdf-syntax-ns#">
   <cc:Work>
    <dc:type rdf:resource="http://purl.org/dc/dcmitype/StillImage"/>
    <dc:date>2025-05-24T02:13:11.430561</dc:date>
    <dc:format>image/svg+xml</dc:format>
    <dc:creator>
     <cc:Agent>
      <dc:title>Matplotlib v3.10.3, https://matplotlib.org/</dc:title>
     </cc:Agent>
    </dc:creator>
   </cc:Work>
  </rdf:RDF>
 </metadata>
 <defs>
  <style type="text/css">*{stroke-linejoin: round; stroke-linecap: butt}</style>
 </defs>
 <g id="figure_1">
  <g id="patch_1">
   <path d="M 0 432 
L 864 432 
L 864 0 
L 0 0 
z
" style="fill: #ffffff"/>
  </g>
  <g id="axes_1">
   <g id="patch_2">
    <path d="M 50.87 390.04 
L 844.866 390.04 
L 844.866 43.44 
L 50.87 43.44 
z
" style="fill: #ffffff"/>
   </g>
   <g id="FillBetweenPolyCollection_1">
    <defs>
     <path id="m73d5e524dd" d="M 52.193327 -300.722442 
L 52.193327 -57.714545 
L 54.83998 -58.465047 
L 57.486633 -64.667544 
L 60.133287 -70.14824 
L 62.77994 -75.774762 
L 65.426593 -82.557747 
L 68.073247 -88.483268 
L 70.7199 -93.939016 
L 73.366553 -98.17596 
L 76.013207 -102.645227 
L 78.65986 -106.985318 
L 81.306513 -110.879759 
L 83.953167 -114.32112 
L 86.59982 -118.445096 
L 89.246473 -121.394911 
L 91.893127 -125.375334 
L 94.53978 -127.335108 
L 97.186433 -128.677172 
L 99.833087 -131.190246 
L 102.47974 -133.991425 
L 105.126393 -135.724558 
L 107.773047 -136.816447 
L 110.4197 -138.535321 
L 113.066353 -140.356313 
L 115.713007 -142.277963 
L 118.35966 -143.142568 
L 121.006313 -145.441715 
L 123.652967 -146.527762 
L 126.29962 -148.807064 
L 128.946273 -150.188013 
L 131.592927 -150.964727 
L 134.23958 -152.184346 
L 136.886233 -153.02173 
L 139.532887 -154.750703 
L 142.17954 -155.333207 
L 144.826193 -155.483461 
L 147.472847 -157.387144 
L 150.1195 -157.894568 
L 152.766153 -159.040094 
L 155.412807 -159.877403 
L 158.05946 -160.932916 
L 160.706113 -161.269008 
L 163.352767 -162.982104 
L 165.99942 -163.999107 
L 168.646073 -165.471774 
L 171.292727 -166.298147 
L 173.93938 -166.408348 
L 176.586033 -166.752631 
L 179.232687 -167.585652 
L 181.87934 -168.603802 
L 184.525993 -169.225962 
L 187.172647 -170.090224 
L 189.8193 -170.699712 
L 192.465953 -170.167415 
L 195.112607 -170.919771 
L 197.75926 -172.49433 
L 200.405913 -172.388975 
L 203.052567 -172.905169 
L 205.69922 -173.881572 
L 208.345873 -174.51531 
L 210.992527 -175.186358 
L 213.63918 -175.041239 
L 216.285833 -176.194131 
L 218.932487 -176.594463 
L 221.57914 -177.57524 
L 224.225793 -178.000059 
L 226.872447 -178.455851 
L 229.5191 -179.233358 
L 232.165753 -179.739518 
L 234.812407 -180.050812 
L 237.45906 -180.181051 
L 240.105713 -180.72855 
L 242.752367 -181.380557 
L 245.39902 -181.93882 
L 248.045673 -182.516145 
L 250.692327 -182.689525 
L 253.33898 -182.559351 
L 255.985633 -182.540375 
L 258.632287 -182.587847 
L 261.27894 -182.256033 
L 263.925593 -183.262948 
L 266.572247 -184.146185 
L 269.2189 -184.389959 
L 271.865553 -184.86001 
L 274.512207 -185.09064 
L 277.15886 -185.391449 
L 279.805513 -185.717431 
L 282.452167 -185.510045 
L 285.09882 -185.15563 
L 287.745473 -185.739946 
L 290.392127 -186.24038 
L 293.03878 -186.601698 
L 295.685433 -186.364443 
L 298.332087 -186.705778 
L 300.97874 -187.332848 
L 303.625393 -187.876616 
L 306.272047 -188.146313 
L 308.9187 -188.897983 
L 311.565353 -189.348479 
L 314.212007 -189.918149 
L 316.85866 -190.197238 
L 319.505313 -190.780738 
L 322.151967 -191.170382 
L 324.79862 -191.538948 
L 327.445273 -191.467803 
L 330.091927 -191.570467 
L 332.73858 -191.592424 
L 335.385233 -191.95385 
L 338.031887 -191.826399 
L 340.67854 -192.236112 
L 343.325193 -192.885889 
L 345.971847 -193.00084 
L 348.6185 -193.329159 
L 351.265153 -193.420223 
L 353.911807 -194.056106 
L 356.55846 -194.91297 
L 359.205113 -195.324463 
L 361.851767 -195.504168 
L 364.49842 -195.751866 
L 367.145073 -195.18985 
L 369.791727 -195.448462 
L 372.43838 -195.486929 
L 375.085033 -196.11921 
L 377.731687 -195.769705 
L 380.37834 -196.016288 
L 383.024993 -196.231608 
L 385.671647 -196.683519 
L 388.3183 -196.893115 
L 390.964953 -197.216738 
L 393.611607 -197.318437 
L 396.25826 -196.968526 
L 398.904913 -196.981541 
L 401.551567 -196.91164 
L 404.19822 -197.605653 
L 406.844873 -197.497757 
L 409.491527 -197.389625 
L 412.13818 -197.158716 
L 414.784833 -197.491689 
L 417.431487 -197.762887 
L 420.07814 -198.341498 
L 422.724793 -198.603926 
L 425.371447 -198.533061 
L 428.0181 -199.33855 
L 430.664753 -199.352659 
L 433.311407 -199.321225 
L 435.95806 -199.659043 
L 438.604713 -199.856245 
L 441.251367 -200.240528 
L 443.89802 -201.011109 
L 446.544673 -201.233055 
L 449.191327 -202.0147 
L 451.83798 -201.915317 
L 454.484633 -202.253457 
L 457.131287 -202.386783 
L 459.77794 -202.532588 
L 462.424593 -202.279637 
L 465.071247 -202.361953 
L 467.7179 -202.337981 
L 470.364553 -202.916786 
L 473.011207 -203.063406 
L 475.65786 -203.362071 
L 478.304513 -203.445695 
L 480.951167 -203.834823 
L 483.59782 -204.278779 
L 486.244473 -204.186858 
L 488.891127 -204.428573 
L 491.53778 -205.000259 
L 494.184433 -205.017262 
L 496.831087 -205.431757 
L 499.47774 -205.73529 
L 502.124393 -205.913215 
L 504.771047 -206.200409 
L 507.4177 -205.957707 
L 510.064353 -205.917332 
L 512.711007 -205.81381 
L 515.35766 -205.658484 
L 518.004313 -206.064724 
L 520.650967 -206.103362 
L 523.29762 -206.132845 
L 525.944273 -206.178259 
L 528.590927 -206.639862 
L 531.23758 -206.950342 
L 533.884233 -206.431124 
L 536.530887 -206.26452 
L 539.17754 -206.30719 
L 541.824193 -206.269152 
L 544.470847 -206.692888 
L 547.1175 -206.48207 
L 549.764153 -206.85679 
L 552.410807 -206.909924 
L 555.05746 -206.856426 
L 557.704113 -207.538624 
L 560.350767 -207.469859 
L 562.99742 -207.148959 
L 565.644073 -207.845265 
L 568.290727 -207.586804 
L 570.93738 -208.303995 
L 573.584033 -208.593719 
L 576.230687 -208.891955 
L 578.87734 -209.045544 
L 581.523993 -209.307114 
L 584.170647 -209.437674 
L 586.8173 -209.399851 
L 589.463953 -209.502429 
L 592.110607 -209.444128 
L 594.75726 -210.155359 
L 597.403913 -210.238982 
L 600.050567 -210.121759 
L 602.69722 -209.84132 
L 605.343873 -210.202295 
L 607.990527 -209.533391 
L 610.63718 -209.521727 
L 613.283833 -210.011376 
L 615.930487 -210.557974 
L 618.57714 -210.351788 
L 621.223793 -210.832432 
L 623.870447 -210.958854 
L 626.5171 -210.47598 
L 629.163753 -210.569939 
L 631.810407 -210.800397 
L 634.45706 -211.618559 
L 637.103713 -211.889199 
L 639.750367 -212.037127 
L 642.39702 -211.622997 
L 645.043673 -211.431971 
L 647.690327 -211.333059 
L 650.33698 -211.166883 
L 652.983633 -211.360526 
L 655.630287 -211.939909 
L 658.27694 -212.223651 
L 660.923593 -212.29784 
L 663.570247 -212.199722 
L 666.2169 -212.456125 
L 668.863553 -212.463394 
L 671.510207 -212.176007 
L 674.15686 -212.170282 
L 676.803513 -212.022847 
L 679.450167 -211.98601 
L 682.09682 -212.453852 
L 684.743473 -212.567966 
L 687.390127 -213.026588 
L 690.03678 -213.121448 
L 692.683433 -213.50869 
L 695.330087 -213.636098 
L 697.97674 -213.740413 
L 700.623393 -214.045146 
L 703.270047 -214.269751 
L 705.9167 -214.250861 
L 708.563353 -214.385623 
L 711.210007 -214.957716 
L 713.85666 -214.832345 
L 716.503313 -214.912367 
L 719.149967 -215.268068 
L 721.79662 -215.204128 
L 724.443273 -214.986727 
L 727.089927 -215.523334 
L 729.73658 -215.184122 
L 732.383233 -215.926658 
L 735.029887 -215.789879 
L 737.67654 -215.949601 
L 740.323193 -215.518445 
L 742.969847 -215.487269 
L 745.6165 -215.739769 
L 748.263153 -215.164953 
L 750.909807 -215.68119 
L 753.55646 -215.221903 
L 756.203113 -215.20104 
L 758.849767 -215.574902 
L 761.49642 -216.03391 
L 764.143073 -215.962637 
L 766.789727 -216.175299 
L 769.43638 -216.262696 
L 772.083033 -216.361887 
L 774.729687 -216.393749 
L 777.37634 -216.054087 
L 780.022993 -216.674296 
L 782.669647 -216.383972 
L 785.3163 -216.80402 
L 787.962953 -216.501731 
L 790.609607 -216.483377 
L 793.25626 -216.868603 
L 795.902913 -217.206143 
L 798.549567 -217.791594 
L 801.19622 -218.019437 
L 803.842873 -217.683999 
L 806.489527 -217.769402 
L 809.13618 -218.06871 
L 811.782833 -218.079281 
L 814.429487 -218.341838 
L 817.07614 -218.181259 
L 819.722793 -218.09354 
L 822.369447 -218.138654 
L 825.0161 -218.545022 
L 827.662753 -218.751208 
L 830.309407 -218.773658 
L 832.95606 -218.787038 
L 835.602713 -218.727451 
L 838.249367 -218.77012 
L 840.89602 -218.813476 
L 843.542673 -218.856617 
L 843.542673 -372.546564 
L 843.542673 -372.546564 
L 840.89602 -372.562388 
L 838.249367 -372.532798 
L 835.602713 -372.377644 
L 832.95606 -372.250879 
L 830.309407 -372.239687 
L 827.662753 -372.11468 
L 825.0161 -372.088735 
L 822.369447 -372.281113 
L 819.722793 -372.193286 
L 817.07614 -372.075613 
L 814.429487 -371.919815 
L 811.782833 -372.171115 
L 809.13618 -371.958968 
L 806.489527 -372.112021 
L 803.842873 -372.14204 
L 801.19622 -371.985299 
L 798.549567 -372.037832 
L 795.902913 -372.463284 
L 793.25626 -372.66844 
L 790.609607 -372.805455 
L 787.962953 -372.64434 
L 785.3163 -372.401616 
L 782.669647 -372.671314 
L 780.022993 -372.237071 
L 777.37634 -372.523879 
L 774.729687 -372.178148 
L 772.083033 -372.19736 
L 769.43638 -372.325498 
L 766.789727 -372.293721 
L 764.143073 -372.267861 
L 761.49642 -372.143755 
L 758.849767 -372.286302 
L 756.203113 -372.450118 
L 753.55646 -372.394712 
L 750.909807 -371.934782 
L 748.263153 -372.219874 
L 745.6165 -371.711142 
L 742.969847 -371.876631 
L 740.323193 -371.849357 
L 737.67654 -371.416744 
L 735.029887 -371.235388 
L 732.383233 -370.97148 
L 729.73658 -371.28702 
L 727.089927 -370.92954 
L 724.443273 -371.078947 
L 721.79662 -370.971308 
L 719.149967 -370.857023 
L 716.503313 -370.909341 
L 713.85666 -370.787679 
L 711.210007 -370.581108 
L 708.563353 -370.816197 
L 705.9167 -370.872247 
L 703.270047 -370.736733 
L 700.623393 -370.867701 
L 697.97674 -371.04018 
L 695.330087 -371.003772 
L 692.683433 -371.009561 
L 690.03678 -371.051073 
L 687.390127 -371.080062 
L 684.743473 -371.248768 
L 682.09682 -371.205283 
L 679.450167 -371.410783 
L 676.803513 -371.465289 
L 674.15686 -371.231743 
L 671.510207 -371.007245 
L 668.863553 -370.64256 
L 666.2169 -370.525401 
L 663.570247 -370.729915 
L 660.923593 -370.538009 
L 658.27694 -370.431914 
L 655.630287 -370.599976 
L 652.983633 -370.950896 
L 650.33698 -370.871003 
L 647.690327 -370.703927 
L 645.043673 -370.537709 
L 642.39702 -370.193866 
L 639.750367 -369.731834 
L 637.103713 -369.662662 
L 634.45706 -369.826736 
L 631.810407 -370.290097 
L 629.163753 -370.448467 
L 626.5171 -370.415661 
L 623.870447 -370.21638 
L 621.223793 -370.109684 
L 618.57714 -370.282078 
L 615.930487 -370.065685 
L 613.283833 -370.210848 
L 610.63718 -370.448811 
L 607.990527 -370.294343 
L 605.343873 -369.820304 
L 602.69722 -369.973228 
L 600.050567 -369.725101 
L 597.403913 -369.634359 
L 594.75726 -369.562014 
L 592.110607 -369.834713 
L 589.463953 -369.625267 
L 586.8173 -369.434691 
L 584.170647 -369.144367 
L 581.523993 -369.102855 
L 578.87734 -369.272804 
L 576.230687 -369.171169 
L 573.584033 -369.317189 
L 570.93738 -369.296262 
L 568.290727 -369.457463 
L 565.644073 -369.217827 
L 562.99742 -369.685476 
L 560.350767 -369.303037 
L 557.704113 -369.068291 
L 555.05746 -369.454075 
L 552.410807 -369.230521 
L 549.764153 -369.298706 
L 547.1175 -369.493914 
L 544.470847 -369.261183 
L 541.824193 -369.527792 
L 539.17754 -369.390135 
L 536.530887 -369.06992 
L 533.884233 -368.655061 
L 531.23758 -368.083761 
L 528.590927 -368.046152 
L 525.944273 -368.249336 
L 523.29762 -368.075613 
L 520.650967 -367.989888 
L 518.004313 -367.88062 
L 515.35766 -367.797039 
L 512.711007 -367.51675 
L 510.064353 -367.447707 
L 507.4177 -367.32523 
L 504.771047 -367.185128 
L 502.124393 -367.128693 
L 499.47774 -367.200738 
L 496.831087 -367.28642 
L 494.184433 -367.398476 
L 491.53778 -367.104807 
L 488.891127 -367.402078 
L 486.244473 -367.565981 
L 483.59782 -367.219822 
L 480.951167 -367.18054 
L 478.304513 -367.247353 
L 475.65786 -367.212531 
L 473.011207 -367.232301 
L 470.364553 -367.216005 
L 467.7179 -367.556546 
L 465.071247 -367.271668 
L 462.424593 -367.286806 
L 459.77794 -367.036922 
L 457.131287 -366.948881 
L 454.484633 -366.779875 
L 451.83798 -367.060336 
L 449.191327 -366.96835 
L 446.544673 -367.296284 
L 443.89802 -367.121017 
L 441.251367 -367.571298 
L 438.604713 -367.677222 
L 435.95806 -367.545139 
L 433.311407 -367.587337 
L 430.664753 -367.393716 
L 428.0181 -367.202797 
L 425.371447 -367.708741 
L 422.724793 -367.464088 
L 420.07814 -367.387112 
L 417.431487 -367.439687 
L 414.784833 -367.405166 
L 412.13818 -367.378792 
L 409.491527 -367.064667 
L 406.844873 -366.828677 
L 404.19822 -366.57772 
L 401.551567 -366.838412 
L 398.904913 -366.705986 
L 396.25826 -366.311111 
L 393.611607 -365.920095 
L 390.964953 -365.98768 
L 388.3183 -365.967482 
L 385.671647 -365.766142 
L 383.024993 -365.739082 
L 380.37834 -365.601296 
L 377.731687 -365.611931 
L 375.085033 -365.073352 
L 372.43838 -365.272505 
L 369.791727 -364.771706 
L 367.145073 -364.816091 
L 364.49842 -364.232055 
L 361.851767 -364.103188 
L 359.205113 -364.116911 
L 356.55846 -364.268635 
L 353.911807 -364.58396 
L 351.265153 -364.70961 
L 348.6185 -364.544893 
L 345.971847 -364.52834 
L 343.325193 -364.391497 
L 340.67854 -364.61162 
L 338.031887 -364.543521 
L 335.385233 -364.05623 
L 332.73858 -364.023124 
L 330.091927 -363.752355 
L 327.445273 -363.350532 
L 324.79862 -363.164116 
L 322.151967 -363.138042 
L 319.505313 -363.067155 
L 316.85866 -363.307949 
L 314.212007 -363.319056 
L 311.565353 -363.150951 
L 308.9187 -363.488747 
L 306.272047 -363.78975 
L 303.625393 -363.640771 
L 300.97874 -363.657667 
L 298.332087 -363.486517 
L 295.685433 -363.294955 
L 293.03878 -362.901923 
L 290.392127 -362.746083 
L 287.745473 -362.557051 
L 285.09882 -362.764952 
L 282.452167 -362.197726 
L 279.805513 -361.692639 
L 277.15886 -361.530795 
L 274.512207 -361.517544 
L 271.865553 -361.325853 
L 269.2189 -361.057914 
L 266.572247 -360.846196 
L 263.925593 -361.040289 
L 261.27894 -361.487697 
L 258.632287 -360.77428 
L 255.985633 -360.302985 
L 253.33898 -359.975781 
L 250.692327 -359.487847 
L 248.045673 -359.283505 
L 245.39902 -359.114457 
L 242.752367 -358.949954 
L 240.105713 -358.988035 
L 237.45906 -358.765682 
L 234.812407 -358.371921 
L 232.165753 -358.312184 
L 229.5191 -358.33101 
L 226.872447 -358.282144 
L 224.225793 -358.148711 
L 221.57914 -358.12268 
L 218.932487 -358.247772 
L 216.285833 -357.989997 
L 213.63918 -357.718242 
L 210.992527 -356.769306 
L 208.345873 -356.738601 
L 205.69922 -356.531386 
L 203.052567 -356.683216 
L 200.405913 -356.2452 
L 197.75926 -355.644675 
L 195.112607 -356.243956 
L 192.465953 -355.990469 
L 189.8193 -354.792914 
L 187.172647 -354.406036 
L 184.525993 -354.421282 
L 181.87934 -353.974002 
L 179.232687 -353.96787 
L 176.586033 -353.758296 
L 173.93938 -352.926305 
L 171.292727 -352.043453 
L 168.646073 -351.63344 
L 165.99942 -351.917331 
L 163.352767 -351.932126 
L 160.706113 -352.278971 
L 158.05946 -351.215171 
L 155.412807 -351.270255 
L 152.766153 -350.896222 
L 150.1195 -350.806165 
L 147.472847 -350.587007 
L 144.826193 -350.762724 
L 142.17954 -349.463727 
L 139.532887 -348.814592 
L 136.886233 -348.771773 
L 134.23958 -347.849918 
L 131.592927 -347.141947 
L 128.946273 -346.661476 
L 126.29962 -346.370723 
L 123.652967 -346.524633 
L 121.006313 -345.814432 
L 118.35966 -345.246649 
L 115.713007 -344.056019 
L 113.066353 -343.585196 
L 110.4197 -342.77514 
L 107.773047 -342.180683 
L 105.126393 -340.733114 
L 102.47974 -339.526939 
L 99.833087 -339.31312 
L 97.186433 -337.989872 
L 94.53978 -336.146184 
L 91.893127 -334.593078 
L 89.246473 -334.228242 
L 86.59982 -332.9491 
L 83.953167 -332.432778 
L 81.306513 -330.691154 
L 78.65986 -329.371401 
L 76.013207 -327.293759 
L 73.366553 -325.261597 
L 70.7199 -322.412495 
L 68.073247 -319.640349 
L 65.426593 -316.832223 
L 62.77994 -314.058296 
L 60.133287 -309.515579 
L 57.486633 -304.767856 
L 54.83998 -300.313908 
L 52.193327 -300.722442 
z
" style="stroke: #0000ff; stroke-opacity: 0.2"/>
    </defs>
    <g clip-path="url(#pf127f00eef)">
     <use xlink:href="#m73d5e524dd" x="0" y="432" style="fill: #0000ff; fill-opacity: 0.2; stroke: #0000ff; stroke-opacity: 0.2"/>
    </g>
   </g>
   <g id="matplotlib.axis_1">
    <g id="xtick_1">
     <g id="line2d_1">
      <defs>
       <path id="mde2fa03814" d="M 0 0 
L 0 3.5 
" style="stroke: #000000; stroke-width: 0.8"/>
      </defs>
      <g>
       <use xlink:href="#mde2fa03814" x="181.87934" y="390.04" style="stroke: #000000; stroke-width: 0.8"/>
      </g>
     </g>
     <g id="text_1">
      <!-- 50 -->
      <g transform="translate(175.51684 404.638438) scale(0.1 -0.1)">
       <defs>
        <path id="DejaVuSans-35" d="M 691 4666 
L 3169 4666 
L 3169 4134 
L 1269 4134 
L 1269 2991 
Q 1406 3038 1543 3061 
Q 1681 3084 1819 3084 
Q 2600 3084 3056 2656 
Q 3513 2228 3513 1497 
Q 3513 744 3044 326 
Q 2575 -91 1722 -91 
Q 1428 -91 1123 -41 
Q 819 9 494 109 
L 494 744 
Q 775 591 1075 516 
Q 1375 441 1709 441 
Q 2250 441 2565 725 
Q 2881 1009 2881 1497 
Q 2881 1984 2565 2268 
Q 2250 2553 1709 2553 
Q 1456 2553 1204 2497 
Q 953 2441 691 2322 
L 691 4666 
z
" transform="scale(0.015625)"/>
        <path id="DejaVuSans-30" d="M 2034 4250 
Q 1547 4250 1301 3770 
Q 1056 3291 1056 2328 
Q 1056 1369 1301 889 
Q 1547 409 2034 409 
Q 2525 409 2770 889 
Q 3016 1369 3016 2328 
Q 3016 3291 2770 3770 
Q 2525 4250 2034 4250 
z
M 2034 4750 
Q 2819 4750 3233 4129 
Q 3647 3509 3647 2328 
Q 3647 1150 3233 529 
Q 2819 -91 2034 -91 
Q 1250 -91 836 529 
Q 422 1150 422 2328 
Q 422 3509 836 4129 
Q 1250 4750 2034 4750 
z
" transform="scale(0.015625)"/>
       </defs>
       <use xlink:href="#DejaVuSans-35"/>
       <use xlink:href="#DejaVuSans-30" transform="translate(63.623047 0)"/>
      </g>
     </g>
    </g>
    <g id="xtick_2">
     <g id="line2d_2">
      <g>
       <use xlink:href="#mde2fa03814" x="314.212007" y="390.04" style="stroke: #000000; stroke-width: 0.8"/>
      </g>
     </g>
     <g id="text_2">
      <!-- 100 -->
      <g transform="translate(304.668257 404.638438) scale(0.1 -0.1)">
       <defs>
        <path id="DejaVuSans-31" d="M 794 531 
L 1825 531 
L 1825 4091 
L 703 3866 
L 703 4441 
L 1819 4666 
L 2450 4666 
L 2450 531 
L 3481 531 
L 3481 0 
L 794 0 
L 794 531 
z
" transform="scale(0.015625)"/>
       </defs>
       <use xlink:href="#DejaVuSans-31"/>
       <use xlink:href="#DejaVuSans-30" transform="translate(63.623047 0)"/>
       <use xlink:href="#DejaVuSans-30" transform="translate(127.246094 0)"/>
      </g>
     </g>
    </g>
    <g id="xtick_3">
     <g id="line2d_3">
      <g>
       <use xlink:href="#mde2fa03814" x="446.544673" y="390.04" style="stroke: #000000; stroke-width: 0.8"/>
      </g>
     </g>
     <g id="text_3">
      <!-- 150 -->
      <g transform="translate(437.000923 404.638438) scale(0.1 -0.1)">
       <use xlink:href="#DejaVuSans-31"/>
       <use xlink:href="#DejaVuSans-35" transform="translate(63.623047 0)"/>
       <use xlink:href="#DejaVuSans-30" transform="translate(127.246094 0)"/>
      </g>
     </g>
    </g>
    <g id="xtick_4">
     <g id="line2d_4">
      <g>
       <use xlink:href="#mde2fa03814" x="578.87734" y="390.04" style="stroke: #000000; stroke-width: 0.8"/>
      </g>
     </g>
     <g id="text_4">
      <!-- 200 -->
      <g transform="translate(569.33359 404.638438) scale(0.1 -0.1)">
       <defs>
        <path id="DejaVuSans-32" d="M 1228 531 
L 3431 531 
L 3431 0 
L 469 0 
L 469 531 
Q 828 903 1448 1529 
Q 2069 2156 2228 2338 
Q 2531 2678 2651 2914 
Q 2772 3150 2772 3378 
Q 2772 3750 2511 3984 
Q 2250 4219 1831 4219 
Q 1534 4219 1204 4116 
Q 875 4013 500 3803 
L 500 4441 
Q 881 4594 1212 4672 
Q 1544 4750 1819 4750 
Q 2544 4750 2975 4387 
Q 3406 4025 3406 3419 
Q 3406 3131 3298 2873 
Q 3191 2616 2906 2266 
Q 2828 2175 2409 1742 
Q 1991 1309 1228 531 
z
" transform="scale(0.015625)"/>
       </defs>
       <use xlink:href="#DejaVuSans-32"/>
       <use xlink:href="#DejaVuSans-30" transform="translate(63.623047 0)"/>
       <use xlink:href="#DejaVuSans-30" transform="translate(127.246094 0)"/>
      </g>
     </g>
    </g>
    <g id="xtick_5">
     <g id="line2d_5">
      <g>
       <use xlink:href="#mde2fa03814" x="711.210007" y="390.04" style="stroke: #000000; stroke-width: 0.8"/>
      </g>
     </g>
     <g id="text_5">
      <!-- 250 -->
      <g transform="translate(701.666257 404.638438) scale(0.1 -0.1)">
       <use xlink:href="#DejaVuSans-32"/>
       <use xlink:href="#DejaVuSans-35" transform="translate(63.623047 0)"/>
       <use xlink:href="#DejaVuSans-30" transform="translate(127.246094 0)"/>
      </g>
     </g>
    </g>
    <g id="xtick_6">
     <g id="line2d_6">
      <g>
       <use xlink:href="#mde2fa03814" x="843.542673" y="390.04" style="stroke: #000000; stroke-width: 0.8"/>
      </g>
     </g>
     <g id="text_6">
      <!-- 300 -->
      <g transform="translate(833.998923 404.638438) scale(0.1 -0.1)">
       <defs>
        <path id="DejaVuSans-33" d="M 2597 2516 
Q 3050 2419 3304 2112 
Q 3559 1806 3559 1356 
Q 3559 666 3084 287 
Q 2609 -91 1734 -91 
Q 1441 -91 1130 -33 
Q 819 25 488 141 
L 488 750 
Q 750 597 1062 519 
Q 1375 441 1716 441 
Q 2309 441 2620 675 
Q 2931 909 2931 1356 
Q 2931 1769 2642 2001 
Q 2353 2234 1838 2234 
L 1294 2234 
L 1294 2753 
L 1863 2753 
Q 2328 2753 2575 2939 
Q 2822 3125 2822 3475 
Q 2822 3834 2567 4026 
Q 2313 4219 1838 4219 
Q 1578 4219 1281 4162 
Q 984 4106 628 3988 
L 628 4550 
Q 988 4650 1302 4700 
Q 1616 4750 1894 4750 
Q 2613 4750 3031 4423 
Q 3450 4097 3450 3541 
Q 3450 3153 3228 2886 
Q 3006 2619 2597 2516 
z
" transform="scale(0.015625)"/>
       </defs>
       <use xlink:href="#DejaVuSans-33"/>
       <use xlink:href="#DejaVuSans-30" transform="translate(63.623047 0)"/>
       <use xlink:href="#DejaVuSans-30" transform="translate(127.246094 0)"/>
      </g>
     </g>
    </g>
    <g id="text_7">
     <!-- Step -->
     <g transform="translate(436.482844 418.316562) scale(0.1 -0.1)">
      <defs>
       <path id="DejaVuSans-53" d="M 3425 4513 
L 3425 3897 
Q 3066 4069 2747 4153 
Q 2428 4238 2131 4238 
Q 1616 4238 1336 4038 
Q 1056 3838 1056 3469 
Q 1056 3159 1242 3001 
Q 1428 2844 1947 2747 
L 2328 2669 
Q 3034 2534 3370 2195 
Q 3706 1856 3706 1288 
Q 3706 609 3251 259 
Q 2797 -91 1919 -91 
Q 1588 -91 1214 -16 
Q 841 59 441 206 
L 441 856 
Q 825 641 1194 531 
Q 1563 422 1919 422 
Q 2459 422 2753 634 
Q 3047 847 3047 1241 
Q 3047 1584 2836 1778 
Q 2625 1972 2144 2069 
L 1759 2144 
Q 1053 2284 737 2584 
Q 422 2884 422 3419 
Q 422 4038 858 4394 
Q 1294 4750 2059 4750 
Q 2388 4750 2728 4690 
Q 3069 4631 3425 4513 
z
" transform="scale(0.015625)"/>
       <path id="DejaVuSans-74" d="M 1172 4494 
L 1172 3500 
L 2356 3500 
L 2356 3053 
L 1172 3053 
L 1172 1153 
Q 1172 725 1289 603 
Q 1406 481 1766 481 
L 2356 481 
L 2356 0 
L 1766 0 
Q 1100 0 847 248 
Q 594 497 594 1153 
L 594 3053 
L 172 3053 
L 172 3500 
L 594 3500 
L 594 4494 
L 1172 4494 
z
" transform="scale(0.015625)"/>
       <path id="DejaVuSans-65" d="M 3597 1894 
L 3597 1613 
L 953 1613 
Q 991 1019 1311 708 
Q 1631 397 2203 397 
Q 2534 397 2845 478 
Q 3156 559 3463 722 
L 3463 178 
Q 3153 47 2828 -22 
Q 2503 -91 2169 -91 
Q 1331 -91 842 396 
Q 353 884 353 1716 
Q 353 2575 817 3079 
Q 1281 3584 2069 3584 
Q 2775 3584 3186 3129 
Q 3597 2675 3597 1894 
z
M 3022 2063 
Q 3016 2534 2758 2815 
Q 2500 3097 2075 3097 
Q 1594 3097 1305 2825 
Q 1016 2553 972 2059 
L 3022 2063 
z
" transform="scale(0.015625)"/>
       <path id="DejaVuSans-70" d="M 1159 525 
L 1159 -1331 
L 581 -1331 
L 581 3500 
L 1159 3500 
L 1159 2969 
Q 1341 3281 1617 3432 
Q 1894 3584 2278 3584 
Q 2916 3584 3314 3078 
Q 3713 2572 3713 1747 
Q 3713 922 3314 415 
Q 2916 -91 2278 -91 
Q 1894 -91 1617 61 
Q 1341 213 1159 525 
z
M 3116 1747 
Q 3116 2381 2855 2742 
Q 2594 3103 2138 3103 
Q 1681 3103 1420 2742 
Q 1159 2381 1159 1747 
Q 1159 1113 1420 752 
Q 1681 391 2138 391 
Q 2594 391 2855 752 
Q 3116 1113 3116 1747 
z
" transform="scale(0.015625)"/>
      </defs>
      <use xlink:href="#DejaVuSans-53"/>
      <use xlink:href="#DejaVuSans-74" transform="translate(63.476562 0)"/>
      <use xlink:href="#DejaVuSans-65" transform="translate(102.685547 0)"/>
      <use xlink:href="#DejaVuSans-70" transform="translate(164.208984 0)"/>
     </g>
    </g>
   </g>
   <g id="matplotlib.axis_2">
    <g id="ytick_1">
     <g id="line2d_7">
      <defs>
       <path id="m45e6688ed7" d="M 0 0 
L -3.5 0 
" style="stroke: #000000; stroke-width: 0.8"/>
      </defs>
      <g>
       <use xlink:href="#m45e6688ed7" x="50.87" y="376.656625" style="stroke: #000000; stroke-width: 0.8"/>
      </g>
     </g>
     <g id="text_8">
      <!-- 20 -->
      <g transform="translate(31.145 380.455844) scale(0.1 -0.1)">
       <use xlink:href="#DejaVuSans-32"/>
       <use xlink:href="#DejaVuSans-30" transform="translate(63.623047 0)"/>
      </g>
     </g>
    </g>
    <g id="ytick_2">
     <g id="line2d_8">
      <g>
       <use xlink:href="#m45e6688ed7" x="50.87" y="320.447789" style="stroke: #000000; stroke-width: 0.8"/>
      </g>
     </g>
     <g id="text_9">
      <!-- 40 -->
      <g transform="translate(31.145 324.247008) scale(0.1 -0.1)">
       <defs>
        <path id="DejaVuSans-34" d="M 2419 4116 
L 825 1625 
L 2419 1625 
L 2419 4116 
z
M 2253 4666 
L 3047 4666 
L 3047 1625 
L 3713 1625 
L 3713 1100 
L 3047 1100 
L 3047 0 
L 2419 0 
L 2419 1100 
L 313 1100 
L 313 1709 
L 2253 4666 
z
" transform="scale(0.015625)"/>
       </defs>
       <use xlink:href="#DejaVuSans-34"/>
       <use xlink:href="#DejaVuSans-30" transform="translate(63.623047 0)"/>
      </g>
     </g>
    </g>
    <g id="ytick_3">
     <g id="line2d_9">
      <g>
       <use xlink:href="#m45e6688ed7" x="50.87" y="264.238953" style="stroke: #000000; stroke-width: 0.8"/>
      </g>
     </g>
     <g id="text_10">
      <!-- 60 -->
      <g transform="translate(31.145 268.038172) scale(0.1 -0.1)">
       <defs>
        <path id="DejaVuSans-36" d="M 2113 2584 
Q 1688 2584 1439 2293 
Q 1191 2003 1191 1497 
Q 1191 994 1439 701 
Q 1688 409 2113 409 
Q 2538 409 2786 701 
Q 3034 994 3034 1497 
Q 3034 2003 2786 2293 
Q 2538 2584 2113 2584 
z
M 3366 4563 
L 3366 3988 
Q 3128 4100 2886 4159 
Q 2644 4219 2406 4219 
Q 1781 4219 1451 3797 
Q 1122 3375 1075 2522 
Q 1259 2794 1537 2939 
Q 1816 3084 2150 3084 
Q 2853 3084 3261 2657 
Q 3669 2231 3669 1497 
Q 3669 778 3244 343 
Q 2819 -91 2113 -91 
Q 1303 -91 875 529 
Q 447 1150 447 2328 
Q 447 3434 972 4092 
Q 1497 4750 2381 4750 
Q 2619 4750 2861 4703 
Q 3103 4656 3366 4563 
z
" transform="scale(0.015625)"/>
       </defs>
       <use xlink:href="#DejaVuSans-36"/>
       <use xlink:href="#DejaVuSans-30" transform="translate(63.623047 0)"/>
      </g>
     </g>
    </g>
    <g id="ytick_4">
     <g id="line2d_10">
      <g>
       <use xlink:href="#m45e6688ed7" x="50.87" y="208.030117" style="stroke: #000000; stroke-width: 0.8"/>
      </g>
     </g>
     <g id="text_11">
      <!-- 80 -->
      <g transform="translate(31.145 211.829335) scale(0.1 -0.1)">
       <defs>
        <path id="DejaVuSans-38" d="M 2034 2216 
Q 1584 2216 1326 1975 
Q 1069 1734 1069 1313 
Q 1069 891 1326 650 
Q 1584 409 2034 409 
Q 2484 409 2743 651 
Q 3003 894 3003 1313 
Q 3003 1734 2745 1975 
Q 2488 2216 2034 2216 
z
M 1403 2484 
Q 997 2584 770 2862 
Q 544 3141 544 3541 
Q 544 4100 942 4425 
Q 1341 4750 2034 4750 
Q 2731 4750 3128 4425 
Q 3525 4100 3525 3541 
Q 3525 3141 3298 2862 
Q 3072 2584 2669 2484 
Q 3125 2378 3379 2068 
Q 3634 1759 3634 1313 
Q 3634 634 3220 271 
Q 2806 -91 2034 -91 
Q 1263 -91 848 271 
Q 434 634 434 1313 
Q 434 1759 690 2068 
Q 947 2378 1403 2484 
z
M 1172 3481 
Q 1172 3119 1398 2916 
Q 1625 2713 2034 2713 
Q 2441 2713 2670 2916 
Q 2900 3119 2900 3481 
Q 2900 3844 2670 4047 
Q 2441 4250 2034 4250 
Q 1625 4250 1398 4047 
Q 1172 3844 1172 3481 
z
" transform="scale(0.015625)"/>
       </defs>
       <use xlink:href="#DejaVuSans-38"/>
       <use xlink:href="#DejaVuSans-30" transform="translate(63.623047 0)"/>
      </g>
     </g>
    </g>
    <g id="ytick_5">
     <g id="line2d_11">
      <g>
       <use xlink:href="#m45e6688ed7" x="50.87" y="151.82128" style="stroke: #000000; stroke-width: 0.8"/>
      </g>
     </g>
     <g id="text_12">
      <!-- 100 -->
      <g transform="translate(24.7825 155.620499) scale(0.1 -0.1)">
       <use xlink:href="#DejaVuSans-31"/>
       <use xlink:href="#DejaVuSans-30" transform="translate(63.623047 0)"/>
       <use xlink:href="#DejaVuSans-30" transform="translate(127.246094 0)"/>
      </g>
     </g>
    </g>
    <g id="ytick_6">
     <g id="line2d_12">
      <g>
       <use xlink:href="#m45e6688ed7" x="50.87" y="95.612444" style="stroke: #000000; stroke-width: 0.8"/>
      </g>
     </g>
     <g id="text_13">
      <!-- 120 -->
      <g transform="translate(24.7825 99.411663) scale(0.1 -0.1)">
       <use xlink:href="#DejaVuSans-31"/>
       <use xlink:href="#DejaVuSans-32" transform="translate(63.623047 0)"/>
       <use xlink:href="#DejaVuSans-30" transform="translate(127.246094 0)"/>
      </g>
     </g>
    </g>
    <g id="text_14">
     <!-- Profit -->
     <g transform="translate(18.702813 229.779063) rotate(-90) scale(0.1 -0.1)">
      <defs>
       <path id="DejaVuSans-50" d="M 1259 4147 
L 1259 2394 
L 2053 2394 
Q 2494 2394 2734 2622 
Q 2975 2850 2975 3272 
Q 2975 3691 2734 3919 
Q 2494 4147 2053 4147 
L 1259 4147 
z
M 628 4666 
L 2053 4666 
Q 2838 4666 3239 4311 
Q 3641 3956 3641 3272 
Q 3641 2581 3239 2228 
Q 2838 1875 2053 1875 
L 1259 1875 
L 1259 0 
L 628 0 
L 628 4666 
z
" transform="scale(0.015625)"/>
       <path id="DejaVuSans-72" d="M 2631 2963 
Q 2534 3019 2420 3045 
Q 2306 3072 2169 3072 
Q 1681 3072 1420 2755 
Q 1159 2438 1159 1844 
L 1159 0 
L 581 0 
L 581 3500 
L 1159 3500 
L 1159 2956 
Q 1341 3275 1631 3429 
Q 1922 3584 2338 3584 
Q 2397 3584 2469 3576 
Q 2541 3569 2628 3553 
L 2631 2963 
z
" transform="scale(0.015625)"/>
       <path id="DejaVuSans-6f" d="M 1959 3097 
Q 1497 3097 1228 2736 
Q 959 2375 959 1747 
Q 959 1119 1226 758 
Q 1494 397 1959 397 
Q 2419 397 2687 759 
Q 2956 1122 2956 1747 
Q 2956 2369 2687 2733 
Q 2419 3097 1959 3097 
z
M 1959 3584 
Q 2709 3584 3137 3096 
Q 3566 2609 3566 1747 
Q 3566 888 3137 398 
Q 2709 -91 1959 -91 
Q 1206 -91 779 398 
Q 353 888 353 1747 
Q 353 2609 779 3096 
Q 1206 3584 1959 3584 
z
" transform="scale(0.015625)"/>
       <path id="DejaVuSans-66" d="M 2375 4863 
L 2375 4384 
L 1825 4384 
Q 1516 4384 1395 4259 
Q 1275 4134 1275 3809 
L 1275 3500 
L 2222 3500 
L 2222 3053 
L 1275 3053 
L 1275 0 
L 697 0 
L 697 3053 
L 147 3053 
L 147 3500 
L 697 3500 
L 697 3744 
Q 697 4328 969 4595 
Q 1241 4863 1831 4863 
L 2375 4863 
z
" transform="scale(0.015625)"/>
       <path id="DejaVuSans-69" d="M 603 3500 
L 1178 3500 
L 1178 0 
L 603 0 
L 603 3500 
z
M 603 4863 
L 1178 4863 
L 1178 4134 
L 603 4134 
L 603 4863 
z
" transform="scale(0.015625)"/>
      </defs>
      <use xlink:href="#DejaVuSans-50"/>
      <use xlink:href="#DejaVuSans-72" transform="translate(58.552734 0)"/>
      <use xlink:href="#DejaVuSans-6f" transform="translate(97.416016 0)"/>
      <use xlink:href="#DejaVuSans-66" transform="translate(158.597656 0)"/>
      <use xlink:href="#DejaVuSans-69" transform="translate(193.802734 0)"/>
      <use xlink:href="#DejaVuSans-74" transform="translate(221.585938 0)"/>
     </g>
    </g>
   </g>
   <g id="line2d_13">
    <path d="M 52.193327 252.781501 
L 54.83998 252.610523 
L 60.133287 242.16809 
L 62.77994 237.083471 
L 65.426593 232.30502 
L 68.073247 227.938192 
L 70.7199 223.82425 
L 73.366553 220.281222 
L 78.65986 213.821635 
L 83.953167 208.623051 
L 86.59982 206.302902 
L 91.893127 202.015794 
L 94.53978 200.259354 
L 97.186433 198.666473 
L 99.833087 196.748317 
L 105.126393 193.771164 
L 113.066353 190.02924 
L 115.713007 188.833014 
L 118.35966 187.805386 
L 121.006313 186.371926 
L 123.652967 185.473808 
L 126.29962 184.411101 
L 128.946273 183.57525 
L 131.592927 182.946657 
L 136.886233 181.103248 
L 139.532887 180.217352 
L 144.826193 178.876907 
L 147.472847 178.012925 
L 150.1195 177.649633 
L 155.412807 176.426176 
L 158.05946 175.925956 
L 163.352767 174.542885 
L 168.646073 173.447393 
L 171.292727 172.8292 
L 176.586033 171.744536 
L 187.172647 169.75187 
L 189.8193 169.253687 
L 192.465953 168.921058 
L 197.75926 167.930503 
L 200.405913 167.682913 
L 205.69922 166.793521 
L 213.63918 165.62026 
L 216.285833 164.907936 
L 232.165753 162.974149 
L 237.45906 162.526634 
L 245.39902 161.473361 
L 248.045673 161.100164 
L 261.27894 160.128135 
L 277.15886 158.538878 
L 282.452167 158.146125 
L 287.745473 157.851513 
L 293.03878 157.2482 
L 295.685433 157.170301 
L 298.332087 156.903842 
L 300.97874 156.504742 
L 308.9187 155.806635 
L 311.565353 155.750285 
L 314.212007 155.381398 
L 319.505313 155.076043 
L 324.79862 154.648468 
L 327.445273 154.590832 
L 332.73858 154.192226 
L 348.6185 153.062985 
L 351.265153 152.935083 
L 359.205113 152.279324 
L 369.791727 151.889916 
L 375.085033 151.403719 
L 383.024993 151.014655 
L 390.964953 150.397791 
L 396.25826 150.360182 
L 398.904913 150.156226 
L 401.551567 150.124963 
L 404.19822 149.908314 
L 414.784833 149.551562 
L 420.07814 149.135695 
L 428.0181 148.729327 
L 438.604713 148.233267 
L 446.544673 147.735341 
L 449.191327 147.508464 
L 454.484633 147.483334 
L 459.77794 147.215245 
L 465.071247 147.183189 
L 475.65786 146.71271 
L 480.951167 146.492329 
L 483.59782 146.2507 
L 499.47774 145.531986 
L 502.124393 145.479046 
L 504.771047 145.307231 
L 510.064353 145.317481 
L 515.35766 145.272238 
L 518.004313 145.027328 
L 528.590927 144.657004 
L 531.23758 144.482938 
L 536.530887 144.33278 
L 539.17754 144.151338 
L 557.704113 143.696532 
L 565.644073 143.468454 
L 568.290727 143.477867 
L 570.93738 143.199872 
L 578.87734 142.840826 
L 584.170647 142.708979 
L 597.403913 142.06334 
L 602.69722 142.092716 
L 605.343873 141.988701 
L 607.990527 142.086133 
L 613.283833 141.888888 
L 615.930487 141.68817 
L 618.57714 141.683067 
L 623.870447 141.412383 
L 626.5171 141.554179 
L 637.103713 141.22408 
L 642.39702 141.091569 
L 647.690327 140.981507 
L 650.33698 140.981057 
L 658.27694 140.672228 
L 666.2169 140.509226 
L 690.03678 139.91374 
L 692.683433 139.740875 
L 716.503313 139.089146 
L 719.149967 138.937444 
L 729.73658 138.764429 
L 732.383233 138.550931 
L 745.6165 138.274544 
L 748.263153 138.307586 
L 750.909807 138.192014 
L 756.203113 138.174432 
L 769.43638 137.705903 
L 777.37634 137.711028 
L 782.669647 137.472357 
L 801.19622 136.997632 
L 803.842873 137.086981 
L 809.13618 136.986161 
L 814.429487 136.869173 
L 822.369447 136.790117 
L 830.309407 136.493338 
L 838.249367 136.348541 
L 843.542673 136.298409 
L 843.542673 136.298409 
" clip-path="url(#pf127f00eef)" style="fill: none; stroke: #0000ff; stroke-width: 1.5; stroke-linecap: square"/>
   </g>
   <g id="patch_3">
    <path d="M 50.87 390.04 
L 50.87 43.44 
" style="fill: none; stroke: #000000; stroke-width: 0.8; stroke-linejoin: miter; stroke-linecap: square"/>
   </g>
   <g id="patch_4">
    <path d="M 844.866 390.04 
L 844.866 43.44 
" style="fill: none; stroke: #000000; stroke-width: 0.8; stroke-linejoin: miter; stroke-linecap: square"/>
   </g>
   <g id="patch_5">
    <path d="M 50.87 390.04 
L 844.866 390.04 
" style="fill: none; stroke: #000000; stroke-width: 0.8; stroke-linejoin: miter; stroke-linecap: square"/>
   </g>
   <g id="patch_6">
    <path d="M 50.87 43.44 
L 844.866 43.44 
" style="fill: none; stroke: #000000; stroke-width: 0.8; stroke-linejoin: miter; stroke-linecap: square"/>
   </g>
   <g id="text_15">
    <!-- Mean profit per step with confidence interval per simulation step -->
    <g transform="translate(220.284875 21.763062) scale(0.14 -0.14)">
     <defs>
      <path id="DejaVuSans-4d" d="M 628 4666 
L 1569 4666 
L 2759 1491 
L 3956 4666 
L 4897 4666 
L 4897 0 
L 4281 0 
L 4281 4097 
L 3078 897 
L 2444 897 
L 1241 4097 
L 1241 0 
L 628 0 
L 628 4666 
z
" transform="scale(0.015625)"/>
      <path id="DejaVuSans-61" d="M 2194 1759 
Q 1497 1759 1228 1600 
Q 959 1441 959 1056 
Q 959 750 1161 570 
Q 1363 391 1709 391 
Q 2188 391 2477 730 
Q 2766 1069 2766 1631 
L 2766 1759 
L 2194 1759 
z
M 3341 1997 
L 3341 0 
L 2766 0 
L 2766 531 
Q 2569 213 2275 61 
Q 1981 -91 1556 -91 
Q 1019 -91 701 211 
Q 384 513 384 1019 
Q 384 1609 779 1909 
Q 1175 2209 1959 2209 
L 2766 2209 
L 2766 2266 
Q 2766 2663 2505 2880 
Q 2244 3097 1772 3097 
Q 1472 3097 1187 3025 
Q 903 2953 641 2809 
L 641 3341 
Q 956 3463 1253 3523 
Q 1550 3584 1831 3584 
Q 2591 3584 2966 3190 
Q 3341 2797 3341 1997 
z
" transform="scale(0.015625)"/>
      <path id="DejaVuSans-6e" d="M 3513 2113 
L 3513 0 
L 2938 0 
L 2938 2094 
Q 2938 2591 2744 2837 
Q 2550 3084 2163 3084 
Q 1697 3084 1428 2787 
Q 1159 2491 1159 1978 
L 1159 0 
L 581 0 
L 581 3500 
L 1159 3500 
L 1159 2956 
Q 1366 3272 1645 3428 
Q 1925 3584 2291 3584 
Q 2894 3584 3203 3211 
Q 3513 2838 3513 2113 
z
" transform="scale(0.015625)"/>
      <path id="DejaVuSans-20" transform="scale(0.015625)"/>
      <path id="DejaVuSans-73" d="M 2834 3397 
L 2834 2853 
Q 2591 2978 2328 3040 
Q 2066 3103 1784 3103 
Q 1356 3103 1142 2972 
Q 928 2841 928 2578 
Q 928 2378 1081 2264 
Q 1234 2150 1697 2047 
L 1894 2003 
Q 2506 1872 2764 1633 
Q 3022 1394 3022 966 
Q 3022 478 2636 193 
Q 2250 -91 1575 -91 
Q 1294 -91 989 -36 
Q 684 19 347 128 
L 347 722 
Q 666 556 975 473 
Q 1284 391 1588 391 
Q 1994 391 2212 530 
Q 2431 669 2431 922 
Q 2431 1156 2273 1281 
Q 2116 1406 1581 1522 
L 1381 1569 
Q 847 1681 609 1914 
Q 372 2147 372 2553 
Q 372 3047 722 3315 
Q 1072 3584 1716 3584 
Q 2034 3584 2315 3537 
Q 2597 3491 2834 3397 
z
" transform="scale(0.015625)"/>
      <path id="DejaVuSans-77" d="M 269 3500 
L 844 3500 
L 1563 769 
L 2278 3500 
L 2956 3500 
L 3675 769 
L 4391 3500 
L 4966 3500 
L 4050 0 
L 3372 0 
L 2619 2869 
L 1863 0 
L 1184 0 
L 269 3500 
z
" transform="scale(0.015625)"/>
      <path id="DejaVuSans-68" d="M 3513 2113 
L 3513 0 
L 2938 0 
L 2938 2094 
Q 2938 2591 2744 2837 
Q 2550 3084 2163 3084 
Q 1697 3084 1428 2787 
Q 1159 2491 1159 1978 
L 1159 0 
L 581 0 
L 581 4863 
L 1159 4863 
L 1159 2956 
Q 1366 3272 1645 3428 
Q 1925 3584 2291 3584 
Q 2894 3584 3203 3211 
Q 3513 2838 3513 2113 
z
" transform="scale(0.015625)"/>
      <path id="DejaVuSans-63" d="M 3122 3366 
L 3122 2828 
Q 2878 2963 2633 3030 
Q 2388 3097 2138 3097 
Q 1578 3097 1268 2742 
Q 959 2388 959 1747 
Q 959 1106 1268 751 
Q 1578 397 2138 397 
Q 2388 397 2633 464 
Q 2878 531 3122 666 
L 3122 134 
Q 2881 22 2623 -34 
Q 2366 -91 2075 -91 
Q 1284 -91 818 406 
Q 353 903 353 1747 
Q 353 2603 823 3093 
Q 1294 3584 2113 3584 
Q 2378 3584 2631 3529 
Q 2884 3475 3122 3366 
z
" transform="scale(0.015625)"/>
      <path id="DejaVuSans-64" d="M 2906 2969 
L 2906 4863 
L 3481 4863 
L 3481 0 
L 2906 0 
L 2906 525 
Q 2725 213 2448 61 
Q 2172 -91 1784 -91 
Q 1150 -91 751 415 
Q 353 922 353 1747 
Q 353 2572 751 3078 
Q 1150 3584 1784 3584 
Q 2172 3584 2448 3432 
Q 2725 3281 2906 2969 
z
M 947 1747 
Q 947 1113 1208 752 
Q 1469 391 1925 391 
Q 2381 391 2643 752 
Q 2906 1113 2906 1747 
Q 2906 2381 2643 2742 
Q 2381 3103 1925 3103 
Q 1469 3103 1208 2742 
Q 947 2381 947 1747 
z
" transform="scale(0.015625)"/>
      <path id="DejaVuSans-76" d="M 191 3500 
L 800 3500 
L 1894 563 
L 2988 3500 
L 3597 3500 
L 2284 0 
L 1503 0 
L 191 3500 
z
" transform="scale(0.015625)"/>
      <path id="DejaVuSans-6c" d="M 603 4863 
L 1178 4863 
L 1178 0 
L 603 0 
L 603 4863 
z
" transform="scale(0.015625)"/>
      <path id="DejaVuSans-6d" d="M 3328 2828 
Q 3544 3216 3844 3400 
Q 4144 3584 4550 3584 
Q 5097 3584 5394 3201 
Q 5691 2819 5691 2113 
L 5691 0 
L 5113 0 
L 5113 2094 
Q 5113 2597 4934 2840 
Q 4756 3084 4391 3084 
Q 3944 3084 3684 2787 
Q 3425 2491 3425 1978 
L 3425 0 
L 2847 0 
L 2847 2094 
Q 2847 2600 2669 2842 
Q 2491 3084 2119 3084 
Q 1678 3084 1418 2786 
Q 1159 2488 1159 1978 
L 1159 0 
L 581 0 
L 581 3500 
L 1159 3500 
L 1159 2956 
Q 1356 3278 1631 3431 
Q 1906 3584 2284 3584 
Q 2666 3584 2933 3390 
Q 3200 3197 3328 2828 
z
" transform="scale(0.015625)"/>
      <path id="DejaVuSans-75" d="M 544 1381 
L 544 3500 
L 1119 3500 
L 1119 1403 
Q 1119 906 1312 657 
Q 1506 409 1894 409 
Q 2359 409 2629 706 
Q 2900 1003 2900 1516 
L 2900 3500 
L 3475 3500 
L 3475 0 
L 2900 0 
L 2900 538 
Q 2691 219 2414 64 
Q 2138 -91 1772 -91 
Q 1169 -91 856 284 
Q 544 659 544 1381 
z
M 1991 3584 
L 1991 3584 
z
" transform="scale(0.015625)"/>
     </defs>
     <use xlink:href="#DejaVuSans-4d"/>
     <use xlink:href="#DejaVuSans-65" transform="translate(86.279297 0)"/>
     <use xlink:href="#DejaVuSans-61" transform="translate(147.802734 0)"/>
     <use xlink:href="#DejaVuSans-6e" transform="translate(209.082031 0)"/>
     <use xlink:href="#DejaVuSans-20" transform="translate(272.460938 0)"/>
     <use xlink:href="#DejaVuSans-70" transform="translate(304.248047 0)"/>
     <use xlink:href="#DejaVuSans-72" transform="translate(367.724609 0)"/>
     <use xlink:href="#DejaVuSans-6f" transform="translate(406.587891 0)"/>
     <use xlink:href="#DejaVuSans-66" transform="translate(467.769531 0)"/>
     <use xlink:href="#DejaVuSans-69" transform="translate(502.974609 0)"/>
     <use xlink:href="#DejaVuSans-74" transform="translate(530.757812 0)"/>
     <use xlink:href="#DejaVuSans-20" transform="translate(569.966797 0)"/>
     <use xlink:href="#DejaVuSans-70" transform="translate(601.753906 0)"/>
     <use xlink:href="#DejaVuSans-65" transform="translate(665.230469 0)"/>
     <use xlink:href="#DejaVuSans-72" transform="translate(726.753906 0)"/>
     <use xlink:href="#DejaVuSans-20" transform="translate(767.867188 0)"/>
     <use xlink:href="#DejaVuSans-73" transform="translate(799.654297 0)"/>
     <use xlink:href="#DejaVuSans-74" transform="translate(851.753906 0)"/>
     <use xlink:href="#DejaVuSans-65" transform="translate(890.962891 0)"/>
     <use xlink:href="#DejaVuSans-70" transform="translate(952.486328 0)"/>
     <use xlink:href="#DejaVuSans-20" transform="translate(1015.962891 0)"/>
     <use xlink:href="#DejaVuSans-77" transform="translate(1047.75 0)"/>
     <use xlink:href="#DejaVuSans-69" transform="translate(1129.537109 0)"/>
     <use xlink:href="#DejaVuSans-74" transform="translate(1157.320312 0)"/>
     <use xlink:href="#DejaVuSans-68" transform="translate(1196.529297 0)"/>
     <use xlink:href="#DejaVuSans-20" transform="translate(1259.908203 0)"/>
     <use xlink:href="#DejaVuSans-63" transform="translate(1291.695312 0)"/>
     <use xlink:href="#DejaVuSans-6f" transform="translate(1346.675781 0)"/>
     <use xlink:href="#DejaVuSans-6e" transform="translate(1407.857422 0)"/>
     <use xlink:href="#DejaVuSans-66" transform="translate(1471.236328 0)"/>
     <use xlink:href="#DejaVuSans-69" transform="translate(1506.441406 0)"/>
     <use xlink:href="#DejaVuSans-64" transform="translate(1534.224609 0)"/>
     <use xlink:href="#DejaVuSans-65" transform="translate(1597.701172 0)"/>
     <use xlink:href="#DejaVuSans-6e" transform="translate(1659.224609 0)"/>
     <use xlink:href="#DejaVuSans-63" transform="translate(1722.603516 0)"/>
     <use xlink:href="#DejaVuSans-65" transform="translate(1777.583984 0)"/>
     <use xlink:href="#DejaVuSans-20" transform="translate(1839.107422 0)"/>
     <use xlink:href="#DejaVuSans-69" transform="translate(1870.894531 0)"/>
     <use xlink:href="#DejaVuSans-6e" transform="translate(1898.677734 0)"/>
     <use xlink:href="#DejaVuSans-74" transform="translate(1962.056641 0)"/>
     <use xlink:href="#DejaVuSans-65" transform="translate(2001.265625 0)"/>
     <use xlink:href="#DejaVuSans-72" transform="translate(2062.789062 0)"/>
     <use xlink:href="#DejaVuSans-76" transform="translate(2103.902344 0)"/>
     <use xlink:href="#DejaVuSans-61" transform="translate(2163.082031 0)"/>
     <use xlink:href="#DejaVuSans-6c" transform="translate(2224.361328 0)"/>
     <use xlink:href="#DejaVuSans-20" transform="translate(2252.144531 0)"/>
     <use xlink:href="#DejaVuSans-70" transform="translate(2283.931641 0)"/>
     <use xlink:href="#DejaVuSans-65" transform="translate(2347.408203 0)"/>
     <use xlink:href="#DejaVuSans-72" transform="translate(2408.931641 0)"/>
     <use xlink:href="#DejaVuSans-20" transform="translate(2450.044922 0)"/>
     <use xlink:href="#DejaVuSans-73" transform="translate(2481.832031 0)"/>
     <use xlink:href="#DejaVuSans-69" transform="translate(2533.931641 0)"/>
     <use xlink:href="#DejaVuSans-6d" transform="translate(2561.714844 0)"/>
     <use xlink:href="#DejaVuSans-75" transform="translate(2659.126953 0)"/>
     <use xlink:href="#DejaVuSans-6c" transform="translate(2722.505859 0)"/>
     <use xlink:href="#DejaVuSans-61" transform="translate(2750.289062 0)"/>
     <use xlink:href="#DejaVuSans-74" transform="translate(2811.568359 0)"/>
     <use xlink:href="#DejaVuSans-69" transform="translate(2850.777344 0)"/>
     <use xlink:href="#DejaVuSans-6f" transform="translate(2878.560547 0)"/>
     <use xlink:href="#DejaVuSans-6e" transform="translate(2939.742188 0)"/>
     <use xlink:href="#DejaVuSans-20" transform="translate(3003.121094 0)"/>
     <use xlink:href="#DejaVuSans-73" transform="translate(3034.908203 0)"/>
     <use xlink:href="#DejaVuSans-74" transform="translate(3087.007812 0)"/>
     <use xlink:href="#DejaVuSans-65" transform="translate(3126.216797 0)"/>
     <use xlink:href="#DejaVuSans-70" transform="translate(3187.740234 0)"/>
    </g>
    <!-- Base Product: Grandaddy Purple, Recipe size: 7, T0: 20.0 -->
    <g transform="translate(248.283781 37.44) scale(0.14 -0.14)">
     <defs>
      <path id="DejaVuSans-42" d="M 1259 2228 
L 1259 519 
L 2272 519 
Q 2781 519 3026 730 
Q 3272 941 3272 1375 
Q 3272 1813 3026 2020 
Q 2781 2228 2272 2228 
L 1259 2228 
z
M 1259 4147 
L 1259 2741 
L 2194 2741 
Q 2656 2741 2882 2914 
Q 3109 3088 3109 3444 
Q 3109 3797 2882 3972 
Q 2656 4147 2194 4147 
L 1259 4147 
z
M 628 4666 
L 2241 4666 
Q 2963 4666 3353 4366 
Q 3744 4066 3744 3513 
Q 3744 3084 3544 2831 
Q 3344 2578 2956 2516 
Q 3422 2416 3680 2098 
Q 3938 1781 3938 1306 
Q 3938 681 3513 340 
Q 3088 0 2303 0 
L 628 0 
L 628 4666 
z
" transform="scale(0.015625)"/>
      <path id="DejaVuSans-3a" d="M 750 794 
L 1409 794 
L 1409 0 
L 750 0 
L 750 794 
z
M 750 3309 
L 1409 3309 
L 1409 2516 
L 750 2516 
L 750 3309 
z
" transform="scale(0.015625)"/>
      <path id="DejaVuSans-47" d="M 3809 666 
L 3809 1919 
L 2778 1919 
L 2778 2438 
L 4434 2438 
L 4434 434 
Q 4069 175 3628 42 
Q 3188 -91 2688 -91 
Q 1594 -91 976 548 
Q 359 1188 359 2328 
Q 359 3472 976 4111 
Q 1594 4750 2688 4750 
Q 3144 4750 3555 4637 
Q 3966 4525 4313 4306 
L 4313 3634 
Q 3963 3931 3569 4081 
Q 3175 4231 2741 4231 
Q 1884 4231 1454 3753 
Q 1025 3275 1025 2328 
Q 1025 1384 1454 906 
Q 1884 428 2741 428 
Q 3075 428 3337 486 
Q 3600 544 3809 666 
z
" transform="scale(0.015625)"/>
      <path id="DejaVuSans-79" d="M 2059 -325 
Q 1816 -950 1584 -1140 
Q 1353 -1331 966 -1331 
L 506 -1331 
L 506 -850 
L 844 -850 
Q 1081 -850 1212 -737 
Q 1344 -625 1503 -206 
L 1606 56 
L 191 3500 
L 800 3500 
L 1894 763 
L 2988 3500 
L 3597 3500 
L 2059 -325 
z
" transform="scale(0.015625)"/>
      <path id="DejaVuSans-2c" d="M 750 794 
L 1409 794 
L 1409 256 
L 897 -744 
L 494 -744 
L 750 256 
L 750 794 
z
" transform="scale(0.015625)"/>
      <path id="DejaVuSans-52" d="M 2841 2188 
Q 3044 2119 3236 1894 
Q 3428 1669 3622 1275 
L 4263 0 
L 3584 0 
L 2988 1197 
Q 2756 1666 2539 1819 
Q 2322 1972 1947 1972 
L 1259 1972 
L 1259 0 
L 628 0 
L 628 4666 
L 2053 4666 
Q 2853 4666 3247 4331 
Q 3641 3997 3641 3322 
Q 3641 2881 3436 2590 
Q 3231 2300 2841 2188 
z
M 1259 4147 
L 1259 2491 
L 2053 2491 
Q 2509 2491 2742 2702 
Q 2975 2913 2975 3322 
Q 2975 3731 2742 3939 
Q 2509 4147 2053 4147 
L 1259 4147 
z
" transform="scale(0.015625)"/>
      <path id="DejaVuSans-7a" d="M 353 3500 
L 3084 3500 
L 3084 2975 
L 922 459 
L 3084 459 
L 3084 0 
L 275 0 
L 275 525 
L 2438 3041 
L 353 3041 
L 353 3500 
z
" transform="scale(0.015625)"/>
      <path id="DejaVuSans-37" d="M 525 4666 
L 3525 4666 
L 3525 4397 
L 1831 0 
L 1172 0 
L 2766 4134 
L 525 4134 
L 525 4666 
z
" transform="scale(0.015625)"/>
      <path id="DejaVuSans-54" d="M -19 4666 
L 3928 4666 
L 3928 4134 
L 2272 4134 
L 2272 0 
L 1638 0 
L 1638 4134 
L -19 4134 
L -19 4666 
z
" transform="scale(0.015625)"/>
      <path id="DejaVuSans-2e" d="M 684 794 
L 1344 794 
L 1344 0 
L 684 0 
L 684 794 
z
" transform="scale(0.015625)"/>
     </defs>
     <use xlink:href="#DejaVuSans-42"/>
     <use xlink:href="#DejaVuSans-61" transform="translate(68.603516 0)"/>
     <use xlink:href="#DejaVuSans-73" transform="translate(129.882812 0)"/>
     <use xlink:href="#DejaVuSans-65" transform="translate(181.982422 0)"/>
     <use xlink:href="#DejaVuSans-20" transform="translate(243.505859 0)"/>
     <use xlink:href="#DejaVuSans-50" transform="translate(275.292969 0)"/>
     <use xlink:href="#DejaVuSans-72" transform="translate(333.845703 0)"/>
     <use xlink:href="#DejaVuSans-6f" transform="translate(372.708984 0)"/>
     <use xlink:href="#DejaVuSans-64" transform="translate(433.890625 0)"/>
     <use xlink:href="#DejaVuSans-75" transform="translate(497.367188 0)"/>
     <use xlink:href="#DejaVuSans-63" transform="translate(560.746094 0)"/>
     <use xlink:href="#DejaVuSans-74" transform="translate(615.726562 0)"/>
     <use xlink:href="#DejaVuSans-3a" transform="translate(654.935547 0)"/>
     <use xlink:href="#DejaVuSans-20" transform="translate(688.626953 0)"/>
     <use xlink:href="#DejaVuSans-47" transform="translate(720.414062 0)"/>
     <use xlink:href="#DejaVuSans-72" transform="translate(797.904297 0)"/>
     <use xlink:href="#DejaVuSans-61" transform="translate(839.017578 0)"/>
     <use xlink:href="#DejaVuSans-6e" transform="translate(900.296875 0)"/>
     <use xlink:href="#DejaVuSans-64" transform="translate(963.675781 0)"/>
     <use xlink:href="#DejaVuSans-61" transform="translate(1027.152344 0)"/>
     <use xlink:href="#DejaVuSans-64" transform="translate(1088.431641 0)"/>
     <use xlink:href="#DejaVuSans-64" transform="translate(1151.908203 0)"/>
     <use xlink:href="#DejaVuSans-79" transform="translate(1215.384766 0)"/>
     <use xlink:href="#DejaVuSans-20" transform="translate(1274.564453 0)"/>
     <use xlink:href="#DejaVuSans-50" transform="translate(1306.351562 0)"/>
     <use xlink:href="#DejaVuSans-75" transform="translate(1364.904297 0)"/>
     <use xlink:href="#DejaVuSans-72" transform="translate(1428.283203 0)"/>
     <use xlink:href="#DejaVuSans-70" transform="translate(1469.396484 0)"/>
     <use xlink:href="#DejaVuSans-6c" transform="translate(1532.873047 0)"/>
     <use xlink:href="#DejaVuSans-65" transform="translate(1560.65625 0)"/>
     <use xlink:href="#DejaVuSans-2c" transform="translate(1622.179688 0)"/>
     <use xlink:href="#DejaVuSans-20" transform="translate(1653.966797 0)"/>
     <use xlink:href="#DejaVuSans-52" transform="translate(1685.753906 0)"/>
     <use xlink:href="#DejaVuSans-65" transform="translate(1750.736328 0)"/>
     <use xlink:href="#DejaVuSans-63" transform="translate(1812.259766 0)"/>
     <use xlink:href="#DejaVuSans-69" transform="translate(1867.240234 0)"/>
     <use xlink:href="#DejaVuSans-70" transform="translate(1895.023438 0)"/>
     <use xlink:href="#DejaVuSans-65" transform="translate(1958.5 0)"/>
     <use xlink:href="#DejaVuSans-20" transform="translate(2020.023438 0)"/>
     <use xlink:href="#DejaVuSans-73" transform="translate(2051.810547 0)"/>
     <use xlink:href="#DejaVuSans-69" transform="translate(2103.910156 0)"/>
     <use xlink:href="#DejaVuSans-7a" transform="translate(2131.693359 0)"/>
     <use xlink:href="#DejaVuSans-65" transform="translate(2184.183594 0)"/>
     <use xlink:href="#DejaVuSans-3a" transform="translate(2245.707031 0)"/>
     <use xlink:href="#DejaVuSans-20" transform="translate(2279.398438 0)"/>
     <use xlink:href="#DejaVuSans-37" transform="translate(2311.185547 0)"/>
     <use xlink:href="#DejaVuSans-2c" transform="translate(2374.808594 0)"/>
     <use xlink:href="#DejaVuSans-20" transform="translate(2406.595703 0)"/>
     <use xlink:href="#DejaVuSans-54" transform="translate(2438.382812 0)"/>
     <use xlink:href="#DejaVuSans-30" transform="translate(2499.466797 0)"/>
     <use xlink:href="#DejaVuSans-3a" transform="translate(2563.089844 0)"/>
     <use xlink:href="#DejaVuSans-20" transform="translate(2596.78125 0)"/>
     <use xlink:href="#DejaVuSans-32" transform="translate(2628.568359 0)"/>
     <use xlink:href="#DejaVuSans-30" transform="translate(2692.191406 0)"/>
     <use xlink:href="#DejaVuSans-2e" transform="translate(2755.814453 0)"/>
     <use xlink:href="#DejaVuSans-30" transform="translate(2787.601562 0)"/>
    </g>
   </g>
  </g>
 </g>
 <defs>
  <clipPath id="pf127f00eef">
   <rect x="50.87" y="43.44" width="793.996" height="346.6"/>
  </clipPath>
 </defs>
</svg>
