<?xml version="1.0" encoding="utf-8" standalone="no"?>
<!DOCTYPE svg PUBLIC "-//W3C//DTD SVG 1.1//EN"
  "http://www.w3.org/Graphics/SVG/1.1/DTD/svg11.dtd">
<svg xmlns:xlink="http://www.w3.org/1999/xlink" width="864pt" height="432pt" viewBox="0 0 864 432" xmlns="http://www.w3.org/2000/svg" version="1.1">
 <metadata>
  <rdf:RDF xmlns:dc="http://purl.org/dc/elements/1.1/" xmlns:cc="http://creativecommons.org/ns#" xmlns:rdf="http://www.w3.org/1999/02/22-rdf-syntax-ns#">
   <cc:Work>
    <dc:type rdf:resource="http://purl.org/dc/dcmitype/StillImage"/>
    <dc:date>2025-05-24T02:09:55.187749</dc:date>
    <dc:format>image/svg+xml</dc:format>
    <dc:creator>
     <cc:Agent>
      <dc:title>Matplotlib v3.10.3, https://matplotlib.org/</dc:title>
     </cc:Agent>
    </dc:creator>
   </cc:Work>
  </rdf:RDF>
 </metadata>
 <defs>
  <style type="text/css">*{stroke-linejoin: round; stroke-linecap: butt}</style>
 </defs>
 <g id="figure_1">
  <g id="patch_1">
   <path d="M 0 432 
L 864 432 
L 864 0 
L 0 0 
z
" style="fill: #ffffff"/>
  </g>
  <g id="axes_1">
   <g id="patch_2">
    <path d="M 50.87 390.04 
L 844.866 390.04 
L 844.866 43.44 
L 50.87 43.44 
z
" style="fill: #ffffff"/>
   </g>
   <g id="FillBetweenPolyCollection_1">
    <defs>
     <path id="ma0429ca5b2" d="M 52.193327 -308.985317 
L 52.193327 -57.714545 
L 54.83998 -58.778972 
L 57.486633 -70.520038 
L 60.133287 -81.966777 
L 62.77994 -93.279766 
L 65.426593 -103.617287 
L 68.073247 -112.56299 
L 70.7199 -120.256342 
L 73.366553 -127.595484 
L 76.013207 -134.656518 
L 78.65986 -140.514797 
L 81.306513 -145.42905 
L 83.953167 -150.650872 
L 86.59982 -155.35151 
L 89.246473 -158.86858 
L 91.893127 -162.397775 
L 94.53978 -165.893111 
L 97.186433 -169.638801 
L 99.833087 -172.397371 
L 102.47974 -175.103217 
L 105.126393 -178.142356 
L 107.773047 -180.537149 
L 110.4197 -183.364404 
L 113.066353 -185.299819 
L 115.713007 -187.608115 
L 118.35966 -189.663015 
L 121.006313 -191.809518 
L 123.652967 -193.915088 
L 126.29962 -195.500517 
L 128.946273 -196.512359 
L 131.592927 -197.972347 
L 134.23958 -199.123883 
L 136.886233 -200.591331 
L 139.532887 -201.907412 
L 142.17954 -202.914031 
L 144.826193 -204.062879 
L 147.472847 -205.221961 
L 150.1195 -206.202718 
L 152.766153 -207.636306 
L 155.412807 -208.725348 
L 158.05946 -209.823074 
L 160.706113 -210.742239 
L 163.352767 -211.860948 
L 165.99942 -212.634486 
L 168.646073 -213.168494 
L 171.292727 -214.314892 
L 173.93938 -215.117238 
L 176.586033 -215.852101 
L 179.232687 -216.550998 
L 181.87934 -217.137139 
L 184.525993 -217.715605 
L 187.172647 -218.304863 
L 189.8193 -218.532848 
L 192.465953 -219.300174 
L 195.112607 -220.058663 
L 197.75926 -220.934789 
L 200.405913 -221.43094 
L 203.052567 -221.980878 
L 205.69922 -222.519874 
L 208.345873 -223.303129 
L 210.992527 -223.950474 
L 213.63918 -224.44297 
L 216.285833 -224.912205 
L 218.932487 -225.514878 
L 221.57914 -226.102308 
L 224.225793 -226.757608 
L 226.872447 -227.007607 
L 229.5191 -227.281405 
L 232.165753 -227.829387 
L 234.812407 -228.092543 
L 237.45906 -228.335104 
L 240.105713 -228.45188 
L 242.752367 -228.801006 
L 245.39902 -229.185776 
L 248.045673 -229.790104 
L 250.692327 -230.178572 
L 253.33898 -230.662382 
L 255.985633 -231.037392 
L 258.632287 -231.604872 
L 261.27894 -232.112051 
L 263.925593 -232.397006 
L 266.572247 -232.964078 
L 269.2189 -233.108501 
L 271.865553 -233.55095 
L 274.512207 -233.775754 
L 277.15886 -234.089537 
L 279.805513 -234.460806 
L 282.452167 -234.928107 
L 285.09882 -234.98729 
L 287.745473 -235.306126 
L 290.392127 -235.7188 
L 293.03878 -236.083211 
L 295.685433 -236.248552 
L 298.332087 -236.689796 
L 300.97874 -236.8879 
L 303.625393 -237.307389 
L 306.272047 -237.534127 
L 308.9187 -237.854855 
L 311.565353 -238.226145 
L 314.212007 -238.366484 
L 316.85866 -238.711031 
L 319.505313 -238.765958 
L 322.151967 -239.126521 
L 324.79862 -239.2462 
L 327.445273 -239.302116 
L 330.091927 -239.295043 
L 332.73858 -239.597304 
L 335.385233 -239.984008 
L 338.031887 -240.291902 
L 340.67854 -240.483469 
L 343.325193 -240.914352 
L 345.971847 -241.144874 
L 348.6185 -241.469364 
L 351.265153 -241.565976 
L 353.911807 -241.835968 
L 356.55846 -242.042434 
L 359.205113 -242.328958 
L 361.851767 -242.554041 
L 364.49842 -242.750833 
L 367.145073 -242.926149 
L 369.791727 -243.028973 
L 372.43838 -243.298901 
L 375.085033 -243.508356 
L 377.731687 -243.874207 
L 380.37834 -243.953319 
L 383.024993 -243.979461 
L 385.671647 -244.252312 
L 388.3183 -244.859908 
L 390.964953 -244.801799 
L 393.611607 -244.965076 
L 396.25826 -244.938977 
L 398.904913 -244.998613 
L 401.551567 -245.190804 
L 404.19822 -245.477242 
L 406.844873 -245.992461 
L 409.491527 -245.834925 
L 412.13818 -246.088256 
L 414.784833 -246.2614 
L 417.431487 -246.588298 
L 420.07814 -246.750134 
L 422.724793 -246.831783 
L 425.371447 -246.937682 
L 428.0181 -247.232956 
L 430.664753 -247.204299 
L 433.311407 -247.338575 
L 435.95806 -247.666203 
L 438.604713 -247.757483 
L 441.251367 -247.746692 
L 443.89802 -247.905475 
L 446.544673 -248.094485 
L 449.191327 -248.123937 
L 451.83798 -248.327221 
L 454.484633 -248.474332 
L 457.131287 -248.575694 
L 459.77794 -248.806517 
L 462.424593 -248.766682 
L 465.071247 -248.81258 
L 467.7179 -248.945759 
L 470.364553 -249.23927 
L 473.011207 -249.396377 
L 475.65786 -249.665187 
L 478.304513 -249.706592 
L 480.951167 -249.79497 
L 483.59782 -249.923313 
L 486.244473 -250.058578 
L 488.891127 -250.220113 
L 491.53778 -250.445755 
L 494.184433 -250.545076 
L 496.831087 -250.695002 
L 499.47774 -250.660326 
L 502.124393 -250.741223 
L 504.771047 -250.706525 
L 507.4177 -250.856709 
L 510.064353 -250.952225 
L 512.711007 -251.127476 
L 515.35766 -251.53944 
L 518.004313 -251.834736 
L 520.650967 -251.834327 
L 523.29762 -251.82274 
L 525.944273 -252.032968 
L 528.590927 -252.061904 
L 531.23758 -252.139189 
L 533.884233 -252.361327 
L 536.530887 -252.404409 
L 539.17754 -252.52153 
L 541.824193 -252.650044 
L 544.470847 -252.748139 
L 547.1175 -252.79236 
L 549.764153 -252.822887 
L 552.410807 -252.869387 
L 555.05746 -253.007984 
L 557.704113 -252.943448 
L 560.350767 -252.995064 
L 562.99742 -253.059945 
L 565.644073 -253.099996 
L 568.290727 -253.165414 
L 570.93738 -253.296143 
L 573.584033 -253.4402 
L 576.230687 -253.406362 
L 578.87734 -253.445962 
L 581.523993 -253.399354 
L 584.170647 -253.424034 
L 586.8173 -253.338902 
L 589.463953 -253.399505 
L 592.110607 -253.5685 
L 594.75726 -253.700841 
L 597.403913 -253.820369 
L 600.050567 -253.770408 
L 602.69722 -254.176762 
L 605.343873 -254.412271 
L 607.990527 -254.849948 
L 610.63718 -255.030251 
L 613.283833 -255.059359 
L 615.930487 -255.249723 
L 618.57714 -255.440151 
L 621.223793 -255.638427 
L 623.870447 -255.635202 
L 626.5171 -255.714056 
L 629.163753 -255.7985 
L 631.810407 -256.030463 
L 634.45706 -256.207584 
L 637.103713 -256.358413 
L 639.750367 -256.516767 
L 642.39702 -256.682086 
L 645.043673 -256.831411 
L 647.690327 -256.90502 
L 650.33698 -256.99544 
L 652.983633 -257.014229 
L 655.630287 -257.10366 
L 658.27694 -257.10983 
L 660.923593 -257.107917 
L 663.570247 -257.185331 
L 666.2169 -257.196746 
L 668.863553 -257.250233 
L 671.510207 -257.33816 
L 674.15686 -257.493676 
L 676.803513 -257.654222 
L 679.450167 -257.692832 
L 682.09682 -257.698293 
L 684.743473 -257.678106 
L 687.390127 -257.802214 
L 690.03678 -257.738623 
L 692.683433 -257.841426 
L 695.330087 -257.881326 
L 697.97674 -257.940209 
L 700.623393 -257.855722 
L 703.270047 -257.76197 
L 705.9167 -257.849402 
L 708.563353 -257.909746 
L 711.210007 -258.090178 
L 713.85666 -258.286605 
L 716.503313 -258.289507 
L 719.149967 -258.421461 
L 721.79662 -258.545461 
L 724.443273 -258.784668 
L 727.089927 -258.908926 
L 729.73658 -258.990361 
L 732.383233 -258.975226 
L 735.029887 -259.145361 
L 737.67654 -259.210929 
L 740.323193 -259.292406 
L 742.969847 -259.27538 
L 745.6165 -259.431713 
L 748.263153 -259.392329 
L 750.909807 -259.668706 
L 753.55646 -259.791115 
L 756.203113 -259.704199 
L 758.849767 -259.793974 
L 761.49642 -259.628182 
L 764.143073 -259.613349 
L 766.789727 -259.628591 
L 769.43638 -259.645875 
L 772.083033 -259.762136 
L 774.729687 -259.831359 
L 777.37634 -259.703747 
L 780.022993 -259.806164 
L 782.669647 -259.967355 
L 785.3163 -260.107607 
L 787.962953 -260.144132 
L 790.609607 -260.283525 
L 793.25626 -260.53017 
L 795.902913 -260.553001 
L 798.549567 -260.612249 
L 801.19622 -260.619 
L 803.842873 -260.713247 
L 806.489527 -260.782513 
L 809.13618 -260.900365 
L 811.782833 -261.120396 
L 814.429487 -261.209032 
L 817.07614 -261.267721 
L 819.722793 -261.304031 
L 822.369447 -261.326453 
L 825.0161 -261.500028 
L 827.662753 -261.553106 
L 830.309407 -261.489042 
L 832.95606 -261.642795 
L 835.602713 -261.668829 
L 838.249367 -261.718511 
L 840.89602 -261.721628 
L 843.542673 -261.827828 
L 843.542673 -372.735672 
L 843.542673 -372.735672 
L 840.89602 -372.805455 
L 838.249367 -372.739456 
L 835.602713 -372.658538 
L 832.95606 -372.542879 
L 830.309407 -372.541503 
L 827.662753 -372.446912 
L 825.0161 -372.427865 
L 822.369447 -372.455683 
L 819.722793 -372.359588 
L 817.07614 -372.301586 
L 814.429487 -372.273424 
L 811.782833 -372.239328 
L 809.13618 -372.319559 
L 806.489527 -372.256097 
L 803.842873 -372.288645 
L 801.19622 -372.327298 
L 798.549567 -372.262976 
L 795.902913 -372.216971 
L 793.25626 -372.161893 
L 790.609607 -372.230041 
L 787.962953 -372.237308 
L 785.3163 -372.21409 
L 782.669647 -372.185627 
L 780.022993 -372.1419 
L 777.37634 -372.123197 
L 774.729687 -371.912689 
L 772.083033 -371.817926 
L 769.43638 -371.788345 
L 766.789727 -371.722776 
L 764.143073 -371.645298 
L 761.49642 -371.543527 
L 758.849767 -371.368147 
L 756.203113 -371.377133 
L 753.55646 -371.248403 
L 750.909807 -371.226046 
L 748.263153 -371.378724 
L 745.6165 -371.237783 
L 742.969847 -371.273943 
L 740.323193 -371.231119 
L 737.67654 -371.207213 
L 735.029887 -371.157682 
L 732.383233 -371.192638 
L 729.73658 -371.101057 
L 727.089927 -371.039057 
L 724.443273 -370.989654 
L 721.79662 -371.079301 
L 719.149967 -371.08833 
L 716.503313 -371.0658 
L 713.85666 -371.027792 
L 711.210007 -370.987032 
L 708.563353 -370.986 
L 705.9167 -370.968543 
L 703.270047 -370.915186 
L 700.623393 -370.753005 
L 697.97674 -370.59908 
L 695.330087 -370.555439 
L 692.683433 -370.445972 
L 690.03678 -370.395022 
L 687.390127 -370.236453 
L 684.743473 -370.250728 
L 682.09682 -370.223082 
L 679.450167 -370.193801 
L 676.803513 -370.111679 
L 674.15686 -370.101102 
L 671.510207 -370.149344 
L 668.863553 -370.082528 
L 666.2169 -369.940599 
L 663.570247 -369.780654 
L 660.923593 -369.760231 
L 658.27694 -369.635587 
L 655.630287 -369.545295 
L 652.983633 -369.48136 
L 650.33698 -369.329026 
L 647.690327 -369.194965 
L 645.043673 -369.12944 
L 642.39702 -369.085369 
L 639.750367 -369.021047 
L 637.103713 -369.045512 
L 634.45706 -369.058754 
L 631.810407 -369.050929 
L 629.163753 -369.054412 
L 626.5171 -369.00071 
L 623.870447 -368.923833 
L 621.223793 -368.775713 
L 618.57714 -368.727944 
L 615.930487 -368.710488 
L 613.283833 -368.691355 
L 610.63718 -368.551533 
L 607.990527 -368.542417 
L 605.343873 -368.767028 
L 602.69722 -368.838788 
L 600.050567 -368.957155 
L 597.403913 -368.801983 
L 594.75726 -368.807229 
L 592.110607 -368.850526 
L 589.463953 -368.841109 
L 586.8173 -368.745573 
L 584.170647 -368.501614 
L 581.523993 -368.382774 
L 578.87734 -368.211994 
L 576.230687 -368.08606 
L 573.584033 -367.932435 
L 570.93738 -367.900533 
L 568.290727 -367.877702 
L 565.644073 -367.769653 
L 562.99742 -367.700344 
L 560.350767 -367.604463 
L 557.704113 -367.497103 
L 555.05746 -367.280662 
L 552.410807 -367.212384 
L 549.764153 -367.121104 
L 547.1175 -367.022902 
L 544.470847 -366.797345 
L 541.824193 -366.74072 
L 539.17754 -366.714965 
L 536.530887 -366.709892 
L 533.884233 -366.605842 
L 531.23758 -366.637358 
L 528.590927 -366.532964 
L 525.944273 -366.387251 
L 523.29762 -366.419928 
L 520.650967 -366.278429 
L 518.004313 -366.166081 
L 515.35766 -366.189814 
L 512.711007 -366.375427 
L 510.064353 -366.274602 
L 507.4177 -366.153182 
L 504.771047 -366.054721 
L 502.124393 -365.923627 
L 499.47774 -365.821942 
L 496.831087 -365.674638 
L 494.184433 -365.620893 
L 491.53778 -365.498957 
L 488.891127 -365.52785 
L 486.244473 -365.47058 
L 483.59782 -365.379214 
L 480.951167 -365.325039 
L 478.304513 -365.251817 
L 475.65786 -365.097376 
L 473.011207 -365.070633 
L 470.364553 -365.004032 
L 467.7179 -365.061776 
L 465.071247 -365.037483 
L 462.424593 -364.840347 
L 459.77794 -364.674641 
L 457.131287 -364.69085 
L 454.484633 -364.558208 
L 451.83798 -364.43911 
L 449.191327 -364.427888 
L 446.544673 -364.246016 
L 443.89802 -364.179931 
L 441.251367 -364.070979 
L 438.604713 -363.754444 
L 435.95806 -363.580569 
L 433.311407 -363.643515 
L 430.664753 -363.623264 
L 428.0181 -363.392333 
L 425.371447 -363.330978 
L 422.724793 -363.185308 
L 420.07814 -363.044583 
L 417.431487 -362.920798 
L 414.784833 -362.883091 
L 412.13818 -362.751652 
L 409.491527 -362.699111 
L 406.844873 -362.362368 
L 404.19822 -362.512681 
L 401.551567 -362.417575 
L 398.904913 -362.287684 
L 396.25826 -362.08655 
L 393.611607 -361.870625 
L 390.964953 -361.793662 
L 388.3183 -361.515694 
L 385.671647 -361.662095 
L 383.024993 -361.635523 
L 380.37834 -361.485339 
L 377.731687 -361.263523 
L 375.085033 -361.260944 
L 372.43838 -361.116822 
L 369.791727 -361.076491 
L 367.145073 -360.995143 
L 364.49842 -360.880817 
L 361.851767 -360.69744 
L 359.205113 -360.648855 
L 356.55846 -360.609772 
L 353.911807 -360.479451 
L 351.265153 -360.450386 
L 348.6185 -360.296655 
L 345.971847 -360.221842 
L 343.325193 -360.178781 
L 340.67854 -360.166549 
L 338.031887 -359.993856 
L 335.385233 -359.922268 
L 332.73858 -359.882368 
L 330.091927 -359.717651 
L 327.445273 -359.343695 
L 324.79862 -359.049152 
L 322.151967 -358.852983 
L 319.505313 -358.825595 
L 316.85866 -358.554872 
L 314.212007 -358.52815 
L 311.565353 -358.353458 
L 308.9187 -358.369001 
L 306.272047 -358.333164 
L 303.625393 -358.152173 
L 300.97874 -358.155118 
L 298.332087 -357.910837 
L 295.685433 -357.832821 
L 293.03878 -357.648992 
L 290.392127 -357.466798 
L 287.745473 -357.381924 
L 285.09882 -357.252184 
L 282.452167 -356.899468 
L 279.805513 -356.833447 
L 277.15886 -356.683564 
L 274.512207 -356.474217 
L 271.865553 -356.373972 
L 269.2189 -356.239159 
L 266.572247 -356.019407 
L 263.925593 -356.032607 
L 261.27894 -355.894225 
L 258.632287 -355.883476 
L 255.985633 -355.865052 
L 253.33898 -355.679009 
L 250.692327 -355.630746 
L 248.045673 -355.521924 
L 245.39902 -355.47551 
L 242.752367 -355.31075 
L 240.105713 -355.157642 
L 237.45906 -354.843299 
L 234.812407 -354.53805 
L 232.165753 -354.285471 
L 229.5191 -354.222181 
L 226.872447 -353.920007 
L 224.225793 -353.519307 
L 221.57914 -353.458941 
L 218.932487 -353.36162 
L 216.285833 -353.33694 
L 213.63918 -353.206856 
L 210.992527 -352.923965 
L 208.345873 -352.68637 
L 205.69922 -352.641783 
L 203.052567 -352.473799 
L 200.405913 -352.238633 
L 197.75926 -351.967824 
L 195.112607 -352.007595 
L 192.465953 -351.841416 
L 189.8193 -351.753511 
L 187.172647 -351.243129 
L 184.525993 -350.887424 
L 181.87934 -350.631083 
L 179.232687 -350.273852 
L 176.586033 -349.910838 
L 173.93938 -349.604472 
L 171.292727 -349.386612 
L 168.646073 -349.386526 
L 165.99942 -348.903252 
L 163.352767 -348.604431 
L 160.706113 -348.453903 
L 158.05946 -348.141968 
L 155.412807 -348.014787 
L 152.766153 -347.665703 
L 150.1195 -347.845275 
L 147.472847 -347.547508 
L 144.826193 -347.144809 
L 142.17954 -346.845902 
L 139.532887 -346.339411 
L 136.886233 -345.981277 
L 134.23958 -345.770382 
L 131.592927 -345.168376 
L 128.946273 -344.782811 
L 126.29962 -344.09821 
L 123.652967 -343.584539 
L 121.006313 -343.474362 
L 118.35966 -343.057797 
L 115.713007 -342.69216 
L 113.066353 -342.33738 
L 110.4197 -341.71063 
L 107.773047 -341.699687 
L 105.126393 -341.362084 
L 102.47974 -341.175998 
L 99.833087 -340.511863 
L 97.186433 -339.804366 
L 94.53978 -339.670112 
L 91.893127 -339.119636 
L 89.246473 -338.080298 
L 86.59982 -337.271847 
L 83.953167 -336.624846 
L 81.306513 -335.639532 
L 78.65986 -334.459425 
L 76.013207 -332.94767 
L 73.366553 -331.906483 
L 70.7199 -330.26804 
L 68.073247 -328.068223 
L 65.426593 -325.601272 
L 62.77994 -322.857192 
L 60.133287 -320.240938 
L 57.486633 -315.740736 
L 54.83998 -309.78104 
L 52.193327 -308.985317 
z
" style="stroke: #0000ff; stroke-opacity: 0.2"/>
    </defs>
    <g clip-path="url(#pc32ea56175)">
     <use xlink:href="#ma0429ca5b2" x="0" y="432" style="fill: #0000ff; fill-opacity: 0.2; stroke: #0000ff; stroke-opacity: 0.2"/>
    </g>
   </g>
   <g id="matplotlib.axis_1">
    <g id="xtick_1">
     <g id="line2d_1">
      <defs>
       <path id="m75464ba81e" d="M 0 0 
L 0 3.5 
" style="stroke: #000000; stroke-width: 0.8"/>
      </defs>
      <g>
       <use xlink:href="#m75464ba81e" x="181.87934" y="390.04" style="stroke: #000000; stroke-width: 0.8"/>
      </g>
     </g>
     <g id="text_1">
      <!-- 50 -->
      <g transform="translate(175.51684 404.638438) scale(0.1 -0.1)">
       <defs>
        <path id="DejaVuSans-35" d="M 691 4666 
L 3169 4666 
L 3169 4134 
L 1269 4134 
L 1269 2991 
Q 1406 3038 1543 3061 
Q 1681 3084 1819 3084 
Q 2600 3084 3056 2656 
Q 3513 2228 3513 1497 
Q 3513 744 3044 326 
Q 2575 -91 1722 -91 
Q 1428 -91 1123 -41 
Q 819 9 494 109 
L 494 744 
Q 775 591 1075 516 
Q 1375 441 1709 441 
Q 2250 441 2565 725 
Q 2881 1009 2881 1497 
Q 2881 1984 2565 2268 
Q 2250 2553 1709 2553 
Q 1456 2553 1204 2497 
Q 953 2441 691 2322 
L 691 4666 
z
" transform="scale(0.015625)"/>
        <path id="DejaVuSans-30" d="M 2034 4250 
Q 1547 4250 1301 3770 
Q 1056 3291 1056 2328 
Q 1056 1369 1301 889 
Q 1547 409 2034 409 
Q 2525 409 2770 889 
Q 3016 1369 3016 2328 
Q 3016 3291 2770 3770 
Q 2525 4250 2034 4250 
z
M 2034 4750 
Q 2819 4750 3233 4129 
Q 3647 3509 3647 2328 
Q 3647 1150 3233 529 
Q 2819 -91 2034 -91 
Q 1250 -91 836 529 
Q 422 1150 422 2328 
Q 422 3509 836 4129 
Q 1250 4750 2034 4750 
z
" transform="scale(0.015625)"/>
       </defs>
       <use xlink:href="#DejaVuSans-35"/>
       <use xlink:href="#DejaVuSans-30" transform="translate(63.623047 0)"/>
      </g>
     </g>
    </g>
    <g id="xtick_2">
     <g id="line2d_2">
      <g>
       <use xlink:href="#m75464ba81e" x="314.212007" y="390.04" style="stroke: #000000; stroke-width: 0.8"/>
      </g>
     </g>
     <g id="text_2">
      <!-- 100 -->
      <g transform="translate(304.668257 404.638438) scale(0.1 -0.1)">
       <defs>
        <path id="DejaVuSans-31" d="M 794 531 
L 1825 531 
L 1825 4091 
L 703 3866 
L 703 4441 
L 1819 4666 
L 2450 4666 
L 2450 531 
L 3481 531 
L 3481 0 
L 794 0 
L 794 531 
z
" transform="scale(0.015625)"/>
       </defs>
       <use xlink:href="#DejaVuSans-31"/>
       <use xlink:href="#DejaVuSans-30" transform="translate(63.623047 0)"/>
       <use xlink:href="#DejaVuSans-30" transform="translate(127.246094 0)"/>
      </g>
     </g>
    </g>
    <g id="xtick_3">
     <g id="line2d_3">
      <g>
       <use xlink:href="#m75464ba81e" x="446.544673" y="390.04" style="stroke: #000000; stroke-width: 0.8"/>
      </g>
     </g>
     <g id="text_3">
      <!-- 150 -->
      <g transform="translate(437.000923 404.638438) scale(0.1 -0.1)">
       <use xlink:href="#DejaVuSans-31"/>
       <use xlink:href="#DejaVuSans-35" transform="translate(63.623047 0)"/>
       <use xlink:href="#DejaVuSans-30" transform="translate(127.246094 0)"/>
      </g>
     </g>
    </g>
    <g id="xtick_4">
     <g id="line2d_4">
      <g>
       <use xlink:href="#m75464ba81e" x="578.87734" y="390.04" style="stroke: #000000; stroke-width: 0.8"/>
      </g>
     </g>
     <g id="text_4">
      <!-- 200 -->
      <g transform="translate(569.33359 404.638438) scale(0.1 -0.1)">
       <defs>
        <path id="DejaVuSans-32" d="M 1228 531 
L 3431 531 
L 3431 0 
L 469 0 
L 469 531 
Q 828 903 1448 1529 
Q 2069 2156 2228 2338 
Q 2531 2678 2651 2914 
Q 2772 3150 2772 3378 
Q 2772 3750 2511 3984 
Q 2250 4219 1831 4219 
Q 1534 4219 1204 4116 
Q 875 4013 500 3803 
L 500 4441 
Q 881 4594 1212 4672 
Q 1544 4750 1819 4750 
Q 2544 4750 2975 4387 
Q 3406 4025 3406 3419 
Q 3406 3131 3298 2873 
Q 3191 2616 2906 2266 
Q 2828 2175 2409 1742 
Q 1991 1309 1228 531 
z
" transform="scale(0.015625)"/>
       </defs>
       <use xlink:href="#DejaVuSans-32"/>
       <use xlink:href="#DejaVuSans-30" transform="translate(63.623047 0)"/>
       <use xlink:href="#DejaVuSans-30" transform="translate(127.246094 0)"/>
      </g>
     </g>
    </g>
    <g id="xtick_5">
     <g id="line2d_5">
      <g>
       <use xlink:href="#m75464ba81e" x="711.210007" y="390.04" style="stroke: #000000; stroke-width: 0.8"/>
      </g>
     </g>
     <g id="text_5">
      <!-- 250 -->
      <g transform="translate(701.666257 404.638438) scale(0.1 -0.1)">
       <use xlink:href="#DejaVuSans-32"/>
       <use xlink:href="#DejaVuSans-35" transform="translate(63.623047 0)"/>
       <use xlink:href="#DejaVuSans-30" transform="translate(127.246094 0)"/>
      </g>
     </g>
    </g>
    <g id="xtick_6">
     <g id="line2d_6">
      <g>
       <use xlink:href="#m75464ba81e" x="843.542673" y="390.04" style="stroke: #000000; stroke-width: 0.8"/>
      </g>
     </g>
     <g id="text_6">
      <!-- 300 -->
      <g transform="translate(833.998923 404.638438) scale(0.1 -0.1)">
       <defs>
        <path id="DejaVuSans-33" d="M 2597 2516 
Q 3050 2419 3304 2112 
Q 3559 1806 3559 1356 
Q 3559 666 3084 287 
Q 2609 -91 1734 -91 
Q 1441 -91 1130 -33 
Q 819 25 488 141 
L 488 750 
Q 750 597 1062 519 
Q 1375 441 1716 441 
Q 2309 441 2620 675 
Q 2931 909 2931 1356 
Q 2931 1769 2642 2001 
Q 2353 2234 1838 2234 
L 1294 2234 
L 1294 2753 
L 1863 2753 
Q 2328 2753 2575 2939 
Q 2822 3125 2822 3475 
Q 2822 3834 2567 4026 
Q 2313 4219 1838 4219 
Q 1578 4219 1281 4162 
Q 984 4106 628 3988 
L 628 4550 
Q 988 4650 1302 4700 
Q 1616 4750 1894 4750 
Q 2613 4750 3031 4423 
Q 3450 4097 3450 3541 
Q 3450 3153 3228 2886 
Q 3006 2619 2597 2516 
z
" transform="scale(0.015625)"/>
       </defs>
       <use xlink:href="#DejaVuSans-33"/>
       <use xlink:href="#DejaVuSans-30" transform="translate(63.623047 0)"/>
       <use xlink:href="#DejaVuSans-30" transform="translate(127.246094 0)"/>
      </g>
     </g>
    </g>
    <g id="text_7">
     <!-- Step -->
     <g transform="translate(436.482844 418.316562) scale(0.1 -0.1)">
      <defs>
       <path id="DejaVuSans-53" d="M 3425 4513 
L 3425 3897 
Q 3066 4069 2747 4153 
Q 2428 4238 2131 4238 
Q 1616 4238 1336 4038 
Q 1056 3838 1056 3469 
Q 1056 3159 1242 3001 
Q 1428 2844 1947 2747 
L 2328 2669 
Q 3034 2534 3370 2195 
Q 3706 1856 3706 1288 
Q 3706 609 3251 259 
Q 2797 -91 1919 -91 
Q 1588 -91 1214 -16 
Q 841 59 441 206 
L 441 856 
Q 825 641 1194 531 
Q 1563 422 1919 422 
Q 2459 422 2753 634 
Q 3047 847 3047 1241 
Q 3047 1584 2836 1778 
Q 2625 1972 2144 2069 
L 1759 2144 
Q 1053 2284 737 2584 
Q 422 2884 422 3419 
Q 422 4038 858 4394 
Q 1294 4750 2059 4750 
Q 2388 4750 2728 4690 
Q 3069 4631 3425 4513 
z
" transform="scale(0.015625)"/>
       <path id="DejaVuSans-74" d="M 1172 4494 
L 1172 3500 
L 2356 3500 
L 2356 3053 
L 1172 3053 
L 1172 1153 
Q 1172 725 1289 603 
Q 1406 481 1766 481 
L 2356 481 
L 2356 0 
L 1766 0 
Q 1100 0 847 248 
Q 594 497 594 1153 
L 594 3053 
L 172 3053 
L 172 3500 
L 594 3500 
L 594 4494 
L 1172 4494 
z
" transform="scale(0.015625)"/>
       <path id="DejaVuSans-65" d="M 3597 1894 
L 3597 1613 
L 953 1613 
Q 991 1019 1311 708 
Q 1631 397 2203 397 
Q 2534 397 2845 478 
Q 3156 559 3463 722 
L 3463 178 
Q 3153 47 2828 -22 
Q 2503 -91 2169 -91 
Q 1331 -91 842 396 
Q 353 884 353 1716 
Q 353 2575 817 3079 
Q 1281 3584 2069 3584 
Q 2775 3584 3186 3129 
Q 3597 2675 3597 1894 
z
M 3022 2063 
Q 3016 2534 2758 2815 
Q 2500 3097 2075 3097 
Q 1594 3097 1305 2825 
Q 1016 2553 972 2059 
L 3022 2063 
z
" transform="scale(0.015625)"/>
       <path id="DejaVuSans-70" d="M 1159 525 
L 1159 -1331 
L 581 -1331 
L 581 3500 
L 1159 3500 
L 1159 2969 
Q 1341 3281 1617 3432 
Q 1894 3584 2278 3584 
Q 2916 3584 3314 3078 
Q 3713 2572 3713 1747 
Q 3713 922 3314 415 
Q 2916 -91 2278 -91 
Q 1894 -91 1617 61 
Q 1341 213 1159 525 
z
M 3116 1747 
Q 3116 2381 2855 2742 
Q 2594 3103 2138 3103 
Q 1681 3103 1420 2742 
Q 1159 2381 1159 1747 
Q 1159 1113 1420 752 
Q 1681 391 2138 391 
Q 2594 391 2855 752 
Q 3116 1113 3116 1747 
z
" transform="scale(0.015625)"/>
      </defs>
      <use xlink:href="#DejaVuSans-53"/>
      <use xlink:href="#DejaVuSans-74" transform="translate(63.476562 0)"/>
      <use xlink:href="#DejaVuSans-65" transform="translate(102.685547 0)"/>
      <use xlink:href="#DejaVuSans-70" transform="translate(164.208984 0)"/>
     </g>
    </g>
   </g>
   <g id="matplotlib.axis_2">
    <g id="ytick_1">
     <g id="line2d_7">
      <defs>
       <path id="md988906d06" d="M 0 0 
L -3.5 0 
" style="stroke: #000000; stroke-width: 0.8"/>
      </defs>
      <g>
       <use xlink:href="#md988906d06" x="50.87" y="375.990315" style="stroke: #000000; stroke-width: 0.8"/>
      </g>
     </g>
     <g id="text_8">
      <!-- 20 -->
      <g transform="translate(31.145 379.789533) scale(0.1 -0.1)">
       <use xlink:href="#DejaVuSans-32"/>
       <use xlink:href="#DejaVuSans-30" transform="translate(63.623047 0)"/>
      </g>
     </g>
    </g>
    <g id="ytick_2">
     <g id="line2d_8">
      <g>
       <use xlink:href="#md988906d06" x="50.87" y="319.634813" style="stroke: #000000; stroke-width: 0.8"/>
      </g>
     </g>
     <g id="text_9">
      <!-- 40 -->
      <g transform="translate(31.145 323.434031) scale(0.1 -0.1)">
       <defs>
        <path id="DejaVuSans-34" d="M 2419 4116 
L 825 1625 
L 2419 1625 
L 2419 4116 
z
M 2253 4666 
L 3047 4666 
L 3047 1625 
L 3713 1625 
L 3713 1100 
L 3047 1100 
L 3047 0 
L 2419 0 
L 2419 1100 
L 313 1100 
L 313 1709 
L 2253 4666 
z
" transform="scale(0.015625)"/>
       </defs>
       <use xlink:href="#DejaVuSans-34"/>
       <use xlink:href="#DejaVuSans-30" transform="translate(63.623047 0)"/>
      </g>
     </g>
    </g>
    <g id="ytick_3">
     <g id="line2d_9">
      <g>
       <use xlink:href="#md988906d06" x="50.87" y="263.279311" style="stroke: #000000; stroke-width: 0.8"/>
      </g>
     </g>
     <g id="text_10">
      <!-- 60 -->
      <g transform="translate(31.145 267.07853) scale(0.1 -0.1)">
       <defs>
        <path id="DejaVuSans-36" d="M 2113 2584 
Q 1688 2584 1439 2293 
Q 1191 2003 1191 1497 
Q 1191 994 1439 701 
Q 1688 409 2113 409 
Q 2538 409 2786 701 
Q 3034 994 3034 1497 
Q 3034 2003 2786 2293 
Q 2538 2584 2113 2584 
z
M 3366 4563 
L 3366 3988 
Q 3128 4100 2886 4159 
Q 2644 4219 2406 4219 
Q 1781 4219 1451 3797 
Q 1122 3375 1075 2522 
Q 1259 2794 1537 2939 
Q 1816 3084 2150 3084 
Q 2853 3084 3261 2657 
Q 3669 2231 3669 1497 
Q 3669 778 3244 343 
Q 2819 -91 2113 -91 
Q 1303 -91 875 529 
Q 447 1150 447 2328 
Q 447 3434 972 4092 
Q 1497 4750 2381 4750 
Q 2619 4750 2861 4703 
Q 3103 4656 3366 4563 
z
" transform="scale(0.015625)"/>
       </defs>
       <use xlink:href="#DejaVuSans-36"/>
       <use xlink:href="#DejaVuSans-30" transform="translate(63.623047 0)"/>
      </g>
     </g>
    </g>
    <g id="ytick_4">
     <g id="line2d_10">
      <g>
       <use xlink:href="#md988906d06" x="50.87" y="206.923809" style="stroke: #000000; stroke-width: 0.8"/>
      </g>
     </g>
     <g id="text_11">
      <!-- 80 -->
      <g transform="translate(31.145 210.723028) scale(0.1 -0.1)">
       <defs>
        <path id="DejaVuSans-38" d="M 2034 2216 
Q 1584 2216 1326 1975 
Q 1069 1734 1069 1313 
Q 1069 891 1326 650 
Q 1584 409 2034 409 
Q 2484 409 2743 651 
Q 3003 894 3003 1313 
Q 3003 1734 2745 1975 
Q 2488 2216 2034 2216 
z
M 1403 2484 
Q 997 2584 770 2862 
Q 544 3141 544 3541 
Q 544 4100 942 4425 
Q 1341 4750 2034 4750 
Q 2731 4750 3128 4425 
Q 3525 4100 3525 3541 
Q 3525 3141 3298 2862 
Q 3072 2584 2669 2484 
Q 3125 2378 3379 2068 
Q 3634 1759 3634 1313 
Q 3634 634 3220 271 
Q 2806 -91 2034 -91 
Q 1263 -91 848 271 
Q 434 634 434 1313 
Q 434 1759 690 2068 
Q 947 2378 1403 2484 
z
M 1172 3481 
Q 1172 3119 1398 2916 
Q 1625 2713 2034 2713 
Q 2441 2713 2670 2916 
Q 2900 3119 2900 3481 
Q 2900 3844 2670 4047 
Q 2441 4250 2034 4250 
Q 1625 4250 1398 4047 
Q 1172 3844 1172 3481 
z
" transform="scale(0.015625)"/>
       </defs>
       <use xlink:href="#DejaVuSans-38"/>
       <use xlink:href="#DejaVuSans-30" transform="translate(63.623047 0)"/>
      </g>
     </g>
    </g>
    <g id="ytick_5">
     <g id="line2d_11">
      <g>
       <use xlink:href="#md988906d06" x="50.87" y="150.568307" style="stroke: #000000; stroke-width: 0.8"/>
      </g>
     </g>
     <g id="text_12">
      <!-- 100 -->
      <g transform="translate(24.7825 154.367526) scale(0.1 -0.1)">
       <use xlink:href="#DejaVuSans-31"/>
       <use xlink:href="#DejaVuSans-30" transform="translate(63.623047 0)"/>
       <use xlink:href="#DejaVuSans-30" transform="translate(127.246094 0)"/>
      </g>
     </g>
    </g>
    <g id="ytick_6">
     <g id="line2d_12">
      <g>
       <use xlink:href="#md988906d06" x="50.87" y="94.212805" style="stroke: #000000; stroke-width: 0.8"/>
      </g>
     </g>
     <g id="text_13">
      <!-- 120 -->
      <g transform="translate(24.7825 98.012024) scale(0.1 -0.1)">
       <use xlink:href="#DejaVuSans-31"/>
       <use xlink:href="#DejaVuSans-32" transform="translate(63.623047 0)"/>
       <use xlink:href="#DejaVuSans-30" transform="translate(127.246094 0)"/>
      </g>
     </g>
    </g>
    <g id="text_14">
     <!-- Profit -->
     <g transform="translate(18.702813 229.779063) rotate(-90) scale(0.1 -0.1)">
      <defs>
       <path id="DejaVuSans-50" d="M 1259 4147 
L 1259 2394 
L 2053 2394 
Q 2494 2394 2734 2622 
Q 2975 2850 2975 3272 
Q 2975 3691 2734 3919 
Q 2494 4147 2053 4147 
L 1259 4147 
z
M 628 4666 
L 2053 4666 
Q 2838 4666 3239 4311 
Q 3641 3956 3641 3272 
Q 3641 2581 3239 2228 
Q 2838 1875 2053 1875 
L 1259 1875 
L 1259 0 
L 628 0 
L 628 4666 
z
" transform="scale(0.015625)"/>
       <path id="DejaVuSans-72" d="M 2631 2963 
Q 2534 3019 2420 3045 
Q 2306 3072 2169 3072 
Q 1681 3072 1420 2755 
Q 1159 2438 1159 1844 
L 1159 0 
L 581 0 
L 581 3500 
L 1159 3500 
L 1159 2956 
Q 1341 3275 1631 3429 
Q 1922 3584 2338 3584 
Q 2397 3584 2469 3576 
Q 2541 3569 2628 3553 
L 2631 2963 
z
" transform="scale(0.015625)"/>
       <path id="DejaVuSans-6f" d="M 1959 3097 
Q 1497 3097 1228 2736 
Q 959 2375 959 1747 
Q 959 1119 1226 758 
Q 1494 397 1959 397 
Q 2419 397 2687 759 
Q 2956 1122 2956 1747 
Q 2956 2369 2687 2733 
Q 2419 3097 1959 3097 
z
M 1959 3584 
Q 2709 3584 3137 3096 
Q 3566 2609 3566 1747 
Q 3566 888 3137 398 
Q 2709 -91 1959 -91 
Q 1206 -91 779 398 
Q 353 888 353 1747 
Q 353 2609 779 3096 
Q 1206 3584 1959 3584 
z
" transform="scale(0.015625)"/>
       <path id="DejaVuSans-66" d="M 2375 4863 
L 2375 4384 
L 1825 4384 
Q 1516 4384 1395 4259 
Q 1275 4134 1275 3809 
L 1275 3500 
L 2222 3500 
L 2222 3053 
L 1275 3053 
L 1275 0 
L 697 0 
L 697 3053 
L 147 3053 
L 147 3500 
L 697 3500 
L 697 3744 
Q 697 4328 969 4595 
Q 1241 4863 1831 4863 
L 2375 4863 
z
" transform="scale(0.015625)"/>
       <path id="DejaVuSans-69" d="M 603 3500 
L 1178 3500 
L 1178 0 
L 603 0 
L 603 3500 
z
M 603 4863 
L 1178 4863 
L 1178 4134 
L 603 4134 
L 603 4863 
z
" transform="scale(0.015625)"/>
      </defs>
      <use xlink:href="#DejaVuSans-50"/>
      <use xlink:href="#DejaVuSans-72" transform="translate(58.552734 0)"/>
      <use xlink:href="#DejaVuSans-6f" transform="translate(97.416016 0)"/>
      <use xlink:href="#DejaVuSans-66" transform="translate(158.597656 0)"/>
      <use xlink:href="#DejaVuSans-69" transform="translate(193.802734 0)"/>
      <use xlink:href="#DejaVuSans-74" transform="translate(221.585938 0)"/>
     </g>
    </g>
   </g>
   <g id="line2d_13">
    <path d="M 52.193327 248.650064 
L 54.83998 247.719999 
L 57.486633 238.869607 
L 60.133287 230.896137 
L 62.77994 223.931521 
L 65.426593 217.390715 
L 68.073247 211.684394 
L 70.7199 206.737809 
L 73.366553 202.249022 
L 76.013207 198.197911 
L 78.65986 194.512889 
L 83.953167 188.362141 
L 86.59982 185.688316 
L 94.53978 179.218389 
L 97.186433 177.278416 
L 102.47974 173.860398 
L 105.126393 172.247775 
L 115.713007 166.849863 
L 123.652967 163.250187 
L 126.29962 162.200637 
L 142.17954 157.120034 
L 150.1195 154.976003 
L 165.99942 151.231131 
L 187.172647 147.226004 
L 192.465953 146.429205 
L 197.75926 145.548694 
L 218.932487 142.561751 
L 232.165753 140.942571 
L 285.09882 135.880263 
L 311.565353 133.710199 
L 327.445273 132.677095 
L 340.67854 131.674991 
L 348.6185 131.116991 
L 359.205113 130.511093 
L 375.085033 129.61534 
L 380.37834 129.28066 
L 385.671647 129.042786 
L 388.3183 128.812199 
L 401.551567 128.195811 
L 409.491527 127.732982 
L 430.664753 126.586219 
L 438.604713 126.244036 
L 449.191327 125.724088 
L 502.124393 123.667575 
L 507.4177 123.495054 
L 533.884233 122.516405 
L 600.050567 120.636218 
L 607.990527 120.303818 
L 655.630287 118.675522 
L 668.863553 118.333619 
L 682.09682 118.039313 
L 690.03678 117.933178 
L 700.623393 117.695647 
L 711.210007 117.461384 
L 716.503313 117.322357 
L 740.323193 116.738237 
L 748.263153 116.614474 
L 761.49642 116.414135 
L 780.022993 116.025968 
L 787.962953 115.809291 
L 803.842873 115.499054 
L 809.13618 115.390038 
L 827.662753 114.99998 
L 832.95606 114.907174 
L 843.542673 114.71825 
L 843.542673 114.71825 
" clip-path="url(#pc32ea56175)" style="fill: none; stroke: #0000ff; stroke-width: 1.5; stroke-linecap: square"/>
   </g>
   <g id="patch_3">
    <path d="M 50.87 390.04 
L 50.87 43.44 
" style="fill: none; stroke: #000000; stroke-width: 0.8; stroke-linejoin: miter; stroke-linecap: square"/>
   </g>
   <g id="patch_4">
    <path d="M 844.866 390.04 
L 844.866 43.44 
" style="fill: none; stroke: #000000; stroke-width: 0.8; stroke-linejoin: miter; stroke-linecap: square"/>
   </g>
   <g id="patch_5">
    <path d="M 50.87 390.04 
L 844.866 390.04 
" style="fill: none; stroke: #000000; stroke-width: 0.8; stroke-linejoin: miter; stroke-linecap: square"/>
   </g>
   <g id="patch_6">
    <path d="M 50.87 43.44 
L 844.866 43.44 
" style="fill: none; stroke: #000000; stroke-width: 0.8; stroke-linejoin: miter; stroke-linecap: square"/>
   </g>
   <g id="text_15">
    <!-- Mean profit per step with confidence interval per simulation step -->
    <g transform="translate(220.284875 21.763062) scale(0.14 -0.14)">
     <defs>
      <path id="DejaVuSans-4d" d="M 628 4666 
L 1569 4666 
L 2759 1491 
L 3956 4666 
L 4897 4666 
L 4897 0 
L 4281 0 
L 4281 4097 
L 3078 897 
L 2444 897 
L 1241 4097 
L 1241 0 
L 628 0 
L 628 4666 
z
" transform="scale(0.015625)"/>
      <path id="DejaVuSans-61" d="M 2194 1759 
Q 1497 1759 1228 1600 
Q 959 1441 959 1056 
Q 959 750 1161 570 
Q 1363 391 1709 391 
Q 2188 391 2477 730 
Q 2766 1069 2766 1631 
L 2766 1759 
L 2194 1759 
z
M 3341 1997 
L 3341 0 
L 2766 0 
L 2766 531 
Q 2569 213 2275 61 
Q 1981 -91 1556 -91 
Q 1019 -91 701 211 
Q 384 513 384 1019 
Q 384 1609 779 1909 
Q 1175 2209 1959 2209 
L 2766 2209 
L 2766 2266 
Q 2766 2663 2505 2880 
Q 2244 3097 1772 3097 
Q 1472 3097 1187 3025 
Q 903 2953 641 2809 
L 641 3341 
Q 956 3463 1253 3523 
Q 1550 3584 1831 3584 
Q 2591 3584 2966 3190 
Q 3341 2797 3341 1997 
z
" transform="scale(0.015625)"/>
      <path id="DejaVuSans-6e" d="M 3513 2113 
L 3513 0 
L 2938 0 
L 2938 2094 
Q 2938 2591 2744 2837 
Q 2550 3084 2163 3084 
Q 1697 3084 1428 2787 
Q 1159 2491 1159 1978 
L 1159 0 
L 581 0 
L 581 3500 
L 1159 3500 
L 1159 2956 
Q 1366 3272 1645 3428 
Q 1925 3584 2291 3584 
Q 2894 3584 3203 3211 
Q 3513 2838 3513 2113 
z
" transform="scale(0.015625)"/>
      <path id="DejaVuSans-20" transform="scale(0.015625)"/>
      <path id="DejaVuSans-73" d="M 2834 3397 
L 2834 2853 
Q 2591 2978 2328 3040 
Q 2066 3103 1784 3103 
Q 1356 3103 1142 2972 
Q 928 2841 928 2578 
Q 928 2378 1081 2264 
Q 1234 2150 1697 2047 
L 1894 2003 
Q 2506 1872 2764 1633 
Q 3022 1394 3022 966 
Q 3022 478 2636 193 
Q 2250 -91 1575 -91 
Q 1294 -91 989 -36 
Q 684 19 347 128 
L 347 722 
Q 666 556 975 473 
Q 1284 391 1588 391 
Q 1994 391 2212 530 
Q 2431 669 2431 922 
Q 2431 1156 2273 1281 
Q 2116 1406 1581 1522 
L 1381 1569 
Q 847 1681 609 1914 
Q 372 2147 372 2553 
Q 372 3047 722 3315 
Q 1072 3584 1716 3584 
Q 2034 3584 2315 3537 
Q 2597 3491 2834 3397 
z
" transform="scale(0.015625)"/>
      <path id="DejaVuSans-77" d="M 269 3500 
L 844 3500 
L 1563 769 
L 2278 3500 
L 2956 3500 
L 3675 769 
L 4391 3500 
L 4966 3500 
L 4050 0 
L 3372 0 
L 2619 2869 
L 1863 0 
L 1184 0 
L 269 3500 
z
" transform="scale(0.015625)"/>
      <path id="DejaVuSans-68" d="M 3513 2113 
L 3513 0 
L 2938 0 
L 2938 2094 
Q 2938 2591 2744 2837 
Q 2550 3084 2163 3084 
Q 1697 3084 1428 2787 
Q 1159 2491 1159 1978 
L 1159 0 
L 581 0 
L 581 4863 
L 1159 4863 
L 1159 2956 
Q 1366 3272 1645 3428 
Q 1925 3584 2291 3584 
Q 2894 3584 3203 3211 
Q 3513 2838 3513 2113 
z
" transform="scale(0.015625)"/>
      <path id="DejaVuSans-63" d="M 3122 3366 
L 3122 2828 
Q 2878 2963 2633 3030 
Q 2388 3097 2138 3097 
Q 1578 3097 1268 2742 
Q 959 2388 959 1747 
Q 959 1106 1268 751 
Q 1578 397 2138 397 
Q 2388 397 2633 464 
Q 2878 531 3122 666 
L 3122 134 
Q 2881 22 2623 -34 
Q 2366 -91 2075 -91 
Q 1284 -91 818 406 
Q 353 903 353 1747 
Q 353 2603 823 3093 
Q 1294 3584 2113 3584 
Q 2378 3584 2631 3529 
Q 2884 3475 3122 3366 
z
" transform="scale(0.015625)"/>
      <path id="DejaVuSans-64" d="M 2906 2969 
L 2906 4863 
L 3481 4863 
L 3481 0 
L 2906 0 
L 2906 525 
Q 2725 213 2448 61 
Q 2172 -91 1784 -91 
Q 1150 -91 751 415 
Q 353 922 353 1747 
Q 353 2572 751 3078 
Q 1150 3584 1784 3584 
Q 2172 3584 2448 3432 
Q 2725 3281 2906 2969 
z
M 947 1747 
Q 947 1113 1208 752 
Q 1469 391 1925 391 
Q 2381 391 2643 752 
Q 2906 1113 2906 1747 
Q 2906 2381 2643 2742 
Q 2381 3103 1925 3103 
Q 1469 3103 1208 2742 
Q 947 2381 947 1747 
z
" transform="scale(0.015625)"/>
      <path id="DejaVuSans-76" d="M 191 3500 
L 800 3500 
L 1894 563 
L 2988 3500 
L 3597 3500 
L 2284 0 
L 1503 0 
L 191 3500 
z
" transform="scale(0.015625)"/>
      <path id="DejaVuSans-6c" d="M 603 4863 
L 1178 4863 
L 1178 0 
L 603 0 
L 603 4863 
z
" transform="scale(0.015625)"/>
      <path id="DejaVuSans-6d" d="M 3328 2828 
Q 3544 3216 3844 3400 
Q 4144 3584 4550 3584 
Q 5097 3584 5394 3201 
Q 5691 2819 5691 2113 
L 5691 0 
L 5113 0 
L 5113 2094 
Q 5113 2597 4934 2840 
Q 4756 3084 4391 3084 
Q 3944 3084 3684 2787 
Q 3425 2491 3425 1978 
L 3425 0 
L 2847 0 
L 2847 2094 
Q 2847 2600 2669 2842 
Q 2491 3084 2119 3084 
Q 1678 3084 1418 2786 
Q 1159 2488 1159 1978 
L 1159 0 
L 581 0 
L 581 3500 
L 1159 3500 
L 1159 2956 
Q 1356 3278 1631 3431 
Q 1906 3584 2284 3584 
Q 2666 3584 2933 3390 
Q 3200 3197 3328 2828 
z
" transform="scale(0.015625)"/>
      <path id="DejaVuSans-75" d="M 544 1381 
L 544 3500 
L 1119 3500 
L 1119 1403 
Q 1119 906 1312 657 
Q 1506 409 1894 409 
Q 2359 409 2629 706 
Q 2900 1003 2900 1516 
L 2900 3500 
L 3475 3500 
L 3475 0 
L 2900 0 
L 2900 538 
Q 2691 219 2414 64 
Q 2138 -91 1772 -91 
Q 1169 -91 856 284 
Q 544 659 544 1381 
z
M 1991 3584 
L 1991 3584 
z
" transform="scale(0.015625)"/>
     </defs>
     <use xlink:href="#DejaVuSans-4d"/>
     <use xlink:href="#DejaVuSans-65" transform="translate(86.279297 0)"/>
     <use xlink:href="#DejaVuSans-61" transform="translate(147.802734 0)"/>
     <use xlink:href="#DejaVuSans-6e" transform="translate(209.082031 0)"/>
     <use xlink:href="#DejaVuSans-20" transform="translate(272.460938 0)"/>
     <use xlink:href="#DejaVuSans-70" transform="translate(304.248047 0)"/>
     <use xlink:href="#DejaVuSans-72" transform="translate(367.724609 0)"/>
     <use xlink:href="#DejaVuSans-6f" transform="translate(406.587891 0)"/>
     <use xlink:href="#DejaVuSans-66" transform="translate(467.769531 0)"/>
     <use xlink:href="#DejaVuSans-69" transform="translate(502.974609 0)"/>
     <use xlink:href="#DejaVuSans-74" transform="translate(530.757812 0)"/>
     <use xlink:href="#DejaVuSans-20" transform="translate(569.966797 0)"/>
     <use xlink:href="#DejaVuSans-70" transform="translate(601.753906 0)"/>
     <use xlink:href="#DejaVuSans-65" transform="translate(665.230469 0)"/>
     <use xlink:href="#DejaVuSans-72" transform="translate(726.753906 0)"/>
     <use xlink:href="#DejaVuSans-20" transform="translate(767.867188 0)"/>
     <use xlink:href="#DejaVuSans-73" transform="translate(799.654297 0)"/>
     <use xlink:href="#DejaVuSans-74" transform="translate(851.753906 0)"/>
     <use xlink:href="#DejaVuSans-65" transform="translate(890.962891 0)"/>
     <use xlink:href="#DejaVuSans-70" transform="translate(952.486328 0)"/>
     <use xlink:href="#DejaVuSans-20" transform="translate(1015.962891 0)"/>
     <use xlink:href="#DejaVuSans-77" transform="translate(1047.75 0)"/>
     <use xlink:href="#DejaVuSans-69" transform="translate(1129.537109 0)"/>
     <use xlink:href="#DejaVuSans-74" transform="translate(1157.320312 0)"/>
     <use xlink:href="#DejaVuSans-68" transform="translate(1196.529297 0)"/>
     <use xlink:href="#DejaVuSans-20" transform="translate(1259.908203 0)"/>
     <use xlink:href="#DejaVuSans-63" transform="translate(1291.695312 0)"/>
     <use xlink:href="#DejaVuSans-6f" transform="translate(1346.675781 0)"/>
     <use xlink:href="#DejaVuSans-6e" transform="translate(1407.857422 0)"/>
     <use xlink:href="#DejaVuSans-66" transform="translate(1471.236328 0)"/>
     <use xlink:href="#DejaVuSans-69" transform="translate(1506.441406 0)"/>
     <use xlink:href="#DejaVuSans-64" transform="translate(1534.224609 0)"/>
     <use xlink:href="#DejaVuSans-65" transform="translate(1597.701172 0)"/>
     <use xlink:href="#DejaVuSans-6e" transform="translate(1659.224609 0)"/>
     <use xlink:href="#DejaVuSans-63" transform="translate(1722.603516 0)"/>
     <use xlink:href="#DejaVuSans-65" transform="translate(1777.583984 0)"/>
     <use xlink:href="#DejaVuSans-20" transform="translate(1839.107422 0)"/>
     <use xlink:href="#DejaVuSans-69" transform="translate(1870.894531 0)"/>
     <use xlink:href="#DejaVuSans-6e" transform="translate(1898.677734 0)"/>
     <use xlink:href="#DejaVuSans-74" transform="translate(1962.056641 0)"/>
     <use xlink:href="#DejaVuSans-65" transform="translate(2001.265625 0)"/>
     <use xlink:href="#DejaVuSans-72" transform="translate(2062.789062 0)"/>
     <use xlink:href="#DejaVuSans-76" transform="translate(2103.902344 0)"/>
     <use xlink:href="#DejaVuSans-61" transform="translate(2163.082031 0)"/>
     <use xlink:href="#DejaVuSans-6c" transform="translate(2224.361328 0)"/>
     <use xlink:href="#DejaVuSans-20" transform="translate(2252.144531 0)"/>
     <use xlink:href="#DejaVuSans-70" transform="translate(2283.931641 0)"/>
     <use xlink:href="#DejaVuSans-65" transform="translate(2347.408203 0)"/>
     <use xlink:href="#DejaVuSans-72" transform="translate(2408.931641 0)"/>
     <use xlink:href="#DejaVuSans-20" transform="translate(2450.044922 0)"/>
     <use xlink:href="#DejaVuSans-73" transform="translate(2481.832031 0)"/>
     <use xlink:href="#DejaVuSans-69" transform="translate(2533.931641 0)"/>
     <use xlink:href="#DejaVuSans-6d" transform="translate(2561.714844 0)"/>
     <use xlink:href="#DejaVuSans-75" transform="translate(2659.126953 0)"/>
     <use xlink:href="#DejaVuSans-6c" transform="translate(2722.505859 0)"/>
     <use xlink:href="#DejaVuSans-61" transform="translate(2750.289062 0)"/>
     <use xlink:href="#DejaVuSans-74" transform="translate(2811.568359 0)"/>
     <use xlink:href="#DejaVuSans-69" transform="translate(2850.777344 0)"/>
     <use xlink:href="#DejaVuSans-6f" transform="translate(2878.560547 0)"/>
     <use xlink:href="#DejaVuSans-6e" transform="translate(2939.742188 0)"/>
     <use xlink:href="#DejaVuSans-20" transform="translate(3003.121094 0)"/>
     <use xlink:href="#DejaVuSans-73" transform="translate(3034.908203 0)"/>
     <use xlink:href="#DejaVuSans-74" transform="translate(3087.007812 0)"/>
     <use xlink:href="#DejaVuSans-65" transform="translate(3126.216797 0)"/>
     <use xlink:href="#DejaVuSans-70" transform="translate(3187.740234 0)"/>
    </g>
    <!-- Base Product: Green Crack, Recipe size: 8, T0: 10.0 -->
    <g transform="translate(268.031437 37.44) scale(0.14 -0.14)">
     <defs>
      <path id="DejaVuSans-42" d="M 1259 2228 
L 1259 519 
L 2272 519 
Q 2781 519 3026 730 
Q 3272 941 3272 1375 
Q 3272 1813 3026 2020 
Q 2781 2228 2272 2228 
L 1259 2228 
z
M 1259 4147 
L 1259 2741 
L 2194 2741 
Q 2656 2741 2882 2914 
Q 3109 3088 3109 3444 
Q 3109 3797 2882 3972 
Q 2656 4147 2194 4147 
L 1259 4147 
z
M 628 4666 
L 2241 4666 
Q 2963 4666 3353 4366 
Q 3744 4066 3744 3513 
Q 3744 3084 3544 2831 
Q 3344 2578 2956 2516 
Q 3422 2416 3680 2098 
Q 3938 1781 3938 1306 
Q 3938 681 3513 340 
Q 3088 0 2303 0 
L 628 0 
L 628 4666 
z
" transform="scale(0.015625)"/>
      <path id="DejaVuSans-3a" d="M 750 794 
L 1409 794 
L 1409 0 
L 750 0 
L 750 794 
z
M 750 3309 
L 1409 3309 
L 1409 2516 
L 750 2516 
L 750 3309 
z
" transform="scale(0.015625)"/>
      <path id="DejaVuSans-47" d="M 3809 666 
L 3809 1919 
L 2778 1919 
L 2778 2438 
L 4434 2438 
L 4434 434 
Q 4069 175 3628 42 
Q 3188 -91 2688 -91 
Q 1594 -91 976 548 
Q 359 1188 359 2328 
Q 359 3472 976 4111 
Q 1594 4750 2688 4750 
Q 3144 4750 3555 4637 
Q 3966 4525 4313 4306 
L 4313 3634 
Q 3963 3931 3569 4081 
Q 3175 4231 2741 4231 
Q 1884 4231 1454 3753 
Q 1025 3275 1025 2328 
Q 1025 1384 1454 906 
Q 1884 428 2741 428 
Q 3075 428 3337 486 
Q 3600 544 3809 666 
z
" transform="scale(0.015625)"/>
      <path id="DejaVuSans-43" d="M 4122 4306 
L 4122 3641 
Q 3803 3938 3442 4084 
Q 3081 4231 2675 4231 
Q 1875 4231 1450 3742 
Q 1025 3253 1025 2328 
Q 1025 1406 1450 917 
Q 1875 428 2675 428 
Q 3081 428 3442 575 
Q 3803 722 4122 1019 
L 4122 359 
Q 3791 134 3420 21 
Q 3050 -91 2638 -91 
Q 1578 -91 968 557 
Q 359 1206 359 2328 
Q 359 3453 968 4101 
Q 1578 4750 2638 4750 
Q 3056 4750 3426 4639 
Q 3797 4528 4122 4306 
z
" transform="scale(0.015625)"/>
      <path id="DejaVuSans-6b" d="M 581 4863 
L 1159 4863 
L 1159 1991 
L 2875 3500 
L 3609 3500 
L 1753 1863 
L 3688 0 
L 2938 0 
L 1159 1709 
L 1159 0 
L 581 0 
L 581 4863 
z
" transform="scale(0.015625)"/>
      <path id="DejaVuSans-2c" d="M 750 794 
L 1409 794 
L 1409 256 
L 897 -744 
L 494 -744 
L 750 256 
L 750 794 
z
" transform="scale(0.015625)"/>
      <path id="DejaVuSans-52" d="M 2841 2188 
Q 3044 2119 3236 1894 
Q 3428 1669 3622 1275 
L 4263 0 
L 3584 0 
L 2988 1197 
Q 2756 1666 2539 1819 
Q 2322 1972 1947 1972 
L 1259 1972 
L 1259 0 
L 628 0 
L 628 4666 
L 2053 4666 
Q 2853 4666 3247 4331 
Q 3641 3997 3641 3322 
Q 3641 2881 3436 2590 
Q 3231 2300 2841 2188 
z
M 1259 4147 
L 1259 2491 
L 2053 2491 
Q 2509 2491 2742 2702 
Q 2975 2913 2975 3322 
Q 2975 3731 2742 3939 
Q 2509 4147 2053 4147 
L 1259 4147 
z
" transform="scale(0.015625)"/>
      <path id="DejaVuSans-7a" d="M 353 3500 
L 3084 3500 
L 3084 2975 
L 922 459 
L 3084 459 
L 3084 0 
L 275 0 
L 275 525 
L 2438 3041 
L 353 3041 
L 353 3500 
z
" transform="scale(0.015625)"/>
      <path id="DejaVuSans-54" d="M -19 4666 
L 3928 4666 
L 3928 4134 
L 2272 4134 
L 2272 0 
L 1638 0 
L 1638 4134 
L -19 4134 
L -19 4666 
z
" transform="scale(0.015625)"/>
      <path id="DejaVuSans-2e" d="M 684 794 
L 1344 794 
L 1344 0 
L 684 0 
L 684 794 
z
" transform="scale(0.015625)"/>
     </defs>
     <use xlink:href="#DejaVuSans-42"/>
     <use xlink:href="#DejaVuSans-61" transform="translate(68.603516 0)"/>
     <use xlink:href="#DejaVuSans-73" transform="translate(129.882812 0)"/>
     <use xlink:href="#DejaVuSans-65" transform="translate(181.982422 0)"/>
     <use xlink:href="#DejaVuSans-20" transform="translate(243.505859 0)"/>
     <use xlink:href="#DejaVuSans-50" transform="translate(275.292969 0)"/>
     <use xlink:href="#DejaVuSans-72" transform="translate(333.845703 0)"/>
     <use xlink:href="#DejaVuSans-6f" transform="translate(372.708984 0)"/>
     <use xlink:href="#DejaVuSans-64" transform="translate(433.890625 0)"/>
     <use xlink:href="#DejaVuSans-75" transform="translate(497.367188 0)"/>
     <use xlink:href="#DejaVuSans-63" transform="translate(560.746094 0)"/>
     <use xlink:href="#DejaVuSans-74" transform="translate(615.726562 0)"/>
     <use xlink:href="#DejaVuSans-3a" transform="translate(654.935547 0)"/>
     <use xlink:href="#DejaVuSans-20" transform="translate(688.626953 0)"/>
     <use xlink:href="#DejaVuSans-47" transform="translate(720.414062 0)"/>
     <use xlink:href="#DejaVuSans-72" transform="translate(797.904297 0)"/>
     <use xlink:href="#DejaVuSans-65" transform="translate(836.767578 0)"/>
     <use xlink:href="#DejaVuSans-65" transform="translate(898.291016 0)"/>
     <use xlink:href="#DejaVuSans-6e" transform="translate(959.814453 0)"/>
     <use xlink:href="#DejaVuSans-20" transform="translate(1023.193359 0)"/>
     <use xlink:href="#DejaVuSans-43" transform="translate(1054.980469 0)"/>
     <use xlink:href="#DejaVuSans-72" transform="translate(1124.804688 0)"/>
     <use xlink:href="#DejaVuSans-61" transform="translate(1165.917969 0)"/>
     <use xlink:href="#DejaVuSans-63" transform="translate(1227.197266 0)"/>
     <use xlink:href="#DejaVuSans-6b" transform="translate(1282.177734 0)"/>
     <use xlink:href="#DejaVuSans-2c" transform="translate(1340.087891 0)"/>
     <use xlink:href="#DejaVuSans-20" transform="translate(1371.875 0)"/>
     <use xlink:href="#DejaVuSans-52" transform="translate(1403.662109 0)"/>
     <use xlink:href="#DejaVuSans-65" transform="translate(1468.644531 0)"/>
     <use xlink:href="#DejaVuSans-63" transform="translate(1530.167969 0)"/>
     <use xlink:href="#DejaVuSans-69" transform="translate(1585.148438 0)"/>
     <use xlink:href="#DejaVuSans-70" transform="translate(1612.931641 0)"/>
     <use xlink:href="#DejaVuSans-65" transform="translate(1676.408203 0)"/>
     <use xlink:href="#DejaVuSans-20" transform="translate(1737.931641 0)"/>
     <use xlink:href="#DejaVuSans-73" transform="translate(1769.71875 0)"/>
     <use xlink:href="#DejaVuSans-69" transform="translate(1821.818359 0)"/>
     <use xlink:href="#DejaVuSans-7a" transform="translate(1849.601562 0)"/>
     <use xlink:href="#DejaVuSans-65" transform="translate(1902.091797 0)"/>
     <use xlink:href="#DejaVuSans-3a" transform="translate(1963.615234 0)"/>
     <use xlink:href="#DejaVuSans-20" transform="translate(1997.306641 0)"/>
     <use xlink:href="#DejaVuSans-38" transform="translate(2029.09375 0)"/>
     <use xlink:href="#DejaVuSans-2c" transform="translate(2092.716797 0)"/>
     <use xlink:href="#DejaVuSans-20" transform="translate(2124.503906 0)"/>
     <use xlink:href="#DejaVuSans-54" transform="translate(2156.291016 0)"/>
     <use xlink:href="#DejaVuSans-30" transform="translate(2217.375 0)"/>
     <use xlink:href="#DejaVuSans-3a" transform="translate(2280.998047 0)"/>
     <use xlink:href="#DejaVuSans-20" transform="translate(2314.689453 0)"/>
     <use xlink:href="#DejaVuSans-31" transform="translate(2346.476562 0)"/>
     <use xlink:href="#DejaVuSans-30" transform="translate(2410.099609 0)"/>
     <use xlink:href="#DejaVuSans-2e" transform="translate(2473.722656 0)"/>
     <use xlink:href="#DejaVuSans-30" transform="translate(2505.509766 0)"/>
    </g>
   </g>
  </g>
 </g>
 <defs>
  <clipPath id="pc32ea56175">
   <rect x="50.87" y="43.44" width="793.996" height="346.6"/>
  </clipPath>
 </defs>
</svg>
