<?xml version="1.0" encoding="utf-8" standalone="no"?>
<!DOCTYPE svg PUBLIC "-//W3C//DTD SVG 1.1//EN"
  "http://www.w3.org/Graphics/SVG/1.1/DTD/svg11.dtd">
<svg xmlns:xlink="http://www.w3.org/1999/xlink" width="864pt" height="432pt" viewBox="0 0 864 432" xmlns="http://www.w3.org/2000/svg" version="1.1">
 <metadata>
  <rdf:RDF xmlns:dc="http://purl.org/dc/elements/1.1/" xmlns:cc="http://creativecommons.org/ns#" xmlns:rdf="http://www.w3.org/1999/02/22-rdf-syntax-ns#">
   <cc:Work>
    <dc:type rdf:resource="http://purl.org/dc/dcmitype/StillImage"/>
    <dc:date>2025-05-24T02:09:03.251693</dc:date>
    <dc:format>image/svg+xml</dc:format>
    <dc:creator>
     <cc:Agent>
      <dc:title>Matplotlib v3.10.3, https://matplotlib.org/</dc:title>
     </cc:Agent>
    </dc:creator>
   </cc:Work>
  </rdf:RDF>
 </metadata>
 <defs>
  <style type="text/css">*{stroke-linejoin: round; stroke-linecap: butt}</style>
 </defs>
 <g id="figure_1">
  <g id="patch_1">
   <path d="M 0 432 
L 864 432 
L 864 0 
L 0 0 
z
" style="fill: #ffffff"/>
  </g>
  <g id="axes_1">
   <g id="patch_2">
    <path d="M 50.87 390.04 
L 844.866 390.04 
L 844.866 43.44 
L 50.87 43.44 
z
" style="fill: #ffffff"/>
   </g>
   <g id="FillBetweenPolyCollection_1">
    <defs>
     <path id="m22a52b2d44" d="M 52.193327 -311.474228 
L 52.193327 -59.923382 
L 54.83998 -57.714545 
L 57.486633 -70.684017 
L 60.133287 -82.400222 
L 62.77994 -93.055795 
L 65.426593 -102.076398 
L 68.073247 -111.566443 
L 70.7199 -120.192666 
L 73.366553 -127.855182 
L 76.013207 -133.633772 
L 78.65986 -140.453159 
L 81.306513 -146.260812 
L 83.953167 -151.272691 
L 86.59982 -156.064325 
L 89.246473 -161.365048 
L 91.893127 -166.402113 
L 94.53978 -169.713518 
L 97.186433 -172.937271 
L 99.833087 -176.455793 
L 102.47974 -178.997866 
L 105.126393 -181.965891 
L 107.773047 -185.01311 
L 110.4197 -187.790823 
L 113.066353 -189.993008 
L 115.713007 -192.304109 
L 118.35966 -194.499444 
L 121.006313 -196.670198 
L 123.652967 -197.993826 
L 126.29962 -199.952495 
L 128.946273 -201.441271 
L 131.592927 -203.162174 
L 134.23958 -204.94508 
L 136.886233 -206.440596 
L 139.532887 -208.206321 
L 142.17954 -209.595123 
L 144.826193 -210.850758 
L 147.472847 -212.380082 
L 150.1195 -213.721793 
L 152.766153 -214.649511 
L 155.412807 -215.835589 
L 158.05946 -217.043847 
L 160.706113 -218.066165 
L 163.352767 -219.285502 
L 165.99942 -220.28119 
L 168.646073 -221.139043 
L 171.292727 -222.165458 
L 173.93938 -222.848273 
L 176.586033 -223.541551 
L 179.232687 -224.480435 
L 181.87934 -225.046515 
L 184.525993 -225.916526 
L 187.172647 -226.630419 
L 189.8193 -227.587255 
L 192.465953 -228.204522 
L 195.112607 -228.992994 
L 197.75926 -229.658762 
L 200.405913 -230.322789 
L 203.052567 -230.950144 
L 205.69922 -231.474904 
L 208.345873 -232.299146 
L 210.992527 -232.807761 
L 213.63918 -233.419543 
L 216.285833 -234.105376 
L 218.932487 -234.628176 
L 221.57914 -235.295044 
L 224.225793 -236.020964 
L 226.872447 -236.14151 
L 229.5191 -236.567573 
L 232.165753 -236.96302 
L 234.812407 -237.53617 
L 237.45906 -237.605463 
L 240.105713 -237.896421 
L 242.752367 -238.570977 
L 245.39902 -239.428675 
L 248.045673 -239.62728 
L 250.692327 -240.160277 
L 253.33898 -240.538655 
L 255.985633 -240.845185 
L 258.632287 -241.387653 
L 261.27894 -241.896863 
L 263.925593 -241.99622 
L 266.572247 -242.209913 
L 269.2189 -242.644698 
L 271.865553 -242.846694 
L 274.512207 -243.274145 
L 277.15886 -243.759633 
L 279.805513 -243.915861 
L 282.452167 -244.046142 
L 285.09882 -244.42855 
L 287.745473 -244.711249 
L 290.392127 -245.215503 
L 293.03878 -245.47503 
L 295.685433 -245.616765 
L 298.332087 -245.865698 
L 300.97874 -246.353851 
L 303.625393 -246.833062 
L 306.272047 -247.140583 
L 308.9187 -247.479359 
L 311.565353 -247.648956 
L 314.212007 -248.015198 
L 316.85866 -248.33785 
L 319.505313 -248.652178 
L 322.151967 -248.84684 
L 324.79862 -248.979566 
L 327.445273 -248.936572 
L 330.091927 -249.121741 
L 332.73858 -249.279863 
L 335.385233 -249.416091 
L 338.031887 -249.631303 
L 340.67854 -249.888122 
L 343.325193 -250.201546 
L 345.971847 -250.497085 
L 348.6185 -250.714742 
L 351.265153 -251.067922 
L 353.911807 -251.251506 
L 356.55846 -251.438327 
L 359.205113 -251.513698 
L 361.851767 -252.043766 
L 364.49842 -252.114733 
L 367.145073 -252.364371 
L 369.791727 -252.492317 
L 372.43838 -252.577402 
L 375.085033 -252.933093 
L 377.731687 -253.201916 
L 380.37834 -253.492433 
L 383.024993 -253.664013 
L 385.671647 -253.764934 
L 388.3183 -253.953958 
L 390.964953 -254.121815 
L 393.611607 -254.427684 
L 396.25826 -254.657984 
L 398.904913 -254.855377 
L 401.551567 -255.291087 
L 404.19822 -255.28318 
L 406.844873 -255.250824 
L 409.491527 -255.153691 
L 412.13818 -255.313773 
L 414.784833 -255.474736 
L 417.431487 -255.717569 
L 420.07814 -255.912297 
L 422.724793 -256.087731 
L 425.371447 -256.140967 
L 428.0181 -256.146759 
L 430.664753 -256.330012 
L 433.311407 -256.675572 
L 435.95806 -256.956971 
L 438.604713 -257.264184 
L 441.251367 -257.419068 
L 443.89802 -257.576749 
L 446.544673 -257.550362 
L 449.191327 -257.908278 
L 451.83798 -258.057193 
L 454.484633 -258.096927 
L 457.131287 -258.365155 
L 459.77794 -258.42958 
L 462.424593 -258.374824 
L 465.071247 -258.721947 
L 467.7179 -258.871964 
L 470.364553 -259.003787 
L 473.011207 -258.91227 
L 475.65786 -258.959229 
L 478.304513 -259.178362 
L 480.951167 -259.300846 
L 483.59782 -259.583919 
L 486.244473 -259.599865 
L 488.891127 -259.699002 
L 491.53778 -259.727415 
L 494.184433 -259.769683 
L 496.831087 -259.836684 
L 499.47774 -259.944676 
L 502.124393 -259.91406 
L 504.771047 -260.171121 
L 507.4177 -260.26636 
L 510.064353 -260.383888 
L 512.711007 -260.615311 
L 515.35766 -260.673106 
L 518.004313 -260.708942 
L 520.650967 -260.800172 
L 523.29762 -260.915938 
L 525.944273 -261.174607 
L 528.590927 -261.448605 
L 531.23758 -261.516708 
L 533.884233 -261.694543 
L 536.530887 -261.792116 
L 539.17754 -261.850881 
L 541.824193 -262.047305 
L 544.470847 -262.127742 
L 547.1175 -262.272032 
L 549.764153 -262.29615 
L 552.410807 -262.407864 
L 555.05746 -262.51971 
L 557.704113 -262.474756 
L 560.350767 -262.665607 
L 562.99742 -262.899739 
L 565.644073 -262.885511 
L 568.290727 -263.058191 
L 570.93738 -263.22411 
L 573.584033 -263.40091 
L 576.230687 -263.516147 
L 578.87734 -263.654006 
L 581.523993 -263.785234 
L 584.170647 -263.999962 
L 586.8173 -264.320654 
L 589.463953 -264.305985 
L 592.110607 -264.35171 
L 594.75726 -264.533311 
L 597.403913 -264.675707 
L 600.050567 -264.655399 
L 602.69722 -264.815151 
L 605.343873 -264.905257 
L 607.990527 -264.866404 
L 610.63718 -264.976752 
L 613.283833 -265.083026 
L 615.930487 -265.350108 
L 618.57714 -265.350505 
L 621.223793 -265.538493 
L 623.870447 -265.470412 
L 626.5171 -265.478165 
L 629.163753 -265.563911 
L 631.810407 -265.574769 
L 634.45706 -265.629547 
L 637.103713 -265.737957 
L 639.750367 -265.816941 
L 642.39702 -265.901981 
L 645.043673 -266.049663 
L 647.690327 -266.132567 
L 650.33698 -266.488677 
L 652.983633 -266.62506 
L 655.630287 -266.771552 
L 658.27694 -266.856196 
L 660.923593 -266.841637 
L 663.570247 -266.969584 
L 666.2169 -267.056431 
L 668.863553 -267.005926 
L 671.510207 -267.126076 
L 674.15686 -267.256776 
L 676.803513 -267.367388 
L 679.450167 -267.326927 
L 682.09682 -267.415096 
L 684.743473 -267.474102 
L 687.390127 -267.608128 
L 690.03678 -267.826798 
L 692.683433 -267.834925 
L 695.330087 -267.894438 
L 697.97674 -268.096215 
L 700.623393 -268.20914 
L 703.270047 -268.383517 
L 705.9167 -268.51523 
L 708.563353 -268.541815 
L 711.210007 -268.490363 
L 713.85666 -268.543665 
L 716.503313 -268.817443 
L 719.149967 -268.876031 
L 721.79662 -269.00585 
L 724.443273 -269.023845 
L 727.089927 -269.092939 
L 729.73658 -269.1371 
L 732.383233 -269.161659 
L 735.029887 -269.338326 
L 737.67654 -269.325463 
L 740.323193 -269.447221 
L 742.969847 -269.569308 
L 745.6165 -269.629372 
L 748.263153 -269.777318 
L 750.909807 -269.800577 
L 753.55646 -269.89793 
L 756.203113 -269.766988 
L 758.849767 -269.961034 
L 761.49642 -270.143185 
L 764.143073 -270.273004 
L 766.789727 -270.457248 
L 769.43638 -270.530351 
L 772.083033 -270.604687 
L 774.729687 -270.633893 
L 777.37634 -270.677526 
L 780.022993 -270.880338 
L 782.669647 -270.900491 
L 785.3163 -270.898134 
L 787.962953 -271.072687 
L 790.609607 -271.164644 
L 793.25626 -271.290652 
L 795.902913 -271.384415 
L 798.549567 -271.674052 
L 801.19622 -271.658259 
L 803.842873 -271.645308 
L 806.489527 -271.694844 
L 809.13618 -271.786228 
L 811.782833 -271.929152 
L 814.429487 -272.02851 
L 817.07614 -272.108595 
L 819.722793 -272.105137 
L 822.369447 -272.119277 
L 825.0161 -272.29242 
L 827.662753 -272.312398 
L 830.309407 -272.323432 
L 832.95606 -272.31079 
L 835.602713 -272.251717 
L 838.249367 -272.285857 
L 840.89602 -272.405103 
L 843.542673 -272.459727 
L 843.542673 -372.781711 
L 843.542673 -372.781711 
L 840.89602 -372.746734 
L 838.249367 -372.805455 
L 835.602713 -372.765412 
L 832.95606 -372.696075 
L 830.309407 -372.622818 
L 827.662753 -372.539165 
L 825.0161 -372.543614 
L 822.369447 -372.570045 
L 819.722793 -372.521545 
L 817.07614 -372.452869 
L 814.429487 -372.46093 
L 811.782833 -372.427892 
L 809.13618 -372.39525 
L 806.489527 -372.439345 
L 803.842873 -372.390404 
L 801.19622 -372.335957 
L 798.549567 -372.272744 
L 795.902913 -372.37296 
L 793.25626 -372.372255 
L 790.609607 -372.361639 
L 787.962953 -372.339349 
L 785.3163 -372.395514 
L 782.669647 -372.305914 
L 780.022993 -372.227679 
L 777.37634 -372.292919 
L 774.729687 -372.239573 
L 772.083033 -372.194465 
L 769.43638 -372.129489 
L 766.789727 -372.124864 
L 764.143073 -372.182439 
L 761.49642 -372.219794 
L 758.849767 -372.275034 
L 756.203113 -372.365119 
L 753.55646 -372.208561 
L 750.909807 -372.186491 
L 748.263153 -372.130326 
L 745.6165 -372.205698 
L 742.969847 -372.151515 
L 740.323193 -372.176976 
L 737.67654 -372.186976 
L 735.029887 -372.101473 
L 732.383233 -372.176139 
L 729.73658 -372.103851 
L 727.089927 -372.067862 
L 724.443273 -372.004296 
L 721.79662 -371.906987 
L 719.149967 -371.931435 
L 716.503313 -371.861173 
L 713.85666 -371.925885 
L 711.210007 -371.923109 
L 708.563353 -371.773996 
L 705.9167 -371.696863 
L 703.270047 -371.700431 
L 700.623393 -371.715276 
L 697.97674 -371.707743 
L 695.330087 -371.749372 
L 692.683433 -371.728491 
L 690.03678 -371.647525 
L 687.390127 -371.633561 
L 684.743473 -371.677921 
L 682.09682 -371.634706 
L 679.450167 -371.577087 
L 676.803513 -371.390575 
L 674.15686 -371.339916 
L 671.510207 -371.346259 
L 668.863553 -371.358021 
L 666.2169 -371.242739 
L 663.570247 -371.177499 
L 660.923593 -371.187102 
L 658.27694 -371.070543 
L 655.630287 -371.069882 
L 652.983633 -371.097414 
L 650.33698 -371.122876 
L 647.690327 -371.277671 
L 645.043673 -371.234149 
L 642.39702 -371.212344 
L 639.750367 -371.119704 
L 637.103713 -371.088912 
L 634.45706 -370.996537 
L 631.810407 -370.977727 
L 629.163753 -370.857335 
L 626.5171 -370.79791 
L 623.870447 -370.713772 
L 621.223793 -370.597874 
L 618.57714 -370.579064 
L 615.930487 -370.495278 
L 613.283833 -370.535277 
L 610.63718 -370.499463 
L 607.990527 -370.471359 
L 605.343873 -370.30414 
L 602.69722 -370.23661 
L 600.050567 -370.219122 
L 597.403913 -370.097012 
L 594.75726 -370.076352 
L 592.110607 -370.090492 
L 589.463953 -370.070008 
L 586.8173 -369.986928 
L 584.170647 -370.108509 
L 581.523993 -370.161855 
L 578.87734 -370.242337 
L 576.230687 -370.167361 
L 573.584033 -370.123354 
L 570.93738 -370.108597 
L 568.290727 -370.116791 
L 565.644073 -370.129566 
L 562.99742 -369.958955 
L 560.350767 -369.966312 
L 557.704113 -370.00239 
L 555.05746 -369.901557 
L 552.410807 -369.846889 
L 549.764153 -369.831075 
L 547.1175 -369.682887 
L 544.470847 -369.666852 
L 541.824193 -369.654253 
L 539.17754 -369.693547 
L 536.530887 -369.596766 
L 533.884233 -369.49862 
L 531.23758 -369.527033 
L 528.590927 -369.443204 
L 525.944273 -369.5258 
L 523.29762 -369.536416 
L 520.650967 -369.497651 
L 518.004313 -369.414174 
L 515.35766 -369.348538 
L 512.711007 -369.187531 
L 510.064353 -369.186606 
L 507.4177 -369.235679 
L 504.771047 -369.143083 
L 502.124393 -369.137665 
L 499.47774 -368.978684 
L 496.831087 -368.915867 
L 494.184433 -368.748781 
L 491.53778 -368.645834 
L 488.891127 -368.535089 
L 486.244473 -368.462405 
L 483.59782 -368.341308 
L 480.951167 -368.352717 
L 478.304513 -368.327255 
L 475.65786 -368.325229 
L 473.011207 -368.194485 
L 470.364553 -368.037663 
L 467.7179 -368.06982 
L 465.071247 -368.108189 
L 462.424593 -368.22259 
L 459.77794 -368.018545 
L 457.131287 -367.902514 
L 454.484633 -367.872163 
L 451.83798 -367.709614 
L 449.191327 -367.761506 
L 446.544673 -367.82331 
L 443.89802 -367.692302 
L 441.251367 -367.664241 
L 438.604713 -367.635211 
L 435.95806 -367.699879 
L 433.311407 -367.78503 
L 430.664753 -367.893968 
L 428.0181 -367.821196 
L 425.371447 -367.710627 
L 422.724793 -367.536449 
L 420.07814 -367.478257 
L 417.431487 -367.458919 
L 414.784833 -367.414867 
L 412.13818 -367.337778 
L 409.491527 -367.358218 
L 406.844873 -367.095937 
L 404.19822 -366.858942 
L 401.551567 -366.621638 
L 398.904913 -366.762029 
L 396.25826 -366.769958 
L 393.611607 -366.733263 
L 390.964953 -366.827797 
L 388.3183 -366.731105 
L 385.671647 -366.649698 
L 383.024993 -366.505651 
L 380.37834 -366.402836 
L 377.731687 -366.402263 
L 375.085033 -366.317508 
L 372.43838 -366.39592 
L 369.791727 -366.24152 
L 367.145073 -366.085094 
L 364.49842 -366.020515 
L 361.851767 -365.843033 
L 359.205113 -365.901886 
L 356.55846 -365.78189 
L 353.911807 -365.656212 
L 351.265153 -365.502077 
L 348.6185 -365.523574 
L 345.971847 -365.418732 
L 343.325193 -365.412036 
L 340.67854 -365.431771 
L 338.031887 -365.411948 
L 335.385233 -365.239091 
L 332.73858 -365.082886 
L 330.091927 -364.974168 
L 327.445273 -364.798976 
L 324.79862 -364.555285 
L 322.151967 -364.32036 
L 319.505313 -364.104553 
L 316.85866 -363.994447 
L 314.212007 -363.942841 
L 311.565353 -363.877161 
L 308.9187 -363.631752 
L 306.272047 -363.551909 
L 303.625393 -363.497065 
L 300.97874 -363.482463 
L 298.332087 -363.365441 
L 295.685433 -363.259762 
L 293.03878 -363.083359 
L 290.392127 -362.918321 
L 287.745473 -363.012767 
L 285.09882 -362.90667 
L 282.452167 -362.861517 
L 279.805513 -362.716743 
L 277.15886 -362.524217 
L 274.512207 -362.412856 
L 271.865553 -362.25306 
L 269.2189 -362.105907 
L 266.572247 -362.035337 
L 263.925593 -361.856622 
L 261.27894 -361.664052 
L 258.632287 -361.61738 
L 255.985633 -361.637709 
L 253.33898 -361.512009 
L 250.692327 -361.356222 
L 248.045673 -361.317391 
L 245.39902 -361.098831 
L 242.752367 -361.202197 
L 240.105713 -361.31977 
L 237.45906 -361.076211 
L 234.812407 -360.68693 
L 232.165753 -360.740585 
L 229.5191 -360.61059 
L 226.872447 -360.45553 
L 224.225793 -360.0257 
L 221.57914 -359.925352 
L 218.932487 -359.930263 
L 216.285833 -359.692387 
L 213.63918 -359.586356 
L 210.992527 -359.44178 
L 208.345873 -359.213374 
L 205.69922 -359.212053 
L 203.052567 -359.180006 
L 200.405913 -359.035848 
L 197.75926 -358.797355 
L 195.112607 -358.755132 
L 192.465953 -358.72967 
L 189.8193 -358.518555 
L 187.172647 -358.523136 
L 184.525993 -358.346007 
L 181.87934 -358.303718 
L 179.232687 -358.002253 
L 176.586033 -357.791578 
L 173.93938 -357.513483 
L 171.292727 -357.340605 
L 168.646073 -357.324988 
L 165.99942 -356.948219 
L 163.352767 -356.58788 
L 160.706113 -356.345026 
L 158.05946 -356.216815 
L 155.412807 -356.121642 
L 152.766153 -355.918654 
L 150.1195 -355.476997 
L 147.472847 -355.339337 
L 144.826193 -355.354887 
L 142.17954 -354.994901 
L 139.532887 -354.86103 
L 136.886233 -354.773742 
L 134.23958 -354.588221 
L 131.592927 -354.526263 
L 128.946273 -354.375696 
L 126.29962 -353.767855 
L 123.652967 -353.516874 
L 121.006313 -353.09145 
L 118.35966 -353.030835 
L 115.713007 -352.575214 
L 113.066353 -352.112544 
L 110.4197 -351.842929 
L 107.773047 -351.557984 
L 105.126393 -351.123705 
L 102.47974 -350.537582 
L 99.833087 -349.861375 
L 97.186433 -349.093805 
L 94.53978 -348.260048 
L 91.893127 -347.072208 
L 89.246473 -347.059235 
L 86.59982 -346.841798 
L 83.953167 -345.828775 
L 81.306513 -344.194212 
L 78.65986 -343.143393 
L 76.013207 -341.888948 
L 73.366553 -339.166673 
L 70.7199 -337.491605 
L 68.073247 -335.52168 
L 65.426593 -332.749143 
L 62.77994 -328.556748 
L 60.133287 -323.704224 
L 57.486633 -318.223111 
L 54.83998 -313.454549 
L 52.193327 -311.474228 
z
" style="stroke: #0000ff; stroke-opacity: 0.2"/>
    </defs>
    <g clip-path="url(#pcb9cb21b24)">
     <use xlink:href="#m22a52b2d44" x="0" y="432" style="fill: #0000ff; fill-opacity: 0.2; stroke: #0000ff; stroke-opacity: 0.2"/>
    </g>
   </g>
   <g id="matplotlib.axis_1">
    <g id="xtick_1">
     <g id="line2d_1">
      <defs>
       <path id="m7f5f30fc6b" d="M 0 0 
L 0 3.5 
" style="stroke: #000000; stroke-width: 0.8"/>
      </defs>
      <g>
       <use xlink:href="#m7f5f30fc6b" x="181.87934" y="390.04" style="stroke: #000000; stroke-width: 0.8"/>
      </g>
     </g>
     <g id="text_1">
      <!-- 50 -->
      <g transform="translate(175.51684 404.638438) scale(0.1 -0.1)">
       <defs>
        <path id="DejaVuSans-35" d="M 691 4666 
L 3169 4666 
L 3169 4134 
L 1269 4134 
L 1269 2991 
Q 1406 3038 1543 3061 
Q 1681 3084 1819 3084 
Q 2600 3084 3056 2656 
Q 3513 2228 3513 1497 
Q 3513 744 3044 326 
Q 2575 -91 1722 -91 
Q 1428 -91 1123 -41 
Q 819 9 494 109 
L 494 744 
Q 775 591 1075 516 
Q 1375 441 1709 441 
Q 2250 441 2565 725 
Q 2881 1009 2881 1497 
Q 2881 1984 2565 2268 
Q 2250 2553 1709 2553 
Q 1456 2553 1204 2497 
Q 953 2441 691 2322 
L 691 4666 
z
" transform="scale(0.015625)"/>
        <path id="DejaVuSans-30" d="M 2034 4250 
Q 1547 4250 1301 3770 
Q 1056 3291 1056 2328 
Q 1056 1369 1301 889 
Q 1547 409 2034 409 
Q 2525 409 2770 889 
Q 3016 1369 3016 2328 
Q 3016 3291 2770 3770 
Q 2525 4250 2034 4250 
z
M 2034 4750 
Q 2819 4750 3233 4129 
Q 3647 3509 3647 2328 
Q 3647 1150 3233 529 
Q 2819 -91 2034 -91 
Q 1250 -91 836 529 
Q 422 1150 422 2328 
Q 422 3509 836 4129 
Q 1250 4750 2034 4750 
z
" transform="scale(0.015625)"/>
       </defs>
       <use xlink:href="#DejaVuSans-35"/>
       <use xlink:href="#DejaVuSans-30" transform="translate(63.623047 0)"/>
      </g>
     </g>
    </g>
    <g id="xtick_2">
     <g id="line2d_2">
      <g>
       <use xlink:href="#m7f5f30fc6b" x="314.212007" y="390.04" style="stroke: #000000; stroke-width: 0.8"/>
      </g>
     </g>
     <g id="text_2">
      <!-- 100 -->
      <g transform="translate(304.668257 404.638438) scale(0.1 -0.1)">
       <defs>
        <path id="DejaVuSans-31" d="M 794 531 
L 1825 531 
L 1825 4091 
L 703 3866 
L 703 4441 
L 1819 4666 
L 2450 4666 
L 2450 531 
L 3481 531 
L 3481 0 
L 794 0 
L 794 531 
z
" transform="scale(0.015625)"/>
       </defs>
       <use xlink:href="#DejaVuSans-31"/>
       <use xlink:href="#DejaVuSans-30" transform="translate(63.623047 0)"/>
       <use xlink:href="#DejaVuSans-30" transform="translate(127.246094 0)"/>
      </g>
     </g>
    </g>
    <g id="xtick_3">
     <g id="line2d_3">
      <g>
       <use xlink:href="#m7f5f30fc6b" x="446.544673" y="390.04" style="stroke: #000000; stroke-width: 0.8"/>
      </g>
     </g>
     <g id="text_3">
      <!-- 150 -->
      <g transform="translate(437.000923 404.638438) scale(0.1 -0.1)">
       <use xlink:href="#DejaVuSans-31"/>
       <use xlink:href="#DejaVuSans-35" transform="translate(63.623047 0)"/>
       <use xlink:href="#DejaVuSans-30" transform="translate(127.246094 0)"/>
      </g>
     </g>
    </g>
    <g id="xtick_4">
     <g id="line2d_4">
      <g>
       <use xlink:href="#m7f5f30fc6b" x="578.87734" y="390.04" style="stroke: #000000; stroke-width: 0.8"/>
      </g>
     </g>
     <g id="text_4">
      <!-- 200 -->
      <g transform="translate(569.33359 404.638438) scale(0.1 -0.1)">
       <defs>
        <path id="DejaVuSans-32" d="M 1228 531 
L 3431 531 
L 3431 0 
L 469 0 
L 469 531 
Q 828 903 1448 1529 
Q 2069 2156 2228 2338 
Q 2531 2678 2651 2914 
Q 2772 3150 2772 3378 
Q 2772 3750 2511 3984 
Q 2250 4219 1831 4219 
Q 1534 4219 1204 4116 
Q 875 4013 500 3803 
L 500 4441 
Q 881 4594 1212 4672 
Q 1544 4750 1819 4750 
Q 2544 4750 2975 4387 
Q 3406 4025 3406 3419 
Q 3406 3131 3298 2873 
Q 3191 2616 2906 2266 
Q 2828 2175 2409 1742 
Q 1991 1309 1228 531 
z
" transform="scale(0.015625)"/>
       </defs>
       <use xlink:href="#DejaVuSans-32"/>
       <use xlink:href="#DejaVuSans-30" transform="translate(63.623047 0)"/>
       <use xlink:href="#DejaVuSans-30" transform="translate(127.246094 0)"/>
      </g>
     </g>
    </g>
    <g id="xtick_5">
     <g id="line2d_5">
      <g>
       <use xlink:href="#m7f5f30fc6b" x="711.210007" y="390.04" style="stroke: #000000; stroke-width: 0.8"/>
      </g>
     </g>
     <g id="text_5">
      <!-- 250 -->
      <g transform="translate(701.666257 404.638438) scale(0.1 -0.1)">
       <use xlink:href="#DejaVuSans-32"/>
       <use xlink:href="#DejaVuSans-35" transform="translate(63.623047 0)"/>
       <use xlink:href="#DejaVuSans-30" transform="translate(127.246094 0)"/>
      </g>
     </g>
    </g>
    <g id="xtick_6">
     <g id="line2d_6">
      <g>
       <use xlink:href="#m7f5f30fc6b" x="843.542673" y="390.04" style="stroke: #000000; stroke-width: 0.8"/>
      </g>
     </g>
     <g id="text_6">
      <!-- 300 -->
      <g transform="translate(833.998923 404.638438) scale(0.1 -0.1)">
       <defs>
        <path id="DejaVuSans-33" d="M 2597 2516 
Q 3050 2419 3304 2112 
Q 3559 1806 3559 1356 
Q 3559 666 3084 287 
Q 2609 -91 1734 -91 
Q 1441 -91 1130 -33 
Q 819 25 488 141 
L 488 750 
Q 750 597 1062 519 
Q 1375 441 1716 441 
Q 2309 441 2620 675 
Q 2931 909 2931 1356 
Q 2931 1769 2642 2001 
Q 2353 2234 1838 2234 
L 1294 2234 
L 1294 2753 
L 1863 2753 
Q 2328 2753 2575 2939 
Q 2822 3125 2822 3475 
Q 2822 3834 2567 4026 
Q 2313 4219 1838 4219 
Q 1578 4219 1281 4162 
Q 984 4106 628 3988 
L 628 4550 
Q 988 4650 1302 4700 
Q 1616 4750 1894 4750 
Q 2613 4750 3031 4423 
Q 3450 4097 3450 3541 
Q 3450 3153 3228 2886 
Q 3006 2619 2597 2516 
z
" transform="scale(0.015625)"/>
       </defs>
       <use xlink:href="#DejaVuSans-33"/>
       <use xlink:href="#DejaVuSans-30" transform="translate(63.623047 0)"/>
       <use xlink:href="#DejaVuSans-30" transform="translate(127.246094 0)"/>
      </g>
     </g>
    </g>
    <g id="text_7">
     <!-- Step -->
     <g transform="translate(436.482844 418.316562) scale(0.1 -0.1)">
      <defs>
       <path id="DejaVuSans-53" d="M 3425 4513 
L 3425 3897 
Q 3066 4069 2747 4153 
Q 2428 4238 2131 4238 
Q 1616 4238 1336 4038 
Q 1056 3838 1056 3469 
Q 1056 3159 1242 3001 
Q 1428 2844 1947 2747 
L 2328 2669 
Q 3034 2534 3370 2195 
Q 3706 1856 3706 1288 
Q 3706 609 3251 259 
Q 2797 -91 1919 -91 
Q 1588 -91 1214 -16 
Q 841 59 441 206 
L 441 856 
Q 825 641 1194 531 
Q 1563 422 1919 422 
Q 2459 422 2753 634 
Q 3047 847 3047 1241 
Q 3047 1584 2836 1778 
Q 2625 1972 2144 2069 
L 1759 2144 
Q 1053 2284 737 2584 
Q 422 2884 422 3419 
Q 422 4038 858 4394 
Q 1294 4750 2059 4750 
Q 2388 4750 2728 4690 
Q 3069 4631 3425 4513 
z
" transform="scale(0.015625)"/>
       <path id="DejaVuSans-74" d="M 1172 4494 
L 1172 3500 
L 2356 3500 
L 2356 3053 
L 1172 3053 
L 1172 1153 
Q 1172 725 1289 603 
Q 1406 481 1766 481 
L 2356 481 
L 2356 0 
L 1766 0 
Q 1100 0 847 248 
Q 594 497 594 1153 
L 594 3053 
L 172 3053 
L 172 3500 
L 594 3500 
L 594 4494 
L 1172 4494 
z
" transform="scale(0.015625)"/>
       <path id="DejaVuSans-65" d="M 3597 1894 
L 3597 1613 
L 953 1613 
Q 991 1019 1311 708 
Q 1631 397 2203 397 
Q 2534 397 2845 478 
Q 3156 559 3463 722 
L 3463 178 
Q 3153 47 2828 -22 
Q 2503 -91 2169 -91 
Q 1331 -91 842 396 
Q 353 884 353 1716 
Q 353 2575 817 3079 
Q 1281 3584 2069 3584 
Q 2775 3584 3186 3129 
Q 3597 2675 3597 1894 
z
M 3022 2063 
Q 3016 2534 2758 2815 
Q 2500 3097 2075 3097 
Q 1594 3097 1305 2825 
Q 1016 2553 972 2059 
L 3022 2063 
z
" transform="scale(0.015625)"/>
       <path id="DejaVuSans-70" d="M 1159 525 
L 1159 -1331 
L 581 -1331 
L 581 3500 
L 1159 3500 
L 1159 2969 
Q 1341 3281 1617 3432 
Q 1894 3584 2278 3584 
Q 2916 3584 3314 3078 
Q 3713 2572 3713 1747 
Q 3713 922 3314 415 
Q 2916 -91 2278 -91 
Q 1894 -91 1617 61 
Q 1341 213 1159 525 
z
M 3116 1747 
Q 3116 2381 2855 2742 
Q 2594 3103 2138 3103 
Q 1681 3103 1420 2742 
Q 1159 2381 1159 1747 
Q 1159 1113 1420 752 
Q 1681 391 2138 391 
Q 2594 391 2855 752 
Q 3116 1113 3116 1747 
z
" transform="scale(0.015625)"/>
      </defs>
      <use xlink:href="#DejaVuSans-53"/>
      <use xlink:href="#DejaVuSans-74" transform="translate(63.476562 0)"/>
      <use xlink:href="#DejaVuSans-65" transform="translate(102.685547 0)"/>
      <use xlink:href="#DejaVuSans-70" transform="translate(164.208984 0)"/>
     </g>
    </g>
   </g>
   <g id="matplotlib.axis_2">
    <g id="ytick_1">
     <g id="line2d_7">
      <defs>
       <path id="me32de8ca20" d="M 0 0 
L -3.5 0 
" style="stroke: #000000; stroke-width: 0.8"/>
      </defs>
      <g>
       <use xlink:href="#me32de8ca20" x="50.87" y="378.842384" style="stroke: #000000; stroke-width: 0.8"/>
      </g>
     </g>
     <g id="text_8">
      <!-- 20 -->
      <g transform="translate(31.145 382.641603) scale(0.1 -0.1)">
       <use xlink:href="#DejaVuSans-32"/>
       <use xlink:href="#DejaVuSans-30" transform="translate(63.623047 0)"/>
      </g>
     </g>
    </g>
    <g id="ytick_2">
     <g id="line2d_8">
      <g>
       <use xlink:href="#me32de8ca20" x="50.87" y="321.10362" style="stroke: #000000; stroke-width: 0.8"/>
      </g>
     </g>
     <g id="text_9">
      <!-- 40 -->
      <g transform="translate(31.145 324.902838) scale(0.1 -0.1)">
       <defs>
        <path id="DejaVuSans-34" d="M 2419 4116 
L 825 1625 
L 2419 1625 
L 2419 4116 
z
M 2253 4666 
L 3047 4666 
L 3047 1625 
L 3713 1625 
L 3713 1100 
L 3047 1100 
L 3047 0 
L 2419 0 
L 2419 1100 
L 313 1100 
L 313 1709 
L 2253 4666 
z
" transform="scale(0.015625)"/>
       </defs>
       <use xlink:href="#DejaVuSans-34"/>
       <use xlink:href="#DejaVuSans-30" transform="translate(63.623047 0)"/>
      </g>
     </g>
    </g>
    <g id="ytick_3">
     <g id="line2d_9">
      <g>
       <use xlink:href="#me32de8ca20" x="50.87" y="263.364855" style="stroke: #000000; stroke-width: 0.8"/>
      </g>
     </g>
     <g id="text_10">
      <!-- 60 -->
      <g transform="translate(31.145 267.164074) scale(0.1 -0.1)">
       <defs>
        <path id="DejaVuSans-36" d="M 2113 2584 
Q 1688 2584 1439 2293 
Q 1191 2003 1191 1497 
Q 1191 994 1439 701 
Q 1688 409 2113 409 
Q 2538 409 2786 701 
Q 3034 994 3034 1497 
Q 3034 2003 2786 2293 
Q 2538 2584 2113 2584 
z
M 3366 4563 
L 3366 3988 
Q 3128 4100 2886 4159 
Q 2644 4219 2406 4219 
Q 1781 4219 1451 3797 
Q 1122 3375 1075 2522 
Q 1259 2794 1537 2939 
Q 1816 3084 2150 3084 
Q 2853 3084 3261 2657 
Q 3669 2231 3669 1497 
Q 3669 778 3244 343 
Q 2819 -91 2113 -91 
Q 1303 -91 875 529 
Q 447 1150 447 2328 
Q 447 3434 972 4092 
Q 1497 4750 2381 4750 
Q 2619 4750 2861 4703 
Q 3103 4656 3366 4563 
z
" transform="scale(0.015625)"/>
       </defs>
       <use xlink:href="#DejaVuSans-36"/>
       <use xlink:href="#DejaVuSans-30" transform="translate(63.623047 0)"/>
      </g>
     </g>
    </g>
    <g id="ytick_4">
     <g id="line2d_10">
      <g>
       <use xlink:href="#me32de8ca20" x="50.87" y="205.626091" style="stroke: #000000; stroke-width: 0.8"/>
      </g>
     </g>
     <g id="text_11">
      <!-- 80 -->
      <g transform="translate(31.145 209.425309) scale(0.1 -0.1)">
       <defs>
        <path id="DejaVuSans-38" d="M 2034 2216 
Q 1584 2216 1326 1975 
Q 1069 1734 1069 1313 
Q 1069 891 1326 650 
Q 1584 409 2034 409 
Q 2484 409 2743 651 
Q 3003 894 3003 1313 
Q 3003 1734 2745 1975 
Q 2488 2216 2034 2216 
z
M 1403 2484 
Q 997 2584 770 2862 
Q 544 3141 544 3541 
Q 544 4100 942 4425 
Q 1341 4750 2034 4750 
Q 2731 4750 3128 4425 
Q 3525 4100 3525 3541 
Q 3525 3141 3298 2862 
Q 3072 2584 2669 2484 
Q 3125 2378 3379 2068 
Q 3634 1759 3634 1313 
Q 3634 634 3220 271 
Q 2806 -91 2034 -91 
Q 1263 -91 848 271 
Q 434 634 434 1313 
Q 434 1759 690 2068 
Q 947 2378 1403 2484 
z
M 1172 3481 
Q 1172 3119 1398 2916 
Q 1625 2713 2034 2713 
Q 2441 2713 2670 2916 
Q 2900 3119 2900 3481 
Q 2900 3844 2670 4047 
Q 2441 4250 2034 4250 
Q 1625 4250 1398 4047 
Q 1172 3844 1172 3481 
z
" transform="scale(0.015625)"/>
       </defs>
       <use xlink:href="#DejaVuSans-38"/>
       <use xlink:href="#DejaVuSans-30" transform="translate(63.623047 0)"/>
      </g>
     </g>
    </g>
    <g id="ytick_5">
     <g id="line2d_11">
      <g>
       <use xlink:href="#me32de8ca20" x="50.87" y="147.887326" style="stroke: #000000; stroke-width: 0.8"/>
      </g>
     </g>
     <g id="text_12">
      <!-- 100 -->
      <g transform="translate(24.7825 151.686545) scale(0.1 -0.1)">
       <use xlink:href="#DejaVuSans-31"/>
       <use xlink:href="#DejaVuSans-30" transform="translate(63.623047 0)"/>
       <use xlink:href="#DejaVuSans-30" transform="translate(127.246094 0)"/>
      </g>
     </g>
    </g>
    <g id="ytick_6">
     <g id="line2d_12">
      <g>
       <use xlink:href="#me32de8ca20" x="50.87" y="90.148562" style="stroke: #000000; stroke-width: 0.8"/>
      </g>
     </g>
     <g id="text_13">
      <!-- 120 -->
      <g transform="translate(24.7825 93.94778) scale(0.1 -0.1)">
       <use xlink:href="#DejaVuSans-31"/>
       <use xlink:href="#DejaVuSans-32" transform="translate(63.623047 0)"/>
       <use xlink:href="#DejaVuSans-30" transform="translate(127.246094 0)"/>
      </g>
     </g>
    </g>
    <g id="text_14">
     <!-- Profit -->
     <g transform="translate(18.702813 229.779063) rotate(-90) scale(0.1 -0.1)">
      <defs>
       <path id="DejaVuSans-50" d="M 1259 4147 
L 1259 2394 
L 2053 2394 
Q 2494 2394 2734 2622 
Q 2975 2850 2975 3272 
Q 2975 3691 2734 3919 
Q 2494 4147 2053 4147 
L 1259 4147 
z
M 628 4666 
L 2053 4666 
Q 2838 4666 3239 4311 
Q 3641 3956 3641 3272 
Q 3641 2581 3239 2228 
Q 2838 1875 2053 1875 
L 1259 1875 
L 1259 0 
L 628 0 
L 628 4666 
z
" transform="scale(0.015625)"/>
       <path id="DejaVuSans-72" d="M 2631 2963 
Q 2534 3019 2420 3045 
Q 2306 3072 2169 3072 
Q 1681 3072 1420 2755 
Q 1159 2438 1159 1844 
L 1159 0 
L 581 0 
L 581 3500 
L 1159 3500 
L 1159 2956 
Q 1341 3275 1631 3429 
Q 1922 3584 2338 3584 
Q 2397 3584 2469 3576 
Q 2541 3569 2628 3553 
L 2631 2963 
z
" transform="scale(0.015625)"/>
       <path id="DejaVuSans-6f" d="M 1959 3097 
Q 1497 3097 1228 2736 
Q 959 2375 959 1747 
Q 959 1119 1226 758 
Q 1494 397 1959 397 
Q 2419 397 2687 759 
Q 2956 1122 2956 1747 
Q 2956 2369 2687 2733 
Q 2419 3097 1959 3097 
z
M 1959 3584 
Q 2709 3584 3137 3096 
Q 3566 2609 3566 1747 
Q 3566 888 3137 398 
Q 2709 -91 1959 -91 
Q 1206 -91 779 398 
Q 353 888 353 1747 
Q 353 2609 779 3096 
Q 1206 3584 1959 3584 
z
" transform="scale(0.015625)"/>
       <path id="DejaVuSans-66" d="M 2375 4863 
L 2375 4384 
L 1825 4384 
Q 1516 4384 1395 4259 
Q 1275 4134 1275 3809 
L 1275 3500 
L 2222 3500 
L 2222 3053 
L 1275 3053 
L 1275 0 
L 697 0 
L 697 3053 
L 147 3053 
L 147 3500 
L 697 3500 
L 697 3744 
Q 697 4328 969 4595 
Q 1241 4863 1831 4863 
L 2375 4863 
z
" transform="scale(0.015625)"/>
       <path id="DejaVuSans-69" d="M 603 3500 
L 1178 3500 
L 1178 0 
L 603 0 
L 603 3500 
z
M 603 4863 
L 1178 4863 
L 1178 4134 
L 603 4134 
L 603 4863 
z
" transform="scale(0.015625)"/>
      </defs>
      <use xlink:href="#DejaVuSans-50"/>
      <use xlink:href="#DejaVuSans-72" transform="translate(58.552734 0)"/>
      <use xlink:href="#DejaVuSans-6f" transform="translate(97.416016 0)"/>
      <use xlink:href="#DejaVuSans-66" transform="translate(158.597656 0)"/>
      <use xlink:href="#DejaVuSans-69" transform="translate(193.802734 0)"/>
      <use xlink:href="#DejaVuSans-74" transform="translate(221.585938 0)"/>
     </g>
    </g>
   </g>
   <g id="line2d_13">
    <path d="M 52.193327 246.30119 
L 54.83998 246.415458 
L 60.133287 228.947777 
L 62.77994 221.193734 
L 65.426593 214.587224 
L 68.073247 208.455939 
L 70.7199 203.157859 
L 73.366553 198.489072 
L 76.013207 194.23864 
L 78.65986 190.201724 
L 83.953167 183.449272 
L 89.246473 177.787858 
L 91.893127 175.262845 
L 94.53978 173.013217 
L 99.833087 168.841416 
L 102.47974 167.23227 
L 107.773047 163.714453 
L 110.4197 162.183124 
L 113.066353 160.947224 
L 118.35966 158.234861 
L 121.006313 157.119176 
L 123.652967 156.24465 
L 128.946273 154.091517 
L 139.532887 150.466325 
L 152.766153 146.715917 
L 158.05946 145.369669 
L 160.706113 144.794405 
L 165.99942 143.385295 
L 171.292727 142.246969 
L 176.586033 141.333435 
L 179.232687 140.758656 
L 203.052567 136.934925 
L 205.69922 136.656522 
L 216.285833 135.101118 
L 224.225793 133.976668 
L 261.27894 130.219543 
L 266.572247 129.877375 
L 279.805513 128.683698 
L 285.09882 128.33239 
L 300.97874 127.081843 
L 308.9187 126.444445 
L 324.79862 125.232575 
L 330.091927 124.952035 
L 345.971847 124.042091 
L 380.37834 122.052366 
L 401.551567 121.043638 
L 425.371447 120.074203 
L 430.664753 119.887999 
L 443.89802 119.365464 
L 451.83798 119.116597 
L 470.364553 118.479286 
L 475.65786 118.357771 
L 488.891127 117.882943 
L 502.124393 117.474148 
L 507.4177 117.248981 
L 512.711007 117.098568 
L 520.650967 116.851088 
L 629.163753 113.789377 
L 732.383233 111.331101 
L 832.95606 109.496567 
L 843.542673 109.379281 
L 843.542673 109.379281 
" clip-path="url(#pcb9cb21b24)" style="fill: none; stroke: #0000ff; stroke-width: 1.5; stroke-linecap: square"/>
   </g>
   <g id="patch_3">
    <path d="M 50.87 390.04 
L 50.87 43.44 
" style="fill: none; stroke: #000000; stroke-width: 0.8; stroke-linejoin: miter; stroke-linecap: square"/>
   </g>
   <g id="patch_4">
    <path d="M 844.866 390.04 
L 844.866 43.44 
" style="fill: none; stroke: #000000; stroke-width: 0.8; stroke-linejoin: miter; stroke-linecap: square"/>
   </g>
   <g id="patch_5">
    <path d="M 50.87 390.04 
L 844.866 390.04 
" style="fill: none; stroke: #000000; stroke-width: 0.8; stroke-linejoin: miter; stroke-linecap: square"/>
   </g>
   <g id="patch_6">
    <path d="M 50.87 43.44 
L 844.866 43.44 
" style="fill: none; stroke: #000000; stroke-width: 0.8; stroke-linejoin: miter; stroke-linecap: square"/>
   </g>
   <g id="text_15">
    <!-- Mean profit per step with confidence interval per simulation step -->
    <g transform="translate(220.284875 21.763062) scale(0.14 -0.14)">
     <defs>
      <path id="DejaVuSans-4d" d="M 628 4666 
L 1569 4666 
L 2759 1491 
L 3956 4666 
L 4897 4666 
L 4897 0 
L 4281 0 
L 4281 4097 
L 3078 897 
L 2444 897 
L 1241 4097 
L 1241 0 
L 628 0 
L 628 4666 
z
" transform="scale(0.015625)"/>
      <path id="DejaVuSans-61" d="M 2194 1759 
Q 1497 1759 1228 1600 
Q 959 1441 959 1056 
Q 959 750 1161 570 
Q 1363 391 1709 391 
Q 2188 391 2477 730 
Q 2766 1069 2766 1631 
L 2766 1759 
L 2194 1759 
z
M 3341 1997 
L 3341 0 
L 2766 0 
L 2766 531 
Q 2569 213 2275 61 
Q 1981 -91 1556 -91 
Q 1019 -91 701 211 
Q 384 513 384 1019 
Q 384 1609 779 1909 
Q 1175 2209 1959 2209 
L 2766 2209 
L 2766 2266 
Q 2766 2663 2505 2880 
Q 2244 3097 1772 3097 
Q 1472 3097 1187 3025 
Q 903 2953 641 2809 
L 641 3341 
Q 956 3463 1253 3523 
Q 1550 3584 1831 3584 
Q 2591 3584 2966 3190 
Q 3341 2797 3341 1997 
z
" transform="scale(0.015625)"/>
      <path id="DejaVuSans-6e" d="M 3513 2113 
L 3513 0 
L 2938 0 
L 2938 2094 
Q 2938 2591 2744 2837 
Q 2550 3084 2163 3084 
Q 1697 3084 1428 2787 
Q 1159 2491 1159 1978 
L 1159 0 
L 581 0 
L 581 3500 
L 1159 3500 
L 1159 2956 
Q 1366 3272 1645 3428 
Q 1925 3584 2291 3584 
Q 2894 3584 3203 3211 
Q 3513 2838 3513 2113 
z
" transform="scale(0.015625)"/>
      <path id="DejaVuSans-20" transform="scale(0.015625)"/>
      <path id="DejaVuSans-73" d="M 2834 3397 
L 2834 2853 
Q 2591 2978 2328 3040 
Q 2066 3103 1784 3103 
Q 1356 3103 1142 2972 
Q 928 2841 928 2578 
Q 928 2378 1081 2264 
Q 1234 2150 1697 2047 
L 1894 2003 
Q 2506 1872 2764 1633 
Q 3022 1394 3022 966 
Q 3022 478 2636 193 
Q 2250 -91 1575 -91 
Q 1294 -91 989 -36 
Q 684 19 347 128 
L 347 722 
Q 666 556 975 473 
Q 1284 391 1588 391 
Q 1994 391 2212 530 
Q 2431 669 2431 922 
Q 2431 1156 2273 1281 
Q 2116 1406 1581 1522 
L 1381 1569 
Q 847 1681 609 1914 
Q 372 2147 372 2553 
Q 372 3047 722 3315 
Q 1072 3584 1716 3584 
Q 2034 3584 2315 3537 
Q 2597 3491 2834 3397 
z
" transform="scale(0.015625)"/>
      <path id="DejaVuSans-77" d="M 269 3500 
L 844 3500 
L 1563 769 
L 2278 3500 
L 2956 3500 
L 3675 769 
L 4391 3500 
L 4966 3500 
L 4050 0 
L 3372 0 
L 2619 2869 
L 1863 0 
L 1184 0 
L 269 3500 
z
" transform="scale(0.015625)"/>
      <path id="DejaVuSans-68" d="M 3513 2113 
L 3513 0 
L 2938 0 
L 2938 2094 
Q 2938 2591 2744 2837 
Q 2550 3084 2163 3084 
Q 1697 3084 1428 2787 
Q 1159 2491 1159 1978 
L 1159 0 
L 581 0 
L 581 4863 
L 1159 4863 
L 1159 2956 
Q 1366 3272 1645 3428 
Q 1925 3584 2291 3584 
Q 2894 3584 3203 3211 
Q 3513 2838 3513 2113 
z
" transform="scale(0.015625)"/>
      <path id="DejaVuSans-63" d="M 3122 3366 
L 3122 2828 
Q 2878 2963 2633 3030 
Q 2388 3097 2138 3097 
Q 1578 3097 1268 2742 
Q 959 2388 959 1747 
Q 959 1106 1268 751 
Q 1578 397 2138 397 
Q 2388 397 2633 464 
Q 2878 531 3122 666 
L 3122 134 
Q 2881 22 2623 -34 
Q 2366 -91 2075 -91 
Q 1284 -91 818 406 
Q 353 903 353 1747 
Q 353 2603 823 3093 
Q 1294 3584 2113 3584 
Q 2378 3584 2631 3529 
Q 2884 3475 3122 3366 
z
" transform="scale(0.015625)"/>
      <path id="DejaVuSans-64" d="M 2906 2969 
L 2906 4863 
L 3481 4863 
L 3481 0 
L 2906 0 
L 2906 525 
Q 2725 213 2448 61 
Q 2172 -91 1784 -91 
Q 1150 -91 751 415 
Q 353 922 353 1747 
Q 353 2572 751 3078 
Q 1150 3584 1784 3584 
Q 2172 3584 2448 3432 
Q 2725 3281 2906 2969 
z
M 947 1747 
Q 947 1113 1208 752 
Q 1469 391 1925 391 
Q 2381 391 2643 752 
Q 2906 1113 2906 1747 
Q 2906 2381 2643 2742 
Q 2381 3103 1925 3103 
Q 1469 3103 1208 2742 
Q 947 2381 947 1747 
z
" transform="scale(0.015625)"/>
      <path id="DejaVuSans-76" d="M 191 3500 
L 800 3500 
L 1894 563 
L 2988 3500 
L 3597 3500 
L 2284 0 
L 1503 0 
L 191 3500 
z
" transform="scale(0.015625)"/>
      <path id="DejaVuSans-6c" d="M 603 4863 
L 1178 4863 
L 1178 0 
L 603 0 
L 603 4863 
z
" transform="scale(0.015625)"/>
      <path id="DejaVuSans-6d" d="M 3328 2828 
Q 3544 3216 3844 3400 
Q 4144 3584 4550 3584 
Q 5097 3584 5394 3201 
Q 5691 2819 5691 2113 
L 5691 0 
L 5113 0 
L 5113 2094 
Q 5113 2597 4934 2840 
Q 4756 3084 4391 3084 
Q 3944 3084 3684 2787 
Q 3425 2491 3425 1978 
L 3425 0 
L 2847 0 
L 2847 2094 
Q 2847 2600 2669 2842 
Q 2491 3084 2119 3084 
Q 1678 3084 1418 2786 
Q 1159 2488 1159 1978 
L 1159 0 
L 581 0 
L 581 3500 
L 1159 3500 
L 1159 2956 
Q 1356 3278 1631 3431 
Q 1906 3584 2284 3584 
Q 2666 3584 2933 3390 
Q 3200 3197 3328 2828 
z
" transform="scale(0.015625)"/>
      <path id="DejaVuSans-75" d="M 544 1381 
L 544 3500 
L 1119 3500 
L 1119 1403 
Q 1119 906 1312 657 
Q 1506 409 1894 409 
Q 2359 409 2629 706 
Q 2900 1003 2900 1516 
L 2900 3500 
L 3475 3500 
L 3475 0 
L 2900 0 
L 2900 538 
Q 2691 219 2414 64 
Q 2138 -91 1772 -91 
Q 1169 -91 856 284 
Q 544 659 544 1381 
z
M 1991 3584 
L 1991 3584 
z
" transform="scale(0.015625)"/>
     </defs>
     <use xlink:href="#DejaVuSans-4d"/>
     <use xlink:href="#DejaVuSans-65" transform="translate(86.279297 0)"/>
     <use xlink:href="#DejaVuSans-61" transform="translate(147.802734 0)"/>
     <use xlink:href="#DejaVuSans-6e" transform="translate(209.082031 0)"/>
     <use xlink:href="#DejaVuSans-20" transform="translate(272.460938 0)"/>
     <use xlink:href="#DejaVuSans-70" transform="translate(304.248047 0)"/>
     <use xlink:href="#DejaVuSans-72" transform="translate(367.724609 0)"/>
     <use xlink:href="#DejaVuSans-6f" transform="translate(406.587891 0)"/>
     <use xlink:href="#DejaVuSans-66" transform="translate(467.769531 0)"/>
     <use xlink:href="#DejaVuSans-69" transform="translate(502.974609 0)"/>
     <use xlink:href="#DejaVuSans-74" transform="translate(530.757812 0)"/>
     <use xlink:href="#DejaVuSans-20" transform="translate(569.966797 0)"/>
     <use xlink:href="#DejaVuSans-70" transform="translate(601.753906 0)"/>
     <use xlink:href="#DejaVuSans-65" transform="translate(665.230469 0)"/>
     <use xlink:href="#DejaVuSans-72" transform="translate(726.753906 0)"/>
     <use xlink:href="#DejaVuSans-20" transform="translate(767.867188 0)"/>
     <use xlink:href="#DejaVuSans-73" transform="translate(799.654297 0)"/>
     <use xlink:href="#DejaVuSans-74" transform="translate(851.753906 0)"/>
     <use xlink:href="#DejaVuSans-65" transform="translate(890.962891 0)"/>
     <use xlink:href="#DejaVuSans-70" transform="translate(952.486328 0)"/>
     <use xlink:href="#DejaVuSans-20" transform="translate(1015.962891 0)"/>
     <use xlink:href="#DejaVuSans-77" transform="translate(1047.75 0)"/>
     <use xlink:href="#DejaVuSans-69" transform="translate(1129.537109 0)"/>
     <use xlink:href="#DejaVuSans-74" transform="translate(1157.320312 0)"/>
     <use xlink:href="#DejaVuSans-68" transform="translate(1196.529297 0)"/>
     <use xlink:href="#DejaVuSans-20" transform="translate(1259.908203 0)"/>
     <use xlink:href="#DejaVuSans-63" transform="translate(1291.695312 0)"/>
     <use xlink:href="#DejaVuSans-6f" transform="translate(1346.675781 0)"/>
     <use xlink:href="#DejaVuSans-6e" transform="translate(1407.857422 0)"/>
     <use xlink:href="#DejaVuSans-66" transform="translate(1471.236328 0)"/>
     <use xlink:href="#DejaVuSans-69" transform="translate(1506.441406 0)"/>
     <use xlink:href="#DejaVuSans-64" transform="translate(1534.224609 0)"/>
     <use xlink:href="#DejaVuSans-65" transform="translate(1597.701172 0)"/>
     <use xlink:href="#DejaVuSans-6e" transform="translate(1659.224609 0)"/>
     <use xlink:href="#DejaVuSans-63" transform="translate(1722.603516 0)"/>
     <use xlink:href="#DejaVuSans-65" transform="translate(1777.583984 0)"/>
     <use xlink:href="#DejaVuSans-20" transform="translate(1839.107422 0)"/>
     <use xlink:href="#DejaVuSans-69" transform="translate(1870.894531 0)"/>
     <use xlink:href="#DejaVuSans-6e" transform="translate(1898.677734 0)"/>
     <use xlink:href="#DejaVuSans-74" transform="translate(1962.056641 0)"/>
     <use xlink:href="#DejaVuSans-65" transform="translate(2001.265625 0)"/>
     <use xlink:href="#DejaVuSans-72" transform="translate(2062.789062 0)"/>
     <use xlink:href="#DejaVuSans-76" transform="translate(2103.902344 0)"/>
     <use xlink:href="#DejaVuSans-61" transform="translate(2163.082031 0)"/>
     <use xlink:href="#DejaVuSans-6c" transform="translate(2224.361328 0)"/>
     <use xlink:href="#DejaVuSans-20" transform="translate(2252.144531 0)"/>
     <use xlink:href="#DejaVuSans-70" transform="translate(2283.931641 0)"/>
     <use xlink:href="#DejaVuSans-65" transform="translate(2347.408203 0)"/>
     <use xlink:href="#DejaVuSans-72" transform="translate(2408.931641 0)"/>
     <use xlink:href="#DejaVuSans-20" transform="translate(2450.044922 0)"/>
     <use xlink:href="#DejaVuSans-73" transform="translate(2481.832031 0)"/>
     <use xlink:href="#DejaVuSans-69" transform="translate(2533.931641 0)"/>
     <use xlink:href="#DejaVuSans-6d" transform="translate(2561.714844 0)"/>
     <use xlink:href="#DejaVuSans-75" transform="translate(2659.126953 0)"/>
     <use xlink:href="#DejaVuSans-6c" transform="translate(2722.505859 0)"/>
     <use xlink:href="#DejaVuSans-61" transform="translate(2750.289062 0)"/>
     <use xlink:href="#DejaVuSans-74" transform="translate(2811.568359 0)"/>
     <use xlink:href="#DejaVuSans-69" transform="translate(2850.777344 0)"/>
     <use xlink:href="#DejaVuSans-6f" transform="translate(2878.560547 0)"/>
     <use xlink:href="#DejaVuSans-6e" transform="translate(2939.742188 0)"/>
     <use xlink:href="#DejaVuSans-20" transform="translate(3003.121094 0)"/>
     <use xlink:href="#DejaVuSans-73" transform="translate(3034.908203 0)"/>
     <use xlink:href="#DejaVuSans-74" transform="translate(3087.007812 0)"/>
     <use xlink:href="#DejaVuSans-65" transform="translate(3126.216797 0)"/>
     <use xlink:href="#DejaVuSans-70" transform="translate(3187.740234 0)"/>
    </g>
    <!-- Base Product: Green Crack, Recipe size: 7, T0: 10.0 -->
    <g transform="translate(268.031437 37.44) scale(0.14 -0.14)">
     <defs>
      <path id="DejaVuSans-42" d="M 1259 2228 
L 1259 519 
L 2272 519 
Q 2781 519 3026 730 
Q 3272 941 3272 1375 
Q 3272 1813 3026 2020 
Q 2781 2228 2272 2228 
L 1259 2228 
z
M 1259 4147 
L 1259 2741 
L 2194 2741 
Q 2656 2741 2882 2914 
Q 3109 3088 3109 3444 
Q 3109 3797 2882 3972 
Q 2656 4147 2194 4147 
L 1259 4147 
z
M 628 4666 
L 2241 4666 
Q 2963 4666 3353 4366 
Q 3744 4066 3744 3513 
Q 3744 3084 3544 2831 
Q 3344 2578 2956 2516 
Q 3422 2416 3680 2098 
Q 3938 1781 3938 1306 
Q 3938 681 3513 340 
Q 3088 0 2303 0 
L 628 0 
L 628 4666 
z
" transform="scale(0.015625)"/>
      <path id="DejaVuSans-3a" d="M 750 794 
L 1409 794 
L 1409 0 
L 750 0 
L 750 794 
z
M 750 3309 
L 1409 3309 
L 1409 2516 
L 750 2516 
L 750 3309 
z
" transform="scale(0.015625)"/>
      <path id="DejaVuSans-47" d="M 3809 666 
L 3809 1919 
L 2778 1919 
L 2778 2438 
L 4434 2438 
L 4434 434 
Q 4069 175 3628 42 
Q 3188 -91 2688 -91 
Q 1594 -91 976 548 
Q 359 1188 359 2328 
Q 359 3472 976 4111 
Q 1594 4750 2688 4750 
Q 3144 4750 3555 4637 
Q 3966 4525 4313 4306 
L 4313 3634 
Q 3963 3931 3569 4081 
Q 3175 4231 2741 4231 
Q 1884 4231 1454 3753 
Q 1025 3275 1025 2328 
Q 1025 1384 1454 906 
Q 1884 428 2741 428 
Q 3075 428 3337 486 
Q 3600 544 3809 666 
z
" transform="scale(0.015625)"/>
      <path id="DejaVuSans-43" d="M 4122 4306 
L 4122 3641 
Q 3803 3938 3442 4084 
Q 3081 4231 2675 4231 
Q 1875 4231 1450 3742 
Q 1025 3253 1025 2328 
Q 1025 1406 1450 917 
Q 1875 428 2675 428 
Q 3081 428 3442 575 
Q 3803 722 4122 1019 
L 4122 359 
Q 3791 134 3420 21 
Q 3050 -91 2638 -91 
Q 1578 -91 968 557 
Q 359 1206 359 2328 
Q 359 3453 968 4101 
Q 1578 4750 2638 4750 
Q 3056 4750 3426 4639 
Q 3797 4528 4122 4306 
z
" transform="scale(0.015625)"/>
      <path id="DejaVuSans-6b" d="M 581 4863 
L 1159 4863 
L 1159 1991 
L 2875 3500 
L 3609 3500 
L 1753 1863 
L 3688 0 
L 2938 0 
L 1159 1709 
L 1159 0 
L 581 0 
L 581 4863 
z
" transform="scale(0.015625)"/>
      <path id="DejaVuSans-2c" d="M 750 794 
L 1409 794 
L 1409 256 
L 897 -744 
L 494 -744 
L 750 256 
L 750 794 
z
" transform="scale(0.015625)"/>
      <path id="DejaVuSans-52" d="M 2841 2188 
Q 3044 2119 3236 1894 
Q 3428 1669 3622 1275 
L 4263 0 
L 3584 0 
L 2988 1197 
Q 2756 1666 2539 1819 
Q 2322 1972 1947 1972 
L 1259 1972 
L 1259 0 
L 628 0 
L 628 4666 
L 2053 4666 
Q 2853 4666 3247 4331 
Q 3641 3997 3641 3322 
Q 3641 2881 3436 2590 
Q 3231 2300 2841 2188 
z
M 1259 4147 
L 1259 2491 
L 2053 2491 
Q 2509 2491 2742 2702 
Q 2975 2913 2975 3322 
Q 2975 3731 2742 3939 
Q 2509 4147 2053 4147 
L 1259 4147 
z
" transform="scale(0.015625)"/>
      <path id="DejaVuSans-7a" d="M 353 3500 
L 3084 3500 
L 3084 2975 
L 922 459 
L 3084 459 
L 3084 0 
L 275 0 
L 275 525 
L 2438 3041 
L 353 3041 
L 353 3500 
z
" transform="scale(0.015625)"/>
      <path id="DejaVuSans-37" d="M 525 4666 
L 3525 4666 
L 3525 4397 
L 1831 0 
L 1172 0 
L 2766 4134 
L 525 4134 
L 525 4666 
z
" transform="scale(0.015625)"/>
      <path id="DejaVuSans-54" d="M -19 4666 
L 3928 4666 
L 3928 4134 
L 2272 4134 
L 2272 0 
L 1638 0 
L 1638 4134 
L -19 4134 
L -19 4666 
z
" transform="scale(0.015625)"/>
      <path id="DejaVuSans-2e" d="M 684 794 
L 1344 794 
L 1344 0 
L 684 0 
L 684 794 
z
" transform="scale(0.015625)"/>
     </defs>
     <use xlink:href="#DejaVuSans-42"/>
     <use xlink:href="#DejaVuSans-61" transform="translate(68.603516 0)"/>
     <use xlink:href="#DejaVuSans-73" transform="translate(129.882812 0)"/>
     <use xlink:href="#DejaVuSans-65" transform="translate(181.982422 0)"/>
     <use xlink:href="#DejaVuSans-20" transform="translate(243.505859 0)"/>
     <use xlink:href="#DejaVuSans-50" transform="translate(275.292969 0)"/>
     <use xlink:href="#DejaVuSans-72" transform="translate(333.845703 0)"/>
     <use xlink:href="#DejaVuSans-6f" transform="translate(372.708984 0)"/>
     <use xlink:href="#DejaVuSans-64" transform="translate(433.890625 0)"/>
     <use xlink:href="#DejaVuSans-75" transform="translate(497.367188 0)"/>
     <use xlink:href="#DejaVuSans-63" transform="translate(560.746094 0)"/>
     <use xlink:href="#DejaVuSans-74" transform="translate(615.726562 0)"/>
     <use xlink:href="#DejaVuSans-3a" transform="translate(654.935547 0)"/>
     <use xlink:href="#DejaVuSans-20" transform="translate(688.626953 0)"/>
     <use xlink:href="#DejaVuSans-47" transform="translate(720.414062 0)"/>
     <use xlink:href="#DejaVuSans-72" transform="translate(797.904297 0)"/>
     <use xlink:href="#DejaVuSans-65" transform="translate(836.767578 0)"/>
     <use xlink:href="#DejaVuSans-65" transform="translate(898.291016 0)"/>
     <use xlink:href="#DejaVuSans-6e" transform="translate(959.814453 0)"/>
     <use xlink:href="#DejaVuSans-20" transform="translate(1023.193359 0)"/>
     <use xlink:href="#DejaVuSans-43" transform="translate(1054.980469 0)"/>
     <use xlink:href="#DejaVuSans-72" transform="translate(1124.804688 0)"/>
     <use xlink:href="#DejaVuSans-61" transform="translate(1165.917969 0)"/>
     <use xlink:href="#DejaVuSans-63" transform="translate(1227.197266 0)"/>
     <use xlink:href="#DejaVuSans-6b" transform="translate(1282.177734 0)"/>
     <use xlink:href="#DejaVuSans-2c" transform="translate(1340.087891 0)"/>
     <use xlink:href="#DejaVuSans-20" transform="translate(1371.875 0)"/>
     <use xlink:href="#DejaVuSans-52" transform="translate(1403.662109 0)"/>
     <use xlink:href="#DejaVuSans-65" transform="translate(1468.644531 0)"/>
     <use xlink:href="#DejaVuSans-63" transform="translate(1530.167969 0)"/>
     <use xlink:href="#DejaVuSans-69" transform="translate(1585.148438 0)"/>
     <use xlink:href="#DejaVuSans-70" transform="translate(1612.931641 0)"/>
     <use xlink:href="#DejaVuSans-65" transform="translate(1676.408203 0)"/>
     <use xlink:href="#DejaVuSans-20" transform="translate(1737.931641 0)"/>
     <use xlink:href="#DejaVuSans-73" transform="translate(1769.71875 0)"/>
     <use xlink:href="#DejaVuSans-69" transform="translate(1821.818359 0)"/>
     <use xlink:href="#DejaVuSans-7a" transform="translate(1849.601562 0)"/>
     <use xlink:href="#DejaVuSans-65" transform="translate(1902.091797 0)"/>
     <use xlink:href="#DejaVuSans-3a" transform="translate(1963.615234 0)"/>
     <use xlink:href="#DejaVuSans-20" transform="translate(1997.306641 0)"/>
     <use xlink:href="#DejaVuSans-37" transform="translate(2029.09375 0)"/>
     <use xlink:href="#DejaVuSans-2c" transform="translate(2092.716797 0)"/>
     <use xlink:href="#DejaVuSans-20" transform="translate(2124.503906 0)"/>
     <use xlink:href="#DejaVuSans-54" transform="translate(2156.291016 0)"/>
     <use xlink:href="#DejaVuSans-30" transform="translate(2217.375 0)"/>
     <use xlink:href="#DejaVuSans-3a" transform="translate(2280.998047 0)"/>
     <use xlink:href="#DejaVuSans-20" transform="translate(2314.689453 0)"/>
     <use xlink:href="#DejaVuSans-31" transform="translate(2346.476562 0)"/>
     <use xlink:href="#DejaVuSans-30" transform="translate(2410.099609 0)"/>
     <use xlink:href="#DejaVuSans-2e" transform="translate(2473.722656 0)"/>
     <use xlink:href="#DejaVuSans-30" transform="translate(2505.509766 0)"/>
    </g>
   </g>
  </g>
 </g>
 <defs>
  <clipPath id="pcb9cb21b24">
   <rect x="50.87" y="43.44" width="793.996" height="346.6"/>
  </clipPath>
 </defs>
</svg>
