<?xml version="1.0" encoding="utf-8" standalone="no"?>
<!DOCTYPE svg PUBLIC "-//W3C//DTD SVG 1.1//EN"
  "http://www.w3.org/Graphics/SVG/1.1/DTD/svg11.dtd">
<svg xmlns:xlink="http://www.w3.org/1999/xlink" width="864pt" height="432pt" viewBox="0 0 864 432" xmlns="http://www.w3.org/2000/svg" version="1.1">
 <metadata>
  <rdf:RDF xmlns:dc="http://purl.org/dc/elements/1.1/" xmlns:cc="http://creativecommons.org/ns#" xmlns:rdf="http://www.w3.org/1999/02/22-rdf-syntax-ns#">
   <cc:Work>
    <dc:type rdf:resource="http://purl.org/dc/dcmitype/StillImage"/>
    <dc:date>2025-05-24T02:10:53.862860</dc:date>
    <dc:format>image/svg+xml</dc:format>
    <dc:creator>
     <cc:Agent>
      <dc:title>Matplotlib v3.10.3, https://matplotlib.org/</dc:title>
     </cc:Agent>
    </dc:creator>
   </cc:Work>
  </rdf:RDF>
 </metadata>
 <defs>
  <style type="text/css">*{stroke-linejoin: round; stroke-linecap: butt}</style>
 </defs>
 <g id="figure_1">
  <g id="patch_1">
   <path d="M 0 432 
L 864 432 
L 864 0 
L 0 0 
z
" style="fill: #ffffff"/>
  </g>
  <g id="axes_1">
   <g id="patch_2">
    <path d="M 50.87 390.04 
L 844.866 390.04 
L 844.866 43.44 
L 50.87 43.44 
z
" style="fill: #ffffff"/>
   </g>
   <g id="FillBetweenPolyCollection_1">
    <defs>
     <path id="mbe336f7859" d="M 52.193327 -304.192138 
L 52.193327 -59.048452 
L 54.83998 -57.714545 
L 57.486633 -70.423578 
L 60.133287 -82.121873 
L 62.77994 -92.759028 
L 65.426593 -102.305722 
L 68.073247 -110.388926 
L 70.7199 -118.410624 
L 73.366553 -124.221335 
L 76.013207 -130.074551 
L 78.65986 -135.506061 
L 81.306513 -140.698628 
L 83.953167 -144.991374 
L 86.59982 -148.938627 
L 89.246473 -152.986925 
L 91.893127 -155.823431 
L 94.53978 -159.603099 
L 97.186433 -162.760497 
L 99.833087 -166.06558 
L 102.47974 -168.48226 
L 105.126393 -171.684252 
L 107.773047 -173.602342 
L 110.4197 -176.020296 
L 113.066353 -177.912888 
L 115.713007 -180.128983 
L 118.35966 -182.536177 
L 121.006313 -184.454686 
L 123.652967 -185.927817 
L 126.29962 -187.943588 
L 128.946273 -189.623039 
L 131.592927 -191.035176 
L 134.23958 -192.45897 
L 136.886233 -193.747071 
L 139.532887 -195.141386 
L 142.17954 -196.352165 
L 144.826193 -197.518403 
L 147.472847 -198.23358 
L 150.1195 -198.902774 
L 152.766153 -200.108894 
L 155.412807 -201.329283 
L 158.05946 -202.340041 
L 160.706113 -203.393043 
L 163.352767 -203.992792 
L 165.99942 -204.758466 
L 168.646073 -205.824045 
L 171.292727 -206.884651 
L 173.93938 -207.798847 
L 176.586033 -208.406075 
L 179.232687 -209.055003 
L 181.87934 -209.603712 
L 184.525993 -210.716842 
L 187.172647 -211.325511 
L 189.8193 -212.277145 
L 192.465953 -212.555219 
L 195.112607 -213.364055 
L 197.75926 -214.129018 
L 200.405913 -214.495925 
L 203.052567 -215.060408 
L 205.69922 -215.820294 
L 208.345873 -216.534845 
L 210.992527 -217.153981 
L 213.63918 -217.376753 
L 216.285833 -218.075175 
L 218.932487 -218.695983 
L 221.57914 -219.129577 
L 224.225793 -219.806146 
L 226.872447 -220.085034 
L 229.5191 -220.468382 
L 232.165753 -220.925689 
L 234.812407 -221.474482 
L 237.45906 -221.935236 
L 240.105713 -222.177103 
L 242.752367 -222.640907 
L 245.39902 -223.061005 
L 248.045673 -223.290671 
L 250.692327 -223.807437 
L 253.33898 -224.26232 
L 255.985633 -224.624734 
L 258.632287 -224.446985 
L 261.27894 -224.889771 
L 263.925593 -225.125747 
L 266.572247 -225.261128 
L 269.2189 -225.929757 
L 271.865553 -226.138803 
L 274.512207 -226.497019 
L 277.15886 -226.832671 
L 279.805513 -227.203735 
L 282.452167 -227.866222 
L 285.09882 -228.44675 
L 287.745473 -228.871131 
L 290.392127 -229.127581 
L 293.03878 -229.390675 
L 295.685433 -229.842153 
L 298.332087 -230.187937 
L 300.97874 -230.567609 
L 303.625393 -230.78639 
L 306.272047 -231.106896 
L 308.9187 -231.067514 
L 311.565353 -231.26484 
L 314.212007 -231.504138 
L 316.85866 -231.641378 
L 319.505313 -232.005359 
L 322.151967 -232.197127 
L 324.79862 -232.401953 
L 327.445273 -232.562258 
L 330.091927 -232.663104 
L 332.73858 -232.874636 
L 335.385233 -233.264858 
L 338.031887 -233.672985 
L 340.67854 -234.239808 
L 343.325193 -234.498159 
L 345.971847 -234.663708 
L 348.6185 -235.213336 
L 351.265153 -235.510254 
L 353.911807 -235.693394 
L 356.55846 -235.992903 
L 359.205113 -236.25982 
L 361.851767 -236.256143 
L 364.49842 -236.554482 
L 367.145073 -236.859799 
L 369.791727 -237.17577 
L 372.43838 -237.308665 
L 375.085033 -237.59568 
L 377.731687 -237.922244 
L 380.37834 -238.051148 
L 383.024993 -238.410993 
L 385.671647 -238.510084 
L 388.3183 -238.655388 
L 390.964953 -239.077638 
L 393.611607 -239.242497 
L 396.25826 -239.464684 
L 398.904913 -239.830797 
L 401.551567 -240.107471 
L 404.19822 -240.240595 
L 406.844873 -240.4927 
L 409.491527 -240.68476 
L 412.13818 -240.82457 
L 414.784833 -241.069676 
L 417.431487 -241.343278 
L 420.07814 -241.185418 
L 422.724793 -241.40468 
L 425.371447 -241.388719 
L 428.0181 -241.574658 
L 430.664753 -241.603677 
L 433.311407 -241.68664 
L 435.95806 -242.068171 
L 438.604713 -242.310247 
L 441.251367 -242.458205 
L 443.89802 -242.668462 
L 446.544673 -242.938158 
L 449.191327 -242.982804 
L 451.83798 -243.061839 
L 454.484633 -243.249471 
L 457.131287 -243.443809 
L 459.77794 -243.569412 
L 462.424593 -243.60286 
L 465.071247 -243.75017 
L 467.7179 -243.782344 
L 470.364553 -243.943714 
L 473.011207 -244.123888 
L 475.65786 -244.410422 
L 478.304513 -244.556604 
L 480.951167 -244.620158 
L 483.59782 -244.675334 
L 486.244473 -244.993039 
L 488.891127 -245.076566 
L 491.53778 -245.172272 
L 494.184433 -245.385455 
L 496.831087 -245.452122 
L 499.47774 -245.594188 
L 502.124393 -245.666767 
L 504.771047 -245.714944 
L 507.4177 -245.799181 
L 510.064353 -245.940996 
L 512.711007 -246.128544 
L 515.35766 -246.346511 
L 518.004313 -246.562284 
L 520.650967 -246.432336 
L 523.29762 -246.646897 
L 525.944273 -246.751734 
L 528.590927 -246.947388 
L 531.23758 -247.071132 
L 533.884233 -247.262211 
L 536.530887 -247.384868 
L 539.17754 -247.538299 
L 541.824193 -247.56337 
L 544.470847 -247.632815 
L 547.1175 -247.832439 
L 549.764153 -248.036847 
L 552.410807 -248.235697 
L 555.05746 -248.206156 
L 557.704113 -248.349622 
L 560.350767 -248.494738 
L 562.99742 -248.515839 
L 565.644073 -248.512329 
L 568.290727 -248.62429 
L 570.93738 -248.628594 
L 573.584033 -248.775047 
L 576.230687 -248.726849 
L 578.87734 -248.800243 
L 581.523993 -248.825606 
L 584.170647 -248.871819 
L 586.8173 -248.898436 
L 589.463953 -249.052703 
L 592.110607 -249.314439 
L 594.75726 -249.591154 
L 597.403913 -249.750957 
L 600.050567 -249.849108 
L 602.69722 -250.01729 
L 605.343873 -250.112975 
L 607.990527 -250.412985 
L 610.63718 -250.583799 
L 613.283833 -250.879317 
L 615.930487 -250.946485 
L 618.57714 -250.961841 
L 621.223793 -251.097911 
L 623.870447 -251.124778 
L 626.5171 -251.125405 
L 629.163753 -251.09344 
L 631.810407 -251.182064 
L 634.45706 -251.142787 
L 637.103713 -251.185637 
L 639.750367 -251.398819 
L 642.39702 -251.421466 
L 645.043673 -251.50234 
L 647.690327 -251.584049 
L 650.33698 -251.872672 
L 652.983633 -252.024182 
L 655.630287 -252.236362 
L 658.27694 -252.286085 
L 660.923593 -252.380308 
L 663.570247 -252.538252 
L 666.2169 -252.583525 
L 668.863553 -252.731984 
L 671.510207 -252.767563 
L 674.15686 -252.964743 
L 676.803513 -253.162591 
L 679.450167 -253.143265 
L 682.09682 -253.223324 
L 684.743473 -253.27827 
L 687.390127 -253.287045 
L 690.03678 -253.442294 
L 692.683433 -253.567061 
L 695.330087 -253.76048 
L 697.97674 -253.681529 
L 700.623393 -253.829528 
L 703.270047 -253.988663 
L 705.9167 -254.028358 
L 708.563353 -254.19867 
L 711.210007 -254.156949 
L 713.85666 -254.376879 
L 716.503313 -254.518904 
L 719.149967 -254.629569 
L 721.79662 -254.589728 
L 724.443273 -254.67783 
L 727.089927 -254.673839 
L 729.73658 -254.854848 
L 732.383233 -254.869598 
L 735.029887 -254.868094 
L 737.67654 -254.889257 
L 740.323193 -255.004832 
L 742.969847 -255.118966 
L 745.6165 -255.21954 
L 748.263153 -255.115748 
L 750.909807 -255.153271 
L 753.55646 -255.175562 
L 756.203113 -255.384065 
L 758.849767 -255.453322 
L 761.49642 -255.502941 
L 764.143073 -255.68489 
L 766.789727 -255.696673 
L 769.43638 -255.807547 
L 772.083033 -255.927426 
L 774.729687 -256.047012 
L 777.37634 -256.141236 
L 780.022993 -256.209657 
L 782.669647 -256.332294 
L 785.3163 -256.441601 
L 787.962953 -256.420918 
L 790.609607 -256.443398 
L 793.25626 -256.538665 
L 795.902913 -256.523498 
L 798.549567 -256.577023 
L 801.19622 -256.572135 
L 803.842873 -256.578945 
L 806.489527 -256.601133 
L 809.13618 -256.710733 
L 811.782833 -256.707473 
L 814.429487 -256.847743 
L 817.07614 -256.857332 
L 819.722793 -256.786466 
L 822.369447 -256.684931 
L 825.0161 -256.812937 
L 827.662753 -256.843376 
L 830.309407 -256.833703 
L 832.95606 -256.954083 
L 835.602713 -256.980679 
L 838.249367 -257.104444 
L 840.89602 -257.264247 
L 843.542673 -257.299722 
L 843.542673 -372.805455 
L 843.542673 -372.805455 
L 840.89602 -372.725313 
L 838.249367 -372.737012 
L 835.602713 -372.704337 
L 832.95606 -372.601047 
L 830.309407 -372.6112 
L 827.662753 -372.476279 
L 825.0161 -372.47607 
L 822.369447 -372.404828 
L 819.722793 -372.26928 
L 817.07614 -372.101851 
L 814.429487 -372.010595 
L 811.782833 -371.975078 
L 809.13618 -371.871997 
L 806.489527 -371.888752 
L 803.842873 -371.750614 
L 801.19622 -371.661029 
L 798.549567 -371.551136 
L 795.902913 -371.451105 
L 793.25626 -371.363024 
L 790.609607 -371.337745 
L 787.962953 -371.252463 
L 785.3163 -371.158115 
L 782.669647 -371.145914 
L 780.022993 -371.153895 
L 777.37634 -371.047805 
L 774.729687 -370.946395 
L 772.083033 -370.947648 
L 769.43638 -370.925503 
L 766.789727 -370.885599 
L 764.143073 -370.800443 
L 761.49642 -370.775247 
L 758.849767 -370.705969 
L 756.203113 -370.623696 
L 753.55646 -370.715746 
L 750.909807 -370.62988 
L 748.263153 -370.476156 
L 745.6165 -370.289297 
L 742.969847 -370.262681 
L 740.323193 -370.246092 
L 737.67654 -370.237777 
L 735.029887 -370.202971 
L 732.383233 -370.096965 
L 729.73658 -370.002658 
L 727.089927 -369.986655 
L 724.443273 -369.8692 
L 721.79662 -369.791815 
L 719.149967 -369.681965 
L 716.503313 -369.613146 
L 713.85666 -369.684806 
L 711.210007 -369.724585 
L 708.563353 -369.522642 
L 705.9167 -369.542824 
L 703.270047 -369.443753 
L 700.623393 -369.428795 
L 697.97674 -369.498574 
L 695.330087 -369.352246 
L 692.683433 -369.36123 
L 690.03678 -369.289904 
L 687.390127 -369.269346 
L 684.743473 -369.183773 
L 682.09682 -369.016636 
L 679.450167 -368.995201 
L 676.803513 -368.849625 
L 674.15686 -368.813482 
L 671.510207 -368.860823 
L 668.863553 -368.778717 
L 666.2169 -368.735512 
L 663.570247 -368.629255 
L 660.923593 -368.623656 
L 658.27694 -368.601009 
L 655.630287 -368.509377 
L 652.983633 -368.527678 
L 650.33698 -368.575897 
L 647.690327 -368.670663 
L 645.043673 -368.615299 
L 642.39702 -368.548821 
L 639.750367 -368.361544 
L 637.103713 -368.491994 
L 634.45706 -368.396685 
L 631.810407 -368.325025 
L 629.163753 -368.285581 
L 626.5171 -368.122497 
L 623.870447 -367.983481 
L 621.223793 -367.82303 
L 618.57714 -367.751997 
L 615.930487 -367.598691 
L 613.283833 -367.482824 
L 610.63718 -367.563008 
L 607.990527 -367.527031 
L 605.343873 -367.57174 
L 602.69722 -367.496028 
L 600.050567 -367.519886 
L 597.403913 -367.428881 
L 594.75726 -367.38321 
L 592.110607 -367.376609 
L 589.463953 -367.319531 
L 586.8173 -367.258694 
L 584.170647 -367.154609 
L 581.523993 -367.076348 
L 578.87734 -366.904239 
L 576.230687 -366.766894 
L 573.584033 -366.610872 
L 570.93738 -366.518822 
L 568.290727 -366.343412 
L 565.644073 -366.222238 
L 562.99742 -366.098515 
L 560.350767 -365.888634 
L 557.704113 -365.842002 
L 555.05746 -365.748615 
L 552.410807 -365.628611 
L 549.764153 -365.613151 
L 547.1175 -365.624641 
L 544.470847 -365.614906 
L 541.824193 -365.487297 
L 539.17754 -365.330982 
L 536.530887 -365.22928 
L 533.884233 -365.184822 
L 531.23758 -365.220923 
L 528.590927 -365.211438 
L 525.944273 -365.129416 
L 523.29762 -365.052366 
L 520.650967 -364.97845 
L 518.004313 -364.750893 
L 515.35766 -364.758665 
L 512.711007 -364.71358 
L 510.064353 -364.671629 
L 507.4177 -364.558352 
L 504.771047 -364.459867 
L 502.124393 -364.303093 
L 499.47774 -364.123379 
L 496.831087 -364.053976 
L 494.184433 -363.871295 
L 491.53778 -363.884416 
L 488.891127 -363.658614 
L 486.244473 -363.474054 
L 483.59782 -363.514125 
L 480.951167 -363.302697 
L 478.304513 -363.205047 
L 475.65786 -363.183152 
L 473.011207 -363.171077 
L 470.364553 -363.102175 
L 467.7179 -363.002102 
L 465.071247 -362.841567 
L 462.424593 -362.757038 
L 459.77794 -362.561989 
L 457.131287 -362.469772 
L 454.484633 -362.401831 
L 451.83798 -362.365646 
L 449.191327 -362.198676 
L 446.544673 -362.012737 
L 443.89802 -361.937943 
L 441.251367 -361.838372 
L 438.604713 -361.732073 
L 435.95806 -361.687823 
L 433.311407 -361.75004 
L 430.664753 -361.499168 
L 428.0181 -361.329733 
L 425.371447 -361.307755 
L 422.724793 -361.067454 
L 420.07814 -360.960863 
L 417.431487 -360.619445 
L 414.784833 -360.630183 
L 412.13818 -360.694489 
L 409.491527 -360.578037 
L 406.844873 -360.432147 
L 404.19822 -360.391638 
L 401.551567 -360.258513 
L 398.904913 -360.11931 
L 396.25826 -360.121441 
L 393.611607 -360.045623 
L 390.964953 -359.911392 
L 388.3183 -359.907736 
L 385.671647 -359.732054 
L 383.024993 -359.629453 
L 380.37834 -359.60994 
L 377.731687 -359.389194 
L 375.085033 -359.299839 
L 372.43838 -359.281872 
L 369.791727 -359.063362 
L 367.145073 -359.059309 
L 364.49842 -359.108113 
L 361.851767 -359.038041 
L 359.205113 -358.794314 
L 356.55846 -358.669839 
L 353.911807 -358.536338 
L 351.265153 -358.420387 
L 348.6185 -358.34409 
L 345.971847 -358.410986 
L 343.325193 -358.310788 
L 340.67854 -358.148665 
L 338.031887 -358.13097 
L 335.385233 -358.051475 
L 332.73858 -357.940622 
L 330.091927 -357.728045 
L 327.445273 -357.473642 
L 324.79862 -357.243516 
L 322.151967 -357.0094 
L 319.505313 -356.960951 
L 316.85866 -356.853775 
L 314.212007 -356.653817 
L 311.565353 -356.391078 
L 308.9187 -356.135129 
L 306.272047 -355.842703 
L 303.625393 -355.649765 
L 300.97874 -355.520317 
L 298.332087 -355.39837 
L 295.685433 -355.343153 
L 293.03878 -355.234221 
L 290.392127 -354.992646 
L 287.745473 -354.899447 
L 285.09882 -354.680603 
L 282.452167 -354.548168 
L 279.805513 -354.579297 
L 277.15886 -354.53323 
L 274.512207 -354.408253 
L 271.865553 -354.228164 
L 269.2189 -353.917749 
L 266.572247 -353.967932 
L 263.925593 -353.741713 
L 261.27894 -353.522743 
L 258.632287 -353.320383 
L 255.985633 -352.779863 
L 253.33898 -352.534151 
L 250.692327 -352.215986 
L 248.045673 -351.947586 
L 245.39902 -351.69757 
L 242.752367 -351.62449 
L 240.105713 -351.468384 
L 237.45906 -351.129745 
L 234.812407 -350.942426 
L 232.165753 -350.723603 
L 229.5191 -350.549509 
L 226.872447 -350.215549 
L 224.225793 -349.859068 
L 221.57914 -349.779093 
L 218.932487 -349.493833 
L 216.285833 -349.274947 
L 213.63918 -349.217619 
L 210.992527 -348.77665 
L 208.345873 -348.56846 
L 205.69922 -348.45861 
L 203.052567 -348.304468 
L 200.405913 -348.059927 
L 197.75926 -347.638408 
L 195.112607 -347.538816 
L 192.465953 -347.456564 
L 189.8193 -346.794285 
L 187.172647 -346.806862 
L 184.525993 -346.271273 
L 181.87934 -346.21687 
L 179.232687 -345.845493 
L 176.586033 -345.350371 
L 173.93938 -344.871421 
L 171.292727 -344.599657 
L 168.646073 -344.54939 
L 165.99942 -344.572414 
L 163.352767 -344.090329 
L 160.706113 -343.3702 
L 158.05946 -343.162157 
L 155.412807 -342.703451 
L 152.766153 -342.437077 
L 150.1195 -342.133954 
L 147.472847 -341.461919 
L 144.826193 -340.878445 
L 142.17954 -340.542041 
L 139.532887 -340.184076 
L 136.886233 -339.953783 
L 134.23958 -339.413075 
L 131.592927 -338.945093 
L 128.946273 -338.449867 
L 126.29962 -338.094389 
L 123.652967 -338.03119 
L 121.006313 -337.374761 
L 118.35966 -336.872495 
L 115.713007 -336.578356 
L 113.066353 -336.182305 
L 110.4197 -335.645859 
L 107.773047 -335.053485 
L 105.126393 -334.202823 
L 102.47974 -334.072728 
L 99.833087 -332.833473 
L 97.186433 -333.027602 
L 94.53978 -332.245675 
L 91.893127 -331.9287 
L 89.246473 -330.195661 
L 86.59982 -329.305576 
L 83.953167 -328.414759 
L 81.306513 -326.844699 
L 78.65986 -326.320851 
L 76.013207 -324.406511 
L 73.366553 -322.958649 
L 70.7199 -320.991702 
L 68.073247 -319.668837 
L 65.426593 -317.256242 
L 62.77994 -315.263118 
L 60.133287 -312.008509 
L 57.486633 -308.557996 
L 54.83998 -305.267349 
L 52.193327 -304.192138 
z
" style="stroke: #0000ff; stroke-opacity: 0.2"/>
    </defs>
    <g clip-path="url(#p25fbf389c1)">
     <use xlink:href="#mbe336f7859" x="0" y="432" style="fill: #0000ff; fill-opacity: 0.2; stroke: #0000ff; stroke-opacity: 0.2"/>
    </g>
   </g>
   <g id="matplotlib.axis_1">
    <g id="xtick_1">
     <g id="line2d_1">
      <defs>
       <path id="meee1fbf64d" d="M 0 0 
L 0 3.5 
" style="stroke: #000000; stroke-width: 0.8"/>
      </defs>
      <g>
       <use xlink:href="#meee1fbf64d" x="181.87934" y="390.04" style="stroke: #000000; stroke-width: 0.8"/>
      </g>
     </g>
     <g id="text_1">
      <!-- 50 -->
      <g transform="translate(175.51684 404.638438) scale(0.1 -0.1)">
       <defs>
        <path id="DejaVuSans-35" d="M 691 4666 
L 3169 4666 
L 3169 4134 
L 1269 4134 
L 1269 2991 
Q 1406 3038 1543 3061 
Q 1681 3084 1819 3084 
Q 2600 3084 3056 2656 
Q 3513 2228 3513 1497 
Q 3513 744 3044 326 
Q 2575 -91 1722 -91 
Q 1428 -91 1123 -41 
Q 819 9 494 109 
L 494 744 
Q 775 591 1075 516 
Q 1375 441 1709 441 
Q 2250 441 2565 725 
Q 2881 1009 2881 1497 
Q 2881 1984 2565 2268 
Q 2250 2553 1709 2553 
Q 1456 2553 1204 2497 
Q 953 2441 691 2322 
L 691 4666 
z
" transform="scale(0.015625)"/>
        <path id="DejaVuSans-30" d="M 2034 4250 
Q 1547 4250 1301 3770 
Q 1056 3291 1056 2328 
Q 1056 1369 1301 889 
Q 1547 409 2034 409 
Q 2525 409 2770 889 
Q 3016 1369 3016 2328 
Q 3016 3291 2770 3770 
Q 2525 4250 2034 4250 
z
M 2034 4750 
Q 2819 4750 3233 4129 
Q 3647 3509 3647 2328 
Q 3647 1150 3233 529 
Q 2819 -91 2034 -91 
Q 1250 -91 836 529 
Q 422 1150 422 2328 
Q 422 3509 836 4129 
Q 1250 4750 2034 4750 
z
" transform="scale(0.015625)"/>
       </defs>
       <use xlink:href="#DejaVuSans-35"/>
       <use xlink:href="#DejaVuSans-30" transform="translate(63.623047 0)"/>
      </g>
     </g>
    </g>
    <g id="xtick_2">
     <g id="line2d_2">
      <g>
       <use xlink:href="#meee1fbf64d" x="314.212007" y="390.04" style="stroke: #000000; stroke-width: 0.8"/>
      </g>
     </g>
     <g id="text_2">
      <!-- 100 -->
      <g transform="translate(304.668257 404.638438) scale(0.1 -0.1)">
       <defs>
        <path id="DejaVuSans-31" d="M 794 531 
L 1825 531 
L 1825 4091 
L 703 3866 
L 703 4441 
L 1819 4666 
L 2450 4666 
L 2450 531 
L 3481 531 
L 3481 0 
L 794 0 
L 794 531 
z
" transform="scale(0.015625)"/>
       </defs>
       <use xlink:href="#DejaVuSans-31"/>
       <use xlink:href="#DejaVuSans-30" transform="translate(63.623047 0)"/>
       <use xlink:href="#DejaVuSans-30" transform="translate(127.246094 0)"/>
      </g>
     </g>
    </g>
    <g id="xtick_3">
     <g id="line2d_3">
      <g>
       <use xlink:href="#meee1fbf64d" x="446.544673" y="390.04" style="stroke: #000000; stroke-width: 0.8"/>
      </g>
     </g>
     <g id="text_3">
      <!-- 150 -->
      <g transform="translate(437.000923 404.638438) scale(0.1 -0.1)">
       <use xlink:href="#DejaVuSans-31"/>
       <use xlink:href="#DejaVuSans-35" transform="translate(63.623047 0)"/>
       <use xlink:href="#DejaVuSans-30" transform="translate(127.246094 0)"/>
      </g>
     </g>
    </g>
    <g id="xtick_4">
     <g id="line2d_4">
      <g>
       <use xlink:href="#meee1fbf64d" x="578.87734" y="390.04" style="stroke: #000000; stroke-width: 0.8"/>
      </g>
     </g>
     <g id="text_4">
      <!-- 200 -->
      <g transform="translate(569.33359 404.638438) scale(0.1 -0.1)">
       <defs>
        <path id="DejaVuSans-32" d="M 1228 531 
L 3431 531 
L 3431 0 
L 469 0 
L 469 531 
Q 828 903 1448 1529 
Q 2069 2156 2228 2338 
Q 2531 2678 2651 2914 
Q 2772 3150 2772 3378 
Q 2772 3750 2511 3984 
Q 2250 4219 1831 4219 
Q 1534 4219 1204 4116 
Q 875 4013 500 3803 
L 500 4441 
Q 881 4594 1212 4672 
Q 1544 4750 1819 4750 
Q 2544 4750 2975 4387 
Q 3406 4025 3406 3419 
Q 3406 3131 3298 2873 
Q 3191 2616 2906 2266 
Q 2828 2175 2409 1742 
Q 1991 1309 1228 531 
z
" transform="scale(0.015625)"/>
       </defs>
       <use xlink:href="#DejaVuSans-32"/>
       <use xlink:href="#DejaVuSans-30" transform="translate(63.623047 0)"/>
       <use xlink:href="#DejaVuSans-30" transform="translate(127.246094 0)"/>
      </g>
     </g>
    </g>
    <g id="xtick_5">
     <g id="line2d_5">
      <g>
       <use xlink:href="#meee1fbf64d" x="711.210007" y="390.04" style="stroke: #000000; stroke-width: 0.8"/>
      </g>
     </g>
     <g id="text_5">
      <!-- 250 -->
      <g transform="translate(701.666257 404.638438) scale(0.1 -0.1)">
       <use xlink:href="#DejaVuSans-32"/>
       <use xlink:href="#DejaVuSans-35" transform="translate(63.623047 0)"/>
       <use xlink:href="#DejaVuSans-30" transform="translate(127.246094 0)"/>
      </g>
     </g>
    </g>
    <g id="xtick_6">
     <g id="line2d_6">
      <g>
       <use xlink:href="#meee1fbf64d" x="843.542673" y="390.04" style="stroke: #000000; stroke-width: 0.8"/>
      </g>
     </g>
     <g id="text_6">
      <!-- 300 -->
      <g transform="translate(833.998923 404.638438) scale(0.1 -0.1)">
       <defs>
        <path id="DejaVuSans-33" d="M 2597 2516 
Q 3050 2419 3304 2112 
Q 3559 1806 3559 1356 
Q 3559 666 3084 287 
Q 2609 -91 1734 -91 
Q 1441 -91 1130 -33 
Q 819 25 488 141 
L 488 750 
Q 750 597 1062 519 
Q 1375 441 1716 441 
Q 2309 441 2620 675 
Q 2931 909 2931 1356 
Q 2931 1769 2642 2001 
Q 2353 2234 1838 2234 
L 1294 2234 
L 1294 2753 
L 1863 2753 
Q 2328 2753 2575 2939 
Q 2822 3125 2822 3475 
Q 2822 3834 2567 4026 
Q 2313 4219 1838 4219 
Q 1578 4219 1281 4162 
Q 984 4106 628 3988 
L 628 4550 
Q 988 4650 1302 4700 
Q 1616 4750 1894 4750 
Q 2613 4750 3031 4423 
Q 3450 4097 3450 3541 
Q 3450 3153 3228 2886 
Q 3006 2619 2597 2516 
z
" transform="scale(0.015625)"/>
       </defs>
       <use xlink:href="#DejaVuSans-33"/>
       <use xlink:href="#DejaVuSans-30" transform="translate(63.623047 0)"/>
       <use xlink:href="#DejaVuSans-30" transform="translate(127.246094 0)"/>
      </g>
     </g>
    </g>
    <g id="text_7">
     <!-- Step -->
     <g transform="translate(436.482844 418.316562) scale(0.1 -0.1)">
      <defs>
       <path id="DejaVuSans-53" d="M 3425 4513 
L 3425 3897 
Q 3066 4069 2747 4153 
Q 2428 4238 2131 4238 
Q 1616 4238 1336 4038 
Q 1056 3838 1056 3469 
Q 1056 3159 1242 3001 
Q 1428 2844 1947 2747 
L 2328 2669 
Q 3034 2534 3370 2195 
Q 3706 1856 3706 1288 
Q 3706 609 3251 259 
Q 2797 -91 1919 -91 
Q 1588 -91 1214 -16 
Q 841 59 441 206 
L 441 856 
Q 825 641 1194 531 
Q 1563 422 1919 422 
Q 2459 422 2753 634 
Q 3047 847 3047 1241 
Q 3047 1584 2836 1778 
Q 2625 1972 2144 2069 
L 1759 2144 
Q 1053 2284 737 2584 
Q 422 2884 422 3419 
Q 422 4038 858 4394 
Q 1294 4750 2059 4750 
Q 2388 4750 2728 4690 
Q 3069 4631 3425 4513 
z
" transform="scale(0.015625)"/>
       <path id="DejaVuSans-74" d="M 1172 4494 
L 1172 3500 
L 2356 3500 
L 2356 3053 
L 1172 3053 
L 1172 1153 
Q 1172 725 1289 603 
Q 1406 481 1766 481 
L 2356 481 
L 2356 0 
L 1766 0 
Q 1100 0 847 248 
Q 594 497 594 1153 
L 594 3053 
L 172 3053 
L 172 3500 
L 594 3500 
L 594 4494 
L 1172 4494 
z
" transform="scale(0.015625)"/>
       <path id="DejaVuSans-65" d="M 3597 1894 
L 3597 1613 
L 953 1613 
Q 991 1019 1311 708 
Q 1631 397 2203 397 
Q 2534 397 2845 478 
Q 3156 559 3463 722 
L 3463 178 
Q 3153 47 2828 -22 
Q 2503 -91 2169 -91 
Q 1331 -91 842 396 
Q 353 884 353 1716 
Q 353 2575 817 3079 
Q 1281 3584 2069 3584 
Q 2775 3584 3186 3129 
Q 3597 2675 3597 1894 
z
M 3022 2063 
Q 3016 2534 2758 2815 
Q 2500 3097 2075 3097 
Q 1594 3097 1305 2825 
Q 1016 2553 972 2059 
L 3022 2063 
z
" transform="scale(0.015625)"/>
       <path id="DejaVuSans-70" d="M 1159 525 
L 1159 -1331 
L 581 -1331 
L 581 3500 
L 1159 3500 
L 1159 2969 
Q 1341 3281 1617 3432 
Q 1894 3584 2278 3584 
Q 2916 3584 3314 3078 
Q 3713 2572 3713 1747 
Q 3713 922 3314 415 
Q 2916 -91 2278 -91 
Q 1894 -91 1617 61 
Q 1341 213 1159 525 
z
M 3116 1747 
Q 3116 2381 2855 2742 
Q 2594 3103 2138 3103 
Q 1681 3103 1420 2742 
Q 1159 2381 1159 1747 
Q 1159 1113 1420 752 
Q 1681 391 2138 391 
Q 2594 391 2855 752 
Q 3116 1113 3116 1747 
z
" transform="scale(0.015625)"/>
      </defs>
      <use xlink:href="#DejaVuSans-53"/>
      <use xlink:href="#DejaVuSans-74" transform="translate(63.476562 0)"/>
      <use xlink:href="#DejaVuSans-65" transform="translate(102.685547 0)"/>
      <use xlink:href="#DejaVuSans-70" transform="translate(164.208984 0)"/>
     </g>
    </g>
   </g>
   <g id="matplotlib.axis_2">
    <g id="ytick_1">
     <g id="line2d_7">
      <defs>
       <path id="m1afa053eb5" d="M 0 0 
L -3.5 0 
" style="stroke: #000000; stroke-width: 0.8"/>
      </defs>
      <g>
       <use xlink:href="#m1afa053eb5" x="50.87" y="366.832104" style="stroke: #000000; stroke-width: 0.8"/>
      </g>
     </g>
     <g id="text_8">
      <!-- 20 -->
      <g transform="translate(31.145 370.631323) scale(0.1 -0.1)">
       <use xlink:href="#DejaVuSans-32"/>
       <use xlink:href="#DejaVuSans-30" transform="translate(63.623047 0)"/>
      </g>
     </g>
    </g>
    <g id="ytick_2">
     <g id="line2d_8">
      <g>
       <use xlink:href="#m1afa053eb5" x="50.87" y="312.064798" style="stroke: #000000; stroke-width: 0.8"/>
      </g>
     </g>
     <g id="text_9">
      <!-- 40 -->
      <g transform="translate(31.145 315.864017) scale(0.1 -0.1)">
       <defs>
        <path id="DejaVuSans-34" d="M 2419 4116 
L 825 1625 
L 2419 1625 
L 2419 4116 
z
M 2253 4666 
L 3047 4666 
L 3047 1625 
L 3713 1625 
L 3713 1100 
L 3047 1100 
L 3047 0 
L 2419 0 
L 2419 1100 
L 313 1100 
L 313 1709 
L 2253 4666 
z
" transform="scale(0.015625)"/>
       </defs>
       <use xlink:href="#DejaVuSans-34"/>
       <use xlink:href="#DejaVuSans-30" transform="translate(63.623047 0)"/>
      </g>
     </g>
    </g>
    <g id="ytick_3">
     <g id="line2d_9">
      <g>
       <use xlink:href="#m1afa053eb5" x="50.87" y="257.297492" style="stroke: #000000; stroke-width: 0.8"/>
      </g>
     </g>
     <g id="text_10">
      <!-- 60 -->
      <g transform="translate(31.145 261.096711) scale(0.1 -0.1)">
       <defs>
        <path id="DejaVuSans-36" d="M 2113 2584 
Q 1688 2584 1439 2293 
Q 1191 2003 1191 1497 
Q 1191 994 1439 701 
Q 1688 409 2113 409 
Q 2538 409 2786 701 
Q 3034 994 3034 1497 
Q 3034 2003 2786 2293 
Q 2538 2584 2113 2584 
z
M 3366 4563 
L 3366 3988 
Q 3128 4100 2886 4159 
Q 2644 4219 2406 4219 
Q 1781 4219 1451 3797 
Q 1122 3375 1075 2522 
Q 1259 2794 1537 2939 
Q 1816 3084 2150 3084 
Q 2853 3084 3261 2657 
Q 3669 2231 3669 1497 
Q 3669 778 3244 343 
Q 2819 -91 2113 -91 
Q 1303 -91 875 529 
Q 447 1150 447 2328 
Q 447 3434 972 4092 
Q 1497 4750 2381 4750 
Q 2619 4750 2861 4703 
Q 3103 4656 3366 4563 
z
" transform="scale(0.015625)"/>
       </defs>
       <use xlink:href="#DejaVuSans-36"/>
       <use xlink:href="#DejaVuSans-30" transform="translate(63.623047 0)"/>
      </g>
     </g>
    </g>
    <g id="ytick_4">
     <g id="line2d_10">
      <g>
       <use xlink:href="#m1afa053eb5" x="50.87" y="202.530186" style="stroke: #000000; stroke-width: 0.8"/>
      </g>
     </g>
     <g id="text_11">
      <!-- 80 -->
      <g transform="translate(31.145 206.329405) scale(0.1 -0.1)">
       <defs>
        <path id="DejaVuSans-38" d="M 2034 2216 
Q 1584 2216 1326 1975 
Q 1069 1734 1069 1313 
Q 1069 891 1326 650 
Q 1584 409 2034 409 
Q 2484 409 2743 651 
Q 3003 894 3003 1313 
Q 3003 1734 2745 1975 
Q 2488 2216 2034 2216 
z
M 1403 2484 
Q 997 2584 770 2862 
Q 544 3141 544 3541 
Q 544 4100 942 4425 
Q 1341 4750 2034 4750 
Q 2731 4750 3128 4425 
Q 3525 4100 3525 3541 
Q 3525 3141 3298 2862 
Q 3072 2584 2669 2484 
Q 3125 2378 3379 2068 
Q 3634 1759 3634 1313 
Q 3634 634 3220 271 
Q 2806 -91 2034 -91 
Q 1263 -91 848 271 
Q 434 634 434 1313 
Q 434 1759 690 2068 
Q 947 2378 1403 2484 
z
M 1172 3481 
Q 1172 3119 1398 2916 
Q 1625 2713 2034 2713 
Q 2441 2713 2670 2916 
Q 2900 3119 2900 3481 
Q 2900 3844 2670 4047 
Q 2441 4250 2034 4250 
Q 1625 4250 1398 4047 
Q 1172 3844 1172 3481 
z
" transform="scale(0.015625)"/>
       </defs>
       <use xlink:href="#DejaVuSans-38"/>
       <use xlink:href="#DejaVuSans-30" transform="translate(63.623047 0)"/>
      </g>
     </g>
    </g>
    <g id="ytick_5">
     <g id="line2d_11">
      <g>
       <use xlink:href="#m1afa053eb5" x="50.87" y="147.76288" style="stroke: #000000; stroke-width: 0.8"/>
      </g>
     </g>
     <g id="text_12">
      <!-- 100 -->
      <g transform="translate(24.7825 151.562099) scale(0.1 -0.1)">
       <use xlink:href="#DejaVuSans-31"/>
       <use xlink:href="#DejaVuSans-30" transform="translate(63.623047 0)"/>
       <use xlink:href="#DejaVuSans-30" transform="translate(127.246094 0)"/>
      </g>
     </g>
    </g>
    <g id="ytick_6">
     <g id="line2d_12">
      <g>
       <use xlink:href="#m1afa053eb5" x="50.87" y="92.995574" style="stroke: #000000; stroke-width: 0.8"/>
      </g>
     </g>
     <g id="text_13">
      <!-- 120 -->
      <g transform="translate(24.7825 96.794792) scale(0.1 -0.1)">
       <use xlink:href="#DejaVuSans-31"/>
       <use xlink:href="#DejaVuSans-32" transform="translate(63.623047 0)"/>
       <use xlink:href="#DejaVuSans-30" transform="translate(127.246094 0)"/>
      </g>
     </g>
    </g>
    <g id="text_14">
     <!-- Profit -->
     <g transform="translate(18.702813 229.779063) rotate(-90) scale(0.1 -0.1)">
      <defs>
       <path id="DejaVuSans-50" d="M 1259 4147 
L 1259 2394 
L 2053 2394 
Q 2494 2394 2734 2622 
Q 2975 2850 2975 3272 
Q 2975 3691 2734 3919 
Q 2494 4147 2053 4147 
L 1259 4147 
z
M 628 4666 
L 2053 4666 
Q 2838 4666 3239 4311 
Q 3641 3956 3641 3272 
Q 3641 2581 3239 2228 
Q 2838 1875 2053 1875 
L 1259 1875 
L 1259 0 
L 628 0 
L 628 4666 
z
" transform="scale(0.015625)"/>
       <path id="DejaVuSans-72" d="M 2631 2963 
Q 2534 3019 2420 3045 
Q 2306 3072 2169 3072 
Q 1681 3072 1420 2755 
Q 1159 2438 1159 1844 
L 1159 0 
L 581 0 
L 581 3500 
L 1159 3500 
L 1159 2956 
Q 1341 3275 1631 3429 
Q 1922 3584 2338 3584 
Q 2397 3584 2469 3576 
Q 2541 3569 2628 3553 
L 2631 2963 
z
" transform="scale(0.015625)"/>
       <path id="DejaVuSans-6f" d="M 1959 3097 
Q 1497 3097 1228 2736 
Q 959 2375 959 1747 
Q 959 1119 1226 758 
Q 1494 397 1959 397 
Q 2419 397 2687 759 
Q 2956 1122 2956 1747 
Q 2956 2369 2687 2733 
Q 2419 3097 1959 3097 
z
M 1959 3584 
Q 2709 3584 3137 3096 
Q 3566 2609 3566 1747 
Q 3566 888 3137 398 
Q 2709 -91 1959 -91 
Q 1206 -91 779 398 
Q 353 888 353 1747 
Q 353 2609 779 3096 
Q 1206 3584 1959 3584 
z
" transform="scale(0.015625)"/>
       <path id="DejaVuSans-66" d="M 2375 4863 
L 2375 4384 
L 1825 4384 
Q 1516 4384 1395 4259 
Q 1275 4134 1275 3809 
L 1275 3500 
L 2222 3500 
L 2222 3053 
L 1275 3053 
L 1275 0 
L 697 0 
L 697 3053 
L 147 3053 
L 147 3500 
L 697 3500 
L 697 3744 
Q 697 4328 969 4595 
Q 1241 4863 1831 4863 
L 2375 4863 
z
" transform="scale(0.015625)"/>
       <path id="DejaVuSans-69" d="M 603 3500 
L 1178 3500 
L 1178 0 
L 603 0 
L 603 3500 
z
M 603 4863 
L 1178 4863 
L 1178 4134 
L 603 4134 
L 603 4863 
z
" transform="scale(0.015625)"/>
      </defs>
      <use xlink:href="#DejaVuSans-50"/>
      <use xlink:href="#DejaVuSans-72" transform="translate(58.552734 0)"/>
      <use xlink:href="#DejaVuSans-6f" transform="translate(97.416016 0)"/>
      <use xlink:href="#DejaVuSans-66" transform="translate(158.597656 0)"/>
      <use xlink:href="#DejaVuSans-69" transform="translate(193.802734 0)"/>
      <use xlink:href="#DejaVuSans-74" transform="translate(221.585938 0)"/>
     </g>
    </g>
   </g>
   <g id="line2d_13">
    <path d="M 52.193327 250.3797 
L 54.83998 250.509053 
L 57.486633 242.509208 
L 60.133287 234.934809 
L 62.77994 227.988927 
L 65.426593 222.219018 
L 68.073247 216.971119 
L 70.7199 212.298837 
L 73.366553 208.410008 
L 78.65986 201.086544 
L 83.953167 195.296934 
L 91.893127 188.123934 
L 97.186433 184.105951 
L 99.833087 182.550473 
L 102.47974 180.722501 
L 105.126393 179.056463 
L 113.066353 174.952404 
L 121.006313 171.085282 
L 128.946273 167.963547 
L 136.886233 165.149573 
L 144.826193 162.801576 
L 150.1195 161.481636 
L 158.05946 159.248901 
L 168.646073 156.813282 
L 189.8193 152.464285 
L 197.75926 151.116287 
L 229.5191 146.491054 
L 261.27894 142.793743 
L 274.512207 141.547364 
L 282.452167 140.792805 
L 287.745473 140.114711 
L 293.03878 139.687552 
L 300.97874 138.956037 
L 311.565353 138.172041 
L 319.505313 137.516845 
L 324.79862 137.177265 
L 338.031887 136.098023 
L 343.325193 135.595527 
L 348.6185 135.221287 
L 364.49842 134.168703 
L 375.085033 133.552241 
L 383.024993 132.979777 
L 388.3183 132.718438 
L 393.611607 132.35594 
L 425.371447 130.651753 
L 433.311407 130.281671 
L 449.191327 129.40926 
L 504.771047 126.912595 
L 515.35766 126.447412 
L 552.410807 125.067846 
L 557.704113 124.904177 
L 634.45706 122.230264 
L 674.15686 121.110888 
L 679.450167 120.930777 
L 690.03678 120.633901 
L 697.97674 120.409959 
L 705.9167 120.214409 
L 735.029887 119.464467 
L 745.6165 119.245581 
L 756.203113 118.996109 
L 790.609607 118.109429 
L 843.542673 116.947412 
L 843.542673 116.947412 
" clip-path="url(#p25fbf389c1)" style="fill: none; stroke: #0000ff; stroke-width: 1.5; stroke-linecap: square"/>
   </g>
   <g id="patch_3">
    <path d="M 50.87 390.04 
L 50.87 43.44 
" style="fill: none; stroke: #000000; stroke-width: 0.8; stroke-linejoin: miter; stroke-linecap: square"/>
   </g>
   <g id="patch_4">
    <path d="M 844.866 390.04 
L 844.866 43.44 
" style="fill: none; stroke: #000000; stroke-width: 0.8; stroke-linejoin: miter; stroke-linecap: square"/>
   </g>
   <g id="patch_5">
    <path d="M 50.87 390.04 
L 844.866 390.04 
" style="fill: none; stroke: #000000; stroke-width: 0.8; stroke-linejoin: miter; stroke-linecap: square"/>
   </g>
   <g id="patch_6">
    <path d="M 50.87 43.44 
L 844.866 43.44 
" style="fill: none; stroke: #000000; stroke-width: 0.8; stroke-linejoin: miter; stroke-linecap: square"/>
   </g>
   <g id="text_15">
    <!-- Mean profit per step with confidence interval per simulation step -->
    <g transform="translate(220.284875 21.763062) scale(0.14 -0.14)">
     <defs>
      <path id="DejaVuSans-4d" d="M 628 4666 
L 1569 4666 
L 2759 1491 
L 3956 4666 
L 4897 4666 
L 4897 0 
L 4281 0 
L 4281 4097 
L 3078 897 
L 2444 897 
L 1241 4097 
L 1241 0 
L 628 0 
L 628 4666 
z
" transform="scale(0.015625)"/>
      <path id="DejaVuSans-61" d="M 2194 1759 
Q 1497 1759 1228 1600 
Q 959 1441 959 1056 
Q 959 750 1161 570 
Q 1363 391 1709 391 
Q 2188 391 2477 730 
Q 2766 1069 2766 1631 
L 2766 1759 
L 2194 1759 
z
M 3341 1997 
L 3341 0 
L 2766 0 
L 2766 531 
Q 2569 213 2275 61 
Q 1981 -91 1556 -91 
Q 1019 -91 701 211 
Q 384 513 384 1019 
Q 384 1609 779 1909 
Q 1175 2209 1959 2209 
L 2766 2209 
L 2766 2266 
Q 2766 2663 2505 2880 
Q 2244 3097 1772 3097 
Q 1472 3097 1187 3025 
Q 903 2953 641 2809 
L 641 3341 
Q 956 3463 1253 3523 
Q 1550 3584 1831 3584 
Q 2591 3584 2966 3190 
Q 3341 2797 3341 1997 
z
" transform="scale(0.015625)"/>
      <path id="DejaVuSans-6e" d="M 3513 2113 
L 3513 0 
L 2938 0 
L 2938 2094 
Q 2938 2591 2744 2837 
Q 2550 3084 2163 3084 
Q 1697 3084 1428 2787 
Q 1159 2491 1159 1978 
L 1159 0 
L 581 0 
L 581 3500 
L 1159 3500 
L 1159 2956 
Q 1366 3272 1645 3428 
Q 1925 3584 2291 3584 
Q 2894 3584 3203 3211 
Q 3513 2838 3513 2113 
z
" transform="scale(0.015625)"/>
      <path id="DejaVuSans-20" transform="scale(0.015625)"/>
      <path id="DejaVuSans-73" d="M 2834 3397 
L 2834 2853 
Q 2591 2978 2328 3040 
Q 2066 3103 1784 3103 
Q 1356 3103 1142 2972 
Q 928 2841 928 2578 
Q 928 2378 1081 2264 
Q 1234 2150 1697 2047 
L 1894 2003 
Q 2506 1872 2764 1633 
Q 3022 1394 3022 966 
Q 3022 478 2636 193 
Q 2250 -91 1575 -91 
Q 1294 -91 989 -36 
Q 684 19 347 128 
L 347 722 
Q 666 556 975 473 
Q 1284 391 1588 391 
Q 1994 391 2212 530 
Q 2431 669 2431 922 
Q 2431 1156 2273 1281 
Q 2116 1406 1581 1522 
L 1381 1569 
Q 847 1681 609 1914 
Q 372 2147 372 2553 
Q 372 3047 722 3315 
Q 1072 3584 1716 3584 
Q 2034 3584 2315 3537 
Q 2597 3491 2834 3397 
z
" transform="scale(0.015625)"/>
      <path id="DejaVuSans-77" d="M 269 3500 
L 844 3500 
L 1563 769 
L 2278 3500 
L 2956 3500 
L 3675 769 
L 4391 3500 
L 4966 3500 
L 4050 0 
L 3372 0 
L 2619 2869 
L 1863 0 
L 1184 0 
L 269 3500 
z
" transform="scale(0.015625)"/>
      <path id="DejaVuSans-68" d="M 3513 2113 
L 3513 0 
L 2938 0 
L 2938 2094 
Q 2938 2591 2744 2837 
Q 2550 3084 2163 3084 
Q 1697 3084 1428 2787 
Q 1159 2491 1159 1978 
L 1159 0 
L 581 0 
L 581 4863 
L 1159 4863 
L 1159 2956 
Q 1366 3272 1645 3428 
Q 1925 3584 2291 3584 
Q 2894 3584 3203 3211 
Q 3513 2838 3513 2113 
z
" transform="scale(0.015625)"/>
      <path id="DejaVuSans-63" d="M 3122 3366 
L 3122 2828 
Q 2878 2963 2633 3030 
Q 2388 3097 2138 3097 
Q 1578 3097 1268 2742 
Q 959 2388 959 1747 
Q 959 1106 1268 751 
Q 1578 397 2138 397 
Q 2388 397 2633 464 
Q 2878 531 3122 666 
L 3122 134 
Q 2881 22 2623 -34 
Q 2366 -91 2075 -91 
Q 1284 -91 818 406 
Q 353 903 353 1747 
Q 353 2603 823 3093 
Q 1294 3584 2113 3584 
Q 2378 3584 2631 3529 
Q 2884 3475 3122 3366 
z
" transform="scale(0.015625)"/>
      <path id="DejaVuSans-64" d="M 2906 2969 
L 2906 4863 
L 3481 4863 
L 3481 0 
L 2906 0 
L 2906 525 
Q 2725 213 2448 61 
Q 2172 -91 1784 -91 
Q 1150 -91 751 415 
Q 353 922 353 1747 
Q 353 2572 751 3078 
Q 1150 3584 1784 3584 
Q 2172 3584 2448 3432 
Q 2725 3281 2906 2969 
z
M 947 1747 
Q 947 1113 1208 752 
Q 1469 391 1925 391 
Q 2381 391 2643 752 
Q 2906 1113 2906 1747 
Q 2906 2381 2643 2742 
Q 2381 3103 1925 3103 
Q 1469 3103 1208 2742 
Q 947 2381 947 1747 
z
" transform="scale(0.015625)"/>
      <path id="DejaVuSans-76" d="M 191 3500 
L 800 3500 
L 1894 563 
L 2988 3500 
L 3597 3500 
L 2284 0 
L 1503 0 
L 191 3500 
z
" transform="scale(0.015625)"/>
      <path id="DejaVuSans-6c" d="M 603 4863 
L 1178 4863 
L 1178 0 
L 603 0 
L 603 4863 
z
" transform="scale(0.015625)"/>
      <path id="DejaVuSans-6d" d="M 3328 2828 
Q 3544 3216 3844 3400 
Q 4144 3584 4550 3584 
Q 5097 3584 5394 3201 
Q 5691 2819 5691 2113 
L 5691 0 
L 5113 0 
L 5113 2094 
Q 5113 2597 4934 2840 
Q 4756 3084 4391 3084 
Q 3944 3084 3684 2787 
Q 3425 2491 3425 1978 
L 3425 0 
L 2847 0 
L 2847 2094 
Q 2847 2600 2669 2842 
Q 2491 3084 2119 3084 
Q 1678 3084 1418 2786 
Q 1159 2488 1159 1978 
L 1159 0 
L 581 0 
L 581 3500 
L 1159 3500 
L 1159 2956 
Q 1356 3278 1631 3431 
Q 1906 3584 2284 3584 
Q 2666 3584 2933 3390 
Q 3200 3197 3328 2828 
z
" transform="scale(0.015625)"/>
      <path id="DejaVuSans-75" d="M 544 1381 
L 544 3500 
L 1119 3500 
L 1119 1403 
Q 1119 906 1312 657 
Q 1506 409 1894 409 
Q 2359 409 2629 706 
Q 2900 1003 2900 1516 
L 2900 3500 
L 3475 3500 
L 3475 0 
L 2900 0 
L 2900 538 
Q 2691 219 2414 64 
Q 2138 -91 1772 -91 
Q 1169 -91 856 284 
Q 544 659 544 1381 
z
M 1991 3584 
L 1991 3584 
z
" transform="scale(0.015625)"/>
     </defs>
     <use xlink:href="#DejaVuSans-4d"/>
     <use xlink:href="#DejaVuSans-65" transform="translate(86.279297 0)"/>
     <use xlink:href="#DejaVuSans-61" transform="translate(147.802734 0)"/>
     <use xlink:href="#DejaVuSans-6e" transform="translate(209.082031 0)"/>
     <use xlink:href="#DejaVuSans-20" transform="translate(272.460938 0)"/>
     <use xlink:href="#DejaVuSans-70" transform="translate(304.248047 0)"/>
     <use xlink:href="#DejaVuSans-72" transform="translate(367.724609 0)"/>
     <use xlink:href="#DejaVuSans-6f" transform="translate(406.587891 0)"/>
     <use xlink:href="#DejaVuSans-66" transform="translate(467.769531 0)"/>
     <use xlink:href="#DejaVuSans-69" transform="translate(502.974609 0)"/>
     <use xlink:href="#DejaVuSans-74" transform="translate(530.757812 0)"/>
     <use xlink:href="#DejaVuSans-20" transform="translate(569.966797 0)"/>
     <use xlink:href="#DejaVuSans-70" transform="translate(601.753906 0)"/>
     <use xlink:href="#DejaVuSans-65" transform="translate(665.230469 0)"/>
     <use xlink:href="#DejaVuSans-72" transform="translate(726.753906 0)"/>
     <use xlink:href="#DejaVuSans-20" transform="translate(767.867188 0)"/>
     <use xlink:href="#DejaVuSans-73" transform="translate(799.654297 0)"/>
     <use xlink:href="#DejaVuSans-74" transform="translate(851.753906 0)"/>
     <use xlink:href="#DejaVuSans-65" transform="translate(890.962891 0)"/>
     <use xlink:href="#DejaVuSans-70" transform="translate(952.486328 0)"/>
     <use xlink:href="#DejaVuSans-20" transform="translate(1015.962891 0)"/>
     <use xlink:href="#DejaVuSans-77" transform="translate(1047.75 0)"/>
     <use xlink:href="#DejaVuSans-69" transform="translate(1129.537109 0)"/>
     <use xlink:href="#DejaVuSans-74" transform="translate(1157.320312 0)"/>
     <use xlink:href="#DejaVuSans-68" transform="translate(1196.529297 0)"/>
     <use xlink:href="#DejaVuSans-20" transform="translate(1259.908203 0)"/>
     <use xlink:href="#DejaVuSans-63" transform="translate(1291.695312 0)"/>
     <use xlink:href="#DejaVuSans-6f" transform="translate(1346.675781 0)"/>
     <use xlink:href="#DejaVuSans-6e" transform="translate(1407.857422 0)"/>
     <use xlink:href="#DejaVuSans-66" transform="translate(1471.236328 0)"/>
     <use xlink:href="#DejaVuSans-69" transform="translate(1506.441406 0)"/>
     <use xlink:href="#DejaVuSans-64" transform="translate(1534.224609 0)"/>
     <use xlink:href="#DejaVuSans-65" transform="translate(1597.701172 0)"/>
     <use xlink:href="#DejaVuSans-6e" transform="translate(1659.224609 0)"/>
     <use xlink:href="#DejaVuSans-63" transform="translate(1722.603516 0)"/>
     <use xlink:href="#DejaVuSans-65" transform="translate(1777.583984 0)"/>
     <use xlink:href="#DejaVuSans-20" transform="translate(1839.107422 0)"/>
     <use xlink:href="#DejaVuSans-69" transform="translate(1870.894531 0)"/>
     <use xlink:href="#DejaVuSans-6e" transform="translate(1898.677734 0)"/>
     <use xlink:href="#DejaVuSans-74" transform="translate(1962.056641 0)"/>
     <use xlink:href="#DejaVuSans-65" transform="translate(2001.265625 0)"/>
     <use xlink:href="#DejaVuSans-72" transform="translate(2062.789062 0)"/>
     <use xlink:href="#DejaVuSans-76" transform="translate(2103.902344 0)"/>
     <use xlink:href="#DejaVuSans-61" transform="translate(2163.082031 0)"/>
     <use xlink:href="#DejaVuSans-6c" transform="translate(2224.361328 0)"/>
     <use xlink:href="#DejaVuSans-20" transform="translate(2252.144531 0)"/>
     <use xlink:href="#DejaVuSans-70" transform="translate(2283.931641 0)"/>
     <use xlink:href="#DejaVuSans-65" transform="translate(2347.408203 0)"/>
     <use xlink:href="#DejaVuSans-72" transform="translate(2408.931641 0)"/>
     <use xlink:href="#DejaVuSans-20" transform="translate(2450.044922 0)"/>
     <use xlink:href="#DejaVuSans-73" transform="translate(2481.832031 0)"/>
     <use xlink:href="#DejaVuSans-69" transform="translate(2533.931641 0)"/>
     <use xlink:href="#DejaVuSans-6d" transform="translate(2561.714844 0)"/>
     <use xlink:href="#DejaVuSans-75" transform="translate(2659.126953 0)"/>
     <use xlink:href="#DejaVuSans-6c" transform="translate(2722.505859 0)"/>
     <use xlink:href="#DejaVuSans-61" transform="translate(2750.289062 0)"/>
     <use xlink:href="#DejaVuSans-74" transform="translate(2811.568359 0)"/>
     <use xlink:href="#DejaVuSans-69" transform="translate(2850.777344 0)"/>
     <use xlink:href="#DejaVuSans-6f" transform="translate(2878.560547 0)"/>
     <use xlink:href="#DejaVuSans-6e" transform="translate(2939.742188 0)"/>
     <use xlink:href="#DejaVuSans-20" transform="translate(3003.121094 0)"/>
     <use xlink:href="#DejaVuSans-73" transform="translate(3034.908203 0)"/>
     <use xlink:href="#DejaVuSans-74" transform="translate(3087.007812 0)"/>
     <use xlink:href="#DejaVuSans-65" transform="translate(3126.216797 0)"/>
     <use xlink:href="#DejaVuSans-70" transform="translate(3187.740234 0)"/>
    </g>
    <!-- Base Product: Green Crack, Recipe size: 9, T0: 10.0 -->
    <g transform="translate(268.031437 37.44) scale(0.14 -0.14)">
     <defs>
      <path id="DejaVuSans-42" d="M 1259 2228 
L 1259 519 
L 2272 519 
Q 2781 519 3026 730 
Q 3272 941 3272 1375 
Q 3272 1813 3026 2020 
Q 2781 2228 2272 2228 
L 1259 2228 
z
M 1259 4147 
L 1259 2741 
L 2194 2741 
Q 2656 2741 2882 2914 
Q 3109 3088 3109 3444 
Q 3109 3797 2882 3972 
Q 2656 4147 2194 4147 
L 1259 4147 
z
M 628 4666 
L 2241 4666 
Q 2963 4666 3353 4366 
Q 3744 4066 3744 3513 
Q 3744 3084 3544 2831 
Q 3344 2578 2956 2516 
Q 3422 2416 3680 2098 
Q 3938 1781 3938 1306 
Q 3938 681 3513 340 
Q 3088 0 2303 0 
L 628 0 
L 628 4666 
z
" transform="scale(0.015625)"/>
      <path id="DejaVuSans-3a" d="M 750 794 
L 1409 794 
L 1409 0 
L 750 0 
L 750 794 
z
M 750 3309 
L 1409 3309 
L 1409 2516 
L 750 2516 
L 750 3309 
z
" transform="scale(0.015625)"/>
      <path id="DejaVuSans-47" d="M 3809 666 
L 3809 1919 
L 2778 1919 
L 2778 2438 
L 4434 2438 
L 4434 434 
Q 4069 175 3628 42 
Q 3188 -91 2688 -91 
Q 1594 -91 976 548 
Q 359 1188 359 2328 
Q 359 3472 976 4111 
Q 1594 4750 2688 4750 
Q 3144 4750 3555 4637 
Q 3966 4525 4313 4306 
L 4313 3634 
Q 3963 3931 3569 4081 
Q 3175 4231 2741 4231 
Q 1884 4231 1454 3753 
Q 1025 3275 1025 2328 
Q 1025 1384 1454 906 
Q 1884 428 2741 428 
Q 3075 428 3337 486 
Q 3600 544 3809 666 
z
" transform="scale(0.015625)"/>
      <path id="DejaVuSans-43" d="M 4122 4306 
L 4122 3641 
Q 3803 3938 3442 4084 
Q 3081 4231 2675 4231 
Q 1875 4231 1450 3742 
Q 1025 3253 1025 2328 
Q 1025 1406 1450 917 
Q 1875 428 2675 428 
Q 3081 428 3442 575 
Q 3803 722 4122 1019 
L 4122 359 
Q 3791 134 3420 21 
Q 3050 -91 2638 -91 
Q 1578 -91 968 557 
Q 359 1206 359 2328 
Q 359 3453 968 4101 
Q 1578 4750 2638 4750 
Q 3056 4750 3426 4639 
Q 3797 4528 4122 4306 
z
" transform="scale(0.015625)"/>
      <path id="DejaVuSans-6b" d="M 581 4863 
L 1159 4863 
L 1159 1991 
L 2875 3500 
L 3609 3500 
L 1753 1863 
L 3688 0 
L 2938 0 
L 1159 1709 
L 1159 0 
L 581 0 
L 581 4863 
z
" transform="scale(0.015625)"/>
      <path id="DejaVuSans-2c" d="M 750 794 
L 1409 794 
L 1409 256 
L 897 -744 
L 494 -744 
L 750 256 
L 750 794 
z
" transform="scale(0.015625)"/>
      <path id="DejaVuSans-52" d="M 2841 2188 
Q 3044 2119 3236 1894 
Q 3428 1669 3622 1275 
L 4263 0 
L 3584 0 
L 2988 1197 
Q 2756 1666 2539 1819 
Q 2322 1972 1947 1972 
L 1259 1972 
L 1259 0 
L 628 0 
L 628 4666 
L 2053 4666 
Q 2853 4666 3247 4331 
Q 3641 3997 3641 3322 
Q 3641 2881 3436 2590 
Q 3231 2300 2841 2188 
z
M 1259 4147 
L 1259 2491 
L 2053 2491 
Q 2509 2491 2742 2702 
Q 2975 2913 2975 3322 
Q 2975 3731 2742 3939 
Q 2509 4147 2053 4147 
L 1259 4147 
z
" transform="scale(0.015625)"/>
      <path id="DejaVuSans-7a" d="M 353 3500 
L 3084 3500 
L 3084 2975 
L 922 459 
L 3084 459 
L 3084 0 
L 275 0 
L 275 525 
L 2438 3041 
L 353 3041 
L 353 3500 
z
" transform="scale(0.015625)"/>
      <path id="DejaVuSans-39" d="M 703 97 
L 703 672 
Q 941 559 1184 500 
Q 1428 441 1663 441 
Q 2288 441 2617 861 
Q 2947 1281 2994 2138 
Q 2813 1869 2534 1725 
Q 2256 1581 1919 1581 
Q 1219 1581 811 2004 
Q 403 2428 403 3163 
Q 403 3881 828 4315 
Q 1253 4750 1959 4750 
Q 2769 4750 3195 4129 
Q 3622 3509 3622 2328 
Q 3622 1225 3098 567 
Q 2575 -91 1691 -91 
Q 1453 -91 1209 -44 
Q 966 3 703 97 
z
M 1959 2075 
Q 2384 2075 2632 2365 
Q 2881 2656 2881 3163 
Q 2881 3666 2632 3958 
Q 2384 4250 1959 4250 
Q 1534 4250 1286 3958 
Q 1038 3666 1038 3163 
Q 1038 2656 1286 2365 
Q 1534 2075 1959 2075 
z
" transform="scale(0.015625)"/>
      <path id="DejaVuSans-54" d="M -19 4666 
L 3928 4666 
L 3928 4134 
L 2272 4134 
L 2272 0 
L 1638 0 
L 1638 4134 
L -19 4134 
L -19 4666 
z
" transform="scale(0.015625)"/>
      <path id="DejaVuSans-2e" d="M 684 794 
L 1344 794 
L 1344 0 
L 684 0 
L 684 794 
z
" transform="scale(0.015625)"/>
     </defs>
     <use xlink:href="#DejaVuSans-42"/>
     <use xlink:href="#DejaVuSans-61" transform="translate(68.603516 0)"/>
     <use xlink:href="#DejaVuSans-73" transform="translate(129.882812 0)"/>
     <use xlink:href="#DejaVuSans-65" transform="translate(181.982422 0)"/>
     <use xlink:href="#DejaVuSans-20" transform="translate(243.505859 0)"/>
     <use xlink:href="#DejaVuSans-50" transform="translate(275.292969 0)"/>
     <use xlink:href="#DejaVuSans-72" transform="translate(333.845703 0)"/>
     <use xlink:href="#DejaVuSans-6f" transform="translate(372.708984 0)"/>
     <use xlink:href="#DejaVuSans-64" transform="translate(433.890625 0)"/>
     <use xlink:href="#DejaVuSans-75" transform="translate(497.367188 0)"/>
     <use xlink:href="#DejaVuSans-63" transform="translate(560.746094 0)"/>
     <use xlink:href="#DejaVuSans-74" transform="translate(615.726562 0)"/>
     <use xlink:href="#DejaVuSans-3a" transform="translate(654.935547 0)"/>
     <use xlink:href="#DejaVuSans-20" transform="translate(688.626953 0)"/>
     <use xlink:href="#DejaVuSans-47" transform="translate(720.414062 0)"/>
     <use xlink:href="#DejaVuSans-72" transform="translate(797.904297 0)"/>
     <use xlink:href="#DejaVuSans-65" transform="translate(836.767578 0)"/>
     <use xlink:href="#DejaVuSans-65" transform="translate(898.291016 0)"/>
     <use xlink:href="#DejaVuSans-6e" transform="translate(959.814453 0)"/>
     <use xlink:href="#DejaVuSans-20" transform="translate(1023.193359 0)"/>
     <use xlink:href="#DejaVuSans-43" transform="translate(1054.980469 0)"/>
     <use xlink:href="#DejaVuSans-72" transform="translate(1124.804688 0)"/>
     <use xlink:href="#DejaVuSans-61" transform="translate(1165.917969 0)"/>
     <use xlink:href="#DejaVuSans-63" transform="translate(1227.197266 0)"/>
     <use xlink:href="#DejaVuSans-6b" transform="translate(1282.177734 0)"/>
     <use xlink:href="#DejaVuSans-2c" transform="translate(1340.087891 0)"/>
     <use xlink:href="#DejaVuSans-20" transform="translate(1371.875 0)"/>
     <use xlink:href="#DejaVuSans-52" transform="translate(1403.662109 0)"/>
     <use xlink:href="#DejaVuSans-65" transform="translate(1468.644531 0)"/>
     <use xlink:href="#DejaVuSans-63" transform="translate(1530.167969 0)"/>
     <use xlink:href="#DejaVuSans-69" transform="translate(1585.148438 0)"/>
     <use xlink:href="#DejaVuSans-70" transform="translate(1612.931641 0)"/>
     <use xlink:href="#DejaVuSans-65" transform="translate(1676.408203 0)"/>
     <use xlink:href="#DejaVuSans-20" transform="translate(1737.931641 0)"/>
     <use xlink:href="#DejaVuSans-73" transform="translate(1769.71875 0)"/>
     <use xlink:href="#DejaVuSans-69" transform="translate(1821.818359 0)"/>
     <use xlink:href="#DejaVuSans-7a" transform="translate(1849.601562 0)"/>
     <use xlink:href="#DejaVuSans-65" transform="translate(1902.091797 0)"/>
     <use xlink:href="#DejaVuSans-3a" transform="translate(1963.615234 0)"/>
     <use xlink:href="#DejaVuSans-20" transform="translate(1997.306641 0)"/>
     <use xlink:href="#DejaVuSans-39" transform="translate(2029.09375 0)"/>
     <use xlink:href="#DejaVuSans-2c" transform="translate(2092.716797 0)"/>
     <use xlink:href="#DejaVuSans-20" transform="translate(2124.503906 0)"/>
     <use xlink:href="#DejaVuSans-54" transform="translate(2156.291016 0)"/>
     <use xlink:href="#DejaVuSans-30" transform="translate(2217.375 0)"/>
     <use xlink:href="#DejaVuSans-3a" transform="translate(2280.998047 0)"/>
     <use xlink:href="#DejaVuSans-20" transform="translate(2314.689453 0)"/>
     <use xlink:href="#DejaVuSans-31" transform="translate(2346.476562 0)"/>
     <use xlink:href="#DejaVuSans-30" transform="translate(2410.099609 0)"/>
     <use xlink:href="#DejaVuSans-2e" transform="translate(2473.722656 0)"/>
     <use xlink:href="#DejaVuSans-30" transform="translate(2505.509766 0)"/>
    </g>
   </g>
  </g>
 </g>
 <defs>
  <clipPath id="p25fbf389c1">
   <rect x="50.87" y="43.44" width="793.996" height="346.6"/>
  </clipPath>
 </defs>
</svg>
