<?xml version="1.0" encoding="utf-8" standalone="no"?>
<!DOCTYPE svg PUBLIC "-//W3C//DTD SVG 1.1//EN"
  "http://www.w3.org/Graphics/SVG/1.1/DTD/svg11.dtd">
<svg xmlns:xlink="http://www.w3.org/1999/xlink" width="864pt" height="432pt" viewBox="0 0 864 432" xmlns="http://www.w3.org/2000/svg" version="1.1">
 <metadata>
  <rdf:RDF xmlns:dc="http://purl.org/dc/elements/1.1/" xmlns:cc="http://creativecommons.org/ns#" xmlns:rdf="http://www.w3.org/1999/02/22-rdf-syntax-ns#">
   <cc:Work>
    <dc:type rdf:resource="http://purl.org/dc/dcmitype/StillImage"/>
    <dc:date>2025-05-24T02:11:25.017767</dc:date>
    <dc:format>image/svg+xml</dc:format>
    <dc:creator>
     <cc:Agent>
      <dc:title>Matplotlib v3.10.3, https://matplotlib.org/</dc:title>
     </cc:Agent>
    </dc:creator>
   </cc:Work>
  </rdf:RDF>
 </metadata>
 <defs>
  <style type="text/css">*{stroke-linejoin: round; stroke-linecap: butt}</style>
 </defs>
 <g id="figure_1">
  <g id="patch_1">
   <path d="M 0 432 
L 864 432 
L 864 0 
L 0 0 
z
" style="fill: #ffffff"/>
  </g>
  <g id="axes_1">
   <g id="patch_2">
    <path d="M 50.87 390.04 
L 844.866 390.04 
L 844.866 43.44 
L 50.87 43.44 
z
" style="fill: #ffffff"/>
   </g>
   <g id="FillBetweenPolyCollection_1">
    <defs>
     <path id="mb43926fcf4" d="M 52.193327 -329.201653 
L 52.193327 -57.714545 
L 54.83998 -58.521204 
L 57.486633 -61.137992 
L 60.133287 -65.444026 
L 62.77994 -69.902211 
L 65.426593 -72.497769 
L 68.073247 -76.631273 
L 70.7199 -80.765476 
L 73.366553 -82.438291 
L 76.013207 -85.535124 
L 78.65986 -85.931227 
L 81.306513 -87.141489 
L 83.953167 -87.885727 
L 86.59982 -90.933321 
L 89.246473 -93.3887 
L 91.893127 -96.075874 
L 94.53978 -97.173022 
L 97.186433 -97.997987 
L 99.833087 -98.998232 
L 102.47974 -99.134742 
L 105.126393 -100.373058 
L 107.773047 -101.721262 
L 110.4197 -101.836286 
L 113.066353 -102.87481 
L 115.713007 -102.877419 
L 118.35966 -104.025702 
L 121.006313 -104.844368 
L 123.652967 -106.138734 
L 126.29962 -108.098044 
L 128.946273 -109.67307 
L 131.592927 -110.441566 
L 134.23958 -110.963279 
L 136.886233 -112.649254 
L 139.532887 -112.096039 
L 142.17954 -111.935609 
L 144.826193 -111.889026 
L 147.472847 -112.184406 
L 150.1195 -112.155246 
L 152.766153 -112.425995 
L 155.412807 -112.474907 
L 158.05946 -113.516936 
L 160.706113 -115.323978 
L 163.352767 -115.442554 
L 165.99942 -115.288017 
L 168.646073 -114.51548 
L 171.292727 -115.008498 
L 173.93938 -116.108149 
L 176.586033 -117.318388 
L 179.232687 -116.568898 
L 181.87934 -117.203445 
L 184.525993 -115.847567 
L 187.172647 -117.5053 
L 189.8193 -116.883493 
L 192.465953 -117.908671 
L 195.112607 -118.834418 
L 197.75926 -119.755472 
L 200.405913 -120.269545 
L 203.052567 -120.175809 
L 205.69922 -122.301733 
L 208.345873 -122.403341 
L 210.992527 -123.761619 
L 213.63918 -122.882967 
L 216.285833 -122.953505 
L 218.932487 -124.135864 
L 221.57914 -123.291461 
L 224.225793 -122.387177 
L 226.872447 -122.653362 
L 229.5191 -124.858068 
L 232.165753 -125.095919 
L 234.812407 -125.791629 
L 237.45906 -125.450284 
L 240.105713 -125.066211 
L 242.752367 -125.750392 
L 245.39902 -125.369137 
L 248.045673 -124.520146 
L 250.692327 -125.250724 
L 253.33898 -124.747784 
L 255.985633 -125.875501 
L 258.632287 -126.276857 
L 261.27894 -126.869771 
L 263.925593 -124.945725 
L 266.572247 -125.379944 
L 269.2189 -125.614837 
L 271.865553 -125.244051 
L 274.512207 -124.695972 
L 277.15886 -124.994695 
L 279.805513 -126.239858 
L 282.452167 -126.800887 
L 285.09882 -126.211385 
L 287.745473 -127.013944 
L 290.392127 -127.842904 
L 293.03878 -127.01646 
L 295.685433 -126.943849 
L 298.332087 -127.228201 
L 300.97874 -127.825762 
L 303.625393 -128.63744 
L 306.272047 -128.735019 
L 308.9187 -129.124647 
L 311.565353 -128.582496 
L 314.212007 -128.666904 
L 316.85866 -128.525386 
L 319.505313 -129.205631 
L 322.151967 -128.861735 
L 324.79862 -129.109636 
L 327.445273 -130.920347 
L 330.091927 -130.55854 
L 332.73858 -129.588109 
L 335.385233 -129.252668 
L 338.031887 -130.078309 
L 340.67854 -130.222296 
L 343.325193 -130.115389 
L 345.971847 -130.490763 
L 348.6185 -131.855935 
L 351.265153 -130.733889 
L 353.911807 -131.866474 
L 356.55846 -131.178869 
L 359.205113 -132.648549 
L 361.851767 -132.40618 
L 364.49842 -132.552472 
L 367.145073 -132.018356 
L 369.791727 -132.397131 
L 372.43838 -132.494523 
L 375.085033 -132.447405 
L 377.731687 -131.843357 
L 380.37834 -131.97599 
L 383.024993 -131.723046 
L 385.671647 -132.348033 
L 388.3183 -132.567507 
L 390.964953 -133.105815 
L 393.611607 -132.882696 
L 396.25826 -133.973077 
L 398.904913 -134.560996 
L 401.551567 -134.444994 
L 404.19822 -134.673714 
L 406.844873 -134.960069 
L 409.491527 -134.879097 
L 412.13818 -135.050975 
L 414.784833 -134.615929 
L 417.431487 -134.066685 
L 420.07814 -133.484787 
L 422.724793 -134.618083 
L 425.371447 -133.577219 
L 428.0181 -134.231634 
L 430.664753 -135.050486 
L 433.311407 -135.821253 
L 435.95806 -135.564722 
L 438.604713 -134.644763 
L 441.251367 -134.95003 
L 443.89802 -134.579187 
L 446.544673 -134.840887 
L 449.191327 -134.924259 
L 451.83798 -136.275048 
L 454.484633 -135.612633 
L 457.131287 -136.353726 
L 459.77794 -136.166278 
L 462.424593 -136.116365 
L 465.071247 -136.978853 
L 467.7179 -136.908036 
L 470.364553 -136.020836 
L 473.011207 -136.092992 
L 475.65786 -135.789565 
L 478.304513 -137.613203 
L 480.951167 -137.903645 
L 483.59782 -137.815161 
L 486.244473 -137.759577 
L 488.891127 -137.952766 
L 491.53778 -138.76795 
L 494.184433 -137.892279 
L 496.831087 -137.906417 
L 499.47774 -138.007629 
L 502.124393 -138.514505 
L 504.771047 -137.548266 
L 507.4177 -137.499122 
L 510.064353 -137.880505 
L 512.711007 -138.217169 
L 515.35766 -138.422307 
L 518.004313 -138.373616 
L 520.650967 -138.619037 
L 523.29762 -139.29686 
L 525.944273 -138.605388 
L 528.590927 -138.736169 
L 531.23758 -138.219871 
L 533.884233 -138.436293 
L 536.530887 -138.700568 
L 539.17754 -139.545389 
L 541.824193 -139.98096 
L 544.470847 -139.657746 
L 547.1175 -140.502009 
L 549.764153 -140.126705 
L 552.410807 -139.46748 
L 555.05746 -138.376912 
L 557.704113 -138.844892 
L 560.350767 -138.363601 
L 562.99742 -138.570847 
L 565.644073 -139.154934 
L 568.290727 -138.438657 
L 570.93738 -138.400052 
L 573.584033 -138.829322 
L 576.230687 -137.874298 
L 578.87734 -138.877873 
L 581.523993 -138.858029 
L 584.170647 -139.933795 
L 586.8173 -139.374245 
L 589.463953 -139.594988 
L 592.110607 -139.034891 
L 594.75726 -139.088216 
L 597.403913 -140.618512 
L 600.050567 -140.581374 
L 602.69722 -140.796981 
L 605.343873 -141.309448 
L 607.990527 -142.0431 
L 610.63718 -142.596862 
L 613.283833 -142.745973 
L 615.930487 -142.015139 
L 618.57714 -142.080914 
L 621.223793 -141.650875 
L 623.870447 -142.00156 
L 626.5171 -142.005869 
L 629.163753 -141.495347 
L 631.810407 -141.935855 
L 634.45706 -141.547357 
L 637.103713 -141.772234 
L 639.750367 -141.04515 
L 642.39702 -142.374267 
L 645.043673 -142.164413 
L 647.690327 -140.286437 
L 650.33698 -141.133238 
L 652.983633 -142.086783 
L 655.630287 -142.273602 
L 658.27694 -141.967636 
L 660.923593 -141.672885 
L 663.570247 -141.153408 
L 666.2169 -139.914265 
L 668.863553 -140.19687 
L 671.510207 -140.896924 
L 674.15686 -140.430458 
L 676.803513 -140.609172 
L 679.450167 -140.938313 
L 682.09682 -141.518545 
L 684.743473 -141.572395 
L 687.390127 -141.417345 
L 690.03678 -142.0184 
L 692.683433 -141.944939 
L 695.330087 -142.687733 
L 697.97674 -142.805785 
L 700.623393 -142.657652 
L 703.270047 -142.172239 
L 705.9167 -142.238549 
L 708.563353 -141.728423 
L 711.210007 -141.443082 
L 713.85666 -142.382722 
L 716.503313 -142.042506 
L 719.149967 -141.732639 
L 721.79662 -143.350487 
L 724.443273 -143.033259 
L 727.089927 -142.849549 
L 729.73658 -143.349636 
L 732.383233 -142.962035 
L 735.029887 -142.177537 
L 737.67654 -141.833979 
L 740.323193 -143.250672 
L 742.969847 -143.365498 
L 745.6165 -142.754649 
L 748.263153 -142.815451 
L 750.909807 -142.987923 
L 753.55646 -142.81955 
L 756.203113 -143.129441 
L 758.849767 -143.889156 
L 761.49642 -144.998322 
L 764.143073 -143.265508 
L 766.789727 -142.626442 
L 769.43638 -143.248529 
L 772.083033 -144.20615 
L 774.729687 -143.845706 
L 777.37634 -143.178981 
L 780.022993 -143.202599 
L 782.669647 -143.822426 
L 785.3163 -144.527244 
L 787.962953 -144.002712 
L 790.609607 -143.382827 
L 793.25626 -144.392154 
L 795.902913 -144.837984 
L 798.549567 -145.086072 
L 801.19622 -144.827434 
L 803.842873 -145.036484 
L 806.489527 -145.54831 
L 809.13618 -146.266392 
L 811.782833 -144.674014 
L 814.429487 -144.959146 
L 817.07614 -144.957737 
L 819.722793 -145.268873 
L 822.369447 -145.903223 
L 825.0161 -145.062501 
L 827.662753 -144.76379 
L 830.309407 -145.333891 
L 832.95606 -145.590444 
L 835.602713 -145.119401 
L 838.249367 -144.898204 
L 840.89602 -144.990822 
L 843.542673 -145.237768 
L 843.542673 -371.814597 
L 843.542673 -371.814597 
L 840.89602 -372.604241 
L 838.249367 -372.594366 
L 835.602713 -372.733298 
L 832.95606 -372.805455 
L 830.309407 -372.466124 
L 827.662753 -372.458414 
L 825.0161 -372.119317 
L 822.369447 -371.450624 
L 819.722793 -371.817741 
L 817.07614 -371.634765 
L 814.429487 -371.996059 
L 811.782833 -371.966712 
L 809.13618 -370.910266 
L 806.489527 -371.15529 
L 803.842873 -371.41422 
L 801.19622 -371.75942 
L 798.549567 -371.715399 
L 795.902913 -371.768037 
L 793.25626 -372.021749 
L 790.609607 -372.241736 
L 787.962953 -371.956743 
L 785.3163 -371.199474 
L 782.669647 -371.693179 
L 780.022993 -371.82757 
L 777.37634 -372.21537 
L 774.729687 -371.519659 
L 772.083033 -371.351939 
L 769.43638 -371.558882 
L 766.789727 -372.134339 
L 764.143073 -371.499838 
L 761.49642 -370.037448 
L 758.849767 -371.127178 
L 756.203113 -371.238044 
L 753.55646 -371.684002 
L 750.909807 -372.189074 
L 748.263153 -372.266331 
L 745.6165 -371.402457 
L 742.969847 -371.392768 
L 740.323193 -371.486725 
L 737.67654 -372.308931 
L 735.029887 -372.662656 
L 732.383233 -372.015111 
L 729.73658 -371.436859 
L 727.089927 -371.056954 
L 724.443273 -370.524562 
L 721.79662 -370.128051 
L 719.149967 -371.709949 
L 716.503313 -372.013621 
L 713.85666 -371.768527 
L 711.210007 -372.567814 
L 708.563353 -372.204539 
L 705.9167 -371.359299 
L 703.270047 -371.72616 
L 700.623393 -370.722608 
L 697.97674 -370.689348 
L 695.330087 -370.786636 
L 692.683433 -370.903907 
L 690.03678 -370.804314 
L 687.390127 -370.976809 
L 684.743473 -370.747506 
L 682.09682 -371.401339 
L 679.450167 -371.836095 
L 676.803513 -371.621628 
L 674.15686 -372.105249 
L 671.510207 -371.628546 
L 668.863553 -371.814294 
L 666.2169 -372.068239 
L 663.570247 -370.855275 
L 660.923593 -370.51832 
L 658.27694 -370.037635 
L 655.630287 -370.03279 
L 652.983633 -370.165434 
L 650.33698 -370.495192 
L 647.690327 -370.74392 
L 645.043673 -369.479203 
L 642.39702 -369.612196 
L 639.750367 -371.457355 
L 637.103713 -370.097167 
L 634.45706 -370.213041 
L 631.810407 -369.669935 
L 629.163753 -369.554993 
L 626.5171 -369.762029 
L 623.870447 -370.103549 
L 621.223793 -370.006378 
L 618.57714 -369.694344 
L 615.930487 -369.826359 
L 613.283833 -369.760026 
L 610.63718 -369.193675 
L 607.990527 -368.524773 
L 605.343873 -369.194583 
L 602.69722 -369.259752 
L 600.050567 -368.82707 
L 597.403913 -368.586541 
L 594.75726 -369.495344 
L 592.110607 -369.121216 
L 589.463953 -368.594157 
L 586.8173 -368.666663 
L 584.170647 -368.617518 
L 581.523993 -369.093453 
L 578.87734 -368.999123 
L 576.230687 -369.725205 
L 573.584033 -369.229101 
L 570.93738 -369.659827 
L 568.290727 -369.482091 
L 565.644073 -368.986452 
L 562.99742 -369.311832 
L 560.350767 -370.061764 
L 557.704113 -369.689477 
L 555.05746 -369.933243 
L 552.410807 -368.85276 
L 549.764153 -368.568048 
L 547.1175 -368.582116 
L 544.470847 -368.848708 
L 541.824193 -368.96577 
L 539.17754 -369.281553 
L 536.530887 -370.337254 
L 533.884233 -369.703288 
L 531.23758 -369.45151 
L 528.590927 -369.303959 
L 525.944273 -369.494365 
L 523.29762 -368.919164 
L 520.650967 -368.842536 
L 518.004313 -368.755356 
L 515.35766 -368.328893 
L 512.711007 -368.656764 
L 510.064353 -368.438408 
L 507.4177 -369.238418 
L 504.771047 -369.051249 
L 502.124393 -368.152694 
L 499.47774 -367.770787 
L 496.831087 -367.981876 
L 494.184433 -368.339048 
L 491.53778 -367.194328 
L 488.891127 -367.986534 
L 486.244473 -367.434834 
L 483.59782 -367.39419 
L 480.951167 -367.019736 
L 478.304513 -366.829679 
L 475.65786 -367.617833 
L 473.011207 -367.545514 
L 470.364553 -367.164888 
L 467.7179 -365.948104 
L 465.071247 -366.114357 
L 462.424593 -367.233038 
L 459.77794 -366.880058 
L 457.131287 -366.579741 
L 454.484633 -366.966632 
L 451.83798 -366.59679 
L 449.191327 -367.307337 
L 446.544673 -366.961648 
L 443.89802 -367.479087 
L 441.251367 -367.210818 
L 438.604713 -367.281624 
L 435.95806 -366.693658 
L 433.311407 -366.513197 
L 430.664753 -366.44167 
L 428.0181 -367.321452 
L 425.371447 -368.004841 
L 422.724793 -366.843235 
L 420.07814 -367.268441 
L 417.431487 -366.652107 
L 414.784833 -366.134714 
L 412.13818 -365.628035 
L 409.491527 -365.550056 
L 406.844873 -365.435719 
L 404.19822 -366.153627 
L 401.551567 -366.57245 
L 398.904913 -366.424667 
L 396.25826 -366.848056 
L 393.611607 -367.613338 
L 390.964953 -366.977952 
L 388.3183 -366.857443 
L 385.671647 -366.794975 
L 383.024993 -367.073656 
L 380.37834 -367.17651 
L 377.731687 -367.014519 
L 375.085033 -366.109257 
L 372.43838 -366.081983 
L 369.791727 -366.161406 
L 367.145073 -365.629712 
L 364.49842 -365.442823 
L 361.851767 -365.921156 
L 359.205113 -365.681396 
L 356.55846 -365.92302 
L 353.911807 -365.13624 
L 351.265153 -365.964827 
L 348.6185 -365.191976 
L 345.971847 -366.133456 
L 343.325193 -365.940628 
L 340.67854 -365.486401 
L 338.031887 -365.281298 
L 335.385233 -365.414221 
L 332.73858 -365.477807 
L 330.091927 -364.424947 
L 327.445273 -364.128775 
L 324.79862 -365.163188 
L 322.151967 -365.324829 
L 319.505313 -364.950981 
L 316.85866 -365.155898 
L 314.212007 -364.901045 
L 311.565353 -364.152602 
L 308.9187 -363.309155 
L 306.272047 -363.280786 
L 303.625393 -363.148538 
L 300.97874 -364.030836 
L 298.332087 -364.036425 
L 295.685433 -364.605874 
L 293.03878 -364.059833 
L 290.392127 -363.316352 
L 287.745473 -363.978127 
L 285.09882 -364.847917 
L 282.452167 -364.228602 
L 279.805513 -363.955139 
L 277.15886 -364.240993 
L 274.512207 -364.119901 
L 271.865553 -363.886732 
L 269.2189 -363.637283 
L 266.572247 -363.031034 
L 263.925593 -362.742478 
L 261.27894 -361.144649 
L 258.632287 -361.610615 
L 255.985633 -361.176838 
L 253.33898 -362.216235 
L 250.692327 -361.585111 
L 248.045673 -362.136905 
L 245.39902 -360.872724 
L 242.752367 -360.477214 
L 240.105713 -360.921729 
L 237.45906 -360.812725 
L 234.812407 -360.364158 
L 232.165753 -360.388894 
L 229.5191 -360.283804 
L 226.872447 -361.876135 
L 224.225793 -361.505245 
L 221.57914 -361.036694 
L 218.932487 -360.497361 
L 216.285833 -361.203506 
L 213.63918 -361.259615 
L 210.992527 -360.247492 
L 208.345873 -360.712549 
L 205.69922 -359.629691 
L 203.052567 -360.962372 
L 200.405913 -361.536828 
L 197.75926 -361.367384 
L 195.112607 -361.079387 
L 192.465953 -361.007417 
L 189.8193 -361.369923 
L 187.172647 -360.503743 
L 184.525993 -361.631693 
L 181.87934 -360.377504 
L 179.232687 -360.853159 
L 176.586033 -359.323411 
L 173.93938 -360.118319 
L 171.292727 -360.221243 
L 168.646073 -360.431144 
L 165.99942 -359.17423 
L 163.352767 -358.526942 
L 160.706113 -357.51617 
L 158.05946 -358.774016 
L 155.412807 -358.716207 
L 152.766153 -358.227509 
L 150.1195 -357.956189 
L 147.472847 -357.758493 
L 144.826193 -357.578404 
L 142.17954 -356.674423 
L 139.532887 -355.913823 
L 136.886233 -354.71339 
L 134.23958 -354.669439 
L 131.592927 -353.637146 
L 128.946273 -353.866216 
L 126.29962 -354.174103 
L 123.652967 -355.189604 
L 121.006313 -354.818131 
L 118.35966 -353.908676 
L 115.713007 -354.509102 
L 113.066353 -353.225193 
L 110.4197 -352.236804 
L 107.773047 -352.133973 
L 105.126393 -351.894003 
L 102.47974 -351.711772 
L 99.833087 -350.851229 
L 97.186433 -350.464198 
L 94.53978 -349.866217 
L 91.893127 -348.90459 
L 89.246473 -349.319664 
L 86.59982 -349.012871 
L 83.953167 -348.674426 
L 81.306513 -346.856052 
L 78.65986 -345.367366 
L 76.013207 -342.383589 
L 73.366553 -341.179965 
L 70.7199 -339.985029 
L 68.073247 -339.123811 
L 65.426593 -338.648063 
L 62.77994 -335.947485 
L 60.133287 -334.601062 
L 57.486633 -332.99783 
L 54.83998 -329.977975 
L 52.193327 -329.201653 
z
" style="stroke: #0000ff; stroke-opacity: 0.2"/>
    </defs>
    <g clip-path="url(#pf8ec119c3b)">
     <use xlink:href="#mb43926fcf4" x="0" y="432" style="fill: #0000ff; fill-opacity: 0.2; stroke: #0000ff; stroke-opacity: 0.2"/>
    </g>
   </g>
   <g id="matplotlib.axis_1">
    <g id="xtick_1">
     <g id="line2d_1">
      <defs>
       <path id="me29618ab0b" d="M 0 0 
L 0 3.5 
" style="stroke: #000000; stroke-width: 0.8"/>
      </defs>
      <g>
       <use xlink:href="#me29618ab0b" x="181.87934" y="390.04" style="stroke: #000000; stroke-width: 0.8"/>
      </g>
     </g>
     <g id="text_1">
      <!-- 50 -->
      <g transform="translate(175.51684 404.638438) scale(0.1 -0.1)">
       <defs>
        <path id="DejaVuSans-35" d="M 691 4666 
L 3169 4666 
L 3169 4134 
L 1269 4134 
L 1269 2991 
Q 1406 3038 1543 3061 
Q 1681 3084 1819 3084 
Q 2600 3084 3056 2656 
Q 3513 2228 3513 1497 
Q 3513 744 3044 326 
Q 2575 -91 1722 -91 
Q 1428 -91 1123 -41 
Q 819 9 494 109 
L 494 744 
Q 775 591 1075 516 
Q 1375 441 1709 441 
Q 2250 441 2565 725 
Q 2881 1009 2881 1497 
Q 2881 1984 2565 2268 
Q 2250 2553 1709 2553 
Q 1456 2553 1204 2497 
Q 953 2441 691 2322 
L 691 4666 
z
" transform="scale(0.015625)"/>
        <path id="DejaVuSans-30" d="M 2034 4250 
Q 1547 4250 1301 3770 
Q 1056 3291 1056 2328 
Q 1056 1369 1301 889 
Q 1547 409 2034 409 
Q 2525 409 2770 889 
Q 3016 1369 3016 2328 
Q 3016 3291 2770 3770 
Q 2525 4250 2034 4250 
z
M 2034 4750 
Q 2819 4750 3233 4129 
Q 3647 3509 3647 2328 
Q 3647 1150 3233 529 
Q 2819 -91 2034 -91 
Q 1250 -91 836 529 
Q 422 1150 422 2328 
Q 422 3509 836 4129 
Q 1250 4750 2034 4750 
z
" transform="scale(0.015625)"/>
       </defs>
       <use xlink:href="#DejaVuSans-35"/>
       <use xlink:href="#DejaVuSans-30" transform="translate(63.623047 0)"/>
      </g>
     </g>
    </g>
    <g id="xtick_2">
     <g id="line2d_2">
      <g>
       <use xlink:href="#me29618ab0b" x="314.212007" y="390.04" style="stroke: #000000; stroke-width: 0.8"/>
      </g>
     </g>
     <g id="text_2">
      <!-- 100 -->
      <g transform="translate(304.668257 404.638438) scale(0.1 -0.1)">
       <defs>
        <path id="DejaVuSans-31" d="M 794 531 
L 1825 531 
L 1825 4091 
L 703 3866 
L 703 4441 
L 1819 4666 
L 2450 4666 
L 2450 531 
L 3481 531 
L 3481 0 
L 794 0 
L 794 531 
z
" transform="scale(0.015625)"/>
       </defs>
       <use xlink:href="#DejaVuSans-31"/>
       <use xlink:href="#DejaVuSans-30" transform="translate(63.623047 0)"/>
       <use xlink:href="#DejaVuSans-30" transform="translate(127.246094 0)"/>
      </g>
     </g>
    </g>
    <g id="xtick_3">
     <g id="line2d_3">
      <g>
       <use xlink:href="#me29618ab0b" x="446.544673" y="390.04" style="stroke: #000000; stroke-width: 0.8"/>
      </g>
     </g>
     <g id="text_3">
      <!-- 150 -->
      <g transform="translate(437.000923 404.638438) scale(0.1 -0.1)">
       <use xlink:href="#DejaVuSans-31"/>
       <use xlink:href="#DejaVuSans-35" transform="translate(63.623047 0)"/>
       <use xlink:href="#DejaVuSans-30" transform="translate(127.246094 0)"/>
      </g>
     </g>
    </g>
    <g id="xtick_4">
     <g id="line2d_4">
      <g>
       <use xlink:href="#me29618ab0b" x="578.87734" y="390.04" style="stroke: #000000; stroke-width: 0.8"/>
      </g>
     </g>
     <g id="text_4">
      <!-- 200 -->
      <g transform="translate(569.33359 404.638438) scale(0.1 -0.1)">
       <defs>
        <path id="DejaVuSans-32" d="M 1228 531 
L 3431 531 
L 3431 0 
L 469 0 
L 469 531 
Q 828 903 1448 1529 
Q 2069 2156 2228 2338 
Q 2531 2678 2651 2914 
Q 2772 3150 2772 3378 
Q 2772 3750 2511 3984 
Q 2250 4219 1831 4219 
Q 1534 4219 1204 4116 
Q 875 4013 500 3803 
L 500 4441 
Q 881 4594 1212 4672 
Q 1544 4750 1819 4750 
Q 2544 4750 2975 4387 
Q 3406 4025 3406 3419 
Q 3406 3131 3298 2873 
Q 3191 2616 2906 2266 
Q 2828 2175 2409 1742 
Q 1991 1309 1228 531 
z
" transform="scale(0.015625)"/>
       </defs>
       <use xlink:href="#DejaVuSans-32"/>
       <use xlink:href="#DejaVuSans-30" transform="translate(63.623047 0)"/>
       <use xlink:href="#DejaVuSans-30" transform="translate(127.246094 0)"/>
      </g>
     </g>
    </g>
    <g id="xtick_5">
     <g id="line2d_5">
      <g>
       <use xlink:href="#me29618ab0b" x="711.210007" y="390.04" style="stroke: #000000; stroke-width: 0.8"/>
      </g>
     </g>
     <g id="text_5">
      <!-- 250 -->
      <g transform="translate(701.666257 404.638438) scale(0.1 -0.1)">
       <use xlink:href="#DejaVuSans-32"/>
       <use xlink:href="#DejaVuSans-35" transform="translate(63.623047 0)"/>
       <use xlink:href="#DejaVuSans-30" transform="translate(127.246094 0)"/>
      </g>
     </g>
    </g>
    <g id="xtick_6">
     <g id="line2d_6">
      <g>
       <use xlink:href="#me29618ab0b" x="843.542673" y="390.04" style="stroke: #000000; stroke-width: 0.8"/>
      </g>
     </g>
     <g id="text_6">
      <!-- 300 -->
      <g transform="translate(833.998923 404.638438) scale(0.1 -0.1)">
       <defs>
        <path id="DejaVuSans-33" d="M 2597 2516 
Q 3050 2419 3304 2112 
Q 3559 1806 3559 1356 
Q 3559 666 3084 287 
Q 2609 -91 1734 -91 
Q 1441 -91 1130 -33 
Q 819 25 488 141 
L 488 750 
Q 750 597 1062 519 
Q 1375 441 1716 441 
Q 2309 441 2620 675 
Q 2931 909 2931 1356 
Q 2931 1769 2642 2001 
Q 2353 2234 1838 2234 
L 1294 2234 
L 1294 2753 
L 1863 2753 
Q 2328 2753 2575 2939 
Q 2822 3125 2822 3475 
Q 2822 3834 2567 4026 
Q 2313 4219 1838 4219 
Q 1578 4219 1281 4162 
Q 984 4106 628 3988 
L 628 4550 
Q 988 4650 1302 4700 
Q 1616 4750 1894 4750 
Q 2613 4750 3031 4423 
Q 3450 4097 3450 3541 
Q 3450 3153 3228 2886 
Q 3006 2619 2597 2516 
z
" transform="scale(0.015625)"/>
       </defs>
       <use xlink:href="#DejaVuSans-33"/>
       <use xlink:href="#DejaVuSans-30" transform="translate(63.623047 0)"/>
       <use xlink:href="#DejaVuSans-30" transform="translate(127.246094 0)"/>
      </g>
     </g>
    </g>
    <g id="text_7">
     <!-- Step -->
     <g transform="translate(436.482844 418.316562) scale(0.1 -0.1)">
      <defs>
       <path id="DejaVuSans-53" d="M 3425 4513 
L 3425 3897 
Q 3066 4069 2747 4153 
Q 2428 4238 2131 4238 
Q 1616 4238 1336 4038 
Q 1056 3838 1056 3469 
Q 1056 3159 1242 3001 
Q 1428 2844 1947 2747 
L 2328 2669 
Q 3034 2534 3370 2195 
Q 3706 1856 3706 1288 
Q 3706 609 3251 259 
Q 2797 -91 1919 -91 
Q 1588 -91 1214 -16 
Q 841 59 441 206 
L 441 856 
Q 825 641 1194 531 
Q 1563 422 1919 422 
Q 2459 422 2753 634 
Q 3047 847 3047 1241 
Q 3047 1584 2836 1778 
Q 2625 1972 2144 2069 
L 1759 2144 
Q 1053 2284 737 2584 
Q 422 2884 422 3419 
Q 422 4038 858 4394 
Q 1294 4750 2059 4750 
Q 2388 4750 2728 4690 
Q 3069 4631 3425 4513 
z
" transform="scale(0.015625)"/>
       <path id="DejaVuSans-74" d="M 1172 4494 
L 1172 3500 
L 2356 3500 
L 2356 3053 
L 1172 3053 
L 1172 1153 
Q 1172 725 1289 603 
Q 1406 481 1766 481 
L 2356 481 
L 2356 0 
L 1766 0 
Q 1100 0 847 248 
Q 594 497 594 1153 
L 594 3053 
L 172 3053 
L 172 3500 
L 594 3500 
L 594 4494 
L 1172 4494 
z
" transform="scale(0.015625)"/>
       <path id="DejaVuSans-65" d="M 3597 1894 
L 3597 1613 
L 953 1613 
Q 991 1019 1311 708 
Q 1631 397 2203 397 
Q 2534 397 2845 478 
Q 3156 559 3463 722 
L 3463 178 
Q 3153 47 2828 -22 
Q 2503 -91 2169 -91 
Q 1331 -91 842 396 
Q 353 884 353 1716 
Q 353 2575 817 3079 
Q 1281 3584 2069 3584 
Q 2775 3584 3186 3129 
Q 3597 2675 3597 1894 
z
M 3022 2063 
Q 3016 2534 2758 2815 
Q 2500 3097 2075 3097 
Q 1594 3097 1305 2825 
Q 1016 2553 972 2059 
L 3022 2063 
z
" transform="scale(0.015625)"/>
       <path id="DejaVuSans-70" d="M 1159 525 
L 1159 -1331 
L 581 -1331 
L 581 3500 
L 1159 3500 
L 1159 2969 
Q 1341 3281 1617 3432 
Q 1894 3584 2278 3584 
Q 2916 3584 3314 3078 
Q 3713 2572 3713 1747 
Q 3713 922 3314 415 
Q 2916 -91 2278 -91 
Q 1894 -91 1617 61 
Q 1341 213 1159 525 
z
M 3116 1747 
Q 3116 2381 2855 2742 
Q 2594 3103 2138 3103 
Q 1681 3103 1420 2742 
Q 1159 2381 1159 1747 
Q 1159 1113 1420 752 
Q 1681 391 2138 391 
Q 2594 391 2855 752 
Q 3116 1113 3116 1747 
z
" transform="scale(0.015625)"/>
      </defs>
      <use xlink:href="#DejaVuSans-53"/>
      <use xlink:href="#DejaVuSans-74" transform="translate(63.476562 0)"/>
      <use xlink:href="#DejaVuSans-65" transform="translate(102.685547 0)"/>
      <use xlink:href="#DejaVuSans-70" transform="translate(164.208984 0)"/>
     </g>
    </g>
   </g>
   <g id="matplotlib.axis_2">
    <g id="ytick_1">
     <g id="line2d_7">
      <defs>
       <path id="md727dfaeb2" d="M 0 0 
L -3.5 0 
" style="stroke: #000000; stroke-width: 0.8"/>
      </defs>
      <g>
       <use xlink:href="#md727dfaeb2" x="50.87" y="368.6512" style="stroke: #000000; stroke-width: 0.8"/>
      </g>
     </g>
     <g id="text_8">
      <!-- 20 -->
      <g transform="translate(31.145 372.450418) scale(0.1 -0.1)">
       <use xlink:href="#DejaVuSans-32"/>
       <use xlink:href="#DejaVuSans-30" transform="translate(63.623047 0)"/>
      </g>
     </g>
    </g>
    <g id="ytick_2">
     <g id="line2d_8">
      <g>
       <use xlink:href="#md727dfaeb2" x="50.87" y="307.594493" style="stroke: #000000; stroke-width: 0.8"/>
      </g>
     </g>
     <g id="text_9">
      <!-- 40 -->
      <g transform="translate(31.145 311.393712) scale(0.1 -0.1)">
       <defs>
        <path id="DejaVuSans-34" d="M 2419 4116 
L 825 1625 
L 2419 1625 
L 2419 4116 
z
M 2253 4666 
L 3047 4666 
L 3047 1625 
L 3713 1625 
L 3713 1100 
L 3047 1100 
L 3047 0 
L 2419 0 
L 2419 1100 
L 313 1100 
L 313 1709 
L 2253 4666 
z
" transform="scale(0.015625)"/>
       </defs>
       <use xlink:href="#DejaVuSans-34"/>
       <use xlink:href="#DejaVuSans-30" transform="translate(63.623047 0)"/>
      </g>
     </g>
    </g>
    <g id="ytick_3">
     <g id="line2d_9">
      <g>
       <use xlink:href="#md727dfaeb2" x="50.87" y="246.537787" style="stroke: #000000; stroke-width: 0.8"/>
      </g>
     </g>
     <g id="text_10">
      <!-- 60 -->
      <g transform="translate(31.145 250.337006) scale(0.1 -0.1)">
       <defs>
        <path id="DejaVuSans-36" d="M 2113 2584 
Q 1688 2584 1439 2293 
Q 1191 2003 1191 1497 
Q 1191 994 1439 701 
Q 1688 409 2113 409 
Q 2538 409 2786 701 
Q 3034 994 3034 1497 
Q 3034 2003 2786 2293 
Q 2538 2584 2113 2584 
z
M 3366 4563 
L 3366 3988 
Q 3128 4100 2886 4159 
Q 2644 4219 2406 4219 
Q 1781 4219 1451 3797 
Q 1122 3375 1075 2522 
Q 1259 2794 1537 2939 
Q 1816 3084 2150 3084 
Q 2853 3084 3261 2657 
Q 3669 2231 3669 1497 
Q 3669 778 3244 343 
Q 2819 -91 2113 -91 
Q 1303 -91 875 529 
Q 447 1150 447 2328 
Q 447 3434 972 4092 
Q 1497 4750 2381 4750 
Q 2619 4750 2861 4703 
Q 3103 4656 3366 4563 
z
" transform="scale(0.015625)"/>
       </defs>
       <use xlink:href="#DejaVuSans-36"/>
       <use xlink:href="#DejaVuSans-30" transform="translate(63.623047 0)"/>
      </g>
     </g>
    </g>
    <g id="ytick_4">
     <g id="line2d_10">
      <g>
       <use xlink:href="#md727dfaeb2" x="50.87" y="185.481081" style="stroke: #000000; stroke-width: 0.8"/>
      </g>
     </g>
     <g id="text_11">
      <!-- 80 -->
      <g transform="translate(31.145 189.2803) scale(0.1 -0.1)">
       <defs>
        <path id="DejaVuSans-38" d="M 2034 2216 
Q 1584 2216 1326 1975 
Q 1069 1734 1069 1313 
Q 1069 891 1326 650 
Q 1584 409 2034 409 
Q 2484 409 2743 651 
Q 3003 894 3003 1313 
Q 3003 1734 2745 1975 
Q 2488 2216 2034 2216 
z
M 1403 2484 
Q 997 2584 770 2862 
Q 544 3141 544 3541 
Q 544 4100 942 4425 
Q 1341 4750 2034 4750 
Q 2731 4750 3128 4425 
Q 3525 4100 3525 3541 
Q 3525 3141 3298 2862 
Q 3072 2584 2669 2484 
Q 3125 2378 3379 2068 
Q 3634 1759 3634 1313 
Q 3634 634 3220 271 
Q 2806 -91 2034 -91 
Q 1263 -91 848 271 
Q 434 634 434 1313 
Q 434 1759 690 2068 
Q 947 2378 1403 2484 
z
M 1172 3481 
Q 1172 3119 1398 2916 
Q 1625 2713 2034 2713 
Q 2441 2713 2670 2916 
Q 2900 3119 2900 3481 
Q 2900 3844 2670 4047 
Q 2441 4250 2034 4250 
Q 1625 4250 1398 4047 
Q 1172 3844 1172 3481 
z
" transform="scale(0.015625)"/>
       </defs>
       <use xlink:href="#DejaVuSans-38"/>
       <use xlink:href="#DejaVuSans-30" transform="translate(63.623047 0)"/>
      </g>
     </g>
    </g>
    <g id="ytick_5">
     <g id="line2d_11">
      <g>
       <use xlink:href="#md727dfaeb2" x="50.87" y="124.424375" style="stroke: #000000; stroke-width: 0.8"/>
      </g>
     </g>
     <g id="text_12">
      <!-- 100 -->
      <g transform="translate(24.7825 128.223593) scale(0.1 -0.1)">
       <use xlink:href="#DejaVuSans-31"/>
       <use xlink:href="#DejaVuSans-30" transform="translate(63.623047 0)"/>
       <use xlink:href="#DejaVuSans-30" transform="translate(127.246094 0)"/>
      </g>
     </g>
    </g>
    <g id="ytick_6">
     <g id="line2d_12">
      <g>
       <use xlink:href="#md727dfaeb2" x="50.87" y="63.367668" style="stroke: #000000; stroke-width: 0.8"/>
      </g>
     </g>
     <g id="text_13">
      <!-- 120 -->
      <g transform="translate(24.7825 67.166887) scale(0.1 -0.1)">
       <use xlink:href="#DejaVuSans-31"/>
       <use xlink:href="#DejaVuSans-32" transform="translate(63.623047 0)"/>
       <use xlink:href="#DejaVuSans-30" transform="translate(127.246094 0)"/>
      </g>
     </g>
    </g>
    <g id="text_14">
     <!-- Profit -->
     <g transform="translate(18.702813 229.779063) rotate(-90) scale(0.1 -0.1)">
      <defs>
       <path id="DejaVuSans-50" d="M 1259 4147 
L 1259 2394 
L 2053 2394 
Q 2494 2394 2734 2622 
Q 2975 2850 2975 3272 
Q 2975 3691 2734 3919 
Q 2494 4147 2053 4147 
L 1259 4147 
z
M 628 4666 
L 2053 4666 
Q 2838 4666 3239 4311 
Q 3641 3956 3641 3272 
Q 3641 2581 3239 2228 
Q 2838 1875 2053 1875 
L 1259 1875 
L 1259 0 
L 628 0 
L 628 4666 
z
" transform="scale(0.015625)"/>
       <path id="DejaVuSans-72" d="M 2631 2963 
Q 2534 3019 2420 3045 
Q 2306 3072 2169 3072 
Q 1681 3072 1420 2755 
Q 1159 2438 1159 1844 
L 1159 0 
L 581 0 
L 581 3500 
L 1159 3500 
L 1159 2956 
Q 1341 3275 1631 3429 
Q 1922 3584 2338 3584 
Q 2397 3584 2469 3576 
Q 2541 3569 2628 3553 
L 2631 2963 
z
" transform="scale(0.015625)"/>
       <path id="DejaVuSans-6f" d="M 1959 3097 
Q 1497 3097 1228 2736 
Q 959 2375 959 1747 
Q 959 1119 1226 758 
Q 1494 397 1959 397 
Q 2419 397 2687 759 
Q 2956 1122 2956 1747 
Q 2956 2369 2687 2733 
Q 2419 3097 1959 3097 
z
M 1959 3584 
Q 2709 3584 3137 3096 
Q 3566 2609 3566 1747 
Q 3566 888 3137 398 
Q 2709 -91 1959 -91 
Q 1206 -91 779 398 
Q 353 888 353 1747 
Q 353 2609 779 3096 
Q 1206 3584 1959 3584 
z
" transform="scale(0.015625)"/>
       <path id="DejaVuSans-66" d="M 2375 4863 
L 2375 4384 
L 1825 4384 
Q 1516 4384 1395 4259 
Q 1275 4134 1275 3809 
L 1275 3500 
L 2222 3500 
L 2222 3053 
L 1275 3053 
L 1275 0 
L 697 0 
L 697 3053 
L 147 3053 
L 147 3500 
L 697 3500 
L 697 3744 
Q 697 4328 969 4595 
Q 1241 4863 1831 4863 
L 2375 4863 
z
" transform="scale(0.015625)"/>
       <path id="DejaVuSans-69" d="M 603 3500 
L 1178 3500 
L 1178 0 
L 603 0 
L 603 3500 
z
M 603 4863 
L 1178 4863 
L 1178 4134 
L 603 4134 
L 603 4863 
z
" transform="scale(0.015625)"/>
      </defs>
      <use xlink:href="#DejaVuSans-50"/>
      <use xlink:href="#DejaVuSans-72" transform="translate(58.552734 0)"/>
      <use xlink:href="#DejaVuSans-6f" transform="translate(97.416016 0)"/>
      <use xlink:href="#DejaVuSans-66" transform="translate(158.597656 0)"/>
      <use xlink:href="#DejaVuSans-69" transform="translate(193.802734 0)"/>
      <use xlink:href="#DejaVuSans-74" transform="translate(221.585938 0)"/>
     </g>
    </g>
   </g>
   <g id="line2d_13">
    <path d="M 52.193327 238.541901 
L 54.83998 237.750416 
L 60.133287 231.97745 
L 62.77994 229.075146 
L 65.426593 226.42709 
L 68.073247 224.122464 
L 70.7199 221.624753 
L 73.366553 220.190872 
L 76.013207 218.040644 
L 78.65986 216.350698 
L 83.953167 213.719924 
L 86.59982 212.026904 
L 89.246473 210.645824 
L 94.53978 208.480386 
L 99.833087 207.07527 
L 102.47974 206.576743 
L 107.773047 205.072382 
L 110.4197 204.963449 
L 113.066353 203.949998 
L 115.713007 203.30674 
L 118.35966 203.032811 
L 123.652967 201.335831 
L 126.29962 200.863926 
L 128.946273 200.230357 
L 131.592927 199.960644 
L 136.886233 198.318678 
L 147.472847 197.028551 
L 150.1195 196.944283 
L 155.412807 196.404437 
L 158.05946 195.85453 
L 160.706113 195.579926 
L 163.352767 195.015252 
L 171.292727 194.385129 
L 173.93938 193.886766 
L 176.586033 193.679101 
L 179.232687 193.288972 
L 181.87934 193.209525 
L 184.525993 193.26037 
L 187.172647 192.995478 
L 189.8193 192.873292 
L 192.465953 192.54195 
L 200.405913 191.096819 
L 203.052567 191.430909 
L 205.69922 191.034282 
L 208.345873 190.442055 
L 210.992527 189.995444 
L 216.285833 189.921494 
L 218.932487 189.683388 
L 224.225793 190.053789 
L 229.5191 189.42907 
L 232.165753 189.2576 
L 234.812407 188.922112 
L 237.45906 188.868495 
L 240.105713 189.00603 
L 242.752367 188.886197 
L 245.39902 188.87907 
L 248.045673 188.671474 
L 255.985633 188.473825 
L 258.632287 188.056258 
L 261.27894 187.99279 
L 263.925593 188.155899 
L 269.2189 187.37394 
L 274.512207 187.592063 
L 277.15886 187.382162 
L 282.452167 186.485261 
L 293.03878 186.461854 
L 295.685433 186.225144 
L 298.332087 186.367687 
L 300.97874 186.071701 
L 303.625393 186.107011 
L 308.9187 185.783099 
L 311.565353 185.632451 
L 314.212007 185.216026 
L 316.85866 185.159358 
L 319.505313 184.921694 
L 324.79862 184.863582 
L 327.445273 184.475433 
L 335.385233 184.666561 
L 338.031887 184.320197 
L 345.971847 183.687885 
L 348.6185 183.476051 
L 351.265153 183.650642 
L 356.55846 183.449056 
L 359.205113 182.835028 
L 361.851767 182.836332 
L 367.145073 183.175966 
L 369.791727 182.720737 
L 375.085033 182.721669 
L 380.37834 182.42375 
L 383.024993 182.601649 
L 388.3183 182.28752 
L 390.964953 181.958111 
L 396.25826 181.589433 
L 401.551567 181.491284 
L 404.19822 181.586335 
L 406.844873 181.802106 
L 412.13818 181.660495 
L 420.07814 181.623392 
L 422.724793 181.269341 
L 428.0181 181.223457 
L 430.664753 181.253922 
L 433.311407 180.832769 
L 435.95806 180.870804 
L 438.604713 181.036801 
L 441.251367 180.919576 
L 446.544673 181.098732 
L 451.83798 180.564081 
L 454.484633 180.710373 
L 457.131287 180.533267 
L 465.071247 180.453401 
L 467.7179 180.57193 
L 473.011207 180.180753 
L 475.65786 180.296301 
L 478.304513 179.778559 
L 483.59782 179.395324 
L 486.244473 179.402801 
L 488.891127 179.03035 
L 491.53778 179.018867 
L 494.184433 178.884337 
L 496.831087 179.055854 
L 499.47774 179.110798 
L 502.124393 178.6664 
L 510.064353 178.840549 
L 512.711007 178.563033 
L 515.35766 178.624406 
L 520.650967 178.269214 
L 523.29762 177.891988 
L 531.23758 178.16431 
L 533.884233 177.930209 
L 536.530887 177.481083 
L 539.17754 177.586523 
L 541.824193 177.526641 
L 544.470847 177.746767 
L 547.1175 177.457932 
L 552.410807 177.839886 
L 555.05746 177.844917 
L 557.704113 177.732816 
L 560.350767 177.787317 
L 562.99742 178.058661 
L 565.644073 177.929301 
L 568.290727 178.039632 
L 573.584033 177.970783 
L 576.230687 178.200248 
L 584.170647 177.724338 
L 586.8173 177.97954 
L 594.75726 177.70822 
L 597.403913 177.397468 
L 600.050567 177.295778 
L 605.343873 176.74799 
L 607.990527 176.716058 
L 610.63718 176.104731 
L 613.283833 175.747001 
L 615.930487 176.079251 
L 621.223793 176.171368 
L 623.870447 175.947445 
L 626.5171 176.116051 
L 629.163753 176.47483 
L 631.810407 176.197105 
L 637.103713 176.065299 
L 639.750367 175.748747 
L 647.690327 176.484822 
L 652.983633 175.873892 
L 655.630287 175.846804 
L 658.27694 175.997359 
L 660.923593 175.904403 
L 666.2169 176.008748 
L 668.863553 175.994424 
L 671.510207 175.737265 
L 674.15686 175.732141 
L 676.803513 175.884606 
L 679.450167 175.612796 
L 682.09682 175.540058 
L 684.743473 175.840049 
L 687.390127 175.802923 
L 690.03678 175.588643 
L 692.683433 175.575577 
L 695.330087 175.262821 
L 700.623393 175.30987 
L 703.270047 175.050801 
L 705.9167 175.201076 
L 708.563353 175.033519 
L 716.503313 174.971937 
L 719.149967 175.278706 
L 724.443273 175.221083 
L 727.089927 175.046748 
L 729.73658 174.606752 
L 732.383233 174.511421 
L 735.029887 174.579898 
L 737.67654 174.928545 
L 740.323193 174.631301 
L 742.969847 174.620867 
L 745.6165 174.921441 
L 748.263153 174.459109 
L 750.909807 174.411502 
L 753.55646 174.748224 
L 756.203113 174.816258 
L 758.849767 174.491833 
L 761.49642 174.482121 
L 764.143073 174.617327 
L 769.43638 174.596295 
L 772.083033 174.220956 
L 780.022993 174.484916 
L 782.669647 174.242197 
L 787.962953 174.020278 
L 790.609607 174.187719 
L 793.25626 173.793048 
L 798.549567 173.599265 
L 803.842873 173.774648 
L 809.13618 173.411677 
L 811.782833 173.679643 
L 814.429487 173.522403 
L 817.07614 173.703749 
L 819.722793 173.456699 
L 822.369447 173.323077 
L 827.662753 173.388898 
L 832.95606 172.802051 
L 838.249367 173.253715 
L 840.89602 173.202474 
L 843.542673 173.473818 
L 843.542673 173.473818 
" clip-path="url(#pf8ec119c3b)" style="fill: none; stroke: #0000ff; stroke-width: 1.5; stroke-linecap: square"/>
   </g>
   <g id="patch_3">
    <path d="M 50.87 390.04 
L 50.87 43.44 
" style="fill: none; stroke: #000000; stroke-width: 0.8; stroke-linejoin: miter; stroke-linecap: square"/>
   </g>
   <g id="patch_4">
    <path d="M 844.866 390.04 
L 844.866 43.44 
" style="fill: none; stroke: #000000; stroke-width: 0.8; stroke-linejoin: miter; stroke-linecap: square"/>
   </g>
   <g id="patch_5">
    <path d="M 50.87 390.04 
L 844.866 390.04 
" style="fill: none; stroke: #000000; stroke-width: 0.8; stroke-linejoin: miter; stroke-linecap: square"/>
   </g>
   <g id="patch_6">
    <path d="M 50.87 43.44 
L 844.866 43.44 
" style="fill: none; stroke: #000000; stroke-width: 0.8; stroke-linejoin: miter; stroke-linecap: square"/>
   </g>
   <g id="text_15">
    <!-- Mean profit per step with confidence interval per simulation step -->
    <g transform="translate(220.284875 21.763062) scale(0.14 -0.14)">
     <defs>
      <path id="DejaVuSans-4d" d="M 628 4666 
L 1569 4666 
L 2759 1491 
L 3956 4666 
L 4897 4666 
L 4897 0 
L 4281 0 
L 4281 4097 
L 3078 897 
L 2444 897 
L 1241 4097 
L 1241 0 
L 628 0 
L 628 4666 
z
" transform="scale(0.015625)"/>
      <path id="DejaVuSans-61" d="M 2194 1759 
Q 1497 1759 1228 1600 
Q 959 1441 959 1056 
Q 959 750 1161 570 
Q 1363 391 1709 391 
Q 2188 391 2477 730 
Q 2766 1069 2766 1631 
L 2766 1759 
L 2194 1759 
z
M 3341 1997 
L 3341 0 
L 2766 0 
L 2766 531 
Q 2569 213 2275 61 
Q 1981 -91 1556 -91 
Q 1019 -91 701 211 
Q 384 513 384 1019 
Q 384 1609 779 1909 
Q 1175 2209 1959 2209 
L 2766 2209 
L 2766 2266 
Q 2766 2663 2505 2880 
Q 2244 3097 1772 3097 
Q 1472 3097 1187 3025 
Q 903 2953 641 2809 
L 641 3341 
Q 956 3463 1253 3523 
Q 1550 3584 1831 3584 
Q 2591 3584 2966 3190 
Q 3341 2797 3341 1997 
z
" transform="scale(0.015625)"/>
      <path id="DejaVuSans-6e" d="M 3513 2113 
L 3513 0 
L 2938 0 
L 2938 2094 
Q 2938 2591 2744 2837 
Q 2550 3084 2163 3084 
Q 1697 3084 1428 2787 
Q 1159 2491 1159 1978 
L 1159 0 
L 581 0 
L 581 3500 
L 1159 3500 
L 1159 2956 
Q 1366 3272 1645 3428 
Q 1925 3584 2291 3584 
Q 2894 3584 3203 3211 
Q 3513 2838 3513 2113 
z
" transform="scale(0.015625)"/>
      <path id="DejaVuSans-20" transform="scale(0.015625)"/>
      <path id="DejaVuSans-73" d="M 2834 3397 
L 2834 2853 
Q 2591 2978 2328 3040 
Q 2066 3103 1784 3103 
Q 1356 3103 1142 2972 
Q 928 2841 928 2578 
Q 928 2378 1081 2264 
Q 1234 2150 1697 2047 
L 1894 2003 
Q 2506 1872 2764 1633 
Q 3022 1394 3022 966 
Q 3022 478 2636 193 
Q 2250 -91 1575 -91 
Q 1294 -91 989 -36 
Q 684 19 347 128 
L 347 722 
Q 666 556 975 473 
Q 1284 391 1588 391 
Q 1994 391 2212 530 
Q 2431 669 2431 922 
Q 2431 1156 2273 1281 
Q 2116 1406 1581 1522 
L 1381 1569 
Q 847 1681 609 1914 
Q 372 2147 372 2553 
Q 372 3047 722 3315 
Q 1072 3584 1716 3584 
Q 2034 3584 2315 3537 
Q 2597 3491 2834 3397 
z
" transform="scale(0.015625)"/>
      <path id="DejaVuSans-77" d="M 269 3500 
L 844 3500 
L 1563 769 
L 2278 3500 
L 2956 3500 
L 3675 769 
L 4391 3500 
L 4966 3500 
L 4050 0 
L 3372 0 
L 2619 2869 
L 1863 0 
L 1184 0 
L 269 3500 
z
" transform="scale(0.015625)"/>
      <path id="DejaVuSans-68" d="M 3513 2113 
L 3513 0 
L 2938 0 
L 2938 2094 
Q 2938 2591 2744 2837 
Q 2550 3084 2163 3084 
Q 1697 3084 1428 2787 
Q 1159 2491 1159 1978 
L 1159 0 
L 581 0 
L 581 4863 
L 1159 4863 
L 1159 2956 
Q 1366 3272 1645 3428 
Q 1925 3584 2291 3584 
Q 2894 3584 3203 3211 
Q 3513 2838 3513 2113 
z
" transform="scale(0.015625)"/>
      <path id="DejaVuSans-63" d="M 3122 3366 
L 3122 2828 
Q 2878 2963 2633 3030 
Q 2388 3097 2138 3097 
Q 1578 3097 1268 2742 
Q 959 2388 959 1747 
Q 959 1106 1268 751 
Q 1578 397 2138 397 
Q 2388 397 2633 464 
Q 2878 531 3122 666 
L 3122 134 
Q 2881 22 2623 -34 
Q 2366 -91 2075 -91 
Q 1284 -91 818 406 
Q 353 903 353 1747 
Q 353 2603 823 3093 
Q 1294 3584 2113 3584 
Q 2378 3584 2631 3529 
Q 2884 3475 3122 3366 
z
" transform="scale(0.015625)"/>
      <path id="DejaVuSans-64" d="M 2906 2969 
L 2906 4863 
L 3481 4863 
L 3481 0 
L 2906 0 
L 2906 525 
Q 2725 213 2448 61 
Q 2172 -91 1784 -91 
Q 1150 -91 751 415 
Q 353 922 353 1747 
Q 353 2572 751 3078 
Q 1150 3584 1784 3584 
Q 2172 3584 2448 3432 
Q 2725 3281 2906 2969 
z
M 947 1747 
Q 947 1113 1208 752 
Q 1469 391 1925 391 
Q 2381 391 2643 752 
Q 2906 1113 2906 1747 
Q 2906 2381 2643 2742 
Q 2381 3103 1925 3103 
Q 1469 3103 1208 2742 
Q 947 2381 947 1747 
z
" transform="scale(0.015625)"/>
      <path id="DejaVuSans-76" d="M 191 3500 
L 800 3500 
L 1894 563 
L 2988 3500 
L 3597 3500 
L 2284 0 
L 1503 0 
L 191 3500 
z
" transform="scale(0.015625)"/>
      <path id="DejaVuSans-6c" d="M 603 4863 
L 1178 4863 
L 1178 0 
L 603 0 
L 603 4863 
z
" transform="scale(0.015625)"/>
      <path id="DejaVuSans-6d" d="M 3328 2828 
Q 3544 3216 3844 3400 
Q 4144 3584 4550 3584 
Q 5097 3584 5394 3201 
Q 5691 2819 5691 2113 
L 5691 0 
L 5113 0 
L 5113 2094 
Q 5113 2597 4934 2840 
Q 4756 3084 4391 3084 
Q 3944 3084 3684 2787 
Q 3425 2491 3425 1978 
L 3425 0 
L 2847 0 
L 2847 2094 
Q 2847 2600 2669 2842 
Q 2491 3084 2119 3084 
Q 1678 3084 1418 2786 
Q 1159 2488 1159 1978 
L 1159 0 
L 581 0 
L 581 3500 
L 1159 3500 
L 1159 2956 
Q 1356 3278 1631 3431 
Q 1906 3584 2284 3584 
Q 2666 3584 2933 3390 
Q 3200 3197 3328 2828 
z
" transform="scale(0.015625)"/>
      <path id="DejaVuSans-75" d="M 544 1381 
L 544 3500 
L 1119 3500 
L 1119 1403 
Q 1119 906 1312 657 
Q 1506 409 1894 409 
Q 2359 409 2629 706 
Q 2900 1003 2900 1516 
L 2900 3500 
L 3475 3500 
L 3475 0 
L 2900 0 
L 2900 538 
Q 2691 219 2414 64 
Q 2138 -91 1772 -91 
Q 1169 -91 856 284 
Q 544 659 544 1381 
z
M 1991 3584 
L 1991 3584 
z
" transform="scale(0.015625)"/>
     </defs>
     <use xlink:href="#DejaVuSans-4d"/>
     <use xlink:href="#DejaVuSans-65" transform="translate(86.279297 0)"/>
     <use xlink:href="#DejaVuSans-61" transform="translate(147.802734 0)"/>
     <use xlink:href="#DejaVuSans-6e" transform="translate(209.082031 0)"/>
     <use xlink:href="#DejaVuSans-20" transform="translate(272.460938 0)"/>
     <use xlink:href="#DejaVuSans-70" transform="translate(304.248047 0)"/>
     <use xlink:href="#DejaVuSans-72" transform="translate(367.724609 0)"/>
     <use xlink:href="#DejaVuSans-6f" transform="translate(406.587891 0)"/>
     <use xlink:href="#DejaVuSans-66" transform="translate(467.769531 0)"/>
     <use xlink:href="#DejaVuSans-69" transform="translate(502.974609 0)"/>
     <use xlink:href="#DejaVuSans-74" transform="translate(530.757812 0)"/>
     <use xlink:href="#DejaVuSans-20" transform="translate(569.966797 0)"/>
     <use xlink:href="#DejaVuSans-70" transform="translate(601.753906 0)"/>
     <use xlink:href="#DejaVuSans-65" transform="translate(665.230469 0)"/>
     <use xlink:href="#DejaVuSans-72" transform="translate(726.753906 0)"/>
     <use xlink:href="#DejaVuSans-20" transform="translate(767.867188 0)"/>
     <use xlink:href="#DejaVuSans-73" transform="translate(799.654297 0)"/>
     <use xlink:href="#DejaVuSans-74" transform="translate(851.753906 0)"/>
     <use xlink:href="#DejaVuSans-65" transform="translate(890.962891 0)"/>
     <use xlink:href="#DejaVuSans-70" transform="translate(952.486328 0)"/>
     <use xlink:href="#DejaVuSans-20" transform="translate(1015.962891 0)"/>
     <use xlink:href="#DejaVuSans-77" transform="translate(1047.75 0)"/>
     <use xlink:href="#DejaVuSans-69" transform="translate(1129.537109 0)"/>
     <use xlink:href="#DejaVuSans-74" transform="translate(1157.320312 0)"/>
     <use xlink:href="#DejaVuSans-68" transform="translate(1196.529297 0)"/>
     <use xlink:href="#DejaVuSans-20" transform="translate(1259.908203 0)"/>
     <use xlink:href="#DejaVuSans-63" transform="translate(1291.695312 0)"/>
     <use xlink:href="#DejaVuSans-6f" transform="translate(1346.675781 0)"/>
     <use xlink:href="#DejaVuSans-6e" transform="translate(1407.857422 0)"/>
     <use xlink:href="#DejaVuSans-66" transform="translate(1471.236328 0)"/>
     <use xlink:href="#DejaVuSans-69" transform="translate(1506.441406 0)"/>
     <use xlink:href="#DejaVuSans-64" transform="translate(1534.224609 0)"/>
     <use xlink:href="#DejaVuSans-65" transform="translate(1597.701172 0)"/>
     <use xlink:href="#DejaVuSans-6e" transform="translate(1659.224609 0)"/>
     <use xlink:href="#DejaVuSans-63" transform="translate(1722.603516 0)"/>
     <use xlink:href="#DejaVuSans-65" transform="translate(1777.583984 0)"/>
     <use xlink:href="#DejaVuSans-20" transform="translate(1839.107422 0)"/>
     <use xlink:href="#DejaVuSans-69" transform="translate(1870.894531 0)"/>
     <use xlink:href="#DejaVuSans-6e" transform="translate(1898.677734 0)"/>
     <use xlink:href="#DejaVuSans-74" transform="translate(1962.056641 0)"/>
     <use xlink:href="#DejaVuSans-65" transform="translate(2001.265625 0)"/>
     <use xlink:href="#DejaVuSans-72" transform="translate(2062.789062 0)"/>
     <use xlink:href="#DejaVuSans-76" transform="translate(2103.902344 0)"/>
     <use xlink:href="#DejaVuSans-61" transform="translate(2163.082031 0)"/>
     <use xlink:href="#DejaVuSans-6c" transform="translate(2224.361328 0)"/>
     <use xlink:href="#DejaVuSans-20" transform="translate(2252.144531 0)"/>
     <use xlink:href="#DejaVuSans-70" transform="translate(2283.931641 0)"/>
     <use xlink:href="#DejaVuSans-65" transform="translate(2347.408203 0)"/>
     <use xlink:href="#DejaVuSans-72" transform="translate(2408.931641 0)"/>
     <use xlink:href="#DejaVuSans-20" transform="translate(2450.044922 0)"/>
     <use xlink:href="#DejaVuSans-73" transform="translate(2481.832031 0)"/>
     <use xlink:href="#DejaVuSans-69" transform="translate(2533.931641 0)"/>
     <use xlink:href="#DejaVuSans-6d" transform="translate(2561.714844 0)"/>
     <use xlink:href="#DejaVuSans-75" transform="translate(2659.126953 0)"/>
     <use xlink:href="#DejaVuSans-6c" transform="translate(2722.505859 0)"/>
     <use xlink:href="#DejaVuSans-61" transform="translate(2750.289062 0)"/>
     <use xlink:href="#DejaVuSans-74" transform="translate(2811.568359 0)"/>
     <use xlink:href="#DejaVuSans-69" transform="translate(2850.777344 0)"/>
     <use xlink:href="#DejaVuSans-6f" transform="translate(2878.560547 0)"/>
     <use xlink:href="#DejaVuSans-6e" transform="translate(2939.742188 0)"/>
     <use xlink:href="#DejaVuSans-20" transform="translate(3003.121094 0)"/>
     <use xlink:href="#DejaVuSans-73" transform="translate(3034.908203 0)"/>
     <use xlink:href="#DejaVuSans-74" transform="translate(3087.007812 0)"/>
     <use xlink:href="#DejaVuSans-65" transform="translate(3126.216797 0)"/>
     <use xlink:href="#DejaVuSans-70" transform="translate(3187.740234 0)"/>
    </g>
    <!-- Base Product: Green Crack, Recipe size: 9, T0: 50.0 -->
    <g transform="translate(268.031437 37.44) scale(0.14 -0.14)">
     <defs>
      <path id="DejaVuSans-42" d="M 1259 2228 
L 1259 519 
L 2272 519 
Q 2781 519 3026 730 
Q 3272 941 3272 1375 
Q 3272 1813 3026 2020 
Q 2781 2228 2272 2228 
L 1259 2228 
z
M 1259 4147 
L 1259 2741 
L 2194 2741 
Q 2656 2741 2882 2914 
Q 3109 3088 3109 3444 
Q 3109 3797 2882 3972 
Q 2656 4147 2194 4147 
L 1259 4147 
z
M 628 4666 
L 2241 4666 
Q 2963 4666 3353 4366 
Q 3744 4066 3744 3513 
Q 3744 3084 3544 2831 
Q 3344 2578 2956 2516 
Q 3422 2416 3680 2098 
Q 3938 1781 3938 1306 
Q 3938 681 3513 340 
Q 3088 0 2303 0 
L 628 0 
L 628 4666 
z
" transform="scale(0.015625)"/>
      <path id="DejaVuSans-3a" d="M 750 794 
L 1409 794 
L 1409 0 
L 750 0 
L 750 794 
z
M 750 3309 
L 1409 3309 
L 1409 2516 
L 750 2516 
L 750 3309 
z
" transform="scale(0.015625)"/>
      <path id="DejaVuSans-47" d="M 3809 666 
L 3809 1919 
L 2778 1919 
L 2778 2438 
L 4434 2438 
L 4434 434 
Q 4069 175 3628 42 
Q 3188 -91 2688 -91 
Q 1594 -91 976 548 
Q 359 1188 359 2328 
Q 359 3472 976 4111 
Q 1594 4750 2688 4750 
Q 3144 4750 3555 4637 
Q 3966 4525 4313 4306 
L 4313 3634 
Q 3963 3931 3569 4081 
Q 3175 4231 2741 4231 
Q 1884 4231 1454 3753 
Q 1025 3275 1025 2328 
Q 1025 1384 1454 906 
Q 1884 428 2741 428 
Q 3075 428 3337 486 
Q 3600 544 3809 666 
z
" transform="scale(0.015625)"/>
      <path id="DejaVuSans-43" d="M 4122 4306 
L 4122 3641 
Q 3803 3938 3442 4084 
Q 3081 4231 2675 4231 
Q 1875 4231 1450 3742 
Q 1025 3253 1025 2328 
Q 1025 1406 1450 917 
Q 1875 428 2675 428 
Q 3081 428 3442 575 
Q 3803 722 4122 1019 
L 4122 359 
Q 3791 134 3420 21 
Q 3050 -91 2638 -91 
Q 1578 -91 968 557 
Q 359 1206 359 2328 
Q 359 3453 968 4101 
Q 1578 4750 2638 4750 
Q 3056 4750 3426 4639 
Q 3797 4528 4122 4306 
z
" transform="scale(0.015625)"/>
      <path id="DejaVuSans-6b" d="M 581 4863 
L 1159 4863 
L 1159 1991 
L 2875 3500 
L 3609 3500 
L 1753 1863 
L 3688 0 
L 2938 0 
L 1159 1709 
L 1159 0 
L 581 0 
L 581 4863 
z
" transform="scale(0.015625)"/>
      <path id="DejaVuSans-2c" d="M 750 794 
L 1409 794 
L 1409 256 
L 897 -744 
L 494 -744 
L 750 256 
L 750 794 
z
" transform="scale(0.015625)"/>
      <path id="DejaVuSans-52" d="M 2841 2188 
Q 3044 2119 3236 1894 
Q 3428 1669 3622 1275 
L 4263 0 
L 3584 0 
L 2988 1197 
Q 2756 1666 2539 1819 
Q 2322 1972 1947 1972 
L 1259 1972 
L 1259 0 
L 628 0 
L 628 4666 
L 2053 4666 
Q 2853 4666 3247 4331 
Q 3641 3997 3641 3322 
Q 3641 2881 3436 2590 
Q 3231 2300 2841 2188 
z
M 1259 4147 
L 1259 2491 
L 2053 2491 
Q 2509 2491 2742 2702 
Q 2975 2913 2975 3322 
Q 2975 3731 2742 3939 
Q 2509 4147 2053 4147 
L 1259 4147 
z
" transform="scale(0.015625)"/>
      <path id="DejaVuSans-7a" d="M 353 3500 
L 3084 3500 
L 3084 2975 
L 922 459 
L 3084 459 
L 3084 0 
L 275 0 
L 275 525 
L 2438 3041 
L 353 3041 
L 353 3500 
z
" transform="scale(0.015625)"/>
      <path id="DejaVuSans-39" d="M 703 97 
L 703 672 
Q 941 559 1184 500 
Q 1428 441 1663 441 
Q 2288 441 2617 861 
Q 2947 1281 2994 2138 
Q 2813 1869 2534 1725 
Q 2256 1581 1919 1581 
Q 1219 1581 811 2004 
Q 403 2428 403 3163 
Q 403 3881 828 4315 
Q 1253 4750 1959 4750 
Q 2769 4750 3195 4129 
Q 3622 3509 3622 2328 
Q 3622 1225 3098 567 
Q 2575 -91 1691 -91 
Q 1453 -91 1209 -44 
Q 966 3 703 97 
z
M 1959 2075 
Q 2384 2075 2632 2365 
Q 2881 2656 2881 3163 
Q 2881 3666 2632 3958 
Q 2384 4250 1959 4250 
Q 1534 4250 1286 3958 
Q 1038 3666 1038 3163 
Q 1038 2656 1286 2365 
Q 1534 2075 1959 2075 
z
" transform="scale(0.015625)"/>
      <path id="DejaVuSans-54" d="M -19 4666 
L 3928 4666 
L 3928 4134 
L 2272 4134 
L 2272 0 
L 1638 0 
L 1638 4134 
L -19 4134 
L -19 4666 
z
" transform="scale(0.015625)"/>
      <path id="DejaVuSans-2e" d="M 684 794 
L 1344 794 
L 1344 0 
L 684 0 
L 684 794 
z
" transform="scale(0.015625)"/>
     </defs>
     <use xlink:href="#DejaVuSans-42"/>
     <use xlink:href="#DejaVuSans-61" transform="translate(68.603516 0)"/>
     <use xlink:href="#DejaVuSans-73" transform="translate(129.882812 0)"/>
     <use xlink:href="#DejaVuSans-65" transform="translate(181.982422 0)"/>
     <use xlink:href="#DejaVuSans-20" transform="translate(243.505859 0)"/>
     <use xlink:href="#DejaVuSans-50" transform="translate(275.292969 0)"/>
     <use xlink:href="#DejaVuSans-72" transform="translate(333.845703 0)"/>
     <use xlink:href="#DejaVuSans-6f" transform="translate(372.708984 0)"/>
     <use xlink:href="#DejaVuSans-64" transform="translate(433.890625 0)"/>
     <use xlink:href="#DejaVuSans-75" transform="translate(497.367188 0)"/>
     <use xlink:href="#DejaVuSans-63" transform="translate(560.746094 0)"/>
     <use xlink:href="#DejaVuSans-74" transform="translate(615.726562 0)"/>
     <use xlink:href="#DejaVuSans-3a" transform="translate(654.935547 0)"/>
     <use xlink:href="#DejaVuSans-20" transform="translate(688.626953 0)"/>
     <use xlink:href="#DejaVuSans-47" transform="translate(720.414062 0)"/>
     <use xlink:href="#DejaVuSans-72" transform="translate(797.904297 0)"/>
     <use xlink:href="#DejaVuSans-65" transform="translate(836.767578 0)"/>
     <use xlink:href="#DejaVuSans-65" transform="translate(898.291016 0)"/>
     <use xlink:href="#DejaVuSans-6e" transform="translate(959.814453 0)"/>
     <use xlink:href="#DejaVuSans-20" transform="translate(1023.193359 0)"/>
     <use xlink:href="#DejaVuSans-43" transform="translate(1054.980469 0)"/>
     <use xlink:href="#DejaVuSans-72" transform="translate(1124.804688 0)"/>
     <use xlink:href="#DejaVuSans-61" transform="translate(1165.917969 0)"/>
     <use xlink:href="#DejaVuSans-63" transform="translate(1227.197266 0)"/>
     <use xlink:href="#DejaVuSans-6b" transform="translate(1282.177734 0)"/>
     <use xlink:href="#DejaVuSans-2c" transform="translate(1340.087891 0)"/>
     <use xlink:href="#DejaVuSans-20" transform="translate(1371.875 0)"/>
     <use xlink:href="#DejaVuSans-52" transform="translate(1403.662109 0)"/>
     <use xlink:href="#DejaVuSans-65" transform="translate(1468.644531 0)"/>
     <use xlink:href="#DejaVuSans-63" transform="translate(1530.167969 0)"/>
     <use xlink:href="#DejaVuSans-69" transform="translate(1585.148438 0)"/>
     <use xlink:href="#DejaVuSans-70" transform="translate(1612.931641 0)"/>
     <use xlink:href="#DejaVuSans-65" transform="translate(1676.408203 0)"/>
     <use xlink:href="#DejaVuSans-20" transform="translate(1737.931641 0)"/>
     <use xlink:href="#DejaVuSans-73" transform="translate(1769.71875 0)"/>
     <use xlink:href="#DejaVuSans-69" transform="translate(1821.818359 0)"/>
     <use xlink:href="#DejaVuSans-7a" transform="translate(1849.601562 0)"/>
     <use xlink:href="#DejaVuSans-65" transform="translate(1902.091797 0)"/>
     <use xlink:href="#DejaVuSans-3a" transform="translate(1963.615234 0)"/>
     <use xlink:href="#DejaVuSans-20" transform="translate(1997.306641 0)"/>
     <use xlink:href="#DejaVuSans-39" transform="translate(2029.09375 0)"/>
     <use xlink:href="#DejaVuSans-2c" transform="translate(2092.716797 0)"/>
     <use xlink:href="#DejaVuSans-20" transform="translate(2124.503906 0)"/>
     <use xlink:href="#DejaVuSans-54" transform="translate(2156.291016 0)"/>
     <use xlink:href="#DejaVuSans-30" transform="translate(2217.375 0)"/>
     <use xlink:href="#DejaVuSans-3a" transform="translate(2280.998047 0)"/>
     <use xlink:href="#DejaVuSans-20" transform="translate(2314.689453 0)"/>
     <use xlink:href="#DejaVuSans-35" transform="translate(2346.476562 0)"/>
     <use xlink:href="#DejaVuSans-30" transform="translate(2410.099609 0)"/>
     <use xlink:href="#DejaVuSans-2e" transform="translate(2473.722656 0)"/>
     <use xlink:href="#DejaVuSans-30" transform="translate(2505.509766 0)"/>
    </g>
   </g>
  </g>
 </g>
 <defs>
  <clipPath id="pf8ec119c3b">
   <rect x="50.87" y="43.44" width="793.996" height="346.6"/>
  </clipPath>
 </defs>
</svg>
