<?xml version="1.0" encoding="utf-8" standalone="no"?>
<!DOCTYPE svg PUBLIC "-//W3C//DTD SVG 1.1//EN"
  "http://www.w3.org/Graphics/SVG/1.1/DTD/svg11.dtd">
<svg xmlns:xlink="http://www.w3.org/1999/xlink" width="864pt" height="432pt" viewBox="0 0 864 432" xmlns="http://www.w3.org/2000/svg" version="1.1">
 <metadata>
  <rdf:RDF xmlns:dc="http://purl.org/dc/elements/1.1/" xmlns:cc="http://creativecommons.org/ns#" xmlns:rdf="http://www.w3.org/1999/02/22-rdf-syntax-ns#">
   <cc:Work>
    <dc:type rdf:resource="http://purl.org/dc/dcmitype/StillImage"/>
    <dc:date>2025-05-24T02:08:51.289747</dc:date>
    <dc:format>image/svg+xml</dc:format>
    <dc:creator>
     <cc:Agent>
      <dc:title>Matplotlib v3.10.3, https://matplotlib.org/</dc:title>
     </cc:Agent>
    </dc:creator>
   </cc:Work>
  </rdf:RDF>
 </metadata>
 <defs>
  <style type="text/css">*{stroke-linejoin: round; stroke-linecap: butt}</style>
 </defs>
 <g id="figure_1">
  <g id="patch_1">
   <path d="M 0 432 
L 864 432 
L 864 0 
L 0 0 
z
" style="fill: #ffffff"/>
  </g>
  <g id="axes_1">
   <g id="patch_2">
    <path d="M 50.87 390.04 
L 844.866 390.04 
L 844.866 43.44 
L 50.87 43.44 
z
" style="fill: #ffffff"/>
   </g>
   <g id="FillBetweenPolyCollection_1">
    <defs>
     <path id="m74143ed172" d="M 52.193327 -312.908654 
L 52.193327 -57.963639 
L 54.83998 -57.714545 
L 57.486633 -75.002257 
L 60.133287 -89.184632 
L 62.77994 -102.151679 
L 65.426593 -113.940718 
L 68.073247 -124.195593 
L 70.7199 -133.651762 
L 73.366553 -141.906298 
L 76.013207 -149.427881 
L 78.65986 -155.794781 
L 81.306513 -162.126876 
L 83.953167 -167.32195 
L 86.59982 -171.966192 
L 89.246473 -176.519972 
L 91.893127 -180.809389 
L 94.53978 -184.914601 
L 97.186433 -188.707826 
L 99.833087 -191.55321 
L 102.47974 -194.479306 
L 105.126393 -197.491343 
L 107.773047 -200.472997 
L 110.4197 -202.833756 
L 113.066353 -205.193829 
L 115.713007 -207.797876 
L 118.35966 -209.644403 
L 121.006313 -211.588574 
L 123.652967 -213.802825 
L 126.29962 -215.436404 
L 128.946273 -217.075679 
L 131.592927 -218.645456 
L 134.23958 -219.997165 
L 136.886233 -221.42409 
L 139.532887 -222.702888 
L 142.17954 -224.208973 
L 144.826193 -225.390771 
L 147.472847 -226.620903 
L 150.1195 -227.648459 
L 152.766153 -228.676302 
L 155.412807 -229.688189 
L 158.05946 -230.875439 
L 160.706113 -231.81098 
L 163.352767 -232.954528 
L 165.99942 -233.965307 
L 168.646073 -234.8454 
L 171.292727 -235.711687 
L 173.93938 -236.730754 
L 176.586033 -237.821115 
L 179.232687 -238.523918 
L 181.87934 -239.161899 
L 184.525993 -239.835426 
L 187.172647 -240.511569 
L 189.8193 -241.215635 
L 192.465953 -241.898936 
L 195.112607 -242.648166 
L 197.75926 -243.091482 
L 200.405913 -243.625748 
L 203.052567 -244.182684 
L 205.69922 -244.823236 
L 208.345873 -245.261986 
L 210.992527 -245.634363 
L 213.63918 -246.124329 
L 216.285833 -246.598958 
L 218.932487 -247.116248 
L 221.57914 -247.50733 
L 224.225793 -248.021207 
L 226.872447 -248.444356 
L 229.5191 -248.921091 
L 232.165753 -249.49959 
L 234.812407 -249.927526 
L 237.45906 -250.316302 
L 240.105713 -250.688391 
L 242.752367 -250.983536 
L 245.39902 -251.367482 
L 248.045673 -251.840582 
L 250.692327 -252.181091 
L 253.33898 -252.60404 
L 255.985633 -253.110693 
L 258.632287 -253.448698 
L 261.27894 -253.827635 
L 263.925593 -254.106491 
L 266.572247 -254.375353 
L 269.2189 -254.766101 
L 271.865553 -255.080482 
L 274.512207 -255.45492 
L 277.15886 -255.805047 
L 279.805513 -256.048756 
L 282.452167 -256.331889 
L 285.09882 -256.772191 
L 287.745473 -256.962601 
L 290.392127 -257.320773 
L 293.03878 -257.659797 
L 295.685433 -257.990799 
L 298.332087 -258.141319 
L 300.97874 -258.431898 
L 303.625393 -258.860942 
L 306.272047 -259.162248 
L 308.9187 -259.334574 
L 311.565353 -259.555191 
L 314.212007 -259.643703 
L 316.85866 -259.771064 
L 319.505313 -260.135929 
L 322.151967 -260.344378 
L 324.79862 -260.640808 
L 327.445273 -260.866012 
L 330.091927 -261.04286 
L 332.73858 -261.337406 
L 335.385233 -261.478108 
L 338.031887 -261.621492 
L 340.67854 -261.858087 
L 343.325193 -262.112787 
L 345.971847 -262.310622 
L 348.6185 -262.642754 
L 351.265153 -262.761649 
L 353.911807 -262.943173 
L 356.55846 -263.114125 
L 359.205113 -263.36661 
L 361.851767 -263.622285 
L 364.49842 -263.832264 
L 367.145073 -263.997809 
L 369.791727 -264.271945 
L 372.43838 -264.441745 
L 375.085033 -264.617573 
L 377.731687 -264.772348 
L 380.37834 -264.875864 
L 383.024993 -265.102752 
L 385.671647 -265.24075 
L 388.3183 -265.481511 
L 390.964953 -265.650735 
L 393.611607 -265.847018 
L 396.25826 -266.03273 
L 398.904913 -266.162884 
L 401.551567 -266.364131 
L 404.19822 -266.525621 
L 406.844873 -266.647065 
L 409.491527 -266.770437 
L 412.13818 -266.974255 
L 414.784833 -267.125152 
L 417.431487 -267.328837 
L 420.07814 -267.433438 
L 422.724793 -267.620613 
L 425.371447 -267.729226 
L 428.0181 -267.883668 
L 430.664753 -268.004558 
L 433.311407 -268.104595 
L 435.95806 -268.298218 
L 438.604713 -268.401535 
L 441.251367 -268.592743 
L 443.89802 -268.706652 
L 446.544673 -268.781868 
L 449.191327 -268.834124 
L 451.83798 -268.910005 
L 454.484633 -269.111961 
L 457.131287 -269.193227 
L 459.77794 -269.320477 
L 462.424593 -269.538234 
L 465.071247 -269.70901 
L 467.7179 -269.819794 
L 470.364553 -269.935277 
L 473.011207 -270.061131 
L 475.65786 -270.20272 
L 478.304513 -270.292119 
L 480.951167 -270.473576 
L 483.59782 -270.635487 
L 486.244473 -270.764555 
L 488.891127 -270.822329 
L 491.53778 -270.93615 
L 494.184433 -271.035255 
L 496.831087 -271.156966 
L 499.47774 -271.286543 
L 502.124393 -271.399721 
L 504.771047 -271.416497 
L 507.4177 -271.445351 
L 510.064353 -271.540623 
L 512.711007 -271.629246 
L 515.35766 -271.689791 
L 518.004313 -271.729393 
L 520.650967 -271.859037 
L 523.29762 -272.013081 
L 525.944273 -272.1839 
L 528.590927 -272.334354 
L 531.23758 -272.461449 
L 533.884233 -272.555679 
L 536.530887 -272.587436 
L 539.17754 -272.692016 
L 541.824193 -272.79808 
L 544.470847 -272.879811 
L 547.1175 -272.988446 
L 549.764153 -273.020181 
L 552.410807 -273.1022 
L 555.05746 -273.196918 
L 557.704113 -273.345155 
L 560.350767 -273.384757 
L 562.99742 -273.484106 
L 565.644073 -273.493259 
L 568.290727 -273.564109 
L 570.93738 -273.656034 
L 573.584033 -273.745056 
L 576.230687 -273.838533 
L 578.87734 -273.895886 
L 581.523993 -273.957628 
L 584.170647 -274.011081 
L 586.8173 -274.078097 
L 589.463953 -274.113223 
L 592.110607 -274.149324 
L 594.75726 -274.214278 
L 597.403913 -274.313628 
L 600.050567 -274.344277 
L 602.69722 -274.482608 
L 605.343873 -274.581049 
L 607.990527 -274.655799 
L 610.63718 -274.774828 
L 613.283833 -274.832026 
L 615.930487 -274.877435 
L 618.57714 -274.978934 
L 621.223793 -275.050293 
L 623.870447 -275.13619 
L 626.5171 -275.265081 
L 629.163753 -275.342114 
L 631.810407 -275.412675 
L 634.45706 -275.547638 
L 637.103713 -275.624272 
L 639.750367 -275.666667 
L 642.39702 -275.689914 
L 645.043673 -275.810383 
L 647.690327 -275.879238 
L 650.33698 -275.925157 
L 652.983633 -276.018544 
L 655.630287 -276.016284 
L 658.27694 -276.053914 
L 660.923593 -276.163613 
L 663.570247 -276.223958 
L 666.2169 -276.331884 
L 668.863553 -276.424651 
L 671.510207 -276.479855 
L 674.15686 -276.569254 
L 676.803513 -276.664038 
L 679.450167 -276.749426 
L 682.09682 -276.77941 
L 684.743473 -276.842481 
L 687.390127 -276.930307 
L 690.03678 -276.980635 
L 692.683433 -277.011306 
L 695.330087 -277.011129 
L 697.97674 -277.071186 
L 700.623393 -277.105137 
L 703.270047 -277.137803 
L 705.9167 -277.218515 
L 708.563353 -277.288057 
L 711.210007 -277.38703 
L 713.85666 -277.45542 
L 716.503313 -277.450323 
L 719.149967 -277.502468 
L 721.79662 -277.560996 
L 724.443273 -277.542115 
L 727.089927 -277.662229 
L 729.73658 -277.700303 
L 732.383233 -277.777779 
L 735.029887 -277.822301 
L 737.67654 -277.885305 
L 740.323193 -277.885882 
L 742.969847 -277.968566 
L 745.6165 -278.007282 
L 748.263153 -278.084381 
L 750.909807 -278.136394 
L 753.55646 -278.239444 
L 756.203113 -278.361087 
L 758.849767 -278.404147 
L 761.49642 -278.465379 
L 764.143073 -278.508394 
L 766.789727 -278.528051 
L 769.43638 -278.597615 
L 772.083033 -278.641495 
L 774.729687 -278.667911 
L 777.37634 -278.68174 
L 780.022993 -278.70778 
L 782.669647 -278.768081 
L 785.3163 -278.797732 
L 787.962953 -278.831905 
L 790.609607 -278.904816 
L 793.25626 -278.994326 
L 795.902913 -279.062405 
L 798.549567 -279.111094 
L 801.19622 -279.134142 
L 803.842873 -279.218975 
L 806.489527 -279.347422 
L 809.13618 -279.371844 
L 811.782833 -279.4202 
L 814.429487 -279.471393 
L 817.07614 -279.50971 
L 819.722793 -279.581092 
L 822.369447 -279.662069 
L 825.0161 -279.736265 
L 827.662753 -279.809619 
L 830.309407 -279.865688 
L 832.95606 -279.90642 
L 835.602713 -279.987221 
L 838.249367 -280.027067 
L 840.89602 -280.023033 
L 843.542673 -280.058491 
L 843.542673 -372.805455 
L 843.542673 -372.805455 
L 840.89602 -372.802928 
L 838.249367 -372.74061 
L 835.602713 -372.715081 
L 832.95606 -372.709673 
L 830.309407 -372.705773 
L 827.662753 -372.698061 
L 825.0161 -372.710781 
L 822.369447 -372.722039 
L 819.722793 -372.720931 
L 817.07614 -372.682592 
L 814.429487 -372.627543 
L 811.782833 -372.600152 
L 809.13618 -372.582777 
L 806.489527 -372.555563 
L 803.842873 -372.571076 
L 801.19622 -372.564339 
L 798.549567 -372.510487 
L 795.902913 -372.482963 
L 793.25626 -372.460934 
L 790.609607 -372.482165 
L 787.962953 -372.48376 
L 785.3163 -372.440501 
L 782.669647 -372.399148 
L 780.022993 -372.404423 
L 777.37634 -372.357884 
L 774.729687 -372.30842 
L 772.083033 -372.251022 
L 769.43638 -372.218489 
L 766.789727 -372.198145 
L 764.143073 -372.17492 
L 761.49642 -372.160338 
L 758.849767 -372.128381 
L 756.203113 -372.118453 
L 753.55646 -372.124392 
L 750.909807 -372.126653 
L 748.263153 -372.107815 
L 745.6165 -372.086009 
L 742.969847 -372.030162 
L 740.323193 -371.994748 
L 737.67654 -371.921261 
L 735.029887 -371.933273 
L 732.383233 -371.892274 
L 729.73658 -371.880883 
L 727.089927 -371.823751 
L 724.443273 -371.816748 
L 721.79662 -371.719682 
L 719.149967 -371.694285 
L 716.503313 -371.677708 
L 713.85666 -371.585384 
L 711.210007 -371.575588 
L 708.563353 -371.579046 
L 705.9167 -371.544119 
L 703.270047 -371.510966 
L 700.623393 -371.440803 
L 697.97674 -371.431096 
L 695.330087 -371.405877 
L 692.683433 -371.356767 
L 690.03678 -371.318074 
L 687.390127 -371.271269 
L 684.743473 -371.279734 
L 682.09682 -371.268565 
L 679.450167 -371.223622 
L 676.803513 -371.179432 
L 674.15686 -371.189582 
L 671.510207 -371.187676 
L 668.863553 -371.19069 
L 666.2169 -371.179831 
L 663.570247 -371.152218 
L 660.923593 -371.113923 
L 658.27694 -371.126378 
L 655.630287 -371.079263 
L 652.983633 -370.997443 
L 650.33698 -370.987072 
L 647.690327 -370.97475 
L 645.043673 -370.920809 
L 642.39702 -370.944611 
L 639.750367 -370.906537 
L 637.103713 -370.833671 
L 634.45706 -370.828308 
L 631.810407 -370.84125 
L 629.163753 -370.80362 
L 626.5171 -370.750477 
L 623.870447 -370.760406 
L 621.223793 -370.703983 
L 618.57714 -370.681999 
L 615.930487 -370.652125 
L 613.283833 -370.620567 
L 610.63718 -370.579746 
L 607.990527 -370.574605 
L 605.343873 -370.527578 
L 602.69722 -370.472175 
L 600.050567 -370.460341 
L 597.403913 -370.373335 
L 594.75726 -370.342443 
L 592.110607 -370.277377 
L 589.463953 -370.229774 
L 586.8173 -370.161517 
L 584.170647 -370.069725 
L 581.523993 -370.00169 
L 578.87734 -369.961977 
L 576.230687 -369.926031 
L 573.584033 -369.902673 
L 570.93738 -369.874927 
L 568.290727 -369.834416 
L 565.644073 -369.786813 
L 562.99742 -369.684649 
L 560.350767 -369.660228 
L 557.704113 -369.606553 
L 555.05746 -369.59853 
L 552.410807 -369.587893 
L 549.764153 -369.567416 
L 547.1175 -369.464366 
L 544.470847 -369.454038 
L 541.824193 -369.394158 
L 539.17754 -369.351653 
L 536.530887 -369.354889 
L 533.884233 -369.212834 
L 531.23758 -369.196612 
L 528.590927 -369.188634 
L 525.944273 -369.182739 
L 523.29762 -369.224181 
L 520.650967 -369.20397 
L 518.004313 -369.193864 
L 515.35766 -369.130483 
L 512.711007 -369.041749 
L 510.064353 -368.977126 
L 507.4177 -368.927441 
L 504.771047 -368.798506 
L 502.124393 -368.709151 
L 499.47774 -368.707334 
L 496.831087 -368.710703 
L 494.184433 -368.685217 
L 491.53778 -368.67653 
L 488.891127 -368.603929 
L 486.244473 -368.514131 
L 483.59782 -368.451769 
L 480.951167 -368.434749 
L 478.304513 -368.456645 
L 475.65786 -368.324076 
L 473.011207 -368.278512 
L 470.364553 -368.223197 
L 467.7179 -368.157777 
L 465.071247 -368.095947 
L 462.424593 -368.054682 
L 459.77794 -368.041563 
L 457.131287 -368.01293 
L 454.484633 -367.931111 
L 451.83798 -367.930845 
L 449.191327 -367.844017 
L 446.544673 -367.686051 
L 443.89802 -367.576352 
L 441.251367 -367.527109 
L 438.604713 -367.500383 
L 435.95806 -367.358772 
L 433.311407 -367.358107 
L 430.664753 -367.280631 
L 428.0181 -367.172749 
L 425.371447 -367.152716 
L 422.724793 -367.072846 
L 420.07814 -367.065843 
L 417.431487 -366.993331 
L 414.784833 -367.004766 
L 412.13818 -366.922459 
L 409.491527 -366.930083 
L 406.844873 -366.768172 
L 404.19822 -366.638218 
L 401.551567 -366.566592 
L 398.904913 -366.543899 
L 396.25826 -366.453658 
L 393.611607 -366.403618 
L 390.964953 -366.328048 
L 388.3183 -366.224288 
L 385.671647 -366.167245 
L 383.024993 -366.024171 
L 380.37834 -365.963715 
L 377.731687 -365.812619 
L 375.085033 -365.71799 
L 372.43838 -365.664847 
L 369.791727 -365.651683 
L 367.145073 -365.634663 
L 364.49842 -365.522394 
L 361.851767 -365.406468 
L 359.205113 -365.385215 
L 356.55846 -365.305855 
L 353.911807 -365.185475 
L 351.265153 -365.126548 
L 348.6185 -364.998611 
L 345.971847 -364.984494 
L 343.325193 -364.919184 
L 340.67854 -364.89833 
L 338.031887 -364.827636 
L 335.385233 -364.667897 
L 332.73858 -364.564691 
L 330.091927 -364.544502 
L 327.445273 -364.42359 
L 324.79862 -364.367788 
L 322.151967 -364.326745 
L 319.505313 -364.248427 
L 316.85866 -364.243152 
L 314.212007 -364.027323 
L 311.565353 -363.868426 
L 308.9187 -363.802939 
L 306.272047 -363.627422 
L 303.625393 -363.545735 
L 300.97874 -363.599986 
L 298.332087 -363.514266 
L 295.685433 -363.326914 
L 293.03878 -363.254801 
L 290.392127 -363.188228 
L 287.745473 -363.129013 
L 285.09882 -362.969185 
L 282.452167 -362.94565 
L 279.805513 -362.789457 
L 277.15886 -362.643436 
L 274.512207 -362.5592 
L 271.865553 -362.497636 
L 269.2189 -362.386475 
L 266.572247 -362.292954 
L 263.925593 -362.147797 
L 261.27894 -361.937951 
L 258.632287 -361.854026 
L 255.985633 -361.751153 
L 253.33898 -361.677001 
L 250.692327 -361.556289 
L 248.045673 -361.394622 
L 245.39902 -361.303317 
L 242.752367 -361.150913 
L 240.105713 -360.909044 
L 237.45906 -360.78791 
L 234.812407 -360.621013 
L 232.165753 -360.486317 
L 229.5191 -360.303619 
L 226.872447 -360.162141 
L 224.225793 -359.997038 
L 221.57914 -359.945358 
L 218.932487 -359.771768 
L 216.285833 -359.690392 
L 213.63918 -359.534088 
L 210.992527 -359.324907 
L 208.345873 -359.034926 
L 205.69922 -358.829313 
L 203.052567 -358.67476 
L 200.405913 -358.40592 
L 197.75926 -358.334029 
L 195.112607 -357.961053 
L 192.465953 -357.870236 
L 189.8193 -357.765302 
L 187.172647 -357.506679 
L 184.525993 -357.31002 
L 181.87934 -357.110479 
L 179.232687 -356.890372 
L 176.586033 -356.705126 
L 173.93938 -356.719242 
L 171.292727 -356.584457 
L 168.646073 -356.483933 
L 165.99942 -356.233576 
L 163.352767 -356.158671 
L 160.706113 -356.145884 
L 158.05946 -355.928149 
L 155.412807 -355.854196 
L 152.766153 -355.574254 
L 150.1195 -355.366204 
L 147.472847 -355.080876 
L 144.826193 -354.924107 
L 142.17954 -354.650303 
L 139.532887 -354.482143 
L 136.886233 -354.257737 
L 134.23958 -353.920708 
L 131.592927 -353.37053 
L 128.946273 -353.179721 
L 126.29962 -352.780639 
L 123.652967 -352.176499 
L 121.006313 -352.218716 
L 118.35966 -351.827613 
L 115.713007 -350.980119 
L 113.066353 -350.682447 
L 110.4197 -350.431692 
L 107.773047 -349.838299 
L 105.126393 -349.524118 
L 102.47974 -349.336677 
L 99.833087 -348.951558 
L 97.186433 -347.890162 
L 94.53978 -347.354921 
L 91.893127 -346.942011 
L 89.246473 -346.39631 
L 86.59982 -345.797001 
L 83.953167 -344.980422 
L 81.306513 -344.007893 
L 78.65986 -343.124985 
L 76.013207 -341.711246 
L 73.366553 -340.320422 
L 70.7199 -338.359985 
L 68.073247 -336.301218 
L 65.426593 -333.437152 
L 62.77994 -330.061669 
L 60.133287 -325.675229 
L 57.486633 -319.368376 
L 54.83998 -312.12073 
L 52.193327 -312.908654 
z
" style="stroke: #0000ff; stroke-opacity: 0.2"/>
    </defs>
    <g clip-path="url(#pdc0b2fe6e0)">
     <use xlink:href="#m74143ed172" x="0" y="432" style="fill: #0000ff; fill-opacity: 0.2; stroke: #0000ff; stroke-opacity: 0.2"/>
    </g>
   </g>
   <g id="matplotlib.axis_1">
    <g id="xtick_1">
     <g id="line2d_1">
      <defs>
       <path id="mb71eea327b" d="M 0 0 
L 0 3.5 
" style="stroke: #000000; stroke-width: 0.8"/>
      </defs>
      <g>
       <use xlink:href="#mb71eea327b" x="181.87934" y="390.04" style="stroke: #000000; stroke-width: 0.8"/>
      </g>
     </g>
     <g id="text_1">
      <!-- 50 -->
      <g transform="translate(175.51684 404.638438) scale(0.1 -0.1)">
       <defs>
        <path id="DejaVuSans-35" d="M 691 4666 
L 3169 4666 
L 3169 4134 
L 1269 4134 
L 1269 2991 
Q 1406 3038 1543 3061 
Q 1681 3084 1819 3084 
Q 2600 3084 3056 2656 
Q 3513 2228 3513 1497 
Q 3513 744 3044 326 
Q 2575 -91 1722 -91 
Q 1428 -91 1123 -41 
Q 819 9 494 109 
L 494 744 
Q 775 591 1075 516 
Q 1375 441 1709 441 
Q 2250 441 2565 725 
Q 2881 1009 2881 1497 
Q 2881 1984 2565 2268 
Q 2250 2553 1709 2553 
Q 1456 2553 1204 2497 
Q 953 2441 691 2322 
L 691 4666 
z
" transform="scale(0.015625)"/>
        <path id="DejaVuSans-30" d="M 2034 4250 
Q 1547 4250 1301 3770 
Q 1056 3291 1056 2328 
Q 1056 1369 1301 889 
Q 1547 409 2034 409 
Q 2525 409 2770 889 
Q 3016 1369 3016 2328 
Q 3016 3291 2770 3770 
Q 2525 4250 2034 4250 
z
M 2034 4750 
Q 2819 4750 3233 4129 
Q 3647 3509 3647 2328 
Q 3647 1150 3233 529 
Q 2819 -91 2034 -91 
Q 1250 -91 836 529 
Q 422 1150 422 2328 
Q 422 3509 836 4129 
Q 1250 4750 2034 4750 
z
" transform="scale(0.015625)"/>
       </defs>
       <use xlink:href="#DejaVuSans-35"/>
       <use xlink:href="#DejaVuSans-30" transform="translate(63.623047 0)"/>
      </g>
     </g>
    </g>
    <g id="xtick_2">
     <g id="line2d_2">
      <g>
       <use xlink:href="#mb71eea327b" x="314.212007" y="390.04" style="stroke: #000000; stroke-width: 0.8"/>
      </g>
     </g>
     <g id="text_2">
      <!-- 100 -->
      <g transform="translate(304.668257 404.638438) scale(0.1 -0.1)">
       <defs>
        <path id="DejaVuSans-31" d="M 794 531 
L 1825 531 
L 1825 4091 
L 703 3866 
L 703 4441 
L 1819 4666 
L 2450 4666 
L 2450 531 
L 3481 531 
L 3481 0 
L 794 0 
L 794 531 
z
" transform="scale(0.015625)"/>
       </defs>
       <use xlink:href="#DejaVuSans-31"/>
       <use xlink:href="#DejaVuSans-30" transform="translate(63.623047 0)"/>
       <use xlink:href="#DejaVuSans-30" transform="translate(127.246094 0)"/>
      </g>
     </g>
    </g>
    <g id="xtick_3">
     <g id="line2d_3">
      <g>
       <use xlink:href="#mb71eea327b" x="446.544673" y="390.04" style="stroke: #000000; stroke-width: 0.8"/>
      </g>
     </g>
     <g id="text_3">
      <!-- 150 -->
      <g transform="translate(437.000923 404.638438) scale(0.1 -0.1)">
       <use xlink:href="#DejaVuSans-31"/>
       <use xlink:href="#DejaVuSans-35" transform="translate(63.623047 0)"/>
       <use xlink:href="#DejaVuSans-30" transform="translate(127.246094 0)"/>
      </g>
     </g>
    </g>
    <g id="xtick_4">
     <g id="line2d_4">
      <g>
       <use xlink:href="#mb71eea327b" x="578.87734" y="390.04" style="stroke: #000000; stroke-width: 0.8"/>
      </g>
     </g>
     <g id="text_4">
      <!-- 200 -->
      <g transform="translate(569.33359 404.638438) scale(0.1 -0.1)">
       <defs>
        <path id="DejaVuSans-32" d="M 1228 531 
L 3431 531 
L 3431 0 
L 469 0 
L 469 531 
Q 828 903 1448 1529 
Q 2069 2156 2228 2338 
Q 2531 2678 2651 2914 
Q 2772 3150 2772 3378 
Q 2772 3750 2511 3984 
Q 2250 4219 1831 4219 
Q 1534 4219 1204 4116 
Q 875 4013 500 3803 
L 500 4441 
Q 881 4594 1212 4672 
Q 1544 4750 1819 4750 
Q 2544 4750 2975 4387 
Q 3406 4025 3406 3419 
Q 3406 3131 3298 2873 
Q 3191 2616 2906 2266 
Q 2828 2175 2409 1742 
Q 1991 1309 1228 531 
z
" transform="scale(0.015625)"/>
       </defs>
       <use xlink:href="#DejaVuSans-32"/>
       <use xlink:href="#DejaVuSans-30" transform="translate(63.623047 0)"/>
       <use xlink:href="#DejaVuSans-30" transform="translate(127.246094 0)"/>
      </g>
     </g>
    </g>
    <g id="xtick_5">
     <g id="line2d_5">
      <g>
       <use xlink:href="#mb71eea327b" x="711.210007" y="390.04" style="stroke: #000000; stroke-width: 0.8"/>
      </g>
     </g>
     <g id="text_5">
      <!-- 250 -->
      <g transform="translate(701.666257 404.638438) scale(0.1 -0.1)">
       <use xlink:href="#DejaVuSans-32"/>
       <use xlink:href="#DejaVuSans-35" transform="translate(63.623047 0)"/>
       <use xlink:href="#DejaVuSans-30" transform="translate(127.246094 0)"/>
      </g>
     </g>
    </g>
    <g id="xtick_6">
     <g id="line2d_6">
      <g>
       <use xlink:href="#mb71eea327b" x="843.542673" y="390.04" style="stroke: #000000; stroke-width: 0.8"/>
      </g>
     </g>
     <g id="text_6">
      <!-- 300 -->
      <g transform="translate(833.998923 404.638438) scale(0.1 -0.1)">
       <defs>
        <path id="DejaVuSans-33" d="M 2597 2516 
Q 3050 2419 3304 2112 
Q 3559 1806 3559 1356 
Q 3559 666 3084 287 
Q 2609 -91 1734 -91 
Q 1441 -91 1130 -33 
Q 819 25 488 141 
L 488 750 
Q 750 597 1062 519 
Q 1375 441 1716 441 
Q 2309 441 2620 675 
Q 2931 909 2931 1356 
Q 2931 1769 2642 2001 
Q 2353 2234 1838 2234 
L 1294 2234 
L 1294 2753 
L 1863 2753 
Q 2328 2753 2575 2939 
Q 2822 3125 2822 3475 
Q 2822 3834 2567 4026 
Q 2313 4219 1838 4219 
Q 1578 4219 1281 4162 
Q 984 4106 628 3988 
L 628 4550 
Q 988 4650 1302 4700 
Q 1616 4750 1894 4750 
Q 2613 4750 3031 4423 
Q 3450 4097 3450 3541 
Q 3450 3153 3228 2886 
Q 3006 2619 2597 2516 
z
" transform="scale(0.015625)"/>
       </defs>
       <use xlink:href="#DejaVuSans-33"/>
       <use xlink:href="#DejaVuSans-30" transform="translate(63.623047 0)"/>
       <use xlink:href="#DejaVuSans-30" transform="translate(127.246094 0)"/>
      </g>
     </g>
    </g>
    <g id="text_7">
     <!-- Step -->
     <g transform="translate(436.482844 418.316562) scale(0.1 -0.1)">
      <defs>
       <path id="DejaVuSans-53" d="M 3425 4513 
L 3425 3897 
Q 3066 4069 2747 4153 
Q 2428 4238 2131 4238 
Q 1616 4238 1336 4038 
Q 1056 3838 1056 3469 
Q 1056 3159 1242 3001 
Q 1428 2844 1947 2747 
L 2328 2669 
Q 3034 2534 3370 2195 
Q 3706 1856 3706 1288 
Q 3706 609 3251 259 
Q 2797 -91 1919 -91 
Q 1588 -91 1214 -16 
Q 841 59 441 206 
L 441 856 
Q 825 641 1194 531 
Q 1563 422 1919 422 
Q 2459 422 2753 634 
Q 3047 847 3047 1241 
Q 3047 1584 2836 1778 
Q 2625 1972 2144 2069 
L 1759 2144 
Q 1053 2284 737 2584 
Q 422 2884 422 3419 
Q 422 4038 858 4394 
Q 1294 4750 2059 4750 
Q 2388 4750 2728 4690 
Q 3069 4631 3425 4513 
z
" transform="scale(0.015625)"/>
       <path id="DejaVuSans-74" d="M 1172 4494 
L 1172 3500 
L 2356 3500 
L 2356 3053 
L 1172 3053 
L 1172 1153 
Q 1172 725 1289 603 
Q 1406 481 1766 481 
L 2356 481 
L 2356 0 
L 1766 0 
Q 1100 0 847 248 
Q 594 497 594 1153 
L 594 3053 
L 172 3053 
L 172 3500 
L 594 3500 
L 594 4494 
L 1172 4494 
z
" transform="scale(0.015625)"/>
       <path id="DejaVuSans-65" d="M 3597 1894 
L 3597 1613 
L 953 1613 
Q 991 1019 1311 708 
Q 1631 397 2203 397 
Q 2534 397 2845 478 
Q 3156 559 3463 722 
L 3463 178 
Q 3153 47 2828 -22 
Q 2503 -91 2169 -91 
Q 1331 -91 842 396 
Q 353 884 353 1716 
Q 353 2575 817 3079 
Q 1281 3584 2069 3584 
Q 2775 3584 3186 3129 
Q 3597 2675 3597 1894 
z
M 3022 2063 
Q 3016 2534 2758 2815 
Q 2500 3097 2075 3097 
Q 1594 3097 1305 2825 
Q 1016 2553 972 2059 
L 3022 2063 
z
" transform="scale(0.015625)"/>
       <path id="DejaVuSans-70" d="M 1159 525 
L 1159 -1331 
L 581 -1331 
L 581 3500 
L 1159 3500 
L 1159 2969 
Q 1341 3281 1617 3432 
Q 1894 3584 2278 3584 
Q 2916 3584 3314 3078 
Q 3713 2572 3713 1747 
Q 3713 922 3314 415 
Q 2916 -91 2278 -91 
Q 1894 -91 1617 61 
Q 1341 213 1159 525 
z
M 3116 1747 
Q 3116 2381 2855 2742 
Q 2594 3103 2138 3103 
Q 1681 3103 1420 2742 
Q 1159 2381 1159 1747 
Q 1159 1113 1420 752 
Q 1681 391 2138 391 
Q 2594 391 2855 752 
Q 3116 1113 3116 1747 
z
" transform="scale(0.015625)"/>
      </defs>
      <use xlink:href="#DejaVuSans-53"/>
      <use xlink:href="#DejaVuSans-74" transform="translate(63.476562 0)"/>
      <use xlink:href="#DejaVuSans-65" transform="translate(102.685547 0)"/>
      <use xlink:href="#DejaVuSans-70" transform="translate(164.208984 0)"/>
     </g>
    </g>
   </g>
   <g id="matplotlib.axis_2">
    <g id="ytick_1">
     <g id="line2d_7">
      <defs>
       <path id="m621d95d55f" d="M 0 0 
L -3.5 0 
" style="stroke: #000000; stroke-width: 0.8"/>
      </defs>
      <g>
       <use xlink:href="#m621d95d55f" x="50.87" y="380.033753" style="stroke: #000000; stroke-width: 0.8"/>
      </g>
     </g>
     <g id="text_8">
      <!-- 20 -->
      <g transform="translate(31.145 383.832972) scale(0.1 -0.1)">
       <use xlink:href="#DejaVuSans-32"/>
       <use xlink:href="#DejaVuSans-30" transform="translate(63.623047 0)"/>
      </g>
     </g>
    </g>
    <g id="ytick_2">
     <g id="line2d_8">
      <g>
       <use xlink:href="#m621d95d55f" x="50.87" y="321.939113" style="stroke: #000000; stroke-width: 0.8"/>
      </g>
     </g>
     <g id="text_9">
      <!-- 40 -->
      <g transform="translate(31.145 325.738332) scale(0.1 -0.1)">
       <defs>
        <path id="DejaVuSans-34" d="M 2419 4116 
L 825 1625 
L 2419 1625 
L 2419 4116 
z
M 2253 4666 
L 3047 4666 
L 3047 1625 
L 3713 1625 
L 3713 1100 
L 3047 1100 
L 3047 0 
L 2419 0 
L 2419 1100 
L 313 1100 
L 313 1709 
L 2253 4666 
z
" transform="scale(0.015625)"/>
       </defs>
       <use xlink:href="#DejaVuSans-34"/>
       <use xlink:href="#DejaVuSans-30" transform="translate(63.623047 0)"/>
      </g>
     </g>
    </g>
    <g id="ytick_3">
     <g id="line2d_9">
      <g>
       <use xlink:href="#m621d95d55f" x="50.87" y="263.844474" style="stroke: #000000; stroke-width: 0.8"/>
      </g>
     </g>
     <g id="text_10">
      <!-- 60 -->
      <g transform="translate(31.145 267.643692) scale(0.1 -0.1)">
       <defs>
        <path id="DejaVuSans-36" d="M 2113 2584 
Q 1688 2584 1439 2293 
Q 1191 2003 1191 1497 
Q 1191 994 1439 701 
Q 1688 409 2113 409 
Q 2538 409 2786 701 
Q 3034 994 3034 1497 
Q 3034 2003 2786 2293 
Q 2538 2584 2113 2584 
z
M 3366 4563 
L 3366 3988 
Q 3128 4100 2886 4159 
Q 2644 4219 2406 4219 
Q 1781 4219 1451 3797 
Q 1122 3375 1075 2522 
Q 1259 2794 1537 2939 
Q 1816 3084 2150 3084 
Q 2853 3084 3261 2657 
Q 3669 2231 3669 1497 
Q 3669 778 3244 343 
Q 2819 -91 2113 -91 
Q 1303 -91 875 529 
Q 447 1150 447 2328 
Q 447 3434 972 4092 
Q 1497 4750 2381 4750 
Q 2619 4750 2861 4703 
Q 3103 4656 3366 4563 
z
" transform="scale(0.015625)"/>
       </defs>
       <use xlink:href="#DejaVuSans-36"/>
       <use xlink:href="#DejaVuSans-30" transform="translate(63.623047 0)"/>
      </g>
     </g>
    </g>
    <g id="ytick_4">
     <g id="line2d_10">
      <g>
       <use xlink:href="#m621d95d55f" x="50.87" y="205.749834" style="stroke: #000000; stroke-width: 0.8"/>
      </g>
     </g>
     <g id="text_11">
      <!-- 80 -->
      <g transform="translate(31.145 209.549053) scale(0.1 -0.1)">
       <defs>
        <path id="DejaVuSans-38" d="M 2034 2216 
Q 1584 2216 1326 1975 
Q 1069 1734 1069 1313 
Q 1069 891 1326 650 
Q 1584 409 2034 409 
Q 2484 409 2743 651 
Q 3003 894 3003 1313 
Q 3003 1734 2745 1975 
Q 2488 2216 2034 2216 
z
M 1403 2484 
Q 997 2584 770 2862 
Q 544 3141 544 3541 
Q 544 4100 942 4425 
Q 1341 4750 2034 4750 
Q 2731 4750 3128 4425 
Q 3525 4100 3525 3541 
Q 3525 3141 3298 2862 
Q 3072 2584 2669 2484 
Q 3125 2378 3379 2068 
Q 3634 1759 3634 1313 
Q 3634 634 3220 271 
Q 2806 -91 2034 -91 
Q 1263 -91 848 271 
Q 434 634 434 1313 
Q 434 1759 690 2068 
Q 947 2378 1403 2484 
z
M 1172 3481 
Q 1172 3119 1398 2916 
Q 1625 2713 2034 2713 
Q 2441 2713 2670 2916 
Q 2900 3119 2900 3481 
Q 2900 3844 2670 4047 
Q 2441 4250 2034 4250 
Q 1625 4250 1398 4047 
Q 1172 3844 1172 3481 
z
" transform="scale(0.015625)"/>
       </defs>
       <use xlink:href="#DejaVuSans-38"/>
       <use xlink:href="#DejaVuSans-30" transform="translate(63.623047 0)"/>
      </g>
     </g>
    </g>
    <g id="ytick_5">
     <g id="line2d_11">
      <g>
       <use xlink:href="#m621d95d55f" x="50.87" y="147.655194" style="stroke: #000000; stroke-width: 0.8"/>
      </g>
     </g>
     <g id="text_12">
      <!-- 100 -->
      <g transform="translate(24.7825 151.454413) scale(0.1 -0.1)">
       <use xlink:href="#DejaVuSans-31"/>
       <use xlink:href="#DejaVuSans-30" transform="translate(63.623047 0)"/>
       <use xlink:href="#DejaVuSans-30" transform="translate(127.246094 0)"/>
      </g>
     </g>
    </g>
    <g id="ytick_6">
     <g id="line2d_12">
      <g>
       <use xlink:href="#m621d95d55f" x="50.87" y="89.560554" style="stroke: #000000; stroke-width: 0.8"/>
      </g>
     </g>
     <g id="text_13">
      <!-- 120 -->
      <g transform="translate(24.7825 93.359773) scale(0.1 -0.1)">
       <use xlink:href="#DejaVuSans-31"/>
       <use xlink:href="#DejaVuSans-32" transform="translate(63.623047 0)"/>
       <use xlink:href="#DejaVuSans-30" transform="translate(127.246094 0)"/>
      </g>
     </g>
    </g>
    <g id="text_14">
     <!-- Profit -->
     <g transform="translate(18.702813 229.779063) rotate(-90) scale(0.1 -0.1)">
      <defs>
       <path id="DejaVuSans-50" d="M 1259 4147 
L 1259 2394 
L 2053 2394 
Q 2494 2394 2734 2622 
Q 2975 2850 2975 3272 
Q 2975 3691 2734 3919 
Q 2494 4147 2053 4147 
L 1259 4147 
z
M 628 4666 
L 2053 4666 
Q 2838 4666 3239 4311 
Q 3641 3956 3641 3272 
Q 3641 2581 3239 2228 
Q 2838 1875 2053 1875 
L 1259 1875 
L 1259 0 
L 628 0 
L 628 4666 
z
" transform="scale(0.015625)"/>
       <path id="DejaVuSans-72" d="M 2631 2963 
Q 2534 3019 2420 3045 
Q 2306 3072 2169 3072 
Q 1681 3072 1420 2755 
Q 1159 2438 1159 1844 
L 1159 0 
L 581 0 
L 581 3500 
L 1159 3500 
L 1159 2956 
Q 1341 3275 1631 3429 
Q 1922 3584 2338 3584 
Q 2397 3584 2469 3576 
Q 2541 3569 2628 3553 
L 2631 2963 
z
" transform="scale(0.015625)"/>
       <path id="DejaVuSans-6f" d="M 1959 3097 
Q 1497 3097 1228 2736 
Q 959 2375 959 1747 
Q 959 1119 1226 758 
Q 1494 397 1959 397 
Q 2419 397 2687 759 
Q 2956 1122 2956 1747 
Q 2956 2369 2687 2733 
Q 2419 3097 1959 3097 
z
M 1959 3584 
Q 2709 3584 3137 3096 
Q 3566 2609 3566 1747 
Q 3566 888 3137 398 
Q 2709 -91 1959 -91 
Q 1206 -91 779 398 
Q 353 888 353 1747 
Q 353 2609 779 3096 
Q 1206 3584 1959 3584 
z
" transform="scale(0.015625)"/>
       <path id="DejaVuSans-66" d="M 2375 4863 
L 2375 4384 
L 1825 4384 
Q 1516 4384 1395 4259 
Q 1275 4134 1275 3809 
L 1275 3500 
L 2222 3500 
L 2222 3053 
L 1275 3053 
L 1275 0 
L 697 0 
L 697 3053 
L 147 3053 
L 147 3500 
L 697 3500 
L 697 3744 
Q 697 4328 969 4595 
Q 1241 4863 1831 4863 
L 2375 4863 
z
" transform="scale(0.015625)"/>
       <path id="DejaVuSans-69" d="M 603 3500 
L 1178 3500 
L 1178 0 
L 603 0 
L 603 3500 
z
M 603 4863 
L 1178 4863 
L 1178 4134 
L 603 4134 
L 603 4863 
z
" transform="scale(0.015625)"/>
      </defs>
      <use xlink:href="#DejaVuSans-50"/>
      <use xlink:href="#DejaVuSans-72" transform="translate(58.552734 0)"/>
      <use xlink:href="#DejaVuSans-6f" transform="translate(97.416016 0)"/>
      <use xlink:href="#DejaVuSans-66" transform="translate(158.597656 0)"/>
      <use xlink:href="#DejaVuSans-69" transform="translate(193.802734 0)"/>
      <use xlink:href="#DejaVuSans-74" transform="translate(221.585938 0)"/>
     </g>
    </g>
   </g>
   <g id="line2d_13">
    <path d="M 52.193327 246.563853 
L 54.83998 247.082363 
L 57.486633 234.814683 
L 60.133287 224.570069 
L 62.77994 215.893326 
L 65.426593 208.311065 
L 68.073247 201.751594 
L 70.7199 195.994121 
L 73.366553 190.88664 
L 76.013207 186.430436 
L 78.65986 182.540123 
L 81.306513 178.93261 
L 83.953167 175.848814 
L 89.246473 170.541859 
L 91.893127 168.1243 
L 97.186433 163.701006 
L 99.833087 161.747616 
L 107.773047 156.844352 
L 110.4197 155.367276 
L 113.066353 154.061862 
L 118.35966 151.263992 
L 123.652967 149.010338 
L 128.946273 146.8723 
L 142.17954 142.570362 
L 150.1195 140.492669 
L 163.352767 137.443401 
L 179.232687 134.292855 
L 197.75926 131.287245 
L 203.052567 130.571278 
L 208.345873 129.851544 
L 221.57914 128.273656 
L 229.5191 127.387645 
L 234.812407 126.72573 
L 255.985633 124.569077 
L 295.685433 121.341144 
L 332.73858 119.048951 
L 345.971847 118.352442 
L 353.911807 117.935676 
L 388.3183 116.1471 
L 409.491527 115.149729 
L 491.53778 112.193671 
L 512.711007 111.664503 
L 552.410807 110.654942 
L 600.050567 109.597691 
L 618.57714 109.169534 
L 777.37634 106.480188 
L 843.542673 105.568027 
L 843.542673 105.568027 
" clip-path="url(#pdc0b2fe6e0)" style="fill: none; stroke: #0000ff; stroke-width: 1.5; stroke-linecap: square"/>
   </g>
   <g id="patch_3">
    <path d="M 50.87 390.04 
L 50.87 43.44 
" style="fill: none; stroke: #000000; stroke-width: 0.8; stroke-linejoin: miter; stroke-linecap: square"/>
   </g>
   <g id="patch_4">
    <path d="M 844.866 390.04 
L 844.866 43.44 
" style="fill: none; stroke: #000000; stroke-width: 0.8; stroke-linejoin: miter; stroke-linecap: square"/>
   </g>
   <g id="patch_5">
    <path d="M 50.87 390.04 
L 844.866 390.04 
" style="fill: none; stroke: #000000; stroke-width: 0.8; stroke-linejoin: miter; stroke-linecap: square"/>
   </g>
   <g id="patch_6">
    <path d="M 50.87 43.44 
L 844.866 43.44 
" style="fill: none; stroke: #000000; stroke-width: 0.8; stroke-linejoin: miter; stroke-linecap: square"/>
   </g>
   <g id="text_15">
    <!-- Mean profit per step with confidence interval per simulation step -->
    <g transform="translate(220.284875 21.763062) scale(0.14 -0.14)">
     <defs>
      <path id="DejaVuSans-4d" d="M 628 4666 
L 1569 4666 
L 2759 1491 
L 3956 4666 
L 4897 4666 
L 4897 0 
L 4281 0 
L 4281 4097 
L 3078 897 
L 2444 897 
L 1241 4097 
L 1241 0 
L 628 0 
L 628 4666 
z
" transform="scale(0.015625)"/>
      <path id="DejaVuSans-61" d="M 2194 1759 
Q 1497 1759 1228 1600 
Q 959 1441 959 1056 
Q 959 750 1161 570 
Q 1363 391 1709 391 
Q 2188 391 2477 730 
Q 2766 1069 2766 1631 
L 2766 1759 
L 2194 1759 
z
M 3341 1997 
L 3341 0 
L 2766 0 
L 2766 531 
Q 2569 213 2275 61 
Q 1981 -91 1556 -91 
Q 1019 -91 701 211 
Q 384 513 384 1019 
Q 384 1609 779 1909 
Q 1175 2209 1959 2209 
L 2766 2209 
L 2766 2266 
Q 2766 2663 2505 2880 
Q 2244 3097 1772 3097 
Q 1472 3097 1187 3025 
Q 903 2953 641 2809 
L 641 3341 
Q 956 3463 1253 3523 
Q 1550 3584 1831 3584 
Q 2591 3584 2966 3190 
Q 3341 2797 3341 1997 
z
" transform="scale(0.015625)"/>
      <path id="DejaVuSans-6e" d="M 3513 2113 
L 3513 0 
L 2938 0 
L 2938 2094 
Q 2938 2591 2744 2837 
Q 2550 3084 2163 3084 
Q 1697 3084 1428 2787 
Q 1159 2491 1159 1978 
L 1159 0 
L 581 0 
L 581 3500 
L 1159 3500 
L 1159 2956 
Q 1366 3272 1645 3428 
Q 1925 3584 2291 3584 
Q 2894 3584 3203 3211 
Q 3513 2838 3513 2113 
z
" transform="scale(0.015625)"/>
      <path id="DejaVuSans-20" transform="scale(0.015625)"/>
      <path id="DejaVuSans-73" d="M 2834 3397 
L 2834 2853 
Q 2591 2978 2328 3040 
Q 2066 3103 1784 3103 
Q 1356 3103 1142 2972 
Q 928 2841 928 2578 
Q 928 2378 1081 2264 
Q 1234 2150 1697 2047 
L 1894 2003 
Q 2506 1872 2764 1633 
Q 3022 1394 3022 966 
Q 3022 478 2636 193 
Q 2250 -91 1575 -91 
Q 1294 -91 989 -36 
Q 684 19 347 128 
L 347 722 
Q 666 556 975 473 
Q 1284 391 1588 391 
Q 1994 391 2212 530 
Q 2431 669 2431 922 
Q 2431 1156 2273 1281 
Q 2116 1406 1581 1522 
L 1381 1569 
Q 847 1681 609 1914 
Q 372 2147 372 2553 
Q 372 3047 722 3315 
Q 1072 3584 1716 3584 
Q 2034 3584 2315 3537 
Q 2597 3491 2834 3397 
z
" transform="scale(0.015625)"/>
      <path id="DejaVuSans-77" d="M 269 3500 
L 844 3500 
L 1563 769 
L 2278 3500 
L 2956 3500 
L 3675 769 
L 4391 3500 
L 4966 3500 
L 4050 0 
L 3372 0 
L 2619 2869 
L 1863 0 
L 1184 0 
L 269 3500 
z
" transform="scale(0.015625)"/>
      <path id="DejaVuSans-68" d="M 3513 2113 
L 3513 0 
L 2938 0 
L 2938 2094 
Q 2938 2591 2744 2837 
Q 2550 3084 2163 3084 
Q 1697 3084 1428 2787 
Q 1159 2491 1159 1978 
L 1159 0 
L 581 0 
L 581 4863 
L 1159 4863 
L 1159 2956 
Q 1366 3272 1645 3428 
Q 1925 3584 2291 3584 
Q 2894 3584 3203 3211 
Q 3513 2838 3513 2113 
z
" transform="scale(0.015625)"/>
      <path id="DejaVuSans-63" d="M 3122 3366 
L 3122 2828 
Q 2878 2963 2633 3030 
Q 2388 3097 2138 3097 
Q 1578 3097 1268 2742 
Q 959 2388 959 1747 
Q 959 1106 1268 751 
Q 1578 397 2138 397 
Q 2388 397 2633 464 
Q 2878 531 3122 666 
L 3122 134 
Q 2881 22 2623 -34 
Q 2366 -91 2075 -91 
Q 1284 -91 818 406 
Q 353 903 353 1747 
Q 353 2603 823 3093 
Q 1294 3584 2113 3584 
Q 2378 3584 2631 3529 
Q 2884 3475 3122 3366 
z
" transform="scale(0.015625)"/>
      <path id="DejaVuSans-64" d="M 2906 2969 
L 2906 4863 
L 3481 4863 
L 3481 0 
L 2906 0 
L 2906 525 
Q 2725 213 2448 61 
Q 2172 -91 1784 -91 
Q 1150 -91 751 415 
Q 353 922 353 1747 
Q 353 2572 751 3078 
Q 1150 3584 1784 3584 
Q 2172 3584 2448 3432 
Q 2725 3281 2906 2969 
z
M 947 1747 
Q 947 1113 1208 752 
Q 1469 391 1925 391 
Q 2381 391 2643 752 
Q 2906 1113 2906 1747 
Q 2906 2381 2643 2742 
Q 2381 3103 1925 3103 
Q 1469 3103 1208 2742 
Q 947 2381 947 1747 
z
" transform="scale(0.015625)"/>
      <path id="DejaVuSans-76" d="M 191 3500 
L 800 3500 
L 1894 563 
L 2988 3500 
L 3597 3500 
L 2284 0 
L 1503 0 
L 191 3500 
z
" transform="scale(0.015625)"/>
      <path id="DejaVuSans-6c" d="M 603 4863 
L 1178 4863 
L 1178 0 
L 603 0 
L 603 4863 
z
" transform="scale(0.015625)"/>
      <path id="DejaVuSans-6d" d="M 3328 2828 
Q 3544 3216 3844 3400 
Q 4144 3584 4550 3584 
Q 5097 3584 5394 3201 
Q 5691 2819 5691 2113 
L 5691 0 
L 5113 0 
L 5113 2094 
Q 5113 2597 4934 2840 
Q 4756 3084 4391 3084 
Q 3944 3084 3684 2787 
Q 3425 2491 3425 1978 
L 3425 0 
L 2847 0 
L 2847 2094 
Q 2847 2600 2669 2842 
Q 2491 3084 2119 3084 
Q 1678 3084 1418 2786 
Q 1159 2488 1159 1978 
L 1159 0 
L 581 0 
L 581 3500 
L 1159 3500 
L 1159 2956 
Q 1356 3278 1631 3431 
Q 1906 3584 2284 3584 
Q 2666 3584 2933 3390 
Q 3200 3197 3328 2828 
z
" transform="scale(0.015625)"/>
      <path id="DejaVuSans-75" d="M 544 1381 
L 544 3500 
L 1119 3500 
L 1119 1403 
Q 1119 906 1312 657 
Q 1506 409 1894 409 
Q 2359 409 2629 706 
Q 2900 1003 2900 1516 
L 2900 3500 
L 3475 3500 
L 3475 0 
L 2900 0 
L 2900 538 
Q 2691 219 2414 64 
Q 2138 -91 1772 -91 
Q 1169 -91 856 284 
Q 544 659 544 1381 
z
M 1991 3584 
L 1991 3584 
z
" transform="scale(0.015625)"/>
     </defs>
     <use xlink:href="#DejaVuSans-4d"/>
     <use xlink:href="#DejaVuSans-65" transform="translate(86.279297 0)"/>
     <use xlink:href="#DejaVuSans-61" transform="translate(147.802734 0)"/>
     <use xlink:href="#DejaVuSans-6e" transform="translate(209.082031 0)"/>
     <use xlink:href="#DejaVuSans-20" transform="translate(272.460938 0)"/>
     <use xlink:href="#DejaVuSans-70" transform="translate(304.248047 0)"/>
     <use xlink:href="#DejaVuSans-72" transform="translate(367.724609 0)"/>
     <use xlink:href="#DejaVuSans-6f" transform="translate(406.587891 0)"/>
     <use xlink:href="#DejaVuSans-66" transform="translate(467.769531 0)"/>
     <use xlink:href="#DejaVuSans-69" transform="translate(502.974609 0)"/>
     <use xlink:href="#DejaVuSans-74" transform="translate(530.757812 0)"/>
     <use xlink:href="#DejaVuSans-20" transform="translate(569.966797 0)"/>
     <use xlink:href="#DejaVuSans-70" transform="translate(601.753906 0)"/>
     <use xlink:href="#DejaVuSans-65" transform="translate(665.230469 0)"/>
     <use xlink:href="#DejaVuSans-72" transform="translate(726.753906 0)"/>
     <use xlink:href="#DejaVuSans-20" transform="translate(767.867188 0)"/>
     <use xlink:href="#DejaVuSans-73" transform="translate(799.654297 0)"/>
     <use xlink:href="#DejaVuSans-74" transform="translate(851.753906 0)"/>
     <use xlink:href="#DejaVuSans-65" transform="translate(890.962891 0)"/>
     <use xlink:href="#DejaVuSans-70" transform="translate(952.486328 0)"/>
     <use xlink:href="#DejaVuSans-20" transform="translate(1015.962891 0)"/>
     <use xlink:href="#DejaVuSans-77" transform="translate(1047.75 0)"/>
     <use xlink:href="#DejaVuSans-69" transform="translate(1129.537109 0)"/>
     <use xlink:href="#DejaVuSans-74" transform="translate(1157.320312 0)"/>
     <use xlink:href="#DejaVuSans-68" transform="translate(1196.529297 0)"/>
     <use xlink:href="#DejaVuSans-20" transform="translate(1259.908203 0)"/>
     <use xlink:href="#DejaVuSans-63" transform="translate(1291.695312 0)"/>
     <use xlink:href="#DejaVuSans-6f" transform="translate(1346.675781 0)"/>
     <use xlink:href="#DejaVuSans-6e" transform="translate(1407.857422 0)"/>
     <use xlink:href="#DejaVuSans-66" transform="translate(1471.236328 0)"/>
     <use xlink:href="#DejaVuSans-69" transform="translate(1506.441406 0)"/>
     <use xlink:href="#DejaVuSans-64" transform="translate(1534.224609 0)"/>
     <use xlink:href="#DejaVuSans-65" transform="translate(1597.701172 0)"/>
     <use xlink:href="#DejaVuSans-6e" transform="translate(1659.224609 0)"/>
     <use xlink:href="#DejaVuSans-63" transform="translate(1722.603516 0)"/>
     <use xlink:href="#DejaVuSans-65" transform="translate(1777.583984 0)"/>
     <use xlink:href="#DejaVuSans-20" transform="translate(1839.107422 0)"/>
     <use xlink:href="#DejaVuSans-69" transform="translate(1870.894531 0)"/>
     <use xlink:href="#DejaVuSans-6e" transform="translate(1898.677734 0)"/>
     <use xlink:href="#DejaVuSans-74" transform="translate(1962.056641 0)"/>
     <use xlink:href="#DejaVuSans-65" transform="translate(2001.265625 0)"/>
     <use xlink:href="#DejaVuSans-72" transform="translate(2062.789062 0)"/>
     <use xlink:href="#DejaVuSans-76" transform="translate(2103.902344 0)"/>
     <use xlink:href="#DejaVuSans-61" transform="translate(2163.082031 0)"/>
     <use xlink:href="#DejaVuSans-6c" transform="translate(2224.361328 0)"/>
     <use xlink:href="#DejaVuSans-20" transform="translate(2252.144531 0)"/>
     <use xlink:href="#DejaVuSans-70" transform="translate(2283.931641 0)"/>
     <use xlink:href="#DejaVuSans-65" transform="translate(2347.408203 0)"/>
     <use xlink:href="#DejaVuSans-72" transform="translate(2408.931641 0)"/>
     <use xlink:href="#DejaVuSans-20" transform="translate(2450.044922 0)"/>
     <use xlink:href="#DejaVuSans-73" transform="translate(2481.832031 0)"/>
     <use xlink:href="#DejaVuSans-69" transform="translate(2533.931641 0)"/>
     <use xlink:href="#DejaVuSans-6d" transform="translate(2561.714844 0)"/>
     <use xlink:href="#DejaVuSans-75" transform="translate(2659.126953 0)"/>
     <use xlink:href="#DejaVuSans-6c" transform="translate(2722.505859 0)"/>
     <use xlink:href="#DejaVuSans-61" transform="translate(2750.289062 0)"/>
     <use xlink:href="#DejaVuSans-74" transform="translate(2811.568359 0)"/>
     <use xlink:href="#DejaVuSans-69" transform="translate(2850.777344 0)"/>
     <use xlink:href="#DejaVuSans-6f" transform="translate(2878.560547 0)"/>
     <use xlink:href="#DejaVuSans-6e" transform="translate(2939.742188 0)"/>
     <use xlink:href="#DejaVuSans-20" transform="translate(3003.121094 0)"/>
     <use xlink:href="#DejaVuSans-73" transform="translate(3034.908203 0)"/>
     <use xlink:href="#DejaVuSans-74" transform="translate(3087.007812 0)"/>
     <use xlink:href="#DejaVuSans-65" transform="translate(3126.216797 0)"/>
     <use xlink:href="#DejaVuSans-70" transform="translate(3187.740234 0)"/>
    </g>
    <!-- Base Product: Green Crack, Recipe size: 7, T0: 5.0 -->
    <g transform="translate(272.485187 37.44) scale(0.14 -0.14)">
     <defs>
      <path id="DejaVuSans-42" d="M 1259 2228 
L 1259 519 
L 2272 519 
Q 2781 519 3026 730 
Q 3272 941 3272 1375 
Q 3272 1813 3026 2020 
Q 2781 2228 2272 2228 
L 1259 2228 
z
M 1259 4147 
L 1259 2741 
L 2194 2741 
Q 2656 2741 2882 2914 
Q 3109 3088 3109 3444 
Q 3109 3797 2882 3972 
Q 2656 4147 2194 4147 
L 1259 4147 
z
M 628 4666 
L 2241 4666 
Q 2963 4666 3353 4366 
Q 3744 4066 3744 3513 
Q 3744 3084 3544 2831 
Q 3344 2578 2956 2516 
Q 3422 2416 3680 2098 
Q 3938 1781 3938 1306 
Q 3938 681 3513 340 
Q 3088 0 2303 0 
L 628 0 
L 628 4666 
z
" transform="scale(0.015625)"/>
      <path id="DejaVuSans-3a" d="M 750 794 
L 1409 794 
L 1409 0 
L 750 0 
L 750 794 
z
M 750 3309 
L 1409 3309 
L 1409 2516 
L 750 2516 
L 750 3309 
z
" transform="scale(0.015625)"/>
      <path id="DejaVuSans-47" d="M 3809 666 
L 3809 1919 
L 2778 1919 
L 2778 2438 
L 4434 2438 
L 4434 434 
Q 4069 175 3628 42 
Q 3188 -91 2688 -91 
Q 1594 -91 976 548 
Q 359 1188 359 2328 
Q 359 3472 976 4111 
Q 1594 4750 2688 4750 
Q 3144 4750 3555 4637 
Q 3966 4525 4313 4306 
L 4313 3634 
Q 3963 3931 3569 4081 
Q 3175 4231 2741 4231 
Q 1884 4231 1454 3753 
Q 1025 3275 1025 2328 
Q 1025 1384 1454 906 
Q 1884 428 2741 428 
Q 3075 428 3337 486 
Q 3600 544 3809 666 
z
" transform="scale(0.015625)"/>
      <path id="DejaVuSans-43" d="M 4122 4306 
L 4122 3641 
Q 3803 3938 3442 4084 
Q 3081 4231 2675 4231 
Q 1875 4231 1450 3742 
Q 1025 3253 1025 2328 
Q 1025 1406 1450 917 
Q 1875 428 2675 428 
Q 3081 428 3442 575 
Q 3803 722 4122 1019 
L 4122 359 
Q 3791 134 3420 21 
Q 3050 -91 2638 -91 
Q 1578 -91 968 557 
Q 359 1206 359 2328 
Q 359 3453 968 4101 
Q 1578 4750 2638 4750 
Q 3056 4750 3426 4639 
Q 3797 4528 4122 4306 
z
" transform="scale(0.015625)"/>
      <path id="DejaVuSans-6b" d="M 581 4863 
L 1159 4863 
L 1159 1991 
L 2875 3500 
L 3609 3500 
L 1753 1863 
L 3688 0 
L 2938 0 
L 1159 1709 
L 1159 0 
L 581 0 
L 581 4863 
z
" transform="scale(0.015625)"/>
      <path id="DejaVuSans-2c" d="M 750 794 
L 1409 794 
L 1409 256 
L 897 -744 
L 494 -744 
L 750 256 
L 750 794 
z
" transform="scale(0.015625)"/>
      <path id="DejaVuSans-52" d="M 2841 2188 
Q 3044 2119 3236 1894 
Q 3428 1669 3622 1275 
L 4263 0 
L 3584 0 
L 2988 1197 
Q 2756 1666 2539 1819 
Q 2322 1972 1947 1972 
L 1259 1972 
L 1259 0 
L 628 0 
L 628 4666 
L 2053 4666 
Q 2853 4666 3247 4331 
Q 3641 3997 3641 3322 
Q 3641 2881 3436 2590 
Q 3231 2300 2841 2188 
z
M 1259 4147 
L 1259 2491 
L 2053 2491 
Q 2509 2491 2742 2702 
Q 2975 2913 2975 3322 
Q 2975 3731 2742 3939 
Q 2509 4147 2053 4147 
L 1259 4147 
z
" transform="scale(0.015625)"/>
      <path id="DejaVuSans-7a" d="M 353 3500 
L 3084 3500 
L 3084 2975 
L 922 459 
L 3084 459 
L 3084 0 
L 275 0 
L 275 525 
L 2438 3041 
L 353 3041 
L 353 3500 
z
" transform="scale(0.015625)"/>
      <path id="DejaVuSans-37" d="M 525 4666 
L 3525 4666 
L 3525 4397 
L 1831 0 
L 1172 0 
L 2766 4134 
L 525 4134 
L 525 4666 
z
" transform="scale(0.015625)"/>
      <path id="DejaVuSans-54" d="M -19 4666 
L 3928 4666 
L 3928 4134 
L 2272 4134 
L 2272 0 
L 1638 0 
L 1638 4134 
L -19 4134 
L -19 4666 
z
" transform="scale(0.015625)"/>
      <path id="DejaVuSans-2e" d="M 684 794 
L 1344 794 
L 1344 0 
L 684 0 
L 684 794 
z
" transform="scale(0.015625)"/>
     </defs>
     <use xlink:href="#DejaVuSans-42"/>
     <use xlink:href="#DejaVuSans-61" transform="translate(68.603516 0)"/>
     <use xlink:href="#DejaVuSans-73" transform="translate(129.882812 0)"/>
     <use xlink:href="#DejaVuSans-65" transform="translate(181.982422 0)"/>
     <use xlink:href="#DejaVuSans-20" transform="translate(243.505859 0)"/>
     <use xlink:href="#DejaVuSans-50" transform="translate(275.292969 0)"/>
     <use xlink:href="#DejaVuSans-72" transform="translate(333.845703 0)"/>
     <use xlink:href="#DejaVuSans-6f" transform="translate(372.708984 0)"/>
     <use xlink:href="#DejaVuSans-64" transform="translate(433.890625 0)"/>
     <use xlink:href="#DejaVuSans-75" transform="translate(497.367188 0)"/>
     <use xlink:href="#DejaVuSans-63" transform="translate(560.746094 0)"/>
     <use xlink:href="#DejaVuSans-74" transform="translate(615.726562 0)"/>
     <use xlink:href="#DejaVuSans-3a" transform="translate(654.935547 0)"/>
     <use xlink:href="#DejaVuSans-20" transform="translate(688.626953 0)"/>
     <use xlink:href="#DejaVuSans-47" transform="translate(720.414062 0)"/>
     <use xlink:href="#DejaVuSans-72" transform="translate(797.904297 0)"/>
     <use xlink:href="#DejaVuSans-65" transform="translate(836.767578 0)"/>
     <use xlink:href="#DejaVuSans-65" transform="translate(898.291016 0)"/>
     <use xlink:href="#DejaVuSans-6e" transform="translate(959.814453 0)"/>
     <use xlink:href="#DejaVuSans-20" transform="translate(1023.193359 0)"/>
     <use xlink:href="#DejaVuSans-43" transform="translate(1054.980469 0)"/>
     <use xlink:href="#DejaVuSans-72" transform="translate(1124.804688 0)"/>
     <use xlink:href="#DejaVuSans-61" transform="translate(1165.917969 0)"/>
     <use xlink:href="#DejaVuSans-63" transform="translate(1227.197266 0)"/>
     <use xlink:href="#DejaVuSans-6b" transform="translate(1282.177734 0)"/>
     <use xlink:href="#DejaVuSans-2c" transform="translate(1340.087891 0)"/>
     <use xlink:href="#DejaVuSans-20" transform="translate(1371.875 0)"/>
     <use xlink:href="#DejaVuSans-52" transform="translate(1403.662109 0)"/>
     <use xlink:href="#DejaVuSans-65" transform="translate(1468.644531 0)"/>
     <use xlink:href="#DejaVuSans-63" transform="translate(1530.167969 0)"/>
     <use xlink:href="#DejaVuSans-69" transform="translate(1585.148438 0)"/>
     <use xlink:href="#DejaVuSans-70" transform="translate(1612.931641 0)"/>
     <use xlink:href="#DejaVuSans-65" transform="translate(1676.408203 0)"/>
     <use xlink:href="#DejaVuSans-20" transform="translate(1737.931641 0)"/>
     <use xlink:href="#DejaVuSans-73" transform="translate(1769.71875 0)"/>
     <use xlink:href="#DejaVuSans-69" transform="translate(1821.818359 0)"/>
     <use xlink:href="#DejaVuSans-7a" transform="translate(1849.601562 0)"/>
     <use xlink:href="#DejaVuSans-65" transform="translate(1902.091797 0)"/>
     <use xlink:href="#DejaVuSans-3a" transform="translate(1963.615234 0)"/>
     <use xlink:href="#DejaVuSans-20" transform="translate(1997.306641 0)"/>
     <use xlink:href="#DejaVuSans-37" transform="translate(2029.09375 0)"/>
     <use xlink:href="#DejaVuSans-2c" transform="translate(2092.716797 0)"/>
     <use xlink:href="#DejaVuSans-20" transform="translate(2124.503906 0)"/>
     <use xlink:href="#DejaVuSans-54" transform="translate(2156.291016 0)"/>
     <use xlink:href="#DejaVuSans-30" transform="translate(2217.375 0)"/>
     <use xlink:href="#DejaVuSans-3a" transform="translate(2280.998047 0)"/>
     <use xlink:href="#DejaVuSans-20" transform="translate(2314.689453 0)"/>
     <use xlink:href="#DejaVuSans-35" transform="translate(2346.476562 0)"/>
     <use xlink:href="#DejaVuSans-2e" transform="translate(2410.099609 0)"/>
     <use xlink:href="#DejaVuSans-30" transform="translate(2441.886719 0)"/>
    </g>
   </g>
  </g>
 </g>
 <defs>
  <clipPath id="pdc0b2fe6e0">
   <rect x="50.87" y="43.44" width="793.996" height="346.6"/>
  </clipPath>
 </defs>
</svg>
