<?xml version="1.0" encoding="utf-8" standalone="no"?>
<!DOCTYPE svg PUBLIC "-//W3C//DTD SVG 1.1//EN"
  "http://www.w3.org/Graphics/SVG/1.1/DTD/svg11.dtd">
<svg xmlns:xlink="http://www.w3.org/1999/xlink" width="864pt" height="432pt" viewBox="0 0 864 432" xmlns="http://www.w3.org/2000/svg" version="1.1">
 <metadata>
  <rdf:RDF xmlns:dc="http://purl.org/dc/elements/1.1/" xmlns:cc="http://creativecommons.org/ns#" xmlns:rdf="http://www.w3.org/1999/02/22-rdf-syntax-ns#">
   <cc:Work>
    <dc:type rdf:resource="http://purl.org/dc/dcmitype/StillImage"/>
    <dc:date>2025-05-24T02:09:15.261953</dc:date>
    <dc:format>image/svg+xml</dc:format>
    <dc:creator>
     <cc:Agent>
      <dc:title>Matplotlib v3.10.3, https://matplotlib.org/</dc:title>
     </cc:Agent>
    </dc:creator>
   </cc:Work>
  </rdf:RDF>
 </metadata>
 <defs>
  <style type="text/css">*{stroke-linejoin: round; stroke-linecap: butt}</style>
 </defs>
 <g id="figure_1">
  <g id="patch_1">
   <path d="M 0 432 
L 864 432 
L 864 0 
L 0 0 
z
" style="fill: #ffffff"/>
  </g>
  <g id="axes_1">
   <g id="patch_2">
    <path d="M 50.87 390.04 
L 844.866 390.04 
L 844.866 43.44 
L 50.87 43.44 
z
" style="fill: #ffffff"/>
   </g>
   <g id="FillBetweenPolyCollection_1">
    <defs>
     <path id="m9baf53244b" d="M 52.193327 -304.404907 
L 52.193327 -58.58943 
L 54.83998 -57.714545 
L 57.486633 -66.355718 
L 60.133287 -73.597678 
L 62.77994 -80.078522 
L 65.426593 -86.117103 
L 68.073247 -92.246611 
L 70.7199 -97.346139 
L 73.366553 -103.608811 
L 76.013207 -108.46496 
L 78.65986 -112.354045 
L 81.306513 -115.643629 
L 83.953167 -119.057118 
L 86.59982 -122.153084 
L 89.246473 -126.01116 
L 91.893127 -128.764 
L 94.53978 -131.923128 
L 97.186433 -134.03819 
L 99.833087 -136.696623 
L 102.47974 -139.257684 
L 105.126393 -141.545086 
L 107.773047 -142.888619 
L 110.4197 -144.856934 
L 113.066353 -146.092424 
L 115.713007 -147.556426 
L 118.35966 -149.290449 
L 121.006313 -150.569214 
L 123.652967 -152.789375 
L 126.29962 -154.223321 
L 128.946273 -155.011527 
L 131.592927 -157.365548 
L 134.23958 -158.98622 
L 136.886233 -161.108025 
L 139.532887 -162.026634 
L 142.17954 -163.199122 
L 144.826193 -163.367073 
L 147.472847 -164.208947 
L 150.1195 -165.786097 
L 152.766153 -166.928219 
L 155.412807 -167.952858 
L 158.05946 -168.679443 
L 160.706113 -169.334485 
L 163.352767 -170.973246 
L 165.99942 -171.373519 
L 168.646073 -171.293777 
L 171.292727 -172.1653 
L 173.93938 -172.466522 
L 176.586033 -172.964809 
L 179.232687 -174.199111 
L 181.87934 -174.950742 
L 184.525993 -175.631944 
L 187.172647 -176.68924 
L 189.8193 -176.741816 
L 192.465953 -177.619536 
L 195.112607 -177.497665 
L 197.75926 -177.356377 
L 200.405913 -178.274471 
L 203.052567 -179.169874 
L 205.69922 -179.73036 
L 208.345873 -180.10259 
L 210.992527 -182.024195 
L 213.63918 -182.269158 
L 216.285833 -183.217159 
L 218.932487 -183.360074 
L 221.57914 -184.411236 
L 224.225793 -184.467431 
L 226.872447 -184.631796 
L 229.5191 -185.422838 
L 232.165753 -186.189776 
L 234.812407 -186.581294 
L 237.45906 -186.557981 
L 240.105713 -187.050456 
L 242.752367 -188.062914 
L 245.39902 -188.3931 
L 248.045673 -189.003808 
L 250.692327 -189.756081 
L 253.33898 -189.607001 
L 255.985633 -189.563266 
L 258.632287 -189.952279 
L 261.27894 -190.081472 
L 263.925593 -190.694556 
L 266.572247 -191.576601 
L 269.2189 -192.414632 
L 271.865553 -193.25033 
L 274.512207 -193.483798 
L 277.15886 -193.555577 
L 279.805513 -193.43332 
L 282.452167 -193.427433 
L 285.09882 -193.879362 
L 287.745473 -194.045889 
L 290.392127 -194.837788 
L 293.03878 -194.721803 
L 295.685433 -194.638058 
L 298.332087 -194.95966 
L 300.97874 -195.620524 
L 303.625393 -195.560263 
L 306.272047 -196.120749 
L 308.9187 -196.434815 
L 311.565353 -196.998426 
L 314.212007 -196.544784 
L 316.85866 -197.332723 
L 319.505313 -197.354558 
L 322.151967 -197.616583 
L 324.79862 -197.569487 
L 327.445273 -197.933219 
L 330.091927 -198.398121 
L 332.73858 -198.139414 
L 335.385233 -198.364554 
L 338.031887 -198.466111 
L 340.67854 -198.793128 
L 343.325193 -198.692471 
L 345.971847 -198.851335 
L 348.6185 -199.353764 
L 351.265153 -199.547693 
L 353.911807 -199.54369 
L 356.55846 -199.779619 
L 359.205113 -200.465145 
L 361.851767 -199.780754 
L 364.49842 -200.258693 
L 367.145073 -199.7556 
L 369.791727 -200.27477 
L 372.43838 -200.794304 
L 375.085033 -200.967981 
L 377.731687 -201.824958 
L 380.37834 -201.922618 
L 383.024993 -202.286157 
L 385.671647 -202.865802 
L 388.3183 -203.464671 
L 390.964953 -203.915145 
L 393.611607 -203.98033 
L 396.25826 -203.74515 
L 398.904913 -204.26113 
L 401.551567 -204.481753 
L 404.19822 -204.721943 
L 406.844873 -204.500335 
L 409.491527 -204.7867 
L 412.13818 -205.174129 
L 414.784833 -205.177126 
L 417.431487 -205.617389 
L 420.07814 -205.72541 
L 422.724793 -205.115559 
L 425.371447 -205.16152 
L 428.0181 -205.522897 
L 430.664753 -204.959179 
L 433.311407 -204.819881 
L 435.95806 -204.931242 
L 438.604713 -204.829258 
L 441.251367 -205.274765 
L 443.89802 -205.422625 
L 446.544673 -205.887035 
L 449.191327 -206.812515 
L 451.83798 -206.376235 
L 454.484633 -206.938048 
L 457.131287 -206.722733 
L 459.77794 -206.597971 
L 462.424593 -206.68816 
L 465.071247 -207.399996 
L 467.7179 -207.659516 
L 470.364553 -207.522724 
L 473.011207 -207.463276 
L 475.65786 -207.627213 
L 478.304513 -207.477854 
L 480.951167 -208.231862 
L 483.59782 -208.123498 
L 486.244473 -208.277802 
L 488.891127 -208.720505 
L 491.53778 -208.695801 
L 494.184433 -208.733221 
L 496.831087 -209.180869 
L 499.47774 -208.764475 
L 502.124393 -209.202704 
L 504.771047 -208.798213 
L 507.4177 -208.994839 
L 510.064353 -209.124525 
L 512.711007 -209.567934 
L 515.35766 -210.387491 
L 518.004313 -210.744779 
L 520.650967 -210.692909 
L 523.29762 -210.793073 
L 525.944273 -210.671951 
L 528.590927 -210.19992 
L 531.23758 -210.226679 
L 533.884233 -209.995416 
L 536.530887 -210.373062 
L 539.17754 -210.667434 
L 541.824193 -210.667841 
L 544.470847 -210.70723 
L 547.1175 -211.160423 
L 549.764153 -211.274224 
L 552.410807 -211.163848 
L 555.05746 -211.696333 
L 557.704113 -211.558705 
L 560.350767 -212.001258 
L 562.99742 -212.232564 
L 565.644073 -212.569836 
L 568.290727 -212.646774 
L 570.93738 -212.308453 
L 573.584033 -212.844235 
L 576.230687 -213.357603 
L 578.87734 -213.268998 
L 581.523993 -213.157445 
L 584.170647 -213.703459 
L 586.8173 -213.356212 
L 589.463953 -213.454857 
L 592.110607 -213.734629 
L 594.75726 -213.510815 
L 597.403913 -213.35756 
L 600.050567 -213.988027 
L 602.69722 -214.291539 
L 605.343873 -214.676485 
L 607.990527 -214.898479 
L 610.63718 -215.446784 
L 613.283833 -215.067297 
L 615.930487 -215.289419 
L 618.57714 -215.029235 
L 621.223793 -215.037691 
L 623.870447 -215.223955 
L 626.5171 -215.210512 
L 629.163753 -215.623137 
L 631.810407 -215.923674 
L 634.45706 -215.77408 
L 637.103713 -216.279292 
L 639.750367 -215.681044 
L 642.39702 -215.714868 
L 645.043673 -216.047858 
L 647.690327 -216.455967 
L 650.33698 -216.504005 
L 652.983633 -216.621103 
L 655.630287 -216.786303 
L 658.27694 -217.649102 
L 660.923593 -217.762582 
L 663.570247 -217.71356 
L 666.2169 -217.430277 
L 668.863553 -217.359975 
L 671.510207 -217.527637 
L 674.15686 -217.312515 
L 676.803513 -217.652956 
L 679.450167 -218.009323 
L 682.09682 -218.001424 
L 684.743473 -218.058046 
L 687.390127 -217.793302 
L 690.03678 -217.707587 
L 692.683433 -217.909843 
L 695.330087 -217.270471 
L 697.97674 -217.339296 
L 700.623393 -217.628637 
L 703.270047 -217.422378 
L 705.9167 -218.04944 
L 708.563353 -218.567347 
L 711.210007 -218.898882 
L 713.85666 -219.315682 
L 716.503313 -219.217294 
L 719.149967 -219.272717 
L 721.79662 -219.403559 
L 724.443273 -219.455107 
L 727.089927 -219.716705 
L 729.73658 -219.673312 
L 732.383233 -219.516075 
L 735.029887 -219.697224 
L 737.67654 -219.72576 
L 740.323193 -219.619708 
L 742.969847 -219.429483 
L 745.6165 -219.326813 
L 748.263153 -219.335548 
L 750.909807 -219.610567 
L 753.55646 -220.063653 
L 756.203113 -219.809869 
L 758.849767 -219.38457 
L 761.49642 -219.276292 
L 764.143073 -219.868225 
L 766.789727 -219.700799 
L 769.43638 -218.900937 
L 772.083033 -219.28676 
L 774.729687 -219.116144 
L 777.37634 -219.230802 
L 780.022993 -219.298235 
L 782.669647 -219.294146 
L 785.3163 -219.601319 
L 787.962953 -219.950793 
L 790.609607 -219.413513 
L 793.25626 -219.20704 
L 795.902913 -219.477285 
L 798.549567 -219.725738 
L 801.19622 -219.825368 
L 803.842873 -219.479212 
L 806.489527 -219.563557 
L 809.13618 -219.64347 
L 811.782833 -219.854439 
L 814.429487 -219.994999 
L 817.07614 -220.49045 
L 819.722793 -220.412228 
L 822.369447 -220.260578 
L 825.0161 -220.48771 
L 827.662753 -220.909433 
L 830.309407 -221.256403 
L 832.95606 -220.963358 
L 835.602713 -220.765534 
L 838.249367 -220.530075 
L 840.89602 -220.469984 
L 843.542673 -221.094735 
L 843.542673 -372.458143 
L 843.542673 -372.458143 
L 840.89602 -372.805455 
L 838.249367 -372.756689 
L 835.602713 -372.539148 
L 832.95606 -372.222577 
L 830.309407 -371.960765 
L 827.662753 -372.128128 
L 825.0161 -372.203952 
L 822.369447 -372.359455 
L 819.722793 -372.102054 
L 817.07614 -371.952459 
L 814.429487 -372.221207 
L 811.782833 -372.291979 
L 809.13618 -372.23221 
L 806.489527 -372.281276 
L 803.842873 -372.187897 
L 801.19622 -371.910544 
L 798.549567 -371.938416 
L 795.902913 -372.04982 
L 793.25626 -372.193634 
L 790.609607 -371.867687 
L 787.962953 -371.553171 
L 785.3163 -371.503249 
L 782.669647 -371.579202 
L 780.022993 -371.532834 
L 777.37634 -371.501707 
L 774.729687 -371.640641 
L 772.083033 -371.364401 
L 769.43638 -371.569012 
L 766.789727 -370.970421 
L 764.143073 -370.893184 
L 761.49642 -371.059261 
L 758.849767 -371.042564 
L 756.203113 -370.554392 
L 753.55646 -370.366222 
L 750.909807 -370.457031 
L 748.263153 -370.501644 
L 745.6165 -370.323536 
L 742.969847 -370.077951 
L 740.323193 -369.846024 
L 737.67654 -369.644154 
L 735.029887 -369.501881 
L 732.383233 -369.63482 
L 729.73658 -369.607376 
L 727.089927 -369.555699 
L 724.443273 -369.70662 
L 721.79662 -369.61337 
L 719.149967 -369.586311 
L 716.503313 -369.525386 
L 713.85666 -369.298597 
L 711.210007 -369.449989 
L 708.563353 -369.645909 
L 705.9167 -369.929898 
L 703.270047 -370.364124 
L 700.623393 -370.00842 
L 697.97674 -370.21667 
L 695.330087 -370.090196 
L 692.683433 -369.585712 
L 690.03678 -369.506419 
L 687.390127 -369.441255 
L 684.743473 -369.185866 
L 682.09682 -369.140611 
L 679.450167 -369.136886 
L 676.803513 -369.247048 
L 674.15686 -369.292988 
L 671.510207 -369.22851 
L 668.863553 -369.106745 
L 666.2169 -368.897339 
L 663.570247 -368.574046 
L 660.923593 -368.49835 
L 658.27694 -368.468636 
L 655.630287 -368.982454 
L 652.983633 -369.022914 
L 650.33698 -368.941481 
L 647.690327 -368.846561 
L 645.043673 -369.216436 
L 642.39702 -369.365944 
L 639.750367 -369.405462 
L 637.103713 -368.963444 
L 634.45706 -369.097283 
L 631.810407 -368.862402 
L 629.163753 -369.054254 
L 626.5171 -369.126868 
L 623.870447 -368.999023 
L 621.223793 -369.050743 
L 618.57714 -368.910354 
L 615.930487 -368.789574 
L 613.283833 -368.790431 
L 610.63718 -368.343575 
L 607.990527 -368.655864 
L 605.343873 -368.753482 
L 602.69722 -368.80837 
L 600.050567 -368.952698 
L 597.403913 -369.196056 
L 594.75726 -368.945163 
L 592.110607 -368.617117 
L 589.463953 -368.626965 
L 586.8173 -368.677186 
L 584.170647 -368.275885 
L 581.523993 -368.642549 
L 578.87734 -368.554137 
L 576.230687 -368.407454 
L 573.584033 -368.576829 
L 570.93738 -368.775874 
L 568.290727 -368.395466 
L 565.644073 -368.223565 
L 562.99742 -368.30958 
L 560.350767 -368.22181 
L 557.704113 -368.379582 
L 555.05746 -368.087843 
L 552.410807 -368.455278 
L 549.764153 -368.164653 
L 547.1175 -368.108737 
L 544.470847 -368.21663 
L 541.824193 -368.339336 
L 539.17754 -368.19047 
L 536.530887 -368.233584 
L 533.884233 -368.174329 
L 531.23758 -367.940518 
L 528.590927 -367.777223 
L 525.944273 -367.246708 
L 523.29762 -367.144295 
L 520.650967 -367.0823 
L 518.004313 -366.880086 
L 515.35766 -367.063333 
L 512.711007 -367.406706 
L 510.064353 -367.706451 
L 507.4177 -367.707307 
L 504.771047 -367.526758 
L 502.124393 -366.971153 
L 499.47774 -367.046935 
L 496.831087 -366.678387 
L 494.184433 -366.890105 
L 491.53778 -366.678729 
L 488.891127 -366.557264 
L 486.244473 -366.776475 
L 483.59782 -366.74582 
L 480.951167 -366.553197 
L 478.304513 -366.822843 
L 475.65786 -366.614079 
L 473.011207 -366.403474 
L 470.364553 -366.286847 
L 467.7179 -366.030602 
L 465.071247 -366.070163 
L 462.424593 -366.270021 
L 459.77794 -366.195567 
L 457.131287 -366.159046 
L 454.484633 -365.967408 
L 451.83798 -366.326494 
L 449.191327 -365.857032 
L 446.544673 -366.176814 
L 443.89802 -366.320457 
L 441.251367 -366.354366 
L 438.604713 -366.451127 
L 435.95806 -366.269336 
L 433.311407 -366.011464 
L 430.664753 -365.641503 
L 428.0181 -365.166176 
L 425.371447 -365.047836 
L 422.724793 -364.880559 
L 420.07814 -364.498825 
L 417.431487 -364.476518 
L 414.784833 -364.61725 
L 412.13818 -364.435502 
L 409.491527 -364.568313 
L 406.844873 -364.438499 
L 404.19822 -364.022341 
L 401.551567 -363.904515 
L 398.904913 -363.946045 
L 396.25826 -364.027821 
L 393.611607 -363.634227 
L 390.964953 -363.511734 
L 388.3183 -363.651096 
L 385.671647 -364.046317 
L 383.024993 -364.24031 
L 380.37834 -364.185165 
L 377.731687 -364.027693 
L 375.085033 -364.265271 
L 372.43838 -364.012965 
L 369.791727 -364.077743 
L 367.145073 -364.365457 
L 364.49842 -363.84389 
L 361.851767 -363.908283 
L 359.205113 -363.254076 
L 356.55846 -363.548897 
L 353.911807 -363.484418 
L 351.265153 -363.275012 
L 348.6185 -363.113815 
L 345.971847 -363.3165 
L 343.325193 -363.170716 
L 340.67854 -362.867246 
L 338.031887 -362.899314 
L 335.385233 -362.886555 
L 332.73858 -362.942643 
L 330.091927 -362.517579 
L 327.445273 -362.619307 
L 324.79862 -362.607875 
L 322.151967 -362.182769 
L 319.505313 -361.934102 
L 316.85866 -361.642406 
L 314.212007 -362.043408 
L 311.565353 -361.661716 
L 308.9187 -361.618858 
L 306.272047 -361.571719 
L 303.625393 -361.492855 
L 300.97874 -361.036537 
L 298.332087 -361.146314 
L 295.685433 -361.270005 
L 293.03878 -360.903212 
L 290.392127 -360.489495 
L 287.745473 -360.69903 
L 285.09882 -360.478278 
L 282.452167 -360.441628 
L 279.805513 -359.821116 
L 277.15886 -359.332944 
L 274.512207 -359.26016 
L 271.865553 -359.179069 
L 269.2189 -359.397851 
L 266.572247 -359.744307 
L 263.925593 -360.25744 
L 261.27894 -360.438332 
L 258.632287 -360.259709 
L 255.985633 -359.844493 
L 253.33898 -359.477743 
L 250.692327 -358.817114 
L 248.045673 -358.711705 
L 245.39902 -358.823194 
L 242.752367 -358.793138 
L 240.105713 -358.768905 
L 237.45906 -358.775498 
L 234.812407 -358.328471 
L 232.165753 -358.106478 
L 229.5191 -358.054843 
L 226.872447 -358.210346 
L 224.225793 -357.866288 
L 221.57914 -357.670839 
L 218.932487 -358.129127 
L 216.285833 -357.964248 
L 213.63918 -358.186627 
L 210.992527 -357.791191 
L 208.345873 -358.600344 
L 205.69922 -358.188211 
L 203.052567 -357.938644 
L 200.405913 -357.733648 
L 197.75926 -357.780659 
L 195.112607 -357.378972 
L 192.465953 -356.560507 
L 189.8193 -356.322779 
L 187.172647 -356.030955 
L 184.525993 -356.014343 
L 181.87934 -355.9282 
L 179.232687 -355.556569 
L 176.586033 -355.971485 
L 173.93938 -355.68604 
L 171.292727 -355.503586 
L 168.646073 -355.126925 
L 165.99942 -354.511979 
L 163.352767 -353.752234 
L 160.706113 -353.635329 
L 158.05946 -353.073837 
L 155.412807 -352.570787 
L 152.766153 -352.034148 
L 150.1195 -351.761205 
L 147.472847 -351.962241 
L 144.826193 -351.380113 
L 142.17954 -350.500166 
L 139.532887 -350.143242 
L 136.886233 -349.818729 
L 134.23958 -349.891899 
L 131.592927 -349.546385 
L 128.946273 -350.056136 
L 126.29962 -349.205153 
L 123.652967 -348.513398 
L 121.006313 -348.31234 
L 118.35966 -347.628656 
L 115.713007 -347.036637 
L 113.066353 -346.591065 
L 110.4197 -345.353766 
L 107.773047 -344.523078 
L 105.126393 -343.758067 
L 102.47974 -342.755435 
L 99.833087 -341.435996 
L 97.186433 -341.173778 
L 94.53978 -339.873456 
L 91.893127 -339.479947 
L 89.246473 -338.298093 
L 86.59982 -337.663281 
L 83.953167 -335.791898 
L 81.306513 -334.698842 
L 78.65986 -332.562672 
L 76.013207 -330.529643 
L 73.366553 -328.922939 
L 70.7199 -327.238699 
L 68.073247 -324.658906 
L 65.426593 -321.863841 
L 62.77994 -318.274458 
L 60.133287 -314.414851 
L 57.486633 -309.659991 
L 54.83998 -306.158892 
L 52.193327 -304.404907 
z
" style="stroke: #0000ff; stroke-opacity: 0.2"/>
    </defs>
    <g clip-path="url(#pda2ebc2256)">
     <use xlink:href="#m9baf53244b" x="0" y="432" style="fill: #0000ff; fill-opacity: 0.2; stroke: #0000ff; stroke-opacity: 0.2"/>
    </g>
   </g>
   <g id="matplotlib.axis_1">
    <g id="xtick_1">
     <g id="line2d_1">
      <defs>
       <path id="mfc609b395c" d="M 0 0 
L 0 3.5 
" style="stroke: #000000; stroke-width: 0.8"/>
      </defs>
      <g>
       <use xlink:href="#mfc609b395c" x="181.87934" y="390.04" style="stroke: #000000; stroke-width: 0.8"/>
      </g>
     </g>
     <g id="text_1">
      <!-- 50 -->
      <g transform="translate(175.51684 404.638438) scale(0.1 -0.1)">
       <defs>
        <path id="DejaVuSans-35" d="M 691 4666 
L 3169 4666 
L 3169 4134 
L 1269 4134 
L 1269 2991 
Q 1406 3038 1543 3061 
Q 1681 3084 1819 3084 
Q 2600 3084 3056 2656 
Q 3513 2228 3513 1497 
Q 3513 744 3044 326 
Q 2575 -91 1722 -91 
Q 1428 -91 1123 -41 
Q 819 9 494 109 
L 494 744 
Q 775 591 1075 516 
Q 1375 441 1709 441 
Q 2250 441 2565 725 
Q 2881 1009 2881 1497 
Q 2881 1984 2565 2268 
Q 2250 2553 1709 2553 
Q 1456 2553 1204 2497 
Q 953 2441 691 2322 
L 691 4666 
z
" transform="scale(0.015625)"/>
        <path id="DejaVuSans-30" d="M 2034 4250 
Q 1547 4250 1301 3770 
Q 1056 3291 1056 2328 
Q 1056 1369 1301 889 
Q 1547 409 2034 409 
Q 2525 409 2770 889 
Q 3016 1369 3016 2328 
Q 3016 3291 2770 3770 
Q 2525 4250 2034 4250 
z
M 2034 4750 
Q 2819 4750 3233 4129 
Q 3647 3509 3647 2328 
Q 3647 1150 3233 529 
Q 2819 -91 2034 -91 
Q 1250 -91 836 529 
Q 422 1150 422 2328 
Q 422 3509 836 4129 
Q 1250 4750 2034 4750 
z
" transform="scale(0.015625)"/>
       </defs>
       <use xlink:href="#DejaVuSans-35"/>
       <use xlink:href="#DejaVuSans-30" transform="translate(63.623047 0)"/>
      </g>
     </g>
    </g>
    <g id="xtick_2">
     <g id="line2d_2">
      <g>
       <use xlink:href="#mfc609b395c" x="314.212007" y="390.04" style="stroke: #000000; stroke-width: 0.8"/>
      </g>
     </g>
     <g id="text_2">
      <!-- 100 -->
      <g transform="translate(304.668257 404.638438) scale(0.1 -0.1)">
       <defs>
        <path id="DejaVuSans-31" d="M 794 531 
L 1825 531 
L 1825 4091 
L 703 3866 
L 703 4441 
L 1819 4666 
L 2450 4666 
L 2450 531 
L 3481 531 
L 3481 0 
L 794 0 
L 794 531 
z
" transform="scale(0.015625)"/>
       </defs>
       <use xlink:href="#DejaVuSans-31"/>
       <use xlink:href="#DejaVuSans-30" transform="translate(63.623047 0)"/>
       <use xlink:href="#DejaVuSans-30" transform="translate(127.246094 0)"/>
      </g>
     </g>
    </g>
    <g id="xtick_3">
     <g id="line2d_3">
      <g>
       <use xlink:href="#mfc609b395c" x="446.544673" y="390.04" style="stroke: #000000; stroke-width: 0.8"/>
      </g>
     </g>
     <g id="text_3">
      <!-- 150 -->
      <g transform="translate(437.000923 404.638438) scale(0.1 -0.1)">
       <use xlink:href="#DejaVuSans-31"/>
       <use xlink:href="#DejaVuSans-35" transform="translate(63.623047 0)"/>
       <use xlink:href="#DejaVuSans-30" transform="translate(127.246094 0)"/>
      </g>
     </g>
    </g>
    <g id="xtick_4">
     <g id="line2d_4">
      <g>
       <use xlink:href="#mfc609b395c" x="578.87734" y="390.04" style="stroke: #000000; stroke-width: 0.8"/>
      </g>
     </g>
     <g id="text_4">
      <!-- 200 -->
      <g transform="translate(569.33359 404.638438) scale(0.1 -0.1)">
       <defs>
        <path id="DejaVuSans-32" d="M 1228 531 
L 3431 531 
L 3431 0 
L 469 0 
L 469 531 
Q 828 903 1448 1529 
Q 2069 2156 2228 2338 
Q 2531 2678 2651 2914 
Q 2772 3150 2772 3378 
Q 2772 3750 2511 3984 
Q 2250 4219 1831 4219 
Q 1534 4219 1204 4116 
Q 875 4013 500 3803 
L 500 4441 
Q 881 4594 1212 4672 
Q 1544 4750 1819 4750 
Q 2544 4750 2975 4387 
Q 3406 4025 3406 3419 
Q 3406 3131 3298 2873 
Q 3191 2616 2906 2266 
Q 2828 2175 2409 1742 
Q 1991 1309 1228 531 
z
" transform="scale(0.015625)"/>
       </defs>
       <use xlink:href="#DejaVuSans-32"/>
       <use xlink:href="#DejaVuSans-30" transform="translate(63.623047 0)"/>
       <use xlink:href="#DejaVuSans-30" transform="translate(127.246094 0)"/>
      </g>
     </g>
    </g>
    <g id="xtick_5">
     <g id="line2d_5">
      <g>
       <use xlink:href="#mfc609b395c" x="711.210007" y="390.04" style="stroke: #000000; stroke-width: 0.8"/>
      </g>
     </g>
     <g id="text_5">
      <!-- 250 -->
      <g transform="translate(701.666257 404.638438) scale(0.1 -0.1)">
       <use xlink:href="#DejaVuSans-32"/>
       <use xlink:href="#DejaVuSans-35" transform="translate(63.623047 0)"/>
       <use xlink:href="#DejaVuSans-30" transform="translate(127.246094 0)"/>
      </g>
     </g>
    </g>
    <g id="xtick_6">
     <g id="line2d_6">
      <g>
       <use xlink:href="#mfc609b395c" x="843.542673" y="390.04" style="stroke: #000000; stroke-width: 0.8"/>
      </g>
     </g>
     <g id="text_6">
      <!-- 300 -->
      <g transform="translate(833.998923 404.638438) scale(0.1 -0.1)">
       <defs>
        <path id="DejaVuSans-33" d="M 2597 2516 
Q 3050 2419 3304 2112 
Q 3559 1806 3559 1356 
Q 3559 666 3084 287 
Q 2609 -91 1734 -91 
Q 1441 -91 1130 -33 
Q 819 25 488 141 
L 488 750 
Q 750 597 1062 519 
Q 1375 441 1716 441 
Q 2309 441 2620 675 
Q 2931 909 2931 1356 
Q 2931 1769 2642 2001 
Q 2353 2234 1838 2234 
L 1294 2234 
L 1294 2753 
L 1863 2753 
Q 2328 2753 2575 2939 
Q 2822 3125 2822 3475 
Q 2822 3834 2567 4026 
Q 2313 4219 1838 4219 
Q 1578 4219 1281 4162 
Q 984 4106 628 3988 
L 628 4550 
Q 988 4650 1302 4700 
Q 1616 4750 1894 4750 
Q 2613 4750 3031 4423 
Q 3450 4097 3450 3541 
Q 3450 3153 3228 2886 
Q 3006 2619 2597 2516 
z
" transform="scale(0.015625)"/>
       </defs>
       <use xlink:href="#DejaVuSans-33"/>
       <use xlink:href="#DejaVuSans-30" transform="translate(63.623047 0)"/>
       <use xlink:href="#DejaVuSans-30" transform="translate(127.246094 0)"/>
      </g>
     </g>
    </g>
    <g id="text_7">
     <!-- Step -->
     <g transform="translate(436.482844 418.316562) scale(0.1 -0.1)">
      <defs>
       <path id="DejaVuSans-53" d="M 3425 4513 
L 3425 3897 
Q 3066 4069 2747 4153 
Q 2428 4238 2131 4238 
Q 1616 4238 1336 4038 
Q 1056 3838 1056 3469 
Q 1056 3159 1242 3001 
Q 1428 2844 1947 2747 
L 2328 2669 
Q 3034 2534 3370 2195 
Q 3706 1856 3706 1288 
Q 3706 609 3251 259 
Q 2797 -91 1919 -91 
Q 1588 -91 1214 -16 
Q 841 59 441 206 
L 441 856 
Q 825 641 1194 531 
Q 1563 422 1919 422 
Q 2459 422 2753 634 
Q 3047 847 3047 1241 
Q 3047 1584 2836 1778 
Q 2625 1972 2144 2069 
L 1759 2144 
Q 1053 2284 737 2584 
Q 422 2884 422 3419 
Q 422 4038 858 4394 
Q 1294 4750 2059 4750 
Q 2388 4750 2728 4690 
Q 3069 4631 3425 4513 
z
" transform="scale(0.015625)"/>
       <path id="DejaVuSans-74" d="M 1172 4494 
L 1172 3500 
L 2356 3500 
L 2356 3053 
L 1172 3053 
L 1172 1153 
Q 1172 725 1289 603 
Q 1406 481 1766 481 
L 2356 481 
L 2356 0 
L 1766 0 
Q 1100 0 847 248 
Q 594 497 594 1153 
L 594 3053 
L 172 3053 
L 172 3500 
L 594 3500 
L 594 4494 
L 1172 4494 
z
" transform="scale(0.015625)"/>
       <path id="DejaVuSans-65" d="M 3597 1894 
L 3597 1613 
L 953 1613 
Q 991 1019 1311 708 
Q 1631 397 2203 397 
Q 2534 397 2845 478 
Q 3156 559 3463 722 
L 3463 178 
Q 3153 47 2828 -22 
Q 2503 -91 2169 -91 
Q 1331 -91 842 396 
Q 353 884 353 1716 
Q 353 2575 817 3079 
Q 1281 3584 2069 3584 
Q 2775 3584 3186 3129 
Q 3597 2675 3597 1894 
z
M 3022 2063 
Q 3016 2534 2758 2815 
Q 2500 3097 2075 3097 
Q 1594 3097 1305 2825 
Q 1016 2553 972 2059 
L 3022 2063 
z
" transform="scale(0.015625)"/>
       <path id="DejaVuSans-70" d="M 1159 525 
L 1159 -1331 
L 581 -1331 
L 581 3500 
L 1159 3500 
L 1159 2969 
Q 1341 3281 1617 3432 
Q 1894 3584 2278 3584 
Q 2916 3584 3314 3078 
Q 3713 2572 3713 1747 
Q 3713 922 3314 415 
Q 2916 -91 2278 -91 
Q 1894 -91 1617 61 
Q 1341 213 1159 525 
z
M 3116 1747 
Q 3116 2381 2855 2742 
Q 2594 3103 2138 3103 
Q 1681 3103 1420 2742 
Q 1159 2381 1159 1747 
Q 1159 1113 1420 752 
Q 1681 391 2138 391 
Q 2594 391 2855 752 
Q 3116 1113 3116 1747 
z
" transform="scale(0.015625)"/>
      </defs>
      <use xlink:href="#DejaVuSans-53"/>
      <use xlink:href="#DejaVuSans-74" transform="translate(63.476562 0)"/>
      <use xlink:href="#DejaVuSans-65" transform="translate(102.685547 0)"/>
      <use xlink:href="#DejaVuSans-70" transform="translate(164.208984 0)"/>
     </g>
    </g>
   </g>
   <g id="matplotlib.axis_2">
    <g id="ytick_1">
     <g id="line2d_7">
      <defs>
       <path id="mb7fe08f7f3" d="M 0 0 
L -3.5 0 
" style="stroke: #000000; stroke-width: 0.8"/>
      </defs>
      <g>
       <use xlink:href="#mb7fe08f7f3" x="50.87" y="378.459481" style="stroke: #000000; stroke-width: 0.8"/>
      </g>
     </g>
     <g id="text_8">
      <!-- 20 -->
      <g transform="translate(31.145 382.2587) scale(0.1 -0.1)">
       <use xlink:href="#DejaVuSans-32"/>
       <use xlink:href="#DejaVuSans-30" transform="translate(63.623047 0)"/>
      </g>
     </g>
    </g>
    <g id="ytick_2">
     <g id="line2d_8">
      <g>
       <use xlink:href="#mb7fe08f7f3" x="50.87" y="322.341541" style="stroke: #000000; stroke-width: 0.8"/>
      </g>
     </g>
     <g id="text_9">
      <!-- 40 -->
      <g transform="translate(31.145 326.140759) scale(0.1 -0.1)">
       <defs>
        <path id="DejaVuSans-34" d="M 2419 4116 
L 825 1625 
L 2419 1625 
L 2419 4116 
z
M 2253 4666 
L 3047 4666 
L 3047 1625 
L 3713 1625 
L 3713 1100 
L 3047 1100 
L 3047 0 
L 2419 0 
L 2419 1100 
L 313 1100 
L 313 1709 
L 2253 4666 
z
" transform="scale(0.015625)"/>
       </defs>
       <use xlink:href="#DejaVuSans-34"/>
       <use xlink:href="#DejaVuSans-30" transform="translate(63.623047 0)"/>
      </g>
     </g>
    </g>
    <g id="ytick_3">
     <g id="line2d_9">
      <g>
       <use xlink:href="#mb7fe08f7f3" x="50.87" y="266.2236" style="stroke: #000000; stroke-width: 0.8"/>
      </g>
     </g>
     <g id="text_10">
      <!-- 60 -->
      <g transform="translate(31.145 270.022819) scale(0.1 -0.1)">
       <defs>
        <path id="DejaVuSans-36" d="M 2113 2584 
Q 1688 2584 1439 2293 
Q 1191 2003 1191 1497 
Q 1191 994 1439 701 
Q 1688 409 2113 409 
Q 2538 409 2786 701 
Q 3034 994 3034 1497 
Q 3034 2003 2786 2293 
Q 2538 2584 2113 2584 
z
M 3366 4563 
L 3366 3988 
Q 3128 4100 2886 4159 
Q 2644 4219 2406 4219 
Q 1781 4219 1451 3797 
Q 1122 3375 1075 2522 
Q 1259 2794 1537 2939 
Q 1816 3084 2150 3084 
Q 2853 3084 3261 2657 
Q 3669 2231 3669 1497 
Q 3669 778 3244 343 
Q 2819 -91 2113 -91 
Q 1303 -91 875 529 
Q 447 1150 447 2328 
Q 447 3434 972 4092 
Q 1497 4750 2381 4750 
Q 2619 4750 2861 4703 
Q 3103 4656 3366 4563 
z
" transform="scale(0.015625)"/>
       </defs>
       <use xlink:href="#DejaVuSans-36"/>
       <use xlink:href="#DejaVuSans-30" transform="translate(63.623047 0)"/>
      </g>
     </g>
    </g>
    <g id="ytick_4">
     <g id="line2d_10">
      <g>
       <use xlink:href="#mb7fe08f7f3" x="50.87" y="210.10566" style="stroke: #000000; stroke-width: 0.8"/>
      </g>
     </g>
     <g id="text_11">
      <!-- 80 -->
      <g transform="translate(31.145 213.904878) scale(0.1 -0.1)">
       <defs>
        <path id="DejaVuSans-38" d="M 2034 2216 
Q 1584 2216 1326 1975 
Q 1069 1734 1069 1313 
Q 1069 891 1326 650 
Q 1584 409 2034 409 
Q 2484 409 2743 651 
Q 3003 894 3003 1313 
Q 3003 1734 2745 1975 
Q 2488 2216 2034 2216 
z
M 1403 2484 
Q 997 2584 770 2862 
Q 544 3141 544 3541 
Q 544 4100 942 4425 
Q 1341 4750 2034 4750 
Q 2731 4750 3128 4425 
Q 3525 4100 3525 3541 
Q 3525 3141 3298 2862 
Q 3072 2584 2669 2484 
Q 3125 2378 3379 2068 
Q 3634 1759 3634 1313 
Q 3634 634 3220 271 
Q 2806 -91 2034 -91 
Q 1263 -91 848 271 
Q 434 634 434 1313 
Q 434 1759 690 2068 
Q 947 2378 1403 2484 
z
M 1172 3481 
Q 1172 3119 1398 2916 
Q 1625 2713 2034 2713 
Q 2441 2713 2670 2916 
Q 2900 3119 2900 3481 
Q 2900 3844 2670 4047 
Q 2441 4250 2034 4250 
Q 1625 4250 1398 4047 
Q 1172 3844 1172 3481 
z
" transform="scale(0.015625)"/>
       </defs>
       <use xlink:href="#DejaVuSans-38"/>
       <use xlink:href="#DejaVuSans-30" transform="translate(63.623047 0)"/>
      </g>
     </g>
    </g>
    <g id="ytick_5">
     <g id="line2d_11">
      <g>
       <use xlink:href="#mb7fe08f7f3" x="50.87" y="153.987719" style="stroke: #000000; stroke-width: 0.8"/>
      </g>
     </g>
     <g id="text_12">
      <!-- 100 -->
      <g transform="translate(24.7825 157.786938) scale(0.1 -0.1)">
       <use xlink:href="#DejaVuSans-31"/>
       <use xlink:href="#DejaVuSans-30" transform="translate(63.623047 0)"/>
       <use xlink:href="#DejaVuSans-30" transform="translate(127.246094 0)"/>
      </g>
     </g>
    </g>
    <g id="ytick_6">
     <g id="line2d_12">
      <g>
       <use xlink:href="#mb7fe08f7f3" x="50.87" y="97.869779" style="stroke: #000000; stroke-width: 0.8"/>
      </g>
     </g>
     <g id="text_13">
      <!-- 120 -->
      <g transform="translate(24.7825 101.668998) scale(0.1 -0.1)">
       <use xlink:href="#DejaVuSans-31"/>
       <use xlink:href="#DejaVuSans-32" transform="translate(63.623047 0)"/>
       <use xlink:href="#DejaVuSans-30" transform="translate(127.246094 0)"/>
      </g>
     </g>
    </g>
    <g id="text_14">
     <!-- Profit -->
     <g transform="translate(18.702813 229.779063) rotate(-90) scale(0.1 -0.1)">
      <defs>
       <path id="DejaVuSans-50" d="M 1259 4147 
L 1259 2394 
L 2053 2394 
Q 2494 2394 2734 2622 
Q 2975 2850 2975 3272 
Q 2975 3691 2734 3919 
Q 2494 4147 2053 4147 
L 1259 4147 
z
M 628 4666 
L 2053 4666 
Q 2838 4666 3239 4311 
Q 3641 3956 3641 3272 
Q 3641 2581 3239 2228 
Q 2838 1875 2053 1875 
L 1259 1875 
L 1259 0 
L 628 0 
L 628 4666 
z
" transform="scale(0.015625)"/>
       <path id="DejaVuSans-72" d="M 2631 2963 
Q 2534 3019 2420 3045 
Q 2306 3072 2169 3072 
Q 1681 3072 1420 2755 
Q 1159 2438 1159 1844 
L 1159 0 
L 581 0 
L 581 3500 
L 1159 3500 
L 1159 2956 
Q 1341 3275 1631 3429 
Q 1922 3584 2338 3584 
Q 2397 3584 2469 3576 
Q 2541 3569 2628 3553 
L 2631 2963 
z
" transform="scale(0.015625)"/>
       <path id="DejaVuSans-6f" d="M 1959 3097 
Q 1497 3097 1228 2736 
Q 959 2375 959 1747 
Q 959 1119 1226 758 
Q 1494 397 1959 397 
Q 2419 397 2687 759 
Q 2956 1122 2956 1747 
Q 2956 2369 2687 2733 
Q 2419 3097 1959 3097 
z
M 1959 3584 
Q 2709 3584 3137 3096 
Q 3566 2609 3566 1747 
Q 3566 888 3137 398 
Q 2709 -91 1959 -91 
Q 1206 -91 779 398 
Q 353 888 353 1747 
Q 353 2609 779 3096 
Q 1206 3584 1959 3584 
z
" transform="scale(0.015625)"/>
       <path id="DejaVuSans-66" d="M 2375 4863 
L 2375 4384 
L 1825 4384 
Q 1516 4384 1395 4259 
Q 1275 4134 1275 3809 
L 1275 3500 
L 2222 3500 
L 2222 3053 
L 1275 3053 
L 1275 0 
L 697 0 
L 697 3053 
L 147 3053 
L 147 3500 
L 697 3500 
L 697 3744 
Q 697 4328 969 4595 
Q 1241 4863 1831 4863 
L 2375 4863 
z
" transform="scale(0.015625)"/>
       <path id="DejaVuSans-69" d="M 603 3500 
L 1178 3500 
L 1178 0 
L 603 0 
L 603 3500 
z
M 603 4863 
L 1178 4863 
L 1178 4134 
L 603 4134 
L 603 4863 
z
" transform="scale(0.015625)"/>
      </defs>
      <use xlink:href="#DejaVuSans-50"/>
      <use xlink:href="#DejaVuSans-72" transform="translate(58.552734 0)"/>
      <use xlink:href="#DejaVuSans-6f" transform="translate(97.416016 0)"/>
      <use xlink:href="#DejaVuSans-66" transform="translate(158.597656 0)"/>
      <use xlink:href="#DejaVuSans-69" transform="translate(193.802734 0)"/>
      <use xlink:href="#DejaVuSans-74" transform="translate(221.585938 0)"/>
     </g>
    </g>
   </g>
   <g id="line2d_13">
    <path d="M 52.193327 250.502832 
L 54.83998 250.063276 
L 60.133287 237.993736 
L 62.77994 232.82351 
L 65.426593 228.009523 
L 68.073247 223.547236 
L 73.366553 215.73413 
L 76.013207 212.502699 
L 78.65986 209.541642 
L 81.306513 206.828759 
L 83.953167 204.575492 
L 86.59982 202.091817 
L 89.246473 199.845379 
L 91.893127 197.878027 
L 97.186433 194.394011 
L 99.833087 192.933691 
L 102.47974 190.99344 
L 105.126393 189.348418 
L 107.773047 188.294152 
L 110.4197 186.89465 
L 113.066353 185.65825 
L 115.713007 184.703463 
L 118.35966 183.540448 
L 121.006313 182.559223 
L 123.652967 181.348619 
L 126.29962 180.285768 
L 131.592927 178.544028 
L 136.886233 176.536623 
L 139.532887 175.915062 
L 142.17954 175.150351 
L 144.826193 174.626407 
L 158.05946 171.12336 
L 160.706113 170.515093 
L 163.352767 169.637266 
L 165.99942 169.057256 
L 168.646073 168.789644 
L 171.292727 168.165557 
L 173.93938 167.923719 
L 179.232687 167.122165 
L 181.87934 166.560524 
L 184.525993 166.176862 
L 187.172647 165.639903 
L 189.8193 165.467703 
L 192.465953 164.909978 
L 195.112607 164.561682 
L 197.75926 164.431482 
L 200.405913 163.99593 
L 203.052567 163.445741 
L 208.345873 162.648533 
L 210.992527 162.092307 
L 216.285833 161.409286 
L 218.932487 161.25541 
L 221.57914 160.958962 
L 224.225793 160.83313 
L 229.5191 160.26117 
L 234.812407 159.545117 
L 240.105713 159.090319 
L 242.752367 158.571963 
L 248.045673 158.142233 
L 250.692327 157.713402 
L 263.925593 156.523991 
L 269.2189 156.093748 
L 271.865553 155.78529 
L 282.452167 155.06547 
L 293.03878 154.187492 
L 300.97874 153.671469 
L 303.625393 153.47343 
L 306.272047 153.153777 
L 308.9187 152.973163 
L 311.565353 152.669929 
L 314.212007 152.705915 
L 332.73858 151.458982 
L 343.325193 151.068406 
L 359.205113 150.140379 
L 361.851767 150.155471 
L 364.49842 149.948698 
L 369.791727 149.823743 
L 385.671647 148.54393 
L 396.25826 148.113515 
L 398.904913 147.896423 
L 406.844873 147.530573 
L 412.13818 147.195184 
L 420.07814 146.887883 
L 422.724793 147.001941 
L 425.371447 146.895332 
L 428.0181 146.655464 
L 430.664753 146.699648 
L 446.544673 145.968075 
L 449.191327 145.665226 
L 462.424593 145.520898 
L 465.071247 145.264931 
L 470.364553 145.095214 
L 473.011207 145.066614 
L 475.65786 144.879365 
L 478.304513 144.849651 
L 480.951167 144.607471 
L 486.244473 144.472861 
L 496.831087 144.070362 
L 499.47774 144.094295 
L 507.4177 143.648938 
L 512.711007 143.51268 
L 515.35766 143.274588 
L 523.29762 143.031316 
L 528.590927 143.011428 
L 573.584033 141.289468 
L 576.230687 141.117482 
L 589.463953 140.959089 
L 594.75726 140.772011 
L 597.403913 140.723202 
L 600.050567 140.529638 
L 637.103713 139.378632 
L 642.39702 139.459594 
L 652.983633 139.177981 
L 655.630287 139.115622 
L 660.923593 138.869545 
L 668.863553 138.76664 
L 671.510207 138.621927 
L 674.15686 138.697237 
L 679.450167 138.426906 
L 690.03678 138.392997 
L 692.683433 138.252223 
L 695.330087 138.319656 
L 716.503313 137.628671 
L 729.73658 137.359667 
L 735.029887 137.400448 
L 742.969847 137.246272 
L 750.909807 136.966201 
L 753.55646 136.785074 
L 761.49642 136.832212 
L 764.143073 136.619295 
L 772.083033 136.674419 
L 801.19622 136.132044 
L 803.842873 136.166446 
L 819.722793 135.742859 
L 827.662753 135.481219 
L 832.95606 135.407043 
L 838.249367 135.356608 
L 840.89602 135.36228 
L 843.542673 135.223561 
L 843.542673 135.223561 
" clip-path="url(#pda2ebc2256)" style="fill: none; stroke: #0000ff; stroke-width: 1.5; stroke-linecap: square"/>
   </g>
   <g id="patch_3">
    <path d="M 50.87 390.04 
L 50.87 43.44 
" style="fill: none; stroke: #000000; stroke-width: 0.8; stroke-linejoin: miter; stroke-linecap: square"/>
   </g>
   <g id="patch_4">
    <path d="M 844.866 390.04 
L 844.866 43.44 
" style="fill: none; stroke: #000000; stroke-width: 0.8; stroke-linejoin: miter; stroke-linecap: square"/>
   </g>
   <g id="patch_5">
    <path d="M 50.87 390.04 
L 844.866 390.04 
" style="fill: none; stroke: #000000; stroke-width: 0.8; stroke-linejoin: miter; stroke-linecap: square"/>
   </g>
   <g id="patch_6">
    <path d="M 50.87 43.44 
L 844.866 43.44 
" style="fill: none; stroke: #000000; stroke-width: 0.8; stroke-linejoin: miter; stroke-linecap: square"/>
   </g>
   <g id="text_15">
    <!-- Mean profit per step with confidence interval per simulation step -->
    <g transform="translate(220.284875 21.763062) scale(0.14 -0.14)">
     <defs>
      <path id="DejaVuSans-4d" d="M 628 4666 
L 1569 4666 
L 2759 1491 
L 3956 4666 
L 4897 4666 
L 4897 0 
L 4281 0 
L 4281 4097 
L 3078 897 
L 2444 897 
L 1241 4097 
L 1241 0 
L 628 0 
L 628 4666 
z
" transform="scale(0.015625)"/>
      <path id="DejaVuSans-61" d="M 2194 1759 
Q 1497 1759 1228 1600 
Q 959 1441 959 1056 
Q 959 750 1161 570 
Q 1363 391 1709 391 
Q 2188 391 2477 730 
Q 2766 1069 2766 1631 
L 2766 1759 
L 2194 1759 
z
M 3341 1997 
L 3341 0 
L 2766 0 
L 2766 531 
Q 2569 213 2275 61 
Q 1981 -91 1556 -91 
Q 1019 -91 701 211 
Q 384 513 384 1019 
Q 384 1609 779 1909 
Q 1175 2209 1959 2209 
L 2766 2209 
L 2766 2266 
Q 2766 2663 2505 2880 
Q 2244 3097 1772 3097 
Q 1472 3097 1187 3025 
Q 903 2953 641 2809 
L 641 3341 
Q 956 3463 1253 3523 
Q 1550 3584 1831 3584 
Q 2591 3584 2966 3190 
Q 3341 2797 3341 1997 
z
" transform="scale(0.015625)"/>
      <path id="DejaVuSans-6e" d="M 3513 2113 
L 3513 0 
L 2938 0 
L 2938 2094 
Q 2938 2591 2744 2837 
Q 2550 3084 2163 3084 
Q 1697 3084 1428 2787 
Q 1159 2491 1159 1978 
L 1159 0 
L 581 0 
L 581 3500 
L 1159 3500 
L 1159 2956 
Q 1366 3272 1645 3428 
Q 1925 3584 2291 3584 
Q 2894 3584 3203 3211 
Q 3513 2838 3513 2113 
z
" transform="scale(0.015625)"/>
      <path id="DejaVuSans-20" transform="scale(0.015625)"/>
      <path id="DejaVuSans-73" d="M 2834 3397 
L 2834 2853 
Q 2591 2978 2328 3040 
Q 2066 3103 1784 3103 
Q 1356 3103 1142 2972 
Q 928 2841 928 2578 
Q 928 2378 1081 2264 
Q 1234 2150 1697 2047 
L 1894 2003 
Q 2506 1872 2764 1633 
Q 3022 1394 3022 966 
Q 3022 478 2636 193 
Q 2250 -91 1575 -91 
Q 1294 -91 989 -36 
Q 684 19 347 128 
L 347 722 
Q 666 556 975 473 
Q 1284 391 1588 391 
Q 1994 391 2212 530 
Q 2431 669 2431 922 
Q 2431 1156 2273 1281 
Q 2116 1406 1581 1522 
L 1381 1569 
Q 847 1681 609 1914 
Q 372 2147 372 2553 
Q 372 3047 722 3315 
Q 1072 3584 1716 3584 
Q 2034 3584 2315 3537 
Q 2597 3491 2834 3397 
z
" transform="scale(0.015625)"/>
      <path id="DejaVuSans-77" d="M 269 3500 
L 844 3500 
L 1563 769 
L 2278 3500 
L 2956 3500 
L 3675 769 
L 4391 3500 
L 4966 3500 
L 4050 0 
L 3372 0 
L 2619 2869 
L 1863 0 
L 1184 0 
L 269 3500 
z
" transform="scale(0.015625)"/>
      <path id="DejaVuSans-68" d="M 3513 2113 
L 3513 0 
L 2938 0 
L 2938 2094 
Q 2938 2591 2744 2837 
Q 2550 3084 2163 3084 
Q 1697 3084 1428 2787 
Q 1159 2491 1159 1978 
L 1159 0 
L 581 0 
L 581 4863 
L 1159 4863 
L 1159 2956 
Q 1366 3272 1645 3428 
Q 1925 3584 2291 3584 
Q 2894 3584 3203 3211 
Q 3513 2838 3513 2113 
z
" transform="scale(0.015625)"/>
      <path id="DejaVuSans-63" d="M 3122 3366 
L 3122 2828 
Q 2878 2963 2633 3030 
Q 2388 3097 2138 3097 
Q 1578 3097 1268 2742 
Q 959 2388 959 1747 
Q 959 1106 1268 751 
Q 1578 397 2138 397 
Q 2388 397 2633 464 
Q 2878 531 3122 666 
L 3122 134 
Q 2881 22 2623 -34 
Q 2366 -91 2075 -91 
Q 1284 -91 818 406 
Q 353 903 353 1747 
Q 353 2603 823 3093 
Q 1294 3584 2113 3584 
Q 2378 3584 2631 3529 
Q 2884 3475 3122 3366 
z
" transform="scale(0.015625)"/>
      <path id="DejaVuSans-64" d="M 2906 2969 
L 2906 4863 
L 3481 4863 
L 3481 0 
L 2906 0 
L 2906 525 
Q 2725 213 2448 61 
Q 2172 -91 1784 -91 
Q 1150 -91 751 415 
Q 353 922 353 1747 
Q 353 2572 751 3078 
Q 1150 3584 1784 3584 
Q 2172 3584 2448 3432 
Q 2725 3281 2906 2969 
z
M 947 1747 
Q 947 1113 1208 752 
Q 1469 391 1925 391 
Q 2381 391 2643 752 
Q 2906 1113 2906 1747 
Q 2906 2381 2643 2742 
Q 2381 3103 1925 3103 
Q 1469 3103 1208 2742 
Q 947 2381 947 1747 
z
" transform="scale(0.015625)"/>
      <path id="DejaVuSans-76" d="M 191 3500 
L 800 3500 
L 1894 563 
L 2988 3500 
L 3597 3500 
L 2284 0 
L 1503 0 
L 191 3500 
z
" transform="scale(0.015625)"/>
      <path id="DejaVuSans-6c" d="M 603 4863 
L 1178 4863 
L 1178 0 
L 603 0 
L 603 4863 
z
" transform="scale(0.015625)"/>
      <path id="DejaVuSans-6d" d="M 3328 2828 
Q 3544 3216 3844 3400 
Q 4144 3584 4550 3584 
Q 5097 3584 5394 3201 
Q 5691 2819 5691 2113 
L 5691 0 
L 5113 0 
L 5113 2094 
Q 5113 2597 4934 2840 
Q 4756 3084 4391 3084 
Q 3944 3084 3684 2787 
Q 3425 2491 3425 1978 
L 3425 0 
L 2847 0 
L 2847 2094 
Q 2847 2600 2669 2842 
Q 2491 3084 2119 3084 
Q 1678 3084 1418 2786 
Q 1159 2488 1159 1978 
L 1159 0 
L 581 0 
L 581 3500 
L 1159 3500 
L 1159 2956 
Q 1356 3278 1631 3431 
Q 1906 3584 2284 3584 
Q 2666 3584 2933 3390 
Q 3200 3197 3328 2828 
z
" transform="scale(0.015625)"/>
      <path id="DejaVuSans-75" d="M 544 1381 
L 544 3500 
L 1119 3500 
L 1119 1403 
Q 1119 906 1312 657 
Q 1506 409 1894 409 
Q 2359 409 2629 706 
Q 2900 1003 2900 1516 
L 2900 3500 
L 3475 3500 
L 3475 0 
L 2900 0 
L 2900 538 
Q 2691 219 2414 64 
Q 2138 -91 1772 -91 
Q 1169 -91 856 284 
Q 544 659 544 1381 
z
M 1991 3584 
L 1991 3584 
z
" transform="scale(0.015625)"/>
     </defs>
     <use xlink:href="#DejaVuSans-4d"/>
     <use xlink:href="#DejaVuSans-65" transform="translate(86.279297 0)"/>
     <use xlink:href="#DejaVuSans-61" transform="translate(147.802734 0)"/>
     <use xlink:href="#DejaVuSans-6e" transform="translate(209.082031 0)"/>
     <use xlink:href="#DejaVuSans-20" transform="translate(272.460938 0)"/>
     <use xlink:href="#DejaVuSans-70" transform="translate(304.248047 0)"/>
     <use xlink:href="#DejaVuSans-72" transform="translate(367.724609 0)"/>
     <use xlink:href="#DejaVuSans-6f" transform="translate(406.587891 0)"/>
     <use xlink:href="#DejaVuSans-66" transform="translate(467.769531 0)"/>
     <use xlink:href="#DejaVuSans-69" transform="translate(502.974609 0)"/>
     <use xlink:href="#DejaVuSans-74" transform="translate(530.757812 0)"/>
     <use xlink:href="#DejaVuSans-20" transform="translate(569.966797 0)"/>
     <use xlink:href="#DejaVuSans-70" transform="translate(601.753906 0)"/>
     <use xlink:href="#DejaVuSans-65" transform="translate(665.230469 0)"/>
     <use xlink:href="#DejaVuSans-72" transform="translate(726.753906 0)"/>
     <use xlink:href="#DejaVuSans-20" transform="translate(767.867188 0)"/>
     <use xlink:href="#DejaVuSans-73" transform="translate(799.654297 0)"/>
     <use xlink:href="#DejaVuSans-74" transform="translate(851.753906 0)"/>
     <use xlink:href="#DejaVuSans-65" transform="translate(890.962891 0)"/>
     <use xlink:href="#DejaVuSans-70" transform="translate(952.486328 0)"/>
     <use xlink:href="#DejaVuSans-20" transform="translate(1015.962891 0)"/>
     <use xlink:href="#DejaVuSans-77" transform="translate(1047.75 0)"/>
     <use xlink:href="#DejaVuSans-69" transform="translate(1129.537109 0)"/>
     <use xlink:href="#DejaVuSans-74" transform="translate(1157.320312 0)"/>
     <use xlink:href="#DejaVuSans-68" transform="translate(1196.529297 0)"/>
     <use xlink:href="#DejaVuSans-20" transform="translate(1259.908203 0)"/>
     <use xlink:href="#DejaVuSans-63" transform="translate(1291.695312 0)"/>
     <use xlink:href="#DejaVuSans-6f" transform="translate(1346.675781 0)"/>
     <use xlink:href="#DejaVuSans-6e" transform="translate(1407.857422 0)"/>
     <use xlink:href="#DejaVuSans-66" transform="translate(1471.236328 0)"/>
     <use xlink:href="#DejaVuSans-69" transform="translate(1506.441406 0)"/>
     <use xlink:href="#DejaVuSans-64" transform="translate(1534.224609 0)"/>
     <use xlink:href="#DejaVuSans-65" transform="translate(1597.701172 0)"/>
     <use xlink:href="#DejaVuSans-6e" transform="translate(1659.224609 0)"/>
     <use xlink:href="#DejaVuSans-63" transform="translate(1722.603516 0)"/>
     <use xlink:href="#DejaVuSans-65" transform="translate(1777.583984 0)"/>
     <use xlink:href="#DejaVuSans-20" transform="translate(1839.107422 0)"/>
     <use xlink:href="#DejaVuSans-69" transform="translate(1870.894531 0)"/>
     <use xlink:href="#DejaVuSans-6e" transform="translate(1898.677734 0)"/>
     <use xlink:href="#DejaVuSans-74" transform="translate(1962.056641 0)"/>
     <use xlink:href="#DejaVuSans-65" transform="translate(2001.265625 0)"/>
     <use xlink:href="#DejaVuSans-72" transform="translate(2062.789062 0)"/>
     <use xlink:href="#DejaVuSans-76" transform="translate(2103.902344 0)"/>
     <use xlink:href="#DejaVuSans-61" transform="translate(2163.082031 0)"/>
     <use xlink:href="#DejaVuSans-6c" transform="translate(2224.361328 0)"/>
     <use xlink:href="#DejaVuSans-20" transform="translate(2252.144531 0)"/>
     <use xlink:href="#DejaVuSans-70" transform="translate(2283.931641 0)"/>
     <use xlink:href="#DejaVuSans-65" transform="translate(2347.408203 0)"/>
     <use xlink:href="#DejaVuSans-72" transform="translate(2408.931641 0)"/>
     <use xlink:href="#DejaVuSans-20" transform="translate(2450.044922 0)"/>
     <use xlink:href="#DejaVuSans-73" transform="translate(2481.832031 0)"/>
     <use xlink:href="#DejaVuSans-69" transform="translate(2533.931641 0)"/>
     <use xlink:href="#DejaVuSans-6d" transform="translate(2561.714844 0)"/>
     <use xlink:href="#DejaVuSans-75" transform="translate(2659.126953 0)"/>
     <use xlink:href="#DejaVuSans-6c" transform="translate(2722.505859 0)"/>
     <use xlink:href="#DejaVuSans-61" transform="translate(2750.289062 0)"/>
     <use xlink:href="#DejaVuSans-74" transform="translate(2811.568359 0)"/>
     <use xlink:href="#DejaVuSans-69" transform="translate(2850.777344 0)"/>
     <use xlink:href="#DejaVuSans-6f" transform="translate(2878.560547 0)"/>
     <use xlink:href="#DejaVuSans-6e" transform="translate(2939.742188 0)"/>
     <use xlink:href="#DejaVuSans-20" transform="translate(3003.121094 0)"/>
     <use xlink:href="#DejaVuSans-73" transform="translate(3034.908203 0)"/>
     <use xlink:href="#DejaVuSans-74" transform="translate(3087.007812 0)"/>
     <use xlink:href="#DejaVuSans-65" transform="translate(3126.216797 0)"/>
     <use xlink:href="#DejaVuSans-70" transform="translate(3187.740234 0)"/>
    </g>
    <!-- Base Product: Green Crack, Recipe size: 7, T0: 20.0 -->
    <g transform="translate(268.031437 37.44) scale(0.14 -0.14)">
     <defs>
      <path id="DejaVuSans-42" d="M 1259 2228 
L 1259 519 
L 2272 519 
Q 2781 519 3026 730 
Q 3272 941 3272 1375 
Q 3272 1813 3026 2020 
Q 2781 2228 2272 2228 
L 1259 2228 
z
M 1259 4147 
L 1259 2741 
L 2194 2741 
Q 2656 2741 2882 2914 
Q 3109 3088 3109 3444 
Q 3109 3797 2882 3972 
Q 2656 4147 2194 4147 
L 1259 4147 
z
M 628 4666 
L 2241 4666 
Q 2963 4666 3353 4366 
Q 3744 4066 3744 3513 
Q 3744 3084 3544 2831 
Q 3344 2578 2956 2516 
Q 3422 2416 3680 2098 
Q 3938 1781 3938 1306 
Q 3938 681 3513 340 
Q 3088 0 2303 0 
L 628 0 
L 628 4666 
z
" transform="scale(0.015625)"/>
      <path id="DejaVuSans-3a" d="M 750 794 
L 1409 794 
L 1409 0 
L 750 0 
L 750 794 
z
M 750 3309 
L 1409 3309 
L 1409 2516 
L 750 2516 
L 750 3309 
z
" transform="scale(0.015625)"/>
      <path id="DejaVuSans-47" d="M 3809 666 
L 3809 1919 
L 2778 1919 
L 2778 2438 
L 4434 2438 
L 4434 434 
Q 4069 175 3628 42 
Q 3188 -91 2688 -91 
Q 1594 -91 976 548 
Q 359 1188 359 2328 
Q 359 3472 976 4111 
Q 1594 4750 2688 4750 
Q 3144 4750 3555 4637 
Q 3966 4525 4313 4306 
L 4313 3634 
Q 3963 3931 3569 4081 
Q 3175 4231 2741 4231 
Q 1884 4231 1454 3753 
Q 1025 3275 1025 2328 
Q 1025 1384 1454 906 
Q 1884 428 2741 428 
Q 3075 428 3337 486 
Q 3600 544 3809 666 
z
" transform="scale(0.015625)"/>
      <path id="DejaVuSans-43" d="M 4122 4306 
L 4122 3641 
Q 3803 3938 3442 4084 
Q 3081 4231 2675 4231 
Q 1875 4231 1450 3742 
Q 1025 3253 1025 2328 
Q 1025 1406 1450 917 
Q 1875 428 2675 428 
Q 3081 428 3442 575 
Q 3803 722 4122 1019 
L 4122 359 
Q 3791 134 3420 21 
Q 3050 -91 2638 -91 
Q 1578 -91 968 557 
Q 359 1206 359 2328 
Q 359 3453 968 4101 
Q 1578 4750 2638 4750 
Q 3056 4750 3426 4639 
Q 3797 4528 4122 4306 
z
" transform="scale(0.015625)"/>
      <path id="DejaVuSans-6b" d="M 581 4863 
L 1159 4863 
L 1159 1991 
L 2875 3500 
L 3609 3500 
L 1753 1863 
L 3688 0 
L 2938 0 
L 1159 1709 
L 1159 0 
L 581 0 
L 581 4863 
z
" transform="scale(0.015625)"/>
      <path id="DejaVuSans-2c" d="M 750 794 
L 1409 794 
L 1409 256 
L 897 -744 
L 494 -744 
L 750 256 
L 750 794 
z
" transform="scale(0.015625)"/>
      <path id="DejaVuSans-52" d="M 2841 2188 
Q 3044 2119 3236 1894 
Q 3428 1669 3622 1275 
L 4263 0 
L 3584 0 
L 2988 1197 
Q 2756 1666 2539 1819 
Q 2322 1972 1947 1972 
L 1259 1972 
L 1259 0 
L 628 0 
L 628 4666 
L 2053 4666 
Q 2853 4666 3247 4331 
Q 3641 3997 3641 3322 
Q 3641 2881 3436 2590 
Q 3231 2300 2841 2188 
z
M 1259 4147 
L 1259 2491 
L 2053 2491 
Q 2509 2491 2742 2702 
Q 2975 2913 2975 3322 
Q 2975 3731 2742 3939 
Q 2509 4147 2053 4147 
L 1259 4147 
z
" transform="scale(0.015625)"/>
      <path id="DejaVuSans-7a" d="M 353 3500 
L 3084 3500 
L 3084 2975 
L 922 459 
L 3084 459 
L 3084 0 
L 275 0 
L 275 525 
L 2438 3041 
L 353 3041 
L 353 3500 
z
" transform="scale(0.015625)"/>
      <path id="DejaVuSans-37" d="M 525 4666 
L 3525 4666 
L 3525 4397 
L 1831 0 
L 1172 0 
L 2766 4134 
L 525 4134 
L 525 4666 
z
" transform="scale(0.015625)"/>
      <path id="DejaVuSans-54" d="M -19 4666 
L 3928 4666 
L 3928 4134 
L 2272 4134 
L 2272 0 
L 1638 0 
L 1638 4134 
L -19 4134 
L -19 4666 
z
" transform="scale(0.015625)"/>
      <path id="DejaVuSans-2e" d="M 684 794 
L 1344 794 
L 1344 0 
L 684 0 
L 684 794 
z
" transform="scale(0.015625)"/>
     </defs>
     <use xlink:href="#DejaVuSans-42"/>
     <use xlink:href="#DejaVuSans-61" transform="translate(68.603516 0)"/>
     <use xlink:href="#DejaVuSans-73" transform="translate(129.882812 0)"/>
     <use xlink:href="#DejaVuSans-65" transform="translate(181.982422 0)"/>
     <use xlink:href="#DejaVuSans-20" transform="translate(243.505859 0)"/>
     <use xlink:href="#DejaVuSans-50" transform="translate(275.292969 0)"/>
     <use xlink:href="#DejaVuSans-72" transform="translate(333.845703 0)"/>
     <use xlink:href="#DejaVuSans-6f" transform="translate(372.708984 0)"/>
     <use xlink:href="#DejaVuSans-64" transform="translate(433.890625 0)"/>
     <use xlink:href="#DejaVuSans-75" transform="translate(497.367188 0)"/>
     <use xlink:href="#DejaVuSans-63" transform="translate(560.746094 0)"/>
     <use xlink:href="#DejaVuSans-74" transform="translate(615.726562 0)"/>
     <use xlink:href="#DejaVuSans-3a" transform="translate(654.935547 0)"/>
     <use xlink:href="#DejaVuSans-20" transform="translate(688.626953 0)"/>
     <use xlink:href="#DejaVuSans-47" transform="translate(720.414062 0)"/>
     <use xlink:href="#DejaVuSans-72" transform="translate(797.904297 0)"/>
     <use xlink:href="#DejaVuSans-65" transform="translate(836.767578 0)"/>
     <use xlink:href="#DejaVuSans-65" transform="translate(898.291016 0)"/>
     <use xlink:href="#DejaVuSans-6e" transform="translate(959.814453 0)"/>
     <use xlink:href="#DejaVuSans-20" transform="translate(1023.193359 0)"/>
     <use xlink:href="#DejaVuSans-43" transform="translate(1054.980469 0)"/>
     <use xlink:href="#DejaVuSans-72" transform="translate(1124.804688 0)"/>
     <use xlink:href="#DejaVuSans-61" transform="translate(1165.917969 0)"/>
     <use xlink:href="#DejaVuSans-63" transform="translate(1227.197266 0)"/>
     <use xlink:href="#DejaVuSans-6b" transform="translate(1282.177734 0)"/>
     <use xlink:href="#DejaVuSans-2c" transform="translate(1340.087891 0)"/>
     <use xlink:href="#DejaVuSans-20" transform="translate(1371.875 0)"/>
     <use xlink:href="#DejaVuSans-52" transform="translate(1403.662109 0)"/>
     <use xlink:href="#DejaVuSans-65" transform="translate(1468.644531 0)"/>
     <use xlink:href="#DejaVuSans-63" transform="translate(1530.167969 0)"/>
     <use xlink:href="#DejaVuSans-69" transform="translate(1585.148438 0)"/>
     <use xlink:href="#DejaVuSans-70" transform="translate(1612.931641 0)"/>
     <use xlink:href="#DejaVuSans-65" transform="translate(1676.408203 0)"/>
     <use xlink:href="#DejaVuSans-20" transform="translate(1737.931641 0)"/>
     <use xlink:href="#DejaVuSans-73" transform="translate(1769.71875 0)"/>
     <use xlink:href="#DejaVuSans-69" transform="translate(1821.818359 0)"/>
     <use xlink:href="#DejaVuSans-7a" transform="translate(1849.601562 0)"/>
     <use xlink:href="#DejaVuSans-65" transform="translate(1902.091797 0)"/>
     <use xlink:href="#DejaVuSans-3a" transform="translate(1963.615234 0)"/>
     <use xlink:href="#DejaVuSans-20" transform="translate(1997.306641 0)"/>
     <use xlink:href="#DejaVuSans-37" transform="translate(2029.09375 0)"/>
     <use xlink:href="#DejaVuSans-2c" transform="translate(2092.716797 0)"/>
     <use xlink:href="#DejaVuSans-20" transform="translate(2124.503906 0)"/>
     <use xlink:href="#DejaVuSans-54" transform="translate(2156.291016 0)"/>
     <use xlink:href="#DejaVuSans-30" transform="translate(2217.375 0)"/>
     <use xlink:href="#DejaVuSans-3a" transform="translate(2280.998047 0)"/>
     <use xlink:href="#DejaVuSans-20" transform="translate(2314.689453 0)"/>
     <use xlink:href="#DejaVuSans-32" transform="translate(2346.476562 0)"/>
     <use xlink:href="#DejaVuSans-30" transform="translate(2410.099609 0)"/>
     <use xlink:href="#DejaVuSans-2e" transform="translate(2473.722656 0)"/>
     <use xlink:href="#DejaVuSans-30" transform="translate(2505.509766 0)"/>
    </g>
   </g>
  </g>
 </g>
 <defs>
  <clipPath id="pda2ebc2256">
   <rect x="50.87" y="43.44" width="793.996" height="346.6"/>
  </clipPath>
 </defs>
</svg>
