<?xml version="1.0" encoding="utf-8" standalone="no"?>
<!DOCTYPE svg PUBLIC "-//W3C//DTD SVG 1.1//EN"
  "http://www.w3.org/Graphics/SVG/1.1/DTD/svg11.dtd">
<svg xmlns:xlink="http://www.w3.org/1999/xlink" width="864pt" height="432pt" viewBox="0 0 864 432" xmlns="http://www.w3.org/2000/svg" version="1.1">
 <metadata>
  <rdf:RDF xmlns:dc="http://purl.org/dc/elements/1.1/" xmlns:cc="http://creativecommons.org/ns#" xmlns:rdf="http://www.w3.org/1999/02/22-rdf-syntax-ns#">
   <cc:Work>
    <dc:type rdf:resource="http://purl.org/dc/dcmitype/StillImage"/>
    <dc:date>2025-05-24T02:12:35.186280</dc:date>
    <dc:format>image/svg+xml</dc:format>
    <dc:creator>
     <cc:Agent>
      <dc:title>Matplotlib v3.10.3, https://matplotlib.org/</dc:title>
     </cc:Agent>
    </dc:creator>
   </cc:Work>
  </rdf:RDF>
 </metadata>
 <defs>
  <style type="text/css">*{stroke-linejoin: round; stroke-linecap: butt}</style>
 </defs>
 <g id="figure_1">
  <g id="patch_1">
   <path d="M 0 432 
L 864 432 
L 864 0 
L 0 0 
z
" style="fill: #ffffff"/>
  </g>
  <g id="axes_1">
   <g id="patch_2">
    <path d="M 50.87 390.04 
L 844.866 390.04 
L 844.866 43.44 
L 50.87 43.44 
z
" style="fill: #ffffff"/>
   </g>
   <g id="FillBetweenPolyCollection_1">
    <defs>
     <path id="m5f94522fbe" d="M 52.193327 -327.720276 
L 52.193327 -57.714545 
L 54.83998 -57.977956 
L 57.486633 -60.914817 
L 60.133287 -64.656176 
L 62.77994 -66.814145 
L 65.426593 -70.030575 
L 68.073247 -75.558041 
L 70.7199 -77.040966 
L 73.366553 -79.632676 
L 76.013207 -83.362059 
L 78.65986 -84.126216 
L 81.306513 -85.289881 
L 83.953167 -89.546494 
L 86.59982 -91.700144 
L 89.246473 -93.239273 
L 91.893127 -94.984789 
L 94.53978 -96.762144 
L 97.186433 -97.549571 
L 99.833087 -99.060211 
L 102.47974 -100.205473 
L 105.126393 -99.512709 
L 107.773047 -100.334585 
L 110.4197 -102.809718 
L 113.066353 -103.584781 
L 115.713007 -103.691011 
L 118.35966 -104.867451 
L 121.006313 -105.455831 
L 123.652967 -107.585561 
L 126.29962 -107.621617 
L 128.946273 -107.64238 
L 131.592927 -109.073854 
L 134.23958 -110.099986 
L 136.886233 -110.628436 
L 139.532887 -110.792647 
L 142.17954 -111.090871 
L 144.826193 -111.921727 
L 147.472847 -111.35607 
L 150.1195 -112.961192 
L 152.766153 -113.915086 
L 155.412807 -114.030273 
L 158.05946 -114.590198 
L 160.706113 -116.059631 
L 163.352767 -114.752187 
L 165.99942 -114.962949 
L 168.646073 -115.692965 
L 171.292727 -116.434297 
L 173.93938 -117.239604 
L 176.586033 -117.887458 
L 179.232687 -117.563537 
L 181.87934 -116.359177 
L 184.525993 -115.918439 
L 187.172647 -116.643909 
L 189.8193 -116.883126 
L 192.465953 -117.820052 
L 195.112607 -118.211139 
L 197.75926 -119.316015 
L 200.405913 -120.893365 
L 203.052567 -122.513688 
L 205.69922 -121.816229 
L 208.345873 -122.383504 
L 210.992527 -122.19714 
L 213.63918 -122.602608 
L 216.285833 -122.793975 
L 218.932487 -122.861938 
L 221.57914 -122.856788 
L 224.225793 -122.085212 
L 226.872447 -122.747492 
L 229.5191 -123.220354 
L 232.165753 -123.153393 
L 234.812407 -123.365124 
L 237.45906 -124.501816 
L 240.105713 -124.202396 
L 242.752367 -123.838499 
L 245.39902 -124.161873 
L 248.045673 -124.436303 
L 250.692327 -124.74966 
L 253.33898 -126.012969 
L 255.985633 -126.691089 
L 258.632287 -125.552654 
L 261.27894 -126.472441 
L 263.925593 -126.917373 
L 266.572247 -126.307387 
L 269.2189 -127.030805 
L 271.865553 -126.894593 
L 274.512207 -125.603159 
L 277.15886 -127.446016 
L 279.805513 -127.837696 
L 282.452167 -127.765493 
L 285.09882 -128.461083 
L 287.745473 -128.432787 
L 290.392127 -128.816125 
L 293.03878 -129.663938 
L 295.685433 -130.209276 
L 298.332087 -129.608509 
L 300.97874 -130.024883 
L 303.625393 -129.47722 
L 306.272047 -129.48481 
L 308.9187 -128.550311 
L 311.565353 -128.974969 
L 314.212007 -129.469095 
L 316.85866 -130.051538 
L 319.505313 -130.19567 
L 322.151967 -131.099777 
L 324.79862 -130.480663 
L 327.445273 -130.966926 
L 330.091927 -130.935942 
L 332.73858 -130.848469 
L 335.385233 -130.248671 
L 338.031887 -132.416577 
L 340.67854 -131.180982 
L 343.325193 -131.213266 
L 345.971847 -130.91078 
L 348.6185 -131.690652 
L 351.265153 -131.240091 
L 353.911807 -131.008805 
L 356.55846 -131.601629 
L 359.205113 -132.084975 
L 361.851767 -131.94686 
L 364.49842 -131.697877 
L 367.145073 -132.420235 
L 369.791727 -131.597265 
L 372.43838 -133.024728 
L 375.085033 -132.908857 
L 377.731687 -132.510933 
L 380.37834 -134.151495 
L 383.024993 -134.439269 
L 385.671647 -134.200188 
L 388.3183 -134.415748 
L 390.964953 -135.280859 
L 393.611607 -135.446107 
L 396.25826 -135.74816 
L 398.904913 -136.064469 
L 401.551567 -136.229216 
L 404.19822 -134.882331 
L 406.844873 -135.708959 
L 409.491527 -134.68146 
L 412.13818 -134.810037 
L 414.784833 -135.15814 
L 417.431487 -135.251367 
L 420.07814 -135.676151 
L 422.724793 -135.207095 
L 425.371447 -134.676412 
L 428.0181 -135.515826 
L 430.664753 -134.745492 
L 433.311407 -134.483244 
L 435.95806 -134.470299 
L 438.604713 -133.867242 
L 441.251367 -134.369846 
L 443.89802 -135.340926 
L 446.544673 -135.204315 
L 449.191327 -134.480863 
L 451.83798 -134.467416 
L 454.484633 -135.066302 
L 457.131287 -134.486492 
L 459.77794 -135.36848 
L 462.424593 -135.428228 
L 465.071247 -135.149046 
L 467.7179 -134.746814 
L 470.364553 -135.615492 
L 473.011207 -136.590184 
L 475.65786 -137.176957 
L 478.304513 -137.413918 
L 480.951167 -138.133062 
L 483.59782 -138.56196 
L 486.244473 -138.528571 
L 488.891127 -139.563181 
L 491.53778 -138.809473 
L 494.184433 -139.036144 
L 496.831087 -139.723836 
L 499.47774 -138.956933 
L 502.124393 -138.799456 
L 504.771047 -138.403971 
L 507.4177 -138.37416 
L 510.064353 -138.142897 
L 512.711007 -138.312646 
L 515.35766 -137.624589 
L 518.004313 -137.015765 
L 520.650967 -137.84204 
L 523.29762 -138.010684 
L 525.944273 -138.478327 
L 528.590927 -138.657239 
L 531.23758 -138.180217 
L 533.884233 -138.898758 
L 536.530887 -138.039675 
L 539.17754 -137.849003 
L 541.824193 -137.959142 
L 544.470847 -137.72903 
L 547.1175 -138.803342 
L 549.764153 -138.925002 
L 552.410807 -138.540627 
L 555.05746 -138.046398 
L 557.704113 -137.282799 
L 560.350767 -137.950025 
L 562.99742 -138.307962 
L 565.644073 -138.320258 
L 568.290727 -138.694366 
L 570.93738 -138.993854 
L 573.584033 -139.587909 
L 576.230687 -138.798191 
L 578.87734 -138.338332 
L 581.523993 -137.955541 
L 584.170647 -139.382001 
L 586.8173 -138.64108 
L 589.463953 -139.524561 
L 592.110607 -141.024785 
L 594.75726 -140.735552 
L 597.403913 -140.21549 
L 600.050567 -140.786536 
L 602.69722 -140.217962 
L 605.343873 -140.930953 
L 607.990527 -141.032432 
L 610.63718 -141.459278 
L 613.283833 -142.081879 
L 615.930487 -142.249189 
L 618.57714 -143.242524 
L 621.223793 -141.746949 
L 623.870447 -142.059953 
L 626.5171 -141.856256 
L 629.163753 -141.177509 
L 631.810407 -141.669208 
L 634.45706 -141.090994 
L 637.103713 -141.305779 
L 639.750367 -141.825158 
L 642.39702 -141.119779 
L 645.043673 -141.445672 
L 647.690327 -141.845624 
L 650.33698 -141.869703 
L 652.983633 -143.166709 
L 655.630287 -141.93892 
L 658.27694 -141.82518 
L 660.923593 -142.774802 
L 663.570247 -142.01126 
L 666.2169 -141.365355 
L 668.863553 -141.244026 
L 671.510207 -141.495949 
L 674.15686 -141.557941 
L 676.803513 -141.52813 
L 679.450167 -141.488793 
L 682.09682 -141.60733 
L 684.743473 -141.351703 
L 687.390127 -141.718187 
L 690.03678 -141.501749 
L 692.683433 -141.37495 
L 695.330087 -142.316469 
L 697.97674 -142.32668 
L 700.623393 -143.109514 
L 703.270047 -143.319114 
L 705.9167 -143.275606 
L 708.563353 -144.335218 
L 711.210007 -144.267619 
L 713.85666 -144.976918 
L 716.503313 -144.194562 
L 719.149967 -144.499361 
L 721.79662 -144.906618 
L 724.443273 -143.879825 
L 727.089927 -144.843235 
L 729.73658 -144.281852 
L 732.383233 -144.672198 
L 735.029887 -143.770929 
L 737.67654 -143.035021 
L 740.323193 -143.008469 
L 742.969847 -144.595483 
L 745.6165 -144.343092 
L 748.263153 -144.581774 
L 750.909807 -145.259541 
L 753.55646 -144.58109 
L 756.203113 -144.453915 
L 758.849767 -144.328449 
L 761.49642 -143.889215 
L 764.143073 -144.228475 
L 766.789727 -144.093334 
L 769.43638 -143.199916 
L 772.083033 -142.462151 
L 774.729687 -143.284392 
L 777.37634 -143.439452 
L 780.022993 -143.533421 
L 782.669647 -144.203165 
L 785.3163 -144.77354 
L 787.962953 -144.59056 
L 790.609607 -144.008596 
L 793.25626 -144.481549 
L 795.902913 -143.908303 
L 798.549567 -143.341815 
L 801.19622 -143.740594 
L 803.842873 -144.036265 
L 806.489527 -143.86574 
L 809.13618 -143.131656 
L 811.782833 -144.011787 
L 814.429487 -143.456911 
L 817.07614 -142.811667 
L 819.722793 -144.909273 
L 822.369447 -145.033907 
L 825.0161 -144.957488 
L 827.662753 -145.169139 
L 830.309407 -145.166564 
L 832.95606 -145.764037 
L 835.602713 -145.487135 
L 838.249367 -145.599997 
L 840.89602 -144.477755 
L 843.542673 -144.998216 
L 843.542673 -372.091632 
L 843.542673 -372.091632 
L 840.89602 -372.805455 
L 838.249367 -371.525451 
L 835.602713 -371.496187 
L 832.95606 -371.699964 
L 830.309407 -371.952445 
L 827.662753 -372.181407 
L 825.0161 -372.017082 
L 822.369447 -371.460997 
L 819.722793 -371.415665 
L 817.07614 -372.665197 
L 814.429487 -372.147676 
L 811.782833 -371.400395 
L 809.13618 -372.018107 
L 806.489527 -371.510158 
L 803.842873 -371.164095 
L 801.19622 -371.276844 
L 798.549567 -371.89492 
L 795.902913 -371.628308 
L 793.25626 -371.555011 
L 790.609607 -371.678996 
L 787.962953 -371.038606 
L 785.3163 -370.766684 
L 782.669647 -370.840482 
L 780.022993 -371.604263 
L 777.37634 -371.92423 
L 774.729687 -372.005048 
L 772.083033 -372.222112 
L 769.43638 -371.703428 
L 766.789727 -371.249973 
L 764.143073 -371.24701 
L 761.49642 -371.156255 
L 758.849767 -371.253072 
L 756.203113 -371.378675 
L 753.55646 -370.966381 
L 750.909807 -370.498202 
L 748.263153 -370.841941 
L 745.6165 -370.811286 
L 742.969847 -370.49973 
L 740.323193 -371.322312 
L 737.67654 -371.383188 
L 735.029887 -370.979395 
L 732.383233 -370.181791 
L 729.73658 -370.722355 
L 727.089927 -370.394821 
L 724.443273 -371.02835 
L 721.79662 -370.211876 
L 719.149967 -370.177392 
L 716.503313 -370.326106 
L 713.85666 -369.835181 
L 711.210007 -370.155422 
L 708.563353 -370.275532 
L 705.9167 -370.495331 
L 703.270047 -370.608444 
L 700.623393 -370.660454 
L 697.97674 -370.551648 
L 695.330087 -370.57289 
L 692.683433 -371.284684 
L 690.03678 -371.25403 
L 687.390127 -371.043689 
L 684.743473 -371.104815 
L 682.09682 -370.867057 
L 679.450167 -371.103698 
L 676.803513 -370.842966 
L 674.15686 -371.158124 
L 671.510207 -371.19263 
L 668.863553 -370.064325 
L 666.2169 -370.223135 
L 663.570247 -370.05302 
L 660.923593 -369.988065 
L 658.27694 -370.636568 
L 655.630287 -370.438603 
L 652.983633 -369.598129 
L 650.33698 -370.273344 
L 647.690327 -369.984328 
L 645.043673 -370.215021 
L 642.39702 -370.332054 
L 639.750367 -369.884092 
L 637.103713 -370.328202 
L 634.45706 -370.280569 
L 631.810407 -369.20906 
L 629.163753 -369.549516 
L 626.5171 -368.866484 
L 623.870447 -368.706102 
L 621.223793 -368.811602 
L 618.57714 -367.475829 
L 615.930487 -367.697724 
L 613.283833 -368.481653 
L 610.63718 -368.429803 
L 607.990527 -368.875988 
L 605.343873 -368.864638 
L 602.69722 -369.087628 
L 600.050567 -368.942949 
L 597.403913 -368.843032 
L 594.75726 -368.857299 
L 592.110607 -369.079218 
L 589.463953 -370.165928 
L 586.8173 -370.388462 
L 584.170647 -369.600249 
L 581.523993 -370.813611 
L 578.87734 -370.121007 
L 576.230687 -369.781303 
L 573.584033 -369.237366 
L 570.93738 -369.382023 
L 568.290727 -369.489073 
L 565.644073 -369.64802 
L 562.99742 -369.956477 
L 560.350767 -369.859067 
L 557.704113 -369.795023 
L 555.05746 -369.173277 
L 552.410807 -369.229321 
L 549.764153 -368.728984 
L 547.1175 -368.221012 
L 544.470847 -368.698603 
L 541.824193 -368.236328 
L 539.17754 -368.836855 
L 536.530887 -368.699241 
L 533.884233 -368.254242 
L 531.23758 -368.62501 
L 528.590927 -368.365281 
L 525.944273 -368.61954 
L 523.29762 -368.735069 
L 520.650967 -368.236829 
L 518.004313 -368.452799 
L 515.35766 -368.434247 
L 512.711007 -367.69663 
L 510.064353 -367.756207 
L 507.4177 -368.018375 
L 504.771047 -367.629419 
L 502.124393 -367.431796 
L 499.47774 -367.156318 
L 496.831087 -366.491382 
L 494.184433 -366.478072 
L 491.53778 -366.390212 
L 488.891127 -366.175062 
L 486.244473 -366.731739 
L 483.59782 -366.815132 
L 480.951167 -366.962022 
L 478.304513 -367.190641 
L 475.65786 -367.438314 
L 473.011207 -367.340357 
L 470.364553 -367.525331 
L 467.7179 -368.740653 
L 465.071247 -367.695263 
L 462.424593 -367.795134 
L 459.77794 -367.816057 
L 457.131287 -368.492958 
L 454.484633 -367.804069 
L 451.83798 -368.536922 
L 449.191327 -368.578676 
L 446.544673 -368.376266 
L 443.89802 -368.183498 
L 441.251367 -368.648987 
L 438.604713 -368.432652 
L 435.95806 -367.63441 
L 433.311407 -367.990319 
L 430.664753 -367.700231 
L 428.0181 -366.884349 
L 425.371447 -367.374339 
L 422.724793 -366.646408 
L 420.07814 -366.044764 
L 417.431487 -366.374691 
L 414.784833 -366.552964 
L 412.13818 -366.68406 
L 409.491527 -366.455235 
L 406.844873 -365.397447 
L 404.19822 -366.198742 
L 401.551567 -365.173454 
L 398.904913 -364.604037 
L 396.25826 -365.20641 
L 393.611607 -365.150617 
L 390.964953 -365.063873 
L 388.3183 -366.017096 
L 385.671647 -365.908928 
L 383.024993 -364.973255 
L 380.37834 -365.182798 
L 377.731687 -366.119656 
L 375.085033 -365.871938 
L 372.43838 -365.201738 
L 369.791727 -365.797502 
L 367.145073 -365.185305 
L 364.49842 -365.312936 
L 361.851767 -364.818776 
L 359.205113 -363.944776 
L 356.55846 -364.365594 
L 353.911807 -364.872518 
L 351.265153 -365.199618 
L 348.6185 -364.985243 
L 345.971847 -365.42507 
L 343.325193 -365.262021 
L 340.67854 -364.815631 
L 338.031887 -363.46698 
L 335.385233 -364.717446 
L 332.73858 -364.177566 
L 330.091927 -363.734868 
L 327.445273 -363.469305 
L 324.79862 -364.127198 
L 322.151967 -363.45424 
L 319.505313 -364.30187 
L 316.85866 -364.107232 
L 314.212007 -364.255558 
L 311.565353 -364.554033 
L 308.9187 -364.496963 
L 306.272047 -362.985856 
L 303.625393 -362.372246 
L 300.97874 -361.723174 
L 298.332087 -362.962062 
L 295.685433 -362.112289 
L 293.03878 -362.472505 
L 290.392127 -363.038641 
L 287.745473 -363.354368 
L 285.09882 -363.005502 
L 282.452167 -363.739244 
L 279.805513 -362.770251 
L 277.15886 -363.15613 
L 274.512207 -364.277916 
L 271.865553 -363.823572 
L 269.2189 -363.722493 
L 266.572247 -363.552903 
L 263.925593 -362.63405 
L 261.27894 -363.295407 
L 258.632287 -364.117101 
L 255.985633 -362.563123 
L 253.33898 -362.40714 
L 250.692327 -362.791538 
L 248.045673 -362.303987 
L 245.39902 -362.472824 
L 242.752367 -362.941686 
L 240.105713 -362.497211 
L 237.45906 -361.819535 
L 234.812407 -362.117144 
L 232.165753 -361.755583 
L 229.5191 -361.274459 
L 226.872447 -361.170941 
L 224.225793 -361.13288 
L 221.57914 -359.919016 
L 218.932487 -359.36177 
L 216.285833 -359.760435 
L 213.63918 -359.631618 
L 210.992527 -359.988917 
L 208.345873 -359.277533 
L 205.69922 -359.44514 
L 203.052567 -358.467622 
L 200.405913 -359.139555 
L 197.75926 -359.688004 
L 195.112607 -360.370876 
L 192.465953 -359.939893 
L 189.8193 -360.561616 
L 187.172647 -359.87569 
L 184.525993 -359.707969 
L 181.87934 -359.452616 
L 179.232687 -358.223186 
L 176.586033 -357.372912 
L 173.93938 -356.997494 
L 171.292727 -357.225407 
L 168.646073 -357.111701 
L 165.99942 -357.075805 
L 163.352767 -357.195755 
L 160.706113 -355.882932 
L 158.05946 -356.223639 
L 155.412807 -355.911034 
L 152.766153 -355.385695 
L 150.1195 -355.270644 
L 147.472847 -355.198669 
L 144.826193 -353.811456 
L 142.17954 -353.766557 
L 139.532887 -353.980749 
L 136.886233 -353.100459 
L 134.23958 -353.193698 
L 131.592927 -352.606709 
L 128.946273 -352.648052 
L 126.29962 -352.20009 
L 123.652967 -351.499668 
L 121.006313 -351.765027 
L 118.35966 -351.896396 
L 115.713007 -352.044266 
L 113.066353 -351.269704 
L 110.4197 -351.072993 
L 107.773047 -351.704448 
L 105.126393 -350.85855 
L 102.47974 -349.293427 
L 99.833087 -347.840119 
L 97.186433 -347.677138 
L 94.53978 -346.473941 
L 91.893127 -346.177427 
L 89.246473 -345.47762 
L 86.59982 -344.785563 
L 83.953167 -343.679708 
L 81.306513 -344.510381 
L 78.65986 -342.534423 
L 76.013207 -340.48257 
L 73.366553 -340.051496 
L 70.7199 -338.944569 
L 68.073247 -337.41099 
L 65.426593 -336.745941 
L 62.77994 -335.913922 
L 60.133287 -331.905256 
L 57.486633 -329.530109 
L 54.83998 -326.851951 
L 52.193327 -327.720276 
z
" style="stroke: #0000ff; stroke-opacity: 0.2"/>
    </defs>
    <g clip-path="url(#p590733b563)">
     <use xlink:href="#m5f94522fbe" x="0" y="432" style="fill: #0000ff; fill-opacity: 0.2; stroke: #0000ff; stroke-opacity: 0.2"/>
    </g>
   </g>
   <g id="matplotlib.axis_1">
    <g id="xtick_1">
     <g id="line2d_1">
      <defs>
       <path id="m85e5500608" d="M 0 0 
L 0 3.5 
" style="stroke: #000000; stroke-width: 0.8"/>
      </defs>
      <g>
       <use xlink:href="#m85e5500608" x="181.87934" y="390.04" style="stroke: #000000; stroke-width: 0.8"/>
      </g>
     </g>
     <g id="text_1">
      <!-- 50 -->
      <g transform="translate(175.51684 404.638438) scale(0.1 -0.1)">
       <defs>
        <path id="DejaVuSans-35" d="M 691 4666 
L 3169 4666 
L 3169 4134 
L 1269 4134 
L 1269 2991 
Q 1406 3038 1543 3061 
Q 1681 3084 1819 3084 
Q 2600 3084 3056 2656 
Q 3513 2228 3513 1497 
Q 3513 744 3044 326 
Q 2575 -91 1722 -91 
Q 1428 -91 1123 -41 
Q 819 9 494 109 
L 494 744 
Q 775 591 1075 516 
Q 1375 441 1709 441 
Q 2250 441 2565 725 
Q 2881 1009 2881 1497 
Q 2881 1984 2565 2268 
Q 2250 2553 1709 2553 
Q 1456 2553 1204 2497 
Q 953 2441 691 2322 
L 691 4666 
z
" transform="scale(0.015625)"/>
        <path id="DejaVuSans-30" d="M 2034 4250 
Q 1547 4250 1301 3770 
Q 1056 3291 1056 2328 
Q 1056 1369 1301 889 
Q 1547 409 2034 409 
Q 2525 409 2770 889 
Q 3016 1369 3016 2328 
Q 3016 3291 2770 3770 
Q 2525 4250 2034 4250 
z
M 2034 4750 
Q 2819 4750 3233 4129 
Q 3647 3509 3647 2328 
Q 3647 1150 3233 529 
Q 2819 -91 2034 -91 
Q 1250 -91 836 529 
Q 422 1150 422 2328 
Q 422 3509 836 4129 
Q 1250 4750 2034 4750 
z
" transform="scale(0.015625)"/>
       </defs>
       <use xlink:href="#DejaVuSans-35"/>
       <use xlink:href="#DejaVuSans-30" transform="translate(63.623047 0)"/>
      </g>
     </g>
    </g>
    <g id="xtick_2">
     <g id="line2d_2">
      <g>
       <use xlink:href="#m85e5500608" x="314.212007" y="390.04" style="stroke: #000000; stroke-width: 0.8"/>
      </g>
     </g>
     <g id="text_2">
      <!-- 100 -->
      <g transform="translate(304.668257 404.638438) scale(0.1 -0.1)">
       <defs>
        <path id="DejaVuSans-31" d="M 794 531 
L 1825 531 
L 1825 4091 
L 703 3866 
L 703 4441 
L 1819 4666 
L 2450 4666 
L 2450 531 
L 3481 531 
L 3481 0 
L 794 0 
L 794 531 
z
" transform="scale(0.015625)"/>
       </defs>
       <use xlink:href="#DejaVuSans-31"/>
       <use xlink:href="#DejaVuSans-30" transform="translate(63.623047 0)"/>
       <use xlink:href="#DejaVuSans-30" transform="translate(127.246094 0)"/>
      </g>
     </g>
    </g>
    <g id="xtick_3">
     <g id="line2d_3">
      <g>
       <use xlink:href="#m85e5500608" x="446.544673" y="390.04" style="stroke: #000000; stroke-width: 0.8"/>
      </g>
     </g>
     <g id="text_3">
      <!-- 150 -->
      <g transform="translate(437.000923 404.638438) scale(0.1 -0.1)">
       <use xlink:href="#DejaVuSans-31"/>
       <use xlink:href="#DejaVuSans-35" transform="translate(63.623047 0)"/>
       <use xlink:href="#DejaVuSans-30" transform="translate(127.246094 0)"/>
      </g>
     </g>
    </g>
    <g id="xtick_4">
     <g id="line2d_4">
      <g>
       <use xlink:href="#m85e5500608" x="578.87734" y="390.04" style="stroke: #000000; stroke-width: 0.8"/>
      </g>
     </g>
     <g id="text_4">
      <!-- 200 -->
      <g transform="translate(569.33359 404.638438) scale(0.1 -0.1)">
       <defs>
        <path id="DejaVuSans-32" d="M 1228 531 
L 3431 531 
L 3431 0 
L 469 0 
L 469 531 
Q 828 903 1448 1529 
Q 2069 2156 2228 2338 
Q 2531 2678 2651 2914 
Q 2772 3150 2772 3378 
Q 2772 3750 2511 3984 
Q 2250 4219 1831 4219 
Q 1534 4219 1204 4116 
Q 875 4013 500 3803 
L 500 4441 
Q 881 4594 1212 4672 
Q 1544 4750 1819 4750 
Q 2544 4750 2975 4387 
Q 3406 4025 3406 3419 
Q 3406 3131 3298 2873 
Q 3191 2616 2906 2266 
Q 2828 2175 2409 1742 
Q 1991 1309 1228 531 
z
" transform="scale(0.015625)"/>
       </defs>
       <use xlink:href="#DejaVuSans-32"/>
       <use xlink:href="#DejaVuSans-30" transform="translate(63.623047 0)"/>
       <use xlink:href="#DejaVuSans-30" transform="translate(127.246094 0)"/>
      </g>
     </g>
    </g>
    <g id="xtick_5">
     <g id="line2d_5">
      <g>
       <use xlink:href="#m85e5500608" x="711.210007" y="390.04" style="stroke: #000000; stroke-width: 0.8"/>
      </g>
     </g>
     <g id="text_5">
      <!-- 250 -->
      <g transform="translate(701.666257 404.638438) scale(0.1 -0.1)">
       <use xlink:href="#DejaVuSans-32"/>
       <use xlink:href="#DejaVuSans-35" transform="translate(63.623047 0)"/>
       <use xlink:href="#DejaVuSans-30" transform="translate(127.246094 0)"/>
      </g>
     </g>
    </g>
    <g id="xtick_6">
     <g id="line2d_6">
      <g>
       <use xlink:href="#m85e5500608" x="843.542673" y="390.04" style="stroke: #000000; stroke-width: 0.8"/>
      </g>
     </g>
     <g id="text_6">
      <!-- 300 -->
      <g transform="translate(833.998923 404.638438) scale(0.1 -0.1)">
       <defs>
        <path id="DejaVuSans-33" d="M 2597 2516 
Q 3050 2419 3304 2112 
Q 3559 1806 3559 1356 
Q 3559 666 3084 287 
Q 2609 -91 1734 -91 
Q 1441 -91 1130 -33 
Q 819 25 488 141 
L 488 750 
Q 750 597 1062 519 
Q 1375 441 1716 441 
Q 2309 441 2620 675 
Q 2931 909 2931 1356 
Q 2931 1769 2642 2001 
Q 2353 2234 1838 2234 
L 1294 2234 
L 1294 2753 
L 1863 2753 
Q 2328 2753 2575 2939 
Q 2822 3125 2822 3475 
Q 2822 3834 2567 4026 
Q 2313 4219 1838 4219 
Q 1578 4219 1281 4162 
Q 984 4106 628 3988 
L 628 4550 
Q 988 4650 1302 4700 
Q 1616 4750 1894 4750 
Q 2613 4750 3031 4423 
Q 3450 4097 3450 3541 
Q 3450 3153 3228 2886 
Q 3006 2619 2597 2516 
z
" transform="scale(0.015625)"/>
       </defs>
       <use xlink:href="#DejaVuSans-33"/>
       <use xlink:href="#DejaVuSans-30" transform="translate(63.623047 0)"/>
       <use xlink:href="#DejaVuSans-30" transform="translate(127.246094 0)"/>
      </g>
     </g>
    </g>
    <g id="text_7">
     <!-- Step -->
     <g transform="translate(436.482844 418.316562) scale(0.1 -0.1)">
      <defs>
       <path id="DejaVuSans-53" d="M 3425 4513 
L 3425 3897 
Q 3066 4069 2747 4153 
Q 2428 4238 2131 4238 
Q 1616 4238 1336 4038 
Q 1056 3838 1056 3469 
Q 1056 3159 1242 3001 
Q 1428 2844 1947 2747 
L 2328 2669 
Q 3034 2534 3370 2195 
Q 3706 1856 3706 1288 
Q 3706 609 3251 259 
Q 2797 -91 1919 -91 
Q 1588 -91 1214 -16 
Q 841 59 441 206 
L 441 856 
Q 825 641 1194 531 
Q 1563 422 1919 422 
Q 2459 422 2753 634 
Q 3047 847 3047 1241 
Q 3047 1584 2836 1778 
Q 2625 1972 2144 2069 
L 1759 2144 
Q 1053 2284 737 2584 
Q 422 2884 422 3419 
Q 422 4038 858 4394 
Q 1294 4750 2059 4750 
Q 2388 4750 2728 4690 
Q 3069 4631 3425 4513 
z
" transform="scale(0.015625)"/>
       <path id="DejaVuSans-74" d="M 1172 4494 
L 1172 3500 
L 2356 3500 
L 2356 3053 
L 1172 3053 
L 1172 1153 
Q 1172 725 1289 603 
Q 1406 481 1766 481 
L 2356 481 
L 2356 0 
L 1766 0 
Q 1100 0 847 248 
Q 594 497 594 1153 
L 594 3053 
L 172 3053 
L 172 3500 
L 594 3500 
L 594 4494 
L 1172 4494 
z
" transform="scale(0.015625)"/>
       <path id="DejaVuSans-65" d="M 3597 1894 
L 3597 1613 
L 953 1613 
Q 991 1019 1311 708 
Q 1631 397 2203 397 
Q 2534 397 2845 478 
Q 3156 559 3463 722 
L 3463 178 
Q 3153 47 2828 -22 
Q 2503 -91 2169 -91 
Q 1331 -91 842 396 
Q 353 884 353 1716 
Q 353 2575 817 3079 
Q 1281 3584 2069 3584 
Q 2775 3584 3186 3129 
Q 3597 2675 3597 1894 
z
M 3022 2063 
Q 3016 2534 2758 2815 
Q 2500 3097 2075 3097 
Q 1594 3097 1305 2825 
Q 1016 2553 972 2059 
L 3022 2063 
z
" transform="scale(0.015625)"/>
       <path id="DejaVuSans-70" d="M 1159 525 
L 1159 -1331 
L 581 -1331 
L 581 3500 
L 1159 3500 
L 1159 2969 
Q 1341 3281 1617 3432 
Q 1894 3584 2278 3584 
Q 2916 3584 3314 3078 
Q 3713 2572 3713 1747 
Q 3713 922 3314 415 
Q 2916 -91 2278 -91 
Q 1894 -91 1617 61 
Q 1341 213 1159 525 
z
M 3116 1747 
Q 3116 2381 2855 2742 
Q 2594 3103 2138 3103 
Q 1681 3103 1420 2742 
Q 1159 2381 1159 1747 
Q 1159 1113 1420 752 
Q 1681 391 2138 391 
Q 2594 391 2855 752 
Q 3116 1113 3116 1747 
z
" transform="scale(0.015625)"/>
      </defs>
      <use xlink:href="#DejaVuSans-53"/>
      <use xlink:href="#DejaVuSans-74" transform="translate(63.476562 0)"/>
      <use xlink:href="#DejaVuSans-65" transform="translate(102.685547 0)"/>
      <use xlink:href="#DejaVuSans-70" transform="translate(164.208984 0)"/>
     </g>
    </g>
   </g>
   <g id="matplotlib.axis_2">
    <g id="ytick_1">
     <g id="line2d_7">
      <defs>
       <path id="m00bd50d251" d="M 0 0 
L -3.5 0 
" style="stroke: #000000; stroke-width: 0.8"/>
      </defs>
      <g>
       <use xlink:href="#m00bd50d251" x="50.87" y="353.840141" style="stroke: #000000; stroke-width: 0.8"/>
      </g>
     </g>
     <g id="text_8">
      <!-- 20 -->
      <g transform="translate(31.145 357.63936) scale(0.1 -0.1)">
       <use xlink:href="#DejaVuSans-32"/>
       <use xlink:href="#DejaVuSans-30" transform="translate(63.623047 0)"/>
      </g>
     </g>
    </g>
    <g id="ytick_2">
     <g id="line2d_8">
      <g>
       <use xlink:href="#m00bd50d251" x="50.87" y="294.094178" style="stroke: #000000; stroke-width: 0.8"/>
      </g>
     </g>
     <g id="text_9">
      <!-- 40 -->
      <g transform="translate(31.145 297.893397) scale(0.1 -0.1)">
       <defs>
        <path id="DejaVuSans-34" d="M 2419 4116 
L 825 1625 
L 2419 1625 
L 2419 4116 
z
M 2253 4666 
L 3047 4666 
L 3047 1625 
L 3713 1625 
L 3713 1100 
L 3047 1100 
L 3047 0 
L 2419 0 
L 2419 1100 
L 313 1100 
L 313 1709 
L 2253 4666 
z
" transform="scale(0.015625)"/>
       </defs>
       <use xlink:href="#DejaVuSans-34"/>
       <use xlink:href="#DejaVuSans-30" transform="translate(63.623047 0)"/>
      </g>
     </g>
    </g>
    <g id="ytick_3">
     <g id="line2d_9">
      <g>
       <use xlink:href="#m00bd50d251" x="50.87" y="234.348215" style="stroke: #000000; stroke-width: 0.8"/>
      </g>
     </g>
     <g id="text_10">
      <!-- 60 -->
      <g transform="translate(31.145 238.147434) scale(0.1 -0.1)">
       <defs>
        <path id="DejaVuSans-36" d="M 2113 2584 
Q 1688 2584 1439 2293 
Q 1191 2003 1191 1497 
Q 1191 994 1439 701 
Q 1688 409 2113 409 
Q 2538 409 2786 701 
Q 3034 994 3034 1497 
Q 3034 2003 2786 2293 
Q 2538 2584 2113 2584 
z
M 3366 4563 
L 3366 3988 
Q 3128 4100 2886 4159 
Q 2644 4219 2406 4219 
Q 1781 4219 1451 3797 
Q 1122 3375 1075 2522 
Q 1259 2794 1537 2939 
Q 1816 3084 2150 3084 
Q 2853 3084 3261 2657 
Q 3669 2231 3669 1497 
Q 3669 778 3244 343 
Q 2819 -91 2113 -91 
Q 1303 -91 875 529 
Q 447 1150 447 2328 
Q 447 3434 972 4092 
Q 1497 4750 2381 4750 
Q 2619 4750 2861 4703 
Q 3103 4656 3366 4563 
z
" transform="scale(0.015625)"/>
       </defs>
       <use xlink:href="#DejaVuSans-36"/>
       <use xlink:href="#DejaVuSans-30" transform="translate(63.623047 0)"/>
      </g>
     </g>
    </g>
    <g id="ytick_4">
     <g id="line2d_10">
      <g>
       <use xlink:href="#m00bd50d251" x="50.87" y="174.602252" style="stroke: #000000; stroke-width: 0.8"/>
      </g>
     </g>
     <g id="text_11">
      <!-- 80 -->
      <g transform="translate(31.145 178.401471) scale(0.1 -0.1)">
       <defs>
        <path id="DejaVuSans-38" d="M 2034 2216 
Q 1584 2216 1326 1975 
Q 1069 1734 1069 1313 
Q 1069 891 1326 650 
Q 1584 409 2034 409 
Q 2484 409 2743 651 
Q 3003 894 3003 1313 
Q 3003 1734 2745 1975 
Q 2488 2216 2034 2216 
z
M 1403 2484 
Q 997 2584 770 2862 
Q 544 3141 544 3541 
Q 544 4100 942 4425 
Q 1341 4750 2034 4750 
Q 2731 4750 3128 4425 
Q 3525 4100 3525 3541 
Q 3525 3141 3298 2862 
Q 3072 2584 2669 2484 
Q 3125 2378 3379 2068 
Q 3634 1759 3634 1313 
Q 3634 634 3220 271 
Q 2806 -91 2034 -91 
Q 1263 -91 848 271 
Q 434 634 434 1313 
Q 434 1759 690 2068 
Q 947 2378 1403 2484 
z
M 1172 3481 
Q 1172 3119 1398 2916 
Q 1625 2713 2034 2713 
Q 2441 2713 2670 2916 
Q 2900 3119 2900 3481 
Q 2900 3844 2670 4047 
Q 2441 4250 2034 4250 
Q 1625 4250 1398 4047 
Q 1172 3844 1172 3481 
z
" transform="scale(0.015625)"/>
       </defs>
       <use xlink:href="#DejaVuSans-38"/>
       <use xlink:href="#DejaVuSans-30" transform="translate(63.623047 0)"/>
      </g>
     </g>
    </g>
    <g id="ytick_5">
     <g id="line2d_11">
      <g>
       <use xlink:href="#m00bd50d251" x="50.87" y="114.856289" style="stroke: #000000; stroke-width: 0.8"/>
      </g>
     </g>
     <g id="text_12">
      <!-- 100 -->
      <g transform="translate(24.7825 118.655508) scale(0.1 -0.1)">
       <use xlink:href="#DejaVuSans-31"/>
       <use xlink:href="#DejaVuSans-30" transform="translate(63.623047 0)"/>
       <use xlink:href="#DejaVuSans-30" transform="translate(127.246094 0)"/>
      </g>
     </g>
    </g>
    <g id="ytick_6">
     <g id="line2d_12">
      <g>
       <use xlink:href="#m00bd50d251" x="50.87" y="55.110326" style="stroke: #000000; stroke-width: 0.8"/>
      </g>
     </g>
     <g id="text_13">
      <!-- 120 -->
      <g transform="translate(24.7825 58.909545) scale(0.1 -0.1)">
       <use xlink:href="#DejaVuSans-31"/>
       <use xlink:href="#DejaVuSans-32" transform="translate(63.623047 0)"/>
       <use xlink:href="#DejaVuSans-30" transform="translate(127.246094 0)"/>
      </g>
     </g>
    </g>
    <g id="text_14">
     <!-- Profit -->
     <g transform="translate(18.702813 229.779063) rotate(-90) scale(0.1 -0.1)">
      <defs>
       <path id="DejaVuSans-50" d="M 1259 4147 
L 1259 2394 
L 2053 2394 
Q 2494 2394 2734 2622 
Q 2975 2850 2975 3272 
Q 2975 3691 2734 3919 
Q 2494 4147 2053 4147 
L 1259 4147 
z
M 628 4666 
L 2053 4666 
Q 2838 4666 3239 4311 
Q 3641 3956 3641 3272 
Q 3641 2581 3239 2228 
Q 2838 1875 2053 1875 
L 1259 1875 
L 1259 0 
L 628 0 
L 628 4666 
z
" transform="scale(0.015625)"/>
       <path id="DejaVuSans-72" d="M 2631 2963 
Q 2534 3019 2420 3045 
Q 2306 3072 2169 3072 
Q 1681 3072 1420 2755 
Q 1159 2438 1159 1844 
L 1159 0 
L 581 0 
L 581 3500 
L 1159 3500 
L 1159 2956 
Q 1341 3275 1631 3429 
Q 1922 3584 2338 3584 
Q 2397 3584 2469 3576 
Q 2541 3569 2628 3553 
L 2631 2963 
z
" transform="scale(0.015625)"/>
       <path id="DejaVuSans-6f" d="M 1959 3097 
Q 1497 3097 1228 2736 
Q 959 2375 959 1747 
Q 959 1119 1226 758 
Q 1494 397 1959 397 
Q 2419 397 2687 759 
Q 2956 1122 2956 1747 
Q 2956 2369 2687 2733 
Q 2419 3097 1959 3097 
z
M 1959 3584 
Q 2709 3584 3137 3096 
Q 3566 2609 3566 1747 
Q 3566 888 3137 398 
Q 2709 -91 1959 -91 
Q 1206 -91 779 398 
Q 353 888 353 1747 
Q 353 2609 779 3096 
Q 1206 3584 1959 3584 
z
" transform="scale(0.015625)"/>
       <path id="DejaVuSans-66" d="M 2375 4863 
L 2375 4384 
L 1825 4384 
Q 1516 4384 1395 4259 
Q 1275 4134 1275 3809 
L 1275 3500 
L 2222 3500 
L 2222 3053 
L 1275 3053 
L 1275 0 
L 697 0 
L 697 3053 
L 147 3053 
L 147 3500 
L 697 3500 
L 697 3744 
Q 697 4328 969 4595 
Q 1241 4863 1831 4863 
L 2375 4863 
z
" transform="scale(0.015625)"/>
       <path id="DejaVuSans-69" d="M 603 3500 
L 1178 3500 
L 1178 0 
L 603 0 
L 603 3500 
z
M 603 4863 
L 1178 4863 
L 1178 4134 
L 603 4134 
L 603 4863 
z
" transform="scale(0.015625)"/>
      </defs>
      <use xlink:href="#DejaVuSans-50"/>
      <use xlink:href="#DejaVuSans-72" transform="translate(58.552734 0)"/>
      <use xlink:href="#DejaVuSans-6f" transform="translate(97.416016 0)"/>
      <use xlink:href="#DejaVuSans-66" transform="translate(158.597656 0)"/>
      <use xlink:href="#DejaVuSans-69" transform="translate(193.802734 0)"/>
      <use xlink:href="#DejaVuSans-74" transform="translate(221.585938 0)"/>
     </g>
    </g>
   </g>
   <g id="line2d_13">
    <path d="M 52.193327 239.282583 
L 54.83998 239.585047 
L 57.486633 236.777537 
L 62.77994 230.635961 
L 65.426593 228.611742 
L 68.073247 225.515479 
L 70.7199 224.007232 
L 73.366553 222.157914 
L 76.013207 220.077686 
L 78.65986 218.669686 
L 81.306513 217.099869 
L 86.59982 213.75714 
L 97.186433 209.38664 
L 99.833087 208.549835 
L 102.47974 207.25055 
L 105.126393 206.814371 
L 110.4197 205.058645 
L 118.35966 203.618077 
L 121.006313 203.389571 
L 123.652967 202.457385 
L 126.29962 202.089147 
L 128.946273 201.854784 
L 134.23958 200.353158 
L 136.886233 200.135547 
L 139.532887 199.613307 
L 142.17954 199.57128 
L 147.472847 198.722624 
L 150.1195 197.884088 
L 152.766153 197.34961 
L 155.412807 197.029347 
L 158.05946 196.593076 
L 160.706113 196.028718 
L 165.99942 195.980629 
L 179.232687 194.106639 
L 184.525993 194.186796 
L 189.8193 193.277629 
L 192.465953 193.120027 
L 195.112607 192.708987 
L 197.75926 192.497985 
L 203.052567 191.509345 
L 208.345873 191.169482 
L 210.992527 190.906972 
L 213.63918 190.882881 
L 216.285833 190.722795 
L 218.932487 190.888146 
L 234.812407 189.258866 
L 237.45906 188.839324 
L 240.105713 188.650202 
L 242.752367 188.609907 
L 245.39902 188.682657 
L 248.045673 188.62985 
L 255.985633 187.372888 
L 258.632287 187.165123 
L 261.27894 187.116076 
L 263.925593 187.224289 
L 266.572247 187.069855 
L 269.2189 186.623351 
L 271.865553 186.640923 
L 274.512207 187.059462 
L 277.15886 186.698927 
L 279.805513 186.696033 
L 282.452167 186.247637 
L 285.09882 186.266713 
L 287.745473 186.106422 
L 293.03878 185.931773 
L 298.332087 185.714709 
L 300.97874 186.125977 
L 303.625393 186.075267 
L 311.565353 185.235499 
L 314.212007 185.137679 
L 319.505313 184.75123 
L 324.79862 184.696075 
L 327.445273 184.781884 
L 335.385233 184.516936 
L 338.031887 184.058216 
L 340.67854 184.001694 
L 343.325193 183.762362 
L 345.971847 183.832081 
L 348.6185 183.662058 
L 351.265153 183.78014 
L 353.911807 184.059333 
L 359.205113 183.985124 
L 361.851767 183.617182 
L 364.49842 183.494588 
L 367.145073 183.19723 
L 369.791727 183.302617 
L 372.43838 182.886767 
L 375.085033 182.609602 
L 377.731687 182.6847 
L 380.37834 182.332848 
L 383.024993 182.293738 
L 385.671647 181.945442 
L 388.3183 181.783578 
L 390.964953 181.827634 
L 396.25826 181.522709 
L 398.904913 181.665747 
L 401.551567 181.298671 
L 404.19822 181.459463 
L 409.491527 181.431658 
L 414.784833 181.144442 
L 420.07814 181.139542 
L 425.371447 180.974625 
L 428.0181 180.799907 
L 433.311407 180.763213 
L 435.95806 180.94764 
L 438.604713 180.850047 
L 443.89802 180.237783 
L 446.544673 180.209704 
L 449.191327 180.470231 
L 457.131287 180.510275 
L 462.424593 180.388319 
L 465.071247 180.577851 
L 467.7179 180.256266 
L 470.364553 180.429594 
L 475.65786 179.692365 
L 478.304513 179.697721 
L 483.59782 179.311454 
L 486.244473 179.369845 
L 488.891127 179.130879 
L 491.53778 179.400158 
L 494.184433 179.242898 
L 496.831087 178.892391 
L 504.771047 178.983305 
L 507.4177 178.803733 
L 510.064353 179.050448 
L 515.35766 178.970588 
L 518.004313 179.265712 
L 525.944273 178.451061 
L 531.23758 178.597381 
L 533.884233 178.423506 
L 536.530887 178.630542 
L 539.17754 178.657071 
L 541.824193 178.902259 
L 544.470847 178.786183 
L 549.764153 178.173007 
L 552.410807 178.115026 
L 555.05746 178.390162 
L 557.704113 178.461089 
L 560.350767 178.095448 
L 562.99742 177.867786 
L 565.644073 178.015861 
L 573.584033 177.587362 
L 578.87734 177.770331 
L 584.170647 177.508869 
L 586.8173 177.485235 
L 589.463953 177.154761 
L 592.110607 176.947999 
L 597.403913 177.470739 
L 600.050567 177.135252 
L 602.69722 177.347211 
L 605.343873 177.102204 
L 610.63718 177.05546 
L 613.283833 176.71824 
L 615.930487 177.026537 
L 618.57714 176.640818 
L 621.223793 176.720724 
L 623.870447 176.616978 
L 629.163753 176.636487 
L 631.810407 176.560866 
L 634.45706 176.314219 
L 639.750367 176.145381 
L 642.39702 176.274083 
L 650.33698 175.928476 
L 652.983633 175.617581 
L 655.630287 175.811238 
L 660.923593 175.618561 
L 666.2169 176.205755 
L 668.863553 176.34583 
L 671.510207 175.655711 
L 674.15686 175.641967 
L 676.803513 175.814452 
L 679.450167 175.703755 
L 684.743473 175.771741 
L 687.390127 175.619062 
L 697.97674 175.56083 
L 700.623393 175.11501 
L 703.270047 175.036221 
L 705.9167 175.114532 
L 708.563353 174.694625 
L 711.210007 174.78848 
L 713.85666 174.593956 
L 716.503313 174.739661 
L 719.149967 174.661623 
L 721.79662 174.440753 
L 724.443273 174.545912 
L 727.089927 174.380972 
L 737.67654 174.790896 
L 740.323193 174.834609 
L 742.969847 174.452399 
L 748.263153 174.288143 
L 750.909807 174.121128 
L 753.55646 174.226264 
L 756.203113 174.083705 
L 758.849767 174.209239 
L 761.49642 174.477265 
L 764.143073 174.262252 
L 766.789727 174.328347 
L 772.083033 174.657863 
L 774.729687 174.355286 
L 777.37634 174.318159 
L 782.669647 174.478176 
L 785.3163 174.229888 
L 790.609607 174.156204 
L 793.25626 173.981714 
L 798.549567 174.381633 
L 801.19622 174.491281 
L 806.489527 174.312051 
L 809.13618 174.425118 
L 814.429487 174.197707 
L 817.07614 174.261568 
L 819.722793 173.837536 
L 822.369447 173.752548 
L 827.662753 173.324733 
L 830.309407 173.44049 
L 832.95606 173.268005 
L 835.602713 173.508339 
L 840.89602 173.358395 
L 843.542673 173.455076 
L 843.542673 173.455076 
" clip-path="url(#p590733b563)" style="fill: none; stroke: #0000ff; stroke-width: 1.5; stroke-linecap: square"/>
   </g>
   <g id="patch_3">
    <path d="M 50.87 390.04 
L 50.87 43.44 
" style="fill: none; stroke: #000000; stroke-width: 0.8; stroke-linejoin: miter; stroke-linecap: square"/>
   </g>
   <g id="patch_4">
    <path d="M 844.866 390.04 
L 844.866 43.44 
" style="fill: none; stroke: #000000; stroke-width: 0.8; stroke-linejoin: miter; stroke-linecap: square"/>
   </g>
   <g id="patch_5">
    <path d="M 50.87 390.04 
L 844.866 390.04 
" style="fill: none; stroke: #000000; stroke-width: 0.8; stroke-linejoin: miter; stroke-linecap: square"/>
   </g>
   <g id="patch_6">
    <path d="M 50.87 43.44 
L 844.866 43.44 
" style="fill: none; stroke: #000000; stroke-width: 0.8; stroke-linejoin: miter; stroke-linecap: square"/>
   </g>
   <g id="text_15">
    <!-- Mean profit per step with confidence interval per simulation step -->
    <g transform="translate(220.284875 21.763062) scale(0.14 -0.14)">
     <defs>
      <path id="DejaVuSans-4d" d="M 628 4666 
L 1569 4666 
L 2759 1491 
L 3956 4666 
L 4897 4666 
L 4897 0 
L 4281 0 
L 4281 4097 
L 3078 897 
L 2444 897 
L 1241 4097 
L 1241 0 
L 628 0 
L 628 4666 
z
" transform="scale(0.015625)"/>
      <path id="DejaVuSans-61" d="M 2194 1759 
Q 1497 1759 1228 1600 
Q 959 1441 959 1056 
Q 959 750 1161 570 
Q 1363 391 1709 391 
Q 2188 391 2477 730 
Q 2766 1069 2766 1631 
L 2766 1759 
L 2194 1759 
z
M 3341 1997 
L 3341 0 
L 2766 0 
L 2766 531 
Q 2569 213 2275 61 
Q 1981 -91 1556 -91 
Q 1019 -91 701 211 
Q 384 513 384 1019 
Q 384 1609 779 1909 
Q 1175 2209 1959 2209 
L 2766 2209 
L 2766 2266 
Q 2766 2663 2505 2880 
Q 2244 3097 1772 3097 
Q 1472 3097 1187 3025 
Q 903 2953 641 2809 
L 641 3341 
Q 956 3463 1253 3523 
Q 1550 3584 1831 3584 
Q 2591 3584 2966 3190 
Q 3341 2797 3341 1997 
z
" transform="scale(0.015625)"/>
      <path id="DejaVuSans-6e" d="M 3513 2113 
L 3513 0 
L 2938 0 
L 2938 2094 
Q 2938 2591 2744 2837 
Q 2550 3084 2163 3084 
Q 1697 3084 1428 2787 
Q 1159 2491 1159 1978 
L 1159 0 
L 581 0 
L 581 3500 
L 1159 3500 
L 1159 2956 
Q 1366 3272 1645 3428 
Q 1925 3584 2291 3584 
Q 2894 3584 3203 3211 
Q 3513 2838 3513 2113 
z
" transform="scale(0.015625)"/>
      <path id="DejaVuSans-20" transform="scale(0.015625)"/>
      <path id="DejaVuSans-73" d="M 2834 3397 
L 2834 2853 
Q 2591 2978 2328 3040 
Q 2066 3103 1784 3103 
Q 1356 3103 1142 2972 
Q 928 2841 928 2578 
Q 928 2378 1081 2264 
Q 1234 2150 1697 2047 
L 1894 2003 
Q 2506 1872 2764 1633 
Q 3022 1394 3022 966 
Q 3022 478 2636 193 
Q 2250 -91 1575 -91 
Q 1294 -91 989 -36 
Q 684 19 347 128 
L 347 722 
Q 666 556 975 473 
Q 1284 391 1588 391 
Q 1994 391 2212 530 
Q 2431 669 2431 922 
Q 2431 1156 2273 1281 
Q 2116 1406 1581 1522 
L 1381 1569 
Q 847 1681 609 1914 
Q 372 2147 372 2553 
Q 372 3047 722 3315 
Q 1072 3584 1716 3584 
Q 2034 3584 2315 3537 
Q 2597 3491 2834 3397 
z
" transform="scale(0.015625)"/>
      <path id="DejaVuSans-77" d="M 269 3500 
L 844 3500 
L 1563 769 
L 2278 3500 
L 2956 3500 
L 3675 769 
L 4391 3500 
L 4966 3500 
L 4050 0 
L 3372 0 
L 2619 2869 
L 1863 0 
L 1184 0 
L 269 3500 
z
" transform="scale(0.015625)"/>
      <path id="DejaVuSans-68" d="M 3513 2113 
L 3513 0 
L 2938 0 
L 2938 2094 
Q 2938 2591 2744 2837 
Q 2550 3084 2163 3084 
Q 1697 3084 1428 2787 
Q 1159 2491 1159 1978 
L 1159 0 
L 581 0 
L 581 4863 
L 1159 4863 
L 1159 2956 
Q 1366 3272 1645 3428 
Q 1925 3584 2291 3584 
Q 2894 3584 3203 3211 
Q 3513 2838 3513 2113 
z
" transform="scale(0.015625)"/>
      <path id="DejaVuSans-63" d="M 3122 3366 
L 3122 2828 
Q 2878 2963 2633 3030 
Q 2388 3097 2138 3097 
Q 1578 3097 1268 2742 
Q 959 2388 959 1747 
Q 959 1106 1268 751 
Q 1578 397 2138 397 
Q 2388 397 2633 464 
Q 2878 531 3122 666 
L 3122 134 
Q 2881 22 2623 -34 
Q 2366 -91 2075 -91 
Q 1284 -91 818 406 
Q 353 903 353 1747 
Q 353 2603 823 3093 
Q 1294 3584 2113 3584 
Q 2378 3584 2631 3529 
Q 2884 3475 3122 3366 
z
" transform="scale(0.015625)"/>
      <path id="DejaVuSans-64" d="M 2906 2969 
L 2906 4863 
L 3481 4863 
L 3481 0 
L 2906 0 
L 2906 525 
Q 2725 213 2448 61 
Q 2172 -91 1784 -91 
Q 1150 -91 751 415 
Q 353 922 353 1747 
Q 353 2572 751 3078 
Q 1150 3584 1784 3584 
Q 2172 3584 2448 3432 
Q 2725 3281 2906 2969 
z
M 947 1747 
Q 947 1113 1208 752 
Q 1469 391 1925 391 
Q 2381 391 2643 752 
Q 2906 1113 2906 1747 
Q 2906 2381 2643 2742 
Q 2381 3103 1925 3103 
Q 1469 3103 1208 2742 
Q 947 2381 947 1747 
z
" transform="scale(0.015625)"/>
      <path id="DejaVuSans-76" d="M 191 3500 
L 800 3500 
L 1894 563 
L 2988 3500 
L 3597 3500 
L 2284 0 
L 1503 0 
L 191 3500 
z
" transform="scale(0.015625)"/>
      <path id="DejaVuSans-6c" d="M 603 4863 
L 1178 4863 
L 1178 0 
L 603 0 
L 603 4863 
z
" transform="scale(0.015625)"/>
      <path id="DejaVuSans-6d" d="M 3328 2828 
Q 3544 3216 3844 3400 
Q 4144 3584 4550 3584 
Q 5097 3584 5394 3201 
Q 5691 2819 5691 2113 
L 5691 0 
L 5113 0 
L 5113 2094 
Q 5113 2597 4934 2840 
Q 4756 3084 4391 3084 
Q 3944 3084 3684 2787 
Q 3425 2491 3425 1978 
L 3425 0 
L 2847 0 
L 2847 2094 
Q 2847 2600 2669 2842 
Q 2491 3084 2119 3084 
Q 1678 3084 1418 2786 
Q 1159 2488 1159 1978 
L 1159 0 
L 581 0 
L 581 3500 
L 1159 3500 
L 1159 2956 
Q 1356 3278 1631 3431 
Q 1906 3584 2284 3584 
Q 2666 3584 2933 3390 
Q 3200 3197 3328 2828 
z
" transform="scale(0.015625)"/>
      <path id="DejaVuSans-75" d="M 544 1381 
L 544 3500 
L 1119 3500 
L 1119 1403 
Q 1119 906 1312 657 
Q 1506 409 1894 409 
Q 2359 409 2629 706 
Q 2900 1003 2900 1516 
L 2900 3500 
L 3475 3500 
L 3475 0 
L 2900 0 
L 2900 538 
Q 2691 219 2414 64 
Q 2138 -91 1772 -91 
Q 1169 -91 856 284 
Q 544 659 544 1381 
z
M 1991 3584 
L 1991 3584 
z
" transform="scale(0.015625)"/>
     </defs>
     <use xlink:href="#DejaVuSans-4d"/>
     <use xlink:href="#DejaVuSans-65" transform="translate(86.279297 0)"/>
     <use xlink:href="#DejaVuSans-61" transform="translate(147.802734 0)"/>
     <use xlink:href="#DejaVuSans-6e" transform="translate(209.082031 0)"/>
     <use xlink:href="#DejaVuSans-20" transform="translate(272.460938 0)"/>
     <use xlink:href="#DejaVuSans-70" transform="translate(304.248047 0)"/>
     <use xlink:href="#DejaVuSans-72" transform="translate(367.724609 0)"/>
     <use xlink:href="#DejaVuSans-6f" transform="translate(406.587891 0)"/>
     <use xlink:href="#DejaVuSans-66" transform="translate(467.769531 0)"/>
     <use xlink:href="#DejaVuSans-69" transform="translate(502.974609 0)"/>
     <use xlink:href="#DejaVuSans-74" transform="translate(530.757812 0)"/>
     <use xlink:href="#DejaVuSans-20" transform="translate(569.966797 0)"/>
     <use xlink:href="#DejaVuSans-70" transform="translate(601.753906 0)"/>
     <use xlink:href="#DejaVuSans-65" transform="translate(665.230469 0)"/>
     <use xlink:href="#DejaVuSans-72" transform="translate(726.753906 0)"/>
     <use xlink:href="#DejaVuSans-20" transform="translate(767.867188 0)"/>
     <use xlink:href="#DejaVuSans-73" transform="translate(799.654297 0)"/>
     <use xlink:href="#DejaVuSans-74" transform="translate(851.753906 0)"/>
     <use xlink:href="#DejaVuSans-65" transform="translate(890.962891 0)"/>
     <use xlink:href="#DejaVuSans-70" transform="translate(952.486328 0)"/>
     <use xlink:href="#DejaVuSans-20" transform="translate(1015.962891 0)"/>
     <use xlink:href="#DejaVuSans-77" transform="translate(1047.75 0)"/>
     <use xlink:href="#DejaVuSans-69" transform="translate(1129.537109 0)"/>
     <use xlink:href="#DejaVuSans-74" transform="translate(1157.320312 0)"/>
     <use xlink:href="#DejaVuSans-68" transform="translate(1196.529297 0)"/>
     <use xlink:href="#DejaVuSans-20" transform="translate(1259.908203 0)"/>
     <use xlink:href="#DejaVuSans-63" transform="translate(1291.695312 0)"/>
     <use xlink:href="#DejaVuSans-6f" transform="translate(1346.675781 0)"/>
     <use xlink:href="#DejaVuSans-6e" transform="translate(1407.857422 0)"/>
     <use xlink:href="#DejaVuSans-66" transform="translate(1471.236328 0)"/>
     <use xlink:href="#DejaVuSans-69" transform="translate(1506.441406 0)"/>
     <use xlink:href="#DejaVuSans-64" transform="translate(1534.224609 0)"/>
     <use xlink:href="#DejaVuSans-65" transform="translate(1597.701172 0)"/>
     <use xlink:href="#DejaVuSans-6e" transform="translate(1659.224609 0)"/>
     <use xlink:href="#DejaVuSans-63" transform="translate(1722.603516 0)"/>
     <use xlink:href="#DejaVuSans-65" transform="translate(1777.583984 0)"/>
     <use xlink:href="#DejaVuSans-20" transform="translate(1839.107422 0)"/>
     <use xlink:href="#DejaVuSans-69" transform="translate(1870.894531 0)"/>
     <use xlink:href="#DejaVuSans-6e" transform="translate(1898.677734 0)"/>
     <use xlink:href="#DejaVuSans-74" transform="translate(1962.056641 0)"/>
     <use xlink:href="#DejaVuSans-65" transform="translate(2001.265625 0)"/>
     <use xlink:href="#DejaVuSans-72" transform="translate(2062.789062 0)"/>
     <use xlink:href="#DejaVuSans-76" transform="translate(2103.902344 0)"/>
     <use xlink:href="#DejaVuSans-61" transform="translate(2163.082031 0)"/>
     <use xlink:href="#DejaVuSans-6c" transform="translate(2224.361328 0)"/>
     <use xlink:href="#DejaVuSans-20" transform="translate(2252.144531 0)"/>
     <use xlink:href="#DejaVuSans-70" transform="translate(2283.931641 0)"/>
     <use xlink:href="#DejaVuSans-65" transform="translate(2347.408203 0)"/>
     <use xlink:href="#DejaVuSans-72" transform="translate(2408.931641 0)"/>
     <use xlink:href="#DejaVuSans-20" transform="translate(2450.044922 0)"/>
     <use xlink:href="#DejaVuSans-73" transform="translate(2481.832031 0)"/>
     <use xlink:href="#DejaVuSans-69" transform="translate(2533.931641 0)"/>
     <use xlink:href="#DejaVuSans-6d" transform="translate(2561.714844 0)"/>
     <use xlink:href="#DejaVuSans-75" transform="translate(2659.126953 0)"/>
     <use xlink:href="#DejaVuSans-6c" transform="translate(2722.505859 0)"/>
     <use xlink:href="#DejaVuSans-61" transform="translate(2750.289062 0)"/>
     <use xlink:href="#DejaVuSans-74" transform="translate(2811.568359 0)"/>
     <use xlink:href="#DejaVuSans-69" transform="translate(2850.777344 0)"/>
     <use xlink:href="#DejaVuSans-6f" transform="translate(2878.560547 0)"/>
     <use xlink:href="#DejaVuSans-6e" transform="translate(2939.742188 0)"/>
     <use xlink:href="#DejaVuSans-20" transform="translate(3003.121094 0)"/>
     <use xlink:href="#DejaVuSans-73" transform="translate(3034.908203 0)"/>
     <use xlink:href="#DejaVuSans-74" transform="translate(3087.007812 0)"/>
     <use xlink:href="#DejaVuSans-65" transform="translate(3126.216797 0)"/>
     <use xlink:href="#DejaVuSans-70" transform="translate(3187.740234 0)"/>
    </g>
    <!-- Base Product: Green Crack, Recipe size: 10, T0: 50.0 -->
    <g transform="translate(263.577687 37.44) scale(0.14 -0.14)">
     <defs>
      <path id="DejaVuSans-42" d="M 1259 2228 
L 1259 519 
L 2272 519 
Q 2781 519 3026 730 
Q 3272 941 3272 1375 
Q 3272 1813 3026 2020 
Q 2781 2228 2272 2228 
L 1259 2228 
z
M 1259 4147 
L 1259 2741 
L 2194 2741 
Q 2656 2741 2882 2914 
Q 3109 3088 3109 3444 
Q 3109 3797 2882 3972 
Q 2656 4147 2194 4147 
L 1259 4147 
z
M 628 4666 
L 2241 4666 
Q 2963 4666 3353 4366 
Q 3744 4066 3744 3513 
Q 3744 3084 3544 2831 
Q 3344 2578 2956 2516 
Q 3422 2416 3680 2098 
Q 3938 1781 3938 1306 
Q 3938 681 3513 340 
Q 3088 0 2303 0 
L 628 0 
L 628 4666 
z
" transform="scale(0.015625)"/>
      <path id="DejaVuSans-3a" d="M 750 794 
L 1409 794 
L 1409 0 
L 750 0 
L 750 794 
z
M 750 3309 
L 1409 3309 
L 1409 2516 
L 750 2516 
L 750 3309 
z
" transform="scale(0.015625)"/>
      <path id="DejaVuSans-47" d="M 3809 666 
L 3809 1919 
L 2778 1919 
L 2778 2438 
L 4434 2438 
L 4434 434 
Q 4069 175 3628 42 
Q 3188 -91 2688 -91 
Q 1594 -91 976 548 
Q 359 1188 359 2328 
Q 359 3472 976 4111 
Q 1594 4750 2688 4750 
Q 3144 4750 3555 4637 
Q 3966 4525 4313 4306 
L 4313 3634 
Q 3963 3931 3569 4081 
Q 3175 4231 2741 4231 
Q 1884 4231 1454 3753 
Q 1025 3275 1025 2328 
Q 1025 1384 1454 906 
Q 1884 428 2741 428 
Q 3075 428 3337 486 
Q 3600 544 3809 666 
z
" transform="scale(0.015625)"/>
      <path id="DejaVuSans-43" d="M 4122 4306 
L 4122 3641 
Q 3803 3938 3442 4084 
Q 3081 4231 2675 4231 
Q 1875 4231 1450 3742 
Q 1025 3253 1025 2328 
Q 1025 1406 1450 917 
Q 1875 428 2675 428 
Q 3081 428 3442 575 
Q 3803 722 4122 1019 
L 4122 359 
Q 3791 134 3420 21 
Q 3050 -91 2638 -91 
Q 1578 -91 968 557 
Q 359 1206 359 2328 
Q 359 3453 968 4101 
Q 1578 4750 2638 4750 
Q 3056 4750 3426 4639 
Q 3797 4528 4122 4306 
z
" transform="scale(0.015625)"/>
      <path id="DejaVuSans-6b" d="M 581 4863 
L 1159 4863 
L 1159 1991 
L 2875 3500 
L 3609 3500 
L 1753 1863 
L 3688 0 
L 2938 0 
L 1159 1709 
L 1159 0 
L 581 0 
L 581 4863 
z
" transform="scale(0.015625)"/>
      <path id="DejaVuSans-2c" d="M 750 794 
L 1409 794 
L 1409 256 
L 897 -744 
L 494 -744 
L 750 256 
L 750 794 
z
" transform="scale(0.015625)"/>
      <path id="DejaVuSans-52" d="M 2841 2188 
Q 3044 2119 3236 1894 
Q 3428 1669 3622 1275 
L 4263 0 
L 3584 0 
L 2988 1197 
Q 2756 1666 2539 1819 
Q 2322 1972 1947 1972 
L 1259 1972 
L 1259 0 
L 628 0 
L 628 4666 
L 2053 4666 
Q 2853 4666 3247 4331 
Q 3641 3997 3641 3322 
Q 3641 2881 3436 2590 
Q 3231 2300 2841 2188 
z
M 1259 4147 
L 1259 2491 
L 2053 2491 
Q 2509 2491 2742 2702 
Q 2975 2913 2975 3322 
Q 2975 3731 2742 3939 
Q 2509 4147 2053 4147 
L 1259 4147 
z
" transform="scale(0.015625)"/>
      <path id="DejaVuSans-7a" d="M 353 3500 
L 3084 3500 
L 3084 2975 
L 922 459 
L 3084 459 
L 3084 0 
L 275 0 
L 275 525 
L 2438 3041 
L 353 3041 
L 353 3500 
z
" transform="scale(0.015625)"/>
      <path id="DejaVuSans-54" d="M -19 4666 
L 3928 4666 
L 3928 4134 
L 2272 4134 
L 2272 0 
L 1638 0 
L 1638 4134 
L -19 4134 
L -19 4666 
z
" transform="scale(0.015625)"/>
      <path id="DejaVuSans-2e" d="M 684 794 
L 1344 794 
L 1344 0 
L 684 0 
L 684 794 
z
" transform="scale(0.015625)"/>
     </defs>
     <use xlink:href="#DejaVuSans-42"/>
     <use xlink:href="#DejaVuSans-61" transform="translate(68.603516 0)"/>
     <use xlink:href="#DejaVuSans-73" transform="translate(129.882812 0)"/>
     <use xlink:href="#DejaVuSans-65" transform="translate(181.982422 0)"/>
     <use xlink:href="#DejaVuSans-20" transform="translate(243.505859 0)"/>
     <use xlink:href="#DejaVuSans-50" transform="translate(275.292969 0)"/>
     <use xlink:href="#DejaVuSans-72" transform="translate(333.845703 0)"/>
     <use xlink:href="#DejaVuSans-6f" transform="translate(372.708984 0)"/>
     <use xlink:href="#DejaVuSans-64" transform="translate(433.890625 0)"/>
     <use xlink:href="#DejaVuSans-75" transform="translate(497.367188 0)"/>
     <use xlink:href="#DejaVuSans-63" transform="translate(560.746094 0)"/>
     <use xlink:href="#DejaVuSans-74" transform="translate(615.726562 0)"/>
     <use xlink:href="#DejaVuSans-3a" transform="translate(654.935547 0)"/>
     <use xlink:href="#DejaVuSans-20" transform="translate(688.626953 0)"/>
     <use xlink:href="#DejaVuSans-47" transform="translate(720.414062 0)"/>
     <use xlink:href="#DejaVuSans-72" transform="translate(797.904297 0)"/>
     <use xlink:href="#DejaVuSans-65" transform="translate(836.767578 0)"/>
     <use xlink:href="#DejaVuSans-65" transform="translate(898.291016 0)"/>
     <use xlink:href="#DejaVuSans-6e" transform="translate(959.814453 0)"/>
     <use xlink:href="#DejaVuSans-20" transform="translate(1023.193359 0)"/>
     <use xlink:href="#DejaVuSans-43" transform="translate(1054.980469 0)"/>
     <use xlink:href="#DejaVuSans-72" transform="translate(1124.804688 0)"/>
     <use xlink:href="#DejaVuSans-61" transform="translate(1165.917969 0)"/>
     <use xlink:href="#DejaVuSans-63" transform="translate(1227.197266 0)"/>
     <use xlink:href="#DejaVuSans-6b" transform="translate(1282.177734 0)"/>
     <use xlink:href="#DejaVuSans-2c" transform="translate(1340.087891 0)"/>
     <use xlink:href="#DejaVuSans-20" transform="translate(1371.875 0)"/>
     <use xlink:href="#DejaVuSans-52" transform="translate(1403.662109 0)"/>
     <use xlink:href="#DejaVuSans-65" transform="translate(1468.644531 0)"/>
     <use xlink:href="#DejaVuSans-63" transform="translate(1530.167969 0)"/>
     <use xlink:href="#DejaVuSans-69" transform="translate(1585.148438 0)"/>
     <use xlink:href="#DejaVuSans-70" transform="translate(1612.931641 0)"/>
     <use xlink:href="#DejaVuSans-65" transform="translate(1676.408203 0)"/>
     <use xlink:href="#DejaVuSans-20" transform="translate(1737.931641 0)"/>
     <use xlink:href="#DejaVuSans-73" transform="translate(1769.71875 0)"/>
     <use xlink:href="#DejaVuSans-69" transform="translate(1821.818359 0)"/>
     <use xlink:href="#DejaVuSans-7a" transform="translate(1849.601562 0)"/>
     <use xlink:href="#DejaVuSans-65" transform="translate(1902.091797 0)"/>
     <use xlink:href="#DejaVuSans-3a" transform="translate(1963.615234 0)"/>
     <use xlink:href="#DejaVuSans-20" transform="translate(1997.306641 0)"/>
     <use xlink:href="#DejaVuSans-31" transform="translate(2029.09375 0)"/>
     <use xlink:href="#DejaVuSans-30" transform="translate(2092.716797 0)"/>
     <use xlink:href="#DejaVuSans-2c" transform="translate(2156.339844 0)"/>
     <use xlink:href="#DejaVuSans-20" transform="translate(2188.126953 0)"/>
     <use xlink:href="#DejaVuSans-54" transform="translate(2219.914062 0)"/>
     <use xlink:href="#DejaVuSans-30" transform="translate(2280.998047 0)"/>
     <use xlink:href="#DejaVuSans-3a" transform="translate(2344.621094 0)"/>
     <use xlink:href="#DejaVuSans-20" transform="translate(2378.3125 0)"/>
     <use xlink:href="#DejaVuSans-35" transform="translate(2410.099609 0)"/>
     <use xlink:href="#DejaVuSans-30" transform="translate(2473.722656 0)"/>
     <use xlink:href="#DejaVuSans-2e" transform="translate(2537.345703 0)"/>
     <use xlink:href="#DejaVuSans-30" transform="translate(2569.132812 0)"/>
    </g>
   </g>
  </g>
 </g>
 <defs>
  <clipPath id="p590733b563">
   <rect x="50.87" y="43.44" width="793.996" height="346.6"/>
  </clipPath>
 </defs>
</svg>
