<?xml version="1.0" encoding="utf-8" standalone="no"?>
<!DOCTYPE svg PUBLIC "-//W3C//DTD SVG 1.1//EN"
  "http://www.w3.org/Graphics/SVG/1.1/DTD/svg11.dtd">
<svg xmlns:xlink="http://www.w3.org/1999/xlink" width="864pt" height="432pt" viewBox="0 0 864 432" xmlns="http://www.w3.org/2000/svg" version="1.1">
 <metadata>
  <rdf:RDF xmlns:dc="http://purl.org/dc/elements/1.1/" xmlns:cc="http://creativecommons.org/ns#" xmlns:rdf="http://www.w3.org/1999/02/22-rdf-syntax-ns#">
   <cc:Work>
    <dc:type rdf:resource="http://purl.org/dc/dcmitype/StillImage"/>
    <dc:date>2025-05-24T02:10:22.754564</dc:date>
    <dc:format>image/svg+xml</dc:format>
    <dc:creator>
     <cc:Agent>
      <dc:title>Matplotlib v3.10.3, https://matplotlib.org/</dc:title>
     </cc:Agent>
    </dc:creator>
   </cc:Work>
  </rdf:RDF>
 </metadata>
 <defs>
  <style type="text/css">*{stroke-linejoin: round; stroke-linecap: butt}</style>
 </defs>
 <g id="figure_1">
  <g id="patch_1">
   <path d="M 0 432 
L 864 432 
L 864 0 
L 0 0 
z
" style="fill: #ffffff"/>
  </g>
  <g id="axes_1">
   <g id="patch_2">
    <path d="M 50.87 390.04 
L 844.866 390.04 
L 844.866 43.44 
L 50.87 43.44 
z
" style="fill: #ffffff"/>
   </g>
   <g id="FillBetweenPolyCollection_1">
    <defs>
     <path id="mb8997790f4" d="M 52.193327 -328.92367 
L 52.193327 -57.714545 
L 54.83998 -59.01829 
L 57.486633 -62.866816 
L 60.133287 -67.813164 
L 62.77994 -70.666974 
L 65.426593 -73.769024 
L 68.073247 -75.333862 
L 70.7199 -79.381849 
L 73.366553 -82.012109 
L 76.013207 -84.517533 
L 78.65986 -85.435948 
L 81.306513 -88.405336 
L 83.953167 -90.360716 
L 86.59982 -90.657388 
L 89.246473 -93.61472 
L 91.893127 -96.105845 
L 94.53978 -97.476874 
L 97.186433 -98.227858 
L 99.833087 -100.14648 
L 102.47974 -101.119454 
L 105.126393 -102.384257 
L 107.773047 -103.493476 
L 110.4197 -104.879531 
L 113.066353 -104.47861 
L 115.713007 -106.284844 
L 118.35966 -105.856909 
L 121.006313 -106.918217 
L 123.652967 -106.582591 
L 126.29962 -109.158802 
L 128.946273 -108.239311 
L 131.592927 -110.434597 
L 134.23958 -110.507453 
L 136.886233 -110.686524 
L 139.532887 -113.316044 
L 142.17954 -113.11953 
L 144.826193 -112.821934 
L 147.472847 -112.908152 
L 150.1195 -113.47246 
L 152.766153 -113.99141 
L 155.412807 -114.138116 
L 158.05946 -114.472169 
L 160.706113 -115.917129 
L 163.352767 -117.134066 
L 165.99942 -116.132484 
L 168.646073 -116.27489 
L 171.292727 -116.100558 
L 173.93938 -117.040681 
L 176.586033 -118.615252 
L 179.232687 -118.998165 
L 181.87934 -118.364839 
L 184.525993 -119.08718 
L 187.172647 -118.601578 
L 189.8193 -118.135336 
L 192.465953 -118.832005 
L 195.112607 -119.896364 
L 197.75926 -121.188942 
L 200.405913 -122.052083 
L 203.052567 -121.721925 
L 205.69922 -121.574144 
L 208.345873 -120.980477 
L 210.992527 -121.913977 
L 213.63918 -122.426015 
L 216.285833 -123.560872 
L 218.932487 -122.642907 
L 221.57914 -122.546124 
L 224.225793 -122.888546 
L 226.872447 -123.44549 
L 229.5191 -122.875658 
L 232.165753 -124.404698 
L 234.812407 -124.293073 
L 237.45906 -125.123548 
L 240.105713 -124.317959 
L 242.752367 -125.165415 
L 245.39902 -123.971838 
L 248.045673 -124.247311 
L 250.692327 -124.424278 
L 253.33898 -125.630569 
L 255.985633 -125.955838 
L 258.632287 -125.321853 
L 261.27894 -124.513144 
L 263.925593 -125.822922 
L 266.572247 -127.28225 
L 269.2189 -127.203371 
L 271.865553 -126.508147 
L 274.512207 -127.400659 
L 277.15886 -126.71214 
L 279.805513 -126.413942 
L 282.452167 -126.856025 
L 285.09882 -128.10698 
L 287.745473 -128.146523 
L 290.392127 -127.663359 
L 293.03878 -127.986755 
L 295.685433 -129.688266 
L 298.332087 -129.633384 
L 300.97874 -129.158139 
L 303.625393 -128.91265 
L 306.272047 -128.640078 
L 308.9187 -130.601006 
L 311.565353 -130.034179 
L 314.212007 -129.512131 
L 316.85866 -129.438454 
L 319.505313 -129.142569 
L 322.151967 -130.149352 
L 324.79862 -130.567613 
L 327.445273 -130.633048 
L 330.091927 -131.235442 
L 332.73858 -130.641694 
L 335.385233 -130.404273 
L 338.031887 -130.493497 
L 340.67854 -129.762082 
L 343.325193 -130.137007 
L 345.971847 -130.362765 
L 348.6185 -131.093071 
L 351.265153 -131.914449 
L 353.911807 -133.11911 
L 356.55846 -133.656705 
L 359.205113 -132.626468 
L 361.851767 -133.115908 
L 364.49842 -133.214783 
L 367.145073 -132.690747 
L 369.791727 -131.901538 
L 372.43838 -131.547094 
L 375.085033 -132.300494 
L 377.731687 -130.986185 
L 380.37834 -132.366773 
L 383.024993 -132.911569 
L 385.671647 -133.173668 
L 388.3183 -132.249427 
L 390.964953 -132.43993 
L 393.611607 -132.043655 
L 396.25826 -131.88376 
L 398.904913 -133.536157 
L 401.551567 -134.851691 
L 404.19822 -133.540815 
L 406.844873 -134.083484 
L 409.491527 -134.332337 
L 412.13818 -133.854825 
L 414.784833 -133.351826 
L 417.431487 -135.387853 
L 420.07814 -134.236212 
L 422.724793 -134.591557 
L 425.371447 -133.986088 
L 428.0181 -133.787621 
L 430.664753 -133.789771 
L 433.311407 -134.020788 
L 435.95806 -134.667962 
L 438.604713 -134.638209 
L 441.251367 -134.342208 
L 443.89802 -134.010963 
L 446.544673 -134.641954 
L 449.191327 -134.885143 
L 451.83798 -135.959153 
L 454.484633 -136.358954 
L 457.131287 -135.180497 
L 459.77794 -135.490473 
L 462.424593 -135.593856 
L 465.071247 -134.134043 
L 467.7179 -134.000144 
L 470.364553 -134.721607 
L 473.011207 -135.582748 
L 475.65786 -135.925413 
L 478.304513 -136.515612 
L 480.951167 -136.850567 
L 483.59782 -137.196307 
L 486.244473 -136.30354 
L 488.891127 -135.838432 
L 491.53778 -135.736528 
L 494.184433 -135.595093 
L 496.831087 -135.54821 
L 499.47774 -135.632116 
L 502.124393 -136.23458 
L 504.771047 -136.670005 
L 507.4177 -137.711315 
L 510.064353 -137.459065 
L 512.711007 -137.759216 
L 515.35766 -137.194827 
L 518.004313 -137.618289 
L 520.650967 -138.130778 
L 523.29762 -137.370997 
L 525.944273 -138.606659 
L 528.590927 -137.624982 
L 531.23758 -137.83369 
L 533.884233 -138.689283 
L 536.530887 -137.619699 
L 539.17754 -137.892617 
L 541.824193 -138.386647 
L 544.470847 -139.719207 
L 547.1175 -139.360753 
L 549.764153 -140.221836 
L 552.410807 -140.695233 
L 555.05746 -139.049309 
L 557.704113 -138.989954 
L 560.350767 -139.496328 
L 562.99742 -139.187935 
L 565.644073 -139.791497 
L 568.290727 -137.643407 
L 570.93738 -138.524406 
L 573.584033 -138.144244 
L 576.230687 -138.358986 
L 578.87734 -137.917712 
L 581.523993 -138.118225 
L 584.170647 -137.259072 
L 586.8173 -137.373355 
L 589.463953 -137.236578 
L 592.110607 -137.108574 
L 594.75726 -138.245165 
L 597.403913 -138.390114 
L 600.050567 -138.739379 
L 602.69722 -138.634805 
L 605.343873 -138.955508 
L 607.990527 -139.744926 
L 610.63718 -139.474123 
L 613.283833 -140.852099 
L 615.930487 -140.572327 
L 618.57714 -140.473359 
L 621.223793 -140.511584 
L 623.870447 -139.126072 
L 626.5171 -139.476562 
L 629.163753 -138.930425 
L 631.810407 -138.862829 
L 634.45706 -139.658581 
L 637.103713 -139.022111 
L 639.750367 -137.297841 
L 642.39702 -138.720029 
L 645.043673 -139.529329 
L 647.690327 -137.845619 
L 650.33698 -138.388195 
L 652.983633 -139.871103 
L 655.630287 -140.332409 
L 658.27694 -141.034881 
L 660.923593 -141.140287 
L 663.570247 -140.805401 
L 666.2169 -140.684714 
L 668.863553 -140.288994 
L 671.510207 -140.415472 
L 674.15686 -141.363351 
L 676.803513 -140.945311 
L 679.450167 -140.888024 
L 682.09682 -141.583861 
L 684.743473 -140.73725 
L 687.390127 -141.931889 
L 690.03678 -140.954488 
L 692.683433 -142.37025 
L 695.330087 -143.009656 
L 697.97674 -142.743523 
L 700.623393 -142.734172 
L 703.270047 -142.050068 
L 705.9167 -142.517881 
L 708.563353 -142.658762 
L 711.210007 -143.135106 
L 713.85666 -142.800752 
L 716.503313 -142.624478 
L 719.149967 -141.994065 
L 721.79662 -142.672205 
L 724.443273 -142.810762 
L 727.089927 -143.513118 
L 729.73658 -142.845335 
L 732.383233 -142.255701 
L 735.029887 -142.96542 
L 737.67654 -141.932051 
L 740.323193 -143.491757 
L 742.969847 -144.277048 
L 745.6165 -143.477955 
L 748.263153 -142.611231 
L 750.909807 -142.910041 
L 753.55646 -142.690872 
L 756.203113 -142.945493 
L 758.849767 -143.413468 
L 761.49642 -143.556591 
L 764.143073 -144.33979 
L 766.789727 -144.518942 
L 769.43638 -144.381321 
L 772.083033 -144.984421 
L 774.729687 -144.930463 
L 777.37634 -144.112391 
L 780.022993 -144.100092 
L 782.669647 -143.933921 
L 785.3163 -143.730564 
L 787.962953 -144.272921 
L 790.609607 -146.206617 
L 793.25626 -144.822873 
L 795.902913 -145.384267 
L 798.549567 -146.037105 
L 801.19622 -146.660351 
L 803.842873 -146.310277 
L 806.489527 -147.352847 
L 809.13618 -146.853432 
L 811.782833 -146.461769 
L 814.429487 -146.087236 
L 817.07614 -145.444721 
L 819.722793 -146.054455 
L 822.369447 -146.325789 
L 825.0161 -146.156335 
L 827.662753 -145.964226 
L 830.309407 -145.598801 
L 832.95606 -144.199915 
L 835.602713 -144.757773 
L 838.249367 -144.626902 
L 840.89602 -145.665566 
L 843.542673 -145.69785 
L 843.542673 -371.678019 
L 843.542673 -371.678019 
L 840.89602 -371.24865 
L 838.249367 -371.915485 
L 835.602713 -371.976494 
L 832.95606 -372.0363 
L 830.309407 -371.042994 
L 827.662753 -371.631459 
L 825.0161 -371.429085 
L 822.369447 -371.175482 
L 819.722793 -371.371406 
L 817.07614 -371.320616 
L 814.429487 -370.410442 
L 811.782833 -370.083255 
L 809.13618 -369.638282 
L 806.489527 -369.087082 
L 803.842873 -369.63664 
L 801.19622 -369.396006 
L 798.549567 -369.693672 
L 795.902913 -370.363235 
L 793.25626 -370.922734 
L 790.609607 -370.194151 
L 787.962953 -371.420254 
L 785.3163 -371.568671 
L 782.669647 -370.75113 
L 780.022993 -370.241936 
L 777.37634 -369.929937 
L 774.729687 -369.958904 
L 772.083033 -369.604322 
L 769.43638 -370.584843 
L 766.789727 -370.097588 
L 764.143073 -369.789935 
L 761.49642 -370.633414 
L 758.849767 -370.403738 
L 756.203113 -370.522633 
L 753.55646 -370.283825 
L 750.909807 -370.084965 
L 748.263153 -370.530146 
L 745.6165 -369.997534 
L 742.969847 -369.733712 
L 740.323193 -370.484396 
L 737.67654 -371.187966 
L 735.029887 -370.778918 
L 732.383233 -371.123282 
L 729.73658 -370.908008 
L 727.089927 -370.468121 
L 724.443273 -371.100673 
L 721.79662 -371.151301 
L 719.149967 -371.300827 
L 716.503313 -371.0598 
L 713.85666 -371.199455 
L 711.210007 -370.943748 
L 708.563353 -370.834285 
L 705.9167 -370.566025 
L 703.270047 -370.634501 
L 700.623393 -369.913408 
L 697.97674 -370.055744 
L 695.330087 -370.406443 
L 692.683433 -370.56806 
L 690.03678 -371.082826 
L 687.390127 -370.531811 
L 684.743473 -371.494116 
L 682.09682 -370.395577 
L 679.450167 -371.054784 
L 676.803513 -371.526897 
L 674.15686 -371.523221 
L 671.510207 -372.007079 
L 668.863553 -371.950971 
L 666.2169 -371.419468 
L 663.570247 -371.045583 
L 660.923593 -370.690631 
L 658.27694 -371.004872 
L 655.630287 -371.431975 
L 652.983633 -371.431721 
L 650.33698 -372.700915 
L 647.690327 -372.805455 
L 645.043673 -371.594286 
L 642.39702 -372.168927 
L 639.750367 -372.258786 
L 637.103713 -370.774757 
L 634.45706 -370.399692 
L 631.810407 -370.968485 
L 629.163753 -370.645112 
L 626.5171 -369.837697 
L 623.870447 -370.435825 
L 621.223793 -369.844586 
L 618.57714 -369.936456 
L 615.930487 -369.90023 
L 613.283833 -369.776319 
L 610.63718 -370.582231 
L 607.990527 -370.837406 
L 605.343873 -371.135742 
L 602.69722 -370.656439 
L 600.050567 -370.645528 
L 597.403913 -370.65422 
L 594.75726 -370.535394 
L 592.110607 -371.193398 
L 589.463953 -371.114775 
L 586.8173 -371.101043 
L 584.170647 -371.680723 
L 581.523993 -371.161773 
L 578.87734 -370.868384 
L 576.230687 -370.340418 
L 573.584033 -370.460955 
L 570.93738 -370.188325 
L 568.290727 -370.491424 
L 565.644073 -368.80227 
L 562.99742 -369.22824 
L 560.350767 -368.85447 
L 557.704113 -368.890303 
L 555.05746 -368.61157 
L 552.410807 -367.405418 
L 549.764153 -367.679689 
L 547.1175 -368.527976 
L 544.470847 -367.25529 
L 541.824193 -368.004541 
L 539.17754 -368.959217 
L 536.530887 -369.038188 
L 533.884233 -368.205551 
L 531.23758 -368.759039 
L 528.590927 -368.499749 
L 525.944273 -367.284488 
L 523.29762 -367.992196 
L 520.650967 -367.12264 
L 518.004313 -367.700633 
L 515.35766 -367.661888 
L 512.711007 -367.308184 
L 510.064353 -367.708401 
L 507.4177 -367.789175 
L 504.771047 -368.04287 
L 502.124393 -367.919352 
L 499.47774 -368.599364 
L 496.831087 -368.737725 
L 494.184433 -368.531374 
L 491.53778 -368.579691 
L 488.891127 -369.031091 
L 486.244473 -368.64093 
L 483.59782 -367.899123 
L 480.951167 -367.302636 
L 478.304513 -367.417162 
L 475.65786 -367.760462 
L 473.011207 -367.359714 
L 470.364553 -367.72248 
L 467.7179 -368.47603 
L 465.071247 -367.664223 
L 462.424593 -366.728573 
L 459.77794 -366.479454 
L 457.131287 -367.295677 
L 454.484633 -366.177373 
L 451.83798 -366.733635 
L 449.191327 -368.004148 
L 446.544673 -368.307755 
L 443.89802 -368.635127 
L 441.251367 -367.696056 
L 438.604713 -367.187278 
L 435.95806 -366.992625 
L 433.311407 -366.680441 
L 430.664753 -367.379087 
L 428.0181 -367.583379 
L 425.371447 -367.534254 
L 422.724793 -367.47602 
L 420.07814 -367.677377 
L 417.431487 -367.00497 
L 414.784833 -367.597921 
L 412.13818 -367.187578 
L 409.491527 -366.566701 
L 406.844873 -366.656029 
L 404.19822 -366.962757 
L 401.551567 -365.975438 
L 398.904913 -366.761539 
L 396.25826 -367.756116 
L 393.611607 -367.266849 
L 390.964953 -367.048894 
L 388.3183 -367.285506 
L 385.671647 -366.150764 
L 383.024993 -366.271278 
L 380.37834 -367.569301 
L 377.731687 -368.103763 
L 375.085033 -367.041173 
L 372.43838 -367.671366 
L 369.791727 -367.144417 
L 367.145073 -366.773167 
L 364.49842 -366.689619 
L 361.851767 -366.337696 
L 359.205113 -366.250449 
L 356.55846 -365.488553 
L 353.911807 -365.331143 
L 351.265153 -366.698126 
L 348.6185 -366.832534 
L 345.971847 -366.935616 
L 343.325193 -366.003249 
L 340.67854 -366.014115 
L 338.031887 -364.699516 
L 335.385233 -364.8121 
L 332.73858 -364.785191 
L 330.091927 -364.288711 
L 327.445273 -364.818851 
L 324.79862 -364.911507 
L 322.151967 -365.096381 
L 319.505313 -365.651534 
L 316.85866 -365.029778 
L 314.212007 -364.559584 
L 311.565353 -363.874323 
L 308.9187 -363.116635 
L 306.272047 -363.993704 
L 303.625393 -363.880588 
L 300.97874 -363.865284 
L 298.332087 -363.645526 
L 295.685433 -363.235322 
L 293.03878 -364.549666 
L 290.392127 -364.753381 
L 287.745473 -364.864624 
L 285.09882 -364.523751 
L 282.452167 -365.248589 
L 279.805513 -365.317688 
L 277.15886 -364.439278 
L 274.512207 -363.893719 
L 271.865553 -363.480487 
L 269.2189 -364.024567 
L 266.572247 -363.76093 
L 263.925593 -364.488219 
L 261.27894 -365.302939 
L 258.632287 -364.827497 
L 255.985633 -363.978747 
L 253.33898 -363.605763 
L 250.692327 -363.926362 
L 248.045673 -363.708476 
L 245.39902 -364.414357 
L 242.752367 -363.721607 
L 240.105713 -364.145126 
L 237.45906 -363.440193 
L 234.812407 -363.341387 
L 232.165753 -363.431015 
L 229.5191 -363.95193 
L 226.872447 -362.533533 
L 224.225793 -362.765243 
L 221.57914 -362.999057 
L 218.932487 -362.266082 
L 216.285833 -361.083602 
L 213.63918 -361.795309 
L 210.992527 -362.198693 
L 208.345873 -362.155694 
L 205.69922 -361.499701 
L 203.052567 -360.507551 
L 200.405913 -359.418768 
L 197.75926 -360.23906 
L 195.112607 -361.367721 
L 192.465953 -361.186246 
L 189.8193 -360.904254 
L 187.172647 -359.69112 
L 184.525993 -359.042848 
L 181.87934 -359.453838 
L 179.232687 -358.755007 
L 176.586033 -359.377595 
L 173.93938 -360.000275 
L 171.292727 -360.217098 
L 168.646073 -359.22719 
L 165.99942 -358.833955 
L 163.352767 -357.295229 
L 160.706113 -357.333836 
L 158.05946 -357.960654 
L 155.412807 -358.011652 
L 152.766153 -357.858288 
L 150.1195 -357.813208 
L 147.472847 -356.921829 
L 144.826193 -356.629249 
L 142.17954 -355.924801 
L 139.532887 -355.554915 
L 136.886233 -356.832825 
L 134.23958 -356.12699 
L 131.592927 -355.332983 
L 128.946273 -356.090417 
L 126.29962 -355.107029 
L 123.652967 -356.338148 
L 121.006313 -354.372065 
L 118.35966 -353.50274 
L 115.713007 -352.352718 
L 113.066353 -352.256386 
L 110.4197 -351.265993 
L 107.773047 -351.390182 
L 105.126393 -350.999582 
L 102.47974 -350.672834 
L 99.833087 -349.851687 
L 97.186433 -349.130109 
L 94.53978 -348.664353 
L 91.893127 -347.464766 
L 89.246473 -348.299784 
L 86.59982 -348.380188 
L 83.953167 -346.231519 
L 81.306513 -345.364321 
L 78.65986 -345.323703 
L 76.013207 -343.405543 
L 73.366553 -342.489104 
L 70.7199 -340.032875 
L 68.073247 -339.384419 
L 65.426593 -336.814866 
L 62.77994 -333.925825 
L 60.133287 -331.596652 
L 57.486633 -329.706164 
L 54.83998 -328.123791 
L 52.193327 -328.92367 
z
" style="stroke: #0000ff; stroke-opacity: 0.2"/>
    </defs>
    <g clip-path="url(#p1196b5c2a5)">
     <use xlink:href="#mb8997790f4" x="0" y="432" style="fill: #0000ff; fill-opacity: 0.2; stroke: #0000ff; stroke-opacity: 0.2"/>
    </g>
   </g>
   <g id="matplotlib.axis_1">
    <g id="xtick_1">
     <g id="line2d_1">
      <defs>
       <path id="m7b5ce1a398" d="M 0 0 
L 0 3.5 
" style="stroke: #000000; stroke-width: 0.8"/>
      </defs>
      <g>
       <use xlink:href="#m7b5ce1a398" x="181.87934" y="390.04" style="stroke: #000000; stroke-width: 0.8"/>
      </g>
     </g>
     <g id="text_1">
      <!-- 50 -->
      <g transform="translate(175.51684 404.638438) scale(0.1 -0.1)">
       <defs>
        <path id="DejaVuSans-35" d="M 691 4666 
L 3169 4666 
L 3169 4134 
L 1269 4134 
L 1269 2991 
Q 1406 3038 1543 3061 
Q 1681 3084 1819 3084 
Q 2600 3084 3056 2656 
Q 3513 2228 3513 1497 
Q 3513 744 3044 326 
Q 2575 -91 1722 -91 
Q 1428 -91 1123 -41 
Q 819 9 494 109 
L 494 744 
Q 775 591 1075 516 
Q 1375 441 1709 441 
Q 2250 441 2565 725 
Q 2881 1009 2881 1497 
Q 2881 1984 2565 2268 
Q 2250 2553 1709 2553 
Q 1456 2553 1204 2497 
Q 953 2441 691 2322 
L 691 4666 
z
" transform="scale(0.015625)"/>
        <path id="DejaVuSans-30" d="M 2034 4250 
Q 1547 4250 1301 3770 
Q 1056 3291 1056 2328 
Q 1056 1369 1301 889 
Q 1547 409 2034 409 
Q 2525 409 2770 889 
Q 3016 1369 3016 2328 
Q 3016 3291 2770 3770 
Q 2525 4250 2034 4250 
z
M 2034 4750 
Q 2819 4750 3233 4129 
Q 3647 3509 3647 2328 
Q 3647 1150 3233 529 
Q 2819 -91 2034 -91 
Q 1250 -91 836 529 
Q 422 1150 422 2328 
Q 422 3509 836 4129 
Q 1250 4750 2034 4750 
z
" transform="scale(0.015625)"/>
       </defs>
       <use xlink:href="#DejaVuSans-35"/>
       <use xlink:href="#DejaVuSans-30" transform="translate(63.623047 0)"/>
      </g>
     </g>
    </g>
    <g id="xtick_2">
     <g id="line2d_2">
      <g>
       <use xlink:href="#m7b5ce1a398" x="314.212007" y="390.04" style="stroke: #000000; stroke-width: 0.8"/>
      </g>
     </g>
     <g id="text_2">
      <!-- 100 -->
      <g transform="translate(304.668257 404.638438) scale(0.1 -0.1)">
       <defs>
        <path id="DejaVuSans-31" d="M 794 531 
L 1825 531 
L 1825 4091 
L 703 3866 
L 703 4441 
L 1819 4666 
L 2450 4666 
L 2450 531 
L 3481 531 
L 3481 0 
L 794 0 
L 794 531 
z
" transform="scale(0.015625)"/>
       </defs>
       <use xlink:href="#DejaVuSans-31"/>
       <use xlink:href="#DejaVuSans-30" transform="translate(63.623047 0)"/>
       <use xlink:href="#DejaVuSans-30" transform="translate(127.246094 0)"/>
      </g>
     </g>
    </g>
    <g id="xtick_3">
     <g id="line2d_3">
      <g>
       <use xlink:href="#m7b5ce1a398" x="446.544673" y="390.04" style="stroke: #000000; stroke-width: 0.8"/>
      </g>
     </g>
     <g id="text_3">
      <!-- 150 -->
      <g transform="translate(437.000923 404.638438) scale(0.1 -0.1)">
       <use xlink:href="#DejaVuSans-31"/>
       <use xlink:href="#DejaVuSans-35" transform="translate(63.623047 0)"/>
       <use xlink:href="#DejaVuSans-30" transform="translate(127.246094 0)"/>
      </g>
     </g>
    </g>
    <g id="xtick_4">
     <g id="line2d_4">
      <g>
       <use xlink:href="#m7b5ce1a398" x="578.87734" y="390.04" style="stroke: #000000; stroke-width: 0.8"/>
      </g>
     </g>
     <g id="text_4">
      <!-- 200 -->
      <g transform="translate(569.33359 404.638438) scale(0.1 -0.1)">
       <defs>
        <path id="DejaVuSans-32" d="M 1228 531 
L 3431 531 
L 3431 0 
L 469 0 
L 469 531 
Q 828 903 1448 1529 
Q 2069 2156 2228 2338 
Q 2531 2678 2651 2914 
Q 2772 3150 2772 3378 
Q 2772 3750 2511 3984 
Q 2250 4219 1831 4219 
Q 1534 4219 1204 4116 
Q 875 4013 500 3803 
L 500 4441 
Q 881 4594 1212 4672 
Q 1544 4750 1819 4750 
Q 2544 4750 2975 4387 
Q 3406 4025 3406 3419 
Q 3406 3131 3298 2873 
Q 3191 2616 2906 2266 
Q 2828 2175 2409 1742 
Q 1991 1309 1228 531 
z
" transform="scale(0.015625)"/>
       </defs>
       <use xlink:href="#DejaVuSans-32"/>
       <use xlink:href="#DejaVuSans-30" transform="translate(63.623047 0)"/>
       <use xlink:href="#DejaVuSans-30" transform="translate(127.246094 0)"/>
      </g>
     </g>
    </g>
    <g id="xtick_5">
     <g id="line2d_5">
      <g>
       <use xlink:href="#m7b5ce1a398" x="711.210007" y="390.04" style="stroke: #000000; stroke-width: 0.8"/>
      </g>
     </g>
     <g id="text_5">
      <!-- 250 -->
      <g transform="translate(701.666257 404.638438) scale(0.1 -0.1)">
       <use xlink:href="#DejaVuSans-32"/>
       <use xlink:href="#DejaVuSans-35" transform="translate(63.623047 0)"/>
       <use xlink:href="#DejaVuSans-30" transform="translate(127.246094 0)"/>
      </g>
     </g>
    </g>
    <g id="xtick_6">
     <g id="line2d_6">
      <g>
       <use xlink:href="#m7b5ce1a398" x="843.542673" y="390.04" style="stroke: #000000; stroke-width: 0.8"/>
      </g>
     </g>
     <g id="text_6">
      <!-- 300 -->
      <g transform="translate(833.998923 404.638438) scale(0.1 -0.1)">
       <defs>
        <path id="DejaVuSans-33" d="M 2597 2516 
Q 3050 2419 3304 2112 
Q 3559 1806 3559 1356 
Q 3559 666 3084 287 
Q 2609 -91 1734 -91 
Q 1441 -91 1130 -33 
Q 819 25 488 141 
L 488 750 
Q 750 597 1062 519 
Q 1375 441 1716 441 
Q 2309 441 2620 675 
Q 2931 909 2931 1356 
Q 2931 1769 2642 2001 
Q 2353 2234 1838 2234 
L 1294 2234 
L 1294 2753 
L 1863 2753 
Q 2328 2753 2575 2939 
Q 2822 3125 2822 3475 
Q 2822 3834 2567 4026 
Q 2313 4219 1838 4219 
Q 1578 4219 1281 4162 
Q 984 4106 628 3988 
L 628 4550 
Q 988 4650 1302 4700 
Q 1616 4750 1894 4750 
Q 2613 4750 3031 4423 
Q 3450 4097 3450 3541 
Q 3450 3153 3228 2886 
Q 3006 2619 2597 2516 
z
" transform="scale(0.015625)"/>
       </defs>
       <use xlink:href="#DejaVuSans-33"/>
       <use xlink:href="#DejaVuSans-30" transform="translate(63.623047 0)"/>
       <use xlink:href="#DejaVuSans-30" transform="translate(127.246094 0)"/>
      </g>
     </g>
    </g>
    <g id="text_7">
     <!-- Step -->
     <g transform="translate(436.482844 418.316562) scale(0.1 -0.1)">
      <defs>
       <path id="DejaVuSans-53" d="M 3425 4513 
L 3425 3897 
Q 3066 4069 2747 4153 
Q 2428 4238 2131 4238 
Q 1616 4238 1336 4038 
Q 1056 3838 1056 3469 
Q 1056 3159 1242 3001 
Q 1428 2844 1947 2747 
L 2328 2669 
Q 3034 2534 3370 2195 
Q 3706 1856 3706 1288 
Q 3706 609 3251 259 
Q 2797 -91 1919 -91 
Q 1588 -91 1214 -16 
Q 841 59 441 206 
L 441 856 
Q 825 641 1194 531 
Q 1563 422 1919 422 
Q 2459 422 2753 634 
Q 3047 847 3047 1241 
Q 3047 1584 2836 1778 
Q 2625 1972 2144 2069 
L 1759 2144 
Q 1053 2284 737 2584 
Q 422 2884 422 3419 
Q 422 4038 858 4394 
Q 1294 4750 2059 4750 
Q 2388 4750 2728 4690 
Q 3069 4631 3425 4513 
z
" transform="scale(0.015625)"/>
       <path id="DejaVuSans-74" d="M 1172 4494 
L 1172 3500 
L 2356 3500 
L 2356 3053 
L 1172 3053 
L 1172 1153 
Q 1172 725 1289 603 
Q 1406 481 1766 481 
L 2356 481 
L 2356 0 
L 1766 0 
Q 1100 0 847 248 
Q 594 497 594 1153 
L 594 3053 
L 172 3053 
L 172 3500 
L 594 3500 
L 594 4494 
L 1172 4494 
z
" transform="scale(0.015625)"/>
       <path id="DejaVuSans-65" d="M 3597 1894 
L 3597 1613 
L 953 1613 
Q 991 1019 1311 708 
Q 1631 397 2203 397 
Q 2534 397 2845 478 
Q 3156 559 3463 722 
L 3463 178 
Q 3153 47 2828 -22 
Q 2503 -91 2169 -91 
Q 1331 -91 842 396 
Q 353 884 353 1716 
Q 353 2575 817 3079 
Q 1281 3584 2069 3584 
Q 2775 3584 3186 3129 
Q 3597 2675 3597 1894 
z
M 3022 2063 
Q 3016 2534 2758 2815 
Q 2500 3097 2075 3097 
Q 1594 3097 1305 2825 
Q 1016 2553 972 2059 
L 3022 2063 
z
" transform="scale(0.015625)"/>
       <path id="DejaVuSans-70" d="M 1159 525 
L 1159 -1331 
L 581 -1331 
L 581 3500 
L 1159 3500 
L 1159 2969 
Q 1341 3281 1617 3432 
Q 1894 3584 2278 3584 
Q 2916 3584 3314 3078 
Q 3713 2572 3713 1747 
Q 3713 922 3314 415 
Q 2916 -91 2278 -91 
Q 1894 -91 1617 61 
Q 1341 213 1159 525 
z
M 3116 1747 
Q 3116 2381 2855 2742 
Q 2594 3103 2138 3103 
Q 1681 3103 1420 2742 
Q 1159 2381 1159 1747 
Q 1159 1113 1420 752 
Q 1681 391 2138 391 
Q 2594 391 2855 752 
Q 3116 1113 3116 1747 
z
" transform="scale(0.015625)"/>
      </defs>
      <use xlink:href="#DejaVuSans-53"/>
      <use xlink:href="#DejaVuSans-74" transform="translate(63.476562 0)"/>
      <use xlink:href="#DejaVuSans-65" transform="translate(102.685547 0)"/>
      <use xlink:href="#DejaVuSans-70" transform="translate(164.208984 0)"/>
     </g>
    </g>
   </g>
   <g id="matplotlib.axis_2">
    <g id="ytick_1">
     <g id="line2d_7">
      <defs>
       <path id="m1fa14250eb" d="M 0 0 
L -3.5 0 
" style="stroke: #000000; stroke-width: 0.8"/>
      </defs>
      <g>
       <use xlink:href="#m1fa14250eb" x="50.87" y="376.116495" style="stroke: #000000; stroke-width: 0.8"/>
      </g>
     </g>
     <g id="text_8">
      <!-- 20 -->
      <g transform="translate(31.145 379.915714) scale(0.1 -0.1)">
       <use xlink:href="#DejaVuSans-32"/>
       <use xlink:href="#DejaVuSans-30" transform="translate(63.623047 0)"/>
      </g>
     </g>
    </g>
    <g id="ytick_2">
     <g id="line2d_8">
      <g>
       <use xlink:href="#m1fa14250eb" x="50.87" y="315.514356" style="stroke: #000000; stroke-width: 0.8"/>
      </g>
     </g>
     <g id="text_9">
      <!-- 40 -->
      <g transform="translate(31.145 319.313575) scale(0.1 -0.1)">
       <defs>
        <path id="DejaVuSans-34" d="M 2419 4116 
L 825 1625 
L 2419 1625 
L 2419 4116 
z
M 2253 4666 
L 3047 4666 
L 3047 1625 
L 3713 1625 
L 3713 1100 
L 3047 1100 
L 3047 0 
L 2419 0 
L 2419 1100 
L 313 1100 
L 313 1709 
L 2253 4666 
z
" transform="scale(0.015625)"/>
       </defs>
       <use xlink:href="#DejaVuSans-34"/>
       <use xlink:href="#DejaVuSans-30" transform="translate(63.623047 0)"/>
      </g>
     </g>
    </g>
    <g id="ytick_3">
     <g id="line2d_9">
      <g>
       <use xlink:href="#m1fa14250eb" x="50.87" y="254.912217" style="stroke: #000000; stroke-width: 0.8"/>
      </g>
     </g>
     <g id="text_10">
      <!-- 60 -->
      <g transform="translate(31.145 258.711436) scale(0.1 -0.1)">
       <defs>
        <path id="DejaVuSans-36" d="M 2113 2584 
Q 1688 2584 1439 2293 
Q 1191 2003 1191 1497 
Q 1191 994 1439 701 
Q 1688 409 2113 409 
Q 2538 409 2786 701 
Q 3034 994 3034 1497 
Q 3034 2003 2786 2293 
Q 2538 2584 2113 2584 
z
M 3366 4563 
L 3366 3988 
Q 3128 4100 2886 4159 
Q 2644 4219 2406 4219 
Q 1781 4219 1451 3797 
Q 1122 3375 1075 2522 
Q 1259 2794 1537 2939 
Q 1816 3084 2150 3084 
Q 2853 3084 3261 2657 
Q 3669 2231 3669 1497 
Q 3669 778 3244 343 
Q 2819 -91 2113 -91 
Q 1303 -91 875 529 
Q 447 1150 447 2328 
Q 447 3434 972 4092 
Q 1497 4750 2381 4750 
Q 2619 4750 2861 4703 
Q 3103 4656 3366 4563 
z
" transform="scale(0.015625)"/>
       </defs>
       <use xlink:href="#DejaVuSans-36"/>
       <use xlink:href="#DejaVuSans-30" transform="translate(63.623047 0)"/>
      </g>
     </g>
    </g>
    <g id="ytick_4">
     <g id="line2d_10">
      <g>
       <use xlink:href="#m1fa14250eb" x="50.87" y="194.310078" style="stroke: #000000; stroke-width: 0.8"/>
      </g>
     </g>
     <g id="text_11">
      <!-- 80 -->
      <g transform="translate(31.145 198.109297) scale(0.1 -0.1)">
       <defs>
        <path id="DejaVuSans-38" d="M 2034 2216 
Q 1584 2216 1326 1975 
Q 1069 1734 1069 1313 
Q 1069 891 1326 650 
Q 1584 409 2034 409 
Q 2484 409 2743 651 
Q 3003 894 3003 1313 
Q 3003 1734 2745 1975 
Q 2488 2216 2034 2216 
z
M 1403 2484 
Q 997 2584 770 2862 
Q 544 3141 544 3541 
Q 544 4100 942 4425 
Q 1341 4750 2034 4750 
Q 2731 4750 3128 4425 
Q 3525 4100 3525 3541 
Q 3525 3141 3298 2862 
Q 3072 2584 2669 2484 
Q 3125 2378 3379 2068 
Q 3634 1759 3634 1313 
Q 3634 634 3220 271 
Q 2806 -91 2034 -91 
Q 1263 -91 848 271 
Q 434 634 434 1313 
Q 434 1759 690 2068 
Q 947 2378 1403 2484 
z
M 1172 3481 
Q 1172 3119 1398 2916 
Q 1625 2713 2034 2713 
Q 2441 2713 2670 2916 
Q 2900 3119 2900 3481 
Q 2900 3844 2670 4047 
Q 2441 4250 2034 4250 
Q 1625 4250 1398 4047 
Q 1172 3844 1172 3481 
z
" transform="scale(0.015625)"/>
       </defs>
       <use xlink:href="#DejaVuSans-38"/>
       <use xlink:href="#DejaVuSans-30" transform="translate(63.623047 0)"/>
      </g>
     </g>
    </g>
    <g id="ytick_5">
     <g id="line2d_11">
      <g>
       <use xlink:href="#m1fa14250eb" x="50.87" y="133.707939" style="stroke: #000000; stroke-width: 0.8"/>
      </g>
     </g>
     <g id="text_12">
      <!-- 100 -->
      <g transform="translate(24.7825 137.507158) scale(0.1 -0.1)">
       <use xlink:href="#DejaVuSans-31"/>
       <use xlink:href="#DejaVuSans-30" transform="translate(63.623047 0)"/>
       <use xlink:href="#DejaVuSans-30" transform="translate(127.246094 0)"/>
      </g>
     </g>
    </g>
    <g id="ytick_6">
     <g id="line2d_12">
      <g>
       <use xlink:href="#m1fa14250eb" x="50.87" y="73.1058" style="stroke: #000000; stroke-width: 0.8"/>
      </g>
     </g>
     <g id="text_13">
      <!-- 120 -->
      <g transform="translate(24.7825 76.905019) scale(0.1 -0.1)">
       <use xlink:href="#DejaVuSans-31"/>
       <use xlink:href="#DejaVuSans-32" transform="translate(63.623047 0)"/>
       <use xlink:href="#DejaVuSans-30" transform="translate(127.246094 0)"/>
      </g>
     </g>
    </g>
    <g id="text_14">
     <!-- Profit -->
     <g transform="translate(18.702813 229.779063) rotate(-90) scale(0.1 -0.1)">
      <defs>
       <path id="DejaVuSans-50" d="M 1259 4147 
L 1259 2394 
L 2053 2394 
Q 2494 2394 2734 2622 
Q 2975 2850 2975 3272 
Q 2975 3691 2734 3919 
Q 2494 4147 2053 4147 
L 1259 4147 
z
M 628 4666 
L 2053 4666 
Q 2838 4666 3239 4311 
Q 3641 3956 3641 3272 
Q 3641 2581 3239 2228 
Q 2838 1875 2053 1875 
L 1259 1875 
L 1259 0 
L 628 0 
L 628 4666 
z
" transform="scale(0.015625)"/>
       <path id="DejaVuSans-72" d="M 2631 2963 
Q 2534 3019 2420 3045 
Q 2306 3072 2169 3072 
Q 1681 3072 1420 2755 
Q 1159 2438 1159 1844 
L 1159 0 
L 581 0 
L 581 3500 
L 1159 3500 
L 1159 2956 
Q 1341 3275 1631 3429 
Q 1922 3584 2338 3584 
Q 2397 3584 2469 3576 
Q 2541 3569 2628 3553 
L 2631 2963 
z
" transform="scale(0.015625)"/>
       <path id="DejaVuSans-6f" d="M 1959 3097 
Q 1497 3097 1228 2736 
Q 959 2375 959 1747 
Q 959 1119 1226 758 
Q 1494 397 1959 397 
Q 2419 397 2687 759 
Q 2956 1122 2956 1747 
Q 2956 2369 2687 2733 
Q 2419 3097 1959 3097 
z
M 1959 3584 
Q 2709 3584 3137 3096 
Q 3566 2609 3566 1747 
Q 3566 888 3137 398 
Q 2709 -91 1959 -91 
Q 1206 -91 779 398 
Q 353 888 353 1747 
Q 353 2609 779 3096 
Q 1206 3584 1959 3584 
z
" transform="scale(0.015625)"/>
       <path id="DejaVuSans-66" d="M 2375 4863 
L 2375 4384 
L 1825 4384 
Q 1516 4384 1395 4259 
Q 1275 4134 1275 3809 
L 1275 3500 
L 2222 3500 
L 2222 3053 
L 1275 3053 
L 1275 0 
L 697 0 
L 697 3053 
L 147 3053 
L 147 3500 
L 697 3500 
L 697 3744 
Q 697 4328 969 4595 
Q 1241 4863 1831 4863 
L 2375 4863 
z
" transform="scale(0.015625)"/>
       <path id="DejaVuSans-69" d="M 603 3500 
L 1178 3500 
L 1178 0 
L 603 0 
L 603 3500 
z
M 603 4863 
L 1178 4863 
L 1178 4134 
L 603 4134 
L 603 4863 
z
" transform="scale(0.015625)"/>
      </defs>
      <use xlink:href="#DejaVuSans-50"/>
      <use xlink:href="#DejaVuSans-72" transform="translate(58.552734 0)"/>
      <use xlink:href="#DejaVuSans-6f" transform="translate(97.416016 0)"/>
      <use xlink:href="#DejaVuSans-66" transform="translate(158.597656 0)"/>
      <use xlink:href="#DejaVuSans-69" transform="translate(193.802734 0)"/>
      <use xlink:href="#DejaVuSans-74" transform="translate(221.585938 0)"/>
     </g>
    </g>
   </g>
   <g id="line2d_13">
    <path d="M 52.193327 238.680898 
L 54.83998 238.428959 
L 57.486633 235.71351 
L 60.133287 232.295092 
L 62.77994 229.703601 
L 65.426593 226.708055 
L 68.073247 224.640854 
L 70.7199 222.292632 
L 73.366553 219.749388 
L 76.013207 218.038456 
L 89.246473 211.042754 
L 91.893127 210.214695 
L 94.53978 208.929387 
L 97.186433 208.321017 
L 99.833087 207.000916 
L 105.126393 205.308086 
L 107.773047 204.558165 
L 110.4197 203.927232 
L 113.066353 203.632502 
L 115.713007 202.681225 
L 118.35966 202.320169 
L 121.006313 201.354859 
L 123.652967 200.53963 
L 126.29962 199.867085 
L 128.946273 199.835136 
L 131.592927 199.116216 
L 136.886233 198.240326 
L 139.532887 197.564521 
L 142.17954 197.477829 
L 147.472847 197.08501 
L 150.1195 196.357166 
L 152.766153 196.075151 
L 158.05946 195.783589 
L 160.706113 195.374518 
L 163.352767 194.785358 
L 168.646073 194.248954 
L 176.586033 193.003571 
L 179.232687 193.123414 
L 181.87934 193.090656 
L 187.172647 192.853651 
L 189.8193 192.480205 
L 192.465953 191.990869 
L 195.112607 191.367958 
L 200.405913 191.264574 
L 205.69922 190.463077 
L 208.345873 190.431915 
L 210.992527 189.943665 
L 213.63918 189.889338 
L 221.57914 189.227404 
L 226.872447 189.010489 
L 232.165753 188.082144 
L 234.812407 188.182776 
L 237.45906 187.71813 
L 240.105713 187.768457 
L 242.752367 187.556489 
L 248.045673 188.022107 
L 250.692327 187.82468 
L 255.985633 187.032708 
L 258.632287 186.925325 
L 261.27894 187.091959 
L 263.925593 186.844435 
L 266.572247 186.47841 
L 269.2189 186.386031 
L 271.865553 187.005683 
L 274.512207 186.352811 
L 277.15886 186.424291 
L 282.452167 185.947693 
L 287.745473 185.494421 
L 290.392127 185.791624 
L 293.03878 185.731795 
L 298.332087 185.360545 
L 306.272047 185.683109 
L 308.9187 185.141179 
L 316.85866 184.765884 
L 324.79862 184.260434 
L 338.031887 184.403488 
L 343.325193 183.929872 
L 345.971847 183.350815 
L 351.265153 182.693712 
L 353.911807 182.774879 
L 356.55846 182.427371 
L 359.205113 182.561547 
L 364.49842 182.047799 
L 369.791727 182.477028 
L 375.085033 182.329166 
L 377.731687 182.45502 
L 380.37834 182.031963 
L 383.024993 182.408576 
L 390.964953 182.255582 
L 393.611607 182.344748 
L 396.25826 182.180056 
L 401.551567 181.586435 
L 404.19822 181.748214 
L 412.13818 181.478798 
L 414.784833 181.525127 
L 417.431487 180.803594 
L 420.07814 181.043211 
L 422.724793 180.966206 
L 425.371447 181.239829 
L 430.664753 181.415571 
L 433.311407 181.649385 
L 435.95806 181.169712 
L 441.251367 180.980862 
L 443.89802 180.676955 
L 446.544673 180.525139 
L 451.83798 180.653606 
L 457.131287 180.761913 
L 459.77794 181.015031 
L 462.424593 180.83878 
L 465.071247 181.100867 
L 467.7179 180.761913 
L 470.364553 180.777957 
L 473.011207 180.528769 
L 475.65786 180.157057 
L 480.951167 179.923404 
L 483.59782 179.452285 
L 488.891127 179.565239 
L 491.53778 179.841891 
L 494.184433 179.936766 
L 499.47774 179.884266 
L 502.124393 179.923034 
L 504.771047 179.643562 
L 507.4177 179.249749 
L 510.064353 179.416267 
L 515.35766 179.571642 
L 518.004313 179.340533 
L 523.29762 179.318409 
L 525.944273 179.054426 
L 528.590927 178.937635 
L 533.884233 178.552583 
L 536.530887 178.671062 
L 539.17754 178.574083 
L 541.824193 178.804406 
L 544.470847 178.512751 
L 547.1175 178.055641 
L 552.410807 177.949669 
L 555.05746 178.169566 
L 557.704113 178.059872 
L 560.350767 177.824601 
L 565.644073 177.703117 
L 568.290727 177.932585 
L 570.93738 177.643634 
L 576.230687 177.650292 
L 578.87734 177.606946 
L 581.523993 177.360001 
L 589.463953 177.824324 
L 592.110607 177.849014 
L 597.403913 177.477833 
L 600.050567 177.307547 
L 602.69722 177.354383 
L 605.343873 176.954375 
L 607.990527 176.70884 
L 610.63718 176.971829 
L 613.283833 176.685791 
L 621.223793 176.821909 
L 623.870447 177.219051 
L 626.5171 177.342871 
L 634.45706 176.970858 
L 639.750367 177.221687 
L 642.39702 176.555522 
L 645.043673 176.438199 
L 647.690327 176.674463 
L 650.33698 176.455445 
L 652.983633 176.348594 
L 658.27694 175.980118 
L 660.923593 176.084541 
L 663.570247 176.074508 
L 674.15686 175.556714 
L 679.450167 176.028596 
L 684.743473 175.884317 
L 687.390127 175.76815 
L 690.03678 175.981343 
L 692.683433 175.530845 
L 695.330087 175.291945 
L 697.97674 175.60036 
L 703.270047 175.657716 
L 711.210007 174.960573 
L 713.85666 174.999896 
L 719.149967 175.35256 
L 721.79662 175.088253 
L 727.089927 175.009375 
L 732.383233 175.310508 
L 735.029887 175.127831 
L 737.67654 175.439992 
L 740.323193 175.011918 
L 742.969847 174.994626 
L 748.263153 175.429311 
L 753.55646 175.512651 
L 758.849767 175.091397 
L 761.49642 174.904998 
L 764.143073 174.935143 
L 769.43638 174.516918 
L 772.083033 174.705629 
L 774.729687 174.555317 
L 777.37634 174.978836 
L 782.669647 174.657474 
L 790.609607 173.799616 
L 793.25626 174.127196 
L 798.549567 174.134617 
L 801.19622 173.971821 
L 803.842873 174.026541 
L 806.489527 173.780035 
L 817.07614 173.617332 
L 819.722793 173.28707 
L 827.662753 173.202158 
L 830.309407 173.679103 
L 832.95606 173.881893 
L 835.602713 173.632867 
L 838.249367 173.728806 
L 843.542673 173.31206 
L 843.542673 173.31206 
" clip-path="url(#p1196b5c2a5)" style="fill: none; stroke: #0000ff; stroke-width: 1.5; stroke-linecap: square"/>
   </g>
   <g id="patch_3">
    <path d="M 50.87 390.04 
L 50.87 43.44 
" style="fill: none; stroke: #000000; stroke-width: 0.8; stroke-linejoin: miter; stroke-linecap: square"/>
   </g>
   <g id="patch_4">
    <path d="M 844.866 390.04 
L 844.866 43.44 
" style="fill: none; stroke: #000000; stroke-width: 0.8; stroke-linejoin: miter; stroke-linecap: square"/>
   </g>
   <g id="patch_5">
    <path d="M 50.87 390.04 
L 844.866 390.04 
" style="fill: none; stroke: #000000; stroke-width: 0.8; stroke-linejoin: miter; stroke-linecap: square"/>
   </g>
   <g id="patch_6">
    <path d="M 50.87 43.44 
L 844.866 43.44 
" style="fill: none; stroke: #000000; stroke-width: 0.8; stroke-linejoin: miter; stroke-linecap: square"/>
   </g>
   <g id="text_15">
    <!-- Mean profit per step with confidence interval per simulation step -->
    <g transform="translate(220.284875 21.763062) scale(0.14 -0.14)">
     <defs>
      <path id="DejaVuSans-4d" d="M 628 4666 
L 1569 4666 
L 2759 1491 
L 3956 4666 
L 4897 4666 
L 4897 0 
L 4281 0 
L 4281 4097 
L 3078 897 
L 2444 897 
L 1241 4097 
L 1241 0 
L 628 0 
L 628 4666 
z
" transform="scale(0.015625)"/>
      <path id="DejaVuSans-61" d="M 2194 1759 
Q 1497 1759 1228 1600 
Q 959 1441 959 1056 
Q 959 750 1161 570 
Q 1363 391 1709 391 
Q 2188 391 2477 730 
Q 2766 1069 2766 1631 
L 2766 1759 
L 2194 1759 
z
M 3341 1997 
L 3341 0 
L 2766 0 
L 2766 531 
Q 2569 213 2275 61 
Q 1981 -91 1556 -91 
Q 1019 -91 701 211 
Q 384 513 384 1019 
Q 384 1609 779 1909 
Q 1175 2209 1959 2209 
L 2766 2209 
L 2766 2266 
Q 2766 2663 2505 2880 
Q 2244 3097 1772 3097 
Q 1472 3097 1187 3025 
Q 903 2953 641 2809 
L 641 3341 
Q 956 3463 1253 3523 
Q 1550 3584 1831 3584 
Q 2591 3584 2966 3190 
Q 3341 2797 3341 1997 
z
" transform="scale(0.015625)"/>
      <path id="DejaVuSans-6e" d="M 3513 2113 
L 3513 0 
L 2938 0 
L 2938 2094 
Q 2938 2591 2744 2837 
Q 2550 3084 2163 3084 
Q 1697 3084 1428 2787 
Q 1159 2491 1159 1978 
L 1159 0 
L 581 0 
L 581 3500 
L 1159 3500 
L 1159 2956 
Q 1366 3272 1645 3428 
Q 1925 3584 2291 3584 
Q 2894 3584 3203 3211 
Q 3513 2838 3513 2113 
z
" transform="scale(0.015625)"/>
      <path id="DejaVuSans-20" transform="scale(0.015625)"/>
      <path id="DejaVuSans-73" d="M 2834 3397 
L 2834 2853 
Q 2591 2978 2328 3040 
Q 2066 3103 1784 3103 
Q 1356 3103 1142 2972 
Q 928 2841 928 2578 
Q 928 2378 1081 2264 
Q 1234 2150 1697 2047 
L 1894 2003 
Q 2506 1872 2764 1633 
Q 3022 1394 3022 966 
Q 3022 478 2636 193 
Q 2250 -91 1575 -91 
Q 1294 -91 989 -36 
Q 684 19 347 128 
L 347 722 
Q 666 556 975 473 
Q 1284 391 1588 391 
Q 1994 391 2212 530 
Q 2431 669 2431 922 
Q 2431 1156 2273 1281 
Q 2116 1406 1581 1522 
L 1381 1569 
Q 847 1681 609 1914 
Q 372 2147 372 2553 
Q 372 3047 722 3315 
Q 1072 3584 1716 3584 
Q 2034 3584 2315 3537 
Q 2597 3491 2834 3397 
z
" transform="scale(0.015625)"/>
      <path id="DejaVuSans-77" d="M 269 3500 
L 844 3500 
L 1563 769 
L 2278 3500 
L 2956 3500 
L 3675 769 
L 4391 3500 
L 4966 3500 
L 4050 0 
L 3372 0 
L 2619 2869 
L 1863 0 
L 1184 0 
L 269 3500 
z
" transform="scale(0.015625)"/>
      <path id="DejaVuSans-68" d="M 3513 2113 
L 3513 0 
L 2938 0 
L 2938 2094 
Q 2938 2591 2744 2837 
Q 2550 3084 2163 3084 
Q 1697 3084 1428 2787 
Q 1159 2491 1159 1978 
L 1159 0 
L 581 0 
L 581 4863 
L 1159 4863 
L 1159 2956 
Q 1366 3272 1645 3428 
Q 1925 3584 2291 3584 
Q 2894 3584 3203 3211 
Q 3513 2838 3513 2113 
z
" transform="scale(0.015625)"/>
      <path id="DejaVuSans-63" d="M 3122 3366 
L 3122 2828 
Q 2878 2963 2633 3030 
Q 2388 3097 2138 3097 
Q 1578 3097 1268 2742 
Q 959 2388 959 1747 
Q 959 1106 1268 751 
Q 1578 397 2138 397 
Q 2388 397 2633 464 
Q 2878 531 3122 666 
L 3122 134 
Q 2881 22 2623 -34 
Q 2366 -91 2075 -91 
Q 1284 -91 818 406 
Q 353 903 353 1747 
Q 353 2603 823 3093 
Q 1294 3584 2113 3584 
Q 2378 3584 2631 3529 
Q 2884 3475 3122 3366 
z
" transform="scale(0.015625)"/>
      <path id="DejaVuSans-64" d="M 2906 2969 
L 2906 4863 
L 3481 4863 
L 3481 0 
L 2906 0 
L 2906 525 
Q 2725 213 2448 61 
Q 2172 -91 1784 -91 
Q 1150 -91 751 415 
Q 353 922 353 1747 
Q 353 2572 751 3078 
Q 1150 3584 1784 3584 
Q 2172 3584 2448 3432 
Q 2725 3281 2906 2969 
z
M 947 1747 
Q 947 1113 1208 752 
Q 1469 391 1925 391 
Q 2381 391 2643 752 
Q 2906 1113 2906 1747 
Q 2906 2381 2643 2742 
Q 2381 3103 1925 3103 
Q 1469 3103 1208 2742 
Q 947 2381 947 1747 
z
" transform="scale(0.015625)"/>
      <path id="DejaVuSans-76" d="M 191 3500 
L 800 3500 
L 1894 563 
L 2988 3500 
L 3597 3500 
L 2284 0 
L 1503 0 
L 191 3500 
z
" transform="scale(0.015625)"/>
      <path id="DejaVuSans-6c" d="M 603 4863 
L 1178 4863 
L 1178 0 
L 603 0 
L 603 4863 
z
" transform="scale(0.015625)"/>
      <path id="DejaVuSans-6d" d="M 3328 2828 
Q 3544 3216 3844 3400 
Q 4144 3584 4550 3584 
Q 5097 3584 5394 3201 
Q 5691 2819 5691 2113 
L 5691 0 
L 5113 0 
L 5113 2094 
Q 5113 2597 4934 2840 
Q 4756 3084 4391 3084 
Q 3944 3084 3684 2787 
Q 3425 2491 3425 1978 
L 3425 0 
L 2847 0 
L 2847 2094 
Q 2847 2600 2669 2842 
Q 2491 3084 2119 3084 
Q 1678 3084 1418 2786 
Q 1159 2488 1159 1978 
L 1159 0 
L 581 0 
L 581 3500 
L 1159 3500 
L 1159 2956 
Q 1356 3278 1631 3431 
Q 1906 3584 2284 3584 
Q 2666 3584 2933 3390 
Q 3200 3197 3328 2828 
z
" transform="scale(0.015625)"/>
      <path id="DejaVuSans-75" d="M 544 1381 
L 544 3500 
L 1119 3500 
L 1119 1403 
Q 1119 906 1312 657 
Q 1506 409 1894 409 
Q 2359 409 2629 706 
Q 2900 1003 2900 1516 
L 2900 3500 
L 3475 3500 
L 3475 0 
L 2900 0 
L 2900 538 
Q 2691 219 2414 64 
Q 2138 -91 1772 -91 
Q 1169 -91 856 284 
Q 544 659 544 1381 
z
M 1991 3584 
L 1991 3584 
z
" transform="scale(0.015625)"/>
     </defs>
     <use xlink:href="#DejaVuSans-4d"/>
     <use xlink:href="#DejaVuSans-65" transform="translate(86.279297 0)"/>
     <use xlink:href="#DejaVuSans-61" transform="translate(147.802734 0)"/>
     <use xlink:href="#DejaVuSans-6e" transform="translate(209.082031 0)"/>
     <use xlink:href="#DejaVuSans-20" transform="translate(272.460938 0)"/>
     <use xlink:href="#DejaVuSans-70" transform="translate(304.248047 0)"/>
     <use xlink:href="#DejaVuSans-72" transform="translate(367.724609 0)"/>
     <use xlink:href="#DejaVuSans-6f" transform="translate(406.587891 0)"/>
     <use xlink:href="#DejaVuSans-66" transform="translate(467.769531 0)"/>
     <use xlink:href="#DejaVuSans-69" transform="translate(502.974609 0)"/>
     <use xlink:href="#DejaVuSans-74" transform="translate(530.757812 0)"/>
     <use xlink:href="#DejaVuSans-20" transform="translate(569.966797 0)"/>
     <use xlink:href="#DejaVuSans-70" transform="translate(601.753906 0)"/>
     <use xlink:href="#DejaVuSans-65" transform="translate(665.230469 0)"/>
     <use xlink:href="#DejaVuSans-72" transform="translate(726.753906 0)"/>
     <use xlink:href="#DejaVuSans-20" transform="translate(767.867188 0)"/>
     <use xlink:href="#DejaVuSans-73" transform="translate(799.654297 0)"/>
     <use xlink:href="#DejaVuSans-74" transform="translate(851.753906 0)"/>
     <use xlink:href="#DejaVuSans-65" transform="translate(890.962891 0)"/>
     <use xlink:href="#DejaVuSans-70" transform="translate(952.486328 0)"/>
     <use xlink:href="#DejaVuSans-20" transform="translate(1015.962891 0)"/>
     <use xlink:href="#DejaVuSans-77" transform="translate(1047.75 0)"/>
     <use xlink:href="#DejaVuSans-69" transform="translate(1129.537109 0)"/>
     <use xlink:href="#DejaVuSans-74" transform="translate(1157.320312 0)"/>
     <use xlink:href="#DejaVuSans-68" transform="translate(1196.529297 0)"/>
     <use xlink:href="#DejaVuSans-20" transform="translate(1259.908203 0)"/>
     <use xlink:href="#DejaVuSans-63" transform="translate(1291.695312 0)"/>
     <use xlink:href="#DejaVuSans-6f" transform="translate(1346.675781 0)"/>
     <use xlink:href="#DejaVuSans-6e" transform="translate(1407.857422 0)"/>
     <use xlink:href="#DejaVuSans-66" transform="translate(1471.236328 0)"/>
     <use xlink:href="#DejaVuSans-69" transform="translate(1506.441406 0)"/>
     <use xlink:href="#DejaVuSans-64" transform="translate(1534.224609 0)"/>
     <use xlink:href="#DejaVuSans-65" transform="translate(1597.701172 0)"/>
     <use xlink:href="#DejaVuSans-6e" transform="translate(1659.224609 0)"/>
     <use xlink:href="#DejaVuSans-63" transform="translate(1722.603516 0)"/>
     <use xlink:href="#DejaVuSans-65" transform="translate(1777.583984 0)"/>
     <use xlink:href="#DejaVuSans-20" transform="translate(1839.107422 0)"/>
     <use xlink:href="#DejaVuSans-69" transform="translate(1870.894531 0)"/>
     <use xlink:href="#DejaVuSans-6e" transform="translate(1898.677734 0)"/>
     <use xlink:href="#DejaVuSans-74" transform="translate(1962.056641 0)"/>
     <use xlink:href="#DejaVuSans-65" transform="translate(2001.265625 0)"/>
     <use xlink:href="#DejaVuSans-72" transform="translate(2062.789062 0)"/>
     <use xlink:href="#DejaVuSans-76" transform="translate(2103.902344 0)"/>
     <use xlink:href="#DejaVuSans-61" transform="translate(2163.082031 0)"/>
     <use xlink:href="#DejaVuSans-6c" transform="translate(2224.361328 0)"/>
     <use xlink:href="#DejaVuSans-20" transform="translate(2252.144531 0)"/>
     <use xlink:href="#DejaVuSans-70" transform="translate(2283.931641 0)"/>
     <use xlink:href="#DejaVuSans-65" transform="translate(2347.408203 0)"/>
     <use xlink:href="#DejaVuSans-72" transform="translate(2408.931641 0)"/>
     <use xlink:href="#DejaVuSans-20" transform="translate(2450.044922 0)"/>
     <use xlink:href="#DejaVuSans-73" transform="translate(2481.832031 0)"/>
     <use xlink:href="#DejaVuSans-69" transform="translate(2533.931641 0)"/>
     <use xlink:href="#DejaVuSans-6d" transform="translate(2561.714844 0)"/>
     <use xlink:href="#DejaVuSans-75" transform="translate(2659.126953 0)"/>
     <use xlink:href="#DejaVuSans-6c" transform="translate(2722.505859 0)"/>
     <use xlink:href="#DejaVuSans-61" transform="translate(2750.289062 0)"/>
     <use xlink:href="#DejaVuSans-74" transform="translate(2811.568359 0)"/>
     <use xlink:href="#DejaVuSans-69" transform="translate(2850.777344 0)"/>
     <use xlink:href="#DejaVuSans-6f" transform="translate(2878.560547 0)"/>
     <use xlink:href="#DejaVuSans-6e" transform="translate(2939.742188 0)"/>
     <use xlink:href="#DejaVuSans-20" transform="translate(3003.121094 0)"/>
     <use xlink:href="#DejaVuSans-73" transform="translate(3034.908203 0)"/>
     <use xlink:href="#DejaVuSans-74" transform="translate(3087.007812 0)"/>
     <use xlink:href="#DejaVuSans-65" transform="translate(3126.216797 0)"/>
     <use xlink:href="#DejaVuSans-70" transform="translate(3187.740234 0)"/>
    </g>
    <!-- Base Product: Green Crack, Recipe size: 8, T0: 50.0 -->
    <g transform="translate(268.031437 37.44) scale(0.14 -0.14)">
     <defs>
      <path id="DejaVuSans-42" d="M 1259 2228 
L 1259 519 
L 2272 519 
Q 2781 519 3026 730 
Q 3272 941 3272 1375 
Q 3272 1813 3026 2020 
Q 2781 2228 2272 2228 
L 1259 2228 
z
M 1259 4147 
L 1259 2741 
L 2194 2741 
Q 2656 2741 2882 2914 
Q 3109 3088 3109 3444 
Q 3109 3797 2882 3972 
Q 2656 4147 2194 4147 
L 1259 4147 
z
M 628 4666 
L 2241 4666 
Q 2963 4666 3353 4366 
Q 3744 4066 3744 3513 
Q 3744 3084 3544 2831 
Q 3344 2578 2956 2516 
Q 3422 2416 3680 2098 
Q 3938 1781 3938 1306 
Q 3938 681 3513 340 
Q 3088 0 2303 0 
L 628 0 
L 628 4666 
z
" transform="scale(0.015625)"/>
      <path id="DejaVuSans-3a" d="M 750 794 
L 1409 794 
L 1409 0 
L 750 0 
L 750 794 
z
M 750 3309 
L 1409 3309 
L 1409 2516 
L 750 2516 
L 750 3309 
z
" transform="scale(0.015625)"/>
      <path id="DejaVuSans-47" d="M 3809 666 
L 3809 1919 
L 2778 1919 
L 2778 2438 
L 4434 2438 
L 4434 434 
Q 4069 175 3628 42 
Q 3188 -91 2688 -91 
Q 1594 -91 976 548 
Q 359 1188 359 2328 
Q 359 3472 976 4111 
Q 1594 4750 2688 4750 
Q 3144 4750 3555 4637 
Q 3966 4525 4313 4306 
L 4313 3634 
Q 3963 3931 3569 4081 
Q 3175 4231 2741 4231 
Q 1884 4231 1454 3753 
Q 1025 3275 1025 2328 
Q 1025 1384 1454 906 
Q 1884 428 2741 428 
Q 3075 428 3337 486 
Q 3600 544 3809 666 
z
" transform="scale(0.015625)"/>
      <path id="DejaVuSans-43" d="M 4122 4306 
L 4122 3641 
Q 3803 3938 3442 4084 
Q 3081 4231 2675 4231 
Q 1875 4231 1450 3742 
Q 1025 3253 1025 2328 
Q 1025 1406 1450 917 
Q 1875 428 2675 428 
Q 3081 428 3442 575 
Q 3803 722 4122 1019 
L 4122 359 
Q 3791 134 3420 21 
Q 3050 -91 2638 -91 
Q 1578 -91 968 557 
Q 359 1206 359 2328 
Q 359 3453 968 4101 
Q 1578 4750 2638 4750 
Q 3056 4750 3426 4639 
Q 3797 4528 4122 4306 
z
" transform="scale(0.015625)"/>
      <path id="DejaVuSans-6b" d="M 581 4863 
L 1159 4863 
L 1159 1991 
L 2875 3500 
L 3609 3500 
L 1753 1863 
L 3688 0 
L 2938 0 
L 1159 1709 
L 1159 0 
L 581 0 
L 581 4863 
z
" transform="scale(0.015625)"/>
      <path id="DejaVuSans-2c" d="M 750 794 
L 1409 794 
L 1409 256 
L 897 -744 
L 494 -744 
L 750 256 
L 750 794 
z
" transform="scale(0.015625)"/>
      <path id="DejaVuSans-52" d="M 2841 2188 
Q 3044 2119 3236 1894 
Q 3428 1669 3622 1275 
L 4263 0 
L 3584 0 
L 2988 1197 
Q 2756 1666 2539 1819 
Q 2322 1972 1947 1972 
L 1259 1972 
L 1259 0 
L 628 0 
L 628 4666 
L 2053 4666 
Q 2853 4666 3247 4331 
Q 3641 3997 3641 3322 
Q 3641 2881 3436 2590 
Q 3231 2300 2841 2188 
z
M 1259 4147 
L 1259 2491 
L 2053 2491 
Q 2509 2491 2742 2702 
Q 2975 2913 2975 3322 
Q 2975 3731 2742 3939 
Q 2509 4147 2053 4147 
L 1259 4147 
z
" transform="scale(0.015625)"/>
      <path id="DejaVuSans-7a" d="M 353 3500 
L 3084 3500 
L 3084 2975 
L 922 459 
L 3084 459 
L 3084 0 
L 275 0 
L 275 525 
L 2438 3041 
L 353 3041 
L 353 3500 
z
" transform="scale(0.015625)"/>
      <path id="DejaVuSans-54" d="M -19 4666 
L 3928 4666 
L 3928 4134 
L 2272 4134 
L 2272 0 
L 1638 0 
L 1638 4134 
L -19 4134 
L -19 4666 
z
" transform="scale(0.015625)"/>
      <path id="DejaVuSans-2e" d="M 684 794 
L 1344 794 
L 1344 0 
L 684 0 
L 684 794 
z
" transform="scale(0.015625)"/>
     </defs>
     <use xlink:href="#DejaVuSans-42"/>
     <use xlink:href="#DejaVuSans-61" transform="translate(68.603516 0)"/>
     <use xlink:href="#DejaVuSans-73" transform="translate(129.882812 0)"/>
     <use xlink:href="#DejaVuSans-65" transform="translate(181.982422 0)"/>
     <use xlink:href="#DejaVuSans-20" transform="translate(243.505859 0)"/>
     <use xlink:href="#DejaVuSans-50" transform="translate(275.292969 0)"/>
     <use xlink:href="#DejaVuSans-72" transform="translate(333.845703 0)"/>
     <use xlink:href="#DejaVuSans-6f" transform="translate(372.708984 0)"/>
     <use xlink:href="#DejaVuSans-64" transform="translate(433.890625 0)"/>
     <use xlink:href="#DejaVuSans-75" transform="translate(497.367188 0)"/>
     <use xlink:href="#DejaVuSans-63" transform="translate(560.746094 0)"/>
     <use xlink:href="#DejaVuSans-74" transform="translate(615.726562 0)"/>
     <use xlink:href="#DejaVuSans-3a" transform="translate(654.935547 0)"/>
     <use xlink:href="#DejaVuSans-20" transform="translate(688.626953 0)"/>
     <use xlink:href="#DejaVuSans-47" transform="translate(720.414062 0)"/>
     <use xlink:href="#DejaVuSans-72" transform="translate(797.904297 0)"/>
     <use xlink:href="#DejaVuSans-65" transform="translate(836.767578 0)"/>
     <use xlink:href="#DejaVuSans-65" transform="translate(898.291016 0)"/>
     <use xlink:href="#DejaVuSans-6e" transform="translate(959.814453 0)"/>
     <use xlink:href="#DejaVuSans-20" transform="translate(1023.193359 0)"/>
     <use xlink:href="#DejaVuSans-43" transform="translate(1054.980469 0)"/>
     <use xlink:href="#DejaVuSans-72" transform="translate(1124.804688 0)"/>
     <use xlink:href="#DejaVuSans-61" transform="translate(1165.917969 0)"/>
     <use xlink:href="#DejaVuSans-63" transform="translate(1227.197266 0)"/>
     <use xlink:href="#DejaVuSans-6b" transform="translate(1282.177734 0)"/>
     <use xlink:href="#DejaVuSans-2c" transform="translate(1340.087891 0)"/>
     <use xlink:href="#DejaVuSans-20" transform="translate(1371.875 0)"/>
     <use xlink:href="#DejaVuSans-52" transform="translate(1403.662109 0)"/>
     <use xlink:href="#DejaVuSans-65" transform="translate(1468.644531 0)"/>
     <use xlink:href="#DejaVuSans-63" transform="translate(1530.167969 0)"/>
     <use xlink:href="#DejaVuSans-69" transform="translate(1585.148438 0)"/>
     <use xlink:href="#DejaVuSans-70" transform="translate(1612.931641 0)"/>
     <use xlink:href="#DejaVuSans-65" transform="translate(1676.408203 0)"/>
     <use xlink:href="#DejaVuSans-20" transform="translate(1737.931641 0)"/>
     <use xlink:href="#DejaVuSans-73" transform="translate(1769.71875 0)"/>
     <use xlink:href="#DejaVuSans-69" transform="translate(1821.818359 0)"/>
     <use xlink:href="#DejaVuSans-7a" transform="translate(1849.601562 0)"/>
     <use xlink:href="#DejaVuSans-65" transform="translate(1902.091797 0)"/>
     <use xlink:href="#DejaVuSans-3a" transform="translate(1963.615234 0)"/>
     <use xlink:href="#DejaVuSans-20" transform="translate(1997.306641 0)"/>
     <use xlink:href="#DejaVuSans-38" transform="translate(2029.09375 0)"/>
     <use xlink:href="#DejaVuSans-2c" transform="translate(2092.716797 0)"/>
     <use xlink:href="#DejaVuSans-20" transform="translate(2124.503906 0)"/>
     <use xlink:href="#DejaVuSans-54" transform="translate(2156.291016 0)"/>
     <use xlink:href="#DejaVuSans-30" transform="translate(2217.375 0)"/>
     <use xlink:href="#DejaVuSans-3a" transform="translate(2280.998047 0)"/>
     <use xlink:href="#DejaVuSans-20" transform="translate(2314.689453 0)"/>
     <use xlink:href="#DejaVuSans-35" transform="translate(2346.476562 0)"/>
     <use xlink:href="#DejaVuSans-30" transform="translate(2410.099609 0)"/>
     <use xlink:href="#DejaVuSans-2e" transform="translate(2473.722656 0)"/>
     <use xlink:href="#DejaVuSans-30" transform="translate(2505.509766 0)"/>
    </g>
   </g>
  </g>
 </g>
 <defs>
  <clipPath id="p1196b5c2a5">
   <rect x="50.87" y="43.44" width="793.996" height="346.6"/>
  </clipPath>
 </defs>
</svg>
