<?xml version="1.0" encoding="utf-8" standalone="no"?>
<!DOCTYPE svg PUBLIC "-//W3C//DTD SVG 1.1//EN"
  "http://www.w3.org/Graphics/SVG/1.1/DTD/svg11.dtd">
<svg xmlns:xlink="http://www.w3.org/1999/xlink" width="864pt" height="432pt" viewBox="0 0 864 432" xmlns="http://www.w3.org/2000/svg" version="1.1">
 <metadata>
  <rdf:RDF xmlns:dc="http://purl.org/dc/elements/1.1/" xmlns:cc="http://creativecommons.org/ns#" xmlns:rdf="http://www.w3.org/1999/02/22-rdf-syntax-ns#">
   <cc:Work>
    <dc:type rdf:resource="http://purl.org/dc/dcmitype/StillImage"/>
    <dc:date>2025-05-24T02:09:40.966206</dc:date>
    <dc:format>image/svg+xml</dc:format>
    <dc:creator>
     <cc:Agent>
      <dc:title>Matplotlib v3.10.3, https://matplotlib.org/</dc:title>
     </cc:Agent>
    </dc:creator>
   </cc:Work>
  </rdf:RDF>
 </metadata>
 <defs>
  <style type="text/css">*{stroke-linejoin: round; stroke-linecap: butt}</style>
 </defs>
 <g id="figure_1">
  <g id="patch_1">
   <path d="M 0 432 
L 864 432 
L 864 0 
L 0 0 
z
" style="fill: #ffffff"/>
  </g>
  <g id="axes_1">
   <g id="patch_2">
    <path d="M 50.87 390.04 
L 844.866 390.04 
L 844.866 43.44 
L 50.87 43.44 
z
" style="fill: #ffffff"/>
   </g>
   <g id="FillBetweenPolyCollection_1">
    <defs>
     <path id="m5797bca5a1" d="M 52.193327 -310.755823 
L 52.193327 -57.714545 
L 54.83998 -58.42067 
L 57.486633 -74.68488 
L 60.133287 -89.843697 
L 62.77994 -104.173139 
L 65.426593 -116.115547 
L 68.073247 -125.679584 
L 70.7199 -134.180107 
L 73.366553 -142.636064 
L 76.013207 -149.202799 
L 78.65986 -155.531391 
L 81.306513 -160.221867 
L 83.953167 -165.472852 
L 86.59982 -169.905258 
L 89.246473 -174.12675 
L 91.893127 -177.863598 
L 94.53978 -181.46948 
L 97.186433 -184.672841 
L 99.833087 -187.638908 
L 102.47974 -190.307758 
L 105.126393 -192.843792 
L 107.773047 -195.421117 
L 110.4197 -197.59986 
L 113.066353 -199.754748 
L 115.713007 -202.153329 
L 118.35966 -204.191485 
L 121.006313 -206.205437 
L 123.652967 -208.045718 
L 126.29962 -209.779497 
L 128.946273 -211.241874 
L 131.592927 -212.542246 
L 134.23958 -213.959786 
L 136.886233 -215.3647 
L 139.532887 -216.660023 
L 142.17954 -218.13731 
L 144.826193 -219.588674 
L 147.472847 -220.57581 
L 150.1195 -221.700291 
L 152.766153 -222.512427 
L 155.412807 -223.397786 
L 158.05946 -224.373516 
L 160.706113 -225.239089 
L 163.352767 -226.036447 
L 165.99942 -226.987234 
L 168.646073 -227.888067 
L 171.292727 -228.601625 
L 173.93938 -229.329985 
L 176.586033 -230.213667 
L 179.232687 -231.031071 
L 181.87934 -231.716747 
L 184.525993 -232.271086 
L 187.172647 -232.925832 
L 189.8193 -233.609527 
L 192.465953 -234.376477 
L 195.112607 -234.912511 
L 197.75926 -235.386381 
L 200.405913 -236.022996 
L 203.052567 -236.554394 
L 205.69922 -237.05262 
L 208.345873 -237.3913 
L 210.992527 -237.872875 
L 213.63918 -238.371297 
L 216.285833 -238.933755 
L 218.932487 -239.303452 
L 221.57914 -239.850935 
L 224.225793 -240.179016 
L 226.872447 -240.61917 
L 229.5191 -240.928466 
L 232.165753 -241.32178 
L 234.812407 -241.789359 
L 237.45906 -242.391671 
L 240.105713 -242.860817 
L 242.752367 -243.129825 
L 245.39902 -243.688843 
L 248.045673 -244.09637 
L 250.692327 -244.432939 
L 253.33898 -244.85161 
L 255.985633 -245.28456 
L 258.632287 -245.688169 
L 261.27894 -245.976896 
L 263.925593 -246.251323 
L 266.572247 -246.505682 
L 269.2189 -247.004517 
L 271.865553 -247.406624 
L 274.512207 -247.687081 
L 277.15886 -247.973958 
L 279.805513 -248.299274 
L 282.452167 -248.425539 
L 285.09882 -248.799916 
L 287.745473 -249.186918 
L 290.392127 -249.533151 
L 293.03878 -249.816698 
L 295.685433 -250.10216 
L 298.332087 -250.469659 
L 300.97874 -250.826515 
L 303.625393 -251.160907 
L 306.272047 -251.363136 
L 308.9187 -251.540138 
L 311.565353 -251.757625 
L 314.212007 -252.066551 
L 316.85866 -252.338758 
L 319.505313 -252.511646 
L 322.151967 -252.590265 
L 324.79862 -252.723888 
L 327.445273 -253.002646 
L 330.091927 -253.134483 
L 332.73858 -253.399616 
L 335.385233 -253.608788 
L 338.031887 -253.820964 
L 340.67854 -254.082528 
L 343.325193 -254.218131 
L 345.971847 -254.479933 
L 348.6185 -254.718163 
L 351.265153 -254.950495 
L 353.911807 -255.083594 
L 356.55846 -255.303454 
L 359.205113 -255.454423 
L 361.851767 -255.837463 
L 364.49842 -256.003082 
L 367.145073 -256.156032 
L 369.791727 -256.271523 
L 372.43838 -256.488792 
L 375.085033 -256.53831 
L 377.731687 -256.695962 
L 380.37834 -256.786944 
L 383.024993 -256.887504 
L 385.671647 -257.06703 
L 388.3183 -257.263491 
L 390.964953 -257.408475 
L 393.611607 -257.579927 
L 396.25826 -257.764416 
L 398.904913 -257.909335 
L 401.551567 -257.971586 
L 404.19822 -258.096415 
L 406.844873 -258.339782 
L 409.491527 -258.341131 
L 412.13818 -258.492493 
L 414.784833 -258.705126 
L 417.431487 -258.916583 
L 420.07814 -259.045395 
L 422.724793 -259.208162 
L 425.371447 -259.360873 
L 428.0181 -259.627181 
L 430.664753 -259.758148 
L 433.311407 -259.860492 
L 435.95806 -260.004105 
L 438.604713 -260.138206 
L 441.251367 -260.335429 
L 443.89802 -260.430851 
L 446.544673 -260.535437 
L 449.191327 -260.682641 
L 451.83798 -260.740822 
L 454.484633 -260.877883 
L 457.131287 -261.071515 
L 459.77794 -261.163455 
L 462.424593 -261.196017 
L 465.071247 -261.42578 
L 467.7179 -261.498522 
L 470.364553 -261.555397 
L 473.011207 -261.729917 
L 475.65786 -261.933039 
L 478.304513 -262.153965 
L 480.951167 -262.202873 
L 483.59782 -262.276573 
L 486.244473 -262.400292 
L 488.891127 -262.548149 
L 491.53778 -262.678049 
L 494.184433 -262.820203 
L 496.831087 -262.840576 
L 499.47774 -262.977703 
L 502.124393 -263.015271 
L 504.771047 -263.14552 
L 507.4177 -263.243445 
L 510.064353 -263.347204 
L 512.711007 -263.447785 
L 515.35766 -263.622589 
L 518.004313 -263.727502 
L 520.650967 -263.831979 
L 523.29762 -263.983101 
L 525.944273 -264.028113 
L 528.590927 -264.153116 
L 531.23758 -264.161431 
L 533.884233 -264.303171 
L 536.530887 -264.34444 
L 539.17754 -264.342089 
L 541.824193 -264.494147 
L 544.470847 -264.543056 
L 547.1175 -264.680661 
L 549.764153 -264.812172 
L 552.410807 -264.903176 
L 555.05746 -265.014662 
L 557.704113 -265.135377 
L 560.350767 -265.267889 
L 562.99742 -265.370233 
L 565.644073 -265.469465 
L 568.290727 -265.614514 
L 570.93738 -265.662203 
L 573.584033 -265.673957 
L 576.230687 -265.738929 
L 578.87734 -265.805163 
L 581.523993 -265.901848 
L 584.170647 -266.007784 
L 586.8173 -266.106232 
L 589.463953 -266.193144 
L 592.110607 -266.283452 
L 594.75726 -266.397071 
L 597.403913 -266.44994 
L 600.050567 -266.55679 
L 602.69722 -266.697704 
L 605.343873 -266.837704 
L 607.990527 -266.93404 
L 610.63718 -267.069774 
L 613.283833 -267.186527 
L 615.930487 -267.273787 
L 618.57714 -267.357239 
L 621.223793 -267.382422 
L 623.870447 -267.542316 
L 626.5171 -267.595055 
L 629.163753 -267.704212 
L 631.810407 -267.856705 
L 634.45706 -267.977899 
L 637.103713 -268.100573 
L 639.750367 -268.267084 
L 642.39702 -268.275746 
L 645.043673 -268.36699 
L 647.690327 -268.426063 
L 650.33698 -268.524402 
L 652.983633 -268.572593 
L 655.630287 -268.661572 
L 658.27694 -268.698248 
L 660.923593 -268.779305 
L 663.570247 -268.871245 
L 666.2169 -268.962336 
L 668.863553 -269.046876 
L 671.510207 -269.102728 
L 674.15686 -269.107603 
L 676.803513 -269.140601 
L 679.450167 -269.279904 
L 682.09682 -269.36218 
L 684.743473 -269.396636 
L 687.390127 -269.497347 
L 690.03678 -269.550674 
L 692.683433 -269.651059 
L 695.330087 -269.699054 
L 697.97674 -269.776781 
L 700.623393 -269.859252 
L 703.270047 -269.999317 
L 705.9167 -270.004628 
L 708.563353 -270.061263 
L 711.210007 -270.174404 
L 713.85666 -270.225554 
L 716.503313 -270.358414 
L 719.149967 -270.436337 
L 721.79662 -270.485071 
L 724.443273 -270.579514 
L 727.089927 -270.624527 
L 729.73658 -270.737232 
L 732.383233 -270.770643 
L 735.029887 -270.832915 
L 737.67654 -270.945359 
L 740.323193 -271.097744 
L 742.969847 -271.134028 
L 745.6165 -271.243794 
L 748.263153 -271.297687 
L 750.909807 -271.409761 
L 753.55646 -271.410261 
L 756.203113 -271.485202 
L 758.849767 -271.548759 
L 761.49642 -271.657872 
L 764.143073 -271.703168 
L 766.789727 -271.75558 
L 769.43638 -271.88202 
L 772.083033 -271.986519 
L 774.729687 -272.058717 
L 777.37634 -272.097874 
L 780.022993 -272.191947 
L 782.669647 -272.209817 
L 785.3163 -272.27061 
L 787.962953 -272.355541 
L 790.609607 -272.417531 
L 793.25626 -272.471925 
L 795.902913 -272.55148 
L 798.549567 -272.612904 
L 801.19622 -272.610227 
L 803.842873 -272.619477 
L 806.489527 -272.659657 
L 809.13618 -272.74128 
L 811.782833 -272.795064 
L 814.429487 -272.834787 
L 817.07614 -272.913254 
L 819.722793 -273.026503 
L 822.369447 -273.080266 
L 825.0161 -273.132243 
L 827.662753 -273.235197 
L 830.309407 -273.352385 
L 832.95606 -273.380942 
L 835.602713 -273.410631 
L 838.249367 -273.502833 
L 840.89602 -273.554331 
L 843.542673 -273.589571 
L 843.542673 -372.805455 
L 843.542673 -372.805455 
L 840.89602 -372.764926 
L 838.249367 -372.752171 
L 835.602713 -372.766667 
L 832.95606 -372.709771 
L 830.309407 -372.664671 
L 827.662753 -372.648347 
L 825.0161 -372.642035 
L 822.369447 -372.618484 
L 819.722793 -372.542085 
L 817.07614 -372.543695 
L 814.429487 -372.542215 
L 811.782833 -372.502122 
L 809.13618 -372.45785 
L 806.489527 -372.465512 
L 803.842873 -372.392769 
L 801.19622 -372.323466 
L 798.549567 -372.229262 
L 795.902913 -372.205494 
L 793.25626 -372.210021 
L 790.609607 -372.199791 
L 787.962953 -372.163877 
L 785.3163 -372.152167 
L 782.669647 -372.123218 
L 780.022993 -372.057354 
L 777.37634 -372.082733 
L 774.729687 -372.044207 
L 772.083033 -372.034282 
L 769.43638 -372.063622 
L 766.789727 -372.064798 
L 764.143073 -372.031757 
L 761.49642 -371.968113 
L 758.849767 -371.939817 
L 756.203113 -371.937379 
L 753.55646 -371.888666 
L 750.909807 -371.800775 
L 748.263153 -371.791589 
L 745.6165 -371.76695 
L 742.969847 -371.767429 
L 740.323193 -371.686982 
L 737.67654 -371.693381 
L 735.029887 -371.687504 
L 732.383233 -371.647759 
L 729.73658 -371.58677 
L 727.089927 -371.599134 
L 724.443273 -371.546285 
L 721.79662 -371.550073 
L 719.149967 -371.476503 
L 716.503313 -371.432971 
L 713.85666 -371.444551 
L 711.210007 -371.385739 
L 708.563353 -371.39105 
L 705.9167 -371.346037 
L 703.270047 -371.258712 
L 700.623393 -371.246305 
L 697.97674 -371.190932 
L 695.330087 -371.200161 
L 692.683433 -371.167729 
L 690.03678 -371.152014 
L 687.390127 -371.104216 
L 684.743473 -371.062425 
L 682.09682 -371.00814 
L 679.450167 -370.973228 
L 676.803513 -370.969701 
L 674.15686 -370.874453 
L 671.510207 -370.782905 
L 668.863553 -370.714472 
L 666.2169 -370.671593 
L 663.570247 -370.674422 
L 660.923593 -370.661755 
L 658.27694 -370.595673 
L 655.630287 -370.527066 
L 652.983633 -370.50395 
L 650.33698 -370.439 
L 647.690327 -370.410225 
L 645.043673 -370.357987 
L 642.39702 -370.329952 
L 639.750367 -370.197484 
L 637.103713 -370.220207 
L 634.45706 -370.192739 
L 631.810407 -370.165966 
L 629.163753 -370.1718 
L 626.5171 -370.139107 
L 623.870447 -370.103889 
L 621.223793 -370.107285 
L 618.57714 -370.049996 
L 615.930487 -370.00629 
L 613.283833 -369.966893 
L 610.63718 -369.906079 
L 607.990527 -369.934244 
L 605.343873 -369.909475 
L 602.69722 -369.879568 
L 600.050567 -369.860153 
L 597.403913 -369.794158 
L 594.75726 -369.664911 
L 592.110607 -369.649413 
L 589.463953 -369.600265 
L 586.8173 -369.521385 
L 584.170647 -369.47437 
L 581.523993 -369.443332 
L 578.87734 -369.396447 
L 576.230687 -369.280042 
L 573.584033 -369.228892 
L 570.93738 -369.106479 
L 568.290727 -369.033998 
L 565.644073 -369.007357 
L 562.99742 -368.9374 
L 560.350767 -368.79431 
L 557.704113 -368.742768 
L 555.05746 -368.680081 
L 552.410807 -368.659491 
L 549.764153 -368.59441 
L 547.1175 -368.582047 
L 544.470847 -368.529112 
L 541.824193 -368.442396 
L 539.17754 -368.409703 
L 536.530887 -368.291165 
L 533.884233 -368.187732 
L 531.23758 -368.144026 
L 528.590927 -367.996234 
L 525.944273 -367.955053 
L 523.29762 -367.842609 
L 520.650967 -367.836645 
L 518.004313 -367.764817 
L 515.35766 -367.653374 
L 512.711007 -367.647149 
L 510.064353 -367.558039 
L 507.4177 -367.457131 
L 504.771047 -367.352044 
L 502.124393 -367.274644 
L 499.47774 -367.112748 
L 496.831087 -367.057244 
L 494.184433 -366.908147 
L 491.53778 -366.88564 
L 488.891127 -366.806151 
L 486.244473 -366.739982 
L 483.59782 -366.675075 
L 480.951167 -366.57321 
L 478.304513 -366.41484 
L 475.65786 -366.430076 
L 473.011207 -366.414535 
L 470.364553 -366.39895 
L 467.7179 -366.298434 
L 465.071247 -366.210282 
L 462.424593 -366.204884 
L 459.77794 -366.042378 
L 457.131287 -365.922142 
L 454.484633 -365.855102 
L 451.83798 -365.772261 
L 449.191327 -365.650022 
L 446.544673 -365.569662 
L 443.89802 -365.516944 
L 441.251367 -365.369065 
L 438.604713 -365.370633 
L 435.95806 -365.243867 
L 433.311407 -365.125503 
L 430.664753 -364.963606 
L 428.0181 -364.852469 
L 425.371447 -364.857475 
L 422.724793 -364.78125 
L 420.07814 -364.706723 
L 417.431487 -364.59885 
L 414.784833 -364.555492 
L 412.13818 -364.444746 
L 409.491527 -364.362165 
L 406.844873 -364.119778 
L 404.19822 -364.08073 
L 401.551567 -363.981389 
L 398.904913 -363.790457 
L 396.25826 -363.657074 
L 393.611607 -363.600178 
L 390.964953 -363.459351 
L 388.3183 -363.398798 
L 385.671647 -363.347125 
L 383.024993 -363.274557 
L 380.37834 -363.108656 
L 377.731687 -362.914545 
L 375.085033 -362.804888 
L 372.43838 -362.550399 
L 369.791727 -362.468036 
L 367.145073 -362.255337 
L 364.49842 -362.123979 
L 361.851767 -361.992882 
L 359.205113 -362.047253 
L 356.55846 -361.908647 
L 353.911807 -361.854776 
L 351.265153 -361.717236 
L 348.6185 -361.595911 
L 345.971847 -361.53538 
L 343.325193 -361.442874 
L 340.67854 -361.283328 
L 338.031887 -361.220577 
L 335.385233 -361.145527 
L 332.73858 -361.028556 
L 330.091927 -360.912086 
L 327.445273 -360.690267 
L 324.79862 -360.576714 
L 322.151967 -360.39895 
L 319.505313 -360.173366 
L 316.85866 -360.040919 
L 314.212007 -359.878152 
L 311.565353 -359.805258 
L 308.9187 -359.677186 
L 306.272047 -359.510719 
L 303.625393 -359.309752 
L 300.97874 -359.216485 
L 298.332087 -359.158521 
L 295.685433 -359.115773 
L 293.03878 -358.959383 
L 290.392127 -358.775699 
L 287.745473 -358.642861 
L 285.09882 -358.492022 
L 282.452167 -358.384105 
L 279.805513 -358.070869 
L 277.15886 -357.90906 
L 274.512207 -357.72148 
L 271.865553 -357.447553 
L 269.2189 -357.387 
L 266.572247 -357.343207 
L 263.925593 -357.143002 
L 261.27894 -356.989986 
L 258.632287 -356.773697 
L 255.985633 -356.636853 
L 253.33898 -356.487908 
L 250.692327 -356.363166 
L 248.045673 -356.134861 
L 245.39902 -355.915176 
L 242.752367 -355.780205 
L 240.105713 -355.52935 
L 237.45906 -355.443592 
L 234.812407 -355.373374 
L 232.165753 -355.252572 
L 229.5191 -355.023506 
L 226.872447 -354.784035 
L 224.225793 -354.536772 
L 221.57914 -354.274948 
L 218.932487 -354.160959 
L 216.285833 -353.856865 
L 213.63918 -353.609667 
L 210.992527 -353.439695 
L 208.345873 -353.116273 
L 205.69922 -352.73184 
L 203.052567 -352.437214 
L 200.405913 -352.215896 
L 197.75926 -352.095225 
L 195.112607 -351.954986 
L 192.465953 -351.689548 
L 189.8193 -351.609319 
L 187.172647 -351.465205 
L 184.525993 -351.271596 
L 181.87934 -350.924557 
L 179.232687 -350.706983 
L 176.586033 -350.64434 
L 173.93938 -350.451035 
L 171.292727 -350.227519 
L 168.646073 -350.016279 
L 165.99942 -349.824455 
L 163.352767 -349.601265 
L 160.706113 -349.280716 
L 158.05946 -348.948935 
L 155.412807 -348.59332 
L 152.766153 -348.188471 
L 150.1195 -347.702477 
L 147.472847 -347.450905 
L 144.826193 -346.982977 
L 142.17954 -346.724526 
L 139.532887 -346.674138 
L 136.886233 -346.356853 
L 134.23958 -346.018042 
L 131.592927 -345.716407 
L 128.946273 -345.223906 
L 126.29962 -344.73369 
L 123.652967 -344.502686 
L 121.006313 -344.171058 
L 118.35966 -343.976577 
L 115.713007 -343.618155 
L 113.066353 -343.305376 
L 110.4197 -342.747076 
L 107.773047 -342.16801 
L 105.126393 -341.51568 
L 102.47974 -341.079161 
L 99.833087 -340.259906 
L 97.186433 -339.601134 
L 94.53978 -338.938225 
L 91.893127 -338.520338 
L 89.246473 -338.090022 
L 86.59982 -337.340571 
L 83.953167 -336.474019 
L 81.306513 -335.830309 
L 78.65986 -334.386802 
L 76.013207 -333.453385 
L 73.366553 -331.992836 
L 70.7199 -331.081663 
L 68.073247 -329.183768 
L 65.426593 -327.14387 
L 62.77994 -324.857733 
L 60.133287 -322.6313 
L 57.486633 -317.82332 
L 54.83998 -310.718886 
L 52.193327 -310.755823 
z
" style="stroke: #0000ff; stroke-opacity: 0.2"/>
    </defs>
    <g clip-path="url(#pf9498387b0)">
     <use xlink:href="#m5797bca5a1" x="0" y="432" style="fill: #0000ff; fill-opacity: 0.2; stroke: #0000ff; stroke-opacity: 0.2"/>
    </g>
   </g>
   <g id="matplotlib.axis_1">
    <g id="xtick_1">
     <g id="line2d_1">
      <defs>
       <path id="md7937985fa" d="M 0 0 
L 0 3.5 
" style="stroke: #000000; stroke-width: 0.8"/>
      </defs>
      <g>
       <use xlink:href="#md7937985fa" x="181.87934" y="390.04" style="stroke: #000000; stroke-width: 0.8"/>
      </g>
     </g>
     <g id="text_1">
      <!-- 50 -->
      <g transform="translate(175.51684 404.638438) scale(0.1 -0.1)">
       <defs>
        <path id="DejaVuSans-35" d="M 691 4666 
L 3169 4666 
L 3169 4134 
L 1269 4134 
L 1269 2991 
Q 1406 3038 1543 3061 
Q 1681 3084 1819 3084 
Q 2600 3084 3056 2656 
Q 3513 2228 3513 1497 
Q 3513 744 3044 326 
Q 2575 -91 1722 -91 
Q 1428 -91 1123 -41 
Q 819 9 494 109 
L 494 744 
Q 775 591 1075 516 
Q 1375 441 1709 441 
Q 2250 441 2565 725 
Q 2881 1009 2881 1497 
Q 2881 1984 2565 2268 
Q 2250 2553 1709 2553 
Q 1456 2553 1204 2497 
Q 953 2441 691 2322 
L 691 4666 
z
" transform="scale(0.015625)"/>
        <path id="DejaVuSans-30" d="M 2034 4250 
Q 1547 4250 1301 3770 
Q 1056 3291 1056 2328 
Q 1056 1369 1301 889 
Q 1547 409 2034 409 
Q 2525 409 2770 889 
Q 3016 1369 3016 2328 
Q 3016 3291 2770 3770 
Q 2525 4250 2034 4250 
z
M 2034 4750 
Q 2819 4750 3233 4129 
Q 3647 3509 3647 2328 
Q 3647 1150 3233 529 
Q 2819 -91 2034 -91 
Q 1250 -91 836 529 
Q 422 1150 422 2328 
Q 422 3509 836 4129 
Q 1250 4750 2034 4750 
z
" transform="scale(0.015625)"/>
       </defs>
       <use xlink:href="#DejaVuSans-35"/>
       <use xlink:href="#DejaVuSans-30" transform="translate(63.623047 0)"/>
      </g>
     </g>
    </g>
    <g id="xtick_2">
     <g id="line2d_2">
      <g>
       <use xlink:href="#md7937985fa" x="314.212007" y="390.04" style="stroke: #000000; stroke-width: 0.8"/>
      </g>
     </g>
     <g id="text_2">
      <!-- 100 -->
      <g transform="translate(304.668257 404.638438) scale(0.1 -0.1)">
       <defs>
        <path id="DejaVuSans-31" d="M 794 531 
L 1825 531 
L 1825 4091 
L 703 3866 
L 703 4441 
L 1819 4666 
L 2450 4666 
L 2450 531 
L 3481 531 
L 3481 0 
L 794 0 
L 794 531 
z
" transform="scale(0.015625)"/>
       </defs>
       <use xlink:href="#DejaVuSans-31"/>
       <use xlink:href="#DejaVuSans-30" transform="translate(63.623047 0)"/>
       <use xlink:href="#DejaVuSans-30" transform="translate(127.246094 0)"/>
      </g>
     </g>
    </g>
    <g id="xtick_3">
     <g id="line2d_3">
      <g>
       <use xlink:href="#md7937985fa" x="446.544673" y="390.04" style="stroke: #000000; stroke-width: 0.8"/>
      </g>
     </g>
     <g id="text_3">
      <!-- 150 -->
      <g transform="translate(437.000923 404.638438) scale(0.1 -0.1)">
       <use xlink:href="#DejaVuSans-31"/>
       <use xlink:href="#DejaVuSans-35" transform="translate(63.623047 0)"/>
       <use xlink:href="#DejaVuSans-30" transform="translate(127.246094 0)"/>
      </g>
     </g>
    </g>
    <g id="xtick_4">
     <g id="line2d_4">
      <g>
       <use xlink:href="#md7937985fa" x="578.87734" y="390.04" style="stroke: #000000; stroke-width: 0.8"/>
      </g>
     </g>
     <g id="text_4">
      <!-- 200 -->
      <g transform="translate(569.33359 404.638438) scale(0.1 -0.1)">
       <defs>
        <path id="DejaVuSans-32" d="M 1228 531 
L 3431 531 
L 3431 0 
L 469 0 
L 469 531 
Q 828 903 1448 1529 
Q 2069 2156 2228 2338 
Q 2531 2678 2651 2914 
Q 2772 3150 2772 3378 
Q 2772 3750 2511 3984 
Q 2250 4219 1831 4219 
Q 1534 4219 1204 4116 
Q 875 4013 500 3803 
L 500 4441 
Q 881 4594 1212 4672 
Q 1544 4750 1819 4750 
Q 2544 4750 2975 4387 
Q 3406 4025 3406 3419 
Q 3406 3131 3298 2873 
Q 3191 2616 2906 2266 
Q 2828 2175 2409 1742 
Q 1991 1309 1228 531 
z
" transform="scale(0.015625)"/>
       </defs>
       <use xlink:href="#DejaVuSans-32"/>
       <use xlink:href="#DejaVuSans-30" transform="translate(63.623047 0)"/>
       <use xlink:href="#DejaVuSans-30" transform="translate(127.246094 0)"/>
      </g>
     </g>
    </g>
    <g id="xtick_5">
     <g id="line2d_5">
      <g>
       <use xlink:href="#md7937985fa" x="711.210007" y="390.04" style="stroke: #000000; stroke-width: 0.8"/>
      </g>
     </g>
     <g id="text_5">
      <!-- 250 -->
      <g transform="translate(701.666257 404.638438) scale(0.1 -0.1)">
       <use xlink:href="#DejaVuSans-32"/>
       <use xlink:href="#DejaVuSans-35" transform="translate(63.623047 0)"/>
       <use xlink:href="#DejaVuSans-30" transform="translate(127.246094 0)"/>
      </g>
     </g>
    </g>
    <g id="xtick_6">
     <g id="line2d_6">
      <g>
       <use xlink:href="#md7937985fa" x="843.542673" y="390.04" style="stroke: #000000; stroke-width: 0.8"/>
      </g>
     </g>
     <g id="text_6">
      <!-- 300 -->
      <g transform="translate(833.998923 404.638438) scale(0.1 -0.1)">
       <defs>
        <path id="DejaVuSans-33" d="M 2597 2516 
Q 3050 2419 3304 2112 
Q 3559 1806 3559 1356 
Q 3559 666 3084 287 
Q 2609 -91 1734 -91 
Q 1441 -91 1130 -33 
Q 819 25 488 141 
L 488 750 
Q 750 597 1062 519 
Q 1375 441 1716 441 
Q 2309 441 2620 675 
Q 2931 909 2931 1356 
Q 2931 1769 2642 2001 
Q 2353 2234 1838 2234 
L 1294 2234 
L 1294 2753 
L 1863 2753 
Q 2328 2753 2575 2939 
Q 2822 3125 2822 3475 
Q 2822 3834 2567 4026 
Q 2313 4219 1838 4219 
Q 1578 4219 1281 4162 
Q 984 4106 628 3988 
L 628 4550 
Q 988 4650 1302 4700 
Q 1616 4750 1894 4750 
Q 2613 4750 3031 4423 
Q 3450 4097 3450 3541 
Q 3450 3153 3228 2886 
Q 3006 2619 2597 2516 
z
" transform="scale(0.015625)"/>
       </defs>
       <use xlink:href="#DejaVuSans-33"/>
       <use xlink:href="#DejaVuSans-30" transform="translate(63.623047 0)"/>
       <use xlink:href="#DejaVuSans-30" transform="translate(127.246094 0)"/>
      </g>
     </g>
    </g>
    <g id="text_7">
     <!-- Step -->
     <g transform="translate(436.482844 418.316562) scale(0.1 -0.1)">
      <defs>
       <path id="DejaVuSans-53" d="M 3425 4513 
L 3425 3897 
Q 3066 4069 2747 4153 
Q 2428 4238 2131 4238 
Q 1616 4238 1336 4038 
Q 1056 3838 1056 3469 
Q 1056 3159 1242 3001 
Q 1428 2844 1947 2747 
L 2328 2669 
Q 3034 2534 3370 2195 
Q 3706 1856 3706 1288 
Q 3706 609 3251 259 
Q 2797 -91 1919 -91 
Q 1588 -91 1214 -16 
Q 841 59 441 206 
L 441 856 
Q 825 641 1194 531 
Q 1563 422 1919 422 
Q 2459 422 2753 634 
Q 3047 847 3047 1241 
Q 3047 1584 2836 1778 
Q 2625 1972 2144 2069 
L 1759 2144 
Q 1053 2284 737 2584 
Q 422 2884 422 3419 
Q 422 4038 858 4394 
Q 1294 4750 2059 4750 
Q 2388 4750 2728 4690 
Q 3069 4631 3425 4513 
z
" transform="scale(0.015625)"/>
       <path id="DejaVuSans-74" d="M 1172 4494 
L 1172 3500 
L 2356 3500 
L 2356 3053 
L 1172 3053 
L 1172 1153 
Q 1172 725 1289 603 
Q 1406 481 1766 481 
L 2356 481 
L 2356 0 
L 1766 0 
Q 1100 0 847 248 
Q 594 497 594 1153 
L 594 3053 
L 172 3053 
L 172 3500 
L 594 3500 
L 594 4494 
L 1172 4494 
z
" transform="scale(0.015625)"/>
       <path id="DejaVuSans-65" d="M 3597 1894 
L 3597 1613 
L 953 1613 
Q 991 1019 1311 708 
Q 1631 397 2203 397 
Q 2534 397 2845 478 
Q 3156 559 3463 722 
L 3463 178 
Q 3153 47 2828 -22 
Q 2503 -91 2169 -91 
Q 1331 -91 842 396 
Q 353 884 353 1716 
Q 353 2575 817 3079 
Q 1281 3584 2069 3584 
Q 2775 3584 3186 3129 
Q 3597 2675 3597 1894 
z
M 3022 2063 
Q 3016 2534 2758 2815 
Q 2500 3097 2075 3097 
Q 1594 3097 1305 2825 
Q 1016 2553 972 2059 
L 3022 2063 
z
" transform="scale(0.015625)"/>
       <path id="DejaVuSans-70" d="M 1159 525 
L 1159 -1331 
L 581 -1331 
L 581 3500 
L 1159 3500 
L 1159 2969 
Q 1341 3281 1617 3432 
Q 1894 3584 2278 3584 
Q 2916 3584 3314 3078 
Q 3713 2572 3713 1747 
Q 3713 922 3314 415 
Q 2916 -91 2278 -91 
Q 1894 -91 1617 61 
Q 1341 213 1159 525 
z
M 3116 1747 
Q 3116 2381 2855 2742 
Q 2594 3103 2138 3103 
Q 1681 3103 1420 2742 
Q 1159 2381 1159 1747 
Q 1159 1113 1420 752 
Q 1681 391 2138 391 
Q 2594 391 2855 752 
Q 3116 1113 3116 1747 
z
" transform="scale(0.015625)"/>
      </defs>
      <use xlink:href="#DejaVuSans-53"/>
      <use xlink:href="#DejaVuSans-74" transform="translate(63.476562 0)"/>
      <use xlink:href="#DejaVuSans-65" transform="translate(102.685547 0)"/>
      <use xlink:href="#DejaVuSans-70" transform="translate(164.208984 0)"/>
     </g>
    </g>
   </g>
   <g id="matplotlib.axis_2">
    <g id="ytick_1">
     <g id="line2d_7">
      <defs>
       <path id="m326ddb0308" d="M 0 0 
L -3.5 0 
" style="stroke: #000000; stroke-width: 0.8"/>
      </defs>
      <g>
       <use xlink:href="#m326ddb0308" x="50.87" y="377.473307" style="stroke: #000000; stroke-width: 0.8"/>
      </g>
     </g>
     <g id="text_8">
      <!-- 20 -->
      <g transform="translate(31.145 381.272526) scale(0.1 -0.1)">
       <use xlink:href="#DejaVuSans-32"/>
       <use xlink:href="#DejaVuSans-30" transform="translate(63.623047 0)"/>
      </g>
     </g>
    </g>
    <g id="ytick_2">
     <g id="line2d_8">
      <g>
       <use xlink:href="#m326ddb0308" x="50.87" y="320.414774" style="stroke: #000000; stroke-width: 0.8"/>
      </g>
     </g>
     <g id="text_9">
      <!-- 40 -->
      <g transform="translate(31.145 324.213992) scale(0.1 -0.1)">
       <defs>
        <path id="DejaVuSans-34" d="M 2419 4116 
L 825 1625 
L 2419 1625 
L 2419 4116 
z
M 2253 4666 
L 3047 4666 
L 3047 1625 
L 3713 1625 
L 3713 1100 
L 3047 1100 
L 3047 0 
L 2419 0 
L 2419 1100 
L 313 1100 
L 313 1709 
L 2253 4666 
z
" transform="scale(0.015625)"/>
       </defs>
       <use xlink:href="#DejaVuSans-34"/>
       <use xlink:href="#DejaVuSans-30" transform="translate(63.623047 0)"/>
      </g>
     </g>
    </g>
    <g id="ytick_3">
     <g id="line2d_9">
      <g>
       <use xlink:href="#m326ddb0308" x="50.87" y="263.35624" style="stroke: #000000; stroke-width: 0.8"/>
      </g>
     </g>
     <g id="text_10">
      <!-- 60 -->
      <g transform="translate(31.145 267.155459) scale(0.1 -0.1)">
       <defs>
        <path id="DejaVuSans-36" d="M 2113 2584 
Q 1688 2584 1439 2293 
Q 1191 2003 1191 1497 
Q 1191 994 1439 701 
Q 1688 409 2113 409 
Q 2538 409 2786 701 
Q 3034 994 3034 1497 
Q 3034 2003 2786 2293 
Q 2538 2584 2113 2584 
z
M 3366 4563 
L 3366 3988 
Q 3128 4100 2886 4159 
Q 2644 4219 2406 4219 
Q 1781 4219 1451 3797 
Q 1122 3375 1075 2522 
Q 1259 2794 1537 2939 
Q 1816 3084 2150 3084 
Q 2853 3084 3261 2657 
Q 3669 2231 3669 1497 
Q 3669 778 3244 343 
Q 2819 -91 2113 -91 
Q 1303 -91 875 529 
Q 447 1150 447 2328 
Q 447 3434 972 4092 
Q 1497 4750 2381 4750 
Q 2619 4750 2861 4703 
Q 3103 4656 3366 4563 
z
" transform="scale(0.015625)"/>
       </defs>
       <use xlink:href="#DejaVuSans-36"/>
       <use xlink:href="#DejaVuSans-30" transform="translate(63.623047 0)"/>
      </g>
     </g>
    </g>
    <g id="ytick_4">
     <g id="line2d_10">
      <g>
       <use xlink:href="#m326ddb0308" x="50.87" y="206.297707" style="stroke: #000000; stroke-width: 0.8"/>
      </g>
     </g>
     <g id="text_11">
      <!-- 80 -->
      <g transform="translate(31.145 210.096925) scale(0.1 -0.1)">
       <defs>
        <path id="DejaVuSans-38" d="M 2034 2216 
Q 1584 2216 1326 1975 
Q 1069 1734 1069 1313 
Q 1069 891 1326 650 
Q 1584 409 2034 409 
Q 2484 409 2743 651 
Q 3003 894 3003 1313 
Q 3003 1734 2745 1975 
Q 2488 2216 2034 2216 
z
M 1403 2484 
Q 997 2584 770 2862 
Q 544 3141 544 3541 
Q 544 4100 942 4425 
Q 1341 4750 2034 4750 
Q 2731 4750 3128 4425 
Q 3525 4100 3525 3541 
Q 3525 3141 3298 2862 
Q 3072 2584 2669 2484 
Q 3125 2378 3379 2068 
Q 3634 1759 3634 1313 
Q 3634 634 3220 271 
Q 2806 -91 2034 -91 
Q 1263 -91 848 271 
Q 434 634 434 1313 
Q 434 1759 690 2068 
Q 947 2378 1403 2484 
z
M 1172 3481 
Q 1172 3119 1398 2916 
Q 1625 2713 2034 2713 
Q 2441 2713 2670 2916 
Q 2900 3119 2900 3481 
Q 2900 3844 2670 4047 
Q 2441 4250 2034 4250 
Q 1625 4250 1398 4047 
Q 1172 3844 1172 3481 
z
" transform="scale(0.015625)"/>
       </defs>
       <use xlink:href="#DejaVuSans-38"/>
       <use xlink:href="#DejaVuSans-30" transform="translate(63.623047 0)"/>
      </g>
     </g>
    </g>
    <g id="ytick_5">
     <g id="line2d_11">
      <g>
       <use xlink:href="#m326ddb0308" x="50.87" y="149.239173" style="stroke: #000000; stroke-width: 0.8"/>
      </g>
     </g>
     <g id="text_12">
      <!-- 100 -->
      <g transform="translate(24.7825 153.038392) scale(0.1 -0.1)">
       <use xlink:href="#DejaVuSans-31"/>
       <use xlink:href="#DejaVuSans-30" transform="translate(63.623047 0)"/>
       <use xlink:href="#DejaVuSans-30" transform="translate(127.246094 0)"/>
      </g>
     </g>
    </g>
    <g id="ytick_6">
     <g id="line2d_12">
      <g>
       <use xlink:href="#m326ddb0308" x="50.87" y="92.18064" style="stroke: #000000; stroke-width: 0.8"/>
      </g>
     </g>
     <g id="text_13">
      <!-- 120 -->
      <g transform="translate(24.7825 95.979858) scale(0.1 -0.1)">
       <use xlink:href="#DejaVuSans-31"/>
       <use xlink:href="#DejaVuSans-32" transform="translate(63.623047 0)"/>
       <use xlink:href="#DejaVuSans-30" transform="translate(127.246094 0)"/>
      </g>
     </g>
    </g>
    <g id="text_14">
     <!-- Profit -->
     <g transform="translate(18.702813 229.779063) rotate(-90) scale(0.1 -0.1)">
      <defs>
       <path id="DejaVuSans-50" d="M 1259 4147 
L 1259 2394 
L 2053 2394 
Q 2494 2394 2734 2622 
Q 2975 2850 2975 3272 
Q 2975 3691 2734 3919 
Q 2494 4147 2053 4147 
L 1259 4147 
z
M 628 4666 
L 2053 4666 
Q 2838 4666 3239 4311 
Q 3641 3956 3641 3272 
Q 3641 2581 3239 2228 
Q 2838 1875 2053 1875 
L 1259 1875 
L 1259 0 
L 628 0 
L 628 4666 
z
" transform="scale(0.015625)"/>
       <path id="DejaVuSans-72" d="M 2631 2963 
Q 2534 3019 2420 3045 
Q 2306 3072 2169 3072 
Q 1681 3072 1420 2755 
Q 1159 2438 1159 1844 
L 1159 0 
L 581 0 
L 581 3500 
L 1159 3500 
L 1159 2956 
Q 1341 3275 1631 3429 
Q 1922 3584 2338 3584 
Q 2397 3584 2469 3576 
Q 2541 3569 2628 3553 
L 2631 2963 
z
" transform="scale(0.015625)"/>
       <path id="DejaVuSans-6f" d="M 1959 3097 
Q 1497 3097 1228 2736 
Q 959 2375 959 1747 
Q 959 1119 1226 758 
Q 1494 397 1959 397 
Q 2419 397 2687 759 
Q 2956 1122 2956 1747 
Q 2956 2369 2687 2733 
Q 2419 3097 1959 3097 
z
M 1959 3584 
Q 2709 3584 3137 3096 
Q 3566 2609 3566 1747 
Q 3566 888 3137 398 
Q 2709 -91 1959 -91 
Q 1206 -91 779 398 
Q 353 888 353 1747 
Q 353 2609 779 3096 
Q 1206 3584 1959 3584 
z
" transform="scale(0.015625)"/>
       <path id="DejaVuSans-66" d="M 2375 4863 
L 2375 4384 
L 1825 4384 
Q 1516 4384 1395 4259 
Q 1275 4134 1275 3809 
L 1275 3500 
L 2222 3500 
L 2222 3053 
L 1275 3053 
L 1275 0 
L 697 0 
L 697 3053 
L 147 3053 
L 147 3500 
L 697 3500 
L 697 3744 
Q 697 4328 969 4595 
Q 1241 4863 1831 4863 
L 2375 4863 
z
" transform="scale(0.015625)"/>
       <path id="DejaVuSans-69" d="M 603 3500 
L 1178 3500 
L 1178 0 
L 603 0 
L 603 3500 
z
M 603 4863 
L 1178 4863 
L 1178 4134 
L 603 4134 
L 603 4863 
z
" transform="scale(0.015625)"/>
      </defs>
      <use xlink:href="#DejaVuSans-50"/>
      <use xlink:href="#DejaVuSans-72" transform="translate(58.552734 0)"/>
      <use xlink:href="#DejaVuSans-6f" transform="translate(97.416016 0)"/>
      <use xlink:href="#DejaVuSans-66" transform="translate(158.597656 0)"/>
      <use xlink:href="#DejaVuSans-69" transform="translate(193.802734 0)"/>
      <use xlink:href="#DejaVuSans-74" transform="translate(221.585938 0)"/>
     </g>
    </g>
   </g>
   <g id="line2d_13">
    <path d="M 52.193327 247.76481 
L 54.83998 247.430222 
L 57.486633 235.745895 
L 60.133287 225.762501 
L 62.77994 217.484569 
L 65.426593 210.370297 
L 68.073247 204.568324 
L 70.7199 199.369121 
L 73.366553 194.685556 
L 76.013207 190.671908 
L 78.65986 187.040909 
L 83.953167 181.026564 
L 86.59982 178.377085 
L 89.246473 175.891614 
L 94.53978 171.796148 
L 99.833087 168.050593 
L 102.47974 166.30654 
L 105.126393 164.820264 
L 107.773047 163.205437 
L 115.713007 159.114258 
L 121.006313 156.811753 
L 126.29962 154.743407 
L 131.592927 152.870673 
L 139.532887 150.33292 
L 150.1195 147.298616 
L 160.706113 144.740098 
L 171.292727 142.585428 
L 187.172647 139.804481 
L 197.75926 138.259197 
L 221.57914 134.937058 
L 263.925593 130.302837 
L 277.15886 129.058491 
L 298.332087 127.18591 
L 316.85866 125.810161 
L 332.73858 124.785914 
L 364.49842 122.93647 
L 406.844873 120.77022 
L 465.071247 118.181969 
L 486.244473 117.429863 
L 518.004313 116.253841 
L 552.410807 115.218667 
L 562.99742 114.846183 
L 589.463953 114.103285 
L 668.863553 112.119326 
L 721.79662 110.982417 
L 758.849767 110.255712 
L 774.729687 109.948527 
L 825.0161 109.112861 
L 843.542673 108.802498 
L 843.542673 108.802498 
" clip-path="url(#pf9498387b0)" style="fill: none; stroke: #0000ff; stroke-width: 1.5; stroke-linecap: square"/>
   </g>
   <g id="patch_3">
    <path d="M 50.87 390.04 
L 50.87 43.44 
" style="fill: none; stroke: #000000; stroke-width: 0.8; stroke-linejoin: miter; stroke-linecap: square"/>
   </g>
   <g id="patch_4">
    <path d="M 844.866 390.04 
L 844.866 43.44 
" style="fill: none; stroke: #000000; stroke-width: 0.8; stroke-linejoin: miter; stroke-linecap: square"/>
   </g>
   <g id="patch_5">
    <path d="M 50.87 390.04 
L 844.866 390.04 
" style="fill: none; stroke: #000000; stroke-width: 0.8; stroke-linejoin: miter; stroke-linecap: square"/>
   </g>
   <g id="patch_6">
    <path d="M 50.87 43.44 
L 844.866 43.44 
" style="fill: none; stroke: #000000; stroke-width: 0.8; stroke-linejoin: miter; stroke-linecap: square"/>
   </g>
   <g id="text_15">
    <!-- Mean profit per step with confidence interval per simulation step -->
    <g transform="translate(220.284875 21.763062) scale(0.14 -0.14)">
     <defs>
      <path id="DejaVuSans-4d" d="M 628 4666 
L 1569 4666 
L 2759 1491 
L 3956 4666 
L 4897 4666 
L 4897 0 
L 4281 0 
L 4281 4097 
L 3078 897 
L 2444 897 
L 1241 4097 
L 1241 0 
L 628 0 
L 628 4666 
z
" transform="scale(0.015625)"/>
      <path id="DejaVuSans-61" d="M 2194 1759 
Q 1497 1759 1228 1600 
Q 959 1441 959 1056 
Q 959 750 1161 570 
Q 1363 391 1709 391 
Q 2188 391 2477 730 
Q 2766 1069 2766 1631 
L 2766 1759 
L 2194 1759 
z
M 3341 1997 
L 3341 0 
L 2766 0 
L 2766 531 
Q 2569 213 2275 61 
Q 1981 -91 1556 -91 
Q 1019 -91 701 211 
Q 384 513 384 1019 
Q 384 1609 779 1909 
Q 1175 2209 1959 2209 
L 2766 2209 
L 2766 2266 
Q 2766 2663 2505 2880 
Q 2244 3097 1772 3097 
Q 1472 3097 1187 3025 
Q 903 2953 641 2809 
L 641 3341 
Q 956 3463 1253 3523 
Q 1550 3584 1831 3584 
Q 2591 3584 2966 3190 
Q 3341 2797 3341 1997 
z
" transform="scale(0.015625)"/>
      <path id="DejaVuSans-6e" d="M 3513 2113 
L 3513 0 
L 2938 0 
L 2938 2094 
Q 2938 2591 2744 2837 
Q 2550 3084 2163 3084 
Q 1697 3084 1428 2787 
Q 1159 2491 1159 1978 
L 1159 0 
L 581 0 
L 581 3500 
L 1159 3500 
L 1159 2956 
Q 1366 3272 1645 3428 
Q 1925 3584 2291 3584 
Q 2894 3584 3203 3211 
Q 3513 2838 3513 2113 
z
" transform="scale(0.015625)"/>
      <path id="DejaVuSans-20" transform="scale(0.015625)"/>
      <path id="DejaVuSans-73" d="M 2834 3397 
L 2834 2853 
Q 2591 2978 2328 3040 
Q 2066 3103 1784 3103 
Q 1356 3103 1142 2972 
Q 928 2841 928 2578 
Q 928 2378 1081 2264 
Q 1234 2150 1697 2047 
L 1894 2003 
Q 2506 1872 2764 1633 
Q 3022 1394 3022 966 
Q 3022 478 2636 193 
Q 2250 -91 1575 -91 
Q 1294 -91 989 -36 
Q 684 19 347 128 
L 347 722 
Q 666 556 975 473 
Q 1284 391 1588 391 
Q 1994 391 2212 530 
Q 2431 669 2431 922 
Q 2431 1156 2273 1281 
Q 2116 1406 1581 1522 
L 1381 1569 
Q 847 1681 609 1914 
Q 372 2147 372 2553 
Q 372 3047 722 3315 
Q 1072 3584 1716 3584 
Q 2034 3584 2315 3537 
Q 2597 3491 2834 3397 
z
" transform="scale(0.015625)"/>
      <path id="DejaVuSans-77" d="M 269 3500 
L 844 3500 
L 1563 769 
L 2278 3500 
L 2956 3500 
L 3675 769 
L 4391 3500 
L 4966 3500 
L 4050 0 
L 3372 0 
L 2619 2869 
L 1863 0 
L 1184 0 
L 269 3500 
z
" transform="scale(0.015625)"/>
      <path id="DejaVuSans-68" d="M 3513 2113 
L 3513 0 
L 2938 0 
L 2938 2094 
Q 2938 2591 2744 2837 
Q 2550 3084 2163 3084 
Q 1697 3084 1428 2787 
Q 1159 2491 1159 1978 
L 1159 0 
L 581 0 
L 581 4863 
L 1159 4863 
L 1159 2956 
Q 1366 3272 1645 3428 
Q 1925 3584 2291 3584 
Q 2894 3584 3203 3211 
Q 3513 2838 3513 2113 
z
" transform="scale(0.015625)"/>
      <path id="DejaVuSans-63" d="M 3122 3366 
L 3122 2828 
Q 2878 2963 2633 3030 
Q 2388 3097 2138 3097 
Q 1578 3097 1268 2742 
Q 959 2388 959 1747 
Q 959 1106 1268 751 
Q 1578 397 2138 397 
Q 2388 397 2633 464 
Q 2878 531 3122 666 
L 3122 134 
Q 2881 22 2623 -34 
Q 2366 -91 2075 -91 
Q 1284 -91 818 406 
Q 353 903 353 1747 
Q 353 2603 823 3093 
Q 1294 3584 2113 3584 
Q 2378 3584 2631 3529 
Q 2884 3475 3122 3366 
z
" transform="scale(0.015625)"/>
      <path id="DejaVuSans-64" d="M 2906 2969 
L 2906 4863 
L 3481 4863 
L 3481 0 
L 2906 0 
L 2906 525 
Q 2725 213 2448 61 
Q 2172 -91 1784 -91 
Q 1150 -91 751 415 
Q 353 922 353 1747 
Q 353 2572 751 3078 
Q 1150 3584 1784 3584 
Q 2172 3584 2448 3432 
Q 2725 3281 2906 2969 
z
M 947 1747 
Q 947 1113 1208 752 
Q 1469 391 1925 391 
Q 2381 391 2643 752 
Q 2906 1113 2906 1747 
Q 2906 2381 2643 2742 
Q 2381 3103 1925 3103 
Q 1469 3103 1208 2742 
Q 947 2381 947 1747 
z
" transform="scale(0.015625)"/>
      <path id="DejaVuSans-76" d="M 191 3500 
L 800 3500 
L 1894 563 
L 2988 3500 
L 3597 3500 
L 2284 0 
L 1503 0 
L 191 3500 
z
" transform="scale(0.015625)"/>
      <path id="DejaVuSans-6c" d="M 603 4863 
L 1178 4863 
L 1178 0 
L 603 0 
L 603 4863 
z
" transform="scale(0.015625)"/>
      <path id="DejaVuSans-6d" d="M 3328 2828 
Q 3544 3216 3844 3400 
Q 4144 3584 4550 3584 
Q 5097 3584 5394 3201 
Q 5691 2819 5691 2113 
L 5691 0 
L 5113 0 
L 5113 2094 
Q 5113 2597 4934 2840 
Q 4756 3084 4391 3084 
Q 3944 3084 3684 2787 
Q 3425 2491 3425 1978 
L 3425 0 
L 2847 0 
L 2847 2094 
Q 2847 2600 2669 2842 
Q 2491 3084 2119 3084 
Q 1678 3084 1418 2786 
Q 1159 2488 1159 1978 
L 1159 0 
L 581 0 
L 581 3500 
L 1159 3500 
L 1159 2956 
Q 1356 3278 1631 3431 
Q 1906 3584 2284 3584 
Q 2666 3584 2933 3390 
Q 3200 3197 3328 2828 
z
" transform="scale(0.015625)"/>
      <path id="DejaVuSans-75" d="M 544 1381 
L 544 3500 
L 1119 3500 
L 1119 1403 
Q 1119 906 1312 657 
Q 1506 409 1894 409 
Q 2359 409 2629 706 
Q 2900 1003 2900 1516 
L 2900 3500 
L 3475 3500 
L 3475 0 
L 2900 0 
L 2900 538 
Q 2691 219 2414 64 
Q 2138 -91 1772 -91 
Q 1169 -91 856 284 
Q 544 659 544 1381 
z
M 1991 3584 
L 1991 3584 
z
" transform="scale(0.015625)"/>
     </defs>
     <use xlink:href="#DejaVuSans-4d"/>
     <use xlink:href="#DejaVuSans-65" transform="translate(86.279297 0)"/>
     <use xlink:href="#DejaVuSans-61" transform="translate(147.802734 0)"/>
     <use xlink:href="#DejaVuSans-6e" transform="translate(209.082031 0)"/>
     <use xlink:href="#DejaVuSans-20" transform="translate(272.460938 0)"/>
     <use xlink:href="#DejaVuSans-70" transform="translate(304.248047 0)"/>
     <use xlink:href="#DejaVuSans-72" transform="translate(367.724609 0)"/>
     <use xlink:href="#DejaVuSans-6f" transform="translate(406.587891 0)"/>
     <use xlink:href="#DejaVuSans-66" transform="translate(467.769531 0)"/>
     <use xlink:href="#DejaVuSans-69" transform="translate(502.974609 0)"/>
     <use xlink:href="#DejaVuSans-74" transform="translate(530.757812 0)"/>
     <use xlink:href="#DejaVuSans-20" transform="translate(569.966797 0)"/>
     <use xlink:href="#DejaVuSans-70" transform="translate(601.753906 0)"/>
     <use xlink:href="#DejaVuSans-65" transform="translate(665.230469 0)"/>
     <use xlink:href="#DejaVuSans-72" transform="translate(726.753906 0)"/>
     <use xlink:href="#DejaVuSans-20" transform="translate(767.867188 0)"/>
     <use xlink:href="#DejaVuSans-73" transform="translate(799.654297 0)"/>
     <use xlink:href="#DejaVuSans-74" transform="translate(851.753906 0)"/>
     <use xlink:href="#DejaVuSans-65" transform="translate(890.962891 0)"/>
     <use xlink:href="#DejaVuSans-70" transform="translate(952.486328 0)"/>
     <use xlink:href="#DejaVuSans-20" transform="translate(1015.962891 0)"/>
     <use xlink:href="#DejaVuSans-77" transform="translate(1047.75 0)"/>
     <use xlink:href="#DejaVuSans-69" transform="translate(1129.537109 0)"/>
     <use xlink:href="#DejaVuSans-74" transform="translate(1157.320312 0)"/>
     <use xlink:href="#DejaVuSans-68" transform="translate(1196.529297 0)"/>
     <use xlink:href="#DejaVuSans-20" transform="translate(1259.908203 0)"/>
     <use xlink:href="#DejaVuSans-63" transform="translate(1291.695312 0)"/>
     <use xlink:href="#DejaVuSans-6f" transform="translate(1346.675781 0)"/>
     <use xlink:href="#DejaVuSans-6e" transform="translate(1407.857422 0)"/>
     <use xlink:href="#DejaVuSans-66" transform="translate(1471.236328 0)"/>
     <use xlink:href="#DejaVuSans-69" transform="translate(1506.441406 0)"/>
     <use xlink:href="#DejaVuSans-64" transform="translate(1534.224609 0)"/>
     <use xlink:href="#DejaVuSans-65" transform="translate(1597.701172 0)"/>
     <use xlink:href="#DejaVuSans-6e" transform="translate(1659.224609 0)"/>
     <use xlink:href="#DejaVuSans-63" transform="translate(1722.603516 0)"/>
     <use xlink:href="#DejaVuSans-65" transform="translate(1777.583984 0)"/>
     <use xlink:href="#DejaVuSans-20" transform="translate(1839.107422 0)"/>
     <use xlink:href="#DejaVuSans-69" transform="translate(1870.894531 0)"/>
     <use xlink:href="#DejaVuSans-6e" transform="translate(1898.677734 0)"/>
     <use xlink:href="#DejaVuSans-74" transform="translate(1962.056641 0)"/>
     <use xlink:href="#DejaVuSans-65" transform="translate(2001.265625 0)"/>
     <use xlink:href="#DejaVuSans-72" transform="translate(2062.789062 0)"/>
     <use xlink:href="#DejaVuSans-76" transform="translate(2103.902344 0)"/>
     <use xlink:href="#DejaVuSans-61" transform="translate(2163.082031 0)"/>
     <use xlink:href="#DejaVuSans-6c" transform="translate(2224.361328 0)"/>
     <use xlink:href="#DejaVuSans-20" transform="translate(2252.144531 0)"/>
     <use xlink:href="#DejaVuSans-70" transform="translate(2283.931641 0)"/>
     <use xlink:href="#DejaVuSans-65" transform="translate(2347.408203 0)"/>
     <use xlink:href="#DejaVuSans-72" transform="translate(2408.931641 0)"/>
     <use xlink:href="#DejaVuSans-20" transform="translate(2450.044922 0)"/>
     <use xlink:href="#DejaVuSans-73" transform="translate(2481.832031 0)"/>
     <use xlink:href="#DejaVuSans-69" transform="translate(2533.931641 0)"/>
     <use xlink:href="#DejaVuSans-6d" transform="translate(2561.714844 0)"/>
     <use xlink:href="#DejaVuSans-75" transform="translate(2659.126953 0)"/>
     <use xlink:href="#DejaVuSans-6c" transform="translate(2722.505859 0)"/>
     <use xlink:href="#DejaVuSans-61" transform="translate(2750.289062 0)"/>
     <use xlink:href="#DejaVuSans-74" transform="translate(2811.568359 0)"/>
     <use xlink:href="#DejaVuSans-69" transform="translate(2850.777344 0)"/>
     <use xlink:href="#DejaVuSans-6f" transform="translate(2878.560547 0)"/>
     <use xlink:href="#DejaVuSans-6e" transform="translate(2939.742188 0)"/>
     <use xlink:href="#DejaVuSans-20" transform="translate(3003.121094 0)"/>
     <use xlink:href="#DejaVuSans-73" transform="translate(3034.908203 0)"/>
     <use xlink:href="#DejaVuSans-74" transform="translate(3087.007812 0)"/>
     <use xlink:href="#DejaVuSans-65" transform="translate(3126.216797 0)"/>
     <use xlink:href="#DejaVuSans-70" transform="translate(3187.740234 0)"/>
    </g>
    <!-- Base Product: Green Crack, Recipe size: 8, T0: 5.0 -->
    <g transform="translate(272.485187 37.44) scale(0.14 -0.14)">
     <defs>
      <path id="DejaVuSans-42" d="M 1259 2228 
L 1259 519 
L 2272 519 
Q 2781 519 3026 730 
Q 3272 941 3272 1375 
Q 3272 1813 3026 2020 
Q 2781 2228 2272 2228 
L 1259 2228 
z
M 1259 4147 
L 1259 2741 
L 2194 2741 
Q 2656 2741 2882 2914 
Q 3109 3088 3109 3444 
Q 3109 3797 2882 3972 
Q 2656 4147 2194 4147 
L 1259 4147 
z
M 628 4666 
L 2241 4666 
Q 2963 4666 3353 4366 
Q 3744 4066 3744 3513 
Q 3744 3084 3544 2831 
Q 3344 2578 2956 2516 
Q 3422 2416 3680 2098 
Q 3938 1781 3938 1306 
Q 3938 681 3513 340 
Q 3088 0 2303 0 
L 628 0 
L 628 4666 
z
" transform="scale(0.015625)"/>
      <path id="DejaVuSans-3a" d="M 750 794 
L 1409 794 
L 1409 0 
L 750 0 
L 750 794 
z
M 750 3309 
L 1409 3309 
L 1409 2516 
L 750 2516 
L 750 3309 
z
" transform="scale(0.015625)"/>
      <path id="DejaVuSans-47" d="M 3809 666 
L 3809 1919 
L 2778 1919 
L 2778 2438 
L 4434 2438 
L 4434 434 
Q 4069 175 3628 42 
Q 3188 -91 2688 -91 
Q 1594 -91 976 548 
Q 359 1188 359 2328 
Q 359 3472 976 4111 
Q 1594 4750 2688 4750 
Q 3144 4750 3555 4637 
Q 3966 4525 4313 4306 
L 4313 3634 
Q 3963 3931 3569 4081 
Q 3175 4231 2741 4231 
Q 1884 4231 1454 3753 
Q 1025 3275 1025 2328 
Q 1025 1384 1454 906 
Q 1884 428 2741 428 
Q 3075 428 3337 486 
Q 3600 544 3809 666 
z
" transform="scale(0.015625)"/>
      <path id="DejaVuSans-43" d="M 4122 4306 
L 4122 3641 
Q 3803 3938 3442 4084 
Q 3081 4231 2675 4231 
Q 1875 4231 1450 3742 
Q 1025 3253 1025 2328 
Q 1025 1406 1450 917 
Q 1875 428 2675 428 
Q 3081 428 3442 575 
Q 3803 722 4122 1019 
L 4122 359 
Q 3791 134 3420 21 
Q 3050 -91 2638 -91 
Q 1578 -91 968 557 
Q 359 1206 359 2328 
Q 359 3453 968 4101 
Q 1578 4750 2638 4750 
Q 3056 4750 3426 4639 
Q 3797 4528 4122 4306 
z
" transform="scale(0.015625)"/>
      <path id="DejaVuSans-6b" d="M 581 4863 
L 1159 4863 
L 1159 1991 
L 2875 3500 
L 3609 3500 
L 1753 1863 
L 3688 0 
L 2938 0 
L 1159 1709 
L 1159 0 
L 581 0 
L 581 4863 
z
" transform="scale(0.015625)"/>
      <path id="DejaVuSans-2c" d="M 750 794 
L 1409 794 
L 1409 256 
L 897 -744 
L 494 -744 
L 750 256 
L 750 794 
z
" transform="scale(0.015625)"/>
      <path id="DejaVuSans-52" d="M 2841 2188 
Q 3044 2119 3236 1894 
Q 3428 1669 3622 1275 
L 4263 0 
L 3584 0 
L 2988 1197 
Q 2756 1666 2539 1819 
Q 2322 1972 1947 1972 
L 1259 1972 
L 1259 0 
L 628 0 
L 628 4666 
L 2053 4666 
Q 2853 4666 3247 4331 
Q 3641 3997 3641 3322 
Q 3641 2881 3436 2590 
Q 3231 2300 2841 2188 
z
M 1259 4147 
L 1259 2491 
L 2053 2491 
Q 2509 2491 2742 2702 
Q 2975 2913 2975 3322 
Q 2975 3731 2742 3939 
Q 2509 4147 2053 4147 
L 1259 4147 
z
" transform="scale(0.015625)"/>
      <path id="DejaVuSans-7a" d="M 353 3500 
L 3084 3500 
L 3084 2975 
L 922 459 
L 3084 459 
L 3084 0 
L 275 0 
L 275 525 
L 2438 3041 
L 353 3041 
L 353 3500 
z
" transform="scale(0.015625)"/>
      <path id="DejaVuSans-54" d="M -19 4666 
L 3928 4666 
L 3928 4134 
L 2272 4134 
L 2272 0 
L 1638 0 
L 1638 4134 
L -19 4134 
L -19 4666 
z
" transform="scale(0.015625)"/>
      <path id="DejaVuSans-2e" d="M 684 794 
L 1344 794 
L 1344 0 
L 684 0 
L 684 794 
z
" transform="scale(0.015625)"/>
     </defs>
     <use xlink:href="#DejaVuSans-42"/>
     <use xlink:href="#DejaVuSans-61" transform="translate(68.603516 0)"/>
     <use xlink:href="#DejaVuSans-73" transform="translate(129.882812 0)"/>
     <use xlink:href="#DejaVuSans-65" transform="translate(181.982422 0)"/>
     <use xlink:href="#DejaVuSans-20" transform="translate(243.505859 0)"/>
     <use xlink:href="#DejaVuSans-50" transform="translate(275.292969 0)"/>
     <use xlink:href="#DejaVuSans-72" transform="translate(333.845703 0)"/>
     <use xlink:href="#DejaVuSans-6f" transform="translate(372.708984 0)"/>
     <use xlink:href="#DejaVuSans-64" transform="translate(433.890625 0)"/>
     <use xlink:href="#DejaVuSans-75" transform="translate(497.367188 0)"/>
     <use xlink:href="#DejaVuSans-63" transform="translate(560.746094 0)"/>
     <use xlink:href="#DejaVuSans-74" transform="translate(615.726562 0)"/>
     <use xlink:href="#DejaVuSans-3a" transform="translate(654.935547 0)"/>
     <use xlink:href="#DejaVuSans-20" transform="translate(688.626953 0)"/>
     <use xlink:href="#DejaVuSans-47" transform="translate(720.414062 0)"/>
     <use xlink:href="#DejaVuSans-72" transform="translate(797.904297 0)"/>
     <use xlink:href="#DejaVuSans-65" transform="translate(836.767578 0)"/>
     <use xlink:href="#DejaVuSans-65" transform="translate(898.291016 0)"/>
     <use xlink:href="#DejaVuSans-6e" transform="translate(959.814453 0)"/>
     <use xlink:href="#DejaVuSans-20" transform="translate(1023.193359 0)"/>
     <use xlink:href="#DejaVuSans-43" transform="translate(1054.980469 0)"/>
     <use xlink:href="#DejaVuSans-72" transform="translate(1124.804688 0)"/>
     <use xlink:href="#DejaVuSans-61" transform="translate(1165.917969 0)"/>
     <use xlink:href="#DejaVuSans-63" transform="translate(1227.197266 0)"/>
     <use xlink:href="#DejaVuSans-6b" transform="translate(1282.177734 0)"/>
     <use xlink:href="#DejaVuSans-2c" transform="translate(1340.087891 0)"/>
     <use xlink:href="#DejaVuSans-20" transform="translate(1371.875 0)"/>
     <use xlink:href="#DejaVuSans-52" transform="translate(1403.662109 0)"/>
     <use xlink:href="#DejaVuSans-65" transform="translate(1468.644531 0)"/>
     <use xlink:href="#DejaVuSans-63" transform="translate(1530.167969 0)"/>
     <use xlink:href="#DejaVuSans-69" transform="translate(1585.148438 0)"/>
     <use xlink:href="#DejaVuSans-70" transform="translate(1612.931641 0)"/>
     <use xlink:href="#DejaVuSans-65" transform="translate(1676.408203 0)"/>
     <use xlink:href="#DejaVuSans-20" transform="translate(1737.931641 0)"/>
     <use xlink:href="#DejaVuSans-73" transform="translate(1769.71875 0)"/>
     <use xlink:href="#DejaVuSans-69" transform="translate(1821.818359 0)"/>
     <use xlink:href="#DejaVuSans-7a" transform="translate(1849.601562 0)"/>
     <use xlink:href="#DejaVuSans-65" transform="translate(1902.091797 0)"/>
     <use xlink:href="#DejaVuSans-3a" transform="translate(1963.615234 0)"/>
     <use xlink:href="#DejaVuSans-20" transform="translate(1997.306641 0)"/>
     <use xlink:href="#DejaVuSans-38" transform="translate(2029.09375 0)"/>
     <use xlink:href="#DejaVuSans-2c" transform="translate(2092.716797 0)"/>
     <use xlink:href="#DejaVuSans-20" transform="translate(2124.503906 0)"/>
     <use xlink:href="#DejaVuSans-54" transform="translate(2156.291016 0)"/>
     <use xlink:href="#DejaVuSans-30" transform="translate(2217.375 0)"/>
     <use xlink:href="#DejaVuSans-3a" transform="translate(2280.998047 0)"/>
     <use xlink:href="#DejaVuSans-20" transform="translate(2314.689453 0)"/>
     <use xlink:href="#DejaVuSans-35" transform="translate(2346.476562 0)"/>
     <use xlink:href="#DejaVuSans-2e" transform="translate(2410.099609 0)"/>
     <use xlink:href="#DejaVuSans-30" transform="translate(2441.886719 0)"/>
    </g>
   </g>
  </g>
 </g>
 <defs>
  <clipPath id="pf9498387b0">
   <rect x="50.87" y="43.44" width="793.996" height="346.6"/>
  </clipPath>
 </defs>
</svg>
