<?xml version="1.0" encoding="utf-8" standalone="no"?>
<!DOCTYPE svg PUBLIC "-//W3C//DTD SVG 1.1//EN"
  "http://www.w3.org/Graphics/SVG/1.1/DTD/svg11.dtd">
<svg xmlns:xlink="http://www.w3.org/1999/xlink" width="864pt" height="432pt" viewBox="0 0 864 432" xmlns="http://www.w3.org/2000/svg" version="1.1">
 <metadata>
  <rdf:RDF xmlns:dc="http://purl.org/dc/elements/1.1/" xmlns:cc="http://creativecommons.org/ns#" xmlns:rdf="http://www.w3.org/1999/02/22-rdf-syntax-ns#">
   <cc:Work>
    <dc:type rdf:resource="http://purl.org/dc/dcmitype/StillImage"/>
    <dc:date>2025-05-24T02:12:17.141278</dc:date>
    <dc:format>image/svg+xml</dc:format>
    <dc:creator>
     <cc:Agent>
      <dc:title>Matplotlib v3.10.3, https://matplotlib.org/</dc:title>
     </cc:Agent>
    </dc:creator>
   </cc:Work>
  </rdf:RDF>
 </metadata>
 <defs>
  <style type="text/css">*{stroke-linejoin: round; stroke-linecap: butt}</style>
 </defs>
 <g id="figure_1">
  <g id="patch_1">
   <path d="M 0 432 
L 864 432 
L 864 0 
L 0 0 
z
" style="fill: #ffffff"/>
  </g>
  <g id="axes_1">
   <g id="patch_2">
    <path d="M 50.87 390.04 
L 844.866 390.04 
L 844.866 43.44 
L 50.87 43.44 
z
" style="fill: #ffffff"/>
   </g>
   <g id="FillBetweenPolyCollection_1">
    <defs>
     <path id="m5c9b94663a" d="M 52.193327 -305.240065 
L 52.193327 -58.278382 
L 54.83998 -57.714545 
L 57.486633 -64.39509 
L 60.133287 -71.290736 
L 62.77994 -78.136401 
L 65.426593 -84.49985 
L 68.073247 -90.709061 
L 70.7199 -96.131834 
L 73.366553 -100.90169 
L 76.013207 -105.059858 
L 78.65986 -108.504687 
L 81.306513 -112.502085 
L 83.953167 -115.994902 
L 86.59982 -119.149884 
L 89.246473 -121.875447 
L 91.893127 -124.435088 
L 94.53978 -127.69459 
L 97.186433 -129.703152 
L 99.833087 -132.508073 
L 102.47974 -135.126864 
L 105.126393 -136.937936 
L 107.773047 -138.739525 
L 110.4197 -141.413074 
L 113.066353 -143.239784 
L 115.713007 -145.242598 
L 118.35966 -146.775862 
L 121.006313 -149.177592 
L 123.652967 -150.301811 
L 126.29962 -151.480007 
L 128.946273 -153.262902 
L 131.592927 -154.471382 
L 134.23958 -154.309527 
L 136.886233 -154.549372 
L 139.532887 -156.565676 
L 142.17954 -157.941049 
L 144.826193 -159.563998 
L 147.472847 -159.916897 
L 150.1195 -160.616653 
L 152.766153 -161.969149 
L 155.412807 -162.726857 
L 158.05946 -163.219264 
L 160.706113 -163.432048 
L 163.352767 -164.196015 
L 165.99942 -164.4641 
L 168.646073 -165.593515 
L 171.292727 -166.043537 
L 173.93938 -166.644877 
L 176.586033 -167.549667 
L 179.232687 -168.369988 
L 181.87934 -168.943474 
L 184.525993 -170.102547 
L 187.172647 -170.062634 
L 189.8193 -171.509196 
L 192.465953 -171.563402 
L 195.112607 -171.948775 
L 197.75926 -172.204874 
L 200.405913 -172.328912 
L 203.052567 -172.762535 
L 205.69922 -173.463157 
L 208.345873 -173.170744 
L 210.992527 -174.701515 
L 213.63918 -175.619908 
L 216.285833 -176.526034 
L 218.932487 -177.044031 
L 221.57914 -177.717343 
L 224.225793 -178.584775 
L 226.872447 -178.829586 
L 229.5191 -179.165136 
L 232.165753 -179.534674 
L 234.812407 -179.506966 
L 237.45906 -180.229068 
L 240.105713 -180.756204 
L 242.752367 -181.25459 
L 245.39902 -181.384491 
L 248.045673 -181.121548 
L 250.692327 -181.716097 
L 253.33898 -181.773046 
L 255.985633 -182.352364 
L 258.632287 -183.026155 
L 261.27894 -183.705329 
L 263.925593 -184.033754 
L 266.572247 -184.330371 
L 269.2189 -184.496294 
L 271.865553 -185.099877 
L 274.512207 -185.64482 
L 277.15886 -185.985858 
L 279.805513 -186.130322 
L 282.452167 -186.29684 
L 285.09882 -186.4161 
L 287.745473 -186.87647 
L 290.392127 -187.064896 
L 293.03878 -187.131891 
L 295.685433 -187.210424 
L 298.332087 -187.056613 
L 300.97874 -187.406475 
L 303.625393 -188.0229 
L 306.272047 -188.190889 
L 308.9187 -188.475342 
L 311.565353 -188.938487 
L 314.212007 -188.993945 
L 316.85866 -189.171959 
L 319.505313 -189.258316 
L 322.151967 -189.521508 
L 324.79862 -189.438343 
L 327.445273 -190.17696 
L 330.091927 -190.856875 
L 332.73858 -191.492338 
L 335.385233 -191.519003 
L 338.031887 -191.850599 
L 340.67854 -192.665224 
L 343.325193 -192.778892 
L 345.971847 -192.794457 
L 348.6185 -192.720848 
L 351.265153 -192.427966 
L 353.911807 -192.714161 
L 356.55846 -193.005207 
L 359.205113 -193.089728 
L 361.851767 -193.078055 
L 364.49842 -193.26695 
L 367.145073 -193.251239 
L 369.791727 -193.476114 
L 372.43838 -193.869228 
L 375.085033 -194.34049 
L 377.731687 -194.277136 
L 380.37834 -194.68619 
L 383.024993 -194.697676 
L 385.671647 -195.342122 
L 388.3183 -195.197125 
L 390.964953 -195.598053 
L 393.611607 -195.907763 
L 396.25826 -195.917924 
L 398.904913 -196.242634 
L 401.551567 -196.335147 
L 404.19822 -196.393066 
L 406.844873 -196.511951 
L 409.491527 -197.20308 
L 412.13818 -197.06066 
L 414.784833 -197.124818 
L 417.431487 -197.129492 
L 420.07814 -197.472167 
L 422.724793 -197.92127 
L 425.371447 -197.888451 
L 428.0181 -198.183722 
L 430.664753 -198.084658 
L 433.311407 -198.490031 
L 435.95806 -198.96438 
L 438.604713 -199.096785 
L 441.251367 -199.634019 
L 443.89802 -200.032757 
L 446.544673 -200.45409 
L 449.191327 -200.23635 
L 451.83798 -200.708008 
L 454.484633 -200.495693 
L 457.131287 -200.502975 
L 459.77794 -200.736926 
L 462.424593 -200.690816 
L 465.071247 -200.347724 
L 467.7179 -200.930275 
L 470.364553 -201.070671 
L 473.011207 -201.105306 
L 475.65786 -201.744587 
L 478.304513 -201.735157 
L 480.951167 -201.719842 
L 483.59782 -201.415036 
L 486.244473 -201.391209 
L 488.891127 -201.728501 
L 491.53778 -201.692844 
L 494.184433 -202.393571 
L 496.831087 -202.76531 
L 499.47774 -202.97969 
L 502.124393 -203.022253 
L 504.771047 -203.397831 
L 507.4177 -203.480245 
L 510.064353 -203.729094 
L 512.711007 -203.563995 
L 515.35766 -203.514129 
L 518.004313 -203.620891 
L 520.650967 -203.681001 
L 523.29762 -203.600465 
L 525.944273 -203.858431 
L 528.590927 -203.619953 
L 531.23758 -204.096514 
L 533.884233 -204.283604 
L 536.530887 -204.695965 
L 539.17754 -204.813765 
L 541.824193 -204.283478 
L 544.470847 -204.693462 
L 547.1175 -204.223994 
L 549.764153 -204.990027 
L 552.410807 -205.240857 
L 555.05746 -205.170377 
L 557.704113 -204.937636 
L 560.350767 -205.172818 
L 562.99742 -205.307247 
L 565.644073 -205.422627 
L 568.290727 -205.52916 
L 570.93738 -205.222204 
L 573.584033 -205.158443 
L 576.230687 -205.305933 
L 578.87734 -205.35849 
L 581.523993 -205.317888 
L 584.170647 -205.498447 
L 586.8173 -205.371634 
L 589.463953 -205.721862 
L 592.110607 -205.916985 
L 594.75726 -205.951286 
L 597.403913 -205.830857 
L 600.050567 -206.080185 
L 602.69722 -206.3712 
L 605.343873 -206.501852 
L 607.990527 -206.380088 
L 610.63718 -206.505483 
L 613.283833 -206.819615 
L 615.930487 -206.53874 
L 618.57714 -206.121497 
L 621.223793 -206.659753 
L 623.870447 -206.785419 
L 626.5171 -206.669017 
L 629.163753 -206.893684 
L 631.810407 -207.062809 
L 634.45706 -207.12269 
L 637.103713 -207.544566 
L 639.750367 -206.941859 
L 642.39702 -207.499374 
L 645.043673 -207.954486 
L 647.690327 -208.168554 
L 650.33698 -208.408431 
L 652.983633 -208.364052 
L 655.630287 -209.077277 
L 658.27694 -208.787409 
L 660.923593 -209.277887 
L 663.570247 -208.987999 
L 666.2169 -208.703681 
L 668.863553 -208.780086 
L 671.510207 -208.760661 
L 674.15686 -208.438079 
L 676.803513 -208.498251 
L 679.450167 -208.686176 
L 682.09682 -208.88182 
L 684.743473 -209.092237 
L 687.390127 -209.38104 
L 690.03678 -209.416822 
L 692.683433 -209.611256 
L 695.330087 -209.871246 
L 697.97674 -210.311587 
L 700.623393 -210.543598 
L 703.270047 -210.155731 
L 705.9167 -210.478689 
L 708.563353 -210.183376 
L 711.210007 -210.099022 
L 713.85666 -210.4104 
L 716.503313 -210.650047 
L 719.149967 -210.700247 
L 721.79662 -210.835865 
L 724.443273 -211.068251 
L 727.089927 -211.178748 
L 729.73658 -211.677989 
L 732.383233 -212.094294 
L 735.029887 -212.309759 
L 737.67654 -212.218707 
L 740.323193 -212.002136 
L 742.969847 -211.617065 
L 745.6165 -211.852664 
L 748.263153 -212.065272 
L 750.909807 -211.484827 
L 753.55646 -211.619944 
L 756.203113 -211.949183 
L 758.849767 -212.087888 
L 761.49642 -211.572457 
L 764.143073 -211.64711 
L 766.789727 -212.569979 
L 769.43638 -212.44327 
L 772.083033 -212.803012 
L 774.729687 -212.692786 
L 777.37634 -212.201557 
L 780.022993 -211.877702 
L 782.669647 -211.863138 
L 785.3163 -211.621363 
L 787.962953 -212.195423 
L 790.609607 -211.966166 
L 793.25626 -211.680701 
L 795.902913 -212.086094 
L 798.549567 -212.583081 
L 801.19622 -212.494951 
L 803.842873 -212.893291 
L 806.489527 -212.991771 
L 809.13618 -212.894084 
L 811.782833 -212.947539 
L 814.429487 -213.094298 
L 817.07614 -212.947789 
L 819.722793 -213.332485 
L 822.369447 -213.734226 
L 825.0161 -213.872181 
L 827.662753 -213.751377 
L 830.309407 -213.42483 
L 832.95606 -213.164652 
L 835.602713 -213.125177 
L 838.249367 -213.700739 
L 840.89602 -213.706414 
L 843.542673 -213.626588 
L 843.542673 -372.665205 
L 843.542673 -372.665205 
L 840.89602 -372.531507 
L 838.249367 -372.467328 
L 835.602713 -372.805455 
L 832.95606 -372.745991 
L 830.309407 -372.406863 
L 827.662753 -371.980189 
L 825.0161 -371.786735 
L 822.369447 -371.872821 
L 819.722793 -372.089142 
L 817.07614 -372.186912 
L 814.429487 -372.064773 
L 811.782833 -372.146936 
L 809.13618 -372.122734 
L 806.489527 -371.91818 
L 803.842873 -371.63138 
L 801.19622 -371.727981 
L 798.549567 -371.744089 
L 795.902913 -372.097029 
L 793.25626 -372.354619 
L 790.609607 -371.860177 
L 787.962953 -371.559356 
L 785.3163 -371.745007 
L 782.669647 -371.553848 
L 780.022993 -371.560232 
L 777.37634 -371.08532 
L 774.729687 -370.729333 
L 772.083033 -370.471847 
L 769.43638 -370.660043 
L 766.789727 -370.420125 
L 764.143073 -370.88761 
L 761.49642 -370.880015 
L 758.849767 -370.50813 
L 756.203113 -370.447832 
L 753.55646 -370.351773 
L 750.909807 -370.249789 
L 748.263153 -369.886082 
L 745.6165 -370.01156 
L 742.969847 -369.907573 
L 740.323193 -369.519622 
L 737.67654 -369.382377 
L 735.029887 -369.191761 
L 732.383233 -369.216944 
L 729.73658 -369.536105 
L 727.089927 -369.678191 
L 724.443273 -369.734649 
L 721.79662 -369.704563 
L 719.149967 -369.762232 
L 716.503313 -369.527175 
L 713.85666 -369.571574 
L 711.210007 -369.561601 
L 708.563353 -369.29748 
L 705.9167 -369.113332 
L 703.270047 -369.343486 
L 700.623393 -368.896072 
L 697.97674 -369.27309 
L 695.330087 -369.521896 
L 692.683433 -369.670012 
L 690.03678 -369.570468 
L 687.390127 -369.545327 
L 684.743473 -369.504141 
L 682.09682 -369.312252 
L 679.450167 -369.312023 
L 676.803513 -369.336288 
L 674.15686 -369.278243 
L 671.510207 -368.880382 
L 668.863553 -368.756094 
L 666.2169 -368.628237 
L 663.570247 -368.306698 
L 660.923593 -367.951588 
L 658.27694 -368.1561 
L 655.630287 -367.786489 
L 652.983633 -368.224847 
L 650.33698 -368.110657 
L 647.690327 -368.111346 
L 645.043673 -368.078088 
L 642.39702 -368.277405 
L 639.750367 -368.578914 
L 637.103713 -367.983802 
L 634.45706 -368.091796 
L 631.810407 -367.992398 
L 629.163753 -368.064798 
L 626.5171 -368.240266 
L 623.870447 -368.23094 
L 621.223793 -368.030538 
L 618.57714 -368.234883 
L 615.930487 -367.836626 
L 613.283833 -367.527834 
L 610.63718 -367.680811 
L 607.990527 -367.570606 
L 605.343873 -367.46061 
L 602.69722 -367.211115 
L 600.050567 -367.200641 
L 597.403913 -367.429522 
L 594.75726 -367.361755 
L 592.110607 -367.246292 
L 589.463953 -367.275919 
L 586.8173 -367.556418 
L 584.170647 -367.285183 
L 581.523993 -367.05964 
L 578.87734 -366.965876 
L 576.230687 -366.876681 
L 573.584033 -366.954359 
L 570.93738 -366.566325 
L 568.290727 -366.292001 
L 565.644073 -366.291584 
L 562.99742 -366.263876 
L 560.350767 -366.127653 
L 557.704113 -366.249334 
L 555.05746 -365.796224 
L 552.410807 -365.619796 
L 549.764153 -365.696284 
L 547.1175 -366.082753 
L 544.470847 -365.524947 
L 541.824193 -365.72708 
L 539.17754 -365.233431 
L 536.530887 -365.147929 
L 533.884233 -365.243863 
L 531.23758 -365.263663 
L 528.590927 -365.539927 
L 525.944273 -365.062386 
L 523.29762 -365.090135 
L 520.650967 -364.866428 
L 518.004313 -364.610403 
L 515.35766 -364.606459 
L 512.711007 -364.420767 
L 510.064353 -364.128813 
L 507.4177 -364.067994 
L 504.771047 -363.963547 
L 502.124393 -363.988021 
L 499.47774 -363.885828 
L 496.831087 -363.981741 
L 494.184433 -363.956892 
L 491.53778 -364.278181 
L 488.891127 -364.128313 
L 486.244473 -364.212604 
L 483.59782 -363.788725 
L 480.951167 -363.508414 
L 478.304513 -363.251867 
L 475.65786 -363.125387 
L 473.011207 -363.358274 
L 470.364553 -363.263551 
L 467.7179 -363.179572 
L 465.071247 -363.545385 
L 462.424593 -363.069638 
L 459.77794 -363.077775 
L 457.131287 -363.006106 
L 454.484633 -362.898467 
L 451.83798 -362.506344 
L 449.191327 -362.70347 
L 446.544673 -362.405778 
L 443.89802 -362.68778 
L 441.251367 -362.691306 
L 438.604713 -362.821186 
L 435.95806 -362.451721 
L 433.311407 -362.373084 
L 430.664753 -362.464323 
L 428.0181 -362.112426 
L 425.371447 -362.072576 
L 422.724793 -361.947494 
L 420.07814 -362.017285 
L 417.431487 -361.992999 
L 414.784833 -361.904076 
L 412.13818 -361.806368 
L 409.491527 -361.381071 
L 406.844873 -361.84069 
L 404.19822 -361.483911 
L 401.551567 -361.328973 
L 398.904913 -361.056986 
L 396.25826 -360.951559 
L 393.611607 -360.68218 
L 390.964953 -360.374307 
L 388.3183 -360.546437 
L 385.671647 -360.207768 
L 383.024993 -360.55858 
L 380.37834 -360.325109 
L 377.731687 -360.410318 
L 375.085033 -359.968997 
L 372.43838 -360.126105 
L 369.791727 -360.211857 
L 367.145073 -360.193246 
L 364.49842 -360.002067 
L 361.851767 -359.563562 
L 359.205113 -359.343841 
L 356.55846 -359.400821 
L 353.911807 -359.279349 
L 351.265153 -359.080053 
L 348.6185 -358.604953 
L 345.971847 -358.442128 
L 343.325193 -358.119441 
L 340.67854 -357.815782 
L 338.031887 -358.08055 
L 335.385233 -358.064839 
L 332.73858 -357.891415 
L 330.091927 -358.013784 
L 327.445273 -358.107653 
L 324.79862 -358.295097 
L 322.151967 -357.799529 
L 319.505313 -357.666707 
L 316.85866 -357.259958 
L 314.212007 -357.237466 
L 311.565353 -356.95463 
L 308.9187 -356.901843 
L 306.272047 -356.77793 
L 303.625393 -356.491839 
L 300.97874 -356.87328 
L 298.332087 -356.753999 
L 295.685433 -356.415455 
L 293.03878 -356.023791 
L 290.392127 -355.820176 
L 287.745473 -355.536109 
L 285.09882 -355.525781 
L 282.452167 -355.291684 
L 279.805513 -355.105011 
L 277.15886 -354.917274 
L 274.512207 -354.869099 
L 271.865553 -354.761376 
L 269.2189 -354.810637 
L 266.572247 -354.46863 
L 263.925593 -354.175758 
L 261.27894 -354.231445 
L 258.632287 -354.262115 
L 255.985633 -354.316779 
L 253.33898 -354.17461 
L 250.692327 -353.89482 
L 248.045673 -353.593582 
L 245.39902 -352.936044 
L 242.752367 -352.699318 
L 240.105713 -352.633115 
L 237.45906 -352.529482 
L 234.812407 -352.245958 
L 232.165753 -351.577717 
L 229.5191 -351.482784 
L 226.872447 -351.225319 
L 224.225793 -350.859234 
L 221.57914 -350.706904 
L 218.932487 -350.733381 
L 216.285833 -350.460747 
L 213.63918 -350.561209 
L 210.992527 -350.591212 
L 208.345873 -351.068503 
L 205.69922 -350.175324 
L 203.052567 -349.976696 
L 200.405913 -349.658662 
L 197.75926 -349.096223 
L 195.112607 -348.664145 
L 192.465953 -348.17421 
L 189.8193 -347.284765 
L 187.172647 -347.189165 
L 184.525993 -346.440742 
L 181.87934 -346.683707 
L 179.232687 -346.259244 
L 176.586033 -346.107602 
L 173.93938 -345.991576 
L 171.292727 -346.031072 
L 168.646073 -345.941439 
L 165.99942 -346.034682 
L 163.352767 -345.25997 
L 160.706113 -344.898142 
L 158.05946 -343.886182 
L 155.412807 -343.202022 
L 152.766153 -342.870113 
L 150.1195 -342.620638 
L 147.472847 -342.374628 
L 144.826193 -341.824437 
L 142.17954 -341.844425 
L 139.532887 -341.508009 
L 136.886233 -341.604047 
L 134.23958 -340.618627 
L 131.592927 -339.46358 
L 128.946273 -338.752421 
L 126.29962 -338.779754 
L 123.652967 -338.305404 
L 121.006313 -337.580558 
L 118.35966 -337.692391 
L 115.713007 -337.327912 
L 113.066353 -336.933473 
L 110.4197 -336.345142 
L 107.773047 -335.487078 
L 105.126393 -334.80515 
L 102.47974 -333.828764 
L 99.833087 -333.261151 
L 97.186433 -332.808 
L 94.53978 -331.730944 
L 91.893127 -331.156842 
L 89.246473 -330.105574 
L 86.59982 -328.384584 
L 83.953167 -326.969881 
L 81.306513 -325.508589 
L 78.65986 -324.841683 
L 76.013207 -323.248716 
L 73.366553 -321.697122 
L 70.7199 -320.128316 
L 68.073247 -317.934061 
L 65.426593 -315.71719 
L 62.77994 -313.60201 
L 60.133287 -311.697769 
L 57.486633 -308.32439 
L 54.83998 -305.442136 
L 52.193327 -305.240065 
z
" style="stroke: #0000ff; stroke-opacity: 0.2"/>
    </defs>
    <g clip-path="url(#p83a92d416a)">
     <use xlink:href="#m5c9b94663a" x="0" y="432" style="fill: #0000ff; fill-opacity: 0.2; stroke: #0000ff; stroke-opacity: 0.2"/>
    </g>
   </g>
   <g id="matplotlib.axis_1">
    <g id="xtick_1">
     <g id="line2d_1">
      <defs>
       <path id="meb21bc7e4a" d="M 0 0 
L 0 3.5 
" style="stroke: #000000; stroke-width: 0.8"/>
      </defs>
      <g>
       <use xlink:href="#meb21bc7e4a" x="181.87934" y="390.04" style="stroke: #000000; stroke-width: 0.8"/>
      </g>
     </g>
     <g id="text_1">
      <!-- 50 -->
      <g transform="translate(175.51684 404.638438) scale(0.1 -0.1)">
       <defs>
        <path id="DejaVuSans-35" d="M 691 4666 
L 3169 4666 
L 3169 4134 
L 1269 4134 
L 1269 2991 
Q 1406 3038 1543 3061 
Q 1681 3084 1819 3084 
Q 2600 3084 3056 2656 
Q 3513 2228 3513 1497 
Q 3513 744 3044 326 
Q 2575 -91 1722 -91 
Q 1428 -91 1123 -41 
Q 819 9 494 109 
L 494 744 
Q 775 591 1075 516 
Q 1375 441 1709 441 
Q 2250 441 2565 725 
Q 2881 1009 2881 1497 
Q 2881 1984 2565 2268 
Q 2250 2553 1709 2553 
Q 1456 2553 1204 2497 
Q 953 2441 691 2322 
L 691 4666 
z
" transform="scale(0.015625)"/>
        <path id="DejaVuSans-30" d="M 2034 4250 
Q 1547 4250 1301 3770 
Q 1056 3291 1056 2328 
Q 1056 1369 1301 889 
Q 1547 409 2034 409 
Q 2525 409 2770 889 
Q 3016 1369 3016 2328 
Q 3016 3291 2770 3770 
Q 2525 4250 2034 4250 
z
M 2034 4750 
Q 2819 4750 3233 4129 
Q 3647 3509 3647 2328 
Q 3647 1150 3233 529 
Q 2819 -91 2034 -91 
Q 1250 -91 836 529 
Q 422 1150 422 2328 
Q 422 3509 836 4129 
Q 1250 4750 2034 4750 
z
" transform="scale(0.015625)"/>
       </defs>
       <use xlink:href="#DejaVuSans-35"/>
       <use xlink:href="#DejaVuSans-30" transform="translate(63.623047 0)"/>
      </g>
     </g>
    </g>
    <g id="xtick_2">
     <g id="line2d_2">
      <g>
       <use xlink:href="#meb21bc7e4a" x="314.212007" y="390.04" style="stroke: #000000; stroke-width: 0.8"/>
      </g>
     </g>
     <g id="text_2">
      <!-- 100 -->
      <g transform="translate(304.668257 404.638438) scale(0.1 -0.1)">
       <defs>
        <path id="DejaVuSans-31" d="M 794 531 
L 1825 531 
L 1825 4091 
L 703 3866 
L 703 4441 
L 1819 4666 
L 2450 4666 
L 2450 531 
L 3481 531 
L 3481 0 
L 794 0 
L 794 531 
z
" transform="scale(0.015625)"/>
       </defs>
       <use xlink:href="#DejaVuSans-31"/>
       <use xlink:href="#DejaVuSans-30" transform="translate(63.623047 0)"/>
       <use xlink:href="#DejaVuSans-30" transform="translate(127.246094 0)"/>
      </g>
     </g>
    </g>
    <g id="xtick_3">
     <g id="line2d_3">
      <g>
       <use xlink:href="#meb21bc7e4a" x="446.544673" y="390.04" style="stroke: #000000; stroke-width: 0.8"/>
      </g>
     </g>
     <g id="text_3">
      <!-- 150 -->
      <g transform="translate(437.000923 404.638438) scale(0.1 -0.1)">
       <use xlink:href="#DejaVuSans-31"/>
       <use xlink:href="#DejaVuSans-35" transform="translate(63.623047 0)"/>
       <use xlink:href="#DejaVuSans-30" transform="translate(127.246094 0)"/>
      </g>
     </g>
    </g>
    <g id="xtick_4">
     <g id="line2d_4">
      <g>
       <use xlink:href="#meb21bc7e4a" x="578.87734" y="390.04" style="stroke: #000000; stroke-width: 0.8"/>
      </g>
     </g>
     <g id="text_4">
      <!-- 200 -->
      <g transform="translate(569.33359 404.638438) scale(0.1 -0.1)">
       <defs>
        <path id="DejaVuSans-32" d="M 1228 531 
L 3431 531 
L 3431 0 
L 469 0 
L 469 531 
Q 828 903 1448 1529 
Q 2069 2156 2228 2338 
Q 2531 2678 2651 2914 
Q 2772 3150 2772 3378 
Q 2772 3750 2511 3984 
Q 2250 4219 1831 4219 
Q 1534 4219 1204 4116 
Q 875 4013 500 3803 
L 500 4441 
Q 881 4594 1212 4672 
Q 1544 4750 1819 4750 
Q 2544 4750 2975 4387 
Q 3406 4025 3406 3419 
Q 3406 3131 3298 2873 
Q 3191 2616 2906 2266 
Q 2828 2175 2409 1742 
Q 1991 1309 1228 531 
z
" transform="scale(0.015625)"/>
       </defs>
       <use xlink:href="#DejaVuSans-32"/>
       <use xlink:href="#DejaVuSans-30" transform="translate(63.623047 0)"/>
       <use xlink:href="#DejaVuSans-30" transform="translate(127.246094 0)"/>
      </g>
     </g>
    </g>
    <g id="xtick_5">
     <g id="line2d_5">
      <g>
       <use xlink:href="#meb21bc7e4a" x="711.210007" y="390.04" style="stroke: #000000; stroke-width: 0.8"/>
      </g>
     </g>
     <g id="text_5">
      <!-- 250 -->
      <g transform="translate(701.666257 404.638438) scale(0.1 -0.1)">
       <use xlink:href="#DejaVuSans-32"/>
       <use xlink:href="#DejaVuSans-35" transform="translate(63.623047 0)"/>
       <use xlink:href="#DejaVuSans-30" transform="translate(127.246094 0)"/>
      </g>
     </g>
    </g>
    <g id="xtick_6">
     <g id="line2d_6">
      <g>
       <use xlink:href="#meb21bc7e4a" x="843.542673" y="390.04" style="stroke: #000000; stroke-width: 0.8"/>
      </g>
     </g>
     <g id="text_6">
      <!-- 300 -->
      <g transform="translate(833.998923 404.638438) scale(0.1 -0.1)">
       <defs>
        <path id="DejaVuSans-33" d="M 2597 2516 
Q 3050 2419 3304 2112 
Q 3559 1806 3559 1356 
Q 3559 666 3084 287 
Q 2609 -91 1734 -91 
Q 1441 -91 1130 -33 
Q 819 25 488 141 
L 488 750 
Q 750 597 1062 519 
Q 1375 441 1716 441 
Q 2309 441 2620 675 
Q 2931 909 2931 1356 
Q 2931 1769 2642 2001 
Q 2353 2234 1838 2234 
L 1294 2234 
L 1294 2753 
L 1863 2753 
Q 2328 2753 2575 2939 
Q 2822 3125 2822 3475 
Q 2822 3834 2567 4026 
Q 2313 4219 1838 4219 
Q 1578 4219 1281 4162 
Q 984 4106 628 3988 
L 628 4550 
Q 988 4650 1302 4700 
Q 1616 4750 1894 4750 
Q 2613 4750 3031 4423 
Q 3450 4097 3450 3541 
Q 3450 3153 3228 2886 
Q 3006 2619 2597 2516 
z
" transform="scale(0.015625)"/>
       </defs>
       <use xlink:href="#DejaVuSans-33"/>
       <use xlink:href="#DejaVuSans-30" transform="translate(63.623047 0)"/>
       <use xlink:href="#DejaVuSans-30" transform="translate(127.246094 0)"/>
      </g>
     </g>
    </g>
    <g id="text_7">
     <!-- Step -->
     <g transform="translate(436.482844 418.316562) scale(0.1 -0.1)">
      <defs>
       <path id="DejaVuSans-53" d="M 3425 4513 
L 3425 3897 
Q 3066 4069 2747 4153 
Q 2428 4238 2131 4238 
Q 1616 4238 1336 4038 
Q 1056 3838 1056 3469 
Q 1056 3159 1242 3001 
Q 1428 2844 1947 2747 
L 2328 2669 
Q 3034 2534 3370 2195 
Q 3706 1856 3706 1288 
Q 3706 609 3251 259 
Q 2797 -91 1919 -91 
Q 1588 -91 1214 -16 
Q 841 59 441 206 
L 441 856 
Q 825 641 1194 531 
Q 1563 422 1919 422 
Q 2459 422 2753 634 
Q 3047 847 3047 1241 
Q 3047 1584 2836 1778 
Q 2625 1972 2144 2069 
L 1759 2144 
Q 1053 2284 737 2584 
Q 422 2884 422 3419 
Q 422 4038 858 4394 
Q 1294 4750 2059 4750 
Q 2388 4750 2728 4690 
Q 3069 4631 3425 4513 
z
" transform="scale(0.015625)"/>
       <path id="DejaVuSans-74" d="M 1172 4494 
L 1172 3500 
L 2356 3500 
L 2356 3053 
L 1172 3053 
L 1172 1153 
Q 1172 725 1289 603 
Q 1406 481 1766 481 
L 2356 481 
L 2356 0 
L 1766 0 
Q 1100 0 847 248 
Q 594 497 594 1153 
L 594 3053 
L 172 3053 
L 172 3500 
L 594 3500 
L 594 4494 
L 1172 4494 
z
" transform="scale(0.015625)"/>
       <path id="DejaVuSans-65" d="M 3597 1894 
L 3597 1613 
L 953 1613 
Q 991 1019 1311 708 
Q 1631 397 2203 397 
Q 2534 397 2845 478 
Q 3156 559 3463 722 
L 3463 178 
Q 3153 47 2828 -22 
Q 2503 -91 2169 -91 
Q 1331 -91 842 396 
Q 353 884 353 1716 
Q 353 2575 817 3079 
Q 1281 3584 2069 3584 
Q 2775 3584 3186 3129 
Q 3597 2675 3597 1894 
z
M 3022 2063 
Q 3016 2534 2758 2815 
Q 2500 3097 2075 3097 
Q 1594 3097 1305 2825 
Q 1016 2553 972 2059 
L 3022 2063 
z
" transform="scale(0.015625)"/>
       <path id="DejaVuSans-70" d="M 1159 525 
L 1159 -1331 
L 581 -1331 
L 581 3500 
L 1159 3500 
L 1159 2969 
Q 1341 3281 1617 3432 
Q 1894 3584 2278 3584 
Q 2916 3584 3314 3078 
Q 3713 2572 3713 1747 
Q 3713 922 3314 415 
Q 2916 -91 2278 -91 
Q 1894 -91 1617 61 
Q 1341 213 1159 525 
z
M 3116 1747 
Q 3116 2381 2855 2742 
Q 2594 3103 2138 3103 
Q 1681 3103 1420 2742 
Q 1159 2381 1159 1747 
Q 1159 1113 1420 752 
Q 1681 391 2138 391 
Q 2594 391 2855 752 
Q 3116 1113 3116 1747 
z
" transform="scale(0.015625)"/>
      </defs>
      <use xlink:href="#DejaVuSans-53"/>
      <use xlink:href="#DejaVuSans-74" transform="translate(63.476562 0)"/>
      <use xlink:href="#DejaVuSans-65" transform="translate(102.685547 0)"/>
      <use xlink:href="#DejaVuSans-70" transform="translate(164.208984 0)"/>
     </g>
    </g>
   </g>
   <g id="matplotlib.axis_2">
    <g id="ytick_1">
     <g id="line2d_7">
      <defs>
       <path id="m5a70096d36" d="M 0 0 
L -3.5 0 
" style="stroke: #000000; stroke-width: 0.8"/>
      </defs>
      <g>
       <use xlink:href="#m5a70096d36" x="50.87" y="356.532558" style="stroke: #000000; stroke-width: 0.8"/>
      </g>
     </g>
     <g id="text_8">
      <!-- 20 -->
      <g transform="translate(31.145 360.331777) scale(0.1 -0.1)">
       <use xlink:href="#DejaVuSans-32"/>
       <use xlink:href="#DejaVuSans-30" transform="translate(63.623047 0)"/>
      </g>
     </g>
    </g>
    <g id="ytick_2">
     <g id="line2d_8">
      <g>
       <use xlink:href="#m5a70096d36" x="50.87" y="301.838094" style="stroke: #000000; stroke-width: 0.8"/>
      </g>
     </g>
     <g id="text_9">
      <!-- 40 -->
      <g transform="translate(31.145 305.637313) scale(0.1 -0.1)">
       <defs>
        <path id="DejaVuSans-34" d="M 2419 4116 
L 825 1625 
L 2419 1625 
L 2419 4116 
z
M 2253 4666 
L 3047 4666 
L 3047 1625 
L 3713 1625 
L 3713 1100 
L 3047 1100 
L 3047 0 
L 2419 0 
L 2419 1100 
L 313 1100 
L 313 1709 
L 2253 4666 
z
" transform="scale(0.015625)"/>
       </defs>
       <use xlink:href="#DejaVuSans-34"/>
       <use xlink:href="#DejaVuSans-30" transform="translate(63.623047 0)"/>
      </g>
     </g>
    </g>
    <g id="ytick_3">
     <g id="line2d_9">
      <g>
       <use xlink:href="#m5a70096d36" x="50.87" y="247.14363" style="stroke: #000000; stroke-width: 0.8"/>
      </g>
     </g>
     <g id="text_10">
      <!-- 60 -->
      <g transform="translate(31.145 250.942849) scale(0.1 -0.1)">
       <defs>
        <path id="DejaVuSans-36" d="M 2113 2584 
Q 1688 2584 1439 2293 
Q 1191 2003 1191 1497 
Q 1191 994 1439 701 
Q 1688 409 2113 409 
Q 2538 409 2786 701 
Q 3034 994 3034 1497 
Q 3034 2003 2786 2293 
Q 2538 2584 2113 2584 
z
M 3366 4563 
L 3366 3988 
Q 3128 4100 2886 4159 
Q 2644 4219 2406 4219 
Q 1781 4219 1451 3797 
Q 1122 3375 1075 2522 
Q 1259 2794 1537 2939 
Q 1816 3084 2150 3084 
Q 2853 3084 3261 2657 
Q 3669 2231 3669 1497 
Q 3669 778 3244 343 
Q 2819 -91 2113 -91 
Q 1303 -91 875 529 
Q 447 1150 447 2328 
Q 447 3434 972 4092 
Q 1497 4750 2381 4750 
Q 2619 4750 2861 4703 
Q 3103 4656 3366 4563 
z
" transform="scale(0.015625)"/>
       </defs>
       <use xlink:href="#DejaVuSans-36"/>
       <use xlink:href="#DejaVuSans-30" transform="translate(63.623047 0)"/>
      </g>
     </g>
    </g>
    <g id="ytick_4">
     <g id="line2d_10">
      <g>
       <use xlink:href="#m5a70096d36" x="50.87" y="192.449166" style="stroke: #000000; stroke-width: 0.8"/>
      </g>
     </g>
     <g id="text_11">
      <!-- 80 -->
      <g transform="translate(31.145 196.248385) scale(0.1 -0.1)">
       <defs>
        <path id="DejaVuSans-38" d="M 2034 2216 
Q 1584 2216 1326 1975 
Q 1069 1734 1069 1313 
Q 1069 891 1326 650 
Q 1584 409 2034 409 
Q 2484 409 2743 651 
Q 3003 894 3003 1313 
Q 3003 1734 2745 1975 
Q 2488 2216 2034 2216 
z
M 1403 2484 
Q 997 2584 770 2862 
Q 544 3141 544 3541 
Q 544 4100 942 4425 
Q 1341 4750 2034 4750 
Q 2731 4750 3128 4425 
Q 3525 4100 3525 3541 
Q 3525 3141 3298 2862 
Q 3072 2584 2669 2484 
Q 3125 2378 3379 2068 
Q 3634 1759 3634 1313 
Q 3634 634 3220 271 
Q 2806 -91 2034 -91 
Q 1263 -91 848 271 
Q 434 634 434 1313 
Q 434 1759 690 2068 
Q 947 2378 1403 2484 
z
M 1172 3481 
Q 1172 3119 1398 2916 
Q 1625 2713 2034 2713 
Q 2441 2713 2670 2916 
Q 2900 3119 2900 3481 
Q 2900 3844 2670 4047 
Q 2441 4250 2034 4250 
Q 1625 4250 1398 4047 
Q 1172 3844 1172 3481 
z
" transform="scale(0.015625)"/>
       </defs>
       <use xlink:href="#DejaVuSans-38"/>
       <use xlink:href="#DejaVuSans-30" transform="translate(63.623047 0)"/>
      </g>
     </g>
    </g>
    <g id="ytick_5">
     <g id="line2d_11">
      <g>
       <use xlink:href="#m5a70096d36" x="50.87" y="137.754702" style="stroke: #000000; stroke-width: 0.8"/>
      </g>
     </g>
     <g id="text_12">
      <!-- 100 -->
      <g transform="translate(24.7825 141.553921) scale(0.1 -0.1)">
       <use xlink:href="#DejaVuSans-31"/>
       <use xlink:href="#DejaVuSans-30" transform="translate(63.623047 0)"/>
       <use xlink:href="#DejaVuSans-30" transform="translate(127.246094 0)"/>
      </g>
     </g>
    </g>
    <g id="ytick_6">
     <g id="line2d_12">
      <g>
       <use xlink:href="#m5a70096d36" x="50.87" y="83.060238" style="stroke: #000000; stroke-width: 0.8"/>
      </g>
     </g>
     <g id="text_13">
      <!-- 120 -->
      <g transform="translate(24.7825 86.859457) scale(0.1 -0.1)">
       <use xlink:href="#DejaVuSans-31"/>
       <use xlink:href="#DejaVuSans-32" transform="translate(63.623047 0)"/>
       <use xlink:href="#DejaVuSans-30" transform="translate(127.246094 0)"/>
      </g>
     </g>
    </g>
    <g id="text_14">
     <!-- Profit -->
     <g transform="translate(18.702813 229.779063) rotate(-90) scale(0.1 -0.1)">
      <defs>
       <path id="DejaVuSans-50" d="M 1259 4147 
L 1259 2394 
L 2053 2394 
Q 2494 2394 2734 2622 
Q 2975 2850 2975 3272 
Q 2975 3691 2734 3919 
Q 2494 4147 2053 4147 
L 1259 4147 
z
M 628 4666 
L 2053 4666 
Q 2838 4666 3239 4311 
Q 3641 3956 3641 3272 
Q 3641 2581 3239 2228 
Q 2838 1875 2053 1875 
L 1259 1875 
L 1259 0 
L 628 0 
L 628 4666 
z
" transform="scale(0.015625)"/>
       <path id="DejaVuSans-72" d="M 2631 2963 
Q 2534 3019 2420 3045 
Q 2306 3072 2169 3072 
Q 1681 3072 1420 2755 
Q 1159 2438 1159 1844 
L 1159 0 
L 581 0 
L 581 3500 
L 1159 3500 
L 1159 2956 
Q 1341 3275 1631 3429 
Q 1922 3584 2338 3584 
Q 2397 3584 2469 3576 
Q 2541 3569 2628 3553 
L 2631 2963 
z
" transform="scale(0.015625)"/>
       <path id="DejaVuSans-6f" d="M 1959 3097 
Q 1497 3097 1228 2736 
Q 959 2375 959 1747 
Q 959 1119 1226 758 
Q 1494 397 1959 397 
Q 2419 397 2687 759 
Q 2956 1122 2956 1747 
Q 2956 2369 2687 2733 
Q 2419 3097 1959 3097 
z
M 1959 3584 
Q 2709 3584 3137 3096 
Q 3566 2609 3566 1747 
Q 3566 888 3137 398 
Q 2709 -91 1959 -91 
Q 1206 -91 779 398 
Q 353 888 353 1747 
Q 353 2609 779 3096 
Q 1206 3584 1959 3584 
z
" transform="scale(0.015625)"/>
       <path id="DejaVuSans-66" d="M 2375 4863 
L 2375 4384 
L 1825 4384 
Q 1516 4384 1395 4259 
Q 1275 4134 1275 3809 
L 1275 3500 
L 2222 3500 
L 2222 3053 
L 1275 3053 
L 1275 0 
L 697 0 
L 697 3053 
L 147 3053 
L 147 3500 
L 697 3500 
L 697 3744 
Q 697 4328 969 4595 
Q 1241 4863 1831 4863 
L 2375 4863 
z
" transform="scale(0.015625)"/>
       <path id="DejaVuSans-69" d="M 603 3500 
L 1178 3500 
L 1178 0 
L 603 0 
L 603 3500 
z
M 603 4863 
L 1178 4863 
L 1178 4134 
L 603 4134 
L 603 4863 
z
" transform="scale(0.015625)"/>
      </defs>
      <use xlink:href="#DejaVuSans-50"/>
      <use xlink:href="#DejaVuSans-72" transform="translate(58.552734 0)"/>
      <use xlink:href="#DejaVuSans-6f" transform="translate(97.416016 0)"/>
      <use xlink:href="#DejaVuSans-66" transform="translate(158.597656 0)"/>
      <use xlink:href="#DejaVuSans-69" transform="translate(193.802734 0)"/>
      <use xlink:href="#DejaVuSans-74" transform="translate(221.585938 0)"/>
     </g>
    </g>
   </g>
   <g id="line2d_13">
    <path d="M 52.193327 250.240777 
L 54.83998 250.421659 
L 57.486633 245.640254 
L 60.133287 240.505742 
L 65.426593 231.891485 
L 68.073247 227.678444 
L 70.7199 223.86992 
L 73.366553 220.700594 
L 76.013207 217.845713 
L 78.65986 215.32681 
L 89.246473 206.009489 
L 94.53978 202.287239 
L 99.833087 199.115388 
L 102.47974 197.522191 
L 105.126393 196.128457 
L 107.773047 194.886699 
L 110.4197 193.120892 
L 115.713007 190.714739 
L 118.35966 189.765874 
L 121.006313 188.620925 
L 126.29962 186.87012 
L 131.592927 185.032519 
L 134.23958 184.535928 
L 136.886233 183.92329 
L 142.17954 182.107263 
L 144.826193 181.305783 
L 150.1195 180.381349 
L 152.766153 179.580369 
L 160.706113 177.834905 
L 168.646073 176.232528 
L 173.93938 175.681774 
L 184.525993 173.728355 
L 187.172647 173.374101 
L 189.8193 172.603019 
L 195.112607 171.693545 
L 203.052567 170.630385 
L 205.69922 170.18076 
L 208.345873 169.880376 
L 213.63918 168.909436 
L 226.872447 166.972542 
L 234.812407 166.123533 
L 237.45906 165.620725 
L 242.752367 165.023046 
L 248.045673 164.64244 
L 250.692327 164.194547 
L 253.33898 164.026172 
L 261.27894 163.031613 
L 263.925593 162.895244 
L 274.512207 161.743035 
L 300.97874 159.860117 
L 306.272047 159.515585 
L 327.445273 157.857689 
L 332.73858 157.308123 
L 338.031887 157.034426 
L 343.325193 156.550833 
L 345.971847 156.381707 
L 351.265153 156.245985 
L 356.55846 155.796986 
L 361.851767 155.679186 
L 364.49842 155.365492 
L 372.43838 155.002328 
L 404.19822 153.061512 
L 406.844873 152.82368 
L 433.311407 151.568443 
L 441.251367 150.837337 
L 443.89802 150.639732 
L 457.131287 150.245459 
L 459.77794 150.092649 
L 465.071247 150.053445 
L 494.184433 148.824769 
L 496.831087 148.626475 
L 502.124393 148.494863 
L 510.064353 148.071047 
L 523.29762 147.6547 
L 539.17754 146.976402 
L 541.824193 146.994721 
L 565.644073 146.142895 
L 581.523993 145.811236 
L 584.170647 145.608185 
L 594.75726 145.34348 
L 600.050567 145.359587 
L 605.343873 145.018769 
L 607.990527 145.024653 
L 613.283833 144.826275 
L 618.57714 144.82181 
L 623.870447 144.491821 
L 629.163753 144.520759 
L 634.45706 144.392757 
L 637.103713 144.235816 
L 639.750367 144.239613 
L 655.630287 143.568117 
L 666.2169 143.334041 
L 671.510207 143.179478 
L 679.450167 143.000901 
L 684.743473 142.701811 
L 687.390127 142.536817 
L 690.03678 142.506355 
L 695.330087 142.303429 
L 697.97674 142.207662 
L 703.270047 142.250392 
L 716.503313 141.911389 
L 721.79662 141.729786 
L 729.73658 141.392953 
L 748.263153 141.024323 
L 750.909807 141.132692 
L 758.849767 140.701991 
L 761.49642 140.773764 
L 764.143073 140.73264 
L 766.789727 140.504948 
L 780.022993 140.281033 
L 785.3163 140.316815 
L 787.962953 140.12261 
L 795.902913 139.908439 
L 798.549567 139.836415 
L 801.19622 139.888534 
L 809.13618 139.491591 
L 835.602713 139.034684 
L 840.89602 138.88104 
L 843.542673 138.854104 
L 843.542673 138.854104 
" clip-path="url(#p83a92d416a)" style="fill: none; stroke: #0000ff; stroke-width: 1.5; stroke-linecap: square"/>
   </g>
   <g id="patch_3">
    <path d="M 50.87 390.04 
L 50.87 43.44 
" style="fill: none; stroke: #000000; stroke-width: 0.8; stroke-linejoin: miter; stroke-linecap: square"/>
   </g>
   <g id="patch_4">
    <path d="M 844.866 390.04 
L 844.866 43.44 
" style="fill: none; stroke: #000000; stroke-width: 0.8; stroke-linejoin: miter; stroke-linecap: square"/>
   </g>
   <g id="patch_5">
    <path d="M 50.87 390.04 
L 844.866 390.04 
" style="fill: none; stroke: #000000; stroke-width: 0.8; stroke-linejoin: miter; stroke-linecap: square"/>
   </g>
   <g id="patch_6">
    <path d="M 50.87 43.44 
L 844.866 43.44 
" style="fill: none; stroke: #000000; stroke-width: 0.8; stroke-linejoin: miter; stroke-linecap: square"/>
   </g>
   <g id="text_15">
    <!-- Mean profit per step with confidence interval per simulation step -->
    <g transform="translate(220.284875 21.763062) scale(0.14 -0.14)">
     <defs>
      <path id="DejaVuSans-4d" d="M 628 4666 
L 1569 4666 
L 2759 1491 
L 3956 4666 
L 4897 4666 
L 4897 0 
L 4281 0 
L 4281 4097 
L 3078 897 
L 2444 897 
L 1241 4097 
L 1241 0 
L 628 0 
L 628 4666 
z
" transform="scale(0.015625)"/>
      <path id="DejaVuSans-61" d="M 2194 1759 
Q 1497 1759 1228 1600 
Q 959 1441 959 1056 
Q 959 750 1161 570 
Q 1363 391 1709 391 
Q 2188 391 2477 730 
Q 2766 1069 2766 1631 
L 2766 1759 
L 2194 1759 
z
M 3341 1997 
L 3341 0 
L 2766 0 
L 2766 531 
Q 2569 213 2275 61 
Q 1981 -91 1556 -91 
Q 1019 -91 701 211 
Q 384 513 384 1019 
Q 384 1609 779 1909 
Q 1175 2209 1959 2209 
L 2766 2209 
L 2766 2266 
Q 2766 2663 2505 2880 
Q 2244 3097 1772 3097 
Q 1472 3097 1187 3025 
Q 903 2953 641 2809 
L 641 3341 
Q 956 3463 1253 3523 
Q 1550 3584 1831 3584 
Q 2591 3584 2966 3190 
Q 3341 2797 3341 1997 
z
" transform="scale(0.015625)"/>
      <path id="DejaVuSans-6e" d="M 3513 2113 
L 3513 0 
L 2938 0 
L 2938 2094 
Q 2938 2591 2744 2837 
Q 2550 3084 2163 3084 
Q 1697 3084 1428 2787 
Q 1159 2491 1159 1978 
L 1159 0 
L 581 0 
L 581 3500 
L 1159 3500 
L 1159 2956 
Q 1366 3272 1645 3428 
Q 1925 3584 2291 3584 
Q 2894 3584 3203 3211 
Q 3513 2838 3513 2113 
z
" transform="scale(0.015625)"/>
      <path id="DejaVuSans-20" transform="scale(0.015625)"/>
      <path id="DejaVuSans-73" d="M 2834 3397 
L 2834 2853 
Q 2591 2978 2328 3040 
Q 2066 3103 1784 3103 
Q 1356 3103 1142 2972 
Q 928 2841 928 2578 
Q 928 2378 1081 2264 
Q 1234 2150 1697 2047 
L 1894 2003 
Q 2506 1872 2764 1633 
Q 3022 1394 3022 966 
Q 3022 478 2636 193 
Q 2250 -91 1575 -91 
Q 1294 -91 989 -36 
Q 684 19 347 128 
L 347 722 
Q 666 556 975 473 
Q 1284 391 1588 391 
Q 1994 391 2212 530 
Q 2431 669 2431 922 
Q 2431 1156 2273 1281 
Q 2116 1406 1581 1522 
L 1381 1569 
Q 847 1681 609 1914 
Q 372 2147 372 2553 
Q 372 3047 722 3315 
Q 1072 3584 1716 3584 
Q 2034 3584 2315 3537 
Q 2597 3491 2834 3397 
z
" transform="scale(0.015625)"/>
      <path id="DejaVuSans-77" d="M 269 3500 
L 844 3500 
L 1563 769 
L 2278 3500 
L 2956 3500 
L 3675 769 
L 4391 3500 
L 4966 3500 
L 4050 0 
L 3372 0 
L 2619 2869 
L 1863 0 
L 1184 0 
L 269 3500 
z
" transform="scale(0.015625)"/>
      <path id="DejaVuSans-68" d="M 3513 2113 
L 3513 0 
L 2938 0 
L 2938 2094 
Q 2938 2591 2744 2837 
Q 2550 3084 2163 3084 
Q 1697 3084 1428 2787 
Q 1159 2491 1159 1978 
L 1159 0 
L 581 0 
L 581 4863 
L 1159 4863 
L 1159 2956 
Q 1366 3272 1645 3428 
Q 1925 3584 2291 3584 
Q 2894 3584 3203 3211 
Q 3513 2838 3513 2113 
z
" transform="scale(0.015625)"/>
      <path id="DejaVuSans-63" d="M 3122 3366 
L 3122 2828 
Q 2878 2963 2633 3030 
Q 2388 3097 2138 3097 
Q 1578 3097 1268 2742 
Q 959 2388 959 1747 
Q 959 1106 1268 751 
Q 1578 397 2138 397 
Q 2388 397 2633 464 
Q 2878 531 3122 666 
L 3122 134 
Q 2881 22 2623 -34 
Q 2366 -91 2075 -91 
Q 1284 -91 818 406 
Q 353 903 353 1747 
Q 353 2603 823 3093 
Q 1294 3584 2113 3584 
Q 2378 3584 2631 3529 
Q 2884 3475 3122 3366 
z
" transform="scale(0.015625)"/>
      <path id="DejaVuSans-64" d="M 2906 2969 
L 2906 4863 
L 3481 4863 
L 3481 0 
L 2906 0 
L 2906 525 
Q 2725 213 2448 61 
Q 2172 -91 1784 -91 
Q 1150 -91 751 415 
Q 353 922 353 1747 
Q 353 2572 751 3078 
Q 1150 3584 1784 3584 
Q 2172 3584 2448 3432 
Q 2725 3281 2906 2969 
z
M 947 1747 
Q 947 1113 1208 752 
Q 1469 391 1925 391 
Q 2381 391 2643 752 
Q 2906 1113 2906 1747 
Q 2906 2381 2643 2742 
Q 2381 3103 1925 3103 
Q 1469 3103 1208 2742 
Q 947 2381 947 1747 
z
" transform="scale(0.015625)"/>
      <path id="DejaVuSans-76" d="M 191 3500 
L 800 3500 
L 1894 563 
L 2988 3500 
L 3597 3500 
L 2284 0 
L 1503 0 
L 191 3500 
z
" transform="scale(0.015625)"/>
      <path id="DejaVuSans-6c" d="M 603 4863 
L 1178 4863 
L 1178 0 
L 603 0 
L 603 4863 
z
" transform="scale(0.015625)"/>
      <path id="DejaVuSans-6d" d="M 3328 2828 
Q 3544 3216 3844 3400 
Q 4144 3584 4550 3584 
Q 5097 3584 5394 3201 
Q 5691 2819 5691 2113 
L 5691 0 
L 5113 0 
L 5113 2094 
Q 5113 2597 4934 2840 
Q 4756 3084 4391 3084 
Q 3944 3084 3684 2787 
Q 3425 2491 3425 1978 
L 3425 0 
L 2847 0 
L 2847 2094 
Q 2847 2600 2669 2842 
Q 2491 3084 2119 3084 
Q 1678 3084 1418 2786 
Q 1159 2488 1159 1978 
L 1159 0 
L 581 0 
L 581 3500 
L 1159 3500 
L 1159 2956 
Q 1356 3278 1631 3431 
Q 1906 3584 2284 3584 
Q 2666 3584 2933 3390 
Q 3200 3197 3328 2828 
z
" transform="scale(0.015625)"/>
      <path id="DejaVuSans-75" d="M 544 1381 
L 544 3500 
L 1119 3500 
L 1119 1403 
Q 1119 906 1312 657 
Q 1506 409 1894 409 
Q 2359 409 2629 706 
Q 2900 1003 2900 1516 
L 2900 3500 
L 3475 3500 
L 3475 0 
L 2900 0 
L 2900 538 
Q 2691 219 2414 64 
Q 2138 -91 1772 -91 
Q 1169 -91 856 284 
Q 544 659 544 1381 
z
M 1991 3584 
L 1991 3584 
z
" transform="scale(0.015625)"/>
     </defs>
     <use xlink:href="#DejaVuSans-4d"/>
     <use xlink:href="#DejaVuSans-65" transform="translate(86.279297 0)"/>
     <use xlink:href="#DejaVuSans-61" transform="translate(147.802734 0)"/>
     <use xlink:href="#DejaVuSans-6e" transform="translate(209.082031 0)"/>
     <use xlink:href="#DejaVuSans-20" transform="translate(272.460938 0)"/>
     <use xlink:href="#DejaVuSans-70" transform="translate(304.248047 0)"/>
     <use xlink:href="#DejaVuSans-72" transform="translate(367.724609 0)"/>
     <use xlink:href="#DejaVuSans-6f" transform="translate(406.587891 0)"/>
     <use xlink:href="#DejaVuSans-66" transform="translate(467.769531 0)"/>
     <use xlink:href="#DejaVuSans-69" transform="translate(502.974609 0)"/>
     <use xlink:href="#DejaVuSans-74" transform="translate(530.757812 0)"/>
     <use xlink:href="#DejaVuSans-20" transform="translate(569.966797 0)"/>
     <use xlink:href="#DejaVuSans-70" transform="translate(601.753906 0)"/>
     <use xlink:href="#DejaVuSans-65" transform="translate(665.230469 0)"/>
     <use xlink:href="#DejaVuSans-72" transform="translate(726.753906 0)"/>
     <use xlink:href="#DejaVuSans-20" transform="translate(767.867188 0)"/>
     <use xlink:href="#DejaVuSans-73" transform="translate(799.654297 0)"/>
     <use xlink:href="#DejaVuSans-74" transform="translate(851.753906 0)"/>
     <use xlink:href="#DejaVuSans-65" transform="translate(890.962891 0)"/>
     <use xlink:href="#DejaVuSans-70" transform="translate(952.486328 0)"/>
     <use xlink:href="#DejaVuSans-20" transform="translate(1015.962891 0)"/>
     <use xlink:href="#DejaVuSans-77" transform="translate(1047.75 0)"/>
     <use xlink:href="#DejaVuSans-69" transform="translate(1129.537109 0)"/>
     <use xlink:href="#DejaVuSans-74" transform="translate(1157.320312 0)"/>
     <use xlink:href="#DejaVuSans-68" transform="translate(1196.529297 0)"/>
     <use xlink:href="#DejaVuSans-20" transform="translate(1259.908203 0)"/>
     <use xlink:href="#DejaVuSans-63" transform="translate(1291.695312 0)"/>
     <use xlink:href="#DejaVuSans-6f" transform="translate(1346.675781 0)"/>
     <use xlink:href="#DejaVuSans-6e" transform="translate(1407.857422 0)"/>
     <use xlink:href="#DejaVuSans-66" transform="translate(1471.236328 0)"/>
     <use xlink:href="#DejaVuSans-69" transform="translate(1506.441406 0)"/>
     <use xlink:href="#DejaVuSans-64" transform="translate(1534.224609 0)"/>
     <use xlink:href="#DejaVuSans-65" transform="translate(1597.701172 0)"/>
     <use xlink:href="#DejaVuSans-6e" transform="translate(1659.224609 0)"/>
     <use xlink:href="#DejaVuSans-63" transform="translate(1722.603516 0)"/>
     <use xlink:href="#DejaVuSans-65" transform="translate(1777.583984 0)"/>
     <use xlink:href="#DejaVuSans-20" transform="translate(1839.107422 0)"/>
     <use xlink:href="#DejaVuSans-69" transform="translate(1870.894531 0)"/>
     <use xlink:href="#DejaVuSans-6e" transform="translate(1898.677734 0)"/>
     <use xlink:href="#DejaVuSans-74" transform="translate(1962.056641 0)"/>
     <use xlink:href="#DejaVuSans-65" transform="translate(2001.265625 0)"/>
     <use xlink:href="#DejaVuSans-72" transform="translate(2062.789062 0)"/>
     <use xlink:href="#DejaVuSans-76" transform="translate(2103.902344 0)"/>
     <use xlink:href="#DejaVuSans-61" transform="translate(2163.082031 0)"/>
     <use xlink:href="#DejaVuSans-6c" transform="translate(2224.361328 0)"/>
     <use xlink:href="#DejaVuSans-20" transform="translate(2252.144531 0)"/>
     <use xlink:href="#DejaVuSans-70" transform="translate(2283.931641 0)"/>
     <use xlink:href="#DejaVuSans-65" transform="translate(2347.408203 0)"/>
     <use xlink:href="#DejaVuSans-72" transform="translate(2408.931641 0)"/>
     <use xlink:href="#DejaVuSans-20" transform="translate(2450.044922 0)"/>
     <use xlink:href="#DejaVuSans-73" transform="translate(2481.832031 0)"/>
     <use xlink:href="#DejaVuSans-69" transform="translate(2533.931641 0)"/>
     <use xlink:href="#DejaVuSans-6d" transform="translate(2561.714844 0)"/>
     <use xlink:href="#DejaVuSans-75" transform="translate(2659.126953 0)"/>
     <use xlink:href="#DejaVuSans-6c" transform="translate(2722.505859 0)"/>
     <use xlink:href="#DejaVuSans-61" transform="translate(2750.289062 0)"/>
     <use xlink:href="#DejaVuSans-74" transform="translate(2811.568359 0)"/>
     <use xlink:href="#DejaVuSans-69" transform="translate(2850.777344 0)"/>
     <use xlink:href="#DejaVuSans-6f" transform="translate(2878.560547 0)"/>
     <use xlink:href="#DejaVuSans-6e" transform="translate(2939.742188 0)"/>
     <use xlink:href="#DejaVuSans-20" transform="translate(3003.121094 0)"/>
     <use xlink:href="#DejaVuSans-73" transform="translate(3034.908203 0)"/>
     <use xlink:href="#DejaVuSans-74" transform="translate(3087.007812 0)"/>
     <use xlink:href="#DejaVuSans-65" transform="translate(3126.216797 0)"/>
     <use xlink:href="#DejaVuSans-70" transform="translate(3187.740234 0)"/>
    </g>
    <!-- Base Product: Green Crack, Recipe size: 10, T0: 20.0 -->
    <g transform="translate(263.577687 37.44) scale(0.14 -0.14)">
     <defs>
      <path id="DejaVuSans-42" d="M 1259 2228 
L 1259 519 
L 2272 519 
Q 2781 519 3026 730 
Q 3272 941 3272 1375 
Q 3272 1813 3026 2020 
Q 2781 2228 2272 2228 
L 1259 2228 
z
M 1259 4147 
L 1259 2741 
L 2194 2741 
Q 2656 2741 2882 2914 
Q 3109 3088 3109 3444 
Q 3109 3797 2882 3972 
Q 2656 4147 2194 4147 
L 1259 4147 
z
M 628 4666 
L 2241 4666 
Q 2963 4666 3353 4366 
Q 3744 4066 3744 3513 
Q 3744 3084 3544 2831 
Q 3344 2578 2956 2516 
Q 3422 2416 3680 2098 
Q 3938 1781 3938 1306 
Q 3938 681 3513 340 
Q 3088 0 2303 0 
L 628 0 
L 628 4666 
z
" transform="scale(0.015625)"/>
      <path id="DejaVuSans-3a" d="M 750 794 
L 1409 794 
L 1409 0 
L 750 0 
L 750 794 
z
M 750 3309 
L 1409 3309 
L 1409 2516 
L 750 2516 
L 750 3309 
z
" transform="scale(0.015625)"/>
      <path id="DejaVuSans-47" d="M 3809 666 
L 3809 1919 
L 2778 1919 
L 2778 2438 
L 4434 2438 
L 4434 434 
Q 4069 175 3628 42 
Q 3188 -91 2688 -91 
Q 1594 -91 976 548 
Q 359 1188 359 2328 
Q 359 3472 976 4111 
Q 1594 4750 2688 4750 
Q 3144 4750 3555 4637 
Q 3966 4525 4313 4306 
L 4313 3634 
Q 3963 3931 3569 4081 
Q 3175 4231 2741 4231 
Q 1884 4231 1454 3753 
Q 1025 3275 1025 2328 
Q 1025 1384 1454 906 
Q 1884 428 2741 428 
Q 3075 428 3337 486 
Q 3600 544 3809 666 
z
" transform="scale(0.015625)"/>
      <path id="DejaVuSans-43" d="M 4122 4306 
L 4122 3641 
Q 3803 3938 3442 4084 
Q 3081 4231 2675 4231 
Q 1875 4231 1450 3742 
Q 1025 3253 1025 2328 
Q 1025 1406 1450 917 
Q 1875 428 2675 428 
Q 3081 428 3442 575 
Q 3803 722 4122 1019 
L 4122 359 
Q 3791 134 3420 21 
Q 3050 -91 2638 -91 
Q 1578 -91 968 557 
Q 359 1206 359 2328 
Q 359 3453 968 4101 
Q 1578 4750 2638 4750 
Q 3056 4750 3426 4639 
Q 3797 4528 4122 4306 
z
" transform="scale(0.015625)"/>
      <path id="DejaVuSans-6b" d="M 581 4863 
L 1159 4863 
L 1159 1991 
L 2875 3500 
L 3609 3500 
L 1753 1863 
L 3688 0 
L 2938 0 
L 1159 1709 
L 1159 0 
L 581 0 
L 581 4863 
z
" transform="scale(0.015625)"/>
      <path id="DejaVuSans-2c" d="M 750 794 
L 1409 794 
L 1409 256 
L 897 -744 
L 494 -744 
L 750 256 
L 750 794 
z
" transform="scale(0.015625)"/>
      <path id="DejaVuSans-52" d="M 2841 2188 
Q 3044 2119 3236 1894 
Q 3428 1669 3622 1275 
L 4263 0 
L 3584 0 
L 2988 1197 
Q 2756 1666 2539 1819 
Q 2322 1972 1947 1972 
L 1259 1972 
L 1259 0 
L 628 0 
L 628 4666 
L 2053 4666 
Q 2853 4666 3247 4331 
Q 3641 3997 3641 3322 
Q 3641 2881 3436 2590 
Q 3231 2300 2841 2188 
z
M 1259 4147 
L 1259 2491 
L 2053 2491 
Q 2509 2491 2742 2702 
Q 2975 2913 2975 3322 
Q 2975 3731 2742 3939 
Q 2509 4147 2053 4147 
L 1259 4147 
z
" transform="scale(0.015625)"/>
      <path id="DejaVuSans-7a" d="M 353 3500 
L 3084 3500 
L 3084 2975 
L 922 459 
L 3084 459 
L 3084 0 
L 275 0 
L 275 525 
L 2438 3041 
L 353 3041 
L 353 3500 
z
" transform="scale(0.015625)"/>
      <path id="DejaVuSans-54" d="M -19 4666 
L 3928 4666 
L 3928 4134 
L 2272 4134 
L 2272 0 
L 1638 0 
L 1638 4134 
L -19 4134 
L -19 4666 
z
" transform="scale(0.015625)"/>
      <path id="DejaVuSans-2e" d="M 684 794 
L 1344 794 
L 1344 0 
L 684 0 
L 684 794 
z
" transform="scale(0.015625)"/>
     </defs>
     <use xlink:href="#DejaVuSans-42"/>
     <use xlink:href="#DejaVuSans-61" transform="translate(68.603516 0)"/>
     <use xlink:href="#DejaVuSans-73" transform="translate(129.882812 0)"/>
     <use xlink:href="#DejaVuSans-65" transform="translate(181.982422 0)"/>
     <use xlink:href="#DejaVuSans-20" transform="translate(243.505859 0)"/>
     <use xlink:href="#DejaVuSans-50" transform="translate(275.292969 0)"/>
     <use xlink:href="#DejaVuSans-72" transform="translate(333.845703 0)"/>
     <use xlink:href="#DejaVuSans-6f" transform="translate(372.708984 0)"/>
     <use xlink:href="#DejaVuSans-64" transform="translate(433.890625 0)"/>
     <use xlink:href="#DejaVuSans-75" transform="translate(497.367188 0)"/>
     <use xlink:href="#DejaVuSans-63" transform="translate(560.746094 0)"/>
     <use xlink:href="#DejaVuSans-74" transform="translate(615.726562 0)"/>
     <use xlink:href="#DejaVuSans-3a" transform="translate(654.935547 0)"/>
     <use xlink:href="#DejaVuSans-20" transform="translate(688.626953 0)"/>
     <use xlink:href="#DejaVuSans-47" transform="translate(720.414062 0)"/>
     <use xlink:href="#DejaVuSans-72" transform="translate(797.904297 0)"/>
     <use xlink:href="#DejaVuSans-65" transform="translate(836.767578 0)"/>
     <use xlink:href="#DejaVuSans-65" transform="translate(898.291016 0)"/>
     <use xlink:href="#DejaVuSans-6e" transform="translate(959.814453 0)"/>
     <use xlink:href="#DejaVuSans-20" transform="translate(1023.193359 0)"/>
     <use xlink:href="#DejaVuSans-43" transform="translate(1054.980469 0)"/>
     <use xlink:href="#DejaVuSans-72" transform="translate(1124.804688 0)"/>
     <use xlink:href="#DejaVuSans-61" transform="translate(1165.917969 0)"/>
     <use xlink:href="#DejaVuSans-63" transform="translate(1227.197266 0)"/>
     <use xlink:href="#DejaVuSans-6b" transform="translate(1282.177734 0)"/>
     <use xlink:href="#DejaVuSans-2c" transform="translate(1340.087891 0)"/>
     <use xlink:href="#DejaVuSans-20" transform="translate(1371.875 0)"/>
     <use xlink:href="#DejaVuSans-52" transform="translate(1403.662109 0)"/>
     <use xlink:href="#DejaVuSans-65" transform="translate(1468.644531 0)"/>
     <use xlink:href="#DejaVuSans-63" transform="translate(1530.167969 0)"/>
     <use xlink:href="#DejaVuSans-69" transform="translate(1585.148438 0)"/>
     <use xlink:href="#DejaVuSans-70" transform="translate(1612.931641 0)"/>
     <use xlink:href="#DejaVuSans-65" transform="translate(1676.408203 0)"/>
     <use xlink:href="#DejaVuSans-20" transform="translate(1737.931641 0)"/>
     <use xlink:href="#DejaVuSans-73" transform="translate(1769.71875 0)"/>
     <use xlink:href="#DejaVuSans-69" transform="translate(1821.818359 0)"/>
     <use xlink:href="#DejaVuSans-7a" transform="translate(1849.601562 0)"/>
     <use xlink:href="#DejaVuSans-65" transform="translate(1902.091797 0)"/>
     <use xlink:href="#DejaVuSans-3a" transform="translate(1963.615234 0)"/>
     <use xlink:href="#DejaVuSans-20" transform="translate(1997.306641 0)"/>
     <use xlink:href="#DejaVuSans-31" transform="translate(2029.09375 0)"/>
     <use xlink:href="#DejaVuSans-30" transform="translate(2092.716797 0)"/>
     <use xlink:href="#DejaVuSans-2c" transform="translate(2156.339844 0)"/>
     <use xlink:href="#DejaVuSans-20" transform="translate(2188.126953 0)"/>
     <use xlink:href="#DejaVuSans-54" transform="translate(2219.914062 0)"/>
     <use xlink:href="#DejaVuSans-30" transform="translate(2280.998047 0)"/>
     <use xlink:href="#DejaVuSans-3a" transform="translate(2344.621094 0)"/>
     <use xlink:href="#DejaVuSans-20" transform="translate(2378.3125 0)"/>
     <use xlink:href="#DejaVuSans-32" transform="translate(2410.099609 0)"/>
     <use xlink:href="#DejaVuSans-30" transform="translate(2473.722656 0)"/>
     <use xlink:href="#DejaVuSans-2e" transform="translate(2537.345703 0)"/>
     <use xlink:href="#DejaVuSans-30" transform="translate(2569.132812 0)"/>
    </g>
   </g>
  </g>
 </g>
 <defs>
  <clipPath id="p83a92d416a">
   <rect x="50.87" y="43.44" width="793.996" height="346.6"/>
  </clipPath>
 </defs>
</svg>
