<?xml version="1.0" encoding="utf-8" standalone="no"?>
<!DOCTYPE svg PUBLIC "-//W3C//DTD SVG 1.1//EN"
  "http://www.w3.org/Graphics/SVG/1.1/DTD/svg11.dtd">
<svg xmlns:xlink="http://www.w3.org/1999/xlink" width="864pt" height="432pt" viewBox="0 0 864 432" xmlns="http://www.w3.org/2000/svg" version="1.1">
 <metadata>
  <rdf:RDF xmlns:dc="http://purl.org/dc/elements/1.1/" xmlns:cc="http://creativecommons.org/ns#" xmlns:rdf="http://www.w3.org/1999/02/22-rdf-syntax-ns#">
   <cc:Work>
    <dc:type rdf:resource="http://purl.org/dc/dcmitype/StillImage"/>
    <dc:date>2025-05-24T02:11:42.342512</dc:date>
    <dc:format>image/svg+xml</dc:format>
    <dc:creator>
     <cc:Agent>
      <dc:title>Matplotlib v3.10.3, https://matplotlib.org/</dc:title>
     </cc:Agent>
    </dc:creator>
   </cc:Work>
  </rdf:RDF>
 </metadata>
 <defs>
  <style type="text/css">*{stroke-linejoin: round; stroke-linecap: butt}</style>
 </defs>
 <g id="figure_1">
  <g id="patch_1">
   <path d="M 0 432 
L 864 432 
L 864 0 
L 0 0 
z
" style="fill: #ffffff"/>
  </g>
  <g id="axes_1">
   <g id="patch_2">
    <path d="M 50.87 390.04 
L 844.866 390.04 
L 844.866 43.44 
L 50.87 43.44 
z
" style="fill: #ffffff"/>
   </g>
   <g id="FillBetweenPolyCollection_1">
    <defs>
     <path id="m4dedb21597" d="M 52.193327 -300.77886 
L 52.193327 -59.439171 
L 54.83998 -57.714545 
L 57.486633 -73.663121 
L 60.133287 -87.589151 
L 62.77994 -99.247728 
L 65.426593 -108.796531 
L 68.073247 -118.117752 
L 70.7199 -125.041066 
L 73.366553 -132.088686 
L 76.013207 -138.732903 
L 78.65986 -143.957716 
L 81.306513 -148.658986 
L 83.953167 -153.197915 
L 86.59982 -157.606794 
L 89.246473 -161.551762 
L 91.893127 -164.962895 
L 94.53978 -168.249484 
L 97.186433 -170.735909 
L 99.833087 -173.88989 
L 102.47974 -176.424746 
L 105.126393 -178.902343 
L 107.773047 -181.490776 
L 110.4197 -183.922138 
L 113.066353 -186.170265 
L 115.713007 -188.425074 
L 118.35966 -190.399363 
L 121.006313 -192.194366 
L 123.652967 -193.937266 
L 126.29962 -195.854233 
L 128.946273 -197.403409 
L 131.592927 -199.366725 
L 134.23958 -200.820771 
L 136.886233 -202.408931 
L 139.532887 -203.363671 
L 142.17954 -204.689565 
L 144.826193 -206.103967 
L 147.472847 -207.267675 
L 150.1195 -208.238586 
L 152.766153 -209.496247 
L 155.412807 -210.528151 
L 158.05946 -211.610487 
L 160.706113 -212.666833 
L 163.352767 -213.677636 
L 165.99942 -214.707127 
L 168.646073 -215.600049 
L 171.292727 -216.439775 
L 173.93938 -217.329624 
L 176.586033 -217.962034 
L 179.232687 -218.669276 
L 181.87934 -219.390297 
L 184.525993 -220.377132 
L 187.172647 -221.069214 
L 189.8193 -221.842915 
L 192.465953 -222.740437 
L 195.112607 -223.456507 
L 197.75926 -224.125096 
L 200.405913 -224.90385 
L 203.052567 -225.531598 
L 205.69922 -226.251959 
L 208.345873 -226.87719 
L 210.992527 -227.455187 
L 213.63918 -227.99488 
L 216.285833 -228.574794 
L 218.932487 -229.091427 
L 221.57914 -229.717855 
L 224.225793 -230.293046 
L 226.872447 -230.907613 
L 229.5191 -231.258388 
L 232.165753 -231.749114 
L 234.812407 -232.344622 
L 237.45906 -232.911563 
L 240.105713 -233.428423 
L 242.752367 -233.74339 
L 245.39902 -234.113821 
L 248.045673 -234.539904 
L 250.692327 -235.071759 
L 253.33898 -235.731952 
L 255.985633 -236.09073 
L 258.632287 -236.481602 
L 261.27894 -237.003288 
L 263.925593 -237.330013 
L 266.572247 -237.9808 
L 269.2189 -238.304286 
L 271.865553 -238.785874 
L 274.512207 -239.195744 
L 277.15886 -239.65522 
L 279.805513 -239.966 
L 282.452167 -240.432964 
L 285.09882 -240.875774 
L 287.745473 -241.20945 
L 290.392127 -241.627426 
L 293.03878 -241.898747 
L 295.685433 -242.207237 
L 298.332087 -242.480539 
L 300.97874 -242.695117 
L 303.625393 -243.089847 
L 306.272047 -243.271711 
L 308.9187 -243.590349 
L 311.565353 -243.916145 
L 314.212007 -244.302088 
L 316.85866 -244.631226 
L 319.505313 -244.851228 
L 322.151967 -245.273618 
L 324.79862 -245.579159 
L 327.445273 -245.823233 
L 330.091927 -246.007366 
L 332.73858 -246.227904 
L 335.385233 -246.546172 
L 338.031887 -246.820319 
L 340.67854 -247.093476 
L 343.325193 -247.287716 
L 345.971847 -247.545898 
L 348.6185 -247.734652 
L 351.265153 -247.971857 
L 353.911807 -248.206917 
L 356.55846 -248.527164 
L 359.205113 -248.870389 
L 361.851767 -249.099571 
L 364.49842 -249.292779 
L 367.145073 -249.536441 
L 369.791727 -249.842415 
L 372.43838 -250.139952 
L 375.085033 -250.321878 
L 377.731687 -250.577152 
L 380.37834 -250.891253 
L 383.024993 -251.113339 
L 385.671647 -251.318738 
L 388.3183 -251.506253 
L 390.964953 -251.717799 
L 393.611607 -251.957046 
L 396.25826 -252.136621 
L 398.904913 -252.331521 
L 401.551567 -252.570788 
L 404.19822 -252.806942 
L 406.844873 -253.061349 
L 409.491527 -253.3139 
L 412.13818 -253.588666 
L 414.784833 -253.812794 
L 417.431487 -254.076793 
L 420.07814 -254.275426 
L 422.724793 -254.448174 
L 425.371447 -254.520965 
L 428.0181 -254.718526 
L 430.664753 -254.89051 
L 433.311407 -255.076148 
L 435.95806 -255.200774 
L 438.604713 -255.391631 
L 441.251367 -255.53249 
L 443.89802 -255.763239 
L 446.544673 -255.912183 
L 449.191327 -256.060817 
L 451.83798 -256.178162 
L 454.484633 -256.41483 
L 457.131287 -256.559113 
L 459.77794 -256.674601 
L 462.424593 -256.85564 
L 465.071247 -257.061678 
L 467.7179 -257.236199 
L 470.364553 -257.467217 
L 473.011207 -257.664262 
L 475.65786 -257.849777 
L 478.304513 -258.041645 
L 480.951167 -258.177182 
L 483.59782 -258.349661 
L 486.244473 -258.415954 
L 488.891127 -258.564011 
L 491.53778 -258.731354 
L 494.184433 -258.848823 
L 496.831087 -258.991785 
L 499.47774 -259.123259 
L 502.124393 -259.180765 
L 504.771047 -259.305845 
L 507.4177 -259.437648 
L 510.064353 -259.541523 
L 512.711007 -259.655175 
L 515.35766 -259.870599 
L 518.004313 -260.008528 
L 520.650967 -260.130411 
L 523.29762 -260.303529 
L 525.944273 -260.41056 
L 528.590927 -260.497687 
L 531.23758 -260.609771 
L 533.884233 -260.712264 
L 536.530887 -260.779486 
L 539.17754 -260.918509 
L 541.824193 -261.033935 
L 544.470847 -261.196967 
L 547.1175 -261.40645 
L 549.764153 -261.565398 
L 552.410807 -261.711207 
L 555.05746 -261.856418 
L 557.704113 -261.953032 
L 560.350767 -262.049069 
L 562.99742 -262.206842 
L 565.644073 -262.319628 
L 568.290727 -262.453349 
L 570.93738 -262.550975 
L 573.584033 -262.647631 
L 576.230687 -262.819491 
L 578.87734 -262.986607 
L 581.523993 -263.132519 
L 584.170647 -263.186437 
L 586.8173 -263.285671 
L 589.463953 -263.36727 
L 592.110607 -263.455984 
L 594.75726 -263.580156 
L 597.403913 -263.710144 
L 600.050567 -263.778026 
L 602.69722 -263.905416 
L 605.343873 -263.985034 
L 607.990527 -264.036848 
L 610.63718 -264.134061 
L 613.283833 -264.226756 
L 615.930487 -264.3296 
L 618.57714 -264.455401 
L 621.223793 -264.486156 
L 623.870447 -264.593826 
L 626.5171 -264.704322 
L 629.163753 -264.76713 
L 631.810407 -264.859826 
L 634.45706 -264.960958 
L 637.103713 -265.067803 
L 639.750367 -265.117781 
L 642.39702 -265.18886 
L 645.043673 -265.231949 
L 647.690327 -265.274419 
L 650.33698 -265.302471 
L 652.983633 -265.339413 
L 655.630287 -265.435553 
L 658.27694 -265.5714 
L 660.923593 -265.642458 
L 663.570247 -265.77521 
L 666.2169 -265.803696 
L 668.863553 -265.898846 
L 671.510207 -265.983456 
L 674.15686 -266.01421 
L 676.803513 -266.06986 
L 679.450167 -266.216082 
L 682.09682 -266.272805 
L 684.743473 -266.366222 
L 687.390127 -266.451224 
L 690.03678 -266.603035 
L 692.683433 -266.665101 
L 695.330087 -266.762045 
L 697.97674 -266.829473 
L 700.623393 -266.928934 
L 703.270047 -267.04993 
L 705.9167 -267.226947 
L 708.563353 -267.287155 
L 711.210007 -267.337237 
L 713.85666 -267.423064 
L 716.503313 -267.555816 
L 719.149967 -267.612931 
L 721.79662 -267.688197 
L 724.443273 -267.813421 
L 727.089927 -267.88846 
L 729.73658 -267.968202 
L 732.383233 -268.050997 
L 735.029887 -268.136803 
L 737.67654 -268.186678 
L 740.323193 -268.224239 
L 742.969847 -268.388406 
L 745.6165 -268.496159 
L 748.263153 -268.63382 
L 750.909807 -268.761787 
L 753.55646 -268.864342 
L 756.203113 -268.947797 
L 758.849767 -269.059655 
L 761.49642 -269.191809 
L 764.143073 -269.254184 
L 766.789727 -269.313547 
L 769.43638 -269.369197 
L 772.083033 -269.482334 
L 774.729687 -269.572925 
L 777.37634 -269.606237 
L 780.022993 -269.689775 
L 782.669647 -269.806191 
L 785.3163 -269.939129 
L 787.962953 -269.906848 
L 790.609607 -269.975122 
L 793.25626 -270.097252 
L 795.902913 -270.175426 
L 798.549567 -270.241101 
L 801.19622 -270.356527 
L 803.842873 -270.418407 
L 806.489527 -270.46921 
L 809.13618 -270.546889 
L 811.782833 -270.674815 
L 814.429487 -270.695895 
L 817.07614 -270.691337 
L 819.722793 -270.808846 
L 822.369447 -270.885762 
L 825.0161 -270.921467 
L 827.662753 -270.980294 
L 830.309407 -271.021402 
L 832.95606 -270.988833 
L 835.602713 -271.088418 
L 838.249367 -271.192128 
L 840.89602 -271.256916 
L 843.542673 -271.307307 
L 843.542673 -372.805455 
L 843.542673 -372.805455 
L 840.89602 -372.778681 
L 838.249367 -372.731158 
L 835.602713 -372.737635 
L 832.95606 -372.750712 
L 830.309407 -372.654015 
L 827.662753 -372.587308 
L 825.0161 -372.547912 
L 822.369447 -372.502533 
L 819.722793 -372.496139 
L 817.07614 -372.499646 
L 814.429487 -372.435992 
L 811.782833 -372.383972 
L 809.13618 -372.35229 
L 806.489527 -372.344163 
L 803.842873 -372.304024 
L 801.19622 -372.303446 
L 798.549567 -372.308727 
L 795.902913 -372.23509 
L 793.25626 -372.168219 
L 790.609607 -372.170034 
L 787.962953 -372.102874 
L 785.3163 -371.972349 
L 782.669647 -371.959808 
L 780.022993 -371.930642 
L 777.37634 -371.91542 
L 774.729687 -371.815711 
L 772.083033 -371.795539 
L 769.43638 -371.774169 
L 766.789727 -371.699831 
L 764.143073 -371.631888 
L 761.49642 -371.570503 
L 758.849767 -371.594925 
L 756.203113 -371.582755 
L 753.55646 -371.573267 
L 750.909807 -371.552146 
L 748.263153 -371.537831 
L 745.6165 -371.533004 
L 742.969847 -371.532344 
L 740.323193 -371.560726 
L 737.67654 -371.495629 
L 735.029887 -371.444393 
L 732.383233 -371.42158 
L 729.73658 -371.400664 
L 727.089927 -371.368982 
L 724.443273 -371.315931 
L 721.79662 -371.318241 
L 719.149967 -371.28528 
L 716.503313 -371.220801 
L 713.85666 -371.24712 
L 711.210007 -371.218903 
L 708.563353 -371.150712 
L 705.9167 -371.098527 
L 703.270047 -371.10455 
L 700.623393 -371.089493 
L 697.97674 -371.00348 
L 695.330087 -370.955503 
L 692.683433 -370.943168 
L 690.03678 -370.843253 
L 687.390127 -370.861487 
L 684.743473 -370.837313 
L 682.09682 -370.808683 
L 679.450167 -370.747463 
L 676.803513 -370.735046 
L 674.15686 -370.674487 
L 671.510207 -370.575067 
L 668.863553 -370.556709 
L 666.2169 -370.527461 
L 663.570247 -370.450359 
L 660.923593 -370.413437 
L 658.27694 -370.322598 
L 655.630287 -370.307788 
L 652.983633 -370.256635 
L 650.33698 -370.201149 
L 647.690327 -370.079123 
L 645.043673 -370.024916 
L 642.39702 -369.93746 
L 639.750367 -369.846125 
L 637.103713 -369.815639 
L 634.45706 -369.765971 
L 631.810407 -369.680164 
L 629.163753 -369.63722 
L 626.5171 -369.585736 
L 623.870447 -369.538213 
L 621.223793 -369.508882 
L 618.57714 -369.428851 
L 615.930487 -369.35674 
L 613.283833 -369.283723 
L 610.63718 -369.240819 
L 607.990527 -369.140781 
L 605.343873 -369.016568 
L 602.69722 -368.897842 
L 600.050567 -368.808487 
L 597.403913 -368.704488 
L 594.75726 -368.645703 
L 592.110607 -368.613814 
L 589.463953 -368.551398 
L 586.8173 -368.479123 
L 584.170647 -368.377764 
L 581.523993 -368.208297 
L 578.87734 -368.148026 
L 576.230687 -368.084084 
L 573.584033 -368.049844 
L 570.93738 -367.983963 
L 568.290727 -367.861647 
L 565.644073 -367.832976 
L 562.99742 -367.754183 
L 560.350767 -367.694242 
L 557.704113 -367.584592 
L 555.05746 -367.492866 
L 552.410807 -367.461596 
L 549.764153 -367.428243 
L 547.1175 -367.373995 
L 544.470847 -367.369086 
L 541.824193 -367.354565 
L 539.17754 -367.261168 
L 536.530887 -367.223751 
L 533.884233 -367.131695 
L 531.23758 -367.048508 
L 528.590927 -366.998798 
L 525.944273 -366.896037 
L 523.29762 -366.765162 
L 520.650967 -366.729045 
L 518.004313 -366.591858 
L 515.35766 -366.522821 
L 512.711007 -366.504381 
L 510.064353 -366.394111 
L 507.4177 -366.286688 
L 504.771047 -366.223035 
L 502.124393 -366.165074 
L 499.47774 -365.986861 
L 496.831087 -365.938141 
L 494.184433 -365.854336 
L 491.53778 -365.732742 
L 488.891127 -365.686642 
L 486.244473 -365.631115 
L 483.59782 -365.43504 
L 480.951167 -365.341931 
L 478.304513 -365.262004 
L 475.65786 -365.234405 
L 473.011207 -365.163986 
L 470.364553 -365.126879 
L 467.7179 -365.089793 
L 465.071247 -364.985154 
L 462.424593 -364.957618 
L 459.77794 -364.935609 
L 457.131287 -364.849741 
L 454.484633 -364.748362 
L 451.83798 -364.704922 
L 449.191327 -364.468233 
L 446.544673 -364.387088 
L 443.89802 -364.306418 
L 441.251367 -364.201449 
L 438.604713 -364.080392 
L 435.95806 -363.977734 
L 433.311407 -363.808927 
L 430.664753 -363.713673 
L 428.0181 -363.64672 
L 425.371447 -363.590244 
L 422.724793 -363.425913 
L 420.07814 -363.28493 
L 417.431487 -363.184067 
L 414.784833 -363.110327 
L 412.13818 -363.034339 
L 409.491527 -362.970293 
L 406.844873 -362.960805 
L 404.19822 -362.94088 
L 401.551567 -362.826795 
L 398.904913 -362.719784 
L 396.25826 -362.592704 
L 393.611607 -362.529958 
L 390.964953 -362.435179 
L 388.3183 -362.292237 
L 385.671647 -362.153772 
L 383.024993 -362.020813 
L 380.37834 -361.893114 
L 377.731687 -361.845467 
L 375.085033 -361.664325 
L 372.43838 -361.574022 
L 369.791727 -361.494012 
L 367.145073 -361.445457 
L 364.49842 -361.402079 
L 361.851767 -361.218895 
L 359.205113 -361.110461 
L 356.55846 -361.030307 
L 353.911807 -360.917026 
L 351.265153 -360.818596 
L 348.6185 -360.672601 
L 345.971847 -360.485086 
L 343.325193 -360.339937 
L 340.67854 -360.085797 
L 338.031887 -359.919403 
L 335.385233 -359.809319 
L 332.73858 -359.672318 
L 330.091927 -359.550663 
L 327.445273 -359.341407 
L 324.79862 -359.166267 
L 322.151967 -359.090794 
L 319.505313 -359.028378 
L 316.85866 -358.816461 
L 314.212007 -358.667889 
L 311.565353 -358.566592 
L 308.9187 -358.409809 
L 306.272047 -358.202142 
L 303.625393 -357.972176 
L 300.97874 -357.839321 
L 298.332087 -357.576436 
L 295.685433 -357.365715 
L 293.03878 -357.129624 
L 290.392127 -356.963209 
L 287.745473 -356.855869 
L 285.09882 -356.726272 
L 282.452167 -356.598388 
L 279.805513 -356.501876 
L 277.15886 -356.248397 
L 274.512207 -356.184991 
L 271.865553 -356.022846 
L 269.2189 -355.927469 
L 266.572247 -355.673907 
L 263.925593 -355.621371 
L 261.27894 -355.304506 
L 258.632287 -355.188255 
L 255.985633 -354.881374 
L 253.33898 -354.64751 
L 250.692327 -354.574719 
L 248.045673 -354.405974 
L 245.39902 -354.185373 
L 242.752367 -353.875789 
L 240.105713 -353.566763 
L 237.45906 -353.362395 
L 234.812407 -353.112855 
L 232.165753 -353.000709 
L 229.5191 -352.737535 
L 226.872447 -352.464151 
L 224.225793 -352.384265 
L 221.57914 -352.132621 
L 218.932487 -351.941949 
L 216.285833 -351.633315 
L 213.63918 -351.399224 
L 210.992527 -351.11167 
L 208.345873 -350.806273 
L 205.69922 -350.496133 
L 203.052567 -350.318869 
L 200.405913 -350.111737 
L 197.75926 -349.83693 
L 195.112607 -349.49717 
L 192.465953 -349.206624 
L 189.8193 -349.102564 
L 187.172647 -348.845557 
L 184.525993 -348.466998 
L 181.87934 -348.347138 
L 179.232687 -347.987411 
L 176.586033 -347.685562 
L 173.93938 -347.116724 
L 171.292727 -346.759328 
L 168.646073 -346.437245 
L 165.99942 -345.996827 
L 163.352767 -345.643103 
L 160.706113 -345.249982 
L 158.05946 -344.869278 
L 155.412807 -344.514853 
L 152.766153 -343.988257 
L 150.1195 -343.645506 
L 147.472847 -343.13927 
L 144.826193 -342.707061 
L 142.17954 -342.343416 
L 139.532887 -341.779094 
L 136.886233 -341.149717 
L 134.23958 -340.826376 
L 131.592927 -340.301018 
L 128.946273 -340.074415 
L 126.29962 -339.366843 
L 123.652967 -338.984159 
L 121.006313 -338.452118 
L 118.35966 -337.885301 
L 115.713007 -337.334614 
L 113.066353 -336.918123 
L 110.4197 -336.441898 
L 107.773047 -335.869491 
L 105.126393 -335.221839 
L 102.47974 -334.236035 
L 99.833087 -333.380138 
L 97.186433 -332.764126 
L 94.53978 -331.423258 
L 91.893127 -330.330341 
L 89.246473 -329.413079 
L 86.59982 -328.492043 
L 83.953167 -327.662403 
L 81.306513 -326.411878 
L 78.65986 -324.904925 
L 76.013207 -323.358513 
L 73.366553 -322.173354 
L 70.7199 -320.872975 
L 68.073247 -318.517591 
L 65.426593 -316.789314 
L 62.77994 -313.752883 
L 60.133287 -310.623406 
L 57.486633 -306.83883 
L 54.83998 -302.336946 
L 52.193327 -300.77886 
z
" style="stroke: #0000ff; stroke-opacity: 0.2"/>
    </defs>
    <g clip-path="url(#p38f35558ed)">
     <use xlink:href="#m4dedb21597" x="0" y="432" style="fill: #0000ff; fill-opacity: 0.2; stroke: #0000ff; stroke-opacity: 0.2"/>
    </g>
   </g>
   <g id="matplotlib.axis_1">
    <g id="xtick_1">
     <g id="line2d_1">
      <defs>
       <path id="medc7019b4f" d="M 0 0 
L 0 3.5 
" style="stroke: #000000; stroke-width: 0.8"/>
      </defs>
      <g>
       <use xlink:href="#medc7019b4f" x="181.87934" y="390.04" style="stroke: #000000; stroke-width: 0.8"/>
      </g>
     </g>
     <g id="text_1">
      <!-- 50 -->
      <g transform="translate(175.51684 404.638438) scale(0.1 -0.1)">
       <defs>
        <path id="DejaVuSans-35" d="M 691 4666 
L 3169 4666 
L 3169 4134 
L 1269 4134 
L 1269 2991 
Q 1406 3038 1543 3061 
Q 1681 3084 1819 3084 
Q 2600 3084 3056 2656 
Q 3513 2228 3513 1497 
Q 3513 744 3044 326 
Q 2575 -91 1722 -91 
Q 1428 -91 1123 -41 
Q 819 9 494 109 
L 494 744 
Q 775 591 1075 516 
Q 1375 441 1709 441 
Q 2250 441 2565 725 
Q 2881 1009 2881 1497 
Q 2881 1984 2565 2268 
Q 2250 2553 1709 2553 
Q 1456 2553 1204 2497 
Q 953 2441 691 2322 
L 691 4666 
z
" transform="scale(0.015625)"/>
        <path id="DejaVuSans-30" d="M 2034 4250 
Q 1547 4250 1301 3770 
Q 1056 3291 1056 2328 
Q 1056 1369 1301 889 
Q 1547 409 2034 409 
Q 2525 409 2770 889 
Q 3016 1369 3016 2328 
Q 3016 3291 2770 3770 
Q 2525 4250 2034 4250 
z
M 2034 4750 
Q 2819 4750 3233 4129 
Q 3647 3509 3647 2328 
Q 3647 1150 3233 529 
Q 2819 -91 2034 -91 
Q 1250 -91 836 529 
Q 422 1150 422 2328 
Q 422 3509 836 4129 
Q 1250 4750 2034 4750 
z
" transform="scale(0.015625)"/>
       </defs>
       <use xlink:href="#DejaVuSans-35"/>
       <use xlink:href="#DejaVuSans-30" transform="translate(63.623047 0)"/>
      </g>
     </g>
    </g>
    <g id="xtick_2">
     <g id="line2d_2">
      <g>
       <use xlink:href="#medc7019b4f" x="314.212007" y="390.04" style="stroke: #000000; stroke-width: 0.8"/>
      </g>
     </g>
     <g id="text_2">
      <!-- 100 -->
      <g transform="translate(304.668257 404.638438) scale(0.1 -0.1)">
       <defs>
        <path id="DejaVuSans-31" d="M 794 531 
L 1825 531 
L 1825 4091 
L 703 3866 
L 703 4441 
L 1819 4666 
L 2450 4666 
L 2450 531 
L 3481 531 
L 3481 0 
L 794 0 
L 794 531 
z
" transform="scale(0.015625)"/>
       </defs>
       <use xlink:href="#DejaVuSans-31"/>
       <use xlink:href="#DejaVuSans-30" transform="translate(63.623047 0)"/>
       <use xlink:href="#DejaVuSans-30" transform="translate(127.246094 0)"/>
      </g>
     </g>
    </g>
    <g id="xtick_3">
     <g id="line2d_3">
      <g>
       <use xlink:href="#medc7019b4f" x="446.544673" y="390.04" style="stroke: #000000; stroke-width: 0.8"/>
      </g>
     </g>
     <g id="text_3">
      <!-- 150 -->
      <g transform="translate(437.000923 404.638438) scale(0.1 -0.1)">
       <use xlink:href="#DejaVuSans-31"/>
       <use xlink:href="#DejaVuSans-35" transform="translate(63.623047 0)"/>
       <use xlink:href="#DejaVuSans-30" transform="translate(127.246094 0)"/>
      </g>
     </g>
    </g>
    <g id="xtick_4">
     <g id="line2d_4">
      <g>
       <use xlink:href="#medc7019b4f" x="578.87734" y="390.04" style="stroke: #000000; stroke-width: 0.8"/>
      </g>
     </g>
     <g id="text_4">
      <!-- 200 -->
      <g transform="translate(569.33359 404.638438) scale(0.1 -0.1)">
       <defs>
        <path id="DejaVuSans-32" d="M 1228 531 
L 3431 531 
L 3431 0 
L 469 0 
L 469 531 
Q 828 903 1448 1529 
Q 2069 2156 2228 2338 
Q 2531 2678 2651 2914 
Q 2772 3150 2772 3378 
Q 2772 3750 2511 3984 
Q 2250 4219 1831 4219 
Q 1534 4219 1204 4116 
Q 875 4013 500 3803 
L 500 4441 
Q 881 4594 1212 4672 
Q 1544 4750 1819 4750 
Q 2544 4750 2975 4387 
Q 3406 4025 3406 3419 
Q 3406 3131 3298 2873 
Q 3191 2616 2906 2266 
Q 2828 2175 2409 1742 
Q 1991 1309 1228 531 
z
" transform="scale(0.015625)"/>
       </defs>
       <use xlink:href="#DejaVuSans-32"/>
       <use xlink:href="#DejaVuSans-30" transform="translate(63.623047 0)"/>
       <use xlink:href="#DejaVuSans-30" transform="translate(127.246094 0)"/>
      </g>
     </g>
    </g>
    <g id="xtick_5">
     <g id="line2d_5">
      <g>
       <use xlink:href="#medc7019b4f" x="711.210007" y="390.04" style="stroke: #000000; stroke-width: 0.8"/>
      </g>
     </g>
     <g id="text_5">
      <!-- 250 -->
      <g transform="translate(701.666257 404.638438) scale(0.1 -0.1)">
       <use xlink:href="#DejaVuSans-32"/>
       <use xlink:href="#DejaVuSans-35" transform="translate(63.623047 0)"/>
       <use xlink:href="#DejaVuSans-30" transform="translate(127.246094 0)"/>
      </g>
     </g>
    </g>
    <g id="xtick_6">
     <g id="line2d_6">
      <g>
       <use xlink:href="#medc7019b4f" x="843.542673" y="390.04" style="stroke: #000000; stroke-width: 0.8"/>
      </g>
     </g>
     <g id="text_6">
      <!-- 300 -->
      <g transform="translate(833.998923 404.638438) scale(0.1 -0.1)">
       <defs>
        <path id="DejaVuSans-33" d="M 2597 2516 
Q 3050 2419 3304 2112 
Q 3559 1806 3559 1356 
Q 3559 666 3084 287 
Q 2609 -91 1734 -91 
Q 1441 -91 1130 -33 
Q 819 25 488 141 
L 488 750 
Q 750 597 1062 519 
Q 1375 441 1716 441 
Q 2309 441 2620 675 
Q 2931 909 2931 1356 
Q 2931 1769 2642 2001 
Q 2353 2234 1838 2234 
L 1294 2234 
L 1294 2753 
L 1863 2753 
Q 2328 2753 2575 2939 
Q 2822 3125 2822 3475 
Q 2822 3834 2567 4026 
Q 2313 4219 1838 4219 
Q 1578 4219 1281 4162 
Q 984 4106 628 3988 
L 628 4550 
Q 988 4650 1302 4700 
Q 1616 4750 1894 4750 
Q 2613 4750 3031 4423 
Q 3450 4097 3450 3541 
Q 3450 3153 3228 2886 
Q 3006 2619 2597 2516 
z
" transform="scale(0.015625)"/>
       </defs>
       <use xlink:href="#DejaVuSans-33"/>
       <use xlink:href="#DejaVuSans-30" transform="translate(63.623047 0)"/>
       <use xlink:href="#DejaVuSans-30" transform="translate(127.246094 0)"/>
      </g>
     </g>
    </g>
    <g id="text_7">
     <!-- Step -->
     <g transform="translate(436.482844 418.316562) scale(0.1 -0.1)">
      <defs>
       <path id="DejaVuSans-53" d="M 3425 4513 
L 3425 3897 
Q 3066 4069 2747 4153 
Q 2428 4238 2131 4238 
Q 1616 4238 1336 4038 
Q 1056 3838 1056 3469 
Q 1056 3159 1242 3001 
Q 1428 2844 1947 2747 
L 2328 2669 
Q 3034 2534 3370 2195 
Q 3706 1856 3706 1288 
Q 3706 609 3251 259 
Q 2797 -91 1919 -91 
Q 1588 -91 1214 -16 
Q 841 59 441 206 
L 441 856 
Q 825 641 1194 531 
Q 1563 422 1919 422 
Q 2459 422 2753 634 
Q 3047 847 3047 1241 
Q 3047 1584 2836 1778 
Q 2625 1972 2144 2069 
L 1759 2144 
Q 1053 2284 737 2584 
Q 422 2884 422 3419 
Q 422 4038 858 4394 
Q 1294 4750 2059 4750 
Q 2388 4750 2728 4690 
Q 3069 4631 3425 4513 
z
" transform="scale(0.015625)"/>
       <path id="DejaVuSans-74" d="M 1172 4494 
L 1172 3500 
L 2356 3500 
L 2356 3053 
L 1172 3053 
L 1172 1153 
Q 1172 725 1289 603 
Q 1406 481 1766 481 
L 2356 481 
L 2356 0 
L 1766 0 
Q 1100 0 847 248 
Q 594 497 594 1153 
L 594 3053 
L 172 3053 
L 172 3500 
L 594 3500 
L 594 4494 
L 1172 4494 
z
" transform="scale(0.015625)"/>
       <path id="DejaVuSans-65" d="M 3597 1894 
L 3597 1613 
L 953 1613 
Q 991 1019 1311 708 
Q 1631 397 2203 397 
Q 2534 397 2845 478 
Q 3156 559 3463 722 
L 3463 178 
Q 3153 47 2828 -22 
Q 2503 -91 2169 -91 
Q 1331 -91 842 396 
Q 353 884 353 1716 
Q 353 2575 817 3079 
Q 1281 3584 2069 3584 
Q 2775 3584 3186 3129 
Q 3597 2675 3597 1894 
z
M 3022 2063 
Q 3016 2534 2758 2815 
Q 2500 3097 2075 3097 
Q 1594 3097 1305 2825 
Q 1016 2553 972 2059 
L 3022 2063 
z
" transform="scale(0.015625)"/>
       <path id="DejaVuSans-70" d="M 1159 525 
L 1159 -1331 
L 581 -1331 
L 581 3500 
L 1159 3500 
L 1159 2969 
Q 1341 3281 1617 3432 
Q 1894 3584 2278 3584 
Q 2916 3584 3314 3078 
Q 3713 2572 3713 1747 
Q 3713 922 3314 415 
Q 2916 -91 2278 -91 
Q 1894 -91 1617 61 
Q 1341 213 1159 525 
z
M 3116 1747 
Q 3116 2381 2855 2742 
Q 2594 3103 2138 3103 
Q 1681 3103 1420 2742 
Q 1159 2381 1159 1747 
Q 1159 1113 1420 752 
Q 1681 391 2138 391 
Q 2594 391 2855 752 
Q 3116 1113 3116 1747 
z
" transform="scale(0.015625)"/>
      </defs>
      <use xlink:href="#DejaVuSans-53"/>
      <use xlink:href="#DejaVuSans-74" transform="translate(63.476562 0)"/>
      <use xlink:href="#DejaVuSans-65" transform="translate(102.685547 0)"/>
      <use xlink:href="#DejaVuSans-70" transform="translate(164.208984 0)"/>
     </g>
    </g>
   </g>
   <g id="matplotlib.axis_2">
    <g id="ytick_1">
     <g id="line2d_7">
      <defs>
       <path id="md735a2ebcb" d="M 0 0 
L -3.5 0 
" style="stroke: #000000; stroke-width: 0.8"/>
      </defs>
      <g>
       <use xlink:href="#md735a2ebcb" x="50.87" y="356.461536" style="stroke: #000000; stroke-width: 0.8"/>
      </g>
     </g>
     <g id="text_8">
      <!-- 20 -->
      <g transform="translate(31.145 360.260755) scale(0.1 -0.1)">
       <use xlink:href="#DejaVuSans-32"/>
       <use xlink:href="#DejaVuSans-30" transform="translate(63.623047 0)"/>
      </g>
     </g>
    </g>
    <g id="ytick_2">
     <g id="line2d_8">
      <g>
       <use xlink:href="#md735a2ebcb" x="50.87" y="302.390333" style="stroke: #000000; stroke-width: 0.8"/>
      </g>
     </g>
     <g id="text_9">
      <!-- 40 -->
      <g transform="translate(31.145 306.189552) scale(0.1 -0.1)">
       <defs>
        <path id="DejaVuSans-34" d="M 2419 4116 
L 825 1625 
L 2419 1625 
L 2419 4116 
z
M 2253 4666 
L 3047 4666 
L 3047 1625 
L 3713 1625 
L 3713 1100 
L 3047 1100 
L 3047 0 
L 2419 0 
L 2419 1100 
L 313 1100 
L 313 1709 
L 2253 4666 
z
" transform="scale(0.015625)"/>
       </defs>
       <use xlink:href="#DejaVuSans-34"/>
       <use xlink:href="#DejaVuSans-30" transform="translate(63.623047 0)"/>
      </g>
     </g>
    </g>
    <g id="ytick_3">
     <g id="line2d_9">
      <g>
       <use xlink:href="#md735a2ebcb" x="50.87" y="248.31913" style="stroke: #000000; stroke-width: 0.8"/>
      </g>
     </g>
     <g id="text_10">
      <!-- 60 -->
      <g transform="translate(31.145 252.118349) scale(0.1 -0.1)">
       <defs>
        <path id="DejaVuSans-36" d="M 2113 2584 
Q 1688 2584 1439 2293 
Q 1191 2003 1191 1497 
Q 1191 994 1439 701 
Q 1688 409 2113 409 
Q 2538 409 2786 701 
Q 3034 994 3034 1497 
Q 3034 2003 2786 2293 
Q 2538 2584 2113 2584 
z
M 3366 4563 
L 3366 3988 
Q 3128 4100 2886 4159 
Q 2644 4219 2406 4219 
Q 1781 4219 1451 3797 
Q 1122 3375 1075 2522 
Q 1259 2794 1537 2939 
Q 1816 3084 2150 3084 
Q 2853 3084 3261 2657 
Q 3669 2231 3669 1497 
Q 3669 778 3244 343 
Q 2819 -91 2113 -91 
Q 1303 -91 875 529 
Q 447 1150 447 2328 
Q 447 3434 972 4092 
Q 1497 4750 2381 4750 
Q 2619 4750 2861 4703 
Q 3103 4656 3366 4563 
z
" transform="scale(0.015625)"/>
       </defs>
       <use xlink:href="#DejaVuSans-36"/>
       <use xlink:href="#DejaVuSans-30" transform="translate(63.623047 0)"/>
      </g>
     </g>
    </g>
    <g id="ytick_4">
     <g id="line2d_10">
      <g>
       <use xlink:href="#md735a2ebcb" x="50.87" y="194.247927" style="stroke: #000000; stroke-width: 0.8"/>
      </g>
     </g>
     <g id="text_11">
      <!-- 80 -->
      <g transform="translate(31.145 198.047146) scale(0.1 -0.1)">
       <defs>
        <path id="DejaVuSans-38" d="M 2034 2216 
Q 1584 2216 1326 1975 
Q 1069 1734 1069 1313 
Q 1069 891 1326 650 
Q 1584 409 2034 409 
Q 2484 409 2743 651 
Q 3003 894 3003 1313 
Q 3003 1734 2745 1975 
Q 2488 2216 2034 2216 
z
M 1403 2484 
Q 997 2584 770 2862 
Q 544 3141 544 3541 
Q 544 4100 942 4425 
Q 1341 4750 2034 4750 
Q 2731 4750 3128 4425 
Q 3525 4100 3525 3541 
Q 3525 3141 3298 2862 
Q 3072 2584 2669 2484 
Q 3125 2378 3379 2068 
Q 3634 1759 3634 1313 
Q 3634 634 3220 271 
Q 2806 -91 2034 -91 
Q 1263 -91 848 271 
Q 434 634 434 1313 
Q 434 1759 690 2068 
Q 947 2378 1403 2484 
z
M 1172 3481 
Q 1172 3119 1398 2916 
Q 1625 2713 2034 2713 
Q 2441 2713 2670 2916 
Q 2900 3119 2900 3481 
Q 2900 3844 2670 4047 
Q 2441 4250 2034 4250 
Q 1625 4250 1398 4047 
Q 1172 3844 1172 3481 
z
" transform="scale(0.015625)"/>
       </defs>
       <use xlink:href="#DejaVuSans-38"/>
       <use xlink:href="#DejaVuSans-30" transform="translate(63.623047 0)"/>
      </g>
     </g>
    </g>
    <g id="ytick_5">
     <g id="line2d_11">
      <g>
       <use xlink:href="#md735a2ebcb" x="50.87" y="140.176724" style="stroke: #000000; stroke-width: 0.8"/>
      </g>
     </g>
     <g id="text_12">
      <!-- 100 -->
      <g transform="translate(24.7825 143.975943) scale(0.1 -0.1)">
       <use xlink:href="#DejaVuSans-31"/>
       <use xlink:href="#DejaVuSans-30" transform="translate(63.623047 0)"/>
       <use xlink:href="#DejaVuSans-30" transform="translate(127.246094 0)"/>
      </g>
     </g>
    </g>
    <g id="ytick_6">
     <g id="line2d_12">
      <g>
       <use xlink:href="#md735a2ebcb" x="50.87" y="86.105521" style="stroke: #000000; stroke-width: 0.8"/>
      </g>
     </g>
     <g id="text_13">
      <!-- 120 -->
      <g transform="translate(24.7825 89.90474) scale(0.1 -0.1)">
       <use xlink:href="#DejaVuSans-31"/>
       <use xlink:href="#DejaVuSans-32" transform="translate(63.623047 0)"/>
       <use xlink:href="#DejaVuSans-30" transform="translate(127.246094 0)"/>
      </g>
     </g>
    </g>
    <g id="text_14">
     <!-- Profit -->
     <g transform="translate(18.702813 229.779063) rotate(-90) scale(0.1 -0.1)">
      <defs>
       <path id="DejaVuSans-50" d="M 1259 4147 
L 1259 2394 
L 2053 2394 
Q 2494 2394 2734 2622 
Q 2975 2850 2975 3272 
Q 2975 3691 2734 3919 
Q 2494 4147 2053 4147 
L 1259 4147 
z
M 628 4666 
L 2053 4666 
Q 2838 4666 3239 4311 
Q 3641 3956 3641 3272 
Q 3641 2581 3239 2228 
Q 2838 1875 2053 1875 
L 1259 1875 
L 1259 0 
L 628 0 
L 628 4666 
z
" transform="scale(0.015625)"/>
       <path id="DejaVuSans-72" d="M 2631 2963 
Q 2534 3019 2420 3045 
Q 2306 3072 2169 3072 
Q 1681 3072 1420 2755 
Q 1159 2438 1159 1844 
L 1159 0 
L 581 0 
L 581 3500 
L 1159 3500 
L 1159 2956 
Q 1341 3275 1631 3429 
Q 1922 3584 2338 3584 
Q 2397 3584 2469 3576 
Q 2541 3569 2628 3553 
L 2631 2963 
z
" transform="scale(0.015625)"/>
       <path id="DejaVuSans-6f" d="M 1959 3097 
Q 1497 3097 1228 2736 
Q 959 2375 959 1747 
Q 959 1119 1226 758 
Q 1494 397 1959 397 
Q 2419 397 2687 759 
Q 2956 1122 2956 1747 
Q 2956 2369 2687 2733 
Q 2419 3097 1959 3097 
z
M 1959 3584 
Q 2709 3584 3137 3096 
Q 3566 2609 3566 1747 
Q 3566 888 3137 398 
Q 2709 -91 1959 -91 
Q 1206 -91 779 398 
Q 353 888 353 1747 
Q 353 2609 779 3096 
Q 1206 3584 1959 3584 
z
" transform="scale(0.015625)"/>
       <path id="DejaVuSans-66" d="M 2375 4863 
L 2375 4384 
L 1825 4384 
Q 1516 4384 1395 4259 
Q 1275 4134 1275 3809 
L 1275 3500 
L 2222 3500 
L 2222 3053 
L 1275 3053 
L 1275 0 
L 697 0 
L 697 3053 
L 147 3053 
L 147 3500 
L 697 3500 
L 697 3744 
Q 697 4328 969 4595 
Q 1241 4863 1831 4863 
L 2375 4863 
z
" transform="scale(0.015625)"/>
       <path id="DejaVuSans-69" d="M 603 3500 
L 1178 3500 
L 1178 0 
L 603 0 
L 603 3500 
z
M 603 4863 
L 1178 4863 
L 1178 4134 
L 603 4134 
L 603 4863 
z
" transform="scale(0.015625)"/>
      </defs>
      <use xlink:href="#DejaVuSans-50"/>
      <use xlink:href="#DejaVuSans-72" transform="translate(58.552734 0)"/>
      <use xlink:href="#DejaVuSans-6f" transform="translate(97.416016 0)"/>
      <use xlink:href="#DejaVuSans-66" transform="translate(158.597656 0)"/>
      <use xlink:href="#DejaVuSans-69" transform="translate(193.802734 0)"/>
      <use xlink:href="#DejaVuSans-74" transform="translate(221.585938 0)"/>
     </g>
    </g>
   </g>
   <g id="line2d_13">
    <path d="M 52.193327 251.890985 
L 54.83998 251.974254 
L 57.486633 241.749025 
L 60.133287 232.893727 
L 62.77994 225.499694 
L 65.426593 219.207077 
L 68.073247 213.682324 
L 70.7199 209.042985 
L 73.366553 204.86898 
L 76.013207 200.954292 
L 78.65986 197.568674 
L 81.306513 194.464568 
L 83.953167 191.569841 
L 86.59982 188.950581 
L 89.246473 186.517579 
L 94.53978 182.163629 
L 99.833087 178.364986 
L 107.773047 173.319861 
L 110.4197 171.817982 
L 115.713007 169.120156 
L 121.006313 166.676758 
L 131.592927 162.166129 
L 136.886233 160.220676 
L 139.532887 159.428617 
L 144.826193 157.594486 
L 155.412807 154.478498 
L 168.646073 150.981353 
L 184.525993 147.577935 
L 195.112607 145.523161 
L 203.052567 144.074767 
L 218.932487 141.483312 
L 226.872447 140.314118 
L 234.812407 139.271261 
L 240.105713 138.502407 
L 250.692327 137.176761 
L 258.632287 136.165071 
L 274.512207 134.309633 
L 311.565353 130.758632 
L 324.79862 129.627287 
L 351.265153 127.604774 
L 361.851767 126.840767 
L 383.024993 125.432924 
L 406.844873 123.988923 
L 417.431487 123.36957 
L 443.89802 121.965172 
L 467.7179 120.837004 
L 488.891127 119.874673 
L 552.410807 117.413599 
L 578.87734 116.432683 
L 605.343873 115.499209 
L 634.45706 114.636526 
L 650.33698 114.24819 
L 660.923593 113.972063 
L 674.15686 113.655652 
L 703.270047 112.92275 
L 713.85666 112.664898 
L 766.789727 111.493311 
L 814.429487 110.434056 
L 835.602713 110.086974 
L 843.542673 109.943619 
L 843.542673 109.943619 
" clip-path="url(#p38f35558ed)" style="fill: none; stroke: #0000ff; stroke-width: 1.5; stroke-linecap: square"/>
   </g>
   <g id="patch_3">
    <path d="M 50.87 390.04 
L 50.87 43.44 
" style="fill: none; stroke: #000000; stroke-width: 0.8; stroke-linejoin: miter; stroke-linecap: square"/>
   </g>
   <g id="patch_4">
    <path d="M 844.866 390.04 
L 844.866 43.44 
" style="fill: none; stroke: #000000; stroke-width: 0.8; stroke-linejoin: miter; stroke-linecap: square"/>
   </g>
   <g id="patch_5">
    <path d="M 50.87 390.04 
L 844.866 390.04 
" style="fill: none; stroke: #000000; stroke-width: 0.8; stroke-linejoin: miter; stroke-linecap: square"/>
   </g>
   <g id="patch_6">
    <path d="M 50.87 43.44 
L 844.866 43.44 
" style="fill: none; stroke: #000000; stroke-width: 0.8; stroke-linejoin: miter; stroke-linecap: square"/>
   </g>
   <g id="text_15">
    <!-- Mean profit per step with confidence interval per simulation step -->
    <g transform="translate(220.284875 21.763062) scale(0.14 -0.14)">
     <defs>
      <path id="DejaVuSans-4d" d="M 628 4666 
L 1569 4666 
L 2759 1491 
L 3956 4666 
L 4897 4666 
L 4897 0 
L 4281 0 
L 4281 4097 
L 3078 897 
L 2444 897 
L 1241 4097 
L 1241 0 
L 628 0 
L 628 4666 
z
" transform="scale(0.015625)"/>
      <path id="DejaVuSans-61" d="M 2194 1759 
Q 1497 1759 1228 1600 
Q 959 1441 959 1056 
Q 959 750 1161 570 
Q 1363 391 1709 391 
Q 2188 391 2477 730 
Q 2766 1069 2766 1631 
L 2766 1759 
L 2194 1759 
z
M 3341 1997 
L 3341 0 
L 2766 0 
L 2766 531 
Q 2569 213 2275 61 
Q 1981 -91 1556 -91 
Q 1019 -91 701 211 
Q 384 513 384 1019 
Q 384 1609 779 1909 
Q 1175 2209 1959 2209 
L 2766 2209 
L 2766 2266 
Q 2766 2663 2505 2880 
Q 2244 3097 1772 3097 
Q 1472 3097 1187 3025 
Q 903 2953 641 2809 
L 641 3341 
Q 956 3463 1253 3523 
Q 1550 3584 1831 3584 
Q 2591 3584 2966 3190 
Q 3341 2797 3341 1997 
z
" transform="scale(0.015625)"/>
      <path id="DejaVuSans-6e" d="M 3513 2113 
L 3513 0 
L 2938 0 
L 2938 2094 
Q 2938 2591 2744 2837 
Q 2550 3084 2163 3084 
Q 1697 3084 1428 2787 
Q 1159 2491 1159 1978 
L 1159 0 
L 581 0 
L 581 3500 
L 1159 3500 
L 1159 2956 
Q 1366 3272 1645 3428 
Q 1925 3584 2291 3584 
Q 2894 3584 3203 3211 
Q 3513 2838 3513 2113 
z
" transform="scale(0.015625)"/>
      <path id="DejaVuSans-20" transform="scale(0.015625)"/>
      <path id="DejaVuSans-73" d="M 2834 3397 
L 2834 2853 
Q 2591 2978 2328 3040 
Q 2066 3103 1784 3103 
Q 1356 3103 1142 2972 
Q 928 2841 928 2578 
Q 928 2378 1081 2264 
Q 1234 2150 1697 2047 
L 1894 2003 
Q 2506 1872 2764 1633 
Q 3022 1394 3022 966 
Q 3022 478 2636 193 
Q 2250 -91 1575 -91 
Q 1294 -91 989 -36 
Q 684 19 347 128 
L 347 722 
Q 666 556 975 473 
Q 1284 391 1588 391 
Q 1994 391 2212 530 
Q 2431 669 2431 922 
Q 2431 1156 2273 1281 
Q 2116 1406 1581 1522 
L 1381 1569 
Q 847 1681 609 1914 
Q 372 2147 372 2553 
Q 372 3047 722 3315 
Q 1072 3584 1716 3584 
Q 2034 3584 2315 3537 
Q 2597 3491 2834 3397 
z
" transform="scale(0.015625)"/>
      <path id="DejaVuSans-77" d="M 269 3500 
L 844 3500 
L 1563 769 
L 2278 3500 
L 2956 3500 
L 3675 769 
L 4391 3500 
L 4966 3500 
L 4050 0 
L 3372 0 
L 2619 2869 
L 1863 0 
L 1184 0 
L 269 3500 
z
" transform="scale(0.015625)"/>
      <path id="DejaVuSans-68" d="M 3513 2113 
L 3513 0 
L 2938 0 
L 2938 2094 
Q 2938 2591 2744 2837 
Q 2550 3084 2163 3084 
Q 1697 3084 1428 2787 
Q 1159 2491 1159 1978 
L 1159 0 
L 581 0 
L 581 4863 
L 1159 4863 
L 1159 2956 
Q 1366 3272 1645 3428 
Q 1925 3584 2291 3584 
Q 2894 3584 3203 3211 
Q 3513 2838 3513 2113 
z
" transform="scale(0.015625)"/>
      <path id="DejaVuSans-63" d="M 3122 3366 
L 3122 2828 
Q 2878 2963 2633 3030 
Q 2388 3097 2138 3097 
Q 1578 3097 1268 2742 
Q 959 2388 959 1747 
Q 959 1106 1268 751 
Q 1578 397 2138 397 
Q 2388 397 2633 464 
Q 2878 531 3122 666 
L 3122 134 
Q 2881 22 2623 -34 
Q 2366 -91 2075 -91 
Q 1284 -91 818 406 
Q 353 903 353 1747 
Q 353 2603 823 3093 
Q 1294 3584 2113 3584 
Q 2378 3584 2631 3529 
Q 2884 3475 3122 3366 
z
" transform="scale(0.015625)"/>
      <path id="DejaVuSans-64" d="M 2906 2969 
L 2906 4863 
L 3481 4863 
L 3481 0 
L 2906 0 
L 2906 525 
Q 2725 213 2448 61 
Q 2172 -91 1784 -91 
Q 1150 -91 751 415 
Q 353 922 353 1747 
Q 353 2572 751 3078 
Q 1150 3584 1784 3584 
Q 2172 3584 2448 3432 
Q 2725 3281 2906 2969 
z
M 947 1747 
Q 947 1113 1208 752 
Q 1469 391 1925 391 
Q 2381 391 2643 752 
Q 2906 1113 2906 1747 
Q 2906 2381 2643 2742 
Q 2381 3103 1925 3103 
Q 1469 3103 1208 2742 
Q 947 2381 947 1747 
z
" transform="scale(0.015625)"/>
      <path id="DejaVuSans-76" d="M 191 3500 
L 800 3500 
L 1894 563 
L 2988 3500 
L 3597 3500 
L 2284 0 
L 1503 0 
L 191 3500 
z
" transform="scale(0.015625)"/>
      <path id="DejaVuSans-6c" d="M 603 4863 
L 1178 4863 
L 1178 0 
L 603 0 
L 603 4863 
z
" transform="scale(0.015625)"/>
      <path id="DejaVuSans-6d" d="M 3328 2828 
Q 3544 3216 3844 3400 
Q 4144 3584 4550 3584 
Q 5097 3584 5394 3201 
Q 5691 2819 5691 2113 
L 5691 0 
L 5113 0 
L 5113 2094 
Q 5113 2597 4934 2840 
Q 4756 3084 4391 3084 
Q 3944 3084 3684 2787 
Q 3425 2491 3425 1978 
L 3425 0 
L 2847 0 
L 2847 2094 
Q 2847 2600 2669 2842 
Q 2491 3084 2119 3084 
Q 1678 3084 1418 2786 
Q 1159 2488 1159 1978 
L 1159 0 
L 581 0 
L 581 3500 
L 1159 3500 
L 1159 2956 
Q 1356 3278 1631 3431 
Q 1906 3584 2284 3584 
Q 2666 3584 2933 3390 
Q 3200 3197 3328 2828 
z
" transform="scale(0.015625)"/>
      <path id="DejaVuSans-75" d="M 544 1381 
L 544 3500 
L 1119 3500 
L 1119 1403 
Q 1119 906 1312 657 
Q 1506 409 1894 409 
Q 2359 409 2629 706 
Q 2900 1003 2900 1516 
L 2900 3500 
L 3475 3500 
L 3475 0 
L 2900 0 
L 2900 538 
Q 2691 219 2414 64 
Q 2138 -91 1772 -91 
Q 1169 -91 856 284 
Q 544 659 544 1381 
z
M 1991 3584 
L 1991 3584 
z
" transform="scale(0.015625)"/>
     </defs>
     <use xlink:href="#DejaVuSans-4d"/>
     <use xlink:href="#DejaVuSans-65" transform="translate(86.279297 0)"/>
     <use xlink:href="#DejaVuSans-61" transform="translate(147.802734 0)"/>
     <use xlink:href="#DejaVuSans-6e" transform="translate(209.082031 0)"/>
     <use xlink:href="#DejaVuSans-20" transform="translate(272.460938 0)"/>
     <use xlink:href="#DejaVuSans-70" transform="translate(304.248047 0)"/>
     <use xlink:href="#DejaVuSans-72" transform="translate(367.724609 0)"/>
     <use xlink:href="#DejaVuSans-6f" transform="translate(406.587891 0)"/>
     <use xlink:href="#DejaVuSans-66" transform="translate(467.769531 0)"/>
     <use xlink:href="#DejaVuSans-69" transform="translate(502.974609 0)"/>
     <use xlink:href="#DejaVuSans-74" transform="translate(530.757812 0)"/>
     <use xlink:href="#DejaVuSans-20" transform="translate(569.966797 0)"/>
     <use xlink:href="#DejaVuSans-70" transform="translate(601.753906 0)"/>
     <use xlink:href="#DejaVuSans-65" transform="translate(665.230469 0)"/>
     <use xlink:href="#DejaVuSans-72" transform="translate(726.753906 0)"/>
     <use xlink:href="#DejaVuSans-20" transform="translate(767.867188 0)"/>
     <use xlink:href="#DejaVuSans-73" transform="translate(799.654297 0)"/>
     <use xlink:href="#DejaVuSans-74" transform="translate(851.753906 0)"/>
     <use xlink:href="#DejaVuSans-65" transform="translate(890.962891 0)"/>
     <use xlink:href="#DejaVuSans-70" transform="translate(952.486328 0)"/>
     <use xlink:href="#DejaVuSans-20" transform="translate(1015.962891 0)"/>
     <use xlink:href="#DejaVuSans-77" transform="translate(1047.75 0)"/>
     <use xlink:href="#DejaVuSans-69" transform="translate(1129.537109 0)"/>
     <use xlink:href="#DejaVuSans-74" transform="translate(1157.320312 0)"/>
     <use xlink:href="#DejaVuSans-68" transform="translate(1196.529297 0)"/>
     <use xlink:href="#DejaVuSans-20" transform="translate(1259.908203 0)"/>
     <use xlink:href="#DejaVuSans-63" transform="translate(1291.695312 0)"/>
     <use xlink:href="#DejaVuSans-6f" transform="translate(1346.675781 0)"/>
     <use xlink:href="#DejaVuSans-6e" transform="translate(1407.857422 0)"/>
     <use xlink:href="#DejaVuSans-66" transform="translate(1471.236328 0)"/>
     <use xlink:href="#DejaVuSans-69" transform="translate(1506.441406 0)"/>
     <use xlink:href="#DejaVuSans-64" transform="translate(1534.224609 0)"/>
     <use xlink:href="#DejaVuSans-65" transform="translate(1597.701172 0)"/>
     <use xlink:href="#DejaVuSans-6e" transform="translate(1659.224609 0)"/>
     <use xlink:href="#DejaVuSans-63" transform="translate(1722.603516 0)"/>
     <use xlink:href="#DejaVuSans-65" transform="translate(1777.583984 0)"/>
     <use xlink:href="#DejaVuSans-20" transform="translate(1839.107422 0)"/>
     <use xlink:href="#DejaVuSans-69" transform="translate(1870.894531 0)"/>
     <use xlink:href="#DejaVuSans-6e" transform="translate(1898.677734 0)"/>
     <use xlink:href="#DejaVuSans-74" transform="translate(1962.056641 0)"/>
     <use xlink:href="#DejaVuSans-65" transform="translate(2001.265625 0)"/>
     <use xlink:href="#DejaVuSans-72" transform="translate(2062.789062 0)"/>
     <use xlink:href="#DejaVuSans-76" transform="translate(2103.902344 0)"/>
     <use xlink:href="#DejaVuSans-61" transform="translate(2163.082031 0)"/>
     <use xlink:href="#DejaVuSans-6c" transform="translate(2224.361328 0)"/>
     <use xlink:href="#DejaVuSans-20" transform="translate(2252.144531 0)"/>
     <use xlink:href="#DejaVuSans-70" transform="translate(2283.931641 0)"/>
     <use xlink:href="#DejaVuSans-65" transform="translate(2347.408203 0)"/>
     <use xlink:href="#DejaVuSans-72" transform="translate(2408.931641 0)"/>
     <use xlink:href="#DejaVuSans-20" transform="translate(2450.044922 0)"/>
     <use xlink:href="#DejaVuSans-73" transform="translate(2481.832031 0)"/>
     <use xlink:href="#DejaVuSans-69" transform="translate(2533.931641 0)"/>
     <use xlink:href="#DejaVuSans-6d" transform="translate(2561.714844 0)"/>
     <use xlink:href="#DejaVuSans-75" transform="translate(2659.126953 0)"/>
     <use xlink:href="#DejaVuSans-6c" transform="translate(2722.505859 0)"/>
     <use xlink:href="#DejaVuSans-61" transform="translate(2750.289062 0)"/>
     <use xlink:href="#DejaVuSans-74" transform="translate(2811.568359 0)"/>
     <use xlink:href="#DejaVuSans-69" transform="translate(2850.777344 0)"/>
     <use xlink:href="#DejaVuSans-6f" transform="translate(2878.560547 0)"/>
     <use xlink:href="#DejaVuSans-6e" transform="translate(2939.742188 0)"/>
     <use xlink:href="#DejaVuSans-20" transform="translate(3003.121094 0)"/>
     <use xlink:href="#DejaVuSans-73" transform="translate(3034.908203 0)"/>
     <use xlink:href="#DejaVuSans-74" transform="translate(3087.007812 0)"/>
     <use xlink:href="#DejaVuSans-65" transform="translate(3126.216797 0)"/>
     <use xlink:href="#DejaVuSans-70" transform="translate(3187.740234 0)"/>
    </g>
    <!-- Base Product: Green Crack, Recipe size: 10, T0: 5.0 -->
    <g transform="translate(268.031437 37.44) scale(0.14 -0.14)">
     <defs>
      <path id="DejaVuSans-42" d="M 1259 2228 
L 1259 519 
L 2272 519 
Q 2781 519 3026 730 
Q 3272 941 3272 1375 
Q 3272 1813 3026 2020 
Q 2781 2228 2272 2228 
L 1259 2228 
z
M 1259 4147 
L 1259 2741 
L 2194 2741 
Q 2656 2741 2882 2914 
Q 3109 3088 3109 3444 
Q 3109 3797 2882 3972 
Q 2656 4147 2194 4147 
L 1259 4147 
z
M 628 4666 
L 2241 4666 
Q 2963 4666 3353 4366 
Q 3744 4066 3744 3513 
Q 3744 3084 3544 2831 
Q 3344 2578 2956 2516 
Q 3422 2416 3680 2098 
Q 3938 1781 3938 1306 
Q 3938 681 3513 340 
Q 3088 0 2303 0 
L 628 0 
L 628 4666 
z
" transform="scale(0.015625)"/>
      <path id="DejaVuSans-3a" d="M 750 794 
L 1409 794 
L 1409 0 
L 750 0 
L 750 794 
z
M 750 3309 
L 1409 3309 
L 1409 2516 
L 750 2516 
L 750 3309 
z
" transform="scale(0.015625)"/>
      <path id="DejaVuSans-47" d="M 3809 666 
L 3809 1919 
L 2778 1919 
L 2778 2438 
L 4434 2438 
L 4434 434 
Q 4069 175 3628 42 
Q 3188 -91 2688 -91 
Q 1594 -91 976 548 
Q 359 1188 359 2328 
Q 359 3472 976 4111 
Q 1594 4750 2688 4750 
Q 3144 4750 3555 4637 
Q 3966 4525 4313 4306 
L 4313 3634 
Q 3963 3931 3569 4081 
Q 3175 4231 2741 4231 
Q 1884 4231 1454 3753 
Q 1025 3275 1025 2328 
Q 1025 1384 1454 906 
Q 1884 428 2741 428 
Q 3075 428 3337 486 
Q 3600 544 3809 666 
z
" transform="scale(0.015625)"/>
      <path id="DejaVuSans-43" d="M 4122 4306 
L 4122 3641 
Q 3803 3938 3442 4084 
Q 3081 4231 2675 4231 
Q 1875 4231 1450 3742 
Q 1025 3253 1025 2328 
Q 1025 1406 1450 917 
Q 1875 428 2675 428 
Q 3081 428 3442 575 
Q 3803 722 4122 1019 
L 4122 359 
Q 3791 134 3420 21 
Q 3050 -91 2638 -91 
Q 1578 -91 968 557 
Q 359 1206 359 2328 
Q 359 3453 968 4101 
Q 1578 4750 2638 4750 
Q 3056 4750 3426 4639 
Q 3797 4528 4122 4306 
z
" transform="scale(0.015625)"/>
      <path id="DejaVuSans-6b" d="M 581 4863 
L 1159 4863 
L 1159 1991 
L 2875 3500 
L 3609 3500 
L 1753 1863 
L 3688 0 
L 2938 0 
L 1159 1709 
L 1159 0 
L 581 0 
L 581 4863 
z
" transform="scale(0.015625)"/>
      <path id="DejaVuSans-2c" d="M 750 794 
L 1409 794 
L 1409 256 
L 897 -744 
L 494 -744 
L 750 256 
L 750 794 
z
" transform="scale(0.015625)"/>
      <path id="DejaVuSans-52" d="M 2841 2188 
Q 3044 2119 3236 1894 
Q 3428 1669 3622 1275 
L 4263 0 
L 3584 0 
L 2988 1197 
Q 2756 1666 2539 1819 
Q 2322 1972 1947 1972 
L 1259 1972 
L 1259 0 
L 628 0 
L 628 4666 
L 2053 4666 
Q 2853 4666 3247 4331 
Q 3641 3997 3641 3322 
Q 3641 2881 3436 2590 
Q 3231 2300 2841 2188 
z
M 1259 4147 
L 1259 2491 
L 2053 2491 
Q 2509 2491 2742 2702 
Q 2975 2913 2975 3322 
Q 2975 3731 2742 3939 
Q 2509 4147 2053 4147 
L 1259 4147 
z
" transform="scale(0.015625)"/>
      <path id="DejaVuSans-7a" d="M 353 3500 
L 3084 3500 
L 3084 2975 
L 922 459 
L 3084 459 
L 3084 0 
L 275 0 
L 275 525 
L 2438 3041 
L 353 3041 
L 353 3500 
z
" transform="scale(0.015625)"/>
      <path id="DejaVuSans-54" d="M -19 4666 
L 3928 4666 
L 3928 4134 
L 2272 4134 
L 2272 0 
L 1638 0 
L 1638 4134 
L -19 4134 
L -19 4666 
z
" transform="scale(0.015625)"/>
      <path id="DejaVuSans-2e" d="M 684 794 
L 1344 794 
L 1344 0 
L 684 0 
L 684 794 
z
" transform="scale(0.015625)"/>
     </defs>
     <use xlink:href="#DejaVuSans-42"/>
     <use xlink:href="#DejaVuSans-61" transform="translate(68.603516 0)"/>
     <use xlink:href="#DejaVuSans-73" transform="translate(129.882812 0)"/>
     <use xlink:href="#DejaVuSans-65" transform="translate(181.982422 0)"/>
     <use xlink:href="#DejaVuSans-20" transform="translate(243.505859 0)"/>
     <use xlink:href="#DejaVuSans-50" transform="translate(275.292969 0)"/>
     <use xlink:href="#DejaVuSans-72" transform="translate(333.845703 0)"/>
     <use xlink:href="#DejaVuSans-6f" transform="translate(372.708984 0)"/>
     <use xlink:href="#DejaVuSans-64" transform="translate(433.890625 0)"/>
     <use xlink:href="#DejaVuSans-75" transform="translate(497.367188 0)"/>
     <use xlink:href="#DejaVuSans-63" transform="translate(560.746094 0)"/>
     <use xlink:href="#DejaVuSans-74" transform="translate(615.726562 0)"/>
     <use xlink:href="#DejaVuSans-3a" transform="translate(654.935547 0)"/>
     <use xlink:href="#DejaVuSans-20" transform="translate(688.626953 0)"/>
     <use xlink:href="#DejaVuSans-47" transform="translate(720.414062 0)"/>
     <use xlink:href="#DejaVuSans-72" transform="translate(797.904297 0)"/>
     <use xlink:href="#DejaVuSans-65" transform="translate(836.767578 0)"/>
     <use xlink:href="#DejaVuSans-65" transform="translate(898.291016 0)"/>
     <use xlink:href="#DejaVuSans-6e" transform="translate(959.814453 0)"/>
     <use xlink:href="#DejaVuSans-20" transform="translate(1023.193359 0)"/>
     <use xlink:href="#DejaVuSans-43" transform="translate(1054.980469 0)"/>
     <use xlink:href="#DejaVuSans-72" transform="translate(1124.804688 0)"/>
     <use xlink:href="#DejaVuSans-61" transform="translate(1165.917969 0)"/>
     <use xlink:href="#DejaVuSans-63" transform="translate(1227.197266 0)"/>
     <use xlink:href="#DejaVuSans-6b" transform="translate(1282.177734 0)"/>
     <use xlink:href="#DejaVuSans-2c" transform="translate(1340.087891 0)"/>
     <use xlink:href="#DejaVuSans-20" transform="translate(1371.875 0)"/>
     <use xlink:href="#DejaVuSans-52" transform="translate(1403.662109 0)"/>
     <use xlink:href="#DejaVuSans-65" transform="translate(1468.644531 0)"/>
     <use xlink:href="#DejaVuSans-63" transform="translate(1530.167969 0)"/>
     <use xlink:href="#DejaVuSans-69" transform="translate(1585.148438 0)"/>
     <use xlink:href="#DejaVuSans-70" transform="translate(1612.931641 0)"/>
     <use xlink:href="#DejaVuSans-65" transform="translate(1676.408203 0)"/>
     <use xlink:href="#DejaVuSans-20" transform="translate(1737.931641 0)"/>
     <use xlink:href="#DejaVuSans-73" transform="translate(1769.71875 0)"/>
     <use xlink:href="#DejaVuSans-69" transform="translate(1821.818359 0)"/>
     <use xlink:href="#DejaVuSans-7a" transform="translate(1849.601562 0)"/>
     <use xlink:href="#DejaVuSans-65" transform="translate(1902.091797 0)"/>
     <use xlink:href="#DejaVuSans-3a" transform="translate(1963.615234 0)"/>
     <use xlink:href="#DejaVuSans-20" transform="translate(1997.306641 0)"/>
     <use xlink:href="#DejaVuSans-31" transform="translate(2029.09375 0)"/>
     <use xlink:href="#DejaVuSans-30" transform="translate(2092.716797 0)"/>
     <use xlink:href="#DejaVuSans-2c" transform="translate(2156.339844 0)"/>
     <use xlink:href="#DejaVuSans-20" transform="translate(2188.126953 0)"/>
     <use xlink:href="#DejaVuSans-54" transform="translate(2219.914062 0)"/>
     <use xlink:href="#DejaVuSans-30" transform="translate(2280.998047 0)"/>
     <use xlink:href="#DejaVuSans-3a" transform="translate(2344.621094 0)"/>
     <use xlink:href="#DejaVuSans-20" transform="translate(2378.3125 0)"/>
     <use xlink:href="#DejaVuSans-35" transform="translate(2410.099609 0)"/>
     <use xlink:href="#DejaVuSans-2e" transform="translate(2473.722656 0)"/>
     <use xlink:href="#DejaVuSans-30" transform="translate(2505.509766 0)"/>
    </g>
   </g>
  </g>
 </g>
 <defs>
  <clipPath id="p38f35558ed">
   <rect x="50.87" y="43.44" width="793.996" height="346.6"/>
  </clipPath>
 </defs>
</svg>
