<?xml version="1.0" encoding="utf-8" standalone="no"?>
<!DOCTYPE svg PUBLIC "-//W3C//DTD SVG 1.1//EN"
  "http://www.w3.org/Graphics/SVG/1.1/DTD/svg11.dtd">
<svg xmlns:xlink="http://www.w3.org/1999/xlink" width="864pt" height="432pt" viewBox="0 0 864 432" xmlns="http://www.w3.org/2000/svg" version="1.1">
 <metadata>
  <rdf:RDF xmlns:dc="http://purl.org/dc/elements/1.1/" xmlns:cc="http://creativecommons.org/ns#" xmlns:rdf="http://www.w3.org/1999/02/22-rdf-syntax-ns#">
   <cc:Work>
    <dc:type rdf:resource="http://purl.org/dc/dcmitype/StillImage"/>
    <dc:date>2025-05-24T02:10:38.316210</dc:date>
    <dc:format>image/svg+xml</dc:format>
    <dc:creator>
     <cc:Agent>
      <dc:title>Matplotlib v3.10.3, https://matplotlib.org/</dc:title>
     </cc:Agent>
    </dc:creator>
   </cc:Work>
  </rdf:RDF>
 </metadata>
 <defs>
  <style type="text/css">*{stroke-linejoin: round; stroke-linecap: butt}</style>
 </defs>
 <g id="figure_1">
  <g id="patch_1">
   <path d="M 0 432 
L 864 432 
L 864 0 
L 0 0 
z
" style="fill: #ffffff"/>
  </g>
  <g id="axes_1">
   <g id="patch_2">
    <path d="M 50.87 390.04 
L 844.866 390.04 
L 844.866 43.44 
L 50.87 43.44 
z
" style="fill: #ffffff"/>
   </g>
   <g id="FillBetweenPolyCollection_1">
    <defs>
     <path id="m8546342747" d="M 52.193327 -307.434458 
L 52.193327 -57.714545 
L 54.83998 -58.652136 
L 57.486633 -75.073442 
L 60.133287 -89.449828 
L 62.77994 -102.394384 
L 65.426593 -113.044655 
L 68.073247 -122.322483 
L 70.7199 -130.137067 
L 73.366553 -137.126681 
L 76.013207 -144.347671 
L 78.65986 -149.870948 
L 81.306513 -155.358123 
L 83.953167 -160.621828 
L 86.59982 -165.26896 
L 89.246473 -169.16132 
L 91.893127 -172.681932 
L 94.53978 -175.993334 
L 97.186433 -179.11966 
L 99.833087 -182.044514 
L 102.47974 -184.546465 
L 105.126393 -186.943226 
L 107.773047 -189.330138 
L 110.4197 -191.664904 
L 113.066353 -193.670789 
L 115.713007 -195.629573 
L 118.35966 -197.505746 
L 121.006313 -199.63978 
L 123.652967 -201.290097 
L 126.29962 -203.268663 
L 128.946273 -204.886659 
L 131.592927 -206.468194 
L 134.23958 -207.475971 
L 136.886233 -208.524768 
L 139.532887 -209.949548 
L 142.17954 -211.049415 
L 144.826193 -211.852385 
L 147.472847 -213.013054 
L 150.1195 -214.151387 
L 152.766153 -215.288031 
L 155.412807 -216.287131 
L 158.05946 -217.435218 
L 160.706113 -218.422179 
L 163.352767 -219.362862 
L 165.99942 -220.287099 
L 168.646073 -221.266628 
L 171.292727 -221.968515 
L 173.93938 -222.77689 
L 176.586033 -223.382759 
L 179.232687 -224.105969 
L 181.87934 -224.790353 
L 184.525993 -225.332064 
L 187.172647 -226.099355 
L 189.8193 -226.85951 
L 192.465953 -227.368814 
L 195.112607 -227.996914 
L 197.75926 -228.714234 
L 200.405913 -229.287169 
L 203.052567 -229.761068 
L 205.69922 -230.330224 
L 208.345873 -230.911561 
L 210.992527 -231.4709 
L 213.63918 -231.9266 
L 216.285833 -232.461133 
L 218.932487 -233.016841 
L 221.57914 -233.461478 
L 224.225793 -233.981802 
L 226.872447 -234.556785 
L 229.5191 -234.880811 
L 232.165753 -235.293506 
L 234.812407 -235.585104 
L 237.45906 -236.162853 
L 240.105713 -236.702895 
L 242.752367 -237.069525 
L 245.39902 -237.556429 
L 248.045673 -238.068519 
L 250.692327 -238.478449 
L 253.33898 -238.808428 
L 255.985633 -239.292904 
L 258.632287 -239.642855 
L 261.27894 -240.058802 
L 263.925593 -240.301504 
L 266.572247 -240.672018 
L 269.2189 -240.925192 
L 271.865553 -241.276051 
L 274.512207 -241.589605 
L 277.15886 -241.920745 
L 279.805513 -242.177572 
L 282.452167 -242.598607 
L 285.09882 -242.885011 
L 287.745473 -243.209374 
L 290.392127 -243.554174 
L 293.03878 -243.736918 
L 295.685433 -243.91219 
L 298.332087 -244.219579 
L 300.97874 -244.325983 
L 303.625393 -244.66808 
L 306.272047 -245.004076 
L 308.9187 -245.33186 
L 311.565353 -245.585224 
L 314.212007 -245.818299 
L 316.85866 -245.987363 
L 319.505313 -246.209123 
L 322.151967 -246.508046 
L 324.79862 -246.762973 
L 327.445273 -246.992311 
L 330.091927 -247.165915 
L 332.73858 -247.315429 
L 335.385233 -247.524437 
L 338.031887 -247.726436 
L 340.67854 -248.01626 
L 343.325193 -248.305134 
L 345.971847 -248.582692 
L 348.6185 -248.956542 
L 351.265153 -249.147267 
L 353.911807 -249.37916 
L 356.55846 -249.569885 
L 359.205113 -249.899062 
L 361.851767 -250.088246 
L 364.49842 -250.296768 
L 367.145073 -250.499358 
L 369.791727 -250.719386 
L 372.43838 -250.912772 
L 375.085033 -251.137423 
L 377.731687 -251.323525 
L 380.37834 -251.416839 
L 383.024993 -251.698831 
L 385.671647 -251.889514 
L 388.3183 -252.183708 
L 390.964953 -252.377642 
L 393.611607 -252.551414 
L 396.25826 -252.828762 
L 398.904913 -253.054258 
L 401.551567 -253.172316 
L 404.19822 -253.344694 
L 406.844873 -253.446327 
L 409.491527 -253.615645 
L 412.13818 -253.815363 
L 414.784833 -254.037334 
L 417.431487 -254.188411 
L 420.07814 -254.352598 
L 422.724793 -254.498249 
L 425.371447 -254.671388 
L 428.0181 -254.846384 
L 430.664753 -255.035674 
L 433.311407 -255.145414 
L 435.95806 -255.267567 
L 438.604713 -255.465069 
L 441.251367 -255.561635 
L 443.89802 -255.680263 
L 446.544673 -255.827054 
L 449.191327 -255.976399 
L 451.83798 -256.07951 
L 454.484633 -256.205991 
L 457.131287 -256.347948 
L 459.77794 -256.494971 
L 462.424593 -256.668194 
L 465.071247 -256.72583 
L 467.7179 -256.87602 
L 470.364553 -256.98766 
L 473.011207 -257.069046 
L 475.65786 -257.292959 
L 478.304513 -257.418279 
L 480.951167 -257.512713 
L 483.59782 -257.664254 
L 486.244473 -257.822509 
L 488.891127 -258.029807 
L 491.53778 -258.190131 
L 494.184433 -258.303692 
L 496.831087 -258.431144 
L 499.47774 -258.632594 
L 502.124393 -258.717379 
L 504.771047 -258.806007 
L 507.4177 -258.874705 
L 510.064353 -259.004375 
L 512.711007 -259.144537 
L 515.35766 -259.31016 
L 518.004313 -259.531117 
L 520.650967 -259.621349 
L 523.29762 -259.75199 
L 525.944273 -259.909653 
L 528.590927 -259.995325 
L 531.23758 -260.175072 
L 533.884233 -260.275058 
L 536.530887 -260.428035 
L 539.17754 -260.502518 
L 541.824193 -260.629295 
L 544.470847 -260.747057 
L 547.1175 -260.84432 
L 549.764153 -260.945319 
L 552.410807 -261.124876 
L 555.05746 -261.268986 
L 557.704113 -261.333103 
L 560.350767 -261.473075 
L 562.99742 -261.552835 
L 565.644073 -261.714721 
L 568.290727 -261.88273 
L 570.93738 -262.008557 
L 573.584033 -262.128832 
L 576.230687 -262.265616 
L 578.87734 -262.388698 
L 581.523993 -262.498374 
L 584.170647 -262.539796 
L 586.8173 -262.623631 
L 589.463953 -262.655215 
L 592.110607 -262.720345 
L 594.75726 -262.8448 
L 597.403913 -262.840915 
L 600.050567 -262.931042 
L 602.69722 -263.0419 
L 605.343873 -263.174652 
L 607.990527 -263.238199 
L 610.63718 -263.306306 
L 613.283833 -263.401478 
L 615.930487 -263.538833 
L 618.57714 -263.682161 
L 621.223793 -263.760043 
L 623.870447 -263.886799 
L 626.5171 -263.970001 
L 629.163753 -264.062155 
L 631.810407 -264.155427 
L 634.45706 -264.261008 
L 637.103713 -264.251191 
L 639.750367 -264.32219 
L 642.39702 -264.339734 
L 645.043673 -264.439488 
L 647.690327 -264.547158 
L 650.33698 -264.609101 
L 652.983633 -264.730156 
L 655.630287 -264.814794 
L 658.27694 -264.822415 
L 660.923593 -264.910938 
L 663.570247 -264.949066 
L 666.2169 -265.010417 
L 668.863553 -265.088679 
L 671.510207 -265.235597 
L 674.15686 -265.2911 
L 676.803513 -265.32794 
L 679.450167 -265.406181 
L 682.09682 -265.518369 
L 684.743473 -265.600347 
L 687.390127 -265.692437 
L 690.03678 -265.770657 
L 692.683433 -265.864457 
L 695.330087 -265.993789 
L 697.97674 -266.070319 
L 700.623393 -266.18521 
L 703.270047 -266.220045 
L 705.9167 -266.258637 
L 708.563353 -266.348342 
L 711.210007 -266.403676 
L 713.85666 -266.489897 
L 716.503313 -266.584183 
L 719.149967 -266.703128 
L 721.79662 -266.774021 
L 724.443273 -266.830158 
L 727.089927 -266.896935 
L 729.73658 -266.951361 
L 732.383233 -267.03545 
L 735.029887 -267.126611 
L 737.67654 -267.188997 
L 740.323193 -267.211967 
L 742.969847 -267.286914 
L 745.6165 -267.277984 
L 748.263153 -267.30735 
L 750.909807 -267.433093 
L 753.55646 -267.474726 
L 756.203113 -267.568019 
L 758.849767 -267.653058 
L 761.49642 -267.747196 
L 764.143073 -267.857696 
L 766.789727 -267.92101 
L 769.43638 -267.955908 
L 772.083033 -268.040166 
L 774.729687 -268.098477 
L 777.37634 -268.187316 
L 780.022993 -268.219047 
L 782.669647 -268.268702 
L 785.3163 -268.295219 
L 787.962953 -268.431517 
L 790.609607 -268.454761 
L 793.25626 -268.518414 
L 795.902913 -268.675318 
L 798.549567 -268.800342 
L 801.19622 -268.898893 
L 803.842873 -268.940905 
L 806.489527 -269.038696 
L 809.13618 -269.153333 
L 811.782833 -269.240716 
L 814.429487 -269.306711 
L 817.07614 -269.337556 
L 819.722793 -269.387633 
L 822.369447 -269.452109 
L 825.0161 -269.481497 
L 827.662753 -269.532081 
L 830.309407 -269.556127 
L 832.95606 -269.563538 
L 835.602713 -269.591912 
L 838.249367 -269.665529 
L 840.89602 -269.722194 
L 843.542673 -269.798344 
L 843.542673 -372.805455 
L 843.542673 -372.805455 
L 840.89602 -372.785905 
L 838.249367 -372.714673 
L 835.602713 -372.685877 
L 832.95606 -372.607087 
L 830.309407 -372.529311 
L 827.662753 -372.496038 
L 825.0161 -372.438741 
L 822.369447 -372.355518 
L 819.722793 -372.335503 
L 817.07614 -372.301893 
L 814.429487 -372.238558 
L 811.782833 -372.202921 
L 809.13618 -372.182484 
L 806.489527 -372.191774 
L 803.842873 -372.169944 
L 801.19622 -372.062062 
L 798.549567 -372.061724 
L 795.902913 -372.051379 
L 793.25626 -372.05518 
L 790.609607 -372.025158 
L 787.962953 -371.936742 
L 785.3163 -371.966172 
L 782.669647 -371.887973 
L 780.022993 -371.828227 
L 777.37634 -371.758642 
L 774.729687 -371.73943 
L 772.083033 -371.701217 
L 769.43638 -371.671534 
L 766.789727 -371.624454 
L 764.143073 -371.561161 
L 761.49642 -371.535531 
L 758.849767 -371.526157 
L 756.203113 -371.48976 
L 753.55646 -371.443948 
L 750.909807 -371.389014 
L 748.263153 -371.399359 
L 745.6165 -371.33007 
L 742.969847 -371.245073 
L 740.323193 -371.2433 
L 737.67654 -371.175235 
L 735.029887 -371.090154 
L 732.383233 -371.045228 
L 729.73658 -370.999838 
L 727.089927 -370.974672 
L 724.443273 -370.934939 
L 721.79662 -370.857163 
L 719.149967 -370.832673 
L 716.503313 -370.817684 
L 713.85666 -370.801428 
L 711.210007 -370.764778 
L 708.563353 -370.716051 
L 705.9167 -370.666354 
L 703.270047 -370.605129 
L 700.623393 -370.510675 
L 697.97674 -370.455108 
L 695.330087 -370.427874 
L 692.683433 -370.428169 
L 690.03678 -370.421751 
L 687.390127 -370.357064 
L 684.743473 -370.317036 
L 682.09682 -370.292926 
L 679.450167 -370.285748 
L 676.803513 -370.218444 
L 674.15686 -370.113729 
L 671.510207 -370.011547 
L 668.863553 -370.001878 
L 666.2169 -369.955094 
L 663.570247 -369.901849 
L 660.923593 -369.769393 
L 658.27694 -369.689759 
L 655.630287 -369.613799 
L 652.983633 -369.565621 
L 650.33698 -369.525002 
L 647.690327 -369.476782 
L 645.043673 -369.461919 
L 642.39702 -369.441145 
L 639.750367 -369.336472 
L 637.103713 -369.250885 
L 634.45706 -369.11598 
L 631.810407 -369.097612 
L 629.163753 -369.066747 
L 626.5171 -368.984199 
L 623.870447 -368.893882 
L 621.223793 -368.863735 
L 618.57714 -368.820877 
L 615.930487 -368.787056 
L 613.283833 -368.728492 
L 610.63718 -368.668281 
L 607.990527 -368.56897 
L 605.343873 -368.490096 
L 602.69722 -368.450575 
L 600.050567 -368.413333 
L 597.403913 -368.352911 
L 594.75726 -368.187267 
L 592.110607 -368.11422 
L 589.463953 -368.015627 
L 586.8173 -367.905507 
L 584.170647 -367.848547 
L 581.523993 -367.776936 
L 578.87734 -367.704058 
L 576.230687 -367.664325 
L 573.584033 -367.567337 
L 570.93738 -367.427829 
L 568.290727 -367.425211 
L 565.644073 -367.394093 
L 562.99742 -367.373994 
L 560.350767 -367.269321 
L 557.704113 -367.246436 
L 555.05746 -367.149406 
L 552.410807 -367.121327 
L 549.764153 -367.112755 
L 547.1175 -367.056513 
L 544.470847 -366.955809 
L 541.824193 -366.915823 
L 539.17754 -366.867477 
L 536.530887 -366.729321 
L 533.884233 -366.701369 
L 531.23758 -366.602607 
L 528.590927 -366.570939 
L 525.944273 -366.451784 
L 523.29762 -366.399257 
L 520.650967 -366.337864 
L 518.004313 -366.254387 
L 515.35766 -366.27115 
L 512.711007 -366.225886 
L 510.064353 -366.151615 
L 507.4177 -366.077005 
L 504.771047 -365.963761 
L 502.124393 -365.888222 
L 499.47774 -365.709827 
L 496.831087 -365.682846 
L 494.184433 -365.634204 
L 491.53778 -365.540467 
L 488.891127 -365.451333 
L 486.244473 -365.424563 
L 483.59782 -365.324746 
L 480.951167 -365.223197 
L 478.304513 -365.082888 
L 475.65786 -365.002578 
L 473.011207 -364.959594 
L 470.364553 -364.794161 
L 467.7179 -364.721452 
L 465.071247 -364.591318 
L 462.424593 -364.480396 
L 459.77794 -364.376314 
L 457.131287 -364.258425 
L 454.484633 -364.18048 
L 451.83798 -364.047813 
L 449.191327 -363.908136 
L 446.544673 -363.806799 
L 443.89802 -363.739579 
L 441.251367 -363.633682 
L 438.604713 -363.484716 
L 435.95806 -363.434259 
L 433.311407 -363.279044 
L 430.664753 -363.152077 
L 428.0181 -363.064547 
L 425.371447 -362.962154 
L 422.724793 -362.902576 
L 420.07814 -362.765813 
L 417.431487 -362.671274 
L 414.784833 -362.572977 
L 412.13818 -362.480169 
L 409.491527 -362.46442 
L 406.844873 -362.370978 
L 404.19822 -362.184391 
L 401.551567 -362.076657 
L 398.904913 -361.932885 
L 396.25826 -361.836298 
L 393.611607 -361.754574 
L 390.964953 -361.633666 
L 388.3183 -361.521942 
L 385.671647 -361.469774 
L 383.024993 -361.370126 
L 380.37834 -361.27299 
L 377.731687 -361.086699 
L 375.085033 -360.975671 
L 372.43838 -360.890527 
L 369.791727 -360.693468 
L 367.145073 -360.543996 
L 364.49842 -360.420069 
L 361.851767 -360.273616 
L 359.205113 -360.090977 
L 356.55846 -360.071892 
L 353.911807 -359.881251 
L 351.265153 -359.693229 
L 348.6185 -359.495199 
L 345.971847 -359.473411 
L 343.325193 -359.423017 
L 340.67854 -359.387781 
L 338.031887 -359.277113 
L 335.385233 -359.142757 
L 332.73858 -359.022334 
L 330.091927 -358.773383 
L 327.445273 -358.506043 
L 324.79862 -358.340631 
L 322.151967 -358.217147 
L 319.505313 -358.104853 
L 316.85866 -357.961165 
L 314.212007 -357.756084 
L 311.565353 -357.59652 
L 308.9187 -357.410926 
L 306.272047 -357.305239 
L 303.625393 -357.192734 
L 300.97874 -357.098026 
L 298.332087 -356.832945 
L 295.685433 -356.601305 
L 293.03878 -356.311481 
L 290.392127 -356.082586 
L 287.745473 -355.946203 
L 285.09882 -355.74906 
L 282.452167 -355.500784 
L 279.805513 -355.356822 
L 277.15886 -355.107469 
L 274.512207 -354.97989 
L 271.865553 -354.746223 
L 269.2189 -354.623499 
L 266.572247 -354.385273 
L 263.925593 -354.123232 
L 261.27894 -353.851817 
L 258.632287 -353.678235 
L 255.985633 -353.47953 
L 253.33898 -353.334871 
L 250.692327 -353.124934 
L 248.045673 -352.926968 
L 245.39902 -352.826855 
L 242.752367 -352.661443 
L 240.105713 -352.48195 
L 237.45906 -352.333322 
L 234.812407 -352.251323 
L 232.165753 -352.02817 
L 229.5191 -351.836981 
L 226.872447 -351.518867 
L 224.225793 -351.383856 
L 221.57914 -351.110161 
L 218.932487 -350.806213 
L 216.285833 -350.591083 
L 213.63918 -350.338225 
L 210.992527 -350.06375 
L 208.345873 -349.834854 
L 205.69922 -349.610012 
L 203.052567 -349.301842 
L 200.405913 -348.987676 
L 197.75926 -348.746578 
L 195.112607 -348.615789 
L 192.465953 -348.361327 
L 189.8193 -347.906999 
L 187.172647 -347.726957 
L 184.525993 -347.479103 
L 181.87934 -347.067822 
L 179.232687 -346.862382 
L 176.586033 -346.521129 
L 173.93938 -346.146731 
L 171.292727 -345.906688 
L 168.646073 -345.512487 
L 165.99942 -345.228806 
L 163.352767 -344.964147 
L 160.706113 -344.621311 
L 158.05946 -344.366807 
L 155.412807 -344.18877 
L 152.766153 -343.834048 
L 150.1195 -343.480233 
L 147.472847 -343.263984 
L 144.826193 -342.983386 
L 142.17954 -342.52209 
L 139.532887 -342.090373 
L 136.886233 -341.725243 
L 134.23958 -341.010098 
L 131.592927 -340.284587 
L 128.946273 -339.930118 
L 126.29962 -339.622454 
L 123.652967 -339.257852 
L 121.006313 -338.686057 
L 118.35966 -338.445297 
L 115.713007 -337.718625 
L 113.066353 -337.265289 
L 110.4197 -336.648272 
L 107.773047 -336.325302 
L 105.126393 -335.749074 
L 102.47974 -334.97718 
L 99.833087 -334.123119 
L 97.186433 -333.29169 
L 94.53978 -332.814518 
L 91.893127 -331.946439 
L 89.246473 -331.014749 
L 86.59982 -330.256579 
L 83.953167 -329.526845 
L 81.306513 -328.605606 
L 78.65986 -327.843614 
L 76.013207 -326.708912 
L 73.366553 -326.159285 
L 70.7199 -324.552078 
L 68.073247 -323.017812 
L 65.426593 -320.802898 
L 62.77994 -318.648935 
L 60.133287 -316.070326 
L 57.486633 -312.813118 
L 54.83998 -307.934874 
L 52.193327 -307.434458 
z
" style="stroke: #0000ff; stroke-opacity: 0.2"/>
    </defs>
    <g clip-path="url(#pf7d6eb90e1)">
     <use xlink:href="#m8546342747" x="0" y="432" style="fill: #0000ff; fill-opacity: 0.2; stroke: #0000ff; stroke-opacity: 0.2"/>
    </g>
   </g>
   <g id="matplotlib.axis_1">
    <g id="xtick_1">
     <g id="line2d_1">
      <defs>
       <path id="mf9335b420a" d="M 0 0 
L 0 3.5 
" style="stroke: #000000; stroke-width: 0.8"/>
      </defs>
      <g>
       <use xlink:href="#mf9335b420a" x="181.87934" y="390.04" style="stroke: #000000; stroke-width: 0.8"/>
      </g>
     </g>
     <g id="text_1">
      <!-- 50 -->
      <g transform="translate(175.51684 404.638438) scale(0.1 -0.1)">
       <defs>
        <path id="DejaVuSans-35" d="M 691 4666 
L 3169 4666 
L 3169 4134 
L 1269 4134 
L 1269 2991 
Q 1406 3038 1543 3061 
Q 1681 3084 1819 3084 
Q 2600 3084 3056 2656 
Q 3513 2228 3513 1497 
Q 3513 744 3044 326 
Q 2575 -91 1722 -91 
Q 1428 -91 1123 -41 
Q 819 9 494 109 
L 494 744 
Q 775 591 1075 516 
Q 1375 441 1709 441 
Q 2250 441 2565 725 
Q 2881 1009 2881 1497 
Q 2881 1984 2565 2268 
Q 2250 2553 1709 2553 
Q 1456 2553 1204 2497 
Q 953 2441 691 2322 
L 691 4666 
z
" transform="scale(0.015625)"/>
        <path id="DejaVuSans-30" d="M 2034 4250 
Q 1547 4250 1301 3770 
Q 1056 3291 1056 2328 
Q 1056 1369 1301 889 
Q 1547 409 2034 409 
Q 2525 409 2770 889 
Q 3016 1369 3016 2328 
Q 3016 3291 2770 3770 
Q 2525 4250 2034 4250 
z
M 2034 4750 
Q 2819 4750 3233 4129 
Q 3647 3509 3647 2328 
Q 3647 1150 3233 529 
Q 2819 -91 2034 -91 
Q 1250 -91 836 529 
Q 422 1150 422 2328 
Q 422 3509 836 4129 
Q 1250 4750 2034 4750 
z
" transform="scale(0.015625)"/>
       </defs>
       <use xlink:href="#DejaVuSans-35"/>
       <use xlink:href="#DejaVuSans-30" transform="translate(63.623047 0)"/>
      </g>
     </g>
    </g>
    <g id="xtick_2">
     <g id="line2d_2">
      <g>
       <use xlink:href="#mf9335b420a" x="314.212007" y="390.04" style="stroke: #000000; stroke-width: 0.8"/>
      </g>
     </g>
     <g id="text_2">
      <!-- 100 -->
      <g transform="translate(304.668257 404.638438) scale(0.1 -0.1)">
       <defs>
        <path id="DejaVuSans-31" d="M 794 531 
L 1825 531 
L 1825 4091 
L 703 3866 
L 703 4441 
L 1819 4666 
L 2450 4666 
L 2450 531 
L 3481 531 
L 3481 0 
L 794 0 
L 794 531 
z
" transform="scale(0.015625)"/>
       </defs>
       <use xlink:href="#DejaVuSans-31"/>
       <use xlink:href="#DejaVuSans-30" transform="translate(63.623047 0)"/>
       <use xlink:href="#DejaVuSans-30" transform="translate(127.246094 0)"/>
      </g>
     </g>
    </g>
    <g id="xtick_3">
     <g id="line2d_3">
      <g>
       <use xlink:href="#mf9335b420a" x="446.544673" y="390.04" style="stroke: #000000; stroke-width: 0.8"/>
      </g>
     </g>
     <g id="text_3">
      <!-- 150 -->
      <g transform="translate(437.000923 404.638438) scale(0.1 -0.1)">
       <use xlink:href="#DejaVuSans-31"/>
       <use xlink:href="#DejaVuSans-35" transform="translate(63.623047 0)"/>
       <use xlink:href="#DejaVuSans-30" transform="translate(127.246094 0)"/>
      </g>
     </g>
    </g>
    <g id="xtick_4">
     <g id="line2d_4">
      <g>
       <use xlink:href="#mf9335b420a" x="578.87734" y="390.04" style="stroke: #000000; stroke-width: 0.8"/>
      </g>
     </g>
     <g id="text_4">
      <!-- 200 -->
      <g transform="translate(569.33359 404.638438) scale(0.1 -0.1)">
       <defs>
        <path id="DejaVuSans-32" d="M 1228 531 
L 3431 531 
L 3431 0 
L 469 0 
L 469 531 
Q 828 903 1448 1529 
Q 2069 2156 2228 2338 
Q 2531 2678 2651 2914 
Q 2772 3150 2772 3378 
Q 2772 3750 2511 3984 
Q 2250 4219 1831 4219 
Q 1534 4219 1204 4116 
Q 875 4013 500 3803 
L 500 4441 
Q 881 4594 1212 4672 
Q 1544 4750 1819 4750 
Q 2544 4750 2975 4387 
Q 3406 4025 3406 3419 
Q 3406 3131 3298 2873 
Q 3191 2616 2906 2266 
Q 2828 2175 2409 1742 
Q 1991 1309 1228 531 
z
" transform="scale(0.015625)"/>
       </defs>
       <use xlink:href="#DejaVuSans-32"/>
       <use xlink:href="#DejaVuSans-30" transform="translate(63.623047 0)"/>
       <use xlink:href="#DejaVuSans-30" transform="translate(127.246094 0)"/>
      </g>
     </g>
    </g>
    <g id="xtick_5">
     <g id="line2d_5">
      <g>
       <use xlink:href="#mf9335b420a" x="711.210007" y="390.04" style="stroke: #000000; stroke-width: 0.8"/>
      </g>
     </g>
     <g id="text_5">
      <!-- 250 -->
      <g transform="translate(701.666257 404.638438) scale(0.1 -0.1)">
       <use xlink:href="#DejaVuSans-32"/>
       <use xlink:href="#DejaVuSans-35" transform="translate(63.623047 0)"/>
       <use xlink:href="#DejaVuSans-30" transform="translate(127.246094 0)"/>
      </g>
     </g>
    </g>
    <g id="xtick_6">
     <g id="line2d_6">
      <g>
       <use xlink:href="#mf9335b420a" x="843.542673" y="390.04" style="stroke: #000000; stroke-width: 0.8"/>
      </g>
     </g>
     <g id="text_6">
      <!-- 300 -->
      <g transform="translate(833.998923 404.638438) scale(0.1 -0.1)">
       <defs>
        <path id="DejaVuSans-33" d="M 2597 2516 
Q 3050 2419 3304 2112 
Q 3559 1806 3559 1356 
Q 3559 666 3084 287 
Q 2609 -91 1734 -91 
Q 1441 -91 1130 -33 
Q 819 25 488 141 
L 488 750 
Q 750 597 1062 519 
Q 1375 441 1716 441 
Q 2309 441 2620 675 
Q 2931 909 2931 1356 
Q 2931 1769 2642 2001 
Q 2353 2234 1838 2234 
L 1294 2234 
L 1294 2753 
L 1863 2753 
Q 2328 2753 2575 2939 
Q 2822 3125 2822 3475 
Q 2822 3834 2567 4026 
Q 2313 4219 1838 4219 
Q 1578 4219 1281 4162 
Q 984 4106 628 3988 
L 628 4550 
Q 988 4650 1302 4700 
Q 1616 4750 1894 4750 
Q 2613 4750 3031 4423 
Q 3450 4097 3450 3541 
Q 3450 3153 3228 2886 
Q 3006 2619 2597 2516 
z
" transform="scale(0.015625)"/>
       </defs>
       <use xlink:href="#DejaVuSans-33"/>
       <use xlink:href="#DejaVuSans-30" transform="translate(63.623047 0)"/>
       <use xlink:href="#DejaVuSans-30" transform="translate(127.246094 0)"/>
      </g>
     </g>
    </g>
    <g id="text_7">
     <!-- Step -->
     <g transform="translate(436.482844 418.316562) scale(0.1 -0.1)">
      <defs>
       <path id="DejaVuSans-53" d="M 3425 4513 
L 3425 3897 
Q 3066 4069 2747 4153 
Q 2428 4238 2131 4238 
Q 1616 4238 1336 4038 
Q 1056 3838 1056 3469 
Q 1056 3159 1242 3001 
Q 1428 2844 1947 2747 
L 2328 2669 
Q 3034 2534 3370 2195 
Q 3706 1856 3706 1288 
Q 3706 609 3251 259 
Q 2797 -91 1919 -91 
Q 1588 -91 1214 -16 
Q 841 59 441 206 
L 441 856 
Q 825 641 1194 531 
Q 1563 422 1919 422 
Q 2459 422 2753 634 
Q 3047 847 3047 1241 
Q 3047 1584 2836 1778 
Q 2625 1972 2144 2069 
L 1759 2144 
Q 1053 2284 737 2584 
Q 422 2884 422 3419 
Q 422 4038 858 4394 
Q 1294 4750 2059 4750 
Q 2388 4750 2728 4690 
Q 3069 4631 3425 4513 
z
" transform="scale(0.015625)"/>
       <path id="DejaVuSans-74" d="M 1172 4494 
L 1172 3500 
L 2356 3500 
L 2356 3053 
L 1172 3053 
L 1172 1153 
Q 1172 725 1289 603 
Q 1406 481 1766 481 
L 2356 481 
L 2356 0 
L 1766 0 
Q 1100 0 847 248 
Q 594 497 594 1153 
L 594 3053 
L 172 3053 
L 172 3500 
L 594 3500 
L 594 4494 
L 1172 4494 
z
" transform="scale(0.015625)"/>
       <path id="DejaVuSans-65" d="M 3597 1894 
L 3597 1613 
L 953 1613 
Q 991 1019 1311 708 
Q 1631 397 2203 397 
Q 2534 397 2845 478 
Q 3156 559 3463 722 
L 3463 178 
Q 3153 47 2828 -22 
Q 2503 -91 2169 -91 
Q 1331 -91 842 396 
Q 353 884 353 1716 
Q 353 2575 817 3079 
Q 1281 3584 2069 3584 
Q 2775 3584 3186 3129 
Q 3597 2675 3597 1894 
z
M 3022 2063 
Q 3016 2534 2758 2815 
Q 2500 3097 2075 3097 
Q 1594 3097 1305 2825 
Q 1016 2553 972 2059 
L 3022 2063 
z
" transform="scale(0.015625)"/>
       <path id="DejaVuSans-70" d="M 1159 525 
L 1159 -1331 
L 581 -1331 
L 581 3500 
L 1159 3500 
L 1159 2969 
Q 1341 3281 1617 3432 
Q 1894 3584 2278 3584 
Q 2916 3584 3314 3078 
Q 3713 2572 3713 1747 
Q 3713 922 3314 415 
Q 2916 -91 2278 -91 
Q 1894 -91 1617 61 
Q 1341 213 1159 525 
z
M 3116 1747 
Q 3116 2381 2855 2742 
Q 2594 3103 2138 3103 
Q 1681 3103 1420 2742 
Q 1159 2381 1159 1747 
Q 1159 1113 1420 752 
Q 1681 391 2138 391 
Q 2594 391 2855 752 
Q 3116 1113 3116 1747 
z
" transform="scale(0.015625)"/>
      </defs>
      <use xlink:href="#DejaVuSans-53"/>
      <use xlink:href="#DejaVuSans-74" transform="translate(63.476562 0)"/>
      <use xlink:href="#DejaVuSans-65" transform="translate(102.685547 0)"/>
      <use xlink:href="#DejaVuSans-70" transform="translate(164.208984 0)"/>
     </g>
    </g>
   </g>
   <g id="matplotlib.axis_2">
    <g id="ytick_1">
     <g id="line2d_7">
      <defs>
       <path id="m89be935e33" d="M 0 0 
L -3.5 0 
" style="stroke: #000000; stroke-width: 0.8"/>
      </defs>
      <g>
       <use xlink:href="#m89be935e33" x="50.87" y="368.242477" style="stroke: #000000; stroke-width: 0.8"/>
      </g>
     </g>
     <g id="text_8">
      <!-- 20 -->
      <g transform="translate(31.145 372.041696) scale(0.1 -0.1)">
       <use xlink:href="#DejaVuSans-32"/>
       <use xlink:href="#DejaVuSans-30" transform="translate(63.623047 0)"/>
      </g>
     </g>
    </g>
    <g id="ytick_2">
     <g id="line2d_8">
      <g>
       <use xlink:href="#m89be935e33" x="50.87" y="312.898877" style="stroke: #000000; stroke-width: 0.8"/>
      </g>
     </g>
     <g id="text_9">
      <!-- 40 -->
      <g transform="translate(31.145 316.698096) scale(0.1 -0.1)">
       <defs>
        <path id="DejaVuSans-34" d="M 2419 4116 
L 825 1625 
L 2419 1625 
L 2419 4116 
z
M 2253 4666 
L 3047 4666 
L 3047 1625 
L 3713 1625 
L 3713 1100 
L 3047 1100 
L 3047 0 
L 2419 0 
L 2419 1100 
L 313 1100 
L 313 1709 
L 2253 4666 
z
" transform="scale(0.015625)"/>
       </defs>
       <use xlink:href="#DejaVuSans-34"/>
       <use xlink:href="#DejaVuSans-30" transform="translate(63.623047 0)"/>
      </g>
     </g>
    </g>
    <g id="ytick_3">
     <g id="line2d_9">
      <g>
       <use xlink:href="#m89be935e33" x="50.87" y="257.555277" style="stroke: #000000; stroke-width: 0.8"/>
      </g>
     </g>
     <g id="text_10">
      <!-- 60 -->
      <g transform="translate(31.145 261.354496) scale(0.1 -0.1)">
       <defs>
        <path id="DejaVuSans-36" d="M 2113 2584 
Q 1688 2584 1439 2293 
Q 1191 2003 1191 1497 
Q 1191 994 1439 701 
Q 1688 409 2113 409 
Q 2538 409 2786 701 
Q 3034 994 3034 1497 
Q 3034 2003 2786 2293 
Q 2538 2584 2113 2584 
z
M 3366 4563 
L 3366 3988 
Q 3128 4100 2886 4159 
Q 2644 4219 2406 4219 
Q 1781 4219 1451 3797 
Q 1122 3375 1075 2522 
Q 1259 2794 1537 2939 
Q 1816 3084 2150 3084 
Q 2853 3084 3261 2657 
Q 3669 2231 3669 1497 
Q 3669 778 3244 343 
Q 2819 -91 2113 -91 
Q 1303 -91 875 529 
Q 447 1150 447 2328 
Q 447 3434 972 4092 
Q 1497 4750 2381 4750 
Q 2619 4750 2861 4703 
Q 3103 4656 3366 4563 
z
" transform="scale(0.015625)"/>
       </defs>
       <use xlink:href="#DejaVuSans-36"/>
       <use xlink:href="#DejaVuSans-30" transform="translate(63.623047 0)"/>
      </g>
     </g>
    </g>
    <g id="ytick_4">
     <g id="line2d_10">
      <g>
       <use xlink:href="#m89be935e33" x="50.87" y="202.211677" style="stroke: #000000; stroke-width: 0.8"/>
      </g>
     </g>
     <g id="text_11">
      <!-- 80 -->
      <g transform="translate(31.145 206.010896) scale(0.1 -0.1)">
       <defs>
        <path id="DejaVuSans-38" d="M 2034 2216 
Q 1584 2216 1326 1975 
Q 1069 1734 1069 1313 
Q 1069 891 1326 650 
Q 1584 409 2034 409 
Q 2484 409 2743 651 
Q 3003 894 3003 1313 
Q 3003 1734 2745 1975 
Q 2488 2216 2034 2216 
z
M 1403 2484 
Q 997 2584 770 2862 
Q 544 3141 544 3541 
Q 544 4100 942 4425 
Q 1341 4750 2034 4750 
Q 2731 4750 3128 4425 
Q 3525 4100 3525 3541 
Q 3525 3141 3298 2862 
Q 3072 2584 2669 2484 
Q 3125 2378 3379 2068 
Q 3634 1759 3634 1313 
Q 3634 634 3220 271 
Q 2806 -91 2034 -91 
Q 1263 -91 848 271 
Q 434 634 434 1313 
Q 434 1759 690 2068 
Q 947 2378 1403 2484 
z
M 1172 3481 
Q 1172 3119 1398 2916 
Q 1625 2713 2034 2713 
Q 2441 2713 2670 2916 
Q 2900 3119 2900 3481 
Q 2900 3844 2670 4047 
Q 2441 4250 2034 4250 
Q 1625 4250 1398 4047 
Q 1172 3844 1172 3481 
z
" transform="scale(0.015625)"/>
       </defs>
       <use xlink:href="#DejaVuSans-38"/>
       <use xlink:href="#DejaVuSans-30" transform="translate(63.623047 0)"/>
      </g>
     </g>
    </g>
    <g id="ytick_5">
     <g id="line2d_11">
      <g>
       <use xlink:href="#m89be935e33" x="50.87" y="146.868077" style="stroke: #000000; stroke-width: 0.8"/>
      </g>
     </g>
     <g id="text_12">
      <!-- 100 -->
      <g transform="translate(24.7825 150.667296) scale(0.1 -0.1)">
       <use xlink:href="#DejaVuSans-31"/>
       <use xlink:href="#DejaVuSans-30" transform="translate(63.623047 0)"/>
       <use xlink:href="#DejaVuSans-30" transform="translate(127.246094 0)"/>
      </g>
     </g>
    </g>
    <g id="ytick_6">
     <g id="line2d_12">
      <g>
       <use xlink:href="#m89be935e33" x="50.87" y="91.524477" style="stroke: #000000; stroke-width: 0.8"/>
      </g>
     </g>
     <g id="text_13">
      <!-- 120 -->
      <g transform="translate(24.7825 95.323696) scale(0.1 -0.1)">
       <use xlink:href="#DejaVuSans-31"/>
       <use xlink:href="#DejaVuSans-32" transform="translate(63.623047 0)"/>
       <use xlink:href="#DejaVuSans-30" transform="translate(127.246094 0)"/>
      </g>
     </g>
    </g>
    <g id="text_14">
     <!-- Profit -->
     <g transform="translate(18.702813 229.779063) rotate(-90) scale(0.1 -0.1)">
      <defs>
       <path id="DejaVuSans-50" d="M 1259 4147 
L 1259 2394 
L 2053 2394 
Q 2494 2394 2734 2622 
Q 2975 2850 2975 3272 
Q 2975 3691 2734 3919 
Q 2494 4147 2053 4147 
L 1259 4147 
z
M 628 4666 
L 2053 4666 
Q 2838 4666 3239 4311 
Q 3641 3956 3641 3272 
Q 3641 2581 3239 2228 
Q 2838 1875 2053 1875 
L 1259 1875 
L 1259 0 
L 628 0 
L 628 4666 
z
" transform="scale(0.015625)"/>
       <path id="DejaVuSans-72" d="M 2631 2963 
Q 2534 3019 2420 3045 
Q 2306 3072 2169 3072 
Q 1681 3072 1420 2755 
Q 1159 2438 1159 1844 
L 1159 0 
L 581 0 
L 581 3500 
L 1159 3500 
L 1159 2956 
Q 1341 3275 1631 3429 
Q 1922 3584 2338 3584 
Q 2397 3584 2469 3576 
Q 2541 3569 2628 3553 
L 2631 2963 
z
" transform="scale(0.015625)"/>
       <path id="DejaVuSans-6f" d="M 1959 3097 
Q 1497 3097 1228 2736 
Q 959 2375 959 1747 
Q 959 1119 1226 758 
Q 1494 397 1959 397 
Q 2419 397 2687 759 
Q 2956 1122 2956 1747 
Q 2956 2369 2687 2733 
Q 2419 3097 1959 3097 
z
M 1959 3584 
Q 2709 3584 3137 3096 
Q 3566 2609 3566 1747 
Q 3566 888 3137 398 
Q 2709 -91 1959 -91 
Q 1206 -91 779 398 
Q 353 888 353 1747 
Q 353 2609 779 3096 
Q 1206 3584 1959 3584 
z
" transform="scale(0.015625)"/>
       <path id="DejaVuSans-66" d="M 2375 4863 
L 2375 4384 
L 1825 4384 
Q 1516 4384 1395 4259 
Q 1275 4134 1275 3809 
L 1275 3500 
L 2222 3500 
L 2222 3053 
L 1275 3053 
L 1275 0 
L 697 0 
L 697 3053 
L 147 3053 
L 147 3500 
L 697 3500 
L 697 3744 
Q 697 4328 969 4595 
Q 1241 4863 1831 4863 
L 2375 4863 
z
" transform="scale(0.015625)"/>
       <path id="DejaVuSans-69" d="M 603 3500 
L 1178 3500 
L 1178 0 
L 603 0 
L 603 3500 
z
M 603 4863 
L 1178 4863 
L 1178 4134 
L 603 4134 
L 603 4863 
z
" transform="scale(0.015625)"/>
      </defs>
      <use xlink:href="#DejaVuSans-50"/>
      <use xlink:href="#DejaVuSans-72" transform="translate(58.552734 0)"/>
      <use xlink:href="#DejaVuSans-6f" transform="translate(97.416016 0)"/>
      <use xlink:href="#DejaVuSans-66" transform="translate(158.597656 0)"/>
      <use xlink:href="#DejaVuSans-69" transform="translate(193.802734 0)"/>
      <use xlink:href="#DejaVuSans-74" transform="translate(221.585938 0)"/>
     </g>
    </g>
   </g>
   <g id="line2d_13">
    <path d="M 52.193327 249.425493 
L 54.83998 248.706495 
L 57.486633 238.05672 
L 60.133287 229.239923 
L 62.77994 221.478341 
L 65.426593 215.076218 
L 68.073247 209.329852 
L 70.7199 204.655422 
L 73.366553 200.357017 
L 76.013207 196.471708 
L 78.65986 193.142719 
L 83.953167 186.925663 
L 86.59982 184.237231 
L 91.893127 179.68582 
L 94.53978 177.596079 
L 102.47974 172.238172 
L 107.773047 169.17228 
L 113.066353 166.531961 
L 126.29962 160.554441 
L 134.23958 157.756966 
L 142.17954 155.214247 
L 147.472847 153.861481 
L 163.352767 149.836496 
L 173.93938 147.53819 
L 195.112607 143.693648 
L 210.992527 141.232675 
L 232.165753 138.339162 
L 237.45906 137.751913 
L 245.39902 136.808358 
L 261.27894 135.044691 
L 300.97874 131.287995 
L 322.151967 129.637403 
L 375.085033 125.943453 
L 430.664753 122.906125 
L 518.004313 119.107248 
L 570.93738 117.281807 
L 581.523993 116.862334 
L 594.75726 116.483967 
L 645.043673 115.049286 
L 700.623393 113.652058 
L 740.323193 112.772367 
L 761.49642 112.358637 
L 782.669647 111.921662 
L 843.542673 110.698101 
L 843.542673 110.698101 
" clip-path="url(#pf7d6eb90e1)" style="fill: none; stroke: #0000ff; stroke-width: 1.5; stroke-linecap: square"/>
   </g>
   <g id="patch_3">
    <path d="M 50.87 390.04 
L 50.87 43.44 
" style="fill: none; stroke: #000000; stroke-width: 0.8; stroke-linejoin: miter; stroke-linecap: square"/>
   </g>
   <g id="patch_4">
    <path d="M 844.866 390.04 
L 844.866 43.44 
" style="fill: none; stroke: #000000; stroke-width: 0.8; stroke-linejoin: miter; stroke-linecap: square"/>
   </g>
   <g id="patch_5">
    <path d="M 50.87 390.04 
L 844.866 390.04 
" style="fill: none; stroke: #000000; stroke-width: 0.8; stroke-linejoin: miter; stroke-linecap: square"/>
   </g>
   <g id="patch_6">
    <path d="M 50.87 43.44 
L 844.866 43.44 
" style="fill: none; stroke: #000000; stroke-width: 0.8; stroke-linejoin: miter; stroke-linecap: square"/>
   </g>
   <g id="text_15">
    <!-- Mean profit per step with confidence interval per simulation step -->
    <g transform="translate(220.284875 21.763062) scale(0.14 -0.14)">
     <defs>
      <path id="DejaVuSans-4d" d="M 628 4666 
L 1569 4666 
L 2759 1491 
L 3956 4666 
L 4897 4666 
L 4897 0 
L 4281 0 
L 4281 4097 
L 3078 897 
L 2444 897 
L 1241 4097 
L 1241 0 
L 628 0 
L 628 4666 
z
" transform="scale(0.015625)"/>
      <path id="DejaVuSans-61" d="M 2194 1759 
Q 1497 1759 1228 1600 
Q 959 1441 959 1056 
Q 959 750 1161 570 
Q 1363 391 1709 391 
Q 2188 391 2477 730 
Q 2766 1069 2766 1631 
L 2766 1759 
L 2194 1759 
z
M 3341 1997 
L 3341 0 
L 2766 0 
L 2766 531 
Q 2569 213 2275 61 
Q 1981 -91 1556 -91 
Q 1019 -91 701 211 
Q 384 513 384 1019 
Q 384 1609 779 1909 
Q 1175 2209 1959 2209 
L 2766 2209 
L 2766 2266 
Q 2766 2663 2505 2880 
Q 2244 3097 1772 3097 
Q 1472 3097 1187 3025 
Q 903 2953 641 2809 
L 641 3341 
Q 956 3463 1253 3523 
Q 1550 3584 1831 3584 
Q 2591 3584 2966 3190 
Q 3341 2797 3341 1997 
z
" transform="scale(0.015625)"/>
      <path id="DejaVuSans-6e" d="M 3513 2113 
L 3513 0 
L 2938 0 
L 2938 2094 
Q 2938 2591 2744 2837 
Q 2550 3084 2163 3084 
Q 1697 3084 1428 2787 
Q 1159 2491 1159 1978 
L 1159 0 
L 581 0 
L 581 3500 
L 1159 3500 
L 1159 2956 
Q 1366 3272 1645 3428 
Q 1925 3584 2291 3584 
Q 2894 3584 3203 3211 
Q 3513 2838 3513 2113 
z
" transform="scale(0.015625)"/>
      <path id="DejaVuSans-20" transform="scale(0.015625)"/>
      <path id="DejaVuSans-73" d="M 2834 3397 
L 2834 2853 
Q 2591 2978 2328 3040 
Q 2066 3103 1784 3103 
Q 1356 3103 1142 2972 
Q 928 2841 928 2578 
Q 928 2378 1081 2264 
Q 1234 2150 1697 2047 
L 1894 2003 
Q 2506 1872 2764 1633 
Q 3022 1394 3022 966 
Q 3022 478 2636 193 
Q 2250 -91 1575 -91 
Q 1294 -91 989 -36 
Q 684 19 347 128 
L 347 722 
Q 666 556 975 473 
Q 1284 391 1588 391 
Q 1994 391 2212 530 
Q 2431 669 2431 922 
Q 2431 1156 2273 1281 
Q 2116 1406 1581 1522 
L 1381 1569 
Q 847 1681 609 1914 
Q 372 2147 372 2553 
Q 372 3047 722 3315 
Q 1072 3584 1716 3584 
Q 2034 3584 2315 3537 
Q 2597 3491 2834 3397 
z
" transform="scale(0.015625)"/>
      <path id="DejaVuSans-77" d="M 269 3500 
L 844 3500 
L 1563 769 
L 2278 3500 
L 2956 3500 
L 3675 769 
L 4391 3500 
L 4966 3500 
L 4050 0 
L 3372 0 
L 2619 2869 
L 1863 0 
L 1184 0 
L 269 3500 
z
" transform="scale(0.015625)"/>
      <path id="DejaVuSans-68" d="M 3513 2113 
L 3513 0 
L 2938 0 
L 2938 2094 
Q 2938 2591 2744 2837 
Q 2550 3084 2163 3084 
Q 1697 3084 1428 2787 
Q 1159 2491 1159 1978 
L 1159 0 
L 581 0 
L 581 4863 
L 1159 4863 
L 1159 2956 
Q 1366 3272 1645 3428 
Q 1925 3584 2291 3584 
Q 2894 3584 3203 3211 
Q 3513 2838 3513 2113 
z
" transform="scale(0.015625)"/>
      <path id="DejaVuSans-63" d="M 3122 3366 
L 3122 2828 
Q 2878 2963 2633 3030 
Q 2388 3097 2138 3097 
Q 1578 3097 1268 2742 
Q 959 2388 959 1747 
Q 959 1106 1268 751 
Q 1578 397 2138 397 
Q 2388 397 2633 464 
Q 2878 531 3122 666 
L 3122 134 
Q 2881 22 2623 -34 
Q 2366 -91 2075 -91 
Q 1284 -91 818 406 
Q 353 903 353 1747 
Q 353 2603 823 3093 
Q 1294 3584 2113 3584 
Q 2378 3584 2631 3529 
Q 2884 3475 3122 3366 
z
" transform="scale(0.015625)"/>
      <path id="DejaVuSans-64" d="M 2906 2969 
L 2906 4863 
L 3481 4863 
L 3481 0 
L 2906 0 
L 2906 525 
Q 2725 213 2448 61 
Q 2172 -91 1784 -91 
Q 1150 -91 751 415 
Q 353 922 353 1747 
Q 353 2572 751 3078 
Q 1150 3584 1784 3584 
Q 2172 3584 2448 3432 
Q 2725 3281 2906 2969 
z
M 947 1747 
Q 947 1113 1208 752 
Q 1469 391 1925 391 
Q 2381 391 2643 752 
Q 2906 1113 2906 1747 
Q 2906 2381 2643 2742 
Q 2381 3103 1925 3103 
Q 1469 3103 1208 2742 
Q 947 2381 947 1747 
z
" transform="scale(0.015625)"/>
      <path id="DejaVuSans-76" d="M 191 3500 
L 800 3500 
L 1894 563 
L 2988 3500 
L 3597 3500 
L 2284 0 
L 1503 0 
L 191 3500 
z
" transform="scale(0.015625)"/>
      <path id="DejaVuSans-6c" d="M 603 4863 
L 1178 4863 
L 1178 0 
L 603 0 
L 603 4863 
z
" transform="scale(0.015625)"/>
      <path id="DejaVuSans-6d" d="M 3328 2828 
Q 3544 3216 3844 3400 
Q 4144 3584 4550 3584 
Q 5097 3584 5394 3201 
Q 5691 2819 5691 2113 
L 5691 0 
L 5113 0 
L 5113 2094 
Q 5113 2597 4934 2840 
Q 4756 3084 4391 3084 
Q 3944 3084 3684 2787 
Q 3425 2491 3425 1978 
L 3425 0 
L 2847 0 
L 2847 2094 
Q 2847 2600 2669 2842 
Q 2491 3084 2119 3084 
Q 1678 3084 1418 2786 
Q 1159 2488 1159 1978 
L 1159 0 
L 581 0 
L 581 3500 
L 1159 3500 
L 1159 2956 
Q 1356 3278 1631 3431 
Q 1906 3584 2284 3584 
Q 2666 3584 2933 3390 
Q 3200 3197 3328 2828 
z
" transform="scale(0.015625)"/>
      <path id="DejaVuSans-75" d="M 544 1381 
L 544 3500 
L 1119 3500 
L 1119 1403 
Q 1119 906 1312 657 
Q 1506 409 1894 409 
Q 2359 409 2629 706 
Q 2900 1003 2900 1516 
L 2900 3500 
L 3475 3500 
L 3475 0 
L 2900 0 
L 2900 538 
Q 2691 219 2414 64 
Q 2138 -91 1772 -91 
Q 1169 -91 856 284 
Q 544 659 544 1381 
z
M 1991 3584 
L 1991 3584 
z
" transform="scale(0.015625)"/>
     </defs>
     <use xlink:href="#DejaVuSans-4d"/>
     <use xlink:href="#DejaVuSans-65" transform="translate(86.279297 0)"/>
     <use xlink:href="#DejaVuSans-61" transform="translate(147.802734 0)"/>
     <use xlink:href="#DejaVuSans-6e" transform="translate(209.082031 0)"/>
     <use xlink:href="#DejaVuSans-20" transform="translate(272.460938 0)"/>
     <use xlink:href="#DejaVuSans-70" transform="translate(304.248047 0)"/>
     <use xlink:href="#DejaVuSans-72" transform="translate(367.724609 0)"/>
     <use xlink:href="#DejaVuSans-6f" transform="translate(406.587891 0)"/>
     <use xlink:href="#DejaVuSans-66" transform="translate(467.769531 0)"/>
     <use xlink:href="#DejaVuSans-69" transform="translate(502.974609 0)"/>
     <use xlink:href="#DejaVuSans-74" transform="translate(530.757812 0)"/>
     <use xlink:href="#DejaVuSans-20" transform="translate(569.966797 0)"/>
     <use xlink:href="#DejaVuSans-70" transform="translate(601.753906 0)"/>
     <use xlink:href="#DejaVuSans-65" transform="translate(665.230469 0)"/>
     <use xlink:href="#DejaVuSans-72" transform="translate(726.753906 0)"/>
     <use xlink:href="#DejaVuSans-20" transform="translate(767.867188 0)"/>
     <use xlink:href="#DejaVuSans-73" transform="translate(799.654297 0)"/>
     <use xlink:href="#DejaVuSans-74" transform="translate(851.753906 0)"/>
     <use xlink:href="#DejaVuSans-65" transform="translate(890.962891 0)"/>
     <use xlink:href="#DejaVuSans-70" transform="translate(952.486328 0)"/>
     <use xlink:href="#DejaVuSans-20" transform="translate(1015.962891 0)"/>
     <use xlink:href="#DejaVuSans-77" transform="translate(1047.75 0)"/>
     <use xlink:href="#DejaVuSans-69" transform="translate(1129.537109 0)"/>
     <use xlink:href="#DejaVuSans-74" transform="translate(1157.320312 0)"/>
     <use xlink:href="#DejaVuSans-68" transform="translate(1196.529297 0)"/>
     <use xlink:href="#DejaVuSans-20" transform="translate(1259.908203 0)"/>
     <use xlink:href="#DejaVuSans-63" transform="translate(1291.695312 0)"/>
     <use xlink:href="#DejaVuSans-6f" transform="translate(1346.675781 0)"/>
     <use xlink:href="#DejaVuSans-6e" transform="translate(1407.857422 0)"/>
     <use xlink:href="#DejaVuSans-66" transform="translate(1471.236328 0)"/>
     <use xlink:href="#DejaVuSans-69" transform="translate(1506.441406 0)"/>
     <use xlink:href="#DejaVuSans-64" transform="translate(1534.224609 0)"/>
     <use xlink:href="#DejaVuSans-65" transform="translate(1597.701172 0)"/>
     <use xlink:href="#DejaVuSans-6e" transform="translate(1659.224609 0)"/>
     <use xlink:href="#DejaVuSans-63" transform="translate(1722.603516 0)"/>
     <use xlink:href="#DejaVuSans-65" transform="translate(1777.583984 0)"/>
     <use xlink:href="#DejaVuSans-20" transform="translate(1839.107422 0)"/>
     <use xlink:href="#DejaVuSans-69" transform="translate(1870.894531 0)"/>
     <use xlink:href="#DejaVuSans-6e" transform="translate(1898.677734 0)"/>
     <use xlink:href="#DejaVuSans-74" transform="translate(1962.056641 0)"/>
     <use xlink:href="#DejaVuSans-65" transform="translate(2001.265625 0)"/>
     <use xlink:href="#DejaVuSans-72" transform="translate(2062.789062 0)"/>
     <use xlink:href="#DejaVuSans-76" transform="translate(2103.902344 0)"/>
     <use xlink:href="#DejaVuSans-61" transform="translate(2163.082031 0)"/>
     <use xlink:href="#DejaVuSans-6c" transform="translate(2224.361328 0)"/>
     <use xlink:href="#DejaVuSans-20" transform="translate(2252.144531 0)"/>
     <use xlink:href="#DejaVuSans-70" transform="translate(2283.931641 0)"/>
     <use xlink:href="#DejaVuSans-65" transform="translate(2347.408203 0)"/>
     <use xlink:href="#DejaVuSans-72" transform="translate(2408.931641 0)"/>
     <use xlink:href="#DejaVuSans-20" transform="translate(2450.044922 0)"/>
     <use xlink:href="#DejaVuSans-73" transform="translate(2481.832031 0)"/>
     <use xlink:href="#DejaVuSans-69" transform="translate(2533.931641 0)"/>
     <use xlink:href="#DejaVuSans-6d" transform="translate(2561.714844 0)"/>
     <use xlink:href="#DejaVuSans-75" transform="translate(2659.126953 0)"/>
     <use xlink:href="#DejaVuSans-6c" transform="translate(2722.505859 0)"/>
     <use xlink:href="#DejaVuSans-61" transform="translate(2750.289062 0)"/>
     <use xlink:href="#DejaVuSans-74" transform="translate(2811.568359 0)"/>
     <use xlink:href="#DejaVuSans-69" transform="translate(2850.777344 0)"/>
     <use xlink:href="#DejaVuSans-6f" transform="translate(2878.560547 0)"/>
     <use xlink:href="#DejaVuSans-6e" transform="translate(2939.742188 0)"/>
     <use xlink:href="#DejaVuSans-20" transform="translate(3003.121094 0)"/>
     <use xlink:href="#DejaVuSans-73" transform="translate(3034.908203 0)"/>
     <use xlink:href="#DejaVuSans-74" transform="translate(3087.007812 0)"/>
     <use xlink:href="#DejaVuSans-65" transform="translate(3126.216797 0)"/>
     <use xlink:href="#DejaVuSans-70" transform="translate(3187.740234 0)"/>
    </g>
    <!-- Base Product: Green Crack, Recipe size: 9, T0: 5.0 -->
    <g transform="translate(272.485187 37.44) scale(0.14 -0.14)">
     <defs>
      <path id="DejaVuSans-42" d="M 1259 2228 
L 1259 519 
L 2272 519 
Q 2781 519 3026 730 
Q 3272 941 3272 1375 
Q 3272 1813 3026 2020 
Q 2781 2228 2272 2228 
L 1259 2228 
z
M 1259 4147 
L 1259 2741 
L 2194 2741 
Q 2656 2741 2882 2914 
Q 3109 3088 3109 3444 
Q 3109 3797 2882 3972 
Q 2656 4147 2194 4147 
L 1259 4147 
z
M 628 4666 
L 2241 4666 
Q 2963 4666 3353 4366 
Q 3744 4066 3744 3513 
Q 3744 3084 3544 2831 
Q 3344 2578 2956 2516 
Q 3422 2416 3680 2098 
Q 3938 1781 3938 1306 
Q 3938 681 3513 340 
Q 3088 0 2303 0 
L 628 0 
L 628 4666 
z
" transform="scale(0.015625)"/>
      <path id="DejaVuSans-3a" d="M 750 794 
L 1409 794 
L 1409 0 
L 750 0 
L 750 794 
z
M 750 3309 
L 1409 3309 
L 1409 2516 
L 750 2516 
L 750 3309 
z
" transform="scale(0.015625)"/>
      <path id="DejaVuSans-47" d="M 3809 666 
L 3809 1919 
L 2778 1919 
L 2778 2438 
L 4434 2438 
L 4434 434 
Q 4069 175 3628 42 
Q 3188 -91 2688 -91 
Q 1594 -91 976 548 
Q 359 1188 359 2328 
Q 359 3472 976 4111 
Q 1594 4750 2688 4750 
Q 3144 4750 3555 4637 
Q 3966 4525 4313 4306 
L 4313 3634 
Q 3963 3931 3569 4081 
Q 3175 4231 2741 4231 
Q 1884 4231 1454 3753 
Q 1025 3275 1025 2328 
Q 1025 1384 1454 906 
Q 1884 428 2741 428 
Q 3075 428 3337 486 
Q 3600 544 3809 666 
z
" transform="scale(0.015625)"/>
      <path id="DejaVuSans-43" d="M 4122 4306 
L 4122 3641 
Q 3803 3938 3442 4084 
Q 3081 4231 2675 4231 
Q 1875 4231 1450 3742 
Q 1025 3253 1025 2328 
Q 1025 1406 1450 917 
Q 1875 428 2675 428 
Q 3081 428 3442 575 
Q 3803 722 4122 1019 
L 4122 359 
Q 3791 134 3420 21 
Q 3050 -91 2638 -91 
Q 1578 -91 968 557 
Q 359 1206 359 2328 
Q 359 3453 968 4101 
Q 1578 4750 2638 4750 
Q 3056 4750 3426 4639 
Q 3797 4528 4122 4306 
z
" transform="scale(0.015625)"/>
      <path id="DejaVuSans-6b" d="M 581 4863 
L 1159 4863 
L 1159 1991 
L 2875 3500 
L 3609 3500 
L 1753 1863 
L 3688 0 
L 2938 0 
L 1159 1709 
L 1159 0 
L 581 0 
L 581 4863 
z
" transform="scale(0.015625)"/>
      <path id="DejaVuSans-2c" d="M 750 794 
L 1409 794 
L 1409 256 
L 897 -744 
L 494 -744 
L 750 256 
L 750 794 
z
" transform="scale(0.015625)"/>
      <path id="DejaVuSans-52" d="M 2841 2188 
Q 3044 2119 3236 1894 
Q 3428 1669 3622 1275 
L 4263 0 
L 3584 0 
L 2988 1197 
Q 2756 1666 2539 1819 
Q 2322 1972 1947 1972 
L 1259 1972 
L 1259 0 
L 628 0 
L 628 4666 
L 2053 4666 
Q 2853 4666 3247 4331 
Q 3641 3997 3641 3322 
Q 3641 2881 3436 2590 
Q 3231 2300 2841 2188 
z
M 1259 4147 
L 1259 2491 
L 2053 2491 
Q 2509 2491 2742 2702 
Q 2975 2913 2975 3322 
Q 2975 3731 2742 3939 
Q 2509 4147 2053 4147 
L 1259 4147 
z
" transform="scale(0.015625)"/>
      <path id="DejaVuSans-7a" d="M 353 3500 
L 3084 3500 
L 3084 2975 
L 922 459 
L 3084 459 
L 3084 0 
L 275 0 
L 275 525 
L 2438 3041 
L 353 3041 
L 353 3500 
z
" transform="scale(0.015625)"/>
      <path id="DejaVuSans-39" d="M 703 97 
L 703 672 
Q 941 559 1184 500 
Q 1428 441 1663 441 
Q 2288 441 2617 861 
Q 2947 1281 2994 2138 
Q 2813 1869 2534 1725 
Q 2256 1581 1919 1581 
Q 1219 1581 811 2004 
Q 403 2428 403 3163 
Q 403 3881 828 4315 
Q 1253 4750 1959 4750 
Q 2769 4750 3195 4129 
Q 3622 3509 3622 2328 
Q 3622 1225 3098 567 
Q 2575 -91 1691 -91 
Q 1453 -91 1209 -44 
Q 966 3 703 97 
z
M 1959 2075 
Q 2384 2075 2632 2365 
Q 2881 2656 2881 3163 
Q 2881 3666 2632 3958 
Q 2384 4250 1959 4250 
Q 1534 4250 1286 3958 
Q 1038 3666 1038 3163 
Q 1038 2656 1286 2365 
Q 1534 2075 1959 2075 
z
" transform="scale(0.015625)"/>
      <path id="DejaVuSans-54" d="M -19 4666 
L 3928 4666 
L 3928 4134 
L 2272 4134 
L 2272 0 
L 1638 0 
L 1638 4134 
L -19 4134 
L -19 4666 
z
" transform="scale(0.015625)"/>
      <path id="DejaVuSans-2e" d="M 684 794 
L 1344 794 
L 1344 0 
L 684 0 
L 684 794 
z
" transform="scale(0.015625)"/>
     </defs>
     <use xlink:href="#DejaVuSans-42"/>
     <use xlink:href="#DejaVuSans-61" transform="translate(68.603516 0)"/>
     <use xlink:href="#DejaVuSans-73" transform="translate(129.882812 0)"/>
     <use xlink:href="#DejaVuSans-65" transform="translate(181.982422 0)"/>
     <use xlink:href="#DejaVuSans-20" transform="translate(243.505859 0)"/>
     <use xlink:href="#DejaVuSans-50" transform="translate(275.292969 0)"/>
     <use xlink:href="#DejaVuSans-72" transform="translate(333.845703 0)"/>
     <use xlink:href="#DejaVuSans-6f" transform="translate(372.708984 0)"/>
     <use xlink:href="#DejaVuSans-64" transform="translate(433.890625 0)"/>
     <use xlink:href="#DejaVuSans-75" transform="translate(497.367188 0)"/>
     <use xlink:href="#DejaVuSans-63" transform="translate(560.746094 0)"/>
     <use xlink:href="#DejaVuSans-74" transform="translate(615.726562 0)"/>
     <use xlink:href="#DejaVuSans-3a" transform="translate(654.935547 0)"/>
     <use xlink:href="#DejaVuSans-20" transform="translate(688.626953 0)"/>
     <use xlink:href="#DejaVuSans-47" transform="translate(720.414062 0)"/>
     <use xlink:href="#DejaVuSans-72" transform="translate(797.904297 0)"/>
     <use xlink:href="#DejaVuSans-65" transform="translate(836.767578 0)"/>
     <use xlink:href="#DejaVuSans-65" transform="translate(898.291016 0)"/>
     <use xlink:href="#DejaVuSans-6e" transform="translate(959.814453 0)"/>
     <use xlink:href="#DejaVuSans-20" transform="translate(1023.193359 0)"/>
     <use xlink:href="#DejaVuSans-43" transform="translate(1054.980469 0)"/>
     <use xlink:href="#DejaVuSans-72" transform="translate(1124.804688 0)"/>
     <use xlink:href="#DejaVuSans-61" transform="translate(1165.917969 0)"/>
     <use xlink:href="#DejaVuSans-63" transform="translate(1227.197266 0)"/>
     <use xlink:href="#DejaVuSans-6b" transform="translate(1282.177734 0)"/>
     <use xlink:href="#DejaVuSans-2c" transform="translate(1340.087891 0)"/>
     <use xlink:href="#DejaVuSans-20" transform="translate(1371.875 0)"/>
     <use xlink:href="#DejaVuSans-52" transform="translate(1403.662109 0)"/>
     <use xlink:href="#DejaVuSans-65" transform="translate(1468.644531 0)"/>
     <use xlink:href="#DejaVuSans-63" transform="translate(1530.167969 0)"/>
     <use xlink:href="#DejaVuSans-69" transform="translate(1585.148438 0)"/>
     <use xlink:href="#DejaVuSans-70" transform="translate(1612.931641 0)"/>
     <use xlink:href="#DejaVuSans-65" transform="translate(1676.408203 0)"/>
     <use xlink:href="#DejaVuSans-20" transform="translate(1737.931641 0)"/>
     <use xlink:href="#DejaVuSans-73" transform="translate(1769.71875 0)"/>
     <use xlink:href="#DejaVuSans-69" transform="translate(1821.818359 0)"/>
     <use xlink:href="#DejaVuSans-7a" transform="translate(1849.601562 0)"/>
     <use xlink:href="#DejaVuSans-65" transform="translate(1902.091797 0)"/>
     <use xlink:href="#DejaVuSans-3a" transform="translate(1963.615234 0)"/>
     <use xlink:href="#DejaVuSans-20" transform="translate(1997.306641 0)"/>
     <use xlink:href="#DejaVuSans-39" transform="translate(2029.09375 0)"/>
     <use xlink:href="#DejaVuSans-2c" transform="translate(2092.716797 0)"/>
     <use xlink:href="#DejaVuSans-20" transform="translate(2124.503906 0)"/>
     <use xlink:href="#DejaVuSans-54" transform="translate(2156.291016 0)"/>
     <use xlink:href="#DejaVuSans-30" transform="translate(2217.375 0)"/>
     <use xlink:href="#DejaVuSans-3a" transform="translate(2280.998047 0)"/>
     <use xlink:href="#DejaVuSans-20" transform="translate(2314.689453 0)"/>
     <use xlink:href="#DejaVuSans-35" transform="translate(2346.476562 0)"/>
     <use xlink:href="#DejaVuSans-2e" transform="translate(2410.099609 0)"/>
     <use xlink:href="#DejaVuSans-30" transform="translate(2441.886719 0)"/>
    </g>
   </g>
  </g>
 </g>
 <defs>
  <clipPath id="pf7d6eb90e1">
   <rect x="50.87" y="43.44" width="793.996" height="346.6"/>
  </clipPath>
 </defs>
</svg>
