<?xml version="1.0" encoding="utf-8" standalone="no"?>
<!DOCTYPE svg PUBLIC "-//W3C//DTD SVG 1.1//EN"
  "http://www.w3.org/Graphics/SVG/1.1/DTD/svg11.dtd">
<svg xmlns:xlink="http://www.w3.org/1999/xlink" width="864pt" height="432pt" viewBox="0 0 864 432" xmlns="http://www.w3.org/2000/svg" version="1.1">
 <metadata>
  <rdf:RDF xmlns:dc="http://purl.org/dc/elements/1.1/" xmlns:cc="http://creativecommons.org/ns#" xmlns:rdf="http://www.w3.org/1999/02/22-rdf-syntax-ns#">
   <cc:Work>
    <dc:type rdf:resource="http://purl.org/dc/dcmitype/StillImage"/>
    <dc:date>2025-05-24T02:09:27.238861</dc:date>
    <dc:format>image/svg+xml</dc:format>
    <dc:creator>
     <cc:Agent>
      <dc:title>Matplotlib v3.10.3, https://matplotlib.org/</dc:title>
     </cc:Agent>
    </dc:creator>
   </cc:Work>
  </rdf:RDF>
 </metadata>
 <defs>
  <style type="text/css">*{stroke-linejoin: round; stroke-linecap: butt}</style>
 </defs>
 <g id="figure_1">
  <g id="patch_1">
   <path d="M 0 432 
L 864 432 
L 864 0 
L 0 0 
z
" style="fill: #ffffff"/>
  </g>
  <g id="axes_1">
   <g id="patch_2">
    <path d="M 50.87 390.04 
L 844.866 390.04 
L 844.866 43.44 
L 50.87 43.44 
z
" style="fill: #ffffff"/>
   </g>
   <g id="FillBetweenPolyCollection_1">
    <defs>
     <path id="m40646aa6c5" d="M 52.193327 -323.587055 
L 52.193327 -57.714545 
L 54.83998 -58.22629 
L 57.486633 -60.921318 
L 60.133287 -64.923248 
L 62.77994 -67.81281 
L 65.426593 -73.014484 
L 68.073247 -75.291515 
L 70.7199 -79.166185 
L 73.366553 -82.371869 
L 76.013207 -84.428338 
L 78.65986 -85.183578 
L 81.306513 -87.222065 
L 83.953167 -89.423696 
L 86.59982 -90.503584 
L 89.246473 -92.853483 
L 91.893127 -94.474513 
L 94.53978 -95.206281 
L 97.186433 -94.656727 
L 99.833087 -94.615721 
L 102.47974 -96.526192 
L 105.126393 -98.585641 
L 107.773047 -99.847858 
L 110.4197 -100.679931 
L 113.066353 -101.018996 
L 115.713007 -100.519709 
L 118.35966 -100.959962 
L 121.006313 -101.441932 
L 123.652967 -101.945655 
L 126.29962 -101.844961 
L 128.946273 -101.781766 
L 131.592927 -102.805944 
L 134.23958 -105.128187 
L 136.886233 -105.063939 
L 139.532887 -106.88246 
L 142.17954 -107.75084 
L 144.826193 -108.162418 
L 147.472847 -107.378939 
L 150.1195 -109.522155 
L 152.766153 -111.064598 
L 155.412807 -111.087119 
L 158.05946 -112.335812 
L 160.706113 -112.587834 
L 163.352767 -111.921633 
L 165.99942 -113.88464 
L 168.646073 -113.071706 
L 171.292727 -112.981121 
L 173.93938 -112.551194 
L 176.586033 -111.271889 
L 179.232687 -112.483369 
L 181.87934 -114.050545 
L 184.525993 -114.517605 
L 187.172647 -113.593904 
L 189.8193 -114.589429 
L 192.465953 -113.739031 
L 195.112607 -114.601073 
L 197.75926 -114.529203 
L 200.405913 -114.912645 
L 203.052567 -114.363561 
L 205.69922 -115.307319 
L 208.345873 -115.02543 
L 210.992527 -115.891553 
L 213.63918 -115.463334 
L 216.285833 -116.787038 
L 218.932487 -117.093039 
L 221.57914 -119.167536 
L 224.225793 -118.785355 
L 226.872447 -118.505197 
L 229.5191 -118.492098 
L 232.165753 -118.580735 
L 234.812407 -117.895406 
L 237.45906 -117.889618 
L 240.105713 -120.114904 
L 242.752367 -119.749559 
L 245.39902 -120.0838 
L 248.045673 -119.086795 
L 250.692327 -120.875954 
L 253.33898 -119.245527 
L 255.985633 -119.136959 
L 258.632287 -119.062751 
L 261.27894 -119.542704 
L 263.925593 -120.246874 
L 266.572247 -120.426602 
L 269.2189 -121.930984 
L 271.865553 -122.144337 
L 274.512207 -123.02231 
L 277.15886 -123.398841 
L 279.805513 -122.863877 
L 282.452167 -122.930624 
L 285.09882 -122.881343 
L 287.745473 -123.057713 
L 290.392127 -124.031967 
L 293.03878 -123.802363 
L 295.685433 -124.786451 
L 298.332087 -125.039446 
L 300.97874 -125.13535 
L 303.625393 -124.283278 
L 306.272047 -123.415333 
L 308.9187 -123.256809 
L 311.565353 -123.783865 
L 314.212007 -123.803474 
L 316.85866 -124.051072 
L 319.505313 -124.617061 
L 322.151967 -124.83344 
L 324.79862 -124.241412 
L 327.445273 -124.346381 
L 330.091927 -123.898117 
L 332.73858 -124.57971 
L 335.385233 -123.926941 
L 338.031887 -125.175371 
L 340.67854 -125.588748 
L 343.325193 -125.613137 
L 345.971847 -124.699108 
L 348.6185 -124.626138 
L 351.265153 -125.572955 
L 353.911807 -124.575298 
L 356.55846 -124.427248 
L 359.205113 -126.140743 
L 361.851767 -125.902291 
L 364.49842 -126.654975 
L 367.145073 -127.028125 
L 369.791727 -126.431582 
L 372.43838 -126.643755 
L 375.085033 -125.882143 
L 377.731687 -125.762539 
L 380.37834 -125.520935 
L 383.024993 -126.553846 
L 385.671647 -125.952581 
L 388.3183 -127.319148 
L 390.964953 -128.906392 
L 393.611607 -128.207997 
L 396.25826 -127.421229 
L 398.904913 -127.405081 
L 401.551567 -127.613712 
L 404.19822 -126.333731 
L 406.844873 -126.971693 
L 409.491527 -127.422753 
L 412.13818 -128.515088 
L 414.784833 -127.947093 
L 417.431487 -128.244144 
L 420.07814 -129.279439 
L 422.724793 -128.731409 
L 425.371447 -128.931181 
L 428.0181 -129.271611 
L 430.664753 -130.238382 
L 433.311407 -131.30242 
L 435.95806 -132.074025 
L 438.604713 -131.49778 
L 441.251367 -130.876378 
L 443.89802 -131.533766 
L 446.544673 -130.65043 
L 449.191327 -130.60014 
L 451.83798 -131.037688 
L 454.484633 -130.229144 
L 457.131287 -131.360789 
L 459.77794 -130.687746 
L 462.424593 -130.508867 
L 465.071247 -130.790342 
L 467.7179 -131.646632 
L 470.364553 -131.840501 
L 473.011207 -130.380632 
L 475.65786 -130.586456 
L 478.304513 -131.32423 
L 480.951167 -130.370593 
L 483.59782 -131.17124 
L 486.244473 -131.880328 
L 488.891127 -131.684773 
L 491.53778 -131.816652 
L 494.184433 -131.971956 
L 496.831087 -132.896826 
L 499.47774 -132.135421 
L 502.124393 -132.604772 
L 504.771047 -131.703993 
L 507.4177 -131.947671 
L 510.064353 -133.186462 
L 512.711007 -132.615488 
L 515.35766 -132.552569 
L 518.004313 -131.240039 
L 520.650967 -131.728885 
L 523.29762 -131.560321 
L 525.944273 -132.180232 
L 528.590927 -131.83351 
L 531.23758 -131.405945 
L 533.884233 -132.001731 
L 536.530887 -131.726719 
L 539.17754 -132.749934 
L 541.824193 -132.359604 
L 544.470847 -133.530651 
L 547.1175 -132.999858 
L 549.764153 -134.759426 
L 552.410807 -134.442387 
L 555.05746 -134.055335 
L 557.704113 -133.55504 
L 560.350767 -134.191603 
L 562.99742 -134.976538 
L 565.644073 -136.150141 
L 568.290727 -135.658578 
L 570.93738 -136.124698 
L 573.584033 -135.491698 
L 576.230687 -135.414178 
L 578.87734 -135.03987 
L 581.523993 -135.265991 
L 584.170647 -135.048397 
L 586.8173 -133.642084 
L 589.463953 -134.095035 
L 592.110607 -134.012621 
L 594.75726 -133.54704 
L 597.403913 -133.470391 
L 600.050567 -134.009779 
L 602.69722 -135.244353 
L 605.343873 -135.189616 
L 607.990527 -135.225786 
L 610.63718 -135.86125 
L 613.283833 -134.891855 
L 615.930487 -134.866893 
L 618.57714 -135.24308 
L 621.223793 -135.36414 
L 623.870447 -135.557047 
L 626.5171 -136.605591 
L 629.163753 -136.428625 
L 631.810407 -136.094201 
L 634.45706 -136.446103 
L 637.103713 -137.172794 
L 639.750367 -138.807634 
L 642.39702 -139.256574 
L 645.043673 -137.465845 
L 647.690327 -137.515997 
L 650.33698 -136.900372 
L 652.983633 -137.194753 
L 655.630287 -136.988769 
L 658.27694 -137.684413 
L 660.923593 -138.186382 
L 663.570247 -138.139714 
L 666.2169 -137.936904 
L 668.863553 -137.545761 
L 671.510207 -138.143335 
L 674.15686 -136.919133 
L 676.803513 -137.182753 
L 679.450167 -136.621246 
L 682.09682 -137.787961 
L 684.743473 -138.122683 
L 687.390127 -138.556472 
L 690.03678 -137.783021 
L 692.683433 -137.39033 
L 695.330087 -138.193167 
L 697.97674 -137.036308 
L 700.623393 -137.079813 
L 703.270047 -137.762908 
L 705.9167 -139.519484 
L 708.563353 -138.295568 
L 711.210007 -137.740685 
L 713.85666 -137.837024 
L 716.503313 -137.744307 
L 719.149967 -137.873263 
L 721.79662 -138.871356 
L 724.443273 -138.256143 
L 727.089927 -138.512428 
L 729.73658 -138.649476 
L 732.383233 -138.954034 
L 735.029887 -139.187076 
L 737.67654 -138.394956 
L 740.323193 -138.511913 
L 742.969847 -139.162894 
L 745.6165 -138.397145 
L 748.263153 -137.507413 
L 750.909807 -138.449738 
L 753.55646 -137.680665 
L 756.203113 -138.599507 
L 758.849767 -139.166241 
L 761.49642 -138.807164 
L 764.143073 -139.876245 
L 766.789727 -139.255153 
L 769.43638 -139.314107 
L 772.083033 -138.802798 
L 774.729687 -139.744206 
L 777.37634 -139.08189 
L 780.022993 -138.743649 
L 782.669647 -138.4882 
L 785.3163 -138.818018 
L 787.962953 -140.05729 
L 790.609607 -139.396888 
L 793.25626 -138.939054 
L 795.902913 -138.100415 
L 798.549567 -138.900386 
L 801.19622 -138.0118 
L 803.842873 -138.921371 
L 806.489527 -139.714568 
L 809.13618 -140.388804 
L 811.782833 -139.298028 
L 814.429487 -139.946717 
L 817.07614 -139.894788 
L 819.722793 -139.777969 
L 822.369447 -139.818918 
L 825.0161 -139.307047 
L 827.662753 -140.582456 
L 830.309407 -141.330693 
L 832.95606 -141.396329 
L 835.602713 -140.563007 
L 838.249367 -139.908163 
L 840.89602 -140.311696 
L 843.542673 -141.406426 
L 843.542673 -372.045745 
L 843.542673 -372.045745 
L 840.89602 -372.501516 
L 838.249367 -372.458309 
L 835.602713 -372.067933 
L 832.95606 -370.903957 
L 830.309407 -370.866756 
L 827.662753 -371.331672 
L 825.0161 -372.317502 
L 822.369447 -371.939091 
L 819.722793 -371.307788 
L 817.07614 -371.330114 
L 814.429487 -371.654452 
L 811.782833 -372.386014 
L 809.13618 -371.464365 
L 806.489527 -372.342097 
L 803.842873 -372.596594 
L 801.19622 -372.78345 
L 798.549567 -372.052553 
L 795.902913 -372.805455 
L 793.25626 -372.655754 
L 790.609607 -372.370244 
L 787.962953 -371.646843 
L 785.3163 -372.081296 
L 782.669647 -372.338911 
L 780.022993 -372.486686 
L 777.37634 -372.309778 
L 774.729687 -372.140457 
L 772.083033 -372.428098 
L 769.43638 -371.411829 
L 766.789727 -371.609045 
L 764.143073 -371.131338 
L 761.49642 -371.978333 
L 758.849767 -371.338044 
L 756.203113 -371.676618 
L 753.55646 -372.326006 
L 750.909807 -372.124091 
L 748.263153 -372.444648 
L 745.6165 -371.968981 
L 742.969847 -371.698324 
L 740.323193 -371.76388 
L 737.67654 -371.814926 
L 735.029887 -371.282506 
L 732.383233 -371.000503 
L 729.73658 -370.907373 
L 727.089927 -370.651042 
L 724.443273 -370.746097 
L 721.79662 -369.703949 
L 719.149967 -370.170035 
L 716.503313 -370.839892 
L 713.85666 -370.994956 
L 711.210007 -370.920713 
L 708.563353 -370.188555 
L 705.9167 -369.927067 
L 703.270047 -371.318744 
L 700.623393 -371.361768 
L 697.97674 -370.71011 
L 695.330087 -369.741655 
L 692.683433 -370.54652 
L 690.03678 -370.566232 
L 687.390127 -369.958676 
L 684.743473 -370.280126 
L 682.09682 -370.658239 
L 679.450167 -371.162764 
L 676.803513 -370.510212 
L 674.15686 -370.322737 
L 671.510207 -369.584689 
L 668.863553 -369.967454 
L 666.2169 -369.738904 
L 663.570247 -369.988749 
L 660.923593 -369.692649 
L 658.27694 -369.850532 
L 655.630287 -371.217867 
L 652.983633 -370.921194 
L 650.33698 -370.925595 
L 647.690327 -370.453459 
L 645.043673 -370.414355 
L 642.39702 -369.557756 
L 639.750367 -369.497564 
L 637.103713 -370.843811 
L 634.45706 -370.321477 
L 631.810407 -370.924587 
L 629.163753 -370.514292 
L 626.5171 -370.245194 
L 623.870447 -371.024089 
L 621.223793 -370.859696 
L 618.57714 -370.118667 
L 615.930487 -370.812867 
L 613.283833 -370.786599 
L 610.63718 -369.729782 
L 607.990527 -369.914368 
L 605.343873 -370.285375 
L 602.69722 -369.55418 
L 600.050567 -370.201414 
L 597.403913 -370.539139 
L 594.75726 -370.246294 
L 592.110607 -370.140305 
L 589.463953 -370.108307 
L 586.8173 -370.450112 
L 584.170647 -369.341996 
L 581.523993 -369.281827 
L 578.87734 -369.63264 
L 576.230687 -369.588127 
L 573.584033 -369.39577 
L 570.93738 -368.956869 
L 568.290727 -369.443217 
L 565.644073 -368.360269 
L 562.99742 -369.001131 
L 560.350767 -369.133548 
L 557.704113 -369.492476 
L 555.05746 -369.002254 
L 552.410807 -368.88948 
L 549.764153 -368.208139 
L 547.1175 -369.757287 
L 544.470847 -368.888953 
L 541.824193 -370.131045 
L 539.17754 -370.229241 
L 536.530887 -370.497147 
L 533.884233 -370.292 
L 531.23758 -370.676851 
L 528.590927 -369.921543 
L 525.944273 -369.946619 
L 523.29762 -370.118415 
L 520.650967 -369.638348 
L 518.004313 -369.407781 
L 515.35766 -368.582837 
L 512.711007 -369.222415 
L 510.064353 -368.667073 
L 507.4177 -368.796923 
L 504.771047 -369.450942 
L 502.124393 -368.61621 
L 499.47774 -368.656162 
L 496.831087 -367.811368 
L 494.184433 -368.576281 
L 491.53778 -368.863533 
L 488.891127 -369.006196 
L 486.244473 -369.167564 
L 483.59782 -369.194932 
L 480.951167 -369.260854 
L 478.304513 -368.403339 
L 475.65786 -368.796144 
L 473.011207 -368.889893 
L 470.364553 -367.761698 
L 467.7179 -367.780997 
L 465.071247 -368.664643 
L 462.424593 -368.174811 
L 459.77794 -368.357587 
L 457.131287 -368.443566 
L 454.484633 -369.427081 
L 451.83798 -368.911989 
L 449.191327 -369.226266 
L 446.544673 -368.578229 
L 443.89802 -367.858518 
L 441.251367 -367.824961 
L 438.604713 -367.657726 
L 435.95806 -367.657772 
L 433.311407 -367.171928 
L 430.664753 -367.791679 
L 428.0181 -367.747188 
L 425.371447 -367.450722 
L 422.724793 -367.527761 
L 420.07814 -367.244085 
L 417.431487 -368.310484 
L 414.784833 -368.190879 
L 412.13818 -367.571128 
L 409.491527 -367.956209 
L 406.844873 -367.890929 
L 404.19822 -368.099698 
L 401.551567 -367.424798 
L 398.904913 -366.957062 
L 396.25826 -366.719366 
L 393.611607 -366.196711 
L 390.964953 -365.784399 
L 388.3183 -366.504546 
L 385.671647 -367.454023 
L 383.024993 -366.875737 
L 380.37834 -367.47032 
L 377.731687 -367.524735 
L 375.085033 -367.087531 
L 372.43838 -366.701189 
L 369.791727 -365.966029 
L 367.145073 -365.573384 
L 364.49842 -366.223025 
L 361.851767 -366.641456 
L 359.205113 -366.789002 
L 356.55846 -368.072398 
L 353.911807 -368.095068 
L 351.265153 -366.842432 
L 348.6185 -367.262101 
L 345.971847 -366.824805 
L 343.325193 -365.988125 
L 340.67854 -366.354365 
L 338.031887 -366.115935 
L 335.385233 -366.47594 
L 332.73858 -365.563574 
L 330.091927 -366.450681 
L 327.445273 -366.122926 
L 324.79862 -365.758406 
L 322.151967 -364.976004 
L 319.505313 -364.594683 
L 316.85866 -364.917646 
L 314.212007 -364.938046 
L 311.565353 -365.126507 
L 308.9187 -364.835312 
L 306.272047 -364.612424 
L 303.625393 -364.022287 
L 300.97874 -363.648851 
L 298.332087 -363.514714 
L 295.685433 -363.734164 
L 293.03878 -364.418577 
L 290.392127 -363.758965 
L 287.745473 -364.219412 
L 285.09882 -363.902637 
L 282.452167 -363.936515 
L 279.805513 -364.277128 
L 277.15886 -363.120648 
L 274.512207 -362.524644 
L 271.865553 -363.089108 
L 269.2189 -362.854713 
L 266.572247 -363.616806 
L 263.925593 -363.972892 
L 261.27894 -363.926521 
L 258.632287 -363.692012 
L 255.985633 -363.569038 
L 253.33898 -363.587123 
L 250.692327 -362.449186 
L 248.045673 -363.302553 
L 245.39902 -362.595655 
L 242.752367 -362.940623 
L 240.105713 -361.901317 
L 237.45906 -363.912127 
L 234.812407 -363.618434 
L 232.165753 -362.970146 
L 229.5191 -362.334418 
L 226.872447 -361.657937 
L 224.225793 -360.52353 
L 221.57914 -359.53935 
L 218.932487 -360.245882 
L 216.285833 -360.80998 
L 213.63918 -360.834139 
L 210.992527 -360.45245 
L 208.345873 -360.939623 
L 205.69922 -360.920049 
L 203.052567 -360.152271 
L 200.405913 -359.178612 
L 197.75926 -359.198806 
L 195.112607 -358.503941 
L 192.465953 -358.855007 
L 189.8193 -357.986237 
L 187.172647 -358.990748 
L 184.525993 -357.923042 
L 181.87934 -357.338659 
L 179.232687 -357.842634 
L 176.586033 -358.665217 
L 173.93938 -357.228269 
L 171.292727 -357.074741 
L 168.646073 -356.52976 
L 165.99942 -356.349093 
L 163.352767 -356.200333 
L 160.706113 -355.558485 
L 158.05946 -355.415639 
L 155.412807 -355.9261 
L 152.766153 -354.856492 
L 150.1195 -355.450296 
L 147.472847 -356.073921 
L 144.826193 -354.822339 
L 142.17954 -354.94749 
L 139.532887 -355.064459 
L 136.886233 -355.496781 
L 134.23958 -354.777528 
L 131.592927 -355.282648 
L 128.946273 -355.383273 
L 126.29962 -353.844944 
L 123.652967 -352.485953 
L 121.006313 -352.600422 
L 118.35966 -352.677049 
L 115.713007 -351.235311 
L 113.066353 -350.1514 
L 110.4197 -349.147302 
L 107.773047 -347.913461 
L 105.126393 -348.604108 
L 102.47974 -349.145376 
L 99.833087 -348.95036 
L 97.186433 -347.580618 
L 94.53978 -345.474501 
L 91.893127 -345.289823 
L 89.246473 -344.810649 
L 86.59982 -344.650795 
L 83.953167 -342.891984 
L 81.306513 -342.46718 
L 78.65986 -341.660596 
L 76.013207 -338.664713 
L 73.366553 -336.910441 
L 70.7199 -335.659478 
L 68.073247 -335.036564 
L 65.426593 -332.407974 
L 62.77994 -331.51665 
L 60.133287 -328.152052 
L 57.486633 -326.314964 
L 54.83998 -323.001412 
L 52.193327 -323.587055 
z
" style="stroke: #0000ff; stroke-opacity: 0.2"/>
    </defs>
    <g clip-path="url(#p87c744500e)">
     <use xlink:href="#m40646aa6c5" x="0" y="432" style="fill: #0000ff; fill-opacity: 0.2; stroke: #0000ff; stroke-opacity: 0.2"/>
    </g>
   </g>
   <g id="matplotlib.axis_1">
    <g id="xtick_1">
     <g id="line2d_1">
      <defs>
       <path id="m3ed4194450" d="M 0 0 
L 0 3.5 
" style="stroke: #000000; stroke-width: 0.8"/>
      </defs>
      <g>
       <use xlink:href="#m3ed4194450" x="181.87934" y="390.04" style="stroke: #000000; stroke-width: 0.8"/>
      </g>
     </g>
     <g id="text_1">
      <!-- 50 -->
      <g transform="translate(175.51684 404.638438) scale(0.1 -0.1)">
       <defs>
        <path id="DejaVuSans-35" d="M 691 4666 
L 3169 4666 
L 3169 4134 
L 1269 4134 
L 1269 2991 
Q 1406 3038 1543 3061 
Q 1681 3084 1819 3084 
Q 2600 3084 3056 2656 
Q 3513 2228 3513 1497 
Q 3513 744 3044 326 
Q 2575 -91 1722 -91 
Q 1428 -91 1123 -41 
Q 819 9 494 109 
L 494 744 
Q 775 591 1075 516 
Q 1375 441 1709 441 
Q 2250 441 2565 725 
Q 2881 1009 2881 1497 
Q 2881 1984 2565 2268 
Q 2250 2553 1709 2553 
Q 1456 2553 1204 2497 
Q 953 2441 691 2322 
L 691 4666 
z
" transform="scale(0.015625)"/>
        <path id="DejaVuSans-30" d="M 2034 4250 
Q 1547 4250 1301 3770 
Q 1056 3291 1056 2328 
Q 1056 1369 1301 889 
Q 1547 409 2034 409 
Q 2525 409 2770 889 
Q 3016 1369 3016 2328 
Q 3016 3291 2770 3770 
Q 2525 4250 2034 4250 
z
M 2034 4750 
Q 2819 4750 3233 4129 
Q 3647 3509 3647 2328 
Q 3647 1150 3233 529 
Q 2819 -91 2034 -91 
Q 1250 -91 836 529 
Q 422 1150 422 2328 
Q 422 3509 836 4129 
Q 1250 4750 2034 4750 
z
" transform="scale(0.015625)"/>
       </defs>
       <use xlink:href="#DejaVuSans-35"/>
       <use xlink:href="#DejaVuSans-30" transform="translate(63.623047 0)"/>
      </g>
     </g>
    </g>
    <g id="xtick_2">
     <g id="line2d_2">
      <g>
       <use xlink:href="#m3ed4194450" x="314.212007" y="390.04" style="stroke: #000000; stroke-width: 0.8"/>
      </g>
     </g>
     <g id="text_2">
      <!-- 100 -->
      <g transform="translate(304.668257 404.638438) scale(0.1 -0.1)">
       <defs>
        <path id="DejaVuSans-31" d="M 794 531 
L 1825 531 
L 1825 4091 
L 703 3866 
L 703 4441 
L 1819 4666 
L 2450 4666 
L 2450 531 
L 3481 531 
L 3481 0 
L 794 0 
L 794 531 
z
" transform="scale(0.015625)"/>
       </defs>
       <use xlink:href="#DejaVuSans-31"/>
       <use xlink:href="#DejaVuSans-30" transform="translate(63.623047 0)"/>
       <use xlink:href="#DejaVuSans-30" transform="translate(127.246094 0)"/>
      </g>
     </g>
    </g>
    <g id="xtick_3">
     <g id="line2d_3">
      <g>
       <use xlink:href="#m3ed4194450" x="446.544673" y="390.04" style="stroke: #000000; stroke-width: 0.8"/>
      </g>
     </g>
     <g id="text_3">
      <!-- 150 -->
      <g transform="translate(437.000923 404.638438) scale(0.1 -0.1)">
       <use xlink:href="#DejaVuSans-31"/>
       <use xlink:href="#DejaVuSans-35" transform="translate(63.623047 0)"/>
       <use xlink:href="#DejaVuSans-30" transform="translate(127.246094 0)"/>
      </g>
     </g>
    </g>
    <g id="xtick_4">
     <g id="line2d_4">
      <g>
       <use xlink:href="#m3ed4194450" x="578.87734" y="390.04" style="stroke: #000000; stroke-width: 0.8"/>
      </g>
     </g>
     <g id="text_4">
      <!-- 200 -->
      <g transform="translate(569.33359 404.638438) scale(0.1 -0.1)">
       <defs>
        <path id="DejaVuSans-32" d="M 1228 531 
L 3431 531 
L 3431 0 
L 469 0 
L 469 531 
Q 828 903 1448 1529 
Q 2069 2156 2228 2338 
Q 2531 2678 2651 2914 
Q 2772 3150 2772 3378 
Q 2772 3750 2511 3984 
Q 2250 4219 1831 4219 
Q 1534 4219 1204 4116 
Q 875 4013 500 3803 
L 500 4441 
Q 881 4594 1212 4672 
Q 1544 4750 1819 4750 
Q 2544 4750 2975 4387 
Q 3406 4025 3406 3419 
Q 3406 3131 3298 2873 
Q 3191 2616 2906 2266 
Q 2828 2175 2409 1742 
Q 1991 1309 1228 531 
z
" transform="scale(0.015625)"/>
       </defs>
       <use xlink:href="#DejaVuSans-32"/>
       <use xlink:href="#DejaVuSans-30" transform="translate(63.623047 0)"/>
       <use xlink:href="#DejaVuSans-30" transform="translate(127.246094 0)"/>
      </g>
     </g>
    </g>
    <g id="xtick_5">
     <g id="line2d_5">
      <g>
       <use xlink:href="#m3ed4194450" x="711.210007" y="390.04" style="stroke: #000000; stroke-width: 0.8"/>
      </g>
     </g>
     <g id="text_5">
      <!-- 250 -->
      <g transform="translate(701.666257 404.638438) scale(0.1 -0.1)">
       <use xlink:href="#DejaVuSans-32"/>
       <use xlink:href="#DejaVuSans-35" transform="translate(63.623047 0)"/>
       <use xlink:href="#DejaVuSans-30" transform="translate(127.246094 0)"/>
      </g>
     </g>
    </g>
    <g id="xtick_6">
     <g id="line2d_6">
      <g>
       <use xlink:href="#m3ed4194450" x="843.542673" y="390.04" style="stroke: #000000; stroke-width: 0.8"/>
      </g>
     </g>
     <g id="text_6">
      <!-- 300 -->
      <g transform="translate(833.998923 404.638438) scale(0.1 -0.1)">
       <defs>
        <path id="DejaVuSans-33" d="M 2597 2516 
Q 3050 2419 3304 2112 
Q 3559 1806 3559 1356 
Q 3559 666 3084 287 
Q 2609 -91 1734 -91 
Q 1441 -91 1130 -33 
Q 819 25 488 141 
L 488 750 
Q 750 597 1062 519 
Q 1375 441 1716 441 
Q 2309 441 2620 675 
Q 2931 909 2931 1356 
Q 2931 1769 2642 2001 
Q 2353 2234 1838 2234 
L 1294 2234 
L 1294 2753 
L 1863 2753 
Q 2328 2753 2575 2939 
Q 2822 3125 2822 3475 
Q 2822 3834 2567 4026 
Q 2313 4219 1838 4219 
Q 1578 4219 1281 4162 
Q 984 4106 628 3988 
L 628 4550 
Q 988 4650 1302 4700 
Q 1616 4750 1894 4750 
Q 2613 4750 3031 4423 
Q 3450 4097 3450 3541 
Q 3450 3153 3228 2886 
Q 3006 2619 2597 2516 
z
" transform="scale(0.015625)"/>
       </defs>
       <use xlink:href="#DejaVuSans-33"/>
       <use xlink:href="#DejaVuSans-30" transform="translate(63.623047 0)"/>
       <use xlink:href="#DejaVuSans-30" transform="translate(127.246094 0)"/>
      </g>
     </g>
    </g>
    <g id="text_7">
     <!-- Step -->
     <g transform="translate(436.482844 418.316562) scale(0.1 -0.1)">
      <defs>
       <path id="DejaVuSans-53" d="M 3425 4513 
L 3425 3897 
Q 3066 4069 2747 4153 
Q 2428 4238 2131 4238 
Q 1616 4238 1336 4038 
Q 1056 3838 1056 3469 
Q 1056 3159 1242 3001 
Q 1428 2844 1947 2747 
L 2328 2669 
Q 3034 2534 3370 2195 
Q 3706 1856 3706 1288 
Q 3706 609 3251 259 
Q 2797 -91 1919 -91 
Q 1588 -91 1214 -16 
Q 841 59 441 206 
L 441 856 
Q 825 641 1194 531 
Q 1563 422 1919 422 
Q 2459 422 2753 634 
Q 3047 847 3047 1241 
Q 3047 1584 2836 1778 
Q 2625 1972 2144 2069 
L 1759 2144 
Q 1053 2284 737 2584 
Q 422 2884 422 3419 
Q 422 4038 858 4394 
Q 1294 4750 2059 4750 
Q 2388 4750 2728 4690 
Q 3069 4631 3425 4513 
z
" transform="scale(0.015625)"/>
       <path id="DejaVuSans-74" d="M 1172 4494 
L 1172 3500 
L 2356 3500 
L 2356 3053 
L 1172 3053 
L 1172 1153 
Q 1172 725 1289 603 
Q 1406 481 1766 481 
L 2356 481 
L 2356 0 
L 1766 0 
Q 1100 0 847 248 
Q 594 497 594 1153 
L 594 3053 
L 172 3053 
L 172 3500 
L 594 3500 
L 594 4494 
L 1172 4494 
z
" transform="scale(0.015625)"/>
       <path id="DejaVuSans-65" d="M 3597 1894 
L 3597 1613 
L 953 1613 
Q 991 1019 1311 708 
Q 1631 397 2203 397 
Q 2534 397 2845 478 
Q 3156 559 3463 722 
L 3463 178 
Q 3153 47 2828 -22 
Q 2503 -91 2169 -91 
Q 1331 -91 842 396 
Q 353 884 353 1716 
Q 353 2575 817 3079 
Q 1281 3584 2069 3584 
Q 2775 3584 3186 3129 
Q 3597 2675 3597 1894 
z
M 3022 2063 
Q 3016 2534 2758 2815 
Q 2500 3097 2075 3097 
Q 1594 3097 1305 2825 
Q 1016 2553 972 2059 
L 3022 2063 
z
" transform="scale(0.015625)"/>
       <path id="DejaVuSans-70" d="M 1159 525 
L 1159 -1331 
L 581 -1331 
L 581 3500 
L 1159 3500 
L 1159 2969 
Q 1341 3281 1617 3432 
Q 1894 3584 2278 3584 
Q 2916 3584 3314 3078 
Q 3713 2572 3713 1747 
Q 3713 922 3314 415 
Q 2916 -91 2278 -91 
Q 1894 -91 1617 61 
Q 1341 213 1159 525 
z
M 3116 1747 
Q 3116 2381 2855 2742 
Q 2594 3103 2138 3103 
Q 1681 3103 1420 2742 
Q 1159 2381 1159 1747 
Q 1159 1113 1420 752 
Q 1681 391 2138 391 
Q 2594 391 2855 752 
Q 3116 1113 3116 1747 
z
" transform="scale(0.015625)"/>
      </defs>
      <use xlink:href="#DejaVuSans-53"/>
      <use xlink:href="#DejaVuSans-74" transform="translate(63.476562 0)"/>
      <use xlink:href="#DejaVuSans-65" transform="translate(102.685547 0)"/>
      <use xlink:href="#DejaVuSans-70" transform="translate(164.208984 0)"/>
     </g>
    </g>
   </g>
   <g id="matplotlib.axis_2">
    <g id="ytick_1">
     <g id="line2d_7">
      <defs>
       <path id="m918bb11653" d="M 0 0 
L -3.5 0 
" style="stroke: #000000; stroke-width: 0.8"/>
      </defs>
      <g>
       <use xlink:href="#m918bb11653" x="50.87" y="379.222019" style="stroke: #000000; stroke-width: 0.8"/>
      </g>
     </g>
     <g id="text_8">
      <!-- 20 -->
      <g transform="translate(31.145 383.021238) scale(0.1 -0.1)">
       <use xlink:href="#DejaVuSans-32"/>
       <use xlink:href="#DejaVuSans-30" transform="translate(63.623047 0)"/>
      </g>
     </g>
    </g>
    <g id="ytick_2">
     <g id="line2d_8">
      <g>
       <use xlink:href="#m918bb11653" x="50.87" y="319.134736" style="stroke: #000000; stroke-width: 0.8"/>
      </g>
     </g>
     <g id="text_9">
      <!-- 40 -->
      <g transform="translate(31.145 322.933955) scale(0.1 -0.1)">
       <defs>
        <path id="DejaVuSans-34" d="M 2419 4116 
L 825 1625 
L 2419 1625 
L 2419 4116 
z
M 2253 4666 
L 3047 4666 
L 3047 1625 
L 3713 1625 
L 3713 1100 
L 3047 1100 
L 3047 0 
L 2419 0 
L 2419 1100 
L 313 1100 
L 313 1709 
L 2253 4666 
z
" transform="scale(0.015625)"/>
       </defs>
       <use xlink:href="#DejaVuSans-34"/>
       <use xlink:href="#DejaVuSans-30" transform="translate(63.623047 0)"/>
      </g>
     </g>
    </g>
    <g id="ytick_3">
     <g id="line2d_9">
      <g>
       <use xlink:href="#m918bb11653" x="50.87" y="259.047453" style="stroke: #000000; stroke-width: 0.8"/>
      </g>
     </g>
     <g id="text_10">
      <!-- 60 -->
      <g transform="translate(31.145 262.846671) scale(0.1 -0.1)">
       <defs>
        <path id="DejaVuSans-36" d="M 2113 2584 
Q 1688 2584 1439 2293 
Q 1191 2003 1191 1497 
Q 1191 994 1439 701 
Q 1688 409 2113 409 
Q 2538 409 2786 701 
Q 3034 994 3034 1497 
Q 3034 2003 2786 2293 
Q 2538 2584 2113 2584 
z
M 3366 4563 
L 3366 3988 
Q 3128 4100 2886 4159 
Q 2644 4219 2406 4219 
Q 1781 4219 1451 3797 
Q 1122 3375 1075 2522 
Q 1259 2794 1537 2939 
Q 1816 3084 2150 3084 
Q 2853 3084 3261 2657 
Q 3669 2231 3669 1497 
Q 3669 778 3244 343 
Q 2819 -91 2113 -91 
Q 1303 -91 875 529 
Q 447 1150 447 2328 
Q 447 3434 972 4092 
Q 1497 4750 2381 4750 
Q 2619 4750 2861 4703 
Q 3103 4656 3366 4563 
z
" transform="scale(0.015625)"/>
       </defs>
       <use xlink:href="#DejaVuSans-36"/>
       <use xlink:href="#DejaVuSans-30" transform="translate(63.623047 0)"/>
      </g>
     </g>
    </g>
    <g id="ytick_4">
     <g id="line2d_10">
      <g>
       <use xlink:href="#m918bb11653" x="50.87" y="198.960169" style="stroke: #000000; stroke-width: 0.8"/>
      </g>
     </g>
     <g id="text_11">
      <!-- 80 -->
      <g transform="translate(31.145 202.759388) scale(0.1 -0.1)">
       <defs>
        <path id="DejaVuSans-38" d="M 2034 2216 
Q 1584 2216 1326 1975 
Q 1069 1734 1069 1313 
Q 1069 891 1326 650 
Q 1584 409 2034 409 
Q 2484 409 2743 651 
Q 3003 894 3003 1313 
Q 3003 1734 2745 1975 
Q 2488 2216 2034 2216 
z
M 1403 2484 
Q 997 2584 770 2862 
Q 544 3141 544 3541 
Q 544 4100 942 4425 
Q 1341 4750 2034 4750 
Q 2731 4750 3128 4425 
Q 3525 4100 3525 3541 
Q 3525 3141 3298 2862 
Q 3072 2584 2669 2484 
Q 3125 2378 3379 2068 
Q 3634 1759 3634 1313 
Q 3634 634 3220 271 
Q 2806 -91 2034 -91 
Q 1263 -91 848 271 
Q 434 634 434 1313 
Q 434 1759 690 2068 
Q 947 2378 1403 2484 
z
M 1172 3481 
Q 1172 3119 1398 2916 
Q 1625 2713 2034 2713 
Q 2441 2713 2670 2916 
Q 2900 3119 2900 3481 
Q 2900 3844 2670 4047 
Q 2441 4250 2034 4250 
Q 1625 4250 1398 4047 
Q 1172 3844 1172 3481 
z
" transform="scale(0.015625)"/>
       </defs>
       <use xlink:href="#DejaVuSans-38"/>
       <use xlink:href="#DejaVuSans-30" transform="translate(63.623047 0)"/>
      </g>
     </g>
    </g>
    <g id="ytick_5">
     <g id="line2d_11">
      <g>
       <use xlink:href="#m918bb11653" x="50.87" y="138.872886" style="stroke: #000000; stroke-width: 0.8"/>
      </g>
     </g>
     <g id="text_12">
      <!-- 100 -->
      <g transform="translate(24.7825 142.672105) scale(0.1 -0.1)">
       <use xlink:href="#DejaVuSans-31"/>
       <use xlink:href="#DejaVuSans-30" transform="translate(63.623047 0)"/>
       <use xlink:href="#DejaVuSans-30" transform="translate(127.246094 0)"/>
      </g>
     </g>
    </g>
    <g id="ytick_6">
     <g id="line2d_12">
      <g>
       <use xlink:href="#m918bb11653" x="50.87" y="78.785603" style="stroke: #000000; stroke-width: 0.8"/>
      </g>
     </g>
     <g id="text_13">
      <!-- 120 -->
      <g transform="translate(24.7825 82.584822) scale(0.1 -0.1)">
       <use xlink:href="#DejaVuSans-31"/>
       <use xlink:href="#DejaVuSans-32" transform="translate(63.623047 0)"/>
       <use xlink:href="#DejaVuSans-30" transform="translate(127.246094 0)"/>
      </g>
     </g>
    </g>
    <g id="text_14">
     <!-- Profit -->
     <g transform="translate(18.702813 229.779063) rotate(-90) scale(0.1 -0.1)">
      <defs>
       <path id="DejaVuSans-50" d="M 1259 4147 
L 1259 2394 
L 2053 2394 
Q 2494 2394 2734 2622 
Q 2975 2850 2975 3272 
Q 2975 3691 2734 3919 
Q 2494 4147 2053 4147 
L 1259 4147 
z
M 628 4666 
L 2053 4666 
Q 2838 4666 3239 4311 
Q 3641 3956 3641 3272 
Q 3641 2581 3239 2228 
Q 2838 1875 2053 1875 
L 1259 1875 
L 1259 0 
L 628 0 
L 628 4666 
z
" transform="scale(0.015625)"/>
       <path id="DejaVuSans-72" d="M 2631 2963 
Q 2534 3019 2420 3045 
Q 2306 3072 2169 3072 
Q 1681 3072 1420 2755 
Q 1159 2438 1159 1844 
L 1159 0 
L 581 0 
L 581 3500 
L 1159 3500 
L 1159 2956 
Q 1341 3275 1631 3429 
Q 1922 3584 2338 3584 
Q 2397 3584 2469 3576 
Q 2541 3569 2628 3553 
L 2631 2963 
z
" transform="scale(0.015625)"/>
       <path id="DejaVuSans-6f" d="M 1959 3097 
Q 1497 3097 1228 2736 
Q 959 2375 959 1747 
Q 959 1119 1226 758 
Q 1494 397 1959 397 
Q 2419 397 2687 759 
Q 2956 1122 2956 1747 
Q 2956 2369 2687 2733 
Q 2419 3097 1959 3097 
z
M 1959 3584 
Q 2709 3584 3137 3096 
Q 3566 2609 3566 1747 
Q 3566 888 3137 398 
Q 2709 -91 1959 -91 
Q 1206 -91 779 398 
Q 353 888 353 1747 
Q 353 2609 779 3096 
Q 1206 3584 1959 3584 
z
" transform="scale(0.015625)"/>
       <path id="DejaVuSans-66" d="M 2375 4863 
L 2375 4384 
L 1825 4384 
Q 1516 4384 1395 4259 
Q 1275 4134 1275 3809 
L 1275 3500 
L 2222 3500 
L 2222 3053 
L 1275 3053 
L 1275 0 
L 697 0 
L 697 3053 
L 147 3053 
L 147 3500 
L 697 3500 
L 697 3744 
Q 697 4328 969 4595 
Q 1241 4863 1831 4863 
L 2375 4863 
z
" transform="scale(0.015625)"/>
       <path id="DejaVuSans-69" d="M 603 3500 
L 1178 3500 
L 1178 0 
L 603 0 
L 603 3500 
z
M 603 4863 
L 1178 4863 
L 1178 4134 
L 603 4134 
L 603 4863 
z
" transform="scale(0.015625)"/>
      </defs>
      <use xlink:href="#DejaVuSans-50"/>
      <use xlink:href="#DejaVuSans-72" transform="translate(58.552734 0)"/>
      <use xlink:href="#DejaVuSans-6f" transform="translate(97.416016 0)"/>
      <use xlink:href="#DejaVuSans-66" transform="translate(158.597656 0)"/>
      <use xlink:href="#DejaVuSans-69" transform="translate(193.802734 0)"/>
      <use xlink:href="#DejaVuSans-74" transform="translate(221.585938 0)"/>
     </g>
    </g>
   </g>
   <g id="line2d_13">
    <path d="M 52.193327 241.349205 
L 54.83998 241.386155 
L 65.426593 229.288771 
L 68.073247 226.835966 
L 73.366553 222.358851 
L 78.65986 218.577907 
L 86.59982 214.422816 
L 89.246473 213.167934 
L 91.893127 212.117832 
L 94.53978 211.659609 
L 99.833087 210.216954 
L 102.47974 209.164216 
L 105.126393 208.405125 
L 107.773047 208.11934 
L 110.4197 207.086384 
L 113.066353 206.414808 
L 115.713007 206.12249 
L 118.35966 205.181494 
L 123.652967 204.784196 
L 131.592927 202.955704 
L 134.23958 202.047143 
L 136.886233 201.71964 
L 139.532887 201.026541 
L 142.17954 200.650835 
L 147.472847 200.27357 
L 150.1195 199.513769 
L 158.05946 198.124269 
L 160.706113 197.926846 
L 163.352767 197.939017 
L 165.99942 196.883139 
L 168.646073 197.199273 
L 171.292727 196.972075 
L 173.93938 197.110268 
L 176.586033 197.031441 
L 179.232687 196.836999 
L 184.525993 195.779677 
L 189.8193 195.712173 
L 192.465953 195.702981 
L 203.052567 194.74209 
L 205.69922 193.886316 
L 208.345873 194.017473 
L 210.992527 193.828004 
L 213.63918 193.85127 
L 216.285833 193.201491 
L 218.932487 193.330539 
L 221.57914 192.646562 
L 224.225793 192.345558 
L 229.5191 191.586742 
L 232.165753 191.22456 
L 234.812407 191.24308 
L 240.105713 190.991884 
L 242.752367 190.654915 
L 245.39902 190.660279 
L 248.045673 190.805326 
L 250.692327 190.33743 
L 253.33898 190.583675 
L 258.632287 190.622619 
L 263.925593 189.890117 
L 266.572247 189.978296 
L 269.2189 189.607151 
L 274.512207 189.226517 
L 277.15886 188.740261 
L 279.805513 188.429492 
L 285.09882 188.608004 
L 293.03878 187.88953 
L 295.685433 187.739693 
L 300.97874 187.607894 
L 306.272047 187.986121 
L 308.9187 187.95394 
L 311.565353 187.544814 
L 314.212007 187.629234 
L 319.505313 187.394128 
L 322.151967 187.095278 
L 324.79862 187.000085 
L 327.445273 186.765346 
L 332.73858 186.928364 
L 335.385233 186.79856 
L 338.031887 186.354341 
L 340.67854 186.028444 
L 343.325193 186.199369 
L 345.971847 186.238038 
L 353.911807 185.664817 
L 356.55846 185.750177 
L 359.205113 185.535128 
L 361.851767 185.728126 
L 364.49842 185.561006 
L 369.791727 185.8012 
L 372.43838 185.327528 
L 375.085033 185.515163 
L 377.731687 185.356363 
L 380.37834 185.504367 
L 383.024993 185.285215 
L 385.671647 185.296698 
L 388.3183 185.088159 
L 390.964953 184.654599 
L 396.25826 184.929703 
L 398.904913 184.818923 
L 401.551567 184.480739 
L 404.19822 184.78328 
L 409.491527 184.310525 
L 412.13818 183.956892 
L 414.784833 183.931014 
L 417.431487 183.72268 
L 420.07814 183.738244 
L 422.724793 183.870409 
L 425.371447 183.809048 
L 428.0181 183.4906 
L 430.664753 182.984975 
L 433.311407 182.76282 
L 435.95806 182.134107 
L 441.251367 182.649336 
L 443.89802 182.303864 
L 446.544673 182.38567 
L 449.191327 182.086797 
L 451.83798 182.025161 
L 454.484633 182.171882 
L 457.131287 182.097822 
L 459.77794 182.477333 
L 462.424593 182.658161 
L 465.071247 182.272507 
L 475.65786 182.3087 
L 478.304513 182.136216 
L 480.951167 182.184282 
L 486.244473 181.476054 
L 488.891127 181.654521 
L 499.47774 181.604208 
L 502.124393 181.389503 
L 504.771047 181.422533 
L 507.4177 181.627703 
L 510.064353 181.073232 
L 512.711007 181.081049 
L 518.004313 181.67609 
L 520.650967 181.316383 
L 525.944273 180.936574 
L 528.590927 181.122468 
L 533.884233 180.85314 
L 536.530887 180.888073 
L 539.17754 180.510418 
L 541.824193 180.75467 
L 544.470847 180.790198 
L 552.410807 180.33406 
L 555.05746 180.4712 
L 557.704113 180.476242 
L 560.350767 180.33743 
L 568.290727 179.449108 
L 576.230687 179.498848 
L 581.523993 179.726091 
L 589.463953 179.898323 
L 592.110607 179.923537 
L 594.75726 180.103333 
L 600.050567 179.894404 
L 605.343873 179.262504 
L 607.990527 179.429923 
L 610.63718 179.20449 
L 615.930487 179.160114 
L 618.57714 179.31912 
L 621.223793 178.888082 
L 626.5171 178.574608 
L 631.810407 178.4906 
L 634.45706 178.61621 
L 637.103713 177.991692 
L 642.39702 177.592835 
L 645.043673 178.059906 
L 647.690327 178.015278 
L 650.33698 178.087022 
L 655.630287 177.896682 
L 658.27694 178.232528 
L 663.570247 177.935763 
L 666.2169 178.16209 
L 668.863553 178.243392 
L 671.510207 178.135982 
L 674.15686 178.379065 
L 676.803513 178.153517 
L 679.450167 178.107995 
L 682.09682 177.776894 
L 690.03678 177.825373 
L 692.683433 178.031575 
L 697.97674 178.126791 
L 703.270047 177.45918 
L 705.9167 177.276725 
L 708.563353 177.757938 
L 713.85666 177.58401 
L 716.503313 177.707901 
L 719.149967 177.978351 
L 724.443273 177.49888 
L 727.089927 177.418265 
L 735.029887 176.765209 
L 737.67654 176.895059 
L 740.323193 176.862098 
L 742.969847 176.569391 
L 748.263153 177.02397 
L 750.909807 176.713086 
L 753.55646 176.99667 
L 764.143073 176.496203 
L 769.43638 176.637032 
L 774.729687 176.057669 
L 777.37634 176.304166 
L 780.022993 176.384827 
L 782.669647 176.586444 
L 785.3163 176.550343 
L 787.962953 176.147934 
L 790.609607 176.116439 
L 793.25626 176.202601 
L 795.902913 176.547065 
L 801.19622 176.602375 
L 806.489527 175.971667 
L 819.722793 176.457121 
L 822.369447 176.121001 
L 825.0161 176.187725 
L 835.602713 175.68453 
L 838.249367 175.816764 
L 843.542673 175.273915 
L 843.542673 175.273915 
" clip-path="url(#p87c744500e)" style="fill: none; stroke: #0000ff; stroke-width: 1.5; stroke-linecap: square"/>
   </g>
   <g id="patch_3">
    <path d="M 50.87 390.04 
L 50.87 43.44 
" style="fill: none; stroke: #000000; stroke-width: 0.8; stroke-linejoin: miter; stroke-linecap: square"/>
   </g>
   <g id="patch_4">
    <path d="M 844.866 390.04 
L 844.866 43.44 
" style="fill: none; stroke: #000000; stroke-width: 0.8; stroke-linejoin: miter; stroke-linecap: square"/>
   </g>
   <g id="patch_5">
    <path d="M 50.87 390.04 
L 844.866 390.04 
" style="fill: none; stroke: #000000; stroke-width: 0.8; stroke-linejoin: miter; stroke-linecap: square"/>
   </g>
   <g id="patch_6">
    <path d="M 50.87 43.44 
L 844.866 43.44 
" style="fill: none; stroke: #000000; stroke-width: 0.8; stroke-linejoin: miter; stroke-linecap: square"/>
   </g>
   <g id="text_15">
    <!-- Mean profit per step with confidence interval per simulation step -->
    <g transform="translate(220.284875 21.763062) scale(0.14 -0.14)">
     <defs>
      <path id="DejaVuSans-4d" d="M 628 4666 
L 1569 4666 
L 2759 1491 
L 3956 4666 
L 4897 4666 
L 4897 0 
L 4281 0 
L 4281 4097 
L 3078 897 
L 2444 897 
L 1241 4097 
L 1241 0 
L 628 0 
L 628 4666 
z
" transform="scale(0.015625)"/>
      <path id="DejaVuSans-61" d="M 2194 1759 
Q 1497 1759 1228 1600 
Q 959 1441 959 1056 
Q 959 750 1161 570 
Q 1363 391 1709 391 
Q 2188 391 2477 730 
Q 2766 1069 2766 1631 
L 2766 1759 
L 2194 1759 
z
M 3341 1997 
L 3341 0 
L 2766 0 
L 2766 531 
Q 2569 213 2275 61 
Q 1981 -91 1556 -91 
Q 1019 -91 701 211 
Q 384 513 384 1019 
Q 384 1609 779 1909 
Q 1175 2209 1959 2209 
L 2766 2209 
L 2766 2266 
Q 2766 2663 2505 2880 
Q 2244 3097 1772 3097 
Q 1472 3097 1187 3025 
Q 903 2953 641 2809 
L 641 3341 
Q 956 3463 1253 3523 
Q 1550 3584 1831 3584 
Q 2591 3584 2966 3190 
Q 3341 2797 3341 1997 
z
" transform="scale(0.015625)"/>
      <path id="DejaVuSans-6e" d="M 3513 2113 
L 3513 0 
L 2938 0 
L 2938 2094 
Q 2938 2591 2744 2837 
Q 2550 3084 2163 3084 
Q 1697 3084 1428 2787 
Q 1159 2491 1159 1978 
L 1159 0 
L 581 0 
L 581 3500 
L 1159 3500 
L 1159 2956 
Q 1366 3272 1645 3428 
Q 1925 3584 2291 3584 
Q 2894 3584 3203 3211 
Q 3513 2838 3513 2113 
z
" transform="scale(0.015625)"/>
      <path id="DejaVuSans-20" transform="scale(0.015625)"/>
      <path id="DejaVuSans-73" d="M 2834 3397 
L 2834 2853 
Q 2591 2978 2328 3040 
Q 2066 3103 1784 3103 
Q 1356 3103 1142 2972 
Q 928 2841 928 2578 
Q 928 2378 1081 2264 
Q 1234 2150 1697 2047 
L 1894 2003 
Q 2506 1872 2764 1633 
Q 3022 1394 3022 966 
Q 3022 478 2636 193 
Q 2250 -91 1575 -91 
Q 1294 -91 989 -36 
Q 684 19 347 128 
L 347 722 
Q 666 556 975 473 
Q 1284 391 1588 391 
Q 1994 391 2212 530 
Q 2431 669 2431 922 
Q 2431 1156 2273 1281 
Q 2116 1406 1581 1522 
L 1381 1569 
Q 847 1681 609 1914 
Q 372 2147 372 2553 
Q 372 3047 722 3315 
Q 1072 3584 1716 3584 
Q 2034 3584 2315 3537 
Q 2597 3491 2834 3397 
z
" transform="scale(0.015625)"/>
      <path id="DejaVuSans-77" d="M 269 3500 
L 844 3500 
L 1563 769 
L 2278 3500 
L 2956 3500 
L 3675 769 
L 4391 3500 
L 4966 3500 
L 4050 0 
L 3372 0 
L 2619 2869 
L 1863 0 
L 1184 0 
L 269 3500 
z
" transform="scale(0.015625)"/>
      <path id="DejaVuSans-68" d="M 3513 2113 
L 3513 0 
L 2938 0 
L 2938 2094 
Q 2938 2591 2744 2837 
Q 2550 3084 2163 3084 
Q 1697 3084 1428 2787 
Q 1159 2491 1159 1978 
L 1159 0 
L 581 0 
L 581 4863 
L 1159 4863 
L 1159 2956 
Q 1366 3272 1645 3428 
Q 1925 3584 2291 3584 
Q 2894 3584 3203 3211 
Q 3513 2838 3513 2113 
z
" transform="scale(0.015625)"/>
      <path id="DejaVuSans-63" d="M 3122 3366 
L 3122 2828 
Q 2878 2963 2633 3030 
Q 2388 3097 2138 3097 
Q 1578 3097 1268 2742 
Q 959 2388 959 1747 
Q 959 1106 1268 751 
Q 1578 397 2138 397 
Q 2388 397 2633 464 
Q 2878 531 3122 666 
L 3122 134 
Q 2881 22 2623 -34 
Q 2366 -91 2075 -91 
Q 1284 -91 818 406 
Q 353 903 353 1747 
Q 353 2603 823 3093 
Q 1294 3584 2113 3584 
Q 2378 3584 2631 3529 
Q 2884 3475 3122 3366 
z
" transform="scale(0.015625)"/>
      <path id="DejaVuSans-64" d="M 2906 2969 
L 2906 4863 
L 3481 4863 
L 3481 0 
L 2906 0 
L 2906 525 
Q 2725 213 2448 61 
Q 2172 -91 1784 -91 
Q 1150 -91 751 415 
Q 353 922 353 1747 
Q 353 2572 751 3078 
Q 1150 3584 1784 3584 
Q 2172 3584 2448 3432 
Q 2725 3281 2906 2969 
z
M 947 1747 
Q 947 1113 1208 752 
Q 1469 391 1925 391 
Q 2381 391 2643 752 
Q 2906 1113 2906 1747 
Q 2906 2381 2643 2742 
Q 2381 3103 1925 3103 
Q 1469 3103 1208 2742 
Q 947 2381 947 1747 
z
" transform="scale(0.015625)"/>
      <path id="DejaVuSans-76" d="M 191 3500 
L 800 3500 
L 1894 563 
L 2988 3500 
L 3597 3500 
L 2284 0 
L 1503 0 
L 191 3500 
z
" transform="scale(0.015625)"/>
      <path id="DejaVuSans-6c" d="M 603 4863 
L 1178 4863 
L 1178 0 
L 603 0 
L 603 4863 
z
" transform="scale(0.015625)"/>
      <path id="DejaVuSans-6d" d="M 3328 2828 
Q 3544 3216 3844 3400 
Q 4144 3584 4550 3584 
Q 5097 3584 5394 3201 
Q 5691 2819 5691 2113 
L 5691 0 
L 5113 0 
L 5113 2094 
Q 5113 2597 4934 2840 
Q 4756 3084 4391 3084 
Q 3944 3084 3684 2787 
Q 3425 2491 3425 1978 
L 3425 0 
L 2847 0 
L 2847 2094 
Q 2847 2600 2669 2842 
Q 2491 3084 2119 3084 
Q 1678 3084 1418 2786 
Q 1159 2488 1159 1978 
L 1159 0 
L 581 0 
L 581 3500 
L 1159 3500 
L 1159 2956 
Q 1356 3278 1631 3431 
Q 1906 3584 2284 3584 
Q 2666 3584 2933 3390 
Q 3200 3197 3328 2828 
z
" transform="scale(0.015625)"/>
      <path id="DejaVuSans-75" d="M 544 1381 
L 544 3500 
L 1119 3500 
L 1119 1403 
Q 1119 906 1312 657 
Q 1506 409 1894 409 
Q 2359 409 2629 706 
Q 2900 1003 2900 1516 
L 2900 3500 
L 3475 3500 
L 3475 0 
L 2900 0 
L 2900 538 
Q 2691 219 2414 64 
Q 2138 -91 1772 -91 
Q 1169 -91 856 284 
Q 544 659 544 1381 
z
M 1991 3584 
L 1991 3584 
z
" transform="scale(0.015625)"/>
     </defs>
     <use xlink:href="#DejaVuSans-4d"/>
     <use xlink:href="#DejaVuSans-65" transform="translate(86.279297 0)"/>
     <use xlink:href="#DejaVuSans-61" transform="translate(147.802734 0)"/>
     <use xlink:href="#DejaVuSans-6e" transform="translate(209.082031 0)"/>
     <use xlink:href="#DejaVuSans-20" transform="translate(272.460938 0)"/>
     <use xlink:href="#DejaVuSans-70" transform="translate(304.248047 0)"/>
     <use xlink:href="#DejaVuSans-72" transform="translate(367.724609 0)"/>
     <use xlink:href="#DejaVuSans-6f" transform="translate(406.587891 0)"/>
     <use xlink:href="#DejaVuSans-66" transform="translate(467.769531 0)"/>
     <use xlink:href="#DejaVuSans-69" transform="translate(502.974609 0)"/>
     <use xlink:href="#DejaVuSans-74" transform="translate(530.757812 0)"/>
     <use xlink:href="#DejaVuSans-20" transform="translate(569.966797 0)"/>
     <use xlink:href="#DejaVuSans-70" transform="translate(601.753906 0)"/>
     <use xlink:href="#DejaVuSans-65" transform="translate(665.230469 0)"/>
     <use xlink:href="#DejaVuSans-72" transform="translate(726.753906 0)"/>
     <use xlink:href="#DejaVuSans-20" transform="translate(767.867188 0)"/>
     <use xlink:href="#DejaVuSans-73" transform="translate(799.654297 0)"/>
     <use xlink:href="#DejaVuSans-74" transform="translate(851.753906 0)"/>
     <use xlink:href="#DejaVuSans-65" transform="translate(890.962891 0)"/>
     <use xlink:href="#DejaVuSans-70" transform="translate(952.486328 0)"/>
     <use xlink:href="#DejaVuSans-20" transform="translate(1015.962891 0)"/>
     <use xlink:href="#DejaVuSans-77" transform="translate(1047.75 0)"/>
     <use xlink:href="#DejaVuSans-69" transform="translate(1129.537109 0)"/>
     <use xlink:href="#DejaVuSans-74" transform="translate(1157.320312 0)"/>
     <use xlink:href="#DejaVuSans-68" transform="translate(1196.529297 0)"/>
     <use xlink:href="#DejaVuSans-20" transform="translate(1259.908203 0)"/>
     <use xlink:href="#DejaVuSans-63" transform="translate(1291.695312 0)"/>
     <use xlink:href="#DejaVuSans-6f" transform="translate(1346.675781 0)"/>
     <use xlink:href="#DejaVuSans-6e" transform="translate(1407.857422 0)"/>
     <use xlink:href="#DejaVuSans-66" transform="translate(1471.236328 0)"/>
     <use xlink:href="#DejaVuSans-69" transform="translate(1506.441406 0)"/>
     <use xlink:href="#DejaVuSans-64" transform="translate(1534.224609 0)"/>
     <use xlink:href="#DejaVuSans-65" transform="translate(1597.701172 0)"/>
     <use xlink:href="#DejaVuSans-6e" transform="translate(1659.224609 0)"/>
     <use xlink:href="#DejaVuSans-63" transform="translate(1722.603516 0)"/>
     <use xlink:href="#DejaVuSans-65" transform="translate(1777.583984 0)"/>
     <use xlink:href="#DejaVuSans-20" transform="translate(1839.107422 0)"/>
     <use xlink:href="#DejaVuSans-69" transform="translate(1870.894531 0)"/>
     <use xlink:href="#DejaVuSans-6e" transform="translate(1898.677734 0)"/>
     <use xlink:href="#DejaVuSans-74" transform="translate(1962.056641 0)"/>
     <use xlink:href="#DejaVuSans-65" transform="translate(2001.265625 0)"/>
     <use xlink:href="#DejaVuSans-72" transform="translate(2062.789062 0)"/>
     <use xlink:href="#DejaVuSans-76" transform="translate(2103.902344 0)"/>
     <use xlink:href="#DejaVuSans-61" transform="translate(2163.082031 0)"/>
     <use xlink:href="#DejaVuSans-6c" transform="translate(2224.361328 0)"/>
     <use xlink:href="#DejaVuSans-20" transform="translate(2252.144531 0)"/>
     <use xlink:href="#DejaVuSans-70" transform="translate(2283.931641 0)"/>
     <use xlink:href="#DejaVuSans-65" transform="translate(2347.408203 0)"/>
     <use xlink:href="#DejaVuSans-72" transform="translate(2408.931641 0)"/>
     <use xlink:href="#DejaVuSans-20" transform="translate(2450.044922 0)"/>
     <use xlink:href="#DejaVuSans-73" transform="translate(2481.832031 0)"/>
     <use xlink:href="#DejaVuSans-69" transform="translate(2533.931641 0)"/>
     <use xlink:href="#DejaVuSans-6d" transform="translate(2561.714844 0)"/>
     <use xlink:href="#DejaVuSans-75" transform="translate(2659.126953 0)"/>
     <use xlink:href="#DejaVuSans-6c" transform="translate(2722.505859 0)"/>
     <use xlink:href="#DejaVuSans-61" transform="translate(2750.289062 0)"/>
     <use xlink:href="#DejaVuSans-74" transform="translate(2811.568359 0)"/>
     <use xlink:href="#DejaVuSans-69" transform="translate(2850.777344 0)"/>
     <use xlink:href="#DejaVuSans-6f" transform="translate(2878.560547 0)"/>
     <use xlink:href="#DejaVuSans-6e" transform="translate(2939.742188 0)"/>
     <use xlink:href="#DejaVuSans-20" transform="translate(3003.121094 0)"/>
     <use xlink:href="#DejaVuSans-73" transform="translate(3034.908203 0)"/>
     <use xlink:href="#DejaVuSans-74" transform="translate(3087.007812 0)"/>
     <use xlink:href="#DejaVuSans-65" transform="translate(3126.216797 0)"/>
     <use xlink:href="#DejaVuSans-70" transform="translate(3187.740234 0)"/>
    </g>
    <!-- Base Product: Green Crack, Recipe size: 7, T0: 50.0 -->
    <g transform="translate(268.031437 37.44) scale(0.14 -0.14)">
     <defs>
      <path id="DejaVuSans-42" d="M 1259 2228 
L 1259 519 
L 2272 519 
Q 2781 519 3026 730 
Q 3272 941 3272 1375 
Q 3272 1813 3026 2020 
Q 2781 2228 2272 2228 
L 1259 2228 
z
M 1259 4147 
L 1259 2741 
L 2194 2741 
Q 2656 2741 2882 2914 
Q 3109 3088 3109 3444 
Q 3109 3797 2882 3972 
Q 2656 4147 2194 4147 
L 1259 4147 
z
M 628 4666 
L 2241 4666 
Q 2963 4666 3353 4366 
Q 3744 4066 3744 3513 
Q 3744 3084 3544 2831 
Q 3344 2578 2956 2516 
Q 3422 2416 3680 2098 
Q 3938 1781 3938 1306 
Q 3938 681 3513 340 
Q 3088 0 2303 0 
L 628 0 
L 628 4666 
z
" transform="scale(0.015625)"/>
      <path id="DejaVuSans-3a" d="M 750 794 
L 1409 794 
L 1409 0 
L 750 0 
L 750 794 
z
M 750 3309 
L 1409 3309 
L 1409 2516 
L 750 2516 
L 750 3309 
z
" transform="scale(0.015625)"/>
      <path id="DejaVuSans-47" d="M 3809 666 
L 3809 1919 
L 2778 1919 
L 2778 2438 
L 4434 2438 
L 4434 434 
Q 4069 175 3628 42 
Q 3188 -91 2688 -91 
Q 1594 -91 976 548 
Q 359 1188 359 2328 
Q 359 3472 976 4111 
Q 1594 4750 2688 4750 
Q 3144 4750 3555 4637 
Q 3966 4525 4313 4306 
L 4313 3634 
Q 3963 3931 3569 4081 
Q 3175 4231 2741 4231 
Q 1884 4231 1454 3753 
Q 1025 3275 1025 2328 
Q 1025 1384 1454 906 
Q 1884 428 2741 428 
Q 3075 428 3337 486 
Q 3600 544 3809 666 
z
" transform="scale(0.015625)"/>
      <path id="DejaVuSans-43" d="M 4122 4306 
L 4122 3641 
Q 3803 3938 3442 4084 
Q 3081 4231 2675 4231 
Q 1875 4231 1450 3742 
Q 1025 3253 1025 2328 
Q 1025 1406 1450 917 
Q 1875 428 2675 428 
Q 3081 428 3442 575 
Q 3803 722 4122 1019 
L 4122 359 
Q 3791 134 3420 21 
Q 3050 -91 2638 -91 
Q 1578 -91 968 557 
Q 359 1206 359 2328 
Q 359 3453 968 4101 
Q 1578 4750 2638 4750 
Q 3056 4750 3426 4639 
Q 3797 4528 4122 4306 
z
" transform="scale(0.015625)"/>
      <path id="DejaVuSans-6b" d="M 581 4863 
L 1159 4863 
L 1159 1991 
L 2875 3500 
L 3609 3500 
L 1753 1863 
L 3688 0 
L 2938 0 
L 1159 1709 
L 1159 0 
L 581 0 
L 581 4863 
z
" transform="scale(0.015625)"/>
      <path id="DejaVuSans-2c" d="M 750 794 
L 1409 794 
L 1409 256 
L 897 -744 
L 494 -744 
L 750 256 
L 750 794 
z
" transform="scale(0.015625)"/>
      <path id="DejaVuSans-52" d="M 2841 2188 
Q 3044 2119 3236 1894 
Q 3428 1669 3622 1275 
L 4263 0 
L 3584 0 
L 2988 1197 
Q 2756 1666 2539 1819 
Q 2322 1972 1947 1972 
L 1259 1972 
L 1259 0 
L 628 0 
L 628 4666 
L 2053 4666 
Q 2853 4666 3247 4331 
Q 3641 3997 3641 3322 
Q 3641 2881 3436 2590 
Q 3231 2300 2841 2188 
z
M 1259 4147 
L 1259 2491 
L 2053 2491 
Q 2509 2491 2742 2702 
Q 2975 2913 2975 3322 
Q 2975 3731 2742 3939 
Q 2509 4147 2053 4147 
L 1259 4147 
z
" transform="scale(0.015625)"/>
      <path id="DejaVuSans-7a" d="M 353 3500 
L 3084 3500 
L 3084 2975 
L 922 459 
L 3084 459 
L 3084 0 
L 275 0 
L 275 525 
L 2438 3041 
L 353 3041 
L 353 3500 
z
" transform="scale(0.015625)"/>
      <path id="DejaVuSans-37" d="M 525 4666 
L 3525 4666 
L 3525 4397 
L 1831 0 
L 1172 0 
L 2766 4134 
L 525 4134 
L 525 4666 
z
" transform="scale(0.015625)"/>
      <path id="DejaVuSans-54" d="M -19 4666 
L 3928 4666 
L 3928 4134 
L 2272 4134 
L 2272 0 
L 1638 0 
L 1638 4134 
L -19 4134 
L -19 4666 
z
" transform="scale(0.015625)"/>
      <path id="DejaVuSans-2e" d="M 684 794 
L 1344 794 
L 1344 0 
L 684 0 
L 684 794 
z
" transform="scale(0.015625)"/>
     </defs>
     <use xlink:href="#DejaVuSans-42"/>
     <use xlink:href="#DejaVuSans-61" transform="translate(68.603516 0)"/>
     <use xlink:href="#DejaVuSans-73" transform="translate(129.882812 0)"/>
     <use xlink:href="#DejaVuSans-65" transform="translate(181.982422 0)"/>
     <use xlink:href="#DejaVuSans-20" transform="translate(243.505859 0)"/>
     <use xlink:href="#DejaVuSans-50" transform="translate(275.292969 0)"/>
     <use xlink:href="#DejaVuSans-72" transform="translate(333.845703 0)"/>
     <use xlink:href="#DejaVuSans-6f" transform="translate(372.708984 0)"/>
     <use xlink:href="#DejaVuSans-64" transform="translate(433.890625 0)"/>
     <use xlink:href="#DejaVuSans-75" transform="translate(497.367188 0)"/>
     <use xlink:href="#DejaVuSans-63" transform="translate(560.746094 0)"/>
     <use xlink:href="#DejaVuSans-74" transform="translate(615.726562 0)"/>
     <use xlink:href="#DejaVuSans-3a" transform="translate(654.935547 0)"/>
     <use xlink:href="#DejaVuSans-20" transform="translate(688.626953 0)"/>
     <use xlink:href="#DejaVuSans-47" transform="translate(720.414062 0)"/>
     <use xlink:href="#DejaVuSans-72" transform="translate(797.904297 0)"/>
     <use xlink:href="#DejaVuSans-65" transform="translate(836.767578 0)"/>
     <use xlink:href="#DejaVuSans-65" transform="translate(898.291016 0)"/>
     <use xlink:href="#DejaVuSans-6e" transform="translate(959.814453 0)"/>
     <use xlink:href="#DejaVuSans-20" transform="translate(1023.193359 0)"/>
     <use xlink:href="#DejaVuSans-43" transform="translate(1054.980469 0)"/>
     <use xlink:href="#DejaVuSans-72" transform="translate(1124.804688 0)"/>
     <use xlink:href="#DejaVuSans-61" transform="translate(1165.917969 0)"/>
     <use xlink:href="#DejaVuSans-63" transform="translate(1227.197266 0)"/>
     <use xlink:href="#DejaVuSans-6b" transform="translate(1282.177734 0)"/>
     <use xlink:href="#DejaVuSans-2c" transform="translate(1340.087891 0)"/>
     <use xlink:href="#DejaVuSans-20" transform="translate(1371.875 0)"/>
     <use xlink:href="#DejaVuSans-52" transform="translate(1403.662109 0)"/>
     <use xlink:href="#DejaVuSans-65" transform="translate(1468.644531 0)"/>
     <use xlink:href="#DejaVuSans-63" transform="translate(1530.167969 0)"/>
     <use xlink:href="#DejaVuSans-69" transform="translate(1585.148438 0)"/>
     <use xlink:href="#DejaVuSans-70" transform="translate(1612.931641 0)"/>
     <use xlink:href="#DejaVuSans-65" transform="translate(1676.408203 0)"/>
     <use xlink:href="#DejaVuSans-20" transform="translate(1737.931641 0)"/>
     <use xlink:href="#DejaVuSans-73" transform="translate(1769.71875 0)"/>
     <use xlink:href="#DejaVuSans-69" transform="translate(1821.818359 0)"/>
     <use xlink:href="#DejaVuSans-7a" transform="translate(1849.601562 0)"/>
     <use xlink:href="#DejaVuSans-65" transform="translate(1902.091797 0)"/>
     <use xlink:href="#DejaVuSans-3a" transform="translate(1963.615234 0)"/>
     <use xlink:href="#DejaVuSans-20" transform="translate(1997.306641 0)"/>
     <use xlink:href="#DejaVuSans-37" transform="translate(2029.09375 0)"/>
     <use xlink:href="#DejaVuSans-2c" transform="translate(2092.716797 0)"/>
     <use xlink:href="#DejaVuSans-20" transform="translate(2124.503906 0)"/>
     <use xlink:href="#DejaVuSans-54" transform="translate(2156.291016 0)"/>
     <use xlink:href="#DejaVuSans-30" transform="translate(2217.375 0)"/>
     <use xlink:href="#DejaVuSans-3a" transform="translate(2280.998047 0)"/>
     <use xlink:href="#DejaVuSans-20" transform="translate(2314.689453 0)"/>
     <use xlink:href="#DejaVuSans-35" transform="translate(2346.476562 0)"/>
     <use xlink:href="#DejaVuSans-30" transform="translate(2410.099609 0)"/>
     <use xlink:href="#DejaVuSans-2e" transform="translate(2473.722656 0)"/>
     <use xlink:href="#DejaVuSans-30" transform="translate(2505.509766 0)"/>
    </g>
   </g>
  </g>
 </g>
 <defs>
  <clipPath id="p87c744500e">
   <rect x="50.87" y="43.44" width="793.996" height="346.6"/>
  </clipPath>
 </defs>
</svg>
