<?xml version="1.0" encoding="utf-8" standalone="no"?>
<!DOCTYPE svg PUBLIC "-//W3C//DTD SVG 1.1//EN"
  "http://www.w3.org/Graphics/SVG/1.1/DTD/svg11.dtd">
<svg xmlns:xlink="http://www.w3.org/1999/xlink" width="864pt" height="432pt" viewBox="0 0 864 432" xmlns="http://www.w3.org/2000/svg" version="1.1">
 <metadata>
  <rdf:RDF xmlns:dc="http://purl.org/dc/elements/1.1/" xmlns:cc="http://creativecommons.org/ns#" xmlns:rdf="http://www.w3.org/1999/02/22-rdf-syntax-ns#">
   <cc:Work>
    <dc:type rdf:resource="http://purl.org/dc/dcmitype/StillImage"/>
    <dc:date>2025-05-24T02:11:59.745687</dc:date>
    <dc:format>image/svg+xml</dc:format>
    <dc:creator>
     <cc:Agent>
      <dc:title>Matplotlib v3.10.3, https://matplotlib.org/</dc:title>
     </cc:Agent>
    </dc:creator>
   </cc:Work>
  </rdf:RDF>
 </metadata>
 <defs>
  <style type="text/css">*{stroke-linejoin: round; stroke-linecap: butt}</style>
 </defs>
 <g id="figure_1">
  <g id="patch_1">
   <path d="M 0 432 
L 864 432 
L 864 0 
L 0 0 
z
" style="fill: #ffffff"/>
  </g>
  <g id="axes_1">
   <g id="patch_2">
    <path d="M 50.87 390.04 
L 844.866 390.04 
L 844.866 43.44 
L 50.87 43.44 
z
" style="fill: #ffffff"/>
   </g>
   <g id="FillBetweenPolyCollection_1">
    <defs>
     <path id="me8a71887f4" d="M 52.193327 -300.818889 
L 52.193327 -58.923201 
L 54.83998 -57.714545 
L 57.486633 -68.906754 
L 60.133287 -80.329397 
L 62.77994 -89.834064 
L 65.426593 -98.618688 
L 68.073247 -105.696081 
L 70.7199 -113.170434 
L 73.366553 -119.494657 
L 76.013207 -124.640102 
L 78.65986 -130.708739 
L 81.306513 -135.159469 
L 83.953167 -139.003171 
L 86.59982 -143.097017 
L 89.246473 -147.037271 
L 91.893127 -151.033417 
L 94.53978 -154.053944 
L 97.186433 -156.651138 
L 99.833087 -159.405941 
L 102.47974 -162.289215 
L 105.126393 -164.986497 
L 107.773047 -167.703059 
L 110.4197 -170.072853 
L 113.066353 -171.986678 
L 115.713007 -173.48498 
L 118.35966 -176.035333 
L 121.006313 -178.137271 
L 123.652967 -179.964313 
L 126.29962 -181.546047 
L 128.946273 -183.389744 
L 131.592927 -184.954577 
L 134.23958 -186.683621 
L 136.886233 -188.379927 
L 139.532887 -189.825136 
L 142.17954 -191.310523 
L 144.826193 -192.694008 
L 147.472847 -193.639175 
L 150.1195 -194.722559 
L 152.766153 -195.822158 
L 155.412807 -196.957989 
L 158.05946 -198.28836 
L 160.706113 -199.545569 
L 163.352767 -200.382396 
L 165.99942 -201.282033 
L 168.646073 -201.777094 
L 171.292727 -202.349212 
L 173.93938 -202.996502 
L 176.586033 -203.676242 
L 179.232687 -204.769578 
L 181.87934 -205.719357 
L 184.525993 -206.307485 
L 187.172647 -206.926363 
L 189.8193 -207.644252 
L 192.465953 -208.646448 
L 195.112607 -209.180519 
L 197.75926 -209.738759 
L 200.405913 -210.529832 
L 203.052567 -211.179868 
L 205.69922 -211.808708 
L 208.345873 -212.361393 
L 210.992527 -213.054376 
L 213.63918 -213.721263 
L 216.285833 -214.265891 
L 218.932487 -214.89879 
L 221.57914 -215.527425 
L 224.225793 -216.068364 
L 226.872447 -216.40355 
L 229.5191 -216.824526 
L 232.165753 -217.124494 
L 234.812407 -217.656371 
L 237.45906 -217.949615 
L 240.105713 -218.655615 
L 242.752367 -219.34253 
L 245.39902 -219.795813 
L 248.045673 -220.120196 
L 250.692327 -220.466349 
L 253.33898 -221.215357 
L 255.985633 -222.197812 
L 258.632287 -222.576641 
L 261.27894 -223.047902 
L 263.925593 -223.316198 
L 266.572247 -223.726638 
L 269.2189 -224.069285 
L 271.865553 -224.219874 
L 274.512207 -224.514738 
L 277.15886 -225.085933 
L 279.805513 -225.314994 
L 282.452167 -225.69165 
L 285.09882 -226.145364 
L 287.745473 -226.16576 
L 290.392127 -226.545738 
L 293.03878 -226.936272 
L 295.685433 -227.194032 
L 298.332087 -227.581881 
L 300.97874 -227.675358 
L 303.625393 -228.054372 
L 306.272047 -228.538096 
L 308.9187 -228.795999 
L 311.565353 -229.152833 
L 314.212007 -229.33743 
L 316.85866 -229.966885 
L 319.505313 -229.97365 
L 322.151967 -230.49044 
L 324.79862 -230.880421 
L 327.445273 -231.327185 
L 330.091927 -231.566946 
L 332.73858 -231.744246 
L 335.385233 -231.81952 
L 338.031887 -231.976668 
L 340.67854 -232.542021 
L 343.325193 -232.836024 
L 345.971847 -233.164138 
L 348.6185 -233.10184 
L 351.265153 -233.532061 
L 353.911807 -233.797713 
L 356.55846 -234.120251 
L 359.205113 -234.492192 
L 361.851767 -234.865343 
L 364.49842 -234.92311 
L 367.145073 -235.091165 
L 369.791727 -235.31428 
L 372.43838 -235.558797 
L 375.085033 -235.778879 
L 377.731687 -235.898719 
L 380.37834 -236.111277 
L 383.024993 -236.178556 
L 385.671647 -236.219001 
L 388.3183 -236.631962 
L 390.964953 -236.855426 
L 393.611607 -237.119992 
L 396.25826 -237.339663 
L 398.904913 -237.590822 
L 401.551567 -237.801884 
L 404.19822 -238.033999 
L 406.844873 -238.124668 
L 409.491527 -238.356598 
L 412.13818 -238.409774 
L 414.784833 -238.622906 
L 417.431487 -238.862073 
L 420.07814 -239.185082 
L 422.724793 -239.207242 
L 425.371447 -239.411437 
L 428.0181 -239.828128 
L 430.664753 -239.843626 
L 433.311407 -239.938374 
L 435.95806 -240.091792 
L 438.604713 -240.437494 
L 441.251367 -240.616618 
L 443.89802 -240.839836 
L 446.544673 -240.901724 
L 449.191327 -241.041612 
L 451.83798 -241.202881 
L 454.484633 -241.487228 
L 457.131287 -241.686872 
L 459.77794 -241.841191 
L 462.424593 -242.22123 
L 465.071247 -242.336621 
L 467.7179 -242.518267 
L 470.364553 -242.867085 
L 473.011207 -243.024233 
L 475.65786 -243.036369 
L 478.304513 -243.305178 
L 480.951167 -243.313398 
L 483.59782 -243.381374 
L 486.244473 -243.55279 
L 488.891127 -243.702272 
L 491.53778 -243.741959 
L 494.184433 -243.852041 
L 496.831087 -244.344129 
L 499.47774 -244.483218 
L 502.124393 -244.767196 
L 504.771047 -244.601089 
L 507.4177 -244.751739 
L 510.064353 -244.871845 
L 512.711007 -245.075774 
L 515.35766 -245.255103 
L 518.004313 -245.220049 
L 520.650967 -245.234521 
L 523.29762 -245.385622 
L 525.944273 -245.521431 
L 528.590927 -245.653734 
L 531.23758 -245.745654 
L 533.884233 -245.920657 
L 536.530887 -246.002696 
L 539.17754 -246.006673 
L 541.824193 -245.983508 
L 544.470847 -246.127845 
L 547.1175 -246.337328 
L 549.764153 -246.427997 
L 552.410807 -246.375601 
L 555.05746 -246.713205 
L 557.704113 -246.786532 
L 560.350767 -246.865209 
L 562.99742 -247.033611 
L 565.644073 -247.32458 
L 568.290727 -247.513257 
L 570.93738 -247.644125 
L 573.584033 -247.803262 
L 576.230687 -247.9337 
L 578.87734 -248.334053 
L 581.523993 -248.461703 
L 584.170647 -248.653701 
L 586.8173 -248.74068 
L 589.463953 -248.745743 
L 592.110607 -248.780264 
L 594.75726 -248.879994 
L 597.403913 -249.183446 
L 600.050567 -249.304475 
L 602.69722 -249.576892 
L 605.343873 -249.751403 
L 607.990527 -249.678405 
L 610.63718 -249.788097 
L 613.283833 -250.014042 
L 615.930487 -250.287135 
L 618.57714 -250.420607 
L 621.223793 -250.459617 
L 623.870447 -250.615905 
L 626.5171 -250.738266 
L 629.163753 -250.814954 
L 631.810407 -250.845293 
L 634.45706 -251.063243 
L 637.103713 -251.086571 
L 639.750367 -251.091286 
L 642.39702 -251.298228 
L 645.043673 -251.563121 
L 647.690327 -251.584481 
L 650.33698 -251.649936 
L 652.983633 -251.653175 
L 655.630287 -251.826907 
L 658.27694 -251.806962 
L 660.923593 -251.902366 
L 663.570247 -251.976328 
L 666.2169 -252.162667 
L 668.863553 -252.177345 
L 671.510207 -252.303888 
L 674.15686 -252.224822 
L 676.803513 -252.521981 
L 679.450167 -252.601642 
L 682.09682 -252.805611 
L 684.743473 -253.034015 
L 687.390127 -253.229088 
L 690.03678 -253.440211 
L 692.683433 -253.507716 
L 695.330087 -253.649859 
L 697.97674 -253.705453 
L 700.623393 -254.001424 
L 703.270047 -254.248155 
L 705.9167 -254.363382 
L 708.563353 -254.582705 
L 711.210007 -254.672206 
L 713.85666 -254.858463 
L 716.503313 -254.910634 
L 719.149967 -255.111508 
L 721.79662 -255.257075 
L 724.443273 -255.57338 
L 727.089927 -255.633751 
L 729.73658 -255.732046 
L 732.383233 -255.815315 
L 735.029887 -255.804839 
L 737.67654 -255.904426 
L 740.323193 -256.009424 
L 742.969847 -255.968179 
L 745.6165 -255.967851 
L 748.263153 -256.145212 
L 750.909807 -256.19154 
L 753.55646 -256.318862 
L 756.203113 -256.418612 
L 758.849767 -256.543269 
L 761.49642 -256.577032 
L 764.143073 -256.59339 
L 766.789727 -256.558316 
L 769.43638 -256.58517 
L 772.083033 -256.592755 
L 774.729687 -256.712943 
L 777.37634 -256.862732 
L 780.022993 -256.962154 
L 782.669647 -257.018302 
L 785.3163 -257.17869 
L 787.962953 -257.214851 
L 790.609607 -257.327044 
L 793.25626 -257.483167 
L 795.902913 -257.545035 
L 798.549567 -257.564366 
L 801.19622 -257.619263 
L 803.842873 -257.513097 
L 806.489527 -257.607291 
L 809.13618 -257.722109 
L 811.782833 -257.882517 
L 814.429487 -257.912138 
L 817.07614 -257.923433 
L 819.722793 -257.901868 
L 822.369447 -258.034212 
L 825.0161 -257.950964 
L 827.662753 -257.997313 
L 830.309407 -258.098396 
L 832.95606 -258.287606 
L 835.602713 -258.444508 
L 838.249367 -258.309191 
L 840.89602 -258.410069 
L 843.542673 -258.590648 
L 843.542673 -372.796968 
L 843.542673 -372.796968 
L 840.89602 -372.805455 
L 838.249367 -372.801355 
L 835.602713 -372.60046 
L 832.95606 -372.601731 
L 830.309407 -372.668149 
L 827.662753 -372.696029 
L 825.0161 -372.655317 
L 822.369447 -372.55323 
L 819.722793 -372.551221 
L 817.07614 -372.448109 
L 814.429487 -372.370252 
L 811.782833 -372.294404 
L 809.13618 -372.404445 
L 806.489527 -372.356968 
L 803.842873 -372.335731 
L 801.19622 -372.199615 
L 798.549567 -372.087483 
L 795.902913 -371.987282 
L 793.25626 -371.821196 
L 790.609607 -371.806026 
L 787.962953 -371.799056 
L 785.3163 -371.727431 
L 782.669647 -371.712795 
L 780.022993 -371.645475 
L 777.37634 -371.640965 
L 774.729687 -371.59603 
L 772.083033 -371.583279 
L 769.43638 -371.47865 
L 766.789727 -371.33454 
L 764.143073 -371.222121 
L 761.49642 -371.098878 
L 758.849767 -371.052755 
L 756.203113 -371.044268 
L 753.55646 -370.984984 
L 750.909807 -370.957309 
L 748.263153 -370.830254 
L 745.6165 -370.825252 
L 742.969847 -370.73567 
L 740.323193 -370.622185 
L 737.67654 -370.517433 
L 735.029887 -370.455443 
L 732.383233 -370.427809 
L 729.73658 -370.392509 
L 727.089927 -370.334086 
L 724.443273 -370.246103 
L 721.79662 -370.39419 
L 719.149967 -370.424939 
L 716.503313 -370.454131 
L 713.85666 -370.352741 
L 711.210007 -370.350773 
L 708.563353 -370.321704 
L 705.9167 -370.344582 
L 703.270047 -370.387508 
L 700.623393 -370.415387 
L 697.97674 -370.470079 
L 695.330087 -370.377094 
L 692.683433 -370.352987 
L 690.03678 -370.212812 
L 687.390127 -370.25463 
L 684.743473 -370.244299 
L 682.09682 -370.302189 
L 679.450167 -370.300098 
L 676.803513 -370.204612 
L 674.15686 -370.288372 
L 671.510207 -370.169435 
L 668.863553 -370.128436 
L 666.2169 -370.031802 
L 663.570247 -370.103058 
L 660.923593 -370.038198 
L 658.27694 -369.930084 
L 655.630287 -369.737389 
L 652.983633 -369.661664 
L 650.33698 -369.532764 
L 647.690327 -369.484385 
L 645.043673 -369.371393 
L 642.39702 -369.419074 
L 639.750367 -369.496562 
L 637.103713 -369.375574 
L 634.45706 -369.201903 
L 631.810407 -369.176607 
L 629.163753 -369.058899 
L 626.5171 -368.914953 
L 623.870447 -368.813399 
L 621.223793 -368.772072 
L 618.57714 -368.710286 
L 615.930487 -368.658669 
L 613.283833 -368.708032 
L 610.63718 -368.774163 
L 607.990527 -368.66896 
L 605.343873 -368.464252 
L 602.69722 -368.456586 
L 600.050567 -368.498118 
L 597.403913 -368.383239 
L 594.75726 -368.364707 
L 592.110607 -368.358352 
L 589.463953 -368.208215 
L 586.8173 -368.109613 
L 584.170647 -368.041432 
L 581.523993 -367.977514 
L 578.87734 -367.87268 
L 576.230687 -368.089236 
L 573.584033 -368.004328 
L 570.93738 -368.024458 
L 568.290727 -367.964682 
L 565.644073 -367.921059 
L 562.99742 -368.021342 
L 560.350767 -367.937336 
L 557.704113 -367.864932 
L 555.05746 -367.696057 
L 552.410807 -367.712293 
L 549.764153 -367.500247 
L 547.1175 -367.347608 
L 544.470847 -367.363844 
L 541.824193 -367.403736 
L 539.17754 -367.20153 
L 536.530887 -367.071399 
L 533.884233 -366.961358 
L 531.23758 -366.865462 
L 528.590927 -366.723565 
L 525.944273 -366.640625 
L 523.29762 -366.589109 
L 520.650967 -366.490569 
L 518.004313 -366.330345 
L 515.35766 -366.11461 
L 512.711007 -366.118053 
L 510.064353 -366.007029 
L 507.4177 -365.824358 
L 504.771047 -365.703268 
L 502.124393 -365.425768 
L 499.47774 -365.297503 
L 496.831087 -365.194985 
L 494.184433 -365.353425 
L 491.53778 -365.283071 
L 488.891127 -365.075781 
L 486.244473 -364.931055 
L 483.59782 -364.793586 
L 480.951167 -364.68129 
L 478.304513 -364.442493 
L 475.65786 -364.449401 
L 473.011207 -364.227474 
L 470.364553 -364.162655 
L 467.7179 -364.079018 
L 465.071247 -363.912378 
L 462.424593 -363.778168 
L 459.77794 -363.85953 
L 457.131287 -363.781264 
L 454.484633 -363.654639 
L 451.83798 -363.629199 
L 449.191327 -363.502 
L 446.544673 -363.414468 
L 443.89802 -363.213307 
L 441.251367 -363.107755 
L 438.604713 -363.036089 
L 435.95806 -363.033629 
L 433.311407 -362.927033 
L 430.664753 -362.790424 
L 428.0181 -362.56612 
L 425.371447 -362.64084 
L 422.724793 -362.535125 
L 420.07814 -362.373487 
L 417.431487 -362.462065 
L 414.784833 -362.291202 
L 412.13818 -362.144529 
L 409.491527 -361.964011 
L 406.844873 -361.872338 
L 404.19822 -361.696186 
L 401.551567 -361.524873 
L 398.904913 -361.44021 
L 396.25826 -361.335909 
L 393.611607 -361.173431 
L 390.964953 -361.15945 
L 388.3183 -361.048938 
L 385.671647 -361.025466 
L 383.024993 -360.751286 
L 380.37834 -360.480489 
L 377.731687 -360.309011 
L 375.085033 -360.110167 
L 372.43838 -359.886969 
L 369.791727 -359.77742 
L 367.145073 -359.66 
L 364.49842 -359.511748 
L 361.851767 -359.129967 
L 359.205113 -359.156924 
L 356.55846 -359.034214 
L 353.911807 -358.898713 
L 351.265153 -358.78324 
L 348.6185 -358.687733 
L 345.971847 -358.367717 
L 343.325193 -358.309498 
L 340.67854 -358.233077 
L 338.031887 -358.2718 
L 335.385233 -358.082098 
L 332.73858 -357.845371 
L 330.091927 -357.702142 
L 327.445273 -357.466726 
L 324.79862 -357.533882 
L 322.151967 -357.4525 
L 319.505313 -357.478862 
L 316.85866 -357.079164 
L 314.212007 -357.089578 
L 311.565353 -356.842458 
L 308.9187 -356.685494 
L 306.272047 -356.609174 
L 303.625393 -356.50842 
L 300.97874 -356.345101 
L 298.332087 -356.004319 
L 295.685433 -355.913178 
L 293.03878 -355.764393 
L 290.392127 -355.706647 
L 287.745473 -355.562741 
L 285.09882 -355.114234 
L 282.452167 -355.032216 
L 279.805513 -354.771381 
L 277.15886 -354.414856 
L 274.512207 -354.420267 
L 271.865553 -354.14619 
L 269.2189 -353.74637 
L 266.572247 -353.391832 
L 263.925593 -353.335418 
L 261.27894 -353.124766 
L 258.632287 -353.008104 
L 255.985633 -352.809423 
L 253.33898 -352.978339 
L 250.692327 -353.035983 
L 248.045673 -352.757806 
L 245.39902 -352.5663 
L 242.752367 -352.390005 
L 240.105713 -352.369075 
L 237.45906 -352.362393 
L 234.812407 -352.099037 
L 232.165753 -351.955172 
L 229.5191 -351.594157 
L 226.872447 -351.212826 
L 224.225793 -350.833854 
L 221.57914 -350.667152 
L 218.932487 -350.576053 
L 216.285833 -350.407589 
L 213.63918 -349.991082 
L 210.992527 -349.748574 
L 208.345873 -349.509161 
L 205.69922 -349.133796 
L 203.052567 -348.788709 
L 200.405913 -348.507252 
L 197.75926 -348.343052 
L 195.112607 -347.843932 
L 192.465953 -347.541176 
L 189.8193 -347.432673 
L 187.172647 -346.941712 
L 184.525993 -346.393229 
L 181.87934 -345.804814 
L 179.232687 -345.590964 
L 176.586033 -345.453065 
L 173.93938 -344.998859 
L 171.292727 -344.375226 
L 168.646073 -343.84382 
L 165.99942 -343.2306 
L 163.352767 -342.946068 
L 160.706113 -342.460929 
L 158.05946 -342.381166 
L 155.412807 -342.301874 
L 152.766153 -341.946783 
L 150.1195 -341.314376 
L 147.472847 -341.140459 
L 144.826193 -340.501431 
L 142.17954 -339.924229 
L 139.532887 -339.663313 
L 136.886233 -339.238114 
L 134.23958 -339.012477 
L 131.592927 -338.690554 
L 128.946273 -337.993594 
L 126.29962 -337.786058 
L 123.652967 -337.23733 
L 121.006313 -336.678311 
L 118.35966 -336.306246 
L 115.713007 -336.178822 
L 113.066353 -335.13901 
L 110.4197 -334.470893 
L 107.773047 -334.130357 
L 105.126393 -333.777398 
L 102.47974 -333.083328 
L 99.833087 -332.401354 
L 97.186433 -331.705235 
L 94.53978 -330.509791 
L 91.893127 -329.393249 
L 89.246473 -328.978157 
L 86.59982 -327.858807 
L 83.953167 -327.058202 
L 81.306513 -325.449264 
L 78.65986 -323.947416 
L 76.013207 -323.397642 
L 73.366553 -321.667881 
L 70.7199 -320.000848 
L 68.073247 -318.638416 
L 65.426593 -315.882351 
L 62.77994 -313.236738 
L 60.133287 -310.136734 
L 57.486633 -306.788422 
L 54.83998 -302.390703 
L 52.193327 -300.818889 
z
" style="stroke: #0000ff; stroke-opacity: 0.2"/>
    </defs>
    <g clip-path="url(#p48d86c6184)">
     <use xlink:href="#me8a71887f4" x="0" y="432" style="fill: #0000ff; fill-opacity: 0.2; stroke: #0000ff; stroke-opacity: 0.2"/>
    </g>
   </g>
   <g id="matplotlib.axis_1">
    <g id="xtick_1">
     <g id="line2d_1">
      <defs>
       <path id="ma884d7cef3" d="M 0 0 
L 0 3.5 
" style="stroke: #000000; stroke-width: 0.8"/>
      </defs>
      <g>
       <use xlink:href="#ma884d7cef3" x="181.87934" y="390.04" style="stroke: #000000; stroke-width: 0.8"/>
      </g>
     </g>
     <g id="text_1">
      <!-- 50 -->
      <g transform="translate(175.51684 404.638438) scale(0.1 -0.1)">
       <defs>
        <path id="DejaVuSans-35" d="M 691 4666 
L 3169 4666 
L 3169 4134 
L 1269 4134 
L 1269 2991 
Q 1406 3038 1543 3061 
Q 1681 3084 1819 3084 
Q 2600 3084 3056 2656 
Q 3513 2228 3513 1497 
Q 3513 744 3044 326 
Q 2575 -91 1722 -91 
Q 1428 -91 1123 -41 
Q 819 9 494 109 
L 494 744 
Q 775 591 1075 516 
Q 1375 441 1709 441 
Q 2250 441 2565 725 
Q 2881 1009 2881 1497 
Q 2881 1984 2565 2268 
Q 2250 2553 1709 2553 
Q 1456 2553 1204 2497 
Q 953 2441 691 2322 
L 691 4666 
z
" transform="scale(0.015625)"/>
        <path id="DejaVuSans-30" d="M 2034 4250 
Q 1547 4250 1301 3770 
Q 1056 3291 1056 2328 
Q 1056 1369 1301 889 
Q 1547 409 2034 409 
Q 2525 409 2770 889 
Q 3016 1369 3016 2328 
Q 3016 3291 2770 3770 
Q 2525 4250 2034 4250 
z
M 2034 4750 
Q 2819 4750 3233 4129 
Q 3647 3509 3647 2328 
Q 3647 1150 3233 529 
Q 2819 -91 2034 -91 
Q 1250 -91 836 529 
Q 422 1150 422 2328 
Q 422 3509 836 4129 
Q 1250 4750 2034 4750 
z
" transform="scale(0.015625)"/>
       </defs>
       <use xlink:href="#DejaVuSans-35"/>
       <use xlink:href="#DejaVuSans-30" transform="translate(63.623047 0)"/>
      </g>
     </g>
    </g>
    <g id="xtick_2">
     <g id="line2d_2">
      <g>
       <use xlink:href="#ma884d7cef3" x="314.212007" y="390.04" style="stroke: #000000; stroke-width: 0.8"/>
      </g>
     </g>
     <g id="text_2">
      <!-- 100 -->
      <g transform="translate(304.668257 404.638438) scale(0.1 -0.1)">
       <defs>
        <path id="DejaVuSans-31" d="M 794 531 
L 1825 531 
L 1825 4091 
L 703 3866 
L 703 4441 
L 1819 4666 
L 2450 4666 
L 2450 531 
L 3481 531 
L 3481 0 
L 794 0 
L 794 531 
z
" transform="scale(0.015625)"/>
       </defs>
       <use xlink:href="#DejaVuSans-31"/>
       <use xlink:href="#DejaVuSans-30" transform="translate(63.623047 0)"/>
       <use xlink:href="#DejaVuSans-30" transform="translate(127.246094 0)"/>
      </g>
     </g>
    </g>
    <g id="xtick_3">
     <g id="line2d_3">
      <g>
       <use xlink:href="#ma884d7cef3" x="446.544673" y="390.04" style="stroke: #000000; stroke-width: 0.8"/>
      </g>
     </g>
     <g id="text_3">
      <!-- 150 -->
      <g transform="translate(437.000923 404.638438) scale(0.1 -0.1)">
       <use xlink:href="#DejaVuSans-31"/>
       <use xlink:href="#DejaVuSans-35" transform="translate(63.623047 0)"/>
       <use xlink:href="#DejaVuSans-30" transform="translate(127.246094 0)"/>
      </g>
     </g>
    </g>
    <g id="xtick_4">
     <g id="line2d_4">
      <g>
       <use xlink:href="#ma884d7cef3" x="578.87734" y="390.04" style="stroke: #000000; stroke-width: 0.8"/>
      </g>
     </g>
     <g id="text_4">
      <!-- 200 -->
      <g transform="translate(569.33359 404.638438) scale(0.1 -0.1)">
       <defs>
        <path id="DejaVuSans-32" d="M 1228 531 
L 3431 531 
L 3431 0 
L 469 0 
L 469 531 
Q 828 903 1448 1529 
Q 2069 2156 2228 2338 
Q 2531 2678 2651 2914 
Q 2772 3150 2772 3378 
Q 2772 3750 2511 3984 
Q 2250 4219 1831 4219 
Q 1534 4219 1204 4116 
Q 875 4013 500 3803 
L 500 4441 
Q 881 4594 1212 4672 
Q 1544 4750 1819 4750 
Q 2544 4750 2975 4387 
Q 3406 4025 3406 3419 
Q 3406 3131 3298 2873 
Q 3191 2616 2906 2266 
Q 2828 2175 2409 1742 
Q 1991 1309 1228 531 
z
" transform="scale(0.015625)"/>
       </defs>
       <use xlink:href="#DejaVuSans-32"/>
       <use xlink:href="#DejaVuSans-30" transform="translate(63.623047 0)"/>
       <use xlink:href="#DejaVuSans-30" transform="translate(127.246094 0)"/>
      </g>
     </g>
    </g>
    <g id="xtick_5">
     <g id="line2d_5">
      <g>
       <use xlink:href="#ma884d7cef3" x="711.210007" y="390.04" style="stroke: #000000; stroke-width: 0.8"/>
      </g>
     </g>
     <g id="text_5">
      <!-- 250 -->
      <g transform="translate(701.666257 404.638438) scale(0.1 -0.1)">
       <use xlink:href="#DejaVuSans-32"/>
       <use xlink:href="#DejaVuSans-35" transform="translate(63.623047 0)"/>
       <use xlink:href="#DejaVuSans-30" transform="translate(127.246094 0)"/>
      </g>
     </g>
    </g>
    <g id="xtick_6">
     <g id="line2d_6">
      <g>
       <use xlink:href="#ma884d7cef3" x="843.542673" y="390.04" style="stroke: #000000; stroke-width: 0.8"/>
      </g>
     </g>
     <g id="text_6">
      <!-- 300 -->
      <g transform="translate(833.998923 404.638438) scale(0.1 -0.1)">
       <defs>
        <path id="DejaVuSans-33" d="M 2597 2516 
Q 3050 2419 3304 2112 
Q 3559 1806 3559 1356 
Q 3559 666 3084 287 
Q 2609 -91 1734 -91 
Q 1441 -91 1130 -33 
Q 819 25 488 141 
L 488 750 
Q 750 597 1062 519 
Q 1375 441 1716 441 
Q 2309 441 2620 675 
Q 2931 909 2931 1356 
Q 2931 1769 2642 2001 
Q 2353 2234 1838 2234 
L 1294 2234 
L 1294 2753 
L 1863 2753 
Q 2328 2753 2575 2939 
Q 2822 3125 2822 3475 
Q 2822 3834 2567 4026 
Q 2313 4219 1838 4219 
Q 1578 4219 1281 4162 
Q 984 4106 628 3988 
L 628 4550 
Q 988 4650 1302 4700 
Q 1616 4750 1894 4750 
Q 2613 4750 3031 4423 
Q 3450 4097 3450 3541 
Q 3450 3153 3228 2886 
Q 3006 2619 2597 2516 
z
" transform="scale(0.015625)"/>
       </defs>
       <use xlink:href="#DejaVuSans-33"/>
       <use xlink:href="#DejaVuSans-30" transform="translate(63.623047 0)"/>
       <use xlink:href="#DejaVuSans-30" transform="translate(127.246094 0)"/>
      </g>
     </g>
    </g>
    <g id="text_7">
     <!-- Step -->
     <g transform="translate(436.482844 418.316562) scale(0.1 -0.1)">
      <defs>
       <path id="DejaVuSans-53" d="M 3425 4513 
L 3425 3897 
Q 3066 4069 2747 4153 
Q 2428 4238 2131 4238 
Q 1616 4238 1336 4038 
Q 1056 3838 1056 3469 
Q 1056 3159 1242 3001 
Q 1428 2844 1947 2747 
L 2328 2669 
Q 3034 2534 3370 2195 
Q 3706 1856 3706 1288 
Q 3706 609 3251 259 
Q 2797 -91 1919 -91 
Q 1588 -91 1214 -16 
Q 841 59 441 206 
L 441 856 
Q 825 641 1194 531 
Q 1563 422 1919 422 
Q 2459 422 2753 634 
Q 3047 847 3047 1241 
Q 3047 1584 2836 1778 
Q 2625 1972 2144 2069 
L 1759 2144 
Q 1053 2284 737 2584 
Q 422 2884 422 3419 
Q 422 4038 858 4394 
Q 1294 4750 2059 4750 
Q 2388 4750 2728 4690 
Q 3069 4631 3425 4513 
z
" transform="scale(0.015625)"/>
       <path id="DejaVuSans-74" d="M 1172 4494 
L 1172 3500 
L 2356 3500 
L 2356 3053 
L 1172 3053 
L 1172 1153 
Q 1172 725 1289 603 
Q 1406 481 1766 481 
L 2356 481 
L 2356 0 
L 1766 0 
Q 1100 0 847 248 
Q 594 497 594 1153 
L 594 3053 
L 172 3053 
L 172 3500 
L 594 3500 
L 594 4494 
L 1172 4494 
z
" transform="scale(0.015625)"/>
       <path id="DejaVuSans-65" d="M 3597 1894 
L 3597 1613 
L 953 1613 
Q 991 1019 1311 708 
Q 1631 397 2203 397 
Q 2534 397 2845 478 
Q 3156 559 3463 722 
L 3463 178 
Q 3153 47 2828 -22 
Q 2503 -91 2169 -91 
Q 1331 -91 842 396 
Q 353 884 353 1716 
Q 353 2575 817 3079 
Q 1281 3584 2069 3584 
Q 2775 3584 3186 3129 
Q 3597 2675 3597 1894 
z
M 3022 2063 
Q 3016 2534 2758 2815 
Q 2500 3097 2075 3097 
Q 1594 3097 1305 2825 
Q 1016 2553 972 2059 
L 3022 2063 
z
" transform="scale(0.015625)"/>
       <path id="DejaVuSans-70" d="M 1159 525 
L 1159 -1331 
L 581 -1331 
L 581 3500 
L 1159 3500 
L 1159 2969 
Q 1341 3281 1617 3432 
Q 1894 3584 2278 3584 
Q 2916 3584 3314 3078 
Q 3713 2572 3713 1747 
Q 3713 922 3314 415 
Q 2916 -91 2278 -91 
Q 1894 -91 1617 61 
Q 1341 213 1159 525 
z
M 3116 1747 
Q 3116 2381 2855 2742 
Q 2594 3103 2138 3103 
Q 1681 3103 1420 2742 
Q 1159 2381 1159 1747 
Q 1159 1113 1420 752 
Q 1681 391 2138 391 
Q 2594 391 2855 752 
Q 3116 1113 3116 1747 
z
" transform="scale(0.015625)"/>
      </defs>
      <use xlink:href="#DejaVuSans-53"/>
      <use xlink:href="#DejaVuSans-74" transform="translate(63.476562 0)"/>
      <use xlink:href="#DejaVuSans-65" transform="translate(102.685547 0)"/>
      <use xlink:href="#DejaVuSans-70" transform="translate(164.208984 0)"/>
     </g>
    </g>
   </g>
   <g id="matplotlib.axis_2">
    <g id="ytick_1">
     <g id="line2d_7">
      <defs>
       <path id="mb0bb1ee551" d="M 0 0 
L -3.5 0 
" style="stroke: #000000; stroke-width: 0.8"/>
      </defs>
      <g>
       <use xlink:href="#mb0bb1ee551" x="50.87" y="355.472465" style="stroke: #000000; stroke-width: 0.8"/>
      </g>
     </g>
     <g id="text_8">
      <!-- 20 -->
      <g transform="translate(31.145 359.271684) scale(0.1 -0.1)">
       <use xlink:href="#DejaVuSans-32"/>
       <use xlink:href="#DejaVuSans-30" transform="translate(63.623047 0)"/>
      </g>
     </g>
    </g>
    <g id="ytick_2">
     <g id="line2d_8">
      <g>
       <use xlink:href="#mb0bb1ee551" x="50.87" y="301.734479" style="stroke: #000000; stroke-width: 0.8"/>
      </g>
     </g>
     <g id="text_9">
      <!-- 40 -->
      <g transform="translate(31.145 305.533698) scale(0.1 -0.1)">
       <defs>
        <path id="DejaVuSans-34" d="M 2419 4116 
L 825 1625 
L 2419 1625 
L 2419 4116 
z
M 2253 4666 
L 3047 4666 
L 3047 1625 
L 3713 1625 
L 3713 1100 
L 3047 1100 
L 3047 0 
L 2419 0 
L 2419 1100 
L 313 1100 
L 313 1709 
L 2253 4666 
z
" transform="scale(0.015625)"/>
       </defs>
       <use xlink:href="#DejaVuSans-34"/>
       <use xlink:href="#DejaVuSans-30" transform="translate(63.623047 0)"/>
      </g>
     </g>
    </g>
    <g id="ytick_3">
     <g id="line2d_9">
      <g>
       <use xlink:href="#mb0bb1ee551" x="50.87" y="247.996493" style="stroke: #000000; stroke-width: 0.8"/>
      </g>
     </g>
     <g id="text_10">
      <!-- 60 -->
      <g transform="translate(31.145 251.795712) scale(0.1 -0.1)">
       <defs>
        <path id="DejaVuSans-36" d="M 2113 2584 
Q 1688 2584 1439 2293 
Q 1191 2003 1191 1497 
Q 1191 994 1439 701 
Q 1688 409 2113 409 
Q 2538 409 2786 701 
Q 3034 994 3034 1497 
Q 3034 2003 2786 2293 
Q 2538 2584 2113 2584 
z
M 3366 4563 
L 3366 3988 
Q 3128 4100 2886 4159 
Q 2644 4219 2406 4219 
Q 1781 4219 1451 3797 
Q 1122 3375 1075 2522 
Q 1259 2794 1537 2939 
Q 1816 3084 2150 3084 
Q 2853 3084 3261 2657 
Q 3669 2231 3669 1497 
Q 3669 778 3244 343 
Q 2819 -91 2113 -91 
Q 1303 -91 875 529 
Q 447 1150 447 2328 
Q 447 3434 972 4092 
Q 1497 4750 2381 4750 
Q 2619 4750 2861 4703 
Q 3103 4656 3366 4563 
z
" transform="scale(0.015625)"/>
       </defs>
       <use xlink:href="#DejaVuSans-36"/>
       <use xlink:href="#DejaVuSans-30" transform="translate(63.623047 0)"/>
      </g>
     </g>
    </g>
    <g id="ytick_4">
     <g id="line2d_10">
      <g>
       <use xlink:href="#mb0bb1ee551" x="50.87" y="194.258507" style="stroke: #000000; stroke-width: 0.8"/>
      </g>
     </g>
     <g id="text_11">
      <!-- 80 -->
      <g transform="translate(31.145 198.057726) scale(0.1 -0.1)">
       <defs>
        <path id="DejaVuSans-38" d="M 2034 2216 
Q 1584 2216 1326 1975 
Q 1069 1734 1069 1313 
Q 1069 891 1326 650 
Q 1584 409 2034 409 
Q 2484 409 2743 651 
Q 3003 894 3003 1313 
Q 3003 1734 2745 1975 
Q 2488 2216 2034 2216 
z
M 1403 2484 
Q 997 2584 770 2862 
Q 544 3141 544 3541 
Q 544 4100 942 4425 
Q 1341 4750 2034 4750 
Q 2731 4750 3128 4425 
Q 3525 4100 3525 3541 
Q 3525 3141 3298 2862 
Q 3072 2584 2669 2484 
Q 3125 2378 3379 2068 
Q 3634 1759 3634 1313 
Q 3634 634 3220 271 
Q 2806 -91 2034 -91 
Q 1263 -91 848 271 
Q 434 634 434 1313 
Q 434 1759 690 2068 
Q 947 2378 1403 2484 
z
M 1172 3481 
Q 1172 3119 1398 2916 
Q 1625 2713 2034 2713 
Q 2441 2713 2670 2916 
Q 2900 3119 2900 3481 
Q 2900 3844 2670 4047 
Q 2441 4250 2034 4250 
Q 1625 4250 1398 4047 
Q 1172 3844 1172 3481 
z
" transform="scale(0.015625)"/>
       </defs>
       <use xlink:href="#DejaVuSans-38"/>
       <use xlink:href="#DejaVuSans-30" transform="translate(63.623047 0)"/>
      </g>
     </g>
    </g>
    <g id="ytick_5">
     <g id="line2d_11">
      <g>
       <use xlink:href="#mb0bb1ee551" x="50.87" y="140.520521" style="stroke: #000000; stroke-width: 0.8"/>
      </g>
     </g>
     <g id="text_12">
      <!-- 100 -->
      <g transform="translate(24.7825 144.31974) scale(0.1 -0.1)">
       <use xlink:href="#DejaVuSans-31"/>
       <use xlink:href="#DejaVuSans-30" transform="translate(63.623047 0)"/>
       <use xlink:href="#DejaVuSans-30" transform="translate(127.246094 0)"/>
      </g>
     </g>
    </g>
    <g id="ytick_6">
     <g id="line2d_12">
      <g>
       <use xlink:href="#mb0bb1ee551" x="50.87" y="86.782535" style="stroke: #000000; stroke-width: 0.8"/>
      </g>
     </g>
     <g id="text_13">
      <!-- 120 -->
      <g transform="translate(24.7825 90.581754) scale(0.1 -0.1)">
       <use xlink:href="#DejaVuSans-31"/>
       <use xlink:href="#DejaVuSans-32" transform="translate(63.623047 0)"/>
       <use xlink:href="#DejaVuSans-30" transform="translate(127.246094 0)"/>
      </g>
     </g>
    </g>
    <g id="text_14">
     <!-- Profit -->
     <g transform="translate(18.702813 229.779063) rotate(-90) scale(0.1 -0.1)">
      <defs>
       <path id="DejaVuSans-50" d="M 1259 4147 
L 1259 2394 
L 2053 2394 
Q 2494 2394 2734 2622 
Q 2975 2850 2975 3272 
Q 2975 3691 2734 3919 
Q 2494 4147 2053 4147 
L 1259 4147 
z
M 628 4666 
L 2053 4666 
Q 2838 4666 3239 4311 
Q 3641 3956 3641 3272 
Q 3641 2581 3239 2228 
Q 2838 1875 2053 1875 
L 1259 1875 
L 1259 0 
L 628 0 
L 628 4666 
z
" transform="scale(0.015625)"/>
       <path id="DejaVuSans-72" d="M 2631 2963 
Q 2534 3019 2420 3045 
Q 2306 3072 2169 3072 
Q 1681 3072 1420 2755 
Q 1159 2438 1159 1844 
L 1159 0 
L 581 0 
L 581 3500 
L 1159 3500 
L 1159 2956 
Q 1341 3275 1631 3429 
Q 1922 3584 2338 3584 
Q 2397 3584 2469 3576 
Q 2541 3569 2628 3553 
L 2631 2963 
z
" transform="scale(0.015625)"/>
       <path id="DejaVuSans-6f" d="M 1959 3097 
Q 1497 3097 1228 2736 
Q 959 2375 959 1747 
Q 959 1119 1226 758 
Q 1494 397 1959 397 
Q 2419 397 2687 759 
Q 2956 1122 2956 1747 
Q 2956 2369 2687 2733 
Q 2419 3097 1959 3097 
z
M 1959 3584 
Q 2709 3584 3137 3096 
Q 3566 2609 3566 1747 
Q 3566 888 3137 398 
Q 2709 -91 1959 -91 
Q 1206 -91 779 398 
Q 353 888 353 1747 
Q 353 2609 779 3096 
Q 1206 3584 1959 3584 
z
" transform="scale(0.015625)"/>
       <path id="DejaVuSans-66" d="M 2375 4863 
L 2375 4384 
L 1825 4384 
Q 1516 4384 1395 4259 
Q 1275 4134 1275 3809 
L 1275 3500 
L 2222 3500 
L 2222 3053 
L 1275 3053 
L 1275 0 
L 697 0 
L 697 3053 
L 147 3053 
L 147 3500 
L 697 3500 
L 697 3744 
Q 697 4328 969 4595 
Q 1241 4863 1831 4863 
L 2375 4863 
z
" transform="scale(0.015625)"/>
       <path id="DejaVuSans-69" d="M 603 3500 
L 1178 3500 
L 1178 0 
L 603 0 
L 603 3500 
z
M 603 4863 
L 1178 4863 
L 1178 4134 
L 603 4134 
L 603 4863 
z
" transform="scale(0.015625)"/>
      </defs>
      <use xlink:href="#DejaVuSans-50"/>
      <use xlink:href="#DejaVuSans-72" transform="translate(58.552734 0)"/>
      <use xlink:href="#DejaVuSans-6f" transform="translate(97.416016 0)"/>
      <use xlink:href="#DejaVuSans-66" transform="translate(158.597656 0)"/>
      <use xlink:href="#DejaVuSans-69" transform="translate(193.802734 0)"/>
      <use xlink:href="#DejaVuSans-74" transform="translate(221.585938 0)"/>
     </g>
    </g>
   </g>
   <g id="line2d_13">
    <path d="M 52.193327 252.12896 
L 54.83998 251.947376 
L 57.486633 244.152412 
L 60.133287 236.766934 
L 62.77994 230.464594 
L 65.426593 224.74948 
L 68.073247 219.832757 
L 70.7199 215.414354 
L 73.366553 211.418731 
L 78.65986 204.671923 
L 81.306513 201.695633 
L 83.953167 198.969314 
L 89.246473 193.992281 
L 94.53978 189.718133 
L 97.186433 187.821814 
L 105.126393 182.618058 
L 107.773047 181.083287 
L 113.066353 178.437161 
L 123.652967 173.399184 
L 136.886233 168.19098 
L 144.826193 165.40228 
L 147.472847 164.610183 
L 150.1195 163.981527 
L 152.766153 163.115529 
L 158.05946 161.665237 
L 165.99942 159.743683 
L 176.586033 157.435347 
L 189.8193 154.461538 
L 192.465953 153.906188 
L 197.75926 152.959094 
L 216.285833 149.66326 
L 224.225793 148.548891 
L 242.752367 146.133732 
L 263.925593 143.674192 
L 266.572247 143.440765 
L 271.865553 142.816968 
L 293.03878 140.649667 
L 300.97874 139.989771 
L 311.565353 139.002355 
L 322.151967 138.02853 
L 330.091927 137.365456 
L 338.031887 136.875766 
L 343.325193 136.427239 
L 396.25826 132.662214 
L 409.491527 131.839695 
L 414.784833 131.542946 
L 420.07814 131.220715 
L 425.371447 130.973861 
L 433.311407 130.567297 
L 454.484633 129.429067 
L 473.011207 128.374146 
L 499.47774 127.10964 
L 502.124393 126.903518 
L 507.4177 126.711951 
L 515.35766 126.315144 
L 531.23758 125.694442 
L 539.17754 125.395889 
L 560.350767 124.598728 
L 570.93738 124.165698 
L 581.523993 123.780391 
L 586.8173 123.574844 
L 594.75726 123.377639 
L 602.69722 122.983272 
L 666.2169 120.902765 
L 679.450167 120.54913 
L 703.270047 119.682169 
L 711.210007 119.488511 
L 729.73658 118.937733 
L 774.729687 117.845503 
L 785.3163 117.546929 
L 798.549567 117.174086 
L 809.13618 116.936723 
L 827.662753 116.653339 
L 840.89602 116.392238 
L 843.542673 116.306182 
L 843.542673 116.306182 
" clip-path="url(#p48d86c6184)" style="fill: none; stroke: #0000ff; stroke-width: 1.5; stroke-linecap: square"/>
   </g>
   <g id="patch_3">
    <path d="M 50.87 390.04 
L 50.87 43.44 
" style="fill: none; stroke: #000000; stroke-width: 0.8; stroke-linejoin: miter; stroke-linecap: square"/>
   </g>
   <g id="patch_4">
    <path d="M 844.866 390.04 
L 844.866 43.44 
" style="fill: none; stroke: #000000; stroke-width: 0.8; stroke-linejoin: miter; stroke-linecap: square"/>
   </g>
   <g id="patch_5">
    <path d="M 50.87 390.04 
L 844.866 390.04 
" style="fill: none; stroke: #000000; stroke-width: 0.8; stroke-linejoin: miter; stroke-linecap: square"/>
   </g>
   <g id="patch_6">
    <path d="M 50.87 43.44 
L 844.866 43.44 
" style="fill: none; stroke: #000000; stroke-width: 0.8; stroke-linejoin: miter; stroke-linecap: square"/>
   </g>
   <g id="text_15">
    <!-- Mean profit per step with confidence interval per simulation step -->
    <g transform="translate(220.284875 21.763062) scale(0.14 -0.14)">
     <defs>
      <path id="DejaVuSans-4d" d="M 628 4666 
L 1569 4666 
L 2759 1491 
L 3956 4666 
L 4897 4666 
L 4897 0 
L 4281 0 
L 4281 4097 
L 3078 897 
L 2444 897 
L 1241 4097 
L 1241 0 
L 628 0 
L 628 4666 
z
" transform="scale(0.015625)"/>
      <path id="DejaVuSans-61" d="M 2194 1759 
Q 1497 1759 1228 1600 
Q 959 1441 959 1056 
Q 959 750 1161 570 
Q 1363 391 1709 391 
Q 2188 391 2477 730 
Q 2766 1069 2766 1631 
L 2766 1759 
L 2194 1759 
z
M 3341 1997 
L 3341 0 
L 2766 0 
L 2766 531 
Q 2569 213 2275 61 
Q 1981 -91 1556 -91 
Q 1019 -91 701 211 
Q 384 513 384 1019 
Q 384 1609 779 1909 
Q 1175 2209 1959 2209 
L 2766 2209 
L 2766 2266 
Q 2766 2663 2505 2880 
Q 2244 3097 1772 3097 
Q 1472 3097 1187 3025 
Q 903 2953 641 2809 
L 641 3341 
Q 956 3463 1253 3523 
Q 1550 3584 1831 3584 
Q 2591 3584 2966 3190 
Q 3341 2797 3341 1997 
z
" transform="scale(0.015625)"/>
      <path id="DejaVuSans-6e" d="M 3513 2113 
L 3513 0 
L 2938 0 
L 2938 2094 
Q 2938 2591 2744 2837 
Q 2550 3084 2163 3084 
Q 1697 3084 1428 2787 
Q 1159 2491 1159 1978 
L 1159 0 
L 581 0 
L 581 3500 
L 1159 3500 
L 1159 2956 
Q 1366 3272 1645 3428 
Q 1925 3584 2291 3584 
Q 2894 3584 3203 3211 
Q 3513 2838 3513 2113 
z
" transform="scale(0.015625)"/>
      <path id="DejaVuSans-20" transform="scale(0.015625)"/>
      <path id="DejaVuSans-73" d="M 2834 3397 
L 2834 2853 
Q 2591 2978 2328 3040 
Q 2066 3103 1784 3103 
Q 1356 3103 1142 2972 
Q 928 2841 928 2578 
Q 928 2378 1081 2264 
Q 1234 2150 1697 2047 
L 1894 2003 
Q 2506 1872 2764 1633 
Q 3022 1394 3022 966 
Q 3022 478 2636 193 
Q 2250 -91 1575 -91 
Q 1294 -91 989 -36 
Q 684 19 347 128 
L 347 722 
Q 666 556 975 473 
Q 1284 391 1588 391 
Q 1994 391 2212 530 
Q 2431 669 2431 922 
Q 2431 1156 2273 1281 
Q 2116 1406 1581 1522 
L 1381 1569 
Q 847 1681 609 1914 
Q 372 2147 372 2553 
Q 372 3047 722 3315 
Q 1072 3584 1716 3584 
Q 2034 3584 2315 3537 
Q 2597 3491 2834 3397 
z
" transform="scale(0.015625)"/>
      <path id="DejaVuSans-77" d="M 269 3500 
L 844 3500 
L 1563 769 
L 2278 3500 
L 2956 3500 
L 3675 769 
L 4391 3500 
L 4966 3500 
L 4050 0 
L 3372 0 
L 2619 2869 
L 1863 0 
L 1184 0 
L 269 3500 
z
" transform="scale(0.015625)"/>
      <path id="DejaVuSans-68" d="M 3513 2113 
L 3513 0 
L 2938 0 
L 2938 2094 
Q 2938 2591 2744 2837 
Q 2550 3084 2163 3084 
Q 1697 3084 1428 2787 
Q 1159 2491 1159 1978 
L 1159 0 
L 581 0 
L 581 4863 
L 1159 4863 
L 1159 2956 
Q 1366 3272 1645 3428 
Q 1925 3584 2291 3584 
Q 2894 3584 3203 3211 
Q 3513 2838 3513 2113 
z
" transform="scale(0.015625)"/>
      <path id="DejaVuSans-63" d="M 3122 3366 
L 3122 2828 
Q 2878 2963 2633 3030 
Q 2388 3097 2138 3097 
Q 1578 3097 1268 2742 
Q 959 2388 959 1747 
Q 959 1106 1268 751 
Q 1578 397 2138 397 
Q 2388 397 2633 464 
Q 2878 531 3122 666 
L 3122 134 
Q 2881 22 2623 -34 
Q 2366 -91 2075 -91 
Q 1284 -91 818 406 
Q 353 903 353 1747 
Q 353 2603 823 3093 
Q 1294 3584 2113 3584 
Q 2378 3584 2631 3529 
Q 2884 3475 3122 3366 
z
" transform="scale(0.015625)"/>
      <path id="DejaVuSans-64" d="M 2906 2969 
L 2906 4863 
L 3481 4863 
L 3481 0 
L 2906 0 
L 2906 525 
Q 2725 213 2448 61 
Q 2172 -91 1784 -91 
Q 1150 -91 751 415 
Q 353 922 353 1747 
Q 353 2572 751 3078 
Q 1150 3584 1784 3584 
Q 2172 3584 2448 3432 
Q 2725 3281 2906 2969 
z
M 947 1747 
Q 947 1113 1208 752 
Q 1469 391 1925 391 
Q 2381 391 2643 752 
Q 2906 1113 2906 1747 
Q 2906 2381 2643 2742 
Q 2381 3103 1925 3103 
Q 1469 3103 1208 2742 
Q 947 2381 947 1747 
z
" transform="scale(0.015625)"/>
      <path id="DejaVuSans-76" d="M 191 3500 
L 800 3500 
L 1894 563 
L 2988 3500 
L 3597 3500 
L 2284 0 
L 1503 0 
L 191 3500 
z
" transform="scale(0.015625)"/>
      <path id="DejaVuSans-6c" d="M 603 4863 
L 1178 4863 
L 1178 0 
L 603 0 
L 603 4863 
z
" transform="scale(0.015625)"/>
      <path id="DejaVuSans-6d" d="M 3328 2828 
Q 3544 3216 3844 3400 
Q 4144 3584 4550 3584 
Q 5097 3584 5394 3201 
Q 5691 2819 5691 2113 
L 5691 0 
L 5113 0 
L 5113 2094 
Q 5113 2597 4934 2840 
Q 4756 3084 4391 3084 
Q 3944 3084 3684 2787 
Q 3425 2491 3425 1978 
L 3425 0 
L 2847 0 
L 2847 2094 
Q 2847 2600 2669 2842 
Q 2491 3084 2119 3084 
Q 1678 3084 1418 2786 
Q 1159 2488 1159 1978 
L 1159 0 
L 581 0 
L 581 3500 
L 1159 3500 
L 1159 2956 
Q 1356 3278 1631 3431 
Q 1906 3584 2284 3584 
Q 2666 3584 2933 3390 
Q 3200 3197 3328 2828 
z
" transform="scale(0.015625)"/>
      <path id="DejaVuSans-75" d="M 544 1381 
L 544 3500 
L 1119 3500 
L 1119 1403 
Q 1119 906 1312 657 
Q 1506 409 1894 409 
Q 2359 409 2629 706 
Q 2900 1003 2900 1516 
L 2900 3500 
L 3475 3500 
L 3475 0 
L 2900 0 
L 2900 538 
Q 2691 219 2414 64 
Q 2138 -91 1772 -91 
Q 1169 -91 856 284 
Q 544 659 544 1381 
z
M 1991 3584 
L 1991 3584 
z
" transform="scale(0.015625)"/>
     </defs>
     <use xlink:href="#DejaVuSans-4d"/>
     <use xlink:href="#DejaVuSans-65" transform="translate(86.279297 0)"/>
     <use xlink:href="#DejaVuSans-61" transform="translate(147.802734 0)"/>
     <use xlink:href="#DejaVuSans-6e" transform="translate(209.082031 0)"/>
     <use xlink:href="#DejaVuSans-20" transform="translate(272.460938 0)"/>
     <use xlink:href="#DejaVuSans-70" transform="translate(304.248047 0)"/>
     <use xlink:href="#DejaVuSans-72" transform="translate(367.724609 0)"/>
     <use xlink:href="#DejaVuSans-6f" transform="translate(406.587891 0)"/>
     <use xlink:href="#DejaVuSans-66" transform="translate(467.769531 0)"/>
     <use xlink:href="#DejaVuSans-69" transform="translate(502.974609 0)"/>
     <use xlink:href="#DejaVuSans-74" transform="translate(530.757812 0)"/>
     <use xlink:href="#DejaVuSans-20" transform="translate(569.966797 0)"/>
     <use xlink:href="#DejaVuSans-70" transform="translate(601.753906 0)"/>
     <use xlink:href="#DejaVuSans-65" transform="translate(665.230469 0)"/>
     <use xlink:href="#DejaVuSans-72" transform="translate(726.753906 0)"/>
     <use xlink:href="#DejaVuSans-20" transform="translate(767.867188 0)"/>
     <use xlink:href="#DejaVuSans-73" transform="translate(799.654297 0)"/>
     <use xlink:href="#DejaVuSans-74" transform="translate(851.753906 0)"/>
     <use xlink:href="#DejaVuSans-65" transform="translate(890.962891 0)"/>
     <use xlink:href="#DejaVuSans-70" transform="translate(952.486328 0)"/>
     <use xlink:href="#DejaVuSans-20" transform="translate(1015.962891 0)"/>
     <use xlink:href="#DejaVuSans-77" transform="translate(1047.75 0)"/>
     <use xlink:href="#DejaVuSans-69" transform="translate(1129.537109 0)"/>
     <use xlink:href="#DejaVuSans-74" transform="translate(1157.320312 0)"/>
     <use xlink:href="#DejaVuSans-68" transform="translate(1196.529297 0)"/>
     <use xlink:href="#DejaVuSans-20" transform="translate(1259.908203 0)"/>
     <use xlink:href="#DejaVuSans-63" transform="translate(1291.695312 0)"/>
     <use xlink:href="#DejaVuSans-6f" transform="translate(1346.675781 0)"/>
     <use xlink:href="#DejaVuSans-6e" transform="translate(1407.857422 0)"/>
     <use xlink:href="#DejaVuSans-66" transform="translate(1471.236328 0)"/>
     <use xlink:href="#DejaVuSans-69" transform="translate(1506.441406 0)"/>
     <use xlink:href="#DejaVuSans-64" transform="translate(1534.224609 0)"/>
     <use xlink:href="#DejaVuSans-65" transform="translate(1597.701172 0)"/>
     <use xlink:href="#DejaVuSans-6e" transform="translate(1659.224609 0)"/>
     <use xlink:href="#DejaVuSans-63" transform="translate(1722.603516 0)"/>
     <use xlink:href="#DejaVuSans-65" transform="translate(1777.583984 0)"/>
     <use xlink:href="#DejaVuSans-20" transform="translate(1839.107422 0)"/>
     <use xlink:href="#DejaVuSans-69" transform="translate(1870.894531 0)"/>
     <use xlink:href="#DejaVuSans-6e" transform="translate(1898.677734 0)"/>
     <use xlink:href="#DejaVuSans-74" transform="translate(1962.056641 0)"/>
     <use xlink:href="#DejaVuSans-65" transform="translate(2001.265625 0)"/>
     <use xlink:href="#DejaVuSans-72" transform="translate(2062.789062 0)"/>
     <use xlink:href="#DejaVuSans-76" transform="translate(2103.902344 0)"/>
     <use xlink:href="#DejaVuSans-61" transform="translate(2163.082031 0)"/>
     <use xlink:href="#DejaVuSans-6c" transform="translate(2224.361328 0)"/>
     <use xlink:href="#DejaVuSans-20" transform="translate(2252.144531 0)"/>
     <use xlink:href="#DejaVuSans-70" transform="translate(2283.931641 0)"/>
     <use xlink:href="#DejaVuSans-65" transform="translate(2347.408203 0)"/>
     <use xlink:href="#DejaVuSans-72" transform="translate(2408.931641 0)"/>
     <use xlink:href="#DejaVuSans-20" transform="translate(2450.044922 0)"/>
     <use xlink:href="#DejaVuSans-73" transform="translate(2481.832031 0)"/>
     <use xlink:href="#DejaVuSans-69" transform="translate(2533.931641 0)"/>
     <use xlink:href="#DejaVuSans-6d" transform="translate(2561.714844 0)"/>
     <use xlink:href="#DejaVuSans-75" transform="translate(2659.126953 0)"/>
     <use xlink:href="#DejaVuSans-6c" transform="translate(2722.505859 0)"/>
     <use xlink:href="#DejaVuSans-61" transform="translate(2750.289062 0)"/>
     <use xlink:href="#DejaVuSans-74" transform="translate(2811.568359 0)"/>
     <use xlink:href="#DejaVuSans-69" transform="translate(2850.777344 0)"/>
     <use xlink:href="#DejaVuSans-6f" transform="translate(2878.560547 0)"/>
     <use xlink:href="#DejaVuSans-6e" transform="translate(2939.742188 0)"/>
     <use xlink:href="#DejaVuSans-20" transform="translate(3003.121094 0)"/>
     <use xlink:href="#DejaVuSans-73" transform="translate(3034.908203 0)"/>
     <use xlink:href="#DejaVuSans-74" transform="translate(3087.007812 0)"/>
     <use xlink:href="#DejaVuSans-65" transform="translate(3126.216797 0)"/>
     <use xlink:href="#DejaVuSans-70" transform="translate(3187.740234 0)"/>
    </g>
    <!-- Base Product: Green Crack, Recipe size: 10, T0: 10.0 -->
    <g transform="translate(263.577687 37.44) scale(0.14 -0.14)">
     <defs>
      <path id="DejaVuSans-42" d="M 1259 2228 
L 1259 519 
L 2272 519 
Q 2781 519 3026 730 
Q 3272 941 3272 1375 
Q 3272 1813 3026 2020 
Q 2781 2228 2272 2228 
L 1259 2228 
z
M 1259 4147 
L 1259 2741 
L 2194 2741 
Q 2656 2741 2882 2914 
Q 3109 3088 3109 3444 
Q 3109 3797 2882 3972 
Q 2656 4147 2194 4147 
L 1259 4147 
z
M 628 4666 
L 2241 4666 
Q 2963 4666 3353 4366 
Q 3744 4066 3744 3513 
Q 3744 3084 3544 2831 
Q 3344 2578 2956 2516 
Q 3422 2416 3680 2098 
Q 3938 1781 3938 1306 
Q 3938 681 3513 340 
Q 3088 0 2303 0 
L 628 0 
L 628 4666 
z
" transform="scale(0.015625)"/>
      <path id="DejaVuSans-3a" d="M 750 794 
L 1409 794 
L 1409 0 
L 750 0 
L 750 794 
z
M 750 3309 
L 1409 3309 
L 1409 2516 
L 750 2516 
L 750 3309 
z
" transform="scale(0.015625)"/>
      <path id="DejaVuSans-47" d="M 3809 666 
L 3809 1919 
L 2778 1919 
L 2778 2438 
L 4434 2438 
L 4434 434 
Q 4069 175 3628 42 
Q 3188 -91 2688 -91 
Q 1594 -91 976 548 
Q 359 1188 359 2328 
Q 359 3472 976 4111 
Q 1594 4750 2688 4750 
Q 3144 4750 3555 4637 
Q 3966 4525 4313 4306 
L 4313 3634 
Q 3963 3931 3569 4081 
Q 3175 4231 2741 4231 
Q 1884 4231 1454 3753 
Q 1025 3275 1025 2328 
Q 1025 1384 1454 906 
Q 1884 428 2741 428 
Q 3075 428 3337 486 
Q 3600 544 3809 666 
z
" transform="scale(0.015625)"/>
      <path id="DejaVuSans-43" d="M 4122 4306 
L 4122 3641 
Q 3803 3938 3442 4084 
Q 3081 4231 2675 4231 
Q 1875 4231 1450 3742 
Q 1025 3253 1025 2328 
Q 1025 1406 1450 917 
Q 1875 428 2675 428 
Q 3081 428 3442 575 
Q 3803 722 4122 1019 
L 4122 359 
Q 3791 134 3420 21 
Q 3050 -91 2638 -91 
Q 1578 -91 968 557 
Q 359 1206 359 2328 
Q 359 3453 968 4101 
Q 1578 4750 2638 4750 
Q 3056 4750 3426 4639 
Q 3797 4528 4122 4306 
z
" transform="scale(0.015625)"/>
      <path id="DejaVuSans-6b" d="M 581 4863 
L 1159 4863 
L 1159 1991 
L 2875 3500 
L 3609 3500 
L 1753 1863 
L 3688 0 
L 2938 0 
L 1159 1709 
L 1159 0 
L 581 0 
L 581 4863 
z
" transform="scale(0.015625)"/>
      <path id="DejaVuSans-2c" d="M 750 794 
L 1409 794 
L 1409 256 
L 897 -744 
L 494 -744 
L 750 256 
L 750 794 
z
" transform="scale(0.015625)"/>
      <path id="DejaVuSans-52" d="M 2841 2188 
Q 3044 2119 3236 1894 
Q 3428 1669 3622 1275 
L 4263 0 
L 3584 0 
L 2988 1197 
Q 2756 1666 2539 1819 
Q 2322 1972 1947 1972 
L 1259 1972 
L 1259 0 
L 628 0 
L 628 4666 
L 2053 4666 
Q 2853 4666 3247 4331 
Q 3641 3997 3641 3322 
Q 3641 2881 3436 2590 
Q 3231 2300 2841 2188 
z
M 1259 4147 
L 1259 2491 
L 2053 2491 
Q 2509 2491 2742 2702 
Q 2975 2913 2975 3322 
Q 2975 3731 2742 3939 
Q 2509 4147 2053 4147 
L 1259 4147 
z
" transform="scale(0.015625)"/>
      <path id="DejaVuSans-7a" d="M 353 3500 
L 3084 3500 
L 3084 2975 
L 922 459 
L 3084 459 
L 3084 0 
L 275 0 
L 275 525 
L 2438 3041 
L 353 3041 
L 353 3500 
z
" transform="scale(0.015625)"/>
      <path id="DejaVuSans-54" d="M -19 4666 
L 3928 4666 
L 3928 4134 
L 2272 4134 
L 2272 0 
L 1638 0 
L 1638 4134 
L -19 4134 
L -19 4666 
z
" transform="scale(0.015625)"/>
      <path id="DejaVuSans-2e" d="M 684 794 
L 1344 794 
L 1344 0 
L 684 0 
L 684 794 
z
" transform="scale(0.015625)"/>
     </defs>
     <use xlink:href="#DejaVuSans-42"/>
     <use xlink:href="#DejaVuSans-61" transform="translate(68.603516 0)"/>
     <use xlink:href="#DejaVuSans-73" transform="translate(129.882812 0)"/>
     <use xlink:href="#DejaVuSans-65" transform="translate(181.982422 0)"/>
     <use xlink:href="#DejaVuSans-20" transform="translate(243.505859 0)"/>
     <use xlink:href="#DejaVuSans-50" transform="translate(275.292969 0)"/>
     <use xlink:href="#DejaVuSans-72" transform="translate(333.845703 0)"/>
     <use xlink:href="#DejaVuSans-6f" transform="translate(372.708984 0)"/>
     <use xlink:href="#DejaVuSans-64" transform="translate(433.890625 0)"/>
     <use xlink:href="#DejaVuSans-75" transform="translate(497.367188 0)"/>
     <use xlink:href="#DejaVuSans-63" transform="translate(560.746094 0)"/>
     <use xlink:href="#DejaVuSans-74" transform="translate(615.726562 0)"/>
     <use xlink:href="#DejaVuSans-3a" transform="translate(654.935547 0)"/>
     <use xlink:href="#DejaVuSans-20" transform="translate(688.626953 0)"/>
     <use xlink:href="#DejaVuSans-47" transform="translate(720.414062 0)"/>
     <use xlink:href="#DejaVuSans-72" transform="translate(797.904297 0)"/>
     <use xlink:href="#DejaVuSans-65" transform="translate(836.767578 0)"/>
     <use xlink:href="#DejaVuSans-65" transform="translate(898.291016 0)"/>
     <use xlink:href="#DejaVuSans-6e" transform="translate(959.814453 0)"/>
     <use xlink:href="#DejaVuSans-20" transform="translate(1023.193359 0)"/>
     <use xlink:href="#DejaVuSans-43" transform="translate(1054.980469 0)"/>
     <use xlink:href="#DejaVuSans-72" transform="translate(1124.804688 0)"/>
     <use xlink:href="#DejaVuSans-61" transform="translate(1165.917969 0)"/>
     <use xlink:href="#DejaVuSans-63" transform="translate(1227.197266 0)"/>
     <use xlink:href="#DejaVuSans-6b" transform="translate(1282.177734 0)"/>
     <use xlink:href="#DejaVuSans-2c" transform="translate(1340.087891 0)"/>
     <use xlink:href="#DejaVuSans-20" transform="translate(1371.875 0)"/>
     <use xlink:href="#DejaVuSans-52" transform="translate(1403.662109 0)"/>
     <use xlink:href="#DejaVuSans-65" transform="translate(1468.644531 0)"/>
     <use xlink:href="#DejaVuSans-63" transform="translate(1530.167969 0)"/>
     <use xlink:href="#DejaVuSans-69" transform="translate(1585.148438 0)"/>
     <use xlink:href="#DejaVuSans-70" transform="translate(1612.931641 0)"/>
     <use xlink:href="#DejaVuSans-65" transform="translate(1676.408203 0)"/>
     <use xlink:href="#DejaVuSans-20" transform="translate(1737.931641 0)"/>
     <use xlink:href="#DejaVuSans-73" transform="translate(1769.71875 0)"/>
     <use xlink:href="#DejaVuSans-69" transform="translate(1821.818359 0)"/>
     <use xlink:href="#DejaVuSans-7a" transform="translate(1849.601562 0)"/>
     <use xlink:href="#DejaVuSans-65" transform="translate(1902.091797 0)"/>
     <use xlink:href="#DejaVuSans-3a" transform="translate(1963.615234 0)"/>
     <use xlink:href="#DejaVuSans-20" transform="translate(1997.306641 0)"/>
     <use xlink:href="#DejaVuSans-31" transform="translate(2029.09375 0)"/>
     <use xlink:href="#DejaVuSans-30" transform="translate(2092.716797 0)"/>
     <use xlink:href="#DejaVuSans-2c" transform="translate(2156.339844 0)"/>
     <use xlink:href="#DejaVuSans-20" transform="translate(2188.126953 0)"/>
     <use xlink:href="#DejaVuSans-54" transform="translate(2219.914062 0)"/>
     <use xlink:href="#DejaVuSans-30" transform="translate(2280.998047 0)"/>
     <use xlink:href="#DejaVuSans-3a" transform="translate(2344.621094 0)"/>
     <use xlink:href="#DejaVuSans-20" transform="translate(2378.3125 0)"/>
     <use xlink:href="#DejaVuSans-31" transform="translate(2410.099609 0)"/>
     <use xlink:href="#DejaVuSans-30" transform="translate(2473.722656 0)"/>
     <use xlink:href="#DejaVuSans-2e" transform="translate(2537.345703 0)"/>
     <use xlink:href="#DejaVuSans-30" transform="translate(2569.132812 0)"/>
    </g>
   </g>
  </g>
 </g>
 <defs>
  <clipPath id="p48d86c6184">
   <rect x="50.87" y="43.44" width="793.996" height="346.6"/>
  </clipPath>
 </defs>
</svg>
