<?xml version="1.0" encoding="utf-8" standalone="no"?>
<!DOCTYPE svg PUBLIC "-//W3C//DTD SVG 1.1//EN"
  "http://www.w3.org/Graphics/SVG/1.1/DTD/svg11.dtd">
<svg xmlns:xlink="http://www.w3.org/1999/xlink" width="864pt" height="432pt" viewBox="0 0 864 432" xmlns="http://www.w3.org/2000/svg" version="1.1">
 <metadata>
  <rdf:RDF xmlns:dc="http://purl.org/dc/elements/1.1/" xmlns:cc="http://creativecommons.org/ns#" xmlns:rdf="http://www.w3.org/1999/02/22-rdf-syntax-ns#">
   <cc:Work>
    <dc:type rdf:resource="http://purl.org/dc/dcmitype/StillImage"/>
    <dc:date>2025-05-24T02:11:09.459586</dc:date>
    <dc:format>image/svg+xml</dc:format>
    <dc:creator>
     <cc:Agent>
      <dc:title>Matplotlib v3.10.3, https://matplotlib.org/</dc:title>
     </cc:Agent>
    </dc:creator>
   </cc:Work>
  </rdf:RDF>
 </metadata>
 <defs>
  <style type="text/css">*{stroke-linejoin: round; stroke-linecap: butt}</style>
 </defs>
 <g id="figure_1">
  <g id="patch_1">
   <path d="M 0 432 
L 864 432 
L 864 0 
L 0 0 
z
" style="fill: #ffffff"/>
  </g>
  <g id="axes_1">
   <g id="patch_2">
    <path d="M 50.87 390.04 
L 844.866 390.04 
L 844.866 43.44 
L 50.87 43.44 
z
" style="fill: #ffffff"/>
   </g>
   <g id="FillBetweenPolyCollection_1">
    <defs>
     <path id="m6eab7baf9b" d="M 52.193327 -306.833612 
L 52.193327 -58.637701 
L 54.83998 -57.714545 
L 57.486633 -64.86235 
L 60.133287 -73.581509 
L 62.77994 -81.299405 
L 65.426593 -87.52746 
L 68.073247 -92.271082 
L 70.7199 -97.522956 
L 73.366553 -102.337008 
L 76.013207 -106.114046 
L 78.65986 -110.484747 
L 81.306513 -114.310891 
L 83.953167 -118.874382 
L 86.59982 -121.249594 
L 89.246473 -124.868778 
L 91.893127 -128.679071 
L 94.53978 -131.415893 
L 97.186433 -133.449265 
L 99.833087 -135.534461 
L 102.47974 -137.168169 
L 105.126393 -139.052211 
L 107.773047 -141.663588 
L 110.4197 -143.842829 
L 113.066353 -145.310051 
L 115.713007 -146.453767 
L 118.35966 -147.769442 
L 121.006313 -149.653635 
L 123.652967 -151.360877 
L 126.29962 -152.821276 
L 128.946273 -154.730251 
L 131.592927 -156.063695 
L 134.23958 -157.369806 
L 136.886233 -158.338393 
L 139.532887 -159.778583 
L 142.17954 -160.887535 
L 144.826193 -161.908858 
L 147.472847 -162.650383 
L 150.1195 -164.550308 
L 152.766153 -164.527057 
L 155.412807 -165.562367 
L 158.05946 -166.238572 
L 160.706113 -166.540861 
L 163.352767 -166.708161 
L 165.99942 -168.392559 
L 168.646073 -168.697515 
L 171.292727 -168.849146 
L 173.93938 -169.440165 
L 176.586033 -170.08183 
L 179.232687 -171.327206 
L 181.87934 -172.337851 
L 184.525993 -172.108658 
L 187.172647 -172.771497 
L 189.8193 -172.951531 
L 192.465953 -173.350434 
L 195.112607 -174.133729 
L 197.75926 -175.433885 
L 200.405913 -175.78756 
L 203.052567 -175.830797 
L 205.69922 -176.428605 
L 208.345873 -177.209489 
L 210.992527 -178.028266 
L 213.63918 -178.772908 
L 216.285833 -179.807961 
L 218.932487 -180.063008 
L 221.57914 -180.201991 
L 224.225793 -181.028468 
L 226.872447 -180.919762 
L 229.5191 -181.359041 
L 232.165753 -181.699029 
L 234.812407 -182.437684 
L 237.45906 -183.078504 
L 240.105713 -183.150292 
L 242.752367 -183.583093 
L 245.39902 -183.306444 
L 248.045673 -183.764948 
L 250.692327 -184.063873 
L 253.33898 -184.394993 
L 255.985633 -184.945892 
L 258.632287 -185.224008 
L 261.27894 -185.196034 
L 263.925593 -185.688585 
L 266.572247 -186.288792 
L 269.2189 -186.544353 
L 271.865553 -187.035919 
L 274.512207 -187.701179 
L 277.15886 -188.106336 
L 279.805513 -187.941382 
L 282.452167 -188.195293 
L 285.09882 -188.804261 
L 287.745473 -189.299383 
L 290.392127 -189.479524 
L 293.03878 -189.856836 
L 295.685433 -190.167018 
L 298.332087 -191.512296 
L 300.97874 -192.02224 
L 303.625393 -191.38956 
L 306.272047 -191.102319 
L 308.9187 -191.196116 
L 311.565353 -191.61584 
L 314.212007 -192.326852 
L 316.85866 -192.326724 
L 319.505313 -192.27945 
L 322.151967 -192.363588 
L 324.79862 -192.549555 
L 327.445273 -192.829021 
L 330.091927 -192.439714 
L 332.73858 -192.692876 
L 335.385233 -193.212073 
L 338.031887 -193.239684 
L 340.67854 -193.552843 
L 343.325193 -194.319633 
L 345.971847 -194.628422 
L 348.6185 -194.202509 
L 351.265153 -194.743083 
L 353.911807 -194.624652 
L 356.55846 -195.369894 
L 359.205113 -195.526838 
L 361.851767 -195.278324 
L 364.49842 -195.461314 
L 367.145073 -195.770425 
L 369.791727 -195.864223 
L 372.43838 -195.692307 
L 375.085033 -195.981626 
L 377.731687 -196.524128 
L 380.37834 -196.923802 
L 383.024993 -197.185361 
L 385.671647 -197.420423 
L 388.3183 -197.669686 
L 390.964953 -197.13768 
L 393.611607 -198.027292 
L 396.25826 -198.471841 
L 398.904913 -199.697188 
L 401.551567 -199.702029 
L 404.19822 -200.041664 
L 406.844873 -200.202377 
L 409.491527 -200.021893 
L 412.13818 -199.987407 
L 414.784833 -199.687635 
L 417.431487 -199.735402 
L 420.07814 -200.111685 
L 422.724793 -200.452326 
L 425.371447 -200.31873 
L 428.0181 -200.246181 
L 430.664753 -200.144993 
L 433.311407 -200.313525 
L 435.95806 -199.786959 
L 438.604713 -199.896094 
L 441.251367 -200.189504 
L 443.89802 -200.486491 
L 446.544673 -200.681284 
L 449.191327 -200.792732 
L 451.83798 -201.221772 
L 454.484633 -201.0469 
L 457.131287 -200.717762 
L 459.77794 -200.448556 
L 462.424593 -200.369196 
L 465.071247 -200.865109 
L 467.7179 -201.066842 
L 470.364553 -201.066649 
L 473.011207 -201.09698 
L 475.65786 -200.843947 
L 478.304513 -200.738411 
L 480.951167 -201.18433 
L 483.59782 -201.639804 
L 486.244473 -201.630764 
L 488.891127 -201.886818 
L 491.53778 -201.968771 
L 494.184433 -202.002743 
L 496.831087 -202.360134 
L 499.47774 -202.385859 
L 502.124393 -202.117104 
L 504.771047 -202.859582 
L 507.4177 -203.244884 
L 510.064353 -203.655589 
L 512.711007 -203.589294 
L 515.35766 -203.702799 
L 518.004313 -203.99713 
L 520.650967 -204.273961 
L 523.29762 -204.791209 
L 525.944273 -204.81747 
L 528.590927 -205.099677 
L 531.23758 -205.449229 
L 533.884233 -205.655395 
L 536.530887 -205.671846 
L 539.17754 -205.515844 
L 541.824193 -205.442139 
L 544.470847 -205.572329 
L 547.1175 -205.369611 
L 549.764153 -205.590407 
L 552.410807 -205.516594 
L 555.05746 -205.57657 
L 557.704113 -205.495753 
L 560.350767 -205.571322 
L 562.99742 -205.537821 
L 565.644073 -205.428815 
L 568.290727 -205.794753 
L 570.93738 -206.115409 
L 573.584033 -205.76785 
L 576.230687 -205.563183 
L 578.87734 -205.943193 
L 581.523993 -205.397928 
L 584.170647 -205.141424 
L 586.8173 -205.47731 
L 589.463953 -205.783658 
L 592.110607 -206.131067 
L 594.75726 -206.599842 
L 597.403913 -206.551947 
L 600.050567 -206.797677 
L 602.69722 -206.958047 
L 605.343873 -206.913216 
L 607.990527 -207.171111 
L 610.63718 -207.3761 
L 613.283833 -207.932611 
L 615.930487 -208.629808 
L 618.57714 -208.957875 
L 621.223793 -209.185612 
L 623.870447 -209.194994 
L 626.5171 -209.399297 
L 629.163753 -209.449184 
L 631.810407 -209.421788 
L 634.45706 -209.270263 
L 637.103713 -209.604414 
L 639.750367 -208.755371 
L 642.39702 -208.877101 
L 645.043673 -209.07215 
L 647.690327 -209.414441 
L 650.33698 -208.901712 
L 652.983633 -208.654055 
L 655.630287 -209.228709 
L 658.27694 -209.427293 
L 660.923593 -209.358577 
L 663.570247 -209.563031 
L 666.2169 -209.434768 
L 668.863553 -209.405766 
L 671.510207 -209.278124 
L 674.15686 -209.926184 
L 676.803513 -209.645133 
L 679.450167 -209.596231 
L 682.09682 -209.694892 
L 684.743473 -209.960499 
L 687.390127 -210.532282 
L 690.03678 -210.980301 
L 692.683433 -211.404672 
L 695.330087 -211.063838 
L 697.97674 -210.777026 
L 700.623393 -211.066666 
L 703.270047 -211.349109 
L 705.9167 -211.150868 
L 708.563353 -210.965135 
L 711.210007 -210.912528 
L 713.85666 -210.783366 
L 716.503313 -210.697001 
L 719.149967 -210.870524 
L 721.79662 -210.79217 
L 724.443273 -211.115375 
L 727.089927 -211.185246 
L 729.73658 -211.369886 
L 732.383233 -211.523467 
L 735.029887 -211.569263 
L 737.67654 -211.742486 
L 740.323193 -211.969665 
L 742.969847 -212.22227 
L 745.6165 -211.972386 
L 748.263153 -211.604284 
L 750.909807 -211.993548 
L 753.55646 -212.199437 
L 756.203113 -211.948545 
L 758.849767 -212.201793 
L 761.49642 -212.257528 
L 764.143073 -212.720519 
L 766.789727 -212.893485 
L 769.43638 -212.404447 
L 772.083033 -211.908062 
L 774.729687 -212.39635 
L 777.37634 -212.767236 
L 780.022993 -212.976873 
L 782.669647 -213.478548 
L 785.3163 -213.288232 
L 787.962953 -213.473408 
L 790.609607 -213.070992 
L 793.25626 -212.502529 
L 795.902913 -212.195838 
L 798.549567 -212.129779 
L 801.19622 -212.56651 
L 803.842873 -212.851309 
L 806.489527 -212.997072 
L 809.13618 -213.189894 
L 811.782833 -213.505666 
L 814.429487 -213.708684 
L 817.07614 -213.488316 
L 819.722793 -213.775086 
L 822.369447 -213.413025 
L 825.0161 -213.589911 
L 827.662753 -213.450745 
L 830.309407 -212.978351 
L 832.95606 -212.814574 
L 835.602713 -213.421614 
L 838.249367 -213.667579 
L 840.89602 -214.146186 
L 843.542673 -213.803531 
L 843.542673 -372.406873 
L 843.542673 -372.406873 
L 840.89602 -372.158959 
L 838.249367 -372.331089 
L 835.602713 -372.425637 
L 832.95606 -372.805455 
L 830.309407 -372.559854 
L 827.662753 -372.22626 
L 825.0161 -372.060941 
L 822.369447 -372.216064 
L 819.722793 -372.055586 
L 817.07614 -372.094827 
L 814.429487 -371.863835 
L 811.782833 -371.971663 
L 809.13618 -371.965066 
L 806.489527 -372.000965 
L 803.842873 -372.029368 
L 801.19622 -372.183206 
L 798.549567 -372.311169 
L 795.902913 -372.108065 
L 793.25626 -371.726662 
L 790.609607 -371.303876 
L 787.962953 -370.755269 
L 785.3163 -370.817172 
L 782.669647 -370.737062 
L 780.022993 -370.930398 
L 777.37634 -370.811475 
L 774.729687 -371.01642 
L 772.083033 -371.19502 
L 769.43638 -370.929884 
L 766.789727 -370.663549 
L 764.143073 -370.685397 
L 761.49642 -370.84716 
L 758.849767 -370.76238 
L 756.203113 -370.890985 
L 753.55646 -370.644356 
L 750.909807 -370.684112 
L 748.263153 -370.81473 
L 745.6165 -370.476167 
L 742.969847 -370.241062 
L 740.323193 -370.536614 
L 737.67654 -370.753298 
L 735.029887 -370.783115 
L 732.383233 -370.665262 
L 729.73658 -370.729908 
L 727.089927 -370.814816 
L 724.443273 -370.738176 
L 721.79662 -370.814902 
L 719.149967 -370.646713 
L 716.503313 -370.692423 
L 713.85666 -370.536743 
L 711.210007 -370.374337 
L 708.563353 -370.276448 
L 705.9167 -370.032818 
L 703.270047 -369.847493 
L 700.623393 -369.97704 
L 697.97674 -370.083026 
L 695.330087 -369.844794 
L 692.683433 -369.567234 
L 690.03678 -369.744249 
L 687.390127 -370.003558 
L 684.743473 -370.298767 
L 682.09682 -370.467128 
L 679.450167 -370.44905 
L 676.803513 -370.35643 
L 674.15686 -370.036159 
L 671.510207 -370.25053 
L 668.863553 -369.959176 
L 666.2169 -369.821746 
L 663.570247 -369.54183 
L 660.923593 -369.888448 
L 658.27694 -369.700638 
L 655.630287 -369.650686 
L 652.983633 -370.036673 
L 650.33698 -369.667223 
L 647.690327 -369.186303 
L 645.043673 -369.236254 
L 642.39702 -369.143977 
L 639.750367 -368.928535 
L 637.103713 -368.370675 
L 634.45706 -368.407003 
L 631.810407 -368.282254 
L 629.163753 -368.111751 
L 626.5171 -367.94926 
L 623.870447 -368.015233 
L 621.223793 -367.911175 
L 618.57714 -368.004652 
L 615.930487 -368.189762 
L 613.283833 -368.489042 
L 610.63718 -368.956638 
L 607.990527 -369.050543 
L 605.343873 -368.986112 
L 602.69722 -368.836644 
L 600.050567 -368.891393 
L 597.403913 -368.981186 
L 594.75726 -368.805157 
L 592.110607 -368.914784 
L 589.463953 -369.005561 
L 586.8173 -369.098224 
L 584.170647 -369.13678 
L 581.523993 -368.548161 
L 578.87734 -368.05426 
L 576.230687 -368.100613 
L 573.584033 -367.856683 
L 570.93738 -367.622263 
L 568.290727 -367.776444 
L 565.644073 -367.743457 
L 562.99742 -367.688965 
L 560.350767 -367.52506 
L 557.704113 -367.494044 
L 555.05746 -367.331509 
L 552.410807 -367.389172 
L 549.764153 -367.086251 
L 547.1175 -367.068044 
L 544.470847 -366.902811 
L 541.824193 -366.859414 
L 539.17754 -366.758826 
L 536.530887 -366.586953 
L 533.884233 -366.466616 
L 531.23758 -366.518409 
L 528.590927 -366.418721 
L 525.944273 -366.419449 
L 523.29762 -366.189228 
L 520.650967 -366.520551 
L 518.004313 -366.601004 
L 515.35766 -366.677988 
L 512.711007 -366.653954 
L 510.064353 -366.573287 
L 507.4177 -366.685313 
L 504.771047 -366.970498 
L 502.124393 -367.264165 
L 499.47774 -366.934384 
L 496.831087 -366.790528 
L 494.184433 -366.811691 
L 491.53778 -366.546941 
L 488.891127 -366.443911 
L 486.244473 -366.580827 
L 483.59782 -366.363715 
L 480.951167 -366.304981 
L 478.304513 -366.359602 
L 475.65786 -366.064393 
L 473.011207 -365.735811 
L 470.364553 -365.448313 
L 467.7179 -365.184612 
L 465.071247 -365.156681 
L 462.424593 -365.260439 
L 459.77794 -365.095913 
L 457.131287 -364.564699 
L 454.484633 -364.151937 
L 451.83798 -363.829567 
L 449.191327 -364.064886 
L 446.544673 -363.806112 
L 443.89802 -363.775482 
L 441.251367 -364.001526 
L 438.604713 -364.129532 
L 435.95806 -363.967447 
L 433.311407 -363.382791 
L 430.664753 -363.220513 
L 428.0181 -362.795456 
L 425.371447 -362.721493 
L 422.724793 -362.618485 
L 420.07814 -362.599657 
L 417.431487 -362.692855 
L 414.784833 -362.491122 
L 412.13818 -362.055163 
L 409.491527 -361.681728 
L 406.844873 -361.708931 
L 404.19822 -361.533395 
L 401.551567 -361.634497 
L 398.904913 -361.500365 
L 396.25826 -361.846554 
L 393.611607 -362.185332 
L 390.964953 -362.671864 
L 388.3183 -362.137458 
L 385.671647 -361.894877 
L 383.024993 -361.569637 
L 380.37834 -361.51311 
L 377.731687 -361.607594 
L 375.085033 -361.842677 
L 372.43838 -362.065723 
L 369.791727 -361.777539 
L 367.145073 -361.597162 
L 364.49842 -361.483572 
L 361.851767 -361.357045 
L 359.205113 -360.794686 
L 356.55846 -360.690007 
L 353.911807 -361.028613 
L 351.265153 -360.673664 
L 348.6185 -360.562473 
L 345.971847 -359.783131 
L 343.325193 -359.844349 
L 340.67854 -360.081253 
L 338.031887 -360.041712 
L 335.385233 -359.703556 
L 332.73858 -359.696766 
L 330.091927 -359.498739 
L 327.445273 -359.033305 
L 324.79862 -359.150965 
L 322.151967 -358.862053 
L 319.505313 -358.591605 
L 316.85866 -358.22299 
L 314.212007 -358.079048 
L 311.565353 -358.233528 
L 308.9187 -358.505026 
L 306.272047 -358.318822 
L 303.625393 -357.76516 
L 300.97874 -357.168509 
L 298.332087 -357.213598 
L 295.685433 -357.905225 
L 293.03878 -357.621647 
L 290.392127 -357.556766 
L 287.745473 -357.413724 
L 285.09882 -357.468923 
L 282.452167 -357.516347 
L 279.805513 -357.30022 
L 277.15886 -357.186801 
L 274.512207 -356.894227 
L 271.865553 -356.905665 
L 269.2189 -356.563653 
L 266.572247 -356.398184 
L 263.925593 -356.579118 
L 261.27894 -356.51021 
L 258.632287 -356.100019 
L 255.985633 -356.00907 
L 253.33898 -356.031882 
L 250.692327 -356.02792 
L 248.045673 -355.694433 
L 245.39902 -355.424178 
L 242.752367 -354.87315 
L 240.105713 -354.870944 
L 237.45906 -354.62393 
L 234.812407 -354.809191 
L 232.165753 -354.706097 
L 229.5191 -354.628814 
L 226.872447 -354.371775 
L 224.225793 -353.606934 
L 221.57914 -353.617494 
L 218.932487 -353.358612 
L 216.285833 -353.25796 
L 213.63918 -353.526052 
L 210.992527 -353.459607 
L 208.345873 -353.494972 
L 205.69922 -353.415846 
L 203.052567 -353.255261 
L 200.405913 -352.720984 
L 197.75926 -352.122491 
L 195.112607 -352.711088 
L 192.465953 -352.608358 
L 189.8193 -352.386684 
L 187.172647 -351.390936 
L 184.525993 -351.53053 
L 181.87934 -350.807308 
L 179.232687 -350.656019 
L 176.586033 -350.687849 
L 173.93938 -350.245677 
L 171.292727 -349.982941 
L 168.646073 -349.328969 
L 165.99942 -348.693676 
L 163.352767 -349.158681 
L 160.706113 -348.043217 
L 158.05946 -346.866471 
L 155.412807 -346.389985 
L 152.766153 -345.754499 
L 150.1195 -344.456709 
L 147.472847 -344.32532 
L 144.826193 -343.896407 
L 142.17954 -343.814048 
L 139.532887 -343.32863 
L 136.886233 -343.103378 
L 134.23958 -342.665619 
L 131.592927 -342.159381 
L 128.946273 -341.795949 
L 126.29962 -341.706906 
L 123.652967 -341.461091 
L 121.006313 -341.336085 
L 118.35966 -340.921524 
L 115.713007 -340.455062 
L 113.066353 -339.751868 
L 110.4197 -338.646 
L 107.773047 -338.008908 
L 105.126393 -337.943513 
L 102.47974 -336.969463 
L 99.833087 -335.869636 
L 97.186433 -334.878815 
L 94.53978 -334.413253 
L 91.893127 -333.290636 
L 89.246473 -332.94449 
L 86.59982 -332.497606 
L 83.953167 -330.636001 
L 81.306513 -329.96845 
L 78.65986 -328.704075 
L 76.013207 -327.597051 
L 73.366553 -325.966502 
L 70.7199 -323.586985 
L 68.073247 -321.283659 
L 65.426593 -318.336364 
L 62.77994 -315.624817 
L 60.133287 -313.093625 
L 57.486633 -310.484444 
L 54.83998 -306.769416 
L 52.193327 -306.833612 
z
" style="stroke: #0000ff; stroke-opacity: 0.2"/>
    </defs>
    <g clip-path="url(#pef87911a8b)">
     <use xlink:href="#m6eab7baf9b" x="0" y="432" style="fill: #0000ff; fill-opacity: 0.2; stroke: #0000ff; stroke-opacity: 0.2"/>
    </g>
   </g>
   <g id="matplotlib.axis_1">
    <g id="xtick_1">
     <g id="line2d_1">
      <defs>
       <path id="me00e93592e" d="M 0 0 
L 0 3.5 
" style="stroke: #000000; stroke-width: 0.8"/>
      </defs>
      <g>
       <use xlink:href="#me00e93592e" x="181.87934" y="390.04" style="stroke: #000000; stroke-width: 0.8"/>
      </g>
     </g>
     <g id="text_1">
      <!-- 50 -->
      <g transform="translate(175.51684 404.638438) scale(0.1 -0.1)">
       <defs>
        <path id="DejaVuSans-35" d="M 691 4666 
L 3169 4666 
L 3169 4134 
L 1269 4134 
L 1269 2991 
Q 1406 3038 1543 3061 
Q 1681 3084 1819 3084 
Q 2600 3084 3056 2656 
Q 3513 2228 3513 1497 
Q 3513 744 3044 326 
Q 2575 -91 1722 -91 
Q 1428 -91 1123 -41 
Q 819 9 494 109 
L 494 744 
Q 775 591 1075 516 
Q 1375 441 1709 441 
Q 2250 441 2565 725 
Q 2881 1009 2881 1497 
Q 2881 1984 2565 2268 
Q 2250 2553 1709 2553 
Q 1456 2553 1204 2497 
Q 953 2441 691 2322 
L 691 4666 
z
" transform="scale(0.015625)"/>
        <path id="DejaVuSans-30" d="M 2034 4250 
Q 1547 4250 1301 3770 
Q 1056 3291 1056 2328 
Q 1056 1369 1301 889 
Q 1547 409 2034 409 
Q 2525 409 2770 889 
Q 3016 1369 3016 2328 
Q 3016 3291 2770 3770 
Q 2525 4250 2034 4250 
z
M 2034 4750 
Q 2819 4750 3233 4129 
Q 3647 3509 3647 2328 
Q 3647 1150 3233 529 
Q 2819 -91 2034 -91 
Q 1250 -91 836 529 
Q 422 1150 422 2328 
Q 422 3509 836 4129 
Q 1250 4750 2034 4750 
z
" transform="scale(0.015625)"/>
       </defs>
       <use xlink:href="#DejaVuSans-35"/>
       <use xlink:href="#DejaVuSans-30" transform="translate(63.623047 0)"/>
      </g>
     </g>
    </g>
    <g id="xtick_2">
     <g id="line2d_2">
      <g>
       <use xlink:href="#me00e93592e" x="314.212007" y="390.04" style="stroke: #000000; stroke-width: 0.8"/>
      </g>
     </g>
     <g id="text_2">
      <!-- 100 -->
      <g transform="translate(304.668257 404.638438) scale(0.1 -0.1)">
       <defs>
        <path id="DejaVuSans-31" d="M 794 531 
L 1825 531 
L 1825 4091 
L 703 3866 
L 703 4441 
L 1819 4666 
L 2450 4666 
L 2450 531 
L 3481 531 
L 3481 0 
L 794 0 
L 794 531 
z
" transform="scale(0.015625)"/>
       </defs>
       <use xlink:href="#DejaVuSans-31"/>
       <use xlink:href="#DejaVuSans-30" transform="translate(63.623047 0)"/>
       <use xlink:href="#DejaVuSans-30" transform="translate(127.246094 0)"/>
      </g>
     </g>
    </g>
    <g id="xtick_3">
     <g id="line2d_3">
      <g>
       <use xlink:href="#me00e93592e" x="446.544673" y="390.04" style="stroke: #000000; stroke-width: 0.8"/>
      </g>
     </g>
     <g id="text_3">
      <!-- 150 -->
      <g transform="translate(437.000923 404.638438) scale(0.1 -0.1)">
       <use xlink:href="#DejaVuSans-31"/>
       <use xlink:href="#DejaVuSans-35" transform="translate(63.623047 0)"/>
       <use xlink:href="#DejaVuSans-30" transform="translate(127.246094 0)"/>
      </g>
     </g>
    </g>
    <g id="xtick_4">
     <g id="line2d_4">
      <g>
       <use xlink:href="#me00e93592e" x="578.87734" y="390.04" style="stroke: #000000; stroke-width: 0.8"/>
      </g>
     </g>
     <g id="text_4">
      <!-- 200 -->
      <g transform="translate(569.33359 404.638438) scale(0.1 -0.1)">
       <defs>
        <path id="DejaVuSans-32" d="M 1228 531 
L 3431 531 
L 3431 0 
L 469 0 
L 469 531 
Q 828 903 1448 1529 
Q 2069 2156 2228 2338 
Q 2531 2678 2651 2914 
Q 2772 3150 2772 3378 
Q 2772 3750 2511 3984 
Q 2250 4219 1831 4219 
Q 1534 4219 1204 4116 
Q 875 4013 500 3803 
L 500 4441 
Q 881 4594 1212 4672 
Q 1544 4750 1819 4750 
Q 2544 4750 2975 4387 
Q 3406 4025 3406 3419 
Q 3406 3131 3298 2873 
Q 3191 2616 2906 2266 
Q 2828 2175 2409 1742 
Q 1991 1309 1228 531 
z
" transform="scale(0.015625)"/>
       </defs>
       <use xlink:href="#DejaVuSans-32"/>
       <use xlink:href="#DejaVuSans-30" transform="translate(63.623047 0)"/>
       <use xlink:href="#DejaVuSans-30" transform="translate(127.246094 0)"/>
      </g>
     </g>
    </g>
    <g id="xtick_5">
     <g id="line2d_5">
      <g>
       <use xlink:href="#me00e93592e" x="711.210007" y="390.04" style="stroke: #000000; stroke-width: 0.8"/>
      </g>
     </g>
     <g id="text_5">
      <!-- 250 -->
      <g transform="translate(701.666257 404.638438) scale(0.1 -0.1)">
       <use xlink:href="#DejaVuSans-32"/>
       <use xlink:href="#DejaVuSans-35" transform="translate(63.623047 0)"/>
       <use xlink:href="#DejaVuSans-30" transform="translate(127.246094 0)"/>
      </g>
     </g>
    </g>
    <g id="xtick_6">
     <g id="line2d_6">
      <g>
       <use xlink:href="#me00e93592e" x="843.542673" y="390.04" style="stroke: #000000; stroke-width: 0.8"/>
      </g>
     </g>
     <g id="text_6">
      <!-- 300 -->
      <g transform="translate(833.998923 404.638438) scale(0.1 -0.1)">
       <defs>
        <path id="DejaVuSans-33" d="M 2597 2516 
Q 3050 2419 3304 2112 
Q 3559 1806 3559 1356 
Q 3559 666 3084 287 
Q 2609 -91 1734 -91 
Q 1441 -91 1130 -33 
Q 819 25 488 141 
L 488 750 
Q 750 597 1062 519 
Q 1375 441 1716 441 
Q 2309 441 2620 675 
Q 2931 909 2931 1356 
Q 2931 1769 2642 2001 
Q 2353 2234 1838 2234 
L 1294 2234 
L 1294 2753 
L 1863 2753 
Q 2328 2753 2575 2939 
Q 2822 3125 2822 3475 
Q 2822 3834 2567 4026 
Q 2313 4219 1838 4219 
Q 1578 4219 1281 4162 
Q 984 4106 628 3988 
L 628 4550 
Q 988 4650 1302 4700 
Q 1616 4750 1894 4750 
Q 2613 4750 3031 4423 
Q 3450 4097 3450 3541 
Q 3450 3153 3228 2886 
Q 3006 2619 2597 2516 
z
" transform="scale(0.015625)"/>
       </defs>
       <use xlink:href="#DejaVuSans-33"/>
       <use xlink:href="#DejaVuSans-30" transform="translate(63.623047 0)"/>
       <use xlink:href="#DejaVuSans-30" transform="translate(127.246094 0)"/>
      </g>
     </g>
    </g>
    <g id="text_7">
     <!-- Step -->
     <g transform="translate(436.482844 418.316562) scale(0.1 -0.1)">
      <defs>
       <path id="DejaVuSans-53" d="M 3425 4513 
L 3425 3897 
Q 3066 4069 2747 4153 
Q 2428 4238 2131 4238 
Q 1616 4238 1336 4038 
Q 1056 3838 1056 3469 
Q 1056 3159 1242 3001 
Q 1428 2844 1947 2747 
L 2328 2669 
Q 3034 2534 3370 2195 
Q 3706 1856 3706 1288 
Q 3706 609 3251 259 
Q 2797 -91 1919 -91 
Q 1588 -91 1214 -16 
Q 841 59 441 206 
L 441 856 
Q 825 641 1194 531 
Q 1563 422 1919 422 
Q 2459 422 2753 634 
Q 3047 847 3047 1241 
Q 3047 1584 2836 1778 
Q 2625 1972 2144 2069 
L 1759 2144 
Q 1053 2284 737 2584 
Q 422 2884 422 3419 
Q 422 4038 858 4394 
Q 1294 4750 2059 4750 
Q 2388 4750 2728 4690 
Q 3069 4631 3425 4513 
z
" transform="scale(0.015625)"/>
       <path id="DejaVuSans-74" d="M 1172 4494 
L 1172 3500 
L 2356 3500 
L 2356 3053 
L 1172 3053 
L 1172 1153 
Q 1172 725 1289 603 
Q 1406 481 1766 481 
L 2356 481 
L 2356 0 
L 1766 0 
Q 1100 0 847 248 
Q 594 497 594 1153 
L 594 3053 
L 172 3053 
L 172 3500 
L 594 3500 
L 594 4494 
L 1172 4494 
z
" transform="scale(0.015625)"/>
       <path id="DejaVuSans-65" d="M 3597 1894 
L 3597 1613 
L 953 1613 
Q 991 1019 1311 708 
Q 1631 397 2203 397 
Q 2534 397 2845 478 
Q 3156 559 3463 722 
L 3463 178 
Q 3153 47 2828 -22 
Q 2503 -91 2169 -91 
Q 1331 -91 842 396 
Q 353 884 353 1716 
Q 353 2575 817 3079 
Q 1281 3584 2069 3584 
Q 2775 3584 3186 3129 
Q 3597 2675 3597 1894 
z
M 3022 2063 
Q 3016 2534 2758 2815 
Q 2500 3097 2075 3097 
Q 1594 3097 1305 2825 
Q 1016 2553 972 2059 
L 3022 2063 
z
" transform="scale(0.015625)"/>
       <path id="DejaVuSans-70" d="M 1159 525 
L 1159 -1331 
L 581 -1331 
L 581 3500 
L 1159 3500 
L 1159 2969 
Q 1341 3281 1617 3432 
Q 1894 3584 2278 3584 
Q 2916 3584 3314 3078 
Q 3713 2572 3713 1747 
Q 3713 922 3314 415 
Q 2916 -91 2278 -91 
Q 1894 -91 1617 61 
Q 1341 213 1159 525 
z
M 3116 1747 
Q 3116 2381 2855 2742 
Q 2594 3103 2138 3103 
Q 1681 3103 1420 2742 
Q 1159 2381 1159 1747 
Q 1159 1113 1420 752 
Q 1681 391 2138 391 
Q 2594 391 2855 752 
Q 3116 1113 3116 1747 
z
" transform="scale(0.015625)"/>
      </defs>
      <use xlink:href="#DejaVuSans-53"/>
      <use xlink:href="#DejaVuSans-74" transform="translate(63.476562 0)"/>
      <use xlink:href="#DejaVuSans-65" transform="translate(102.685547 0)"/>
      <use xlink:href="#DejaVuSans-70" transform="translate(164.208984 0)"/>
     </g>
    </g>
   </g>
   <g id="matplotlib.axis_2">
    <g id="ytick_1">
     <g id="line2d_7">
      <defs>
       <path id="m49dc449507" d="M 0 0 
L -3.5 0 
" style="stroke: #000000; stroke-width: 0.8"/>
      </defs>
      <g>
       <use xlink:href="#m49dc449507" x="50.87" y="369.668991" style="stroke: #000000; stroke-width: 0.8"/>
      </g>
     </g>
     <g id="text_8">
      <!-- 20 -->
      <g transform="translate(31.145 373.46821) scale(0.1 -0.1)">
       <use xlink:href="#DejaVuSans-32"/>
       <use xlink:href="#DejaVuSans-30" transform="translate(63.623047 0)"/>
      </g>
     </g>
    </g>
    <g id="ytick_2">
     <g id="line2d_8">
      <g>
       <use xlink:href="#m49dc449507" x="50.87" y="313.517966" style="stroke: #000000; stroke-width: 0.8"/>
      </g>
     </g>
     <g id="text_9">
      <!-- 40 -->
      <g transform="translate(31.145 317.317185) scale(0.1 -0.1)">
       <defs>
        <path id="DejaVuSans-34" d="M 2419 4116 
L 825 1625 
L 2419 1625 
L 2419 4116 
z
M 2253 4666 
L 3047 4666 
L 3047 1625 
L 3713 1625 
L 3713 1100 
L 3047 1100 
L 3047 0 
L 2419 0 
L 2419 1100 
L 313 1100 
L 313 1709 
L 2253 4666 
z
" transform="scale(0.015625)"/>
       </defs>
       <use xlink:href="#DejaVuSans-34"/>
       <use xlink:href="#DejaVuSans-30" transform="translate(63.623047 0)"/>
      </g>
     </g>
    </g>
    <g id="ytick_3">
     <g id="line2d_9">
      <g>
       <use xlink:href="#m49dc449507" x="50.87" y="257.366941" style="stroke: #000000; stroke-width: 0.8"/>
      </g>
     </g>
     <g id="text_10">
      <!-- 60 -->
      <g transform="translate(31.145 261.16616) scale(0.1 -0.1)">
       <defs>
        <path id="DejaVuSans-36" d="M 2113 2584 
Q 1688 2584 1439 2293 
Q 1191 2003 1191 1497 
Q 1191 994 1439 701 
Q 1688 409 2113 409 
Q 2538 409 2786 701 
Q 3034 994 3034 1497 
Q 3034 2003 2786 2293 
Q 2538 2584 2113 2584 
z
M 3366 4563 
L 3366 3988 
Q 3128 4100 2886 4159 
Q 2644 4219 2406 4219 
Q 1781 4219 1451 3797 
Q 1122 3375 1075 2522 
Q 1259 2794 1537 2939 
Q 1816 3084 2150 3084 
Q 2853 3084 3261 2657 
Q 3669 2231 3669 1497 
Q 3669 778 3244 343 
Q 2819 -91 2113 -91 
Q 1303 -91 875 529 
Q 447 1150 447 2328 
Q 447 3434 972 4092 
Q 1497 4750 2381 4750 
Q 2619 4750 2861 4703 
Q 3103 4656 3366 4563 
z
" transform="scale(0.015625)"/>
       </defs>
       <use xlink:href="#DejaVuSans-36"/>
       <use xlink:href="#DejaVuSans-30" transform="translate(63.623047 0)"/>
      </g>
     </g>
    </g>
    <g id="ytick_4">
     <g id="line2d_10">
      <g>
       <use xlink:href="#m49dc449507" x="50.87" y="201.215916" style="stroke: #000000; stroke-width: 0.8"/>
      </g>
     </g>
     <g id="text_11">
      <!-- 80 -->
      <g transform="translate(31.145 205.015134) scale(0.1 -0.1)">
       <defs>
        <path id="DejaVuSans-38" d="M 2034 2216 
Q 1584 2216 1326 1975 
Q 1069 1734 1069 1313 
Q 1069 891 1326 650 
Q 1584 409 2034 409 
Q 2484 409 2743 651 
Q 3003 894 3003 1313 
Q 3003 1734 2745 1975 
Q 2488 2216 2034 2216 
z
M 1403 2484 
Q 997 2584 770 2862 
Q 544 3141 544 3541 
Q 544 4100 942 4425 
Q 1341 4750 2034 4750 
Q 2731 4750 3128 4425 
Q 3525 4100 3525 3541 
Q 3525 3141 3298 2862 
Q 3072 2584 2669 2484 
Q 3125 2378 3379 2068 
Q 3634 1759 3634 1313 
Q 3634 634 3220 271 
Q 2806 -91 2034 -91 
Q 1263 -91 848 271 
Q 434 634 434 1313 
Q 434 1759 690 2068 
Q 947 2378 1403 2484 
z
M 1172 3481 
Q 1172 3119 1398 2916 
Q 1625 2713 2034 2713 
Q 2441 2713 2670 2916 
Q 2900 3119 2900 3481 
Q 2900 3844 2670 4047 
Q 2441 4250 2034 4250 
Q 1625 4250 1398 4047 
Q 1172 3844 1172 3481 
z
" transform="scale(0.015625)"/>
       </defs>
       <use xlink:href="#DejaVuSans-38"/>
       <use xlink:href="#DejaVuSans-30" transform="translate(63.623047 0)"/>
      </g>
     </g>
    </g>
    <g id="ytick_5">
     <g id="line2d_11">
      <g>
       <use xlink:href="#m49dc449507" x="50.87" y="145.06489" style="stroke: #000000; stroke-width: 0.8"/>
      </g>
     </g>
     <g id="text_12">
      <!-- 100 -->
      <g transform="translate(24.7825 148.864109) scale(0.1 -0.1)">
       <use xlink:href="#DejaVuSans-31"/>
       <use xlink:href="#DejaVuSans-30" transform="translate(63.623047 0)"/>
       <use xlink:href="#DejaVuSans-30" transform="translate(127.246094 0)"/>
      </g>
     </g>
    </g>
    <g id="ytick_6">
     <g id="line2d_12">
      <g>
       <use xlink:href="#m49dc449507" x="50.87" y="88.913865" style="stroke: #000000; stroke-width: 0.8"/>
      </g>
     </g>
     <g id="text_13">
      <!-- 120 -->
      <g transform="translate(24.7825 92.713084) scale(0.1 -0.1)">
       <use xlink:href="#DejaVuSans-31"/>
       <use xlink:href="#DejaVuSans-32" transform="translate(63.623047 0)"/>
       <use xlink:href="#DejaVuSans-30" transform="translate(127.246094 0)"/>
      </g>
     </g>
    </g>
    <g id="text_14">
     <!-- Profit -->
     <g transform="translate(18.702813 229.779063) rotate(-90) scale(0.1 -0.1)">
      <defs>
       <path id="DejaVuSans-50" d="M 1259 4147 
L 1259 2394 
L 2053 2394 
Q 2494 2394 2734 2622 
Q 2975 2850 2975 3272 
Q 2975 3691 2734 3919 
Q 2494 4147 2053 4147 
L 1259 4147 
z
M 628 4666 
L 2053 4666 
Q 2838 4666 3239 4311 
Q 3641 3956 3641 3272 
Q 3641 2581 3239 2228 
Q 2838 1875 2053 1875 
L 1259 1875 
L 1259 0 
L 628 0 
L 628 4666 
z
" transform="scale(0.015625)"/>
       <path id="DejaVuSans-72" d="M 2631 2963 
Q 2534 3019 2420 3045 
Q 2306 3072 2169 3072 
Q 1681 3072 1420 2755 
Q 1159 2438 1159 1844 
L 1159 0 
L 581 0 
L 581 3500 
L 1159 3500 
L 1159 2956 
Q 1341 3275 1631 3429 
Q 1922 3584 2338 3584 
Q 2397 3584 2469 3576 
Q 2541 3569 2628 3553 
L 2631 2963 
z
" transform="scale(0.015625)"/>
       <path id="DejaVuSans-6f" d="M 1959 3097 
Q 1497 3097 1228 2736 
Q 959 2375 959 1747 
Q 959 1119 1226 758 
Q 1494 397 1959 397 
Q 2419 397 2687 759 
Q 2956 1122 2956 1747 
Q 2956 2369 2687 2733 
Q 2419 3097 1959 3097 
z
M 1959 3584 
Q 2709 3584 3137 3096 
Q 3566 2609 3566 1747 
Q 3566 888 3137 398 
Q 2709 -91 1959 -91 
Q 1206 -91 779 398 
Q 353 888 353 1747 
Q 353 2609 779 3096 
Q 1206 3584 1959 3584 
z
" transform="scale(0.015625)"/>
       <path id="DejaVuSans-66" d="M 2375 4863 
L 2375 4384 
L 1825 4384 
Q 1516 4384 1395 4259 
Q 1275 4134 1275 3809 
L 1275 3500 
L 2222 3500 
L 2222 3053 
L 1275 3053 
L 1275 0 
L 697 0 
L 697 3053 
L 147 3053 
L 147 3500 
L 697 3500 
L 697 3744 
Q 697 4328 969 4595 
Q 1241 4863 1831 4863 
L 2375 4863 
z
" transform="scale(0.015625)"/>
       <path id="DejaVuSans-69" d="M 603 3500 
L 1178 3500 
L 1178 0 
L 603 0 
L 603 3500 
z
M 603 4863 
L 1178 4863 
L 1178 4134 
L 603 4134 
L 603 4863 
z
" transform="scale(0.015625)"/>
      </defs>
      <use xlink:href="#DejaVuSans-50"/>
      <use xlink:href="#DejaVuSans-72" transform="translate(58.552734 0)"/>
      <use xlink:href="#DejaVuSans-6f" transform="translate(97.416016 0)"/>
      <use xlink:href="#DejaVuSans-66" transform="translate(158.597656 0)"/>
      <use xlink:href="#DejaVuSans-69" transform="translate(193.802734 0)"/>
      <use xlink:href="#DejaVuSans-74" transform="translate(221.585938 0)"/>
     </g>
    </g>
   </g>
   <g id="line2d_13">
    <path d="M 52.193327 249.264344 
L 54.83998 249.758019 
L 62.77994 233.537884 
L 65.426593 229.068083 
L 70.7199 221.445035 
L 73.366553 217.848245 
L 81.306513 209.86033 
L 83.953167 207.244808 
L 91.893127 201.015147 
L 94.53978 199.085427 
L 97.186433 197.83596 
L 99.833087 196.297946 
L 113.066353 189.469041 
L 118.35966 187.654517 
L 121.006313 186.505146 
L 134.23958 181.982287 
L 136.886233 181.279114 
L 142.17954 179.649209 
L 147.472847 178.512154 
L 150.1195 177.496486 
L 152.766153 176.859222 
L 155.412807 176.023824 
L 158.05946 175.447478 
L 163.352767 174.066579 
L 165.99942 173.456882 
L 179.232687 171.008393 
L 181.87934 170.427421 
L 187.172647 169.918783 
L 189.8193 169.330892 
L 192.465953 169.020604 
L 200.405913 167.745733 
L 205.69922 167.077774 
L 216.285833 165.467039 
L 221.57914 165.090263 
L 226.872447 164.354232 
L 229.5191 164.006073 
L 232.165753 163.797443 
L 234.812407 163.376563 
L 242.752367 162.771878 
L 245.39902 162.634684 
L 250.692327 161.954109 
L 255.985633 161.522519 
L 263.925593 160.866148 
L 269.2189 160.445997 
L 274.512207 159.702297 
L 277.15886 159.353431 
L 279.805513 159.379199 
L 300.97874 157.404626 
L 303.625393 157.42264 
L 322.151967 156.38718 
L 324.79862 156.14974 
L 332.73858 155.805179 
L 338.031887 155.359302 
L 348.6185 154.617509 
L 351.265153 154.291627 
L 359.205113 153.839238 
L 372.43838 153.120985 
L 375.085033 153.087849 
L 383.024993 152.622501 
L 388.3183 152.096428 
L 390.964953 152.095228 
L 393.611607 151.893688 
L 396.25826 151.840803 
L 398.904913 151.401223 
L 404.19822 151.212471 
L 406.844873 151.044346 
L 409.491527 151.14819 
L 414.784833 150.910621 
L 425.371447 150.479888 
L 428.0181 150.479181 
L 433.311407 150.151842 
L 438.604713 149.987187 
L 462.424593 149.185183 
L 467.7179 148.874273 
L 499.47774 147.339878 
L 502.124393 147.309355 
L 504.771047 147.08496 
L 515.35766 146.809607 
L 528.590927 146.240801 
L 531.23758 146.016192 
L 539.17754 145.862675 
L 547.1175 145.781172 
L 552.410807 145.547117 
L 560.350767 145.45182 
L 586.8173 144.712233 
L 610.63718 143.833631 
L 613.283833 143.789185 
L 615.930487 143.590215 
L 637.103713 143.012456 
L 639.750367 143.158047 
L 647.690327 142.699639 
L 652.983633 142.654636 
L 660.923593 142.376477 
L 663.570247 142.44757 
L 671.510207 142.235662 
L 674.15686 142.018828 
L 684.743473 141.870367 
L 692.683433 141.514047 
L 697.97674 141.569974 
L 703.270047 141.401699 
L 713.85666 141.339946 
L 721.79662 141.196475 
L 727.089927 140.999969 
L 742.969847 140.768334 
L 748.263153 140.790503 
L 753.55646 140.578103 
L 758.849767 140.517914 
L 769.43638 140.332824 
L 772.083033 140.448449 
L 782.669647 139.892195 
L 785.3163 139.947287 
L 790.609607 139.812556 
L 795.902913 139.848048 
L 809.13618 139.42252 
L 811.782833 139.261336 
L 819.722793 139.084664 
L 822.369447 139.185466 
L 835.602713 139.076375 
L 843.542673 138.894798 
L 843.542673 138.894798 
" clip-path="url(#pef87911a8b)" style="fill: none; stroke: #0000ff; stroke-width: 1.5; stroke-linecap: square"/>
   </g>
   <g id="patch_3">
    <path d="M 50.87 390.04 
L 50.87 43.44 
" style="fill: none; stroke: #000000; stroke-width: 0.8; stroke-linejoin: miter; stroke-linecap: square"/>
   </g>
   <g id="patch_4">
    <path d="M 844.866 390.04 
L 844.866 43.44 
" style="fill: none; stroke: #000000; stroke-width: 0.8; stroke-linejoin: miter; stroke-linecap: square"/>
   </g>
   <g id="patch_5">
    <path d="M 50.87 390.04 
L 844.866 390.04 
" style="fill: none; stroke: #000000; stroke-width: 0.8; stroke-linejoin: miter; stroke-linecap: square"/>
   </g>
   <g id="patch_6">
    <path d="M 50.87 43.44 
L 844.866 43.44 
" style="fill: none; stroke: #000000; stroke-width: 0.8; stroke-linejoin: miter; stroke-linecap: square"/>
   </g>
   <g id="text_15">
    <!-- Mean profit per step with confidence interval per simulation step -->
    <g transform="translate(220.284875 21.763062) scale(0.14 -0.14)">
     <defs>
      <path id="DejaVuSans-4d" d="M 628 4666 
L 1569 4666 
L 2759 1491 
L 3956 4666 
L 4897 4666 
L 4897 0 
L 4281 0 
L 4281 4097 
L 3078 897 
L 2444 897 
L 1241 4097 
L 1241 0 
L 628 0 
L 628 4666 
z
" transform="scale(0.015625)"/>
      <path id="DejaVuSans-61" d="M 2194 1759 
Q 1497 1759 1228 1600 
Q 959 1441 959 1056 
Q 959 750 1161 570 
Q 1363 391 1709 391 
Q 2188 391 2477 730 
Q 2766 1069 2766 1631 
L 2766 1759 
L 2194 1759 
z
M 3341 1997 
L 3341 0 
L 2766 0 
L 2766 531 
Q 2569 213 2275 61 
Q 1981 -91 1556 -91 
Q 1019 -91 701 211 
Q 384 513 384 1019 
Q 384 1609 779 1909 
Q 1175 2209 1959 2209 
L 2766 2209 
L 2766 2266 
Q 2766 2663 2505 2880 
Q 2244 3097 1772 3097 
Q 1472 3097 1187 3025 
Q 903 2953 641 2809 
L 641 3341 
Q 956 3463 1253 3523 
Q 1550 3584 1831 3584 
Q 2591 3584 2966 3190 
Q 3341 2797 3341 1997 
z
" transform="scale(0.015625)"/>
      <path id="DejaVuSans-6e" d="M 3513 2113 
L 3513 0 
L 2938 0 
L 2938 2094 
Q 2938 2591 2744 2837 
Q 2550 3084 2163 3084 
Q 1697 3084 1428 2787 
Q 1159 2491 1159 1978 
L 1159 0 
L 581 0 
L 581 3500 
L 1159 3500 
L 1159 2956 
Q 1366 3272 1645 3428 
Q 1925 3584 2291 3584 
Q 2894 3584 3203 3211 
Q 3513 2838 3513 2113 
z
" transform="scale(0.015625)"/>
      <path id="DejaVuSans-20" transform="scale(0.015625)"/>
      <path id="DejaVuSans-73" d="M 2834 3397 
L 2834 2853 
Q 2591 2978 2328 3040 
Q 2066 3103 1784 3103 
Q 1356 3103 1142 2972 
Q 928 2841 928 2578 
Q 928 2378 1081 2264 
Q 1234 2150 1697 2047 
L 1894 2003 
Q 2506 1872 2764 1633 
Q 3022 1394 3022 966 
Q 3022 478 2636 193 
Q 2250 -91 1575 -91 
Q 1294 -91 989 -36 
Q 684 19 347 128 
L 347 722 
Q 666 556 975 473 
Q 1284 391 1588 391 
Q 1994 391 2212 530 
Q 2431 669 2431 922 
Q 2431 1156 2273 1281 
Q 2116 1406 1581 1522 
L 1381 1569 
Q 847 1681 609 1914 
Q 372 2147 372 2553 
Q 372 3047 722 3315 
Q 1072 3584 1716 3584 
Q 2034 3584 2315 3537 
Q 2597 3491 2834 3397 
z
" transform="scale(0.015625)"/>
      <path id="DejaVuSans-77" d="M 269 3500 
L 844 3500 
L 1563 769 
L 2278 3500 
L 2956 3500 
L 3675 769 
L 4391 3500 
L 4966 3500 
L 4050 0 
L 3372 0 
L 2619 2869 
L 1863 0 
L 1184 0 
L 269 3500 
z
" transform="scale(0.015625)"/>
      <path id="DejaVuSans-68" d="M 3513 2113 
L 3513 0 
L 2938 0 
L 2938 2094 
Q 2938 2591 2744 2837 
Q 2550 3084 2163 3084 
Q 1697 3084 1428 2787 
Q 1159 2491 1159 1978 
L 1159 0 
L 581 0 
L 581 4863 
L 1159 4863 
L 1159 2956 
Q 1366 3272 1645 3428 
Q 1925 3584 2291 3584 
Q 2894 3584 3203 3211 
Q 3513 2838 3513 2113 
z
" transform="scale(0.015625)"/>
      <path id="DejaVuSans-63" d="M 3122 3366 
L 3122 2828 
Q 2878 2963 2633 3030 
Q 2388 3097 2138 3097 
Q 1578 3097 1268 2742 
Q 959 2388 959 1747 
Q 959 1106 1268 751 
Q 1578 397 2138 397 
Q 2388 397 2633 464 
Q 2878 531 3122 666 
L 3122 134 
Q 2881 22 2623 -34 
Q 2366 -91 2075 -91 
Q 1284 -91 818 406 
Q 353 903 353 1747 
Q 353 2603 823 3093 
Q 1294 3584 2113 3584 
Q 2378 3584 2631 3529 
Q 2884 3475 3122 3366 
z
" transform="scale(0.015625)"/>
      <path id="DejaVuSans-64" d="M 2906 2969 
L 2906 4863 
L 3481 4863 
L 3481 0 
L 2906 0 
L 2906 525 
Q 2725 213 2448 61 
Q 2172 -91 1784 -91 
Q 1150 -91 751 415 
Q 353 922 353 1747 
Q 353 2572 751 3078 
Q 1150 3584 1784 3584 
Q 2172 3584 2448 3432 
Q 2725 3281 2906 2969 
z
M 947 1747 
Q 947 1113 1208 752 
Q 1469 391 1925 391 
Q 2381 391 2643 752 
Q 2906 1113 2906 1747 
Q 2906 2381 2643 2742 
Q 2381 3103 1925 3103 
Q 1469 3103 1208 2742 
Q 947 2381 947 1747 
z
" transform="scale(0.015625)"/>
      <path id="DejaVuSans-76" d="M 191 3500 
L 800 3500 
L 1894 563 
L 2988 3500 
L 3597 3500 
L 2284 0 
L 1503 0 
L 191 3500 
z
" transform="scale(0.015625)"/>
      <path id="DejaVuSans-6c" d="M 603 4863 
L 1178 4863 
L 1178 0 
L 603 0 
L 603 4863 
z
" transform="scale(0.015625)"/>
      <path id="DejaVuSans-6d" d="M 3328 2828 
Q 3544 3216 3844 3400 
Q 4144 3584 4550 3584 
Q 5097 3584 5394 3201 
Q 5691 2819 5691 2113 
L 5691 0 
L 5113 0 
L 5113 2094 
Q 5113 2597 4934 2840 
Q 4756 3084 4391 3084 
Q 3944 3084 3684 2787 
Q 3425 2491 3425 1978 
L 3425 0 
L 2847 0 
L 2847 2094 
Q 2847 2600 2669 2842 
Q 2491 3084 2119 3084 
Q 1678 3084 1418 2786 
Q 1159 2488 1159 1978 
L 1159 0 
L 581 0 
L 581 3500 
L 1159 3500 
L 1159 2956 
Q 1356 3278 1631 3431 
Q 1906 3584 2284 3584 
Q 2666 3584 2933 3390 
Q 3200 3197 3328 2828 
z
" transform="scale(0.015625)"/>
      <path id="DejaVuSans-75" d="M 544 1381 
L 544 3500 
L 1119 3500 
L 1119 1403 
Q 1119 906 1312 657 
Q 1506 409 1894 409 
Q 2359 409 2629 706 
Q 2900 1003 2900 1516 
L 2900 3500 
L 3475 3500 
L 3475 0 
L 2900 0 
L 2900 538 
Q 2691 219 2414 64 
Q 2138 -91 1772 -91 
Q 1169 -91 856 284 
Q 544 659 544 1381 
z
M 1991 3584 
L 1991 3584 
z
" transform="scale(0.015625)"/>
     </defs>
     <use xlink:href="#DejaVuSans-4d"/>
     <use xlink:href="#DejaVuSans-65" transform="translate(86.279297 0)"/>
     <use xlink:href="#DejaVuSans-61" transform="translate(147.802734 0)"/>
     <use xlink:href="#DejaVuSans-6e" transform="translate(209.082031 0)"/>
     <use xlink:href="#DejaVuSans-20" transform="translate(272.460938 0)"/>
     <use xlink:href="#DejaVuSans-70" transform="translate(304.248047 0)"/>
     <use xlink:href="#DejaVuSans-72" transform="translate(367.724609 0)"/>
     <use xlink:href="#DejaVuSans-6f" transform="translate(406.587891 0)"/>
     <use xlink:href="#DejaVuSans-66" transform="translate(467.769531 0)"/>
     <use xlink:href="#DejaVuSans-69" transform="translate(502.974609 0)"/>
     <use xlink:href="#DejaVuSans-74" transform="translate(530.757812 0)"/>
     <use xlink:href="#DejaVuSans-20" transform="translate(569.966797 0)"/>
     <use xlink:href="#DejaVuSans-70" transform="translate(601.753906 0)"/>
     <use xlink:href="#DejaVuSans-65" transform="translate(665.230469 0)"/>
     <use xlink:href="#DejaVuSans-72" transform="translate(726.753906 0)"/>
     <use xlink:href="#DejaVuSans-20" transform="translate(767.867188 0)"/>
     <use xlink:href="#DejaVuSans-73" transform="translate(799.654297 0)"/>
     <use xlink:href="#DejaVuSans-74" transform="translate(851.753906 0)"/>
     <use xlink:href="#DejaVuSans-65" transform="translate(890.962891 0)"/>
     <use xlink:href="#DejaVuSans-70" transform="translate(952.486328 0)"/>
     <use xlink:href="#DejaVuSans-20" transform="translate(1015.962891 0)"/>
     <use xlink:href="#DejaVuSans-77" transform="translate(1047.75 0)"/>
     <use xlink:href="#DejaVuSans-69" transform="translate(1129.537109 0)"/>
     <use xlink:href="#DejaVuSans-74" transform="translate(1157.320312 0)"/>
     <use xlink:href="#DejaVuSans-68" transform="translate(1196.529297 0)"/>
     <use xlink:href="#DejaVuSans-20" transform="translate(1259.908203 0)"/>
     <use xlink:href="#DejaVuSans-63" transform="translate(1291.695312 0)"/>
     <use xlink:href="#DejaVuSans-6f" transform="translate(1346.675781 0)"/>
     <use xlink:href="#DejaVuSans-6e" transform="translate(1407.857422 0)"/>
     <use xlink:href="#DejaVuSans-66" transform="translate(1471.236328 0)"/>
     <use xlink:href="#DejaVuSans-69" transform="translate(1506.441406 0)"/>
     <use xlink:href="#DejaVuSans-64" transform="translate(1534.224609 0)"/>
     <use xlink:href="#DejaVuSans-65" transform="translate(1597.701172 0)"/>
     <use xlink:href="#DejaVuSans-6e" transform="translate(1659.224609 0)"/>
     <use xlink:href="#DejaVuSans-63" transform="translate(1722.603516 0)"/>
     <use xlink:href="#DejaVuSans-65" transform="translate(1777.583984 0)"/>
     <use xlink:href="#DejaVuSans-20" transform="translate(1839.107422 0)"/>
     <use xlink:href="#DejaVuSans-69" transform="translate(1870.894531 0)"/>
     <use xlink:href="#DejaVuSans-6e" transform="translate(1898.677734 0)"/>
     <use xlink:href="#DejaVuSans-74" transform="translate(1962.056641 0)"/>
     <use xlink:href="#DejaVuSans-65" transform="translate(2001.265625 0)"/>
     <use xlink:href="#DejaVuSans-72" transform="translate(2062.789062 0)"/>
     <use xlink:href="#DejaVuSans-76" transform="translate(2103.902344 0)"/>
     <use xlink:href="#DejaVuSans-61" transform="translate(2163.082031 0)"/>
     <use xlink:href="#DejaVuSans-6c" transform="translate(2224.361328 0)"/>
     <use xlink:href="#DejaVuSans-20" transform="translate(2252.144531 0)"/>
     <use xlink:href="#DejaVuSans-70" transform="translate(2283.931641 0)"/>
     <use xlink:href="#DejaVuSans-65" transform="translate(2347.408203 0)"/>
     <use xlink:href="#DejaVuSans-72" transform="translate(2408.931641 0)"/>
     <use xlink:href="#DejaVuSans-20" transform="translate(2450.044922 0)"/>
     <use xlink:href="#DejaVuSans-73" transform="translate(2481.832031 0)"/>
     <use xlink:href="#DejaVuSans-69" transform="translate(2533.931641 0)"/>
     <use xlink:href="#DejaVuSans-6d" transform="translate(2561.714844 0)"/>
     <use xlink:href="#DejaVuSans-75" transform="translate(2659.126953 0)"/>
     <use xlink:href="#DejaVuSans-6c" transform="translate(2722.505859 0)"/>
     <use xlink:href="#DejaVuSans-61" transform="translate(2750.289062 0)"/>
     <use xlink:href="#DejaVuSans-74" transform="translate(2811.568359 0)"/>
     <use xlink:href="#DejaVuSans-69" transform="translate(2850.777344 0)"/>
     <use xlink:href="#DejaVuSans-6f" transform="translate(2878.560547 0)"/>
     <use xlink:href="#DejaVuSans-6e" transform="translate(2939.742188 0)"/>
     <use xlink:href="#DejaVuSans-20" transform="translate(3003.121094 0)"/>
     <use xlink:href="#DejaVuSans-73" transform="translate(3034.908203 0)"/>
     <use xlink:href="#DejaVuSans-74" transform="translate(3087.007812 0)"/>
     <use xlink:href="#DejaVuSans-65" transform="translate(3126.216797 0)"/>
     <use xlink:href="#DejaVuSans-70" transform="translate(3187.740234 0)"/>
    </g>
    <!-- Base Product: Green Crack, Recipe size: 9, T0: 20.0 -->
    <g transform="translate(268.031437 37.44) scale(0.14 -0.14)">
     <defs>
      <path id="DejaVuSans-42" d="M 1259 2228 
L 1259 519 
L 2272 519 
Q 2781 519 3026 730 
Q 3272 941 3272 1375 
Q 3272 1813 3026 2020 
Q 2781 2228 2272 2228 
L 1259 2228 
z
M 1259 4147 
L 1259 2741 
L 2194 2741 
Q 2656 2741 2882 2914 
Q 3109 3088 3109 3444 
Q 3109 3797 2882 3972 
Q 2656 4147 2194 4147 
L 1259 4147 
z
M 628 4666 
L 2241 4666 
Q 2963 4666 3353 4366 
Q 3744 4066 3744 3513 
Q 3744 3084 3544 2831 
Q 3344 2578 2956 2516 
Q 3422 2416 3680 2098 
Q 3938 1781 3938 1306 
Q 3938 681 3513 340 
Q 3088 0 2303 0 
L 628 0 
L 628 4666 
z
" transform="scale(0.015625)"/>
      <path id="DejaVuSans-3a" d="M 750 794 
L 1409 794 
L 1409 0 
L 750 0 
L 750 794 
z
M 750 3309 
L 1409 3309 
L 1409 2516 
L 750 2516 
L 750 3309 
z
" transform="scale(0.015625)"/>
      <path id="DejaVuSans-47" d="M 3809 666 
L 3809 1919 
L 2778 1919 
L 2778 2438 
L 4434 2438 
L 4434 434 
Q 4069 175 3628 42 
Q 3188 -91 2688 -91 
Q 1594 -91 976 548 
Q 359 1188 359 2328 
Q 359 3472 976 4111 
Q 1594 4750 2688 4750 
Q 3144 4750 3555 4637 
Q 3966 4525 4313 4306 
L 4313 3634 
Q 3963 3931 3569 4081 
Q 3175 4231 2741 4231 
Q 1884 4231 1454 3753 
Q 1025 3275 1025 2328 
Q 1025 1384 1454 906 
Q 1884 428 2741 428 
Q 3075 428 3337 486 
Q 3600 544 3809 666 
z
" transform="scale(0.015625)"/>
      <path id="DejaVuSans-43" d="M 4122 4306 
L 4122 3641 
Q 3803 3938 3442 4084 
Q 3081 4231 2675 4231 
Q 1875 4231 1450 3742 
Q 1025 3253 1025 2328 
Q 1025 1406 1450 917 
Q 1875 428 2675 428 
Q 3081 428 3442 575 
Q 3803 722 4122 1019 
L 4122 359 
Q 3791 134 3420 21 
Q 3050 -91 2638 -91 
Q 1578 -91 968 557 
Q 359 1206 359 2328 
Q 359 3453 968 4101 
Q 1578 4750 2638 4750 
Q 3056 4750 3426 4639 
Q 3797 4528 4122 4306 
z
" transform="scale(0.015625)"/>
      <path id="DejaVuSans-6b" d="M 581 4863 
L 1159 4863 
L 1159 1991 
L 2875 3500 
L 3609 3500 
L 1753 1863 
L 3688 0 
L 2938 0 
L 1159 1709 
L 1159 0 
L 581 0 
L 581 4863 
z
" transform="scale(0.015625)"/>
      <path id="DejaVuSans-2c" d="M 750 794 
L 1409 794 
L 1409 256 
L 897 -744 
L 494 -744 
L 750 256 
L 750 794 
z
" transform="scale(0.015625)"/>
      <path id="DejaVuSans-52" d="M 2841 2188 
Q 3044 2119 3236 1894 
Q 3428 1669 3622 1275 
L 4263 0 
L 3584 0 
L 2988 1197 
Q 2756 1666 2539 1819 
Q 2322 1972 1947 1972 
L 1259 1972 
L 1259 0 
L 628 0 
L 628 4666 
L 2053 4666 
Q 2853 4666 3247 4331 
Q 3641 3997 3641 3322 
Q 3641 2881 3436 2590 
Q 3231 2300 2841 2188 
z
M 1259 4147 
L 1259 2491 
L 2053 2491 
Q 2509 2491 2742 2702 
Q 2975 2913 2975 3322 
Q 2975 3731 2742 3939 
Q 2509 4147 2053 4147 
L 1259 4147 
z
" transform="scale(0.015625)"/>
      <path id="DejaVuSans-7a" d="M 353 3500 
L 3084 3500 
L 3084 2975 
L 922 459 
L 3084 459 
L 3084 0 
L 275 0 
L 275 525 
L 2438 3041 
L 353 3041 
L 353 3500 
z
" transform="scale(0.015625)"/>
      <path id="DejaVuSans-39" d="M 703 97 
L 703 672 
Q 941 559 1184 500 
Q 1428 441 1663 441 
Q 2288 441 2617 861 
Q 2947 1281 2994 2138 
Q 2813 1869 2534 1725 
Q 2256 1581 1919 1581 
Q 1219 1581 811 2004 
Q 403 2428 403 3163 
Q 403 3881 828 4315 
Q 1253 4750 1959 4750 
Q 2769 4750 3195 4129 
Q 3622 3509 3622 2328 
Q 3622 1225 3098 567 
Q 2575 -91 1691 -91 
Q 1453 -91 1209 -44 
Q 966 3 703 97 
z
M 1959 2075 
Q 2384 2075 2632 2365 
Q 2881 2656 2881 3163 
Q 2881 3666 2632 3958 
Q 2384 4250 1959 4250 
Q 1534 4250 1286 3958 
Q 1038 3666 1038 3163 
Q 1038 2656 1286 2365 
Q 1534 2075 1959 2075 
z
" transform="scale(0.015625)"/>
      <path id="DejaVuSans-54" d="M -19 4666 
L 3928 4666 
L 3928 4134 
L 2272 4134 
L 2272 0 
L 1638 0 
L 1638 4134 
L -19 4134 
L -19 4666 
z
" transform="scale(0.015625)"/>
      <path id="DejaVuSans-2e" d="M 684 794 
L 1344 794 
L 1344 0 
L 684 0 
L 684 794 
z
" transform="scale(0.015625)"/>
     </defs>
     <use xlink:href="#DejaVuSans-42"/>
     <use xlink:href="#DejaVuSans-61" transform="translate(68.603516 0)"/>
     <use xlink:href="#DejaVuSans-73" transform="translate(129.882812 0)"/>
     <use xlink:href="#DejaVuSans-65" transform="translate(181.982422 0)"/>
     <use xlink:href="#DejaVuSans-20" transform="translate(243.505859 0)"/>
     <use xlink:href="#DejaVuSans-50" transform="translate(275.292969 0)"/>
     <use xlink:href="#DejaVuSans-72" transform="translate(333.845703 0)"/>
     <use xlink:href="#DejaVuSans-6f" transform="translate(372.708984 0)"/>
     <use xlink:href="#DejaVuSans-64" transform="translate(433.890625 0)"/>
     <use xlink:href="#DejaVuSans-75" transform="translate(497.367188 0)"/>
     <use xlink:href="#DejaVuSans-63" transform="translate(560.746094 0)"/>
     <use xlink:href="#DejaVuSans-74" transform="translate(615.726562 0)"/>
     <use xlink:href="#DejaVuSans-3a" transform="translate(654.935547 0)"/>
     <use xlink:href="#DejaVuSans-20" transform="translate(688.626953 0)"/>
     <use xlink:href="#DejaVuSans-47" transform="translate(720.414062 0)"/>
     <use xlink:href="#DejaVuSans-72" transform="translate(797.904297 0)"/>
     <use xlink:href="#DejaVuSans-65" transform="translate(836.767578 0)"/>
     <use xlink:href="#DejaVuSans-65" transform="translate(898.291016 0)"/>
     <use xlink:href="#DejaVuSans-6e" transform="translate(959.814453 0)"/>
     <use xlink:href="#DejaVuSans-20" transform="translate(1023.193359 0)"/>
     <use xlink:href="#DejaVuSans-43" transform="translate(1054.980469 0)"/>
     <use xlink:href="#DejaVuSans-72" transform="translate(1124.804688 0)"/>
     <use xlink:href="#DejaVuSans-61" transform="translate(1165.917969 0)"/>
     <use xlink:href="#DejaVuSans-63" transform="translate(1227.197266 0)"/>
     <use xlink:href="#DejaVuSans-6b" transform="translate(1282.177734 0)"/>
     <use xlink:href="#DejaVuSans-2c" transform="translate(1340.087891 0)"/>
     <use xlink:href="#DejaVuSans-20" transform="translate(1371.875 0)"/>
     <use xlink:href="#DejaVuSans-52" transform="translate(1403.662109 0)"/>
     <use xlink:href="#DejaVuSans-65" transform="translate(1468.644531 0)"/>
     <use xlink:href="#DejaVuSans-63" transform="translate(1530.167969 0)"/>
     <use xlink:href="#DejaVuSans-69" transform="translate(1585.148438 0)"/>
     <use xlink:href="#DejaVuSans-70" transform="translate(1612.931641 0)"/>
     <use xlink:href="#DejaVuSans-65" transform="translate(1676.408203 0)"/>
     <use xlink:href="#DejaVuSans-20" transform="translate(1737.931641 0)"/>
     <use xlink:href="#DejaVuSans-73" transform="translate(1769.71875 0)"/>
     <use xlink:href="#DejaVuSans-69" transform="translate(1821.818359 0)"/>
     <use xlink:href="#DejaVuSans-7a" transform="translate(1849.601562 0)"/>
     <use xlink:href="#DejaVuSans-65" transform="translate(1902.091797 0)"/>
     <use xlink:href="#DejaVuSans-3a" transform="translate(1963.615234 0)"/>
     <use xlink:href="#DejaVuSans-20" transform="translate(1997.306641 0)"/>
     <use xlink:href="#DejaVuSans-39" transform="translate(2029.09375 0)"/>
     <use xlink:href="#DejaVuSans-2c" transform="translate(2092.716797 0)"/>
     <use xlink:href="#DejaVuSans-20" transform="translate(2124.503906 0)"/>
     <use xlink:href="#DejaVuSans-54" transform="translate(2156.291016 0)"/>
     <use xlink:href="#DejaVuSans-30" transform="translate(2217.375 0)"/>
     <use xlink:href="#DejaVuSans-3a" transform="translate(2280.998047 0)"/>
     <use xlink:href="#DejaVuSans-20" transform="translate(2314.689453 0)"/>
     <use xlink:href="#DejaVuSans-32" transform="translate(2346.476562 0)"/>
     <use xlink:href="#DejaVuSans-30" transform="translate(2410.099609 0)"/>
     <use xlink:href="#DejaVuSans-2e" transform="translate(2473.722656 0)"/>
     <use xlink:href="#DejaVuSans-30" transform="translate(2505.509766 0)"/>
    </g>
   </g>
  </g>
 </g>
 <defs>
  <clipPath id="pef87911a8b">
   <rect x="50.87" y="43.44" width="793.996" height="346.6"/>
  </clipPath>
 </defs>
</svg>
