<?xml version="1.0" encoding="utf-8" standalone="no"?>
<!DOCTYPE svg PUBLIC "-//W3C//DTD SVG 1.1//EN"
  "http://www.w3.org/Graphics/SVG/1.1/DTD/svg11.dtd">
<svg xmlns:xlink="http://www.w3.org/1999/xlink" width="864pt" height="432pt" viewBox="0 0 864 432" xmlns="http://www.w3.org/2000/svg" version="1.1">
 <metadata>
  <rdf:RDF xmlns:dc="http://purl.org/dc/elements/1.1/" xmlns:cc="http://creativecommons.org/ns#" xmlns:rdf="http://www.w3.org/1999/02/22-rdf-syntax-ns#">
   <cc:Work>
    <dc:type rdf:resource="http://purl.org/dc/dcmitype/StillImage"/>
    <dc:date>2025-05-24T02:10:08.981504</dc:date>
    <dc:format>image/svg+xml</dc:format>
    <dc:creator>
     <cc:Agent>
      <dc:title>Matplotlib v3.10.3, https://matplotlib.org/</dc:title>
     </cc:Agent>
    </dc:creator>
   </cc:Work>
  </rdf:RDF>
 </metadata>
 <defs>
  <style type="text/css">*{stroke-linejoin: round; stroke-linecap: butt}</style>
 </defs>
 <g id="figure_1">
  <g id="patch_1">
   <path d="M 0 432 
L 864 432 
L 864 0 
L 0 0 
z
" style="fill: #ffffff"/>
  </g>
  <g id="axes_1">
   <g id="patch_2">
    <path d="M 50.87 390.04 
L 844.866 390.04 
L 844.866 43.44 
L 50.87 43.44 
z
" style="fill: #ffffff"/>
   </g>
   <g id="FillBetweenPolyCollection_1">
    <defs>
     <path id="mf160cd310b" d="M 52.193327 -311.053428 
L 52.193327 -57.714545 
L 54.83998 -58.379488 
L 57.486633 -66.408524 
L 60.133287 -74.039224 
L 62.77994 -80.419678 
L 65.426593 -88.132841 
L 68.073247 -93.634492 
L 70.7199 -100.759585 
L 73.366553 -106.168109 
L 76.013207 -110.231119 
L 78.65986 -114.326797 
L 81.306513 -118.470956 
L 83.953167 -122.228217 
L 86.59982 -125.771672 
L 89.246473 -128.580117 
L 91.893127 -131.096925 
L 94.53978 -133.77001 
L 97.186433 -137.297232 
L 99.833087 -139.899218 
L 102.47974 -141.81741 
L 105.126393 -143.369127 
L 107.773047 -145.43888 
L 110.4197 -147.167189 
L 113.066353 -148.354035 
L 115.713007 -149.841028 
L 118.35966 -150.396731 
L 121.006313 -152.685137 
L 123.652967 -154.030038 
L 126.29962 -156.172518 
L 128.946273 -157.994729 
L 131.592927 -159.19645 
L 134.23958 -160.273797 
L 136.886233 -161.104862 
L 139.532887 -163.269121 
L 142.17954 -163.756836 
L 144.826193 -164.394464 
L 147.472847 -165.41313 
L 150.1195 -167.167473 
L 152.766153 -167.605264 
L 155.412807 -169.233973 
L 158.05946 -170.059373 
L 160.706113 -171.266662 
L 163.352767 -171.897299 
L 165.99942 -172.254609 
L 168.646073 -172.553765 
L 171.292727 -173.479218 
L 173.93938 -174.165596 
L 176.586033 -174.503765 
L 179.232687 -174.308571 
L 181.87934 -175.408796 
L 184.525993 -176.795037 
L 187.172647 -177.955418 
L 189.8193 -178.792817 
L 192.465953 -179.528106 
L 195.112607 -180.380929 
L 197.75926 -181.379906 
L 200.405913 -182.3336 
L 203.052567 -182.444758 
L 205.69922 -183.556142 
L 208.345873 -183.445673 
L 210.992527 -183.705537 
L 213.63918 -183.329992 
L 216.285833 -183.203151 
L 218.932487 -184.495403 
L 221.57914 -185.010369 
L 224.225793 -185.186649 
L 226.872447 -185.112113 
L 229.5191 -185.263576 
L 232.165753 -185.799051 
L 234.812407 -186.439307 
L 237.45906 -187.170837 
L 240.105713 -187.06724 
L 242.752367 -187.753898 
L 245.39902 -187.996937 
L 248.045673 -189.046494 
L 250.692327 -189.072668 
L 253.33898 -189.714453 
L 255.985633 -190.033644 
L 258.632287 -189.918135 
L 261.27894 -190.680255 
L 263.925593 -190.4127 
L 266.572247 -190.504599 
L 269.2189 -191.364478 
L 271.865553 -192.085194 
L 274.512207 -192.669332 
L 277.15886 -192.474935 
L 279.805513 -192.832493 
L 282.452167 -192.717823 
L 285.09882 -193.311957 
L 287.745473 -193.169886 
L 290.392127 -193.201252 
L 293.03878 -193.348277 
L 295.685433 -193.463851 
L 298.332087 -193.751397 
L 300.97874 -193.619214 
L 303.625393 -193.671906 
L 306.272047 -194.207057 
L 308.9187 -194.894835 
L 311.565353 -196.040363 
L 314.212007 -195.966818 
L 316.85866 -196.502271 
L 319.505313 -196.551753 
L 322.151967 -196.37655 
L 324.79862 -196.790721 
L 327.445273 -197.195262 
L 330.091927 -197.308703 
L 332.73858 -196.80147 
L 335.385233 -196.840246 
L 338.031887 -197.171608 
L 340.67854 -198.25727 
L 343.325193 -198.286223 
L 345.971847 -198.457139 
L 348.6185 -198.329006 
L 351.265153 -199.09035 
L 353.911807 -199.411351 
L 356.55846 -199.651202 
L 359.205113 -199.629487 
L 361.851767 -199.750102 
L 364.49842 -199.798292 
L 367.145073 -200.248653 
L 369.791727 -200.396411 
L 372.43838 -201.013681 
L 375.085033 -201.395732 
L 377.731687 -201.693316 
L 380.37834 -201.884632 
L 383.024993 -201.62102 
L 385.671647 -201.564407 
L 388.3183 -201.866084 
L 390.964953 -201.685991 
L 393.611607 -202.191996 
L 396.25826 -202.415173 
L 398.904913 -202.547076 
L 401.551567 -202.822213 
L 404.19822 -203.295991 
L 406.844873 -203.26469 
L 409.491527 -202.689901 
L 412.13818 -203.425955 
L 414.784833 -203.964273 
L 417.431487 -204.477386 
L 420.07814 -204.539665 
L 422.724793 -204.294515 
L 425.371447 -204.280878 
L 428.0181 -204.470148 
L 430.664753 -204.457051 
L 433.311407 -204.306212 
L 435.95806 -204.249233 
L 438.604713 -204.467455 
L 441.251367 -205.276645 
L 443.89802 -205.780646 
L 446.544673 -205.919637 
L 449.191327 -205.900162 
L 451.83798 -206.011945 
L 454.484633 -205.752728 
L 457.131287 -206.1672 
L 459.77794 -206.303497 
L 462.424593 -205.691634 
L 465.071247 -205.943742 
L 467.7179 -205.494394 
L 470.364553 -205.802921 
L 473.011207 -205.954535 
L 475.65786 -206.592163 
L 478.304513 -206.648582 
L 480.951167 -206.834405 
L 483.59782 -207.043019 
L 486.244473 -206.998018 
L 488.891127 -206.946209 
L 491.53778 -206.977014 
L 494.184433 -206.989207 
L 496.831087 -206.86228 
L 499.47774 -207.637196 
L 502.124393 -207.588252 
L 504.771047 -208.241799 
L 507.4177 -208.204984 
L 510.064353 -207.797384 
L 512.711007 -208.200654 
L 515.35766 -208.319394 
L 518.004313 -208.290442 
L 520.650967 -208.752651 
L 523.29762 -208.611033 
L 525.944273 -208.563726 
L 528.590927 -208.402095 
L 531.23758 -208.249382 
L 533.884233 -208.214786 
L 536.530887 -208.906592 
L 539.17754 -209.444716 
L 541.824193 -208.524347 
L 544.470847 -208.618055 
L 547.1175 -208.445933 
L 549.764153 -208.61099 
L 552.410807 -209.306544 
L 555.05746 -208.875657 
L 557.704113 -208.998361 
L 560.350767 -209.356996 
L 562.99742 -209.870023 
L 565.644073 -209.628428 
L 568.290727 -210.141046 
L 570.93738 -210.121313 
L 573.584033 -210.001237 
L 576.230687 -210.676456 
L 578.87734 -211.017124 
L 581.523993 -210.687765 
L 584.170647 -211.263868 
L 586.8173 -211.376383 
L 589.463953 -211.652964 
L 592.110607 -211.943611 
L 594.75726 -212.237382 
L 597.403913 -212.500821 
L 600.050567 -212.533307 
L 602.69722 -212.584405 
L 605.343873 -212.721155 
L 607.990527 -212.538434 
L 610.63718 -212.596103 
L 613.283833 -212.473463 
L 615.930487 -212.734856 
L 618.57714 -212.680914 
L 621.223793 -213.437347 
L 623.870447 -213.539371 
L 626.5171 -213.101073 
L 629.163753 -213.197173 
L 631.810407 -213.159409 
L 634.45706 -212.799181 
L 637.103713 -212.721564 
L 639.750367 -212.889356 
L 642.39702 -212.70013 
L 645.043673 -213.127742 
L 647.690327 -213.994557 
L 650.33698 -214.186197 
L 652.983633 -213.915541 
L 655.630287 -214.605925 
L 658.27694 -214.417302 
L 660.923593 -214.49033 
L 663.570247 -214.637097 
L 666.2169 -214.59985 
L 668.863553 -214.69498 
L 671.510207 -215.376985 
L 674.15686 -215.223109 
L 676.803513 -215.036597 
L 679.450167 -215.169986 
L 682.09682 -215.684952 
L 684.743473 -215.744129 
L 687.390127 -215.809531 
L 690.03678 -215.760005 
L 692.683433 -216.081178 
L 695.330087 -216.358857 
L 697.97674 -216.707388 
L 700.623393 -216.821282 
L 703.270047 -216.945257 
L 705.9167 -217.031749 
L 708.563353 -216.798124 
L 711.210007 -216.546619 
L 713.85666 -217.13108 
L 716.503313 -217.256994 
L 719.149967 -216.96081 
L 721.79662 -217.188275 
L 724.443273 -217.290148 
L 727.089927 -217.325671 
L 729.73658 -217.262337 
L 732.383233 -216.938277 
L 735.029887 -217.157211 
L 737.67654 -216.908463 
L 740.323193 -217.037393 
L 742.969847 -216.994158 
L 745.6165 -217.336743 
L 748.263153 -217.655374 
L 750.909807 -217.250661 
L 753.55646 -217.392925 
L 756.203113 -217.878357 
L 758.849767 -217.212833 
L 761.49642 -217.199864 
L 764.143073 -217.17201 
L 766.789727 -217.016346 
L 769.43638 -217.1118 
L 772.083033 -217.284245 
L 774.729687 -217.818535 
L 777.37634 -218.158126 
L 780.022993 -217.995805 
L 782.669647 -217.454148 
L 785.3163 -217.491072 
L 787.962953 -217.293185 
L 790.609607 -216.988837 
L 793.25626 -216.807107 
L 795.902913 -216.760382 
L 798.549567 -217.014084 
L 801.19622 -217.920085 
L 803.842873 -218.188242 
L 806.489527 -218.590758 
L 809.13618 -218.276199 
L 811.782833 -218.288435 
L 814.429487 -218.102224 
L 817.07614 -218.147441 
L 819.722793 -218.403061 
L 822.369447 -217.909249 
L 825.0161 -218.167497 
L 827.662753 -218.655901 
L 830.309407 -218.641662 
L 832.95606 -218.543236 
L 835.602713 -218.728671 
L 838.249367 -218.515532 
L 840.89602 -219.040516 
L 843.542673 -219.267678 
L 843.542673 -372.122136 
L 843.542673 -372.122136 
L 840.89602 -372.107272 
L 838.249367 -372.429026 
L 835.602713 -372.213561 
L 832.95606 -372.326701 
L 830.309407 -372.1099 
L 827.662753 -371.992452 
L 825.0161 -372.251131 
L 822.369447 -372.276723 
L 819.722793 -371.981724 
L 817.07614 -372.220842 
L 814.429487 -372.34639 
L 811.782833 -372.111236 
L 809.13618 -372.015933 
L 806.489527 -371.635024 
L 803.842873 -371.937002 
L 801.19622 -372.051995 
L 798.549567 -372.805455 
L 795.902913 -372.760044 
L 793.25626 -372.570041 
L 790.609607 -372.472154 
L 787.962953 -372.278575 
L 785.3163 -371.972245 
L 782.669647 -371.827783 
L 780.022993 -371.406332 
L 777.37634 -371.11534 
L 774.729687 -371.369796 
L 772.083033 -371.645364 
L 769.43638 -371.707104 
L 766.789727 -371.724122 
L 764.143073 -371.465099 
L 761.49642 -371.37264 
L 758.849767 -371.349547 
L 756.203113 -370.841711 
L 753.55646 -371.162905 
L 750.909807 -371.286859 
L 748.263153 -370.808794 
L 745.6165 -371.169023 
L 742.969847 -371.3813 
L 740.323193 -371.372295 
L 737.67654 -371.363506 
L 735.029887 -370.940676 
L 732.383233 -370.823572 
L 729.73658 -370.629391 
L 727.089927 -370.424008 
L 724.443273 -370.334995 
L 721.79662 -370.472305 
L 719.149967 -370.38786 
L 716.503313 -370.175066 
L 713.85666 -370.134567 
L 711.210007 -370.267784 
L 708.563353 -369.969123 
L 705.9167 -369.731254 
L 703.270047 -369.695623 
L 700.623393 -369.750081 
L 697.97674 -369.683818 
L 695.330087 -369.911346 
L 692.683433 -370.107897 
L 690.03678 -370.081357 
L 687.390127 -369.917292 
L 684.743473 -369.823282 
L 682.09682 -369.77339 
L 679.450167 -370.124959 
L 676.803513 -370.139435 
L 674.15686 -369.870502 
L 671.510207 -369.606912 
L 668.863553 -369.983211 
L 666.2169 -369.94534 
L 663.570247 -369.863997 
L 660.923593 -369.762662 
L 658.27694 -369.678604 
L 655.630287 -369.532419 
L 652.983633 -369.970846 
L 650.33698 -369.57266 
L 647.690327 -369.422425 
L 645.043673 -369.811908 
L 642.39702 -370.099496 
L 639.750367 -369.840085 
L 637.103713 -369.84211 
L 634.45706 -369.584551 
L 631.810407 -369.270811 
L 629.163753 -369.012046 
L 626.5171 -368.987445 
L 623.870447 -368.500634 
L 621.223793 -368.46272 
L 618.57714 -369.013252 
L 615.930487 -368.789601 
L 613.283833 -368.69279 
L 610.63718 -368.58327 
L 607.990527 -368.348546 
L 605.343873 -368.131875 
L 602.69722 -367.986292 
L 600.050567 -367.919899 
L 597.403913 -367.821322 
L 594.75726 -367.710725 
L 592.110607 -367.853894 
L 589.463953 -367.830973 
L 586.8173 -367.804132 
L 584.170647 -367.714301 
L 581.523993 -367.880046 
L 578.87734 -367.590821 
L 576.230687 -367.784528 
L 573.584033 -368.078364 
L 570.93738 -367.865311 
L 568.290727 -367.648812 
L 565.644073 -368.017572 
L 562.99742 -367.81361 
L 560.350767 -367.971385 
L 557.704113 -368.119035 
L 555.05746 -368.176036 
L 552.410807 -367.79336 
L 549.764153 -368.016365 
L 547.1175 -368.069962 
L 544.470847 -367.937047 
L 541.824193 -367.769362 
L 539.17754 -367.091257 
L 536.530887 -367.236365 
L 533.884233 -367.671345 
L 531.23758 -367.2916 
L 528.590927 -366.953129 
L 525.944273 -366.844384 
L 523.29762 -366.39204 
L 520.650967 -366.308241 
L 518.004313 -366.598501 
L 515.35766 -366.560888 
L 512.711007 -366.520475 
L 510.064353 -366.511686 
L 507.4177 -366.180884 
L 504.771047 -366.099411 
L 502.124393 -366.447318 
L 499.47774 -366.270327 
L 496.831087 -366.761489 
L 494.184433 -366.337065 
L 491.53778 -366.320908 
L 488.891127 -366.241374 
L 486.244473 -365.940387 
L 483.59782 -365.872529 
L 480.951167 -366.001954 
L 478.304513 -366.071536 
L 475.65786 -365.892908 
L 473.011207 -366.054259 
L 470.364553 -365.95762 
L 467.7179 -366.131897 
L 465.071247 -365.681794 
L 462.424593 -365.664474 
L 459.77794 -364.989816 
L 457.131287 -365.21002 
L 454.484633 -365.299722 
L 451.83798 -364.924887 
L 449.191327 -364.852678 
L 446.544673 -364.47151 
L 443.89802 -364.420714 
L 441.251367 -364.571294 
L 438.604713 -364.886844 
L 435.95806 -364.861381 
L 433.311407 -364.633378 
L 430.664753 -364.254925 
L 428.0181 -364.208092 
L 425.371447 -364.138899 
L 422.724793 -363.855102 
L 420.07814 -363.505687 
L 417.431487 -363.385827 
L 414.784833 -363.768933 
L 412.13818 -363.902926 
L 409.491527 -364.065957 
L 406.844873 -363.432142 
L 404.19822 -363.073896 
L 401.551567 -363.158255 
L 398.904913 -363.084236 
L 396.25826 -363.019739 
L 393.611607 -363.05817 
L 390.964953 -363.321114 
L 388.3183 -362.998282 
L 385.671647 -362.886177 
L 383.024993 -362.757225 
L 380.37834 -362.341116 
L 377.731687 -362.174423 
L 375.085033 -361.86387 
L 372.43838 -361.846378 
L 369.791727 -362.069771 
L 367.145073 -361.92854 
L 364.49842 -362.183557 
L 361.851767 -361.845904 
L 359.205113 -361.794763 
L 356.55846 -361.532896 
L 353.911807 -361.453061 
L 351.265153 -361.568699 
L 348.6185 -361.685372 
L 345.971847 -361.48253 
L 343.325193 -361.563141 
L 340.67854 -361.382144 
L 338.031887 -361.869557 
L 335.385233 -361.60782 
L 332.73858 -361.205842 
L 330.091927 -360.857117 
L 327.445273 -360.785856 
L 324.79862 -360.820086 
L 322.151967 -360.674719 
L 319.505313 -360.153678 
L 316.85866 -359.904801 
L 314.212007 -359.863397 
L 311.565353 -359.631172 
L 308.9187 -360.107212 
L 306.272047 -360.158418 
L 303.625393 -360.375951 
L 300.97874 -360.32929 
L 298.332087 -360.178236 
L 295.685433 -359.94278 
L 293.03878 -359.773954 
L 290.392127 -359.535331 
L 287.745473 -359.329948 
L 285.09882 -359.068964 
L 282.452167 -359.180897 
L 279.805513 -358.655246 
L 277.15886 -358.713453 
L 274.512207 -358.508544 
L 271.865553 -358.393077 
L 269.2189 -358.638702 
L 266.572247 -359.129002 
L 263.925593 -358.745206 
L 261.27894 -358.177612 
L 258.632287 -358.614531 
L 255.985633 -358.144954 
L 253.33898 -357.827401 
L 250.692327 -357.710685 
L 248.045673 -357.511011 
L 245.39902 -357.793407 
L 242.752367 -357.770443 
L 240.105713 -357.850688 
L 237.45906 -357.090184 
L 234.812407 -357.049684 
L 232.165753 -356.842685 
L 229.5191 -356.596652 
L 226.872447 -356.142822 
L 224.225793 -355.495738 
L 221.57914 -354.998135 
L 218.932487 -355.116121 
L 216.285833 -355.58447 
L 213.63918 -355.136522 
L 210.992527 -354.349822 
L 208.345873 -353.995819 
L 205.69922 -353.754633 
L 203.052567 -353.890069 
L 200.405913 -353.216875 
L 197.75926 -353.316163 
L 195.112607 -353.44673 
L 192.465953 -353.44854 
L 189.8193 -353.63809 
L 187.172647 -353.55582 
L 184.525993 -353.664888 
L 181.87934 -354.119342 
L 179.232687 -354.261542 
L 176.586033 -353.539211 
L 173.93938 -353.087083 
L 171.292727 -352.515138 
L 168.646073 -352.503936 
L 165.99942 -352.036276 
L 163.352767 -351.202249 
L 160.706113 -350.81632 
L 158.05946 -350.760332 
L 155.412807 -350.693939 
L 152.766153 -350.85333 
L 150.1195 -350.095238 
L 147.472847 -350.251656 
L 144.826193 -349.96103 
L 142.17954 -349.588285 
L 139.532887 -348.578387 
L 136.886233 -348.658438 
L 134.23958 -348.13576 
L 131.592927 -347.463514 
L 128.946273 -347.032734 
L 126.29962 -346.770997 
L 123.652967 -346.380458 
L 121.006313 -346.107928 
L 118.35966 -345.631264 
L 115.713007 -344.656953 
L 113.066353 -343.981885 
L 110.4197 -343.217611 
L 107.773047 -342.520742 
L 105.126393 -342.294356 
L 102.47974 -341.285297 
L 99.833087 -340.450796 
L 97.186433 -339.885916 
L 94.53978 -340.054182 
L 91.893127 -339.30111 
L 89.246473 -338.255129 
L 86.59982 -336.511589 
L 83.953167 -335.878916 
L 81.306513 -334.435848 
L 78.65986 -333.988287 
L 76.013207 -332.131629 
L 73.366553 -330.025363 
L 70.7199 -327.449691 
L 68.073247 -326.393822 
L 65.426593 -324.339084 
L 62.77994 -321.470546 
L 60.133287 -317.468178 
L 57.486633 -313.474018 
L 54.83998 -311.001447 
L 52.193327 -311.053428 
z
" style="stroke: #0000ff; stroke-opacity: 0.2"/>
    </defs>
    <g clip-path="url(#pdca967c153)">
     <use xlink:href="#mf160cd310b" x="0" y="432" style="fill: #0000ff; fill-opacity: 0.2; stroke: #0000ff; stroke-opacity: 0.2"/>
    </g>
   </g>
   <g id="matplotlib.axis_1">
    <g id="xtick_1">
     <g id="line2d_1">
      <defs>
       <path id="m06939c6dbc" d="M 0 0 
L 0 3.5 
" style="stroke: #000000; stroke-width: 0.8"/>
      </defs>
      <g>
       <use xlink:href="#m06939c6dbc" x="181.87934" y="390.04" style="stroke: #000000; stroke-width: 0.8"/>
      </g>
     </g>
     <g id="text_1">
      <!-- 50 -->
      <g transform="translate(175.51684 404.638438) scale(0.1 -0.1)">
       <defs>
        <path id="DejaVuSans-35" d="M 691 4666 
L 3169 4666 
L 3169 4134 
L 1269 4134 
L 1269 2991 
Q 1406 3038 1543 3061 
Q 1681 3084 1819 3084 
Q 2600 3084 3056 2656 
Q 3513 2228 3513 1497 
Q 3513 744 3044 326 
Q 2575 -91 1722 -91 
Q 1428 -91 1123 -41 
Q 819 9 494 109 
L 494 744 
Q 775 591 1075 516 
Q 1375 441 1709 441 
Q 2250 441 2565 725 
Q 2881 1009 2881 1497 
Q 2881 1984 2565 2268 
Q 2250 2553 1709 2553 
Q 1456 2553 1204 2497 
Q 953 2441 691 2322 
L 691 4666 
z
" transform="scale(0.015625)"/>
        <path id="DejaVuSans-30" d="M 2034 4250 
Q 1547 4250 1301 3770 
Q 1056 3291 1056 2328 
Q 1056 1369 1301 889 
Q 1547 409 2034 409 
Q 2525 409 2770 889 
Q 3016 1369 3016 2328 
Q 3016 3291 2770 3770 
Q 2525 4250 2034 4250 
z
M 2034 4750 
Q 2819 4750 3233 4129 
Q 3647 3509 3647 2328 
Q 3647 1150 3233 529 
Q 2819 -91 2034 -91 
Q 1250 -91 836 529 
Q 422 1150 422 2328 
Q 422 3509 836 4129 
Q 1250 4750 2034 4750 
z
" transform="scale(0.015625)"/>
       </defs>
       <use xlink:href="#DejaVuSans-35"/>
       <use xlink:href="#DejaVuSans-30" transform="translate(63.623047 0)"/>
      </g>
     </g>
    </g>
    <g id="xtick_2">
     <g id="line2d_2">
      <g>
       <use xlink:href="#m06939c6dbc" x="314.212007" y="390.04" style="stroke: #000000; stroke-width: 0.8"/>
      </g>
     </g>
     <g id="text_2">
      <!-- 100 -->
      <g transform="translate(304.668257 404.638438) scale(0.1 -0.1)">
       <defs>
        <path id="DejaVuSans-31" d="M 794 531 
L 1825 531 
L 1825 4091 
L 703 3866 
L 703 4441 
L 1819 4666 
L 2450 4666 
L 2450 531 
L 3481 531 
L 3481 0 
L 794 0 
L 794 531 
z
" transform="scale(0.015625)"/>
       </defs>
       <use xlink:href="#DejaVuSans-31"/>
       <use xlink:href="#DejaVuSans-30" transform="translate(63.623047 0)"/>
       <use xlink:href="#DejaVuSans-30" transform="translate(127.246094 0)"/>
      </g>
     </g>
    </g>
    <g id="xtick_3">
     <g id="line2d_3">
      <g>
       <use xlink:href="#m06939c6dbc" x="446.544673" y="390.04" style="stroke: #000000; stroke-width: 0.8"/>
      </g>
     </g>
     <g id="text_3">
      <!-- 150 -->
      <g transform="translate(437.000923 404.638438) scale(0.1 -0.1)">
       <use xlink:href="#DejaVuSans-31"/>
       <use xlink:href="#DejaVuSans-35" transform="translate(63.623047 0)"/>
       <use xlink:href="#DejaVuSans-30" transform="translate(127.246094 0)"/>
      </g>
     </g>
    </g>
    <g id="xtick_4">
     <g id="line2d_4">
      <g>
       <use xlink:href="#m06939c6dbc" x="578.87734" y="390.04" style="stroke: #000000; stroke-width: 0.8"/>
      </g>
     </g>
     <g id="text_4">
      <!-- 200 -->
      <g transform="translate(569.33359 404.638438) scale(0.1 -0.1)">
       <defs>
        <path id="DejaVuSans-32" d="M 1228 531 
L 3431 531 
L 3431 0 
L 469 0 
L 469 531 
Q 828 903 1448 1529 
Q 2069 2156 2228 2338 
Q 2531 2678 2651 2914 
Q 2772 3150 2772 3378 
Q 2772 3750 2511 3984 
Q 2250 4219 1831 4219 
Q 1534 4219 1204 4116 
Q 875 4013 500 3803 
L 500 4441 
Q 881 4594 1212 4672 
Q 1544 4750 1819 4750 
Q 2544 4750 2975 4387 
Q 3406 4025 3406 3419 
Q 3406 3131 3298 2873 
Q 3191 2616 2906 2266 
Q 2828 2175 2409 1742 
Q 1991 1309 1228 531 
z
" transform="scale(0.015625)"/>
       </defs>
       <use xlink:href="#DejaVuSans-32"/>
       <use xlink:href="#DejaVuSans-30" transform="translate(63.623047 0)"/>
       <use xlink:href="#DejaVuSans-30" transform="translate(127.246094 0)"/>
      </g>
     </g>
    </g>
    <g id="xtick_5">
     <g id="line2d_5">
      <g>
       <use xlink:href="#m06939c6dbc" x="711.210007" y="390.04" style="stroke: #000000; stroke-width: 0.8"/>
      </g>
     </g>
     <g id="text_5">
      <!-- 250 -->
      <g transform="translate(701.666257 404.638438) scale(0.1 -0.1)">
       <use xlink:href="#DejaVuSans-32"/>
       <use xlink:href="#DejaVuSans-35" transform="translate(63.623047 0)"/>
       <use xlink:href="#DejaVuSans-30" transform="translate(127.246094 0)"/>
      </g>
     </g>
    </g>
    <g id="xtick_6">
     <g id="line2d_6">
      <g>
       <use xlink:href="#m06939c6dbc" x="843.542673" y="390.04" style="stroke: #000000; stroke-width: 0.8"/>
      </g>
     </g>
     <g id="text_6">
      <!-- 300 -->
      <g transform="translate(833.998923 404.638438) scale(0.1 -0.1)">
       <defs>
        <path id="DejaVuSans-33" d="M 2597 2516 
Q 3050 2419 3304 2112 
Q 3559 1806 3559 1356 
Q 3559 666 3084 287 
Q 2609 -91 1734 -91 
Q 1441 -91 1130 -33 
Q 819 25 488 141 
L 488 750 
Q 750 597 1062 519 
Q 1375 441 1716 441 
Q 2309 441 2620 675 
Q 2931 909 2931 1356 
Q 2931 1769 2642 2001 
Q 2353 2234 1838 2234 
L 1294 2234 
L 1294 2753 
L 1863 2753 
Q 2328 2753 2575 2939 
Q 2822 3125 2822 3475 
Q 2822 3834 2567 4026 
Q 2313 4219 1838 4219 
Q 1578 4219 1281 4162 
Q 984 4106 628 3988 
L 628 4550 
Q 988 4650 1302 4700 
Q 1616 4750 1894 4750 
Q 2613 4750 3031 4423 
Q 3450 4097 3450 3541 
Q 3450 3153 3228 2886 
Q 3006 2619 2597 2516 
z
" transform="scale(0.015625)"/>
       </defs>
       <use xlink:href="#DejaVuSans-33"/>
       <use xlink:href="#DejaVuSans-30" transform="translate(63.623047 0)"/>
       <use xlink:href="#DejaVuSans-30" transform="translate(127.246094 0)"/>
      </g>
     </g>
    </g>
    <g id="text_7">
     <!-- Step -->
     <g transform="translate(436.482844 418.316562) scale(0.1 -0.1)">
      <defs>
       <path id="DejaVuSans-53" d="M 3425 4513 
L 3425 3897 
Q 3066 4069 2747 4153 
Q 2428 4238 2131 4238 
Q 1616 4238 1336 4038 
Q 1056 3838 1056 3469 
Q 1056 3159 1242 3001 
Q 1428 2844 1947 2747 
L 2328 2669 
Q 3034 2534 3370 2195 
Q 3706 1856 3706 1288 
Q 3706 609 3251 259 
Q 2797 -91 1919 -91 
Q 1588 -91 1214 -16 
Q 841 59 441 206 
L 441 856 
Q 825 641 1194 531 
Q 1563 422 1919 422 
Q 2459 422 2753 634 
Q 3047 847 3047 1241 
Q 3047 1584 2836 1778 
Q 2625 1972 2144 2069 
L 1759 2144 
Q 1053 2284 737 2584 
Q 422 2884 422 3419 
Q 422 4038 858 4394 
Q 1294 4750 2059 4750 
Q 2388 4750 2728 4690 
Q 3069 4631 3425 4513 
z
" transform="scale(0.015625)"/>
       <path id="DejaVuSans-74" d="M 1172 4494 
L 1172 3500 
L 2356 3500 
L 2356 3053 
L 1172 3053 
L 1172 1153 
Q 1172 725 1289 603 
Q 1406 481 1766 481 
L 2356 481 
L 2356 0 
L 1766 0 
Q 1100 0 847 248 
Q 594 497 594 1153 
L 594 3053 
L 172 3053 
L 172 3500 
L 594 3500 
L 594 4494 
L 1172 4494 
z
" transform="scale(0.015625)"/>
       <path id="DejaVuSans-65" d="M 3597 1894 
L 3597 1613 
L 953 1613 
Q 991 1019 1311 708 
Q 1631 397 2203 397 
Q 2534 397 2845 478 
Q 3156 559 3463 722 
L 3463 178 
Q 3153 47 2828 -22 
Q 2503 -91 2169 -91 
Q 1331 -91 842 396 
Q 353 884 353 1716 
Q 353 2575 817 3079 
Q 1281 3584 2069 3584 
Q 2775 3584 3186 3129 
Q 3597 2675 3597 1894 
z
M 3022 2063 
Q 3016 2534 2758 2815 
Q 2500 3097 2075 3097 
Q 1594 3097 1305 2825 
Q 1016 2553 972 2059 
L 3022 2063 
z
" transform="scale(0.015625)"/>
       <path id="DejaVuSans-70" d="M 1159 525 
L 1159 -1331 
L 581 -1331 
L 581 3500 
L 1159 3500 
L 1159 2969 
Q 1341 3281 1617 3432 
Q 1894 3584 2278 3584 
Q 2916 3584 3314 3078 
Q 3713 2572 3713 1747 
Q 3713 922 3314 415 
Q 2916 -91 2278 -91 
Q 1894 -91 1617 61 
Q 1341 213 1159 525 
z
M 3116 1747 
Q 3116 2381 2855 2742 
Q 2594 3103 2138 3103 
Q 1681 3103 1420 2742 
Q 1159 2381 1159 1747 
Q 1159 1113 1420 752 
Q 1681 391 2138 391 
Q 2594 391 2855 752 
Q 3116 1113 3116 1747 
z
" transform="scale(0.015625)"/>
      </defs>
      <use xlink:href="#DejaVuSans-53"/>
      <use xlink:href="#DejaVuSans-74" transform="translate(63.476562 0)"/>
      <use xlink:href="#DejaVuSans-65" transform="translate(102.685547 0)"/>
      <use xlink:href="#DejaVuSans-70" transform="translate(164.208984 0)"/>
     </g>
    </g>
   </g>
   <g id="matplotlib.axis_2">
    <g id="ytick_1">
     <g id="line2d_7">
      <defs>
       <path id="mc451dd6ecf" d="M 0 0 
L -3.5 0 
" style="stroke: #000000; stroke-width: 0.8"/>
      </defs>
      <g>
       <use xlink:href="#mc451dd6ecf" x="50.87" y="376.015745" style="stroke: #000000; stroke-width: 0.8"/>
      </g>
     </g>
     <g id="text_8">
      <!-- 20 -->
      <g transform="translate(31.145 379.814964) scale(0.1 -0.1)">
       <use xlink:href="#DejaVuSans-32"/>
       <use xlink:href="#DejaVuSans-30" transform="translate(63.623047 0)"/>
      </g>
     </g>
    </g>
    <g id="ytick_2">
     <g id="line2d_8">
      <g>
       <use xlink:href="#mc451dd6ecf" x="50.87" y="319.544165" style="stroke: #000000; stroke-width: 0.8"/>
      </g>
     </g>
     <g id="text_9">
      <!-- 40 -->
      <g transform="translate(31.145 323.343383) scale(0.1 -0.1)">
       <defs>
        <path id="DejaVuSans-34" d="M 2419 4116 
L 825 1625 
L 2419 1625 
L 2419 4116 
z
M 2253 4666 
L 3047 4666 
L 3047 1625 
L 3713 1625 
L 3713 1100 
L 3047 1100 
L 3047 0 
L 2419 0 
L 2419 1100 
L 313 1100 
L 313 1709 
L 2253 4666 
z
" transform="scale(0.015625)"/>
       </defs>
       <use xlink:href="#DejaVuSans-34"/>
       <use xlink:href="#DejaVuSans-30" transform="translate(63.623047 0)"/>
      </g>
     </g>
    </g>
    <g id="ytick_3">
     <g id="line2d_9">
      <g>
       <use xlink:href="#mc451dd6ecf" x="50.87" y="263.072584" style="stroke: #000000; stroke-width: 0.8"/>
      </g>
     </g>
     <g id="text_10">
      <!-- 60 -->
      <g transform="translate(31.145 266.871802) scale(0.1 -0.1)">
       <defs>
        <path id="DejaVuSans-36" d="M 2113 2584 
Q 1688 2584 1439 2293 
Q 1191 2003 1191 1497 
Q 1191 994 1439 701 
Q 1688 409 2113 409 
Q 2538 409 2786 701 
Q 3034 994 3034 1497 
Q 3034 2003 2786 2293 
Q 2538 2584 2113 2584 
z
M 3366 4563 
L 3366 3988 
Q 3128 4100 2886 4159 
Q 2644 4219 2406 4219 
Q 1781 4219 1451 3797 
Q 1122 3375 1075 2522 
Q 1259 2794 1537 2939 
Q 1816 3084 2150 3084 
Q 2853 3084 3261 2657 
Q 3669 2231 3669 1497 
Q 3669 778 3244 343 
Q 2819 -91 2113 -91 
Q 1303 -91 875 529 
Q 447 1150 447 2328 
Q 447 3434 972 4092 
Q 1497 4750 2381 4750 
Q 2619 4750 2861 4703 
Q 3103 4656 3366 4563 
z
" transform="scale(0.015625)"/>
       </defs>
       <use xlink:href="#DejaVuSans-36"/>
       <use xlink:href="#DejaVuSans-30" transform="translate(63.623047 0)"/>
      </g>
     </g>
    </g>
    <g id="ytick_4">
     <g id="line2d_10">
      <g>
       <use xlink:href="#mc451dd6ecf" x="50.87" y="206.601003" style="stroke: #000000; stroke-width: 0.8"/>
      </g>
     </g>
     <g id="text_11">
      <!-- 80 -->
      <g transform="translate(31.145 210.400221) scale(0.1 -0.1)">
       <defs>
        <path id="DejaVuSans-38" d="M 2034 2216 
Q 1584 2216 1326 1975 
Q 1069 1734 1069 1313 
Q 1069 891 1326 650 
Q 1584 409 2034 409 
Q 2484 409 2743 651 
Q 3003 894 3003 1313 
Q 3003 1734 2745 1975 
Q 2488 2216 2034 2216 
z
M 1403 2484 
Q 997 2584 770 2862 
Q 544 3141 544 3541 
Q 544 4100 942 4425 
Q 1341 4750 2034 4750 
Q 2731 4750 3128 4425 
Q 3525 4100 3525 3541 
Q 3525 3141 3298 2862 
Q 3072 2584 2669 2484 
Q 3125 2378 3379 2068 
Q 3634 1759 3634 1313 
Q 3634 634 3220 271 
Q 2806 -91 2034 -91 
Q 1263 -91 848 271 
Q 434 634 434 1313 
Q 434 1759 690 2068 
Q 947 2378 1403 2484 
z
M 1172 3481 
Q 1172 3119 1398 2916 
Q 1625 2713 2034 2713 
Q 2441 2713 2670 2916 
Q 2900 3119 2900 3481 
Q 2900 3844 2670 4047 
Q 2441 4250 2034 4250 
Q 1625 4250 1398 4047 
Q 1172 3844 1172 3481 
z
" transform="scale(0.015625)"/>
       </defs>
       <use xlink:href="#DejaVuSans-38"/>
       <use xlink:href="#DejaVuSans-30" transform="translate(63.623047 0)"/>
      </g>
     </g>
    </g>
    <g id="ytick_5">
     <g id="line2d_11">
      <g>
       <use xlink:href="#mc451dd6ecf" x="50.87" y="150.129422" style="stroke: #000000; stroke-width: 0.8"/>
      </g>
     </g>
     <g id="text_12">
      <!-- 100 -->
      <g transform="translate(24.7825 153.928641) scale(0.1 -0.1)">
       <use xlink:href="#DejaVuSans-31"/>
       <use xlink:href="#DejaVuSans-30" transform="translate(63.623047 0)"/>
       <use xlink:href="#DejaVuSans-30" transform="translate(127.246094 0)"/>
      </g>
     </g>
    </g>
    <g id="ytick_6">
     <g id="line2d_12">
      <g>
       <use xlink:href="#mc451dd6ecf" x="50.87" y="93.657841" style="stroke: #000000; stroke-width: 0.8"/>
      </g>
     </g>
     <g id="text_13">
      <!-- 120 -->
      <g transform="translate(24.7825 97.45706) scale(0.1 -0.1)">
       <use xlink:href="#DejaVuSans-31"/>
       <use xlink:href="#DejaVuSans-32" transform="translate(63.623047 0)"/>
       <use xlink:href="#DejaVuSans-30" transform="translate(127.246094 0)"/>
      </g>
     </g>
    </g>
    <g id="text_14">
     <!-- Profit -->
     <g transform="translate(18.702813 229.779063) rotate(-90) scale(0.1 -0.1)">
      <defs>
       <path id="DejaVuSans-50" d="M 1259 4147 
L 1259 2394 
L 2053 2394 
Q 2494 2394 2734 2622 
Q 2975 2850 2975 3272 
Q 2975 3691 2734 3919 
Q 2494 4147 2053 4147 
L 1259 4147 
z
M 628 4666 
L 2053 4666 
Q 2838 4666 3239 4311 
Q 3641 3956 3641 3272 
Q 3641 2581 3239 2228 
Q 2838 1875 2053 1875 
L 1259 1875 
L 1259 0 
L 628 0 
L 628 4666 
z
" transform="scale(0.015625)"/>
       <path id="DejaVuSans-72" d="M 2631 2963 
Q 2534 3019 2420 3045 
Q 2306 3072 2169 3072 
Q 1681 3072 1420 2755 
Q 1159 2438 1159 1844 
L 1159 0 
L 581 0 
L 581 3500 
L 1159 3500 
L 1159 2956 
Q 1341 3275 1631 3429 
Q 1922 3584 2338 3584 
Q 2397 3584 2469 3576 
Q 2541 3569 2628 3553 
L 2631 2963 
z
" transform="scale(0.015625)"/>
       <path id="DejaVuSans-6f" d="M 1959 3097 
Q 1497 3097 1228 2736 
Q 959 2375 959 1747 
Q 959 1119 1226 758 
Q 1494 397 1959 397 
Q 2419 397 2687 759 
Q 2956 1122 2956 1747 
Q 2956 2369 2687 2733 
Q 2419 3097 1959 3097 
z
M 1959 3584 
Q 2709 3584 3137 3096 
Q 3566 2609 3566 1747 
Q 3566 888 3137 398 
Q 2709 -91 1959 -91 
Q 1206 -91 779 398 
Q 353 888 353 1747 
Q 353 2609 779 3096 
Q 1206 3584 1959 3584 
z
" transform="scale(0.015625)"/>
       <path id="DejaVuSans-66" d="M 2375 4863 
L 2375 4384 
L 1825 4384 
Q 1516 4384 1395 4259 
Q 1275 4134 1275 3809 
L 1275 3500 
L 2222 3500 
L 2222 3053 
L 1275 3053 
L 1275 0 
L 697 0 
L 697 3053 
L 147 3053 
L 147 3500 
L 697 3500 
L 697 3744 
Q 697 4328 969 4595 
Q 1241 4863 1831 4863 
L 2375 4863 
z
" transform="scale(0.015625)"/>
       <path id="DejaVuSans-69" d="M 603 3500 
L 1178 3500 
L 1178 0 
L 603 0 
L 603 3500 
z
M 603 4863 
L 1178 4863 
L 1178 4134 
L 603 4134 
L 603 4863 
z
" transform="scale(0.015625)"/>
      </defs>
      <use xlink:href="#DejaVuSans-50"/>
      <use xlink:href="#DejaVuSans-72" transform="translate(58.552734 0)"/>
      <use xlink:href="#DejaVuSans-6f" transform="translate(97.416016 0)"/>
      <use xlink:href="#DejaVuSans-66" transform="translate(158.597656 0)"/>
      <use xlink:href="#DejaVuSans-69" transform="translate(193.802734 0)"/>
      <use xlink:href="#DejaVuSans-74" transform="translate(221.585938 0)"/>
     </g>
    </g>
   </g>
   <g id="line2d_13">
    <path d="M 52.193327 247.616013 
L 54.83998 247.309532 
L 57.486633 242.058729 
L 60.133287 236.246299 
L 65.426593 225.764038 
L 68.073247 221.985838 
L 73.366553 213.903269 
L 78.65986 207.842458 
L 81.306513 205.546598 
L 83.953167 202.946433 
L 86.59982 200.85837 
L 89.246473 198.582372 
L 94.53978 195.087904 
L 99.833087 191.824993 
L 105.126393 189.168259 
L 113.066353 185.83204 
L 115.713007 184.751009 
L 118.35966 183.986003 
L 121.006313 182.603467 
L 123.652967 181.794752 
L 126.29962 180.528243 
L 128.946273 179.486268 
L 136.886233 177.11835 
L 139.532887 176.076246 
L 142.17954 175.327439 
L 144.826193 174.822253 
L 147.472847 174.167607 
L 150.1195 173.36865 
L 152.766153 172.770703 
L 155.412807 172.03605 
L 158.05946 171.590148 
L 160.706113 170.958509 
L 176.586033 167.978512 
L 179.232687 167.714943 
L 189.8193 165.784547 
L 192.465953 165.511672 
L 205.69922 163.344613 
L 208.345873 163.279254 
L 213.63918 162.766743 
L 216.285833 162.606189 
L 218.932487 162.194238 
L 221.57914 161.995748 
L 242.752367 159.23783 
L 245.39902 159.104828 
L 248.045673 158.721248 
L 250.692327 158.608323 
L 255.985633 157.910701 
L 271.865553 156.760864 
L 274.512207 156.411062 
L 277.15886 156.405806 
L 282.452167 156.05064 
L 285.09882 155.809539 
L 290.392127 155.631709 
L 298.332087 155.035184 
L 303.625393 154.976072 
L 306.272047 154.817263 
L 311.565353 154.164232 
L 314.212007 154.084893 
L 316.85866 153.796464 
L 322.151967 153.474365 
L 327.445273 153.009441 
L 330.091927 152.91709 
L 332.73858 152.996344 
L 338.031887 152.479417 
L 340.67854 152.180304 
L 345.971847 152.030155 
L 348.6185 151.9928 
L 351.265153 151.670486 
L 361.851767 151.201986 
L 367.145073 150.911404 
L 375.085033 150.370199 
L 377.731687 150.066131 
L 383.024993 149.810877 
L 385.671647 149.774708 
L 388.3183 149.567817 
L 398.904913 149.184344 
L 406.844873 148.651584 
L 409.491527 148.622071 
L 414.784833 148.133386 
L 425.371447 147.790111 
L 428.0181 147.66088 
L 433.311407 147.530205 
L 438.604713 147.32284 
L 443.89802 146.89932 
L 454.484633 146.473775 
L 457.131287 146.31139 
L 462.424593 146.321946 
L 465.071247 146.187243 
L 470.364553 146.119729 
L 473.011207 145.995603 
L 475.65786 145.757454 
L 480.951167 145.581821 
L 494.184433 145.336864 
L 504.771047 144.829395 
L 510.064353 144.845465 
L 512.711007 144.639436 
L 520.650967 144.469554 
L 523.29762 144.498463 
L 525.944273 144.295945 
L 528.590927 144.322377 
L 533.884233 144.056935 
L 539.17754 143.732014 
L 541.824193 143.853145 
L 544.470847 143.722449 
L 549.764153 143.686323 
L 552.410807 143.450048 
L 557.704113 143.441302 
L 570.93738 143.006688 
L 573.584033 142.9602 
L 576.230687 142.769508 
L 586.8173 142.409753 
L 597.403913 141.838928 
L 613.283833 141.416873 
L 618.57714 141.152917 
L 623.870447 140.979998 
L 629.163753 140.895401 
L 631.810407 140.78489 
L 634.45706 140.808134 
L 647.690327 140.291509 
L 652.983633 140.056807 
L 655.630287 139.930828 
L 660.923593 139.873504 
L 666.2169 139.727405 
L 690.03678 139.079308 
L 692.683433 138.905462 
L 711.210007 138.592799 
L 713.85666 138.367166 
L 716.503313 138.28397 
L 719.149967 138.325654 
L 721.79662 138.16971 
L 727.089927 138.125161 
L 729.73658 138.054136 
L 732.383233 138.119064 
L 737.67654 137.864005 
L 745.6165 137.747117 
L 753.55646 137.722085 
L 756.203113 137.639966 
L 761.49642 137.713748 
L 772.083033 137.535206 
L 777.37634 137.363278 
L 780.022993 137.298931 
L 782.669647 137.359034 
L 787.962953 137.21412 
L 793.25626 137.311426 
L 814.429487 136.775693 
L 822.369447 136.907014 
L 830.309407 136.62423 
L 843.542673 136.305082 
L 843.542673 136.305082 
" clip-path="url(#pdca967c153)" style="fill: none; stroke: #0000ff; stroke-width: 1.5; stroke-linecap: square"/>
   </g>
   <g id="patch_3">
    <path d="M 50.87 390.04 
L 50.87 43.44 
" style="fill: none; stroke: #000000; stroke-width: 0.8; stroke-linejoin: miter; stroke-linecap: square"/>
   </g>
   <g id="patch_4">
    <path d="M 844.866 390.04 
L 844.866 43.44 
" style="fill: none; stroke: #000000; stroke-width: 0.8; stroke-linejoin: miter; stroke-linecap: square"/>
   </g>
   <g id="patch_5">
    <path d="M 50.87 390.04 
L 844.866 390.04 
" style="fill: none; stroke: #000000; stroke-width: 0.8; stroke-linejoin: miter; stroke-linecap: square"/>
   </g>
   <g id="patch_6">
    <path d="M 50.87 43.44 
L 844.866 43.44 
" style="fill: none; stroke: #000000; stroke-width: 0.8; stroke-linejoin: miter; stroke-linecap: square"/>
   </g>
   <g id="text_15">
    <!-- Mean profit per step with confidence interval per simulation step -->
    <g transform="translate(220.284875 21.763062) scale(0.14 -0.14)">
     <defs>
      <path id="DejaVuSans-4d" d="M 628 4666 
L 1569 4666 
L 2759 1491 
L 3956 4666 
L 4897 4666 
L 4897 0 
L 4281 0 
L 4281 4097 
L 3078 897 
L 2444 897 
L 1241 4097 
L 1241 0 
L 628 0 
L 628 4666 
z
" transform="scale(0.015625)"/>
      <path id="DejaVuSans-61" d="M 2194 1759 
Q 1497 1759 1228 1600 
Q 959 1441 959 1056 
Q 959 750 1161 570 
Q 1363 391 1709 391 
Q 2188 391 2477 730 
Q 2766 1069 2766 1631 
L 2766 1759 
L 2194 1759 
z
M 3341 1997 
L 3341 0 
L 2766 0 
L 2766 531 
Q 2569 213 2275 61 
Q 1981 -91 1556 -91 
Q 1019 -91 701 211 
Q 384 513 384 1019 
Q 384 1609 779 1909 
Q 1175 2209 1959 2209 
L 2766 2209 
L 2766 2266 
Q 2766 2663 2505 2880 
Q 2244 3097 1772 3097 
Q 1472 3097 1187 3025 
Q 903 2953 641 2809 
L 641 3341 
Q 956 3463 1253 3523 
Q 1550 3584 1831 3584 
Q 2591 3584 2966 3190 
Q 3341 2797 3341 1997 
z
" transform="scale(0.015625)"/>
      <path id="DejaVuSans-6e" d="M 3513 2113 
L 3513 0 
L 2938 0 
L 2938 2094 
Q 2938 2591 2744 2837 
Q 2550 3084 2163 3084 
Q 1697 3084 1428 2787 
Q 1159 2491 1159 1978 
L 1159 0 
L 581 0 
L 581 3500 
L 1159 3500 
L 1159 2956 
Q 1366 3272 1645 3428 
Q 1925 3584 2291 3584 
Q 2894 3584 3203 3211 
Q 3513 2838 3513 2113 
z
" transform="scale(0.015625)"/>
      <path id="DejaVuSans-20" transform="scale(0.015625)"/>
      <path id="DejaVuSans-73" d="M 2834 3397 
L 2834 2853 
Q 2591 2978 2328 3040 
Q 2066 3103 1784 3103 
Q 1356 3103 1142 2972 
Q 928 2841 928 2578 
Q 928 2378 1081 2264 
Q 1234 2150 1697 2047 
L 1894 2003 
Q 2506 1872 2764 1633 
Q 3022 1394 3022 966 
Q 3022 478 2636 193 
Q 2250 -91 1575 -91 
Q 1294 -91 989 -36 
Q 684 19 347 128 
L 347 722 
Q 666 556 975 473 
Q 1284 391 1588 391 
Q 1994 391 2212 530 
Q 2431 669 2431 922 
Q 2431 1156 2273 1281 
Q 2116 1406 1581 1522 
L 1381 1569 
Q 847 1681 609 1914 
Q 372 2147 372 2553 
Q 372 3047 722 3315 
Q 1072 3584 1716 3584 
Q 2034 3584 2315 3537 
Q 2597 3491 2834 3397 
z
" transform="scale(0.015625)"/>
      <path id="DejaVuSans-77" d="M 269 3500 
L 844 3500 
L 1563 769 
L 2278 3500 
L 2956 3500 
L 3675 769 
L 4391 3500 
L 4966 3500 
L 4050 0 
L 3372 0 
L 2619 2869 
L 1863 0 
L 1184 0 
L 269 3500 
z
" transform="scale(0.015625)"/>
      <path id="DejaVuSans-68" d="M 3513 2113 
L 3513 0 
L 2938 0 
L 2938 2094 
Q 2938 2591 2744 2837 
Q 2550 3084 2163 3084 
Q 1697 3084 1428 2787 
Q 1159 2491 1159 1978 
L 1159 0 
L 581 0 
L 581 4863 
L 1159 4863 
L 1159 2956 
Q 1366 3272 1645 3428 
Q 1925 3584 2291 3584 
Q 2894 3584 3203 3211 
Q 3513 2838 3513 2113 
z
" transform="scale(0.015625)"/>
      <path id="DejaVuSans-63" d="M 3122 3366 
L 3122 2828 
Q 2878 2963 2633 3030 
Q 2388 3097 2138 3097 
Q 1578 3097 1268 2742 
Q 959 2388 959 1747 
Q 959 1106 1268 751 
Q 1578 397 2138 397 
Q 2388 397 2633 464 
Q 2878 531 3122 666 
L 3122 134 
Q 2881 22 2623 -34 
Q 2366 -91 2075 -91 
Q 1284 -91 818 406 
Q 353 903 353 1747 
Q 353 2603 823 3093 
Q 1294 3584 2113 3584 
Q 2378 3584 2631 3529 
Q 2884 3475 3122 3366 
z
" transform="scale(0.015625)"/>
      <path id="DejaVuSans-64" d="M 2906 2969 
L 2906 4863 
L 3481 4863 
L 3481 0 
L 2906 0 
L 2906 525 
Q 2725 213 2448 61 
Q 2172 -91 1784 -91 
Q 1150 -91 751 415 
Q 353 922 353 1747 
Q 353 2572 751 3078 
Q 1150 3584 1784 3584 
Q 2172 3584 2448 3432 
Q 2725 3281 2906 2969 
z
M 947 1747 
Q 947 1113 1208 752 
Q 1469 391 1925 391 
Q 2381 391 2643 752 
Q 2906 1113 2906 1747 
Q 2906 2381 2643 2742 
Q 2381 3103 1925 3103 
Q 1469 3103 1208 2742 
Q 947 2381 947 1747 
z
" transform="scale(0.015625)"/>
      <path id="DejaVuSans-76" d="M 191 3500 
L 800 3500 
L 1894 563 
L 2988 3500 
L 3597 3500 
L 2284 0 
L 1503 0 
L 191 3500 
z
" transform="scale(0.015625)"/>
      <path id="DejaVuSans-6c" d="M 603 4863 
L 1178 4863 
L 1178 0 
L 603 0 
L 603 4863 
z
" transform="scale(0.015625)"/>
      <path id="DejaVuSans-6d" d="M 3328 2828 
Q 3544 3216 3844 3400 
Q 4144 3584 4550 3584 
Q 5097 3584 5394 3201 
Q 5691 2819 5691 2113 
L 5691 0 
L 5113 0 
L 5113 2094 
Q 5113 2597 4934 2840 
Q 4756 3084 4391 3084 
Q 3944 3084 3684 2787 
Q 3425 2491 3425 1978 
L 3425 0 
L 2847 0 
L 2847 2094 
Q 2847 2600 2669 2842 
Q 2491 3084 2119 3084 
Q 1678 3084 1418 2786 
Q 1159 2488 1159 1978 
L 1159 0 
L 581 0 
L 581 3500 
L 1159 3500 
L 1159 2956 
Q 1356 3278 1631 3431 
Q 1906 3584 2284 3584 
Q 2666 3584 2933 3390 
Q 3200 3197 3328 2828 
z
" transform="scale(0.015625)"/>
      <path id="DejaVuSans-75" d="M 544 1381 
L 544 3500 
L 1119 3500 
L 1119 1403 
Q 1119 906 1312 657 
Q 1506 409 1894 409 
Q 2359 409 2629 706 
Q 2900 1003 2900 1516 
L 2900 3500 
L 3475 3500 
L 3475 0 
L 2900 0 
L 2900 538 
Q 2691 219 2414 64 
Q 2138 -91 1772 -91 
Q 1169 -91 856 284 
Q 544 659 544 1381 
z
M 1991 3584 
L 1991 3584 
z
" transform="scale(0.015625)"/>
     </defs>
     <use xlink:href="#DejaVuSans-4d"/>
     <use xlink:href="#DejaVuSans-65" transform="translate(86.279297 0)"/>
     <use xlink:href="#DejaVuSans-61" transform="translate(147.802734 0)"/>
     <use xlink:href="#DejaVuSans-6e" transform="translate(209.082031 0)"/>
     <use xlink:href="#DejaVuSans-20" transform="translate(272.460938 0)"/>
     <use xlink:href="#DejaVuSans-70" transform="translate(304.248047 0)"/>
     <use xlink:href="#DejaVuSans-72" transform="translate(367.724609 0)"/>
     <use xlink:href="#DejaVuSans-6f" transform="translate(406.587891 0)"/>
     <use xlink:href="#DejaVuSans-66" transform="translate(467.769531 0)"/>
     <use xlink:href="#DejaVuSans-69" transform="translate(502.974609 0)"/>
     <use xlink:href="#DejaVuSans-74" transform="translate(530.757812 0)"/>
     <use xlink:href="#DejaVuSans-20" transform="translate(569.966797 0)"/>
     <use xlink:href="#DejaVuSans-70" transform="translate(601.753906 0)"/>
     <use xlink:href="#DejaVuSans-65" transform="translate(665.230469 0)"/>
     <use xlink:href="#DejaVuSans-72" transform="translate(726.753906 0)"/>
     <use xlink:href="#DejaVuSans-20" transform="translate(767.867188 0)"/>
     <use xlink:href="#DejaVuSans-73" transform="translate(799.654297 0)"/>
     <use xlink:href="#DejaVuSans-74" transform="translate(851.753906 0)"/>
     <use xlink:href="#DejaVuSans-65" transform="translate(890.962891 0)"/>
     <use xlink:href="#DejaVuSans-70" transform="translate(952.486328 0)"/>
     <use xlink:href="#DejaVuSans-20" transform="translate(1015.962891 0)"/>
     <use xlink:href="#DejaVuSans-77" transform="translate(1047.75 0)"/>
     <use xlink:href="#DejaVuSans-69" transform="translate(1129.537109 0)"/>
     <use xlink:href="#DejaVuSans-74" transform="translate(1157.320312 0)"/>
     <use xlink:href="#DejaVuSans-68" transform="translate(1196.529297 0)"/>
     <use xlink:href="#DejaVuSans-20" transform="translate(1259.908203 0)"/>
     <use xlink:href="#DejaVuSans-63" transform="translate(1291.695312 0)"/>
     <use xlink:href="#DejaVuSans-6f" transform="translate(1346.675781 0)"/>
     <use xlink:href="#DejaVuSans-6e" transform="translate(1407.857422 0)"/>
     <use xlink:href="#DejaVuSans-66" transform="translate(1471.236328 0)"/>
     <use xlink:href="#DejaVuSans-69" transform="translate(1506.441406 0)"/>
     <use xlink:href="#DejaVuSans-64" transform="translate(1534.224609 0)"/>
     <use xlink:href="#DejaVuSans-65" transform="translate(1597.701172 0)"/>
     <use xlink:href="#DejaVuSans-6e" transform="translate(1659.224609 0)"/>
     <use xlink:href="#DejaVuSans-63" transform="translate(1722.603516 0)"/>
     <use xlink:href="#DejaVuSans-65" transform="translate(1777.583984 0)"/>
     <use xlink:href="#DejaVuSans-20" transform="translate(1839.107422 0)"/>
     <use xlink:href="#DejaVuSans-69" transform="translate(1870.894531 0)"/>
     <use xlink:href="#DejaVuSans-6e" transform="translate(1898.677734 0)"/>
     <use xlink:href="#DejaVuSans-74" transform="translate(1962.056641 0)"/>
     <use xlink:href="#DejaVuSans-65" transform="translate(2001.265625 0)"/>
     <use xlink:href="#DejaVuSans-72" transform="translate(2062.789062 0)"/>
     <use xlink:href="#DejaVuSans-76" transform="translate(2103.902344 0)"/>
     <use xlink:href="#DejaVuSans-61" transform="translate(2163.082031 0)"/>
     <use xlink:href="#DejaVuSans-6c" transform="translate(2224.361328 0)"/>
     <use xlink:href="#DejaVuSans-20" transform="translate(2252.144531 0)"/>
     <use xlink:href="#DejaVuSans-70" transform="translate(2283.931641 0)"/>
     <use xlink:href="#DejaVuSans-65" transform="translate(2347.408203 0)"/>
     <use xlink:href="#DejaVuSans-72" transform="translate(2408.931641 0)"/>
     <use xlink:href="#DejaVuSans-20" transform="translate(2450.044922 0)"/>
     <use xlink:href="#DejaVuSans-73" transform="translate(2481.832031 0)"/>
     <use xlink:href="#DejaVuSans-69" transform="translate(2533.931641 0)"/>
     <use xlink:href="#DejaVuSans-6d" transform="translate(2561.714844 0)"/>
     <use xlink:href="#DejaVuSans-75" transform="translate(2659.126953 0)"/>
     <use xlink:href="#DejaVuSans-6c" transform="translate(2722.505859 0)"/>
     <use xlink:href="#DejaVuSans-61" transform="translate(2750.289062 0)"/>
     <use xlink:href="#DejaVuSans-74" transform="translate(2811.568359 0)"/>
     <use xlink:href="#DejaVuSans-69" transform="translate(2850.777344 0)"/>
     <use xlink:href="#DejaVuSans-6f" transform="translate(2878.560547 0)"/>
     <use xlink:href="#DejaVuSans-6e" transform="translate(2939.742188 0)"/>
     <use xlink:href="#DejaVuSans-20" transform="translate(3003.121094 0)"/>
     <use xlink:href="#DejaVuSans-73" transform="translate(3034.908203 0)"/>
     <use xlink:href="#DejaVuSans-74" transform="translate(3087.007812 0)"/>
     <use xlink:href="#DejaVuSans-65" transform="translate(3126.216797 0)"/>
     <use xlink:href="#DejaVuSans-70" transform="translate(3187.740234 0)"/>
    </g>
    <!-- Base Product: Green Crack, Recipe size: 8, T0: 20.0 -->
    <g transform="translate(268.031437 37.44) scale(0.14 -0.14)">
     <defs>
      <path id="DejaVuSans-42" d="M 1259 2228 
L 1259 519 
L 2272 519 
Q 2781 519 3026 730 
Q 3272 941 3272 1375 
Q 3272 1813 3026 2020 
Q 2781 2228 2272 2228 
L 1259 2228 
z
M 1259 4147 
L 1259 2741 
L 2194 2741 
Q 2656 2741 2882 2914 
Q 3109 3088 3109 3444 
Q 3109 3797 2882 3972 
Q 2656 4147 2194 4147 
L 1259 4147 
z
M 628 4666 
L 2241 4666 
Q 2963 4666 3353 4366 
Q 3744 4066 3744 3513 
Q 3744 3084 3544 2831 
Q 3344 2578 2956 2516 
Q 3422 2416 3680 2098 
Q 3938 1781 3938 1306 
Q 3938 681 3513 340 
Q 3088 0 2303 0 
L 628 0 
L 628 4666 
z
" transform="scale(0.015625)"/>
      <path id="DejaVuSans-3a" d="M 750 794 
L 1409 794 
L 1409 0 
L 750 0 
L 750 794 
z
M 750 3309 
L 1409 3309 
L 1409 2516 
L 750 2516 
L 750 3309 
z
" transform="scale(0.015625)"/>
      <path id="DejaVuSans-47" d="M 3809 666 
L 3809 1919 
L 2778 1919 
L 2778 2438 
L 4434 2438 
L 4434 434 
Q 4069 175 3628 42 
Q 3188 -91 2688 -91 
Q 1594 -91 976 548 
Q 359 1188 359 2328 
Q 359 3472 976 4111 
Q 1594 4750 2688 4750 
Q 3144 4750 3555 4637 
Q 3966 4525 4313 4306 
L 4313 3634 
Q 3963 3931 3569 4081 
Q 3175 4231 2741 4231 
Q 1884 4231 1454 3753 
Q 1025 3275 1025 2328 
Q 1025 1384 1454 906 
Q 1884 428 2741 428 
Q 3075 428 3337 486 
Q 3600 544 3809 666 
z
" transform="scale(0.015625)"/>
      <path id="DejaVuSans-43" d="M 4122 4306 
L 4122 3641 
Q 3803 3938 3442 4084 
Q 3081 4231 2675 4231 
Q 1875 4231 1450 3742 
Q 1025 3253 1025 2328 
Q 1025 1406 1450 917 
Q 1875 428 2675 428 
Q 3081 428 3442 575 
Q 3803 722 4122 1019 
L 4122 359 
Q 3791 134 3420 21 
Q 3050 -91 2638 -91 
Q 1578 -91 968 557 
Q 359 1206 359 2328 
Q 359 3453 968 4101 
Q 1578 4750 2638 4750 
Q 3056 4750 3426 4639 
Q 3797 4528 4122 4306 
z
" transform="scale(0.015625)"/>
      <path id="DejaVuSans-6b" d="M 581 4863 
L 1159 4863 
L 1159 1991 
L 2875 3500 
L 3609 3500 
L 1753 1863 
L 3688 0 
L 2938 0 
L 1159 1709 
L 1159 0 
L 581 0 
L 581 4863 
z
" transform="scale(0.015625)"/>
      <path id="DejaVuSans-2c" d="M 750 794 
L 1409 794 
L 1409 256 
L 897 -744 
L 494 -744 
L 750 256 
L 750 794 
z
" transform="scale(0.015625)"/>
      <path id="DejaVuSans-52" d="M 2841 2188 
Q 3044 2119 3236 1894 
Q 3428 1669 3622 1275 
L 4263 0 
L 3584 0 
L 2988 1197 
Q 2756 1666 2539 1819 
Q 2322 1972 1947 1972 
L 1259 1972 
L 1259 0 
L 628 0 
L 628 4666 
L 2053 4666 
Q 2853 4666 3247 4331 
Q 3641 3997 3641 3322 
Q 3641 2881 3436 2590 
Q 3231 2300 2841 2188 
z
M 1259 4147 
L 1259 2491 
L 2053 2491 
Q 2509 2491 2742 2702 
Q 2975 2913 2975 3322 
Q 2975 3731 2742 3939 
Q 2509 4147 2053 4147 
L 1259 4147 
z
" transform="scale(0.015625)"/>
      <path id="DejaVuSans-7a" d="M 353 3500 
L 3084 3500 
L 3084 2975 
L 922 459 
L 3084 459 
L 3084 0 
L 275 0 
L 275 525 
L 2438 3041 
L 353 3041 
L 353 3500 
z
" transform="scale(0.015625)"/>
      <path id="DejaVuSans-54" d="M -19 4666 
L 3928 4666 
L 3928 4134 
L 2272 4134 
L 2272 0 
L 1638 0 
L 1638 4134 
L -19 4134 
L -19 4666 
z
" transform="scale(0.015625)"/>
      <path id="DejaVuSans-2e" d="M 684 794 
L 1344 794 
L 1344 0 
L 684 0 
L 684 794 
z
" transform="scale(0.015625)"/>
     </defs>
     <use xlink:href="#DejaVuSans-42"/>
     <use xlink:href="#DejaVuSans-61" transform="translate(68.603516 0)"/>
     <use xlink:href="#DejaVuSans-73" transform="translate(129.882812 0)"/>
     <use xlink:href="#DejaVuSans-65" transform="translate(181.982422 0)"/>
     <use xlink:href="#DejaVuSans-20" transform="translate(243.505859 0)"/>
     <use xlink:href="#DejaVuSans-50" transform="translate(275.292969 0)"/>
     <use xlink:href="#DejaVuSans-72" transform="translate(333.845703 0)"/>
     <use xlink:href="#DejaVuSans-6f" transform="translate(372.708984 0)"/>
     <use xlink:href="#DejaVuSans-64" transform="translate(433.890625 0)"/>
     <use xlink:href="#DejaVuSans-75" transform="translate(497.367188 0)"/>
     <use xlink:href="#DejaVuSans-63" transform="translate(560.746094 0)"/>
     <use xlink:href="#DejaVuSans-74" transform="translate(615.726562 0)"/>
     <use xlink:href="#DejaVuSans-3a" transform="translate(654.935547 0)"/>
     <use xlink:href="#DejaVuSans-20" transform="translate(688.626953 0)"/>
     <use xlink:href="#DejaVuSans-47" transform="translate(720.414062 0)"/>
     <use xlink:href="#DejaVuSans-72" transform="translate(797.904297 0)"/>
     <use xlink:href="#DejaVuSans-65" transform="translate(836.767578 0)"/>
     <use xlink:href="#DejaVuSans-65" transform="translate(898.291016 0)"/>
     <use xlink:href="#DejaVuSans-6e" transform="translate(959.814453 0)"/>
     <use xlink:href="#DejaVuSans-20" transform="translate(1023.193359 0)"/>
     <use xlink:href="#DejaVuSans-43" transform="translate(1054.980469 0)"/>
     <use xlink:href="#DejaVuSans-72" transform="translate(1124.804688 0)"/>
     <use xlink:href="#DejaVuSans-61" transform="translate(1165.917969 0)"/>
     <use xlink:href="#DejaVuSans-63" transform="translate(1227.197266 0)"/>
     <use xlink:href="#DejaVuSans-6b" transform="translate(1282.177734 0)"/>
     <use xlink:href="#DejaVuSans-2c" transform="translate(1340.087891 0)"/>
     <use xlink:href="#DejaVuSans-20" transform="translate(1371.875 0)"/>
     <use xlink:href="#DejaVuSans-52" transform="translate(1403.662109 0)"/>
     <use xlink:href="#DejaVuSans-65" transform="translate(1468.644531 0)"/>
     <use xlink:href="#DejaVuSans-63" transform="translate(1530.167969 0)"/>
     <use xlink:href="#DejaVuSans-69" transform="translate(1585.148438 0)"/>
     <use xlink:href="#DejaVuSans-70" transform="translate(1612.931641 0)"/>
     <use xlink:href="#DejaVuSans-65" transform="translate(1676.408203 0)"/>
     <use xlink:href="#DejaVuSans-20" transform="translate(1737.931641 0)"/>
     <use xlink:href="#DejaVuSans-73" transform="translate(1769.71875 0)"/>
     <use xlink:href="#DejaVuSans-69" transform="translate(1821.818359 0)"/>
     <use xlink:href="#DejaVuSans-7a" transform="translate(1849.601562 0)"/>
     <use xlink:href="#DejaVuSans-65" transform="translate(1902.091797 0)"/>
     <use xlink:href="#DejaVuSans-3a" transform="translate(1963.615234 0)"/>
     <use xlink:href="#DejaVuSans-20" transform="translate(1997.306641 0)"/>
     <use xlink:href="#DejaVuSans-38" transform="translate(2029.09375 0)"/>
     <use xlink:href="#DejaVuSans-2c" transform="translate(2092.716797 0)"/>
     <use xlink:href="#DejaVuSans-20" transform="translate(2124.503906 0)"/>
     <use xlink:href="#DejaVuSans-54" transform="translate(2156.291016 0)"/>
     <use xlink:href="#DejaVuSans-30" transform="translate(2217.375 0)"/>
     <use xlink:href="#DejaVuSans-3a" transform="translate(2280.998047 0)"/>
     <use xlink:href="#DejaVuSans-20" transform="translate(2314.689453 0)"/>
     <use xlink:href="#DejaVuSans-32" transform="translate(2346.476562 0)"/>
     <use xlink:href="#DejaVuSans-30" transform="translate(2410.099609 0)"/>
     <use xlink:href="#DejaVuSans-2e" transform="translate(2473.722656 0)"/>
     <use xlink:href="#DejaVuSans-30" transform="translate(2505.509766 0)"/>
    </g>
   </g>
  </g>
 </g>
 <defs>
  <clipPath id="pdca967c153">
   <rect x="50.87" y="43.44" width="793.996" height="346.6"/>
  </clipPath>
 </defs>
</svg>
