<?xml version="1.0" encoding="utf-8" standalone="no"?>
<!DOCTYPE svg PUBLIC "-//W3C//DTD SVG 1.1//EN"
  "http://www.w3.org/Graphics/SVG/1.1/DTD/svg11.dtd">
<svg xmlns:xlink="http://www.w3.org/1999/xlink" width="864pt" height="432pt" viewBox="0 0 864 432" xmlns="http://www.w3.org/2000/svg" version="1.1">
 <metadata>
  <rdf:RDF xmlns:dc="http://purl.org/dc/elements/1.1/" xmlns:cc="http://creativecommons.org/ns#" xmlns:rdf="http://www.w3.org/1999/02/22-rdf-syntax-ns#">
   <cc:Work>
    <dc:type rdf:resource="http://purl.org/dc/dcmitype/StillImage"/>
    <dc:date>2025-05-24T02:16:52.700957</dc:date>
    <dc:format>image/svg+xml</dc:format>
    <dc:creator>
     <cc:Agent>
      <dc:title>Matplotlib v3.10.3, https://matplotlib.org/</dc:title>
     </cc:Agent>
    </dc:creator>
   </cc:Work>
  </rdf:RDF>
 </metadata>
 <defs>
  <style type="text/css">*{stroke-linejoin: round; stroke-linecap: butt}</style>
 </defs>
 <g id="figure_1">
  <g id="patch_1">
   <path d="M 0 432 
L 864 432 
L 864 0 
L 0 0 
z
" style="fill: #ffffff"/>
  </g>
  <g id="axes_1">
   <g id="patch_2">
    <path d="M 50.87 390.04 
L 844.866 390.04 
L 844.866 43.44 
L 50.87 43.44 
z
" style="fill: #ffffff"/>
   </g>
   <g id="FillBetweenPolyCollection_1">
    <defs>
     <path id="mc6f0f01753" d="M 52.193327 -312.82758 
L 52.193327 -57.714545 
L 54.83998 -57.879947 
L 57.486633 -73.261683 
L 60.133287 -87.718849 
L 62.77994 -101.393127 
L 65.426593 -113.777521 
L 68.073247 -123.571728 
L 70.7199 -131.991419 
L 73.366553 -140.237552 
L 76.013207 -147.887938 
L 78.65986 -155.077194 
L 81.306513 -161.325616 
L 83.953167 -166.350947 
L 86.59982 -171.42992 
L 89.246473 -175.879496 
L 91.893127 -180.347206 
L 94.53978 -184.087613 
L 97.186433 -187.735796 
L 99.833087 -190.830098 
L 102.47974 -193.769284 
L 105.126393 -196.294204 
L 107.773047 -199.205536 
L 110.4197 -201.83385 
L 113.066353 -204.281703 
L 115.713007 -206.594519 
L 118.35966 -208.654238 
L 121.006313 -210.843187 
L 123.652967 -212.663588 
L 126.29962 -214.45515 
L 128.946273 -216.430815 
L 131.592927 -218.227446 
L 134.23958 -219.592341 
L 136.886233 -220.876331 
L 139.532887 -222.321072 
L 142.17954 -223.763696 
L 144.826193 -225.297142 
L 147.472847 -226.551826 
L 150.1195 -227.69603 
L 152.766153 -228.844687 
L 155.412807 -230.047723 
L 158.05946 -230.901059 
L 160.706113 -231.613673 
L 163.352767 -232.615925 
L 165.99942 -233.572753 
L 168.646073 -234.584552 
L 171.292727 -235.421229 
L 173.93938 -236.214945 
L 176.586033 -237.006249 
L 179.232687 -237.819133 
L 181.87934 -238.202002 
L 184.525993 -238.874607 
L 187.172647 -239.702919 
L 189.8193 -240.22368 
L 192.465953 -240.888657 
L 195.112607 -241.449772 
L 197.75926 -242.134581 
L 200.405913 -243.073177 
L 203.052567 -243.743641 
L 205.69922 -244.339057 
L 208.345873 -244.933562 
L 210.992527 -245.439831 
L 213.63918 -246.030842 
L 216.285833 -246.601603 
L 218.932487 -246.955929 
L 221.57914 -247.471449 
L 224.225793 -247.984952 
L 226.872447 -248.387998 
L 229.5191 -248.924729 
L 232.165753 -249.607053 
L 234.812407 -250.085812 
L 237.45906 -250.62894 
L 240.105713 -251.086021 
L 242.752367 -251.664852 
L 245.39902 -252.088789 
L 248.045673 -252.596681 
L 250.692327 -253.006986 
L 253.33898 -253.345958 
L 255.985633 -253.756485 
L 258.632287 -254.167233 
L 261.27894 -254.481377 
L 263.925593 -254.792938 
L 266.572247 -255.181959 
L 269.2189 -255.663154 
L 271.865553 -255.940808 
L 274.512207 -256.243068 
L 277.15886 -256.57146 
L 279.805513 -256.930191 
L 282.452167 -257.444013 
L 285.09882 -257.91069 
L 287.745473 -258.245701 
L 290.392127 -258.550348 
L 293.03878 -258.892666 
L 295.685433 -259.192786 
L 298.332087 -259.527772 
L 300.97874 -259.776464 
L 303.625393 -260.111303 
L 306.272047 -260.282216 
L 308.9187 -260.524265 
L 311.565353 -260.770989 
L 314.212007 -261.040991 
L 316.85866 -261.350707 
L 319.505313 -261.617583 
L 322.151967 -261.852078 
L 324.79862 -262.046367 
L 327.445273 -262.282536 
L 330.091927 -262.449487 
L 332.73858 -262.760064 
L 335.385233 -262.890722 
L 338.031887 -263.078318 
L 340.67854 -263.233041 
L 343.325193 -263.486655 
L 345.971847 -263.697134 
L 348.6185 -263.970212 
L 351.265153 -264.150155 
L 353.911807 -264.434527 
L 356.55846 -264.642029 
L 359.205113 -264.898374 
L 361.851767 -265.031837 
L 364.49842 -265.338108 
L 367.145073 -265.707961 
L 369.791727 -265.899149 
L 372.43838 -265.988174 
L 375.085033 -266.328598 
L 377.731687 -266.655587 
L 380.37834 -266.826451 
L 383.024993 -267.080828 
L 385.671647 -267.297607 
L 388.3183 -267.367168 
L 390.964953 -267.522924 
L 393.611607 -267.752202 
L 396.25826 -268.015683 
L 398.904913 -268.174072 
L 401.551567 -268.437307 
L 404.19822 -268.657678 
L 406.844873 -268.81934 
L 409.491527 -268.918994 
L 412.13818 -269.105261 
L 414.784833 -269.232278 
L 417.431487 -269.380455 
L 420.07814 -269.545561 
L 422.724793 -269.713866 
L 425.371447 -269.843048 
L 428.0181 -270.040511 
L 430.664753 -270.206232 
L 433.311407 -270.330099 
L 435.95806 -270.45677 
L 438.604713 -270.576872 
L 441.251367 -270.707997 
L 443.89802 -270.847587 
L 446.544673 -271.065719 
L 449.191327 -271.180802 
L 451.83798 -271.243719 
L 454.484633 -271.378142 
L 457.131287 -271.560743 
L 459.77794 -271.548194 
L 462.424593 -271.672282 
L 465.071247 -271.816473 
L 467.7179 -271.976781 
L 470.364553 -272.126435 
L 473.011207 -272.265212 
L 475.65786 -272.338243 
L 478.304513 -272.274267 
L 480.951167 -272.406131 
L 483.59782 -272.562699 
L 486.244473 -272.715748 
L 488.891127 -272.888335 
L 491.53778 -272.925047 
L 494.184433 -273.032501 
L 496.831087 -273.121206 
L 499.47774 -273.186018 
L 502.124393 -273.372261 
L 504.771047 -273.522628 
L 507.4177 -273.572012 
L 510.064353 -273.681312 
L 512.711007 -273.813348 
L 515.35766 -273.867579 
L 518.004313 -274.002519 
L 520.650967 -274.145233 
L 523.29762 -274.20104 
L 525.944273 -274.325964 
L 528.590927 -274.490431 
L 531.23758 -274.589667 
L 533.884233 -274.692864 
L 536.530887 -274.893748 
L 539.17754 -275.003614 
L 541.824193 -275.143007 
L 544.470847 -275.262247 
L 547.1175 -275.377526 
L 549.764153 -275.506536 
L 552.410807 -275.56869 
L 555.05746 -275.710322 
L 557.704113 -275.816202 
L 560.350767 -275.861132 
L 562.99742 -275.937805 
L 565.644073 -276.046293 
L 568.290727 -276.138245 
L 570.93738 -276.26846 
L 573.584033 -276.330369 
L 576.230687 -276.40928 
L 578.87734 -276.539348 
L 581.523993 -276.651354 
L 584.170647 -276.707234 
L 586.8173 -276.727067 
L 589.463953 -276.793921 
L 592.110607 -276.889565 
L 594.75726 -276.979672 
L 597.403913 -277.028072 
L 600.050567 -277.090473 
L 602.69722 -277.144335 
L 605.343873 -277.240397 
L 607.990527 -277.268694 
L 610.63718 -277.341429 
L 613.283833 -277.445537 
L 615.930487 -277.553631 
L 618.57714 -277.679958 
L 621.223793 -277.755499 
L 623.870447 -277.82383 
L 626.5171 -277.966446 
L 629.163753 -278.025943 
L 631.810407 -278.13293 
L 634.45706 -278.22695 
L 637.103713 -278.313587 
L 639.750367 -278.391908 
L 642.39702 -278.43428 
L 645.043673 -278.430195 
L 647.690327 -278.453226 
L 650.33698 -278.56602 
L 652.983633 -278.595794 
L 655.630287 -278.707406 
L 658.27694 -278.763631 
L 660.923593 -278.776869 
L 663.570247 -278.888408 
L 666.2169 -279.0185 
L 668.863553 -279.12652 
L 671.510207 -279.199034 
L 674.15686 -279.265766 
L 676.803513 -279.255382 
L 679.450167 -279.320096 
L 682.09682 -279.358407 
L 684.743473 -279.446398 
L 687.390127 -279.525556 
L 690.03678 -279.618591 
L 692.683433 -279.66175 
L 695.330087 -279.700849 
L 697.97674 -279.728161 
L 700.623393 -279.768638 
L 703.270047 -279.865611 
L 705.9167 -279.889552 
L 708.563353 -279.942258 
L 711.210007 -279.959335 
L 713.85666 -279.986943 
L 716.503313 -280.016421 
L 719.149967 -280.120233 
L 721.79662 -280.154485 
L 724.443273 -280.200646 
L 727.089927 -280.275842 
L 729.73658 -280.317672 
L 732.383233 -280.389177 
L 735.029887 -280.446435 
L 737.67654 -280.521705 
L 740.323193 -280.539741 
L 742.969847 -280.571999 
L 745.6165 -280.617397 
L 748.263153 -280.674852 
L 750.909807 -280.726279 
L 753.55646 -280.723671 
L 756.203113 -280.705019 
L 758.849767 -280.739025 
L 761.49642 -280.824211 
L 764.143073 -280.871577 
L 766.789727 -280.954229 
L 769.43638 -281.015522 
L 772.083033 -281.10371 
L 774.729687 -281.176593 
L 777.37634 -281.207474 
L 780.022993 -281.258384 
L 782.669647 -281.303363 
L 785.3163 -281.426221 
L 787.962953 -281.471521 
L 790.609607 -281.48717 
L 793.25626 -281.472948 
L 795.902913 -281.507495 
L 798.549567 -281.516476 
L 801.19622 -281.600948 
L 803.842873 -281.644772 
L 806.489527 -281.696764 
L 809.13618 -281.747182 
L 811.782833 -281.798608 
L 814.429487 -281.825675 
L 817.07614 -281.868317 
L 819.722793 -281.916914 
L 822.369447 -281.976067 
L 825.0161 -281.963124 
L 827.662753 -282.025549 
L 830.309407 -282.089303 
L 832.95606 -282.120602 
L 835.602713 -282.144126 
L 838.249367 -282.209578 
L 840.89602 -282.265138 
L 843.542673 -282.308814 
L 843.542673 -372.805455 
L 843.542673 -372.805455 
L 840.89602 -372.78326 
L 838.249367 -372.793398 
L 835.602713 -372.768693 
L 832.95606 -372.743693 
L 830.309407 -372.712247 
L 827.662753 -372.702159 
L 825.0161 -372.693251 
L 822.369447 -372.586215 
L 819.722793 -372.564021 
L 817.07614 -372.526177 
L 814.429487 -372.488332 
L 811.782833 -372.48597 
L 809.13618 -372.464908 
L 806.489527 -372.464662 
L 803.842873 -372.447929 
L 801.19622 -372.417172 
L 798.549567 -372.440892 
L 795.902913 -372.408658 
L 793.25626 -372.411513 
L 790.609607 -372.338679 
L 787.962953 -372.273424 
L 785.3163 -372.237696 
L 782.669647 -372.283414 
L 780.022993 -372.25989 
L 777.37634 -372.218405 
L 774.729687 -372.169832 
L 772.083033 -372.164714 
L 769.43638 -372.191043 
L 766.789727 -372.168799 
L 764.143073 -372.164616 
L 761.49642 -372.140699 
L 758.849767 -372.152953 
L 756.203113 -372.117815 
L 753.55646 -372.032679 
L 750.909807 -371.988929 
L 748.263153 -371.982975 
L 745.6165 -371.960485 
L 742.969847 -371.896066 
L 740.323193 -371.895082 
L 737.67654 -371.868163 
L 735.029887 -371.846461 
L 732.383233 -371.840309 
L 729.73658 -371.816687 
L 727.089927 -371.76969 
L 724.443273 -371.764719 
L 721.79662 -371.715114 
L 719.149967 -371.645971 
L 716.503313 -371.672791 
L 713.85666 -371.654632 
L 711.210007 -371.59543 
L 708.563353 -371.538246 
L 705.9167 -371.501288 
L 703.270047 -371.453257 
L 700.623393 -371.439822 
L 697.97674 -371.384557 
L 695.330087 -371.331654 
L 692.683433 -371.276881 
L 690.03678 -371.250011 
L 687.390127 -371.240759 
L 684.743473 -371.209608 
L 682.09682 -371.185199 
L 679.450167 -371.165711 
L 676.803513 -371.130229 
L 674.15686 -371.060496 
L 671.510207 -371.046864 
L 668.863553 -370.976294 
L 666.2169 -370.932102 
L 663.570247 -370.932545 
L 660.923593 -370.895193 
L 658.27694 -370.838599 
L 655.630287 -370.797802 
L 652.983633 -370.803068 
L 650.33698 -370.777035 
L 647.690327 -370.742685 
L 645.043673 -370.659861 
L 642.39702 -370.586043 
L 639.750367 -370.542195 
L 637.103713 -370.5044 
L 634.45706 -370.489883 
L 631.810407 -370.507058 
L 629.163753 -370.488357 
L 626.5171 -370.483977 
L 623.870447 -370.522067 
L 621.223793 -370.498052 
L 618.57714 -370.480779 
L 615.930487 -370.469165 
L 613.283833 -370.440769 
L 610.63718 -370.41577 
L 607.990527 -370.389293 
L 605.343873 -370.297661 
L 602.69722 -370.25711 
L 600.050567 -370.20342 
L 597.403913 -370.181963 
L 594.75726 -370.170546 
L 592.110607 -370.136147 
L 589.463953 -370.119809 
L 586.8173 -370.06287 
L 584.170647 -370.014593 
L 581.523993 -369.9736 
L 578.87734 -369.923502 
L 576.230687 -369.924929 
L 573.584033 -369.885658 
L 570.93738 -369.826653 
L 568.290727 -369.838168 
L 565.644073 -369.821092 
L 562.99742 -369.836052 
L 560.350767 -369.780984 
L 557.704113 -369.713514 
L 555.05746 -369.661694 
L 552.410807 -369.64447 
L 549.764153 -369.568093 
L 547.1175 -369.52892 
L 544.470847 -369.486057 
L 541.824193 -369.453528 
L 539.17754 -369.427051 
L 536.530887 -369.389749 
L 533.884233 -369.420211 
L 531.23758 -369.41775 
L 528.590927 -369.394572 
L 525.944273 -369.390831 
L 523.29762 -369.390241 
L 520.650967 -369.274051 
L 518.004313 -369.241178 
L 515.35766 -369.212438 
L 512.711007 -369.171789 
L 510.064353 -369.13301 
L 507.4177 -369.079615 
L 504.771047 -368.992165 
L 502.124393 -368.973415 
L 499.47774 -368.963573 
L 496.831087 -368.926713 
L 494.184433 -368.833949 
L 491.53778 -368.822925 
L 488.891127 -368.742513 
L 486.244473 -368.72022 
L 483.59782 -368.704177 
L 480.951167 -368.649502 
L 478.304513 -368.615743 
L 475.65786 -368.465252 
L 473.011207 -368.435578 
L 470.364553 -368.408659 
L 467.7179 -368.364319 
L 465.071247 -368.34114 
L 462.424593 -368.34552 
L 459.77794 -368.297095 
L 457.131287 -368.145325 
L 454.484633 -368.1438 
L 451.83798 -368.134843 
L 449.191327 -368.043653 
L 446.544673 -367.968703 
L 443.89802 -367.946361 
L 441.251367 -367.898675 
L 438.604713 -367.813144 
L 435.95806 -367.752417 
L 433.311407 -367.693018 
L 430.664753 -367.661473 
L 428.0181 -367.587753 
L 425.371447 -367.582832 
L 422.724793 -367.478749 
L 420.07814 -367.421712 
L 417.431487 -367.329833 
L 414.784833 -367.309509 
L 412.13818 -367.180278 
L 409.491527 -367.128999 
L 406.844873 -367.039975 
L 404.19822 -366.936974 
L 401.551567 -366.919012 
L 398.904913 -366.95031 
L 396.25826 -366.885843 
L 393.611607 -366.854839 
L 390.964953 -366.811287 
L 388.3183 -366.716701 
L 385.671647 -366.618819 
L 383.024993 -366.577825 
L 380.37834 -366.548002 
L 377.731687 -366.480976 
L 375.085033 -366.482895 
L 372.43838 -366.515769 
L 369.791727 -366.376154 
L 367.145073 -366.227829 
L 364.49842 -366.295939 
L 361.851767 -366.265575 
L 359.205113 -366.166019 
L 356.55846 -366.116167 
L 353.911807 -366.015381 
L 351.265153 -366.010312 
L 348.6185 -365.942793 
L 345.971847 -365.905983 
L 343.325193 -365.837184 
L 340.67854 -365.766614 
L 338.031887 -365.629805 
L 335.385233 -365.52336 
L 332.73858 -365.323805 
L 330.091927 -365.298018 
L 327.445273 -365.149988 
L 324.79862 -365.001122 
L 322.151967 -364.92381 
L 319.505313 -364.818447 
L 316.85866 -364.786164 
L 314.212007 -364.699649 
L 311.565353 -364.665791 
L 308.9187 -364.532083 
L 306.272047 -364.417025 
L 303.625393 -364.294733 
L 300.97874 -364.252411 
L 298.332087 -364.143111 
L 295.685433 -364.084253 
L 293.03878 -363.970131 
L 290.392127 -363.879974 
L 287.745473 -363.793853 
L 285.09882 -363.764129 
L 282.452167 -363.748136 
L 279.805513 -363.718756 
L 277.15886 -363.587065 
L 274.512207 -363.477125 
L 271.865553 -363.302423 
L 269.2189 -363.155672 
L 266.572247 -363.183871 
L 263.925593 -363.099472 
L 261.27894 -362.919012 
L 258.632287 -362.714339 
L 255.985633 -362.578957 
L 253.33898 -362.555286 
L 250.692327 -362.441606 
L 248.045673 -362.340525 
L 245.39902 -362.294807 
L 242.752367 -362.129996 
L 240.105713 -362.120843 
L 237.45906 -361.986888 
L 234.812407 -361.935264 
L 232.165753 -361.824488 
L 229.5191 -361.789154 
L 226.872447 -361.696143 
L 224.225793 -361.424247 
L 221.57914 -361.265686 
L 218.932487 -361.145707 
L 216.285833 -360.865051 
L 213.63918 -360.656934 
L 210.992527 -360.503146 
L 208.345873 -360.343552 
L 205.69922 -360.193012 
L 203.052567 -360.09508 
L 200.405913 -359.931844 
L 197.75926 -359.96147 
L 195.112607 -359.734652 
L 192.465953 -359.470531 
L 189.8193 -359.403504 
L 187.172647 -359.16768 
L 184.525993 -359.112612 
L 181.87934 -358.807498 
L 179.232687 -358.401893 
L 176.586033 -358.188952 
L 173.93938 -357.854852 
L 171.292727 -357.508449 
L 168.646073 -357.236651 
L 165.99942 -357.037343 
L 163.352767 -356.948859 
L 160.706113 -356.725289 
L 158.05946 -356.323818 
L 155.412807 -356.019688 
L 152.766153 -355.773185 
L 150.1195 -355.600599 
L 147.472847 -355.310592 
L 144.826193 -354.886877 
L 142.17954 -354.878856 
L 139.532887 -354.65873 
L 136.886233 -354.509224 
L 134.23958 -354.096139 
L 131.592927 -353.66952 
L 128.946273 -353.730149 
L 126.29962 -353.519325 
L 123.652967 -353.069232 
L 121.006313 -352.780112 
L 118.35966 -352.654867 
L 115.713007 -352.282972 
L 113.066353 -351.683964 
L 110.4197 -351.432195 
L 107.773047 -351.239629 
L 105.126393 -351.057052 
L 102.47974 -350.198795 
L 99.833087 -349.570211 
L 97.186433 -348.971596 
L 94.53978 -348.680015 
L 91.893127 -348.122443 
L 89.246473 -347.612804 
L 86.59982 -347.070266 
L 83.953167 -346.170769 
L 81.306513 -344.899968 
L 78.65986 -344.013537 
L 76.013207 -343.013082 
L 73.366553 -341.256534 
L 70.7199 -339.671809 
L 68.073247 -337.158504 
L 65.426593 -334.036938 
L 62.77994 -331.06227 
L 60.133287 -327.004373 
L 57.486633 -320.742762 
L 54.83998 -313.554195 
L 52.193327 -312.82758 
z
" style="stroke: #0000ff; stroke-opacity: 0.2"/>
    </defs>
    <g clip-path="url(#p29738dfea1)">
     <use xlink:href="#mc6f0f01753" x="0" y="432" style="fill: #0000ff; fill-opacity: 0.2; stroke: #0000ff; stroke-opacity: 0.2"/>
    </g>
   </g>
   <g id="matplotlib.axis_1">
    <g id="xtick_1">
     <g id="line2d_1">
      <defs>
       <path id="m8bf83e930b" d="M 0 0 
L 0 3.5 
" style="stroke: #000000; stroke-width: 0.8"/>
      </defs>
      <g>
       <use xlink:href="#m8bf83e930b" x="181.87934" y="390.04" style="stroke: #000000; stroke-width: 0.8"/>
      </g>
     </g>
     <g id="text_1">
      <!-- 50 -->
      <g transform="translate(175.51684 404.638438) scale(0.1 -0.1)">
       <defs>
        <path id="DejaVuSans-35" d="M 691 4666 
L 3169 4666 
L 3169 4134 
L 1269 4134 
L 1269 2991 
Q 1406 3038 1543 3061 
Q 1681 3084 1819 3084 
Q 2600 3084 3056 2656 
Q 3513 2228 3513 1497 
Q 3513 744 3044 326 
Q 2575 -91 1722 -91 
Q 1428 -91 1123 -41 
Q 819 9 494 109 
L 494 744 
Q 775 591 1075 516 
Q 1375 441 1709 441 
Q 2250 441 2565 725 
Q 2881 1009 2881 1497 
Q 2881 1984 2565 2268 
Q 2250 2553 1709 2553 
Q 1456 2553 1204 2497 
Q 953 2441 691 2322 
L 691 4666 
z
" transform="scale(0.015625)"/>
        <path id="DejaVuSans-30" d="M 2034 4250 
Q 1547 4250 1301 3770 
Q 1056 3291 1056 2328 
Q 1056 1369 1301 889 
Q 1547 409 2034 409 
Q 2525 409 2770 889 
Q 3016 1369 3016 2328 
Q 3016 3291 2770 3770 
Q 2525 4250 2034 4250 
z
M 2034 4750 
Q 2819 4750 3233 4129 
Q 3647 3509 3647 2328 
Q 3647 1150 3233 529 
Q 2819 -91 2034 -91 
Q 1250 -91 836 529 
Q 422 1150 422 2328 
Q 422 3509 836 4129 
Q 1250 4750 2034 4750 
z
" transform="scale(0.015625)"/>
       </defs>
       <use xlink:href="#DejaVuSans-35"/>
       <use xlink:href="#DejaVuSans-30" transform="translate(63.623047 0)"/>
      </g>
     </g>
    </g>
    <g id="xtick_2">
     <g id="line2d_2">
      <g>
       <use xlink:href="#m8bf83e930b" x="314.212007" y="390.04" style="stroke: #000000; stroke-width: 0.8"/>
      </g>
     </g>
     <g id="text_2">
      <!-- 100 -->
      <g transform="translate(304.668257 404.638438) scale(0.1 -0.1)">
       <defs>
        <path id="DejaVuSans-31" d="M 794 531 
L 1825 531 
L 1825 4091 
L 703 3866 
L 703 4441 
L 1819 4666 
L 2450 4666 
L 2450 531 
L 3481 531 
L 3481 0 
L 794 0 
L 794 531 
z
" transform="scale(0.015625)"/>
       </defs>
       <use xlink:href="#DejaVuSans-31"/>
       <use xlink:href="#DejaVuSans-30" transform="translate(63.623047 0)"/>
       <use xlink:href="#DejaVuSans-30" transform="translate(127.246094 0)"/>
      </g>
     </g>
    </g>
    <g id="xtick_3">
     <g id="line2d_3">
      <g>
       <use xlink:href="#m8bf83e930b" x="446.544673" y="390.04" style="stroke: #000000; stroke-width: 0.8"/>
      </g>
     </g>
     <g id="text_3">
      <!-- 150 -->
      <g transform="translate(437.000923 404.638438) scale(0.1 -0.1)">
       <use xlink:href="#DejaVuSans-31"/>
       <use xlink:href="#DejaVuSans-35" transform="translate(63.623047 0)"/>
       <use xlink:href="#DejaVuSans-30" transform="translate(127.246094 0)"/>
      </g>
     </g>
    </g>
    <g id="xtick_4">
     <g id="line2d_4">
      <g>
       <use xlink:href="#m8bf83e930b" x="578.87734" y="390.04" style="stroke: #000000; stroke-width: 0.8"/>
      </g>
     </g>
     <g id="text_4">
      <!-- 200 -->
      <g transform="translate(569.33359 404.638438) scale(0.1 -0.1)">
       <defs>
        <path id="DejaVuSans-32" d="M 1228 531 
L 3431 531 
L 3431 0 
L 469 0 
L 469 531 
Q 828 903 1448 1529 
Q 2069 2156 2228 2338 
Q 2531 2678 2651 2914 
Q 2772 3150 2772 3378 
Q 2772 3750 2511 3984 
Q 2250 4219 1831 4219 
Q 1534 4219 1204 4116 
Q 875 4013 500 3803 
L 500 4441 
Q 881 4594 1212 4672 
Q 1544 4750 1819 4750 
Q 2544 4750 2975 4387 
Q 3406 4025 3406 3419 
Q 3406 3131 3298 2873 
Q 3191 2616 2906 2266 
Q 2828 2175 2409 1742 
Q 1991 1309 1228 531 
z
" transform="scale(0.015625)"/>
       </defs>
       <use xlink:href="#DejaVuSans-32"/>
       <use xlink:href="#DejaVuSans-30" transform="translate(63.623047 0)"/>
       <use xlink:href="#DejaVuSans-30" transform="translate(127.246094 0)"/>
      </g>
     </g>
    </g>
    <g id="xtick_5">
     <g id="line2d_5">
      <g>
       <use xlink:href="#m8bf83e930b" x="711.210007" y="390.04" style="stroke: #000000; stroke-width: 0.8"/>
      </g>
     </g>
     <g id="text_5">
      <!-- 250 -->
      <g transform="translate(701.666257 404.638438) scale(0.1 -0.1)">
       <use xlink:href="#DejaVuSans-32"/>
       <use xlink:href="#DejaVuSans-35" transform="translate(63.623047 0)"/>
       <use xlink:href="#DejaVuSans-30" transform="translate(127.246094 0)"/>
      </g>
     </g>
    </g>
    <g id="xtick_6">
     <g id="line2d_6">
      <g>
       <use xlink:href="#m8bf83e930b" x="843.542673" y="390.04" style="stroke: #000000; stroke-width: 0.8"/>
      </g>
     </g>
     <g id="text_6">
      <!-- 300 -->
      <g transform="translate(833.998923 404.638438) scale(0.1 -0.1)">
       <defs>
        <path id="DejaVuSans-33" d="M 2597 2516 
Q 3050 2419 3304 2112 
Q 3559 1806 3559 1356 
Q 3559 666 3084 287 
Q 2609 -91 1734 -91 
Q 1441 -91 1130 -33 
Q 819 25 488 141 
L 488 750 
Q 750 597 1062 519 
Q 1375 441 1716 441 
Q 2309 441 2620 675 
Q 2931 909 2931 1356 
Q 2931 1769 2642 2001 
Q 2353 2234 1838 2234 
L 1294 2234 
L 1294 2753 
L 1863 2753 
Q 2328 2753 2575 2939 
Q 2822 3125 2822 3475 
Q 2822 3834 2567 4026 
Q 2313 4219 1838 4219 
Q 1578 4219 1281 4162 
Q 984 4106 628 3988 
L 628 4550 
Q 988 4650 1302 4700 
Q 1616 4750 1894 4750 
Q 2613 4750 3031 4423 
Q 3450 4097 3450 3541 
Q 3450 3153 3228 2886 
Q 3006 2619 2597 2516 
z
" transform="scale(0.015625)"/>
       </defs>
       <use xlink:href="#DejaVuSans-33"/>
       <use xlink:href="#DejaVuSans-30" transform="translate(63.623047 0)"/>
       <use xlink:href="#DejaVuSans-30" transform="translate(127.246094 0)"/>
      </g>
     </g>
    </g>
    <g id="text_7">
     <!-- Step -->
     <g transform="translate(436.482844 418.316562) scale(0.1 -0.1)">
      <defs>
       <path id="DejaVuSans-53" d="M 3425 4513 
L 3425 3897 
Q 3066 4069 2747 4153 
Q 2428 4238 2131 4238 
Q 1616 4238 1336 4038 
Q 1056 3838 1056 3469 
Q 1056 3159 1242 3001 
Q 1428 2844 1947 2747 
L 2328 2669 
Q 3034 2534 3370 2195 
Q 3706 1856 3706 1288 
Q 3706 609 3251 259 
Q 2797 -91 1919 -91 
Q 1588 -91 1214 -16 
Q 841 59 441 206 
L 441 856 
Q 825 641 1194 531 
Q 1563 422 1919 422 
Q 2459 422 2753 634 
Q 3047 847 3047 1241 
Q 3047 1584 2836 1778 
Q 2625 1972 2144 2069 
L 1759 2144 
Q 1053 2284 737 2584 
Q 422 2884 422 3419 
Q 422 4038 858 4394 
Q 1294 4750 2059 4750 
Q 2388 4750 2728 4690 
Q 3069 4631 3425 4513 
z
" transform="scale(0.015625)"/>
       <path id="DejaVuSans-74" d="M 1172 4494 
L 1172 3500 
L 2356 3500 
L 2356 3053 
L 1172 3053 
L 1172 1153 
Q 1172 725 1289 603 
Q 1406 481 1766 481 
L 2356 481 
L 2356 0 
L 1766 0 
Q 1100 0 847 248 
Q 594 497 594 1153 
L 594 3053 
L 172 3053 
L 172 3500 
L 594 3500 
L 594 4494 
L 1172 4494 
z
" transform="scale(0.015625)"/>
       <path id="DejaVuSans-65" d="M 3597 1894 
L 3597 1613 
L 953 1613 
Q 991 1019 1311 708 
Q 1631 397 2203 397 
Q 2534 397 2845 478 
Q 3156 559 3463 722 
L 3463 178 
Q 3153 47 2828 -22 
Q 2503 -91 2169 -91 
Q 1331 -91 842 396 
Q 353 884 353 1716 
Q 353 2575 817 3079 
Q 1281 3584 2069 3584 
Q 2775 3584 3186 3129 
Q 3597 2675 3597 1894 
z
M 3022 2063 
Q 3016 2534 2758 2815 
Q 2500 3097 2075 3097 
Q 1594 3097 1305 2825 
Q 1016 2553 972 2059 
L 3022 2063 
z
" transform="scale(0.015625)"/>
       <path id="DejaVuSans-70" d="M 1159 525 
L 1159 -1331 
L 581 -1331 
L 581 3500 
L 1159 3500 
L 1159 2969 
Q 1341 3281 1617 3432 
Q 1894 3584 2278 3584 
Q 2916 3584 3314 3078 
Q 3713 2572 3713 1747 
Q 3713 922 3314 415 
Q 2916 -91 2278 -91 
Q 1894 -91 1617 61 
Q 1341 213 1159 525 
z
M 3116 1747 
Q 3116 2381 2855 2742 
Q 2594 3103 2138 3103 
Q 1681 3103 1420 2742 
Q 1159 2381 1159 1747 
Q 1159 1113 1420 752 
Q 1681 391 2138 391 
Q 2594 391 2855 752 
Q 3116 1113 3116 1747 
z
" transform="scale(0.015625)"/>
      </defs>
      <use xlink:href="#DejaVuSans-53"/>
      <use xlink:href="#DejaVuSans-74" transform="translate(63.476562 0)"/>
      <use xlink:href="#DejaVuSans-65" transform="translate(102.685547 0)"/>
      <use xlink:href="#DejaVuSans-70" transform="translate(164.208984 0)"/>
     </g>
    </g>
   </g>
   <g id="matplotlib.axis_2">
    <g id="ytick_1">
     <g id="line2d_7">
      <defs>
       <path id="m94317918d3" d="M 0 0 
L -3.5 0 
" style="stroke: #000000; stroke-width: 0.8"/>
      </defs>
      <g>
       <use xlink:href="#m94317918d3" x="50.87" y="376.429793" style="stroke: #000000; stroke-width: 0.8"/>
      </g>
     </g>
     <g id="text_8">
      <!-- 75 -->
      <g transform="translate(31.145 380.229012) scale(0.1 -0.1)">
       <defs>
        <path id="DejaVuSans-37" d="M 525 4666 
L 3525 4666 
L 3525 4397 
L 1831 0 
L 1172 0 
L 2766 4134 
L 525 4134 
L 525 4666 
z
" transform="scale(0.015625)"/>
       </defs>
       <use xlink:href="#DejaVuSans-37"/>
       <use xlink:href="#DejaVuSans-35" transform="translate(63.623047 0)"/>
      </g>
     </g>
    </g>
    <g id="ytick_2">
     <g id="line2d_8">
      <g>
       <use xlink:href="#m94317918d3" x="50.87" y="336.115331" style="stroke: #000000; stroke-width: 0.8"/>
      </g>
     </g>
     <g id="text_9">
      <!-- 100 -->
      <g transform="translate(24.7825 339.91455) scale(0.1 -0.1)">
       <use xlink:href="#DejaVuSans-31"/>
       <use xlink:href="#DejaVuSans-30" transform="translate(63.623047 0)"/>
       <use xlink:href="#DejaVuSans-30" transform="translate(127.246094 0)"/>
      </g>
     </g>
    </g>
    <g id="ytick_3">
     <g id="line2d_9">
      <g>
       <use xlink:href="#m94317918d3" x="50.87" y="295.80087" style="stroke: #000000; stroke-width: 0.8"/>
      </g>
     </g>
     <g id="text_10">
      <!-- 125 -->
      <g transform="translate(24.7825 299.600088) scale(0.1 -0.1)">
       <use xlink:href="#DejaVuSans-31"/>
       <use xlink:href="#DejaVuSans-32" transform="translate(63.623047 0)"/>
       <use xlink:href="#DejaVuSans-35" transform="translate(127.246094 0)"/>
      </g>
     </g>
    </g>
    <g id="ytick_4">
     <g id="line2d_10">
      <g>
       <use xlink:href="#m94317918d3" x="50.87" y="255.486408" style="stroke: #000000; stroke-width: 0.8"/>
      </g>
     </g>
     <g id="text_11">
      <!-- 150 -->
      <g transform="translate(24.7825 259.285627) scale(0.1 -0.1)">
       <use xlink:href="#DejaVuSans-31"/>
       <use xlink:href="#DejaVuSans-35" transform="translate(63.623047 0)"/>
       <use xlink:href="#DejaVuSans-30" transform="translate(127.246094 0)"/>
      </g>
     </g>
    </g>
    <g id="ytick_5">
     <g id="line2d_11">
      <g>
       <use xlink:href="#m94317918d3" x="50.87" y="215.171946" style="stroke: #000000; stroke-width: 0.8"/>
      </g>
     </g>
     <g id="text_12">
      <!-- 175 -->
      <g transform="translate(24.7825 218.971165) scale(0.1 -0.1)">
       <use xlink:href="#DejaVuSans-31"/>
       <use xlink:href="#DejaVuSans-37" transform="translate(63.623047 0)"/>
       <use xlink:href="#DejaVuSans-35" transform="translate(127.246094 0)"/>
      </g>
     </g>
    </g>
    <g id="ytick_6">
     <g id="line2d_12">
      <g>
       <use xlink:href="#m94317918d3" x="50.87" y="174.857484" style="stroke: #000000; stroke-width: 0.8"/>
      </g>
     </g>
     <g id="text_13">
      <!-- 200 -->
      <g transform="translate(24.7825 178.656703) scale(0.1 -0.1)">
       <use xlink:href="#DejaVuSans-32"/>
       <use xlink:href="#DejaVuSans-30" transform="translate(63.623047 0)"/>
       <use xlink:href="#DejaVuSans-30" transform="translate(127.246094 0)"/>
      </g>
     </g>
    </g>
    <g id="ytick_7">
     <g id="line2d_13">
      <g>
       <use xlink:href="#m94317918d3" x="50.87" y="134.543023" style="stroke: #000000; stroke-width: 0.8"/>
      </g>
     </g>
     <g id="text_14">
      <!-- 225 -->
      <g transform="translate(24.7825 138.342241) scale(0.1 -0.1)">
       <use xlink:href="#DejaVuSans-32"/>
       <use xlink:href="#DejaVuSans-32" transform="translate(63.623047 0)"/>
       <use xlink:href="#DejaVuSans-35" transform="translate(127.246094 0)"/>
      </g>
     </g>
    </g>
    <g id="ytick_8">
     <g id="line2d_14">
      <g>
       <use xlink:href="#m94317918d3" x="50.87" y="94.228561" style="stroke: #000000; stroke-width: 0.8"/>
      </g>
     </g>
     <g id="text_15">
      <!-- 250 -->
      <g transform="translate(24.7825 98.02778) scale(0.1 -0.1)">
       <use xlink:href="#DejaVuSans-32"/>
       <use xlink:href="#DejaVuSans-35" transform="translate(63.623047 0)"/>
       <use xlink:href="#DejaVuSans-30" transform="translate(127.246094 0)"/>
      </g>
     </g>
    </g>
    <g id="ytick_9">
     <g id="line2d_15">
      <g>
       <use xlink:href="#m94317918d3" x="50.87" y="53.914099" style="stroke: #000000; stroke-width: 0.8"/>
      </g>
     </g>
     <g id="text_16">
      <!-- 275 -->
      <g transform="translate(24.7825 57.713318) scale(0.1 -0.1)">
       <use xlink:href="#DejaVuSans-32"/>
       <use xlink:href="#DejaVuSans-37" transform="translate(63.623047 0)"/>
       <use xlink:href="#DejaVuSans-35" transform="translate(127.246094 0)"/>
      </g>
     </g>
    </g>
    <g id="text_17">
     <!-- Profit -->
     <g transform="translate(18.702813 229.779063) rotate(-90) scale(0.1 -0.1)">
      <defs>
       <path id="DejaVuSans-50" d="M 1259 4147 
L 1259 2394 
L 2053 2394 
Q 2494 2394 2734 2622 
Q 2975 2850 2975 3272 
Q 2975 3691 2734 3919 
Q 2494 4147 2053 4147 
L 1259 4147 
z
M 628 4666 
L 2053 4666 
Q 2838 4666 3239 4311 
Q 3641 3956 3641 3272 
Q 3641 2581 3239 2228 
Q 2838 1875 2053 1875 
L 1259 1875 
L 1259 0 
L 628 0 
L 628 4666 
z
" transform="scale(0.015625)"/>
       <path id="DejaVuSans-72" d="M 2631 2963 
Q 2534 3019 2420 3045 
Q 2306 3072 2169 3072 
Q 1681 3072 1420 2755 
Q 1159 2438 1159 1844 
L 1159 0 
L 581 0 
L 581 3500 
L 1159 3500 
L 1159 2956 
Q 1341 3275 1631 3429 
Q 1922 3584 2338 3584 
Q 2397 3584 2469 3576 
Q 2541 3569 2628 3553 
L 2631 2963 
z
" transform="scale(0.015625)"/>
       <path id="DejaVuSans-6f" d="M 1959 3097 
Q 1497 3097 1228 2736 
Q 959 2375 959 1747 
Q 959 1119 1226 758 
Q 1494 397 1959 397 
Q 2419 397 2687 759 
Q 2956 1122 2956 1747 
Q 2956 2369 2687 2733 
Q 2419 3097 1959 3097 
z
M 1959 3584 
Q 2709 3584 3137 3096 
Q 3566 2609 3566 1747 
Q 3566 888 3137 398 
Q 2709 -91 1959 -91 
Q 1206 -91 779 398 
Q 353 888 353 1747 
Q 353 2609 779 3096 
Q 1206 3584 1959 3584 
z
" transform="scale(0.015625)"/>
       <path id="DejaVuSans-66" d="M 2375 4863 
L 2375 4384 
L 1825 4384 
Q 1516 4384 1395 4259 
Q 1275 4134 1275 3809 
L 1275 3500 
L 2222 3500 
L 2222 3053 
L 1275 3053 
L 1275 0 
L 697 0 
L 697 3053 
L 147 3053 
L 147 3500 
L 697 3500 
L 697 3744 
Q 697 4328 969 4595 
Q 1241 4863 1831 4863 
L 2375 4863 
z
" transform="scale(0.015625)"/>
       <path id="DejaVuSans-69" d="M 603 3500 
L 1178 3500 
L 1178 0 
L 603 0 
L 603 3500 
z
M 603 4863 
L 1178 4863 
L 1178 4134 
L 603 4134 
L 603 4863 
z
" transform="scale(0.015625)"/>
      </defs>
      <use xlink:href="#DejaVuSans-50"/>
      <use xlink:href="#DejaVuSans-72" transform="translate(58.552734 0)"/>
      <use xlink:href="#DejaVuSans-6f" transform="translate(97.416016 0)"/>
      <use xlink:href="#DejaVuSans-66" transform="translate(158.597656 0)"/>
      <use xlink:href="#DejaVuSans-69" transform="translate(193.802734 0)"/>
      <use xlink:href="#DejaVuSans-74" transform="translate(221.585938 0)"/>
     </g>
    </g>
   </g>
   <g id="line2d_16">
    <path d="M 52.193327 246.728937 
L 54.83998 246.282929 
L 57.486633 234.997783 
L 60.133287 224.638389 
L 62.77994 215.772308 
L 65.426593 208.092777 
L 68.073247 201.634884 
L 70.7199 196.168392 
L 76.013207 186.54949 
L 78.65986 182.454634 
L 81.306513 178.887208 
L 86.59982 172.749907 
L 91.893127 167.765175 
L 94.53978 165.616186 
L 99.833087 161.799846 
L 105.126393 158.324372 
L 107.773047 156.777418 
L 115.713007 152.561254 
L 121.006313 150.188351 
L 131.592927 146.051517 
L 136.886233 144.307223 
L 150.1195 140.351686 
L 158.05946 138.387562 
L 179.232687 133.889487 
L 184.525993 133.006403 
L 189.8193 132.186408 
L 195.112607 131.407776 
L 203.052567 130.080652 
L 234.812407 125.989462 
L 250.692327 124.275704 
L 279.805513 121.675539 
L 285.09882 121.162578 
L 335.385233 117.792959 
L 388.3183 114.958053 
L 430.664753 113.066148 
L 443.89802 112.603014 
L 451.83798 112.310719 
L 486.244473 111.282016 
L 496.831087 110.976041 
L 507.4177 110.674199 
L 557.704113 109.235142 
L 658.27694 107.198897 
L 668.863553 106.948581 
L 679.450167 106.757097 
L 695.330087 106.483749 
L 798.549567 105.021316 
L 843.542673 104.442878 
L 843.542673 104.442878 
" clip-path="url(#p29738dfea1)" style="fill: none; stroke: #0000ff; stroke-width: 1.5; stroke-linecap: square"/>
   </g>
   <g id="patch_3">
    <path d="M 50.87 390.04 
L 50.87 43.44 
" style="fill: none; stroke: #000000; stroke-width: 0.8; stroke-linejoin: miter; stroke-linecap: square"/>
   </g>
   <g id="patch_4">
    <path d="M 844.866 390.04 
L 844.866 43.44 
" style="fill: none; stroke: #000000; stroke-width: 0.8; stroke-linejoin: miter; stroke-linecap: square"/>
   </g>
   <g id="patch_5">
    <path d="M 50.87 390.04 
L 844.866 390.04 
" style="fill: none; stroke: #000000; stroke-width: 0.8; stroke-linejoin: miter; stroke-linecap: square"/>
   </g>
   <g id="patch_6">
    <path d="M 50.87 43.44 
L 844.866 43.44 
" style="fill: none; stroke: #000000; stroke-width: 0.8; stroke-linejoin: miter; stroke-linecap: square"/>
   </g>
   <g id="text_18">
    <!-- Mean profit per step with confidence interval per simulation step -->
    <g transform="translate(220.284875 21.763062) scale(0.14 -0.14)">
     <defs>
      <path id="DejaVuSans-4d" d="M 628 4666 
L 1569 4666 
L 2759 1491 
L 3956 4666 
L 4897 4666 
L 4897 0 
L 4281 0 
L 4281 4097 
L 3078 897 
L 2444 897 
L 1241 4097 
L 1241 0 
L 628 0 
L 628 4666 
z
" transform="scale(0.015625)"/>
      <path id="DejaVuSans-61" d="M 2194 1759 
Q 1497 1759 1228 1600 
Q 959 1441 959 1056 
Q 959 750 1161 570 
Q 1363 391 1709 391 
Q 2188 391 2477 730 
Q 2766 1069 2766 1631 
L 2766 1759 
L 2194 1759 
z
M 3341 1997 
L 3341 0 
L 2766 0 
L 2766 531 
Q 2569 213 2275 61 
Q 1981 -91 1556 -91 
Q 1019 -91 701 211 
Q 384 513 384 1019 
Q 384 1609 779 1909 
Q 1175 2209 1959 2209 
L 2766 2209 
L 2766 2266 
Q 2766 2663 2505 2880 
Q 2244 3097 1772 3097 
Q 1472 3097 1187 3025 
Q 903 2953 641 2809 
L 641 3341 
Q 956 3463 1253 3523 
Q 1550 3584 1831 3584 
Q 2591 3584 2966 3190 
Q 3341 2797 3341 1997 
z
" transform="scale(0.015625)"/>
      <path id="DejaVuSans-6e" d="M 3513 2113 
L 3513 0 
L 2938 0 
L 2938 2094 
Q 2938 2591 2744 2837 
Q 2550 3084 2163 3084 
Q 1697 3084 1428 2787 
Q 1159 2491 1159 1978 
L 1159 0 
L 581 0 
L 581 3500 
L 1159 3500 
L 1159 2956 
Q 1366 3272 1645 3428 
Q 1925 3584 2291 3584 
Q 2894 3584 3203 3211 
Q 3513 2838 3513 2113 
z
" transform="scale(0.015625)"/>
      <path id="DejaVuSans-20" transform="scale(0.015625)"/>
      <path id="DejaVuSans-73" d="M 2834 3397 
L 2834 2853 
Q 2591 2978 2328 3040 
Q 2066 3103 1784 3103 
Q 1356 3103 1142 2972 
Q 928 2841 928 2578 
Q 928 2378 1081 2264 
Q 1234 2150 1697 2047 
L 1894 2003 
Q 2506 1872 2764 1633 
Q 3022 1394 3022 966 
Q 3022 478 2636 193 
Q 2250 -91 1575 -91 
Q 1294 -91 989 -36 
Q 684 19 347 128 
L 347 722 
Q 666 556 975 473 
Q 1284 391 1588 391 
Q 1994 391 2212 530 
Q 2431 669 2431 922 
Q 2431 1156 2273 1281 
Q 2116 1406 1581 1522 
L 1381 1569 
Q 847 1681 609 1914 
Q 372 2147 372 2553 
Q 372 3047 722 3315 
Q 1072 3584 1716 3584 
Q 2034 3584 2315 3537 
Q 2597 3491 2834 3397 
z
" transform="scale(0.015625)"/>
      <path id="DejaVuSans-77" d="M 269 3500 
L 844 3500 
L 1563 769 
L 2278 3500 
L 2956 3500 
L 3675 769 
L 4391 3500 
L 4966 3500 
L 4050 0 
L 3372 0 
L 2619 2869 
L 1863 0 
L 1184 0 
L 269 3500 
z
" transform="scale(0.015625)"/>
      <path id="DejaVuSans-68" d="M 3513 2113 
L 3513 0 
L 2938 0 
L 2938 2094 
Q 2938 2591 2744 2837 
Q 2550 3084 2163 3084 
Q 1697 3084 1428 2787 
Q 1159 2491 1159 1978 
L 1159 0 
L 581 0 
L 581 4863 
L 1159 4863 
L 1159 2956 
Q 1366 3272 1645 3428 
Q 1925 3584 2291 3584 
Q 2894 3584 3203 3211 
Q 3513 2838 3513 2113 
z
" transform="scale(0.015625)"/>
      <path id="DejaVuSans-63" d="M 3122 3366 
L 3122 2828 
Q 2878 2963 2633 3030 
Q 2388 3097 2138 3097 
Q 1578 3097 1268 2742 
Q 959 2388 959 1747 
Q 959 1106 1268 751 
Q 1578 397 2138 397 
Q 2388 397 2633 464 
Q 2878 531 3122 666 
L 3122 134 
Q 2881 22 2623 -34 
Q 2366 -91 2075 -91 
Q 1284 -91 818 406 
Q 353 903 353 1747 
Q 353 2603 823 3093 
Q 1294 3584 2113 3584 
Q 2378 3584 2631 3529 
Q 2884 3475 3122 3366 
z
" transform="scale(0.015625)"/>
      <path id="DejaVuSans-64" d="M 2906 2969 
L 2906 4863 
L 3481 4863 
L 3481 0 
L 2906 0 
L 2906 525 
Q 2725 213 2448 61 
Q 2172 -91 1784 -91 
Q 1150 -91 751 415 
Q 353 922 353 1747 
Q 353 2572 751 3078 
Q 1150 3584 1784 3584 
Q 2172 3584 2448 3432 
Q 2725 3281 2906 2969 
z
M 947 1747 
Q 947 1113 1208 752 
Q 1469 391 1925 391 
Q 2381 391 2643 752 
Q 2906 1113 2906 1747 
Q 2906 2381 2643 2742 
Q 2381 3103 1925 3103 
Q 1469 3103 1208 2742 
Q 947 2381 947 1747 
z
" transform="scale(0.015625)"/>
      <path id="DejaVuSans-76" d="M 191 3500 
L 800 3500 
L 1894 563 
L 2988 3500 
L 3597 3500 
L 2284 0 
L 1503 0 
L 191 3500 
z
" transform="scale(0.015625)"/>
      <path id="DejaVuSans-6c" d="M 603 4863 
L 1178 4863 
L 1178 0 
L 603 0 
L 603 4863 
z
" transform="scale(0.015625)"/>
      <path id="DejaVuSans-6d" d="M 3328 2828 
Q 3544 3216 3844 3400 
Q 4144 3584 4550 3584 
Q 5097 3584 5394 3201 
Q 5691 2819 5691 2113 
L 5691 0 
L 5113 0 
L 5113 2094 
Q 5113 2597 4934 2840 
Q 4756 3084 4391 3084 
Q 3944 3084 3684 2787 
Q 3425 2491 3425 1978 
L 3425 0 
L 2847 0 
L 2847 2094 
Q 2847 2600 2669 2842 
Q 2491 3084 2119 3084 
Q 1678 3084 1418 2786 
Q 1159 2488 1159 1978 
L 1159 0 
L 581 0 
L 581 3500 
L 1159 3500 
L 1159 2956 
Q 1356 3278 1631 3431 
Q 1906 3584 2284 3584 
Q 2666 3584 2933 3390 
Q 3200 3197 3328 2828 
z
" transform="scale(0.015625)"/>
      <path id="DejaVuSans-75" d="M 544 1381 
L 544 3500 
L 1119 3500 
L 1119 1403 
Q 1119 906 1312 657 
Q 1506 409 1894 409 
Q 2359 409 2629 706 
Q 2900 1003 2900 1516 
L 2900 3500 
L 3475 3500 
L 3475 0 
L 2900 0 
L 2900 538 
Q 2691 219 2414 64 
Q 2138 -91 1772 -91 
Q 1169 -91 856 284 
Q 544 659 544 1381 
z
M 1991 3584 
L 1991 3584 
z
" transform="scale(0.015625)"/>
     </defs>
     <use xlink:href="#DejaVuSans-4d"/>
     <use xlink:href="#DejaVuSans-65" transform="translate(86.279297 0)"/>
     <use xlink:href="#DejaVuSans-61" transform="translate(147.802734 0)"/>
     <use xlink:href="#DejaVuSans-6e" transform="translate(209.082031 0)"/>
     <use xlink:href="#DejaVuSans-20" transform="translate(272.460938 0)"/>
     <use xlink:href="#DejaVuSans-70" transform="translate(304.248047 0)"/>
     <use xlink:href="#DejaVuSans-72" transform="translate(367.724609 0)"/>
     <use xlink:href="#DejaVuSans-6f" transform="translate(406.587891 0)"/>
     <use xlink:href="#DejaVuSans-66" transform="translate(467.769531 0)"/>
     <use xlink:href="#DejaVuSans-69" transform="translate(502.974609 0)"/>
     <use xlink:href="#DejaVuSans-74" transform="translate(530.757812 0)"/>
     <use xlink:href="#DejaVuSans-20" transform="translate(569.966797 0)"/>
     <use xlink:href="#DejaVuSans-70" transform="translate(601.753906 0)"/>
     <use xlink:href="#DejaVuSans-65" transform="translate(665.230469 0)"/>
     <use xlink:href="#DejaVuSans-72" transform="translate(726.753906 0)"/>
     <use xlink:href="#DejaVuSans-20" transform="translate(767.867188 0)"/>
     <use xlink:href="#DejaVuSans-73" transform="translate(799.654297 0)"/>
     <use xlink:href="#DejaVuSans-74" transform="translate(851.753906 0)"/>
     <use xlink:href="#DejaVuSans-65" transform="translate(890.962891 0)"/>
     <use xlink:href="#DejaVuSans-70" transform="translate(952.486328 0)"/>
     <use xlink:href="#DejaVuSans-20" transform="translate(1015.962891 0)"/>
     <use xlink:href="#DejaVuSans-77" transform="translate(1047.75 0)"/>
     <use xlink:href="#DejaVuSans-69" transform="translate(1129.537109 0)"/>
     <use xlink:href="#DejaVuSans-74" transform="translate(1157.320312 0)"/>
     <use xlink:href="#DejaVuSans-68" transform="translate(1196.529297 0)"/>
     <use xlink:href="#DejaVuSans-20" transform="translate(1259.908203 0)"/>
     <use xlink:href="#DejaVuSans-63" transform="translate(1291.695312 0)"/>
     <use xlink:href="#DejaVuSans-6f" transform="translate(1346.675781 0)"/>
     <use xlink:href="#DejaVuSans-6e" transform="translate(1407.857422 0)"/>
     <use xlink:href="#DejaVuSans-66" transform="translate(1471.236328 0)"/>
     <use xlink:href="#DejaVuSans-69" transform="translate(1506.441406 0)"/>
     <use xlink:href="#DejaVuSans-64" transform="translate(1534.224609 0)"/>
     <use xlink:href="#DejaVuSans-65" transform="translate(1597.701172 0)"/>
     <use xlink:href="#DejaVuSans-6e" transform="translate(1659.224609 0)"/>
     <use xlink:href="#DejaVuSans-63" transform="translate(1722.603516 0)"/>
     <use xlink:href="#DejaVuSans-65" transform="translate(1777.583984 0)"/>
     <use xlink:href="#DejaVuSans-20" transform="translate(1839.107422 0)"/>
     <use xlink:href="#DejaVuSans-69" transform="translate(1870.894531 0)"/>
     <use xlink:href="#DejaVuSans-6e" transform="translate(1898.677734 0)"/>
     <use xlink:href="#DejaVuSans-74" transform="translate(1962.056641 0)"/>
     <use xlink:href="#DejaVuSans-65" transform="translate(2001.265625 0)"/>
     <use xlink:href="#DejaVuSans-72" transform="translate(2062.789062 0)"/>
     <use xlink:href="#DejaVuSans-76" transform="translate(2103.902344 0)"/>
     <use xlink:href="#DejaVuSans-61" transform="translate(2163.082031 0)"/>
     <use xlink:href="#DejaVuSans-6c" transform="translate(2224.361328 0)"/>
     <use xlink:href="#DejaVuSans-20" transform="translate(2252.144531 0)"/>
     <use xlink:href="#DejaVuSans-70" transform="translate(2283.931641 0)"/>
     <use xlink:href="#DejaVuSans-65" transform="translate(2347.408203 0)"/>
     <use xlink:href="#DejaVuSans-72" transform="translate(2408.931641 0)"/>
     <use xlink:href="#DejaVuSans-20" transform="translate(2450.044922 0)"/>
     <use xlink:href="#DejaVuSans-73" transform="translate(2481.832031 0)"/>
     <use xlink:href="#DejaVuSans-69" transform="translate(2533.931641 0)"/>
     <use xlink:href="#DejaVuSans-6d" transform="translate(2561.714844 0)"/>
     <use xlink:href="#DejaVuSans-75" transform="translate(2659.126953 0)"/>
     <use xlink:href="#DejaVuSans-6c" transform="translate(2722.505859 0)"/>
     <use xlink:href="#DejaVuSans-61" transform="translate(2750.289062 0)"/>
     <use xlink:href="#DejaVuSans-74" transform="translate(2811.568359 0)"/>
     <use xlink:href="#DejaVuSans-69" transform="translate(2850.777344 0)"/>
     <use xlink:href="#DejaVuSans-6f" transform="translate(2878.560547 0)"/>
     <use xlink:href="#DejaVuSans-6e" transform="translate(2939.742188 0)"/>
     <use xlink:href="#DejaVuSans-20" transform="translate(3003.121094 0)"/>
     <use xlink:href="#DejaVuSans-73" transform="translate(3034.908203 0)"/>
     <use xlink:href="#DejaVuSans-74" transform="translate(3087.007812 0)"/>
     <use xlink:href="#DejaVuSans-65" transform="translate(3126.216797 0)"/>
     <use xlink:href="#DejaVuSans-70" transform="translate(3187.740234 0)"/>
    </g>
    <!-- Base Product: Meth, Recipe size: 7, T0: 10.0 -->
    <g transform="translate(293.881125 37.44) scale(0.14 -0.14)">
     <defs>
      <path id="DejaVuSans-42" d="M 1259 2228 
L 1259 519 
L 2272 519 
Q 2781 519 3026 730 
Q 3272 941 3272 1375 
Q 3272 1813 3026 2020 
Q 2781 2228 2272 2228 
L 1259 2228 
z
M 1259 4147 
L 1259 2741 
L 2194 2741 
Q 2656 2741 2882 2914 
Q 3109 3088 3109 3444 
Q 3109 3797 2882 3972 
Q 2656 4147 2194 4147 
L 1259 4147 
z
M 628 4666 
L 2241 4666 
Q 2963 4666 3353 4366 
Q 3744 4066 3744 3513 
Q 3744 3084 3544 2831 
Q 3344 2578 2956 2516 
Q 3422 2416 3680 2098 
Q 3938 1781 3938 1306 
Q 3938 681 3513 340 
Q 3088 0 2303 0 
L 628 0 
L 628 4666 
z
" transform="scale(0.015625)"/>
      <path id="DejaVuSans-3a" d="M 750 794 
L 1409 794 
L 1409 0 
L 750 0 
L 750 794 
z
M 750 3309 
L 1409 3309 
L 1409 2516 
L 750 2516 
L 750 3309 
z
" transform="scale(0.015625)"/>
      <path id="DejaVuSans-2c" d="M 750 794 
L 1409 794 
L 1409 256 
L 897 -744 
L 494 -744 
L 750 256 
L 750 794 
z
" transform="scale(0.015625)"/>
      <path id="DejaVuSans-52" d="M 2841 2188 
Q 3044 2119 3236 1894 
Q 3428 1669 3622 1275 
L 4263 0 
L 3584 0 
L 2988 1197 
Q 2756 1666 2539 1819 
Q 2322 1972 1947 1972 
L 1259 1972 
L 1259 0 
L 628 0 
L 628 4666 
L 2053 4666 
Q 2853 4666 3247 4331 
Q 3641 3997 3641 3322 
Q 3641 2881 3436 2590 
Q 3231 2300 2841 2188 
z
M 1259 4147 
L 1259 2491 
L 2053 2491 
Q 2509 2491 2742 2702 
Q 2975 2913 2975 3322 
Q 2975 3731 2742 3939 
Q 2509 4147 2053 4147 
L 1259 4147 
z
" transform="scale(0.015625)"/>
      <path id="DejaVuSans-7a" d="M 353 3500 
L 3084 3500 
L 3084 2975 
L 922 459 
L 3084 459 
L 3084 0 
L 275 0 
L 275 525 
L 2438 3041 
L 353 3041 
L 353 3500 
z
" transform="scale(0.015625)"/>
      <path id="DejaVuSans-54" d="M -19 4666 
L 3928 4666 
L 3928 4134 
L 2272 4134 
L 2272 0 
L 1638 0 
L 1638 4134 
L -19 4134 
L -19 4666 
z
" transform="scale(0.015625)"/>
      <path id="DejaVuSans-2e" d="M 684 794 
L 1344 794 
L 1344 0 
L 684 0 
L 684 794 
z
" transform="scale(0.015625)"/>
     </defs>
     <use xlink:href="#DejaVuSans-42"/>
     <use xlink:href="#DejaVuSans-61" transform="translate(68.603516 0)"/>
     <use xlink:href="#DejaVuSans-73" transform="translate(129.882812 0)"/>
     <use xlink:href="#DejaVuSans-65" transform="translate(181.982422 0)"/>
     <use xlink:href="#DejaVuSans-20" transform="translate(243.505859 0)"/>
     <use xlink:href="#DejaVuSans-50" transform="translate(275.292969 0)"/>
     <use xlink:href="#DejaVuSans-72" transform="translate(333.845703 0)"/>
     <use xlink:href="#DejaVuSans-6f" transform="translate(372.708984 0)"/>
     <use xlink:href="#DejaVuSans-64" transform="translate(433.890625 0)"/>
     <use xlink:href="#DejaVuSans-75" transform="translate(497.367188 0)"/>
     <use xlink:href="#DejaVuSans-63" transform="translate(560.746094 0)"/>
     <use xlink:href="#DejaVuSans-74" transform="translate(615.726562 0)"/>
     <use xlink:href="#DejaVuSans-3a" transform="translate(654.935547 0)"/>
     <use xlink:href="#DejaVuSans-20" transform="translate(688.626953 0)"/>
     <use xlink:href="#DejaVuSans-4d" transform="translate(720.414062 0)"/>
     <use xlink:href="#DejaVuSans-65" transform="translate(806.693359 0)"/>
     <use xlink:href="#DejaVuSans-74" transform="translate(868.216797 0)"/>
     <use xlink:href="#DejaVuSans-68" transform="translate(907.425781 0)"/>
     <use xlink:href="#DejaVuSans-2c" transform="translate(970.804688 0)"/>
     <use xlink:href="#DejaVuSans-20" transform="translate(1002.591797 0)"/>
     <use xlink:href="#DejaVuSans-52" transform="translate(1034.378906 0)"/>
     <use xlink:href="#DejaVuSans-65" transform="translate(1099.361328 0)"/>
     <use xlink:href="#DejaVuSans-63" transform="translate(1160.884766 0)"/>
     <use xlink:href="#DejaVuSans-69" transform="translate(1215.865234 0)"/>
     <use xlink:href="#DejaVuSans-70" transform="translate(1243.648438 0)"/>
     <use xlink:href="#DejaVuSans-65" transform="translate(1307.125 0)"/>
     <use xlink:href="#DejaVuSans-20" transform="translate(1368.648438 0)"/>
     <use xlink:href="#DejaVuSans-73" transform="translate(1400.435547 0)"/>
     <use xlink:href="#DejaVuSans-69" transform="translate(1452.535156 0)"/>
     <use xlink:href="#DejaVuSans-7a" transform="translate(1480.318359 0)"/>
     <use xlink:href="#DejaVuSans-65" transform="translate(1532.808594 0)"/>
     <use xlink:href="#DejaVuSans-3a" transform="translate(1594.332031 0)"/>
     <use xlink:href="#DejaVuSans-20" transform="translate(1628.023438 0)"/>
     <use xlink:href="#DejaVuSans-37" transform="translate(1659.810547 0)"/>
     <use xlink:href="#DejaVuSans-2c" transform="translate(1723.433594 0)"/>
     <use xlink:href="#DejaVuSans-20" transform="translate(1755.220703 0)"/>
     <use xlink:href="#DejaVuSans-54" transform="translate(1787.007812 0)"/>
     <use xlink:href="#DejaVuSans-30" transform="translate(1848.091797 0)"/>
     <use xlink:href="#DejaVuSans-3a" transform="translate(1911.714844 0)"/>
     <use xlink:href="#DejaVuSans-20" transform="translate(1945.40625 0)"/>
     <use xlink:href="#DejaVuSans-31" transform="translate(1977.193359 0)"/>
     <use xlink:href="#DejaVuSans-30" transform="translate(2040.816406 0)"/>
     <use xlink:href="#DejaVuSans-2e" transform="translate(2104.439453 0)"/>
     <use xlink:href="#DejaVuSans-30" transform="translate(2136.226562 0)"/>
    </g>
   </g>
  </g>
 </g>
 <defs>
  <clipPath id="p29738dfea1">
   <rect x="50.87" y="43.44" width="793.996" height="346.6"/>
  </clipPath>
 </defs>
</svg>
