<?xml version="1.0" encoding="utf-8" standalone="no"?>
<!DOCTYPE svg PUBLIC "-//W3C//DTD SVG 1.1//EN"
  "http://www.w3.org/Graphics/SVG/1.1/DTD/svg11.dtd">
<svg xmlns:xlink="http://www.w3.org/1999/xlink" width="864pt" height="432pt" viewBox="0 0 864 432" xmlns="http://www.w3.org/2000/svg" version="1.1">
 <metadata>
  <rdf:RDF xmlns:dc="http://purl.org/dc/elements/1.1/" xmlns:cc="http://creativecommons.org/ns#" xmlns:rdf="http://www.w3.org/1999/02/22-rdf-syntax-ns#">
   <cc:Work>
    <dc:type rdf:resource="http://purl.org/dc/dcmitype/StillImage"/>
    <dc:date>2025-05-24T02:18:03.482160</dc:date>
    <dc:format>image/svg+xml</dc:format>
    <dc:creator>
     <cc:Agent>
      <dc:title>Matplotlib v3.10.3, https://matplotlib.org/</dc:title>
     </cc:Agent>
    </dc:creator>
   </cc:Work>
  </rdf:RDF>
 </metadata>
 <defs>
  <style type="text/css">*{stroke-linejoin: round; stroke-linecap: butt}</style>
 </defs>
 <g id="figure_1">
  <g id="patch_1">
   <path d="M 0 432 
L 864 432 
L 864 0 
L 0 0 
z
" style="fill: #ffffff"/>
  </g>
  <g id="axes_1">
   <g id="patch_2">
    <path d="M 50.87 390.04 
L 844.866 390.04 
L 844.866 43.44 
L 50.87 43.44 
z
" style="fill: #ffffff"/>
   </g>
   <g id="FillBetweenPolyCollection_1">
    <defs>
     <path id="mac7b61c511" d="M 52.193327 -299.04096 
L 52.193327 -57.714545 
L 54.83998 -58.341139 
L 57.486633 -62.656697 
L 60.133287 -68.562089 
L 62.77994 -73.436732 
L 65.426593 -78.020072 
L 68.073247 -83.422787 
L 70.7199 -87.145758 
L 73.366553 -91.65849 
L 76.013207 -95.456397 
L 78.65986 -97.938065 
L 81.306513 -101.892992 
L 83.953167 -104.261757 
L 86.59982 -106.874663 
L 89.246473 -109.151622 
L 91.893127 -111.898478 
L 94.53978 -113.247357 
L 97.186433 -114.816618 
L 99.833087 -117.265216 
L 102.47974 -120.675924 
L 105.126393 -122.290905 
L 107.773047 -123.479986 
L 110.4197 -124.82979 
L 113.066353 -126.493634 
L 115.713007 -127.239483 
L 118.35966 -128.583151 
L 121.006313 -129.558825 
L 123.652967 -130.862565 
L 126.29962 -132.736468 
L 128.946273 -133.760596 
L 131.592927 -135.481247 
L 134.23958 -135.66266 
L 136.886233 -137.417975 
L 139.532887 -137.26201 
L 142.17954 -138.603299 
L 144.826193 -139.408443 
L 147.472847 -140.355772 
L 150.1195 -140.413817 
L 152.766153 -142.059716 
L 155.412807 -142.461469 
L 158.05946 -143.217589 
L 160.706113 -143.582074 
L 163.352767 -144.062068 
L 165.99942 -145.107123 
L 168.646073 -146.308853 
L 171.292727 -147.664115 
L 173.93938 -148.5067 
L 176.586033 -149.841034 
L 179.232687 -150.311598 
L 181.87934 -151.126129 
L 184.525993 -151.668454 
L 187.172647 -151.541576 
L 189.8193 -151.624101 
L 192.465953 -152.21291 
L 195.112607 -152.331907 
L 197.75926 -151.685376 
L 200.405913 -152.811622 
L 203.052567 -153.706955 
L 205.69922 -153.876032 
L 208.345873 -153.944799 
L 210.992527 -154.317121 
L 213.63918 -154.985936 
L 216.285833 -155.808691 
L 218.932487 -156.649532 
L 221.57914 -157.132411 
L 224.225793 -157.599875 
L 226.872447 -157.491191 
L 229.5191 -157.962444 
L 232.165753 -158.33539 
L 234.812407 -159.155756 
L 237.45906 -159.692202 
L 240.105713 -160.79414 
L 242.752367 -161.074183 
L 245.39902 -160.498272 
L 248.045673 -160.912944 
L 250.692327 -161.628285 
L 253.33898 -161.288043 
L 255.985633 -162.024333 
L 258.632287 -162.424213 
L 261.27894 -162.840156 
L 263.925593 -162.915167 
L 266.572247 -163.752412 
L 269.2189 -162.973384 
L 271.865553 -163.508561 
L 274.512207 -164.02802 
L 277.15886 -164.596999 
L 279.805513 -164.596633 
L 282.452167 -164.407404 
L 285.09882 -164.300463 
L 287.745473 -163.643297 
L 290.392127 -164.029893 
L 293.03878 -163.890141 
L 295.685433 -164.639521 
L 298.332087 -165.340437 
L 300.97874 -165.895077 
L 303.625393 -165.372496 
L 306.272047 -166.575044 
L 308.9187 -166.432406 
L 311.565353 -166.914597 
L 314.212007 -167.578717 
L 316.85866 -167.735737 
L 319.505313 -167.529973 
L 322.151967 -168.285403 
L 324.79862 -168.582068 
L 327.445273 -168.571626 
L 330.091927 -168.97943 
L 332.73858 -168.854081 
L 335.385233 -169.300854 
L 338.031887 -168.847988 
L 340.67854 -168.518037 
L 343.325193 -168.806155 
L 345.971847 -169.309337 
L 348.6185 -170.770248 
L 351.265153 -171.006779 
L 353.911807 -171.674904 
L 356.55846 -171.909691 
L 359.205113 -172.251418 
L 361.851767 -172.780911 
L 364.49842 -172.725191 
L 367.145073 -172.956339 
L 369.791727 -172.703488 
L 372.43838 -173.504455 
L 375.085033 -173.867799 
L 377.731687 -173.79845 
L 380.37834 -173.56573 
L 383.024993 -173.805576 
L 385.671647 -174.576638 
L 388.3183 -174.819455 
L 390.964953 -174.818594 
L 393.611607 -174.316187 
L 396.25826 -174.319373 
L 398.904913 -174.862473 
L 401.551567 -173.892171 
L 404.19822 -173.637899 
L 406.844873 -173.913486 
L 409.491527 -174.485587 
L 412.13818 -175.133172 
L 414.784833 -175.001859 
L 417.431487 -174.637977 
L 420.07814 -174.228731 
L 422.724793 -173.971661 
L 425.371447 -174.478352 
L 428.0181 -174.885833 
L 430.664753 -175.558932 
L 433.311407 -175.358486 
L 435.95806 -176.500491 
L 438.604713 -176.469035 
L 441.251367 -177.47329 
L 443.89802 -177.33976 
L 446.544673 -176.949826 
L 449.191327 -177.290671 
L 451.83798 -177.338468 
L 454.484633 -177.667235 
L 457.131287 -178.199806 
L 459.77794 -178.424753 
L 462.424593 -178.246397 
L 465.071247 -178.793846 
L 467.7179 -179.34489 
L 470.364553 -179.522622 
L 473.011207 -179.29494 
L 475.65786 -179.473361 
L 478.304513 -180.162758 
L 480.951167 -180.375541 
L 483.59782 -180.487218 
L 486.244473 -180.392421 
L 488.891127 -180.059521 
L 491.53778 -180.841046 
L 494.184433 -181.336111 
L 496.831087 -180.882061 
L 499.47774 -181.147248 
L 502.124393 -181.51014 
L 504.771047 -181.617166 
L 507.4177 -181.826871 
L 510.064353 -182.114966 
L 512.711007 -181.45048 
L 515.35766 -181.750051 
L 518.004313 -181.884765 
L 520.650967 -181.515673 
L 523.29762 -181.94998 
L 525.944273 -181.886165 
L 528.590927 -181.92352 
L 531.23758 -182.087968 
L 533.884233 -181.548485 
L 536.530887 -182.228129 
L 539.17754 -182.633995 
L 541.824193 -182.960501 
L 544.470847 -182.900496 
L 547.1175 -183.070843 
L 549.764153 -182.667647 
L 552.410807 -182.751055 
L 555.05746 -182.643124 
L 557.704113 -183.421742 
L 560.350767 -183.320184 
L 562.99742 -183.118898 
L 565.644073 -182.783286 
L 568.290727 -182.483542 
L 570.93738 -183.009805 
L 573.584033 -183.071683 
L 576.230687 -183.771888 
L 578.87734 -183.997417 
L 581.523993 -184.521075 
L 584.170647 -184.215776 
L 586.8173 -184.696115 
L 589.463953 -184.765916 
L 592.110607 -184.720315 
L 594.75726 -185.141726 
L 597.403913 -185.579672 
L 600.050567 -185.656621 
L 602.69722 -186.186996 
L 605.343873 -186.157327 
L 607.990527 -186.729988 
L 610.63718 -186.761508 
L 613.283833 -186.974657 
L 615.930487 -187.254464 
L 618.57714 -186.698532 
L 621.223793 -186.591635 
L 623.870447 -186.829436 
L 626.5171 -186.987166 
L 629.163753 -186.404796 
L 631.810407 -186.242544 
L 634.45706 -186.38249 
L 637.103713 -186.585779 
L 639.750367 -186.488871 
L 642.39702 -186.766632 
L 645.043673 -187.16197 
L 647.690327 -186.675861 
L 650.33698 -186.954505 
L 652.983633 -187.194438 
L 655.630287 -187.875029 
L 658.27694 -187.87828 
L 660.923593 -187.896495 
L 663.570247 -188.17699 
L 666.2169 -188.179186 
L 668.863553 -188.330845 
L 671.510207 -188.147106 
L 674.15686 -187.77909 
L 676.803513 -188.282359 
L 679.450167 -188.387362 
L 682.09682 -189.003965 
L 684.743473 -189.077082 
L 687.390127 -189.186197 
L 690.03678 -189.142792 
L 692.683433 -188.911773 
L 695.330087 -188.485906 
L 697.97674 -188.506532 
L 700.623393 -188.625163 
L 703.270047 -189.019553 
L 705.9167 -188.769631 
L 708.563353 -189.506653 
L 711.210007 -189.66912 
L 713.85666 -189.429144 
L 716.503313 -189.480623 
L 719.149967 -189.798387 
L 721.79662 -189.646556 
L 724.443273 -189.970327 
L 727.089927 -189.677646 
L 729.73658 -189.34044 
L 732.383233 -189.745078 
L 735.029887 -189.904962 
L 737.67654 -189.674847 
L 740.323193 -189.896393 
L 742.969847 -189.772034 
L 745.6165 -190.180893 
L 748.263153 -190.562214 
L 750.909807 -191.226723 
L 753.55646 -191.086195 
L 756.203113 -191.231265 
L 758.849767 -191.426674 
L 761.49642 -191.349036 
L 764.143073 -191.763944 
L 766.789727 -191.664066 
L 769.43638 -191.546123 
L 772.083033 -192.816642 
L 774.729687 -192.220578 
L 777.37634 -192.418527 
L 780.022993 -191.749541 
L 782.669647 -191.906324 
L 785.3163 -191.659415 
L 787.962953 -191.577536 
L 790.609607 -192.047131 
L 793.25626 -191.749842 
L 795.902913 -192.42434 
L 798.549567 -191.954594 
L 801.19622 -191.762373 
L 803.842873 -191.237294 
L 806.489527 -191.336807 
L 809.13618 -191.713994 
L 811.782833 -191.727214 
L 814.429487 -191.922708 
L 817.07614 -192.562349 
L 819.722793 -192.497328 
L 822.369447 -193.51773 
L 825.0161 -193.223413 
L 827.662753 -193.352034 
L 830.309407 -192.952433 
L 832.95606 -193.003309 
L 835.602713 -192.765594 
L 838.249367 -192.667933 
L 840.89602 -192.545555 
L 843.542673 -192.738466 
L 843.542673 -372.697976 
L 843.542673 -372.697976 
L 840.89602 -372.805455 
L 838.249367 -372.659953 
L 835.602713 -372.509285 
L 832.95606 -372.324685 
L 830.309407 -372.361329 
L 827.662753 -371.978221 
L 825.0161 -372.122086 
L 822.369447 -371.942653 
L 819.722793 -372.544551 
L 817.07614 -372.325073 
L 814.429487 -372.619649 
L 811.782833 -372.59476 
L 809.13618 -372.450938 
L 806.489527 -372.518112 
L 803.842873 -372.572325 
L 801.19622 -372.300873 
L 798.549567 -372.17561 
L 795.902913 -371.754823 
L 793.25626 -372.193997 
L 790.609607 -372.084408 
L 787.962953 -372.257252 
L 785.3163 -372.119933 
L 782.669647 -371.758699 
L 780.022993 -371.777602 
L 777.37634 -371.339764 
L 774.729687 -371.280599 
L 772.083033 -370.969574 
L 769.43638 -371.822127 
L 766.789727 -371.765029 
L 764.143073 -371.450731 
L 761.49642 -371.556229 
L 758.849767 -371.370768 
L 756.203113 -371.316598 
L 753.55646 -371.413742 
L 750.909807 -371.158609 
L 748.263153 -371.60127 
L 745.6165 -371.678951 
L 742.969847 -372.017449 
L 740.323193 -371.76645 
L 737.67654 -371.772478 
L 735.029887 -371.355696 
L 732.383233 -371.333477 
L 729.73658 -371.460721 
L 727.089927 -371.076407 
L 724.443273 -370.927547 
L 721.79662 -371.089196 
L 719.149967 -370.915231 
L 716.503313 -370.795437 
L 713.85666 -370.850727 
L 711.210007 -370.546764 
L 708.563353 -370.801983 
L 705.9167 -371.407369 
L 703.270047 -371.519111 
L 700.623393 -371.595844 
L 697.97674 -371.387303 
L 695.330087 -371.483457 
L 692.683433 -371.104396 
L 690.03678 -370.812403 
L 687.390127 -370.722062 
L 684.743473 -370.624057 
L 682.09682 -370.561447 
L 679.450167 -371.097894 
L 676.803513 -371.163604 
L 674.15686 -371.387174 
L 671.510207 -370.990975 
L 668.863553 -370.839058 
L 666.2169 -371.09109 
L 663.570247 -370.891893 
L 660.923593 -370.798538 
L 658.27694 -370.611656 
L 655.630287 -370.470245 
L 652.983633 -370.886725 
L 650.33698 -371.127003 
L 647.690327 -371.242491 
L 645.043673 -370.778816 
L 642.39702 -370.855205 
L 639.750367 -370.88974 
L 637.103713 -370.47468 
L 634.45706 -370.26334 
L 631.810407 -370.192678 
L 629.163753 -369.819559 
L 626.5171 -369.592932 
L 623.870447 -369.684909 
L 621.223793 -369.824124 
L 618.57714 -369.73641 
L 615.930487 -369.295342 
L 613.283833 -369.392357 
L 610.63718 -369.287332 
L 607.990527 -369.090116 
L 605.343873 -369.382927 
L 602.69722 -369.282122 
L 600.050567 -369.584535 
L 597.403913 -369.664671 
L 594.75726 -369.734601 
L 592.110607 -369.988959 
L 589.463953 -369.747089 
L 586.8173 -369.653174 
L 584.170647 -369.79622 
L 581.523993 -369.561541 
L 578.87734 -369.818267 
L 576.230687 -369.808579 
L 573.584033 -370.106212 
L 570.93738 -369.734343 
L 568.290727 -370.033742 
L 565.644073 -369.580488 
L 562.99742 -369.285955 
L 560.350767 -368.923171 
L 557.704113 -368.761651 
L 555.05746 -369.225455 
L 552.410807 -369.014803 
L 549.764153 -368.979494 
L 547.1175 -368.844542 
L 544.470847 -368.640264 
L 541.824193 -368.530718 
L 539.17754 -368.65822 
L 536.530887 -368.608313 
L 533.884233 -368.870723 
L 531.23758 -368.357701 
L 528.590927 -368.414627 
L 525.944273 -368.327387 
L 523.29762 -368.113247 
L 520.650967 -368.390685 
L 518.004313 -368.208626 
L 515.35766 -368.032164 
L 512.711007 -368.029839 
L 510.064353 -367.297726 
L 507.4177 -367.201873 
L 504.771047 -367.136336 
L 502.124393 -367.069592 
L 499.47774 -367.193778 
L 496.831087 -367.193864 
L 494.184433 -366.652078 
L 491.53778 -366.62818 
L 488.891127 -367.132891 
L 486.244473 -366.908374 
L 483.59782 -366.63283 
L 480.951167 -366.454172 
L 478.304513 -366.476951 
L 475.65786 -366.638686 
L 473.011207 -366.419552 
L 470.364553 -366.062064 
L 467.7179 -366.043376 
L 465.071247 -366.463732 
L 462.424593 -366.97783 
L 459.77794 -366.598898 
L 457.131287 -366.692512 
L 454.484633 -366.79646 
L 451.83798 -366.622366 
L 449.191327 -366.430834 
L 446.544673 -366.434709 
L 443.89802 -365.756465 
L 441.251367 -365.467744 
L 438.604713 -365.668406 
L 435.95806 -365.43054 
L 433.311407 -365.803271 
L 430.664753 -365.65299 
L 428.0181 -365.956265 
L 425.371447 -366.141726 
L 422.724793 -366.448618 
L 420.07814 -366.051988 
L 417.431487 -365.864331 
L 414.784833 -365.785358 
L 412.13818 -365.431143 
L 409.491527 -365.731489 
L 406.844873 -365.810118 
L 404.19822 -365.715643 
L 401.551567 -365.585429 
L 398.904913 -364.956101 
L 396.25826 -365.264241 
L 393.611607 -365.043298 
L 390.964953 -364.455911 
L 388.3183 -364.419568 
L 385.671647 -364.326127 
L 383.024993 -364.227648 
L 380.37834 -364.258565 
L 377.731687 -363.889494 
L 375.085033 -363.522533 
L 372.43838 -363.582689 
L 369.791727 -363.895695 
L 367.145073 -363.689909 
L 364.49842 -363.427585 
L 361.851767 -363.092747 
L 359.205113 -362.919946 
L 356.55846 -362.913573 
L 353.911807 -363.066222 
L 351.265153 -363.336641 
L 348.6185 -363.178437 
L 345.971847 -363.958348 
L 343.325193 -364.129341 
L 340.67854 -363.883638 
L 338.031887 -363.61662 
L 335.385233 -362.739609 
L 332.73858 -363.231703 
L 330.091927 -362.834686 
L 327.445273 -362.55953 
L 324.79862 -362.287044 
L 322.151967 -362.345391 
L 319.505313 -362.681822 
L 316.85866 -362.436679 
L 314.212007 -361.987257 
L 311.565353 -362.2718 
L 308.9187 -362.229084 
L 306.272047 -361.684069 
L 303.625393 -362.575419 
L 300.97874 -361.990745 
L 298.332087 -362.112305 
L 295.685433 -362.394264 
L 293.03878 -362.547387 
L 290.392127 -361.903806 
L 287.745473 -361.704781 
L 285.09882 -361.203945 
L 282.452167 -360.786561 
L 279.805513 -360.32491 
L 277.15886 -359.870149 
L 274.512207 -359.67319 
L 271.865553 -359.880656 
L 269.2189 -359.724906 
L 266.572247 -358.74765 
L 263.925593 -359.10264 
L 261.27894 -358.979832 
L 258.632287 -358.795619 
L 255.985633 -358.888113 
L 253.33898 -358.757769 
L 250.692327 -358.104241 
L 248.045673 -358.060406 
L 245.39902 -357.78779 
L 242.752367 -356.880378 
L 240.105713 -356.497528 
L 237.45906 -356.616848 
L 234.812407 -356.576974 
L 232.165753 -356.867761 
L 229.5191 -356.440128 
L 226.872447 -356.475007 
L 224.225793 -355.832546 
L 221.57914 -355.326758 
L 218.932487 -355.14767 
L 216.285833 -355.77674 
L 213.63918 -355.639248 
L 210.992527 -355.840986 
L 208.345873 -355.581159 
L 205.69922 -354.791603 
L 203.052567 -354.15418 
L 200.405913 -354.150262 
L 197.75926 -354.683177 
L 195.112607 -353.375562 
L 192.465953 -352.618947 
L 189.8193 -352.339399 
L 187.172647 -351.969251 
L 184.525993 -351.296562 
L 181.87934 -351.093618 
L 179.232687 -351.096417 
L 176.586033 -350.613667 
L 173.93938 -350.387556 
L 171.292727 -350.599543 
L 168.646073 -350.860704 
L 165.99942 -350.911774 
L 163.352767 -350.631537 
L 160.706113 -350.207908 
L 158.05946 -349.283573 
L 155.412807 -348.7355 
L 152.766153 -348.230014 
L 150.1195 -347.655028 
L 147.472847 -346.459112 
L 144.826193 -346.470523 
L 142.17954 -346.001465 
L 139.532887 -345.909919 
L 136.886233 -344.75224 
L 134.23958 -344.46352 
L 131.592927 -343.368622 
L 128.946273 -343.665352 
L 126.29962 -343.136613 
L 123.652967 -343.207232 
L 121.006313 -343.380507 
L 118.35966 -342.623979 
L 115.713007 -341.228434 
L 113.066353 -339.742892 
L 110.4197 -340.133407 
L 107.773047 -339.426441 
L 105.126393 -338.260839 
L 102.47974 -336.834075 
L 99.833087 -336.697229 
L 97.186433 -335.192741 
L 94.53978 -333.912038 
L 91.893127 -332.446865 
L 89.246473 -331.106006 
L 86.59982 -329.435564 
L 83.953167 -328.403449 
L 81.306513 -326.47684 
L 78.65986 -325.214437 
L 76.013207 -322.636927 
L 73.366553 -320.481667 
L 70.7199 -318.723855 
L 68.073247 -315.975481 
L 65.426593 -313.630066 
L 62.77994 -309.933329 
L 60.133287 -306.487893 
L 57.486633 -303.359253 
L 54.83998 -298.570461 
L 52.193327 -299.04096 
z
" style="stroke: #0000ff; stroke-opacity: 0.2"/>
    </defs>
    <g clip-path="url(#pa221326a2f)">
     <use xlink:href="#mac7b61c511" x="0" y="432" style="fill: #0000ff; fill-opacity: 0.2; stroke: #0000ff; stroke-opacity: 0.2"/>
    </g>
   </g>
   <g id="matplotlib.axis_1">
    <g id="xtick_1">
     <g id="line2d_1">
      <defs>
       <path id="m38e99351ce" d="M 0 0 
L 0 3.5 
" style="stroke: #000000; stroke-width: 0.8"/>
      </defs>
      <g>
       <use xlink:href="#m38e99351ce" x="181.87934" y="390.04" style="stroke: #000000; stroke-width: 0.8"/>
      </g>
     </g>
     <g id="text_1">
      <!-- 50 -->
      <g transform="translate(175.51684 404.638438) scale(0.1 -0.1)">
       <defs>
        <path id="DejaVuSans-35" d="M 691 4666 
L 3169 4666 
L 3169 4134 
L 1269 4134 
L 1269 2991 
Q 1406 3038 1543 3061 
Q 1681 3084 1819 3084 
Q 2600 3084 3056 2656 
Q 3513 2228 3513 1497 
Q 3513 744 3044 326 
Q 2575 -91 1722 -91 
Q 1428 -91 1123 -41 
Q 819 9 494 109 
L 494 744 
Q 775 591 1075 516 
Q 1375 441 1709 441 
Q 2250 441 2565 725 
Q 2881 1009 2881 1497 
Q 2881 1984 2565 2268 
Q 2250 2553 1709 2553 
Q 1456 2553 1204 2497 
Q 953 2441 691 2322 
L 691 4666 
z
" transform="scale(0.015625)"/>
        <path id="DejaVuSans-30" d="M 2034 4250 
Q 1547 4250 1301 3770 
Q 1056 3291 1056 2328 
Q 1056 1369 1301 889 
Q 1547 409 2034 409 
Q 2525 409 2770 889 
Q 3016 1369 3016 2328 
Q 3016 3291 2770 3770 
Q 2525 4250 2034 4250 
z
M 2034 4750 
Q 2819 4750 3233 4129 
Q 3647 3509 3647 2328 
Q 3647 1150 3233 529 
Q 2819 -91 2034 -91 
Q 1250 -91 836 529 
Q 422 1150 422 2328 
Q 422 3509 836 4129 
Q 1250 4750 2034 4750 
z
" transform="scale(0.015625)"/>
       </defs>
       <use xlink:href="#DejaVuSans-35"/>
       <use xlink:href="#DejaVuSans-30" transform="translate(63.623047 0)"/>
      </g>
     </g>
    </g>
    <g id="xtick_2">
     <g id="line2d_2">
      <g>
       <use xlink:href="#m38e99351ce" x="314.212007" y="390.04" style="stroke: #000000; stroke-width: 0.8"/>
      </g>
     </g>
     <g id="text_2">
      <!-- 100 -->
      <g transform="translate(304.668257 404.638438) scale(0.1 -0.1)">
       <defs>
        <path id="DejaVuSans-31" d="M 794 531 
L 1825 531 
L 1825 4091 
L 703 3866 
L 703 4441 
L 1819 4666 
L 2450 4666 
L 2450 531 
L 3481 531 
L 3481 0 
L 794 0 
L 794 531 
z
" transform="scale(0.015625)"/>
       </defs>
       <use xlink:href="#DejaVuSans-31"/>
       <use xlink:href="#DejaVuSans-30" transform="translate(63.623047 0)"/>
       <use xlink:href="#DejaVuSans-30" transform="translate(127.246094 0)"/>
      </g>
     </g>
    </g>
    <g id="xtick_3">
     <g id="line2d_3">
      <g>
       <use xlink:href="#m38e99351ce" x="446.544673" y="390.04" style="stroke: #000000; stroke-width: 0.8"/>
      </g>
     </g>
     <g id="text_3">
      <!-- 150 -->
      <g transform="translate(437.000923 404.638438) scale(0.1 -0.1)">
       <use xlink:href="#DejaVuSans-31"/>
       <use xlink:href="#DejaVuSans-35" transform="translate(63.623047 0)"/>
       <use xlink:href="#DejaVuSans-30" transform="translate(127.246094 0)"/>
      </g>
     </g>
    </g>
    <g id="xtick_4">
     <g id="line2d_4">
      <g>
       <use xlink:href="#m38e99351ce" x="578.87734" y="390.04" style="stroke: #000000; stroke-width: 0.8"/>
      </g>
     </g>
     <g id="text_4">
      <!-- 200 -->
      <g transform="translate(569.33359 404.638438) scale(0.1 -0.1)">
       <defs>
        <path id="DejaVuSans-32" d="M 1228 531 
L 3431 531 
L 3431 0 
L 469 0 
L 469 531 
Q 828 903 1448 1529 
Q 2069 2156 2228 2338 
Q 2531 2678 2651 2914 
Q 2772 3150 2772 3378 
Q 2772 3750 2511 3984 
Q 2250 4219 1831 4219 
Q 1534 4219 1204 4116 
Q 875 4013 500 3803 
L 500 4441 
Q 881 4594 1212 4672 
Q 1544 4750 1819 4750 
Q 2544 4750 2975 4387 
Q 3406 4025 3406 3419 
Q 3406 3131 3298 2873 
Q 3191 2616 2906 2266 
Q 2828 2175 2409 1742 
Q 1991 1309 1228 531 
z
" transform="scale(0.015625)"/>
       </defs>
       <use xlink:href="#DejaVuSans-32"/>
       <use xlink:href="#DejaVuSans-30" transform="translate(63.623047 0)"/>
       <use xlink:href="#DejaVuSans-30" transform="translate(127.246094 0)"/>
      </g>
     </g>
    </g>
    <g id="xtick_5">
     <g id="line2d_5">
      <g>
       <use xlink:href="#m38e99351ce" x="711.210007" y="390.04" style="stroke: #000000; stroke-width: 0.8"/>
      </g>
     </g>
     <g id="text_5">
      <!-- 250 -->
      <g transform="translate(701.666257 404.638438) scale(0.1 -0.1)">
       <use xlink:href="#DejaVuSans-32"/>
       <use xlink:href="#DejaVuSans-35" transform="translate(63.623047 0)"/>
       <use xlink:href="#DejaVuSans-30" transform="translate(127.246094 0)"/>
      </g>
     </g>
    </g>
    <g id="xtick_6">
     <g id="line2d_6">
      <g>
       <use xlink:href="#m38e99351ce" x="843.542673" y="390.04" style="stroke: #000000; stroke-width: 0.8"/>
      </g>
     </g>
     <g id="text_6">
      <!-- 300 -->
      <g transform="translate(833.998923 404.638438) scale(0.1 -0.1)">
       <defs>
        <path id="DejaVuSans-33" d="M 2597 2516 
Q 3050 2419 3304 2112 
Q 3559 1806 3559 1356 
Q 3559 666 3084 287 
Q 2609 -91 1734 -91 
Q 1441 -91 1130 -33 
Q 819 25 488 141 
L 488 750 
Q 750 597 1062 519 
Q 1375 441 1716 441 
Q 2309 441 2620 675 
Q 2931 909 2931 1356 
Q 2931 1769 2642 2001 
Q 2353 2234 1838 2234 
L 1294 2234 
L 1294 2753 
L 1863 2753 
Q 2328 2753 2575 2939 
Q 2822 3125 2822 3475 
Q 2822 3834 2567 4026 
Q 2313 4219 1838 4219 
Q 1578 4219 1281 4162 
Q 984 4106 628 3988 
L 628 4550 
Q 988 4650 1302 4700 
Q 1616 4750 1894 4750 
Q 2613 4750 3031 4423 
Q 3450 4097 3450 3541 
Q 3450 3153 3228 2886 
Q 3006 2619 2597 2516 
z
" transform="scale(0.015625)"/>
       </defs>
       <use xlink:href="#DejaVuSans-33"/>
       <use xlink:href="#DejaVuSans-30" transform="translate(63.623047 0)"/>
       <use xlink:href="#DejaVuSans-30" transform="translate(127.246094 0)"/>
      </g>
     </g>
    </g>
    <g id="text_7">
     <!-- Step -->
     <g transform="translate(436.482844 418.316562) scale(0.1 -0.1)">
      <defs>
       <path id="DejaVuSans-53" d="M 3425 4513 
L 3425 3897 
Q 3066 4069 2747 4153 
Q 2428 4238 2131 4238 
Q 1616 4238 1336 4038 
Q 1056 3838 1056 3469 
Q 1056 3159 1242 3001 
Q 1428 2844 1947 2747 
L 2328 2669 
Q 3034 2534 3370 2195 
Q 3706 1856 3706 1288 
Q 3706 609 3251 259 
Q 2797 -91 1919 -91 
Q 1588 -91 1214 -16 
Q 841 59 441 206 
L 441 856 
Q 825 641 1194 531 
Q 1563 422 1919 422 
Q 2459 422 2753 634 
Q 3047 847 3047 1241 
Q 3047 1584 2836 1778 
Q 2625 1972 2144 2069 
L 1759 2144 
Q 1053 2284 737 2584 
Q 422 2884 422 3419 
Q 422 4038 858 4394 
Q 1294 4750 2059 4750 
Q 2388 4750 2728 4690 
Q 3069 4631 3425 4513 
z
" transform="scale(0.015625)"/>
       <path id="DejaVuSans-74" d="M 1172 4494 
L 1172 3500 
L 2356 3500 
L 2356 3053 
L 1172 3053 
L 1172 1153 
Q 1172 725 1289 603 
Q 1406 481 1766 481 
L 2356 481 
L 2356 0 
L 1766 0 
Q 1100 0 847 248 
Q 594 497 594 1153 
L 594 3053 
L 172 3053 
L 172 3500 
L 594 3500 
L 594 4494 
L 1172 4494 
z
" transform="scale(0.015625)"/>
       <path id="DejaVuSans-65" d="M 3597 1894 
L 3597 1613 
L 953 1613 
Q 991 1019 1311 708 
Q 1631 397 2203 397 
Q 2534 397 2845 478 
Q 3156 559 3463 722 
L 3463 178 
Q 3153 47 2828 -22 
Q 2503 -91 2169 -91 
Q 1331 -91 842 396 
Q 353 884 353 1716 
Q 353 2575 817 3079 
Q 1281 3584 2069 3584 
Q 2775 3584 3186 3129 
Q 3597 2675 3597 1894 
z
M 3022 2063 
Q 3016 2534 2758 2815 
Q 2500 3097 2075 3097 
Q 1594 3097 1305 2825 
Q 1016 2553 972 2059 
L 3022 2063 
z
" transform="scale(0.015625)"/>
       <path id="DejaVuSans-70" d="M 1159 525 
L 1159 -1331 
L 581 -1331 
L 581 3500 
L 1159 3500 
L 1159 2969 
Q 1341 3281 1617 3432 
Q 1894 3584 2278 3584 
Q 2916 3584 3314 3078 
Q 3713 2572 3713 1747 
Q 3713 922 3314 415 
Q 2916 -91 2278 -91 
Q 1894 -91 1617 61 
Q 1341 213 1159 525 
z
M 3116 1747 
Q 3116 2381 2855 2742 
Q 2594 3103 2138 3103 
Q 1681 3103 1420 2742 
Q 1159 2381 1159 1747 
Q 1159 1113 1420 752 
Q 1681 391 2138 391 
Q 2594 391 2855 752 
Q 3116 1113 3116 1747 
z
" transform="scale(0.015625)"/>
      </defs>
      <use xlink:href="#DejaVuSans-53"/>
      <use xlink:href="#DejaVuSans-74" transform="translate(63.476562 0)"/>
      <use xlink:href="#DejaVuSans-65" transform="translate(102.685547 0)"/>
      <use xlink:href="#DejaVuSans-70" transform="translate(164.208984 0)"/>
     </g>
    </g>
   </g>
   <g id="matplotlib.axis_2">
    <g id="ytick_1">
     <g id="line2d_7">
      <defs>
       <path id="mcba5a28bc7" d="M 0 0 
L -3.5 0 
" style="stroke: #000000; stroke-width: 0.8"/>
      </defs>
      <g>
       <use xlink:href="#mcba5a28bc7" x="50.87" y="342.827001" style="stroke: #000000; stroke-width: 0.8"/>
      </g>
     </g>
     <g id="text_8">
      <!-- 100 -->
      <g transform="translate(24.7825 346.626219) scale(0.1 -0.1)">
       <use xlink:href="#DejaVuSans-31"/>
       <use xlink:href="#DejaVuSans-30" transform="translate(63.623047 0)"/>
       <use xlink:href="#DejaVuSans-30" transform="translate(127.246094 0)"/>
      </g>
     </g>
    </g>
    <g id="ytick_2">
     <g id="line2d_8">
      <g>
       <use xlink:href="#mcba5a28bc7" x="50.87" y="272.276816" style="stroke: #000000; stroke-width: 0.8"/>
      </g>
     </g>
     <g id="text_9">
      <!-- 150 -->
      <g transform="translate(24.7825 276.076034) scale(0.1 -0.1)">
       <use xlink:href="#DejaVuSans-31"/>
       <use xlink:href="#DejaVuSans-35" transform="translate(63.623047 0)"/>
       <use xlink:href="#DejaVuSans-30" transform="translate(127.246094 0)"/>
      </g>
     </g>
    </g>
    <g id="ytick_3">
     <g id="line2d_9">
      <g>
       <use xlink:href="#mcba5a28bc7" x="50.87" y="201.726631" style="stroke: #000000; stroke-width: 0.8"/>
      </g>
     </g>
     <g id="text_10">
      <!-- 200 -->
      <g transform="translate(24.7825 205.52585) scale(0.1 -0.1)">
       <use xlink:href="#DejaVuSans-32"/>
       <use xlink:href="#DejaVuSans-30" transform="translate(63.623047 0)"/>
       <use xlink:href="#DejaVuSans-30" transform="translate(127.246094 0)"/>
      </g>
     </g>
    </g>
    <g id="ytick_4">
     <g id="line2d_10">
      <g>
       <use xlink:href="#mcba5a28bc7" x="50.87" y="131.176446" style="stroke: #000000; stroke-width: 0.8"/>
      </g>
     </g>
     <g id="text_11">
      <!-- 250 -->
      <g transform="translate(24.7825 134.975665) scale(0.1 -0.1)">
       <use xlink:href="#DejaVuSans-32"/>
       <use xlink:href="#DejaVuSans-35" transform="translate(63.623047 0)"/>
       <use xlink:href="#DejaVuSans-30" transform="translate(127.246094 0)"/>
      </g>
     </g>
    </g>
    <g id="ytick_5">
     <g id="line2d_11">
      <g>
       <use xlink:href="#mcba5a28bc7" x="50.87" y="60.626261" style="stroke: #000000; stroke-width: 0.8"/>
      </g>
     </g>
     <g id="text_12">
      <!-- 300 -->
      <g transform="translate(24.7825 64.42548) scale(0.1 -0.1)">
       <use xlink:href="#DejaVuSans-33"/>
       <use xlink:href="#DejaVuSans-30" transform="translate(63.623047 0)"/>
       <use xlink:href="#DejaVuSans-30" transform="translate(127.246094 0)"/>
      </g>
     </g>
    </g>
    <g id="text_13">
     <!-- Profit -->
     <g transform="translate(18.702813 229.779063) rotate(-90) scale(0.1 -0.1)">
      <defs>
       <path id="DejaVuSans-50" d="M 1259 4147 
L 1259 2394 
L 2053 2394 
Q 2494 2394 2734 2622 
Q 2975 2850 2975 3272 
Q 2975 3691 2734 3919 
Q 2494 4147 2053 4147 
L 1259 4147 
z
M 628 4666 
L 2053 4666 
Q 2838 4666 3239 4311 
Q 3641 3956 3641 3272 
Q 3641 2581 3239 2228 
Q 2838 1875 2053 1875 
L 1259 1875 
L 1259 0 
L 628 0 
L 628 4666 
z
" transform="scale(0.015625)"/>
       <path id="DejaVuSans-72" d="M 2631 2963 
Q 2534 3019 2420 3045 
Q 2306 3072 2169 3072 
Q 1681 3072 1420 2755 
Q 1159 2438 1159 1844 
L 1159 0 
L 581 0 
L 581 3500 
L 1159 3500 
L 1159 2956 
Q 1341 3275 1631 3429 
Q 1922 3584 2338 3584 
Q 2397 3584 2469 3576 
Q 2541 3569 2628 3553 
L 2631 2963 
z
" transform="scale(0.015625)"/>
       <path id="DejaVuSans-6f" d="M 1959 3097 
Q 1497 3097 1228 2736 
Q 959 2375 959 1747 
Q 959 1119 1226 758 
Q 1494 397 1959 397 
Q 2419 397 2687 759 
Q 2956 1122 2956 1747 
Q 2956 2369 2687 2733 
Q 2419 3097 1959 3097 
z
M 1959 3584 
Q 2709 3584 3137 3096 
Q 3566 2609 3566 1747 
Q 3566 888 3137 398 
Q 2709 -91 1959 -91 
Q 1206 -91 779 398 
Q 353 888 353 1747 
Q 353 2609 779 3096 
Q 1206 3584 1959 3584 
z
" transform="scale(0.015625)"/>
       <path id="DejaVuSans-66" d="M 2375 4863 
L 2375 4384 
L 1825 4384 
Q 1516 4384 1395 4259 
Q 1275 4134 1275 3809 
L 1275 3500 
L 2222 3500 
L 2222 3053 
L 1275 3053 
L 1275 0 
L 697 0 
L 697 3053 
L 147 3053 
L 147 3500 
L 697 3500 
L 697 3744 
Q 697 4328 969 4595 
Q 1241 4863 1831 4863 
L 2375 4863 
z
" transform="scale(0.015625)"/>
       <path id="DejaVuSans-69" d="M 603 3500 
L 1178 3500 
L 1178 0 
L 603 0 
L 603 3500 
z
M 603 4863 
L 1178 4863 
L 1178 4134 
L 603 4134 
L 603 4863 
z
" transform="scale(0.015625)"/>
      </defs>
      <use xlink:href="#DejaVuSans-50"/>
      <use xlink:href="#DejaVuSans-72" transform="translate(58.552734 0)"/>
      <use xlink:href="#DejaVuSans-6f" transform="translate(97.416016 0)"/>
      <use xlink:href="#DejaVuSans-66" transform="translate(158.597656 0)"/>
      <use xlink:href="#DejaVuSans-69" transform="translate(193.802734 0)"/>
      <use xlink:href="#DejaVuSans-74" transform="translate(221.585938 0)"/>
     </g>
    </g>
   </g>
   <g id="line2d_12">
    <path d="M 52.193327 253.622247 
L 54.83998 253.5442 
L 60.133287 244.475009 
L 65.426593 236.174942 
L 68.073247 232.300861 
L 73.366553 225.929922 
L 76.013207 222.953327 
L 81.306513 217.815079 
L 83.953167 215.667397 
L 86.59982 213.844887 
L 91.893127 209.827328 
L 97.186433 206.99531 
L 99.833087 205.018772 
L 102.47974 203.245006 
L 105.126393 201.724133 
L 107.773047 200.546797 
L 110.4197 199.518407 
L 113.066353 198.881737 
L 115.713007 197.766042 
L 118.35966 196.39644 
L 121.006313 195.530345 
L 123.652967 194.965091 
L 126.29962 194.063449 
L 131.592927 192.575065 
L 134.23958 191.93691 
L 136.886233 190.914893 
L 139.532887 190.414035 
L 144.826193 189.060517 
L 147.472847 188.592558 
L 150.1195 187.965577 
L 152.766153 186.855135 
L 155.412807 186.401515 
L 160.706113 185.105009 
L 163.352767 184.653198 
L 168.646073 183.415232 
L 171.292727 182.868171 
L 173.93938 182.552883 
L 176.586033 181.77265 
L 181.87934 180.890126 
L 187.172647 180.244586 
L 189.8193 180.018261 
L 197.75926 178.815734 
L 200.405913 178.519069 
L 208.345873 177.23701 
L 216.285833 176.207285 
L 218.932487 176.101399 
L 221.57914 175.770415 
L 224.225793 175.283789 
L 237.45906 173.845485 
L 240.105713 173.354166 
L 242.752367 173.02273 
L 245.39902 172.856969 
L 250.692327 172.133726 
L 253.33898 171.977094 
L 255.985633 171.543777 
L 258.632287 171.390094 
L 261.27894 171.090006 
L 263.925593 170.991097 
L 266.572247 170.749958 
L 269.2189 170.650855 
L 271.865553 170.305403 
L 274.512207 170.149395 
L 277.15886 169.766415 
L 282.452167 169.403007 
L 285.09882 169.247796 
L 287.745473 169.325972 
L 295.685433 168.483107 
L 300.97874 168.057089 
L 303.625393 168.026043 
L 308.9187 167.669244 
L 316.85866 166.913792 
L 319.505313 166.894092 
L 324.79862 166.565433 
L 327.445273 166.434422 
L 330.091927 166.092931 
L 332.73858 165.957097 
L 335.385233 165.979769 
L 338.031887 165.767696 
L 340.67854 165.799152 
L 351.265153 164.82829 
L 353.911807 164.629437 
L 356.55846 164.588379 
L 359.205113 164.414329 
L 361.851767 164.063171 
L 383.024993 162.983388 
L 385.671647 162.548607 
L 388.3183 162.380478 
L 393.611607 162.320258 
L 398.904913 162.090724 
L 404.19822 162.323229 
L 414.784833 161.606402 
L 420.07814 161.85964 
L 428.0181 161.578951 
L 430.664753 161.39405 
L 433.311407 161.419132 
L 435.95806 161.034474 
L 438.604713 160.931279 
L 441.251367 160.529483 
L 446.544673 160.307721 
L 462.424593 159.387886 
L 467.7179 159.305856 
L 475.65786 158.943977 
L 478.304513 158.680145 
L 499.47774 157.829487 
L 518.004313 156.953294 
L 520.650967 157.046821 
L 531.23758 156.777176 
L 533.884233 156.790396 
L 541.824193 156.254401 
L 544.470847 156.22962 
L 547.1175 156.042307 
L 549.764153 156.176441 
L 570.93738 155.627937 
L 576.230687 155.209756 
L 581.523993 154.958692 
L 584.170647 154.994002 
L 589.463953 154.743498 
L 615.930487 153.725097 
L 621.223793 153.792121 
L 626.5171 153.709961 
L 629.163753 153.887823 
L 637.103713 153.46977 
L 645.043673 153.029607 
L 652.983633 152.959418 
L 666.2169 152.364862 
L 674.15686 152.416879 
L 676.803513 152.277019 
L 684.743473 152.149431 
L 690.03678 152.022402 
L 695.330087 152.015319 
L 697.97674 152.053083 
L 703.270047 151.730668 
L 705.9167 151.9115 
L 708.563353 151.845682 
L 713.85666 151.860065 
L 716.503313 151.861981 
L 719.149967 151.643191 
L 729.73658 151.59942 
L 737.67654 151.276338 
L 742.969847 151.105258 
L 745.6165 151.070078 
L 750.909807 150.807345 
L 761.49642 150.547368 
L 766.789727 150.285453 
L 769.43638 150.315875 
L 772.083033 150.106903 
L 774.729687 150.249411 
L 777.37634 150.120854 
L 780.022993 150.236428 
L 790.609607 149.93423 
L 793.25626 150.028081 
L 795.902913 149.910418 
L 801.19622 149.968377 
L 803.842873 150.09519 
L 806.489527 150.072541 
L 811.782833 149.839024 
L 819.722793 149.47906 
L 822.369447 149.269808 
L 830.309407 149.343119 
L 843.542673 149.281779 
L 843.542673 149.281779 
" clip-path="url(#pa221326a2f)" style="fill: none; stroke: #0000ff; stroke-width: 1.5; stroke-linecap: square"/>
   </g>
   <g id="patch_3">
    <path d="M 50.87 390.04 
L 50.87 43.44 
" style="fill: none; stroke: #000000; stroke-width: 0.8; stroke-linejoin: miter; stroke-linecap: square"/>
   </g>
   <g id="patch_4">
    <path d="M 844.866 390.04 
L 844.866 43.44 
" style="fill: none; stroke: #000000; stroke-width: 0.8; stroke-linejoin: miter; stroke-linecap: square"/>
   </g>
   <g id="patch_5">
    <path d="M 50.87 390.04 
L 844.866 390.04 
" style="fill: none; stroke: #000000; stroke-width: 0.8; stroke-linejoin: miter; stroke-linecap: square"/>
   </g>
   <g id="patch_6">
    <path d="M 50.87 43.44 
L 844.866 43.44 
" style="fill: none; stroke: #000000; stroke-width: 0.8; stroke-linejoin: miter; stroke-linecap: square"/>
   </g>
   <g id="text_14">
    <!-- Mean profit per step with confidence interval per simulation step -->
    <g transform="translate(220.284875 21.763062) scale(0.14 -0.14)">
     <defs>
      <path id="DejaVuSans-4d" d="M 628 4666 
L 1569 4666 
L 2759 1491 
L 3956 4666 
L 4897 4666 
L 4897 0 
L 4281 0 
L 4281 4097 
L 3078 897 
L 2444 897 
L 1241 4097 
L 1241 0 
L 628 0 
L 628 4666 
z
" transform="scale(0.015625)"/>
      <path id="DejaVuSans-61" d="M 2194 1759 
Q 1497 1759 1228 1600 
Q 959 1441 959 1056 
Q 959 750 1161 570 
Q 1363 391 1709 391 
Q 2188 391 2477 730 
Q 2766 1069 2766 1631 
L 2766 1759 
L 2194 1759 
z
M 3341 1997 
L 3341 0 
L 2766 0 
L 2766 531 
Q 2569 213 2275 61 
Q 1981 -91 1556 -91 
Q 1019 -91 701 211 
Q 384 513 384 1019 
Q 384 1609 779 1909 
Q 1175 2209 1959 2209 
L 2766 2209 
L 2766 2266 
Q 2766 2663 2505 2880 
Q 2244 3097 1772 3097 
Q 1472 3097 1187 3025 
Q 903 2953 641 2809 
L 641 3341 
Q 956 3463 1253 3523 
Q 1550 3584 1831 3584 
Q 2591 3584 2966 3190 
Q 3341 2797 3341 1997 
z
" transform="scale(0.015625)"/>
      <path id="DejaVuSans-6e" d="M 3513 2113 
L 3513 0 
L 2938 0 
L 2938 2094 
Q 2938 2591 2744 2837 
Q 2550 3084 2163 3084 
Q 1697 3084 1428 2787 
Q 1159 2491 1159 1978 
L 1159 0 
L 581 0 
L 581 3500 
L 1159 3500 
L 1159 2956 
Q 1366 3272 1645 3428 
Q 1925 3584 2291 3584 
Q 2894 3584 3203 3211 
Q 3513 2838 3513 2113 
z
" transform="scale(0.015625)"/>
      <path id="DejaVuSans-20" transform="scale(0.015625)"/>
      <path id="DejaVuSans-73" d="M 2834 3397 
L 2834 2853 
Q 2591 2978 2328 3040 
Q 2066 3103 1784 3103 
Q 1356 3103 1142 2972 
Q 928 2841 928 2578 
Q 928 2378 1081 2264 
Q 1234 2150 1697 2047 
L 1894 2003 
Q 2506 1872 2764 1633 
Q 3022 1394 3022 966 
Q 3022 478 2636 193 
Q 2250 -91 1575 -91 
Q 1294 -91 989 -36 
Q 684 19 347 128 
L 347 722 
Q 666 556 975 473 
Q 1284 391 1588 391 
Q 1994 391 2212 530 
Q 2431 669 2431 922 
Q 2431 1156 2273 1281 
Q 2116 1406 1581 1522 
L 1381 1569 
Q 847 1681 609 1914 
Q 372 2147 372 2553 
Q 372 3047 722 3315 
Q 1072 3584 1716 3584 
Q 2034 3584 2315 3537 
Q 2597 3491 2834 3397 
z
" transform="scale(0.015625)"/>
      <path id="DejaVuSans-77" d="M 269 3500 
L 844 3500 
L 1563 769 
L 2278 3500 
L 2956 3500 
L 3675 769 
L 4391 3500 
L 4966 3500 
L 4050 0 
L 3372 0 
L 2619 2869 
L 1863 0 
L 1184 0 
L 269 3500 
z
" transform="scale(0.015625)"/>
      <path id="DejaVuSans-68" d="M 3513 2113 
L 3513 0 
L 2938 0 
L 2938 2094 
Q 2938 2591 2744 2837 
Q 2550 3084 2163 3084 
Q 1697 3084 1428 2787 
Q 1159 2491 1159 1978 
L 1159 0 
L 581 0 
L 581 4863 
L 1159 4863 
L 1159 2956 
Q 1366 3272 1645 3428 
Q 1925 3584 2291 3584 
Q 2894 3584 3203 3211 
Q 3513 2838 3513 2113 
z
" transform="scale(0.015625)"/>
      <path id="DejaVuSans-63" d="M 3122 3366 
L 3122 2828 
Q 2878 2963 2633 3030 
Q 2388 3097 2138 3097 
Q 1578 3097 1268 2742 
Q 959 2388 959 1747 
Q 959 1106 1268 751 
Q 1578 397 2138 397 
Q 2388 397 2633 464 
Q 2878 531 3122 666 
L 3122 134 
Q 2881 22 2623 -34 
Q 2366 -91 2075 -91 
Q 1284 -91 818 406 
Q 353 903 353 1747 
Q 353 2603 823 3093 
Q 1294 3584 2113 3584 
Q 2378 3584 2631 3529 
Q 2884 3475 3122 3366 
z
" transform="scale(0.015625)"/>
      <path id="DejaVuSans-64" d="M 2906 2969 
L 2906 4863 
L 3481 4863 
L 3481 0 
L 2906 0 
L 2906 525 
Q 2725 213 2448 61 
Q 2172 -91 1784 -91 
Q 1150 -91 751 415 
Q 353 922 353 1747 
Q 353 2572 751 3078 
Q 1150 3584 1784 3584 
Q 2172 3584 2448 3432 
Q 2725 3281 2906 2969 
z
M 947 1747 
Q 947 1113 1208 752 
Q 1469 391 1925 391 
Q 2381 391 2643 752 
Q 2906 1113 2906 1747 
Q 2906 2381 2643 2742 
Q 2381 3103 1925 3103 
Q 1469 3103 1208 2742 
Q 947 2381 947 1747 
z
" transform="scale(0.015625)"/>
      <path id="DejaVuSans-76" d="M 191 3500 
L 800 3500 
L 1894 563 
L 2988 3500 
L 3597 3500 
L 2284 0 
L 1503 0 
L 191 3500 
z
" transform="scale(0.015625)"/>
      <path id="DejaVuSans-6c" d="M 603 4863 
L 1178 4863 
L 1178 0 
L 603 0 
L 603 4863 
z
" transform="scale(0.015625)"/>
      <path id="DejaVuSans-6d" d="M 3328 2828 
Q 3544 3216 3844 3400 
Q 4144 3584 4550 3584 
Q 5097 3584 5394 3201 
Q 5691 2819 5691 2113 
L 5691 0 
L 5113 0 
L 5113 2094 
Q 5113 2597 4934 2840 
Q 4756 3084 4391 3084 
Q 3944 3084 3684 2787 
Q 3425 2491 3425 1978 
L 3425 0 
L 2847 0 
L 2847 2094 
Q 2847 2600 2669 2842 
Q 2491 3084 2119 3084 
Q 1678 3084 1418 2786 
Q 1159 2488 1159 1978 
L 1159 0 
L 581 0 
L 581 3500 
L 1159 3500 
L 1159 2956 
Q 1356 3278 1631 3431 
Q 1906 3584 2284 3584 
Q 2666 3584 2933 3390 
Q 3200 3197 3328 2828 
z
" transform="scale(0.015625)"/>
      <path id="DejaVuSans-75" d="M 544 1381 
L 544 3500 
L 1119 3500 
L 1119 1403 
Q 1119 906 1312 657 
Q 1506 409 1894 409 
Q 2359 409 2629 706 
Q 2900 1003 2900 1516 
L 2900 3500 
L 3475 3500 
L 3475 0 
L 2900 0 
L 2900 538 
Q 2691 219 2414 64 
Q 2138 -91 1772 -91 
Q 1169 -91 856 284 
Q 544 659 544 1381 
z
M 1991 3584 
L 1991 3584 
z
" transform="scale(0.015625)"/>
     </defs>
     <use xlink:href="#DejaVuSans-4d"/>
     <use xlink:href="#DejaVuSans-65" transform="translate(86.279297 0)"/>
     <use xlink:href="#DejaVuSans-61" transform="translate(147.802734 0)"/>
     <use xlink:href="#DejaVuSans-6e" transform="translate(209.082031 0)"/>
     <use xlink:href="#DejaVuSans-20" transform="translate(272.460938 0)"/>
     <use xlink:href="#DejaVuSans-70" transform="translate(304.248047 0)"/>
     <use xlink:href="#DejaVuSans-72" transform="translate(367.724609 0)"/>
     <use xlink:href="#DejaVuSans-6f" transform="translate(406.587891 0)"/>
     <use xlink:href="#DejaVuSans-66" transform="translate(467.769531 0)"/>
     <use xlink:href="#DejaVuSans-69" transform="translate(502.974609 0)"/>
     <use xlink:href="#DejaVuSans-74" transform="translate(530.757812 0)"/>
     <use xlink:href="#DejaVuSans-20" transform="translate(569.966797 0)"/>
     <use xlink:href="#DejaVuSans-70" transform="translate(601.753906 0)"/>
     <use xlink:href="#DejaVuSans-65" transform="translate(665.230469 0)"/>
     <use xlink:href="#DejaVuSans-72" transform="translate(726.753906 0)"/>
     <use xlink:href="#DejaVuSans-20" transform="translate(767.867188 0)"/>
     <use xlink:href="#DejaVuSans-73" transform="translate(799.654297 0)"/>
     <use xlink:href="#DejaVuSans-74" transform="translate(851.753906 0)"/>
     <use xlink:href="#DejaVuSans-65" transform="translate(890.962891 0)"/>
     <use xlink:href="#DejaVuSans-70" transform="translate(952.486328 0)"/>
     <use xlink:href="#DejaVuSans-20" transform="translate(1015.962891 0)"/>
     <use xlink:href="#DejaVuSans-77" transform="translate(1047.75 0)"/>
     <use xlink:href="#DejaVuSans-69" transform="translate(1129.537109 0)"/>
     <use xlink:href="#DejaVuSans-74" transform="translate(1157.320312 0)"/>
     <use xlink:href="#DejaVuSans-68" transform="translate(1196.529297 0)"/>
     <use xlink:href="#DejaVuSans-20" transform="translate(1259.908203 0)"/>
     <use xlink:href="#DejaVuSans-63" transform="translate(1291.695312 0)"/>
     <use xlink:href="#DejaVuSans-6f" transform="translate(1346.675781 0)"/>
     <use xlink:href="#DejaVuSans-6e" transform="translate(1407.857422 0)"/>
     <use xlink:href="#DejaVuSans-66" transform="translate(1471.236328 0)"/>
     <use xlink:href="#DejaVuSans-69" transform="translate(1506.441406 0)"/>
     <use xlink:href="#DejaVuSans-64" transform="translate(1534.224609 0)"/>
     <use xlink:href="#DejaVuSans-65" transform="translate(1597.701172 0)"/>
     <use xlink:href="#DejaVuSans-6e" transform="translate(1659.224609 0)"/>
     <use xlink:href="#DejaVuSans-63" transform="translate(1722.603516 0)"/>
     <use xlink:href="#DejaVuSans-65" transform="translate(1777.583984 0)"/>
     <use xlink:href="#DejaVuSans-20" transform="translate(1839.107422 0)"/>
     <use xlink:href="#DejaVuSans-69" transform="translate(1870.894531 0)"/>
     <use xlink:href="#DejaVuSans-6e" transform="translate(1898.677734 0)"/>
     <use xlink:href="#DejaVuSans-74" transform="translate(1962.056641 0)"/>
     <use xlink:href="#DejaVuSans-65" transform="translate(2001.265625 0)"/>
     <use xlink:href="#DejaVuSans-72" transform="translate(2062.789062 0)"/>
     <use xlink:href="#DejaVuSans-76" transform="translate(2103.902344 0)"/>
     <use xlink:href="#DejaVuSans-61" transform="translate(2163.082031 0)"/>
     <use xlink:href="#DejaVuSans-6c" transform="translate(2224.361328 0)"/>
     <use xlink:href="#DejaVuSans-20" transform="translate(2252.144531 0)"/>
     <use xlink:href="#DejaVuSans-70" transform="translate(2283.931641 0)"/>
     <use xlink:href="#DejaVuSans-65" transform="translate(2347.408203 0)"/>
     <use xlink:href="#DejaVuSans-72" transform="translate(2408.931641 0)"/>
     <use xlink:href="#DejaVuSans-20" transform="translate(2450.044922 0)"/>
     <use xlink:href="#DejaVuSans-73" transform="translate(2481.832031 0)"/>
     <use xlink:href="#DejaVuSans-69" transform="translate(2533.931641 0)"/>
     <use xlink:href="#DejaVuSans-6d" transform="translate(2561.714844 0)"/>
     <use xlink:href="#DejaVuSans-75" transform="translate(2659.126953 0)"/>
     <use xlink:href="#DejaVuSans-6c" transform="translate(2722.505859 0)"/>
     <use xlink:href="#DejaVuSans-61" transform="translate(2750.289062 0)"/>
     <use xlink:href="#DejaVuSans-74" transform="translate(2811.568359 0)"/>
     <use xlink:href="#DejaVuSans-69" transform="translate(2850.777344 0)"/>
     <use xlink:href="#DejaVuSans-6f" transform="translate(2878.560547 0)"/>
     <use xlink:href="#DejaVuSans-6e" transform="translate(2939.742188 0)"/>
     <use xlink:href="#DejaVuSans-20" transform="translate(3003.121094 0)"/>
     <use xlink:href="#DejaVuSans-73" transform="translate(3034.908203 0)"/>
     <use xlink:href="#DejaVuSans-74" transform="translate(3087.007812 0)"/>
     <use xlink:href="#DejaVuSans-65" transform="translate(3126.216797 0)"/>
     <use xlink:href="#DejaVuSans-70" transform="translate(3187.740234 0)"/>
    </g>
    <!-- Base Product: Meth, Recipe size: 8, T0: 50.0 -->
    <g transform="translate(293.881125 37.44) scale(0.14 -0.14)">
     <defs>
      <path id="DejaVuSans-42" d="M 1259 2228 
L 1259 519 
L 2272 519 
Q 2781 519 3026 730 
Q 3272 941 3272 1375 
Q 3272 1813 3026 2020 
Q 2781 2228 2272 2228 
L 1259 2228 
z
M 1259 4147 
L 1259 2741 
L 2194 2741 
Q 2656 2741 2882 2914 
Q 3109 3088 3109 3444 
Q 3109 3797 2882 3972 
Q 2656 4147 2194 4147 
L 1259 4147 
z
M 628 4666 
L 2241 4666 
Q 2963 4666 3353 4366 
Q 3744 4066 3744 3513 
Q 3744 3084 3544 2831 
Q 3344 2578 2956 2516 
Q 3422 2416 3680 2098 
Q 3938 1781 3938 1306 
Q 3938 681 3513 340 
Q 3088 0 2303 0 
L 628 0 
L 628 4666 
z
" transform="scale(0.015625)"/>
      <path id="DejaVuSans-3a" d="M 750 794 
L 1409 794 
L 1409 0 
L 750 0 
L 750 794 
z
M 750 3309 
L 1409 3309 
L 1409 2516 
L 750 2516 
L 750 3309 
z
" transform="scale(0.015625)"/>
      <path id="DejaVuSans-2c" d="M 750 794 
L 1409 794 
L 1409 256 
L 897 -744 
L 494 -744 
L 750 256 
L 750 794 
z
" transform="scale(0.015625)"/>
      <path id="DejaVuSans-52" d="M 2841 2188 
Q 3044 2119 3236 1894 
Q 3428 1669 3622 1275 
L 4263 0 
L 3584 0 
L 2988 1197 
Q 2756 1666 2539 1819 
Q 2322 1972 1947 1972 
L 1259 1972 
L 1259 0 
L 628 0 
L 628 4666 
L 2053 4666 
Q 2853 4666 3247 4331 
Q 3641 3997 3641 3322 
Q 3641 2881 3436 2590 
Q 3231 2300 2841 2188 
z
M 1259 4147 
L 1259 2491 
L 2053 2491 
Q 2509 2491 2742 2702 
Q 2975 2913 2975 3322 
Q 2975 3731 2742 3939 
Q 2509 4147 2053 4147 
L 1259 4147 
z
" transform="scale(0.015625)"/>
      <path id="DejaVuSans-7a" d="M 353 3500 
L 3084 3500 
L 3084 2975 
L 922 459 
L 3084 459 
L 3084 0 
L 275 0 
L 275 525 
L 2438 3041 
L 353 3041 
L 353 3500 
z
" transform="scale(0.015625)"/>
      <path id="DejaVuSans-38" d="M 2034 2216 
Q 1584 2216 1326 1975 
Q 1069 1734 1069 1313 
Q 1069 891 1326 650 
Q 1584 409 2034 409 
Q 2484 409 2743 651 
Q 3003 894 3003 1313 
Q 3003 1734 2745 1975 
Q 2488 2216 2034 2216 
z
M 1403 2484 
Q 997 2584 770 2862 
Q 544 3141 544 3541 
Q 544 4100 942 4425 
Q 1341 4750 2034 4750 
Q 2731 4750 3128 4425 
Q 3525 4100 3525 3541 
Q 3525 3141 3298 2862 
Q 3072 2584 2669 2484 
Q 3125 2378 3379 2068 
Q 3634 1759 3634 1313 
Q 3634 634 3220 271 
Q 2806 -91 2034 -91 
Q 1263 -91 848 271 
Q 434 634 434 1313 
Q 434 1759 690 2068 
Q 947 2378 1403 2484 
z
M 1172 3481 
Q 1172 3119 1398 2916 
Q 1625 2713 2034 2713 
Q 2441 2713 2670 2916 
Q 2900 3119 2900 3481 
Q 2900 3844 2670 4047 
Q 2441 4250 2034 4250 
Q 1625 4250 1398 4047 
Q 1172 3844 1172 3481 
z
" transform="scale(0.015625)"/>
      <path id="DejaVuSans-54" d="M -19 4666 
L 3928 4666 
L 3928 4134 
L 2272 4134 
L 2272 0 
L 1638 0 
L 1638 4134 
L -19 4134 
L -19 4666 
z
" transform="scale(0.015625)"/>
      <path id="DejaVuSans-2e" d="M 684 794 
L 1344 794 
L 1344 0 
L 684 0 
L 684 794 
z
" transform="scale(0.015625)"/>
     </defs>
     <use xlink:href="#DejaVuSans-42"/>
     <use xlink:href="#DejaVuSans-61" transform="translate(68.603516 0)"/>
     <use xlink:href="#DejaVuSans-73" transform="translate(129.882812 0)"/>
     <use xlink:href="#DejaVuSans-65" transform="translate(181.982422 0)"/>
     <use xlink:href="#DejaVuSans-20" transform="translate(243.505859 0)"/>
     <use xlink:href="#DejaVuSans-50" transform="translate(275.292969 0)"/>
     <use xlink:href="#DejaVuSans-72" transform="translate(333.845703 0)"/>
     <use xlink:href="#DejaVuSans-6f" transform="translate(372.708984 0)"/>
     <use xlink:href="#DejaVuSans-64" transform="translate(433.890625 0)"/>
     <use xlink:href="#DejaVuSans-75" transform="translate(497.367188 0)"/>
     <use xlink:href="#DejaVuSans-63" transform="translate(560.746094 0)"/>
     <use xlink:href="#DejaVuSans-74" transform="translate(615.726562 0)"/>
     <use xlink:href="#DejaVuSans-3a" transform="translate(654.935547 0)"/>
     <use xlink:href="#DejaVuSans-20" transform="translate(688.626953 0)"/>
     <use xlink:href="#DejaVuSans-4d" transform="translate(720.414062 0)"/>
     <use xlink:href="#DejaVuSans-65" transform="translate(806.693359 0)"/>
     <use xlink:href="#DejaVuSans-74" transform="translate(868.216797 0)"/>
     <use xlink:href="#DejaVuSans-68" transform="translate(907.425781 0)"/>
     <use xlink:href="#DejaVuSans-2c" transform="translate(970.804688 0)"/>
     <use xlink:href="#DejaVuSans-20" transform="translate(1002.591797 0)"/>
     <use xlink:href="#DejaVuSans-52" transform="translate(1034.378906 0)"/>
     <use xlink:href="#DejaVuSans-65" transform="translate(1099.361328 0)"/>
     <use xlink:href="#DejaVuSans-63" transform="translate(1160.884766 0)"/>
     <use xlink:href="#DejaVuSans-69" transform="translate(1215.865234 0)"/>
     <use xlink:href="#DejaVuSans-70" transform="translate(1243.648438 0)"/>
     <use xlink:href="#DejaVuSans-65" transform="translate(1307.125 0)"/>
     <use xlink:href="#DejaVuSans-20" transform="translate(1368.648438 0)"/>
     <use xlink:href="#DejaVuSans-73" transform="translate(1400.435547 0)"/>
     <use xlink:href="#DejaVuSans-69" transform="translate(1452.535156 0)"/>
     <use xlink:href="#DejaVuSans-7a" transform="translate(1480.318359 0)"/>
     <use xlink:href="#DejaVuSans-65" transform="translate(1532.808594 0)"/>
     <use xlink:href="#DejaVuSans-3a" transform="translate(1594.332031 0)"/>
     <use xlink:href="#DejaVuSans-20" transform="translate(1628.023438 0)"/>
     <use xlink:href="#DejaVuSans-38" transform="translate(1659.810547 0)"/>
     <use xlink:href="#DejaVuSans-2c" transform="translate(1723.433594 0)"/>
     <use xlink:href="#DejaVuSans-20" transform="translate(1755.220703 0)"/>
     <use xlink:href="#DejaVuSans-54" transform="translate(1787.007812 0)"/>
     <use xlink:href="#DejaVuSans-30" transform="translate(1848.091797 0)"/>
     <use xlink:href="#DejaVuSans-3a" transform="translate(1911.714844 0)"/>
     <use xlink:href="#DejaVuSans-20" transform="translate(1945.40625 0)"/>
     <use xlink:href="#DejaVuSans-35" transform="translate(1977.193359 0)"/>
     <use xlink:href="#DejaVuSans-30" transform="translate(2040.816406 0)"/>
     <use xlink:href="#DejaVuSans-2e" transform="translate(2104.439453 0)"/>
     <use xlink:href="#DejaVuSans-30" transform="translate(2136.226562 0)"/>
    </g>
   </g>
  </g>
 </g>
 <defs>
  <clipPath id="pa221326a2f">
   <rect x="50.87" y="43.44" width="793.996" height="346.6"/>
  </clipPath>
 </defs>
</svg>
