<?xml version="1.0" encoding="utf-8" standalone="no"?>
<!DOCTYPE svg PUBLIC "-//W3C//DTD SVG 1.1//EN"
  "http://www.w3.org/Graphics/SVG/1.1/DTD/svg11.dtd">
<svg xmlns:xlink="http://www.w3.org/1999/xlink" width="864pt" height="432pt" viewBox="0 0 864 432" xmlns="http://www.w3.org/2000/svg" version="1.1">
 <metadata>
  <rdf:RDF xmlns:dc="http://purl.org/dc/elements/1.1/" xmlns:cc="http://creativecommons.org/ns#" xmlns:rdf="http://www.w3.org/1999/02/22-rdf-syntax-ns#">
   <cc:Work>
    <dc:type rdf:resource="http://purl.org/dc/dcmitype/StillImage"/>
    <dc:date>2025-05-24T02:19:16.240372</dc:date>
    <dc:format>image/svg+xml</dc:format>
    <dc:creator>
     <cc:Agent>
      <dc:title>Matplotlib v3.10.3, https://matplotlib.org/</dc:title>
     </cc:Agent>
    </dc:creator>
   </cc:Work>
  </rdf:RDF>
 </metadata>
 <defs>
  <style type="text/css">*{stroke-linejoin: round; stroke-linecap: butt}</style>
 </defs>
 <g id="figure_1">
  <g id="patch_1">
   <path d="M 0 432 
L 864 432 
L 864 0 
L 0 0 
z
" style="fill: #ffffff"/>
  </g>
  <g id="axes_1">
   <g id="patch_2">
    <path d="M 50.87 390.04 
L 844.866 390.04 
L 844.866 43.44 
L 50.87 43.44 
z
" style="fill: #ffffff"/>
   </g>
   <g id="FillBetweenPolyCollection_1">
    <defs>
     <path id="ma153da32b4" d="M 52.193327 -302.975647 
L 52.193327 -59.879862 
L 54.83998 -57.714545 
L 57.486633 -75.575859 
L 60.133287 -91.506127 
L 62.77994 -103.915739 
L 65.426593 -115.267826 
L 68.073247 -123.867327 
L 70.7199 -132.388164 
L 73.366553 -138.925721 
L 76.013207 -145.855985 
L 78.65986 -151.318743 
L 81.306513 -156.687063 
L 83.953167 -161.42041 
L 86.59982 -165.514916 
L 89.246473 -169.283739 
L 91.893127 -172.583423 
L 94.53978 -175.563145 
L 97.186433 -178.667989 
L 99.833087 -181.704705 
L 102.47974 -184.197417 
L 105.126393 -186.698213 
L 107.773047 -188.887664 
L 110.4197 -190.825635 
L 113.066353 -192.744077 
L 115.713007 -194.539563 
L 118.35966 -196.533953 
L 121.006313 -198.279955 
L 123.652967 -199.747483 
L 126.29962 -201.290119 
L 128.946273 -202.776379 
L 131.592927 -204.096076 
L 134.23958 -205.379146 
L 136.886233 -206.86375 
L 139.532887 -207.872454 
L 142.17954 -209.239535 
L 144.826193 -210.376365 
L 147.472847 -211.568908 
L 150.1195 -212.712145 
L 152.766153 -213.742984 
L 155.412807 -214.688553 
L 158.05946 -215.645742 
L 160.706113 -216.637746 
L 163.352767 -217.494135 
L 165.99942 -218.281778 
L 168.646073 -219.09034 
L 171.292727 -219.939108 
L 173.93938 -220.645568 
L 176.586033 -221.533569 
L 179.232687 -222.152814 
L 181.87934 -222.847389 
L 184.525993 -223.592265 
L 187.172647 -224.355851 
L 189.8193 -224.836676 
L 192.465953 -225.478609 
L 195.112607 -226.061693 
L 197.75926 -226.704332 
L 200.405913 -227.317083 
L 203.052567 -227.89862 
L 205.69922 -228.516872 
L 208.345873 -229.134991 
L 210.992527 -229.818852 
L 213.63918 -230.310237 
L 216.285833 -230.905161 
L 218.932487 -231.501035 
L 221.57914 -231.907569 
L 224.225793 -232.548729 
L 226.872447 -232.904035 
L 229.5191 -233.460588 
L 232.165753 -234.019305 
L 234.812407 -234.497457 
L 237.45906 -235.002693 
L 240.105713 -235.50678 
L 242.752367 -235.988357 
L 245.39902 -236.32767 
L 248.045673 -236.74768 
L 250.692327 -237.167888 
L 253.33898 -237.534328 
L 255.985633 -237.875541 
L 258.632287 -238.302752 
L 261.27894 -238.696055 
L 263.925593 -239.130203 
L 266.572247 -239.520854 
L 269.2189 -239.845587 
L 271.865553 -240.193184 
L 274.512207 -240.627995 
L 277.15886 -240.924739 
L 279.805513 -241.286562 
L 282.452167 -241.582842 
L 285.09882 -241.834896 
L 287.745473 -242.153488 
L 290.392127 -242.408481 
L 293.03878 -242.713685 
L 295.685433 -243.002167 
L 298.332087 -243.322305 
L 300.97874 -243.69091 
L 303.625393 -243.998854 
L 306.272047 -244.286873 
L 308.9187 -244.448554 
L 311.565353 -244.647945 
L 314.212007 -244.955336 
L 316.85866 -245.164093 
L 319.505313 -245.448864 
L 322.151967 -245.666766 
L 324.79862 -245.91226 
L 327.445273 -246.216449 
L 330.091927 -246.475484 
L 332.73858 -246.740992 
L 335.385233 -246.924234 
L 338.031887 -247.099059 
L 340.67854 -247.343029 
L 343.325193 -247.521124 
L 345.971847 -247.84188 
L 348.6185 -248.095835 
L 351.265153 -248.266242 
L 353.911807 -248.576969 
L 356.55846 -248.799997 
L 359.205113 -249.026007 
L 361.851767 -249.226921 
L 364.49842 -249.423661 
L 367.145073 -249.672004 
L 369.791727 -249.884207 
L 372.43838 -250.066786 
L 375.085033 -250.23567 
L 377.731687 -250.474227 
L 380.37834 -250.633169 
L 383.024993 -250.78142 
L 385.671647 -250.971289 
L 388.3183 -251.182299 
L 390.964953 -251.389532 
L 393.611607 -251.565396 
L 396.25826 -251.771016 
L 398.904913 -252.043106 
L 401.551567 -252.21696 
L 404.19822 -252.409789 
L 406.844873 -252.585808 
L 409.491527 -252.852442 
L 412.13818 -253.033564 
L 414.784833 -253.181947 
L 417.431487 -253.348201 
L 420.07814 -253.542643 
L 422.724793 -253.677396 
L 425.371447 -253.864549 
L 428.0181 -253.999788 
L 430.664753 -254.135822 
L 433.311407 -254.253941 
L 435.95806 -254.399982 
L 438.604713 -254.61477 
L 441.251367 -254.795582 
L 443.89802 -254.978515 
L 446.544673 -255.118879 
L 449.191327 -255.260812 
L 451.83798 -255.421013 
L 454.484633 -255.62206 
L 457.131287 -255.747602 
L 459.77794 -255.868195 
L 462.424593 -256.008625 
L 465.071247 -256.213008 
L 467.7179 -256.328807 
L 470.364553 -256.523492 
L 473.011207 -256.674482 
L 475.65786 -256.801106 
L 478.304513 -256.936301 
L 480.951167 -257.054243 
L 483.59782 -257.244377 
L 486.244473 -257.354919 
L 488.891127 -257.487861 
L 491.53778 -257.628976 
L 494.184433 -257.763729 
L 496.831087 -257.91505 
L 499.47774 -258.071717 
L 502.124393 -258.131826 
L 504.771047 -258.213937 
L 507.4177 -258.406302 
L 510.064353 -258.510482 
L 512.711007 -258.63335 
L 515.35766 -258.732029 
L 518.004313 -258.83009 
L 520.650967 -258.921457 
L 523.29762 -259.001845 
L 525.944273 -259.134433 
L 528.590927 -259.235984 
L 531.23758 -259.444917 
L 533.884233 -259.541564 
L 536.530887 -259.728517 
L 539.17754 -259.894683 
L 541.824193 -260.080311 
L 544.470847 -260.186987 
L 547.1175 -260.327285 
L 549.764153 -260.432304 
L 552.410807 -260.47748 
L 555.05746 -260.605672 
L 557.704113 -260.706913 
L 560.350767 -260.786594 
L 562.99742 -260.924506 
L 565.644073 -261.077794 
L 568.290727 -261.20307 
L 570.93738 -261.343125 
L 573.584033 -261.496036 
L 576.230687 -261.611372 
L 578.87734 -261.66165 
L 581.523993 -261.790903 
L 584.170647 -261.850304 
L 586.8173 -261.987178 
L 589.463953 -262.06993 
L 592.110607 -262.165605 
L 594.75726 -262.29563 
L 597.403913 -262.404802 
L 600.050567 -262.484505 
L 602.69722 -262.566661 
L 605.343873 -262.699757 
L 607.990527 -262.783878 
L 610.63718 -262.899081 
L 613.283833 -262.974455 
L 615.930487 -263.020911 
L 618.57714 -263.124605 
L 621.223793 -263.214403 
L 623.870447 -263.305505 
L 626.5171 -263.40255 
L 629.163753 -263.49776 
L 631.810407 -263.650363 
L 634.45706 -263.759888 
L 637.103713 -263.860622 
L 639.750367 -263.975427 
L 642.39702 -264.100747 
L 645.043673 -264.200133 
L 647.690327 -264.259646 
L 650.33698 -264.393758 
L 652.983633 -264.394553 
L 655.630287 -264.512738 
L 658.27694 -264.564983 
L 660.923593 -264.673978 
L 663.570247 -264.777407 
L 666.2169 -264.84792 
L 668.863553 -264.963874 
L 671.510207 -265.061846 
L 674.15686 -265.137087 
L 676.803513 -265.221628 
L 679.450167 -265.325719 
L 682.09682 -265.399767 
L 684.743473 -265.450841 
L 687.390127 -265.536818 
L 690.03678 -265.575454 
L 692.683433 -265.671195 
L 695.330087 -265.741996 
L 697.97674 -265.841669 
L 700.623393 -265.888369 
L 703.270047 -265.953161 
L 705.9167 -265.990781 
L 708.563353 -266.023851 
L 711.210007 -266.073864 
L 713.85666 -266.156417 
L 716.503313 -266.265037 
L 719.149967 -266.301729 
L 721.79662 -266.431446 
L 724.443273 -266.487402 
L 727.089927 -266.561074 
L 729.73658 -266.600616 
L 732.383233 -266.658582 
L 735.029887 -266.748204 
L 737.67654 -266.843106 
L 740.323193 -266.937852 
L 742.969847 -266.997321 
L 745.6165 -267.010553 
L 748.263153 -267.073445 
L 750.909807 -267.112457 
L 753.55646 -267.190017 
L 756.203113 -267.256046 
L 758.849767 -267.293424 
L 761.49642 -267.348386 
L 764.143073 -267.399945 
L 766.789727 -267.449782 
L 769.43638 -267.511746 
L 772.083033 -267.559572 
L 774.729687 -267.638679 
L 777.37634 -267.756466 
L 780.022993 -267.819314 
L 782.669647 -267.885255 
L 785.3163 -267.917397 
L 787.962953 -267.971608 
L 790.609607 -268.026437 
L 793.25626 -268.077908 
L 795.902913 -268.160196 
L 798.549567 -268.2173 
L 801.19622 -268.258963 
L 803.842873 -268.290575 
L 806.489527 -268.355566 
L 809.13618 -268.413708 
L 811.782833 -268.479781 
L 814.429487 -268.512365 
L 817.07614 -268.565316 
L 819.722793 -268.595205 
L 822.369447 -268.666403 
L 825.0161 -268.708685 
L 827.662753 -268.762255 
L 830.309407 -268.827577 
L 832.95606 -268.855102 
L 835.602713 -268.874917 
L 838.249367 -268.978986 
L 840.89602 -269.039912 
L 843.542673 -269.135609 
L 843.542673 -372.805455 
L 843.542673 -372.805455 
L 840.89602 -372.796707 
L 838.249367 -372.76494 
L 835.602713 -372.775455 
L 832.95606 -372.704589 
L 830.309407 -372.646048 
L 827.662753 -372.563385 
L 825.0161 -372.531398 
L 822.369447 -372.472946 
L 819.722793 -372.419442 
L 817.07614 -372.364525 
L 814.429487 -372.351138 
L 811.782833 -372.291802 
L 809.13618 -372.253232 
L 806.489527 -372.210376 
L 803.842873 -372.193322 
L 801.19622 -372.159347 
L 798.549567 -372.089142 
L 795.902913 -372.041161 
L 793.25626 -372.031309 
L 790.609607 -371.98028 
L 787.962953 -371.955582 
L 785.3163 -371.902874 
L 782.669647 -371.821403 
L 780.022993 -371.80214 
L 777.37634 -371.771523 
L 774.729687 -371.763614 
L 772.083033 -371.750757 
L 769.43638 -371.688241 
L 766.789727 -371.641497 
L 764.143073 -371.601469 
L 761.49642 -371.568642 
L 758.849767 -371.517657 
L 756.203113 -371.471266 
L 753.55646 -371.40495 
L 750.909807 -371.370444 
L 748.263153 -371.298473 
L 745.6165 -371.252038 
L 742.969847 -371.177284 
L 740.323193 -371.139111 
L 737.67654 -371.133765 
L 735.029887 -371.099701 
L 732.383233 -371.070409 
L 729.73658 -371.009969 
L 727.089927 -370.947629 
L 724.443273 -370.910826 
L 721.79662 -370.855202 
L 719.149967 -370.823745 
L 716.503313 -370.745411 
L 713.85666 -370.739844 
L 711.210007 -370.725485 
L 708.563353 -370.66827 
L 705.9167 -370.613265 
L 703.270047 -370.559187 
L 700.623393 -370.509262 
L 697.97674 -370.46212 
L 695.330087 -370.4319 
L 692.683433 -370.360061 
L 690.03678 -370.343891 
L 687.390127 -370.276028 
L 684.743473 -370.227871 
L 682.09682 -370.143749 
L 679.450167 -370.110525 
L 676.803513 -370.080305 
L 674.15686 -370.037184 
L 671.510207 -369.967996 
L 668.863553 -369.956509 
L 666.2169 -369.951826 
L 663.570247 -369.902343 
L 660.923593 -369.896952 
L 658.27694 -369.888337 
L 655.630287 -369.808722 
L 652.983633 -369.782258 
L 650.33698 -369.666237 
L 647.690327 -369.681082 
L 645.043673 -369.600496 
L 642.39702 -369.562146 
L 639.750367 -369.531308 
L 637.103713 -369.474535 
L 634.45706 -369.455713 
L 631.810407 -369.406363 
L 629.163753 -369.394257 
L 626.5171 -369.330503 
L 623.870447 -369.278104 
L 621.223793 -369.217355 
L 618.57714 -369.140038 
L 615.930487 -369.086092 
L 613.283833 -369.006698 
L 610.63718 -368.918247 
L 607.990527 -368.877424 
L 605.343873 -368.81451 
L 602.69722 -368.797279 
L 600.050567 -368.750358 
L 597.403913 -368.690448 
L 594.75726 -368.647725 
L 592.110607 -368.661819 
L 589.463953 -368.607166 
L 586.8173 -368.482001 
L 584.170647 -368.43561 
L 581.523993 -368.348264 
L 578.87734 -368.266219 
L 576.230687 -368.159477 
L 573.584033 -368.108536 
L 570.93738 -368.06378 
L 568.290727 -368.053972 
L 565.644073 -368.035106 
L 562.99742 -368.017169 
L 560.350767 -367.987877 
L 557.704113 -367.90729 
L 555.05746 -367.823257 
L 552.410807 -367.777618 
L 549.764153 -367.656428 
L 547.1175 -367.599876 
L 544.470847 -367.513899 
L 541.824193 -367.413607 
L 539.17754 -367.390722 
L 536.530887 -367.38458 
L 533.884233 -367.367173 
L 531.23758 -367.273994 
L 528.590927 -367.284554 
L 525.944273 -367.201449 
L 523.29762 -367.122452 
L 520.650967 -367.020747 
L 518.004313 -366.937951 
L 515.35766 -366.83978 
L 512.711007 -366.736175 
L 510.064353 -366.616576 
L 507.4177 -366.519289 
L 504.771047 -366.485623 
L 502.124393 -366.357762 
L 499.47774 -366.237633 
L 496.831087 -366.177811 
L 494.184433 -366.067225 
L 491.53778 -365.987964 
L 488.891127 -365.907907 
L 486.244473 -365.847423 
L 483.59782 -365.792285 
L 480.951167 -365.748545 
L 478.304513 -365.64388 
L 475.65786 -365.531571 
L 473.011207 -365.468038 
L 470.364553 -365.360854 
L 467.7179 -365.320207 
L 465.071247 -365.228973 
L 462.424593 -365.192655 
L 459.77794 -365.108711 
L 457.131287 -365.012484 
L 454.484633 -364.862842 
L 451.83798 -364.794847 
L 449.191327 -364.75579 
L 446.544673 -364.669107 
L 443.89802 -364.638047 
L 441.251367 -364.594175 
L 438.604713 -364.526092 
L 435.95806 -364.453237 
L 433.311407 -364.372208 
L 430.664753 -364.25093 
L 428.0181 -364.14167 
L 425.371447 -364.018183 
L 422.724793 -363.937508 
L 420.07814 -363.812916 
L 417.431487 -363.776202 
L 414.784833 -363.674717 
L 412.13818 -363.507623 
L 409.491527 -363.365536 
L 406.844873 -363.367259 
L 404.19822 -363.26573 
L 401.551567 -363.145336 
L 398.904913 -363.016415 
L 396.25826 -362.978287 
L 393.611607 -362.894342 
L 390.964953 -362.769971 
L 388.3183 -362.659474 
L 385.671647 -362.560817 
L 383.024993 -362.431542 
L 380.37834 -362.303063 
L 377.731687 -362.171403 
L 375.085033 -362.088032 
L 372.43838 -361.953677 
L 369.791727 -361.838231 
L 367.145073 -361.651521 
L 364.49842 -361.55494 
L 361.851767 -361.442852 
L 359.205113 -361.26944 
L 356.55846 -361.205201 
L 353.911807 -361.089048 
L 351.265153 -361.072436 
L 348.6185 -360.903354 
L 345.971847 -360.760471 
L 343.325193 -360.712049 
L 340.67854 -360.54036 
L 338.031887 -360.352059 
L 335.385233 -360.175378 
L 332.73858 -359.905783 
L 330.091927 -359.808894 
L 327.445273 -359.600446 
L 324.79862 -359.47316 
L 322.151967 -359.267628 
L 319.505313 -359.106101 
L 316.85866 -358.987209 
L 314.212007 -358.838097 
L 311.565353 -358.78477 
L 308.9187 -358.529358 
L 306.272047 -358.257422 
L 303.625393 -358.048002 
L 300.97874 -357.942143 
L 298.332087 -357.868891 
L 295.685433 -357.676569 
L 293.03878 -357.516545 
L 290.392127 -357.350334 
L 287.745473 -357.086439 
L 285.09882 -356.911437 
L 282.452167 -356.713681 
L 279.805513 -356.527059 
L 277.15886 -356.382498 
L 274.512207 -356.213769 
L 271.865553 -356.113301 
L 269.2189 -355.920228 
L 266.572247 -355.730293 
L 263.925593 -355.578751 
L 261.27894 -355.422614 
L 258.632287 -355.279334 
L 255.985633 -355.064878 
L 253.33898 -354.764444 
L 250.692327 -354.555688 
L 248.045673 -354.352144 
L 245.39902 -354.213945 
L 242.752367 -353.921685 
L 240.105713 -353.785518 
L 237.45906 -353.653725 
L 234.812407 -353.506469 
L 232.165753 -353.296122 
L 229.5191 -353.179129 
L 226.872447 -352.962508 
L 224.225793 -352.639543 
L 221.57914 -352.493788 
L 218.932487 -352.083211 
L 216.285833 -351.980799 
L 213.63918 -351.719157 
L 210.992527 -351.412406 
L 208.345873 -351.267093 
L 205.69922 -351.0776 
L 203.052567 -350.822011 
L 200.405913 -350.556746 
L 197.75926 -350.347459 
L 195.112607 -350.060501 
L 192.465953 -349.6782 
L 189.8193 -349.373834 
L 187.172647 -348.979295 
L 184.525993 -348.855057 
L 181.87934 -348.559351 
L 179.232687 -348.282113 
L 176.586033 -347.92124 
L 173.93938 -347.687565 
L 171.292727 -347.415938 
L 168.646073 -347.12655 
L 165.99942 -346.795986 
L 163.352767 -346.463344 
L 160.706113 -346.075918 
L 158.05946 -345.802612 
L 155.412807 -345.327619 
L 152.766153 -344.941871 
L 150.1195 -344.599598 
L 147.472847 -344.238107 
L 144.826193 -343.895215 
L 142.17954 -343.463033 
L 139.532887 -343.250035 
L 136.886233 -342.728165 
L 134.23958 -342.416201 
L 131.592927 -341.891635 
L 128.946273 -341.278177 
L 126.29962 -340.830311 
L 123.652967 -340.202671 
L 121.006313 -339.553603 
L 118.35966 -339.070392 
L 115.713007 -338.626148 
L 113.066353 -337.976196 
L 110.4197 -337.261828 
L 107.773047 -336.464311 
L 105.126393 -335.76545 
L 102.47974 -334.988654 
L 99.833087 -334.363753 
L 97.186433 -333.52338 
L 94.53978 -332.832958 
L 91.893127 -331.862559 
L 89.246473 -330.877094 
L 86.59982 -330.055542 
L 83.953167 -329.160074 
L 81.306513 -328.219277 
L 78.65986 -327.664447 
L 76.013207 -326.197627 
L 73.366553 -325.209644 
L 70.7199 -323.618011 
L 68.073247 -322.194797 
L 65.426593 -319.800168 
L 62.77994 -318.101395 
L 60.133287 -314.641024 
L 57.486633 -310.929703 
L 54.83998 -305.030521 
L 52.193327 -302.975647 
z
" style="stroke: #0000ff; stroke-opacity: 0.2"/>
    </defs>
    <g clip-path="url(#p51f6571eab)">
     <use xlink:href="#ma153da32b4" x="0" y="432" style="fill: #0000ff; fill-opacity: 0.2; stroke: #0000ff; stroke-opacity: 0.2"/>
    </g>
   </g>
   <g id="matplotlib.axis_1">
    <g id="xtick_1">
     <g id="line2d_1">
      <defs>
       <path id="m8fee446d40" d="M 0 0 
L 0 3.5 
" style="stroke: #000000; stroke-width: 0.8"/>
      </defs>
      <g>
       <use xlink:href="#m8fee446d40" x="181.87934" y="390.04" style="stroke: #000000; stroke-width: 0.8"/>
      </g>
     </g>
     <g id="text_1">
      <!-- 50 -->
      <g transform="translate(175.51684 404.638438) scale(0.1 -0.1)">
       <defs>
        <path id="DejaVuSans-35" d="M 691 4666 
L 3169 4666 
L 3169 4134 
L 1269 4134 
L 1269 2991 
Q 1406 3038 1543 3061 
Q 1681 3084 1819 3084 
Q 2600 3084 3056 2656 
Q 3513 2228 3513 1497 
Q 3513 744 3044 326 
Q 2575 -91 1722 -91 
Q 1428 -91 1123 -41 
Q 819 9 494 109 
L 494 744 
Q 775 591 1075 516 
Q 1375 441 1709 441 
Q 2250 441 2565 725 
Q 2881 1009 2881 1497 
Q 2881 1984 2565 2268 
Q 2250 2553 1709 2553 
Q 1456 2553 1204 2497 
Q 953 2441 691 2322 
L 691 4666 
z
" transform="scale(0.015625)"/>
        <path id="DejaVuSans-30" d="M 2034 4250 
Q 1547 4250 1301 3770 
Q 1056 3291 1056 2328 
Q 1056 1369 1301 889 
Q 1547 409 2034 409 
Q 2525 409 2770 889 
Q 3016 1369 3016 2328 
Q 3016 3291 2770 3770 
Q 2525 4250 2034 4250 
z
M 2034 4750 
Q 2819 4750 3233 4129 
Q 3647 3509 3647 2328 
Q 3647 1150 3233 529 
Q 2819 -91 2034 -91 
Q 1250 -91 836 529 
Q 422 1150 422 2328 
Q 422 3509 836 4129 
Q 1250 4750 2034 4750 
z
" transform="scale(0.015625)"/>
       </defs>
       <use xlink:href="#DejaVuSans-35"/>
       <use xlink:href="#DejaVuSans-30" transform="translate(63.623047 0)"/>
      </g>
     </g>
    </g>
    <g id="xtick_2">
     <g id="line2d_2">
      <g>
       <use xlink:href="#m8fee446d40" x="314.212007" y="390.04" style="stroke: #000000; stroke-width: 0.8"/>
      </g>
     </g>
     <g id="text_2">
      <!-- 100 -->
      <g transform="translate(304.668257 404.638438) scale(0.1 -0.1)">
       <defs>
        <path id="DejaVuSans-31" d="M 794 531 
L 1825 531 
L 1825 4091 
L 703 3866 
L 703 4441 
L 1819 4666 
L 2450 4666 
L 2450 531 
L 3481 531 
L 3481 0 
L 794 0 
L 794 531 
z
" transform="scale(0.015625)"/>
       </defs>
       <use xlink:href="#DejaVuSans-31"/>
       <use xlink:href="#DejaVuSans-30" transform="translate(63.623047 0)"/>
       <use xlink:href="#DejaVuSans-30" transform="translate(127.246094 0)"/>
      </g>
     </g>
    </g>
    <g id="xtick_3">
     <g id="line2d_3">
      <g>
       <use xlink:href="#m8fee446d40" x="446.544673" y="390.04" style="stroke: #000000; stroke-width: 0.8"/>
      </g>
     </g>
     <g id="text_3">
      <!-- 150 -->
      <g transform="translate(437.000923 404.638438) scale(0.1 -0.1)">
       <use xlink:href="#DejaVuSans-31"/>
       <use xlink:href="#DejaVuSans-35" transform="translate(63.623047 0)"/>
       <use xlink:href="#DejaVuSans-30" transform="translate(127.246094 0)"/>
      </g>
     </g>
    </g>
    <g id="xtick_4">
     <g id="line2d_4">
      <g>
       <use xlink:href="#m8fee446d40" x="578.87734" y="390.04" style="stroke: #000000; stroke-width: 0.8"/>
      </g>
     </g>
     <g id="text_4">
      <!-- 200 -->
      <g transform="translate(569.33359 404.638438) scale(0.1 -0.1)">
       <defs>
        <path id="DejaVuSans-32" d="M 1228 531 
L 3431 531 
L 3431 0 
L 469 0 
L 469 531 
Q 828 903 1448 1529 
Q 2069 2156 2228 2338 
Q 2531 2678 2651 2914 
Q 2772 3150 2772 3378 
Q 2772 3750 2511 3984 
Q 2250 4219 1831 4219 
Q 1534 4219 1204 4116 
Q 875 4013 500 3803 
L 500 4441 
Q 881 4594 1212 4672 
Q 1544 4750 1819 4750 
Q 2544 4750 2975 4387 
Q 3406 4025 3406 3419 
Q 3406 3131 3298 2873 
Q 3191 2616 2906 2266 
Q 2828 2175 2409 1742 
Q 1991 1309 1228 531 
z
" transform="scale(0.015625)"/>
       </defs>
       <use xlink:href="#DejaVuSans-32"/>
       <use xlink:href="#DejaVuSans-30" transform="translate(63.623047 0)"/>
       <use xlink:href="#DejaVuSans-30" transform="translate(127.246094 0)"/>
      </g>
     </g>
    </g>
    <g id="xtick_5">
     <g id="line2d_5">
      <g>
       <use xlink:href="#m8fee446d40" x="711.210007" y="390.04" style="stroke: #000000; stroke-width: 0.8"/>
      </g>
     </g>
     <g id="text_5">
      <!-- 250 -->
      <g transform="translate(701.666257 404.638438) scale(0.1 -0.1)">
       <use xlink:href="#DejaVuSans-32"/>
       <use xlink:href="#DejaVuSans-35" transform="translate(63.623047 0)"/>
       <use xlink:href="#DejaVuSans-30" transform="translate(127.246094 0)"/>
      </g>
     </g>
    </g>
    <g id="xtick_6">
     <g id="line2d_6">
      <g>
       <use xlink:href="#m8fee446d40" x="843.542673" y="390.04" style="stroke: #000000; stroke-width: 0.8"/>
      </g>
     </g>
     <g id="text_6">
      <!-- 300 -->
      <g transform="translate(833.998923 404.638438) scale(0.1 -0.1)">
       <defs>
        <path id="DejaVuSans-33" d="M 2597 2516 
Q 3050 2419 3304 2112 
Q 3559 1806 3559 1356 
Q 3559 666 3084 287 
Q 2609 -91 1734 -91 
Q 1441 -91 1130 -33 
Q 819 25 488 141 
L 488 750 
Q 750 597 1062 519 
Q 1375 441 1716 441 
Q 2309 441 2620 675 
Q 2931 909 2931 1356 
Q 2931 1769 2642 2001 
Q 2353 2234 1838 2234 
L 1294 2234 
L 1294 2753 
L 1863 2753 
Q 2328 2753 2575 2939 
Q 2822 3125 2822 3475 
Q 2822 3834 2567 4026 
Q 2313 4219 1838 4219 
Q 1578 4219 1281 4162 
Q 984 4106 628 3988 
L 628 4550 
Q 988 4650 1302 4700 
Q 1616 4750 1894 4750 
Q 2613 4750 3031 4423 
Q 3450 4097 3450 3541 
Q 3450 3153 3228 2886 
Q 3006 2619 2597 2516 
z
" transform="scale(0.015625)"/>
       </defs>
       <use xlink:href="#DejaVuSans-33"/>
       <use xlink:href="#DejaVuSans-30" transform="translate(63.623047 0)"/>
       <use xlink:href="#DejaVuSans-30" transform="translate(127.246094 0)"/>
      </g>
     </g>
    </g>
    <g id="text_7">
     <!-- Step -->
     <g transform="translate(436.482844 418.316562) scale(0.1 -0.1)">
      <defs>
       <path id="DejaVuSans-53" d="M 3425 4513 
L 3425 3897 
Q 3066 4069 2747 4153 
Q 2428 4238 2131 4238 
Q 1616 4238 1336 4038 
Q 1056 3838 1056 3469 
Q 1056 3159 1242 3001 
Q 1428 2844 1947 2747 
L 2328 2669 
Q 3034 2534 3370 2195 
Q 3706 1856 3706 1288 
Q 3706 609 3251 259 
Q 2797 -91 1919 -91 
Q 1588 -91 1214 -16 
Q 841 59 441 206 
L 441 856 
Q 825 641 1194 531 
Q 1563 422 1919 422 
Q 2459 422 2753 634 
Q 3047 847 3047 1241 
Q 3047 1584 2836 1778 
Q 2625 1972 2144 2069 
L 1759 2144 
Q 1053 2284 737 2584 
Q 422 2884 422 3419 
Q 422 4038 858 4394 
Q 1294 4750 2059 4750 
Q 2388 4750 2728 4690 
Q 3069 4631 3425 4513 
z
" transform="scale(0.015625)"/>
       <path id="DejaVuSans-74" d="M 1172 4494 
L 1172 3500 
L 2356 3500 
L 2356 3053 
L 1172 3053 
L 1172 1153 
Q 1172 725 1289 603 
Q 1406 481 1766 481 
L 2356 481 
L 2356 0 
L 1766 0 
Q 1100 0 847 248 
Q 594 497 594 1153 
L 594 3053 
L 172 3053 
L 172 3500 
L 594 3500 
L 594 4494 
L 1172 4494 
z
" transform="scale(0.015625)"/>
       <path id="DejaVuSans-65" d="M 3597 1894 
L 3597 1613 
L 953 1613 
Q 991 1019 1311 708 
Q 1631 397 2203 397 
Q 2534 397 2845 478 
Q 3156 559 3463 722 
L 3463 178 
Q 3153 47 2828 -22 
Q 2503 -91 2169 -91 
Q 1331 -91 842 396 
Q 353 884 353 1716 
Q 353 2575 817 3079 
Q 1281 3584 2069 3584 
Q 2775 3584 3186 3129 
Q 3597 2675 3597 1894 
z
M 3022 2063 
Q 3016 2534 2758 2815 
Q 2500 3097 2075 3097 
Q 1594 3097 1305 2825 
Q 1016 2553 972 2059 
L 3022 2063 
z
" transform="scale(0.015625)"/>
       <path id="DejaVuSans-70" d="M 1159 525 
L 1159 -1331 
L 581 -1331 
L 581 3500 
L 1159 3500 
L 1159 2969 
Q 1341 3281 1617 3432 
Q 1894 3584 2278 3584 
Q 2916 3584 3314 3078 
Q 3713 2572 3713 1747 
Q 3713 922 3314 415 
Q 2916 -91 2278 -91 
Q 1894 -91 1617 61 
Q 1341 213 1159 525 
z
M 3116 1747 
Q 3116 2381 2855 2742 
Q 2594 3103 2138 3103 
Q 1681 3103 1420 2742 
Q 1159 2381 1159 1747 
Q 1159 1113 1420 752 
Q 1681 391 2138 391 
Q 2594 391 2855 752 
Q 3116 1113 3116 1747 
z
" transform="scale(0.015625)"/>
      </defs>
      <use xlink:href="#DejaVuSans-53"/>
      <use xlink:href="#DejaVuSans-74" transform="translate(63.476562 0)"/>
      <use xlink:href="#DejaVuSans-65" transform="translate(102.685547 0)"/>
      <use xlink:href="#DejaVuSans-70" transform="translate(164.208984 0)"/>
     </g>
    </g>
   </g>
   <g id="matplotlib.axis_2">
    <g id="ytick_1">
     <g id="line2d_7">
      <defs>
       <path id="me156ac469f" d="M 0 0 
L -3.5 0 
" style="stroke: #000000; stroke-width: 0.8"/>
      </defs>
      <g>
       <use xlink:href="#me156ac469f" x="50.87" y="350.042941" style="stroke: #000000; stroke-width: 0.8"/>
      </g>
     </g>
     <g id="text_8">
      <!-- 100 -->
      <g transform="translate(24.7825 353.84216) scale(0.1 -0.1)">
       <use xlink:href="#DejaVuSans-31"/>
       <use xlink:href="#DejaVuSans-30" transform="translate(63.623047 0)"/>
       <use xlink:href="#DejaVuSans-30" transform="translate(127.246094 0)"/>
      </g>
     </g>
    </g>
    <g id="ytick_2">
     <g id="line2d_8">
      <g>
       <use xlink:href="#me156ac469f" x="50.87" y="277.656227" style="stroke: #000000; stroke-width: 0.8"/>
      </g>
     </g>
     <g id="text_9">
      <!-- 150 -->
      <g transform="translate(24.7825 281.455446) scale(0.1 -0.1)">
       <use xlink:href="#DejaVuSans-31"/>
       <use xlink:href="#DejaVuSans-35" transform="translate(63.623047 0)"/>
       <use xlink:href="#DejaVuSans-30" transform="translate(127.246094 0)"/>
      </g>
     </g>
    </g>
    <g id="ytick_3">
     <g id="line2d_9">
      <g>
       <use xlink:href="#me156ac469f" x="50.87" y="205.269512" style="stroke: #000000; stroke-width: 0.8"/>
      </g>
     </g>
     <g id="text_10">
      <!-- 200 -->
      <g transform="translate(24.7825 209.068731) scale(0.1 -0.1)">
       <use xlink:href="#DejaVuSans-32"/>
       <use xlink:href="#DejaVuSans-30" transform="translate(63.623047 0)"/>
       <use xlink:href="#DejaVuSans-30" transform="translate(127.246094 0)"/>
      </g>
     </g>
    </g>
    <g id="ytick_4">
     <g id="line2d_10">
      <g>
       <use xlink:href="#me156ac469f" x="50.87" y="132.882798" style="stroke: #000000; stroke-width: 0.8"/>
      </g>
     </g>
     <g id="text_11">
      <!-- 250 -->
      <g transform="translate(24.7825 136.682017) scale(0.1 -0.1)">
       <use xlink:href="#DejaVuSans-32"/>
       <use xlink:href="#DejaVuSans-35" transform="translate(63.623047 0)"/>
       <use xlink:href="#DejaVuSans-30" transform="translate(127.246094 0)"/>
      </g>
     </g>
    </g>
    <g id="ytick_5">
     <g id="line2d_11">
      <g>
       <use xlink:href="#me156ac469f" x="50.87" y="60.496084" style="stroke: #000000; stroke-width: 0.8"/>
      </g>
     </g>
     <g id="text_12">
      <!-- 300 -->
      <g transform="translate(24.7825 64.295302) scale(0.1 -0.1)">
       <use xlink:href="#DejaVuSans-33"/>
       <use xlink:href="#DejaVuSans-30" transform="translate(63.623047 0)"/>
       <use xlink:href="#DejaVuSans-30" transform="translate(127.246094 0)"/>
      </g>
     </g>
    </g>
    <g id="text_13">
     <!-- Profit -->
     <g transform="translate(18.702813 229.779063) rotate(-90) scale(0.1 -0.1)">
      <defs>
       <path id="DejaVuSans-50" d="M 1259 4147 
L 1259 2394 
L 2053 2394 
Q 2494 2394 2734 2622 
Q 2975 2850 2975 3272 
Q 2975 3691 2734 3919 
Q 2494 4147 2053 4147 
L 1259 4147 
z
M 628 4666 
L 2053 4666 
Q 2838 4666 3239 4311 
Q 3641 3956 3641 3272 
Q 3641 2581 3239 2228 
Q 2838 1875 2053 1875 
L 1259 1875 
L 1259 0 
L 628 0 
L 628 4666 
z
" transform="scale(0.015625)"/>
       <path id="DejaVuSans-72" d="M 2631 2963 
Q 2534 3019 2420 3045 
Q 2306 3072 2169 3072 
Q 1681 3072 1420 2755 
Q 1159 2438 1159 1844 
L 1159 0 
L 581 0 
L 581 3500 
L 1159 3500 
L 1159 2956 
Q 1341 3275 1631 3429 
Q 1922 3584 2338 3584 
Q 2397 3584 2469 3576 
Q 2541 3569 2628 3553 
L 2631 2963 
z
" transform="scale(0.015625)"/>
       <path id="DejaVuSans-6f" d="M 1959 3097 
Q 1497 3097 1228 2736 
Q 959 2375 959 1747 
Q 959 1119 1226 758 
Q 1494 397 1959 397 
Q 2419 397 2687 759 
Q 2956 1122 2956 1747 
Q 2956 2369 2687 2733 
Q 2419 3097 1959 3097 
z
M 1959 3584 
Q 2709 3584 3137 3096 
Q 3566 2609 3566 1747 
Q 3566 888 3137 398 
Q 2709 -91 1959 -91 
Q 1206 -91 779 398 
Q 353 888 353 1747 
Q 353 2609 779 3096 
Q 1206 3584 1959 3584 
z
" transform="scale(0.015625)"/>
       <path id="DejaVuSans-66" d="M 2375 4863 
L 2375 4384 
L 1825 4384 
Q 1516 4384 1395 4259 
Q 1275 4134 1275 3809 
L 1275 3500 
L 2222 3500 
L 2222 3053 
L 1275 3053 
L 1275 0 
L 697 0 
L 697 3053 
L 147 3053 
L 147 3500 
L 697 3500 
L 697 3744 
Q 697 4328 969 4595 
Q 1241 4863 1831 4863 
L 2375 4863 
z
" transform="scale(0.015625)"/>
       <path id="DejaVuSans-69" d="M 603 3500 
L 1178 3500 
L 1178 0 
L 603 0 
L 603 3500 
z
M 603 4863 
L 1178 4863 
L 1178 4134 
L 603 4134 
L 603 4863 
z
" transform="scale(0.015625)"/>
      </defs>
      <use xlink:href="#DejaVuSans-50"/>
      <use xlink:href="#DejaVuSans-72" transform="translate(58.552734 0)"/>
      <use xlink:href="#DejaVuSans-6f" transform="translate(97.416016 0)"/>
      <use xlink:href="#DejaVuSans-66" transform="translate(158.597656 0)"/>
      <use xlink:href="#DejaVuSans-69" transform="translate(193.802734 0)"/>
      <use xlink:href="#DejaVuSans-74" transform="translate(221.585938 0)"/>
     </g>
    </g>
   </g>
   <g id="line2d_12">
    <path d="M 52.193327 250.572245 
L 54.83998 250.627472 
L 57.486633 238.747219 
L 60.133287 228.926413 
L 62.77994 220.991422 
L 65.426593 214.466014 
L 68.073247 208.968949 
L 70.7199 203.996913 
L 76.013207 195.973205 
L 78.65986 192.508416 
L 83.953167 186.709747 
L 86.59982 184.214782 
L 89.246473 181.919584 
L 91.893127 179.777009 
L 99.833087 173.965771 
L 107.773047 169.324013 
L 113.066353 166.639863 
L 121.006313 163.083221 
L 128.946273 159.972722 
L 134.23958 158.102327 
L 136.886233 157.204054 
L 152.766153 152.657572 
L 163.352767 150.02125 
L 176.586033 147.272596 
L 195.112607 143.938892 
L 203.052567 142.639696 
L 216.285833 140.557031 
L 226.872447 139.066728 
L 234.812407 137.998048 
L 250.692327 136.138212 
L 277.15886 133.346371 
L 298.332087 131.404402 
L 319.505313 129.722506 
L 332.73858 128.676624 
L 340.67854 128.058306 
L 380.37834 125.531884 
L 401.551567 124.318863 
L 420.07814 123.32222 
L 449.191327 121.991699 
L 462.424593 121.39936 
L 488.891127 120.302116 
L 531.23758 118.640544 
L 581.523993 116.930417 
L 687.390127 114.093577 
L 843.542673 111.029468 
L 843.542673 111.029468 
" clip-path="url(#p51f6571eab)" style="fill: none; stroke: #0000ff; stroke-width: 1.5; stroke-linecap: square"/>
   </g>
   <g id="patch_3">
    <path d="M 50.87 390.04 
L 50.87 43.44 
" style="fill: none; stroke: #000000; stroke-width: 0.8; stroke-linejoin: miter; stroke-linecap: square"/>
   </g>
   <g id="patch_4">
    <path d="M 844.866 390.04 
L 844.866 43.44 
" style="fill: none; stroke: #000000; stroke-width: 0.8; stroke-linejoin: miter; stroke-linecap: square"/>
   </g>
   <g id="patch_5">
    <path d="M 50.87 390.04 
L 844.866 390.04 
" style="fill: none; stroke: #000000; stroke-width: 0.8; stroke-linejoin: miter; stroke-linecap: square"/>
   </g>
   <g id="patch_6">
    <path d="M 50.87 43.44 
L 844.866 43.44 
" style="fill: none; stroke: #000000; stroke-width: 0.8; stroke-linejoin: miter; stroke-linecap: square"/>
   </g>
   <g id="text_14">
    <!-- Mean profit per step with confidence interval per simulation step -->
    <g transform="translate(220.284875 21.763062) scale(0.14 -0.14)">
     <defs>
      <path id="DejaVuSans-4d" d="M 628 4666 
L 1569 4666 
L 2759 1491 
L 3956 4666 
L 4897 4666 
L 4897 0 
L 4281 0 
L 4281 4097 
L 3078 897 
L 2444 897 
L 1241 4097 
L 1241 0 
L 628 0 
L 628 4666 
z
" transform="scale(0.015625)"/>
      <path id="DejaVuSans-61" d="M 2194 1759 
Q 1497 1759 1228 1600 
Q 959 1441 959 1056 
Q 959 750 1161 570 
Q 1363 391 1709 391 
Q 2188 391 2477 730 
Q 2766 1069 2766 1631 
L 2766 1759 
L 2194 1759 
z
M 3341 1997 
L 3341 0 
L 2766 0 
L 2766 531 
Q 2569 213 2275 61 
Q 1981 -91 1556 -91 
Q 1019 -91 701 211 
Q 384 513 384 1019 
Q 384 1609 779 1909 
Q 1175 2209 1959 2209 
L 2766 2209 
L 2766 2266 
Q 2766 2663 2505 2880 
Q 2244 3097 1772 3097 
Q 1472 3097 1187 3025 
Q 903 2953 641 2809 
L 641 3341 
Q 956 3463 1253 3523 
Q 1550 3584 1831 3584 
Q 2591 3584 2966 3190 
Q 3341 2797 3341 1997 
z
" transform="scale(0.015625)"/>
      <path id="DejaVuSans-6e" d="M 3513 2113 
L 3513 0 
L 2938 0 
L 2938 2094 
Q 2938 2591 2744 2837 
Q 2550 3084 2163 3084 
Q 1697 3084 1428 2787 
Q 1159 2491 1159 1978 
L 1159 0 
L 581 0 
L 581 3500 
L 1159 3500 
L 1159 2956 
Q 1366 3272 1645 3428 
Q 1925 3584 2291 3584 
Q 2894 3584 3203 3211 
Q 3513 2838 3513 2113 
z
" transform="scale(0.015625)"/>
      <path id="DejaVuSans-20" transform="scale(0.015625)"/>
      <path id="DejaVuSans-73" d="M 2834 3397 
L 2834 2853 
Q 2591 2978 2328 3040 
Q 2066 3103 1784 3103 
Q 1356 3103 1142 2972 
Q 928 2841 928 2578 
Q 928 2378 1081 2264 
Q 1234 2150 1697 2047 
L 1894 2003 
Q 2506 1872 2764 1633 
Q 3022 1394 3022 966 
Q 3022 478 2636 193 
Q 2250 -91 1575 -91 
Q 1294 -91 989 -36 
Q 684 19 347 128 
L 347 722 
Q 666 556 975 473 
Q 1284 391 1588 391 
Q 1994 391 2212 530 
Q 2431 669 2431 922 
Q 2431 1156 2273 1281 
Q 2116 1406 1581 1522 
L 1381 1569 
Q 847 1681 609 1914 
Q 372 2147 372 2553 
Q 372 3047 722 3315 
Q 1072 3584 1716 3584 
Q 2034 3584 2315 3537 
Q 2597 3491 2834 3397 
z
" transform="scale(0.015625)"/>
      <path id="DejaVuSans-77" d="M 269 3500 
L 844 3500 
L 1563 769 
L 2278 3500 
L 2956 3500 
L 3675 769 
L 4391 3500 
L 4966 3500 
L 4050 0 
L 3372 0 
L 2619 2869 
L 1863 0 
L 1184 0 
L 269 3500 
z
" transform="scale(0.015625)"/>
      <path id="DejaVuSans-68" d="M 3513 2113 
L 3513 0 
L 2938 0 
L 2938 2094 
Q 2938 2591 2744 2837 
Q 2550 3084 2163 3084 
Q 1697 3084 1428 2787 
Q 1159 2491 1159 1978 
L 1159 0 
L 581 0 
L 581 4863 
L 1159 4863 
L 1159 2956 
Q 1366 3272 1645 3428 
Q 1925 3584 2291 3584 
Q 2894 3584 3203 3211 
Q 3513 2838 3513 2113 
z
" transform="scale(0.015625)"/>
      <path id="DejaVuSans-63" d="M 3122 3366 
L 3122 2828 
Q 2878 2963 2633 3030 
Q 2388 3097 2138 3097 
Q 1578 3097 1268 2742 
Q 959 2388 959 1747 
Q 959 1106 1268 751 
Q 1578 397 2138 397 
Q 2388 397 2633 464 
Q 2878 531 3122 666 
L 3122 134 
Q 2881 22 2623 -34 
Q 2366 -91 2075 -91 
Q 1284 -91 818 406 
Q 353 903 353 1747 
Q 353 2603 823 3093 
Q 1294 3584 2113 3584 
Q 2378 3584 2631 3529 
Q 2884 3475 3122 3366 
z
" transform="scale(0.015625)"/>
      <path id="DejaVuSans-64" d="M 2906 2969 
L 2906 4863 
L 3481 4863 
L 3481 0 
L 2906 0 
L 2906 525 
Q 2725 213 2448 61 
Q 2172 -91 1784 -91 
Q 1150 -91 751 415 
Q 353 922 353 1747 
Q 353 2572 751 3078 
Q 1150 3584 1784 3584 
Q 2172 3584 2448 3432 
Q 2725 3281 2906 2969 
z
M 947 1747 
Q 947 1113 1208 752 
Q 1469 391 1925 391 
Q 2381 391 2643 752 
Q 2906 1113 2906 1747 
Q 2906 2381 2643 2742 
Q 2381 3103 1925 3103 
Q 1469 3103 1208 2742 
Q 947 2381 947 1747 
z
" transform="scale(0.015625)"/>
      <path id="DejaVuSans-76" d="M 191 3500 
L 800 3500 
L 1894 563 
L 2988 3500 
L 3597 3500 
L 2284 0 
L 1503 0 
L 191 3500 
z
" transform="scale(0.015625)"/>
      <path id="DejaVuSans-6c" d="M 603 4863 
L 1178 4863 
L 1178 0 
L 603 0 
L 603 4863 
z
" transform="scale(0.015625)"/>
      <path id="DejaVuSans-6d" d="M 3328 2828 
Q 3544 3216 3844 3400 
Q 4144 3584 4550 3584 
Q 5097 3584 5394 3201 
Q 5691 2819 5691 2113 
L 5691 0 
L 5113 0 
L 5113 2094 
Q 5113 2597 4934 2840 
Q 4756 3084 4391 3084 
Q 3944 3084 3684 2787 
Q 3425 2491 3425 1978 
L 3425 0 
L 2847 0 
L 2847 2094 
Q 2847 2600 2669 2842 
Q 2491 3084 2119 3084 
Q 1678 3084 1418 2786 
Q 1159 2488 1159 1978 
L 1159 0 
L 581 0 
L 581 3500 
L 1159 3500 
L 1159 2956 
Q 1356 3278 1631 3431 
Q 1906 3584 2284 3584 
Q 2666 3584 2933 3390 
Q 3200 3197 3328 2828 
z
" transform="scale(0.015625)"/>
      <path id="DejaVuSans-75" d="M 544 1381 
L 544 3500 
L 1119 3500 
L 1119 1403 
Q 1119 906 1312 657 
Q 1506 409 1894 409 
Q 2359 409 2629 706 
Q 2900 1003 2900 1516 
L 2900 3500 
L 3475 3500 
L 3475 0 
L 2900 0 
L 2900 538 
Q 2691 219 2414 64 
Q 2138 -91 1772 -91 
Q 1169 -91 856 284 
Q 544 659 544 1381 
z
M 1991 3584 
L 1991 3584 
z
" transform="scale(0.015625)"/>
     </defs>
     <use xlink:href="#DejaVuSans-4d"/>
     <use xlink:href="#DejaVuSans-65" transform="translate(86.279297 0)"/>
     <use xlink:href="#DejaVuSans-61" transform="translate(147.802734 0)"/>
     <use xlink:href="#DejaVuSans-6e" transform="translate(209.082031 0)"/>
     <use xlink:href="#DejaVuSans-20" transform="translate(272.460938 0)"/>
     <use xlink:href="#DejaVuSans-70" transform="translate(304.248047 0)"/>
     <use xlink:href="#DejaVuSans-72" transform="translate(367.724609 0)"/>
     <use xlink:href="#DejaVuSans-6f" transform="translate(406.587891 0)"/>
     <use xlink:href="#DejaVuSans-66" transform="translate(467.769531 0)"/>
     <use xlink:href="#DejaVuSans-69" transform="translate(502.974609 0)"/>
     <use xlink:href="#DejaVuSans-74" transform="translate(530.757812 0)"/>
     <use xlink:href="#DejaVuSans-20" transform="translate(569.966797 0)"/>
     <use xlink:href="#DejaVuSans-70" transform="translate(601.753906 0)"/>
     <use xlink:href="#DejaVuSans-65" transform="translate(665.230469 0)"/>
     <use xlink:href="#DejaVuSans-72" transform="translate(726.753906 0)"/>
     <use xlink:href="#DejaVuSans-20" transform="translate(767.867188 0)"/>
     <use xlink:href="#DejaVuSans-73" transform="translate(799.654297 0)"/>
     <use xlink:href="#DejaVuSans-74" transform="translate(851.753906 0)"/>
     <use xlink:href="#DejaVuSans-65" transform="translate(890.962891 0)"/>
     <use xlink:href="#DejaVuSans-70" transform="translate(952.486328 0)"/>
     <use xlink:href="#DejaVuSans-20" transform="translate(1015.962891 0)"/>
     <use xlink:href="#DejaVuSans-77" transform="translate(1047.75 0)"/>
     <use xlink:href="#DejaVuSans-69" transform="translate(1129.537109 0)"/>
     <use xlink:href="#DejaVuSans-74" transform="translate(1157.320312 0)"/>
     <use xlink:href="#DejaVuSans-68" transform="translate(1196.529297 0)"/>
     <use xlink:href="#DejaVuSans-20" transform="translate(1259.908203 0)"/>
     <use xlink:href="#DejaVuSans-63" transform="translate(1291.695312 0)"/>
     <use xlink:href="#DejaVuSans-6f" transform="translate(1346.675781 0)"/>
     <use xlink:href="#DejaVuSans-6e" transform="translate(1407.857422 0)"/>
     <use xlink:href="#DejaVuSans-66" transform="translate(1471.236328 0)"/>
     <use xlink:href="#DejaVuSans-69" transform="translate(1506.441406 0)"/>
     <use xlink:href="#DejaVuSans-64" transform="translate(1534.224609 0)"/>
     <use xlink:href="#DejaVuSans-65" transform="translate(1597.701172 0)"/>
     <use xlink:href="#DejaVuSans-6e" transform="translate(1659.224609 0)"/>
     <use xlink:href="#DejaVuSans-63" transform="translate(1722.603516 0)"/>
     <use xlink:href="#DejaVuSans-65" transform="translate(1777.583984 0)"/>
     <use xlink:href="#DejaVuSans-20" transform="translate(1839.107422 0)"/>
     <use xlink:href="#DejaVuSans-69" transform="translate(1870.894531 0)"/>
     <use xlink:href="#DejaVuSans-6e" transform="translate(1898.677734 0)"/>
     <use xlink:href="#DejaVuSans-74" transform="translate(1962.056641 0)"/>
     <use xlink:href="#DejaVuSans-65" transform="translate(2001.265625 0)"/>
     <use xlink:href="#DejaVuSans-72" transform="translate(2062.789062 0)"/>
     <use xlink:href="#DejaVuSans-76" transform="translate(2103.902344 0)"/>
     <use xlink:href="#DejaVuSans-61" transform="translate(2163.082031 0)"/>
     <use xlink:href="#DejaVuSans-6c" transform="translate(2224.361328 0)"/>
     <use xlink:href="#DejaVuSans-20" transform="translate(2252.144531 0)"/>
     <use xlink:href="#DejaVuSans-70" transform="translate(2283.931641 0)"/>
     <use xlink:href="#DejaVuSans-65" transform="translate(2347.408203 0)"/>
     <use xlink:href="#DejaVuSans-72" transform="translate(2408.931641 0)"/>
     <use xlink:href="#DejaVuSans-20" transform="translate(2450.044922 0)"/>
     <use xlink:href="#DejaVuSans-73" transform="translate(2481.832031 0)"/>
     <use xlink:href="#DejaVuSans-69" transform="translate(2533.931641 0)"/>
     <use xlink:href="#DejaVuSans-6d" transform="translate(2561.714844 0)"/>
     <use xlink:href="#DejaVuSans-75" transform="translate(2659.126953 0)"/>
     <use xlink:href="#DejaVuSans-6c" transform="translate(2722.505859 0)"/>
     <use xlink:href="#DejaVuSans-61" transform="translate(2750.289062 0)"/>
     <use xlink:href="#DejaVuSans-74" transform="translate(2811.568359 0)"/>
     <use xlink:href="#DejaVuSans-69" transform="translate(2850.777344 0)"/>
     <use xlink:href="#DejaVuSans-6f" transform="translate(2878.560547 0)"/>
     <use xlink:href="#DejaVuSans-6e" transform="translate(2939.742188 0)"/>
     <use xlink:href="#DejaVuSans-20" transform="translate(3003.121094 0)"/>
     <use xlink:href="#DejaVuSans-73" transform="translate(3034.908203 0)"/>
     <use xlink:href="#DejaVuSans-74" transform="translate(3087.007812 0)"/>
     <use xlink:href="#DejaVuSans-65" transform="translate(3126.216797 0)"/>
     <use xlink:href="#DejaVuSans-70" transform="translate(3187.740234 0)"/>
    </g>
    <!-- Base Product: Meth, Recipe size: 10, T0: 5.0 -->
    <g transform="translate(293.881125 37.44) scale(0.14 -0.14)">
     <defs>
      <path id="DejaVuSans-42" d="M 1259 2228 
L 1259 519 
L 2272 519 
Q 2781 519 3026 730 
Q 3272 941 3272 1375 
Q 3272 1813 3026 2020 
Q 2781 2228 2272 2228 
L 1259 2228 
z
M 1259 4147 
L 1259 2741 
L 2194 2741 
Q 2656 2741 2882 2914 
Q 3109 3088 3109 3444 
Q 3109 3797 2882 3972 
Q 2656 4147 2194 4147 
L 1259 4147 
z
M 628 4666 
L 2241 4666 
Q 2963 4666 3353 4366 
Q 3744 4066 3744 3513 
Q 3744 3084 3544 2831 
Q 3344 2578 2956 2516 
Q 3422 2416 3680 2098 
Q 3938 1781 3938 1306 
Q 3938 681 3513 340 
Q 3088 0 2303 0 
L 628 0 
L 628 4666 
z
" transform="scale(0.015625)"/>
      <path id="DejaVuSans-3a" d="M 750 794 
L 1409 794 
L 1409 0 
L 750 0 
L 750 794 
z
M 750 3309 
L 1409 3309 
L 1409 2516 
L 750 2516 
L 750 3309 
z
" transform="scale(0.015625)"/>
      <path id="DejaVuSans-2c" d="M 750 794 
L 1409 794 
L 1409 256 
L 897 -744 
L 494 -744 
L 750 256 
L 750 794 
z
" transform="scale(0.015625)"/>
      <path id="DejaVuSans-52" d="M 2841 2188 
Q 3044 2119 3236 1894 
Q 3428 1669 3622 1275 
L 4263 0 
L 3584 0 
L 2988 1197 
Q 2756 1666 2539 1819 
Q 2322 1972 1947 1972 
L 1259 1972 
L 1259 0 
L 628 0 
L 628 4666 
L 2053 4666 
Q 2853 4666 3247 4331 
Q 3641 3997 3641 3322 
Q 3641 2881 3436 2590 
Q 3231 2300 2841 2188 
z
M 1259 4147 
L 1259 2491 
L 2053 2491 
Q 2509 2491 2742 2702 
Q 2975 2913 2975 3322 
Q 2975 3731 2742 3939 
Q 2509 4147 2053 4147 
L 1259 4147 
z
" transform="scale(0.015625)"/>
      <path id="DejaVuSans-7a" d="M 353 3500 
L 3084 3500 
L 3084 2975 
L 922 459 
L 3084 459 
L 3084 0 
L 275 0 
L 275 525 
L 2438 3041 
L 353 3041 
L 353 3500 
z
" transform="scale(0.015625)"/>
      <path id="DejaVuSans-54" d="M -19 4666 
L 3928 4666 
L 3928 4134 
L 2272 4134 
L 2272 0 
L 1638 0 
L 1638 4134 
L -19 4134 
L -19 4666 
z
" transform="scale(0.015625)"/>
      <path id="DejaVuSans-2e" d="M 684 794 
L 1344 794 
L 1344 0 
L 684 0 
L 684 794 
z
" transform="scale(0.015625)"/>
     </defs>
     <use xlink:href="#DejaVuSans-42"/>
     <use xlink:href="#DejaVuSans-61" transform="translate(68.603516 0)"/>
     <use xlink:href="#DejaVuSans-73" transform="translate(129.882812 0)"/>
     <use xlink:href="#DejaVuSans-65" transform="translate(181.982422 0)"/>
     <use xlink:href="#DejaVuSans-20" transform="translate(243.505859 0)"/>
     <use xlink:href="#DejaVuSans-50" transform="translate(275.292969 0)"/>
     <use xlink:href="#DejaVuSans-72" transform="translate(333.845703 0)"/>
     <use xlink:href="#DejaVuSans-6f" transform="translate(372.708984 0)"/>
     <use xlink:href="#DejaVuSans-64" transform="translate(433.890625 0)"/>
     <use xlink:href="#DejaVuSans-75" transform="translate(497.367188 0)"/>
     <use xlink:href="#DejaVuSans-63" transform="translate(560.746094 0)"/>
     <use xlink:href="#DejaVuSans-74" transform="translate(615.726562 0)"/>
     <use xlink:href="#DejaVuSans-3a" transform="translate(654.935547 0)"/>
     <use xlink:href="#DejaVuSans-20" transform="translate(688.626953 0)"/>
     <use xlink:href="#DejaVuSans-4d" transform="translate(720.414062 0)"/>
     <use xlink:href="#DejaVuSans-65" transform="translate(806.693359 0)"/>
     <use xlink:href="#DejaVuSans-74" transform="translate(868.216797 0)"/>
     <use xlink:href="#DejaVuSans-68" transform="translate(907.425781 0)"/>
     <use xlink:href="#DejaVuSans-2c" transform="translate(970.804688 0)"/>
     <use xlink:href="#DejaVuSans-20" transform="translate(1002.591797 0)"/>
     <use xlink:href="#DejaVuSans-52" transform="translate(1034.378906 0)"/>
     <use xlink:href="#DejaVuSans-65" transform="translate(1099.361328 0)"/>
     <use xlink:href="#DejaVuSans-63" transform="translate(1160.884766 0)"/>
     <use xlink:href="#DejaVuSans-69" transform="translate(1215.865234 0)"/>
     <use xlink:href="#DejaVuSans-70" transform="translate(1243.648438 0)"/>
     <use xlink:href="#DejaVuSans-65" transform="translate(1307.125 0)"/>
     <use xlink:href="#DejaVuSans-20" transform="translate(1368.648438 0)"/>
     <use xlink:href="#DejaVuSans-73" transform="translate(1400.435547 0)"/>
     <use xlink:href="#DejaVuSans-69" transform="translate(1452.535156 0)"/>
     <use xlink:href="#DejaVuSans-7a" transform="translate(1480.318359 0)"/>
     <use xlink:href="#DejaVuSans-65" transform="translate(1532.808594 0)"/>
     <use xlink:href="#DejaVuSans-3a" transform="translate(1594.332031 0)"/>
     <use xlink:href="#DejaVuSans-20" transform="translate(1628.023438 0)"/>
     <use xlink:href="#DejaVuSans-31" transform="translate(1659.810547 0)"/>
     <use xlink:href="#DejaVuSans-30" transform="translate(1723.433594 0)"/>
     <use xlink:href="#DejaVuSans-2c" transform="translate(1787.056641 0)"/>
     <use xlink:href="#DejaVuSans-20" transform="translate(1818.84375 0)"/>
     <use xlink:href="#DejaVuSans-54" transform="translate(1850.630859 0)"/>
     <use xlink:href="#DejaVuSans-30" transform="translate(1911.714844 0)"/>
     <use xlink:href="#DejaVuSans-3a" transform="translate(1975.337891 0)"/>
     <use xlink:href="#DejaVuSans-20" transform="translate(2009.029297 0)"/>
     <use xlink:href="#DejaVuSans-35" transform="translate(2040.816406 0)"/>
     <use xlink:href="#DejaVuSans-2e" transform="translate(2104.439453 0)"/>
     <use xlink:href="#DejaVuSans-30" transform="translate(2136.226562 0)"/>
    </g>
   </g>
  </g>
 </g>
 <defs>
  <clipPath id="p51f6571eab">
   <rect x="50.87" y="43.44" width="793.996" height="346.6"/>
  </clipPath>
 </defs>
</svg>
