<?xml version="1.0" encoding="utf-8" standalone="no"?>
<!DOCTYPE svg PUBLIC "-//W3C//DTD SVG 1.1//EN"
  "http://www.w3.org/Graphics/SVG/1.1/DTD/svg11.dtd">
<svg xmlns:xlink="http://www.w3.org/1999/xlink" width="864pt" height="432pt" viewBox="0 0 864 432" xmlns="http://www.w3.org/2000/svg" version="1.1">
 <metadata>
  <rdf:RDF xmlns:dc="http://purl.org/dc/elements/1.1/" xmlns:cc="http://creativecommons.org/ns#" xmlns:rdf="http://www.w3.org/1999/02/22-rdf-syntax-ns#">
   <cc:Work>
    <dc:type rdf:resource="http://purl.org/dc/dcmitype/StillImage"/>
    <dc:date>2025-05-24T02:17:13.937954</dc:date>
    <dc:format>image/svg+xml</dc:format>
    <dc:creator>
     <cc:Agent>
      <dc:title>Matplotlib v3.10.3, https://matplotlib.org/</dc:title>
     </cc:Agent>
    </dc:creator>
   </cc:Work>
  </rdf:RDF>
 </metadata>
 <defs>
  <style type="text/css">*{stroke-linejoin: round; stroke-linecap: butt}</style>
 </defs>
 <g id="figure_1">
  <g id="patch_1">
   <path d="M 0 432 
L 864 432 
L 864 0 
L 0 0 
z
" style="fill: #ffffff"/>
  </g>
  <g id="axes_1">
   <g id="patch_2">
    <path d="M 50.87 390.04 
L 844.866 390.04 
L 844.866 43.44 
L 50.87 43.44 
z
" style="fill: #ffffff"/>
   </g>
   <g id="FillBetweenPolyCollection_1">
    <defs>
     <path id="m1fbc43e83e" d="M 52.193327 -310.088802 
L 52.193327 -57.828353 
L 54.83998 -57.714545 
L 57.486633 -62.623848 
L 60.133287 -68.394935 
L 62.77994 -74.732133 
L 65.426593 -79.516079 
L 68.073247 -83.062621 
L 70.7199 -87.751202 
L 73.366553 -92.424679 
L 76.013207 -95.964074 
L 78.65986 -99.834466 
L 81.306513 -103.28407 
L 83.953167 -105.613462 
L 86.59982 -108.628383 
L 89.246473 -110.978357 
L 91.893127 -113.568789 
L 94.53978 -115.562443 
L 97.186433 -118.892568 
L 99.833087 -120.274992 
L 102.47974 -121.938313 
L 105.126393 -122.618388 
L 107.773047 -124.390183 
L 110.4197 -125.901931 
L 113.066353 -127.677499 
L 115.713007 -130.124992 
L 118.35966 -131.888479 
L 121.006313 -132.669615 
L 123.652967 -133.692406 
L 126.29962 -134.548905 
L 128.946273 -135.287292 
L 131.592927 -136.864934 
L 134.23958 -137.969704 
L 136.886233 -138.094516 
L 139.532887 -138.335384 
L 142.17954 -139.083591 
L 144.826193 -140.118934 
L 147.472847 -141.453821 
L 150.1195 -141.633886 
L 152.766153 -142.441239 
L 155.412807 -143.545041 
L 158.05946 -144.914696 
L 160.706113 -144.395277 
L 163.352767 -144.684662 
L 165.99942 -145.873865 
L 168.646073 -147.051506 
L 171.292727 -147.559195 
L 173.93938 -147.788817 
L 176.586033 -148.700147 
L 179.232687 -149.148749 
L 181.87934 -149.542328 
L 184.525993 -150.314636 
L 187.172647 -151.090717 
L 189.8193 -151.063266 
L 192.465953 -151.607137 
L 195.112607 -151.806454 
L 197.75926 -151.815838 
L 200.405913 -152.993649 
L 203.052567 -153.98131 
L 205.69922 -154.004818 
L 208.345873 -154.272219 
L 210.992527 -155.635005 
L 213.63918 -155.579183 
L 216.285833 -155.733635 
L 218.932487 -156.288172 
L 221.57914 -156.658605 
L 224.225793 -157.287103 
L 226.872447 -157.918697 
L 229.5191 -157.85828 
L 232.165753 -157.188449 
L 234.812407 -156.75148 
L 237.45906 -158.16641 
L 240.105713 -158.171344 
L 242.752367 -157.742768 
L 245.39902 -158.234784 
L 248.045673 -159.101224 
L 250.692327 -159.410709 
L 253.33898 -160.133967 
L 255.985633 -160.058048 
L 258.632287 -160.147681 
L 261.27894 -160.300706 
L 263.925593 -161.840533 
L 266.572247 -162.94685 
L 269.2189 -162.632843 
L 271.865553 -163.121352 
L 274.512207 -163.457707 
L 277.15886 -165.50324 
L 279.805513 -165.10584 
L 282.452167 -165.750518 
L 285.09882 -165.933026 
L 287.745473 -165.661683 
L 290.392127 -166.584815 
L 293.03878 -166.597367 
L 295.685433 -165.962775 
L 298.332087 -166.712106 
L 300.97874 -167.594339 
L 303.625393 -167.528844 
L 306.272047 -167.516872 
L 308.9187 -167.788311 
L 311.565353 -168.044611 
L 314.212007 -168.325265 
L 316.85866 -167.887498 
L 319.505313 -168.042555 
L 322.151967 -168.13925 
L 324.79862 -168.690281 
L 327.445273 -169.357041 
L 330.091927 -168.78018 
L 332.73858 -169.276574 
L 335.385233 -169.268955 
L 338.031887 -168.866984 
L 340.67854 -168.024778 
L 343.325193 -168.579073 
L 345.971847 -169.337184 
L 348.6185 -169.623716 
L 351.265153 -170.41218 
L 353.911807 -170.918369 
L 356.55846 -170.830115 
L 359.205113 -171.066315 
L 361.851767 -171.816469 
L 364.49842 -171.594103 
L 367.145073 -170.771052 
L 369.791727 -171.170654 
L 372.43838 -171.195469 
L 375.085033 -171.040291 
L 377.731687 -171.377469 
L 380.37834 -171.469883 
L 383.024993 -171.536371 
L 385.671647 -172.589067 
L 388.3183 -172.192175 
L 390.964953 -171.934981 
L 393.611607 -171.914567 
L 396.25826 -172.131008 
L 398.904913 -172.422522 
L 401.551567 -172.641986 
L 404.19822 -173.278127 
L 406.844873 -174.022234 
L 409.491527 -173.466318 
L 412.13818 -173.421695 
L 414.784833 -173.337625 
L 417.431487 -173.888219 
L 420.07814 -174.07525 
L 422.724793 -174.779281 
L 425.371447 -175.164395 
L 428.0181 -175.863564 
L 430.664753 -175.088886 
L 433.311407 -175.216709 
L 435.95806 -175.458279 
L 438.604713 -175.504886 
L 441.251367 -175.262687 
L 443.89802 -175.775164 
L 446.544673 -176.210489 
L 449.191327 -175.907583 
L 451.83798 -176.481759 
L 454.484633 -176.559324 
L 457.131287 -176.31594 
L 459.77794 -177.432608 
L 462.424593 -178.086308 
L 465.071247 -177.601064 
L 467.7179 -177.865514 
L 470.364553 -178.151006 
L 473.011207 -178.590176 
L 475.65786 -178.520931 
L 478.304513 -178.919323 
L 480.951167 -178.665297 
L 483.59782 -179.113682 
L 486.244473 -179.434389 
L 488.891127 -179.360573 
L 491.53778 -179.367369 
L 494.184433 -179.083885 
L 496.831087 -178.553703 
L 499.47774 -178.178771 
L 502.124393 -178.505234 
L 504.771047 -178.3547 
L 507.4177 -179.239111 
L 510.064353 -179.581391 
L 512.711007 -179.927493 
L 515.35766 -179.313265 
L 518.004313 -179.978187 
L 520.650967 -180.432207 
L 523.29762 -180.958495 
L 525.944273 -181.140761 
L 528.590927 -181.053353 
L 531.23758 -181.418513 
L 533.884233 -181.347527 
L 536.530887 -181.195276 
L 539.17754 -180.981423 
L 541.824193 -180.609515 
L 544.470847 -180.940283 
L 547.1175 -180.995161 
L 549.764153 -181.322059 
L 552.410807 -181.895994 
L 555.05746 -181.978903 
L 557.704113 -181.795597 
L 560.350767 -181.913408 
L 562.99742 -182.300722 
L 565.644073 -181.736076 
L 568.290727 -181.786189 
L 570.93738 -181.810278 
L 573.584033 -182.230196 
L 576.230687 -182.041303 
L 578.87734 -182.467582 
L 581.523993 -181.518982 
L 584.170647 -181.48546 
L 586.8173 -181.691477 
L 589.463953 -182.357197 
L 592.110607 -183.041057 
L 594.75726 -183.553389 
L 597.403913 -183.571069 
L 600.050567 -184.067342 
L 602.69722 -184.185007 
L 605.343873 -184.118882 
L 607.990527 -184.755483 
L 610.63718 -184.838779 
L 613.283833 -185.700987 
L 615.930487 -185.31655 
L 618.57714 -184.159636 
L 621.223793 -184.186023 
L 623.870447 -184.401085 
L 626.5171 -183.928442 
L 629.163753 -183.965737 
L 631.810407 -183.798394 
L 634.45706 -184.214587 
L 637.103713 -184.220899 
L 639.750367 -184.432986 
L 642.39702 -185.468656 
L 645.043673 -185.99134 
L 647.690327 -185.85868 
L 650.33698 -185.942654 
L 652.983633 -185.360641 
L 655.630287 -184.841585 
L 658.27694 -185.424589 
L 660.923593 -185.338342 
L 663.570247 -185.175425 
L 666.2169 -184.73045 
L 668.863553 -184.491202 
L 671.510207 -184.591235 
L 674.15686 -184.401714 
L 676.803513 -184.281219 
L 679.450167 -184.434655 
L 682.09682 -184.777589 
L 684.743473 -184.605118 
L 687.390127 -184.633029 
L 690.03678 -184.994803 
L 692.683433 -185.553307 
L 695.330087 -185.139799 
L 697.97674 -185.486965 
L 700.623393 -185.963405 
L 703.270047 -186.147122 
L 705.9167 -186.423665 
L 708.563353 -186.344625 
L 711.210007 -186.555237 
L 713.85666 -186.90666 
L 716.503313 -186.722218 
L 719.149967 -186.812238 
L 721.79662 -187.048439 
L 724.443273 -186.843123 
L 727.089927 -187.099882 
L 729.73658 -186.587066 
L 732.383233 -186.115922 
L 735.029887 -186.221688 
L 737.67654 -185.608137 
L 740.323193 -186.241109 
L 742.969847 -186.816156 
L 745.6165 -186.752885 
L 748.263153 -186.702482 
L 750.909807 -186.798065 
L 753.55646 -186.474238 
L 756.203113 -186.513927 
L 758.849767 -187.464148 
L 761.49642 -187.654782 
L 764.143073 -188.166316 
L 766.789727 -188.442279 
L 769.43638 -188.856344 
L 772.083033 -189.401618 
L 774.729687 -189.344611 
L 777.37634 -189.949794 
L 780.022993 -190.493592 
L 782.669647 -190.361464 
L 785.3163 -190.104246 
L 787.962953 -189.505883 
L 790.609607 -189.752847 
L 793.25626 -190.367728 
L 795.902913 -190.332344 
L 798.549567 -190.869491 
L 801.19622 -191.15583 
L 803.842873 -191.451165 
L 806.489527 -191.240432 
L 809.13618 -190.550671 
L 811.782833 -191.06801 
L 814.429487 -190.771006 
L 817.07614 -190.72111 
L 819.722793 -190.404007 
L 822.369447 -190.283706 
L 825.0161 -190.174143 
L 827.662753 -190.38432 
L 830.309407 -190.806414 
L 832.95606 -190.720989 
L 835.602713 -190.637741 
L 838.249367 -190.296815 
L 840.89602 -190.326951 
L 843.542673 -190.22237 
L 843.542673 -372.805455 
L 843.542673 -372.805455 
L 840.89602 -372.607661 
L 838.249367 -372.699617 
L 835.602713 -372.426411 
L 832.95606 -372.465206 
L 830.309407 -372.345436 
L 827.662753 -372.71229 
L 825.0161 -372.578106 
L 822.369447 -372.4609 
L 819.722793 -372.217589 
L 817.07614 -371.824179 
L 814.429487 -372.192532 
L 811.782833 -371.960201 
L 809.13618 -371.95996 
L 806.489527 -371.432172 
L 803.842873 -371.187555 
L 801.19622 -371.318353 
L 798.549567 -371.428351 
L 795.902913 -371.578594 
L 793.25626 -371.462501 
L 790.609607 -371.534044 
L 787.962953 -371.708328 
L 785.3163 -371.382349 
L 782.669647 -371.011626 
L 780.022993 -370.851998 
L 777.37634 -370.974815 
L 774.729687 -371.043938 
L 772.083033 -371.009594 
L 769.43638 -371.460276 
L 766.789727 -371.599394 
L 764.143073 -371.482479 
L 761.49642 -371.765456 
L 758.849767 -372.000012 
L 756.203113 -372.478605 
L 753.55646 -372.600212 
L 750.909807 -372.371654 
L 748.263153 -372.125972 
L 745.6165 -371.818713 
L 742.969847 -371.89606 
L 740.323193 -372.084953 
L 737.67654 -372.498002 
L 735.029887 -371.959814 
L 732.383233 -371.721098 
L 729.73658 -371.468935 
L 727.089927 -371.016705 
L 724.443273 -371.264079 
L 721.79662 -371.176526 
L 719.149967 -370.988407 
L 716.503313 -371.312161 
L 713.85666 -371.031894 
L 711.210007 -371.493701 
L 708.563353 -371.259291 
L 705.9167 -371.165981 
L 703.270047 -371.162159 
L 700.623393 -371.252664 
L 697.97674 -371.646412 
L 695.330087 -372.008477 
L 692.683433 -371.640898 
L 690.03678 -371.880388 
L 687.390127 -372.28173 
L 684.743473 -372.518366 
L 682.09682 -372.194177 
L 679.450167 -372.192629 
L 676.803513 -372.217783 
L 674.15686 -372.296581 
L 671.510207 -371.883096 
L 668.863553 -372.061928 
L 666.2169 -371.800332 
L 663.570247 -371.371997 
L 660.923593 -371.414565 
L 658.27694 -371.383026 
L 655.630287 -371.791915 
L 652.983633 -371.569017 
L 650.33698 -371.011722 
L 647.690327 -371.048775 
L 645.043673 -370.556638 
L 642.39702 -371.014335 
L 639.750367 -371.622178 
L 637.103713 -371.629385 
L 634.45706 -371.552232 
L 631.810407 -371.726855 
L 629.163753 -371.387331 
L 626.5171 -371.427335 
L 623.870447 -371.205356 
L 621.223793 -371.463469 
L 618.57714 -371.372481 
L 615.930487 -370.466908 
L 613.283833 -370.146879 
L 610.63718 -370.538499 
L 607.990527 -370.346704 
L 605.343873 -370.664121 
L 602.69722 -370.860511 
L 600.050567 -370.916671 
L 597.403913 -371.174059 
L 594.75726 -370.932296 
L 592.110607 -370.938487 
L 589.463953 -371.128638 
L 586.8173 -371.364306 
L 584.170647 -371.259 
L 581.523993 -371.25218 
L 578.87734 -370.61662 
L 576.230687 -370.998565 
L 573.584033 -370.854271 
L 570.93738 -370.643321 
L 568.290727 -370.594417 
L 565.644073 -370.378 
L 562.99742 -369.895634 
L 560.350767 -370.148281 
L 557.704113 -370.091009 
L 555.05746 -369.726477 
L 552.410807 -369.60874 
L 549.764153 -369.837443 
L 547.1175 -370.017967 
L 544.470847 -369.907872 
L 541.824193 -370.168017 
L 539.17754 -369.895392 
L 536.530887 -369.494727 
L 533.884233 -369.186742 
L 531.23758 -369.027163 
L 528.590927 -369.01299 
L 525.944273 -368.565161 
L 523.29762 -368.606181 
L 520.650967 -368.887416 
L 518.004313 -368.850556 
L 515.35766 -369.35556 
L 512.711007 -368.968004 
L 510.064353 -369.067118 
L 507.4177 -369.114522 
L 504.771047 -369.619478 
L 502.124393 -369.556885 
L 499.47774 -369.586682 
L 496.831087 -369.574009 
L 494.184433 -368.901637 
L 491.53778 -368.508566 
L 488.891127 -368.569757 
L 486.244473 -368.33936 
L 483.59782 -368.334717 
L 480.951167 -368.237199 
L 478.304513 -367.976232 
L 475.65786 -368.039744 
L 473.011207 -367.668344 
L 470.364553 -367.825649 
L 467.7179 -367.867491 
L 465.071247 -368.026974 
L 462.424593 -367.357408 
L 459.77794 -367.57813 
L 457.131287 -368.181668 
L 454.484633 -367.877988 
L 451.83798 -367.639611 
L 449.191327 -367.579678 
L 446.544673 -367.287317 
L 443.89802 -367.639707 
L 441.251367 -367.933567 
L 438.604713 -367.455893 
L 435.95806 -367.337043 
L 433.311407 -367.264824 
L 430.664753 -367.041974 
L 428.0181 -366.983879 
L 425.371447 -367.173256 
L 422.724793 -367.46847 
L 420.07814 -367.723875 
L 417.431487 -367.95161 
L 414.784833 -367.819603 
L 412.13818 -367.568262 
L 409.491527 -367.369114 
L 406.844873 -367.018659 
L 404.19822 -367.511473 
L 401.551567 -367.717731 
L 398.904913 -367.761024 
L 396.25826 -367.645415 
L 393.611607 -367.780373 
L 390.964953 -367.705977 
L 388.3183 -367.358859 
L 385.671647 -366.988281 
L 383.024993 -367.26879 
L 380.37834 -367.146458 
L 377.731687 -366.905807 
L 375.085033 -367.204069 
L 372.43838 -366.848099 
L 369.791727 -366.413089 
L 367.145073 -366.218633 
L 364.49842 -365.232134 
L 361.851767 -365.017991 
L 359.205113 -365.275862 
L 356.55846 -365.38291 
L 353.911807 -364.957574 
L 351.265153 -365.108543 
L 348.6185 -365.517529 
L 345.971847 -365.253998 
L 343.325193 -365.740185 
L 340.67854 -366.015084 
L 338.031887 -365.007446 
L 335.385233 -364.768004 
L 332.73858 -364.875245 
L 330.091927 -364.977697 
L 327.445273 -364.487446 
L 324.79862 -364.835096 
L 322.151967 -365.00614 
L 319.505313 -364.925552 
L 316.85866 -364.580321 
L 314.212007 -363.72936 
L 311.565353 -363.612783 
L 308.9187 -363.770137 
L 306.272047 -364.037248 
L 303.625393 -363.784262 
L 300.97874 -363.322212 
L 298.332087 -363.529631 
L 295.685433 -364.247424 
L 293.03878 -363.526245 
L 290.392127 -363.273792 
L 287.745473 -363.636921 
L 285.09882 -363.037833 
L 282.452167 -363.112423 
L 279.805513 -363.181933 
L 277.15886 -362.529104 
L 274.512207 -363.370874 
L 271.865553 -362.917338 
L 269.2189 -363.014324 
L 266.572247 -362.514012 
L 263.925593 -363.034785 
L 261.27894 -363.719347 
L 258.632287 -363.40517 
L 255.985633 -362.921498 
L 253.33898 -362.396758 
L 250.692327 -362.511787 
L 248.045673 -362.350611 
L 245.39902 -362.573316 
L 242.752367 -361.841447 
L 240.105713 -361.101306 
L 237.45906 -361.089504 
L 234.812407 -361.524997 
L 232.165753 -360.917154 
L 229.5191 -360.721731 
L 226.872447 -360.180013 
L 224.225793 -359.914111 
L 221.57914 -360.06242 
L 218.932487 -359.672928 
L 216.285833 -359.689617 
L 213.63918 -359.814852 
L 210.992527 -359.45893 
L 208.345873 -359.824962 
L 205.69922 -359.470104 
L 203.052567 -358.746023 
L 200.405913 -358.756907 
L 197.75926 -359.294659 
L 195.112607 -358.755649 
L 192.465953 -358.272171 
L 189.8193 -358.089711 
L 187.172647 -357.452168 
L 184.525993 -357.419468 
L 181.87934 -357.553459 
L 179.232687 -356.907112 
L 176.586033 -356.177806 
L 173.93938 -355.845829 
L 171.292727 -354.927389 
L 168.646073 -355.028922 
L 165.99942 -355.022827 
L 163.352767 -355.336955 
L 160.706113 -355.04266 
L 158.05946 -353.603543 
L 155.412807 -354.030958 
L 152.766153 -353.50409 
L 150.1195 -353.500559 
L 147.472847 -353.224306 
L 144.826193 -353.60364 
L 142.17954 -352.938234 
L 139.532887 -352.043496 
L 136.886233 -351.553246 
L 134.23958 -350.916331 
L 131.592927 -350.578791 
L 128.946273 -350.591126 
L 126.29962 -350.037314 
L 123.652967 -348.729721 
L 121.006313 -348.035679 
L 118.35966 -347.156904 
L 115.713007 -347.05658 
L 113.066353 -347.604781 
L 110.4197 -347.538511 
L 107.773047 -346.452172 
L 105.126393 -345.759097 
L 102.47974 -344.73598 
L 99.833087 -343.947951 
L 97.186433 -342.546226 
L 94.53978 -343.04083 
L 91.893127 -341.66808 
L 89.246473 -340.426563 
L 86.59982 -339.315191 
L 83.953167 -338.29887 
L 81.306513 -336.629841 
L 78.65986 -334.833642 
L 76.013207 -333.312825 
L 73.366553 -332.579021 
L 70.7199 -330.956502 
L 68.073247 -328.68454 
L 65.426593 -325.194448 
L 62.77994 -322.295754 
L 60.133287 -318.986017 
L 57.486633 -314.543021 
L 54.83998 -310.223252 
L 52.193327 -310.088802 
z
" style="stroke: #0000ff; stroke-opacity: 0.2"/>
    </defs>
    <g clip-path="url(#p936605faae)">
     <use xlink:href="#m1fbc43e83e" x="0" y="432" style="fill: #0000ff; fill-opacity: 0.2; stroke: #0000ff; stroke-opacity: 0.2"/>
    </g>
   </g>
   <g id="matplotlib.axis_1">
    <g id="xtick_1">
     <g id="line2d_1">
      <defs>
       <path id="m1eb25a92dc" d="M 0 0 
L 0 3.5 
" style="stroke: #000000; stroke-width: 0.8"/>
      </defs>
      <g>
       <use xlink:href="#m1eb25a92dc" x="181.87934" y="390.04" style="stroke: #000000; stroke-width: 0.8"/>
      </g>
     </g>
     <g id="text_1">
      <!-- 50 -->
      <g transform="translate(175.51684 404.638438) scale(0.1 -0.1)">
       <defs>
        <path id="DejaVuSans-35" d="M 691 4666 
L 3169 4666 
L 3169 4134 
L 1269 4134 
L 1269 2991 
Q 1406 3038 1543 3061 
Q 1681 3084 1819 3084 
Q 2600 3084 3056 2656 
Q 3513 2228 3513 1497 
Q 3513 744 3044 326 
Q 2575 -91 1722 -91 
Q 1428 -91 1123 -41 
Q 819 9 494 109 
L 494 744 
Q 775 591 1075 516 
Q 1375 441 1709 441 
Q 2250 441 2565 725 
Q 2881 1009 2881 1497 
Q 2881 1984 2565 2268 
Q 2250 2553 1709 2553 
Q 1456 2553 1204 2497 
Q 953 2441 691 2322 
L 691 4666 
z
" transform="scale(0.015625)"/>
        <path id="DejaVuSans-30" d="M 2034 4250 
Q 1547 4250 1301 3770 
Q 1056 3291 1056 2328 
Q 1056 1369 1301 889 
Q 1547 409 2034 409 
Q 2525 409 2770 889 
Q 3016 1369 3016 2328 
Q 3016 3291 2770 3770 
Q 2525 4250 2034 4250 
z
M 2034 4750 
Q 2819 4750 3233 4129 
Q 3647 3509 3647 2328 
Q 3647 1150 3233 529 
Q 2819 -91 2034 -91 
Q 1250 -91 836 529 
Q 422 1150 422 2328 
Q 422 3509 836 4129 
Q 1250 4750 2034 4750 
z
" transform="scale(0.015625)"/>
       </defs>
       <use xlink:href="#DejaVuSans-35"/>
       <use xlink:href="#DejaVuSans-30" transform="translate(63.623047 0)"/>
      </g>
     </g>
    </g>
    <g id="xtick_2">
     <g id="line2d_2">
      <g>
       <use xlink:href="#m1eb25a92dc" x="314.212007" y="390.04" style="stroke: #000000; stroke-width: 0.8"/>
      </g>
     </g>
     <g id="text_2">
      <!-- 100 -->
      <g transform="translate(304.668257 404.638438) scale(0.1 -0.1)">
       <defs>
        <path id="DejaVuSans-31" d="M 794 531 
L 1825 531 
L 1825 4091 
L 703 3866 
L 703 4441 
L 1819 4666 
L 2450 4666 
L 2450 531 
L 3481 531 
L 3481 0 
L 794 0 
L 794 531 
z
" transform="scale(0.015625)"/>
       </defs>
       <use xlink:href="#DejaVuSans-31"/>
       <use xlink:href="#DejaVuSans-30" transform="translate(63.623047 0)"/>
       <use xlink:href="#DejaVuSans-30" transform="translate(127.246094 0)"/>
      </g>
     </g>
    </g>
    <g id="xtick_3">
     <g id="line2d_3">
      <g>
       <use xlink:href="#m1eb25a92dc" x="446.544673" y="390.04" style="stroke: #000000; stroke-width: 0.8"/>
      </g>
     </g>
     <g id="text_3">
      <!-- 150 -->
      <g transform="translate(437.000923 404.638438) scale(0.1 -0.1)">
       <use xlink:href="#DejaVuSans-31"/>
       <use xlink:href="#DejaVuSans-35" transform="translate(63.623047 0)"/>
       <use xlink:href="#DejaVuSans-30" transform="translate(127.246094 0)"/>
      </g>
     </g>
    </g>
    <g id="xtick_4">
     <g id="line2d_4">
      <g>
       <use xlink:href="#m1eb25a92dc" x="578.87734" y="390.04" style="stroke: #000000; stroke-width: 0.8"/>
      </g>
     </g>
     <g id="text_4">
      <!-- 200 -->
      <g transform="translate(569.33359 404.638438) scale(0.1 -0.1)">
       <defs>
        <path id="DejaVuSans-32" d="M 1228 531 
L 3431 531 
L 3431 0 
L 469 0 
L 469 531 
Q 828 903 1448 1529 
Q 2069 2156 2228 2338 
Q 2531 2678 2651 2914 
Q 2772 3150 2772 3378 
Q 2772 3750 2511 3984 
Q 2250 4219 1831 4219 
Q 1534 4219 1204 4116 
Q 875 4013 500 3803 
L 500 4441 
Q 881 4594 1212 4672 
Q 1544 4750 1819 4750 
Q 2544 4750 2975 4387 
Q 3406 4025 3406 3419 
Q 3406 3131 3298 2873 
Q 3191 2616 2906 2266 
Q 2828 2175 2409 1742 
Q 1991 1309 1228 531 
z
" transform="scale(0.015625)"/>
       </defs>
       <use xlink:href="#DejaVuSans-32"/>
       <use xlink:href="#DejaVuSans-30" transform="translate(63.623047 0)"/>
       <use xlink:href="#DejaVuSans-30" transform="translate(127.246094 0)"/>
      </g>
     </g>
    </g>
    <g id="xtick_5">
     <g id="line2d_5">
      <g>
       <use xlink:href="#m1eb25a92dc" x="711.210007" y="390.04" style="stroke: #000000; stroke-width: 0.8"/>
      </g>
     </g>
     <g id="text_5">
      <!-- 250 -->
      <g transform="translate(701.666257 404.638438) scale(0.1 -0.1)">
       <use xlink:href="#DejaVuSans-32"/>
       <use xlink:href="#DejaVuSans-35" transform="translate(63.623047 0)"/>
       <use xlink:href="#DejaVuSans-30" transform="translate(127.246094 0)"/>
      </g>
     </g>
    </g>
    <g id="xtick_6">
     <g id="line2d_6">
      <g>
       <use xlink:href="#m1eb25a92dc" x="843.542673" y="390.04" style="stroke: #000000; stroke-width: 0.8"/>
      </g>
     </g>
     <g id="text_6">
      <!-- 300 -->
      <g transform="translate(833.998923 404.638438) scale(0.1 -0.1)">
       <defs>
        <path id="DejaVuSans-33" d="M 2597 2516 
Q 3050 2419 3304 2112 
Q 3559 1806 3559 1356 
Q 3559 666 3084 287 
Q 2609 -91 1734 -91 
Q 1441 -91 1130 -33 
Q 819 25 488 141 
L 488 750 
Q 750 597 1062 519 
Q 1375 441 1716 441 
Q 2309 441 2620 675 
Q 2931 909 2931 1356 
Q 2931 1769 2642 2001 
Q 2353 2234 1838 2234 
L 1294 2234 
L 1294 2753 
L 1863 2753 
Q 2328 2753 2575 2939 
Q 2822 3125 2822 3475 
Q 2822 3834 2567 4026 
Q 2313 4219 1838 4219 
Q 1578 4219 1281 4162 
Q 984 4106 628 3988 
L 628 4550 
Q 988 4650 1302 4700 
Q 1616 4750 1894 4750 
Q 2613 4750 3031 4423 
Q 3450 4097 3450 3541 
Q 3450 3153 3228 2886 
Q 3006 2619 2597 2516 
z
" transform="scale(0.015625)"/>
       </defs>
       <use xlink:href="#DejaVuSans-33"/>
       <use xlink:href="#DejaVuSans-30" transform="translate(63.623047 0)"/>
       <use xlink:href="#DejaVuSans-30" transform="translate(127.246094 0)"/>
      </g>
     </g>
    </g>
    <g id="text_7">
     <!-- Step -->
     <g transform="translate(436.482844 418.316562) scale(0.1 -0.1)">
      <defs>
       <path id="DejaVuSans-53" d="M 3425 4513 
L 3425 3897 
Q 3066 4069 2747 4153 
Q 2428 4238 2131 4238 
Q 1616 4238 1336 4038 
Q 1056 3838 1056 3469 
Q 1056 3159 1242 3001 
Q 1428 2844 1947 2747 
L 2328 2669 
Q 3034 2534 3370 2195 
Q 3706 1856 3706 1288 
Q 3706 609 3251 259 
Q 2797 -91 1919 -91 
Q 1588 -91 1214 -16 
Q 841 59 441 206 
L 441 856 
Q 825 641 1194 531 
Q 1563 422 1919 422 
Q 2459 422 2753 634 
Q 3047 847 3047 1241 
Q 3047 1584 2836 1778 
Q 2625 1972 2144 2069 
L 1759 2144 
Q 1053 2284 737 2584 
Q 422 2884 422 3419 
Q 422 4038 858 4394 
Q 1294 4750 2059 4750 
Q 2388 4750 2728 4690 
Q 3069 4631 3425 4513 
z
" transform="scale(0.015625)"/>
       <path id="DejaVuSans-74" d="M 1172 4494 
L 1172 3500 
L 2356 3500 
L 2356 3053 
L 1172 3053 
L 1172 1153 
Q 1172 725 1289 603 
Q 1406 481 1766 481 
L 2356 481 
L 2356 0 
L 1766 0 
Q 1100 0 847 248 
Q 594 497 594 1153 
L 594 3053 
L 172 3053 
L 172 3500 
L 594 3500 
L 594 4494 
L 1172 4494 
z
" transform="scale(0.015625)"/>
       <path id="DejaVuSans-65" d="M 3597 1894 
L 3597 1613 
L 953 1613 
Q 991 1019 1311 708 
Q 1631 397 2203 397 
Q 2534 397 2845 478 
Q 3156 559 3463 722 
L 3463 178 
Q 3153 47 2828 -22 
Q 2503 -91 2169 -91 
Q 1331 -91 842 396 
Q 353 884 353 1716 
Q 353 2575 817 3079 
Q 1281 3584 2069 3584 
Q 2775 3584 3186 3129 
Q 3597 2675 3597 1894 
z
M 3022 2063 
Q 3016 2534 2758 2815 
Q 2500 3097 2075 3097 
Q 1594 3097 1305 2825 
Q 1016 2553 972 2059 
L 3022 2063 
z
" transform="scale(0.015625)"/>
       <path id="DejaVuSans-70" d="M 1159 525 
L 1159 -1331 
L 581 -1331 
L 581 3500 
L 1159 3500 
L 1159 2969 
Q 1341 3281 1617 3432 
Q 1894 3584 2278 3584 
Q 2916 3584 3314 3078 
Q 3713 2572 3713 1747 
Q 3713 922 3314 415 
Q 2916 -91 2278 -91 
Q 1894 -91 1617 61 
Q 1341 213 1159 525 
z
M 3116 1747 
Q 3116 2381 2855 2742 
Q 2594 3103 2138 3103 
Q 1681 3103 1420 2742 
Q 1159 2381 1159 1747 
Q 1159 1113 1420 752 
Q 1681 391 2138 391 
Q 2594 391 2855 752 
Q 3116 1113 3116 1747 
z
" transform="scale(0.015625)"/>
      </defs>
      <use xlink:href="#DejaVuSans-53"/>
      <use xlink:href="#DejaVuSans-74" transform="translate(63.476562 0)"/>
      <use xlink:href="#DejaVuSans-65" transform="translate(102.685547 0)"/>
      <use xlink:href="#DejaVuSans-70" transform="translate(164.208984 0)"/>
     </g>
    </g>
   </g>
   <g id="matplotlib.axis_2">
    <g id="ytick_1">
     <g id="line2d_7">
      <defs>
       <path id="m22145edf3b" d="M 0 0 
L -3.5 0 
" style="stroke: #000000; stroke-width: 0.8"/>
      </defs>
      <g>
       <use xlink:href="#m22145edf3b" x="50.87" y="375.712273" style="stroke: #000000; stroke-width: 0.8"/>
      </g>
     </g>
     <g id="text_8">
      <!-- 75 -->
      <g transform="translate(31.145 379.511491) scale(0.1 -0.1)">
       <defs>
        <path id="DejaVuSans-37" d="M 525 4666 
L 3525 4666 
L 3525 4397 
L 1831 0 
L 1172 0 
L 2766 4134 
L 525 4134 
L 525 4666 
z
" transform="scale(0.015625)"/>
       </defs>
       <use xlink:href="#DejaVuSans-37"/>
       <use xlink:href="#DejaVuSans-35" transform="translate(63.623047 0)"/>
      </g>
     </g>
    </g>
    <g id="ytick_2">
     <g id="line2d_8">
      <g>
       <use xlink:href="#m22145edf3b" x="50.87" y="336.085894" style="stroke: #000000; stroke-width: 0.8"/>
      </g>
     </g>
     <g id="text_9">
      <!-- 100 -->
      <g transform="translate(24.7825 339.885113) scale(0.1 -0.1)">
       <use xlink:href="#DejaVuSans-31"/>
       <use xlink:href="#DejaVuSans-30" transform="translate(63.623047 0)"/>
       <use xlink:href="#DejaVuSans-30" transform="translate(127.246094 0)"/>
      </g>
     </g>
    </g>
    <g id="ytick_3">
     <g id="line2d_9">
      <g>
       <use xlink:href="#m22145edf3b" x="50.87" y="296.459516" style="stroke: #000000; stroke-width: 0.8"/>
      </g>
     </g>
     <g id="text_10">
      <!-- 125 -->
      <g transform="translate(24.7825 300.258735) scale(0.1 -0.1)">
       <use xlink:href="#DejaVuSans-31"/>
       <use xlink:href="#DejaVuSans-32" transform="translate(63.623047 0)"/>
       <use xlink:href="#DejaVuSans-35" transform="translate(127.246094 0)"/>
      </g>
     </g>
    </g>
    <g id="ytick_4">
     <g id="line2d_10">
      <g>
       <use xlink:href="#m22145edf3b" x="50.87" y="256.833138" style="stroke: #000000; stroke-width: 0.8"/>
      </g>
     </g>
     <g id="text_11">
      <!-- 150 -->
      <g transform="translate(24.7825 260.632357) scale(0.1 -0.1)">
       <use xlink:href="#DejaVuSans-31"/>
       <use xlink:href="#DejaVuSans-35" transform="translate(63.623047 0)"/>
       <use xlink:href="#DejaVuSans-30" transform="translate(127.246094 0)"/>
      </g>
     </g>
    </g>
    <g id="ytick_5">
     <g id="line2d_11">
      <g>
       <use xlink:href="#m22145edf3b" x="50.87" y="217.20676" style="stroke: #000000; stroke-width: 0.8"/>
      </g>
     </g>
     <g id="text_12">
      <!-- 175 -->
      <g transform="translate(24.7825 221.005979) scale(0.1 -0.1)">
       <use xlink:href="#DejaVuSans-31"/>
       <use xlink:href="#DejaVuSans-37" transform="translate(63.623047 0)"/>
       <use xlink:href="#DejaVuSans-35" transform="translate(127.246094 0)"/>
      </g>
     </g>
    </g>
    <g id="ytick_6">
     <g id="line2d_12">
      <g>
       <use xlink:href="#m22145edf3b" x="50.87" y="177.580382" style="stroke: #000000; stroke-width: 0.8"/>
      </g>
     </g>
     <g id="text_13">
      <!-- 200 -->
      <g transform="translate(24.7825 181.379601) scale(0.1 -0.1)">
       <use xlink:href="#DejaVuSans-32"/>
       <use xlink:href="#DejaVuSans-30" transform="translate(63.623047 0)"/>
       <use xlink:href="#DejaVuSans-30" transform="translate(127.246094 0)"/>
      </g>
     </g>
    </g>
    <g id="ytick_7">
     <g id="line2d_13">
      <g>
       <use xlink:href="#m22145edf3b" x="50.87" y="137.954004" style="stroke: #000000; stroke-width: 0.8"/>
      </g>
     </g>
     <g id="text_14">
      <!-- 225 -->
      <g transform="translate(24.7825 141.753222) scale(0.1 -0.1)">
       <use xlink:href="#DejaVuSans-32"/>
       <use xlink:href="#DejaVuSans-32" transform="translate(63.623047 0)"/>
       <use xlink:href="#DejaVuSans-35" transform="translate(127.246094 0)"/>
      </g>
     </g>
    </g>
    <g id="ytick_8">
     <g id="line2d_14">
      <g>
       <use xlink:href="#m22145edf3b" x="50.87" y="98.327626" style="stroke: #000000; stroke-width: 0.8"/>
      </g>
     </g>
     <g id="text_15">
      <!-- 250 -->
      <g transform="translate(24.7825 102.126844) scale(0.1 -0.1)">
       <use xlink:href="#DejaVuSans-32"/>
       <use xlink:href="#DejaVuSans-35" transform="translate(63.623047 0)"/>
       <use xlink:href="#DejaVuSans-30" transform="translate(127.246094 0)"/>
      </g>
     </g>
    </g>
    <g id="ytick_9">
     <g id="line2d_15">
      <g>
       <use xlink:href="#m22145edf3b" x="50.87" y="58.701247" style="stroke: #000000; stroke-width: 0.8"/>
      </g>
     </g>
     <g id="text_16">
      <!-- 275 -->
      <g transform="translate(24.7825 62.500466) scale(0.1 -0.1)">
       <use xlink:href="#DejaVuSans-32"/>
       <use xlink:href="#DejaVuSans-37" transform="translate(63.623047 0)"/>
       <use xlink:href="#DejaVuSans-35" transform="translate(127.246094 0)"/>
      </g>
     </g>
    </g>
    <g id="text_17">
     <!-- Profit -->
     <g transform="translate(18.702813 229.779063) rotate(-90) scale(0.1 -0.1)">
      <defs>
       <path id="DejaVuSans-50" d="M 1259 4147 
L 1259 2394 
L 2053 2394 
Q 2494 2394 2734 2622 
Q 2975 2850 2975 3272 
Q 2975 3691 2734 3919 
Q 2494 4147 2053 4147 
L 1259 4147 
z
M 628 4666 
L 2053 4666 
Q 2838 4666 3239 4311 
Q 3641 3956 3641 3272 
Q 3641 2581 3239 2228 
Q 2838 1875 2053 1875 
L 1259 1875 
L 1259 0 
L 628 0 
L 628 4666 
z
" transform="scale(0.015625)"/>
       <path id="DejaVuSans-72" d="M 2631 2963 
Q 2534 3019 2420 3045 
Q 2306 3072 2169 3072 
Q 1681 3072 1420 2755 
Q 1159 2438 1159 1844 
L 1159 0 
L 581 0 
L 581 3500 
L 1159 3500 
L 1159 2956 
Q 1341 3275 1631 3429 
Q 1922 3584 2338 3584 
Q 2397 3584 2469 3576 
Q 2541 3569 2628 3553 
L 2631 2963 
z
" transform="scale(0.015625)"/>
       <path id="DejaVuSans-6f" d="M 1959 3097 
Q 1497 3097 1228 2736 
Q 959 2375 959 1747 
Q 959 1119 1226 758 
Q 1494 397 1959 397 
Q 2419 397 2687 759 
Q 2956 1122 2956 1747 
Q 2956 2369 2687 2733 
Q 2419 3097 1959 3097 
z
M 1959 3584 
Q 2709 3584 3137 3096 
Q 3566 2609 3566 1747 
Q 3566 888 3137 398 
Q 2709 -91 1959 -91 
Q 1206 -91 779 398 
Q 353 888 353 1747 
Q 353 2609 779 3096 
Q 1206 3584 1959 3584 
z
" transform="scale(0.015625)"/>
       <path id="DejaVuSans-66" d="M 2375 4863 
L 2375 4384 
L 1825 4384 
Q 1516 4384 1395 4259 
Q 1275 4134 1275 3809 
L 1275 3500 
L 2222 3500 
L 2222 3053 
L 1275 3053 
L 1275 0 
L 697 0 
L 697 3053 
L 147 3053 
L 147 3500 
L 697 3500 
L 697 3744 
Q 697 4328 969 4595 
Q 1241 4863 1831 4863 
L 2375 4863 
z
" transform="scale(0.015625)"/>
       <path id="DejaVuSans-69" d="M 603 3500 
L 1178 3500 
L 1178 0 
L 603 0 
L 603 3500 
z
M 603 4863 
L 1178 4863 
L 1178 4134 
L 603 4134 
L 603 4863 
z
" transform="scale(0.015625)"/>
      </defs>
      <use xlink:href="#DejaVuSans-50"/>
      <use xlink:href="#DejaVuSans-72" transform="translate(58.552734 0)"/>
      <use xlink:href="#DejaVuSans-6f" transform="translate(97.416016 0)"/>
      <use xlink:href="#DejaVuSans-66" transform="translate(158.597656 0)"/>
      <use xlink:href="#DejaVuSans-69" transform="translate(193.802734 0)"/>
      <use xlink:href="#DejaVuSans-74" transform="translate(221.585938 0)"/>
     </g>
    </g>
   </g>
   <g id="line2d_16">
    <path d="M 52.193327 248.041422 
L 54.83998 248.031095 
L 57.486633 243.416571 
L 60.133287 238.309524 
L 62.77994 233.486057 
L 65.426593 229.644736 
L 70.7199 222.646148 
L 73.366553 219.498144 
L 76.013207 217.361551 
L 81.306513 212.043044 
L 86.59982 208.028213 
L 89.246473 206.297534 
L 91.893127 204.381566 
L 94.53978 202.698364 
L 99.833087 199.888528 
L 102.47974 198.662853 
L 105.126393 197.811264 
L 110.4197 195.279785 
L 126.29962 189.70689 
L 128.946273 189.060785 
L 134.23958 187.556995 
L 139.532887 186.810566 
L 144.826193 185.138707 
L 147.472847 184.660936 
L 150.1195 184.432766 
L 152.766153 184.027335 
L 155.412807 183.212 
L 160.706113 182.281032 
L 163.352767 181.989179 
L 165.99942 181.551654 
L 168.646073 180.959798 
L 171.292727 180.756708 
L 181.87934 178.452119 
L 189.8193 177.423511 
L 197.75926 176.444751 
L 200.405913 176.124722 
L 203.052567 175.636334 
L 210.992527 174.453032 
L 213.63918 174.302982 
L 216.285833 174.288374 
L 224.225793 173.399393 
L 226.872447 172.950645 
L 229.5191 172.709994 
L 232.165753 172.947187 
L 234.812407 172.861762 
L 237.45906 172.372043 
L 240.105713 172.363675 
L 242.752367 172.207892 
L 245.39902 171.595962 
L 253.33898 170.734649 
L 261.27894 169.989986 
L 263.925593 169.562329 
L 266.572247 169.269557 
L 271.865553 168.980655 
L 274.512207 168.585697 
L 277.15886 167.983828 
L 279.805513 167.856126 
L 282.452167 167.56853 
L 287.745473 167.35071 
L 290.392127 167.070685 
L 295.685433 166.894901 
L 298.332087 166.879131 
L 300.97874 166.541736 
L 306.272047 166.22294 
L 311.565353 166.171303 
L 327.445273 165.077756 
L 330.091927 165.121049 
L 332.73858 164.924103 
L 338.031887 165.062785 
L 345.971847 164.704397 
L 351.265153 164.239638 
L 356.55846 163.893488 
L 359.205113 163.828911 
L 361.851767 163.58277 
L 367.145073 163.505157 
L 372.43838 162.978216 
L 383.024993 162.597407 
L 385.671647 162.211326 
L 393.611607 162.15253 
L 396.25826 162.1118 
L 398.904913 161.908227 
L 401.551567 161.820141 
L 406.844873 161.479554 
L 409.491527 161.582272 
L 414.784833 161.421386 
L 417.431487 161.080073 
L 420.07814 161.100438 
L 422.724793 160.876112 
L 425.371447 160.831175 
L 428.0181 160.576278 
L 430.664753 160.93457 
L 438.604713 160.51961 
L 446.544673 160.251097 
L 449.191327 160.25637 
L 451.83798 159.939315 
L 454.484633 159.781332 
L 457.131287 159.751196 
L 462.424593 159.278142 
L 475.65786 158.719662 
L 478.304513 158.552223 
L 480.951167 158.54874 
L 486.244473 158.113125 
L 491.53778 158.06202 
L 496.831087 157.936156 
L 499.47774 158.117261 
L 502.124393 157.968928 
L 504.771047 158.012923 
L 512.711007 157.552252 
L 515.35766 157.665587 
L 518.004313 157.585628 
L 520.650967 157.340189 
L 539.17754 156.561592 
L 544.470847 156.575934 
L 557.704113 156.056709 
L 562.99742 155.901822 
L 565.644073 155.942962 
L 576.230687 155.480066 
L 578.87734 155.457887 
L 581.523993 155.614419 
L 584.170647 155.62777 
L 589.463953 155.257071 
L 597.403913 154.627436 
L 602.69722 154.477241 
L 605.343873 154.608498 
L 613.283833 154.076067 
L 631.810407 154.237364 
L 647.690327 153.546272 
L 652.983633 153.535171 
L 655.630287 153.683262 
L 658.27694 153.596192 
L 676.803513 153.750499 
L 682.09682 153.514129 
L 684.743473 153.438258 
L 690.03678 153.562404 
L 692.683433 153.402898 
L 700.623393 153.391966 
L 708.563353 153.198042 
L 711.210007 152.975531 
L 719.149967 153.099678 
L 721.79662 152.887518 
L 732.383233 153.08149 
L 735.029887 152.909237 
L 737.67654 152.946919 
L 750.909807 152.415141 
L 756.203113 152.503734 
L 758.849767 152.26792 
L 761.49642 152.289881 
L 777.37634 151.537696 
L 780.022993 151.327205 
L 790.609607 151.356567 
L 793.25626 151.084885 
L 795.902913 151.044543 
L 801.19622 150.762921 
L 806.489527 150.663686 
L 809.13618 150.744685 
L 811.782833 150.485894 
L 814.429487 150.518231 
L 817.07614 150.727367 
L 825.0161 150.623875 
L 827.662753 150.451695 
L 835.602713 150.467924 
L 843.542673 150.486088 
L 843.542673 150.486088 
" clip-path="url(#p936605faae)" style="fill: none; stroke: #0000ff; stroke-width: 1.5; stroke-linecap: square"/>
   </g>
   <g id="patch_3">
    <path d="M 50.87 390.04 
L 50.87 43.44 
" style="fill: none; stroke: #000000; stroke-width: 0.8; stroke-linejoin: miter; stroke-linecap: square"/>
   </g>
   <g id="patch_4">
    <path d="M 844.866 390.04 
L 844.866 43.44 
" style="fill: none; stroke: #000000; stroke-width: 0.8; stroke-linejoin: miter; stroke-linecap: square"/>
   </g>
   <g id="patch_5">
    <path d="M 50.87 390.04 
L 844.866 390.04 
" style="fill: none; stroke: #000000; stroke-width: 0.8; stroke-linejoin: miter; stroke-linecap: square"/>
   </g>
   <g id="patch_6">
    <path d="M 50.87 43.44 
L 844.866 43.44 
" style="fill: none; stroke: #000000; stroke-width: 0.8; stroke-linejoin: miter; stroke-linecap: square"/>
   </g>
   <g id="text_18">
    <!-- Mean profit per step with confidence interval per simulation step -->
    <g transform="translate(220.284875 21.763062) scale(0.14 -0.14)">
     <defs>
      <path id="DejaVuSans-4d" d="M 628 4666 
L 1569 4666 
L 2759 1491 
L 3956 4666 
L 4897 4666 
L 4897 0 
L 4281 0 
L 4281 4097 
L 3078 897 
L 2444 897 
L 1241 4097 
L 1241 0 
L 628 0 
L 628 4666 
z
" transform="scale(0.015625)"/>
      <path id="DejaVuSans-61" d="M 2194 1759 
Q 1497 1759 1228 1600 
Q 959 1441 959 1056 
Q 959 750 1161 570 
Q 1363 391 1709 391 
Q 2188 391 2477 730 
Q 2766 1069 2766 1631 
L 2766 1759 
L 2194 1759 
z
M 3341 1997 
L 3341 0 
L 2766 0 
L 2766 531 
Q 2569 213 2275 61 
Q 1981 -91 1556 -91 
Q 1019 -91 701 211 
Q 384 513 384 1019 
Q 384 1609 779 1909 
Q 1175 2209 1959 2209 
L 2766 2209 
L 2766 2266 
Q 2766 2663 2505 2880 
Q 2244 3097 1772 3097 
Q 1472 3097 1187 3025 
Q 903 2953 641 2809 
L 641 3341 
Q 956 3463 1253 3523 
Q 1550 3584 1831 3584 
Q 2591 3584 2966 3190 
Q 3341 2797 3341 1997 
z
" transform="scale(0.015625)"/>
      <path id="DejaVuSans-6e" d="M 3513 2113 
L 3513 0 
L 2938 0 
L 2938 2094 
Q 2938 2591 2744 2837 
Q 2550 3084 2163 3084 
Q 1697 3084 1428 2787 
Q 1159 2491 1159 1978 
L 1159 0 
L 581 0 
L 581 3500 
L 1159 3500 
L 1159 2956 
Q 1366 3272 1645 3428 
Q 1925 3584 2291 3584 
Q 2894 3584 3203 3211 
Q 3513 2838 3513 2113 
z
" transform="scale(0.015625)"/>
      <path id="DejaVuSans-20" transform="scale(0.015625)"/>
      <path id="DejaVuSans-73" d="M 2834 3397 
L 2834 2853 
Q 2591 2978 2328 3040 
Q 2066 3103 1784 3103 
Q 1356 3103 1142 2972 
Q 928 2841 928 2578 
Q 928 2378 1081 2264 
Q 1234 2150 1697 2047 
L 1894 2003 
Q 2506 1872 2764 1633 
Q 3022 1394 3022 966 
Q 3022 478 2636 193 
Q 2250 -91 1575 -91 
Q 1294 -91 989 -36 
Q 684 19 347 128 
L 347 722 
Q 666 556 975 473 
Q 1284 391 1588 391 
Q 1994 391 2212 530 
Q 2431 669 2431 922 
Q 2431 1156 2273 1281 
Q 2116 1406 1581 1522 
L 1381 1569 
Q 847 1681 609 1914 
Q 372 2147 372 2553 
Q 372 3047 722 3315 
Q 1072 3584 1716 3584 
Q 2034 3584 2315 3537 
Q 2597 3491 2834 3397 
z
" transform="scale(0.015625)"/>
      <path id="DejaVuSans-77" d="M 269 3500 
L 844 3500 
L 1563 769 
L 2278 3500 
L 2956 3500 
L 3675 769 
L 4391 3500 
L 4966 3500 
L 4050 0 
L 3372 0 
L 2619 2869 
L 1863 0 
L 1184 0 
L 269 3500 
z
" transform="scale(0.015625)"/>
      <path id="DejaVuSans-68" d="M 3513 2113 
L 3513 0 
L 2938 0 
L 2938 2094 
Q 2938 2591 2744 2837 
Q 2550 3084 2163 3084 
Q 1697 3084 1428 2787 
Q 1159 2491 1159 1978 
L 1159 0 
L 581 0 
L 581 4863 
L 1159 4863 
L 1159 2956 
Q 1366 3272 1645 3428 
Q 1925 3584 2291 3584 
Q 2894 3584 3203 3211 
Q 3513 2838 3513 2113 
z
" transform="scale(0.015625)"/>
      <path id="DejaVuSans-63" d="M 3122 3366 
L 3122 2828 
Q 2878 2963 2633 3030 
Q 2388 3097 2138 3097 
Q 1578 3097 1268 2742 
Q 959 2388 959 1747 
Q 959 1106 1268 751 
Q 1578 397 2138 397 
Q 2388 397 2633 464 
Q 2878 531 3122 666 
L 3122 134 
Q 2881 22 2623 -34 
Q 2366 -91 2075 -91 
Q 1284 -91 818 406 
Q 353 903 353 1747 
Q 353 2603 823 3093 
Q 1294 3584 2113 3584 
Q 2378 3584 2631 3529 
Q 2884 3475 3122 3366 
z
" transform="scale(0.015625)"/>
      <path id="DejaVuSans-64" d="M 2906 2969 
L 2906 4863 
L 3481 4863 
L 3481 0 
L 2906 0 
L 2906 525 
Q 2725 213 2448 61 
Q 2172 -91 1784 -91 
Q 1150 -91 751 415 
Q 353 922 353 1747 
Q 353 2572 751 3078 
Q 1150 3584 1784 3584 
Q 2172 3584 2448 3432 
Q 2725 3281 2906 2969 
z
M 947 1747 
Q 947 1113 1208 752 
Q 1469 391 1925 391 
Q 2381 391 2643 752 
Q 2906 1113 2906 1747 
Q 2906 2381 2643 2742 
Q 2381 3103 1925 3103 
Q 1469 3103 1208 2742 
Q 947 2381 947 1747 
z
" transform="scale(0.015625)"/>
      <path id="DejaVuSans-76" d="M 191 3500 
L 800 3500 
L 1894 563 
L 2988 3500 
L 3597 3500 
L 2284 0 
L 1503 0 
L 191 3500 
z
" transform="scale(0.015625)"/>
      <path id="DejaVuSans-6c" d="M 603 4863 
L 1178 4863 
L 1178 0 
L 603 0 
L 603 4863 
z
" transform="scale(0.015625)"/>
      <path id="DejaVuSans-6d" d="M 3328 2828 
Q 3544 3216 3844 3400 
Q 4144 3584 4550 3584 
Q 5097 3584 5394 3201 
Q 5691 2819 5691 2113 
L 5691 0 
L 5113 0 
L 5113 2094 
Q 5113 2597 4934 2840 
Q 4756 3084 4391 3084 
Q 3944 3084 3684 2787 
Q 3425 2491 3425 1978 
L 3425 0 
L 2847 0 
L 2847 2094 
Q 2847 2600 2669 2842 
Q 2491 3084 2119 3084 
Q 1678 3084 1418 2786 
Q 1159 2488 1159 1978 
L 1159 0 
L 581 0 
L 581 3500 
L 1159 3500 
L 1159 2956 
Q 1356 3278 1631 3431 
Q 1906 3584 2284 3584 
Q 2666 3584 2933 3390 
Q 3200 3197 3328 2828 
z
" transform="scale(0.015625)"/>
      <path id="DejaVuSans-75" d="M 544 1381 
L 544 3500 
L 1119 3500 
L 1119 1403 
Q 1119 906 1312 657 
Q 1506 409 1894 409 
Q 2359 409 2629 706 
Q 2900 1003 2900 1516 
L 2900 3500 
L 3475 3500 
L 3475 0 
L 2900 0 
L 2900 538 
Q 2691 219 2414 64 
Q 2138 -91 1772 -91 
Q 1169 -91 856 284 
Q 544 659 544 1381 
z
M 1991 3584 
L 1991 3584 
z
" transform="scale(0.015625)"/>
     </defs>
     <use xlink:href="#DejaVuSans-4d"/>
     <use xlink:href="#DejaVuSans-65" transform="translate(86.279297 0)"/>
     <use xlink:href="#DejaVuSans-61" transform="translate(147.802734 0)"/>
     <use xlink:href="#DejaVuSans-6e" transform="translate(209.082031 0)"/>
     <use xlink:href="#DejaVuSans-20" transform="translate(272.460938 0)"/>
     <use xlink:href="#DejaVuSans-70" transform="translate(304.248047 0)"/>
     <use xlink:href="#DejaVuSans-72" transform="translate(367.724609 0)"/>
     <use xlink:href="#DejaVuSans-6f" transform="translate(406.587891 0)"/>
     <use xlink:href="#DejaVuSans-66" transform="translate(467.769531 0)"/>
     <use xlink:href="#DejaVuSans-69" transform="translate(502.974609 0)"/>
     <use xlink:href="#DejaVuSans-74" transform="translate(530.757812 0)"/>
     <use xlink:href="#DejaVuSans-20" transform="translate(569.966797 0)"/>
     <use xlink:href="#DejaVuSans-70" transform="translate(601.753906 0)"/>
     <use xlink:href="#DejaVuSans-65" transform="translate(665.230469 0)"/>
     <use xlink:href="#DejaVuSans-72" transform="translate(726.753906 0)"/>
     <use xlink:href="#DejaVuSans-20" transform="translate(767.867188 0)"/>
     <use xlink:href="#DejaVuSans-73" transform="translate(799.654297 0)"/>
     <use xlink:href="#DejaVuSans-74" transform="translate(851.753906 0)"/>
     <use xlink:href="#DejaVuSans-65" transform="translate(890.962891 0)"/>
     <use xlink:href="#DejaVuSans-70" transform="translate(952.486328 0)"/>
     <use xlink:href="#DejaVuSans-20" transform="translate(1015.962891 0)"/>
     <use xlink:href="#DejaVuSans-77" transform="translate(1047.75 0)"/>
     <use xlink:href="#DejaVuSans-69" transform="translate(1129.537109 0)"/>
     <use xlink:href="#DejaVuSans-74" transform="translate(1157.320312 0)"/>
     <use xlink:href="#DejaVuSans-68" transform="translate(1196.529297 0)"/>
     <use xlink:href="#DejaVuSans-20" transform="translate(1259.908203 0)"/>
     <use xlink:href="#DejaVuSans-63" transform="translate(1291.695312 0)"/>
     <use xlink:href="#DejaVuSans-6f" transform="translate(1346.675781 0)"/>
     <use xlink:href="#DejaVuSans-6e" transform="translate(1407.857422 0)"/>
     <use xlink:href="#DejaVuSans-66" transform="translate(1471.236328 0)"/>
     <use xlink:href="#DejaVuSans-69" transform="translate(1506.441406 0)"/>
     <use xlink:href="#DejaVuSans-64" transform="translate(1534.224609 0)"/>
     <use xlink:href="#DejaVuSans-65" transform="translate(1597.701172 0)"/>
     <use xlink:href="#DejaVuSans-6e" transform="translate(1659.224609 0)"/>
     <use xlink:href="#DejaVuSans-63" transform="translate(1722.603516 0)"/>
     <use xlink:href="#DejaVuSans-65" transform="translate(1777.583984 0)"/>
     <use xlink:href="#DejaVuSans-20" transform="translate(1839.107422 0)"/>
     <use xlink:href="#DejaVuSans-69" transform="translate(1870.894531 0)"/>
     <use xlink:href="#DejaVuSans-6e" transform="translate(1898.677734 0)"/>
     <use xlink:href="#DejaVuSans-74" transform="translate(1962.056641 0)"/>
     <use xlink:href="#DejaVuSans-65" transform="translate(2001.265625 0)"/>
     <use xlink:href="#DejaVuSans-72" transform="translate(2062.789062 0)"/>
     <use xlink:href="#DejaVuSans-76" transform="translate(2103.902344 0)"/>
     <use xlink:href="#DejaVuSans-61" transform="translate(2163.082031 0)"/>
     <use xlink:href="#DejaVuSans-6c" transform="translate(2224.361328 0)"/>
     <use xlink:href="#DejaVuSans-20" transform="translate(2252.144531 0)"/>
     <use xlink:href="#DejaVuSans-70" transform="translate(2283.931641 0)"/>
     <use xlink:href="#DejaVuSans-65" transform="translate(2347.408203 0)"/>
     <use xlink:href="#DejaVuSans-72" transform="translate(2408.931641 0)"/>
     <use xlink:href="#DejaVuSans-20" transform="translate(2450.044922 0)"/>
     <use xlink:href="#DejaVuSans-73" transform="translate(2481.832031 0)"/>
     <use xlink:href="#DejaVuSans-69" transform="translate(2533.931641 0)"/>
     <use xlink:href="#DejaVuSans-6d" transform="translate(2561.714844 0)"/>
     <use xlink:href="#DejaVuSans-75" transform="translate(2659.126953 0)"/>
     <use xlink:href="#DejaVuSans-6c" transform="translate(2722.505859 0)"/>
     <use xlink:href="#DejaVuSans-61" transform="translate(2750.289062 0)"/>
     <use xlink:href="#DejaVuSans-74" transform="translate(2811.568359 0)"/>
     <use xlink:href="#DejaVuSans-69" transform="translate(2850.777344 0)"/>
     <use xlink:href="#DejaVuSans-6f" transform="translate(2878.560547 0)"/>
     <use xlink:href="#DejaVuSans-6e" transform="translate(2939.742188 0)"/>
     <use xlink:href="#DejaVuSans-20" transform="translate(3003.121094 0)"/>
     <use xlink:href="#DejaVuSans-73" transform="translate(3034.908203 0)"/>
     <use xlink:href="#DejaVuSans-74" transform="translate(3087.007812 0)"/>
     <use xlink:href="#DejaVuSans-65" transform="translate(3126.216797 0)"/>
     <use xlink:href="#DejaVuSans-70" transform="translate(3187.740234 0)"/>
    </g>
    <!-- Base Product: Meth, Recipe size: 7, T0: 50.0 -->
    <g transform="translate(293.881125 37.44) scale(0.14 -0.14)">
     <defs>
      <path id="DejaVuSans-42" d="M 1259 2228 
L 1259 519 
L 2272 519 
Q 2781 519 3026 730 
Q 3272 941 3272 1375 
Q 3272 1813 3026 2020 
Q 2781 2228 2272 2228 
L 1259 2228 
z
M 1259 4147 
L 1259 2741 
L 2194 2741 
Q 2656 2741 2882 2914 
Q 3109 3088 3109 3444 
Q 3109 3797 2882 3972 
Q 2656 4147 2194 4147 
L 1259 4147 
z
M 628 4666 
L 2241 4666 
Q 2963 4666 3353 4366 
Q 3744 4066 3744 3513 
Q 3744 3084 3544 2831 
Q 3344 2578 2956 2516 
Q 3422 2416 3680 2098 
Q 3938 1781 3938 1306 
Q 3938 681 3513 340 
Q 3088 0 2303 0 
L 628 0 
L 628 4666 
z
" transform="scale(0.015625)"/>
      <path id="DejaVuSans-3a" d="M 750 794 
L 1409 794 
L 1409 0 
L 750 0 
L 750 794 
z
M 750 3309 
L 1409 3309 
L 1409 2516 
L 750 2516 
L 750 3309 
z
" transform="scale(0.015625)"/>
      <path id="DejaVuSans-2c" d="M 750 794 
L 1409 794 
L 1409 256 
L 897 -744 
L 494 -744 
L 750 256 
L 750 794 
z
" transform="scale(0.015625)"/>
      <path id="DejaVuSans-52" d="M 2841 2188 
Q 3044 2119 3236 1894 
Q 3428 1669 3622 1275 
L 4263 0 
L 3584 0 
L 2988 1197 
Q 2756 1666 2539 1819 
Q 2322 1972 1947 1972 
L 1259 1972 
L 1259 0 
L 628 0 
L 628 4666 
L 2053 4666 
Q 2853 4666 3247 4331 
Q 3641 3997 3641 3322 
Q 3641 2881 3436 2590 
Q 3231 2300 2841 2188 
z
M 1259 4147 
L 1259 2491 
L 2053 2491 
Q 2509 2491 2742 2702 
Q 2975 2913 2975 3322 
Q 2975 3731 2742 3939 
Q 2509 4147 2053 4147 
L 1259 4147 
z
" transform="scale(0.015625)"/>
      <path id="DejaVuSans-7a" d="M 353 3500 
L 3084 3500 
L 3084 2975 
L 922 459 
L 3084 459 
L 3084 0 
L 275 0 
L 275 525 
L 2438 3041 
L 353 3041 
L 353 3500 
z
" transform="scale(0.015625)"/>
      <path id="DejaVuSans-54" d="M -19 4666 
L 3928 4666 
L 3928 4134 
L 2272 4134 
L 2272 0 
L 1638 0 
L 1638 4134 
L -19 4134 
L -19 4666 
z
" transform="scale(0.015625)"/>
      <path id="DejaVuSans-2e" d="M 684 794 
L 1344 794 
L 1344 0 
L 684 0 
L 684 794 
z
" transform="scale(0.015625)"/>
     </defs>
     <use xlink:href="#DejaVuSans-42"/>
     <use xlink:href="#DejaVuSans-61" transform="translate(68.603516 0)"/>
     <use xlink:href="#DejaVuSans-73" transform="translate(129.882812 0)"/>
     <use xlink:href="#DejaVuSans-65" transform="translate(181.982422 0)"/>
     <use xlink:href="#DejaVuSans-20" transform="translate(243.505859 0)"/>
     <use xlink:href="#DejaVuSans-50" transform="translate(275.292969 0)"/>
     <use xlink:href="#DejaVuSans-72" transform="translate(333.845703 0)"/>
     <use xlink:href="#DejaVuSans-6f" transform="translate(372.708984 0)"/>
     <use xlink:href="#DejaVuSans-64" transform="translate(433.890625 0)"/>
     <use xlink:href="#DejaVuSans-75" transform="translate(497.367188 0)"/>
     <use xlink:href="#DejaVuSans-63" transform="translate(560.746094 0)"/>
     <use xlink:href="#DejaVuSans-74" transform="translate(615.726562 0)"/>
     <use xlink:href="#DejaVuSans-3a" transform="translate(654.935547 0)"/>
     <use xlink:href="#DejaVuSans-20" transform="translate(688.626953 0)"/>
     <use xlink:href="#DejaVuSans-4d" transform="translate(720.414062 0)"/>
     <use xlink:href="#DejaVuSans-65" transform="translate(806.693359 0)"/>
     <use xlink:href="#DejaVuSans-74" transform="translate(868.216797 0)"/>
     <use xlink:href="#DejaVuSans-68" transform="translate(907.425781 0)"/>
     <use xlink:href="#DejaVuSans-2c" transform="translate(970.804688 0)"/>
     <use xlink:href="#DejaVuSans-20" transform="translate(1002.591797 0)"/>
     <use xlink:href="#DejaVuSans-52" transform="translate(1034.378906 0)"/>
     <use xlink:href="#DejaVuSans-65" transform="translate(1099.361328 0)"/>
     <use xlink:href="#DejaVuSans-63" transform="translate(1160.884766 0)"/>
     <use xlink:href="#DejaVuSans-69" transform="translate(1215.865234 0)"/>
     <use xlink:href="#DejaVuSans-70" transform="translate(1243.648438 0)"/>
     <use xlink:href="#DejaVuSans-65" transform="translate(1307.125 0)"/>
     <use xlink:href="#DejaVuSans-20" transform="translate(1368.648438 0)"/>
     <use xlink:href="#DejaVuSans-73" transform="translate(1400.435547 0)"/>
     <use xlink:href="#DejaVuSans-69" transform="translate(1452.535156 0)"/>
     <use xlink:href="#DejaVuSans-7a" transform="translate(1480.318359 0)"/>
     <use xlink:href="#DejaVuSans-65" transform="translate(1532.808594 0)"/>
     <use xlink:href="#DejaVuSans-3a" transform="translate(1594.332031 0)"/>
     <use xlink:href="#DejaVuSans-20" transform="translate(1628.023438 0)"/>
     <use xlink:href="#DejaVuSans-37" transform="translate(1659.810547 0)"/>
     <use xlink:href="#DejaVuSans-2c" transform="translate(1723.433594 0)"/>
     <use xlink:href="#DejaVuSans-20" transform="translate(1755.220703 0)"/>
     <use xlink:href="#DejaVuSans-54" transform="translate(1787.007812 0)"/>
     <use xlink:href="#DejaVuSans-30" transform="translate(1848.091797 0)"/>
     <use xlink:href="#DejaVuSans-3a" transform="translate(1911.714844 0)"/>
     <use xlink:href="#DejaVuSans-20" transform="translate(1945.40625 0)"/>
     <use xlink:href="#DejaVuSans-35" transform="translate(1977.193359 0)"/>
     <use xlink:href="#DejaVuSans-30" transform="translate(2040.816406 0)"/>
     <use xlink:href="#DejaVuSans-2e" transform="translate(2104.439453 0)"/>
     <use xlink:href="#DejaVuSans-30" transform="translate(2136.226562 0)"/>
    </g>
   </g>
  </g>
 </g>
 <defs>
  <clipPath id="p936605faae">
   <rect x="50.87" y="43.44" width="793.996" height="346.6"/>
  </clipPath>
 </defs>
</svg>
