<?xml version="1.0" encoding="utf-8" standalone="no"?>
<!DOCTYPE svg PUBLIC "-//W3C//DTD SVG 1.1//EN"
  "http://www.w3.org/Graphics/SVG/1.1/DTD/svg11.dtd">
<svg xmlns:xlink="http://www.w3.org/1999/xlink" width="864pt" height="432pt" viewBox="0 0 864 432" xmlns="http://www.w3.org/2000/svg" version="1.1">
 <metadata>
  <rdf:RDF xmlns:dc="http://purl.org/dc/elements/1.1/" xmlns:cc="http://creativecommons.org/ns#" xmlns:rdf="http://www.w3.org/1999/02/22-rdf-syntax-ns#">
   <cc:Work>
    <dc:type rdf:resource="http://purl.org/dc/dcmitype/StillImage"/>
    <dc:date>2025-05-24T02:16:42.047801</dc:date>
    <dc:format>image/svg+xml</dc:format>
    <dc:creator>
     <cc:Agent>
      <dc:title>Matplotlib v3.10.3, https://matplotlib.org/</dc:title>
     </cc:Agent>
    </dc:creator>
   </cc:Work>
  </rdf:RDF>
 </metadata>
 <defs>
  <style type="text/css">*{stroke-linejoin: round; stroke-linecap: butt}</style>
 </defs>
 <g id="figure_1">
  <g id="patch_1">
   <path d="M 0 432 
L 864 432 
L 864 0 
L 0 0 
z
" style="fill: #ffffff"/>
  </g>
  <g id="axes_1">
   <g id="patch_2">
    <path d="M 50.87 390.04 
L 844.866 390.04 
L 844.866 43.44 
L 50.87 43.44 
z
" style="fill: #ffffff"/>
   </g>
   <g id="FillBetweenPolyCollection_1">
    <defs>
     <path id="m310ee4df67" d="M 52.193327 -314.828408 
L 52.193327 -57.714545 
L 54.83998 -60.051213 
L 57.486633 -79.265893 
L 60.133287 -95.29913 
L 62.77994 -109.538788 
L 65.426593 -121.278842 
L 68.073247 -131.995315 
L 70.7199 -141.333867 
L 73.366553 -149.770879 
L 76.013207 -156.773353 
L 78.65986 -163.811382 
L 81.306513 -169.546166 
L 83.953167 -174.735672 
L 86.59982 -180.108536 
L 89.246473 -184.484566 
L 91.893127 -188.375403 
L 94.53978 -192.237255 
L 97.186433 -195.534539 
L 99.833087 -198.873332 
L 102.47974 -201.743713 
L 105.126393 -204.428817 
L 107.773047 -207.205501 
L 110.4197 -209.682026 
L 113.066353 -211.740137 
L 115.713007 -213.623722 
L 118.35966 -215.400324 
L 121.006313 -217.31009 
L 123.652967 -218.834635 
L 126.29962 -220.668001 
L 128.946273 -222.10815 
L 131.592927 -223.674745 
L 134.23958 -225.334152 
L 136.886233 -226.641776 
L 139.532887 -227.855507 
L 142.17954 -228.984078 
L 144.826193 -230.196185 
L 147.472847 -231.261349 
L 150.1195 -232.299103 
L 152.766153 -233.513621 
L 155.412807 -234.629422 
L 158.05946 -235.602808 
L 160.706113 -236.444556 
L 163.352767 -237.29526 
L 165.99942 -238.131939 
L 168.646073 -239.236176 
L 171.292727 -240.192116 
L 173.93938 -240.938371 
L 176.586033 -241.703842 
L 179.232687 -242.341907 
L 181.87934 -243.057823 
L 184.525993 -243.878631 
L 187.172647 -244.531238 
L 189.8193 -245.223484 
L 192.465953 -245.904731 
L 195.112607 -246.537801 
L 197.75926 -246.917559 
L 200.405913 -247.516994 
L 203.052567 -248.112959 
L 205.69922 -248.844376 
L 208.345873 -249.368125 
L 210.992527 -249.929544 
L 213.63918 -250.513281 
L 216.285833 -251.19037 
L 218.932487 -251.747803 
L 221.57914 -252.390051 
L 224.225793 -252.844978 
L 226.872447 -253.322026 
L 229.5191 -253.685323 
L 232.165753 -254.124774 
L 234.812407 -254.622367 
L 237.45906 -255.033473 
L 240.105713 -255.460326 
L 242.752367 -255.854257 
L 245.39902 -256.291567 
L 248.045673 -256.748733 
L 250.692327 -257.169607 
L 253.33898 -257.742763 
L 255.985633 -258.147127 
L 258.632287 -258.618171 
L 261.27894 -258.938532 
L 263.925593 -259.292972 
L 266.572247 -259.653981 
L 269.2189 -260.001605 
L 271.865553 -260.341035 
L 274.512207 -260.696089 
L 277.15886 -261.034142 
L 279.805513 -261.295425 
L 282.452167 -261.675528 
L 285.09882 -261.908565 
L 287.745473 -262.230157 
L 290.392127 -262.537797 
L 293.03878 -262.903038 
L 295.685433 -263.257674 
L 298.332087 -263.498979 
L 300.97874 -263.773992 
L 303.625393 -264.055231 
L 306.272047 -264.362625 
L 308.9187 -264.700751 
L 311.565353 -264.963782 
L 314.212007 -265.186583 
L 316.85866 -265.426927 
L 319.505313 -265.754055 
L 322.151967 -266.030323 
L 324.79862 -266.227117 
L 327.445273 -266.47034 
L 330.091927 -266.818628 
L 332.73858 -267.128729 
L 335.385233 -267.38647 
L 338.031887 -267.606441 
L 340.67854 -267.786946 
L 343.325193 -268.024067 
L 345.971847 -268.211141 
L 348.6185 -268.479905 
L 351.265153 -268.705732 
L 353.911807 -268.865003 
L 356.55846 -269.073853 
L 359.205113 -269.349457 
L 361.851767 -269.619352 
L 364.49842 -269.810732 
L 367.145073 -270.00413 
L 369.791727 -270.205648 
L 372.43838 -270.40906 
L 375.085033 -270.677873 
L 377.731687 -270.768617 
L 380.37834 -270.911131 
L 383.024993 -271.094022 
L 385.671647 -271.312197 
L 388.3183 -271.485936 
L 390.964953 -271.646608 
L 393.611607 -271.744513 
L 396.25826 -271.878021 
L 398.904913 -271.991796 
L 401.551567 -272.108696 
L 404.19822 -272.335089 
L 406.844873 -272.471083 
L 409.491527 -272.649988 
L 412.13818 -272.788983 
L 414.784833 -272.917669 
L 417.431487 -273.083165 
L 420.07814 -273.264284 
L 422.724793 -273.376706 
L 425.371447 -273.551354 
L 428.0181 -273.64018 
L 430.664753 -273.828435 
L 433.311407 -273.985244 
L 435.95806 -274.139544 
L 438.604713 -274.287201 
L 441.251367 -274.416698 
L 443.89802 -274.586844 
L 446.544673 -274.799582 
L 449.191327 -274.9808 
L 451.83798 -275.145606 
L 454.484633 -275.29747 
L 457.131287 -275.45396 
L 459.77794 -275.530581 
L 462.424593 -275.649424 
L 465.071247 -275.767604 
L 467.7179 -275.888145 
L 470.364553 -276.022564 
L 473.011207 -276.063778 
L 475.65786 -276.195687 
L 478.304513 -276.315121 
L 480.951167 -276.423261 
L 483.59782 -276.54833 
L 486.244473 -276.650172 
L 488.891127 -276.789241 
L 491.53778 -276.869995 
L 494.184433 -277.046342 
L 496.831087 -277.116983 
L 499.47774 -277.182065 
L 502.124393 -277.269143 
L 504.771047 -277.32603 
L 507.4177 -277.358386 
L 510.064353 -277.432177 
L 512.711007 -277.544058 
L 515.35766 -277.590291 
L 518.004313 -277.663664 
L 520.650967 -277.828274 
L 523.29762 -277.908487 
L 525.944273 -278.034196 
L 528.590927 -278.10469 
L 531.23758 -278.196886 
L 533.884233 -278.285859 
L 536.530887 -278.395205 
L 539.17754 -278.466363 
L 541.824193 -278.531493 
L 544.470847 -278.593474 
L 547.1175 -278.652207 
L 549.764153 -278.764014 
L 552.410807 -278.845876 
L 555.05746 -278.924071 
L 557.704113 -279.020795 
L 560.350767 -279.066167 
L 562.99742 -279.096702 
L 565.644073 -279.200266 
L 568.290727 -279.245121 
L 570.93738 -279.313229 
L 573.584033 -279.372946 
L 576.230687 -279.39204 
L 578.87734 -279.500943 
L 581.523993 -279.573824 
L 584.170647 -279.617227 
L 586.8173 -279.696161 
L 589.463953 -279.766335 
L 592.110607 -279.800955 
L 594.75726 -279.851741 
L 597.403913 -279.929149 
L 600.050567 -279.95555 
L 602.69722 -279.984658 
L 605.343873 -280.017187 
L 607.990527 -280.072278 
L 610.63718 -280.13512 
L 613.283833 -280.172225 
L 615.930487 -280.194197 
L 618.57714 -280.231622 
L 621.223793 -280.346529 
L 623.870447 -280.46771 
L 626.5171 -280.52723 
L 629.163753 -280.552869 
L 631.810407 -280.667136 
L 634.45706 -280.720628 
L 637.103713 -280.759332 
L 639.750367 -280.80901 
L 642.39702 -280.86511 
L 645.043673 -280.946382 
L 647.690327 -280.960603 
L 650.33698 -281.034419 
L 652.983633 -281.065004 
L 655.630287 -281.138106 
L 658.27694 -281.245459 
L 660.923593 -281.329806 
L 663.570247 -281.424438 
L 666.2169 -281.47328 
L 668.863553 -281.518258 
L 671.510207 -281.566411 
L 674.15686 -281.611242 
L 676.803513 -281.655925 
L 679.450167 -281.705135 
L 682.09682 -281.762097 
L 684.743473 -281.817237 
L 687.390127 -281.89718 
L 690.03678 -281.956897 
L 692.683433 -281.999095 
L 695.330087 -282.009232 
L 697.97674 -282.064299 
L 700.623393 -282.122343 
L 703.270047 -282.177754 
L 705.9167 -282.268253 
L 708.563353 -282.340051 
L 711.210007 -282.412858 
L 713.85666 -282.458648 
L 716.503313 -282.523459 
L 719.149967 -282.546096 
L 721.79662 -282.624857 
L 724.443273 -282.651111 
L 727.089927 -282.667301 
L 729.73658 -282.713387 
L 732.383233 -282.749582 
L 735.029887 -282.79424 
L 737.67654 -282.838259 
L 740.323193 -282.915667 
L 742.969847 -282.965518 
L 745.6165 -282.996299 
L 748.263153 -283.033035 
L 750.909807 -283.041253 
L 753.55646 -283.129315 
L 756.203113 -283.145112 
L 758.849767 -283.155741 
L 761.49642 -283.176262 
L 764.143073 -283.221192 
L 766.789727 -283.246929 
L 769.43638 -283.292473 
L 772.083033 -283.350246 
L 774.729687 -283.473322 
L 777.37634 -283.518916 
L 780.022993 -283.592387 
L 782.669647 -283.612933 
L 785.3163 -283.61965 
L 787.962953 -283.644108 
L 790.609607 -283.67858 
L 793.25626 -283.750821 
L 795.902913 -283.791543 
L 798.549567 -283.840802 
L 801.19622 -283.881204 
L 803.842873 -283.896238 
L 806.489527 -283.952584 
L 809.13618 -283.977879 
L 811.782833 -284.011957 
L 814.429487 -284.055484 
L 817.07614 -284.102947 
L 819.722793 -284.183751 
L 822.369447 -284.243419 
L 825.0161 -284.278678 
L 827.662753 -284.323608 
L 830.309407 -284.336993 
L 832.95606 -284.356923 
L 835.602713 -284.394004 
L 838.249367 -284.434159 
L 840.89602 -284.461767 
L 843.542673 -284.497174 
L 843.542673 -372.805455 
L 843.542673 -372.805455 
L 840.89602 -372.774796 
L 838.249367 -372.756392 
L 835.602713 -372.739119 
L 832.95606 -372.736117 
L 830.309407 -372.700193 
L 827.662753 -372.668944 
L 825.0161 -372.662104 
L 822.369447 -372.655805 
L 819.722793 -372.646504 
L 817.07614 -372.648177 
L 814.429487 -372.643552 
L 811.782833 -372.639615 
L 809.13618 -372.627164 
L 806.489527 -372.581103 
L 803.842873 -372.562502 
L 801.19622 -372.547689 
L 798.549567 -372.530958 
L 795.902913 -372.515112 
L 793.25626 -372.522641 
L 790.609607 -372.525102 
L 787.962953 -372.498872 
L 785.3163 -372.449859 
L 782.669647 -372.391495 
L 780.022993 -372.354341 
L 777.37634 -372.362215 
L 774.729687 -372.351979 
L 772.083033 -372.392774 
L 769.43638 -372.379832 
L 766.789727 -372.360886 
L 764.143073 -372.33943 
L 761.49642 -372.303359 
L 758.849767 -372.270634 
L 756.203113 -372.232446 
L 753.55646 -372.187271 
L 750.909807 -372.192536 
L 748.263153 -372.1449 
L 745.6165 -372.13742 
L 742.969847 -372.12064 
L 740.323193 -372.116654 
L 737.67654 -372.111979 
L 735.029887 -372.072512 
L 732.383233 -372.07384 
L 729.73658 -372.040082 
L 727.089927 -371.997859 
L 724.443273 -371.930834 
L 721.79662 -371.896977 
L 719.149967 -371.904507 
L 716.503313 -371.867943 
L 713.85666 -371.869223 
L 711.210007 -371.844863 
L 708.563353 -371.858741 
L 705.9167 -371.845306 
L 703.270047 -371.853967 
L 700.623393 -371.805396 
L 697.97674 -371.812187 
L 695.330087 -371.779512 
L 692.683433 -371.729809 
L 690.03678 -371.708009 
L 687.390127 -371.676415 
L 684.743473 -371.682271 
L 682.09682 -371.633799 
L 679.450167 -371.623366 
L 676.803513 -371.611654 
L 674.15686 -371.579963 
L 671.510207 -371.555456 
L 668.863553 -371.526274 
L 666.2169 -371.503342 
L 663.570247 -371.477309 
L 660.923593 -371.476719 
L 658.27694 -371.46914 
L 655.630287 -371.496403 
L 652.983633 -371.48223 
L 650.33698 -371.445568 
L 647.690327 -371.4218 
L 645.043673 -371.359794 
L 642.39702 -371.347836 
L 639.750367 -371.299314 
L 637.103713 -371.258912 
L 634.45706 -371.203058 
L 631.810407 -371.151584 
L 629.163753 -371.150354 
L 626.5171 -371.092581 
L 623.870447 -371.081902 
L 621.223793 -371.064137 
L 618.57714 -371.092531 
L 615.930487 -371.02403 
L 613.283833 -370.962369 
L 610.63718 -370.900758 
L 607.990527 -370.858633 
L 605.343873 -370.817936 
L 602.69722 -370.729259 
L 600.050567 -370.683345 
L 597.403913 -370.578822 
L 594.75726 -370.527003 
L 592.110607 -370.478383 
L 589.463953 -370.388327 
L 586.8173 -370.349303 
L 584.170647 -370.334786 
L 581.523993 -370.292268 
L 578.87734 -370.251276 
L 576.230687 -370.240548 
L 573.584033 -370.163927 
L 570.93738 -370.109648 
L 568.290727 -370.072051 
L 565.644073 -369.960244 
L 562.99742 -369.94553 
L 560.350767 -369.896074 
L 557.704113 -369.852424 
L 555.05746 -369.832444 
L 552.410807 -369.803853 
L 549.764153 -369.750115 
L 547.1175 -369.738403 
L 544.470847 -369.705382 
L 541.824193 -369.661093 
L 539.17754 -369.646969 
L 536.530887 -369.611193 
L 533.884233 -369.602434 
L 531.23758 -369.558194 
L 528.590927 -369.51853 
L 525.944273 -369.449094 
L 523.29762 -369.465924 
L 520.650967 -369.433789 
L 518.004313 -369.455245 
L 515.35766 -369.404607 
L 512.711007 -369.341421 
L 510.064353 -369.326215 
L 507.4177 -369.28975 
L 504.771047 -369.193789 
L 502.124393 -369.13887 
L 499.47774 -369.066776 
L 496.831087 -369.015499 
L 494.184433 -368.947687 
L 491.53778 -368.940256 
L 488.891127 -368.886518 
L 486.244473 -368.886764 
L 483.59782 -368.810832 
L 480.951167 -368.801531 
L 478.304513 -368.748728 
L 475.65786 -368.68628 
L 473.011207 -368.660838 
L 470.364553 -368.566206 
L 467.7179 -368.546128 
L 465.071247 -368.475117 
L 462.424593 -368.403368 
L 459.77794 -368.353173 
L 457.131287 -368.2611 
L 454.484633 -368.278176 
L 451.83798 -368.223405 
L 449.191327 -368.200866 
L 446.544673 -368.178131 
L 443.89802 -368.176802 
L 441.251367 -368.145258 
L 438.604713 -368.108498 
L 435.95806 -368.068293 
L 433.311407 -368.030056 
L 430.664753 -367.968445 
L 428.0181 -367.969429 
L 425.371447 -367.849109 
L 422.724793 -367.840005 
L 420.07814 -367.767714 
L 417.431487 -367.750195 
L 414.784833 -367.751623 
L 412.13818 -367.656351 
L 409.491527 -367.576187 
L 406.844873 -367.550351 
L 404.19822 -367.475403 
L 401.551567 -367.505963 
L 398.904913 -367.447501 
L 396.25826 -367.366845 
L 393.611607 -367.248346 
L 390.964953 -367.120349 
L 388.3183 -367.059672 
L 385.671647 -367.005786 
L 383.024993 -366.993435 
L 380.37834 -366.947078 
L 377.731687 -366.871737 
L 375.085033 -366.766869 
L 372.43838 -366.806434 
L 369.791727 -366.81731 
L 367.145073 -366.808255 
L 364.49842 -366.745069 
L 361.851767 -366.694972 
L 359.205113 -366.721644 
L 356.55846 -366.729961 
L 353.911807 -366.61968 
L 351.265153 -366.533118 
L 348.6185 -366.51683 
L 345.971847 -366.500984 
L 343.325193 -366.384552 
L 340.67854 -366.303699 
L 338.031887 -366.197108 
L 335.385233 -366.111088 
L 332.73858 -366.109267 
L 330.091927 -366.102624 
L 327.445273 -366.11911 
L 324.79862 -366.026446 
L 322.151967 -365.922612 
L 319.505313 -365.837034 
L 316.85866 -365.805195 
L 314.212007 -365.745306 
L 311.565353 -365.701065 
L 308.9187 -365.624494 
L 306.272047 -365.608156 
L 303.625393 -365.530058 
L 300.97874 -365.438477 
L 298.332087 -365.258711 
L 295.685433 -365.106749 
L 293.03878 -365.061918 
L 290.392127 -365.075894 
L 287.745473 -365.032539 
L 285.09882 -364.91778 
L 282.452167 -364.742541 
L 279.805513 -364.658391 
L 277.15886 -364.492207 
L 274.512207 -364.364554 
L 271.865553 -364.256881 
L 269.2189 -364.07057 
L 266.572247 -363.946805 
L 263.925593 -363.873334 
L 261.27894 -363.81684 
L 258.632287 -363.6822 
L 255.985633 -363.636581 
L 253.33898 -363.492936 
L 250.692327 -363.559026 
L 248.045673 -363.464984 
L 245.39902 -363.437328 
L 242.752367 -363.384722 
L 240.105713 -363.254018 
L 237.45906 -363.133501 
L 234.812407 -363.003585 
L 232.165753 -362.904229 
L 229.5191 -362.785041 
L 226.872447 -362.640362 
L 224.225793 -362.505377 
L 221.57914 -362.333878 
L 218.932487 -362.272266 
L 216.285833 -362.145943 
L 213.63918 -362.084233 
L 210.992527 -361.95781 
L 208.345873 -361.814657 
L 205.69922 -361.627706 
L 203.052567 -361.529924 
L 200.405913 -361.283477 
L 197.75926 -361.04141 
L 195.112607 -360.646446 
L 192.465953 -360.48351 
L 189.8193 -360.284157 
L 187.172647 -360.093762 
L 184.525993 -359.858436 
L 181.87934 -359.686987 
L 179.232687 -359.511944 
L 176.586033 -359.148573 
L 173.93938 -358.947941 
L 171.292727 -358.639342 
L 168.646073 -358.526108 
L 165.99942 -358.474437 
L 163.352767 -358.12952 
L 160.706113 -357.915847 
L 158.05946 -357.470786 
L 155.412807 -357.223749 
L 152.766153 -357.06283 
L 150.1195 -356.930798 
L 147.472847 -356.717323 
L 144.826193 -356.322014 
L 142.17954 -356.057507 
L 139.532887 -355.633213 
L 136.886233 -355.176784 
L 134.23958 -354.799486 
L 131.592927 -354.692158 
L 128.946273 -354.519576 
L 126.29962 -354.013052 
L 123.652967 -353.756074 
L 121.006313 -353.214265 
L 118.35966 -352.825452 
L 115.713007 -352.40037 
L 113.066353 -351.727464 
L 110.4197 -351.242543 
L 107.773047 -350.858553 
L 105.126393 -350.747583 
L 102.47974 -350.144359 
L 99.833087 -349.557621 
L 97.186433 -349.308763 
L 94.53978 -348.479244 
L 91.893127 -347.915044 
L 89.246473 -347.250848 
L 86.59982 -346.535646 
L 83.953167 -346.283294 
L 81.306513 -345.096629 
L 78.65986 -344.613356 
L 76.013207 -343.742107 
L 73.366553 -341.75636 
L 70.7199 -340.398098 
L 68.073247 -338.504965 
L 65.426593 -336.282441 
L 62.77994 -332.612929 
L 60.133287 -328.326413 
L 57.486633 -322.359454 
L 54.83998 -314.861921 
L 52.193327 -314.828408 
z
" style="stroke: #0000ff; stroke-opacity: 0.2"/>
    </defs>
    <g clip-path="url(#pdee987f2d6)">
     <use xlink:href="#m310ee4df67" x="0" y="432" style="fill: #0000ff; fill-opacity: 0.2; stroke: #0000ff; stroke-opacity: 0.2"/>
    </g>
   </g>
   <g id="matplotlib.axis_1">
    <g id="xtick_1">
     <g id="line2d_1">
      <defs>
       <path id="md572cd85f2" d="M 0 0 
L 0 3.5 
" style="stroke: #000000; stroke-width: 0.8"/>
      </defs>
      <g>
       <use xlink:href="#md572cd85f2" x="181.87934" y="390.04" style="stroke: #000000; stroke-width: 0.8"/>
      </g>
     </g>
     <g id="text_1">
      <!-- 50 -->
      <g transform="translate(175.51684 404.638438) scale(0.1 -0.1)">
       <defs>
        <path id="DejaVuSans-35" d="M 691 4666 
L 3169 4666 
L 3169 4134 
L 1269 4134 
L 1269 2991 
Q 1406 3038 1543 3061 
Q 1681 3084 1819 3084 
Q 2600 3084 3056 2656 
Q 3513 2228 3513 1497 
Q 3513 744 3044 326 
Q 2575 -91 1722 -91 
Q 1428 -91 1123 -41 
Q 819 9 494 109 
L 494 744 
Q 775 591 1075 516 
Q 1375 441 1709 441 
Q 2250 441 2565 725 
Q 2881 1009 2881 1497 
Q 2881 1984 2565 2268 
Q 2250 2553 1709 2553 
Q 1456 2553 1204 2497 
Q 953 2441 691 2322 
L 691 4666 
z
" transform="scale(0.015625)"/>
        <path id="DejaVuSans-30" d="M 2034 4250 
Q 1547 4250 1301 3770 
Q 1056 3291 1056 2328 
Q 1056 1369 1301 889 
Q 1547 409 2034 409 
Q 2525 409 2770 889 
Q 3016 1369 3016 2328 
Q 3016 3291 2770 3770 
Q 2525 4250 2034 4250 
z
M 2034 4750 
Q 2819 4750 3233 4129 
Q 3647 3509 3647 2328 
Q 3647 1150 3233 529 
Q 2819 -91 2034 -91 
Q 1250 -91 836 529 
Q 422 1150 422 2328 
Q 422 3509 836 4129 
Q 1250 4750 2034 4750 
z
" transform="scale(0.015625)"/>
       </defs>
       <use xlink:href="#DejaVuSans-35"/>
       <use xlink:href="#DejaVuSans-30" transform="translate(63.623047 0)"/>
      </g>
     </g>
    </g>
    <g id="xtick_2">
     <g id="line2d_2">
      <g>
       <use xlink:href="#md572cd85f2" x="314.212007" y="390.04" style="stroke: #000000; stroke-width: 0.8"/>
      </g>
     </g>
     <g id="text_2">
      <!-- 100 -->
      <g transform="translate(304.668257 404.638438) scale(0.1 -0.1)">
       <defs>
        <path id="DejaVuSans-31" d="M 794 531 
L 1825 531 
L 1825 4091 
L 703 3866 
L 703 4441 
L 1819 4666 
L 2450 4666 
L 2450 531 
L 3481 531 
L 3481 0 
L 794 0 
L 794 531 
z
" transform="scale(0.015625)"/>
       </defs>
       <use xlink:href="#DejaVuSans-31"/>
       <use xlink:href="#DejaVuSans-30" transform="translate(63.623047 0)"/>
       <use xlink:href="#DejaVuSans-30" transform="translate(127.246094 0)"/>
      </g>
     </g>
    </g>
    <g id="xtick_3">
     <g id="line2d_3">
      <g>
       <use xlink:href="#md572cd85f2" x="446.544673" y="390.04" style="stroke: #000000; stroke-width: 0.8"/>
      </g>
     </g>
     <g id="text_3">
      <!-- 150 -->
      <g transform="translate(437.000923 404.638438) scale(0.1 -0.1)">
       <use xlink:href="#DejaVuSans-31"/>
       <use xlink:href="#DejaVuSans-35" transform="translate(63.623047 0)"/>
       <use xlink:href="#DejaVuSans-30" transform="translate(127.246094 0)"/>
      </g>
     </g>
    </g>
    <g id="xtick_4">
     <g id="line2d_4">
      <g>
       <use xlink:href="#md572cd85f2" x="578.87734" y="390.04" style="stroke: #000000; stroke-width: 0.8"/>
      </g>
     </g>
     <g id="text_4">
      <!-- 200 -->
      <g transform="translate(569.33359 404.638438) scale(0.1 -0.1)">
       <defs>
        <path id="DejaVuSans-32" d="M 1228 531 
L 3431 531 
L 3431 0 
L 469 0 
L 469 531 
Q 828 903 1448 1529 
Q 2069 2156 2228 2338 
Q 2531 2678 2651 2914 
Q 2772 3150 2772 3378 
Q 2772 3750 2511 3984 
Q 2250 4219 1831 4219 
Q 1534 4219 1204 4116 
Q 875 4013 500 3803 
L 500 4441 
Q 881 4594 1212 4672 
Q 1544 4750 1819 4750 
Q 2544 4750 2975 4387 
Q 3406 4025 3406 3419 
Q 3406 3131 3298 2873 
Q 3191 2616 2906 2266 
Q 2828 2175 2409 1742 
Q 1991 1309 1228 531 
z
" transform="scale(0.015625)"/>
       </defs>
       <use xlink:href="#DejaVuSans-32"/>
       <use xlink:href="#DejaVuSans-30" transform="translate(63.623047 0)"/>
       <use xlink:href="#DejaVuSans-30" transform="translate(127.246094 0)"/>
      </g>
     </g>
    </g>
    <g id="xtick_5">
     <g id="line2d_5">
      <g>
       <use xlink:href="#md572cd85f2" x="711.210007" y="390.04" style="stroke: #000000; stroke-width: 0.8"/>
      </g>
     </g>
     <g id="text_5">
      <!-- 250 -->
      <g transform="translate(701.666257 404.638438) scale(0.1 -0.1)">
       <use xlink:href="#DejaVuSans-32"/>
       <use xlink:href="#DejaVuSans-35" transform="translate(63.623047 0)"/>
       <use xlink:href="#DejaVuSans-30" transform="translate(127.246094 0)"/>
      </g>
     </g>
    </g>
    <g id="xtick_6">
     <g id="line2d_6">
      <g>
       <use xlink:href="#md572cd85f2" x="843.542673" y="390.04" style="stroke: #000000; stroke-width: 0.8"/>
      </g>
     </g>
     <g id="text_6">
      <!-- 300 -->
      <g transform="translate(833.998923 404.638438) scale(0.1 -0.1)">
       <defs>
        <path id="DejaVuSans-33" d="M 2597 2516 
Q 3050 2419 3304 2112 
Q 3559 1806 3559 1356 
Q 3559 666 3084 287 
Q 2609 -91 1734 -91 
Q 1441 -91 1130 -33 
Q 819 25 488 141 
L 488 750 
Q 750 597 1062 519 
Q 1375 441 1716 441 
Q 2309 441 2620 675 
Q 2931 909 2931 1356 
Q 2931 1769 2642 2001 
Q 2353 2234 1838 2234 
L 1294 2234 
L 1294 2753 
L 1863 2753 
Q 2328 2753 2575 2939 
Q 2822 3125 2822 3475 
Q 2822 3834 2567 4026 
Q 2313 4219 1838 4219 
Q 1578 4219 1281 4162 
Q 984 4106 628 3988 
L 628 4550 
Q 988 4650 1302 4700 
Q 1616 4750 1894 4750 
Q 2613 4750 3031 4423 
Q 3450 4097 3450 3541 
Q 3450 3153 3228 2886 
Q 3006 2619 2597 2516 
z
" transform="scale(0.015625)"/>
       </defs>
       <use xlink:href="#DejaVuSans-33"/>
       <use xlink:href="#DejaVuSans-30" transform="translate(63.623047 0)"/>
       <use xlink:href="#DejaVuSans-30" transform="translate(127.246094 0)"/>
      </g>
     </g>
    </g>
    <g id="text_7">
     <!-- Step -->
     <g transform="translate(436.482844 418.316562) scale(0.1 -0.1)">
      <defs>
       <path id="DejaVuSans-53" d="M 3425 4513 
L 3425 3897 
Q 3066 4069 2747 4153 
Q 2428 4238 2131 4238 
Q 1616 4238 1336 4038 
Q 1056 3838 1056 3469 
Q 1056 3159 1242 3001 
Q 1428 2844 1947 2747 
L 2328 2669 
Q 3034 2534 3370 2195 
Q 3706 1856 3706 1288 
Q 3706 609 3251 259 
Q 2797 -91 1919 -91 
Q 1588 -91 1214 -16 
Q 841 59 441 206 
L 441 856 
Q 825 641 1194 531 
Q 1563 422 1919 422 
Q 2459 422 2753 634 
Q 3047 847 3047 1241 
Q 3047 1584 2836 1778 
Q 2625 1972 2144 2069 
L 1759 2144 
Q 1053 2284 737 2584 
Q 422 2884 422 3419 
Q 422 4038 858 4394 
Q 1294 4750 2059 4750 
Q 2388 4750 2728 4690 
Q 3069 4631 3425 4513 
z
" transform="scale(0.015625)"/>
       <path id="DejaVuSans-74" d="M 1172 4494 
L 1172 3500 
L 2356 3500 
L 2356 3053 
L 1172 3053 
L 1172 1153 
Q 1172 725 1289 603 
Q 1406 481 1766 481 
L 2356 481 
L 2356 0 
L 1766 0 
Q 1100 0 847 248 
Q 594 497 594 1153 
L 594 3053 
L 172 3053 
L 172 3500 
L 594 3500 
L 594 4494 
L 1172 4494 
z
" transform="scale(0.015625)"/>
       <path id="DejaVuSans-65" d="M 3597 1894 
L 3597 1613 
L 953 1613 
Q 991 1019 1311 708 
Q 1631 397 2203 397 
Q 2534 397 2845 478 
Q 3156 559 3463 722 
L 3463 178 
Q 3153 47 2828 -22 
Q 2503 -91 2169 -91 
Q 1331 -91 842 396 
Q 353 884 353 1716 
Q 353 2575 817 3079 
Q 1281 3584 2069 3584 
Q 2775 3584 3186 3129 
Q 3597 2675 3597 1894 
z
M 3022 2063 
Q 3016 2534 2758 2815 
Q 2500 3097 2075 3097 
Q 1594 3097 1305 2825 
Q 1016 2553 972 2059 
L 3022 2063 
z
" transform="scale(0.015625)"/>
       <path id="DejaVuSans-70" d="M 1159 525 
L 1159 -1331 
L 581 -1331 
L 581 3500 
L 1159 3500 
L 1159 2969 
Q 1341 3281 1617 3432 
Q 1894 3584 2278 3584 
Q 2916 3584 3314 3078 
Q 3713 2572 3713 1747 
Q 3713 922 3314 415 
Q 2916 -91 2278 -91 
Q 1894 -91 1617 61 
Q 1341 213 1159 525 
z
M 3116 1747 
Q 3116 2381 2855 2742 
Q 2594 3103 2138 3103 
Q 1681 3103 1420 2742 
Q 1159 2381 1159 1747 
Q 1159 1113 1420 752 
Q 1681 391 2138 391 
Q 2594 391 2855 752 
Q 3116 1113 3116 1747 
z
" transform="scale(0.015625)"/>
      </defs>
      <use xlink:href="#DejaVuSans-53"/>
      <use xlink:href="#DejaVuSans-74" transform="translate(63.476562 0)"/>
      <use xlink:href="#DejaVuSans-65" transform="translate(102.685547 0)"/>
      <use xlink:href="#DejaVuSans-70" transform="translate(164.208984 0)"/>
     </g>
    </g>
   </g>
   <g id="matplotlib.axis_2">
    <g id="ytick_1">
     <g id="line2d_7">
      <defs>
       <path id="made7296288" d="M 0 0 
L -3.5 0 
" style="stroke: #000000; stroke-width: 0.8"/>
      </defs>
      <g>
       <use xlink:href="#made7296288" x="50.87" y="375.061162" style="stroke: #000000; stroke-width: 0.8"/>
      </g>
     </g>
     <g id="text_8">
      <!-- 75 -->
      <g transform="translate(31.145 378.86038) scale(0.1 -0.1)">
       <defs>
        <path id="DejaVuSans-37" d="M 525 4666 
L 3525 4666 
L 3525 4397 
L 1831 0 
L 1172 0 
L 2766 4134 
L 525 4134 
L 525 4666 
z
" transform="scale(0.015625)"/>
       </defs>
       <use xlink:href="#DejaVuSans-37"/>
       <use xlink:href="#DejaVuSans-35" transform="translate(63.623047 0)"/>
      </g>
     </g>
    </g>
    <g id="ytick_2">
     <g id="line2d_8">
      <g>
       <use xlink:href="#made7296288" x="50.87" y="334.747824" style="stroke: #000000; stroke-width: 0.8"/>
      </g>
     </g>
     <g id="text_9">
      <!-- 100 -->
      <g transform="translate(24.7825 338.547042) scale(0.1 -0.1)">
       <use xlink:href="#DejaVuSans-31"/>
       <use xlink:href="#DejaVuSans-30" transform="translate(63.623047 0)"/>
       <use xlink:href="#DejaVuSans-30" transform="translate(127.246094 0)"/>
      </g>
     </g>
    </g>
    <g id="ytick_3">
     <g id="line2d_9">
      <g>
       <use xlink:href="#made7296288" x="50.87" y="294.434486" style="stroke: #000000; stroke-width: 0.8"/>
      </g>
     </g>
     <g id="text_10">
      <!-- 125 -->
      <g transform="translate(24.7825 298.233704) scale(0.1 -0.1)">
       <use xlink:href="#DejaVuSans-31"/>
       <use xlink:href="#DejaVuSans-32" transform="translate(63.623047 0)"/>
       <use xlink:href="#DejaVuSans-35" transform="translate(127.246094 0)"/>
      </g>
     </g>
    </g>
    <g id="ytick_4">
     <g id="line2d_10">
      <g>
       <use xlink:href="#made7296288" x="50.87" y="254.121148" style="stroke: #000000; stroke-width: 0.8"/>
      </g>
     </g>
     <g id="text_11">
      <!-- 150 -->
      <g transform="translate(24.7825 257.920367) scale(0.1 -0.1)">
       <use xlink:href="#DejaVuSans-31"/>
       <use xlink:href="#DejaVuSans-35" transform="translate(63.623047 0)"/>
       <use xlink:href="#DejaVuSans-30" transform="translate(127.246094 0)"/>
      </g>
     </g>
    </g>
    <g id="ytick_5">
     <g id="line2d_11">
      <g>
       <use xlink:href="#made7296288" x="50.87" y="213.80781" style="stroke: #000000; stroke-width: 0.8"/>
      </g>
     </g>
     <g id="text_12">
      <!-- 175 -->
      <g transform="translate(24.7825 217.607029) scale(0.1 -0.1)">
       <use xlink:href="#DejaVuSans-31"/>
       <use xlink:href="#DejaVuSans-37" transform="translate(63.623047 0)"/>
       <use xlink:href="#DejaVuSans-35" transform="translate(127.246094 0)"/>
      </g>
     </g>
    </g>
    <g id="ytick_6">
     <g id="line2d_12">
      <g>
       <use xlink:href="#made7296288" x="50.87" y="173.494472" style="stroke: #000000; stroke-width: 0.8"/>
      </g>
     </g>
     <g id="text_13">
      <!-- 200 -->
      <g transform="translate(24.7825 177.293691) scale(0.1 -0.1)">
       <use xlink:href="#DejaVuSans-32"/>
       <use xlink:href="#DejaVuSans-30" transform="translate(63.623047 0)"/>
       <use xlink:href="#DejaVuSans-30" transform="translate(127.246094 0)"/>
      </g>
     </g>
    </g>
    <g id="ytick_7">
     <g id="line2d_13">
      <g>
       <use xlink:href="#made7296288" x="50.87" y="133.181134" style="stroke: #000000; stroke-width: 0.8"/>
      </g>
     </g>
     <g id="text_14">
      <!-- 225 -->
      <g transform="translate(24.7825 136.980353) scale(0.1 -0.1)">
       <use xlink:href="#DejaVuSans-32"/>
       <use xlink:href="#DejaVuSans-32" transform="translate(63.623047 0)"/>
       <use xlink:href="#DejaVuSans-35" transform="translate(127.246094 0)"/>
      </g>
     </g>
    </g>
    <g id="ytick_8">
     <g id="line2d_14">
      <g>
       <use xlink:href="#made7296288" x="50.87" y="92.867796" style="stroke: #000000; stroke-width: 0.8"/>
      </g>
     </g>
     <g id="text_15">
      <!-- 250 -->
      <g transform="translate(24.7825 96.667015) scale(0.1 -0.1)">
       <use xlink:href="#DejaVuSans-32"/>
       <use xlink:href="#DejaVuSans-35" transform="translate(63.623047 0)"/>
       <use xlink:href="#DejaVuSans-30" transform="translate(127.246094 0)"/>
      </g>
     </g>
    </g>
    <g id="ytick_9">
     <g id="line2d_15">
      <g>
       <use xlink:href="#made7296288" x="50.87" y="52.554458" style="stroke: #000000; stroke-width: 0.8"/>
      </g>
     </g>
     <g id="text_16">
      <!-- 275 -->
      <g transform="translate(24.7825 56.353677) scale(0.1 -0.1)">
       <use xlink:href="#DejaVuSans-32"/>
       <use xlink:href="#DejaVuSans-37" transform="translate(63.623047 0)"/>
       <use xlink:href="#DejaVuSans-35" transform="translate(127.246094 0)"/>
      </g>
     </g>
    </g>
    <g id="text_17">
     <!-- Profit -->
     <g transform="translate(18.702813 229.779063) rotate(-90) scale(0.1 -0.1)">
      <defs>
       <path id="DejaVuSans-50" d="M 1259 4147 
L 1259 2394 
L 2053 2394 
Q 2494 2394 2734 2622 
Q 2975 2850 2975 3272 
Q 2975 3691 2734 3919 
Q 2494 4147 2053 4147 
L 1259 4147 
z
M 628 4666 
L 2053 4666 
Q 2838 4666 3239 4311 
Q 3641 3956 3641 3272 
Q 3641 2581 3239 2228 
Q 2838 1875 2053 1875 
L 1259 1875 
L 1259 0 
L 628 0 
L 628 4666 
z
" transform="scale(0.015625)"/>
       <path id="DejaVuSans-72" d="M 2631 2963 
Q 2534 3019 2420 3045 
Q 2306 3072 2169 3072 
Q 1681 3072 1420 2755 
Q 1159 2438 1159 1844 
L 1159 0 
L 581 0 
L 581 3500 
L 1159 3500 
L 1159 2956 
Q 1341 3275 1631 3429 
Q 1922 3584 2338 3584 
Q 2397 3584 2469 3576 
Q 2541 3569 2628 3553 
L 2631 2963 
z
" transform="scale(0.015625)"/>
       <path id="DejaVuSans-6f" d="M 1959 3097 
Q 1497 3097 1228 2736 
Q 959 2375 959 1747 
Q 959 1119 1226 758 
Q 1494 397 1959 397 
Q 2419 397 2687 759 
Q 2956 1122 2956 1747 
Q 2956 2369 2687 2733 
Q 2419 3097 1959 3097 
z
M 1959 3584 
Q 2709 3584 3137 3096 
Q 3566 2609 3566 1747 
Q 3566 888 3137 398 
Q 2709 -91 1959 -91 
Q 1206 -91 779 398 
Q 353 888 353 1747 
Q 353 2609 779 3096 
Q 1206 3584 1959 3584 
z
" transform="scale(0.015625)"/>
       <path id="DejaVuSans-66" d="M 2375 4863 
L 2375 4384 
L 1825 4384 
Q 1516 4384 1395 4259 
Q 1275 4134 1275 3809 
L 1275 3500 
L 2222 3500 
L 2222 3053 
L 1275 3053 
L 1275 0 
L 697 0 
L 697 3053 
L 147 3053 
L 147 3500 
L 697 3500 
L 697 3744 
Q 697 4328 969 4595 
Q 1241 4863 1831 4863 
L 2375 4863 
z
" transform="scale(0.015625)"/>
       <path id="DejaVuSans-69" d="M 603 3500 
L 1178 3500 
L 1178 0 
L 603 0 
L 603 3500 
z
M 603 4863 
L 1178 4863 
L 1178 4134 
L 603 4134 
L 603 4863 
z
" transform="scale(0.015625)"/>
      </defs>
      <use xlink:href="#DejaVuSans-50"/>
      <use xlink:href="#DejaVuSans-72" transform="translate(58.552734 0)"/>
      <use xlink:href="#DejaVuSans-6f" transform="translate(97.416016 0)"/>
      <use xlink:href="#DejaVuSans-66" transform="translate(158.597656 0)"/>
      <use xlink:href="#DejaVuSans-69" transform="translate(193.802734 0)"/>
      <use xlink:href="#DejaVuSans-74" transform="translate(221.585938 0)"/>
     </g>
    </g>
   </g>
   <g id="line2d_16">
    <path d="M 52.193327 245.728523 
L 54.83998 244.543433 
L 57.486633 231.187327 
L 60.133287 220.187228 
L 62.77994 210.924142 
L 65.426593 203.219358 
L 68.073247 196.74986 
L 70.7199 191.134018 
L 73.366553 186.23638 
L 76.013207 181.74227 
L 78.65986 177.787631 
L 83.953167 171.490517 
L 86.59982 168.677909 
L 89.246473 166.132293 
L 94.53978 161.64175 
L 97.186433 159.578349 
L 102.47974 156.055976 
L 105.126393 154.4118 
L 110.4197 151.537703 
L 115.713007 148.987954 
L 126.29962 144.659462 
L 131.592927 142.816548 
L 139.532887 140.255653 
L 147.472847 138.010664 
L 168.646073 133.118858 
L 179.232687 131.073074 
L 200.405913 127.599764 
L 208.345873 126.408621 
L 226.872447 124.018806 
L 240.105713 122.642828 
L 261.27894 120.622314 
L 271.865553 119.701042 
L 287.745473 118.36864 
L 303.625393 117.207368 
L 314.212007 116.534068 
L 369.791727 113.488521 
L 390.964953 112.616534 
L 420.07814 111.484001 
L 494.184433 109.002974 
L 536.530887 107.996789 
L 658.27694 105.6427 
L 697.97674 105.061744 
L 724.443273 104.709027 
L 756.203113 104.311233 
L 803.842873 103.77063 
L 832.95606 103.453468 
L 843.542673 103.348698 
L 843.542673 103.348698 
" clip-path="url(#pdee987f2d6)" style="fill: none; stroke: #0000ff; stroke-width: 1.5; stroke-linecap: square"/>
   </g>
   <g id="patch_3">
    <path d="M 50.87 390.04 
L 50.87 43.44 
" style="fill: none; stroke: #000000; stroke-width: 0.8; stroke-linejoin: miter; stroke-linecap: square"/>
   </g>
   <g id="patch_4">
    <path d="M 844.866 390.04 
L 844.866 43.44 
" style="fill: none; stroke: #000000; stroke-width: 0.8; stroke-linejoin: miter; stroke-linecap: square"/>
   </g>
   <g id="patch_5">
    <path d="M 50.87 390.04 
L 844.866 390.04 
" style="fill: none; stroke: #000000; stroke-width: 0.8; stroke-linejoin: miter; stroke-linecap: square"/>
   </g>
   <g id="patch_6">
    <path d="M 50.87 43.44 
L 844.866 43.44 
" style="fill: none; stroke: #000000; stroke-width: 0.8; stroke-linejoin: miter; stroke-linecap: square"/>
   </g>
   <g id="text_18">
    <!-- Mean profit per step with confidence interval per simulation step -->
    <g transform="translate(220.284875 21.763062) scale(0.14 -0.14)">
     <defs>
      <path id="DejaVuSans-4d" d="M 628 4666 
L 1569 4666 
L 2759 1491 
L 3956 4666 
L 4897 4666 
L 4897 0 
L 4281 0 
L 4281 4097 
L 3078 897 
L 2444 897 
L 1241 4097 
L 1241 0 
L 628 0 
L 628 4666 
z
" transform="scale(0.015625)"/>
      <path id="DejaVuSans-61" d="M 2194 1759 
Q 1497 1759 1228 1600 
Q 959 1441 959 1056 
Q 959 750 1161 570 
Q 1363 391 1709 391 
Q 2188 391 2477 730 
Q 2766 1069 2766 1631 
L 2766 1759 
L 2194 1759 
z
M 3341 1997 
L 3341 0 
L 2766 0 
L 2766 531 
Q 2569 213 2275 61 
Q 1981 -91 1556 -91 
Q 1019 -91 701 211 
Q 384 513 384 1019 
Q 384 1609 779 1909 
Q 1175 2209 1959 2209 
L 2766 2209 
L 2766 2266 
Q 2766 2663 2505 2880 
Q 2244 3097 1772 3097 
Q 1472 3097 1187 3025 
Q 903 2953 641 2809 
L 641 3341 
Q 956 3463 1253 3523 
Q 1550 3584 1831 3584 
Q 2591 3584 2966 3190 
Q 3341 2797 3341 1997 
z
" transform="scale(0.015625)"/>
      <path id="DejaVuSans-6e" d="M 3513 2113 
L 3513 0 
L 2938 0 
L 2938 2094 
Q 2938 2591 2744 2837 
Q 2550 3084 2163 3084 
Q 1697 3084 1428 2787 
Q 1159 2491 1159 1978 
L 1159 0 
L 581 0 
L 581 3500 
L 1159 3500 
L 1159 2956 
Q 1366 3272 1645 3428 
Q 1925 3584 2291 3584 
Q 2894 3584 3203 3211 
Q 3513 2838 3513 2113 
z
" transform="scale(0.015625)"/>
      <path id="DejaVuSans-20" transform="scale(0.015625)"/>
      <path id="DejaVuSans-73" d="M 2834 3397 
L 2834 2853 
Q 2591 2978 2328 3040 
Q 2066 3103 1784 3103 
Q 1356 3103 1142 2972 
Q 928 2841 928 2578 
Q 928 2378 1081 2264 
Q 1234 2150 1697 2047 
L 1894 2003 
Q 2506 1872 2764 1633 
Q 3022 1394 3022 966 
Q 3022 478 2636 193 
Q 2250 -91 1575 -91 
Q 1294 -91 989 -36 
Q 684 19 347 128 
L 347 722 
Q 666 556 975 473 
Q 1284 391 1588 391 
Q 1994 391 2212 530 
Q 2431 669 2431 922 
Q 2431 1156 2273 1281 
Q 2116 1406 1581 1522 
L 1381 1569 
Q 847 1681 609 1914 
Q 372 2147 372 2553 
Q 372 3047 722 3315 
Q 1072 3584 1716 3584 
Q 2034 3584 2315 3537 
Q 2597 3491 2834 3397 
z
" transform="scale(0.015625)"/>
      <path id="DejaVuSans-77" d="M 269 3500 
L 844 3500 
L 1563 769 
L 2278 3500 
L 2956 3500 
L 3675 769 
L 4391 3500 
L 4966 3500 
L 4050 0 
L 3372 0 
L 2619 2869 
L 1863 0 
L 1184 0 
L 269 3500 
z
" transform="scale(0.015625)"/>
      <path id="DejaVuSans-68" d="M 3513 2113 
L 3513 0 
L 2938 0 
L 2938 2094 
Q 2938 2591 2744 2837 
Q 2550 3084 2163 3084 
Q 1697 3084 1428 2787 
Q 1159 2491 1159 1978 
L 1159 0 
L 581 0 
L 581 4863 
L 1159 4863 
L 1159 2956 
Q 1366 3272 1645 3428 
Q 1925 3584 2291 3584 
Q 2894 3584 3203 3211 
Q 3513 2838 3513 2113 
z
" transform="scale(0.015625)"/>
      <path id="DejaVuSans-63" d="M 3122 3366 
L 3122 2828 
Q 2878 2963 2633 3030 
Q 2388 3097 2138 3097 
Q 1578 3097 1268 2742 
Q 959 2388 959 1747 
Q 959 1106 1268 751 
Q 1578 397 2138 397 
Q 2388 397 2633 464 
Q 2878 531 3122 666 
L 3122 134 
Q 2881 22 2623 -34 
Q 2366 -91 2075 -91 
Q 1284 -91 818 406 
Q 353 903 353 1747 
Q 353 2603 823 3093 
Q 1294 3584 2113 3584 
Q 2378 3584 2631 3529 
Q 2884 3475 3122 3366 
z
" transform="scale(0.015625)"/>
      <path id="DejaVuSans-64" d="M 2906 2969 
L 2906 4863 
L 3481 4863 
L 3481 0 
L 2906 0 
L 2906 525 
Q 2725 213 2448 61 
Q 2172 -91 1784 -91 
Q 1150 -91 751 415 
Q 353 922 353 1747 
Q 353 2572 751 3078 
Q 1150 3584 1784 3584 
Q 2172 3584 2448 3432 
Q 2725 3281 2906 2969 
z
M 947 1747 
Q 947 1113 1208 752 
Q 1469 391 1925 391 
Q 2381 391 2643 752 
Q 2906 1113 2906 1747 
Q 2906 2381 2643 2742 
Q 2381 3103 1925 3103 
Q 1469 3103 1208 2742 
Q 947 2381 947 1747 
z
" transform="scale(0.015625)"/>
      <path id="DejaVuSans-76" d="M 191 3500 
L 800 3500 
L 1894 563 
L 2988 3500 
L 3597 3500 
L 2284 0 
L 1503 0 
L 191 3500 
z
" transform="scale(0.015625)"/>
      <path id="DejaVuSans-6c" d="M 603 4863 
L 1178 4863 
L 1178 0 
L 603 0 
L 603 4863 
z
" transform="scale(0.015625)"/>
      <path id="DejaVuSans-6d" d="M 3328 2828 
Q 3544 3216 3844 3400 
Q 4144 3584 4550 3584 
Q 5097 3584 5394 3201 
Q 5691 2819 5691 2113 
L 5691 0 
L 5113 0 
L 5113 2094 
Q 5113 2597 4934 2840 
Q 4756 3084 4391 3084 
Q 3944 3084 3684 2787 
Q 3425 2491 3425 1978 
L 3425 0 
L 2847 0 
L 2847 2094 
Q 2847 2600 2669 2842 
Q 2491 3084 2119 3084 
Q 1678 3084 1418 2786 
Q 1159 2488 1159 1978 
L 1159 0 
L 581 0 
L 581 3500 
L 1159 3500 
L 1159 2956 
Q 1356 3278 1631 3431 
Q 1906 3584 2284 3584 
Q 2666 3584 2933 3390 
Q 3200 3197 3328 2828 
z
" transform="scale(0.015625)"/>
      <path id="DejaVuSans-75" d="M 544 1381 
L 544 3500 
L 1119 3500 
L 1119 1403 
Q 1119 906 1312 657 
Q 1506 409 1894 409 
Q 2359 409 2629 706 
Q 2900 1003 2900 1516 
L 2900 3500 
L 3475 3500 
L 3475 0 
L 2900 0 
L 2900 538 
Q 2691 219 2414 64 
Q 2138 -91 1772 -91 
Q 1169 -91 856 284 
Q 544 659 544 1381 
z
M 1991 3584 
L 1991 3584 
z
" transform="scale(0.015625)"/>
     </defs>
     <use xlink:href="#DejaVuSans-4d"/>
     <use xlink:href="#DejaVuSans-65" transform="translate(86.279297 0)"/>
     <use xlink:href="#DejaVuSans-61" transform="translate(147.802734 0)"/>
     <use xlink:href="#DejaVuSans-6e" transform="translate(209.082031 0)"/>
     <use xlink:href="#DejaVuSans-20" transform="translate(272.460938 0)"/>
     <use xlink:href="#DejaVuSans-70" transform="translate(304.248047 0)"/>
     <use xlink:href="#DejaVuSans-72" transform="translate(367.724609 0)"/>
     <use xlink:href="#DejaVuSans-6f" transform="translate(406.587891 0)"/>
     <use xlink:href="#DejaVuSans-66" transform="translate(467.769531 0)"/>
     <use xlink:href="#DejaVuSans-69" transform="translate(502.974609 0)"/>
     <use xlink:href="#DejaVuSans-74" transform="translate(530.757812 0)"/>
     <use xlink:href="#DejaVuSans-20" transform="translate(569.966797 0)"/>
     <use xlink:href="#DejaVuSans-70" transform="translate(601.753906 0)"/>
     <use xlink:href="#DejaVuSans-65" transform="translate(665.230469 0)"/>
     <use xlink:href="#DejaVuSans-72" transform="translate(726.753906 0)"/>
     <use xlink:href="#DejaVuSans-20" transform="translate(767.867188 0)"/>
     <use xlink:href="#DejaVuSans-73" transform="translate(799.654297 0)"/>
     <use xlink:href="#DejaVuSans-74" transform="translate(851.753906 0)"/>
     <use xlink:href="#DejaVuSans-65" transform="translate(890.962891 0)"/>
     <use xlink:href="#DejaVuSans-70" transform="translate(952.486328 0)"/>
     <use xlink:href="#DejaVuSans-20" transform="translate(1015.962891 0)"/>
     <use xlink:href="#DejaVuSans-77" transform="translate(1047.75 0)"/>
     <use xlink:href="#DejaVuSans-69" transform="translate(1129.537109 0)"/>
     <use xlink:href="#DejaVuSans-74" transform="translate(1157.320312 0)"/>
     <use xlink:href="#DejaVuSans-68" transform="translate(1196.529297 0)"/>
     <use xlink:href="#DejaVuSans-20" transform="translate(1259.908203 0)"/>
     <use xlink:href="#DejaVuSans-63" transform="translate(1291.695312 0)"/>
     <use xlink:href="#DejaVuSans-6f" transform="translate(1346.675781 0)"/>
     <use xlink:href="#DejaVuSans-6e" transform="translate(1407.857422 0)"/>
     <use xlink:href="#DejaVuSans-66" transform="translate(1471.236328 0)"/>
     <use xlink:href="#DejaVuSans-69" transform="translate(1506.441406 0)"/>
     <use xlink:href="#DejaVuSans-64" transform="translate(1534.224609 0)"/>
     <use xlink:href="#DejaVuSans-65" transform="translate(1597.701172 0)"/>
     <use xlink:href="#DejaVuSans-6e" transform="translate(1659.224609 0)"/>
     <use xlink:href="#DejaVuSans-63" transform="translate(1722.603516 0)"/>
     <use xlink:href="#DejaVuSans-65" transform="translate(1777.583984 0)"/>
     <use xlink:href="#DejaVuSans-20" transform="translate(1839.107422 0)"/>
     <use xlink:href="#DejaVuSans-69" transform="translate(1870.894531 0)"/>
     <use xlink:href="#DejaVuSans-6e" transform="translate(1898.677734 0)"/>
     <use xlink:href="#DejaVuSans-74" transform="translate(1962.056641 0)"/>
     <use xlink:href="#DejaVuSans-65" transform="translate(2001.265625 0)"/>
     <use xlink:href="#DejaVuSans-72" transform="translate(2062.789062 0)"/>
     <use xlink:href="#DejaVuSans-76" transform="translate(2103.902344 0)"/>
     <use xlink:href="#DejaVuSans-61" transform="translate(2163.082031 0)"/>
     <use xlink:href="#DejaVuSans-6c" transform="translate(2224.361328 0)"/>
     <use xlink:href="#DejaVuSans-20" transform="translate(2252.144531 0)"/>
     <use xlink:href="#DejaVuSans-70" transform="translate(2283.931641 0)"/>
     <use xlink:href="#DejaVuSans-65" transform="translate(2347.408203 0)"/>
     <use xlink:href="#DejaVuSans-72" transform="translate(2408.931641 0)"/>
     <use xlink:href="#DejaVuSans-20" transform="translate(2450.044922 0)"/>
     <use xlink:href="#DejaVuSans-73" transform="translate(2481.832031 0)"/>
     <use xlink:href="#DejaVuSans-69" transform="translate(2533.931641 0)"/>
     <use xlink:href="#DejaVuSans-6d" transform="translate(2561.714844 0)"/>
     <use xlink:href="#DejaVuSans-75" transform="translate(2659.126953 0)"/>
     <use xlink:href="#DejaVuSans-6c" transform="translate(2722.505859 0)"/>
     <use xlink:href="#DejaVuSans-61" transform="translate(2750.289062 0)"/>
     <use xlink:href="#DejaVuSans-74" transform="translate(2811.568359 0)"/>
     <use xlink:href="#DejaVuSans-69" transform="translate(2850.777344 0)"/>
     <use xlink:href="#DejaVuSans-6f" transform="translate(2878.560547 0)"/>
     <use xlink:href="#DejaVuSans-6e" transform="translate(2939.742188 0)"/>
     <use xlink:href="#DejaVuSans-20" transform="translate(3003.121094 0)"/>
     <use xlink:href="#DejaVuSans-73" transform="translate(3034.908203 0)"/>
     <use xlink:href="#DejaVuSans-74" transform="translate(3087.007812 0)"/>
     <use xlink:href="#DejaVuSans-65" transform="translate(3126.216797 0)"/>
     <use xlink:href="#DejaVuSans-70" transform="translate(3187.740234 0)"/>
    </g>
    <!-- Base Product: Meth, Recipe size: 7, T0: 5.0 -->
    <g transform="translate(298.334875 37.44) scale(0.14 -0.14)">
     <defs>
      <path id="DejaVuSans-42" d="M 1259 2228 
L 1259 519 
L 2272 519 
Q 2781 519 3026 730 
Q 3272 941 3272 1375 
Q 3272 1813 3026 2020 
Q 2781 2228 2272 2228 
L 1259 2228 
z
M 1259 4147 
L 1259 2741 
L 2194 2741 
Q 2656 2741 2882 2914 
Q 3109 3088 3109 3444 
Q 3109 3797 2882 3972 
Q 2656 4147 2194 4147 
L 1259 4147 
z
M 628 4666 
L 2241 4666 
Q 2963 4666 3353 4366 
Q 3744 4066 3744 3513 
Q 3744 3084 3544 2831 
Q 3344 2578 2956 2516 
Q 3422 2416 3680 2098 
Q 3938 1781 3938 1306 
Q 3938 681 3513 340 
Q 3088 0 2303 0 
L 628 0 
L 628 4666 
z
" transform="scale(0.015625)"/>
      <path id="DejaVuSans-3a" d="M 750 794 
L 1409 794 
L 1409 0 
L 750 0 
L 750 794 
z
M 750 3309 
L 1409 3309 
L 1409 2516 
L 750 2516 
L 750 3309 
z
" transform="scale(0.015625)"/>
      <path id="DejaVuSans-2c" d="M 750 794 
L 1409 794 
L 1409 256 
L 897 -744 
L 494 -744 
L 750 256 
L 750 794 
z
" transform="scale(0.015625)"/>
      <path id="DejaVuSans-52" d="M 2841 2188 
Q 3044 2119 3236 1894 
Q 3428 1669 3622 1275 
L 4263 0 
L 3584 0 
L 2988 1197 
Q 2756 1666 2539 1819 
Q 2322 1972 1947 1972 
L 1259 1972 
L 1259 0 
L 628 0 
L 628 4666 
L 2053 4666 
Q 2853 4666 3247 4331 
Q 3641 3997 3641 3322 
Q 3641 2881 3436 2590 
Q 3231 2300 2841 2188 
z
M 1259 4147 
L 1259 2491 
L 2053 2491 
Q 2509 2491 2742 2702 
Q 2975 2913 2975 3322 
Q 2975 3731 2742 3939 
Q 2509 4147 2053 4147 
L 1259 4147 
z
" transform="scale(0.015625)"/>
      <path id="DejaVuSans-7a" d="M 353 3500 
L 3084 3500 
L 3084 2975 
L 922 459 
L 3084 459 
L 3084 0 
L 275 0 
L 275 525 
L 2438 3041 
L 353 3041 
L 353 3500 
z
" transform="scale(0.015625)"/>
      <path id="DejaVuSans-54" d="M -19 4666 
L 3928 4666 
L 3928 4134 
L 2272 4134 
L 2272 0 
L 1638 0 
L 1638 4134 
L -19 4134 
L -19 4666 
z
" transform="scale(0.015625)"/>
      <path id="DejaVuSans-2e" d="M 684 794 
L 1344 794 
L 1344 0 
L 684 0 
L 684 794 
z
" transform="scale(0.015625)"/>
     </defs>
     <use xlink:href="#DejaVuSans-42"/>
     <use xlink:href="#DejaVuSans-61" transform="translate(68.603516 0)"/>
     <use xlink:href="#DejaVuSans-73" transform="translate(129.882812 0)"/>
     <use xlink:href="#DejaVuSans-65" transform="translate(181.982422 0)"/>
     <use xlink:href="#DejaVuSans-20" transform="translate(243.505859 0)"/>
     <use xlink:href="#DejaVuSans-50" transform="translate(275.292969 0)"/>
     <use xlink:href="#DejaVuSans-72" transform="translate(333.845703 0)"/>
     <use xlink:href="#DejaVuSans-6f" transform="translate(372.708984 0)"/>
     <use xlink:href="#DejaVuSans-64" transform="translate(433.890625 0)"/>
     <use xlink:href="#DejaVuSans-75" transform="translate(497.367188 0)"/>
     <use xlink:href="#DejaVuSans-63" transform="translate(560.746094 0)"/>
     <use xlink:href="#DejaVuSans-74" transform="translate(615.726562 0)"/>
     <use xlink:href="#DejaVuSans-3a" transform="translate(654.935547 0)"/>
     <use xlink:href="#DejaVuSans-20" transform="translate(688.626953 0)"/>
     <use xlink:href="#DejaVuSans-4d" transform="translate(720.414062 0)"/>
     <use xlink:href="#DejaVuSans-65" transform="translate(806.693359 0)"/>
     <use xlink:href="#DejaVuSans-74" transform="translate(868.216797 0)"/>
     <use xlink:href="#DejaVuSans-68" transform="translate(907.425781 0)"/>
     <use xlink:href="#DejaVuSans-2c" transform="translate(970.804688 0)"/>
     <use xlink:href="#DejaVuSans-20" transform="translate(1002.591797 0)"/>
     <use xlink:href="#DejaVuSans-52" transform="translate(1034.378906 0)"/>
     <use xlink:href="#DejaVuSans-65" transform="translate(1099.361328 0)"/>
     <use xlink:href="#DejaVuSans-63" transform="translate(1160.884766 0)"/>
     <use xlink:href="#DejaVuSans-69" transform="translate(1215.865234 0)"/>
     <use xlink:href="#DejaVuSans-70" transform="translate(1243.648438 0)"/>
     <use xlink:href="#DejaVuSans-65" transform="translate(1307.125 0)"/>
     <use xlink:href="#DejaVuSans-20" transform="translate(1368.648438 0)"/>
     <use xlink:href="#DejaVuSans-73" transform="translate(1400.435547 0)"/>
     <use xlink:href="#DejaVuSans-69" transform="translate(1452.535156 0)"/>
     <use xlink:href="#DejaVuSans-7a" transform="translate(1480.318359 0)"/>
     <use xlink:href="#DejaVuSans-65" transform="translate(1532.808594 0)"/>
     <use xlink:href="#DejaVuSans-3a" transform="translate(1594.332031 0)"/>
     <use xlink:href="#DejaVuSans-20" transform="translate(1628.023438 0)"/>
     <use xlink:href="#DejaVuSans-37" transform="translate(1659.810547 0)"/>
     <use xlink:href="#DejaVuSans-2c" transform="translate(1723.433594 0)"/>
     <use xlink:href="#DejaVuSans-20" transform="translate(1755.220703 0)"/>
     <use xlink:href="#DejaVuSans-54" transform="translate(1787.007812 0)"/>
     <use xlink:href="#DejaVuSans-30" transform="translate(1848.091797 0)"/>
     <use xlink:href="#DejaVuSans-3a" transform="translate(1911.714844 0)"/>
     <use xlink:href="#DejaVuSans-20" transform="translate(1945.40625 0)"/>
     <use xlink:href="#DejaVuSans-35" transform="translate(1977.193359 0)"/>
     <use xlink:href="#DejaVuSans-2e" transform="translate(2040.816406 0)"/>
     <use xlink:href="#DejaVuSans-30" transform="translate(2072.603516 0)"/>
    </g>
   </g>
  </g>
 </g>
 <defs>
  <clipPath id="pdee987f2d6">
   <rect x="50.87" y="43.44" width="793.996" height="346.6"/>
  </clipPath>
 </defs>
</svg>
