<?xml version="1.0" encoding="utf-8" standalone="no"?>
<!DOCTYPE svg PUBLIC "-//W3C//DTD SVG 1.1//EN"
  "http://www.w3.org/Graphics/SVG/1.1/DTD/svg11.dtd">
<svg xmlns:xlink="http://www.w3.org/1999/xlink" width="864pt" height="432pt" viewBox="0 0 864 432" xmlns="http://www.w3.org/2000/svg" version="1.1">
 <metadata>
  <rdf:RDF xmlns:dc="http://purl.org/dc/elements/1.1/" xmlns:cc="http://creativecommons.org/ns#" xmlns:rdf="http://www.w3.org/1999/02/22-rdf-syntax-ns#">
   <cc:Work>
    <dc:type rdf:resource="http://purl.org/dc/dcmitype/StillImage"/>
    <dc:date>2025-05-24T02:17:03.280356</dc:date>
    <dc:format>image/svg+xml</dc:format>
    <dc:creator>
     <cc:Agent>
      <dc:title>Matplotlib v3.10.3, https://matplotlib.org/</dc:title>
     </cc:Agent>
    </dc:creator>
   </cc:Work>
  </rdf:RDF>
 </metadata>
 <defs>
  <style type="text/css">*{stroke-linejoin: round; stroke-linecap: butt}</style>
 </defs>
 <g id="figure_1">
  <g id="patch_1">
   <path d="M 0 432 
L 864 432 
L 864 0 
L 0 0 
z
" style="fill: #ffffff"/>
  </g>
  <g id="axes_1">
   <g id="patch_2">
    <path d="M 50.87 390.04 
L 844.866 390.04 
L 844.866 43.44 
L 50.87 43.44 
z
" style="fill: #ffffff"/>
   </g>
   <g id="FillBetweenPolyCollection_1">
    <defs>
     <path id="m1dbbf8a3f7" d="M 52.193327 -311.60028 
L 52.193327 -57.714545 
L 54.83998 -59.340066 
L 57.486633 -68.017189 
L 60.133287 -79.277817 
L 62.77994 -89.597045 
L 65.426593 -98.937993 
L 68.073247 -108.35407 
L 70.7199 -116.474999 
L 73.366553 -124.338089 
L 76.013207 -130.413536 
L 78.65986 -136.816103 
L 81.306513 -141.906866 
L 83.953167 -146.310525 
L 86.59982 -150.701566 
L 89.246473 -155.223165 
L 91.893127 -159.656206 
L 94.53978 -163.385995 
L 97.186433 -166.572133 
L 99.833087 -169.277096 
L 102.47974 -172.56977 
L 105.126393 -175.558241 
L 107.773047 -178.754593 
L 110.4197 -181.271133 
L 113.066353 -184.206492 
L 115.713007 -186.767699 
L 118.35966 -188.380869 
L 121.006313 -190.568432 
L 123.652967 -191.954723 
L 126.29962 -193.417684 
L 128.946273 -195.093695 
L 131.592927 -196.749567 
L 134.23958 -198.305915 
L 136.886233 -199.797797 
L 139.532887 -201.018714 
L 142.17954 -202.747229 
L 144.826193 -204.165765 
L 147.472847 -205.286866 
L 150.1195 -206.409568 
L 152.766153 -207.897156 
L 155.412807 -208.758138 
L 158.05946 -209.92347 
L 160.706113 -210.685921 
L 163.352767 -211.324512 
L 165.99942 -212.381099 
L 168.646073 -213.750504 
L 171.292727 -214.613621 
L 173.93938 -215.286616 
L 176.586033 -216.214029 
L 179.232687 -217.019595 
L 181.87934 -218.03826 
L 184.525993 -219.248162 
L 187.172647 -220.01384 
L 189.8193 -220.790825 
L 192.465953 -221.366673 
L 195.112607 -222.422047 
L 197.75926 -223.443526 
L 200.405913 -224.203236 
L 203.052567 -224.509114 
L 205.69922 -224.677836 
L 208.345873 -225.366918 
L 210.992527 -225.775767 
L 213.63918 -226.408802 
L 216.285833 -226.670061 
L 218.932487 -227.055788 
L 221.57914 -227.934602 
L 224.225793 -228.332776 
L 226.872447 -228.92949 
L 229.5191 -229.138851 
L 232.165753 -229.201886 
L 234.812407 -229.784721 
L 237.45906 -230.717011 
L 240.105713 -230.985379 
L 242.752367 -231.754212 
L 245.39902 -232.084038 
L 248.045673 -232.715859 
L 250.692327 -233.254513 
L 253.33898 -233.844094 
L 255.985633 -233.885631 
L 258.632287 -234.384252 
L 261.27894 -234.511024 
L 263.925593 -234.883891 
L 266.572247 -235.189454 
L 269.2189 -235.597211 
L 271.865553 -235.809314 
L 274.512207 -236.136447 
L 277.15886 -236.627473 
L 279.805513 -236.805148 
L 282.452167 -237.315972 
L 285.09882 -237.736879 
L 287.745473 -238.018859 
L 290.392127 -238.429867 
L 293.03878 -238.826997 
L 295.685433 -238.697217 
L 298.332087 -238.894617 
L 300.97874 -239.099708 
L 303.625393 -239.334182 
L 306.272047 -239.561886 
L 308.9187 -239.910321 
L 311.565353 -240.113666 
L 314.212007 -240.551217 
L 316.85866 -240.716203 
L 319.505313 -240.929859 
L 322.151967 -241.357972 
L 324.79862 -241.520629 
L 327.445273 -241.586453 
L 330.091927 -242.471843 
L 332.73858 -242.734195 
L 335.385233 -242.820497 
L 338.031887 -242.988927 
L 340.67854 -243.442977 
L 343.325193 -243.841733 
L 345.971847 -244.366266 
L 348.6185 -244.643369 
L 351.265153 -244.835916 
L 353.911807 -244.871655 
L 356.55846 -245.443646 
L 359.205113 -245.610524 
L 361.851767 -245.925015 
L 364.49842 -246.156043 
L 367.145073 -246.318797 
L 369.791727 -246.600073 
L 372.43838 -247.014065 
L 375.085033 -246.897071 
L 377.731687 -247.157554 
L 380.37834 -247.540515 
L 383.024993 -247.659304 
L 385.671647 -247.929856 
L 388.3183 -247.911344 
L 390.964953 -248.035496 
L 393.611607 -247.902173 
L 396.25826 -248.054712 
L 398.904913 -248.412027 
L 401.551567 -248.733312 
L 404.19822 -248.949443 
L 406.844873 -249.14136 
L 409.491527 -249.445952 
L 412.13818 -249.587597 
L 414.784833 -249.613291 
L 417.431487 -249.966579 
L 420.07814 -250.276946 
L 422.724793 -250.611672 
L 425.371447 -250.770204 
L 428.0181 -250.926164 
L 430.664753 -250.945817 
L 433.311407 -251.286924 
L 435.95806 -251.440555 
L 438.604713 -251.532874 
L 441.251367 -251.61692 
L 443.89802 -251.568686 
L 446.544673 -251.982775 
L 449.191327 -252.104889 
L 451.83798 -252.225959 
L 454.484633 -252.453032 
L 457.131287 -252.472709 
L 459.77794 -252.740156 
L 462.424593 -252.925595 
L 465.071247 -253.090289 
L 467.7179 -253.206774 
L 470.364553 -253.262626 
L 473.011207 -253.726405 
L 475.65786 -254.009841 
L 478.304513 -254.134065 
L 480.951167 -254.327681 
L 483.59782 -254.220901 
L 486.244473 -254.329185 
L 488.891127 -254.557205 
L 491.53778 -254.642803 
L 494.184433 -254.816766 
L 496.831087 -254.955815 
L 499.47774 -255.075599 
L 502.124393 -255.283093 
L 504.771047 -255.327323 
L 507.4177 -255.656736 
L 510.064353 -255.774289 
L 512.711007 -256.087688 
L 515.35766 -256.207545 
L 518.004313 -256.585848 
L 520.650967 -256.615036 
L 523.29762 -256.734723 
L 525.944273 -256.828546 
L 528.590927 -256.945395 
L 531.23758 -256.966018 
L 533.884233 -257.048826 
L 536.530887 -257.042275 
L 539.17754 -257.254257 
L 541.824193 -257.447291 
L 544.470847 -257.482374 
L 547.1175 -257.576804 
L 549.764153 -257.794682 
L 552.410807 -257.920193 
L 555.05746 -257.930601 
L 557.704113 -258.166264 
L 560.350767 -258.278793 
L 562.99742 -258.2572 
L 565.644073 -258.538719 
L 568.290727 -258.452174 
L 570.93738 -258.177327 
L 573.584033 -258.228473 
L 576.230687 -258.314702 
L 578.87734 -258.506279 
L 581.523993 -258.833897 
L 584.170647 -258.979739 
L 586.8173 -259.173039 
L 589.463953 -259.471348 
L 592.110607 -259.619301 
L 594.75726 -259.878595 
L 597.403913 -259.83946 
L 600.050567 -259.727949 
L 602.69722 -259.904556 
L 605.343873 -259.898976 
L 607.990527 -260.005731 
L 610.63718 -259.836112 
L 613.283833 -260.055591 
L 615.930487 -260.158949 
L 618.57714 -260.35208 
L 621.223793 -260.545889 
L 623.870447 -260.77585 
L 626.5171 -260.726403 
L 629.163753 -260.83966 
L 631.810407 -261.024735 
L 634.45706 -261.131054 
L 637.103713 -261.016146 
L 639.750367 -261.146606 
L 642.39702 -261.443896 
L 645.043673 -261.563268 
L 647.690327 -261.754966 
L 650.33698 -261.811571 
L 652.983633 -261.859999 
L 655.630287 -261.917695 
L 658.27694 -261.948266 
L 660.923593 -262.046384 
L 663.570247 -262.216829 
L 666.2169 -262.245701 
L 668.863553 -262.31303 
L 671.510207 -262.496528 
L 674.15686 -262.548134 
L 676.803513 -262.735733 
L 679.450167 -262.688954 
L 682.09682 -262.788674 
L 684.743473 -263.042193 
L 687.390127 -263.115296 
L 690.03678 -263.242093 
L 692.683433 -263.344869 
L 695.330087 -263.245732 
L 697.97674 -263.404579 
L 700.623393 -263.535646 
L 703.270047 -263.235348 
L 705.9167 -263.115709 
L 708.563353 -263.125244 
L 711.210007 -263.469967 
L 713.85666 -263.606031 
L 716.503313 -263.848148 
L 719.149967 -264.048362 
L 721.79662 -264.151139 
L 724.443273 -264.288028 
L 727.089927 -264.304551 
L 729.73658 -264.420187 
L 732.383233 -264.592596 
L 735.029887 -264.703962 
L 737.67654 -264.81802 
L 740.323193 -265.037427 
L 742.969847 -265.029832 
L 745.6165 -264.882437 
L 748.263153 -264.919826 
L 750.909807 -264.910169 
L 753.55646 -264.912523 
L 756.203113 -264.863755 
L 758.849767 -264.971214 
L 761.49642 -265.048393 
L 764.143073 -265.214398 
L 766.789727 -265.147506 
L 769.43638 -265.329694 
L 772.083033 -265.374968 
L 774.729687 -265.361769 
L 777.37634 -265.494097 
L 780.022993 -265.627954 
L 782.669647 -265.800921 
L 785.3163 -265.933541 
L 787.962953 -266.086977 
L 790.609607 -265.979082 
L 793.25626 -265.92716 
L 795.902913 -265.990461 
L 798.549567 -266.179612 
L 801.19622 -266.166243 
L 803.842873 -266.409281 
L 806.489527 -266.511039 
L 809.13618 -266.573636 
L 811.782833 -266.71943 
L 814.429487 -266.794086 
L 817.07614 -266.558399 
L 819.722793 -266.710865 
L 822.369447 -266.566066 
L 825.0161 -266.432064 
L 827.662753 -266.391448 
L 830.309407 -266.572083 
L 832.95606 -266.578003 
L 835.602713 -266.589698 
L 838.249367 -266.613524 
L 840.89602 -266.709385 
L 843.542673 -266.643148 
L 843.542673 -372.805455 
L 843.542673 -372.805455 
L 840.89602 -372.686131 
L 838.249367 -372.645807 
L 835.602713 -372.640566 
L 832.95606 -372.567972 
L 830.309407 -372.550358 
L 827.662753 -372.651581 
L 825.0161 -372.542836 
L 822.369447 -372.428705 
L 819.722793 -372.244843 
L 817.07614 -372.268184 
L 814.429487 -372.049627 
L 811.782833 -372.026674 
L 809.13618 -372.003479 
L 806.489527 -371.911281 
L 803.842873 -371.903663 
L 801.19622 -371.966891 
L 798.549567 -371.907545 
L 795.902913 -371.918657 
L 793.25626 -371.847131 
L 790.609607 -371.823451 
L 787.962953 -371.710145 
L 785.3163 -371.697577 
L 782.669647 -371.733825 
L 780.022993 -371.713978 
L 777.37634 -371.816609 
L 774.729687 -371.87644 
L 772.083033 -371.743045 
L 769.43638 -371.697819 
L 766.789727 -371.716113 
L 764.143073 -371.541374 
L 761.49642 -371.648954 
L 758.849767 -371.662347 
L 756.203113 -371.686804 
L 753.55646 -371.572479 
L 750.909807 -371.52803 
L 748.263153 -371.38226 
L 745.6165 -371.364209 
L 742.969847 -371.171564 
L 740.323193 -371.135364 
L 737.67654 -371.200048 
L 735.029887 -371.228969 
L 732.383233 -371.263519 
L 729.73658 -371.238189 
L 727.089927 -371.222079 
L 724.443273 -371.153998 
L 721.79662 -371.159141 
L 719.149967 -371.201941 
L 716.503313 -371.24144 
L 713.85666 -371.38061 
L 711.210007 -371.454902 
L 708.563353 -371.637939 
L 705.9167 -371.611881 
L 703.270047 -371.489743 
L 700.623393 -371.226494 
L 697.97674 -371.239305 
L 695.330087 -371.245468 
L 692.683433 -371.091788 
L 690.03678 -371.011916 
L 687.390127 -371.057093 
L 684.743473 -371.020748 
L 682.09682 -371.09305 
L 679.450167 -371.074756 
L 676.803513 -370.965429 
L 674.15686 -371.005705 
L 671.510207 -370.897203 
L 668.863553 -370.900551 
L 666.2169 -370.884974 
L 663.570247 -370.770358 
L 660.923593 -370.844456 
L 658.27694 -370.791854 
L 655.630287 -370.762497 
L 652.983633 -370.723337 
L 650.33698 -370.710235 
L 647.690327 -370.649821 
L 645.043673 -370.656032 
L 642.39702 -370.615854 
L 639.750367 -370.70053 
L 637.103713 -370.714505 
L 634.45706 -370.528363 
L 631.810407 -370.47615 
L 629.163753 -370.483331 
L 626.5171 -370.478964 
L 623.870447 -370.304177 
L 621.223793 -370.306554 
L 618.57714 -370.396229 
L 615.930487 -370.397782 
L 613.283833 -370.305487 
L 610.63718 -370.373325 
L 607.990527 -370.131718 
L 605.343873 -370.116142 
L 602.69722 -369.9859 
L 600.050567 -370.027777 
L 597.403913 -369.881183 
L 594.75726 -369.713868 
L 592.110607 -369.826252 
L 589.463953 -369.842702 
L 586.8173 -369.92699 
L 584.170647 -369.943246 
L 581.523993 -369.984735 
L 578.87734 -370.05762 
L 576.230687 -370.062715 
L 573.584033 -369.994635 
L 570.93738 -369.92175 
L 568.290727 -369.654473 
L 565.644073 -369.536072 
L 562.99742 -369.618807 
L 560.350767 -369.469835 
L 557.704113 -369.395883 
L 555.05746 -369.376812 
L 552.410807 -369.263651 
L 549.764153 -369.257877 
L 547.1175 -369.239243 
L 544.470847 -369.163544 
L 541.824193 -369.060525 
L 539.17754 -369.014232 
L 536.530887 -369.016125 
L 533.884233 -368.885883 
L 531.23758 -368.759718 
L 528.590927 -368.660241 
L 525.944273 -368.592985 
L 523.29762 -368.48919 
L 520.650967 -368.442121 
L 518.004313 -368.273399 
L 515.35766 -368.41582 
L 512.711007 -368.411064 
L 510.064353 -368.528301 
L 507.4177 -368.375981 
L 504.771047 -368.491762 
L 502.124393 -368.37865 
L 499.47774 -368.350262 
L 496.831087 -368.381173 
L 494.184433 -368.389374 
L 491.53778 -368.397817 
L 488.891127 -368.336966 
L 486.244473 -368.41383 
L 483.59782 -368.426301 
L 480.951167 -368.132287 
L 478.304513 -368.104822 
L 475.65786 -368.037906 
L 473.011207 -368.116614 
L 470.364553 -368.259763 
L 467.7179 -368.123456 
L 465.071247 -368.072844 
L 462.424593 -368.05751 
L 459.77794 -368.063721 
L 457.131287 -368.109481 
L 454.484633 -368.020534 
L 451.83798 -368.021213 
L 449.191327 -367.996757 
L 446.544673 -367.946339 
L 443.89802 -368.007626 
L 441.251367 -367.759517 
L 438.604713 -367.586865 
L 435.95806 -367.542367 
L 433.311407 -367.523102 
L 430.664753 -367.516503 
L 428.0181 -367.328468 
L 425.371447 -367.206233 
L 422.724793 -367.032367 
L 420.07814 -367.061677 
L 417.431487 -367.05105 
L 414.784833 -367.116704 
L 412.13818 -366.885773 
L 409.491527 -366.76019 
L 406.844873 -366.820555 
L 404.19822 -366.790033 
L 401.551567 -366.737917 
L 398.904913 -366.806628 
L 396.25826 -366.814004 
L 393.611607 -366.746797 
L 390.964953 -366.430461 
L 388.3183 -366.314632 
L 385.671647 -366.123491 
L 383.024993 -366.04192 
L 380.37834 -366.012854 
L 377.731687 -365.988979 
L 375.085033 -365.999267 
L 372.43838 -365.758388 
L 369.791727 -365.848548 
L 367.145073 -365.967822 
L 364.49842 -365.885233 
L 361.851767 -365.823509 
L 359.205113 -365.813658 
L 356.55846 -365.77707 
L 353.911807 -365.972626 
L 351.265153 -365.771587 
L 348.6185 -365.768141 
L 345.971847 -365.689288 
L 343.325193 -365.778963 
L 340.67854 -365.862232 
L 338.031887 -365.966949 
L 335.385233 -365.853594 
L 332.73858 -365.519935 
L 330.091927 -365.516247 
L 327.445273 -365.919783 
L 324.79862 -365.71554 
L 322.151967 -365.63887 
L 319.505313 -365.561473 
L 316.85866 -365.356405 
L 314.212007 -365.201659 
L 311.565353 -365.198408 
L 308.9187 -364.99795 
L 306.272047 -364.878724 
L 303.625393 -364.731062 
L 300.97874 -364.582478 
L 298.332087 -364.370229 
L 295.685433 -364.203836 
L 293.03878 -363.8036 
L 290.392127 -363.6934 
L 287.745473 -363.585965 
L 285.09882 -363.442282 
L 282.452167 -363.428064 
L 279.805513 -363.354694 
L 277.15886 -363.190776 
L 274.512207 -363.169473 
L 271.865553 -363.00114 
L 269.2189 -362.696305 
L 266.572247 -362.621964 
L 263.925593 -362.413112 
L 261.27894 -362.322952 
L 258.632287 -362.080472 
L 255.985633 -362.135888 
L 253.33898 -361.671696 
L 250.692327 -361.613805 
L 248.045673 -361.480992 
L 245.39902 -361.468424 
L 242.752367 -361.170674 
L 240.105713 -361.210658 
L 237.45906 -360.988462 
L 234.812407 -361.15631 
L 232.165753 -361.190132 
L 229.5191 -360.622097 
L 226.872447 -360.286108 
L 224.225793 -360.317747 
L 221.57914 -360.098559 
L 218.932487 -360.197016 
L 216.285833 -360.032904 
L 213.63918 -359.671683 
L 210.992527 -359.612967 
L 208.345873 -359.362917 
L 205.69922 -359.416732 
L 203.052567 -359.045854 
L 200.405913 -358.602188 
L 197.75926 -358.486989 
L 195.112607 -358.45506 
L 192.465953 -358.557933 
L 189.8193 -358.267753 
L 187.172647 -358.192102 
L 184.525993 -358.031678 
L 181.87934 -358.038763 
L 179.232687 -357.99048 
L 176.586033 -357.706365 
L 173.93938 -357.500861 
L 171.292727 -357.283323 
L 168.646073 -357.097326 
L 165.99942 -357.132604 
L 163.352767 -357.140998 
L 160.706113 -356.731203 
L 158.05946 -356.184325 
L 155.412807 -355.838292 
L 152.766153 -355.481244 
L 150.1195 -355.587029 
L 147.472847 -355.434466 
L 144.826193 -355.064024 
L 142.17954 -354.746282 
L 139.532887 -354.613371 
L 136.886233 -354.378024 
L 134.23958 -353.927323 
L 131.592927 -353.884232 
L 128.946273 -353.603223 
L 126.29962 -353.289411 
L 123.652967 -352.819445 
L 121.006313 -352.151253 
L 118.35966 -351.883831 
L 115.713007 -351.179391 
L 113.066353 -351.047937 
L 110.4197 -350.844373 
L 107.773047 -350.391925 
L 105.126393 -350.23844 
L 102.47974 -349.928024 
L 99.833087 -349.773714 
L 97.186433 -348.988771 
L 94.53978 -348.115367 
L 91.893127 -347.351144 
L 89.246473 -346.936351 
L 86.59982 -346.327409 
L 83.953167 -344.990783 
L 81.306513 -343.035801 
L 78.65986 -341.537878 
L 76.013207 -340.286802 
L 73.366553 -338.489188 
L 70.7199 -336.683348 
L 68.073247 -334.324637 
L 65.426593 -331.382338 
L 62.77994 -327.842282 
L 60.133287 -322.835262 
L 57.486633 -317.477138 
L 54.83998 -309.832726 
L 52.193327 -311.60028 
z
" style="stroke: #0000ff; stroke-opacity: 0.2"/>
    </defs>
    <g clip-path="url(#p18f312947c)">
     <use xlink:href="#m1dbbf8a3f7" x="0" y="432" style="fill: #0000ff; fill-opacity: 0.2; stroke: #0000ff; stroke-opacity: 0.2"/>
    </g>
   </g>
   <g id="matplotlib.axis_1">
    <g id="xtick_1">
     <g id="line2d_1">
      <defs>
       <path id="md53622984a" d="M 0 0 
L 0 3.5 
" style="stroke: #000000; stroke-width: 0.8"/>
      </defs>
      <g>
       <use xlink:href="#md53622984a" x="181.87934" y="390.04" style="stroke: #000000; stroke-width: 0.8"/>
      </g>
     </g>
     <g id="text_1">
      <!-- 50 -->
      <g transform="translate(175.51684 404.638438) scale(0.1 -0.1)">
       <defs>
        <path id="DejaVuSans-35" d="M 691 4666 
L 3169 4666 
L 3169 4134 
L 1269 4134 
L 1269 2991 
Q 1406 3038 1543 3061 
Q 1681 3084 1819 3084 
Q 2600 3084 3056 2656 
Q 3513 2228 3513 1497 
Q 3513 744 3044 326 
Q 2575 -91 1722 -91 
Q 1428 -91 1123 -41 
Q 819 9 494 109 
L 494 744 
Q 775 591 1075 516 
Q 1375 441 1709 441 
Q 2250 441 2565 725 
Q 2881 1009 2881 1497 
Q 2881 1984 2565 2268 
Q 2250 2553 1709 2553 
Q 1456 2553 1204 2497 
Q 953 2441 691 2322 
L 691 4666 
z
" transform="scale(0.015625)"/>
        <path id="DejaVuSans-30" d="M 2034 4250 
Q 1547 4250 1301 3770 
Q 1056 3291 1056 2328 
Q 1056 1369 1301 889 
Q 1547 409 2034 409 
Q 2525 409 2770 889 
Q 3016 1369 3016 2328 
Q 3016 3291 2770 3770 
Q 2525 4250 2034 4250 
z
M 2034 4750 
Q 2819 4750 3233 4129 
Q 3647 3509 3647 2328 
Q 3647 1150 3233 529 
Q 2819 -91 2034 -91 
Q 1250 -91 836 529 
Q 422 1150 422 2328 
Q 422 3509 836 4129 
Q 1250 4750 2034 4750 
z
" transform="scale(0.015625)"/>
       </defs>
       <use xlink:href="#DejaVuSans-35"/>
       <use xlink:href="#DejaVuSans-30" transform="translate(63.623047 0)"/>
      </g>
     </g>
    </g>
    <g id="xtick_2">
     <g id="line2d_2">
      <g>
       <use xlink:href="#md53622984a" x="314.212007" y="390.04" style="stroke: #000000; stroke-width: 0.8"/>
      </g>
     </g>
     <g id="text_2">
      <!-- 100 -->
      <g transform="translate(304.668257 404.638438) scale(0.1 -0.1)">
       <defs>
        <path id="DejaVuSans-31" d="M 794 531 
L 1825 531 
L 1825 4091 
L 703 3866 
L 703 4441 
L 1819 4666 
L 2450 4666 
L 2450 531 
L 3481 531 
L 3481 0 
L 794 0 
L 794 531 
z
" transform="scale(0.015625)"/>
       </defs>
       <use xlink:href="#DejaVuSans-31"/>
       <use xlink:href="#DejaVuSans-30" transform="translate(63.623047 0)"/>
       <use xlink:href="#DejaVuSans-30" transform="translate(127.246094 0)"/>
      </g>
     </g>
    </g>
    <g id="xtick_3">
     <g id="line2d_3">
      <g>
       <use xlink:href="#md53622984a" x="446.544673" y="390.04" style="stroke: #000000; stroke-width: 0.8"/>
      </g>
     </g>
     <g id="text_3">
      <!-- 150 -->
      <g transform="translate(437.000923 404.638438) scale(0.1 -0.1)">
       <use xlink:href="#DejaVuSans-31"/>
       <use xlink:href="#DejaVuSans-35" transform="translate(63.623047 0)"/>
       <use xlink:href="#DejaVuSans-30" transform="translate(127.246094 0)"/>
      </g>
     </g>
    </g>
    <g id="xtick_4">
     <g id="line2d_4">
      <g>
       <use xlink:href="#md53622984a" x="578.87734" y="390.04" style="stroke: #000000; stroke-width: 0.8"/>
      </g>
     </g>
     <g id="text_4">
      <!-- 200 -->
      <g transform="translate(569.33359 404.638438) scale(0.1 -0.1)">
       <defs>
        <path id="DejaVuSans-32" d="M 1228 531 
L 3431 531 
L 3431 0 
L 469 0 
L 469 531 
Q 828 903 1448 1529 
Q 2069 2156 2228 2338 
Q 2531 2678 2651 2914 
Q 2772 3150 2772 3378 
Q 2772 3750 2511 3984 
Q 2250 4219 1831 4219 
Q 1534 4219 1204 4116 
Q 875 4013 500 3803 
L 500 4441 
Q 881 4594 1212 4672 
Q 1544 4750 1819 4750 
Q 2544 4750 2975 4387 
Q 3406 4025 3406 3419 
Q 3406 3131 3298 2873 
Q 3191 2616 2906 2266 
Q 2828 2175 2409 1742 
Q 1991 1309 1228 531 
z
" transform="scale(0.015625)"/>
       </defs>
       <use xlink:href="#DejaVuSans-32"/>
       <use xlink:href="#DejaVuSans-30" transform="translate(63.623047 0)"/>
       <use xlink:href="#DejaVuSans-30" transform="translate(127.246094 0)"/>
      </g>
     </g>
    </g>
    <g id="xtick_5">
     <g id="line2d_5">
      <g>
       <use xlink:href="#md53622984a" x="711.210007" y="390.04" style="stroke: #000000; stroke-width: 0.8"/>
      </g>
     </g>
     <g id="text_5">
      <!-- 250 -->
      <g transform="translate(701.666257 404.638438) scale(0.1 -0.1)">
       <use xlink:href="#DejaVuSans-32"/>
       <use xlink:href="#DejaVuSans-35" transform="translate(63.623047 0)"/>
       <use xlink:href="#DejaVuSans-30" transform="translate(127.246094 0)"/>
      </g>
     </g>
    </g>
    <g id="xtick_6">
     <g id="line2d_6">
      <g>
       <use xlink:href="#md53622984a" x="843.542673" y="390.04" style="stroke: #000000; stroke-width: 0.8"/>
      </g>
     </g>
     <g id="text_6">
      <!-- 300 -->
      <g transform="translate(833.998923 404.638438) scale(0.1 -0.1)">
       <defs>
        <path id="DejaVuSans-33" d="M 2597 2516 
Q 3050 2419 3304 2112 
Q 3559 1806 3559 1356 
Q 3559 666 3084 287 
Q 2609 -91 1734 -91 
Q 1441 -91 1130 -33 
Q 819 25 488 141 
L 488 750 
Q 750 597 1062 519 
Q 1375 441 1716 441 
Q 2309 441 2620 675 
Q 2931 909 2931 1356 
Q 2931 1769 2642 2001 
Q 2353 2234 1838 2234 
L 1294 2234 
L 1294 2753 
L 1863 2753 
Q 2328 2753 2575 2939 
Q 2822 3125 2822 3475 
Q 2822 3834 2567 4026 
Q 2313 4219 1838 4219 
Q 1578 4219 1281 4162 
Q 984 4106 628 3988 
L 628 4550 
Q 988 4650 1302 4700 
Q 1616 4750 1894 4750 
Q 2613 4750 3031 4423 
Q 3450 4097 3450 3541 
Q 3450 3153 3228 2886 
Q 3006 2619 2597 2516 
z
" transform="scale(0.015625)"/>
       </defs>
       <use xlink:href="#DejaVuSans-33"/>
       <use xlink:href="#DejaVuSans-30" transform="translate(63.623047 0)"/>
       <use xlink:href="#DejaVuSans-30" transform="translate(127.246094 0)"/>
      </g>
     </g>
    </g>
    <g id="text_7">
     <!-- Step -->
     <g transform="translate(436.482844 418.316562) scale(0.1 -0.1)">
      <defs>
       <path id="DejaVuSans-53" d="M 3425 4513 
L 3425 3897 
Q 3066 4069 2747 4153 
Q 2428 4238 2131 4238 
Q 1616 4238 1336 4038 
Q 1056 3838 1056 3469 
Q 1056 3159 1242 3001 
Q 1428 2844 1947 2747 
L 2328 2669 
Q 3034 2534 3370 2195 
Q 3706 1856 3706 1288 
Q 3706 609 3251 259 
Q 2797 -91 1919 -91 
Q 1588 -91 1214 -16 
Q 841 59 441 206 
L 441 856 
Q 825 641 1194 531 
Q 1563 422 1919 422 
Q 2459 422 2753 634 
Q 3047 847 3047 1241 
Q 3047 1584 2836 1778 
Q 2625 1972 2144 2069 
L 1759 2144 
Q 1053 2284 737 2584 
Q 422 2884 422 3419 
Q 422 4038 858 4394 
Q 1294 4750 2059 4750 
Q 2388 4750 2728 4690 
Q 3069 4631 3425 4513 
z
" transform="scale(0.015625)"/>
       <path id="DejaVuSans-74" d="M 1172 4494 
L 1172 3500 
L 2356 3500 
L 2356 3053 
L 1172 3053 
L 1172 1153 
Q 1172 725 1289 603 
Q 1406 481 1766 481 
L 2356 481 
L 2356 0 
L 1766 0 
Q 1100 0 847 248 
Q 594 497 594 1153 
L 594 3053 
L 172 3053 
L 172 3500 
L 594 3500 
L 594 4494 
L 1172 4494 
z
" transform="scale(0.015625)"/>
       <path id="DejaVuSans-65" d="M 3597 1894 
L 3597 1613 
L 953 1613 
Q 991 1019 1311 708 
Q 1631 397 2203 397 
Q 2534 397 2845 478 
Q 3156 559 3463 722 
L 3463 178 
Q 3153 47 2828 -22 
Q 2503 -91 2169 -91 
Q 1331 -91 842 396 
Q 353 884 353 1716 
Q 353 2575 817 3079 
Q 1281 3584 2069 3584 
Q 2775 3584 3186 3129 
Q 3597 2675 3597 1894 
z
M 3022 2063 
Q 3016 2534 2758 2815 
Q 2500 3097 2075 3097 
Q 1594 3097 1305 2825 
Q 1016 2553 972 2059 
L 3022 2063 
z
" transform="scale(0.015625)"/>
       <path id="DejaVuSans-70" d="M 1159 525 
L 1159 -1331 
L 581 -1331 
L 581 3500 
L 1159 3500 
L 1159 2969 
Q 1341 3281 1617 3432 
Q 1894 3584 2278 3584 
Q 2916 3584 3314 3078 
Q 3713 2572 3713 1747 
Q 3713 922 3314 415 
Q 2916 -91 2278 -91 
Q 1894 -91 1617 61 
Q 1341 213 1159 525 
z
M 3116 1747 
Q 3116 2381 2855 2742 
Q 2594 3103 2138 3103 
Q 1681 3103 1420 2742 
Q 1159 2381 1159 1747 
Q 1159 1113 1420 752 
Q 1681 391 2138 391 
Q 2594 391 2855 752 
Q 3116 1113 3116 1747 
z
" transform="scale(0.015625)"/>
      </defs>
      <use xlink:href="#DejaVuSans-53"/>
      <use xlink:href="#DejaVuSans-74" transform="translate(63.476562 0)"/>
      <use xlink:href="#DejaVuSans-65" transform="translate(102.685547 0)"/>
      <use xlink:href="#DejaVuSans-70" transform="translate(164.208984 0)"/>
     </g>
    </g>
   </g>
   <g id="matplotlib.axis_2">
    <g id="ytick_1">
     <g id="line2d_7">
      <defs>
       <path id="mb06e93aba7" d="M 0 0 
L -3.5 0 
" style="stroke: #000000; stroke-width: 0.8"/>
      </defs>
      <g>
       <use xlink:href="#mb06e93aba7" x="50.87" y="375.589423" style="stroke: #000000; stroke-width: 0.8"/>
      </g>
     </g>
     <g id="text_8">
      <!-- 75 -->
      <g transform="translate(31.145 379.388641) scale(0.1 -0.1)">
       <defs>
        <path id="DejaVuSans-37" d="M 525 4666 
L 3525 4666 
L 3525 4397 
L 1831 0 
L 1172 0 
L 2766 4134 
L 525 4134 
L 525 4666 
z
" transform="scale(0.015625)"/>
       </defs>
       <use xlink:href="#DejaVuSans-37"/>
       <use xlink:href="#DejaVuSans-35" transform="translate(63.623047 0)"/>
      </g>
     </g>
    </g>
    <g id="ytick_2">
     <g id="line2d_8">
      <g>
       <use xlink:href="#mb06e93aba7" x="50.87" y="335.83761" style="stroke: #000000; stroke-width: 0.8"/>
      </g>
     </g>
     <g id="text_9">
      <!-- 100 -->
      <g transform="translate(24.7825 339.636829) scale(0.1 -0.1)">
       <use xlink:href="#DejaVuSans-31"/>
       <use xlink:href="#DejaVuSans-30" transform="translate(63.623047 0)"/>
       <use xlink:href="#DejaVuSans-30" transform="translate(127.246094 0)"/>
      </g>
     </g>
    </g>
    <g id="ytick_3">
     <g id="line2d_9">
      <g>
       <use xlink:href="#mb06e93aba7" x="50.87" y="296.085797" style="stroke: #000000; stroke-width: 0.8"/>
      </g>
     </g>
     <g id="text_10">
      <!-- 125 -->
      <g transform="translate(24.7825 299.885016) scale(0.1 -0.1)">
       <use xlink:href="#DejaVuSans-31"/>
       <use xlink:href="#DejaVuSans-32" transform="translate(63.623047 0)"/>
       <use xlink:href="#DejaVuSans-35" transform="translate(127.246094 0)"/>
      </g>
     </g>
    </g>
    <g id="ytick_4">
     <g id="line2d_10">
      <g>
       <use xlink:href="#mb06e93aba7" x="50.87" y="256.333985" style="stroke: #000000; stroke-width: 0.8"/>
      </g>
     </g>
     <g id="text_11">
      <!-- 150 -->
      <g transform="translate(24.7825 260.133203) scale(0.1 -0.1)">
       <use xlink:href="#DejaVuSans-31"/>
       <use xlink:href="#DejaVuSans-35" transform="translate(63.623047 0)"/>
       <use xlink:href="#DejaVuSans-30" transform="translate(127.246094 0)"/>
      </g>
     </g>
    </g>
    <g id="ytick_5">
     <g id="line2d_11">
      <g>
       <use xlink:href="#mb06e93aba7" x="50.87" y="216.582172" style="stroke: #000000; stroke-width: 0.8"/>
      </g>
     </g>
     <g id="text_12">
      <!-- 175 -->
      <g transform="translate(24.7825 220.381391) scale(0.1 -0.1)">
       <use xlink:href="#DejaVuSans-31"/>
       <use xlink:href="#DejaVuSans-37" transform="translate(63.623047 0)"/>
       <use xlink:href="#DejaVuSans-35" transform="translate(127.246094 0)"/>
      </g>
     </g>
    </g>
    <g id="ytick_6">
     <g id="line2d_12">
      <g>
       <use xlink:href="#mb06e93aba7" x="50.87" y="176.830359" style="stroke: #000000; stroke-width: 0.8"/>
      </g>
     </g>
     <g id="text_13">
      <!-- 200 -->
      <g transform="translate(24.7825 180.629578) scale(0.1 -0.1)">
       <use xlink:href="#DejaVuSans-32"/>
       <use xlink:href="#DejaVuSans-30" transform="translate(63.623047 0)"/>
       <use xlink:href="#DejaVuSans-30" transform="translate(127.246094 0)"/>
      </g>
     </g>
    </g>
    <g id="ytick_7">
     <g id="line2d_13">
      <g>
       <use xlink:href="#mb06e93aba7" x="50.87" y="137.078547" style="stroke: #000000; stroke-width: 0.8"/>
      </g>
     </g>
     <g id="text_14">
      <!-- 225 -->
      <g transform="translate(24.7825 140.877765) scale(0.1 -0.1)">
       <use xlink:href="#DejaVuSans-32"/>
       <use xlink:href="#DejaVuSans-32" transform="translate(63.623047 0)"/>
       <use xlink:href="#DejaVuSans-35" transform="translate(127.246094 0)"/>
      </g>
     </g>
    </g>
    <g id="ytick_8">
     <g id="line2d_14">
      <g>
       <use xlink:href="#mb06e93aba7" x="50.87" y="97.326734" style="stroke: #000000; stroke-width: 0.8"/>
      </g>
     </g>
     <g id="text_15">
      <!-- 250 -->
      <g transform="translate(24.7825 101.125953) scale(0.1 -0.1)">
       <use xlink:href="#DejaVuSans-32"/>
       <use xlink:href="#DejaVuSans-35" transform="translate(63.623047 0)"/>
       <use xlink:href="#DejaVuSans-30" transform="translate(127.246094 0)"/>
      </g>
     </g>
    </g>
    <g id="ytick_9">
     <g id="line2d_15">
      <g>
       <use xlink:href="#mb06e93aba7" x="50.87" y="57.574921" style="stroke: #000000; stroke-width: 0.8"/>
      </g>
     </g>
     <g id="text_16">
      <!-- 275 -->
      <g transform="translate(24.7825 61.37414) scale(0.1 -0.1)">
       <use xlink:href="#DejaVuSans-32"/>
       <use xlink:href="#DejaVuSans-37" transform="translate(63.623047 0)"/>
       <use xlink:href="#DejaVuSans-35" transform="translate(127.246094 0)"/>
      </g>
     </g>
    </g>
    <g id="text_17">
     <!-- Profit -->
     <g transform="translate(18.702813 229.779063) rotate(-90) scale(0.1 -0.1)">
      <defs>
       <path id="DejaVuSans-50" d="M 1259 4147 
L 1259 2394 
L 2053 2394 
Q 2494 2394 2734 2622 
Q 2975 2850 2975 3272 
Q 2975 3691 2734 3919 
Q 2494 4147 2053 4147 
L 1259 4147 
z
M 628 4666 
L 2053 4666 
Q 2838 4666 3239 4311 
Q 3641 3956 3641 3272 
Q 3641 2581 3239 2228 
Q 2838 1875 2053 1875 
L 1259 1875 
L 1259 0 
L 628 0 
L 628 4666 
z
" transform="scale(0.015625)"/>
       <path id="DejaVuSans-72" d="M 2631 2963 
Q 2534 3019 2420 3045 
Q 2306 3072 2169 3072 
Q 1681 3072 1420 2755 
Q 1159 2438 1159 1844 
L 1159 0 
L 581 0 
L 581 3500 
L 1159 3500 
L 1159 2956 
Q 1341 3275 1631 3429 
Q 1922 3584 2338 3584 
Q 2397 3584 2469 3576 
Q 2541 3569 2628 3553 
L 2631 2963 
z
" transform="scale(0.015625)"/>
       <path id="DejaVuSans-6f" d="M 1959 3097 
Q 1497 3097 1228 2736 
Q 959 2375 959 1747 
Q 959 1119 1226 758 
Q 1494 397 1959 397 
Q 2419 397 2687 759 
Q 2956 1122 2956 1747 
Q 2956 2369 2687 2733 
Q 2419 3097 1959 3097 
z
M 1959 3584 
Q 2709 3584 3137 3096 
Q 3566 2609 3566 1747 
Q 3566 888 3137 398 
Q 2709 -91 1959 -91 
Q 1206 -91 779 398 
Q 353 888 353 1747 
Q 353 2609 779 3096 
Q 1206 3584 1959 3584 
z
" transform="scale(0.015625)"/>
       <path id="DejaVuSans-66" d="M 2375 4863 
L 2375 4384 
L 1825 4384 
Q 1516 4384 1395 4259 
Q 1275 4134 1275 3809 
L 1275 3500 
L 2222 3500 
L 2222 3053 
L 1275 3053 
L 1275 0 
L 697 0 
L 697 3053 
L 147 3053 
L 147 3500 
L 697 3500 
L 697 3744 
Q 697 4328 969 4595 
Q 1241 4863 1831 4863 
L 2375 4863 
z
" transform="scale(0.015625)"/>
       <path id="DejaVuSans-69" d="M 603 3500 
L 1178 3500 
L 1178 0 
L 603 0 
L 603 3500 
z
M 603 4863 
L 1178 4863 
L 1178 4134 
L 603 4134 
L 603 4863 
z
" transform="scale(0.015625)"/>
      </defs>
      <use xlink:href="#DejaVuSans-50"/>
      <use xlink:href="#DejaVuSans-72" transform="translate(58.552734 0)"/>
      <use xlink:href="#DejaVuSans-6f" transform="translate(97.416016 0)"/>
      <use xlink:href="#DejaVuSans-66" transform="translate(158.597656 0)"/>
      <use xlink:href="#DejaVuSans-69" transform="translate(193.802734 0)"/>
      <use xlink:href="#DejaVuSans-74" transform="translate(221.585938 0)"/>
     </g>
    </g>
   </g>
   <g id="line2d_16">
    <path d="M 52.193327 247.342588 
L 54.83998 247.413604 
L 62.77994 223.280343 
L 68.073247 210.660646 
L 70.7199 205.420827 
L 73.366553 200.586362 
L 78.65986 192.823015 
L 83.953167 186.349346 
L 86.59982 183.485512 
L 91.893127 178.496325 
L 94.53978 176.249319 
L 97.186433 174.219536 
L 105.126393 169.10166 
L 107.773047 167.426741 
L 115.713007 163.026455 
L 123.652967 159.612904 
L 131.592927 156.6831 
L 134.23958 155.883381 
L 136.886233 154.912077 
L 139.532887 154.183957 
L 144.826193 152.385105 
L 150.1195 151.001701 
L 160.706113 148.291426 
L 165.99942 147.243161 
L 168.646073 146.576085 
L 189.8193 142.470711 
L 195.112607 141.561447 
L 200.405913 140.5973 
L 205.69922 139.952716 
L 255.985633 133.989241 
L 274.512207 132.347052 
L 285.09882 131.410419 
L 322.151967 128.501579 
L 327.445273 128.246894 
L 332.73858 127.872935 
L 340.67854 127.347383 
L 367.145073 125.85669 
L 377.731687 125.426733 
L 380.37834 125.223316 
L 385.671647 124.973314 
L 396.25826 124.56563 
L 404.19822 124.130262 
L 417.431487 123.491186 
L 433.311407 122.594975 
L 443.89802 122.211844 
L 449.191327 121.949177 
L 467.7179 121.334873 
L 533.884233 119.032645 
L 544.470847 118.677029 
L 568.290727 117.946676 
L 573.584033 117.888446 
L 637.103713 116.134674 
L 674.15686 115.22308 
L 692.683433 114.781671 
L 716.503313 114.455194 
L 727.089927 114.236685 
L 745.6165 113.876677 
L 766.789727 113.568178 
L 777.37634 113.344647 
L 782.669647 113.232627 
L 832.95606 112.427012 
L 843.542673 112.275686 
L 843.542673 112.275686 
" clip-path="url(#p18f312947c)" style="fill: none; stroke: #0000ff; stroke-width: 1.5; stroke-linecap: square"/>
   </g>
   <g id="patch_3">
    <path d="M 50.87 390.04 
L 50.87 43.44 
" style="fill: none; stroke: #000000; stroke-width: 0.8; stroke-linejoin: miter; stroke-linecap: square"/>
   </g>
   <g id="patch_4">
    <path d="M 844.866 390.04 
L 844.866 43.44 
" style="fill: none; stroke: #000000; stroke-width: 0.8; stroke-linejoin: miter; stroke-linecap: square"/>
   </g>
   <g id="patch_5">
    <path d="M 50.87 390.04 
L 844.866 390.04 
" style="fill: none; stroke: #000000; stroke-width: 0.8; stroke-linejoin: miter; stroke-linecap: square"/>
   </g>
   <g id="patch_6">
    <path d="M 50.87 43.44 
L 844.866 43.44 
" style="fill: none; stroke: #000000; stroke-width: 0.8; stroke-linejoin: miter; stroke-linecap: square"/>
   </g>
   <g id="text_18">
    <!-- Mean profit per step with confidence interval per simulation step -->
    <g transform="translate(220.284875 21.763062) scale(0.14 -0.14)">
     <defs>
      <path id="DejaVuSans-4d" d="M 628 4666 
L 1569 4666 
L 2759 1491 
L 3956 4666 
L 4897 4666 
L 4897 0 
L 4281 0 
L 4281 4097 
L 3078 897 
L 2444 897 
L 1241 4097 
L 1241 0 
L 628 0 
L 628 4666 
z
" transform="scale(0.015625)"/>
      <path id="DejaVuSans-61" d="M 2194 1759 
Q 1497 1759 1228 1600 
Q 959 1441 959 1056 
Q 959 750 1161 570 
Q 1363 391 1709 391 
Q 2188 391 2477 730 
Q 2766 1069 2766 1631 
L 2766 1759 
L 2194 1759 
z
M 3341 1997 
L 3341 0 
L 2766 0 
L 2766 531 
Q 2569 213 2275 61 
Q 1981 -91 1556 -91 
Q 1019 -91 701 211 
Q 384 513 384 1019 
Q 384 1609 779 1909 
Q 1175 2209 1959 2209 
L 2766 2209 
L 2766 2266 
Q 2766 2663 2505 2880 
Q 2244 3097 1772 3097 
Q 1472 3097 1187 3025 
Q 903 2953 641 2809 
L 641 3341 
Q 956 3463 1253 3523 
Q 1550 3584 1831 3584 
Q 2591 3584 2966 3190 
Q 3341 2797 3341 1997 
z
" transform="scale(0.015625)"/>
      <path id="DejaVuSans-6e" d="M 3513 2113 
L 3513 0 
L 2938 0 
L 2938 2094 
Q 2938 2591 2744 2837 
Q 2550 3084 2163 3084 
Q 1697 3084 1428 2787 
Q 1159 2491 1159 1978 
L 1159 0 
L 581 0 
L 581 3500 
L 1159 3500 
L 1159 2956 
Q 1366 3272 1645 3428 
Q 1925 3584 2291 3584 
Q 2894 3584 3203 3211 
Q 3513 2838 3513 2113 
z
" transform="scale(0.015625)"/>
      <path id="DejaVuSans-20" transform="scale(0.015625)"/>
      <path id="DejaVuSans-73" d="M 2834 3397 
L 2834 2853 
Q 2591 2978 2328 3040 
Q 2066 3103 1784 3103 
Q 1356 3103 1142 2972 
Q 928 2841 928 2578 
Q 928 2378 1081 2264 
Q 1234 2150 1697 2047 
L 1894 2003 
Q 2506 1872 2764 1633 
Q 3022 1394 3022 966 
Q 3022 478 2636 193 
Q 2250 -91 1575 -91 
Q 1294 -91 989 -36 
Q 684 19 347 128 
L 347 722 
Q 666 556 975 473 
Q 1284 391 1588 391 
Q 1994 391 2212 530 
Q 2431 669 2431 922 
Q 2431 1156 2273 1281 
Q 2116 1406 1581 1522 
L 1381 1569 
Q 847 1681 609 1914 
Q 372 2147 372 2553 
Q 372 3047 722 3315 
Q 1072 3584 1716 3584 
Q 2034 3584 2315 3537 
Q 2597 3491 2834 3397 
z
" transform="scale(0.015625)"/>
      <path id="DejaVuSans-77" d="M 269 3500 
L 844 3500 
L 1563 769 
L 2278 3500 
L 2956 3500 
L 3675 769 
L 4391 3500 
L 4966 3500 
L 4050 0 
L 3372 0 
L 2619 2869 
L 1863 0 
L 1184 0 
L 269 3500 
z
" transform="scale(0.015625)"/>
      <path id="DejaVuSans-68" d="M 3513 2113 
L 3513 0 
L 2938 0 
L 2938 2094 
Q 2938 2591 2744 2837 
Q 2550 3084 2163 3084 
Q 1697 3084 1428 2787 
Q 1159 2491 1159 1978 
L 1159 0 
L 581 0 
L 581 4863 
L 1159 4863 
L 1159 2956 
Q 1366 3272 1645 3428 
Q 1925 3584 2291 3584 
Q 2894 3584 3203 3211 
Q 3513 2838 3513 2113 
z
" transform="scale(0.015625)"/>
      <path id="DejaVuSans-63" d="M 3122 3366 
L 3122 2828 
Q 2878 2963 2633 3030 
Q 2388 3097 2138 3097 
Q 1578 3097 1268 2742 
Q 959 2388 959 1747 
Q 959 1106 1268 751 
Q 1578 397 2138 397 
Q 2388 397 2633 464 
Q 2878 531 3122 666 
L 3122 134 
Q 2881 22 2623 -34 
Q 2366 -91 2075 -91 
Q 1284 -91 818 406 
Q 353 903 353 1747 
Q 353 2603 823 3093 
Q 1294 3584 2113 3584 
Q 2378 3584 2631 3529 
Q 2884 3475 3122 3366 
z
" transform="scale(0.015625)"/>
      <path id="DejaVuSans-64" d="M 2906 2969 
L 2906 4863 
L 3481 4863 
L 3481 0 
L 2906 0 
L 2906 525 
Q 2725 213 2448 61 
Q 2172 -91 1784 -91 
Q 1150 -91 751 415 
Q 353 922 353 1747 
Q 353 2572 751 3078 
Q 1150 3584 1784 3584 
Q 2172 3584 2448 3432 
Q 2725 3281 2906 2969 
z
M 947 1747 
Q 947 1113 1208 752 
Q 1469 391 1925 391 
Q 2381 391 2643 752 
Q 2906 1113 2906 1747 
Q 2906 2381 2643 2742 
Q 2381 3103 1925 3103 
Q 1469 3103 1208 2742 
Q 947 2381 947 1747 
z
" transform="scale(0.015625)"/>
      <path id="DejaVuSans-76" d="M 191 3500 
L 800 3500 
L 1894 563 
L 2988 3500 
L 3597 3500 
L 2284 0 
L 1503 0 
L 191 3500 
z
" transform="scale(0.015625)"/>
      <path id="DejaVuSans-6c" d="M 603 4863 
L 1178 4863 
L 1178 0 
L 603 0 
L 603 4863 
z
" transform="scale(0.015625)"/>
      <path id="DejaVuSans-6d" d="M 3328 2828 
Q 3544 3216 3844 3400 
Q 4144 3584 4550 3584 
Q 5097 3584 5394 3201 
Q 5691 2819 5691 2113 
L 5691 0 
L 5113 0 
L 5113 2094 
Q 5113 2597 4934 2840 
Q 4756 3084 4391 3084 
Q 3944 3084 3684 2787 
Q 3425 2491 3425 1978 
L 3425 0 
L 2847 0 
L 2847 2094 
Q 2847 2600 2669 2842 
Q 2491 3084 2119 3084 
Q 1678 3084 1418 2786 
Q 1159 2488 1159 1978 
L 1159 0 
L 581 0 
L 581 3500 
L 1159 3500 
L 1159 2956 
Q 1356 3278 1631 3431 
Q 1906 3584 2284 3584 
Q 2666 3584 2933 3390 
Q 3200 3197 3328 2828 
z
" transform="scale(0.015625)"/>
      <path id="DejaVuSans-75" d="M 544 1381 
L 544 3500 
L 1119 3500 
L 1119 1403 
Q 1119 906 1312 657 
Q 1506 409 1894 409 
Q 2359 409 2629 706 
Q 2900 1003 2900 1516 
L 2900 3500 
L 3475 3500 
L 3475 0 
L 2900 0 
L 2900 538 
Q 2691 219 2414 64 
Q 2138 -91 1772 -91 
Q 1169 -91 856 284 
Q 544 659 544 1381 
z
M 1991 3584 
L 1991 3584 
z
" transform="scale(0.015625)"/>
     </defs>
     <use xlink:href="#DejaVuSans-4d"/>
     <use xlink:href="#DejaVuSans-65" transform="translate(86.279297 0)"/>
     <use xlink:href="#DejaVuSans-61" transform="translate(147.802734 0)"/>
     <use xlink:href="#DejaVuSans-6e" transform="translate(209.082031 0)"/>
     <use xlink:href="#DejaVuSans-20" transform="translate(272.460938 0)"/>
     <use xlink:href="#DejaVuSans-70" transform="translate(304.248047 0)"/>
     <use xlink:href="#DejaVuSans-72" transform="translate(367.724609 0)"/>
     <use xlink:href="#DejaVuSans-6f" transform="translate(406.587891 0)"/>
     <use xlink:href="#DejaVuSans-66" transform="translate(467.769531 0)"/>
     <use xlink:href="#DejaVuSans-69" transform="translate(502.974609 0)"/>
     <use xlink:href="#DejaVuSans-74" transform="translate(530.757812 0)"/>
     <use xlink:href="#DejaVuSans-20" transform="translate(569.966797 0)"/>
     <use xlink:href="#DejaVuSans-70" transform="translate(601.753906 0)"/>
     <use xlink:href="#DejaVuSans-65" transform="translate(665.230469 0)"/>
     <use xlink:href="#DejaVuSans-72" transform="translate(726.753906 0)"/>
     <use xlink:href="#DejaVuSans-20" transform="translate(767.867188 0)"/>
     <use xlink:href="#DejaVuSans-73" transform="translate(799.654297 0)"/>
     <use xlink:href="#DejaVuSans-74" transform="translate(851.753906 0)"/>
     <use xlink:href="#DejaVuSans-65" transform="translate(890.962891 0)"/>
     <use xlink:href="#DejaVuSans-70" transform="translate(952.486328 0)"/>
     <use xlink:href="#DejaVuSans-20" transform="translate(1015.962891 0)"/>
     <use xlink:href="#DejaVuSans-77" transform="translate(1047.75 0)"/>
     <use xlink:href="#DejaVuSans-69" transform="translate(1129.537109 0)"/>
     <use xlink:href="#DejaVuSans-74" transform="translate(1157.320312 0)"/>
     <use xlink:href="#DejaVuSans-68" transform="translate(1196.529297 0)"/>
     <use xlink:href="#DejaVuSans-20" transform="translate(1259.908203 0)"/>
     <use xlink:href="#DejaVuSans-63" transform="translate(1291.695312 0)"/>
     <use xlink:href="#DejaVuSans-6f" transform="translate(1346.675781 0)"/>
     <use xlink:href="#DejaVuSans-6e" transform="translate(1407.857422 0)"/>
     <use xlink:href="#DejaVuSans-66" transform="translate(1471.236328 0)"/>
     <use xlink:href="#DejaVuSans-69" transform="translate(1506.441406 0)"/>
     <use xlink:href="#DejaVuSans-64" transform="translate(1534.224609 0)"/>
     <use xlink:href="#DejaVuSans-65" transform="translate(1597.701172 0)"/>
     <use xlink:href="#DejaVuSans-6e" transform="translate(1659.224609 0)"/>
     <use xlink:href="#DejaVuSans-63" transform="translate(1722.603516 0)"/>
     <use xlink:href="#DejaVuSans-65" transform="translate(1777.583984 0)"/>
     <use xlink:href="#DejaVuSans-20" transform="translate(1839.107422 0)"/>
     <use xlink:href="#DejaVuSans-69" transform="translate(1870.894531 0)"/>
     <use xlink:href="#DejaVuSans-6e" transform="translate(1898.677734 0)"/>
     <use xlink:href="#DejaVuSans-74" transform="translate(1962.056641 0)"/>
     <use xlink:href="#DejaVuSans-65" transform="translate(2001.265625 0)"/>
     <use xlink:href="#DejaVuSans-72" transform="translate(2062.789062 0)"/>
     <use xlink:href="#DejaVuSans-76" transform="translate(2103.902344 0)"/>
     <use xlink:href="#DejaVuSans-61" transform="translate(2163.082031 0)"/>
     <use xlink:href="#DejaVuSans-6c" transform="translate(2224.361328 0)"/>
     <use xlink:href="#DejaVuSans-20" transform="translate(2252.144531 0)"/>
     <use xlink:href="#DejaVuSans-70" transform="translate(2283.931641 0)"/>
     <use xlink:href="#DejaVuSans-65" transform="translate(2347.408203 0)"/>
     <use xlink:href="#DejaVuSans-72" transform="translate(2408.931641 0)"/>
     <use xlink:href="#DejaVuSans-20" transform="translate(2450.044922 0)"/>
     <use xlink:href="#DejaVuSans-73" transform="translate(2481.832031 0)"/>
     <use xlink:href="#DejaVuSans-69" transform="translate(2533.931641 0)"/>
     <use xlink:href="#DejaVuSans-6d" transform="translate(2561.714844 0)"/>
     <use xlink:href="#DejaVuSans-75" transform="translate(2659.126953 0)"/>
     <use xlink:href="#DejaVuSans-6c" transform="translate(2722.505859 0)"/>
     <use xlink:href="#DejaVuSans-61" transform="translate(2750.289062 0)"/>
     <use xlink:href="#DejaVuSans-74" transform="translate(2811.568359 0)"/>
     <use xlink:href="#DejaVuSans-69" transform="translate(2850.777344 0)"/>
     <use xlink:href="#DejaVuSans-6f" transform="translate(2878.560547 0)"/>
     <use xlink:href="#DejaVuSans-6e" transform="translate(2939.742188 0)"/>
     <use xlink:href="#DejaVuSans-20" transform="translate(3003.121094 0)"/>
     <use xlink:href="#DejaVuSans-73" transform="translate(3034.908203 0)"/>
     <use xlink:href="#DejaVuSans-74" transform="translate(3087.007812 0)"/>
     <use xlink:href="#DejaVuSans-65" transform="translate(3126.216797 0)"/>
     <use xlink:href="#DejaVuSans-70" transform="translate(3187.740234 0)"/>
    </g>
    <!-- Base Product: Meth, Recipe size: 7, T0: 20.0 -->
    <g transform="translate(293.881125 37.44) scale(0.14 -0.14)">
     <defs>
      <path id="DejaVuSans-42" d="M 1259 2228 
L 1259 519 
L 2272 519 
Q 2781 519 3026 730 
Q 3272 941 3272 1375 
Q 3272 1813 3026 2020 
Q 2781 2228 2272 2228 
L 1259 2228 
z
M 1259 4147 
L 1259 2741 
L 2194 2741 
Q 2656 2741 2882 2914 
Q 3109 3088 3109 3444 
Q 3109 3797 2882 3972 
Q 2656 4147 2194 4147 
L 1259 4147 
z
M 628 4666 
L 2241 4666 
Q 2963 4666 3353 4366 
Q 3744 4066 3744 3513 
Q 3744 3084 3544 2831 
Q 3344 2578 2956 2516 
Q 3422 2416 3680 2098 
Q 3938 1781 3938 1306 
Q 3938 681 3513 340 
Q 3088 0 2303 0 
L 628 0 
L 628 4666 
z
" transform="scale(0.015625)"/>
      <path id="DejaVuSans-3a" d="M 750 794 
L 1409 794 
L 1409 0 
L 750 0 
L 750 794 
z
M 750 3309 
L 1409 3309 
L 1409 2516 
L 750 2516 
L 750 3309 
z
" transform="scale(0.015625)"/>
      <path id="DejaVuSans-2c" d="M 750 794 
L 1409 794 
L 1409 256 
L 897 -744 
L 494 -744 
L 750 256 
L 750 794 
z
" transform="scale(0.015625)"/>
      <path id="DejaVuSans-52" d="M 2841 2188 
Q 3044 2119 3236 1894 
Q 3428 1669 3622 1275 
L 4263 0 
L 3584 0 
L 2988 1197 
Q 2756 1666 2539 1819 
Q 2322 1972 1947 1972 
L 1259 1972 
L 1259 0 
L 628 0 
L 628 4666 
L 2053 4666 
Q 2853 4666 3247 4331 
Q 3641 3997 3641 3322 
Q 3641 2881 3436 2590 
Q 3231 2300 2841 2188 
z
M 1259 4147 
L 1259 2491 
L 2053 2491 
Q 2509 2491 2742 2702 
Q 2975 2913 2975 3322 
Q 2975 3731 2742 3939 
Q 2509 4147 2053 4147 
L 1259 4147 
z
" transform="scale(0.015625)"/>
      <path id="DejaVuSans-7a" d="M 353 3500 
L 3084 3500 
L 3084 2975 
L 922 459 
L 3084 459 
L 3084 0 
L 275 0 
L 275 525 
L 2438 3041 
L 353 3041 
L 353 3500 
z
" transform="scale(0.015625)"/>
      <path id="DejaVuSans-54" d="M -19 4666 
L 3928 4666 
L 3928 4134 
L 2272 4134 
L 2272 0 
L 1638 0 
L 1638 4134 
L -19 4134 
L -19 4666 
z
" transform="scale(0.015625)"/>
      <path id="DejaVuSans-2e" d="M 684 794 
L 1344 794 
L 1344 0 
L 684 0 
L 684 794 
z
" transform="scale(0.015625)"/>
     </defs>
     <use xlink:href="#DejaVuSans-42"/>
     <use xlink:href="#DejaVuSans-61" transform="translate(68.603516 0)"/>
     <use xlink:href="#DejaVuSans-73" transform="translate(129.882812 0)"/>
     <use xlink:href="#DejaVuSans-65" transform="translate(181.982422 0)"/>
     <use xlink:href="#DejaVuSans-20" transform="translate(243.505859 0)"/>
     <use xlink:href="#DejaVuSans-50" transform="translate(275.292969 0)"/>
     <use xlink:href="#DejaVuSans-72" transform="translate(333.845703 0)"/>
     <use xlink:href="#DejaVuSans-6f" transform="translate(372.708984 0)"/>
     <use xlink:href="#DejaVuSans-64" transform="translate(433.890625 0)"/>
     <use xlink:href="#DejaVuSans-75" transform="translate(497.367188 0)"/>
     <use xlink:href="#DejaVuSans-63" transform="translate(560.746094 0)"/>
     <use xlink:href="#DejaVuSans-74" transform="translate(615.726562 0)"/>
     <use xlink:href="#DejaVuSans-3a" transform="translate(654.935547 0)"/>
     <use xlink:href="#DejaVuSans-20" transform="translate(688.626953 0)"/>
     <use xlink:href="#DejaVuSans-4d" transform="translate(720.414062 0)"/>
     <use xlink:href="#DejaVuSans-65" transform="translate(806.693359 0)"/>
     <use xlink:href="#DejaVuSans-74" transform="translate(868.216797 0)"/>
     <use xlink:href="#DejaVuSans-68" transform="translate(907.425781 0)"/>
     <use xlink:href="#DejaVuSans-2c" transform="translate(970.804688 0)"/>
     <use xlink:href="#DejaVuSans-20" transform="translate(1002.591797 0)"/>
     <use xlink:href="#DejaVuSans-52" transform="translate(1034.378906 0)"/>
     <use xlink:href="#DejaVuSans-65" transform="translate(1099.361328 0)"/>
     <use xlink:href="#DejaVuSans-63" transform="translate(1160.884766 0)"/>
     <use xlink:href="#DejaVuSans-69" transform="translate(1215.865234 0)"/>
     <use xlink:href="#DejaVuSans-70" transform="translate(1243.648438 0)"/>
     <use xlink:href="#DejaVuSans-65" transform="translate(1307.125 0)"/>
     <use xlink:href="#DejaVuSans-20" transform="translate(1368.648438 0)"/>
     <use xlink:href="#DejaVuSans-73" transform="translate(1400.435547 0)"/>
     <use xlink:href="#DejaVuSans-69" transform="translate(1452.535156 0)"/>
     <use xlink:href="#DejaVuSans-7a" transform="translate(1480.318359 0)"/>
     <use xlink:href="#DejaVuSans-65" transform="translate(1532.808594 0)"/>
     <use xlink:href="#DejaVuSans-3a" transform="translate(1594.332031 0)"/>
     <use xlink:href="#DejaVuSans-20" transform="translate(1628.023438 0)"/>
     <use xlink:href="#DejaVuSans-37" transform="translate(1659.810547 0)"/>
     <use xlink:href="#DejaVuSans-2c" transform="translate(1723.433594 0)"/>
     <use xlink:href="#DejaVuSans-20" transform="translate(1755.220703 0)"/>
     <use xlink:href="#DejaVuSans-54" transform="translate(1787.007812 0)"/>
     <use xlink:href="#DejaVuSans-30" transform="translate(1848.091797 0)"/>
     <use xlink:href="#DejaVuSans-3a" transform="translate(1911.714844 0)"/>
     <use xlink:href="#DejaVuSans-20" transform="translate(1945.40625 0)"/>
     <use xlink:href="#DejaVuSans-32" transform="translate(1977.193359 0)"/>
     <use xlink:href="#DejaVuSans-30" transform="translate(2040.816406 0)"/>
     <use xlink:href="#DejaVuSans-2e" transform="translate(2104.439453 0)"/>
     <use xlink:href="#DejaVuSans-30" transform="translate(2136.226562 0)"/>
    </g>
   </g>
  </g>
 </g>
 <defs>
  <clipPath id="p18f312947c">
   <rect x="50.87" y="43.44" width="793.996" height="346.6"/>
  </clipPath>
 </defs>
</svg>
