<?xml version="1.0" encoding="utf-8" standalone="no"?>
<!DOCTYPE svg PUBLIC "-//W3C//DTD SVG 1.1//EN"
  "http://www.w3.org/Graphics/SVG/1.1/DTD/svg11.dtd">
<svg xmlns:xlink="http://www.w3.org/1999/xlink" width="864pt" height="432pt" viewBox="0 0 864 432" xmlns="http://www.w3.org/2000/svg" version="1.1">
 <metadata>
  <rdf:RDF xmlns:dc="http://purl.org/dc/elements/1.1/" xmlns:cc="http://creativecommons.org/ns#" xmlns:rdf="http://www.w3.org/1999/02/22-rdf-syntax-ns#">
   <cc:Work>
    <dc:type rdf:resource="http://purl.org/dc/dcmitype/StillImage"/>
    <dc:date>2025-05-24T02:17:26.264536</dc:date>
    <dc:format>image/svg+xml</dc:format>
    <dc:creator>
     <cc:Agent>
      <dc:title>Matplotlib v3.10.3, https://matplotlib.org/</dc:title>
     </cc:Agent>
    </dc:creator>
   </cc:Work>
  </rdf:RDF>
 </metadata>
 <defs>
  <style type="text/css">*{stroke-linejoin: round; stroke-linecap: butt}</style>
 </defs>
 <g id="figure_1">
  <g id="patch_1">
   <path d="M 0 432 
L 864 432 
L 864 0 
L 0 0 
z
" style="fill: #ffffff"/>
  </g>
  <g id="axes_1">
   <g id="patch_2">
    <path d="M 50.87 390.04 
L 844.866 390.04 
L 844.866 43.44 
L 50.87 43.44 
z
" style="fill: #ffffff"/>
   </g>
   <g id="FillBetweenPolyCollection_1">
    <defs>
     <path id="m0175b2375e" d="M 52.193327 -302.467307 
L 52.193327 -58.345098 
L 54.83998 -57.714545 
L 57.486633 -76.023337 
L 60.133287 -90.416553 
L 62.77994 -103.287531 
L 65.426593 -114.589503 
L 68.073247 -124.664314 
L 70.7199 -133.144165 
L 73.366553 -140.460112 
L 76.013207 -147.58426 
L 78.65986 -153.996332 
L 81.306513 -159.563761 
L 83.953167 -164.812442 
L 86.59982 -169.523224 
L 89.246473 -173.874655 
L 91.893127 -177.345694 
L 94.53978 -180.9629 
L 97.186433 -184.763904 
L 99.833087 -187.754242 
L 102.47974 -190.908261 
L 105.126393 -193.203468 
L 107.773047 -195.855556 
L 110.4197 -198.064812 
L 113.066353 -200.36424 
L 115.713007 -202.747563 
L 118.35966 -205.073753 
L 121.006313 -207.15217 
L 123.652967 -209.027352 
L 126.29962 -210.737279 
L 128.946273 -212.377762 
L 131.592927 -214.369681 
L 134.23958 -215.966063 
L 136.886233 -217.305641 
L 139.532887 -218.619878 
L 142.17954 -219.92351 
L 144.826193 -221.148975 
L 147.472847 -222.049658 
L 150.1195 -223.372225 
L 152.766153 -224.572742 
L 155.412807 -225.66588 
L 158.05946 -226.768136 
L 160.706113 -227.850451 
L 163.352767 -228.811022 
L 165.99942 -229.644383 
L 168.646073 -230.197741 
L 171.292727 -231.011926 
L 173.93938 -231.838618 
L 176.586033 -232.893864 
L 179.232687 -233.588076 
L 181.87934 -234.329561 
L 184.525993 -235.041702 
L 187.172647 -235.579777 
L 189.8193 -236.282713 
L 192.465953 -237.016938 
L 195.112607 -237.658805 
L 197.75926 -238.217061 
L 200.405913 -238.857792 
L 203.052567 -239.517414 
L 205.69922 -240.11647 
L 208.345873 -240.712618 
L 210.992527 -241.275662 
L 213.63918 -241.931392 
L 216.285833 -242.53587 
L 218.932487 -243.078493 
L 221.57914 -243.560178 
L 224.225793 -244.082181 
L 226.872447 -244.591482 
L 229.5191 -245.192112 
L 232.165753 -245.735609 
L 234.812407 -246.179511 
L 237.45906 -246.644185 
L 240.105713 -247.185671 
L 242.752367 -247.668405 
L 245.39902 -248.210284 
L 248.045673 -248.495797 
L 250.692327 -248.851583 
L 253.33898 -249.272287 
L 255.985633 -249.636557 
L 258.632287 -250.104226 
L 261.27894 -250.567129 
L 263.925593 -250.950597 
L 266.572247 -251.322082 
L 269.2189 -251.646645 
L 271.865553 -251.997425 
L 274.512207 -252.392 
L 277.15886 -252.71676 
L 279.805513 -253.064828 
L 282.452167 -253.363656 
L 285.09882 -253.622581 
L 287.745473 -253.962734 
L 290.392127 -254.335991 
L 293.03878 -254.692608 
L 295.685433 -254.994235 
L 298.332087 -255.305745 
L 300.97874 -255.644958 
L 303.625393 -255.843885 
L 306.272047 -256.033738 
L 308.9187 -256.237432 
L 311.565353 -256.469922 
L 314.212007 -256.705605 
L 316.85866 -256.987969 
L 319.505313 -257.297117 
L 322.151967 -257.534352 
L 324.79862 -257.849142 
L 327.445273 -258.095756 
L 330.091927 -258.313641 
L 332.73858 -258.545103 
L 335.385233 -258.719367 
L 338.031887 -258.932222 
L 340.67854 -259.203872 
L 343.325193 -259.535257 
L 345.971847 -259.769606 
L 348.6185 -260.015412 
L 351.265153 -260.263229 
L 353.911807 -260.443702 
L 356.55846 -260.613506 
L 359.205113 -260.861629 
L 361.851767 -261.152761 
L 364.49842 -261.32873 
L 367.145073 -261.525974 
L 369.791727 -261.739201 
L 372.43838 -261.925403 
L 375.085033 -262.133797 
L 377.731687 -262.385704 
L 380.37834 -262.658753 
L 383.024993 -262.886105 
L 385.671647 -263.084157 
L 388.3183 -263.281467 
L 390.964953 -263.453063 
L 393.611607 -263.611103 
L 396.25826 -263.835918 
L 398.904913 -263.999971 
L 401.551567 -264.193891 
L 404.19822 -264.363651 
L 406.844873 -264.507872 
L 409.491527 -264.71126 
L 412.13818 -264.8693 
L 414.784833 -265.034008 
L 417.431487 -265.19148 
L 420.07814 -265.325402 
L 422.724793 -265.502334 
L 425.371447 -265.712893 
L 428.0181 -265.908038 
L 430.664753 -266.072768 
L 433.311407 -266.269465 
L 435.95806 -266.384672 
L 438.604713 -266.527822 
L 441.251367 -266.659471 
L 443.89802 -266.854899 
L 446.544673 -267.05785 
L 449.191327 -267.20487 
L 451.83798 -267.36772 
L 454.484633 -267.564723 
L 457.131287 -267.724731 
L 459.77794 -267.912354 
L 462.424593 -268.070569 
L 465.071247 -268.169267 
L 467.7179 -268.266566 
L 470.364553 -268.404556 
L 473.011207 -268.502992 
L 475.65786 -268.595831 
L 478.304513 -268.671133 
L 480.951167 -268.787061 
L 483.59782 -268.900584 
L 486.244473 -269.058078 
L 488.891127 -269.134714 
L 491.53778 -269.267675 
L 494.184433 -269.375272 
L 496.831087 -269.482367 
L 499.47774 -269.604636 
L 502.124393 -269.741379 
L 504.771047 -269.827418 
L 507.4177 -269.935059 
L 510.064353 -270.066074 
L 512.711007 -270.139758 
L 515.35766 -270.214537 
L 518.004313 -270.266466 
L 520.650967 -270.40767 
L 523.29762 -270.540893 
L 525.944273 -270.690996 
L 528.590927 -270.773798 
L 531.23758 -270.85964 
L 533.884233 -270.932647 
L 536.530887 -271.003337 
L 539.17754 -271.047066 
L 541.824193 -271.145371 
L 544.470847 -271.228546 
L 547.1175 -271.374341 
L 549.764153 -271.455919 
L 552.410807 -271.579478 
L 555.05746 -271.697308 
L 557.704113 -271.8182 
L 560.350767 -271.851915 
L 562.99742 -271.923501 
L 565.644073 -271.992398 
L 568.290727 -272.055194 
L 570.93738 -272.135394 
L 573.584033 -272.214283 
L 576.230687 -272.292713 
L 578.87734 -272.348381 
L 581.523993 -272.439077 
L 584.170647 -272.522929 
L 586.8173 -272.571272 
L 589.463953 -272.689824 
L 592.110607 -272.765542 
L 594.75726 -272.858643 
L 597.403913 -272.923189 
L 600.050567 -272.981852 
L 602.69722 -273.067956 
L 605.343873 -273.197944 
L 607.990527 -273.27786 
L 610.63718 -273.421775 
L 613.283833 -273.503856 
L 615.930487 -273.61423 
L 618.57714 -273.720385 
L 621.223793 -273.743562 
L 623.870447 -273.748416 
L 626.5171 -273.836881 
L 629.163753 -273.966125 
L 631.810407 -273.986634 
L 634.45706 -274.061303 
L 637.103713 -274.129019 
L 639.750367 -274.241645 
L 642.39702 -274.280412 
L 645.043673 -274.400997 
L 647.690327 -274.464515 
L 650.33698 -274.508157 
L 652.983633 -274.591222 
L 655.630287 -274.665475 
L 658.27694 -274.731223 
L 660.923593 -274.793014 
L 663.570247 -274.903388 
L 666.2169 -275.023252 
L 668.863553 -275.095952 
L 671.510207 -275.17178 
L 674.15686 -275.214942 
L 676.803513 -275.251565 
L 679.450167 -275.329405 
L 682.09682 -275.412972 
L 684.743473 -275.46101 
L 687.390127 -275.558199 
L 690.03678 -275.604684 
L 692.683433 -275.627686 
L 695.330087 -275.707821 
L 697.97674 -275.733338 
L 700.623393 -275.832211 
L 703.270047 -275.870081 
L 705.9167 -275.953999 
L 708.563353 -276.004638 
L 711.210007 -276.087987 
L 713.85666 -276.129706 
L 716.503313 -276.173217 
L 719.149967 -276.216903 
L 721.79662 -276.249132 
L 724.443273 -276.281601 
L 727.089927 -276.342145 
L 729.73658 -276.399038 
L 732.383233 -276.448409 
L 735.029887 -276.473904 
L 737.67654 -276.522794 
L 740.323193 -276.573958 
L 742.969847 -276.660543 
L 745.6165 -276.760925 
L 748.263153 -276.840557 
L 750.909807 -276.911246 
L 753.55646 -276.955851 
L 756.203113 -276.991709 
L 758.849767 -277.000783 
L 761.49642 -277.052144 
L 764.143073 -277.091435 
L 766.789727 -277.112644 
L 769.43638 -277.155215 
L 772.083033 -277.185651 
L 774.729687 -277.216241 
L 777.37634 -277.279365 
L 780.022993 -277.320908 
L 782.669647 -277.418382 
L 785.3163 -277.501206 
L 787.962953 -277.544543 
L 790.609607 -277.638168 
L 793.25626 -277.651353 
L 795.902913 -277.698559 
L 798.549567 -277.774999 
L 801.19622 -277.802702 
L 803.842873 -277.842518 
L 806.489527 -277.900504 
L 809.13618 -277.923244 
L 811.782833 -277.960655 
L 814.429487 -277.962513 
L 817.07614 -278.000318 
L 819.722793 -278.086356 
L 822.369447 -278.130742 
L 825.0161 -278.180988 
L 827.662753 -278.210243 
L 830.309407 -278.247435 
L 832.95606 -278.3033 
L 835.602713 -278.336666 
L 838.249367 -278.396379 
L 840.89602 -278.407727 
L 843.542673 -278.434206 
L 843.542673 -372.805455 
L 843.542673 -372.805455 
L 840.89602 -372.783677 
L 838.249367 -372.746419 
L 835.602713 -372.728009 
L 832.95606 -372.690882 
L 830.309407 -372.661146 
L 827.662753 -372.633771 
L 825.0161 -372.598044 
L 822.369447 -372.606309 
L 819.722793 -372.587286 
L 817.07614 -372.599137 
L 814.429487 -372.574517 
L 811.782833 -372.510715 
L 809.13618 -372.467466 
L 806.489527 -372.419101 
L 803.842873 -372.367849 
L 801.19622 -372.34218 
L 798.549567 -372.309514 
L 795.902913 -372.307765 
L 793.25626 -372.279034 
L 790.609607 -372.249735 
L 787.962953 -372.232811 
L 785.3163 -372.202856 
L 782.669647 -372.197959 
L 780.022993 -372.197565 
L 777.37634 -372.168529 
L 774.729687 -372.146882 
L 772.083033 -372.068518 
L 769.43638 -372.020066 
L 766.789727 -371.990941 
L 764.143073 -371.949311 
L 761.49642 -371.917169 
L 758.849767 -371.905231 
L 756.203113 -371.832508 
L 753.55646 -371.809681 
L 750.909807 -371.77942 
L 748.263153 -371.756112 
L 745.6165 -371.743124 
L 742.969847 -371.737046 
L 740.323193 -371.71763 
L 737.67654 -371.687718 
L 735.029887 -371.660343 
L 732.383233 -371.644907 
L 729.73658 -371.610841 
L 727.089927 -371.593655 
L 724.443273 -371.583291 
L 721.79662 -371.538774 
L 719.149967 -371.484418 
L 716.503313 -371.452626 
L 713.85666 -371.412001 
L 711.210007 -371.368709 
L 708.563353 -371.361624 
L 705.9167 -371.352266 
L 703.270047 -371.362893 
L 700.623393 -371.322399 
L 697.97674 -371.325154 
L 695.330087 -371.284441 
L 692.683433 -371.259296 
L 690.03678 -371.187404 
L 687.390127 -371.138821 
L 684.743473 -371.137946 
L 682.09682 -371.096709 
L 679.450167 -371.073138 
L 676.803513 -371.046988 
L 674.15686 -371.002821 
L 671.510207 -370.95533 
L 668.863553 -370.906702 
L 666.2169 -370.879983 
L 663.570247 -370.868132 
L 660.923593 -370.862185 
L 658.27694 -370.793573 
L 655.630287 -370.76646 
L 652.983633 -370.761956 
L 650.33698 -370.747263 
L 647.690327 -370.713416 
L 645.043673 -370.681581 
L 642.39702 -370.703096 
L 639.750367 -370.637457 
L 637.103713 -370.626918 
L 634.45706 -370.587561 
L 631.810407 -370.57864 
L 629.163753 -370.509678 
L 626.5171 -370.540595 
L 623.870447 -370.524678 
L 621.223793 -370.43302 
L 618.57714 -370.352732 
L 615.930487 -370.360691 
L 613.283833 -370.352207 
L 610.63718 -370.324089 
L 607.990527 -370.343636 
L 605.343873 -370.304585 
L 602.69722 -370.284863 
L 600.050567 -370.23523 
L 597.403913 -370.173877 
L 594.75726 -370.125555 
L 592.110607 -370.097612 
L 589.463953 -370.05926 
L 586.8173 -370.051345 
L 584.170647 -370.006828 
L 581.523993 -369.945825 
L 578.87734 -369.897985 
L 576.230687 -369.816166 
L 573.584033 -369.787392 
L 570.93738 -369.733167 
L 568.290727 -369.689655 
L 565.644073 -369.614921 
L 562.99742 -369.547183 
L 560.350767 -369.501136 
L 557.704113 -369.419492 
L 555.05746 -369.420848 
L 552.410807 -369.428107 
L 549.764153 -369.375631 
L 547.1175 -369.280956 
L 544.470847 -369.277195 
L 541.824193 -369.261889 
L 539.17754 -369.225594 
L 536.530887 -369.163322 
L 533.884233 -369.055703 
L 531.23758 -368.959104 
L 528.590927 -368.896089 
L 525.944273 -368.847549 
L 523.29762 -368.854021 
L 520.650967 -368.792449 
L 518.004313 -368.750381 
L 515.35766 -368.680632 
L 512.711007 -368.617048 
L 510.064353 -368.488176 
L 507.4177 -368.456341 
L 504.771047 -368.41471 
L 502.124393 -368.350121 
L 499.47774 -368.313956 
L 496.831087 -368.250373 
L 494.184433 -368.202226 
L 491.53778 -368.170653 
L 488.891127 -368.138599 
L 486.244473 -368.076241 
L 483.59782 -368.02359 
L 480.951167 -368.013619 
L 478.304513 -368.002206 
L 475.65786 -367.88912 
L 473.011207 -367.837388 
L 470.364553 -367.79685 
L 467.7179 -367.751852 
L 465.071247 -367.667366 
L 462.424593 -367.580693 
L 459.77794 -367.53329 
L 457.131287 -367.525375 
L 454.484633 -367.446355 
L 451.83798 -367.384827 
L 449.191327 -367.345033 
L 446.544673 -367.300166 
L 443.89802 -367.28368 
L 441.251367 -367.301915 
L 438.604713 -367.258142 
L 435.95806 -367.201074 
L 433.311407 -367.129663 
L 430.664753 -367.125072 
L 428.0181 -367.019726 
L 425.371447 -366.983037 
L 422.724793 -366.976696 
L 420.07814 -366.914687 
L 417.431487 -366.841658 
L 414.784833 -366.782491 
L 412.13818 -366.743353 
L 409.491527 -366.682306 
L 406.844873 -366.652526 
L 404.19822 -366.562967 
L 401.551567 -366.472359 
L 398.904913 -366.409956 
L 396.25826 -366.327438 
L 393.611607 -366.281565 
L 390.964953 -366.182124 
L 388.3183 -366.086705 
L 385.671647 -366.017437 
L 383.024993 -365.949437 
L 380.37834 -365.959451 
L 377.731687 -365.958926 
L 375.085033 -365.884236 
L 372.43838 -365.839106 
L 369.791727 -365.774386 
L 367.145073 -365.747099 
L 364.49842 -365.644814 
L 361.851767 -365.561902 
L 359.205113 -365.496439 
L 356.55846 -365.407492 
L 353.911807 -365.273154 
L 351.265153 -365.142008 
L 348.6185 -365.074008 
L 345.971847 -365.025074 
L 343.325193 -364.98528 
L 340.67854 -364.948547 
L 338.031887 -364.852647 
L 335.385233 -364.720495 
L 332.73858 -364.572513 
L 330.091927 -364.48138 
L 327.445273 -364.361998 
L 324.79862 -364.273051 
L 322.151967 -364.19062 
L 319.505313 -364.065072 
L 316.85866 -363.939173 
L 314.212007 -363.85648 
L 311.565353 -363.730188 
L 308.9187 -363.581157 
L 306.272047 -363.467153 
L 303.625393 -363.324549 
L 300.97874 -363.203461 
L 298.332087 -363.127765 
L 295.685433 -363.028367 
L 293.03878 -362.944974 
L 290.392127 -362.883009 
L 287.745473 -362.819557 
L 285.09882 -362.7244 
L 282.452167 -362.578605 
L 279.805513 -362.48288 
L 277.15886 -362.374911 
L 274.512207 -362.271533 
L 271.865553 -362.183155 
L 269.2189 -362.019824 
L 266.572247 -361.902016 
L 263.925593 -361.809658 
L 261.27894 -361.640467 
L 258.632287 -361.553576 
L 255.985633 -361.456627 
L 253.33898 -361.307333 
L 250.692327 -361.165692 
L 248.045673 -360.992084 
L 245.39902 -360.800285 
L 242.752367 -360.727824 
L 240.105713 -360.639883 
L 237.45906 -360.533663 
L 234.812407 -360.365522 
L 232.165753 -360.21203 
L 229.5191 -360.090505 
L 226.872447 -360.060331 
L 224.225793 -359.82607 
L 221.57914 -359.676251 
L 218.932487 -359.464249 
L 216.285833 -359.350376 
L 213.63918 -359.217612 
L 210.992527 -359.089658 
L 208.345873 -358.919549 
L 205.69922 -358.698101 
L 203.052567 -358.495107 
L 200.405913 -358.352766 
L 197.75926 -358.124977 
L 195.112607 -357.801856 
L 192.465953 -357.621471 
L 189.8193 -357.468853 
L 187.172647 -357.196722 
L 184.525993 -356.864156 
L 181.87934 -356.525556 
L 179.232687 -356.218484 
L 176.586033 -355.996817 
L 173.93938 -355.878834 
L 171.292727 -355.662983 
L 168.646073 -355.379482 
L 165.99942 -354.936586 
L 163.352767 -354.450922 
L 160.706113 -354.126227 
L 158.05946 -353.984455 
L 155.412807 -353.69833 
L 152.766153 -353.404684 
L 150.1195 -353.15468 
L 147.472847 -352.870654 
L 144.826193 -352.248159 
L 142.17954 -351.817551 
L 139.532887 -351.481355 
L 136.886233 -351.125306 
L 134.23958 -350.547153 
L 131.592927 -350.125903 
L 128.946273 -350.025018 
L 126.29962 -349.69993 
L 123.652967 -349.298052 
L 121.006313 -348.781296 
L 118.35966 -348.4465 
L 115.713007 -348.090582 
L 113.066353 -347.73051 
L 110.4197 -347.193551 
L 107.773047 -346.464617 
L 105.126393 -346.044242 
L 102.47974 -345.034606 
L 99.833087 -344.434456 
L 97.186433 -343.578575 
L 94.53978 -343.217366 
L 91.893127 -342.621021 
L 89.246473 -341.103375 
L 86.59982 -340.48241 
L 83.953167 -339.426289 
L 81.306513 -338.22586 
L 78.65986 -336.829258 
L 76.013207 -335.350619 
L 73.366553 -333.672877 
L 70.7199 -331.170259 
L 68.073247 -328.110521 
L 65.426593 -325.303324 
L 62.77994 -321.342138 
L 60.133287 -317.362717 
L 57.486633 -311.101601 
L 54.83998 -304.43782 
L 52.193327 -302.467307 
z
" style="stroke: #0000ff; stroke-opacity: 0.2"/>
    </defs>
    <g clip-path="url(#p87221cf93e)">
     <use xlink:href="#m0175b2375e" x="0" y="432" style="fill: #0000ff; fill-opacity: 0.2; stroke: #0000ff; stroke-opacity: 0.2"/>
    </g>
   </g>
   <g id="matplotlib.axis_1">
    <g id="xtick_1">
     <g id="line2d_1">
      <defs>
       <path id="m1e27018e96" d="M 0 0 
L 0 3.5 
" style="stroke: #000000; stroke-width: 0.8"/>
      </defs>
      <g>
       <use xlink:href="#m1e27018e96" x="181.87934" y="390.04" style="stroke: #000000; stroke-width: 0.8"/>
      </g>
     </g>
     <g id="text_1">
      <!-- 50 -->
      <g transform="translate(175.51684 404.638438) scale(0.1 -0.1)">
       <defs>
        <path id="DejaVuSans-35" d="M 691 4666 
L 3169 4666 
L 3169 4134 
L 1269 4134 
L 1269 2991 
Q 1406 3038 1543 3061 
Q 1681 3084 1819 3084 
Q 2600 3084 3056 2656 
Q 3513 2228 3513 1497 
Q 3513 744 3044 326 
Q 2575 -91 1722 -91 
Q 1428 -91 1123 -41 
Q 819 9 494 109 
L 494 744 
Q 775 591 1075 516 
Q 1375 441 1709 441 
Q 2250 441 2565 725 
Q 2881 1009 2881 1497 
Q 2881 1984 2565 2268 
Q 2250 2553 1709 2553 
Q 1456 2553 1204 2497 
Q 953 2441 691 2322 
L 691 4666 
z
" transform="scale(0.015625)"/>
        <path id="DejaVuSans-30" d="M 2034 4250 
Q 1547 4250 1301 3770 
Q 1056 3291 1056 2328 
Q 1056 1369 1301 889 
Q 1547 409 2034 409 
Q 2525 409 2770 889 
Q 3016 1369 3016 2328 
Q 3016 3291 2770 3770 
Q 2525 4250 2034 4250 
z
M 2034 4750 
Q 2819 4750 3233 4129 
Q 3647 3509 3647 2328 
Q 3647 1150 3233 529 
Q 2819 -91 2034 -91 
Q 1250 -91 836 529 
Q 422 1150 422 2328 
Q 422 3509 836 4129 
Q 1250 4750 2034 4750 
z
" transform="scale(0.015625)"/>
       </defs>
       <use xlink:href="#DejaVuSans-35"/>
       <use xlink:href="#DejaVuSans-30" transform="translate(63.623047 0)"/>
      </g>
     </g>
    </g>
    <g id="xtick_2">
     <g id="line2d_2">
      <g>
       <use xlink:href="#m1e27018e96" x="314.212007" y="390.04" style="stroke: #000000; stroke-width: 0.8"/>
      </g>
     </g>
     <g id="text_2">
      <!-- 100 -->
      <g transform="translate(304.668257 404.638438) scale(0.1 -0.1)">
       <defs>
        <path id="DejaVuSans-31" d="M 794 531 
L 1825 531 
L 1825 4091 
L 703 3866 
L 703 4441 
L 1819 4666 
L 2450 4666 
L 2450 531 
L 3481 531 
L 3481 0 
L 794 0 
L 794 531 
z
" transform="scale(0.015625)"/>
       </defs>
       <use xlink:href="#DejaVuSans-31"/>
       <use xlink:href="#DejaVuSans-30" transform="translate(63.623047 0)"/>
       <use xlink:href="#DejaVuSans-30" transform="translate(127.246094 0)"/>
      </g>
     </g>
    </g>
    <g id="xtick_3">
     <g id="line2d_3">
      <g>
       <use xlink:href="#m1e27018e96" x="446.544673" y="390.04" style="stroke: #000000; stroke-width: 0.8"/>
      </g>
     </g>
     <g id="text_3">
      <!-- 150 -->
      <g transform="translate(437.000923 404.638438) scale(0.1 -0.1)">
       <use xlink:href="#DejaVuSans-31"/>
       <use xlink:href="#DejaVuSans-35" transform="translate(63.623047 0)"/>
       <use xlink:href="#DejaVuSans-30" transform="translate(127.246094 0)"/>
      </g>
     </g>
    </g>
    <g id="xtick_4">
     <g id="line2d_4">
      <g>
       <use xlink:href="#m1e27018e96" x="578.87734" y="390.04" style="stroke: #000000; stroke-width: 0.8"/>
      </g>
     </g>
     <g id="text_4">
      <!-- 200 -->
      <g transform="translate(569.33359 404.638438) scale(0.1 -0.1)">
       <defs>
        <path id="DejaVuSans-32" d="M 1228 531 
L 3431 531 
L 3431 0 
L 469 0 
L 469 531 
Q 828 903 1448 1529 
Q 2069 2156 2228 2338 
Q 2531 2678 2651 2914 
Q 2772 3150 2772 3378 
Q 2772 3750 2511 3984 
Q 2250 4219 1831 4219 
Q 1534 4219 1204 4116 
Q 875 4013 500 3803 
L 500 4441 
Q 881 4594 1212 4672 
Q 1544 4750 1819 4750 
Q 2544 4750 2975 4387 
Q 3406 4025 3406 3419 
Q 3406 3131 3298 2873 
Q 3191 2616 2906 2266 
Q 2828 2175 2409 1742 
Q 1991 1309 1228 531 
z
" transform="scale(0.015625)"/>
       </defs>
       <use xlink:href="#DejaVuSans-32"/>
       <use xlink:href="#DejaVuSans-30" transform="translate(63.623047 0)"/>
       <use xlink:href="#DejaVuSans-30" transform="translate(127.246094 0)"/>
      </g>
     </g>
    </g>
    <g id="xtick_5">
     <g id="line2d_5">
      <g>
       <use xlink:href="#m1e27018e96" x="711.210007" y="390.04" style="stroke: #000000; stroke-width: 0.8"/>
      </g>
     </g>
     <g id="text_5">
      <!-- 250 -->
      <g transform="translate(701.666257 404.638438) scale(0.1 -0.1)">
       <use xlink:href="#DejaVuSans-32"/>
       <use xlink:href="#DejaVuSans-35" transform="translate(63.623047 0)"/>
       <use xlink:href="#DejaVuSans-30" transform="translate(127.246094 0)"/>
      </g>
     </g>
    </g>
    <g id="xtick_6">
     <g id="line2d_6">
      <g>
       <use xlink:href="#m1e27018e96" x="843.542673" y="390.04" style="stroke: #000000; stroke-width: 0.8"/>
      </g>
     </g>
     <g id="text_6">
      <!-- 300 -->
      <g transform="translate(833.998923 404.638438) scale(0.1 -0.1)">
       <defs>
        <path id="DejaVuSans-33" d="M 2597 2516 
Q 3050 2419 3304 2112 
Q 3559 1806 3559 1356 
Q 3559 666 3084 287 
Q 2609 -91 1734 -91 
Q 1441 -91 1130 -33 
Q 819 25 488 141 
L 488 750 
Q 750 597 1062 519 
Q 1375 441 1716 441 
Q 2309 441 2620 675 
Q 2931 909 2931 1356 
Q 2931 1769 2642 2001 
Q 2353 2234 1838 2234 
L 1294 2234 
L 1294 2753 
L 1863 2753 
Q 2328 2753 2575 2939 
Q 2822 3125 2822 3475 
Q 2822 3834 2567 4026 
Q 2313 4219 1838 4219 
Q 1578 4219 1281 4162 
Q 984 4106 628 3988 
L 628 4550 
Q 988 4650 1302 4700 
Q 1616 4750 1894 4750 
Q 2613 4750 3031 4423 
Q 3450 4097 3450 3541 
Q 3450 3153 3228 2886 
Q 3006 2619 2597 2516 
z
" transform="scale(0.015625)"/>
       </defs>
       <use xlink:href="#DejaVuSans-33"/>
       <use xlink:href="#DejaVuSans-30" transform="translate(63.623047 0)"/>
       <use xlink:href="#DejaVuSans-30" transform="translate(127.246094 0)"/>
      </g>
     </g>
    </g>
    <g id="text_7">
     <!-- Step -->
     <g transform="translate(436.482844 418.316562) scale(0.1 -0.1)">
      <defs>
       <path id="DejaVuSans-53" d="M 3425 4513 
L 3425 3897 
Q 3066 4069 2747 4153 
Q 2428 4238 2131 4238 
Q 1616 4238 1336 4038 
Q 1056 3838 1056 3469 
Q 1056 3159 1242 3001 
Q 1428 2844 1947 2747 
L 2328 2669 
Q 3034 2534 3370 2195 
Q 3706 1856 3706 1288 
Q 3706 609 3251 259 
Q 2797 -91 1919 -91 
Q 1588 -91 1214 -16 
Q 841 59 441 206 
L 441 856 
Q 825 641 1194 531 
Q 1563 422 1919 422 
Q 2459 422 2753 634 
Q 3047 847 3047 1241 
Q 3047 1584 2836 1778 
Q 2625 1972 2144 2069 
L 1759 2144 
Q 1053 2284 737 2584 
Q 422 2884 422 3419 
Q 422 4038 858 4394 
Q 1294 4750 2059 4750 
Q 2388 4750 2728 4690 
Q 3069 4631 3425 4513 
z
" transform="scale(0.015625)"/>
       <path id="DejaVuSans-74" d="M 1172 4494 
L 1172 3500 
L 2356 3500 
L 2356 3053 
L 1172 3053 
L 1172 1153 
Q 1172 725 1289 603 
Q 1406 481 1766 481 
L 2356 481 
L 2356 0 
L 1766 0 
Q 1100 0 847 248 
Q 594 497 594 1153 
L 594 3053 
L 172 3053 
L 172 3500 
L 594 3500 
L 594 4494 
L 1172 4494 
z
" transform="scale(0.015625)"/>
       <path id="DejaVuSans-65" d="M 3597 1894 
L 3597 1613 
L 953 1613 
Q 991 1019 1311 708 
Q 1631 397 2203 397 
Q 2534 397 2845 478 
Q 3156 559 3463 722 
L 3463 178 
Q 3153 47 2828 -22 
Q 2503 -91 2169 -91 
Q 1331 -91 842 396 
Q 353 884 353 1716 
Q 353 2575 817 3079 
Q 1281 3584 2069 3584 
Q 2775 3584 3186 3129 
Q 3597 2675 3597 1894 
z
M 3022 2063 
Q 3016 2534 2758 2815 
Q 2500 3097 2075 3097 
Q 1594 3097 1305 2825 
Q 1016 2553 972 2059 
L 3022 2063 
z
" transform="scale(0.015625)"/>
       <path id="DejaVuSans-70" d="M 1159 525 
L 1159 -1331 
L 581 -1331 
L 581 3500 
L 1159 3500 
L 1159 2969 
Q 1341 3281 1617 3432 
Q 1894 3584 2278 3584 
Q 2916 3584 3314 3078 
Q 3713 2572 3713 1747 
Q 3713 922 3314 415 
Q 2916 -91 2278 -91 
Q 1894 -91 1617 61 
Q 1341 213 1159 525 
z
M 3116 1747 
Q 3116 2381 2855 2742 
Q 2594 3103 2138 3103 
Q 1681 3103 1420 2742 
Q 1159 2381 1159 1747 
Q 1159 1113 1420 752 
Q 1681 391 2138 391 
Q 2594 391 2855 752 
Q 3116 1113 3116 1747 
z
" transform="scale(0.015625)"/>
      </defs>
      <use xlink:href="#DejaVuSans-53"/>
      <use xlink:href="#DejaVuSans-74" transform="translate(63.476562 0)"/>
      <use xlink:href="#DejaVuSans-65" transform="translate(102.685547 0)"/>
      <use xlink:href="#DejaVuSans-70" transform="translate(164.208984 0)"/>
     </g>
    </g>
   </g>
   <g id="matplotlib.axis_2">
    <g id="ytick_1">
     <g id="line2d_7">
      <defs>
       <path id="m459cdfd36e" d="M 0 0 
L -3.5 0 
" style="stroke: #000000; stroke-width: 0.8"/>
      </defs>
      <g>
       <use xlink:href="#m459cdfd36e" x="50.87" y="342.122199" style="stroke: #000000; stroke-width: 0.8"/>
      </g>
     </g>
     <g id="text_8">
      <!-- 100 -->
      <g transform="translate(24.7825 345.921418) scale(0.1 -0.1)">
       <use xlink:href="#DejaVuSans-31"/>
       <use xlink:href="#DejaVuSans-30" transform="translate(63.623047 0)"/>
       <use xlink:href="#DejaVuSans-30" transform="translate(127.246094 0)"/>
      </g>
     </g>
    </g>
    <g id="ytick_2">
     <g id="line2d_8">
      <g>
       <use xlink:href="#m459cdfd36e" x="50.87" y="270.475128" style="stroke: #000000; stroke-width: 0.8"/>
      </g>
     </g>
     <g id="text_9">
      <!-- 150 -->
      <g transform="translate(24.7825 274.274347) scale(0.1 -0.1)">
       <use xlink:href="#DejaVuSans-31"/>
       <use xlink:href="#DejaVuSans-35" transform="translate(63.623047 0)"/>
       <use xlink:href="#DejaVuSans-30" transform="translate(127.246094 0)"/>
      </g>
     </g>
    </g>
    <g id="ytick_3">
     <g id="line2d_9">
      <g>
       <use xlink:href="#m459cdfd36e" x="50.87" y="198.828057" style="stroke: #000000; stroke-width: 0.8"/>
      </g>
     </g>
     <g id="text_10">
      <!-- 200 -->
      <g transform="translate(24.7825 202.627276) scale(0.1 -0.1)">
       <use xlink:href="#DejaVuSans-32"/>
       <use xlink:href="#DejaVuSans-30" transform="translate(63.623047 0)"/>
       <use xlink:href="#DejaVuSans-30" transform="translate(127.246094 0)"/>
      </g>
     </g>
    </g>
    <g id="ytick_4">
     <g id="line2d_10">
      <g>
       <use xlink:href="#m459cdfd36e" x="50.87" y="127.180986" style="stroke: #000000; stroke-width: 0.8"/>
      </g>
     </g>
     <g id="text_11">
      <!-- 250 -->
      <g transform="translate(24.7825 130.980205) scale(0.1 -0.1)">
       <use xlink:href="#DejaVuSans-32"/>
       <use xlink:href="#DejaVuSans-35" transform="translate(63.623047 0)"/>
       <use xlink:href="#DejaVuSans-30" transform="translate(127.246094 0)"/>
      </g>
     </g>
    </g>
    <g id="ytick_5">
     <g id="line2d_11">
      <g>
       <use xlink:href="#m459cdfd36e" x="50.87" y="55.533915" style="stroke: #000000; stroke-width: 0.8"/>
      </g>
     </g>
     <g id="text_12">
      <!-- 300 -->
      <g transform="translate(24.7825 59.333134) scale(0.1 -0.1)">
       <use xlink:href="#DejaVuSans-33"/>
       <use xlink:href="#DejaVuSans-30" transform="translate(63.623047 0)"/>
       <use xlink:href="#DejaVuSans-30" transform="translate(127.246094 0)"/>
      </g>
     </g>
    </g>
    <g id="text_13">
     <!-- Profit -->
     <g transform="translate(18.702813 229.779063) rotate(-90) scale(0.1 -0.1)">
      <defs>
       <path id="DejaVuSans-50" d="M 1259 4147 
L 1259 2394 
L 2053 2394 
Q 2494 2394 2734 2622 
Q 2975 2850 2975 3272 
Q 2975 3691 2734 3919 
Q 2494 4147 2053 4147 
L 1259 4147 
z
M 628 4666 
L 2053 4666 
Q 2838 4666 3239 4311 
Q 3641 3956 3641 3272 
Q 3641 2581 3239 2228 
Q 2838 1875 2053 1875 
L 1259 1875 
L 1259 0 
L 628 0 
L 628 4666 
z
" transform="scale(0.015625)"/>
       <path id="DejaVuSans-72" d="M 2631 2963 
Q 2534 3019 2420 3045 
Q 2306 3072 2169 3072 
Q 1681 3072 1420 2755 
Q 1159 2438 1159 1844 
L 1159 0 
L 581 0 
L 581 3500 
L 1159 3500 
L 1159 2956 
Q 1341 3275 1631 3429 
Q 1922 3584 2338 3584 
Q 2397 3584 2469 3576 
Q 2541 3569 2628 3553 
L 2631 2963 
z
" transform="scale(0.015625)"/>
       <path id="DejaVuSans-6f" d="M 1959 3097 
Q 1497 3097 1228 2736 
Q 959 2375 959 1747 
Q 959 1119 1226 758 
Q 1494 397 1959 397 
Q 2419 397 2687 759 
Q 2956 1122 2956 1747 
Q 2956 2369 2687 2733 
Q 2419 3097 1959 3097 
z
M 1959 3584 
Q 2709 3584 3137 3096 
Q 3566 2609 3566 1747 
Q 3566 888 3137 398 
Q 2709 -91 1959 -91 
Q 1206 -91 779 398 
Q 353 888 353 1747 
Q 353 2609 779 3096 
Q 1206 3584 1959 3584 
z
" transform="scale(0.015625)"/>
       <path id="DejaVuSans-66" d="M 2375 4863 
L 2375 4384 
L 1825 4384 
Q 1516 4384 1395 4259 
Q 1275 4134 1275 3809 
L 1275 3500 
L 2222 3500 
L 2222 3053 
L 1275 3053 
L 1275 0 
L 697 0 
L 697 3053 
L 147 3053 
L 147 3500 
L 697 3500 
L 697 3744 
Q 697 4328 969 4595 
Q 1241 4863 1831 4863 
L 2375 4863 
z
" transform="scale(0.015625)"/>
       <path id="DejaVuSans-69" d="M 603 3500 
L 1178 3500 
L 1178 0 
L 603 0 
L 603 3500 
z
M 603 4863 
L 1178 4863 
L 1178 4134 
L 603 4134 
L 603 4863 
z
" transform="scale(0.015625)"/>
      </defs>
      <use xlink:href="#DejaVuSans-50"/>
      <use xlink:href="#DejaVuSans-72" transform="translate(58.552734 0)"/>
      <use xlink:href="#DejaVuSans-6f" transform="translate(97.416016 0)"/>
      <use xlink:href="#DejaVuSans-66" transform="translate(158.597656 0)"/>
      <use xlink:href="#DejaVuSans-69" transform="translate(193.802734 0)"/>
      <use xlink:href="#DejaVuSans-74" transform="translate(221.585938 0)"/>
     </g>
    </g>
   </g>
   <g id="line2d_12">
    <path d="M 52.193327 251.593803 
L 54.83998 250.923817 
L 57.486633 238.437531 
L 60.133287 228.110365 
L 62.77994 219.685165 
L 65.426593 212.053598 
L 68.073247 205.612577 
L 70.7199 199.842788 
L 73.366553 194.933494 
L 76.013207 190.532561 
L 78.65986 186.587205 
L 81.306513 183.10519 
L 83.953167 179.880634 
L 86.59982 176.997194 
L 91.893127 172.016642 
L 97.186433 167.828761 
L 102.47974 164.028567 
L 107.773047 160.839914 
L 113.066353 157.952625 
L 118.35966 155.239884 
L 123.652967 152.837298 
L 131.592927 149.752219 
L 136.886233 147.784526 
L 147.472847 144.539855 
L 152.766153 143.011298 
L 160.706113 141.011661 
L 165.99942 139.709516 
L 173.93938 138.141274 
L 176.586033 137.554659 
L 181.87934 136.572442 
L 187.172647 135.611762 
L 192.465953 134.680796 
L 216.285833 131.056877 
L 245.39902 127.494727 
L 255.985633 126.453408 
L 266.572247 125.387951 
L 300.97874 122.57579 
L 316.85866 121.536418 
L 327.445273 120.771123 
L 364.49842 118.513239 
L 380.37834 117.690898 
L 393.611607 117.053666 
L 412.13818 116.193674 
L 486.244473 113.43283 
L 510.064353 112.722875 
L 523.29762 112.302543 
L 586.8173 110.688691 
L 631.810407 109.717363 
L 663.570247 109.11424 
L 682.09682 108.745159 
L 761.49642 107.515343 
L 843.542673 106.380159 
L 843.542673 106.380159 
" clip-path="url(#p87221cf93e)" style="fill: none; stroke: #0000ff; stroke-width: 1.5; stroke-linecap: square"/>
   </g>
   <g id="patch_3">
    <path d="M 50.87 390.04 
L 50.87 43.44 
" style="fill: none; stroke: #000000; stroke-width: 0.8; stroke-linejoin: miter; stroke-linecap: square"/>
   </g>
   <g id="patch_4">
    <path d="M 844.866 390.04 
L 844.866 43.44 
" style="fill: none; stroke: #000000; stroke-width: 0.8; stroke-linejoin: miter; stroke-linecap: square"/>
   </g>
   <g id="patch_5">
    <path d="M 50.87 390.04 
L 844.866 390.04 
" style="fill: none; stroke: #000000; stroke-width: 0.8; stroke-linejoin: miter; stroke-linecap: square"/>
   </g>
   <g id="patch_6">
    <path d="M 50.87 43.44 
L 844.866 43.44 
" style="fill: none; stroke: #000000; stroke-width: 0.8; stroke-linejoin: miter; stroke-linecap: square"/>
   </g>
   <g id="text_14">
    <!-- Mean profit per step with confidence interval per simulation step -->
    <g transform="translate(220.284875 21.763062) scale(0.14 -0.14)">
     <defs>
      <path id="DejaVuSans-4d" d="M 628 4666 
L 1569 4666 
L 2759 1491 
L 3956 4666 
L 4897 4666 
L 4897 0 
L 4281 0 
L 4281 4097 
L 3078 897 
L 2444 897 
L 1241 4097 
L 1241 0 
L 628 0 
L 628 4666 
z
" transform="scale(0.015625)"/>
      <path id="DejaVuSans-61" d="M 2194 1759 
Q 1497 1759 1228 1600 
Q 959 1441 959 1056 
Q 959 750 1161 570 
Q 1363 391 1709 391 
Q 2188 391 2477 730 
Q 2766 1069 2766 1631 
L 2766 1759 
L 2194 1759 
z
M 3341 1997 
L 3341 0 
L 2766 0 
L 2766 531 
Q 2569 213 2275 61 
Q 1981 -91 1556 -91 
Q 1019 -91 701 211 
Q 384 513 384 1019 
Q 384 1609 779 1909 
Q 1175 2209 1959 2209 
L 2766 2209 
L 2766 2266 
Q 2766 2663 2505 2880 
Q 2244 3097 1772 3097 
Q 1472 3097 1187 3025 
Q 903 2953 641 2809 
L 641 3341 
Q 956 3463 1253 3523 
Q 1550 3584 1831 3584 
Q 2591 3584 2966 3190 
Q 3341 2797 3341 1997 
z
" transform="scale(0.015625)"/>
      <path id="DejaVuSans-6e" d="M 3513 2113 
L 3513 0 
L 2938 0 
L 2938 2094 
Q 2938 2591 2744 2837 
Q 2550 3084 2163 3084 
Q 1697 3084 1428 2787 
Q 1159 2491 1159 1978 
L 1159 0 
L 581 0 
L 581 3500 
L 1159 3500 
L 1159 2956 
Q 1366 3272 1645 3428 
Q 1925 3584 2291 3584 
Q 2894 3584 3203 3211 
Q 3513 2838 3513 2113 
z
" transform="scale(0.015625)"/>
      <path id="DejaVuSans-20" transform="scale(0.015625)"/>
      <path id="DejaVuSans-73" d="M 2834 3397 
L 2834 2853 
Q 2591 2978 2328 3040 
Q 2066 3103 1784 3103 
Q 1356 3103 1142 2972 
Q 928 2841 928 2578 
Q 928 2378 1081 2264 
Q 1234 2150 1697 2047 
L 1894 2003 
Q 2506 1872 2764 1633 
Q 3022 1394 3022 966 
Q 3022 478 2636 193 
Q 2250 -91 1575 -91 
Q 1294 -91 989 -36 
Q 684 19 347 128 
L 347 722 
Q 666 556 975 473 
Q 1284 391 1588 391 
Q 1994 391 2212 530 
Q 2431 669 2431 922 
Q 2431 1156 2273 1281 
Q 2116 1406 1581 1522 
L 1381 1569 
Q 847 1681 609 1914 
Q 372 2147 372 2553 
Q 372 3047 722 3315 
Q 1072 3584 1716 3584 
Q 2034 3584 2315 3537 
Q 2597 3491 2834 3397 
z
" transform="scale(0.015625)"/>
      <path id="DejaVuSans-77" d="M 269 3500 
L 844 3500 
L 1563 769 
L 2278 3500 
L 2956 3500 
L 3675 769 
L 4391 3500 
L 4966 3500 
L 4050 0 
L 3372 0 
L 2619 2869 
L 1863 0 
L 1184 0 
L 269 3500 
z
" transform="scale(0.015625)"/>
      <path id="DejaVuSans-68" d="M 3513 2113 
L 3513 0 
L 2938 0 
L 2938 2094 
Q 2938 2591 2744 2837 
Q 2550 3084 2163 3084 
Q 1697 3084 1428 2787 
Q 1159 2491 1159 1978 
L 1159 0 
L 581 0 
L 581 4863 
L 1159 4863 
L 1159 2956 
Q 1366 3272 1645 3428 
Q 1925 3584 2291 3584 
Q 2894 3584 3203 3211 
Q 3513 2838 3513 2113 
z
" transform="scale(0.015625)"/>
      <path id="DejaVuSans-63" d="M 3122 3366 
L 3122 2828 
Q 2878 2963 2633 3030 
Q 2388 3097 2138 3097 
Q 1578 3097 1268 2742 
Q 959 2388 959 1747 
Q 959 1106 1268 751 
Q 1578 397 2138 397 
Q 2388 397 2633 464 
Q 2878 531 3122 666 
L 3122 134 
Q 2881 22 2623 -34 
Q 2366 -91 2075 -91 
Q 1284 -91 818 406 
Q 353 903 353 1747 
Q 353 2603 823 3093 
Q 1294 3584 2113 3584 
Q 2378 3584 2631 3529 
Q 2884 3475 3122 3366 
z
" transform="scale(0.015625)"/>
      <path id="DejaVuSans-64" d="M 2906 2969 
L 2906 4863 
L 3481 4863 
L 3481 0 
L 2906 0 
L 2906 525 
Q 2725 213 2448 61 
Q 2172 -91 1784 -91 
Q 1150 -91 751 415 
Q 353 922 353 1747 
Q 353 2572 751 3078 
Q 1150 3584 1784 3584 
Q 2172 3584 2448 3432 
Q 2725 3281 2906 2969 
z
M 947 1747 
Q 947 1113 1208 752 
Q 1469 391 1925 391 
Q 2381 391 2643 752 
Q 2906 1113 2906 1747 
Q 2906 2381 2643 2742 
Q 2381 3103 1925 3103 
Q 1469 3103 1208 2742 
Q 947 2381 947 1747 
z
" transform="scale(0.015625)"/>
      <path id="DejaVuSans-76" d="M 191 3500 
L 800 3500 
L 1894 563 
L 2988 3500 
L 3597 3500 
L 2284 0 
L 1503 0 
L 191 3500 
z
" transform="scale(0.015625)"/>
      <path id="DejaVuSans-6c" d="M 603 4863 
L 1178 4863 
L 1178 0 
L 603 0 
L 603 4863 
z
" transform="scale(0.015625)"/>
      <path id="DejaVuSans-6d" d="M 3328 2828 
Q 3544 3216 3844 3400 
Q 4144 3584 4550 3584 
Q 5097 3584 5394 3201 
Q 5691 2819 5691 2113 
L 5691 0 
L 5113 0 
L 5113 2094 
Q 5113 2597 4934 2840 
Q 4756 3084 4391 3084 
Q 3944 3084 3684 2787 
Q 3425 2491 3425 1978 
L 3425 0 
L 2847 0 
L 2847 2094 
Q 2847 2600 2669 2842 
Q 2491 3084 2119 3084 
Q 1678 3084 1418 2786 
Q 1159 2488 1159 1978 
L 1159 0 
L 581 0 
L 581 3500 
L 1159 3500 
L 1159 2956 
Q 1356 3278 1631 3431 
Q 1906 3584 2284 3584 
Q 2666 3584 2933 3390 
Q 3200 3197 3328 2828 
z
" transform="scale(0.015625)"/>
      <path id="DejaVuSans-75" d="M 544 1381 
L 544 3500 
L 1119 3500 
L 1119 1403 
Q 1119 906 1312 657 
Q 1506 409 1894 409 
Q 2359 409 2629 706 
Q 2900 1003 2900 1516 
L 2900 3500 
L 3475 3500 
L 3475 0 
L 2900 0 
L 2900 538 
Q 2691 219 2414 64 
Q 2138 -91 1772 -91 
Q 1169 -91 856 284 
Q 544 659 544 1381 
z
M 1991 3584 
L 1991 3584 
z
" transform="scale(0.015625)"/>
     </defs>
     <use xlink:href="#DejaVuSans-4d"/>
     <use xlink:href="#DejaVuSans-65" transform="translate(86.279297 0)"/>
     <use xlink:href="#DejaVuSans-61" transform="translate(147.802734 0)"/>
     <use xlink:href="#DejaVuSans-6e" transform="translate(209.082031 0)"/>
     <use xlink:href="#DejaVuSans-20" transform="translate(272.460938 0)"/>
     <use xlink:href="#DejaVuSans-70" transform="translate(304.248047 0)"/>
     <use xlink:href="#DejaVuSans-72" transform="translate(367.724609 0)"/>
     <use xlink:href="#DejaVuSans-6f" transform="translate(406.587891 0)"/>
     <use xlink:href="#DejaVuSans-66" transform="translate(467.769531 0)"/>
     <use xlink:href="#DejaVuSans-69" transform="translate(502.974609 0)"/>
     <use xlink:href="#DejaVuSans-74" transform="translate(530.757812 0)"/>
     <use xlink:href="#DejaVuSans-20" transform="translate(569.966797 0)"/>
     <use xlink:href="#DejaVuSans-70" transform="translate(601.753906 0)"/>
     <use xlink:href="#DejaVuSans-65" transform="translate(665.230469 0)"/>
     <use xlink:href="#DejaVuSans-72" transform="translate(726.753906 0)"/>
     <use xlink:href="#DejaVuSans-20" transform="translate(767.867188 0)"/>
     <use xlink:href="#DejaVuSans-73" transform="translate(799.654297 0)"/>
     <use xlink:href="#DejaVuSans-74" transform="translate(851.753906 0)"/>
     <use xlink:href="#DejaVuSans-65" transform="translate(890.962891 0)"/>
     <use xlink:href="#DejaVuSans-70" transform="translate(952.486328 0)"/>
     <use xlink:href="#DejaVuSans-20" transform="translate(1015.962891 0)"/>
     <use xlink:href="#DejaVuSans-77" transform="translate(1047.75 0)"/>
     <use xlink:href="#DejaVuSans-69" transform="translate(1129.537109 0)"/>
     <use xlink:href="#DejaVuSans-74" transform="translate(1157.320312 0)"/>
     <use xlink:href="#DejaVuSans-68" transform="translate(1196.529297 0)"/>
     <use xlink:href="#DejaVuSans-20" transform="translate(1259.908203 0)"/>
     <use xlink:href="#DejaVuSans-63" transform="translate(1291.695312 0)"/>
     <use xlink:href="#DejaVuSans-6f" transform="translate(1346.675781 0)"/>
     <use xlink:href="#DejaVuSans-6e" transform="translate(1407.857422 0)"/>
     <use xlink:href="#DejaVuSans-66" transform="translate(1471.236328 0)"/>
     <use xlink:href="#DejaVuSans-69" transform="translate(1506.441406 0)"/>
     <use xlink:href="#DejaVuSans-64" transform="translate(1534.224609 0)"/>
     <use xlink:href="#DejaVuSans-65" transform="translate(1597.701172 0)"/>
     <use xlink:href="#DejaVuSans-6e" transform="translate(1659.224609 0)"/>
     <use xlink:href="#DejaVuSans-63" transform="translate(1722.603516 0)"/>
     <use xlink:href="#DejaVuSans-65" transform="translate(1777.583984 0)"/>
     <use xlink:href="#DejaVuSans-20" transform="translate(1839.107422 0)"/>
     <use xlink:href="#DejaVuSans-69" transform="translate(1870.894531 0)"/>
     <use xlink:href="#DejaVuSans-6e" transform="translate(1898.677734 0)"/>
     <use xlink:href="#DejaVuSans-74" transform="translate(1962.056641 0)"/>
     <use xlink:href="#DejaVuSans-65" transform="translate(2001.265625 0)"/>
     <use xlink:href="#DejaVuSans-72" transform="translate(2062.789062 0)"/>
     <use xlink:href="#DejaVuSans-76" transform="translate(2103.902344 0)"/>
     <use xlink:href="#DejaVuSans-61" transform="translate(2163.082031 0)"/>
     <use xlink:href="#DejaVuSans-6c" transform="translate(2224.361328 0)"/>
     <use xlink:href="#DejaVuSans-20" transform="translate(2252.144531 0)"/>
     <use xlink:href="#DejaVuSans-70" transform="translate(2283.931641 0)"/>
     <use xlink:href="#DejaVuSans-65" transform="translate(2347.408203 0)"/>
     <use xlink:href="#DejaVuSans-72" transform="translate(2408.931641 0)"/>
     <use xlink:href="#DejaVuSans-20" transform="translate(2450.044922 0)"/>
     <use xlink:href="#DejaVuSans-73" transform="translate(2481.832031 0)"/>
     <use xlink:href="#DejaVuSans-69" transform="translate(2533.931641 0)"/>
     <use xlink:href="#DejaVuSans-6d" transform="translate(2561.714844 0)"/>
     <use xlink:href="#DejaVuSans-75" transform="translate(2659.126953 0)"/>
     <use xlink:href="#DejaVuSans-6c" transform="translate(2722.505859 0)"/>
     <use xlink:href="#DejaVuSans-61" transform="translate(2750.289062 0)"/>
     <use xlink:href="#DejaVuSans-74" transform="translate(2811.568359 0)"/>
     <use xlink:href="#DejaVuSans-69" transform="translate(2850.777344 0)"/>
     <use xlink:href="#DejaVuSans-6f" transform="translate(2878.560547 0)"/>
     <use xlink:href="#DejaVuSans-6e" transform="translate(2939.742188 0)"/>
     <use xlink:href="#DejaVuSans-20" transform="translate(3003.121094 0)"/>
     <use xlink:href="#DejaVuSans-73" transform="translate(3034.908203 0)"/>
     <use xlink:href="#DejaVuSans-74" transform="translate(3087.007812 0)"/>
     <use xlink:href="#DejaVuSans-65" transform="translate(3126.216797 0)"/>
     <use xlink:href="#DejaVuSans-70" transform="translate(3187.740234 0)"/>
    </g>
    <!-- Base Product: Meth, Recipe size: 8, T0: 5.0 -->
    <g transform="translate(298.334875 37.44) scale(0.14 -0.14)">
     <defs>
      <path id="DejaVuSans-42" d="M 1259 2228 
L 1259 519 
L 2272 519 
Q 2781 519 3026 730 
Q 3272 941 3272 1375 
Q 3272 1813 3026 2020 
Q 2781 2228 2272 2228 
L 1259 2228 
z
M 1259 4147 
L 1259 2741 
L 2194 2741 
Q 2656 2741 2882 2914 
Q 3109 3088 3109 3444 
Q 3109 3797 2882 3972 
Q 2656 4147 2194 4147 
L 1259 4147 
z
M 628 4666 
L 2241 4666 
Q 2963 4666 3353 4366 
Q 3744 4066 3744 3513 
Q 3744 3084 3544 2831 
Q 3344 2578 2956 2516 
Q 3422 2416 3680 2098 
Q 3938 1781 3938 1306 
Q 3938 681 3513 340 
Q 3088 0 2303 0 
L 628 0 
L 628 4666 
z
" transform="scale(0.015625)"/>
      <path id="DejaVuSans-3a" d="M 750 794 
L 1409 794 
L 1409 0 
L 750 0 
L 750 794 
z
M 750 3309 
L 1409 3309 
L 1409 2516 
L 750 2516 
L 750 3309 
z
" transform="scale(0.015625)"/>
      <path id="DejaVuSans-2c" d="M 750 794 
L 1409 794 
L 1409 256 
L 897 -744 
L 494 -744 
L 750 256 
L 750 794 
z
" transform="scale(0.015625)"/>
      <path id="DejaVuSans-52" d="M 2841 2188 
Q 3044 2119 3236 1894 
Q 3428 1669 3622 1275 
L 4263 0 
L 3584 0 
L 2988 1197 
Q 2756 1666 2539 1819 
Q 2322 1972 1947 1972 
L 1259 1972 
L 1259 0 
L 628 0 
L 628 4666 
L 2053 4666 
Q 2853 4666 3247 4331 
Q 3641 3997 3641 3322 
Q 3641 2881 3436 2590 
Q 3231 2300 2841 2188 
z
M 1259 4147 
L 1259 2491 
L 2053 2491 
Q 2509 2491 2742 2702 
Q 2975 2913 2975 3322 
Q 2975 3731 2742 3939 
Q 2509 4147 2053 4147 
L 1259 4147 
z
" transform="scale(0.015625)"/>
      <path id="DejaVuSans-7a" d="M 353 3500 
L 3084 3500 
L 3084 2975 
L 922 459 
L 3084 459 
L 3084 0 
L 275 0 
L 275 525 
L 2438 3041 
L 353 3041 
L 353 3500 
z
" transform="scale(0.015625)"/>
      <path id="DejaVuSans-38" d="M 2034 2216 
Q 1584 2216 1326 1975 
Q 1069 1734 1069 1313 
Q 1069 891 1326 650 
Q 1584 409 2034 409 
Q 2484 409 2743 651 
Q 3003 894 3003 1313 
Q 3003 1734 2745 1975 
Q 2488 2216 2034 2216 
z
M 1403 2484 
Q 997 2584 770 2862 
Q 544 3141 544 3541 
Q 544 4100 942 4425 
Q 1341 4750 2034 4750 
Q 2731 4750 3128 4425 
Q 3525 4100 3525 3541 
Q 3525 3141 3298 2862 
Q 3072 2584 2669 2484 
Q 3125 2378 3379 2068 
Q 3634 1759 3634 1313 
Q 3634 634 3220 271 
Q 2806 -91 2034 -91 
Q 1263 -91 848 271 
Q 434 634 434 1313 
Q 434 1759 690 2068 
Q 947 2378 1403 2484 
z
M 1172 3481 
Q 1172 3119 1398 2916 
Q 1625 2713 2034 2713 
Q 2441 2713 2670 2916 
Q 2900 3119 2900 3481 
Q 2900 3844 2670 4047 
Q 2441 4250 2034 4250 
Q 1625 4250 1398 4047 
Q 1172 3844 1172 3481 
z
" transform="scale(0.015625)"/>
      <path id="DejaVuSans-54" d="M -19 4666 
L 3928 4666 
L 3928 4134 
L 2272 4134 
L 2272 0 
L 1638 0 
L 1638 4134 
L -19 4134 
L -19 4666 
z
" transform="scale(0.015625)"/>
      <path id="DejaVuSans-2e" d="M 684 794 
L 1344 794 
L 1344 0 
L 684 0 
L 684 794 
z
" transform="scale(0.015625)"/>
     </defs>
     <use xlink:href="#DejaVuSans-42"/>
     <use xlink:href="#DejaVuSans-61" transform="translate(68.603516 0)"/>
     <use xlink:href="#DejaVuSans-73" transform="translate(129.882812 0)"/>
     <use xlink:href="#DejaVuSans-65" transform="translate(181.982422 0)"/>
     <use xlink:href="#DejaVuSans-20" transform="translate(243.505859 0)"/>
     <use xlink:href="#DejaVuSans-50" transform="translate(275.292969 0)"/>
     <use xlink:href="#DejaVuSans-72" transform="translate(333.845703 0)"/>
     <use xlink:href="#DejaVuSans-6f" transform="translate(372.708984 0)"/>
     <use xlink:href="#DejaVuSans-64" transform="translate(433.890625 0)"/>
     <use xlink:href="#DejaVuSans-75" transform="translate(497.367188 0)"/>
     <use xlink:href="#DejaVuSans-63" transform="translate(560.746094 0)"/>
     <use xlink:href="#DejaVuSans-74" transform="translate(615.726562 0)"/>
     <use xlink:href="#DejaVuSans-3a" transform="translate(654.935547 0)"/>
     <use xlink:href="#DejaVuSans-20" transform="translate(688.626953 0)"/>
     <use xlink:href="#DejaVuSans-4d" transform="translate(720.414062 0)"/>
     <use xlink:href="#DejaVuSans-65" transform="translate(806.693359 0)"/>
     <use xlink:href="#DejaVuSans-74" transform="translate(868.216797 0)"/>
     <use xlink:href="#DejaVuSans-68" transform="translate(907.425781 0)"/>
     <use xlink:href="#DejaVuSans-2c" transform="translate(970.804688 0)"/>
     <use xlink:href="#DejaVuSans-20" transform="translate(1002.591797 0)"/>
     <use xlink:href="#DejaVuSans-52" transform="translate(1034.378906 0)"/>
     <use xlink:href="#DejaVuSans-65" transform="translate(1099.361328 0)"/>
     <use xlink:href="#DejaVuSans-63" transform="translate(1160.884766 0)"/>
     <use xlink:href="#DejaVuSans-69" transform="translate(1215.865234 0)"/>
     <use xlink:href="#DejaVuSans-70" transform="translate(1243.648438 0)"/>
     <use xlink:href="#DejaVuSans-65" transform="translate(1307.125 0)"/>
     <use xlink:href="#DejaVuSans-20" transform="translate(1368.648438 0)"/>
     <use xlink:href="#DejaVuSans-73" transform="translate(1400.435547 0)"/>
     <use xlink:href="#DejaVuSans-69" transform="translate(1452.535156 0)"/>
     <use xlink:href="#DejaVuSans-7a" transform="translate(1480.318359 0)"/>
     <use xlink:href="#DejaVuSans-65" transform="translate(1532.808594 0)"/>
     <use xlink:href="#DejaVuSans-3a" transform="translate(1594.332031 0)"/>
     <use xlink:href="#DejaVuSans-20" transform="translate(1628.023438 0)"/>
     <use xlink:href="#DejaVuSans-38" transform="translate(1659.810547 0)"/>
     <use xlink:href="#DejaVuSans-2c" transform="translate(1723.433594 0)"/>
     <use xlink:href="#DejaVuSans-20" transform="translate(1755.220703 0)"/>
     <use xlink:href="#DejaVuSans-54" transform="translate(1787.007812 0)"/>
     <use xlink:href="#DejaVuSans-30" transform="translate(1848.091797 0)"/>
     <use xlink:href="#DejaVuSans-3a" transform="translate(1911.714844 0)"/>
     <use xlink:href="#DejaVuSans-20" transform="translate(1945.40625 0)"/>
     <use xlink:href="#DejaVuSans-35" transform="translate(1977.193359 0)"/>
     <use xlink:href="#DejaVuSans-2e" transform="translate(2040.816406 0)"/>
     <use xlink:href="#DejaVuSans-30" transform="translate(2072.603516 0)"/>
    </g>
   </g>
  </g>
 </g>
 <defs>
  <clipPath id="p87221cf93e">
   <rect x="50.87" y="43.44" width="793.996" height="346.6"/>
  </clipPath>
 </defs>
</svg>
