<?xml version="1.0" encoding="utf-8" standalone="no"?>
<!DOCTYPE svg PUBLIC "-//W3C//DTD SVG 1.1//EN"
  "http://www.w3.org/Graphics/SVG/1.1/DTD/svg11.dtd">
<svg xmlns:xlink="http://www.w3.org/1999/xlink" width="864pt" height="432pt" viewBox="0 0 864 432" xmlns="http://www.w3.org/2000/svg" version="1.1">
 <metadata>
  <rdf:RDF xmlns:dc="http://purl.org/dc/elements/1.1/" xmlns:cc="http://creativecommons.org/ns#" xmlns:rdf="http://www.w3.org/1999/02/22-rdf-syntax-ns#">
   <cc:Work>
    <dc:type rdf:resource="http://purl.org/dc/dcmitype/StillImage"/>
    <dc:date>2025-05-24T02:18:46.042813</dc:date>
    <dc:format>image/svg+xml</dc:format>
    <dc:creator>
     <cc:Agent>
      <dc:title>Matplotlib v3.10.3, https://matplotlib.org/</dc:title>
     </cc:Agent>
    </dc:creator>
   </cc:Work>
  </rdf:RDF>
 </metadata>
 <defs>
  <style type="text/css">*{stroke-linejoin: round; stroke-linecap: butt}</style>
 </defs>
 <g id="figure_1">
  <g id="patch_1">
   <path d="M 0 432 
L 864 432 
L 864 0 
L 0 0 
z
" style="fill: #ffffff"/>
  </g>
  <g id="axes_1">
   <g id="patch_2">
    <path d="M 50.87 390.04 
L 844.866 390.04 
L 844.866 43.44 
L 50.87 43.44 
z
" style="fill: #ffffff"/>
   </g>
   <g id="FillBetweenPolyCollection_1">
    <defs>
     <path id="mf282e53414" d="M 52.193327 -305.097722 
L 52.193327 -57.959112 
L 54.83998 -57.714545 
L 57.486633 -67.667723 
L 60.133287 -78.564531 
L 62.77994 -90.068599 
L 65.426593 -99.530413 
L 68.073247 -107.952968 
L 70.7199 -116.206481 
L 73.366553 -122.451023 
L 76.013207 -129.254912 
L 78.65986 -134.881211 
L 81.306513 -140.485242 
L 83.953167 -144.974226 
L 86.59982 -149.288265 
L 89.246473 -153.726336 
L 91.893127 -158.157987 
L 94.53978 -161.73215 
L 97.186433 -164.777984 
L 99.833087 -168.256387 
L 102.47974 -170.959191 
L 105.126393 -173.48428 
L 107.773047 -175.6945 
L 110.4197 -177.50462 
L 113.066353 -179.650846 
L 115.713007 -181.334122 
L 118.35966 -183.605236 
L 121.006313 -185.29858 
L 123.652967 -186.603937 
L 126.29962 -188.636948 
L 128.946273 -190.272695 
L 131.592927 -191.763461 
L 134.23958 -193.404155 
L 136.886233 -194.03075 
L 139.532887 -195.097499 
L 142.17954 -196.089658 
L 144.826193 -197.420978 
L 147.472847 -198.718751 
L 150.1195 -199.913795 
L 152.766153 -200.694824 
L 155.412807 -201.662142 
L 158.05946 -203.046838 
L 160.706113 -204.239706 
L 163.352767 -204.975713 
L 165.99942 -205.861317 
L 168.646073 -206.759651 
L 171.292727 -207.040666 
L 173.93938 -208.159647 
L 176.586033 -209.070423 
L 179.232687 -210.240142 
L 181.87934 -210.856317 
L 184.525993 -211.73192 
L 187.172647 -212.720099 
L 189.8193 -213.401785 
L 192.465953 -213.692539 
L 195.112607 -214.596764 
L 197.75926 -215.461484 
L 200.405913 -215.781718 
L 203.052567 -216.304067 
L 205.69922 -216.793815 
L 208.345873 -217.33861 
L 210.992527 -217.960633 
L 213.63918 -218.643704 
L 216.285833 -219.006343 
L 218.932487 -219.453553 
L 221.57914 -219.964318 
L 224.225793 -220.212226 
L 226.872447 -220.801559 
L 229.5191 -221.202494 
L 232.165753 -221.758764 
L 234.812407 -222.141672 
L 237.45906 -222.820874 
L 240.105713 -223.457428 
L 242.752367 -223.95276 
L 245.39902 -224.408895 
L 248.045673 -224.757795 
L 250.692327 -225.270362 
L 253.33898 -225.796361 
L 255.985633 -225.992739 
L 258.632287 -226.255266 
L 261.27894 -226.35107 
L 263.925593 -226.904527 
L 266.572247 -227.265979 
L 269.2189 -227.758585 
L 271.865553 -227.876087 
L 274.512207 -228.116388 
L 277.15886 -228.479336 
L 279.805513 -229.344166 
L 282.452167 -229.73534 
L 285.09882 -230.142518 
L 287.745473 -230.642862 
L 290.392127 -231.178424 
L 293.03878 -231.484258 
L 295.685433 -231.468562 
L 298.332087 -232.02481 
L 300.97874 -232.446476 
L 303.625393 -232.957218 
L 306.272047 -232.969771 
L 308.9187 -233.248697 
L 311.565353 -233.392953 
L 314.212007 -233.779466 
L 316.85866 -234.084091 
L 319.505313 -234.486038 
L 322.151967 -234.808997 
L 324.79862 -235.170581 
L 327.445273 -235.328379 
L 330.091927 -235.499894 
L 332.73858 -235.589191 
L 335.385233 -235.910216 
L 338.031887 -236.305984 
L 340.67854 -236.462155 
L 343.325193 -236.712503 
L 345.971847 -236.946341 
L 348.6185 -237.220124 
L 351.265153 -237.454512 
L 353.911807 -237.755378 
L 356.55846 -237.836211 
L 359.205113 -237.910779 
L 361.851767 -238.202676 
L 364.49842 -238.34869 
L 367.145073 -238.547575 
L 369.791727 -238.778203 
L 372.43838 -239.030706 
L 375.085033 -239.463539 
L 377.731687 -239.565036 
L 380.37834 -239.674448 
L 383.024993 -240.048321 
L 385.671647 -240.266771 
L 388.3183 -240.447717 
L 390.964953 -240.424041 
L 393.611607 -240.861622 
L 396.25826 -240.954041 
L 398.904913 -241.180119 
L 401.551567 -241.526469 
L 404.19822 -241.754284 
L 406.844873 -242.197669 
L 409.491527 -242.349245 
L 412.13818 -242.521046 
L 414.784833 -242.8936 
L 417.431487 -242.950625 
L 420.07814 -243.114226 
L 422.724793 -243.116557 
L 425.371447 -243.195961 
L 428.0181 -243.408058 
L 430.664753 -243.627101 
L 433.311407 -243.779359 
L 435.95806 -243.830536 
L 438.604713 -243.979233 
L 441.251367 -243.97721 
L 443.89802 -244.269503 
L 446.544673 -244.431081 
L 449.191327 -244.613324 
L 451.83798 -244.84791 
L 454.484633 -244.814253 
L 457.131287 -244.729243 
L 459.77794 -244.696752 
L 462.424593 -244.752304 
L 465.071247 -244.897549 
L 467.7179 -245.063458 
L 470.364553 -245.333174 
L 473.011207 -245.331239 
L 475.65786 -245.462107 
L 478.304513 -245.702562 
L 480.951167 -246.045702 
L 483.59782 -246.171162 
L 486.244473 -246.389876 
L 488.891127 -246.609029 
L 491.53778 -246.827435 
L 494.184433 -246.971669 
L 496.831087 -246.98055 
L 499.47774 -247.093699 
L 502.124393 -247.271743 
L 504.771047 -247.547087 
L 507.4177 -247.860153 
L 510.064353 -247.888776 
L 512.711007 -248.271003 
L 515.35766 -248.402552 
L 518.004313 -248.540498 
L 520.650967 -248.80164 
L 523.29762 -248.736085 
L 525.944273 -248.796738 
L 528.590927 -248.949985 
L 531.23758 -249.062848 
L 533.884233 -249.333662 
L 536.530887 -249.454264 
L 539.17754 -249.343951 
L 541.824193 -249.517862 
L 544.470847 -249.784742 
L 547.1175 -249.929525 
L 549.764153 -250.025571 
L 552.410807 -250.081431 
L 555.05746 -250.38588 
L 557.704113 -250.536115 
L 560.350767 -250.465021 
L 562.99742 -250.518199 
L 565.644073 -250.64999 
L 568.290727 -250.767821 
L 570.93738 -250.7851 
L 573.584033 -250.880816 
L 576.230687 -251.015179 
L 578.87734 -251.08113 
L 581.523993 -251.29061 
L 584.170647 -251.221231 
L 586.8173 -251.367619 
L 589.463953 -251.390987 
L 592.110607 -251.449265 
L 594.75726 -251.782139 
L 597.403913 -252.063352 
L 600.050567 -252.390378 
L 602.69722 -252.44936 
L 605.343873 -252.617402 
L 607.990527 -252.768362 
L 610.63718 -252.67612 
L 613.283833 -252.655499 
L 615.930487 -252.971578 
L 618.57714 -253.152678 
L 621.223793 -253.369787 
L 623.870447 -253.568715 
L 626.5171 -253.763951 
L 629.163753 -253.952107 
L 631.810407 -254.074401 
L 634.45706 -254.088229 
L 637.103713 -254.262338 
L 639.750367 -254.415475 
L 642.39702 -254.458871 
L 645.043673 -254.584242 
L 647.690327 -254.646632 
L 650.33698 -254.60583 
L 652.983633 -254.536033 
L 655.630287 -254.686817 
L 658.27694 -254.805792 
L 660.923593 -254.784028 
L 663.570247 -254.941782 
L 666.2169 -254.985287 
L 668.863553 -255.185337 
L 671.510207 -255.122442 
L 674.15686 -255.379803 
L 676.803513 -255.432409 
L 679.450167 -255.60144 
L 682.09682 -255.571807 
L 684.743473 -255.617268 
L 687.390127 -255.594691 
L 690.03678 -255.674909 
L 692.683433 -255.649123 
L 695.330087 -255.713578 
L 697.97674 -255.798083 
L 700.623393 -255.790366 
L 703.270047 -255.956408 
L 705.9167 -256.15017 
L 708.563353 -256.135529 
L 711.210007 -256.337689 
L 713.85666 -256.447035 
L 716.503313 -256.65058 
L 719.149967 -256.692217 
L 721.79662 -256.758783 
L 724.443273 -256.752474 
L 727.089927 -256.747615 
L 729.73658 -256.782239 
L 732.383233 -256.883231 
L 735.029887 -257.035643 
L 737.67654 -257.023398 
L 740.323193 -257.154991 
L 742.969847 -257.091789 
L 745.6165 -257.362647 
L 748.263153 -257.402525 
L 750.909807 -257.585868 
L 753.55646 -257.75369 
L 756.203113 -257.838898 
L 758.849767 -257.951189 
L 761.49642 -258.274676 
L 764.143073 -258.433617 
L 766.789727 -258.563385 
L 769.43638 -258.685372 
L 772.083033 -258.849039 
L 774.729687 -258.971927 
L 777.37634 -258.908021 
L 780.022993 -258.924794 
L 782.669647 -259.097408 
L 785.3163 -259.092418 
L 787.962953 -259.248017 
L 790.609607 -259.428282 
L 793.25626 -259.515248 
L 795.902913 -259.590806 
L 798.549567 -259.752648 
L 801.19622 -259.695909 
L 803.842873 -259.697953 
L 806.489527 -259.795978 
L 809.13618 -259.853728 
L 811.782833 -260.031179 
L 814.429487 -260.089809 
L 817.07614 -260.143119 
L 819.722793 -260.159123 
L 822.369447 -260.254289 
L 825.0161 -260.242198 
L 827.662753 -260.384695 
L 830.309407 -260.529325 
L 832.95606 -260.506242 
L 835.602713 -260.51387 
L 838.249367 -260.721241 
L 840.89602 -260.75703 
L 843.542673 -260.805943 
L 843.542673 -372.8033 
L 843.542673 -372.8033 
L 840.89602 -372.805455 
L 838.249367 -372.753574 
L 835.602713 -372.768258 
L 832.95606 -372.664233 
L 830.309407 -372.506347 
L 827.662753 -372.54728 
L 825.0161 -372.532683 
L 822.369447 -372.447563 
L 819.722793 -372.371808 
L 817.07614 -372.375414 
L 814.429487 -372.304451 
L 811.782833 -372.223464 
L 809.13618 -372.233928 
L 806.489527 -372.266551 
L 803.842873 -372.226322 
L 801.19622 -372.18064 
L 798.549567 -372.087562 
L 795.902913 -372.108182 
L 793.25626 -372.10528 
L 790.609607 -372.127088 
L 787.962953 -372.111084 
L 785.3163 -372.090639 
L 782.669647 -371.996154 
L 780.022993 -372.012158 
L 777.37634 -371.954606 
L 774.729687 -371.844468 
L 772.083033 -371.858934 
L 769.43638 -371.862759 
L 766.789727 -371.864869 
L 764.143073 -371.787707 
L 761.49642 -371.757062 
L 758.849767 -371.807009 
L 756.203113 -371.777023 
L 753.55646 -371.751522 
L 750.909807 -371.822353 
L 748.263153 -371.775308 
L 745.6165 -371.700081 
L 742.969847 -371.774561 
L 740.323193 -371.692299 
L 737.67654 -371.714238 
L 735.029887 -371.638131 
L 732.383233 -371.651981 
L 729.73658 -371.661874 
L 727.089927 -371.61008 
L 724.443273 -371.554462 
L 721.79662 -371.478619 
L 719.149967 -371.465737 
L 716.503313 -371.375077 
L 713.85666 -371.406425 
L 711.210007 -371.34386 
L 708.563353 -371.372879 
L 705.9167 -371.260983 
L 703.270047 -371.240714 
L 700.623393 -371.329132 
L 697.97674 -371.214026 
L 695.330087 -371.171026 
L 692.683433 -371.084411 
L 690.03678 -370.922261 
L 687.390127 -370.876096 
L 684.743473 -370.746217 
L 682.09682 -370.638542 
L 679.450167 -370.527174 
L 676.803513 -370.525987 
L 674.15686 -370.458717 
L 671.510207 -370.54243 
L 668.863553 -370.33306 
L 666.2169 -370.325805 
L 663.570247 -370.251941 
L 660.923593 -370.287202 
L 658.27694 -370.088867 
L 655.630287 -370.067499 
L 652.983633 -370.032677 
L 650.33698 -369.846257 
L 647.690327 -369.763512 
L 645.043673 -369.710268 
L 642.39702 -369.666345 
L 639.750367 -369.468097 
L 637.103713 -369.398146 
L 634.45706 -369.427868 
L 631.810407 -369.314653 
L 629.163753 -369.306695 
L 626.5171 -369.37924 
L 623.870447 -369.41349 
L 621.223793 -369.422284 
L 618.57714 -369.448928 
L 615.930487 -369.439475 
L 613.283833 -369.562011 
L 610.63718 -369.466998 
L 607.990527 -369.269059 
L 605.343873 -369.156504 
L 602.69722 -369.205219 
L 600.050567 -369.106601 
L 597.403913 -369.147402 
L 594.75726 -369.280358 
L 592.110607 -369.362884 
L 589.463953 -369.333427 
L 586.8173 -369.217662 
L 584.170647 -369.248482 
L 581.523993 -369.107085 
L 578.87734 -369.149161 
L 576.230687 -369.091564 
L 573.584033 -369.093939 
L 570.93738 -368.967709 
L 568.290727 -368.891515 
L 565.644073 -368.777113 
L 562.99742 -368.603223 
L 560.350767 -368.583966 
L 557.704113 -368.336475 
L 555.05746 -368.224843 
L 552.410807 -368.358899 
L 549.764153 -368.22137 
L 547.1175 -368.131282 
L 544.470847 -368.077686 
L 541.824193 -368.14412 
L 539.17754 -368.02176 
L 536.530887 -367.850201 
L 533.884233 -367.796605 
L 531.23758 -367.841144 
L 528.590927 -367.82237 
L 525.944273 -367.78724 
L 523.29762 -367.605349 
L 520.650967 -367.356056 
L 518.004313 -367.331522 
L 515.35766 -367.279641 
L 512.711007 -367.258054 
L 510.064353 -367.325631 
L 507.4177 -367.214966 
L 504.771047 -367.215186 
L 502.124393 -367.20714 
L 499.47774 -367.090364 
L 496.831087 -367.067765 
L 494.184433 -366.848721 
L 491.53778 -366.71748 
L 488.891127 -366.664631 
L 486.244473 -366.680372 
L 483.59782 -366.662257 
L 480.951167 -366.535632 
L 478.304513 -366.607474 
L 475.65786 -366.575862 
L 473.011207 -366.46168 
L 470.364553 -366.313159 
L 467.7179 -366.337781 
L 465.071247 -366.287834 
L 462.424593 -366.092357 
L 459.77794 -365.880348 
L 457.131287 -365.685003 
L 454.484633 -365.408187 
L 451.83798 -365.206774 
L 449.191327 -365.120995 
L 446.544673 -365.041547 
L 443.89802 -364.996744 
L 441.251367 -364.966803 
L 438.604713 -364.735668 
L 435.95806 -364.618672 
L 433.311407 -364.542082 
L 430.664753 -364.420865 
L 428.0181 -364.281182 
L 425.371447 -364.241875 
L 422.724793 -364.120526 
L 420.07814 -363.915508 
L 417.431487 -363.770329 
L 414.784833 -363.597319 
L 412.13818 -363.550231 
L 409.491527 -363.445326 
L 406.844873 -363.315799 
L 404.19822 -363.396083 
L 401.551567 -363.303004 
L 398.904913 -363.308808 
L 396.25826 -363.238725 
L 393.611607 -363.027463 
L 390.964953 -363.085588 
L 388.3183 -362.867468 
L 385.671647 -362.791581 
L 383.024993 -362.689357 
L 380.37834 -362.673749 
L 377.731687 -362.477832 
L 375.085033 -362.391217 
L 372.43838 -362.439273 
L 369.791727 -362.386073 
L 367.145073 -362.294006 
L 364.49842 -362.242477 
L 361.851767 -362.058212 
L 359.205113 -362.026775 
L 356.55846 -361.846159 
L 353.911807 -361.69333 
L 351.265153 -361.614233 
L 348.6185 -361.479782 
L 345.971847 -361.341198 
L 343.325193 -361.177553 
L 340.67854 -360.921753 
L 338.031887 -360.794029 
L 335.385233 -360.764527 
L 332.73858 -360.617722 
L 330.091927 -360.445547 
L 327.445273 -360.283748 
L 324.79862 -360.111178 
L 322.151967 -359.951182 
L 319.505313 -359.902511 
L 316.85866 -359.867469 
L 314.212007 -359.687161 
L 311.565353 -359.545279 
L 308.9187 -359.351341 
L 306.272047 -359.215923 
L 303.625393 -358.899712 
L 300.97874 -358.959859 
L 298.332087 -358.988262 
L 295.685433 -358.953176 
L 293.03878 -358.656839 
L 290.392127 -358.45503 
L 287.745473 -358.448479 
L 285.09882 -358.383628 
L 282.452167 -358.402841 
L 279.805513 -358.335792 
L 277.15886 -358.478684 
L 274.512207 -358.231766 
L 271.865553 -358.052205 
L 269.2189 -357.733356 
L 266.572247 -357.692951 
L 263.925593 -357.461333 
L 261.27894 -357.345611 
L 258.632287 -356.991677 
L 255.985633 -356.742473 
L 253.33898 -356.35464 
L 250.692327 -356.239578 
L 248.045673 -356.080418 
L 245.39902 -355.839259 
L 242.752367 -355.693333 
L 240.105713 -355.515882 
L 237.45906 -355.43828 
L 234.812407 -355.407064 
L 232.165753 -355.223985 
L 229.5191 -355.097844 
L 226.872447 -354.811575 
L 224.225793 -354.660592 
L 221.57914 -354.320552 
L 218.932487 -353.974444 
L 216.285833 -353.709807 
L 213.63918 -353.319028 
L 210.992527 -353.094753 
L 208.345873 -352.878787 
L 205.69922 -352.642157 
L 203.052567 -352.387808 
L 200.405913 -352.014132 
L 197.75926 -351.481956 
L 195.112607 -351.472767 
L 192.465953 -351.258384 
L 189.8193 -350.640956 
L 187.172647 -350.433168 
L 184.525993 -350.565728 
L 181.87934 -350.527433 
L 179.232687 -350.133225 
L 176.586033 -350.0394 
L 173.93938 -349.664405 
L 171.292727 -349.592959 
L 168.646073 -348.967925 
L 165.99942 -348.588314 
L 163.352767 -348.329436 
L 160.706113 -347.750127 
L 158.05946 -347.459989 
L 155.412807 -347.346247 
L 152.766153 -346.945356 
L 150.1195 -346.611734 
L 147.472847 -346.378797 
L 144.826193 -346.226496 
L 142.17954 -346.092616 
L 139.532887 -345.534631 
L 136.886233 -344.89755 
L 134.23958 -344.009065 
L 131.592927 -343.663837 
L 128.946273 -343.533782 
L 126.29962 -343.07912 
L 123.652967 -342.864253 
L 121.006313 -342.081158 
L 118.35966 -341.639597 
L 115.713007 -341.375224 
L 113.066353 -340.682612 
L 110.4197 -340.188423 
L 107.773047 -339.351204 
L 105.126393 -338.745251 
L 102.47974 -338.107291 
L 99.833087 -337.43187 
L 97.186433 -337.127267 
L 94.53978 -336.484602 
L 91.893127 -335.781658 
L 89.246473 -335.838023 
L 86.59982 -335.168055 
L 83.953167 -334.23169 
L 81.306513 -332.90314 
L 78.65986 -332.174519 
L 76.013207 -330.784239 
L 73.366553 -329.322689 
L 70.7199 -326.833191 
L 68.073247 -325.147981 
L 65.426593 -322.381667 
L 62.77994 -319.046904 
L 60.133287 -316.1508 
L 57.486633 -311.123264 
L 54.83998 -304.932143 
L 52.193327 -305.097722 
z
" style="stroke: #0000ff; stroke-opacity: 0.2"/>
    </defs>
    <g clip-path="url(#p936d4a8b2b)">
     <use xlink:href="#mf282e53414" x="0" y="432" style="fill: #0000ff; fill-opacity: 0.2; stroke: #0000ff; stroke-opacity: 0.2"/>
    </g>
   </g>
   <g id="matplotlib.axis_1">
    <g id="xtick_1">
     <g id="line2d_1">
      <defs>
       <path id="md0f7e44b94" d="M 0 0 
L 0 3.5 
" style="stroke: #000000; stroke-width: 0.8"/>
      </defs>
      <g>
       <use xlink:href="#md0f7e44b94" x="181.87934" y="390.04" style="stroke: #000000; stroke-width: 0.8"/>
      </g>
     </g>
     <g id="text_1">
      <!-- 50 -->
      <g transform="translate(175.51684 404.638438) scale(0.1 -0.1)">
       <defs>
        <path id="DejaVuSans-35" d="M 691 4666 
L 3169 4666 
L 3169 4134 
L 1269 4134 
L 1269 2991 
Q 1406 3038 1543 3061 
Q 1681 3084 1819 3084 
Q 2600 3084 3056 2656 
Q 3513 2228 3513 1497 
Q 3513 744 3044 326 
Q 2575 -91 1722 -91 
Q 1428 -91 1123 -41 
Q 819 9 494 109 
L 494 744 
Q 775 591 1075 516 
Q 1375 441 1709 441 
Q 2250 441 2565 725 
Q 2881 1009 2881 1497 
Q 2881 1984 2565 2268 
Q 2250 2553 1709 2553 
Q 1456 2553 1204 2497 
Q 953 2441 691 2322 
L 691 4666 
z
" transform="scale(0.015625)"/>
        <path id="DejaVuSans-30" d="M 2034 4250 
Q 1547 4250 1301 3770 
Q 1056 3291 1056 2328 
Q 1056 1369 1301 889 
Q 1547 409 2034 409 
Q 2525 409 2770 889 
Q 3016 1369 3016 2328 
Q 3016 3291 2770 3770 
Q 2525 4250 2034 4250 
z
M 2034 4750 
Q 2819 4750 3233 4129 
Q 3647 3509 3647 2328 
Q 3647 1150 3233 529 
Q 2819 -91 2034 -91 
Q 1250 -91 836 529 
Q 422 1150 422 2328 
Q 422 3509 836 4129 
Q 1250 4750 2034 4750 
z
" transform="scale(0.015625)"/>
       </defs>
       <use xlink:href="#DejaVuSans-35"/>
       <use xlink:href="#DejaVuSans-30" transform="translate(63.623047 0)"/>
      </g>
     </g>
    </g>
    <g id="xtick_2">
     <g id="line2d_2">
      <g>
       <use xlink:href="#md0f7e44b94" x="314.212007" y="390.04" style="stroke: #000000; stroke-width: 0.8"/>
      </g>
     </g>
     <g id="text_2">
      <!-- 100 -->
      <g transform="translate(304.668257 404.638438) scale(0.1 -0.1)">
       <defs>
        <path id="DejaVuSans-31" d="M 794 531 
L 1825 531 
L 1825 4091 
L 703 3866 
L 703 4441 
L 1819 4666 
L 2450 4666 
L 2450 531 
L 3481 531 
L 3481 0 
L 794 0 
L 794 531 
z
" transform="scale(0.015625)"/>
       </defs>
       <use xlink:href="#DejaVuSans-31"/>
       <use xlink:href="#DejaVuSans-30" transform="translate(63.623047 0)"/>
       <use xlink:href="#DejaVuSans-30" transform="translate(127.246094 0)"/>
      </g>
     </g>
    </g>
    <g id="xtick_3">
     <g id="line2d_3">
      <g>
       <use xlink:href="#md0f7e44b94" x="446.544673" y="390.04" style="stroke: #000000; stroke-width: 0.8"/>
      </g>
     </g>
     <g id="text_3">
      <!-- 150 -->
      <g transform="translate(437.000923 404.638438) scale(0.1 -0.1)">
       <use xlink:href="#DejaVuSans-31"/>
       <use xlink:href="#DejaVuSans-35" transform="translate(63.623047 0)"/>
       <use xlink:href="#DejaVuSans-30" transform="translate(127.246094 0)"/>
      </g>
     </g>
    </g>
    <g id="xtick_4">
     <g id="line2d_4">
      <g>
       <use xlink:href="#md0f7e44b94" x="578.87734" y="390.04" style="stroke: #000000; stroke-width: 0.8"/>
      </g>
     </g>
     <g id="text_4">
      <!-- 200 -->
      <g transform="translate(569.33359 404.638438) scale(0.1 -0.1)">
       <defs>
        <path id="DejaVuSans-32" d="M 1228 531 
L 3431 531 
L 3431 0 
L 469 0 
L 469 531 
Q 828 903 1448 1529 
Q 2069 2156 2228 2338 
Q 2531 2678 2651 2914 
Q 2772 3150 2772 3378 
Q 2772 3750 2511 3984 
Q 2250 4219 1831 4219 
Q 1534 4219 1204 4116 
Q 875 4013 500 3803 
L 500 4441 
Q 881 4594 1212 4672 
Q 1544 4750 1819 4750 
Q 2544 4750 2975 4387 
Q 3406 4025 3406 3419 
Q 3406 3131 3298 2873 
Q 3191 2616 2906 2266 
Q 2828 2175 2409 1742 
Q 1991 1309 1228 531 
z
" transform="scale(0.015625)"/>
       </defs>
       <use xlink:href="#DejaVuSans-32"/>
       <use xlink:href="#DejaVuSans-30" transform="translate(63.623047 0)"/>
       <use xlink:href="#DejaVuSans-30" transform="translate(127.246094 0)"/>
      </g>
     </g>
    </g>
    <g id="xtick_5">
     <g id="line2d_5">
      <g>
       <use xlink:href="#md0f7e44b94" x="711.210007" y="390.04" style="stroke: #000000; stroke-width: 0.8"/>
      </g>
     </g>
     <g id="text_5">
      <!-- 250 -->
      <g transform="translate(701.666257 404.638438) scale(0.1 -0.1)">
       <use xlink:href="#DejaVuSans-32"/>
       <use xlink:href="#DejaVuSans-35" transform="translate(63.623047 0)"/>
       <use xlink:href="#DejaVuSans-30" transform="translate(127.246094 0)"/>
      </g>
     </g>
    </g>
    <g id="xtick_6">
     <g id="line2d_6">
      <g>
       <use xlink:href="#md0f7e44b94" x="843.542673" y="390.04" style="stroke: #000000; stroke-width: 0.8"/>
      </g>
     </g>
     <g id="text_6">
      <!-- 300 -->
      <g transform="translate(833.998923 404.638438) scale(0.1 -0.1)">
       <defs>
        <path id="DejaVuSans-33" d="M 2597 2516 
Q 3050 2419 3304 2112 
Q 3559 1806 3559 1356 
Q 3559 666 3084 287 
Q 2609 -91 1734 -91 
Q 1441 -91 1130 -33 
Q 819 25 488 141 
L 488 750 
Q 750 597 1062 519 
Q 1375 441 1716 441 
Q 2309 441 2620 675 
Q 2931 909 2931 1356 
Q 2931 1769 2642 2001 
Q 2353 2234 1838 2234 
L 1294 2234 
L 1294 2753 
L 1863 2753 
Q 2328 2753 2575 2939 
Q 2822 3125 2822 3475 
Q 2822 3834 2567 4026 
Q 2313 4219 1838 4219 
Q 1578 4219 1281 4162 
Q 984 4106 628 3988 
L 628 4550 
Q 988 4650 1302 4700 
Q 1616 4750 1894 4750 
Q 2613 4750 3031 4423 
Q 3450 4097 3450 3541 
Q 3450 3153 3228 2886 
Q 3006 2619 2597 2516 
z
" transform="scale(0.015625)"/>
       </defs>
       <use xlink:href="#DejaVuSans-33"/>
       <use xlink:href="#DejaVuSans-30" transform="translate(63.623047 0)"/>
       <use xlink:href="#DejaVuSans-30" transform="translate(127.246094 0)"/>
      </g>
     </g>
    </g>
    <g id="text_7">
     <!-- Step -->
     <g transform="translate(436.482844 418.316562) scale(0.1 -0.1)">
      <defs>
       <path id="DejaVuSans-53" d="M 3425 4513 
L 3425 3897 
Q 3066 4069 2747 4153 
Q 2428 4238 2131 4238 
Q 1616 4238 1336 4038 
Q 1056 3838 1056 3469 
Q 1056 3159 1242 3001 
Q 1428 2844 1947 2747 
L 2328 2669 
Q 3034 2534 3370 2195 
Q 3706 1856 3706 1288 
Q 3706 609 3251 259 
Q 2797 -91 1919 -91 
Q 1588 -91 1214 -16 
Q 841 59 441 206 
L 441 856 
Q 825 641 1194 531 
Q 1563 422 1919 422 
Q 2459 422 2753 634 
Q 3047 847 3047 1241 
Q 3047 1584 2836 1778 
Q 2625 1972 2144 2069 
L 1759 2144 
Q 1053 2284 737 2584 
Q 422 2884 422 3419 
Q 422 4038 858 4394 
Q 1294 4750 2059 4750 
Q 2388 4750 2728 4690 
Q 3069 4631 3425 4513 
z
" transform="scale(0.015625)"/>
       <path id="DejaVuSans-74" d="M 1172 4494 
L 1172 3500 
L 2356 3500 
L 2356 3053 
L 1172 3053 
L 1172 1153 
Q 1172 725 1289 603 
Q 1406 481 1766 481 
L 2356 481 
L 2356 0 
L 1766 0 
Q 1100 0 847 248 
Q 594 497 594 1153 
L 594 3053 
L 172 3053 
L 172 3500 
L 594 3500 
L 594 4494 
L 1172 4494 
z
" transform="scale(0.015625)"/>
       <path id="DejaVuSans-65" d="M 3597 1894 
L 3597 1613 
L 953 1613 
Q 991 1019 1311 708 
Q 1631 397 2203 397 
Q 2534 397 2845 478 
Q 3156 559 3463 722 
L 3463 178 
Q 3153 47 2828 -22 
Q 2503 -91 2169 -91 
Q 1331 -91 842 396 
Q 353 884 353 1716 
Q 353 2575 817 3079 
Q 1281 3584 2069 3584 
Q 2775 3584 3186 3129 
Q 3597 2675 3597 1894 
z
M 3022 2063 
Q 3016 2534 2758 2815 
Q 2500 3097 2075 3097 
Q 1594 3097 1305 2825 
Q 1016 2553 972 2059 
L 3022 2063 
z
" transform="scale(0.015625)"/>
       <path id="DejaVuSans-70" d="M 1159 525 
L 1159 -1331 
L 581 -1331 
L 581 3500 
L 1159 3500 
L 1159 2969 
Q 1341 3281 1617 3432 
Q 1894 3584 2278 3584 
Q 2916 3584 3314 3078 
Q 3713 2572 3713 1747 
Q 3713 922 3314 415 
Q 2916 -91 2278 -91 
Q 1894 -91 1617 61 
Q 1341 213 1159 525 
z
M 3116 1747 
Q 3116 2381 2855 2742 
Q 2594 3103 2138 3103 
Q 1681 3103 1420 2742 
Q 1159 2381 1159 1747 
Q 1159 1113 1420 752 
Q 1681 391 2138 391 
Q 2594 391 2855 752 
Q 3116 1113 3116 1747 
z
" transform="scale(0.015625)"/>
      </defs>
      <use xlink:href="#DejaVuSans-53"/>
      <use xlink:href="#DejaVuSans-74" transform="translate(63.476562 0)"/>
      <use xlink:href="#DejaVuSans-65" transform="translate(102.685547 0)"/>
      <use xlink:href="#DejaVuSans-70" transform="translate(164.208984 0)"/>
     </g>
    </g>
   </g>
   <g id="matplotlib.axis_2">
    <g id="ytick_1">
     <g id="line2d_7">
      <defs>
       <path id="m0c81a8967c" d="M 0 0 
L -3.5 0 
" style="stroke: #000000; stroke-width: 0.8"/>
      </defs>
      <g>
       <use xlink:href="#m0c81a8967c" x="50.87" y="348.018211" style="stroke: #000000; stroke-width: 0.8"/>
      </g>
     </g>
     <g id="text_8">
      <!-- 100 -->
      <g transform="translate(24.7825 351.817429) scale(0.1 -0.1)">
       <use xlink:href="#DejaVuSans-31"/>
       <use xlink:href="#DejaVuSans-30" transform="translate(63.623047 0)"/>
       <use xlink:href="#DejaVuSans-30" transform="translate(127.246094 0)"/>
      </g>
     </g>
    </g>
    <g id="ytick_2">
     <g id="line2d_8">
      <g>
       <use xlink:href="#m0c81a8967c" x="50.87" y="275.982721" style="stroke: #000000; stroke-width: 0.8"/>
      </g>
     </g>
     <g id="text_9">
      <!-- 150 -->
      <g transform="translate(24.7825 279.78194) scale(0.1 -0.1)">
       <use xlink:href="#DejaVuSans-31"/>
       <use xlink:href="#DejaVuSans-35" transform="translate(63.623047 0)"/>
       <use xlink:href="#DejaVuSans-30" transform="translate(127.246094 0)"/>
      </g>
     </g>
    </g>
    <g id="ytick_3">
     <g id="line2d_9">
      <g>
       <use xlink:href="#m0c81a8967c" x="50.87" y="203.947232" style="stroke: #000000; stroke-width: 0.8"/>
      </g>
     </g>
     <g id="text_10">
      <!-- 200 -->
      <g transform="translate(24.7825 207.746451) scale(0.1 -0.1)">
       <use xlink:href="#DejaVuSans-32"/>
       <use xlink:href="#DejaVuSans-30" transform="translate(63.623047 0)"/>
       <use xlink:href="#DejaVuSans-30" transform="translate(127.246094 0)"/>
      </g>
     </g>
    </g>
    <g id="ytick_4">
     <g id="line2d_10">
      <g>
       <use xlink:href="#m0c81a8967c" x="50.87" y="131.911743" style="stroke: #000000; stroke-width: 0.8"/>
      </g>
     </g>
     <g id="text_11">
      <!-- 250 -->
      <g transform="translate(24.7825 135.710961) scale(0.1 -0.1)">
       <use xlink:href="#DejaVuSans-32"/>
       <use xlink:href="#DejaVuSans-35" transform="translate(63.623047 0)"/>
       <use xlink:href="#DejaVuSans-30" transform="translate(127.246094 0)"/>
      </g>
     </g>
    </g>
    <g id="ytick_5">
     <g id="line2d_11">
      <g>
       <use xlink:href="#m0c81a8967c" x="50.87" y="59.876253" style="stroke: #000000; stroke-width: 0.8"/>
      </g>
     </g>
     <g id="text_12">
      <!-- 300 -->
      <g transform="translate(24.7825 63.675472) scale(0.1 -0.1)">
       <use xlink:href="#DejaVuSans-33"/>
       <use xlink:href="#DejaVuSans-30" transform="translate(63.623047 0)"/>
       <use xlink:href="#DejaVuSans-30" transform="translate(127.246094 0)"/>
      </g>
     </g>
    </g>
    <g id="text_13">
     <!-- Profit -->
     <g transform="translate(18.702813 229.779063) rotate(-90) scale(0.1 -0.1)">
      <defs>
       <path id="DejaVuSans-50" d="M 1259 4147 
L 1259 2394 
L 2053 2394 
Q 2494 2394 2734 2622 
Q 2975 2850 2975 3272 
Q 2975 3691 2734 3919 
Q 2494 4147 2053 4147 
L 1259 4147 
z
M 628 4666 
L 2053 4666 
Q 2838 4666 3239 4311 
Q 3641 3956 3641 3272 
Q 3641 2581 3239 2228 
Q 2838 1875 2053 1875 
L 1259 1875 
L 1259 0 
L 628 0 
L 628 4666 
z
" transform="scale(0.015625)"/>
       <path id="DejaVuSans-72" d="M 2631 2963 
Q 2534 3019 2420 3045 
Q 2306 3072 2169 3072 
Q 1681 3072 1420 2755 
Q 1159 2438 1159 1844 
L 1159 0 
L 581 0 
L 581 3500 
L 1159 3500 
L 1159 2956 
Q 1341 3275 1631 3429 
Q 1922 3584 2338 3584 
Q 2397 3584 2469 3576 
Q 2541 3569 2628 3553 
L 2631 2963 
z
" transform="scale(0.015625)"/>
       <path id="DejaVuSans-6f" d="M 1959 3097 
Q 1497 3097 1228 2736 
Q 959 2375 959 1747 
Q 959 1119 1226 758 
Q 1494 397 1959 397 
Q 2419 397 2687 759 
Q 2956 1122 2956 1747 
Q 2956 2369 2687 2733 
Q 2419 3097 1959 3097 
z
M 1959 3584 
Q 2709 3584 3137 3096 
Q 3566 2609 3566 1747 
Q 3566 888 3137 398 
Q 2709 -91 1959 -91 
Q 1206 -91 779 398 
Q 353 888 353 1747 
Q 353 2609 779 3096 
Q 1206 3584 1959 3584 
z
" transform="scale(0.015625)"/>
       <path id="DejaVuSans-66" d="M 2375 4863 
L 2375 4384 
L 1825 4384 
Q 1516 4384 1395 4259 
Q 1275 4134 1275 3809 
L 1275 3500 
L 2222 3500 
L 2222 3053 
L 1275 3053 
L 1275 0 
L 697 0 
L 697 3053 
L 147 3053 
L 147 3500 
L 697 3500 
L 697 3744 
Q 697 4328 969 4595 
Q 1241 4863 1831 4863 
L 2375 4863 
z
" transform="scale(0.015625)"/>
       <path id="DejaVuSans-69" d="M 603 3500 
L 1178 3500 
L 1178 0 
L 603 0 
L 603 3500 
z
M 603 4863 
L 1178 4863 
L 1178 4134 
L 603 4134 
L 603 4863 
z
" transform="scale(0.015625)"/>
      </defs>
      <use xlink:href="#DejaVuSans-50"/>
      <use xlink:href="#DejaVuSans-72" transform="translate(58.552734 0)"/>
      <use xlink:href="#DejaVuSans-6f" transform="translate(97.416016 0)"/>
      <use xlink:href="#DejaVuSans-66" transform="translate(158.597656 0)"/>
      <use xlink:href="#DejaVuSans-69" transform="translate(193.802734 0)"/>
      <use xlink:href="#DejaVuSans-74" transform="translate(221.585938 0)"/>
     </g>
    </g>
   </g>
   <g id="line2d_12">
    <path d="M 52.193327 250.471588 
L 54.83998 250.67665 
L 60.133287 234.642335 
L 62.77994 227.442259 
L 65.426593 221.043966 
L 68.073247 215.44952 
L 70.7199 210.480175 
L 73.366553 206.113133 
L 76.013207 201.980413 
L 78.65986 198.472135 
L 81.306513 195.305809 
L 83.953167 192.397042 
L 89.246473 187.217821 
L 94.53978 182.891624 
L 102.47974 177.466759 
L 105.126393 175.885223 
L 110.4197 173.153467 
L 113.066353 171.833271 
L 121.006313 168.310131 
L 128.946273 165.096761 
L 131.592927 164.286362 
L 134.23958 163.29339 
L 150.1195 158.737246 
L 152.766153 158.179921 
L 158.05946 156.746598 
L 163.352767 155.347415 
L 184.525993 150.851176 
L 192.465953 149.524539 
L 195.112607 148.965235 
L 208.345873 146.891313 
L 221.57914 144.857554 
L 226.872447 144.193433 
L 245.39902 141.875912 
L 271.865553 139.035865 
L 277.15886 138.52099 
L 279.805513 138.160021 
L 308.9187 135.699981 
L 314.212007 135.266687 
L 324.79862 134.35912 
L 340.67854 133.308046 
L 348.6185 132.650036 
L 356.55846 132.158815 
L 369.791727 131.417862 
L 433.311407 127.83928 
L 438.604713 127.64255 
L 480.951167 125.709344 
L 515.35766 124.158914 
L 584.170647 121.765132 
L 597.403913 121.394623 
L 602.69722 121.172721 
L 615.930487 120.794474 
L 631.810407 120.305473 
L 639.750367 120.058203 
L 647.690327 119.794928 
L 655.630287 119.622842 
L 727.089927 117.821163 
L 748.263153 117.411083 
L 753.55646 117.247394 
L 761.49642 116.98412 
L 774.729687 116.591803 
L 785.3163 116.40846 
L 795.902913 116.150506 
L 806.489527 115.968747 
L 811.782833 115.872679 
L 832.95606 115.414763 
L 843.542673 115.195367 
L 843.542673 115.195367 
" clip-path="url(#p936d4a8b2b)" style="fill: none; stroke: #0000ff; stroke-width: 1.5; stroke-linecap: square"/>
   </g>
   <g id="patch_3">
    <path d="M 50.87 390.04 
L 50.87 43.44 
" style="fill: none; stroke: #000000; stroke-width: 0.8; stroke-linejoin: miter; stroke-linecap: square"/>
   </g>
   <g id="patch_4">
    <path d="M 844.866 390.04 
L 844.866 43.44 
" style="fill: none; stroke: #000000; stroke-width: 0.8; stroke-linejoin: miter; stroke-linecap: square"/>
   </g>
   <g id="patch_5">
    <path d="M 50.87 390.04 
L 844.866 390.04 
" style="fill: none; stroke: #000000; stroke-width: 0.8; stroke-linejoin: miter; stroke-linecap: square"/>
   </g>
   <g id="patch_6">
    <path d="M 50.87 43.44 
L 844.866 43.44 
" style="fill: none; stroke: #000000; stroke-width: 0.8; stroke-linejoin: miter; stroke-linecap: square"/>
   </g>
   <g id="text_14">
    <!-- Mean profit per step with confidence interval per simulation step -->
    <g transform="translate(220.284875 21.763062) scale(0.14 -0.14)">
     <defs>
      <path id="DejaVuSans-4d" d="M 628 4666 
L 1569 4666 
L 2759 1491 
L 3956 4666 
L 4897 4666 
L 4897 0 
L 4281 0 
L 4281 4097 
L 3078 897 
L 2444 897 
L 1241 4097 
L 1241 0 
L 628 0 
L 628 4666 
z
" transform="scale(0.015625)"/>
      <path id="DejaVuSans-61" d="M 2194 1759 
Q 1497 1759 1228 1600 
Q 959 1441 959 1056 
Q 959 750 1161 570 
Q 1363 391 1709 391 
Q 2188 391 2477 730 
Q 2766 1069 2766 1631 
L 2766 1759 
L 2194 1759 
z
M 3341 1997 
L 3341 0 
L 2766 0 
L 2766 531 
Q 2569 213 2275 61 
Q 1981 -91 1556 -91 
Q 1019 -91 701 211 
Q 384 513 384 1019 
Q 384 1609 779 1909 
Q 1175 2209 1959 2209 
L 2766 2209 
L 2766 2266 
Q 2766 2663 2505 2880 
Q 2244 3097 1772 3097 
Q 1472 3097 1187 3025 
Q 903 2953 641 2809 
L 641 3341 
Q 956 3463 1253 3523 
Q 1550 3584 1831 3584 
Q 2591 3584 2966 3190 
Q 3341 2797 3341 1997 
z
" transform="scale(0.015625)"/>
      <path id="DejaVuSans-6e" d="M 3513 2113 
L 3513 0 
L 2938 0 
L 2938 2094 
Q 2938 2591 2744 2837 
Q 2550 3084 2163 3084 
Q 1697 3084 1428 2787 
Q 1159 2491 1159 1978 
L 1159 0 
L 581 0 
L 581 3500 
L 1159 3500 
L 1159 2956 
Q 1366 3272 1645 3428 
Q 1925 3584 2291 3584 
Q 2894 3584 3203 3211 
Q 3513 2838 3513 2113 
z
" transform="scale(0.015625)"/>
      <path id="DejaVuSans-20" transform="scale(0.015625)"/>
      <path id="DejaVuSans-73" d="M 2834 3397 
L 2834 2853 
Q 2591 2978 2328 3040 
Q 2066 3103 1784 3103 
Q 1356 3103 1142 2972 
Q 928 2841 928 2578 
Q 928 2378 1081 2264 
Q 1234 2150 1697 2047 
L 1894 2003 
Q 2506 1872 2764 1633 
Q 3022 1394 3022 966 
Q 3022 478 2636 193 
Q 2250 -91 1575 -91 
Q 1294 -91 989 -36 
Q 684 19 347 128 
L 347 722 
Q 666 556 975 473 
Q 1284 391 1588 391 
Q 1994 391 2212 530 
Q 2431 669 2431 922 
Q 2431 1156 2273 1281 
Q 2116 1406 1581 1522 
L 1381 1569 
Q 847 1681 609 1914 
Q 372 2147 372 2553 
Q 372 3047 722 3315 
Q 1072 3584 1716 3584 
Q 2034 3584 2315 3537 
Q 2597 3491 2834 3397 
z
" transform="scale(0.015625)"/>
      <path id="DejaVuSans-77" d="M 269 3500 
L 844 3500 
L 1563 769 
L 2278 3500 
L 2956 3500 
L 3675 769 
L 4391 3500 
L 4966 3500 
L 4050 0 
L 3372 0 
L 2619 2869 
L 1863 0 
L 1184 0 
L 269 3500 
z
" transform="scale(0.015625)"/>
      <path id="DejaVuSans-68" d="M 3513 2113 
L 3513 0 
L 2938 0 
L 2938 2094 
Q 2938 2591 2744 2837 
Q 2550 3084 2163 3084 
Q 1697 3084 1428 2787 
Q 1159 2491 1159 1978 
L 1159 0 
L 581 0 
L 581 4863 
L 1159 4863 
L 1159 2956 
Q 1366 3272 1645 3428 
Q 1925 3584 2291 3584 
Q 2894 3584 3203 3211 
Q 3513 2838 3513 2113 
z
" transform="scale(0.015625)"/>
      <path id="DejaVuSans-63" d="M 3122 3366 
L 3122 2828 
Q 2878 2963 2633 3030 
Q 2388 3097 2138 3097 
Q 1578 3097 1268 2742 
Q 959 2388 959 1747 
Q 959 1106 1268 751 
Q 1578 397 2138 397 
Q 2388 397 2633 464 
Q 2878 531 3122 666 
L 3122 134 
Q 2881 22 2623 -34 
Q 2366 -91 2075 -91 
Q 1284 -91 818 406 
Q 353 903 353 1747 
Q 353 2603 823 3093 
Q 1294 3584 2113 3584 
Q 2378 3584 2631 3529 
Q 2884 3475 3122 3366 
z
" transform="scale(0.015625)"/>
      <path id="DejaVuSans-64" d="M 2906 2969 
L 2906 4863 
L 3481 4863 
L 3481 0 
L 2906 0 
L 2906 525 
Q 2725 213 2448 61 
Q 2172 -91 1784 -91 
Q 1150 -91 751 415 
Q 353 922 353 1747 
Q 353 2572 751 3078 
Q 1150 3584 1784 3584 
Q 2172 3584 2448 3432 
Q 2725 3281 2906 2969 
z
M 947 1747 
Q 947 1113 1208 752 
Q 1469 391 1925 391 
Q 2381 391 2643 752 
Q 2906 1113 2906 1747 
Q 2906 2381 2643 2742 
Q 2381 3103 1925 3103 
Q 1469 3103 1208 2742 
Q 947 2381 947 1747 
z
" transform="scale(0.015625)"/>
      <path id="DejaVuSans-76" d="M 191 3500 
L 800 3500 
L 1894 563 
L 2988 3500 
L 3597 3500 
L 2284 0 
L 1503 0 
L 191 3500 
z
" transform="scale(0.015625)"/>
      <path id="DejaVuSans-6c" d="M 603 4863 
L 1178 4863 
L 1178 0 
L 603 0 
L 603 4863 
z
" transform="scale(0.015625)"/>
      <path id="DejaVuSans-6d" d="M 3328 2828 
Q 3544 3216 3844 3400 
Q 4144 3584 4550 3584 
Q 5097 3584 5394 3201 
Q 5691 2819 5691 2113 
L 5691 0 
L 5113 0 
L 5113 2094 
Q 5113 2597 4934 2840 
Q 4756 3084 4391 3084 
Q 3944 3084 3684 2787 
Q 3425 2491 3425 1978 
L 3425 0 
L 2847 0 
L 2847 2094 
Q 2847 2600 2669 2842 
Q 2491 3084 2119 3084 
Q 1678 3084 1418 2786 
Q 1159 2488 1159 1978 
L 1159 0 
L 581 0 
L 581 3500 
L 1159 3500 
L 1159 2956 
Q 1356 3278 1631 3431 
Q 1906 3584 2284 3584 
Q 2666 3584 2933 3390 
Q 3200 3197 3328 2828 
z
" transform="scale(0.015625)"/>
      <path id="DejaVuSans-75" d="M 544 1381 
L 544 3500 
L 1119 3500 
L 1119 1403 
Q 1119 906 1312 657 
Q 1506 409 1894 409 
Q 2359 409 2629 706 
Q 2900 1003 2900 1516 
L 2900 3500 
L 3475 3500 
L 3475 0 
L 2900 0 
L 2900 538 
Q 2691 219 2414 64 
Q 2138 -91 1772 -91 
Q 1169 -91 856 284 
Q 544 659 544 1381 
z
M 1991 3584 
L 1991 3584 
z
" transform="scale(0.015625)"/>
     </defs>
     <use xlink:href="#DejaVuSans-4d"/>
     <use xlink:href="#DejaVuSans-65" transform="translate(86.279297 0)"/>
     <use xlink:href="#DejaVuSans-61" transform="translate(147.802734 0)"/>
     <use xlink:href="#DejaVuSans-6e" transform="translate(209.082031 0)"/>
     <use xlink:href="#DejaVuSans-20" transform="translate(272.460938 0)"/>
     <use xlink:href="#DejaVuSans-70" transform="translate(304.248047 0)"/>
     <use xlink:href="#DejaVuSans-72" transform="translate(367.724609 0)"/>
     <use xlink:href="#DejaVuSans-6f" transform="translate(406.587891 0)"/>
     <use xlink:href="#DejaVuSans-66" transform="translate(467.769531 0)"/>
     <use xlink:href="#DejaVuSans-69" transform="translate(502.974609 0)"/>
     <use xlink:href="#DejaVuSans-74" transform="translate(530.757812 0)"/>
     <use xlink:href="#DejaVuSans-20" transform="translate(569.966797 0)"/>
     <use xlink:href="#DejaVuSans-70" transform="translate(601.753906 0)"/>
     <use xlink:href="#DejaVuSans-65" transform="translate(665.230469 0)"/>
     <use xlink:href="#DejaVuSans-72" transform="translate(726.753906 0)"/>
     <use xlink:href="#DejaVuSans-20" transform="translate(767.867188 0)"/>
     <use xlink:href="#DejaVuSans-73" transform="translate(799.654297 0)"/>
     <use xlink:href="#DejaVuSans-74" transform="translate(851.753906 0)"/>
     <use xlink:href="#DejaVuSans-65" transform="translate(890.962891 0)"/>
     <use xlink:href="#DejaVuSans-70" transform="translate(952.486328 0)"/>
     <use xlink:href="#DejaVuSans-20" transform="translate(1015.962891 0)"/>
     <use xlink:href="#DejaVuSans-77" transform="translate(1047.75 0)"/>
     <use xlink:href="#DejaVuSans-69" transform="translate(1129.537109 0)"/>
     <use xlink:href="#DejaVuSans-74" transform="translate(1157.320312 0)"/>
     <use xlink:href="#DejaVuSans-68" transform="translate(1196.529297 0)"/>
     <use xlink:href="#DejaVuSans-20" transform="translate(1259.908203 0)"/>
     <use xlink:href="#DejaVuSans-63" transform="translate(1291.695312 0)"/>
     <use xlink:href="#DejaVuSans-6f" transform="translate(1346.675781 0)"/>
     <use xlink:href="#DejaVuSans-6e" transform="translate(1407.857422 0)"/>
     <use xlink:href="#DejaVuSans-66" transform="translate(1471.236328 0)"/>
     <use xlink:href="#DejaVuSans-69" transform="translate(1506.441406 0)"/>
     <use xlink:href="#DejaVuSans-64" transform="translate(1534.224609 0)"/>
     <use xlink:href="#DejaVuSans-65" transform="translate(1597.701172 0)"/>
     <use xlink:href="#DejaVuSans-6e" transform="translate(1659.224609 0)"/>
     <use xlink:href="#DejaVuSans-63" transform="translate(1722.603516 0)"/>
     <use xlink:href="#DejaVuSans-65" transform="translate(1777.583984 0)"/>
     <use xlink:href="#DejaVuSans-20" transform="translate(1839.107422 0)"/>
     <use xlink:href="#DejaVuSans-69" transform="translate(1870.894531 0)"/>
     <use xlink:href="#DejaVuSans-6e" transform="translate(1898.677734 0)"/>
     <use xlink:href="#DejaVuSans-74" transform="translate(1962.056641 0)"/>
     <use xlink:href="#DejaVuSans-65" transform="translate(2001.265625 0)"/>
     <use xlink:href="#DejaVuSans-72" transform="translate(2062.789062 0)"/>
     <use xlink:href="#DejaVuSans-76" transform="translate(2103.902344 0)"/>
     <use xlink:href="#DejaVuSans-61" transform="translate(2163.082031 0)"/>
     <use xlink:href="#DejaVuSans-6c" transform="translate(2224.361328 0)"/>
     <use xlink:href="#DejaVuSans-20" transform="translate(2252.144531 0)"/>
     <use xlink:href="#DejaVuSans-70" transform="translate(2283.931641 0)"/>
     <use xlink:href="#DejaVuSans-65" transform="translate(2347.408203 0)"/>
     <use xlink:href="#DejaVuSans-72" transform="translate(2408.931641 0)"/>
     <use xlink:href="#DejaVuSans-20" transform="translate(2450.044922 0)"/>
     <use xlink:href="#DejaVuSans-73" transform="translate(2481.832031 0)"/>
     <use xlink:href="#DejaVuSans-69" transform="translate(2533.931641 0)"/>
     <use xlink:href="#DejaVuSans-6d" transform="translate(2561.714844 0)"/>
     <use xlink:href="#DejaVuSans-75" transform="translate(2659.126953 0)"/>
     <use xlink:href="#DejaVuSans-6c" transform="translate(2722.505859 0)"/>
     <use xlink:href="#DejaVuSans-61" transform="translate(2750.289062 0)"/>
     <use xlink:href="#DejaVuSans-74" transform="translate(2811.568359 0)"/>
     <use xlink:href="#DejaVuSans-69" transform="translate(2850.777344 0)"/>
     <use xlink:href="#DejaVuSans-6f" transform="translate(2878.560547 0)"/>
     <use xlink:href="#DejaVuSans-6e" transform="translate(2939.742188 0)"/>
     <use xlink:href="#DejaVuSans-20" transform="translate(3003.121094 0)"/>
     <use xlink:href="#DejaVuSans-73" transform="translate(3034.908203 0)"/>
     <use xlink:href="#DejaVuSans-74" transform="translate(3087.007812 0)"/>
     <use xlink:href="#DejaVuSans-65" transform="translate(3126.216797 0)"/>
     <use xlink:href="#DejaVuSans-70" transform="translate(3187.740234 0)"/>
    </g>
    <!-- Base Product: Meth, Recipe size: 9, T0: 20.0 -->
    <g transform="translate(293.881125 37.44) scale(0.14 -0.14)">
     <defs>
      <path id="DejaVuSans-42" d="M 1259 2228 
L 1259 519 
L 2272 519 
Q 2781 519 3026 730 
Q 3272 941 3272 1375 
Q 3272 1813 3026 2020 
Q 2781 2228 2272 2228 
L 1259 2228 
z
M 1259 4147 
L 1259 2741 
L 2194 2741 
Q 2656 2741 2882 2914 
Q 3109 3088 3109 3444 
Q 3109 3797 2882 3972 
Q 2656 4147 2194 4147 
L 1259 4147 
z
M 628 4666 
L 2241 4666 
Q 2963 4666 3353 4366 
Q 3744 4066 3744 3513 
Q 3744 3084 3544 2831 
Q 3344 2578 2956 2516 
Q 3422 2416 3680 2098 
Q 3938 1781 3938 1306 
Q 3938 681 3513 340 
Q 3088 0 2303 0 
L 628 0 
L 628 4666 
z
" transform="scale(0.015625)"/>
      <path id="DejaVuSans-3a" d="M 750 794 
L 1409 794 
L 1409 0 
L 750 0 
L 750 794 
z
M 750 3309 
L 1409 3309 
L 1409 2516 
L 750 2516 
L 750 3309 
z
" transform="scale(0.015625)"/>
      <path id="DejaVuSans-2c" d="M 750 794 
L 1409 794 
L 1409 256 
L 897 -744 
L 494 -744 
L 750 256 
L 750 794 
z
" transform="scale(0.015625)"/>
      <path id="DejaVuSans-52" d="M 2841 2188 
Q 3044 2119 3236 1894 
Q 3428 1669 3622 1275 
L 4263 0 
L 3584 0 
L 2988 1197 
Q 2756 1666 2539 1819 
Q 2322 1972 1947 1972 
L 1259 1972 
L 1259 0 
L 628 0 
L 628 4666 
L 2053 4666 
Q 2853 4666 3247 4331 
Q 3641 3997 3641 3322 
Q 3641 2881 3436 2590 
Q 3231 2300 2841 2188 
z
M 1259 4147 
L 1259 2491 
L 2053 2491 
Q 2509 2491 2742 2702 
Q 2975 2913 2975 3322 
Q 2975 3731 2742 3939 
Q 2509 4147 2053 4147 
L 1259 4147 
z
" transform="scale(0.015625)"/>
      <path id="DejaVuSans-7a" d="M 353 3500 
L 3084 3500 
L 3084 2975 
L 922 459 
L 3084 459 
L 3084 0 
L 275 0 
L 275 525 
L 2438 3041 
L 353 3041 
L 353 3500 
z
" transform="scale(0.015625)"/>
      <path id="DejaVuSans-39" d="M 703 97 
L 703 672 
Q 941 559 1184 500 
Q 1428 441 1663 441 
Q 2288 441 2617 861 
Q 2947 1281 2994 2138 
Q 2813 1869 2534 1725 
Q 2256 1581 1919 1581 
Q 1219 1581 811 2004 
Q 403 2428 403 3163 
Q 403 3881 828 4315 
Q 1253 4750 1959 4750 
Q 2769 4750 3195 4129 
Q 3622 3509 3622 2328 
Q 3622 1225 3098 567 
Q 2575 -91 1691 -91 
Q 1453 -91 1209 -44 
Q 966 3 703 97 
z
M 1959 2075 
Q 2384 2075 2632 2365 
Q 2881 2656 2881 3163 
Q 2881 3666 2632 3958 
Q 2384 4250 1959 4250 
Q 1534 4250 1286 3958 
Q 1038 3666 1038 3163 
Q 1038 2656 1286 2365 
Q 1534 2075 1959 2075 
z
" transform="scale(0.015625)"/>
      <path id="DejaVuSans-54" d="M -19 4666 
L 3928 4666 
L 3928 4134 
L 2272 4134 
L 2272 0 
L 1638 0 
L 1638 4134 
L -19 4134 
L -19 4666 
z
" transform="scale(0.015625)"/>
      <path id="DejaVuSans-2e" d="M 684 794 
L 1344 794 
L 1344 0 
L 684 0 
L 684 794 
z
" transform="scale(0.015625)"/>
     </defs>
     <use xlink:href="#DejaVuSans-42"/>
     <use xlink:href="#DejaVuSans-61" transform="translate(68.603516 0)"/>
     <use xlink:href="#DejaVuSans-73" transform="translate(129.882812 0)"/>
     <use xlink:href="#DejaVuSans-65" transform="translate(181.982422 0)"/>
     <use xlink:href="#DejaVuSans-20" transform="translate(243.505859 0)"/>
     <use xlink:href="#DejaVuSans-50" transform="translate(275.292969 0)"/>
     <use xlink:href="#DejaVuSans-72" transform="translate(333.845703 0)"/>
     <use xlink:href="#DejaVuSans-6f" transform="translate(372.708984 0)"/>
     <use xlink:href="#DejaVuSans-64" transform="translate(433.890625 0)"/>
     <use xlink:href="#DejaVuSans-75" transform="translate(497.367188 0)"/>
     <use xlink:href="#DejaVuSans-63" transform="translate(560.746094 0)"/>
     <use xlink:href="#DejaVuSans-74" transform="translate(615.726562 0)"/>
     <use xlink:href="#DejaVuSans-3a" transform="translate(654.935547 0)"/>
     <use xlink:href="#DejaVuSans-20" transform="translate(688.626953 0)"/>
     <use xlink:href="#DejaVuSans-4d" transform="translate(720.414062 0)"/>
     <use xlink:href="#DejaVuSans-65" transform="translate(806.693359 0)"/>
     <use xlink:href="#DejaVuSans-74" transform="translate(868.216797 0)"/>
     <use xlink:href="#DejaVuSans-68" transform="translate(907.425781 0)"/>
     <use xlink:href="#DejaVuSans-2c" transform="translate(970.804688 0)"/>
     <use xlink:href="#DejaVuSans-20" transform="translate(1002.591797 0)"/>
     <use xlink:href="#DejaVuSans-52" transform="translate(1034.378906 0)"/>
     <use xlink:href="#DejaVuSans-65" transform="translate(1099.361328 0)"/>
     <use xlink:href="#DejaVuSans-63" transform="translate(1160.884766 0)"/>
     <use xlink:href="#DejaVuSans-69" transform="translate(1215.865234 0)"/>
     <use xlink:href="#DejaVuSans-70" transform="translate(1243.648438 0)"/>
     <use xlink:href="#DejaVuSans-65" transform="translate(1307.125 0)"/>
     <use xlink:href="#DejaVuSans-20" transform="translate(1368.648438 0)"/>
     <use xlink:href="#DejaVuSans-73" transform="translate(1400.435547 0)"/>
     <use xlink:href="#DejaVuSans-69" transform="translate(1452.535156 0)"/>
     <use xlink:href="#DejaVuSans-7a" transform="translate(1480.318359 0)"/>
     <use xlink:href="#DejaVuSans-65" transform="translate(1532.808594 0)"/>
     <use xlink:href="#DejaVuSans-3a" transform="translate(1594.332031 0)"/>
     <use xlink:href="#DejaVuSans-20" transform="translate(1628.023438 0)"/>
     <use xlink:href="#DejaVuSans-39" transform="translate(1659.810547 0)"/>
     <use xlink:href="#DejaVuSans-2c" transform="translate(1723.433594 0)"/>
     <use xlink:href="#DejaVuSans-20" transform="translate(1755.220703 0)"/>
     <use xlink:href="#DejaVuSans-54" transform="translate(1787.007812 0)"/>
     <use xlink:href="#DejaVuSans-30" transform="translate(1848.091797 0)"/>
     <use xlink:href="#DejaVuSans-3a" transform="translate(1911.714844 0)"/>
     <use xlink:href="#DejaVuSans-20" transform="translate(1945.40625 0)"/>
     <use xlink:href="#DejaVuSans-32" transform="translate(1977.193359 0)"/>
     <use xlink:href="#DejaVuSans-30" transform="translate(2040.816406 0)"/>
     <use xlink:href="#DejaVuSans-2e" transform="translate(2104.439453 0)"/>
     <use xlink:href="#DejaVuSans-30" transform="translate(2136.226562 0)"/>
    </g>
   </g>
  </g>
 </g>
 <defs>
  <clipPath id="p936d4a8b2b">
   <rect x="50.87" y="43.44" width="793.996" height="346.6"/>
  </clipPath>
 </defs>
</svg>
