<?xml version="1.0" encoding="utf-8" standalone="no"?>
<!DOCTYPE svg PUBLIC "-//W3C//DTD SVG 1.1//EN"
  "http://www.w3.org/Graphics/SVG/1.1/DTD/svg11.dtd">
<svg xmlns:xlink="http://www.w3.org/1999/xlink" width="864pt" height="432pt" viewBox="0 0 864 432" xmlns="http://www.w3.org/2000/svg" version="1.1">
 <metadata>
  <rdf:RDF xmlns:dc="http://purl.org/dc/elements/1.1/" xmlns:cc="http://creativecommons.org/ns#" xmlns:rdf="http://www.w3.org/1999/02/22-rdf-syntax-ns#">
   <cc:Work>
    <dc:type rdf:resource="http://purl.org/dc/dcmitype/StillImage"/>
    <dc:date>2025-05-24T02:17:51.041931</dc:date>
    <dc:format>image/svg+xml</dc:format>
    <dc:creator>
     <cc:Agent>
      <dc:title>Matplotlib v3.10.3, https://matplotlib.org/</dc:title>
     </cc:Agent>
    </dc:creator>
   </cc:Work>
  </rdf:RDF>
 </metadata>
 <defs>
  <style type="text/css">*{stroke-linejoin: round; stroke-linecap: butt}</style>
 </defs>
 <g id="figure_1">
  <g id="patch_1">
   <path d="M 0 432 
L 864 432 
L 864 0 
L 0 0 
z
" style="fill: #ffffff"/>
  </g>
  <g id="axes_1">
   <g id="patch_2">
    <path d="M 50.87 390.04 
L 844.866 390.04 
L 844.866 43.44 
L 50.87 43.44 
z
" style="fill: #ffffff"/>
   </g>
   <g id="FillBetweenPolyCollection_1">
    <defs>
     <path id="ma80f3142a6" d="M 52.193327 -300.958927 
L 52.193327 -57.714545 
L 54.83998 -58.501756 
L 57.486633 -67.962426 
L 60.133287 -77.906305 
L 62.77994 -87.880377 
L 65.426593 -95.681888 
L 68.073247 -104.16299 
L 70.7199 -112.010106 
L 73.366553 -119.118986 
L 76.013207 -125.859183 
L 78.65986 -131.127457 
L 81.306513 -136.066746 
L 83.953167 -140.919765 
L 86.59982 -145.862556 
L 89.246473 -149.941426 
L 91.893127 -154.134149 
L 94.53978 -158.14848 
L 97.186433 -162.177928 
L 99.833087 -165.481193 
L 102.47974 -167.497973 
L 105.126393 -171.132875 
L 107.773047 -173.711391 
L 110.4197 -176.320338 
L 113.066353 -178.476269 
L 115.713007 -181.319186 
L 118.35966 -183.427848 
L 121.006313 -185.618582 
L 123.652967 -187.292304 
L 126.29962 -189.45748 
L 128.946273 -191.295432 
L 131.592927 -193.068737 
L 134.23958 -194.975993 
L 136.886233 -196.758303 
L 139.532887 -197.943595 
L 142.17954 -199.558542 
L 144.826193 -200.709944 
L 147.472847 -202.043848 
L 150.1195 -202.552421 
L 152.766153 -204.099391 
L 155.412807 -205.206483 
L 158.05946 -206.653196 
L 160.706113 -207.567235 
L 163.352767 -208.330942 
L 165.99942 -209.312 
L 168.646073 -210.372737 
L 171.292727 -211.279315 
L 173.93938 -212.112239 
L 176.586033 -213.178349 
L 179.232687 -214.097282 
L 181.87934 -215.213966 
L 184.525993 -216.200745 
L 187.172647 -217.300985 
L 189.8193 -217.822065 
L 192.465953 -218.505441 
L 195.112607 -219.094824 
L 197.75926 -219.720099 
L 200.405913 -220.525962 
L 203.052567 -221.158176 
L 205.69922 -221.928279 
L 208.345873 -222.63295 
L 210.992527 -223.179328 
L 213.63918 -223.694427 
L 216.285833 -223.90151 
L 218.932487 -224.477037 
L 221.57914 -224.969839 
L 224.225793 -225.68643 
L 226.872447 -226.030859 
L 229.5191 -226.246295 
L 232.165753 -226.849448 
L 234.812407 -227.385276 
L 237.45906 -227.839707 
L 240.105713 -228.312127 
L 242.752367 -228.826247 
L 245.39902 -229.38261 
L 248.045673 -230.021567 
L 250.692327 -230.339936 
L 253.33898 -230.851401 
L 255.985633 -231.672862 
L 258.632287 -232.329438 
L 261.27894 -233.10487 
L 263.925593 -233.504724 
L 266.572247 -233.803276 
L 269.2189 -234.211635 
L 271.865553 -234.495897 
L 274.512207 -234.775851 
L 277.15886 -235.138617 
L 279.805513 -235.375849 
L 282.452167 -235.812465 
L 285.09882 -235.923468 
L 287.745473 -236.405132 
L 290.392127 -236.631837 
L 293.03878 -237.066973 
L 295.685433 -237.769447 
L 298.332087 -238.179111 
L 300.97874 -238.6149 
L 303.625393 -239.034658 
L 306.272047 -239.372952 
L 308.9187 -239.617711 
L 311.565353 -239.73785 
L 314.212007 -240.124369 
L 316.85866 -240.329887 
L 319.505313 -240.576081 
L 322.151967 -240.72713 
L 324.79862 -240.981199 
L 327.445273 -241.362172 
L 330.091927 -241.586091 
L 332.73858 -241.878379 
L 335.385233 -242.133188 
L 338.031887 -242.522144 
L 340.67854 -242.600061 
L 343.325193 -242.917408 
L 345.971847 -242.853934 
L 348.6185 -242.989778 
L 351.265153 -243.152856 
L 353.911807 -243.208956 
L 356.55846 -243.354088 
L 359.205113 -243.483624 
L 361.851767 -243.768168 
L 364.49842 -243.861226 
L 367.145073 -244.287661 
L 369.791727 -244.561698 
L 372.43838 -244.993289 
L 375.085033 -245.30746 
L 377.731687 -245.704769 
L 380.37834 -245.813379 
L 383.024993 -245.900498 
L 385.671647 -246.225414 
L 388.3183 -246.227524 
L 390.964953 -246.393756 
L 393.611607 -246.59749 
L 396.25826 -246.934806 
L 398.904913 -247.025426 
L 401.551567 -247.183741 
L 404.19822 -247.577852 
L 406.844873 -247.887999 
L 409.491527 -248.219767 
L 412.13818 -248.49337 
L 414.784833 -248.594301 
L 417.431487 -248.671544 
L 420.07814 -248.899271 
L 422.724793 -249.176985 
L 425.371447 -249.578927 
L 428.0181 -249.601092 
L 430.664753 -249.895947 
L 433.311407 -250.348638 
L 435.95806 -250.749927 
L 438.604713 -251.04054 
L 441.251367 -251.11626 
L 443.89802 -251.475589 
L 446.544673 -251.458927 
L 449.191327 -251.708515 
L 451.83798 -251.962453 
L 454.484633 -252.233837 
L 457.131287 -252.488645 
L 459.77794 -252.837511 
L 462.424593 -252.740822 
L 465.071247 -252.797291 
L 467.7179 -253.0953 
L 470.364553 -253.29018 
L 473.011207 -253.125797 
L 475.65786 -253.454542 
L 478.304513 -253.477295 
L 480.951167 -253.479253 
L 483.59782 -253.581489 
L 486.244473 -253.707066 
L 488.891127 -253.722358 
L 491.53778 -253.907015 
L 494.184433 -254.166739 
L 496.831087 -254.41946 
L 499.47774 -254.610707 
L 502.124393 -254.895534 
L 504.771047 -255.026201 
L 507.4177 -255.305481 
L 510.064353 -255.654978 
L 512.711007 -255.822929 
L 515.35766 -256.053266 
L 518.004313 -256.107951 
L 520.650967 -256.268245 
L 523.29762 -256.41688 
L 525.944273 -256.591226 
L 528.590927 -256.681238 
L 531.23758 -257.024491 
L 533.884233 -257.085746 
L 536.530887 -257.256851 
L 539.17754 -257.465457 
L 541.824193 -257.551663 
L 544.470847 -257.73956 
L 547.1175 -257.797378 
L 549.764153 -257.986059 
L 552.410807 -258.1303 
L 555.05746 -258.174349 
L 557.704113 -258.36601 
L 560.350767 -258.523933 
L 562.99742 -258.495285 
L 565.644073 -258.707763 
L 568.290727 -258.849697 
L 570.93738 -258.975057 
L 573.584033 -259.050582 
L 576.230687 -259.223601 
L 578.87734 -259.388876 
L 581.523993 -259.279069 
L 584.170647 -259.27498 
L 586.8173 -259.267214 
L 589.463953 -259.395206 
L 592.110607 -259.591109 
L 594.75726 -259.616624 
L 597.403913 -259.630241 
L 600.050567 -259.67044 
L 602.69722 -259.739178 
L 605.343873 -259.673094 
L 607.990527 -259.892271 
L 610.63718 -260.176467 
L 613.283833 -260.234699 
L 615.930487 -260.423162 
L 618.57714 -260.629376 
L 621.223793 -260.644428 
L 623.870447 -260.78843 
L 626.5171 -260.944199 
L 629.163753 -260.994752 
L 631.810407 -260.954531 
L 634.45706 -261.083088 
L 637.103713 -261.165335 
L 639.750367 -261.293348 
L 642.39702 -261.341421 
L 645.043673 -261.378857 
L 647.690327 -261.511569 
L 650.33698 -261.626291 
L 652.983633 -261.577044 
L 655.630287 -261.634644 
L 658.27694 -261.690417 
L 660.923593 -261.802464 
L 663.570247 -261.83853 
L 666.2169 -261.824021 
L 668.863553 -261.851059 
L 671.510207 -261.980487 
L 674.15686 -262.037065 
L 676.803513 -262.080526 
L 679.450167 -262.107934 
L 682.09682 -262.294962 
L 684.743473 -262.432155 
L 687.390127 -262.552881 
L 690.03678 -262.707389 
L 692.683433 -262.838295 
L 695.330087 -262.945883 
L 697.97674 -263.131692 
L 700.623393 -263.171173 
L 703.270047 -263.321678 
L 705.9167 -263.458719 
L 708.563353 -263.718878 
L 711.210007 -263.834515 
L 713.85666 -263.957742 
L 716.503313 -264.106355 
L 719.149967 -264.186578 
L 721.79662 -264.297755 
L 724.443273 -264.356574 
L 727.089927 -264.571053 
L 729.73658 -264.657802 
L 732.383233 -264.700785 
L 735.029887 -264.674704 
L 737.67654 -264.687385 
L 740.323193 -264.728497 
L 742.969847 -264.603247 
L 745.6165 -264.743746 
L 748.263153 -264.783836 
L 750.909807 -264.868931 
L 753.55646 -264.979869 
L 756.203113 -265.122696 
L 758.849767 -265.085107 
L 761.49642 -265.152779 
L 764.143073 -265.264348 
L 766.789727 -265.34853 
L 769.43638 -265.522854 
L 772.083033 -265.559202 
L 774.729687 -265.568251 
L 777.37634 -265.740422 
L 780.022993 -265.847684 
L 782.669647 -266.008478 
L 785.3163 -266.051178 
L 787.962953 -266.20562 
L 790.609607 -266.388754 
L 793.25626 -266.549418 
L 795.902913 -266.622311 
L 798.549567 -266.782344 
L 801.19622 -266.691222 
L 803.842873 -266.82761 
L 806.489527 -266.788761 
L 809.13618 -266.807555 
L 811.782833 -266.837704 
L 814.429487 -266.818431 
L 817.07614 -267.061449 
L 819.722793 -267.152766 
L 822.369447 -267.15877 
L 825.0161 -267.194944 
L 827.662753 -267.4064 
L 830.309407 -267.335487 
L 832.95606 -267.3776 
L 835.602713 -267.351171 
L 838.249367 -267.358371 
L 840.89602 -267.433852 
L 843.542673 -267.513161 
L 843.542673 -372.805455 
L 843.542673 -372.805455 
L 840.89602 -372.764429 
L 838.249367 -372.712789 
L 835.602713 -372.657494 
L 832.95606 -372.578011 
L 830.309407 -372.547992 
L 827.662753 -372.435663 
L 825.0161 -372.49918 
L 822.369447 -372.42061 
L 819.722793 -372.329685 
L 817.07614 -372.321897 
L 814.429487 -372.460156 
L 811.782833 -372.375191 
L 809.13618 -372.300754 
L 806.489527 -372.266907 
L 803.842873 -372.153316 
L 801.19622 -372.228536 
L 798.549567 -372.072875 
L 795.902913 -372.146485 
L 793.25626 -372.066958 
L 790.609607 -372.059432 
L 787.962953 -372.123863 
L 785.3163 -372.202607 
L 782.669647 -372.178026 
L 780.022993 -372.254552 
L 777.37634 -372.250767 
L 774.729687 -372.304843 
L 772.083033 -372.204521 
L 769.43638 -372.117598 
L 766.789727 -372.162539 
L 764.143073 -372.17398 
L 761.49642 -372.183769 
L 758.849767 -372.070091 
L 756.203113 -371.957935 
L 753.55646 -371.998873 
L 750.909807 -372.024715 
L 748.263153 -371.964156 
L 745.6165 -371.885543 
L 742.969847 -371.944274 
L 740.323193 -371.811628 
L 737.67654 -371.709609 
L 735.029887 -371.6246 
L 732.383233 -371.492693 
L 729.73658 -371.426479 
L 727.089927 -371.364354 
L 724.443273 -371.414036 
L 721.79662 -371.374708 
L 719.149967 -371.342079 
L 716.503313 -371.283521 
L 713.85666 -371.24763 
L 711.210007 -371.197556 
L 708.563353 -371.202167 
L 705.9167 -371.283869 
L 703.270047 -371.292048 
L 700.623393 -371.318064 
L 697.97674 -371.264162 
L 695.330087 -371.332334 
L 692.683433 -371.348909 
L 690.03678 -371.323633 
L 687.390127 -371.383409 
L 684.743473 -371.375143 
L 682.09682 -371.384105 
L 679.450167 -371.467939 
L 676.803513 -371.35761 
L 674.15686 -371.285697 
L 671.510207 -371.247673 
L 668.863553 -371.260899 
L 666.2169 -371.183417 
L 663.570247 -371.095798 
L 660.923593 -370.962455 
L 658.27694 -370.898155 
L 655.630287 -370.808361 
L 652.983633 -370.747193 
L 650.33698 -370.689592 
L 647.690327 -370.669971 
L 645.043673 -370.688287 
L 642.39702 -370.585354 
L 639.750367 -370.533714 
L 637.103713 -370.473895 
L 634.45706 -370.38993 
L 631.810407 -370.372224 
L 629.163753 -370.182238 
L 626.5171 -370.112499 
L 623.870447 -370.123897 
L 621.223793 -370.0991 
L 618.57714 -369.979461 
L 615.930487 -369.997994 
L 613.283833 -369.99956 
L 610.63718 -369.956142 
L 607.990527 -369.998386 
L 605.343873 -370.071648 
L 602.69722 -369.907678 
L 600.050567 -369.76794 
L 597.403913 -369.697549 
L 594.75726 -369.633379 
L 592.110607 -369.546326 
L 589.463953 -369.543411 
L 586.8173 -369.464189 
L 584.170647 -369.398409 
L 581.523993 -369.341853 
L 578.87734 -369.188889 
L 576.230687 -369.204421 
L 573.584033 -369.17984 
L 570.93738 -369.127634 
L 568.290727 -369.042234 
L 565.644073 -369.070382 
L 562.99742 -369.031924 
L 560.350767 -368.896101 
L 557.704113 -368.94661 
L 555.05746 -368.92451 
L 552.410807 -368.856903 
L 549.764153 -368.844461 
L 547.1175 -368.872783 
L 544.470847 -368.790341 
L 541.824193 -368.782727 
L 539.17754 -368.718906 
L 536.530887 -368.697414 
L 533.884233 -368.610143 
L 531.23758 -368.609099 
L 528.590927 -368.670963 
L 525.944273 -368.559678 
L 523.29762 -368.52309 
L 520.650967 -368.483283 
L 518.004313 -368.512692 
L 515.35766 -368.408759 
L 512.711007 -368.350462 
L 510.064353 -368.344241 
L 507.4177 -368.3693 
L 504.771047 -368.408802 
L 502.124393 -368.383352 
L 499.47774 -368.399753 
L 496.831087 -368.342588 
L 494.184433 -368.374521 
L 491.53778 -368.349418 
L 488.891127 -368.368256 
L 486.244473 -368.231998 
L 483.59782 -368.149296 
L 480.951167 -368.07525 
L 478.304513 -367.887135 
L 475.65786 -367.761841 
L 473.011207 -367.785986 
L 470.364553 -367.51669 
L 467.7179 -367.439687 
L 465.071247 -367.424851 
L 462.424593 -367.276543 
L 459.77794 -367.08051 
L 457.131287 -367.141199 
L 454.484633 -367.145245 
L 451.83798 -367.111877 
L 449.191327 -367.164953 
L 446.544673 -367.210503 
L 443.89802 -367.055669 
L 441.251367 -367.207675 
L 438.604713 -367.081119 
L 435.95806 -367.186357 
L 433.311407 -367.27402 
L 430.664753 -367.376648 
L 428.0181 -367.452695 
L 425.371447 -367.295859 
L 422.724793 -367.345368 
L 420.07814 -367.349196 
L 417.431487 -367.378606 
L 414.784833 -367.220074 
L 412.13818 -367.078117 
L 409.491527 -367.018907 
L 406.844873 -366.994283 
L 404.19822 -366.974184 
L 401.551567 -367.01895 
L 398.904913 -366.890045 
L 396.25826 -366.698972 
L 393.611607 -366.678002 
L 390.964953 -366.605262 
L 388.3183 -366.529215 
L 385.671647 -366.342753 
L 383.024993 -366.430155 
L 380.37834 -366.323089 
L 377.731687 -366.162077 
L 375.085033 -366.20071 
L 372.43838 -366.244258 
L 369.791727 -366.293071 
L 367.145073 -366.264966 
L 364.49842 -366.398788 
L 361.851767 -366.3411 
L 359.205113 -366.262052 
L 356.55846 -366.06741 
L 353.911807 -365.917666 
L 351.265153 -365.553226 
L 348.6185 -365.420144 
L 345.971847 -365.177038 
L 343.325193 -364.798067 
L 340.67854 -364.824866 
L 338.031887 -364.626614 
L 335.385233 -364.521811 
L 332.73858 -364.469692 
L 330.091927 -364.496012 
L 327.445273 -364.331651 
L 324.79862 -364.290234 
L 322.151967 -364.141099 
L 319.505313 -363.954158 
L 316.85866 -363.775222 
L 314.212007 -363.599332 
L 311.565353 -363.502403 
L 308.9187 -363.23376 
L 306.272047 -363.100156 
L 303.625393 -362.979561 
L 300.97874 -362.815504 
L 298.332087 -362.703652 
L 295.685433 -362.657146 
L 293.03878 -362.742198 
L 290.392127 -362.627562 
L 287.745473 -362.286875 
L 285.09882 -362.265384 
L 282.452167 -361.835903 
L 279.805513 -361.746674 
L 277.15886 -361.538851 
L 274.512207 -361.394937 
L 271.865553 -361.229444 
L 269.2189 -361.005481 
L 266.572247 -360.769336 
L 263.925593 -360.51344 
L 261.27894 -360.345816 
L 258.632287 -360.374485 
L 255.985633 -360.31893 
L 253.33898 -360.521358 
L 250.692327 -360.461713 
L 248.045673 -360.234486 
L 245.39902 -360.172492 
L 242.752367 -360.050678 
L 240.105713 -360.009087 
L 237.45906 -359.947484 
L 234.812407 -359.754018 
L 232.165753 -359.668922 
L 229.5191 -359.553373 
L 226.872447 -359.308049 
L 224.225793 -359.068641 
L 221.57914 -359.058722 
L 218.932487 -358.849246 
L 216.285833 -358.663741 
L 213.63918 -358.151557 
L 210.992527 -357.974101 
L 208.345873 -357.783419 
L 205.69922 -357.717465 
L 203.052567 -357.525695 
L 200.405913 -357.105177 
L 197.75926 -356.924022 
L 195.112607 -356.685354 
L 192.465953 -356.459563 
L 189.8193 -356.149112 
L 187.172647 -355.916013 
L 184.525993 -355.824783 
L 181.87934 -355.859543 
L 179.232687 -355.622311 
L 176.586033 -355.503238 
L 173.93938 -355.451337 
L 171.292727 -355.185652 
L 168.646073 -354.920228 
L 165.99942 -354.734027 
L 163.352767 -354.357231 
L 160.706113 -353.972952 
L 158.05946 -353.46973 
L 155.412807 -353.312329 
L 152.766153 -353.054519 
L 150.1195 -353.058652 
L 147.472847 -352.169803 
L 144.826193 -351.859917 
L 142.17954 -351.313539 
L 139.532887 -351.170886 
L 136.886233 -350.693681 
L 134.23958 -350.381402 
L 131.592927 -350.159266 
L 128.946273 -349.852339 
L 126.29962 -349.433299 
L 123.652967 -349.050238 
L 121.006313 -348.624412 
L 118.35966 -348.039271 
L 115.713007 -347.504682 
L 113.066353 -347.065282 
L 110.4197 -346.62623 
L 107.773047 -346.147676 
L 105.126393 -345.418272 
L 102.47974 -345.33818 
L 99.833087 -343.768217 
L 97.186433 -342.755161 
L 94.53978 -342.043073 
L 91.893127 -341.471505 
L 89.246473 -340.159048 
L 86.59982 -338.969275 
L 83.953167 -338.069506 
L 81.306513 -336.48436 
L 78.65986 -334.729676 
L 76.013207 -332.172499 
L 73.366553 -330.163267 
L 70.7199 -327.91006 
L 68.073247 -325.321516 
L 65.426593 -321.499521 
L 62.77994 -316.563799 
L 60.133287 -312.391415 
L 57.486633 -306.72729 
L 54.83998 -300.705903 
L 52.193327 -300.958927 
z
" style="stroke: #0000ff; stroke-opacity: 0.2"/>
    </defs>
    <g clip-path="url(#p0938d1be99)">
     <use xlink:href="#ma80f3142a6" x="0" y="432" style="fill: #0000ff; fill-opacity: 0.2; stroke: #0000ff; stroke-opacity: 0.2"/>
    </g>
   </g>
   <g id="matplotlib.axis_1">
    <g id="xtick_1">
     <g id="line2d_1">
      <defs>
       <path id="mb5cfa969d6" d="M 0 0 
L 0 3.5 
" style="stroke: #000000; stroke-width: 0.8"/>
      </defs>
      <g>
       <use xlink:href="#mb5cfa969d6" x="181.87934" y="390.04" style="stroke: #000000; stroke-width: 0.8"/>
      </g>
     </g>
     <g id="text_1">
      <!-- 50 -->
      <g transform="translate(175.51684 404.638438) scale(0.1 -0.1)">
       <defs>
        <path id="DejaVuSans-35" d="M 691 4666 
L 3169 4666 
L 3169 4134 
L 1269 4134 
L 1269 2991 
Q 1406 3038 1543 3061 
Q 1681 3084 1819 3084 
Q 2600 3084 3056 2656 
Q 3513 2228 3513 1497 
Q 3513 744 3044 326 
Q 2575 -91 1722 -91 
Q 1428 -91 1123 -41 
Q 819 9 494 109 
L 494 744 
Q 775 591 1075 516 
Q 1375 441 1709 441 
Q 2250 441 2565 725 
Q 2881 1009 2881 1497 
Q 2881 1984 2565 2268 
Q 2250 2553 1709 2553 
Q 1456 2553 1204 2497 
Q 953 2441 691 2322 
L 691 4666 
z
" transform="scale(0.015625)"/>
        <path id="DejaVuSans-30" d="M 2034 4250 
Q 1547 4250 1301 3770 
Q 1056 3291 1056 2328 
Q 1056 1369 1301 889 
Q 1547 409 2034 409 
Q 2525 409 2770 889 
Q 3016 1369 3016 2328 
Q 3016 3291 2770 3770 
Q 2525 4250 2034 4250 
z
M 2034 4750 
Q 2819 4750 3233 4129 
Q 3647 3509 3647 2328 
Q 3647 1150 3233 529 
Q 2819 -91 2034 -91 
Q 1250 -91 836 529 
Q 422 1150 422 2328 
Q 422 3509 836 4129 
Q 1250 4750 2034 4750 
z
" transform="scale(0.015625)"/>
       </defs>
       <use xlink:href="#DejaVuSans-35"/>
       <use xlink:href="#DejaVuSans-30" transform="translate(63.623047 0)"/>
      </g>
     </g>
    </g>
    <g id="xtick_2">
     <g id="line2d_2">
      <g>
       <use xlink:href="#mb5cfa969d6" x="314.212007" y="390.04" style="stroke: #000000; stroke-width: 0.8"/>
      </g>
     </g>
     <g id="text_2">
      <!-- 100 -->
      <g transform="translate(304.668257 404.638438) scale(0.1 -0.1)">
       <defs>
        <path id="DejaVuSans-31" d="M 794 531 
L 1825 531 
L 1825 4091 
L 703 3866 
L 703 4441 
L 1819 4666 
L 2450 4666 
L 2450 531 
L 3481 531 
L 3481 0 
L 794 0 
L 794 531 
z
" transform="scale(0.015625)"/>
       </defs>
       <use xlink:href="#DejaVuSans-31"/>
       <use xlink:href="#DejaVuSans-30" transform="translate(63.623047 0)"/>
       <use xlink:href="#DejaVuSans-30" transform="translate(127.246094 0)"/>
      </g>
     </g>
    </g>
    <g id="xtick_3">
     <g id="line2d_3">
      <g>
       <use xlink:href="#mb5cfa969d6" x="446.544673" y="390.04" style="stroke: #000000; stroke-width: 0.8"/>
      </g>
     </g>
     <g id="text_3">
      <!-- 150 -->
      <g transform="translate(437.000923 404.638438) scale(0.1 -0.1)">
       <use xlink:href="#DejaVuSans-31"/>
       <use xlink:href="#DejaVuSans-35" transform="translate(63.623047 0)"/>
       <use xlink:href="#DejaVuSans-30" transform="translate(127.246094 0)"/>
      </g>
     </g>
    </g>
    <g id="xtick_4">
     <g id="line2d_4">
      <g>
       <use xlink:href="#mb5cfa969d6" x="578.87734" y="390.04" style="stroke: #000000; stroke-width: 0.8"/>
      </g>
     </g>
     <g id="text_4">
      <!-- 200 -->
      <g transform="translate(569.33359 404.638438) scale(0.1 -0.1)">
       <defs>
        <path id="DejaVuSans-32" d="M 1228 531 
L 3431 531 
L 3431 0 
L 469 0 
L 469 531 
Q 828 903 1448 1529 
Q 2069 2156 2228 2338 
Q 2531 2678 2651 2914 
Q 2772 3150 2772 3378 
Q 2772 3750 2511 3984 
Q 2250 4219 1831 4219 
Q 1534 4219 1204 4116 
Q 875 4013 500 3803 
L 500 4441 
Q 881 4594 1212 4672 
Q 1544 4750 1819 4750 
Q 2544 4750 2975 4387 
Q 3406 4025 3406 3419 
Q 3406 3131 3298 2873 
Q 3191 2616 2906 2266 
Q 2828 2175 2409 1742 
Q 1991 1309 1228 531 
z
" transform="scale(0.015625)"/>
       </defs>
       <use xlink:href="#DejaVuSans-32"/>
       <use xlink:href="#DejaVuSans-30" transform="translate(63.623047 0)"/>
       <use xlink:href="#DejaVuSans-30" transform="translate(127.246094 0)"/>
      </g>
     </g>
    </g>
    <g id="xtick_5">
     <g id="line2d_5">
      <g>
       <use xlink:href="#mb5cfa969d6" x="711.210007" y="390.04" style="stroke: #000000; stroke-width: 0.8"/>
      </g>
     </g>
     <g id="text_5">
      <!-- 250 -->
      <g transform="translate(701.666257 404.638438) scale(0.1 -0.1)">
       <use xlink:href="#DejaVuSans-32"/>
       <use xlink:href="#DejaVuSans-35" transform="translate(63.623047 0)"/>
       <use xlink:href="#DejaVuSans-30" transform="translate(127.246094 0)"/>
      </g>
     </g>
    </g>
    <g id="xtick_6">
     <g id="line2d_6">
      <g>
       <use xlink:href="#mb5cfa969d6" x="843.542673" y="390.04" style="stroke: #000000; stroke-width: 0.8"/>
      </g>
     </g>
     <g id="text_6">
      <!-- 300 -->
      <g transform="translate(833.998923 404.638438) scale(0.1 -0.1)">
       <defs>
        <path id="DejaVuSans-33" d="M 2597 2516 
Q 3050 2419 3304 2112 
Q 3559 1806 3559 1356 
Q 3559 666 3084 287 
Q 2609 -91 1734 -91 
Q 1441 -91 1130 -33 
Q 819 25 488 141 
L 488 750 
Q 750 597 1062 519 
Q 1375 441 1716 441 
Q 2309 441 2620 675 
Q 2931 909 2931 1356 
Q 2931 1769 2642 2001 
Q 2353 2234 1838 2234 
L 1294 2234 
L 1294 2753 
L 1863 2753 
Q 2328 2753 2575 2939 
Q 2822 3125 2822 3475 
Q 2822 3834 2567 4026 
Q 2313 4219 1838 4219 
Q 1578 4219 1281 4162 
Q 984 4106 628 3988 
L 628 4550 
Q 988 4650 1302 4700 
Q 1616 4750 1894 4750 
Q 2613 4750 3031 4423 
Q 3450 4097 3450 3541 
Q 3450 3153 3228 2886 
Q 3006 2619 2597 2516 
z
" transform="scale(0.015625)"/>
       </defs>
       <use xlink:href="#DejaVuSans-33"/>
       <use xlink:href="#DejaVuSans-30" transform="translate(63.623047 0)"/>
       <use xlink:href="#DejaVuSans-30" transform="translate(127.246094 0)"/>
      </g>
     </g>
    </g>
    <g id="text_7">
     <!-- Step -->
     <g transform="translate(436.482844 418.316562) scale(0.1 -0.1)">
      <defs>
       <path id="DejaVuSans-53" d="M 3425 4513 
L 3425 3897 
Q 3066 4069 2747 4153 
Q 2428 4238 2131 4238 
Q 1616 4238 1336 4038 
Q 1056 3838 1056 3469 
Q 1056 3159 1242 3001 
Q 1428 2844 1947 2747 
L 2328 2669 
Q 3034 2534 3370 2195 
Q 3706 1856 3706 1288 
Q 3706 609 3251 259 
Q 2797 -91 1919 -91 
Q 1588 -91 1214 -16 
Q 841 59 441 206 
L 441 856 
Q 825 641 1194 531 
Q 1563 422 1919 422 
Q 2459 422 2753 634 
Q 3047 847 3047 1241 
Q 3047 1584 2836 1778 
Q 2625 1972 2144 2069 
L 1759 2144 
Q 1053 2284 737 2584 
Q 422 2884 422 3419 
Q 422 4038 858 4394 
Q 1294 4750 2059 4750 
Q 2388 4750 2728 4690 
Q 3069 4631 3425 4513 
z
" transform="scale(0.015625)"/>
       <path id="DejaVuSans-74" d="M 1172 4494 
L 1172 3500 
L 2356 3500 
L 2356 3053 
L 1172 3053 
L 1172 1153 
Q 1172 725 1289 603 
Q 1406 481 1766 481 
L 2356 481 
L 2356 0 
L 1766 0 
Q 1100 0 847 248 
Q 594 497 594 1153 
L 594 3053 
L 172 3053 
L 172 3500 
L 594 3500 
L 594 4494 
L 1172 4494 
z
" transform="scale(0.015625)"/>
       <path id="DejaVuSans-65" d="M 3597 1894 
L 3597 1613 
L 953 1613 
Q 991 1019 1311 708 
Q 1631 397 2203 397 
Q 2534 397 2845 478 
Q 3156 559 3463 722 
L 3463 178 
Q 3153 47 2828 -22 
Q 2503 -91 2169 -91 
Q 1331 -91 842 396 
Q 353 884 353 1716 
Q 353 2575 817 3079 
Q 1281 3584 2069 3584 
Q 2775 3584 3186 3129 
Q 3597 2675 3597 1894 
z
M 3022 2063 
Q 3016 2534 2758 2815 
Q 2500 3097 2075 3097 
Q 1594 3097 1305 2825 
Q 1016 2553 972 2059 
L 3022 2063 
z
" transform="scale(0.015625)"/>
       <path id="DejaVuSans-70" d="M 1159 525 
L 1159 -1331 
L 581 -1331 
L 581 3500 
L 1159 3500 
L 1159 2969 
Q 1341 3281 1617 3432 
Q 1894 3584 2278 3584 
Q 2916 3584 3314 3078 
Q 3713 2572 3713 1747 
Q 3713 922 3314 415 
Q 2916 -91 2278 -91 
Q 1894 -91 1617 61 
Q 1341 213 1159 525 
z
M 3116 1747 
Q 3116 2381 2855 2742 
Q 2594 3103 2138 3103 
Q 1681 3103 1420 2742 
Q 1159 2381 1159 1747 
Q 1159 1113 1420 752 
Q 1681 391 2138 391 
Q 2594 391 2855 752 
Q 3116 1113 3116 1747 
z
" transform="scale(0.015625)"/>
      </defs>
      <use xlink:href="#DejaVuSans-53"/>
      <use xlink:href="#DejaVuSans-74" transform="translate(63.476562 0)"/>
      <use xlink:href="#DejaVuSans-65" transform="translate(102.685547 0)"/>
      <use xlink:href="#DejaVuSans-70" transform="translate(164.208984 0)"/>
     </g>
    </g>
   </g>
   <g id="matplotlib.axis_2">
    <g id="ytick_1">
     <g id="line2d_7">
      <defs>
       <path id="m7bde767931" d="M 0 0 
L -3.5 0 
" style="stroke: #000000; stroke-width: 0.8"/>
      </defs>
      <g>
       <use xlink:href="#m7bde767931" x="50.87" y="342.58242" style="stroke: #000000; stroke-width: 0.8"/>
      </g>
     </g>
     <g id="text_8">
      <!-- 100 -->
      <g transform="translate(24.7825 346.381638) scale(0.1 -0.1)">
       <use xlink:href="#DejaVuSans-31"/>
       <use xlink:href="#DejaVuSans-30" transform="translate(63.623047 0)"/>
       <use xlink:href="#DejaVuSans-30" transform="translate(127.246094 0)"/>
      </g>
     </g>
    </g>
    <g id="ytick_2">
     <g id="line2d_8">
      <g>
       <use xlink:href="#m7bde767931" x="50.87" y="271.303937" style="stroke: #000000; stroke-width: 0.8"/>
      </g>
     </g>
     <g id="text_9">
      <!-- 150 -->
      <g transform="translate(24.7825 275.103155) scale(0.1 -0.1)">
       <use xlink:href="#DejaVuSans-31"/>
       <use xlink:href="#DejaVuSans-35" transform="translate(63.623047 0)"/>
       <use xlink:href="#DejaVuSans-30" transform="translate(127.246094 0)"/>
      </g>
     </g>
    </g>
    <g id="ytick_3">
     <g id="line2d_9">
      <g>
       <use xlink:href="#m7bde767931" x="50.87" y="200.025453" style="stroke: #000000; stroke-width: 0.8"/>
      </g>
     </g>
     <g id="text_10">
      <!-- 200 -->
      <g transform="translate(24.7825 203.824672) scale(0.1 -0.1)">
       <use xlink:href="#DejaVuSans-32"/>
       <use xlink:href="#DejaVuSans-30" transform="translate(63.623047 0)"/>
       <use xlink:href="#DejaVuSans-30" transform="translate(127.246094 0)"/>
      </g>
     </g>
    </g>
    <g id="ytick_4">
     <g id="line2d_10">
      <g>
       <use xlink:href="#m7bde767931" x="50.87" y="128.74697" style="stroke: #000000; stroke-width: 0.8"/>
      </g>
     </g>
     <g id="text_11">
      <!-- 250 -->
      <g transform="translate(24.7825 132.546189) scale(0.1 -0.1)">
       <use xlink:href="#DejaVuSans-32"/>
       <use xlink:href="#DejaVuSans-35" transform="translate(63.623047 0)"/>
       <use xlink:href="#DejaVuSans-30" transform="translate(127.246094 0)"/>
      </g>
     </g>
    </g>
    <g id="ytick_5">
     <g id="line2d_11">
      <g>
       <use xlink:href="#m7bde767931" x="50.87" y="57.468487" style="stroke: #000000; stroke-width: 0.8"/>
      </g>
     </g>
     <g id="text_12">
      <!-- 300 -->
      <g transform="translate(24.7825 61.267706) scale(0.1 -0.1)">
       <use xlink:href="#DejaVuSans-33"/>
       <use xlink:href="#DejaVuSans-30" transform="translate(63.623047 0)"/>
       <use xlink:href="#DejaVuSans-30" transform="translate(127.246094 0)"/>
      </g>
     </g>
    </g>
    <g id="text_13">
     <!-- Profit -->
     <g transform="translate(18.702813 229.779063) rotate(-90) scale(0.1 -0.1)">
      <defs>
       <path id="DejaVuSans-50" d="M 1259 4147 
L 1259 2394 
L 2053 2394 
Q 2494 2394 2734 2622 
Q 2975 2850 2975 3272 
Q 2975 3691 2734 3919 
Q 2494 4147 2053 4147 
L 1259 4147 
z
M 628 4666 
L 2053 4666 
Q 2838 4666 3239 4311 
Q 3641 3956 3641 3272 
Q 3641 2581 3239 2228 
Q 2838 1875 2053 1875 
L 1259 1875 
L 1259 0 
L 628 0 
L 628 4666 
z
" transform="scale(0.015625)"/>
       <path id="DejaVuSans-72" d="M 2631 2963 
Q 2534 3019 2420 3045 
Q 2306 3072 2169 3072 
Q 1681 3072 1420 2755 
Q 1159 2438 1159 1844 
L 1159 0 
L 581 0 
L 581 3500 
L 1159 3500 
L 1159 2956 
Q 1341 3275 1631 3429 
Q 1922 3584 2338 3584 
Q 2397 3584 2469 3576 
Q 2541 3569 2628 3553 
L 2631 2963 
z
" transform="scale(0.015625)"/>
       <path id="DejaVuSans-6f" d="M 1959 3097 
Q 1497 3097 1228 2736 
Q 959 2375 959 1747 
Q 959 1119 1226 758 
Q 1494 397 1959 397 
Q 2419 397 2687 759 
Q 2956 1122 2956 1747 
Q 2956 2369 2687 2733 
Q 2419 3097 1959 3097 
z
M 1959 3584 
Q 2709 3584 3137 3096 
Q 3566 2609 3566 1747 
Q 3566 888 3137 398 
Q 2709 -91 1959 -91 
Q 1206 -91 779 398 
Q 353 888 353 1747 
Q 353 2609 779 3096 
Q 1206 3584 1959 3584 
z
" transform="scale(0.015625)"/>
       <path id="DejaVuSans-66" d="M 2375 4863 
L 2375 4384 
L 1825 4384 
Q 1516 4384 1395 4259 
Q 1275 4134 1275 3809 
L 1275 3500 
L 2222 3500 
L 2222 3053 
L 1275 3053 
L 1275 0 
L 697 0 
L 697 3053 
L 147 3053 
L 147 3500 
L 697 3500 
L 697 3744 
Q 697 4328 969 4595 
Q 1241 4863 1831 4863 
L 2375 4863 
z
" transform="scale(0.015625)"/>
       <path id="DejaVuSans-69" d="M 603 3500 
L 1178 3500 
L 1178 0 
L 603 0 
L 603 3500 
z
M 603 4863 
L 1178 4863 
L 1178 4134 
L 603 4134 
L 603 4863 
z
" transform="scale(0.015625)"/>
      </defs>
      <use xlink:href="#DejaVuSans-50"/>
      <use xlink:href="#DejaVuSans-72" transform="translate(58.552734 0)"/>
      <use xlink:href="#DejaVuSans-6f" transform="translate(97.416016 0)"/>
      <use xlink:href="#DejaVuSans-66" transform="translate(158.597656 0)"/>
      <use xlink:href="#DejaVuSans-69" transform="translate(193.802734 0)"/>
      <use xlink:href="#DejaVuSans-74" transform="translate(221.585938 0)"/>
     </g>
    </g>
   </g>
   <g id="line2d_12">
    <path d="M 52.193327 252.663269 
L 54.83998 252.39617 
L 60.133287 236.85114 
L 62.77994 229.777912 
L 68.073247 217.257736 
L 70.7199 212.039906 
L 73.366553 207.358884 
L 76.013207 202.984159 
L 78.65986 199.071434 
L 83.953167 192.505365 
L 86.59982 189.584074 
L 91.893127 184.197184 
L 99.833087 177.375284 
L 107.773047 172.070467 
L 110.4197 170.526716 
L 113.066353 169.229225 
L 115.713007 167.588066 
L 121.006313 164.878492 
L 123.652967 163.82874 
L 126.29962 162.554611 
L 131.592927 160.385999 
L 136.886233 158.274008 
L 150.1195 154.194463 
L 158.05946 151.938537 
L 160.706113 151.229907 
L 165.99942 149.976986 
L 173.93938 148.218212 
L 187.172647 145.391501 
L 189.8193 145.014422 
L 195.112607 144.109911 
L 200.405913 143.184431 
L 205.69922 142.177117 
L 218.932487 140.336859 
L 226.872447 139.330546 
L 229.5191 139.100166 
L 237.45906 138.106404 
L 245.39902 137.222449 
L 250.692327 136.599176 
L 258.632287 135.648049 
L 263.925593 134.990929 
L 279.805513 133.438738 
L 311.565353 130.379863 
L 319.505313 129.73488 
L 335.385233 128.672512 
L 340.67854 128.287536 
L 351.265153 127.64697 
L 359.205113 127.127173 
L 364.49842 126.869993 
L 425.371447 123.562596 
L 433.311407 123.188671 
L 438.604713 122.93917 
L 467.7179 121.732518 
L 475.65786 121.391809 
L 491.53778 120.871794 
L 502.124393 120.360568 
L 507.4177 120.16262 
L 515.35766 119.768988 
L 533.884233 119.152044 
L 544.470847 118.735049 
L 576.230687 117.785989 
L 584.170647 117.663305 
L 589.463953 117.530702 
L 597.403913 117.336105 
L 607.990527 117.054671 
L 615.930487 116.789422 
L 631.810407 116.336622 
L 666.2169 115.496281 
L 705.9167 114.628706 
L 724.443273 114.114695 
L 740.323193 113.729937 
L 748.263153 113.626004 
L 764.143073 113.280836 
L 777.37634 113.004406 
L 811.782833 112.393553 
L 825.0161 112.152927 
L 832.95606 112.022195 
L 843.542673 111.840692 
L 843.542673 111.840692 
" clip-path="url(#p0938d1be99)" style="fill: none; stroke: #0000ff; stroke-width: 1.5; stroke-linecap: square"/>
   </g>
   <g id="patch_3">
    <path d="M 50.87 390.04 
L 50.87 43.44 
" style="fill: none; stroke: #000000; stroke-width: 0.8; stroke-linejoin: miter; stroke-linecap: square"/>
   </g>
   <g id="patch_4">
    <path d="M 844.866 390.04 
L 844.866 43.44 
" style="fill: none; stroke: #000000; stroke-width: 0.8; stroke-linejoin: miter; stroke-linecap: square"/>
   </g>
   <g id="patch_5">
    <path d="M 50.87 390.04 
L 844.866 390.04 
" style="fill: none; stroke: #000000; stroke-width: 0.8; stroke-linejoin: miter; stroke-linecap: square"/>
   </g>
   <g id="patch_6">
    <path d="M 50.87 43.44 
L 844.866 43.44 
" style="fill: none; stroke: #000000; stroke-width: 0.8; stroke-linejoin: miter; stroke-linecap: square"/>
   </g>
   <g id="text_14">
    <!-- Mean profit per step with confidence interval per simulation step -->
    <g transform="translate(220.284875 21.763062) scale(0.14 -0.14)">
     <defs>
      <path id="DejaVuSans-4d" d="M 628 4666 
L 1569 4666 
L 2759 1491 
L 3956 4666 
L 4897 4666 
L 4897 0 
L 4281 0 
L 4281 4097 
L 3078 897 
L 2444 897 
L 1241 4097 
L 1241 0 
L 628 0 
L 628 4666 
z
" transform="scale(0.015625)"/>
      <path id="DejaVuSans-61" d="M 2194 1759 
Q 1497 1759 1228 1600 
Q 959 1441 959 1056 
Q 959 750 1161 570 
Q 1363 391 1709 391 
Q 2188 391 2477 730 
Q 2766 1069 2766 1631 
L 2766 1759 
L 2194 1759 
z
M 3341 1997 
L 3341 0 
L 2766 0 
L 2766 531 
Q 2569 213 2275 61 
Q 1981 -91 1556 -91 
Q 1019 -91 701 211 
Q 384 513 384 1019 
Q 384 1609 779 1909 
Q 1175 2209 1959 2209 
L 2766 2209 
L 2766 2266 
Q 2766 2663 2505 2880 
Q 2244 3097 1772 3097 
Q 1472 3097 1187 3025 
Q 903 2953 641 2809 
L 641 3341 
Q 956 3463 1253 3523 
Q 1550 3584 1831 3584 
Q 2591 3584 2966 3190 
Q 3341 2797 3341 1997 
z
" transform="scale(0.015625)"/>
      <path id="DejaVuSans-6e" d="M 3513 2113 
L 3513 0 
L 2938 0 
L 2938 2094 
Q 2938 2591 2744 2837 
Q 2550 3084 2163 3084 
Q 1697 3084 1428 2787 
Q 1159 2491 1159 1978 
L 1159 0 
L 581 0 
L 581 3500 
L 1159 3500 
L 1159 2956 
Q 1366 3272 1645 3428 
Q 1925 3584 2291 3584 
Q 2894 3584 3203 3211 
Q 3513 2838 3513 2113 
z
" transform="scale(0.015625)"/>
      <path id="DejaVuSans-20" transform="scale(0.015625)"/>
      <path id="DejaVuSans-73" d="M 2834 3397 
L 2834 2853 
Q 2591 2978 2328 3040 
Q 2066 3103 1784 3103 
Q 1356 3103 1142 2972 
Q 928 2841 928 2578 
Q 928 2378 1081 2264 
Q 1234 2150 1697 2047 
L 1894 2003 
Q 2506 1872 2764 1633 
Q 3022 1394 3022 966 
Q 3022 478 2636 193 
Q 2250 -91 1575 -91 
Q 1294 -91 989 -36 
Q 684 19 347 128 
L 347 722 
Q 666 556 975 473 
Q 1284 391 1588 391 
Q 1994 391 2212 530 
Q 2431 669 2431 922 
Q 2431 1156 2273 1281 
Q 2116 1406 1581 1522 
L 1381 1569 
Q 847 1681 609 1914 
Q 372 2147 372 2553 
Q 372 3047 722 3315 
Q 1072 3584 1716 3584 
Q 2034 3584 2315 3537 
Q 2597 3491 2834 3397 
z
" transform="scale(0.015625)"/>
      <path id="DejaVuSans-77" d="M 269 3500 
L 844 3500 
L 1563 769 
L 2278 3500 
L 2956 3500 
L 3675 769 
L 4391 3500 
L 4966 3500 
L 4050 0 
L 3372 0 
L 2619 2869 
L 1863 0 
L 1184 0 
L 269 3500 
z
" transform="scale(0.015625)"/>
      <path id="DejaVuSans-68" d="M 3513 2113 
L 3513 0 
L 2938 0 
L 2938 2094 
Q 2938 2591 2744 2837 
Q 2550 3084 2163 3084 
Q 1697 3084 1428 2787 
Q 1159 2491 1159 1978 
L 1159 0 
L 581 0 
L 581 4863 
L 1159 4863 
L 1159 2956 
Q 1366 3272 1645 3428 
Q 1925 3584 2291 3584 
Q 2894 3584 3203 3211 
Q 3513 2838 3513 2113 
z
" transform="scale(0.015625)"/>
      <path id="DejaVuSans-63" d="M 3122 3366 
L 3122 2828 
Q 2878 2963 2633 3030 
Q 2388 3097 2138 3097 
Q 1578 3097 1268 2742 
Q 959 2388 959 1747 
Q 959 1106 1268 751 
Q 1578 397 2138 397 
Q 2388 397 2633 464 
Q 2878 531 3122 666 
L 3122 134 
Q 2881 22 2623 -34 
Q 2366 -91 2075 -91 
Q 1284 -91 818 406 
Q 353 903 353 1747 
Q 353 2603 823 3093 
Q 1294 3584 2113 3584 
Q 2378 3584 2631 3529 
Q 2884 3475 3122 3366 
z
" transform="scale(0.015625)"/>
      <path id="DejaVuSans-64" d="M 2906 2969 
L 2906 4863 
L 3481 4863 
L 3481 0 
L 2906 0 
L 2906 525 
Q 2725 213 2448 61 
Q 2172 -91 1784 -91 
Q 1150 -91 751 415 
Q 353 922 353 1747 
Q 353 2572 751 3078 
Q 1150 3584 1784 3584 
Q 2172 3584 2448 3432 
Q 2725 3281 2906 2969 
z
M 947 1747 
Q 947 1113 1208 752 
Q 1469 391 1925 391 
Q 2381 391 2643 752 
Q 2906 1113 2906 1747 
Q 2906 2381 2643 2742 
Q 2381 3103 1925 3103 
Q 1469 3103 1208 2742 
Q 947 2381 947 1747 
z
" transform="scale(0.015625)"/>
      <path id="DejaVuSans-76" d="M 191 3500 
L 800 3500 
L 1894 563 
L 2988 3500 
L 3597 3500 
L 2284 0 
L 1503 0 
L 191 3500 
z
" transform="scale(0.015625)"/>
      <path id="DejaVuSans-6c" d="M 603 4863 
L 1178 4863 
L 1178 0 
L 603 0 
L 603 4863 
z
" transform="scale(0.015625)"/>
      <path id="DejaVuSans-6d" d="M 3328 2828 
Q 3544 3216 3844 3400 
Q 4144 3584 4550 3584 
Q 5097 3584 5394 3201 
Q 5691 2819 5691 2113 
L 5691 0 
L 5113 0 
L 5113 2094 
Q 5113 2597 4934 2840 
Q 4756 3084 4391 3084 
Q 3944 3084 3684 2787 
Q 3425 2491 3425 1978 
L 3425 0 
L 2847 0 
L 2847 2094 
Q 2847 2600 2669 2842 
Q 2491 3084 2119 3084 
Q 1678 3084 1418 2786 
Q 1159 2488 1159 1978 
L 1159 0 
L 581 0 
L 581 3500 
L 1159 3500 
L 1159 2956 
Q 1356 3278 1631 3431 
Q 1906 3584 2284 3584 
Q 2666 3584 2933 3390 
Q 3200 3197 3328 2828 
z
" transform="scale(0.015625)"/>
      <path id="DejaVuSans-75" d="M 544 1381 
L 544 3500 
L 1119 3500 
L 1119 1403 
Q 1119 906 1312 657 
Q 1506 409 1894 409 
Q 2359 409 2629 706 
Q 2900 1003 2900 1516 
L 2900 3500 
L 3475 3500 
L 3475 0 
L 2900 0 
L 2900 538 
Q 2691 219 2414 64 
Q 2138 -91 1772 -91 
Q 1169 -91 856 284 
Q 544 659 544 1381 
z
M 1991 3584 
L 1991 3584 
z
" transform="scale(0.015625)"/>
     </defs>
     <use xlink:href="#DejaVuSans-4d"/>
     <use xlink:href="#DejaVuSans-65" transform="translate(86.279297 0)"/>
     <use xlink:href="#DejaVuSans-61" transform="translate(147.802734 0)"/>
     <use xlink:href="#DejaVuSans-6e" transform="translate(209.082031 0)"/>
     <use xlink:href="#DejaVuSans-20" transform="translate(272.460938 0)"/>
     <use xlink:href="#DejaVuSans-70" transform="translate(304.248047 0)"/>
     <use xlink:href="#DejaVuSans-72" transform="translate(367.724609 0)"/>
     <use xlink:href="#DejaVuSans-6f" transform="translate(406.587891 0)"/>
     <use xlink:href="#DejaVuSans-66" transform="translate(467.769531 0)"/>
     <use xlink:href="#DejaVuSans-69" transform="translate(502.974609 0)"/>
     <use xlink:href="#DejaVuSans-74" transform="translate(530.757812 0)"/>
     <use xlink:href="#DejaVuSans-20" transform="translate(569.966797 0)"/>
     <use xlink:href="#DejaVuSans-70" transform="translate(601.753906 0)"/>
     <use xlink:href="#DejaVuSans-65" transform="translate(665.230469 0)"/>
     <use xlink:href="#DejaVuSans-72" transform="translate(726.753906 0)"/>
     <use xlink:href="#DejaVuSans-20" transform="translate(767.867188 0)"/>
     <use xlink:href="#DejaVuSans-73" transform="translate(799.654297 0)"/>
     <use xlink:href="#DejaVuSans-74" transform="translate(851.753906 0)"/>
     <use xlink:href="#DejaVuSans-65" transform="translate(890.962891 0)"/>
     <use xlink:href="#DejaVuSans-70" transform="translate(952.486328 0)"/>
     <use xlink:href="#DejaVuSans-20" transform="translate(1015.962891 0)"/>
     <use xlink:href="#DejaVuSans-77" transform="translate(1047.75 0)"/>
     <use xlink:href="#DejaVuSans-69" transform="translate(1129.537109 0)"/>
     <use xlink:href="#DejaVuSans-74" transform="translate(1157.320312 0)"/>
     <use xlink:href="#DejaVuSans-68" transform="translate(1196.529297 0)"/>
     <use xlink:href="#DejaVuSans-20" transform="translate(1259.908203 0)"/>
     <use xlink:href="#DejaVuSans-63" transform="translate(1291.695312 0)"/>
     <use xlink:href="#DejaVuSans-6f" transform="translate(1346.675781 0)"/>
     <use xlink:href="#DejaVuSans-6e" transform="translate(1407.857422 0)"/>
     <use xlink:href="#DejaVuSans-66" transform="translate(1471.236328 0)"/>
     <use xlink:href="#DejaVuSans-69" transform="translate(1506.441406 0)"/>
     <use xlink:href="#DejaVuSans-64" transform="translate(1534.224609 0)"/>
     <use xlink:href="#DejaVuSans-65" transform="translate(1597.701172 0)"/>
     <use xlink:href="#DejaVuSans-6e" transform="translate(1659.224609 0)"/>
     <use xlink:href="#DejaVuSans-63" transform="translate(1722.603516 0)"/>
     <use xlink:href="#DejaVuSans-65" transform="translate(1777.583984 0)"/>
     <use xlink:href="#DejaVuSans-20" transform="translate(1839.107422 0)"/>
     <use xlink:href="#DejaVuSans-69" transform="translate(1870.894531 0)"/>
     <use xlink:href="#DejaVuSans-6e" transform="translate(1898.677734 0)"/>
     <use xlink:href="#DejaVuSans-74" transform="translate(1962.056641 0)"/>
     <use xlink:href="#DejaVuSans-65" transform="translate(2001.265625 0)"/>
     <use xlink:href="#DejaVuSans-72" transform="translate(2062.789062 0)"/>
     <use xlink:href="#DejaVuSans-76" transform="translate(2103.902344 0)"/>
     <use xlink:href="#DejaVuSans-61" transform="translate(2163.082031 0)"/>
     <use xlink:href="#DejaVuSans-6c" transform="translate(2224.361328 0)"/>
     <use xlink:href="#DejaVuSans-20" transform="translate(2252.144531 0)"/>
     <use xlink:href="#DejaVuSans-70" transform="translate(2283.931641 0)"/>
     <use xlink:href="#DejaVuSans-65" transform="translate(2347.408203 0)"/>
     <use xlink:href="#DejaVuSans-72" transform="translate(2408.931641 0)"/>
     <use xlink:href="#DejaVuSans-20" transform="translate(2450.044922 0)"/>
     <use xlink:href="#DejaVuSans-73" transform="translate(2481.832031 0)"/>
     <use xlink:href="#DejaVuSans-69" transform="translate(2533.931641 0)"/>
     <use xlink:href="#DejaVuSans-6d" transform="translate(2561.714844 0)"/>
     <use xlink:href="#DejaVuSans-75" transform="translate(2659.126953 0)"/>
     <use xlink:href="#DejaVuSans-6c" transform="translate(2722.505859 0)"/>
     <use xlink:href="#DejaVuSans-61" transform="translate(2750.289062 0)"/>
     <use xlink:href="#DejaVuSans-74" transform="translate(2811.568359 0)"/>
     <use xlink:href="#DejaVuSans-69" transform="translate(2850.777344 0)"/>
     <use xlink:href="#DejaVuSans-6f" transform="translate(2878.560547 0)"/>
     <use xlink:href="#DejaVuSans-6e" transform="translate(2939.742188 0)"/>
     <use xlink:href="#DejaVuSans-20" transform="translate(3003.121094 0)"/>
     <use xlink:href="#DejaVuSans-73" transform="translate(3034.908203 0)"/>
     <use xlink:href="#DejaVuSans-74" transform="translate(3087.007812 0)"/>
     <use xlink:href="#DejaVuSans-65" transform="translate(3126.216797 0)"/>
     <use xlink:href="#DejaVuSans-70" transform="translate(3187.740234 0)"/>
    </g>
    <!-- Base Product: Meth, Recipe size: 8, T0: 20.0 -->
    <g transform="translate(293.881125 37.44) scale(0.14 -0.14)">
     <defs>
      <path id="DejaVuSans-42" d="M 1259 2228 
L 1259 519 
L 2272 519 
Q 2781 519 3026 730 
Q 3272 941 3272 1375 
Q 3272 1813 3026 2020 
Q 2781 2228 2272 2228 
L 1259 2228 
z
M 1259 4147 
L 1259 2741 
L 2194 2741 
Q 2656 2741 2882 2914 
Q 3109 3088 3109 3444 
Q 3109 3797 2882 3972 
Q 2656 4147 2194 4147 
L 1259 4147 
z
M 628 4666 
L 2241 4666 
Q 2963 4666 3353 4366 
Q 3744 4066 3744 3513 
Q 3744 3084 3544 2831 
Q 3344 2578 2956 2516 
Q 3422 2416 3680 2098 
Q 3938 1781 3938 1306 
Q 3938 681 3513 340 
Q 3088 0 2303 0 
L 628 0 
L 628 4666 
z
" transform="scale(0.015625)"/>
      <path id="DejaVuSans-3a" d="M 750 794 
L 1409 794 
L 1409 0 
L 750 0 
L 750 794 
z
M 750 3309 
L 1409 3309 
L 1409 2516 
L 750 2516 
L 750 3309 
z
" transform="scale(0.015625)"/>
      <path id="DejaVuSans-2c" d="M 750 794 
L 1409 794 
L 1409 256 
L 897 -744 
L 494 -744 
L 750 256 
L 750 794 
z
" transform="scale(0.015625)"/>
      <path id="DejaVuSans-52" d="M 2841 2188 
Q 3044 2119 3236 1894 
Q 3428 1669 3622 1275 
L 4263 0 
L 3584 0 
L 2988 1197 
Q 2756 1666 2539 1819 
Q 2322 1972 1947 1972 
L 1259 1972 
L 1259 0 
L 628 0 
L 628 4666 
L 2053 4666 
Q 2853 4666 3247 4331 
Q 3641 3997 3641 3322 
Q 3641 2881 3436 2590 
Q 3231 2300 2841 2188 
z
M 1259 4147 
L 1259 2491 
L 2053 2491 
Q 2509 2491 2742 2702 
Q 2975 2913 2975 3322 
Q 2975 3731 2742 3939 
Q 2509 4147 2053 4147 
L 1259 4147 
z
" transform="scale(0.015625)"/>
      <path id="DejaVuSans-7a" d="M 353 3500 
L 3084 3500 
L 3084 2975 
L 922 459 
L 3084 459 
L 3084 0 
L 275 0 
L 275 525 
L 2438 3041 
L 353 3041 
L 353 3500 
z
" transform="scale(0.015625)"/>
      <path id="DejaVuSans-38" d="M 2034 2216 
Q 1584 2216 1326 1975 
Q 1069 1734 1069 1313 
Q 1069 891 1326 650 
Q 1584 409 2034 409 
Q 2484 409 2743 651 
Q 3003 894 3003 1313 
Q 3003 1734 2745 1975 
Q 2488 2216 2034 2216 
z
M 1403 2484 
Q 997 2584 770 2862 
Q 544 3141 544 3541 
Q 544 4100 942 4425 
Q 1341 4750 2034 4750 
Q 2731 4750 3128 4425 
Q 3525 4100 3525 3541 
Q 3525 3141 3298 2862 
Q 3072 2584 2669 2484 
Q 3125 2378 3379 2068 
Q 3634 1759 3634 1313 
Q 3634 634 3220 271 
Q 2806 -91 2034 -91 
Q 1263 -91 848 271 
Q 434 634 434 1313 
Q 434 1759 690 2068 
Q 947 2378 1403 2484 
z
M 1172 3481 
Q 1172 3119 1398 2916 
Q 1625 2713 2034 2713 
Q 2441 2713 2670 2916 
Q 2900 3119 2900 3481 
Q 2900 3844 2670 4047 
Q 2441 4250 2034 4250 
Q 1625 4250 1398 4047 
Q 1172 3844 1172 3481 
z
" transform="scale(0.015625)"/>
      <path id="DejaVuSans-54" d="M -19 4666 
L 3928 4666 
L 3928 4134 
L 2272 4134 
L 2272 0 
L 1638 0 
L 1638 4134 
L -19 4134 
L -19 4666 
z
" transform="scale(0.015625)"/>
      <path id="DejaVuSans-2e" d="M 684 794 
L 1344 794 
L 1344 0 
L 684 0 
L 684 794 
z
" transform="scale(0.015625)"/>
     </defs>
     <use xlink:href="#DejaVuSans-42"/>
     <use xlink:href="#DejaVuSans-61" transform="translate(68.603516 0)"/>
     <use xlink:href="#DejaVuSans-73" transform="translate(129.882812 0)"/>
     <use xlink:href="#DejaVuSans-65" transform="translate(181.982422 0)"/>
     <use xlink:href="#DejaVuSans-20" transform="translate(243.505859 0)"/>
     <use xlink:href="#DejaVuSans-50" transform="translate(275.292969 0)"/>
     <use xlink:href="#DejaVuSans-72" transform="translate(333.845703 0)"/>
     <use xlink:href="#DejaVuSans-6f" transform="translate(372.708984 0)"/>
     <use xlink:href="#DejaVuSans-64" transform="translate(433.890625 0)"/>
     <use xlink:href="#DejaVuSans-75" transform="translate(497.367188 0)"/>
     <use xlink:href="#DejaVuSans-63" transform="translate(560.746094 0)"/>
     <use xlink:href="#DejaVuSans-74" transform="translate(615.726562 0)"/>
     <use xlink:href="#DejaVuSans-3a" transform="translate(654.935547 0)"/>
     <use xlink:href="#DejaVuSans-20" transform="translate(688.626953 0)"/>
     <use xlink:href="#DejaVuSans-4d" transform="translate(720.414062 0)"/>
     <use xlink:href="#DejaVuSans-65" transform="translate(806.693359 0)"/>
     <use xlink:href="#DejaVuSans-74" transform="translate(868.216797 0)"/>
     <use xlink:href="#DejaVuSans-68" transform="translate(907.425781 0)"/>
     <use xlink:href="#DejaVuSans-2c" transform="translate(970.804688 0)"/>
     <use xlink:href="#DejaVuSans-20" transform="translate(1002.591797 0)"/>
     <use xlink:href="#DejaVuSans-52" transform="translate(1034.378906 0)"/>
     <use xlink:href="#DejaVuSans-65" transform="translate(1099.361328 0)"/>
     <use xlink:href="#DejaVuSans-63" transform="translate(1160.884766 0)"/>
     <use xlink:href="#DejaVuSans-69" transform="translate(1215.865234 0)"/>
     <use xlink:href="#DejaVuSans-70" transform="translate(1243.648438 0)"/>
     <use xlink:href="#DejaVuSans-65" transform="translate(1307.125 0)"/>
     <use xlink:href="#DejaVuSans-20" transform="translate(1368.648438 0)"/>
     <use xlink:href="#DejaVuSans-73" transform="translate(1400.435547 0)"/>
     <use xlink:href="#DejaVuSans-69" transform="translate(1452.535156 0)"/>
     <use xlink:href="#DejaVuSans-7a" transform="translate(1480.318359 0)"/>
     <use xlink:href="#DejaVuSans-65" transform="translate(1532.808594 0)"/>
     <use xlink:href="#DejaVuSans-3a" transform="translate(1594.332031 0)"/>
     <use xlink:href="#DejaVuSans-20" transform="translate(1628.023438 0)"/>
     <use xlink:href="#DejaVuSans-38" transform="translate(1659.810547 0)"/>
     <use xlink:href="#DejaVuSans-2c" transform="translate(1723.433594 0)"/>
     <use xlink:href="#DejaVuSans-20" transform="translate(1755.220703 0)"/>
     <use xlink:href="#DejaVuSans-54" transform="translate(1787.007812 0)"/>
     <use xlink:href="#DejaVuSans-30" transform="translate(1848.091797 0)"/>
     <use xlink:href="#DejaVuSans-3a" transform="translate(1911.714844 0)"/>
     <use xlink:href="#DejaVuSans-20" transform="translate(1945.40625 0)"/>
     <use xlink:href="#DejaVuSans-32" transform="translate(1977.193359 0)"/>
     <use xlink:href="#DejaVuSans-30" transform="translate(2040.816406 0)"/>
     <use xlink:href="#DejaVuSans-2e" transform="translate(2104.439453 0)"/>
     <use xlink:href="#DejaVuSans-30" transform="translate(2136.226562 0)"/>
    </g>
   </g>
  </g>
 </g>
 <defs>
  <clipPath id="p0938d1be99">
   <rect x="50.87" y="43.44" width="793.996" height="346.6"/>
  </clipPath>
 </defs>
</svg>
