<?xml version="1.0" encoding="utf-8" standalone="no"?>
<!DOCTYPE svg PUBLIC "-//W3C//DTD SVG 1.1//EN"
  "http://www.w3.org/Graphics/SVG/1.1/DTD/svg11.dtd">
<svg xmlns:xlink="http://www.w3.org/1999/xlink" width="864pt" height="432pt" viewBox="0 0 864 432" xmlns="http://www.w3.org/2000/svg" version="1.1">
 <metadata>
  <rdf:RDF xmlns:dc="http://purl.org/dc/elements/1.1/" xmlns:cc="http://creativecommons.org/ns#" xmlns:rdf="http://www.w3.org/1999/02/22-rdf-syntax-ns#">
   <cc:Work>
    <dc:type rdf:resource="http://purl.org/dc/dcmitype/StillImage"/>
    <dc:date>2025-05-24T02:17:38.672477</dc:date>
    <dc:format>image/svg+xml</dc:format>
    <dc:creator>
     <cc:Agent>
      <dc:title>Matplotlib v3.10.3, https://matplotlib.org/</dc:title>
     </cc:Agent>
    </dc:creator>
   </cc:Work>
  </rdf:RDF>
 </metadata>
 <defs>
  <style type="text/css">*{stroke-linejoin: round; stroke-linecap: butt}</style>
 </defs>
 <g id="figure_1">
  <g id="patch_1">
   <path d="M 0 432 
L 864 432 
L 864 0 
L 0 0 
z
" style="fill: #ffffff"/>
  </g>
  <g id="axes_1">
   <g id="patch_2">
    <path d="M 50.87 390.04 
L 844.866 390.04 
L 844.866 43.44 
L 50.87 43.44 
z
" style="fill: #ffffff"/>
   </g>
   <g id="FillBetweenPolyCollection_1">
    <defs>
     <path id="m8de4626b8a" d="M 52.193327 -303.157992 
L 52.193327 -57.714545 
L 54.83998 -59.082892 
L 57.486633 -73.08014 
L 60.133287 -86.502905 
L 62.77994 -97.839864 
L 65.426593 -108.517495 
L 68.073247 -118.563003 
L 70.7199 -127.031858 
L 73.366553 -134.30059 
L 76.013207 -141.754482 
L 78.65986 -148.20909 
L 81.306513 -154.267028 
L 83.953167 -159.926613 
L 86.59982 -165.343385 
L 89.246473 -169.824747 
L 91.893127 -174.455112 
L 94.53978 -178.06907 
L 97.186433 -181.73481 
L 99.833087 -184.92951 
L 102.47974 -188.066437 
L 105.126393 -190.742908 
L 107.773047 -193.400661 
L 110.4197 -195.660673 
L 113.066353 -197.947712 
L 115.713007 -199.9608 
L 118.35966 -202.12289 
L 121.006313 -204.026927 
L 123.652967 -205.831337 
L 126.29962 -207.769267 
L 128.946273 -209.572693 
L 131.592927 -211.356067 
L 134.23958 -213.177971 
L 136.886233 -214.654067 
L 139.532887 -215.804431 
L 142.17954 -217.266249 
L 144.826193 -218.668982 
L 147.472847 -220.140967 
L 150.1195 -221.37985 
L 152.766153 -222.529295 
L 155.412807 -223.505356 
L 158.05946 -224.684629 
L 160.706113 -225.965387 
L 163.352767 -227.005584 
L 165.99942 -227.837891 
L 168.646073 -228.817735 
L 171.292727 -229.812624 
L 173.93938 -230.658619 
L 176.586033 -231.770344 
L 179.232687 -232.601995 
L 181.87934 -233.360062 
L 184.525993 -234.076976 
L 187.172647 -234.751009 
L 189.8193 -235.331581 
L 192.465953 -235.988426 
L 195.112607 -236.651874 
L 197.75926 -237.415212 
L 200.405913 -237.982271 
L 203.052567 -238.462779 
L 205.69922 -238.973179 
L 208.345873 -239.549269 
L 210.992527 -239.955954 
L 213.63918 -240.3842 
L 216.285833 -240.942489 
L 218.932487 -241.531568 
L 221.57914 -242.081614 
L 224.225793 -242.562538 
L 226.872447 -243.109216 
L 229.5191 -243.523948 
L 232.165753 -243.92967 
L 234.812407 -244.374513 
L 237.45906 -244.763027 
L 240.105713 -245.217251 
L 242.752367 -245.760321 
L 245.39902 -246.169892 
L 248.045673 -246.638592 
L 250.692327 -247.014663 
L 253.33898 -247.555219 
L 255.985633 -247.90131 
L 258.632287 -248.23837 
L 261.27894 -248.601779 
L 263.925593 -248.993682 
L 266.572247 -249.61578 
L 269.2189 -250.034842 
L 271.865553 -250.462147 
L 274.512207 -250.848539 
L 277.15886 -251.225485 
L 279.805513 -251.67164 
L 282.452167 -251.954535 
L 285.09882 -252.289911 
L 287.745473 -252.622904 
L 290.392127 -253.054911 
L 293.03878 -253.324423 
L 295.685433 -253.563169 
L 298.332087 -253.873332 
L 300.97874 -254.177154 
L 303.625393 -254.392567 
L 306.272047 -254.702599 
L 308.9187 -255.030737 
L 311.565353 -255.3074 
L 314.212007 -255.521764 
L 316.85866 -255.908331 
L 319.505313 -256.21493 
L 322.151967 -256.54871 
L 324.79862 -256.757606 
L 327.445273 -257.058695 
L 330.091927 -257.277694 
L 332.73858 -257.598616 
L 335.385233 -257.869025 
L 338.031887 -258.054196 
L 340.67854 -258.33357 
L 343.325193 -258.647823 
L 345.971847 -258.879024 
L 348.6185 -259.092753 
L 351.265153 -259.336047 
L 353.911807 -259.495808 
L 356.55846 -259.894052 
L 359.205113 -260.131005 
L 361.851767 -260.492512 
L 364.49842 -260.701671 
L 367.145073 -260.984041 
L 369.791727 -261.208551 
L 372.43838 -261.446618 
L 375.085033 -261.672484 
L 377.731687 -261.851117 
L 380.37834 -262.087194 
L 383.024993 -262.324278 
L 385.671647 -262.526855 
L 388.3183 -262.619156 
L 390.964953 -262.874476 
L 393.611607 -263.047467 
L 396.25826 -263.230801 
L 398.904913 -263.446455 
L 401.551567 -263.566746 
L 404.19822 -263.719072 
L 406.844873 -263.904593 
L 409.491527 -264.028645 
L 412.13818 -264.279899 
L 414.784833 -264.410402 
L 417.431487 -264.545869 
L 420.07814 -264.702306 
L 422.724793 -264.758461 
L 425.371447 -265.032106 
L 428.0181 -265.22856 
L 430.664753 -265.326219 
L 433.311407 -265.392148 
L 435.95806 -265.483575 
L 438.604713 -265.664219 
L 441.251367 -265.87902 
L 443.89802 -266.018029 
L 446.544673 -266.161346 
L 449.191327 -266.368035 
L 451.83798 -266.533306 
L 454.484633 -266.543649 
L 457.131287 -266.662847 
L 459.77794 -266.897394 
L 462.424593 -266.951034 
L 465.071247 -267.103995 
L 467.7179 -267.226363 
L 470.364553 -267.461435 
L 473.011207 -267.639149 
L 475.65786 -267.842732 
L 478.304513 -267.908749 
L 480.951167 -268.01288 
L 483.59782 -268.048152 
L 486.244473 -268.227637 
L 488.891127 -268.374825 
L 491.53778 -268.541365 
L 494.184433 -268.733664 
L 496.831087 -268.824763 
L 499.47774 -268.953779 
L 502.124393 -269.074026 
L 504.771047 -269.180257 
L 507.4177 -269.347365 
L 510.064353 -269.515545 
L 512.711007 -269.636055 
L 515.35766 -269.733211 
L 518.004313 -269.91215 
L 520.650967 -270.053433 
L 523.29762 -270.206197 
L 525.944273 -270.313324 
L 528.590927 -270.448135 
L 531.23758 -270.577741 
L 533.884233 -270.776863 
L 536.530887 -270.941413 
L 539.17754 -271.0312 
L 541.824193 -271.121927 
L 544.470847 -271.148386 
L 547.1175 -271.219694 
L 549.764153 -271.283984 
L 552.410807 -271.413722 
L 555.05746 -271.618485 
L 557.704113 -271.712055 
L 560.350767 -271.831493 
L 562.99742 -271.981764 
L 565.644073 -272.084233 
L 568.290727 -272.139076 
L 570.93738 -272.156876 
L 573.584033 -272.318868 
L 576.230687 -272.391292 
L 578.87734 -272.437825 
L 581.523993 -272.499687 
L 584.170647 -272.541431 
L 586.8173 -272.663537 
L 589.463953 -272.768718 
L 592.110607 -272.864802 
L 594.75726 -273.025307 
L 597.403913 -273.156204 
L 600.050567 -273.33687 
L 602.69722 -273.423639 
L 605.343873 -273.494466 
L 607.990527 -273.528601 
L 610.63718 -273.594093 
L 613.283833 -273.706774 
L 615.930487 -273.877097 
L 618.57714 -274.011602 
L 621.223793 -274.058179 
L 623.870447 -274.137382 
L 626.5171 -274.201977 
L 629.163753 -274.285357 
L 631.810407 -274.424628 
L 634.45706 -274.503394 
L 637.103713 -274.619071 
L 639.750367 -274.748109 
L 642.39702 -274.800721 
L 645.043673 -274.844215 
L 647.690327 -274.900545 
L 650.33698 -274.946159 
L 652.983633 -274.965971 
L 655.630287 -275.068331 
L 658.27694 -275.087596 
L 660.923593 -275.153963 
L 663.570247 -275.205329 
L 666.2169 -275.368414 
L 668.863553 -275.455445 
L 671.510207 -275.500579 
L 674.15686 -275.603267 
L 676.803513 -275.697645 
L 679.450167 -275.852115 
L 682.09682 -275.924276 
L 684.743473 -276.061317 
L 687.390127 -276.133042 
L 690.03678 -276.291688 
L 692.683433 -276.323373 
L 695.330087 -276.404763 
L 697.97674 -276.495599 
L 700.623393 -276.527809 
L 703.270047 -276.594919 
L 705.9167 -276.644973 
L 708.563353 -276.733644 
L 711.210007 -276.790652 
L 713.85666 -276.916322 
L 716.503313 -276.94101 
L 719.149967 -276.905301 
L 721.79662 -276.942191 
L 724.443273 -276.984963 
L 727.089927 -277.033289 
L 729.73658 -277.088832 
L 732.383233 -277.176716 
L 735.029887 -277.256378 
L 737.67654 -277.337352 
L 740.323193 -277.422546 
L 742.969847 -277.420206 
L 745.6165 -277.460267 
L 748.263153 -277.506582 
L 750.909807 -277.531051 
L 753.55646 -277.631574 
L 756.203113 -277.674652 
L 758.849767 -277.716244 
L 761.49642 -277.821293 
L 764.143073 -277.877929 
L 766.789727 -277.953764 
L 769.43638 -278.010422 
L 772.083033 -278.080681 
L 774.729687 -278.147135 
L 777.37634 -278.175344 
L 780.022993 -278.257018 
L 782.669647 -278.326446 
L 785.3163 -278.400619 
L 787.962953 -278.477263 
L 790.609607 -278.566481 
L 793.25626 -278.599719 
L 795.902913 -278.703435 
L 798.549567 -278.808419 
L 801.19622 -278.865186 
L 803.842873 -278.891995 
L 806.489527 -278.942727 
L 809.13618 -278.923615 
L 811.782833 -278.883423 
L 814.429487 -278.948959 
L 817.07614 -278.938179 
L 819.722793 -279.038855 
L 822.369447 -279.074149 
L 825.0161 -279.040167 
L 827.662753 -279.077057 
L 830.309407 -279.134043 
L 832.95606 -279.158446 
L 835.602713 -279.161836 
L 838.249367 -279.176837 
L 840.89602 -279.16282 
L 843.542673 -279.243663 
L 843.542673 -372.794827 
L 843.542673 -372.794827 
L 840.89602 -372.805455 
L 838.249367 -372.726164 
L 835.602713 -372.687634 
L 832.95606 -372.630605 
L 830.309407 -372.576506 
L 827.662753 -372.556432 
L 825.0161 -372.530016 
L 822.369447 -372.435681 
L 819.722793 -372.395577 
L 817.07614 -372.382719 
L 814.429487 -372.311214 
L 811.782833 -372.293764 
L 809.13618 -372.169865 
L 806.489527 -372.127836 
L 803.842873 -372.113666 
L 801.19622 -372.076186 
L 798.549567 -372.039886 
L 795.902913 -372.043123 
L 793.25626 -372.062628 
L 790.609607 -372.033151 
L 787.962953 -372.028778 
L 785.3163 -372.010803 
L 782.669647 -371.989898 
L 780.022993 -371.972273 
L 777.37634 -371.953599 
L 774.729687 -371.908552 
L 772.083033 -371.900462 
L 769.43638 -371.898625 
L 766.789727 -371.876583 
L 764.143073 -371.841683 
L 761.49642 -371.786359 
L 758.849767 -371.799567 
L 756.203113 -371.777131 
L 753.55646 -371.736414 
L 750.909807 -371.71809 
L 748.263153 -371.677286 
L 745.6165 -371.667183 
L 742.969847 -371.625898 
L 740.323193 -371.52509 
L 737.67654 -371.508471 
L 735.029887 -371.464169 
L 732.383233 -371.453454 
L 729.73658 -371.451267 
L 727.089927 -371.434386 
L 724.443273 -371.390345 
L 721.79662 -371.333491 
L 719.149967 -371.268283 
L 716.503313 -371.173467 
L 713.85666 -371.078214 
L 711.210007 -371.085386 
L 708.563353 -371.070779 
L 705.9167 -371.04913 
L 703.270047 -371.007539 
L 700.623393 -371.000367 
L 697.97674 -370.911805 
L 695.330087 -370.903102 
L 692.683433 -370.898029 
L 690.03678 -370.866846 
L 687.390127 -370.903364 
L 684.743473 -370.885083 
L 682.09682 -370.867939 
L 679.450167 -370.842836 
L 676.803513 -370.882022 
L 674.15686 -370.873013 
L 671.510207 -370.861904 
L 668.863553 -370.77601 
L 666.2169 -370.771374 
L 663.570247 -370.770368 
L 660.923593 -370.731226 
L 658.27694 -370.658584 
L 655.630287 -370.572383 
L 652.983633 -370.577019 
L 650.33698 -370.525107 
L 647.690327 -370.494186 
L 645.043673 -370.458149 
L 642.39702 -370.383495 
L 639.750367 -370.298388 
L 637.103713 -370.287061 
L 634.45706 -370.272235 
L 631.810407 -370.252074 
L 629.163753 -370.2128 
L 626.5171 -370.160363 
L 623.870447 -370.133641 
L 621.223793 -370.094849 
L 618.57714 -370.046348 
L 615.930487 -370.020238 
L 613.283833 -370.035064 
L 610.63718 -370.039088 
L 607.990527 -370.010486 
L 605.343873 -369.917813 
L 602.69722 -369.828726 
L 600.050567 -369.805109 
L 597.403913 -369.84329 
L 594.75726 -369.822341 
L 592.110607 -369.850156 
L 589.463953 -369.818448 
L 586.8173 -369.742482 
L 584.170647 -369.724551 
L 581.523993 -369.624531 
L 578.87734 -369.561641 
L 576.230687 -369.507061 
L 573.584033 -369.457641 
L 570.93738 -369.505311 
L 568.290727 -369.44194 
L 565.644073 -369.355521 
L 562.99742 -369.295474 
L 560.350767 -369.270983 
L 557.704113 -369.208924 
L 555.05746 -369.179141 
L 552.410807 -369.216446 
L 549.764153 -369.193005 
L 547.1175 -369.119881 
L 544.470847 -369.047982 
L 541.824193 -368.915292 
L 539.17754 -368.855464 
L 536.530887 -368.845449 
L 533.884233 -368.821482 
L 531.23758 -368.791087 
L 528.590927 -368.75505 
L 525.944273 -368.708779 
L 523.29762 -368.700557 
L 520.650967 -368.648645 
L 518.004313 -368.639548 
L 515.35766 -368.656779 
L 512.711007 -368.567386 
L 510.064353 -368.491682 
L 507.4177 -368.511144 
L 504.771047 -368.505765 
L 502.124393 -368.428749 
L 499.47774 -368.370145 
L 496.831087 -368.275066 
L 494.184433 -368.221579 
L 491.53778 -368.228446 
L 488.891127 -368.17439 
L 486.244473 -368.123046 
L 483.59782 -368.117055 
L 480.951167 -368.003302 
L 478.304513 -367.940368 
L 475.65786 -367.84599 
L 473.011207 -367.822111 
L 470.364553 -367.776802 
L 467.7179 -367.756028 
L 465.071247 -367.685616 
L 462.424593 -367.61223 
L 459.77794 -367.468694 
L 457.131287 -367.501014 
L 454.484633 -367.430164 
L 451.83798 -367.276832 
L 449.191327 -367.204802 
L 446.544673 -367.183022 
L 443.89802 -367.132072 
L 441.251367 -367.043728 
L 438.604713 -366.968768 
L 435.95806 -366.883005 
L 433.311407 -366.751365 
L 430.664753 -366.603412 
L 428.0181 -366.485067 
L 425.371447 -366.459526 
L 422.724793 -366.46215 
L 420.07814 -366.348266 
L 417.431487 -366.281659 
L 414.784833 -366.219206 
L 412.13818 -366.159291 
L 409.491527 -366.151287 
L 406.844873 -366.017023 
L 404.19822 -365.966641 
L 401.551567 -365.812915 
L 398.904913 -365.743946 
L 396.25826 -365.719061 
L 393.611607 -365.65381 
L 390.964953 -365.63015 
L 388.3183 -365.616286 
L 385.671647 -365.47415 
L 383.024993 -365.43785 
L 380.37834 -365.417689 
L 377.731687 -365.385413 
L 375.085033 -365.279532 
L 372.43838 -365.207764 
L 369.791727 -365.138927 
L 367.145073 -365.103677 
L 364.49842 -365.086096 
L 361.851767 -365.044985 
L 359.205113 -364.997053 
L 356.55846 -364.974836 
L 353.911807 -365.007811 
L 351.265153 -364.817174 
L 348.6185 -364.726556 
L 345.971847 -364.641712 
L 343.325193 -364.57248 
L 340.67854 -364.574798 
L 338.031887 -364.49284 
L 335.385233 -364.345937 
L 332.73858 -364.308457 
L 330.091927 -364.235945 
L 327.445273 -364.112746 
L 324.79862 -364.029651 
L 322.151967 -363.895955 
L 319.505313 -363.851827 
L 316.85866 -363.755043 
L 314.212007 -363.735538 
L 311.565353 -363.59467 
L 308.9187 -363.513412 
L 306.272047 -363.496355 
L 303.625393 -363.432722 
L 300.97874 -363.229401 
L 298.332087 -363.092338 
L 295.685433 -362.966908 
L 293.03878 -362.854599 
L 290.392127 -362.698861 
L 287.745473 -362.662737 
L 285.09882 -362.533458 
L 282.452167 -362.420318 
L 279.805513 -362.159618 
L 277.15886 -362.092486 
L 274.512207 -361.962945 
L 271.865553 -361.788008 
L 269.2189 -361.690743 
L 266.572247 -361.642722 
L 263.925593 -361.714141 
L 261.27894 -361.624923 
L 258.632287 -361.468048 
L 255.985633 -361.301158 
L 253.33898 -361.184825 
L 250.692327 -361.141484 
L 248.045673 -360.960774 
L 245.39902 -360.714288 
L 242.752367 -360.532222 
L 240.105713 -360.484989 
L 237.45906 -360.376353 
L 234.812407 -360.160437 
L 232.165753 -360.014409 
L 229.5191 -359.81568 
L 226.872447 -359.63965 
L 224.225793 -359.519862 
L 221.57914 -359.305214 
L 218.932487 -359.071542 
L 216.285833 -359.022953 
L 213.63918 -358.897917 
L 210.992527 -358.478286 
L 208.345873 -358.107945 
L 205.69922 -357.872042 
L 203.052567 -357.577361 
L 200.405913 -357.298467 
L 197.75926 -357.057973 
L 195.112607 -356.885529 
L 192.465953 -356.69769 
L 189.8193 -356.483305 
L 187.172647 -356.109508 
L 184.525993 -355.695388 
L 181.87934 -355.307859 
L 179.232687 -354.997608 
L 176.586033 -354.761268 
L 173.93938 -354.736471 
L 171.292727 -354.45491 
L 168.646073 -354.259243 
L 165.99942 -354.042058 
L 163.352767 -353.670011 
L 160.706113 -353.400389 
L 158.05946 -353.104746 
L 155.412807 -352.850781 
L 152.766153 -352.405654 
L 150.1195 -352.097983 
L 147.472847 -351.81874 
L 144.826193 -351.547981 
L 142.17954 -351.295241 
L 139.532887 -350.997104 
L 136.886233 -350.512485 
L 134.23958 -350.056818 
L 131.592927 -349.940135 
L 128.946273 -349.724787 
L 126.29962 -349.480663 
L 123.652967 -349.124491 
L 121.006313 -348.768581 
L 118.35966 -348.246701 
L 115.713007 -347.730986 
L 113.066353 -346.960957 
L 110.4197 -346.2857 
L 107.773047 -345.548253 
L 105.126393 -344.800047 
L 102.47974 -344.054247 
L 99.833087 -343.709359 
L 97.186433 -343.027629 
L 94.53978 -342.316554 
L 91.893127 -341.530474 
L 89.246473 -340.880015 
L 86.59982 -340.021774 
L 83.953167 -339.367465 
L 81.306513 -338.193419 
L 78.65986 -336.844873 
L 76.013207 -335.242931 
L 73.366553 -333.63679 
L 70.7199 -330.814663 
L 68.073247 -328.06111 
L 65.426593 -325.009858 
L 62.77994 -321.075962 
L 60.133287 -316.014027 
L 57.486633 -309.984298 
L 54.83998 -303.150842 
L 52.193327 -303.157992 
z
" style="stroke: #0000ff; stroke-opacity: 0.2"/>
    </defs>
    <g clip-path="url(#p21b7037a71)">
     <use xlink:href="#m8de4626b8a" x="0" y="432" style="fill: #0000ff; fill-opacity: 0.2; stroke: #0000ff; stroke-opacity: 0.2"/>
    </g>
   </g>
   <g id="matplotlib.axis_1">
    <g id="xtick_1">
     <g id="line2d_1">
      <defs>
       <path id="m357bb0067c" d="M 0 0 
L 0 3.5 
" style="stroke: #000000; stroke-width: 0.8"/>
      </defs>
      <g>
       <use xlink:href="#m357bb0067c" x="181.87934" y="390.04" style="stroke: #000000; stroke-width: 0.8"/>
      </g>
     </g>
     <g id="text_1">
      <!-- 50 -->
      <g transform="translate(175.51684 404.638438) scale(0.1 -0.1)">
       <defs>
        <path id="DejaVuSans-35" d="M 691 4666 
L 3169 4666 
L 3169 4134 
L 1269 4134 
L 1269 2991 
Q 1406 3038 1543 3061 
Q 1681 3084 1819 3084 
Q 2600 3084 3056 2656 
Q 3513 2228 3513 1497 
Q 3513 744 3044 326 
Q 2575 -91 1722 -91 
Q 1428 -91 1123 -41 
Q 819 9 494 109 
L 494 744 
Q 775 591 1075 516 
Q 1375 441 1709 441 
Q 2250 441 2565 725 
Q 2881 1009 2881 1497 
Q 2881 1984 2565 2268 
Q 2250 2553 1709 2553 
Q 1456 2553 1204 2497 
Q 953 2441 691 2322 
L 691 4666 
z
" transform="scale(0.015625)"/>
        <path id="DejaVuSans-30" d="M 2034 4250 
Q 1547 4250 1301 3770 
Q 1056 3291 1056 2328 
Q 1056 1369 1301 889 
Q 1547 409 2034 409 
Q 2525 409 2770 889 
Q 3016 1369 3016 2328 
Q 3016 3291 2770 3770 
Q 2525 4250 2034 4250 
z
M 2034 4750 
Q 2819 4750 3233 4129 
Q 3647 3509 3647 2328 
Q 3647 1150 3233 529 
Q 2819 -91 2034 -91 
Q 1250 -91 836 529 
Q 422 1150 422 2328 
Q 422 3509 836 4129 
Q 1250 4750 2034 4750 
z
" transform="scale(0.015625)"/>
       </defs>
       <use xlink:href="#DejaVuSans-35"/>
       <use xlink:href="#DejaVuSans-30" transform="translate(63.623047 0)"/>
      </g>
     </g>
    </g>
    <g id="xtick_2">
     <g id="line2d_2">
      <g>
       <use xlink:href="#m357bb0067c" x="314.212007" y="390.04" style="stroke: #000000; stroke-width: 0.8"/>
      </g>
     </g>
     <g id="text_2">
      <!-- 100 -->
      <g transform="translate(304.668257 404.638438) scale(0.1 -0.1)">
       <defs>
        <path id="DejaVuSans-31" d="M 794 531 
L 1825 531 
L 1825 4091 
L 703 3866 
L 703 4441 
L 1819 4666 
L 2450 4666 
L 2450 531 
L 3481 531 
L 3481 0 
L 794 0 
L 794 531 
z
" transform="scale(0.015625)"/>
       </defs>
       <use xlink:href="#DejaVuSans-31"/>
       <use xlink:href="#DejaVuSans-30" transform="translate(63.623047 0)"/>
       <use xlink:href="#DejaVuSans-30" transform="translate(127.246094 0)"/>
      </g>
     </g>
    </g>
    <g id="xtick_3">
     <g id="line2d_3">
      <g>
       <use xlink:href="#m357bb0067c" x="446.544673" y="390.04" style="stroke: #000000; stroke-width: 0.8"/>
      </g>
     </g>
     <g id="text_3">
      <!-- 150 -->
      <g transform="translate(437.000923 404.638438) scale(0.1 -0.1)">
       <use xlink:href="#DejaVuSans-31"/>
       <use xlink:href="#DejaVuSans-35" transform="translate(63.623047 0)"/>
       <use xlink:href="#DejaVuSans-30" transform="translate(127.246094 0)"/>
      </g>
     </g>
    </g>
    <g id="xtick_4">
     <g id="line2d_4">
      <g>
       <use xlink:href="#m357bb0067c" x="578.87734" y="390.04" style="stroke: #000000; stroke-width: 0.8"/>
      </g>
     </g>
     <g id="text_4">
      <!-- 200 -->
      <g transform="translate(569.33359 404.638438) scale(0.1 -0.1)">
       <defs>
        <path id="DejaVuSans-32" d="M 1228 531 
L 3431 531 
L 3431 0 
L 469 0 
L 469 531 
Q 828 903 1448 1529 
Q 2069 2156 2228 2338 
Q 2531 2678 2651 2914 
Q 2772 3150 2772 3378 
Q 2772 3750 2511 3984 
Q 2250 4219 1831 4219 
Q 1534 4219 1204 4116 
Q 875 4013 500 3803 
L 500 4441 
Q 881 4594 1212 4672 
Q 1544 4750 1819 4750 
Q 2544 4750 2975 4387 
Q 3406 4025 3406 3419 
Q 3406 3131 3298 2873 
Q 3191 2616 2906 2266 
Q 2828 2175 2409 1742 
Q 1991 1309 1228 531 
z
" transform="scale(0.015625)"/>
       </defs>
       <use xlink:href="#DejaVuSans-32"/>
       <use xlink:href="#DejaVuSans-30" transform="translate(63.623047 0)"/>
       <use xlink:href="#DejaVuSans-30" transform="translate(127.246094 0)"/>
      </g>
     </g>
    </g>
    <g id="xtick_5">
     <g id="line2d_5">
      <g>
       <use xlink:href="#m357bb0067c" x="711.210007" y="390.04" style="stroke: #000000; stroke-width: 0.8"/>
      </g>
     </g>
     <g id="text_5">
      <!-- 250 -->
      <g transform="translate(701.666257 404.638438) scale(0.1 -0.1)">
       <use xlink:href="#DejaVuSans-32"/>
       <use xlink:href="#DejaVuSans-35" transform="translate(63.623047 0)"/>
       <use xlink:href="#DejaVuSans-30" transform="translate(127.246094 0)"/>
      </g>
     </g>
    </g>
    <g id="xtick_6">
     <g id="line2d_6">
      <g>
       <use xlink:href="#m357bb0067c" x="843.542673" y="390.04" style="stroke: #000000; stroke-width: 0.8"/>
      </g>
     </g>
     <g id="text_6">
      <!-- 300 -->
      <g transform="translate(833.998923 404.638438) scale(0.1 -0.1)">
       <defs>
        <path id="DejaVuSans-33" d="M 2597 2516 
Q 3050 2419 3304 2112 
Q 3559 1806 3559 1356 
Q 3559 666 3084 287 
Q 2609 -91 1734 -91 
Q 1441 -91 1130 -33 
Q 819 25 488 141 
L 488 750 
Q 750 597 1062 519 
Q 1375 441 1716 441 
Q 2309 441 2620 675 
Q 2931 909 2931 1356 
Q 2931 1769 2642 2001 
Q 2353 2234 1838 2234 
L 1294 2234 
L 1294 2753 
L 1863 2753 
Q 2328 2753 2575 2939 
Q 2822 3125 2822 3475 
Q 2822 3834 2567 4026 
Q 2313 4219 1838 4219 
Q 1578 4219 1281 4162 
Q 984 4106 628 3988 
L 628 4550 
Q 988 4650 1302 4700 
Q 1616 4750 1894 4750 
Q 2613 4750 3031 4423 
Q 3450 4097 3450 3541 
Q 3450 3153 3228 2886 
Q 3006 2619 2597 2516 
z
" transform="scale(0.015625)"/>
       </defs>
       <use xlink:href="#DejaVuSans-33"/>
       <use xlink:href="#DejaVuSans-30" transform="translate(63.623047 0)"/>
       <use xlink:href="#DejaVuSans-30" transform="translate(127.246094 0)"/>
      </g>
     </g>
    </g>
    <g id="text_7">
     <!-- Step -->
     <g transform="translate(436.482844 418.316562) scale(0.1 -0.1)">
      <defs>
       <path id="DejaVuSans-53" d="M 3425 4513 
L 3425 3897 
Q 3066 4069 2747 4153 
Q 2428 4238 2131 4238 
Q 1616 4238 1336 4038 
Q 1056 3838 1056 3469 
Q 1056 3159 1242 3001 
Q 1428 2844 1947 2747 
L 2328 2669 
Q 3034 2534 3370 2195 
Q 3706 1856 3706 1288 
Q 3706 609 3251 259 
Q 2797 -91 1919 -91 
Q 1588 -91 1214 -16 
Q 841 59 441 206 
L 441 856 
Q 825 641 1194 531 
Q 1563 422 1919 422 
Q 2459 422 2753 634 
Q 3047 847 3047 1241 
Q 3047 1584 2836 1778 
Q 2625 1972 2144 2069 
L 1759 2144 
Q 1053 2284 737 2584 
Q 422 2884 422 3419 
Q 422 4038 858 4394 
Q 1294 4750 2059 4750 
Q 2388 4750 2728 4690 
Q 3069 4631 3425 4513 
z
" transform="scale(0.015625)"/>
       <path id="DejaVuSans-74" d="M 1172 4494 
L 1172 3500 
L 2356 3500 
L 2356 3053 
L 1172 3053 
L 1172 1153 
Q 1172 725 1289 603 
Q 1406 481 1766 481 
L 2356 481 
L 2356 0 
L 1766 0 
Q 1100 0 847 248 
Q 594 497 594 1153 
L 594 3053 
L 172 3053 
L 172 3500 
L 594 3500 
L 594 4494 
L 1172 4494 
z
" transform="scale(0.015625)"/>
       <path id="DejaVuSans-65" d="M 3597 1894 
L 3597 1613 
L 953 1613 
Q 991 1019 1311 708 
Q 1631 397 2203 397 
Q 2534 397 2845 478 
Q 3156 559 3463 722 
L 3463 178 
Q 3153 47 2828 -22 
Q 2503 -91 2169 -91 
Q 1331 -91 842 396 
Q 353 884 353 1716 
Q 353 2575 817 3079 
Q 1281 3584 2069 3584 
Q 2775 3584 3186 3129 
Q 3597 2675 3597 1894 
z
M 3022 2063 
Q 3016 2534 2758 2815 
Q 2500 3097 2075 3097 
Q 1594 3097 1305 2825 
Q 1016 2553 972 2059 
L 3022 2063 
z
" transform="scale(0.015625)"/>
       <path id="DejaVuSans-70" d="M 1159 525 
L 1159 -1331 
L 581 -1331 
L 581 3500 
L 1159 3500 
L 1159 2969 
Q 1341 3281 1617 3432 
Q 1894 3584 2278 3584 
Q 2916 3584 3314 3078 
Q 3713 2572 3713 1747 
Q 3713 922 3314 415 
Q 2916 -91 2278 -91 
Q 1894 -91 1617 61 
Q 1341 213 1159 525 
z
M 3116 1747 
Q 3116 2381 2855 2742 
Q 2594 3103 2138 3103 
Q 1681 3103 1420 2742 
Q 1159 2381 1159 1747 
Q 1159 1113 1420 752 
Q 1681 391 2138 391 
Q 2594 391 2855 752 
Q 3116 1113 3116 1747 
z
" transform="scale(0.015625)"/>
      </defs>
      <use xlink:href="#DejaVuSans-53"/>
      <use xlink:href="#DejaVuSans-74" transform="translate(63.476562 0)"/>
      <use xlink:href="#DejaVuSans-65" transform="translate(102.685547 0)"/>
      <use xlink:href="#DejaVuSans-70" transform="translate(164.208984 0)"/>
     </g>
    </g>
   </g>
   <g id="matplotlib.axis_2">
    <g id="ytick_1">
     <g id="line2d_7">
      <defs>
       <path id="m5e9b8cd669" d="M 0 0 
L -3.5 0 
" style="stroke: #000000; stroke-width: 0.8"/>
      </defs>
      <g>
       <use xlink:href="#m5e9b8cd669" x="50.87" y="342.132192" style="stroke: #000000; stroke-width: 0.8"/>
      </g>
     </g>
     <g id="text_8">
      <!-- 100 -->
      <g transform="translate(24.7825 345.931411) scale(0.1 -0.1)">
       <use xlink:href="#DejaVuSans-31"/>
       <use xlink:href="#DejaVuSans-30" transform="translate(63.623047 0)"/>
       <use xlink:href="#DejaVuSans-30" transform="translate(127.246094 0)"/>
      </g>
     </g>
    </g>
    <g id="ytick_2">
     <g id="line2d_8">
      <g>
       <use xlink:href="#m5e9b8cd669" x="50.87" y="270.477983" style="stroke: #000000; stroke-width: 0.8"/>
      </g>
     </g>
     <g id="text_9">
      <!-- 150 -->
      <g transform="translate(24.7825 274.277202) scale(0.1 -0.1)">
       <use xlink:href="#DejaVuSans-31"/>
       <use xlink:href="#DejaVuSans-35" transform="translate(63.623047 0)"/>
       <use xlink:href="#DejaVuSans-30" transform="translate(127.246094 0)"/>
      </g>
     </g>
    </g>
    <g id="ytick_3">
     <g id="line2d_9">
      <g>
       <use xlink:href="#m5e9b8cd669" x="50.87" y="198.823775" style="stroke: #000000; stroke-width: 0.8"/>
      </g>
     </g>
     <g id="text_10">
      <!-- 200 -->
      <g transform="translate(24.7825 202.622993) scale(0.1 -0.1)">
       <use xlink:href="#DejaVuSans-32"/>
       <use xlink:href="#DejaVuSans-30" transform="translate(63.623047 0)"/>
       <use xlink:href="#DejaVuSans-30" transform="translate(127.246094 0)"/>
      </g>
     </g>
    </g>
    <g id="ytick_4">
     <g id="line2d_10">
      <g>
       <use xlink:href="#m5e9b8cd669" x="50.87" y="127.169566" style="stroke: #000000; stroke-width: 0.8"/>
      </g>
     </g>
     <g id="text_11">
      <!-- 250 -->
      <g transform="translate(24.7825 130.968785) scale(0.1 -0.1)">
       <use xlink:href="#DejaVuSans-32"/>
       <use xlink:href="#DejaVuSans-35" transform="translate(63.623047 0)"/>
       <use xlink:href="#DejaVuSans-30" transform="translate(127.246094 0)"/>
      </g>
     </g>
    </g>
    <g id="ytick_5">
     <g id="line2d_11">
      <g>
       <use xlink:href="#m5e9b8cd669" x="50.87" y="55.515357" style="stroke: #000000; stroke-width: 0.8"/>
      </g>
     </g>
     <g id="text_12">
      <!-- 300 -->
      <g transform="translate(24.7825 59.314576) scale(0.1 -0.1)">
       <use xlink:href="#DejaVuSans-33"/>
       <use xlink:href="#DejaVuSans-30" transform="translate(63.623047 0)"/>
       <use xlink:href="#DejaVuSans-30" transform="translate(127.246094 0)"/>
      </g>
     </g>
    </g>
    <g id="text_13">
     <!-- Profit -->
     <g transform="translate(18.702813 229.779063) rotate(-90) scale(0.1 -0.1)">
      <defs>
       <path id="DejaVuSans-50" d="M 1259 4147 
L 1259 2394 
L 2053 2394 
Q 2494 2394 2734 2622 
Q 2975 2850 2975 3272 
Q 2975 3691 2734 3919 
Q 2494 4147 2053 4147 
L 1259 4147 
z
M 628 4666 
L 2053 4666 
Q 2838 4666 3239 4311 
Q 3641 3956 3641 3272 
Q 3641 2581 3239 2228 
Q 2838 1875 2053 1875 
L 1259 1875 
L 1259 0 
L 628 0 
L 628 4666 
z
" transform="scale(0.015625)"/>
       <path id="DejaVuSans-72" d="M 2631 2963 
Q 2534 3019 2420 3045 
Q 2306 3072 2169 3072 
Q 1681 3072 1420 2755 
Q 1159 2438 1159 1844 
L 1159 0 
L 581 0 
L 581 3500 
L 1159 3500 
L 1159 2956 
Q 1341 3275 1631 3429 
Q 1922 3584 2338 3584 
Q 2397 3584 2469 3576 
Q 2541 3569 2628 3553 
L 2631 2963 
z
" transform="scale(0.015625)"/>
       <path id="DejaVuSans-6f" d="M 1959 3097 
Q 1497 3097 1228 2736 
Q 959 2375 959 1747 
Q 959 1119 1226 758 
Q 1494 397 1959 397 
Q 2419 397 2687 759 
Q 2956 1122 2956 1747 
Q 2956 2369 2687 2733 
Q 2419 3097 1959 3097 
z
M 1959 3584 
Q 2709 3584 3137 3096 
Q 3566 2609 3566 1747 
Q 3566 888 3137 398 
Q 2709 -91 1959 -91 
Q 1206 -91 779 398 
Q 353 888 353 1747 
Q 353 2609 779 3096 
Q 1206 3584 1959 3584 
z
" transform="scale(0.015625)"/>
       <path id="DejaVuSans-66" d="M 2375 4863 
L 2375 4384 
L 1825 4384 
Q 1516 4384 1395 4259 
Q 1275 4134 1275 3809 
L 1275 3500 
L 2222 3500 
L 2222 3053 
L 1275 3053 
L 1275 0 
L 697 0 
L 697 3053 
L 147 3053 
L 147 3500 
L 697 3500 
L 697 3744 
Q 697 4328 969 4595 
Q 1241 4863 1831 4863 
L 2375 4863 
z
" transform="scale(0.015625)"/>
       <path id="DejaVuSans-69" d="M 603 3500 
L 1178 3500 
L 1178 0 
L 603 0 
L 603 3500 
z
M 603 4863 
L 1178 4863 
L 1178 4134 
L 603 4134 
L 603 4863 
z
" transform="scale(0.015625)"/>
      </defs>
      <use xlink:href="#DejaVuSans-50"/>
      <use xlink:href="#DejaVuSans-72" transform="translate(58.552734 0)"/>
      <use xlink:href="#DejaVuSans-6f" transform="translate(97.416016 0)"/>
      <use xlink:href="#DejaVuSans-66" transform="translate(158.597656 0)"/>
      <use xlink:href="#DejaVuSans-69" transform="translate(193.802734 0)"/>
      <use xlink:href="#DejaVuSans-74" transform="translate(221.585938 0)"/>
     </g>
    </g>
   </g>
   <g id="line2d_12">
    <path d="M 52.193327 251.563726 
L 54.83998 250.883133 
L 57.486633 240.467776 
L 60.133287 230.741539 
L 62.77994 222.542087 
L 65.426593 215.236323 
L 68.073247 208.687949 
L 70.7199 203.076734 
L 73.366553 198.03131 
L 76.013207 193.501293 
L 78.65986 189.473018 
L 81.306513 185.769776 
L 83.953167 182.35295 
L 86.59982 179.317421 
L 91.893127 174.007207 
L 97.186433 169.61878 
L 99.833087 167.680566 
L 107.773047 162.525543 
L 115.713007 158.154107 
L 118.35966 156.815205 
L 121.006313 155.602235 
L 131.592927 151.351899 
L 136.886233 149.416724 
L 144.826193 146.89153 
L 150.1195 145.261073 
L 163.352767 141.662203 
L 176.586033 138.734194 
L 189.8193 136.092557 
L 205.69922 133.577378 
L 216.285833 132.017268 
L 224.225793 130.95879 
L 234.812407 129.732525 
L 255.985633 127.398777 
L 293.03878 123.910489 
L 300.97874 123.296722 
L 311.565353 122.548976 
L 364.49842 119.106106 
L 385.671647 117.999498 
L 459.77794 114.816956 
L 523.29762 112.546623 
L 531.23758 112.315575 
L 539.17754 112.056668 
L 600.050567 110.42901 
L 637.103713 109.546934 
L 652.983633 109.228505 
L 682.09682 108.603892 
L 692.683433 108.389288 
L 843.542673 105.980755 
L 843.542673 105.980755 
" clip-path="url(#p21b7037a71)" style="fill: none; stroke: #0000ff; stroke-width: 1.5; stroke-linecap: square"/>
   </g>
   <g id="patch_3">
    <path d="M 50.87 390.04 
L 50.87 43.44 
" style="fill: none; stroke: #000000; stroke-width: 0.8; stroke-linejoin: miter; stroke-linecap: square"/>
   </g>
   <g id="patch_4">
    <path d="M 844.866 390.04 
L 844.866 43.44 
" style="fill: none; stroke: #000000; stroke-width: 0.8; stroke-linejoin: miter; stroke-linecap: square"/>
   </g>
   <g id="patch_5">
    <path d="M 50.87 390.04 
L 844.866 390.04 
" style="fill: none; stroke: #000000; stroke-width: 0.8; stroke-linejoin: miter; stroke-linecap: square"/>
   </g>
   <g id="patch_6">
    <path d="M 50.87 43.44 
L 844.866 43.44 
" style="fill: none; stroke: #000000; stroke-width: 0.8; stroke-linejoin: miter; stroke-linecap: square"/>
   </g>
   <g id="text_14">
    <!-- Mean profit per step with confidence interval per simulation step -->
    <g transform="translate(220.284875 21.763062) scale(0.14 -0.14)">
     <defs>
      <path id="DejaVuSans-4d" d="M 628 4666 
L 1569 4666 
L 2759 1491 
L 3956 4666 
L 4897 4666 
L 4897 0 
L 4281 0 
L 4281 4097 
L 3078 897 
L 2444 897 
L 1241 4097 
L 1241 0 
L 628 0 
L 628 4666 
z
" transform="scale(0.015625)"/>
      <path id="DejaVuSans-61" d="M 2194 1759 
Q 1497 1759 1228 1600 
Q 959 1441 959 1056 
Q 959 750 1161 570 
Q 1363 391 1709 391 
Q 2188 391 2477 730 
Q 2766 1069 2766 1631 
L 2766 1759 
L 2194 1759 
z
M 3341 1997 
L 3341 0 
L 2766 0 
L 2766 531 
Q 2569 213 2275 61 
Q 1981 -91 1556 -91 
Q 1019 -91 701 211 
Q 384 513 384 1019 
Q 384 1609 779 1909 
Q 1175 2209 1959 2209 
L 2766 2209 
L 2766 2266 
Q 2766 2663 2505 2880 
Q 2244 3097 1772 3097 
Q 1472 3097 1187 3025 
Q 903 2953 641 2809 
L 641 3341 
Q 956 3463 1253 3523 
Q 1550 3584 1831 3584 
Q 2591 3584 2966 3190 
Q 3341 2797 3341 1997 
z
" transform="scale(0.015625)"/>
      <path id="DejaVuSans-6e" d="M 3513 2113 
L 3513 0 
L 2938 0 
L 2938 2094 
Q 2938 2591 2744 2837 
Q 2550 3084 2163 3084 
Q 1697 3084 1428 2787 
Q 1159 2491 1159 1978 
L 1159 0 
L 581 0 
L 581 3500 
L 1159 3500 
L 1159 2956 
Q 1366 3272 1645 3428 
Q 1925 3584 2291 3584 
Q 2894 3584 3203 3211 
Q 3513 2838 3513 2113 
z
" transform="scale(0.015625)"/>
      <path id="DejaVuSans-20" transform="scale(0.015625)"/>
      <path id="DejaVuSans-73" d="M 2834 3397 
L 2834 2853 
Q 2591 2978 2328 3040 
Q 2066 3103 1784 3103 
Q 1356 3103 1142 2972 
Q 928 2841 928 2578 
Q 928 2378 1081 2264 
Q 1234 2150 1697 2047 
L 1894 2003 
Q 2506 1872 2764 1633 
Q 3022 1394 3022 966 
Q 3022 478 2636 193 
Q 2250 -91 1575 -91 
Q 1294 -91 989 -36 
Q 684 19 347 128 
L 347 722 
Q 666 556 975 473 
Q 1284 391 1588 391 
Q 1994 391 2212 530 
Q 2431 669 2431 922 
Q 2431 1156 2273 1281 
Q 2116 1406 1581 1522 
L 1381 1569 
Q 847 1681 609 1914 
Q 372 2147 372 2553 
Q 372 3047 722 3315 
Q 1072 3584 1716 3584 
Q 2034 3584 2315 3537 
Q 2597 3491 2834 3397 
z
" transform="scale(0.015625)"/>
      <path id="DejaVuSans-77" d="M 269 3500 
L 844 3500 
L 1563 769 
L 2278 3500 
L 2956 3500 
L 3675 769 
L 4391 3500 
L 4966 3500 
L 4050 0 
L 3372 0 
L 2619 2869 
L 1863 0 
L 1184 0 
L 269 3500 
z
" transform="scale(0.015625)"/>
      <path id="DejaVuSans-68" d="M 3513 2113 
L 3513 0 
L 2938 0 
L 2938 2094 
Q 2938 2591 2744 2837 
Q 2550 3084 2163 3084 
Q 1697 3084 1428 2787 
Q 1159 2491 1159 1978 
L 1159 0 
L 581 0 
L 581 4863 
L 1159 4863 
L 1159 2956 
Q 1366 3272 1645 3428 
Q 1925 3584 2291 3584 
Q 2894 3584 3203 3211 
Q 3513 2838 3513 2113 
z
" transform="scale(0.015625)"/>
      <path id="DejaVuSans-63" d="M 3122 3366 
L 3122 2828 
Q 2878 2963 2633 3030 
Q 2388 3097 2138 3097 
Q 1578 3097 1268 2742 
Q 959 2388 959 1747 
Q 959 1106 1268 751 
Q 1578 397 2138 397 
Q 2388 397 2633 464 
Q 2878 531 3122 666 
L 3122 134 
Q 2881 22 2623 -34 
Q 2366 -91 2075 -91 
Q 1284 -91 818 406 
Q 353 903 353 1747 
Q 353 2603 823 3093 
Q 1294 3584 2113 3584 
Q 2378 3584 2631 3529 
Q 2884 3475 3122 3366 
z
" transform="scale(0.015625)"/>
      <path id="DejaVuSans-64" d="M 2906 2969 
L 2906 4863 
L 3481 4863 
L 3481 0 
L 2906 0 
L 2906 525 
Q 2725 213 2448 61 
Q 2172 -91 1784 -91 
Q 1150 -91 751 415 
Q 353 922 353 1747 
Q 353 2572 751 3078 
Q 1150 3584 1784 3584 
Q 2172 3584 2448 3432 
Q 2725 3281 2906 2969 
z
M 947 1747 
Q 947 1113 1208 752 
Q 1469 391 1925 391 
Q 2381 391 2643 752 
Q 2906 1113 2906 1747 
Q 2906 2381 2643 2742 
Q 2381 3103 1925 3103 
Q 1469 3103 1208 2742 
Q 947 2381 947 1747 
z
" transform="scale(0.015625)"/>
      <path id="DejaVuSans-76" d="M 191 3500 
L 800 3500 
L 1894 563 
L 2988 3500 
L 3597 3500 
L 2284 0 
L 1503 0 
L 191 3500 
z
" transform="scale(0.015625)"/>
      <path id="DejaVuSans-6c" d="M 603 4863 
L 1178 4863 
L 1178 0 
L 603 0 
L 603 4863 
z
" transform="scale(0.015625)"/>
      <path id="DejaVuSans-6d" d="M 3328 2828 
Q 3544 3216 3844 3400 
Q 4144 3584 4550 3584 
Q 5097 3584 5394 3201 
Q 5691 2819 5691 2113 
L 5691 0 
L 5113 0 
L 5113 2094 
Q 5113 2597 4934 2840 
Q 4756 3084 4391 3084 
Q 3944 3084 3684 2787 
Q 3425 2491 3425 1978 
L 3425 0 
L 2847 0 
L 2847 2094 
Q 2847 2600 2669 2842 
Q 2491 3084 2119 3084 
Q 1678 3084 1418 2786 
Q 1159 2488 1159 1978 
L 1159 0 
L 581 0 
L 581 3500 
L 1159 3500 
L 1159 2956 
Q 1356 3278 1631 3431 
Q 1906 3584 2284 3584 
Q 2666 3584 2933 3390 
Q 3200 3197 3328 2828 
z
" transform="scale(0.015625)"/>
      <path id="DejaVuSans-75" d="M 544 1381 
L 544 3500 
L 1119 3500 
L 1119 1403 
Q 1119 906 1312 657 
Q 1506 409 1894 409 
Q 2359 409 2629 706 
Q 2900 1003 2900 1516 
L 2900 3500 
L 3475 3500 
L 3475 0 
L 2900 0 
L 2900 538 
Q 2691 219 2414 64 
Q 2138 -91 1772 -91 
Q 1169 -91 856 284 
Q 544 659 544 1381 
z
M 1991 3584 
L 1991 3584 
z
" transform="scale(0.015625)"/>
     </defs>
     <use xlink:href="#DejaVuSans-4d"/>
     <use xlink:href="#DejaVuSans-65" transform="translate(86.279297 0)"/>
     <use xlink:href="#DejaVuSans-61" transform="translate(147.802734 0)"/>
     <use xlink:href="#DejaVuSans-6e" transform="translate(209.082031 0)"/>
     <use xlink:href="#DejaVuSans-20" transform="translate(272.460938 0)"/>
     <use xlink:href="#DejaVuSans-70" transform="translate(304.248047 0)"/>
     <use xlink:href="#DejaVuSans-72" transform="translate(367.724609 0)"/>
     <use xlink:href="#DejaVuSans-6f" transform="translate(406.587891 0)"/>
     <use xlink:href="#DejaVuSans-66" transform="translate(467.769531 0)"/>
     <use xlink:href="#DejaVuSans-69" transform="translate(502.974609 0)"/>
     <use xlink:href="#DejaVuSans-74" transform="translate(530.757812 0)"/>
     <use xlink:href="#DejaVuSans-20" transform="translate(569.966797 0)"/>
     <use xlink:href="#DejaVuSans-70" transform="translate(601.753906 0)"/>
     <use xlink:href="#DejaVuSans-65" transform="translate(665.230469 0)"/>
     <use xlink:href="#DejaVuSans-72" transform="translate(726.753906 0)"/>
     <use xlink:href="#DejaVuSans-20" transform="translate(767.867188 0)"/>
     <use xlink:href="#DejaVuSans-73" transform="translate(799.654297 0)"/>
     <use xlink:href="#DejaVuSans-74" transform="translate(851.753906 0)"/>
     <use xlink:href="#DejaVuSans-65" transform="translate(890.962891 0)"/>
     <use xlink:href="#DejaVuSans-70" transform="translate(952.486328 0)"/>
     <use xlink:href="#DejaVuSans-20" transform="translate(1015.962891 0)"/>
     <use xlink:href="#DejaVuSans-77" transform="translate(1047.75 0)"/>
     <use xlink:href="#DejaVuSans-69" transform="translate(1129.537109 0)"/>
     <use xlink:href="#DejaVuSans-74" transform="translate(1157.320312 0)"/>
     <use xlink:href="#DejaVuSans-68" transform="translate(1196.529297 0)"/>
     <use xlink:href="#DejaVuSans-20" transform="translate(1259.908203 0)"/>
     <use xlink:href="#DejaVuSans-63" transform="translate(1291.695312 0)"/>
     <use xlink:href="#DejaVuSans-6f" transform="translate(1346.675781 0)"/>
     <use xlink:href="#DejaVuSans-6e" transform="translate(1407.857422 0)"/>
     <use xlink:href="#DejaVuSans-66" transform="translate(1471.236328 0)"/>
     <use xlink:href="#DejaVuSans-69" transform="translate(1506.441406 0)"/>
     <use xlink:href="#DejaVuSans-64" transform="translate(1534.224609 0)"/>
     <use xlink:href="#DejaVuSans-65" transform="translate(1597.701172 0)"/>
     <use xlink:href="#DejaVuSans-6e" transform="translate(1659.224609 0)"/>
     <use xlink:href="#DejaVuSans-63" transform="translate(1722.603516 0)"/>
     <use xlink:href="#DejaVuSans-65" transform="translate(1777.583984 0)"/>
     <use xlink:href="#DejaVuSans-20" transform="translate(1839.107422 0)"/>
     <use xlink:href="#DejaVuSans-69" transform="translate(1870.894531 0)"/>
     <use xlink:href="#DejaVuSans-6e" transform="translate(1898.677734 0)"/>
     <use xlink:href="#DejaVuSans-74" transform="translate(1962.056641 0)"/>
     <use xlink:href="#DejaVuSans-65" transform="translate(2001.265625 0)"/>
     <use xlink:href="#DejaVuSans-72" transform="translate(2062.789062 0)"/>
     <use xlink:href="#DejaVuSans-76" transform="translate(2103.902344 0)"/>
     <use xlink:href="#DejaVuSans-61" transform="translate(2163.082031 0)"/>
     <use xlink:href="#DejaVuSans-6c" transform="translate(2224.361328 0)"/>
     <use xlink:href="#DejaVuSans-20" transform="translate(2252.144531 0)"/>
     <use xlink:href="#DejaVuSans-70" transform="translate(2283.931641 0)"/>
     <use xlink:href="#DejaVuSans-65" transform="translate(2347.408203 0)"/>
     <use xlink:href="#DejaVuSans-72" transform="translate(2408.931641 0)"/>
     <use xlink:href="#DejaVuSans-20" transform="translate(2450.044922 0)"/>
     <use xlink:href="#DejaVuSans-73" transform="translate(2481.832031 0)"/>
     <use xlink:href="#DejaVuSans-69" transform="translate(2533.931641 0)"/>
     <use xlink:href="#DejaVuSans-6d" transform="translate(2561.714844 0)"/>
     <use xlink:href="#DejaVuSans-75" transform="translate(2659.126953 0)"/>
     <use xlink:href="#DejaVuSans-6c" transform="translate(2722.505859 0)"/>
     <use xlink:href="#DejaVuSans-61" transform="translate(2750.289062 0)"/>
     <use xlink:href="#DejaVuSans-74" transform="translate(2811.568359 0)"/>
     <use xlink:href="#DejaVuSans-69" transform="translate(2850.777344 0)"/>
     <use xlink:href="#DejaVuSans-6f" transform="translate(2878.560547 0)"/>
     <use xlink:href="#DejaVuSans-6e" transform="translate(2939.742188 0)"/>
     <use xlink:href="#DejaVuSans-20" transform="translate(3003.121094 0)"/>
     <use xlink:href="#DejaVuSans-73" transform="translate(3034.908203 0)"/>
     <use xlink:href="#DejaVuSans-74" transform="translate(3087.007812 0)"/>
     <use xlink:href="#DejaVuSans-65" transform="translate(3126.216797 0)"/>
     <use xlink:href="#DejaVuSans-70" transform="translate(3187.740234 0)"/>
    </g>
    <!-- Base Product: Meth, Recipe size: 8, T0: 10.0 -->
    <g transform="translate(293.881125 37.44) scale(0.14 -0.14)">
     <defs>
      <path id="DejaVuSans-42" d="M 1259 2228 
L 1259 519 
L 2272 519 
Q 2781 519 3026 730 
Q 3272 941 3272 1375 
Q 3272 1813 3026 2020 
Q 2781 2228 2272 2228 
L 1259 2228 
z
M 1259 4147 
L 1259 2741 
L 2194 2741 
Q 2656 2741 2882 2914 
Q 3109 3088 3109 3444 
Q 3109 3797 2882 3972 
Q 2656 4147 2194 4147 
L 1259 4147 
z
M 628 4666 
L 2241 4666 
Q 2963 4666 3353 4366 
Q 3744 4066 3744 3513 
Q 3744 3084 3544 2831 
Q 3344 2578 2956 2516 
Q 3422 2416 3680 2098 
Q 3938 1781 3938 1306 
Q 3938 681 3513 340 
Q 3088 0 2303 0 
L 628 0 
L 628 4666 
z
" transform="scale(0.015625)"/>
      <path id="DejaVuSans-3a" d="M 750 794 
L 1409 794 
L 1409 0 
L 750 0 
L 750 794 
z
M 750 3309 
L 1409 3309 
L 1409 2516 
L 750 2516 
L 750 3309 
z
" transform="scale(0.015625)"/>
      <path id="DejaVuSans-2c" d="M 750 794 
L 1409 794 
L 1409 256 
L 897 -744 
L 494 -744 
L 750 256 
L 750 794 
z
" transform="scale(0.015625)"/>
      <path id="DejaVuSans-52" d="M 2841 2188 
Q 3044 2119 3236 1894 
Q 3428 1669 3622 1275 
L 4263 0 
L 3584 0 
L 2988 1197 
Q 2756 1666 2539 1819 
Q 2322 1972 1947 1972 
L 1259 1972 
L 1259 0 
L 628 0 
L 628 4666 
L 2053 4666 
Q 2853 4666 3247 4331 
Q 3641 3997 3641 3322 
Q 3641 2881 3436 2590 
Q 3231 2300 2841 2188 
z
M 1259 4147 
L 1259 2491 
L 2053 2491 
Q 2509 2491 2742 2702 
Q 2975 2913 2975 3322 
Q 2975 3731 2742 3939 
Q 2509 4147 2053 4147 
L 1259 4147 
z
" transform="scale(0.015625)"/>
      <path id="DejaVuSans-7a" d="M 353 3500 
L 3084 3500 
L 3084 2975 
L 922 459 
L 3084 459 
L 3084 0 
L 275 0 
L 275 525 
L 2438 3041 
L 353 3041 
L 353 3500 
z
" transform="scale(0.015625)"/>
      <path id="DejaVuSans-38" d="M 2034 2216 
Q 1584 2216 1326 1975 
Q 1069 1734 1069 1313 
Q 1069 891 1326 650 
Q 1584 409 2034 409 
Q 2484 409 2743 651 
Q 3003 894 3003 1313 
Q 3003 1734 2745 1975 
Q 2488 2216 2034 2216 
z
M 1403 2484 
Q 997 2584 770 2862 
Q 544 3141 544 3541 
Q 544 4100 942 4425 
Q 1341 4750 2034 4750 
Q 2731 4750 3128 4425 
Q 3525 4100 3525 3541 
Q 3525 3141 3298 2862 
Q 3072 2584 2669 2484 
Q 3125 2378 3379 2068 
Q 3634 1759 3634 1313 
Q 3634 634 3220 271 
Q 2806 -91 2034 -91 
Q 1263 -91 848 271 
Q 434 634 434 1313 
Q 434 1759 690 2068 
Q 947 2378 1403 2484 
z
M 1172 3481 
Q 1172 3119 1398 2916 
Q 1625 2713 2034 2713 
Q 2441 2713 2670 2916 
Q 2900 3119 2900 3481 
Q 2900 3844 2670 4047 
Q 2441 4250 2034 4250 
Q 1625 4250 1398 4047 
Q 1172 3844 1172 3481 
z
" transform="scale(0.015625)"/>
      <path id="DejaVuSans-54" d="M -19 4666 
L 3928 4666 
L 3928 4134 
L 2272 4134 
L 2272 0 
L 1638 0 
L 1638 4134 
L -19 4134 
L -19 4666 
z
" transform="scale(0.015625)"/>
      <path id="DejaVuSans-2e" d="M 684 794 
L 1344 794 
L 1344 0 
L 684 0 
L 684 794 
z
" transform="scale(0.015625)"/>
     </defs>
     <use xlink:href="#DejaVuSans-42"/>
     <use xlink:href="#DejaVuSans-61" transform="translate(68.603516 0)"/>
     <use xlink:href="#DejaVuSans-73" transform="translate(129.882812 0)"/>
     <use xlink:href="#DejaVuSans-65" transform="translate(181.982422 0)"/>
     <use xlink:href="#DejaVuSans-20" transform="translate(243.505859 0)"/>
     <use xlink:href="#DejaVuSans-50" transform="translate(275.292969 0)"/>
     <use xlink:href="#DejaVuSans-72" transform="translate(333.845703 0)"/>
     <use xlink:href="#DejaVuSans-6f" transform="translate(372.708984 0)"/>
     <use xlink:href="#DejaVuSans-64" transform="translate(433.890625 0)"/>
     <use xlink:href="#DejaVuSans-75" transform="translate(497.367188 0)"/>
     <use xlink:href="#DejaVuSans-63" transform="translate(560.746094 0)"/>
     <use xlink:href="#DejaVuSans-74" transform="translate(615.726562 0)"/>
     <use xlink:href="#DejaVuSans-3a" transform="translate(654.935547 0)"/>
     <use xlink:href="#DejaVuSans-20" transform="translate(688.626953 0)"/>
     <use xlink:href="#DejaVuSans-4d" transform="translate(720.414062 0)"/>
     <use xlink:href="#DejaVuSans-65" transform="translate(806.693359 0)"/>
     <use xlink:href="#DejaVuSans-74" transform="translate(868.216797 0)"/>
     <use xlink:href="#DejaVuSans-68" transform="translate(907.425781 0)"/>
     <use xlink:href="#DejaVuSans-2c" transform="translate(970.804688 0)"/>
     <use xlink:href="#DejaVuSans-20" transform="translate(1002.591797 0)"/>
     <use xlink:href="#DejaVuSans-52" transform="translate(1034.378906 0)"/>
     <use xlink:href="#DejaVuSans-65" transform="translate(1099.361328 0)"/>
     <use xlink:href="#DejaVuSans-63" transform="translate(1160.884766 0)"/>
     <use xlink:href="#DejaVuSans-69" transform="translate(1215.865234 0)"/>
     <use xlink:href="#DejaVuSans-70" transform="translate(1243.648438 0)"/>
     <use xlink:href="#DejaVuSans-65" transform="translate(1307.125 0)"/>
     <use xlink:href="#DejaVuSans-20" transform="translate(1368.648438 0)"/>
     <use xlink:href="#DejaVuSans-73" transform="translate(1400.435547 0)"/>
     <use xlink:href="#DejaVuSans-69" transform="translate(1452.535156 0)"/>
     <use xlink:href="#DejaVuSans-7a" transform="translate(1480.318359 0)"/>
     <use xlink:href="#DejaVuSans-65" transform="translate(1532.808594 0)"/>
     <use xlink:href="#DejaVuSans-3a" transform="translate(1594.332031 0)"/>
     <use xlink:href="#DejaVuSans-20" transform="translate(1628.023438 0)"/>
     <use xlink:href="#DejaVuSans-38" transform="translate(1659.810547 0)"/>
     <use xlink:href="#DejaVuSans-2c" transform="translate(1723.433594 0)"/>
     <use xlink:href="#DejaVuSans-20" transform="translate(1755.220703 0)"/>
     <use xlink:href="#DejaVuSans-54" transform="translate(1787.007812 0)"/>
     <use xlink:href="#DejaVuSans-30" transform="translate(1848.091797 0)"/>
     <use xlink:href="#DejaVuSans-3a" transform="translate(1911.714844 0)"/>
     <use xlink:href="#DejaVuSans-20" transform="translate(1945.40625 0)"/>
     <use xlink:href="#DejaVuSans-31" transform="translate(1977.193359 0)"/>
     <use xlink:href="#DejaVuSans-30" transform="translate(2040.816406 0)"/>
     <use xlink:href="#DejaVuSans-2e" transform="translate(2104.439453 0)"/>
     <use xlink:href="#DejaVuSans-30" transform="translate(2136.226562 0)"/>
    </g>
   </g>
  </g>
 </g>
 <defs>
  <clipPath id="p21b7037a71">
   <rect x="50.87" y="43.44" width="793.996" height="346.6"/>
  </clipPath>
 </defs>
</svg>
