<?xml version="1.0" encoding="utf-8" standalone="no"?>
<!DOCTYPE svg PUBLIC "-//W3C//DTD SVG 1.1//EN"
  "http://www.w3.org/Graphics/SVG/1.1/DTD/svg11.dtd">
<svg xmlns:xlink="http://www.w3.org/1999/xlink" width="864pt" height="432pt" viewBox="0 0 864 432" xmlns="http://www.w3.org/2000/svg" version="1.1">
 <metadata>
  <rdf:RDF xmlns:dc="http://purl.org/dc/elements/1.1/" xmlns:cc="http://creativecommons.org/ns#" xmlns:rdf="http://www.w3.org/1999/02/22-rdf-syntax-ns#">
   <cc:Work>
    <dc:type rdf:resource="http://purl.org/dc/dcmitype/StillImage"/>
    <dc:date>2025-05-24T02:18:17.624134</dc:date>
    <dc:format>image/svg+xml</dc:format>
    <dc:creator>
     <cc:Agent>
      <dc:title>Matplotlib v3.10.3, https://matplotlib.org/</dc:title>
     </cc:Agent>
    </dc:creator>
   </cc:Work>
  </rdf:RDF>
 </metadata>
 <defs>
  <style type="text/css">*{stroke-linejoin: round; stroke-linecap: butt}</style>
 </defs>
 <g id="figure_1">
  <g id="patch_1">
   <path d="M 0 432 
L 864 432 
L 864 0 
L 0 0 
z
" style="fill: #ffffff"/>
  </g>
  <g id="axes_1">
   <g id="patch_2">
    <path d="M 50.87 390.04 
L 844.866 390.04 
L 844.866 43.44 
L 50.87 43.44 
z
" style="fill: #ffffff"/>
   </g>
   <g id="FillBetweenPolyCollection_1">
    <defs>
     <path id="m72ac075ae5" d="M 52.193327 -305.881611 
L 52.193327 -57.714545 
L 54.83998 -59.149464 
L 57.486633 -76.865712 
L 60.133287 -91.98934 
L 62.77994 -105.042156 
L 65.426593 -115.636142 
L 68.073247 -125.46596 
L 70.7199 -134.180392 
L 73.366553 -142.156362 
L 76.013207 -149.162893 
L 78.65986 -155.438453 
L 81.306513 -161.062594 
L 83.953167 -165.795517 
L 86.59982 -170.288888 
L 89.246473 -174.03606 
L 91.893127 -177.776911 
L 94.53978 -181.761381 
L 97.186433 -184.810982 
L 99.833087 -187.562302 
L 102.47974 -190.717665 
L 105.126393 -193.267516 
L 107.773047 -195.481246 
L 110.4197 -197.627362 
L 113.066353 -199.712983 
L 115.713007 -201.956397 
L 118.35966 -203.928673 
L 121.006313 -205.756594 
L 123.652967 -207.304691 
L 126.29962 -208.736062 
L 128.946273 -210.260774 
L 131.592927 -211.703837 
L 134.23958 -213.018503 
L 136.886233 -214.113024 
L 139.532887 -215.46584 
L 142.17954 -216.819452 
L 144.826193 -218.098776 
L 147.472847 -219.279852 
L 150.1195 -220.267836 
L 152.766153 -221.285393 
L 155.412807 -222.147655 
L 158.05946 -223.266201 
L 160.706113 -224.174525 
L 163.352767 -225.123122 
L 165.99942 -225.874492 
L 168.646073 -226.919701 
L 171.292727 -227.801966 
L 173.93938 -228.597321 
L 176.586033 -229.305547 
L 179.232687 -230.021044 
L 181.87934 -230.685395 
L 184.525993 -231.267921 
L 187.172647 -231.783607 
L 189.8193 -232.511747 
L 192.465953 -233.208877 
L 195.112607 -233.948268 
L 197.75926 -234.520118 
L 200.405913 -234.962687 
L 203.052567 -235.48591 
L 205.69922 -236.14489 
L 208.345873 -236.650652 
L 210.992527 -237.176571 
L 213.63918 -237.706956 
L 216.285833 -238.224277 
L 218.932487 -238.711672 
L 221.57914 -239.320455 
L 224.225793 -239.764881 
L 226.872447 -240.206544 
L 229.5191 -240.656297 
L 232.165753 -241.172115 
L 234.812407 -241.51553 
L 237.45906 -241.937787 
L 240.105713 -242.239095 
L 242.752367 -242.602337 
L 245.39902 -243.155885 
L 248.045673 -243.620712 
L 250.692327 -244.149571 
L 253.33898 -244.520483 
L 255.985633 -245.002815 
L 258.632287 -245.437317 
L 261.27894 -245.757059 
L 263.925593 -246.135817 
L 266.572247 -246.372607 
L 269.2189 -246.714297 
L 271.865553 -247.058442 
L 274.512207 -247.422191 
L 277.15886 -247.844492 
L 279.805513 -248.227118 
L 282.452167 -248.719043 
L 285.09882 -249.002824 
L 287.745473 -249.298342 
L 290.392127 -249.589306 
L 293.03878 -249.903147 
L 295.685433 -250.270411 
L 298.332087 -250.578284 
L 300.97874 -250.797436 
L 303.625393 -251.009802 
L 306.272047 -251.235872 
L 308.9187 -251.482055 
L 311.565353 -251.633351 
L 314.212007 -251.898366 
L 316.85866 -252.139687 
L 319.505313 -252.327187 
L 322.151967 -252.679311 
L 324.79862 -252.95288 
L 327.445273 -253.300826 
L 330.091927 -253.603284 
L 332.73858 -253.756834 
L 335.385233 -254.001448 
L 338.031887 -254.210742 
L 340.67854 -254.508647 
L 343.325193 -254.68483 
L 345.971847 -255.007777 
L 348.6185 -255.312998 
L 351.265153 -255.570057 
L 353.911807 -255.755545 
L 356.55846 -255.830452 
L 359.205113 -256.006989 
L 361.851767 -256.21982 
L 364.49842 -256.427721 
L 367.145073 -256.576364 
L 369.791727 -256.823542 
L 372.43838 -257.062387 
L 375.085033 -257.252916 
L 377.731687 -257.439134 
L 380.37834 -257.584881 
L 383.024993 -257.725014 
L 385.671647 -257.972745 
L 388.3183 -258.164997 
L 390.964953 -258.294344 
L 393.611607 -258.454835 
L 396.25826 -258.625912 
L 398.904913 -258.816462 
L 401.551567 -258.928061 
L 404.19822 -259.17378 
L 406.844873 -259.331087 
L 409.491527 -259.501524 
L 412.13818 -259.605673 
L 414.784833 -259.709646 
L 417.431487 -259.836274 
L 420.07814 -259.926123 
L 422.724793 -260.109092 
L 425.371447 -260.277429 
L 428.0181 -260.403726 
L 430.664753 -260.563089 
L 433.311407 -260.755717 
L 435.95806 -260.922705 
L 438.604713 -261.078421 
L 441.251367 -261.213846 
L 443.89802 -261.375419 
L 446.544673 -261.508988 
L 449.191327 -261.750265 
L 451.83798 -261.9209 
L 454.484633 -262.06846 
L 457.131287 -262.183595 
L 459.77794 -262.353059 
L 462.424593 -262.515406 
L 465.071247 -262.691722 
L 467.7179 -262.812294 
L 470.364553 -262.84273 
L 473.011207 -263.091234 
L 475.65786 -263.222349 
L 478.304513 -263.331516 
L 480.951167 -263.419906 
L 483.59782 -263.484315 
L 486.244473 -263.591205 
L 488.891127 -263.697786 
L 491.53778 -263.812677 
L 494.184433 -263.945693 
L 496.831087 -264.073957 
L 499.47774 -264.187921 
L 502.124393 -264.294037 
L 504.771047 -264.445266 
L 507.4177 -264.551228 
L 510.064353 -264.71132 
L 512.711007 -264.836092 
L 515.35766 -264.956797 
L 518.004313 -265.054382 
L 520.650967 -265.058957 
L 523.29762 -265.16556 
L 525.944273 -265.310843 
L 528.590927 -265.386281 
L 531.23758 -265.472041 
L 533.884233 -265.592812 
L 536.530887 -265.705581 
L 539.17754 -265.84945 
L 541.824193 -265.968873 
L 544.470847 -266.042697 
L 547.1175 -266.194456 
L 549.764153 -266.27752 
L 552.410807 -266.353466 
L 555.05746 -266.424814 
L 557.704113 -266.544657 
L 560.350767 -266.674579 
L 562.99742 -266.744734 
L 565.644073 -266.828504 
L 568.290727 -266.923105 
L 570.93738 -266.971113 
L 573.584033 -267.078932 
L 576.230687 -267.237101 
L 578.87734 -267.297288 
L 581.523993 -267.376129 
L 584.170647 -267.439498 
L 586.8173 -267.566281 
L 589.463953 -267.633541 
L 592.110607 -267.727192 
L 594.75726 -267.824777 
L 597.403913 -267.886002 
L 600.050567 -268.009271 
L 602.69722 -268.096998 
L 605.343873 -268.212154 
L 607.990527 -268.282884 
L 610.63718 -268.387962 
L 613.283833 -268.479314 
L 615.930487 -268.581319 
L 618.57714 -268.6715 
L 621.223793 -268.733035 
L 623.870447 -268.819192 
L 626.5171 -268.880992 
L 629.163753 -268.942549 
L 631.810407 -269.016418 
L 634.45706 -269.056225 
L 637.103713 -269.187981 
L 639.750367 -269.230242 
L 642.39702 -269.305658 
L 645.043673 -269.363767 
L 647.690327 -269.397187 
L 650.33698 -269.431579 
L 652.983633 -269.493998 
L 655.630287 -269.601286 
L 658.27694 -269.656787 
L 660.923593 -269.755256 
L 663.570247 -269.832882 
L 666.2169 -269.911348 
L 668.863553 -270.012823 
L 671.510207 -270.072611 
L 674.15686 -270.113104 
L 676.803513 -270.189139 
L 679.450167 -270.217961 
L 682.09682 -270.303455 
L 684.743473 -270.367289 
L 687.390127 -270.448761 
L 690.03678 -270.581246 
L 692.683433 -270.630912 
L 695.330087 -270.671162 
L 697.97674 -270.751838 
L 700.623393 -270.791756 
L 703.270047 -270.873426 
L 705.9167 -270.951782 
L 708.563353 -271.013317 
L 711.210007 -271.072752 
L 713.85666 -271.135414 
L 716.503313 -271.193478 
L 719.149967 -271.279725 
L 721.79662 -271.348796 
L 724.443273 -271.424698 
L 727.089927 -271.499075 
L 729.73658 -271.555239 
L 732.383233 -271.636954 
L 735.029887 -271.705982 
L 737.67654 -271.765306 
L 740.323193 -271.8077 
L 742.969847 -271.867931 
L 745.6165 -271.901063 
L 748.263153 -271.928515 
L 750.909807 -271.954552 
L 753.55646 -272.009987 
L 756.203113 -272.073003 
L 758.849767 -272.097051 
L 761.49642 -272.154364 
L 764.143073 -272.205422 
L 766.789727 -272.253054 
L 769.43638 -272.31954 
L 772.083033 -272.375018 
L 774.729687 -272.412947 
L 777.37634 -272.459784 
L 780.022993 -272.510377 
L 782.669647 -272.548129 
L 785.3163 -272.601641 
L 787.962953 -272.642156 
L 790.609607 -272.674338 
L 793.25626 -272.734171 
L 795.902913 -272.862413 
L 798.549567 -272.930269 
L 801.19622 -272.981393 
L 803.842873 -273.003518 
L 806.489527 -273.040099 
L 809.13618 -273.092793 
L 811.782833 -273.127538 
L 814.429487 -273.193207 
L 817.07614 -273.264157 
L 819.722793 -273.35005 
L 822.369447 -273.394963 
L 825.0161 -273.441954 
L 827.662753 -273.479994 
L 830.309407 -273.528023 
L 832.95606 -273.544203 
L 835.602713 -273.60198 
L 838.249367 -273.673218 
L 840.89602 -273.696603 
L 843.542673 -273.771732 
L 843.542673 -372.805455 
L 843.542673 -372.805455 
L 840.89602 -372.804128 
L 838.249367 -372.761248 
L 835.602713 -372.740737 
L 832.95606 -372.731233 
L 830.309407 -372.686319 
L 827.662753 -372.665233 
L 825.0161 -372.622618 
L 822.369447 -372.608251 
L 819.722793 -372.597465 
L 817.07614 -372.584071 
L 814.429487 -372.574389 
L 811.782833 -372.552065 
L 809.13618 -372.54181 
L 806.489527 -372.513827 
L 803.842873 -372.463388 
L 801.19622 -372.397079 
L 798.549567 -372.378733 
L 795.902913 -372.368699 
L 793.25626 -372.391641 
L 790.609607 -372.356277 
L 787.962953 -372.304158 
L 785.3163 -372.262648 
L 782.669647 -372.233163 
L 780.022993 -372.17649 
L 777.37634 -372.139623 
L 774.729687 -372.111684 
L 772.083033 -372.02062 
L 769.43638 -371.981188 
L 766.789727 -371.957803 
L 764.143073 -371.907187 
L 761.49642 -371.859135 
L 758.849767 -371.80096 
L 756.203113 -371.745393 
L 753.55646 -371.719621 
L 750.909807 -371.668253 
L 748.263153 -371.593236 
L 745.6165 -371.53033 
L 742.969847 -371.458849 
L 740.323193 -371.421937 
L 737.67654 -371.39254 
L 735.029887 -371.374769 
L 732.383233 -371.359032 
L 729.73658 -371.330917 
L 727.089927 -371.304128 
L 724.443273 -371.259612 
L 721.79662 -371.223938 
L 719.149967 -371.186274 
L 716.503313 -371.187203 
L 713.85666 -371.159883 
L 711.210007 -371.130531 
L 708.563353 -371.103211 
L 705.9167 -371.067935 
L 703.270047 -371.05958 
L 700.623393 -371.022402 
L 697.97674 -370.955961 
L 695.330087 -370.925768 
L 692.683433 -370.874356 
L 690.03678 -370.846374 
L 687.390127 -370.857912 
L 684.743473 -370.848054 
L 682.09682 -370.795714 
L 679.450167 -370.764769 
L 676.803513 -370.697311 
L 674.15686 -370.642672 
L 671.510207 -370.578839 
L 668.863553 -370.499489 
L 666.2169 -370.487155 
L 663.570247 -370.469429 
L 660.923593 -370.392245 
L 658.27694 -370.371645 
L 655.630287 -370.289377 
L 652.983633 -370.259715 
L 650.33698 -370.200214 
L 647.690327 -370.111094 
L 645.043673 -370.027898 
L 642.39702 -369.960528 
L 639.750367 -369.90474 
L 637.103713 -369.835602 
L 634.45706 -369.806824 
L 631.810407 -369.710587 
L 629.163753 -369.61687 
L 626.5171 -369.561038 
L 623.870447 -369.498 
L 621.223793 -369.434122 
L 618.57714 -369.40477 
L 615.930487 -369.338284 
L 613.283833 -369.281258 
L 610.63718 -369.247661 
L 607.990527 -369.238953 
L 605.343873 -369.175561 
L 602.69722 -369.145191 
L 600.050567 -369.118403 
L 597.403913 -369.113054 
L 594.75726 -369.036444 
L 592.110607 -368.999135 
L 589.463953 -368.981187 
L 586.8173 -368.932649 
L 584.170647 -368.892686 
L 581.523993 -368.819437 
L 578.87734 -368.788448 
L 576.230687 -368.723112 
L 573.584033 -368.752023 
L 570.93738 -368.700611 
L 568.290727 -368.628643 
L 565.644073 -368.570115 
L 562.99742 -368.510127 
L 560.350767 -368.451289 
L 557.704113 -368.417117 
L 555.05746 -368.337679 
L 552.410807 -368.29029 
L 549.764153 -368.203823 
L 547.1175 -368.134552 
L 544.470847 -368.097817 
L 541.824193 -368.015152 
L 539.17754 -367.970238 
L 536.530887 -367.927712 
L 533.884233 -367.907775 
L 531.23758 -367.821573 
L 528.590927 -367.756502 
L 525.944273 -367.678345 
L 523.29762 -367.633034 
L 520.650967 -367.586397 
L 518.004313 -367.440959 
L 515.35766 -367.373058 
L 512.711007 -367.265107 
L 510.064353 -367.16834 
L 507.4177 -367.135053 
L 504.771047 -367.06976 
L 502.124393 -367.020029 
L 499.47774 -366.954736 
L 496.831087 -366.892052 
L 494.184433 -366.8379 
L 491.53778 -366.800634 
L 488.891127 -366.753554 
L 486.244473 -366.675796 
L 483.59782 -366.620008 
L 480.951167 -366.455252 
L 478.304513 -366.343322 
L 475.65786 -366.277499 
L 473.011207 -366.221181 
L 470.364553 -366.256059 
L 467.7179 -366.155667 
L 465.071247 -366.085954 
L 462.424593 -366.025082 
L 459.77794 -365.970399 
L 457.131287 -365.926326 
L 454.484633 -365.809224 
L 451.83798 -365.72815 
L 449.191327 -365.700787 
L 446.544673 -365.696941 
L 443.89802 -365.635538 
L 441.251367 -365.575904 
L 438.604713 -365.474761 
L 435.95806 -365.419061 
L 433.311407 -365.323576 
L 430.664753 -365.234501 
L 428.0181 -365.195732 
L 425.371447 -365.082432 
L 422.724793 -365.028324 
L 420.07814 -364.964358 
L 417.431487 -364.819229 
L 414.784833 -364.698104 
L 412.13818 -364.56363 
L 409.491527 -364.413771 
L 406.844873 -364.309754 
L 404.19822 -364.244815 
L 401.551567 -364.159807 
L 398.904913 -364.008534 
L 396.25826 -363.934665 
L 393.611607 -363.805097 
L 390.964953 -363.682249 
L 388.3183 -363.537341 
L 385.671647 -363.427401 
L 383.024993 -363.38682 
L 380.37834 -363.27489 
L 377.731687 -363.155136 
L 375.085033 -363.069508 
L 372.43838 -362.943919 
L 369.791727 -362.870272 
L 367.145073 -362.738228 
L 364.49842 -362.585629 
L 361.851767 -362.462559 
L 359.205113 -362.322249 
L 356.55846 -362.170268 
L 353.911807 -361.968689 
L 351.265153 -361.855123 
L 348.6185 -361.792925 
L 345.971847 -361.728384 
L 343.325193 -361.682145 
L 340.67854 -361.52318 
L 338.031887 -361.46023 
L 335.385233 -361.37173 
L 332.73858 -361.253921 
L 330.091927 -361.091552 
L 327.445273 -360.9939 
L 324.79862 -360.940102 
L 322.151967 -360.849435 
L 319.505313 -360.798244 
L 316.85866 -360.611916 
L 314.212007 -360.498925 
L 311.565353 -360.404324 
L 308.9187 -360.228074 
L 306.272047 -360.077995 
L 303.625393 -359.934192 
L 300.97874 -359.755069 
L 298.332087 -359.473344 
L 295.685433 -359.305847 
L 293.03878 -359.202051 
L 290.392127 -359.096355 
L 287.745473 -358.968864 
L 285.09882 -358.757206 
L 282.452167 -358.624411 
L 279.805513 -358.6016 
L 277.15886 -358.439983 
L 274.512207 -358.393832 
L 271.865553 -358.273635 
L 269.2189 -358.046416 
L 266.572247 -357.881925 
L 263.925593 -357.591801 
L 261.27894 -357.438052 
L 258.632287 -357.165875 
L 255.985633 -357.032019 
L 253.33898 -356.918012 
L 250.692327 -356.648045 
L 248.045673 -356.571657 
L 245.39902 -356.435281 
L 242.752367 -356.355136 
L 240.105713 -356.17672 
L 237.45906 -355.902377 
L 234.812407 -355.645982 
L 232.165753 -355.341888 
L 229.5191 -355.166081 
L 226.872447 -354.989522 
L 224.225793 -354.752533 
L 221.57914 -354.566912 
L 218.932487 -354.456706 
L 216.285833 -354.177412 
L 213.63918 -354.024813 
L 210.992527 -353.799141 
L 208.345873 -353.598533 
L 205.69922 -353.249084 
L 203.052567 -353.158064 
L 200.405913 -352.821302 
L 197.75926 -352.489403 
L 195.112607 -352.210551 
L 192.465953 -352.027007 
L 189.8193 -351.822687 
L 187.172647 -351.635828 
L 184.525993 -351.244781 
L 181.87934 -350.904969 
L 179.232687 -350.448187 
L 176.586033 -350.19913 
L 173.93938 -349.779394 
L 171.292727 -349.541211 
L 168.646073 -349.267443 
L 165.99942 -349.060912 
L 163.352767 -348.741877 
L 160.706113 -348.51037 
L 158.05946 -348.136431 
L 155.412807 -347.949395 
L 152.766153 -347.451944 
L 150.1195 -347.071462 
L 147.472847 -346.705834 
L 144.826193 -346.468314 
L 142.17954 -346.183981 
L 139.532887 -345.850269 
L 136.886233 -345.575086 
L 134.23958 -345.019814 
L 131.592927 -344.437929 
L 128.946273 -344.035521 
L 126.29962 -343.593195 
L 123.652967 -343.073862 
L 121.006313 -342.554618 
L 118.35966 -341.932682 
L 115.713007 -341.489605 
L 113.066353 -341.156866 
L 110.4197 -340.468975 
L 107.773047 -339.819411 
L 105.126393 -339.164763 
L 102.47974 -338.713861 
L 99.833087 -338.522139 
L 97.186433 -337.812455 
L 94.53978 -337.138534 
L 91.893127 -336.6543 
L 89.246473 -335.739234 
L 86.59982 -334.622766 
L 83.953167 -333.661372 
L 81.306513 -332.670935 
L 78.65986 -332.014651 
L 76.013207 -331.142068 
L 73.366553 -330.136512 
L 70.7199 -328.885171 
L 68.073247 -327.303035 
L 65.426593 -325.534925 
L 62.77994 -322.362785 
L 60.133287 -319.022132 
L 57.486633 -313.782651 
L 54.83998 -307.080126 
L 52.193327 -305.881611 
z
" style="stroke: #0000ff; stroke-opacity: 0.2"/>
    </defs>
    <g clip-path="url(#p74387d7c86)">
     <use xlink:href="#m72ac075ae5" x="0" y="432" style="fill: #0000ff; fill-opacity: 0.2; stroke: #0000ff; stroke-opacity: 0.2"/>
    </g>
   </g>
   <g id="matplotlib.axis_1">
    <g id="xtick_1">
     <g id="line2d_1">
      <defs>
       <path id="ma088a21d96" d="M 0 0 
L 0 3.5 
" style="stroke: #000000; stroke-width: 0.8"/>
      </defs>
      <g>
       <use xlink:href="#ma088a21d96" x="181.87934" y="390.04" style="stroke: #000000; stroke-width: 0.8"/>
      </g>
     </g>
     <g id="text_1">
      <!-- 50 -->
      <g transform="translate(175.51684 404.638438) scale(0.1 -0.1)">
       <defs>
        <path id="DejaVuSans-35" d="M 691 4666 
L 3169 4666 
L 3169 4134 
L 1269 4134 
L 1269 2991 
Q 1406 3038 1543 3061 
Q 1681 3084 1819 3084 
Q 2600 3084 3056 2656 
Q 3513 2228 3513 1497 
Q 3513 744 3044 326 
Q 2575 -91 1722 -91 
Q 1428 -91 1123 -41 
Q 819 9 494 109 
L 494 744 
Q 775 591 1075 516 
Q 1375 441 1709 441 
Q 2250 441 2565 725 
Q 2881 1009 2881 1497 
Q 2881 1984 2565 2268 
Q 2250 2553 1709 2553 
Q 1456 2553 1204 2497 
Q 953 2441 691 2322 
L 691 4666 
z
" transform="scale(0.015625)"/>
        <path id="DejaVuSans-30" d="M 2034 4250 
Q 1547 4250 1301 3770 
Q 1056 3291 1056 2328 
Q 1056 1369 1301 889 
Q 1547 409 2034 409 
Q 2525 409 2770 889 
Q 3016 1369 3016 2328 
Q 3016 3291 2770 3770 
Q 2525 4250 2034 4250 
z
M 2034 4750 
Q 2819 4750 3233 4129 
Q 3647 3509 3647 2328 
Q 3647 1150 3233 529 
Q 2819 -91 2034 -91 
Q 1250 -91 836 529 
Q 422 1150 422 2328 
Q 422 3509 836 4129 
Q 1250 4750 2034 4750 
z
" transform="scale(0.015625)"/>
       </defs>
       <use xlink:href="#DejaVuSans-35"/>
       <use xlink:href="#DejaVuSans-30" transform="translate(63.623047 0)"/>
      </g>
     </g>
    </g>
    <g id="xtick_2">
     <g id="line2d_2">
      <g>
       <use xlink:href="#ma088a21d96" x="314.212007" y="390.04" style="stroke: #000000; stroke-width: 0.8"/>
      </g>
     </g>
     <g id="text_2">
      <!-- 100 -->
      <g transform="translate(304.668257 404.638438) scale(0.1 -0.1)">
       <defs>
        <path id="DejaVuSans-31" d="M 794 531 
L 1825 531 
L 1825 4091 
L 703 3866 
L 703 4441 
L 1819 4666 
L 2450 4666 
L 2450 531 
L 3481 531 
L 3481 0 
L 794 0 
L 794 531 
z
" transform="scale(0.015625)"/>
       </defs>
       <use xlink:href="#DejaVuSans-31"/>
       <use xlink:href="#DejaVuSans-30" transform="translate(63.623047 0)"/>
       <use xlink:href="#DejaVuSans-30" transform="translate(127.246094 0)"/>
      </g>
     </g>
    </g>
    <g id="xtick_3">
     <g id="line2d_3">
      <g>
       <use xlink:href="#ma088a21d96" x="446.544673" y="390.04" style="stroke: #000000; stroke-width: 0.8"/>
      </g>
     </g>
     <g id="text_3">
      <!-- 150 -->
      <g transform="translate(437.000923 404.638438) scale(0.1 -0.1)">
       <use xlink:href="#DejaVuSans-31"/>
       <use xlink:href="#DejaVuSans-35" transform="translate(63.623047 0)"/>
       <use xlink:href="#DejaVuSans-30" transform="translate(127.246094 0)"/>
      </g>
     </g>
    </g>
    <g id="xtick_4">
     <g id="line2d_4">
      <g>
       <use xlink:href="#ma088a21d96" x="578.87734" y="390.04" style="stroke: #000000; stroke-width: 0.8"/>
      </g>
     </g>
     <g id="text_4">
      <!-- 200 -->
      <g transform="translate(569.33359 404.638438) scale(0.1 -0.1)">
       <defs>
        <path id="DejaVuSans-32" d="M 1228 531 
L 3431 531 
L 3431 0 
L 469 0 
L 469 531 
Q 828 903 1448 1529 
Q 2069 2156 2228 2338 
Q 2531 2678 2651 2914 
Q 2772 3150 2772 3378 
Q 2772 3750 2511 3984 
Q 2250 4219 1831 4219 
Q 1534 4219 1204 4116 
Q 875 4013 500 3803 
L 500 4441 
Q 881 4594 1212 4672 
Q 1544 4750 1819 4750 
Q 2544 4750 2975 4387 
Q 3406 4025 3406 3419 
Q 3406 3131 3298 2873 
Q 3191 2616 2906 2266 
Q 2828 2175 2409 1742 
Q 1991 1309 1228 531 
z
" transform="scale(0.015625)"/>
       </defs>
       <use xlink:href="#DejaVuSans-32"/>
       <use xlink:href="#DejaVuSans-30" transform="translate(63.623047 0)"/>
       <use xlink:href="#DejaVuSans-30" transform="translate(127.246094 0)"/>
      </g>
     </g>
    </g>
    <g id="xtick_5">
     <g id="line2d_5">
      <g>
       <use xlink:href="#ma088a21d96" x="711.210007" y="390.04" style="stroke: #000000; stroke-width: 0.8"/>
      </g>
     </g>
     <g id="text_5">
      <!-- 250 -->
      <g transform="translate(701.666257 404.638438) scale(0.1 -0.1)">
       <use xlink:href="#DejaVuSans-32"/>
       <use xlink:href="#DejaVuSans-35" transform="translate(63.623047 0)"/>
       <use xlink:href="#DejaVuSans-30" transform="translate(127.246094 0)"/>
      </g>
     </g>
    </g>
    <g id="xtick_6">
     <g id="line2d_6">
      <g>
       <use xlink:href="#ma088a21d96" x="843.542673" y="390.04" style="stroke: #000000; stroke-width: 0.8"/>
      </g>
     </g>
     <g id="text_6">
      <!-- 300 -->
      <g transform="translate(833.998923 404.638438) scale(0.1 -0.1)">
       <defs>
        <path id="DejaVuSans-33" d="M 2597 2516 
Q 3050 2419 3304 2112 
Q 3559 1806 3559 1356 
Q 3559 666 3084 287 
Q 2609 -91 1734 -91 
Q 1441 -91 1130 -33 
Q 819 25 488 141 
L 488 750 
Q 750 597 1062 519 
Q 1375 441 1716 441 
Q 2309 441 2620 675 
Q 2931 909 2931 1356 
Q 2931 1769 2642 2001 
Q 2353 2234 1838 2234 
L 1294 2234 
L 1294 2753 
L 1863 2753 
Q 2328 2753 2575 2939 
Q 2822 3125 2822 3475 
Q 2822 3834 2567 4026 
Q 2313 4219 1838 4219 
Q 1578 4219 1281 4162 
Q 984 4106 628 3988 
L 628 4550 
Q 988 4650 1302 4700 
Q 1616 4750 1894 4750 
Q 2613 4750 3031 4423 
Q 3450 4097 3450 3541 
Q 3450 3153 3228 2886 
Q 3006 2619 2597 2516 
z
" transform="scale(0.015625)"/>
       </defs>
       <use xlink:href="#DejaVuSans-33"/>
       <use xlink:href="#DejaVuSans-30" transform="translate(63.623047 0)"/>
       <use xlink:href="#DejaVuSans-30" transform="translate(127.246094 0)"/>
      </g>
     </g>
    </g>
    <g id="text_7">
     <!-- Step -->
     <g transform="translate(436.482844 418.316562) scale(0.1 -0.1)">
      <defs>
       <path id="DejaVuSans-53" d="M 3425 4513 
L 3425 3897 
Q 3066 4069 2747 4153 
Q 2428 4238 2131 4238 
Q 1616 4238 1336 4038 
Q 1056 3838 1056 3469 
Q 1056 3159 1242 3001 
Q 1428 2844 1947 2747 
L 2328 2669 
Q 3034 2534 3370 2195 
Q 3706 1856 3706 1288 
Q 3706 609 3251 259 
Q 2797 -91 1919 -91 
Q 1588 -91 1214 -16 
Q 841 59 441 206 
L 441 856 
Q 825 641 1194 531 
Q 1563 422 1919 422 
Q 2459 422 2753 634 
Q 3047 847 3047 1241 
Q 3047 1584 2836 1778 
Q 2625 1972 2144 2069 
L 1759 2144 
Q 1053 2284 737 2584 
Q 422 2884 422 3419 
Q 422 4038 858 4394 
Q 1294 4750 2059 4750 
Q 2388 4750 2728 4690 
Q 3069 4631 3425 4513 
z
" transform="scale(0.015625)"/>
       <path id="DejaVuSans-74" d="M 1172 4494 
L 1172 3500 
L 2356 3500 
L 2356 3053 
L 1172 3053 
L 1172 1153 
Q 1172 725 1289 603 
Q 1406 481 1766 481 
L 2356 481 
L 2356 0 
L 1766 0 
Q 1100 0 847 248 
Q 594 497 594 1153 
L 594 3053 
L 172 3053 
L 172 3500 
L 594 3500 
L 594 4494 
L 1172 4494 
z
" transform="scale(0.015625)"/>
       <path id="DejaVuSans-65" d="M 3597 1894 
L 3597 1613 
L 953 1613 
Q 991 1019 1311 708 
Q 1631 397 2203 397 
Q 2534 397 2845 478 
Q 3156 559 3463 722 
L 3463 178 
Q 3153 47 2828 -22 
Q 2503 -91 2169 -91 
Q 1331 -91 842 396 
Q 353 884 353 1716 
Q 353 2575 817 3079 
Q 1281 3584 2069 3584 
Q 2775 3584 3186 3129 
Q 3597 2675 3597 1894 
z
M 3022 2063 
Q 3016 2534 2758 2815 
Q 2500 3097 2075 3097 
Q 1594 3097 1305 2825 
Q 1016 2553 972 2059 
L 3022 2063 
z
" transform="scale(0.015625)"/>
       <path id="DejaVuSans-70" d="M 1159 525 
L 1159 -1331 
L 581 -1331 
L 581 3500 
L 1159 3500 
L 1159 2969 
Q 1341 3281 1617 3432 
Q 1894 3584 2278 3584 
Q 2916 3584 3314 3078 
Q 3713 2572 3713 1747 
Q 3713 922 3314 415 
Q 2916 -91 2278 -91 
Q 1894 -91 1617 61 
Q 1341 213 1159 525 
z
M 3116 1747 
Q 3116 2381 2855 2742 
Q 2594 3103 2138 3103 
Q 1681 3103 1420 2742 
Q 1159 2381 1159 1747 
Q 1159 1113 1420 752 
Q 1681 391 2138 391 
Q 2594 391 2855 752 
Q 3116 1113 3116 1747 
z
" transform="scale(0.015625)"/>
      </defs>
      <use xlink:href="#DejaVuSans-53"/>
      <use xlink:href="#DejaVuSans-74" transform="translate(63.476562 0)"/>
      <use xlink:href="#DejaVuSans-65" transform="translate(102.685547 0)"/>
      <use xlink:href="#DejaVuSans-70" transform="translate(164.208984 0)"/>
     </g>
    </g>
   </g>
   <g id="matplotlib.axis_2">
    <g id="ytick_1">
     <g id="line2d_7">
      <defs>
       <path id="m50805ceaab" d="M 0 0 
L -3.5 0 
" style="stroke: #000000; stroke-width: 0.8"/>
      </defs>
      <g>
       <use xlink:href="#m50805ceaab" x="50.87" y="348.39936" style="stroke: #000000; stroke-width: 0.8"/>
      </g>
     </g>
     <g id="text_8">
      <!-- 100 -->
      <g transform="translate(24.7825 352.198579) scale(0.1 -0.1)">
       <use xlink:href="#DejaVuSans-31"/>
       <use xlink:href="#DejaVuSans-30" transform="translate(63.623047 0)"/>
       <use xlink:href="#DejaVuSans-30" transform="translate(127.246094 0)"/>
      </g>
     </g>
    </g>
    <g id="ytick_2">
     <g id="line2d_8">
      <g>
       <use xlink:href="#m50805ceaab" x="50.87" y="275.972125" style="stroke: #000000; stroke-width: 0.8"/>
      </g>
     </g>
     <g id="text_9">
      <!-- 150 -->
      <g transform="translate(24.7825 279.771344) scale(0.1 -0.1)">
       <use xlink:href="#DejaVuSans-31"/>
       <use xlink:href="#DejaVuSans-35" transform="translate(63.623047 0)"/>
       <use xlink:href="#DejaVuSans-30" transform="translate(127.246094 0)"/>
      </g>
     </g>
    </g>
    <g id="ytick_3">
     <g id="line2d_9">
      <g>
       <use xlink:href="#m50805ceaab" x="50.87" y="203.54489" style="stroke: #000000; stroke-width: 0.8"/>
      </g>
     </g>
     <g id="text_10">
      <!-- 200 -->
      <g transform="translate(24.7825 207.344108) scale(0.1 -0.1)">
       <use xlink:href="#DejaVuSans-32"/>
       <use xlink:href="#DejaVuSans-30" transform="translate(63.623047 0)"/>
       <use xlink:href="#DejaVuSans-30" transform="translate(127.246094 0)"/>
      </g>
     </g>
    </g>
    <g id="ytick_4">
     <g id="line2d_10">
      <g>
       <use xlink:href="#m50805ceaab" x="50.87" y="131.117655" style="stroke: #000000; stroke-width: 0.8"/>
      </g>
     </g>
     <g id="text_11">
      <!-- 250 -->
      <g transform="translate(24.7825 134.916873) scale(0.1 -0.1)">
       <use xlink:href="#DejaVuSans-32"/>
       <use xlink:href="#DejaVuSans-35" transform="translate(63.623047 0)"/>
       <use xlink:href="#DejaVuSans-30" transform="translate(127.246094 0)"/>
      </g>
     </g>
    </g>
    <g id="ytick_5">
     <g id="line2d_11">
      <g>
       <use xlink:href="#m50805ceaab" x="50.87" y="58.690419" style="stroke: #000000; stroke-width: 0.8"/>
      </g>
     </g>
     <g id="text_12">
      <!-- 300 -->
      <g transform="translate(24.7825 62.489638) scale(0.1 -0.1)">
       <use xlink:href="#DejaVuSans-33"/>
       <use xlink:href="#DejaVuSans-30" transform="translate(63.623047 0)"/>
       <use xlink:href="#DejaVuSans-30" transform="translate(127.246094 0)"/>
      </g>
     </g>
    </g>
    <g id="text_13">
     <!-- Profit -->
     <g transform="translate(18.702813 229.779063) rotate(-90) scale(0.1 -0.1)">
      <defs>
       <path id="DejaVuSans-50" d="M 1259 4147 
L 1259 2394 
L 2053 2394 
Q 2494 2394 2734 2622 
Q 2975 2850 2975 3272 
Q 2975 3691 2734 3919 
Q 2494 4147 2053 4147 
L 1259 4147 
z
M 628 4666 
L 2053 4666 
Q 2838 4666 3239 4311 
Q 3641 3956 3641 3272 
Q 3641 2581 3239 2228 
Q 2838 1875 2053 1875 
L 1259 1875 
L 1259 0 
L 628 0 
L 628 4666 
z
" transform="scale(0.015625)"/>
       <path id="DejaVuSans-72" d="M 2631 2963 
Q 2534 3019 2420 3045 
Q 2306 3072 2169 3072 
Q 1681 3072 1420 2755 
Q 1159 2438 1159 1844 
L 1159 0 
L 581 0 
L 581 3500 
L 1159 3500 
L 1159 2956 
Q 1341 3275 1631 3429 
Q 1922 3584 2338 3584 
Q 2397 3584 2469 3576 
Q 2541 3569 2628 3553 
L 2631 2963 
z
" transform="scale(0.015625)"/>
       <path id="DejaVuSans-6f" d="M 1959 3097 
Q 1497 3097 1228 2736 
Q 959 2375 959 1747 
Q 959 1119 1226 758 
Q 1494 397 1959 397 
Q 2419 397 2687 759 
Q 2956 1122 2956 1747 
Q 2956 2369 2687 2733 
Q 2419 3097 1959 3097 
z
M 1959 3584 
Q 2709 3584 3137 3096 
Q 3566 2609 3566 1747 
Q 3566 888 3137 398 
Q 2709 -91 1959 -91 
Q 1206 -91 779 398 
Q 353 888 353 1747 
Q 353 2609 779 3096 
Q 1206 3584 1959 3584 
z
" transform="scale(0.015625)"/>
       <path id="DejaVuSans-66" d="M 2375 4863 
L 2375 4384 
L 1825 4384 
Q 1516 4384 1395 4259 
Q 1275 4134 1275 3809 
L 1275 3500 
L 2222 3500 
L 2222 3053 
L 1275 3053 
L 1275 0 
L 697 0 
L 697 3053 
L 147 3053 
L 147 3500 
L 697 3500 
L 697 3744 
Q 697 4328 969 4595 
Q 1241 4863 1831 4863 
L 2375 4863 
z
" transform="scale(0.015625)"/>
       <path id="DejaVuSans-69" d="M 603 3500 
L 1178 3500 
L 1178 0 
L 603 0 
L 603 3500 
z
M 603 4863 
L 1178 4863 
L 1178 4134 
L 603 4134 
L 603 4863 
z
" transform="scale(0.015625)"/>
      </defs>
      <use xlink:href="#DejaVuSans-50"/>
      <use xlink:href="#DejaVuSans-72" transform="translate(58.552734 0)"/>
      <use xlink:href="#DejaVuSans-6f" transform="translate(97.416016 0)"/>
      <use xlink:href="#DejaVuSans-66" transform="translate(158.597656 0)"/>
      <use xlink:href="#DejaVuSans-69" transform="translate(193.802734 0)"/>
      <use xlink:href="#DejaVuSans-74" transform="translate(221.585938 0)"/>
     </g>
    </g>
   </g>
   <g id="line2d_12">
    <path d="M 52.193327 250.201927 
L 54.83998 248.885205 
L 57.486633 236.675819 
L 60.133287 226.494275 
L 62.77994 218.29754 
L 65.426593 211.414455 
L 68.073247 205.615502 
L 70.7199 200.467218 
L 73.366553 195.853563 
L 76.013207 191.84752 
L 78.65986 188.273436 
L 81.306513 185.133236 
L 86.59982 179.544173 
L 91.893127 174.784394 
L 94.53978 172.550043 
L 99.833087 168.957768 
L 102.47974 167.284237 
L 107.773047 164.349661 
L 115.713007 160.276999 
L 121.006313 157.844383 
L 128.946273 154.851853 
L 136.886233 152.155945 
L 147.472847 149.007146 
L 160.706113 145.657541 
L 173.93938 142.811643 
L 181.87934 141.204818 
L 197.75926 138.495229 
L 221.57914 135.056327 
L 261.27894 130.402444 
L 282.452167 128.328273 
L 298.332087 126.974197 
L 303.625393 126.528003 
L 351.265153 123.28741 
L 414.784833 119.796125 
L 449.191327 118.274463 
L 525.944273 115.505395 
L 605.343873 113.306142 
L 684.743473 111.392329 
L 843.542673 108.711407 
L 843.542673 108.711407 
" clip-path="url(#p74387d7c86)" style="fill: none; stroke: #0000ff; stroke-width: 1.5; stroke-linecap: square"/>
   </g>
   <g id="patch_3">
    <path d="M 50.87 390.04 
L 50.87 43.44 
" style="fill: none; stroke: #000000; stroke-width: 0.8; stroke-linejoin: miter; stroke-linecap: square"/>
   </g>
   <g id="patch_4">
    <path d="M 844.866 390.04 
L 844.866 43.44 
" style="fill: none; stroke: #000000; stroke-width: 0.8; stroke-linejoin: miter; stroke-linecap: square"/>
   </g>
   <g id="patch_5">
    <path d="M 50.87 390.04 
L 844.866 390.04 
" style="fill: none; stroke: #000000; stroke-width: 0.8; stroke-linejoin: miter; stroke-linecap: square"/>
   </g>
   <g id="patch_6">
    <path d="M 50.87 43.44 
L 844.866 43.44 
" style="fill: none; stroke: #000000; stroke-width: 0.8; stroke-linejoin: miter; stroke-linecap: square"/>
   </g>
   <g id="text_14">
    <!-- Mean profit per step with confidence interval per simulation step -->
    <g transform="translate(220.284875 21.763062) scale(0.14 -0.14)">
     <defs>
      <path id="DejaVuSans-4d" d="M 628 4666 
L 1569 4666 
L 2759 1491 
L 3956 4666 
L 4897 4666 
L 4897 0 
L 4281 0 
L 4281 4097 
L 3078 897 
L 2444 897 
L 1241 4097 
L 1241 0 
L 628 0 
L 628 4666 
z
" transform="scale(0.015625)"/>
      <path id="DejaVuSans-61" d="M 2194 1759 
Q 1497 1759 1228 1600 
Q 959 1441 959 1056 
Q 959 750 1161 570 
Q 1363 391 1709 391 
Q 2188 391 2477 730 
Q 2766 1069 2766 1631 
L 2766 1759 
L 2194 1759 
z
M 3341 1997 
L 3341 0 
L 2766 0 
L 2766 531 
Q 2569 213 2275 61 
Q 1981 -91 1556 -91 
Q 1019 -91 701 211 
Q 384 513 384 1019 
Q 384 1609 779 1909 
Q 1175 2209 1959 2209 
L 2766 2209 
L 2766 2266 
Q 2766 2663 2505 2880 
Q 2244 3097 1772 3097 
Q 1472 3097 1187 3025 
Q 903 2953 641 2809 
L 641 3341 
Q 956 3463 1253 3523 
Q 1550 3584 1831 3584 
Q 2591 3584 2966 3190 
Q 3341 2797 3341 1997 
z
" transform="scale(0.015625)"/>
      <path id="DejaVuSans-6e" d="M 3513 2113 
L 3513 0 
L 2938 0 
L 2938 2094 
Q 2938 2591 2744 2837 
Q 2550 3084 2163 3084 
Q 1697 3084 1428 2787 
Q 1159 2491 1159 1978 
L 1159 0 
L 581 0 
L 581 3500 
L 1159 3500 
L 1159 2956 
Q 1366 3272 1645 3428 
Q 1925 3584 2291 3584 
Q 2894 3584 3203 3211 
Q 3513 2838 3513 2113 
z
" transform="scale(0.015625)"/>
      <path id="DejaVuSans-20" transform="scale(0.015625)"/>
      <path id="DejaVuSans-73" d="M 2834 3397 
L 2834 2853 
Q 2591 2978 2328 3040 
Q 2066 3103 1784 3103 
Q 1356 3103 1142 2972 
Q 928 2841 928 2578 
Q 928 2378 1081 2264 
Q 1234 2150 1697 2047 
L 1894 2003 
Q 2506 1872 2764 1633 
Q 3022 1394 3022 966 
Q 3022 478 2636 193 
Q 2250 -91 1575 -91 
Q 1294 -91 989 -36 
Q 684 19 347 128 
L 347 722 
Q 666 556 975 473 
Q 1284 391 1588 391 
Q 1994 391 2212 530 
Q 2431 669 2431 922 
Q 2431 1156 2273 1281 
Q 2116 1406 1581 1522 
L 1381 1569 
Q 847 1681 609 1914 
Q 372 2147 372 2553 
Q 372 3047 722 3315 
Q 1072 3584 1716 3584 
Q 2034 3584 2315 3537 
Q 2597 3491 2834 3397 
z
" transform="scale(0.015625)"/>
      <path id="DejaVuSans-77" d="M 269 3500 
L 844 3500 
L 1563 769 
L 2278 3500 
L 2956 3500 
L 3675 769 
L 4391 3500 
L 4966 3500 
L 4050 0 
L 3372 0 
L 2619 2869 
L 1863 0 
L 1184 0 
L 269 3500 
z
" transform="scale(0.015625)"/>
      <path id="DejaVuSans-68" d="M 3513 2113 
L 3513 0 
L 2938 0 
L 2938 2094 
Q 2938 2591 2744 2837 
Q 2550 3084 2163 3084 
Q 1697 3084 1428 2787 
Q 1159 2491 1159 1978 
L 1159 0 
L 581 0 
L 581 4863 
L 1159 4863 
L 1159 2956 
Q 1366 3272 1645 3428 
Q 1925 3584 2291 3584 
Q 2894 3584 3203 3211 
Q 3513 2838 3513 2113 
z
" transform="scale(0.015625)"/>
      <path id="DejaVuSans-63" d="M 3122 3366 
L 3122 2828 
Q 2878 2963 2633 3030 
Q 2388 3097 2138 3097 
Q 1578 3097 1268 2742 
Q 959 2388 959 1747 
Q 959 1106 1268 751 
Q 1578 397 2138 397 
Q 2388 397 2633 464 
Q 2878 531 3122 666 
L 3122 134 
Q 2881 22 2623 -34 
Q 2366 -91 2075 -91 
Q 1284 -91 818 406 
Q 353 903 353 1747 
Q 353 2603 823 3093 
Q 1294 3584 2113 3584 
Q 2378 3584 2631 3529 
Q 2884 3475 3122 3366 
z
" transform="scale(0.015625)"/>
      <path id="DejaVuSans-64" d="M 2906 2969 
L 2906 4863 
L 3481 4863 
L 3481 0 
L 2906 0 
L 2906 525 
Q 2725 213 2448 61 
Q 2172 -91 1784 -91 
Q 1150 -91 751 415 
Q 353 922 353 1747 
Q 353 2572 751 3078 
Q 1150 3584 1784 3584 
Q 2172 3584 2448 3432 
Q 2725 3281 2906 2969 
z
M 947 1747 
Q 947 1113 1208 752 
Q 1469 391 1925 391 
Q 2381 391 2643 752 
Q 2906 1113 2906 1747 
Q 2906 2381 2643 2742 
Q 2381 3103 1925 3103 
Q 1469 3103 1208 2742 
Q 947 2381 947 1747 
z
" transform="scale(0.015625)"/>
      <path id="DejaVuSans-76" d="M 191 3500 
L 800 3500 
L 1894 563 
L 2988 3500 
L 3597 3500 
L 2284 0 
L 1503 0 
L 191 3500 
z
" transform="scale(0.015625)"/>
      <path id="DejaVuSans-6c" d="M 603 4863 
L 1178 4863 
L 1178 0 
L 603 0 
L 603 4863 
z
" transform="scale(0.015625)"/>
      <path id="DejaVuSans-6d" d="M 3328 2828 
Q 3544 3216 3844 3400 
Q 4144 3584 4550 3584 
Q 5097 3584 5394 3201 
Q 5691 2819 5691 2113 
L 5691 0 
L 5113 0 
L 5113 2094 
Q 5113 2597 4934 2840 
Q 4756 3084 4391 3084 
Q 3944 3084 3684 2787 
Q 3425 2491 3425 1978 
L 3425 0 
L 2847 0 
L 2847 2094 
Q 2847 2600 2669 2842 
Q 2491 3084 2119 3084 
Q 1678 3084 1418 2786 
Q 1159 2488 1159 1978 
L 1159 0 
L 581 0 
L 581 3500 
L 1159 3500 
L 1159 2956 
Q 1356 3278 1631 3431 
Q 1906 3584 2284 3584 
Q 2666 3584 2933 3390 
Q 3200 3197 3328 2828 
z
" transform="scale(0.015625)"/>
      <path id="DejaVuSans-75" d="M 544 1381 
L 544 3500 
L 1119 3500 
L 1119 1403 
Q 1119 906 1312 657 
Q 1506 409 1894 409 
Q 2359 409 2629 706 
Q 2900 1003 2900 1516 
L 2900 3500 
L 3475 3500 
L 3475 0 
L 2900 0 
L 2900 538 
Q 2691 219 2414 64 
Q 2138 -91 1772 -91 
Q 1169 -91 856 284 
Q 544 659 544 1381 
z
M 1991 3584 
L 1991 3584 
z
" transform="scale(0.015625)"/>
     </defs>
     <use xlink:href="#DejaVuSans-4d"/>
     <use xlink:href="#DejaVuSans-65" transform="translate(86.279297 0)"/>
     <use xlink:href="#DejaVuSans-61" transform="translate(147.802734 0)"/>
     <use xlink:href="#DejaVuSans-6e" transform="translate(209.082031 0)"/>
     <use xlink:href="#DejaVuSans-20" transform="translate(272.460938 0)"/>
     <use xlink:href="#DejaVuSans-70" transform="translate(304.248047 0)"/>
     <use xlink:href="#DejaVuSans-72" transform="translate(367.724609 0)"/>
     <use xlink:href="#DejaVuSans-6f" transform="translate(406.587891 0)"/>
     <use xlink:href="#DejaVuSans-66" transform="translate(467.769531 0)"/>
     <use xlink:href="#DejaVuSans-69" transform="translate(502.974609 0)"/>
     <use xlink:href="#DejaVuSans-74" transform="translate(530.757812 0)"/>
     <use xlink:href="#DejaVuSans-20" transform="translate(569.966797 0)"/>
     <use xlink:href="#DejaVuSans-70" transform="translate(601.753906 0)"/>
     <use xlink:href="#DejaVuSans-65" transform="translate(665.230469 0)"/>
     <use xlink:href="#DejaVuSans-72" transform="translate(726.753906 0)"/>
     <use xlink:href="#DejaVuSans-20" transform="translate(767.867188 0)"/>
     <use xlink:href="#DejaVuSans-73" transform="translate(799.654297 0)"/>
     <use xlink:href="#DejaVuSans-74" transform="translate(851.753906 0)"/>
     <use xlink:href="#DejaVuSans-65" transform="translate(890.962891 0)"/>
     <use xlink:href="#DejaVuSans-70" transform="translate(952.486328 0)"/>
     <use xlink:href="#DejaVuSans-20" transform="translate(1015.962891 0)"/>
     <use xlink:href="#DejaVuSans-77" transform="translate(1047.75 0)"/>
     <use xlink:href="#DejaVuSans-69" transform="translate(1129.537109 0)"/>
     <use xlink:href="#DejaVuSans-74" transform="translate(1157.320312 0)"/>
     <use xlink:href="#DejaVuSans-68" transform="translate(1196.529297 0)"/>
     <use xlink:href="#DejaVuSans-20" transform="translate(1259.908203 0)"/>
     <use xlink:href="#DejaVuSans-63" transform="translate(1291.695312 0)"/>
     <use xlink:href="#DejaVuSans-6f" transform="translate(1346.675781 0)"/>
     <use xlink:href="#DejaVuSans-6e" transform="translate(1407.857422 0)"/>
     <use xlink:href="#DejaVuSans-66" transform="translate(1471.236328 0)"/>
     <use xlink:href="#DejaVuSans-69" transform="translate(1506.441406 0)"/>
     <use xlink:href="#DejaVuSans-64" transform="translate(1534.224609 0)"/>
     <use xlink:href="#DejaVuSans-65" transform="translate(1597.701172 0)"/>
     <use xlink:href="#DejaVuSans-6e" transform="translate(1659.224609 0)"/>
     <use xlink:href="#DejaVuSans-63" transform="translate(1722.603516 0)"/>
     <use xlink:href="#DejaVuSans-65" transform="translate(1777.583984 0)"/>
     <use xlink:href="#DejaVuSans-20" transform="translate(1839.107422 0)"/>
     <use xlink:href="#DejaVuSans-69" transform="translate(1870.894531 0)"/>
     <use xlink:href="#DejaVuSans-6e" transform="translate(1898.677734 0)"/>
     <use xlink:href="#DejaVuSans-74" transform="translate(1962.056641 0)"/>
     <use xlink:href="#DejaVuSans-65" transform="translate(2001.265625 0)"/>
     <use xlink:href="#DejaVuSans-72" transform="translate(2062.789062 0)"/>
     <use xlink:href="#DejaVuSans-76" transform="translate(2103.902344 0)"/>
     <use xlink:href="#DejaVuSans-61" transform="translate(2163.082031 0)"/>
     <use xlink:href="#DejaVuSans-6c" transform="translate(2224.361328 0)"/>
     <use xlink:href="#DejaVuSans-20" transform="translate(2252.144531 0)"/>
     <use xlink:href="#DejaVuSans-70" transform="translate(2283.931641 0)"/>
     <use xlink:href="#DejaVuSans-65" transform="translate(2347.408203 0)"/>
     <use xlink:href="#DejaVuSans-72" transform="translate(2408.931641 0)"/>
     <use xlink:href="#DejaVuSans-20" transform="translate(2450.044922 0)"/>
     <use xlink:href="#DejaVuSans-73" transform="translate(2481.832031 0)"/>
     <use xlink:href="#DejaVuSans-69" transform="translate(2533.931641 0)"/>
     <use xlink:href="#DejaVuSans-6d" transform="translate(2561.714844 0)"/>
     <use xlink:href="#DejaVuSans-75" transform="translate(2659.126953 0)"/>
     <use xlink:href="#DejaVuSans-6c" transform="translate(2722.505859 0)"/>
     <use xlink:href="#DejaVuSans-61" transform="translate(2750.289062 0)"/>
     <use xlink:href="#DejaVuSans-74" transform="translate(2811.568359 0)"/>
     <use xlink:href="#DejaVuSans-69" transform="translate(2850.777344 0)"/>
     <use xlink:href="#DejaVuSans-6f" transform="translate(2878.560547 0)"/>
     <use xlink:href="#DejaVuSans-6e" transform="translate(2939.742188 0)"/>
     <use xlink:href="#DejaVuSans-20" transform="translate(3003.121094 0)"/>
     <use xlink:href="#DejaVuSans-73" transform="translate(3034.908203 0)"/>
     <use xlink:href="#DejaVuSans-74" transform="translate(3087.007812 0)"/>
     <use xlink:href="#DejaVuSans-65" transform="translate(3126.216797 0)"/>
     <use xlink:href="#DejaVuSans-70" transform="translate(3187.740234 0)"/>
    </g>
    <!-- Base Product: Meth, Recipe size: 9, T0: 5.0 -->
    <g transform="translate(298.334875 37.44) scale(0.14 -0.14)">
     <defs>
      <path id="DejaVuSans-42" d="M 1259 2228 
L 1259 519 
L 2272 519 
Q 2781 519 3026 730 
Q 3272 941 3272 1375 
Q 3272 1813 3026 2020 
Q 2781 2228 2272 2228 
L 1259 2228 
z
M 1259 4147 
L 1259 2741 
L 2194 2741 
Q 2656 2741 2882 2914 
Q 3109 3088 3109 3444 
Q 3109 3797 2882 3972 
Q 2656 4147 2194 4147 
L 1259 4147 
z
M 628 4666 
L 2241 4666 
Q 2963 4666 3353 4366 
Q 3744 4066 3744 3513 
Q 3744 3084 3544 2831 
Q 3344 2578 2956 2516 
Q 3422 2416 3680 2098 
Q 3938 1781 3938 1306 
Q 3938 681 3513 340 
Q 3088 0 2303 0 
L 628 0 
L 628 4666 
z
" transform="scale(0.015625)"/>
      <path id="DejaVuSans-3a" d="M 750 794 
L 1409 794 
L 1409 0 
L 750 0 
L 750 794 
z
M 750 3309 
L 1409 3309 
L 1409 2516 
L 750 2516 
L 750 3309 
z
" transform="scale(0.015625)"/>
      <path id="DejaVuSans-2c" d="M 750 794 
L 1409 794 
L 1409 256 
L 897 -744 
L 494 -744 
L 750 256 
L 750 794 
z
" transform="scale(0.015625)"/>
      <path id="DejaVuSans-52" d="M 2841 2188 
Q 3044 2119 3236 1894 
Q 3428 1669 3622 1275 
L 4263 0 
L 3584 0 
L 2988 1197 
Q 2756 1666 2539 1819 
Q 2322 1972 1947 1972 
L 1259 1972 
L 1259 0 
L 628 0 
L 628 4666 
L 2053 4666 
Q 2853 4666 3247 4331 
Q 3641 3997 3641 3322 
Q 3641 2881 3436 2590 
Q 3231 2300 2841 2188 
z
M 1259 4147 
L 1259 2491 
L 2053 2491 
Q 2509 2491 2742 2702 
Q 2975 2913 2975 3322 
Q 2975 3731 2742 3939 
Q 2509 4147 2053 4147 
L 1259 4147 
z
" transform="scale(0.015625)"/>
      <path id="DejaVuSans-7a" d="M 353 3500 
L 3084 3500 
L 3084 2975 
L 922 459 
L 3084 459 
L 3084 0 
L 275 0 
L 275 525 
L 2438 3041 
L 353 3041 
L 353 3500 
z
" transform="scale(0.015625)"/>
      <path id="DejaVuSans-39" d="M 703 97 
L 703 672 
Q 941 559 1184 500 
Q 1428 441 1663 441 
Q 2288 441 2617 861 
Q 2947 1281 2994 2138 
Q 2813 1869 2534 1725 
Q 2256 1581 1919 1581 
Q 1219 1581 811 2004 
Q 403 2428 403 3163 
Q 403 3881 828 4315 
Q 1253 4750 1959 4750 
Q 2769 4750 3195 4129 
Q 3622 3509 3622 2328 
Q 3622 1225 3098 567 
Q 2575 -91 1691 -91 
Q 1453 -91 1209 -44 
Q 966 3 703 97 
z
M 1959 2075 
Q 2384 2075 2632 2365 
Q 2881 2656 2881 3163 
Q 2881 3666 2632 3958 
Q 2384 4250 1959 4250 
Q 1534 4250 1286 3958 
Q 1038 3666 1038 3163 
Q 1038 2656 1286 2365 
Q 1534 2075 1959 2075 
z
" transform="scale(0.015625)"/>
      <path id="DejaVuSans-54" d="M -19 4666 
L 3928 4666 
L 3928 4134 
L 2272 4134 
L 2272 0 
L 1638 0 
L 1638 4134 
L -19 4134 
L -19 4666 
z
" transform="scale(0.015625)"/>
      <path id="DejaVuSans-2e" d="M 684 794 
L 1344 794 
L 1344 0 
L 684 0 
L 684 794 
z
" transform="scale(0.015625)"/>
     </defs>
     <use xlink:href="#DejaVuSans-42"/>
     <use xlink:href="#DejaVuSans-61" transform="translate(68.603516 0)"/>
     <use xlink:href="#DejaVuSans-73" transform="translate(129.882812 0)"/>
     <use xlink:href="#DejaVuSans-65" transform="translate(181.982422 0)"/>
     <use xlink:href="#DejaVuSans-20" transform="translate(243.505859 0)"/>
     <use xlink:href="#DejaVuSans-50" transform="translate(275.292969 0)"/>
     <use xlink:href="#DejaVuSans-72" transform="translate(333.845703 0)"/>
     <use xlink:href="#DejaVuSans-6f" transform="translate(372.708984 0)"/>
     <use xlink:href="#DejaVuSans-64" transform="translate(433.890625 0)"/>
     <use xlink:href="#DejaVuSans-75" transform="translate(497.367188 0)"/>
     <use xlink:href="#DejaVuSans-63" transform="translate(560.746094 0)"/>
     <use xlink:href="#DejaVuSans-74" transform="translate(615.726562 0)"/>
     <use xlink:href="#DejaVuSans-3a" transform="translate(654.935547 0)"/>
     <use xlink:href="#DejaVuSans-20" transform="translate(688.626953 0)"/>
     <use xlink:href="#DejaVuSans-4d" transform="translate(720.414062 0)"/>
     <use xlink:href="#DejaVuSans-65" transform="translate(806.693359 0)"/>
     <use xlink:href="#DejaVuSans-74" transform="translate(868.216797 0)"/>
     <use xlink:href="#DejaVuSans-68" transform="translate(907.425781 0)"/>
     <use xlink:href="#DejaVuSans-2c" transform="translate(970.804688 0)"/>
     <use xlink:href="#DejaVuSans-20" transform="translate(1002.591797 0)"/>
     <use xlink:href="#DejaVuSans-52" transform="translate(1034.378906 0)"/>
     <use xlink:href="#DejaVuSans-65" transform="translate(1099.361328 0)"/>
     <use xlink:href="#DejaVuSans-63" transform="translate(1160.884766 0)"/>
     <use xlink:href="#DejaVuSans-69" transform="translate(1215.865234 0)"/>
     <use xlink:href="#DejaVuSans-70" transform="translate(1243.648438 0)"/>
     <use xlink:href="#DejaVuSans-65" transform="translate(1307.125 0)"/>
     <use xlink:href="#DejaVuSans-20" transform="translate(1368.648438 0)"/>
     <use xlink:href="#DejaVuSans-73" transform="translate(1400.435547 0)"/>
     <use xlink:href="#DejaVuSans-69" transform="translate(1452.535156 0)"/>
     <use xlink:href="#DejaVuSans-7a" transform="translate(1480.318359 0)"/>
     <use xlink:href="#DejaVuSans-65" transform="translate(1532.808594 0)"/>
     <use xlink:href="#DejaVuSans-3a" transform="translate(1594.332031 0)"/>
     <use xlink:href="#DejaVuSans-20" transform="translate(1628.023438 0)"/>
     <use xlink:href="#DejaVuSans-39" transform="translate(1659.810547 0)"/>
     <use xlink:href="#DejaVuSans-2c" transform="translate(1723.433594 0)"/>
     <use xlink:href="#DejaVuSans-20" transform="translate(1755.220703 0)"/>
     <use xlink:href="#DejaVuSans-54" transform="translate(1787.007812 0)"/>
     <use xlink:href="#DejaVuSans-30" transform="translate(1848.091797 0)"/>
     <use xlink:href="#DejaVuSans-3a" transform="translate(1911.714844 0)"/>
     <use xlink:href="#DejaVuSans-20" transform="translate(1945.40625 0)"/>
     <use xlink:href="#DejaVuSans-35" transform="translate(1977.193359 0)"/>
     <use xlink:href="#DejaVuSans-2e" transform="translate(2040.816406 0)"/>
     <use xlink:href="#DejaVuSans-30" transform="translate(2072.603516 0)"/>
    </g>
   </g>
  </g>
 </g>
 <defs>
  <clipPath id="p74387d7c86">
   <rect x="50.87" y="43.44" width="793.996" height="346.6"/>
  </clipPath>
 </defs>
</svg>
