<?xml version="1.0" encoding="utf-8" standalone="no"?>
<!DOCTYPE svg PUBLIC "-//W3C//DTD SVG 1.1//EN"
  "http://www.w3.org/Graphics/SVG/1.1/DTD/svg11.dtd">
<svg xmlns:xlink="http://www.w3.org/1999/xlink" width="864pt" height="432pt" viewBox="0 0 864 432" xmlns="http://www.w3.org/2000/svg" version="1.1">
 <metadata>
  <rdf:RDF xmlns:dc="http://purl.org/dc/elements/1.1/" xmlns:cc="http://creativecommons.org/ns#" xmlns:rdf="http://www.w3.org/1999/02/22-rdf-syntax-ns#">
   <cc:Work>
    <dc:type rdf:resource="http://purl.org/dc/dcmitype/StillImage"/>
    <dc:date>2025-05-24T02:19:00.274807</dc:date>
    <dc:format>image/svg+xml</dc:format>
    <dc:creator>
     <cc:Agent>
      <dc:title>Matplotlib v3.10.3, https://matplotlib.org/</dc:title>
     </cc:Agent>
    </dc:creator>
   </cc:Work>
  </rdf:RDF>
 </metadata>
 <defs>
  <style type="text/css">*{stroke-linejoin: round; stroke-linecap: butt}</style>
 </defs>
 <g id="figure_1">
  <g id="patch_1">
   <path d="M 0 432 
L 864 432 
L 864 0 
L 0 0 
z
" style="fill: #ffffff"/>
  </g>
  <g id="axes_1">
   <g id="patch_2">
    <path d="M 50.87 390.04 
L 844.866 390.04 
L 844.866 43.44 
L 50.87 43.44 
z
" style="fill: #ffffff"/>
   </g>
   <g id="FillBetweenPolyCollection_1">
    <defs>
     <path id="ma5c8cdfb04" d="M 52.193327 -307.750648 
L 52.193327 -58.790437 
L 54.83998 -57.714545 
L 57.486633 -63.016429 
L 60.133287 -69.419267 
L 62.77994 -76.304961 
L 65.426593 -81.540325 
L 68.073247 -86.919782 
L 70.7199 -91.285615 
L 73.366553 -94.853115 
L 76.013207 -97.917808 
L 78.65986 -101.664401 
L 81.306513 -104.930309 
L 83.953167 -107.66471 
L 86.59982 -109.258827 
L 89.246473 -113.760877 
L 91.893127 -116.580058 
L 94.53978 -118.731393 
L 97.186433 -120.563134 
L 99.833087 -122.477528 
L 102.47974 -124.275868 
L 105.126393 -125.99838 
L 107.773047 -128.540015 
L 110.4197 -130.820764 
L 113.066353 -131.541232 
L 115.713007 -132.387288 
L 118.35966 -133.324803 
L 121.006313 -135.40464 
L 123.652967 -137.166974 
L 126.29962 -137.832683 
L 128.946273 -138.532496 
L 131.592927 -140.479227 
L 134.23958 -142.16073 
L 136.886233 -142.592094 
L 139.532887 -143.520434 
L 142.17954 -143.563177 
L 144.826193 -143.768609 
L 147.472847 -144.720738 
L 150.1195 -145.360018 
L 152.766153 -146.302837 
L 155.412807 -146.592725 
L 158.05946 -147.476846 
L 160.706113 -148.055369 
L 163.352767 -148.768497 
L 165.99942 -149.271897 
L 168.646073 -151.30597 
L 171.292727 -151.96313 
L 173.93938 -153.331696 
L 176.586033 -153.198411 
L 179.232687 -154.075505 
L 181.87934 -155.308459 
L 184.525993 -156.415377 
L 187.172647 -156.853186 
L 189.8193 -157.065824 
L 192.465953 -157.855285 
L 195.112607 -157.169928 
L 197.75926 -158.023794 
L 200.405913 -157.95008 
L 203.052567 -158.468875 
L 205.69922 -158.916373 
L 208.345873 -159.983951 
L 210.992527 -161.42368 
L 213.63918 -161.431803 
L 216.285833 -161.796457 
L 218.932487 -161.922044 
L 221.57914 -162.678743 
L 224.225793 -162.865154 
L 226.872447 -163.468607 
L 229.5191 -164.456115 
L 232.165753 -164.959537 
L 234.812407 -164.69968 
L 237.45906 -164.658638 
L 240.105713 -165.593066 
L 242.752367 -165.280396 
L 245.39902 -164.211095 
L 248.045673 -165.446846 
L 250.692327 -165.579191 
L 253.33898 -165.393989 
L 255.985633 -166.077264 
L 258.632287 -166.407635 
L 261.27894 -166.558308 
L 263.925593 -166.589346 
L 266.572247 -166.947309 
L 269.2189 -167.579182 
L 271.865553 -168.07146 
L 274.512207 -168.901447 
L 277.15886 -169.63579 
L 279.805513 -169.640512 
L 282.452167 -169.375755 
L 285.09882 -169.473995 
L 287.745473 -170.681124 
L 290.392127 -170.490887 
L 293.03878 -170.32522 
L 295.685433 -170.603516 
L 298.332087 -171.131487 
L 300.97874 -171.842736 
L 303.625393 -171.955679 
L 306.272047 -171.915644 
L 308.9187 -171.124214 
L 311.565353 -171.841147 
L 314.212007 -171.42283 
L 316.85866 -171.9937 
L 319.505313 -172.552015 
L 322.151967 -172.664175 
L 324.79862 -172.584531 
L 327.445273 -172.395255 
L 330.091927 -172.111141 
L 332.73858 -172.921055 
L 335.385233 -172.825858 
L 338.031887 -173.254469 
L 340.67854 -173.770467 
L 343.325193 -174.339167 
L 345.971847 -174.829788 
L 348.6185 -175.131827 
L 351.265153 -175.255758 
L 353.911807 -175.209256 
L 356.55846 -175.688867 
L 359.205113 -175.196254 
L 361.851767 -176.350212 
L 364.49842 -175.882551 
L 367.145073 -176.307448 
L 369.791727 -176.518139 
L 372.43838 -175.988669 
L 375.085033 -176.318167 
L 377.731687 -175.965866 
L 380.37834 -176.537698 
L 383.024993 -175.871317 
L 385.671647 -176.004379 
L 388.3183 -176.513552 
L 390.964953 -177.488439 
L 393.611607 -177.828611 
L 396.25826 -177.542437 
L 398.904913 -178.034446 
L 401.551567 -178.799559 
L 404.19822 -178.464221 
L 406.844873 -179.624378 
L 409.491527 -179.566866 
L 412.13818 -179.497873 
L 414.784833 -179.453475 
L 417.431487 -179.177439 
L 420.07814 -180.035086 
L 422.724793 -179.748823 
L 425.371447 -180.465241 
L 428.0181 -181.309574 
L 430.664753 -180.856906 
L 433.311407 -181.644599 
L 435.95806 -182.123404 
L 438.604713 -181.959081 
L 441.251367 -182.042664 
L 443.89802 -182.072382 
L 446.544673 -182.772419 
L 449.191327 -182.499986 
L 451.83798 -182.742835 
L 454.484633 -182.606283 
L 457.131287 -182.842955 
L 459.77794 -183.02281 
L 462.424593 -183.355865 
L 465.071247 -183.279556 
L 467.7179 -183.497117 
L 470.364553 -183.406977 
L 473.011207 -182.755009 
L 475.65786 -182.644057 
L 478.304513 -182.512652 
L 480.951167 -182.906778 
L 483.59782 -183.268344 
L 486.244473 -182.555529 
L 488.891127 -182.698235 
L 491.53778 -183.093189 
L 494.184433 -183.342215 
L 496.831087 -183.306566 
L 499.47774 -183.509671 
L 502.124393 -183.312474 
L 504.771047 -182.927344 
L 507.4177 -182.677647 
L 510.064353 -182.670687 
L 512.711007 -183.152648 
L 515.35766 -182.808224 
L 518.004313 -183.132374 
L 520.650967 -183.491791 
L 523.29762 -183.580857 
L 525.944273 -184.116637 
L 528.590927 -183.978653 
L 531.23758 -184.365663 
L 533.884233 -185.014588 
L 536.530887 -184.576041 
L 539.17754 -185.203013 
L 541.824193 -184.975359 
L 544.470847 -185.160673 
L 547.1175 -185.693187 
L 549.764153 -186.013039 
L 552.410807 -186.451027 
L 555.05746 -186.970136 
L 557.704113 -187.371154 
L 560.350767 -187.783631 
L 562.99742 -187.767541 
L 565.644073 -187.897536 
L 568.290727 -188.290901 
L 570.93738 -188.478073 
L 573.584033 -188.380235 
L 576.230687 -188.35732 
L 578.87734 -187.910202 
L 581.523993 -187.407586 
L 584.170647 -187.508467 
L 586.8173 -187.992107 
L 589.463953 -188.415862 
L 592.110607 -188.484832 
L 594.75726 -188.490471 
L 597.403913 -188.426424 
L 600.050567 -188.599453 
L 602.69722 -188.468518 
L 605.343873 -188.424768 
L 607.990527 -188.539121 
L 610.63718 -188.80003 
L 613.283833 -188.257379 
L 615.930487 -188.482258 
L 618.57714 -188.985277 
L 621.223793 -189.294366 
L 623.870447 -189.520632 
L 626.5171 -189.94799 
L 629.163753 -189.861991 
L 631.810407 -189.955196 
L 634.45706 -189.721701 
L 637.103713 -188.776286 
L 639.750367 -188.48058 
L 642.39702 -188.710763 
L 645.043673 -189.180393 
L 647.690327 -188.765679 
L 650.33698 -188.567631 
L 652.983633 -188.537532 
L 655.630287 -189.116436 
L 658.27694 -189.12127 
L 660.923593 -188.976124 
L 663.570247 -189.850936 
L 666.2169 -190.086847 
L 668.863553 -190.086713 
L 671.510207 -189.739358 
L 674.15686 -190.097634 
L 676.803513 -190.557284 
L 679.450167 -190.294585 
L 682.09682 -191.067598 
L 684.743473 -191.971948 
L 687.390127 -191.690788 
L 690.03678 -191.596307 
L 692.683433 -191.794534 
L 695.330087 -191.617678 
L 697.97674 -191.54016 
L 700.623393 -191.551147 
L 703.270047 -192.013975 
L 705.9167 -191.328842 
L 708.563353 -192.040225 
L 711.210007 -192.181118 
L 713.85666 -192.759485 
L 716.503313 -191.777347 
L 719.149967 -192.370416 
L 721.79662 -192.141262 
L 724.443273 -191.976178 
L 727.089927 -191.987255 
L 729.73658 -192.003278 
L 732.383233 -191.181503 
L 735.029887 -190.771779 
L 737.67654 -191.253651 
L 740.323193 -191.487146 
L 742.969847 -191.554594 
L 745.6165 -191.544076 
L 748.263153 -190.80425 
L 750.909807 -191.019686 
L 753.55646 -191.788044 
L 756.203113 -191.536915 
L 758.849767 -191.147846 
L 761.49642 -191.308545 
L 764.143073 -191.632022 
L 766.789727 -191.522145 
L 769.43638 -191.491286 
L 772.083033 -191.810243 
L 774.729687 -192.198528 
L 777.37634 -191.658697 
L 780.022993 -192.189779 
L 782.669647 -192.292674 
L 785.3163 -192.25669 
L 787.962953 -192.889547 
L 790.609607 -192.789964 
L 793.25626 -192.839666 
L 795.902913 -192.860881 
L 798.549567 -192.778663 
L 801.19622 -193.137968 
L 803.842873 -193.317912 
L 806.489527 -193.138528 
L 809.13618 -192.858531 
L 811.782833 -193.228914 
L 814.429487 -192.703942 
L 817.07614 -192.777432 
L 819.722793 -193.087573 
L 822.369447 -193.632282 
L 825.0161 -193.810189 
L 827.662753 -193.980309 
L 830.309407 -194.516828 
L 832.95606 -194.576063 
L 835.602713 -195.04829 
L 838.249367 -194.873784 
L 840.89602 -196.081293 
L 843.542673 -196.137127 
L 843.542673 -371.156444 
L 843.542673 -371.156444 
L 840.89602 -371.179181 
L 838.249367 -371.858003 
L 835.602713 -371.845785 
L 832.95606 -372.141133 
L 830.309407 -372.120948 
L 827.662753 -372.49659 
L 825.0161 -372.547478 
L 822.369447 -372.361112 
L 819.722793 -372.570841 
L 817.07614 -372.805455 
L 814.429487 -372.715181 
L 811.782833 -372.303018 
L 809.13618 -372.383132 
L 806.489527 -372.113653 
L 803.842873 -372.053858 
L 801.19622 -372.173805 
L 798.549567 -372.290217 
L 795.902913 -372.312864 
L 793.25626 -372.28422 
L 790.609607 -372.218607 
L 787.962953 -372.224336 
L 785.3163 -372.702604 
L 782.669647 -372.358918 
L 780.022993 -372.279968 
L 777.37634 -372.670558 
L 774.729687 -372.473764 
L 772.083033 -372.742661 
L 769.43638 -372.757834 
L 766.789727 -372.771305 
L 764.143073 -372.48737 
L 761.49642 -372.287711 
L 758.849767 -372.413253 
L 756.203113 -371.893585 
L 753.55646 -371.654495 
L 750.909807 -371.930061 
L 748.263153 -372.005028 
L 745.6165 -371.547572 
L 742.969847 -371.29595 
L 740.323193 -371.463385 
L 737.67654 -371.503845 
L 735.029887 -371.840056 
L 732.383233 -371.644067 
L 729.73658 -370.834152 
L 727.089927 -370.657319 
L 724.443273 -370.524169 
L 721.79662 -370.471938 
L 719.149967 -370.334804 
L 716.503313 -370.737657 
L 713.85666 -370.152018 
L 711.210007 -370.543817 
L 708.563353 -370.311083 
L 705.9167 -370.588439 
L 703.270047 -369.901292 
L 700.623393 -370.009692 
L 697.97674 -370.022045 
L 695.330087 -369.746971 
L 692.683433 -369.298242 
L 690.03678 -369.278549 
L 687.390127 -369.237239 
L 684.743473 -368.730281 
L 682.09682 -369.029524 
L 679.450167 -369.408433 
L 676.803513 -369.076787 
L 674.15686 -369.316816 
L 671.510207 -369.532319 
L 668.863553 -369.031761 
L 666.2169 -368.843963 
L 663.570247 -369.088468 
L 660.923593 -369.464915 
L 658.27694 -369.516833 
L 655.630287 -369.524173 
L 652.983633 -369.724145 
L 650.33698 -369.673078 
L 647.690327 -369.508777 
L 645.043673 -369.230033 
L 642.39702 -369.250308 
L 639.750367 -369.503495 
L 637.103713 -368.978725 
L 634.45706 -368.406289 
L 631.810407 -367.968346 
L 629.163753 -367.984727 
L 626.5171 -368.066452 
L 623.870447 -368.176285 
L 621.223793 -368.102168 
L 618.57714 -368.155697 
L 615.930487 -368.399396 
L 613.283833 -368.586881 
L 610.63718 -368.033914 
L 607.990527 -368.126784 
L 605.343873 -368.276181 
L 602.69722 -368.147551 
L 600.050567 -368.023575 
L 597.403913 -367.955411 
L 594.75726 -367.723214 
L 592.110607 -367.706072 
L 589.463953 -367.650574 
L 586.8173 -367.930527 
L 584.170647 -368.17718 
L 581.523993 -368.063364 
L 578.87734 -367.609443 
L 576.230687 -367.208648 
L 573.584033 -366.899022 
L 570.93738 -366.672868 
L 568.290727 -366.829023 
L 565.644073 -366.977257 
L 562.99742 -366.724203 
L 560.350767 -366.628424 
L 557.704113 -366.77084 
L 555.05746 -367.320853 
L 552.410807 -367.478844 
L 549.764153 -367.651693 
L 547.1175 -367.810982 
L 544.470847 -367.928244 
L 541.824193 -367.881429 
L 539.17754 -367.74058 
L 536.530887 -368.092948 
L 533.884233 -367.522884 
L 531.23758 -367.95747 
L 528.590927 -368.170243 
L 525.944273 -368.052712 
L 523.29762 -368.29301 
L 520.650967 -368.172033 
L 518.004313 -368.100915 
L 515.35766 -368.374512 
L 512.711007 -367.74152 
L 510.064353 -367.861378 
L 507.4177 -367.867912 
L 504.771047 -367.642384 
L 502.124393 -367.46394 
L 499.47774 -367.033605 
L 496.831087 -366.891682 
L 494.184433 -366.927846 
L 491.53778 -366.86729 
L 488.891127 -367.05021 
L 486.244473 -366.745507 
L 483.59782 -366.260884 
L 480.951167 -366.282277 
L 478.304513 -366.25426 
L 475.65786 -366.329898 
L 473.011207 -366.073622 
L 470.364553 -365.469095 
L 467.7179 -365.172986 
L 465.071247 -364.974894 
L 462.424593 -364.934299 
L 459.77794 -365.001792 
L 457.131287 -365.064675 
L 454.484633 -365.038672 
L 451.83798 -364.869358 
L 449.191327 -365.004388 
L 446.544673 -364.751379 
L 443.89802 -365.036121 
L 441.251367 -364.613977 
L 438.604713 -364.61241 
L 435.95806 -364.08858 
L 433.311407 -364.243303 
L 430.664753 -364.471606 
L 428.0181 -363.880551 
L 425.371447 -364.09216 
L 422.724793 -364.403487 
L 420.07814 -364.281301 
L 417.431487 -364.859198 
L 414.784833 -364.748963 
L 412.13818 -364.425597 
L 409.491527 -364.302158 
L 406.844873 -363.961426 
L 404.19822 -364.361058 
L 401.551567 -364.134589 
L 398.904913 -364.329773 
L 396.25826 -364.506651 
L 393.611607 -364.307484 
L 390.964953 -363.984924 
L 388.3183 -364.732089 
L 385.671647 -364.717051 
L 383.024993 -364.621765 
L 380.37834 -363.858173 
L 377.731687 -363.972123 
L 375.085033 -363.626066 
L 372.43838 -363.478324 
L 369.791727 -362.708422 
L 367.145073 -362.613851 
L 364.49842 -362.839648 
L 361.851767 -362.359679 
L 359.205113 -362.897608 
L 356.55846 -362.365453 
L 353.911807 -362.500259 
L 351.265153 -362.190723 
L 348.6185 -361.59197 
L 345.971847 -361.581676 
L 343.325193 -361.867178 
L 340.67854 -362.091632 
L 338.031887 -362.38246 
L 335.385233 -362.145474 
L 332.73858 -362.016486 
L 330.091927 -362.557369 
L 327.445273 -362.433438 
L 324.79862 -362.108103 
L 322.151967 -361.708158 
L 319.505313 -361.649437 
L 316.85866 -361.690927 
L 314.212007 -361.928136 
L 311.565353 -361.489298 
L 308.9187 -361.456089 
L 306.272047 -360.849011 
L 303.625393 -360.743565 
L 300.97874 -360.641923 
L 298.332087 -360.563106 
L 295.685433 -360.542742 
L 293.03878 -360.343218 
L 290.392127 -359.993266 
L 287.745473 -359.373656 
L 285.09882 -359.698052 
L 282.452167 -359.204208 
L 279.805513 -358.997612 
L 277.15886 -359.001953 
L 274.512207 -359.615431 
L 271.865553 -359.878242 
L 269.2189 -360.002799 
L 266.572247 -359.718908 
L 263.925593 -359.492306 
L 261.27894 -359.060898 
L 258.632287 -358.882811 
L 255.985633 -358.797282 
L 253.33898 -358.654374 
L 250.692327 -358.569202 
L 248.045673 -358.30205 
L 245.39902 -358.745543 
L 242.752367 -357.540294 
L 240.105713 -356.899783 
L 237.45906 -357.375679 
L 234.812407 -357.226058 
L 232.165753 -356.731319 
L 229.5191 -356.678149 
L 226.872447 -356.889355 
L 224.225793 -357.034634 
L 221.57914 -356.541373 
L 218.932487 -356.74412 
L 216.285833 -356.564288 
L 213.63918 -356.322155 
L 210.992527 -355.607169 
L 208.345873 -355.799667 
L 205.69922 -355.886898 
L 203.052567 -355.191515 
L 200.405913 -355.003761 
L 197.75926 -354.376856 
L 195.112607 -354.472546 
L 192.465953 -353.842866 
L 189.8193 -353.797304 
L 187.172647 -353.537626 
L 184.525993 -353.095879 
L 181.87934 -353.411637 
L 179.232687 -353.385678 
L 176.586033 -353.411413 
L 173.93938 -352.649567 
L 171.292727 -352.494038 
L 168.646073 -352.263273 
L 165.99942 -353.032638 
L 163.352767 -352.560412 
L 160.706113 -351.986051 
L 158.05946 -351.812575 
L 155.412807 -351.467323 
L 152.766153 -350.619723 
L 150.1195 -350.515888 
L 147.472847 -349.851074 
L 144.826193 -349.399257 
L 142.17954 -348.775798 
L 139.532887 -348.193695 
L 136.886233 -347.655094 
L 134.23958 -346.545087 
L 131.592927 -346.92422 
L 128.946273 -346.805302 
L 126.29962 -346.367717 
L 123.652967 -345.591012 
L 121.006313 -345.103076 
L 118.35966 -345.392472 
L 115.713007 -344.443633 
L 113.066353 -343.418842 
L 110.4197 -342.159751 
L 107.773047 -341.864895 
L 105.126393 -341.800803 
L 102.47974 -341.159353 
L 99.833087 -340.472429 
L 97.186433 -339.395945 
L 94.53978 -338.56495 
L 91.893127 -337.262579 
L 89.246473 -336.395421 
L 86.59982 -336.372371 
L 83.953167 -334.683886 
L 81.306513 -333.255391 
L 78.65986 -331.650824 
L 76.013207 -329.950165 
L 73.366553 -327.322284 
L 70.7199 -325.532425 
L 68.073247 -323.120942 
L 65.426593 -320.64313 
L 62.77994 -318.363948 
L 60.133287 -316.488872 
L 57.486633 -313.102234 
L 54.83998 -308.928708 
L 52.193327 -307.750648 
z
" style="stroke: #0000ff; stroke-opacity: 0.2"/>
    </defs>
    <g clip-path="url(#pa31ad55c1b)">
     <use xlink:href="#ma5c8cdfb04" x="0" y="432" style="fill: #0000ff; fill-opacity: 0.2; stroke: #0000ff; stroke-opacity: 0.2"/>
    </g>
   </g>
   <g id="matplotlib.axis_1">
    <g id="xtick_1">
     <g id="line2d_1">
      <defs>
       <path id="m1f7ab9e344" d="M 0 0 
L 0 3.5 
" style="stroke: #000000; stroke-width: 0.8"/>
      </defs>
      <g>
       <use xlink:href="#m1f7ab9e344" x="181.87934" y="390.04" style="stroke: #000000; stroke-width: 0.8"/>
      </g>
     </g>
     <g id="text_1">
      <!-- 50 -->
      <g transform="translate(175.51684 404.638438) scale(0.1 -0.1)">
       <defs>
        <path id="DejaVuSans-35" d="M 691 4666 
L 3169 4666 
L 3169 4134 
L 1269 4134 
L 1269 2991 
Q 1406 3038 1543 3061 
Q 1681 3084 1819 3084 
Q 2600 3084 3056 2656 
Q 3513 2228 3513 1497 
Q 3513 744 3044 326 
Q 2575 -91 1722 -91 
Q 1428 -91 1123 -41 
Q 819 9 494 109 
L 494 744 
Q 775 591 1075 516 
Q 1375 441 1709 441 
Q 2250 441 2565 725 
Q 2881 1009 2881 1497 
Q 2881 1984 2565 2268 
Q 2250 2553 1709 2553 
Q 1456 2553 1204 2497 
Q 953 2441 691 2322 
L 691 4666 
z
" transform="scale(0.015625)"/>
        <path id="DejaVuSans-30" d="M 2034 4250 
Q 1547 4250 1301 3770 
Q 1056 3291 1056 2328 
Q 1056 1369 1301 889 
Q 1547 409 2034 409 
Q 2525 409 2770 889 
Q 3016 1369 3016 2328 
Q 3016 3291 2770 3770 
Q 2525 4250 2034 4250 
z
M 2034 4750 
Q 2819 4750 3233 4129 
Q 3647 3509 3647 2328 
Q 3647 1150 3233 529 
Q 2819 -91 2034 -91 
Q 1250 -91 836 529 
Q 422 1150 422 2328 
Q 422 3509 836 4129 
Q 1250 4750 2034 4750 
z
" transform="scale(0.015625)"/>
       </defs>
       <use xlink:href="#DejaVuSans-35"/>
       <use xlink:href="#DejaVuSans-30" transform="translate(63.623047 0)"/>
      </g>
     </g>
    </g>
    <g id="xtick_2">
     <g id="line2d_2">
      <g>
       <use xlink:href="#m1f7ab9e344" x="314.212007" y="390.04" style="stroke: #000000; stroke-width: 0.8"/>
      </g>
     </g>
     <g id="text_2">
      <!-- 100 -->
      <g transform="translate(304.668257 404.638438) scale(0.1 -0.1)">
       <defs>
        <path id="DejaVuSans-31" d="M 794 531 
L 1825 531 
L 1825 4091 
L 703 3866 
L 703 4441 
L 1819 4666 
L 2450 4666 
L 2450 531 
L 3481 531 
L 3481 0 
L 794 0 
L 794 531 
z
" transform="scale(0.015625)"/>
       </defs>
       <use xlink:href="#DejaVuSans-31"/>
       <use xlink:href="#DejaVuSans-30" transform="translate(63.623047 0)"/>
       <use xlink:href="#DejaVuSans-30" transform="translate(127.246094 0)"/>
      </g>
     </g>
    </g>
    <g id="xtick_3">
     <g id="line2d_3">
      <g>
       <use xlink:href="#m1f7ab9e344" x="446.544673" y="390.04" style="stroke: #000000; stroke-width: 0.8"/>
      </g>
     </g>
     <g id="text_3">
      <!-- 150 -->
      <g transform="translate(437.000923 404.638438) scale(0.1 -0.1)">
       <use xlink:href="#DejaVuSans-31"/>
       <use xlink:href="#DejaVuSans-35" transform="translate(63.623047 0)"/>
       <use xlink:href="#DejaVuSans-30" transform="translate(127.246094 0)"/>
      </g>
     </g>
    </g>
    <g id="xtick_4">
     <g id="line2d_4">
      <g>
       <use xlink:href="#m1f7ab9e344" x="578.87734" y="390.04" style="stroke: #000000; stroke-width: 0.8"/>
      </g>
     </g>
     <g id="text_4">
      <!-- 200 -->
      <g transform="translate(569.33359 404.638438) scale(0.1 -0.1)">
       <defs>
        <path id="DejaVuSans-32" d="M 1228 531 
L 3431 531 
L 3431 0 
L 469 0 
L 469 531 
Q 828 903 1448 1529 
Q 2069 2156 2228 2338 
Q 2531 2678 2651 2914 
Q 2772 3150 2772 3378 
Q 2772 3750 2511 3984 
Q 2250 4219 1831 4219 
Q 1534 4219 1204 4116 
Q 875 4013 500 3803 
L 500 4441 
Q 881 4594 1212 4672 
Q 1544 4750 1819 4750 
Q 2544 4750 2975 4387 
Q 3406 4025 3406 3419 
Q 3406 3131 3298 2873 
Q 3191 2616 2906 2266 
Q 2828 2175 2409 1742 
Q 1991 1309 1228 531 
z
" transform="scale(0.015625)"/>
       </defs>
       <use xlink:href="#DejaVuSans-32"/>
       <use xlink:href="#DejaVuSans-30" transform="translate(63.623047 0)"/>
       <use xlink:href="#DejaVuSans-30" transform="translate(127.246094 0)"/>
      </g>
     </g>
    </g>
    <g id="xtick_5">
     <g id="line2d_5">
      <g>
       <use xlink:href="#m1f7ab9e344" x="711.210007" y="390.04" style="stroke: #000000; stroke-width: 0.8"/>
      </g>
     </g>
     <g id="text_5">
      <!-- 250 -->
      <g transform="translate(701.666257 404.638438) scale(0.1 -0.1)">
       <use xlink:href="#DejaVuSans-32"/>
       <use xlink:href="#DejaVuSans-35" transform="translate(63.623047 0)"/>
       <use xlink:href="#DejaVuSans-30" transform="translate(127.246094 0)"/>
      </g>
     </g>
    </g>
    <g id="xtick_6">
     <g id="line2d_6">
      <g>
       <use xlink:href="#m1f7ab9e344" x="843.542673" y="390.04" style="stroke: #000000; stroke-width: 0.8"/>
      </g>
     </g>
     <g id="text_6">
      <!-- 300 -->
      <g transform="translate(833.998923 404.638438) scale(0.1 -0.1)">
       <defs>
        <path id="DejaVuSans-33" d="M 2597 2516 
Q 3050 2419 3304 2112 
Q 3559 1806 3559 1356 
Q 3559 666 3084 287 
Q 2609 -91 1734 -91 
Q 1441 -91 1130 -33 
Q 819 25 488 141 
L 488 750 
Q 750 597 1062 519 
Q 1375 441 1716 441 
Q 2309 441 2620 675 
Q 2931 909 2931 1356 
Q 2931 1769 2642 2001 
Q 2353 2234 1838 2234 
L 1294 2234 
L 1294 2753 
L 1863 2753 
Q 2328 2753 2575 2939 
Q 2822 3125 2822 3475 
Q 2822 3834 2567 4026 
Q 2313 4219 1838 4219 
Q 1578 4219 1281 4162 
Q 984 4106 628 3988 
L 628 4550 
Q 988 4650 1302 4700 
Q 1616 4750 1894 4750 
Q 2613 4750 3031 4423 
Q 3450 4097 3450 3541 
Q 3450 3153 3228 2886 
Q 3006 2619 2597 2516 
z
" transform="scale(0.015625)"/>
       </defs>
       <use xlink:href="#DejaVuSans-33"/>
       <use xlink:href="#DejaVuSans-30" transform="translate(63.623047 0)"/>
       <use xlink:href="#DejaVuSans-30" transform="translate(127.246094 0)"/>
      </g>
     </g>
    </g>
    <g id="text_7">
     <!-- Step -->
     <g transform="translate(436.482844 418.316562) scale(0.1 -0.1)">
      <defs>
       <path id="DejaVuSans-53" d="M 3425 4513 
L 3425 3897 
Q 3066 4069 2747 4153 
Q 2428 4238 2131 4238 
Q 1616 4238 1336 4038 
Q 1056 3838 1056 3469 
Q 1056 3159 1242 3001 
Q 1428 2844 1947 2747 
L 2328 2669 
Q 3034 2534 3370 2195 
Q 3706 1856 3706 1288 
Q 3706 609 3251 259 
Q 2797 -91 1919 -91 
Q 1588 -91 1214 -16 
Q 841 59 441 206 
L 441 856 
Q 825 641 1194 531 
Q 1563 422 1919 422 
Q 2459 422 2753 634 
Q 3047 847 3047 1241 
Q 3047 1584 2836 1778 
Q 2625 1972 2144 2069 
L 1759 2144 
Q 1053 2284 737 2584 
Q 422 2884 422 3419 
Q 422 4038 858 4394 
Q 1294 4750 2059 4750 
Q 2388 4750 2728 4690 
Q 3069 4631 3425 4513 
z
" transform="scale(0.015625)"/>
       <path id="DejaVuSans-74" d="M 1172 4494 
L 1172 3500 
L 2356 3500 
L 2356 3053 
L 1172 3053 
L 1172 1153 
Q 1172 725 1289 603 
Q 1406 481 1766 481 
L 2356 481 
L 2356 0 
L 1766 0 
Q 1100 0 847 248 
Q 594 497 594 1153 
L 594 3053 
L 172 3053 
L 172 3500 
L 594 3500 
L 594 4494 
L 1172 4494 
z
" transform="scale(0.015625)"/>
       <path id="DejaVuSans-65" d="M 3597 1894 
L 3597 1613 
L 953 1613 
Q 991 1019 1311 708 
Q 1631 397 2203 397 
Q 2534 397 2845 478 
Q 3156 559 3463 722 
L 3463 178 
Q 3153 47 2828 -22 
Q 2503 -91 2169 -91 
Q 1331 -91 842 396 
Q 353 884 353 1716 
Q 353 2575 817 3079 
Q 1281 3584 2069 3584 
Q 2775 3584 3186 3129 
Q 3597 2675 3597 1894 
z
M 3022 2063 
Q 3016 2534 2758 2815 
Q 2500 3097 2075 3097 
Q 1594 3097 1305 2825 
Q 1016 2553 972 2059 
L 3022 2063 
z
" transform="scale(0.015625)"/>
       <path id="DejaVuSans-70" d="M 1159 525 
L 1159 -1331 
L 581 -1331 
L 581 3500 
L 1159 3500 
L 1159 2969 
Q 1341 3281 1617 3432 
Q 1894 3584 2278 3584 
Q 2916 3584 3314 3078 
Q 3713 2572 3713 1747 
Q 3713 922 3314 415 
Q 2916 -91 2278 -91 
Q 1894 -91 1617 61 
Q 1341 213 1159 525 
z
M 3116 1747 
Q 3116 2381 2855 2742 
Q 2594 3103 2138 3103 
Q 1681 3103 1420 2742 
Q 1159 2381 1159 1747 
Q 1159 1113 1420 752 
Q 1681 391 2138 391 
Q 2594 391 2855 752 
Q 3116 1113 3116 1747 
z
" transform="scale(0.015625)"/>
      </defs>
      <use xlink:href="#DejaVuSans-53"/>
      <use xlink:href="#DejaVuSans-74" transform="translate(63.476562 0)"/>
      <use xlink:href="#DejaVuSans-65" transform="translate(102.685547 0)"/>
      <use xlink:href="#DejaVuSans-70" transform="translate(164.208984 0)"/>
     </g>
    </g>
   </g>
   <g id="matplotlib.axis_2">
    <g id="ytick_1">
     <g id="line2d_7">
      <defs>
       <path id="m55d65d5829" d="M 0 0 
L -3.5 0 
" style="stroke: #000000; stroke-width: 0.8"/>
      </defs>
      <g>
       <use xlink:href="#m55d65d5829" x="50.87" y="348.241194" style="stroke: #000000; stroke-width: 0.8"/>
      </g>
     </g>
     <g id="text_8">
      <!-- 100 -->
      <g transform="translate(24.7825 352.040413) scale(0.1 -0.1)">
       <use xlink:href="#DejaVuSans-31"/>
       <use xlink:href="#DejaVuSans-30" transform="translate(63.623047 0)"/>
       <use xlink:href="#DejaVuSans-30" transform="translate(127.246094 0)"/>
      </g>
     </g>
    </g>
    <g id="ytick_2">
     <g id="line2d_8">
      <g>
       <use xlink:href="#m55d65d5829" x="50.87" y="274.912066" style="stroke: #000000; stroke-width: 0.8"/>
      </g>
     </g>
     <g id="text_9">
      <!-- 150 -->
      <g transform="translate(24.7825 278.711285) scale(0.1 -0.1)">
       <use xlink:href="#DejaVuSans-31"/>
       <use xlink:href="#DejaVuSans-35" transform="translate(63.623047 0)"/>
       <use xlink:href="#DejaVuSans-30" transform="translate(127.246094 0)"/>
      </g>
     </g>
    </g>
    <g id="ytick_3">
     <g id="line2d_9">
      <g>
       <use xlink:href="#m55d65d5829" x="50.87" y="201.582938" style="stroke: #000000; stroke-width: 0.8"/>
      </g>
     </g>
     <g id="text_10">
      <!-- 200 -->
      <g transform="translate(24.7825 205.382156) scale(0.1 -0.1)">
       <use xlink:href="#DejaVuSans-32"/>
       <use xlink:href="#DejaVuSans-30" transform="translate(63.623047 0)"/>
       <use xlink:href="#DejaVuSans-30" transform="translate(127.246094 0)"/>
      </g>
     </g>
    </g>
    <g id="ytick_4">
     <g id="line2d_10">
      <g>
       <use xlink:href="#m55d65d5829" x="50.87" y="128.253809" style="stroke: #000000; stroke-width: 0.8"/>
      </g>
     </g>
     <g id="text_11">
      <!-- 250 -->
      <g transform="translate(24.7825 132.053028) scale(0.1 -0.1)">
       <use xlink:href="#DejaVuSans-32"/>
       <use xlink:href="#DejaVuSans-35" transform="translate(63.623047 0)"/>
       <use xlink:href="#DejaVuSans-30" transform="translate(127.246094 0)"/>
      </g>
     </g>
    </g>
    <g id="ytick_5">
     <g id="line2d_11">
      <g>
       <use xlink:href="#m55d65d5829" x="50.87" y="54.924681" style="stroke: #000000; stroke-width: 0.8"/>
      </g>
     </g>
     <g id="text_12">
      <!-- 300 -->
      <g transform="translate(24.7825 58.7239) scale(0.1 -0.1)">
       <use xlink:href="#DejaVuSans-33"/>
       <use xlink:href="#DejaVuSans-30" transform="translate(63.623047 0)"/>
       <use xlink:href="#DejaVuSans-30" transform="translate(127.246094 0)"/>
      </g>
     </g>
    </g>
    <g id="text_13">
     <!-- Profit -->
     <g transform="translate(18.702813 229.779063) rotate(-90) scale(0.1 -0.1)">
      <defs>
       <path id="DejaVuSans-50" d="M 1259 4147 
L 1259 2394 
L 2053 2394 
Q 2494 2394 2734 2622 
Q 2975 2850 2975 3272 
Q 2975 3691 2734 3919 
Q 2494 4147 2053 4147 
L 1259 4147 
z
M 628 4666 
L 2053 4666 
Q 2838 4666 3239 4311 
Q 3641 3956 3641 3272 
Q 3641 2581 3239 2228 
Q 2838 1875 2053 1875 
L 1259 1875 
L 1259 0 
L 628 0 
L 628 4666 
z
" transform="scale(0.015625)"/>
       <path id="DejaVuSans-72" d="M 2631 2963 
Q 2534 3019 2420 3045 
Q 2306 3072 2169 3072 
Q 1681 3072 1420 2755 
Q 1159 2438 1159 1844 
L 1159 0 
L 581 0 
L 581 3500 
L 1159 3500 
L 1159 2956 
Q 1341 3275 1631 3429 
Q 1922 3584 2338 3584 
Q 2397 3584 2469 3576 
Q 2541 3569 2628 3553 
L 2631 2963 
z
" transform="scale(0.015625)"/>
       <path id="DejaVuSans-6f" d="M 1959 3097 
Q 1497 3097 1228 2736 
Q 959 2375 959 1747 
Q 959 1119 1226 758 
Q 1494 397 1959 397 
Q 2419 397 2687 759 
Q 2956 1122 2956 1747 
Q 2956 2369 2687 2733 
Q 2419 3097 1959 3097 
z
M 1959 3584 
Q 2709 3584 3137 3096 
Q 3566 2609 3566 1747 
Q 3566 888 3137 398 
Q 2709 -91 1959 -91 
Q 1206 -91 779 398 
Q 353 888 353 1747 
Q 353 2609 779 3096 
Q 1206 3584 1959 3584 
z
" transform="scale(0.015625)"/>
       <path id="DejaVuSans-66" d="M 2375 4863 
L 2375 4384 
L 1825 4384 
Q 1516 4384 1395 4259 
Q 1275 4134 1275 3809 
L 1275 3500 
L 2222 3500 
L 2222 3053 
L 1275 3053 
L 1275 0 
L 697 0 
L 697 3053 
L 147 3053 
L 147 3500 
L 697 3500 
L 697 3744 
Q 697 4328 969 4595 
Q 1241 4863 1831 4863 
L 2375 4863 
z
" transform="scale(0.015625)"/>
       <path id="DejaVuSans-69" d="M 603 3500 
L 1178 3500 
L 1178 0 
L 603 0 
L 603 3500 
z
M 603 4863 
L 1178 4863 
L 1178 4134 
L 603 4134 
L 603 4863 
z
" transform="scale(0.015625)"/>
      </defs>
      <use xlink:href="#DejaVuSans-50"/>
      <use xlink:href="#DejaVuSans-72" transform="translate(58.552734 0)"/>
      <use xlink:href="#DejaVuSans-6f" transform="translate(97.416016 0)"/>
      <use xlink:href="#DejaVuSans-66" transform="translate(158.597656 0)"/>
      <use xlink:href="#DejaVuSans-69" transform="translate(193.802734 0)"/>
      <use xlink:href="#DejaVuSans-74" transform="translate(221.585938 0)"/>
     </g>
    </g>
   </g>
   <g id="line2d_12">
    <path d="M 52.193327 248.729463 
L 54.83998 248.678373 
L 62.77994 234.665546 
L 68.073247 226.979638 
L 70.7199 223.590986 
L 73.366553 220.912306 
L 78.65986 215.342376 
L 81.306513 212.90715 
L 83.953167 210.825702 
L 86.59982 209.18439 
L 89.246473 206.921857 
L 94.53978 203.351828 
L 97.186433 202.020455 
L 99.833087 200.525027 
L 110.4197 195.509743 
L 118.35966 192.641363 
L 121.006313 191.746142 
L 123.652967 190.621007 
L 126.29962 189.8998 
L 128.946273 189.331101 
L 131.592927 188.298277 
L 134.23958 187.647091 
L 139.532887 186.142936 
L 144.826193 185.416067 
L 150.1195 184.062047 
L 155.412807 182.969987 
L 158.05946 182.355279 
L 160.706113 181.979279 
L 163.352767 181.335545 
L 165.99942 180.847744 
L 168.646073 180.215378 
L 171.292727 179.771416 
L 173.93938 179.009368 
L 179.232687 178.269408 
L 181.87934 177.639952 
L 187.172647 176.804594 
L 189.8193 176.568436 
L 192.465953 176.150924 
L 195.112607 176.178763 
L 200.405913 175.52308 
L 203.052567 175.169816 
L 210.992527 173.484575 
L 216.285833 172.819627 
L 218.932487 172.666918 
L 226.872447 171.821019 
L 232.165753 171.154572 
L 245.39902 170.52167 
L 248.045673 170.125552 
L 250.692327 169.925803 
L 253.33898 169.975819 
L 255.985633 169.562738 
L 266.572247 168.666891 
L 269.2189 168.209009 
L 277.15886 167.681128 
L 282.452167 167.710018 
L 285.09882 167.413976 
L 287.745473 166.97261 
L 290.392127 166.757912 
L 293.03878 166.665781 
L 298.332087 166.152714 
L 300.97874 165.757671 
L 306.272047 165.617672 
L 308.9187 165.709848 
L 311.565353 165.334766 
L 314.212007 165.324517 
L 327.445273 164.585653 
L 330.091927 164.665745 
L 332.73858 164.531229 
L 335.385233 164.514334 
L 338.031887 164.181524 
L 348.6185 163.63809 
L 351.265153 163.276748 
L 390.964953 161.26333 
L 393.611607 160.931953 
L 396.25826 160.975456 
L 398.904913 160.817891 
L 401.551567 160.532926 
L 404.19822 160.587372 
L 406.844873 160.207098 
L 409.491527 160.065488 
L 412.13818 160.038276 
L 414.784833 159.89877 
L 417.431487 159.981682 
L 420.07814 159.841795 
L 422.724793 159.923856 
L 425.371447 159.721288 
L 428.0181 159.404949 
L 430.664753 159.335755 
L 433.311407 159.056049 
L 446.544673 158.238101 
L 454.484633 158.177523 
L 462.424593 157.854918 
L 465.071247 157.872775 
L 470.364553 157.561964 
L 478.304513 157.616544 
L 483.59782 157.235397 
L 486.244473 157.349482 
L 488.891127 157.125766 
L 502.124393 156.611804 
L 507.4177 156.727209 
L 510.064353 156.733967 
L 515.35766 156.408632 
L 518.004313 156.383345 
L 523.29762 156.063067 
L 525.944273 155.915325 
L 531.23758 155.838434 
L 539.17754 155.528204 
L 541.824193 155.571595 
L 552.410807 155.035076 
L 555.05746 154.854506 
L 557.704113 154.929003 
L 568.290727 154.440038 
L 573.584033 154.360371 
L 576.230687 154.217016 
L 581.523993 154.264525 
L 592.110607 153.904548 
L 597.403913 153.809082 
L 600.050567 153.688486 
L 607.990527 153.667047 
L 613.283833 153.57787 
L 618.57714 153.429524 
L 626.5171 152.99279 
L 629.163753 153.076641 
L 634.45706 152.935994 
L 637.103713 153.122494 
L 639.750367 153.007962 
L 642.39702 153.019465 
L 645.043673 152.794787 
L 650.33698 152.879645 
L 652.983633 152.86915 
L 655.630287 152.679696 
L 660.923593 152.77948 
L 663.570247 152.530298 
L 668.863553 152.440763 
L 682.09682 151.951439 
L 684.743473 151.648885 
L 687.390127 151.535987 
L 690.03678 151.562572 
L 703.270047 151.042367 
L 705.9167 151.04136 
L 711.210007 150.637521 
L 713.85666 150.544249 
L 716.503313 150.742498 
L 719.149967 150.64739 
L 727.089927 150.677713 
L 732.383233 150.587215 
L 735.029887 150.694094 
L 745.6165 150.454176 
L 748.263153 150.595361 
L 750.909807 150.525115 
L 753.55646 150.278731 
L 761.49642 150.201884 
L 764.143073 149.940304 
L 774.729687 149.663865 
L 777.37634 149.835372 
L 785.3163 149.520353 
L 787.962953 149.443059 
L 793.25626 149.438046 
L 819.722793 149.170805 
L 827.662753 148.761551 
L 835.602713 148.552963 
L 838.249367 148.634106 
L 840.89602 148.369752 
L 843.542673 148.353214 
L 843.542673 148.353214 
" clip-path="url(#pa31ad55c1b)" style="fill: none; stroke: #0000ff; stroke-width: 1.5; stroke-linecap: square"/>
   </g>
   <g id="patch_3">
    <path d="M 50.87 390.04 
L 50.87 43.44 
" style="fill: none; stroke: #000000; stroke-width: 0.8; stroke-linejoin: miter; stroke-linecap: square"/>
   </g>
   <g id="patch_4">
    <path d="M 844.866 390.04 
L 844.866 43.44 
" style="fill: none; stroke: #000000; stroke-width: 0.8; stroke-linejoin: miter; stroke-linecap: square"/>
   </g>
   <g id="patch_5">
    <path d="M 50.87 390.04 
L 844.866 390.04 
" style="fill: none; stroke: #000000; stroke-width: 0.8; stroke-linejoin: miter; stroke-linecap: square"/>
   </g>
   <g id="patch_6">
    <path d="M 50.87 43.44 
L 844.866 43.44 
" style="fill: none; stroke: #000000; stroke-width: 0.8; stroke-linejoin: miter; stroke-linecap: square"/>
   </g>
   <g id="text_14">
    <!-- Mean profit per step with confidence interval per simulation step -->
    <g transform="translate(220.284875 21.763062) scale(0.14 -0.14)">
     <defs>
      <path id="DejaVuSans-4d" d="M 628 4666 
L 1569 4666 
L 2759 1491 
L 3956 4666 
L 4897 4666 
L 4897 0 
L 4281 0 
L 4281 4097 
L 3078 897 
L 2444 897 
L 1241 4097 
L 1241 0 
L 628 0 
L 628 4666 
z
" transform="scale(0.015625)"/>
      <path id="DejaVuSans-61" d="M 2194 1759 
Q 1497 1759 1228 1600 
Q 959 1441 959 1056 
Q 959 750 1161 570 
Q 1363 391 1709 391 
Q 2188 391 2477 730 
Q 2766 1069 2766 1631 
L 2766 1759 
L 2194 1759 
z
M 3341 1997 
L 3341 0 
L 2766 0 
L 2766 531 
Q 2569 213 2275 61 
Q 1981 -91 1556 -91 
Q 1019 -91 701 211 
Q 384 513 384 1019 
Q 384 1609 779 1909 
Q 1175 2209 1959 2209 
L 2766 2209 
L 2766 2266 
Q 2766 2663 2505 2880 
Q 2244 3097 1772 3097 
Q 1472 3097 1187 3025 
Q 903 2953 641 2809 
L 641 3341 
Q 956 3463 1253 3523 
Q 1550 3584 1831 3584 
Q 2591 3584 2966 3190 
Q 3341 2797 3341 1997 
z
" transform="scale(0.015625)"/>
      <path id="DejaVuSans-6e" d="M 3513 2113 
L 3513 0 
L 2938 0 
L 2938 2094 
Q 2938 2591 2744 2837 
Q 2550 3084 2163 3084 
Q 1697 3084 1428 2787 
Q 1159 2491 1159 1978 
L 1159 0 
L 581 0 
L 581 3500 
L 1159 3500 
L 1159 2956 
Q 1366 3272 1645 3428 
Q 1925 3584 2291 3584 
Q 2894 3584 3203 3211 
Q 3513 2838 3513 2113 
z
" transform="scale(0.015625)"/>
      <path id="DejaVuSans-20" transform="scale(0.015625)"/>
      <path id="DejaVuSans-73" d="M 2834 3397 
L 2834 2853 
Q 2591 2978 2328 3040 
Q 2066 3103 1784 3103 
Q 1356 3103 1142 2972 
Q 928 2841 928 2578 
Q 928 2378 1081 2264 
Q 1234 2150 1697 2047 
L 1894 2003 
Q 2506 1872 2764 1633 
Q 3022 1394 3022 966 
Q 3022 478 2636 193 
Q 2250 -91 1575 -91 
Q 1294 -91 989 -36 
Q 684 19 347 128 
L 347 722 
Q 666 556 975 473 
Q 1284 391 1588 391 
Q 1994 391 2212 530 
Q 2431 669 2431 922 
Q 2431 1156 2273 1281 
Q 2116 1406 1581 1522 
L 1381 1569 
Q 847 1681 609 1914 
Q 372 2147 372 2553 
Q 372 3047 722 3315 
Q 1072 3584 1716 3584 
Q 2034 3584 2315 3537 
Q 2597 3491 2834 3397 
z
" transform="scale(0.015625)"/>
      <path id="DejaVuSans-77" d="M 269 3500 
L 844 3500 
L 1563 769 
L 2278 3500 
L 2956 3500 
L 3675 769 
L 4391 3500 
L 4966 3500 
L 4050 0 
L 3372 0 
L 2619 2869 
L 1863 0 
L 1184 0 
L 269 3500 
z
" transform="scale(0.015625)"/>
      <path id="DejaVuSans-68" d="M 3513 2113 
L 3513 0 
L 2938 0 
L 2938 2094 
Q 2938 2591 2744 2837 
Q 2550 3084 2163 3084 
Q 1697 3084 1428 2787 
Q 1159 2491 1159 1978 
L 1159 0 
L 581 0 
L 581 4863 
L 1159 4863 
L 1159 2956 
Q 1366 3272 1645 3428 
Q 1925 3584 2291 3584 
Q 2894 3584 3203 3211 
Q 3513 2838 3513 2113 
z
" transform="scale(0.015625)"/>
      <path id="DejaVuSans-63" d="M 3122 3366 
L 3122 2828 
Q 2878 2963 2633 3030 
Q 2388 3097 2138 3097 
Q 1578 3097 1268 2742 
Q 959 2388 959 1747 
Q 959 1106 1268 751 
Q 1578 397 2138 397 
Q 2388 397 2633 464 
Q 2878 531 3122 666 
L 3122 134 
Q 2881 22 2623 -34 
Q 2366 -91 2075 -91 
Q 1284 -91 818 406 
Q 353 903 353 1747 
Q 353 2603 823 3093 
Q 1294 3584 2113 3584 
Q 2378 3584 2631 3529 
Q 2884 3475 3122 3366 
z
" transform="scale(0.015625)"/>
      <path id="DejaVuSans-64" d="M 2906 2969 
L 2906 4863 
L 3481 4863 
L 3481 0 
L 2906 0 
L 2906 525 
Q 2725 213 2448 61 
Q 2172 -91 1784 -91 
Q 1150 -91 751 415 
Q 353 922 353 1747 
Q 353 2572 751 3078 
Q 1150 3584 1784 3584 
Q 2172 3584 2448 3432 
Q 2725 3281 2906 2969 
z
M 947 1747 
Q 947 1113 1208 752 
Q 1469 391 1925 391 
Q 2381 391 2643 752 
Q 2906 1113 2906 1747 
Q 2906 2381 2643 2742 
Q 2381 3103 1925 3103 
Q 1469 3103 1208 2742 
Q 947 2381 947 1747 
z
" transform="scale(0.015625)"/>
      <path id="DejaVuSans-76" d="M 191 3500 
L 800 3500 
L 1894 563 
L 2988 3500 
L 3597 3500 
L 2284 0 
L 1503 0 
L 191 3500 
z
" transform="scale(0.015625)"/>
      <path id="DejaVuSans-6c" d="M 603 4863 
L 1178 4863 
L 1178 0 
L 603 0 
L 603 4863 
z
" transform="scale(0.015625)"/>
      <path id="DejaVuSans-6d" d="M 3328 2828 
Q 3544 3216 3844 3400 
Q 4144 3584 4550 3584 
Q 5097 3584 5394 3201 
Q 5691 2819 5691 2113 
L 5691 0 
L 5113 0 
L 5113 2094 
Q 5113 2597 4934 2840 
Q 4756 3084 4391 3084 
Q 3944 3084 3684 2787 
Q 3425 2491 3425 1978 
L 3425 0 
L 2847 0 
L 2847 2094 
Q 2847 2600 2669 2842 
Q 2491 3084 2119 3084 
Q 1678 3084 1418 2786 
Q 1159 2488 1159 1978 
L 1159 0 
L 581 0 
L 581 3500 
L 1159 3500 
L 1159 2956 
Q 1356 3278 1631 3431 
Q 1906 3584 2284 3584 
Q 2666 3584 2933 3390 
Q 3200 3197 3328 2828 
z
" transform="scale(0.015625)"/>
      <path id="DejaVuSans-75" d="M 544 1381 
L 544 3500 
L 1119 3500 
L 1119 1403 
Q 1119 906 1312 657 
Q 1506 409 1894 409 
Q 2359 409 2629 706 
Q 2900 1003 2900 1516 
L 2900 3500 
L 3475 3500 
L 3475 0 
L 2900 0 
L 2900 538 
Q 2691 219 2414 64 
Q 2138 -91 1772 -91 
Q 1169 -91 856 284 
Q 544 659 544 1381 
z
M 1991 3584 
L 1991 3584 
z
" transform="scale(0.015625)"/>
     </defs>
     <use xlink:href="#DejaVuSans-4d"/>
     <use xlink:href="#DejaVuSans-65" transform="translate(86.279297 0)"/>
     <use xlink:href="#DejaVuSans-61" transform="translate(147.802734 0)"/>
     <use xlink:href="#DejaVuSans-6e" transform="translate(209.082031 0)"/>
     <use xlink:href="#DejaVuSans-20" transform="translate(272.460938 0)"/>
     <use xlink:href="#DejaVuSans-70" transform="translate(304.248047 0)"/>
     <use xlink:href="#DejaVuSans-72" transform="translate(367.724609 0)"/>
     <use xlink:href="#DejaVuSans-6f" transform="translate(406.587891 0)"/>
     <use xlink:href="#DejaVuSans-66" transform="translate(467.769531 0)"/>
     <use xlink:href="#DejaVuSans-69" transform="translate(502.974609 0)"/>
     <use xlink:href="#DejaVuSans-74" transform="translate(530.757812 0)"/>
     <use xlink:href="#DejaVuSans-20" transform="translate(569.966797 0)"/>
     <use xlink:href="#DejaVuSans-70" transform="translate(601.753906 0)"/>
     <use xlink:href="#DejaVuSans-65" transform="translate(665.230469 0)"/>
     <use xlink:href="#DejaVuSans-72" transform="translate(726.753906 0)"/>
     <use xlink:href="#DejaVuSans-20" transform="translate(767.867188 0)"/>
     <use xlink:href="#DejaVuSans-73" transform="translate(799.654297 0)"/>
     <use xlink:href="#DejaVuSans-74" transform="translate(851.753906 0)"/>
     <use xlink:href="#DejaVuSans-65" transform="translate(890.962891 0)"/>
     <use xlink:href="#DejaVuSans-70" transform="translate(952.486328 0)"/>
     <use xlink:href="#DejaVuSans-20" transform="translate(1015.962891 0)"/>
     <use xlink:href="#DejaVuSans-77" transform="translate(1047.75 0)"/>
     <use xlink:href="#DejaVuSans-69" transform="translate(1129.537109 0)"/>
     <use xlink:href="#DejaVuSans-74" transform="translate(1157.320312 0)"/>
     <use xlink:href="#DejaVuSans-68" transform="translate(1196.529297 0)"/>
     <use xlink:href="#DejaVuSans-20" transform="translate(1259.908203 0)"/>
     <use xlink:href="#DejaVuSans-63" transform="translate(1291.695312 0)"/>
     <use xlink:href="#DejaVuSans-6f" transform="translate(1346.675781 0)"/>
     <use xlink:href="#DejaVuSans-6e" transform="translate(1407.857422 0)"/>
     <use xlink:href="#DejaVuSans-66" transform="translate(1471.236328 0)"/>
     <use xlink:href="#DejaVuSans-69" transform="translate(1506.441406 0)"/>
     <use xlink:href="#DejaVuSans-64" transform="translate(1534.224609 0)"/>
     <use xlink:href="#DejaVuSans-65" transform="translate(1597.701172 0)"/>
     <use xlink:href="#DejaVuSans-6e" transform="translate(1659.224609 0)"/>
     <use xlink:href="#DejaVuSans-63" transform="translate(1722.603516 0)"/>
     <use xlink:href="#DejaVuSans-65" transform="translate(1777.583984 0)"/>
     <use xlink:href="#DejaVuSans-20" transform="translate(1839.107422 0)"/>
     <use xlink:href="#DejaVuSans-69" transform="translate(1870.894531 0)"/>
     <use xlink:href="#DejaVuSans-6e" transform="translate(1898.677734 0)"/>
     <use xlink:href="#DejaVuSans-74" transform="translate(1962.056641 0)"/>
     <use xlink:href="#DejaVuSans-65" transform="translate(2001.265625 0)"/>
     <use xlink:href="#DejaVuSans-72" transform="translate(2062.789062 0)"/>
     <use xlink:href="#DejaVuSans-76" transform="translate(2103.902344 0)"/>
     <use xlink:href="#DejaVuSans-61" transform="translate(2163.082031 0)"/>
     <use xlink:href="#DejaVuSans-6c" transform="translate(2224.361328 0)"/>
     <use xlink:href="#DejaVuSans-20" transform="translate(2252.144531 0)"/>
     <use xlink:href="#DejaVuSans-70" transform="translate(2283.931641 0)"/>
     <use xlink:href="#DejaVuSans-65" transform="translate(2347.408203 0)"/>
     <use xlink:href="#DejaVuSans-72" transform="translate(2408.931641 0)"/>
     <use xlink:href="#DejaVuSans-20" transform="translate(2450.044922 0)"/>
     <use xlink:href="#DejaVuSans-73" transform="translate(2481.832031 0)"/>
     <use xlink:href="#DejaVuSans-69" transform="translate(2533.931641 0)"/>
     <use xlink:href="#DejaVuSans-6d" transform="translate(2561.714844 0)"/>
     <use xlink:href="#DejaVuSans-75" transform="translate(2659.126953 0)"/>
     <use xlink:href="#DejaVuSans-6c" transform="translate(2722.505859 0)"/>
     <use xlink:href="#DejaVuSans-61" transform="translate(2750.289062 0)"/>
     <use xlink:href="#DejaVuSans-74" transform="translate(2811.568359 0)"/>
     <use xlink:href="#DejaVuSans-69" transform="translate(2850.777344 0)"/>
     <use xlink:href="#DejaVuSans-6f" transform="translate(2878.560547 0)"/>
     <use xlink:href="#DejaVuSans-6e" transform="translate(2939.742188 0)"/>
     <use xlink:href="#DejaVuSans-20" transform="translate(3003.121094 0)"/>
     <use xlink:href="#DejaVuSans-73" transform="translate(3034.908203 0)"/>
     <use xlink:href="#DejaVuSans-74" transform="translate(3087.007812 0)"/>
     <use xlink:href="#DejaVuSans-65" transform="translate(3126.216797 0)"/>
     <use xlink:href="#DejaVuSans-70" transform="translate(3187.740234 0)"/>
    </g>
    <!-- Base Product: Meth, Recipe size: 9, T0: 50.0 -->
    <g transform="translate(293.881125 37.44) scale(0.14 -0.14)">
     <defs>
      <path id="DejaVuSans-42" d="M 1259 2228 
L 1259 519 
L 2272 519 
Q 2781 519 3026 730 
Q 3272 941 3272 1375 
Q 3272 1813 3026 2020 
Q 2781 2228 2272 2228 
L 1259 2228 
z
M 1259 4147 
L 1259 2741 
L 2194 2741 
Q 2656 2741 2882 2914 
Q 3109 3088 3109 3444 
Q 3109 3797 2882 3972 
Q 2656 4147 2194 4147 
L 1259 4147 
z
M 628 4666 
L 2241 4666 
Q 2963 4666 3353 4366 
Q 3744 4066 3744 3513 
Q 3744 3084 3544 2831 
Q 3344 2578 2956 2516 
Q 3422 2416 3680 2098 
Q 3938 1781 3938 1306 
Q 3938 681 3513 340 
Q 3088 0 2303 0 
L 628 0 
L 628 4666 
z
" transform="scale(0.015625)"/>
      <path id="DejaVuSans-3a" d="M 750 794 
L 1409 794 
L 1409 0 
L 750 0 
L 750 794 
z
M 750 3309 
L 1409 3309 
L 1409 2516 
L 750 2516 
L 750 3309 
z
" transform="scale(0.015625)"/>
      <path id="DejaVuSans-2c" d="M 750 794 
L 1409 794 
L 1409 256 
L 897 -744 
L 494 -744 
L 750 256 
L 750 794 
z
" transform="scale(0.015625)"/>
      <path id="DejaVuSans-52" d="M 2841 2188 
Q 3044 2119 3236 1894 
Q 3428 1669 3622 1275 
L 4263 0 
L 3584 0 
L 2988 1197 
Q 2756 1666 2539 1819 
Q 2322 1972 1947 1972 
L 1259 1972 
L 1259 0 
L 628 0 
L 628 4666 
L 2053 4666 
Q 2853 4666 3247 4331 
Q 3641 3997 3641 3322 
Q 3641 2881 3436 2590 
Q 3231 2300 2841 2188 
z
M 1259 4147 
L 1259 2491 
L 2053 2491 
Q 2509 2491 2742 2702 
Q 2975 2913 2975 3322 
Q 2975 3731 2742 3939 
Q 2509 4147 2053 4147 
L 1259 4147 
z
" transform="scale(0.015625)"/>
      <path id="DejaVuSans-7a" d="M 353 3500 
L 3084 3500 
L 3084 2975 
L 922 459 
L 3084 459 
L 3084 0 
L 275 0 
L 275 525 
L 2438 3041 
L 353 3041 
L 353 3500 
z
" transform="scale(0.015625)"/>
      <path id="DejaVuSans-39" d="M 703 97 
L 703 672 
Q 941 559 1184 500 
Q 1428 441 1663 441 
Q 2288 441 2617 861 
Q 2947 1281 2994 2138 
Q 2813 1869 2534 1725 
Q 2256 1581 1919 1581 
Q 1219 1581 811 2004 
Q 403 2428 403 3163 
Q 403 3881 828 4315 
Q 1253 4750 1959 4750 
Q 2769 4750 3195 4129 
Q 3622 3509 3622 2328 
Q 3622 1225 3098 567 
Q 2575 -91 1691 -91 
Q 1453 -91 1209 -44 
Q 966 3 703 97 
z
M 1959 2075 
Q 2384 2075 2632 2365 
Q 2881 2656 2881 3163 
Q 2881 3666 2632 3958 
Q 2384 4250 1959 4250 
Q 1534 4250 1286 3958 
Q 1038 3666 1038 3163 
Q 1038 2656 1286 2365 
Q 1534 2075 1959 2075 
z
" transform="scale(0.015625)"/>
      <path id="DejaVuSans-54" d="M -19 4666 
L 3928 4666 
L 3928 4134 
L 2272 4134 
L 2272 0 
L 1638 0 
L 1638 4134 
L -19 4134 
L -19 4666 
z
" transform="scale(0.015625)"/>
      <path id="DejaVuSans-2e" d="M 684 794 
L 1344 794 
L 1344 0 
L 684 0 
L 684 794 
z
" transform="scale(0.015625)"/>
     </defs>
     <use xlink:href="#DejaVuSans-42"/>
     <use xlink:href="#DejaVuSans-61" transform="translate(68.603516 0)"/>
     <use xlink:href="#DejaVuSans-73" transform="translate(129.882812 0)"/>
     <use xlink:href="#DejaVuSans-65" transform="translate(181.982422 0)"/>
     <use xlink:href="#DejaVuSans-20" transform="translate(243.505859 0)"/>
     <use xlink:href="#DejaVuSans-50" transform="translate(275.292969 0)"/>
     <use xlink:href="#DejaVuSans-72" transform="translate(333.845703 0)"/>
     <use xlink:href="#DejaVuSans-6f" transform="translate(372.708984 0)"/>
     <use xlink:href="#DejaVuSans-64" transform="translate(433.890625 0)"/>
     <use xlink:href="#DejaVuSans-75" transform="translate(497.367188 0)"/>
     <use xlink:href="#DejaVuSans-63" transform="translate(560.746094 0)"/>
     <use xlink:href="#DejaVuSans-74" transform="translate(615.726562 0)"/>
     <use xlink:href="#DejaVuSans-3a" transform="translate(654.935547 0)"/>
     <use xlink:href="#DejaVuSans-20" transform="translate(688.626953 0)"/>
     <use xlink:href="#DejaVuSans-4d" transform="translate(720.414062 0)"/>
     <use xlink:href="#DejaVuSans-65" transform="translate(806.693359 0)"/>
     <use xlink:href="#DejaVuSans-74" transform="translate(868.216797 0)"/>
     <use xlink:href="#DejaVuSans-68" transform="translate(907.425781 0)"/>
     <use xlink:href="#DejaVuSans-2c" transform="translate(970.804688 0)"/>
     <use xlink:href="#DejaVuSans-20" transform="translate(1002.591797 0)"/>
     <use xlink:href="#DejaVuSans-52" transform="translate(1034.378906 0)"/>
     <use xlink:href="#DejaVuSans-65" transform="translate(1099.361328 0)"/>
     <use xlink:href="#DejaVuSans-63" transform="translate(1160.884766 0)"/>
     <use xlink:href="#DejaVuSans-69" transform="translate(1215.865234 0)"/>
     <use xlink:href="#DejaVuSans-70" transform="translate(1243.648438 0)"/>
     <use xlink:href="#DejaVuSans-65" transform="translate(1307.125 0)"/>
     <use xlink:href="#DejaVuSans-20" transform="translate(1368.648438 0)"/>
     <use xlink:href="#DejaVuSans-73" transform="translate(1400.435547 0)"/>
     <use xlink:href="#DejaVuSans-69" transform="translate(1452.535156 0)"/>
     <use xlink:href="#DejaVuSans-7a" transform="translate(1480.318359 0)"/>
     <use xlink:href="#DejaVuSans-65" transform="translate(1532.808594 0)"/>
     <use xlink:href="#DejaVuSans-3a" transform="translate(1594.332031 0)"/>
     <use xlink:href="#DejaVuSans-20" transform="translate(1628.023438 0)"/>
     <use xlink:href="#DejaVuSans-39" transform="translate(1659.810547 0)"/>
     <use xlink:href="#DejaVuSans-2c" transform="translate(1723.433594 0)"/>
     <use xlink:href="#DejaVuSans-20" transform="translate(1755.220703 0)"/>
     <use xlink:href="#DejaVuSans-54" transform="translate(1787.007812 0)"/>
     <use xlink:href="#DejaVuSans-30" transform="translate(1848.091797 0)"/>
     <use xlink:href="#DejaVuSans-3a" transform="translate(1911.714844 0)"/>
     <use xlink:href="#DejaVuSans-20" transform="translate(1945.40625 0)"/>
     <use xlink:href="#DejaVuSans-35" transform="translate(1977.193359 0)"/>
     <use xlink:href="#DejaVuSans-30" transform="translate(2040.816406 0)"/>
     <use xlink:href="#DejaVuSans-2e" transform="translate(2104.439453 0)"/>
     <use xlink:href="#DejaVuSans-30" transform="translate(2136.226562 0)"/>
    </g>
   </g>
  </g>
 </g>
 <defs>
  <clipPath id="pa31ad55c1b">
   <rect x="50.87" y="43.44" width="793.996" height="346.6"/>
  </clipPath>
 </defs>
</svg>
