<?xml version="1.0" encoding="utf-8" standalone="no"?>
<!DOCTYPE svg PUBLIC "-//W3C//DTD SVG 1.1//EN"
  "http://www.w3.org/Graphics/SVG/1.1/DTD/svg11.dtd">
<svg xmlns:xlink="http://www.w3.org/1999/xlink" width="864pt" height="432pt" viewBox="0 0 864 432" xmlns="http://www.w3.org/2000/svg" version="1.1">
 <metadata>
  <rdf:RDF xmlns:dc="http://purl.org/dc/elements/1.1/" xmlns:cc="http://creativecommons.org/ns#" xmlns:rdf="http://www.w3.org/1999/02/22-rdf-syntax-ns#">
   <cc:Work>
    <dc:type rdf:resource="http://purl.org/dc/dcmitype/StillImage"/>
    <dc:date>2025-05-24T02:19:49.173998</dc:date>
    <dc:format>image/svg+xml</dc:format>
    <dc:creator>
     <cc:Agent>
      <dc:title>Matplotlib v3.10.3, https://matplotlib.org/</dc:title>
     </cc:Agent>
    </dc:creator>
   </cc:Work>
  </rdf:RDF>
 </metadata>
 <defs>
  <style type="text/css">*{stroke-linejoin: round; stroke-linecap: butt}</style>
 </defs>
 <g id="figure_1">
  <g id="patch_1">
   <path d="M 0 432 
L 864 432 
L 864 0 
L 0 0 
z
" style="fill: #ffffff"/>
  </g>
  <g id="axes_1">
   <g id="patch_2">
    <path d="M 50.87 390.04 
L 844.866 390.04 
L 844.866 43.44 
L 50.87 43.44 
z
" style="fill: #ffffff"/>
   </g>
   <g id="FillBetweenPolyCollection_1">
    <defs>
     <path id="mdfaaa8853d" d="M 52.193327 -302.324702 
L 52.193327 -57.714545 
L 54.83998 -58.215269 
L 57.486633 -67.311785 
L 60.133287 -77.785965 
L 62.77994 -87.266671 
L 65.426593 -96.294349 
L 68.073247 -104.146429 
L 70.7199 -111.906125 
L 73.366553 -119.286612 
L 76.013207 -125.810515 
L 78.65986 -131.647688 
L 81.306513 -136.194733 
L 83.953167 -140.498747 
L 86.59982 -144.333581 
L 89.246473 -147.814778 
L 91.893127 -151.171801 
L 94.53978 -154.693841 
L 97.186433 -157.831946 
L 99.833087 -160.509725 
L 102.47974 -163.01043 
L 105.126393 -165.391054 
L 107.773047 -167.756684 
L 110.4197 -169.965372 
L 113.066353 -171.858798 
L 115.713007 -174.055874 
L 118.35966 -176.441859 
L 121.006313 -178.516429 
L 123.652967 -180.304277 
L 126.29962 -182.206823 
L 128.946273 -183.383921 
L 131.592927 -184.904756 
L 134.23958 -187.083213 
L 136.886233 -187.873017 
L 139.532887 -189.28396 
L 142.17954 -190.603317 
L 144.826193 -191.994083 
L 147.472847 -193.186598 
L 150.1195 -194.084893 
L 152.766153 -195.115905 
L 155.412807 -195.839439 
L 158.05946 -196.565488 
L 160.706113 -197.631314 
L 163.352767 -198.358897 
L 165.99942 -199.134197 
L 168.646073 -199.827233 
L 171.292727 -200.664887 
L 173.93938 -201.453935 
L 176.586033 -202.369515 
L 179.232687 -203.020062 
L 181.87934 -203.893865 
L 184.525993 -204.503169 
L 187.172647 -205.226904 
L 189.8193 -205.968413 
L 192.465953 -206.658046 
L 195.112607 -207.403982 
L 197.75926 -208.106984 
L 200.405913 -209.050482 
L 203.052567 -209.68628 
L 205.69922 -210.064965 
L 208.345873 -210.104184 
L 210.992527 -210.350553 
L 213.63918 -211.16258 
L 216.285833 -211.583332 
L 218.932487 -212.194237 
L 221.57914 -212.642751 
L 224.225793 -212.624198 
L 226.872447 -213.014851 
L 229.5191 -213.602755 
L 232.165753 -214.45478 
L 234.812407 -214.999594 
L 237.45906 -215.292211 
L 240.105713 -215.956351 
L 242.752367 -216.364111 
L 245.39902 -216.823258 
L 248.045673 -216.949345 
L 250.692327 -217.264297 
L 253.33898 -217.726402 
L 255.985633 -218.175138 
L 258.632287 -218.502147 
L 261.27894 -218.613085 
L 263.925593 -219.030633 
L 266.572247 -219.253578 
L 269.2189 -219.780329 
L 271.865553 -220.072657 
L 274.512207 -220.539056 
L 277.15886 -220.822619 
L 279.805513 -221.195654 
L 282.452167 -221.570335 
L 285.09882 -222.090279 
L 287.745473 -222.479063 
L 290.392127 -222.858037 
L 293.03878 -223.220683 
L 295.685433 -223.430525 
L 298.332087 -223.672 
L 300.97874 -224.193101 
L 303.625393 -224.399761 
L 306.272047 -224.861845 
L 308.9187 -225.124208 
L 311.565353 -225.45769 
L 314.212007 -225.90131 
L 316.85866 -226.142206 
L 319.505313 -226.516309 
L 322.151967 -226.691848 
L 324.79862 -226.895261 
L 327.445273 -226.964622 
L 330.091927 -227.107683 
L 332.73858 -227.428685 
L 335.385233 -227.802721 
L 338.031887 -228.095294 
L 340.67854 -228.512953 
L 343.325193 -229.002576 
L 345.971847 -229.027113 
L 348.6185 -229.30992 
L 351.265153 -229.644937 
L 353.911807 -229.923629 
L 356.55846 -230.100725 
L 359.205113 -230.339931 
L 361.851767 -230.591349 
L 364.49842 -230.923564 
L 367.145073 -231.055235 
L 369.791727 -231.539274 
L 372.43838 -231.886971 
L 375.085033 -232.075413 
L 377.731687 -232.163283 
L 380.37834 -232.433165 
L 383.024993 -232.718108 
L 385.671647 -232.807312 
L 388.3183 -232.942342 
L 390.964953 -232.927994 
L 393.611607 -233.258651 
L 396.25826 -233.532849 
L 398.904913 -233.762756 
L 401.551567 -234.193028 
L 404.19822 -234.593269 
L 406.844873 -234.756685 
L 409.491527 -234.85254 
L 412.13818 -235.001274 
L 414.784833 -235.275427 
L 417.431487 -235.562884 
L 420.07814 -235.541728 
L 422.724793 -235.541439 
L 425.371447 -235.755151 
L 428.0181 -236.089924 
L 430.664753 -236.326282 
L 433.311407 -236.391617 
L 435.95806 -236.528716 
L 438.604713 -236.811835 
L 441.251367 -236.928245 
L 443.89802 -236.963616 
L 446.544673 -237.193834 
L 449.191327 -237.501089 
L 451.83798 -237.64306 
L 454.484633 -237.877839 
L 457.131287 -238.08599 
L 459.77794 -238.367529 
L 462.424593 -238.432396 
L 465.071247 -238.575257 
L 467.7179 -238.796844 
L 470.364553 -239.000947 
L 473.011207 -239.166364 
L 475.65786 -239.378342 
L 478.304513 -239.771264 
L 480.951167 -239.91715 
L 483.59782 -240.21406 
L 486.244473 -240.253724 
L 488.891127 -240.35721 
L 491.53778 -240.480517 
L 494.184433 -240.693451 
L 496.831087 -240.772511 
L 499.47774 -240.688134 
L 502.124393 -240.822652 
L 504.771047 -240.962866 
L 507.4177 -241.082858 
L 510.064353 -241.47122 
L 512.711007 -241.593592 
L 515.35766 -241.729735 
L 518.004313 -241.848147 
L 520.650967 -242.004845 
L 523.29762 -241.971699 
L 525.944273 -242.064307 
L 528.590927 -242.296928 
L 531.23758 -242.4189 
L 533.884233 -242.647806 
L 536.530887 -242.866435 
L 539.17754 -243.091315 
L 541.824193 -243.196002 
L 544.470847 -243.378104 
L 547.1175 -243.386357 
L 549.764153 -243.515825 
L 552.410807 -243.767578 
L 555.05746 -243.746889 
L 557.704113 -243.888126 
L 560.350767 -244.116876 
L 562.99742 -244.243587 
L 565.644073 -244.104886 
L 568.290727 -244.313527 
L 570.93738 -244.362556 
L 573.584033 -244.594532 
L 576.230687 -244.959736 
L 578.87734 -245.127712 
L 581.523993 -245.267547 
L 584.170647 -245.263142 
L 586.8173 -245.343938 
L 589.463953 -245.483817 
L 592.110607 -245.554536 
L 594.75726 -245.777213 
L 597.403913 -245.698353 
L 600.050567 -246.031324 
L 602.69722 -246.20713 
L 605.343873 -246.369633 
L 607.990527 -246.447537 
L 610.63718 -246.601231 
L 613.283833 -246.677488 
L 615.930487 -246.864106 
L 618.57714 -247.016065 
L 621.223793 -247.118995 
L 623.870447 -247.18889 
L 626.5171 -247.341116 
L 629.163753 -247.542037 
L 631.810407 -247.594781 
L 634.45706 -247.783623 
L 637.103713 -247.907108 
L 639.750367 -247.857634 
L 642.39702 -248.082536 
L 645.043673 -248.211115 
L 647.690327 -248.323032 
L 650.33698 -248.328838 
L 652.983633 -248.601412 
L 655.630287 -248.65518 
L 658.27694 -248.850473 
L 660.923593 -249.024521 
L 663.570247 -249.110055 
L 666.2169 -249.398401 
L 668.863553 -249.549604 
L 671.510207 -249.53054 
L 674.15686 -249.594562 
L 676.803513 -249.851631 
L 679.450167 -249.947732 
L 682.09682 -249.914185 
L 684.743473 -250.006148 
L 687.390127 -250.078691 
L 690.03678 -250.084186 
L 692.683433 -250.184846 
L 695.330087 -250.219038 
L 697.97674 -250.348907 
L 700.623393 -250.496395 
L 703.270047 -250.494459 
L 705.9167 -250.484426 
L 708.563353 -250.577368 
L 711.210007 -250.938679 
L 713.85666 -251.026816 
L 716.503313 -251.145162 
L 719.149967 -251.282328 
L 721.79662 -251.430127 
L 724.443273 -251.431128 
L 727.089927 -251.548295 
L 729.73658 -251.531611 
L 732.383233 -251.537306 
L 735.029887 -251.750062 
L 737.67654 -251.654673 
L 740.323193 -251.709775 
L 742.969847 -251.702679 
L 745.6165 -251.814796 
L 748.263153 -252.090062 
L 750.909807 -252.233634 
L 753.55646 -252.304397 
L 756.203113 -252.371111 
L 758.849767 -252.545027 
L 761.49642 -252.799137 
L 764.143073 -252.775045 
L 766.789727 -253.07636 
L 769.43638 -253.211857 
L 772.083033 -253.241533 
L 774.729687 -253.337923 
L 777.37634 -253.478381 
L 780.022993 -253.611298 
L 782.669647 -253.749842 
L 785.3163 -253.792754 
L 787.962953 -253.859557 
L 790.609607 -253.843007 
L 793.25626 -254.032583 
L 795.902913 -254.150795 
L 798.549567 -254.127749 
L 801.19622 -254.150929 
L 803.842873 -254.232659 
L 806.489527 -254.350515 
L 809.13618 -254.44577 
L 811.782833 -254.779319 
L 814.429487 -254.783101 
L 817.07614 -254.925183 
L 819.722793 -255.073182 
L 822.369447 -255.042928 
L 825.0161 -255.19135 
L 827.662753 -255.381861 
L 830.309407 -255.518938 
L 832.95606 -255.646182 
L 835.602713 -255.65815 
L 838.249367 -255.555665 
L 840.89602 -255.653323 
L 843.542673 -255.703575 
L 843.542673 -372.805455 
L 843.542673 -372.805455 
L 840.89602 -372.740053 
L 838.249367 -372.728574 
L 835.602713 -372.633141 
L 832.95606 -372.45887 
L 830.309407 -372.506475 
L 827.662753 -372.482761 
L 825.0161 -372.511948 
L 822.369447 -372.462385 
L 819.722793 -372.360856 
L 817.07614 -372.326909 
L 814.429487 -372.395559 
L 811.782833 -372.255457 
L 809.13618 -372.397962 
L 806.489527 -372.333316 
L 803.842873 -372.303997 
L 801.19622 -372.315965 
L 798.549567 -372.257459 
L 795.902913 -372.106101 
L 793.25626 -372.040832 
L 790.609607 -372.071932 
L 787.962953 -371.892633 
L 785.3163 -371.792395 
L 782.669647 -371.812015 
L 780.022993 -371.829723 
L 777.37634 -371.886938 
L 774.729687 -371.891076 
L 772.083033 -371.854593 
L 769.43638 -371.73558 
L 766.789727 -371.77927 
L 764.143073 -371.840312 
L 761.49642 -371.754133 
L 758.849767 -371.863714 
L 756.203113 -371.934766 
L 753.55646 -371.868786 
L 750.909807 -371.75173 
L 748.263153 -371.663237 
L 745.6165 -371.761696 
L 742.969847 -371.743366 
L 740.323193 -371.658165 
L 737.67654 -371.609937 
L 735.029887 -371.509744 
L 732.383233 -371.512146 
L 729.73658 -371.434376 
L 727.089927 -371.303083 
L 724.443273 -371.293784 
L 721.79662 -371.205025 
L 719.149967 -371.236524 
L 716.503313 -371.183447 
L 713.85666 -371.196171 
L 711.210007 -371.138466 
L 708.563353 -371.206226 
L 705.9167 -371.185271 
L 703.270047 -371.020076 
L 700.623393 -370.843447 
L 697.97674 -370.802025 
L 695.330087 -370.751795 
L 692.683433 -370.612227 
L 690.03678 -370.600392 
L 687.390127 -370.448411 
L 684.743473 -370.335582 
L 682.09682 -370.186226 
L 679.450167 -370.012711 
L 676.803513 -369.881551 
L 674.15686 -369.990999 
L 671.510207 -369.950468 
L 668.863553 -369.807385 
L 666.2169 -369.809343 
L 663.570247 -369.913407 
L 660.923593 -369.795461 
L 658.27694 -369.800889 
L 655.630287 -369.841954 
L 652.983633 -369.703632 
L 650.33698 -369.740381 
L 647.690327 -369.660298 
L 645.043673 -369.685035 
L 642.39702 -369.637518 
L 639.750367 -369.574297 
L 637.103713 -369.428722 
L 634.45706 -369.389081 
L 631.810407 -369.417243 
L 629.163753 -369.349261 
L 626.5171 -369.341297 
L 623.870447 -369.359895 
L 621.223793 -369.28644 
L 618.57714 -369.244129 
L 615.930487 -369.13824 
L 613.283833 -369.126406 
L 610.63718 -369.036 
L 607.990527 -368.964592 
L 605.343873 -368.907955 
L 602.69722 -368.877523 
L 600.050567 -368.842464 
L 597.403913 -368.896565 
L 594.75726 -368.729101 
L 592.110607 -368.815948 
L 589.463953 -368.706678 
L 586.8173 -368.635759 
L 584.170647 -368.588465 
L 581.523993 -368.329439 
L 578.87734 -368.223016 
L 576.230687 -368.181595 
L 573.584033 -368.320763 
L 570.93738 -368.366678 
L 568.290727 -368.278408 
L 565.644073 -368.325969 
L 562.99742 -368.102535 
L 560.350767 -368.059823 
L 557.704113 -368.057109 
L 555.05746 -368.003053 
L 552.410807 -367.911579 
L 549.764153 -367.886976 
L 547.1175 -367.730101 
L 544.470847 -367.58724 
L 541.824193 -367.538878 
L 539.17754 -367.491407 
L 536.530887 -367.497413 
L 533.884233 -367.466447 
L 531.23758 -367.491362 
L 528.590927 -367.395706 
L 525.944273 -367.349614 
L 523.29762 -367.210313 
L 520.650967 -367.049389 
L 518.004313 -366.998402 
L 515.35766 -366.877653 
L 512.711007 -366.854607 
L 510.064353 -366.744714 
L 507.4177 -366.846465 
L 504.771047 -366.762066 
L 502.124393 -366.555628 
L 499.47774 -366.503662 
L 496.831087 -366.231199 
L 494.184433 -366.096214 
L 491.53778 -366.051545 
L 488.891127 -365.858231 
L 486.244473 -365.75479 
L 483.59782 -365.534782 
L 480.951167 -365.511024 
L 478.304513 -365.422487 
L 475.65786 -365.499234 
L 473.011207 -365.451673 
L 470.364553 -365.353882 
L 467.7179 -365.22557 
L 465.071247 -365.140414 
L 462.424593 -365.027941 
L 459.77794 -364.841746 
L 457.131287 -364.716771 
L 454.484633 -364.682824 
L 451.83798 -364.671167 
L 449.191327 -364.495784 
L 446.544673 -364.520343 
L 443.89802 -364.48217 
L 441.251367 -364.351455 
L 438.604713 -364.173358 
L 435.95806 -363.996417 
L 433.311407 -363.889461 
L 430.664753 -363.750382 
L 428.0181 -363.619756 
L 425.371447 -363.61771 
L 422.724793 -363.513512 
L 420.07814 -363.273794 
L 417.431487 -363.009251 
L 414.784833 -362.986472 
L 412.13818 -362.85113 
L 409.491527 -362.629654 
L 406.844873 -362.453336 
L 404.19822 -362.343933 
L 401.551567 -362.266563 
L 398.904913 -362.322399 
L 396.25826 -362.228523 
L 393.611607 -362.11783 
L 390.964953 -362.09416 
L 388.3183 -361.821609 
L 385.671647 -361.537267 
L 383.024993 -361.286783 
L 380.37834 -361.20136 
L 377.731687 -361.043639 
L 375.085033 -360.902425 
L 372.43838 -360.670226 
L 369.791727 -360.616303 
L 367.145073 -360.624178 
L 364.49842 -360.527099 
L 361.851767 -360.523451 
L 359.205113 -360.439407 
L 356.55846 -360.288983 
L 353.911807 -360.083613 
L 351.265153 -359.960195 
L 348.6185 -359.88149 
L 345.971847 -359.798426 
L 343.325193 -359.505363 
L 340.67854 -359.437515 
L 338.031887 -359.478268 
L 335.385233 -359.446012 
L 332.73858 -359.311783 
L 330.091927 -359.269072 
L 327.445273 -358.969291 
L 324.79862 -358.582576 
L 322.151967 -358.343125 
L 319.505313 -358.120492 
L 316.85866 -358.165295 
L 314.212007 -358.007663 
L 311.565353 -358.143227 
L 308.9187 -358.017496 
L 306.272047 -357.8406 
L 303.625393 -357.81306 
L 300.97874 -357.55252 
L 298.332087 -357.534279 
L 295.685433 -357.238192 
L 293.03878 -356.931515 
L 290.392127 -356.825315 
L 287.745473 -356.758534 
L 285.09882 -356.494525 
L 282.452167 -356.536257 
L 279.805513 -356.36866 
L 277.15886 -356.193543 
L 274.512207 -356.021764 
L 271.865553 -355.84816 
L 269.2189 -355.487471 
L 266.572247 -355.368547 
L 263.925593 -355.038246 
L 261.27894 -354.87532 
L 258.632287 -354.436817 
L 255.985633 -354.035063 
L 253.33898 -353.913247 
L 250.692327 -353.675442 
L 248.045673 -353.360224 
L 245.39902 -352.889776 
L 242.752367 -352.639514 
L 240.105713 -352.506976 
L 237.45906 -352.477256 
L 234.812407 -352.105311 
L 232.165753 -351.970147 
L 229.5191 -351.958224 
L 226.872447 -351.833694 
L 224.225793 -351.546771 
L 221.57914 -350.958111 
L 218.932487 -350.623939 
L 216.285833 -350.492646 
L 213.63918 -350.174491 
L 210.992527 -349.906967 
L 208.345873 -349.522253 
L 205.69922 -348.951879 
L 203.052567 -348.576553 
L 200.405913 -348.391915 
L 197.75926 -348.334655 
L 195.112607 -348.033629 
L 192.465953 -347.91337 
L 189.8193 -347.701771 
L 187.172647 -347.400923 
L 184.525993 -347.181849 
L 181.87934 -346.835087 
L 179.232687 -346.739831 
L 176.586033 -346.309292 
L 173.93938 -346.136756 
L 171.292727 -345.764989 
L 168.646073 -345.324796 
L 165.99942 -344.851723 
L 163.352767 -344.379807 
L 160.706113 -343.887381 
L 158.05946 -343.772905 
L 155.412807 -343.096287 
L 152.766153 -342.350662 
L 150.1195 -341.858369 
L 147.472847 -341.412347 
L 144.826193 -340.962988 
L 142.17954 -340.763491 
L 139.532887 -340.4109 
L 136.886233 -339.831271 
L 134.23958 -338.890331 
L 131.592927 -339.133652 
L 128.946273 -338.705382 
L 126.29962 -337.907214 
L 123.652967 -337.57104 
L 121.006313 -337.237535 
L 118.35966 -336.819187 
L 115.713007 -336.51825 
L 113.066353 -336.187771 
L 110.4197 -335.702374 
L 107.773047 -335.127951 
L 105.126393 -334.385485 
L 102.47974 -333.683106 
L 99.833087 -332.974943 
L 97.186433 -332.175618 
L 94.53978 -331.605288 
L 91.893127 -331.032778 
L 89.246473 -330.025502 
L 86.59982 -328.855967 
L 83.953167 -328.0053 
L 81.306513 -326.821661 
L 78.65986 -325.007097 
L 76.013207 -324.044134 
L 73.366553 -323.239336 
L 70.7199 -322.621846 
L 68.073247 -320.901735 
L 65.426593 -318.502247 
L 62.77994 -315.918745 
L 60.133287 -312.126689 
L 57.486633 -308.043929 
L 54.83998 -302.31894 
L 52.193327 -302.324702 
z
" style="stroke: #0000ff; stroke-opacity: 0.2"/>
    </defs>
    <g clip-path="url(#pf63fa98076)">
     <use xlink:href="#mdfaaa8853d" x="0" y="432" style="fill: #0000ff; fill-opacity: 0.2; stroke: #0000ff; stroke-opacity: 0.2"/>
    </g>
   </g>
   <g id="matplotlib.axis_1">
    <g id="xtick_1">
     <g id="line2d_1">
      <defs>
       <path id="m13673a643e" d="M 0 0 
L 0 3.5 
" style="stroke: #000000; stroke-width: 0.8"/>
      </defs>
      <g>
       <use xlink:href="#m13673a643e" x="181.87934" y="390.04" style="stroke: #000000; stroke-width: 0.8"/>
      </g>
     </g>
     <g id="text_1">
      <!-- 50 -->
      <g transform="translate(175.51684 404.638438) scale(0.1 -0.1)">
       <defs>
        <path id="DejaVuSans-35" d="M 691 4666 
L 3169 4666 
L 3169 4134 
L 1269 4134 
L 1269 2991 
Q 1406 3038 1543 3061 
Q 1681 3084 1819 3084 
Q 2600 3084 3056 2656 
Q 3513 2228 3513 1497 
Q 3513 744 3044 326 
Q 2575 -91 1722 -91 
Q 1428 -91 1123 -41 
Q 819 9 494 109 
L 494 744 
Q 775 591 1075 516 
Q 1375 441 1709 441 
Q 2250 441 2565 725 
Q 2881 1009 2881 1497 
Q 2881 1984 2565 2268 
Q 2250 2553 1709 2553 
Q 1456 2553 1204 2497 
Q 953 2441 691 2322 
L 691 4666 
z
" transform="scale(0.015625)"/>
        <path id="DejaVuSans-30" d="M 2034 4250 
Q 1547 4250 1301 3770 
Q 1056 3291 1056 2328 
Q 1056 1369 1301 889 
Q 1547 409 2034 409 
Q 2525 409 2770 889 
Q 3016 1369 3016 2328 
Q 3016 3291 2770 3770 
Q 2525 4250 2034 4250 
z
M 2034 4750 
Q 2819 4750 3233 4129 
Q 3647 3509 3647 2328 
Q 3647 1150 3233 529 
Q 2819 -91 2034 -91 
Q 1250 -91 836 529 
Q 422 1150 422 2328 
Q 422 3509 836 4129 
Q 1250 4750 2034 4750 
z
" transform="scale(0.015625)"/>
       </defs>
       <use xlink:href="#DejaVuSans-35"/>
       <use xlink:href="#DejaVuSans-30" transform="translate(63.623047 0)"/>
      </g>
     </g>
    </g>
    <g id="xtick_2">
     <g id="line2d_2">
      <g>
       <use xlink:href="#m13673a643e" x="314.212007" y="390.04" style="stroke: #000000; stroke-width: 0.8"/>
      </g>
     </g>
     <g id="text_2">
      <!-- 100 -->
      <g transform="translate(304.668257 404.638438) scale(0.1 -0.1)">
       <defs>
        <path id="DejaVuSans-31" d="M 794 531 
L 1825 531 
L 1825 4091 
L 703 3866 
L 703 4441 
L 1819 4666 
L 2450 4666 
L 2450 531 
L 3481 531 
L 3481 0 
L 794 0 
L 794 531 
z
" transform="scale(0.015625)"/>
       </defs>
       <use xlink:href="#DejaVuSans-31"/>
       <use xlink:href="#DejaVuSans-30" transform="translate(63.623047 0)"/>
       <use xlink:href="#DejaVuSans-30" transform="translate(127.246094 0)"/>
      </g>
     </g>
    </g>
    <g id="xtick_3">
     <g id="line2d_3">
      <g>
       <use xlink:href="#m13673a643e" x="446.544673" y="390.04" style="stroke: #000000; stroke-width: 0.8"/>
      </g>
     </g>
     <g id="text_3">
      <!-- 150 -->
      <g transform="translate(437.000923 404.638438) scale(0.1 -0.1)">
       <use xlink:href="#DejaVuSans-31"/>
       <use xlink:href="#DejaVuSans-35" transform="translate(63.623047 0)"/>
       <use xlink:href="#DejaVuSans-30" transform="translate(127.246094 0)"/>
      </g>
     </g>
    </g>
    <g id="xtick_4">
     <g id="line2d_4">
      <g>
       <use xlink:href="#m13673a643e" x="578.87734" y="390.04" style="stroke: #000000; stroke-width: 0.8"/>
      </g>
     </g>
     <g id="text_4">
      <!-- 200 -->
      <g transform="translate(569.33359 404.638438) scale(0.1 -0.1)">
       <defs>
        <path id="DejaVuSans-32" d="M 1228 531 
L 3431 531 
L 3431 0 
L 469 0 
L 469 531 
Q 828 903 1448 1529 
Q 2069 2156 2228 2338 
Q 2531 2678 2651 2914 
Q 2772 3150 2772 3378 
Q 2772 3750 2511 3984 
Q 2250 4219 1831 4219 
Q 1534 4219 1204 4116 
Q 875 4013 500 3803 
L 500 4441 
Q 881 4594 1212 4672 
Q 1544 4750 1819 4750 
Q 2544 4750 2975 4387 
Q 3406 4025 3406 3419 
Q 3406 3131 3298 2873 
Q 3191 2616 2906 2266 
Q 2828 2175 2409 1742 
Q 1991 1309 1228 531 
z
" transform="scale(0.015625)"/>
       </defs>
       <use xlink:href="#DejaVuSans-32"/>
       <use xlink:href="#DejaVuSans-30" transform="translate(63.623047 0)"/>
       <use xlink:href="#DejaVuSans-30" transform="translate(127.246094 0)"/>
      </g>
     </g>
    </g>
    <g id="xtick_5">
     <g id="line2d_5">
      <g>
       <use xlink:href="#m13673a643e" x="711.210007" y="390.04" style="stroke: #000000; stroke-width: 0.8"/>
      </g>
     </g>
     <g id="text_5">
      <!-- 250 -->
      <g transform="translate(701.666257 404.638438) scale(0.1 -0.1)">
       <use xlink:href="#DejaVuSans-32"/>
       <use xlink:href="#DejaVuSans-35" transform="translate(63.623047 0)"/>
       <use xlink:href="#DejaVuSans-30" transform="translate(127.246094 0)"/>
      </g>
     </g>
    </g>
    <g id="xtick_6">
     <g id="line2d_6">
      <g>
       <use xlink:href="#m13673a643e" x="843.542673" y="390.04" style="stroke: #000000; stroke-width: 0.8"/>
      </g>
     </g>
     <g id="text_6">
      <!-- 300 -->
      <g transform="translate(833.998923 404.638438) scale(0.1 -0.1)">
       <defs>
        <path id="DejaVuSans-33" d="M 2597 2516 
Q 3050 2419 3304 2112 
Q 3559 1806 3559 1356 
Q 3559 666 3084 287 
Q 2609 -91 1734 -91 
Q 1441 -91 1130 -33 
Q 819 25 488 141 
L 488 750 
Q 750 597 1062 519 
Q 1375 441 1716 441 
Q 2309 441 2620 675 
Q 2931 909 2931 1356 
Q 2931 1769 2642 2001 
Q 2353 2234 1838 2234 
L 1294 2234 
L 1294 2753 
L 1863 2753 
Q 2328 2753 2575 2939 
Q 2822 3125 2822 3475 
Q 2822 3834 2567 4026 
Q 2313 4219 1838 4219 
Q 1578 4219 1281 4162 
Q 984 4106 628 3988 
L 628 4550 
Q 988 4650 1302 4700 
Q 1616 4750 1894 4750 
Q 2613 4750 3031 4423 
Q 3450 4097 3450 3541 
Q 3450 3153 3228 2886 
Q 3006 2619 2597 2516 
z
" transform="scale(0.015625)"/>
       </defs>
       <use xlink:href="#DejaVuSans-33"/>
       <use xlink:href="#DejaVuSans-30" transform="translate(63.623047 0)"/>
       <use xlink:href="#DejaVuSans-30" transform="translate(127.246094 0)"/>
      </g>
     </g>
    </g>
    <g id="text_7">
     <!-- Step -->
     <g transform="translate(436.482844 418.316562) scale(0.1 -0.1)">
      <defs>
       <path id="DejaVuSans-53" d="M 3425 4513 
L 3425 3897 
Q 3066 4069 2747 4153 
Q 2428 4238 2131 4238 
Q 1616 4238 1336 4038 
Q 1056 3838 1056 3469 
Q 1056 3159 1242 3001 
Q 1428 2844 1947 2747 
L 2328 2669 
Q 3034 2534 3370 2195 
Q 3706 1856 3706 1288 
Q 3706 609 3251 259 
Q 2797 -91 1919 -91 
Q 1588 -91 1214 -16 
Q 841 59 441 206 
L 441 856 
Q 825 641 1194 531 
Q 1563 422 1919 422 
Q 2459 422 2753 634 
Q 3047 847 3047 1241 
Q 3047 1584 2836 1778 
Q 2625 1972 2144 2069 
L 1759 2144 
Q 1053 2284 737 2584 
Q 422 2884 422 3419 
Q 422 4038 858 4394 
Q 1294 4750 2059 4750 
Q 2388 4750 2728 4690 
Q 3069 4631 3425 4513 
z
" transform="scale(0.015625)"/>
       <path id="DejaVuSans-74" d="M 1172 4494 
L 1172 3500 
L 2356 3500 
L 2356 3053 
L 1172 3053 
L 1172 1153 
Q 1172 725 1289 603 
Q 1406 481 1766 481 
L 2356 481 
L 2356 0 
L 1766 0 
Q 1100 0 847 248 
Q 594 497 594 1153 
L 594 3053 
L 172 3053 
L 172 3500 
L 594 3500 
L 594 4494 
L 1172 4494 
z
" transform="scale(0.015625)"/>
       <path id="DejaVuSans-65" d="M 3597 1894 
L 3597 1613 
L 953 1613 
Q 991 1019 1311 708 
Q 1631 397 2203 397 
Q 2534 397 2845 478 
Q 3156 559 3463 722 
L 3463 178 
Q 3153 47 2828 -22 
Q 2503 -91 2169 -91 
Q 1331 -91 842 396 
Q 353 884 353 1716 
Q 353 2575 817 3079 
Q 1281 3584 2069 3584 
Q 2775 3584 3186 3129 
Q 3597 2675 3597 1894 
z
M 3022 2063 
Q 3016 2534 2758 2815 
Q 2500 3097 2075 3097 
Q 1594 3097 1305 2825 
Q 1016 2553 972 2059 
L 3022 2063 
z
" transform="scale(0.015625)"/>
       <path id="DejaVuSans-70" d="M 1159 525 
L 1159 -1331 
L 581 -1331 
L 581 3500 
L 1159 3500 
L 1159 2969 
Q 1341 3281 1617 3432 
Q 1894 3584 2278 3584 
Q 2916 3584 3314 3078 
Q 3713 2572 3713 1747 
Q 3713 922 3314 415 
Q 2916 -91 2278 -91 
Q 1894 -91 1617 61 
Q 1341 213 1159 525 
z
M 3116 1747 
Q 3116 2381 2855 2742 
Q 2594 3103 2138 3103 
Q 1681 3103 1420 2742 
Q 1159 2381 1159 1747 
Q 1159 1113 1420 752 
Q 1681 391 2138 391 
Q 2594 391 2855 752 
Q 3116 1113 3116 1747 
z
" transform="scale(0.015625)"/>
      </defs>
      <use xlink:href="#DejaVuSans-53"/>
      <use xlink:href="#DejaVuSans-74" transform="translate(63.476562 0)"/>
      <use xlink:href="#DejaVuSans-65" transform="translate(102.685547 0)"/>
      <use xlink:href="#DejaVuSans-70" transform="translate(164.208984 0)"/>
     </g>
    </g>
   </g>
   <g id="matplotlib.axis_2">
    <g id="ytick_1">
     <g id="line2d_7">
      <defs>
       <path id="m9d7ec8cc7a" d="M 0 0 
L -3.5 0 
" style="stroke: #000000; stroke-width: 0.8"/>
      </defs>
      <g>
       <use xlink:href="#m9d7ec8cc7a" x="50.87" y="351.812657" style="stroke: #000000; stroke-width: 0.8"/>
      </g>
     </g>
     <g id="text_8">
      <!-- 100 -->
      <g transform="translate(24.7825 355.611875) scale(0.1 -0.1)">
       <use xlink:href="#DejaVuSans-31"/>
       <use xlink:href="#DejaVuSans-30" transform="translate(63.623047 0)"/>
       <use xlink:href="#DejaVuSans-30" transform="translate(127.246094 0)"/>
      </g>
     </g>
    </g>
    <g id="ytick_2">
     <g id="line2d_8">
      <g>
       <use xlink:href="#m9d7ec8cc7a" x="50.87" y="278.918624" style="stroke: #000000; stroke-width: 0.8"/>
      </g>
     </g>
     <g id="text_9">
      <!-- 150 -->
      <g transform="translate(24.7825 282.717842) scale(0.1 -0.1)">
       <use xlink:href="#DejaVuSans-31"/>
       <use xlink:href="#DejaVuSans-35" transform="translate(63.623047 0)"/>
       <use xlink:href="#DejaVuSans-30" transform="translate(127.246094 0)"/>
      </g>
     </g>
    </g>
    <g id="ytick_3">
     <g id="line2d_9">
      <g>
       <use xlink:href="#m9d7ec8cc7a" x="50.87" y="206.02459" style="stroke: #000000; stroke-width: 0.8"/>
      </g>
     </g>
     <g id="text_10">
      <!-- 200 -->
      <g transform="translate(24.7825 209.823809) scale(0.1 -0.1)">
       <use xlink:href="#DejaVuSans-32"/>
       <use xlink:href="#DejaVuSans-30" transform="translate(63.623047 0)"/>
       <use xlink:href="#DejaVuSans-30" transform="translate(127.246094 0)"/>
      </g>
     </g>
    </g>
    <g id="ytick_4">
     <g id="line2d_10">
      <g>
       <use xlink:href="#m9d7ec8cc7a" x="50.87" y="133.130557" style="stroke: #000000; stroke-width: 0.8"/>
      </g>
     </g>
     <g id="text_11">
      <!-- 250 -->
      <g transform="translate(24.7825 136.929776) scale(0.1 -0.1)">
       <use xlink:href="#DejaVuSans-32"/>
       <use xlink:href="#DejaVuSans-35" transform="translate(63.623047 0)"/>
       <use xlink:href="#DejaVuSans-30" transform="translate(127.246094 0)"/>
      </g>
     </g>
    </g>
    <g id="ytick_5">
     <g id="line2d_11">
      <g>
       <use xlink:href="#m9d7ec8cc7a" x="50.87" y="60.236524" style="stroke: #000000; stroke-width: 0.8"/>
      </g>
     </g>
     <g id="text_12">
      <!-- 300 -->
      <g transform="translate(24.7825 64.035743) scale(0.1 -0.1)">
       <use xlink:href="#DejaVuSans-33"/>
       <use xlink:href="#DejaVuSans-30" transform="translate(63.623047 0)"/>
       <use xlink:href="#DejaVuSans-30" transform="translate(127.246094 0)"/>
      </g>
     </g>
    </g>
    <g id="text_13">
     <!-- Profit -->
     <g transform="translate(18.702813 229.779063) rotate(-90) scale(0.1 -0.1)">
      <defs>
       <path id="DejaVuSans-50" d="M 1259 4147 
L 1259 2394 
L 2053 2394 
Q 2494 2394 2734 2622 
Q 2975 2850 2975 3272 
Q 2975 3691 2734 3919 
Q 2494 4147 2053 4147 
L 1259 4147 
z
M 628 4666 
L 2053 4666 
Q 2838 4666 3239 4311 
Q 3641 3956 3641 3272 
Q 3641 2581 3239 2228 
Q 2838 1875 2053 1875 
L 1259 1875 
L 1259 0 
L 628 0 
L 628 4666 
z
" transform="scale(0.015625)"/>
       <path id="DejaVuSans-72" d="M 2631 2963 
Q 2534 3019 2420 3045 
Q 2306 3072 2169 3072 
Q 1681 3072 1420 2755 
Q 1159 2438 1159 1844 
L 1159 0 
L 581 0 
L 581 3500 
L 1159 3500 
L 1159 2956 
Q 1341 3275 1631 3429 
Q 1922 3584 2338 3584 
Q 2397 3584 2469 3576 
Q 2541 3569 2628 3553 
L 2631 2963 
z
" transform="scale(0.015625)"/>
       <path id="DejaVuSans-6f" d="M 1959 3097 
Q 1497 3097 1228 2736 
Q 959 2375 959 1747 
Q 959 1119 1226 758 
Q 1494 397 1959 397 
Q 2419 397 2687 759 
Q 2956 1122 2956 1747 
Q 2956 2369 2687 2733 
Q 2419 3097 1959 3097 
z
M 1959 3584 
Q 2709 3584 3137 3096 
Q 3566 2609 3566 1747 
Q 3566 888 3137 398 
Q 2709 -91 1959 -91 
Q 1206 -91 779 398 
Q 353 888 353 1747 
Q 353 2609 779 3096 
Q 1206 3584 1959 3584 
z
" transform="scale(0.015625)"/>
       <path id="DejaVuSans-66" d="M 2375 4863 
L 2375 4384 
L 1825 4384 
Q 1516 4384 1395 4259 
Q 1275 4134 1275 3809 
L 1275 3500 
L 2222 3500 
L 2222 3053 
L 1275 3053 
L 1275 0 
L 697 0 
L 697 3053 
L 147 3053 
L 147 3500 
L 697 3500 
L 697 3744 
Q 697 4328 969 4595 
Q 1241 4863 1831 4863 
L 2375 4863 
z
" transform="scale(0.015625)"/>
       <path id="DejaVuSans-69" d="M 603 3500 
L 1178 3500 
L 1178 0 
L 603 0 
L 603 3500 
z
M 603 4863 
L 1178 4863 
L 1178 4134 
L 603 4134 
L 603 4863 
z
" transform="scale(0.015625)"/>
      </defs>
      <use xlink:href="#DejaVuSans-50"/>
      <use xlink:href="#DejaVuSans-72" transform="translate(58.552734 0)"/>
      <use xlink:href="#DejaVuSans-6f" transform="translate(97.416016 0)"/>
      <use xlink:href="#DejaVuSans-66" transform="translate(158.597656 0)"/>
      <use xlink:href="#DejaVuSans-69" transform="translate(193.802734 0)"/>
      <use xlink:href="#DejaVuSans-74" transform="translate(221.585938 0)"/>
     </g>
    </g>
   </g>
   <g id="line2d_12">
    <path d="M 52.193327 251.980376 
L 54.83998 251.732895 
L 60.133287 237.043684 
L 62.77994 230.407298 
L 65.426593 224.601713 
L 68.073247 219.475907 
L 70.7199 214.736015 
L 73.366553 210.737031 
L 76.013207 207.072687 
L 78.65986 203.672597 
L 81.306513 200.491803 
L 83.953167 197.747977 
L 89.246473 193.079871 
L 94.53978 188.850424 
L 99.833087 185.257666 
L 107.773047 180.557683 
L 110.4197 179.166138 
L 115.713007 176.712949 
L 121.006313 174.123018 
L 131.592927 169.980796 
L 139.532887 167.15257 
L 147.472847 164.700516 
L 152.766153 163.266728 
L 158.05946 161.830803 
L 179.232687 157.120053 
L 203.052567 152.868583 
L 208.345873 152.186781 
L 210.992527 151.871251 
L 213.63918 151.331464 
L 237.45906 148.115278 
L 245.39902 147.143483 
L 255.985633 145.894888 
L 261.27894 145.255797 
L 290.392127 142.158335 
L 319.505313 139.681588 
L 332.73858 138.629755 
L 338.031887 138.21323 
L 406.844873 133.39499 
L 412.13818 133.073809 
L 417.431487 132.713922 
L 428.0181 132.145171 
L 433.311407 131.859472 
L 438.604713 131.507415 
L 454.484633 130.719658 
L 465.071247 130.142165 
L 486.244473 128.995743 
L 502.124393 128.310849 
L 510.064353 127.892033 
L 539.17754 126.708639 
L 549.764153 126.29861 
L 555.05746 126.125029 
L 594.75726 124.746832 
L 600.050567 124.563106 
L 621.223793 123.797283 
L 652.983633 122.847489 
L 671.510207 122.259496 
L 682.09682 121.949794 
L 690.03678 121.657711 
L 700.623393 121.330079 
L 724.443273 120.637533 
L 827.662753 118.067689 
L 835.602713 117.854355 
L 840.89602 117.803323 
L 843.542673 117.745485 
L 843.542673 117.745485 
" clip-path="url(#pf63fa98076)" style="fill: none; stroke: #0000ff; stroke-width: 1.5; stroke-linecap: square"/>
   </g>
   <g id="patch_3">
    <path d="M 50.87 390.04 
L 50.87 43.44 
" style="fill: none; stroke: #000000; stroke-width: 0.8; stroke-linejoin: miter; stroke-linecap: square"/>
   </g>
   <g id="patch_4">
    <path d="M 844.866 390.04 
L 844.866 43.44 
" style="fill: none; stroke: #000000; stroke-width: 0.8; stroke-linejoin: miter; stroke-linecap: square"/>
   </g>
   <g id="patch_5">
    <path d="M 50.87 390.04 
L 844.866 390.04 
" style="fill: none; stroke: #000000; stroke-width: 0.8; stroke-linejoin: miter; stroke-linecap: square"/>
   </g>
   <g id="patch_6">
    <path d="M 50.87 43.44 
L 844.866 43.44 
" style="fill: none; stroke: #000000; stroke-width: 0.8; stroke-linejoin: miter; stroke-linecap: square"/>
   </g>
   <g id="text_14">
    <!-- Mean profit per step with confidence interval per simulation step -->
    <g transform="translate(220.284875 21.763062) scale(0.14 -0.14)">
     <defs>
      <path id="DejaVuSans-4d" d="M 628 4666 
L 1569 4666 
L 2759 1491 
L 3956 4666 
L 4897 4666 
L 4897 0 
L 4281 0 
L 4281 4097 
L 3078 897 
L 2444 897 
L 1241 4097 
L 1241 0 
L 628 0 
L 628 4666 
z
" transform="scale(0.015625)"/>
      <path id="DejaVuSans-61" d="M 2194 1759 
Q 1497 1759 1228 1600 
Q 959 1441 959 1056 
Q 959 750 1161 570 
Q 1363 391 1709 391 
Q 2188 391 2477 730 
Q 2766 1069 2766 1631 
L 2766 1759 
L 2194 1759 
z
M 3341 1997 
L 3341 0 
L 2766 0 
L 2766 531 
Q 2569 213 2275 61 
Q 1981 -91 1556 -91 
Q 1019 -91 701 211 
Q 384 513 384 1019 
Q 384 1609 779 1909 
Q 1175 2209 1959 2209 
L 2766 2209 
L 2766 2266 
Q 2766 2663 2505 2880 
Q 2244 3097 1772 3097 
Q 1472 3097 1187 3025 
Q 903 2953 641 2809 
L 641 3341 
Q 956 3463 1253 3523 
Q 1550 3584 1831 3584 
Q 2591 3584 2966 3190 
Q 3341 2797 3341 1997 
z
" transform="scale(0.015625)"/>
      <path id="DejaVuSans-6e" d="M 3513 2113 
L 3513 0 
L 2938 0 
L 2938 2094 
Q 2938 2591 2744 2837 
Q 2550 3084 2163 3084 
Q 1697 3084 1428 2787 
Q 1159 2491 1159 1978 
L 1159 0 
L 581 0 
L 581 3500 
L 1159 3500 
L 1159 2956 
Q 1366 3272 1645 3428 
Q 1925 3584 2291 3584 
Q 2894 3584 3203 3211 
Q 3513 2838 3513 2113 
z
" transform="scale(0.015625)"/>
      <path id="DejaVuSans-20" transform="scale(0.015625)"/>
      <path id="DejaVuSans-73" d="M 2834 3397 
L 2834 2853 
Q 2591 2978 2328 3040 
Q 2066 3103 1784 3103 
Q 1356 3103 1142 2972 
Q 928 2841 928 2578 
Q 928 2378 1081 2264 
Q 1234 2150 1697 2047 
L 1894 2003 
Q 2506 1872 2764 1633 
Q 3022 1394 3022 966 
Q 3022 478 2636 193 
Q 2250 -91 1575 -91 
Q 1294 -91 989 -36 
Q 684 19 347 128 
L 347 722 
Q 666 556 975 473 
Q 1284 391 1588 391 
Q 1994 391 2212 530 
Q 2431 669 2431 922 
Q 2431 1156 2273 1281 
Q 2116 1406 1581 1522 
L 1381 1569 
Q 847 1681 609 1914 
Q 372 2147 372 2553 
Q 372 3047 722 3315 
Q 1072 3584 1716 3584 
Q 2034 3584 2315 3537 
Q 2597 3491 2834 3397 
z
" transform="scale(0.015625)"/>
      <path id="DejaVuSans-77" d="M 269 3500 
L 844 3500 
L 1563 769 
L 2278 3500 
L 2956 3500 
L 3675 769 
L 4391 3500 
L 4966 3500 
L 4050 0 
L 3372 0 
L 2619 2869 
L 1863 0 
L 1184 0 
L 269 3500 
z
" transform="scale(0.015625)"/>
      <path id="DejaVuSans-68" d="M 3513 2113 
L 3513 0 
L 2938 0 
L 2938 2094 
Q 2938 2591 2744 2837 
Q 2550 3084 2163 3084 
Q 1697 3084 1428 2787 
Q 1159 2491 1159 1978 
L 1159 0 
L 581 0 
L 581 4863 
L 1159 4863 
L 1159 2956 
Q 1366 3272 1645 3428 
Q 1925 3584 2291 3584 
Q 2894 3584 3203 3211 
Q 3513 2838 3513 2113 
z
" transform="scale(0.015625)"/>
      <path id="DejaVuSans-63" d="M 3122 3366 
L 3122 2828 
Q 2878 2963 2633 3030 
Q 2388 3097 2138 3097 
Q 1578 3097 1268 2742 
Q 959 2388 959 1747 
Q 959 1106 1268 751 
Q 1578 397 2138 397 
Q 2388 397 2633 464 
Q 2878 531 3122 666 
L 3122 134 
Q 2881 22 2623 -34 
Q 2366 -91 2075 -91 
Q 1284 -91 818 406 
Q 353 903 353 1747 
Q 353 2603 823 3093 
Q 1294 3584 2113 3584 
Q 2378 3584 2631 3529 
Q 2884 3475 3122 3366 
z
" transform="scale(0.015625)"/>
      <path id="DejaVuSans-64" d="M 2906 2969 
L 2906 4863 
L 3481 4863 
L 3481 0 
L 2906 0 
L 2906 525 
Q 2725 213 2448 61 
Q 2172 -91 1784 -91 
Q 1150 -91 751 415 
Q 353 922 353 1747 
Q 353 2572 751 3078 
Q 1150 3584 1784 3584 
Q 2172 3584 2448 3432 
Q 2725 3281 2906 2969 
z
M 947 1747 
Q 947 1113 1208 752 
Q 1469 391 1925 391 
Q 2381 391 2643 752 
Q 2906 1113 2906 1747 
Q 2906 2381 2643 2742 
Q 2381 3103 1925 3103 
Q 1469 3103 1208 2742 
Q 947 2381 947 1747 
z
" transform="scale(0.015625)"/>
      <path id="DejaVuSans-76" d="M 191 3500 
L 800 3500 
L 1894 563 
L 2988 3500 
L 3597 3500 
L 2284 0 
L 1503 0 
L 191 3500 
z
" transform="scale(0.015625)"/>
      <path id="DejaVuSans-6c" d="M 603 4863 
L 1178 4863 
L 1178 0 
L 603 0 
L 603 4863 
z
" transform="scale(0.015625)"/>
      <path id="DejaVuSans-6d" d="M 3328 2828 
Q 3544 3216 3844 3400 
Q 4144 3584 4550 3584 
Q 5097 3584 5394 3201 
Q 5691 2819 5691 2113 
L 5691 0 
L 5113 0 
L 5113 2094 
Q 5113 2597 4934 2840 
Q 4756 3084 4391 3084 
Q 3944 3084 3684 2787 
Q 3425 2491 3425 1978 
L 3425 0 
L 2847 0 
L 2847 2094 
Q 2847 2600 2669 2842 
Q 2491 3084 2119 3084 
Q 1678 3084 1418 2786 
Q 1159 2488 1159 1978 
L 1159 0 
L 581 0 
L 581 3500 
L 1159 3500 
L 1159 2956 
Q 1356 3278 1631 3431 
Q 1906 3584 2284 3584 
Q 2666 3584 2933 3390 
Q 3200 3197 3328 2828 
z
" transform="scale(0.015625)"/>
      <path id="DejaVuSans-75" d="M 544 1381 
L 544 3500 
L 1119 3500 
L 1119 1403 
Q 1119 906 1312 657 
Q 1506 409 1894 409 
Q 2359 409 2629 706 
Q 2900 1003 2900 1516 
L 2900 3500 
L 3475 3500 
L 3475 0 
L 2900 0 
L 2900 538 
Q 2691 219 2414 64 
Q 2138 -91 1772 -91 
Q 1169 -91 856 284 
Q 544 659 544 1381 
z
M 1991 3584 
L 1991 3584 
z
" transform="scale(0.015625)"/>
     </defs>
     <use xlink:href="#DejaVuSans-4d"/>
     <use xlink:href="#DejaVuSans-65" transform="translate(86.279297 0)"/>
     <use xlink:href="#DejaVuSans-61" transform="translate(147.802734 0)"/>
     <use xlink:href="#DejaVuSans-6e" transform="translate(209.082031 0)"/>
     <use xlink:href="#DejaVuSans-20" transform="translate(272.460938 0)"/>
     <use xlink:href="#DejaVuSans-70" transform="translate(304.248047 0)"/>
     <use xlink:href="#DejaVuSans-72" transform="translate(367.724609 0)"/>
     <use xlink:href="#DejaVuSans-6f" transform="translate(406.587891 0)"/>
     <use xlink:href="#DejaVuSans-66" transform="translate(467.769531 0)"/>
     <use xlink:href="#DejaVuSans-69" transform="translate(502.974609 0)"/>
     <use xlink:href="#DejaVuSans-74" transform="translate(530.757812 0)"/>
     <use xlink:href="#DejaVuSans-20" transform="translate(569.966797 0)"/>
     <use xlink:href="#DejaVuSans-70" transform="translate(601.753906 0)"/>
     <use xlink:href="#DejaVuSans-65" transform="translate(665.230469 0)"/>
     <use xlink:href="#DejaVuSans-72" transform="translate(726.753906 0)"/>
     <use xlink:href="#DejaVuSans-20" transform="translate(767.867188 0)"/>
     <use xlink:href="#DejaVuSans-73" transform="translate(799.654297 0)"/>
     <use xlink:href="#DejaVuSans-74" transform="translate(851.753906 0)"/>
     <use xlink:href="#DejaVuSans-65" transform="translate(890.962891 0)"/>
     <use xlink:href="#DejaVuSans-70" transform="translate(952.486328 0)"/>
     <use xlink:href="#DejaVuSans-20" transform="translate(1015.962891 0)"/>
     <use xlink:href="#DejaVuSans-77" transform="translate(1047.75 0)"/>
     <use xlink:href="#DejaVuSans-69" transform="translate(1129.537109 0)"/>
     <use xlink:href="#DejaVuSans-74" transform="translate(1157.320312 0)"/>
     <use xlink:href="#DejaVuSans-68" transform="translate(1196.529297 0)"/>
     <use xlink:href="#DejaVuSans-20" transform="translate(1259.908203 0)"/>
     <use xlink:href="#DejaVuSans-63" transform="translate(1291.695312 0)"/>
     <use xlink:href="#DejaVuSans-6f" transform="translate(1346.675781 0)"/>
     <use xlink:href="#DejaVuSans-6e" transform="translate(1407.857422 0)"/>
     <use xlink:href="#DejaVuSans-66" transform="translate(1471.236328 0)"/>
     <use xlink:href="#DejaVuSans-69" transform="translate(1506.441406 0)"/>
     <use xlink:href="#DejaVuSans-64" transform="translate(1534.224609 0)"/>
     <use xlink:href="#DejaVuSans-65" transform="translate(1597.701172 0)"/>
     <use xlink:href="#DejaVuSans-6e" transform="translate(1659.224609 0)"/>
     <use xlink:href="#DejaVuSans-63" transform="translate(1722.603516 0)"/>
     <use xlink:href="#DejaVuSans-65" transform="translate(1777.583984 0)"/>
     <use xlink:href="#DejaVuSans-20" transform="translate(1839.107422 0)"/>
     <use xlink:href="#DejaVuSans-69" transform="translate(1870.894531 0)"/>
     <use xlink:href="#DejaVuSans-6e" transform="translate(1898.677734 0)"/>
     <use xlink:href="#DejaVuSans-74" transform="translate(1962.056641 0)"/>
     <use xlink:href="#DejaVuSans-65" transform="translate(2001.265625 0)"/>
     <use xlink:href="#DejaVuSans-72" transform="translate(2062.789062 0)"/>
     <use xlink:href="#DejaVuSans-76" transform="translate(2103.902344 0)"/>
     <use xlink:href="#DejaVuSans-61" transform="translate(2163.082031 0)"/>
     <use xlink:href="#DejaVuSans-6c" transform="translate(2224.361328 0)"/>
     <use xlink:href="#DejaVuSans-20" transform="translate(2252.144531 0)"/>
     <use xlink:href="#DejaVuSans-70" transform="translate(2283.931641 0)"/>
     <use xlink:href="#DejaVuSans-65" transform="translate(2347.408203 0)"/>
     <use xlink:href="#DejaVuSans-72" transform="translate(2408.931641 0)"/>
     <use xlink:href="#DejaVuSans-20" transform="translate(2450.044922 0)"/>
     <use xlink:href="#DejaVuSans-73" transform="translate(2481.832031 0)"/>
     <use xlink:href="#DejaVuSans-69" transform="translate(2533.931641 0)"/>
     <use xlink:href="#DejaVuSans-6d" transform="translate(2561.714844 0)"/>
     <use xlink:href="#DejaVuSans-75" transform="translate(2659.126953 0)"/>
     <use xlink:href="#DejaVuSans-6c" transform="translate(2722.505859 0)"/>
     <use xlink:href="#DejaVuSans-61" transform="translate(2750.289062 0)"/>
     <use xlink:href="#DejaVuSans-74" transform="translate(2811.568359 0)"/>
     <use xlink:href="#DejaVuSans-69" transform="translate(2850.777344 0)"/>
     <use xlink:href="#DejaVuSans-6f" transform="translate(2878.560547 0)"/>
     <use xlink:href="#DejaVuSans-6e" transform="translate(2939.742188 0)"/>
     <use xlink:href="#DejaVuSans-20" transform="translate(3003.121094 0)"/>
     <use xlink:href="#DejaVuSans-73" transform="translate(3034.908203 0)"/>
     <use xlink:href="#DejaVuSans-74" transform="translate(3087.007812 0)"/>
     <use xlink:href="#DejaVuSans-65" transform="translate(3126.216797 0)"/>
     <use xlink:href="#DejaVuSans-70" transform="translate(3187.740234 0)"/>
    </g>
    <!-- Base Product: Meth, Recipe size: 10, T0: 20.0 -->
    <g transform="translate(289.427375 37.44) scale(0.14 -0.14)">
     <defs>
      <path id="DejaVuSans-42" d="M 1259 2228 
L 1259 519 
L 2272 519 
Q 2781 519 3026 730 
Q 3272 941 3272 1375 
Q 3272 1813 3026 2020 
Q 2781 2228 2272 2228 
L 1259 2228 
z
M 1259 4147 
L 1259 2741 
L 2194 2741 
Q 2656 2741 2882 2914 
Q 3109 3088 3109 3444 
Q 3109 3797 2882 3972 
Q 2656 4147 2194 4147 
L 1259 4147 
z
M 628 4666 
L 2241 4666 
Q 2963 4666 3353 4366 
Q 3744 4066 3744 3513 
Q 3744 3084 3544 2831 
Q 3344 2578 2956 2516 
Q 3422 2416 3680 2098 
Q 3938 1781 3938 1306 
Q 3938 681 3513 340 
Q 3088 0 2303 0 
L 628 0 
L 628 4666 
z
" transform="scale(0.015625)"/>
      <path id="DejaVuSans-3a" d="M 750 794 
L 1409 794 
L 1409 0 
L 750 0 
L 750 794 
z
M 750 3309 
L 1409 3309 
L 1409 2516 
L 750 2516 
L 750 3309 
z
" transform="scale(0.015625)"/>
      <path id="DejaVuSans-2c" d="M 750 794 
L 1409 794 
L 1409 256 
L 897 -744 
L 494 -744 
L 750 256 
L 750 794 
z
" transform="scale(0.015625)"/>
      <path id="DejaVuSans-52" d="M 2841 2188 
Q 3044 2119 3236 1894 
Q 3428 1669 3622 1275 
L 4263 0 
L 3584 0 
L 2988 1197 
Q 2756 1666 2539 1819 
Q 2322 1972 1947 1972 
L 1259 1972 
L 1259 0 
L 628 0 
L 628 4666 
L 2053 4666 
Q 2853 4666 3247 4331 
Q 3641 3997 3641 3322 
Q 3641 2881 3436 2590 
Q 3231 2300 2841 2188 
z
M 1259 4147 
L 1259 2491 
L 2053 2491 
Q 2509 2491 2742 2702 
Q 2975 2913 2975 3322 
Q 2975 3731 2742 3939 
Q 2509 4147 2053 4147 
L 1259 4147 
z
" transform="scale(0.015625)"/>
      <path id="DejaVuSans-7a" d="M 353 3500 
L 3084 3500 
L 3084 2975 
L 922 459 
L 3084 459 
L 3084 0 
L 275 0 
L 275 525 
L 2438 3041 
L 353 3041 
L 353 3500 
z
" transform="scale(0.015625)"/>
      <path id="DejaVuSans-54" d="M -19 4666 
L 3928 4666 
L 3928 4134 
L 2272 4134 
L 2272 0 
L 1638 0 
L 1638 4134 
L -19 4134 
L -19 4666 
z
" transform="scale(0.015625)"/>
      <path id="DejaVuSans-2e" d="M 684 794 
L 1344 794 
L 1344 0 
L 684 0 
L 684 794 
z
" transform="scale(0.015625)"/>
     </defs>
     <use xlink:href="#DejaVuSans-42"/>
     <use xlink:href="#DejaVuSans-61" transform="translate(68.603516 0)"/>
     <use xlink:href="#DejaVuSans-73" transform="translate(129.882812 0)"/>
     <use xlink:href="#DejaVuSans-65" transform="translate(181.982422 0)"/>
     <use xlink:href="#DejaVuSans-20" transform="translate(243.505859 0)"/>
     <use xlink:href="#DejaVuSans-50" transform="translate(275.292969 0)"/>
     <use xlink:href="#DejaVuSans-72" transform="translate(333.845703 0)"/>
     <use xlink:href="#DejaVuSans-6f" transform="translate(372.708984 0)"/>
     <use xlink:href="#DejaVuSans-64" transform="translate(433.890625 0)"/>
     <use xlink:href="#DejaVuSans-75" transform="translate(497.367188 0)"/>
     <use xlink:href="#DejaVuSans-63" transform="translate(560.746094 0)"/>
     <use xlink:href="#DejaVuSans-74" transform="translate(615.726562 0)"/>
     <use xlink:href="#DejaVuSans-3a" transform="translate(654.935547 0)"/>
     <use xlink:href="#DejaVuSans-20" transform="translate(688.626953 0)"/>
     <use xlink:href="#DejaVuSans-4d" transform="translate(720.414062 0)"/>
     <use xlink:href="#DejaVuSans-65" transform="translate(806.693359 0)"/>
     <use xlink:href="#DejaVuSans-74" transform="translate(868.216797 0)"/>
     <use xlink:href="#DejaVuSans-68" transform="translate(907.425781 0)"/>
     <use xlink:href="#DejaVuSans-2c" transform="translate(970.804688 0)"/>
     <use xlink:href="#DejaVuSans-20" transform="translate(1002.591797 0)"/>
     <use xlink:href="#DejaVuSans-52" transform="translate(1034.378906 0)"/>
     <use xlink:href="#DejaVuSans-65" transform="translate(1099.361328 0)"/>
     <use xlink:href="#DejaVuSans-63" transform="translate(1160.884766 0)"/>
     <use xlink:href="#DejaVuSans-69" transform="translate(1215.865234 0)"/>
     <use xlink:href="#DejaVuSans-70" transform="translate(1243.648438 0)"/>
     <use xlink:href="#DejaVuSans-65" transform="translate(1307.125 0)"/>
     <use xlink:href="#DejaVuSans-20" transform="translate(1368.648438 0)"/>
     <use xlink:href="#DejaVuSans-73" transform="translate(1400.435547 0)"/>
     <use xlink:href="#DejaVuSans-69" transform="translate(1452.535156 0)"/>
     <use xlink:href="#DejaVuSans-7a" transform="translate(1480.318359 0)"/>
     <use xlink:href="#DejaVuSans-65" transform="translate(1532.808594 0)"/>
     <use xlink:href="#DejaVuSans-3a" transform="translate(1594.332031 0)"/>
     <use xlink:href="#DejaVuSans-20" transform="translate(1628.023438 0)"/>
     <use xlink:href="#DejaVuSans-31" transform="translate(1659.810547 0)"/>
     <use xlink:href="#DejaVuSans-30" transform="translate(1723.433594 0)"/>
     <use xlink:href="#DejaVuSans-2c" transform="translate(1787.056641 0)"/>
     <use xlink:href="#DejaVuSans-20" transform="translate(1818.84375 0)"/>
     <use xlink:href="#DejaVuSans-54" transform="translate(1850.630859 0)"/>
     <use xlink:href="#DejaVuSans-30" transform="translate(1911.714844 0)"/>
     <use xlink:href="#DejaVuSans-3a" transform="translate(1975.337891 0)"/>
     <use xlink:href="#DejaVuSans-20" transform="translate(2009.029297 0)"/>
     <use xlink:href="#DejaVuSans-32" transform="translate(2040.816406 0)"/>
     <use xlink:href="#DejaVuSans-30" transform="translate(2104.439453 0)"/>
     <use xlink:href="#DejaVuSans-2e" transform="translate(2168.0625 0)"/>
     <use xlink:href="#DejaVuSans-30" transform="translate(2199.849609 0)"/>
    </g>
   </g>
  </g>
 </g>
 <defs>
  <clipPath id="pf63fa98076">
   <rect x="50.87" y="43.44" width="793.996" height="346.6"/>
  </clipPath>
 </defs>
</svg>
