<?xml version="1.0" encoding="utf-8" standalone="no"?>
<!DOCTYPE svg PUBLIC "-//W3C//DTD SVG 1.1//EN"
  "http://www.w3.org/Graphics/SVG/1.1/DTD/svg11.dtd">
<svg xmlns:xlink="http://www.w3.org/1999/xlink" width="864pt" height="432pt" viewBox="0 0 864 432" xmlns="http://www.w3.org/2000/svg" version="1.1">
 <metadata>
  <rdf:RDF xmlns:dc="http://purl.org/dc/elements/1.1/" xmlns:cc="http://creativecommons.org/ns#" xmlns:rdf="http://www.w3.org/1999/02/22-rdf-syntax-ns#">
   <cc:Work>
    <dc:type rdf:resource="http://purl.org/dc/dcmitype/StillImage"/>
    <dc:date>2025-05-24T02:19:33.151484</dc:date>
    <dc:format>image/svg+xml</dc:format>
    <dc:creator>
     <cc:Agent>
      <dc:title>Matplotlib v3.10.3, https://matplotlib.org/</dc:title>
     </cc:Agent>
    </dc:creator>
   </cc:Work>
  </rdf:RDF>
 </metadata>
 <defs>
  <style type="text/css">*{stroke-linejoin: round; stroke-linecap: butt}</style>
 </defs>
 <g id="figure_1">
  <g id="patch_1">
   <path d="M 0 432 
L 864 432 
L 864 0 
L 0 0 
z
" style="fill: #ffffff"/>
  </g>
  <g id="axes_1">
   <g id="patch_2">
    <path d="M 50.87 390.04 
L 844.866 390.04 
L 844.866 43.44 
L 50.87 43.44 
z
" style="fill: #ffffff"/>
   </g>
   <g id="FillBetweenPolyCollection_1">
    <defs>
     <path id="mb2184f45ce" d="M 52.193327 -303.195963 
L 52.193327 -57.714545 
L 54.83998 -58.608425 
L 57.486633 -73.381976 
L 60.133287 -86.348854 
L 62.77994 -98.1058 
L 65.426593 -108.17145 
L 68.073247 -117.466168 
L 70.7199 -125.724109 
L 73.366553 -132.861464 
L 76.013207 -139.058053 
L 78.65986 -144.780596 
L 81.306513 -150.003426 
L 83.953167 -154.391643 
L 86.59982 -158.851033 
L 89.246473 -163.265888 
L 91.893127 -166.957645 
L 94.53978 -170.501715 
L 97.186433 -173.989575 
L 99.833087 -177.050308 
L 102.47974 -179.788632 
L 105.126393 -182.189805 
L 107.773047 -184.582525 
L 110.4197 -186.790945 
L 113.066353 -188.701079 
L 115.713007 -190.514968 
L 118.35966 -192.334816 
L 121.006313 -194.291162 
L 123.652967 -196.238702 
L 126.29962 -197.697521 
L 128.946273 -198.905301 
L 131.592927 -200.009843 
L 134.23958 -201.501434 
L 136.886233 -202.96493 
L 139.532887 -204.305193 
L 142.17954 -205.599992 
L 144.826193 -206.512156 
L 147.472847 -207.819889 
L 150.1195 -208.888943 
L 152.766153 -209.867866 
L 155.412807 -210.742027 
L 158.05946 -211.778639 
L 160.706113 -212.783538 
L 163.352767 -213.547022 
L 165.99942 -214.545962 
L 168.646073 -215.465166 
L 171.292727 -216.393551 
L 173.93938 -217.035941 
L 176.586033 -217.874924 
L 179.232687 -218.75533 
L 181.87934 -219.495333 
L 184.525993 -220.204151 
L 187.172647 -221.135449 
L 189.8193 -221.773359 
L 192.465953 -222.309398 
L 195.112607 -223.001179 
L 197.75926 -223.63856 
L 200.405913 -224.45587 
L 203.052567 -225.299289 
L 205.69922 -225.897519 
L 208.345873 -226.482661 
L 210.992527 -227.136858 
L 213.63918 -227.71196 
L 216.285833 -228.352496 
L 218.932487 -228.673824 
L 221.57914 -229.000359 
L 224.225793 -229.393301 
L 226.872447 -229.909544 
L 229.5191 -230.350023 
L 232.165753 -230.833559 
L 234.812407 -231.405769 
L 237.45906 -231.754529 
L 240.105713 -232.116618 
L 242.752367 -232.556104 
L 245.39902 -232.992434 
L 248.045673 -233.319257 
L 250.692327 -233.752189 
L 253.33898 -234.030238 
L 255.985633 -234.366948 
L 258.632287 -234.82442 
L 261.27894 -235.117632 
L 263.925593 -235.509316 
L 266.572247 -235.787476 
L 269.2189 -236.224248 
L 271.865553 -236.65879 
L 274.512207 -236.952928 
L 277.15886 -237.283679 
L 279.805513 -237.684478 
L 282.452167 -237.962131 
L 285.09882 -238.298267 
L 287.745473 -238.65656 
L 290.392127 -238.882504 
L 293.03878 -239.147975 
L 295.685433 -239.375288 
L 298.332087 -239.622749 
L 300.97874 -239.905037 
L 303.625393 -240.32892 
L 306.272047 -240.506731 
L 308.9187 -240.797427 
L 311.565353 -241.220427 
L 314.212007 -241.497815 
L 316.85866 -241.886277 
L 319.505313 -242.046985 
L 322.151967 -242.278645 
L 324.79862 -242.5143 
L 327.445273 -242.73817 
L 330.091927 -243.046675 
L 332.73858 -243.303406 
L 335.385233 -243.554134 
L 338.031887 -243.982563 
L 340.67854 -244.225016 
L 343.325193 -244.485741 
L 345.971847 -244.686262 
L 348.6185 -244.994215 
L 351.265153 -245.271427 
L 353.911807 -245.525289 
L 356.55846 -245.767542 
L 359.205113 -245.956675 
L 361.851767 -246.180435 
L 364.49842 -246.315631 
L 367.145073 -246.605024 
L 369.791727 -246.785263 
L 372.43838 -246.961265 
L 375.085033 -247.173173 
L 377.731687 -247.452327 
L 380.37834 -247.71996 
L 383.024993 -247.797533 
L 385.671647 -247.988719 
L 388.3183 -248.158078 
L 390.964953 -248.378527 
L 393.611607 -248.596306 
L 396.25826 -248.816512 
L 398.904913 -249.0474 
L 401.551567 -249.254233 
L 404.19822 -249.40523 
L 406.844873 -249.550666 
L 409.491527 -249.68019 
L 412.13818 -249.853124 
L 414.784833 -250.10191 
L 417.431487 -250.269261 
L 420.07814 -250.343701 
L 422.724793 -250.448971 
L 425.371447 -250.604779 
L 428.0181 -250.726005 
L 430.664753 -251.027448 
L 433.311407 -251.138567 
L 435.95806 -251.334585 
L 438.604713 -251.544883 
L 441.251367 -251.728896 
L 443.89802 -251.845509 
L 446.544673 -252.003194 
L 449.191327 -252.136757 
L 451.83798 -252.254363 
L 454.484633 -252.437494 
L 457.131287 -252.701022 
L 459.77794 -252.865989 
L 462.424593 -253.059426 
L 465.071247 -253.169529 
L 467.7179 -253.269127 
L 470.364553 -253.459121 
L 473.011207 -253.632916 
L 475.65786 -253.776123 
L 478.304513 -253.940031 
L 480.951167 -254.074256 
L 483.59782 -254.335643 
L 486.244473 -254.583966 
L 488.891127 -254.775504 
L 491.53778 -254.870887 
L 494.184433 -255.028064 
L 496.831087 -255.152777 
L 499.47774 -255.222825 
L 502.124393 -255.367334 
L 504.771047 -255.518927 
L 507.4177 -255.627331 
L 510.064353 -255.770119 
L 512.711007 -255.829507 
L 515.35766 -256.017647 
L 518.004313 -256.147017 
L 520.650967 -256.260055 
L 523.29762 -256.346279 
L 525.944273 -256.556224 
L 528.590927 -256.732159 
L 531.23758 -256.807548 
L 533.884233 -256.880288 
L 536.530887 -256.988383 
L 539.17754 -257.223221 
L 541.824193 -257.222669 
L 544.470847 -257.437182 
L 547.1175 -257.565404 
L 549.764153 -257.633487 
L 552.410807 -257.728804 
L 555.05746 -257.840496 
L 557.704113 -258.011467 
L 560.350767 -258.226178 
L 562.99742 -258.305715 
L 565.644073 -258.427206 
L 568.290727 -258.620047 
L 570.93738 -258.693714 
L 573.584033 -258.885363 
L 576.230687 -258.888739 
L 578.87734 -259.089591 
L 581.523993 -259.234983 
L 584.170647 -259.306686 
L 586.8173 -259.402091 
L 589.463953 -259.459934 
L 592.110607 -259.549469 
L 594.75726 -259.599235 
L 597.403913 -259.66915 
L 600.050567 -259.872032 
L 602.69722 -260.002836 
L 605.343873 -260.171158 
L 607.990527 -260.317918 
L 610.63718 -260.44486 
L 613.283833 -260.581182 
L 615.930487 -260.713928 
L 618.57714 -260.803441 
L 621.223793 -260.869891 
L 623.870447 -261.014488 
L 626.5171 -261.182832 
L 629.163753 -261.304036 
L 631.810407 -261.37607 
L 634.45706 -261.447177 
L 637.103713 -261.562886 
L 639.750367 -261.63375 
L 642.39702 -261.765547 
L 645.043673 -261.827275 
L 647.690327 -261.908578 
L 650.33698 -262.071184 
L 652.983633 -262.132646 
L 655.630287 -262.242485 
L 658.27694 -262.388252 
L 660.923593 -262.525301 
L 663.570247 -262.57776 
L 666.2169 -262.673739 
L 668.863553 -262.824405 
L 671.510207 -262.835837 
L 674.15686 -262.951612 
L 676.803513 -263.039712 
L 679.450167 -263.125716 
L 682.09682 -263.286887 
L 684.743473 -263.321404 
L 687.390127 -263.407893 
L 690.03678 -263.589765 
L 692.683433 -263.696712 
L 695.330087 -263.722004 
L 697.97674 -263.754004 
L 700.623393 -263.877702 
L 703.270047 -263.915727 
L 705.9167 -264.010139 
L 708.563353 -264.104684 
L 711.210007 -264.218737 
L 713.85666 -264.331864 
L 716.503313 -264.376951 
L 719.149967 -264.408576 
L 721.79662 -264.549908 
L 724.443273 -264.6503 
L 727.089927 -264.78852 
L 729.73658 -264.882579 
L 732.383233 -264.950883 
L 735.029887 -265.050128 
L 737.67654 -265.11254 
L 740.323193 -265.183404 
L 742.969847 -265.310522 
L 745.6165 -265.393745 
L 748.263153 -265.463307 
L 750.909807 -265.667823 
L 753.55646 -265.700618 
L 756.203113 -265.819857 
L 758.849767 -265.84879 
L 761.49642 -265.946601 
L 764.143073 -266.137499 
L 766.789727 -266.210504 
L 769.43638 -266.263934 
L 772.083033 -266.307234 
L 774.729687 -266.405486 
L 777.37634 -266.477652 
L 780.022993 -266.585085 
L 782.669647 -266.71547 
L 785.3163 -266.771238 
L 787.962953 -266.828243 
L 790.609607 -266.923979 
L 793.25626 -266.99513 
L 795.902913 -267.073145 
L 798.549567 -267.170845 
L 801.19622 -267.232176 
L 803.842873 -267.302025 
L 806.489527 -267.382621 
L 809.13618 -267.467809 
L 811.782833 -267.542756 
L 814.429487 -267.677951 
L 817.07614 -267.735464 
L 819.722793 -267.826058 
L 822.369447 -267.872249 
L 825.0161 -267.961232 
L 827.662753 -268.056791 
L 830.309407 -268.167821 
L 832.95606 -268.233212 
L 835.602713 -268.249433 
L 838.249367 -268.290769 
L 840.89602 -268.299177 
L 843.542673 -268.355652 
L 843.542673 -372.805455 
L 843.542673 -372.805455 
L 840.89602 -372.745735 
L 838.249367 -372.646645 
L 835.602713 -372.595135 
L 832.95606 -372.529325 
L 830.309407 -372.478654 
L 827.662753 -372.473931 
L 825.0161 -372.474152 
L 822.369447 -372.462676 
L 819.722793 -372.391569 
L 817.07614 -372.357494 
L 814.429487 -372.3134 
L 811.782833 -372.302233 
L 809.13618 -372.238497 
L 806.489527 -372.240792 
L 803.842873 -372.227286 
L 801.19622 -372.136537 
L 798.549567 -372.120118 
L 795.902913 -372.123163 
L 793.25626 -372.092443 
L 790.609607 -372.06393 
L 787.962953 -372.067328 
L 785.3163 -371.98885 
L 782.669647 -371.932221 
L 780.022993 -371.933456 
L 777.37634 -371.89691 
L 774.729687 -371.843547 
L 772.083033 -371.825803 
L 769.43638 -371.74834 
L 766.789727 -371.667567 
L 764.143073 -371.602021 
L 761.49642 -371.626474 
L 758.849767 -371.592046 
L 756.203113 -371.552498 
L 753.55646 -371.56724 
L 750.909807 -371.524161 
L 748.263153 -371.566711 
L 745.6165 -371.514539 
L 742.969847 -371.479934 
L 740.323193 -371.426704 
L 737.67654 -371.395145 
L 735.029887 -371.333439 
L 732.383233 -371.312826 
L 729.73658 -371.264142 
L 727.089927 -371.190916 
L 724.443273 -371.13976 
L 721.79662 -371.113056 
L 719.149967 -371.09646 
L 716.503313 -371.009949 
L 713.85666 -370.936944 
L 711.210007 -370.927542 
L 708.563353 -370.916684 
L 705.9167 -370.893468 
L 703.270047 -370.859349 
L 700.623393 -370.812518 
L 697.97674 -370.75836 
L 695.330087 -370.670039 
L 692.683433 -370.578893 
L 690.03678 -370.577613 
L 687.390127 -370.57395 
L 684.743473 -370.511229 
L 682.09682 -370.441049 
L 679.450167 -370.467002 
L 676.803513 -370.400089 
L 674.15686 -370.343945 
L 671.510207 -370.351404 
L 668.863553 -370.195551 
L 666.2169 -370.209146 
L 663.570247 -370.137995 
L 660.923593 -370.062606 
L 658.27694 -370.00942 
L 655.630287 -369.990396 
L 652.983633 -369.935532 
L 650.33698 -369.876475 
L 647.690327 -369.854582 
L 645.043673 -369.787492 
L 642.39702 -369.724771 
L 639.750367 -369.659226 
L 637.103713 -369.601934 
L 634.45706 -369.590899 
L 631.810407 -369.484305 
L 629.163753 -369.388216 
L 626.5171 -369.35445 
L 623.870447 -369.381242 
L 621.223793 -369.35242 
L 618.57714 -369.261097 
L 615.930487 -369.195773 
L 613.283833 -369.139231 
L 610.63718 -369.094607 
L 607.990527 -369.021691 
L 605.343873 -368.959323 
L 602.69722 -368.977994 
L 600.050567 -368.972079 
L 597.403913 -369.002932 
L 594.75726 -368.930854 
L 592.110607 -368.830836 
L 589.463953 -368.766041 
L 586.8173 -368.702438 
L 584.170647 -368.652473 
L 581.523993 -368.546982 
L 578.87734 -368.481746 
L 576.230687 -368.5028 
L 573.584033 -368.324569 
L 570.93738 -368.353524 
L 568.290727 -368.236689 
L 565.644073 -368.246532 
L 562.99742 -368.180634 
L 560.350767 -368.091165 
L 557.704113 -368.100037 
L 555.05746 -368.085118 
L 552.410807 -368.050161 
L 549.764153 -367.9403 
L 547.1175 -367.811195 
L 544.470847 -367.719873 
L 541.824193 -367.72517 
L 539.17754 -367.57554 
L 536.530887 -367.557267 
L 533.884233 -367.488632 
L 531.23758 -367.407859 
L 528.590927 -367.285595 
L 525.944273 -367.250461 
L 523.29762 -367.211663 
L 520.650967 -367.103127 
L 518.004313 -367.044291 
L 515.35766 -366.947407 
L 512.711007 -366.933503 
L 510.064353 -366.77103 
L 507.4177 -366.728613 
L 504.771047 -366.6519 
L 502.124393 -366.530299 
L 499.47774 -366.435004 
L 496.831087 -366.350876 
L 494.184433 -366.24543 
L 491.53778 -366.182974 
L 488.891127 -366.076821 
L 486.244473 -366.003375 
L 483.59782 -365.980379 
L 480.951167 -365.959722 
L 478.304513 -365.883892 
L 475.65786 -365.834413 
L 473.011207 -365.753949 
L 470.364553 -365.616987 
L 467.7179 -365.507392 
L 465.071247 -365.395015 
L 462.424593 -365.270545 
L 459.77794 -365.235632 
L 457.131287 -365.157154 
L 454.484633 -365.146825 
L 451.83798 -365.068391 
L 449.191327 -364.905609 
L 446.544673 -364.789966 
L 443.89802 -364.729453 
L 441.251367 -364.549898 
L 438.604713 -364.487883 
L 435.95806 -364.395413 
L 433.311407 -364.316185 
L 430.664753 -364.174368 
L 428.0181 -364.162362 
L 425.371447 -364.020237 
L 422.724793 -363.942333 
L 420.07814 -363.824704 
L 417.431487 -363.6794 
L 414.784833 -363.575631 
L 412.13818 -363.548353 
L 409.491527 -363.403932 
L 406.844873 -363.205266 
L 404.19822 -363.106396 
L 401.551567 -362.967933 
L 398.904913 -362.869858 
L 396.25826 -362.863546 
L 393.611607 -362.743754 
L 390.964953 -362.669734 
L 388.3183 -362.527962 
L 385.671647 -362.389941 
L 383.024993 -362.275667 
L 380.37834 -362.075587 
L 377.731687 -361.966036 
L 375.085033 -361.891045 
L 372.43838 -361.70275 
L 369.791727 -361.509115 
L 367.145073 -361.363679 
L 364.49842 -361.282465 
L 361.851767 -361.028669 
L 359.205113 -360.907377 
L 356.55846 -360.715198 
L 353.911807 -360.622816 
L 351.265153 -360.569276 
L 348.6185 -360.409098 
L 345.971847 -360.215684 
L 343.325193 -360.02452 
L 340.67854 -359.959019 
L 338.031887 -359.82528 
L 335.385233 -359.755276 
L 332.73858 -359.664793 
L 330.091927 -359.494595 
L 327.445273 -359.387603 
L 324.79862 -359.19847 
L 322.151967 -359.036174 
L 319.505313 -358.914705 
L 316.85866 -358.707872 
L 314.212007 -358.64652 
L 311.565353 -358.436553 
L 308.9187 -358.375598 
L 306.272047 -358.233649 
L 303.625393 -357.956637 
L 300.97874 -357.874274 
L 298.332087 -357.714582 
L 295.685433 -357.472218 
L 293.03878 -357.272359 
L 290.392127 -357.068969 
L 287.745473 -356.830225 
L 285.09882 -356.761369 
L 282.452167 -356.604148 
L 279.805513 -356.429272 
L 277.15886 -356.305508 
L 274.512207 -356.148684 
L 271.865553 -355.970674 
L 269.2189 -355.810716 
L 266.572247 -355.686952 
L 263.925593 -355.420224 
L 261.27894 -355.256691 
L 258.632287 -354.955711 
L 255.985633 -354.792885 
L 253.33898 -354.529732 
L 250.692327 -354.196354 
L 248.045673 -353.935894 
L 245.39902 -353.657381 
L 242.752367 -353.543062 
L 240.105713 -353.304891 
L 237.45906 -352.989743 
L 234.812407 -352.709994 
L 232.165753 -352.603091 
L 229.5191 -352.329874 
L 226.872447 -352.099913 
L 224.225793 -351.826432 
L 221.57914 -351.568575 
L 218.932487 -351.139771 
L 216.285833 -350.796374 
L 213.63918 -350.666077 
L 210.992527 -350.385137 
L 208.345873 -350.27404 
L 205.69922 -349.976106 
L 203.052567 -349.654249 
L 200.405913 -349.494821 
L 197.75926 -349.252192 
L 195.112607 -348.905573 
L 192.465953 -348.531501 
L 189.8193 -348.113995 
L 187.172647 -347.783708 
L 184.525993 -347.706686 
L 181.87934 -347.3361 
L 179.232687 -347.03565 
L 176.586033 -346.700596 
L 173.93938 -346.387919 
L 171.292727 -345.892289 
L 168.646073 -345.652265 
L 165.99942 -345.245309 
L 163.352767 -345.008683 
L 160.706113 -344.517732 
L 158.05946 -344.212823 
L 155.412807 -343.933692 
L 152.766153 -343.391938 
L 150.1195 -342.922393 
L 147.472847 -342.359099 
L 144.826193 -342.169878 
L 142.17954 -341.514688 
L 139.532887 -341.119296 
L 136.886233 -340.715209 
L 134.23958 -340.298057 
L 131.592927 -339.768484 
L 128.946273 -339.010716 
L 126.29962 -338.235337 
L 123.652967 -337.696849 
L 121.006313 -337.296734 
L 118.35966 -336.762572 
L 115.713007 -336.251405 
L 113.066353 -335.671912 
L 110.4197 -334.929018 
L 107.773047 -334.199455 
L 105.126393 -333.518488 
L 102.47974 -332.604117 
L 99.833087 -332.062318 
L 97.186433 -331.360959 
L 94.53978 -330.915249 
L 91.893127 -330.226602 
L 89.246473 -329.622215 
L 86.59982 -329.208241 
L 83.953167 -328.12535 
L 81.306513 -326.845336 
L 78.65986 -325.819163 
L 76.013207 -324.759268 
L 73.366553 -323.256532 
L 70.7199 -321.623191 
L 68.073247 -319.788667 
L 65.426593 -317.464383 
L 62.77994 -314.97149 
L 60.133287 -311.642749 
L 57.486633 -307.303107 
L 54.83998 -302.098086 
L 52.193327 -303.195963 
z
" style="stroke: #0000ff; stroke-opacity: 0.2"/>
    </defs>
    <g clip-path="url(#p5dd8b3e1b0)">
     <use xlink:href="#mb2184f45ce" x="0" y="432" style="fill: #0000ff; fill-opacity: 0.2; stroke: #0000ff; stroke-opacity: 0.2"/>
    </g>
   </g>
   <g id="matplotlib.axis_1">
    <g id="xtick_1">
     <g id="line2d_1">
      <defs>
       <path id="m3af6ebaf13" d="M 0 0 
L 0 3.5 
" style="stroke: #000000; stroke-width: 0.8"/>
      </defs>
      <g>
       <use xlink:href="#m3af6ebaf13" x="181.87934" y="390.04" style="stroke: #000000; stroke-width: 0.8"/>
      </g>
     </g>
     <g id="text_1">
      <!-- 50 -->
      <g transform="translate(175.51684 404.638438) scale(0.1 -0.1)">
       <defs>
        <path id="DejaVuSans-35" d="M 691 4666 
L 3169 4666 
L 3169 4134 
L 1269 4134 
L 1269 2991 
Q 1406 3038 1543 3061 
Q 1681 3084 1819 3084 
Q 2600 3084 3056 2656 
Q 3513 2228 3513 1497 
Q 3513 744 3044 326 
Q 2575 -91 1722 -91 
Q 1428 -91 1123 -41 
Q 819 9 494 109 
L 494 744 
Q 775 591 1075 516 
Q 1375 441 1709 441 
Q 2250 441 2565 725 
Q 2881 1009 2881 1497 
Q 2881 1984 2565 2268 
Q 2250 2553 1709 2553 
Q 1456 2553 1204 2497 
Q 953 2441 691 2322 
L 691 4666 
z
" transform="scale(0.015625)"/>
        <path id="DejaVuSans-30" d="M 2034 4250 
Q 1547 4250 1301 3770 
Q 1056 3291 1056 2328 
Q 1056 1369 1301 889 
Q 1547 409 2034 409 
Q 2525 409 2770 889 
Q 3016 1369 3016 2328 
Q 3016 3291 2770 3770 
Q 2525 4250 2034 4250 
z
M 2034 4750 
Q 2819 4750 3233 4129 
Q 3647 3509 3647 2328 
Q 3647 1150 3233 529 
Q 2819 -91 2034 -91 
Q 1250 -91 836 529 
Q 422 1150 422 2328 
Q 422 3509 836 4129 
Q 1250 4750 2034 4750 
z
" transform="scale(0.015625)"/>
       </defs>
       <use xlink:href="#DejaVuSans-35"/>
       <use xlink:href="#DejaVuSans-30" transform="translate(63.623047 0)"/>
      </g>
     </g>
    </g>
    <g id="xtick_2">
     <g id="line2d_2">
      <g>
       <use xlink:href="#m3af6ebaf13" x="314.212007" y="390.04" style="stroke: #000000; stroke-width: 0.8"/>
      </g>
     </g>
     <g id="text_2">
      <!-- 100 -->
      <g transform="translate(304.668257 404.638438) scale(0.1 -0.1)">
       <defs>
        <path id="DejaVuSans-31" d="M 794 531 
L 1825 531 
L 1825 4091 
L 703 3866 
L 703 4441 
L 1819 4666 
L 2450 4666 
L 2450 531 
L 3481 531 
L 3481 0 
L 794 0 
L 794 531 
z
" transform="scale(0.015625)"/>
       </defs>
       <use xlink:href="#DejaVuSans-31"/>
       <use xlink:href="#DejaVuSans-30" transform="translate(63.623047 0)"/>
       <use xlink:href="#DejaVuSans-30" transform="translate(127.246094 0)"/>
      </g>
     </g>
    </g>
    <g id="xtick_3">
     <g id="line2d_3">
      <g>
       <use xlink:href="#m3af6ebaf13" x="446.544673" y="390.04" style="stroke: #000000; stroke-width: 0.8"/>
      </g>
     </g>
     <g id="text_3">
      <!-- 150 -->
      <g transform="translate(437.000923 404.638438) scale(0.1 -0.1)">
       <use xlink:href="#DejaVuSans-31"/>
       <use xlink:href="#DejaVuSans-35" transform="translate(63.623047 0)"/>
       <use xlink:href="#DejaVuSans-30" transform="translate(127.246094 0)"/>
      </g>
     </g>
    </g>
    <g id="xtick_4">
     <g id="line2d_4">
      <g>
       <use xlink:href="#m3af6ebaf13" x="578.87734" y="390.04" style="stroke: #000000; stroke-width: 0.8"/>
      </g>
     </g>
     <g id="text_4">
      <!-- 200 -->
      <g transform="translate(569.33359 404.638438) scale(0.1 -0.1)">
       <defs>
        <path id="DejaVuSans-32" d="M 1228 531 
L 3431 531 
L 3431 0 
L 469 0 
L 469 531 
Q 828 903 1448 1529 
Q 2069 2156 2228 2338 
Q 2531 2678 2651 2914 
Q 2772 3150 2772 3378 
Q 2772 3750 2511 3984 
Q 2250 4219 1831 4219 
Q 1534 4219 1204 4116 
Q 875 4013 500 3803 
L 500 4441 
Q 881 4594 1212 4672 
Q 1544 4750 1819 4750 
Q 2544 4750 2975 4387 
Q 3406 4025 3406 3419 
Q 3406 3131 3298 2873 
Q 3191 2616 2906 2266 
Q 2828 2175 2409 1742 
Q 1991 1309 1228 531 
z
" transform="scale(0.015625)"/>
       </defs>
       <use xlink:href="#DejaVuSans-32"/>
       <use xlink:href="#DejaVuSans-30" transform="translate(63.623047 0)"/>
       <use xlink:href="#DejaVuSans-30" transform="translate(127.246094 0)"/>
      </g>
     </g>
    </g>
    <g id="xtick_5">
     <g id="line2d_5">
      <g>
       <use xlink:href="#m3af6ebaf13" x="711.210007" y="390.04" style="stroke: #000000; stroke-width: 0.8"/>
      </g>
     </g>
     <g id="text_5">
      <!-- 250 -->
      <g transform="translate(701.666257 404.638438) scale(0.1 -0.1)">
       <use xlink:href="#DejaVuSans-32"/>
       <use xlink:href="#DejaVuSans-35" transform="translate(63.623047 0)"/>
       <use xlink:href="#DejaVuSans-30" transform="translate(127.246094 0)"/>
      </g>
     </g>
    </g>
    <g id="xtick_6">
     <g id="line2d_6">
      <g>
       <use xlink:href="#m3af6ebaf13" x="843.542673" y="390.04" style="stroke: #000000; stroke-width: 0.8"/>
      </g>
     </g>
     <g id="text_6">
      <!-- 300 -->
      <g transform="translate(833.998923 404.638438) scale(0.1 -0.1)">
       <defs>
        <path id="DejaVuSans-33" d="M 2597 2516 
Q 3050 2419 3304 2112 
Q 3559 1806 3559 1356 
Q 3559 666 3084 287 
Q 2609 -91 1734 -91 
Q 1441 -91 1130 -33 
Q 819 25 488 141 
L 488 750 
Q 750 597 1062 519 
Q 1375 441 1716 441 
Q 2309 441 2620 675 
Q 2931 909 2931 1356 
Q 2931 1769 2642 2001 
Q 2353 2234 1838 2234 
L 1294 2234 
L 1294 2753 
L 1863 2753 
Q 2328 2753 2575 2939 
Q 2822 3125 2822 3475 
Q 2822 3834 2567 4026 
Q 2313 4219 1838 4219 
Q 1578 4219 1281 4162 
Q 984 4106 628 3988 
L 628 4550 
Q 988 4650 1302 4700 
Q 1616 4750 1894 4750 
Q 2613 4750 3031 4423 
Q 3450 4097 3450 3541 
Q 3450 3153 3228 2886 
Q 3006 2619 2597 2516 
z
" transform="scale(0.015625)"/>
       </defs>
       <use xlink:href="#DejaVuSans-33"/>
       <use xlink:href="#DejaVuSans-30" transform="translate(63.623047 0)"/>
       <use xlink:href="#DejaVuSans-30" transform="translate(127.246094 0)"/>
      </g>
     </g>
    </g>
    <g id="text_7">
     <!-- Step -->
     <g transform="translate(436.482844 418.316562) scale(0.1 -0.1)">
      <defs>
       <path id="DejaVuSans-53" d="M 3425 4513 
L 3425 3897 
Q 3066 4069 2747 4153 
Q 2428 4238 2131 4238 
Q 1616 4238 1336 4038 
Q 1056 3838 1056 3469 
Q 1056 3159 1242 3001 
Q 1428 2844 1947 2747 
L 2328 2669 
Q 3034 2534 3370 2195 
Q 3706 1856 3706 1288 
Q 3706 609 3251 259 
Q 2797 -91 1919 -91 
Q 1588 -91 1214 -16 
Q 841 59 441 206 
L 441 856 
Q 825 641 1194 531 
Q 1563 422 1919 422 
Q 2459 422 2753 634 
Q 3047 847 3047 1241 
Q 3047 1584 2836 1778 
Q 2625 1972 2144 2069 
L 1759 2144 
Q 1053 2284 737 2584 
Q 422 2884 422 3419 
Q 422 4038 858 4394 
Q 1294 4750 2059 4750 
Q 2388 4750 2728 4690 
Q 3069 4631 3425 4513 
z
" transform="scale(0.015625)"/>
       <path id="DejaVuSans-74" d="M 1172 4494 
L 1172 3500 
L 2356 3500 
L 2356 3053 
L 1172 3053 
L 1172 1153 
Q 1172 725 1289 603 
Q 1406 481 1766 481 
L 2356 481 
L 2356 0 
L 1766 0 
Q 1100 0 847 248 
Q 594 497 594 1153 
L 594 3053 
L 172 3053 
L 172 3500 
L 594 3500 
L 594 4494 
L 1172 4494 
z
" transform="scale(0.015625)"/>
       <path id="DejaVuSans-65" d="M 3597 1894 
L 3597 1613 
L 953 1613 
Q 991 1019 1311 708 
Q 1631 397 2203 397 
Q 2534 397 2845 478 
Q 3156 559 3463 722 
L 3463 178 
Q 3153 47 2828 -22 
Q 2503 -91 2169 -91 
Q 1331 -91 842 396 
Q 353 884 353 1716 
Q 353 2575 817 3079 
Q 1281 3584 2069 3584 
Q 2775 3584 3186 3129 
Q 3597 2675 3597 1894 
z
M 3022 2063 
Q 3016 2534 2758 2815 
Q 2500 3097 2075 3097 
Q 1594 3097 1305 2825 
Q 1016 2553 972 2059 
L 3022 2063 
z
" transform="scale(0.015625)"/>
       <path id="DejaVuSans-70" d="M 1159 525 
L 1159 -1331 
L 581 -1331 
L 581 3500 
L 1159 3500 
L 1159 2969 
Q 1341 3281 1617 3432 
Q 1894 3584 2278 3584 
Q 2916 3584 3314 3078 
Q 3713 2572 3713 1747 
Q 3713 922 3314 415 
Q 2916 -91 2278 -91 
Q 1894 -91 1617 61 
Q 1341 213 1159 525 
z
M 3116 1747 
Q 3116 2381 2855 2742 
Q 2594 3103 2138 3103 
Q 1681 3103 1420 2742 
Q 1159 2381 1159 1747 
Q 1159 1113 1420 752 
Q 1681 391 2138 391 
Q 2594 391 2855 752 
Q 3116 1113 3116 1747 
z
" transform="scale(0.015625)"/>
      </defs>
      <use xlink:href="#DejaVuSans-53"/>
      <use xlink:href="#DejaVuSans-74" transform="translate(63.476562 0)"/>
      <use xlink:href="#DejaVuSans-65" transform="translate(102.685547 0)"/>
      <use xlink:href="#DejaVuSans-70" transform="translate(164.208984 0)"/>
     </g>
    </g>
   </g>
   <g id="matplotlib.axis_2">
    <g id="ytick_1">
     <g id="line2d_7">
      <defs>
       <path id="mdd5b26b8b9" d="M 0 0 
L -3.5 0 
" style="stroke: #000000; stroke-width: 0.8"/>
      </defs>
      <g>
       <use xlink:href="#mdd5b26b8b9" x="50.87" y="350.001724" style="stroke: #000000; stroke-width: 0.8"/>
      </g>
     </g>
     <g id="text_8">
      <!-- 100 -->
      <g transform="translate(24.7825 353.800943) scale(0.1 -0.1)">
       <use xlink:href="#DejaVuSans-31"/>
       <use xlink:href="#DejaVuSans-30" transform="translate(63.623047 0)"/>
       <use xlink:href="#DejaVuSans-30" transform="translate(127.246094 0)"/>
      </g>
     </g>
    </g>
    <g id="ytick_2">
     <g id="line2d_8">
      <g>
       <use xlink:href="#mdd5b26b8b9" x="50.87" y="277.685379" style="stroke: #000000; stroke-width: 0.8"/>
      </g>
     </g>
     <g id="text_9">
      <!-- 150 -->
      <g transform="translate(24.7825 281.484598) scale(0.1 -0.1)">
       <use xlink:href="#DejaVuSans-31"/>
       <use xlink:href="#DejaVuSans-35" transform="translate(63.623047 0)"/>
       <use xlink:href="#DejaVuSans-30" transform="translate(127.246094 0)"/>
      </g>
     </g>
    </g>
    <g id="ytick_3">
     <g id="line2d_9">
      <g>
       <use xlink:href="#mdd5b26b8b9" x="50.87" y="205.369034" style="stroke: #000000; stroke-width: 0.8"/>
      </g>
     </g>
     <g id="text_10">
      <!-- 200 -->
      <g transform="translate(24.7825 209.168253) scale(0.1 -0.1)">
       <use xlink:href="#DejaVuSans-32"/>
       <use xlink:href="#DejaVuSans-30" transform="translate(63.623047 0)"/>
       <use xlink:href="#DejaVuSans-30" transform="translate(127.246094 0)"/>
      </g>
     </g>
    </g>
    <g id="ytick_4">
     <g id="line2d_10">
      <g>
       <use xlink:href="#mdd5b26b8b9" x="50.87" y="133.052689" style="stroke: #000000; stroke-width: 0.8"/>
      </g>
     </g>
     <g id="text_11">
      <!-- 250 -->
      <g transform="translate(24.7825 136.851907) scale(0.1 -0.1)">
       <use xlink:href="#DejaVuSans-32"/>
       <use xlink:href="#DejaVuSans-35" transform="translate(63.623047 0)"/>
       <use xlink:href="#DejaVuSans-30" transform="translate(127.246094 0)"/>
      </g>
     </g>
    </g>
    <g id="ytick_5">
     <g id="line2d_11">
      <g>
       <use xlink:href="#mdd5b26b8b9" x="50.87" y="60.736344" style="stroke: #000000; stroke-width: 0.8"/>
      </g>
     </g>
     <g id="text_12">
      <!-- 300 -->
      <g transform="translate(24.7825 64.535562) scale(0.1 -0.1)">
       <use xlink:href="#DejaVuSans-33"/>
       <use xlink:href="#DejaVuSans-30" transform="translate(63.623047 0)"/>
       <use xlink:href="#DejaVuSans-30" transform="translate(127.246094 0)"/>
      </g>
     </g>
    </g>
    <g id="text_13">
     <!-- Profit -->
     <g transform="translate(18.702813 229.779063) rotate(-90) scale(0.1 -0.1)">
      <defs>
       <path id="DejaVuSans-50" d="M 1259 4147 
L 1259 2394 
L 2053 2394 
Q 2494 2394 2734 2622 
Q 2975 2850 2975 3272 
Q 2975 3691 2734 3919 
Q 2494 4147 2053 4147 
L 1259 4147 
z
M 628 4666 
L 2053 4666 
Q 2838 4666 3239 4311 
Q 3641 3956 3641 3272 
Q 3641 2581 3239 2228 
Q 2838 1875 2053 1875 
L 1259 1875 
L 1259 0 
L 628 0 
L 628 4666 
z
" transform="scale(0.015625)"/>
       <path id="DejaVuSans-72" d="M 2631 2963 
Q 2534 3019 2420 3045 
Q 2306 3072 2169 3072 
Q 1681 3072 1420 2755 
Q 1159 2438 1159 1844 
L 1159 0 
L 581 0 
L 581 3500 
L 1159 3500 
L 1159 2956 
Q 1341 3275 1631 3429 
Q 1922 3584 2338 3584 
Q 2397 3584 2469 3576 
Q 2541 3569 2628 3553 
L 2631 2963 
z
" transform="scale(0.015625)"/>
       <path id="DejaVuSans-6f" d="M 1959 3097 
Q 1497 3097 1228 2736 
Q 959 2375 959 1747 
Q 959 1119 1226 758 
Q 1494 397 1959 397 
Q 2419 397 2687 759 
Q 2956 1122 2956 1747 
Q 2956 2369 2687 2733 
Q 2419 3097 1959 3097 
z
M 1959 3584 
Q 2709 3584 3137 3096 
Q 3566 2609 3566 1747 
Q 3566 888 3137 398 
Q 2709 -91 1959 -91 
Q 1206 -91 779 398 
Q 353 888 353 1747 
Q 353 2609 779 3096 
Q 1206 3584 1959 3584 
z
" transform="scale(0.015625)"/>
       <path id="DejaVuSans-66" d="M 2375 4863 
L 2375 4384 
L 1825 4384 
Q 1516 4384 1395 4259 
Q 1275 4134 1275 3809 
L 1275 3500 
L 2222 3500 
L 2222 3053 
L 1275 3053 
L 1275 0 
L 697 0 
L 697 3053 
L 147 3053 
L 147 3500 
L 697 3500 
L 697 3744 
Q 697 4328 969 4595 
Q 1241 4863 1831 4863 
L 2375 4863 
z
" transform="scale(0.015625)"/>
       <path id="DejaVuSans-69" d="M 603 3500 
L 1178 3500 
L 1178 0 
L 603 0 
L 603 3500 
z
M 603 4863 
L 1178 4863 
L 1178 4134 
L 603 4134 
L 603 4863 
z
" transform="scale(0.015625)"/>
      </defs>
      <use xlink:href="#DejaVuSans-50"/>
      <use xlink:href="#DejaVuSans-72" transform="translate(58.552734 0)"/>
      <use xlink:href="#DejaVuSans-6f" transform="translate(97.416016 0)"/>
      <use xlink:href="#DejaVuSans-66" transform="translate(158.597656 0)"/>
      <use xlink:href="#DejaVuSans-69" transform="translate(193.802734 0)"/>
      <use xlink:href="#DejaVuSans-74" transform="translate(221.585938 0)"/>
     </g>
    </g>
   </g>
   <g id="line2d_12">
    <path d="M 52.193327 251.544746 
L 54.83998 251.64675 
L 57.486633 241.657459 
L 60.133287 233.004193 
L 62.77994 225.46136 
L 65.426593 219.182078 
L 68.073247 213.372583 
L 70.7199 208.32635 
L 73.366553 203.941002 
L 76.013207 200.09134 
L 78.65986 196.700121 
L 81.306513 193.57563 
L 86.59982 187.970363 
L 89.246473 185.555949 
L 94.53978 181.291518 
L 99.833087 177.443687 
L 107.773047 172.60901 
L 110.4197 171.140018 
L 113.066353 169.813505 
L 123.652967 165.032235 
L 134.23958 161.100255 
L 139.532887 159.287756 
L 144.826193 157.658983 
L 158.05946 154.004258 
L 168.646073 151.441295 
L 184.525993 148.044581 
L 205.69922 144.063188 
L 213.63918 142.810981 
L 221.57914 141.715533 
L 229.5191 140.660051 
L 237.45906 139.627875 
L 250.692327 138.02574 
L 271.865553 135.685257 
L 319.505313 131.519144 
L 330.091927 130.729354 
L 351.265153 129.079659 
L 364.49842 128.200952 
L 385.671647 126.810659 
L 420.07814 124.915798 
L 433.311407 124.272635 
L 465.071247 122.717728 
L 480.951167 121.983 
L 494.184433 121.363253 
L 520.650967 120.318409 
L 589.463953 117.887001 
L 713.85666 114.365596 
L 740.323193 113.694957 
L 750.909807 113.403997 
L 764.143073 113.130251 
L 795.902913 112.401835 
L 830.309407 111.676773 
L 843.542673 111.419447 
L 843.542673 111.419447 
" clip-path="url(#p5dd8b3e1b0)" style="fill: none; stroke: #0000ff; stroke-width: 1.5; stroke-linecap: square"/>
   </g>
   <g id="patch_3">
    <path d="M 50.87 390.04 
L 50.87 43.44 
" style="fill: none; stroke: #000000; stroke-width: 0.8; stroke-linejoin: miter; stroke-linecap: square"/>
   </g>
   <g id="patch_4">
    <path d="M 844.866 390.04 
L 844.866 43.44 
" style="fill: none; stroke: #000000; stroke-width: 0.8; stroke-linejoin: miter; stroke-linecap: square"/>
   </g>
   <g id="patch_5">
    <path d="M 50.87 390.04 
L 844.866 390.04 
" style="fill: none; stroke: #000000; stroke-width: 0.8; stroke-linejoin: miter; stroke-linecap: square"/>
   </g>
   <g id="patch_6">
    <path d="M 50.87 43.44 
L 844.866 43.44 
" style="fill: none; stroke: #000000; stroke-width: 0.8; stroke-linejoin: miter; stroke-linecap: square"/>
   </g>
   <g id="text_14">
    <!-- Mean profit per step with confidence interval per simulation step -->
    <g transform="translate(220.284875 21.763062) scale(0.14 -0.14)">
     <defs>
      <path id="DejaVuSans-4d" d="M 628 4666 
L 1569 4666 
L 2759 1491 
L 3956 4666 
L 4897 4666 
L 4897 0 
L 4281 0 
L 4281 4097 
L 3078 897 
L 2444 897 
L 1241 4097 
L 1241 0 
L 628 0 
L 628 4666 
z
" transform="scale(0.015625)"/>
      <path id="DejaVuSans-61" d="M 2194 1759 
Q 1497 1759 1228 1600 
Q 959 1441 959 1056 
Q 959 750 1161 570 
Q 1363 391 1709 391 
Q 2188 391 2477 730 
Q 2766 1069 2766 1631 
L 2766 1759 
L 2194 1759 
z
M 3341 1997 
L 3341 0 
L 2766 0 
L 2766 531 
Q 2569 213 2275 61 
Q 1981 -91 1556 -91 
Q 1019 -91 701 211 
Q 384 513 384 1019 
Q 384 1609 779 1909 
Q 1175 2209 1959 2209 
L 2766 2209 
L 2766 2266 
Q 2766 2663 2505 2880 
Q 2244 3097 1772 3097 
Q 1472 3097 1187 3025 
Q 903 2953 641 2809 
L 641 3341 
Q 956 3463 1253 3523 
Q 1550 3584 1831 3584 
Q 2591 3584 2966 3190 
Q 3341 2797 3341 1997 
z
" transform="scale(0.015625)"/>
      <path id="DejaVuSans-6e" d="M 3513 2113 
L 3513 0 
L 2938 0 
L 2938 2094 
Q 2938 2591 2744 2837 
Q 2550 3084 2163 3084 
Q 1697 3084 1428 2787 
Q 1159 2491 1159 1978 
L 1159 0 
L 581 0 
L 581 3500 
L 1159 3500 
L 1159 2956 
Q 1366 3272 1645 3428 
Q 1925 3584 2291 3584 
Q 2894 3584 3203 3211 
Q 3513 2838 3513 2113 
z
" transform="scale(0.015625)"/>
      <path id="DejaVuSans-20" transform="scale(0.015625)"/>
      <path id="DejaVuSans-73" d="M 2834 3397 
L 2834 2853 
Q 2591 2978 2328 3040 
Q 2066 3103 1784 3103 
Q 1356 3103 1142 2972 
Q 928 2841 928 2578 
Q 928 2378 1081 2264 
Q 1234 2150 1697 2047 
L 1894 2003 
Q 2506 1872 2764 1633 
Q 3022 1394 3022 966 
Q 3022 478 2636 193 
Q 2250 -91 1575 -91 
Q 1294 -91 989 -36 
Q 684 19 347 128 
L 347 722 
Q 666 556 975 473 
Q 1284 391 1588 391 
Q 1994 391 2212 530 
Q 2431 669 2431 922 
Q 2431 1156 2273 1281 
Q 2116 1406 1581 1522 
L 1381 1569 
Q 847 1681 609 1914 
Q 372 2147 372 2553 
Q 372 3047 722 3315 
Q 1072 3584 1716 3584 
Q 2034 3584 2315 3537 
Q 2597 3491 2834 3397 
z
" transform="scale(0.015625)"/>
      <path id="DejaVuSans-77" d="M 269 3500 
L 844 3500 
L 1563 769 
L 2278 3500 
L 2956 3500 
L 3675 769 
L 4391 3500 
L 4966 3500 
L 4050 0 
L 3372 0 
L 2619 2869 
L 1863 0 
L 1184 0 
L 269 3500 
z
" transform="scale(0.015625)"/>
      <path id="DejaVuSans-68" d="M 3513 2113 
L 3513 0 
L 2938 0 
L 2938 2094 
Q 2938 2591 2744 2837 
Q 2550 3084 2163 3084 
Q 1697 3084 1428 2787 
Q 1159 2491 1159 1978 
L 1159 0 
L 581 0 
L 581 4863 
L 1159 4863 
L 1159 2956 
Q 1366 3272 1645 3428 
Q 1925 3584 2291 3584 
Q 2894 3584 3203 3211 
Q 3513 2838 3513 2113 
z
" transform="scale(0.015625)"/>
      <path id="DejaVuSans-63" d="M 3122 3366 
L 3122 2828 
Q 2878 2963 2633 3030 
Q 2388 3097 2138 3097 
Q 1578 3097 1268 2742 
Q 959 2388 959 1747 
Q 959 1106 1268 751 
Q 1578 397 2138 397 
Q 2388 397 2633 464 
Q 2878 531 3122 666 
L 3122 134 
Q 2881 22 2623 -34 
Q 2366 -91 2075 -91 
Q 1284 -91 818 406 
Q 353 903 353 1747 
Q 353 2603 823 3093 
Q 1294 3584 2113 3584 
Q 2378 3584 2631 3529 
Q 2884 3475 3122 3366 
z
" transform="scale(0.015625)"/>
      <path id="DejaVuSans-64" d="M 2906 2969 
L 2906 4863 
L 3481 4863 
L 3481 0 
L 2906 0 
L 2906 525 
Q 2725 213 2448 61 
Q 2172 -91 1784 -91 
Q 1150 -91 751 415 
Q 353 922 353 1747 
Q 353 2572 751 3078 
Q 1150 3584 1784 3584 
Q 2172 3584 2448 3432 
Q 2725 3281 2906 2969 
z
M 947 1747 
Q 947 1113 1208 752 
Q 1469 391 1925 391 
Q 2381 391 2643 752 
Q 2906 1113 2906 1747 
Q 2906 2381 2643 2742 
Q 2381 3103 1925 3103 
Q 1469 3103 1208 2742 
Q 947 2381 947 1747 
z
" transform="scale(0.015625)"/>
      <path id="DejaVuSans-76" d="M 191 3500 
L 800 3500 
L 1894 563 
L 2988 3500 
L 3597 3500 
L 2284 0 
L 1503 0 
L 191 3500 
z
" transform="scale(0.015625)"/>
      <path id="DejaVuSans-6c" d="M 603 4863 
L 1178 4863 
L 1178 0 
L 603 0 
L 603 4863 
z
" transform="scale(0.015625)"/>
      <path id="DejaVuSans-6d" d="M 3328 2828 
Q 3544 3216 3844 3400 
Q 4144 3584 4550 3584 
Q 5097 3584 5394 3201 
Q 5691 2819 5691 2113 
L 5691 0 
L 5113 0 
L 5113 2094 
Q 5113 2597 4934 2840 
Q 4756 3084 4391 3084 
Q 3944 3084 3684 2787 
Q 3425 2491 3425 1978 
L 3425 0 
L 2847 0 
L 2847 2094 
Q 2847 2600 2669 2842 
Q 2491 3084 2119 3084 
Q 1678 3084 1418 2786 
Q 1159 2488 1159 1978 
L 1159 0 
L 581 0 
L 581 3500 
L 1159 3500 
L 1159 2956 
Q 1356 3278 1631 3431 
Q 1906 3584 2284 3584 
Q 2666 3584 2933 3390 
Q 3200 3197 3328 2828 
z
" transform="scale(0.015625)"/>
      <path id="DejaVuSans-75" d="M 544 1381 
L 544 3500 
L 1119 3500 
L 1119 1403 
Q 1119 906 1312 657 
Q 1506 409 1894 409 
Q 2359 409 2629 706 
Q 2900 1003 2900 1516 
L 2900 3500 
L 3475 3500 
L 3475 0 
L 2900 0 
L 2900 538 
Q 2691 219 2414 64 
Q 2138 -91 1772 -91 
Q 1169 -91 856 284 
Q 544 659 544 1381 
z
M 1991 3584 
L 1991 3584 
z
" transform="scale(0.015625)"/>
     </defs>
     <use xlink:href="#DejaVuSans-4d"/>
     <use xlink:href="#DejaVuSans-65" transform="translate(86.279297 0)"/>
     <use xlink:href="#DejaVuSans-61" transform="translate(147.802734 0)"/>
     <use xlink:href="#DejaVuSans-6e" transform="translate(209.082031 0)"/>
     <use xlink:href="#DejaVuSans-20" transform="translate(272.460938 0)"/>
     <use xlink:href="#DejaVuSans-70" transform="translate(304.248047 0)"/>
     <use xlink:href="#DejaVuSans-72" transform="translate(367.724609 0)"/>
     <use xlink:href="#DejaVuSans-6f" transform="translate(406.587891 0)"/>
     <use xlink:href="#DejaVuSans-66" transform="translate(467.769531 0)"/>
     <use xlink:href="#DejaVuSans-69" transform="translate(502.974609 0)"/>
     <use xlink:href="#DejaVuSans-74" transform="translate(530.757812 0)"/>
     <use xlink:href="#DejaVuSans-20" transform="translate(569.966797 0)"/>
     <use xlink:href="#DejaVuSans-70" transform="translate(601.753906 0)"/>
     <use xlink:href="#DejaVuSans-65" transform="translate(665.230469 0)"/>
     <use xlink:href="#DejaVuSans-72" transform="translate(726.753906 0)"/>
     <use xlink:href="#DejaVuSans-20" transform="translate(767.867188 0)"/>
     <use xlink:href="#DejaVuSans-73" transform="translate(799.654297 0)"/>
     <use xlink:href="#DejaVuSans-74" transform="translate(851.753906 0)"/>
     <use xlink:href="#DejaVuSans-65" transform="translate(890.962891 0)"/>
     <use xlink:href="#DejaVuSans-70" transform="translate(952.486328 0)"/>
     <use xlink:href="#DejaVuSans-20" transform="translate(1015.962891 0)"/>
     <use xlink:href="#DejaVuSans-77" transform="translate(1047.75 0)"/>
     <use xlink:href="#DejaVuSans-69" transform="translate(1129.537109 0)"/>
     <use xlink:href="#DejaVuSans-74" transform="translate(1157.320312 0)"/>
     <use xlink:href="#DejaVuSans-68" transform="translate(1196.529297 0)"/>
     <use xlink:href="#DejaVuSans-20" transform="translate(1259.908203 0)"/>
     <use xlink:href="#DejaVuSans-63" transform="translate(1291.695312 0)"/>
     <use xlink:href="#DejaVuSans-6f" transform="translate(1346.675781 0)"/>
     <use xlink:href="#DejaVuSans-6e" transform="translate(1407.857422 0)"/>
     <use xlink:href="#DejaVuSans-66" transform="translate(1471.236328 0)"/>
     <use xlink:href="#DejaVuSans-69" transform="translate(1506.441406 0)"/>
     <use xlink:href="#DejaVuSans-64" transform="translate(1534.224609 0)"/>
     <use xlink:href="#DejaVuSans-65" transform="translate(1597.701172 0)"/>
     <use xlink:href="#DejaVuSans-6e" transform="translate(1659.224609 0)"/>
     <use xlink:href="#DejaVuSans-63" transform="translate(1722.603516 0)"/>
     <use xlink:href="#DejaVuSans-65" transform="translate(1777.583984 0)"/>
     <use xlink:href="#DejaVuSans-20" transform="translate(1839.107422 0)"/>
     <use xlink:href="#DejaVuSans-69" transform="translate(1870.894531 0)"/>
     <use xlink:href="#DejaVuSans-6e" transform="translate(1898.677734 0)"/>
     <use xlink:href="#DejaVuSans-74" transform="translate(1962.056641 0)"/>
     <use xlink:href="#DejaVuSans-65" transform="translate(2001.265625 0)"/>
     <use xlink:href="#DejaVuSans-72" transform="translate(2062.789062 0)"/>
     <use xlink:href="#DejaVuSans-76" transform="translate(2103.902344 0)"/>
     <use xlink:href="#DejaVuSans-61" transform="translate(2163.082031 0)"/>
     <use xlink:href="#DejaVuSans-6c" transform="translate(2224.361328 0)"/>
     <use xlink:href="#DejaVuSans-20" transform="translate(2252.144531 0)"/>
     <use xlink:href="#DejaVuSans-70" transform="translate(2283.931641 0)"/>
     <use xlink:href="#DejaVuSans-65" transform="translate(2347.408203 0)"/>
     <use xlink:href="#DejaVuSans-72" transform="translate(2408.931641 0)"/>
     <use xlink:href="#DejaVuSans-20" transform="translate(2450.044922 0)"/>
     <use xlink:href="#DejaVuSans-73" transform="translate(2481.832031 0)"/>
     <use xlink:href="#DejaVuSans-69" transform="translate(2533.931641 0)"/>
     <use xlink:href="#DejaVuSans-6d" transform="translate(2561.714844 0)"/>
     <use xlink:href="#DejaVuSans-75" transform="translate(2659.126953 0)"/>
     <use xlink:href="#DejaVuSans-6c" transform="translate(2722.505859 0)"/>
     <use xlink:href="#DejaVuSans-61" transform="translate(2750.289062 0)"/>
     <use xlink:href="#DejaVuSans-74" transform="translate(2811.568359 0)"/>
     <use xlink:href="#DejaVuSans-69" transform="translate(2850.777344 0)"/>
     <use xlink:href="#DejaVuSans-6f" transform="translate(2878.560547 0)"/>
     <use xlink:href="#DejaVuSans-6e" transform="translate(2939.742188 0)"/>
     <use xlink:href="#DejaVuSans-20" transform="translate(3003.121094 0)"/>
     <use xlink:href="#DejaVuSans-73" transform="translate(3034.908203 0)"/>
     <use xlink:href="#DejaVuSans-74" transform="translate(3087.007812 0)"/>
     <use xlink:href="#DejaVuSans-65" transform="translate(3126.216797 0)"/>
     <use xlink:href="#DejaVuSans-70" transform="translate(3187.740234 0)"/>
    </g>
    <!-- Base Product: Meth, Recipe size: 10, T0: 10.0 -->
    <g transform="translate(289.427375 37.44) scale(0.14 -0.14)">
     <defs>
      <path id="DejaVuSans-42" d="M 1259 2228 
L 1259 519 
L 2272 519 
Q 2781 519 3026 730 
Q 3272 941 3272 1375 
Q 3272 1813 3026 2020 
Q 2781 2228 2272 2228 
L 1259 2228 
z
M 1259 4147 
L 1259 2741 
L 2194 2741 
Q 2656 2741 2882 2914 
Q 3109 3088 3109 3444 
Q 3109 3797 2882 3972 
Q 2656 4147 2194 4147 
L 1259 4147 
z
M 628 4666 
L 2241 4666 
Q 2963 4666 3353 4366 
Q 3744 4066 3744 3513 
Q 3744 3084 3544 2831 
Q 3344 2578 2956 2516 
Q 3422 2416 3680 2098 
Q 3938 1781 3938 1306 
Q 3938 681 3513 340 
Q 3088 0 2303 0 
L 628 0 
L 628 4666 
z
" transform="scale(0.015625)"/>
      <path id="DejaVuSans-3a" d="M 750 794 
L 1409 794 
L 1409 0 
L 750 0 
L 750 794 
z
M 750 3309 
L 1409 3309 
L 1409 2516 
L 750 2516 
L 750 3309 
z
" transform="scale(0.015625)"/>
      <path id="DejaVuSans-2c" d="M 750 794 
L 1409 794 
L 1409 256 
L 897 -744 
L 494 -744 
L 750 256 
L 750 794 
z
" transform="scale(0.015625)"/>
      <path id="DejaVuSans-52" d="M 2841 2188 
Q 3044 2119 3236 1894 
Q 3428 1669 3622 1275 
L 4263 0 
L 3584 0 
L 2988 1197 
Q 2756 1666 2539 1819 
Q 2322 1972 1947 1972 
L 1259 1972 
L 1259 0 
L 628 0 
L 628 4666 
L 2053 4666 
Q 2853 4666 3247 4331 
Q 3641 3997 3641 3322 
Q 3641 2881 3436 2590 
Q 3231 2300 2841 2188 
z
M 1259 4147 
L 1259 2491 
L 2053 2491 
Q 2509 2491 2742 2702 
Q 2975 2913 2975 3322 
Q 2975 3731 2742 3939 
Q 2509 4147 2053 4147 
L 1259 4147 
z
" transform="scale(0.015625)"/>
      <path id="DejaVuSans-7a" d="M 353 3500 
L 3084 3500 
L 3084 2975 
L 922 459 
L 3084 459 
L 3084 0 
L 275 0 
L 275 525 
L 2438 3041 
L 353 3041 
L 353 3500 
z
" transform="scale(0.015625)"/>
      <path id="DejaVuSans-54" d="M -19 4666 
L 3928 4666 
L 3928 4134 
L 2272 4134 
L 2272 0 
L 1638 0 
L 1638 4134 
L -19 4134 
L -19 4666 
z
" transform="scale(0.015625)"/>
      <path id="DejaVuSans-2e" d="M 684 794 
L 1344 794 
L 1344 0 
L 684 0 
L 684 794 
z
" transform="scale(0.015625)"/>
     </defs>
     <use xlink:href="#DejaVuSans-42"/>
     <use xlink:href="#DejaVuSans-61" transform="translate(68.603516 0)"/>
     <use xlink:href="#DejaVuSans-73" transform="translate(129.882812 0)"/>
     <use xlink:href="#DejaVuSans-65" transform="translate(181.982422 0)"/>
     <use xlink:href="#DejaVuSans-20" transform="translate(243.505859 0)"/>
     <use xlink:href="#DejaVuSans-50" transform="translate(275.292969 0)"/>
     <use xlink:href="#DejaVuSans-72" transform="translate(333.845703 0)"/>
     <use xlink:href="#DejaVuSans-6f" transform="translate(372.708984 0)"/>
     <use xlink:href="#DejaVuSans-64" transform="translate(433.890625 0)"/>
     <use xlink:href="#DejaVuSans-75" transform="translate(497.367188 0)"/>
     <use xlink:href="#DejaVuSans-63" transform="translate(560.746094 0)"/>
     <use xlink:href="#DejaVuSans-74" transform="translate(615.726562 0)"/>
     <use xlink:href="#DejaVuSans-3a" transform="translate(654.935547 0)"/>
     <use xlink:href="#DejaVuSans-20" transform="translate(688.626953 0)"/>
     <use xlink:href="#DejaVuSans-4d" transform="translate(720.414062 0)"/>
     <use xlink:href="#DejaVuSans-65" transform="translate(806.693359 0)"/>
     <use xlink:href="#DejaVuSans-74" transform="translate(868.216797 0)"/>
     <use xlink:href="#DejaVuSans-68" transform="translate(907.425781 0)"/>
     <use xlink:href="#DejaVuSans-2c" transform="translate(970.804688 0)"/>
     <use xlink:href="#DejaVuSans-20" transform="translate(1002.591797 0)"/>
     <use xlink:href="#DejaVuSans-52" transform="translate(1034.378906 0)"/>
     <use xlink:href="#DejaVuSans-65" transform="translate(1099.361328 0)"/>
     <use xlink:href="#DejaVuSans-63" transform="translate(1160.884766 0)"/>
     <use xlink:href="#DejaVuSans-69" transform="translate(1215.865234 0)"/>
     <use xlink:href="#DejaVuSans-70" transform="translate(1243.648438 0)"/>
     <use xlink:href="#DejaVuSans-65" transform="translate(1307.125 0)"/>
     <use xlink:href="#DejaVuSans-20" transform="translate(1368.648438 0)"/>
     <use xlink:href="#DejaVuSans-73" transform="translate(1400.435547 0)"/>
     <use xlink:href="#DejaVuSans-69" transform="translate(1452.535156 0)"/>
     <use xlink:href="#DejaVuSans-7a" transform="translate(1480.318359 0)"/>
     <use xlink:href="#DejaVuSans-65" transform="translate(1532.808594 0)"/>
     <use xlink:href="#DejaVuSans-3a" transform="translate(1594.332031 0)"/>
     <use xlink:href="#DejaVuSans-20" transform="translate(1628.023438 0)"/>
     <use xlink:href="#DejaVuSans-31" transform="translate(1659.810547 0)"/>
     <use xlink:href="#DejaVuSans-30" transform="translate(1723.433594 0)"/>
     <use xlink:href="#DejaVuSans-2c" transform="translate(1787.056641 0)"/>
     <use xlink:href="#DejaVuSans-20" transform="translate(1818.84375 0)"/>
     <use xlink:href="#DejaVuSans-54" transform="translate(1850.630859 0)"/>
     <use xlink:href="#DejaVuSans-30" transform="translate(1911.714844 0)"/>
     <use xlink:href="#DejaVuSans-3a" transform="translate(1975.337891 0)"/>
     <use xlink:href="#DejaVuSans-20" transform="translate(2009.029297 0)"/>
     <use xlink:href="#DejaVuSans-31" transform="translate(2040.816406 0)"/>
     <use xlink:href="#DejaVuSans-30" transform="translate(2104.439453 0)"/>
     <use xlink:href="#DejaVuSans-2e" transform="translate(2168.0625 0)"/>
     <use xlink:href="#DejaVuSans-30" transform="translate(2199.849609 0)"/>
    </g>
   </g>
  </g>
 </g>
 <defs>
  <clipPath id="p5dd8b3e1b0">
   <rect x="50.87" y="43.44" width="793.996" height="346.6"/>
  </clipPath>
 </defs>
</svg>
