<?xml version="1.0" encoding="utf-8" standalone="no"?>
<!DOCTYPE svg PUBLIC "-//W3C//DTD SVG 1.1//EN"
  "http://www.w3.org/Graphics/SVG/1.1/DTD/svg11.dtd">
<svg xmlns:xlink="http://www.w3.org/1999/xlink" width="864pt" height="432pt" viewBox="0 0 864 432" xmlns="http://www.w3.org/2000/svg" version="1.1">
 <metadata>
  <rdf:RDF xmlns:dc="http://purl.org/dc/elements/1.1/" xmlns:cc="http://creativecommons.org/ns#" xmlns:rdf="http://www.w3.org/1999/02/22-rdf-syntax-ns#">
   <cc:Work>
    <dc:type rdf:resource="http://purl.org/dc/dcmitype/StillImage"/>
    <dc:date>2025-05-24T02:20:05.208083</dc:date>
    <dc:format>image/svg+xml</dc:format>
    <dc:creator>
     <cc:Agent>
      <dc:title>Matplotlib v3.10.3, https://matplotlib.org/</dc:title>
     </cc:Agent>
    </dc:creator>
   </cc:Work>
  </rdf:RDF>
 </metadata>
 <defs>
  <style type="text/css">*{stroke-linejoin: round; stroke-linecap: butt}</style>
 </defs>
 <g id="figure_1">
  <g id="patch_1">
   <path d="M 0 432 
L 864 432 
L 864 0 
L 0 0 
z
" style="fill: #ffffff"/>
  </g>
  <g id="axes_1">
   <g id="patch_2">
    <path d="M 50.87 390.04 
L 844.866 390.04 
L 844.866 43.44 
L 50.87 43.44 
z
" style="fill: #ffffff"/>
   </g>
   <g id="FillBetweenPolyCollection_1">
    <defs>
     <path id="m6b819eab8d" d="M 52.193327 -311.231965 
L 52.193327 -57.714545 
L 54.83998 -58.006123 
L 57.486633 -61.620663 
L 60.133287 -67.770507 
L 62.77994 -74.883837 
L 65.426593 -81.518164 
L 68.073247 -86.22039 
L 70.7199 -90.536599 
L 73.366553 -94.319495 
L 76.013207 -97.318256 
L 78.65986 -100.689764 
L 81.306513 -103.628358 
L 83.953167 -107.026556 
L 86.59982 -110.170781 
L 89.246473 -112.687799 
L 91.893127 -114.989395 
L 94.53978 -117.44155 
L 97.186433 -119.723382 
L 99.833087 -121.688142 
L 102.47974 -124.289901 
L 105.126393 -126.685482 
L 107.773047 -127.886565 
L 110.4197 -129.199225 
L 113.066353 -131.43639 
L 115.713007 -133.31658 
L 118.35966 -134.332102 
L 121.006313 -136.36574 
L 123.652967 -136.744275 
L 126.29962 -138.078018 
L 128.946273 -139.0884 
L 131.592927 -140.273495 
L 134.23958 -141.128906 
L 136.886233 -141.849315 
L 139.532887 -142.859469 
L 142.17954 -144.139903 
L 144.826193 -144.44284 
L 147.472847 -144.705067 
L 150.1195 -146.318118 
L 152.766153 -146.575046 
L 155.412807 -146.197056 
L 158.05946 -147.491295 
L 160.706113 -148.497242 
L 163.352767 -149.860642 
L 165.99942 -150.658695 
L 168.646073 -151.144123 
L 171.292727 -151.307145 
L 173.93938 -151.260977 
L 176.586033 -151.742174 
L 179.232687 -153.109167 
L 181.87934 -153.741015 
L 184.525993 -154.196785 
L 187.172647 -154.776255 
L 189.8193 -155.273577 
L 192.465953 -155.259135 
L 195.112607 -155.84163 
L 197.75926 -155.696689 
L 200.405913 -157.1028 
L 203.052567 -156.470316 
L 205.69922 -157.311126 
L 208.345873 -157.841358 
L 210.992527 -158.652102 
L 213.63918 -158.756811 
L 216.285833 -158.928293 
L 218.932487 -159.867217 
L 221.57914 -160.033014 
L 224.225793 -161.112967 
L 226.872447 -162.093897 
L 229.5191 -161.75423 
L 232.165753 -161.945021 
L 234.812407 -162.003857 
L 237.45906 -162.092419 
L 240.105713 -162.683442 
L 242.752367 -162.415006 
L 245.39902 -162.542185 
L 248.045673 -163.154382 
L 250.692327 -164.00827 
L 253.33898 -164.874166 
L 255.985633 -164.449894 
L 258.632287 -164.437681 
L 261.27894 -165.145991 
L 263.925593 -164.961203 
L 266.572247 -165.055064 
L 269.2189 -165.638741 
L 271.865553 -165.745042 
L 274.512207 -166.037086 
L 277.15886 -166.05553 
L 279.805513 -167.021723 
L 282.452167 -167.159046 
L 285.09882 -166.943214 
L 287.745473 -167.557299 
L 290.392127 -168.02228 
L 293.03878 -167.757551 
L 295.685433 -168.060057 
L 298.332087 -168.538297 
L 300.97874 -169.549021 
L 303.625393 -168.94119 
L 306.272047 -168.842031 
L 308.9187 -169.402556 
L 311.565353 -169.649909 
L 314.212007 -170.239818 
L 316.85866 -170.939849 
L 319.505313 -171.398531 
L 322.151967 -171.02741 
L 324.79862 -171.718662 
L 327.445273 -172.24116 
L 330.091927 -171.926055 
L 332.73858 -172.008408 
L 335.385233 -171.696373 
L 338.031887 -172.340684 
L 340.67854 -171.951505 
L 343.325193 -171.999083 
L 345.971847 -172.69361 
L 348.6185 -172.684263 
L 351.265153 -172.712146 
L 353.911807 -172.753925 
L 356.55846 -172.70571 
L 359.205113 -173.092933 
L 361.851767 -173.015561 
L 364.49842 -173.666512 
L 367.145073 -173.593575 
L 369.791727 -173.945046 
L 372.43838 -173.813887 
L 375.085033 -174.220465 
L 377.731687 -174.558221 
L 380.37834 -175.510109 
L 383.024993 -175.422366 
L 385.671647 -175.169031 
L 388.3183 -175.376016 
L 390.964953 -175.087498 
L 393.611607 -175.866037 
L 396.25826 -176.038339 
L 398.904913 -176.08296 
L 401.551567 -176.162743 
L 404.19822 -176.559473 
L 406.844873 -176.301658 
L 409.491527 -176.615284 
L 412.13818 -176.29529 
L 414.784833 -177.42853 
L 417.431487 -177.252521 
L 420.07814 -177.257502 
L 422.724793 -177.800424 
L 425.371447 -177.611088 
L 428.0181 -177.850504 
L 430.664753 -177.150815 
L 433.311407 -177.286022 
L 435.95806 -177.730103 
L 438.604713 -178.016005 
L 441.251367 -178.12731 
L 443.89802 -178.076183 
L 446.544673 -178.540301 
L 449.191327 -178.515784 
L 451.83798 -179.127139 
L 454.484633 -179.726737 
L 457.131287 -180.152282 
L 459.77794 -180.023011 
L 462.424593 -179.276766 
L 465.071247 -179.365509 
L 467.7179 -180.152782 
L 470.364553 -180.377939 
L 473.011207 -180.442642 
L 475.65786 -180.643441 
L 478.304513 -180.693248 
L 480.951167 -181.260346 
L 483.59782 -182.193675 
L 486.244473 -182.201385 
L 488.891127 -182.285125 
L 491.53778 -182.305184 
L 494.184433 -182.284806 
L 496.831087 -182.356265 
L 499.47774 -182.297656 
L 502.124393 -182.27464 
L 504.771047 -182.188603 
L 507.4177 -182.295996 
L 510.064353 -182.946265 
L 512.711007 -183.209129 
L 515.35766 -183.051633 
L 518.004313 -183.119681 
L 520.650967 -183.689553 
L 523.29762 -183.360143 
L 525.944273 -183.310745 
L 528.590927 -183.1802 
L 531.23758 -183.166236 
L 533.884233 -182.861524 
L 536.530887 -183.705951 
L 539.17754 -183.517911 
L 541.824193 -183.888168 
L 544.470847 -184.01769 
L 547.1175 -184.313599 
L 549.764153 -183.97566 
L 552.410807 -184.768096 
L 555.05746 -184.354741 
L 557.704113 -185.00501 
L 560.350767 -184.698161 
L 562.99742 -184.047119 
L 565.644073 -184.066951 
L 568.290727 -184.272866 
L 570.93738 -184.311439 
L 573.584033 -183.670904 
L 576.230687 -184.612966 
L 578.87734 -185.071238 
L 581.523993 -185.447954 
L 584.170647 -185.723145 
L 586.8173 -185.904702 
L 589.463953 -185.991604 
L 592.110607 -186.220058 
L 594.75726 -186.45447 
L 597.403913 -186.663456 
L 600.050567 -186.825591 
L 602.69722 -186.901735 
L 605.343873 -186.783721 
L 607.990527 -186.328951 
L 610.63718 -186.252466 
L 613.283833 -186.742761 
L 615.930487 -186.331544 
L 618.57714 -187.48639 
L 621.223793 -187.183248 
L 623.870447 -186.683447 
L 626.5171 -186.8517 
L 629.163753 -186.697138 
L 631.810407 -186.950814 
L 634.45706 -187.388572 
L 637.103713 -187.420685 
L 639.750367 -187.279997 
L 642.39702 -187.542065 
L 645.043673 -186.892683 
L 647.690327 -187.203944 
L 650.33698 -186.578806 
L 652.983633 -186.90642 
L 655.630287 -186.544896 
L 658.27694 -186.354332 
L 660.923593 -187.241197 
L 663.570247 -186.931687 
L 666.2169 -187.326302 
L 668.863553 -187.890511 
L 671.510207 -187.327439 
L 674.15686 -187.472994 
L 676.803513 -187.522119 
L 679.450167 -187.926354 
L 682.09682 -187.395441 
L 684.743473 -187.871544 
L 687.390127 -187.764879 
L 690.03678 -187.572768 
L 692.683433 -188.566753 
L 695.330087 -188.988864 
L 697.97674 -188.276188 
L 700.623393 -188.125219 
L 703.270047 -187.917484 
L 705.9167 -188.04853 
L 708.563353 -188.848539 
L 711.210007 -188.026469 
L 713.85666 -187.848095 
L 716.503313 -187.922761 
L 719.149967 -188.395702 
L 721.79662 -188.35638 
L 724.443273 -187.765493 
L 727.089927 -187.850392 
L 729.73658 -188.60769 
L 732.383233 -188.810058 
L 735.029887 -188.783721 
L 737.67654 -189.012016 
L 740.323193 -189.090571 
L 742.969847 -189.546546 
L 745.6165 -189.859604 
L 748.263153 -189.911936 
L 750.909807 -189.821259 
L 753.55646 -189.541702 
L 756.203113 -189.9196 
L 758.849767 -190.104615 
L 761.49642 -189.869429 
L 764.143073 -190.857546 
L 766.789727 -190.420948 
L 769.43638 -190.006842 
L 772.083033 -189.994834 
L 774.729687 -191.010265 
L 777.37634 -190.846675 
L 780.022993 -191.387163 
L 782.669647 -190.925934 
L 785.3163 -191.049088 
L 787.962953 -191.09098 
L 790.609607 -191.468037 
L 793.25626 -190.801234 
L 795.902913 -191.16021 
L 798.549567 -191.186729 
L 801.19622 -191.110881 
L 803.842873 -191.737906 
L 806.489527 -192.388721 
L 809.13618 -192.294246 
L 811.782833 -192.487858 
L 814.429487 -191.778252 
L 817.07614 -192.360429 
L 819.722793 -192.690567 
L 822.369447 -192.294565 
L 825.0161 -192.466798 
L 827.662753 -192.494044 
L 830.309407 -192.466002 
L 832.95606 -192.18417 
L 835.602713 -192.582151 
L 838.249367 -192.487039 
L 840.89602 -193.282978 
L 843.542673 -193.703405 
L 843.542673 -371.584654 
L 843.542673 -371.584654 
L 840.89602 -371.735212 
L 838.249367 -372.318117 
L 835.602713 -372.08823 
L 832.95606 -372.734223 
L 830.309407 -372.477909 
L 827.662753 -372.666176 
L 825.0161 -372.378249 
L 822.369447 -372.247431 
L 819.722793 -372.104787 
L 817.07614 -372.59681 
L 814.429487 -372.805455 
L 811.782833 -372.458669 
L 809.13618 -372.340951 
L 806.489527 -372.179702 
L 803.842873 -372.554508 
L 801.19622 -372.763516 
L 798.549567 -372.610865 
L 795.902913 -372.583119 
L 793.25626 -372.774888 
L 790.609607 -372.312977 
L 787.962953 -372.460943 
L 785.3163 -372.505428 
L 782.669647 -372.299376 
L 780.022993 -371.95068 
L 777.37634 -372.062212 
L 774.729687 -372.129986 
L 772.083033 -372.61787 
L 769.43638 -372.245976 
L 766.789727 -371.774421 
L 764.143073 -371.427499 
L 761.49642 -372.072992 
L 758.849767 -371.632823 
L 756.203113 -371.688225 
L 753.55646 -371.862801 
L 750.909807 -371.742445 
L 748.263153 -371.601256 
L 745.6165 -371.413762 
L 742.969847 -371.340575 
L 740.323193 -371.614219 
L 737.67654 -371.512149 
L 735.029887 -371.452107 
L 732.383233 -371.16045 
L 729.73658 -371.105731 
L 727.089927 -371.811129 
L 724.443273 -371.599891 
L 721.79662 -371.059835 
L 719.149967 -370.7211 
L 716.503313 -370.995927 
L 713.85666 -371.001113 
L 711.210007 -370.67152 
L 708.563353 -370.396784 
L 705.9167 -370.789056 
L 703.270047 -370.791922 
L 700.623393 -370.722374 
L 697.97674 -370.551937 
L 695.330087 -369.901486 
L 692.683433 -370.092892 
L 690.03678 -370.471109 
L 687.390127 -370.09553 
L 684.743473 -369.833121 
L 682.09682 -369.895164 
L 679.450167 -369.26691 
L 676.803513 -369.563707 
L 674.15686 -369.557293 
L 671.510207 -369.467367 
L 668.863553 -369.138594 
L 666.2169 -369.412102 
L 663.570247 -369.662002 
L 660.923593 -369.360566 
L 658.27694 -369.659091 
L 655.630287 -369.530456 
L 652.983633 -369.320493 
L 650.33698 -369.283649 
L 647.690327 -368.770566 
L 645.043673 -368.913984 
L 642.39702 -368.348592 
L 639.750367 -368.447114 
L 637.103713 -368.304788 
L 634.45706 -368.388528 
L 631.810407 -368.672452 
L 629.163753 -368.766154 
L 626.5171 -368.431467 
L 623.870447 -368.440519 
L 621.223793 -368.020682 
L 618.57714 -367.649925 
L 615.930487 -368.377657 
L 613.283833 -367.895687 
L 610.63718 -368.364011 
L 607.990527 -367.939717 
L 605.343873 -367.675898 
L 602.69722 -367.596661 
L 600.050567 -367.683039 
L 597.403913 -367.638099 
L 594.75726 -367.726296 
L 592.110607 -367.819907 
L 589.463953 -367.911334 
L 586.8173 -367.880494 
L 584.170647 -367.986431 
L 581.523993 -367.859798 
L 578.87734 -367.924388 
L 576.230687 -368.124527 
L 573.584033 -368.700972 
L 570.93738 -368.022183 
L 568.290727 -367.863028 
L 565.644073 -367.722294 
L 562.99742 -367.682766 
L 560.350767 -367.295043 
L 557.704113 -367.014849 
L 555.05746 -367.581423 
L 552.410807 -367.088672 
L 549.764153 -367.314829 
L 547.1175 -366.959583 
L 544.470847 -367.21053 
L 541.824193 -367.010527 
L 539.17754 -367.187286 
L 536.530887 -366.797834 
L 533.884233 -367.315193 
L 531.23758 -366.908457 
L 528.590927 -367.032816 
L 525.944273 -366.942253 
L 523.29762 -366.654053 
L 520.650967 -366.288709 
L 518.004313 -366.429397 
L 515.35766 -366.300308 
L 512.711007 -365.805101 
L 510.064353 -365.987318 
L 507.4177 -365.996552 
L 504.771047 -365.832756 
L 502.124393 -365.729366 
L 499.47774 -365.655679 
L 496.831087 -365.778127 
L 494.184433 -365.540599 
L 491.53778 -365.46955 
L 488.891127 -365.200773 
L 486.244473 -365.077551 
L 483.59782 -364.752325 
L 480.951167 -365.391132 
L 478.304513 -365.507303 
L 475.65786 -365.381898 
L 473.011207 -365.165703 
L 470.364553 -364.761377 
L 467.7179 -364.806727 
L 465.071247 -365.149009 
L 462.424593 -365.175619 
L 459.77794 -364.590167 
L 457.131287 -364.097917 
L 454.484633 -364.436106 
L 451.83798 -364.558645 
L 449.191327 -364.652438 
L 446.544673 -364.747913 
L 443.89802 -364.81173 
L 441.251367 -364.503061 
L 438.604713 -364.218046 
L 435.95806 -364.154229 
L 433.311407 -364.333808 
L 430.664753 -363.984929 
L 428.0181 -363.535845 
L 425.371447 -363.527749 
L 422.724793 -363.164724 
L 420.07814 -363.53721 
L 417.431487 -363.076481 
L 414.784833 -362.725329 
L 412.13818 -363.504505 
L 409.491527 -363.06743 
L 406.844873 -362.990786 
L 404.19822 -362.658373 
L 401.551567 -362.801427 
L 398.904913 -363.053647 
L 396.25826 -362.743159 
L 393.611607 -362.42876 
L 390.964953 -362.739202 
L 388.3183 -362.308631 
L 385.671647 -362.391506 
L 383.024993 -362.209289 
L 380.37834 -361.978311 
L 377.731687 -362.542748 
L 375.085033 -362.276336 
L 372.43838 -362.707544 
L 369.791727 -362.505222 
L 367.145073 -362.695081 
L 364.49842 -362.341563 
L 361.851767 -362.18459 
L 359.205113 -361.84954 
L 356.55846 -361.843172 
L 353.911807 -361.597911 
L 351.265153 -361.438027 
L 348.6185 -361.108162 
L 345.971847 -361.071682 
L 343.325193 -361.552288 
L 340.67854 -361.301205 
L 338.031887 -360.574929 
L 335.385233 -360.689918 
L 332.73858 -360.310518 
L 330.091927 -359.959184 
L 327.445273 -359.575963 
L 324.79862 -359.48349 
L 322.151967 -359.670347 
L 319.505313 -359.189968 
L 316.85866 -359.266794 
L 314.212007 -359.296133 
L 311.565353 -359.275164 
L 308.9187 -359.243642 
L 306.272047 -359.263565 
L 303.625393 -359.159174 
L 300.97874 -358.277199 
L 298.332087 -358.741248 
L 295.685433 -358.969497 
L 293.03878 -358.784505 
L 290.392127 -358.444906 
L 287.745473 -358.681934 
L 285.09882 -358.279837 
L 282.452167 -357.798913 
L 279.805513 -357.697934 
L 277.15886 -358.052953 
L 274.512207 -357.806964 
L 271.865553 -357.766299 
L 269.2189 -357.49775 
L 266.572247 -357.672325 
L 263.925593 -357.400591 
L 261.27894 -356.988305 
L 258.632287 -357.461998 
L 255.985633 -357.370889 
L 253.33898 -356.653437 
L 250.692327 -356.668584 
L 248.045673 -356.839384 
L 245.39902 -356.684458 
L 242.752367 -355.971237 
L 240.105713 -355.583604 
L 237.45906 -355.814219 
L 234.812407 -355.351261 
L 232.165753 -355.214212 
L 229.5191 -354.941887 
L 226.872447 -354.431715 
L 224.225793 -354.553435 
L 221.57914 -354.906407 
L 218.932487 -354.376404 
L 216.285833 -354.509632 
L 213.63918 -354.326141 
L 210.992527 -353.514579 
L 208.345873 -353.355696 
L 205.69922 -353.460314 
L 203.052567 -353.718402 
L 200.405913 -352.852529 
L 197.75926 -353.118167 
L 195.112607 -352.409039 
L 192.465953 -352.128481 
L 189.8193 -351.798935 
L 187.172647 -351.154624 
L 184.525993 -350.682479 
L 181.87934 -350.432851 
L 179.232687 -350.198643 
L 176.586033 -350.663283 
L 173.93938 -350.490618 
L 171.292727 -349.6126 
L 168.646073 -349.601411 
L 165.99942 -349.279369 
L 163.352767 -349.33509 
L 160.706113 -349.411143 
L 158.05946 -349.486467 
L 155.412807 -349.51153 
L 152.766153 -348.048652 
L 150.1195 -347.585058 
L 147.472847 -347.658746 
L 144.826193 -346.668923 
L 142.17954 -345.816559 
L 139.532887 -345.459539 
L 136.886233 -344.769651 
L 134.23958 -344.456434 
L 131.592927 -344.190978 
L 128.946273 -343.724927 
L 126.29962 -343.115505 
L 123.652967 -342.767218 
L 121.006313 -342.108761 
L 118.35966 -342.245674 
L 115.713007 -341.13918 
L 113.066353 -341.028876 
L 110.4197 -340.760508 
L 107.773047 -339.86889 
L 105.126393 -339.243001 
L 102.47974 -339.278799 
L 99.833087 -338.723141 
L 97.186433 -338.174397 
L 94.53978 -337.975759 
L 91.893127 -337.456035 
L 89.246473 -335.995113 
L 86.59982 -334.457865 
L 83.953167 -333.656127 
L 81.306513 -332.556274 
L 78.65986 -331.398016 
L 76.013207 -330.052128 
L 73.366553 -328.109463 
L 70.7199 -326.167844 
L 68.073247 -324.307145 
L 65.426593 -321.279728 
L 62.77994 -319.254733 
L 60.133287 -317.541135 
L 57.486633 -315.311203 
L 54.83998 -311.181908 
L 52.193327 -311.231965 
z
" style="stroke: #0000ff; stroke-opacity: 0.2"/>
    </defs>
    <g clip-path="url(#p798ea56265)">
     <use xlink:href="#m6b819eab8d" x="0" y="432" style="fill: #0000ff; fill-opacity: 0.2; stroke: #0000ff; stroke-opacity: 0.2"/>
    </g>
   </g>
   <g id="matplotlib.axis_1">
    <g id="xtick_1">
     <g id="line2d_1">
      <defs>
       <path id="me965c88075" d="M 0 0 
L 0 3.5 
" style="stroke: #000000; stroke-width: 0.8"/>
      </defs>
      <g>
       <use xlink:href="#me965c88075" x="181.87934" y="390.04" style="stroke: #000000; stroke-width: 0.8"/>
      </g>
     </g>
     <g id="text_1">
      <!-- 50 -->
      <g transform="translate(175.51684 404.638438) scale(0.1 -0.1)">
       <defs>
        <path id="DejaVuSans-35" d="M 691 4666 
L 3169 4666 
L 3169 4134 
L 1269 4134 
L 1269 2991 
Q 1406 3038 1543 3061 
Q 1681 3084 1819 3084 
Q 2600 3084 3056 2656 
Q 3513 2228 3513 1497 
Q 3513 744 3044 326 
Q 2575 -91 1722 -91 
Q 1428 -91 1123 -41 
Q 819 9 494 109 
L 494 744 
Q 775 591 1075 516 
Q 1375 441 1709 441 
Q 2250 441 2565 725 
Q 2881 1009 2881 1497 
Q 2881 1984 2565 2268 
Q 2250 2553 1709 2553 
Q 1456 2553 1204 2497 
Q 953 2441 691 2322 
L 691 4666 
z
" transform="scale(0.015625)"/>
        <path id="DejaVuSans-30" d="M 2034 4250 
Q 1547 4250 1301 3770 
Q 1056 3291 1056 2328 
Q 1056 1369 1301 889 
Q 1547 409 2034 409 
Q 2525 409 2770 889 
Q 3016 1369 3016 2328 
Q 3016 3291 2770 3770 
Q 2525 4250 2034 4250 
z
M 2034 4750 
Q 2819 4750 3233 4129 
Q 3647 3509 3647 2328 
Q 3647 1150 3233 529 
Q 2819 -91 2034 -91 
Q 1250 -91 836 529 
Q 422 1150 422 2328 
Q 422 3509 836 4129 
Q 1250 4750 2034 4750 
z
" transform="scale(0.015625)"/>
       </defs>
       <use xlink:href="#DejaVuSans-35"/>
       <use xlink:href="#DejaVuSans-30" transform="translate(63.623047 0)"/>
      </g>
     </g>
    </g>
    <g id="xtick_2">
     <g id="line2d_2">
      <g>
       <use xlink:href="#me965c88075" x="314.212007" y="390.04" style="stroke: #000000; stroke-width: 0.8"/>
      </g>
     </g>
     <g id="text_2">
      <!-- 100 -->
      <g transform="translate(304.668257 404.638438) scale(0.1 -0.1)">
       <defs>
        <path id="DejaVuSans-31" d="M 794 531 
L 1825 531 
L 1825 4091 
L 703 3866 
L 703 4441 
L 1819 4666 
L 2450 4666 
L 2450 531 
L 3481 531 
L 3481 0 
L 794 0 
L 794 531 
z
" transform="scale(0.015625)"/>
       </defs>
       <use xlink:href="#DejaVuSans-31"/>
       <use xlink:href="#DejaVuSans-30" transform="translate(63.623047 0)"/>
       <use xlink:href="#DejaVuSans-30" transform="translate(127.246094 0)"/>
      </g>
     </g>
    </g>
    <g id="xtick_3">
     <g id="line2d_3">
      <g>
       <use xlink:href="#me965c88075" x="446.544673" y="390.04" style="stroke: #000000; stroke-width: 0.8"/>
      </g>
     </g>
     <g id="text_3">
      <!-- 150 -->
      <g transform="translate(437.000923 404.638438) scale(0.1 -0.1)">
       <use xlink:href="#DejaVuSans-31"/>
       <use xlink:href="#DejaVuSans-35" transform="translate(63.623047 0)"/>
       <use xlink:href="#DejaVuSans-30" transform="translate(127.246094 0)"/>
      </g>
     </g>
    </g>
    <g id="xtick_4">
     <g id="line2d_4">
      <g>
       <use xlink:href="#me965c88075" x="578.87734" y="390.04" style="stroke: #000000; stroke-width: 0.8"/>
      </g>
     </g>
     <g id="text_4">
      <!-- 200 -->
      <g transform="translate(569.33359 404.638438) scale(0.1 -0.1)">
       <defs>
        <path id="DejaVuSans-32" d="M 1228 531 
L 3431 531 
L 3431 0 
L 469 0 
L 469 531 
Q 828 903 1448 1529 
Q 2069 2156 2228 2338 
Q 2531 2678 2651 2914 
Q 2772 3150 2772 3378 
Q 2772 3750 2511 3984 
Q 2250 4219 1831 4219 
Q 1534 4219 1204 4116 
Q 875 4013 500 3803 
L 500 4441 
Q 881 4594 1212 4672 
Q 1544 4750 1819 4750 
Q 2544 4750 2975 4387 
Q 3406 4025 3406 3419 
Q 3406 3131 3298 2873 
Q 3191 2616 2906 2266 
Q 2828 2175 2409 1742 
Q 1991 1309 1228 531 
z
" transform="scale(0.015625)"/>
       </defs>
       <use xlink:href="#DejaVuSans-32"/>
       <use xlink:href="#DejaVuSans-30" transform="translate(63.623047 0)"/>
       <use xlink:href="#DejaVuSans-30" transform="translate(127.246094 0)"/>
      </g>
     </g>
    </g>
    <g id="xtick_5">
     <g id="line2d_5">
      <g>
       <use xlink:href="#me965c88075" x="711.210007" y="390.04" style="stroke: #000000; stroke-width: 0.8"/>
      </g>
     </g>
     <g id="text_5">
      <!-- 250 -->
      <g transform="translate(701.666257 404.638438) scale(0.1 -0.1)">
       <use xlink:href="#DejaVuSans-32"/>
       <use xlink:href="#DejaVuSans-35" transform="translate(63.623047 0)"/>
       <use xlink:href="#DejaVuSans-30" transform="translate(127.246094 0)"/>
      </g>
     </g>
    </g>
    <g id="xtick_6">
     <g id="line2d_6">
      <g>
       <use xlink:href="#me965c88075" x="843.542673" y="390.04" style="stroke: #000000; stroke-width: 0.8"/>
      </g>
     </g>
     <g id="text_6">
      <!-- 300 -->
      <g transform="translate(833.998923 404.638438) scale(0.1 -0.1)">
       <defs>
        <path id="DejaVuSans-33" d="M 2597 2516 
Q 3050 2419 3304 2112 
Q 3559 1806 3559 1356 
Q 3559 666 3084 287 
Q 2609 -91 1734 -91 
Q 1441 -91 1130 -33 
Q 819 25 488 141 
L 488 750 
Q 750 597 1062 519 
Q 1375 441 1716 441 
Q 2309 441 2620 675 
Q 2931 909 2931 1356 
Q 2931 1769 2642 2001 
Q 2353 2234 1838 2234 
L 1294 2234 
L 1294 2753 
L 1863 2753 
Q 2328 2753 2575 2939 
Q 2822 3125 2822 3475 
Q 2822 3834 2567 4026 
Q 2313 4219 1838 4219 
Q 1578 4219 1281 4162 
Q 984 4106 628 3988 
L 628 4550 
Q 988 4650 1302 4700 
Q 1616 4750 1894 4750 
Q 2613 4750 3031 4423 
Q 3450 4097 3450 3541 
Q 3450 3153 3228 2886 
Q 3006 2619 2597 2516 
z
" transform="scale(0.015625)"/>
       </defs>
       <use xlink:href="#DejaVuSans-33"/>
       <use xlink:href="#DejaVuSans-30" transform="translate(63.623047 0)"/>
       <use xlink:href="#DejaVuSans-30" transform="translate(127.246094 0)"/>
      </g>
     </g>
    </g>
    <g id="text_7">
     <!-- Step -->
     <g transform="translate(436.482844 418.316562) scale(0.1 -0.1)">
      <defs>
       <path id="DejaVuSans-53" d="M 3425 4513 
L 3425 3897 
Q 3066 4069 2747 4153 
Q 2428 4238 2131 4238 
Q 1616 4238 1336 4038 
Q 1056 3838 1056 3469 
Q 1056 3159 1242 3001 
Q 1428 2844 1947 2747 
L 2328 2669 
Q 3034 2534 3370 2195 
Q 3706 1856 3706 1288 
Q 3706 609 3251 259 
Q 2797 -91 1919 -91 
Q 1588 -91 1214 -16 
Q 841 59 441 206 
L 441 856 
Q 825 641 1194 531 
Q 1563 422 1919 422 
Q 2459 422 2753 634 
Q 3047 847 3047 1241 
Q 3047 1584 2836 1778 
Q 2625 1972 2144 2069 
L 1759 2144 
Q 1053 2284 737 2584 
Q 422 2884 422 3419 
Q 422 4038 858 4394 
Q 1294 4750 2059 4750 
Q 2388 4750 2728 4690 
Q 3069 4631 3425 4513 
z
" transform="scale(0.015625)"/>
       <path id="DejaVuSans-74" d="M 1172 4494 
L 1172 3500 
L 2356 3500 
L 2356 3053 
L 1172 3053 
L 1172 1153 
Q 1172 725 1289 603 
Q 1406 481 1766 481 
L 2356 481 
L 2356 0 
L 1766 0 
Q 1100 0 847 248 
Q 594 497 594 1153 
L 594 3053 
L 172 3053 
L 172 3500 
L 594 3500 
L 594 4494 
L 1172 4494 
z
" transform="scale(0.015625)"/>
       <path id="DejaVuSans-65" d="M 3597 1894 
L 3597 1613 
L 953 1613 
Q 991 1019 1311 708 
Q 1631 397 2203 397 
Q 2534 397 2845 478 
Q 3156 559 3463 722 
L 3463 178 
Q 3153 47 2828 -22 
Q 2503 -91 2169 -91 
Q 1331 -91 842 396 
Q 353 884 353 1716 
Q 353 2575 817 3079 
Q 1281 3584 2069 3584 
Q 2775 3584 3186 3129 
Q 3597 2675 3597 1894 
z
M 3022 2063 
Q 3016 2534 2758 2815 
Q 2500 3097 2075 3097 
Q 1594 3097 1305 2825 
Q 1016 2553 972 2059 
L 3022 2063 
z
" transform="scale(0.015625)"/>
       <path id="DejaVuSans-70" d="M 1159 525 
L 1159 -1331 
L 581 -1331 
L 581 3500 
L 1159 3500 
L 1159 2969 
Q 1341 3281 1617 3432 
Q 1894 3584 2278 3584 
Q 2916 3584 3314 3078 
Q 3713 2572 3713 1747 
Q 3713 922 3314 415 
Q 2916 -91 2278 -91 
Q 1894 -91 1617 61 
Q 1341 213 1159 525 
z
M 3116 1747 
Q 3116 2381 2855 2742 
Q 2594 3103 2138 3103 
Q 1681 3103 1420 2742 
Q 1159 2381 1159 1747 
Q 1159 1113 1420 752 
Q 1681 391 2138 391 
Q 2594 391 2855 752 
Q 3116 1113 3116 1747 
z
" transform="scale(0.015625)"/>
      </defs>
      <use xlink:href="#DejaVuSans-53"/>
      <use xlink:href="#DejaVuSans-74" transform="translate(63.476562 0)"/>
      <use xlink:href="#DejaVuSans-65" transform="translate(102.685547 0)"/>
      <use xlink:href="#DejaVuSans-70" transform="translate(164.208984 0)"/>
     </g>
    </g>
   </g>
   <g id="matplotlib.axis_2">
    <g id="ytick_1">
     <g id="line2d_7">
      <defs>
       <path id="mec0082c985" d="M 0 0 
L -3.5 0 
" style="stroke: #000000; stroke-width: 0.8"/>
      </defs>
      <g>
       <use xlink:href="#mec0082c985" x="50.87" y="349.121575" style="stroke: #000000; stroke-width: 0.8"/>
      </g>
     </g>
     <g id="text_8">
      <!-- 100 -->
      <g transform="translate(24.7825 352.920793) scale(0.1 -0.1)">
       <use xlink:href="#DejaVuSans-31"/>
       <use xlink:href="#DejaVuSans-30" transform="translate(63.623047 0)"/>
       <use xlink:href="#DejaVuSans-30" transform="translate(127.246094 0)"/>
      </g>
     </g>
    </g>
    <g id="ytick_2">
     <g id="line2d_8">
      <g>
       <use xlink:href="#mec0082c985" x="50.87" y="274.597174" style="stroke: #000000; stroke-width: 0.8"/>
      </g>
     </g>
     <g id="text_9">
      <!-- 150 -->
      <g transform="translate(24.7825 278.396392) scale(0.1 -0.1)">
       <use xlink:href="#DejaVuSans-31"/>
       <use xlink:href="#DejaVuSans-35" transform="translate(63.623047 0)"/>
       <use xlink:href="#DejaVuSans-30" transform="translate(127.246094 0)"/>
      </g>
     </g>
    </g>
    <g id="ytick_3">
     <g id="line2d_9">
      <g>
       <use xlink:href="#mec0082c985" x="50.87" y="200.072773" style="stroke: #000000; stroke-width: 0.8"/>
      </g>
     </g>
     <g id="text_10">
      <!-- 200 -->
      <g transform="translate(24.7825 203.871992) scale(0.1 -0.1)">
       <use xlink:href="#DejaVuSans-32"/>
       <use xlink:href="#DejaVuSans-30" transform="translate(63.623047 0)"/>
       <use xlink:href="#DejaVuSans-30" transform="translate(127.246094 0)"/>
      </g>
     </g>
    </g>
    <g id="ytick_4">
     <g id="line2d_10">
      <g>
       <use xlink:href="#mec0082c985" x="50.87" y="125.548372" style="stroke: #000000; stroke-width: 0.8"/>
      </g>
     </g>
     <g id="text_11">
      <!-- 250 -->
      <g transform="translate(24.7825 129.347591) scale(0.1 -0.1)">
       <use xlink:href="#DejaVuSans-32"/>
       <use xlink:href="#DejaVuSans-35" transform="translate(63.623047 0)"/>
       <use xlink:href="#DejaVuSans-30" transform="translate(127.246094 0)"/>
      </g>
     </g>
    </g>
    <g id="ytick_5">
     <g id="line2d_11">
      <g>
       <use xlink:href="#mec0082c985" x="50.87" y="51.023971" style="stroke: #000000; stroke-width: 0.8"/>
      </g>
     </g>
     <g id="text_12">
      <!-- 300 -->
      <g transform="translate(24.7825 54.82319) scale(0.1 -0.1)">
       <use xlink:href="#DejaVuSans-33"/>
       <use xlink:href="#DejaVuSans-30" transform="translate(63.623047 0)"/>
       <use xlink:href="#DejaVuSans-30" transform="translate(127.246094 0)"/>
      </g>
     </g>
    </g>
    <g id="text_13">
     <!-- Profit -->
     <g transform="translate(18.702813 229.779063) rotate(-90) scale(0.1 -0.1)">
      <defs>
       <path id="DejaVuSans-50" d="M 1259 4147 
L 1259 2394 
L 2053 2394 
Q 2494 2394 2734 2622 
Q 2975 2850 2975 3272 
Q 2975 3691 2734 3919 
Q 2494 4147 2053 4147 
L 1259 4147 
z
M 628 4666 
L 2053 4666 
Q 2838 4666 3239 4311 
Q 3641 3956 3641 3272 
Q 3641 2581 3239 2228 
Q 2838 1875 2053 1875 
L 1259 1875 
L 1259 0 
L 628 0 
L 628 4666 
z
" transform="scale(0.015625)"/>
       <path id="DejaVuSans-72" d="M 2631 2963 
Q 2534 3019 2420 3045 
Q 2306 3072 2169 3072 
Q 1681 3072 1420 2755 
Q 1159 2438 1159 1844 
L 1159 0 
L 581 0 
L 581 3500 
L 1159 3500 
L 1159 2956 
Q 1341 3275 1631 3429 
Q 1922 3584 2338 3584 
Q 2397 3584 2469 3576 
Q 2541 3569 2628 3553 
L 2631 2963 
z
" transform="scale(0.015625)"/>
       <path id="DejaVuSans-6f" d="M 1959 3097 
Q 1497 3097 1228 2736 
Q 959 2375 959 1747 
Q 959 1119 1226 758 
Q 1494 397 1959 397 
Q 2419 397 2687 759 
Q 2956 1122 2956 1747 
Q 2956 2369 2687 2733 
Q 2419 3097 1959 3097 
z
M 1959 3584 
Q 2709 3584 3137 3096 
Q 3566 2609 3566 1747 
Q 3566 888 3137 398 
Q 2709 -91 1959 -91 
Q 1206 -91 779 398 
Q 353 888 353 1747 
Q 353 2609 779 3096 
Q 1206 3584 1959 3584 
z
" transform="scale(0.015625)"/>
       <path id="DejaVuSans-66" d="M 2375 4863 
L 2375 4384 
L 1825 4384 
Q 1516 4384 1395 4259 
Q 1275 4134 1275 3809 
L 1275 3500 
L 2222 3500 
L 2222 3053 
L 1275 3053 
L 1275 0 
L 697 0 
L 697 3053 
L 147 3053 
L 147 3500 
L 697 3500 
L 697 3744 
Q 697 4328 969 4595 
Q 1241 4863 1831 4863 
L 2375 4863 
z
" transform="scale(0.015625)"/>
       <path id="DejaVuSans-69" d="M 603 3500 
L 1178 3500 
L 1178 0 
L 603 0 
L 603 3500 
z
M 603 4863 
L 1178 4863 
L 1178 4134 
L 603 4134 
L 603 4863 
z
" transform="scale(0.015625)"/>
      </defs>
      <use xlink:href="#DejaVuSans-50"/>
      <use xlink:href="#DejaVuSans-72" transform="translate(58.552734 0)"/>
      <use xlink:href="#DejaVuSans-6f" transform="translate(97.416016 0)"/>
      <use xlink:href="#DejaVuSans-66" transform="translate(158.597656 0)"/>
      <use xlink:href="#DejaVuSans-69" transform="translate(193.802734 0)"/>
      <use xlink:href="#DejaVuSans-74" transform="translate(221.585938 0)"/>
     </g>
    </g>
   </g>
   <g id="line2d_12">
    <path d="M 52.193327 247.526745 
L 54.83998 247.405979 
L 57.486633 243.534067 
L 60.133287 239.344185 
L 65.426593 230.601054 
L 68.073247 226.736238 
L 70.7199 223.647778 
L 73.366553 220.785521 
L 78.65986 215.956104 
L 81.306513 213.907684 
L 83.953167 211.65867 
L 91.893127 205.777296 
L 94.53978 204.291334 
L 99.833087 201.794353 
L 102.47974 200.215645 
L 105.126393 199.035758 
L 107.773047 198.122261 
L 110.4197 197.020133 
L 113.066353 195.767378 
L 121.006313 192.76275 
L 123.652967 192.244254 
L 131.592927 189.767764 
L 136.886233 188.690517 
L 142.17954 187.021769 
L 147.472847 185.818094 
L 150.1195 185.048423 
L 152.766153 184.688151 
L 160.706113 183.045808 
L 163.352767 182.402134 
L 168.646073 181.627233 
L 171.292727 181.540127 
L 187.172647 179.034572 
L 189.8193 178.463744 
L 192.465953 178.30618 
L 195.112607 177.874677 
L 197.75926 177.592572 
L 200.405913 177.022336 
L 203.052567 176.905641 
L 208.345873 176.401473 
L 213.63918 175.458524 
L 216.285833 175.281037 
L 226.872447 173.737194 
L 229.5191 173.65193 
L 232.165753 173.420384 
L 234.812407 173.322452 
L 240.105713 172.866477 
L 242.752367 172.806867 
L 248.045673 172.003128 
L 255.985633 171.089608 
L 261.27894 170.932841 
L 266.572247 170.636294 
L 274.512207 170.077975 
L 277.15886 169.94577 
L 279.805513 169.640172 
L 285.09882 169.388474 
L 287.745473 168.880372 
L 298.332087 168.360216 
L 300.97874 168.08689 
L 303.625393 167.949818 
L 306.272047 167.947202 
L 308.9187 167.676901 
L 311.565353 167.537464 
L 319.505313 166.705751 
L 322.151967 166.651122 
L 327.445273 166.091438 
L 330.091927 166.057369 
L 332.73858 165.840537 
L 335.385233 165.806855 
L 340.67854 165.373645 
L 345.971847 165.117354 
L 348.6185 165.103799 
L 353.911807 164.824082 
L 359.205113 164.528764 
L 361.851767 164.399924 
L 364.49842 163.995963 
L 369.791727 163.774855 
L 375.085033 163.751589 
L 380.37834 163.25579 
L 385.671647 163.21972 
L 390.964953 163.08665 
L 398.904913 162.431696 
L 401.551567 162.517915 
L 428.0181 161.306825 
L 430.664753 161.432139 
L 435.95806 161.057834 
L 446.544673 160.355893 
L 449.191327 160.415889 
L 454.484633 159.918567 
L 457.131287 159.874901 
L 459.77794 159.693411 
L 462.424593 159.773808 
L 465.071247 159.742741 
L 467.7179 159.520246 
L 470.364553 159.430342 
L 475.65786 158.987331 
L 478.304513 158.899724 
L 483.59782 158.526989 
L 491.53778 158.112633 
L 494.184433 158.087297 
L 496.831087 157.932804 
L 499.47774 158.023321 
L 507.4177 157.853726 
L 510.064353 157.533209 
L 512.711007 157.492885 
L 520.650967 157.010869 
L 533.884233 156.911641 
L 539.17754 156.647413 
L 557.704113 155.99007 
L 560.350767 156.003398 
L 562.99742 156.135057 
L 565.644073 156.105378 
L 570.93738 155.833189 
L 573.584033 155.814062 
L 584.170647 155.145212 
L 597.403913 154.849211 
L 602.69722 154.750802 
L 607.990527 154.865677 
L 610.63718 154.691761 
L 615.930487 154.645388 
L 618.57714 154.431831 
L 631.810407 154.188367 
L 637.103713 154.137263 
L 645.043673 154.096667 
L 647.690327 154.012745 
L 650.33698 154.068784 
L 652.983633 153.886544 
L 658.27694 153.9933 
L 660.923593 153.699118 
L 666.2169 153.630798 
L 668.863553 153.485447 
L 671.510207 153.602597 
L 676.803513 153.457087 
L 682.09682 153.354698 
L 684.743473 153.147668 
L 690.03678 152.978073 
L 692.683433 152.670178 
L 695.330087 152.554825 
L 705.9167 152.581207 
L 708.563353 152.377338 
L 711.210007 152.651005 
L 735.029887 151.882086 
L 748.263153 151.243416 
L 761.49642 151.02879 
L 764.143073 150.857489 
L 769.43638 150.873591 
L 774.729687 150.429874 
L 777.37634 150.545568 
L 780.022993 150.331078 
L 782.669647 150.387345 
L 785.3163 150.222731 
L 787.962953 150.224027 
L 790.609607 150.109493 
L 793.25626 150.211928 
L 811.782833 149.526748 
L 814.429487 149.708147 
L 817.07614 149.521381 
L 822.369447 149.729002 
L 827.662753 149.419878 
L 835.602713 149.664798 
L 843.542673 149.355971 
L 843.542673 149.355971 
" clip-path="url(#p798ea56265)" style="fill: none; stroke: #0000ff; stroke-width: 1.5; stroke-linecap: square"/>
   </g>
   <g id="patch_3">
    <path d="M 50.87 390.04 
L 50.87 43.44 
" style="fill: none; stroke: #000000; stroke-width: 0.8; stroke-linejoin: miter; stroke-linecap: square"/>
   </g>
   <g id="patch_4">
    <path d="M 844.866 390.04 
L 844.866 43.44 
" style="fill: none; stroke: #000000; stroke-width: 0.8; stroke-linejoin: miter; stroke-linecap: square"/>
   </g>
   <g id="patch_5">
    <path d="M 50.87 390.04 
L 844.866 390.04 
" style="fill: none; stroke: #000000; stroke-width: 0.8; stroke-linejoin: miter; stroke-linecap: square"/>
   </g>
   <g id="patch_6">
    <path d="M 50.87 43.44 
L 844.866 43.44 
" style="fill: none; stroke: #000000; stroke-width: 0.8; stroke-linejoin: miter; stroke-linecap: square"/>
   </g>
   <g id="text_14">
    <!-- Mean profit per step with confidence interval per simulation step -->
    <g transform="translate(220.284875 21.763062) scale(0.14 -0.14)">
     <defs>
      <path id="DejaVuSans-4d" d="M 628 4666 
L 1569 4666 
L 2759 1491 
L 3956 4666 
L 4897 4666 
L 4897 0 
L 4281 0 
L 4281 4097 
L 3078 897 
L 2444 897 
L 1241 4097 
L 1241 0 
L 628 0 
L 628 4666 
z
" transform="scale(0.015625)"/>
      <path id="DejaVuSans-61" d="M 2194 1759 
Q 1497 1759 1228 1600 
Q 959 1441 959 1056 
Q 959 750 1161 570 
Q 1363 391 1709 391 
Q 2188 391 2477 730 
Q 2766 1069 2766 1631 
L 2766 1759 
L 2194 1759 
z
M 3341 1997 
L 3341 0 
L 2766 0 
L 2766 531 
Q 2569 213 2275 61 
Q 1981 -91 1556 -91 
Q 1019 -91 701 211 
Q 384 513 384 1019 
Q 384 1609 779 1909 
Q 1175 2209 1959 2209 
L 2766 2209 
L 2766 2266 
Q 2766 2663 2505 2880 
Q 2244 3097 1772 3097 
Q 1472 3097 1187 3025 
Q 903 2953 641 2809 
L 641 3341 
Q 956 3463 1253 3523 
Q 1550 3584 1831 3584 
Q 2591 3584 2966 3190 
Q 3341 2797 3341 1997 
z
" transform="scale(0.015625)"/>
      <path id="DejaVuSans-6e" d="M 3513 2113 
L 3513 0 
L 2938 0 
L 2938 2094 
Q 2938 2591 2744 2837 
Q 2550 3084 2163 3084 
Q 1697 3084 1428 2787 
Q 1159 2491 1159 1978 
L 1159 0 
L 581 0 
L 581 3500 
L 1159 3500 
L 1159 2956 
Q 1366 3272 1645 3428 
Q 1925 3584 2291 3584 
Q 2894 3584 3203 3211 
Q 3513 2838 3513 2113 
z
" transform="scale(0.015625)"/>
      <path id="DejaVuSans-20" transform="scale(0.015625)"/>
      <path id="DejaVuSans-73" d="M 2834 3397 
L 2834 2853 
Q 2591 2978 2328 3040 
Q 2066 3103 1784 3103 
Q 1356 3103 1142 2972 
Q 928 2841 928 2578 
Q 928 2378 1081 2264 
Q 1234 2150 1697 2047 
L 1894 2003 
Q 2506 1872 2764 1633 
Q 3022 1394 3022 966 
Q 3022 478 2636 193 
Q 2250 -91 1575 -91 
Q 1294 -91 989 -36 
Q 684 19 347 128 
L 347 722 
Q 666 556 975 473 
Q 1284 391 1588 391 
Q 1994 391 2212 530 
Q 2431 669 2431 922 
Q 2431 1156 2273 1281 
Q 2116 1406 1581 1522 
L 1381 1569 
Q 847 1681 609 1914 
Q 372 2147 372 2553 
Q 372 3047 722 3315 
Q 1072 3584 1716 3584 
Q 2034 3584 2315 3537 
Q 2597 3491 2834 3397 
z
" transform="scale(0.015625)"/>
      <path id="DejaVuSans-77" d="M 269 3500 
L 844 3500 
L 1563 769 
L 2278 3500 
L 2956 3500 
L 3675 769 
L 4391 3500 
L 4966 3500 
L 4050 0 
L 3372 0 
L 2619 2869 
L 1863 0 
L 1184 0 
L 269 3500 
z
" transform="scale(0.015625)"/>
      <path id="DejaVuSans-68" d="M 3513 2113 
L 3513 0 
L 2938 0 
L 2938 2094 
Q 2938 2591 2744 2837 
Q 2550 3084 2163 3084 
Q 1697 3084 1428 2787 
Q 1159 2491 1159 1978 
L 1159 0 
L 581 0 
L 581 4863 
L 1159 4863 
L 1159 2956 
Q 1366 3272 1645 3428 
Q 1925 3584 2291 3584 
Q 2894 3584 3203 3211 
Q 3513 2838 3513 2113 
z
" transform="scale(0.015625)"/>
      <path id="DejaVuSans-63" d="M 3122 3366 
L 3122 2828 
Q 2878 2963 2633 3030 
Q 2388 3097 2138 3097 
Q 1578 3097 1268 2742 
Q 959 2388 959 1747 
Q 959 1106 1268 751 
Q 1578 397 2138 397 
Q 2388 397 2633 464 
Q 2878 531 3122 666 
L 3122 134 
Q 2881 22 2623 -34 
Q 2366 -91 2075 -91 
Q 1284 -91 818 406 
Q 353 903 353 1747 
Q 353 2603 823 3093 
Q 1294 3584 2113 3584 
Q 2378 3584 2631 3529 
Q 2884 3475 3122 3366 
z
" transform="scale(0.015625)"/>
      <path id="DejaVuSans-64" d="M 2906 2969 
L 2906 4863 
L 3481 4863 
L 3481 0 
L 2906 0 
L 2906 525 
Q 2725 213 2448 61 
Q 2172 -91 1784 -91 
Q 1150 -91 751 415 
Q 353 922 353 1747 
Q 353 2572 751 3078 
Q 1150 3584 1784 3584 
Q 2172 3584 2448 3432 
Q 2725 3281 2906 2969 
z
M 947 1747 
Q 947 1113 1208 752 
Q 1469 391 1925 391 
Q 2381 391 2643 752 
Q 2906 1113 2906 1747 
Q 2906 2381 2643 2742 
Q 2381 3103 1925 3103 
Q 1469 3103 1208 2742 
Q 947 2381 947 1747 
z
" transform="scale(0.015625)"/>
      <path id="DejaVuSans-76" d="M 191 3500 
L 800 3500 
L 1894 563 
L 2988 3500 
L 3597 3500 
L 2284 0 
L 1503 0 
L 191 3500 
z
" transform="scale(0.015625)"/>
      <path id="DejaVuSans-6c" d="M 603 4863 
L 1178 4863 
L 1178 0 
L 603 0 
L 603 4863 
z
" transform="scale(0.015625)"/>
      <path id="DejaVuSans-6d" d="M 3328 2828 
Q 3544 3216 3844 3400 
Q 4144 3584 4550 3584 
Q 5097 3584 5394 3201 
Q 5691 2819 5691 2113 
L 5691 0 
L 5113 0 
L 5113 2094 
Q 5113 2597 4934 2840 
Q 4756 3084 4391 3084 
Q 3944 3084 3684 2787 
Q 3425 2491 3425 1978 
L 3425 0 
L 2847 0 
L 2847 2094 
Q 2847 2600 2669 2842 
Q 2491 3084 2119 3084 
Q 1678 3084 1418 2786 
Q 1159 2488 1159 1978 
L 1159 0 
L 581 0 
L 581 3500 
L 1159 3500 
L 1159 2956 
Q 1356 3278 1631 3431 
Q 1906 3584 2284 3584 
Q 2666 3584 2933 3390 
Q 3200 3197 3328 2828 
z
" transform="scale(0.015625)"/>
      <path id="DejaVuSans-75" d="M 544 1381 
L 544 3500 
L 1119 3500 
L 1119 1403 
Q 1119 906 1312 657 
Q 1506 409 1894 409 
Q 2359 409 2629 706 
Q 2900 1003 2900 1516 
L 2900 3500 
L 3475 3500 
L 3475 0 
L 2900 0 
L 2900 538 
Q 2691 219 2414 64 
Q 2138 -91 1772 -91 
Q 1169 -91 856 284 
Q 544 659 544 1381 
z
M 1991 3584 
L 1991 3584 
z
" transform="scale(0.015625)"/>
     </defs>
     <use xlink:href="#DejaVuSans-4d"/>
     <use xlink:href="#DejaVuSans-65" transform="translate(86.279297 0)"/>
     <use xlink:href="#DejaVuSans-61" transform="translate(147.802734 0)"/>
     <use xlink:href="#DejaVuSans-6e" transform="translate(209.082031 0)"/>
     <use xlink:href="#DejaVuSans-20" transform="translate(272.460938 0)"/>
     <use xlink:href="#DejaVuSans-70" transform="translate(304.248047 0)"/>
     <use xlink:href="#DejaVuSans-72" transform="translate(367.724609 0)"/>
     <use xlink:href="#DejaVuSans-6f" transform="translate(406.587891 0)"/>
     <use xlink:href="#DejaVuSans-66" transform="translate(467.769531 0)"/>
     <use xlink:href="#DejaVuSans-69" transform="translate(502.974609 0)"/>
     <use xlink:href="#DejaVuSans-74" transform="translate(530.757812 0)"/>
     <use xlink:href="#DejaVuSans-20" transform="translate(569.966797 0)"/>
     <use xlink:href="#DejaVuSans-70" transform="translate(601.753906 0)"/>
     <use xlink:href="#DejaVuSans-65" transform="translate(665.230469 0)"/>
     <use xlink:href="#DejaVuSans-72" transform="translate(726.753906 0)"/>
     <use xlink:href="#DejaVuSans-20" transform="translate(767.867188 0)"/>
     <use xlink:href="#DejaVuSans-73" transform="translate(799.654297 0)"/>
     <use xlink:href="#DejaVuSans-74" transform="translate(851.753906 0)"/>
     <use xlink:href="#DejaVuSans-65" transform="translate(890.962891 0)"/>
     <use xlink:href="#DejaVuSans-70" transform="translate(952.486328 0)"/>
     <use xlink:href="#DejaVuSans-20" transform="translate(1015.962891 0)"/>
     <use xlink:href="#DejaVuSans-77" transform="translate(1047.75 0)"/>
     <use xlink:href="#DejaVuSans-69" transform="translate(1129.537109 0)"/>
     <use xlink:href="#DejaVuSans-74" transform="translate(1157.320312 0)"/>
     <use xlink:href="#DejaVuSans-68" transform="translate(1196.529297 0)"/>
     <use xlink:href="#DejaVuSans-20" transform="translate(1259.908203 0)"/>
     <use xlink:href="#DejaVuSans-63" transform="translate(1291.695312 0)"/>
     <use xlink:href="#DejaVuSans-6f" transform="translate(1346.675781 0)"/>
     <use xlink:href="#DejaVuSans-6e" transform="translate(1407.857422 0)"/>
     <use xlink:href="#DejaVuSans-66" transform="translate(1471.236328 0)"/>
     <use xlink:href="#DejaVuSans-69" transform="translate(1506.441406 0)"/>
     <use xlink:href="#DejaVuSans-64" transform="translate(1534.224609 0)"/>
     <use xlink:href="#DejaVuSans-65" transform="translate(1597.701172 0)"/>
     <use xlink:href="#DejaVuSans-6e" transform="translate(1659.224609 0)"/>
     <use xlink:href="#DejaVuSans-63" transform="translate(1722.603516 0)"/>
     <use xlink:href="#DejaVuSans-65" transform="translate(1777.583984 0)"/>
     <use xlink:href="#DejaVuSans-20" transform="translate(1839.107422 0)"/>
     <use xlink:href="#DejaVuSans-69" transform="translate(1870.894531 0)"/>
     <use xlink:href="#DejaVuSans-6e" transform="translate(1898.677734 0)"/>
     <use xlink:href="#DejaVuSans-74" transform="translate(1962.056641 0)"/>
     <use xlink:href="#DejaVuSans-65" transform="translate(2001.265625 0)"/>
     <use xlink:href="#DejaVuSans-72" transform="translate(2062.789062 0)"/>
     <use xlink:href="#DejaVuSans-76" transform="translate(2103.902344 0)"/>
     <use xlink:href="#DejaVuSans-61" transform="translate(2163.082031 0)"/>
     <use xlink:href="#DejaVuSans-6c" transform="translate(2224.361328 0)"/>
     <use xlink:href="#DejaVuSans-20" transform="translate(2252.144531 0)"/>
     <use xlink:href="#DejaVuSans-70" transform="translate(2283.931641 0)"/>
     <use xlink:href="#DejaVuSans-65" transform="translate(2347.408203 0)"/>
     <use xlink:href="#DejaVuSans-72" transform="translate(2408.931641 0)"/>
     <use xlink:href="#DejaVuSans-20" transform="translate(2450.044922 0)"/>
     <use xlink:href="#DejaVuSans-73" transform="translate(2481.832031 0)"/>
     <use xlink:href="#DejaVuSans-69" transform="translate(2533.931641 0)"/>
     <use xlink:href="#DejaVuSans-6d" transform="translate(2561.714844 0)"/>
     <use xlink:href="#DejaVuSans-75" transform="translate(2659.126953 0)"/>
     <use xlink:href="#DejaVuSans-6c" transform="translate(2722.505859 0)"/>
     <use xlink:href="#DejaVuSans-61" transform="translate(2750.289062 0)"/>
     <use xlink:href="#DejaVuSans-74" transform="translate(2811.568359 0)"/>
     <use xlink:href="#DejaVuSans-69" transform="translate(2850.777344 0)"/>
     <use xlink:href="#DejaVuSans-6f" transform="translate(2878.560547 0)"/>
     <use xlink:href="#DejaVuSans-6e" transform="translate(2939.742188 0)"/>
     <use xlink:href="#DejaVuSans-20" transform="translate(3003.121094 0)"/>
     <use xlink:href="#DejaVuSans-73" transform="translate(3034.908203 0)"/>
     <use xlink:href="#DejaVuSans-74" transform="translate(3087.007812 0)"/>
     <use xlink:href="#DejaVuSans-65" transform="translate(3126.216797 0)"/>
     <use xlink:href="#DejaVuSans-70" transform="translate(3187.740234 0)"/>
    </g>
    <!-- Base Product: Meth, Recipe size: 10, T0: 50.0 -->
    <g transform="translate(289.427375 37.44) scale(0.14 -0.14)">
     <defs>
      <path id="DejaVuSans-42" d="M 1259 2228 
L 1259 519 
L 2272 519 
Q 2781 519 3026 730 
Q 3272 941 3272 1375 
Q 3272 1813 3026 2020 
Q 2781 2228 2272 2228 
L 1259 2228 
z
M 1259 4147 
L 1259 2741 
L 2194 2741 
Q 2656 2741 2882 2914 
Q 3109 3088 3109 3444 
Q 3109 3797 2882 3972 
Q 2656 4147 2194 4147 
L 1259 4147 
z
M 628 4666 
L 2241 4666 
Q 2963 4666 3353 4366 
Q 3744 4066 3744 3513 
Q 3744 3084 3544 2831 
Q 3344 2578 2956 2516 
Q 3422 2416 3680 2098 
Q 3938 1781 3938 1306 
Q 3938 681 3513 340 
Q 3088 0 2303 0 
L 628 0 
L 628 4666 
z
" transform="scale(0.015625)"/>
      <path id="DejaVuSans-3a" d="M 750 794 
L 1409 794 
L 1409 0 
L 750 0 
L 750 794 
z
M 750 3309 
L 1409 3309 
L 1409 2516 
L 750 2516 
L 750 3309 
z
" transform="scale(0.015625)"/>
      <path id="DejaVuSans-2c" d="M 750 794 
L 1409 794 
L 1409 256 
L 897 -744 
L 494 -744 
L 750 256 
L 750 794 
z
" transform="scale(0.015625)"/>
      <path id="DejaVuSans-52" d="M 2841 2188 
Q 3044 2119 3236 1894 
Q 3428 1669 3622 1275 
L 4263 0 
L 3584 0 
L 2988 1197 
Q 2756 1666 2539 1819 
Q 2322 1972 1947 1972 
L 1259 1972 
L 1259 0 
L 628 0 
L 628 4666 
L 2053 4666 
Q 2853 4666 3247 4331 
Q 3641 3997 3641 3322 
Q 3641 2881 3436 2590 
Q 3231 2300 2841 2188 
z
M 1259 4147 
L 1259 2491 
L 2053 2491 
Q 2509 2491 2742 2702 
Q 2975 2913 2975 3322 
Q 2975 3731 2742 3939 
Q 2509 4147 2053 4147 
L 1259 4147 
z
" transform="scale(0.015625)"/>
      <path id="DejaVuSans-7a" d="M 353 3500 
L 3084 3500 
L 3084 2975 
L 922 459 
L 3084 459 
L 3084 0 
L 275 0 
L 275 525 
L 2438 3041 
L 353 3041 
L 353 3500 
z
" transform="scale(0.015625)"/>
      <path id="DejaVuSans-54" d="M -19 4666 
L 3928 4666 
L 3928 4134 
L 2272 4134 
L 2272 0 
L 1638 0 
L 1638 4134 
L -19 4134 
L -19 4666 
z
" transform="scale(0.015625)"/>
      <path id="DejaVuSans-2e" d="M 684 794 
L 1344 794 
L 1344 0 
L 684 0 
L 684 794 
z
" transform="scale(0.015625)"/>
     </defs>
     <use xlink:href="#DejaVuSans-42"/>
     <use xlink:href="#DejaVuSans-61" transform="translate(68.603516 0)"/>
     <use xlink:href="#DejaVuSans-73" transform="translate(129.882812 0)"/>
     <use xlink:href="#DejaVuSans-65" transform="translate(181.982422 0)"/>
     <use xlink:href="#DejaVuSans-20" transform="translate(243.505859 0)"/>
     <use xlink:href="#DejaVuSans-50" transform="translate(275.292969 0)"/>
     <use xlink:href="#DejaVuSans-72" transform="translate(333.845703 0)"/>
     <use xlink:href="#DejaVuSans-6f" transform="translate(372.708984 0)"/>
     <use xlink:href="#DejaVuSans-64" transform="translate(433.890625 0)"/>
     <use xlink:href="#DejaVuSans-75" transform="translate(497.367188 0)"/>
     <use xlink:href="#DejaVuSans-63" transform="translate(560.746094 0)"/>
     <use xlink:href="#DejaVuSans-74" transform="translate(615.726562 0)"/>
     <use xlink:href="#DejaVuSans-3a" transform="translate(654.935547 0)"/>
     <use xlink:href="#DejaVuSans-20" transform="translate(688.626953 0)"/>
     <use xlink:href="#DejaVuSans-4d" transform="translate(720.414062 0)"/>
     <use xlink:href="#DejaVuSans-65" transform="translate(806.693359 0)"/>
     <use xlink:href="#DejaVuSans-74" transform="translate(868.216797 0)"/>
     <use xlink:href="#DejaVuSans-68" transform="translate(907.425781 0)"/>
     <use xlink:href="#DejaVuSans-2c" transform="translate(970.804688 0)"/>
     <use xlink:href="#DejaVuSans-20" transform="translate(1002.591797 0)"/>
     <use xlink:href="#DejaVuSans-52" transform="translate(1034.378906 0)"/>
     <use xlink:href="#DejaVuSans-65" transform="translate(1099.361328 0)"/>
     <use xlink:href="#DejaVuSans-63" transform="translate(1160.884766 0)"/>
     <use xlink:href="#DejaVuSans-69" transform="translate(1215.865234 0)"/>
     <use xlink:href="#DejaVuSans-70" transform="translate(1243.648438 0)"/>
     <use xlink:href="#DejaVuSans-65" transform="translate(1307.125 0)"/>
     <use xlink:href="#DejaVuSans-20" transform="translate(1368.648438 0)"/>
     <use xlink:href="#DejaVuSans-73" transform="translate(1400.435547 0)"/>
     <use xlink:href="#DejaVuSans-69" transform="translate(1452.535156 0)"/>
     <use xlink:href="#DejaVuSans-7a" transform="translate(1480.318359 0)"/>
     <use xlink:href="#DejaVuSans-65" transform="translate(1532.808594 0)"/>
     <use xlink:href="#DejaVuSans-3a" transform="translate(1594.332031 0)"/>
     <use xlink:href="#DejaVuSans-20" transform="translate(1628.023438 0)"/>
     <use xlink:href="#DejaVuSans-31" transform="translate(1659.810547 0)"/>
     <use xlink:href="#DejaVuSans-30" transform="translate(1723.433594 0)"/>
     <use xlink:href="#DejaVuSans-2c" transform="translate(1787.056641 0)"/>
     <use xlink:href="#DejaVuSans-20" transform="translate(1818.84375 0)"/>
     <use xlink:href="#DejaVuSans-54" transform="translate(1850.630859 0)"/>
     <use xlink:href="#DejaVuSans-30" transform="translate(1911.714844 0)"/>
     <use xlink:href="#DejaVuSans-3a" transform="translate(1975.337891 0)"/>
     <use xlink:href="#DejaVuSans-20" transform="translate(2009.029297 0)"/>
     <use xlink:href="#DejaVuSans-35" transform="translate(2040.816406 0)"/>
     <use xlink:href="#DejaVuSans-30" transform="translate(2104.439453 0)"/>
     <use xlink:href="#DejaVuSans-2e" transform="translate(2168.0625 0)"/>
     <use xlink:href="#DejaVuSans-30" transform="translate(2199.849609 0)"/>
    </g>
   </g>
  </g>
 </g>
 <defs>
  <clipPath id="p798ea56265">
   <rect x="50.87" y="43.44" width="793.996" height="346.6"/>
  </clipPath>
 </defs>
</svg>
