<?xml version="1.0" encoding="utf-8" standalone="no"?>
<!DOCTYPE svg PUBLIC "-//W3C//DTD SVG 1.1//EN"
  "http://www.w3.org/Graphics/SVG/1.1/DTD/svg11.dtd">
<svg xmlns:xlink="http://www.w3.org/1999/xlink" width="864pt" height="432pt" viewBox="0 0 864 432" xmlns="http://www.w3.org/2000/svg" version="1.1">
 <metadata>
  <rdf:RDF xmlns:dc="http://purl.org/dc/elements/1.1/" xmlns:cc="http://creativecommons.org/ns#" xmlns:rdf="http://www.w3.org/1999/02/22-rdf-syntax-ns#">
   <cc:Work>
    <dc:type rdf:resource="http://purl.org/dc/dcmitype/StillImage"/>
    <dc:date>2025-05-24T02:04:08.507384</dc:date>
    <dc:format>image/svg+xml</dc:format>
    <dc:creator>
     <cc:Agent>
      <dc:title>Matplotlib v3.10.3, https://matplotlib.org/</dc:title>
     </cc:Agent>
    </dc:creator>
   </cc:Work>
  </rdf:RDF>
 </metadata>
 <defs>
  <style type="text/css">*{stroke-linejoin: round; stroke-linecap: butt}</style>
 </defs>
 <g id="figure_1">
  <g id="patch_1">
   <path d="M 0 432 
L 864 432 
L 864 0 
L 0 0 
z
" style="fill: #ffffff"/>
  </g>
  <g id="axes_1">
   <g id="patch_2">
    <path d="M 50.87 390.04 
L 844.866 390.04 
L 844.866 43.44 
L 50.87 43.44 
z
" style="fill: #ffffff"/>
   </g>
   <g id="FillBetweenPolyCollection_1">
    <defs>
     <path id="m876086b291" d="M 52.193327 -299.603567 
L 52.193327 -59.248356 
L 54.83998 -57.714545 
L 57.486633 -67.59842 
L 60.133287 -78.296851 
L 62.77994 -88.318986 
L 65.426593 -96.218168 
L 68.073247 -103.703611 
L 70.7199 -110.556497 
L 73.366553 -117.029933 
L 76.013207 -121.689821 
L 78.65986 -126.936406 
L 81.306513 -131.595958 
L 83.953167 -136.138505 
L 86.59982 -140.193812 
L 89.246473 -143.767869 
L 91.893127 -147.064368 
L 94.53978 -149.880645 
L 97.186433 -153.239755 
L 99.833087 -155.992687 
L 102.47974 -158.632299 
L 105.126393 -161.268286 
L 107.773047 -163.392593 
L 110.4197 -165.732762 
L 113.066353 -167.768089 
L 115.713007 -170.21514 
L 118.35966 -171.860935 
L 121.006313 -173.461004 
L 123.652967 -175.015335 
L 126.29962 -177.000414 
L 128.946273 -178.383561 
L 131.592927 -180.188462 
L 134.23958 -181.520586 
L 136.886233 -183.244982 
L 139.532887 -184.10772 
L 142.17954 -185.170321 
L 144.826193 -186.638424 
L 147.472847 -187.935382 
L 150.1195 -189.17814 
L 152.766153 -190.442367 
L 155.412807 -191.399705 
L 158.05946 -192.541915 
L 160.706113 -193.406751 
L 163.352767 -194.54281 
L 165.99942 -195.730361 
L 168.646073 -196.32878 
L 171.292727 -197.445021 
L 173.93938 -198.355359 
L 176.586033 -198.996959 
L 179.232687 -200.054071 
L 181.87934 -200.707179 
L 184.525993 -201.219297 
L 187.172647 -202.066555 
L 189.8193 -202.691575 
L 192.465953 -203.218746 
L 195.112607 -203.987586 
L 197.75926 -204.712716 
L 200.405913 -205.542233 
L 203.052567 -206.188681 
L 205.69922 -206.61454 
L 208.345873 -207.189699 
L 210.992527 -208.114295 
L 213.63918 -208.687254 
L 216.285833 -209.119101 
L 218.932487 -209.529521 
L 221.57914 -210.132829 
L 224.225793 -210.699514 
L 226.872447 -211.250883 
L 229.5191 -211.592865 
L 232.165753 -212.191834 
L 234.812407 -212.840522 
L 237.45906 -213.33209 
L 240.105713 -213.775119 
L 242.752367 -214.440285 
L 245.39902 -214.683604 
L 248.045673 -215.081376 
L 250.692327 -215.729901 
L 253.33898 -216.001959 
L 255.985633 -216.677126 
L 258.632287 -217.533468 
L 261.27894 -217.789293 
L 263.925593 -218.086445 
L 266.572247 -218.56622 
L 269.2189 -218.930893 
L 271.865553 -219.086302 
L 274.512207 -219.452971 
L 277.15886 -219.643252 
L 279.805513 -220.162866 
L 282.452167 -220.625938 
L 285.09882 -220.973522 
L 287.745473 -221.296624 
L 290.392127 -221.663252 
L 293.03878 -221.810677 
L 295.685433 -222.069436 
L 298.332087 -222.476902 
L 300.97874 -223.086992 
L 303.625393 -223.371354 
L 306.272047 -223.764787 
L 308.9187 -223.901804 
L 311.565353 -224.402598 
L 314.212007 -224.981484 
L 316.85866 -225.265865 
L 319.505313 -225.548332 
L 322.151967 -225.851982 
L 324.79862 -226.202234 
L 327.445273 -226.474435 
L 330.091927 -226.717225 
L 332.73858 -226.800083 
L 335.385233 -227.220117 
L 338.031887 -227.486493 
L 340.67854 -227.684717 
L 343.325193 -227.978304 
L 345.971847 -228.15392 
L 348.6185 -228.741605 
L 351.265153 -229.136321 
L 353.911807 -229.402452 
L 356.55846 -229.736695 
L 359.205113 -230.027248 
L 361.851767 -230.284275 
L 364.49842 -230.509976 
L 367.145073 -230.767288 
L 369.791727 -230.923716 
L 372.43838 -231.194165 
L 375.085033 -231.482091 
L 377.731687 -231.600451 
L 380.37834 -231.995208 
L 383.024993 -232.052443 
L 385.671647 -232.237142 
L 388.3183 -232.568004 
L 390.964953 -232.838107 
L 393.611607 -233.041728 
L 396.25826 -233.273906 
L 398.904913 -233.611958 
L 401.551567 -233.877539 
L 404.19822 -234.288754 
L 406.844873 -234.478464 
L 409.491527 -234.784578 
L 412.13818 -235.044904 
L 414.784833 -235.302278 
L 417.431487 -235.735734 
L 420.07814 -235.895095 
L 422.724793 -236.116111 
L 425.371447 -236.252171 
L 428.0181 -236.532723 
L 430.664753 -236.809283 
L 433.311407 -237.015329 
L 435.95806 -237.03641 
L 438.604713 -237.372649 
L 441.251367 -237.456749 
L 443.89802 -237.658313 
L 446.544673 -237.842116 
L 449.191327 -237.969785 
L 451.83798 -238.140959 
L 454.484633 -238.538548 
L 457.131287 -238.659372 
L 459.77794 -238.79203 
L 462.424593 -238.945383 
L 465.071247 -239.227279 
L 467.7179 -239.293598 
L 470.364553 -239.677132 
L 473.011207 -239.964365 
L 475.65786 -240.097329 
L 478.304513 -240.314088 
L 480.951167 -240.468928 
L 483.59782 -240.776916 
L 486.244473 -241.034839 
L 488.891127 -240.985161 
L 491.53778 -241.31645 
L 494.184433 -241.376496 
L 496.831087 -241.491984 
L 499.47774 -241.511924 
L 502.124393 -241.637576 
L 504.771047 -241.714446 
L 507.4177 -241.729172 
L 510.064353 -241.865476 
L 512.711007 -242.074842 
L 515.35766 -242.283759 
L 518.004313 -242.394705 
L 520.650967 -242.485364 
L 523.29762 -242.64279 
L 525.944273 -242.870283 
L 528.590927 -242.968906 
L 531.23758 -243.253552 
L 533.884233 -243.483876 
L 536.530887 -243.630242 
L 539.17754 -243.864559 
L 541.824193 -243.95149 
L 544.470847 -244.188984 
L 547.1175 -244.309035 
L 549.764153 -244.566326 
L 552.410807 -244.76734 
L 555.05746 -245.097632 
L 557.704113 -245.166965 
L 560.350767 -245.156068 
L 562.99742 -245.18766 
L 565.644073 -245.346471 
L 568.290727 -245.47587 
L 570.93738 -245.561356 
L 573.584033 -245.769641 
L 576.230687 -245.781842 
L 578.87734 -245.827447 
L 581.523993 -245.958761 
L 584.170647 -246.19933 
L 586.8173 -246.320643 
L 589.463953 -246.451978 
L 592.110607 -246.547423 
L 594.75726 -246.848262 
L 597.403913 -247.119852 
L 600.050567 -247.229698 
L 602.69722 -247.424969 
L 605.343873 -247.471286 
L 607.990527 -247.681975 
L 610.63718 -247.744221 
L 613.283833 -247.90291 
L 615.930487 -248.206335 
L 618.57714 -248.19167 
L 621.223793 -248.37808 
L 623.870447 -248.572332 
L 626.5171 -248.588953 
L 629.163753 -248.77355 
L 631.810407 -248.971448 
L 634.45706 -248.964075 
L 637.103713 -249.186252 
L 639.750367 -249.176394 
L 642.39702 -249.309968 
L 645.043673 -249.433319 
L 647.690327 -249.568564 
L 650.33698 -249.664783 
L 652.983633 -249.975277 
L 655.630287 -250.034793 
L 658.27694 -250.151421 
L 660.923593 -250.227151 
L 663.570247 -250.413764 
L 666.2169 -250.479961 
L 668.863553 -250.751755 
L 671.510207 -250.73711 
L 674.15686 -250.76031 
L 676.803513 -250.857059 
L 679.450167 -250.98489 
L 682.09682 -251.149466 
L 684.743473 -251.2996 
L 687.390127 -251.493465 
L 690.03678 -251.503058 
L 692.683433 -251.557951 
L 695.330087 -251.783692 
L 697.97674 -251.725928 
L 700.623393 -251.932441 
L 703.270047 -252.009148 
L 705.9167 -252.234441 
L 708.563353 -252.43902 
L 711.210007 -252.520187 
L 713.85666 -252.859054 
L 716.503313 -253.015176 
L 719.149967 -253.066464 
L 721.79662 -253.241121 
L 724.443273 -253.378363 
L 727.089927 -253.359318 
L 729.73658 -253.382049 
L 732.383233 -253.583532 
L 735.029887 -253.533202 
L 737.67654 -253.589663 
L 740.323193 -253.640828 
L 742.969847 -253.682196 
L 745.6165 -253.887161 
L 748.263153 -253.924578 
L 750.909807 -254.146694 
L 753.55646 -254.136754 
L 756.203113 -254.282 
L 758.849767 -254.40812 
L 761.49642 -254.666369 
L 764.143073 -254.878769 
L 766.789727 -255.082635 
L 769.43638 -255.212075 
L 772.083033 -255.254237 
L 774.729687 -255.408466 
L 777.37634 -255.616059 
L 780.022993 -255.803101 
L 782.669647 -255.814262 
L 785.3163 -255.967045 
L 787.962953 -255.842635 
L 790.609607 -255.785238 
L 793.25626 -256.069313 
L 795.902913 -256.167631 
L 798.549567 -256.282569 
L 801.19622 -256.337482 
L 803.842873 -256.411011 
L 806.489527 -256.419749 
L 809.13618 -256.554139 
L 811.782833 -256.58848 
L 814.429487 -256.700872 
L 817.07614 -256.821492 
L 819.722793 -256.992912 
L 822.369447 -257.083021 
L 825.0161 -257.245661 
L 827.662753 -257.344977 
L 830.309407 -257.574568 
L 832.95606 -257.726006 
L 835.602713 -257.780735 
L 838.249367 -257.850965 
L 840.89602 -257.869541 
L 843.542673 -258.078987 
L 843.542673 -372.805455 
L 843.542673 -372.805455 
L 840.89602 -372.803825 
L 838.249367 -372.731559 
L 835.602713 -372.664995 
L 832.95606 -372.664588 
L 830.309407 -372.656685 
L 827.662753 -372.695222 
L 825.0161 -372.655218 
L 822.369447 -372.747283 
L 819.722793 -372.739217 
L 817.07614 -372.771725 
L 814.429487 -372.709357 
L 811.782833 -372.67746 
L 809.13618 -372.566413 
L 806.489527 -372.593421 
L 803.842873 -372.476711 
L 801.19622 -372.556921 
L 798.549567 -372.437604 
L 795.902913 -372.477607 
L 793.25626 -372.439111 
L 790.609607 -372.501438 
L 787.962953 -372.378618 
L 785.3163 -372.245206 
L 782.669647 -372.315069 
L 780.022993 -372.254005 
L 777.37634 -372.285657 
L 774.729687 -372.311443 
L 772.083033 -372.303866 
L 769.43638 -372.220153 
L 766.789727 -372.184956 
L 764.143073 -372.266755 
L 761.49642 -372.275839 
L 758.849767 -372.396705 
L 756.203113 -372.341099 
L 753.55646 -372.320242 
L 750.909807 -372.076719 
L 748.263153 -372.099736 
L 745.6165 -372.009138 
L 742.969847 -372.055414 
L 740.323193 -371.975937 
L 737.67654 -371.906156 
L 735.029887 -371.844847 
L 732.383233 -371.681942 
L 729.73658 -371.776369 
L 727.089927 -371.635828 
L 724.443273 -371.631633 
L 721.79662 -371.617864 
L 719.149967 -371.609676 
L 716.503313 -371.584745 
L 713.85666 -371.543805 
L 711.210007 -371.719583 
L 708.563353 -371.67351 
L 705.9167 -371.674854 
L 703.270047 -371.712413 
L 700.623393 -371.681046 
L 697.97674 -371.794049 
L 695.330087 -371.549752 
L 692.683433 -371.571954 
L 690.03678 -371.454266 
L 687.390127 -371.355113 
L 684.743473 -371.297227 
L 682.09682 -371.287735 
L 679.450167 -371.20724 
L 676.803513 -371.15082 
L 674.15686 -371.126133 
L 671.510207 -371.015289 
L 668.863553 -370.869616 
L 666.2169 -370.893447 
L 663.570247 -370.817473 
L 660.923593 -370.849166 
L 658.27694 -370.823746 
L 655.630287 -370.801056 
L 652.983633 -370.713676 
L 650.33698 -370.740237 
L 647.690327 -370.654934 
L 645.043673 -370.629881 
L 642.39702 -370.589512 
L 639.750367 -370.577168 
L 637.103713 -370.449256 
L 634.45706 -370.507753 
L 631.810407 -370.38754 
L 629.163753 -370.374504 
L 626.5171 -370.360287 
L 623.870447 -370.211395 
L 621.223793 -370.169111 
L 618.57714 -370.08279 
L 615.930487 -369.923226 
L 613.283833 -370.055375 
L 610.63718 -370.025678 
L 607.990527 -369.980053 
L 605.343873 -370.00975 
L 602.69722 -369.90469 
L 600.050567 -369.862121 
L 597.403913 -369.744352 
L 594.75726 -369.744555 
L 592.110607 -369.691394 
L 589.463953 -369.599615 
L 586.8173 -369.483964 
L 584.170647 -369.436873 
L 581.523993 -369.362488 
L 578.87734 -369.371042 
L 576.230687 -369.254658 
L 573.584033 -369.089472 
L 570.93738 -369.055416 
L 568.290727 -368.946161 
L 565.644073 -368.90795 
L 562.99742 -368.849289 
L 560.350767 -368.764924 
L 557.704113 -368.58878 
L 555.05746 -368.432229 
L 552.410807 -368.521401 
L 549.764153 -368.48315 
L 547.1175 -368.539936 
L 544.470847 -368.474962 
L 541.824193 -368.436425 
L 539.17754 -368.408276 
L 536.530887 -368.352793 
L 533.884233 -368.331529 
L 531.23758 -368.30448 
L 528.590927 -368.276208 
L 525.944273 -368.208097 
L 523.29762 -368.181944 
L 520.650967 -368.110329 
L 518.004313 -367.925793 
L 515.35766 -367.844402 
L 512.711007 -367.762481 
L 510.064353 -367.708912 
L 507.4177 -367.595746 
L 504.771047 -367.362978 
L 502.124393 -367.27625 
L 499.47774 -367.317271 
L 496.831087 -367.141371 
L 494.184433 -367.050692 
L 491.53778 -366.956183 
L 488.891127 -366.896463 
L 486.244473 -366.745616 
L 483.59782 -366.689359 
L 480.951167 -366.612734 
L 478.304513 -366.585644 
L 475.65786 -366.468078 
L 473.011207 -366.314176 
L 470.364553 -366.311813 
L 467.7179 -366.361756 
L 465.071247 -366.180031 
L 462.424593 -366.207772 
L 459.77794 -366.059614 
L 457.131287 -365.944329 
L 454.484633 -365.794704 
L 451.83798 -365.88571 
L 449.191327 -365.765741 
L 446.544673 -365.67168 
L 443.89802 -365.643165 
L 441.251367 -365.536842 
L 438.604713 -365.406608 
L 435.95806 -365.345136 
L 433.311407 -365.176121 
L 430.664753 -365.088415 
L 428.0181 -365.071713 
L 425.371447 -365.028777 
L 422.724793 -364.86799 
L 420.07814 -364.787495 
L 417.431487 -364.65563 
L 414.784833 -364.710584 
L 412.13818 -364.587397 
L 409.491527 -364.482582 
L 406.844873 -364.383389 
L 404.19822 -364.233519 
L 401.551567 -364.26896 
L 398.904913 -364.198445 
L 396.25826 -364.233437 
L 393.611607 -364.152739 
L 390.964953 -364.058922 
L 388.3183 -363.976716 
L 385.671647 -363.931702 
L 383.024993 -363.8143 
L 380.37834 -363.547313 
L 377.731687 -363.473519 
L 375.085033 -363.271282 
L 372.43838 -363.087724 
L 369.791727 -362.939769 
L 367.145073 -362.804442 
L 364.49842 -362.772525 
L 361.851767 -362.686021 
L 359.205113 -362.451236 
L 356.55846 -362.27446 
L 353.911807 -362.181215 
L 351.265153 -362.063608 
L 348.6185 -362.114223 
L 345.971847 -362.175837 
L 343.325193 -362.071715 
L 340.67854 -361.881394 
L 338.031887 -361.724273 
L 335.385233 -361.569149 
L 332.73858 -361.345546 
L 330.091927 -361.014644 
L 327.445273 -360.727451 
L 324.79862 -360.575138 
L 322.151967 -360.479325 
L 319.505313 -360.32579 
L 316.85866 -360.030531 
L 314.212007 -359.873003 
L 311.565353 -359.820922 
L 308.9187 -359.656 
L 306.272047 -359.362921 
L 303.625393 -359.1814 
L 300.97874 -358.923436 
L 298.332087 -358.872332 
L 295.685433 -358.80143 
L 293.03878 -358.529758 
L 290.392127 -358.192542 
L 287.745473 -358.04809 
L 285.09882 -357.881661 
L 282.452167 -357.721587 
L 279.805513 -357.571575 
L 277.15886 -357.401398 
L 274.512207 -357.140848 
L 271.865553 -356.905635 
L 269.2189 -356.621335 
L 266.572247 -356.354022 
L 263.925593 -356.28198 
L 261.27894 -356.033671 
L 258.632287 -355.72391 
L 255.985633 -355.740184 
L 253.33898 -355.615001 
L 250.692327 -355.34942 
L 248.045673 -355.206679 
L 245.39902 -354.83115 
L 242.752367 -354.546687 
L 240.105713 -354.450895 
L 237.45906 -354.141766 
L 234.812407 -353.90855 
L 232.165753 -353.800394 
L 229.5191 -353.615512 
L 226.872447 -353.232181 
L 224.225793 -353.089889 
L 221.57914 -352.923236 
L 218.932487 -352.515423 
L 216.285833 -352.19947 
L 213.63918 -351.698289 
L 210.992527 -351.44719 
L 208.345873 -351.33215 
L 205.69922 -350.995707 
L 203.052567 -350.498111 
L 200.405913 -350.182933 
L 197.75926 -350.001777 
L 195.112607 -349.675376 
L 192.465953 -349.321071 
L 189.8193 -348.720574 
L 187.172647 -348.188596 
L 184.525993 -347.815674 
L 181.87934 -347.352846 
L 179.232687 -346.938088 
L 176.586033 -346.884682 
L 173.93938 -346.483957 
L 171.292727 -346.165561 
L 168.646073 -345.895946 
L 165.99942 -345.214506 
L 163.352767 -344.939494 
L 160.706113 -344.675888 
L 158.05946 -343.991108 
L 155.412807 -343.714752 
L 152.766153 -343.224895 
L 150.1195 -342.821563 
L 147.472847 -342.453957 
L 144.826193 -341.953184 
L 142.17954 -341.554007 
L 139.532887 -340.951025 
L 136.886233 -339.988137 
L 134.23958 -339.824213 
L 131.592927 -339.166237 
L 128.946273 -338.646419 
L 126.29962 -337.787225 
L 123.652967 -337.499015 
L 121.006313 -336.859757 
L 118.35966 -336.127499 
L 115.713007 -335.377784 
L 113.066353 -335.041953 
L 110.4197 -334.388111 
L 107.773047 -333.613324 
L 105.126393 -332.747042 
L 102.47974 -332.008306 
L 99.833087 -331.479465 
L 97.186433 -330.691173 
L 94.53978 -329.784277 
L 91.893127 -328.523034 
L 89.246473 -327.350251 
L 86.59982 -326.146162 
L 83.953167 -325.247637 
L 81.306513 -324.216556 
L 78.65986 -322.663314 
L 76.013207 -321.625715 
L 73.366553 -319.393803 
L 70.7199 -318.058339 
L 68.073247 -315.993569 
L 65.426593 -313.748907 
L 62.77994 -311.036386 
L 60.133287 -308.758462 
L 57.486633 -305.481965 
L 54.83998 -300.029671 
L 52.193327 -299.603567 
z
" style="stroke: #0000ff; stroke-opacity: 0.2"/>
    </defs>
    <g clip-path="url(#p419ce4c467)">
     <use xlink:href="#m876086b291" x="0" y="432" style="fill: #0000ff; fill-opacity: 0.2; stroke: #0000ff; stroke-opacity: 0.2"/>
    </g>
   </g>
   <g id="matplotlib.axis_1">
    <g id="xtick_1">
     <g id="line2d_1">
      <defs>
       <path id="m56566bf094" d="M 0 0 
L 0 3.5 
" style="stroke: #000000; stroke-width: 0.8"/>
      </defs>
      <g>
       <use xlink:href="#m56566bf094" x="181.87934" y="390.04" style="stroke: #000000; stroke-width: 0.8"/>
      </g>
     </g>
     <g id="text_1">
      <!-- 50 -->
      <g transform="translate(175.51684 404.638438) scale(0.1 -0.1)">
       <defs>
        <path id="DejaVuSans-35" d="M 691 4666 
L 3169 4666 
L 3169 4134 
L 1269 4134 
L 1269 2991 
Q 1406 3038 1543 3061 
Q 1681 3084 1819 3084 
Q 2600 3084 3056 2656 
Q 3513 2228 3513 1497 
Q 3513 744 3044 326 
Q 2575 -91 1722 -91 
Q 1428 -91 1123 -41 
Q 819 9 494 109 
L 494 744 
Q 775 591 1075 516 
Q 1375 441 1709 441 
Q 2250 441 2565 725 
Q 2881 1009 2881 1497 
Q 2881 1984 2565 2268 
Q 2250 2553 1709 2553 
Q 1456 2553 1204 2497 
Q 953 2441 691 2322 
L 691 4666 
z
" transform="scale(0.015625)"/>
        <path id="DejaVuSans-30" d="M 2034 4250 
Q 1547 4250 1301 3770 
Q 1056 3291 1056 2328 
Q 1056 1369 1301 889 
Q 1547 409 2034 409 
Q 2525 409 2770 889 
Q 3016 1369 3016 2328 
Q 3016 3291 2770 3770 
Q 2525 4250 2034 4250 
z
M 2034 4750 
Q 2819 4750 3233 4129 
Q 3647 3509 3647 2328 
Q 3647 1150 3233 529 
Q 2819 -91 2034 -91 
Q 1250 -91 836 529 
Q 422 1150 422 2328 
Q 422 3509 836 4129 
Q 1250 4750 2034 4750 
z
" transform="scale(0.015625)"/>
       </defs>
       <use xlink:href="#DejaVuSans-35"/>
       <use xlink:href="#DejaVuSans-30" transform="translate(63.623047 0)"/>
      </g>
     </g>
    </g>
    <g id="xtick_2">
     <g id="line2d_2">
      <g>
       <use xlink:href="#m56566bf094" x="314.212007" y="390.04" style="stroke: #000000; stroke-width: 0.8"/>
      </g>
     </g>
     <g id="text_2">
      <!-- 100 -->
      <g transform="translate(304.668257 404.638438) scale(0.1 -0.1)">
       <defs>
        <path id="DejaVuSans-31" d="M 794 531 
L 1825 531 
L 1825 4091 
L 703 3866 
L 703 4441 
L 1819 4666 
L 2450 4666 
L 2450 531 
L 3481 531 
L 3481 0 
L 794 0 
L 794 531 
z
" transform="scale(0.015625)"/>
       </defs>
       <use xlink:href="#DejaVuSans-31"/>
       <use xlink:href="#DejaVuSans-30" transform="translate(63.623047 0)"/>
       <use xlink:href="#DejaVuSans-30" transform="translate(127.246094 0)"/>
      </g>
     </g>
    </g>
    <g id="xtick_3">
     <g id="line2d_3">
      <g>
       <use xlink:href="#m56566bf094" x="446.544673" y="390.04" style="stroke: #000000; stroke-width: 0.8"/>
      </g>
     </g>
     <g id="text_3">
      <!-- 150 -->
      <g transform="translate(437.000923 404.638438) scale(0.1 -0.1)">
       <use xlink:href="#DejaVuSans-31"/>
       <use xlink:href="#DejaVuSans-35" transform="translate(63.623047 0)"/>
       <use xlink:href="#DejaVuSans-30" transform="translate(127.246094 0)"/>
      </g>
     </g>
    </g>
    <g id="xtick_4">
     <g id="line2d_4">
      <g>
       <use xlink:href="#m56566bf094" x="578.87734" y="390.04" style="stroke: #000000; stroke-width: 0.8"/>
      </g>
     </g>
     <g id="text_4">
      <!-- 200 -->
      <g transform="translate(569.33359 404.638438) scale(0.1 -0.1)">
       <defs>
        <path id="DejaVuSans-32" d="M 1228 531 
L 3431 531 
L 3431 0 
L 469 0 
L 469 531 
Q 828 903 1448 1529 
Q 2069 2156 2228 2338 
Q 2531 2678 2651 2914 
Q 2772 3150 2772 3378 
Q 2772 3750 2511 3984 
Q 2250 4219 1831 4219 
Q 1534 4219 1204 4116 
Q 875 4013 500 3803 
L 500 4441 
Q 881 4594 1212 4672 
Q 1544 4750 1819 4750 
Q 2544 4750 2975 4387 
Q 3406 4025 3406 3419 
Q 3406 3131 3298 2873 
Q 3191 2616 2906 2266 
Q 2828 2175 2409 1742 
Q 1991 1309 1228 531 
z
" transform="scale(0.015625)"/>
       </defs>
       <use xlink:href="#DejaVuSans-32"/>
       <use xlink:href="#DejaVuSans-30" transform="translate(63.623047 0)"/>
       <use xlink:href="#DejaVuSans-30" transform="translate(127.246094 0)"/>
      </g>
     </g>
    </g>
    <g id="xtick_5">
     <g id="line2d_5">
      <g>
       <use xlink:href="#m56566bf094" x="711.210007" y="390.04" style="stroke: #000000; stroke-width: 0.8"/>
      </g>
     </g>
     <g id="text_5">
      <!-- 250 -->
      <g transform="translate(701.666257 404.638438) scale(0.1 -0.1)">
       <use xlink:href="#DejaVuSans-32"/>
       <use xlink:href="#DejaVuSans-35" transform="translate(63.623047 0)"/>
       <use xlink:href="#DejaVuSans-30" transform="translate(127.246094 0)"/>
      </g>
     </g>
    </g>
    <g id="xtick_6">
     <g id="line2d_6">
      <g>
       <use xlink:href="#m56566bf094" x="843.542673" y="390.04" style="stroke: #000000; stroke-width: 0.8"/>
      </g>
     </g>
     <g id="text_6">
      <!-- 300 -->
      <g transform="translate(833.998923 404.638438) scale(0.1 -0.1)">
       <defs>
        <path id="DejaVuSans-33" d="M 2597 2516 
Q 3050 2419 3304 2112 
Q 3559 1806 3559 1356 
Q 3559 666 3084 287 
Q 2609 -91 1734 -91 
Q 1441 -91 1130 -33 
Q 819 25 488 141 
L 488 750 
Q 750 597 1062 519 
Q 1375 441 1716 441 
Q 2309 441 2620 675 
Q 2931 909 2931 1356 
Q 2931 1769 2642 2001 
Q 2353 2234 1838 2234 
L 1294 2234 
L 1294 2753 
L 1863 2753 
Q 2328 2753 2575 2939 
Q 2822 3125 2822 3475 
Q 2822 3834 2567 4026 
Q 2313 4219 1838 4219 
Q 1578 4219 1281 4162 
Q 984 4106 628 3988 
L 628 4550 
Q 988 4650 1302 4700 
Q 1616 4750 1894 4750 
Q 2613 4750 3031 4423 
Q 3450 4097 3450 3541 
Q 3450 3153 3228 2886 
Q 3006 2619 2597 2516 
z
" transform="scale(0.015625)"/>
       </defs>
       <use xlink:href="#DejaVuSans-33"/>
       <use xlink:href="#DejaVuSans-30" transform="translate(63.623047 0)"/>
       <use xlink:href="#DejaVuSans-30" transform="translate(127.246094 0)"/>
      </g>
     </g>
    </g>
    <g id="text_7">
     <!-- Step -->
     <g transform="translate(436.482844 418.316562) scale(0.1 -0.1)">
      <defs>
       <path id="DejaVuSans-53" d="M 3425 4513 
L 3425 3897 
Q 3066 4069 2747 4153 
Q 2428 4238 2131 4238 
Q 1616 4238 1336 4038 
Q 1056 3838 1056 3469 
Q 1056 3159 1242 3001 
Q 1428 2844 1947 2747 
L 2328 2669 
Q 3034 2534 3370 2195 
Q 3706 1856 3706 1288 
Q 3706 609 3251 259 
Q 2797 -91 1919 -91 
Q 1588 -91 1214 -16 
Q 841 59 441 206 
L 441 856 
Q 825 641 1194 531 
Q 1563 422 1919 422 
Q 2459 422 2753 634 
Q 3047 847 3047 1241 
Q 3047 1584 2836 1778 
Q 2625 1972 2144 2069 
L 1759 2144 
Q 1053 2284 737 2584 
Q 422 2884 422 3419 
Q 422 4038 858 4394 
Q 1294 4750 2059 4750 
Q 2388 4750 2728 4690 
Q 3069 4631 3425 4513 
z
" transform="scale(0.015625)"/>
       <path id="DejaVuSans-74" d="M 1172 4494 
L 1172 3500 
L 2356 3500 
L 2356 3053 
L 1172 3053 
L 1172 1153 
Q 1172 725 1289 603 
Q 1406 481 1766 481 
L 2356 481 
L 2356 0 
L 1766 0 
Q 1100 0 847 248 
Q 594 497 594 1153 
L 594 3053 
L 172 3053 
L 172 3500 
L 594 3500 
L 594 4494 
L 1172 4494 
z
" transform="scale(0.015625)"/>
       <path id="DejaVuSans-65" d="M 3597 1894 
L 3597 1613 
L 953 1613 
Q 991 1019 1311 708 
Q 1631 397 2203 397 
Q 2534 397 2845 478 
Q 3156 559 3463 722 
L 3463 178 
Q 3153 47 2828 -22 
Q 2503 -91 2169 -91 
Q 1331 -91 842 396 
Q 353 884 353 1716 
Q 353 2575 817 3079 
Q 1281 3584 2069 3584 
Q 2775 3584 3186 3129 
Q 3597 2675 3597 1894 
z
M 3022 2063 
Q 3016 2534 2758 2815 
Q 2500 3097 2075 3097 
Q 1594 3097 1305 2825 
Q 1016 2553 972 2059 
L 3022 2063 
z
" transform="scale(0.015625)"/>
       <path id="DejaVuSans-70" d="M 1159 525 
L 1159 -1331 
L 581 -1331 
L 581 3500 
L 1159 3500 
L 1159 2969 
Q 1341 3281 1617 3432 
Q 1894 3584 2278 3584 
Q 2916 3584 3314 3078 
Q 3713 2572 3713 1747 
Q 3713 922 3314 415 
Q 2916 -91 2278 -91 
Q 1894 -91 1617 61 
Q 1341 213 1159 525 
z
M 3116 1747 
Q 3116 2381 2855 2742 
Q 2594 3103 2138 3103 
Q 1681 3103 1420 2742 
Q 1159 2381 1159 1747 
Q 1159 1113 1420 752 
Q 1681 391 2138 391 
Q 2594 391 2855 752 
Q 3116 1113 3116 1747 
z
" transform="scale(0.015625)"/>
      </defs>
      <use xlink:href="#DejaVuSans-53"/>
      <use xlink:href="#DejaVuSans-74" transform="translate(63.476562 0)"/>
      <use xlink:href="#DejaVuSans-65" transform="translate(102.685547 0)"/>
      <use xlink:href="#DejaVuSans-70" transform="translate(164.208984 0)"/>
     </g>
    </g>
   </g>
   <g id="matplotlib.axis_2">
    <g id="ytick_1">
     <g id="line2d_7">
      <defs>
       <path id="m3bc4555a11" d="M 0 0 
L -3.5 0 
" style="stroke: #000000; stroke-width: 0.8"/>
      </defs>
      <g>
       <use xlink:href="#m3bc4555a11" x="50.87" y="356.571425" style="stroke: #000000; stroke-width: 0.8"/>
      </g>
     </g>
     <g id="text_8">
      <!-- 20 -->
      <g transform="translate(31.145 360.370644) scale(0.1 -0.1)">
       <use xlink:href="#DejaVuSans-32"/>
       <use xlink:href="#DejaVuSans-30" transform="translate(63.623047 0)"/>
      </g>
     </g>
    </g>
    <g id="ytick_2">
     <g id="line2d_8">
      <g>
       <use xlink:href="#m3bc4555a11" x="50.87" y="303.177291" style="stroke: #000000; stroke-width: 0.8"/>
      </g>
     </g>
     <g id="text_9">
      <!-- 40 -->
      <g transform="translate(31.145 306.976509) scale(0.1 -0.1)">
       <defs>
        <path id="DejaVuSans-34" d="M 2419 4116 
L 825 1625 
L 2419 1625 
L 2419 4116 
z
M 2253 4666 
L 3047 4666 
L 3047 1625 
L 3713 1625 
L 3713 1100 
L 3047 1100 
L 3047 0 
L 2419 0 
L 2419 1100 
L 313 1100 
L 313 1709 
L 2253 4666 
z
" transform="scale(0.015625)"/>
       </defs>
       <use xlink:href="#DejaVuSans-34"/>
       <use xlink:href="#DejaVuSans-30" transform="translate(63.623047 0)"/>
      </g>
     </g>
    </g>
    <g id="ytick_3">
     <g id="line2d_9">
      <g>
       <use xlink:href="#m3bc4555a11" x="50.87" y="249.783156" style="stroke: #000000; stroke-width: 0.8"/>
      </g>
     </g>
     <g id="text_10">
      <!-- 60 -->
      <g transform="translate(31.145 253.582375) scale(0.1 -0.1)">
       <defs>
        <path id="DejaVuSans-36" d="M 2113 2584 
Q 1688 2584 1439 2293 
Q 1191 2003 1191 1497 
Q 1191 994 1439 701 
Q 1688 409 2113 409 
Q 2538 409 2786 701 
Q 3034 994 3034 1497 
Q 3034 2003 2786 2293 
Q 2538 2584 2113 2584 
z
M 3366 4563 
L 3366 3988 
Q 3128 4100 2886 4159 
Q 2644 4219 2406 4219 
Q 1781 4219 1451 3797 
Q 1122 3375 1075 2522 
Q 1259 2794 1537 2939 
Q 1816 3084 2150 3084 
Q 2853 3084 3261 2657 
Q 3669 2231 3669 1497 
Q 3669 778 3244 343 
Q 2819 -91 2113 -91 
Q 1303 -91 875 529 
Q 447 1150 447 2328 
Q 447 3434 972 4092 
Q 1497 4750 2381 4750 
Q 2619 4750 2861 4703 
Q 3103 4656 3366 4563 
z
" transform="scale(0.015625)"/>
       </defs>
       <use xlink:href="#DejaVuSans-36"/>
       <use xlink:href="#DejaVuSans-30" transform="translate(63.623047 0)"/>
      </g>
     </g>
    </g>
    <g id="ytick_4">
     <g id="line2d_10">
      <g>
       <use xlink:href="#m3bc4555a11" x="50.87" y="196.389021" style="stroke: #000000; stroke-width: 0.8"/>
      </g>
     </g>
     <g id="text_11">
      <!-- 80 -->
      <g transform="translate(31.145 200.18824) scale(0.1 -0.1)">
       <defs>
        <path id="DejaVuSans-38" d="M 2034 2216 
Q 1584 2216 1326 1975 
Q 1069 1734 1069 1313 
Q 1069 891 1326 650 
Q 1584 409 2034 409 
Q 2484 409 2743 651 
Q 3003 894 3003 1313 
Q 3003 1734 2745 1975 
Q 2488 2216 2034 2216 
z
M 1403 2484 
Q 997 2584 770 2862 
Q 544 3141 544 3541 
Q 544 4100 942 4425 
Q 1341 4750 2034 4750 
Q 2731 4750 3128 4425 
Q 3525 4100 3525 3541 
Q 3525 3141 3298 2862 
Q 3072 2584 2669 2484 
Q 3125 2378 3379 2068 
Q 3634 1759 3634 1313 
Q 3634 634 3220 271 
Q 2806 -91 2034 -91 
Q 1263 -91 848 271 
Q 434 634 434 1313 
Q 434 1759 690 2068 
Q 947 2378 1403 2484 
z
M 1172 3481 
Q 1172 3119 1398 2916 
Q 1625 2713 2034 2713 
Q 2441 2713 2670 2916 
Q 2900 3119 2900 3481 
Q 2900 3844 2670 4047 
Q 2441 4250 2034 4250 
Q 1625 4250 1398 4047 
Q 1172 3844 1172 3481 
z
" transform="scale(0.015625)"/>
       </defs>
       <use xlink:href="#DejaVuSans-38"/>
       <use xlink:href="#DejaVuSans-30" transform="translate(63.623047 0)"/>
      </g>
     </g>
    </g>
    <g id="ytick_5">
     <g id="line2d_11">
      <g>
       <use xlink:href="#m3bc4555a11" x="50.87" y="142.994887" style="stroke: #000000; stroke-width: 0.8"/>
      </g>
     </g>
     <g id="text_12">
      <!-- 100 -->
      <g transform="translate(24.7825 146.794105) scale(0.1 -0.1)">
       <use xlink:href="#DejaVuSans-31"/>
       <use xlink:href="#DejaVuSans-30" transform="translate(63.623047 0)"/>
       <use xlink:href="#DejaVuSans-30" transform="translate(127.246094 0)"/>
      </g>
     </g>
    </g>
    <g id="ytick_6">
     <g id="line2d_12">
      <g>
       <use xlink:href="#m3bc4555a11" x="50.87" y="89.600752" style="stroke: #000000; stroke-width: 0.8"/>
      </g>
     </g>
     <g id="text_13">
      <!-- 120 -->
      <g transform="translate(24.7825 93.399971) scale(0.1 -0.1)">
       <use xlink:href="#DejaVuSans-31"/>
       <use xlink:href="#DejaVuSans-32" transform="translate(63.623047 0)"/>
       <use xlink:href="#DejaVuSans-30" transform="translate(127.246094 0)"/>
      </g>
     </g>
    </g>
    <g id="text_14">
     <!-- Profit -->
     <g transform="translate(18.702813 229.779063) rotate(-90) scale(0.1 -0.1)">
      <defs>
       <path id="DejaVuSans-50" d="M 1259 4147 
L 1259 2394 
L 2053 2394 
Q 2494 2394 2734 2622 
Q 2975 2850 2975 3272 
Q 2975 3691 2734 3919 
Q 2494 4147 2053 4147 
L 1259 4147 
z
M 628 4666 
L 2053 4666 
Q 2838 4666 3239 4311 
Q 3641 3956 3641 3272 
Q 3641 2581 3239 2228 
Q 2838 1875 2053 1875 
L 1259 1875 
L 1259 0 
L 628 0 
L 628 4666 
z
" transform="scale(0.015625)"/>
       <path id="DejaVuSans-72" d="M 2631 2963 
Q 2534 3019 2420 3045 
Q 2306 3072 2169 3072 
Q 1681 3072 1420 2755 
Q 1159 2438 1159 1844 
L 1159 0 
L 581 0 
L 581 3500 
L 1159 3500 
L 1159 2956 
Q 1341 3275 1631 3429 
Q 1922 3584 2338 3584 
Q 2397 3584 2469 3576 
Q 2541 3569 2628 3553 
L 2631 2963 
z
" transform="scale(0.015625)"/>
       <path id="DejaVuSans-6f" d="M 1959 3097 
Q 1497 3097 1228 2736 
Q 959 2375 959 1747 
Q 959 1119 1226 758 
Q 1494 397 1959 397 
Q 2419 397 2687 759 
Q 2956 1122 2956 1747 
Q 2956 2369 2687 2733 
Q 2419 3097 1959 3097 
z
M 1959 3584 
Q 2709 3584 3137 3096 
Q 3566 2609 3566 1747 
Q 3566 888 3137 398 
Q 2709 -91 1959 -91 
Q 1206 -91 779 398 
Q 353 888 353 1747 
Q 353 2609 779 3096 
Q 1206 3584 1959 3584 
z
" transform="scale(0.015625)"/>
       <path id="DejaVuSans-66" d="M 2375 4863 
L 2375 4384 
L 1825 4384 
Q 1516 4384 1395 4259 
Q 1275 4134 1275 3809 
L 1275 3500 
L 2222 3500 
L 2222 3053 
L 1275 3053 
L 1275 0 
L 697 0 
L 697 3053 
L 147 3053 
L 147 3500 
L 697 3500 
L 697 3744 
Q 697 4328 969 4595 
Q 1241 4863 1831 4863 
L 2375 4863 
z
" transform="scale(0.015625)"/>
       <path id="DejaVuSans-69" d="M 603 3500 
L 1178 3500 
L 1178 0 
L 603 0 
L 603 3500 
z
M 603 4863 
L 1178 4863 
L 1178 4134 
L 603 4134 
L 603 4863 
z
" transform="scale(0.015625)"/>
      </defs>
      <use xlink:href="#DejaVuSans-50"/>
      <use xlink:href="#DejaVuSans-72" transform="translate(58.552734 0)"/>
      <use xlink:href="#DejaVuSans-6f" transform="translate(97.416016 0)"/>
      <use xlink:href="#DejaVuSans-66" transform="translate(158.597656 0)"/>
      <use xlink:href="#DejaVuSans-69" transform="translate(193.802734 0)"/>
      <use xlink:href="#DejaVuSans-74" transform="translate(221.585938 0)"/>
     </g>
    </g>
   </g>
   <g id="line2d_13">
    <path d="M 52.193327 252.574033 
L 54.83998 253.127897 
L 57.486633 245.459802 
L 60.133287 238.472343 
L 62.77994 232.322314 
L 65.426593 227.016468 
L 68.073247 222.15141 
L 70.7199 217.692577 
L 73.366553 213.788127 
L 76.013207 210.342227 
L 81.306513 204.093738 
L 83.953167 201.306934 
L 89.246473 196.44094 
L 91.893127 194.206299 
L 97.186433 190.034536 
L 99.833087 188.263924 
L 110.4197 181.939563 
L 118.35966 178.005783 
L 126.29962 174.60618 
L 134.23958 171.327606 
L 139.532887 169.470633 
L 144.826193 167.704196 
L 150.1195 166.000148 
L 155.412807 164.442772 
L 173.93938 159.580342 
L 187.172647 156.872424 
L 197.75926 154.642753 
L 205.69922 153.194876 
L 224.225793 150.105299 
L 237.45906 148.263072 
L 250.692327 146.46034 
L 253.33898 146.19152 
L 261.27894 145.088518 
L 324.79862 138.611314 
L 332.73858 137.927185 
L 338.031887 137.394617 
L 345.971847 136.835122 
L 351.265153 136.400035 
L 359.205113 135.760758 
L 364.49842 135.35875 
L 372.43838 134.859055 
L 380.37834 134.22874 
L 412.13818 132.183849 
L 422.724793 131.507949 
L 449.191327 130.132237 
L 491.53778 127.863683 
L 510.064353 127.212816 
L 539.17754 125.863583 
L 544.470847 125.668027 
L 586.8173 124.097696 
L 607.990527 123.168986 
L 618.57714 122.86277 
L 629.163753 122.425973 
L 637.103713 122.182246 
L 650.33698 121.79749 
L 655.630287 121.582075 
L 682.09682 120.7814 
L 732.383233 119.367253 
L 750.909807 118.888293 
L 761.49642 118.528896 
L 772.083033 118.220948 
L 785.3163 117.893875 
L 790.609607 117.856662 
L 795.902913 117.677381 
L 811.782833 117.36703 
L 843.542673 116.557779 
L 843.542673 116.557779 
" clip-path="url(#p419ce4c467)" style="fill: none; stroke: #0000ff; stroke-width: 1.5; stroke-linecap: square"/>
   </g>
   <g id="patch_3">
    <path d="M 50.87 390.04 
L 50.87 43.44 
" style="fill: none; stroke: #000000; stroke-width: 0.8; stroke-linejoin: miter; stroke-linecap: square"/>
   </g>
   <g id="patch_4">
    <path d="M 844.866 390.04 
L 844.866 43.44 
" style="fill: none; stroke: #000000; stroke-width: 0.8; stroke-linejoin: miter; stroke-linecap: square"/>
   </g>
   <g id="patch_5">
    <path d="M 50.87 390.04 
L 844.866 390.04 
" style="fill: none; stroke: #000000; stroke-width: 0.8; stroke-linejoin: miter; stroke-linecap: square"/>
   </g>
   <g id="patch_6">
    <path d="M 50.87 43.44 
L 844.866 43.44 
" style="fill: none; stroke: #000000; stroke-width: 0.8; stroke-linejoin: miter; stroke-linecap: square"/>
   </g>
   <g id="text_15">
    <!-- Mean profit per step with confidence interval per simulation step -->
    <g transform="translate(220.284875 21.763062) scale(0.14 -0.14)">
     <defs>
      <path id="DejaVuSans-4d" d="M 628 4666 
L 1569 4666 
L 2759 1491 
L 3956 4666 
L 4897 4666 
L 4897 0 
L 4281 0 
L 4281 4097 
L 3078 897 
L 2444 897 
L 1241 4097 
L 1241 0 
L 628 0 
L 628 4666 
z
" transform="scale(0.015625)"/>
      <path id="DejaVuSans-61" d="M 2194 1759 
Q 1497 1759 1228 1600 
Q 959 1441 959 1056 
Q 959 750 1161 570 
Q 1363 391 1709 391 
Q 2188 391 2477 730 
Q 2766 1069 2766 1631 
L 2766 1759 
L 2194 1759 
z
M 3341 1997 
L 3341 0 
L 2766 0 
L 2766 531 
Q 2569 213 2275 61 
Q 1981 -91 1556 -91 
Q 1019 -91 701 211 
Q 384 513 384 1019 
Q 384 1609 779 1909 
Q 1175 2209 1959 2209 
L 2766 2209 
L 2766 2266 
Q 2766 2663 2505 2880 
Q 2244 3097 1772 3097 
Q 1472 3097 1187 3025 
Q 903 2953 641 2809 
L 641 3341 
Q 956 3463 1253 3523 
Q 1550 3584 1831 3584 
Q 2591 3584 2966 3190 
Q 3341 2797 3341 1997 
z
" transform="scale(0.015625)"/>
      <path id="DejaVuSans-6e" d="M 3513 2113 
L 3513 0 
L 2938 0 
L 2938 2094 
Q 2938 2591 2744 2837 
Q 2550 3084 2163 3084 
Q 1697 3084 1428 2787 
Q 1159 2491 1159 1978 
L 1159 0 
L 581 0 
L 581 3500 
L 1159 3500 
L 1159 2956 
Q 1366 3272 1645 3428 
Q 1925 3584 2291 3584 
Q 2894 3584 3203 3211 
Q 3513 2838 3513 2113 
z
" transform="scale(0.015625)"/>
      <path id="DejaVuSans-20" transform="scale(0.015625)"/>
      <path id="DejaVuSans-73" d="M 2834 3397 
L 2834 2853 
Q 2591 2978 2328 3040 
Q 2066 3103 1784 3103 
Q 1356 3103 1142 2972 
Q 928 2841 928 2578 
Q 928 2378 1081 2264 
Q 1234 2150 1697 2047 
L 1894 2003 
Q 2506 1872 2764 1633 
Q 3022 1394 3022 966 
Q 3022 478 2636 193 
Q 2250 -91 1575 -91 
Q 1294 -91 989 -36 
Q 684 19 347 128 
L 347 722 
Q 666 556 975 473 
Q 1284 391 1588 391 
Q 1994 391 2212 530 
Q 2431 669 2431 922 
Q 2431 1156 2273 1281 
Q 2116 1406 1581 1522 
L 1381 1569 
Q 847 1681 609 1914 
Q 372 2147 372 2553 
Q 372 3047 722 3315 
Q 1072 3584 1716 3584 
Q 2034 3584 2315 3537 
Q 2597 3491 2834 3397 
z
" transform="scale(0.015625)"/>
      <path id="DejaVuSans-77" d="M 269 3500 
L 844 3500 
L 1563 769 
L 2278 3500 
L 2956 3500 
L 3675 769 
L 4391 3500 
L 4966 3500 
L 4050 0 
L 3372 0 
L 2619 2869 
L 1863 0 
L 1184 0 
L 269 3500 
z
" transform="scale(0.015625)"/>
      <path id="DejaVuSans-68" d="M 3513 2113 
L 3513 0 
L 2938 0 
L 2938 2094 
Q 2938 2591 2744 2837 
Q 2550 3084 2163 3084 
Q 1697 3084 1428 2787 
Q 1159 2491 1159 1978 
L 1159 0 
L 581 0 
L 581 4863 
L 1159 4863 
L 1159 2956 
Q 1366 3272 1645 3428 
Q 1925 3584 2291 3584 
Q 2894 3584 3203 3211 
Q 3513 2838 3513 2113 
z
" transform="scale(0.015625)"/>
      <path id="DejaVuSans-63" d="M 3122 3366 
L 3122 2828 
Q 2878 2963 2633 3030 
Q 2388 3097 2138 3097 
Q 1578 3097 1268 2742 
Q 959 2388 959 1747 
Q 959 1106 1268 751 
Q 1578 397 2138 397 
Q 2388 397 2633 464 
Q 2878 531 3122 666 
L 3122 134 
Q 2881 22 2623 -34 
Q 2366 -91 2075 -91 
Q 1284 -91 818 406 
Q 353 903 353 1747 
Q 353 2603 823 3093 
Q 1294 3584 2113 3584 
Q 2378 3584 2631 3529 
Q 2884 3475 3122 3366 
z
" transform="scale(0.015625)"/>
      <path id="DejaVuSans-64" d="M 2906 2969 
L 2906 4863 
L 3481 4863 
L 3481 0 
L 2906 0 
L 2906 525 
Q 2725 213 2448 61 
Q 2172 -91 1784 -91 
Q 1150 -91 751 415 
Q 353 922 353 1747 
Q 353 2572 751 3078 
Q 1150 3584 1784 3584 
Q 2172 3584 2448 3432 
Q 2725 3281 2906 2969 
z
M 947 1747 
Q 947 1113 1208 752 
Q 1469 391 1925 391 
Q 2381 391 2643 752 
Q 2906 1113 2906 1747 
Q 2906 2381 2643 2742 
Q 2381 3103 1925 3103 
Q 1469 3103 1208 2742 
Q 947 2381 947 1747 
z
" transform="scale(0.015625)"/>
      <path id="DejaVuSans-76" d="M 191 3500 
L 800 3500 
L 1894 563 
L 2988 3500 
L 3597 3500 
L 2284 0 
L 1503 0 
L 191 3500 
z
" transform="scale(0.015625)"/>
      <path id="DejaVuSans-6c" d="M 603 4863 
L 1178 4863 
L 1178 0 
L 603 0 
L 603 4863 
z
" transform="scale(0.015625)"/>
      <path id="DejaVuSans-6d" d="M 3328 2828 
Q 3544 3216 3844 3400 
Q 4144 3584 4550 3584 
Q 5097 3584 5394 3201 
Q 5691 2819 5691 2113 
L 5691 0 
L 5113 0 
L 5113 2094 
Q 5113 2597 4934 2840 
Q 4756 3084 4391 3084 
Q 3944 3084 3684 2787 
Q 3425 2491 3425 1978 
L 3425 0 
L 2847 0 
L 2847 2094 
Q 2847 2600 2669 2842 
Q 2491 3084 2119 3084 
Q 1678 3084 1418 2786 
Q 1159 2488 1159 1978 
L 1159 0 
L 581 0 
L 581 3500 
L 1159 3500 
L 1159 2956 
Q 1356 3278 1631 3431 
Q 1906 3584 2284 3584 
Q 2666 3584 2933 3390 
Q 3200 3197 3328 2828 
z
" transform="scale(0.015625)"/>
      <path id="DejaVuSans-75" d="M 544 1381 
L 544 3500 
L 1119 3500 
L 1119 1403 
Q 1119 906 1312 657 
Q 1506 409 1894 409 
Q 2359 409 2629 706 
Q 2900 1003 2900 1516 
L 2900 3500 
L 3475 3500 
L 3475 0 
L 2900 0 
L 2900 538 
Q 2691 219 2414 64 
Q 2138 -91 1772 -91 
Q 1169 -91 856 284 
Q 544 659 544 1381 
z
M 1991 3584 
L 1991 3584 
z
" transform="scale(0.015625)"/>
     </defs>
     <use xlink:href="#DejaVuSans-4d"/>
     <use xlink:href="#DejaVuSans-65" transform="translate(86.279297 0)"/>
     <use xlink:href="#DejaVuSans-61" transform="translate(147.802734 0)"/>
     <use xlink:href="#DejaVuSans-6e" transform="translate(209.082031 0)"/>
     <use xlink:href="#DejaVuSans-20" transform="translate(272.460938 0)"/>
     <use xlink:href="#DejaVuSans-70" transform="translate(304.248047 0)"/>
     <use xlink:href="#DejaVuSans-72" transform="translate(367.724609 0)"/>
     <use xlink:href="#DejaVuSans-6f" transform="translate(406.587891 0)"/>
     <use xlink:href="#DejaVuSans-66" transform="translate(467.769531 0)"/>
     <use xlink:href="#DejaVuSans-69" transform="translate(502.974609 0)"/>
     <use xlink:href="#DejaVuSans-74" transform="translate(530.757812 0)"/>
     <use xlink:href="#DejaVuSans-20" transform="translate(569.966797 0)"/>
     <use xlink:href="#DejaVuSans-70" transform="translate(601.753906 0)"/>
     <use xlink:href="#DejaVuSans-65" transform="translate(665.230469 0)"/>
     <use xlink:href="#DejaVuSans-72" transform="translate(726.753906 0)"/>
     <use xlink:href="#DejaVuSans-20" transform="translate(767.867188 0)"/>
     <use xlink:href="#DejaVuSans-73" transform="translate(799.654297 0)"/>
     <use xlink:href="#DejaVuSans-74" transform="translate(851.753906 0)"/>
     <use xlink:href="#DejaVuSans-65" transform="translate(890.962891 0)"/>
     <use xlink:href="#DejaVuSans-70" transform="translate(952.486328 0)"/>
     <use xlink:href="#DejaVuSans-20" transform="translate(1015.962891 0)"/>
     <use xlink:href="#DejaVuSans-77" transform="translate(1047.75 0)"/>
     <use xlink:href="#DejaVuSans-69" transform="translate(1129.537109 0)"/>
     <use xlink:href="#DejaVuSans-74" transform="translate(1157.320312 0)"/>
     <use xlink:href="#DejaVuSans-68" transform="translate(1196.529297 0)"/>
     <use xlink:href="#DejaVuSans-20" transform="translate(1259.908203 0)"/>
     <use xlink:href="#DejaVuSans-63" transform="translate(1291.695312 0)"/>
     <use xlink:href="#DejaVuSans-6f" transform="translate(1346.675781 0)"/>
     <use xlink:href="#DejaVuSans-6e" transform="translate(1407.857422 0)"/>
     <use xlink:href="#DejaVuSans-66" transform="translate(1471.236328 0)"/>
     <use xlink:href="#DejaVuSans-69" transform="translate(1506.441406 0)"/>
     <use xlink:href="#DejaVuSans-64" transform="translate(1534.224609 0)"/>
     <use xlink:href="#DejaVuSans-65" transform="translate(1597.701172 0)"/>
     <use xlink:href="#DejaVuSans-6e" transform="translate(1659.224609 0)"/>
     <use xlink:href="#DejaVuSans-63" transform="translate(1722.603516 0)"/>
     <use xlink:href="#DejaVuSans-65" transform="translate(1777.583984 0)"/>
     <use xlink:href="#DejaVuSans-20" transform="translate(1839.107422 0)"/>
     <use xlink:href="#DejaVuSans-69" transform="translate(1870.894531 0)"/>
     <use xlink:href="#DejaVuSans-6e" transform="translate(1898.677734 0)"/>
     <use xlink:href="#DejaVuSans-74" transform="translate(1962.056641 0)"/>
     <use xlink:href="#DejaVuSans-65" transform="translate(2001.265625 0)"/>
     <use xlink:href="#DejaVuSans-72" transform="translate(2062.789062 0)"/>
     <use xlink:href="#DejaVuSans-76" transform="translate(2103.902344 0)"/>
     <use xlink:href="#DejaVuSans-61" transform="translate(2163.082031 0)"/>
     <use xlink:href="#DejaVuSans-6c" transform="translate(2224.361328 0)"/>
     <use xlink:href="#DejaVuSans-20" transform="translate(2252.144531 0)"/>
     <use xlink:href="#DejaVuSans-70" transform="translate(2283.931641 0)"/>
     <use xlink:href="#DejaVuSans-65" transform="translate(2347.408203 0)"/>
     <use xlink:href="#DejaVuSans-72" transform="translate(2408.931641 0)"/>
     <use xlink:href="#DejaVuSans-20" transform="translate(2450.044922 0)"/>
     <use xlink:href="#DejaVuSans-73" transform="translate(2481.832031 0)"/>
     <use xlink:href="#DejaVuSans-69" transform="translate(2533.931641 0)"/>
     <use xlink:href="#DejaVuSans-6d" transform="translate(2561.714844 0)"/>
     <use xlink:href="#DejaVuSans-75" transform="translate(2659.126953 0)"/>
     <use xlink:href="#DejaVuSans-6c" transform="translate(2722.505859 0)"/>
     <use xlink:href="#DejaVuSans-61" transform="translate(2750.289062 0)"/>
     <use xlink:href="#DejaVuSans-74" transform="translate(2811.568359 0)"/>
     <use xlink:href="#DejaVuSans-69" transform="translate(2850.777344 0)"/>
     <use xlink:href="#DejaVuSans-6f" transform="translate(2878.560547 0)"/>
     <use xlink:href="#DejaVuSans-6e" transform="translate(2939.742188 0)"/>
     <use xlink:href="#DejaVuSans-20" transform="translate(3003.121094 0)"/>
     <use xlink:href="#DejaVuSans-73" transform="translate(3034.908203 0)"/>
     <use xlink:href="#DejaVuSans-74" transform="translate(3087.007812 0)"/>
     <use xlink:href="#DejaVuSans-65" transform="translate(3126.216797 0)"/>
     <use xlink:href="#DejaVuSans-70" transform="translate(3187.740234 0)"/>
    </g>
    <!-- Base Product: OG Kush, Recipe size: 10, T0: 10.0 -->
    <g transform="translate(277.036281 37.44) scale(0.14 -0.14)">
     <defs>
      <path id="DejaVuSans-42" d="M 1259 2228 
L 1259 519 
L 2272 519 
Q 2781 519 3026 730 
Q 3272 941 3272 1375 
Q 3272 1813 3026 2020 
Q 2781 2228 2272 2228 
L 1259 2228 
z
M 1259 4147 
L 1259 2741 
L 2194 2741 
Q 2656 2741 2882 2914 
Q 3109 3088 3109 3444 
Q 3109 3797 2882 3972 
Q 2656 4147 2194 4147 
L 1259 4147 
z
M 628 4666 
L 2241 4666 
Q 2963 4666 3353 4366 
Q 3744 4066 3744 3513 
Q 3744 3084 3544 2831 
Q 3344 2578 2956 2516 
Q 3422 2416 3680 2098 
Q 3938 1781 3938 1306 
Q 3938 681 3513 340 
Q 3088 0 2303 0 
L 628 0 
L 628 4666 
z
" transform="scale(0.015625)"/>
      <path id="DejaVuSans-3a" d="M 750 794 
L 1409 794 
L 1409 0 
L 750 0 
L 750 794 
z
M 750 3309 
L 1409 3309 
L 1409 2516 
L 750 2516 
L 750 3309 
z
" transform="scale(0.015625)"/>
      <path id="DejaVuSans-4f" d="M 2522 4238 
Q 1834 4238 1429 3725 
Q 1025 3213 1025 2328 
Q 1025 1447 1429 934 
Q 1834 422 2522 422 
Q 3209 422 3611 934 
Q 4013 1447 4013 2328 
Q 4013 3213 3611 3725 
Q 3209 4238 2522 4238 
z
M 2522 4750 
Q 3503 4750 4090 4092 
Q 4678 3434 4678 2328 
Q 4678 1225 4090 567 
Q 3503 -91 2522 -91 
Q 1538 -91 948 565 
Q 359 1222 359 2328 
Q 359 3434 948 4092 
Q 1538 4750 2522 4750 
z
" transform="scale(0.015625)"/>
      <path id="DejaVuSans-47" d="M 3809 666 
L 3809 1919 
L 2778 1919 
L 2778 2438 
L 4434 2438 
L 4434 434 
Q 4069 175 3628 42 
Q 3188 -91 2688 -91 
Q 1594 -91 976 548 
Q 359 1188 359 2328 
Q 359 3472 976 4111 
Q 1594 4750 2688 4750 
Q 3144 4750 3555 4637 
Q 3966 4525 4313 4306 
L 4313 3634 
Q 3963 3931 3569 4081 
Q 3175 4231 2741 4231 
Q 1884 4231 1454 3753 
Q 1025 3275 1025 2328 
Q 1025 1384 1454 906 
Q 1884 428 2741 428 
Q 3075 428 3337 486 
Q 3600 544 3809 666 
z
" transform="scale(0.015625)"/>
      <path id="DejaVuSans-4b" d="M 628 4666 
L 1259 4666 
L 1259 2694 
L 3353 4666 
L 4166 4666 
L 1850 2491 
L 4331 0 
L 3500 0 
L 1259 2247 
L 1259 0 
L 628 0 
L 628 4666 
z
" transform="scale(0.015625)"/>
      <path id="DejaVuSans-2c" d="M 750 794 
L 1409 794 
L 1409 256 
L 897 -744 
L 494 -744 
L 750 256 
L 750 794 
z
" transform="scale(0.015625)"/>
      <path id="DejaVuSans-52" d="M 2841 2188 
Q 3044 2119 3236 1894 
Q 3428 1669 3622 1275 
L 4263 0 
L 3584 0 
L 2988 1197 
Q 2756 1666 2539 1819 
Q 2322 1972 1947 1972 
L 1259 1972 
L 1259 0 
L 628 0 
L 628 4666 
L 2053 4666 
Q 2853 4666 3247 4331 
Q 3641 3997 3641 3322 
Q 3641 2881 3436 2590 
Q 3231 2300 2841 2188 
z
M 1259 4147 
L 1259 2491 
L 2053 2491 
Q 2509 2491 2742 2702 
Q 2975 2913 2975 3322 
Q 2975 3731 2742 3939 
Q 2509 4147 2053 4147 
L 1259 4147 
z
" transform="scale(0.015625)"/>
      <path id="DejaVuSans-7a" d="M 353 3500 
L 3084 3500 
L 3084 2975 
L 922 459 
L 3084 459 
L 3084 0 
L 275 0 
L 275 525 
L 2438 3041 
L 353 3041 
L 353 3500 
z
" transform="scale(0.015625)"/>
      <path id="DejaVuSans-54" d="M -19 4666 
L 3928 4666 
L 3928 4134 
L 2272 4134 
L 2272 0 
L 1638 0 
L 1638 4134 
L -19 4134 
L -19 4666 
z
" transform="scale(0.015625)"/>
      <path id="DejaVuSans-2e" d="M 684 794 
L 1344 794 
L 1344 0 
L 684 0 
L 684 794 
z
" transform="scale(0.015625)"/>
     </defs>
     <use xlink:href="#DejaVuSans-42"/>
     <use xlink:href="#DejaVuSans-61" transform="translate(68.603516 0)"/>
     <use xlink:href="#DejaVuSans-73" transform="translate(129.882812 0)"/>
     <use xlink:href="#DejaVuSans-65" transform="translate(181.982422 0)"/>
     <use xlink:href="#DejaVuSans-20" transform="translate(243.505859 0)"/>
     <use xlink:href="#DejaVuSans-50" transform="translate(275.292969 0)"/>
     <use xlink:href="#DejaVuSans-72" transform="translate(333.845703 0)"/>
     <use xlink:href="#DejaVuSans-6f" transform="translate(372.708984 0)"/>
     <use xlink:href="#DejaVuSans-64" transform="translate(433.890625 0)"/>
     <use xlink:href="#DejaVuSans-75" transform="translate(497.367188 0)"/>
     <use xlink:href="#DejaVuSans-63" transform="translate(560.746094 0)"/>
     <use xlink:href="#DejaVuSans-74" transform="translate(615.726562 0)"/>
     <use xlink:href="#DejaVuSans-3a" transform="translate(654.935547 0)"/>
     <use xlink:href="#DejaVuSans-20" transform="translate(688.626953 0)"/>
     <use xlink:href="#DejaVuSans-4f" transform="translate(720.414062 0)"/>
     <use xlink:href="#DejaVuSans-47" transform="translate(799.125 0)"/>
     <use xlink:href="#DejaVuSans-20" transform="translate(876.615234 0)"/>
     <use xlink:href="#DejaVuSans-4b" transform="translate(908.402344 0)"/>
     <use xlink:href="#DejaVuSans-75" transform="translate(968.978516 0)"/>
     <use xlink:href="#DejaVuSans-73" transform="translate(1032.357422 0)"/>
     <use xlink:href="#DejaVuSans-68" transform="translate(1084.457031 0)"/>
     <use xlink:href="#DejaVuSans-2c" transform="translate(1147.835938 0)"/>
     <use xlink:href="#DejaVuSans-20" transform="translate(1179.623047 0)"/>
     <use xlink:href="#DejaVuSans-52" transform="translate(1211.410156 0)"/>
     <use xlink:href="#DejaVuSans-65" transform="translate(1276.392578 0)"/>
     <use xlink:href="#DejaVuSans-63" transform="translate(1337.916016 0)"/>
     <use xlink:href="#DejaVuSans-69" transform="translate(1392.896484 0)"/>
     <use xlink:href="#DejaVuSans-70" transform="translate(1420.679688 0)"/>
     <use xlink:href="#DejaVuSans-65" transform="translate(1484.15625 0)"/>
     <use xlink:href="#DejaVuSans-20" transform="translate(1545.679688 0)"/>
     <use xlink:href="#DejaVuSans-73" transform="translate(1577.466797 0)"/>
     <use xlink:href="#DejaVuSans-69" transform="translate(1629.566406 0)"/>
     <use xlink:href="#DejaVuSans-7a" transform="translate(1657.349609 0)"/>
     <use xlink:href="#DejaVuSans-65" transform="translate(1709.839844 0)"/>
     <use xlink:href="#DejaVuSans-3a" transform="translate(1771.363281 0)"/>
     <use xlink:href="#DejaVuSans-20" transform="translate(1805.054688 0)"/>
     <use xlink:href="#DejaVuSans-31" transform="translate(1836.841797 0)"/>
     <use xlink:href="#DejaVuSans-30" transform="translate(1900.464844 0)"/>
     <use xlink:href="#DejaVuSans-2c" transform="translate(1964.087891 0)"/>
     <use xlink:href="#DejaVuSans-20" transform="translate(1995.875 0)"/>
     <use xlink:href="#DejaVuSans-54" transform="translate(2027.662109 0)"/>
     <use xlink:href="#DejaVuSans-30" transform="translate(2088.746094 0)"/>
     <use xlink:href="#DejaVuSans-3a" transform="translate(2152.369141 0)"/>
     <use xlink:href="#DejaVuSans-20" transform="translate(2186.060547 0)"/>
     <use xlink:href="#DejaVuSans-31" transform="translate(2217.847656 0)"/>
     <use xlink:href="#DejaVuSans-30" transform="translate(2281.470703 0)"/>
     <use xlink:href="#DejaVuSans-2e" transform="translate(2345.09375 0)"/>
     <use xlink:href="#DejaVuSans-30" transform="translate(2376.880859 0)"/>
    </g>
   </g>
  </g>
 </g>
 <defs>
  <clipPath id="p419ce4c467">
   <rect x="50.87" y="43.44" width="793.996" height="346.6"/>
  </clipPath>
 </defs>
</svg>
