<?xml version="1.0" encoding="utf-8" standalone="no"?>
<!DOCTYPE svg PUBLIC "-//W3C//DTD SVG 1.1//EN"
  "http://www.w3.org/Graphics/SVG/1.1/DTD/svg11.dtd">
<svg xmlns:xlink="http://www.w3.org/1999/xlink" width="864pt" height="432pt" viewBox="0 0 864 432" xmlns="http://www.w3.org/2000/svg" version="1.1">
 <metadata>
  <rdf:RDF xmlns:dc="http://purl.org/dc/elements/1.1/" xmlns:cc="http://creativecommons.org/ns#" xmlns:rdf="http://www.w3.org/1999/02/22-rdf-syntax-ns#">
   <cc:Work>
    <dc:type rdf:resource="http://purl.org/dc/dcmitype/StillImage"/>
    <dc:date>2025-05-24T02:02:29.012390</dc:date>
    <dc:format>image/svg+xml</dc:format>
    <dc:creator>
     <cc:Agent>
      <dc:title>Matplotlib v3.10.3, https://matplotlib.org/</dc:title>
     </cc:Agent>
    </dc:creator>
   </cc:Work>
  </rdf:RDF>
 </metadata>
 <defs>
  <style type="text/css">*{stroke-linejoin: round; stroke-linecap: butt}</style>
 </defs>
 <g id="figure_1">
  <g id="patch_1">
   <path d="M 0 432 
L 864 432 
L 864 0 
L 0 0 
z
" style="fill: #ffffff"/>
  </g>
  <g id="axes_1">
   <g id="patch_2">
    <path d="M 50.87 390.04 
L 844.866 390.04 
L 844.866 43.44 
L 50.87 43.44 
z
" style="fill: #ffffff"/>
   </g>
   <g id="FillBetweenPolyCollection_1">
    <defs>
     <path id="mcd7b5c46f2" d="M 52.193327 -326.586559 
L 52.193327 -57.714545 
L 54.83998 -58.828796 
L 57.486633 -61.303991 
L 60.133287 -66.586411 
L 62.77994 -70.926013 
L 65.426593 -74.08228 
L 68.073247 -76.237663 
L 70.7199 -79.476845 
L 73.366553 -81.924759 
L 76.013207 -85.95469 
L 78.65986 -88.752188 
L 81.306513 -90.439907 
L 83.953167 -92.025428 
L 86.59982 -93.446076 
L 89.246473 -95.503145 
L 91.893127 -97.57877 
L 94.53978 -99.873543 
L 97.186433 -100.288281 
L 99.833087 -101.70441 
L 102.47974 -101.897153 
L 105.126393 -101.716454 
L 107.773047 -101.871313 
L 110.4197 -102.78942 
L 113.066353 -102.993435 
L 115.713007 -103.335135 
L 118.35966 -105.385392 
L 121.006313 -106.268289 
L 123.652967 -106.865316 
L 126.29962 -107.182489 
L 128.946273 -107.58093 
L 131.592927 -109.689899 
L 134.23958 -109.910545 
L 136.886233 -110.823662 
L 139.532887 -110.176257 
L 142.17954 -109.681012 
L 144.826193 -110.83324 
L 147.472847 -110.188958 
L 150.1195 -110.862261 
L 152.766153 -110.478792 
L 155.412807 -112.631293 
L 158.05946 -111.926087 
L 160.706113 -113.151202 
L 163.352767 -113.436358 
L 165.99942 -113.199575 
L 168.646073 -113.759686 
L 171.292727 -114.325882 
L 173.93938 -115.395632 
L 176.586033 -115.675681 
L 179.232687 -115.438196 
L 181.87934 -116.028042 
L 184.525993 -117.222453 
L 187.172647 -117.591872 
L 189.8193 -118.469248 
L 192.465953 -119.072257 
L 195.112607 -119.492193 
L 197.75926 -118.957174 
L 200.405913 -118.206372 
L 203.052567 -118.96485 
L 205.69922 -119.47306 
L 208.345873 -118.569775 
L 210.992527 -119.321072 
L 213.63918 -119.537938 
L 216.285833 -119.646048 
L 218.932487 -119.703434 
L 221.57914 -119.744788 
L 224.225793 -119.360467 
L 226.872447 -120.501572 
L 229.5191 -121.510697 
L 232.165753 -122.891258 
L 234.812407 -122.91152 
L 237.45906 -123.928149 
L 240.105713 -125.047355 
L 242.752367 -123.886933 
L 245.39902 -123.141733 
L 248.045673 -123.823831 
L 250.692327 -123.565461 
L 253.33898 -124.513719 
L 255.985633 -125.230474 
L 258.632287 -125.611742 
L 261.27894 -124.878355 
L 263.925593 -125.573269 
L 266.572247 -126.173028 
L 269.2189 -125.923763 
L 271.865553 -125.617793 
L 274.512207 -125.969716 
L 277.15886 -125.230336 
L 279.805513 -126.633015 
L 282.452167 -126.431467 
L 285.09882 -125.926022 
L 287.745473 -126.482018 
L 290.392127 -126.760269 
L 293.03878 -126.411746 
L 295.685433 -127.021647 
L 298.332087 -128.224184 
L 300.97874 -128.369084 
L 303.625393 -129.006013 
L 306.272047 -127.995066 
L 308.9187 -127.610503 
L 311.565353 -128.481413 
L 314.212007 -127.611263 
L 316.85866 -127.844484 
L 319.505313 -128.491624 
L 322.151967 -128.273191 
L 324.79862 -127.277216 
L 327.445273 -128.332513 
L 330.091927 -128.38069 
L 332.73858 -127.951281 
L 335.385233 -128.550647 
L 338.031887 -127.244345 
L 340.67854 -127.711041 
L 343.325193 -128.404906 
L 345.971847 -127.631986 
L 348.6185 -128.464447 
L 351.265153 -128.640455 
L 353.911807 -128.680725 
L 356.55846 -129.071202 
L 359.205113 -128.80035 
L 361.851767 -128.335326 
L 364.49842 -128.954424 
L 367.145073 -129.386738 
L 369.791727 -128.913024 
L 372.43838 -127.722566 
L 375.085033 -128.386638 
L 377.731687 -129.267944 
L 380.37834 -129.093469 
L 383.024993 -129.392812 
L 385.671647 -130.426914 
L 388.3183 -130.251598 
L 390.964953 -131.724583 
L 393.611607 -131.866843 
L 396.25826 -132.072587 
L 398.904913 -131.341794 
L 401.551567 -131.429781 
L 404.19822 -131.910721 
L 406.844873 -132.885558 
L 409.491527 -132.140289 
L 412.13818 -132.496684 
L 414.784833 -131.830941 
L 417.431487 -130.931759 
L 420.07814 -131.009833 
L 422.724793 -131.636769 
L 425.371447 -131.221259 
L 428.0181 -130.616994 
L 430.664753 -132.242728 
L 433.311407 -132.31013 
L 435.95806 -133.500185 
L 438.604713 -134.26431 
L 441.251367 -133.866653 
L 443.89802 -132.34911 
L 446.544673 -132.576141 
L 449.191327 -133.80944 
L 451.83798 -134.405695 
L 454.484633 -134.744133 
L 457.131287 -133.663606 
L 459.77794 -134.644782 
L 462.424593 -134.352769 
L 465.071247 -134.279904 
L 467.7179 -134.105683 
L 470.364553 -134.417589 
L 473.011207 -133.848201 
L 475.65786 -134.710858 
L 478.304513 -134.926606 
L 480.951167 -135.304209 
L 483.59782 -134.754137 
L 486.244473 -135.361768 
L 488.891127 -134.292744 
L 491.53778 -134.896582 
L 494.184433 -134.72341 
L 496.831087 -134.113808 
L 499.47774 -133.157954 
L 502.124393 -134.272366 
L 504.771047 -133.866884 
L 507.4177 -134.914562 
L 510.064353 -134.772405 
L 512.711007 -133.763591 
L 515.35766 -134.333014 
L 518.004313 -134.126717 
L 520.650967 -135.572652 
L 523.29762 -134.582774 
L 525.944273 -134.874511 
L 528.590927 -136.100122 
L 531.23758 -135.600244 
L 533.884233 -135.728524 
L 536.530887 -135.510148 
L 539.17754 -136.295492 
L 541.824193 -137.098136 
L 544.470847 -136.049847 
L 547.1175 -135.747415 
L 549.764153 -135.746032 
L 552.410807 -137.093192 
L 555.05746 -137.165699 
L 557.704113 -136.239259 
L 560.350767 -137.202547 
L 562.99742 -137.402516 
L 565.644073 -137.956299 
L 568.290727 -137.090863 
L 570.93738 -136.01338 
L 573.584033 -136.252582 
L 576.230687 -137.066602 
L 578.87734 -138.605963 
L 581.523993 -139.251075 
L 584.170647 -139.296209 
L 586.8173 -138.312925 
L 589.463953 -138.262511 
L 592.110607 -137.88197 
L 594.75726 -138.198256 
L 597.403913 -138.485221 
L 600.050567 -137.974924 
L 602.69722 -139.317612 
L 605.343873 -139.488699 
L 607.990527 -139.758744 
L 610.63718 -139.577054 
L 613.283833 -139.458513 
L 615.930487 -138.883546 
L 618.57714 -138.581033 
L 621.223793 -138.982332 
L 623.870447 -137.991198 
L 626.5171 -136.868142 
L 629.163753 -137.361715 
L 631.810407 -136.989461 
L 634.45706 -137.395589 
L 637.103713 -137.703335 
L 639.750367 -137.227903 
L 642.39702 -138.64356 
L 645.043673 -139.293063 
L 647.690327 -138.904811 
L 650.33698 -138.701372 
L 652.983633 -138.885955 
L 655.630287 -138.749019 
L 658.27694 -138.118441 
L 660.923593 -138.543909 
L 663.570247 -138.097568 
L 666.2169 -139.399122 
L 668.863553 -139.447552 
L 671.510207 -139.901604 
L 674.15686 -139.307793 
L 676.803513 -140.022381 
L 679.450167 -140.457035 
L 682.09682 -140.112465 
L 684.743473 -140.496395 
L 687.390127 -140.030034 
L 690.03678 -139.342254 
L 692.683433 -140.18669 
L 695.330087 -139.437479 
L 697.97674 -140.937757 
L 700.623393 -140.559682 
L 703.270047 -139.866693 
L 705.9167 -138.735454 
L 708.563353 -140.083409 
L 711.210007 -139.860861 
L 713.85666 -140.402161 
L 716.503313 -139.818712 
L 719.149967 -139.78115 
L 721.79662 -139.213744 
L 724.443273 -140.263036 
L 727.089927 -140.09709 
L 729.73658 -140.67843 
L 732.383233 -140.402772 
L 735.029887 -140.020375 
L 737.67654 -140.618382 
L 740.323193 -140.59306 
L 742.969847 -139.865978 
L 745.6165 -140.094889 
L 748.263153 -140.230072 
L 750.909807 -141.533424 
L 753.55646 -141.883226 
L 756.203113 -141.124345 
L 758.849767 -141.524468 
L 761.49642 -140.963056 
L 764.143073 -141.430696 
L 766.789727 -140.365833 
L 769.43638 -140.270147 
L 772.083033 -140.005484 
L 774.729687 -140.340695 
L 777.37634 -140.118366 
L 780.022993 -140.910787 
L 782.669647 -141.678335 
L 785.3163 -142.164048 
L 787.962953 -142.767979 
L 790.609607 -143.399882 
L 793.25626 -143.719372 
L 795.902913 -143.310478 
L 798.549567 -143.416709 
L 801.19622 -142.753537 
L 803.842873 -143.205733 
L 806.489527 -142.987173 
L 809.13618 -143.868583 
L 811.782833 -143.54371 
L 814.429487 -143.433341 
L 817.07614 -143.331028 
L 819.722793 -141.937373 
L 822.369447 -142.575466 
L 825.0161 -143.06829 
L 827.662753 -142.256068 
L 830.309407 -142.667498 
L 832.95606 -143.198875 
L 835.602713 -143.054805 
L 838.249367 -143.960338 
L 840.89602 -143.760104 
L 843.542673 -144.019649 
L 843.542673 -371.551952 
L 843.542673 -371.551952 
L 840.89602 -371.84763 
L 838.249367 -371.759113 
L 835.602713 -372.526028 
L 832.95606 -372.161357 
L 830.309407 -372.805455 
L 827.662753 -372.628375 
L 825.0161 -372.155179 
L 822.369447 -372.222673 
L 819.722793 -372.603572 
L 817.07614 -371.139358 
L 814.429487 -370.747302 
L 811.782833 -370.881921 
L 809.13618 -370.568056 
L 806.489527 -370.838124 
L 803.842873 -371.129307 
L 801.19622 -371.541809 
L 798.549567 -370.860807 
L 795.902913 -371.030971 
L 793.25626 -371.039131 
L 790.609607 -370.743614 
L 787.962953 -370.651363 
L 785.3163 -371.624909 
L 782.669647 -371.986744 
L 780.022993 -372.1094 
L 777.37634 -372.357546 
L 774.729687 -372.007836 
L 772.083033 -372.087501 
L 769.43638 -371.828728 
L 766.789727 -371.567142 
L 764.143073 -370.689213 
L 761.49642 -370.948424 
L 758.849767 -370.592905 
L 756.203113 -370.664087 
L 753.55646 -370.028288 
L 750.909807 -369.989931 
L 748.263153 -370.276158 
L 745.6165 -370.471978 
L 742.969847 -370.70475 
L 740.323193 -370.660676 
L 737.67654 -370.634858 
L 735.029887 -371.184492 
L 732.383233 -371.330706 
L 729.73658 -371.074215 
L 727.089927 -371.431924 
L 724.443273 -371.101899 
L 721.79662 -371.27861 
L 719.149967 -370.850111 
L 716.503313 -370.467783 
L 713.85666 -370.018883 
L 711.210007 -370.184668 
L 708.563353 -369.846414 
L 705.9167 -370.720563 
L 703.270047 -370.080868 
L 700.623393 -369.71848 
L 697.97674 -369.590822 
L 695.330087 -370.471264 
L 692.683433 -369.753264 
L 690.03678 -370.48733 
L 687.390127 -369.877741 
L 684.743473 -369.863057 
L 682.09682 -369.643909 
L 679.450167 -369.393711 
L 676.803513 -368.745372 
L 674.15686 -369.770921 
L 671.510207 -369.72664 
L 668.863553 -370.125703 
L 666.2169 -370.133748 
L 663.570247 -370.459577 
L 660.923593 -370.182731 
L 658.27694 -370.115629 
L 655.630287 -369.643701 
L 652.983633 -369.558481 
L 650.33698 -369.624799 
L 647.690327 -369.67784 
L 645.043673 -369.284056 
L 642.39702 -369.003569 
L 639.750367 -370.03359 
L 637.103713 -369.88295 
L 634.45706 -369.640981 
L 631.810407 -370.131604 
L 629.163753 -370.196539 
L 626.5171 -370.266984 
L 623.870447 -369.717396 
L 621.223793 -369.155799 
L 618.57714 -369.626759 
L 615.930487 -369.085262 
L 613.283833 -369.177145 
L 610.63718 -368.964889 
L 607.990527 -368.901406 
L 605.343873 -369.375639 
L 602.69722 -369.068965 
L 600.050567 -369.438108 
L 597.403913 -369.447997 
L 594.75726 -369.924696 
L 592.110607 -369.961301 
L 589.463953 -370.057955 
L 586.8173 -369.328268 
L 584.170647 -368.540608 
L 581.523993 -369.269718 
L 578.87734 -369.581694 
L 576.230687 -369.925526 
L 573.584033 -370.729023 
L 570.93738 -370.282313 
L 568.290727 -369.234058 
L 565.644073 -368.370835 
L 562.99742 -368.609692 
L 560.350767 -368.901175 
L 557.704113 -369.665485 
L 555.05746 -369.048334 
L 552.410807 -369.025744 
L 549.764153 -369.489719 
L 547.1175 -368.84742 
L 544.470847 -369.162023 
L 541.824193 -368.346563 
L 539.17754 -369.3965 
L 536.530887 -369.624361 
L 533.884233 -369.693861 
L 531.23758 -369.368931 
L 528.590927 -369.303027 
L 525.944273 -369.996754 
L 523.29762 -369.997353 
L 520.650967 -368.950182 
L 518.004313 -370.109705 
L 515.35766 -370.00503 
L 512.711007 -370.097672 
L 510.064353 -368.836171 
L 507.4177 -368.444945 
L 504.771047 -368.748714 
L 502.124393 -368.398059 
L 499.47774 -369.719148 
L 496.831087 -369.051654 
L 494.184433 -368.491578 
L 491.53778 -368.426181 
L 488.891127 -368.491831 
L 486.244473 -367.6914 
L 483.59782 -368.230477 
L 480.951167 -368.175776 
L 478.304513 -368.442087 
L 475.65786 -368.10766 
L 473.011207 -368.453728 
L 470.364553 -368.000702 
L 467.7179 -367.680082 
L 465.071247 -367.835632 
L 462.424593 -367.823438 
L 459.77794 -367.439266 
L 457.131287 -367.960247 
L 454.484633 -366.748375 
L 451.83798 -367.308243 
L 449.191327 -367.735889 
L 446.544673 -368.116304 
L 443.89802 -367.820902 
L 441.251367 -366.782536 
L 438.604713 -366.355305 
L 435.95806 -366.542343 
L 433.311407 -367.35317 
L 430.664753 -367.887774 
L 428.0181 -368.168884 
L 425.371447 -367.785035 
L 422.724793 -367.524924 
L 420.07814 -367.631006 
L 417.431487 -367.588845 
L 414.784833 -367.374884 
L 412.13818 -366.570926 
L 409.491527 -367.185633 
L 406.844873 -366.451336 
L 404.19822 -367.266013 
L 401.551567 -367.058782 
L 398.904913 -367.563351 
L 396.25826 -366.209068 
L 393.611607 -366.014193 
L 390.964953 -366.31319 
L 388.3183 -367.059151 
L 385.671647 -366.715042 
L 383.024993 -367.897087 
L 380.37834 -368.370374 
L 377.731687 -367.583797 
L 375.085033 -368.211851 
L 372.43838 -368.545518 
L 369.791727 -366.800078 
L 367.145073 -366.810106 
L 364.49842 -366.631436 
L 361.851767 -366.890047 
L 359.205113 -366.779747 
L 356.55846 -366.662509 
L 353.911807 -366.647456 
L 351.265153 -366.744225 
L 348.6185 -366.693259 
L 345.971847 -366.716057 
L 343.325193 -365.544409 
L 340.67854 -365.314519 
L 338.031887 -366.053956 
L 335.385233 -365.070014 
L 332.73858 -365.053348 
L 330.091927 -364.488109 
L 327.445273 -365.227961 
L 324.79862 -366.096831 
L 322.151967 -364.826778 
L 319.505313 -364.123577 
L 316.85866 -364.496315 
L 314.212007 -364.212923 
L 311.565353 -363.966759 
L 308.9187 -364.781505 
L 306.272047 -364.573491 
L 303.625393 -363.447415 
L 300.97874 -363.676798 
L 298.332087 -363.520695 
L 295.685433 -364.025517 
L 293.03878 -363.929163 
L 290.392127 -363.419892 
L 287.745473 -363.294286 
L 285.09882 -363.289214 
L 282.452167 -363.111559 
L 279.805513 -362.66176 
L 277.15886 -362.883835 
L 274.512207 -362.174319 
L 271.865553 -362.416218 
L 269.2189 -362.531059 
L 266.572247 -362.814451 
L 263.925593 -362.180888 
L 261.27894 -362.725704 
L 258.632287 -362.082298 
L 255.985633 -362.170262 
L 253.33898 -361.721915 
L 250.692327 -362.29951 
L 248.045673 -362.362463 
L 245.39902 -362.468337 
L 242.752367 -361.739595 
L 240.105713 -360.741131 
L 237.45906 -361.459292 
L 234.812407 -361.926656 
L 232.165753 -361.943875 
L 229.5191 -362.290358 
L 226.872447 -362.494454 
L 224.225793 -362.295568 
L 221.57914 -362.044033 
L 218.932487 -361.421004 
L 216.285833 -360.492086 
L 213.63918 -359.685523 
L 210.992527 -359.791421 
L 208.345873 -360.210769 
L 205.69922 -359.47525 
L 203.052567 -360.015778 
L 200.405913 -360.186219 
L 197.75926 -359.588063 
L 195.112607 -358.706261 
L 192.465953 -358.625074 
L 189.8193 -358.474619 
L 187.172647 -358.717302 
L 184.525993 -358.795492 
L 181.87934 -359.189184 
L 179.232687 -358.608823 
L 176.586033 -357.2698 
L 173.93938 -356.990189 
L 171.292727 -356.95084 
L 168.646073 -356.774567 
L 165.99942 -357.029284 
L 163.352767 -356.41294 
L 160.706113 -356.498183 
L 158.05946 -357.138639 
L 155.412807 -355.719167 
L 152.766153 -356.99148 
L 150.1195 -355.895855 
L 147.472847 -355.740074 
L 144.826193 -354.934065 
L 142.17954 -356.266634 
L 139.532887 -355.389004 
L 136.886233 -354.040761 
L 134.23958 -353.471787 
L 131.592927 -352.943591 
L 128.946273 -353.736784 
L 126.29962 -353.033883 
L 123.652967 -352.238085 
L 121.006313 -351.546871 
L 118.35966 -351.099815 
L 115.713007 -351.230931 
L 113.066353 -349.914959 
L 110.4197 -349.28785 
L 107.773047 -348.725999 
L 105.126393 -347.965493 
L 102.47974 -347.174559 
L 99.833087 -345.793306 
L 97.186433 -345.746651 
L 94.53978 -344.879233 
L 91.893127 -344.949239 
L 89.246473 -345.186344 
L 86.59982 -344.209364 
L 83.953167 -343.306954 
L 81.306513 -342.452422 
L 78.65986 -340.234525 
L 76.013207 -339.465812 
L 73.366553 -339.272136 
L 70.7199 -337.96686 
L 68.073247 -336.305396 
L 65.426593 -334.277257 
L 62.77994 -331.830322 
L 60.133287 -329.829959 
L 57.486633 -328.250166 
L 54.83998 -325.717343 
L 52.193327 -326.586559 
z
" style="stroke: #0000ff; stroke-opacity: 0.2"/>
    </defs>
    <g clip-path="url(#pad28d4f87f)">
     <use xlink:href="#mcd7b5c46f2" x="0" y="432" style="fill: #0000ff; fill-opacity: 0.2; stroke: #0000ff; stroke-opacity: 0.2"/>
    </g>
   </g>
   <g id="matplotlib.axis_1">
    <g id="xtick_1">
     <g id="line2d_1">
      <defs>
       <path id="m6a8e463620" d="M 0 0 
L 0 3.5 
" style="stroke: #000000; stroke-width: 0.8"/>
      </defs>
      <g>
       <use xlink:href="#m6a8e463620" x="181.87934" y="390.04" style="stroke: #000000; stroke-width: 0.8"/>
      </g>
     </g>
     <g id="text_1">
      <!-- 50 -->
      <g transform="translate(175.51684 404.638438) scale(0.1 -0.1)">
       <defs>
        <path id="DejaVuSans-35" d="M 691 4666 
L 3169 4666 
L 3169 4134 
L 1269 4134 
L 1269 2991 
Q 1406 3038 1543 3061 
Q 1681 3084 1819 3084 
Q 2600 3084 3056 2656 
Q 3513 2228 3513 1497 
Q 3513 744 3044 326 
Q 2575 -91 1722 -91 
Q 1428 -91 1123 -41 
Q 819 9 494 109 
L 494 744 
Q 775 591 1075 516 
Q 1375 441 1709 441 
Q 2250 441 2565 725 
Q 2881 1009 2881 1497 
Q 2881 1984 2565 2268 
Q 2250 2553 1709 2553 
Q 1456 2553 1204 2497 
Q 953 2441 691 2322 
L 691 4666 
z
" transform="scale(0.015625)"/>
        <path id="DejaVuSans-30" d="M 2034 4250 
Q 1547 4250 1301 3770 
Q 1056 3291 1056 2328 
Q 1056 1369 1301 889 
Q 1547 409 2034 409 
Q 2525 409 2770 889 
Q 3016 1369 3016 2328 
Q 3016 3291 2770 3770 
Q 2525 4250 2034 4250 
z
M 2034 4750 
Q 2819 4750 3233 4129 
Q 3647 3509 3647 2328 
Q 3647 1150 3233 529 
Q 2819 -91 2034 -91 
Q 1250 -91 836 529 
Q 422 1150 422 2328 
Q 422 3509 836 4129 
Q 1250 4750 2034 4750 
z
" transform="scale(0.015625)"/>
       </defs>
       <use xlink:href="#DejaVuSans-35"/>
       <use xlink:href="#DejaVuSans-30" transform="translate(63.623047 0)"/>
      </g>
     </g>
    </g>
    <g id="xtick_2">
     <g id="line2d_2">
      <g>
       <use xlink:href="#m6a8e463620" x="314.212007" y="390.04" style="stroke: #000000; stroke-width: 0.8"/>
      </g>
     </g>
     <g id="text_2">
      <!-- 100 -->
      <g transform="translate(304.668257 404.638438) scale(0.1 -0.1)">
       <defs>
        <path id="DejaVuSans-31" d="M 794 531 
L 1825 531 
L 1825 4091 
L 703 3866 
L 703 4441 
L 1819 4666 
L 2450 4666 
L 2450 531 
L 3481 531 
L 3481 0 
L 794 0 
L 794 531 
z
" transform="scale(0.015625)"/>
       </defs>
       <use xlink:href="#DejaVuSans-31"/>
       <use xlink:href="#DejaVuSans-30" transform="translate(63.623047 0)"/>
       <use xlink:href="#DejaVuSans-30" transform="translate(127.246094 0)"/>
      </g>
     </g>
    </g>
    <g id="xtick_3">
     <g id="line2d_3">
      <g>
       <use xlink:href="#m6a8e463620" x="446.544673" y="390.04" style="stroke: #000000; stroke-width: 0.8"/>
      </g>
     </g>
     <g id="text_3">
      <!-- 150 -->
      <g transform="translate(437.000923 404.638438) scale(0.1 -0.1)">
       <use xlink:href="#DejaVuSans-31"/>
       <use xlink:href="#DejaVuSans-35" transform="translate(63.623047 0)"/>
       <use xlink:href="#DejaVuSans-30" transform="translate(127.246094 0)"/>
      </g>
     </g>
    </g>
    <g id="xtick_4">
     <g id="line2d_4">
      <g>
       <use xlink:href="#m6a8e463620" x="578.87734" y="390.04" style="stroke: #000000; stroke-width: 0.8"/>
      </g>
     </g>
     <g id="text_4">
      <!-- 200 -->
      <g transform="translate(569.33359 404.638438) scale(0.1 -0.1)">
       <defs>
        <path id="DejaVuSans-32" d="M 1228 531 
L 3431 531 
L 3431 0 
L 469 0 
L 469 531 
Q 828 903 1448 1529 
Q 2069 2156 2228 2338 
Q 2531 2678 2651 2914 
Q 2772 3150 2772 3378 
Q 2772 3750 2511 3984 
Q 2250 4219 1831 4219 
Q 1534 4219 1204 4116 
Q 875 4013 500 3803 
L 500 4441 
Q 881 4594 1212 4672 
Q 1544 4750 1819 4750 
Q 2544 4750 2975 4387 
Q 3406 4025 3406 3419 
Q 3406 3131 3298 2873 
Q 3191 2616 2906 2266 
Q 2828 2175 2409 1742 
Q 1991 1309 1228 531 
z
" transform="scale(0.015625)"/>
       </defs>
       <use xlink:href="#DejaVuSans-32"/>
       <use xlink:href="#DejaVuSans-30" transform="translate(63.623047 0)"/>
       <use xlink:href="#DejaVuSans-30" transform="translate(127.246094 0)"/>
      </g>
     </g>
    </g>
    <g id="xtick_5">
     <g id="line2d_5">
      <g>
       <use xlink:href="#m6a8e463620" x="711.210007" y="390.04" style="stroke: #000000; stroke-width: 0.8"/>
      </g>
     </g>
     <g id="text_5">
      <!-- 250 -->
      <g transform="translate(701.666257 404.638438) scale(0.1 -0.1)">
       <use xlink:href="#DejaVuSans-32"/>
       <use xlink:href="#DejaVuSans-35" transform="translate(63.623047 0)"/>
       <use xlink:href="#DejaVuSans-30" transform="translate(127.246094 0)"/>
      </g>
     </g>
    </g>
    <g id="xtick_6">
     <g id="line2d_6">
      <g>
       <use xlink:href="#m6a8e463620" x="843.542673" y="390.04" style="stroke: #000000; stroke-width: 0.8"/>
      </g>
     </g>
     <g id="text_6">
      <!-- 300 -->
      <g transform="translate(833.998923 404.638438) scale(0.1 -0.1)">
       <defs>
        <path id="DejaVuSans-33" d="M 2597 2516 
Q 3050 2419 3304 2112 
Q 3559 1806 3559 1356 
Q 3559 666 3084 287 
Q 2609 -91 1734 -91 
Q 1441 -91 1130 -33 
Q 819 25 488 141 
L 488 750 
Q 750 597 1062 519 
Q 1375 441 1716 441 
Q 2309 441 2620 675 
Q 2931 909 2931 1356 
Q 2931 1769 2642 2001 
Q 2353 2234 1838 2234 
L 1294 2234 
L 1294 2753 
L 1863 2753 
Q 2328 2753 2575 2939 
Q 2822 3125 2822 3475 
Q 2822 3834 2567 4026 
Q 2313 4219 1838 4219 
Q 1578 4219 1281 4162 
Q 984 4106 628 3988 
L 628 4550 
Q 988 4650 1302 4700 
Q 1616 4750 1894 4750 
Q 2613 4750 3031 4423 
Q 3450 4097 3450 3541 
Q 3450 3153 3228 2886 
Q 3006 2619 2597 2516 
z
" transform="scale(0.015625)"/>
       </defs>
       <use xlink:href="#DejaVuSans-33"/>
       <use xlink:href="#DejaVuSans-30" transform="translate(63.623047 0)"/>
       <use xlink:href="#DejaVuSans-30" transform="translate(127.246094 0)"/>
      </g>
     </g>
    </g>
    <g id="text_7">
     <!-- Step -->
     <g transform="translate(436.482844 418.316562) scale(0.1 -0.1)">
      <defs>
       <path id="DejaVuSans-53" d="M 3425 4513 
L 3425 3897 
Q 3066 4069 2747 4153 
Q 2428 4238 2131 4238 
Q 1616 4238 1336 4038 
Q 1056 3838 1056 3469 
Q 1056 3159 1242 3001 
Q 1428 2844 1947 2747 
L 2328 2669 
Q 3034 2534 3370 2195 
Q 3706 1856 3706 1288 
Q 3706 609 3251 259 
Q 2797 -91 1919 -91 
Q 1588 -91 1214 -16 
Q 841 59 441 206 
L 441 856 
Q 825 641 1194 531 
Q 1563 422 1919 422 
Q 2459 422 2753 634 
Q 3047 847 3047 1241 
Q 3047 1584 2836 1778 
Q 2625 1972 2144 2069 
L 1759 2144 
Q 1053 2284 737 2584 
Q 422 2884 422 3419 
Q 422 4038 858 4394 
Q 1294 4750 2059 4750 
Q 2388 4750 2728 4690 
Q 3069 4631 3425 4513 
z
" transform="scale(0.015625)"/>
       <path id="DejaVuSans-74" d="M 1172 4494 
L 1172 3500 
L 2356 3500 
L 2356 3053 
L 1172 3053 
L 1172 1153 
Q 1172 725 1289 603 
Q 1406 481 1766 481 
L 2356 481 
L 2356 0 
L 1766 0 
Q 1100 0 847 248 
Q 594 497 594 1153 
L 594 3053 
L 172 3053 
L 172 3500 
L 594 3500 
L 594 4494 
L 1172 4494 
z
" transform="scale(0.015625)"/>
       <path id="DejaVuSans-65" d="M 3597 1894 
L 3597 1613 
L 953 1613 
Q 991 1019 1311 708 
Q 1631 397 2203 397 
Q 2534 397 2845 478 
Q 3156 559 3463 722 
L 3463 178 
Q 3153 47 2828 -22 
Q 2503 -91 2169 -91 
Q 1331 -91 842 396 
Q 353 884 353 1716 
Q 353 2575 817 3079 
Q 1281 3584 2069 3584 
Q 2775 3584 3186 3129 
Q 3597 2675 3597 1894 
z
M 3022 2063 
Q 3016 2534 2758 2815 
Q 2500 3097 2075 3097 
Q 1594 3097 1305 2825 
Q 1016 2553 972 2059 
L 3022 2063 
z
" transform="scale(0.015625)"/>
       <path id="DejaVuSans-70" d="M 1159 525 
L 1159 -1331 
L 581 -1331 
L 581 3500 
L 1159 3500 
L 1159 2969 
Q 1341 3281 1617 3432 
Q 1894 3584 2278 3584 
Q 2916 3584 3314 3078 
Q 3713 2572 3713 1747 
Q 3713 922 3314 415 
Q 2916 -91 2278 -91 
Q 1894 -91 1617 61 
Q 1341 213 1159 525 
z
M 3116 1747 
Q 3116 2381 2855 2742 
Q 2594 3103 2138 3103 
Q 1681 3103 1420 2742 
Q 1159 2381 1159 1747 
Q 1159 1113 1420 752 
Q 1681 391 2138 391 
Q 2594 391 2855 752 
Q 3116 1113 3116 1747 
z
" transform="scale(0.015625)"/>
      </defs>
      <use xlink:href="#DejaVuSans-53"/>
      <use xlink:href="#DejaVuSans-74" transform="translate(63.476562 0)"/>
      <use xlink:href="#DejaVuSans-65" transform="translate(102.685547 0)"/>
      <use xlink:href="#DejaVuSans-70" transform="translate(164.208984 0)"/>
     </g>
    </g>
   </g>
   <g id="matplotlib.axis_2">
    <g id="ytick_1">
     <g id="line2d_7">
      <defs>
       <path id="m726b6ea3ad" d="M 0 0 
L -3.5 0 
" style="stroke: #000000; stroke-width: 0.8"/>
      </defs>
      <g>
       <use xlink:href="#m726b6ea3ad" x="50.87" y="379.136379" style="stroke: #000000; stroke-width: 0.8"/>
      </g>
     </g>
     <g id="text_8">
      <!-- 20 -->
      <g transform="translate(31.145 382.935598) scale(0.1 -0.1)">
       <use xlink:href="#DejaVuSans-32"/>
       <use xlink:href="#DejaVuSans-30" transform="translate(63.623047 0)"/>
      </g>
     </g>
    </g>
    <g id="ytick_2">
     <g id="line2d_8">
      <g>
       <use xlink:href="#m726b6ea3ad" x="50.87" y="318.708957" style="stroke: #000000; stroke-width: 0.8"/>
      </g>
     </g>
     <g id="text_9">
      <!-- 40 -->
      <g transform="translate(31.145 322.508176) scale(0.1 -0.1)">
       <defs>
        <path id="DejaVuSans-34" d="M 2419 4116 
L 825 1625 
L 2419 1625 
L 2419 4116 
z
M 2253 4666 
L 3047 4666 
L 3047 1625 
L 3713 1625 
L 3713 1100 
L 3047 1100 
L 3047 0 
L 2419 0 
L 2419 1100 
L 313 1100 
L 313 1709 
L 2253 4666 
z
" transform="scale(0.015625)"/>
       </defs>
       <use xlink:href="#DejaVuSans-34"/>
       <use xlink:href="#DejaVuSans-30" transform="translate(63.623047 0)"/>
      </g>
     </g>
    </g>
    <g id="ytick_3">
     <g id="line2d_9">
      <g>
       <use xlink:href="#m726b6ea3ad" x="50.87" y="258.281536" style="stroke: #000000; stroke-width: 0.8"/>
      </g>
     </g>
     <g id="text_10">
      <!-- 60 -->
      <g transform="translate(31.145 262.080754) scale(0.1 -0.1)">
       <defs>
        <path id="DejaVuSans-36" d="M 2113 2584 
Q 1688 2584 1439 2293 
Q 1191 2003 1191 1497 
Q 1191 994 1439 701 
Q 1688 409 2113 409 
Q 2538 409 2786 701 
Q 3034 994 3034 1497 
Q 3034 2003 2786 2293 
Q 2538 2584 2113 2584 
z
M 3366 4563 
L 3366 3988 
Q 3128 4100 2886 4159 
Q 2644 4219 2406 4219 
Q 1781 4219 1451 3797 
Q 1122 3375 1075 2522 
Q 1259 2794 1537 2939 
Q 1816 3084 2150 3084 
Q 2853 3084 3261 2657 
Q 3669 2231 3669 1497 
Q 3669 778 3244 343 
Q 2819 -91 2113 -91 
Q 1303 -91 875 529 
Q 447 1150 447 2328 
Q 447 3434 972 4092 
Q 1497 4750 2381 4750 
Q 2619 4750 2861 4703 
Q 3103 4656 3366 4563 
z
" transform="scale(0.015625)"/>
       </defs>
       <use xlink:href="#DejaVuSans-36"/>
       <use xlink:href="#DejaVuSans-30" transform="translate(63.623047 0)"/>
      </g>
     </g>
    </g>
    <g id="ytick_4">
     <g id="line2d_10">
      <g>
       <use xlink:href="#m726b6ea3ad" x="50.87" y="197.854114" style="stroke: #000000; stroke-width: 0.8"/>
      </g>
     </g>
     <g id="text_11">
      <!-- 80 -->
      <g transform="translate(31.145 201.653333) scale(0.1 -0.1)">
       <defs>
        <path id="DejaVuSans-38" d="M 2034 2216 
Q 1584 2216 1326 1975 
Q 1069 1734 1069 1313 
Q 1069 891 1326 650 
Q 1584 409 2034 409 
Q 2484 409 2743 651 
Q 3003 894 3003 1313 
Q 3003 1734 2745 1975 
Q 2488 2216 2034 2216 
z
M 1403 2484 
Q 997 2584 770 2862 
Q 544 3141 544 3541 
Q 544 4100 942 4425 
Q 1341 4750 2034 4750 
Q 2731 4750 3128 4425 
Q 3525 4100 3525 3541 
Q 3525 3141 3298 2862 
Q 3072 2584 2669 2484 
Q 3125 2378 3379 2068 
Q 3634 1759 3634 1313 
Q 3634 634 3220 271 
Q 2806 -91 2034 -91 
Q 1263 -91 848 271 
Q 434 634 434 1313 
Q 434 1759 690 2068 
Q 947 2378 1403 2484 
z
M 1172 3481 
Q 1172 3119 1398 2916 
Q 1625 2713 2034 2713 
Q 2441 2713 2670 2916 
Q 2900 3119 2900 3481 
Q 2900 3844 2670 4047 
Q 2441 4250 2034 4250 
Q 1625 4250 1398 4047 
Q 1172 3844 1172 3481 
z
" transform="scale(0.015625)"/>
       </defs>
       <use xlink:href="#DejaVuSans-38"/>
       <use xlink:href="#DejaVuSans-30" transform="translate(63.623047 0)"/>
      </g>
     </g>
    </g>
    <g id="ytick_5">
     <g id="line2d_11">
      <g>
       <use xlink:href="#m726b6ea3ad" x="50.87" y="137.426693" style="stroke: #000000; stroke-width: 0.8"/>
      </g>
     </g>
     <g id="text_12">
      <!-- 100 -->
      <g transform="translate(24.7825 141.225911) scale(0.1 -0.1)">
       <use xlink:href="#DejaVuSans-31"/>
       <use xlink:href="#DejaVuSans-30" transform="translate(63.623047 0)"/>
       <use xlink:href="#DejaVuSans-30" transform="translate(127.246094 0)"/>
      </g>
     </g>
    </g>
    <g id="ytick_6">
     <g id="line2d_12">
      <g>
       <use xlink:href="#m726b6ea3ad" x="50.87" y="76.999271" style="stroke: #000000; stroke-width: 0.8"/>
      </g>
     </g>
     <g id="text_13">
      <!-- 120 -->
      <g transform="translate(24.7825 80.79849) scale(0.1 -0.1)">
       <use xlink:href="#DejaVuSans-31"/>
       <use xlink:href="#DejaVuSans-32" transform="translate(63.623047 0)"/>
       <use xlink:href="#DejaVuSans-30" transform="translate(127.246094 0)"/>
      </g>
     </g>
    </g>
    <g id="text_14">
     <!-- Profit -->
     <g transform="translate(18.702813 229.779063) rotate(-90) scale(0.1 -0.1)">
      <defs>
       <path id="DejaVuSans-50" d="M 1259 4147 
L 1259 2394 
L 2053 2394 
Q 2494 2394 2734 2622 
Q 2975 2850 2975 3272 
Q 2975 3691 2734 3919 
Q 2494 4147 2053 4147 
L 1259 4147 
z
M 628 4666 
L 2053 4666 
Q 2838 4666 3239 4311 
Q 3641 3956 3641 3272 
Q 3641 2581 3239 2228 
Q 2838 1875 2053 1875 
L 1259 1875 
L 1259 0 
L 628 0 
L 628 4666 
z
" transform="scale(0.015625)"/>
       <path id="DejaVuSans-72" d="M 2631 2963 
Q 2534 3019 2420 3045 
Q 2306 3072 2169 3072 
Q 1681 3072 1420 2755 
Q 1159 2438 1159 1844 
L 1159 0 
L 581 0 
L 581 3500 
L 1159 3500 
L 1159 2956 
Q 1341 3275 1631 3429 
Q 1922 3584 2338 3584 
Q 2397 3584 2469 3576 
Q 2541 3569 2628 3553 
L 2631 2963 
z
" transform="scale(0.015625)"/>
       <path id="DejaVuSans-6f" d="M 1959 3097 
Q 1497 3097 1228 2736 
Q 959 2375 959 1747 
Q 959 1119 1226 758 
Q 1494 397 1959 397 
Q 2419 397 2687 759 
Q 2956 1122 2956 1747 
Q 2956 2369 2687 2733 
Q 2419 3097 1959 3097 
z
M 1959 3584 
Q 2709 3584 3137 3096 
Q 3566 2609 3566 1747 
Q 3566 888 3137 398 
Q 2709 -91 1959 -91 
Q 1206 -91 779 398 
Q 353 888 353 1747 
Q 353 2609 779 3096 
Q 1206 3584 1959 3584 
z
" transform="scale(0.015625)"/>
       <path id="DejaVuSans-66" d="M 2375 4863 
L 2375 4384 
L 1825 4384 
Q 1516 4384 1395 4259 
Q 1275 4134 1275 3809 
L 1275 3500 
L 2222 3500 
L 2222 3053 
L 1275 3053 
L 1275 0 
L 697 0 
L 697 3053 
L 147 3053 
L 147 3500 
L 697 3500 
L 697 3744 
Q 697 4328 969 4595 
Q 1241 4863 1831 4863 
L 2375 4863 
z
" transform="scale(0.015625)"/>
       <path id="DejaVuSans-69" d="M 603 3500 
L 1178 3500 
L 1178 0 
L 603 0 
L 603 3500 
z
M 603 4863 
L 1178 4863 
L 1178 4134 
L 603 4134 
L 603 4863 
z
" transform="scale(0.015625)"/>
      </defs>
      <use xlink:href="#DejaVuSans-50"/>
      <use xlink:href="#DejaVuSans-72" transform="translate(58.552734 0)"/>
      <use xlink:href="#DejaVuSans-6f" transform="translate(97.416016 0)"/>
      <use xlink:href="#DejaVuSans-66" transform="translate(158.597656 0)"/>
      <use xlink:href="#DejaVuSans-69" transform="translate(193.802734 0)"/>
      <use xlink:href="#DejaVuSans-74" transform="translate(221.585938 0)"/>
     </g>
    </g>
   </g>
   <g id="line2d_13">
    <path d="M 52.193327 239.849448 
L 54.83998 239.726931 
L 57.486633 237.222921 
L 60.133287 233.791815 
L 62.77994 230.621832 
L 65.426593 227.820232 
L 68.073247 225.728471 
L 70.7199 223.278148 
L 73.366553 221.401547 
L 76.013207 219.289754 
L 78.65986 217.506649 
L 81.306513 215.553841 
L 86.59982 213.17228 
L 89.246473 211.655256 
L 91.893127 210.735995 
L 94.53978 209.623612 
L 99.833087 208.251142 
L 102.47974 207.46415 
L 105.126393 207.159021 
L 107.773047 206.701338 
L 110.4197 205.961371 
L 113.066353 205.545803 
L 115.713007 204.716973 
L 118.35966 203.757396 
L 123.652967 202.448294 
L 139.532887 199.217364 
L 142.17954 199.026177 
L 144.826193 199.116353 
L 147.472847 199.03549 
L 158.05946 197.467637 
L 160.706113 197.175301 
L 165.99942 196.88557 
L 168.646073 196.732879 
L 171.292727 196.361639 
L 173.93938 195.807096 
L 176.586033 195.527254 
L 181.87934 194.391381 
L 184.525993 193.991027 
L 187.172647 193.845413 
L 195.112607 192.900773 
L 197.75926 192.727382 
L 200.405913 192.803704 
L 203.052567 192.509686 
L 208.345873 192.609728 
L 213.63918 192.388275 
L 221.57914 191.105589 
L 224.225793 191.171977 
L 226.872447 190.501993 
L 229.5191 190.099472 
L 232.165753 189.582433 
L 234.812407 189.580912 
L 240.105713 189.105757 
L 245.39902 189.194965 
L 248.045673 188.906848 
L 250.692327 189.067515 
L 253.33898 188.882183 
L 255.985633 188.299632 
L 258.632287 188.15298 
L 261.27894 188.197976 
L 263.925593 188.122921 
L 266.572247 187.506255 
L 271.865553 187.983 
L 277.15886 187.942914 
L 279.805513 187.352618 
L 282.452167 187.228487 
L 285.09882 187.392382 
L 290.392127 186.909919 
L 293.03878 186.82954 
L 298.332087 186.127561 
L 306.272047 185.715727 
L 308.9187 185.80399 
L 311.565353 185.775914 
L 314.212007 186.087912 
L 316.85866 185.8296 
L 327.445273 185.219757 
L 330.091927 185.565595 
L 332.73858 185.497686 
L 335.385233 185.189675 
L 340.67854 185.48722 
L 343.325193 185.025343 
L 345.971847 184.825973 
L 348.6185 184.421147 
L 351.265153 184.307666 
L 353.911807 184.335904 
L 356.55846 184.133145 
L 361.851767 184.387308 
L 364.49842 184.20707 
L 367.145073 183.901572 
L 369.791727 184.143449 
L 372.43838 183.865958 
L 380.37834 183.268078 
L 385.671647 183.429022 
L 388.3183 183.344631 
L 390.964953 182.981113 
L 393.611607 183.059488 
L 396.25826 182.859172 
L 398.904913 182.547428 
L 401.551567 182.755719 
L 404.19822 182.411633 
L 409.491527 182.337039 
L 412.13818 182.466195 
L 414.784833 182.397087 
L 417.431487 182.739698 
L 420.07814 182.67958 
L 422.724793 182.419147 
L 428.0181 182.607061 
L 430.664753 181.934749 
L 433.311407 182.16835 
L 441.251367 181.675399 
L 443.89802 181.914994 
L 446.544673 181.653777 
L 449.191327 181.22733 
L 451.83798 181.143031 
L 454.484633 181.253746 
L 457.131287 181.188073 
L 459.77794 180.957976 
L 465.071247 180.942232 
L 467.7179 181.107117 
L 470.364553 180.790855 
L 473.011207 180.849036 
L 478.304513 180.315653 
L 480.951167 180.260008 
L 483.59782 180.507693 
L 486.244473 180.473416 
L 488.891127 180.607713 
L 491.53778 180.338612 
L 504.771047 180.692195 
L 507.4177 180.320241 
L 512.711007 180.069374 
L 515.35766 179.830978 
L 518.004313 179.881783 
L 520.650967 179.738589 
L 523.29762 179.709936 
L 525.944273 179.564368 
L 528.590927 179.298426 
L 531.23758 179.515407 
L 533.884233 179.288813 
L 536.530887 179.432745 
L 539.17754 179.15401 
L 544.470847 179.394065 
L 547.1175 179.702583 
L 549.764153 179.382125 
L 552.410807 178.940532 
L 555.05746 178.892977 
L 557.704113 179.047628 
L 560.350767 178.948139 
L 562.99742 178.993896 
L 565.644073 178.836433 
L 570.93738 178.852154 
L 573.584033 178.509198 
L 576.230687 178.503942 
L 578.87734 177.906177 
L 581.523993 177.739609 
L 584.170647 178.081597 
L 586.8173 178.179404 
L 589.463953 177.839767 
L 592.110607 178.07837 
L 594.75726 177.938518 
L 597.403913 178.033397 
L 600.050567 178.293484 
L 602.69722 177.806711 
L 605.343873 177.567831 
L 610.63718 177.729029 
L 613.283833 177.682165 
L 615.930487 178.015601 
L 618.57714 177.896104 
L 621.223793 177.930934 
L 626.5171 178.432437 
L 629.163753 178.220873 
L 631.810407 178.439468 
L 634.45706 178.48172 
L 637.103713 178.206858 
L 639.750367 178.369253 
L 642.39702 178.17643 
L 645.043673 177.71144 
L 647.690327 177.708674 
L 650.33698 177.836908 
L 655.630287 177.803645 
L 658.27694 177.882965 
L 660.923593 177.636685 
L 663.570247 177.721422 
L 666.2169 177.233565 
L 671.510207 177.185872 
L 674.15686 177.460643 
L 676.803513 177.616124 
L 679.450167 177.074627 
L 682.09682 177.121813 
L 684.743473 176.82028 
L 687.390127 177.046113 
L 692.683433 177.030023 
L 695.330087 177.045629 
L 697.97674 176.735705 
L 703.270047 177.02622 
L 705.9167 177.271992 
L 708.563353 177.035094 
L 711.210007 176.977236 
L 713.85666 176.789483 
L 716.503313 176.856747 
L 719.149967 176.68437 
L 721.79662 176.753823 
L 724.443273 176.317532 
L 732.383233 176.133261 
L 735.029887 176.397566 
L 740.323193 176.373132 
L 742.969847 176.714636 
L 748.263153 176.746885 
L 750.909807 176.238328 
L 753.55646 176.044237 
L 756.203113 176.105784 
L 758.849767 175.941313 
L 761.49642 176.04426 
L 764.143073 175.940045 
L 766.789727 176.033518 
L 777.37634 175.762044 
L 782.669647 175.16746 
L 785.3163 175.105522 
L 787.962953 175.290323 
L 793.25626 174.620754 
L 795.902913 174.829276 
L 803.842873 174.83248 
L 806.489527 175.087357 
L 809.13618 174.781675 
L 811.782833 174.787184 
L 814.429487 174.909678 
L 819.722793 174.729533 
L 825.0161 174.38826 
L 827.662753 174.557778 
L 830.309407 174.263529 
L 832.95606 174.31989 
L 838.249367 174.140274 
L 843.542673 174.2142 
L 843.542673 174.2142 
" clip-path="url(#pad28d4f87f)" style="fill: none; stroke: #0000ff; stroke-width: 1.5; stroke-linecap: square"/>
   </g>
   <g id="patch_3">
    <path d="M 50.87 390.04 
L 50.87 43.44 
" style="fill: none; stroke: #000000; stroke-width: 0.8; stroke-linejoin: miter; stroke-linecap: square"/>
   </g>
   <g id="patch_4">
    <path d="M 844.866 390.04 
L 844.866 43.44 
" style="fill: none; stroke: #000000; stroke-width: 0.8; stroke-linejoin: miter; stroke-linecap: square"/>
   </g>
   <g id="patch_5">
    <path d="M 50.87 390.04 
L 844.866 390.04 
" style="fill: none; stroke: #000000; stroke-width: 0.8; stroke-linejoin: miter; stroke-linecap: square"/>
   </g>
   <g id="patch_6">
    <path d="M 50.87 43.44 
L 844.866 43.44 
" style="fill: none; stroke: #000000; stroke-width: 0.8; stroke-linejoin: miter; stroke-linecap: square"/>
   </g>
   <g id="text_15">
    <!-- Mean profit per step with confidence interval per simulation step -->
    <g transform="translate(220.284875 21.763062) scale(0.14 -0.14)">
     <defs>
      <path id="DejaVuSans-4d" d="M 628 4666 
L 1569 4666 
L 2759 1491 
L 3956 4666 
L 4897 4666 
L 4897 0 
L 4281 0 
L 4281 4097 
L 3078 897 
L 2444 897 
L 1241 4097 
L 1241 0 
L 628 0 
L 628 4666 
z
" transform="scale(0.015625)"/>
      <path id="DejaVuSans-61" d="M 2194 1759 
Q 1497 1759 1228 1600 
Q 959 1441 959 1056 
Q 959 750 1161 570 
Q 1363 391 1709 391 
Q 2188 391 2477 730 
Q 2766 1069 2766 1631 
L 2766 1759 
L 2194 1759 
z
M 3341 1997 
L 3341 0 
L 2766 0 
L 2766 531 
Q 2569 213 2275 61 
Q 1981 -91 1556 -91 
Q 1019 -91 701 211 
Q 384 513 384 1019 
Q 384 1609 779 1909 
Q 1175 2209 1959 2209 
L 2766 2209 
L 2766 2266 
Q 2766 2663 2505 2880 
Q 2244 3097 1772 3097 
Q 1472 3097 1187 3025 
Q 903 2953 641 2809 
L 641 3341 
Q 956 3463 1253 3523 
Q 1550 3584 1831 3584 
Q 2591 3584 2966 3190 
Q 3341 2797 3341 1997 
z
" transform="scale(0.015625)"/>
      <path id="DejaVuSans-6e" d="M 3513 2113 
L 3513 0 
L 2938 0 
L 2938 2094 
Q 2938 2591 2744 2837 
Q 2550 3084 2163 3084 
Q 1697 3084 1428 2787 
Q 1159 2491 1159 1978 
L 1159 0 
L 581 0 
L 581 3500 
L 1159 3500 
L 1159 2956 
Q 1366 3272 1645 3428 
Q 1925 3584 2291 3584 
Q 2894 3584 3203 3211 
Q 3513 2838 3513 2113 
z
" transform="scale(0.015625)"/>
      <path id="DejaVuSans-20" transform="scale(0.015625)"/>
      <path id="DejaVuSans-73" d="M 2834 3397 
L 2834 2853 
Q 2591 2978 2328 3040 
Q 2066 3103 1784 3103 
Q 1356 3103 1142 2972 
Q 928 2841 928 2578 
Q 928 2378 1081 2264 
Q 1234 2150 1697 2047 
L 1894 2003 
Q 2506 1872 2764 1633 
Q 3022 1394 3022 966 
Q 3022 478 2636 193 
Q 2250 -91 1575 -91 
Q 1294 -91 989 -36 
Q 684 19 347 128 
L 347 722 
Q 666 556 975 473 
Q 1284 391 1588 391 
Q 1994 391 2212 530 
Q 2431 669 2431 922 
Q 2431 1156 2273 1281 
Q 2116 1406 1581 1522 
L 1381 1569 
Q 847 1681 609 1914 
Q 372 2147 372 2553 
Q 372 3047 722 3315 
Q 1072 3584 1716 3584 
Q 2034 3584 2315 3537 
Q 2597 3491 2834 3397 
z
" transform="scale(0.015625)"/>
      <path id="DejaVuSans-77" d="M 269 3500 
L 844 3500 
L 1563 769 
L 2278 3500 
L 2956 3500 
L 3675 769 
L 4391 3500 
L 4966 3500 
L 4050 0 
L 3372 0 
L 2619 2869 
L 1863 0 
L 1184 0 
L 269 3500 
z
" transform="scale(0.015625)"/>
      <path id="DejaVuSans-68" d="M 3513 2113 
L 3513 0 
L 2938 0 
L 2938 2094 
Q 2938 2591 2744 2837 
Q 2550 3084 2163 3084 
Q 1697 3084 1428 2787 
Q 1159 2491 1159 1978 
L 1159 0 
L 581 0 
L 581 4863 
L 1159 4863 
L 1159 2956 
Q 1366 3272 1645 3428 
Q 1925 3584 2291 3584 
Q 2894 3584 3203 3211 
Q 3513 2838 3513 2113 
z
" transform="scale(0.015625)"/>
      <path id="DejaVuSans-63" d="M 3122 3366 
L 3122 2828 
Q 2878 2963 2633 3030 
Q 2388 3097 2138 3097 
Q 1578 3097 1268 2742 
Q 959 2388 959 1747 
Q 959 1106 1268 751 
Q 1578 397 2138 397 
Q 2388 397 2633 464 
Q 2878 531 3122 666 
L 3122 134 
Q 2881 22 2623 -34 
Q 2366 -91 2075 -91 
Q 1284 -91 818 406 
Q 353 903 353 1747 
Q 353 2603 823 3093 
Q 1294 3584 2113 3584 
Q 2378 3584 2631 3529 
Q 2884 3475 3122 3366 
z
" transform="scale(0.015625)"/>
      <path id="DejaVuSans-64" d="M 2906 2969 
L 2906 4863 
L 3481 4863 
L 3481 0 
L 2906 0 
L 2906 525 
Q 2725 213 2448 61 
Q 2172 -91 1784 -91 
Q 1150 -91 751 415 
Q 353 922 353 1747 
Q 353 2572 751 3078 
Q 1150 3584 1784 3584 
Q 2172 3584 2448 3432 
Q 2725 3281 2906 2969 
z
M 947 1747 
Q 947 1113 1208 752 
Q 1469 391 1925 391 
Q 2381 391 2643 752 
Q 2906 1113 2906 1747 
Q 2906 2381 2643 2742 
Q 2381 3103 1925 3103 
Q 1469 3103 1208 2742 
Q 947 2381 947 1747 
z
" transform="scale(0.015625)"/>
      <path id="DejaVuSans-76" d="M 191 3500 
L 800 3500 
L 1894 563 
L 2988 3500 
L 3597 3500 
L 2284 0 
L 1503 0 
L 191 3500 
z
" transform="scale(0.015625)"/>
      <path id="DejaVuSans-6c" d="M 603 4863 
L 1178 4863 
L 1178 0 
L 603 0 
L 603 4863 
z
" transform="scale(0.015625)"/>
      <path id="DejaVuSans-6d" d="M 3328 2828 
Q 3544 3216 3844 3400 
Q 4144 3584 4550 3584 
Q 5097 3584 5394 3201 
Q 5691 2819 5691 2113 
L 5691 0 
L 5113 0 
L 5113 2094 
Q 5113 2597 4934 2840 
Q 4756 3084 4391 3084 
Q 3944 3084 3684 2787 
Q 3425 2491 3425 1978 
L 3425 0 
L 2847 0 
L 2847 2094 
Q 2847 2600 2669 2842 
Q 2491 3084 2119 3084 
Q 1678 3084 1418 2786 
Q 1159 2488 1159 1978 
L 1159 0 
L 581 0 
L 581 3500 
L 1159 3500 
L 1159 2956 
Q 1356 3278 1631 3431 
Q 1906 3584 2284 3584 
Q 2666 3584 2933 3390 
Q 3200 3197 3328 2828 
z
" transform="scale(0.015625)"/>
      <path id="DejaVuSans-75" d="M 544 1381 
L 544 3500 
L 1119 3500 
L 1119 1403 
Q 1119 906 1312 657 
Q 1506 409 1894 409 
Q 2359 409 2629 706 
Q 2900 1003 2900 1516 
L 2900 3500 
L 3475 3500 
L 3475 0 
L 2900 0 
L 2900 538 
Q 2691 219 2414 64 
Q 2138 -91 1772 -91 
Q 1169 -91 856 284 
Q 544 659 544 1381 
z
M 1991 3584 
L 1991 3584 
z
" transform="scale(0.015625)"/>
     </defs>
     <use xlink:href="#DejaVuSans-4d"/>
     <use xlink:href="#DejaVuSans-65" transform="translate(86.279297 0)"/>
     <use xlink:href="#DejaVuSans-61" transform="translate(147.802734 0)"/>
     <use xlink:href="#DejaVuSans-6e" transform="translate(209.082031 0)"/>
     <use xlink:href="#DejaVuSans-20" transform="translate(272.460938 0)"/>
     <use xlink:href="#DejaVuSans-70" transform="translate(304.248047 0)"/>
     <use xlink:href="#DejaVuSans-72" transform="translate(367.724609 0)"/>
     <use xlink:href="#DejaVuSans-6f" transform="translate(406.587891 0)"/>
     <use xlink:href="#DejaVuSans-66" transform="translate(467.769531 0)"/>
     <use xlink:href="#DejaVuSans-69" transform="translate(502.974609 0)"/>
     <use xlink:href="#DejaVuSans-74" transform="translate(530.757812 0)"/>
     <use xlink:href="#DejaVuSans-20" transform="translate(569.966797 0)"/>
     <use xlink:href="#DejaVuSans-70" transform="translate(601.753906 0)"/>
     <use xlink:href="#DejaVuSans-65" transform="translate(665.230469 0)"/>
     <use xlink:href="#DejaVuSans-72" transform="translate(726.753906 0)"/>
     <use xlink:href="#DejaVuSans-20" transform="translate(767.867188 0)"/>
     <use xlink:href="#DejaVuSans-73" transform="translate(799.654297 0)"/>
     <use xlink:href="#DejaVuSans-74" transform="translate(851.753906 0)"/>
     <use xlink:href="#DejaVuSans-65" transform="translate(890.962891 0)"/>
     <use xlink:href="#DejaVuSans-70" transform="translate(952.486328 0)"/>
     <use xlink:href="#DejaVuSans-20" transform="translate(1015.962891 0)"/>
     <use xlink:href="#DejaVuSans-77" transform="translate(1047.75 0)"/>
     <use xlink:href="#DejaVuSans-69" transform="translate(1129.537109 0)"/>
     <use xlink:href="#DejaVuSans-74" transform="translate(1157.320312 0)"/>
     <use xlink:href="#DejaVuSans-68" transform="translate(1196.529297 0)"/>
     <use xlink:href="#DejaVuSans-20" transform="translate(1259.908203 0)"/>
     <use xlink:href="#DejaVuSans-63" transform="translate(1291.695312 0)"/>
     <use xlink:href="#DejaVuSans-6f" transform="translate(1346.675781 0)"/>
     <use xlink:href="#DejaVuSans-6e" transform="translate(1407.857422 0)"/>
     <use xlink:href="#DejaVuSans-66" transform="translate(1471.236328 0)"/>
     <use xlink:href="#DejaVuSans-69" transform="translate(1506.441406 0)"/>
     <use xlink:href="#DejaVuSans-64" transform="translate(1534.224609 0)"/>
     <use xlink:href="#DejaVuSans-65" transform="translate(1597.701172 0)"/>
     <use xlink:href="#DejaVuSans-6e" transform="translate(1659.224609 0)"/>
     <use xlink:href="#DejaVuSans-63" transform="translate(1722.603516 0)"/>
     <use xlink:href="#DejaVuSans-65" transform="translate(1777.583984 0)"/>
     <use xlink:href="#DejaVuSans-20" transform="translate(1839.107422 0)"/>
     <use xlink:href="#DejaVuSans-69" transform="translate(1870.894531 0)"/>
     <use xlink:href="#DejaVuSans-6e" transform="translate(1898.677734 0)"/>
     <use xlink:href="#DejaVuSans-74" transform="translate(1962.056641 0)"/>
     <use xlink:href="#DejaVuSans-65" transform="translate(2001.265625 0)"/>
     <use xlink:href="#DejaVuSans-72" transform="translate(2062.789062 0)"/>
     <use xlink:href="#DejaVuSans-76" transform="translate(2103.902344 0)"/>
     <use xlink:href="#DejaVuSans-61" transform="translate(2163.082031 0)"/>
     <use xlink:href="#DejaVuSans-6c" transform="translate(2224.361328 0)"/>
     <use xlink:href="#DejaVuSans-20" transform="translate(2252.144531 0)"/>
     <use xlink:href="#DejaVuSans-70" transform="translate(2283.931641 0)"/>
     <use xlink:href="#DejaVuSans-65" transform="translate(2347.408203 0)"/>
     <use xlink:href="#DejaVuSans-72" transform="translate(2408.931641 0)"/>
     <use xlink:href="#DejaVuSans-20" transform="translate(2450.044922 0)"/>
     <use xlink:href="#DejaVuSans-73" transform="translate(2481.832031 0)"/>
     <use xlink:href="#DejaVuSans-69" transform="translate(2533.931641 0)"/>
     <use xlink:href="#DejaVuSans-6d" transform="translate(2561.714844 0)"/>
     <use xlink:href="#DejaVuSans-75" transform="translate(2659.126953 0)"/>
     <use xlink:href="#DejaVuSans-6c" transform="translate(2722.505859 0)"/>
     <use xlink:href="#DejaVuSans-61" transform="translate(2750.289062 0)"/>
     <use xlink:href="#DejaVuSans-74" transform="translate(2811.568359 0)"/>
     <use xlink:href="#DejaVuSans-69" transform="translate(2850.777344 0)"/>
     <use xlink:href="#DejaVuSans-6f" transform="translate(2878.560547 0)"/>
     <use xlink:href="#DejaVuSans-6e" transform="translate(2939.742188 0)"/>
     <use xlink:href="#DejaVuSans-20" transform="translate(3003.121094 0)"/>
     <use xlink:href="#DejaVuSans-73" transform="translate(3034.908203 0)"/>
     <use xlink:href="#DejaVuSans-74" transform="translate(3087.007812 0)"/>
     <use xlink:href="#DejaVuSans-65" transform="translate(3126.216797 0)"/>
     <use xlink:href="#DejaVuSans-70" transform="translate(3187.740234 0)"/>
    </g>
    <!-- Base Product: OG Kush, Recipe size: 8, T0: 50.0 -->
    <g transform="translate(281.490031 37.44) scale(0.14 -0.14)">
     <defs>
      <path id="DejaVuSans-42" d="M 1259 2228 
L 1259 519 
L 2272 519 
Q 2781 519 3026 730 
Q 3272 941 3272 1375 
Q 3272 1813 3026 2020 
Q 2781 2228 2272 2228 
L 1259 2228 
z
M 1259 4147 
L 1259 2741 
L 2194 2741 
Q 2656 2741 2882 2914 
Q 3109 3088 3109 3444 
Q 3109 3797 2882 3972 
Q 2656 4147 2194 4147 
L 1259 4147 
z
M 628 4666 
L 2241 4666 
Q 2963 4666 3353 4366 
Q 3744 4066 3744 3513 
Q 3744 3084 3544 2831 
Q 3344 2578 2956 2516 
Q 3422 2416 3680 2098 
Q 3938 1781 3938 1306 
Q 3938 681 3513 340 
Q 3088 0 2303 0 
L 628 0 
L 628 4666 
z
" transform="scale(0.015625)"/>
      <path id="DejaVuSans-3a" d="M 750 794 
L 1409 794 
L 1409 0 
L 750 0 
L 750 794 
z
M 750 3309 
L 1409 3309 
L 1409 2516 
L 750 2516 
L 750 3309 
z
" transform="scale(0.015625)"/>
      <path id="DejaVuSans-4f" d="M 2522 4238 
Q 1834 4238 1429 3725 
Q 1025 3213 1025 2328 
Q 1025 1447 1429 934 
Q 1834 422 2522 422 
Q 3209 422 3611 934 
Q 4013 1447 4013 2328 
Q 4013 3213 3611 3725 
Q 3209 4238 2522 4238 
z
M 2522 4750 
Q 3503 4750 4090 4092 
Q 4678 3434 4678 2328 
Q 4678 1225 4090 567 
Q 3503 -91 2522 -91 
Q 1538 -91 948 565 
Q 359 1222 359 2328 
Q 359 3434 948 4092 
Q 1538 4750 2522 4750 
z
" transform="scale(0.015625)"/>
      <path id="DejaVuSans-47" d="M 3809 666 
L 3809 1919 
L 2778 1919 
L 2778 2438 
L 4434 2438 
L 4434 434 
Q 4069 175 3628 42 
Q 3188 -91 2688 -91 
Q 1594 -91 976 548 
Q 359 1188 359 2328 
Q 359 3472 976 4111 
Q 1594 4750 2688 4750 
Q 3144 4750 3555 4637 
Q 3966 4525 4313 4306 
L 4313 3634 
Q 3963 3931 3569 4081 
Q 3175 4231 2741 4231 
Q 1884 4231 1454 3753 
Q 1025 3275 1025 2328 
Q 1025 1384 1454 906 
Q 1884 428 2741 428 
Q 3075 428 3337 486 
Q 3600 544 3809 666 
z
" transform="scale(0.015625)"/>
      <path id="DejaVuSans-4b" d="M 628 4666 
L 1259 4666 
L 1259 2694 
L 3353 4666 
L 4166 4666 
L 1850 2491 
L 4331 0 
L 3500 0 
L 1259 2247 
L 1259 0 
L 628 0 
L 628 4666 
z
" transform="scale(0.015625)"/>
      <path id="DejaVuSans-2c" d="M 750 794 
L 1409 794 
L 1409 256 
L 897 -744 
L 494 -744 
L 750 256 
L 750 794 
z
" transform="scale(0.015625)"/>
      <path id="DejaVuSans-52" d="M 2841 2188 
Q 3044 2119 3236 1894 
Q 3428 1669 3622 1275 
L 4263 0 
L 3584 0 
L 2988 1197 
Q 2756 1666 2539 1819 
Q 2322 1972 1947 1972 
L 1259 1972 
L 1259 0 
L 628 0 
L 628 4666 
L 2053 4666 
Q 2853 4666 3247 4331 
Q 3641 3997 3641 3322 
Q 3641 2881 3436 2590 
Q 3231 2300 2841 2188 
z
M 1259 4147 
L 1259 2491 
L 2053 2491 
Q 2509 2491 2742 2702 
Q 2975 2913 2975 3322 
Q 2975 3731 2742 3939 
Q 2509 4147 2053 4147 
L 1259 4147 
z
" transform="scale(0.015625)"/>
      <path id="DejaVuSans-7a" d="M 353 3500 
L 3084 3500 
L 3084 2975 
L 922 459 
L 3084 459 
L 3084 0 
L 275 0 
L 275 525 
L 2438 3041 
L 353 3041 
L 353 3500 
z
" transform="scale(0.015625)"/>
      <path id="DejaVuSans-54" d="M -19 4666 
L 3928 4666 
L 3928 4134 
L 2272 4134 
L 2272 0 
L 1638 0 
L 1638 4134 
L -19 4134 
L -19 4666 
z
" transform="scale(0.015625)"/>
      <path id="DejaVuSans-2e" d="M 684 794 
L 1344 794 
L 1344 0 
L 684 0 
L 684 794 
z
" transform="scale(0.015625)"/>
     </defs>
     <use xlink:href="#DejaVuSans-42"/>
     <use xlink:href="#DejaVuSans-61" transform="translate(68.603516 0)"/>
     <use xlink:href="#DejaVuSans-73" transform="translate(129.882812 0)"/>
     <use xlink:href="#DejaVuSans-65" transform="translate(181.982422 0)"/>
     <use xlink:href="#DejaVuSans-20" transform="translate(243.505859 0)"/>
     <use xlink:href="#DejaVuSans-50" transform="translate(275.292969 0)"/>
     <use xlink:href="#DejaVuSans-72" transform="translate(333.845703 0)"/>
     <use xlink:href="#DejaVuSans-6f" transform="translate(372.708984 0)"/>
     <use xlink:href="#DejaVuSans-64" transform="translate(433.890625 0)"/>
     <use xlink:href="#DejaVuSans-75" transform="translate(497.367188 0)"/>
     <use xlink:href="#DejaVuSans-63" transform="translate(560.746094 0)"/>
     <use xlink:href="#DejaVuSans-74" transform="translate(615.726562 0)"/>
     <use xlink:href="#DejaVuSans-3a" transform="translate(654.935547 0)"/>
     <use xlink:href="#DejaVuSans-20" transform="translate(688.626953 0)"/>
     <use xlink:href="#DejaVuSans-4f" transform="translate(720.414062 0)"/>
     <use xlink:href="#DejaVuSans-47" transform="translate(799.125 0)"/>
     <use xlink:href="#DejaVuSans-20" transform="translate(876.615234 0)"/>
     <use xlink:href="#DejaVuSans-4b" transform="translate(908.402344 0)"/>
     <use xlink:href="#DejaVuSans-75" transform="translate(968.978516 0)"/>
     <use xlink:href="#DejaVuSans-73" transform="translate(1032.357422 0)"/>
     <use xlink:href="#DejaVuSans-68" transform="translate(1084.457031 0)"/>
     <use xlink:href="#DejaVuSans-2c" transform="translate(1147.835938 0)"/>
     <use xlink:href="#DejaVuSans-20" transform="translate(1179.623047 0)"/>
     <use xlink:href="#DejaVuSans-52" transform="translate(1211.410156 0)"/>
     <use xlink:href="#DejaVuSans-65" transform="translate(1276.392578 0)"/>
     <use xlink:href="#DejaVuSans-63" transform="translate(1337.916016 0)"/>
     <use xlink:href="#DejaVuSans-69" transform="translate(1392.896484 0)"/>
     <use xlink:href="#DejaVuSans-70" transform="translate(1420.679688 0)"/>
     <use xlink:href="#DejaVuSans-65" transform="translate(1484.15625 0)"/>
     <use xlink:href="#DejaVuSans-20" transform="translate(1545.679688 0)"/>
     <use xlink:href="#DejaVuSans-73" transform="translate(1577.466797 0)"/>
     <use xlink:href="#DejaVuSans-69" transform="translate(1629.566406 0)"/>
     <use xlink:href="#DejaVuSans-7a" transform="translate(1657.349609 0)"/>
     <use xlink:href="#DejaVuSans-65" transform="translate(1709.839844 0)"/>
     <use xlink:href="#DejaVuSans-3a" transform="translate(1771.363281 0)"/>
     <use xlink:href="#DejaVuSans-20" transform="translate(1805.054688 0)"/>
     <use xlink:href="#DejaVuSans-38" transform="translate(1836.841797 0)"/>
     <use xlink:href="#DejaVuSans-2c" transform="translate(1900.464844 0)"/>
     <use xlink:href="#DejaVuSans-20" transform="translate(1932.251953 0)"/>
     <use xlink:href="#DejaVuSans-54" transform="translate(1964.039062 0)"/>
     <use xlink:href="#DejaVuSans-30" transform="translate(2025.123047 0)"/>
     <use xlink:href="#DejaVuSans-3a" transform="translate(2088.746094 0)"/>
     <use xlink:href="#DejaVuSans-20" transform="translate(2122.4375 0)"/>
     <use xlink:href="#DejaVuSans-35" transform="translate(2154.224609 0)"/>
     <use xlink:href="#DejaVuSans-30" transform="translate(2217.847656 0)"/>
     <use xlink:href="#DejaVuSans-2e" transform="translate(2281.470703 0)"/>
     <use xlink:href="#DejaVuSans-30" transform="translate(2313.257812 0)"/>
    </g>
   </g>
  </g>
 </g>
 <defs>
  <clipPath id="pad28d4f87f">
   <rect x="50.87" y="43.44" width="793.996" height="346.6"/>
  </clipPath>
 </defs>
</svg>
