<?xml version="1.0" encoding="utf-8" standalone="no"?>
<!DOCTYPE svg PUBLIC "-//W3C//DTD SVG 1.1//EN"
  "http://www.w3.org/Graphics/SVG/1.1/DTD/svg11.dtd">
<svg xmlns:xlink="http://www.w3.org/1999/xlink" width="864pt" height="432pt" viewBox="0 0 864 432" xmlns="http://www.w3.org/2000/svg" version="1.1">
 <metadata>
  <rdf:RDF xmlns:dc="http://purl.org/dc/elements/1.1/" xmlns:cc="http://creativecommons.org/ns#" xmlns:rdf="http://www.w3.org/1999/02/22-rdf-syntax-ns#">
   <cc:Work>
    <dc:type rdf:resource="http://purl.org/dc/dcmitype/StillImage"/>
    <dc:date>2025-05-24T02:02:45.082422</dc:date>
    <dc:format>image/svg+xml</dc:format>
    <dc:creator>
     <cc:Agent>
      <dc:title>Matplotlib v3.10.3, https://matplotlib.org/</dc:title>
     </cc:Agent>
    </dc:creator>
   </cc:Work>
  </rdf:RDF>
 </metadata>
 <defs>
  <style type="text/css">*{stroke-linejoin: round; stroke-linecap: butt}</style>
 </defs>
 <g id="figure_1">
  <g id="patch_1">
   <path d="M 0 432 
L 864 432 
L 864 0 
L 0 0 
z
" style="fill: #ffffff"/>
  </g>
  <g id="axes_1">
   <g id="patch_2">
    <path d="M 50.87 390.04 
L 844.866 390.04 
L 844.866 43.44 
L 50.87 43.44 
z
" style="fill: #ffffff"/>
   </g>
   <g id="FillBetweenPolyCollection_1">
    <defs>
     <path id="mef300d5ba6" d="M 52.193327 -300.878914 
L 52.193327 -57.714545 
L 54.83998 -58.463123 
L 57.486633 -74.154103 
L 60.133287 -88.748672 
L 62.77994 -99.684157 
L 65.426593 -109.413119 
L 68.073247 -119.037767 
L 70.7199 -127.03667 
L 73.366553 -134.034268 
L 76.013207 -140.004295 
L 78.65986 -145.868787 
L 81.306513 -150.498681 
L 83.953167 -154.816719 
L 86.59982 -158.866307 
L 89.246473 -162.80874 
L 91.893127 -166.298489 
L 94.53978 -169.656113 
L 97.186433 -173.010548 
L 99.833087 -175.493414 
L 102.47974 -178.152286 
L 105.126393 -180.376552 
L 107.773047 -182.731702 
L 110.4197 -184.815845 
L 113.066353 -186.634853 
L 115.713007 -188.687322 
L 118.35966 -190.319907 
L 121.006313 -192.222152 
L 123.652967 -193.923893 
L 126.29962 -195.524425 
L 128.946273 -196.925422 
L 131.592927 -198.258272 
L 134.23958 -199.422736 
L 136.886233 -200.900739 
L 139.532887 -202.052764 
L 142.17954 -202.9788 
L 144.826193 -204.158353 
L 147.472847 -205.220302 
L 150.1195 -206.461646 
L 152.766153 -207.343949 
L 155.412807 -208.487871 
L 158.05946 -209.410203 
L 160.706113 -210.231872 
L 163.352767 -211.259917 
L 165.99942 -212.13077 
L 168.646073 -212.926869 
L 171.292727 -213.666776 
L 173.93938 -214.499726 
L 176.586033 -214.941351 
L 179.232687 -215.700388 
L 181.87934 -216.441895 
L 184.525993 -217.276171 
L 187.172647 -217.857539 
L 189.8193 -218.595194 
L 192.465953 -219.251318 
L 195.112607 -219.869685 
L 197.75926 -220.473004 
L 200.405913 -221.107177 
L 203.052567 -221.67455 
L 205.69922 -222.13076 
L 208.345873 -222.8331 
L 210.992527 -223.411396 
L 213.63918 -223.900079 
L 216.285833 -224.348291 
L 218.932487 -224.714593 
L 221.57914 -225.288722 
L 224.225793 -225.832419 
L 226.872447 -226.297005 
L 229.5191 -226.768788 
L 232.165753 -227.359901 
L 234.812407 -227.842144 
L 237.45906 -228.227198 
L 240.105713 -228.729456 
L 242.752367 -229.0616 
L 245.39902 -229.329471 
L 248.045673 -229.847492 
L 250.692327 -230.238565 
L 253.33898 -230.581316 
L 255.985633 -231.028392 
L 258.632287 -231.41816 
L 261.27894 -231.699921 
L 263.925593 -232.006832 
L 266.572247 -232.336493 
L 269.2189 -232.620464 
L 271.865553 -233.051629 
L 274.512207 -233.364622 
L 277.15886 -233.715497 
L 279.805513 -234.069676 
L 282.452167 -234.411292 
L 285.09882 -234.667124 
L 287.745473 -234.974772 
L 290.392127 -235.485574 
L 293.03878 -235.851623 
L 295.685433 -236.110465 
L 298.332087 -236.326437 
L 300.97874 -236.555668 
L 303.625393 -236.854013 
L 306.272047 -237.205456 
L 308.9187 -237.519796 
L 311.565353 -237.885909 
L 314.212007 -238.159525 
L 316.85866 -238.430805 
L 319.505313 -238.742367 
L 322.151967 -239.01411 
L 324.79862 -239.286001 
L 327.445273 -239.471646 
L 330.091927 -239.753154 
L 332.73858 -240.133199 
L 335.385233 -240.515075 
L 338.031887 -240.734119 
L 340.67854 -240.882134 
L 343.325193 -241.152236 
L 345.971847 -241.41173 
L 348.6185 -241.598933 
L 351.265153 -241.856765 
L 353.911807 -242.049144 
L 356.55846 -242.332084 
L 359.205113 -242.671405 
L 361.851767 -242.901456 
L 364.49842 -243.13014 
L 367.145073 -243.397569 
L 369.791727 -243.527211 
L 372.43838 -243.759514 
L 375.085033 -244.053229 
L 377.731687 -244.253522 
L 380.37834 -244.459813 
L 383.024993 -244.603576 
L 385.671647 -244.753001 
L 388.3183 -244.894471 
L 390.964953 -245.038972 
L 393.611607 -245.280325 
L 396.25826 -245.568315 
L 398.904913 -245.884297 
L 401.551567 -246.142086 
L 404.19822 -246.398361 
L 406.844873 -246.551532 
L 409.491527 -246.740586 
L 412.13818 -246.93707 
L 414.784833 -247.092072 
L 417.431487 -247.327027 
L 420.07814 -247.538117 
L 422.724793 -247.673525 
L 425.371447 -247.863779 
L 428.0181 -248.023811 
L 430.664753 -248.209477 
L 433.311407 -248.401267 
L 435.95806 -248.542337 
L 438.604713 -248.66817 
L 441.251367 -248.863264 
L 443.89802 -249.099651 
L 446.544673 -249.267596 
L 449.191327 -249.428533 
L 451.83798 -249.534478 
L 454.484633 -249.659658 
L 457.131287 -249.734876 
L 459.77794 -249.889941 
L 462.424593 -250.137608 
L 465.071247 -250.333628 
L 467.7179 -250.560144 
L 470.364553 -250.692817 
L 473.011207 -250.829888 
L 475.65786 -250.93297 
L 478.304513 -251.074735 
L 480.951167 -251.209133 
L 483.59782 -251.277742 
L 486.244473 -251.503669 
L 488.891127 -251.736351 
L 491.53778 -251.860395 
L 494.184433 -252.041662 
L 496.831087 -252.121342 
L 499.47774 -252.169894 
L 502.124393 -252.280111 
L 504.771047 -252.404344 
L 507.4177 -252.530514 
L 510.064353 -252.624041 
L 512.711007 -252.809939 
L 515.35766 -252.979462 
L 518.004313 -253.071811 
L 520.650967 -253.240009 
L 523.29762 -253.414563 
L 525.944273 -253.553886 
L 528.590927 -253.6576 
L 531.23758 -253.851053 
L 533.884233 -254.022618 
L 536.530887 -254.147293 
L 539.17754 -254.286637 
L 541.824193 -254.387005 
L 544.470847 -254.531905 
L 547.1175 -254.686149 
L 549.764153 -254.862513 
L 552.410807 -254.962312 
L 555.05746 -255.156565 
L 557.704113 -255.283597 
L 560.350767 -255.427003 
L 562.99742 -255.574092 
L 565.644073 -255.638429 
L 568.290727 -255.700704 
L 570.93738 -255.861409 
L 573.584033 -255.967501 
L 576.230687 -256.081569 
L 578.87734 -256.187808 
L 581.523993 -256.250672 
L 584.170647 -256.350913 
L 586.8173 -256.488847 
L 589.463953 -256.591298 
L 592.110607 -256.761453 
L 594.75726 -256.865188 
L 597.403913 -256.972248 
L 600.050567 -257.052222 
L 602.69722 -257.180117 
L 605.343873 -257.301088 
L 607.990527 -257.426248 
L 610.63718 -257.603769 
L 613.283833 -257.63096 
L 615.930487 -257.755319 
L 618.57714 -257.81269 
L 621.223793 -257.886603 
L 623.870447 -258.046509 
L 626.5171 -258.135806 
L 629.163753 -258.343781 
L 631.810407 -258.469108 
L 634.45706 -258.578357 
L 637.103713 -258.762087 
L 639.750367 -258.925655 
L 642.39702 -259.032525 
L 645.043673 -259.117298 
L 647.690327 -259.236732 
L 650.33698 -259.342487 
L 652.983633 -259.395607 
L 655.630287 -259.487282 
L 658.27694 -259.557491 
L 660.923593 -259.681956 
L 663.570247 -259.774578 
L 666.2169 -259.805074 
L 668.863553 -259.940019 
L 671.510207 -260.054066 
L 674.15686 -260.073513 
L 676.803513 -260.213741 
L 679.450167 -260.237417 
L 682.09682 -260.311499 
L 684.743473 -260.367165 
L 687.390127 -260.427587 
L 690.03678 -260.485463 
L 692.683433 -260.618788 
L 695.330087 -260.684198 
L 697.97674 -260.733046 
L 700.623393 -260.798477 
L 703.270047 -260.847998 
L 705.9167 -260.932939 
L 708.563353 -260.999633 
L 711.210007 -261.080764 
L 713.85666 -261.151604 
L 716.503313 -261.22941 
L 719.149967 -261.347225 
L 721.79662 -261.353707 
L 724.443273 -261.430061 
L 727.089927 -261.541667 
L 729.73658 -261.593313 
L 732.383233 -261.635931 
L 735.029887 -261.72184 
L 737.67654 -261.840664 
L 740.323193 -261.898582 
L 742.969847 -261.967339 
L 745.6165 -262.120615 
L 748.263153 -262.221888 
L 750.909807 -262.271977 
L 753.55646 -262.357949 
L 756.203113 -262.388023 
L 758.849767 -262.462504 
L 761.49642 -262.575352 
L 764.143073 -262.579982 
L 766.789727 -262.625988 
L 769.43638 -262.765837 
L 772.083033 -262.850862 
L 774.729687 -262.98345 
L 777.37634 -263.047935 
L 780.022993 -263.072895 
L 782.669647 -263.123826 
L 785.3163 -263.222236 
L 787.962953 -263.286678 
L 790.609607 -263.312417 
L 793.25626 -263.352088 
L 795.902913 -263.444732 
L 798.549567 -263.54893 
L 801.19622 -263.620233 
L 803.842873 -263.746739 
L 806.489527 -263.75339 
L 809.13618 -263.892397 
L 811.782833 -263.986451 
L 814.429487 -264.029847 
L 817.07614 -264.076695 
L 819.722793 -264.126363 
L 822.369447 -264.213156 
L 825.0161 -264.290815 
L 827.662753 -264.424371 
L 830.309407 -264.500978 
L 832.95606 -264.599535 
L 835.602713 -264.628158 
L 838.249367 -264.67972 
L 840.89602 -264.737848 
L 843.542673 -264.845203 
L 843.542673 -372.780326 
L 843.542673 -372.780326 
L 840.89602 -372.805455 
L 838.249367 -372.75444 
L 835.602713 -372.724428 
L 832.95606 -372.667605 
L 830.309407 -372.675686 
L 827.662753 -372.620041 
L 825.0161 -372.632627 
L 822.369447 -372.616337 
L 819.722793 -372.598532 
L 817.07614 -372.566627 
L 814.429487 -372.529376 
L 811.782833 -372.472173 
L 809.13618 -372.469269 
L 806.489527 -372.468975 
L 803.842873 -372.37149 
L 801.19622 -372.365892 
L 798.549567 -372.312941 
L 795.902913 -372.334744 
L 793.25626 -372.325484 
L 790.609607 -372.269208 
L 787.962953 -372.212805 
L 785.3163 -372.188308 
L 782.669647 -372.181868 
L 780.022993 -372.163306 
L 777.37634 -372.141502 
L 774.729687 -372.080469 
L 772.083033 -372.087288 
L 769.43638 -372.05955 
L 766.789727 -372.087162 
L 764.143073 -372.038336 
L 761.49642 -371.964549 
L 758.849767 -371.983953 
L 756.203113 -371.974356 
L 753.55646 -371.894467 
L 750.909807 -371.871274 
L 748.263153 -371.806411 
L 745.6165 -371.753965 
L 742.969847 -371.783682 
L 740.323193 -371.70215 
L 737.67654 -371.627606 
L 735.029887 -371.6311 
L 732.383233 -371.594943 
L 729.73658 -371.556429 
L 727.089927 -371.488999 
L 724.443273 -371.479317 
L 721.79662 -371.448717 
L 719.149967 -371.331744 
L 716.503313 -371.340121 
L 713.85666 -371.308805 
L 711.210007 -371.254422 
L 708.563353 -371.247688 
L 705.9167 -371.19541 
L 703.270047 -371.12579 
L 700.623393 -371.050741 
L 697.97674 -371.008776 
L 695.330087 -370.929728 
L 692.683433 -370.862802 
L 690.03678 -370.872483 
L 687.390127 -370.768307 
L 684.743473 -370.676 
L 682.09682 -370.580368 
L 679.450167 -370.512642 
L 676.803513 -370.400974 
L 674.15686 -370.405856 
L 671.510207 -370.29162 
L 668.863553 -370.265691 
L 666.2169 -370.237869 
L 663.570247 -370.167239 
L 660.923593 -370.12157 
L 658.27694 -370.091727 
L 655.630287 -370.025769 
L 652.983633 -369.979426 
L 650.33698 -369.893644 
L 647.690327 -369.857655 
L 645.043673 -369.837157 
L 642.39702 -369.783238 
L 639.750367 -369.746702 
L 637.103713 -369.76497 
L 634.45706 -369.74043 
L 631.810407 -369.700443 
L 629.163753 -369.629982 
L 626.5171 -369.676662 
L 623.870447 -369.624384 
L 621.223793 -369.630108 
L 618.57714 -369.570549 
L 615.930487 -369.461448 
L 613.283833 -369.411401 
L 610.63718 -369.32928 
L 607.990527 -369.321156 
L 605.343873 -369.2677 
L 602.69722 -369.248675 
L 600.050567 -369.214665 
L 597.403913 -369.142351 
L 594.75726 -369.080519 
L 592.110607 -369.031314 
L 589.463953 -369.028157 
L 586.8173 -368.909248 
L 584.170647 -368.876838 
L 581.523993 -368.810586 
L 578.87734 -368.743071 
L 576.230687 -368.680396 
L 573.584033 -368.595919 
L 570.93738 -368.547513 
L 568.290727 -368.47078 
L 565.644073 -368.376074 
L 562.99742 -368.257418 
L 560.350767 -368.179717 
L 557.704113 -368.128828 
L 555.05746 -368.04031 
L 552.410807 -368.020821 
L 549.764153 -367.934702 
L 547.1175 -367.938617 
L 544.470847 -367.889201 
L 541.824193 -367.843911 
L 539.17754 -367.748236 
L 536.530887 -367.718941 
L 533.884233 -367.665569 
L 531.23758 -367.622972 
L 528.590927 -367.577892 
L 525.944273 -367.483354 
L 523.29762 -367.453764 
L 520.650967 -367.414198 
L 518.004313 -367.373243 
L 515.35766 -367.239391 
L 512.711007 -367.21742 
L 510.064353 -367.157229 
L 507.4177 -367.01256 
L 504.771047 -366.908131 
L 502.124393 -366.851896 
L 499.47774 -366.815698 
L 496.831087 -366.675701 
L 494.184433 -366.555319 
L 491.53778 -366.499632 
L 488.891127 -366.381902 
L 486.244473 -366.391415 
L 483.59782 -366.332655 
L 480.951167 -366.228773 
L 478.304513 -366.187944 
L 475.65786 -366.120471 
L 473.011207 -366.031153 
L 470.364553 -365.925629 
L 467.7179 -365.802469 
L 465.071247 -365.772416 
L 462.424593 -365.686044 
L 459.77794 -365.694336 
L 457.131287 -365.642774 
L 454.484633 -365.541123 
L 451.83798 -365.398096 
L 449.191327 -365.234949 
L 446.544673 -365.143947 
L 443.89802 -365.061531 
L 441.251367 -365.020997 
L 438.604713 -364.94338 
L 435.95806 -364.823967 
L 433.311407 -364.663724 
L 430.664753 -364.610352 
L 428.0181 -364.521118 
L 425.371447 -364.445647 
L 422.724793 -364.392191 
L 420.07814 -364.241545 
L 417.431487 -364.161656 
L 414.784833 -364.121037 
L 412.13818 -364.011389 
L 409.491527 -363.928132 
L 406.844873 -363.821556 
L 404.19822 -363.708329 
L 401.551567 -363.615223 
L 398.904913 -363.513782 
L 396.25826 -363.447951 
L 393.611607 -363.40889 
L 390.964953 -363.356738 
L 388.3183 -363.195317 
L 385.671647 -362.993783 
L 383.024993 -362.826595 
L 380.37834 -362.658229 
L 377.731687 -362.588188 
L 375.085033 -362.436617 
L 372.43838 -362.336144 
L 369.791727 -362.244595 
L 367.145073 -362.033716 
L 364.49842 -361.939599 
L 361.851767 -361.799392 
L 359.205113 -361.634183 
L 356.55846 -361.545496 
L 353.911807 -361.492124 
L 351.265153 -361.353558 
L 348.6185 -361.270849 
L 345.971847 -361.096926 
L 343.325193 -361.006766 
L 340.67854 -360.916648 
L 338.031887 -360.667971 
L 335.385233 -360.545653 
L 332.73858 -360.46711 
L 330.091927 -360.456208 
L 327.445273 -360.311876 
L 324.79862 -360.159294 
L 322.151967 -360.074606 
L 319.505313 -359.918825 
L 316.85866 -359.840493 
L 314.212007 -359.707441 
L 311.565353 -359.573169 
L 308.9187 -359.484103 
L 306.272047 -359.370456 
L 303.625393 -359.290651 
L 300.97874 -359.103638 
L 298.332087 -358.892296 
L 295.685433 -358.628761 
L 293.03878 -358.426637 
L 290.392127 -358.293038 
L 287.745473 -358.265047 
L 285.09882 -358.143655 
L 282.452167 -357.846215 
L 279.805513 -357.701504 
L 277.15886 -357.566454 
L 274.512207 -357.360878 
L 271.865553 -357.220377 
L 269.2189 -357.058471 
L 266.572247 -356.747983 
L 263.925593 -356.539798 
L 261.27894 -356.268791 
L 258.632287 -356.082705 
L 255.985633 -355.920694 
L 253.33898 -355.776762 
L 250.692327 -355.486877 
L 248.045673 -355.296623 
L 245.39902 -355.189879 
L 242.752367 -354.860344 
L 240.105713 -354.575974 
L 237.45906 -354.483393 
L 234.812407 -354.115976 
L 232.165753 -353.813506 
L 229.5191 -353.67534 
L 226.872447 -353.473869 
L 224.225793 -353.20926 
L 221.57914 -352.858343 
L 218.932487 -352.624861 
L 216.285833 -352.299725 
L 213.63918 -351.910356 
L 210.992527 -351.545843 
L 208.345873 -351.265429 
L 205.69922 -351.151067 
L 203.052567 -350.735518 
L 200.405913 -350.363786 
L 197.75926 -350.102544 
L 195.112607 -349.739063 
L 192.465953 -349.290787 
L 189.8193 -348.997578 
L 187.172647 -348.768642 
L 184.525993 -348.35989 
L 181.87934 -348.163259 
L 179.232687 -347.886023 
L 176.586033 -347.494488 
L 173.93938 -346.993514 
L 171.292727 -346.6479 
L 168.646073 -346.238412 
L 165.99942 -345.776562 
L 163.352767 -345.449195 
L 160.706113 -345.158384 
L 158.05946 -344.66465 
L 155.412807 -344.240136 
L 152.766153 -343.781674 
L 150.1195 -343.297811 
L 147.472847 -342.898004 
L 144.826193 -342.533175 
L 142.17954 -342.024856 
L 139.532887 -341.408067 
L 136.886233 -340.939988 
L 134.23958 -340.490955 
L 131.592927 -339.906051 
L 128.946273 -339.33893 
L 126.29962 -338.603569 
L 123.652967 -338.173814 
L 121.006313 -337.619615 
L 118.35966 -337.236077 
L 115.713007 -336.471547 
L 113.066353 -335.961481 
L 110.4197 -335.056912 
L 107.773047 -334.322183 
L 105.126393 -333.76569 
L 102.47974 -332.538994 
L 99.833087 -331.849934 
L 97.186433 -330.932696 
L 94.53978 -330.31999 
L 91.893127 -329.351463 
L 89.246473 -328.209476 
L 86.59982 -327.362573 
L 83.953167 -326.228668 
L 81.306513 -324.836679 
L 78.65986 -323.113828 
L 76.013207 -322.105904 
L 73.366553 -320.803885 
L 70.7199 -319.517777 
L 68.073247 -317.964472 
L 65.426593 -316.124481 
L 62.77994 -313.463536 
L 60.133287 -309.957434 
L 57.486633 -306.446492 
L 54.83998 -301.766036 
L 52.193327 -300.878914 
z
" style="stroke: #0000ff; stroke-opacity: 0.2"/>
    </defs>
    <g clip-path="url(#p965c922a77)">
     <use xlink:href="#mef300d5ba6" x="0" y="432" style="fill: #0000ff; fill-opacity: 0.2; stroke: #0000ff; stroke-opacity: 0.2"/>
    </g>
   </g>
   <g id="matplotlib.axis_1">
    <g id="xtick_1">
     <g id="line2d_1">
      <defs>
       <path id="m829d39070a" d="M 0 0 
L 0 3.5 
" style="stroke: #000000; stroke-width: 0.8"/>
      </defs>
      <g>
       <use xlink:href="#m829d39070a" x="181.87934" y="390.04" style="stroke: #000000; stroke-width: 0.8"/>
      </g>
     </g>
     <g id="text_1">
      <!-- 50 -->
      <g transform="translate(175.51684 404.638438) scale(0.1 -0.1)">
       <defs>
        <path id="DejaVuSans-35" d="M 691 4666 
L 3169 4666 
L 3169 4134 
L 1269 4134 
L 1269 2991 
Q 1406 3038 1543 3061 
Q 1681 3084 1819 3084 
Q 2600 3084 3056 2656 
Q 3513 2228 3513 1497 
Q 3513 744 3044 326 
Q 2575 -91 1722 -91 
Q 1428 -91 1123 -41 
Q 819 9 494 109 
L 494 744 
Q 775 591 1075 516 
Q 1375 441 1709 441 
Q 2250 441 2565 725 
Q 2881 1009 2881 1497 
Q 2881 1984 2565 2268 
Q 2250 2553 1709 2553 
Q 1456 2553 1204 2497 
Q 953 2441 691 2322 
L 691 4666 
z
" transform="scale(0.015625)"/>
        <path id="DejaVuSans-30" d="M 2034 4250 
Q 1547 4250 1301 3770 
Q 1056 3291 1056 2328 
Q 1056 1369 1301 889 
Q 1547 409 2034 409 
Q 2525 409 2770 889 
Q 3016 1369 3016 2328 
Q 3016 3291 2770 3770 
Q 2525 4250 2034 4250 
z
M 2034 4750 
Q 2819 4750 3233 4129 
Q 3647 3509 3647 2328 
Q 3647 1150 3233 529 
Q 2819 -91 2034 -91 
Q 1250 -91 836 529 
Q 422 1150 422 2328 
Q 422 3509 836 4129 
Q 1250 4750 2034 4750 
z
" transform="scale(0.015625)"/>
       </defs>
       <use xlink:href="#DejaVuSans-35"/>
       <use xlink:href="#DejaVuSans-30" transform="translate(63.623047 0)"/>
      </g>
     </g>
    </g>
    <g id="xtick_2">
     <g id="line2d_2">
      <g>
       <use xlink:href="#m829d39070a" x="314.212007" y="390.04" style="stroke: #000000; stroke-width: 0.8"/>
      </g>
     </g>
     <g id="text_2">
      <!-- 100 -->
      <g transform="translate(304.668257 404.638438) scale(0.1 -0.1)">
       <defs>
        <path id="DejaVuSans-31" d="M 794 531 
L 1825 531 
L 1825 4091 
L 703 3866 
L 703 4441 
L 1819 4666 
L 2450 4666 
L 2450 531 
L 3481 531 
L 3481 0 
L 794 0 
L 794 531 
z
" transform="scale(0.015625)"/>
       </defs>
       <use xlink:href="#DejaVuSans-31"/>
       <use xlink:href="#DejaVuSans-30" transform="translate(63.623047 0)"/>
       <use xlink:href="#DejaVuSans-30" transform="translate(127.246094 0)"/>
      </g>
     </g>
    </g>
    <g id="xtick_3">
     <g id="line2d_3">
      <g>
       <use xlink:href="#m829d39070a" x="446.544673" y="390.04" style="stroke: #000000; stroke-width: 0.8"/>
      </g>
     </g>
     <g id="text_3">
      <!-- 150 -->
      <g transform="translate(437.000923 404.638438) scale(0.1 -0.1)">
       <use xlink:href="#DejaVuSans-31"/>
       <use xlink:href="#DejaVuSans-35" transform="translate(63.623047 0)"/>
       <use xlink:href="#DejaVuSans-30" transform="translate(127.246094 0)"/>
      </g>
     </g>
    </g>
    <g id="xtick_4">
     <g id="line2d_4">
      <g>
       <use xlink:href="#m829d39070a" x="578.87734" y="390.04" style="stroke: #000000; stroke-width: 0.8"/>
      </g>
     </g>
     <g id="text_4">
      <!-- 200 -->
      <g transform="translate(569.33359 404.638438) scale(0.1 -0.1)">
       <defs>
        <path id="DejaVuSans-32" d="M 1228 531 
L 3431 531 
L 3431 0 
L 469 0 
L 469 531 
Q 828 903 1448 1529 
Q 2069 2156 2228 2338 
Q 2531 2678 2651 2914 
Q 2772 3150 2772 3378 
Q 2772 3750 2511 3984 
Q 2250 4219 1831 4219 
Q 1534 4219 1204 4116 
Q 875 4013 500 3803 
L 500 4441 
Q 881 4594 1212 4672 
Q 1544 4750 1819 4750 
Q 2544 4750 2975 4387 
Q 3406 4025 3406 3419 
Q 3406 3131 3298 2873 
Q 3191 2616 2906 2266 
Q 2828 2175 2409 1742 
Q 1991 1309 1228 531 
z
" transform="scale(0.015625)"/>
       </defs>
       <use xlink:href="#DejaVuSans-32"/>
       <use xlink:href="#DejaVuSans-30" transform="translate(63.623047 0)"/>
       <use xlink:href="#DejaVuSans-30" transform="translate(127.246094 0)"/>
      </g>
     </g>
    </g>
    <g id="xtick_5">
     <g id="line2d_5">
      <g>
       <use xlink:href="#m829d39070a" x="711.210007" y="390.04" style="stroke: #000000; stroke-width: 0.8"/>
      </g>
     </g>
     <g id="text_5">
      <!-- 250 -->
      <g transform="translate(701.666257 404.638438) scale(0.1 -0.1)">
       <use xlink:href="#DejaVuSans-32"/>
       <use xlink:href="#DejaVuSans-35" transform="translate(63.623047 0)"/>
       <use xlink:href="#DejaVuSans-30" transform="translate(127.246094 0)"/>
      </g>
     </g>
    </g>
    <g id="xtick_6">
     <g id="line2d_6">
      <g>
       <use xlink:href="#m829d39070a" x="843.542673" y="390.04" style="stroke: #000000; stroke-width: 0.8"/>
      </g>
     </g>
     <g id="text_6">
      <!-- 300 -->
      <g transform="translate(833.998923 404.638438) scale(0.1 -0.1)">
       <defs>
        <path id="DejaVuSans-33" d="M 2597 2516 
Q 3050 2419 3304 2112 
Q 3559 1806 3559 1356 
Q 3559 666 3084 287 
Q 2609 -91 1734 -91 
Q 1441 -91 1130 -33 
Q 819 25 488 141 
L 488 750 
Q 750 597 1062 519 
Q 1375 441 1716 441 
Q 2309 441 2620 675 
Q 2931 909 2931 1356 
Q 2931 1769 2642 2001 
Q 2353 2234 1838 2234 
L 1294 2234 
L 1294 2753 
L 1863 2753 
Q 2328 2753 2575 2939 
Q 2822 3125 2822 3475 
Q 2822 3834 2567 4026 
Q 2313 4219 1838 4219 
Q 1578 4219 1281 4162 
Q 984 4106 628 3988 
L 628 4550 
Q 988 4650 1302 4700 
Q 1616 4750 1894 4750 
Q 2613 4750 3031 4423 
Q 3450 4097 3450 3541 
Q 3450 3153 3228 2886 
Q 3006 2619 2597 2516 
z
" transform="scale(0.015625)"/>
       </defs>
       <use xlink:href="#DejaVuSans-33"/>
       <use xlink:href="#DejaVuSans-30" transform="translate(63.623047 0)"/>
       <use xlink:href="#DejaVuSans-30" transform="translate(127.246094 0)"/>
      </g>
     </g>
    </g>
    <g id="text_7">
     <!-- Step -->
     <g transform="translate(436.482844 418.316562) scale(0.1 -0.1)">
      <defs>
       <path id="DejaVuSans-53" d="M 3425 4513 
L 3425 3897 
Q 3066 4069 2747 4153 
Q 2428 4238 2131 4238 
Q 1616 4238 1336 4038 
Q 1056 3838 1056 3469 
Q 1056 3159 1242 3001 
Q 1428 2844 1947 2747 
L 2328 2669 
Q 3034 2534 3370 2195 
Q 3706 1856 3706 1288 
Q 3706 609 3251 259 
Q 2797 -91 1919 -91 
Q 1588 -91 1214 -16 
Q 841 59 441 206 
L 441 856 
Q 825 641 1194 531 
Q 1563 422 1919 422 
Q 2459 422 2753 634 
Q 3047 847 3047 1241 
Q 3047 1584 2836 1778 
Q 2625 1972 2144 2069 
L 1759 2144 
Q 1053 2284 737 2584 
Q 422 2884 422 3419 
Q 422 4038 858 4394 
Q 1294 4750 2059 4750 
Q 2388 4750 2728 4690 
Q 3069 4631 3425 4513 
z
" transform="scale(0.015625)"/>
       <path id="DejaVuSans-74" d="M 1172 4494 
L 1172 3500 
L 2356 3500 
L 2356 3053 
L 1172 3053 
L 1172 1153 
Q 1172 725 1289 603 
Q 1406 481 1766 481 
L 2356 481 
L 2356 0 
L 1766 0 
Q 1100 0 847 248 
Q 594 497 594 1153 
L 594 3053 
L 172 3053 
L 172 3500 
L 594 3500 
L 594 4494 
L 1172 4494 
z
" transform="scale(0.015625)"/>
       <path id="DejaVuSans-65" d="M 3597 1894 
L 3597 1613 
L 953 1613 
Q 991 1019 1311 708 
Q 1631 397 2203 397 
Q 2534 397 2845 478 
Q 3156 559 3463 722 
L 3463 178 
Q 3153 47 2828 -22 
Q 2503 -91 2169 -91 
Q 1331 -91 842 396 
Q 353 884 353 1716 
Q 353 2575 817 3079 
Q 1281 3584 2069 3584 
Q 2775 3584 3186 3129 
Q 3597 2675 3597 1894 
z
M 3022 2063 
Q 3016 2534 2758 2815 
Q 2500 3097 2075 3097 
Q 1594 3097 1305 2825 
Q 1016 2553 972 2059 
L 3022 2063 
z
" transform="scale(0.015625)"/>
       <path id="DejaVuSans-70" d="M 1159 525 
L 1159 -1331 
L 581 -1331 
L 581 3500 
L 1159 3500 
L 1159 2969 
Q 1341 3281 1617 3432 
Q 1894 3584 2278 3584 
Q 2916 3584 3314 3078 
Q 3713 2572 3713 1747 
Q 3713 922 3314 415 
Q 2916 -91 2278 -91 
Q 1894 -91 1617 61 
Q 1341 213 1159 525 
z
M 3116 1747 
Q 3116 2381 2855 2742 
Q 2594 3103 2138 3103 
Q 1681 3103 1420 2742 
Q 1159 2381 1159 1747 
Q 1159 1113 1420 752 
Q 1681 391 2138 391 
Q 2594 391 2855 752 
Q 3116 1113 3116 1747 
z
" transform="scale(0.015625)"/>
      </defs>
      <use xlink:href="#DejaVuSans-53"/>
      <use xlink:href="#DejaVuSans-74" transform="translate(63.476562 0)"/>
      <use xlink:href="#DejaVuSans-65" transform="translate(102.685547 0)"/>
      <use xlink:href="#DejaVuSans-70" transform="translate(164.208984 0)"/>
     </g>
    </g>
   </g>
   <g id="matplotlib.axis_2">
    <g id="ytick_1">
     <g id="line2d_7">
      <defs>
       <path id="m1db4eeda87" d="M 0 0 
L -3.5 0 
" style="stroke: #000000; stroke-width: 0.8"/>
      </defs>
      <g>
       <use xlink:href="#m1db4eeda87" x="50.87" y="371.987665" style="stroke: #000000; stroke-width: 0.8"/>
      </g>
     </g>
     <g id="text_8">
      <!-- 20 -->
      <g transform="translate(31.145 375.786884) scale(0.1 -0.1)">
       <use xlink:href="#DejaVuSans-32"/>
       <use xlink:href="#DejaVuSans-30" transform="translate(63.623047 0)"/>
      </g>
     </g>
    </g>
    <g id="ytick_2">
     <g id="line2d_8">
      <g>
       <use xlink:href="#m1db4eeda87" x="50.87" y="316.8174" style="stroke: #000000; stroke-width: 0.8"/>
      </g>
     </g>
     <g id="text_9">
      <!-- 40 -->
      <g transform="translate(31.145 320.616619) scale(0.1 -0.1)">
       <defs>
        <path id="DejaVuSans-34" d="M 2419 4116 
L 825 1625 
L 2419 1625 
L 2419 4116 
z
M 2253 4666 
L 3047 4666 
L 3047 1625 
L 3713 1625 
L 3713 1100 
L 3047 1100 
L 3047 0 
L 2419 0 
L 2419 1100 
L 313 1100 
L 313 1709 
L 2253 4666 
z
" transform="scale(0.015625)"/>
       </defs>
       <use xlink:href="#DejaVuSans-34"/>
       <use xlink:href="#DejaVuSans-30" transform="translate(63.623047 0)"/>
      </g>
     </g>
    </g>
    <g id="ytick_3">
     <g id="line2d_9">
      <g>
       <use xlink:href="#m1db4eeda87" x="50.87" y="261.647135" style="stroke: #000000; stroke-width: 0.8"/>
      </g>
     </g>
     <g id="text_10">
      <!-- 60 -->
      <g transform="translate(31.145 265.446354) scale(0.1 -0.1)">
       <defs>
        <path id="DejaVuSans-36" d="M 2113 2584 
Q 1688 2584 1439 2293 
Q 1191 2003 1191 1497 
Q 1191 994 1439 701 
Q 1688 409 2113 409 
Q 2538 409 2786 701 
Q 3034 994 3034 1497 
Q 3034 2003 2786 2293 
Q 2538 2584 2113 2584 
z
M 3366 4563 
L 3366 3988 
Q 3128 4100 2886 4159 
Q 2644 4219 2406 4219 
Q 1781 4219 1451 3797 
Q 1122 3375 1075 2522 
Q 1259 2794 1537 2939 
Q 1816 3084 2150 3084 
Q 2853 3084 3261 2657 
Q 3669 2231 3669 1497 
Q 3669 778 3244 343 
Q 2819 -91 2113 -91 
Q 1303 -91 875 529 
Q 447 1150 447 2328 
Q 447 3434 972 4092 
Q 1497 4750 2381 4750 
Q 2619 4750 2861 4703 
Q 3103 4656 3366 4563 
z
" transform="scale(0.015625)"/>
       </defs>
       <use xlink:href="#DejaVuSans-36"/>
       <use xlink:href="#DejaVuSans-30" transform="translate(63.623047 0)"/>
      </g>
     </g>
    </g>
    <g id="ytick_4">
     <g id="line2d_10">
      <g>
       <use xlink:href="#m1db4eeda87" x="50.87" y="206.47687" style="stroke: #000000; stroke-width: 0.8"/>
      </g>
     </g>
     <g id="text_11">
      <!-- 80 -->
      <g transform="translate(31.145 210.276089) scale(0.1 -0.1)">
       <defs>
        <path id="DejaVuSans-38" d="M 2034 2216 
Q 1584 2216 1326 1975 
Q 1069 1734 1069 1313 
Q 1069 891 1326 650 
Q 1584 409 2034 409 
Q 2484 409 2743 651 
Q 3003 894 3003 1313 
Q 3003 1734 2745 1975 
Q 2488 2216 2034 2216 
z
M 1403 2484 
Q 997 2584 770 2862 
Q 544 3141 544 3541 
Q 544 4100 942 4425 
Q 1341 4750 2034 4750 
Q 2731 4750 3128 4425 
Q 3525 4100 3525 3541 
Q 3525 3141 3298 2862 
Q 3072 2584 2669 2484 
Q 3125 2378 3379 2068 
Q 3634 1759 3634 1313 
Q 3634 634 3220 271 
Q 2806 -91 2034 -91 
Q 1263 -91 848 271 
Q 434 634 434 1313 
Q 434 1759 690 2068 
Q 947 2378 1403 2484 
z
M 1172 3481 
Q 1172 3119 1398 2916 
Q 1625 2713 2034 2713 
Q 2441 2713 2670 2916 
Q 2900 3119 2900 3481 
Q 2900 3844 2670 4047 
Q 2441 4250 2034 4250 
Q 1625 4250 1398 4047 
Q 1172 3844 1172 3481 
z
" transform="scale(0.015625)"/>
       </defs>
       <use xlink:href="#DejaVuSans-38"/>
       <use xlink:href="#DejaVuSans-30" transform="translate(63.623047 0)"/>
      </g>
     </g>
    </g>
    <g id="ytick_5">
     <g id="line2d_11">
      <g>
       <use xlink:href="#m1db4eeda87" x="50.87" y="151.306605" style="stroke: #000000; stroke-width: 0.8"/>
      </g>
     </g>
     <g id="text_12">
      <!-- 100 -->
      <g transform="translate(24.7825 155.105824) scale(0.1 -0.1)">
       <use xlink:href="#DejaVuSans-31"/>
       <use xlink:href="#DejaVuSans-30" transform="translate(63.623047 0)"/>
       <use xlink:href="#DejaVuSans-30" transform="translate(127.246094 0)"/>
      </g>
     </g>
    </g>
    <g id="ytick_6">
     <g id="line2d_12">
      <g>
       <use xlink:href="#m1db4eeda87" x="50.87" y="96.13634" style="stroke: #000000; stroke-width: 0.8"/>
      </g>
     </g>
     <g id="text_13">
      <!-- 120 -->
      <g transform="translate(24.7825 99.935559) scale(0.1 -0.1)">
       <use xlink:href="#DejaVuSans-31"/>
       <use xlink:href="#DejaVuSans-32" transform="translate(63.623047 0)"/>
       <use xlink:href="#DejaVuSans-30" transform="translate(127.246094 0)"/>
      </g>
     </g>
    </g>
    <g id="text_14">
     <!-- Profit -->
     <g transform="translate(18.702813 229.779063) rotate(-90) scale(0.1 -0.1)">
      <defs>
       <path id="DejaVuSans-50" d="M 1259 4147 
L 1259 2394 
L 2053 2394 
Q 2494 2394 2734 2622 
Q 2975 2850 2975 3272 
Q 2975 3691 2734 3919 
Q 2494 4147 2053 4147 
L 1259 4147 
z
M 628 4666 
L 2053 4666 
Q 2838 4666 3239 4311 
Q 3641 3956 3641 3272 
Q 3641 2581 3239 2228 
Q 2838 1875 2053 1875 
L 1259 1875 
L 1259 0 
L 628 0 
L 628 4666 
z
" transform="scale(0.015625)"/>
       <path id="DejaVuSans-72" d="M 2631 2963 
Q 2534 3019 2420 3045 
Q 2306 3072 2169 3072 
Q 1681 3072 1420 2755 
Q 1159 2438 1159 1844 
L 1159 0 
L 581 0 
L 581 3500 
L 1159 3500 
L 1159 2956 
Q 1341 3275 1631 3429 
Q 1922 3584 2338 3584 
Q 2397 3584 2469 3576 
Q 2541 3569 2628 3553 
L 2631 2963 
z
" transform="scale(0.015625)"/>
       <path id="DejaVuSans-6f" d="M 1959 3097 
Q 1497 3097 1228 2736 
Q 959 2375 959 1747 
Q 959 1119 1226 758 
Q 1494 397 1959 397 
Q 2419 397 2687 759 
Q 2956 1122 2956 1747 
Q 2956 2369 2687 2733 
Q 2419 3097 1959 3097 
z
M 1959 3584 
Q 2709 3584 3137 3096 
Q 3566 2609 3566 1747 
Q 3566 888 3137 398 
Q 2709 -91 1959 -91 
Q 1206 -91 779 398 
Q 353 888 353 1747 
Q 353 2609 779 3096 
Q 1206 3584 1959 3584 
z
" transform="scale(0.015625)"/>
       <path id="DejaVuSans-66" d="M 2375 4863 
L 2375 4384 
L 1825 4384 
Q 1516 4384 1395 4259 
Q 1275 4134 1275 3809 
L 1275 3500 
L 2222 3500 
L 2222 3053 
L 1275 3053 
L 1275 0 
L 697 0 
L 697 3053 
L 147 3053 
L 147 3500 
L 697 3500 
L 697 3744 
Q 697 4328 969 4595 
Q 1241 4863 1831 4863 
L 2375 4863 
z
" transform="scale(0.015625)"/>
       <path id="DejaVuSans-69" d="M 603 3500 
L 1178 3500 
L 1178 0 
L 603 0 
L 603 3500 
z
M 603 4863 
L 1178 4863 
L 1178 4134 
L 603 4134 
L 603 4863 
z
" transform="scale(0.015625)"/>
      </defs>
      <use xlink:href="#DejaVuSans-50"/>
      <use xlink:href="#DejaVuSans-72" transform="translate(58.552734 0)"/>
      <use xlink:href="#DejaVuSans-6f" transform="translate(97.416016 0)"/>
      <use xlink:href="#DejaVuSans-66" transform="translate(158.597656 0)"/>
      <use xlink:href="#DejaVuSans-69" transform="translate(193.802734 0)"/>
      <use xlink:href="#DejaVuSans-74" transform="translate(221.585938 0)"/>
     </g>
    </g>
   </g>
   <g id="line2d_13">
    <path d="M 52.193327 252.703276 
L 54.83998 251.885415 
L 57.486633 241.699708 
L 60.133287 232.646947 
L 62.77994 225.426159 
L 65.426593 219.231205 
L 68.073247 213.498881 
L 70.7199 208.722771 
L 73.366553 204.580918 
L 76.013207 200.944901 
L 78.65986 197.508692 
L 81.306513 194.332315 
L 83.953167 191.477307 
L 86.59982 188.88556 
L 91.893127 184.175029 
L 94.53978 182.011944 
L 97.186433 180.028378 
L 105.126393 174.928879 
L 110.4197 172.063622 
L 115.713007 169.420565 
L 121.006313 167.079117 
L 126.29962 164.936003 
L 131.592927 162.917839 
L 144.826193 158.654236 
L 152.766153 156.437189 
L 155.412807 155.635997 
L 165.99942 153.046334 
L 173.93938 151.25338 
L 179.232687 150.206794 
L 197.75926 146.712226 
L 216.285833 143.675992 
L 221.57914 142.926468 
L 226.872447 142.114563 
L 234.812407 141.02094 
L 240.105713 140.347285 
L 258.632287 138.249568 
L 266.572247 137.457762 
L 277.15886 136.359025 
L 311.565353 133.270472 
L 343.325193 130.920499 
L 406.844873 126.813456 
L 430.664753 125.590086 
L 499.47774 122.507215 
L 510.064353 122.109365 
L 525.944273 121.48138 
L 592.110607 119.103627 
L 700.623393 116.075391 
L 764.143073 114.690852 
L 843.542673 113.187236 
L 843.542673 113.187236 
" clip-path="url(#p965c922a77)" style="fill: none; stroke: #0000ff; stroke-width: 1.5; stroke-linecap: square"/>
   </g>
   <g id="patch_3">
    <path d="M 50.87 390.04 
L 50.87 43.44 
" style="fill: none; stroke: #000000; stroke-width: 0.8; stroke-linejoin: miter; stroke-linecap: square"/>
   </g>
   <g id="patch_4">
    <path d="M 844.866 390.04 
L 844.866 43.44 
" style="fill: none; stroke: #000000; stroke-width: 0.8; stroke-linejoin: miter; stroke-linecap: square"/>
   </g>
   <g id="patch_5">
    <path d="M 50.87 390.04 
L 844.866 390.04 
" style="fill: none; stroke: #000000; stroke-width: 0.8; stroke-linejoin: miter; stroke-linecap: square"/>
   </g>
   <g id="patch_6">
    <path d="M 50.87 43.44 
L 844.866 43.44 
" style="fill: none; stroke: #000000; stroke-width: 0.8; stroke-linejoin: miter; stroke-linecap: square"/>
   </g>
   <g id="text_15">
    <!-- Mean profit per step with confidence interval per simulation step -->
    <g transform="translate(220.284875 21.763062) scale(0.14 -0.14)">
     <defs>
      <path id="DejaVuSans-4d" d="M 628 4666 
L 1569 4666 
L 2759 1491 
L 3956 4666 
L 4897 4666 
L 4897 0 
L 4281 0 
L 4281 4097 
L 3078 897 
L 2444 897 
L 1241 4097 
L 1241 0 
L 628 0 
L 628 4666 
z
" transform="scale(0.015625)"/>
      <path id="DejaVuSans-61" d="M 2194 1759 
Q 1497 1759 1228 1600 
Q 959 1441 959 1056 
Q 959 750 1161 570 
Q 1363 391 1709 391 
Q 2188 391 2477 730 
Q 2766 1069 2766 1631 
L 2766 1759 
L 2194 1759 
z
M 3341 1997 
L 3341 0 
L 2766 0 
L 2766 531 
Q 2569 213 2275 61 
Q 1981 -91 1556 -91 
Q 1019 -91 701 211 
Q 384 513 384 1019 
Q 384 1609 779 1909 
Q 1175 2209 1959 2209 
L 2766 2209 
L 2766 2266 
Q 2766 2663 2505 2880 
Q 2244 3097 1772 3097 
Q 1472 3097 1187 3025 
Q 903 2953 641 2809 
L 641 3341 
Q 956 3463 1253 3523 
Q 1550 3584 1831 3584 
Q 2591 3584 2966 3190 
Q 3341 2797 3341 1997 
z
" transform="scale(0.015625)"/>
      <path id="DejaVuSans-6e" d="M 3513 2113 
L 3513 0 
L 2938 0 
L 2938 2094 
Q 2938 2591 2744 2837 
Q 2550 3084 2163 3084 
Q 1697 3084 1428 2787 
Q 1159 2491 1159 1978 
L 1159 0 
L 581 0 
L 581 3500 
L 1159 3500 
L 1159 2956 
Q 1366 3272 1645 3428 
Q 1925 3584 2291 3584 
Q 2894 3584 3203 3211 
Q 3513 2838 3513 2113 
z
" transform="scale(0.015625)"/>
      <path id="DejaVuSans-20" transform="scale(0.015625)"/>
      <path id="DejaVuSans-73" d="M 2834 3397 
L 2834 2853 
Q 2591 2978 2328 3040 
Q 2066 3103 1784 3103 
Q 1356 3103 1142 2972 
Q 928 2841 928 2578 
Q 928 2378 1081 2264 
Q 1234 2150 1697 2047 
L 1894 2003 
Q 2506 1872 2764 1633 
Q 3022 1394 3022 966 
Q 3022 478 2636 193 
Q 2250 -91 1575 -91 
Q 1294 -91 989 -36 
Q 684 19 347 128 
L 347 722 
Q 666 556 975 473 
Q 1284 391 1588 391 
Q 1994 391 2212 530 
Q 2431 669 2431 922 
Q 2431 1156 2273 1281 
Q 2116 1406 1581 1522 
L 1381 1569 
Q 847 1681 609 1914 
Q 372 2147 372 2553 
Q 372 3047 722 3315 
Q 1072 3584 1716 3584 
Q 2034 3584 2315 3537 
Q 2597 3491 2834 3397 
z
" transform="scale(0.015625)"/>
      <path id="DejaVuSans-77" d="M 269 3500 
L 844 3500 
L 1563 769 
L 2278 3500 
L 2956 3500 
L 3675 769 
L 4391 3500 
L 4966 3500 
L 4050 0 
L 3372 0 
L 2619 2869 
L 1863 0 
L 1184 0 
L 269 3500 
z
" transform="scale(0.015625)"/>
      <path id="DejaVuSans-68" d="M 3513 2113 
L 3513 0 
L 2938 0 
L 2938 2094 
Q 2938 2591 2744 2837 
Q 2550 3084 2163 3084 
Q 1697 3084 1428 2787 
Q 1159 2491 1159 1978 
L 1159 0 
L 581 0 
L 581 4863 
L 1159 4863 
L 1159 2956 
Q 1366 3272 1645 3428 
Q 1925 3584 2291 3584 
Q 2894 3584 3203 3211 
Q 3513 2838 3513 2113 
z
" transform="scale(0.015625)"/>
      <path id="DejaVuSans-63" d="M 3122 3366 
L 3122 2828 
Q 2878 2963 2633 3030 
Q 2388 3097 2138 3097 
Q 1578 3097 1268 2742 
Q 959 2388 959 1747 
Q 959 1106 1268 751 
Q 1578 397 2138 397 
Q 2388 397 2633 464 
Q 2878 531 3122 666 
L 3122 134 
Q 2881 22 2623 -34 
Q 2366 -91 2075 -91 
Q 1284 -91 818 406 
Q 353 903 353 1747 
Q 353 2603 823 3093 
Q 1294 3584 2113 3584 
Q 2378 3584 2631 3529 
Q 2884 3475 3122 3366 
z
" transform="scale(0.015625)"/>
      <path id="DejaVuSans-64" d="M 2906 2969 
L 2906 4863 
L 3481 4863 
L 3481 0 
L 2906 0 
L 2906 525 
Q 2725 213 2448 61 
Q 2172 -91 1784 -91 
Q 1150 -91 751 415 
Q 353 922 353 1747 
Q 353 2572 751 3078 
Q 1150 3584 1784 3584 
Q 2172 3584 2448 3432 
Q 2725 3281 2906 2969 
z
M 947 1747 
Q 947 1113 1208 752 
Q 1469 391 1925 391 
Q 2381 391 2643 752 
Q 2906 1113 2906 1747 
Q 2906 2381 2643 2742 
Q 2381 3103 1925 3103 
Q 1469 3103 1208 2742 
Q 947 2381 947 1747 
z
" transform="scale(0.015625)"/>
      <path id="DejaVuSans-76" d="M 191 3500 
L 800 3500 
L 1894 563 
L 2988 3500 
L 3597 3500 
L 2284 0 
L 1503 0 
L 191 3500 
z
" transform="scale(0.015625)"/>
      <path id="DejaVuSans-6c" d="M 603 4863 
L 1178 4863 
L 1178 0 
L 603 0 
L 603 4863 
z
" transform="scale(0.015625)"/>
      <path id="DejaVuSans-6d" d="M 3328 2828 
Q 3544 3216 3844 3400 
Q 4144 3584 4550 3584 
Q 5097 3584 5394 3201 
Q 5691 2819 5691 2113 
L 5691 0 
L 5113 0 
L 5113 2094 
Q 5113 2597 4934 2840 
Q 4756 3084 4391 3084 
Q 3944 3084 3684 2787 
Q 3425 2491 3425 1978 
L 3425 0 
L 2847 0 
L 2847 2094 
Q 2847 2600 2669 2842 
Q 2491 3084 2119 3084 
Q 1678 3084 1418 2786 
Q 1159 2488 1159 1978 
L 1159 0 
L 581 0 
L 581 3500 
L 1159 3500 
L 1159 2956 
Q 1356 3278 1631 3431 
Q 1906 3584 2284 3584 
Q 2666 3584 2933 3390 
Q 3200 3197 3328 2828 
z
" transform="scale(0.015625)"/>
      <path id="DejaVuSans-75" d="M 544 1381 
L 544 3500 
L 1119 3500 
L 1119 1403 
Q 1119 906 1312 657 
Q 1506 409 1894 409 
Q 2359 409 2629 706 
Q 2900 1003 2900 1516 
L 2900 3500 
L 3475 3500 
L 3475 0 
L 2900 0 
L 2900 538 
Q 2691 219 2414 64 
Q 2138 -91 1772 -91 
Q 1169 -91 856 284 
Q 544 659 544 1381 
z
M 1991 3584 
L 1991 3584 
z
" transform="scale(0.015625)"/>
     </defs>
     <use xlink:href="#DejaVuSans-4d"/>
     <use xlink:href="#DejaVuSans-65" transform="translate(86.279297 0)"/>
     <use xlink:href="#DejaVuSans-61" transform="translate(147.802734 0)"/>
     <use xlink:href="#DejaVuSans-6e" transform="translate(209.082031 0)"/>
     <use xlink:href="#DejaVuSans-20" transform="translate(272.460938 0)"/>
     <use xlink:href="#DejaVuSans-70" transform="translate(304.248047 0)"/>
     <use xlink:href="#DejaVuSans-72" transform="translate(367.724609 0)"/>
     <use xlink:href="#DejaVuSans-6f" transform="translate(406.587891 0)"/>
     <use xlink:href="#DejaVuSans-66" transform="translate(467.769531 0)"/>
     <use xlink:href="#DejaVuSans-69" transform="translate(502.974609 0)"/>
     <use xlink:href="#DejaVuSans-74" transform="translate(530.757812 0)"/>
     <use xlink:href="#DejaVuSans-20" transform="translate(569.966797 0)"/>
     <use xlink:href="#DejaVuSans-70" transform="translate(601.753906 0)"/>
     <use xlink:href="#DejaVuSans-65" transform="translate(665.230469 0)"/>
     <use xlink:href="#DejaVuSans-72" transform="translate(726.753906 0)"/>
     <use xlink:href="#DejaVuSans-20" transform="translate(767.867188 0)"/>
     <use xlink:href="#DejaVuSans-73" transform="translate(799.654297 0)"/>
     <use xlink:href="#DejaVuSans-74" transform="translate(851.753906 0)"/>
     <use xlink:href="#DejaVuSans-65" transform="translate(890.962891 0)"/>
     <use xlink:href="#DejaVuSans-70" transform="translate(952.486328 0)"/>
     <use xlink:href="#DejaVuSans-20" transform="translate(1015.962891 0)"/>
     <use xlink:href="#DejaVuSans-77" transform="translate(1047.75 0)"/>
     <use xlink:href="#DejaVuSans-69" transform="translate(1129.537109 0)"/>
     <use xlink:href="#DejaVuSans-74" transform="translate(1157.320312 0)"/>
     <use xlink:href="#DejaVuSans-68" transform="translate(1196.529297 0)"/>
     <use xlink:href="#DejaVuSans-20" transform="translate(1259.908203 0)"/>
     <use xlink:href="#DejaVuSans-63" transform="translate(1291.695312 0)"/>
     <use xlink:href="#DejaVuSans-6f" transform="translate(1346.675781 0)"/>
     <use xlink:href="#DejaVuSans-6e" transform="translate(1407.857422 0)"/>
     <use xlink:href="#DejaVuSans-66" transform="translate(1471.236328 0)"/>
     <use xlink:href="#DejaVuSans-69" transform="translate(1506.441406 0)"/>
     <use xlink:href="#DejaVuSans-64" transform="translate(1534.224609 0)"/>
     <use xlink:href="#DejaVuSans-65" transform="translate(1597.701172 0)"/>
     <use xlink:href="#DejaVuSans-6e" transform="translate(1659.224609 0)"/>
     <use xlink:href="#DejaVuSans-63" transform="translate(1722.603516 0)"/>
     <use xlink:href="#DejaVuSans-65" transform="translate(1777.583984 0)"/>
     <use xlink:href="#DejaVuSans-20" transform="translate(1839.107422 0)"/>
     <use xlink:href="#DejaVuSans-69" transform="translate(1870.894531 0)"/>
     <use xlink:href="#DejaVuSans-6e" transform="translate(1898.677734 0)"/>
     <use xlink:href="#DejaVuSans-74" transform="translate(1962.056641 0)"/>
     <use xlink:href="#DejaVuSans-65" transform="translate(2001.265625 0)"/>
     <use xlink:href="#DejaVuSans-72" transform="translate(2062.789062 0)"/>
     <use xlink:href="#DejaVuSans-76" transform="translate(2103.902344 0)"/>
     <use xlink:href="#DejaVuSans-61" transform="translate(2163.082031 0)"/>
     <use xlink:href="#DejaVuSans-6c" transform="translate(2224.361328 0)"/>
     <use xlink:href="#DejaVuSans-20" transform="translate(2252.144531 0)"/>
     <use xlink:href="#DejaVuSans-70" transform="translate(2283.931641 0)"/>
     <use xlink:href="#DejaVuSans-65" transform="translate(2347.408203 0)"/>
     <use xlink:href="#DejaVuSans-72" transform="translate(2408.931641 0)"/>
     <use xlink:href="#DejaVuSans-20" transform="translate(2450.044922 0)"/>
     <use xlink:href="#DejaVuSans-73" transform="translate(2481.832031 0)"/>
     <use xlink:href="#DejaVuSans-69" transform="translate(2533.931641 0)"/>
     <use xlink:href="#DejaVuSans-6d" transform="translate(2561.714844 0)"/>
     <use xlink:href="#DejaVuSans-75" transform="translate(2659.126953 0)"/>
     <use xlink:href="#DejaVuSans-6c" transform="translate(2722.505859 0)"/>
     <use xlink:href="#DejaVuSans-61" transform="translate(2750.289062 0)"/>
     <use xlink:href="#DejaVuSans-74" transform="translate(2811.568359 0)"/>
     <use xlink:href="#DejaVuSans-69" transform="translate(2850.777344 0)"/>
     <use xlink:href="#DejaVuSans-6f" transform="translate(2878.560547 0)"/>
     <use xlink:href="#DejaVuSans-6e" transform="translate(2939.742188 0)"/>
     <use xlink:href="#DejaVuSans-20" transform="translate(3003.121094 0)"/>
     <use xlink:href="#DejaVuSans-73" transform="translate(3034.908203 0)"/>
     <use xlink:href="#DejaVuSans-74" transform="translate(3087.007812 0)"/>
     <use xlink:href="#DejaVuSans-65" transform="translate(3126.216797 0)"/>
     <use xlink:href="#DejaVuSans-70" transform="translate(3187.740234 0)"/>
    </g>
    <!-- Base Product: OG Kush, Recipe size: 9, T0: 5.0 -->
    <g transform="translate(285.943781 37.44) scale(0.14 -0.14)">
     <defs>
      <path id="DejaVuSans-42" d="M 1259 2228 
L 1259 519 
L 2272 519 
Q 2781 519 3026 730 
Q 3272 941 3272 1375 
Q 3272 1813 3026 2020 
Q 2781 2228 2272 2228 
L 1259 2228 
z
M 1259 4147 
L 1259 2741 
L 2194 2741 
Q 2656 2741 2882 2914 
Q 3109 3088 3109 3444 
Q 3109 3797 2882 3972 
Q 2656 4147 2194 4147 
L 1259 4147 
z
M 628 4666 
L 2241 4666 
Q 2963 4666 3353 4366 
Q 3744 4066 3744 3513 
Q 3744 3084 3544 2831 
Q 3344 2578 2956 2516 
Q 3422 2416 3680 2098 
Q 3938 1781 3938 1306 
Q 3938 681 3513 340 
Q 3088 0 2303 0 
L 628 0 
L 628 4666 
z
" transform="scale(0.015625)"/>
      <path id="DejaVuSans-3a" d="M 750 794 
L 1409 794 
L 1409 0 
L 750 0 
L 750 794 
z
M 750 3309 
L 1409 3309 
L 1409 2516 
L 750 2516 
L 750 3309 
z
" transform="scale(0.015625)"/>
      <path id="DejaVuSans-4f" d="M 2522 4238 
Q 1834 4238 1429 3725 
Q 1025 3213 1025 2328 
Q 1025 1447 1429 934 
Q 1834 422 2522 422 
Q 3209 422 3611 934 
Q 4013 1447 4013 2328 
Q 4013 3213 3611 3725 
Q 3209 4238 2522 4238 
z
M 2522 4750 
Q 3503 4750 4090 4092 
Q 4678 3434 4678 2328 
Q 4678 1225 4090 567 
Q 3503 -91 2522 -91 
Q 1538 -91 948 565 
Q 359 1222 359 2328 
Q 359 3434 948 4092 
Q 1538 4750 2522 4750 
z
" transform="scale(0.015625)"/>
      <path id="DejaVuSans-47" d="M 3809 666 
L 3809 1919 
L 2778 1919 
L 2778 2438 
L 4434 2438 
L 4434 434 
Q 4069 175 3628 42 
Q 3188 -91 2688 -91 
Q 1594 -91 976 548 
Q 359 1188 359 2328 
Q 359 3472 976 4111 
Q 1594 4750 2688 4750 
Q 3144 4750 3555 4637 
Q 3966 4525 4313 4306 
L 4313 3634 
Q 3963 3931 3569 4081 
Q 3175 4231 2741 4231 
Q 1884 4231 1454 3753 
Q 1025 3275 1025 2328 
Q 1025 1384 1454 906 
Q 1884 428 2741 428 
Q 3075 428 3337 486 
Q 3600 544 3809 666 
z
" transform="scale(0.015625)"/>
      <path id="DejaVuSans-4b" d="M 628 4666 
L 1259 4666 
L 1259 2694 
L 3353 4666 
L 4166 4666 
L 1850 2491 
L 4331 0 
L 3500 0 
L 1259 2247 
L 1259 0 
L 628 0 
L 628 4666 
z
" transform="scale(0.015625)"/>
      <path id="DejaVuSans-2c" d="M 750 794 
L 1409 794 
L 1409 256 
L 897 -744 
L 494 -744 
L 750 256 
L 750 794 
z
" transform="scale(0.015625)"/>
      <path id="DejaVuSans-52" d="M 2841 2188 
Q 3044 2119 3236 1894 
Q 3428 1669 3622 1275 
L 4263 0 
L 3584 0 
L 2988 1197 
Q 2756 1666 2539 1819 
Q 2322 1972 1947 1972 
L 1259 1972 
L 1259 0 
L 628 0 
L 628 4666 
L 2053 4666 
Q 2853 4666 3247 4331 
Q 3641 3997 3641 3322 
Q 3641 2881 3436 2590 
Q 3231 2300 2841 2188 
z
M 1259 4147 
L 1259 2491 
L 2053 2491 
Q 2509 2491 2742 2702 
Q 2975 2913 2975 3322 
Q 2975 3731 2742 3939 
Q 2509 4147 2053 4147 
L 1259 4147 
z
" transform="scale(0.015625)"/>
      <path id="DejaVuSans-7a" d="M 353 3500 
L 3084 3500 
L 3084 2975 
L 922 459 
L 3084 459 
L 3084 0 
L 275 0 
L 275 525 
L 2438 3041 
L 353 3041 
L 353 3500 
z
" transform="scale(0.015625)"/>
      <path id="DejaVuSans-39" d="M 703 97 
L 703 672 
Q 941 559 1184 500 
Q 1428 441 1663 441 
Q 2288 441 2617 861 
Q 2947 1281 2994 2138 
Q 2813 1869 2534 1725 
Q 2256 1581 1919 1581 
Q 1219 1581 811 2004 
Q 403 2428 403 3163 
Q 403 3881 828 4315 
Q 1253 4750 1959 4750 
Q 2769 4750 3195 4129 
Q 3622 3509 3622 2328 
Q 3622 1225 3098 567 
Q 2575 -91 1691 -91 
Q 1453 -91 1209 -44 
Q 966 3 703 97 
z
M 1959 2075 
Q 2384 2075 2632 2365 
Q 2881 2656 2881 3163 
Q 2881 3666 2632 3958 
Q 2384 4250 1959 4250 
Q 1534 4250 1286 3958 
Q 1038 3666 1038 3163 
Q 1038 2656 1286 2365 
Q 1534 2075 1959 2075 
z
" transform="scale(0.015625)"/>
      <path id="DejaVuSans-54" d="M -19 4666 
L 3928 4666 
L 3928 4134 
L 2272 4134 
L 2272 0 
L 1638 0 
L 1638 4134 
L -19 4134 
L -19 4666 
z
" transform="scale(0.015625)"/>
      <path id="DejaVuSans-2e" d="M 684 794 
L 1344 794 
L 1344 0 
L 684 0 
L 684 794 
z
" transform="scale(0.015625)"/>
     </defs>
     <use xlink:href="#DejaVuSans-42"/>
     <use xlink:href="#DejaVuSans-61" transform="translate(68.603516 0)"/>
     <use xlink:href="#DejaVuSans-73" transform="translate(129.882812 0)"/>
     <use xlink:href="#DejaVuSans-65" transform="translate(181.982422 0)"/>
     <use xlink:href="#DejaVuSans-20" transform="translate(243.505859 0)"/>
     <use xlink:href="#DejaVuSans-50" transform="translate(275.292969 0)"/>
     <use xlink:href="#DejaVuSans-72" transform="translate(333.845703 0)"/>
     <use xlink:href="#DejaVuSans-6f" transform="translate(372.708984 0)"/>
     <use xlink:href="#DejaVuSans-64" transform="translate(433.890625 0)"/>
     <use xlink:href="#DejaVuSans-75" transform="translate(497.367188 0)"/>
     <use xlink:href="#DejaVuSans-63" transform="translate(560.746094 0)"/>
     <use xlink:href="#DejaVuSans-74" transform="translate(615.726562 0)"/>
     <use xlink:href="#DejaVuSans-3a" transform="translate(654.935547 0)"/>
     <use xlink:href="#DejaVuSans-20" transform="translate(688.626953 0)"/>
     <use xlink:href="#DejaVuSans-4f" transform="translate(720.414062 0)"/>
     <use xlink:href="#DejaVuSans-47" transform="translate(799.125 0)"/>
     <use xlink:href="#DejaVuSans-20" transform="translate(876.615234 0)"/>
     <use xlink:href="#DejaVuSans-4b" transform="translate(908.402344 0)"/>
     <use xlink:href="#DejaVuSans-75" transform="translate(968.978516 0)"/>
     <use xlink:href="#DejaVuSans-73" transform="translate(1032.357422 0)"/>
     <use xlink:href="#DejaVuSans-68" transform="translate(1084.457031 0)"/>
     <use xlink:href="#DejaVuSans-2c" transform="translate(1147.835938 0)"/>
     <use xlink:href="#DejaVuSans-20" transform="translate(1179.623047 0)"/>
     <use xlink:href="#DejaVuSans-52" transform="translate(1211.410156 0)"/>
     <use xlink:href="#DejaVuSans-65" transform="translate(1276.392578 0)"/>
     <use xlink:href="#DejaVuSans-63" transform="translate(1337.916016 0)"/>
     <use xlink:href="#DejaVuSans-69" transform="translate(1392.896484 0)"/>
     <use xlink:href="#DejaVuSans-70" transform="translate(1420.679688 0)"/>
     <use xlink:href="#DejaVuSans-65" transform="translate(1484.15625 0)"/>
     <use xlink:href="#DejaVuSans-20" transform="translate(1545.679688 0)"/>
     <use xlink:href="#DejaVuSans-73" transform="translate(1577.466797 0)"/>
     <use xlink:href="#DejaVuSans-69" transform="translate(1629.566406 0)"/>
     <use xlink:href="#DejaVuSans-7a" transform="translate(1657.349609 0)"/>
     <use xlink:href="#DejaVuSans-65" transform="translate(1709.839844 0)"/>
     <use xlink:href="#DejaVuSans-3a" transform="translate(1771.363281 0)"/>
     <use xlink:href="#DejaVuSans-20" transform="translate(1805.054688 0)"/>
     <use xlink:href="#DejaVuSans-39" transform="translate(1836.841797 0)"/>
     <use xlink:href="#DejaVuSans-2c" transform="translate(1900.464844 0)"/>
     <use xlink:href="#DejaVuSans-20" transform="translate(1932.251953 0)"/>
     <use xlink:href="#DejaVuSans-54" transform="translate(1964.039062 0)"/>
     <use xlink:href="#DejaVuSans-30" transform="translate(2025.123047 0)"/>
     <use xlink:href="#DejaVuSans-3a" transform="translate(2088.746094 0)"/>
     <use xlink:href="#DejaVuSans-20" transform="translate(2122.4375 0)"/>
     <use xlink:href="#DejaVuSans-35" transform="translate(2154.224609 0)"/>
     <use xlink:href="#DejaVuSans-2e" transform="translate(2217.847656 0)"/>
     <use xlink:href="#DejaVuSans-30" transform="translate(2249.634766 0)"/>
    </g>
   </g>
  </g>
 </g>
 <defs>
  <clipPath id="p965c922a77">
   <rect x="50.87" y="43.44" width="793.996" height="346.6"/>
  </clipPath>
 </defs>
</svg>
