<?xml version="1.0" encoding="utf-8" standalone="no"?>
<!DOCTYPE svg PUBLIC "-//W3C//DTD SVG 1.1//EN"
  "http://www.w3.org/Graphics/SVG/1.1/DTD/svg11.dtd">
<svg xmlns:xlink="http://www.w3.org/1999/xlink" width="864pt" height="432pt" viewBox="0 0 864 432" xmlns="http://www.w3.org/2000/svg" version="1.1">
 <metadata>
  <rdf:RDF xmlns:dc="http://purl.org/dc/elements/1.1/" xmlns:cc="http://creativecommons.org/ns#" xmlns:rdf="http://www.w3.org/1999/02/22-rdf-syntax-ns#">
   <cc:Work>
    <dc:type rdf:resource="http://purl.org/dc/dcmitype/StillImage"/>
    <dc:date>2025-05-24T02:00:55.393137</dc:date>
    <dc:format>image/svg+xml</dc:format>
    <dc:creator>
     <cc:Agent>
      <dc:title>Matplotlib v3.10.3, https://matplotlib.org/</dc:title>
     </cc:Agent>
    </dc:creator>
   </cc:Work>
  </rdf:RDF>
 </metadata>
 <defs>
  <style type="text/css">*{stroke-linejoin: round; stroke-linecap: butt}</style>
 </defs>
 <g id="figure_1">
  <g id="patch_1">
   <path d="M 0 432 
L 864 432 
L 864 0 
L 0 0 
z
" style="fill: #ffffff"/>
  </g>
  <g id="axes_1">
   <g id="patch_2">
    <path d="M 50.87 390.04 
L 844.866 390.04 
L 844.866 43.44 
L 50.87 43.44 
z
" style="fill: #ffffff"/>
   </g>
   <g id="FillBetweenPolyCollection_1">
    <defs>
     <path id="ma3e58750fa" d="M 52.193327 -307.207583 
L 52.193327 -57.714545 
L 54.83998 -58.46793 
L 57.486633 -75.465688 
L 60.133287 -91.321536 
L 62.77994 -104.635759 
L 65.426593 -115.867168 
L 68.073247 -125.119188 
L 70.7199 -133.393621 
L 73.366553 -141.088945 
L 76.013207 -147.826328 
L 78.65986 -153.760054 
L 81.306513 -158.761213 
L 83.953167 -164.17313 
L 86.59982 -168.846196 
L 89.246473 -172.791642 
L 91.893127 -176.376678 
L 94.53978 -179.941462 
L 97.186433 -182.89574 
L 99.833087 -185.695107 
L 102.47974 -188.610571 
L 105.126393 -191.459712 
L 107.773047 -194.049021 
L 110.4197 -196.543872 
L 113.066353 -198.741939 
L 115.713007 -200.70244 
L 118.35966 -202.693698 
L 121.006313 -204.290335 
L 123.652967 -206.283391 
L 126.29962 -208.070266 
L 128.946273 -209.602357 
L 131.592927 -211.19321 
L 134.23958 -212.28554 
L 136.886233 -213.678119 
L 139.532887 -215.107628 
L 142.17954 -216.309882 
L 144.826193 -217.553484 
L 147.472847 -218.656687 
L 150.1195 -219.669373 
L 152.766153 -220.386965 
L 155.412807 -221.206424 
L 158.05946 -222.486155 
L 160.706113 -223.436937 
L 163.352767 -224.493636 
L 165.99942 -225.209929 
L 168.646073 -225.916366 
L 171.292727 -226.607316 
L 173.93938 -227.412241 
L 176.586033 -228.2137 
L 179.232687 -228.853056 
L 181.87934 -229.580547 
L 184.525993 -230.151198 
L 187.172647 -230.70398 
L 189.8193 -231.30476 
L 192.465953 -232.018995 
L 195.112607 -232.446085 
L 197.75926 -232.994145 
L 200.405913 -233.738118 
L 203.052567 -234.14931 
L 205.69922 -234.745476 
L 208.345873 -235.282252 
L 210.992527 -235.942293 
L 213.63918 -236.349131 
L 216.285833 -236.87434 
L 218.932487 -237.506527 
L 221.57914 -237.976157 
L 224.225793 -238.440155 
L 226.872447 -238.866594 
L 229.5191 -239.32143 
L 232.165753 -239.725864 
L 234.812407 -240.240308 
L 237.45906 -240.683577 
L 240.105713 -241.049673 
L 242.752367 -241.368203 
L 245.39902 -241.59052 
L 248.045673 -241.965669 
L 250.692327 -242.34671 
L 253.33898 -242.927238 
L 255.985633 -243.352357 
L 258.632287 -243.651111 
L 261.27894 -244.023835 
L 263.925593 -244.275696 
L 266.572247 -244.584826 
L 269.2189 -244.837055 
L 271.865553 -245.177527 
L 274.512207 -245.473011 
L 277.15886 -245.667907 
L 279.805513 -245.9703 
L 282.452167 -246.235916 
L 285.09882 -246.460615 
L 287.745473 -246.691639 
L 290.392127 -246.926173 
L 293.03878 -247.183102 
L 295.685433 -247.542851 
L 298.332087 -247.763782 
L 300.97874 -248.163234 
L 303.625393 -248.393977 
L 306.272047 -248.750845 
L 308.9187 -249.152354 
L 311.565353 -249.430467 
L 314.212007 -249.683086 
L 316.85866 -250.044676 
L 319.505313 -250.308429 
L 322.151967 -250.521151 
L 324.79862 -250.668698 
L 327.445273 -250.862207 
L 330.091927 -251.088228 
L 332.73858 -251.350118 
L 335.385233 -251.519585 
L 338.031887 -251.763388 
L 340.67854 -252.01382 
L 343.325193 -252.208196 
L 345.971847 -252.431314 
L 348.6185 -252.59268 
L 351.265153 -252.733188 
L 353.911807 -252.919593 
L 356.55846 -253.044419 
L 359.205113 -253.270266 
L 361.851767 -253.524554 
L 364.49842 -253.639004 
L 367.145073 -253.834117 
L 369.791727 -254.053228 
L 372.43838 -254.265538 
L 375.085033 -254.408667 
L 377.731687 -254.544041 
L 380.37834 -254.659142 
L 383.024993 -254.810977 
L 385.671647 -254.991772 
L 388.3183 -255.148265 
L 390.964953 -255.355312 
L 393.611607 -255.551334 
L 396.25826 -255.757038 
L 398.904913 -255.93231 
L 401.551567 -256.127595 
L 404.19822 -256.211419 
L 406.844873 -256.400661 
L 409.491527 -256.510152 
L 412.13818 -256.727747 
L 414.784833 -256.819802 
L 417.431487 -256.902304 
L 420.07814 -257.099799 
L 422.724793 -257.21451 
L 425.371447 -257.467736 
L 428.0181 -257.600554 
L 430.664753 -257.743683 
L 433.311407 -257.871281 
L 435.95806 -257.984735 
L 438.604713 -258.188338 
L 441.251367 -258.410266 
L 443.89802 -258.591017 
L 446.544673 -258.808612 
L 449.191327 -258.999739 
L 451.83798 -259.12019 
L 454.484633 -259.206678 
L 457.131287 -259.294574 
L 459.77794 -259.490726 
L 462.424593 -259.643081 
L 465.071247 -259.807155 
L 467.7179 -259.909519 
L 470.364553 -260.003198 
L 473.011207 -260.129779 
L 475.65786 -260.302148 
L 478.304513 -260.404275 
L 480.951167 -260.611018 
L 483.59782 -260.785034 
L 486.244473 -260.869161 
L 488.891127 -260.89212 
L 491.53778 -260.991106 
L 494.184433 -261.076316 
L 496.831087 -261.17972 
L 499.47774 -261.291962 
L 502.124393 -261.460129 
L 504.771047 -261.642029 
L 507.4177 -261.767331 
L 510.064353 -261.773374 
L 512.711007 -261.873356 
L 515.35766 -261.944574 
L 518.004313 -262.071328 
L 520.650967 -262.116034 
L 523.29762 -262.216969 
L 525.944273 -262.321543 
L 528.590927 -262.409763 
L 531.23758 -262.516958 
L 533.884233 -262.689847 
L 536.530887 -262.780212 
L 539.17754 -262.825092 
L 541.824193 -262.945672 
L 544.470847 -263.038831 
L 547.1175 -263.143838 
L 549.764153 -263.252983 
L 552.410807 -263.367239 
L 555.05746 -263.454355 
L 557.704113 -263.602118 
L 560.350767 -263.684036 
L 562.99742 -263.766127 
L 565.644073 -263.832016 
L 568.290727 -263.877762 
L 570.93738 -263.944929 
L 573.584033 -263.985802 
L 576.230687 -264.062261 
L 578.87734 -264.178466 
L 581.523993 -264.309162 
L 584.170647 -264.3783 
L 586.8173 -264.405483 
L 589.463953 -264.489567 
L 592.110607 -264.560655 
L 594.75726 -264.691416 
L 597.403913 -264.769564 
L 600.050567 -264.905545 
L 602.69722 -264.971565 
L 605.343873 -265.083178 
L 607.990527 -265.212834 
L 610.63718 -265.29016 
L 613.283833 -265.363868 
L 615.930487 -265.490687 
L 618.57714 -265.590128 
L 621.223793 -265.66897 
L 623.870447 -265.718831 
L 626.5171 -265.802091 
L 629.163753 -265.862154 
L 631.810407 -265.968634 
L 634.45706 -266.045202 
L 637.103713 -266.14226 
L 639.750367 -266.185839 
L 642.39702 -266.301113 
L 645.043673 -266.357537 
L 647.690327 -266.408763 
L 650.33698 -266.414135 
L 652.983633 -266.478551 
L 655.630287 -266.509286 
L 658.27694 -266.583731 
L 660.923593 -266.645029 
L 663.570247 -266.761343 
L 666.2169 -266.800222 
L 668.863553 -266.952469 
L 671.510207 -267.018727 
L 674.15686 -267.062545 
L 676.803513 -267.178685 
L 679.450167 -267.25796 
L 682.09682 -267.307691 
L 684.743473 -267.427037 
L 687.390127 -267.495483 
L 690.03678 -267.599862 
L 692.683433 -267.657065 
L 695.330087 -267.733438 
L 697.97674 -267.843102 
L 700.623393 -267.92385 
L 703.270047 -268.033038 
L 705.9167 -268.065658 
L 708.563353 -268.125352 
L 711.210007 -268.216584 
L 713.85666 -268.263412 
L 716.503313 -268.361402 
L 719.149967 -268.416894 
L 721.79662 -268.462986 
L 724.443273 -268.540962 
L 727.089927 -268.63241 
L 729.73658 -268.763799 
L 732.383233 -268.846843 
L 735.029887 -268.900256 
L 737.67654 -268.983235 
L 740.323193 -269.059435 
L 742.969847 -269.135634 
L 745.6165 -269.203408 
L 748.263153 -269.26046 
L 750.909807 -269.338999 
L 753.55646 -269.388297 
L 756.203113 -269.557027 
L 758.849767 -269.65558 
L 761.49642 -269.763706 
L 764.143073 -269.848591 
L 766.789727 -269.93523 
L 769.43638 -269.99603 
L 772.083033 -270.024318 
L 774.729687 -270.050353 
L 777.37634 -270.140934 
L 780.022993 -270.174594 
L 782.669647 -270.245313 
L 785.3163 -270.321058 
L 787.962953 -270.372782 
L 790.609607 -270.425025 
L 793.25626 -270.473435 
L 795.902913 -270.537094 
L 798.549567 -270.577684 
L 801.19622 -270.64639 
L 803.842873 -270.717629 
L 806.489527 -270.736711 
L 809.13618 -270.821315 
L 811.782833 -270.847003 
L 814.429487 -270.928683 
L 817.07614 -270.927362 
L 819.722793 -271.002998 
L 822.369447 -271.075775 
L 825.0161 -271.082793 
L 827.662753 -271.174371 
L 830.309407 -271.184768 
L 832.95606 -271.273422 
L 835.602713 -271.287111 
L 838.249367 -271.385663 
L 840.89602 -271.471934 
L 843.542673 -271.498923 
L 843.542673 -372.805455 
L 843.542673 -372.805455 
L 840.89602 -372.771145 
L 838.249367 -372.772228 
L 835.602713 -372.790553 
L 832.95606 -372.734973 
L 830.309407 -372.734887 
L 827.662753 -372.693819 
L 825.0161 -372.712837 
L 822.369447 -372.664145 
L 819.722793 -372.65089 
L 817.07614 -372.677921 
L 814.429487 -372.654139 
L 811.782833 -372.651539 
L 809.13618 -372.596393 
L 806.489527 -372.585737 
L 803.842873 -372.54389 
L 801.19622 -372.537738 
L 798.549567 -372.527731 
L 795.902913 -372.51166 
L 793.25626 -372.481466 
L 790.609607 -372.458636 
L 787.962953 -372.428486 
L 785.3163 -372.38339 
L 782.669647 -372.377455 
L 780.022993 -372.355492 
L 777.37634 -372.306108 
L 774.729687 -372.324995 
L 772.083033 -372.273314 
L 769.43638 -372.236319 
L 766.789727 -372.213533 
L 764.143073 -372.22328 
L 761.49642 -372.197158 
L 758.849767 -372.204306 
L 756.203113 -372.219641 
L 753.55646 -372.274484 
L 750.909807 -372.255077 
L 748.263153 -372.256506 
L 745.6165 -372.225013 
L 742.969847 -372.214876 
L 740.323193 -372.206819 
L 737.67654 -372.194949 
L 735.029887 -372.178184 
L 732.383233 -372.159557 
L 729.73658 -372.134128 
L 727.089927 -372.178531 
L 724.443273 -372.179181 
L 721.79662 -372.156438 
L 719.149967 -372.100209 
L 716.503313 -372.040991 
L 713.85666 -372.046276 
L 711.210007 -371.965701 
L 708.563353 -371.971072 
L 705.9167 -371.976271 
L 703.270047 -371.911421 
L 700.623393 -371.900635 
L 697.97674 -371.889545 
L 695.330087 -371.874469 
L 692.683433 -371.89392 
L 690.03678 -371.878108 
L 687.390127 -371.833056 
L 684.743473 -371.804984 
L 682.09682 -371.79749 
L 679.450167 -371.755946 
L 676.803513 -371.704699 
L 674.15686 -371.709031 
L 671.510207 -371.678577 
L 668.863553 -371.651632 
L 666.2169 -371.663242 
L 663.570247 -371.625164 
L 660.923593 -371.639676 
L 658.27694 -371.601165 
L 655.630287 -371.581974 
L 652.983633 -371.519897 
L 650.33698 -371.511796 
L 647.690327 -371.421691 
L 645.043673 -371.390761 
L 642.39702 -371.313088 
L 639.750367 -371.304598 
L 637.103713 -371.25582 
L 634.45706 -371.25491 
L 631.810407 -371.225626 
L 629.163753 -371.227272 
L 626.5171 -371.196515 
L 623.870447 -371.175895 
L 621.223793 -371.098786 
L 618.57714 -371.08345 
L 615.930487 -371.057892 
L 613.283833 -371.05174 
L 610.63718 -371.027698 
L 607.990527 -370.987844 
L 605.343873 -370.98988 
L 602.69722 -370.994125 
L 600.050567 -370.958603 
L 597.403913 -370.984248 
L 594.75726 -370.977663 
L 592.110607 -370.979526 
L 589.463953 -370.962155 
L 586.8173 -370.905579 
L 584.170647 -370.819026 
L 581.523993 -370.752531 
L 578.87734 -370.741138 
L 576.230687 -370.748718 
L 573.584033 -370.699334 
L 570.93738 -370.587786 
L 568.290727 -370.508727 
L 565.644073 -370.443314 
L 562.99742 -370.418968 
L 560.350767 -370.352603 
L 557.704113 -370.285977 
L 555.05746 -370.276446 
L 552.410807 -370.280172 
L 549.764153 -370.229878 
L 547.1175 -370.186471 
L 544.470847 -370.143065 
L 541.824193 -370.071241 
L 539.17754 -370.049841 
L 536.530887 -369.971822 
L 533.884233 -369.927722 
L 531.23758 -369.976587 
L 528.590927 -369.93539 
L 525.944273 -369.905023 
L 523.29762 -369.829863 
L 520.650967 -369.714849 
L 518.004313 -369.643848 
L 515.35766 -369.633408 
L 512.711007 -369.576875 
L 510.064353 -369.553223 
L 507.4177 -369.446829 
L 504.771047 -369.443797 
L 502.124393 -369.409878 
L 499.47774 -369.393633 
L 496.831087 -369.336494 
L 494.184433 -369.26415 
L 491.53778 -369.155504 
L 488.891127 -369.140299 
L 486.244473 -369.001286 
L 483.59782 -368.950731 
L 480.951167 -368.936869 
L 478.304513 -368.942024 
L 475.65786 -368.857724 
L 473.011207 -368.817653 
L 470.364553 -368.810722 
L 467.7179 -368.749294 
L 465.071247 -368.692979 
L 462.424593 -368.677644 
L 459.77794 -368.662135 
L 457.131287 -368.657803 
L 454.484633 -368.555915 
L 451.83798 -368.449088 
L 449.191327 -368.372066 
L 446.544673 -368.348413 
L 443.89802 -368.357207 
L 441.251367 -368.34772 
L 438.604713 -368.390607 
L 435.95806 -368.392686 
L 433.311407 -368.311202 
L 430.664753 -368.196448 
L 428.0181 -368.169589 
L 425.371447 -368.084163 
L 422.724793 -368.086762 
L 420.07814 -368.023602 
L 417.431487 -367.97517 
L 414.784833 -367.878567 
L 412.13818 -367.756622 
L 409.491527 -367.723136 
L 406.844873 -367.648539 
L 404.19822 -367.596729 
L 401.551567 -367.45425 
L 398.904913 -367.400577 
L 396.25826 -367.353531 
L 393.611607 -367.29505 
L 390.964953 -367.211573 
L 388.3183 -367.151228 
L 385.671647 -367.093526 
L 383.024993 -367.053152 
L 380.37834 -366.93164 
L 377.731687 -366.728644 
L 375.085033 -366.571306 
L 372.43838 -366.442603 
L 369.791727 -366.370433 
L 367.145073 -366.346737 
L 364.49842 -366.2604 
L 361.851767 -366.169212 
L 359.205113 -366.171811 
L 356.55846 -366.093619 
L 353.911807 -365.934592 
L 351.265153 -365.826986 
L 348.6185 -365.723668 
L 345.971847 -365.569883 
L 343.325193 -365.480255 
L 340.67854 -365.391233 
L 338.031887 -365.264002 
L 335.385233 -365.176886 
L 332.73858 -365.104196 
L 330.091927 -365.009932 
L 327.445273 -364.910686 
L 324.79862 -364.767341 
L 322.151967 -364.647519 
L 319.505313 -364.52735 
L 316.85866 -364.416884 
L 314.212007 -364.415715 
L 311.565353 -364.284412 
L 308.9187 -364.180358 
L 306.272047 -364.174813 
L 303.625393 -364.131017 
L 300.97874 -364.021981 
L 298.332087 -364.009938 
L 295.685433 -363.792386 
L 293.03878 -363.706353 
L 290.392127 -363.584755 
L 287.745473 -363.432053 
L 285.09882 -363.287754 
L 282.452167 -363.185476 
L 279.805513 -363.03507 
L 277.15886 -362.952329 
L 274.512207 -362.706836 
L 271.865553 -362.550842 
L 269.2189 -362.450167 
L 266.572247 -362.23569 
L 263.925593 -362.054744 
L 261.27894 -361.844643 
L 258.632287 -361.684057 
L 255.985633 -361.533477 
L 253.33898 -361.43969 
L 250.692327 -361.481797 
L 248.045673 -361.310077 
L 245.39902 -361.197056 
L 242.752367 -360.872287 
L 240.105713 -360.667385 
L 237.45906 -360.429689 
L 234.812407 -360.299297 
L 232.165753 -360.242721 
L 229.5191 -360.025039 
L 226.872447 -359.858951 
L 224.225793 -359.664056 
L 221.57914 -359.543497 
L 218.932487 -359.33045 
L 216.285833 -359.251651 
L 213.63918 -359.088812 
L 210.992527 -358.824822 
L 208.345873 -358.723367 
L 205.69922 -358.527172 
L 203.052567 -358.33977 
L 200.405913 -357.964578 
L 197.75926 -357.831759 
L 195.112607 -357.571061 
L 192.465953 -357.114384 
L 189.8193 -356.920268 
L 187.172647 -356.55283 
L 184.525993 -356.170013 
L 181.87934 -355.776583 
L 179.232687 -355.596329 
L 176.586033 -355.25341 
L 173.93938 -355.025136 
L 171.292727 -354.85437 
L 168.646073 -354.521284 
L 165.99942 -354.187094 
L 163.352767 -353.947925 
L 160.706113 -353.689436 
L 158.05946 -353.573339 
L 155.412807 -353.487848 
L 152.766153 -353.137282 
L 150.1195 -352.567584 
L 147.472847 -352.244115 
L 144.826193 -351.841523 
L 142.17954 -351.533585 
L 139.532887 -351.017819 
L 136.886233 -350.838129 
L 134.23958 -350.485614 
L 131.592927 -349.892935 
L 128.946273 -349.635117 
L 126.29962 -349.200967 
L 123.652967 -348.878906 
L 121.006313 -348.575277 
L 118.35966 -347.80059 
L 115.713007 -347.333581 
L 113.066353 -346.864017 
L 110.4197 -346.32592 
L 107.773047 -345.814552 
L 105.126393 -345.286311 
L 102.47974 -344.937933 
L 99.833087 -344.174119 
L 97.186433 -342.893196 
L 94.53978 -341.837147 
L 91.893127 -341.004454 
L 89.246473 -339.813356 
L 86.59982 -338.44131 
L 83.953167 -337.511473 
L 81.306513 -336.327955 
L 78.65986 -334.744856 
L 76.013207 -333.080034 
L 73.366553 -331.836172 
L 70.7199 -330.124131 
L 68.073247 -327.909689 
L 65.426593 -324.858981 
L 62.77994 -321.496652 
L 60.133287 -317.897971 
L 57.486633 -313.695671 
L 54.83998 -307.251942 
L 52.193327 -307.207583 
z
" style="stroke: #0000ff; stroke-opacity: 0.2"/>
    </defs>
    <g clip-path="url(#p5ebc73c753)">
     <use xlink:href="#ma3e58750fa" x="0" y="432" style="fill: #0000ff; fill-opacity: 0.2; stroke: #0000ff; stroke-opacity: 0.2"/>
    </g>
   </g>
   <g id="matplotlib.axis_1">
    <g id="xtick_1">
     <g id="line2d_1">
      <defs>
       <path id="m9870d84536" d="M 0 0 
L 0 3.5 
" style="stroke: #000000; stroke-width: 0.8"/>
      </defs>
      <g>
       <use xlink:href="#m9870d84536" x="181.87934" y="390.04" style="stroke: #000000; stroke-width: 0.8"/>
      </g>
     </g>
     <g id="text_1">
      <!-- 50 -->
      <g transform="translate(175.51684 404.638438) scale(0.1 -0.1)">
       <defs>
        <path id="DejaVuSans-35" d="M 691 4666 
L 3169 4666 
L 3169 4134 
L 1269 4134 
L 1269 2991 
Q 1406 3038 1543 3061 
Q 1681 3084 1819 3084 
Q 2600 3084 3056 2656 
Q 3513 2228 3513 1497 
Q 3513 744 3044 326 
Q 2575 -91 1722 -91 
Q 1428 -91 1123 -41 
Q 819 9 494 109 
L 494 744 
Q 775 591 1075 516 
Q 1375 441 1709 441 
Q 2250 441 2565 725 
Q 2881 1009 2881 1497 
Q 2881 1984 2565 2268 
Q 2250 2553 1709 2553 
Q 1456 2553 1204 2497 
Q 953 2441 691 2322 
L 691 4666 
z
" transform="scale(0.015625)"/>
        <path id="DejaVuSans-30" d="M 2034 4250 
Q 1547 4250 1301 3770 
Q 1056 3291 1056 2328 
Q 1056 1369 1301 889 
Q 1547 409 2034 409 
Q 2525 409 2770 889 
Q 3016 1369 3016 2328 
Q 3016 3291 2770 3770 
Q 2525 4250 2034 4250 
z
M 2034 4750 
Q 2819 4750 3233 4129 
Q 3647 3509 3647 2328 
Q 3647 1150 3233 529 
Q 2819 -91 2034 -91 
Q 1250 -91 836 529 
Q 422 1150 422 2328 
Q 422 3509 836 4129 
Q 1250 4750 2034 4750 
z
" transform="scale(0.015625)"/>
       </defs>
       <use xlink:href="#DejaVuSans-35"/>
       <use xlink:href="#DejaVuSans-30" transform="translate(63.623047 0)"/>
      </g>
     </g>
    </g>
    <g id="xtick_2">
     <g id="line2d_2">
      <g>
       <use xlink:href="#m9870d84536" x="314.212007" y="390.04" style="stroke: #000000; stroke-width: 0.8"/>
      </g>
     </g>
     <g id="text_2">
      <!-- 100 -->
      <g transform="translate(304.668257 404.638438) scale(0.1 -0.1)">
       <defs>
        <path id="DejaVuSans-31" d="M 794 531 
L 1825 531 
L 1825 4091 
L 703 3866 
L 703 4441 
L 1819 4666 
L 2450 4666 
L 2450 531 
L 3481 531 
L 3481 0 
L 794 0 
L 794 531 
z
" transform="scale(0.015625)"/>
       </defs>
       <use xlink:href="#DejaVuSans-31"/>
       <use xlink:href="#DejaVuSans-30" transform="translate(63.623047 0)"/>
       <use xlink:href="#DejaVuSans-30" transform="translate(127.246094 0)"/>
      </g>
     </g>
    </g>
    <g id="xtick_3">
     <g id="line2d_3">
      <g>
       <use xlink:href="#m9870d84536" x="446.544673" y="390.04" style="stroke: #000000; stroke-width: 0.8"/>
      </g>
     </g>
     <g id="text_3">
      <!-- 150 -->
      <g transform="translate(437.000923 404.638438) scale(0.1 -0.1)">
       <use xlink:href="#DejaVuSans-31"/>
       <use xlink:href="#DejaVuSans-35" transform="translate(63.623047 0)"/>
       <use xlink:href="#DejaVuSans-30" transform="translate(127.246094 0)"/>
      </g>
     </g>
    </g>
    <g id="xtick_4">
     <g id="line2d_4">
      <g>
       <use xlink:href="#m9870d84536" x="578.87734" y="390.04" style="stroke: #000000; stroke-width: 0.8"/>
      </g>
     </g>
     <g id="text_4">
      <!-- 200 -->
      <g transform="translate(569.33359 404.638438) scale(0.1 -0.1)">
       <defs>
        <path id="DejaVuSans-32" d="M 1228 531 
L 3431 531 
L 3431 0 
L 469 0 
L 469 531 
Q 828 903 1448 1529 
Q 2069 2156 2228 2338 
Q 2531 2678 2651 2914 
Q 2772 3150 2772 3378 
Q 2772 3750 2511 3984 
Q 2250 4219 1831 4219 
Q 1534 4219 1204 4116 
Q 875 4013 500 3803 
L 500 4441 
Q 881 4594 1212 4672 
Q 1544 4750 1819 4750 
Q 2544 4750 2975 4387 
Q 3406 4025 3406 3419 
Q 3406 3131 3298 2873 
Q 3191 2616 2906 2266 
Q 2828 2175 2409 1742 
Q 1991 1309 1228 531 
z
" transform="scale(0.015625)"/>
       </defs>
       <use xlink:href="#DejaVuSans-32"/>
       <use xlink:href="#DejaVuSans-30" transform="translate(63.623047 0)"/>
       <use xlink:href="#DejaVuSans-30" transform="translate(127.246094 0)"/>
      </g>
     </g>
    </g>
    <g id="xtick_5">
     <g id="line2d_5">
      <g>
       <use xlink:href="#m9870d84536" x="711.210007" y="390.04" style="stroke: #000000; stroke-width: 0.8"/>
      </g>
     </g>
     <g id="text_5">
      <!-- 250 -->
      <g transform="translate(701.666257 404.638438) scale(0.1 -0.1)">
       <use xlink:href="#DejaVuSans-32"/>
       <use xlink:href="#DejaVuSans-35" transform="translate(63.623047 0)"/>
       <use xlink:href="#DejaVuSans-30" transform="translate(127.246094 0)"/>
      </g>
     </g>
    </g>
    <g id="xtick_6">
     <g id="line2d_6">
      <g>
       <use xlink:href="#m9870d84536" x="843.542673" y="390.04" style="stroke: #000000; stroke-width: 0.8"/>
      </g>
     </g>
     <g id="text_6">
      <!-- 300 -->
      <g transform="translate(833.998923 404.638438) scale(0.1 -0.1)">
       <defs>
        <path id="DejaVuSans-33" d="M 2597 2516 
Q 3050 2419 3304 2112 
Q 3559 1806 3559 1356 
Q 3559 666 3084 287 
Q 2609 -91 1734 -91 
Q 1441 -91 1130 -33 
Q 819 25 488 141 
L 488 750 
Q 750 597 1062 519 
Q 1375 441 1716 441 
Q 2309 441 2620 675 
Q 2931 909 2931 1356 
Q 2931 1769 2642 2001 
Q 2353 2234 1838 2234 
L 1294 2234 
L 1294 2753 
L 1863 2753 
Q 2328 2753 2575 2939 
Q 2822 3125 2822 3475 
Q 2822 3834 2567 4026 
Q 2313 4219 1838 4219 
Q 1578 4219 1281 4162 
Q 984 4106 628 3988 
L 628 4550 
Q 988 4650 1302 4700 
Q 1616 4750 1894 4750 
Q 2613 4750 3031 4423 
Q 3450 4097 3450 3541 
Q 3450 3153 3228 2886 
Q 3006 2619 2597 2516 
z
" transform="scale(0.015625)"/>
       </defs>
       <use xlink:href="#DejaVuSans-33"/>
       <use xlink:href="#DejaVuSans-30" transform="translate(63.623047 0)"/>
       <use xlink:href="#DejaVuSans-30" transform="translate(127.246094 0)"/>
      </g>
     </g>
    </g>
    <g id="text_7">
     <!-- Step -->
     <g transform="translate(436.482844 418.316562) scale(0.1 -0.1)">
      <defs>
       <path id="DejaVuSans-53" d="M 3425 4513 
L 3425 3897 
Q 3066 4069 2747 4153 
Q 2428 4238 2131 4238 
Q 1616 4238 1336 4038 
Q 1056 3838 1056 3469 
Q 1056 3159 1242 3001 
Q 1428 2844 1947 2747 
L 2328 2669 
Q 3034 2534 3370 2195 
Q 3706 1856 3706 1288 
Q 3706 609 3251 259 
Q 2797 -91 1919 -91 
Q 1588 -91 1214 -16 
Q 841 59 441 206 
L 441 856 
Q 825 641 1194 531 
Q 1563 422 1919 422 
Q 2459 422 2753 634 
Q 3047 847 3047 1241 
Q 3047 1584 2836 1778 
Q 2625 1972 2144 2069 
L 1759 2144 
Q 1053 2284 737 2584 
Q 422 2884 422 3419 
Q 422 4038 858 4394 
Q 1294 4750 2059 4750 
Q 2388 4750 2728 4690 
Q 3069 4631 3425 4513 
z
" transform="scale(0.015625)"/>
       <path id="DejaVuSans-74" d="M 1172 4494 
L 1172 3500 
L 2356 3500 
L 2356 3053 
L 1172 3053 
L 1172 1153 
Q 1172 725 1289 603 
Q 1406 481 1766 481 
L 2356 481 
L 2356 0 
L 1766 0 
Q 1100 0 847 248 
Q 594 497 594 1153 
L 594 3053 
L 172 3053 
L 172 3500 
L 594 3500 
L 594 4494 
L 1172 4494 
z
" transform="scale(0.015625)"/>
       <path id="DejaVuSans-65" d="M 3597 1894 
L 3597 1613 
L 953 1613 
Q 991 1019 1311 708 
Q 1631 397 2203 397 
Q 2534 397 2845 478 
Q 3156 559 3463 722 
L 3463 178 
Q 3153 47 2828 -22 
Q 2503 -91 2169 -91 
Q 1331 -91 842 396 
Q 353 884 353 1716 
Q 353 2575 817 3079 
Q 1281 3584 2069 3584 
Q 2775 3584 3186 3129 
Q 3597 2675 3597 1894 
z
M 3022 2063 
Q 3016 2534 2758 2815 
Q 2500 3097 2075 3097 
Q 1594 3097 1305 2825 
Q 1016 2553 972 2059 
L 3022 2063 
z
" transform="scale(0.015625)"/>
       <path id="DejaVuSans-70" d="M 1159 525 
L 1159 -1331 
L 581 -1331 
L 581 3500 
L 1159 3500 
L 1159 2969 
Q 1341 3281 1617 3432 
Q 1894 3584 2278 3584 
Q 2916 3584 3314 3078 
Q 3713 2572 3713 1747 
Q 3713 922 3314 415 
Q 2916 -91 2278 -91 
Q 1894 -91 1617 61 
Q 1341 213 1159 525 
z
M 3116 1747 
Q 3116 2381 2855 2742 
Q 2594 3103 2138 3103 
Q 1681 3103 1420 2742 
Q 1159 2381 1159 1747 
Q 1159 1113 1420 752 
Q 1681 391 2138 391 
Q 2594 391 2855 752 
Q 3116 1113 3116 1747 
z
" transform="scale(0.015625)"/>
      </defs>
      <use xlink:href="#DejaVuSans-53"/>
      <use xlink:href="#DejaVuSans-74" transform="translate(63.476562 0)"/>
      <use xlink:href="#DejaVuSans-65" transform="translate(102.685547 0)"/>
      <use xlink:href="#DejaVuSans-70" transform="translate(164.208984 0)"/>
     </g>
    </g>
   </g>
   <g id="matplotlib.axis_2">
    <g id="ytick_1">
     <g id="line2d_7">
      <defs>
       <path id="m4943737271" d="M 0 0 
L -3.5 0 
" style="stroke: #000000; stroke-width: 0.8"/>
      </defs>
      <g>
       <use xlink:href="#m4943737271" x="50.87" y="383.397064" style="stroke: #000000; stroke-width: 0.8"/>
      </g>
     </g>
     <g id="text_8">
      <!-- 20 -->
      <g transform="translate(31.145 387.196283) scale(0.1 -0.1)">
       <use xlink:href="#DejaVuSans-32"/>
       <use xlink:href="#DejaVuSans-30" transform="translate(63.623047 0)"/>
      </g>
     </g>
    </g>
    <g id="ytick_2">
     <g id="line2d_8">
      <g>
       <use xlink:href="#m4943737271" x="50.87" y="326.616975" style="stroke: #000000; stroke-width: 0.8"/>
      </g>
     </g>
     <g id="text_9">
      <!-- 40 -->
      <g transform="translate(31.145 330.416194) scale(0.1 -0.1)">
       <defs>
        <path id="DejaVuSans-34" d="M 2419 4116 
L 825 1625 
L 2419 1625 
L 2419 4116 
z
M 2253 4666 
L 3047 4666 
L 3047 1625 
L 3713 1625 
L 3713 1100 
L 3047 1100 
L 3047 0 
L 2419 0 
L 2419 1100 
L 313 1100 
L 313 1709 
L 2253 4666 
z
" transform="scale(0.015625)"/>
       </defs>
       <use xlink:href="#DejaVuSans-34"/>
       <use xlink:href="#DejaVuSans-30" transform="translate(63.623047 0)"/>
      </g>
     </g>
    </g>
    <g id="ytick_3">
     <g id="line2d_9">
      <g>
       <use xlink:href="#m4943737271" x="50.87" y="269.836885" style="stroke: #000000; stroke-width: 0.8"/>
      </g>
     </g>
     <g id="text_10">
      <!-- 60 -->
      <g transform="translate(31.145 273.636104) scale(0.1 -0.1)">
       <defs>
        <path id="DejaVuSans-36" d="M 2113 2584 
Q 1688 2584 1439 2293 
Q 1191 2003 1191 1497 
Q 1191 994 1439 701 
Q 1688 409 2113 409 
Q 2538 409 2786 701 
Q 3034 994 3034 1497 
Q 3034 2003 2786 2293 
Q 2538 2584 2113 2584 
z
M 3366 4563 
L 3366 3988 
Q 3128 4100 2886 4159 
Q 2644 4219 2406 4219 
Q 1781 4219 1451 3797 
Q 1122 3375 1075 2522 
Q 1259 2794 1537 2939 
Q 1816 3084 2150 3084 
Q 2853 3084 3261 2657 
Q 3669 2231 3669 1497 
Q 3669 778 3244 343 
Q 2819 -91 2113 -91 
Q 1303 -91 875 529 
Q 447 1150 447 2328 
Q 447 3434 972 4092 
Q 1497 4750 2381 4750 
Q 2619 4750 2861 4703 
Q 3103 4656 3366 4563 
z
" transform="scale(0.015625)"/>
       </defs>
       <use xlink:href="#DejaVuSans-36"/>
       <use xlink:href="#DejaVuSans-30" transform="translate(63.623047 0)"/>
      </g>
     </g>
    </g>
    <g id="ytick_4">
     <g id="line2d_10">
      <g>
       <use xlink:href="#m4943737271" x="50.87" y="213.056796" style="stroke: #000000; stroke-width: 0.8"/>
      </g>
     </g>
     <g id="text_11">
      <!-- 80 -->
      <g transform="translate(31.145 216.856015) scale(0.1 -0.1)">
       <defs>
        <path id="DejaVuSans-38" d="M 2034 2216 
Q 1584 2216 1326 1975 
Q 1069 1734 1069 1313 
Q 1069 891 1326 650 
Q 1584 409 2034 409 
Q 2484 409 2743 651 
Q 3003 894 3003 1313 
Q 3003 1734 2745 1975 
Q 2488 2216 2034 2216 
z
M 1403 2484 
Q 997 2584 770 2862 
Q 544 3141 544 3541 
Q 544 4100 942 4425 
Q 1341 4750 2034 4750 
Q 2731 4750 3128 4425 
Q 3525 4100 3525 3541 
Q 3525 3141 3298 2862 
Q 3072 2584 2669 2484 
Q 3125 2378 3379 2068 
Q 3634 1759 3634 1313 
Q 3634 634 3220 271 
Q 2806 -91 2034 -91 
Q 1263 -91 848 271 
Q 434 634 434 1313 
Q 434 1759 690 2068 
Q 947 2378 1403 2484 
z
M 1172 3481 
Q 1172 3119 1398 2916 
Q 1625 2713 2034 2713 
Q 2441 2713 2670 2916 
Q 2900 3119 2900 3481 
Q 2900 3844 2670 4047 
Q 2441 4250 2034 4250 
Q 1625 4250 1398 4047 
Q 1172 3844 1172 3481 
z
" transform="scale(0.015625)"/>
       </defs>
       <use xlink:href="#DejaVuSans-38"/>
       <use xlink:href="#DejaVuSans-30" transform="translate(63.623047 0)"/>
      </g>
     </g>
    </g>
    <g id="ytick_5">
     <g id="line2d_11">
      <g>
       <use xlink:href="#m4943737271" x="50.87" y="156.276707" style="stroke: #000000; stroke-width: 0.8"/>
      </g>
     </g>
     <g id="text_12">
      <!-- 100 -->
      <g transform="translate(24.7825 160.075925) scale(0.1 -0.1)">
       <use xlink:href="#DejaVuSans-31"/>
       <use xlink:href="#DejaVuSans-30" transform="translate(63.623047 0)"/>
       <use xlink:href="#DejaVuSans-30" transform="translate(127.246094 0)"/>
      </g>
     </g>
    </g>
    <g id="ytick_6">
     <g id="line2d_12">
      <g>
       <use xlink:href="#m4943737271" x="50.87" y="99.496617" style="stroke: #000000; stroke-width: 0.8"/>
      </g>
     </g>
     <g id="text_13">
      <!-- 120 -->
      <g transform="translate(24.7825 103.295836) scale(0.1 -0.1)">
       <use xlink:href="#DejaVuSans-31"/>
       <use xlink:href="#DejaVuSans-32" transform="translate(63.623047 0)"/>
       <use xlink:href="#DejaVuSans-30" transform="translate(127.246094 0)"/>
      </g>
     </g>
    </g>
    <g id="text_14">
     <!-- Profit -->
     <g transform="translate(18.702813 229.779063) rotate(-90) scale(0.1 -0.1)">
      <defs>
       <path id="DejaVuSans-50" d="M 1259 4147 
L 1259 2394 
L 2053 2394 
Q 2494 2394 2734 2622 
Q 2975 2850 2975 3272 
Q 2975 3691 2734 3919 
Q 2494 4147 2053 4147 
L 1259 4147 
z
M 628 4666 
L 2053 4666 
Q 2838 4666 3239 4311 
Q 3641 3956 3641 3272 
Q 3641 2581 3239 2228 
Q 2838 1875 2053 1875 
L 1259 1875 
L 1259 0 
L 628 0 
L 628 4666 
z
" transform="scale(0.015625)"/>
       <path id="DejaVuSans-72" d="M 2631 2963 
Q 2534 3019 2420 3045 
Q 2306 3072 2169 3072 
Q 1681 3072 1420 2755 
Q 1159 2438 1159 1844 
L 1159 0 
L 581 0 
L 581 3500 
L 1159 3500 
L 1159 2956 
Q 1341 3275 1631 3429 
Q 1922 3584 2338 3584 
Q 2397 3584 2469 3576 
Q 2541 3569 2628 3553 
L 2631 2963 
z
" transform="scale(0.015625)"/>
       <path id="DejaVuSans-6f" d="M 1959 3097 
Q 1497 3097 1228 2736 
Q 959 2375 959 1747 
Q 959 1119 1226 758 
Q 1494 397 1959 397 
Q 2419 397 2687 759 
Q 2956 1122 2956 1747 
Q 2956 2369 2687 2733 
Q 2419 3097 1959 3097 
z
M 1959 3584 
Q 2709 3584 3137 3096 
Q 3566 2609 3566 1747 
Q 3566 888 3137 398 
Q 2709 -91 1959 -91 
Q 1206 -91 779 398 
Q 353 888 353 1747 
Q 353 2609 779 3096 
Q 1206 3584 1959 3584 
z
" transform="scale(0.015625)"/>
       <path id="DejaVuSans-66" d="M 2375 4863 
L 2375 4384 
L 1825 4384 
Q 1516 4384 1395 4259 
Q 1275 4134 1275 3809 
L 1275 3500 
L 2222 3500 
L 2222 3053 
L 1275 3053 
L 1275 0 
L 697 0 
L 697 3053 
L 147 3053 
L 147 3500 
L 697 3500 
L 697 3744 
Q 697 4328 969 4595 
Q 1241 4863 1831 4863 
L 2375 4863 
z
" transform="scale(0.015625)"/>
       <path id="DejaVuSans-69" d="M 603 3500 
L 1178 3500 
L 1178 0 
L 603 0 
L 603 3500 
z
M 603 4863 
L 1178 4863 
L 1178 4134 
L 603 4134 
L 603 4863 
z
" transform="scale(0.015625)"/>
      </defs>
      <use xlink:href="#DejaVuSans-50"/>
      <use xlink:href="#DejaVuSans-72" transform="translate(58.552734 0)"/>
      <use xlink:href="#DejaVuSans-6f" transform="translate(97.416016 0)"/>
      <use xlink:href="#DejaVuSans-66" transform="translate(158.597656 0)"/>
      <use xlink:href="#DejaVuSans-69" transform="translate(193.802734 0)"/>
      <use xlink:href="#DejaVuSans-74" transform="translate(221.585938 0)"/>
     </g>
    </g>
   </g>
   <g id="line2d_13">
    <path d="M 52.193327 249.538931 
L 54.83998 249.140064 
L 57.486633 237.419315 
L 60.133287 227.390247 
L 62.77994 218.933794 
L 65.426593 211.636926 
L 68.073247 205.485562 
L 70.7199 200.241119 
L 73.366553 195.537436 
L 78.65986 187.747545 
L 83.953167 181.157698 
L 89.246473 175.697501 
L 91.893127 173.309434 
L 94.53978 171.110696 
L 102.47974 165.225748 
L 107.773047 162.068213 
L 110.4197 160.565104 
L 113.066353 159.197022 
L 123.652967 154.418852 
L 128.946273 152.381263 
L 134.23958 150.614423 
L 142.17954 148.078267 
L 147.472847 146.549599 
L 158.05946 143.970253 
L 160.706113 143.436813 
L 163.352767 142.779219 
L 173.93938 140.781311 
L 181.87934 139.321435 
L 195.112607 136.991416 
L 210.992527 134.616453 
L 232.165753 132.015708 
L 255.985633 129.557094 
L 290.392127 126.744536 
L 332.73858 123.772843 
L 338.031887 123.486305 
L 348.6185 122.841815 
L 372.43838 121.645929 
L 406.844873 119.975411 
L 425.371447 119.224051 
L 457.131287 118.023812 
L 483.59782 117.132117 
L 502.124393 116.564997 
L 510.064353 116.336701 
L 541.824193 115.491533 
L 562.99742 114.907452 
L 578.87734 114.540209 
L 600.050567 114.067915 
L 777.37634 110.776479 
L 843.542673 109.847811 
L 843.542673 109.847811 
" clip-path="url(#p5ebc73c753)" style="fill: none; stroke: #0000ff; stroke-width: 1.5; stroke-linecap: square"/>
   </g>
   <g id="patch_3">
    <path d="M 50.87 390.04 
L 50.87 43.44 
" style="fill: none; stroke: #000000; stroke-width: 0.8; stroke-linejoin: miter; stroke-linecap: square"/>
   </g>
   <g id="patch_4">
    <path d="M 844.866 390.04 
L 844.866 43.44 
" style="fill: none; stroke: #000000; stroke-width: 0.8; stroke-linejoin: miter; stroke-linecap: square"/>
   </g>
   <g id="patch_5">
    <path d="M 50.87 390.04 
L 844.866 390.04 
" style="fill: none; stroke: #000000; stroke-width: 0.8; stroke-linejoin: miter; stroke-linecap: square"/>
   </g>
   <g id="patch_6">
    <path d="M 50.87 43.44 
L 844.866 43.44 
" style="fill: none; stroke: #000000; stroke-width: 0.8; stroke-linejoin: miter; stroke-linecap: square"/>
   </g>
   <g id="text_15">
    <!-- Mean profit per step with confidence interval per simulation step -->
    <g transform="translate(220.284875 21.763062) scale(0.14 -0.14)">
     <defs>
      <path id="DejaVuSans-4d" d="M 628 4666 
L 1569 4666 
L 2759 1491 
L 3956 4666 
L 4897 4666 
L 4897 0 
L 4281 0 
L 4281 4097 
L 3078 897 
L 2444 897 
L 1241 4097 
L 1241 0 
L 628 0 
L 628 4666 
z
" transform="scale(0.015625)"/>
      <path id="DejaVuSans-61" d="M 2194 1759 
Q 1497 1759 1228 1600 
Q 959 1441 959 1056 
Q 959 750 1161 570 
Q 1363 391 1709 391 
Q 2188 391 2477 730 
Q 2766 1069 2766 1631 
L 2766 1759 
L 2194 1759 
z
M 3341 1997 
L 3341 0 
L 2766 0 
L 2766 531 
Q 2569 213 2275 61 
Q 1981 -91 1556 -91 
Q 1019 -91 701 211 
Q 384 513 384 1019 
Q 384 1609 779 1909 
Q 1175 2209 1959 2209 
L 2766 2209 
L 2766 2266 
Q 2766 2663 2505 2880 
Q 2244 3097 1772 3097 
Q 1472 3097 1187 3025 
Q 903 2953 641 2809 
L 641 3341 
Q 956 3463 1253 3523 
Q 1550 3584 1831 3584 
Q 2591 3584 2966 3190 
Q 3341 2797 3341 1997 
z
" transform="scale(0.015625)"/>
      <path id="DejaVuSans-6e" d="M 3513 2113 
L 3513 0 
L 2938 0 
L 2938 2094 
Q 2938 2591 2744 2837 
Q 2550 3084 2163 3084 
Q 1697 3084 1428 2787 
Q 1159 2491 1159 1978 
L 1159 0 
L 581 0 
L 581 3500 
L 1159 3500 
L 1159 2956 
Q 1366 3272 1645 3428 
Q 1925 3584 2291 3584 
Q 2894 3584 3203 3211 
Q 3513 2838 3513 2113 
z
" transform="scale(0.015625)"/>
      <path id="DejaVuSans-20" transform="scale(0.015625)"/>
      <path id="DejaVuSans-73" d="M 2834 3397 
L 2834 2853 
Q 2591 2978 2328 3040 
Q 2066 3103 1784 3103 
Q 1356 3103 1142 2972 
Q 928 2841 928 2578 
Q 928 2378 1081 2264 
Q 1234 2150 1697 2047 
L 1894 2003 
Q 2506 1872 2764 1633 
Q 3022 1394 3022 966 
Q 3022 478 2636 193 
Q 2250 -91 1575 -91 
Q 1294 -91 989 -36 
Q 684 19 347 128 
L 347 722 
Q 666 556 975 473 
Q 1284 391 1588 391 
Q 1994 391 2212 530 
Q 2431 669 2431 922 
Q 2431 1156 2273 1281 
Q 2116 1406 1581 1522 
L 1381 1569 
Q 847 1681 609 1914 
Q 372 2147 372 2553 
Q 372 3047 722 3315 
Q 1072 3584 1716 3584 
Q 2034 3584 2315 3537 
Q 2597 3491 2834 3397 
z
" transform="scale(0.015625)"/>
      <path id="DejaVuSans-77" d="M 269 3500 
L 844 3500 
L 1563 769 
L 2278 3500 
L 2956 3500 
L 3675 769 
L 4391 3500 
L 4966 3500 
L 4050 0 
L 3372 0 
L 2619 2869 
L 1863 0 
L 1184 0 
L 269 3500 
z
" transform="scale(0.015625)"/>
      <path id="DejaVuSans-68" d="M 3513 2113 
L 3513 0 
L 2938 0 
L 2938 2094 
Q 2938 2591 2744 2837 
Q 2550 3084 2163 3084 
Q 1697 3084 1428 2787 
Q 1159 2491 1159 1978 
L 1159 0 
L 581 0 
L 581 4863 
L 1159 4863 
L 1159 2956 
Q 1366 3272 1645 3428 
Q 1925 3584 2291 3584 
Q 2894 3584 3203 3211 
Q 3513 2838 3513 2113 
z
" transform="scale(0.015625)"/>
      <path id="DejaVuSans-63" d="M 3122 3366 
L 3122 2828 
Q 2878 2963 2633 3030 
Q 2388 3097 2138 3097 
Q 1578 3097 1268 2742 
Q 959 2388 959 1747 
Q 959 1106 1268 751 
Q 1578 397 2138 397 
Q 2388 397 2633 464 
Q 2878 531 3122 666 
L 3122 134 
Q 2881 22 2623 -34 
Q 2366 -91 2075 -91 
Q 1284 -91 818 406 
Q 353 903 353 1747 
Q 353 2603 823 3093 
Q 1294 3584 2113 3584 
Q 2378 3584 2631 3529 
Q 2884 3475 3122 3366 
z
" transform="scale(0.015625)"/>
      <path id="DejaVuSans-64" d="M 2906 2969 
L 2906 4863 
L 3481 4863 
L 3481 0 
L 2906 0 
L 2906 525 
Q 2725 213 2448 61 
Q 2172 -91 1784 -91 
Q 1150 -91 751 415 
Q 353 922 353 1747 
Q 353 2572 751 3078 
Q 1150 3584 1784 3584 
Q 2172 3584 2448 3432 
Q 2725 3281 2906 2969 
z
M 947 1747 
Q 947 1113 1208 752 
Q 1469 391 1925 391 
Q 2381 391 2643 752 
Q 2906 1113 2906 1747 
Q 2906 2381 2643 2742 
Q 2381 3103 1925 3103 
Q 1469 3103 1208 2742 
Q 947 2381 947 1747 
z
" transform="scale(0.015625)"/>
      <path id="DejaVuSans-76" d="M 191 3500 
L 800 3500 
L 1894 563 
L 2988 3500 
L 3597 3500 
L 2284 0 
L 1503 0 
L 191 3500 
z
" transform="scale(0.015625)"/>
      <path id="DejaVuSans-6c" d="M 603 4863 
L 1178 4863 
L 1178 0 
L 603 0 
L 603 4863 
z
" transform="scale(0.015625)"/>
      <path id="DejaVuSans-6d" d="M 3328 2828 
Q 3544 3216 3844 3400 
Q 4144 3584 4550 3584 
Q 5097 3584 5394 3201 
Q 5691 2819 5691 2113 
L 5691 0 
L 5113 0 
L 5113 2094 
Q 5113 2597 4934 2840 
Q 4756 3084 4391 3084 
Q 3944 3084 3684 2787 
Q 3425 2491 3425 1978 
L 3425 0 
L 2847 0 
L 2847 2094 
Q 2847 2600 2669 2842 
Q 2491 3084 2119 3084 
Q 1678 3084 1418 2786 
Q 1159 2488 1159 1978 
L 1159 0 
L 581 0 
L 581 3500 
L 1159 3500 
L 1159 2956 
Q 1356 3278 1631 3431 
Q 1906 3584 2284 3584 
Q 2666 3584 2933 3390 
Q 3200 3197 3328 2828 
z
" transform="scale(0.015625)"/>
      <path id="DejaVuSans-75" d="M 544 1381 
L 544 3500 
L 1119 3500 
L 1119 1403 
Q 1119 906 1312 657 
Q 1506 409 1894 409 
Q 2359 409 2629 706 
Q 2900 1003 2900 1516 
L 2900 3500 
L 3475 3500 
L 3475 0 
L 2900 0 
L 2900 538 
Q 2691 219 2414 64 
Q 2138 -91 1772 -91 
Q 1169 -91 856 284 
Q 544 659 544 1381 
z
M 1991 3584 
L 1991 3584 
z
" transform="scale(0.015625)"/>
     </defs>
     <use xlink:href="#DejaVuSans-4d"/>
     <use xlink:href="#DejaVuSans-65" transform="translate(86.279297 0)"/>
     <use xlink:href="#DejaVuSans-61" transform="translate(147.802734 0)"/>
     <use xlink:href="#DejaVuSans-6e" transform="translate(209.082031 0)"/>
     <use xlink:href="#DejaVuSans-20" transform="translate(272.460938 0)"/>
     <use xlink:href="#DejaVuSans-70" transform="translate(304.248047 0)"/>
     <use xlink:href="#DejaVuSans-72" transform="translate(367.724609 0)"/>
     <use xlink:href="#DejaVuSans-6f" transform="translate(406.587891 0)"/>
     <use xlink:href="#DejaVuSans-66" transform="translate(467.769531 0)"/>
     <use xlink:href="#DejaVuSans-69" transform="translate(502.974609 0)"/>
     <use xlink:href="#DejaVuSans-74" transform="translate(530.757812 0)"/>
     <use xlink:href="#DejaVuSans-20" transform="translate(569.966797 0)"/>
     <use xlink:href="#DejaVuSans-70" transform="translate(601.753906 0)"/>
     <use xlink:href="#DejaVuSans-65" transform="translate(665.230469 0)"/>
     <use xlink:href="#DejaVuSans-72" transform="translate(726.753906 0)"/>
     <use xlink:href="#DejaVuSans-20" transform="translate(767.867188 0)"/>
     <use xlink:href="#DejaVuSans-73" transform="translate(799.654297 0)"/>
     <use xlink:href="#DejaVuSans-74" transform="translate(851.753906 0)"/>
     <use xlink:href="#DejaVuSans-65" transform="translate(890.962891 0)"/>
     <use xlink:href="#DejaVuSans-70" transform="translate(952.486328 0)"/>
     <use xlink:href="#DejaVuSans-20" transform="translate(1015.962891 0)"/>
     <use xlink:href="#DejaVuSans-77" transform="translate(1047.75 0)"/>
     <use xlink:href="#DejaVuSans-69" transform="translate(1129.537109 0)"/>
     <use xlink:href="#DejaVuSans-74" transform="translate(1157.320312 0)"/>
     <use xlink:href="#DejaVuSans-68" transform="translate(1196.529297 0)"/>
     <use xlink:href="#DejaVuSans-20" transform="translate(1259.908203 0)"/>
     <use xlink:href="#DejaVuSans-63" transform="translate(1291.695312 0)"/>
     <use xlink:href="#DejaVuSans-6f" transform="translate(1346.675781 0)"/>
     <use xlink:href="#DejaVuSans-6e" transform="translate(1407.857422 0)"/>
     <use xlink:href="#DejaVuSans-66" transform="translate(1471.236328 0)"/>
     <use xlink:href="#DejaVuSans-69" transform="translate(1506.441406 0)"/>
     <use xlink:href="#DejaVuSans-64" transform="translate(1534.224609 0)"/>
     <use xlink:href="#DejaVuSans-65" transform="translate(1597.701172 0)"/>
     <use xlink:href="#DejaVuSans-6e" transform="translate(1659.224609 0)"/>
     <use xlink:href="#DejaVuSans-63" transform="translate(1722.603516 0)"/>
     <use xlink:href="#DejaVuSans-65" transform="translate(1777.583984 0)"/>
     <use xlink:href="#DejaVuSans-20" transform="translate(1839.107422 0)"/>
     <use xlink:href="#DejaVuSans-69" transform="translate(1870.894531 0)"/>
     <use xlink:href="#DejaVuSans-6e" transform="translate(1898.677734 0)"/>
     <use xlink:href="#DejaVuSans-74" transform="translate(1962.056641 0)"/>
     <use xlink:href="#DejaVuSans-65" transform="translate(2001.265625 0)"/>
     <use xlink:href="#DejaVuSans-72" transform="translate(2062.789062 0)"/>
     <use xlink:href="#DejaVuSans-76" transform="translate(2103.902344 0)"/>
     <use xlink:href="#DejaVuSans-61" transform="translate(2163.082031 0)"/>
     <use xlink:href="#DejaVuSans-6c" transform="translate(2224.361328 0)"/>
     <use xlink:href="#DejaVuSans-20" transform="translate(2252.144531 0)"/>
     <use xlink:href="#DejaVuSans-70" transform="translate(2283.931641 0)"/>
     <use xlink:href="#DejaVuSans-65" transform="translate(2347.408203 0)"/>
     <use xlink:href="#DejaVuSans-72" transform="translate(2408.931641 0)"/>
     <use xlink:href="#DejaVuSans-20" transform="translate(2450.044922 0)"/>
     <use xlink:href="#DejaVuSans-73" transform="translate(2481.832031 0)"/>
     <use xlink:href="#DejaVuSans-69" transform="translate(2533.931641 0)"/>
     <use xlink:href="#DejaVuSans-6d" transform="translate(2561.714844 0)"/>
     <use xlink:href="#DejaVuSans-75" transform="translate(2659.126953 0)"/>
     <use xlink:href="#DejaVuSans-6c" transform="translate(2722.505859 0)"/>
     <use xlink:href="#DejaVuSans-61" transform="translate(2750.289062 0)"/>
     <use xlink:href="#DejaVuSans-74" transform="translate(2811.568359 0)"/>
     <use xlink:href="#DejaVuSans-69" transform="translate(2850.777344 0)"/>
     <use xlink:href="#DejaVuSans-6f" transform="translate(2878.560547 0)"/>
     <use xlink:href="#DejaVuSans-6e" transform="translate(2939.742188 0)"/>
     <use xlink:href="#DejaVuSans-20" transform="translate(3003.121094 0)"/>
     <use xlink:href="#DejaVuSans-73" transform="translate(3034.908203 0)"/>
     <use xlink:href="#DejaVuSans-74" transform="translate(3087.007812 0)"/>
     <use xlink:href="#DejaVuSans-65" transform="translate(3126.216797 0)"/>
     <use xlink:href="#DejaVuSans-70" transform="translate(3187.740234 0)"/>
    </g>
    <!-- Base Product: OG Kush, Recipe size: 7, T0: 5.0 -->
    <g transform="translate(285.943781 37.44) scale(0.14 -0.14)">
     <defs>
      <path id="DejaVuSans-42" d="M 1259 2228 
L 1259 519 
L 2272 519 
Q 2781 519 3026 730 
Q 3272 941 3272 1375 
Q 3272 1813 3026 2020 
Q 2781 2228 2272 2228 
L 1259 2228 
z
M 1259 4147 
L 1259 2741 
L 2194 2741 
Q 2656 2741 2882 2914 
Q 3109 3088 3109 3444 
Q 3109 3797 2882 3972 
Q 2656 4147 2194 4147 
L 1259 4147 
z
M 628 4666 
L 2241 4666 
Q 2963 4666 3353 4366 
Q 3744 4066 3744 3513 
Q 3744 3084 3544 2831 
Q 3344 2578 2956 2516 
Q 3422 2416 3680 2098 
Q 3938 1781 3938 1306 
Q 3938 681 3513 340 
Q 3088 0 2303 0 
L 628 0 
L 628 4666 
z
" transform="scale(0.015625)"/>
      <path id="DejaVuSans-3a" d="M 750 794 
L 1409 794 
L 1409 0 
L 750 0 
L 750 794 
z
M 750 3309 
L 1409 3309 
L 1409 2516 
L 750 2516 
L 750 3309 
z
" transform="scale(0.015625)"/>
      <path id="DejaVuSans-4f" d="M 2522 4238 
Q 1834 4238 1429 3725 
Q 1025 3213 1025 2328 
Q 1025 1447 1429 934 
Q 1834 422 2522 422 
Q 3209 422 3611 934 
Q 4013 1447 4013 2328 
Q 4013 3213 3611 3725 
Q 3209 4238 2522 4238 
z
M 2522 4750 
Q 3503 4750 4090 4092 
Q 4678 3434 4678 2328 
Q 4678 1225 4090 567 
Q 3503 -91 2522 -91 
Q 1538 -91 948 565 
Q 359 1222 359 2328 
Q 359 3434 948 4092 
Q 1538 4750 2522 4750 
z
" transform="scale(0.015625)"/>
      <path id="DejaVuSans-47" d="M 3809 666 
L 3809 1919 
L 2778 1919 
L 2778 2438 
L 4434 2438 
L 4434 434 
Q 4069 175 3628 42 
Q 3188 -91 2688 -91 
Q 1594 -91 976 548 
Q 359 1188 359 2328 
Q 359 3472 976 4111 
Q 1594 4750 2688 4750 
Q 3144 4750 3555 4637 
Q 3966 4525 4313 4306 
L 4313 3634 
Q 3963 3931 3569 4081 
Q 3175 4231 2741 4231 
Q 1884 4231 1454 3753 
Q 1025 3275 1025 2328 
Q 1025 1384 1454 906 
Q 1884 428 2741 428 
Q 3075 428 3337 486 
Q 3600 544 3809 666 
z
" transform="scale(0.015625)"/>
      <path id="DejaVuSans-4b" d="M 628 4666 
L 1259 4666 
L 1259 2694 
L 3353 4666 
L 4166 4666 
L 1850 2491 
L 4331 0 
L 3500 0 
L 1259 2247 
L 1259 0 
L 628 0 
L 628 4666 
z
" transform="scale(0.015625)"/>
      <path id="DejaVuSans-2c" d="M 750 794 
L 1409 794 
L 1409 256 
L 897 -744 
L 494 -744 
L 750 256 
L 750 794 
z
" transform="scale(0.015625)"/>
      <path id="DejaVuSans-52" d="M 2841 2188 
Q 3044 2119 3236 1894 
Q 3428 1669 3622 1275 
L 4263 0 
L 3584 0 
L 2988 1197 
Q 2756 1666 2539 1819 
Q 2322 1972 1947 1972 
L 1259 1972 
L 1259 0 
L 628 0 
L 628 4666 
L 2053 4666 
Q 2853 4666 3247 4331 
Q 3641 3997 3641 3322 
Q 3641 2881 3436 2590 
Q 3231 2300 2841 2188 
z
M 1259 4147 
L 1259 2491 
L 2053 2491 
Q 2509 2491 2742 2702 
Q 2975 2913 2975 3322 
Q 2975 3731 2742 3939 
Q 2509 4147 2053 4147 
L 1259 4147 
z
" transform="scale(0.015625)"/>
      <path id="DejaVuSans-7a" d="M 353 3500 
L 3084 3500 
L 3084 2975 
L 922 459 
L 3084 459 
L 3084 0 
L 275 0 
L 275 525 
L 2438 3041 
L 353 3041 
L 353 3500 
z
" transform="scale(0.015625)"/>
      <path id="DejaVuSans-37" d="M 525 4666 
L 3525 4666 
L 3525 4397 
L 1831 0 
L 1172 0 
L 2766 4134 
L 525 4134 
L 525 4666 
z
" transform="scale(0.015625)"/>
      <path id="DejaVuSans-54" d="M -19 4666 
L 3928 4666 
L 3928 4134 
L 2272 4134 
L 2272 0 
L 1638 0 
L 1638 4134 
L -19 4134 
L -19 4666 
z
" transform="scale(0.015625)"/>
      <path id="DejaVuSans-2e" d="M 684 794 
L 1344 794 
L 1344 0 
L 684 0 
L 684 794 
z
" transform="scale(0.015625)"/>
     </defs>
     <use xlink:href="#DejaVuSans-42"/>
     <use xlink:href="#DejaVuSans-61" transform="translate(68.603516 0)"/>
     <use xlink:href="#DejaVuSans-73" transform="translate(129.882812 0)"/>
     <use xlink:href="#DejaVuSans-65" transform="translate(181.982422 0)"/>
     <use xlink:href="#DejaVuSans-20" transform="translate(243.505859 0)"/>
     <use xlink:href="#DejaVuSans-50" transform="translate(275.292969 0)"/>
     <use xlink:href="#DejaVuSans-72" transform="translate(333.845703 0)"/>
     <use xlink:href="#DejaVuSans-6f" transform="translate(372.708984 0)"/>
     <use xlink:href="#DejaVuSans-64" transform="translate(433.890625 0)"/>
     <use xlink:href="#DejaVuSans-75" transform="translate(497.367188 0)"/>
     <use xlink:href="#DejaVuSans-63" transform="translate(560.746094 0)"/>
     <use xlink:href="#DejaVuSans-74" transform="translate(615.726562 0)"/>
     <use xlink:href="#DejaVuSans-3a" transform="translate(654.935547 0)"/>
     <use xlink:href="#DejaVuSans-20" transform="translate(688.626953 0)"/>
     <use xlink:href="#DejaVuSans-4f" transform="translate(720.414062 0)"/>
     <use xlink:href="#DejaVuSans-47" transform="translate(799.125 0)"/>
     <use xlink:href="#DejaVuSans-20" transform="translate(876.615234 0)"/>
     <use xlink:href="#DejaVuSans-4b" transform="translate(908.402344 0)"/>
     <use xlink:href="#DejaVuSans-75" transform="translate(968.978516 0)"/>
     <use xlink:href="#DejaVuSans-73" transform="translate(1032.357422 0)"/>
     <use xlink:href="#DejaVuSans-68" transform="translate(1084.457031 0)"/>
     <use xlink:href="#DejaVuSans-2c" transform="translate(1147.835938 0)"/>
     <use xlink:href="#DejaVuSans-20" transform="translate(1179.623047 0)"/>
     <use xlink:href="#DejaVuSans-52" transform="translate(1211.410156 0)"/>
     <use xlink:href="#DejaVuSans-65" transform="translate(1276.392578 0)"/>
     <use xlink:href="#DejaVuSans-63" transform="translate(1337.916016 0)"/>
     <use xlink:href="#DejaVuSans-69" transform="translate(1392.896484 0)"/>
     <use xlink:href="#DejaVuSans-70" transform="translate(1420.679688 0)"/>
     <use xlink:href="#DejaVuSans-65" transform="translate(1484.15625 0)"/>
     <use xlink:href="#DejaVuSans-20" transform="translate(1545.679688 0)"/>
     <use xlink:href="#DejaVuSans-73" transform="translate(1577.466797 0)"/>
     <use xlink:href="#DejaVuSans-69" transform="translate(1629.566406 0)"/>
     <use xlink:href="#DejaVuSans-7a" transform="translate(1657.349609 0)"/>
     <use xlink:href="#DejaVuSans-65" transform="translate(1709.839844 0)"/>
     <use xlink:href="#DejaVuSans-3a" transform="translate(1771.363281 0)"/>
     <use xlink:href="#DejaVuSans-20" transform="translate(1805.054688 0)"/>
     <use xlink:href="#DejaVuSans-37" transform="translate(1836.841797 0)"/>
     <use xlink:href="#DejaVuSans-2c" transform="translate(1900.464844 0)"/>
     <use xlink:href="#DejaVuSans-20" transform="translate(1932.251953 0)"/>
     <use xlink:href="#DejaVuSans-54" transform="translate(1964.039062 0)"/>
     <use xlink:href="#DejaVuSans-30" transform="translate(2025.123047 0)"/>
     <use xlink:href="#DejaVuSans-3a" transform="translate(2088.746094 0)"/>
     <use xlink:href="#DejaVuSans-20" transform="translate(2122.4375 0)"/>
     <use xlink:href="#DejaVuSans-35" transform="translate(2154.224609 0)"/>
     <use xlink:href="#DejaVuSans-2e" transform="translate(2217.847656 0)"/>
     <use xlink:href="#DejaVuSans-30" transform="translate(2249.634766 0)"/>
    </g>
   </g>
  </g>
 </g>
 <defs>
  <clipPath id="p5ebc73c753">
   <rect x="50.87" y="43.44" width="793.996" height="346.6"/>
  </clipPath>
 </defs>
</svg>
