<?xml version="1.0" encoding="utf-8" standalone="no"?>
<!DOCTYPE svg PUBLIC "-//W3C//DTD SVG 1.1//EN"
  "http://www.w3.org/Graphics/SVG/1.1/DTD/svg11.dtd">
<svg xmlns:xlink="http://www.w3.org/1999/xlink" width="864pt" height="432pt" viewBox="0 0 864 432" xmlns="http://www.w3.org/2000/svg" version="1.1">
 <metadata>
  <rdf:RDF xmlns:dc="http://purl.org/dc/elements/1.1/" xmlns:cc="http://creativecommons.org/ns#" xmlns:rdf="http://www.w3.org/1999/02/22-rdf-syntax-ns#">
   <cc:Work>
    <dc:type rdf:resource="http://purl.org/dc/dcmitype/StillImage"/>
    <dc:date>2025-05-24T02:01:32.378578</dc:date>
    <dc:format>image/svg+xml</dc:format>
    <dc:creator>
     <cc:Agent>
      <dc:title>Matplotlib v3.10.3, https://matplotlib.org/</dc:title>
     </cc:Agent>
    </dc:creator>
   </cc:Work>
  </rdf:RDF>
 </metadata>
 <defs>
  <style type="text/css">*{stroke-linejoin: round; stroke-linecap: butt}</style>
 </defs>
 <g id="figure_1">
  <g id="patch_1">
   <path d="M 0 432 
L 864 432 
L 864 0 
L 0 0 
z
" style="fill: #ffffff"/>
  </g>
  <g id="axes_1">
   <g id="patch_2">
    <path d="M 50.87 390.04 
L 844.866 390.04 
L 844.866 43.44 
L 50.87 43.44 
z
" style="fill: #ffffff"/>
   </g>
   <g id="FillBetweenPolyCollection_1">
    <defs>
     <path id="m69b4ec5a52" d="M 52.193327 -317.193519 
L 52.193327 -58.223375 
L 54.83998 -57.714545 
L 57.486633 -60.188482 
L 60.133287 -64.315412 
L 62.77994 -67.302399 
L 65.426593 -72.896105 
L 68.073247 -73.984982 
L 70.7199 -76.861793 
L 73.366553 -78.579561 
L 76.013207 -80.39483 
L 78.65986 -84.23358 
L 81.306513 -84.707843 
L 83.953167 -86.576482 
L 86.59982 -88.114681 
L 89.246473 -89.660925 
L 91.893127 -92.108069 
L 94.53978 -93.381339 
L 97.186433 -93.354297 
L 99.833087 -94.161508 
L 102.47974 -95.631199 
L 105.126393 -97.366943 
L 107.773047 -98.398627 
L 110.4197 -98.883728 
L 113.066353 -99.526723 
L 115.713007 -100.122194 
L 118.35966 -100.188012 
L 121.006313 -100.526565 
L 123.652967 -100.936248 
L 126.29962 -102.190749 
L 128.946273 -102.480949 
L 131.592927 -102.571165 
L 134.23958 -102.452102 
L 136.886233 -103.949948 
L 139.532887 -104.203608 
L 142.17954 -105.113847 
L 144.826193 -106.550186 
L 147.472847 -105.853799 
L 150.1195 -105.819074 
L 152.766153 -105.753132 
L 155.412807 -106.880763 
L 158.05946 -107.722165 
L 160.706113 -108.744941 
L 163.352767 -109.739881 
L 165.99942 -110.33988 
L 168.646073 -110.76933 
L 171.292727 -110.185185 
L 173.93938 -111.180851 
L 176.586033 -111.346996 
L 179.232687 -111.687535 
L 181.87934 -110.242855 
L 184.525993 -111.312305 
L 187.172647 -112.458059 
L 189.8193 -111.538435 
L 192.465953 -111.065034 
L 195.112607 -112.222102 
L 197.75926 -112.16812 
L 200.405913 -111.552847 
L 203.052567 -113.001465 
L 205.69922 -114.889111 
L 208.345873 -115.143929 
L 210.992527 -116.328572 
L 213.63918 -116.392563 
L 216.285833 -116.252711 
L 218.932487 -116.111611 
L 221.57914 -116.007142 
L 224.225793 -115.357996 
L 226.872447 -115.006982 
L 229.5191 -115.520623 
L 232.165753 -117.098528 
L 234.812407 -116.249431 
L 237.45906 -116.259667 
L 240.105713 -116.801712 
L 242.752367 -117.790671 
L 245.39902 -117.442472 
L 248.045673 -117.834474 
L 250.692327 -117.260099 
L 253.33898 -118.050731 
L 255.985633 -117.075197 
L 258.632287 -117.444492 
L 261.27894 -117.400882 
L 263.925593 -116.932315 
L 266.572247 -117.403299 
L 269.2189 -116.957848 
L 271.865553 -118.074006 
L 274.512207 -117.119351 
L 277.15886 -116.681049 
L 279.805513 -116.708284 
L 282.452167 -118.112146 
L 285.09882 -118.210385 
L 287.745473 -117.955295 
L 290.392127 -119.335826 
L 293.03878 -119.237723 
L 295.685433 -120.028049 
L 298.332087 -120.328814 
L 300.97874 -120.663487 
L 303.625393 -120.40741 
L 306.272047 -121.408182 
L 308.9187 -122.080217 
L 311.565353 -121.684152 
L 314.212007 -120.835725 
L 316.85866 -121.620445 
L 319.505313 -121.817502 
L 322.151967 -121.447355 
L 324.79862 -122.76932 
L 327.445273 -122.091679 
L 330.091927 -122.228069 
L 332.73858 -123.164 
L 335.385233 -124.019519 
L 338.031887 -122.932695 
L 340.67854 -123.562312 
L 343.325193 -123.797078 
L 345.971847 -122.772236 
L 348.6185 -123.740576 
L 351.265153 -124.122059 
L 353.911807 -123.584134 
L 356.55846 -123.750631 
L 359.205113 -124.63663 
L 361.851767 -123.114205 
L 364.49842 -122.231962 
L 367.145073 -123.441638 
L 369.791727 -123.636005 
L 372.43838 -123.061551 
L 375.085033 -122.217153 
L 377.731687 -123.090624 
L 380.37834 -122.457411 
L 383.024993 -122.854077 
L 385.671647 -122.821248 
L 388.3183 -124.404963 
L 390.964953 -125.155809 
L 393.611607 -124.907403 
L 396.25826 -125.579722 
L 398.904913 -125.828786 
L 401.551567 -125.108726 
L 404.19822 -125.277163 
L 406.844873 -125.576022 
L 409.491527 -126.347987 
L 412.13818 -125.988473 
L 414.784833 -126.563098 
L 417.431487 -126.578849 
L 420.07814 -125.689002 
L 422.724793 -126.081152 
L 425.371447 -127.007085 
L 428.0181 -126.700271 
L 430.664753 -125.453351 
L 433.311407 -124.665715 
L 435.95806 -125.269129 
L 438.604713 -125.009829 
L 441.251367 -125.611087 
L 443.89802 -126.489711 
L 446.544673 -127.533106 
L 449.191327 -126.919479 
L 451.83798 -126.813092 
L 454.484633 -126.848918 
L 457.131287 -127.057095 
L 459.77794 -127.932099 
L 462.424593 -128.175693 
L 465.071247 -128.615107 
L 467.7179 -128.217545 
L 470.364553 -128.558084 
L 473.011207 -128.761813 
L 475.65786 -129.367088 
L 478.304513 -128.990576 
L 480.951167 -128.857045 
L 483.59782 -127.867348 
L 486.244473 -128.310144 
L 488.891127 -128.069624 
L 491.53778 -128.736235 
L 494.184433 -128.667739 
L 496.831087 -129.271811 
L 499.47774 -128.306648 
L 502.124393 -129.249819 
L 504.771047 -128.773751 
L 507.4177 -128.58625 
L 510.064353 -129.436243 
L 512.711007 -129.045443 
L 515.35766 -129.66547 
L 518.004313 -129.664165 
L 520.650967 -129.194237 
L 523.29762 -130.418586 
L 525.944273 -130.50828 
L 528.590927 -129.947058 
L 531.23758 -129.122268 
L 533.884233 -129.487547 
L 536.530887 -128.924281 
L 539.17754 -128.564552 
L 541.824193 -128.660238 
L 544.470847 -129.164256 
L 547.1175 -128.887752 
L 549.764153 -128.949735 
L 552.410807 -129.56781 
L 555.05746 -129.903913 
L 557.704113 -129.39909 
L 560.350767 -128.599141 
L 562.99742 -129.575856 
L 565.644073 -129.496965 
L 568.290727 -129.405955 
L 570.93738 -128.794007 
L 573.584033 -129.384791 
L 576.230687 -129.684467 
L 578.87734 -129.614189 
L 581.523993 -129.389137 
L 584.170647 -130.507622 
L 586.8173 -130.976722 
L 589.463953 -130.276578 
L 592.110607 -131.007759 
L 594.75726 -131.029921 
L 597.403913 -130.768908 
L 600.050567 -130.510062 
L 602.69722 -131.248039 
L 605.343873 -131.813007 
L 607.990527 -130.49338 
L 610.63718 -130.366635 
L 613.283833 -130.306174 
L 615.930487 -130.174685 
L 618.57714 -131.887256 
L 621.223793 -131.852543 
L 623.870447 -132.320213 
L 626.5171 -131.305925 
L 629.163753 -130.219044 
L 631.810407 -131.678591 
L 634.45706 -131.925658 
L 637.103713 -132.214439 
L 639.750367 -132.403745 
L 642.39702 -133.023761 
L 645.043673 -133.68362 
L 647.690327 -132.847108 
L 650.33698 -132.287883 
L 652.983633 -132.418577 
L 655.630287 -131.803452 
L 658.27694 -131.884067 
L 660.923593 -131.717185 
L 663.570247 -131.478164 
L 666.2169 -132.270509 
L 668.863553 -132.071115 
L 671.510207 -130.419574 
L 674.15686 -130.459257 
L 676.803513 -131.03294 
L 679.450167 -132.38712 
L 682.09682 -132.033406 
L 684.743473 -132.790686 
L 687.390127 -132.251093 
L 690.03678 -131.930821 
L 692.683433 -131.92778 
L 695.330087 -132.086968 
L 697.97674 -131.445958 
L 700.623393 -130.976484 
L 703.270047 -130.339786 
L 705.9167 -130.461345 
L 708.563353 -132.313983 
L 711.210007 -131.191811 
L 713.85666 -132.055228 
L 716.503313 -132.233299 
L 719.149967 -131.731358 
L 721.79662 -131.383704 
L 724.443273 -131.991907 
L 727.089927 -132.890991 
L 729.73658 -133.217357 
L 732.383233 -133.553675 
L 735.029887 -133.829009 
L 737.67654 -133.338723 
L 740.323193 -133.311488 
L 742.969847 -132.782221 
L 745.6165 -133.175233 
L 748.263153 -133.419418 
L 750.909807 -134.081966 
L 753.55646 -134.271726 
L 756.203113 -133.472095 
L 758.849767 -133.001145 
L 761.49642 -134.321509 
L 764.143073 -134.92717 
L 766.789727 -136.278979 
L 769.43638 -135.390153 
L 772.083033 -134.561529 
L 774.729687 -134.669754 
L 777.37634 -133.958864 
L 780.022993 -134.648953 
L 782.669647 -134.021243 
L 785.3163 -134.466547 
L 787.962953 -135.073603 
L 790.609607 -135.381279 
L 793.25626 -136.735142 
L 795.902913 -136.667475 
L 798.549567 -134.944657 
L 801.19622 -135.48433 
L 803.842873 -135.207497 
L 806.489527 -136.209768 
L 809.13618 -135.8764 
L 811.782833 -137.203335 
L 814.429487 -136.809199 
L 817.07614 -137.515425 
L 819.722793 -137.309324 
L 822.369447 -137.654891 
L 825.0161 -136.957618 
L 827.662753 -136.53391 
L 830.309407 -135.950207 
L 832.95606 -136.764465 
L 835.602713 -136.743165 
L 838.249367 -136.642986 
L 840.89602 -135.967853 
L 843.542673 -134.569858 
L 843.542673 -372.805455 
L 843.542673 -372.805455 
L 840.89602 -371.760856 
L 838.249367 -371.138537 
L 835.602713 -371.162503 
L 832.95606 -370.977941 
L 830.309407 -371.385467 
L 827.662753 -370.795875 
L 825.0161 -370.126938 
L 822.369447 -369.111027 
L 819.722793 -369.366673 
L 817.07614 -369.124599 
L 814.429487 -369.667075 
L 811.782833 -369.453053 
L 809.13618 -370.451352 
L 806.489527 -369.890175 
L 803.842873 -370.69043 
L 801.19622 -370.388984 
L 798.549567 -370.455483 
L 795.902913 -369.428996 
L 793.25626 -368.749846 
L 790.609607 -369.875377 
L 787.962953 -369.929666 
L 785.3163 -369.894669 
L 782.669647 -369.822269 
L 780.022993 -369.268037 
L 777.37634 -369.811829 
L 774.729687 -369.68732 
L 772.083033 -369.390685 
L 769.43638 -369.228546 
L 766.789727 -368.540953 
L 764.143073 -369.802251 
L 761.49642 -370.051588 
L 758.849767 -371.225144 
L 756.203113 -371.005085 
L 753.55646 -370.136198 
L 750.909807 -370.250131 
L 748.263153 -370.161526 
L 745.6165 -370.242959 
L 742.969847 -370.160709 
L 740.323193 -369.299902 
L 737.67654 -369.149837 
L 735.029887 -368.862054 
L 732.383233 -368.73818 
L 729.73658 -368.22185 
L 727.089927 -369.099679 
L 724.443273 -369.558544 
L 721.79662 -369.980868 
L 719.149967 -369.996573 
L 716.503313 -369.162637 
L 713.85666 -369.056421 
L 711.210007 -369.397403 
L 708.563353 -369.07022 
L 705.9167 -370.27437 
L 703.270047 -370.13992 
L 700.623393 -369.654411 
L 697.97674 -369.853317 
L 695.330087 -369.038945 
L 692.683433 -369.032318 
L 690.03678 -368.770998 
L 687.390127 -368.343068 
L 684.743473 -368.298743 
L 682.09682 -368.966409 
L 679.450167 -368.734413 
L 676.803513 -369.610926 
L 674.15686 -369.807925 
L 671.510207 -369.672885 
L 668.863553 -368.149745 
L 666.2169 -367.976916 
L 663.570247 -368.431128 
L 660.923593 -368.239643 
L 658.27694 -368.242821 
L 655.630287 -368.090623 
L 652.983633 -367.379426 
L 650.33698 -367.62495 
L 647.690327 -367.022194 
L 645.043673 -366.336235 
L 642.39702 -366.913254 
L 639.750367 -367.452302 
L 637.103713 -367.736023 
L 634.45706 -368.009598 
L 631.810407 -367.607111 
L 629.163753 -368.920064 
L 626.5171 -367.762804 
L 623.870447 -367.214609 
L 621.223793 -367.692175 
L 618.57714 -367.796893 
L 615.930487 -368.18944 
L 613.283833 -368.019721 
L 610.63718 -367.998432 
L 607.990527 -367.597034 
L 605.343873 -366.864367 
L 602.69722 -367.023283 
L 600.050567 -367.578559 
L 597.403913 -367.62613 
L 594.75726 -367.473636 
L 592.110607 -367.325909 
L 589.463953 -367.990352 
L 586.8173 -368.098725 
L 584.170647 -367.862439 
L 581.523993 -368.768683 
L 578.87734 -368.253624 
L 576.230687 -367.704771 
L 573.584033 -367.52856 
L 570.93738 -367.718774 
L 568.290727 -366.948977 
L 565.644073 -367.494494 
L 562.99742 -367.048294 
L 560.350767 -367.893986 
L 557.704113 -367.378042 
L 555.05746 -367.119286 
L 552.410807 -367.426021 
L 549.764153 -368.039285 
L 547.1175 -367.862961 
L 544.470847 -367.512378 
L 541.824193 -367.800434 
L 539.17754 -367.323231 
L 536.530887 -366.849887 
L 533.884233 -366.387618 
L 531.23758 -366.879528 
L 528.590927 -365.64172 
L 525.944273 -365.83123 
L 523.29762 -365.533052 
L 520.650967 -366.149698 
L 518.004313 -365.466122 
L 515.35766 -365.382011 
L 512.711007 -365.044865 
L 510.064353 -365.032586 
L 507.4177 -365.614144 
L 504.771047 -365.385325 
L 502.124393 -365.555998 
L 499.47774 -366.411018 
L 496.831087 -366.082654 
L 494.184433 -366.07866 
L 491.53778 -366.001358 
L 488.891127 -366.462242 
L 486.244473 -365.846345 
L 483.59782 -366.662941 
L 480.951167 -365.489953 
L 478.304513 -365.388275 
L 475.65786 -364.726669 
L 473.011207 -364.814661 
L 470.364553 -364.995955 
L 467.7179 -365.552525 
L 465.071247 -365.332171 
L 462.424593 -365.400463 
L 459.77794 -365.820086 
L 457.131287 -366.912845 
L 454.484633 -366.624381 
L 451.83798 -366.513353 
L 449.191327 -365.878392 
L 446.544673 -365.561036 
L 443.89802 -366.317647 
L 441.251367 -366.59937 
L 438.604713 -366.973942 
L 435.95806 -366.820087 
L 433.311407 -367.426679 
L 430.664753 -367.070808 
L 428.0181 -366.010414 
L 425.371447 -365.71884 
L 422.724793 -365.578966 
L 420.07814 -365.417757 
L 417.431487 -364.295426 
L 414.784833 -363.551956 
L 412.13818 -363.768202 
L 409.491527 -363.203847 
L 406.844873 -363.431827 
L 404.19822 -363.606675 
L 401.551567 -363.388364 
L 398.904913 -362.829911 
L 396.25826 -362.868493 
L 393.611607 -363.123663 
L 390.964953 -362.490517 
L 388.3183 -362.86257 
L 385.671647 -363.880206 
L 383.024993 -363.421001 
L 380.37834 -363.431849 
L 377.731687 -363.150013 
L 375.085033 -363.782682 
L 372.43838 -363.110953 
L 369.791727 -362.40568 
L 367.145073 -362.312627 
L 364.49842 -362.602453 
L 361.851767 -362.174341 
L 359.205113 -360.739624 
L 356.55846 -361.54056 
L 353.911807 -361.563075 
L 351.265153 -361.382507 
L 348.6185 -360.975661 
L 345.971847 -361.738423 
L 343.325193 -360.10893 
L 340.67854 -360.33548 
L 338.031887 -361.255501 
L 335.385233 -360.451887 
L 332.73858 -360.817312 
L 330.091927 -361.415574 
L 327.445273 -360.260152 
L 324.79862 -359.47499 
L 322.151967 -359.573876 
L 319.505313 -359.456016 
L 316.85866 -360.173908 
L 314.212007 -361.117533 
L 311.565353 -360.928726 
L 308.9187 -359.539333 
L 306.272047 -360.062426 
L 303.625393 -359.98955 
L 300.97874 -359.377965 
L 298.332087 -359.492806 
L 295.685433 -359.874369 
L 293.03878 -359.656625 
L 290.392127 -359.947404 
L 287.745473 -360.305635 
L 285.09882 -359.819354 
L 282.452167 -359.957208 
L 279.805513 -361.057003 
L 277.15886 -360.444715 
L 274.512207 -360.448573 
L 271.865553 -359.888917 
L 269.2189 -360.2587 
L 266.572247 -359.63554 
L 263.925593 -360.138298 
L 261.27894 -360.073956 
L 258.632287 -359.66357 
L 255.985633 -359.222272 
L 253.33898 -358.368909 
L 250.692327 -358.441989 
L 248.045673 -358.043927 
L 245.39902 -358.016828 
L 242.752367 -357.203818 
L 240.105713 -357.621717 
L 237.45906 -357.499386 
L 234.812407 -358.173634 
L 232.165753 -357.132939 
L 229.5191 -357.815857 
L 226.872447 -357.101505 
L 224.225793 -356.116325 
L 221.57914 -355.728816 
L 218.932487 -355.360531 
L 216.285833 -355.369269 
L 213.63918 -354.770462 
L 210.992527 -354.956091 
L 208.345873 -355.945652 
L 205.69922 -355.105475 
L 203.052567 -355.96129 
L 200.405913 -356.434634 
L 197.75926 -355.472421 
L 195.112607 -354.556055 
L 192.465953 -354.581587 
L 189.8193 -354.20613 
L 187.172647 -353.003047 
L 184.525993 -353.605553 
L 181.87934 -354.238699 
L 179.232687 -352.551354 
L 176.586033 -352.860131 
L 173.93938 -352.739253 
L 171.292727 -353.151682 
L 168.646073 -352.392869 
L 165.99942 -352.527637 
L 163.352767 -352.797445 
L 160.706113 -352.526412 
L 158.05946 -352.159761 
L 155.412807 -352.784009 
L 152.766153 -352.411026 
L 150.1195 -351.946011 
L 147.472847 -351.58896 
L 144.826193 -350.615922 
L 142.17954 -351.472054 
L 139.532887 -351.272331 
L 136.886233 -350.152836 
L 134.23958 -350.554303 
L 131.592927 -349.748329 
L 128.946273 -349.072787 
L 126.29962 -347.653481 
L 123.652967 -348.192212 
L 121.006313 -347.712444 
L 118.35966 -347.450285 
L 115.713007 -347.124327 
L 113.066353 -346.262045 
L 110.4197 -345.267627 
L 107.773047 -343.428266 
L 105.126393 -342.588225 
L 102.47974 -342.014974 
L 99.833087 -341.844029 
L 97.186433 -341.394356 
L 94.53978 -340.523631 
L 91.893127 -340.886197 
L 89.246473 -340.92453 
L 86.59982 -340.162222 
L 83.953167 -339.35189 
L 81.306513 -338.425719 
L 78.65986 -336.626802 
L 76.013207 -335.996629 
L 73.366553 -334.445506 
L 70.7199 -331.471035 
L 68.073247 -329.751917 
L 65.426593 -326.990651 
L 62.77994 -326.058352 
L 60.133287 -323.599486 
L 57.486633 -321.512649 
L 54.83998 -317.959072 
L 52.193327 -317.193519 
z
" style="stroke: #0000ff; stroke-opacity: 0.2"/>
    </defs>
    <g clip-path="url(#p7f6d44caaa)">
     <use xlink:href="#m69b4ec5a52" x="0" y="432" style="fill: #0000ff; fill-opacity: 0.2; stroke: #0000ff; stroke-opacity: 0.2"/>
    </g>
   </g>
   <g id="matplotlib.axis_1">
    <g id="xtick_1">
     <g id="line2d_1">
      <defs>
       <path id="m84fe44597f" d="M 0 0 
L 0 3.5 
" style="stroke: #000000; stroke-width: 0.8"/>
      </defs>
      <g>
       <use xlink:href="#m84fe44597f" x="181.87934" y="390.04" style="stroke: #000000; stroke-width: 0.8"/>
      </g>
     </g>
     <g id="text_1">
      <!-- 50 -->
      <g transform="translate(175.51684 404.638438) scale(0.1 -0.1)">
       <defs>
        <path id="DejaVuSans-35" d="M 691 4666 
L 3169 4666 
L 3169 4134 
L 1269 4134 
L 1269 2991 
Q 1406 3038 1543 3061 
Q 1681 3084 1819 3084 
Q 2600 3084 3056 2656 
Q 3513 2228 3513 1497 
Q 3513 744 3044 326 
Q 2575 -91 1722 -91 
Q 1428 -91 1123 -41 
Q 819 9 494 109 
L 494 744 
Q 775 591 1075 516 
Q 1375 441 1709 441 
Q 2250 441 2565 725 
Q 2881 1009 2881 1497 
Q 2881 1984 2565 2268 
Q 2250 2553 1709 2553 
Q 1456 2553 1204 2497 
Q 953 2441 691 2322 
L 691 4666 
z
" transform="scale(0.015625)"/>
        <path id="DejaVuSans-30" d="M 2034 4250 
Q 1547 4250 1301 3770 
Q 1056 3291 1056 2328 
Q 1056 1369 1301 889 
Q 1547 409 2034 409 
Q 2525 409 2770 889 
Q 3016 1369 3016 2328 
Q 3016 3291 2770 3770 
Q 2525 4250 2034 4250 
z
M 2034 4750 
Q 2819 4750 3233 4129 
Q 3647 3509 3647 2328 
Q 3647 1150 3233 529 
Q 2819 -91 2034 -91 
Q 1250 -91 836 529 
Q 422 1150 422 2328 
Q 422 3509 836 4129 
Q 1250 4750 2034 4750 
z
" transform="scale(0.015625)"/>
       </defs>
       <use xlink:href="#DejaVuSans-35"/>
       <use xlink:href="#DejaVuSans-30" transform="translate(63.623047 0)"/>
      </g>
     </g>
    </g>
    <g id="xtick_2">
     <g id="line2d_2">
      <g>
       <use xlink:href="#m84fe44597f" x="314.212007" y="390.04" style="stroke: #000000; stroke-width: 0.8"/>
      </g>
     </g>
     <g id="text_2">
      <!-- 100 -->
      <g transform="translate(304.668257 404.638438) scale(0.1 -0.1)">
       <defs>
        <path id="DejaVuSans-31" d="M 794 531 
L 1825 531 
L 1825 4091 
L 703 3866 
L 703 4441 
L 1819 4666 
L 2450 4666 
L 2450 531 
L 3481 531 
L 3481 0 
L 794 0 
L 794 531 
z
" transform="scale(0.015625)"/>
       </defs>
       <use xlink:href="#DejaVuSans-31"/>
       <use xlink:href="#DejaVuSans-30" transform="translate(63.623047 0)"/>
       <use xlink:href="#DejaVuSans-30" transform="translate(127.246094 0)"/>
      </g>
     </g>
    </g>
    <g id="xtick_3">
     <g id="line2d_3">
      <g>
       <use xlink:href="#m84fe44597f" x="446.544673" y="390.04" style="stroke: #000000; stroke-width: 0.8"/>
      </g>
     </g>
     <g id="text_3">
      <!-- 150 -->
      <g transform="translate(437.000923 404.638438) scale(0.1 -0.1)">
       <use xlink:href="#DejaVuSans-31"/>
       <use xlink:href="#DejaVuSans-35" transform="translate(63.623047 0)"/>
       <use xlink:href="#DejaVuSans-30" transform="translate(127.246094 0)"/>
      </g>
     </g>
    </g>
    <g id="xtick_4">
     <g id="line2d_4">
      <g>
       <use xlink:href="#m84fe44597f" x="578.87734" y="390.04" style="stroke: #000000; stroke-width: 0.8"/>
      </g>
     </g>
     <g id="text_4">
      <!-- 200 -->
      <g transform="translate(569.33359 404.638438) scale(0.1 -0.1)">
       <defs>
        <path id="DejaVuSans-32" d="M 1228 531 
L 3431 531 
L 3431 0 
L 469 0 
L 469 531 
Q 828 903 1448 1529 
Q 2069 2156 2228 2338 
Q 2531 2678 2651 2914 
Q 2772 3150 2772 3378 
Q 2772 3750 2511 3984 
Q 2250 4219 1831 4219 
Q 1534 4219 1204 4116 
Q 875 4013 500 3803 
L 500 4441 
Q 881 4594 1212 4672 
Q 1544 4750 1819 4750 
Q 2544 4750 2975 4387 
Q 3406 4025 3406 3419 
Q 3406 3131 3298 2873 
Q 3191 2616 2906 2266 
Q 2828 2175 2409 1742 
Q 1991 1309 1228 531 
z
" transform="scale(0.015625)"/>
       </defs>
       <use xlink:href="#DejaVuSans-32"/>
       <use xlink:href="#DejaVuSans-30" transform="translate(63.623047 0)"/>
       <use xlink:href="#DejaVuSans-30" transform="translate(127.246094 0)"/>
      </g>
     </g>
    </g>
    <g id="xtick_5">
     <g id="line2d_5">
      <g>
       <use xlink:href="#m84fe44597f" x="711.210007" y="390.04" style="stroke: #000000; stroke-width: 0.8"/>
      </g>
     </g>
     <g id="text_5">
      <!-- 250 -->
      <g transform="translate(701.666257 404.638438) scale(0.1 -0.1)">
       <use xlink:href="#DejaVuSans-32"/>
       <use xlink:href="#DejaVuSans-35" transform="translate(63.623047 0)"/>
       <use xlink:href="#DejaVuSans-30" transform="translate(127.246094 0)"/>
      </g>
     </g>
    </g>
    <g id="xtick_6">
     <g id="line2d_6">
      <g>
       <use xlink:href="#m84fe44597f" x="843.542673" y="390.04" style="stroke: #000000; stroke-width: 0.8"/>
      </g>
     </g>
     <g id="text_6">
      <!-- 300 -->
      <g transform="translate(833.998923 404.638438) scale(0.1 -0.1)">
       <defs>
        <path id="DejaVuSans-33" d="M 2597 2516 
Q 3050 2419 3304 2112 
Q 3559 1806 3559 1356 
Q 3559 666 3084 287 
Q 2609 -91 1734 -91 
Q 1441 -91 1130 -33 
Q 819 25 488 141 
L 488 750 
Q 750 597 1062 519 
Q 1375 441 1716 441 
Q 2309 441 2620 675 
Q 2931 909 2931 1356 
Q 2931 1769 2642 2001 
Q 2353 2234 1838 2234 
L 1294 2234 
L 1294 2753 
L 1863 2753 
Q 2328 2753 2575 2939 
Q 2822 3125 2822 3475 
Q 2822 3834 2567 4026 
Q 2313 4219 1838 4219 
Q 1578 4219 1281 4162 
Q 984 4106 628 3988 
L 628 4550 
Q 988 4650 1302 4700 
Q 1616 4750 1894 4750 
Q 2613 4750 3031 4423 
Q 3450 4097 3450 3541 
Q 3450 3153 3228 2886 
Q 3006 2619 2597 2516 
z
" transform="scale(0.015625)"/>
       </defs>
       <use xlink:href="#DejaVuSans-33"/>
       <use xlink:href="#DejaVuSans-30" transform="translate(63.623047 0)"/>
       <use xlink:href="#DejaVuSans-30" transform="translate(127.246094 0)"/>
      </g>
     </g>
    </g>
    <g id="text_7">
     <!-- Step -->
     <g transform="translate(436.482844 418.316562) scale(0.1 -0.1)">
      <defs>
       <path id="DejaVuSans-53" d="M 3425 4513 
L 3425 3897 
Q 3066 4069 2747 4153 
Q 2428 4238 2131 4238 
Q 1616 4238 1336 4038 
Q 1056 3838 1056 3469 
Q 1056 3159 1242 3001 
Q 1428 2844 1947 2747 
L 2328 2669 
Q 3034 2534 3370 2195 
Q 3706 1856 3706 1288 
Q 3706 609 3251 259 
Q 2797 -91 1919 -91 
Q 1588 -91 1214 -16 
Q 841 59 441 206 
L 441 856 
Q 825 641 1194 531 
Q 1563 422 1919 422 
Q 2459 422 2753 634 
Q 3047 847 3047 1241 
Q 3047 1584 2836 1778 
Q 2625 1972 2144 2069 
L 1759 2144 
Q 1053 2284 737 2584 
Q 422 2884 422 3419 
Q 422 4038 858 4394 
Q 1294 4750 2059 4750 
Q 2388 4750 2728 4690 
Q 3069 4631 3425 4513 
z
" transform="scale(0.015625)"/>
       <path id="DejaVuSans-74" d="M 1172 4494 
L 1172 3500 
L 2356 3500 
L 2356 3053 
L 1172 3053 
L 1172 1153 
Q 1172 725 1289 603 
Q 1406 481 1766 481 
L 2356 481 
L 2356 0 
L 1766 0 
Q 1100 0 847 248 
Q 594 497 594 1153 
L 594 3053 
L 172 3053 
L 172 3500 
L 594 3500 
L 594 4494 
L 1172 4494 
z
" transform="scale(0.015625)"/>
       <path id="DejaVuSans-65" d="M 3597 1894 
L 3597 1613 
L 953 1613 
Q 991 1019 1311 708 
Q 1631 397 2203 397 
Q 2534 397 2845 478 
Q 3156 559 3463 722 
L 3463 178 
Q 3153 47 2828 -22 
Q 2503 -91 2169 -91 
Q 1331 -91 842 396 
Q 353 884 353 1716 
Q 353 2575 817 3079 
Q 1281 3584 2069 3584 
Q 2775 3584 3186 3129 
Q 3597 2675 3597 1894 
z
M 3022 2063 
Q 3016 2534 2758 2815 
Q 2500 3097 2075 3097 
Q 1594 3097 1305 2825 
Q 1016 2553 972 2059 
L 3022 2063 
z
" transform="scale(0.015625)"/>
       <path id="DejaVuSans-70" d="M 1159 525 
L 1159 -1331 
L 581 -1331 
L 581 3500 
L 1159 3500 
L 1159 2969 
Q 1341 3281 1617 3432 
Q 1894 3584 2278 3584 
Q 2916 3584 3314 3078 
Q 3713 2572 3713 1747 
Q 3713 922 3314 415 
Q 2916 -91 2278 -91 
Q 1894 -91 1617 61 
Q 1341 213 1159 525 
z
M 3116 1747 
Q 3116 2381 2855 2742 
Q 2594 3103 2138 3103 
Q 1681 3103 1420 2742 
Q 1159 2381 1159 1747 
Q 1159 1113 1420 752 
Q 1681 391 2138 391 
Q 2594 391 2855 752 
Q 3116 1113 3116 1747 
z
" transform="scale(0.015625)"/>
      </defs>
      <use xlink:href="#DejaVuSans-53"/>
      <use xlink:href="#DejaVuSans-74" transform="translate(63.476562 0)"/>
      <use xlink:href="#DejaVuSans-65" transform="translate(102.685547 0)"/>
      <use xlink:href="#DejaVuSans-70" transform="translate(164.208984 0)"/>
     </g>
    </g>
   </g>
   <g id="matplotlib.axis_2">
    <g id="ytick_1">
     <g id="line2d_7">
      <defs>
       <path id="mbc429eddaf" d="M 0 0 
L -3.5 0 
" style="stroke: #000000; stroke-width: 0.8"/>
      </defs>
      <g>
       <use xlink:href="#mbc429eddaf" x="50.87" y="384.502925" style="stroke: #000000; stroke-width: 0.8"/>
      </g>
     </g>
     <g id="text_8">
      <!-- 20 -->
      <g transform="translate(31.145 388.302144) scale(0.1 -0.1)">
       <use xlink:href="#DejaVuSans-32"/>
       <use xlink:href="#DejaVuSans-30" transform="translate(63.623047 0)"/>
      </g>
     </g>
    </g>
    <g id="ytick_2">
     <g id="line2d_8">
      <g>
       <use xlink:href="#mbc429eddaf" x="50.87" y="325.007165" style="stroke: #000000; stroke-width: 0.8"/>
      </g>
     </g>
     <g id="text_9">
      <!-- 40 -->
      <g transform="translate(31.145 328.806384) scale(0.1 -0.1)">
       <defs>
        <path id="DejaVuSans-34" d="M 2419 4116 
L 825 1625 
L 2419 1625 
L 2419 4116 
z
M 2253 4666 
L 3047 4666 
L 3047 1625 
L 3713 1625 
L 3713 1100 
L 3047 1100 
L 3047 0 
L 2419 0 
L 2419 1100 
L 313 1100 
L 313 1709 
L 2253 4666 
z
" transform="scale(0.015625)"/>
       </defs>
       <use xlink:href="#DejaVuSans-34"/>
       <use xlink:href="#DejaVuSans-30" transform="translate(63.623047 0)"/>
      </g>
     </g>
    </g>
    <g id="ytick_3">
     <g id="line2d_9">
      <g>
       <use xlink:href="#mbc429eddaf" x="50.87" y="265.511406" style="stroke: #000000; stroke-width: 0.8"/>
      </g>
     </g>
     <g id="text_10">
      <!-- 60 -->
      <g transform="translate(31.145 269.310625) scale(0.1 -0.1)">
       <defs>
        <path id="DejaVuSans-36" d="M 2113 2584 
Q 1688 2584 1439 2293 
Q 1191 2003 1191 1497 
Q 1191 994 1439 701 
Q 1688 409 2113 409 
Q 2538 409 2786 701 
Q 3034 994 3034 1497 
Q 3034 2003 2786 2293 
Q 2538 2584 2113 2584 
z
M 3366 4563 
L 3366 3988 
Q 3128 4100 2886 4159 
Q 2644 4219 2406 4219 
Q 1781 4219 1451 3797 
Q 1122 3375 1075 2522 
Q 1259 2794 1537 2939 
Q 1816 3084 2150 3084 
Q 2853 3084 3261 2657 
Q 3669 2231 3669 1497 
Q 3669 778 3244 343 
Q 2819 -91 2113 -91 
Q 1303 -91 875 529 
Q 447 1150 447 2328 
Q 447 3434 972 4092 
Q 1497 4750 2381 4750 
Q 2619 4750 2861 4703 
Q 3103 4656 3366 4563 
z
" transform="scale(0.015625)"/>
       </defs>
       <use xlink:href="#DejaVuSans-36"/>
       <use xlink:href="#DejaVuSans-30" transform="translate(63.623047 0)"/>
      </g>
     </g>
    </g>
    <g id="ytick_4">
     <g id="line2d_10">
      <g>
       <use xlink:href="#mbc429eddaf" x="50.87" y="206.015647" style="stroke: #000000; stroke-width: 0.8"/>
      </g>
     </g>
     <g id="text_11">
      <!-- 80 -->
      <g transform="translate(31.145 209.814866) scale(0.1 -0.1)">
       <defs>
        <path id="DejaVuSans-38" d="M 2034 2216 
Q 1584 2216 1326 1975 
Q 1069 1734 1069 1313 
Q 1069 891 1326 650 
Q 1584 409 2034 409 
Q 2484 409 2743 651 
Q 3003 894 3003 1313 
Q 3003 1734 2745 1975 
Q 2488 2216 2034 2216 
z
M 1403 2484 
Q 997 2584 770 2862 
Q 544 3141 544 3541 
Q 544 4100 942 4425 
Q 1341 4750 2034 4750 
Q 2731 4750 3128 4425 
Q 3525 4100 3525 3541 
Q 3525 3141 3298 2862 
Q 3072 2584 2669 2484 
Q 3125 2378 3379 2068 
Q 3634 1759 3634 1313 
Q 3634 634 3220 271 
Q 2806 -91 2034 -91 
Q 1263 -91 848 271 
Q 434 634 434 1313 
Q 434 1759 690 2068 
Q 947 2378 1403 2484 
z
M 1172 3481 
Q 1172 3119 1398 2916 
Q 1625 2713 2034 2713 
Q 2441 2713 2670 2916 
Q 2900 3119 2900 3481 
Q 2900 3844 2670 4047 
Q 2441 4250 2034 4250 
Q 1625 4250 1398 4047 
Q 1172 3844 1172 3481 
z
" transform="scale(0.015625)"/>
       </defs>
       <use xlink:href="#DejaVuSans-38"/>
       <use xlink:href="#DejaVuSans-30" transform="translate(63.623047 0)"/>
      </g>
     </g>
    </g>
    <g id="ytick_5">
     <g id="line2d_11">
      <g>
       <use xlink:href="#mbc429eddaf" x="50.87" y="146.519887" style="stroke: #000000; stroke-width: 0.8"/>
      </g>
     </g>
     <g id="text_12">
      <!-- 100 -->
      <g transform="translate(24.7825 150.319106) scale(0.1 -0.1)">
       <use xlink:href="#DejaVuSans-31"/>
       <use xlink:href="#DejaVuSans-30" transform="translate(63.623047 0)"/>
       <use xlink:href="#DejaVuSans-30" transform="translate(127.246094 0)"/>
      </g>
     </g>
    </g>
    <g id="ytick_6">
     <g id="line2d_12">
      <g>
       <use xlink:href="#mbc429eddaf" x="50.87" y="87.024128" style="stroke: #000000; stroke-width: 0.8"/>
      </g>
     </g>
     <g id="text_13">
      <!-- 120 -->
      <g transform="translate(24.7825 90.823347) scale(0.1 -0.1)">
       <use xlink:href="#DejaVuSans-31"/>
       <use xlink:href="#DejaVuSans-32" transform="translate(63.623047 0)"/>
       <use xlink:href="#DejaVuSans-30" transform="translate(127.246094 0)"/>
      </g>
     </g>
    </g>
    <g id="text_14">
     <!-- Profit -->
     <g transform="translate(18.702813 229.779063) rotate(-90) scale(0.1 -0.1)">
      <defs>
       <path id="DejaVuSans-50" d="M 1259 4147 
L 1259 2394 
L 2053 2394 
Q 2494 2394 2734 2622 
Q 2975 2850 2975 3272 
Q 2975 3691 2734 3919 
Q 2494 4147 2053 4147 
L 1259 4147 
z
M 628 4666 
L 2053 4666 
Q 2838 4666 3239 4311 
Q 3641 3956 3641 3272 
Q 3641 2581 3239 2228 
Q 2838 1875 2053 1875 
L 1259 1875 
L 1259 0 
L 628 0 
L 628 4666 
z
" transform="scale(0.015625)"/>
       <path id="DejaVuSans-72" d="M 2631 2963 
Q 2534 3019 2420 3045 
Q 2306 3072 2169 3072 
Q 1681 3072 1420 2755 
Q 1159 2438 1159 1844 
L 1159 0 
L 581 0 
L 581 3500 
L 1159 3500 
L 1159 2956 
Q 1341 3275 1631 3429 
Q 1922 3584 2338 3584 
Q 2397 3584 2469 3576 
Q 2541 3569 2628 3553 
L 2631 2963 
z
" transform="scale(0.015625)"/>
       <path id="DejaVuSans-6f" d="M 1959 3097 
Q 1497 3097 1228 2736 
Q 959 2375 959 1747 
Q 959 1119 1226 758 
Q 1494 397 1959 397 
Q 2419 397 2687 759 
Q 2956 1122 2956 1747 
Q 2956 2369 2687 2733 
Q 2419 3097 1959 3097 
z
M 1959 3584 
Q 2709 3584 3137 3096 
Q 3566 2609 3566 1747 
Q 3566 888 3137 398 
Q 2709 -91 1959 -91 
Q 1206 -91 779 398 
Q 353 888 353 1747 
Q 353 2609 779 3096 
Q 1206 3584 1959 3584 
z
" transform="scale(0.015625)"/>
       <path id="DejaVuSans-66" d="M 2375 4863 
L 2375 4384 
L 1825 4384 
Q 1516 4384 1395 4259 
Q 1275 4134 1275 3809 
L 1275 3500 
L 2222 3500 
L 2222 3053 
L 1275 3053 
L 1275 0 
L 697 0 
L 697 3053 
L 147 3053 
L 147 3500 
L 697 3500 
L 697 3744 
Q 697 4328 969 4595 
Q 1241 4863 1831 4863 
L 2375 4863 
z
" transform="scale(0.015625)"/>
       <path id="DejaVuSans-69" d="M 603 3500 
L 1178 3500 
L 1178 0 
L 603 0 
L 603 3500 
z
M 603 4863 
L 1178 4863 
L 1178 4134 
L 603 4134 
L 603 4863 
z
" transform="scale(0.015625)"/>
      </defs>
      <use xlink:href="#DejaVuSans-50"/>
      <use xlink:href="#DejaVuSans-72" transform="translate(58.552734 0)"/>
      <use xlink:href="#DejaVuSans-6f" transform="translate(97.416016 0)"/>
      <use xlink:href="#DejaVuSans-66" transform="translate(158.597656 0)"/>
      <use xlink:href="#DejaVuSans-69" transform="translate(193.802734 0)"/>
      <use xlink:href="#DejaVuSans-74" transform="translate(221.585938 0)"/>
     </g>
    </g>
   </g>
   <g id="line2d_13">
    <path d="M 52.193327 244.291553 
L 54.83998 244.163185 
L 60.133287 238.042551 
L 62.77994 235.319619 
L 65.426593 232.056616 
L 68.073247 230.131556 
L 73.366553 225.487467 
L 76.013207 223.804276 
L 78.65986 221.569803 
L 81.306513 220.433219 
L 83.953167 219.035814 
L 91.893127 215.502867 
L 97.186433 214.625673 
L 99.833087 213.997226 
L 102.47974 213.176908 
L 105.126393 212.022416 
L 107.773047 211.086554 
L 110.4197 209.924323 
L 115.713007 208.376739 
L 121.006313 207.880495 
L 126.29962 207.07788 
L 128.946273 206.223132 
L 134.23958 205.496797 
L 136.886233 204.948602 
L 139.532887 204.262031 
L 142.17954 203.70705 
L 144.826193 203.416951 
L 152.766153 202.917915 
L 155.412807 202.167614 
L 158.05946 202.059037 
L 163.352767 200.731331 
L 176.586033 199.896442 
L 181.87934 199.759223 
L 189.8193 199.127712 
L 192.465953 199.176689 
L 195.112607 198.610928 
L 197.75926 198.17973 
L 200.405913 198.006265 
L 208.345873 196.45521 
L 210.992527 196.357663 
L 213.63918 196.418488 
L 216.285833 196.18901 
L 218.932487 196.263929 
L 221.57914 196.132021 
L 224.225793 196.26284 
L 226.872447 195.945756 
L 229.5191 195.331766 
L 232.165753 194.884272 
L 234.812407 194.788473 
L 237.45906 195.120468 
L 242.752367 194.502755 
L 248.045673 194.060799 
L 250.692327 194.14895 
L 253.33898 193.790174 
L 255.985633 193.851271 
L 258.632287 193.445969 
L 261.27894 193.262587 
L 263.925593 193.464693 
L 269.2189 193.391726 
L 271.865553 193.018539 
L 277.15886 193.437118 
L 279.805513 193.117356 
L 282.452167 192.965317 
L 285.09882 192.98513 
L 287.745473 192.869541 
L 290.392127 192.358385 
L 293.03878 192.55282 
L 295.685433 192.048791 
L 298.332087 192.08919 
L 303.625393 191.80152 
L 306.272047 191.264696 
L 308.9187 191.190231 
L 311.565353 190.693555 
L 314.212007 191.023371 
L 316.85866 191.102829 
L 319.505313 191.363241 
L 322.151967 191.489384 
L 324.79862 190.877845 
L 327.445273 190.824079 
L 330.091927 190.178178 
L 335.385233 189.764297 
L 340.67854 190.051104 
L 343.325193 190.046996 
L 345.971847 189.744665 
L 348.6185 189.641876 
L 351.265153 189.247717 
L 353.911807 189.426401 
L 359.205113 189.311878 
L 361.851767 189.355727 
L 364.49842 189.582798 
L 367.145073 189.122867 
L 372.43838 188.913748 
L 375.085033 189.000083 
L 377.731687 188.879682 
L 380.37834 189.05537 
L 393.611607 187.984467 
L 398.904913 187.670652 
L 401.551567 187.751449 
L 404.19822 187.558081 
L 406.844873 187.496076 
L 409.491527 187.224089 
L 414.784833 186.942479 
L 417.431487 186.562868 
L 420.07814 186.44662 
L 422.724793 186.169935 
L 425.371447 185.637037 
L 430.664753 185.73792 
L 433.311407 185.953803 
L 441.251367 185.894771 
L 443.89802 185.596321 
L 446.544673 185.452929 
L 449.191327 185.601064 
L 451.83798 185.336772 
L 454.484633 185.263351 
L 457.131287 185.015035 
L 462.424593 185.211922 
L 465.071247 185.026361 
L 473.011207 185.211763 
L 475.65786 184.953121 
L 478.304513 184.810569 
L 486.244473 184.921756 
L 491.53778 184.631204 
L 494.184433 184.626801 
L 496.831087 184.322767 
L 499.47774 184.641167 
L 502.124393 184.597092 
L 504.771047 184.920462 
L 507.4177 184.899809 
L 510.064353 184.765586 
L 512.711007 184.954846 
L 515.35766 184.476259 
L 520.650967 184.328033 
L 525.944273 183.830245 
L 528.590927 184.205611 
L 531.23758 183.999102 
L 536.530887 184.112922 
L 539.17754 184.056114 
L 541.824193 183.76967 
L 549.764153 183.50549 
L 555.05746 183.4884 
L 560.350767 183.753442 
L 562.99742 183.687919 
L 565.644073 183.504265 
L 568.290727 183.822528 
L 570.93738 183.743615 
L 586.8173 182.462276 
L 589.463953 182.866535 
L 597.403913 182.802487 
L 600.050567 182.955684 
L 602.69722 182.864333 
L 605.343873 182.661319 
L 607.990527 182.954799 
L 610.63718 182.817466 
L 615.930487 182.817943 
L 618.57714 182.157925 
L 629.163753 182.430457 
L 631.810407 182.357149 
L 634.45706 182.032372 
L 650.33698 182.043584 
L 655.630287 182.052957 
L 658.27694 181.93655 
L 663.570247 182.045354 
L 666.2169 181.876293 
L 674.15686 181.866397 
L 679.450167 181.439239 
L 690.03678 181.649085 
L 697.97674 181.350362 
L 700.623393 181.684558 
L 703.270047 181.760136 
L 705.9167 181.632131 
L 708.563353 181.307898 
L 711.210007 181.705393 
L 713.85666 181.444187 
L 719.149967 181.136046 
L 721.79662 181.317726 
L 724.443273 181.224764 
L 727.089927 181.004659 
L 729.73658 181.280391 
L 732.383233 180.854073 
L 735.029887 180.654463 
L 737.67654 180.755709 
L 742.969847 180.528524 
L 745.6165 180.290898 
L 748.263153 180.209534 
L 750.909807 179.83394 
L 756.203113 179.761404 
L 758.849767 179.886844 
L 769.43638 179.690662 
L 772.083033 180.023882 
L 774.729687 179.821458 
L 777.37634 180.114665 
L 785.3163 179.819392 
L 787.962953 179.49836 
L 793.25626 179.257512 
L 795.902913 178.951753 
L 798.549567 179.29993 
L 801.19622 179.063349 
L 806.489527 178.950028 
L 811.782833 178.6718 
L 814.429487 178.761857 
L 838.249367 178.109239 
L 840.89602 178.135657 
L 843.542673 178.312344 
L 843.542673 178.312344 
" clip-path="url(#p7f6d44caaa)" style="fill: none; stroke: #0000ff; stroke-width: 1.5; stroke-linecap: square"/>
   </g>
   <g id="patch_3">
    <path d="M 50.87 390.04 
L 50.87 43.44 
" style="fill: none; stroke: #000000; stroke-width: 0.8; stroke-linejoin: miter; stroke-linecap: square"/>
   </g>
   <g id="patch_4">
    <path d="M 844.866 390.04 
L 844.866 43.44 
" style="fill: none; stroke: #000000; stroke-width: 0.8; stroke-linejoin: miter; stroke-linecap: square"/>
   </g>
   <g id="patch_5">
    <path d="M 50.87 390.04 
L 844.866 390.04 
" style="fill: none; stroke: #000000; stroke-width: 0.8; stroke-linejoin: miter; stroke-linecap: square"/>
   </g>
   <g id="patch_6">
    <path d="M 50.87 43.44 
L 844.866 43.44 
" style="fill: none; stroke: #000000; stroke-width: 0.8; stroke-linejoin: miter; stroke-linecap: square"/>
   </g>
   <g id="text_15">
    <!-- Mean profit per step with confidence interval per simulation step -->
    <g transform="translate(220.284875 21.763062) scale(0.14 -0.14)">
     <defs>
      <path id="DejaVuSans-4d" d="M 628 4666 
L 1569 4666 
L 2759 1491 
L 3956 4666 
L 4897 4666 
L 4897 0 
L 4281 0 
L 4281 4097 
L 3078 897 
L 2444 897 
L 1241 4097 
L 1241 0 
L 628 0 
L 628 4666 
z
" transform="scale(0.015625)"/>
      <path id="DejaVuSans-61" d="M 2194 1759 
Q 1497 1759 1228 1600 
Q 959 1441 959 1056 
Q 959 750 1161 570 
Q 1363 391 1709 391 
Q 2188 391 2477 730 
Q 2766 1069 2766 1631 
L 2766 1759 
L 2194 1759 
z
M 3341 1997 
L 3341 0 
L 2766 0 
L 2766 531 
Q 2569 213 2275 61 
Q 1981 -91 1556 -91 
Q 1019 -91 701 211 
Q 384 513 384 1019 
Q 384 1609 779 1909 
Q 1175 2209 1959 2209 
L 2766 2209 
L 2766 2266 
Q 2766 2663 2505 2880 
Q 2244 3097 1772 3097 
Q 1472 3097 1187 3025 
Q 903 2953 641 2809 
L 641 3341 
Q 956 3463 1253 3523 
Q 1550 3584 1831 3584 
Q 2591 3584 2966 3190 
Q 3341 2797 3341 1997 
z
" transform="scale(0.015625)"/>
      <path id="DejaVuSans-6e" d="M 3513 2113 
L 3513 0 
L 2938 0 
L 2938 2094 
Q 2938 2591 2744 2837 
Q 2550 3084 2163 3084 
Q 1697 3084 1428 2787 
Q 1159 2491 1159 1978 
L 1159 0 
L 581 0 
L 581 3500 
L 1159 3500 
L 1159 2956 
Q 1366 3272 1645 3428 
Q 1925 3584 2291 3584 
Q 2894 3584 3203 3211 
Q 3513 2838 3513 2113 
z
" transform="scale(0.015625)"/>
      <path id="DejaVuSans-20" transform="scale(0.015625)"/>
      <path id="DejaVuSans-73" d="M 2834 3397 
L 2834 2853 
Q 2591 2978 2328 3040 
Q 2066 3103 1784 3103 
Q 1356 3103 1142 2972 
Q 928 2841 928 2578 
Q 928 2378 1081 2264 
Q 1234 2150 1697 2047 
L 1894 2003 
Q 2506 1872 2764 1633 
Q 3022 1394 3022 966 
Q 3022 478 2636 193 
Q 2250 -91 1575 -91 
Q 1294 -91 989 -36 
Q 684 19 347 128 
L 347 722 
Q 666 556 975 473 
Q 1284 391 1588 391 
Q 1994 391 2212 530 
Q 2431 669 2431 922 
Q 2431 1156 2273 1281 
Q 2116 1406 1581 1522 
L 1381 1569 
Q 847 1681 609 1914 
Q 372 2147 372 2553 
Q 372 3047 722 3315 
Q 1072 3584 1716 3584 
Q 2034 3584 2315 3537 
Q 2597 3491 2834 3397 
z
" transform="scale(0.015625)"/>
      <path id="DejaVuSans-77" d="M 269 3500 
L 844 3500 
L 1563 769 
L 2278 3500 
L 2956 3500 
L 3675 769 
L 4391 3500 
L 4966 3500 
L 4050 0 
L 3372 0 
L 2619 2869 
L 1863 0 
L 1184 0 
L 269 3500 
z
" transform="scale(0.015625)"/>
      <path id="DejaVuSans-68" d="M 3513 2113 
L 3513 0 
L 2938 0 
L 2938 2094 
Q 2938 2591 2744 2837 
Q 2550 3084 2163 3084 
Q 1697 3084 1428 2787 
Q 1159 2491 1159 1978 
L 1159 0 
L 581 0 
L 581 4863 
L 1159 4863 
L 1159 2956 
Q 1366 3272 1645 3428 
Q 1925 3584 2291 3584 
Q 2894 3584 3203 3211 
Q 3513 2838 3513 2113 
z
" transform="scale(0.015625)"/>
      <path id="DejaVuSans-63" d="M 3122 3366 
L 3122 2828 
Q 2878 2963 2633 3030 
Q 2388 3097 2138 3097 
Q 1578 3097 1268 2742 
Q 959 2388 959 1747 
Q 959 1106 1268 751 
Q 1578 397 2138 397 
Q 2388 397 2633 464 
Q 2878 531 3122 666 
L 3122 134 
Q 2881 22 2623 -34 
Q 2366 -91 2075 -91 
Q 1284 -91 818 406 
Q 353 903 353 1747 
Q 353 2603 823 3093 
Q 1294 3584 2113 3584 
Q 2378 3584 2631 3529 
Q 2884 3475 3122 3366 
z
" transform="scale(0.015625)"/>
      <path id="DejaVuSans-64" d="M 2906 2969 
L 2906 4863 
L 3481 4863 
L 3481 0 
L 2906 0 
L 2906 525 
Q 2725 213 2448 61 
Q 2172 -91 1784 -91 
Q 1150 -91 751 415 
Q 353 922 353 1747 
Q 353 2572 751 3078 
Q 1150 3584 1784 3584 
Q 2172 3584 2448 3432 
Q 2725 3281 2906 2969 
z
M 947 1747 
Q 947 1113 1208 752 
Q 1469 391 1925 391 
Q 2381 391 2643 752 
Q 2906 1113 2906 1747 
Q 2906 2381 2643 2742 
Q 2381 3103 1925 3103 
Q 1469 3103 1208 2742 
Q 947 2381 947 1747 
z
" transform="scale(0.015625)"/>
      <path id="DejaVuSans-76" d="M 191 3500 
L 800 3500 
L 1894 563 
L 2988 3500 
L 3597 3500 
L 2284 0 
L 1503 0 
L 191 3500 
z
" transform="scale(0.015625)"/>
      <path id="DejaVuSans-6c" d="M 603 4863 
L 1178 4863 
L 1178 0 
L 603 0 
L 603 4863 
z
" transform="scale(0.015625)"/>
      <path id="DejaVuSans-6d" d="M 3328 2828 
Q 3544 3216 3844 3400 
Q 4144 3584 4550 3584 
Q 5097 3584 5394 3201 
Q 5691 2819 5691 2113 
L 5691 0 
L 5113 0 
L 5113 2094 
Q 5113 2597 4934 2840 
Q 4756 3084 4391 3084 
Q 3944 3084 3684 2787 
Q 3425 2491 3425 1978 
L 3425 0 
L 2847 0 
L 2847 2094 
Q 2847 2600 2669 2842 
Q 2491 3084 2119 3084 
Q 1678 3084 1418 2786 
Q 1159 2488 1159 1978 
L 1159 0 
L 581 0 
L 581 3500 
L 1159 3500 
L 1159 2956 
Q 1356 3278 1631 3431 
Q 1906 3584 2284 3584 
Q 2666 3584 2933 3390 
Q 3200 3197 3328 2828 
z
" transform="scale(0.015625)"/>
      <path id="DejaVuSans-75" d="M 544 1381 
L 544 3500 
L 1119 3500 
L 1119 1403 
Q 1119 906 1312 657 
Q 1506 409 1894 409 
Q 2359 409 2629 706 
Q 2900 1003 2900 1516 
L 2900 3500 
L 3475 3500 
L 3475 0 
L 2900 0 
L 2900 538 
Q 2691 219 2414 64 
Q 2138 -91 1772 -91 
Q 1169 -91 856 284 
Q 544 659 544 1381 
z
M 1991 3584 
L 1991 3584 
z
" transform="scale(0.015625)"/>
     </defs>
     <use xlink:href="#DejaVuSans-4d"/>
     <use xlink:href="#DejaVuSans-65" transform="translate(86.279297 0)"/>
     <use xlink:href="#DejaVuSans-61" transform="translate(147.802734 0)"/>
     <use xlink:href="#DejaVuSans-6e" transform="translate(209.082031 0)"/>
     <use xlink:href="#DejaVuSans-20" transform="translate(272.460938 0)"/>
     <use xlink:href="#DejaVuSans-70" transform="translate(304.248047 0)"/>
     <use xlink:href="#DejaVuSans-72" transform="translate(367.724609 0)"/>
     <use xlink:href="#DejaVuSans-6f" transform="translate(406.587891 0)"/>
     <use xlink:href="#DejaVuSans-66" transform="translate(467.769531 0)"/>
     <use xlink:href="#DejaVuSans-69" transform="translate(502.974609 0)"/>
     <use xlink:href="#DejaVuSans-74" transform="translate(530.757812 0)"/>
     <use xlink:href="#DejaVuSans-20" transform="translate(569.966797 0)"/>
     <use xlink:href="#DejaVuSans-70" transform="translate(601.753906 0)"/>
     <use xlink:href="#DejaVuSans-65" transform="translate(665.230469 0)"/>
     <use xlink:href="#DejaVuSans-72" transform="translate(726.753906 0)"/>
     <use xlink:href="#DejaVuSans-20" transform="translate(767.867188 0)"/>
     <use xlink:href="#DejaVuSans-73" transform="translate(799.654297 0)"/>
     <use xlink:href="#DejaVuSans-74" transform="translate(851.753906 0)"/>
     <use xlink:href="#DejaVuSans-65" transform="translate(890.962891 0)"/>
     <use xlink:href="#DejaVuSans-70" transform="translate(952.486328 0)"/>
     <use xlink:href="#DejaVuSans-20" transform="translate(1015.962891 0)"/>
     <use xlink:href="#DejaVuSans-77" transform="translate(1047.75 0)"/>
     <use xlink:href="#DejaVuSans-69" transform="translate(1129.537109 0)"/>
     <use xlink:href="#DejaVuSans-74" transform="translate(1157.320312 0)"/>
     <use xlink:href="#DejaVuSans-68" transform="translate(1196.529297 0)"/>
     <use xlink:href="#DejaVuSans-20" transform="translate(1259.908203 0)"/>
     <use xlink:href="#DejaVuSans-63" transform="translate(1291.695312 0)"/>
     <use xlink:href="#DejaVuSans-6f" transform="translate(1346.675781 0)"/>
     <use xlink:href="#DejaVuSans-6e" transform="translate(1407.857422 0)"/>
     <use xlink:href="#DejaVuSans-66" transform="translate(1471.236328 0)"/>
     <use xlink:href="#DejaVuSans-69" transform="translate(1506.441406 0)"/>
     <use xlink:href="#DejaVuSans-64" transform="translate(1534.224609 0)"/>
     <use xlink:href="#DejaVuSans-65" transform="translate(1597.701172 0)"/>
     <use xlink:href="#DejaVuSans-6e" transform="translate(1659.224609 0)"/>
     <use xlink:href="#DejaVuSans-63" transform="translate(1722.603516 0)"/>
     <use xlink:href="#DejaVuSans-65" transform="translate(1777.583984 0)"/>
     <use xlink:href="#DejaVuSans-20" transform="translate(1839.107422 0)"/>
     <use xlink:href="#DejaVuSans-69" transform="translate(1870.894531 0)"/>
     <use xlink:href="#DejaVuSans-6e" transform="translate(1898.677734 0)"/>
     <use xlink:href="#DejaVuSans-74" transform="translate(1962.056641 0)"/>
     <use xlink:href="#DejaVuSans-65" transform="translate(2001.265625 0)"/>
     <use xlink:href="#DejaVuSans-72" transform="translate(2062.789062 0)"/>
     <use xlink:href="#DejaVuSans-76" transform="translate(2103.902344 0)"/>
     <use xlink:href="#DejaVuSans-61" transform="translate(2163.082031 0)"/>
     <use xlink:href="#DejaVuSans-6c" transform="translate(2224.361328 0)"/>
     <use xlink:href="#DejaVuSans-20" transform="translate(2252.144531 0)"/>
     <use xlink:href="#DejaVuSans-70" transform="translate(2283.931641 0)"/>
     <use xlink:href="#DejaVuSans-65" transform="translate(2347.408203 0)"/>
     <use xlink:href="#DejaVuSans-72" transform="translate(2408.931641 0)"/>
     <use xlink:href="#DejaVuSans-20" transform="translate(2450.044922 0)"/>
     <use xlink:href="#DejaVuSans-73" transform="translate(2481.832031 0)"/>
     <use xlink:href="#DejaVuSans-69" transform="translate(2533.931641 0)"/>
     <use xlink:href="#DejaVuSans-6d" transform="translate(2561.714844 0)"/>
     <use xlink:href="#DejaVuSans-75" transform="translate(2659.126953 0)"/>
     <use xlink:href="#DejaVuSans-6c" transform="translate(2722.505859 0)"/>
     <use xlink:href="#DejaVuSans-61" transform="translate(2750.289062 0)"/>
     <use xlink:href="#DejaVuSans-74" transform="translate(2811.568359 0)"/>
     <use xlink:href="#DejaVuSans-69" transform="translate(2850.777344 0)"/>
     <use xlink:href="#DejaVuSans-6f" transform="translate(2878.560547 0)"/>
     <use xlink:href="#DejaVuSans-6e" transform="translate(2939.742188 0)"/>
     <use xlink:href="#DejaVuSans-20" transform="translate(3003.121094 0)"/>
     <use xlink:href="#DejaVuSans-73" transform="translate(3034.908203 0)"/>
     <use xlink:href="#DejaVuSans-74" transform="translate(3087.007812 0)"/>
     <use xlink:href="#DejaVuSans-65" transform="translate(3126.216797 0)"/>
     <use xlink:href="#DejaVuSans-70" transform="translate(3187.740234 0)"/>
    </g>
    <!-- Base Product: OG Kush, Recipe size: 7, T0: 50.0 -->
    <g transform="translate(281.490031 37.44) scale(0.14 -0.14)">
     <defs>
      <path id="DejaVuSans-42" d="M 1259 2228 
L 1259 519 
L 2272 519 
Q 2781 519 3026 730 
Q 3272 941 3272 1375 
Q 3272 1813 3026 2020 
Q 2781 2228 2272 2228 
L 1259 2228 
z
M 1259 4147 
L 1259 2741 
L 2194 2741 
Q 2656 2741 2882 2914 
Q 3109 3088 3109 3444 
Q 3109 3797 2882 3972 
Q 2656 4147 2194 4147 
L 1259 4147 
z
M 628 4666 
L 2241 4666 
Q 2963 4666 3353 4366 
Q 3744 4066 3744 3513 
Q 3744 3084 3544 2831 
Q 3344 2578 2956 2516 
Q 3422 2416 3680 2098 
Q 3938 1781 3938 1306 
Q 3938 681 3513 340 
Q 3088 0 2303 0 
L 628 0 
L 628 4666 
z
" transform="scale(0.015625)"/>
      <path id="DejaVuSans-3a" d="M 750 794 
L 1409 794 
L 1409 0 
L 750 0 
L 750 794 
z
M 750 3309 
L 1409 3309 
L 1409 2516 
L 750 2516 
L 750 3309 
z
" transform="scale(0.015625)"/>
      <path id="DejaVuSans-4f" d="M 2522 4238 
Q 1834 4238 1429 3725 
Q 1025 3213 1025 2328 
Q 1025 1447 1429 934 
Q 1834 422 2522 422 
Q 3209 422 3611 934 
Q 4013 1447 4013 2328 
Q 4013 3213 3611 3725 
Q 3209 4238 2522 4238 
z
M 2522 4750 
Q 3503 4750 4090 4092 
Q 4678 3434 4678 2328 
Q 4678 1225 4090 567 
Q 3503 -91 2522 -91 
Q 1538 -91 948 565 
Q 359 1222 359 2328 
Q 359 3434 948 4092 
Q 1538 4750 2522 4750 
z
" transform="scale(0.015625)"/>
      <path id="DejaVuSans-47" d="M 3809 666 
L 3809 1919 
L 2778 1919 
L 2778 2438 
L 4434 2438 
L 4434 434 
Q 4069 175 3628 42 
Q 3188 -91 2688 -91 
Q 1594 -91 976 548 
Q 359 1188 359 2328 
Q 359 3472 976 4111 
Q 1594 4750 2688 4750 
Q 3144 4750 3555 4637 
Q 3966 4525 4313 4306 
L 4313 3634 
Q 3963 3931 3569 4081 
Q 3175 4231 2741 4231 
Q 1884 4231 1454 3753 
Q 1025 3275 1025 2328 
Q 1025 1384 1454 906 
Q 1884 428 2741 428 
Q 3075 428 3337 486 
Q 3600 544 3809 666 
z
" transform="scale(0.015625)"/>
      <path id="DejaVuSans-4b" d="M 628 4666 
L 1259 4666 
L 1259 2694 
L 3353 4666 
L 4166 4666 
L 1850 2491 
L 4331 0 
L 3500 0 
L 1259 2247 
L 1259 0 
L 628 0 
L 628 4666 
z
" transform="scale(0.015625)"/>
      <path id="DejaVuSans-2c" d="M 750 794 
L 1409 794 
L 1409 256 
L 897 -744 
L 494 -744 
L 750 256 
L 750 794 
z
" transform="scale(0.015625)"/>
      <path id="DejaVuSans-52" d="M 2841 2188 
Q 3044 2119 3236 1894 
Q 3428 1669 3622 1275 
L 4263 0 
L 3584 0 
L 2988 1197 
Q 2756 1666 2539 1819 
Q 2322 1972 1947 1972 
L 1259 1972 
L 1259 0 
L 628 0 
L 628 4666 
L 2053 4666 
Q 2853 4666 3247 4331 
Q 3641 3997 3641 3322 
Q 3641 2881 3436 2590 
Q 3231 2300 2841 2188 
z
M 1259 4147 
L 1259 2491 
L 2053 2491 
Q 2509 2491 2742 2702 
Q 2975 2913 2975 3322 
Q 2975 3731 2742 3939 
Q 2509 4147 2053 4147 
L 1259 4147 
z
" transform="scale(0.015625)"/>
      <path id="DejaVuSans-7a" d="M 353 3500 
L 3084 3500 
L 3084 2975 
L 922 459 
L 3084 459 
L 3084 0 
L 275 0 
L 275 525 
L 2438 3041 
L 353 3041 
L 353 3500 
z
" transform="scale(0.015625)"/>
      <path id="DejaVuSans-37" d="M 525 4666 
L 3525 4666 
L 3525 4397 
L 1831 0 
L 1172 0 
L 2766 4134 
L 525 4134 
L 525 4666 
z
" transform="scale(0.015625)"/>
      <path id="DejaVuSans-54" d="M -19 4666 
L 3928 4666 
L 3928 4134 
L 2272 4134 
L 2272 0 
L 1638 0 
L 1638 4134 
L -19 4134 
L -19 4666 
z
" transform="scale(0.015625)"/>
      <path id="DejaVuSans-2e" d="M 684 794 
L 1344 794 
L 1344 0 
L 684 0 
L 684 794 
z
" transform="scale(0.015625)"/>
     </defs>
     <use xlink:href="#DejaVuSans-42"/>
     <use xlink:href="#DejaVuSans-61" transform="translate(68.603516 0)"/>
     <use xlink:href="#DejaVuSans-73" transform="translate(129.882812 0)"/>
     <use xlink:href="#DejaVuSans-65" transform="translate(181.982422 0)"/>
     <use xlink:href="#DejaVuSans-20" transform="translate(243.505859 0)"/>
     <use xlink:href="#DejaVuSans-50" transform="translate(275.292969 0)"/>
     <use xlink:href="#DejaVuSans-72" transform="translate(333.845703 0)"/>
     <use xlink:href="#DejaVuSans-6f" transform="translate(372.708984 0)"/>
     <use xlink:href="#DejaVuSans-64" transform="translate(433.890625 0)"/>
     <use xlink:href="#DejaVuSans-75" transform="translate(497.367188 0)"/>
     <use xlink:href="#DejaVuSans-63" transform="translate(560.746094 0)"/>
     <use xlink:href="#DejaVuSans-74" transform="translate(615.726562 0)"/>
     <use xlink:href="#DejaVuSans-3a" transform="translate(654.935547 0)"/>
     <use xlink:href="#DejaVuSans-20" transform="translate(688.626953 0)"/>
     <use xlink:href="#DejaVuSans-4f" transform="translate(720.414062 0)"/>
     <use xlink:href="#DejaVuSans-47" transform="translate(799.125 0)"/>
     <use xlink:href="#DejaVuSans-20" transform="translate(876.615234 0)"/>
     <use xlink:href="#DejaVuSans-4b" transform="translate(908.402344 0)"/>
     <use xlink:href="#DejaVuSans-75" transform="translate(968.978516 0)"/>
     <use xlink:href="#DejaVuSans-73" transform="translate(1032.357422 0)"/>
     <use xlink:href="#DejaVuSans-68" transform="translate(1084.457031 0)"/>
     <use xlink:href="#DejaVuSans-2c" transform="translate(1147.835938 0)"/>
     <use xlink:href="#DejaVuSans-20" transform="translate(1179.623047 0)"/>
     <use xlink:href="#DejaVuSans-52" transform="translate(1211.410156 0)"/>
     <use xlink:href="#DejaVuSans-65" transform="translate(1276.392578 0)"/>
     <use xlink:href="#DejaVuSans-63" transform="translate(1337.916016 0)"/>
     <use xlink:href="#DejaVuSans-69" transform="translate(1392.896484 0)"/>
     <use xlink:href="#DejaVuSans-70" transform="translate(1420.679688 0)"/>
     <use xlink:href="#DejaVuSans-65" transform="translate(1484.15625 0)"/>
     <use xlink:href="#DejaVuSans-20" transform="translate(1545.679688 0)"/>
     <use xlink:href="#DejaVuSans-73" transform="translate(1577.466797 0)"/>
     <use xlink:href="#DejaVuSans-69" transform="translate(1629.566406 0)"/>
     <use xlink:href="#DejaVuSans-7a" transform="translate(1657.349609 0)"/>
     <use xlink:href="#DejaVuSans-65" transform="translate(1709.839844 0)"/>
     <use xlink:href="#DejaVuSans-3a" transform="translate(1771.363281 0)"/>
     <use xlink:href="#DejaVuSans-20" transform="translate(1805.054688 0)"/>
     <use xlink:href="#DejaVuSans-37" transform="translate(1836.841797 0)"/>
     <use xlink:href="#DejaVuSans-2c" transform="translate(1900.464844 0)"/>
     <use xlink:href="#DejaVuSans-20" transform="translate(1932.251953 0)"/>
     <use xlink:href="#DejaVuSans-54" transform="translate(1964.039062 0)"/>
     <use xlink:href="#DejaVuSans-30" transform="translate(2025.123047 0)"/>
     <use xlink:href="#DejaVuSans-3a" transform="translate(2088.746094 0)"/>
     <use xlink:href="#DejaVuSans-20" transform="translate(2122.4375 0)"/>
     <use xlink:href="#DejaVuSans-35" transform="translate(2154.224609 0)"/>
     <use xlink:href="#DejaVuSans-30" transform="translate(2217.847656 0)"/>
     <use xlink:href="#DejaVuSans-2e" transform="translate(2281.470703 0)"/>
     <use xlink:href="#DejaVuSans-30" transform="translate(2313.257812 0)"/>
    </g>
   </g>
  </g>
 </g>
 <defs>
  <clipPath id="p7f6d44caaa">
   <rect x="50.87" y="43.44" width="793.996" height="346.6"/>
  </clipPath>
 </defs>
</svg>
