<?xml version="1.0" encoding="utf-8" standalone="no"?>
<!DOCTYPE svg PUBLIC "-//W3C//DTD SVG 1.1//EN"
  "http://www.w3.org/Graphics/SVG/1.1/DTD/svg11.dtd">
<svg xmlns:xlink="http://www.w3.org/1999/xlink" width="864pt" height="432pt" viewBox="0 0 864 432" xmlns="http://www.w3.org/2000/svg" version="1.1">
 <metadata>
  <rdf:RDF xmlns:dc="http://purl.org/dc/elements/1.1/" xmlns:cc="http://creativecommons.org/ns#" xmlns:rdf="http://www.w3.org/1999/02/22-rdf-syntax-ns#">
   <cc:Work>
    <dc:type rdf:resource="http://purl.org/dc/dcmitype/StillImage"/>
    <dc:date>2025-05-24T02:04:25.919705</dc:date>
    <dc:format>image/svg+xml</dc:format>
    <dc:creator>
     <cc:Agent>
      <dc:title>Matplotlib v3.10.3, https://matplotlib.org/</dc:title>
     </cc:Agent>
    </dc:creator>
   </cc:Work>
  </rdf:RDF>
 </metadata>
 <defs>
  <style type="text/css">*{stroke-linejoin: round; stroke-linecap: butt}</style>
 </defs>
 <g id="figure_1">
  <g id="patch_1">
   <path d="M 0 432 
L 864 432 
L 864 0 
L 0 0 
z
" style="fill: #ffffff"/>
  </g>
  <g id="axes_1">
   <g id="patch_2">
    <path d="M 50.87 390.04 
L 844.866 390.04 
L 844.866 43.44 
L 50.87 43.44 
z
" style="fill: #ffffff"/>
   </g>
   <g id="FillBetweenPolyCollection_1">
    <defs>
     <path id="m8d04853c82" d="M 52.193327 -301.004344 
L 52.193327 -58.380591 
L 54.83998 -57.714545 
L 57.486633 -64.902708 
L 60.133287 -71.048712 
L 62.77994 -78.049093 
L 65.426593 -84.083563 
L 68.073247 -88.90397 
L 70.7199 -95.161208 
L 73.366553 -99.76386 
L 76.013207 -103.921453 
L 78.65986 -108.683964 
L 81.306513 -112.09887 
L 83.953167 -114.806272 
L 86.59982 -117.48747 
L 89.246473 -120.159876 
L 91.893127 -122.970826 
L 94.53978 -125.314678 
L 97.186433 -127.573747 
L 99.833087 -129.887181 
L 102.47974 -132.556344 
L 105.126393 -134.59654 
L 107.773047 -135.688951 
L 110.4197 -137.819263 
L 113.066353 -139.72632 
L 115.713007 -141.583405 
L 118.35966 -143.001283 
L 121.006313 -144.148492 
L 123.652967 -145.486921 
L 126.29962 -146.61061 
L 128.946273 -148.844098 
L 131.592927 -150.724341 
L 134.23958 -151.829211 
L 136.886233 -152.631647 
L 139.532887 -153.731576 
L 142.17954 -154.448961 
L 144.826193 -155.652046 
L 147.472847 -156.513196 
L 150.1195 -156.834727 
L 152.766153 -158.220291 
L 155.412807 -159.039558 
L 158.05946 -158.786993 
L 160.706113 -159.329822 
L 163.352767 -160.656247 
L 165.99942 -160.941799 
L 168.646073 -161.305867 
L 171.292727 -162.021356 
L 173.93938 -162.846568 
L 176.586033 -163.606105 
L 179.232687 -164.180212 
L 181.87934 -164.798295 
L 184.525993 -164.892657 
L 187.172647 -166.422793 
L 189.8193 -166.869789 
L 192.465953 -167.594725 
L 195.112607 -168.187039 
L 197.75926 -168.427041 
L 200.405913 -168.701956 
L 203.052567 -168.875186 
L 205.69922 -169.339136 
L 208.345873 -170.223247 
L 210.992527 -171.214242 
L 213.63918 -172.0199 
L 216.285833 -173.447358 
L 218.932487 -173.391554 
L 221.57914 -173.277493 
L 224.225793 -173.572252 
L 226.872447 -174.295499 
L 229.5191 -174.589533 
L 232.165753 -175.091949 
L 234.812407 -175.82518 
L 237.45906 -176.298938 
L 240.105713 -176.21689 
L 242.752367 -176.002678 
L 245.39902 -176.715029 
L 248.045673 -177.65311 
L 250.692327 -177.579017 
L 253.33898 -178.249174 
L 255.985633 -178.756861 
L 258.632287 -179.010172 
L 261.27894 -179.549469 
L 263.925593 -180.110122 
L 266.572247 -179.987724 
L 269.2189 -180.936286 
L 271.865553 -180.78843 
L 274.512207 -181.343636 
L 277.15886 -181.443912 
L 279.805513 -181.670729 
L 282.452167 -181.487763 
L 285.09882 -182.049369 
L 287.745473 -182.421422 
L 290.392127 -182.46024 
L 293.03878 -182.116368 
L 295.685433 -182.637851 
L 298.332087 -182.964623 
L 300.97874 -183.384764 
L 303.625393 -183.528083 
L 306.272047 -183.566321 
L 308.9187 -184.574819 
L 311.565353 -185.135866 
L 314.212007 -185.414996 
L 316.85866 -185.688172 
L 319.505313 -185.613311 
L 322.151967 -186.944553 
L 324.79862 -186.918889 
L 327.445273 -187.389633 
L 330.091927 -187.1522 
L 332.73858 -187.562677 
L 335.385233 -187.485932 
L 338.031887 -187.213171 
L 340.67854 -187.808572 
L 343.325193 -188.274583 
L 345.971847 -188.524134 
L 348.6185 -188.776367 
L 351.265153 -188.728 
L 353.911807 -189.282139 
L 356.55846 -189.181169 
L 359.205113 -189.371809 
L 361.851767 -189.93499 
L 364.49842 -190.0174 
L 367.145073 -190.052676 
L 369.791727 -190.040889 
L 372.43838 -190.462397 
L 375.085033 -190.743671 
L 377.731687 -190.813591 
L 380.37834 -190.230349 
L 383.024993 -191.00418 
L 385.671647 -191.109002 
L 388.3183 -191.662944 
L 390.964953 -192.768705 
L 393.611607 -193.062884 
L 396.25826 -193.257719 
L 398.904913 -193.523478 
L 401.551567 -193.818817 
L 404.19822 -193.616276 
L 406.844873 -194.083417 
L 409.491527 -194.306588 
L 412.13818 -194.016552 
L 414.784833 -194.332419 
L 417.431487 -194.454444 
L 420.07814 -195.087089 
L 422.724793 -195.133281 
L 425.371447 -195.698149 
L 428.0181 -195.746081 
L 430.664753 -196.21985 
L 433.311407 -196.551769 
L 435.95806 -195.999495 
L 438.604713 -196.33446 
L 441.251367 -196.617971 
L 443.89802 -196.83555 
L 446.544673 -197.097622 
L 449.191327 -197.155808 
L 451.83798 -197.300536 
L 454.484633 -197.426311 
L 457.131287 -197.744891 
L 459.77794 -197.989522 
L 462.424593 -197.530895 
L 465.071247 -197.243842 
L 467.7179 -197.080119 
L 470.364553 -197.4231 
L 473.011207 -197.777909 
L 475.65786 -198.061192 
L 478.304513 -198.441147 
L 480.951167 -198.572743 
L 483.59782 -198.679585 
L 486.244473 -198.741478 
L 488.891127 -199.030831 
L 491.53778 -199.176553 
L 494.184433 -199.731106 
L 496.831087 -199.907299 
L 499.47774 -200.274246 
L 502.124393 -200.033136 
L 504.771047 -199.991646 
L 507.4177 -200.942518 
L 510.064353 -201.237153 
L 512.711007 -201.843884 
L 515.35766 -201.614022 
L 518.004313 -201.354497 
L 520.650967 -201.303789 
L 523.29762 -201.295152 
L 525.944273 -201.063487 
L 528.590927 -201.386935 
L 531.23758 -201.64414 
L 533.884233 -201.453654 
L 536.530887 -200.883877 
L 539.17754 -201.222777 
L 541.824193 -201.204031 
L 544.470847 -201.652197 
L 547.1175 -201.825946 
L 549.764153 -201.605757 
L 552.410807 -201.656899 
L 555.05746 -201.578166 
L 557.704113 -201.862029 
L 560.350767 -201.784331 
L 562.99742 -201.873215 
L 565.644073 -202.455483 
L 568.290727 -202.523839 
L 570.93738 -202.47311 
L 573.584033 -202.896233 
L 576.230687 -202.480837 
L 578.87734 -202.384517 
L 581.523993 -202.868187 
L 584.170647 -203.276624 
L 586.8173 -203.515331 
L 589.463953 -203.822518 
L 592.110607 -203.813073 
L 594.75726 -203.910345 
L 597.403913 -204.172708 
L 600.050567 -204.091157 
L 602.69722 -204.422124 
L 605.343873 -203.95633 
L 607.990527 -203.523492 
L 610.63718 -203.697613 
L 613.283833 -204.080779 
L 615.930487 -204.139462 
L 618.57714 -204.504482 
L 621.223793 -204.767922 
L 623.870447 -204.886633 
L 626.5171 -204.747084 
L 629.163753 -204.839406 
L 631.810407 -204.974875 
L 634.45706 -205.721466 
L 637.103713 -206.149001 
L 639.750367 -206.064675 
L 642.39702 -206.230925 
L 645.043673 -206.336814 
L 647.690327 -206.277262 
L 650.33698 -206.457369 
L 652.983633 -206.695434 
L 655.630287 -207.346659 
L 658.27694 -207.436454 
L 660.923593 -207.227181 
L 663.570247 -206.928362 
L 666.2169 -207.090221 
L 668.863553 -207.435604 
L 671.510207 -207.533271 
L 674.15686 -207.440079 
L 676.803513 -207.655545 
L 679.450167 -207.589592 
L 682.09682 -207.891932 
L 684.743473 -208.26443 
L 687.390127 -208.244421 
L 690.03678 -208.455102 
L 692.683433 -208.728815 
L 695.330087 -208.570271 
L 697.97674 -208.491227 
L 700.623393 -208.573068 
L 703.270047 -208.57025 
L 705.9167 -208.239801 
L 708.563353 -208.712016 
L 711.210007 -208.202806 
L 713.85666 -208.910145 
L 716.503313 -209.357814 
L 719.149967 -209.416724 
L 721.79662 -209.664504 
L 724.443273 -209.829035 
L 727.089927 -210.23538 
L 729.73658 -210.325899 
L 732.383233 -210.543313 
L 735.029887 -210.2029 
L 737.67654 -209.871436 
L 740.323193 -210.180032 
L 742.969847 -210.283477 
L 745.6165 -209.957503 
L 748.263153 -210.297211 
L 750.909807 -210.12949 
L 753.55646 -210.081206 
L 756.203113 -210.63841 
L 758.849767 -210.559697 
L 761.49642 -210.819885 
L 764.143073 -210.802382 
L 766.789727 -211.221735 
L 769.43638 -211.262624 
L 772.083033 -211.062735 
L 774.729687 -211.146129 
L 777.37634 -211.159904 
L 780.022993 -211.10988 
L 782.669647 -211.259144 
L 785.3163 -211.202057 
L 787.962953 -211.013498 
L 790.609607 -211.342041 
L 793.25626 -211.586507 
L 795.902913 -211.628038 
L 798.549567 -211.728397 
L 801.19622 -211.942206 
L 803.842873 -211.91853 
L 806.489527 -211.975555 
L 809.13618 -211.936116 
L 811.782833 -211.985457 
L 814.429487 -212.105183 
L 817.07614 -212.041239 
L 819.722793 -212.122086 
L 822.369447 -212.586471 
L 825.0161 -212.499452 
L 827.662753 -212.92069 
L 830.309407 -213.067199 
L 832.95606 -213.037558 
L 835.602713 -213.03037 
L 838.249367 -212.988466 
L 840.89602 -213.141376 
L 843.542673 -213.180546 
L 843.542673 -372.805455 
L 843.542673 -372.805455 
L 840.89602 -372.66199 
L 838.249367 -372.622841 
L 835.602713 -372.590734 
L 832.95606 -372.360975 
L 830.309407 -372.33964 
L 827.662753 -372.296887 
L 825.0161 -372.438321 
L 822.369447 -372.201354 
L 819.722793 -372.387614 
L 817.07614 -372.412719 
L 814.429487 -372.170822 
L 811.782833 -372.134531 
L 809.13618 -372.037466 
L 806.489527 -371.802445 
L 803.842873 -371.540083 
L 801.19622 -371.348148 
L 798.549567 -371.366128 
L 795.902913 -371.310449 
L 793.25626 -371.354114 
L 790.609607 -371.582091 
L 787.962953 -371.566845 
L 785.3163 -371.509012 
L 782.669647 -371.360576 
L 780.022993 -371.379716 
L 777.37634 -371.373626 
L 774.729687 -371.40014 
L 772.083033 -371.413894 
L 769.43638 -371.000154 
L 766.789727 -370.999616 
L 764.143073 -371.146229 
L 761.49642 -371.007943 
L 758.849767 -371.110228 
L 756.203113 -370.909427 
L 753.55646 -371.235216 
L 750.909807 -371.238281 
L 748.263153 -370.946381 
L 745.6165 -371.08939 
L 742.969847 -370.910753 
L 740.323193 -370.895425 
L 737.67654 -371.224113 
L 735.029887 -370.885606 
L 732.383233 -370.60108 
L 729.73658 -370.918583 
L 727.089927 -370.878232 
L 724.443273 -370.847368 
L 721.79662 -370.877072 
L 719.149967 -370.947499 
L 716.503313 -370.828146 
L 713.85666 -370.882126 
L 711.210007 -371.176181 
L 708.563353 -370.690647 
L 705.9167 -370.934615 
L 703.270047 -370.795045 
L 700.623393 -370.673869 
L 697.97674 -370.66463 
L 695.330087 -370.404298 
L 692.683433 -370.235107 
L 690.03678 -370.408192 
L 687.390127 -370.459645 
L 684.743473 -370.459563 
L 682.09682 -370.727352 
L 679.450167 -370.795625 
L 676.803513 -370.785268 
L 674.15686 -370.726026 
L 671.510207 -370.628174 
L 668.863553 -370.451857 
L 666.2169 -370.49809 
L 663.570247 -370.510892 
L 660.923593 -370.221145 
L 658.27694 -370.040644 
L 655.630287 -369.854841 
L 652.983633 -370.21663 
L 650.33698 -370.155358 
L 647.690327 -370.18705 
L 645.043673 -370.067945 
L 642.39702 -370.117037 
L 639.750367 -370.126151 
L 637.103713 -370.022002 
L 634.45706 -370.049676 
L 631.810407 -370.548964 
L 629.163753 -370.325419 
L 626.5171 -370.289874 
L 623.870447 -370.160122 
L 621.223793 -370.036336 
L 618.57714 -370.217873 
L 615.930487 -370.203663 
L 613.283833 -369.817473 
L 610.63718 -370.022665 
L 607.990527 -369.856456 
L 605.343873 -369.453944 
L 602.69722 -369.041902 
L 600.050567 -369.086313 
L 597.403913 -368.955484 
L 594.75726 -368.956934 
L 592.110607 -368.876647 
L 589.463953 -368.552391 
L 586.8173 -368.521072 
L 584.170647 -368.553593 
L 581.523993 -368.734881 
L 578.87734 -368.988709 
L 576.230687 -368.807255 
L 573.584033 -368.082641 
L 570.93738 -368.200296 
L 568.290727 -367.989056 
L 565.644073 -367.834737 
L 562.99742 -368.21115 
L 560.350767 -368.320478 
L 557.704113 -367.98222 
L 555.05746 -368.117648 
L 552.410807 -367.797576 
L 549.764153 -367.745336 
L 547.1175 -367.407326 
L 544.470847 -367.352931 
L 541.824193 -367.600504 
L 539.17754 -367.052373 
L 536.530887 -367.241283 
L 533.884233 -366.903377 
L 531.23758 -366.469545 
L 528.590927 -366.42122 
L 525.944273 -366.294181 
L 523.29762 -366.109247 
L 520.650967 -366.035195 
L 518.004313 -365.970858 
L 515.35766 -365.534022 
L 512.711007 -365.241521 
L 510.064353 -365.482403 
L 507.4177 -365.670361 
L 504.771047 -366.154714 
L 502.124393 -365.974193 
L 499.47774 -365.727407 
L 496.831087 -365.629658 
L 494.184433 -365.314434 
L 491.53778 -365.822173 
L 488.891127 -365.751062 
L 486.244473 -365.740685 
L 483.59782 -365.90913 
L 480.951167 -365.746982 
L 478.304513 -365.743025 
L 475.65786 -365.607784 
L 473.011207 -365.588769 
L 470.364553 -365.581043 
L 467.7179 -365.732378 
L 465.071247 -365.187395 
L 462.424593 -364.790641 
L 459.77794 -364.365695 
L 457.131287 -364.090532 
L 454.484633 -364.029757 
L 451.83798 -364.10412 
L 449.191327 -363.899694 
L 446.544673 -363.87113 
L 443.89802 -363.794033 
L 441.251367 -363.617633 
L 438.604713 -363.638948 
L 435.95806 -363.716687 
L 433.311407 -363.158198 
L 430.664753 -363.208243 
L 428.0181 -363.551763 
L 425.371447 -363.368942 
L 422.724793 -363.222412 
L 420.07814 -362.854533 
L 417.431487 -363.190222 
L 414.784833 -363.146371 
L 412.13818 -363.1594 
L 409.491527 -362.674239 
L 406.844873 -362.716164 
L 404.19822 -362.783608 
L 401.551567 -362.36585 
L 398.904913 -362.599254 
L 396.25826 -362.373058 
L 393.611607 -362.250018 
L 390.964953 -362.317421 
L 388.3183 -362.791107 
L 385.671647 -362.68909 
L 383.024993 -362.571332 
L 380.37834 -362.946254 
L 377.731687 -362.324505 
L 375.085033 -362.220355 
L 372.43838 -362.128489 
L 369.791727 -362.076601 
L 367.145073 -361.608321 
L 364.49842 -361.321413 
L 361.851767 -360.9595 
L 359.205113 -360.807563 
L 356.55846 -360.625053 
L 353.911807 -360.307343 
L 351.265153 -360.482168 
L 348.6185 -360.111866 
L 345.971847 -359.696489 
L 343.325193 -359.456249 
L 340.67854 -359.380292 
L 338.031887 -359.1635 
L 335.385233 -358.716784 
L 332.73858 -358.41695 
L 330.091927 -358.265531 
L 327.445273 -358.127908 
L 324.79862 -358.153344 
L 322.151967 -357.956666 
L 319.505313 -358.572408 
L 316.85866 -358.148477 
L 314.212007 -358.166871 
L 311.565353 -357.923959 
L 308.9187 -358.006027 
L 306.272047 -358.303707 
L 303.625393 -357.684816 
L 300.97874 -357.542035 
L 298.332087 -357.702962 
L 295.685433 -357.655962 
L 293.03878 -357.505289 
L 290.392127 -357.067666 
L 287.745473 -356.971388 
L 285.09882 -356.81303 
L 282.452167 -357.035642 
L 279.805513 -356.478459 
L 277.15886 -356.329112 
L 274.512207 -355.932005 
L 271.865553 -356.028718 
L 269.2189 -355.585648 
L 266.572247 -355.68176 
L 263.925593 -355.182493 
L 261.27894 -355.429258 
L 258.632287 -355.174207 
L 255.985633 -355.146637 
L 253.33898 -355.244573 
L 250.692327 -355.327511 
L 248.045673 -354.798105 
L 245.39902 -354.832179 
L 242.752367 -354.61257 
L 240.105713 -353.973774 
L 237.45906 -353.268962 
L 234.812407 -353.218006 
L 232.165753 -353.083449 
L 229.5191 -353.021452 
L 226.872447 -352.664116 
L 224.225793 -352.314507 
L 221.57914 -352.126507 
L 218.932487 -351.277858 
L 216.285833 -350.658305 
L 213.63918 -350.852187 
L 210.992527 -350.751041 
L 208.345873 -351.066887 
L 205.69922 -351.118589 
L 203.052567 -350.927441 
L 200.405913 -350.697869 
L 197.75926 -350.210843 
L 195.112607 -349.710561 
L 192.465953 -349.314221 
L 189.8193 -349.022383 
L 187.172647 -348.509113 
L 184.525993 -348.859219 
L 181.87934 -348.000917 
L 179.232687 -347.669391 
L 176.586033 -347.340371 
L 173.93938 -346.388112 
L 171.292727 -346.171133 
L 168.646073 -345.677376 
L 165.99942 -344.977163 
L 163.352767 -344.284966 
L 160.706113 -344.03354 
L 158.05946 -343.472981 
L 155.412807 -342.216661 
L 152.766153 -341.938162 
L 150.1195 -341.829725 
L 147.472847 -340.854203 
L 144.826193 -340.184419 
L 142.17954 -339.834665 
L 139.532887 -339.074982 
L 136.886233 -338.698548 
L 134.23958 -338.090118 
L 131.592927 -337.597686 
L 128.946273 -337.3236 
L 126.29962 -337.414907 
L 123.652967 -336.567998 
L 121.006313 -335.658139 
L 118.35966 -334.765763 
L 115.713007 -334.201537 
L 113.066353 -333.662602 
L 110.4197 -332.699219 
L 107.773047 -332.418836 
L 105.126393 -330.953202 
L 102.47974 -330.158948 
L 99.833087 -329.692553 
L 97.186433 -328.859647 
L 94.53978 -327.588103 
L 91.893127 -326.631078 
L 89.246473 -325.542169 
L 86.59982 -324.154316 
L 83.953167 -322.742456 
L 81.306513 -321.092717 
L 78.65986 -319.994589 
L 76.013207 -319.140741 
L 73.366553 -318.119193 
L 70.7199 -316.102839 
L 68.073247 -314.874442 
L 65.426593 -311.921881 
L 62.77994 -309.819336 
L 60.133287 -307.216591 
L 57.486633 -303.714697 
L 54.83998 -300.905891 
L 52.193327 -301.004344 
z
" style="stroke: #0000ff; stroke-opacity: 0.2"/>
    </defs>
    <g clip-path="url(#p51577ff449)">
     <use xlink:href="#m8d04853c82" x="0" y="432" style="fill: #0000ff; fill-opacity: 0.2; stroke: #0000ff; stroke-opacity: 0.2"/>
    </g>
   </g>
   <g id="matplotlib.axis_1">
    <g id="xtick_1">
     <g id="line2d_1">
      <defs>
       <path id="m87e7507f39" d="M 0 0 
L 0 3.5 
" style="stroke: #000000; stroke-width: 0.8"/>
      </defs>
      <g>
       <use xlink:href="#m87e7507f39" x="181.87934" y="390.04" style="stroke: #000000; stroke-width: 0.8"/>
      </g>
     </g>
     <g id="text_1">
      <!-- 50 -->
      <g transform="translate(175.51684 404.638438) scale(0.1 -0.1)">
       <defs>
        <path id="DejaVuSans-35" d="M 691 4666 
L 3169 4666 
L 3169 4134 
L 1269 4134 
L 1269 2991 
Q 1406 3038 1543 3061 
Q 1681 3084 1819 3084 
Q 2600 3084 3056 2656 
Q 3513 2228 3513 1497 
Q 3513 744 3044 326 
Q 2575 -91 1722 -91 
Q 1428 -91 1123 -41 
Q 819 9 494 109 
L 494 744 
Q 775 591 1075 516 
Q 1375 441 1709 441 
Q 2250 441 2565 725 
Q 2881 1009 2881 1497 
Q 2881 1984 2565 2268 
Q 2250 2553 1709 2553 
Q 1456 2553 1204 2497 
Q 953 2441 691 2322 
L 691 4666 
z
" transform="scale(0.015625)"/>
        <path id="DejaVuSans-30" d="M 2034 4250 
Q 1547 4250 1301 3770 
Q 1056 3291 1056 2328 
Q 1056 1369 1301 889 
Q 1547 409 2034 409 
Q 2525 409 2770 889 
Q 3016 1369 3016 2328 
Q 3016 3291 2770 3770 
Q 2525 4250 2034 4250 
z
M 2034 4750 
Q 2819 4750 3233 4129 
Q 3647 3509 3647 2328 
Q 3647 1150 3233 529 
Q 2819 -91 2034 -91 
Q 1250 -91 836 529 
Q 422 1150 422 2328 
Q 422 3509 836 4129 
Q 1250 4750 2034 4750 
z
" transform="scale(0.015625)"/>
       </defs>
       <use xlink:href="#DejaVuSans-35"/>
       <use xlink:href="#DejaVuSans-30" transform="translate(63.623047 0)"/>
      </g>
     </g>
    </g>
    <g id="xtick_2">
     <g id="line2d_2">
      <g>
       <use xlink:href="#m87e7507f39" x="314.212007" y="390.04" style="stroke: #000000; stroke-width: 0.8"/>
      </g>
     </g>
     <g id="text_2">
      <!-- 100 -->
      <g transform="translate(304.668257 404.638438) scale(0.1 -0.1)">
       <defs>
        <path id="DejaVuSans-31" d="M 794 531 
L 1825 531 
L 1825 4091 
L 703 3866 
L 703 4441 
L 1819 4666 
L 2450 4666 
L 2450 531 
L 3481 531 
L 3481 0 
L 794 0 
L 794 531 
z
" transform="scale(0.015625)"/>
       </defs>
       <use xlink:href="#DejaVuSans-31"/>
       <use xlink:href="#DejaVuSans-30" transform="translate(63.623047 0)"/>
       <use xlink:href="#DejaVuSans-30" transform="translate(127.246094 0)"/>
      </g>
     </g>
    </g>
    <g id="xtick_3">
     <g id="line2d_3">
      <g>
       <use xlink:href="#m87e7507f39" x="446.544673" y="390.04" style="stroke: #000000; stroke-width: 0.8"/>
      </g>
     </g>
     <g id="text_3">
      <!-- 150 -->
      <g transform="translate(437.000923 404.638438) scale(0.1 -0.1)">
       <use xlink:href="#DejaVuSans-31"/>
       <use xlink:href="#DejaVuSans-35" transform="translate(63.623047 0)"/>
       <use xlink:href="#DejaVuSans-30" transform="translate(127.246094 0)"/>
      </g>
     </g>
    </g>
    <g id="xtick_4">
     <g id="line2d_4">
      <g>
       <use xlink:href="#m87e7507f39" x="578.87734" y="390.04" style="stroke: #000000; stroke-width: 0.8"/>
      </g>
     </g>
     <g id="text_4">
      <!-- 200 -->
      <g transform="translate(569.33359 404.638438) scale(0.1 -0.1)">
       <defs>
        <path id="DejaVuSans-32" d="M 1228 531 
L 3431 531 
L 3431 0 
L 469 0 
L 469 531 
Q 828 903 1448 1529 
Q 2069 2156 2228 2338 
Q 2531 2678 2651 2914 
Q 2772 3150 2772 3378 
Q 2772 3750 2511 3984 
Q 2250 4219 1831 4219 
Q 1534 4219 1204 4116 
Q 875 4013 500 3803 
L 500 4441 
Q 881 4594 1212 4672 
Q 1544 4750 1819 4750 
Q 2544 4750 2975 4387 
Q 3406 4025 3406 3419 
Q 3406 3131 3298 2873 
Q 3191 2616 2906 2266 
Q 2828 2175 2409 1742 
Q 1991 1309 1228 531 
z
" transform="scale(0.015625)"/>
       </defs>
       <use xlink:href="#DejaVuSans-32"/>
       <use xlink:href="#DejaVuSans-30" transform="translate(63.623047 0)"/>
       <use xlink:href="#DejaVuSans-30" transform="translate(127.246094 0)"/>
      </g>
     </g>
    </g>
    <g id="xtick_5">
     <g id="line2d_5">
      <g>
       <use xlink:href="#m87e7507f39" x="711.210007" y="390.04" style="stroke: #000000; stroke-width: 0.8"/>
      </g>
     </g>
     <g id="text_5">
      <!-- 250 -->
      <g transform="translate(701.666257 404.638438) scale(0.1 -0.1)">
       <use xlink:href="#DejaVuSans-32"/>
       <use xlink:href="#DejaVuSans-35" transform="translate(63.623047 0)"/>
       <use xlink:href="#DejaVuSans-30" transform="translate(127.246094 0)"/>
      </g>
     </g>
    </g>
    <g id="xtick_6">
     <g id="line2d_6">
      <g>
       <use xlink:href="#m87e7507f39" x="843.542673" y="390.04" style="stroke: #000000; stroke-width: 0.8"/>
      </g>
     </g>
     <g id="text_6">
      <!-- 300 -->
      <g transform="translate(833.998923 404.638438) scale(0.1 -0.1)">
       <defs>
        <path id="DejaVuSans-33" d="M 2597 2516 
Q 3050 2419 3304 2112 
Q 3559 1806 3559 1356 
Q 3559 666 3084 287 
Q 2609 -91 1734 -91 
Q 1441 -91 1130 -33 
Q 819 25 488 141 
L 488 750 
Q 750 597 1062 519 
Q 1375 441 1716 441 
Q 2309 441 2620 675 
Q 2931 909 2931 1356 
Q 2931 1769 2642 2001 
Q 2353 2234 1838 2234 
L 1294 2234 
L 1294 2753 
L 1863 2753 
Q 2328 2753 2575 2939 
Q 2822 3125 2822 3475 
Q 2822 3834 2567 4026 
Q 2313 4219 1838 4219 
Q 1578 4219 1281 4162 
Q 984 4106 628 3988 
L 628 4550 
Q 988 4650 1302 4700 
Q 1616 4750 1894 4750 
Q 2613 4750 3031 4423 
Q 3450 4097 3450 3541 
Q 3450 3153 3228 2886 
Q 3006 2619 2597 2516 
z
" transform="scale(0.015625)"/>
       </defs>
       <use xlink:href="#DejaVuSans-33"/>
       <use xlink:href="#DejaVuSans-30" transform="translate(63.623047 0)"/>
       <use xlink:href="#DejaVuSans-30" transform="translate(127.246094 0)"/>
      </g>
     </g>
    </g>
    <g id="text_7">
     <!-- Step -->
     <g transform="translate(436.482844 418.316562) scale(0.1 -0.1)">
      <defs>
       <path id="DejaVuSans-53" d="M 3425 4513 
L 3425 3897 
Q 3066 4069 2747 4153 
Q 2428 4238 2131 4238 
Q 1616 4238 1336 4038 
Q 1056 3838 1056 3469 
Q 1056 3159 1242 3001 
Q 1428 2844 1947 2747 
L 2328 2669 
Q 3034 2534 3370 2195 
Q 3706 1856 3706 1288 
Q 3706 609 3251 259 
Q 2797 -91 1919 -91 
Q 1588 -91 1214 -16 
Q 841 59 441 206 
L 441 856 
Q 825 641 1194 531 
Q 1563 422 1919 422 
Q 2459 422 2753 634 
Q 3047 847 3047 1241 
Q 3047 1584 2836 1778 
Q 2625 1972 2144 2069 
L 1759 2144 
Q 1053 2284 737 2584 
Q 422 2884 422 3419 
Q 422 4038 858 4394 
Q 1294 4750 2059 4750 
Q 2388 4750 2728 4690 
Q 3069 4631 3425 4513 
z
" transform="scale(0.015625)"/>
       <path id="DejaVuSans-74" d="M 1172 4494 
L 1172 3500 
L 2356 3500 
L 2356 3053 
L 1172 3053 
L 1172 1153 
Q 1172 725 1289 603 
Q 1406 481 1766 481 
L 2356 481 
L 2356 0 
L 1766 0 
Q 1100 0 847 248 
Q 594 497 594 1153 
L 594 3053 
L 172 3053 
L 172 3500 
L 594 3500 
L 594 4494 
L 1172 4494 
z
" transform="scale(0.015625)"/>
       <path id="DejaVuSans-65" d="M 3597 1894 
L 3597 1613 
L 953 1613 
Q 991 1019 1311 708 
Q 1631 397 2203 397 
Q 2534 397 2845 478 
Q 3156 559 3463 722 
L 3463 178 
Q 3153 47 2828 -22 
Q 2503 -91 2169 -91 
Q 1331 -91 842 396 
Q 353 884 353 1716 
Q 353 2575 817 3079 
Q 1281 3584 2069 3584 
Q 2775 3584 3186 3129 
Q 3597 2675 3597 1894 
z
M 3022 2063 
Q 3016 2534 2758 2815 
Q 2500 3097 2075 3097 
Q 1594 3097 1305 2825 
Q 1016 2553 972 2059 
L 3022 2063 
z
" transform="scale(0.015625)"/>
       <path id="DejaVuSans-70" d="M 1159 525 
L 1159 -1331 
L 581 -1331 
L 581 3500 
L 1159 3500 
L 1159 2969 
Q 1341 3281 1617 3432 
Q 1894 3584 2278 3584 
Q 2916 3584 3314 3078 
Q 3713 2572 3713 1747 
Q 3713 922 3314 415 
Q 2916 -91 2278 -91 
Q 1894 -91 1617 61 
Q 1341 213 1159 525 
z
M 3116 1747 
Q 3116 2381 2855 2742 
Q 2594 3103 2138 3103 
Q 1681 3103 1420 2742 
Q 1159 2381 1159 1747 
Q 1159 1113 1420 752 
Q 1681 391 2138 391 
Q 2594 391 2855 752 
Q 3116 1113 3116 1747 
z
" transform="scale(0.015625)"/>
      </defs>
      <use xlink:href="#DejaVuSans-53"/>
      <use xlink:href="#DejaVuSans-74" transform="translate(63.476562 0)"/>
      <use xlink:href="#DejaVuSans-65" transform="translate(102.685547 0)"/>
      <use xlink:href="#DejaVuSans-70" transform="translate(164.208984 0)"/>
     </g>
    </g>
   </g>
   <g id="matplotlib.axis_2">
    <g id="ytick_1">
     <g id="line2d_7">
      <defs>
       <path id="md7a9fad9c5" d="M 0 0 
L -3.5 0 
" style="stroke: #000000; stroke-width: 0.8"/>
      </defs>
      <g>
       <use xlink:href="#md7a9fad9c5" x="50.87" y="358.229863" style="stroke: #000000; stroke-width: 0.8"/>
      </g>
     </g>
     <g id="text_8">
      <!-- 20 -->
      <g transform="translate(31.145 362.029082) scale(0.1 -0.1)">
       <use xlink:href="#DejaVuSans-32"/>
       <use xlink:href="#DejaVuSans-30" transform="translate(63.623047 0)"/>
      </g>
     </g>
    </g>
    <g id="ytick_2">
     <g id="line2d_8">
      <g>
       <use xlink:href="#md7a9fad9c5" x="50.87" y="303.929585" style="stroke: #000000; stroke-width: 0.8"/>
      </g>
     </g>
     <g id="text_9">
      <!-- 40 -->
      <g transform="translate(31.145 307.728803) scale(0.1 -0.1)">
       <defs>
        <path id="DejaVuSans-34" d="M 2419 4116 
L 825 1625 
L 2419 1625 
L 2419 4116 
z
M 2253 4666 
L 3047 4666 
L 3047 1625 
L 3713 1625 
L 3713 1100 
L 3047 1100 
L 3047 0 
L 2419 0 
L 2419 1100 
L 313 1100 
L 313 1709 
L 2253 4666 
z
" transform="scale(0.015625)"/>
       </defs>
       <use xlink:href="#DejaVuSans-34"/>
       <use xlink:href="#DejaVuSans-30" transform="translate(63.623047 0)"/>
      </g>
     </g>
    </g>
    <g id="ytick_3">
     <g id="line2d_9">
      <g>
       <use xlink:href="#md7a9fad9c5" x="50.87" y="249.629307" style="stroke: #000000; stroke-width: 0.8"/>
      </g>
     </g>
     <g id="text_10">
      <!-- 60 -->
      <g transform="translate(31.145 253.428525) scale(0.1 -0.1)">
       <defs>
        <path id="DejaVuSans-36" d="M 2113 2584 
Q 1688 2584 1439 2293 
Q 1191 2003 1191 1497 
Q 1191 994 1439 701 
Q 1688 409 2113 409 
Q 2538 409 2786 701 
Q 3034 994 3034 1497 
Q 3034 2003 2786 2293 
Q 2538 2584 2113 2584 
z
M 3366 4563 
L 3366 3988 
Q 3128 4100 2886 4159 
Q 2644 4219 2406 4219 
Q 1781 4219 1451 3797 
Q 1122 3375 1075 2522 
Q 1259 2794 1537 2939 
Q 1816 3084 2150 3084 
Q 2853 3084 3261 2657 
Q 3669 2231 3669 1497 
Q 3669 778 3244 343 
Q 2819 -91 2113 -91 
Q 1303 -91 875 529 
Q 447 1150 447 2328 
Q 447 3434 972 4092 
Q 1497 4750 2381 4750 
Q 2619 4750 2861 4703 
Q 3103 4656 3366 4563 
z
" transform="scale(0.015625)"/>
       </defs>
       <use xlink:href="#DejaVuSans-36"/>
       <use xlink:href="#DejaVuSans-30" transform="translate(63.623047 0)"/>
      </g>
     </g>
    </g>
    <g id="ytick_4">
     <g id="line2d_10">
      <g>
       <use xlink:href="#md7a9fad9c5" x="50.87" y="195.329028" style="stroke: #000000; stroke-width: 0.8"/>
      </g>
     </g>
     <g id="text_11">
      <!-- 80 -->
      <g transform="translate(31.145 199.128247) scale(0.1 -0.1)">
       <defs>
        <path id="DejaVuSans-38" d="M 2034 2216 
Q 1584 2216 1326 1975 
Q 1069 1734 1069 1313 
Q 1069 891 1326 650 
Q 1584 409 2034 409 
Q 2484 409 2743 651 
Q 3003 894 3003 1313 
Q 3003 1734 2745 1975 
Q 2488 2216 2034 2216 
z
M 1403 2484 
Q 997 2584 770 2862 
Q 544 3141 544 3541 
Q 544 4100 942 4425 
Q 1341 4750 2034 4750 
Q 2731 4750 3128 4425 
Q 3525 4100 3525 3541 
Q 3525 3141 3298 2862 
Q 3072 2584 2669 2484 
Q 3125 2378 3379 2068 
Q 3634 1759 3634 1313 
Q 3634 634 3220 271 
Q 2806 -91 2034 -91 
Q 1263 -91 848 271 
Q 434 634 434 1313 
Q 434 1759 690 2068 
Q 947 2378 1403 2484 
z
M 1172 3481 
Q 1172 3119 1398 2916 
Q 1625 2713 2034 2713 
Q 2441 2713 2670 2916 
Q 2900 3119 2900 3481 
Q 2900 3844 2670 4047 
Q 2441 4250 2034 4250 
Q 1625 4250 1398 4047 
Q 1172 3844 1172 3481 
z
" transform="scale(0.015625)"/>
       </defs>
       <use xlink:href="#DejaVuSans-38"/>
       <use xlink:href="#DejaVuSans-30" transform="translate(63.623047 0)"/>
      </g>
     </g>
    </g>
    <g id="ytick_5">
     <g id="line2d_11">
      <g>
       <use xlink:href="#md7a9fad9c5" x="50.87" y="141.02875" style="stroke: #000000; stroke-width: 0.8"/>
      </g>
     </g>
     <g id="text_12">
      <!-- 100 -->
      <g transform="translate(24.7825 144.827969) scale(0.1 -0.1)">
       <use xlink:href="#DejaVuSans-31"/>
       <use xlink:href="#DejaVuSans-30" transform="translate(63.623047 0)"/>
       <use xlink:href="#DejaVuSans-30" transform="translate(127.246094 0)"/>
      </g>
     </g>
    </g>
    <g id="ytick_6">
     <g id="line2d_12">
      <g>
       <use xlink:href="#md7a9fad9c5" x="50.87" y="86.728472" style="stroke: #000000; stroke-width: 0.8"/>
      </g>
     </g>
     <g id="text_13">
      <!-- 120 -->
      <g transform="translate(24.7825 90.527691) scale(0.1 -0.1)">
       <use xlink:href="#DejaVuSans-31"/>
       <use xlink:href="#DejaVuSans-32" transform="translate(63.623047 0)"/>
       <use xlink:href="#DejaVuSans-30" transform="translate(127.246094 0)"/>
      </g>
     </g>
    </g>
    <g id="text_14">
     <!-- Profit -->
     <g transform="translate(18.702813 229.779063) rotate(-90) scale(0.1 -0.1)">
      <defs>
       <path id="DejaVuSans-50" d="M 1259 4147 
L 1259 2394 
L 2053 2394 
Q 2494 2394 2734 2622 
Q 2975 2850 2975 3272 
Q 2975 3691 2734 3919 
Q 2494 4147 2053 4147 
L 1259 4147 
z
M 628 4666 
L 2053 4666 
Q 2838 4666 3239 4311 
Q 3641 3956 3641 3272 
Q 3641 2581 3239 2228 
Q 2838 1875 2053 1875 
L 1259 1875 
L 1259 0 
L 628 0 
L 628 4666 
z
" transform="scale(0.015625)"/>
       <path id="DejaVuSans-72" d="M 2631 2963 
Q 2534 3019 2420 3045 
Q 2306 3072 2169 3072 
Q 1681 3072 1420 2755 
Q 1159 2438 1159 1844 
L 1159 0 
L 581 0 
L 581 3500 
L 1159 3500 
L 1159 2956 
Q 1341 3275 1631 3429 
Q 1922 3584 2338 3584 
Q 2397 3584 2469 3576 
Q 2541 3569 2628 3553 
L 2631 2963 
z
" transform="scale(0.015625)"/>
       <path id="DejaVuSans-6f" d="M 1959 3097 
Q 1497 3097 1228 2736 
Q 959 2375 959 1747 
Q 959 1119 1226 758 
Q 1494 397 1959 397 
Q 2419 397 2687 759 
Q 2956 1122 2956 1747 
Q 2956 2369 2687 2733 
Q 2419 3097 1959 3097 
z
M 1959 3584 
Q 2709 3584 3137 3096 
Q 3566 2609 3566 1747 
Q 3566 888 3137 398 
Q 2709 -91 1959 -91 
Q 1206 -91 779 398 
Q 353 888 353 1747 
Q 353 2609 779 3096 
Q 1206 3584 1959 3584 
z
" transform="scale(0.015625)"/>
       <path id="DejaVuSans-66" d="M 2375 4863 
L 2375 4384 
L 1825 4384 
Q 1516 4384 1395 4259 
Q 1275 4134 1275 3809 
L 1275 3500 
L 2222 3500 
L 2222 3053 
L 1275 3053 
L 1275 0 
L 697 0 
L 697 3053 
L 147 3053 
L 147 3500 
L 697 3500 
L 697 3744 
Q 697 4328 969 4595 
Q 1241 4863 1831 4863 
L 2375 4863 
z
" transform="scale(0.015625)"/>
       <path id="DejaVuSans-69" d="M 603 3500 
L 1178 3500 
L 1178 0 
L 603 0 
L 603 3500 
z
M 603 4863 
L 1178 4863 
L 1178 4134 
L 603 4134 
L 603 4863 
z
" transform="scale(0.015625)"/>
      </defs>
      <use xlink:href="#DejaVuSans-50"/>
      <use xlink:href="#DejaVuSans-72" transform="translate(58.552734 0)"/>
      <use xlink:href="#DejaVuSans-6f" transform="translate(97.416016 0)"/>
      <use xlink:href="#DejaVuSans-66" transform="translate(158.597656 0)"/>
      <use xlink:href="#DejaVuSans-69" transform="translate(193.802734 0)"/>
      <use xlink:href="#DejaVuSans-74" transform="translate(221.585938 0)"/>
     </g>
    </g>
   </g>
   <g id="line2d_13">
    <path d="M 52.193327 252.307533 
L 54.83998 252.689777 
L 60.133287 242.867343 
L 62.77994 238.065786 
L 68.073247 230.110794 
L 70.7199 226.367977 
L 73.366553 223.058473 
L 76.013207 220.468903 
L 78.65986 217.660718 
L 83.953167 213.225641 
L 91.893127 207.199053 
L 102.47974 200.642354 
L 105.126393 199.225129 
L 115.713007 194.107529 
L 121.006313 192.096684 
L 123.652967 190.97254 
L 128.946273 188.916146 
L 131.592927 187.838981 
L 136.886233 186.334903 
L 152.766153 181.920768 
L 160.706113 180.318319 
L 163.352767 179.529388 
L 168.646073 178.508379 
L 173.93938 177.38266 
L 176.586033 176.526762 
L 184.525993 175.124057 
L 189.8193 174.053914 
L 195.112607 173.051195 
L 200.405913 172.300088 
L 203.052567 172.098686 
L 210.992527 171.017358 
L 213.63918 170.563951 
L 216.285833 169.947174 
L 224.225793 169.056621 
L 226.872447 168.520192 
L 240.105713 166.904673 
L 242.752367 166.692376 
L 248.045673 165.774398 
L 258.632287 164.90781 
L 261.27894 164.510642 
L 266.572247 164.165258 
L 269.2189 163.739028 
L 274.512207 163.36218 
L 279.805513 162.925406 
L 290.392127 162.236047 
L 293.03878 162.189171 
L 295.685433 161.853088 
L 306.272047 161.064986 
L 308.9187 160.709577 
L 316.85866 160.081676 
L 319.505313 159.90714 
L 322.151967 159.549391 
L 324.79862 159.463883 
L 327.445273 159.24123 
L 330.091927 159.291129 
L 332.73858 159.010187 
L 338.031887 158.811665 
L 340.67854 158.405568 
L 351.265153 157.394916 
L 361.851767 156.55275 
L 375.085033 155.517987 
L 385.671647 155.100954 
L 390.964953 154.456937 
L 396.25826 154.184612 
L 398.904913 153.938634 
L 404.19822 153.800058 
L 409.491527 153.509587 
L 420.07814 153.029189 
L 422.724793 152.822154 
L 425.371447 152.466455 
L 433.311407 152.145016 
L 435.95806 152.141909 
L 443.89802 151.685209 
L 446.544673 151.515624 
L 449.191327 151.472249 
L 451.83798 151.297672 
L 454.484633 151.271966 
L 459.77794 150.822391 
L 465.071247 150.784381 
L 473.011207 150.316661 
L 483.59782 149.705642 
L 486.244473 149.758918 
L 491.53778 149.500637 
L 494.184433 149.47723 
L 499.47774 148.999174 
L 504.771047 148.92682 
L 507.4177 148.693561 
L 510.064353 148.640222 
L 512.711007 148.457298 
L 525.944273 148.321166 
L 531.23758 147.943158 
L 533.884233 147.821484 
L 536.530887 147.93742 
L 539.17754 147.862415 
L 541.824193 147.597732 
L 560.350767 146.947585 
L 562.99742 146.957818 
L 586.8173 145.981799 
L 594.75726 145.56636 
L 602.69722 145.267977 
L 607.990527 145.310026 
L 618.57714 144.638812 
L 629.163753 144.417588 
L 637.103713 143.914488 
L 647.690327 143.767834 
L 652.983633 143.543958 
L 658.27694 143.261441 
L 666.2169 143.205844 
L 671.510207 142.919267 
L 674.15686 142.916948 
L 676.803513 142.779594 
L 679.450167 142.807392 
L 684.743473 142.638014 
L 690.03678 142.568353 
L 703.270047 142.317363 
L 705.9167 142.412792 
L 708.563353 142.298658 
L 711.210007 142.310506 
L 716.503313 141.90702 
L 732.383233 141.427804 
L 740.323193 141.462272 
L 742.969847 141.402885 
L 745.6165 141.476564 
L 750.909807 141.316114 
L 753.55646 141.341799 
L 761.49642 141.086086 
L 785.3163 140.644466 
L 787.962953 140.709839 
L 790.609607 140.537934 
L 798.549567 140.452738 
L 830.309407 139.29657 
L 832.95606 139.300733 
L 835.602713 139.189438 
L 840.89602 139.098317 
L 843.542673 139.00701 
L 843.542673 139.00701 
" clip-path="url(#p51577ff449)" style="fill: none; stroke: #0000ff; stroke-width: 1.5; stroke-linecap: square"/>
   </g>
   <g id="patch_3">
    <path d="M 50.87 390.04 
L 50.87 43.44 
" style="fill: none; stroke: #000000; stroke-width: 0.8; stroke-linejoin: miter; stroke-linecap: square"/>
   </g>
   <g id="patch_4">
    <path d="M 844.866 390.04 
L 844.866 43.44 
" style="fill: none; stroke: #000000; stroke-width: 0.8; stroke-linejoin: miter; stroke-linecap: square"/>
   </g>
   <g id="patch_5">
    <path d="M 50.87 390.04 
L 844.866 390.04 
" style="fill: none; stroke: #000000; stroke-width: 0.8; stroke-linejoin: miter; stroke-linecap: square"/>
   </g>
   <g id="patch_6">
    <path d="M 50.87 43.44 
L 844.866 43.44 
" style="fill: none; stroke: #000000; stroke-width: 0.8; stroke-linejoin: miter; stroke-linecap: square"/>
   </g>
   <g id="text_15">
    <!-- Mean profit per step with confidence interval per simulation step -->
    <g transform="translate(220.284875 21.763062) scale(0.14 -0.14)">
     <defs>
      <path id="DejaVuSans-4d" d="M 628 4666 
L 1569 4666 
L 2759 1491 
L 3956 4666 
L 4897 4666 
L 4897 0 
L 4281 0 
L 4281 4097 
L 3078 897 
L 2444 897 
L 1241 4097 
L 1241 0 
L 628 0 
L 628 4666 
z
" transform="scale(0.015625)"/>
      <path id="DejaVuSans-61" d="M 2194 1759 
Q 1497 1759 1228 1600 
Q 959 1441 959 1056 
Q 959 750 1161 570 
Q 1363 391 1709 391 
Q 2188 391 2477 730 
Q 2766 1069 2766 1631 
L 2766 1759 
L 2194 1759 
z
M 3341 1997 
L 3341 0 
L 2766 0 
L 2766 531 
Q 2569 213 2275 61 
Q 1981 -91 1556 -91 
Q 1019 -91 701 211 
Q 384 513 384 1019 
Q 384 1609 779 1909 
Q 1175 2209 1959 2209 
L 2766 2209 
L 2766 2266 
Q 2766 2663 2505 2880 
Q 2244 3097 1772 3097 
Q 1472 3097 1187 3025 
Q 903 2953 641 2809 
L 641 3341 
Q 956 3463 1253 3523 
Q 1550 3584 1831 3584 
Q 2591 3584 2966 3190 
Q 3341 2797 3341 1997 
z
" transform="scale(0.015625)"/>
      <path id="DejaVuSans-6e" d="M 3513 2113 
L 3513 0 
L 2938 0 
L 2938 2094 
Q 2938 2591 2744 2837 
Q 2550 3084 2163 3084 
Q 1697 3084 1428 2787 
Q 1159 2491 1159 1978 
L 1159 0 
L 581 0 
L 581 3500 
L 1159 3500 
L 1159 2956 
Q 1366 3272 1645 3428 
Q 1925 3584 2291 3584 
Q 2894 3584 3203 3211 
Q 3513 2838 3513 2113 
z
" transform="scale(0.015625)"/>
      <path id="DejaVuSans-20" transform="scale(0.015625)"/>
      <path id="DejaVuSans-73" d="M 2834 3397 
L 2834 2853 
Q 2591 2978 2328 3040 
Q 2066 3103 1784 3103 
Q 1356 3103 1142 2972 
Q 928 2841 928 2578 
Q 928 2378 1081 2264 
Q 1234 2150 1697 2047 
L 1894 2003 
Q 2506 1872 2764 1633 
Q 3022 1394 3022 966 
Q 3022 478 2636 193 
Q 2250 -91 1575 -91 
Q 1294 -91 989 -36 
Q 684 19 347 128 
L 347 722 
Q 666 556 975 473 
Q 1284 391 1588 391 
Q 1994 391 2212 530 
Q 2431 669 2431 922 
Q 2431 1156 2273 1281 
Q 2116 1406 1581 1522 
L 1381 1569 
Q 847 1681 609 1914 
Q 372 2147 372 2553 
Q 372 3047 722 3315 
Q 1072 3584 1716 3584 
Q 2034 3584 2315 3537 
Q 2597 3491 2834 3397 
z
" transform="scale(0.015625)"/>
      <path id="DejaVuSans-77" d="M 269 3500 
L 844 3500 
L 1563 769 
L 2278 3500 
L 2956 3500 
L 3675 769 
L 4391 3500 
L 4966 3500 
L 4050 0 
L 3372 0 
L 2619 2869 
L 1863 0 
L 1184 0 
L 269 3500 
z
" transform="scale(0.015625)"/>
      <path id="DejaVuSans-68" d="M 3513 2113 
L 3513 0 
L 2938 0 
L 2938 2094 
Q 2938 2591 2744 2837 
Q 2550 3084 2163 3084 
Q 1697 3084 1428 2787 
Q 1159 2491 1159 1978 
L 1159 0 
L 581 0 
L 581 4863 
L 1159 4863 
L 1159 2956 
Q 1366 3272 1645 3428 
Q 1925 3584 2291 3584 
Q 2894 3584 3203 3211 
Q 3513 2838 3513 2113 
z
" transform="scale(0.015625)"/>
      <path id="DejaVuSans-63" d="M 3122 3366 
L 3122 2828 
Q 2878 2963 2633 3030 
Q 2388 3097 2138 3097 
Q 1578 3097 1268 2742 
Q 959 2388 959 1747 
Q 959 1106 1268 751 
Q 1578 397 2138 397 
Q 2388 397 2633 464 
Q 2878 531 3122 666 
L 3122 134 
Q 2881 22 2623 -34 
Q 2366 -91 2075 -91 
Q 1284 -91 818 406 
Q 353 903 353 1747 
Q 353 2603 823 3093 
Q 1294 3584 2113 3584 
Q 2378 3584 2631 3529 
Q 2884 3475 3122 3366 
z
" transform="scale(0.015625)"/>
      <path id="DejaVuSans-64" d="M 2906 2969 
L 2906 4863 
L 3481 4863 
L 3481 0 
L 2906 0 
L 2906 525 
Q 2725 213 2448 61 
Q 2172 -91 1784 -91 
Q 1150 -91 751 415 
Q 353 922 353 1747 
Q 353 2572 751 3078 
Q 1150 3584 1784 3584 
Q 2172 3584 2448 3432 
Q 2725 3281 2906 2969 
z
M 947 1747 
Q 947 1113 1208 752 
Q 1469 391 1925 391 
Q 2381 391 2643 752 
Q 2906 1113 2906 1747 
Q 2906 2381 2643 2742 
Q 2381 3103 1925 3103 
Q 1469 3103 1208 2742 
Q 947 2381 947 1747 
z
" transform="scale(0.015625)"/>
      <path id="DejaVuSans-76" d="M 191 3500 
L 800 3500 
L 1894 563 
L 2988 3500 
L 3597 3500 
L 2284 0 
L 1503 0 
L 191 3500 
z
" transform="scale(0.015625)"/>
      <path id="DejaVuSans-6c" d="M 603 4863 
L 1178 4863 
L 1178 0 
L 603 0 
L 603 4863 
z
" transform="scale(0.015625)"/>
      <path id="DejaVuSans-6d" d="M 3328 2828 
Q 3544 3216 3844 3400 
Q 4144 3584 4550 3584 
Q 5097 3584 5394 3201 
Q 5691 2819 5691 2113 
L 5691 0 
L 5113 0 
L 5113 2094 
Q 5113 2597 4934 2840 
Q 4756 3084 4391 3084 
Q 3944 3084 3684 2787 
Q 3425 2491 3425 1978 
L 3425 0 
L 2847 0 
L 2847 2094 
Q 2847 2600 2669 2842 
Q 2491 3084 2119 3084 
Q 1678 3084 1418 2786 
Q 1159 2488 1159 1978 
L 1159 0 
L 581 0 
L 581 3500 
L 1159 3500 
L 1159 2956 
Q 1356 3278 1631 3431 
Q 1906 3584 2284 3584 
Q 2666 3584 2933 3390 
Q 3200 3197 3328 2828 
z
" transform="scale(0.015625)"/>
      <path id="DejaVuSans-75" d="M 544 1381 
L 544 3500 
L 1119 3500 
L 1119 1403 
Q 1119 906 1312 657 
Q 1506 409 1894 409 
Q 2359 409 2629 706 
Q 2900 1003 2900 1516 
L 2900 3500 
L 3475 3500 
L 3475 0 
L 2900 0 
L 2900 538 
Q 2691 219 2414 64 
Q 2138 -91 1772 -91 
Q 1169 -91 856 284 
Q 544 659 544 1381 
z
M 1991 3584 
L 1991 3584 
z
" transform="scale(0.015625)"/>
     </defs>
     <use xlink:href="#DejaVuSans-4d"/>
     <use xlink:href="#DejaVuSans-65" transform="translate(86.279297 0)"/>
     <use xlink:href="#DejaVuSans-61" transform="translate(147.802734 0)"/>
     <use xlink:href="#DejaVuSans-6e" transform="translate(209.082031 0)"/>
     <use xlink:href="#DejaVuSans-20" transform="translate(272.460938 0)"/>
     <use xlink:href="#DejaVuSans-70" transform="translate(304.248047 0)"/>
     <use xlink:href="#DejaVuSans-72" transform="translate(367.724609 0)"/>
     <use xlink:href="#DejaVuSans-6f" transform="translate(406.587891 0)"/>
     <use xlink:href="#DejaVuSans-66" transform="translate(467.769531 0)"/>
     <use xlink:href="#DejaVuSans-69" transform="translate(502.974609 0)"/>
     <use xlink:href="#DejaVuSans-74" transform="translate(530.757812 0)"/>
     <use xlink:href="#DejaVuSans-20" transform="translate(569.966797 0)"/>
     <use xlink:href="#DejaVuSans-70" transform="translate(601.753906 0)"/>
     <use xlink:href="#DejaVuSans-65" transform="translate(665.230469 0)"/>
     <use xlink:href="#DejaVuSans-72" transform="translate(726.753906 0)"/>
     <use xlink:href="#DejaVuSans-20" transform="translate(767.867188 0)"/>
     <use xlink:href="#DejaVuSans-73" transform="translate(799.654297 0)"/>
     <use xlink:href="#DejaVuSans-74" transform="translate(851.753906 0)"/>
     <use xlink:href="#DejaVuSans-65" transform="translate(890.962891 0)"/>
     <use xlink:href="#DejaVuSans-70" transform="translate(952.486328 0)"/>
     <use xlink:href="#DejaVuSans-20" transform="translate(1015.962891 0)"/>
     <use xlink:href="#DejaVuSans-77" transform="translate(1047.75 0)"/>
     <use xlink:href="#DejaVuSans-69" transform="translate(1129.537109 0)"/>
     <use xlink:href="#DejaVuSans-74" transform="translate(1157.320312 0)"/>
     <use xlink:href="#DejaVuSans-68" transform="translate(1196.529297 0)"/>
     <use xlink:href="#DejaVuSans-20" transform="translate(1259.908203 0)"/>
     <use xlink:href="#DejaVuSans-63" transform="translate(1291.695312 0)"/>
     <use xlink:href="#DejaVuSans-6f" transform="translate(1346.675781 0)"/>
     <use xlink:href="#DejaVuSans-6e" transform="translate(1407.857422 0)"/>
     <use xlink:href="#DejaVuSans-66" transform="translate(1471.236328 0)"/>
     <use xlink:href="#DejaVuSans-69" transform="translate(1506.441406 0)"/>
     <use xlink:href="#DejaVuSans-64" transform="translate(1534.224609 0)"/>
     <use xlink:href="#DejaVuSans-65" transform="translate(1597.701172 0)"/>
     <use xlink:href="#DejaVuSans-6e" transform="translate(1659.224609 0)"/>
     <use xlink:href="#DejaVuSans-63" transform="translate(1722.603516 0)"/>
     <use xlink:href="#DejaVuSans-65" transform="translate(1777.583984 0)"/>
     <use xlink:href="#DejaVuSans-20" transform="translate(1839.107422 0)"/>
     <use xlink:href="#DejaVuSans-69" transform="translate(1870.894531 0)"/>
     <use xlink:href="#DejaVuSans-6e" transform="translate(1898.677734 0)"/>
     <use xlink:href="#DejaVuSans-74" transform="translate(1962.056641 0)"/>
     <use xlink:href="#DejaVuSans-65" transform="translate(2001.265625 0)"/>
     <use xlink:href="#DejaVuSans-72" transform="translate(2062.789062 0)"/>
     <use xlink:href="#DejaVuSans-76" transform="translate(2103.902344 0)"/>
     <use xlink:href="#DejaVuSans-61" transform="translate(2163.082031 0)"/>
     <use xlink:href="#DejaVuSans-6c" transform="translate(2224.361328 0)"/>
     <use xlink:href="#DejaVuSans-20" transform="translate(2252.144531 0)"/>
     <use xlink:href="#DejaVuSans-70" transform="translate(2283.931641 0)"/>
     <use xlink:href="#DejaVuSans-65" transform="translate(2347.408203 0)"/>
     <use xlink:href="#DejaVuSans-72" transform="translate(2408.931641 0)"/>
     <use xlink:href="#DejaVuSans-20" transform="translate(2450.044922 0)"/>
     <use xlink:href="#DejaVuSans-73" transform="translate(2481.832031 0)"/>
     <use xlink:href="#DejaVuSans-69" transform="translate(2533.931641 0)"/>
     <use xlink:href="#DejaVuSans-6d" transform="translate(2561.714844 0)"/>
     <use xlink:href="#DejaVuSans-75" transform="translate(2659.126953 0)"/>
     <use xlink:href="#DejaVuSans-6c" transform="translate(2722.505859 0)"/>
     <use xlink:href="#DejaVuSans-61" transform="translate(2750.289062 0)"/>
     <use xlink:href="#DejaVuSans-74" transform="translate(2811.568359 0)"/>
     <use xlink:href="#DejaVuSans-69" transform="translate(2850.777344 0)"/>
     <use xlink:href="#DejaVuSans-6f" transform="translate(2878.560547 0)"/>
     <use xlink:href="#DejaVuSans-6e" transform="translate(2939.742188 0)"/>
     <use xlink:href="#DejaVuSans-20" transform="translate(3003.121094 0)"/>
     <use xlink:href="#DejaVuSans-73" transform="translate(3034.908203 0)"/>
     <use xlink:href="#DejaVuSans-74" transform="translate(3087.007812 0)"/>
     <use xlink:href="#DejaVuSans-65" transform="translate(3126.216797 0)"/>
     <use xlink:href="#DejaVuSans-70" transform="translate(3187.740234 0)"/>
    </g>
    <!-- Base Product: OG Kush, Recipe size: 10, T0: 20.0 -->
    <g transform="translate(277.036281 37.44) scale(0.14 -0.14)">
     <defs>
      <path id="DejaVuSans-42" d="M 1259 2228 
L 1259 519 
L 2272 519 
Q 2781 519 3026 730 
Q 3272 941 3272 1375 
Q 3272 1813 3026 2020 
Q 2781 2228 2272 2228 
L 1259 2228 
z
M 1259 4147 
L 1259 2741 
L 2194 2741 
Q 2656 2741 2882 2914 
Q 3109 3088 3109 3444 
Q 3109 3797 2882 3972 
Q 2656 4147 2194 4147 
L 1259 4147 
z
M 628 4666 
L 2241 4666 
Q 2963 4666 3353 4366 
Q 3744 4066 3744 3513 
Q 3744 3084 3544 2831 
Q 3344 2578 2956 2516 
Q 3422 2416 3680 2098 
Q 3938 1781 3938 1306 
Q 3938 681 3513 340 
Q 3088 0 2303 0 
L 628 0 
L 628 4666 
z
" transform="scale(0.015625)"/>
      <path id="DejaVuSans-3a" d="M 750 794 
L 1409 794 
L 1409 0 
L 750 0 
L 750 794 
z
M 750 3309 
L 1409 3309 
L 1409 2516 
L 750 2516 
L 750 3309 
z
" transform="scale(0.015625)"/>
      <path id="DejaVuSans-4f" d="M 2522 4238 
Q 1834 4238 1429 3725 
Q 1025 3213 1025 2328 
Q 1025 1447 1429 934 
Q 1834 422 2522 422 
Q 3209 422 3611 934 
Q 4013 1447 4013 2328 
Q 4013 3213 3611 3725 
Q 3209 4238 2522 4238 
z
M 2522 4750 
Q 3503 4750 4090 4092 
Q 4678 3434 4678 2328 
Q 4678 1225 4090 567 
Q 3503 -91 2522 -91 
Q 1538 -91 948 565 
Q 359 1222 359 2328 
Q 359 3434 948 4092 
Q 1538 4750 2522 4750 
z
" transform="scale(0.015625)"/>
      <path id="DejaVuSans-47" d="M 3809 666 
L 3809 1919 
L 2778 1919 
L 2778 2438 
L 4434 2438 
L 4434 434 
Q 4069 175 3628 42 
Q 3188 -91 2688 -91 
Q 1594 -91 976 548 
Q 359 1188 359 2328 
Q 359 3472 976 4111 
Q 1594 4750 2688 4750 
Q 3144 4750 3555 4637 
Q 3966 4525 4313 4306 
L 4313 3634 
Q 3963 3931 3569 4081 
Q 3175 4231 2741 4231 
Q 1884 4231 1454 3753 
Q 1025 3275 1025 2328 
Q 1025 1384 1454 906 
Q 1884 428 2741 428 
Q 3075 428 3337 486 
Q 3600 544 3809 666 
z
" transform="scale(0.015625)"/>
      <path id="DejaVuSans-4b" d="M 628 4666 
L 1259 4666 
L 1259 2694 
L 3353 4666 
L 4166 4666 
L 1850 2491 
L 4331 0 
L 3500 0 
L 1259 2247 
L 1259 0 
L 628 0 
L 628 4666 
z
" transform="scale(0.015625)"/>
      <path id="DejaVuSans-2c" d="M 750 794 
L 1409 794 
L 1409 256 
L 897 -744 
L 494 -744 
L 750 256 
L 750 794 
z
" transform="scale(0.015625)"/>
      <path id="DejaVuSans-52" d="M 2841 2188 
Q 3044 2119 3236 1894 
Q 3428 1669 3622 1275 
L 4263 0 
L 3584 0 
L 2988 1197 
Q 2756 1666 2539 1819 
Q 2322 1972 1947 1972 
L 1259 1972 
L 1259 0 
L 628 0 
L 628 4666 
L 2053 4666 
Q 2853 4666 3247 4331 
Q 3641 3997 3641 3322 
Q 3641 2881 3436 2590 
Q 3231 2300 2841 2188 
z
M 1259 4147 
L 1259 2491 
L 2053 2491 
Q 2509 2491 2742 2702 
Q 2975 2913 2975 3322 
Q 2975 3731 2742 3939 
Q 2509 4147 2053 4147 
L 1259 4147 
z
" transform="scale(0.015625)"/>
      <path id="DejaVuSans-7a" d="M 353 3500 
L 3084 3500 
L 3084 2975 
L 922 459 
L 3084 459 
L 3084 0 
L 275 0 
L 275 525 
L 2438 3041 
L 353 3041 
L 353 3500 
z
" transform="scale(0.015625)"/>
      <path id="DejaVuSans-54" d="M -19 4666 
L 3928 4666 
L 3928 4134 
L 2272 4134 
L 2272 0 
L 1638 0 
L 1638 4134 
L -19 4134 
L -19 4666 
z
" transform="scale(0.015625)"/>
      <path id="DejaVuSans-2e" d="M 684 794 
L 1344 794 
L 1344 0 
L 684 0 
L 684 794 
z
" transform="scale(0.015625)"/>
     </defs>
     <use xlink:href="#DejaVuSans-42"/>
     <use xlink:href="#DejaVuSans-61" transform="translate(68.603516 0)"/>
     <use xlink:href="#DejaVuSans-73" transform="translate(129.882812 0)"/>
     <use xlink:href="#DejaVuSans-65" transform="translate(181.982422 0)"/>
     <use xlink:href="#DejaVuSans-20" transform="translate(243.505859 0)"/>
     <use xlink:href="#DejaVuSans-50" transform="translate(275.292969 0)"/>
     <use xlink:href="#DejaVuSans-72" transform="translate(333.845703 0)"/>
     <use xlink:href="#DejaVuSans-6f" transform="translate(372.708984 0)"/>
     <use xlink:href="#DejaVuSans-64" transform="translate(433.890625 0)"/>
     <use xlink:href="#DejaVuSans-75" transform="translate(497.367188 0)"/>
     <use xlink:href="#DejaVuSans-63" transform="translate(560.746094 0)"/>
     <use xlink:href="#DejaVuSans-74" transform="translate(615.726562 0)"/>
     <use xlink:href="#DejaVuSans-3a" transform="translate(654.935547 0)"/>
     <use xlink:href="#DejaVuSans-20" transform="translate(688.626953 0)"/>
     <use xlink:href="#DejaVuSans-4f" transform="translate(720.414062 0)"/>
     <use xlink:href="#DejaVuSans-47" transform="translate(799.125 0)"/>
     <use xlink:href="#DejaVuSans-20" transform="translate(876.615234 0)"/>
     <use xlink:href="#DejaVuSans-4b" transform="translate(908.402344 0)"/>
     <use xlink:href="#DejaVuSans-75" transform="translate(968.978516 0)"/>
     <use xlink:href="#DejaVuSans-73" transform="translate(1032.357422 0)"/>
     <use xlink:href="#DejaVuSans-68" transform="translate(1084.457031 0)"/>
     <use xlink:href="#DejaVuSans-2c" transform="translate(1147.835938 0)"/>
     <use xlink:href="#DejaVuSans-20" transform="translate(1179.623047 0)"/>
     <use xlink:href="#DejaVuSans-52" transform="translate(1211.410156 0)"/>
     <use xlink:href="#DejaVuSans-65" transform="translate(1276.392578 0)"/>
     <use xlink:href="#DejaVuSans-63" transform="translate(1337.916016 0)"/>
     <use xlink:href="#DejaVuSans-69" transform="translate(1392.896484 0)"/>
     <use xlink:href="#DejaVuSans-70" transform="translate(1420.679688 0)"/>
     <use xlink:href="#DejaVuSans-65" transform="translate(1484.15625 0)"/>
     <use xlink:href="#DejaVuSans-20" transform="translate(1545.679688 0)"/>
     <use xlink:href="#DejaVuSans-73" transform="translate(1577.466797 0)"/>
     <use xlink:href="#DejaVuSans-69" transform="translate(1629.566406 0)"/>
     <use xlink:href="#DejaVuSans-7a" transform="translate(1657.349609 0)"/>
     <use xlink:href="#DejaVuSans-65" transform="translate(1709.839844 0)"/>
     <use xlink:href="#DejaVuSans-3a" transform="translate(1771.363281 0)"/>
     <use xlink:href="#DejaVuSans-20" transform="translate(1805.054688 0)"/>
     <use xlink:href="#DejaVuSans-31" transform="translate(1836.841797 0)"/>
     <use xlink:href="#DejaVuSans-30" transform="translate(1900.464844 0)"/>
     <use xlink:href="#DejaVuSans-2c" transform="translate(1964.087891 0)"/>
     <use xlink:href="#DejaVuSans-20" transform="translate(1995.875 0)"/>
     <use xlink:href="#DejaVuSans-54" transform="translate(2027.662109 0)"/>
     <use xlink:href="#DejaVuSans-30" transform="translate(2088.746094 0)"/>
     <use xlink:href="#DejaVuSans-3a" transform="translate(2152.369141 0)"/>
     <use xlink:href="#DejaVuSans-20" transform="translate(2186.060547 0)"/>
     <use xlink:href="#DejaVuSans-32" transform="translate(2217.847656 0)"/>
     <use xlink:href="#DejaVuSans-30" transform="translate(2281.470703 0)"/>
     <use xlink:href="#DejaVuSans-2e" transform="translate(2345.09375 0)"/>
     <use xlink:href="#DejaVuSans-30" transform="translate(2376.880859 0)"/>
    </g>
   </g>
  </g>
 </g>
 <defs>
  <clipPath id="p51577ff449">
   <rect x="50.87" y="43.44" width="793.996" height="346.6"/>
  </clipPath>
 </defs>
</svg>
