<?xml version="1.0" encoding="utf-8" standalone="no"?>
<!DOCTYPE svg PUBLIC "-//W3C//DTD SVG 1.1//EN"
  "http://www.w3.org/Graphics/SVG/1.1/DTD/svg11.dtd">
<svg xmlns:xlink="http://www.w3.org/1999/xlink" width="864pt" height="432pt" viewBox="0 0 864 432" xmlns="http://www.w3.org/2000/svg" version="1.1">
 <metadata>
  <rdf:RDF xmlns:dc="http://purl.org/dc/elements/1.1/" xmlns:cc="http://creativecommons.org/ns#" xmlns:rdf="http://www.w3.org/1999/02/22-rdf-syntax-ns#">
   <cc:Work>
    <dc:type rdf:resource="http://purl.org/dc/dcmitype/StillImage"/>
    <dc:date>2025-05-24T02:04:43.320526</dc:date>
    <dc:format>image/svg+xml</dc:format>
    <dc:creator>
     <cc:Agent>
      <dc:title>Matplotlib v3.10.3, https://matplotlib.org/</dc:title>
     </cc:Agent>
    </dc:creator>
   </cc:Work>
  </rdf:RDF>
 </metadata>
 <defs>
  <style type="text/css">*{stroke-linejoin: round; stroke-linecap: butt}</style>
 </defs>
 <g id="figure_1">
  <g id="patch_1">
   <path d="M 0 432 
L 864 432 
L 864 0 
L 0 0 
z
" style="fill: #ffffff"/>
  </g>
  <g id="axes_1">
   <g id="patch_2">
    <path d="M 50.87 390.04 
L 844.866 390.04 
L 844.866 43.44 
L 50.87 43.44 
z
" style="fill: #ffffff"/>
   </g>
   <g id="FillBetweenPolyCollection_1">
    <defs>
     <path id="me862e9a924" d="M 52.193327 -324.75657 
L 52.193327 -57.714545 
L 54.83998 -57.741597 
L 57.486633 -60.208399 
L 60.133287 -63.656859 
L 62.77994 -67.307806 
L 65.426593 -71.868596 
L 68.073247 -74.896491 
L 70.7199 -77.195224 
L 73.366553 -81.340935 
L 76.013207 -82.441405 
L 78.65986 -84.350342 
L 81.306513 -86.237224 
L 83.953167 -87.989805 
L 86.59982 -89.829301 
L 89.246473 -91.848441 
L 91.893127 -93.702751 
L 94.53978 -94.508641 
L 97.186433 -96.272684 
L 99.833087 -98.582514 
L 102.47974 -98.871312 
L 105.126393 -99.083972 
L 107.773047 -100.063166 
L 110.4197 -101.968682 
L 113.066353 -101.689864 
L 115.713007 -102.071494 
L 118.35966 -102.629062 
L 121.006313 -102.345967 
L 123.652967 -103.600923 
L 126.29962 -103.93681 
L 128.946273 -105.610597 
L 131.592927 -107.218273 
L 134.23958 -107.607647 
L 136.886233 -107.096073 
L 139.532887 -108.717183 
L 142.17954 -109.736966 
L 144.826193 -110.773194 
L 147.472847 -111.588938 
L 150.1195 -111.146396 
L 152.766153 -111.29843 
L 155.412807 -111.070567 
L 158.05946 -112.165323 
L 160.706113 -113.553507 
L 163.352767 -113.817476 
L 165.99942 -114.48162 
L 168.646073 -114.951966 
L 171.292727 -115.227226 
L 173.93938 -115.293327 
L 176.586033 -115.306898 
L 179.232687 -115.337109 
L 181.87934 -115.620272 
L 184.525993 -116.923287 
L 187.172647 -116.579896 
L 189.8193 -117.201306 
L 192.465953 -117.049649 
L 195.112607 -117.28294 
L 197.75926 -115.480988 
L 200.405913 -116.225739 
L 203.052567 -117.473909 
L 205.69922 -118.771484 
L 208.345873 -118.251733 
L 210.992527 -118.453069 
L 213.63918 -120.322479 
L 216.285833 -121.03297 
L 218.932487 -121.576339 
L 221.57914 -121.997908 
L 224.225793 -122.005812 
L 226.872447 -122.205939 
L 229.5191 -121.208361 
L 232.165753 -121.616392 
L 234.812407 -121.574059 
L 237.45906 -122.077147 
L 240.105713 -122.653806 
L 242.752367 -122.339737 
L 245.39902 -121.934111 
L 248.045673 -121.412182 
L 250.692327 -120.80261 
L 253.33898 -120.920088 
L 255.985633 -121.825939 
L 258.632287 -121.332123 
L 261.27894 -122.22706 
L 263.925593 -122.823985 
L 266.572247 -122.558761 
L 269.2189 -121.764149 
L 271.865553 -122.114543 
L 274.512207 -122.112866 
L 277.15886 -123.659231 
L 279.805513 -123.602926 
L 282.452167 -123.982059 
L 285.09882 -126.192111 
L 287.745473 -126.708452 
L 290.392127 -127.257557 
L 293.03878 -127.257626 
L 295.685433 -126.932984 
L 298.332087 -128.138262 
L 300.97874 -127.212316 
L 303.625393 -126.864169 
L 306.272047 -126.089789 
L 308.9187 -126.848807 
L 311.565353 -126.843025 
L 314.212007 -126.932881 
L 316.85866 -128.204134 
L 319.505313 -128.802918 
L 322.151967 -129.494102 
L 324.79862 -128.889182 
L 327.445273 -127.753005 
L 330.091927 -128.724045 
L 332.73858 -127.929536 
L 335.385233 -128.102064 
L 338.031887 -127.764877 
L 340.67854 -128.154 
L 343.325193 -129.264255 
L 345.971847 -129.3921 
L 348.6185 -130.237427 
L 351.265153 -129.05481 
L 353.911807 -130.130852 
L 356.55846 -129.546916 
L 359.205113 -129.940567 
L 361.851767 -130.02195 
L 364.49842 -129.802618 
L 367.145073 -129.474372 
L 369.791727 -130.189334 
L 372.43838 -130.038361 
L 375.085033 -129.767058 
L 377.731687 -130.006679 
L 380.37834 -131.404135 
L 383.024993 -131.83607 
L 385.671647 -132.672593 
L 388.3183 -132.548558 
L 390.964953 -133.367278 
L 393.611607 -132.104396 
L 396.25826 -131.796861 
L 398.904913 -132.440237 
L 401.551567 -131.552154 
L 404.19822 -133.593339 
L 406.844873 -133.970487 
L 409.491527 -133.609533 
L 412.13818 -132.795101 
L 414.784833 -132.390753 
L 417.431487 -132.715452 
L 420.07814 -132.304306 
L 422.724793 -133.200715 
L 425.371447 -132.241365 
L 428.0181 -132.798146 
L 430.664753 -133.883368 
L 433.311407 -133.144228 
L 435.95806 -134.876122 
L 438.604713 -134.596311 
L 441.251367 -133.408916 
L 443.89802 -133.743195 
L 446.544673 -133.690643 
L 449.191327 -135.126303 
L 451.83798 -134.972296 
L 454.484633 -134.818848 
L 457.131287 -134.297581 
L 459.77794 -133.499696 
L 462.424593 -133.426525 
L 465.071247 -134.01403 
L 467.7179 -133.604972 
L 470.364553 -132.993107 
L 473.011207 -133.466349 
L 475.65786 -134.688186 
L 478.304513 -135.139612 
L 480.951167 -134.912 
L 483.59782 -135.226937 
L 486.244473 -135.673265 
L 488.891127 -135.14227 
L 491.53778 -135.626153 
L 494.184433 -136.342632 
L 496.831087 -136.612988 
L 499.47774 -135.988464 
L 502.124393 -136.217376 
L 504.771047 -136.516597 
L 507.4177 -136.631212 
L 510.064353 -136.047631 
L 512.711007 -136.194361 
L 515.35766 -135.647012 
L 518.004313 -136.581135 
L 520.650967 -137.312383 
L 523.29762 -137.604122 
L 525.944273 -136.1937 
L 528.590927 -136.870822 
L 531.23758 -136.45313 
L 533.884233 -135.583477 
L 536.530887 -136.541253 
L 539.17754 -137.485789 
L 541.824193 -136.786747 
L 544.470847 -136.890301 
L 547.1175 -137.064961 
L 549.764153 -136.654523 
L 552.410807 -135.732409 
L 555.05746 -136.300492 
L 557.704113 -136.992417 
L 560.350767 -137.675709 
L 562.99742 -137.588567 
L 565.644073 -136.351824 
L 568.290727 -136.812989 
L 570.93738 -136.242443 
L 573.584033 -135.950122 
L 576.230687 -136.060974 
L 578.87734 -136.034629 
L 581.523993 -136.742726 
L 584.170647 -136.826971 
L 586.8173 -138.138414 
L 589.463953 -137.553258 
L 592.110607 -136.864583 
L 594.75726 -136.663316 
L 597.403913 -136.369512 
L 600.050567 -136.108713 
L 602.69722 -136.022176 
L 605.343873 -136.43445 
L 607.990527 -136.887393 
L 610.63718 -137.086425 
L 613.283833 -137.289539 
L 615.930487 -136.953368 
L 618.57714 -136.418928 
L 621.223793 -136.685236 
L 623.870447 -137.444265 
L 626.5171 -137.783995 
L 629.163753 -138.283708 
L 631.810407 -138.483834 
L 634.45706 -138.724641 
L 637.103713 -138.218097 
L 639.750367 -138.809331 
L 642.39702 -139.200576 
L 645.043673 -138.436608 
L 647.690327 -137.903948 
L 650.33698 -138.015439 
L 652.983633 -137.846252 
L 655.630287 -138.379152 
L 658.27694 -138.322779 
L 660.923593 -139.484389 
L 663.570247 -138.942457 
L 666.2169 -138.755878 
L 668.863553 -139.734263 
L 671.510207 -139.574097 
L 674.15686 -139.346029 
L 676.803513 -139.218857 
L 679.450167 -139.585753 
L 682.09682 -139.394407 
L 684.743473 -140.7035 
L 687.390127 -139.892147 
L 690.03678 -139.506423 
L 692.683433 -138.834969 
L 695.330087 -138.863332 
L 697.97674 -138.464298 
L 700.623393 -139.021752 
L 703.270047 -139.332104 
L 705.9167 -139.659061 
L 708.563353 -140.621787 
L 711.210007 -140.346128 
L 713.85666 -140.380706 
L 716.503313 -140.042527 
L 719.149967 -140.70033 
L 721.79662 -140.560373 
L 724.443273 -139.673784 
L 727.089927 -140.209102 
L 729.73658 -140.437535 
L 732.383233 -140.588486 
L 735.029887 -140.510444 
L 737.67654 -140.692757 
L 740.323193 -139.359327 
L 742.969847 -139.306626 
L 745.6165 -140.319931 
L 748.263153 -140.158854 
L 750.909807 -139.887984 
L 753.55646 -141.328047 
L 756.203113 -141.448114 
L 758.849767 -141.154892 
L 761.49642 -140.989013 
L 764.143073 -141.120291 
L 766.789727 -141.381067 
L 769.43638 -141.366891 
L 772.083033 -141.294632 
L 774.729687 -142.184711 
L 777.37634 -142.369898 
L 780.022993 -141.586064 
L 782.669647 -141.724777 
L 785.3163 -142.18649 
L 787.962953 -143.109596 
L 790.609607 -142.164228 
L 793.25626 -141.65481 
L 795.902913 -141.781446 
L 798.549567 -141.922486 
L 801.19622 -142.568245 
L 803.842873 -142.054517 
L 806.489527 -142.361607 
L 809.13618 -142.425769 
L 811.782833 -141.932784 
L 814.429487 -143.301124 
L 817.07614 -143.291864 
L 819.722793 -143.429003 
L 822.369447 -143.147049 
L 825.0161 -142.480636 
L 827.662753 -142.076972 
L 830.309407 -141.084332 
L 832.95606 -141.362249 
L 835.602713 -142.04318 
L 838.249367 -141.296833 
L 840.89602 -141.489741 
L 843.542673 -140.602365 
L 843.542673 -372.149237 
L 843.542673 -372.149237 
L 840.89602 -371.984966 
L 838.249367 -372.336089 
L 835.602713 -371.86499 
L 832.95606 -372.738852 
L 830.309407 -372.805455 
L 827.662753 -372.734108 
L 825.0161 -372.691979 
L 822.369447 -372.163424 
L 819.722793 -372.166709 
L 817.07614 -371.789378 
L 814.429487 -371.463482 
L 811.782833 -371.940169 
L 809.13618 -371.759019 
L 806.489527 -371.94911 
L 803.842873 -372.113678 
L 801.19622 -371.503284 
L 798.549567 -372.374773 
L 795.902913 -371.810956 
L 793.25626 -372.171248 
L 790.609607 -371.551069 
L 787.962953 -370.765365 
L 785.3163 -371.801102 
L 782.669647 -371.791819 
L 780.022993 -371.842478 
L 777.37634 -371.182634 
L 774.729687 -371.189636 
L 772.083033 -371.731284 
L 769.43638 -371.579831 
L 766.789727 -371.016949 
L 764.143073 -371.090759 
L 761.49642 -371.012912 
L 758.849767 -371.092721 
L 756.203113 -370.7283 
L 753.55646 -370.67479 
L 750.909807 -371.570799 
L 748.263153 -371.215274 
L 745.6165 -371.295334 
L 742.969847 -372.104212 
L 740.323193 -371.946921 
L 737.67654 -370.938394 
L 735.029887 -370.841091 
L 732.383233 -370.478632 
L 729.73658 -370.891248 
L 727.089927 -371.321541 
L 724.443273 -371.414785 
L 721.79662 -370.530066 
L 719.149967 -370.364655 
L 716.503313 -370.414857 
L 713.85666 -369.949985 
L 711.210007 -369.958242 
L 708.563353 -370.110447 
L 705.9167 -371.136902 
L 703.270047 -371.375234 
L 700.623393 -370.96873 
L 697.97674 -371.338739 
L 695.330087 -371.108185 
L 692.683433 -371.093975 
L 690.03678 -370.703575 
L 687.390127 -370.208412 
L 684.743473 -369.573225 
L 682.09682 -370.501372 
L 679.450167 -369.891161 
L 676.803513 -370.271594 
L 674.15686 -370.288906 
L 671.510207 -369.872845 
L 668.863553 -369.789683 
L 666.2169 -370.306765 
L 663.570247 -370.591149 
L 660.923593 -369.880486 
L 658.27694 -370.334045 
L 655.630287 -370.268788 
L 652.983633 -370.52409 
L 650.33698 -370.367369 
L 647.690327 -370.189093 
L 645.043673 -369.456443 
L 642.39702 -369.189987 
L 639.750367 -369.723833 
L 637.103713 -370.431896 
L 634.45706 -370.277615 
L 631.810407 -370.064806 
L 629.163753 -369.609127 
L 626.5171 -370.523999 
L 623.870447 -370.225109 
L 621.223793 -370.32337 
L 618.57714 -370.046513 
L 615.930487 -369.975714 
L 613.283833 -370.002857 
L 610.63718 -370.206747 
L 607.990527 -369.634832 
L 605.343873 -370.110904 
L 602.69722 -370.279531 
L 600.050567 -370.532803 
L 597.403913 -370.408174 
L 594.75726 -370.108121 
L 592.110607 -369.899098 
L 589.463953 -368.925219 
L 586.8173 -368.714326 
L 584.170647 -369.565196 
L 581.523993 -369.268769 
L 578.87734 -369.897433 
L 576.230687 -369.399032 
L 573.584033 -369.444194 
L 570.93738 -368.904029 
L 568.290727 -368.760606 
L 565.644073 -369.172561 
L 562.99742 -368.133014 
L 560.350767 -368.110524 
L 557.704113 -368.236932 
L 555.05746 -368.213074 
L 552.410807 -368.646081 
L 549.764153 -368.115588 
L 547.1175 -368.266173 
L 544.470847 -367.867881 
L 541.824193 -368.290214 
L 539.17754 -367.879423 
L 536.530887 -368.527839 
L 533.884233 -369.02859 
L 531.23758 -368.720804 
L 528.590927 -368.171151 
L 525.944273 -368.451383 
L 523.29762 -367.490071 
L 520.650967 -367.480127 
L 518.004313 -367.442811 
L 515.35766 -367.604254 
L 512.711007 -366.90495 
L 510.064353 -366.709955 
L 507.4177 -366.317639 
L 504.771047 -366.48889 
L 502.124393 -366.432962 
L 499.47774 -366.868478 
L 496.831087 -366.538431 
L 494.184433 -366.590116 
L 491.53778 -367.165407 
L 488.891127 -367.183403 
L 486.244473 -366.7363 
L 483.59782 -367.050016 
L 480.951167 -366.610325 
L 478.304513 -366.486746 
L 475.65786 -366.571801 
L 473.011207 -367.023466 
L 470.364553 -367.081675 
L 467.7179 -366.298479 
L 465.071247 -366.473562 
L 462.424593 -366.822883 
L 459.77794 -366.820967 
L 457.131287 -366.171068 
L 454.484633 -366.088134 
L 451.83798 -365.656472 
L 449.191327 -366.072373 
L 446.544673 -366.700421 
L 443.89802 -366.396376 
L 441.251367 -366.177797 
L 438.604713 -365.184142 
L 435.95806 -365.19639 
L 433.311407 -365.866703 
L 430.664753 -365.279187 
L 428.0181 -366.301216 
L 425.371447 -367.128798 
L 422.724793 -365.852174 
L 420.07814 -366.90365 
L 417.431487 -366.33064 
L 414.784833 -366.151635 
L 412.13818 -366.988682 
L 409.491527 -366.42507 
L 406.844873 -366.087952 
L 404.19822 -365.634781 
L 401.551567 -367.017513 
L 398.904913 -366.542993 
L 396.25826 -366.300053 
L 393.611607 -365.807309 
L 390.964953 -364.770727 
L 388.3183 -364.947201 
L 385.671647 -364.699038 
L 383.024993 -365.219701 
L 380.37834 -365.452833 
L 377.731687 -366.473927 
L 375.085033 -366.877556 
L 372.43838 -366.442861 
L 369.791727 -365.827426 
L 367.145073 -366.650424 
L 364.49842 -365.948383 
L 361.851767 -366.181035 
L 359.205113 -365.90573 
L 356.55846 -365.839104 
L 353.911807 -365.286714 
L 351.265153 -365.954929 
L 348.6185 -364.847229 
L 345.971847 -365.282859 
L 343.325193 -365.728252 
L 340.67854 -365.946718 
L 338.031887 -366.250763 
L 335.385233 -365.301791 
L 332.73858 -365.111974 
L 330.091927 -364.289045 
L 327.445273 -364.64181 
L 324.79862 -363.863519 
L 322.151967 -363.178539 
L 319.505313 -363.411671 
L 316.85866 -363.557922 
L 314.212007 -363.848373 
L 311.565353 -364.041338 
L 308.9187 -363.477498 
L 306.272047 -364.126827 
L 303.625393 -363.254128 
L 300.97874 -362.353284 
L 298.332087 -361.586077 
L 295.685433 -362.528503 
L 293.03878 -362.101631 
L 290.392127 -361.846283 
L 287.745473 -361.950475 
L 285.09882 -362.297766 
L 282.452167 -363.399468 
L 279.805513 -363.679746 
L 277.15886 -363.359073 
L 274.512207 -363.458566 
L 271.865553 -363.155502 
L 269.2189 -362.812134 
L 266.572247 -362.030079 
L 263.925593 -361.232172 
L 261.27894 -361.518152 
L 258.632287 -362.06119 
L 255.985633 -361.691592 
L 253.33898 -362.330657 
L 250.692327 -362.398742 
L 248.045673 -361.306666 
L 245.39902 -360.808516 
L 242.752367 -360.376877 
L 240.105713 -359.595985 
L 237.45906 -360.404156 
L 234.812407 -359.590716 
L 232.165753 -359.344378 
L 229.5191 -360.312281 
L 226.872447 -358.231044 
L 224.225793 -358.023527 
L 221.57914 -357.957745 
L 218.932487 -358.108445 
L 216.285833 -358.189622 
L 213.63918 -358.500305 
L 210.992527 -359.458218 
L 208.345873 -359.793854 
L 205.69922 -359.260326 
L 203.052567 -359.411003 
L 200.405913 -359.539669 
L 197.75926 -358.560817 
L 195.112607 -356.808236 
L 192.465953 -357.594054 
L 189.8193 -357.024033 
L 187.172647 -357.011853 
L 184.525993 -356.286547 
L 181.87934 -357.334282 
L 179.232687 -357.515842 
L 176.586033 -357.559385 
L 173.93938 -356.57255 
L 171.292727 -355.819257 
L 168.646073 -355.718258 
L 165.99942 -354.934743 
L 163.352767 -354.725424 
L 160.706113 -354.970257 
L 158.05946 -355.469685 
L 155.412807 -355.796197 
L 152.766153 -354.486819 
L 150.1195 -354.091378 
L 147.472847 -352.691082 
L 144.826193 -352.944263 
L 142.17954 -352.739825 
L 139.532887 -351.778856 
L 136.886233 -351.900884 
L 134.23958 -350.996162 
L 131.592927 -350.656467 
L 128.946273 -350.929811 
L 126.29962 -351.318477 
L 123.652967 -351.114747 
L 121.006313 -350.889712 
L 118.35966 -349.86141 
L 115.713007 -348.914947 
L 113.066353 -348.139667 
L 110.4197 -347.079272 
L 107.773047 -346.753239 
L 105.126393 -346.026725 
L 102.47974 -345.292979 
L 99.833087 -343.814563 
L 97.186433 -343.544412 
L 94.53978 -343.101049 
L 91.893127 -342.222808 
L 89.246473 -342.153172 
L 86.59982 -341.591909 
L 83.953167 -340.682283 
L 81.306513 -339.039322 
L 78.65986 -337.77677 
L 76.013207 -336.987029 
L 73.366553 -335.105211 
L 70.7199 -335.34831 
L 68.073247 -334.096251 
L 65.426593 -332.343943 
L 62.77994 -331.889518 
L 60.133287 -329.961284 
L 57.486633 -328.438778 
L 54.83998 -326.441067 
L 52.193327 -324.75657 
z
" style="stroke: #0000ff; stroke-opacity: 0.2"/>
    </defs>
    <g clip-path="url(#p304e59aabf)">
     <use xlink:href="#me862e9a924" x="0" y="432" style="fill: #0000ff; fill-opacity: 0.2; stroke: #0000ff; stroke-opacity: 0.2"/>
    </g>
   </g>
   <g id="matplotlib.axis_1">
    <g id="xtick_1">
     <g id="line2d_1">
      <defs>
       <path id="m245a45a318" d="M 0 0 
L 0 3.5 
" style="stroke: #000000; stroke-width: 0.8"/>
      </defs>
      <g>
       <use xlink:href="#m245a45a318" x="181.87934" y="390.04" style="stroke: #000000; stroke-width: 0.8"/>
      </g>
     </g>
     <g id="text_1">
      <!-- 50 -->
      <g transform="translate(175.51684 404.638438) scale(0.1 -0.1)">
       <defs>
        <path id="DejaVuSans-35" d="M 691 4666 
L 3169 4666 
L 3169 4134 
L 1269 4134 
L 1269 2991 
Q 1406 3038 1543 3061 
Q 1681 3084 1819 3084 
Q 2600 3084 3056 2656 
Q 3513 2228 3513 1497 
Q 3513 744 3044 326 
Q 2575 -91 1722 -91 
Q 1428 -91 1123 -41 
Q 819 9 494 109 
L 494 744 
Q 775 591 1075 516 
Q 1375 441 1709 441 
Q 2250 441 2565 725 
Q 2881 1009 2881 1497 
Q 2881 1984 2565 2268 
Q 2250 2553 1709 2553 
Q 1456 2553 1204 2497 
Q 953 2441 691 2322 
L 691 4666 
z
" transform="scale(0.015625)"/>
        <path id="DejaVuSans-30" d="M 2034 4250 
Q 1547 4250 1301 3770 
Q 1056 3291 1056 2328 
Q 1056 1369 1301 889 
Q 1547 409 2034 409 
Q 2525 409 2770 889 
Q 3016 1369 3016 2328 
Q 3016 3291 2770 3770 
Q 2525 4250 2034 4250 
z
M 2034 4750 
Q 2819 4750 3233 4129 
Q 3647 3509 3647 2328 
Q 3647 1150 3233 529 
Q 2819 -91 2034 -91 
Q 1250 -91 836 529 
Q 422 1150 422 2328 
Q 422 3509 836 4129 
Q 1250 4750 2034 4750 
z
" transform="scale(0.015625)"/>
       </defs>
       <use xlink:href="#DejaVuSans-35"/>
       <use xlink:href="#DejaVuSans-30" transform="translate(63.623047 0)"/>
      </g>
     </g>
    </g>
    <g id="xtick_2">
     <g id="line2d_2">
      <g>
       <use xlink:href="#m245a45a318" x="314.212007" y="390.04" style="stroke: #000000; stroke-width: 0.8"/>
      </g>
     </g>
     <g id="text_2">
      <!-- 100 -->
      <g transform="translate(304.668257 404.638438) scale(0.1 -0.1)">
       <defs>
        <path id="DejaVuSans-31" d="M 794 531 
L 1825 531 
L 1825 4091 
L 703 3866 
L 703 4441 
L 1819 4666 
L 2450 4666 
L 2450 531 
L 3481 531 
L 3481 0 
L 794 0 
L 794 531 
z
" transform="scale(0.015625)"/>
       </defs>
       <use xlink:href="#DejaVuSans-31"/>
       <use xlink:href="#DejaVuSans-30" transform="translate(63.623047 0)"/>
       <use xlink:href="#DejaVuSans-30" transform="translate(127.246094 0)"/>
      </g>
     </g>
    </g>
    <g id="xtick_3">
     <g id="line2d_3">
      <g>
       <use xlink:href="#m245a45a318" x="446.544673" y="390.04" style="stroke: #000000; stroke-width: 0.8"/>
      </g>
     </g>
     <g id="text_3">
      <!-- 150 -->
      <g transform="translate(437.000923 404.638438) scale(0.1 -0.1)">
       <use xlink:href="#DejaVuSans-31"/>
       <use xlink:href="#DejaVuSans-35" transform="translate(63.623047 0)"/>
       <use xlink:href="#DejaVuSans-30" transform="translate(127.246094 0)"/>
      </g>
     </g>
    </g>
    <g id="xtick_4">
     <g id="line2d_4">
      <g>
       <use xlink:href="#m245a45a318" x="578.87734" y="390.04" style="stroke: #000000; stroke-width: 0.8"/>
      </g>
     </g>
     <g id="text_4">
      <!-- 200 -->
      <g transform="translate(569.33359 404.638438) scale(0.1 -0.1)">
       <defs>
        <path id="DejaVuSans-32" d="M 1228 531 
L 3431 531 
L 3431 0 
L 469 0 
L 469 531 
Q 828 903 1448 1529 
Q 2069 2156 2228 2338 
Q 2531 2678 2651 2914 
Q 2772 3150 2772 3378 
Q 2772 3750 2511 3984 
Q 2250 4219 1831 4219 
Q 1534 4219 1204 4116 
Q 875 4013 500 3803 
L 500 4441 
Q 881 4594 1212 4672 
Q 1544 4750 1819 4750 
Q 2544 4750 2975 4387 
Q 3406 4025 3406 3419 
Q 3406 3131 3298 2873 
Q 3191 2616 2906 2266 
Q 2828 2175 2409 1742 
Q 1991 1309 1228 531 
z
" transform="scale(0.015625)"/>
       </defs>
       <use xlink:href="#DejaVuSans-32"/>
       <use xlink:href="#DejaVuSans-30" transform="translate(63.623047 0)"/>
       <use xlink:href="#DejaVuSans-30" transform="translate(127.246094 0)"/>
      </g>
     </g>
    </g>
    <g id="xtick_5">
     <g id="line2d_5">
      <g>
       <use xlink:href="#m245a45a318" x="711.210007" y="390.04" style="stroke: #000000; stroke-width: 0.8"/>
      </g>
     </g>
     <g id="text_5">
      <!-- 250 -->
      <g transform="translate(701.666257 404.638438) scale(0.1 -0.1)">
       <use xlink:href="#DejaVuSans-32"/>
       <use xlink:href="#DejaVuSans-35" transform="translate(63.623047 0)"/>
       <use xlink:href="#DejaVuSans-30" transform="translate(127.246094 0)"/>
      </g>
     </g>
    </g>
    <g id="xtick_6">
     <g id="line2d_6">
      <g>
       <use xlink:href="#m245a45a318" x="843.542673" y="390.04" style="stroke: #000000; stroke-width: 0.8"/>
      </g>
     </g>
     <g id="text_6">
      <!-- 300 -->
      <g transform="translate(833.998923 404.638438) scale(0.1 -0.1)">
       <defs>
        <path id="DejaVuSans-33" d="M 2597 2516 
Q 3050 2419 3304 2112 
Q 3559 1806 3559 1356 
Q 3559 666 3084 287 
Q 2609 -91 1734 -91 
Q 1441 -91 1130 -33 
Q 819 25 488 141 
L 488 750 
Q 750 597 1062 519 
Q 1375 441 1716 441 
Q 2309 441 2620 675 
Q 2931 909 2931 1356 
Q 2931 1769 2642 2001 
Q 2353 2234 1838 2234 
L 1294 2234 
L 1294 2753 
L 1863 2753 
Q 2328 2753 2575 2939 
Q 2822 3125 2822 3475 
Q 2822 3834 2567 4026 
Q 2313 4219 1838 4219 
Q 1578 4219 1281 4162 
Q 984 4106 628 3988 
L 628 4550 
Q 988 4650 1302 4700 
Q 1616 4750 1894 4750 
Q 2613 4750 3031 4423 
Q 3450 4097 3450 3541 
Q 3450 3153 3228 2886 
Q 3006 2619 2597 2516 
z
" transform="scale(0.015625)"/>
       </defs>
       <use xlink:href="#DejaVuSans-33"/>
       <use xlink:href="#DejaVuSans-30" transform="translate(63.623047 0)"/>
       <use xlink:href="#DejaVuSans-30" transform="translate(127.246094 0)"/>
      </g>
     </g>
    </g>
    <g id="text_7">
     <!-- Step -->
     <g transform="translate(436.482844 418.316562) scale(0.1 -0.1)">
      <defs>
       <path id="DejaVuSans-53" d="M 3425 4513 
L 3425 3897 
Q 3066 4069 2747 4153 
Q 2428 4238 2131 4238 
Q 1616 4238 1336 4038 
Q 1056 3838 1056 3469 
Q 1056 3159 1242 3001 
Q 1428 2844 1947 2747 
L 2328 2669 
Q 3034 2534 3370 2195 
Q 3706 1856 3706 1288 
Q 3706 609 3251 259 
Q 2797 -91 1919 -91 
Q 1588 -91 1214 -16 
Q 841 59 441 206 
L 441 856 
Q 825 641 1194 531 
Q 1563 422 1919 422 
Q 2459 422 2753 634 
Q 3047 847 3047 1241 
Q 3047 1584 2836 1778 
Q 2625 1972 2144 2069 
L 1759 2144 
Q 1053 2284 737 2584 
Q 422 2884 422 3419 
Q 422 4038 858 4394 
Q 1294 4750 2059 4750 
Q 2388 4750 2728 4690 
Q 3069 4631 3425 4513 
z
" transform="scale(0.015625)"/>
       <path id="DejaVuSans-74" d="M 1172 4494 
L 1172 3500 
L 2356 3500 
L 2356 3053 
L 1172 3053 
L 1172 1153 
Q 1172 725 1289 603 
Q 1406 481 1766 481 
L 2356 481 
L 2356 0 
L 1766 0 
Q 1100 0 847 248 
Q 594 497 594 1153 
L 594 3053 
L 172 3053 
L 172 3500 
L 594 3500 
L 594 4494 
L 1172 4494 
z
" transform="scale(0.015625)"/>
       <path id="DejaVuSans-65" d="M 3597 1894 
L 3597 1613 
L 953 1613 
Q 991 1019 1311 708 
Q 1631 397 2203 397 
Q 2534 397 2845 478 
Q 3156 559 3463 722 
L 3463 178 
Q 3153 47 2828 -22 
Q 2503 -91 2169 -91 
Q 1331 -91 842 396 
Q 353 884 353 1716 
Q 353 2575 817 3079 
Q 1281 3584 2069 3584 
Q 2775 3584 3186 3129 
Q 3597 2675 3597 1894 
z
M 3022 2063 
Q 3016 2534 2758 2815 
Q 2500 3097 2075 3097 
Q 1594 3097 1305 2825 
Q 1016 2553 972 2059 
L 3022 2063 
z
" transform="scale(0.015625)"/>
       <path id="DejaVuSans-70" d="M 1159 525 
L 1159 -1331 
L 581 -1331 
L 581 3500 
L 1159 3500 
L 1159 2969 
Q 1341 3281 1617 3432 
Q 1894 3584 2278 3584 
Q 2916 3584 3314 3078 
Q 3713 2572 3713 1747 
Q 3713 922 3314 415 
Q 2916 -91 2278 -91 
Q 1894 -91 1617 61 
Q 1341 213 1159 525 
z
M 3116 1747 
Q 3116 2381 2855 2742 
Q 2594 3103 2138 3103 
Q 1681 3103 1420 2742 
Q 1159 2381 1159 1747 
Q 1159 1113 1420 752 
Q 1681 391 2138 391 
Q 2594 391 2855 752 
Q 3116 1113 3116 1747 
z
" transform="scale(0.015625)"/>
      </defs>
      <use xlink:href="#DejaVuSans-53"/>
      <use xlink:href="#DejaVuSans-74" transform="translate(63.476562 0)"/>
      <use xlink:href="#DejaVuSans-65" transform="translate(102.685547 0)"/>
      <use xlink:href="#DejaVuSans-70" transform="translate(164.208984 0)"/>
     </g>
    </g>
   </g>
   <g id="matplotlib.axis_2">
    <g id="ytick_1">
     <g id="line2d_7">
      <defs>
       <path id="m242f6f25a2" d="M 0 0 
L -3.5 0 
" style="stroke: #000000; stroke-width: 0.8"/>
      </defs>
      <g>
       <use xlink:href="#m242f6f25a2" x="50.87" y="356.151926" style="stroke: #000000; stroke-width: 0.8"/>
      </g>
     </g>
     <g id="text_8">
      <!-- 20 -->
      <g transform="translate(31.145 359.951144) scale(0.1 -0.1)">
       <use xlink:href="#DejaVuSans-32"/>
       <use xlink:href="#DejaVuSans-30" transform="translate(63.623047 0)"/>
      </g>
     </g>
    </g>
    <g id="ytick_2">
     <g id="line2d_8">
      <g>
       <use xlink:href="#m242f6f25a2" x="50.87" y="296.359284" style="stroke: #000000; stroke-width: 0.8"/>
      </g>
     </g>
     <g id="text_9">
      <!-- 40 -->
      <g transform="translate(31.145 300.158502) scale(0.1 -0.1)">
       <defs>
        <path id="DejaVuSans-34" d="M 2419 4116 
L 825 1625 
L 2419 1625 
L 2419 4116 
z
M 2253 4666 
L 3047 4666 
L 3047 1625 
L 3713 1625 
L 3713 1100 
L 3047 1100 
L 3047 0 
L 2419 0 
L 2419 1100 
L 313 1100 
L 313 1709 
L 2253 4666 
z
" transform="scale(0.015625)"/>
       </defs>
       <use xlink:href="#DejaVuSans-34"/>
       <use xlink:href="#DejaVuSans-30" transform="translate(63.623047 0)"/>
      </g>
     </g>
    </g>
    <g id="ytick_3">
     <g id="line2d_9">
      <g>
       <use xlink:href="#m242f6f25a2" x="50.87" y="236.566641" style="stroke: #000000; stroke-width: 0.8"/>
      </g>
     </g>
     <g id="text_10">
      <!-- 60 -->
      <g transform="translate(31.145 240.36586) scale(0.1 -0.1)">
       <defs>
        <path id="DejaVuSans-36" d="M 2113 2584 
Q 1688 2584 1439 2293 
Q 1191 2003 1191 1497 
Q 1191 994 1439 701 
Q 1688 409 2113 409 
Q 2538 409 2786 701 
Q 3034 994 3034 1497 
Q 3034 2003 2786 2293 
Q 2538 2584 2113 2584 
z
M 3366 4563 
L 3366 3988 
Q 3128 4100 2886 4159 
Q 2644 4219 2406 4219 
Q 1781 4219 1451 3797 
Q 1122 3375 1075 2522 
Q 1259 2794 1537 2939 
Q 1816 3084 2150 3084 
Q 2853 3084 3261 2657 
Q 3669 2231 3669 1497 
Q 3669 778 3244 343 
Q 2819 -91 2113 -91 
Q 1303 -91 875 529 
Q 447 1150 447 2328 
Q 447 3434 972 4092 
Q 1497 4750 2381 4750 
Q 2619 4750 2861 4703 
Q 3103 4656 3366 4563 
z
" transform="scale(0.015625)"/>
       </defs>
       <use xlink:href="#DejaVuSans-36"/>
       <use xlink:href="#DejaVuSans-30" transform="translate(63.623047 0)"/>
      </g>
     </g>
    </g>
    <g id="ytick_4">
     <g id="line2d_10">
      <g>
       <use xlink:href="#m242f6f25a2" x="50.87" y="176.773999" style="stroke: #000000; stroke-width: 0.8"/>
      </g>
     </g>
     <g id="text_11">
      <!-- 80 -->
      <g transform="translate(31.145 180.573218) scale(0.1 -0.1)">
       <defs>
        <path id="DejaVuSans-38" d="M 2034 2216 
Q 1584 2216 1326 1975 
Q 1069 1734 1069 1313 
Q 1069 891 1326 650 
Q 1584 409 2034 409 
Q 2484 409 2743 651 
Q 3003 894 3003 1313 
Q 3003 1734 2745 1975 
Q 2488 2216 2034 2216 
z
M 1403 2484 
Q 997 2584 770 2862 
Q 544 3141 544 3541 
Q 544 4100 942 4425 
Q 1341 4750 2034 4750 
Q 2731 4750 3128 4425 
Q 3525 4100 3525 3541 
Q 3525 3141 3298 2862 
Q 3072 2584 2669 2484 
Q 3125 2378 3379 2068 
Q 3634 1759 3634 1313 
Q 3634 634 3220 271 
Q 2806 -91 2034 -91 
Q 1263 -91 848 271 
Q 434 634 434 1313 
Q 434 1759 690 2068 
Q 947 2378 1403 2484 
z
M 1172 3481 
Q 1172 3119 1398 2916 
Q 1625 2713 2034 2713 
Q 2441 2713 2670 2916 
Q 2900 3119 2900 3481 
Q 2900 3844 2670 4047 
Q 2441 4250 2034 4250 
Q 1625 4250 1398 4047 
Q 1172 3844 1172 3481 
z
" transform="scale(0.015625)"/>
       </defs>
       <use xlink:href="#DejaVuSans-38"/>
       <use xlink:href="#DejaVuSans-30" transform="translate(63.623047 0)"/>
      </g>
     </g>
    </g>
    <g id="ytick_5">
     <g id="line2d_11">
      <g>
       <use xlink:href="#m242f6f25a2" x="50.87" y="116.981357" style="stroke: #000000; stroke-width: 0.8"/>
      </g>
     </g>
     <g id="text_12">
      <!-- 100 -->
      <g transform="translate(24.7825 120.780576) scale(0.1 -0.1)">
       <use xlink:href="#DejaVuSans-31"/>
       <use xlink:href="#DejaVuSans-30" transform="translate(63.623047 0)"/>
       <use xlink:href="#DejaVuSans-30" transform="translate(127.246094 0)"/>
      </g>
     </g>
    </g>
    <g id="ytick_6">
     <g id="line2d_12">
      <g>
       <use xlink:href="#m242f6f25a2" x="50.87" y="57.188715" style="stroke: #000000; stroke-width: 0.8"/>
      </g>
     </g>
     <g id="text_13">
      <!-- 120 -->
      <g transform="translate(24.7825 60.987933) scale(0.1 -0.1)">
       <use xlink:href="#DejaVuSans-31"/>
       <use xlink:href="#DejaVuSans-32" transform="translate(63.623047 0)"/>
       <use xlink:href="#DejaVuSans-30" transform="translate(127.246094 0)"/>
      </g>
     </g>
    </g>
    <g id="text_14">
     <!-- Profit -->
     <g transform="translate(18.702813 229.779063) rotate(-90) scale(0.1 -0.1)">
      <defs>
       <path id="DejaVuSans-50" d="M 1259 4147 
L 1259 2394 
L 2053 2394 
Q 2494 2394 2734 2622 
Q 2975 2850 2975 3272 
Q 2975 3691 2734 3919 
Q 2494 4147 2053 4147 
L 1259 4147 
z
M 628 4666 
L 2053 4666 
Q 2838 4666 3239 4311 
Q 3641 3956 3641 3272 
Q 3641 2581 3239 2228 
Q 2838 1875 2053 1875 
L 1259 1875 
L 1259 0 
L 628 0 
L 628 4666 
z
" transform="scale(0.015625)"/>
       <path id="DejaVuSans-72" d="M 2631 2963 
Q 2534 3019 2420 3045 
Q 2306 3072 2169 3072 
Q 1681 3072 1420 2755 
Q 1159 2438 1159 1844 
L 1159 0 
L 581 0 
L 581 3500 
L 1159 3500 
L 1159 2956 
Q 1341 3275 1631 3429 
Q 1922 3584 2338 3584 
Q 2397 3584 2469 3576 
Q 2541 3569 2628 3553 
L 2631 2963 
z
" transform="scale(0.015625)"/>
       <path id="DejaVuSans-6f" d="M 1959 3097 
Q 1497 3097 1228 2736 
Q 959 2375 959 1747 
Q 959 1119 1226 758 
Q 1494 397 1959 397 
Q 2419 397 2687 759 
Q 2956 1122 2956 1747 
Q 2956 2369 2687 2733 
Q 2419 3097 1959 3097 
z
M 1959 3584 
Q 2709 3584 3137 3096 
Q 3566 2609 3566 1747 
Q 3566 888 3137 398 
Q 2709 -91 1959 -91 
Q 1206 -91 779 398 
Q 353 888 353 1747 
Q 353 2609 779 3096 
Q 1206 3584 1959 3584 
z
" transform="scale(0.015625)"/>
       <path id="DejaVuSans-66" d="M 2375 4863 
L 2375 4384 
L 1825 4384 
Q 1516 4384 1395 4259 
Q 1275 4134 1275 3809 
L 1275 3500 
L 2222 3500 
L 2222 3053 
L 1275 3053 
L 1275 0 
L 697 0 
L 697 3053 
L 147 3053 
L 147 3500 
L 697 3500 
L 697 3744 
Q 697 4328 969 4595 
Q 1241 4863 1831 4863 
L 2375 4863 
z
" transform="scale(0.015625)"/>
       <path id="DejaVuSans-69" d="M 603 3500 
L 1178 3500 
L 1178 0 
L 603 0 
L 603 3500 
z
M 603 4863 
L 1178 4863 
L 1178 4134 
L 603 4134 
L 603 4863 
z
" transform="scale(0.015625)"/>
      </defs>
      <use xlink:href="#DejaVuSans-50"/>
      <use xlink:href="#DejaVuSans-72" transform="translate(58.552734 0)"/>
      <use xlink:href="#DejaVuSans-6f" transform="translate(97.416016 0)"/>
      <use xlink:href="#DejaVuSans-66" transform="translate(158.597656 0)"/>
      <use xlink:href="#DejaVuSans-69" transform="translate(193.802734 0)"/>
      <use xlink:href="#DejaVuSans-74" transform="translate(221.585938 0)"/>
     </g>
    </g>
   </g>
   <g id="line2d_13">
    <path d="M 52.193327 240.764436 
L 54.83998 239.908662 
L 57.486633 237.676406 
L 60.133287 235.190923 
L 62.77994 232.401338 
L 68.073247 227.503623 
L 70.7199 225.728233 
L 73.366553 223.776927 
L 76.013207 222.285783 
L 78.65986 220.936444 
L 86.59982 216.289389 
L 89.246473 214.999194 
L 91.893127 214.037221 
L 94.53978 213.195155 
L 97.186433 212.091446 
L 99.833087 210.801456 
L 102.47974 209.917855 
L 105.126393 209.444657 
L 107.773047 208.591803 
L 110.4197 207.476028 
L 113.066353 207.08524 
L 115.713007 206.506779 
L 118.35966 205.754764 
L 121.006313 205.382154 
L 123.652967 204.642159 
L 126.29962 204.372351 
L 131.592927 203.06263 
L 134.23958 202.698096 
L 136.886233 202.501527 
L 139.532887 201.751975 
L 142.17954 200.761604 
L 144.826193 200.141266 
L 147.472847 199.859984 
L 150.1195 199.381108 
L 152.766153 199.107376 
L 155.412807 198.566618 
L 160.706113 197.738124 
L 163.352767 197.728544 
L 165.99942 197.291818 
L 168.646073 196.664888 
L 171.292727 196.476759 
L 176.586033 195.566859 
L 181.87934 195.522723 
L 187.172647 195.204126 
L 192.465953 194.678148 
L 195.112607 194.954412 
L 197.75926 194.979091 
L 200.405913 194.117296 
L 205.69922 192.984095 
L 210.992527 193.044357 
L 213.63918 192.588608 
L 221.57914 192.022168 
L 224.225793 191.985331 
L 226.872447 191.781509 
L 229.5191 191.239679 
L 232.165753 191.519615 
L 234.812407 191.417613 
L 237.45906 190.759343 
L 240.105713 190.875099 
L 242.752367 190.641693 
L 248.045673 190.640576 
L 250.692327 190.399324 
L 258.632287 190.303343 
L 266.572247 189.705586 
L 269.2189 189.711858 
L 271.865553 189.364978 
L 274.512207 189.214278 
L 277.15886 188.490843 
L 282.452167 188.309237 
L 285.09882 187.755067 
L 287.745473 187.670537 
L 293.03878 187.320372 
L 300.97874 187.217206 
L 303.625393 186.940851 
L 308.9187 186.836842 
L 311.565353 186.557818 
L 314.212007 186.609367 
L 316.85866 186.118972 
L 322.151967 185.66368 
L 324.79862 185.62365 
L 327.445273 185.802587 
L 330.091927 185.493455 
L 332.73858 185.479245 
L 335.385233 185.298073 
L 338.031887 184.99218 
L 340.67854 184.949641 
L 343.325193 184.503746 
L 345.971847 184.66252 
L 348.6185 184.457672 
L 351.265153 184.495125 
L 353.911807 184.291211 
L 356.55846 184.306995 
L 361.851767 183.898507 
L 364.49842 184.1245 
L 367.145073 183.937602 
L 369.791727 183.991614 
L 372.43838 183.759395 
L 375.085033 183.677693 
L 377.731687 183.759691 
L 383.024993 183.472114 
L 390.964953 182.930992 
L 393.611607 183.044148 
L 396.25826 182.951543 
L 398.904913 182.508385 
L 401.551567 182.715172 
L 406.844873 181.970775 
L 409.491527 181.982704 
L 412.13818 182.108108 
L 414.784833 182.728812 
L 417.431487 182.476954 
L 420.07814 182.396027 
L 422.724793 182.473556 
L 425.371447 182.314918 
L 428.0181 182.450313 
L 433.311407 182.49454 
L 435.95806 181.96375 
L 441.251367 182.206644 
L 443.89802 181.93022 
L 446.544673 181.804474 
L 449.191327 181.400662 
L 451.83798 181.685616 
L 454.484633 181.546503 
L 457.131287 181.765676 
L 462.424593 181.875296 
L 465.071247 181.75621 
L 467.7179 182.04828 
L 470.364553 181.962609 
L 473.011207 181.755092 
L 475.65786 181.370007 
L 478.304513 181.186827 
L 480.951167 181.238831 
L 483.59782 180.861524 
L 499.47774 180.571529 
L 502.124393 180.674831 
L 504.771047 180.497263 
L 510.064353 180.621207 
L 515.35766 180.374367 
L 520.650967 179.60374 
L 523.29762 179.452903 
L 525.944273 179.677459 
L 528.590927 179.479019 
L 531.23758 179.413033 
L 533.884233 179.693972 
L 539.17754 179.317394 
L 544.470847 179.620915 
L 547.1175 179.334433 
L 552.410807 179.810755 
L 555.05746 179.743217 
L 560.350767 179.106889 
L 568.290727 179.213202 
L 570.93738 179.426764 
L 586.8173 178.573636 
L 589.463953 178.760761 
L 592.110607 178.618159 
L 600.050567 178.679242 
L 602.69722 178.849147 
L 605.343873 178.727323 
L 607.990527 178.738888 
L 610.63718 178.353414 
L 613.283833 178.353802 
L 618.57714 178.767285 
L 626.5171 177.846003 
L 629.163753 178.053589 
L 634.45706 177.498872 
L 637.103713 177.675004 
L 642.39702 177.804719 
L 645.043673 178.053475 
L 655.630287 177.67603 
L 658.27694 177.671582 
L 660.923593 177.317562 
L 663.570247 177.233192 
L 666.2169 177.468673 
L 668.863553 177.238027 
L 671.510207 177.276529 
L 674.15686 177.182533 
L 679.450167 177.261543 
L 684.743473 176.861632 
L 687.390127 176.94972 
L 690.03678 176.895001 
L 692.683433 177.035528 
L 700.623393 177.004759 
L 703.270047 176.646337 
L 708.563353 176.633883 
L 711.210007 176.847809 
L 716.503313 176.771308 
L 719.149967 176.467513 
L 724.443273 176.455721 
L 727.089927 176.234678 
L 732.383233 176.466441 
L 737.67654 176.18443 
L 740.323193 176.346876 
L 745.6165 176.192368 
L 748.263153 176.312936 
L 750.909807 176.270603 
L 753.55646 175.998582 
L 758.849767 175.876188 
L 761.49642 175.999038 
L 766.789727 175.800986 
L 769.43638 175.526639 
L 772.083033 175.487042 
L 777.37634 175.223734 
L 782.669647 175.241708 
L 785.3163 175.006204 
L 795.902913 175.203799 
L 798.549567 174.851376 
L 801.19622 174.964235 
L 809.13618 174.9076 
L 811.782833 175.063523 
L 814.429487 174.617697 
L 819.722793 174.202138 
L 827.662753 174.594454 
L 830.309407 175.055107 
L 832.95606 174.949455 
L 840.89602 175.262646 
L 843.542673 175.624193 
L 843.542673 175.624193 
" clip-path="url(#p304e59aabf)" style="fill: none; stroke: #0000ff; stroke-width: 1.5; stroke-linecap: square"/>
   </g>
   <g id="patch_3">
    <path d="M 50.87 390.04 
L 50.87 43.44 
" style="fill: none; stroke: #000000; stroke-width: 0.8; stroke-linejoin: miter; stroke-linecap: square"/>
   </g>
   <g id="patch_4">
    <path d="M 844.866 390.04 
L 844.866 43.44 
" style="fill: none; stroke: #000000; stroke-width: 0.8; stroke-linejoin: miter; stroke-linecap: square"/>
   </g>
   <g id="patch_5">
    <path d="M 50.87 390.04 
L 844.866 390.04 
" style="fill: none; stroke: #000000; stroke-width: 0.8; stroke-linejoin: miter; stroke-linecap: square"/>
   </g>
   <g id="patch_6">
    <path d="M 50.87 43.44 
L 844.866 43.44 
" style="fill: none; stroke: #000000; stroke-width: 0.8; stroke-linejoin: miter; stroke-linecap: square"/>
   </g>
   <g id="text_15">
    <!-- Mean profit per step with confidence interval per simulation step -->
    <g transform="translate(220.284875 21.763062) scale(0.14 -0.14)">
     <defs>
      <path id="DejaVuSans-4d" d="M 628 4666 
L 1569 4666 
L 2759 1491 
L 3956 4666 
L 4897 4666 
L 4897 0 
L 4281 0 
L 4281 4097 
L 3078 897 
L 2444 897 
L 1241 4097 
L 1241 0 
L 628 0 
L 628 4666 
z
" transform="scale(0.015625)"/>
      <path id="DejaVuSans-61" d="M 2194 1759 
Q 1497 1759 1228 1600 
Q 959 1441 959 1056 
Q 959 750 1161 570 
Q 1363 391 1709 391 
Q 2188 391 2477 730 
Q 2766 1069 2766 1631 
L 2766 1759 
L 2194 1759 
z
M 3341 1997 
L 3341 0 
L 2766 0 
L 2766 531 
Q 2569 213 2275 61 
Q 1981 -91 1556 -91 
Q 1019 -91 701 211 
Q 384 513 384 1019 
Q 384 1609 779 1909 
Q 1175 2209 1959 2209 
L 2766 2209 
L 2766 2266 
Q 2766 2663 2505 2880 
Q 2244 3097 1772 3097 
Q 1472 3097 1187 3025 
Q 903 2953 641 2809 
L 641 3341 
Q 956 3463 1253 3523 
Q 1550 3584 1831 3584 
Q 2591 3584 2966 3190 
Q 3341 2797 3341 1997 
z
" transform="scale(0.015625)"/>
      <path id="DejaVuSans-6e" d="M 3513 2113 
L 3513 0 
L 2938 0 
L 2938 2094 
Q 2938 2591 2744 2837 
Q 2550 3084 2163 3084 
Q 1697 3084 1428 2787 
Q 1159 2491 1159 1978 
L 1159 0 
L 581 0 
L 581 3500 
L 1159 3500 
L 1159 2956 
Q 1366 3272 1645 3428 
Q 1925 3584 2291 3584 
Q 2894 3584 3203 3211 
Q 3513 2838 3513 2113 
z
" transform="scale(0.015625)"/>
      <path id="DejaVuSans-20" transform="scale(0.015625)"/>
      <path id="DejaVuSans-73" d="M 2834 3397 
L 2834 2853 
Q 2591 2978 2328 3040 
Q 2066 3103 1784 3103 
Q 1356 3103 1142 2972 
Q 928 2841 928 2578 
Q 928 2378 1081 2264 
Q 1234 2150 1697 2047 
L 1894 2003 
Q 2506 1872 2764 1633 
Q 3022 1394 3022 966 
Q 3022 478 2636 193 
Q 2250 -91 1575 -91 
Q 1294 -91 989 -36 
Q 684 19 347 128 
L 347 722 
Q 666 556 975 473 
Q 1284 391 1588 391 
Q 1994 391 2212 530 
Q 2431 669 2431 922 
Q 2431 1156 2273 1281 
Q 2116 1406 1581 1522 
L 1381 1569 
Q 847 1681 609 1914 
Q 372 2147 372 2553 
Q 372 3047 722 3315 
Q 1072 3584 1716 3584 
Q 2034 3584 2315 3537 
Q 2597 3491 2834 3397 
z
" transform="scale(0.015625)"/>
      <path id="DejaVuSans-77" d="M 269 3500 
L 844 3500 
L 1563 769 
L 2278 3500 
L 2956 3500 
L 3675 769 
L 4391 3500 
L 4966 3500 
L 4050 0 
L 3372 0 
L 2619 2869 
L 1863 0 
L 1184 0 
L 269 3500 
z
" transform="scale(0.015625)"/>
      <path id="DejaVuSans-68" d="M 3513 2113 
L 3513 0 
L 2938 0 
L 2938 2094 
Q 2938 2591 2744 2837 
Q 2550 3084 2163 3084 
Q 1697 3084 1428 2787 
Q 1159 2491 1159 1978 
L 1159 0 
L 581 0 
L 581 4863 
L 1159 4863 
L 1159 2956 
Q 1366 3272 1645 3428 
Q 1925 3584 2291 3584 
Q 2894 3584 3203 3211 
Q 3513 2838 3513 2113 
z
" transform="scale(0.015625)"/>
      <path id="DejaVuSans-63" d="M 3122 3366 
L 3122 2828 
Q 2878 2963 2633 3030 
Q 2388 3097 2138 3097 
Q 1578 3097 1268 2742 
Q 959 2388 959 1747 
Q 959 1106 1268 751 
Q 1578 397 2138 397 
Q 2388 397 2633 464 
Q 2878 531 3122 666 
L 3122 134 
Q 2881 22 2623 -34 
Q 2366 -91 2075 -91 
Q 1284 -91 818 406 
Q 353 903 353 1747 
Q 353 2603 823 3093 
Q 1294 3584 2113 3584 
Q 2378 3584 2631 3529 
Q 2884 3475 3122 3366 
z
" transform="scale(0.015625)"/>
      <path id="DejaVuSans-64" d="M 2906 2969 
L 2906 4863 
L 3481 4863 
L 3481 0 
L 2906 0 
L 2906 525 
Q 2725 213 2448 61 
Q 2172 -91 1784 -91 
Q 1150 -91 751 415 
Q 353 922 353 1747 
Q 353 2572 751 3078 
Q 1150 3584 1784 3584 
Q 2172 3584 2448 3432 
Q 2725 3281 2906 2969 
z
M 947 1747 
Q 947 1113 1208 752 
Q 1469 391 1925 391 
Q 2381 391 2643 752 
Q 2906 1113 2906 1747 
Q 2906 2381 2643 2742 
Q 2381 3103 1925 3103 
Q 1469 3103 1208 2742 
Q 947 2381 947 1747 
z
" transform="scale(0.015625)"/>
      <path id="DejaVuSans-76" d="M 191 3500 
L 800 3500 
L 1894 563 
L 2988 3500 
L 3597 3500 
L 2284 0 
L 1503 0 
L 191 3500 
z
" transform="scale(0.015625)"/>
      <path id="DejaVuSans-6c" d="M 603 4863 
L 1178 4863 
L 1178 0 
L 603 0 
L 603 4863 
z
" transform="scale(0.015625)"/>
      <path id="DejaVuSans-6d" d="M 3328 2828 
Q 3544 3216 3844 3400 
Q 4144 3584 4550 3584 
Q 5097 3584 5394 3201 
Q 5691 2819 5691 2113 
L 5691 0 
L 5113 0 
L 5113 2094 
Q 5113 2597 4934 2840 
Q 4756 3084 4391 3084 
Q 3944 3084 3684 2787 
Q 3425 2491 3425 1978 
L 3425 0 
L 2847 0 
L 2847 2094 
Q 2847 2600 2669 2842 
Q 2491 3084 2119 3084 
Q 1678 3084 1418 2786 
Q 1159 2488 1159 1978 
L 1159 0 
L 581 0 
L 581 3500 
L 1159 3500 
L 1159 2956 
Q 1356 3278 1631 3431 
Q 1906 3584 2284 3584 
Q 2666 3584 2933 3390 
Q 3200 3197 3328 2828 
z
" transform="scale(0.015625)"/>
      <path id="DejaVuSans-75" d="M 544 1381 
L 544 3500 
L 1119 3500 
L 1119 1403 
Q 1119 906 1312 657 
Q 1506 409 1894 409 
Q 2359 409 2629 706 
Q 2900 1003 2900 1516 
L 2900 3500 
L 3475 3500 
L 3475 0 
L 2900 0 
L 2900 538 
Q 2691 219 2414 64 
Q 2138 -91 1772 -91 
Q 1169 -91 856 284 
Q 544 659 544 1381 
z
M 1991 3584 
L 1991 3584 
z
" transform="scale(0.015625)"/>
     </defs>
     <use xlink:href="#DejaVuSans-4d"/>
     <use xlink:href="#DejaVuSans-65" transform="translate(86.279297 0)"/>
     <use xlink:href="#DejaVuSans-61" transform="translate(147.802734 0)"/>
     <use xlink:href="#DejaVuSans-6e" transform="translate(209.082031 0)"/>
     <use xlink:href="#DejaVuSans-20" transform="translate(272.460938 0)"/>
     <use xlink:href="#DejaVuSans-70" transform="translate(304.248047 0)"/>
     <use xlink:href="#DejaVuSans-72" transform="translate(367.724609 0)"/>
     <use xlink:href="#DejaVuSans-6f" transform="translate(406.587891 0)"/>
     <use xlink:href="#DejaVuSans-66" transform="translate(467.769531 0)"/>
     <use xlink:href="#DejaVuSans-69" transform="translate(502.974609 0)"/>
     <use xlink:href="#DejaVuSans-74" transform="translate(530.757812 0)"/>
     <use xlink:href="#DejaVuSans-20" transform="translate(569.966797 0)"/>
     <use xlink:href="#DejaVuSans-70" transform="translate(601.753906 0)"/>
     <use xlink:href="#DejaVuSans-65" transform="translate(665.230469 0)"/>
     <use xlink:href="#DejaVuSans-72" transform="translate(726.753906 0)"/>
     <use xlink:href="#DejaVuSans-20" transform="translate(767.867188 0)"/>
     <use xlink:href="#DejaVuSans-73" transform="translate(799.654297 0)"/>
     <use xlink:href="#DejaVuSans-74" transform="translate(851.753906 0)"/>
     <use xlink:href="#DejaVuSans-65" transform="translate(890.962891 0)"/>
     <use xlink:href="#DejaVuSans-70" transform="translate(952.486328 0)"/>
     <use xlink:href="#DejaVuSans-20" transform="translate(1015.962891 0)"/>
     <use xlink:href="#DejaVuSans-77" transform="translate(1047.75 0)"/>
     <use xlink:href="#DejaVuSans-69" transform="translate(1129.537109 0)"/>
     <use xlink:href="#DejaVuSans-74" transform="translate(1157.320312 0)"/>
     <use xlink:href="#DejaVuSans-68" transform="translate(1196.529297 0)"/>
     <use xlink:href="#DejaVuSans-20" transform="translate(1259.908203 0)"/>
     <use xlink:href="#DejaVuSans-63" transform="translate(1291.695312 0)"/>
     <use xlink:href="#DejaVuSans-6f" transform="translate(1346.675781 0)"/>
     <use xlink:href="#DejaVuSans-6e" transform="translate(1407.857422 0)"/>
     <use xlink:href="#DejaVuSans-66" transform="translate(1471.236328 0)"/>
     <use xlink:href="#DejaVuSans-69" transform="translate(1506.441406 0)"/>
     <use xlink:href="#DejaVuSans-64" transform="translate(1534.224609 0)"/>
     <use xlink:href="#DejaVuSans-65" transform="translate(1597.701172 0)"/>
     <use xlink:href="#DejaVuSans-6e" transform="translate(1659.224609 0)"/>
     <use xlink:href="#DejaVuSans-63" transform="translate(1722.603516 0)"/>
     <use xlink:href="#DejaVuSans-65" transform="translate(1777.583984 0)"/>
     <use xlink:href="#DejaVuSans-20" transform="translate(1839.107422 0)"/>
     <use xlink:href="#DejaVuSans-69" transform="translate(1870.894531 0)"/>
     <use xlink:href="#DejaVuSans-6e" transform="translate(1898.677734 0)"/>
     <use xlink:href="#DejaVuSans-74" transform="translate(1962.056641 0)"/>
     <use xlink:href="#DejaVuSans-65" transform="translate(2001.265625 0)"/>
     <use xlink:href="#DejaVuSans-72" transform="translate(2062.789062 0)"/>
     <use xlink:href="#DejaVuSans-76" transform="translate(2103.902344 0)"/>
     <use xlink:href="#DejaVuSans-61" transform="translate(2163.082031 0)"/>
     <use xlink:href="#DejaVuSans-6c" transform="translate(2224.361328 0)"/>
     <use xlink:href="#DejaVuSans-20" transform="translate(2252.144531 0)"/>
     <use xlink:href="#DejaVuSans-70" transform="translate(2283.931641 0)"/>
     <use xlink:href="#DejaVuSans-65" transform="translate(2347.408203 0)"/>
     <use xlink:href="#DejaVuSans-72" transform="translate(2408.931641 0)"/>
     <use xlink:href="#DejaVuSans-20" transform="translate(2450.044922 0)"/>
     <use xlink:href="#DejaVuSans-73" transform="translate(2481.832031 0)"/>
     <use xlink:href="#DejaVuSans-69" transform="translate(2533.931641 0)"/>
     <use xlink:href="#DejaVuSans-6d" transform="translate(2561.714844 0)"/>
     <use xlink:href="#DejaVuSans-75" transform="translate(2659.126953 0)"/>
     <use xlink:href="#DejaVuSans-6c" transform="translate(2722.505859 0)"/>
     <use xlink:href="#DejaVuSans-61" transform="translate(2750.289062 0)"/>
     <use xlink:href="#DejaVuSans-74" transform="translate(2811.568359 0)"/>
     <use xlink:href="#DejaVuSans-69" transform="translate(2850.777344 0)"/>
     <use xlink:href="#DejaVuSans-6f" transform="translate(2878.560547 0)"/>
     <use xlink:href="#DejaVuSans-6e" transform="translate(2939.742188 0)"/>
     <use xlink:href="#DejaVuSans-20" transform="translate(3003.121094 0)"/>
     <use xlink:href="#DejaVuSans-73" transform="translate(3034.908203 0)"/>
     <use xlink:href="#DejaVuSans-74" transform="translate(3087.007812 0)"/>
     <use xlink:href="#DejaVuSans-65" transform="translate(3126.216797 0)"/>
     <use xlink:href="#DejaVuSans-70" transform="translate(3187.740234 0)"/>
    </g>
    <!-- Base Product: OG Kush, Recipe size: 10, T0: 50.0 -->
    <g transform="translate(277.036281 37.44) scale(0.14 -0.14)">
     <defs>
      <path id="DejaVuSans-42" d="M 1259 2228 
L 1259 519 
L 2272 519 
Q 2781 519 3026 730 
Q 3272 941 3272 1375 
Q 3272 1813 3026 2020 
Q 2781 2228 2272 2228 
L 1259 2228 
z
M 1259 4147 
L 1259 2741 
L 2194 2741 
Q 2656 2741 2882 2914 
Q 3109 3088 3109 3444 
Q 3109 3797 2882 3972 
Q 2656 4147 2194 4147 
L 1259 4147 
z
M 628 4666 
L 2241 4666 
Q 2963 4666 3353 4366 
Q 3744 4066 3744 3513 
Q 3744 3084 3544 2831 
Q 3344 2578 2956 2516 
Q 3422 2416 3680 2098 
Q 3938 1781 3938 1306 
Q 3938 681 3513 340 
Q 3088 0 2303 0 
L 628 0 
L 628 4666 
z
" transform="scale(0.015625)"/>
      <path id="DejaVuSans-3a" d="M 750 794 
L 1409 794 
L 1409 0 
L 750 0 
L 750 794 
z
M 750 3309 
L 1409 3309 
L 1409 2516 
L 750 2516 
L 750 3309 
z
" transform="scale(0.015625)"/>
      <path id="DejaVuSans-4f" d="M 2522 4238 
Q 1834 4238 1429 3725 
Q 1025 3213 1025 2328 
Q 1025 1447 1429 934 
Q 1834 422 2522 422 
Q 3209 422 3611 934 
Q 4013 1447 4013 2328 
Q 4013 3213 3611 3725 
Q 3209 4238 2522 4238 
z
M 2522 4750 
Q 3503 4750 4090 4092 
Q 4678 3434 4678 2328 
Q 4678 1225 4090 567 
Q 3503 -91 2522 -91 
Q 1538 -91 948 565 
Q 359 1222 359 2328 
Q 359 3434 948 4092 
Q 1538 4750 2522 4750 
z
" transform="scale(0.015625)"/>
      <path id="DejaVuSans-47" d="M 3809 666 
L 3809 1919 
L 2778 1919 
L 2778 2438 
L 4434 2438 
L 4434 434 
Q 4069 175 3628 42 
Q 3188 -91 2688 -91 
Q 1594 -91 976 548 
Q 359 1188 359 2328 
Q 359 3472 976 4111 
Q 1594 4750 2688 4750 
Q 3144 4750 3555 4637 
Q 3966 4525 4313 4306 
L 4313 3634 
Q 3963 3931 3569 4081 
Q 3175 4231 2741 4231 
Q 1884 4231 1454 3753 
Q 1025 3275 1025 2328 
Q 1025 1384 1454 906 
Q 1884 428 2741 428 
Q 3075 428 3337 486 
Q 3600 544 3809 666 
z
" transform="scale(0.015625)"/>
      <path id="DejaVuSans-4b" d="M 628 4666 
L 1259 4666 
L 1259 2694 
L 3353 4666 
L 4166 4666 
L 1850 2491 
L 4331 0 
L 3500 0 
L 1259 2247 
L 1259 0 
L 628 0 
L 628 4666 
z
" transform="scale(0.015625)"/>
      <path id="DejaVuSans-2c" d="M 750 794 
L 1409 794 
L 1409 256 
L 897 -744 
L 494 -744 
L 750 256 
L 750 794 
z
" transform="scale(0.015625)"/>
      <path id="DejaVuSans-52" d="M 2841 2188 
Q 3044 2119 3236 1894 
Q 3428 1669 3622 1275 
L 4263 0 
L 3584 0 
L 2988 1197 
Q 2756 1666 2539 1819 
Q 2322 1972 1947 1972 
L 1259 1972 
L 1259 0 
L 628 0 
L 628 4666 
L 2053 4666 
Q 2853 4666 3247 4331 
Q 3641 3997 3641 3322 
Q 3641 2881 3436 2590 
Q 3231 2300 2841 2188 
z
M 1259 4147 
L 1259 2491 
L 2053 2491 
Q 2509 2491 2742 2702 
Q 2975 2913 2975 3322 
Q 2975 3731 2742 3939 
Q 2509 4147 2053 4147 
L 1259 4147 
z
" transform="scale(0.015625)"/>
      <path id="DejaVuSans-7a" d="M 353 3500 
L 3084 3500 
L 3084 2975 
L 922 459 
L 3084 459 
L 3084 0 
L 275 0 
L 275 525 
L 2438 3041 
L 353 3041 
L 353 3500 
z
" transform="scale(0.015625)"/>
      <path id="DejaVuSans-54" d="M -19 4666 
L 3928 4666 
L 3928 4134 
L 2272 4134 
L 2272 0 
L 1638 0 
L 1638 4134 
L -19 4134 
L -19 4666 
z
" transform="scale(0.015625)"/>
      <path id="DejaVuSans-2e" d="M 684 794 
L 1344 794 
L 1344 0 
L 684 0 
L 684 794 
z
" transform="scale(0.015625)"/>
     </defs>
     <use xlink:href="#DejaVuSans-42"/>
     <use xlink:href="#DejaVuSans-61" transform="translate(68.603516 0)"/>
     <use xlink:href="#DejaVuSans-73" transform="translate(129.882812 0)"/>
     <use xlink:href="#DejaVuSans-65" transform="translate(181.982422 0)"/>
     <use xlink:href="#DejaVuSans-20" transform="translate(243.505859 0)"/>
     <use xlink:href="#DejaVuSans-50" transform="translate(275.292969 0)"/>
     <use xlink:href="#DejaVuSans-72" transform="translate(333.845703 0)"/>
     <use xlink:href="#DejaVuSans-6f" transform="translate(372.708984 0)"/>
     <use xlink:href="#DejaVuSans-64" transform="translate(433.890625 0)"/>
     <use xlink:href="#DejaVuSans-75" transform="translate(497.367188 0)"/>
     <use xlink:href="#DejaVuSans-63" transform="translate(560.746094 0)"/>
     <use xlink:href="#DejaVuSans-74" transform="translate(615.726562 0)"/>
     <use xlink:href="#DejaVuSans-3a" transform="translate(654.935547 0)"/>
     <use xlink:href="#DejaVuSans-20" transform="translate(688.626953 0)"/>
     <use xlink:href="#DejaVuSans-4f" transform="translate(720.414062 0)"/>
     <use xlink:href="#DejaVuSans-47" transform="translate(799.125 0)"/>
     <use xlink:href="#DejaVuSans-20" transform="translate(876.615234 0)"/>
     <use xlink:href="#DejaVuSans-4b" transform="translate(908.402344 0)"/>
     <use xlink:href="#DejaVuSans-75" transform="translate(968.978516 0)"/>
     <use xlink:href="#DejaVuSans-73" transform="translate(1032.357422 0)"/>
     <use xlink:href="#DejaVuSans-68" transform="translate(1084.457031 0)"/>
     <use xlink:href="#DejaVuSans-2c" transform="translate(1147.835938 0)"/>
     <use xlink:href="#DejaVuSans-20" transform="translate(1179.623047 0)"/>
     <use xlink:href="#DejaVuSans-52" transform="translate(1211.410156 0)"/>
     <use xlink:href="#DejaVuSans-65" transform="translate(1276.392578 0)"/>
     <use xlink:href="#DejaVuSans-63" transform="translate(1337.916016 0)"/>
     <use xlink:href="#DejaVuSans-69" transform="translate(1392.896484 0)"/>
     <use xlink:href="#DejaVuSans-70" transform="translate(1420.679688 0)"/>
     <use xlink:href="#DejaVuSans-65" transform="translate(1484.15625 0)"/>
     <use xlink:href="#DejaVuSans-20" transform="translate(1545.679688 0)"/>
     <use xlink:href="#DejaVuSans-73" transform="translate(1577.466797 0)"/>
     <use xlink:href="#DejaVuSans-69" transform="translate(1629.566406 0)"/>
     <use xlink:href="#DejaVuSans-7a" transform="translate(1657.349609 0)"/>
     <use xlink:href="#DejaVuSans-65" transform="translate(1709.839844 0)"/>
     <use xlink:href="#DejaVuSans-3a" transform="translate(1771.363281 0)"/>
     <use xlink:href="#DejaVuSans-20" transform="translate(1805.054688 0)"/>
     <use xlink:href="#DejaVuSans-31" transform="translate(1836.841797 0)"/>
     <use xlink:href="#DejaVuSans-30" transform="translate(1900.464844 0)"/>
     <use xlink:href="#DejaVuSans-2c" transform="translate(1964.087891 0)"/>
     <use xlink:href="#DejaVuSans-20" transform="translate(1995.875 0)"/>
     <use xlink:href="#DejaVuSans-54" transform="translate(2027.662109 0)"/>
     <use xlink:href="#DejaVuSans-30" transform="translate(2088.746094 0)"/>
     <use xlink:href="#DejaVuSans-3a" transform="translate(2152.369141 0)"/>
     <use xlink:href="#DejaVuSans-20" transform="translate(2186.060547 0)"/>
     <use xlink:href="#DejaVuSans-35" transform="translate(2217.847656 0)"/>
     <use xlink:href="#DejaVuSans-30" transform="translate(2281.470703 0)"/>
     <use xlink:href="#DejaVuSans-2e" transform="translate(2345.09375 0)"/>
     <use xlink:href="#DejaVuSans-30" transform="translate(2376.880859 0)"/>
    </g>
   </g>
  </g>
 </g>
 <defs>
  <clipPath id="p304e59aabf">
   <rect x="50.87" y="43.44" width="793.996" height="346.6"/>
  </clipPath>
 </defs>
</svg>
