<?xml version="1.0" encoding="utf-8" standalone="no"?>
<!DOCTYPE svg PUBLIC "-//W3C//DTD SVG 1.1//EN"
  "http://www.w3.org/Graphics/SVG/1.1/DTD/svg11.dtd">
<svg xmlns:xlink="http://www.w3.org/1999/xlink" width="864pt" height="432pt" viewBox="0 0 864 432" xmlns="http://www.w3.org/2000/svg" version="1.1">
 <metadata>
  <rdf:RDF xmlns:dc="http://purl.org/dc/elements/1.1/" xmlns:cc="http://creativecommons.org/ns#" xmlns:rdf="http://www.w3.org/1999/02/22-rdf-syntax-ns#">
   <cc:Work>
    <dc:type rdf:resource="http://purl.org/dc/dcmitype/StillImage"/>
    <dc:date>2025-05-24T02:03:00.860728</dc:date>
    <dc:format>image/svg+xml</dc:format>
    <dc:creator>
     <cc:Agent>
      <dc:title>Matplotlib v3.10.3, https://matplotlib.org/</dc:title>
     </cc:Agent>
    </dc:creator>
   </cc:Work>
  </rdf:RDF>
 </metadata>
 <defs>
  <style type="text/css">*{stroke-linejoin: round; stroke-linecap: butt}</style>
 </defs>
 <g id="figure_1">
  <g id="patch_1">
   <path d="M 0 432 
L 864 432 
L 864 0 
L 0 0 
z
" style="fill: #ffffff"/>
  </g>
  <g id="axes_1">
   <g id="patch_2">
    <path d="M 50.87 390.04 
L 844.866 390.04 
L 844.866 43.44 
L 50.87 43.44 
z
" style="fill: #ffffff"/>
   </g>
   <g id="FillBetweenPolyCollection_1">
    <defs>
     <path id="m7e257d4289" d="M 52.193327 -301.643356 
L 52.193327 -57.714545 
L 54.83998 -58.062487 
L 57.486633 -68.406532 
L 60.133287 -80.747499 
L 62.77994 -90.834435 
L 65.426593 -100.593792 
L 68.073247 -107.830311 
L 70.7199 -115.218617 
L 73.366553 -121.878496 
L 76.013207 -127.492063 
L 78.65986 -132.083563 
L 81.306513 -136.227717 
L 83.953167 -140.670944 
L 86.59982 -144.545085 
L 89.246473 -147.703252 
L 91.893127 -151.416174 
L 94.53978 -155.174166 
L 97.186433 -158.038809 
L 99.833087 -160.464697 
L 102.47974 -163.17215 
L 105.126393 -165.126132 
L 107.773047 -167.399646 
L 110.4197 -169.382731 
L 113.066353 -171.884922 
L 115.713007 -173.486399 
L 118.35966 -175.840139 
L 121.006313 -177.619337 
L 123.652967 -179.387572 
L 126.29962 -181.039732 
L 128.946273 -182.672127 
L 131.592927 -184.260353 
L 134.23958 -185.811293 
L 136.886233 -187.287746 
L 139.532887 -188.652236 
L 142.17954 -189.707445 
L 144.826193 -190.976339 
L 147.472847 -192.567734 
L 150.1195 -193.860779 
L 152.766153 -194.293059 
L 155.412807 -195.255777 
L 158.05946 -196.511956 
L 160.706113 -197.579271 
L 163.352767 -198.645097 
L 165.99942 -199.170876 
L 168.646073 -200.081054 
L 171.292727 -200.75522 
L 173.93938 -201.536482 
L 176.586033 -202.812342 
L 179.232687 -203.501029 
L 181.87934 -204.413787 
L 184.525993 -204.983441 
L 187.172647 -205.937514 
L 189.8193 -206.361527 
L 192.465953 -206.832647 
L 195.112607 -207.339982 
L 197.75926 -207.988676 
L 200.405913 -208.583592 
L 203.052567 -209.345025 
L 205.69922 -209.824496 
L 208.345873 -210.457243 
L 210.992527 -210.625963 
L 213.63918 -211.080506 
L 216.285833 -211.547681 
L 218.932487 -211.753456 
L 221.57914 -212.003882 
L 224.225793 -212.559981 
L 226.872447 -213.244093 
L 229.5191 -213.726669 
L 232.165753 -214.121832 
L 234.812407 -214.531892 
L 237.45906 -215.043928 
L 240.105713 -215.538464 
L 242.752367 -216.000183 
L 245.39902 -216.363033 
L 248.045673 -216.612095 
L 250.692327 -217.124948 
L 253.33898 -217.453786 
L 255.985633 -217.840472 
L 258.632287 -218.490236 
L 261.27894 -218.863283 
L 263.925593 -219.322674 
L 266.572247 -219.69249 
L 269.2189 -219.9349 
L 271.865553 -220.464435 
L 274.512207 -220.978086 
L 277.15886 -221.437644 
L 279.805513 -221.882158 
L 282.452167 -221.9924 
L 285.09882 -222.349521 
L 287.745473 -222.61602 
L 290.392127 -223.196332 
L 293.03878 -223.475336 
L 295.685433 -223.755767 
L 298.332087 -223.85344 
L 300.97874 -224.146607 
L 303.625393 -224.589799 
L 306.272047 -224.733466 
L 308.9187 -224.947382 
L 311.565353 -225.26919 
L 314.212007 -225.438372 
L 316.85866 -225.4364 
L 319.505313 -225.577549 
L 322.151967 -225.650799 
L 324.79862 -225.996485 
L 327.445273 -226.214514 
L 330.091927 -226.743818 
L 332.73858 -227.07895 
L 335.385233 -227.225659 
L 338.031887 -227.386867 
L 340.67854 -227.563225 
L 343.325193 -227.607498 
L 345.971847 -227.798082 
L 348.6185 -228.108853 
L 351.265153 -228.308019 
L 353.911807 -228.39709 
L 356.55846 -228.562935 
L 359.205113 -228.977821 
L 361.851767 -229.08756 
L 364.49842 -229.387567 
L 367.145073 -229.688917 
L 369.791727 -229.797418 
L 372.43838 -230.13532 
L 375.085033 -230.435264 
L 377.731687 -230.558977 
L 380.37834 -230.704343 
L 383.024993 -231.22368 
L 385.671647 -231.74904 
L 388.3183 -231.985491 
L 390.964953 -232.121206 
L 393.611607 -232.380087 
L 396.25826 -232.379458 
L 398.904913 -232.600445 
L 401.551567 -232.632402 
L 404.19822 -232.885198 
L 406.844873 -233.087323 
L 409.491527 -233.208832 
L 412.13818 -233.754985 
L 414.784833 -233.870556 
L 417.431487 -234.036884 
L 420.07814 -234.362595 
L 422.724793 -234.499338 
L 425.371447 -234.973941 
L 428.0181 -235.382344 
L 430.664753 -235.752307 
L 433.311407 -235.738248 
L 435.95806 -235.843832 
L 438.604713 -236.014021 
L 441.251367 -236.3903 
L 443.89802 -236.550102 
L 446.544673 -236.867777 
L 449.191327 -236.920065 
L 451.83798 -237.279138 
L 454.484633 -237.592343 
L 457.131287 -237.846651 
L 459.77794 -237.833096 
L 462.424593 -238.070366 
L 465.071247 -238.272847 
L 467.7179 -238.582947 
L 470.364553 -238.674661 
L 473.011207 -238.746149 
L 475.65786 -238.888263 
L 478.304513 -239.000058 
L 480.951167 -239.152978 
L 483.59782 -239.110761 
L 486.244473 -239.310745 
L 488.891127 -239.601038 
L 491.53778 -239.769506 
L 494.184433 -239.942276 
L 496.831087 -240.043075 
L 499.47774 -240.295138 
L 502.124393 -240.367821 
L 504.771047 -240.352923 
L 507.4177 -240.502025 
L 510.064353 -240.746723 
L 512.711007 -241.040939 
L 515.35766 -241.155251 
L 518.004313 -241.157266 
L 520.650967 -241.175667 
L 523.29762 -241.424414 
L 525.944273 -241.429765 
L 528.590927 -241.63277 
L 531.23758 -241.809191 
L 533.884233 -241.953194 
L 536.530887 -242.311889 
L 539.17754 -242.300517 
L 541.824193 -242.320576 
L 544.470847 -242.442694 
L 547.1175 -242.647525 
L 549.764153 -242.595299 
L 552.410807 -242.800424 
L 555.05746 -242.996211 
L 557.704113 -243.096445 
L 560.350767 -243.286441 
L 562.99742 -243.477382 
L 565.644073 -243.650277 
L 568.290727 -243.892709 
L 570.93738 -244.18105 
L 573.584033 -244.257992 
L 576.230687 -244.575206 
L 578.87734 -244.592306 
L 581.523993 -244.860945 
L 584.170647 -244.988791 
L 586.8173 -245.149936 
L 589.463953 -245.483306 
L 592.110607 -245.404517 
L 594.75726 -245.58761 
L 597.403913 -245.721961 
L 600.050567 -245.823747 
L 602.69722 -245.919196 
L 605.343873 -246.093602 
L 607.990527 -246.254831 
L 610.63718 -246.341447 
L 613.283833 -246.549467 
L 615.930487 -246.504271 
L 618.57714 -246.59821 
L 621.223793 -246.81242 
L 623.870447 -246.992323 
L 626.5171 -247.17122 
L 629.163753 -247.345165 
L 631.810407 -247.328966 
L 634.45706 -247.584785 
L 637.103713 -247.683864 
L 639.750367 -247.774172 
L 642.39702 -247.711938 
L 645.043673 -247.863579 
L 647.690327 -248.001035 
L 650.33698 -248.288537 
L 652.983633 -248.473749 
L 655.630287 -248.765951 
L 658.27694 -248.834291 
L 660.923593 -248.943945 
L 663.570247 -249.107441 
L 666.2169 -249.11554 
L 668.863553 -249.177291 
L 671.510207 -249.389529 
L 674.15686 -249.588925 
L 676.803513 -249.774767 
L 679.450167 -249.888576 
L 682.09682 -250.133064 
L 684.743473 -250.129413 
L 687.390127 -250.131889 
L 690.03678 -250.371551 
L 692.683433 -250.365655 
L 695.330087 -250.534333 
L 697.97674 -250.674768 
L 700.623393 -250.763944 
L 703.270047 -250.904757 
L 705.9167 -250.95266 
L 708.563353 -251.193854 
L 711.210007 -251.332443 
L 713.85666 -251.393943 
L 716.503313 -251.567929 
L 719.149967 -251.551227 
L 721.79662 -251.575084 
L 724.443273 -251.673933 
L 727.089927 -251.806059 
L 729.73658 -251.839107 
L 732.383233 -251.888625 
L 735.029887 -252.12898 
L 737.67654 -252.565205 
L 740.323193 -252.435324 
L 742.969847 -252.588349 
L 745.6165 -252.532032 
L 748.263153 -252.503664 
L 750.909807 -252.544915 
L 753.55646 -252.556707 
L 756.203113 -252.920418 
L 758.849767 -252.914333 
L 761.49642 -253.041864 
L 764.143073 -253.159849 
L 766.789727 -253.251794 
L 769.43638 -253.266754 
L 772.083033 -253.297682 
L 774.729687 -253.425508 
L 777.37634 -253.438748 
L 780.022993 -253.623016 
L 782.669647 -253.592402 
L 785.3163 -253.714646 
L 787.962953 -253.845661 
L 790.609607 -254.056975 
L 793.25626 -254.150998 
L 795.902913 -254.18201 
L 798.549567 -254.364662 
L 801.19622 -254.479961 
L 803.842873 -254.499642 
L 806.489527 -254.617942 
L 809.13618 -254.534096 
L 811.782833 -254.765658 
L 814.429487 -254.90259 
L 817.07614 -254.8618 
L 819.722793 -255.028296 
L 822.369447 -255.138223 
L 825.0161 -255.372891 
L 827.662753 -255.539827 
L 830.309407 -255.564964 
L 832.95606 -255.577848 
L 835.602713 -255.634039 
L 838.249367 -255.665533 
L 840.89602 -255.594466 
L 843.542673 -255.680956 
L 843.542673 -372.805455 
L 843.542673 -372.805455 
L 840.89602 -372.757321 
L 838.249367 -372.582033 
L 835.602713 -372.477624 
L 832.95606 -372.417279 
L 830.309407 -372.318535 
L 827.662753 -372.241152 
L 825.0161 -372.261001 
L 822.369447 -372.352317 
L 819.722793 -372.308632 
L 817.07614 -372.303554 
L 814.429487 -372.267422 
L 811.782833 -372.287313 
L 809.13618 -372.419461 
L 806.489527 -372.253238 
L 803.842873 -372.229779 
L 801.19622 -372.182905 
L 798.549567 -372.178037 
L 795.902913 -372.194445 
L 793.25626 -372.123818 
L 790.609607 -372.135736 
L 787.962953 -372.198809 
L 785.3163 -372.125203 
L 782.669647 -372.145933 
L 780.022993 -371.991041 
L 777.37634 -371.988103 
L 774.729687 -371.931199 
L 772.083033 -371.909209 
L 769.43638 -371.826035 
L 766.789727 -371.765605 
L 764.143073 -371.726578 
L 761.49642 -371.673702 
L 758.849767 -371.649236 
L 756.203113 -371.631989 
L 753.55646 -371.728382 
L 750.909807 -371.69523 
L 748.263153 -371.622882 
L 745.6165 -371.481125 
L 742.969847 -371.278308 
L 740.323193 -371.32426 
L 737.67654 -371.076583 
L 735.029887 -371.306886 
L 732.383233 -371.320315 
L 729.73658 -371.239407 
L 727.089927 -371.137096 
L 724.443273 -371.066091 
L 721.79662 -371.017622 
L 719.149967 -370.86915 
L 716.503313 -370.788367 
L 713.85666 -370.853245 
L 711.210007 -370.811868 
L 708.563353 -370.864953 
L 705.9167 -370.938308 
L 703.270047 -370.942882 
L 700.623393 -370.904149 
L 697.97674 -370.870745 
L 695.330087 -370.810735 
L 692.683433 -370.805951 
L 690.03678 -370.717321 
L 687.390127 -370.742248 
L 684.743473 -370.590713 
L 682.09682 -370.457474 
L 679.450167 -370.479002 
L 676.803513 -370.429987 
L 674.15686 -370.407703 
L 671.510207 -370.374299 
L 668.863553 -370.393016 
L 666.2169 -370.297126 
L 663.570247 -370.127084 
L 660.923593 -370.058345 
L 658.27694 -369.979451 
L 655.630287 -369.905971 
L 652.983633 -369.979325 
L 650.33698 -369.998419 
L 647.690327 -370.023347 
L 645.043673 -369.973282 
L 642.39702 -369.933961 
L 639.750367 -369.762241 
L 637.103713 -369.661986 
L 634.45706 -369.659846 
L 631.810407 -369.715995 
L 629.163753 -369.598913 
L 626.5171 -369.555395 
L 623.870447 -369.497442 
L 621.223793 -369.481327 
L 618.57714 -369.486951 
L 615.930487 -369.33466 
L 613.283833 -369.191349 
L 610.63718 -369.227523 
L 607.990527 -369.174857 
L 605.343873 -369.107797 
L 602.69722 -369.098145 
L 600.050567 -369.006578 
L 597.403913 -368.93423 
L 594.75726 -368.87422 
L 592.110607 -368.794823 
L 589.463953 -368.552433 
L 586.8173 -368.641189 
L 584.170647 -368.62348 
L 581.523993 -368.541942 
L 578.87734 -368.532374 
L 576.230687 -368.380629 
L 573.584033 -368.553818 
L 570.93738 -368.467118 
L 568.290727 -368.466447 
L 565.644073 -368.475302 
L 562.99742 -368.435813 
L 560.350767 -368.400058 
L 557.704113 -368.457634 
L 555.05746 -368.316003 
L 552.410807 -368.330019 
L 549.764153 -368.237067 
L 547.1175 -368.098624 
L 544.470847 -368.053512 
L 541.824193 -367.900088 
L 539.17754 -367.757785 
L 536.530887 -367.615943 
L 533.884233 -367.655726 
L 531.23758 -367.615608 
L 528.590927 -367.590009 
L 525.944273 -367.590135 
L 523.29762 -367.448294 
L 520.650967 -367.450686 
L 518.004313 -367.207457 
L 515.35766 -366.955163 
L 512.711007 -366.800984 
L 510.064353 -366.774085 
L 507.4177 -366.788479 
L 504.771047 -366.687511 
L 502.124393 -366.501942 
L 499.47774 -366.386958 
L 496.831087 -366.427412 
L 494.184433 -366.243354 
L 491.53778 -366.146415 
L 488.891127 -366.068948 
L 486.244473 -366.1209 
L 483.59782 -365.990138 
L 480.951167 -365.734193 
L 478.304513 -365.665077 
L 475.65786 -365.496966 
L 473.011207 -365.279881 
L 470.364553 -365.167625 
L 467.7179 -365.046766 
L 465.071247 -365.018355 
L 462.424593 -365.009836 
L 459.77794 -364.956247 
L 457.131287 -364.767027 
L 454.484633 -364.77072 
L 451.83798 -364.775504 
L 449.191327 -364.822547 
L 446.544673 -364.683895 
L 443.89802 -364.710836 
L 441.251367 -364.640167 
L 438.604713 -364.707605 
L 435.95806 -364.634376 
L 433.311407 -364.422999 
L 430.664753 -364.081404 
L 428.0181 -364.07704 
L 425.371447 -364.148296 
L 422.724793 -364.10952 
L 420.07814 -363.948879 
L 417.431487 -363.882154 
L 414.784833 -363.611019 
L 412.13818 -363.53821 
L 409.491527 -363.714421 
L 406.844873 -363.627008 
L 404.19822 -363.545428 
L 401.551567 -363.441187 
L 398.904913 -363.202952 
L 396.25826 -363.060481 
L 393.611607 -362.739617 
L 390.964953 -362.629501 
L 388.3183 -362.528743 
L 385.671647 -362.467558 
L 383.024993 -362.660723 
L 380.37834 -362.643811 
L 377.731687 -362.528533 
L 375.085033 -362.311281 
L 372.43838 -362.207921 
L 369.791727 -362.267889 
L 367.145073 -362.110856 
L 364.49842 -362.053154 
L 361.851767 -361.9986 
L 359.205113 -361.812066 
L 356.55846 -361.804974 
L 353.911807 -361.666909 
L 351.265153 -361.39443 
L 348.6185 -361.245707 
L 345.971847 -361.17231 
L 343.325193 -360.987874 
L 340.67854 -360.601503 
L 338.031887 -360.37934 
L 335.385233 -360.228267 
L 332.73858 -359.98743 
L 330.091927 -359.896785 
L 327.445273 -359.983149 
L 324.79862 -359.781843 
L 322.151967 -359.648185 
L 319.505313 -359.32686 
L 316.85866 -358.970577 
L 314.212007 -358.597425 
L 311.565353 -358.456884 
L 308.9187 -358.274001 
L 306.272047 -358.00723 
L 303.625393 -357.835509 
L 300.97874 -357.770128 
L 298.332087 -357.473016 
L 295.685433 -357.127875 
L 293.03878 -356.934606 
L 290.392127 -356.72027 
L 287.745473 -356.723564 
L 285.09882 -356.417871 
L 282.452167 -356.303138 
L 279.805513 -355.930993 
L 277.15886 -355.847126 
L 274.512207 -355.82157 
L 271.865553 -355.702095 
L 269.2189 -355.576305 
L 266.572247 -355.388365 
L 263.925593 -355.126357 
L 261.27894 -354.89148 
L 258.632287 -354.778405 
L 255.985633 -354.678046 
L 253.33898 -354.55683 
L 250.692327 -354.21192 
L 248.045673 -354.002725 
L 245.39902 -353.673888 
L 242.752367 -353.42984 
L 240.105713 -353.208748 
L 237.45906 -353.070453 
L 234.812407 -352.990069 
L 232.165753 -352.840695 
L 229.5191 -352.512214 
L 226.872447 -352.447231 
L 224.225793 -352.381682 
L 221.57914 -352.146112 
L 218.932487 -351.609737 
L 216.285833 -351.033076 
L 213.63918 -350.540974 
L 210.992527 -350.174599 
L 208.345873 -349.610065 
L 205.69922 -349.348875 
L 203.052567 -348.917749 
L 200.405913 -348.826454 
L 197.75926 -348.457183 
L 195.112607 -348.205016 
L 192.465953 -347.698814 
L 189.8193 -347.245362 
L 187.172647 -346.799736 
L 184.525993 -346.620503 
L 181.87934 -346.093025 
L 179.232687 -345.961822 
L 176.586033 -345.66878 
L 173.93938 -345.848894 
L 171.292727 -345.583214 
L 168.646073 -345.137043 
L 165.99942 -344.915258 
L 163.352767 -344.363461 
L 160.706113 -344.028748 
L 158.05946 -343.615079 
L 155.412807 -343.412682 
L 152.766153 -342.926812 
L 150.1195 -342.095612 
L 147.472847 -341.653952 
L 144.826193 -341.537625 
L 142.17954 -341.021792 
L 139.532887 -340.514352 
L 136.886233 -340.025754 
L 134.23958 -339.437909 
L 131.592927 -338.994466 
L 128.946273 -338.352633 
L 126.29962 -337.861475 
L 123.652967 -337.326716 
L 121.006313 -336.808868 
L 118.35966 -336.58274 
L 115.713007 -336.429652 
L 113.066353 -335.670087 
L 110.4197 -335.271629 
L 107.773047 -334.365313 
L 105.126393 -333.691398 
L 102.47974 -332.716909 
L 99.833087 -331.952307 
L 97.186433 -331.136362 
L 94.53978 -330.089672 
L 91.893127 -329.712051 
L 89.246473 -328.861232 
L 86.59982 -327.598948 
L 83.953167 -326.6279 
L 81.306513 -325.554499 
L 78.65986 -324.333173 
L 76.013207 -322.554237 
L 73.366553 -320.809124 
L 70.7199 -319.117601 
L 68.073247 -317.436695 
L 65.426593 -314.772593 
L 62.77994 -313.068229 
L 60.133287 -310.012488 
L 57.486633 -306.992942 
L 54.83998 -301.719061 
L 52.193327 -301.643356 
z
" style="stroke: #0000ff; stroke-opacity: 0.2"/>
    </defs>
    <g clip-path="url(#p905a2311f9)">
     <use xlink:href="#m7e257d4289" x="0" y="432" style="fill: #0000ff; fill-opacity: 0.2; stroke: #0000ff; stroke-opacity: 0.2"/>
    </g>
   </g>
   <g id="matplotlib.axis_1">
    <g id="xtick_1">
     <g id="line2d_1">
      <defs>
       <path id="mb4ef964fc7" d="M 0 0 
L 0 3.5 
" style="stroke: #000000; stroke-width: 0.8"/>
      </defs>
      <g>
       <use xlink:href="#mb4ef964fc7" x="181.87934" y="390.04" style="stroke: #000000; stroke-width: 0.8"/>
      </g>
     </g>
     <g id="text_1">
      <!-- 50 -->
      <g transform="translate(175.51684 404.638438) scale(0.1 -0.1)">
       <defs>
        <path id="DejaVuSans-35" d="M 691 4666 
L 3169 4666 
L 3169 4134 
L 1269 4134 
L 1269 2991 
Q 1406 3038 1543 3061 
Q 1681 3084 1819 3084 
Q 2600 3084 3056 2656 
Q 3513 2228 3513 1497 
Q 3513 744 3044 326 
Q 2575 -91 1722 -91 
Q 1428 -91 1123 -41 
Q 819 9 494 109 
L 494 744 
Q 775 591 1075 516 
Q 1375 441 1709 441 
Q 2250 441 2565 725 
Q 2881 1009 2881 1497 
Q 2881 1984 2565 2268 
Q 2250 2553 1709 2553 
Q 1456 2553 1204 2497 
Q 953 2441 691 2322 
L 691 4666 
z
" transform="scale(0.015625)"/>
        <path id="DejaVuSans-30" d="M 2034 4250 
Q 1547 4250 1301 3770 
Q 1056 3291 1056 2328 
Q 1056 1369 1301 889 
Q 1547 409 2034 409 
Q 2525 409 2770 889 
Q 3016 1369 3016 2328 
Q 3016 3291 2770 3770 
Q 2525 4250 2034 4250 
z
M 2034 4750 
Q 2819 4750 3233 4129 
Q 3647 3509 3647 2328 
Q 3647 1150 3233 529 
Q 2819 -91 2034 -91 
Q 1250 -91 836 529 
Q 422 1150 422 2328 
Q 422 3509 836 4129 
Q 1250 4750 2034 4750 
z
" transform="scale(0.015625)"/>
       </defs>
       <use xlink:href="#DejaVuSans-35"/>
       <use xlink:href="#DejaVuSans-30" transform="translate(63.623047 0)"/>
      </g>
     </g>
    </g>
    <g id="xtick_2">
     <g id="line2d_2">
      <g>
       <use xlink:href="#mb4ef964fc7" x="314.212007" y="390.04" style="stroke: #000000; stroke-width: 0.8"/>
      </g>
     </g>
     <g id="text_2">
      <!-- 100 -->
      <g transform="translate(304.668257 404.638438) scale(0.1 -0.1)">
       <defs>
        <path id="DejaVuSans-31" d="M 794 531 
L 1825 531 
L 1825 4091 
L 703 3866 
L 703 4441 
L 1819 4666 
L 2450 4666 
L 2450 531 
L 3481 531 
L 3481 0 
L 794 0 
L 794 531 
z
" transform="scale(0.015625)"/>
       </defs>
       <use xlink:href="#DejaVuSans-31"/>
       <use xlink:href="#DejaVuSans-30" transform="translate(63.623047 0)"/>
       <use xlink:href="#DejaVuSans-30" transform="translate(127.246094 0)"/>
      </g>
     </g>
    </g>
    <g id="xtick_3">
     <g id="line2d_3">
      <g>
       <use xlink:href="#mb4ef964fc7" x="446.544673" y="390.04" style="stroke: #000000; stroke-width: 0.8"/>
      </g>
     </g>
     <g id="text_3">
      <!-- 150 -->
      <g transform="translate(437.000923 404.638438) scale(0.1 -0.1)">
       <use xlink:href="#DejaVuSans-31"/>
       <use xlink:href="#DejaVuSans-35" transform="translate(63.623047 0)"/>
       <use xlink:href="#DejaVuSans-30" transform="translate(127.246094 0)"/>
      </g>
     </g>
    </g>
    <g id="xtick_4">
     <g id="line2d_4">
      <g>
       <use xlink:href="#mb4ef964fc7" x="578.87734" y="390.04" style="stroke: #000000; stroke-width: 0.8"/>
      </g>
     </g>
     <g id="text_4">
      <!-- 200 -->
      <g transform="translate(569.33359 404.638438) scale(0.1 -0.1)">
       <defs>
        <path id="DejaVuSans-32" d="M 1228 531 
L 3431 531 
L 3431 0 
L 469 0 
L 469 531 
Q 828 903 1448 1529 
Q 2069 2156 2228 2338 
Q 2531 2678 2651 2914 
Q 2772 3150 2772 3378 
Q 2772 3750 2511 3984 
Q 2250 4219 1831 4219 
Q 1534 4219 1204 4116 
Q 875 4013 500 3803 
L 500 4441 
Q 881 4594 1212 4672 
Q 1544 4750 1819 4750 
Q 2544 4750 2975 4387 
Q 3406 4025 3406 3419 
Q 3406 3131 3298 2873 
Q 3191 2616 2906 2266 
Q 2828 2175 2409 1742 
Q 1991 1309 1228 531 
z
" transform="scale(0.015625)"/>
       </defs>
       <use xlink:href="#DejaVuSans-32"/>
       <use xlink:href="#DejaVuSans-30" transform="translate(63.623047 0)"/>
       <use xlink:href="#DejaVuSans-30" transform="translate(127.246094 0)"/>
      </g>
     </g>
    </g>
    <g id="xtick_5">
     <g id="line2d_5">
      <g>
       <use xlink:href="#mb4ef964fc7" x="711.210007" y="390.04" style="stroke: #000000; stroke-width: 0.8"/>
      </g>
     </g>
     <g id="text_5">
      <!-- 250 -->
      <g transform="translate(701.666257 404.638438) scale(0.1 -0.1)">
       <use xlink:href="#DejaVuSans-32"/>
       <use xlink:href="#DejaVuSans-35" transform="translate(63.623047 0)"/>
       <use xlink:href="#DejaVuSans-30" transform="translate(127.246094 0)"/>
      </g>
     </g>
    </g>
    <g id="xtick_6">
     <g id="line2d_6">
      <g>
       <use xlink:href="#mb4ef964fc7" x="843.542673" y="390.04" style="stroke: #000000; stroke-width: 0.8"/>
      </g>
     </g>
     <g id="text_6">
      <!-- 300 -->
      <g transform="translate(833.998923 404.638438) scale(0.1 -0.1)">
       <defs>
        <path id="DejaVuSans-33" d="M 2597 2516 
Q 3050 2419 3304 2112 
Q 3559 1806 3559 1356 
Q 3559 666 3084 287 
Q 2609 -91 1734 -91 
Q 1441 -91 1130 -33 
Q 819 25 488 141 
L 488 750 
Q 750 597 1062 519 
Q 1375 441 1716 441 
Q 2309 441 2620 675 
Q 2931 909 2931 1356 
Q 2931 1769 2642 2001 
Q 2353 2234 1838 2234 
L 1294 2234 
L 1294 2753 
L 1863 2753 
Q 2328 2753 2575 2939 
Q 2822 3125 2822 3475 
Q 2822 3834 2567 4026 
Q 2313 4219 1838 4219 
Q 1578 4219 1281 4162 
Q 984 4106 628 3988 
L 628 4550 
Q 988 4650 1302 4700 
Q 1616 4750 1894 4750 
Q 2613 4750 3031 4423 
Q 3450 4097 3450 3541 
Q 3450 3153 3228 2886 
Q 3006 2619 2597 2516 
z
" transform="scale(0.015625)"/>
       </defs>
       <use xlink:href="#DejaVuSans-33"/>
       <use xlink:href="#DejaVuSans-30" transform="translate(63.623047 0)"/>
       <use xlink:href="#DejaVuSans-30" transform="translate(127.246094 0)"/>
      </g>
     </g>
    </g>
    <g id="text_7">
     <!-- Step -->
     <g transform="translate(436.482844 418.316562) scale(0.1 -0.1)">
      <defs>
       <path id="DejaVuSans-53" d="M 3425 4513 
L 3425 3897 
Q 3066 4069 2747 4153 
Q 2428 4238 2131 4238 
Q 1616 4238 1336 4038 
Q 1056 3838 1056 3469 
Q 1056 3159 1242 3001 
Q 1428 2844 1947 2747 
L 2328 2669 
Q 3034 2534 3370 2195 
Q 3706 1856 3706 1288 
Q 3706 609 3251 259 
Q 2797 -91 1919 -91 
Q 1588 -91 1214 -16 
Q 841 59 441 206 
L 441 856 
Q 825 641 1194 531 
Q 1563 422 1919 422 
Q 2459 422 2753 634 
Q 3047 847 3047 1241 
Q 3047 1584 2836 1778 
Q 2625 1972 2144 2069 
L 1759 2144 
Q 1053 2284 737 2584 
Q 422 2884 422 3419 
Q 422 4038 858 4394 
Q 1294 4750 2059 4750 
Q 2388 4750 2728 4690 
Q 3069 4631 3425 4513 
z
" transform="scale(0.015625)"/>
       <path id="DejaVuSans-74" d="M 1172 4494 
L 1172 3500 
L 2356 3500 
L 2356 3053 
L 1172 3053 
L 1172 1153 
Q 1172 725 1289 603 
Q 1406 481 1766 481 
L 2356 481 
L 2356 0 
L 1766 0 
Q 1100 0 847 248 
Q 594 497 594 1153 
L 594 3053 
L 172 3053 
L 172 3500 
L 594 3500 
L 594 4494 
L 1172 4494 
z
" transform="scale(0.015625)"/>
       <path id="DejaVuSans-65" d="M 3597 1894 
L 3597 1613 
L 953 1613 
Q 991 1019 1311 708 
Q 1631 397 2203 397 
Q 2534 397 2845 478 
Q 3156 559 3463 722 
L 3463 178 
Q 3153 47 2828 -22 
Q 2503 -91 2169 -91 
Q 1331 -91 842 396 
Q 353 884 353 1716 
Q 353 2575 817 3079 
Q 1281 3584 2069 3584 
Q 2775 3584 3186 3129 
Q 3597 2675 3597 1894 
z
M 3022 2063 
Q 3016 2534 2758 2815 
Q 2500 3097 2075 3097 
Q 1594 3097 1305 2825 
Q 1016 2553 972 2059 
L 3022 2063 
z
" transform="scale(0.015625)"/>
       <path id="DejaVuSans-70" d="M 1159 525 
L 1159 -1331 
L 581 -1331 
L 581 3500 
L 1159 3500 
L 1159 2969 
Q 1341 3281 1617 3432 
Q 1894 3584 2278 3584 
Q 2916 3584 3314 3078 
Q 3713 2572 3713 1747 
Q 3713 922 3314 415 
Q 2916 -91 2278 -91 
Q 1894 -91 1617 61 
Q 1341 213 1159 525 
z
M 3116 1747 
Q 3116 2381 2855 2742 
Q 2594 3103 2138 3103 
Q 1681 3103 1420 2742 
Q 1159 2381 1159 1747 
Q 1159 1113 1420 752 
Q 1681 391 2138 391 
Q 2594 391 2855 752 
Q 3116 1113 3116 1747 
z
" transform="scale(0.015625)"/>
      </defs>
      <use xlink:href="#DejaVuSans-53"/>
      <use xlink:href="#DejaVuSans-74" transform="translate(63.476562 0)"/>
      <use xlink:href="#DejaVuSans-65" transform="translate(102.685547 0)"/>
      <use xlink:href="#DejaVuSans-70" transform="translate(164.208984 0)"/>
     </g>
    </g>
   </g>
   <g id="matplotlib.axis_2">
    <g id="ytick_1">
     <g id="line2d_7">
      <defs>
       <path id="me5313e146f" d="M 0 0 
L -3.5 0 
" style="stroke: #000000; stroke-width: 0.8"/>
      </defs>
      <g>
       <use xlink:href="#me5313e146f" x="50.87" y="371.457091" style="stroke: #000000; stroke-width: 0.8"/>
      </g>
     </g>
     <g id="text_8">
      <!-- 20 -->
      <g transform="translate(31.145 375.256309) scale(0.1 -0.1)">
       <use xlink:href="#DejaVuSans-32"/>
       <use xlink:href="#DejaVuSans-30" transform="translate(63.623047 0)"/>
      </g>
     </g>
    </g>
    <g id="ytick_2">
     <g id="line2d_8">
      <g>
       <use xlink:href="#me5313e146f" x="50.87" y="316.452797" style="stroke: #000000; stroke-width: 0.8"/>
      </g>
     </g>
     <g id="text_9">
      <!-- 40 -->
      <g transform="translate(31.145 320.252016) scale(0.1 -0.1)">
       <defs>
        <path id="DejaVuSans-34" d="M 2419 4116 
L 825 1625 
L 2419 1625 
L 2419 4116 
z
M 2253 4666 
L 3047 4666 
L 3047 1625 
L 3713 1625 
L 3713 1100 
L 3047 1100 
L 3047 0 
L 2419 0 
L 2419 1100 
L 313 1100 
L 313 1709 
L 2253 4666 
z
" transform="scale(0.015625)"/>
       </defs>
       <use xlink:href="#DejaVuSans-34"/>
       <use xlink:href="#DejaVuSans-30" transform="translate(63.623047 0)"/>
      </g>
     </g>
    </g>
    <g id="ytick_3">
     <g id="line2d_9">
      <g>
       <use xlink:href="#me5313e146f" x="50.87" y="261.448504" style="stroke: #000000; stroke-width: 0.8"/>
      </g>
     </g>
     <g id="text_10">
      <!-- 60 -->
      <g transform="translate(31.145 265.247722) scale(0.1 -0.1)">
       <defs>
        <path id="DejaVuSans-36" d="M 2113 2584 
Q 1688 2584 1439 2293 
Q 1191 2003 1191 1497 
Q 1191 994 1439 701 
Q 1688 409 2113 409 
Q 2538 409 2786 701 
Q 3034 994 3034 1497 
Q 3034 2003 2786 2293 
Q 2538 2584 2113 2584 
z
M 3366 4563 
L 3366 3988 
Q 3128 4100 2886 4159 
Q 2644 4219 2406 4219 
Q 1781 4219 1451 3797 
Q 1122 3375 1075 2522 
Q 1259 2794 1537 2939 
Q 1816 3084 2150 3084 
Q 2853 3084 3261 2657 
Q 3669 2231 3669 1497 
Q 3669 778 3244 343 
Q 2819 -91 2113 -91 
Q 1303 -91 875 529 
Q 447 1150 447 2328 
Q 447 3434 972 4092 
Q 1497 4750 2381 4750 
Q 2619 4750 2861 4703 
Q 3103 4656 3366 4563 
z
" transform="scale(0.015625)"/>
       </defs>
       <use xlink:href="#DejaVuSans-36"/>
       <use xlink:href="#DejaVuSans-30" transform="translate(63.623047 0)"/>
      </g>
     </g>
    </g>
    <g id="ytick_4">
     <g id="line2d_10">
      <g>
       <use xlink:href="#me5313e146f" x="50.87" y="206.44421" style="stroke: #000000; stroke-width: 0.8"/>
      </g>
     </g>
     <g id="text_11">
      <!-- 80 -->
      <g transform="translate(31.145 210.243429) scale(0.1 -0.1)">
       <defs>
        <path id="DejaVuSans-38" d="M 2034 2216 
Q 1584 2216 1326 1975 
Q 1069 1734 1069 1313 
Q 1069 891 1326 650 
Q 1584 409 2034 409 
Q 2484 409 2743 651 
Q 3003 894 3003 1313 
Q 3003 1734 2745 1975 
Q 2488 2216 2034 2216 
z
M 1403 2484 
Q 997 2584 770 2862 
Q 544 3141 544 3541 
Q 544 4100 942 4425 
Q 1341 4750 2034 4750 
Q 2731 4750 3128 4425 
Q 3525 4100 3525 3541 
Q 3525 3141 3298 2862 
Q 3072 2584 2669 2484 
Q 3125 2378 3379 2068 
Q 3634 1759 3634 1313 
Q 3634 634 3220 271 
Q 2806 -91 2034 -91 
Q 1263 -91 848 271 
Q 434 634 434 1313 
Q 434 1759 690 2068 
Q 947 2378 1403 2484 
z
M 1172 3481 
Q 1172 3119 1398 2916 
Q 1625 2713 2034 2713 
Q 2441 2713 2670 2916 
Q 2900 3119 2900 3481 
Q 2900 3844 2670 4047 
Q 2441 4250 2034 4250 
Q 1625 4250 1398 4047 
Q 1172 3844 1172 3481 
z
" transform="scale(0.015625)"/>
       </defs>
       <use xlink:href="#DejaVuSans-38"/>
       <use xlink:href="#DejaVuSans-30" transform="translate(63.623047 0)"/>
      </g>
     </g>
    </g>
    <g id="ytick_5">
     <g id="line2d_11">
      <g>
       <use xlink:href="#me5313e146f" x="50.87" y="151.439917" style="stroke: #000000; stroke-width: 0.8"/>
      </g>
     </g>
     <g id="text_12">
      <!-- 100 -->
      <g transform="translate(24.7825 155.239135) scale(0.1 -0.1)">
       <use xlink:href="#DejaVuSans-31"/>
       <use xlink:href="#DejaVuSans-30" transform="translate(63.623047 0)"/>
       <use xlink:href="#DejaVuSans-30" transform="translate(127.246094 0)"/>
      </g>
     </g>
    </g>
    <g id="ytick_6">
     <g id="line2d_12">
      <g>
       <use xlink:href="#me5313e146f" x="50.87" y="96.435623" style="stroke: #000000; stroke-width: 0.8"/>
      </g>
     </g>
     <g id="text_13">
      <!-- 120 -->
      <g transform="translate(24.7825 100.234842) scale(0.1 -0.1)">
       <use xlink:href="#DejaVuSans-31"/>
       <use xlink:href="#DejaVuSans-32" transform="translate(63.623047 0)"/>
       <use xlink:href="#DejaVuSans-30" transform="translate(127.246094 0)"/>
      </g>
     </g>
    </g>
    <g id="text_14">
     <!-- Profit -->
     <g transform="translate(18.702813 229.779063) rotate(-90) scale(0.1 -0.1)">
      <defs>
       <path id="DejaVuSans-50" d="M 1259 4147 
L 1259 2394 
L 2053 2394 
Q 2494 2394 2734 2622 
Q 2975 2850 2975 3272 
Q 2975 3691 2734 3919 
Q 2494 4147 2053 4147 
L 1259 4147 
z
M 628 4666 
L 2053 4666 
Q 2838 4666 3239 4311 
Q 3641 3956 3641 3272 
Q 3641 2581 3239 2228 
Q 2838 1875 2053 1875 
L 1259 1875 
L 1259 0 
L 628 0 
L 628 4666 
z
" transform="scale(0.015625)"/>
       <path id="DejaVuSans-72" d="M 2631 2963 
Q 2534 3019 2420 3045 
Q 2306 3072 2169 3072 
Q 1681 3072 1420 2755 
Q 1159 2438 1159 1844 
L 1159 0 
L 581 0 
L 581 3500 
L 1159 3500 
L 1159 2956 
Q 1341 3275 1631 3429 
Q 1922 3584 2338 3584 
Q 2397 3584 2469 3576 
Q 2541 3569 2628 3553 
L 2631 2963 
z
" transform="scale(0.015625)"/>
       <path id="DejaVuSans-6f" d="M 1959 3097 
Q 1497 3097 1228 2736 
Q 959 2375 959 1747 
Q 959 1119 1226 758 
Q 1494 397 1959 397 
Q 2419 397 2687 759 
Q 2956 1122 2956 1747 
Q 2956 2369 2687 2733 
Q 2419 3097 1959 3097 
z
M 1959 3584 
Q 2709 3584 3137 3096 
Q 3566 2609 3566 1747 
Q 3566 888 3137 398 
Q 2709 -91 1959 -91 
Q 1206 -91 779 398 
Q 353 888 353 1747 
Q 353 2609 779 3096 
Q 1206 3584 1959 3584 
z
" transform="scale(0.015625)"/>
       <path id="DejaVuSans-66" d="M 2375 4863 
L 2375 4384 
L 1825 4384 
Q 1516 4384 1395 4259 
Q 1275 4134 1275 3809 
L 1275 3500 
L 2222 3500 
L 2222 3053 
L 1275 3053 
L 1275 0 
L 697 0 
L 697 3053 
L 147 3053 
L 147 3500 
L 697 3500 
L 697 3744 
Q 697 4328 969 4595 
Q 1241 4863 1831 4863 
L 2375 4863 
z
" transform="scale(0.015625)"/>
       <path id="DejaVuSans-69" d="M 603 3500 
L 1178 3500 
L 1178 0 
L 603 0 
L 603 3500 
z
M 603 4863 
L 1178 4863 
L 1178 4134 
L 603 4134 
L 603 4863 
z
" transform="scale(0.015625)"/>
      </defs>
      <use xlink:href="#DejaVuSans-50"/>
      <use xlink:href="#DejaVuSans-72" transform="translate(58.552734 0)"/>
      <use xlink:href="#DejaVuSans-6f" transform="translate(97.416016 0)"/>
      <use xlink:href="#DejaVuSans-66" transform="translate(158.597656 0)"/>
      <use xlink:href="#DejaVuSans-69" transform="translate(193.802734 0)"/>
      <use xlink:href="#DejaVuSans-74" transform="translate(221.585938 0)"/>
     </g>
    </g>
   </g>
   <g id="line2d_13">
    <path d="M 52.193327 252.321054 
L 54.83998 252.109226 
L 60.133287 236.620006 
L 62.77994 230.048674 
L 65.426593 224.316808 
L 68.073247 219.366497 
L 70.7199 214.831891 
L 73.366553 210.65619 
L 76.013207 206.97685 
L 78.65986 203.791627 
L 83.953167 198.350578 
L 86.59982 195.927984 
L 94.53978 189.368086 
L 97.186433 187.412415 
L 105.126393 182.59123 
L 113.066353 178.22249 
L 121.006313 174.785897 
L 126.29962 172.549396 
L 136.886233 168.34325 
L 139.532887 167.416706 
L 144.826193 165.743018 
L 150.1195 164.021805 
L 155.412807 162.66577 
L 163.352767 160.495721 
L 189.8193 155.196556 
L 210.992527 151.599719 
L 226.872447 149.154338 
L 234.812407 148.239019 
L 248.045673 146.69259 
L 253.33898 145.994692 
L 255.985633 145.740741 
L 258.632287 145.36568 
L 263.925593 144.775485 
L 274.512207 143.600172 
L 298.332087 141.336772 
L 303.625393 140.787346 
L 308.9187 140.389308 
L 314.212007 139.982102 
L 322.151967 139.350508 
L 332.73858 138.46681 
L 359.205113 136.605056 
L 375.085033 135.626728 
L 406.844873 133.642835 
L 414.784833 133.259212 
L 428.0181 132.270308 
L 435.95806 131.760896 
L 465.071247 130.354399 
L 470.364553 130.078857 
L 475.65786 129.807386 
L 499.47774 128.658952 
L 512.711007 128.079038 
L 525.944273 127.49006 
L 639.750367 123.231794 
L 647.690327 122.987809 
L 655.630287 122.66405 
L 668.863553 122.214857 
L 697.97674 121.227254 
L 735.029887 120.282057 
L 742.969847 120.066671 
L 766.789727 119.49129 
L 780.022993 119.192961 
L 843.542673 117.756795 
L 843.542673 117.756795 
" clip-path="url(#p905a2311f9)" style="fill: none; stroke: #0000ff; stroke-width: 1.5; stroke-linecap: square"/>
   </g>
   <g id="patch_3">
    <path d="M 50.87 390.04 
L 50.87 43.44 
" style="fill: none; stroke: #000000; stroke-width: 0.8; stroke-linejoin: miter; stroke-linecap: square"/>
   </g>
   <g id="patch_4">
    <path d="M 844.866 390.04 
L 844.866 43.44 
" style="fill: none; stroke: #000000; stroke-width: 0.8; stroke-linejoin: miter; stroke-linecap: square"/>
   </g>
   <g id="patch_5">
    <path d="M 50.87 390.04 
L 844.866 390.04 
" style="fill: none; stroke: #000000; stroke-width: 0.8; stroke-linejoin: miter; stroke-linecap: square"/>
   </g>
   <g id="patch_6">
    <path d="M 50.87 43.44 
L 844.866 43.44 
" style="fill: none; stroke: #000000; stroke-width: 0.8; stroke-linejoin: miter; stroke-linecap: square"/>
   </g>
   <g id="text_15">
    <!-- Mean profit per step with confidence interval per simulation step -->
    <g transform="translate(220.284875 21.763062) scale(0.14 -0.14)">
     <defs>
      <path id="DejaVuSans-4d" d="M 628 4666 
L 1569 4666 
L 2759 1491 
L 3956 4666 
L 4897 4666 
L 4897 0 
L 4281 0 
L 4281 4097 
L 3078 897 
L 2444 897 
L 1241 4097 
L 1241 0 
L 628 0 
L 628 4666 
z
" transform="scale(0.015625)"/>
      <path id="DejaVuSans-61" d="M 2194 1759 
Q 1497 1759 1228 1600 
Q 959 1441 959 1056 
Q 959 750 1161 570 
Q 1363 391 1709 391 
Q 2188 391 2477 730 
Q 2766 1069 2766 1631 
L 2766 1759 
L 2194 1759 
z
M 3341 1997 
L 3341 0 
L 2766 0 
L 2766 531 
Q 2569 213 2275 61 
Q 1981 -91 1556 -91 
Q 1019 -91 701 211 
Q 384 513 384 1019 
Q 384 1609 779 1909 
Q 1175 2209 1959 2209 
L 2766 2209 
L 2766 2266 
Q 2766 2663 2505 2880 
Q 2244 3097 1772 3097 
Q 1472 3097 1187 3025 
Q 903 2953 641 2809 
L 641 3341 
Q 956 3463 1253 3523 
Q 1550 3584 1831 3584 
Q 2591 3584 2966 3190 
Q 3341 2797 3341 1997 
z
" transform="scale(0.015625)"/>
      <path id="DejaVuSans-6e" d="M 3513 2113 
L 3513 0 
L 2938 0 
L 2938 2094 
Q 2938 2591 2744 2837 
Q 2550 3084 2163 3084 
Q 1697 3084 1428 2787 
Q 1159 2491 1159 1978 
L 1159 0 
L 581 0 
L 581 3500 
L 1159 3500 
L 1159 2956 
Q 1366 3272 1645 3428 
Q 1925 3584 2291 3584 
Q 2894 3584 3203 3211 
Q 3513 2838 3513 2113 
z
" transform="scale(0.015625)"/>
      <path id="DejaVuSans-20" transform="scale(0.015625)"/>
      <path id="DejaVuSans-73" d="M 2834 3397 
L 2834 2853 
Q 2591 2978 2328 3040 
Q 2066 3103 1784 3103 
Q 1356 3103 1142 2972 
Q 928 2841 928 2578 
Q 928 2378 1081 2264 
Q 1234 2150 1697 2047 
L 1894 2003 
Q 2506 1872 2764 1633 
Q 3022 1394 3022 966 
Q 3022 478 2636 193 
Q 2250 -91 1575 -91 
Q 1294 -91 989 -36 
Q 684 19 347 128 
L 347 722 
Q 666 556 975 473 
Q 1284 391 1588 391 
Q 1994 391 2212 530 
Q 2431 669 2431 922 
Q 2431 1156 2273 1281 
Q 2116 1406 1581 1522 
L 1381 1569 
Q 847 1681 609 1914 
Q 372 2147 372 2553 
Q 372 3047 722 3315 
Q 1072 3584 1716 3584 
Q 2034 3584 2315 3537 
Q 2597 3491 2834 3397 
z
" transform="scale(0.015625)"/>
      <path id="DejaVuSans-77" d="M 269 3500 
L 844 3500 
L 1563 769 
L 2278 3500 
L 2956 3500 
L 3675 769 
L 4391 3500 
L 4966 3500 
L 4050 0 
L 3372 0 
L 2619 2869 
L 1863 0 
L 1184 0 
L 269 3500 
z
" transform="scale(0.015625)"/>
      <path id="DejaVuSans-68" d="M 3513 2113 
L 3513 0 
L 2938 0 
L 2938 2094 
Q 2938 2591 2744 2837 
Q 2550 3084 2163 3084 
Q 1697 3084 1428 2787 
Q 1159 2491 1159 1978 
L 1159 0 
L 581 0 
L 581 4863 
L 1159 4863 
L 1159 2956 
Q 1366 3272 1645 3428 
Q 1925 3584 2291 3584 
Q 2894 3584 3203 3211 
Q 3513 2838 3513 2113 
z
" transform="scale(0.015625)"/>
      <path id="DejaVuSans-63" d="M 3122 3366 
L 3122 2828 
Q 2878 2963 2633 3030 
Q 2388 3097 2138 3097 
Q 1578 3097 1268 2742 
Q 959 2388 959 1747 
Q 959 1106 1268 751 
Q 1578 397 2138 397 
Q 2388 397 2633 464 
Q 2878 531 3122 666 
L 3122 134 
Q 2881 22 2623 -34 
Q 2366 -91 2075 -91 
Q 1284 -91 818 406 
Q 353 903 353 1747 
Q 353 2603 823 3093 
Q 1294 3584 2113 3584 
Q 2378 3584 2631 3529 
Q 2884 3475 3122 3366 
z
" transform="scale(0.015625)"/>
      <path id="DejaVuSans-64" d="M 2906 2969 
L 2906 4863 
L 3481 4863 
L 3481 0 
L 2906 0 
L 2906 525 
Q 2725 213 2448 61 
Q 2172 -91 1784 -91 
Q 1150 -91 751 415 
Q 353 922 353 1747 
Q 353 2572 751 3078 
Q 1150 3584 1784 3584 
Q 2172 3584 2448 3432 
Q 2725 3281 2906 2969 
z
M 947 1747 
Q 947 1113 1208 752 
Q 1469 391 1925 391 
Q 2381 391 2643 752 
Q 2906 1113 2906 1747 
Q 2906 2381 2643 2742 
Q 2381 3103 1925 3103 
Q 1469 3103 1208 2742 
Q 947 2381 947 1747 
z
" transform="scale(0.015625)"/>
      <path id="DejaVuSans-76" d="M 191 3500 
L 800 3500 
L 1894 563 
L 2988 3500 
L 3597 3500 
L 2284 0 
L 1503 0 
L 191 3500 
z
" transform="scale(0.015625)"/>
      <path id="DejaVuSans-6c" d="M 603 4863 
L 1178 4863 
L 1178 0 
L 603 0 
L 603 4863 
z
" transform="scale(0.015625)"/>
      <path id="DejaVuSans-6d" d="M 3328 2828 
Q 3544 3216 3844 3400 
Q 4144 3584 4550 3584 
Q 5097 3584 5394 3201 
Q 5691 2819 5691 2113 
L 5691 0 
L 5113 0 
L 5113 2094 
Q 5113 2597 4934 2840 
Q 4756 3084 4391 3084 
Q 3944 3084 3684 2787 
Q 3425 2491 3425 1978 
L 3425 0 
L 2847 0 
L 2847 2094 
Q 2847 2600 2669 2842 
Q 2491 3084 2119 3084 
Q 1678 3084 1418 2786 
Q 1159 2488 1159 1978 
L 1159 0 
L 581 0 
L 581 3500 
L 1159 3500 
L 1159 2956 
Q 1356 3278 1631 3431 
Q 1906 3584 2284 3584 
Q 2666 3584 2933 3390 
Q 3200 3197 3328 2828 
z
" transform="scale(0.015625)"/>
      <path id="DejaVuSans-75" d="M 544 1381 
L 544 3500 
L 1119 3500 
L 1119 1403 
Q 1119 906 1312 657 
Q 1506 409 1894 409 
Q 2359 409 2629 706 
Q 2900 1003 2900 1516 
L 2900 3500 
L 3475 3500 
L 3475 0 
L 2900 0 
L 2900 538 
Q 2691 219 2414 64 
Q 2138 -91 1772 -91 
Q 1169 -91 856 284 
Q 544 659 544 1381 
z
M 1991 3584 
L 1991 3584 
z
" transform="scale(0.015625)"/>
     </defs>
     <use xlink:href="#DejaVuSans-4d"/>
     <use xlink:href="#DejaVuSans-65" transform="translate(86.279297 0)"/>
     <use xlink:href="#DejaVuSans-61" transform="translate(147.802734 0)"/>
     <use xlink:href="#DejaVuSans-6e" transform="translate(209.082031 0)"/>
     <use xlink:href="#DejaVuSans-20" transform="translate(272.460938 0)"/>
     <use xlink:href="#DejaVuSans-70" transform="translate(304.248047 0)"/>
     <use xlink:href="#DejaVuSans-72" transform="translate(367.724609 0)"/>
     <use xlink:href="#DejaVuSans-6f" transform="translate(406.587891 0)"/>
     <use xlink:href="#DejaVuSans-66" transform="translate(467.769531 0)"/>
     <use xlink:href="#DejaVuSans-69" transform="translate(502.974609 0)"/>
     <use xlink:href="#DejaVuSans-74" transform="translate(530.757812 0)"/>
     <use xlink:href="#DejaVuSans-20" transform="translate(569.966797 0)"/>
     <use xlink:href="#DejaVuSans-70" transform="translate(601.753906 0)"/>
     <use xlink:href="#DejaVuSans-65" transform="translate(665.230469 0)"/>
     <use xlink:href="#DejaVuSans-72" transform="translate(726.753906 0)"/>
     <use xlink:href="#DejaVuSans-20" transform="translate(767.867188 0)"/>
     <use xlink:href="#DejaVuSans-73" transform="translate(799.654297 0)"/>
     <use xlink:href="#DejaVuSans-74" transform="translate(851.753906 0)"/>
     <use xlink:href="#DejaVuSans-65" transform="translate(890.962891 0)"/>
     <use xlink:href="#DejaVuSans-70" transform="translate(952.486328 0)"/>
     <use xlink:href="#DejaVuSans-20" transform="translate(1015.962891 0)"/>
     <use xlink:href="#DejaVuSans-77" transform="translate(1047.75 0)"/>
     <use xlink:href="#DejaVuSans-69" transform="translate(1129.537109 0)"/>
     <use xlink:href="#DejaVuSans-74" transform="translate(1157.320312 0)"/>
     <use xlink:href="#DejaVuSans-68" transform="translate(1196.529297 0)"/>
     <use xlink:href="#DejaVuSans-20" transform="translate(1259.908203 0)"/>
     <use xlink:href="#DejaVuSans-63" transform="translate(1291.695312 0)"/>
     <use xlink:href="#DejaVuSans-6f" transform="translate(1346.675781 0)"/>
     <use xlink:href="#DejaVuSans-6e" transform="translate(1407.857422 0)"/>
     <use xlink:href="#DejaVuSans-66" transform="translate(1471.236328 0)"/>
     <use xlink:href="#DejaVuSans-69" transform="translate(1506.441406 0)"/>
     <use xlink:href="#DejaVuSans-64" transform="translate(1534.224609 0)"/>
     <use xlink:href="#DejaVuSans-65" transform="translate(1597.701172 0)"/>
     <use xlink:href="#DejaVuSans-6e" transform="translate(1659.224609 0)"/>
     <use xlink:href="#DejaVuSans-63" transform="translate(1722.603516 0)"/>
     <use xlink:href="#DejaVuSans-65" transform="translate(1777.583984 0)"/>
     <use xlink:href="#DejaVuSans-20" transform="translate(1839.107422 0)"/>
     <use xlink:href="#DejaVuSans-69" transform="translate(1870.894531 0)"/>
     <use xlink:href="#DejaVuSans-6e" transform="translate(1898.677734 0)"/>
     <use xlink:href="#DejaVuSans-74" transform="translate(1962.056641 0)"/>
     <use xlink:href="#DejaVuSans-65" transform="translate(2001.265625 0)"/>
     <use xlink:href="#DejaVuSans-72" transform="translate(2062.789062 0)"/>
     <use xlink:href="#DejaVuSans-76" transform="translate(2103.902344 0)"/>
     <use xlink:href="#DejaVuSans-61" transform="translate(2163.082031 0)"/>
     <use xlink:href="#DejaVuSans-6c" transform="translate(2224.361328 0)"/>
     <use xlink:href="#DejaVuSans-20" transform="translate(2252.144531 0)"/>
     <use xlink:href="#DejaVuSans-70" transform="translate(2283.931641 0)"/>
     <use xlink:href="#DejaVuSans-65" transform="translate(2347.408203 0)"/>
     <use xlink:href="#DejaVuSans-72" transform="translate(2408.931641 0)"/>
     <use xlink:href="#DejaVuSans-20" transform="translate(2450.044922 0)"/>
     <use xlink:href="#DejaVuSans-73" transform="translate(2481.832031 0)"/>
     <use xlink:href="#DejaVuSans-69" transform="translate(2533.931641 0)"/>
     <use xlink:href="#DejaVuSans-6d" transform="translate(2561.714844 0)"/>
     <use xlink:href="#DejaVuSans-75" transform="translate(2659.126953 0)"/>
     <use xlink:href="#DejaVuSans-6c" transform="translate(2722.505859 0)"/>
     <use xlink:href="#DejaVuSans-61" transform="translate(2750.289062 0)"/>
     <use xlink:href="#DejaVuSans-74" transform="translate(2811.568359 0)"/>
     <use xlink:href="#DejaVuSans-69" transform="translate(2850.777344 0)"/>
     <use xlink:href="#DejaVuSans-6f" transform="translate(2878.560547 0)"/>
     <use xlink:href="#DejaVuSans-6e" transform="translate(2939.742188 0)"/>
     <use xlink:href="#DejaVuSans-20" transform="translate(3003.121094 0)"/>
     <use xlink:href="#DejaVuSans-73" transform="translate(3034.908203 0)"/>
     <use xlink:href="#DejaVuSans-74" transform="translate(3087.007812 0)"/>
     <use xlink:href="#DejaVuSans-65" transform="translate(3126.216797 0)"/>
     <use xlink:href="#DejaVuSans-70" transform="translate(3187.740234 0)"/>
    </g>
    <!-- Base Product: OG Kush, Recipe size: 9, T0: 10.0 -->
    <g transform="translate(281.490031 37.44) scale(0.14 -0.14)">
     <defs>
      <path id="DejaVuSans-42" d="M 1259 2228 
L 1259 519 
L 2272 519 
Q 2781 519 3026 730 
Q 3272 941 3272 1375 
Q 3272 1813 3026 2020 
Q 2781 2228 2272 2228 
L 1259 2228 
z
M 1259 4147 
L 1259 2741 
L 2194 2741 
Q 2656 2741 2882 2914 
Q 3109 3088 3109 3444 
Q 3109 3797 2882 3972 
Q 2656 4147 2194 4147 
L 1259 4147 
z
M 628 4666 
L 2241 4666 
Q 2963 4666 3353 4366 
Q 3744 4066 3744 3513 
Q 3744 3084 3544 2831 
Q 3344 2578 2956 2516 
Q 3422 2416 3680 2098 
Q 3938 1781 3938 1306 
Q 3938 681 3513 340 
Q 3088 0 2303 0 
L 628 0 
L 628 4666 
z
" transform="scale(0.015625)"/>
      <path id="DejaVuSans-3a" d="M 750 794 
L 1409 794 
L 1409 0 
L 750 0 
L 750 794 
z
M 750 3309 
L 1409 3309 
L 1409 2516 
L 750 2516 
L 750 3309 
z
" transform="scale(0.015625)"/>
      <path id="DejaVuSans-4f" d="M 2522 4238 
Q 1834 4238 1429 3725 
Q 1025 3213 1025 2328 
Q 1025 1447 1429 934 
Q 1834 422 2522 422 
Q 3209 422 3611 934 
Q 4013 1447 4013 2328 
Q 4013 3213 3611 3725 
Q 3209 4238 2522 4238 
z
M 2522 4750 
Q 3503 4750 4090 4092 
Q 4678 3434 4678 2328 
Q 4678 1225 4090 567 
Q 3503 -91 2522 -91 
Q 1538 -91 948 565 
Q 359 1222 359 2328 
Q 359 3434 948 4092 
Q 1538 4750 2522 4750 
z
" transform="scale(0.015625)"/>
      <path id="DejaVuSans-47" d="M 3809 666 
L 3809 1919 
L 2778 1919 
L 2778 2438 
L 4434 2438 
L 4434 434 
Q 4069 175 3628 42 
Q 3188 -91 2688 -91 
Q 1594 -91 976 548 
Q 359 1188 359 2328 
Q 359 3472 976 4111 
Q 1594 4750 2688 4750 
Q 3144 4750 3555 4637 
Q 3966 4525 4313 4306 
L 4313 3634 
Q 3963 3931 3569 4081 
Q 3175 4231 2741 4231 
Q 1884 4231 1454 3753 
Q 1025 3275 1025 2328 
Q 1025 1384 1454 906 
Q 1884 428 2741 428 
Q 3075 428 3337 486 
Q 3600 544 3809 666 
z
" transform="scale(0.015625)"/>
      <path id="DejaVuSans-4b" d="M 628 4666 
L 1259 4666 
L 1259 2694 
L 3353 4666 
L 4166 4666 
L 1850 2491 
L 4331 0 
L 3500 0 
L 1259 2247 
L 1259 0 
L 628 0 
L 628 4666 
z
" transform="scale(0.015625)"/>
      <path id="DejaVuSans-2c" d="M 750 794 
L 1409 794 
L 1409 256 
L 897 -744 
L 494 -744 
L 750 256 
L 750 794 
z
" transform="scale(0.015625)"/>
      <path id="DejaVuSans-52" d="M 2841 2188 
Q 3044 2119 3236 1894 
Q 3428 1669 3622 1275 
L 4263 0 
L 3584 0 
L 2988 1197 
Q 2756 1666 2539 1819 
Q 2322 1972 1947 1972 
L 1259 1972 
L 1259 0 
L 628 0 
L 628 4666 
L 2053 4666 
Q 2853 4666 3247 4331 
Q 3641 3997 3641 3322 
Q 3641 2881 3436 2590 
Q 3231 2300 2841 2188 
z
M 1259 4147 
L 1259 2491 
L 2053 2491 
Q 2509 2491 2742 2702 
Q 2975 2913 2975 3322 
Q 2975 3731 2742 3939 
Q 2509 4147 2053 4147 
L 1259 4147 
z
" transform="scale(0.015625)"/>
      <path id="DejaVuSans-7a" d="M 353 3500 
L 3084 3500 
L 3084 2975 
L 922 459 
L 3084 459 
L 3084 0 
L 275 0 
L 275 525 
L 2438 3041 
L 353 3041 
L 353 3500 
z
" transform="scale(0.015625)"/>
      <path id="DejaVuSans-39" d="M 703 97 
L 703 672 
Q 941 559 1184 500 
Q 1428 441 1663 441 
Q 2288 441 2617 861 
Q 2947 1281 2994 2138 
Q 2813 1869 2534 1725 
Q 2256 1581 1919 1581 
Q 1219 1581 811 2004 
Q 403 2428 403 3163 
Q 403 3881 828 4315 
Q 1253 4750 1959 4750 
Q 2769 4750 3195 4129 
Q 3622 3509 3622 2328 
Q 3622 1225 3098 567 
Q 2575 -91 1691 -91 
Q 1453 -91 1209 -44 
Q 966 3 703 97 
z
M 1959 2075 
Q 2384 2075 2632 2365 
Q 2881 2656 2881 3163 
Q 2881 3666 2632 3958 
Q 2384 4250 1959 4250 
Q 1534 4250 1286 3958 
Q 1038 3666 1038 3163 
Q 1038 2656 1286 2365 
Q 1534 2075 1959 2075 
z
" transform="scale(0.015625)"/>
      <path id="DejaVuSans-54" d="M -19 4666 
L 3928 4666 
L 3928 4134 
L 2272 4134 
L 2272 0 
L 1638 0 
L 1638 4134 
L -19 4134 
L -19 4666 
z
" transform="scale(0.015625)"/>
      <path id="DejaVuSans-2e" d="M 684 794 
L 1344 794 
L 1344 0 
L 684 0 
L 684 794 
z
" transform="scale(0.015625)"/>
     </defs>
     <use xlink:href="#DejaVuSans-42"/>
     <use xlink:href="#DejaVuSans-61" transform="translate(68.603516 0)"/>
     <use xlink:href="#DejaVuSans-73" transform="translate(129.882812 0)"/>
     <use xlink:href="#DejaVuSans-65" transform="translate(181.982422 0)"/>
     <use xlink:href="#DejaVuSans-20" transform="translate(243.505859 0)"/>
     <use xlink:href="#DejaVuSans-50" transform="translate(275.292969 0)"/>
     <use xlink:href="#DejaVuSans-72" transform="translate(333.845703 0)"/>
     <use xlink:href="#DejaVuSans-6f" transform="translate(372.708984 0)"/>
     <use xlink:href="#DejaVuSans-64" transform="translate(433.890625 0)"/>
     <use xlink:href="#DejaVuSans-75" transform="translate(497.367188 0)"/>
     <use xlink:href="#DejaVuSans-63" transform="translate(560.746094 0)"/>
     <use xlink:href="#DejaVuSans-74" transform="translate(615.726562 0)"/>
     <use xlink:href="#DejaVuSans-3a" transform="translate(654.935547 0)"/>
     <use xlink:href="#DejaVuSans-20" transform="translate(688.626953 0)"/>
     <use xlink:href="#DejaVuSans-4f" transform="translate(720.414062 0)"/>
     <use xlink:href="#DejaVuSans-47" transform="translate(799.125 0)"/>
     <use xlink:href="#DejaVuSans-20" transform="translate(876.615234 0)"/>
     <use xlink:href="#DejaVuSans-4b" transform="translate(908.402344 0)"/>
     <use xlink:href="#DejaVuSans-75" transform="translate(968.978516 0)"/>
     <use xlink:href="#DejaVuSans-73" transform="translate(1032.357422 0)"/>
     <use xlink:href="#DejaVuSans-68" transform="translate(1084.457031 0)"/>
     <use xlink:href="#DejaVuSans-2c" transform="translate(1147.835938 0)"/>
     <use xlink:href="#DejaVuSans-20" transform="translate(1179.623047 0)"/>
     <use xlink:href="#DejaVuSans-52" transform="translate(1211.410156 0)"/>
     <use xlink:href="#DejaVuSans-65" transform="translate(1276.392578 0)"/>
     <use xlink:href="#DejaVuSans-63" transform="translate(1337.916016 0)"/>
     <use xlink:href="#DejaVuSans-69" transform="translate(1392.896484 0)"/>
     <use xlink:href="#DejaVuSans-70" transform="translate(1420.679688 0)"/>
     <use xlink:href="#DejaVuSans-65" transform="translate(1484.15625 0)"/>
     <use xlink:href="#DejaVuSans-20" transform="translate(1545.679688 0)"/>
     <use xlink:href="#DejaVuSans-73" transform="translate(1577.466797 0)"/>
     <use xlink:href="#DejaVuSans-69" transform="translate(1629.566406 0)"/>
     <use xlink:href="#DejaVuSans-7a" transform="translate(1657.349609 0)"/>
     <use xlink:href="#DejaVuSans-65" transform="translate(1709.839844 0)"/>
     <use xlink:href="#DejaVuSans-3a" transform="translate(1771.363281 0)"/>
     <use xlink:href="#DejaVuSans-20" transform="translate(1805.054688 0)"/>
     <use xlink:href="#DejaVuSans-39" transform="translate(1836.841797 0)"/>
     <use xlink:href="#DejaVuSans-2c" transform="translate(1900.464844 0)"/>
     <use xlink:href="#DejaVuSans-20" transform="translate(1932.251953 0)"/>
     <use xlink:href="#DejaVuSans-54" transform="translate(1964.039062 0)"/>
     <use xlink:href="#DejaVuSans-30" transform="translate(2025.123047 0)"/>
     <use xlink:href="#DejaVuSans-3a" transform="translate(2088.746094 0)"/>
     <use xlink:href="#DejaVuSans-20" transform="translate(2122.4375 0)"/>
     <use xlink:href="#DejaVuSans-31" transform="translate(2154.224609 0)"/>
     <use xlink:href="#DejaVuSans-30" transform="translate(2217.847656 0)"/>
     <use xlink:href="#DejaVuSans-2e" transform="translate(2281.470703 0)"/>
     <use xlink:href="#DejaVuSans-30" transform="translate(2313.257812 0)"/>
    </g>
   </g>
  </g>
 </g>
 <defs>
  <clipPath id="p905a2311f9">
   <rect x="50.87" y="43.44" width="793.996" height="346.6"/>
  </clipPath>
 </defs>
</svg>
