<?xml version="1.0" encoding="utf-8" standalone="no"?>
<!DOCTYPE svg PUBLIC "-//W3C//DTD SVG 1.1//EN"
  "http://www.w3.org/Graphics/SVG/1.1/DTD/svg11.dtd">
<svg xmlns:xlink="http://www.w3.org/1999/xlink" width="864pt" height="432pt" viewBox="0 0 864 432" xmlns="http://www.w3.org/2000/svg" version="1.1">
 <metadata>
  <rdf:RDF xmlns:dc="http://purl.org/dc/elements/1.1/" xmlns:cc="http://creativecommons.org/ns#" xmlns:rdf="http://www.w3.org/1999/02/22-rdf-syntax-ns#">
   <cc:Work>
    <dc:type rdf:resource="http://purl.org/dc/dcmitype/StillImage"/>
    <dc:date>2025-05-24T02:01:08.278573</dc:date>
    <dc:format>image/svg+xml</dc:format>
    <dc:creator>
     <cc:Agent>
      <dc:title>Matplotlib v3.10.3, https://matplotlib.org/</dc:title>
     </cc:Agent>
    </dc:creator>
   </cc:Work>
  </rdf:RDF>
 </metadata>
 <defs>
  <style type="text/css">*{stroke-linejoin: round; stroke-linecap: butt}</style>
 </defs>
 <g id="figure_1">
  <g id="patch_1">
   <path d="M 0 432 
L 864 432 
L 864 0 
L 0 0 
z
" style="fill: #ffffff"/>
  </g>
  <g id="axes_1">
   <g id="patch_2">
    <path d="M 50.87 390.04 
L 844.866 390.04 
L 844.866 43.44 
L 50.87 43.44 
z
" style="fill: #ffffff"/>
   </g>
   <g id="FillBetweenPolyCollection_1">
    <defs>
     <path id="mfae8391580" d="M 52.193327 -304.873998 
L 52.193327 -58.437467 
L 54.83998 -57.714545 
L 57.486633 -67.943771 
L 60.133287 -80.82438 
L 62.77994 -91.360793 
L 65.426593 -101.102324 
L 68.073247 -109.269483 
L 70.7199 -116.448798 
L 73.366553 -122.968435 
L 76.013207 -128.952634 
L 78.65986 -134.388326 
L 81.306513 -140.446333 
L 83.953167 -145.761759 
L 86.59982 -150.686544 
L 89.246473 -154.692411 
L 91.893127 -158.312443 
L 94.53978 -162.201544 
L 97.186433 -165.656289 
L 99.833087 -168.405632 
L 102.47974 -171.923902 
L 105.126393 -174.392532 
L 107.773047 -177.179206 
L 110.4197 -179.151263 
L 113.066353 -181.56569 
L 115.713007 -183.554166 
L 118.35966 -185.246417 
L 121.006313 -186.881786 
L 123.652967 -188.476217 
L 126.29962 -190.064513 
L 128.946273 -191.857263 
L 131.592927 -193.070439 
L 134.23958 -194.820285 
L 136.886233 -196.427419 
L 139.532887 -198.110099 
L 142.17954 -199.257061 
L 144.826193 -200.328671 
L 147.472847 -201.720701 
L 150.1195 -202.827568 
L 152.766153 -204.305104 
L 155.412807 -205.205939 
L 158.05946 -206.068321 
L 160.706113 -207.282513 
L 163.352767 -208.506491 
L 165.99942 -209.348026 
L 168.646073 -210.49246 
L 171.292727 -211.114722 
L 173.93938 -211.903328 
L 176.586033 -212.577222 
L 179.232687 -213.230117 
L 181.87934 -213.863957 
L 184.525993 -214.306609 
L 187.172647 -214.58797 
L 189.8193 -214.983008 
L 192.465953 -215.759884 
L 195.112607 -216.58297 
L 197.75926 -217.357448 
L 200.405913 -217.966077 
L 203.052567 -218.543188 
L 205.69922 -219.394423 
L 208.345873 -220.000589 
L 210.992527 -220.603667 
L 213.63918 -221.228823 
L 216.285833 -221.888415 
L 218.932487 -222.391901 
L 221.57914 -222.935786 
L 224.225793 -223.725235 
L 226.872447 -224.162054 
L 229.5191 -224.858566 
L 232.165753 -225.424572 
L 234.812407 -226.01391 
L 237.45906 -226.338305 
L 240.105713 -226.930927 
L 242.752367 -227.433938 
L 245.39902 -227.813789 
L 248.045673 -228.11913 
L 250.692327 -228.488676 
L 253.33898 -228.884664 
L 255.985633 -229.261663 
L 258.632287 -229.923588 
L 261.27894 -230.207844 
L 263.925593 -230.511435 
L 266.572247 -230.890163 
L 269.2189 -231.098008 
L 271.865553 -231.775228 
L 274.512207 -231.972402 
L 277.15886 -232.385197 
L 279.805513 -232.645755 
L 282.452167 -232.931674 
L 285.09882 -233.250798 
L 287.745473 -233.315111 
L 290.392127 -233.782088 
L 293.03878 -233.810777 
L 295.685433 -234.213268 
L 298.332087 -234.388169 
L 300.97874 -234.696664 
L 303.625393 -234.703749 
L 306.272047 -234.98753 
L 308.9187 -235.375806 
L 311.565353 -235.925826 
L 314.212007 -236.142939 
L 316.85866 -236.407472 
L 319.505313 -236.789461 
L 322.151967 -237.154017 
L 324.79862 -237.665281 
L 327.445273 -238.038261 
L 330.091927 -238.397243 
L 332.73858 -238.762382 
L 335.385233 -238.901529 
L 338.031887 -239.020887 
L 340.67854 -239.132857 
L 343.325193 -239.496289 
L 345.971847 -239.617635 
L 348.6185 -239.899688 
L 351.265153 -239.955273 
L 353.911807 -240.08997 
L 356.55846 -240.283362 
L 359.205113 -240.595832 
L 361.851767 -240.809273 
L 364.49842 -241.053261 
L 367.145073 -241.222069 
L 369.791727 -241.388673 
L 372.43838 -241.469059 
L 375.085033 -241.602762 
L 377.731687 -241.966821 
L 380.37834 -242.184409 
L 383.024993 -242.527081 
L 385.671647 -242.827453 
L 388.3183 -242.93737 
L 390.964953 -243.334785 
L 393.611607 -243.664127 
L 396.25826 -243.840259 
L 398.904913 -243.85173 
L 401.551567 -243.945078 
L 404.19822 -244.36699 
L 406.844873 -244.676911 
L 409.491527 -244.795794 
L 412.13818 -245.023406 
L 414.784833 -245.203945 
L 417.431487 -245.343956 
L 420.07814 -245.675567 
L 422.724793 -245.801751 
L 425.371447 -245.768353 
L 428.0181 -246.034743 
L 430.664753 -246.253347 
L 433.311407 -246.479447 
L 435.95806 -246.558342 
L 438.604713 -246.602046 
L 441.251367 -246.721879 
L 443.89802 -246.879713 
L 446.544673 -247.071291 
L 449.191327 -247.417959 
L 451.83798 -247.576657 
L 454.484633 -247.687417 
L 457.131287 -247.895435 
L 459.77794 -248.056207 
L 462.424593 -248.03698 
L 465.071247 -248.18978 
L 467.7179 -248.306978 
L 470.364553 -248.678036 
L 473.011207 -249.016884 
L 475.65786 -249.182062 
L 478.304513 -249.324601 
L 480.951167 -249.287919 
L 483.59782 -249.33618 
L 486.244473 -249.46297 
L 488.891127 -249.561287 
L 491.53778 -249.755911 
L 494.184433 -250.017591 
L 496.831087 -250.258857 
L 499.47774 -250.399084 
L 502.124393 -250.632508 
L 504.771047 -250.631903 
L 507.4177 -250.752492 
L 510.064353 -250.964032 
L 512.711007 -250.809482 
L 515.35766 -251.11236 
L 518.004313 -251.171337 
L 520.650967 -251.403789 
L 523.29762 -251.531745 
L 525.944273 -251.683098 
L 528.590927 -251.772298 
L 531.23758 -251.818442 
L 533.884233 -251.90142 
L 536.530887 -252.056338 
L 539.17754 -252.249687 
L 541.824193 -252.538847 
L 544.470847 -252.850043 
L 547.1175 -252.980894 
L 549.764153 -253.204142 
L 552.410807 -253.376472 
L 555.05746 -253.566667 
L 557.704113 -253.635409 
L 560.350767 -253.708061 
L 562.99742 -253.801452 
L 565.644073 -254.007893 
L 568.290727 -254.172942 
L 570.93738 -254.24069 
L 573.584033 -254.417794 
L 576.230687 -254.441579 
L 578.87734 -254.495242 
L 581.523993 -254.653918 
L 584.170647 -254.831216 
L 586.8173 -255.012792 
L 589.463953 -255.05561 
L 592.110607 -255.231893 
L 594.75726 -255.180801 
L 597.403913 -255.388884 
L 600.050567 -255.433667 
L 602.69722 -255.581607 
L 605.343873 -255.665082 
L 607.990527 -255.855256 
L 610.63718 -255.952514 
L 613.283833 -255.991551 
L 615.930487 -256.085914 
L 618.57714 -256.06848 
L 621.223793 -256.085223 
L 623.870447 -256.232471 
L 626.5171 -256.592943 
L 629.163753 -256.680394 
L 631.810407 -256.708672 
L 634.45706 -256.856849 
L 637.103713 -256.890226 
L 639.750367 -256.965428 
L 642.39702 -257.048233 
L 645.043673 -257.223198 
L 647.690327 -257.187077 
L 650.33698 -257.250699 
L 652.983633 -257.245514 
L 655.630287 -257.609292 
L 658.27694 -257.70884 
L 660.923593 -257.881256 
L 663.570247 -257.967712 
L 666.2169 -258.111115 
L 668.863553 -258.260956 
L 671.510207 -258.37245 
L 674.15686 -258.519741 
L 676.803513 -258.652278 
L 679.450167 -258.739361 
L 682.09682 -258.782135 
L 684.743473 -258.757486 
L 687.390127 -258.764464 
L 690.03678 -258.77129 
L 692.683433 -258.833465 
L 695.330087 -259.033878 
L 697.97674 -259.253433 
L 700.623393 -259.343626 
L 703.270047 -259.474823 
L 705.9167 -259.598092 
L 708.563353 -259.704855 
L 711.210007 -259.747478 
L 713.85666 -259.855927 
L 716.503313 -260.059192 
L 719.149967 -260.215643 
L 721.79662 -260.243879 
L 724.443273 -260.227439 
L 727.089927 -260.337616 
L 729.73658 -260.371144 
L 732.383233 -260.494715 
L 735.029887 -260.505236 
L 737.67654 -260.443083 
L 740.323193 -260.575943 
L 742.969847 -260.705282 
L 745.6165 -260.728549 
L 748.263153 -260.93512 
L 750.909807 -260.936589 
L 753.55646 -261.046809 
L 756.203113 -261.202396 
L 758.849767 -261.250333 
L 761.49642 -261.405358 
L 764.143073 -261.461549 
L 766.789727 -261.582052 
L 769.43638 -261.628132 
L 772.083033 -261.964257 
L 774.729687 -262.053738 
L 777.37634 -262.164909 
L 780.022993 -262.199993 
L 782.669647 -262.404576 
L 785.3163 -262.41918 
L 787.962953 -262.640376 
L 790.609607 -262.642298 
L 793.25626 -262.668611 
L 795.902913 -262.840552 
L 798.549567 -262.906096 
L 801.19622 -262.980325 
L 803.842873 -263.07255 
L 806.489527 -263.133601 
L 809.13618 -263.32924 
L 811.782833 -263.413126 
L 814.429487 -263.417101 
L 817.07614 -263.488283 
L 819.722793 -263.574697 
L 822.369447 -263.6793 
L 825.0161 -263.6599 
L 827.662753 -263.567373 
L 830.309407 -263.706347 
L 832.95606 -263.745622 
L 835.602713 -263.918275 
L 838.249367 -263.949406 
L 840.89602 -264.104647 
L 843.542673 -264.224351 
L 843.542673 -372.674366 
L 843.542673 -372.674366 
L 840.89602 -372.672162 
L 838.249367 -372.717788 
L 835.602713 -372.701327 
L 832.95606 -372.805455 
L 830.309407 -372.725522 
L 827.662753 -372.749934 
L 825.0161 -372.613444 
L 822.369447 -372.49778 
L 819.722793 -372.501151 
L 817.07614 -372.497824 
L 814.429487 -372.489528 
L 811.782833 -372.428218 
L 809.13618 -372.359087 
L 806.489527 -372.49238 
L 803.842873 -372.469912 
L 801.19622 -372.487195 
L 798.549567 -372.50357 
L 795.902913 -372.430897 
L 793.25626 -372.482528 
L 790.609607 -372.435217 
L 787.962953 -372.368895 
L 785.3163 -372.460407 
L 782.669647 -372.357359 
L 780.022993 -372.421348 
L 777.37634 -372.347767 
L 774.729687 -372.326898 
L 772.083033 -372.317134 
L 769.43638 -372.429989 
L 766.789727 -372.391363 
L 764.143073 -372.387388 
L 761.49642 -372.393048 
L 758.849767 -372.399615 
L 756.203113 -372.32759 
L 753.55646 -372.347378 
L 750.909807 -372.335929 
L 748.263153 -372.299505 
L 745.6165 -372.349625 
L 742.969847 -372.291728 
L 740.323193 -372.385011 
L 737.67654 -372.407608 
L 735.029887 -372.26144 
L 732.383233 -372.244892 
L 729.73658 -372.23072 
L 727.089927 -372.224931 
L 724.443273 -372.255003 
L 721.79662 -372.077337 
L 719.149967 -372.03776 
L 716.503313 -372.032316 
L 713.85666 -372.094015 
L 711.210007 -372.110693 
L 708.563353 -372.083775 
L 705.9167 -372.012398 
L 703.270047 -371.980814 
L 700.623393 -371.980943 
L 697.97674 -371.949834 
L 695.330087 -372.011533 
L 692.683433 -372.013218 
L 690.03678 -371.91946 
L 687.390127 -371.852663 
L 684.743473 -371.799562 
L 682.09682 -371.666486 
L 679.450167 -371.634297 
L 676.803513 -371.534273 
L 674.15686 -371.58435 
L 671.510207 -371.613341 
L 668.863553 -371.586208 
L 666.2169 -371.60686 
L 663.570247 -371.597225 
L 660.923593 -371.509041 
L 658.27694 -371.51954 
L 655.630287 -371.471667 
L 652.983633 -371.597744 
L 650.33698 -371.50135 
L 647.690327 -371.454428 
L 645.043673 -371.375187 
L 642.39702 -371.452786 
L 639.750367 -371.381192 
L 637.103713 -371.321438 
L 634.45706 -371.226556 
L 631.810407 -371.185899 
L 629.163753 -371.113571 
L 626.5171 -371.096936 
L 623.870447 -371.209576 
L 621.223793 -371.206638 
L 618.57714 -371.092529 
L 615.930487 -370.941436 
L 613.283833 -370.905013 
L 610.63718 -370.823525 
L 607.990527 -370.82966 
L 605.343873 -370.866602 
L 602.69722 -370.817087 
L 600.050567 -370.759147 
L 597.403913 -370.68211 
L 594.75726 -370.675586 
L 592.110607 -370.510796 
L 589.463953 -370.501031 
L 586.8173 -370.415784 
L 584.170647 -370.405199 
L 581.523993 -370.419716 
L 578.87734 -370.427537 
L 576.230687 -370.276875 
L 573.584033 -370.238551 
L 570.93738 -370.324532 
L 568.290727 -370.200097 
L 565.644073 -370.184154 
L 562.99742 -370.286165 
L 560.350767 -370.229607 
L 557.704113 -370.174346 
L 555.05746 -370.096488 
L 552.410807 -370.110573 
L 549.764153 -370.111221 
L 547.1175 -370.167174 
L 544.470847 -370.181518 
L 541.824193 -370.22641 
L 539.17754 -370.250951 
L 536.530887 -370.241835 
L 533.884233 -370.208306 
L 531.23758 -370.108758 
L 528.590927 -370.038072 
L 525.944273 -369.897262 
L 523.29762 -369.808948 
L 520.650967 -369.783283 
L 518.004313 -369.779178 
L 515.35766 -369.675742 
L 512.711007 -369.747638 
L 510.064353 -369.501274 
L 507.4177 -369.528537 
L 504.771047 -369.476343 
L 502.124393 -369.308659 
L 499.47774 -369.26502 
L 496.831087 -369.255385 
L 494.184433 -369.255342 
L 491.53778 -369.302739 
L 488.891127 -369.325984 
L 486.244473 -369.26718 
L 483.59782 -369.16059 
L 480.951167 -369.065017 
L 478.304513 -368.807765 
L 475.65786 -368.778298 
L 473.011207 -368.717506 
L 470.364553 -368.801154 
L 467.7179 -368.889598 
L 465.071247 -368.755139 
L 462.424593 -368.670843 
L 459.77794 -368.504541 
L 457.131287 -368.479395 
L 454.484633 -368.442107 
L 451.83798 -368.394321 
L 449.191327 -368.332579 
L 446.544673 -368.39229 
L 443.89802 -368.345022 
L 441.251367 -368.257572 
L 438.604713 -368.159493 
L 435.95806 -368.043656 
L 433.311407 -367.82179 
L 430.664753 -367.847887 
L 428.0181 -367.818334 
L 425.371447 -367.814834 
L 422.724793 -367.622089 
L 420.07814 -367.533257 
L 417.431487 -367.532392 
L 414.784833 -367.479594 
L 412.13818 -367.431203 
L 409.491527 -367.442263 
L 406.844873 -367.317267 
L 404.19822 -367.356196 
L 401.551567 -367.409513 
L 398.904913 -367.283522 
L 396.25826 -367.046491 
L 393.611607 -366.979651 
L 390.964953 -366.945431 
L 388.3183 -367.034307 
L 385.671647 -366.949665 
L 383.024993 -366.884121 
L 380.37834 -366.882781 
L 377.731687 -366.836507 
L 375.085033 -366.859104 
L 372.43838 -366.687272 
L 369.791727 -366.528617 
L 367.145073 -366.36171 
L 364.49842 -366.224659 
L 361.851767 -366.131592 
L 359.205113 -366.070584 
L 356.55846 -366.049283 
L 353.911807 -365.913787 
L 351.265153 -365.688724 
L 348.6185 -365.516502 
L 345.971847 -365.543161 
L 343.325193 -365.283057 
L 340.67854 -365.297748 
L 338.031887 -365.118527 
L 335.385233 -365.013275 
L 332.73858 -364.782898 
L 330.091927 -364.831635 
L 327.445273 -364.791193 
L 324.79862 -364.834659 
L 322.151967 -364.8891 
L 319.505313 -364.792706 
L 316.85866 -364.774386 
L 314.212007 -364.644377 
L 311.565353 -364.555804 
L 308.9187 -364.713076 
L 306.272047 -364.733772 
L 303.625393 -364.674795 
L 300.97874 -364.356449 
L 298.332087 -364.204059 
L 295.685433 -363.943394 
L 293.03878 -363.783616 
L 290.392127 -363.441592 
L 287.745473 -363.440685 
L 285.09882 -363.088119 
L 282.452167 -362.931884 
L 279.805513 -362.776643 
L 277.15886 -362.529717 
L 274.512207 -362.502195 
L 271.865553 -362.337837 
L 269.2189 -362.533735 
L 266.572247 -362.287199 
L 263.925593 -362.153172 
L 261.27894 -361.967556 
L 258.632287 -361.665888 
L 255.985633 -361.713588 
L 253.33898 -361.580598 
L 250.692327 -361.437843 
L 248.045673 -361.218268 
L 245.39902 -361.163698 
L 242.752367 -361.048854 
L 240.105713 -361.008932 
L 237.45906 -360.916037 
L 234.812407 -360.606376 
L 232.165753 -360.489718 
L 229.5191 -360.455498 
L 226.872447 -360.456535 
L 224.225793 -360.031555 
L 221.57914 -360.093946 
L 218.932487 -359.965752 
L 216.285833 -359.805758 
L 213.63918 -359.654362 
L 210.992527 -359.484905 
L 208.345873 -359.281532 
L 205.69922 -358.930738 
L 203.052567 -358.797273 
L 200.405913 -358.493617 
L 197.75926 -358.25948 
L 195.112607 -358.010783 
L 192.465953 -357.903717 
L 189.8193 -357.813718 
L 187.172647 -357.351666 
L 184.525993 -356.752218 
L 181.87934 -356.364828 
L 179.232687 -356.110946 
L 176.586033 -355.622539 
L 173.93938 -355.135644 
L 171.292727 -354.928468 
L 168.646073 -354.586272 
L 165.99942 -354.355073 
L 163.352767 -354.109401 
L 160.706113 -354.133078 
L 158.05946 -354.002205 
L 155.412807 -353.636634 
L 152.766153 -353.26307 
L 150.1195 -353.176181 
L 147.472847 -352.964642 
L 144.826193 -352.870711 
L 142.17954 -352.385976 
L 139.532887 -351.881669 
L 136.886233 -351.754771 
L 134.23958 -351.549734 
L 131.592927 -351.342839 
L 128.946273 -350.674498 
L 126.29962 -350.213376 
L 123.652967 -349.531165 
L 121.006313 -348.962588 
L 118.35966 -348.070718 
L 115.713007 -347.151821 
L 113.066353 -346.555203 
L 110.4197 -346.027564 
L 107.773047 -345.422002 
L 105.126393 -345.012166 
L 102.47974 -344.103899 
L 99.833087 -343.906229 
L 97.186433 -342.562525 
L 94.53978 -341.947868 
L 91.893127 -341.490851 
L 89.246473 -340.157949 
L 86.59982 -339.191331 
L 83.953167 -338.202764 
L 81.306513 -337.335997 
L 78.65986 -336.242135 
L 76.013207 -334.635887 
L 73.366553 -332.662253 
L 70.7199 -330.59929 
L 68.073247 -327.339936 
L 65.426593 -324.365723 
L 62.77994 -320.822524 
L 60.133287 -316.575964 
L 57.486633 -312.937753 
L 54.83998 -305.700346 
L 52.193327 -304.873998 
z
" style="stroke: #0000ff; stroke-opacity: 0.2"/>
    </defs>
    <g clip-path="url(#pa386cf823d)">
     <use xlink:href="#mfae8391580" x="0" y="432" style="fill: #0000ff; fill-opacity: 0.2; stroke: #0000ff; stroke-opacity: 0.2"/>
    </g>
   </g>
   <g id="matplotlib.axis_1">
    <g id="xtick_1">
     <g id="line2d_1">
      <defs>
       <path id="m101185717b" d="M 0 0 
L 0 3.5 
" style="stroke: #000000; stroke-width: 0.8"/>
      </defs>
      <g>
       <use xlink:href="#m101185717b" x="181.87934" y="390.04" style="stroke: #000000; stroke-width: 0.8"/>
      </g>
     </g>
     <g id="text_1">
      <!-- 50 -->
      <g transform="translate(175.51684 404.638438) scale(0.1 -0.1)">
       <defs>
        <path id="DejaVuSans-35" d="M 691 4666 
L 3169 4666 
L 3169 4134 
L 1269 4134 
L 1269 2991 
Q 1406 3038 1543 3061 
Q 1681 3084 1819 3084 
Q 2600 3084 3056 2656 
Q 3513 2228 3513 1497 
Q 3513 744 3044 326 
Q 2575 -91 1722 -91 
Q 1428 -91 1123 -41 
Q 819 9 494 109 
L 494 744 
Q 775 591 1075 516 
Q 1375 441 1709 441 
Q 2250 441 2565 725 
Q 2881 1009 2881 1497 
Q 2881 1984 2565 2268 
Q 2250 2553 1709 2553 
Q 1456 2553 1204 2497 
Q 953 2441 691 2322 
L 691 4666 
z
" transform="scale(0.015625)"/>
        <path id="DejaVuSans-30" d="M 2034 4250 
Q 1547 4250 1301 3770 
Q 1056 3291 1056 2328 
Q 1056 1369 1301 889 
Q 1547 409 2034 409 
Q 2525 409 2770 889 
Q 3016 1369 3016 2328 
Q 3016 3291 2770 3770 
Q 2525 4250 2034 4250 
z
M 2034 4750 
Q 2819 4750 3233 4129 
Q 3647 3509 3647 2328 
Q 3647 1150 3233 529 
Q 2819 -91 2034 -91 
Q 1250 -91 836 529 
Q 422 1150 422 2328 
Q 422 3509 836 4129 
Q 1250 4750 2034 4750 
z
" transform="scale(0.015625)"/>
       </defs>
       <use xlink:href="#DejaVuSans-35"/>
       <use xlink:href="#DejaVuSans-30" transform="translate(63.623047 0)"/>
      </g>
     </g>
    </g>
    <g id="xtick_2">
     <g id="line2d_2">
      <g>
       <use xlink:href="#m101185717b" x="314.212007" y="390.04" style="stroke: #000000; stroke-width: 0.8"/>
      </g>
     </g>
     <g id="text_2">
      <!-- 100 -->
      <g transform="translate(304.668257 404.638438) scale(0.1 -0.1)">
       <defs>
        <path id="DejaVuSans-31" d="M 794 531 
L 1825 531 
L 1825 4091 
L 703 3866 
L 703 4441 
L 1819 4666 
L 2450 4666 
L 2450 531 
L 3481 531 
L 3481 0 
L 794 0 
L 794 531 
z
" transform="scale(0.015625)"/>
       </defs>
       <use xlink:href="#DejaVuSans-31"/>
       <use xlink:href="#DejaVuSans-30" transform="translate(63.623047 0)"/>
       <use xlink:href="#DejaVuSans-30" transform="translate(127.246094 0)"/>
      </g>
     </g>
    </g>
    <g id="xtick_3">
     <g id="line2d_3">
      <g>
       <use xlink:href="#m101185717b" x="446.544673" y="390.04" style="stroke: #000000; stroke-width: 0.8"/>
      </g>
     </g>
     <g id="text_3">
      <!-- 150 -->
      <g transform="translate(437.000923 404.638438) scale(0.1 -0.1)">
       <use xlink:href="#DejaVuSans-31"/>
       <use xlink:href="#DejaVuSans-35" transform="translate(63.623047 0)"/>
       <use xlink:href="#DejaVuSans-30" transform="translate(127.246094 0)"/>
      </g>
     </g>
    </g>
    <g id="xtick_4">
     <g id="line2d_4">
      <g>
       <use xlink:href="#m101185717b" x="578.87734" y="390.04" style="stroke: #000000; stroke-width: 0.8"/>
      </g>
     </g>
     <g id="text_4">
      <!-- 200 -->
      <g transform="translate(569.33359 404.638438) scale(0.1 -0.1)">
       <defs>
        <path id="DejaVuSans-32" d="M 1228 531 
L 3431 531 
L 3431 0 
L 469 0 
L 469 531 
Q 828 903 1448 1529 
Q 2069 2156 2228 2338 
Q 2531 2678 2651 2914 
Q 2772 3150 2772 3378 
Q 2772 3750 2511 3984 
Q 2250 4219 1831 4219 
Q 1534 4219 1204 4116 
Q 875 4013 500 3803 
L 500 4441 
Q 881 4594 1212 4672 
Q 1544 4750 1819 4750 
Q 2544 4750 2975 4387 
Q 3406 4025 3406 3419 
Q 3406 3131 3298 2873 
Q 3191 2616 2906 2266 
Q 2828 2175 2409 1742 
Q 1991 1309 1228 531 
z
" transform="scale(0.015625)"/>
       </defs>
       <use xlink:href="#DejaVuSans-32"/>
       <use xlink:href="#DejaVuSans-30" transform="translate(63.623047 0)"/>
       <use xlink:href="#DejaVuSans-30" transform="translate(127.246094 0)"/>
      </g>
     </g>
    </g>
    <g id="xtick_5">
     <g id="line2d_5">
      <g>
       <use xlink:href="#m101185717b" x="711.210007" y="390.04" style="stroke: #000000; stroke-width: 0.8"/>
      </g>
     </g>
     <g id="text_5">
      <!-- 250 -->
      <g transform="translate(701.666257 404.638438) scale(0.1 -0.1)">
       <use xlink:href="#DejaVuSans-32"/>
       <use xlink:href="#DejaVuSans-35" transform="translate(63.623047 0)"/>
       <use xlink:href="#DejaVuSans-30" transform="translate(127.246094 0)"/>
      </g>
     </g>
    </g>
    <g id="xtick_6">
     <g id="line2d_6">
      <g>
       <use xlink:href="#m101185717b" x="843.542673" y="390.04" style="stroke: #000000; stroke-width: 0.8"/>
      </g>
     </g>
     <g id="text_6">
      <!-- 300 -->
      <g transform="translate(833.998923 404.638438) scale(0.1 -0.1)">
       <defs>
        <path id="DejaVuSans-33" d="M 2597 2516 
Q 3050 2419 3304 2112 
Q 3559 1806 3559 1356 
Q 3559 666 3084 287 
Q 2609 -91 1734 -91 
Q 1441 -91 1130 -33 
Q 819 25 488 141 
L 488 750 
Q 750 597 1062 519 
Q 1375 441 1716 441 
Q 2309 441 2620 675 
Q 2931 909 2931 1356 
Q 2931 1769 2642 2001 
Q 2353 2234 1838 2234 
L 1294 2234 
L 1294 2753 
L 1863 2753 
Q 2328 2753 2575 2939 
Q 2822 3125 2822 3475 
Q 2822 3834 2567 4026 
Q 2313 4219 1838 4219 
Q 1578 4219 1281 4162 
Q 984 4106 628 3988 
L 628 4550 
Q 988 4650 1302 4700 
Q 1616 4750 1894 4750 
Q 2613 4750 3031 4423 
Q 3450 4097 3450 3541 
Q 3450 3153 3228 2886 
Q 3006 2619 2597 2516 
z
" transform="scale(0.015625)"/>
       </defs>
       <use xlink:href="#DejaVuSans-33"/>
       <use xlink:href="#DejaVuSans-30" transform="translate(63.623047 0)"/>
       <use xlink:href="#DejaVuSans-30" transform="translate(127.246094 0)"/>
      </g>
     </g>
    </g>
    <g id="text_7">
     <!-- Step -->
     <g transform="translate(436.482844 418.316562) scale(0.1 -0.1)">
      <defs>
       <path id="DejaVuSans-53" d="M 3425 4513 
L 3425 3897 
Q 3066 4069 2747 4153 
Q 2428 4238 2131 4238 
Q 1616 4238 1336 4038 
Q 1056 3838 1056 3469 
Q 1056 3159 1242 3001 
Q 1428 2844 1947 2747 
L 2328 2669 
Q 3034 2534 3370 2195 
Q 3706 1856 3706 1288 
Q 3706 609 3251 259 
Q 2797 -91 1919 -91 
Q 1588 -91 1214 -16 
Q 841 59 441 206 
L 441 856 
Q 825 641 1194 531 
Q 1563 422 1919 422 
Q 2459 422 2753 634 
Q 3047 847 3047 1241 
Q 3047 1584 2836 1778 
Q 2625 1972 2144 2069 
L 1759 2144 
Q 1053 2284 737 2584 
Q 422 2884 422 3419 
Q 422 4038 858 4394 
Q 1294 4750 2059 4750 
Q 2388 4750 2728 4690 
Q 3069 4631 3425 4513 
z
" transform="scale(0.015625)"/>
       <path id="DejaVuSans-74" d="M 1172 4494 
L 1172 3500 
L 2356 3500 
L 2356 3053 
L 1172 3053 
L 1172 1153 
Q 1172 725 1289 603 
Q 1406 481 1766 481 
L 2356 481 
L 2356 0 
L 1766 0 
Q 1100 0 847 248 
Q 594 497 594 1153 
L 594 3053 
L 172 3053 
L 172 3500 
L 594 3500 
L 594 4494 
L 1172 4494 
z
" transform="scale(0.015625)"/>
       <path id="DejaVuSans-65" d="M 3597 1894 
L 3597 1613 
L 953 1613 
Q 991 1019 1311 708 
Q 1631 397 2203 397 
Q 2534 397 2845 478 
Q 3156 559 3463 722 
L 3463 178 
Q 3153 47 2828 -22 
Q 2503 -91 2169 -91 
Q 1331 -91 842 396 
Q 353 884 353 1716 
Q 353 2575 817 3079 
Q 1281 3584 2069 3584 
Q 2775 3584 3186 3129 
Q 3597 2675 3597 1894 
z
M 3022 2063 
Q 3016 2534 2758 2815 
Q 2500 3097 2075 3097 
Q 1594 3097 1305 2825 
Q 1016 2553 972 2059 
L 3022 2063 
z
" transform="scale(0.015625)"/>
       <path id="DejaVuSans-70" d="M 1159 525 
L 1159 -1331 
L 581 -1331 
L 581 3500 
L 1159 3500 
L 1159 2969 
Q 1341 3281 1617 3432 
Q 1894 3584 2278 3584 
Q 2916 3584 3314 3078 
Q 3713 2572 3713 1747 
Q 3713 922 3314 415 
Q 2916 -91 2278 -91 
Q 1894 -91 1617 61 
Q 1341 213 1159 525 
z
M 3116 1747 
Q 3116 2381 2855 2742 
Q 2594 3103 2138 3103 
Q 1681 3103 1420 2742 
Q 1159 2381 1159 1747 
Q 1159 1113 1420 752 
Q 1681 391 2138 391 
Q 2594 391 2855 752 
Q 3116 1113 3116 1747 
z
" transform="scale(0.015625)"/>
      </defs>
      <use xlink:href="#DejaVuSans-53"/>
      <use xlink:href="#DejaVuSans-74" transform="translate(63.476562 0)"/>
      <use xlink:href="#DejaVuSans-65" transform="translate(102.685547 0)"/>
      <use xlink:href="#DejaVuSans-70" transform="translate(164.208984 0)"/>
     </g>
    </g>
   </g>
   <g id="matplotlib.axis_2">
    <g id="ytick_1">
     <g id="line2d_7">
      <defs>
       <path id="m0dea974211" d="M 0 0 
L -3.5 0 
" style="stroke: #000000; stroke-width: 0.8"/>
      </defs>
      <g>
       <use xlink:href="#m0dea974211" x="50.87" y="384.450011" style="stroke: #000000; stroke-width: 0.8"/>
      </g>
     </g>
     <g id="text_8">
      <!-- 20 -->
      <g transform="translate(31.145 388.249229) scale(0.1 -0.1)">
       <use xlink:href="#DejaVuSans-32"/>
       <use xlink:href="#DejaVuSans-30" transform="translate(63.623047 0)"/>
      </g>
     </g>
    </g>
    <g id="ytick_2">
     <g id="line2d_8">
      <g>
       <use xlink:href="#m0dea974211" x="50.87" y="327.818266" style="stroke: #000000; stroke-width: 0.8"/>
      </g>
     </g>
     <g id="text_9">
      <!-- 40 -->
      <g transform="translate(31.145 331.617485) scale(0.1 -0.1)">
       <defs>
        <path id="DejaVuSans-34" d="M 2419 4116 
L 825 1625 
L 2419 1625 
L 2419 4116 
z
M 2253 4666 
L 3047 4666 
L 3047 1625 
L 3713 1625 
L 3713 1100 
L 3047 1100 
L 3047 0 
L 2419 0 
L 2419 1100 
L 313 1100 
L 313 1709 
L 2253 4666 
z
" transform="scale(0.015625)"/>
       </defs>
       <use xlink:href="#DejaVuSans-34"/>
       <use xlink:href="#DejaVuSans-30" transform="translate(63.623047 0)"/>
      </g>
     </g>
    </g>
    <g id="ytick_3">
     <g id="line2d_9">
      <g>
       <use xlink:href="#m0dea974211" x="50.87" y="271.186522" style="stroke: #000000; stroke-width: 0.8"/>
      </g>
     </g>
     <g id="text_10">
      <!-- 60 -->
      <g transform="translate(31.145 274.985741) scale(0.1 -0.1)">
       <defs>
        <path id="DejaVuSans-36" d="M 2113 2584 
Q 1688 2584 1439 2293 
Q 1191 2003 1191 1497 
Q 1191 994 1439 701 
Q 1688 409 2113 409 
Q 2538 409 2786 701 
Q 3034 994 3034 1497 
Q 3034 2003 2786 2293 
Q 2538 2584 2113 2584 
z
M 3366 4563 
L 3366 3988 
Q 3128 4100 2886 4159 
Q 2644 4219 2406 4219 
Q 1781 4219 1451 3797 
Q 1122 3375 1075 2522 
Q 1259 2794 1537 2939 
Q 1816 3084 2150 3084 
Q 2853 3084 3261 2657 
Q 3669 2231 3669 1497 
Q 3669 778 3244 343 
Q 2819 -91 2113 -91 
Q 1303 -91 875 529 
Q 447 1150 447 2328 
Q 447 3434 972 4092 
Q 1497 4750 2381 4750 
Q 2619 4750 2861 4703 
Q 3103 4656 3366 4563 
z
" transform="scale(0.015625)"/>
       </defs>
       <use xlink:href="#DejaVuSans-36"/>
       <use xlink:href="#DejaVuSans-30" transform="translate(63.623047 0)"/>
      </g>
     </g>
    </g>
    <g id="ytick_4">
     <g id="line2d_10">
      <g>
       <use xlink:href="#m0dea974211" x="50.87" y="214.554778" style="stroke: #000000; stroke-width: 0.8"/>
      </g>
     </g>
     <g id="text_11">
      <!-- 80 -->
      <g transform="translate(31.145 218.353997) scale(0.1 -0.1)">
       <defs>
        <path id="DejaVuSans-38" d="M 2034 2216 
Q 1584 2216 1326 1975 
Q 1069 1734 1069 1313 
Q 1069 891 1326 650 
Q 1584 409 2034 409 
Q 2484 409 2743 651 
Q 3003 894 3003 1313 
Q 3003 1734 2745 1975 
Q 2488 2216 2034 2216 
z
M 1403 2484 
Q 997 2584 770 2862 
Q 544 3141 544 3541 
Q 544 4100 942 4425 
Q 1341 4750 2034 4750 
Q 2731 4750 3128 4425 
Q 3525 4100 3525 3541 
Q 3525 3141 3298 2862 
Q 3072 2584 2669 2484 
Q 3125 2378 3379 2068 
Q 3634 1759 3634 1313 
Q 3634 634 3220 271 
Q 2806 -91 2034 -91 
Q 1263 -91 848 271 
Q 434 634 434 1313 
Q 434 1759 690 2068 
Q 947 2378 1403 2484 
z
M 1172 3481 
Q 1172 3119 1398 2916 
Q 1625 2713 2034 2713 
Q 2441 2713 2670 2916 
Q 2900 3119 2900 3481 
Q 2900 3844 2670 4047 
Q 2441 4250 2034 4250 
Q 1625 4250 1398 4047 
Q 1172 3844 1172 3481 
z
" transform="scale(0.015625)"/>
       </defs>
       <use xlink:href="#DejaVuSans-38"/>
       <use xlink:href="#DejaVuSans-30" transform="translate(63.623047 0)"/>
      </g>
     </g>
    </g>
    <g id="ytick_5">
     <g id="line2d_11">
      <g>
       <use xlink:href="#m0dea974211" x="50.87" y="157.923034" style="stroke: #000000; stroke-width: 0.8"/>
      </g>
     </g>
     <g id="text_12">
      <!-- 100 -->
      <g transform="translate(24.7825 161.722253) scale(0.1 -0.1)">
       <use xlink:href="#DejaVuSans-31"/>
       <use xlink:href="#DejaVuSans-30" transform="translate(63.623047 0)"/>
       <use xlink:href="#DejaVuSans-30" transform="translate(127.246094 0)"/>
      </g>
     </g>
    </g>
    <g id="ytick_6">
     <g id="line2d_12">
      <g>
       <use xlink:href="#m0dea974211" x="50.87" y="101.29129" style="stroke: #000000; stroke-width: 0.8"/>
      </g>
     </g>
     <g id="text_13">
      <!-- 120 -->
      <g transform="translate(24.7825 105.090508) scale(0.1 -0.1)">
       <use xlink:href="#DejaVuSans-31"/>
       <use xlink:href="#DejaVuSans-32" transform="translate(63.623047 0)"/>
       <use xlink:href="#DejaVuSans-30" transform="translate(127.246094 0)"/>
      </g>
     </g>
    </g>
    <g id="ytick_7">
     <g id="line2d_13">
      <g>
       <use xlink:href="#m0dea974211" x="50.87" y="44.659545" style="stroke: #000000; stroke-width: 0.8"/>
      </g>
     </g>
     <g id="text_14">
      <!-- 140 -->
      <g transform="translate(24.7825 48.458764) scale(0.1 -0.1)">
       <use xlink:href="#DejaVuSans-31"/>
       <use xlink:href="#DejaVuSans-34" transform="translate(63.623047 0)"/>
       <use xlink:href="#DejaVuSans-30" transform="translate(127.246094 0)"/>
      </g>
     </g>
    </g>
    <g id="text_15">
     <!-- Profit -->
     <g transform="translate(18.702813 229.779063) rotate(-90) scale(0.1 -0.1)">
      <defs>
       <path id="DejaVuSans-50" d="M 1259 4147 
L 1259 2394 
L 2053 2394 
Q 2494 2394 2734 2622 
Q 2975 2850 2975 3272 
Q 2975 3691 2734 3919 
Q 2494 4147 2053 4147 
L 1259 4147 
z
M 628 4666 
L 2053 4666 
Q 2838 4666 3239 4311 
Q 3641 3956 3641 3272 
Q 3641 2581 3239 2228 
Q 2838 1875 2053 1875 
L 1259 1875 
L 1259 0 
L 628 0 
L 628 4666 
z
" transform="scale(0.015625)"/>
       <path id="DejaVuSans-72" d="M 2631 2963 
Q 2534 3019 2420 3045 
Q 2306 3072 2169 3072 
Q 1681 3072 1420 2755 
Q 1159 2438 1159 1844 
L 1159 0 
L 581 0 
L 581 3500 
L 1159 3500 
L 1159 2956 
Q 1341 3275 1631 3429 
Q 1922 3584 2338 3584 
Q 2397 3584 2469 3576 
Q 2541 3569 2628 3553 
L 2631 2963 
z
" transform="scale(0.015625)"/>
       <path id="DejaVuSans-6f" d="M 1959 3097 
Q 1497 3097 1228 2736 
Q 959 2375 959 1747 
Q 959 1119 1226 758 
Q 1494 397 1959 397 
Q 2419 397 2687 759 
Q 2956 1122 2956 1747 
Q 2956 2369 2687 2733 
Q 2419 3097 1959 3097 
z
M 1959 3584 
Q 2709 3584 3137 3096 
Q 3566 2609 3566 1747 
Q 3566 888 3137 398 
Q 2709 -91 1959 -91 
Q 1206 -91 779 398 
Q 353 888 353 1747 
Q 353 2609 779 3096 
Q 1206 3584 1959 3584 
z
" transform="scale(0.015625)"/>
       <path id="DejaVuSans-66" d="M 2375 4863 
L 2375 4384 
L 1825 4384 
Q 1516 4384 1395 4259 
Q 1275 4134 1275 3809 
L 1275 3500 
L 2222 3500 
L 2222 3053 
L 1275 3053 
L 1275 0 
L 697 0 
L 697 3053 
L 147 3053 
L 147 3500 
L 697 3500 
L 697 3744 
Q 697 4328 969 4595 
Q 1241 4863 1831 4863 
L 2375 4863 
z
" transform="scale(0.015625)"/>
       <path id="DejaVuSans-69" d="M 603 3500 
L 1178 3500 
L 1178 0 
L 603 0 
L 603 3500 
z
M 603 4863 
L 1178 4863 
L 1178 4134 
L 603 4134 
L 603 4863 
z
" transform="scale(0.015625)"/>
      </defs>
      <use xlink:href="#DejaVuSans-50"/>
      <use xlink:href="#DejaVuSans-72" transform="translate(58.552734 0)"/>
      <use xlink:href="#DejaVuSans-6f" transform="translate(97.416016 0)"/>
      <use xlink:href="#DejaVuSans-66" transform="translate(158.597656 0)"/>
      <use xlink:href="#DejaVuSans-69" transform="translate(193.802734 0)"/>
      <use xlink:href="#DejaVuSans-74" transform="translate(221.585938 0)"/>
     </g>
    </g>
   </g>
   <g id="line2d_14">
    <path d="M 52.193327 250.344267 
L 54.83998 250.292549 
L 57.486633 241.559244 
L 60.133287 233.299828 
L 62.77994 225.908347 
L 65.426593 219.265982 
L 68.073247 213.695291 
L 70.7199 208.475956 
L 73.366553 204.184656 
L 76.013207 200.205739 
L 81.306513 193.10884 
L 86.59982 187.061063 
L 91.893127 182.098353 
L 97.186433 177.890593 
L 99.833087 175.84407 
L 102.47974 173.9861 
L 107.773047 170.699396 
L 110.4197 169.410586 
L 113.066353 167.939553 
L 121.006313 164.077813 
L 131.592927 159.793361 
L 136.886233 157.908905 
L 142.17954 156.178481 
L 147.472847 154.657328 
L 150.1195 153.998125 
L 152.766153 153.215913 
L 163.352767 150.692043 
L 165.99942 150.14844 
L 168.646073 149.460634 
L 173.93938 148.480514 
L 179.232687 147.329469 
L 216.285833 141.152914 
L 224.225793 140.121616 
L 229.5191 139.342968 
L 237.45906 138.372829 
L 242.752367 137.758604 
L 258.632287 136.205262 
L 266.572247 135.411319 
L 303.625393 132.310728 
L 319.505313 131.208917 
L 330.091927 130.385572 
L 388.3183 127.014161 
L 409.491527 125.88096 
L 446.544673 124.26821 
L 454.484633 123.935238 
L 478.304513 122.933817 
L 496.831087 122.242879 
L 512.711007 121.72144 
L 528.590927 121.094815 
L 536.530887 120.850914 
L 560.350767 120.031155 
L 645.043673 117.700808 
L 652.983633 117.57836 
L 660.923593 117.304841 
L 674.15686 116.947954 
L 692.683433 116.576659 
L 703.270047 116.272182 
L 724.443273 115.758779 
L 769.43638 114.970929 
L 777.37634 114.743662 
L 825.0161 113.863328 
L 838.249367 113.666392 
L 843.542673 113.550642 
L 843.542673 113.550642 
" clip-path="url(#pa386cf823d)" style="fill: none; stroke: #0000ff; stroke-width: 1.5; stroke-linecap: square"/>
   </g>
   <g id="patch_3">
    <path d="M 50.87 390.04 
L 50.87 43.44 
" style="fill: none; stroke: #000000; stroke-width: 0.8; stroke-linejoin: miter; stroke-linecap: square"/>
   </g>
   <g id="patch_4">
    <path d="M 844.866 390.04 
L 844.866 43.44 
" style="fill: none; stroke: #000000; stroke-width: 0.8; stroke-linejoin: miter; stroke-linecap: square"/>
   </g>
   <g id="patch_5">
    <path d="M 50.87 390.04 
L 844.866 390.04 
" style="fill: none; stroke: #000000; stroke-width: 0.8; stroke-linejoin: miter; stroke-linecap: square"/>
   </g>
   <g id="patch_6">
    <path d="M 50.87 43.44 
L 844.866 43.44 
" style="fill: none; stroke: #000000; stroke-width: 0.8; stroke-linejoin: miter; stroke-linecap: square"/>
   </g>
   <g id="text_16">
    <!-- Mean profit per step with confidence interval per simulation step -->
    <g transform="translate(220.284875 21.763062) scale(0.14 -0.14)">
     <defs>
      <path id="DejaVuSans-4d" d="M 628 4666 
L 1569 4666 
L 2759 1491 
L 3956 4666 
L 4897 4666 
L 4897 0 
L 4281 0 
L 4281 4097 
L 3078 897 
L 2444 897 
L 1241 4097 
L 1241 0 
L 628 0 
L 628 4666 
z
" transform="scale(0.015625)"/>
      <path id="DejaVuSans-61" d="M 2194 1759 
Q 1497 1759 1228 1600 
Q 959 1441 959 1056 
Q 959 750 1161 570 
Q 1363 391 1709 391 
Q 2188 391 2477 730 
Q 2766 1069 2766 1631 
L 2766 1759 
L 2194 1759 
z
M 3341 1997 
L 3341 0 
L 2766 0 
L 2766 531 
Q 2569 213 2275 61 
Q 1981 -91 1556 -91 
Q 1019 -91 701 211 
Q 384 513 384 1019 
Q 384 1609 779 1909 
Q 1175 2209 1959 2209 
L 2766 2209 
L 2766 2266 
Q 2766 2663 2505 2880 
Q 2244 3097 1772 3097 
Q 1472 3097 1187 3025 
Q 903 2953 641 2809 
L 641 3341 
Q 956 3463 1253 3523 
Q 1550 3584 1831 3584 
Q 2591 3584 2966 3190 
Q 3341 2797 3341 1997 
z
" transform="scale(0.015625)"/>
      <path id="DejaVuSans-6e" d="M 3513 2113 
L 3513 0 
L 2938 0 
L 2938 2094 
Q 2938 2591 2744 2837 
Q 2550 3084 2163 3084 
Q 1697 3084 1428 2787 
Q 1159 2491 1159 1978 
L 1159 0 
L 581 0 
L 581 3500 
L 1159 3500 
L 1159 2956 
Q 1366 3272 1645 3428 
Q 1925 3584 2291 3584 
Q 2894 3584 3203 3211 
Q 3513 2838 3513 2113 
z
" transform="scale(0.015625)"/>
      <path id="DejaVuSans-20" transform="scale(0.015625)"/>
      <path id="DejaVuSans-73" d="M 2834 3397 
L 2834 2853 
Q 2591 2978 2328 3040 
Q 2066 3103 1784 3103 
Q 1356 3103 1142 2972 
Q 928 2841 928 2578 
Q 928 2378 1081 2264 
Q 1234 2150 1697 2047 
L 1894 2003 
Q 2506 1872 2764 1633 
Q 3022 1394 3022 966 
Q 3022 478 2636 193 
Q 2250 -91 1575 -91 
Q 1294 -91 989 -36 
Q 684 19 347 128 
L 347 722 
Q 666 556 975 473 
Q 1284 391 1588 391 
Q 1994 391 2212 530 
Q 2431 669 2431 922 
Q 2431 1156 2273 1281 
Q 2116 1406 1581 1522 
L 1381 1569 
Q 847 1681 609 1914 
Q 372 2147 372 2553 
Q 372 3047 722 3315 
Q 1072 3584 1716 3584 
Q 2034 3584 2315 3537 
Q 2597 3491 2834 3397 
z
" transform="scale(0.015625)"/>
      <path id="DejaVuSans-77" d="M 269 3500 
L 844 3500 
L 1563 769 
L 2278 3500 
L 2956 3500 
L 3675 769 
L 4391 3500 
L 4966 3500 
L 4050 0 
L 3372 0 
L 2619 2869 
L 1863 0 
L 1184 0 
L 269 3500 
z
" transform="scale(0.015625)"/>
      <path id="DejaVuSans-68" d="M 3513 2113 
L 3513 0 
L 2938 0 
L 2938 2094 
Q 2938 2591 2744 2837 
Q 2550 3084 2163 3084 
Q 1697 3084 1428 2787 
Q 1159 2491 1159 1978 
L 1159 0 
L 581 0 
L 581 4863 
L 1159 4863 
L 1159 2956 
Q 1366 3272 1645 3428 
Q 1925 3584 2291 3584 
Q 2894 3584 3203 3211 
Q 3513 2838 3513 2113 
z
" transform="scale(0.015625)"/>
      <path id="DejaVuSans-63" d="M 3122 3366 
L 3122 2828 
Q 2878 2963 2633 3030 
Q 2388 3097 2138 3097 
Q 1578 3097 1268 2742 
Q 959 2388 959 1747 
Q 959 1106 1268 751 
Q 1578 397 2138 397 
Q 2388 397 2633 464 
Q 2878 531 3122 666 
L 3122 134 
Q 2881 22 2623 -34 
Q 2366 -91 2075 -91 
Q 1284 -91 818 406 
Q 353 903 353 1747 
Q 353 2603 823 3093 
Q 1294 3584 2113 3584 
Q 2378 3584 2631 3529 
Q 2884 3475 3122 3366 
z
" transform="scale(0.015625)"/>
      <path id="DejaVuSans-64" d="M 2906 2969 
L 2906 4863 
L 3481 4863 
L 3481 0 
L 2906 0 
L 2906 525 
Q 2725 213 2448 61 
Q 2172 -91 1784 -91 
Q 1150 -91 751 415 
Q 353 922 353 1747 
Q 353 2572 751 3078 
Q 1150 3584 1784 3584 
Q 2172 3584 2448 3432 
Q 2725 3281 2906 2969 
z
M 947 1747 
Q 947 1113 1208 752 
Q 1469 391 1925 391 
Q 2381 391 2643 752 
Q 2906 1113 2906 1747 
Q 2906 2381 2643 2742 
Q 2381 3103 1925 3103 
Q 1469 3103 1208 2742 
Q 947 2381 947 1747 
z
" transform="scale(0.015625)"/>
      <path id="DejaVuSans-76" d="M 191 3500 
L 800 3500 
L 1894 563 
L 2988 3500 
L 3597 3500 
L 2284 0 
L 1503 0 
L 191 3500 
z
" transform="scale(0.015625)"/>
      <path id="DejaVuSans-6c" d="M 603 4863 
L 1178 4863 
L 1178 0 
L 603 0 
L 603 4863 
z
" transform="scale(0.015625)"/>
      <path id="DejaVuSans-6d" d="M 3328 2828 
Q 3544 3216 3844 3400 
Q 4144 3584 4550 3584 
Q 5097 3584 5394 3201 
Q 5691 2819 5691 2113 
L 5691 0 
L 5113 0 
L 5113 2094 
Q 5113 2597 4934 2840 
Q 4756 3084 4391 3084 
Q 3944 3084 3684 2787 
Q 3425 2491 3425 1978 
L 3425 0 
L 2847 0 
L 2847 2094 
Q 2847 2600 2669 2842 
Q 2491 3084 2119 3084 
Q 1678 3084 1418 2786 
Q 1159 2488 1159 1978 
L 1159 0 
L 581 0 
L 581 3500 
L 1159 3500 
L 1159 2956 
Q 1356 3278 1631 3431 
Q 1906 3584 2284 3584 
Q 2666 3584 2933 3390 
Q 3200 3197 3328 2828 
z
" transform="scale(0.015625)"/>
      <path id="DejaVuSans-75" d="M 544 1381 
L 544 3500 
L 1119 3500 
L 1119 1403 
Q 1119 906 1312 657 
Q 1506 409 1894 409 
Q 2359 409 2629 706 
Q 2900 1003 2900 1516 
L 2900 3500 
L 3475 3500 
L 3475 0 
L 2900 0 
L 2900 538 
Q 2691 219 2414 64 
Q 2138 -91 1772 -91 
Q 1169 -91 856 284 
Q 544 659 544 1381 
z
M 1991 3584 
L 1991 3584 
z
" transform="scale(0.015625)"/>
     </defs>
     <use xlink:href="#DejaVuSans-4d"/>
     <use xlink:href="#DejaVuSans-65" transform="translate(86.279297 0)"/>
     <use xlink:href="#DejaVuSans-61" transform="translate(147.802734 0)"/>
     <use xlink:href="#DejaVuSans-6e" transform="translate(209.082031 0)"/>
     <use xlink:href="#DejaVuSans-20" transform="translate(272.460938 0)"/>
     <use xlink:href="#DejaVuSans-70" transform="translate(304.248047 0)"/>
     <use xlink:href="#DejaVuSans-72" transform="translate(367.724609 0)"/>
     <use xlink:href="#DejaVuSans-6f" transform="translate(406.587891 0)"/>
     <use xlink:href="#DejaVuSans-66" transform="translate(467.769531 0)"/>
     <use xlink:href="#DejaVuSans-69" transform="translate(502.974609 0)"/>
     <use xlink:href="#DejaVuSans-74" transform="translate(530.757812 0)"/>
     <use xlink:href="#DejaVuSans-20" transform="translate(569.966797 0)"/>
     <use xlink:href="#DejaVuSans-70" transform="translate(601.753906 0)"/>
     <use xlink:href="#DejaVuSans-65" transform="translate(665.230469 0)"/>
     <use xlink:href="#DejaVuSans-72" transform="translate(726.753906 0)"/>
     <use xlink:href="#DejaVuSans-20" transform="translate(767.867188 0)"/>
     <use xlink:href="#DejaVuSans-73" transform="translate(799.654297 0)"/>
     <use xlink:href="#DejaVuSans-74" transform="translate(851.753906 0)"/>
     <use xlink:href="#DejaVuSans-65" transform="translate(890.962891 0)"/>
     <use xlink:href="#DejaVuSans-70" transform="translate(952.486328 0)"/>
     <use xlink:href="#DejaVuSans-20" transform="translate(1015.962891 0)"/>
     <use xlink:href="#DejaVuSans-77" transform="translate(1047.75 0)"/>
     <use xlink:href="#DejaVuSans-69" transform="translate(1129.537109 0)"/>
     <use xlink:href="#DejaVuSans-74" transform="translate(1157.320312 0)"/>
     <use xlink:href="#DejaVuSans-68" transform="translate(1196.529297 0)"/>
     <use xlink:href="#DejaVuSans-20" transform="translate(1259.908203 0)"/>
     <use xlink:href="#DejaVuSans-63" transform="translate(1291.695312 0)"/>
     <use xlink:href="#DejaVuSans-6f" transform="translate(1346.675781 0)"/>
     <use xlink:href="#DejaVuSans-6e" transform="translate(1407.857422 0)"/>
     <use xlink:href="#DejaVuSans-66" transform="translate(1471.236328 0)"/>
     <use xlink:href="#DejaVuSans-69" transform="translate(1506.441406 0)"/>
     <use xlink:href="#DejaVuSans-64" transform="translate(1534.224609 0)"/>
     <use xlink:href="#DejaVuSans-65" transform="translate(1597.701172 0)"/>
     <use xlink:href="#DejaVuSans-6e" transform="translate(1659.224609 0)"/>
     <use xlink:href="#DejaVuSans-63" transform="translate(1722.603516 0)"/>
     <use xlink:href="#DejaVuSans-65" transform="translate(1777.583984 0)"/>
     <use xlink:href="#DejaVuSans-20" transform="translate(1839.107422 0)"/>
     <use xlink:href="#DejaVuSans-69" transform="translate(1870.894531 0)"/>
     <use xlink:href="#DejaVuSans-6e" transform="translate(1898.677734 0)"/>
     <use xlink:href="#DejaVuSans-74" transform="translate(1962.056641 0)"/>
     <use xlink:href="#DejaVuSans-65" transform="translate(2001.265625 0)"/>
     <use xlink:href="#DejaVuSans-72" transform="translate(2062.789062 0)"/>
     <use xlink:href="#DejaVuSans-76" transform="translate(2103.902344 0)"/>
     <use xlink:href="#DejaVuSans-61" transform="translate(2163.082031 0)"/>
     <use xlink:href="#DejaVuSans-6c" transform="translate(2224.361328 0)"/>
     <use xlink:href="#DejaVuSans-20" transform="translate(2252.144531 0)"/>
     <use xlink:href="#DejaVuSans-70" transform="translate(2283.931641 0)"/>
     <use xlink:href="#DejaVuSans-65" transform="translate(2347.408203 0)"/>
     <use xlink:href="#DejaVuSans-72" transform="translate(2408.931641 0)"/>
     <use xlink:href="#DejaVuSans-20" transform="translate(2450.044922 0)"/>
     <use xlink:href="#DejaVuSans-73" transform="translate(2481.832031 0)"/>
     <use xlink:href="#DejaVuSans-69" transform="translate(2533.931641 0)"/>
     <use xlink:href="#DejaVuSans-6d" transform="translate(2561.714844 0)"/>
     <use xlink:href="#DejaVuSans-75" transform="translate(2659.126953 0)"/>
     <use xlink:href="#DejaVuSans-6c" transform="translate(2722.505859 0)"/>
     <use xlink:href="#DejaVuSans-61" transform="translate(2750.289062 0)"/>
     <use xlink:href="#DejaVuSans-74" transform="translate(2811.568359 0)"/>
     <use xlink:href="#DejaVuSans-69" transform="translate(2850.777344 0)"/>
     <use xlink:href="#DejaVuSans-6f" transform="translate(2878.560547 0)"/>
     <use xlink:href="#DejaVuSans-6e" transform="translate(2939.742188 0)"/>
     <use xlink:href="#DejaVuSans-20" transform="translate(3003.121094 0)"/>
     <use xlink:href="#DejaVuSans-73" transform="translate(3034.908203 0)"/>
     <use xlink:href="#DejaVuSans-74" transform="translate(3087.007812 0)"/>
     <use xlink:href="#DejaVuSans-65" transform="translate(3126.216797 0)"/>
     <use xlink:href="#DejaVuSans-70" transform="translate(3187.740234 0)"/>
    </g>
    <!-- Base Product: OG Kush, Recipe size: 7, T0: 10.0 -->
    <g transform="translate(281.490031 37.44) scale(0.14 -0.14)">
     <defs>
      <path id="DejaVuSans-42" d="M 1259 2228 
L 1259 519 
L 2272 519 
Q 2781 519 3026 730 
Q 3272 941 3272 1375 
Q 3272 1813 3026 2020 
Q 2781 2228 2272 2228 
L 1259 2228 
z
M 1259 4147 
L 1259 2741 
L 2194 2741 
Q 2656 2741 2882 2914 
Q 3109 3088 3109 3444 
Q 3109 3797 2882 3972 
Q 2656 4147 2194 4147 
L 1259 4147 
z
M 628 4666 
L 2241 4666 
Q 2963 4666 3353 4366 
Q 3744 4066 3744 3513 
Q 3744 3084 3544 2831 
Q 3344 2578 2956 2516 
Q 3422 2416 3680 2098 
Q 3938 1781 3938 1306 
Q 3938 681 3513 340 
Q 3088 0 2303 0 
L 628 0 
L 628 4666 
z
" transform="scale(0.015625)"/>
      <path id="DejaVuSans-3a" d="M 750 794 
L 1409 794 
L 1409 0 
L 750 0 
L 750 794 
z
M 750 3309 
L 1409 3309 
L 1409 2516 
L 750 2516 
L 750 3309 
z
" transform="scale(0.015625)"/>
      <path id="DejaVuSans-4f" d="M 2522 4238 
Q 1834 4238 1429 3725 
Q 1025 3213 1025 2328 
Q 1025 1447 1429 934 
Q 1834 422 2522 422 
Q 3209 422 3611 934 
Q 4013 1447 4013 2328 
Q 4013 3213 3611 3725 
Q 3209 4238 2522 4238 
z
M 2522 4750 
Q 3503 4750 4090 4092 
Q 4678 3434 4678 2328 
Q 4678 1225 4090 567 
Q 3503 -91 2522 -91 
Q 1538 -91 948 565 
Q 359 1222 359 2328 
Q 359 3434 948 4092 
Q 1538 4750 2522 4750 
z
" transform="scale(0.015625)"/>
      <path id="DejaVuSans-47" d="M 3809 666 
L 3809 1919 
L 2778 1919 
L 2778 2438 
L 4434 2438 
L 4434 434 
Q 4069 175 3628 42 
Q 3188 -91 2688 -91 
Q 1594 -91 976 548 
Q 359 1188 359 2328 
Q 359 3472 976 4111 
Q 1594 4750 2688 4750 
Q 3144 4750 3555 4637 
Q 3966 4525 4313 4306 
L 4313 3634 
Q 3963 3931 3569 4081 
Q 3175 4231 2741 4231 
Q 1884 4231 1454 3753 
Q 1025 3275 1025 2328 
Q 1025 1384 1454 906 
Q 1884 428 2741 428 
Q 3075 428 3337 486 
Q 3600 544 3809 666 
z
" transform="scale(0.015625)"/>
      <path id="DejaVuSans-4b" d="M 628 4666 
L 1259 4666 
L 1259 2694 
L 3353 4666 
L 4166 4666 
L 1850 2491 
L 4331 0 
L 3500 0 
L 1259 2247 
L 1259 0 
L 628 0 
L 628 4666 
z
" transform="scale(0.015625)"/>
      <path id="DejaVuSans-2c" d="M 750 794 
L 1409 794 
L 1409 256 
L 897 -744 
L 494 -744 
L 750 256 
L 750 794 
z
" transform="scale(0.015625)"/>
      <path id="DejaVuSans-52" d="M 2841 2188 
Q 3044 2119 3236 1894 
Q 3428 1669 3622 1275 
L 4263 0 
L 3584 0 
L 2988 1197 
Q 2756 1666 2539 1819 
Q 2322 1972 1947 1972 
L 1259 1972 
L 1259 0 
L 628 0 
L 628 4666 
L 2053 4666 
Q 2853 4666 3247 4331 
Q 3641 3997 3641 3322 
Q 3641 2881 3436 2590 
Q 3231 2300 2841 2188 
z
M 1259 4147 
L 1259 2491 
L 2053 2491 
Q 2509 2491 2742 2702 
Q 2975 2913 2975 3322 
Q 2975 3731 2742 3939 
Q 2509 4147 2053 4147 
L 1259 4147 
z
" transform="scale(0.015625)"/>
      <path id="DejaVuSans-7a" d="M 353 3500 
L 3084 3500 
L 3084 2975 
L 922 459 
L 3084 459 
L 3084 0 
L 275 0 
L 275 525 
L 2438 3041 
L 353 3041 
L 353 3500 
z
" transform="scale(0.015625)"/>
      <path id="DejaVuSans-37" d="M 525 4666 
L 3525 4666 
L 3525 4397 
L 1831 0 
L 1172 0 
L 2766 4134 
L 525 4134 
L 525 4666 
z
" transform="scale(0.015625)"/>
      <path id="DejaVuSans-54" d="M -19 4666 
L 3928 4666 
L 3928 4134 
L 2272 4134 
L 2272 0 
L 1638 0 
L 1638 4134 
L -19 4134 
L -19 4666 
z
" transform="scale(0.015625)"/>
      <path id="DejaVuSans-2e" d="M 684 794 
L 1344 794 
L 1344 0 
L 684 0 
L 684 794 
z
" transform="scale(0.015625)"/>
     </defs>
     <use xlink:href="#DejaVuSans-42"/>
     <use xlink:href="#DejaVuSans-61" transform="translate(68.603516 0)"/>
     <use xlink:href="#DejaVuSans-73" transform="translate(129.882812 0)"/>
     <use xlink:href="#DejaVuSans-65" transform="translate(181.982422 0)"/>
     <use xlink:href="#DejaVuSans-20" transform="translate(243.505859 0)"/>
     <use xlink:href="#DejaVuSans-50" transform="translate(275.292969 0)"/>
     <use xlink:href="#DejaVuSans-72" transform="translate(333.845703 0)"/>
     <use xlink:href="#DejaVuSans-6f" transform="translate(372.708984 0)"/>
     <use xlink:href="#DejaVuSans-64" transform="translate(433.890625 0)"/>
     <use xlink:href="#DejaVuSans-75" transform="translate(497.367188 0)"/>
     <use xlink:href="#DejaVuSans-63" transform="translate(560.746094 0)"/>
     <use xlink:href="#DejaVuSans-74" transform="translate(615.726562 0)"/>
     <use xlink:href="#DejaVuSans-3a" transform="translate(654.935547 0)"/>
     <use xlink:href="#DejaVuSans-20" transform="translate(688.626953 0)"/>
     <use xlink:href="#DejaVuSans-4f" transform="translate(720.414062 0)"/>
     <use xlink:href="#DejaVuSans-47" transform="translate(799.125 0)"/>
     <use xlink:href="#DejaVuSans-20" transform="translate(876.615234 0)"/>
     <use xlink:href="#DejaVuSans-4b" transform="translate(908.402344 0)"/>
     <use xlink:href="#DejaVuSans-75" transform="translate(968.978516 0)"/>
     <use xlink:href="#DejaVuSans-73" transform="translate(1032.357422 0)"/>
     <use xlink:href="#DejaVuSans-68" transform="translate(1084.457031 0)"/>
     <use xlink:href="#DejaVuSans-2c" transform="translate(1147.835938 0)"/>
     <use xlink:href="#DejaVuSans-20" transform="translate(1179.623047 0)"/>
     <use xlink:href="#DejaVuSans-52" transform="translate(1211.410156 0)"/>
     <use xlink:href="#DejaVuSans-65" transform="translate(1276.392578 0)"/>
     <use xlink:href="#DejaVuSans-63" transform="translate(1337.916016 0)"/>
     <use xlink:href="#DejaVuSans-69" transform="translate(1392.896484 0)"/>
     <use xlink:href="#DejaVuSans-70" transform="translate(1420.679688 0)"/>
     <use xlink:href="#DejaVuSans-65" transform="translate(1484.15625 0)"/>
     <use xlink:href="#DejaVuSans-20" transform="translate(1545.679688 0)"/>
     <use xlink:href="#DejaVuSans-73" transform="translate(1577.466797 0)"/>
     <use xlink:href="#DejaVuSans-69" transform="translate(1629.566406 0)"/>
     <use xlink:href="#DejaVuSans-7a" transform="translate(1657.349609 0)"/>
     <use xlink:href="#DejaVuSans-65" transform="translate(1709.839844 0)"/>
     <use xlink:href="#DejaVuSans-3a" transform="translate(1771.363281 0)"/>
     <use xlink:href="#DejaVuSans-20" transform="translate(1805.054688 0)"/>
     <use xlink:href="#DejaVuSans-37" transform="translate(1836.841797 0)"/>
     <use xlink:href="#DejaVuSans-2c" transform="translate(1900.464844 0)"/>
     <use xlink:href="#DejaVuSans-20" transform="translate(1932.251953 0)"/>
     <use xlink:href="#DejaVuSans-54" transform="translate(1964.039062 0)"/>
     <use xlink:href="#DejaVuSans-30" transform="translate(2025.123047 0)"/>
     <use xlink:href="#DejaVuSans-3a" transform="translate(2088.746094 0)"/>
     <use xlink:href="#DejaVuSans-20" transform="translate(2122.4375 0)"/>
     <use xlink:href="#DejaVuSans-31" transform="translate(2154.224609 0)"/>
     <use xlink:href="#DejaVuSans-30" transform="translate(2217.847656 0)"/>
     <use xlink:href="#DejaVuSans-2e" transform="translate(2281.470703 0)"/>
     <use xlink:href="#DejaVuSans-30" transform="translate(2313.257812 0)"/>
    </g>
   </g>
  </g>
 </g>
 <defs>
  <clipPath id="pa386cf823d">
   <rect x="50.87" y="43.44" width="793.996" height="346.6"/>
  </clipPath>
 </defs>
</svg>
