<?xml version="1.0" encoding="utf-8" standalone="no"?>
<!DOCTYPE svg PUBLIC "-//W3C//DTD SVG 1.1//EN"
  "http://www.w3.org/Graphics/SVG/1.1/DTD/svg11.dtd">
<svg xmlns:xlink="http://www.w3.org/1999/xlink" width="864pt" height="432pt" viewBox="0 0 864 432" xmlns="http://www.w3.org/2000/svg" version="1.1">
 <metadata>
  <rdf:RDF xmlns:dc="http://purl.org/dc/elements/1.1/" xmlns:cc="http://creativecommons.org/ns#" xmlns:rdf="http://www.w3.org/1999/02/22-rdf-syntax-ns#">
   <cc:Work>
    <dc:type rdf:resource="http://purl.org/dc/dcmitype/StillImage"/>
    <dc:date>2025-05-24T02:01:46.143322</dc:date>
    <dc:format>image/svg+xml</dc:format>
    <dc:creator>
     <cc:Agent>
      <dc:title>Matplotlib v3.10.3, https://matplotlib.org/</dc:title>
     </cc:Agent>
    </dc:creator>
   </cc:Work>
  </rdf:RDF>
 </metadata>
 <defs>
  <style type="text/css">*{stroke-linejoin: round; stroke-linecap: butt}</style>
 </defs>
 <g id="figure_1">
  <g id="patch_1">
   <path d="M 0 432 
L 864 432 
L 864 0 
L 0 0 
z
" style="fill: #ffffff"/>
  </g>
  <g id="axes_1">
   <g id="patch_2">
    <path d="M 50.87 390.04 
L 844.866 390.04 
L 844.866 43.44 
L 50.87 43.44 
z
" style="fill: #ffffff"/>
   </g>
   <g id="FillBetweenPolyCollection_1">
    <defs>
     <path id="ma6e8b1f70e" d="M 52.193327 -304.822435 
L 52.193327 -57.735057 
L 54.83998 -57.714545 
L 57.486633 -74.728491 
L 60.133287 -89.533706 
L 62.77994 -102.542789 
L 65.426593 -113.459843 
L 68.073247 -123.25189 
L 70.7199 -131.382763 
L 73.366553 -138.595323 
L 76.013207 -145.462206 
L 78.65986 -151.046691 
L 81.306513 -156.273041 
L 83.953167 -160.935565 
L 86.59982 -165.154894 
L 89.246473 -169.34542 
L 91.893127 -173.054383 
L 94.53978 -175.788561 
L 97.186433 -178.794747 
L 99.833087 -181.073866 
L 102.47974 -183.929409 
L 105.126393 -186.328122 
L 107.773047 -188.967018 
L 110.4197 -191.066691 
L 113.066353 -193.300144 
L 115.713007 -195.182781 
L 118.35966 -196.715465 
L 121.006313 -198.455858 
L 123.652967 -199.838655 
L 126.29962 -201.222207 
L 128.946273 -202.572962 
L 131.592927 -204.119011 
L 134.23958 -205.536009 
L 136.886233 -206.917078 
L 139.532887 -207.879859 
L 142.17954 -208.940987 
L 144.826193 -209.885156 
L 147.472847 -211.127134 
L 150.1195 -212.000742 
L 152.766153 -212.98995 
L 155.412807 -213.997748 
L 158.05946 -214.706851 
L 160.706113 -215.554981 
L 163.352767 -216.508607 
L 165.99942 -217.183099 
L 168.646073 -217.929447 
L 171.292727 -218.535927 
L 173.93938 -219.303478 
L 176.586033 -220.131982 
L 179.232687 -220.827547 
L 181.87934 -221.594558 
L 184.525993 -222.307354 
L 187.172647 -223.035868 
L 189.8193 -223.74631 
L 192.465953 -224.483352 
L 195.112607 -225.116217 
L 197.75926 -225.585829 
L 200.405913 -226.091153 
L 203.052567 -226.716093 
L 205.69922 -227.284766 
L 208.345873 -227.840722 
L 210.992527 -228.415613 
L 213.63918 -228.882051 
L 216.285833 -229.458757 
L 218.932487 -229.819073 
L 221.57914 -230.17153 
L 224.225793 -230.696244 
L 226.872447 -231.099462 
L 229.5191 -231.556573 
L 232.165753 -231.886186 
L 234.812407 -232.320669 
L 237.45906 -232.808116 
L 240.105713 -233.259764 
L 242.752367 -233.756214 
L 245.39902 -234.149889 
L 248.045673 -234.633363 
L 250.692327 -235.042843 
L 253.33898 -235.418122 
L 255.985633 -235.860032 
L 258.632287 -236.381248 
L 261.27894 -236.874999 
L 263.925593 -237.117707 
L 266.572247 -237.453582 
L 269.2189 -237.753119 
L 271.865553 -238.237716 
L 274.512207 -238.704953 
L 277.15886 -238.89772 
L 279.805513 -239.199351 
L 282.452167 -239.431566 
L 285.09882 -239.721452 
L 287.745473 -240.035131 
L 290.392127 -240.320051 
L 293.03878 -240.453917 
L 295.685433 -240.83874 
L 298.332087 -241.260613 
L 300.97874 -241.458628 
L 303.625393 -241.816742 
L 306.272047 -242.056104 
L 308.9187 -242.362183 
L 311.565353 -242.622553 
L 314.212007 -242.860144 
L 316.85866 -243.158278 
L 319.505313 -243.323819 
L 322.151967 -243.4511 
L 324.79862 -243.627631 
L 327.445273 -243.907239 
L 330.091927 -244.146752 
L 332.73858 -244.293616 
L 335.385233 -244.661144 
L 338.031887 -244.930129 
L 340.67854 -245.09893 
L 343.325193 -245.369125 
L 345.971847 -245.55399 
L 348.6185 -245.720157 
L 351.265153 -245.893492 
L 353.911807 -246.094918 
L 356.55846 -246.310313 
L 359.205113 -246.48909 
L 361.851767 -246.69207 
L 364.49842 -246.975133 
L 367.145073 -247.138126 
L 369.791727 -247.221058 
L 372.43838 -247.403721 
L 375.085033 -247.62594 
L 377.731687 -247.784377 
L 380.37834 -247.985652 
L 383.024993 -248.235399 
L 385.671647 -248.447512 
L 388.3183 -248.662562 
L 390.964953 -248.830176 
L 393.611607 -249.027694 
L 396.25826 -249.21258 
L 398.904913 -249.428947 
L 401.551567 -249.637261 
L 404.19822 -249.922742 
L 406.844873 -250.193454 
L 409.491527 -250.371971 
L 412.13818 -250.514172 
L 414.784833 -250.611096 
L 417.431487 -250.859332 
L 420.07814 -251.046874 
L 422.724793 -251.139091 
L 425.371447 -251.333888 
L 428.0181 -251.497702 
L 430.664753 -251.722532 
L 433.311407 -251.815159 
L 435.95806 -251.959066 
L 438.604713 -252.149717 
L 441.251367 -252.232758 
L 443.89802 -252.395082 
L 446.544673 -252.519793 
L 449.191327 -252.667845 
L 451.83798 -252.847787 
L 454.484633 -253.036043 
L 457.131287 -253.230473 
L 459.77794 -253.400073 
L 462.424593 -253.504704 
L 465.071247 -253.563217 
L 467.7179 -253.629503 
L 470.364553 -253.798347 
L 473.011207 -253.940181 
L 475.65786 -254.160477 
L 478.304513 -254.37218 
L 480.951167 -254.45507 
L 483.59782 -254.549359 
L 486.244473 -254.68804 
L 488.891127 -254.739989 
L 491.53778 -254.945064 
L 494.184433 -255.113261 
L 496.831087 -255.248012 
L 499.47774 -255.361432 
L 502.124393 -255.571861 
L 504.771047 -255.712291 
L 507.4177 -255.879883 
L 510.064353 -255.919611 
L 512.711007 -256.106981 
L 515.35766 -256.262309 
L 518.004313 -256.358499 
L 520.650967 -256.457625 
L 523.29762 -256.622993 
L 525.944273 -256.672416 
L 528.590927 -256.784971 
L 531.23758 -256.908582 
L 533.884233 -257.010579 
L 536.530887 -257.135075 
L 539.17754 -257.229991 
L 541.824193 -257.43662 
L 544.470847 -257.581714 
L 547.1175 -257.59998 
L 549.764153 -257.684186 
L 552.410807 -257.772949 
L 555.05746 -257.881877 
L 557.704113 -257.92981 
L 560.350767 -257.991475 
L 562.99742 -258.064821 
L 565.644073 -258.212872 
L 568.290727 -258.320181 
L 570.93738 -258.413262 
L 573.584033 -258.530136 
L 576.230687 -258.655193 
L 578.87734 -258.753196 
L 581.523993 -258.873546 
L 584.170647 -259.007585 
L 586.8173 -259.111483 
L 589.463953 -259.249948 
L 592.110607 -259.435656 
L 594.75726 -259.582801 
L 597.403913 -259.655089 
L 600.050567 -259.765248 
L 602.69722 -259.839911 
L 605.343873 -259.918007 
L 607.990527 -259.985069 
L 610.63718 -260.152143 
L 613.283833 -260.196254 
L 615.930487 -260.241639 
L 618.57714 -260.306781 
L 621.223793 -260.381724 
L 623.870447 -260.409793 
L 626.5171 -260.399947 
L 629.163753 -260.543314 
L 631.810407 -260.65371 
L 634.45706 -260.74312 
L 637.103713 -260.779847 
L 639.750367 -260.819511 
L 642.39702 -260.909978 
L 645.043673 -261.069322 
L 647.690327 -261.140531 
L 650.33698 -261.285474 
L 652.983633 -261.406536 
L 655.630287 -261.491844 
L 658.27694 -261.605695 
L 660.923593 -261.749688 
L 663.570247 -261.886599 
L 666.2169 -261.961477 
L 668.863553 -262.091306 
L 671.510207 -262.157894 
L 674.15686 -262.243417 
L 676.803513 -262.304845 
L 679.450167 -262.44467 
L 682.09682 -262.512618 
L 684.743473 -262.619496 
L 687.390127 -262.741832 
L 690.03678 -262.754226 
L 692.683433 -262.847781 
L 695.330087 -262.930843 
L 697.97674 -263.07259 
L 700.623393 -263.16105 
L 703.270047 -263.236101 
L 705.9167 -263.308433 
L 708.563353 -263.379123 
L 711.210007 -263.456247 
L 713.85666 -263.549975 
L 716.503313 -263.654671 
L 719.149967 -263.7096 
L 721.79662 -263.782276 
L 724.443273 -263.905865 
L 727.089927 -263.989877 
L 729.73658 -264.036579 
L 732.383233 -264.093278 
L 735.029887 -264.17444 
L 737.67654 -264.233471 
L 740.323193 -264.291573 
L 742.969847 -264.43304 
L 745.6165 -264.502521 
L 748.263153 -264.578738 
L 750.909807 -264.63669 
L 753.55646 -264.715045 
L 756.203113 -264.777595 
L 758.849767 -264.891165 
L 761.49642 -264.966152 
L 764.143073 -265.012833 
L 766.789727 -265.084775 
L 769.43638 -265.208213 
L 772.083033 -265.276074 
L 774.729687 -265.381073 
L 777.37634 -265.431403 
L 780.022993 -265.457377 
L 782.669647 -265.491578 
L 785.3163 -265.592345 
L 787.962953 -265.651397 
L 790.609607 -265.710363 
L 793.25626 -265.754863 
L 795.902913 -265.80394 
L 798.549567 -265.87219 
L 801.19622 -265.912955 
L 803.842873 -265.911789 
L 806.489527 -266.013786 
L 809.13618 -266.118202 
L 811.782833 -266.208368 
L 814.429487 -266.227346 
L 817.07614 -266.305982 
L 819.722793 -266.334029 
L 822.369447 -266.368187 
L 825.0161 -266.469623 
L 827.662753 -266.495144 
L 830.309407 -266.545365 
L 832.95606 -266.578724 
L 835.602713 -266.593989 
L 838.249367 -266.611197 
L 840.89602 -266.63823 
L 843.542673 -266.695749 
L 843.542673 -372.805455 
L 843.542673 -372.805455 
L 840.89602 -372.781013 
L 838.249367 -372.736621 
L 835.602713 -372.683204 
L 832.95606 -372.63281 
L 830.309407 -372.598005 
L 827.662753 -372.538456 
L 825.0161 -372.4951 
L 822.369447 -372.499807 
L 819.722793 -372.475323 
L 817.07614 -372.448938 
L 814.429487 -372.438401 
L 811.782833 -372.405367 
L 809.13618 -372.387187 
L 806.489527 -372.368705 
L 803.842873 -372.361839 
L 801.19622 -372.300951 
L 798.549567 -372.233327 
L 795.902913 -372.197787 
L 793.25626 -372.120922 
L 790.609607 -372.07178 
L 787.962953 -372.022336 
L 785.3163 -371.995088 
L 782.669647 -371.983342 
L 780.022993 -371.933121 
L 777.37634 -371.874953 
L 774.729687 -371.838162 
L 772.083033 -371.826502 
L 769.43638 -371.800161 
L 766.789727 -371.806552 
L 764.143073 -371.802234 
L 761.49642 -371.771574 
L 758.849767 -371.732537 
L 756.203113 -371.73923 
L 753.55646 -371.714746 
L 750.909807 -371.66392 
L 748.263153 -371.614691 
L 745.6165 -371.573668 
L 742.969847 -371.548665 
L 740.323193 -371.579972 
L 737.67654 -371.514464 
L 735.029887 -371.480091 
L 732.383233 -371.448179 
L 729.73658 -371.412337 
L 727.089927 -371.358143 
L 724.443273 -371.345922 
L 721.79662 -371.323553 
L 719.149967 -371.247595 
L 716.503313 -371.206356 
L 713.85666 -371.131174 
L 711.210007 -371.069207 
L 708.563353 -371.016352 
L 705.9167 -370.945014 
L 703.270047 -370.907661 
L 700.623393 -370.859253 
L 697.97674 -370.821554 
L 695.330087 -370.831486 
L 692.683433 -370.815336 
L 690.03678 -370.799833 
L 687.390127 -370.726768 
L 684.743473 -370.736657 
L 682.09682 -370.700859 
L 679.450167 -370.677929 
L 676.803513 -370.699131 
L 674.15686 -370.639021 
L 671.510207 -370.584827 
L 668.863553 -370.521046 
L 666.2169 -370.484427 
L 663.570247 -370.404064 
L 660.923593 -370.384157 
L 658.27694 -370.387266 
L 655.630287 -370.322103 
L 652.983633 -370.278704 
L 650.33698 -370.238415 
L 647.690327 -370.236385 
L 645.043673 -370.164702 
L 642.39702 -370.188884 
L 639.750367 -370.153 
L 637.103713 -370.095005 
L 634.45706 -370.026129 
L 631.810407 -369.997412 
L 629.163753 -369.967141 
L 626.5171 -369.96835 
L 623.870447 -369.788408 
L 621.223793 -369.696342 
L 618.57714 -369.641803 
L 615.930487 -369.564765 
L 613.283833 -369.443724 
L 610.63718 -369.349456 
L 607.990527 -369.339265 
L 605.343873 -369.302516 
L 602.69722 -369.250351 
L 600.050567 -369.177157 
L 597.403913 -369.126331 
L 594.75726 -369.026449 
L 592.110607 -369.000755 
L 589.463953 -369.022433 
L 586.8173 -369.00719 
L 584.170647 -368.966339 
L 581.523993 -368.955111 
L 578.87734 -368.927949 
L 576.230687 -368.88088 
L 573.584033 -368.839425 
L 570.93738 -368.78143 
L 568.290727 -368.720154 
L 565.644073 -368.65158 
L 562.99742 -368.626577 
L 560.350767 -368.556794 
L 557.704113 -368.443439 
L 555.05746 -368.335612 
L 552.410807 -368.281461 
L 549.764153 -368.215175 
L 547.1175 -368.17562 
L 544.470847 -368.023444 
L 541.824193 -367.951761 
L 539.17754 -367.971884 
L 536.530887 -367.877616 
L 533.884233 -367.834649 
L 531.23758 -367.770653 
L 528.590927 -367.683467 
L 525.944273 -367.633677 
L 523.29762 -367.535998 
L 520.650967 -367.51242 
L 518.004313 -367.45408 
L 515.35766 -367.351651 
L 512.711007 -367.269129 
L 510.064353 -367.238555 
L 507.4177 -367.129648 
L 504.771047 -367.091086 
L 502.124393 -367.019317 
L 499.47774 -366.973975 
L 496.831087 -366.890891 
L 494.184433 -366.866493 
L 491.53778 -366.834192 
L 488.891127 -366.852718 
L 486.244473 -366.720967 
L 483.59782 -366.626483 
L 480.951167 -366.542666 
L 478.304513 -366.41994 
L 475.65786 -366.419077 
L 473.011207 -366.372958 
L 470.364553 -366.330034 
L 467.7179 -366.300281 
L 465.071247 -366.151042 
L 462.424593 -365.996879 
L 459.77794 -365.921612 
L 457.131287 -365.870915 
L 454.484633 -365.858652 
L 451.83798 -365.815253 
L 449.191327 -365.750479 
L 446.544673 -365.712737 
L 443.89802 -365.646927 
L 441.251367 -365.606551 
L 438.604713 -365.447552 
L 435.95806 -365.438872 
L 433.311407 -365.394437 
L 430.664753 -365.273094 
L 428.0181 -365.249559 
L 425.371447 -365.175458 
L 422.724793 -365.031314 
L 420.07814 -364.871408 
L 417.431487 -364.78975 
L 414.784833 -364.775068 
L 412.13818 -364.645822 
L 409.491527 -364.514417 
L 406.844873 -364.435522 
L 404.19822 -364.436343 
L 401.551567 -364.431117 
L 398.904913 -364.303426 
L 396.25826 -364.256487 
L 393.611607 -364.221163 
L 390.964953 -364.118863 
L 388.3183 -363.955978 
L 385.671647 -363.920439 
L 383.024993 -363.846337 
L 380.37834 -363.839989 
L 377.731687 -363.787997 
L 375.085033 -363.637117 
L 372.43838 -363.517803 
L 369.791727 -363.432129 
L 367.145073 -363.201403 
L 364.49842 -363.050393 
L 361.851767 -363.043398 
L 359.205113 -362.934923 
L 356.55846 -362.861512 
L 353.911807 -362.791988 
L 351.265153 -362.713914 
L 348.6185 -362.567093 
L 345.971847 -362.383005 
L 343.325193 -362.258768 
L 340.67854 -362.191057 
L 338.031887 -362.060991 
L 335.385233 -361.935761 
L 332.73858 -361.931918 
L 330.091927 -361.788551 
L 327.445273 -361.644192 
L 324.79862 -361.563872 
L 322.151967 -361.347613 
L 319.505313 -361.173327 
L 316.85866 -360.929734 
L 314.212007 -360.873467 
L 311.565353 -360.710236 
L 308.9187 -360.590058 
L 306.272047 -360.489486 
L 303.625393 -360.370474 
L 300.97874 -360.23786 
L 298.332087 -360.048936 
L 295.685433 -360.038313 
L 293.03878 -359.990337 
L 290.392127 -359.779648 
L 287.745473 -359.725541 
L 285.09882 -359.614604 
L 282.452167 -359.39394 
L 279.805513 -359.237446 
L 277.15886 -359.074172 
L 274.512207 -358.81309 
L 271.865553 -358.755873 
L 269.2189 -358.737693 
L 266.572247 -358.545055 
L 263.925593 -358.416586 
L 261.27894 -358.197002 
L 258.632287 -358.130889 
L 255.985633 -358.075788 
L 253.33898 -357.896105 
L 250.692327 -357.698199 
L 248.045673 -357.486301 
L 245.39902 -357.381453 
L 242.752367 -357.186915 
L 240.105713 -356.929589 
L 237.45906 -356.766531 
L 234.812407 -356.626188 
L 232.165753 -356.450348 
L 229.5191 -356.136712 
L 226.872447 -356.015109 
L 224.225793 -355.768363 
L 221.57914 -355.666884 
L 218.932487 -355.331613 
L 216.285833 -355.053085 
L 213.63918 -354.87664 
L 210.992527 -354.595801 
L 208.345873 -354.416766 
L 205.69922 -354.231534 
L 203.052567 -354.132127 
L 200.405913 -353.952141 
L 197.75926 -353.603657 
L 195.112607 -353.266227 
L 192.465953 -353.03263 
L 189.8193 -352.745638 
L 187.172647 -352.503944 
L 184.525993 -352.281748 
L 181.87934 -352.188754 
L 179.232687 -351.812589 
L 176.586033 -351.617123 
L 173.93938 -351.396761 
L 171.292727 -351.112252 
L 168.646073 -350.476451 
L 165.99942 -350.028107 
L 163.352767 -349.62342 
L 160.706113 -349.371902 
L 158.05946 -348.91233 
L 155.412807 -348.475926 
L 152.766153 -348.147089 
L 150.1195 -347.719257 
L 147.472847 -347.21322 
L 144.826193 -346.865513 
L 142.17954 -346.331667 
L 139.532887 -345.710958 
L 136.886233 -345.124256 
L 134.23958 -344.856567 
L 131.592927 -344.46002 
L 128.946273 -344.002477 
L 126.29962 -343.145862 
L 123.652967 -342.544521 
L 121.006313 -341.743223 
L 118.35966 -341.138622 
L 115.713007 -340.376576 
L 113.066353 -339.844306 
L 110.4197 -339.353621 
L 107.773047 -338.698928 
L 105.126393 -338.334163 
L 102.47974 -337.73034 
L 99.833087 -337.082944 
L 97.186433 -335.715672 
L 94.53978 -335.009224 
L 91.893127 -333.979511 
L 89.246473 -333.384626 
L 86.59982 -332.873623 
L 83.953167 -331.787664 
L 81.306513 -330.600831 
L 78.65986 -329.422029 
L 76.013207 -327.737169 
L 73.366553 -326.989201 
L 70.7199 -325.104945 
L 68.073247 -323.391196 
L 65.426593 -321.463757 
L 62.77994 -318.965206 
L 60.133287 -315.683039 
L 57.486633 -311.166278 
L 54.83998 -305.609915 
L 52.193327 -304.822435 
z
" style="stroke: #0000ff; stroke-opacity: 0.2"/>
    </defs>
    <g clip-path="url(#p7b1dad1758)">
     <use xlink:href="#ma6e8b1f70e" x="0" y="432" style="fill: #0000ff; fill-opacity: 0.2; stroke: #0000ff; stroke-opacity: 0.2"/>
    </g>
   </g>
   <g id="matplotlib.axis_1">
    <g id="xtick_1">
     <g id="line2d_1">
      <defs>
       <path id="m50c20d107f" d="M 0 0 
L 0 3.5 
" style="stroke: #000000; stroke-width: 0.8"/>
      </defs>
      <g>
       <use xlink:href="#m50c20d107f" x="181.87934" y="390.04" style="stroke: #000000; stroke-width: 0.8"/>
      </g>
     </g>
     <g id="text_1">
      <!-- 50 -->
      <g transform="translate(175.51684 404.638438) scale(0.1 -0.1)">
       <defs>
        <path id="DejaVuSans-35" d="M 691 4666 
L 3169 4666 
L 3169 4134 
L 1269 4134 
L 1269 2991 
Q 1406 3038 1543 3061 
Q 1681 3084 1819 3084 
Q 2600 3084 3056 2656 
Q 3513 2228 3513 1497 
Q 3513 744 3044 326 
Q 2575 -91 1722 -91 
Q 1428 -91 1123 -41 
Q 819 9 494 109 
L 494 744 
Q 775 591 1075 516 
Q 1375 441 1709 441 
Q 2250 441 2565 725 
Q 2881 1009 2881 1497 
Q 2881 1984 2565 2268 
Q 2250 2553 1709 2553 
Q 1456 2553 1204 2497 
Q 953 2441 691 2322 
L 691 4666 
z
" transform="scale(0.015625)"/>
        <path id="DejaVuSans-30" d="M 2034 4250 
Q 1547 4250 1301 3770 
Q 1056 3291 1056 2328 
Q 1056 1369 1301 889 
Q 1547 409 2034 409 
Q 2525 409 2770 889 
Q 3016 1369 3016 2328 
Q 3016 3291 2770 3770 
Q 2525 4250 2034 4250 
z
M 2034 4750 
Q 2819 4750 3233 4129 
Q 3647 3509 3647 2328 
Q 3647 1150 3233 529 
Q 2819 -91 2034 -91 
Q 1250 -91 836 529 
Q 422 1150 422 2328 
Q 422 3509 836 4129 
Q 1250 4750 2034 4750 
z
" transform="scale(0.015625)"/>
       </defs>
       <use xlink:href="#DejaVuSans-35"/>
       <use xlink:href="#DejaVuSans-30" transform="translate(63.623047 0)"/>
      </g>
     </g>
    </g>
    <g id="xtick_2">
     <g id="line2d_2">
      <g>
       <use xlink:href="#m50c20d107f" x="314.212007" y="390.04" style="stroke: #000000; stroke-width: 0.8"/>
      </g>
     </g>
     <g id="text_2">
      <!-- 100 -->
      <g transform="translate(304.668257 404.638438) scale(0.1 -0.1)">
       <defs>
        <path id="DejaVuSans-31" d="M 794 531 
L 1825 531 
L 1825 4091 
L 703 3866 
L 703 4441 
L 1819 4666 
L 2450 4666 
L 2450 531 
L 3481 531 
L 3481 0 
L 794 0 
L 794 531 
z
" transform="scale(0.015625)"/>
       </defs>
       <use xlink:href="#DejaVuSans-31"/>
       <use xlink:href="#DejaVuSans-30" transform="translate(63.623047 0)"/>
       <use xlink:href="#DejaVuSans-30" transform="translate(127.246094 0)"/>
      </g>
     </g>
    </g>
    <g id="xtick_3">
     <g id="line2d_3">
      <g>
       <use xlink:href="#m50c20d107f" x="446.544673" y="390.04" style="stroke: #000000; stroke-width: 0.8"/>
      </g>
     </g>
     <g id="text_3">
      <!-- 150 -->
      <g transform="translate(437.000923 404.638438) scale(0.1 -0.1)">
       <use xlink:href="#DejaVuSans-31"/>
       <use xlink:href="#DejaVuSans-35" transform="translate(63.623047 0)"/>
       <use xlink:href="#DejaVuSans-30" transform="translate(127.246094 0)"/>
      </g>
     </g>
    </g>
    <g id="xtick_4">
     <g id="line2d_4">
      <g>
       <use xlink:href="#m50c20d107f" x="578.87734" y="390.04" style="stroke: #000000; stroke-width: 0.8"/>
      </g>
     </g>
     <g id="text_4">
      <!-- 200 -->
      <g transform="translate(569.33359 404.638438) scale(0.1 -0.1)">
       <defs>
        <path id="DejaVuSans-32" d="M 1228 531 
L 3431 531 
L 3431 0 
L 469 0 
L 469 531 
Q 828 903 1448 1529 
Q 2069 2156 2228 2338 
Q 2531 2678 2651 2914 
Q 2772 3150 2772 3378 
Q 2772 3750 2511 3984 
Q 2250 4219 1831 4219 
Q 1534 4219 1204 4116 
Q 875 4013 500 3803 
L 500 4441 
Q 881 4594 1212 4672 
Q 1544 4750 1819 4750 
Q 2544 4750 2975 4387 
Q 3406 4025 3406 3419 
Q 3406 3131 3298 2873 
Q 3191 2616 2906 2266 
Q 2828 2175 2409 1742 
Q 1991 1309 1228 531 
z
" transform="scale(0.015625)"/>
       </defs>
       <use xlink:href="#DejaVuSans-32"/>
       <use xlink:href="#DejaVuSans-30" transform="translate(63.623047 0)"/>
       <use xlink:href="#DejaVuSans-30" transform="translate(127.246094 0)"/>
      </g>
     </g>
    </g>
    <g id="xtick_5">
     <g id="line2d_5">
      <g>
       <use xlink:href="#m50c20d107f" x="711.210007" y="390.04" style="stroke: #000000; stroke-width: 0.8"/>
      </g>
     </g>
     <g id="text_5">
      <!-- 250 -->
      <g transform="translate(701.666257 404.638438) scale(0.1 -0.1)">
       <use xlink:href="#DejaVuSans-32"/>
       <use xlink:href="#DejaVuSans-35" transform="translate(63.623047 0)"/>
       <use xlink:href="#DejaVuSans-30" transform="translate(127.246094 0)"/>
      </g>
     </g>
    </g>
    <g id="xtick_6">
     <g id="line2d_6">
      <g>
       <use xlink:href="#m50c20d107f" x="843.542673" y="390.04" style="stroke: #000000; stroke-width: 0.8"/>
      </g>
     </g>
     <g id="text_6">
      <!-- 300 -->
      <g transform="translate(833.998923 404.638438) scale(0.1 -0.1)">
       <defs>
        <path id="DejaVuSans-33" d="M 2597 2516 
Q 3050 2419 3304 2112 
Q 3559 1806 3559 1356 
Q 3559 666 3084 287 
Q 2609 -91 1734 -91 
Q 1441 -91 1130 -33 
Q 819 25 488 141 
L 488 750 
Q 750 597 1062 519 
Q 1375 441 1716 441 
Q 2309 441 2620 675 
Q 2931 909 2931 1356 
Q 2931 1769 2642 2001 
Q 2353 2234 1838 2234 
L 1294 2234 
L 1294 2753 
L 1863 2753 
Q 2328 2753 2575 2939 
Q 2822 3125 2822 3475 
Q 2822 3834 2567 4026 
Q 2313 4219 1838 4219 
Q 1578 4219 1281 4162 
Q 984 4106 628 3988 
L 628 4550 
Q 988 4650 1302 4700 
Q 1616 4750 1894 4750 
Q 2613 4750 3031 4423 
Q 3450 4097 3450 3541 
Q 3450 3153 3228 2886 
Q 3006 2619 2597 2516 
z
" transform="scale(0.015625)"/>
       </defs>
       <use xlink:href="#DejaVuSans-33"/>
       <use xlink:href="#DejaVuSans-30" transform="translate(63.623047 0)"/>
       <use xlink:href="#DejaVuSans-30" transform="translate(127.246094 0)"/>
      </g>
     </g>
    </g>
    <g id="text_7">
     <!-- Step -->
     <g transform="translate(436.482844 418.316562) scale(0.1 -0.1)">
      <defs>
       <path id="DejaVuSans-53" d="M 3425 4513 
L 3425 3897 
Q 3066 4069 2747 4153 
Q 2428 4238 2131 4238 
Q 1616 4238 1336 4038 
Q 1056 3838 1056 3469 
Q 1056 3159 1242 3001 
Q 1428 2844 1947 2747 
L 2328 2669 
Q 3034 2534 3370 2195 
Q 3706 1856 3706 1288 
Q 3706 609 3251 259 
Q 2797 -91 1919 -91 
Q 1588 -91 1214 -16 
Q 841 59 441 206 
L 441 856 
Q 825 641 1194 531 
Q 1563 422 1919 422 
Q 2459 422 2753 634 
Q 3047 847 3047 1241 
Q 3047 1584 2836 1778 
Q 2625 1972 2144 2069 
L 1759 2144 
Q 1053 2284 737 2584 
Q 422 2884 422 3419 
Q 422 4038 858 4394 
Q 1294 4750 2059 4750 
Q 2388 4750 2728 4690 
Q 3069 4631 3425 4513 
z
" transform="scale(0.015625)"/>
       <path id="DejaVuSans-74" d="M 1172 4494 
L 1172 3500 
L 2356 3500 
L 2356 3053 
L 1172 3053 
L 1172 1153 
Q 1172 725 1289 603 
Q 1406 481 1766 481 
L 2356 481 
L 2356 0 
L 1766 0 
Q 1100 0 847 248 
Q 594 497 594 1153 
L 594 3053 
L 172 3053 
L 172 3500 
L 594 3500 
L 594 4494 
L 1172 4494 
z
" transform="scale(0.015625)"/>
       <path id="DejaVuSans-65" d="M 3597 1894 
L 3597 1613 
L 953 1613 
Q 991 1019 1311 708 
Q 1631 397 2203 397 
Q 2534 397 2845 478 
Q 3156 559 3463 722 
L 3463 178 
Q 3153 47 2828 -22 
Q 2503 -91 2169 -91 
Q 1331 -91 842 396 
Q 353 884 353 1716 
Q 353 2575 817 3079 
Q 1281 3584 2069 3584 
Q 2775 3584 3186 3129 
Q 3597 2675 3597 1894 
z
M 3022 2063 
Q 3016 2534 2758 2815 
Q 2500 3097 2075 3097 
Q 1594 3097 1305 2825 
Q 1016 2553 972 2059 
L 3022 2063 
z
" transform="scale(0.015625)"/>
       <path id="DejaVuSans-70" d="M 1159 525 
L 1159 -1331 
L 581 -1331 
L 581 3500 
L 1159 3500 
L 1159 2969 
Q 1341 3281 1617 3432 
Q 1894 3584 2278 3584 
Q 2916 3584 3314 3078 
Q 3713 2572 3713 1747 
Q 3713 922 3314 415 
Q 2916 -91 2278 -91 
Q 1894 -91 1617 61 
Q 1341 213 1159 525 
z
M 3116 1747 
Q 3116 2381 2855 2742 
Q 2594 3103 2138 3103 
Q 1681 3103 1420 2742 
Q 1159 2381 1159 1747 
Q 1159 1113 1420 752 
Q 1681 391 2138 391 
Q 2594 391 2855 752 
Q 3116 1113 3116 1747 
z
" transform="scale(0.015625)"/>
      </defs>
      <use xlink:href="#DejaVuSans-53"/>
      <use xlink:href="#DejaVuSans-74" transform="translate(63.476562 0)"/>
      <use xlink:href="#DejaVuSans-65" transform="translate(102.685547 0)"/>
      <use xlink:href="#DejaVuSans-70" transform="translate(164.208984 0)"/>
     </g>
    </g>
   </g>
   <g id="matplotlib.axis_2">
    <g id="ytick_1">
     <g id="line2d_7">
      <defs>
       <path id="m8d15520411" d="M 0 0 
L -3.5 0 
" style="stroke: #000000; stroke-width: 0.8"/>
      </defs>
      <g>
       <use xlink:href="#m8d15520411" x="50.87" y="382.374311" style="stroke: #000000; stroke-width: 0.8"/>
      </g>
     </g>
     <g id="text_8">
      <!-- 20 -->
      <g transform="translate(31.145 386.173529) scale(0.1 -0.1)">
       <use xlink:href="#DejaVuSans-32"/>
       <use xlink:href="#DejaVuSans-30" transform="translate(63.623047 0)"/>
      </g>
     </g>
    </g>
    <g id="ytick_2">
     <g id="line2d_8">
      <g>
       <use xlink:href="#m8d15520411" x="50.87" y="325.773866" style="stroke: #000000; stroke-width: 0.8"/>
      </g>
     </g>
     <g id="text_9">
      <!-- 40 -->
      <g transform="translate(31.145 329.573085) scale(0.1 -0.1)">
       <defs>
        <path id="DejaVuSans-34" d="M 2419 4116 
L 825 1625 
L 2419 1625 
L 2419 4116 
z
M 2253 4666 
L 3047 4666 
L 3047 1625 
L 3713 1625 
L 3713 1100 
L 3047 1100 
L 3047 0 
L 2419 0 
L 2419 1100 
L 313 1100 
L 313 1709 
L 2253 4666 
z
" transform="scale(0.015625)"/>
       </defs>
       <use xlink:href="#DejaVuSans-34"/>
       <use xlink:href="#DejaVuSans-30" transform="translate(63.623047 0)"/>
      </g>
     </g>
    </g>
    <g id="ytick_3">
     <g id="line2d_9">
      <g>
       <use xlink:href="#m8d15520411" x="50.87" y="269.173421" style="stroke: #000000; stroke-width: 0.8"/>
      </g>
     </g>
     <g id="text_10">
      <!-- 60 -->
      <g transform="translate(31.145 272.97264) scale(0.1 -0.1)">
       <defs>
        <path id="DejaVuSans-36" d="M 2113 2584 
Q 1688 2584 1439 2293 
Q 1191 2003 1191 1497 
Q 1191 994 1439 701 
Q 1688 409 2113 409 
Q 2538 409 2786 701 
Q 3034 994 3034 1497 
Q 3034 2003 2786 2293 
Q 2538 2584 2113 2584 
z
M 3366 4563 
L 3366 3988 
Q 3128 4100 2886 4159 
Q 2644 4219 2406 4219 
Q 1781 4219 1451 3797 
Q 1122 3375 1075 2522 
Q 1259 2794 1537 2939 
Q 1816 3084 2150 3084 
Q 2853 3084 3261 2657 
Q 3669 2231 3669 1497 
Q 3669 778 3244 343 
Q 2819 -91 2113 -91 
Q 1303 -91 875 529 
Q 447 1150 447 2328 
Q 447 3434 972 4092 
Q 1497 4750 2381 4750 
Q 2619 4750 2861 4703 
Q 3103 4656 3366 4563 
z
" transform="scale(0.015625)"/>
       </defs>
       <use xlink:href="#DejaVuSans-36"/>
       <use xlink:href="#DejaVuSans-30" transform="translate(63.623047 0)"/>
      </g>
     </g>
    </g>
    <g id="ytick_4">
     <g id="line2d_10">
      <g>
       <use xlink:href="#m8d15520411" x="50.87" y="212.572976" style="stroke: #000000; stroke-width: 0.8"/>
      </g>
     </g>
     <g id="text_11">
      <!-- 80 -->
      <g transform="translate(31.145 216.372195) scale(0.1 -0.1)">
       <defs>
        <path id="DejaVuSans-38" d="M 2034 2216 
Q 1584 2216 1326 1975 
Q 1069 1734 1069 1313 
Q 1069 891 1326 650 
Q 1584 409 2034 409 
Q 2484 409 2743 651 
Q 3003 894 3003 1313 
Q 3003 1734 2745 1975 
Q 2488 2216 2034 2216 
z
M 1403 2484 
Q 997 2584 770 2862 
Q 544 3141 544 3541 
Q 544 4100 942 4425 
Q 1341 4750 2034 4750 
Q 2731 4750 3128 4425 
Q 3525 4100 3525 3541 
Q 3525 3141 3298 2862 
Q 3072 2584 2669 2484 
Q 3125 2378 3379 2068 
Q 3634 1759 3634 1313 
Q 3634 634 3220 271 
Q 2806 -91 2034 -91 
Q 1263 -91 848 271 
Q 434 634 434 1313 
Q 434 1759 690 2068 
Q 947 2378 1403 2484 
z
M 1172 3481 
Q 1172 3119 1398 2916 
Q 1625 2713 2034 2713 
Q 2441 2713 2670 2916 
Q 2900 3119 2900 3481 
Q 2900 3844 2670 4047 
Q 2441 4250 2034 4250 
Q 1625 4250 1398 4047 
Q 1172 3844 1172 3481 
z
" transform="scale(0.015625)"/>
       </defs>
       <use xlink:href="#DejaVuSans-38"/>
       <use xlink:href="#DejaVuSans-30" transform="translate(63.623047 0)"/>
      </g>
     </g>
    </g>
    <g id="ytick_5">
     <g id="line2d_11">
      <g>
       <use xlink:href="#m8d15520411" x="50.87" y="155.972531" style="stroke: #000000; stroke-width: 0.8"/>
      </g>
     </g>
     <g id="text_12">
      <!-- 100 -->
      <g transform="translate(24.7825 159.77175) scale(0.1 -0.1)">
       <use xlink:href="#DejaVuSans-31"/>
       <use xlink:href="#DejaVuSans-30" transform="translate(63.623047 0)"/>
       <use xlink:href="#DejaVuSans-30" transform="translate(127.246094 0)"/>
      </g>
     </g>
    </g>
    <g id="ytick_6">
     <g id="line2d_12">
      <g>
       <use xlink:href="#m8d15520411" x="50.87" y="99.372087" style="stroke: #000000; stroke-width: 0.8"/>
      </g>
     </g>
     <g id="text_13">
      <!-- 120 -->
      <g transform="translate(24.7825 103.171305) scale(0.1 -0.1)">
       <use xlink:href="#DejaVuSans-31"/>
       <use xlink:href="#DejaVuSans-32" transform="translate(63.623047 0)"/>
       <use xlink:href="#DejaVuSans-30" transform="translate(127.246094 0)"/>
      </g>
     </g>
    </g>
    <g id="text_14">
     <!-- Profit -->
     <g transform="translate(18.702813 229.779063) rotate(-90) scale(0.1 -0.1)">
      <defs>
       <path id="DejaVuSans-50" d="M 1259 4147 
L 1259 2394 
L 2053 2394 
Q 2494 2394 2734 2622 
Q 2975 2850 2975 3272 
Q 2975 3691 2734 3919 
Q 2494 4147 2053 4147 
L 1259 4147 
z
M 628 4666 
L 2053 4666 
Q 2838 4666 3239 4311 
Q 3641 3956 3641 3272 
Q 3641 2581 3239 2228 
Q 2838 1875 2053 1875 
L 1259 1875 
L 1259 0 
L 628 0 
L 628 4666 
z
" transform="scale(0.015625)"/>
       <path id="DejaVuSans-72" d="M 2631 2963 
Q 2534 3019 2420 3045 
Q 2306 3072 2169 3072 
Q 1681 3072 1420 2755 
Q 1159 2438 1159 1844 
L 1159 0 
L 581 0 
L 581 3500 
L 1159 3500 
L 1159 2956 
Q 1341 3275 1631 3429 
Q 1922 3584 2338 3584 
Q 2397 3584 2469 3576 
Q 2541 3569 2628 3553 
L 2631 2963 
z
" transform="scale(0.015625)"/>
       <path id="DejaVuSans-6f" d="M 1959 3097 
Q 1497 3097 1228 2736 
Q 959 2375 959 1747 
Q 959 1119 1226 758 
Q 1494 397 1959 397 
Q 2419 397 2687 759 
Q 2956 1122 2956 1747 
Q 2956 2369 2687 2733 
Q 2419 3097 1959 3097 
z
M 1959 3584 
Q 2709 3584 3137 3096 
Q 3566 2609 3566 1747 
Q 3566 888 3137 398 
Q 2709 -91 1959 -91 
Q 1206 -91 779 398 
Q 353 888 353 1747 
Q 353 2609 779 3096 
Q 1206 3584 1959 3584 
z
" transform="scale(0.015625)"/>
       <path id="DejaVuSans-66" d="M 2375 4863 
L 2375 4384 
L 1825 4384 
Q 1516 4384 1395 4259 
Q 1275 4134 1275 3809 
L 1275 3500 
L 2222 3500 
L 2222 3053 
L 1275 3053 
L 1275 0 
L 697 0 
L 697 3053 
L 147 3053 
L 147 3500 
L 697 3500 
L 697 3744 
Q 697 4328 969 4595 
Q 1241 4863 1831 4863 
L 2375 4863 
z
" transform="scale(0.015625)"/>
       <path id="DejaVuSans-69" d="M 603 3500 
L 1178 3500 
L 1178 0 
L 603 0 
L 603 3500 
z
M 603 4863 
L 1178 4863 
L 1178 4134 
L 603 4134 
L 603 4863 
z
" transform="scale(0.015625)"/>
      </defs>
      <use xlink:href="#DejaVuSans-50"/>
      <use xlink:href="#DejaVuSans-72" transform="translate(58.552734 0)"/>
      <use xlink:href="#DejaVuSans-6f" transform="translate(97.416016 0)"/>
      <use xlink:href="#DejaVuSans-66" transform="translate(158.597656 0)"/>
      <use xlink:href="#DejaVuSans-69" transform="translate(193.802734 0)"/>
      <use xlink:href="#DejaVuSans-74" transform="translate(221.585938 0)"/>
     </g>
    </g>
   </g>
   <g id="line2d_13">
    <path d="M 52.193327 250.721254 
L 54.83998 250.33777 
L 57.486633 239.052615 
L 60.133287 229.391628 
L 62.77994 221.246008 
L 65.426593 214.5382 
L 68.073247 208.678457 
L 70.7199 203.756146 
L 73.366553 199.207732 
L 78.65986 191.765645 
L 81.306513 188.563064 
L 83.953167 185.638385 
L 86.59982 182.985736 
L 89.246473 180.634977 
L 91.893127 178.483053 
L 99.833087 172.921595 
L 102.47974 171.170126 
L 110.4197 166.789844 
L 113.066353 165.427775 
L 121.006313 161.90046 
L 128.946273 158.71228 
L 134.23958 156.803712 
L 142.17954 154.363673 
L 155.412807 150.763163 
L 168.646073 147.797051 
L 173.93938 146.64988 
L 181.87934 145.108344 
L 187.172647 144.230094 
L 197.75926 142.405257 
L 203.052567 141.57589 
L 210.992527 140.494293 
L 221.57914 139.080793 
L 261.27894 134.464 
L 295.685433 131.561474 
L 314.212007 130.133184 
L 353.911807 127.556558 
L 430.664753 123.502198 
L 496.831087 120.930559 
L 552.410807 118.972784 
L 621.223793 116.960967 
L 655.630287 116.093016 
L 674.15686 115.558781 
L 764.143073 113.592456 
L 793.25626 113.062108 
L 814.429487 112.667137 
L 843.542673 112.249387 
L 843.542673 112.249387 
" clip-path="url(#p7b1dad1758)" style="fill: none; stroke: #0000ff; stroke-width: 1.5; stroke-linecap: square"/>
   </g>
   <g id="patch_3">
    <path d="M 50.87 390.04 
L 50.87 43.44 
" style="fill: none; stroke: #000000; stroke-width: 0.8; stroke-linejoin: miter; stroke-linecap: square"/>
   </g>
   <g id="patch_4">
    <path d="M 844.866 390.04 
L 844.866 43.44 
" style="fill: none; stroke: #000000; stroke-width: 0.8; stroke-linejoin: miter; stroke-linecap: square"/>
   </g>
   <g id="patch_5">
    <path d="M 50.87 390.04 
L 844.866 390.04 
" style="fill: none; stroke: #000000; stroke-width: 0.8; stroke-linejoin: miter; stroke-linecap: square"/>
   </g>
   <g id="patch_6">
    <path d="M 50.87 43.44 
L 844.866 43.44 
" style="fill: none; stroke: #000000; stroke-width: 0.8; stroke-linejoin: miter; stroke-linecap: square"/>
   </g>
   <g id="text_15">
    <!-- Mean profit per step with confidence interval per simulation step -->
    <g transform="translate(220.284875 21.763062) scale(0.14 -0.14)">
     <defs>
      <path id="DejaVuSans-4d" d="M 628 4666 
L 1569 4666 
L 2759 1491 
L 3956 4666 
L 4897 4666 
L 4897 0 
L 4281 0 
L 4281 4097 
L 3078 897 
L 2444 897 
L 1241 4097 
L 1241 0 
L 628 0 
L 628 4666 
z
" transform="scale(0.015625)"/>
      <path id="DejaVuSans-61" d="M 2194 1759 
Q 1497 1759 1228 1600 
Q 959 1441 959 1056 
Q 959 750 1161 570 
Q 1363 391 1709 391 
Q 2188 391 2477 730 
Q 2766 1069 2766 1631 
L 2766 1759 
L 2194 1759 
z
M 3341 1997 
L 3341 0 
L 2766 0 
L 2766 531 
Q 2569 213 2275 61 
Q 1981 -91 1556 -91 
Q 1019 -91 701 211 
Q 384 513 384 1019 
Q 384 1609 779 1909 
Q 1175 2209 1959 2209 
L 2766 2209 
L 2766 2266 
Q 2766 2663 2505 2880 
Q 2244 3097 1772 3097 
Q 1472 3097 1187 3025 
Q 903 2953 641 2809 
L 641 3341 
Q 956 3463 1253 3523 
Q 1550 3584 1831 3584 
Q 2591 3584 2966 3190 
Q 3341 2797 3341 1997 
z
" transform="scale(0.015625)"/>
      <path id="DejaVuSans-6e" d="M 3513 2113 
L 3513 0 
L 2938 0 
L 2938 2094 
Q 2938 2591 2744 2837 
Q 2550 3084 2163 3084 
Q 1697 3084 1428 2787 
Q 1159 2491 1159 1978 
L 1159 0 
L 581 0 
L 581 3500 
L 1159 3500 
L 1159 2956 
Q 1366 3272 1645 3428 
Q 1925 3584 2291 3584 
Q 2894 3584 3203 3211 
Q 3513 2838 3513 2113 
z
" transform="scale(0.015625)"/>
      <path id="DejaVuSans-20" transform="scale(0.015625)"/>
      <path id="DejaVuSans-73" d="M 2834 3397 
L 2834 2853 
Q 2591 2978 2328 3040 
Q 2066 3103 1784 3103 
Q 1356 3103 1142 2972 
Q 928 2841 928 2578 
Q 928 2378 1081 2264 
Q 1234 2150 1697 2047 
L 1894 2003 
Q 2506 1872 2764 1633 
Q 3022 1394 3022 966 
Q 3022 478 2636 193 
Q 2250 -91 1575 -91 
Q 1294 -91 989 -36 
Q 684 19 347 128 
L 347 722 
Q 666 556 975 473 
Q 1284 391 1588 391 
Q 1994 391 2212 530 
Q 2431 669 2431 922 
Q 2431 1156 2273 1281 
Q 2116 1406 1581 1522 
L 1381 1569 
Q 847 1681 609 1914 
Q 372 2147 372 2553 
Q 372 3047 722 3315 
Q 1072 3584 1716 3584 
Q 2034 3584 2315 3537 
Q 2597 3491 2834 3397 
z
" transform="scale(0.015625)"/>
      <path id="DejaVuSans-77" d="M 269 3500 
L 844 3500 
L 1563 769 
L 2278 3500 
L 2956 3500 
L 3675 769 
L 4391 3500 
L 4966 3500 
L 4050 0 
L 3372 0 
L 2619 2869 
L 1863 0 
L 1184 0 
L 269 3500 
z
" transform="scale(0.015625)"/>
      <path id="DejaVuSans-68" d="M 3513 2113 
L 3513 0 
L 2938 0 
L 2938 2094 
Q 2938 2591 2744 2837 
Q 2550 3084 2163 3084 
Q 1697 3084 1428 2787 
Q 1159 2491 1159 1978 
L 1159 0 
L 581 0 
L 581 4863 
L 1159 4863 
L 1159 2956 
Q 1366 3272 1645 3428 
Q 1925 3584 2291 3584 
Q 2894 3584 3203 3211 
Q 3513 2838 3513 2113 
z
" transform="scale(0.015625)"/>
      <path id="DejaVuSans-63" d="M 3122 3366 
L 3122 2828 
Q 2878 2963 2633 3030 
Q 2388 3097 2138 3097 
Q 1578 3097 1268 2742 
Q 959 2388 959 1747 
Q 959 1106 1268 751 
Q 1578 397 2138 397 
Q 2388 397 2633 464 
Q 2878 531 3122 666 
L 3122 134 
Q 2881 22 2623 -34 
Q 2366 -91 2075 -91 
Q 1284 -91 818 406 
Q 353 903 353 1747 
Q 353 2603 823 3093 
Q 1294 3584 2113 3584 
Q 2378 3584 2631 3529 
Q 2884 3475 3122 3366 
z
" transform="scale(0.015625)"/>
      <path id="DejaVuSans-64" d="M 2906 2969 
L 2906 4863 
L 3481 4863 
L 3481 0 
L 2906 0 
L 2906 525 
Q 2725 213 2448 61 
Q 2172 -91 1784 -91 
Q 1150 -91 751 415 
Q 353 922 353 1747 
Q 353 2572 751 3078 
Q 1150 3584 1784 3584 
Q 2172 3584 2448 3432 
Q 2725 3281 2906 2969 
z
M 947 1747 
Q 947 1113 1208 752 
Q 1469 391 1925 391 
Q 2381 391 2643 752 
Q 2906 1113 2906 1747 
Q 2906 2381 2643 2742 
Q 2381 3103 1925 3103 
Q 1469 3103 1208 2742 
Q 947 2381 947 1747 
z
" transform="scale(0.015625)"/>
      <path id="DejaVuSans-76" d="M 191 3500 
L 800 3500 
L 1894 563 
L 2988 3500 
L 3597 3500 
L 2284 0 
L 1503 0 
L 191 3500 
z
" transform="scale(0.015625)"/>
      <path id="DejaVuSans-6c" d="M 603 4863 
L 1178 4863 
L 1178 0 
L 603 0 
L 603 4863 
z
" transform="scale(0.015625)"/>
      <path id="DejaVuSans-6d" d="M 3328 2828 
Q 3544 3216 3844 3400 
Q 4144 3584 4550 3584 
Q 5097 3584 5394 3201 
Q 5691 2819 5691 2113 
L 5691 0 
L 5113 0 
L 5113 2094 
Q 5113 2597 4934 2840 
Q 4756 3084 4391 3084 
Q 3944 3084 3684 2787 
Q 3425 2491 3425 1978 
L 3425 0 
L 2847 0 
L 2847 2094 
Q 2847 2600 2669 2842 
Q 2491 3084 2119 3084 
Q 1678 3084 1418 2786 
Q 1159 2488 1159 1978 
L 1159 0 
L 581 0 
L 581 3500 
L 1159 3500 
L 1159 2956 
Q 1356 3278 1631 3431 
Q 1906 3584 2284 3584 
Q 2666 3584 2933 3390 
Q 3200 3197 3328 2828 
z
" transform="scale(0.015625)"/>
      <path id="DejaVuSans-75" d="M 544 1381 
L 544 3500 
L 1119 3500 
L 1119 1403 
Q 1119 906 1312 657 
Q 1506 409 1894 409 
Q 2359 409 2629 706 
Q 2900 1003 2900 1516 
L 2900 3500 
L 3475 3500 
L 3475 0 
L 2900 0 
L 2900 538 
Q 2691 219 2414 64 
Q 2138 -91 1772 -91 
Q 1169 -91 856 284 
Q 544 659 544 1381 
z
M 1991 3584 
L 1991 3584 
z
" transform="scale(0.015625)"/>
     </defs>
     <use xlink:href="#DejaVuSans-4d"/>
     <use xlink:href="#DejaVuSans-65" transform="translate(86.279297 0)"/>
     <use xlink:href="#DejaVuSans-61" transform="translate(147.802734 0)"/>
     <use xlink:href="#DejaVuSans-6e" transform="translate(209.082031 0)"/>
     <use xlink:href="#DejaVuSans-20" transform="translate(272.460938 0)"/>
     <use xlink:href="#DejaVuSans-70" transform="translate(304.248047 0)"/>
     <use xlink:href="#DejaVuSans-72" transform="translate(367.724609 0)"/>
     <use xlink:href="#DejaVuSans-6f" transform="translate(406.587891 0)"/>
     <use xlink:href="#DejaVuSans-66" transform="translate(467.769531 0)"/>
     <use xlink:href="#DejaVuSans-69" transform="translate(502.974609 0)"/>
     <use xlink:href="#DejaVuSans-74" transform="translate(530.757812 0)"/>
     <use xlink:href="#DejaVuSans-20" transform="translate(569.966797 0)"/>
     <use xlink:href="#DejaVuSans-70" transform="translate(601.753906 0)"/>
     <use xlink:href="#DejaVuSans-65" transform="translate(665.230469 0)"/>
     <use xlink:href="#DejaVuSans-72" transform="translate(726.753906 0)"/>
     <use xlink:href="#DejaVuSans-20" transform="translate(767.867188 0)"/>
     <use xlink:href="#DejaVuSans-73" transform="translate(799.654297 0)"/>
     <use xlink:href="#DejaVuSans-74" transform="translate(851.753906 0)"/>
     <use xlink:href="#DejaVuSans-65" transform="translate(890.962891 0)"/>
     <use xlink:href="#DejaVuSans-70" transform="translate(952.486328 0)"/>
     <use xlink:href="#DejaVuSans-20" transform="translate(1015.962891 0)"/>
     <use xlink:href="#DejaVuSans-77" transform="translate(1047.75 0)"/>
     <use xlink:href="#DejaVuSans-69" transform="translate(1129.537109 0)"/>
     <use xlink:href="#DejaVuSans-74" transform="translate(1157.320312 0)"/>
     <use xlink:href="#DejaVuSans-68" transform="translate(1196.529297 0)"/>
     <use xlink:href="#DejaVuSans-20" transform="translate(1259.908203 0)"/>
     <use xlink:href="#DejaVuSans-63" transform="translate(1291.695312 0)"/>
     <use xlink:href="#DejaVuSans-6f" transform="translate(1346.675781 0)"/>
     <use xlink:href="#DejaVuSans-6e" transform="translate(1407.857422 0)"/>
     <use xlink:href="#DejaVuSans-66" transform="translate(1471.236328 0)"/>
     <use xlink:href="#DejaVuSans-69" transform="translate(1506.441406 0)"/>
     <use xlink:href="#DejaVuSans-64" transform="translate(1534.224609 0)"/>
     <use xlink:href="#DejaVuSans-65" transform="translate(1597.701172 0)"/>
     <use xlink:href="#DejaVuSans-6e" transform="translate(1659.224609 0)"/>
     <use xlink:href="#DejaVuSans-63" transform="translate(1722.603516 0)"/>
     <use xlink:href="#DejaVuSans-65" transform="translate(1777.583984 0)"/>
     <use xlink:href="#DejaVuSans-20" transform="translate(1839.107422 0)"/>
     <use xlink:href="#DejaVuSans-69" transform="translate(1870.894531 0)"/>
     <use xlink:href="#DejaVuSans-6e" transform="translate(1898.677734 0)"/>
     <use xlink:href="#DejaVuSans-74" transform="translate(1962.056641 0)"/>
     <use xlink:href="#DejaVuSans-65" transform="translate(2001.265625 0)"/>
     <use xlink:href="#DejaVuSans-72" transform="translate(2062.789062 0)"/>
     <use xlink:href="#DejaVuSans-76" transform="translate(2103.902344 0)"/>
     <use xlink:href="#DejaVuSans-61" transform="translate(2163.082031 0)"/>
     <use xlink:href="#DejaVuSans-6c" transform="translate(2224.361328 0)"/>
     <use xlink:href="#DejaVuSans-20" transform="translate(2252.144531 0)"/>
     <use xlink:href="#DejaVuSans-70" transform="translate(2283.931641 0)"/>
     <use xlink:href="#DejaVuSans-65" transform="translate(2347.408203 0)"/>
     <use xlink:href="#DejaVuSans-72" transform="translate(2408.931641 0)"/>
     <use xlink:href="#DejaVuSans-20" transform="translate(2450.044922 0)"/>
     <use xlink:href="#DejaVuSans-73" transform="translate(2481.832031 0)"/>
     <use xlink:href="#DejaVuSans-69" transform="translate(2533.931641 0)"/>
     <use xlink:href="#DejaVuSans-6d" transform="translate(2561.714844 0)"/>
     <use xlink:href="#DejaVuSans-75" transform="translate(2659.126953 0)"/>
     <use xlink:href="#DejaVuSans-6c" transform="translate(2722.505859 0)"/>
     <use xlink:href="#DejaVuSans-61" transform="translate(2750.289062 0)"/>
     <use xlink:href="#DejaVuSans-74" transform="translate(2811.568359 0)"/>
     <use xlink:href="#DejaVuSans-69" transform="translate(2850.777344 0)"/>
     <use xlink:href="#DejaVuSans-6f" transform="translate(2878.560547 0)"/>
     <use xlink:href="#DejaVuSans-6e" transform="translate(2939.742188 0)"/>
     <use xlink:href="#DejaVuSans-20" transform="translate(3003.121094 0)"/>
     <use xlink:href="#DejaVuSans-73" transform="translate(3034.908203 0)"/>
     <use xlink:href="#DejaVuSans-74" transform="translate(3087.007812 0)"/>
     <use xlink:href="#DejaVuSans-65" transform="translate(3126.216797 0)"/>
     <use xlink:href="#DejaVuSans-70" transform="translate(3187.740234 0)"/>
    </g>
    <!-- Base Product: OG Kush, Recipe size: 8, T0: 5.0 -->
    <g transform="translate(285.943781 37.44) scale(0.14 -0.14)">
     <defs>
      <path id="DejaVuSans-42" d="M 1259 2228 
L 1259 519 
L 2272 519 
Q 2781 519 3026 730 
Q 3272 941 3272 1375 
Q 3272 1813 3026 2020 
Q 2781 2228 2272 2228 
L 1259 2228 
z
M 1259 4147 
L 1259 2741 
L 2194 2741 
Q 2656 2741 2882 2914 
Q 3109 3088 3109 3444 
Q 3109 3797 2882 3972 
Q 2656 4147 2194 4147 
L 1259 4147 
z
M 628 4666 
L 2241 4666 
Q 2963 4666 3353 4366 
Q 3744 4066 3744 3513 
Q 3744 3084 3544 2831 
Q 3344 2578 2956 2516 
Q 3422 2416 3680 2098 
Q 3938 1781 3938 1306 
Q 3938 681 3513 340 
Q 3088 0 2303 0 
L 628 0 
L 628 4666 
z
" transform="scale(0.015625)"/>
      <path id="DejaVuSans-3a" d="M 750 794 
L 1409 794 
L 1409 0 
L 750 0 
L 750 794 
z
M 750 3309 
L 1409 3309 
L 1409 2516 
L 750 2516 
L 750 3309 
z
" transform="scale(0.015625)"/>
      <path id="DejaVuSans-4f" d="M 2522 4238 
Q 1834 4238 1429 3725 
Q 1025 3213 1025 2328 
Q 1025 1447 1429 934 
Q 1834 422 2522 422 
Q 3209 422 3611 934 
Q 4013 1447 4013 2328 
Q 4013 3213 3611 3725 
Q 3209 4238 2522 4238 
z
M 2522 4750 
Q 3503 4750 4090 4092 
Q 4678 3434 4678 2328 
Q 4678 1225 4090 567 
Q 3503 -91 2522 -91 
Q 1538 -91 948 565 
Q 359 1222 359 2328 
Q 359 3434 948 4092 
Q 1538 4750 2522 4750 
z
" transform="scale(0.015625)"/>
      <path id="DejaVuSans-47" d="M 3809 666 
L 3809 1919 
L 2778 1919 
L 2778 2438 
L 4434 2438 
L 4434 434 
Q 4069 175 3628 42 
Q 3188 -91 2688 -91 
Q 1594 -91 976 548 
Q 359 1188 359 2328 
Q 359 3472 976 4111 
Q 1594 4750 2688 4750 
Q 3144 4750 3555 4637 
Q 3966 4525 4313 4306 
L 4313 3634 
Q 3963 3931 3569 4081 
Q 3175 4231 2741 4231 
Q 1884 4231 1454 3753 
Q 1025 3275 1025 2328 
Q 1025 1384 1454 906 
Q 1884 428 2741 428 
Q 3075 428 3337 486 
Q 3600 544 3809 666 
z
" transform="scale(0.015625)"/>
      <path id="DejaVuSans-4b" d="M 628 4666 
L 1259 4666 
L 1259 2694 
L 3353 4666 
L 4166 4666 
L 1850 2491 
L 4331 0 
L 3500 0 
L 1259 2247 
L 1259 0 
L 628 0 
L 628 4666 
z
" transform="scale(0.015625)"/>
      <path id="DejaVuSans-2c" d="M 750 794 
L 1409 794 
L 1409 256 
L 897 -744 
L 494 -744 
L 750 256 
L 750 794 
z
" transform="scale(0.015625)"/>
      <path id="DejaVuSans-52" d="M 2841 2188 
Q 3044 2119 3236 1894 
Q 3428 1669 3622 1275 
L 4263 0 
L 3584 0 
L 2988 1197 
Q 2756 1666 2539 1819 
Q 2322 1972 1947 1972 
L 1259 1972 
L 1259 0 
L 628 0 
L 628 4666 
L 2053 4666 
Q 2853 4666 3247 4331 
Q 3641 3997 3641 3322 
Q 3641 2881 3436 2590 
Q 3231 2300 2841 2188 
z
M 1259 4147 
L 1259 2491 
L 2053 2491 
Q 2509 2491 2742 2702 
Q 2975 2913 2975 3322 
Q 2975 3731 2742 3939 
Q 2509 4147 2053 4147 
L 1259 4147 
z
" transform="scale(0.015625)"/>
      <path id="DejaVuSans-7a" d="M 353 3500 
L 3084 3500 
L 3084 2975 
L 922 459 
L 3084 459 
L 3084 0 
L 275 0 
L 275 525 
L 2438 3041 
L 353 3041 
L 353 3500 
z
" transform="scale(0.015625)"/>
      <path id="DejaVuSans-54" d="M -19 4666 
L 3928 4666 
L 3928 4134 
L 2272 4134 
L 2272 0 
L 1638 0 
L 1638 4134 
L -19 4134 
L -19 4666 
z
" transform="scale(0.015625)"/>
      <path id="DejaVuSans-2e" d="M 684 794 
L 1344 794 
L 1344 0 
L 684 0 
L 684 794 
z
" transform="scale(0.015625)"/>
     </defs>
     <use xlink:href="#DejaVuSans-42"/>
     <use xlink:href="#DejaVuSans-61" transform="translate(68.603516 0)"/>
     <use xlink:href="#DejaVuSans-73" transform="translate(129.882812 0)"/>
     <use xlink:href="#DejaVuSans-65" transform="translate(181.982422 0)"/>
     <use xlink:href="#DejaVuSans-20" transform="translate(243.505859 0)"/>
     <use xlink:href="#DejaVuSans-50" transform="translate(275.292969 0)"/>
     <use xlink:href="#DejaVuSans-72" transform="translate(333.845703 0)"/>
     <use xlink:href="#DejaVuSans-6f" transform="translate(372.708984 0)"/>
     <use xlink:href="#DejaVuSans-64" transform="translate(433.890625 0)"/>
     <use xlink:href="#DejaVuSans-75" transform="translate(497.367188 0)"/>
     <use xlink:href="#DejaVuSans-63" transform="translate(560.746094 0)"/>
     <use xlink:href="#DejaVuSans-74" transform="translate(615.726562 0)"/>
     <use xlink:href="#DejaVuSans-3a" transform="translate(654.935547 0)"/>
     <use xlink:href="#DejaVuSans-20" transform="translate(688.626953 0)"/>
     <use xlink:href="#DejaVuSans-4f" transform="translate(720.414062 0)"/>
     <use xlink:href="#DejaVuSans-47" transform="translate(799.125 0)"/>
     <use xlink:href="#DejaVuSans-20" transform="translate(876.615234 0)"/>
     <use xlink:href="#DejaVuSans-4b" transform="translate(908.402344 0)"/>
     <use xlink:href="#DejaVuSans-75" transform="translate(968.978516 0)"/>
     <use xlink:href="#DejaVuSans-73" transform="translate(1032.357422 0)"/>
     <use xlink:href="#DejaVuSans-68" transform="translate(1084.457031 0)"/>
     <use xlink:href="#DejaVuSans-2c" transform="translate(1147.835938 0)"/>
     <use xlink:href="#DejaVuSans-20" transform="translate(1179.623047 0)"/>
     <use xlink:href="#DejaVuSans-52" transform="translate(1211.410156 0)"/>
     <use xlink:href="#DejaVuSans-65" transform="translate(1276.392578 0)"/>
     <use xlink:href="#DejaVuSans-63" transform="translate(1337.916016 0)"/>
     <use xlink:href="#DejaVuSans-69" transform="translate(1392.896484 0)"/>
     <use xlink:href="#DejaVuSans-70" transform="translate(1420.679688 0)"/>
     <use xlink:href="#DejaVuSans-65" transform="translate(1484.15625 0)"/>
     <use xlink:href="#DejaVuSans-20" transform="translate(1545.679688 0)"/>
     <use xlink:href="#DejaVuSans-73" transform="translate(1577.466797 0)"/>
     <use xlink:href="#DejaVuSans-69" transform="translate(1629.566406 0)"/>
     <use xlink:href="#DejaVuSans-7a" transform="translate(1657.349609 0)"/>
     <use xlink:href="#DejaVuSans-65" transform="translate(1709.839844 0)"/>
     <use xlink:href="#DejaVuSans-3a" transform="translate(1771.363281 0)"/>
     <use xlink:href="#DejaVuSans-20" transform="translate(1805.054688 0)"/>
     <use xlink:href="#DejaVuSans-38" transform="translate(1836.841797 0)"/>
     <use xlink:href="#DejaVuSans-2c" transform="translate(1900.464844 0)"/>
     <use xlink:href="#DejaVuSans-20" transform="translate(1932.251953 0)"/>
     <use xlink:href="#DejaVuSans-54" transform="translate(1964.039062 0)"/>
     <use xlink:href="#DejaVuSans-30" transform="translate(2025.123047 0)"/>
     <use xlink:href="#DejaVuSans-3a" transform="translate(2088.746094 0)"/>
     <use xlink:href="#DejaVuSans-20" transform="translate(2122.4375 0)"/>
     <use xlink:href="#DejaVuSans-35" transform="translate(2154.224609 0)"/>
     <use xlink:href="#DejaVuSans-2e" transform="translate(2217.847656 0)"/>
     <use xlink:href="#DejaVuSans-30" transform="translate(2249.634766 0)"/>
    </g>
   </g>
  </g>
 </g>
 <defs>
  <clipPath id="p7b1dad1758">
   <rect x="50.87" y="43.44" width="793.996" height="346.6"/>
  </clipPath>
 </defs>
</svg>
