<?xml version="1.0" encoding="utf-8" standalone="no"?>
<!DOCTYPE svg PUBLIC "-//W3C//DTD SVG 1.1//EN"
  "http://www.w3.org/Graphics/SVG/1.1/DTD/svg11.dtd">
<svg xmlns:xlink="http://www.w3.org/1999/xlink" width="864pt" height="432pt" viewBox="0 0 864 432" xmlns="http://www.w3.org/2000/svg" version="1.1">
 <metadata>
  <rdf:RDF xmlns:dc="http://purl.org/dc/elements/1.1/" xmlns:cc="http://creativecommons.org/ns#" xmlns:rdf="http://www.w3.org/1999/02/22-rdf-syntax-ns#">
   <cc:Work>
    <dc:type rdf:resource="http://purl.org/dc/dcmitype/StillImage"/>
    <dc:date>2025-05-24T02:03:51.092720</dc:date>
    <dc:format>image/svg+xml</dc:format>
    <dc:creator>
     <cc:Agent>
      <dc:title>Matplotlib v3.10.3, https://matplotlib.org/</dc:title>
     </cc:Agent>
    </dc:creator>
   </cc:Work>
  </rdf:RDF>
 </metadata>
 <defs>
  <style type="text/css">*{stroke-linejoin: round; stroke-linecap: butt}</style>
 </defs>
 <g id="figure_1">
  <g id="patch_1">
   <path d="M 0 432 
L 864 432 
L 864 0 
L 0 0 
z
" style="fill: #ffffff"/>
  </g>
  <g id="axes_1">
   <g id="patch_2">
    <path d="M 50.87 390.04 
L 844.866 390.04 
L 844.866 43.44 
L 50.87 43.44 
z
" style="fill: #ffffff"/>
   </g>
   <g id="FillBetweenPolyCollection_1">
    <defs>
     <path id="m99db562a84" d="M 52.193327 -295.336852 
L 52.193327 -58.717296 
L 54.83998 -57.714545 
L 57.486633 -72.307567 
L 60.133287 -85.08599 
L 62.77994 -96.010465 
L 65.426593 -105.735222 
L 68.073247 -113.935842 
L 70.7199 -121.88289 
L 73.366553 -128.28458 
L 76.013207 -134.109509 
L 78.65986 -139.369449 
L 81.306513 -143.855661 
L 83.953167 -148.437381 
L 86.59982 -152.400131 
L 89.246473 -156.112016 
L 91.893127 -159.351825 
L 94.53978 -162.621808 
L 97.186433 -165.864506 
L 99.833087 -168.349042 
L 102.47974 -170.916786 
L 105.126393 -173.461325 
L 107.773047 -175.766687 
L 110.4197 -177.719938 
L 113.066353 -180.222807 
L 115.713007 -182.221655 
L 118.35966 -184.23325 
L 121.006313 -185.925238 
L 123.652967 -187.531892 
L 126.29962 -189.144425 
L 128.946273 -190.538811 
L 131.592927 -191.798888 
L 134.23958 -193.055058 
L 136.886233 -194.55134 
L 139.532887 -196.011832 
L 142.17954 -197.153572 
L 144.826193 -198.346077 
L 147.472847 -199.581249 
L 150.1195 -200.756723 
L 152.766153 -201.955149 
L 155.412807 -203.064578 
L 158.05946 -203.965493 
L 160.706113 -205.046477 
L 163.352767 -206.095639 
L 165.99942 -206.816363 
L 168.646073 -207.674774 
L 171.292727 -208.584336 
L 173.93938 -209.60371 
L 176.586033 -210.395994 
L 179.232687 -211.212164 
L 181.87934 -212.201262 
L 184.525993 -212.804829 
L 187.172647 -213.687473 
L 189.8193 -214.395663 
L 192.465953 -214.956502 
L 195.112607 -215.865861 
L 197.75926 -216.556085 
L 200.405913 -217.167608 
L 203.052567 -218.00673 
L 205.69922 -218.43621 
L 208.345873 -218.980202 
L 210.992527 -219.674149 
L 213.63918 -220.362603 
L 216.285833 -220.867732 
L 218.932487 -221.583349 
L 221.57914 -222.150801 
L 224.225793 -222.739515 
L 226.872447 -223.334862 
L 229.5191 -223.829858 
L 232.165753 -224.310246 
L 234.812407 -224.84264 
L 237.45906 -225.216736 
L 240.105713 -225.623712 
L 242.752367 -226.146442 
L 245.39902 -226.627745 
L 248.045673 -227.091815 
L 250.692327 -227.432969 
L 253.33898 -228.014175 
L 255.985633 -228.535501 
L 258.632287 -228.887825 
L 261.27894 -229.234413 
L 263.925593 -229.52877 
L 266.572247 -229.980774 
L 269.2189 -230.336924 
L 271.865553 -230.816945 
L 274.512207 -231.240687 
L 277.15886 -231.510303 
L 279.805513 -231.808607 
L 282.452167 -232.17489 
L 285.09882 -232.56156 
L 287.745473 -232.894759 
L 290.392127 -233.234286 
L 293.03878 -233.627243 
L 295.685433 -233.976455 
L 298.332087 -234.365079 
L 300.97874 -234.565597 
L 303.625393 -234.967201 
L 306.272047 -235.204669 
L 308.9187 -235.432593 
L 311.565353 -235.825673 
L 314.212007 -236.130997 
L 316.85866 -236.377844 
L 319.505313 -236.603348 
L 322.151967 -236.968064 
L 324.79862 -237.181522 
L 327.445273 -237.42957 
L 330.091927 -237.771782 
L 332.73858 -238.048641 
L 335.385233 -238.334127 
L 338.031887 -238.617151 
L 340.67854 -238.86178 
L 343.325193 -239.180492 
L 345.971847 -239.540549 
L 348.6185 -239.827194 
L 351.265153 -240.066656 
L 353.911807 -240.387158 
L 356.55846 -240.669958 
L 359.205113 -240.950459 
L 361.851767 -241.143509 
L 364.49842 -241.354017 
L 367.145073 -241.568594 
L 369.791727 -241.738653 
L 372.43838 -241.912353 
L 375.085033 -242.194421 
L 377.731687 -242.338395 
L 380.37834 -242.60392 
L 383.024993 -242.83331 
L 385.671647 -243.052608 
L 388.3183 -243.298499 
L 390.964953 -243.572122 
L 393.611607 -243.715303 
L 396.25826 -243.825053 
L 398.904913 -244.033771 
L 401.551567 -244.282225 
L 404.19822 -244.502642 
L 406.844873 -244.751178 
L 409.491527 -244.949905 
L 412.13818 -245.058231 
L 414.784833 -245.260458 
L 417.431487 -245.418512 
L 420.07814 -245.600351 
L 422.724793 -245.805508 
L 425.371447 -245.93998 
L 428.0181 -246.13128 
L 430.664753 -246.239973 
L 433.311407 -246.425454 
L 435.95806 -246.604099 
L 438.604713 -246.785897 
L 441.251367 -247.029957 
L 443.89802 -247.212325 
L 446.544673 -247.398397 
L 449.191327 -247.501941 
L 451.83798 -247.742379 
L 454.484633 -247.950568 
L 457.131287 -248.098876 
L 459.77794 -248.223459 
L 462.424593 -248.307715 
L 465.071247 -248.480683 
L 467.7179 -248.55092 
L 470.364553 -248.77036 
L 473.011207 -248.893947 
L 475.65786 -249.04437 
L 478.304513 -249.21158 
L 480.951167 -249.483006 
L 483.59782 -249.676626 
L 486.244473 -249.886158 
L 488.891127 -250.082199 
L 491.53778 -250.346219 
L 494.184433 -250.41198 
L 496.831087 -250.513937 
L 499.47774 -250.664707 
L 502.124393 -250.805995 
L 504.771047 -251.0163 
L 507.4177 -251.189471 
L 510.064353 -251.269434 
L 512.711007 -251.391149 
L 515.35766 -251.50391 
L 518.004313 -251.663531 
L 520.650967 -251.821829 
L 523.29762 -252.011624 
L 525.944273 -252.203453 
L 528.590927 -252.347427 
L 531.23758 -252.398457 
L 533.884233 -252.54827 
L 536.530887 -252.653321 
L 539.17754 -252.711574 
L 541.824193 -252.788261 
L 544.470847 -252.877624 
L 547.1175 -252.988209 
L 549.764153 -253.069799 
L 552.410807 -253.132284 
L 555.05746 -253.309057 
L 557.704113 -253.379213 
L 560.350767 -253.431728 
L 562.99742 -253.703174 
L 565.644073 -253.848572 
L 568.290727 -253.969799 
L 570.93738 -254.068521 
L 573.584033 -254.249892 
L 576.230687 -254.376775 
L 578.87734 -254.528399 
L 581.523993 -254.771503 
L 584.170647 -254.903045 
L 586.8173 -255.025756 
L 589.463953 -255.111518 
L 592.110607 -255.222327 
L 594.75726 -255.286744 
L 597.403913 -255.377654 
L 600.050567 -255.486855 
L 602.69722 -255.540245 
L 605.343873 -255.558883 
L 607.990527 -255.719663 
L 610.63718 -255.874563 
L 613.283833 -256.011965 
L 615.930487 -256.160822 
L 618.57714 -256.367952 
L 621.223793 -256.471863 
L 623.870447 -256.539435 
L 626.5171 -256.662411 
L 629.163753 -256.855258 
L 631.810407 -256.97333 
L 634.45706 -257.082633 
L 637.103713 -257.208661 
L 639.750367 -257.30012 
L 642.39702 -257.438377 
L 645.043673 -257.567355 
L 647.690327 -257.676271 
L 650.33698 -257.776642 
L 652.983633 -257.842667 
L 655.630287 -257.867104 
L 658.27694 -257.997404 
L 660.923593 -258.069046 
L 663.570247 -258.190455 
L 666.2169 -258.289137 
L 668.863553 -258.39317 
L 671.510207 -258.4677 
L 674.15686 -258.586647 
L 676.803513 -258.710498 
L 679.450167 -258.776646 
L 682.09682 -258.816566 
L 684.743473 -258.920233 
L 687.390127 -259.002515 
L 690.03678 -259.039689 
L 692.683433 -259.207347 
L 695.330087 -259.279211 
L 697.97674 -259.443329 
L 700.623393 -259.567729 
L 703.270047 -259.708875 
L 705.9167 -259.871873 
L 708.563353 -259.969374 
L 711.210007 -260.102768 
L 713.85666 -260.160268 
L 716.503313 -260.236711 
L 719.149967 -260.286805 
L 721.79662 -260.402964 
L 724.443273 -260.451247 
L 727.089927 -260.57284 
L 729.73658 -260.587673 
L 732.383233 -260.684523 
L 735.029887 -260.744852 
L 737.67654 -260.853707 
L 740.323193 -260.949357 
L 742.969847 -261.002523 
L 745.6165 -261.133984 
L 748.263153 -261.257672 
L 750.909807 -261.311469 
L 753.55646 -261.399306 
L 756.203113 -261.541774 
L 758.849767 -261.618034 
L 761.49642 -261.701415 
L 764.143073 -261.746788 
L 766.789727 -261.858614 
L 769.43638 -261.959494 
L 772.083033 -262.032213 
L 774.729687 -262.11004 
L 777.37634 -262.222293 
L 780.022993 -262.279813 
L 782.669647 -262.386308 
L 785.3163 -262.409565 
L 787.962953 -262.567171 
L 790.609607 -262.613012 
L 793.25626 -262.71322 
L 795.902913 -262.804842 
L 798.549567 -262.855281 
L 801.19622 -263.043672 
L 803.842873 -263.153525 
L 806.489527 -263.248361 
L 809.13618 -263.262258 
L 811.782833 -263.294243 
L 814.429487 -263.343197 
L 817.07614 -263.34568 
L 819.722793 -263.455308 
L 822.369447 -263.563472 
L 825.0161 -263.612874 
L 827.662753 -263.708504 
L 830.309407 -263.766309 
L 832.95606 -263.799657 
L 835.602713 -263.877626 
L 838.249367 -263.955147 
L 840.89602 -264.025059 
L 843.542673 -264.096802 
L 843.542673 -372.805455 
L 843.542673 -372.805455 
L 840.89602 -372.759471 
L 838.249367 -372.74885 
L 835.602713 -372.719754 
L 832.95606 -372.667381 
L 830.309407 -372.614073 
L 827.662753 -372.584 
L 825.0161 -372.575088 
L 822.369447 -372.56288 
L 819.722793 -372.555067 
L 817.07614 -372.559625 
L 814.429487 -372.473761 
L 811.782833 -372.4244 
L 809.13618 -372.362953 
L 806.489527 -372.296174 
L 803.842873 -372.274241 
L 801.19622 -372.256946 
L 798.549567 -372.280833 
L 795.902913 -372.2261 
L 793.25626 -372.185407 
L 790.609607 -372.154724 
L 787.962953 -372.079969 
L 785.3163 -372.132505 
L 782.669647 -372.083184 
L 780.022993 -372.045706 
L 777.37634 -371.977829 
L 774.729687 -371.944419 
L 772.083033 -371.866125 
L 769.43638 -371.830436 
L 766.789727 -371.836988 
L 764.143073 -371.817984 
L 761.49642 -371.754706 
L 758.849767 -371.72447 
L 756.203113 -371.661965 
L 753.55646 -371.676655 
L 750.909807 -371.676574 
L 748.263153 -371.603488 
L 745.6165 -371.583711 
L 742.969847 -371.564504 
L 740.323193 -371.513718 
L 737.67654 -371.476443 
L 735.029887 -371.453044 
L 732.383233 -371.383865 
L 729.73658 -371.330028 
L 727.089927 -371.243269 
L 724.443273 -371.228619 
L 721.79662 -371.176938 
L 719.149967 -371.150813 
L 716.503313 -371.05852 
L 713.85666 -371.001305 
L 711.210007 -370.936724 
L 708.563353 -370.896031 
L 705.9167 -370.835357 
L 703.270047 -370.839589 
L 700.623393 -370.822579 
L 697.97674 -370.790756 
L 695.330087 -370.810615 
L 692.683433 -370.738262 
L 690.03678 -370.776432 
L 687.390127 -370.70587 
L 684.743473 -370.650852 
L 682.09682 -370.562465 
L 679.450167 -370.450151 
L 676.803513 -370.349964 
L 674.15686 -370.308131 
L 671.510207 -370.281151 
L 668.863553 -370.219419 
L 666.2169 -370.165825 
L 663.570247 -370.128265 
L 660.923593 -370.115609 
L 658.27694 -370.101773 
L 655.630287 -370.074468 
L 652.983633 -369.990354 
L 650.33698 -369.911694 
L 647.690327 -369.849188 
L 645.043673 -369.789084 
L 642.39702 -369.754698 
L 639.750367 -369.735328 
L 637.103713 -369.64686 
L 634.45706 -369.547486 
L 631.810407 -369.493689 
L 629.163753 -369.438061 
L 626.5171 -369.436271 
L 623.870447 -369.397449 
L 621.223793 -369.279438 
L 618.57714 -369.205416 
L 615.930487 -369.173919 
L 613.283833 -369.155119 
L 610.63718 -369.154142 
L 607.990527 -369.140103 
L 605.343873 -369.097008 
L 602.69722 -369.009517 
L 600.050567 -368.891831 
L 597.403913 -368.825013 
L 594.75726 -368.763931 
L 592.110607 -368.665779 
L 589.463953 -368.577474 
L 586.8173 -368.495924 
L 584.170647 -368.424588 
L 581.523993 -368.357647 
L 578.87734 -368.369489 
L 576.230687 -368.327941 
L 573.584033 -368.283747 
L 570.93738 -368.288183 
L 568.290727 -368.162358 
L 565.644073 -368.110311 
L 562.99742 -368.058223 
L 560.350767 -368.058264 
L 557.704113 -367.928981 
L 555.05746 -367.808813 
L 552.410807 -367.778089 
L 549.764153 -367.690069 
L 547.1175 -367.598793 
L 544.470847 -367.553094 
L 541.824193 -367.440251 
L 539.17754 -367.329931 
L 536.530887 -367.174766 
L 533.884233 -367.086339 
L 531.23758 -367.000801 
L 528.590927 -366.917216 
L 525.944273 -366.847956 
L 523.29762 -366.795827 
L 520.650967 -366.727259 
L 518.004313 -366.675374 
L 515.35766 -366.566601 
L 512.711007 -366.46507 
L 510.064353 -366.351332 
L 507.4177 -366.258306 
L 504.771047 -366.223228 
L 502.124393 -366.152706 
L 499.47774 -366.107984 
L 496.831087 -366.056913 
L 494.184433 -365.967672 
L 491.53778 -365.838267 
L 488.891127 -365.85251 
L 486.244473 -365.82317 
L 483.59782 -365.759484 
L 480.951167 -365.673417 
L 478.304513 -365.641351 
L 475.65786 -365.535181 
L 473.011207 -365.490174 
L 470.364553 -365.389661 
L 467.7179 -365.302862 
L 465.071247 -365.171014 
L 462.424593 -365.077053 
L 459.77794 -364.919121 
L 457.131287 -364.813359 
L 454.484633 -364.68965 
L 451.83798 -364.587265 
L 449.191327 -364.555443 
L 446.544673 -364.437594 
L 443.89802 -364.343022 
L 441.251367 -364.218866 
L 438.604713 -364.159983 
L 435.95806 -364.044982 
L 433.311407 -363.951224 
L 430.664753 -363.83187 
L 428.0181 -363.642197 
L 425.371447 -363.566304 
L 422.724793 -363.433317 
L 420.07814 -363.338868 
L 417.431487 -363.253085 
L 414.784833 -363.139103 
L 412.13818 -363.054053 
L 409.491527 -362.837563 
L 406.844873 -362.702257 
L 404.19822 -362.551284 
L 401.551567 -362.448492 
L 398.904913 -362.376709 
L 396.25826 -362.330603 
L 393.611607 -362.194239 
L 390.964953 -362.072117 
L 388.3183 -361.967331 
L 385.671647 -361.905599 
L 383.024993 -361.821892 
L 380.37834 -361.683575 
L 377.731687 -361.623796 
L 375.085033 -361.453534 
L 372.43838 -361.311331 
L 369.791727 -361.167255 
L 367.145073 -360.933267 
L 364.49842 -360.789822 
L 361.851767 -360.596568 
L 359.205113 -360.446368 
L 356.55846 -360.295721 
L 353.911807 -360.140861 
L 351.265153 -360.047063 
L 348.6185 -359.934443 
L 345.971847 -359.777122 
L 343.325193 -359.757019 
L 340.67854 -359.702978 
L 338.031887 -359.513163 
L 335.385233 -359.320316 
L 332.73858 -359.149505 
L 330.091927 -359.020852 
L 327.445273 -358.90103 
L 324.79862 -358.747228 
L 322.151967 -358.559366 
L 319.505313 -358.464774 
L 316.85866 -358.206106 
L 314.212007 -357.985546 
L 311.565353 -357.905502 
L 308.9187 -357.841308 
L 306.272047 -357.655786 
L 303.625393 -357.470162 
L 300.97874 -357.418888 
L 298.332087 -357.060154 
L 295.685433 -356.895142 
L 293.03878 -356.717738 
L 290.392127 -356.624855 
L 287.745473 -356.428976 
L 285.09882 -356.287159 
L 282.452167 -356.135494 
L 279.805513 -355.9035 
L 277.15886 -355.598563 
L 274.512207 -355.332203 
L 271.865553 -355.209716 
L 269.2189 -355.070503 
L 266.572247 -354.824754 
L 263.925593 -354.630666 
L 261.27894 -354.387665 
L 258.632287 -354.044699 
L 255.985633 -353.723993 
L 253.33898 -353.607243 
L 250.692327 -353.609665 
L 248.045673 -353.251134 
L 245.39902 -352.950042 
L 242.752367 -352.758355 
L 240.105713 -352.51694 
L 237.45906 -352.195095 
L 234.812407 -351.873005 
L 232.165753 -351.648377 
L 229.5191 -351.437218 
L 226.872447 -351.18154 
L 224.225793 -350.934733 
L 221.57914 -350.654436 
L 218.932487 -350.478742 
L 216.285833 -350.361687 
L 213.63918 -350.095388 
L 210.992527 -349.837106 
L 208.345873 -349.586637 
L 205.69922 -349.239765 
L 203.052567 -348.711643 
L 200.405913 -348.486221 
L 197.75926 -348.123377 
L 195.112607 -347.700022 
L 192.465953 -347.428005 
L 189.8193 -346.956326 
L 187.172647 -346.625243 
L 184.525993 -346.226731 
L 181.87934 -345.813732 
L 179.232687 -345.553252 
L 176.586033 -345.176613 
L 173.93938 -344.719197 
L 171.292727 -344.41721 
L 168.646073 -343.934604 
L 165.99942 -343.599961 
L 163.352767 -342.972751 
L 160.706113 -342.505751 
L 158.05946 -342.206287 
L 155.412807 -341.66783 
L 152.766153 -341.092097 
L 150.1195 -340.638649 
L 147.472847 -340.042528 
L 144.826193 -339.651504 
L 142.17954 -339.112131 
L 139.532887 -338.400644 
L 136.886233 -337.928965 
L 134.23958 -337.424955 
L 131.592927 -336.756604 
L 128.946273 -336.188603 
L 126.29962 -335.419148 
L 123.652967 -334.823415 
L 121.006313 -334.233704 
L 118.35966 -333.497944 
L 115.713007 -332.777667 
L 113.066353 -332.268204 
L 110.4197 -331.722524 
L 107.773047 -330.862831 
L 105.126393 -330.159626 
L 102.47974 -329.358308 
L 99.833087 -328.525474 
L 97.186433 -327.756609 
L 94.53978 -327.026322 
L 91.893127 -326.017936 
L 89.246473 -324.91107 
L 86.59982 -323.521954 
L 83.953167 -321.830831 
L 81.306513 -320.709255 
L 78.65986 -319.064258 
L 76.013207 -317.596115 
L 73.366553 -316.034683 
L 70.7199 -313.995955 
L 68.073247 -312.447971 
L 65.426593 -310.33451 
L 62.77994 -308.045964 
L 60.133287 -304.587458 
L 57.486633 -300.237132 
L 54.83998 -295.826477 
L 52.193327 -295.336852 
z
" style="stroke: #0000ff; stroke-opacity: 0.2"/>
    </defs>
    <g clip-path="url(#pe669793ead)">
     <use xlink:href="#m99db562a84" x="0" y="432" style="fill: #0000ff; fill-opacity: 0.2; stroke: #0000ff; stroke-opacity: 0.2"/>
    </g>
   </g>
   <g id="matplotlib.axis_1">
    <g id="xtick_1">
     <g id="line2d_1">
      <defs>
       <path id="m7ca40c3d08" d="M 0 0 
L 0 3.5 
" style="stroke: #000000; stroke-width: 0.8"/>
      </defs>
      <g>
       <use xlink:href="#m7ca40c3d08" x="181.87934" y="390.04" style="stroke: #000000; stroke-width: 0.8"/>
      </g>
     </g>
     <g id="text_1">
      <!-- 50 -->
      <g transform="translate(175.51684 404.638438) scale(0.1 -0.1)">
       <defs>
        <path id="DejaVuSans-35" d="M 691 4666 
L 3169 4666 
L 3169 4134 
L 1269 4134 
L 1269 2991 
Q 1406 3038 1543 3061 
Q 1681 3084 1819 3084 
Q 2600 3084 3056 2656 
Q 3513 2228 3513 1497 
Q 3513 744 3044 326 
Q 2575 -91 1722 -91 
Q 1428 -91 1123 -41 
Q 819 9 494 109 
L 494 744 
Q 775 591 1075 516 
Q 1375 441 1709 441 
Q 2250 441 2565 725 
Q 2881 1009 2881 1497 
Q 2881 1984 2565 2268 
Q 2250 2553 1709 2553 
Q 1456 2553 1204 2497 
Q 953 2441 691 2322 
L 691 4666 
z
" transform="scale(0.015625)"/>
        <path id="DejaVuSans-30" d="M 2034 4250 
Q 1547 4250 1301 3770 
Q 1056 3291 1056 2328 
Q 1056 1369 1301 889 
Q 1547 409 2034 409 
Q 2525 409 2770 889 
Q 3016 1369 3016 2328 
Q 3016 3291 2770 3770 
Q 2525 4250 2034 4250 
z
M 2034 4750 
Q 2819 4750 3233 4129 
Q 3647 3509 3647 2328 
Q 3647 1150 3233 529 
Q 2819 -91 2034 -91 
Q 1250 -91 836 529 
Q 422 1150 422 2328 
Q 422 3509 836 4129 
Q 1250 4750 2034 4750 
z
" transform="scale(0.015625)"/>
       </defs>
       <use xlink:href="#DejaVuSans-35"/>
       <use xlink:href="#DejaVuSans-30" transform="translate(63.623047 0)"/>
      </g>
     </g>
    </g>
    <g id="xtick_2">
     <g id="line2d_2">
      <g>
       <use xlink:href="#m7ca40c3d08" x="314.212007" y="390.04" style="stroke: #000000; stroke-width: 0.8"/>
      </g>
     </g>
     <g id="text_2">
      <!-- 100 -->
      <g transform="translate(304.668257 404.638438) scale(0.1 -0.1)">
       <defs>
        <path id="DejaVuSans-31" d="M 794 531 
L 1825 531 
L 1825 4091 
L 703 3866 
L 703 4441 
L 1819 4666 
L 2450 4666 
L 2450 531 
L 3481 531 
L 3481 0 
L 794 0 
L 794 531 
z
" transform="scale(0.015625)"/>
       </defs>
       <use xlink:href="#DejaVuSans-31"/>
       <use xlink:href="#DejaVuSans-30" transform="translate(63.623047 0)"/>
       <use xlink:href="#DejaVuSans-30" transform="translate(127.246094 0)"/>
      </g>
     </g>
    </g>
    <g id="xtick_3">
     <g id="line2d_3">
      <g>
       <use xlink:href="#m7ca40c3d08" x="446.544673" y="390.04" style="stroke: #000000; stroke-width: 0.8"/>
      </g>
     </g>
     <g id="text_3">
      <!-- 150 -->
      <g transform="translate(437.000923 404.638438) scale(0.1 -0.1)">
       <use xlink:href="#DejaVuSans-31"/>
       <use xlink:href="#DejaVuSans-35" transform="translate(63.623047 0)"/>
       <use xlink:href="#DejaVuSans-30" transform="translate(127.246094 0)"/>
      </g>
     </g>
    </g>
    <g id="xtick_4">
     <g id="line2d_4">
      <g>
       <use xlink:href="#m7ca40c3d08" x="578.87734" y="390.04" style="stroke: #000000; stroke-width: 0.8"/>
      </g>
     </g>
     <g id="text_4">
      <!-- 200 -->
      <g transform="translate(569.33359 404.638438) scale(0.1 -0.1)">
       <defs>
        <path id="DejaVuSans-32" d="M 1228 531 
L 3431 531 
L 3431 0 
L 469 0 
L 469 531 
Q 828 903 1448 1529 
Q 2069 2156 2228 2338 
Q 2531 2678 2651 2914 
Q 2772 3150 2772 3378 
Q 2772 3750 2511 3984 
Q 2250 4219 1831 4219 
Q 1534 4219 1204 4116 
Q 875 4013 500 3803 
L 500 4441 
Q 881 4594 1212 4672 
Q 1544 4750 1819 4750 
Q 2544 4750 2975 4387 
Q 3406 4025 3406 3419 
Q 3406 3131 3298 2873 
Q 3191 2616 2906 2266 
Q 2828 2175 2409 1742 
Q 1991 1309 1228 531 
z
" transform="scale(0.015625)"/>
       </defs>
       <use xlink:href="#DejaVuSans-32"/>
       <use xlink:href="#DejaVuSans-30" transform="translate(63.623047 0)"/>
       <use xlink:href="#DejaVuSans-30" transform="translate(127.246094 0)"/>
      </g>
     </g>
    </g>
    <g id="xtick_5">
     <g id="line2d_5">
      <g>
       <use xlink:href="#m7ca40c3d08" x="711.210007" y="390.04" style="stroke: #000000; stroke-width: 0.8"/>
      </g>
     </g>
     <g id="text_5">
      <!-- 250 -->
      <g transform="translate(701.666257 404.638438) scale(0.1 -0.1)">
       <use xlink:href="#DejaVuSans-32"/>
       <use xlink:href="#DejaVuSans-35" transform="translate(63.623047 0)"/>
       <use xlink:href="#DejaVuSans-30" transform="translate(127.246094 0)"/>
      </g>
     </g>
    </g>
    <g id="xtick_6">
     <g id="line2d_6">
      <g>
       <use xlink:href="#m7ca40c3d08" x="843.542673" y="390.04" style="stroke: #000000; stroke-width: 0.8"/>
      </g>
     </g>
     <g id="text_6">
      <!-- 300 -->
      <g transform="translate(833.998923 404.638438) scale(0.1 -0.1)">
       <defs>
        <path id="DejaVuSans-33" d="M 2597 2516 
Q 3050 2419 3304 2112 
Q 3559 1806 3559 1356 
Q 3559 666 3084 287 
Q 2609 -91 1734 -91 
Q 1441 -91 1130 -33 
Q 819 25 488 141 
L 488 750 
Q 750 597 1062 519 
Q 1375 441 1716 441 
Q 2309 441 2620 675 
Q 2931 909 2931 1356 
Q 2931 1769 2642 2001 
Q 2353 2234 1838 2234 
L 1294 2234 
L 1294 2753 
L 1863 2753 
Q 2328 2753 2575 2939 
Q 2822 3125 2822 3475 
Q 2822 3834 2567 4026 
Q 2313 4219 1838 4219 
Q 1578 4219 1281 4162 
Q 984 4106 628 3988 
L 628 4550 
Q 988 4650 1302 4700 
Q 1616 4750 1894 4750 
Q 2613 4750 3031 4423 
Q 3450 4097 3450 3541 
Q 3450 3153 3228 2886 
Q 3006 2619 2597 2516 
z
" transform="scale(0.015625)"/>
       </defs>
       <use xlink:href="#DejaVuSans-33"/>
       <use xlink:href="#DejaVuSans-30" transform="translate(63.623047 0)"/>
       <use xlink:href="#DejaVuSans-30" transform="translate(127.246094 0)"/>
      </g>
     </g>
    </g>
    <g id="text_7">
     <!-- Step -->
     <g transform="translate(436.482844 418.316562) scale(0.1 -0.1)">
      <defs>
       <path id="DejaVuSans-53" d="M 3425 4513 
L 3425 3897 
Q 3066 4069 2747 4153 
Q 2428 4238 2131 4238 
Q 1616 4238 1336 4038 
Q 1056 3838 1056 3469 
Q 1056 3159 1242 3001 
Q 1428 2844 1947 2747 
L 2328 2669 
Q 3034 2534 3370 2195 
Q 3706 1856 3706 1288 
Q 3706 609 3251 259 
Q 2797 -91 1919 -91 
Q 1588 -91 1214 -16 
Q 841 59 441 206 
L 441 856 
Q 825 641 1194 531 
Q 1563 422 1919 422 
Q 2459 422 2753 634 
Q 3047 847 3047 1241 
Q 3047 1584 2836 1778 
Q 2625 1972 2144 2069 
L 1759 2144 
Q 1053 2284 737 2584 
Q 422 2884 422 3419 
Q 422 4038 858 4394 
Q 1294 4750 2059 4750 
Q 2388 4750 2728 4690 
Q 3069 4631 3425 4513 
z
" transform="scale(0.015625)"/>
       <path id="DejaVuSans-74" d="M 1172 4494 
L 1172 3500 
L 2356 3500 
L 2356 3053 
L 1172 3053 
L 1172 1153 
Q 1172 725 1289 603 
Q 1406 481 1766 481 
L 2356 481 
L 2356 0 
L 1766 0 
Q 1100 0 847 248 
Q 594 497 594 1153 
L 594 3053 
L 172 3053 
L 172 3500 
L 594 3500 
L 594 4494 
L 1172 4494 
z
" transform="scale(0.015625)"/>
       <path id="DejaVuSans-65" d="M 3597 1894 
L 3597 1613 
L 953 1613 
Q 991 1019 1311 708 
Q 1631 397 2203 397 
Q 2534 397 2845 478 
Q 3156 559 3463 722 
L 3463 178 
Q 3153 47 2828 -22 
Q 2503 -91 2169 -91 
Q 1331 -91 842 396 
Q 353 884 353 1716 
Q 353 2575 817 3079 
Q 1281 3584 2069 3584 
Q 2775 3584 3186 3129 
Q 3597 2675 3597 1894 
z
M 3022 2063 
Q 3016 2534 2758 2815 
Q 2500 3097 2075 3097 
Q 1594 3097 1305 2825 
Q 1016 2553 972 2059 
L 3022 2063 
z
" transform="scale(0.015625)"/>
       <path id="DejaVuSans-70" d="M 1159 525 
L 1159 -1331 
L 581 -1331 
L 581 3500 
L 1159 3500 
L 1159 2969 
Q 1341 3281 1617 3432 
Q 1894 3584 2278 3584 
Q 2916 3584 3314 3078 
Q 3713 2572 3713 1747 
Q 3713 922 3314 415 
Q 2916 -91 2278 -91 
Q 1894 -91 1617 61 
Q 1341 213 1159 525 
z
M 3116 1747 
Q 3116 2381 2855 2742 
Q 2594 3103 2138 3103 
Q 1681 3103 1420 2742 
Q 1159 2381 1159 1747 
Q 1159 1113 1420 752 
Q 1681 391 2138 391 
Q 2594 391 2855 752 
Q 3116 1113 3116 1747 
z
" transform="scale(0.015625)"/>
      </defs>
      <use xlink:href="#DejaVuSans-53"/>
      <use xlink:href="#DejaVuSans-74" transform="translate(63.476562 0)"/>
      <use xlink:href="#DejaVuSans-65" transform="translate(102.685547 0)"/>
      <use xlink:href="#DejaVuSans-70" transform="translate(164.208984 0)"/>
     </g>
    </g>
   </g>
   <g id="matplotlib.axis_2">
    <g id="ytick_1">
     <g id="line2d_7">
      <defs>
       <path id="m0c064723f4" d="M 0 0 
L -3.5 0 
" style="stroke: #000000; stroke-width: 0.8"/>
      </defs>
      <g>
       <use xlink:href="#m0c064723f4" x="50.87" y="358.566961" style="stroke: #000000; stroke-width: 0.8"/>
      </g>
     </g>
     <g id="text_8">
      <!-- 20 -->
      <g transform="translate(31.145 362.36618) scale(0.1 -0.1)">
       <use xlink:href="#DejaVuSans-32"/>
       <use xlink:href="#DejaVuSans-30" transform="translate(63.623047 0)"/>
      </g>
     </g>
    </g>
    <g id="ytick_2">
     <g id="line2d_8">
      <g>
       <use xlink:href="#m0c064723f4" x="50.87" y="305.229079" style="stroke: #000000; stroke-width: 0.8"/>
      </g>
     </g>
     <g id="text_9">
      <!-- 40 -->
      <g transform="translate(31.145 309.028297) scale(0.1 -0.1)">
       <defs>
        <path id="DejaVuSans-34" d="M 2419 4116 
L 825 1625 
L 2419 1625 
L 2419 4116 
z
M 2253 4666 
L 3047 4666 
L 3047 1625 
L 3713 1625 
L 3713 1100 
L 3047 1100 
L 3047 0 
L 2419 0 
L 2419 1100 
L 313 1100 
L 313 1709 
L 2253 4666 
z
" transform="scale(0.015625)"/>
       </defs>
       <use xlink:href="#DejaVuSans-34"/>
       <use xlink:href="#DejaVuSans-30" transform="translate(63.623047 0)"/>
      </g>
     </g>
    </g>
    <g id="ytick_3">
     <g id="line2d_9">
      <g>
       <use xlink:href="#m0c064723f4" x="50.87" y="251.891196" style="stroke: #000000; stroke-width: 0.8"/>
      </g>
     </g>
     <g id="text_10">
      <!-- 60 -->
      <g transform="translate(31.145 255.690415) scale(0.1 -0.1)">
       <defs>
        <path id="DejaVuSans-36" d="M 2113 2584 
Q 1688 2584 1439 2293 
Q 1191 2003 1191 1497 
Q 1191 994 1439 701 
Q 1688 409 2113 409 
Q 2538 409 2786 701 
Q 3034 994 3034 1497 
Q 3034 2003 2786 2293 
Q 2538 2584 2113 2584 
z
M 3366 4563 
L 3366 3988 
Q 3128 4100 2886 4159 
Q 2644 4219 2406 4219 
Q 1781 4219 1451 3797 
Q 1122 3375 1075 2522 
Q 1259 2794 1537 2939 
Q 1816 3084 2150 3084 
Q 2853 3084 3261 2657 
Q 3669 2231 3669 1497 
Q 3669 778 3244 343 
Q 2819 -91 2113 -91 
Q 1303 -91 875 529 
Q 447 1150 447 2328 
Q 447 3434 972 4092 
Q 1497 4750 2381 4750 
Q 2619 4750 2861 4703 
Q 3103 4656 3366 4563 
z
" transform="scale(0.015625)"/>
       </defs>
       <use xlink:href="#DejaVuSans-36"/>
       <use xlink:href="#DejaVuSans-30" transform="translate(63.623047 0)"/>
      </g>
     </g>
    </g>
    <g id="ytick_4">
     <g id="line2d_10">
      <g>
       <use xlink:href="#m0c064723f4" x="50.87" y="198.553314" style="stroke: #000000; stroke-width: 0.8"/>
      </g>
     </g>
     <g id="text_11">
      <!-- 80 -->
      <g transform="translate(31.145 202.352533) scale(0.1 -0.1)">
       <defs>
        <path id="DejaVuSans-38" d="M 2034 2216 
Q 1584 2216 1326 1975 
Q 1069 1734 1069 1313 
Q 1069 891 1326 650 
Q 1584 409 2034 409 
Q 2484 409 2743 651 
Q 3003 894 3003 1313 
Q 3003 1734 2745 1975 
Q 2488 2216 2034 2216 
z
M 1403 2484 
Q 997 2584 770 2862 
Q 544 3141 544 3541 
Q 544 4100 942 4425 
Q 1341 4750 2034 4750 
Q 2731 4750 3128 4425 
Q 3525 4100 3525 3541 
Q 3525 3141 3298 2862 
Q 3072 2584 2669 2484 
Q 3125 2378 3379 2068 
Q 3634 1759 3634 1313 
Q 3634 634 3220 271 
Q 2806 -91 2034 -91 
Q 1263 -91 848 271 
Q 434 634 434 1313 
Q 434 1759 690 2068 
Q 947 2378 1403 2484 
z
M 1172 3481 
Q 1172 3119 1398 2916 
Q 1625 2713 2034 2713 
Q 2441 2713 2670 2916 
Q 2900 3119 2900 3481 
Q 2900 3844 2670 4047 
Q 2441 4250 2034 4250 
Q 1625 4250 1398 4047 
Q 1172 3844 1172 3481 
z
" transform="scale(0.015625)"/>
       </defs>
       <use xlink:href="#DejaVuSans-38"/>
       <use xlink:href="#DejaVuSans-30" transform="translate(63.623047 0)"/>
      </g>
     </g>
    </g>
    <g id="ytick_5">
     <g id="line2d_11">
      <g>
       <use xlink:href="#m0c064723f4" x="50.87" y="145.215432" style="stroke: #000000; stroke-width: 0.8"/>
      </g>
     </g>
     <g id="text_12">
      <!-- 100 -->
      <g transform="translate(24.7825 149.01465) scale(0.1 -0.1)">
       <use xlink:href="#DejaVuSans-31"/>
       <use xlink:href="#DejaVuSans-30" transform="translate(63.623047 0)"/>
       <use xlink:href="#DejaVuSans-30" transform="translate(127.246094 0)"/>
      </g>
     </g>
    </g>
    <g id="ytick_6">
     <g id="line2d_12">
      <g>
       <use xlink:href="#m0c064723f4" x="50.87" y="91.877549" style="stroke: #000000; stroke-width: 0.8"/>
      </g>
     </g>
     <g id="text_13">
      <!-- 120 -->
      <g transform="translate(24.7825 95.676768) scale(0.1 -0.1)">
       <use xlink:href="#DejaVuSans-31"/>
       <use xlink:href="#DejaVuSans-32" transform="translate(63.623047 0)"/>
       <use xlink:href="#DejaVuSans-30" transform="translate(127.246094 0)"/>
      </g>
     </g>
    </g>
    <g id="text_14">
     <!-- Profit -->
     <g transform="translate(18.702813 229.779063) rotate(-90) scale(0.1 -0.1)">
      <defs>
       <path id="DejaVuSans-50" d="M 1259 4147 
L 1259 2394 
L 2053 2394 
Q 2494 2394 2734 2622 
Q 2975 2850 2975 3272 
Q 2975 3691 2734 3919 
Q 2494 4147 2053 4147 
L 1259 4147 
z
M 628 4666 
L 2053 4666 
Q 2838 4666 3239 4311 
Q 3641 3956 3641 3272 
Q 3641 2581 3239 2228 
Q 2838 1875 2053 1875 
L 1259 1875 
L 1259 0 
L 628 0 
L 628 4666 
z
" transform="scale(0.015625)"/>
       <path id="DejaVuSans-72" d="M 2631 2963 
Q 2534 3019 2420 3045 
Q 2306 3072 2169 3072 
Q 1681 3072 1420 2755 
Q 1159 2438 1159 1844 
L 1159 0 
L 581 0 
L 581 3500 
L 1159 3500 
L 1159 2956 
Q 1341 3275 1631 3429 
Q 1922 3584 2338 3584 
Q 2397 3584 2469 3576 
Q 2541 3569 2628 3553 
L 2631 2963 
z
" transform="scale(0.015625)"/>
       <path id="DejaVuSans-6f" d="M 1959 3097 
Q 1497 3097 1228 2736 
Q 959 2375 959 1747 
Q 959 1119 1226 758 
Q 1494 397 1959 397 
Q 2419 397 2687 759 
Q 2956 1122 2956 1747 
Q 2956 2369 2687 2733 
Q 2419 3097 1959 3097 
z
M 1959 3584 
Q 2709 3584 3137 3096 
Q 3566 2609 3566 1747 
Q 3566 888 3137 398 
Q 2709 -91 1959 -91 
Q 1206 -91 779 398 
Q 353 888 353 1747 
Q 353 2609 779 3096 
Q 1206 3584 1959 3584 
z
" transform="scale(0.015625)"/>
       <path id="DejaVuSans-66" d="M 2375 4863 
L 2375 4384 
L 1825 4384 
Q 1516 4384 1395 4259 
Q 1275 4134 1275 3809 
L 1275 3500 
L 2222 3500 
L 2222 3053 
L 1275 3053 
L 1275 0 
L 697 0 
L 697 3053 
L 147 3053 
L 147 3500 
L 697 3500 
L 697 3744 
Q 697 4328 969 4595 
Q 1241 4863 1831 4863 
L 2375 4863 
z
" transform="scale(0.015625)"/>
       <path id="DejaVuSans-69" d="M 603 3500 
L 1178 3500 
L 1178 0 
L 603 0 
L 603 3500 
z
M 603 4863 
L 1178 4863 
L 1178 4134 
L 603 4134 
L 603 4863 
z
" transform="scale(0.015625)"/>
      </defs>
      <use xlink:href="#DejaVuSans-50"/>
      <use xlink:href="#DejaVuSans-72" transform="translate(58.552734 0)"/>
      <use xlink:href="#DejaVuSans-6f" transform="translate(97.416016 0)"/>
      <use xlink:href="#DejaVuSans-66" transform="translate(158.597656 0)"/>
      <use xlink:href="#DejaVuSans-69" transform="translate(193.802734 0)"/>
      <use xlink:href="#DejaVuSans-74" transform="translate(221.585938 0)"/>
     </g>
    </g>
   </g>
   <g id="line2d_13">
    <path d="M 52.193327 254.972921 
L 54.83998 255.229494 
L 57.486633 245.727656 
L 60.133287 237.163276 
L 62.77994 229.971785 
L 65.426593 223.965129 
L 68.073247 218.808093 
L 70.7199 214.060577 
L 73.366553 209.840369 
L 76.013207 206.147183 
L 78.65986 202.783147 
L 81.306513 199.717537 
L 86.59982 194.038952 
L 89.246473 191.488462 
L 94.53978 187.17594 
L 97.186433 185.189442 
L 107.773047 178.685246 
L 118.35966 173.134398 
L 123.652967 170.822352 
L 128.946273 168.636293 
L 134.23958 166.759994 
L 142.17954 163.867149 
L 155.412807 159.633796 
L 165.99942 156.791838 
L 171.292727 155.499227 
L 179.232687 153.617292 
L 181.87934 152.992503 
L 184.525993 152.48422 
L 187.172647 151.843642 
L 210.992527 147.244373 
L 216.285833 146.385291 
L 229.5191 144.366462 
L 245.39902 142.211106 
L 250.692327 141.478683 
L 258.632287 140.533738 
L 266.572247 139.597236 
L 285.09882 137.57564 
L 298.332087 136.287383 
L 303.625393 135.781318 
L 375.085033 130.176022 
L 433.311407 126.811661 
L 491.53778 123.907747 
L 520.650967 122.725456 
L 533.884233 122.182706 
L 610.63718 119.485637 
L 623.870447 119.031558 
L 695.330087 116.955087 
L 758.849767 115.328748 
L 843.542673 113.548872 
L 843.542673 113.548872 
" clip-path="url(#pe669793ead)" style="fill: none; stroke: #0000ff; stroke-width: 1.5; stroke-linecap: square"/>
   </g>
   <g id="patch_3">
    <path d="M 50.87 390.04 
L 50.87 43.44 
" style="fill: none; stroke: #000000; stroke-width: 0.8; stroke-linejoin: miter; stroke-linecap: square"/>
   </g>
   <g id="patch_4">
    <path d="M 844.866 390.04 
L 844.866 43.44 
" style="fill: none; stroke: #000000; stroke-width: 0.8; stroke-linejoin: miter; stroke-linecap: square"/>
   </g>
   <g id="patch_5">
    <path d="M 50.87 390.04 
L 844.866 390.04 
" style="fill: none; stroke: #000000; stroke-width: 0.8; stroke-linejoin: miter; stroke-linecap: square"/>
   </g>
   <g id="patch_6">
    <path d="M 50.87 43.44 
L 844.866 43.44 
" style="fill: none; stroke: #000000; stroke-width: 0.8; stroke-linejoin: miter; stroke-linecap: square"/>
   </g>
   <g id="text_15">
    <!-- Mean profit per step with confidence interval per simulation step -->
    <g transform="translate(220.284875 21.763062) scale(0.14 -0.14)">
     <defs>
      <path id="DejaVuSans-4d" d="M 628 4666 
L 1569 4666 
L 2759 1491 
L 3956 4666 
L 4897 4666 
L 4897 0 
L 4281 0 
L 4281 4097 
L 3078 897 
L 2444 897 
L 1241 4097 
L 1241 0 
L 628 0 
L 628 4666 
z
" transform="scale(0.015625)"/>
      <path id="DejaVuSans-61" d="M 2194 1759 
Q 1497 1759 1228 1600 
Q 959 1441 959 1056 
Q 959 750 1161 570 
Q 1363 391 1709 391 
Q 2188 391 2477 730 
Q 2766 1069 2766 1631 
L 2766 1759 
L 2194 1759 
z
M 3341 1997 
L 3341 0 
L 2766 0 
L 2766 531 
Q 2569 213 2275 61 
Q 1981 -91 1556 -91 
Q 1019 -91 701 211 
Q 384 513 384 1019 
Q 384 1609 779 1909 
Q 1175 2209 1959 2209 
L 2766 2209 
L 2766 2266 
Q 2766 2663 2505 2880 
Q 2244 3097 1772 3097 
Q 1472 3097 1187 3025 
Q 903 2953 641 2809 
L 641 3341 
Q 956 3463 1253 3523 
Q 1550 3584 1831 3584 
Q 2591 3584 2966 3190 
Q 3341 2797 3341 1997 
z
" transform="scale(0.015625)"/>
      <path id="DejaVuSans-6e" d="M 3513 2113 
L 3513 0 
L 2938 0 
L 2938 2094 
Q 2938 2591 2744 2837 
Q 2550 3084 2163 3084 
Q 1697 3084 1428 2787 
Q 1159 2491 1159 1978 
L 1159 0 
L 581 0 
L 581 3500 
L 1159 3500 
L 1159 2956 
Q 1366 3272 1645 3428 
Q 1925 3584 2291 3584 
Q 2894 3584 3203 3211 
Q 3513 2838 3513 2113 
z
" transform="scale(0.015625)"/>
      <path id="DejaVuSans-20" transform="scale(0.015625)"/>
      <path id="DejaVuSans-73" d="M 2834 3397 
L 2834 2853 
Q 2591 2978 2328 3040 
Q 2066 3103 1784 3103 
Q 1356 3103 1142 2972 
Q 928 2841 928 2578 
Q 928 2378 1081 2264 
Q 1234 2150 1697 2047 
L 1894 2003 
Q 2506 1872 2764 1633 
Q 3022 1394 3022 966 
Q 3022 478 2636 193 
Q 2250 -91 1575 -91 
Q 1294 -91 989 -36 
Q 684 19 347 128 
L 347 722 
Q 666 556 975 473 
Q 1284 391 1588 391 
Q 1994 391 2212 530 
Q 2431 669 2431 922 
Q 2431 1156 2273 1281 
Q 2116 1406 1581 1522 
L 1381 1569 
Q 847 1681 609 1914 
Q 372 2147 372 2553 
Q 372 3047 722 3315 
Q 1072 3584 1716 3584 
Q 2034 3584 2315 3537 
Q 2597 3491 2834 3397 
z
" transform="scale(0.015625)"/>
      <path id="DejaVuSans-77" d="M 269 3500 
L 844 3500 
L 1563 769 
L 2278 3500 
L 2956 3500 
L 3675 769 
L 4391 3500 
L 4966 3500 
L 4050 0 
L 3372 0 
L 2619 2869 
L 1863 0 
L 1184 0 
L 269 3500 
z
" transform="scale(0.015625)"/>
      <path id="DejaVuSans-68" d="M 3513 2113 
L 3513 0 
L 2938 0 
L 2938 2094 
Q 2938 2591 2744 2837 
Q 2550 3084 2163 3084 
Q 1697 3084 1428 2787 
Q 1159 2491 1159 1978 
L 1159 0 
L 581 0 
L 581 4863 
L 1159 4863 
L 1159 2956 
Q 1366 3272 1645 3428 
Q 1925 3584 2291 3584 
Q 2894 3584 3203 3211 
Q 3513 2838 3513 2113 
z
" transform="scale(0.015625)"/>
      <path id="DejaVuSans-63" d="M 3122 3366 
L 3122 2828 
Q 2878 2963 2633 3030 
Q 2388 3097 2138 3097 
Q 1578 3097 1268 2742 
Q 959 2388 959 1747 
Q 959 1106 1268 751 
Q 1578 397 2138 397 
Q 2388 397 2633 464 
Q 2878 531 3122 666 
L 3122 134 
Q 2881 22 2623 -34 
Q 2366 -91 2075 -91 
Q 1284 -91 818 406 
Q 353 903 353 1747 
Q 353 2603 823 3093 
Q 1294 3584 2113 3584 
Q 2378 3584 2631 3529 
Q 2884 3475 3122 3366 
z
" transform="scale(0.015625)"/>
      <path id="DejaVuSans-64" d="M 2906 2969 
L 2906 4863 
L 3481 4863 
L 3481 0 
L 2906 0 
L 2906 525 
Q 2725 213 2448 61 
Q 2172 -91 1784 -91 
Q 1150 -91 751 415 
Q 353 922 353 1747 
Q 353 2572 751 3078 
Q 1150 3584 1784 3584 
Q 2172 3584 2448 3432 
Q 2725 3281 2906 2969 
z
M 947 1747 
Q 947 1113 1208 752 
Q 1469 391 1925 391 
Q 2381 391 2643 752 
Q 2906 1113 2906 1747 
Q 2906 2381 2643 2742 
Q 2381 3103 1925 3103 
Q 1469 3103 1208 2742 
Q 947 2381 947 1747 
z
" transform="scale(0.015625)"/>
      <path id="DejaVuSans-76" d="M 191 3500 
L 800 3500 
L 1894 563 
L 2988 3500 
L 3597 3500 
L 2284 0 
L 1503 0 
L 191 3500 
z
" transform="scale(0.015625)"/>
      <path id="DejaVuSans-6c" d="M 603 4863 
L 1178 4863 
L 1178 0 
L 603 0 
L 603 4863 
z
" transform="scale(0.015625)"/>
      <path id="DejaVuSans-6d" d="M 3328 2828 
Q 3544 3216 3844 3400 
Q 4144 3584 4550 3584 
Q 5097 3584 5394 3201 
Q 5691 2819 5691 2113 
L 5691 0 
L 5113 0 
L 5113 2094 
Q 5113 2597 4934 2840 
Q 4756 3084 4391 3084 
Q 3944 3084 3684 2787 
Q 3425 2491 3425 1978 
L 3425 0 
L 2847 0 
L 2847 2094 
Q 2847 2600 2669 2842 
Q 2491 3084 2119 3084 
Q 1678 3084 1418 2786 
Q 1159 2488 1159 1978 
L 1159 0 
L 581 0 
L 581 3500 
L 1159 3500 
L 1159 2956 
Q 1356 3278 1631 3431 
Q 1906 3584 2284 3584 
Q 2666 3584 2933 3390 
Q 3200 3197 3328 2828 
z
" transform="scale(0.015625)"/>
      <path id="DejaVuSans-75" d="M 544 1381 
L 544 3500 
L 1119 3500 
L 1119 1403 
Q 1119 906 1312 657 
Q 1506 409 1894 409 
Q 2359 409 2629 706 
Q 2900 1003 2900 1516 
L 2900 3500 
L 3475 3500 
L 3475 0 
L 2900 0 
L 2900 538 
Q 2691 219 2414 64 
Q 2138 -91 1772 -91 
Q 1169 -91 856 284 
Q 544 659 544 1381 
z
M 1991 3584 
L 1991 3584 
z
" transform="scale(0.015625)"/>
     </defs>
     <use xlink:href="#DejaVuSans-4d"/>
     <use xlink:href="#DejaVuSans-65" transform="translate(86.279297 0)"/>
     <use xlink:href="#DejaVuSans-61" transform="translate(147.802734 0)"/>
     <use xlink:href="#DejaVuSans-6e" transform="translate(209.082031 0)"/>
     <use xlink:href="#DejaVuSans-20" transform="translate(272.460938 0)"/>
     <use xlink:href="#DejaVuSans-70" transform="translate(304.248047 0)"/>
     <use xlink:href="#DejaVuSans-72" transform="translate(367.724609 0)"/>
     <use xlink:href="#DejaVuSans-6f" transform="translate(406.587891 0)"/>
     <use xlink:href="#DejaVuSans-66" transform="translate(467.769531 0)"/>
     <use xlink:href="#DejaVuSans-69" transform="translate(502.974609 0)"/>
     <use xlink:href="#DejaVuSans-74" transform="translate(530.757812 0)"/>
     <use xlink:href="#DejaVuSans-20" transform="translate(569.966797 0)"/>
     <use xlink:href="#DejaVuSans-70" transform="translate(601.753906 0)"/>
     <use xlink:href="#DejaVuSans-65" transform="translate(665.230469 0)"/>
     <use xlink:href="#DejaVuSans-72" transform="translate(726.753906 0)"/>
     <use xlink:href="#DejaVuSans-20" transform="translate(767.867188 0)"/>
     <use xlink:href="#DejaVuSans-73" transform="translate(799.654297 0)"/>
     <use xlink:href="#DejaVuSans-74" transform="translate(851.753906 0)"/>
     <use xlink:href="#DejaVuSans-65" transform="translate(890.962891 0)"/>
     <use xlink:href="#DejaVuSans-70" transform="translate(952.486328 0)"/>
     <use xlink:href="#DejaVuSans-20" transform="translate(1015.962891 0)"/>
     <use xlink:href="#DejaVuSans-77" transform="translate(1047.75 0)"/>
     <use xlink:href="#DejaVuSans-69" transform="translate(1129.537109 0)"/>
     <use xlink:href="#DejaVuSans-74" transform="translate(1157.320312 0)"/>
     <use xlink:href="#DejaVuSans-68" transform="translate(1196.529297 0)"/>
     <use xlink:href="#DejaVuSans-20" transform="translate(1259.908203 0)"/>
     <use xlink:href="#DejaVuSans-63" transform="translate(1291.695312 0)"/>
     <use xlink:href="#DejaVuSans-6f" transform="translate(1346.675781 0)"/>
     <use xlink:href="#DejaVuSans-6e" transform="translate(1407.857422 0)"/>
     <use xlink:href="#DejaVuSans-66" transform="translate(1471.236328 0)"/>
     <use xlink:href="#DejaVuSans-69" transform="translate(1506.441406 0)"/>
     <use xlink:href="#DejaVuSans-64" transform="translate(1534.224609 0)"/>
     <use xlink:href="#DejaVuSans-65" transform="translate(1597.701172 0)"/>
     <use xlink:href="#DejaVuSans-6e" transform="translate(1659.224609 0)"/>
     <use xlink:href="#DejaVuSans-63" transform="translate(1722.603516 0)"/>
     <use xlink:href="#DejaVuSans-65" transform="translate(1777.583984 0)"/>
     <use xlink:href="#DejaVuSans-20" transform="translate(1839.107422 0)"/>
     <use xlink:href="#DejaVuSans-69" transform="translate(1870.894531 0)"/>
     <use xlink:href="#DejaVuSans-6e" transform="translate(1898.677734 0)"/>
     <use xlink:href="#DejaVuSans-74" transform="translate(1962.056641 0)"/>
     <use xlink:href="#DejaVuSans-65" transform="translate(2001.265625 0)"/>
     <use xlink:href="#DejaVuSans-72" transform="translate(2062.789062 0)"/>
     <use xlink:href="#DejaVuSans-76" transform="translate(2103.902344 0)"/>
     <use xlink:href="#DejaVuSans-61" transform="translate(2163.082031 0)"/>
     <use xlink:href="#DejaVuSans-6c" transform="translate(2224.361328 0)"/>
     <use xlink:href="#DejaVuSans-20" transform="translate(2252.144531 0)"/>
     <use xlink:href="#DejaVuSans-70" transform="translate(2283.931641 0)"/>
     <use xlink:href="#DejaVuSans-65" transform="translate(2347.408203 0)"/>
     <use xlink:href="#DejaVuSans-72" transform="translate(2408.931641 0)"/>
     <use xlink:href="#DejaVuSans-20" transform="translate(2450.044922 0)"/>
     <use xlink:href="#DejaVuSans-73" transform="translate(2481.832031 0)"/>
     <use xlink:href="#DejaVuSans-69" transform="translate(2533.931641 0)"/>
     <use xlink:href="#DejaVuSans-6d" transform="translate(2561.714844 0)"/>
     <use xlink:href="#DejaVuSans-75" transform="translate(2659.126953 0)"/>
     <use xlink:href="#DejaVuSans-6c" transform="translate(2722.505859 0)"/>
     <use xlink:href="#DejaVuSans-61" transform="translate(2750.289062 0)"/>
     <use xlink:href="#DejaVuSans-74" transform="translate(2811.568359 0)"/>
     <use xlink:href="#DejaVuSans-69" transform="translate(2850.777344 0)"/>
     <use xlink:href="#DejaVuSans-6f" transform="translate(2878.560547 0)"/>
     <use xlink:href="#DejaVuSans-6e" transform="translate(2939.742188 0)"/>
     <use xlink:href="#DejaVuSans-20" transform="translate(3003.121094 0)"/>
     <use xlink:href="#DejaVuSans-73" transform="translate(3034.908203 0)"/>
     <use xlink:href="#DejaVuSans-74" transform="translate(3087.007812 0)"/>
     <use xlink:href="#DejaVuSans-65" transform="translate(3126.216797 0)"/>
     <use xlink:href="#DejaVuSans-70" transform="translate(3187.740234 0)"/>
    </g>
    <!-- Base Product: OG Kush, Recipe size: 10, T0: 5.0 -->
    <g transform="translate(281.490031 37.44) scale(0.14 -0.14)">
     <defs>
      <path id="DejaVuSans-42" d="M 1259 2228 
L 1259 519 
L 2272 519 
Q 2781 519 3026 730 
Q 3272 941 3272 1375 
Q 3272 1813 3026 2020 
Q 2781 2228 2272 2228 
L 1259 2228 
z
M 1259 4147 
L 1259 2741 
L 2194 2741 
Q 2656 2741 2882 2914 
Q 3109 3088 3109 3444 
Q 3109 3797 2882 3972 
Q 2656 4147 2194 4147 
L 1259 4147 
z
M 628 4666 
L 2241 4666 
Q 2963 4666 3353 4366 
Q 3744 4066 3744 3513 
Q 3744 3084 3544 2831 
Q 3344 2578 2956 2516 
Q 3422 2416 3680 2098 
Q 3938 1781 3938 1306 
Q 3938 681 3513 340 
Q 3088 0 2303 0 
L 628 0 
L 628 4666 
z
" transform="scale(0.015625)"/>
      <path id="DejaVuSans-3a" d="M 750 794 
L 1409 794 
L 1409 0 
L 750 0 
L 750 794 
z
M 750 3309 
L 1409 3309 
L 1409 2516 
L 750 2516 
L 750 3309 
z
" transform="scale(0.015625)"/>
      <path id="DejaVuSans-4f" d="M 2522 4238 
Q 1834 4238 1429 3725 
Q 1025 3213 1025 2328 
Q 1025 1447 1429 934 
Q 1834 422 2522 422 
Q 3209 422 3611 934 
Q 4013 1447 4013 2328 
Q 4013 3213 3611 3725 
Q 3209 4238 2522 4238 
z
M 2522 4750 
Q 3503 4750 4090 4092 
Q 4678 3434 4678 2328 
Q 4678 1225 4090 567 
Q 3503 -91 2522 -91 
Q 1538 -91 948 565 
Q 359 1222 359 2328 
Q 359 3434 948 4092 
Q 1538 4750 2522 4750 
z
" transform="scale(0.015625)"/>
      <path id="DejaVuSans-47" d="M 3809 666 
L 3809 1919 
L 2778 1919 
L 2778 2438 
L 4434 2438 
L 4434 434 
Q 4069 175 3628 42 
Q 3188 -91 2688 -91 
Q 1594 -91 976 548 
Q 359 1188 359 2328 
Q 359 3472 976 4111 
Q 1594 4750 2688 4750 
Q 3144 4750 3555 4637 
Q 3966 4525 4313 4306 
L 4313 3634 
Q 3963 3931 3569 4081 
Q 3175 4231 2741 4231 
Q 1884 4231 1454 3753 
Q 1025 3275 1025 2328 
Q 1025 1384 1454 906 
Q 1884 428 2741 428 
Q 3075 428 3337 486 
Q 3600 544 3809 666 
z
" transform="scale(0.015625)"/>
      <path id="DejaVuSans-4b" d="M 628 4666 
L 1259 4666 
L 1259 2694 
L 3353 4666 
L 4166 4666 
L 1850 2491 
L 4331 0 
L 3500 0 
L 1259 2247 
L 1259 0 
L 628 0 
L 628 4666 
z
" transform="scale(0.015625)"/>
      <path id="DejaVuSans-2c" d="M 750 794 
L 1409 794 
L 1409 256 
L 897 -744 
L 494 -744 
L 750 256 
L 750 794 
z
" transform="scale(0.015625)"/>
      <path id="DejaVuSans-52" d="M 2841 2188 
Q 3044 2119 3236 1894 
Q 3428 1669 3622 1275 
L 4263 0 
L 3584 0 
L 2988 1197 
Q 2756 1666 2539 1819 
Q 2322 1972 1947 1972 
L 1259 1972 
L 1259 0 
L 628 0 
L 628 4666 
L 2053 4666 
Q 2853 4666 3247 4331 
Q 3641 3997 3641 3322 
Q 3641 2881 3436 2590 
Q 3231 2300 2841 2188 
z
M 1259 4147 
L 1259 2491 
L 2053 2491 
Q 2509 2491 2742 2702 
Q 2975 2913 2975 3322 
Q 2975 3731 2742 3939 
Q 2509 4147 2053 4147 
L 1259 4147 
z
" transform="scale(0.015625)"/>
      <path id="DejaVuSans-7a" d="M 353 3500 
L 3084 3500 
L 3084 2975 
L 922 459 
L 3084 459 
L 3084 0 
L 275 0 
L 275 525 
L 2438 3041 
L 353 3041 
L 353 3500 
z
" transform="scale(0.015625)"/>
      <path id="DejaVuSans-54" d="M -19 4666 
L 3928 4666 
L 3928 4134 
L 2272 4134 
L 2272 0 
L 1638 0 
L 1638 4134 
L -19 4134 
L -19 4666 
z
" transform="scale(0.015625)"/>
      <path id="DejaVuSans-2e" d="M 684 794 
L 1344 794 
L 1344 0 
L 684 0 
L 684 794 
z
" transform="scale(0.015625)"/>
     </defs>
     <use xlink:href="#DejaVuSans-42"/>
     <use xlink:href="#DejaVuSans-61" transform="translate(68.603516 0)"/>
     <use xlink:href="#DejaVuSans-73" transform="translate(129.882812 0)"/>
     <use xlink:href="#DejaVuSans-65" transform="translate(181.982422 0)"/>
     <use xlink:href="#DejaVuSans-20" transform="translate(243.505859 0)"/>
     <use xlink:href="#DejaVuSans-50" transform="translate(275.292969 0)"/>
     <use xlink:href="#DejaVuSans-72" transform="translate(333.845703 0)"/>
     <use xlink:href="#DejaVuSans-6f" transform="translate(372.708984 0)"/>
     <use xlink:href="#DejaVuSans-64" transform="translate(433.890625 0)"/>
     <use xlink:href="#DejaVuSans-75" transform="translate(497.367188 0)"/>
     <use xlink:href="#DejaVuSans-63" transform="translate(560.746094 0)"/>
     <use xlink:href="#DejaVuSans-74" transform="translate(615.726562 0)"/>
     <use xlink:href="#DejaVuSans-3a" transform="translate(654.935547 0)"/>
     <use xlink:href="#DejaVuSans-20" transform="translate(688.626953 0)"/>
     <use xlink:href="#DejaVuSans-4f" transform="translate(720.414062 0)"/>
     <use xlink:href="#DejaVuSans-47" transform="translate(799.125 0)"/>
     <use xlink:href="#DejaVuSans-20" transform="translate(876.615234 0)"/>
     <use xlink:href="#DejaVuSans-4b" transform="translate(908.402344 0)"/>
     <use xlink:href="#DejaVuSans-75" transform="translate(968.978516 0)"/>
     <use xlink:href="#DejaVuSans-73" transform="translate(1032.357422 0)"/>
     <use xlink:href="#DejaVuSans-68" transform="translate(1084.457031 0)"/>
     <use xlink:href="#DejaVuSans-2c" transform="translate(1147.835938 0)"/>
     <use xlink:href="#DejaVuSans-20" transform="translate(1179.623047 0)"/>
     <use xlink:href="#DejaVuSans-52" transform="translate(1211.410156 0)"/>
     <use xlink:href="#DejaVuSans-65" transform="translate(1276.392578 0)"/>
     <use xlink:href="#DejaVuSans-63" transform="translate(1337.916016 0)"/>
     <use xlink:href="#DejaVuSans-69" transform="translate(1392.896484 0)"/>
     <use xlink:href="#DejaVuSans-70" transform="translate(1420.679688 0)"/>
     <use xlink:href="#DejaVuSans-65" transform="translate(1484.15625 0)"/>
     <use xlink:href="#DejaVuSans-20" transform="translate(1545.679688 0)"/>
     <use xlink:href="#DejaVuSans-73" transform="translate(1577.466797 0)"/>
     <use xlink:href="#DejaVuSans-69" transform="translate(1629.566406 0)"/>
     <use xlink:href="#DejaVuSans-7a" transform="translate(1657.349609 0)"/>
     <use xlink:href="#DejaVuSans-65" transform="translate(1709.839844 0)"/>
     <use xlink:href="#DejaVuSans-3a" transform="translate(1771.363281 0)"/>
     <use xlink:href="#DejaVuSans-20" transform="translate(1805.054688 0)"/>
     <use xlink:href="#DejaVuSans-31" transform="translate(1836.841797 0)"/>
     <use xlink:href="#DejaVuSans-30" transform="translate(1900.464844 0)"/>
     <use xlink:href="#DejaVuSans-2c" transform="translate(1964.087891 0)"/>
     <use xlink:href="#DejaVuSans-20" transform="translate(1995.875 0)"/>
     <use xlink:href="#DejaVuSans-54" transform="translate(2027.662109 0)"/>
     <use xlink:href="#DejaVuSans-30" transform="translate(2088.746094 0)"/>
     <use xlink:href="#DejaVuSans-3a" transform="translate(2152.369141 0)"/>
     <use xlink:href="#DejaVuSans-20" transform="translate(2186.060547 0)"/>
     <use xlink:href="#DejaVuSans-35" transform="translate(2217.847656 0)"/>
     <use xlink:href="#DejaVuSans-2e" transform="translate(2281.470703 0)"/>
     <use xlink:href="#DejaVuSans-30" transform="translate(2313.257812 0)"/>
    </g>
   </g>
  </g>
 </g>
 <defs>
  <clipPath id="pe669793ead">
   <rect x="50.87" y="43.44" width="793.996" height="346.6"/>
  </clipPath>
 </defs>
</svg>
