<?xml version="1.0" encoding="utf-8" standalone="no"?>
<!DOCTYPE svg PUBLIC "-//W3C//DTD SVG 1.1//EN"
  "http://www.w3.org/Graphics/SVG/1.1/DTD/svg11.dtd">
<svg xmlns:xlink="http://www.w3.org/1999/xlink" width="864pt" height="432pt" viewBox="0 0 864 432" xmlns="http://www.w3.org/2000/svg" version="1.1">
 <metadata>
  <rdf:RDF xmlns:dc="http://purl.org/dc/elements/1.1/" xmlns:cc="http://creativecommons.org/ns#" xmlns:rdf="http://www.w3.org/1999/02/22-rdf-syntax-ns#">
   <cc:Work>
    <dc:type rdf:resource="http://purl.org/dc/dcmitype/StillImage"/>
    <dc:date>2025-05-24T02:03:33.757120</dc:date>
    <dc:format>image/svg+xml</dc:format>
    <dc:creator>
     <cc:Agent>
      <dc:title>Matplotlib v3.10.3, https://matplotlib.org/</dc:title>
     </cc:Agent>
    </dc:creator>
   </cc:Work>
  </rdf:RDF>
 </metadata>
 <defs>
  <style type="text/css">*{stroke-linejoin: round; stroke-linecap: butt}</style>
 </defs>
 <g id="figure_1">
  <g id="patch_1">
   <path d="M 0 432 
L 864 432 
L 864 0 
L 0 0 
z
" style="fill: #ffffff"/>
  </g>
  <g id="axes_1">
   <g id="patch_2">
    <path d="M 50.87 390.04 
L 844.866 390.04 
L 844.866 43.44 
L 50.87 43.44 
z
" style="fill: #ffffff"/>
   </g>
   <g id="FillBetweenPolyCollection_1">
    <defs>
     <path id="m9c8bb23f9f" d="M 52.193327 -327.089755 
L 52.193327 -57.714545 
L 54.83998 -58.460347 
L 57.486633 -61.912902 
L 60.133287 -66.827076 
L 62.77994 -70.999547 
L 65.426593 -73.715851 
L 68.073247 -75.851924 
L 70.7199 -78.319153 
L 73.366553 -80.534377 
L 76.013207 -83.34201 
L 78.65986 -85.646897 
L 81.306513 -88.379698 
L 83.953167 -88.872153 
L 86.59982 -90.995746 
L 89.246473 -92.847945 
L 91.893127 -93.823407 
L 94.53978 -95.021319 
L 97.186433 -96.135703 
L 99.833087 -97.471842 
L 102.47974 -98.036108 
L 105.126393 -99.435213 
L 107.773047 -100.760006 
L 110.4197 -101.257022 
L 113.066353 -102.181176 
L 115.713007 -102.497814 
L 118.35966 -103.509442 
L 121.006313 -104.465653 
L 123.652967 -106.573028 
L 126.29962 -107.059138 
L 128.946273 -106.776004 
L 131.592927 -107.777688 
L 134.23958 -107.875593 
L 136.886233 -109.16752 
L 139.532887 -109.76214 
L 142.17954 -109.882308 
L 144.826193 -110.502107 
L 147.472847 -110.198957 
L 150.1195 -111.235522 
L 152.766153 -112.371856 
L 155.412807 -112.973735 
L 158.05946 -113.08566 
L 160.706113 -112.803787 
L 163.352767 -112.827091 
L 165.99942 -113.761873 
L 168.646073 -115.220217 
L 171.292727 -115.521225 
L 173.93938 -115.466618 
L 176.586033 -116.066621 
L 179.232687 -115.866319 
L 181.87934 -116.066482 
L 184.525993 -116.00942 
L 187.172647 -116.907978 
L 189.8193 -117.737943 
L 192.465953 -118.351758 
L 195.112607 -118.682299 
L 197.75926 -118.982405 
L 200.405913 -118.94184 
L 203.052567 -118.823073 
L 205.69922 -119.760159 
L 208.345873 -119.893674 
L 210.992527 -119.669188 
L 213.63918 -121.175193 
L 216.285833 -122.441744 
L 218.932487 -121.887364 
L 221.57914 -122.168808 
L 224.225793 -121.72574 
L 226.872447 -121.950528 
L 229.5191 -122.140075 
L 232.165753 -122.941353 
L 234.812407 -123.305722 
L 237.45906 -122.112869 
L 240.105713 -123.818285 
L 242.752367 -124.50772 
L 245.39902 -124.715396 
L 248.045673 -124.434195 
L 250.692327 -124.432482 
L 253.33898 -124.161688 
L 255.985633 -123.921215 
L 258.632287 -124.443028 
L 261.27894 -123.674686 
L 263.925593 -124.528349 
L 266.572247 -124.902929 
L 269.2189 -125.553014 
L 271.865553 -126.29334 
L 274.512207 -125.542722 
L 277.15886 -125.083296 
L 279.805513 -124.872945 
L 282.452167 -125.958665 
L 285.09882 -125.67604 
L 287.745473 -127.24595 
L 290.392127 -127.971423 
L 293.03878 -128.337435 
L 295.685433 -127.556127 
L 298.332087 -128.009383 
L 300.97874 -127.575194 
L 303.625393 -127.181513 
L 306.272047 -126.8373 
L 308.9187 -126.866693 
L 311.565353 -126.468879 
L 314.212007 -126.514584 
L 316.85866 -127.214195 
L 319.505313 -127.382985 
L 322.151967 -128.277664 
L 324.79862 -127.316557 
L 327.445273 -126.216041 
L 330.091927 -125.269162 
L 332.73858 -126.894211 
L 335.385233 -126.518914 
L 338.031887 -125.590511 
L 340.67854 -126.418937 
L 343.325193 -127.443508 
L 345.971847 -127.054157 
L 348.6185 -128.033417 
L 351.265153 -129.999531 
L 353.911807 -129.788347 
L 356.55846 -128.61837 
L 359.205113 -128.995543 
L 361.851767 -129.539387 
L 364.49842 -130.062532 
L 367.145073 -131.171904 
L 369.791727 -130.987033 
L 372.43838 -131.226292 
L 375.085033 -130.823395 
L 377.731687 -130.2548 
L 380.37834 -129.838115 
L 383.024993 -130.644904 
L 385.671647 -130.606735 
L 388.3183 -130.180013 
L 390.964953 -130.136114 
L 393.611607 -129.841519 
L 396.25826 -128.786118 
L 398.904913 -129.769708 
L 401.551567 -130.328984 
L 404.19822 -130.33637 
L 406.844873 -130.942 
L 409.491527 -129.855075 
L 412.13818 -129.59543 
L 414.784833 -129.731481 
L 417.431487 -130.26398 
L 420.07814 -130.430154 
L 422.724793 -130.551294 
L 425.371447 -130.417037 
L 428.0181 -131.388738 
L 430.664753 -131.417309 
L 433.311407 -132.476079 
L 435.95806 -132.41339 
L 438.604713 -132.1645 
L 441.251367 -132.856412 
L 443.89802 -132.630757 
L 446.544673 -133.22239 
L 449.191327 -131.73324 
L 451.83798 -131.830104 
L 454.484633 -132.10011 
L 457.131287 -134.107056 
L 459.77794 -133.710827 
L 462.424593 -133.174821 
L 465.071247 -133.715389 
L 467.7179 -133.469601 
L 470.364553 -133.15492 
L 473.011207 -133.812159 
L 475.65786 -133.684629 
L 478.304513 -134.635792 
L 480.951167 -134.055157 
L 483.59782 -133.694689 
L 486.244473 -134.58409 
L 488.891127 -134.451686 
L 491.53778 -134.050294 
L 494.184433 -134.189633 
L 496.831087 -134.777157 
L 499.47774 -135.050312 
L 502.124393 -133.859103 
L 504.771047 -135.618977 
L 507.4177 -134.757812 
L 510.064353 -134.508956 
L 512.711007 -134.006036 
L 515.35766 -134.757326 
L 518.004313 -134.655924 
L 520.650967 -135.565642 
L 523.29762 -134.94186 
L 525.944273 -134.677874 
L 528.590927 -134.764723 
L 531.23758 -134.97321 
L 533.884233 -134.85963 
L 536.530887 -136.088972 
L 539.17754 -135.863456 
L 541.824193 -135.940858 
L 544.470847 -135.346944 
L 547.1175 -135.969164 
L 549.764153 -137.426315 
L 552.410807 -136.985886 
L 555.05746 -137.022214 
L 557.704113 -136.749696 
L 560.350767 -136.375047 
L 562.99742 -137.054386 
L 565.644073 -137.029762 
L 568.290727 -137.063057 
L 570.93738 -136.808402 
L 573.584033 -135.931747 
L 576.230687 -134.960082 
L 578.87734 -135.14457 
L 581.523993 -135.966964 
L 584.170647 -136.403167 
L 586.8173 -137.406495 
L 589.463953 -137.742269 
L 592.110607 -136.767617 
L 594.75726 -137.552768 
L 597.403913 -137.308648 
L 600.050567 -137.955885 
L 602.69722 -137.613049 
L 605.343873 -138.01583 
L 607.990527 -137.275805 
L 610.63718 -138.213469 
L 613.283833 -136.861158 
L 615.930487 -136.206269 
L 618.57714 -137.086466 
L 621.223793 -137.511717 
L 623.870447 -136.868277 
L 626.5171 -137.246747 
L 629.163753 -136.759687 
L 631.810407 -137.447176 
L 634.45706 -137.460455 
L 637.103713 -138.308492 
L 639.750367 -139.510281 
L 642.39702 -138.248605 
L 645.043673 -138.457508 
L 647.690327 -138.846188 
L 650.33698 -138.741881 
L 652.983633 -137.799852 
L 655.630287 -138.039192 
L 658.27694 -138.914202 
L 660.923593 -138.242365 
L 663.570247 -138.851085 
L 666.2169 -137.70263 
L 668.863553 -138.363991 
L 671.510207 -137.237809 
L 674.15686 -136.40348 
L 676.803513 -137.168372 
L 679.450167 -137.129346 
L 682.09682 -137.882117 
L 684.743473 -137.595267 
L 687.390127 -137.770644 
L 690.03678 -137.66783 
L 692.683433 -138.253409 
L 695.330087 -139.838009 
L 697.97674 -139.317157 
L 700.623393 -140.081748 
L 703.270047 -139.705142 
L 705.9167 -138.804686 
L 708.563353 -138.452993 
L 711.210007 -139.831908 
L 713.85666 -139.33267 
L 716.503313 -139.814011 
L 719.149967 -139.925808 
L 721.79662 -139.074171 
L 724.443273 -138.76485 
L 727.089927 -139.23209 
L 729.73658 -139.589536 
L 732.383233 -139.831503 
L 735.029887 -139.993521 
L 737.67654 -139.219309 
L 740.323193 -138.782354 
L 742.969847 -139.195114 
L 745.6165 -139.456576 
L 748.263153 -139.558846 
L 750.909807 -140.548386 
L 753.55646 -141.008622 
L 756.203113 -140.034618 
L 758.849767 -140.71089 
L 761.49642 -140.796373 
L 764.143073 -140.334551 
L 766.789727 -138.8614 
L 769.43638 -138.144228 
L 772.083033 -138.730328 
L 774.729687 -138.975015 
L 777.37634 -139.629453 
L 780.022993 -139.322806 
L 782.669647 -140.299149 
L 785.3163 -140.177152 
L 787.962953 -140.628347 
L 790.609607 -140.635374 
L 793.25626 -140.854894 
L 795.902913 -140.205677 
L 798.549567 -141.355557 
L 801.19622 -140.679621 
L 803.842873 -140.507821 
L 806.489527 -140.248952 
L 809.13618 -141.642777 
L 811.782833 -140.790863 
L 814.429487 -141.623132 
L 817.07614 -142.177638 
L 819.722793 -140.57 
L 822.369447 -139.613685 
L 825.0161 -140.500817 
L 827.662753 -142.328635 
L 830.309407 -141.583713 
L 832.95606 -141.230816 
L 835.602713 -141.060718 
L 838.249367 -140.738257 
L 840.89602 -139.607503 
L 843.542673 -140.454255 
L 843.542673 -371.99855 
L 843.542673 -371.99855 
L 840.89602 -372.429416 
L 838.249367 -371.807672 
L 835.602713 -371.467105 
L 832.95606 -371.568008 
L 830.309407 -371.0803 
L 827.662753 -371.52441 
L 825.0161 -372.47313 
L 822.369447 -372.805455 
L 819.722793 -371.709246 
L 817.07614 -370.946287 
L 814.429487 -371.332767 
L 811.782833 -371.789704 
L 809.13618 -371.478149 
L 806.489527 -372.354445 
L 803.842873 -372.471695 
L 801.19622 -371.803481 
L 798.549567 -371.038022 
L 795.902913 -371.669074 
L 793.25626 -371.664096 
L 790.609607 -371.589263 
L 787.962953 -371.351198 
L 785.3163 -371.538904 
L 782.669647 -371.696187 
L 780.022993 -372.128141 
L 777.37634 -371.955184 
L 774.729687 -372.108067 
L 772.083033 -372.081162 
L 769.43638 -372.53509 
L 766.789727 -371.927445 
L 764.143073 -370.699955 
L 761.49642 -370.602293 
L 758.849767 -370.491341 
L 756.203113 -370.670365 
L 753.55646 -370.195924 
L 750.909807 -370.031348 
L 748.263153 -370.629314 
L 745.6165 -370.778469 
L 742.969847 -370.375156 
L 740.323193 -370.542024 
L 737.67654 -370.0702 
L 735.029887 -369.148036 
L 732.383233 -369.303999 
L 729.73658 -369.701547 
L 727.089927 -370.203842 
L 724.443273 -370.395832 
L 721.79662 -369.846304 
L 719.149967 -369.150352 
L 716.503313 -369.142225 
L 713.85666 -369.141276 
L 711.210007 -368.777717 
L 708.563353 -369.894024 
L 705.9167 -370.180133 
L 703.270047 -369.852579 
L 700.623393 -369.711966 
L 697.97674 -370.349618 
L 695.330087 -369.777121 
L 692.683433 -370.418129 
L 690.03678 -370.777451 
L 687.390127 -370.165315 
L 684.743473 -370.096641 
L 682.09682 -369.936209 
L 679.450167 -370.82304 
L 676.803513 -370.546007 
L 674.15686 -371.157101 
L 671.510207 -370.893404 
L 668.863553 -370.167468 
L 666.2169 -370.194789 
L 663.570247 -369.994302 
L 660.923593 -370.521973 
L 658.27694 -369.766516 
L 655.630287 -370.308242 
L 652.983633 -370.205556 
L 650.33698 -369.462092 
L 647.690327 -369.055723 
L 645.043673 -369.723173 
L 642.39702 -369.496777 
L 639.750367 -368.543194 
L 637.103713 -369.467233 
L 634.45706 -370.167167 
L 631.810407 -369.989023 
L 629.163753 -370.393378 
L 626.5171 -369.927203 
L 623.870447 -370.1191 
L 621.223793 -369.850286 
L 618.57714 -369.618866 
L 615.930487 -370.347349 
L 613.283833 -370.449734 
L 610.63718 -369.238243 
L 607.990527 -370.099327 
L 605.343873 -369.554568 
L 602.69722 -369.813009 
L 600.050567 -369.37904 
L 597.403913 -369.568298 
L 594.75726 -369.400874 
L 592.110607 -370.309284 
L 589.463953 -369.284805 
L 586.8173 -368.852341 
L 584.170647 -369.709744 
L 581.523993 -369.457184 
L 578.87734 -370.219147 
L 576.230687 -369.764734 
L 573.584033 -369.499856 
L 570.93738 -368.658476 
L 568.290727 -368.183734 
L 565.644073 -368.273292 
L 562.99742 -368.57554 
L 560.350767 -369.372418 
L 557.704113 -369.216154 
L 555.05746 -368.921594 
L 552.410807 -368.076278 
L 549.764153 -368.127633 
L 547.1175 -368.546343 
L 544.470847 -368.115708 
L 541.824193 -367.794197 
L 539.17754 -367.566597 
L 536.530887 -367.30848 
L 533.884233 -368.232079 
L 531.23758 -368.032448 
L 528.590927 -368.43759 
L 525.944273 -368.320294 
L 523.29762 -368.223141 
L 520.650967 -367.722073 
L 518.004313 -368.402026 
L 515.35766 -367.879865 
L 512.711007 -368.002719 
L 510.064353 -368.003483 
L 507.4177 -367.239922 
L 504.771047 -366.242579 
L 502.124393 -367.561271 
L 499.47774 -366.734733 
L 496.831087 -366.740892 
L 494.184433 -366.738762 
L 491.53778 -366.620817 
L 488.891127 -366.391179 
L 486.244473 -366.346632 
L 483.59782 -366.512944 
L 480.951167 -365.978952 
L 478.304513 -366.235749 
L 475.65786 -366.654112 
L 473.011207 -366.354411 
L 470.364553 -366.423872 
L 467.7179 -366.11278 
L 465.071247 -366.056308 
L 462.424593 -366.60623 
L 459.77794 -365.853135 
L 457.131287 -365.135812 
L 454.484633 -366.48722 
L 451.83798 -366.521951 
L 449.191327 -366.225538 
L 446.544673 -365.737737 
L 443.89802 -365.867259 
L 441.251367 -365.374642 
L 438.604713 -365.990297 
L 435.95806 -366.551495 
L 433.311407 -366.225214 
L 430.664753 -367.056152 
L 428.0181 -366.712505 
L 425.371447 -367.300237 
L 422.724793 -366.881064 
L 420.07814 -367.32691 
L 417.431487 -367.418275 
L 414.784833 -367.76074 
L 412.13818 -367.01598 
L 409.491527 -366.613801 
L 406.844873 -365.761146 
L 404.19822 -365.941165 
L 401.551567 -365.421157 
L 398.904913 -366.521858 
L 396.25826 -366.794817 
L 393.611607 -365.514999 
L 390.964953 -365.042596 
L 388.3183 -364.802076 
L 385.671647 -364.692698 
L 383.024993 -363.548746 
L 380.37834 -364.01293 
L 377.731687 -363.944928 
L 375.085033 -363.957593 
L 372.43838 -363.095537 
L 369.791727 -362.711603 
L 367.145073 -362.486364 
L 364.49842 -362.99197 
L 361.851767 -363.067289 
L 359.205113 -363.558424 
L 356.55846 -363.704199 
L 353.911807 -362.801648 
L 351.265153 -363.037791 
L 348.6185 -364.811592 
L 345.971847 -365.409233 
L 343.325193 -364.712633 
L 340.67854 -365.074362 
L 338.031887 -365.438314 
L 335.385233 -364.94836 
L 332.73858 -364.818723 
L 330.091927 -366.011645 
L 327.445273 -365.381264 
L 324.79862 -364.201702 
L 322.151967 -363.77799 
L 319.505313 -363.399683 
L 316.85866 -363.897903 
L 314.212007 -364.243911 
L 311.565353 -363.696142 
L 308.9187 -362.826306 
L 306.272047 -362.748741 
L 303.625393 -363.056639 
L 300.97874 -362.259505 
L 298.332087 -362.112896 
L 295.685433 -361.749338 
L 293.03878 -360.676028 
L 290.392127 -360.485798 
L 287.745473 -360.528308 
L 285.09882 -361.667883 
L 282.452167 -361.34452 
L 279.805513 -362.087613 
L 277.15886 -361.990159 
L 274.512207 -361.370544 
L 271.865553 -360.325945 
L 269.2189 -361.011895 
L 266.572247 -361.72806 
L 263.925593 -361.594648 
L 261.27894 -361.559802 
L 258.632287 -360.672925 
L 255.985633 -361.036229 
L 253.33898 -360.433355 
L 250.692327 -360.203045 
L 248.045673 -359.936917 
L 245.39902 -360.277554 
L 242.752367 -359.517188 
L 240.105713 -360.075237 
L 237.45906 -360.41724 
L 234.812407 -359.138395 
L 232.165753 -359.050573 
L 229.5191 -358.844899 
L 226.872447 -358.00169 
L 224.225793 -358.737351 
L 221.57914 -358.259043 
L 218.932487 -358.363165 
L 216.285833 -358.008381 
L 213.63918 -358.465434 
L 210.992527 -359.019408 
L 208.345873 -358.168396 
L 205.69922 -358.098426 
L 203.052567 -358.951962 
L 200.405913 -358.092568 
L 197.75926 -357.46654 
L 195.112607 -356.397513 
L 192.465953 -356.3958 
L 189.8193 -356.354425 
L 187.172647 -356.272275 
L 184.525993 -356.57399 
L 181.87934 -356.154423 
L 179.232687 -356.027379 
L 176.586033 -354.947702 
L 173.93938 -354.364323 
L 171.292727 -354.412367 
L 168.646073 -353.936953 
L 165.99942 -355.195515 
L 163.352767 -355.561482 
L 160.706113 -354.847377 
L 158.05946 -354.737768 
L 155.412807 -355.378985 
L 152.766153 -355.167199 
L 150.1195 -355.440597 
L 147.472847 -354.880672 
L 144.826193 -354.242072 
L 142.17954 -353.511551 
L 139.532887 -353.136277 
L 136.886233 -352.810922 
L 134.23958 -352.611106 
L 131.592927 -352.460654 
L 128.946273 -352.257967 
L 126.29962 -351.305843 
L 123.652967 -350.896418 
L 121.006313 -351.379935 
L 118.35966 -350.145013 
L 115.713007 -349.850683 
L 113.066353 -349.01104 
L 110.4197 -349.015671 
L 107.773047 -348.309901 
L 105.126393 -347.623813 
L 102.47974 -347.395379 
L 99.833087 -346.210445 
L 97.186433 -345.734522 
L 94.53978 -344.78226 
L 91.893127 -344.120158 
L 89.246473 -343.326683 
L 86.59982 -342.791232 
L 83.953167 -342.008917 
L 81.306513 -340.615485 
L 78.65986 -340.421272 
L 76.013207 -339.890012 
L 73.366553 -339.074888 
L 70.7199 -336.930606 
L 68.073247 -335.224994 
L 65.426593 -333.305511 
L 62.77994 -331.19809 
L 60.133287 -329.662494 
L 57.486633 -328.328335 
L 54.83998 -326.050318 
L 52.193327 -327.089755 
z
" style="stroke: #0000ff; stroke-opacity: 0.2"/>
    </defs>
    <g clip-path="url(#pfd1e85fc60)">
     <use xlink:href="#m9c8bb23f9f" x="0" y="432" style="fill: #0000ff; fill-opacity: 0.2; stroke: #0000ff; stroke-opacity: 0.2"/>
    </g>
   </g>
   <g id="matplotlib.axis_1">
    <g id="xtick_1">
     <g id="line2d_1">
      <defs>
       <path id="mf9365835c5" d="M 0 0 
L 0 3.5 
" style="stroke: #000000; stroke-width: 0.8"/>
      </defs>
      <g>
       <use xlink:href="#mf9365835c5" x="181.87934" y="390.04" style="stroke: #000000; stroke-width: 0.8"/>
      </g>
     </g>
     <g id="text_1">
      <!-- 50 -->
      <g transform="translate(175.51684 404.638438) scale(0.1 -0.1)">
       <defs>
        <path id="DejaVuSans-35" d="M 691 4666 
L 3169 4666 
L 3169 4134 
L 1269 4134 
L 1269 2991 
Q 1406 3038 1543 3061 
Q 1681 3084 1819 3084 
Q 2600 3084 3056 2656 
Q 3513 2228 3513 1497 
Q 3513 744 3044 326 
Q 2575 -91 1722 -91 
Q 1428 -91 1123 -41 
Q 819 9 494 109 
L 494 744 
Q 775 591 1075 516 
Q 1375 441 1709 441 
Q 2250 441 2565 725 
Q 2881 1009 2881 1497 
Q 2881 1984 2565 2268 
Q 2250 2553 1709 2553 
Q 1456 2553 1204 2497 
Q 953 2441 691 2322 
L 691 4666 
z
" transform="scale(0.015625)"/>
        <path id="DejaVuSans-30" d="M 2034 4250 
Q 1547 4250 1301 3770 
Q 1056 3291 1056 2328 
Q 1056 1369 1301 889 
Q 1547 409 2034 409 
Q 2525 409 2770 889 
Q 3016 1369 3016 2328 
Q 3016 3291 2770 3770 
Q 2525 4250 2034 4250 
z
M 2034 4750 
Q 2819 4750 3233 4129 
Q 3647 3509 3647 2328 
Q 3647 1150 3233 529 
Q 2819 -91 2034 -91 
Q 1250 -91 836 529 
Q 422 1150 422 2328 
Q 422 3509 836 4129 
Q 1250 4750 2034 4750 
z
" transform="scale(0.015625)"/>
       </defs>
       <use xlink:href="#DejaVuSans-35"/>
       <use xlink:href="#DejaVuSans-30" transform="translate(63.623047 0)"/>
      </g>
     </g>
    </g>
    <g id="xtick_2">
     <g id="line2d_2">
      <g>
       <use xlink:href="#mf9365835c5" x="314.212007" y="390.04" style="stroke: #000000; stroke-width: 0.8"/>
      </g>
     </g>
     <g id="text_2">
      <!-- 100 -->
      <g transform="translate(304.668257 404.638438) scale(0.1 -0.1)">
       <defs>
        <path id="DejaVuSans-31" d="M 794 531 
L 1825 531 
L 1825 4091 
L 703 3866 
L 703 4441 
L 1819 4666 
L 2450 4666 
L 2450 531 
L 3481 531 
L 3481 0 
L 794 0 
L 794 531 
z
" transform="scale(0.015625)"/>
       </defs>
       <use xlink:href="#DejaVuSans-31"/>
       <use xlink:href="#DejaVuSans-30" transform="translate(63.623047 0)"/>
       <use xlink:href="#DejaVuSans-30" transform="translate(127.246094 0)"/>
      </g>
     </g>
    </g>
    <g id="xtick_3">
     <g id="line2d_3">
      <g>
       <use xlink:href="#mf9365835c5" x="446.544673" y="390.04" style="stroke: #000000; stroke-width: 0.8"/>
      </g>
     </g>
     <g id="text_3">
      <!-- 150 -->
      <g transform="translate(437.000923 404.638438) scale(0.1 -0.1)">
       <use xlink:href="#DejaVuSans-31"/>
       <use xlink:href="#DejaVuSans-35" transform="translate(63.623047 0)"/>
       <use xlink:href="#DejaVuSans-30" transform="translate(127.246094 0)"/>
      </g>
     </g>
    </g>
    <g id="xtick_4">
     <g id="line2d_4">
      <g>
       <use xlink:href="#mf9365835c5" x="578.87734" y="390.04" style="stroke: #000000; stroke-width: 0.8"/>
      </g>
     </g>
     <g id="text_4">
      <!-- 200 -->
      <g transform="translate(569.33359 404.638438) scale(0.1 -0.1)">
       <defs>
        <path id="DejaVuSans-32" d="M 1228 531 
L 3431 531 
L 3431 0 
L 469 0 
L 469 531 
Q 828 903 1448 1529 
Q 2069 2156 2228 2338 
Q 2531 2678 2651 2914 
Q 2772 3150 2772 3378 
Q 2772 3750 2511 3984 
Q 2250 4219 1831 4219 
Q 1534 4219 1204 4116 
Q 875 4013 500 3803 
L 500 4441 
Q 881 4594 1212 4672 
Q 1544 4750 1819 4750 
Q 2544 4750 2975 4387 
Q 3406 4025 3406 3419 
Q 3406 3131 3298 2873 
Q 3191 2616 2906 2266 
Q 2828 2175 2409 1742 
Q 1991 1309 1228 531 
z
" transform="scale(0.015625)"/>
       </defs>
       <use xlink:href="#DejaVuSans-32"/>
       <use xlink:href="#DejaVuSans-30" transform="translate(63.623047 0)"/>
       <use xlink:href="#DejaVuSans-30" transform="translate(127.246094 0)"/>
      </g>
     </g>
    </g>
    <g id="xtick_5">
     <g id="line2d_5">
      <g>
       <use xlink:href="#mf9365835c5" x="711.210007" y="390.04" style="stroke: #000000; stroke-width: 0.8"/>
      </g>
     </g>
     <g id="text_5">
      <!-- 250 -->
      <g transform="translate(701.666257 404.638438) scale(0.1 -0.1)">
       <use xlink:href="#DejaVuSans-32"/>
       <use xlink:href="#DejaVuSans-35" transform="translate(63.623047 0)"/>
       <use xlink:href="#DejaVuSans-30" transform="translate(127.246094 0)"/>
      </g>
     </g>
    </g>
    <g id="xtick_6">
     <g id="line2d_6">
      <g>
       <use xlink:href="#mf9365835c5" x="843.542673" y="390.04" style="stroke: #000000; stroke-width: 0.8"/>
      </g>
     </g>
     <g id="text_6">
      <!-- 300 -->
      <g transform="translate(833.998923 404.638438) scale(0.1 -0.1)">
       <defs>
        <path id="DejaVuSans-33" d="M 2597 2516 
Q 3050 2419 3304 2112 
Q 3559 1806 3559 1356 
Q 3559 666 3084 287 
Q 2609 -91 1734 -91 
Q 1441 -91 1130 -33 
Q 819 25 488 141 
L 488 750 
Q 750 597 1062 519 
Q 1375 441 1716 441 
Q 2309 441 2620 675 
Q 2931 909 2931 1356 
Q 2931 1769 2642 2001 
Q 2353 2234 1838 2234 
L 1294 2234 
L 1294 2753 
L 1863 2753 
Q 2328 2753 2575 2939 
Q 2822 3125 2822 3475 
Q 2822 3834 2567 4026 
Q 2313 4219 1838 4219 
Q 1578 4219 1281 4162 
Q 984 4106 628 3988 
L 628 4550 
Q 988 4650 1302 4700 
Q 1616 4750 1894 4750 
Q 2613 4750 3031 4423 
Q 3450 4097 3450 3541 
Q 3450 3153 3228 2886 
Q 3006 2619 2597 2516 
z
" transform="scale(0.015625)"/>
       </defs>
       <use xlink:href="#DejaVuSans-33"/>
       <use xlink:href="#DejaVuSans-30" transform="translate(63.623047 0)"/>
       <use xlink:href="#DejaVuSans-30" transform="translate(127.246094 0)"/>
      </g>
     </g>
    </g>
    <g id="text_7">
     <!-- Step -->
     <g transform="translate(436.482844 418.316562) scale(0.1 -0.1)">
      <defs>
       <path id="DejaVuSans-53" d="M 3425 4513 
L 3425 3897 
Q 3066 4069 2747 4153 
Q 2428 4238 2131 4238 
Q 1616 4238 1336 4038 
Q 1056 3838 1056 3469 
Q 1056 3159 1242 3001 
Q 1428 2844 1947 2747 
L 2328 2669 
Q 3034 2534 3370 2195 
Q 3706 1856 3706 1288 
Q 3706 609 3251 259 
Q 2797 -91 1919 -91 
Q 1588 -91 1214 -16 
Q 841 59 441 206 
L 441 856 
Q 825 641 1194 531 
Q 1563 422 1919 422 
Q 2459 422 2753 634 
Q 3047 847 3047 1241 
Q 3047 1584 2836 1778 
Q 2625 1972 2144 2069 
L 1759 2144 
Q 1053 2284 737 2584 
Q 422 2884 422 3419 
Q 422 4038 858 4394 
Q 1294 4750 2059 4750 
Q 2388 4750 2728 4690 
Q 3069 4631 3425 4513 
z
" transform="scale(0.015625)"/>
       <path id="DejaVuSans-74" d="M 1172 4494 
L 1172 3500 
L 2356 3500 
L 2356 3053 
L 1172 3053 
L 1172 1153 
Q 1172 725 1289 603 
Q 1406 481 1766 481 
L 2356 481 
L 2356 0 
L 1766 0 
Q 1100 0 847 248 
Q 594 497 594 1153 
L 594 3053 
L 172 3053 
L 172 3500 
L 594 3500 
L 594 4494 
L 1172 4494 
z
" transform="scale(0.015625)"/>
       <path id="DejaVuSans-65" d="M 3597 1894 
L 3597 1613 
L 953 1613 
Q 991 1019 1311 708 
Q 1631 397 2203 397 
Q 2534 397 2845 478 
Q 3156 559 3463 722 
L 3463 178 
Q 3153 47 2828 -22 
Q 2503 -91 2169 -91 
Q 1331 -91 842 396 
Q 353 884 353 1716 
Q 353 2575 817 3079 
Q 1281 3584 2069 3584 
Q 2775 3584 3186 3129 
Q 3597 2675 3597 1894 
z
M 3022 2063 
Q 3016 2534 2758 2815 
Q 2500 3097 2075 3097 
Q 1594 3097 1305 2825 
Q 1016 2553 972 2059 
L 3022 2063 
z
" transform="scale(0.015625)"/>
       <path id="DejaVuSans-70" d="M 1159 525 
L 1159 -1331 
L 581 -1331 
L 581 3500 
L 1159 3500 
L 1159 2969 
Q 1341 3281 1617 3432 
Q 1894 3584 2278 3584 
Q 2916 3584 3314 3078 
Q 3713 2572 3713 1747 
Q 3713 922 3314 415 
Q 2916 -91 2278 -91 
Q 1894 -91 1617 61 
Q 1341 213 1159 525 
z
M 3116 1747 
Q 3116 2381 2855 2742 
Q 2594 3103 2138 3103 
Q 1681 3103 1420 2742 
Q 1159 2381 1159 1747 
Q 1159 1113 1420 752 
Q 1681 391 2138 391 
Q 2594 391 2855 752 
Q 3116 1113 3116 1747 
z
" transform="scale(0.015625)"/>
      </defs>
      <use xlink:href="#DejaVuSans-53"/>
      <use xlink:href="#DejaVuSans-74" transform="translate(63.476562 0)"/>
      <use xlink:href="#DejaVuSans-65" transform="translate(102.685547 0)"/>
      <use xlink:href="#DejaVuSans-70" transform="translate(164.208984 0)"/>
     </g>
    </g>
   </g>
   <g id="matplotlib.axis_2">
    <g id="ytick_1">
     <g id="line2d_7">
      <defs>
       <path id="m51a58f0f4d" d="M 0 0 
L -3.5 0 
" style="stroke: #000000; stroke-width: 0.8"/>
      </defs>
      <g>
       <use xlink:href="#m51a58f0f4d" x="50.87" y="371.023223" style="stroke: #000000; stroke-width: 0.8"/>
      </g>
     </g>
     <g id="text_8">
      <!-- 20 -->
      <g transform="translate(31.145 374.822442) scale(0.1 -0.1)">
       <use xlink:href="#DejaVuSans-32"/>
       <use xlink:href="#DejaVuSans-30" transform="translate(63.623047 0)"/>
      </g>
     </g>
    </g>
    <g id="ytick_2">
     <g id="line2d_8">
      <g>
       <use xlink:href="#m51a58f0f4d" x="50.87" y="310.327351" style="stroke: #000000; stroke-width: 0.8"/>
      </g>
     </g>
     <g id="text_9">
      <!-- 40 -->
      <g transform="translate(31.145 314.12657) scale(0.1 -0.1)">
       <defs>
        <path id="DejaVuSans-34" d="M 2419 4116 
L 825 1625 
L 2419 1625 
L 2419 4116 
z
M 2253 4666 
L 3047 4666 
L 3047 1625 
L 3713 1625 
L 3713 1100 
L 3047 1100 
L 3047 0 
L 2419 0 
L 2419 1100 
L 313 1100 
L 313 1709 
L 2253 4666 
z
" transform="scale(0.015625)"/>
       </defs>
       <use xlink:href="#DejaVuSans-34"/>
       <use xlink:href="#DejaVuSans-30" transform="translate(63.623047 0)"/>
      </g>
     </g>
    </g>
    <g id="ytick_3">
     <g id="line2d_9">
      <g>
       <use xlink:href="#m51a58f0f4d" x="50.87" y="249.631479" style="stroke: #000000; stroke-width: 0.8"/>
      </g>
     </g>
     <g id="text_10">
      <!-- 60 -->
      <g transform="translate(31.145 253.430698) scale(0.1 -0.1)">
       <defs>
        <path id="DejaVuSans-36" d="M 2113 2584 
Q 1688 2584 1439 2293 
Q 1191 2003 1191 1497 
Q 1191 994 1439 701 
Q 1688 409 2113 409 
Q 2538 409 2786 701 
Q 3034 994 3034 1497 
Q 3034 2003 2786 2293 
Q 2538 2584 2113 2584 
z
M 3366 4563 
L 3366 3988 
Q 3128 4100 2886 4159 
Q 2644 4219 2406 4219 
Q 1781 4219 1451 3797 
Q 1122 3375 1075 2522 
Q 1259 2794 1537 2939 
Q 1816 3084 2150 3084 
Q 2853 3084 3261 2657 
Q 3669 2231 3669 1497 
Q 3669 778 3244 343 
Q 2819 -91 2113 -91 
Q 1303 -91 875 529 
Q 447 1150 447 2328 
Q 447 3434 972 4092 
Q 1497 4750 2381 4750 
Q 2619 4750 2861 4703 
Q 3103 4656 3366 4563 
z
" transform="scale(0.015625)"/>
       </defs>
       <use xlink:href="#DejaVuSans-36"/>
       <use xlink:href="#DejaVuSans-30" transform="translate(63.623047 0)"/>
      </g>
     </g>
    </g>
    <g id="ytick_4">
     <g id="line2d_10">
      <g>
       <use xlink:href="#m51a58f0f4d" x="50.87" y="188.935607" style="stroke: #000000; stroke-width: 0.8"/>
      </g>
     </g>
     <g id="text_11">
      <!-- 80 -->
      <g transform="translate(31.145 192.734826) scale(0.1 -0.1)">
       <defs>
        <path id="DejaVuSans-38" d="M 2034 2216 
Q 1584 2216 1326 1975 
Q 1069 1734 1069 1313 
Q 1069 891 1326 650 
Q 1584 409 2034 409 
Q 2484 409 2743 651 
Q 3003 894 3003 1313 
Q 3003 1734 2745 1975 
Q 2488 2216 2034 2216 
z
M 1403 2484 
Q 997 2584 770 2862 
Q 544 3141 544 3541 
Q 544 4100 942 4425 
Q 1341 4750 2034 4750 
Q 2731 4750 3128 4425 
Q 3525 4100 3525 3541 
Q 3525 3141 3298 2862 
Q 3072 2584 2669 2484 
Q 3125 2378 3379 2068 
Q 3634 1759 3634 1313 
Q 3634 634 3220 271 
Q 2806 -91 2034 -91 
Q 1263 -91 848 271 
Q 434 634 434 1313 
Q 434 1759 690 2068 
Q 947 2378 1403 2484 
z
M 1172 3481 
Q 1172 3119 1398 2916 
Q 1625 2713 2034 2713 
Q 2441 2713 2670 2916 
Q 2900 3119 2900 3481 
Q 2900 3844 2670 4047 
Q 2441 4250 2034 4250 
Q 1625 4250 1398 4047 
Q 1172 3844 1172 3481 
z
" transform="scale(0.015625)"/>
       </defs>
       <use xlink:href="#DejaVuSans-38"/>
       <use xlink:href="#DejaVuSans-30" transform="translate(63.623047 0)"/>
      </g>
     </g>
    </g>
    <g id="ytick_5">
     <g id="line2d_11">
      <g>
       <use xlink:href="#m51a58f0f4d" x="50.87" y="128.239735" style="stroke: #000000; stroke-width: 0.8"/>
      </g>
     </g>
     <g id="text_12">
      <!-- 100 -->
      <g transform="translate(24.7825 132.038954) scale(0.1 -0.1)">
       <use xlink:href="#DejaVuSans-31"/>
       <use xlink:href="#DejaVuSans-30" transform="translate(63.623047 0)"/>
       <use xlink:href="#DejaVuSans-30" transform="translate(127.246094 0)"/>
      </g>
     </g>
    </g>
    <g id="ytick_6">
     <g id="line2d_12">
      <g>
       <use xlink:href="#m51a58f0f4d" x="50.87" y="67.543863" style="stroke: #000000; stroke-width: 0.8"/>
      </g>
     </g>
     <g id="text_13">
      <!-- 120 -->
      <g transform="translate(24.7825 71.343082) scale(0.1 -0.1)">
       <use xlink:href="#DejaVuSans-31"/>
       <use xlink:href="#DejaVuSans-32" transform="translate(63.623047 0)"/>
       <use xlink:href="#DejaVuSans-30" transform="translate(127.246094 0)"/>
      </g>
     </g>
    </g>
    <g id="text_14">
     <!-- Profit -->
     <g transform="translate(18.702813 229.779063) rotate(-90) scale(0.1 -0.1)">
      <defs>
       <path id="DejaVuSans-50" d="M 1259 4147 
L 1259 2394 
L 2053 2394 
Q 2494 2394 2734 2622 
Q 2975 2850 2975 3272 
Q 2975 3691 2734 3919 
Q 2494 4147 2053 4147 
L 1259 4147 
z
M 628 4666 
L 2053 4666 
Q 2838 4666 3239 4311 
Q 3641 3956 3641 3272 
Q 3641 2581 3239 2228 
Q 2838 1875 2053 1875 
L 1259 1875 
L 1259 0 
L 628 0 
L 628 4666 
z
" transform="scale(0.015625)"/>
       <path id="DejaVuSans-72" d="M 2631 2963 
Q 2534 3019 2420 3045 
Q 2306 3072 2169 3072 
Q 1681 3072 1420 2755 
Q 1159 2438 1159 1844 
L 1159 0 
L 581 0 
L 581 3500 
L 1159 3500 
L 1159 2956 
Q 1341 3275 1631 3429 
Q 1922 3584 2338 3584 
Q 2397 3584 2469 3576 
Q 2541 3569 2628 3553 
L 2631 2963 
z
" transform="scale(0.015625)"/>
       <path id="DejaVuSans-6f" d="M 1959 3097 
Q 1497 3097 1228 2736 
Q 959 2375 959 1747 
Q 959 1119 1226 758 
Q 1494 397 1959 397 
Q 2419 397 2687 759 
Q 2956 1122 2956 1747 
Q 2956 2369 2687 2733 
Q 2419 3097 1959 3097 
z
M 1959 3584 
Q 2709 3584 3137 3096 
Q 3566 2609 3566 1747 
Q 3566 888 3137 398 
Q 2709 -91 1959 -91 
Q 1206 -91 779 398 
Q 353 888 353 1747 
Q 353 2609 779 3096 
Q 1206 3584 1959 3584 
z
" transform="scale(0.015625)"/>
       <path id="DejaVuSans-66" d="M 2375 4863 
L 2375 4384 
L 1825 4384 
Q 1516 4384 1395 4259 
Q 1275 4134 1275 3809 
L 1275 3500 
L 2222 3500 
L 2222 3053 
L 1275 3053 
L 1275 0 
L 697 0 
L 697 3053 
L 147 3053 
L 147 3500 
L 697 3500 
L 697 3744 
Q 697 4328 969 4595 
Q 1241 4863 1831 4863 
L 2375 4863 
z
" transform="scale(0.015625)"/>
       <path id="DejaVuSans-69" d="M 603 3500 
L 1178 3500 
L 1178 0 
L 603 0 
L 603 3500 
z
M 603 4863 
L 1178 4863 
L 1178 4134 
L 603 4134 
L 603 4863 
z
" transform="scale(0.015625)"/>
      </defs>
      <use xlink:href="#DejaVuSans-50"/>
      <use xlink:href="#DejaVuSans-72" transform="translate(58.552734 0)"/>
      <use xlink:href="#DejaVuSans-6f" transform="translate(97.416016 0)"/>
      <use xlink:href="#DejaVuSans-66" transform="translate(158.597656 0)"/>
      <use xlink:href="#DejaVuSans-69" transform="translate(193.802734 0)"/>
      <use xlink:href="#DejaVuSans-74" transform="translate(221.585938 0)"/>
     </g>
    </g>
   </g>
   <g id="line2d_13">
    <path d="M 52.193327 239.59785 
L 54.83998 239.744667 
L 57.486633 236.879381 
L 60.133287 233.755215 
L 62.77994 230.901182 
L 65.426593 228.489313 
L 70.7199 224.37512 
L 73.366553 222.195367 
L 76.013207 220.383989 
L 81.306513 217.502403 
L 83.953167 216.559471 
L 86.59982 215.106511 
L 89.246473 213.912686 
L 94.53978 212.098205 
L 97.186433 211.064881 
L 102.47974 209.284251 
L 105.126393 208.470493 
L 107.773047 207.465046 
L 110.4197 206.863654 
L 113.066353 206.403892 
L 118.35966 205.172767 
L 121.006313 204.077206 
L 123.652967 203.265277 
L 126.29962 202.817509 
L 128.946273 202.483009 
L 131.592927 201.880829 
L 134.23958 201.756656 
L 136.886233 201.010785 
L 139.532887 200.550791 
L 142.17954 200.303071 
L 144.826193 199.62791 
L 147.472847 199.460186 
L 150.1195 198.661941 
L 155.412807 197.82364 
L 158.05946 198.088286 
L 160.706113 198.174418 
L 165.99942 197.5213 
L 168.646073 197.421415 
L 171.292727 197.033198 
L 173.93938 197.08453 
L 176.586033 196.492838 
L 179.232687 196.053151 
L 184.525993 195.708301 
L 187.172647 195.409873 
L 189.8193 194.953816 
L 192.465953 194.626215 
L 195.112607 194.460088 
L 197.75926 193.775528 
L 203.052567 193.112477 
L 208.345873 192.968971 
L 210.992527 192.655702 
L 216.285833 191.774937 
L 218.932487 191.87473 
L 224.225793 191.768454 
L 226.872447 192.023885 
L 232.165753 191.004037 
L 234.812407 190.777942 
L 237.45906 190.734946 
L 240.105713 190.053233 
L 242.752367 189.987546 
L 245.39902 189.503519 
L 248.045673 189.81445 
L 250.692327 189.682242 
L 253.33898 189.702479 
L 258.632287 189.442023 
L 261.27894 189.38275 
L 263.925593 188.938501 
L 266.572247 188.684506 
L 271.865553 188.690364 
L 277.15886 188.463273 
L 279.805513 188.519721 
L 282.452167 188.348407 
L 285.09882 188.328032 
L 287.745473 188.112866 
L 293.03878 187.493274 
L 295.685433 187.347267 
L 298.332087 186.93886 
L 300.97874 187.082644 
L 303.625393 186.88093 
L 306.272047 187.206979 
L 308.9187 187.153495 
L 316.85866 186.443951 
L 319.505313 186.608666 
L 322.151967 185.972173 
L 324.79862 186.240871 
L 327.445273 186.201348 
L 330.091927 186.359603 
L 332.73858 186.143533 
L 338.031887 186.485582 
L 348.6185 185.577496 
L 351.265153 185.481339 
L 356.55846 185.838715 
L 364.49842 185.472749 
L 367.145073 185.170872 
L 369.791727 185.150682 
L 375.085033 184.609512 
L 377.731687 184.900136 
L 380.37834 185.074483 
L 383.024993 184.903169 
L 385.671647 184.350284 
L 388.3183 184.508956 
L 396.25826 184.209533 
L 398.904913 183.854217 
L 401.551567 184.124929 
L 406.844873 183.648427 
L 409.491527 183.765562 
L 412.13818 183.694295 
L 414.784833 183.253889 
L 420.07814 183.121474 
L 422.724793 183.283827 
L 435.95806 182.517557 
L 438.604713 182.922607 
L 443.89802 182.750992 
L 446.544673 182.519942 
L 449.191327 183.020617 
L 462.424593 182.109475 
L 470.364553 182.21061 
L 473.011207 181.916721 
L 475.65786 181.830635 
L 478.304513 181.56423 
L 480.951167 181.98294 
L 483.59782 181.896183 
L 486.244473 181.534639 
L 491.53778 181.664439 
L 494.184433 181.535797 
L 496.831087 181.240982 
L 499.47774 181.107478 
L 502.124393 181.289813 
L 504.771047 181.069228 
L 507.4177 181.001133 
L 510.064353 180.74378 
L 512.711007 180.995623 
L 518.004313 180.471031 
L 520.650967 180.356142 
L 525.944273 180.500922 
L 528.590927 180.398838 
L 531.23758 180.497171 
L 539.17754 180.284968 
L 541.824193 180.132478 
L 544.470847 180.268668 
L 549.764153 179.223026 
L 552.410807 179.468918 
L 555.05746 179.028096 
L 557.704113 179.017075 
L 568.290727 179.376604 
L 570.93738 179.266555 
L 573.584033 179.284198 
L 576.230687 179.637592 
L 578.87734 179.318141 
L 581.523993 179.287926 
L 584.170647 178.943539 
L 586.8173 178.870582 
L 589.463953 178.486463 
L 594.75726 178.523184 
L 597.403913 178.561527 
L 600.050567 178.332537 
L 605.343873 178.214801 
L 607.990527 178.31244 
L 613.283833 178.344554 
L 615.930487 178.723186 
L 618.57714 178.647334 
L 621.223793 178.318993 
L 623.870447 178.506305 
L 639.750367 177.973262 
L 642.39702 178.127304 
L 645.043673 177.909659 
L 647.690327 178.049044 
L 650.33698 177.898013 
L 652.983633 177.997296 
L 658.27694 177.659646 
L 663.570247 177.577312 
L 666.2169 178.05129 
L 668.863553 177.734271 
L 674.15686 178.21971 
L 682.09682 178.090837 
L 684.743473 178.154046 
L 687.390127 178.032026 
L 690.03678 177.77736 
L 692.683433 177.664231 
L 695.330087 177.192429 
L 703.270047 177.22114 
L 708.563353 177.826492 
L 711.210007 177.695187 
L 713.85666 177.763027 
L 716.503313 177.521882 
L 719.149967 177.461914 
L 721.79662 177.539757 
L 727.089927 177.282034 
L 735.029887 177.429221 
L 742.969847 177.214865 
L 745.6165 176.882471 
L 748.263153 176.905926 
L 750.909807 176.710139 
L 753.55646 176.397727 
L 756.203113 176.647508 
L 758.849767 176.398885 
L 761.49642 176.300667 
L 766.789727 176.605577 
L 769.43638 176.660335 
L 774.729687 176.458459 
L 777.37634 176.207682 
L 780.022993 176.274526 
L 782.669647 176.002332 
L 785.3163 176.141972 
L 793.25626 175.740511 
L 795.902913 176.062624 
L 798.549567 175.803211 
L 801.19622 175.758455 
L 803.842873 175.510248 
L 806.489527 175.698302 
L 809.13618 175.439537 
L 811.782833 175.709717 
L 817.07614 175.438032 
L 819.722793 175.860377 
L 822.369447 175.79043 
L 825.0161 175.513026 
L 827.662753 175.073478 
L 830.309407 175.667994 
L 832.95606 175.600593 
L 835.602713 175.736089 
L 838.249367 175.727035 
L 840.89602 175.98154 
L 843.542673 175.773597 
L 843.542673 175.773597 
" clip-path="url(#pfd1e85fc60)" style="fill: none; stroke: #0000ff; stroke-width: 1.5; stroke-linecap: square"/>
   </g>
   <g id="patch_3">
    <path d="M 50.87 390.04 
L 50.87 43.44 
" style="fill: none; stroke: #000000; stroke-width: 0.8; stroke-linejoin: miter; stroke-linecap: square"/>
   </g>
   <g id="patch_4">
    <path d="M 844.866 390.04 
L 844.866 43.44 
" style="fill: none; stroke: #000000; stroke-width: 0.8; stroke-linejoin: miter; stroke-linecap: square"/>
   </g>
   <g id="patch_5">
    <path d="M 50.87 390.04 
L 844.866 390.04 
" style="fill: none; stroke: #000000; stroke-width: 0.8; stroke-linejoin: miter; stroke-linecap: square"/>
   </g>
   <g id="patch_6">
    <path d="M 50.87 43.44 
L 844.866 43.44 
" style="fill: none; stroke: #000000; stroke-width: 0.8; stroke-linejoin: miter; stroke-linecap: square"/>
   </g>
   <g id="text_15">
    <!-- Mean profit per step with confidence interval per simulation step -->
    <g transform="translate(220.284875 21.763062) scale(0.14 -0.14)">
     <defs>
      <path id="DejaVuSans-4d" d="M 628 4666 
L 1569 4666 
L 2759 1491 
L 3956 4666 
L 4897 4666 
L 4897 0 
L 4281 0 
L 4281 4097 
L 3078 897 
L 2444 897 
L 1241 4097 
L 1241 0 
L 628 0 
L 628 4666 
z
" transform="scale(0.015625)"/>
      <path id="DejaVuSans-61" d="M 2194 1759 
Q 1497 1759 1228 1600 
Q 959 1441 959 1056 
Q 959 750 1161 570 
Q 1363 391 1709 391 
Q 2188 391 2477 730 
Q 2766 1069 2766 1631 
L 2766 1759 
L 2194 1759 
z
M 3341 1997 
L 3341 0 
L 2766 0 
L 2766 531 
Q 2569 213 2275 61 
Q 1981 -91 1556 -91 
Q 1019 -91 701 211 
Q 384 513 384 1019 
Q 384 1609 779 1909 
Q 1175 2209 1959 2209 
L 2766 2209 
L 2766 2266 
Q 2766 2663 2505 2880 
Q 2244 3097 1772 3097 
Q 1472 3097 1187 3025 
Q 903 2953 641 2809 
L 641 3341 
Q 956 3463 1253 3523 
Q 1550 3584 1831 3584 
Q 2591 3584 2966 3190 
Q 3341 2797 3341 1997 
z
" transform="scale(0.015625)"/>
      <path id="DejaVuSans-6e" d="M 3513 2113 
L 3513 0 
L 2938 0 
L 2938 2094 
Q 2938 2591 2744 2837 
Q 2550 3084 2163 3084 
Q 1697 3084 1428 2787 
Q 1159 2491 1159 1978 
L 1159 0 
L 581 0 
L 581 3500 
L 1159 3500 
L 1159 2956 
Q 1366 3272 1645 3428 
Q 1925 3584 2291 3584 
Q 2894 3584 3203 3211 
Q 3513 2838 3513 2113 
z
" transform="scale(0.015625)"/>
      <path id="DejaVuSans-20" transform="scale(0.015625)"/>
      <path id="DejaVuSans-73" d="M 2834 3397 
L 2834 2853 
Q 2591 2978 2328 3040 
Q 2066 3103 1784 3103 
Q 1356 3103 1142 2972 
Q 928 2841 928 2578 
Q 928 2378 1081 2264 
Q 1234 2150 1697 2047 
L 1894 2003 
Q 2506 1872 2764 1633 
Q 3022 1394 3022 966 
Q 3022 478 2636 193 
Q 2250 -91 1575 -91 
Q 1294 -91 989 -36 
Q 684 19 347 128 
L 347 722 
Q 666 556 975 473 
Q 1284 391 1588 391 
Q 1994 391 2212 530 
Q 2431 669 2431 922 
Q 2431 1156 2273 1281 
Q 2116 1406 1581 1522 
L 1381 1569 
Q 847 1681 609 1914 
Q 372 2147 372 2553 
Q 372 3047 722 3315 
Q 1072 3584 1716 3584 
Q 2034 3584 2315 3537 
Q 2597 3491 2834 3397 
z
" transform="scale(0.015625)"/>
      <path id="DejaVuSans-77" d="M 269 3500 
L 844 3500 
L 1563 769 
L 2278 3500 
L 2956 3500 
L 3675 769 
L 4391 3500 
L 4966 3500 
L 4050 0 
L 3372 0 
L 2619 2869 
L 1863 0 
L 1184 0 
L 269 3500 
z
" transform="scale(0.015625)"/>
      <path id="DejaVuSans-68" d="M 3513 2113 
L 3513 0 
L 2938 0 
L 2938 2094 
Q 2938 2591 2744 2837 
Q 2550 3084 2163 3084 
Q 1697 3084 1428 2787 
Q 1159 2491 1159 1978 
L 1159 0 
L 581 0 
L 581 4863 
L 1159 4863 
L 1159 2956 
Q 1366 3272 1645 3428 
Q 1925 3584 2291 3584 
Q 2894 3584 3203 3211 
Q 3513 2838 3513 2113 
z
" transform="scale(0.015625)"/>
      <path id="DejaVuSans-63" d="M 3122 3366 
L 3122 2828 
Q 2878 2963 2633 3030 
Q 2388 3097 2138 3097 
Q 1578 3097 1268 2742 
Q 959 2388 959 1747 
Q 959 1106 1268 751 
Q 1578 397 2138 397 
Q 2388 397 2633 464 
Q 2878 531 3122 666 
L 3122 134 
Q 2881 22 2623 -34 
Q 2366 -91 2075 -91 
Q 1284 -91 818 406 
Q 353 903 353 1747 
Q 353 2603 823 3093 
Q 1294 3584 2113 3584 
Q 2378 3584 2631 3529 
Q 2884 3475 3122 3366 
z
" transform="scale(0.015625)"/>
      <path id="DejaVuSans-64" d="M 2906 2969 
L 2906 4863 
L 3481 4863 
L 3481 0 
L 2906 0 
L 2906 525 
Q 2725 213 2448 61 
Q 2172 -91 1784 -91 
Q 1150 -91 751 415 
Q 353 922 353 1747 
Q 353 2572 751 3078 
Q 1150 3584 1784 3584 
Q 2172 3584 2448 3432 
Q 2725 3281 2906 2969 
z
M 947 1747 
Q 947 1113 1208 752 
Q 1469 391 1925 391 
Q 2381 391 2643 752 
Q 2906 1113 2906 1747 
Q 2906 2381 2643 2742 
Q 2381 3103 1925 3103 
Q 1469 3103 1208 2742 
Q 947 2381 947 1747 
z
" transform="scale(0.015625)"/>
      <path id="DejaVuSans-76" d="M 191 3500 
L 800 3500 
L 1894 563 
L 2988 3500 
L 3597 3500 
L 2284 0 
L 1503 0 
L 191 3500 
z
" transform="scale(0.015625)"/>
      <path id="DejaVuSans-6c" d="M 603 4863 
L 1178 4863 
L 1178 0 
L 603 0 
L 603 4863 
z
" transform="scale(0.015625)"/>
      <path id="DejaVuSans-6d" d="M 3328 2828 
Q 3544 3216 3844 3400 
Q 4144 3584 4550 3584 
Q 5097 3584 5394 3201 
Q 5691 2819 5691 2113 
L 5691 0 
L 5113 0 
L 5113 2094 
Q 5113 2597 4934 2840 
Q 4756 3084 4391 3084 
Q 3944 3084 3684 2787 
Q 3425 2491 3425 1978 
L 3425 0 
L 2847 0 
L 2847 2094 
Q 2847 2600 2669 2842 
Q 2491 3084 2119 3084 
Q 1678 3084 1418 2786 
Q 1159 2488 1159 1978 
L 1159 0 
L 581 0 
L 581 3500 
L 1159 3500 
L 1159 2956 
Q 1356 3278 1631 3431 
Q 1906 3584 2284 3584 
Q 2666 3584 2933 3390 
Q 3200 3197 3328 2828 
z
" transform="scale(0.015625)"/>
      <path id="DejaVuSans-75" d="M 544 1381 
L 544 3500 
L 1119 3500 
L 1119 1403 
Q 1119 906 1312 657 
Q 1506 409 1894 409 
Q 2359 409 2629 706 
Q 2900 1003 2900 1516 
L 2900 3500 
L 3475 3500 
L 3475 0 
L 2900 0 
L 2900 538 
Q 2691 219 2414 64 
Q 2138 -91 1772 -91 
Q 1169 -91 856 284 
Q 544 659 544 1381 
z
M 1991 3584 
L 1991 3584 
z
" transform="scale(0.015625)"/>
     </defs>
     <use xlink:href="#DejaVuSans-4d"/>
     <use xlink:href="#DejaVuSans-65" transform="translate(86.279297 0)"/>
     <use xlink:href="#DejaVuSans-61" transform="translate(147.802734 0)"/>
     <use xlink:href="#DejaVuSans-6e" transform="translate(209.082031 0)"/>
     <use xlink:href="#DejaVuSans-20" transform="translate(272.460938 0)"/>
     <use xlink:href="#DejaVuSans-70" transform="translate(304.248047 0)"/>
     <use xlink:href="#DejaVuSans-72" transform="translate(367.724609 0)"/>
     <use xlink:href="#DejaVuSans-6f" transform="translate(406.587891 0)"/>
     <use xlink:href="#DejaVuSans-66" transform="translate(467.769531 0)"/>
     <use xlink:href="#DejaVuSans-69" transform="translate(502.974609 0)"/>
     <use xlink:href="#DejaVuSans-74" transform="translate(530.757812 0)"/>
     <use xlink:href="#DejaVuSans-20" transform="translate(569.966797 0)"/>
     <use xlink:href="#DejaVuSans-70" transform="translate(601.753906 0)"/>
     <use xlink:href="#DejaVuSans-65" transform="translate(665.230469 0)"/>
     <use xlink:href="#DejaVuSans-72" transform="translate(726.753906 0)"/>
     <use xlink:href="#DejaVuSans-20" transform="translate(767.867188 0)"/>
     <use xlink:href="#DejaVuSans-73" transform="translate(799.654297 0)"/>
     <use xlink:href="#DejaVuSans-74" transform="translate(851.753906 0)"/>
     <use xlink:href="#DejaVuSans-65" transform="translate(890.962891 0)"/>
     <use xlink:href="#DejaVuSans-70" transform="translate(952.486328 0)"/>
     <use xlink:href="#DejaVuSans-20" transform="translate(1015.962891 0)"/>
     <use xlink:href="#DejaVuSans-77" transform="translate(1047.75 0)"/>
     <use xlink:href="#DejaVuSans-69" transform="translate(1129.537109 0)"/>
     <use xlink:href="#DejaVuSans-74" transform="translate(1157.320312 0)"/>
     <use xlink:href="#DejaVuSans-68" transform="translate(1196.529297 0)"/>
     <use xlink:href="#DejaVuSans-20" transform="translate(1259.908203 0)"/>
     <use xlink:href="#DejaVuSans-63" transform="translate(1291.695312 0)"/>
     <use xlink:href="#DejaVuSans-6f" transform="translate(1346.675781 0)"/>
     <use xlink:href="#DejaVuSans-6e" transform="translate(1407.857422 0)"/>
     <use xlink:href="#DejaVuSans-66" transform="translate(1471.236328 0)"/>
     <use xlink:href="#DejaVuSans-69" transform="translate(1506.441406 0)"/>
     <use xlink:href="#DejaVuSans-64" transform="translate(1534.224609 0)"/>
     <use xlink:href="#DejaVuSans-65" transform="translate(1597.701172 0)"/>
     <use xlink:href="#DejaVuSans-6e" transform="translate(1659.224609 0)"/>
     <use xlink:href="#DejaVuSans-63" transform="translate(1722.603516 0)"/>
     <use xlink:href="#DejaVuSans-65" transform="translate(1777.583984 0)"/>
     <use xlink:href="#DejaVuSans-20" transform="translate(1839.107422 0)"/>
     <use xlink:href="#DejaVuSans-69" transform="translate(1870.894531 0)"/>
     <use xlink:href="#DejaVuSans-6e" transform="translate(1898.677734 0)"/>
     <use xlink:href="#DejaVuSans-74" transform="translate(1962.056641 0)"/>
     <use xlink:href="#DejaVuSans-65" transform="translate(2001.265625 0)"/>
     <use xlink:href="#DejaVuSans-72" transform="translate(2062.789062 0)"/>
     <use xlink:href="#DejaVuSans-76" transform="translate(2103.902344 0)"/>
     <use xlink:href="#DejaVuSans-61" transform="translate(2163.082031 0)"/>
     <use xlink:href="#DejaVuSans-6c" transform="translate(2224.361328 0)"/>
     <use xlink:href="#DejaVuSans-20" transform="translate(2252.144531 0)"/>
     <use xlink:href="#DejaVuSans-70" transform="translate(2283.931641 0)"/>
     <use xlink:href="#DejaVuSans-65" transform="translate(2347.408203 0)"/>
     <use xlink:href="#DejaVuSans-72" transform="translate(2408.931641 0)"/>
     <use xlink:href="#DejaVuSans-20" transform="translate(2450.044922 0)"/>
     <use xlink:href="#DejaVuSans-73" transform="translate(2481.832031 0)"/>
     <use xlink:href="#DejaVuSans-69" transform="translate(2533.931641 0)"/>
     <use xlink:href="#DejaVuSans-6d" transform="translate(2561.714844 0)"/>
     <use xlink:href="#DejaVuSans-75" transform="translate(2659.126953 0)"/>
     <use xlink:href="#DejaVuSans-6c" transform="translate(2722.505859 0)"/>
     <use xlink:href="#DejaVuSans-61" transform="translate(2750.289062 0)"/>
     <use xlink:href="#DejaVuSans-74" transform="translate(2811.568359 0)"/>
     <use xlink:href="#DejaVuSans-69" transform="translate(2850.777344 0)"/>
     <use xlink:href="#DejaVuSans-6f" transform="translate(2878.560547 0)"/>
     <use xlink:href="#DejaVuSans-6e" transform="translate(2939.742188 0)"/>
     <use xlink:href="#DejaVuSans-20" transform="translate(3003.121094 0)"/>
     <use xlink:href="#DejaVuSans-73" transform="translate(3034.908203 0)"/>
     <use xlink:href="#DejaVuSans-74" transform="translate(3087.007812 0)"/>
     <use xlink:href="#DejaVuSans-65" transform="translate(3126.216797 0)"/>
     <use xlink:href="#DejaVuSans-70" transform="translate(3187.740234 0)"/>
    </g>
    <!-- Base Product: OG Kush, Recipe size: 9, T0: 50.0 -->
    <g transform="translate(281.490031 37.44) scale(0.14 -0.14)">
     <defs>
      <path id="DejaVuSans-42" d="M 1259 2228 
L 1259 519 
L 2272 519 
Q 2781 519 3026 730 
Q 3272 941 3272 1375 
Q 3272 1813 3026 2020 
Q 2781 2228 2272 2228 
L 1259 2228 
z
M 1259 4147 
L 1259 2741 
L 2194 2741 
Q 2656 2741 2882 2914 
Q 3109 3088 3109 3444 
Q 3109 3797 2882 3972 
Q 2656 4147 2194 4147 
L 1259 4147 
z
M 628 4666 
L 2241 4666 
Q 2963 4666 3353 4366 
Q 3744 4066 3744 3513 
Q 3744 3084 3544 2831 
Q 3344 2578 2956 2516 
Q 3422 2416 3680 2098 
Q 3938 1781 3938 1306 
Q 3938 681 3513 340 
Q 3088 0 2303 0 
L 628 0 
L 628 4666 
z
" transform="scale(0.015625)"/>
      <path id="DejaVuSans-3a" d="M 750 794 
L 1409 794 
L 1409 0 
L 750 0 
L 750 794 
z
M 750 3309 
L 1409 3309 
L 1409 2516 
L 750 2516 
L 750 3309 
z
" transform="scale(0.015625)"/>
      <path id="DejaVuSans-4f" d="M 2522 4238 
Q 1834 4238 1429 3725 
Q 1025 3213 1025 2328 
Q 1025 1447 1429 934 
Q 1834 422 2522 422 
Q 3209 422 3611 934 
Q 4013 1447 4013 2328 
Q 4013 3213 3611 3725 
Q 3209 4238 2522 4238 
z
M 2522 4750 
Q 3503 4750 4090 4092 
Q 4678 3434 4678 2328 
Q 4678 1225 4090 567 
Q 3503 -91 2522 -91 
Q 1538 -91 948 565 
Q 359 1222 359 2328 
Q 359 3434 948 4092 
Q 1538 4750 2522 4750 
z
" transform="scale(0.015625)"/>
      <path id="DejaVuSans-47" d="M 3809 666 
L 3809 1919 
L 2778 1919 
L 2778 2438 
L 4434 2438 
L 4434 434 
Q 4069 175 3628 42 
Q 3188 -91 2688 -91 
Q 1594 -91 976 548 
Q 359 1188 359 2328 
Q 359 3472 976 4111 
Q 1594 4750 2688 4750 
Q 3144 4750 3555 4637 
Q 3966 4525 4313 4306 
L 4313 3634 
Q 3963 3931 3569 4081 
Q 3175 4231 2741 4231 
Q 1884 4231 1454 3753 
Q 1025 3275 1025 2328 
Q 1025 1384 1454 906 
Q 1884 428 2741 428 
Q 3075 428 3337 486 
Q 3600 544 3809 666 
z
" transform="scale(0.015625)"/>
      <path id="DejaVuSans-4b" d="M 628 4666 
L 1259 4666 
L 1259 2694 
L 3353 4666 
L 4166 4666 
L 1850 2491 
L 4331 0 
L 3500 0 
L 1259 2247 
L 1259 0 
L 628 0 
L 628 4666 
z
" transform="scale(0.015625)"/>
      <path id="DejaVuSans-2c" d="M 750 794 
L 1409 794 
L 1409 256 
L 897 -744 
L 494 -744 
L 750 256 
L 750 794 
z
" transform="scale(0.015625)"/>
      <path id="DejaVuSans-52" d="M 2841 2188 
Q 3044 2119 3236 1894 
Q 3428 1669 3622 1275 
L 4263 0 
L 3584 0 
L 2988 1197 
Q 2756 1666 2539 1819 
Q 2322 1972 1947 1972 
L 1259 1972 
L 1259 0 
L 628 0 
L 628 4666 
L 2053 4666 
Q 2853 4666 3247 4331 
Q 3641 3997 3641 3322 
Q 3641 2881 3436 2590 
Q 3231 2300 2841 2188 
z
M 1259 4147 
L 1259 2491 
L 2053 2491 
Q 2509 2491 2742 2702 
Q 2975 2913 2975 3322 
Q 2975 3731 2742 3939 
Q 2509 4147 2053 4147 
L 1259 4147 
z
" transform="scale(0.015625)"/>
      <path id="DejaVuSans-7a" d="M 353 3500 
L 3084 3500 
L 3084 2975 
L 922 459 
L 3084 459 
L 3084 0 
L 275 0 
L 275 525 
L 2438 3041 
L 353 3041 
L 353 3500 
z
" transform="scale(0.015625)"/>
      <path id="DejaVuSans-39" d="M 703 97 
L 703 672 
Q 941 559 1184 500 
Q 1428 441 1663 441 
Q 2288 441 2617 861 
Q 2947 1281 2994 2138 
Q 2813 1869 2534 1725 
Q 2256 1581 1919 1581 
Q 1219 1581 811 2004 
Q 403 2428 403 3163 
Q 403 3881 828 4315 
Q 1253 4750 1959 4750 
Q 2769 4750 3195 4129 
Q 3622 3509 3622 2328 
Q 3622 1225 3098 567 
Q 2575 -91 1691 -91 
Q 1453 -91 1209 -44 
Q 966 3 703 97 
z
M 1959 2075 
Q 2384 2075 2632 2365 
Q 2881 2656 2881 3163 
Q 2881 3666 2632 3958 
Q 2384 4250 1959 4250 
Q 1534 4250 1286 3958 
Q 1038 3666 1038 3163 
Q 1038 2656 1286 2365 
Q 1534 2075 1959 2075 
z
" transform="scale(0.015625)"/>
      <path id="DejaVuSans-54" d="M -19 4666 
L 3928 4666 
L 3928 4134 
L 2272 4134 
L 2272 0 
L 1638 0 
L 1638 4134 
L -19 4134 
L -19 4666 
z
" transform="scale(0.015625)"/>
      <path id="DejaVuSans-2e" d="M 684 794 
L 1344 794 
L 1344 0 
L 684 0 
L 684 794 
z
" transform="scale(0.015625)"/>
     </defs>
     <use xlink:href="#DejaVuSans-42"/>
     <use xlink:href="#DejaVuSans-61" transform="translate(68.603516 0)"/>
     <use xlink:href="#DejaVuSans-73" transform="translate(129.882812 0)"/>
     <use xlink:href="#DejaVuSans-65" transform="translate(181.982422 0)"/>
     <use xlink:href="#DejaVuSans-20" transform="translate(243.505859 0)"/>
     <use xlink:href="#DejaVuSans-50" transform="translate(275.292969 0)"/>
     <use xlink:href="#DejaVuSans-72" transform="translate(333.845703 0)"/>
     <use xlink:href="#DejaVuSans-6f" transform="translate(372.708984 0)"/>
     <use xlink:href="#DejaVuSans-64" transform="translate(433.890625 0)"/>
     <use xlink:href="#DejaVuSans-75" transform="translate(497.367188 0)"/>
     <use xlink:href="#DejaVuSans-63" transform="translate(560.746094 0)"/>
     <use xlink:href="#DejaVuSans-74" transform="translate(615.726562 0)"/>
     <use xlink:href="#DejaVuSans-3a" transform="translate(654.935547 0)"/>
     <use xlink:href="#DejaVuSans-20" transform="translate(688.626953 0)"/>
     <use xlink:href="#DejaVuSans-4f" transform="translate(720.414062 0)"/>
     <use xlink:href="#DejaVuSans-47" transform="translate(799.125 0)"/>
     <use xlink:href="#DejaVuSans-20" transform="translate(876.615234 0)"/>
     <use xlink:href="#DejaVuSans-4b" transform="translate(908.402344 0)"/>
     <use xlink:href="#DejaVuSans-75" transform="translate(968.978516 0)"/>
     <use xlink:href="#DejaVuSans-73" transform="translate(1032.357422 0)"/>
     <use xlink:href="#DejaVuSans-68" transform="translate(1084.457031 0)"/>
     <use xlink:href="#DejaVuSans-2c" transform="translate(1147.835938 0)"/>
     <use xlink:href="#DejaVuSans-20" transform="translate(1179.623047 0)"/>
     <use xlink:href="#DejaVuSans-52" transform="translate(1211.410156 0)"/>
     <use xlink:href="#DejaVuSans-65" transform="translate(1276.392578 0)"/>
     <use xlink:href="#DejaVuSans-63" transform="translate(1337.916016 0)"/>
     <use xlink:href="#DejaVuSans-69" transform="translate(1392.896484 0)"/>
     <use xlink:href="#DejaVuSans-70" transform="translate(1420.679688 0)"/>
     <use xlink:href="#DejaVuSans-65" transform="translate(1484.15625 0)"/>
     <use xlink:href="#DejaVuSans-20" transform="translate(1545.679688 0)"/>
     <use xlink:href="#DejaVuSans-73" transform="translate(1577.466797 0)"/>
     <use xlink:href="#DejaVuSans-69" transform="translate(1629.566406 0)"/>
     <use xlink:href="#DejaVuSans-7a" transform="translate(1657.349609 0)"/>
     <use xlink:href="#DejaVuSans-65" transform="translate(1709.839844 0)"/>
     <use xlink:href="#DejaVuSans-3a" transform="translate(1771.363281 0)"/>
     <use xlink:href="#DejaVuSans-20" transform="translate(1805.054688 0)"/>
     <use xlink:href="#DejaVuSans-39" transform="translate(1836.841797 0)"/>
     <use xlink:href="#DejaVuSans-2c" transform="translate(1900.464844 0)"/>
     <use xlink:href="#DejaVuSans-20" transform="translate(1932.251953 0)"/>
     <use xlink:href="#DejaVuSans-54" transform="translate(1964.039062 0)"/>
     <use xlink:href="#DejaVuSans-30" transform="translate(2025.123047 0)"/>
     <use xlink:href="#DejaVuSans-3a" transform="translate(2088.746094 0)"/>
     <use xlink:href="#DejaVuSans-20" transform="translate(2122.4375 0)"/>
     <use xlink:href="#DejaVuSans-35" transform="translate(2154.224609 0)"/>
     <use xlink:href="#DejaVuSans-30" transform="translate(2217.847656 0)"/>
     <use xlink:href="#DejaVuSans-2e" transform="translate(2281.470703 0)"/>
     <use xlink:href="#DejaVuSans-30" transform="translate(2313.257812 0)"/>
    </g>
   </g>
  </g>
 </g>
 <defs>
  <clipPath id="pfd1e85fc60">
   <rect x="50.87" y="43.44" width="793.996" height="346.6"/>
  </clipPath>
 </defs>
</svg>
