<?xml version="1.0" encoding="utf-8" standalone="no"?>
<!DOCTYPE svg PUBLIC "-//W3C//DTD SVG 1.1//EN"
  "http://www.w3.org/Graphics/SVG/1.1/DTD/svg11.dtd">
<svg xmlns:xlink="http://www.w3.org/1999/xlink" width="864pt" height="432pt" viewBox="0 0 864 432" xmlns="http://www.w3.org/2000/svg" version="1.1">
 <metadata>
  <rdf:RDF xmlns:dc="http://purl.org/dc/elements/1.1/" xmlns:cc="http://creativecommons.org/ns#" xmlns:rdf="http://www.w3.org/1999/02/22-rdf-syntax-ns#">
   <cc:Work>
    <dc:type rdf:resource="http://purl.org/dc/dcmitype/StillImage"/>
    <dc:date>2025-05-24T02:02:14.717085</dc:date>
    <dc:format>image/svg+xml</dc:format>
    <dc:creator>
     <cc:Agent>
      <dc:title>Matplotlib v3.10.3, https://matplotlib.org/</dc:title>
     </cc:Agent>
    </dc:creator>
   </cc:Work>
  </rdf:RDF>
 </metadata>
 <defs>
  <style type="text/css">*{stroke-linejoin: round; stroke-linecap: butt}</style>
 </defs>
 <g id="figure_1">
  <g id="patch_1">
   <path d="M 0 432 
L 864 432 
L 864 0 
L 0 0 
z
" style="fill: #ffffff"/>
  </g>
  <g id="axes_1">
   <g id="patch_2">
    <path d="M 50.87 390.04 
L 844.866 390.04 
L 844.866 43.44 
L 50.87 43.44 
z
" style="fill: #ffffff"/>
   </g>
   <g id="FillBetweenPolyCollection_1">
    <defs>
     <path id="mbc30dc4daf" d="M 52.193327 -305.115072 
L 52.193327 -58.801078 
L 54.83998 -57.714545 
L 57.486633 -65.455718 
L 60.133287 -73.002684 
L 62.77994 -80.665573 
L 65.426593 -87.324909 
L 68.073247 -92.487958 
L 70.7199 -98.123621 
L 73.366553 -102.858446 
L 76.013207 -106.498319 
L 78.65986 -110.646178 
L 81.306513 -113.922163 
L 83.953167 -118.754224 
L 86.59982 -121.74823 
L 89.246473 -124.518122 
L 91.893127 -126.480861 
L 94.53978 -129.12791 
L 97.186433 -132.210938 
L 99.833087 -134.707045 
L 102.47974 -137.098469 
L 105.126393 -138.540399 
L 107.773047 -141.14492 
L 110.4197 -143.594884 
L 113.066353 -145.130873 
L 115.713007 -146.603072 
L 118.35966 -148.88636 
L 121.006313 -150.183797 
L 123.652967 -150.678263 
L 126.29962 -152.26186 
L 128.946273 -153.270505 
L 131.592927 -154.152081 
L 134.23958 -154.915583 
L 136.886233 -156.519653 
L 139.532887 -157.837637 
L 142.17954 -159.025311 
L 144.826193 -159.836389 
L 147.472847 -160.91521 
L 150.1195 -161.120381 
L 152.766153 -162.245922 
L 155.412807 -163.033384 
L 158.05946 -164.144421 
L 160.706113 -165.567964 
L 163.352767 -165.60094 
L 165.99942 -166.213094 
L 168.646073 -166.263162 
L 171.292727 -166.882151 
L 173.93938 -167.156824 
L 176.586033 -167.803227 
L 179.232687 -168.874721 
L 181.87934 -169.564892 
L 184.525993 -170.589398 
L 187.172647 -172.001828 
L 189.8193 -172.071812 
L 192.465953 -173.358617 
L 195.112607 -174.110921 
L 197.75926 -174.374556 
L 200.405913 -174.880413 
L 203.052567 -175.597345 
L 205.69922 -175.775027 
L 208.345873 -176.444084 
L 210.992527 -176.596716 
L 213.63918 -176.675952 
L 216.285833 -177.051232 
L 218.932487 -177.187521 
L 221.57914 -177.31367 
L 224.225793 -178.50743 
L 226.872447 -179.031834 
L 229.5191 -179.257028 
L 232.165753 -179.763013 
L 234.812407 -179.765559 
L 237.45906 -180.500867 
L 240.105713 -180.34924 
L 242.752367 -180.40133 
L 245.39902 -181.151184 
L 248.045673 -181.297441 
L 250.692327 -181.465754 
L 253.33898 -181.924719 
L 255.985633 -182.302096 
L 258.632287 -183.227536 
L 261.27894 -183.384853 
L 263.925593 -183.747833 
L 266.572247 -184.434003 
L 269.2189 -184.38508 
L 271.865553 -184.947091 
L 274.512207 -185.300658 
L 277.15886 -185.818409 
L 279.805513 -186.234912 
L 282.452167 -186.127481 
L 285.09882 -186.667459 
L 287.745473 -187.058376 
L 290.392127 -187.311936 
L 293.03878 -187.411366 
L 295.685433 -187.787481 
L 298.332087 -188.266362 
L 300.97874 -188.616913 
L 303.625393 -189.362767 
L 306.272047 -189.310186 
L 308.9187 -189.218329 
L 311.565353 -189.319513 
L 314.212007 -189.317673 
L 316.85866 -189.095731 
L 319.505313 -189.356457 
L 322.151967 -189.444271 
L 324.79862 -189.679669 
L 327.445273 -190.296764 
L 330.091927 -191.097617 
L 332.73858 -191.356739 
L 335.385233 -191.61646 
L 338.031887 -191.22798 
L 340.67854 -191.423118 
L 343.325193 -191.647542 
L 345.971847 -192.044343 
L 348.6185 -192.397611 
L 351.265153 -192.24177 
L 353.911807 -192.929138 
L 356.55846 -192.334269 
L 359.205113 -193.09452 
L 361.851767 -193.937173 
L 364.49842 -194.146879 
L 367.145073 -194.249047 
L 369.791727 -194.171308 
L 372.43838 -194.709574 
L 375.085033 -194.429617 
L 377.731687 -194.731245 
L 380.37834 -194.724335 
L 383.024993 -194.745342 
L 385.671647 -195.059099 
L 388.3183 -195.270516 
L 390.964953 -195.550452 
L 393.611607 -195.703662 
L 396.25826 -196.252196 
L 398.904913 -196.836091 
L 401.551567 -196.265288 
L 404.19822 -197.161314 
L 406.844873 -197.27713 
L 409.491527 -198.019048 
L 412.13818 -197.57157 
L 414.784833 -198.051586 
L 417.431487 -198.240627 
L 420.07814 -197.90674 
L 422.724793 -198.224091 
L 425.371447 -198.402693 
L 428.0181 -198.517953 
L 430.664753 -198.677238 
L 433.311407 -198.085278 
L 435.95806 -198.387355 
L 438.604713 -199.071151 
L 441.251367 -199.16181 
L 443.89802 -199.540556 
L 446.544673 -199.919002 
L 449.191327 -199.69246 
L 451.83798 -199.906145 
L 454.484633 -200.123317 
L 457.131287 -200.359891 
L 459.77794 -200.094331 
L 462.424593 -200.430485 
L 465.071247 -200.714036 
L 467.7179 -200.925411 
L 470.364553 -200.653647 
L 473.011207 -200.443983 
L 475.65786 -200.951231 
L 478.304513 -200.635699 
L 480.951167 -201.20171 
L 483.59782 -201.273972 
L 486.244473 -201.7007 
L 488.891127 -201.818656 
L 491.53778 -201.584798 
L 494.184433 -201.295878 
L 496.831087 -201.608116 
L 499.47774 -202.060364 
L 502.124393 -201.779209 
L 504.771047 -202.161634 
L 507.4177 -202.051508 
L 510.064353 -202.767242 
L 512.711007 -202.910676 
L 515.35766 -203.165733 
L 518.004313 -203.525868 
L 520.650967 -203.774699 
L 523.29762 -203.402756 
L 525.944273 -203.499448 
L 528.590927 -203.43401 
L 531.23758 -203.192922 
L 533.884233 -203.327478 
L 536.530887 -203.382755 
L 539.17754 -203.622196 
L 541.824193 -203.861294 
L 544.470847 -203.792776 
L 547.1175 -204.595982 
L 549.764153 -204.615427 
L 552.410807 -204.481791 
L 555.05746 -204.786157 
L 557.704113 -205.03454 
L 560.350767 -205.229293 
L 562.99742 -205.003286 
L 565.644073 -204.937869 
L 568.290727 -205.352361 
L 570.93738 -205.437565 
L 573.584033 -205.673947 
L 576.230687 -205.798256 
L 578.87734 -206.206502 
L 581.523993 -206.082642 
L 584.170647 -206.505819 
L 586.8173 -206.572305 
L 589.463953 -206.550314 
L 592.110607 -207.435387 
L 594.75726 -207.165377 
L 597.403913 -207.802517 
L 600.050567 -208.112958 
L 602.69722 -208.042878 
L 605.343873 -207.866116 
L 607.990527 -208.003046 
L 610.63718 -208.332954 
L 613.283833 -208.266061 
L 615.930487 -208.067201 
L 618.57714 -207.835782 
L 621.223793 -208.096016 
L 623.870447 -208.289785 
L 626.5171 -208.743723 
L 629.163753 -209.616881 
L 631.810407 -209.88533 
L 634.45706 -210.173737 
L 637.103713 -210.177481 
L 639.750367 -209.715156 
L 642.39702 -209.658938 
L 645.043673 -209.78774 
L 647.690327 -209.556278 
L 650.33698 -209.866398 
L 652.983633 -210.398738 
L 655.630287 -210.518427 
L 658.27694 -210.583437 
L 660.923593 -210.957519 
L 663.570247 -210.872828 
L 666.2169 -210.944919 
L 668.863553 -210.539177 
L 671.510207 -210.331375 
L 674.15686 -210.473183 
L 676.803513 -210.706783 
L 679.450167 -210.743407 
L 682.09682 -211.017631 
L 684.743473 -211.207164 
L 687.390127 -211.408078 
L 690.03678 -211.140785 
L 692.683433 -211.460617 
L 695.330087 -211.675414 
L 697.97674 -211.960698 
L 700.623393 -211.906405 
L 703.270047 -211.994455 
L 705.9167 -211.957832 
L 708.563353 -211.864883 
L 711.210007 -212.057476 
L 713.85666 -211.666044 
L 716.503313 -211.312092 
L 719.149967 -212.032212 
L 721.79662 -212.398079 
L 724.443273 -212.827845 
L 727.089927 -212.962764 
L 729.73658 -212.756652 
L 732.383233 -213.319156 
L 735.029887 -213.457498 
L 737.67654 -213.02632 
L 740.323193 -213.229609 
L 742.969847 -213.176235 
L 745.6165 -213.696211 
L 748.263153 -214.282673 
L 750.909807 -214.328281 
L 753.55646 -214.234392 
L 756.203113 -213.689237 
L 758.849767 -214.208101 
L 761.49642 -214.11173 
L 764.143073 -214.007251 
L 766.789727 -214.321693 
L 769.43638 -214.257217 
L 772.083033 -214.145765 
L 774.729687 -214.407154 
L 777.37634 -214.498177 
L 780.022993 -214.540768 
L 782.669647 -214.19302 
L 785.3163 -214.789664 
L 787.962953 -214.782412 
L 790.609607 -215.179341 
L 793.25626 -214.659986 
L 795.902913 -214.70185 
L 798.549567 -214.694919 
L 801.19622 -214.86505 
L 803.842873 -215.143403 
L 806.489527 -215.1578 
L 809.13618 -215.490125 
L 811.782833 -215.495408 
L 814.429487 -215.619974 
L 817.07614 -215.153008 
L 819.722793 -214.892774 
L 822.369447 -214.783418 
L 825.0161 -215.192219 
L 827.662753 -215.334647 
L 830.309407 -215.731127 
L 832.95606 -215.696044 
L 835.602713 -215.451106 
L 838.249367 -215.599331 
L 840.89602 -215.64312 
L 843.542673 -216.177643 
L 843.542673 -372.417232 
L 843.542673 -372.417232 
L 840.89602 -372.736786 
L 838.249367 -372.66739 
L 835.602713 -372.517561 
L 832.95606 -372.361698 
L 830.309407 -372.229838 
L 827.662753 -372.476873 
L 825.0161 -372.628799 
L 822.369447 -372.805455 
L 819.722793 -372.69443 
L 817.07614 -372.429811 
L 814.429487 -371.970225 
L 811.782833 -371.942757 
L 809.13618 -372.024517 
L 806.489527 -372.194841 
L 803.842873 -372.014848 
L 801.19622 -372.053825 
L 798.549567 -372.143928 
L 795.902913 -372.211698 
L 793.25626 -371.999617 
L 790.609607 -371.610839 
L 787.962953 -371.819667 
L 785.3163 -371.696364 
L 782.669647 -372.003425 
L 780.022993 -371.674287 
L 777.37634 -371.75562 
L 774.729687 -371.874046 
L 772.083033 -371.809271 
L 769.43638 -371.71536 
L 766.789727 -371.42798 
L 764.143073 -371.480903 
L 761.49642 -371.357557 
L 758.849767 -371.030345 
L 756.203113 -371.337449 
L 753.55646 -370.843464 
L 750.909807 -370.616538 
L 748.263153 -370.474281 
L 745.6165 -370.796915 
L 742.969847 -370.930701 
L 740.323193 -370.833966 
L 737.67654 -370.889157 
L 735.029887 -370.507224 
L 732.383233 -370.420843 
L 729.73658 -370.603831 
L 727.089927 -370.494175 
L 724.443273 -370.485447 
L 721.79662 -370.534007 
L 719.149967 -370.583936 
L 716.503313 -370.92009 
L 713.85666 -370.747542 
L 711.210007 -370.346314 
L 708.563353 -370.498753 
L 705.9167 -370.244145 
L 703.270047 -370.111044 
L 700.623393 -370.242905 
L 697.97674 -370.145999 
L 695.330087 -370.329243 
L 692.683433 -370.337072 
L 690.03678 -370.409548 
L 687.390127 -370.030482 
L 684.743473 -370.179199 
L 682.09682 -370.028043 
L 679.450167 -370.030182 
L 676.803513 -369.828755 
L 674.15686 -369.966905 
L 671.510207 -369.94055 
L 668.863553 -369.797309 
L 666.2169 -369.548862 
L 663.570247 -369.589892 
L 660.923593 -369.336995 
L 658.27694 -369.662453 
L 655.630287 -369.725132 
L 652.983633 -369.678497 
L 650.33698 -369.908547 
L 647.690327 -370.022438 
L 645.043673 -369.650645 
L 642.39702 -369.47968 
L 639.750367 -369.383801 
L 637.103713 -368.940302 
L 634.45706 -368.770449 
L 631.810407 -368.904663 
L 629.163753 -369.131461 
L 626.5171 -369.900504 
L 623.870447 -370.168589 
L 621.223793 -370.128543 
L 618.57714 -370.221983 
L 615.930487 -369.836499 
L 613.283833 -369.599903 
L 610.63718 -369.272177 
L 607.990527 -369.184556 
L 605.343873 -369.243854 
L 602.69722 -369.142585 
L 600.050567 -369.039218 
L 597.403913 -368.994381 
L 594.75726 -369.390261 
L 592.110607 -368.93782 
L 589.463953 -369.358473 
L 586.8173 -369.197391 
L 584.170647 -369.176812 
L 581.523993 -369.206846 
L 578.87734 -369.204921 
L 576.230687 -369.497393 
L 573.584033 -369.519897 
L 570.93738 -369.352697 
L 568.290727 -369.139076 
L 565.644073 -369.187208 
L 562.99742 -369.125471 
L 560.350767 -368.763261 
L 557.704113 -368.675255 
L 555.05746 -368.534752 
L 552.410807 -368.54425 
L 549.764153 -368.308681 
L 547.1175 -368.202405 
L 544.470847 -368.692368 
L 541.824193 -368.60081 
L 539.17754 -368.742682 
L 536.530887 -368.831502 
L 533.884233 -368.776695 
L 531.23758 -368.921776 
L 528.590927 -368.663104 
L 525.944273 -368.560337 
L 523.29762 -368.596789 
L 520.650967 -368.14362 
L 518.004313 -368.222813 
L 515.35766 -368.460051 
L 512.711007 -368.574712 
L 510.064353 -368.495989 
L 507.4177 -368.827309 
L 504.771047 -368.527136 
L 502.124393 -368.786151 
L 499.47774 -368.554732 
L 496.831087 -368.647659 
L 494.184433 -368.681159 
L 491.53778 -368.312018 
L 488.891127 -368.017664 
L 486.244473 -367.939669 
L 483.59782 -368.112644 
L 480.951167 -367.73422 
L 478.304513 -368.078588 
L 475.65786 -367.848924 
L 473.011207 -367.873054 
L 470.364553 -367.372994 
L 467.7179 -366.974033 
L 465.071247 -367.171481 
L 462.424593 -367.063451 
L 459.77794 -367.052969 
L 457.131287 -366.647976 
L 454.484633 -366.675871 
L 451.83798 -366.552482 
L 449.191327 -366.557145 
L 446.544673 -366.242212 
L 443.89802 -366.230275 
L 441.251367 -366.268567 
L 438.604713 -366.075867 
L 435.95806 -366.298858 
L 433.311407 -366.406417 
L 430.664753 -365.870547 
L 428.0181 -365.813901 
L 425.371447 -365.681484 
L 422.724793 -365.508594 
L 420.07814 -365.52759 
L 417.431487 -364.968959 
L 414.784833 -365.0286 
L 412.13818 -365.074764 
L 409.491527 -364.442629 
L 406.844873 -364.786228 
L 404.19822 -364.637725 
L 401.551567 -364.95792 
L 398.904913 -364.471637 
L 396.25826 -364.828927 
L 393.611607 -365.000662 
L 390.964953 -364.816605 
L 388.3183 -364.662925 
L 385.671647 -364.785501 
L 383.024993 -364.801203 
L 380.37834 -364.59139 
L 377.731687 -364.528625 
L 375.085033 -364.813353 
L 372.43838 -364.264648 
L 369.791727 -364.326642 
L 367.145073 -364.037679 
L 364.49842 -363.911252 
L 361.851767 -363.753935 
L 359.205113 -363.926226 
L 356.55846 -364.120979 
L 353.911807 -363.594949 
L 351.265153 -363.612191 
L 348.6185 -363.307783 
L 345.971847 -363.006754 
L 343.325193 -362.955371 
L 340.67854 -362.898767 
L 338.031887 -362.688955 
L 335.385233 -362.056649 
L 332.73858 -361.743171 
L 330.091927 -361.844184 
L 327.445273 -362.168316 
L 324.79862 -362.341334 
L 322.151967 -362.26381 
L 319.505313 -361.959273 
L 316.85866 -361.994356 
L 314.212007 -361.615417 
L 311.565353 -361.162249 
L 308.9187 -360.823913 
L 306.272047 -360.602249 
L 303.625393 -359.909318 
L 300.97874 -360.328816 
L 298.332087 -359.979484 
L 295.685433 -360.004042 
L 293.03878 -359.769286 
L 290.392127 -359.445496 
L 287.745473 -359.268927 
L 285.09882 -359.144511 
L 282.452167 -359.344569 
L 279.805513 -359.036695 
L 277.15886 -358.995879 
L 274.512207 -358.926441 
L 271.865553 -358.782173 
L 269.2189 -358.878394 
L 266.572247 -358.504847 
L 263.925593 -358.397416 
L 261.27894 -358.203904 
L 258.632287 -357.825607 
L 255.985633 -358.169291 
L 253.33898 -357.951735 
L 250.692327 -357.893505 
L 248.045673 -357.764725 
L 245.39902 -357.39366 
L 242.752367 -357.388354 
L 240.105713 -356.774361 
L 237.45906 -356.496264 
L 234.812407 -356.519282 
L 232.165753 -355.915728 
L 229.5191 -355.911064 
L 226.872447 -355.533966 
L 224.225793 -355.505129 
L 221.57914 -355.776337 
L 218.932487 -355.329715 
L 216.285833 -354.831708 
L 213.63918 -354.554511 
L 210.992527 -354.013186 
L 208.345873 -353.500312 
L 205.69922 -353.242453 
L 203.052567 -352.339453 
L 200.405913 -352.318531 
L 197.75926 -352.004389 
L 195.112607 -351.689756 
L 192.465953 -351.334841 
L 189.8193 -351.756434 
L 187.172647 -351.432859 
L 184.525993 -351.449758 
L 181.87934 -351.389519 
L 179.232687 -350.933227 
L 176.586033 -351.069045 
L 173.93938 -350.668351 
L 171.292727 -350.255014 
L 168.646073 -349.87967 
L 165.99942 -349.144982 
L 163.352767 -348.440928 
L 160.706113 -347.756341 
L 158.05946 -347.893442 
L 155.412807 -347.477902 
L 152.766153 -346.862989 
L 150.1195 -346.733032 
L 147.472847 -345.857992 
L 144.826193 -345.64221 
L 142.17954 -344.911908 
L 139.532887 -344.504711 
L 136.886233 -344.554383 
L 134.23958 -344.536628 
L 131.592927 -343.549878 
L 128.946273 -342.80396 
L 126.29962 -342.133063 
L 123.652967 -341.812696 
L 121.006313 -340.710665 
L 118.35966 -340.072584 
L 115.713007 -340.381741 
L 113.066353 -339.551688 
L 110.4197 -338.881605 
L 107.773047 -338.370186 
L 105.126393 -337.530035 
L 102.47974 -336.193227 
L 99.833087 -335.705018 
L 97.186433 -335.300837 
L 94.53978 -335.02426 
L 91.893127 -333.964371 
L 89.246473 -332.542721 
L 86.59982 -330.999929 
L 83.953167 -329.784178 
L 81.306513 -329.812693 
L 78.65986 -328.209811 
L 76.013207 -326.553747 
L 73.366553 -324.460731 
L 70.7199 -322.778163 
L 68.073247 -320.650277 
L 65.426593 -316.988391 
L 62.77994 -314.208498 
L 60.133287 -311.600747 
L 57.486633 -308.766968 
L 54.83998 -305.52659 
L 52.193327 -305.115072 
z
" style="stroke: #0000ff; stroke-opacity: 0.2"/>
    </defs>
    <g clip-path="url(#pf89c9340cb)">
     <use xlink:href="#mbc30dc4daf" x="0" y="432" style="fill: #0000ff; fill-opacity: 0.2; stroke: #0000ff; stroke-opacity: 0.2"/>
    </g>
   </g>
   <g id="matplotlib.axis_1">
    <g id="xtick_1">
     <g id="line2d_1">
      <defs>
       <path id="m18f40275c0" d="M 0 0 
L 0 3.5 
" style="stroke: #000000; stroke-width: 0.8"/>
      </defs>
      <g>
       <use xlink:href="#m18f40275c0" x="181.87934" y="390.04" style="stroke: #000000; stroke-width: 0.8"/>
      </g>
     </g>
     <g id="text_1">
      <!-- 50 -->
      <g transform="translate(175.51684 404.638438) scale(0.1 -0.1)">
       <defs>
        <path id="DejaVuSans-35" d="M 691 4666 
L 3169 4666 
L 3169 4134 
L 1269 4134 
L 1269 2991 
Q 1406 3038 1543 3061 
Q 1681 3084 1819 3084 
Q 2600 3084 3056 2656 
Q 3513 2228 3513 1497 
Q 3513 744 3044 326 
Q 2575 -91 1722 -91 
Q 1428 -91 1123 -41 
Q 819 9 494 109 
L 494 744 
Q 775 591 1075 516 
Q 1375 441 1709 441 
Q 2250 441 2565 725 
Q 2881 1009 2881 1497 
Q 2881 1984 2565 2268 
Q 2250 2553 1709 2553 
Q 1456 2553 1204 2497 
Q 953 2441 691 2322 
L 691 4666 
z
" transform="scale(0.015625)"/>
        <path id="DejaVuSans-30" d="M 2034 4250 
Q 1547 4250 1301 3770 
Q 1056 3291 1056 2328 
Q 1056 1369 1301 889 
Q 1547 409 2034 409 
Q 2525 409 2770 889 
Q 3016 1369 3016 2328 
Q 3016 3291 2770 3770 
Q 2525 4250 2034 4250 
z
M 2034 4750 
Q 2819 4750 3233 4129 
Q 3647 3509 3647 2328 
Q 3647 1150 3233 529 
Q 2819 -91 2034 -91 
Q 1250 -91 836 529 
Q 422 1150 422 2328 
Q 422 3509 836 4129 
Q 1250 4750 2034 4750 
z
" transform="scale(0.015625)"/>
       </defs>
       <use xlink:href="#DejaVuSans-35"/>
       <use xlink:href="#DejaVuSans-30" transform="translate(63.623047 0)"/>
      </g>
     </g>
    </g>
    <g id="xtick_2">
     <g id="line2d_2">
      <g>
       <use xlink:href="#m18f40275c0" x="314.212007" y="390.04" style="stroke: #000000; stroke-width: 0.8"/>
      </g>
     </g>
     <g id="text_2">
      <!-- 100 -->
      <g transform="translate(304.668257 404.638438) scale(0.1 -0.1)">
       <defs>
        <path id="DejaVuSans-31" d="M 794 531 
L 1825 531 
L 1825 4091 
L 703 3866 
L 703 4441 
L 1819 4666 
L 2450 4666 
L 2450 531 
L 3481 531 
L 3481 0 
L 794 0 
L 794 531 
z
" transform="scale(0.015625)"/>
       </defs>
       <use xlink:href="#DejaVuSans-31"/>
       <use xlink:href="#DejaVuSans-30" transform="translate(63.623047 0)"/>
       <use xlink:href="#DejaVuSans-30" transform="translate(127.246094 0)"/>
      </g>
     </g>
    </g>
    <g id="xtick_3">
     <g id="line2d_3">
      <g>
       <use xlink:href="#m18f40275c0" x="446.544673" y="390.04" style="stroke: #000000; stroke-width: 0.8"/>
      </g>
     </g>
     <g id="text_3">
      <!-- 150 -->
      <g transform="translate(437.000923 404.638438) scale(0.1 -0.1)">
       <use xlink:href="#DejaVuSans-31"/>
       <use xlink:href="#DejaVuSans-35" transform="translate(63.623047 0)"/>
       <use xlink:href="#DejaVuSans-30" transform="translate(127.246094 0)"/>
      </g>
     </g>
    </g>
    <g id="xtick_4">
     <g id="line2d_4">
      <g>
       <use xlink:href="#m18f40275c0" x="578.87734" y="390.04" style="stroke: #000000; stroke-width: 0.8"/>
      </g>
     </g>
     <g id="text_4">
      <!-- 200 -->
      <g transform="translate(569.33359 404.638438) scale(0.1 -0.1)">
       <defs>
        <path id="DejaVuSans-32" d="M 1228 531 
L 3431 531 
L 3431 0 
L 469 0 
L 469 531 
Q 828 903 1448 1529 
Q 2069 2156 2228 2338 
Q 2531 2678 2651 2914 
Q 2772 3150 2772 3378 
Q 2772 3750 2511 3984 
Q 2250 4219 1831 4219 
Q 1534 4219 1204 4116 
Q 875 4013 500 3803 
L 500 4441 
Q 881 4594 1212 4672 
Q 1544 4750 1819 4750 
Q 2544 4750 2975 4387 
Q 3406 4025 3406 3419 
Q 3406 3131 3298 2873 
Q 3191 2616 2906 2266 
Q 2828 2175 2409 1742 
Q 1991 1309 1228 531 
z
" transform="scale(0.015625)"/>
       </defs>
       <use xlink:href="#DejaVuSans-32"/>
       <use xlink:href="#DejaVuSans-30" transform="translate(63.623047 0)"/>
       <use xlink:href="#DejaVuSans-30" transform="translate(127.246094 0)"/>
      </g>
     </g>
    </g>
    <g id="xtick_5">
     <g id="line2d_5">
      <g>
       <use xlink:href="#m18f40275c0" x="711.210007" y="390.04" style="stroke: #000000; stroke-width: 0.8"/>
      </g>
     </g>
     <g id="text_5">
      <!-- 250 -->
      <g transform="translate(701.666257 404.638438) scale(0.1 -0.1)">
       <use xlink:href="#DejaVuSans-32"/>
       <use xlink:href="#DejaVuSans-35" transform="translate(63.623047 0)"/>
       <use xlink:href="#DejaVuSans-30" transform="translate(127.246094 0)"/>
      </g>
     </g>
    </g>
    <g id="xtick_6">
     <g id="line2d_6">
      <g>
       <use xlink:href="#m18f40275c0" x="843.542673" y="390.04" style="stroke: #000000; stroke-width: 0.8"/>
      </g>
     </g>
     <g id="text_6">
      <!-- 300 -->
      <g transform="translate(833.998923 404.638438) scale(0.1 -0.1)">
       <defs>
        <path id="DejaVuSans-33" d="M 2597 2516 
Q 3050 2419 3304 2112 
Q 3559 1806 3559 1356 
Q 3559 666 3084 287 
Q 2609 -91 1734 -91 
Q 1441 -91 1130 -33 
Q 819 25 488 141 
L 488 750 
Q 750 597 1062 519 
Q 1375 441 1716 441 
Q 2309 441 2620 675 
Q 2931 909 2931 1356 
Q 2931 1769 2642 2001 
Q 2353 2234 1838 2234 
L 1294 2234 
L 1294 2753 
L 1863 2753 
Q 2328 2753 2575 2939 
Q 2822 3125 2822 3475 
Q 2822 3834 2567 4026 
Q 2313 4219 1838 4219 
Q 1578 4219 1281 4162 
Q 984 4106 628 3988 
L 628 4550 
Q 988 4650 1302 4700 
Q 1616 4750 1894 4750 
Q 2613 4750 3031 4423 
Q 3450 4097 3450 3541 
Q 3450 3153 3228 2886 
Q 3006 2619 2597 2516 
z
" transform="scale(0.015625)"/>
       </defs>
       <use xlink:href="#DejaVuSans-33"/>
       <use xlink:href="#DejaVuSans-30" transform="translate(63.623047 0)"/>
       <use xlink:href="#DejaVuSans-30" transform="translate(127.246094 0)"/>
      </g>
     </g>
    </g>
    <g id="text_7">
     <!-- Step -->
     <g transform="translate(436.482844 418.316562) scale(0.1 -0.1)">
      <defs>
       <path id="DejaVuSans-53" d="M 3425 4513 
L 3425 3897 
Q 3066 4069 2747 4153 
Q 2428 4238 2131 4238 
Q 1616 4238 1336 4038 
Q 1056 3838 1056 3469 
Q 1056 3159 1242 3001 
Q 1428 2844 1947 2747 
L 2328 2669 
Q 3034 2534 3370 2195 
Q 3706 1856 3706 1288 
Q 3706 609 3251 259 
Q 2797 -91 1919 -91 
Q 1588 -91 1214 -16 
Q 841 59 441 206 
L 441 856 
Q 825 641 1194 531 
Q 1563 422 1919 422 
Q 2459 422 2753 634 
Q 3047 847 3047 1241 
Q 3047 1584 2836 1778 
Q 2625 1972 2144 2069 
L 1759 2144 
Q 1053 2284 737 2584 
Q 422 2884 422 3419 
Q 422 4038 858 4394 
Q 1294 4750 2059 4750 
Q 2388 4750 2728 4690 
Q 3069 4631 3425 4513 
z
" transform="scale(0.015625)"/>
       <path id="DejaVuSans-74" d="M 1172 4494 
L 1172 3500 
L 2356 3500 
L 2356 3053 
L 1172 3053 
L 1172 1153 
Q 1172 725 1289 603 
Q 1406 481 1766 481 
L 2356 481 
L 2356 0 
L 1766 0 
Q 1100 0 847 248 
Q 594 497 594 1153 
L 594 3053 
L 172 3053 
L 172 3500 
L 594 3500 
L 594 4494 
L 1172 4494 
z
" transform="scale(0.015625)"/>
       <path id="DejaVuSans-65" d="M 3597 1894 
L 3597 1613 
L 953 1613 
Q 991 1019 1311 708 
Q 1631 397 2203 397 
Q 2534 397 2845 478 
Q 3156 559 3463 722 
L 3463 178 
Q 3153 47 2828 -22 
Q 2503 -91 2169 -91 
Q 1331 -91 842 396 
Q 353 884 353 1716 
Q 353 2575 817 3079 
Q 1281 3584 2069 3584 
Q 2775 3584 3186 3129 
Q 3597 2675 3597 1894 
z
M 3022 2063 
Q 3016 2534 2758 2815 
Q 2500 3097 2075 3097 
Q 1594 3097 1305 2825 
Q 1016 2553 972 2059 
L 3022 2063 
z
" transform="scale(0.015625)"/>
       <path id="DejaVuSans-70" d="M 1159 525 
L 1159 -1331 
L 581 -1331 
L 581 3500 
L 1159 3500 
L 1159 2969 
Q 1341 3281 1617 3432 
Q 1894 3584 2278 3584 
Q 2916 3584 3314 3078 
Q 3713 2572 3713 1747 
Q 3713 922 3314 415 
Q 2916 -91 2278 -91 
Q 1894 -91 1617 61 
Q 1341 213 1159 525 
z
M 3116 1747 
Q 3116 2381 2855 2742 
Q 2594 3103 2138 3103 
Q 1681 3103 1420 2742 
Q 1159 2381 1159 1747 
Q 1159 1113 1420 752 
Q 1681 391 2138 391 
Q 2594 391 2855 752 
Q 3116 1113 3116 1747 
z
" transform="scale(0.015625)"/>
      </defs>
      <use xlink:href="#DejaVuSans-53"/>
      <use xlink:href="#DejaVuSans-74" transform="translate(63.476562 0)"/>
      <use xlink:href="#DejaVuSans-65" transform="translate(102.685547 0)"/>
      <use xlink:href="#DejaVuSans-70" transform="translate(164.208984 0)"/>
     </g>
    </g>
   </g>
   <g id="matplotlib.axis_2">
    <g id="ytick_1">
     <g id="line2d_7">
      <defs>
       <path id="me426980e63" d="M 0 0 
L -3.5 0 
" style="stroke: #000000; stroke-width: 0.8"/>
      </defs>
      <g>
       <use xlink:href="#me426980e63" x="50.87" y="380.495579" style="stroke: #000000; stroke-width: 0.8"/>
      </g>
     </g>
     <g id="text_8">
      <!-- 20 -->
      <g transform="translate(31.145 384.294798) scale(0.1 -0.1)">
       <use xlink:href="#DejaVuSans-32"/>
       <use xlink:href="#DejaVuSans-30" transform="translate(63.623047 0)"/>
      </g>
     </g>
    </g>
    <g id="ytick_2">
     <g id="line2d_8">
      <g>
       <use xlink:href="#me426980e63" x="50.87" y="324.417683" style="stroke: #000000; stroke-width: 0.8"/>
      </g>
     </g>
     <g id="text_9">
      <!-- 40 -->
      <g transform="translate(31.145 328.216902) scale(0.1 -0.1)">
       <defs>
        <path id="DejaVuSans-34" d="M 2419 4116 
L 825 1625 
L 2419 1625 
L 2419 4116 
z
M 2253 4666 
L 3047 4666 
L 3047 1625 
L 3713 1625 
L 3713 1100 
L 3047 1100 
L 3047 0 
L 2419 0 
L 2419 1100 
L 313 1100 
L 313 1709 
L 2253 4666 
z
" transform="scale(0.015625)"/>
       </defs>
       <use xlink:href="#DejaVuSans-34"/>
       <use xlink:href="#DejaVuSans-30" transform="translate(63.623047 0)"/>
      </g>
     </g>
    </g>
    <g id="ytick_3">
     <g id="line2d_9">
      <g>
       <use xlink:href="#me426980e63" x="50.87" y="268.339787" style="stroke: #000000; stroke-width: 0.8"/>
      </g>
     </g>
     <g id="text_10">
      <!-- 60 -->
      <g transform="translate(31.145 272.139006) scale(0.1 -0.1)">
       <defs>
        <path id="DejaVuSans-36" d="M 2113 2584 
Q 1688 2584 1439 2293 
Q 1191 2003 1191 1497 
Q 1191 994 1439 701 
Q 1688 409 2113 409 
Q 2538 409 2786 701 
Q 3034 994 3034 1497 
Q 3034 2003 2786 2293 
Q 2538 2584 2113 2584 
z
M 3366 4563 
L 3366 3988 
Q 3128 4100 2886 4159 
Q 2644 4219 2406 4219 
Q 1781 4219 1451 3797 
Q 1122 3375 1075 2522 
Q 1259 2794 1537 2939 
Q 1816 3084 2150 3084 
Q 2853 3084 3261 2657 
Q 3669 2231 3669 1497 
Q 3669 778 3244 343 
Q 2819 -91 2113 -91 
Q 1303 -91 875 529 
Q 447 1150 447 2328 
Q 447 3434 972 4092 
Q 1497 4750 2381 4750 
Q 2619 4750 2861 4703 
Q 3103 4656 3366 4563 
z
" transform="scale(0.015625)"/>
       </defs>
       <use xlink:href="#DejaVuSans-36"/>
       <use xlink:href="#DejaVuSans-30" transform="translate(63.623047 0)"/>
      </g>
     </g>
    </g>
    <g id="ytick_4">
     <g id="line2d_10">
      <g>
       <use xlink:href="#me426980e63" x="50.87" y="212.261891" style="stroke: #000000; stroke-width: 0.8"/>
      </g>
     </g>
     <g id="text_11">
      <!-- 80 -->
      <g transform="translate(31.145 216.06111) scale(0.1 -0.1)">
       <defs>
        <path id="DejaVuSans-38" d="M 2034 2216 
Q 1584 2216 1326 1975 
Q 1069 1734 1069 1313 
Q 1069 891 1326 650 
Q 1584 409 2034 409 
Q 2484 409 2743 651 
Q 3003 894 3003 1313 
Q 3003 1734 2745 1975 
Q 2488 2216 2034 2216 
z
M 1403 2484 
Q 997 2584 770 2862 
Q 544 3141 544 3541 
Q 544 4100 942 4425 
Q 1341 4750 2034 4750 
Q 2731 4750 3128 4425 
Q 3525 4100 3525 3541 
Q 3525 3141 3298 2862 
Q 3072 2584 2669 2484 
Q 3125 2378 3379 2068 
Q 3634 1759 3634 1313 
Q 3634 634 3220 271 
Q 2806 -91 2034 -91 
Q 1263 -91 848 271 
Q 434 634 434 1313 
Q 434 1759 690 2068 
Q 947 2378 1403 2484 
z
M 1172 3481 
Q 1172 3119 1398 2916 
Q 1625 2713 2034 2713 
Q 2441 2713 2670 2916 
Q 2900 3119 2900 3481 
Q 2900 3844 2670 4047 
Q 2441 4250 2034 4250 
Q 1625 4250 1398 4047 
Q 1172 3844 1172 3481 
z
" transform="scale(0.015625)"/>
       </defs>
       <use xlink:href="#DejaVuSans-38"/>
       <use xlink:href="#DejaVuSans-30" transform="translate(63.623047 0)"/>
      </g>
     </g>
    </g>
    <g id="ytick_5">
     <g id="line2d_11">
      <g>
       <use xlink:href="#me426980e63" x="50.87" y="156.183995" style="stroke: #000000; stroke-width: 0.8"/>
      </g>
     </g>
     <g id="text_12">
      <!-- 100 -->
      <g transform="translate(24.7825 159.983213) scale(0.1 -0.1)">
       <use xlink:href="#DejaVuSans-31"/>
       <use xlink:href="#DejaVuSans-30" transform="translate(63.623047 0)"/>
       <use xlink:href="#DejaVuSans-30" transform="translate(127.246094 0)"/>
      </g>
     </g>
    </g>
    <g id="ytick_6">
     <g id="line2d_12">
      <g>
       <use xlink:href="#me426980e63" x="50.87" y="100.106099" style="stroke: #000000; stroke-width: 0.8"/>
      </g>
     </g>
     <g id="text_13">
      <!-- 120 -->
      <g transform="translate(24.7825 103.905317) scale(0.1 -0.1)">
       <use xlink:href="#DejaVuSans-31"/>
       <use xlink:href="#DejaVuSans-32" transform="translate(63.623047 0)"/>
       <use xlink:href="#DejaVuSans-30" transform="translate(127.246094 0)"/>
      </g>
     </g>
    </g>
    <g id="ytick_7">
     <g id="line2d_13">
      <g>
       <use xlink:href="#me426980e63" x="50.87" y="44.028202" style="stroke: #000000; stroke-width: 0.8"/>
      </g>
     </g>
     <g id="text_14">
      <!-- 140 -->
      <g transform="translate(24.7825 47.827421) scale(0.1 -0.1)">
       <use xlink:href="#DejaVuSans-31"/>
       <use xlink:href="#DejaVuSans-34" transform="translate(63.623047 0)"/>
       <use xlink:href="#DejaVuSans-30" transform="translate(127.246094 0)"/>
      </g>
     </g>
    </g>
    <g id="text_15">
     <!-- Profit -->
     <g transform="translate(18.702813 229.779063) rotate(-90) scale(0.1 -0.1)">
      <defs>
       <path id="DejaVuSans-50" d="M 1259 4147 
L 1259 2394 
L 2053 2394 
Q 2494 2394 2734 2622 
Q 2975 2850 2975 3272 
Q 2975 3691 2734 3919 
Q 2494 4147 2053 4147 
L 1259 4147 
z
M 628 4666 
L 2053 4666 
Q 2838 4666 3239 4311 
Q 3641 3956 3641 3272 
Q 3641 2581 3239 2228 
Q 2838 1875 2053 1875 
L 1259 1875 
L 1259 0 
L 628 0 
L 628 4666 
z
" transform="scale(0.015625)"/>
       <path id="DejaVuSans-72" d="M 2631 2963 
Q 2534 3019 2420 3045 
Q 2306 3072 2169 3072 
Q 1681 3072 1420 2755 
Q 1159 2438 1159 1844 
L 1159 0 
L 581 0 
L 581 3500 
L 1159 3500 
L 1159 2956 
Q 1341 3275 1631 3429 
Q 1922 3584 2338 3584 
Q 2397 3584 2469 3576 
Q 2541 3569 2628 3553 
L 2631 2963 
z
" transform="scale(0.015625)"/>
       <path id="DejaVuSans-6f" d="M 1959 3097 
Q 1497 3097 1228 2736 
Q 959 2375 959 1747 
Q 959 1119 1226 758 
Q 1494 397 1959 397 
Q 2419 397 2687 759 
Q 2956 1122 2956 1747 
Q 2956 2369 2687 2733 
Q 2419 3097 1959 3097 
z
M 1959 3584 
Q 2709 3584 3137 3096 
Q 3566 2609 3566 1747 
Q 3566 888 3137 398 
Q 2709 -91 1959 -91 
Q 1206 -91 779 398 
Q 353 888 353 1747 
Q 353 2609 779 3096 
Q 1206 3584 1959 3584 
z
" transform="scale(0.015625)"/>
       <path id="DejaVuSans-66" d="M 2375 4863 
L 2375 4384 
L 1825 4384 
Q 1516 4384 1395 4259 
Q 1275 4134 1275 3809 
L 1275 3500 
L 2222 3500 
L 2222 3053 
L 1275 3053 
L 1275 0 
L 697 0 
L 697 3053 
L 147 3053 
L 147 3500 
L 697 3500 
L 697 3744 
Q 697 4328 969 4595 
Q 1241 4863 1831 4863 
L 2375 4863 
z
" transform="scale(0.015625)"/>
       <path id="DejaVuSans-69" d="M 603 3500 
L 1178 3500 
L 1178 0 
L 603 0 
L 603 3500 
z
M 603 4863 
L 1178 4863 
L 1178 4134 
L 603 4134 
L 603 4863 
z
" transform="scale(0.015625)"/>
      </defs>
      <use xlink:href="#DejaVuSans-50"/>
      <use xlink:href="#DejaVuSans-72" transform="translate(58.552734 0)"/>
      <use xlink:href="#DejaVuSans-6f" transform="translate(97.416016 0)"/>
      <use xlink:href="#DejaVuSans-66" transform="translate(158.597656 0)"/>
      <use xlink:href="#DejaVuSans-69" transform="translate(193.802734 0)"/>
      <use xlink:href="#DejaVuSans-74" transform="translate(221.585938 0)"/>
     </g>
    </g>
   </g>
   <g id="line2d_14">
    <path d="M 52.193327 250.04193 
L 54.83998 250.379432 
L 57.486633 244.888657 
L 62.77994 234.562964 
L 65.426593 229.84335 
L 68.073247 225.430882 
L 70.7199 221.549108 
L 73.366553 218.340412 
L 78.65986 212.572011 
L 83.953167 207.730804 
L 89.246473 203.469578 
L 91.893127 201.777384 
L 94.53978 199.923915 
L 97.186433 198.244107 
L 105.126393 193.964783 
L 107.773047 192.242447 
L 110.4197 190.761756 
L 118.35966 187.520523 
L 121.006313 186.552769 
L 123.652967 185.754526 
L 128.946273 183.962773 
L 136.886233 181.462987 
L 139.532887 180.828821 
L 144.826193 179.2607 
L 150.1195 178.073293 
L 155.412807 176.744357 
L 158.05946 175.981068 
L 160.706113 175.337853 
L 163.352767 174.979066 
L 165.99942 174.320962 
L 173.93938 173.087413 
L 184.525993 170.980427 
L 187.172647 170.282662 
L 189.8193 170.085877 
L 192.465953 169.653266 
L 195.112607 169.099662 
L 197.75926 168.810527 
L 205.69922 167.49126 
L 208.345873 167.027802 
L 229.5191 164.415965 
L 234.812407 163.857569 
L 237.45906 163.501435 
L 240.105713 163.4382 
L 248.045673 162.468906 
L 253.33898 162.061773 
L 269.2189 160.368252 
L 282.452167 159.263975 
L 287.745473 158.836348 
L 298.332087 157.877066 
L 300.97874 157.527135 
L 303.625393 157.363957 
L 306.272047 157.043783 
L 308.9187 156.978879 
L 314.212007 156.533455 
L 319.505313 156.342146 
L 340.67854 154.839057 
L 345.971847 154.474451 
L 348.6185 154.147303 
L 351.265153 154.073009 
L 353.911807 153.737967 
L 356.55846 153.772387 
L 364.49842 152.970935 
L 369.791727 152.751025 
L 375.085033 152.378504 
L 380.37834 152.342138 
L 390.964953 151.816472 
L 398.904913 151.346147 
L 401.551567 151.388396 
L 404.19822 151.100481 
L 412.13818 150.676833 
L 414.784833 150.459918 
L 420.07814 150.282835 
L 430.664753 149.726108 
L 433.311407 149.754153 
L 435.95806 149.656904 
L 441.251367 149.284812 
L 449.191327 148.875197 
L 462.424593 148.253032 
L 465.071247 148.057231 
L 470.364553 147.98668 
L 478.304513 147.642867 
L 480.951167 147.532035 
L 486.244473 147.179816 
L 491.53778 147.051592 
L 496.831087 146.872113 
L 499.47774 146.692463 
L 504.771047 146.655625 
L 510.064353 146.368395 
L 518.004313 146.12566 
L 525.944273 145.970097 
L 544.470847 145.757439 
L 549.764153 145.537957 
L 555.05746 145.339546 
L 560.350767 145.003712 
L 568.290727 144.754281 
L 576.230687 144.352176 
L 578.87734 144.294289 
L 581.523993 144.355256 
L 584.170647 144.158685 
L 589.463953 144.045607 
L 592.110607 143.813396 
L 597.403913 143.601551 
L 600.050567 143.423912 
L 607.990527 143.406199 
L 613.283833 143.067029 
L 618.57714 142.971128 
L 637.103713 142.44112 
L 642.39702 142.43068 
L 647.690327 142.210642 
L 658.27694 141.877055 
L 679.450167 141.613206 
L 687.390127 141.280731 
L 692.683433 141.101145 
L 697.97674 140.946652 
L 719.149967 140.691915 
L 727.089927 140.271541 
L 729.73658 140.319758 
L 735.029887 140.017639 
L 740.323193 139.968223 
L 742.969847 139.946532 
L 748.263153 139.621523 
L 753.55646 139.461083 
L 756.203113 139.486668 
L 769.43638 139.013712 
L 772.083033 139.022482 
L 774.729687 138.859389 
L 782.669647 138.901767 
L 787.962953 138.698971 
L 790.609607 138.60491 
L 793.25626 138.670198 
L 795.902913 138.543215 
L 801.19622 138.540563 
L 809.13618 138.242679 
L 811.782833 138.280906 
L 817.07614 138.20858 
L 822.369447 138.205564 
L 825.0161 138.089491 
L 830.309407 138.019517 
L 843.542673 137.702552 
L 843.542673 137.702552 
" clip-path="url(#pf89c9340cb)" style="fill: none; stroke: #0000ff; stroke-width: 1.5; stroke-linecap: square"/>
   </g>
   <g id="patch_3">
    <path d="M 50.87 390.04 
L 50.87 43.44 
" style="fill: none; stroke: #000000; stroke-width: 0.8; stroke-linejoin: miter; stroke-linecap: square"/>
   </g>
   <g id="patch_4">
    <path d="M 844.866 390.04 
L 844.866 43.44 
" style="fill: none; stroke: #000000; stroke-width: 0.8; stroke-linejoin: miter; stroke-linecap: square"/>
   </g>
   <g id="patch_5">
    <path d="M 50.87 390.04 
L 844.866 390.04 
" style="fill: none; stroke: #000000; stroke-width: 0.8; stroke-linejoin: miter; stroke-linecap: square"/>
   </g>
   <g id="patch_6">
    <path d="M 50.87 43.44 
L 844.866 43.44 
" style="fill: none; stroke: #000000; stroke-width: 0.8; stroke-linejoin: miter; stroke-linecap: square"/>
   </g>
   <g id="text_16">
    <!-- Mean profit per step with confidence interval per simulation step -->
    <g transform="translate(220.284875 21.763062) scale(0.14 -0.14)">
     <defs>
      <path id="DejaVuSans-4d" d="M 628 4666 
L 1569 4666 
L 2759 1491 
L 3956 4666 
L 4897 4666 
L 4897 0 
L 4281 0 
L 4281 4097 
L 3078 897 
L 2444 897 
L 1241 4097 
L 1241 0 
L 628 0 
L 628 4666 
z
" transform="scale(0.015625)"/>
      <path id="DejaVuSans-61" d="M 2194 1759 
Q 1497 1759 1228 1600 
Q 959 1441 959 1056 
Q 959 750 1161 570 
Q 1363 391 1709 391 
Q 2188 391 2477 730 
Q 2766 1069 2766 1631 
L 2766 1759 
L 2194 1759 
z
M 3341 1997 
L 3341 0 
L 2766 0 
L 2766 531 
Q 2569 213 2275 61 
Q 1981 -91 1556 -91 
Q 1019 -91 701 211 
Q 384 513 384 1019 
Q 384 1609 779 1909 
Q 1175 2209 1959 2209 
L 2766 2209 
L 2766 2266 
Q 2766 2663 2505 2880 
Q 2244 3097 1772 3097 
Q 1472 3097 1187 3025 
Q 903 2953 641 2809 
L 641 3341 
Q 956 3463 1253 3523 
Q 1550 3584 1831 3584 
Q 2591 3584 2966 3190 
Q 3341 2797 3341 1997 
z
" transform="scale(0.015625)"/>
      <path id="DejaVuSans-6e" d="M 3513 2113 
L 3513 0 
L 2938 0 
L 2938 2094 
Q 2938 2591 2744 2837 
Q 2550 3084 2163 3084 
Q 1697 3084 1428 2787 
Q 1159 2491 1159 1978 
L 1159 0 
L 581 0 
L 581 3500 
L 1159 3500 
L 1159 2956 
Q 1366 3272 1645 3428 
Q 1925 3584 2291 3584 
Q 2894 3584 3203 3211 
Q 3513 2838 3513 2113 
z
" transform="scale(0.015625)"/>
      <path id="DejaVuSans-20" transform="scale(0.015625)"/>
      <path id="DejaVuSans-73" d="M 2834 3397 
L 2834 2853 
Q 2591 2978 2328 3040 
Q 2066 3103 1784 3103 
Q 1356 3103 1142 2972 
Q 928 2841 928 2578 
Q 928 2378 1081 2264 
Q 1234 2150 1697 2047 
L 1894 2003 
Q 2506 1872 2764 1633 
Q 3022 1394 3022 966 
Q 3022 478 2636 193 
Q 2250 -91 1575 -91 
Q 1294 -91 989 -36 
Q 684 19 347 128 
L 347 722 
Q 666 556 975 473 
Q 1284 391 1588 391 
Q 1994 391 2212 530 
Q 2431 669 2431 922 
Q 2431 1156 2273 1281 
Q 2116 1406 1581 1522 
L 1381 1569 
Q 847 1681 609 1914 
Q 372 2147 372 2553 
Q 372 3047 722 3315 
Q 1072 3584 1716 3584 
Q 2034 3584 2315 3537 
Q 2597 3491 2834 3397 
z
" transform="scale(0.015625)"/>
      <path id="DejaVuSans-77" d="M 269 3500 
L 844 3500 
L 1563 769 
L 2278 3500 
L 2956 3500 
L 3675 769 
L 4391 3500 
L 4966 3500 
L 4050 0 
L 3372 0 
L 2619 2869 
L 1863 0 
L 1184 0 
L 269 3500 
z
" transform="scale(0.015625)"/>
      <path id="DejaVuSans-68" d="M 3513 2113 
L 3513 0 
L 2938 0 
L 2938 2094 
Q 2938 2591 2744 2837 
Q 2550 3084 2163 3084 
Q 1697 3084 1428 2787 
Q 1159 2491 1159 1978 
L 1159 0 
L 581 0 
L 581 4863 
L 1159 4863 
L 1159 2956 
Q 1366 3272 1645 3428 
Q 1925 3584 2291 3584 
Q 2894 3584 3203 3211 
Q 3513 2838 3513 2113 
z
" transform="scale(0.015625)"/>
      <path id="DejaVuSans-63" d="M 3122 3366 
L 3122 2828 
Q 2878 2963 2633 3030 
Q 2388 3097 2138 3097 
Q 1578 3097 1268 2742 
Q 959 2388 959 1747 
Q 959 1106 1268 751 
Q 1578 397 2138 397 
Q 2388 397 2633 464 
Q 2878 531 3122 666 
L 3122 134 
Q 2881 22 2623 -34 
Q 2366 -91 2075 -91 
Q 1284 -91 818 406 
Q 353 903 353 1747 
Q 353 2603 823 3093 
Q 1294 3584 2113 3584 
Q 2378 3584 2631 3529 
Q 2884 3475 3122 3366 
z
" transform="scale(0.015625)"/>
      <path id="DejaVuSans-64" d="M 2906 2969 
L 2906 4863 
L 3481 4863 
L 3481 0 
L 2906 0 
L 2906 525 
Q 2725 213 2448 61 
Q 2172 -91 1784 -91 
Q 1150 -91 751 415 
Q 353 922 353 1747 
Q 353 2572 751 3078 
Q 1150 3584 1784 3584 
Q 2172 3584 2448 3432 
Q 2725 3281 2906 2969 
z
M 947 1747 
Q 947 1113 1208 752 
Q 1469 391 1925 391 
Q 2381 391 2643 752 
Q 2906 1113 2906 1747 
Q 2906 2381 2643 2742 
Q 2381 3103 1925 3103 
Q 1469 3103 1208 2742 
Q 947 2381 947 1747 
z
" transform="scale(0.015625)"/>
      <path id="DejaVuSans-76" d="M 191 3500 
L 800 3500 
L 1894 563 
L 2988 3500 
L 3597 3500 
L 2284 0 
L 1503 0 
L 191 3500 
z
" transform="scale(0.015625)"/>
      <path id="DejaVuSans-6c" d="M 603 4863 
L 1178 4863 
L 1178 0 
L 603 0 
L 603 4863 
z
" transform="scale(0.015625)"/>
      <path id="DejaVuSans-6d" d="M 3328 2828 
Q 3544 3216 3844 3400 
Q 4144 3584 4550 3584 
Q 5097 3584 5394 3201 
Q 5691 2819 5691 2113 
L 5691 0 
L 5113 0 
L 5113 2094 
Q 5113 2597 4934 2840 
Q 4756 3084 4391 3084 
Q 3944 3084 3684 2787 
Q 3425 2491 3425 1978 
L 3425 0 
L 2847 0 
L 2847 2094 
Q 2847 2600 2669 2842 
Q 2491 3084 2119 3084 
Q 1678 3084 1418 2786 
Q 1159 2488 1159 1978 
L 1159 0 
L 581 0 
L 581 3500 
L 1159 3500 
L 1159 2956 
Q 1356 3278 1631 3431 
Q 1906 3584 2284 3584 
Q 2666 3584 2933 3390 
Q 3200 3197 3328 2828 
z
" transform="scale(0.015625)"/>
      <path id="DejaVuSans-75" d="M 544 1381 
L 544 3500 
L 1119 3500 
L 1119 1403 
Q 1119 906 1312 657 
Q 1506 409 1894 409 
Q 2359 409 2629 706 
Q 2900 1003 2900 1516 
L 2900 3500 
L 3475 3500 
L 3475 0 
L 2900 0 
L 2900 538 
Q 2691 219 2414 64 
Q 2138 -91 1772 -91 
Q 1169 -91 856 284 
Q 544 659 544 1381 
z
M 1991 3584 
L 1991 3584 
z
" transform="scale(0.015625)"/>
     </defs>
     <use xlink:href="#DejaVuSans-4d"/>
     <use xlink:href="#DejaVuSans-65" transform="translate(86.279297 0)"/>
     <use xlink:href="#DejaVuSans-61" transform="translate(147.802734 0)"/>
     <use xlink:href="#DejaVuSans-6e" transform="translate(209.082031 0)"/>
     <use xlink:href="#DejaVuSans-20" transform="translate(272.460938 0)"/>
     <use xlink:href="#DejaVuSans-70" transform="translate(304.248047 0)"/>
     <use xlink:href="#DejaVuSans-72" transform="translate(367.724609 0)"/>
     <use xlink:href="#DejaVuSans-6f" transform="translate(406.587891 0)"/>
     <use xlink:href="#DejaVuSans-66" transform="translate(467.769531 0)"/>
     <use xlink:href="#DejaVuSans-69" transform="translate(502.974609 0)"/>
     <use xlink:href="#DejaVuSans-74" transform="translate(530.757812 0)"/>
     <use xlink:href="#DejaVuSans-20" transform="translate(569.966797 0)"/>
     <use xlink:href="#DejaVuSans-70" transform="translate(601.753906 0)"/>
     <use xlink:href="#DejaVuSans-65" transform="translate(665.230469 0)"/>
     <use xlink:href="#DejaVuSans-72" transform="translate(726.753906 0)"/>
     <use xlink:href="#DejaVuSans-20" transform="translate(767.867188 0)"/>
     <use xlink:href="#DejaVuSans-73" transform="translate(799.654297 0)"/>
     <use xlink:href="#DejaVuSans-74" transform="translate(851.753906 0)"/>
     <use xlink:href="#DejaVuSans-65" transform="translate(890.962891 0)"/>
     <use xlink:href="#DejaVuSans-70" transform="translate(952.486328 0)"/>
     <use xlink:href="#DejaVuSans-20" transform="translate(1015.962891 0)"/>
     <use xlink:href="#DejaVuSans-77" transform="translate(1047.75 0)"/>
     <use xlink:href="#DejaVuSans-69" transform="translate(1129.537109 0)"/>
     <use xlink:href="#DejaVuSans-74" transform="translate(1157.320312 0)"/>
     <use xlink:href="#DejaVuSans-68" transform="translate(1196.529297 0)"/>
     <use xlink:href="#DejaVuSans-20" transform="translate(1259.908203 0)"/>
     <use xlink:href="#DejaVuSans-63" transform="translate(1291.695312 0)"/>
     <use xlink:href="#DejaVuSans-6f" transform="translate(1346.675781 0)"/>
     <use xlink:href="#DejaVuSans-6e" transform="translate(1407.857422 0)"/>
     <use xlink:href="#DejaVuSans-66" transform="translate(1471.236328 0)"/>
     <use xlink:href="#DejaVuSans-69" transform="translate(1506.441406 0)"/>
     <use xlink:href="#DejaVuSans-64" transform="translate(1534.224609 0)"/>
     <use xlink:href="#DejaVuSans-65" transform="translate(1597.701172 0)"/>
     <use xlink:href="#DejaVuSans-6e" transform="translate(1659.224609 0)"/>
     <use xlink:href="#DejaVuSans-63" transform="translate(1722.603516 0)"/>
     <use xlink:href="#DejaVuSans-65" transform="translate(1777.583984 0)"/>
     <use xlink:href="#DejaVuSans-20" transform="translate(1839.107422 0)"/>
     <use xlink:href="#DejaVuSans-69" transform="translate(1870.894531 0)"/>
     <use xlink:href="#DejaVuSans-6e" transform="translate(1898.677734 0)"/>
     <use xlink:href="#DejaVuSans-74" transform="translate(1962.056641 0)"/>
     <use xlink:href="#DejaVuSans-65" transform="translate(2001.265625 0)"/>
     <use xlink:href="#DejaVuSans-72" transform="translate(2062.789062 0)"/>
     <use xlink:href="#DejaVuSans-76" transform="translate(2103.902344 0)"/>
     <use xlink:href="#DejaVuSans-61" transform="translate(2163.082031 0)"/>
     <use xlink:href="#DejaVuSans-6c" transform="translate(2224.361328 0)"/>
     <use xlink:href="#DejaVuSans-20" transform="translate(2252.144531 0)"/>
     <use xlink:href="#DejaVuSans-70" transform="translate(2283.931641 0)"/>
     <use xlink:href="#DejaVuSans-65" transform="translate(2347.408203 0)"/>
     <use xlink:href="#DejaVuSans-72" transform="translate(2408.931641 0)"/>
     <use xlink:href="#DejaVuSans-20" transform="translate(2450.044922 0)"/>
     <use xlink:href="#DejaVuSans-73" transform="translate(2481.832031 0)"/>
     <use xlink:href="#DejaVuSans-69" transform="translate(2533.931641 0)"/>
     <use xlink:href="#DejaVuSans-6d" transform="translate(2561.714844 0)"/>
     <use xlink:href="#DejaVuSans-75" transform="translate(2659.126953 0)"/>
     <use xlink:href="#DejaVuSans-6c" transform="translate(2722.505859 0)"/>
     <use xlink:href="#DejaVuSans-61" transform="translate(2750.289062 0)"/>
     <use xlink:href="#DejaVuSans-74" transform="translate(2811.568359 0)"/>
     <use xlink:href="#DejaVuSans-69" transform="translate(2850.777344 0)"/>
     <use xlink:href="#DejaVuSans-6f" transform="translate(2878.560547 0)"/>
     <use xlink:href="#DejaVuSans-6e" transform="translate(2939.742188 0)"/>
     <use xlink:href="#DejaVuSans-20" transform="translate(3003.121094 0)"/>
     <use xlink:href="#DejaVuSans-73" transform="translate(3034.908203 0)"/>
     <use xlink:href="#DejaVuSans-74" transform="translate(3087.007812 0)"/>
     <use xlink:href="#DejaVuSans-65" transform="translate(3126.216797 0)"/>
     <use xlink:href="#DejaVuSans-70" transform="translate(3187.740234 0)"/>
    </g>
    <!-- Base Product: OG Kush, Recipe size: 8, T0: 20.0 -->
    <g transform="translate(281.490031 37.44) scale(0.14 -0.14)">
     <defs>
      <path id="DejaVuSans-42" d="M 1259 2228 
L 1259 519 
L 2272 519 
Q 2781 519 3026 730 
Q 3272 941 3272 1375 
Q 3272 1813 3026 2020 
Q 2781 2228 2272 2228 
L 1259 2228 
z
M 1259 4147 
L 1259 2741 
L 2194 2741 
Q 2656 2741 2882 2914 
Q 3109 3088 3109 3444 
Q 3109 3797 2882 3972 
Q 2656 4147 2194 4147 
L 1259 4147 
z
M 628 4666 
L 2241 4666 
Q 2963 4666 3353 4366 
Q 3744 4066 3744 3513 
Q 3744 3084 3544 2831 
Q 3344 2578 2956 2516 
Q 3422 2416 3680 2098 
Q 3938 1781 3938 1306 
Q 3938 681 3513 340 
Q 3088 0 2303 0 
L 628 0 
L 628 4666 
z
" transform="scale(0.015625)"/>
      <path id="DejaVuSans-3a" d="M 750 794 
L 1409 794 
L 1409 0 
L 750 0 
L 750 794 
z
M 750 3309 
L 1409 3309 
L 1409 2516 
L 750 2516 
L 750 3309 
z
" transform="scale(0.015625)"/>
      <path id="DejaVuSans-4f" d="M 2522 4238 
Q 1834 4238 1429 3725 
Q 1025 3213 1025 2328 
Q 1025 1447 1429 934 
Q 1834 422 2522 422 
Q 3209 422 3611 934 
Q 4013 1447 4013 2328 
Q 4013 3213 3611 3725 
Q 3209 4238 2522 4238 
z
M 2522 4750 
Q 3503 4750 4090 4092 
Q 4678 3434 4678 2328 
Q 4678 1225 4090 567 
Q 3503 -91 2522 -91 
Q 1538 -91 948 565 
Q 359 1222 359 2328 
Q 359 3434 948 4092 
Q 1538 4750 2522 4750 
z
" transform="scale(0.015625)"/>
      <path id="DejaVuSans-47" d="M 3809 666 
L 3809 1919 
L 2778 1919 
L 2778 2438 
L 4434 2438 
L 4434 434 
Q 4069 175 3628 42 
Q 3188 -91 2688 -91 
Q 1594 -91 976 548 
Q 359 1188 359 2328 
Q 359 3472 976 4111 
Q 1594 4750 2688 4750 
Q 3144 4750 3555 4637 
Q 3966 4525 4313 4306 
L 4313 3634 
Q 3963 3931 3569 4081 
Q 3175 4231 2741 4231 
Q 1884 4231 1454 3753 
Q 1025 3275 1025 2328 
Q 1025 1384 1454 906 
Q 1884 428 2741 428 
Q 3075 428 3337 486 
Q 3600 544 3809 666 
z
" transform="scale(0.015625)"/>
      <path id="DejaVuSans-4b" d="M 628 4666 
L 1259 4666 
L 1259 2694 
L 3353 4666 
L 4166 4666 
L 1850 2491 
L 4331 0 
L 3500 0 
L 1259 2247 
L 1259 0 
L 628 0 
L 628 4666 
z
" transform="scale(0.015625)"/>
      <path id="DejaVuSans-2c" d="M 750 794 
L 1409 794 
L 1409 256 
L 897 -744 
L 494 -744 
L 750 256 
L 750 794 
z
" transform="scale(0.015625)"/>
      <path id="DejaVuSans-52" d="M 2841 2188 
Q 3044 2119 3236 1894 
Q 3428 1669 3622 1275 
L 4263 0 
L 3584 0 
L 2988 1197 
Q 2756 1666 2539 1819 
Q 2322 1972 1947 1972 
L 1259 1972 
L 1259 0 
L 628 0 
L 628 4666 
L 2053 4666 
Q 2853 4666 3247 4331 
Q 3641 3997 3641 3322 
Q 3641 2881 3436 2590 
Q 3231 2300 2841 2188 
z
M 1259 4147 
L 1259 2491 
L 2053 2491 
Q 2509 2491 2742 2702 
Q 2975 2913 2975 3322 
Q 2975 3731 2742 3939 
Q 2509 4147 2053 4147 
L 1259 4147 
z
" transform="scale(0.015625)"/>
      <path id="DejaVuSans-7a" d="M 353 3500 
L 3084 3500 
L 3084 2975 
L 922 459 
L 3084 459 
L 3084 0 
L 275 0 
L 275 525 
L 2438 3041 
L 353 3041 
L 353 3500 
z
" transform="scale(0.015625)"/>
      <path id="DejaVuSans-54" d="M -19 4666 
L 3928 4666 
L 3928 4134 
L 2272 4134 
L 2272 0 
L 1638 0 
L 1638 4134 
L -19 4134 
L -19 4666 
z
" transform="scale(0.015625)"/>
      <path id="DejaVuSans-2e" d="M 684 794 
L 1344 794 
L 1344 0 
L 684 0 
L 684 794 
z
" transform="scale(0.015625)"/>
     </defs>
     <use xlink:href="#DejaVuSans-42"/>
     <use xlink:href="#DejaVuSans-61" transform="translate(68.603516 0)"/>
     <use xlink:href="#DejaVuSans-73" transform="translate(129.882812 0)"/>
     <use xlink:href="#DejaVuSans-65" transform="translate(181.982422 0)"/>
     <use xlink:href="#DejaVuSans-20" transform="translate(243.505859 0)"/>
     <use xlink:href="#DejaVuSans-50" transform="translate(275.292969 0)"/>
     <use xlink:href="#DejaVuSans-72" transform="translate(333.845703 0)"/>
     <use xlink:href="#DejaVuSans-6f" transform="translate(372.708984 0)"/>
     <use xlink:href="#DejaVuSans-64" transform="translate(433.890625 0)"/>
     <use xlink:href="#DejaVuSans-75" transform="translate(497.367188 0)"/>
     <use xlink:href="#DejaVuSans-63" transform="translate(560.746094 0)"/>
     <use xlink:href="#DejaVuSans-74" transform="translate(615.726562 0)"/>
     <use xlink:href="#DejaVuSans-3a" transform="translate(654.935547 0)"/>
     <use xlink:href="#DejaVuSans-20" transform="translate(688.626953 0)"/>
     <use xlink:href="#DejaVuSans-4f" transform="translate(720.414062 0)"/>
     <use xlink:href="#DejaVuSans-47" transform="translate(799.125 0)"/>
     <use xlink:href="#DejaVuSans-20" transform="translate(876.615234 0)"/>
     <use xlink:href="#DejaVuSans-4b" transform="translate(908.402344 0)"/>
     <use xlink:href="#DejaVuSans-75" transform="translate(968.978516 0)"/>
     <use xlink:href="#DejaVuSans-73" transform="translate(1032.357422 0)"/>
     <use xlink:href="#DejaVuSans-68" transform="translate(1084.457031 0)"/>
     <use xlink:href="#DejaVuSans-2c" transform="translate(1147.835938 0)"/>
     <use xlink:href="#DejaVuSans-20" transform="translate(1179.623047 0)"/>
     <use xlink:href="#DejaVuSans-52" transform="translate(1211.410156 0)"/>
     <use xlink:href="#DejaVuSans-65" transform="translate(1276.392578 0)"/>
     <use xlink:href="#DejaVuSans-63" transform="translate(1337.916016 0)"/>
     <use xlink:href="#DejaVuSans-69" transform="translate(1392.896484 0)"/>
     <use xlink:href="#DejaVuSans-70" transform="translate(1420.679688 0)"/>
     <use xlink:href="#DejaVuSans-65" transform="translate(1484.15625 0)"/>
     <use xlink:href="#DejaVuSans-20" transform="translate(1545.679688 0)"/>
     <use xlink:href="#DejaVuSans-73" transform="translate(1577.466797 0)"/>
     <use xlink:href="#DejaVuSans-69" transform="translate(1629.566406 0)"/>
     <use xlink:href="#DejaVuSans-7a" transform="translate(1657.349609 0)"/>
     <use xlink:href="#DejaVuSans-65" transform="translate(1709.839844 0)"/>
     <use xlink:href="#DejaVuSans-3a" transform="translate(1771.363281 0)"/>
     <use xlink:href="#DejaVuSans-20" transform="translate(1805.054688 0)"/>
     <use xlink:href="#DejaVuSans-38" transform="translate(1836.841797 0)"/>
     <use xlink:href="#DejaVuSans-2c" transform="translate(1900.464844 0)"/>
     <use xlink:href="#DejaVuSans-20" transform="translate(1932.251953 0)"/>
     <use xlink:href="#DejaVuSans-54" transform="translate(1964.039062 0)"/>
     <use xlink:href="#DejaVuSans-30" transform="translate(2025.123047 0)"/>
     <use xlink:href="#DejaVuSans-3a" transform="translate(2088.746094 0)"/>
     <use xlink:href="#DejaVuSans-20" transform="translate(2122.4375 0)"/>
     <use xlink:href="#DejaVuSans-32" transform="translate(2154.224609 0)"/>
     <use xlink:href="#DejaVuSans-30" transform="translate(2217.847656 0)"/>
     <use xlink:href="#DejaVuSans-2e" transform="translate(2281.470703 0)"/>
     <use xlink:href="#DejaVuSans-30" transform="translate(2313.257812 0)"/>
    </g>
   </g>
  </g>
 </g>
 <defs>
  <clipPath id="pf89c9340cb">
   <rect x="50.87" y="43.44" width="793.996" height="346.6"/>
  </clipPath>
 </defs>
</svg>
