<?xml version="1.0" encoding="utf-8" standalone="no"?>
<!DOCTYPE svg PUBLIC "-//W3C//DTD SVG 1.1//EN"
  "http://www.w3.org/Graphics/SVG/1.1/DTD/svg11.dtd">
<svg xmlns:xlink="http://www.w3.org/1999/xlink" width="864pt" height="432pt" viewBox="0 0 864 432" xmlns="http://www.w3.org/2000/svg" version="1.1">
 <metadata>
  <rdf:RDF xmlns:dc="http://purl.org/dc/elements/1.1/" xmlns:cc="http://creativecommons.org/ns#" xmlns:rdf="http://www.w3.org/1999/02/22-rdf-syntax-ns#">
   <cc:Work>
    <dc:type rdf:resource="http://purl.org/dc/dcmitype/StillImage"/>
    <dc:date>2025-05-24T02:02:00.675667</dc:date>
    <dc:format>image/svg+xml</dc:format>
    <dc:creator>
     <cc:Agent>
      <dc:title>Matplotlib v3.10.3, https://matplotlib.org/</dc:title>
     </cc:Agent>
    </dc:creator>
   </cc:Work>
  </rdf:RDF>
 </metadata>
 <defs>
  <style type="text/css">*{stroke-linejoin: round; stroke-linecap: butt}</style>
 </defs>
 <g id="figure_1">
  <g id="patch_1">
   <path d="M 0 432 
L 864 432 
L 864 0 
L 0 0 
z
" style="fill: #ffffff"/>
  </g>
  <g id="axes_1">
   <g id="patch_2">
    <path d="M 50.87 390.04 
L 844.866 390.04 
L 844.866 43.44 
L 50.87 43.44 
z
" style="fill: #ffffff"/>
   </g>
   <g id="FillBetweenPolyCollection_1">
    <defs>
     <path id="m6fe4d924a4" d="M 52.193327 -304.861504 
L 52.193327 -58.175901 
L 54.83998 -57.714545 
L 57.486633 -68.903283 
L 60.133287 -82.215527 
L 62.77994 -92.251743 
L 65.426593 -102.228534 
L 68.073247 -110.624173 
L 70.7199 -117.914001 
L 73.366553 -125.011986 
L 76.013207 -131.715937 
L 78.65986 -136.75609 
L 81.306513 -141.669453 
L 83.953167 -145.747996 
L 86.59982 -150.473411 
L 89.246473 -154.39275 
L 91.893127 -158.34476 
L 94.53978 -162.042463 
L 97.186433 -165.069483 
L 99.833087 -167.561158 
L 102.47974 -170.059607 
L 105.126393 -172.220889 
L 107.773047 -174.057504 
L 110.4197 -176.835161 
L 113.066353 -179.000339 
L 115.713007 -180.958745 
L 118.35966 -182.924621 
L 121.006313 -184.528407 
L 123.652967 -186.050885 
L 126.29962 -187.703448 
L 128.946273 -188.934036 
L 131.592927 -190.124387 
L 134.23958 -191.744717 
L 136.886233 -193.373437 
L 139.532887 -194.797013 
L 142.17954 -195.895397 
L 144.826193 -196.954914 
L 147.472847 -198.036325 
L 150.1195 -198.868439 
L 152.766153 -199.889709 
L 155.412807 -200.650894 
L 158.05946 -201.766614 
L 160.706113 -202.783005 
L 163.352767 -203.657132 
L 165.99942 -204.381312 
L 168.646073 -205.648349 
L 171.292727 -206.441723 
L 173.93938 -207.153319 
L 176.586033 -208.024877 
L 179.232687 -209.084009 
L 181.87934 -209.794299 
L 184.525993 -210.562033 
L 187.172647 -211.338179 
L 189.8193 -211.992821 
L 192.465953 -212.255239 
L 195.112607 -212.703304 
L 197.75926 -213.268034 
L 200.405913 -214.017255 
L 203.052567 -214.746679 
L 205.69922 -215.345247 
L 208.345873 -215.594566 
L 210.992527 -216.143651 
L 213.63918 -216.69539 
L 216.285833 -217.431684 
L 218.932487 -217.846917 
L 221.57914 -218.285564 
L 224.225793 -218.988727 
L 226.872447 -219.317814 
L 229.5191 -219.860264 
L 232.165753 -220.310255 
L 234.812407 -220.997772 
L 237.45906 -221.410287 
L 240.105713 -221.905908 
L 242.752367 -222.247943 
L 245.39902 -222.853959 
L 248.045673 -223.192956 
L 250.692327 -223.78994 
L 253.33898 -224.272784 
L 255.985633 -224.830944 
L 258.632287 -225.359953 
L 261.27894 -225.592321 
L 263.925593 -225.970271 
L 266.572247 -226.104144 
L 269.2189 -226.288614 
L 271.865553 -226.853729 
L 274.512207 -226.980947 
L 277.15886 -227.294731 
L 279.805513 -227.659068 
L 282.452167 -228.134293 
L 285.09882 -228.318248 
L 287.745473 -228.505393 
L 290.392127 -228.622166 
L 293.03878 -229.2016 
L 295.685433 -229.217887 
L 298.332087 -229.646047 
L 300.97874 -229.543443 
L 303.625393 -229.723289 
L 306.272047 -230.030952 
L 308.9187 -230.271968 
L 311.565353 -230.756673 
L 314.212007 -231.054235 
L 316.85866 -231.538641 
L 319.505313 -231.807394 
L 322.151967 -232.08993 
L 324.79862 -232.643531 
L 327.445273 -232.925511 
L 330.091927 -233.190968 
L 332.73858 -233.535294 
L 335.385233 -233.623858 
L 338.031887 -233.861855 
L 340.67854 -234.219922 
L 343.325193 -234.238842 
L 345.971847 -234.704242 
L 348.6185 -234.905149 
L 351.265153 -235.09437 
L 353.911807 -235.229142 
L 356.55846 -235.508532 
L 359.205113 -235.767718 
L 361.851767 -235.921432 
L 364.49842 -236.094216 
L 367.145073 -236.28776 
L 369.791727 -236.385078 
L 372.43838 -236.712795 
L 375.085033 -237.090659 
L 377.731687 -237.139436 
L 380.37834 -237.492108 
L 383.024993 -237.733873 
L 385.671647 -237.886581 
L 388.3183 -238.061783 
L 390.964953 -238.307271 
L 393.611607 -238.537285 
L 396.25826 -238.652089 
L 398.904913 -238.728946 
L 401.551567 -238.778943 
L 404.19822 -238.977088 
L 406.844873 -239.165432 
L 409.491527 -239.245178 
L 412.13818 -239.697245 
L 414.784833 -239.933872 
L 417.431487 -240.235714 
L 420.07814 -240.563474 
L 422.724793 -240.437477 
L 425.371447 -240.455027 
L 428.0181 -240.73003 
L 430.664753 -240.906109 
L 433.311407 -241.133684 
L 435.95806 -241.141089 
L 438.604713 -241.26439 
L 441.251367 -241.549002 
L 443.89802 -241.683753 
L 446.544673 -241.932816 
L 449.191327 -242.055624 
L 451.83798 -242.253278 
L 454.484633 -242.448598 
L 457.131287 -242.760435 
L 459.77794 -242.917958 
L 462.424593 -243.123809 
L 465.071247 -243.241802 
L 467.7179 -243.414714 
L 470.364553 -243.475861 
L 473.011207 -243.772908 
L 475.65786 -243.922855 
L 478.304513 -244.141697 
L 480.951167 -244.464235 
L 483.59782 -244.66694 
L 486.244473 -244.767554 
L 488.891127 -244.945881 
L 491.53778 -245.108198 
L 494.184433 -245.152074 
L 496.831087 -245.303369 
L 499.47774 -245.490257 
L 502.124393 -245.655871 
L 504.771047 -245.854894 
L 507.4177 -245.992534 
L 510.064353 -246.328042 
L 512.711007 -246.294718 
L 515.35766 -246.470284 
L 518.004313 -246.63684 
L 520.650967 -246.723692 
L 523.29762 -246.797659 
L 525.944273 -246.926289 
L 528.590927 -247.045587 
L 531.23758 -247.289364 
L 533.884233 -247.419963 
L 536.530887 -247.364872 
L 539.17754 -247.724908 
L 541.824193 -247.918473 
L 544.470847 -248.139177 
L 547.1175 -248.267507 
L 549.764153 -248.40838 
L 552.410807 -248.457477 
L 555.05746 -248.757671 
L 557.704113 -248.811135 
L 560.350767 -248.803644 
L 562.99742 -248.891052 
L 565.644073 -249.058378 
L 568.290727 -249.01645 
L 570.93738 -249.178939 
L 573.584033 -249.260291 
L 576.230687 -249.233345 
L 578.87734 -249.319512 
L 581.523993 -249.521574 
L 584.170647 -249.57782 
L 586.8173 -249.667198 
L 589.463953 -249.843706 
L 592.110607 -249.89398 
L 594.75726 -250.194238 
L 597.403913 -250.348059 
L 600.050567 -250.340525 
L 602.69722 -250.465431 
L 605.343873 -250.496679 
L 607.990527 -250.681919 
L 610.63718 -250.894019 
L 613.283833 -251.101903 
L 615.930487 -251.18349 
L 618.57714 -251.27749 
L 621.223793 -251.37453 
L 623.870447 -251.346129 
L 626.5171 -251.504979 
L 629.163753 -251.677527 
L 631.810407 -251.80498 
L 634.45706 -251.770137 
L 637.103713 -251.991397 
L 639.750367 -252.097383 
L 642.39702 -252.307257 
L 645.043673 -252.411146 
L 647.690327 -252.273099 
L 650.33698 -252.414998 
L 652.983633 -252.563597 
L 655.630287 -252.879265 
L 658.27694 -252.936388 
L 660.923593 -253.145171 
L 663.570247 -253.312304 
L 666.2169 -253.477105 
L 668.863553 -253.573053 
L 671.510207 -253.583647 
L 674.15686 -253.549724 
L 676.803513 -253.667332 
L 679.450167 -253.930606 
L 682.09682 -253.988885 
L 684.743473 -254.135022 
L 687.390127 -254.411202 
L 690.03678 -254.369082 
L 692.683433 -254.33411 
L 695.330087 -254.602542 
L 697.97674 -254.683572 
L 700.623393 -254.744762 
L 703.270047 -255.002707 
L 705.9167 -255.115413 
L 708.563353 -255.335154 
L 711.210007 -255.432772 
L 713.85666 -255.496381 
L 716.503313 -255.571033 
L 719.149967 -255.687656 
L 721.79662 -255.832488 
L 724.443273 -256.088035 
L 727.089927 -256.254548 
L 729.73658 -256.296968 
L 732.383233 -256.300906 
L 735.029887 -256.409204 
L 737.67654 -256.417379 
L 740.323193 -256.604652 
L 742.969847 -256.640309 
L 745.6165 -256.653129 
L 748.263153 -256.762754 
L 750.909807 -256.878264 
L 753.55646 -257.154016 
L 756.203113 -257.192669 
L 758.849767 -257.329346 
L 761.49642 -257.436659 
L 764.143073 -257.554673 
L 766.789727 -257.681591 
L 769.43638 -257.725531 
L 772.083033 -257.868286 
L 774.729687 -257.856493 
L 777.37634 -258.053441 
L 780.022993 -258.101254 
L 782.669647 -258.440486 
L 785.3163 -258.590818 
L 787.962953 -258.619155 
L 790.609607 -258.617593 
L 793.25626 -258.719491 
L 795.902913 -258.784983 
L 798.549567 -258.970523 
L 801.19622 -258.970972 
L 803.842873 -259.216696 
L 806.489527 -259.296421 
L 809.13618 -259.449621 
L 811.782833 -259.597642 
L 814.429487 -259.816955 
L 817.07614 -259.941732 
L 819.722793 -260.008744 
L 822.369447 -260.031495 
L 825.0161 -260.132922 
L 827.662753 -260.105933 
L 830.309407 -260.140327 
L 832.95606 -260.280943 
L 835.602713 -260.277026 
L 838.249367 -260.337531 
L 840.89602 -260.488463 
L 843.542673 -260.56074 
L 843.542673 -372.805455 
L 843.542673 -372.805455 
L 840.89602 -372.782896 
L 838.249367 -372.777802 
L 835.602713 -372.752975 
L 832.95606 -372.688639 
L 830.309407 -372.69125 
L 827.662753 -372.623874 
L 825.0161 -372.47855 
L 822.369447 -372.439726 
L 819.722793 -372.342815 
L 817.07614 -372.319529 
L 814.429487 -372.324922 
L 811.782833 -372.404198 
L 809.13618 -372.424017 
L 806.489527 -372.449272 
L 803.842873 -372.435831 
L 801.19622 -372.456805 
L 798.549567 -372.377145 
L 795.902913 -372.391998 
L 793.25626 -372.387247 
L 790.609607 -372.347438 
L 787.962953 -372.249671 
L 785.3163 -372.214185 
L 782.669647 -372.282203 
L 780.022993 -372.420935 
L 777.37634 -372.325864 
L 774.729687 -372.365716 
L 772.083033 -372.273813 
L 769.43638 -372.264524 
L 766.789727 -372.210803 
L 764.143073 -372.14163 
L 761.49642 -372.097198 
L 758.849767 -372.115091 
L 756.203113 -372.151004 
L 753.55646 -372.021047 
L 750.909807 -372.019164 
L 748.263153 -372.0365 
L 745.6165 -372.012829 
L 742.969847 -371.949177 
L 740.323193 -371.841736 
L 737.67654 -371.916474 
L 735.029887 -371.829879 
L 732.383233 -371.804324 
L 729.73658 -371.705701 
L 727.089927 -371.627282 
L 724.443273 -371.650824 
L 721.79662 -371.7182 
L 719.149967 -371.71195 
L 716.503313 -371.719784 
L 713.85666 -371.62009 
L 711.210007 -371.551388 
L 708.563353 -371.516758 
L 705.9167 -371.544453 
L 703.270047 -371.553828 
L 700.623393 -371.586402 
L 697.97674 -371.458586 
L 695.330087 -371.403153 
L 692.683433 -371.448441 
L 690.03678 -371.343868 
L 687.390127 -371.248027 
L 684.743473 -371.315916 
L 682.09682 -371.32987 
L 679.450167 -371.279831 
L 676.803513 -371.35992 
L 674.15686 -371.3175 
L 671.510207 -371.182449 
L 668.863553 -371.083911 
L 666.2169 -370.908752 
L 663.570247 -370.905541 
L 660.923593 -370.933279 
L 658.27694 -370.867744 
L 655.630287 -370.782433 
L 652.983633 -370.848054 
L 650.33698 -370.855588 
L 647.690327 -370.84647 
L 645.043673 -370.666559 
L 642.39702 -370.648581 
L 639.750367 -370.710306 
L 637.103713 -370.67161 
L 634.45706 -370.719082 
L 631.810407 -370.585315 
L 629.163753 -370.547047 
L 626.5171 -370.544992 
L 623.870447 -370.571789 
L 621.223793 -370.42441 
L 618.57714 -370.357377 
L 615.930487 -370.239234 
L 613.283833 -370.145919 
L 610.63718 -370.087618 
L 607.990527 -370.100545 
L 605.343873 -370.2201 
L 602.69722 -370.089844 
L 600.050567 -370.064118 
L 597.403913 -369.92042 
L 594.75726 -369.909162 
L 592.110607 -369.918109 
L 589.463953 -369.860878 
L 586.8173 -369.845554 
L 584.170647 -369.77287 
L 581.523993 -369.753694 
L 578.87734 -369.769104 
L 576.230687 -369.678699 
L 573.584033 -369.507221 
L 570.93738 -369.512957 
L 568.290727 -369.453714 
L 565.644073 -369.323286 
L 562.99742 -369.349783 
L 560.350767 -369.274959 
L 557.704113 -369.145174 
L 555.05746 -369.038674 
L 552.410807 -369.144189 
L 549.764153 -368.971941 
L 547.1175 -368.865955 
L 544.470847 -368.908589 
L 541.824193 -368.94874 
L 539.17754 -368.990218 
L 536.530887 -369.051045 
L 533.884233 -368.842797 
L 531.23758 -368.780044 
L 528.590927 -368.732573 
L 525.944273 -368.687114 
L 523.29762 -368.625988 
L 520.650967 -368.582327 
L 518.004313 -368.415985 
L 515.35766 -368.3451 
L 512.711007 -368.332943 
L 510.064353 -368.150678 
L 507.4177 -368.216213 
L 504.771047 -368.211462 
L 502.124393 -368.194639 
L 499.47774 -368.144985 
L 496.831087 -368.145456 
L 494.184433 -368.070076 
L 491.53778 -367.958525 
L 488.891127 -367.91709 
L 486.244473 -367.889095 
L 483.59782 -367.787646 
L 480.951167 -367.728575 
L 478.304513 -367.764446 
L 475.65786 -367.700709 
L 473.011207 -367.620278 
L 470.364553 -367.672115 
L 467.7179 -367.604482 
L 465.071247 -367.589971 
L 462.424593 -367.560436 
L 459.77794 -367.518829 
L 457.131287 -367.430907 
L 454.484633 -367.458088 
L 451.83798 -367.377229 
L 449.191327 -367.375346 
L 446.544673 -367.294401 
L 443.89802 -367.301464 
L 441.251367 -367.131398 
L 438.604713 -367.127503 
L 435.95806 -367.011843 
L 433.311407 -366.808775 
L 430.664753 -366.881544 
L 428.0181 -366.812927 
L 425.371447 -366.763958 
L 422.724793 -366.557037 
L 420.07814 -366.235826 
L 417.431487 -366.285009 
L 414.784833 -366.309451 
L 412.13818 -366.356109 
L 409.491527 -366.375029 
L 406.844873 -366.172774 
L 404.19822 -366.090545 
L 401.551567 -366.084937 
L 398.904913 -365.813509 
L 396.25826 -365.618103 
L 393.611607 -365.468755 
L 390.964953 -365.360244 
L 388.3183 -365.239918 
L 385.671647 -365.09622 
L 383.024993 -364.862461 
L 380.37834 -364.78952 
L 377.731687 -364.813962 
L 375.085033 -364.51989 
L 372.43838 -364.505935 
L 369.791727 -364.448662 
L 367.145073 -364.306548 
L 364.49842 -364.171455 
L 361.851767 -364.029769 
L 359.205113 -363.811633 
L 356.55846 -363.701367 
L 353.911807 -363.594739 
L 351.265153 -363.406396 
L 348.6185 -363.204612 
L 345.971847 -363.08176 
L 343.325193 -363.048757 
L 340.67854 -362.80023 
L 338.031887 -362.731356 
L 335.385233 -362.654178 
L 332.73858 -362.398887 
L 330.091927 -362.347393 
L 327.445273 -362.226254 
L 324.79862 -362.117186 
L 322.151967 -362.225398 
L 319.505313 -362.016294 
L 316.85866 -361.911378 
L 314.212007 -361.913989 
L 311.565353 -361.808217 
L 308.9187 -361.738316 
L 306.272047 -361.565254 
L 303.625393 -361.45914 
L 300.97874 -361.244857 
L 298.332087 -360.792619 
L 295.685433 -360.803106 
L 293.03878 -360.463189 
L 290.392127 -360.537157 
L 287.745473 -360.190476 
L 285.09882 -359.900685 
L 282.452167 -359.627244 
L 279.805513 -359.492236 
L 277.15886 -359.382312 
L 274.512207 -359.111655 
L 271.865553 -358.815699 
L 269.2189 -358.808293 
L 266.572247 -358.516704 
L 263.925593 -358.220063 
L 261.27894 -357.987973 
L 258.632287 -357.761704 
L 255.985633 -357.558892 
L 253.33898 -357.390796 
L 250.692327 -357.33425 
L 248.045673 -357.33669 
L 245.39902 -356.987185 
L 242.752367 -356.938644 
L 240.105713 -356.68361 
L 237.45906 -356.458967 
L 234.812407 -356.263005 
L 232.165753 -356.226278 
L 229.5191 -356.048122 
L 226.872447 -355.902713 
L 224.225793 -355.530521 
L 221.57914 -355.505993 
L 218.932487 -355.269408 
L 216.285833 -354.885958 
L 213.63918 -354.773209 
L 210.992527 -354.554924 
L 208.345873 -354.239128 
L 205.69922 -353.76645 
L 203.052567 -353.624358 
L 200.405913 -353.509661 
L 197.75926 -353.323929 
L 195.112607 -353.10635 
L 192.465953 -352.746421 
L 189.8193 -352.217412 
L 187.172647 -351.940355 
L 184.525993 -351.749443 
L 181.87934 -351.4485 
L 179.232687 -350.964265 
L 176.586033 -351.104795 
L 173.93938 -350.867739 
L 171.292727 -350.571184 
L 168.646073 -350.301019 
L 165.99942 -350.265533 
L 163.352767 -349.814023 
L 160.706113 -349.554452 
L 158.05946 -349.152488 
L 155.412807 -348.832519 
L 152.766153 -348.411208 
L 150.1195 -348.239751 
L 147.472847 -347.482547 
L 144.826193 -347.299276 
L 142.17954 -347.02849 
L 139.532887 -346.470737 
L 136.886233 -346.251445 
L 134.23958 -346.122665 
L 131.592927 -345.922015 
L 128.946273 -345.330981 
L 126.29962 -344.642608 
L 123.652967 -344.075459 
L 121.006313 -343.446243 
L 118.35966 -342.817433 
L 115.713007 -342.297348 
L 113.066353 -341.756739 
L 110.4197 -341.209644 
L 107.773047 -340.899841 
L 105.126393 -339.857361 
L 102.47974 -339.011999 
L 99.833087 -338.304128 
L 97.186433 -337.127817 
L 94.53978 -336.275649 
L 91.893127 -335.689452 
L 89.246473 -334.995664 
L 86.59982 -333.946934 
L 83.953167 -333.209912 
L 81.306513 -331.779894 
L 78.65986 -330.566878 
L 76.013207 -328.979015 
L 73.366553 -327.835172 
L 70.7199 -326.199731 
L 68.073247 -323.710304 
L 65.426593 -321.154913 
L 62.77994 -318.323599 
L 60.133287 -314.855899 
L 57.486633 -312.129288 
L 54.83998 -306.430062 
L 52.193327 -304.861504 
z
" style="stroke: #0000ff; stroke-opacity: 0.2"/>
    </defs>
    <g clip-path="url(#p6efe1934d1)">
     <use xlink:href="#m6fe4d924a4" x="0" y="432" style="fill: #0000ff; fill-opacity: 0.2; stroke: #0000ff; stroke-opacity: 0.2"/>
    </g>
   </g>
   <g id="matplotlib.axis_1">
    <g id="xtick_1">
     <g id="line2d_1">
      <defs>
       <path id="m24d4b7e0da" d="M 0 0 
L 0 3.5 
" style="stroke: #000000; stroke-width: 0.8"/>
      </defs>
      <g>
       <use xlink:href="#m24d4b7e0da" x="181.87934" y="390.04" style="stroke: #000000; stroke-width: 0.8"/>
      </g>
     </g>
     <g id="text_1">
      <!-- 50 -->
      <g transform="translate(175.51684 404.638438) scale(0.1 -0.1)">
       <defs>
        <path id="DejaVuSans-35" d="M 691 4666 
L 3169 4666 
L 3169 4134 
L 1269 4134 
L 1269 2991 
Q 1406 3038 1543 3061 
Q 1681 3084 1819 3084 
Q 2600 3084 3056 2656 
Q 3513 2228 3513 1497 
Q 3513 744 3044 326 
Q 2575 -91 1722 -91 
Q 1428 -91 1123 -41 
Q 819 9 494 109 
L 494 744 
Q 775 591 1075 516 
Q 1375 441 1709 441 
Q 2250 441 2565 725 
Q 2881 1009 2881 1497 
Q 2881 1984 2565 2268 
Q 2250 2553 1709 2553 
Q 1456 2553 1204 2497 
Q 953 2441 691 2322 
L 691 4666 
z
" transform="scale(0.015625)"/>
        <path id="DejaVuSans-30" d="M 2034 4250 
Q 1547 4250 1301 3770 
Q 1056 3291 1056 2328 
Q 1056 1369 1301 889 
Q 1547 409 2034 409 
Q 2525 409 2770 889 
Q 3016 1369 3016 2328 
Q 3016 3291 2770 3770 
Q 2525 4250 2034 4250 
z
M 2034 4750 
Q 2819 4750 3233 4129 
Q 3647 3509 3647 2328 
Q 3647 1150 3233 529 
Q 2819 -91 2034 -91 
Q 1250 -91 836 529 
Q 422 1150 422 2328 
Q 422 3509 836 4129 
Q 1250 4750 2034 4750 
z
" transform="scale(0.015625)"/>
       </defs>
       <use xlink:href="#DejaVuSans-35"/>
       <use xlink:href="#DejaVuSans-30" transform="translate(63.623047 0)"/>
      </g>
     </g>
    </g>
    <g id="xtick_2">
     <g id="line2d_2">
      <g>
       <use xlink:href="#m24d4b7e0da" x="314.212007" y="390.04" style="stroke: #000000; stroke-width: 0.8"/>
      </g>
     </g>
     <g id="text_2">
      <!-- 100 -->
      <g transform="translate(304.668257 404.638438) scale(0.1 -0.1)">
       <defs>
        <path id="DejaVuSans-31" d="M 794 531 
L 1825 531 
L 1825 4091 
L 703 3866 
L 703 4441 
L 1819 4666 
L 2450 4666 
L 2450 531 
L 3481 531 
L 3481 0 
L 794 0 
L 794 531 
z
" transform="scale(0.015625)"/>
       </defs>
       <use xlink:href="#DejaVuSans-31"/>
       <use xlink:href="#DejaVuSans-30" transform="translate(63.623047 0)"/>
       <use xlink:href="#DejaVuSans-30" transform="translate(127.246094 0)"/>
      </g>
     </g>
    </g>
    <g id="xtick_3">
     <g id="line2d_3">
      <g>
       <use xlink:href="#m24d4b7e0da" x="446.544673" y="390.04" style="stroke: #000000; stroke-width: 0.8"/>
      </g>
     </g>
     <g id="text_3">
      <!-- 150 -->
      <g transform="translate(437.000923 404.638438) scale(0.1 -0.1)">
       <use xlink:href="#DejaVuSans-31"/>
       <use xlink:href="#DejaVuSans-35" transform="translate(63.623047 0)"/>
       <use xlink:href="#DejaVuSans-30" transform="translate(127.246094 0)"/>
      </g>
     </g>
    </g>
    <g id="xtick_4">
     <g id="line2d_4">
      <g>
       <use xlink:href="#m24d4b7e0da" x="578.87734" y="390.04" style="stroke: #000000; stroke-width: 0.8"/>
      </g>
     </g>
     <g id="text_4">
      <!-- 200 -->
      <g transform="translate(569.33359 404.638438) scale(0.1 -0.1)">
       <defs>
        <path id="DejaVuSans-32" d="M 1228 531 
L 3431 531 
L 3431 0 
L 469 0 
L 469 531 
Q 828 903 1448 1529 
Q 2069 2156 2228 2338 
Q 2531 2678 2651 2914 
Q 2772 3150 2772 3378 
Q 2772 3750 2511 3984 
Q 2250 4219 1831 4219 
Q 1534 4219 1204 4116 
Q 875 4013 500 3803 
L 500 4441 
Q 881 4594 1212 4672 
Q 1544 4750 1819 4750 
Q 2544 4750 2975 4387 
Q 3406 4025 3406 3419 
Q 3406 3131 3298 2873 
Q 3191 2616 2906 2266 
Q 2828 2175 2409 1742 
Q 1991 1309 1228 531 
z
" transform="scale(0.015625)"/>
       </defs>
       <use xlink:href="#DejaVuSans-32"/>
       <use xlink:href="#DejaVuSans-30" transform="translate(63.623047 0)"/>
       <use xlink:href="#DejaVuSans-30" transform="translate(127.246094 0)"/>
      </g>
     </g>
    </g>
    <g id="xtick_5">
     <g id="line2d_5">
      <g>
       <use xlink:href="#m24d4b7e0da" x="711.210007" y="390.04" style="stroke: #000000; stroke-width: 0.8"/>
      </g>
     </g>
     <g id="text_5">
      <!-- 250 -->
      <g transform="translate(701.666257 404.638438) scale(0.1 -0.1)">
       <use xlink:href="#DejaVuSans-32"/>
       <use xlink:href="#DejaVuSans-35" transform="translate(63.623047 0)"/>
       <use xlink:href="#DejaVuSans-30" transform="translate(127.246094 0)"/>
      </g>
     </g>
    </g>
    <g id="xtick_6">
     <g id="line2d_6">
      <g>
       <use xlink:href="#m24d4b7e0da" x="843.542673" y="390.04" style="stroke: #000000; stroke-width: 0.8"/>
      </g>
     </g>
     <g id="text_6">
      <!-- 300 -->
      <g transform="translate(833.998923 404.638438) scale(0.1 -0.1)">
       <defs>
        <path id="DejaVuSans-33" d="M 2597 2516 
Q 3050 2419 3304 2112 
Q 3559 1806 3559 1356 
Q 3559 666 3084 287 
Q 2609 -91 1734 -91 
Q 1441 -91 1130 -33 
Q 819 25 488 141 
L 488 750 
Q 750 597 1062 519 
Q 1375 441 1716 441 
Q 2309 441 2620 675 
Q 2931 909 2931 1356 
Q 2931 1769 2642 2001 
Q 2353 2234 1838 2234 
L 1294 2234 
L 1294 2753 
L 1863 2753 
Q 2328 2753 2575 2939 
Q 2822 3125 2822 3475 
Q 2822 3834 2567 4026 
Q 2313 4219 1838 4219 
Q 1578 4219 1281 4162 
Q 984 4106 628 3988 
L 628 4550 
Q 988 4650 1302 4700 
Q 1616 4750 1894 4750 
Q 2613 4750 3031 4423 
Q 3450 4097 3450 3541 
Q 3450 3153 3228 2886 
Q 3006 2619 2597 2516 
z
" transform="scale(0.015625)"/>
       </defs>
       <use xlink:href="#DejaVuSans-33"/>
       <use xlink:href="#DejaVuSans-30" transform="translate(63.623047 0)"/>
       <use xlink:href="#DejaVuSans-30" transform="translate(127.246094 0)"/>
      </g>
     </g>
    </g>
    <g id="text_7">
     <!-- Step -->
     <g transform="translate(436.482844 418.316562) scale(0.1 -0.1)">
      <defs>
       <path id="DejaVuSans-53" d="M 3425 4513 
L 3425 3897 
Q 3066 4069 2747 4153 
Q 2428 4238 2131 4238 
Q 1616 4238 1336 4038 
Q 1056 3838 1056 3469 
Q 1056 3159 1242 3001 
Q 1428 2844 1947 2747 
L 2328 2669 
Q 3034 2534 3370 2195 
Q 3706 1856 3706 1288 
Q 3706 609 3251 259 
Q 2797 -91 1919 -91 
Q 1588 -91 1214 -16 
Q 841 59 441 206 
L 441 856 
Q 825 641 1194 531 
Q 1563 422 1919 422 
Q 2459 422 2753 634 
Q 3047 847 3047 1241 
Q 3047 1584 2836 1778 
Q 2625 1972 2144 2069 
L 1759 2144 
Q 1053 2284 737 2584 
Q 422 2884 422 3419 
Q 422 4038 858 4394 
Q 1294 4750 2059 4750 
Q 2388 4750 2728 4690 
Q 3069 4631 3425 4513 
z
" transform="scale(0.015625)"/>
       <path id="DejaVuSans-74" d="M 1172 4494 
L 1172 3500 
L 2356 3500 
L 2356 3053 
L 1172 3053 
L 1172 1153 
Q 1172 725 1289 603 
Q 1406 481 1766 481 
L 2356 481 
L 2356 0 
L 1766 0 
Q 1100 0 847 248 
Q 594 497 594 1153 
L 594 3053 
L 172 3053 
L 172 3500 
L 594 3500 
L 594 4494 
L 1172 4494 
z
" transform="scale(0.015625)"/>
       <path id="DejaVuSans-65" d="M 3597 1894 
L 3597 1613 
L 953 1613 
Q 991 1019 1311 708 
Q 1631 397 2203 397 
Q 2534 397 2845 478 
Q 3156 559 3463 722 
L 3463 178 
Q 3153 47 2828 -22 
Q 2503 -91 2169 -91 
Q 1331 -91 842 396 
Q 353 884 353 1716 
Q 353 2575 817 3079 
Q 1281 3584 2069 3584 
Q 2775 3584 3186 3129 
Q 3597 2675 3597 1894 
z
M 3022 2063 
Q 3016 2534 2758 2815 
Q 2500 3097 2075 3097 
Q 1594 3097 1305 2825 
Q 1016 2553 972 2059 
L 3022 2063 
z
" transform="scale(0.015625)"/>
       <path id="DejaVuSans-70" d="M 1159 525 
L 1159 -1331 
L 581 -1331 
L 581 3500 
L 1159 3500 
L 1159 2969 
Q 1341 3281 1617 3432 
Q 1894 3584 2278 3584 
Q 2916 3584 3314 3078 
Q 3713 2572 3713 1747 
Q 3713 922 3314 415 
Q 2916 -91 2278 -91 
Q 1894 -91 1617 61 
Q 1341 213 1159 525 
z
M 3116 1747 
Q 3116 2381 2855 2742 
Q 2594 3103 2138 3103 
Q 1681 3103 1420 2742 
Q 1159 2381 1159 1747 
Q 1159 1113 1420 752 
Q 1681 391 2138 391 
Q 2594 391 2855 752 
Q 3116 1113 3116 1747 
z
" transform="scale(0.015625)"/>
      </defs>
      <use xlink:href="#DejaVuSans-53"/>
      <use xlink:href="#DejaVuSans-74" transform="translate(63.476562 0)"/>
      <use xlink:href="#DejaVuSans-65" transform="translate(102.685547 0)"/>
      <use xlink:href="#DejaVuSans-70" transform="translate(164.208984 0)"/>
     </g>
    </g>
   </g>
   <g id="matplotlib.axis_2">
    <g id="ytick_1">
     <g id="line2d_7">
      <defs>
       <path id="m25047b6732" d="M 0 0 
L -3.5 0 
" style="stroke: #000000; stroke-width: 0.8"/>
      </defs>
      <g>
       <use xlink:href="#m25047b6732" x="50.87" y="379.983525" style="stroke: #000000; stroke-width: 0.8"/>
      </g>
     </g>
     <g id="text_8">
      <!-- 20 -->
      <g transform="translate(31.145 383.782743) scale(0.1 -0.1)">
       <use xlink:href="#DejaVuSans-32"/>
       <use xlink:href="#DejaVuSans-30" transform="translate(63.623047 0)"/>
      </g>
     </g>
    </g>
    <g id="ytick_2">
     <g id="line2d_8">
      <g>
       <use xlink:href="#m25047b6732" x="50.87" y="323.877765" style="stroke: #000000; stroke-width: 0.8"/>
      </g>
     </g>
     <g id="text_9">
      <!-- 40 -->
      <g transform="translate(31.145 327.676984) scale(0.1 -0.1)">
       <defs>
        <path id="DejaVuSans-34" d="M 2419 4116 
L 825 1625 
L 2419 1625 
L 2419 4116 
z
M 2253 4666 
L 3047 4666 
L 3047 1625 
L 3713 1625 
L 3713 1100 
L 3047 1100 
L 3047 0 
L 2419 0 
L 2419 1100 
L 313 1100 
L 313 1709 
L 2253 4666 
z
" transform="scale(0.015625)"/>
       </defs>
       <use xlink:href="#DejaVuSans-34"/>
       <use xlink:href="#DejaVuSans-30" transform="translate(63.623047 0)"/>
      </g>
     </g>
    </g>
    <g id="ytick_3">
     <g id="line2d_9">
      <g>
       <use xlink:href="#m25047b6732" x="50.87" y="267.772005" style="stroke: #000000; stroke-width: 0.8"/>
      </g>
     </g>
     <g id="text_10">
      <!-- 60 -->
      <g transform="translate(31.145 271.571224) scale(0.1 -0.1)">
       <defs>
        <path id="DejaVuSans-36" d="M 2113 2584 
Q 1688 2584 1439 2293 
Q 1191 2003 1191 1497 
Q 1191 994 1439 701 
Q 1688 409 2113 409 
Q 2538 409 2786 701 
Q 3034 994 3034 1497 
Q 3034 2003 2786 2293 
Q 2538 2584 2113 2584 
z
M 3366 4563 
L 3366 3988 
Q 3128 4100 2886 4159 
Q 2644 4219 2406 4219 
Q 1781 4219 1451 3797 
Q 1122 3375 1075 2522 
Q 1259 2794 1537 2939 
Q 1816 3084 2150 3084 
Q 2853 3084 3261 2657 
Q 3669 2231 3669 1497 
Q 3669 778 3244 343 
Q 2819 -91 2113 -91 
Q 1303 -91 875 529 
Q 447 1150 447 2328 
Q 447 3434 972 4092 
Q 1497 4750 2381 4750 
Q 2619 4750 2861 4703 
Q 3103 4656 3366 4563 
z
" transform="scale(0.015625)"/>
       </defs>
       <use xlink:href="#DejaVuSans-36"/>
       <use xlink:href="#DejaVuSans-30" transform="translate(63.623047 0)"/>
      </g>
     </g>
    </g>
    <g id="ytick_4">
     <g id="line2d_10">
      <g>
       <use xlink:href="#m25047b6732" x="50.87" y="211.666245" style="stroke: #000000; stroke-width: 0.8"/>
      </g>
     </g>
     <g id="text_11">
      <!-- 80 -->
      <g transform="translate(31.145 215.465464) scale(0.1 -0.1)">
       <defs>
        <path id="DejaVuSans-38" d="M 2034 2216 
Q 1584 2216 1326 1975 
Q 1069 1734 1069 1313 
Q 1069 891 1326 650 
Q 1584 409 2034 409 
Q 2484 409 2743 651 
Q 3003 894 3003 1313 
Q 3003 1734 2745 1975 
Q 2488 2216 2034 2216 
z
M 1403 2484 
Q 997 2584 770 2862 
Q 544 3141 544 3541 
Q 544 4100 942 4425 
Q 1341 4750 2034 4750 
Q 2731 4750 3128 4425 
Q 3525 4100 3525 3541 
Q 3525 3141 3298 2862 
Q 3072 2584 2669 2484 
Q 3125 2378 3379 2068 
Q 3634 1759 3634 1313 
Q 3634 634 3220 271 
Q 2806 -91 2034 -91 
Q 1263 -91 848 271 
Q 434 634 434 1313 
Q 434 1759 690 2068 
Q 947 2378 1403 2484 
z
M 1172 3481 
Q 1172 3119 1398 2916 
Q 1625 2713 2034 2713 
Q 2441 2713 2670 2916 
Q 2900 3119 2900 3481 
Q 2900 3844 2670 4047 
Q 2441 4250 2034 4250 
Q 1625 4250 1398 4047 
Q 1172 3844 1172 3481 
z
" transform="scale(0.015625)"/>
       </defs>
       <use xlink:href="#DejaVuSans-38"/>
       <use xlink:href="#DejaVuSans-30" transform="translate(63.623047 0)"/>
      </g>
     </g>
    </g>
    <g id="ytick_5">
     <g id="line2d_11">
      <g>
       <use xlink:href="#m25047b6732" x="50.87" y="155.560485" style="stroke: #000000; stroke-width: 0.8"/>
      </g>
     </g>
     <g id="text_12">
      <!-- 100 -->
      <g transform="translate(24.7825 159.359704) scale(0.1 -0.1)">
       <use xlink:href="#DejaVuSans-31"/>
       <use xlink:href="#DejaVuSans-30" transform="translate(63.623047 0)"/>
       <use xlink:href="#DejaVuSans-30" transform="translate(127.246094 0)"/>
      </g>
     </g>
    </g>
    <g id="ytick_6">
     <g id="line2d_12">
      <g>
       <use xlink:href="#m25047b6732" x="50.87" y="99.454726" style="stroke: #000000; stroke-width: 0.8"/>
      </g>
     </g>
     <g id="text_13">
      <!-- 120 -->
      <g transform="translate(24.7825 103.253944) scale(0.1 -0.1)">
       <use xlink:href="#DejaVuSans-31"/>
       <use xlink:href="#DejaVuSans-32" transform="translate(63.623047 0)"/>
       <use xlink:href="#DejaVuSans-30" transform="translate(127.246094 0)"/>
      </g>
     </g>
    </g>
    <g id="text_14">
     <!-- Profit -->
     <g transform="translate(18.702813 229.779063) rotate(-90) scale(0.1 -0.1)">
      <defs>
       <path id="DejaVuSans-50" d="M 1259 4147 
L 1259 2394 
L 2053 2394 
Q 2494 2394 2734 2622 
Q 2975 2850 2975 3272 
Q 2975 3691 2734 3919 
Q 2494 4147 2053 4147 
L 1259 4147 
z
M 628 4666 
L 2053 4666 
Q 2838 4666 3239 4311 
Q 3641 3956 3641 3272 
Q 3641 2581 3239 2228 
Q 2838 1875 2053 1875 
L 1259 1875 
L 1259 0 
L 628 0 
L 628 4666 
z
" transform="scale(0.015625)"/>
       <path id="DejaVuSans-72" d="M 2631 2963 
Q 2534 3019 2420 3045 
Q 2306 3072 2169 3072 
Q 1681 3072 1420 2755 
Q 1159 2438 1159 1844 
L 1159 0 
L 581 0 
L 581 3500 
L 1159 3500 
L 1159 2956 
Q 1341 3275 1631 3429 
Q 1922 3584 2338 3584 
Q 2397 3584 2469 3576 
Q 2541 3569 2628 3553 
L 2631 2963 
z
" transform="scale(0.015625)"/>
       <path id="DejaVuSans-6f" d="M 1959 3097 
Q 1497 3097 1228 2736 
Q 959 2375 959 1747 
Q 959 1119 1226 758 
Q 1494 397 1959 397 
Q 2419 397 2687 759 
Q 2956 1122 2956 1747 
Q 2956 2369 2687 2733 
Q 2419 3097 1959 3097 
z
M 1959 3584 
Q 2709 3584 3137 3096 
Q 3566 2609 3566 1747 
Q 3566 888 3137 398 
Q 2709 -91 1959 -91 
Q 1206 -91 779 398 
Q 353 888 353 1747 
Q 353 2609 779 3096 
Q 1206 3584 1959 3584 
z
" transform="scale(0.015625)"/>
       <path id="DejaVuSans-66" d="M 2375 4863 
L 2375 4384 
L 1825 4384 
Q 1516 4384 1395 4259 
Q 1275 4134 1275 3809 
L 1275 3500 
L 2222 3500 
L 2222 3053 
L 1275 3053 
L 1275 0 
L 697 0 
L 697 3053 
L 147 3053 
L 147 3500 
L 697 3500 
L 697 3744 
Q 697 4328 969 4595 
Q 1241 4863 1831 4863 
L 2375 4863 
z
" transform="scale(0.015625)"/>
       <path id="DejaVuSans-69" d="M 603 3500 
L 1178 3500 
L 1178 0 
L 603 0 
L 603 3500 
z
M 603 4863 
L 1178 4863 
L 1178 4134 
L 603 4134 
L 603 4863 
z
" transform="scale(0.015625)"/>
      </defs>
      <use xlink:href="#DejaVuSans-50"/>
      <use xlink:href="#DejaVuSans-72" transform="translate(58.552734 0)"/>
      <use xlink:href="#DejaVuSans-6f" transform="translate(97.416016 0)"/>
      <use xlink:href="#DejaVuSans-66" transform="translate(158.597656 0)"/>
      <use xlink:href="#DejaVuSans-69" transform="translate(193.802734 0)"/>
      <use xlink:href="#DejaVuSans-74" transform="translate(221.585938 0)"/>
     </g>
    </g>
   </g>
   <g id="line2d_13">
    <path d="M 52.193327 250.481297 
L 54.83998 249.927696 
L 57.486633 241.483709 
L 60.133287 233.464287 
L 62.77994 226.712329 
L 65.426593 220.308271 
L 68.073247 214.832767 
L 70.7199 209.943139 
L 73.366553 205.576421 
L 76.013207 201.652524 
L 78.65986 198.338516 
L 81.306513 195.275326 
L 86.59982 189.789827 
L 89.246473 187.305793 
L 91.893127 184.982899 
L 94.53978 182.840944 
L 99.833087 179.067357 
L 105.126393 175.96087 
L 113.066353 171.621461 
L 118.35966 169.128973 
L 126.29962 165.826972 
L 134.23958 163.066309 
L 142.17954 160.538057 
L 163.352767 155.264423 
L 176.586033 152.435164 
L 179.232687 151.975863 
L 184.525993 150.844262 
L 192.465953 149.49917 
L 224.225793 144.740376 
L 240.105713 142.705241 
L 255.985633 140.805093 
L 258.632287 140.439172 
L 269.2189 139.451546 
L 277.15886 138.661468 
L 300.97874 136.60585 
L 314.212007 135.515899 
L 324.79862 134.619642 
L 351.265153 132.749607 
L 377.731687 131.02329 
L 404.19822 129.466183 
L 446.544673 127.386381 
L 459.77794 126.781606 
L 467.7179 126.490402 
L 475.65786 126.188218 
L 488.891127 125.568526 
L 557.704113 123.021846 
L 586.8173 122.243624 
L 605.343873 121.64161 
L 610.63718 121.509171 
L 618.57714 121.182566 
L 645.043673 120.461147 
L 652.983633 120.294164 
L 663.570247 119.891066 
L 690.03678 119.143536 
L 697.97674 118.928932 
L 716.503313 118.354592 
L 750.909807 117.551286 
L 756.203113 117.328163 
L 774.729687 116.888895 
L 793.25626 116.446631 
L 801.19622 116.286111 
L 806.489527 116.127154 
L 843.542673 115.316914 
L 843.542673 115.316914 
" clip-path="url(#p6efe1934d1)" style="fill: none; stroke: #0000ff; stroke-width: 1.5; stroke-linecap: square"/>
   </g>
   <g id="patch_3">
    <path d="M 50.87 390.04 
L 50.87 43.44 
" style="fill: none; stroke: #000000; stroke-width: 0.8; stroke-linejoin: miter; stroke-linecap: square"/>
   </g>
   <g id="patch_4">
    <path d="M 844.866 390.04 
L 844.866 43.44 
" style="fill: none; stroke: #000000; stroke-width: 0.8; stroke-linejoin: miter; stroke-linecap: square"/>
   </g>
   <g id="patch_5">
    <path d="M 50.87 390.04 
L 844.866 390.04 
" style="fill: none; stroke: #000000; stroke-width: 0.8; stroke-linejoin: miter; stroke-linecap: square"/>
   </g>
   <g id="patch_6">
    <path d="M 50.87 43.44 
L 844.866 43.44 
" style="fill: none; stroke: #000000; stroke-width: 0.8; stroke-linejoin: miter; stroke-linecap: square"/>
   </g>
   <g id="text_15">
    <!-- Mean profit per step with confidence interval per simulation step -->
    <g transform="translate(220.284875 21.763062) scale(0.14 -0.14)">
     <defs>
      <path id="DejaVuSans-4d" d="M 628 4666 
L 1569 4666 
L 2759 1491 
L 3956 4666 
L 4897 4666 
L 4897 0 
L 4281 0 
L 4281 4097 
L 3078 897 
L 2444 897 
L 1241 4097 
L 1241 0 
L 628 0 
L 628 4666 
z
" transform="scale(0.015625)"/>
      <path id="DejaVuSans-61" d="M 2194 1759 
Q 1497 1759 1228 1600 
Q 959 1441 959 1056 
Q 959 750 1161 570 
Q 1363 391 1709 391 
Q 2188 391 2477 730 
Q 2766 1069 2766 1631 
L 2766 1759 
L 2194 1759 
z
M 3341 1997 
L 3341 0 
L 2766 0 
L 2766 531 
Q 2569 213 2275 61 
Q 1981 -91 1556 -91 
Q 1019 -91 701 211 
Q 384 513 384 1019 
Q 384 1609 779 1909 
Q 1175 2209 1959 2209 
L 2766 2209 
L 2766 2266 
Q 2766 2663 2505 2880 
Q 2244 3097 1772 3097 
Q 1472 3097 1187 3025 
Q 903 2953 641 2809 
L 641 3341 
Q 956 3463 1253 3523 
Q 1550 3584 1831 3584 
Q 2591 3584 2966 3190 
Q 3341 2797 3341 1997 
z
" transform="scale(0.015625)"/>
      <path id="DejaVuSans-6e" d="M 3513 2113 
L 3513 0 
L 2938 0 
L 2938 2094 
Q 2938 2591 2744 2837 
Q 2550 3084 2163 3084 
Q 1697 3084 1428 2787 
Q 1159 2491 1159 1978 
L 1159 0 
L 581 0 
L 581 3500 
L 1159 3500 
L 1159 2956 
Q 1366 3272 1645 3428 
Q 1925 3584 2291 3584 
Q 2894 3584 3203 3211 
Q 3513 2838 3513 2113 
z
" transform="scale(0.015625)"/>
      <path id="DejaVuSans-20" transform="scale(0.015625)"/>
      <path id="DejaVuSans-73" d="M 2834 3397 
L 2834 2853 
Q 2591 2978 2328 3040 
Q 2066 3103 1784 3103 
Q 1356 3103 1142 2972 
Q 928 2841 928 2578 
Q 928 2378 1081 2264 
Q 1234 2150 1697 2047 
L 1894 2003 
Q 2506 1872 2764 1633 
Q 3022 1394 3022 966 
Q 3022 478 2636 193 
Q 2250 -91 1575 -91 
Q 1294 -91 989 -36 
Q 684 19 347 128 
L 347 722 
Q 666 556 975 473 
Q 1284 391 1588 391 
Q 1994 391 2212 530 
Q 2431 669 2431 922 
Q 2431 1156 2273 1281 
Q 2116 1406 1581 1522 
L 1381 1569 
Q 847 1681 609 1914 
Q 372 2147 372 2553 
Q 372 3047 722 3315 
Q 1072 3584 1716 3584 
Q 2034 3584 2315 3537 
Q 2597 3491 2834 3397 
z
" transform="scale(0.015625)"/>
      <path id="DejaVuSans-77" d="M 269 3500 
L 844 3500 
L 1563 769 
L 2278 3500 
L 2956 3500 
L 3675 769 
L 4391 3500 
L 4966 3500 
L 4050 0 
L 3372 0 
L 2619 2869 
L 1863 0 
L 1184 0 
L 269 3500 
z
" transform="scale(0.015625)"/>
      <path id="DejaVuSans-68" d="M 3513 2113 
L 3513 0 
L 2938 0 
L 2938 2094 
Q 2938 2591 2744 2837 
Q 2550 3084 2163 3084 
Q 1697 3084 1428 2787 
Q 1159 2491 1159 1978 
L 1159 0 
L 581 0 
L 581 4863 
L 1159 4863 
L 1159 2956 
Q 1366 3272 1645 3428 
Q 1925 3584 2291 3584 
Q 2894 3584 3203 3211 
Q 3513 2838 3513 2113 
z
" transform="scale(0.015625)"/>
      <path id="DejaVuSans-63" d="M 3122 3366 
L 3122 2828 
Q 2878 2963 2633 3030 
Q 2388 3097 2138 3097 
Q 1578 3097 1268 2742 
Q 959 2388 959 1747 
Q 959 1106 1268 751 
Q 1578 397 2138 397 
Q 2388 397 2633 464 
Q 2878 531 3122 666 
L 3122 134 
Q 2881 22 2623 -34 
Q 2366 -91 2075 -91 
Q 1284 -91 818 406 
Q 353 903 353 1747 
Q 353 2603 823 3093 
Q 1294 3584 2113 3584 
Q 2378 3584 2631 3529 
Q 2884 3475 3122 3366 
z
" transform="scale(0.015625)"/>
      <path id="DejaVuSans-64" d="M 2906 2969 
L 2906 4863 
L 3481 4863 
L 3481 0 
L 2906 0 
L 2906 525 
Q 2725 213 2448 61 
Q 2172 -91 1784 -91 
Q 1150 -91 751 415 
Q 353 922 353 1747 
Q 353 2572 751 3078 
Q 1150 3584 1784 3584 
Q 2172 3584 2448 3432 
Q 2725 3281 2906 2969 
z
M 947 1747 
Q 947 1113 1208 752 
Q 1469 391 1925 391 
Q 2381 391 2643 752 
Q 2906 1113 2906 1747 
Q 2906 2381 2643 2742 
Q 2381 3103 1925 3103 
Q 1469 3103 1208 2742 
Q 947 2381 947 1747 
z
" transform="scale(0.015625)"/>
      <path id="DejaVuSans-76" d="M 191 3500 
L 800 3500 
L 1894 563 
L 2988 3500 
L 3597 3500 
L 2284 0 
L 1503 0 
L 191 3500 
z
" transform="scale(0.015625)"/>
      <path id="DejaVuSans-6c" d="M 603 4863 
L 1178 4863 
L 1178 0 
L 603 0 
L 603 4863 
z
" transform="scale(0.015625)"/>
      <path id="DejaVuSans-6d" d="M 3328 2828 
Q 3544 3216 3844 3400 
Q 4144 3584 4550 3584 
Q 5097 3584 5394 3201 
Q 5691 2819 5691 2113 
L 5691 0 
L 5113 0 
L 5113 2094 
Q 5113 2597 4934 2840 
Q 4756 3084 4391 3084 
Q 3944 3084 3684 2787 
Q 3425 2491 3425 1978 
L 3425 0 
L 2847 0 
L 2847 2094 
Q 2847 2600 2669 2842 
Q 2491 3084 2119 3084 
Q 1678 3084 1418 2786 
Q 1159 2488 1159 1978 
L 1159 0 
L 581 0 
L 581 3500 
L 1159 3500 
L 1159 2956 
Q 1356 3278 1631 3431 
Q 1906 3584 2284 3584 
Q 2666 3584 2933 3390 
Q 3200 3197 3328 2828 
z
" transform="scale(0.015625)"/>
      <path id="DejaVuSans-75" d="M 544 1381 
L 544 3500 
L 1119 3500 
L 1119 1403 
Q 1119 906 1312 657 
Q 1506 409 1894 409 
Q 2359 409 2629 706 
Q 2900 1003 2900 1516 
L 2900 3500 
L 3475 3500 
L 3475 0 
L 2900 0 
L 2900 538 
Q 2691 219 2414 64 
Q 2138 -91 1772 -91 
Q 1169 -91 856 284 
Q 544 659 544 1381 
z
M 1991 3584 
L 1991 3584 
z
" transform="scale(0.015625)"/>
     </defs>
     <use xlink:href="#DejaVuSans-4d"/>
     <use xlink:href="#DejaVuSans-65" transform="translate(86.279297 0)"/>
     <use xlink:href="#DejaVuSans-61" transform="translate(147.802734 0)"/>
     <use xlink:href="#DejaVuSans-6e" transform="translate(209.082031 0)"/>
     <use xlink:href="#DejaVuSans-20" transform="translate(272.460938 0)"/>
     <use xlink:href="#DejaVuSans-70" transform="translate(304.248047 0)"/>
     <use xlink:href="#DejaVuSans-72" transform="translate(367.724609 0)"/>
     <use xlink:href="#DejaVuSans-6f" transform="translate(406.587891 0)"/>
     <use xlink:href="#DejaVuSans-66" transform="translate(467.769531 0)"/>
     <use xlink:href="#DejaVuSans-69" transform="translate(502.974609 0)"/>
     <use xlink:href="#DejaVuSans-74" transform="translate(530.757812 0)"/>
     <use xlink:href="#DejaVuSans-20" transform="translate(569.966797 0)"/>
     <use xlink:href="#DejaVuSans-70" transform="translate(601.753906 0)"/>
     <use xlink:href="#DejaVuSans-65" transform="translate(665.230469 0)"/>
     <use xlink:href="#DejaVuSans-72" transform="translate(726.753906 0)"/>
     <use xlink:href="#DejaVuSans-20" transform="translate(767.867188 0)"/>
     <use xlink:href="#DejaVuSans-73" transform="translate(799.654297 0)"/>
     <use xlink:href="#DejaVuSans-74" transform="translate(851.753906 0)"/>
     <use xlink:href="#DejaVuSans-65" transform="translate(890.962891 0)"/>
     <use xlink:href="#DejaVuSans-70" transform="translate(952.486328 0)"/>
     <use xlink:href="#DejaVuSans-20" transform="translate(1015.962891 0)"/>
     <use xlink:href="#DejaVuSans-77" transform="translate(1047.75 0)"/>
     <use xlink:href="#DejaVuSans-69" transform="translate(1129.537109 0)"/>
     <use xlink:href="#DejaVuSans-74" transform="translate(1157.320312 0)"/>
     <use xlink:href="#DejaVuSans-68" transform="translate(1196.529297 0)"/>
     <use xlink:href="#DejaVuSans-20" transform="translate(1259.908203 0)"/>
     <use xlink:href="#DejaVuSans-63" transform="translate(1291.695312 0)"/>
     <use xlink:href="#DejaVuSans-6f" transform="translate(1346.675781 0)"/>
     <use xlink:href="#DejaVuSans-6e" transform="translate(1407.857422 0)"/>
     <use xlink:href="#DejaVuSans-66" transform="translate(1471.236328 0)"/>
     <use xlink:href="#DejaVuSans-69" transform="translate(1506.441406 0)"/>
     <use xlink:href="#DejaVuSans-64" transform="translate(1534.224609 0)"/>
     <use xlink:href="#DejaVuSans-65" transform="translate(1597.701172 0)"/>
     <use xlink:href="#DejaVuSans-6e" transform="translate(1659.224609 0)"/>
     <use xlink:href="#DejaVuSans-63" transform="translate(1722.603516 0)"/>
     <use xlink:href="#DejaVuSans-65" transform="translate(1777.583984 0)"/>
     <use xlink:href="#DejaVuSans-20" transform="translate(1839.107422 0)"/>
     <use xlink:href="#DejaVuSans-69" transform="translate(1870.894531 0)"/>
     <use xlink:href="#DejaVuSans-6e" transform="translate(1898.677734 0)"/>
     <use xlink:href="#DejaVuSans-74" transform="translate(1962.056641 0)"/>
     <use xlink:href="#DejaVuSans-65" transform="translate(2001.265625 0)"/>
     <use xlink:href="#DejaVuSans-72" transform="translate(2062.789062 0)"/>
     <use xlink:href="#DejaVuSans-76" transform="translate(2103.902344 0)"/>
     <use xlink:href="#DejaVuSans-61" transform="translate(2163.082031 0)"/>
     <use xlink:href="#DejaVuSans-6c" transform="translate(2224.361328 0)"/>
     <use xlink:href="#DejaVuSans-20" transform="translate(2252.144531 0)"/>
     <use xlink:href="#DejaVuSans-70" transform="translate(2283.931641 0)"/>
     <use xlink:href="#DejaVuSans-65" transform="translate(2347.408203 0)"/>
     <use xlink:href="#DejaVuSans-72" transform="translate(2408.931641 0)"/>
     <use xlink:href="#DejaVuSans-20" transform="translate(2450.044922 0)"/>
     <use xlink:href="#DejaVuSans-73" transform="translate(2481.832031 0)"/>
     <use xlink:href="#DejaVuSans-69" transform="translate(2533.931641 0)"/>
     <use xlink:href="#DejaVuSans-6d" transform="translate(2561.714844 0)"/>
     <use xlink:href="#DejaVuSans-75" transform="translate(2659.126953 0)"/>
     <use xlink:href="#DejaVuSans-6c" transform="translate(2722.505859 0)"/>
     <use xlink:href="#DejaVuSans-61" transform="translate(2750.289062 0)"/>
     <use xlink:href="#DejaVuSans-74" transform="translate(2811.568359 0)"/>
     <use xlink:href="#DejaVuSans-69" transform="translate(2850.777344 0)"/>
     <use xlink:href="#DejaVuSans-6f" transform="translate(2878.560547 0)"/>
     <use xlink:href="#DejaVuSans-6e" transform="translate(2939.742188 0)"/>
     <use xlink:href="#DejaVuSans-20" transform="translate(3003.121094 0)"/>
     <use xlink:href="#DejaVuSans-73" transform="translate(3034.908203 0)"/>
     <use xlink:href="#DejaVuSans-74" transform="translate(3087.007812 0)"/>
     <use xlink:href="#DejaVuSans-65" transform="translate(3126.216797 0)"/>
     <use xlink:href="#DejaVuSans-70" transform="translate(3187.740234 0)"/>
    </g>
    <!-- Base Product: OG Kush, Recipe size: 8, T0: 10.0 -->
    <g transform="translate(281.490031 37.44) scale(0.14 -0.14)">
     <defs>
      <path id="DejaVuSans-42" d="M 1259 2228 
L 1259 519 
L 2272 519 
Q 2781 519 3026 730 
Q 3272 941 3272 1375 
Q 3272 1813 3026 2020 
Q 2781 2228 2272 2228 
L 1259 2228 
z
M 1259 4147 
L 1259 2741 
L 2194 2741 
Q 2656 2741 2882 2914 
Q 3109 3088 3109 3444 
Q 3109 3797 2882 3972 
Q 2656 4147 2194 4147 
L 1259 4147 
z
M 628 4666 
L 2241 4666 
Q 2963 4666 3353 4366 
Q 3744 4066 3744 3513 
Q 3744 3084 3544 2831 
Q 3344 2578 2956 2516 
Q 3422 2416 3680 2098 
Q 3938 1781 3938 1306 
Q 3938 681 3513 340 
Q 3088 0 2303 0 
L 628 0 
L 628 4666 
z
" transform="scale(0.015625)"/>
      <path id="DejaVuSans-3a" d="M 750 794 
L 1409 794 
L 1409 0 
L 750 0 
L 750 794 
z
M 750 3309 
L 1409 3309 
L 1409 2516 
L 750 2516 
L 750 3309 
z
" transform="scale(0.015625)"/>
      <path id="DejaVuSans-4f" d="M 2522 4238 
Q 1834 4238 1429 3725 
Q 1025 3213 1025 2328 
Q 1025 1447 1429 934 
Q 1834 422 2522 422 
Q 3209 422 3611 934 
Q 4013 1447 4013 2328 
Q 4013 3213 3611 3725 
Q 3209 4238 2522 4238 
z
M 2522 4750 
Q 3503 4750 4090 4092 
Q 4678 3434 4678 2328 
Q 4678 1225 4090 567 
Q 3503 -91 2522 -91 
Q 1538 -91 948 565 
Q 359 1222 359 2328 
Q 359 3434 948 4092 
Q 1538 4750 2522 4750 
z
" transform="scale(0.015625)"/>
      <path id="DejaVuSans-47" d="M 3809 666 
L 3809 1919 
L 2778 1919 
L 2778 2438 
L 4434 2438 
L 4434 434 
Q 4069 175 3628 42 
Q 3188 -91 2688 -91 
Q 1594 -91 976 548 
Q 359 1188 359 2328 
Q 359 3472 976 4111 
Q 1594 4750 2688 4750 
Q 3144 4750 3555 4637 
Q 3966 4525 4313 4306 
L 4313 3634 
Q 3963 3931 3569 4081 
Q 3175 4231 2741 4231 
Q 1884 4231 1454 3753 
Q 1025 3275 1025 2328 
Q 1025 1384 1454 906 
Q 1884 428 2741 428 
Q 3075 428 3337 486 
Q 3600 544 3809 666 
z
" transform="scale(0.015625)"/>
      <path id="DejaVuSans-4b" d="M 628 4666 
L 1259 4666 
L 1259 2694 
L 3353 4666 
L 4166 4666 
L 1850 2491 
L 4331 0 
L 3500 0 
L 1259 2247 
L 1259 0 
L 628 0 
L 628 4666 
z
" transform="scale(0.015625)"/>
      <path id="DejaVuSans-2c" d="M 750 794 
L 1409 794 
L 1409 256 
L 897 -744 
L 494 -744 
L 750 256 
L 750 794 
z
" transform="scale(0.015625)"/>
      <path id="DejaVuSans-52" d="M 2841 2188 
Q 3044 2119 3236 1894 
Q 3428 1669 3622 1275 
L 4263 0 
L 3584 0 
L 2988 1197 
Q 2756 1666 2539 1819 
Q 2322 1972 1947 1972 
L 1259 1972 
L 1259 0 
L 628 0 
L 628 4666 
L 2053 4666 
Q 2853 4666 3247 4331 
Q 3641 3997 3641 3322 
Q 3641 2881 3436 2590 
Q 3231 2300 2841 2188 
z
M 1259 4147 
L 1259 2491 
L 2053 2491 
Q 2509 2491 2742 2702 
Q 2975 2913 2975 3322 
Q 2975 3731 2742 3939 
Q 2509 4147 2053 4147 
L 1259 4147 
z
" transform="scale(0.015625)"/>
      <path id="DejaVuSans-7a" d="M 353 3500 
L 3084 3500 
L 3084 2975 
L 922 459 
L 3084 459 
L 3084 0 
L 275 0 
L 275 525 
L 2438 3041 
L 353 3041 
L 353 3500 
z
" transform="scale(0.015625)"/>
      <path id="DejaVuSans-54" d="M -19 4666 
L 3928 4666 
L 3928 4134 
L 2272 4134 
L 2272 0 
L 1638 0 
L 1638 4134 
L -19 4134 
L -19 4666 
z
" transform="scale(0.015625)"/>
      <path id="DejaVuSans-2e" d="M 684 794 
L 1344 794 
L 1344 0 
L 684 0 
L 684 794 
z
" transform="scale(0.015625)"/>
     </defs>
     <use xlink:href="#DejaVuSans-42"/>
     <use xlink:href="#DejaVuSans-61" transform="translate(68.603516 0)"/>
     <use xlink:href="#DejaVuSans-73" transform="translate(129.882812 0)"/>
     <use xlink:href="#DejaVuSans-65" transform="translate(181.982422 0)"/>
     <use xlink:href="#DejaVuSans-20" transform="translate(243.505859 0)"/>
     <use xlink:href="#DejaVuSans-50" transform="translate(275.292969 0)"/>
     <use xlink:href="#DejaVuSans-72" transform="translate(333.845703 0)"/>
     <use xlink:href="#DejaVuSans-6f" transform="translate(372.708984 0)"/>
     <use xlink:href="#DejaVuSans-64" transform="translate(433.890625 0)"/>
     <use xlink:href="#DejaVuSans-75" transform="translate(497.367188 0)"/>
     <use xlink:href="#DejaVuSans-63" transform="translate(560.746094 0)"/>
     <use xlink:href="#DejaVuSans-74" transform="translate(615.726562 0)"/>
     <use xlink:href="#DejaVuSans-3a" transform="translate(654.935547 0)"/>
     <use xlink:href="#DejaVuSans-20" transform="translate(688.626953 0)"/>
     <use xlink:href="#DejaVuSans-4f" transform="translate(720.414062 0)"/>
     <use xlink:href="#DejaVuSans-47" transform="translate(799.125 0)"/>
     <use xlink:href="#DejaVuSans-20" transform="translate(876.615234 0)"/>
     <use xlink:href="#DejaVuSans-4b" transform="translate(908.402344 0)"/>
     <use xlink:href="#DejaVuSans-75" transform="translate(968.978516 0)"/>
     <use xlink:href="#DejaVuSans-73" transform="translate(1032.357422 0)"/>
     <use xlink:href="#DejaVuSans-68" transform="translate(1084.457031 0)"/>
     <use xlink:href="#DejaVuSans-2c" transform="translate(1147.835938 0)"/>
     <use xlink:href="#DejaVuSans-20" transform="translate(1179.623047 0)"/>
     <use xlink:href="#DejaVuSans-52" transform="translate(1211.410156 0)"/>
     <use xlink:href="#DejaVuSans-65" transform="translate(1276.392578 0)"/>
     <use xlink:href="#DejaVuSans-63" transform="translate(1337.916016 0)"/>
     <use xlink:href="#DejaVuSans-69" transform="translate(1392.896484 0)"/>
     <use xlink:href="#DejaVuSans-70" transform="translate(1420.679688 0)"/>
     <use xlink:href="#DejaVuSans-65" transform="translate(1484.15625 0)"/>
     <use xlink:href="#DejaVuSans-20" transform="translate(1545.679688 0)"/>
     <use xlink:href="#DejaVuSans-73" transform="translate(1577.466797 0)"/>
     <use xlink:href="#DejaVuSans-69" transform="translate(1629.566406 0)"/>
     <use xlink:href="#DejaVuSans-7a" transform="translate(1657.349609 0)"/>
     <use xlink:href="#DejaVuSans-65" transform="translate(1709.839844 0)"/>
     <use xlink:href="#DejaVuSans-3a" transform="translate(1771.363281 0)"/>
     <use xlink:href="#DejaVuSans-20" transform="translate(1805.054688 0)"/>
     <use xlink:href="#DejaVuSans-38" transform="translate(1836.841797 0)"/>
     <use xlink:href="#DejaVuSans-2c" transform="translate(1900.464844 0)"/>
     <use xlink:href="#DejaVuSans-20" transform="translate(1932.251953 0)"/>
     <use xlink:href="#DejaVuSans-54" transform="translate(1964.039062 0)"/>
     <use xlink:href="#DejaVuSans-30" transform="translate(2025.123047 0)"/>
     <use xlink:href="#DejaVuSans-3a" transform="translate(2088.746094 0)"/>
     <use xlink:href="#DejaVuSans-20" transform="translate(2122.4375 0)"/>
     <use xlink:href="#DejaVuSans-31" transform="translate(2154.224609 0)"/>
     <use xlink:href="#DejaVuSans-30" transform="translate(2217.847656 0)"/>
     <use xlink:href="#DejaVuSans-2e" transform="translate(2281.470703 0)"/>
     <use xlink:href="#DejaVuSans-30" transform="translate(2313.257812 0)"/>
    </g>
   </g>
  </g>
 </g>
 <defs>
  <clipPath id="p6efe1934d1">
   <rect x="50.87" y="43.44" width="793.996" height="346.6"/>
  </clipPath>
 </defs>
</svg>
