<?xml version="1.0" encoding="utf-8" standalone="no"?>
<!DOCTYPE svg PUBLIC "-//W3C//DTD SVG 1.1//EN"
  "http://www.w3.org/Graphics/SVG/1.1/DTD/svg11.dtd">
<svg xmlns:xlink="http://www.w3.org/1999/xlink" width="864pt" height="432pt" viewBox="0 0 864 432" xmlns="http://www.w3.org/2000/svg" version="1.1">
 <metadata>
  <rdf:RDF xmlns:dc="http://purl.org/dc/elements/1.1/" xmlns:cc="http://creativecommons.org/ns#" xmlns:rdf="http://www.w3.org/1999/02/22-rdf-syntax-ns#">
   <cc:Work>
    <dc:type rdf:resource="http://purl.org/dc/dcmitype/StillImage"/>
    <dc:date>2025-05-24T02:01:20.370801</dc:date>
    <dc:format>image/svg+xml</dc:format>
    <dc:creator>
     <cc:Agent>
      <dc:title>Matplotlib v3.10.3, https://matplotlib.org/</dc:title>
     </cc:Agent>
    </dc:creator>
   </cc:Work>
  </rdf:RDF>
 </metadata>
 <defs>
  <style type="text/css">*{stroke-linejoin: round; stroke-linecap: butt}</style>
 </defs>
 <g id="figure_1">
  <g id="patch_1">
   <path d="M 0 432 
L 864 432 
L 864 0 
L 0 0 
z
" style="fill: #ffffff"/>
  </g>
  <g id="axes_1">
   <g id="patch_2">
    <path d="M 50.87 390.04 
L 844.866 390.04 
L 844.866 43.44 
L 50.87 43.44 
z
" style="fill: #ffffff"/>
   </g>
   <g id="FillBetweenPolyCollection_1">
    <defs>
     <path id="mb77443944a" d="M 52.193327 -300.44245 
L 52.193327 -57.714545 
L 54.83998 -58.170865 
L 57.486633 -64.748285 
L 60.133287 -70.834683 
L 62.77994 -78.398571 
L 65.426593 -84.844694 
L 68.073247 -90.644658 
L 70.7199 -96.254077 
L 73.366553 -100.72305 
L 76.013207 -105.736583 
L 78.65986 -109.264789 
L 81.306513 -113.72822 
L 83.953167 -117.868072 
L 86.59982 -121.275199 
L 89.246473 -123.1596 
L 91.893127 -126.791869 
L 94.53978 -129.467484 
L 97.186433 -130.79029 
L 99.833087 -132.374372 
L 102.47974 -134.344801 
L 105.126393 -136.841786 
L 107.773047 -138.860233 
L 110.4197 -140.481482 
L 113.066353 -141.938271 
L 115.713007 -143.323738 
L 118.35966 -145.27847 
L 121.006313 -147.347558 
L 123.652967 -148.905861 
L 126.29962 -150.599464 
L 128.946273 -151.795261 
L 131.592927 -153.159195 
L 134.23958 -154.857855 
L 136.886233 -155.63727 
L 139.532887 -157.111199 
L 142.17954 -157.836538 
L 144.826193 -158.474922 
L 147.472847 -159.322203 
L 150.1195 -160.040115 
L 152.766153 -160.741846 
L 155.412807 -160.726475 
L 158.05946 -161.341809 
L 160.706113 -161.580814 
L 163.352767 -162.75552 
L 165.99942 -164.162721 
L 168.646073 -164.963954 
L 171.292727 -165.410181 
L 173.93938 -166.157718 
L 176.586033 -166.780131 
L 179.232687 -167.190866 
L 181.87934 -168.444763 
L 184.525993 -168.929779 
L 187.172647 -169.337723 
L 189.8193 -170.367605 
L 192.465953 -170.325697 
L 195.112607 -170.861619 
L 197.75926 -170.635835 
L 200.405913 -171.138877 
L 203.052567 -172.411852 
L 205.69922 -172.706556 
L 208.345873 -172.861251 
L 210.992527 -173.096832 
L 213.63918 -173.500699 
L 216.285833 -174.652523 
L 218.932487 -175.314115 
L 221.57914 -175.16157 
L 224.225793 -174.842236 
L 226.872447 -174.807555 
L 229.5191 -175.832433 
L 232.165753 -176.785189 
L 234.812407 -177.223126 
L 237.45906 -177.914869 
L 240.105713 -178.598901 
L 242.752367 -178.911851 
L 245.39902 -179.251033 
L 248.045673 -179.804179 
L 250.692327 -180.555677 
L 253.33898 -180.633614 
L 255.985633 -180.313669 
L 258.632287 -180.803858 
L 261.27894 -180.830006 
L 263.925593 -181.695765 
L 266.572247 -182.508154 
L 269.2189 -182.494711 
L 271.865553 -182.909028 
L 274.512207 -183.254637 
L 277.15886 -184.331494 
L 279.805513 -184.492952 
L 282.452167 -183.864692 
L 285.09882 -184.034621 
L 287.745473 -184.820104 
L 290.392127 -185.091272 
L 293.03878 -185.522698 
L 295.685433 -185.743173 
L 298.332087 -185.946033 
L 300.97874 -186.197838 
L 303.625393 -186.590137 
L 306.272047 -187.0022 
L 308.9187 -187.519338 
L 311.565353 -188.675376 
L 314.212007 -188.819409 
L 316.85866 -189.13158 
L 319.505313 -189.607484 
L 322.151967 -189.345902 
L 324.79862 -189.659126 
L 327.445273 -189.671557 
L 330.091927 -189.595748 
L 332.73858 -190.002079 
L 335.385233 -190.843945 
L 338.031887 -191.123858 
L 340.67854 -191.528588 
L 343.325193 -191.927798 
L 345.971847 -191.829845 
L 348.6185 -192.643435 
L 351.265153 -192.966562 
L 353.911807 -193.456119 
L 356.55846 -193.760767 
L 359.205113 -194.518775 
L 361.851767 -194.396676 
L 364.49842 -194.232458 
L 367.145073 -194.379061 
L 369.791727 -194.580658 
L 372.43838 -194.65219 
L 375.085033 -194.802417 
L 377.731687 -194.956269 
L 380.37834 -195.379415 
L 383.024993 -195.692976 
L 385.671647 -195.454086 
L 388.3183 -195.876789 
L 390.964953 -196.118797 
L 393.611607 -196.694909 
L 396.25826 -196.94701 
L 398.904913 -197.338108 
L 401.551567 -197.66726 
L 404.19822 -198.052901 
L 406.844873 -198.374912 
L 409.491527 -198.115795 
L 412.13818 -198.27247 
L 414.784833 -198.532809 
L 417.431487 -198.384182 
L 420.07814 -198.310817 
L 422.724793 -199.252048 
L 425.371447 -199.331798 
L 428.0181 -199.987764 
L 430.664753 -199.922996 
L 433.311407 -200.282658 
L 435.95806 -200.401239 
L 438.604713 -200.559199 
L 441.251367 -200.269995 
L 443.89802 -200.691117 
L 446.544673 -200.685766 
L 449.191327 -200.457874 
L 451.83798 -200.198294 
L 454.484633 -200.941806 
L 457.131287 -201.711697 
L 459.77794 -202.139457 
L 462.424593 -201.904086 
L 465.071247 -201.382566 
L 467.7179 -201.286508 
L 470.364553 -201.31824 
L 473.011207 -201.744988 
L 475.65786 -201.621371 
L 478.304513 -201.495268 
L 480.951167 -201.78205 
L 483.59782 -201.693388 
L 486.244473 -202.096475 
L 488.891127 -202.802377 
L 491.53778 -203.045417 
L 494.184433 -202.91864 
L 496.831087 -203.352489 
L 499.47774 -203.60638 
L 502.124393 -203.932668 
L 504.771047 -203.629557 
L 507.4177 -203.875547 
L 510.064353 -203.891603 
L 512.711007 -203.997499 
L 515.35766 -204.139531 
L 518.004313 -204.176698 
L 520.650967 -204.263569 
L 523.29762 -204.77329 
L 525.944273 -205.110639 
L 528.590927 -205.480668 
L 531.23758 -205.726974 
L 533.884233 -205.920858 
L 536.530887 -205.49352 
L 539.17754 -206.110171 
L 541.824193 -206.182293 
L 544.470847 -206.079051 
L 547.1175 -205.98588 
L 549.764153 -206.528639 
L 552.410807 -206.359595 
L 555.05746 -206.671998 
L 557.704113 -206.902206 
L 560.350767 -207.252303 
L 562.99742 -207.161955 
L 565.644073 -207.254262 
L 568.290727 -207.419576 
L 570.93738 -207.152263 
L 573.584033 -207.53015 
L 576.230687 -208.240836 
L 578.87734 -207.834167 
L 581.523993 -208.165258 
L 584.170647 -209.074063 
L 586.8173 -209.339269 
L 589.463953 -208.962477 
L 592.110607 -209.003921 
L 594.75726 -208.989215 
L 597.403913 -209.147955 
L 600.050567 -209.31862 
L 602.69722 -208.826324 
L 605.343873 -208.696302 
L 607.990527 -208.490028 
L 610.63718 -208.942082 
L 613.283833 -209.721981 
L 615.930487 -209.584901 
L 618.57714 -209.530309 
L 621.223793 -209.253177 
L 623.870447 -209.590042 
L 626.5171 -209.863191 
L 629.163753 -209.934407 
L 631.810407 -210.074858 
L 634.45706 -210.627267 
L 637.103713 -210.956188 
L 639.750367 -210.668648 
L 642.39702 -211.066552 
L 645.043673 -211.000351 
L 647.690327 -210.92728 
L 650.33698 -211.689966 
L 652.983633 -212.002958 
L 655.630287 -211.935198 
L 658.27694 -211.771338 
L 660.923593 -211.802331 
L 663.570247 -211.921797 
L 666.2169 -211.951906 
L 668.863553 -212.27164 
L 671.510207 -212.366033 
L 674.15686 -212.325158 
L 676.803513 -212.607957 
L 679.450167 -213.128002 
L 682.09682 -213.268075 
L 684.743473 -213.537979 
L 687.390127 -213.591686 
L 690.03678 -213.810897 
L 692.683433 -214.237118 
L 695.330087 -214.310104 
L 697.97674 -214.228753 
L 700.623393 -214.505274 
L 703.270047 -214.94991 
L 705.9167 -215.1246 
L 708.563353 -215.072705 
L 711.210007 -214.944474 
L 713.85666 -215.237134 
L 716.503313 -215.181467 
L 719.149967 -214.936173 
L 721.79662 -215.161283 
L 724.443273 -215.387615 
L 727.089927 -215.690304 
L 729.73658 -215.607921 
L 732.383233 -215.542204 
L 735.029887 -215.018619 
L 737.67654 -215.188294 
L 740.323193 -215.511632 
L 742.969847 -214.996011 
L 745.6165 -215.016449 
L 748.263153 -215.014826 
L 750.909807 -215.18408 
L 753.55646 -215.870156 
L 756.203113 -215.993077 
L 758.849767 -215.895713 
L 761.49642 -216.367488 
L 764.143073 -216.450166 
L 766.789727 -216.500628 
L 769.43638 -216.530063 
L 772.083033 -216.417213 
L 774.729687 -216.187573 
L 777.37634 -216.419278 
L 780.022993 -216.411629 
L 782.669647 -216.487207 
L 785.3163 -216.447364 
L 787.962953 -216.644661 
L 790.609607 -216.868107 
L 793.25626 -216.899775 
L 795.902913 -217.130848 
L 798.549567 -217.45271 
L 801.19622 -217.475887 
L 803.842873 -217.306064 
L 806.489527 -217.283562 
L 809.13618 -217.370622 
L 811.782833 -217.519481 
L 814.429487 -217.420263 
L 817.07614 -217.496788 
L 819.722793 -217.612715 
L 822.369447 -217.329325 
L 825.0161 -217.672342 
L 827.662753 -218.053727 
L 830.309407 -217.96673 
L 832.95606 -217.360719 
L 835.602713 -217.25931 
L 838.249367 -217.488065 
L 840.89602 -217.805651 
L 843.542673 -217.939128 
L 843.542673 -372.673305 
L 843.542673 -372.673305 
L 840.89602 -372.536983 
L 838.249367 -372.769973 
L 835.602713 -372.805455 
L 832.95606 -372.740307 
L 830.309407 -372.310356 
L 827.662753 -372.178922 
L 825.0161 -372.326453 
L 822.369447 -372.387219 
L 819.722793 -372.287558 
L 817.07614 -372.25903 
L 814.429487 -372.372765 
L 811.782833 -372.238044 
L 809.13618 -372.173739 
L 806.489527 -372.219545 
L 803.842873 -372.168556 
L 801.19622 -371.960007 
L 798.549567 -371.861231 
L 795.902913 -372.136151 
L 793.25626 -372.140112 
L 790.609607 -372.276686 
L 787.962953 -372.396742 
L 785.3163 -372.475164 
L 782.669647 -372.429948 
L 780.022993 -372.242595 
L 777.37634 -372.1584 
L 774.729687 -372.226456 
L 772.083033 -371.933248 
L 769.43638 -371.652514 
L 766.789727 -371.704388 
L 764.143073 -371.560481 
L 761.49642 -371.50886 
L 758.849767 -371.720401 
L 756.203113 -371.677208 
L 753.55646 -371.7708 
L 750.909807 -372.107243 
L 748.263153 -372.123087 
L 745.6165 -372.028989 
L 742.969847 -371.994898 
L 740.323193 -371.617622 
L 737.67654 -371.704767 
L 735.029887 -371.752848 
L 732.383233 -371.271361 
L 729.73658 -371.082996 
L 727.089927 -370.776852 
L 724.443273 -371.033693 
L 721.79662 -370.941955 
L 719.149967 -370.966354 
L 716.503313 -370.774661 
L 713.85666 -370.702138 
L 711.210007 -370.804032 
L 708.563353 -370.574244 
L 705.9167 -370.427725 
L 703.270047 -370.46051 
L 700.623393 -370.680563 
L 697.97674 -370.846846 
L 695.330087 -370.698261 
L 692.683433 -370.810058 
L 690.03678 -371.121554 
L 687.390127 -371.060578 
L 684.743473 -371.138031 
L 682.09682 -371.019028 
L 679.450167 -370.969093 
L 676.803513 -371.219192 
L 674.15686 -371.373381 
L 671.510207 -371.224038 
L 668.863553 -371.116666 
L 666.2169 -371.311351 
L 663.570247 -371.381345 
L 660.923593 -371.352353 
L 658.27694 -371.252482 
L 655.630287 -370.966227 
L 652.983633 -370.79611 
L 650.33698 -370.811196 
L 647.690327 -371.223743 
L 645.043673 -371.011022 
L 642.39702 -370.845413 
L 639.750367 -371.137188 
L 637.103713 -370.88553 
L 634.45706 -370.977858 
L 631.810407 -371.356736 
L 629.163753 -371.20162 
L 626.5171 -370.956915 
L 623.870447 -370.97731 
L 621.223793 -371.248984 
L 618.57714 -370.738378 
L 615.930487 -370.508043 
L 613.283833 -370.32954 
L 610.63718 -370.715328 
L 607.990527 -370.907569 
L 605.343873 -370.726411 
L 602.69722 -370.540153 
L 600.050567 -370.230385 
L 597.403913 -370.328612 
L 594.75726 -370.127353 
L 592.110607 -369.884039 
L 589.463953 -369.800223 
L 586.8173 -369.49686 
L 584.170647 -369.609457 
L 581.523993 -370.085804 
L 578.87734 -370.182514 
L 576.230687 -369.809283 
L 573.584033 -370.09617 
L 570.93738 -370.191195 
L 568.290727 -369.945816 
L 565.644073 -369.912483 
L 562.99742 -370.053356 
L 560.350767 -369.804016 
L 557.704113 -369.927864 
L 555.05746 -369.904182 
L 552.410807 -369.971605 
L 549.764153 -369.775192 
L 547.1175 -369.956309 
L 544.470847 -369.911051 
L 541.824193 -369.700563 
L 539.17754 -369.606507 
L 536.530887 -369.815352 
L 533.884233 -369.337825 
L 531.23758 -369.40685 
L 528.590927 -369.512452 
L 525.944273 -369.622352 
L 523.29762 -369.589736 
L 520.650967 -369.881764 
L 518.004313 -369.748434 
L 515.35766 -369.377015 
L 512.711007 -369.284813 
L 510.064353 -369.196994 
L 507.4177 -368.963878 
L 504.771047 -368.96156 
L 502.124393 -368.502154 
L 499.47774 -368.594229 
L 496.831087 -368.54088 
L 494.184433 -368.505314 
L 491.53778 -368.132083 
L 488.891127 -368.234778 
L 486.244473 -368.65925 
L 483.59782 -368.940701 
L 480.951167 -368.84024 
L 478.304513 -368.731393 
L 475.65786 -368.528322 
L 473.011207 -368.420908 
L 470.364553 -368.664981 
L 467.7179 -368.493515 
L 465.071247 -368.157241 
L 462.424593 -367.632728 
L 459.77794 -367.299615 
L 457.131287 -367.607065 
L 454.484633 -367.842837 
L 451.83798 -368.22774 
L 449.191327 -367.907142 
L 446.544673 -367.434504 
L 443.89802 -367.244791 
L 441.251367 -367.254694 
L 438.604713 -366.781044 
L 435.95806 -366.802367 
L 433.311407 -366.742444 
L 430.664753 -366.710081 
L 428.0181 -366.148359 
L 425.371447 -366.436763 
L 422.724793 -366.427534 
L 420.07814 -366.841388 
L 417.431487 -366.531999 
L 414.784833 -366.067957 
L 412.13818 -366.181313 
L 409.491527 -366.235293 
L 406.844873 -365.74917 
L 404.19822 -365.74601 
L 401.551567 -365.807997 
L 398.904913 -365.67471 
L 396.25826 -365.562955 
L 393.611607 -365.418248 
L 390.964953 -365.615588 
L 388.3183 -365.579643 
L 385.671647 -365.594307 
L 383.024993 -365.087199 
L 380.37834 -365.157993 
L 377.731687 -365.171225 
L 375.085033 -365.165747 
L 372.43838 -365.004942 
L 369.791727 -364.842704 
L 367.145073 -364.741316 
L 364.49842 -364.581902 
L 361.851767 -364.20294 
L 359.205113 -363.824442 
L 356.55846 -364.002861 
L 353.911807 -363.850231 
L 351.265153 -363.67295 
L 348.6185 -363.637342 
L 345.971847 -363.902063 
L 343.325193 -363.689679 
L 340.67854 -363.610078 
L 338.031887 -363.61269 
L 335.385233 -363.583235 
L 332.73858 -363.913567 
L 330.091927 -363.777583 
L 327.445273 -363.457743 
L 324.79862 -363.376413 
L 322.151967 -363.123744 
L 319.505313 -362.746425 
L 316.85866 -362.667034 
L 314.212007 -362.406064 
L 311.565353 -362.323596 
L 308.9187 -362.924213 
L 306.272047 -362.791852 
L 303.625393 -362.699945 
L 300.97874 -362.549212 
L 298.332087 -362.379895 
L 295.685433 -362.101057 
L 293.03878 -361.902958 
L 290.392127 -362.025837 
L 287.745473 -361.814212 
L 285.09882 -362.08753 
L 282.452167 -361.812021 
L 279.805513 -361.126282 
L 277.15886 -360.916638 
L 274.512207 -361.162312 
L 271.865553 -360.85326 
L 269.2189 -360.732782 
L 266.572247 -360.267097 
L 263.925593 -360.39537 
L 261.27894 -360.524823 
L 258.632287 -360.045738 
L 255.985633 -360.109579 
L 253.33898 -359.606347 
L 250.692327 -359.33067 
L 248.045673 -359.535258 
L 245.39902 -359.365393 
L 242.752367 -359.159499 
L 240.105713 -358.712313 
L 237.45906 -358.409919 
L 234.812407 -358.406632 
L 232.165753 -358.380758 
L 229.5191 -358.257078 
L 226.872447 -358.410087 
L 224.225793 -357.90871 
L 221.57914 -357.264563 
L 218.932487 -356.751597 
L 216.285833 -356.503942 
L 213.63918 -356.55805 
L 210.992527 -356.426911 
L 208.345873 -356.215033 
L 205.69922 -355.80434 
L 203.052567 -355.484584 
L 200.405913 -355.827348 
L 197.75926 -355.57215 
L 195.112607 -354.904153 
L 192.465953 -354.710942 
L 189.8193 -354.005314 
L 187.172647 -353.989048 
L 184.525993 -353.501914 
L 181.87934 -353.071373 
L 179.232687 -353.084478 
L 176.586033 -352.799024 
L 173.93938 -352.272742 
L 171.292727 -351.769721 
L 168.646073 -351.569389 
L 165.99942 -351.244998 
L 163.352767 -351.109224 
L 160.706113 -350.779692 
L 158.05946 -350.358549 
L 155.412807 -350.024508 
L 152.766153 -348.947713 
L 150.1195 -348.663102 
L 147.472847 -348.194594 
L 144.826193 -347.948414 
L 142.17954 -347.193103 
L 139.532887 -346.712942 
L 136.886233 -346.233456 
L 134.23958 -345.682607 
L 131.592927 -345.611812 
L 128.946273 -345.21393 
L 126.29962 -344.600545 
L 123.652967 -344.185764 
L 121.006313 -343.540817 
L 118.35966 -343.275148 
L 115.713007 -343.247631 
L 113.066353 -342.321443 
L 110.4197 -341.438386 
L 107.773047 -340.871102 
L 105.126393 -339.864765 
L 102.47974 -339.241393 
L 99.833087 -338.40471 
L 97.186433 -337.093746 
L 94.53978 -334.887483 
L 91.893127 -333.507704 
L 89.246473 -333.207923 
L 86.59982 -331.659417 
L 83.953167 -331.0907 
L 81.306513 -330.403466 
L 78.65986 -328.73305 
L 76.013207 -326.509488 
L 73.366553 -324.809027 
L 70.7199 -322.740897 
L 68.073247 -320.053273 
L 65.426593 -316.819244 
L 62.77994 -313.432713 
L 60.133287 -309.820165 
L 57.486633 -304.565477 
L 54.83998 -300.167994 
L 52.193327 -300.44245 
z
" style="stroke: #0000ff; stroke-opacity: 0.2"/>
    </defs>
    <g clip-path="url(#p2b242f87d0)">
     <use xlink:href="#mb77443944a" x="0" y="432" style="fill: #0000ff; fill-opacity: 0.2; stroke: #0000ff; stroke-opacity: 0.2"/>
    </g>
   </g>
   <g id="matplotlib.axis_1">
    <g id="xtick_1">
     <g id="line2d_1">
      <defs>
       <path id="me7b9dc5616" d="M 0 0 
L 0 3.5 
" style="stroke: #000000; stroke-width: 0.8"/>
      </defs>
      <g>
       <use xlink:href="#me7b9dc5616" x="181.87934" y="390.04" style="stroke: #000000; stroke-width: 0.8"/>
      </g>
     </g>
     <g id="text_1">
      <!-- 50 -->
      <g transform="translate(175.51684 404.638438) scale(0.1 -0.1)">
       <defs>
        <path id="DejaVuSans-35" d="M 691 4666 
L 3169 4666 
L 3169 4134 
L 1269 4134 
L 1269 2991 
Q 1406 3038 1543 3061 
Q 1681 3084 1819 3084 
Q 2600 3084 3056 2656 
Q 3513 2228 3513 1497 
Q 3513 744 3044 326 
Q 2575 -91 1722 -91 
Q 1428 -91 1123 -41 
Q 819 9 494 109 
L 494 744 
Q 775 591 1075 516 
Q 1375 441 1709 441 
Q 2250 441 2565 725 
Q 2881 1009 2881 1497 
Q 2881 1984 2565 2268 
Q 2250 2553 1709 2553 
Q 1456 2553 1204 2497 
Q 953 2441 691 2322 
L 691 4666 
z
" transform="scale(0.015625)"/>
        <path id="DejaVuSans-30" d="M 2034 4250 
Q 1547 4250 1301 3770 
Q 1056 3291 1056 2328 
Q 1056 1369 1301 889 
Q 1547 409 2034 409 
Q 2525 409 2770 889 
Q 3016 1369 3016 2328 
Q 3016 3291 2770 3770 
Q 2525 4250 2034 4250 
z
M 2034 4750 
Q 2819 4750 3233 4129 
Q 3647 3509 3647 2328 
Q 3647 1150 3233 529 
Q 2819 -91 2034 -91 
Q 1250 -91 836 529 
Q 422 1150 422 2328 
Q 422 3509 836 4129 
Q 1250 4750 2034 4750 
z
" transform="scale(0.015625)"/>
       </defs>
       <use xlink:href="#DejaVuSans-35"/>
       <use xlink:href="#DejaVuSans-30" transform="translate(63.623047 0)"/>
      </g>
     </g>
    </g>
    <g id="xtick_2">
     <g id="line2d_2">
      <g>
       <use xlink:href="#me7b9dc5616" x="314.212007" y="390.04" style="stroke: #000000; stroke-width: 0.8"/>
      </g>
     </g>
     <g id="text_2">
      <!-- 100 -->
      <g transform="translate(304.668257 404.638438) scale(0.1 -0.1)">
       <defs>
        <path id="DejaVuSans-31" d="M 794 531 
L 1825 531 
L 1825 4091 
L 703 3866 
L 703 4441 
L 1819 4666 
L 2450 4666 
L 2450 531 
L 3481 531 
L 3481 0 
L 794 0 
L 794 531 
z
" transform="scale(0.015625)"/>
       </defs>
       <use xlink:href="#DejaVuSans-31"/>
       <use xlink:href="#DejaVuSans-30" transform="translate(63.623047 0)"/>
       <use xlink:href="#DejaVuSans-30" transform="translate(127.246094 0)"/>
      </g>
     </g>
    </g>
    <g id="xtick_3">
     <g id="line2d_3">
      <g>
       <use xlink:href="#me7b9dc5616" x="446.544673" y="390.04" style="stroke: #000000; stroke-width: 0.8"/>
      </g>
     </g>
     <g id="text_3">
      <!-- 150 -->
      <g transform="translate(437.000923 404.638438) scale(0.1 -0.1)">
       <use xlink:href="#DejaVuSans-31"/>
       <use xlink:href="#DejaVuSans-35" transform="translate(63.623047 0)"/>
       <use xlink:href="#DejaVuSans-30" transform="translate(127.246094 0)"/>
      </g>
     </g>
    </g>
    <g id="xtick_4">
     <g id="line2d_4">
      <g>
       <use xlink:href="#me7b9dc5616" x="578.87734" y="390.04" style="stroke: #000000; stroke-width: 0.8"/>
      </g>
     </g>
     <g id="text_4">
      <!-- 200 -->
      <g transform="translate(569.33359 404.638438) scale(0.1 -0.1)">
       <defs>
        <path id="DejaVuSans-32" d="M 1228 531 
L 3431 531 
L 3431 0 
L 469 0 
L 469 531 
Q 828 903 1448 1529 
Q 2069 2156 2228 2338 
Q 2531 2678 2651 2914 
Q 2772 3150 2772 3378 
Q 2772 3750 2511 3984 
Q 2250 4219 1831 4219 
Q 1534 4219 1204 4116 
Q 875 4013 500 3803 
L 500 4441 
Q 881 4594 1212 4672 
Q 1544 4750 1819 4750 
Q 2544 4750 2975 4387 
Q 3406 4025 3406 3419 
Q 3406 3131 3298 2873 
Q 3191 2616 2906 2266 
Q 2828 2175 2409 1742 
Q 1991 1309 1228 531 
z
" transform="scale(0.015625)"/>
       </defs>
       <use xlink:href="#DejaVuSans-32"/>
       <use xlink:href="#DejaVuSans-30" transform="translate(63.623047 0)"/>
       <use xlink:href="#DejaVuSans-30" transform="translate(127.246094 0)"/>
      </g>
     </g>
    </g>
    <g id="xtick_5">
     <g id="line2d_5">
      <g>
       <use xlink:href="#me7b9dc5616" x="711.210007" y="390.04" style="stroke: #000000; stroke-width: 0.8"/>
      </g>
     </g>
     <g id="text_5">
      <!-- 250 -->
      <g transform="translate(701.666257 404.638438) scale(0.1 -0.1)">
       <use xlink:href="#DejaVuSans-32"/>
       <use xlink:href="#DejaVuSans-35" transform="translate(63.623047 0)"/>
       <use xlink:href="#DejaVuSans-30" transform="translate(127.246094 0)"/>
      </g>
     </g>
    </g>
    <g id="xtick_6">
     <g id="line2d_6">
      <g>
       <use xlink:href="#me7b9dc5616" x="843.542673" y="390.04" style="stroke: #000000; stroke-width: 0.8"/>
      </g>
     </g>
     <g id="text_6">
      <!-- 300 -->
      <g transform="translate(833.998923 404.638438) scale(0.1 -0.1)">
       <defs>
        <path id="DejaVuSans-33" d="M 2597 2516 
Q 3050 2419 3304 2112 
Q 3559 1806 3559 1356 
Q 3559 666 3084 287 
Q 2609 -91 1734 -91 
Q 1441 -91 1130 -33 
Q 819 25 488 141 
L 488 750 
Q 750 597 1062 519 
Q 1375 441 1716 441 
Q 2309 441 2620 675 
Q 2931 909 2931 1356 
Q 2931 1769 2642 2001 
Q 2353 2234 1838 2234 
L 1294 2234 
L 1294 2753 
L 1863 2753 
Q 2328 2753 2575 2939 
Q 2822 3125 2822 3475 
Q 2822 3834 2567 4026 
Q 2313 4219 1838 4219 
Q 1578 4219 1281 4162 
Q 984 4106 628 3988 
L 628 4550 
Q 988 4650 1302 4700 
Q 1616 4750 1894 4750 
Q 2613 4750 3031 4423 
Q 3450 4097 3450 3541 
Q 3450 3153 3228 2886 
Q 3006 2619 2597 2516 
z
" transform="scale(0.015625)"/>
       </defs>
       <use xlink:href="#DejaVuSans-33"/>
       <use xlink:href="#DejaVuSans-30" transform="translate(63.623047 0)"/>
       <use xlink:href="#DejaVuSans-30" transform="translate(127.246094 0)"/>
      </g>
     </g>
    </g>
    <g id="text_7">
     <!-- Step -->
     <g transform="translate(436.482844 418.316562) scale(0.1 -0.1)">
      <defs>
       <path id="DejaVuSans-53" d="M 3425 4513 
L 3425 3897 
Q 3066 4069 2747 4153 
Q 2428 4238 2131 4238 
Q 1616 4238 1336 4038 
Q 1056 3838 1056 3469 
Q 1056 3159 1242 3001 
Q 1428 2844 1947 2747 
L 2328 2669 
Q 3034 2534 3370 2195 
Q 3706 1856 3706 1288 
Q 3706 609 3251 259 
Q 2797 -91 1919 -91 
Q 1588 -91 1214 -16 
Q 841 59 441 206 
L 441 856 
Q 825 641 1194 531 
Q 1563 422 1919 422 
Q 2459 422 2753 634 
Q 3047 847 3047 1241 
Q 3047 1584 2836 1778 
Q 2625 1972 2144 2069 
L 1759 2144 
Q 1053 2284 737 2584 
Q 422 2884 422 3419 
Q 422 4038 858 4394 
Q 1294 4750 2059 4750 
Q 2388 4750 2728 4690 
Q 3069 4631 3425 4513 
z
" transform="scale(0.015625)"/>
       <path id="DejaVuSans-74" d="M 1172 4494 
L 1172 3500 
L 2356 3500 
L 2356 3053 
L 1172 3053 
L 1172 1153 
Q 1172 725 1289 603 
Q 1406 481 1766 481 
L 2356 481 
L 2356 0 
L 1766 0 
Q 1100 0 847 248 
Q 594 497 594 1153 
L 594 3053 
L 172 3053 
L 172 3500 
L 594 3500 
L 594 4494 
L 1172 4494 
z
" transform="scale(0.015625)"/>
       <path id="DejaVuSans-65" d="M 3597 1894 
L 3597 1613 
L 953 1613 
Q 991 1019 1311 708 
Q 1631 397 2203 397 
Q 2534 397 2845 478 
Q 3156 559 3463 722 
L 3463 178 
Q 3153 47 2828 -22 
Q 2503 -91 2169 -91 
Q 1331 -91 842 396 
Q 353 884 353 1716 
Q 353 2575 817 3079 
Q 1281 3584 2069 3584 
Q 2775 3584 3186 3129 
Q 3597 2675 3597 1894 
z
M 3022 2063 
Q 3016 2534 2758 2815 
Q 2500 3097 2075 3097 
Q 1594 3097 1305 2825 
Q 1016 2553 972 2059 
L 3022 2063 
z
" transform="scale(0.015625)"/>
       <path id="DejaVuSans-70" d="M 1159 525 
L 1159 -1331 
L 581 -1331 
L 581 3500 
L 1159 3500 
L 1159 2969 
Q 1341 3281 1617 3432 
Q 1894 3584 2278 3584 
Q 2916 3584 3314 3078 
Q 3713 2572 3713 1747 
Q 3713 922 3314 415 
Q 2916 -91 2278 -91 
Q 1894 -91 1617 61 
Q 1341 213 1159 525 
z
M 3116 1747 
Q 3116 2381 2855 2742 
Q 2594 3103 2138 3103 
Q 1681 3103 1420 2742 
Q 1159 2381 1159 1747 
Q 1159 1113 1420 752 
Q 1681 391 2138 391 
Q 2594 391 2855 752 
Q 3116 1113 3116 1747 
z
" transform="scale(0.015625)"/>
      </defs>
      <use xlink:href="#DejaVuSans-53"/>
      <use xlink:href="#DejaVuSans-74" transform="translate(63.476562 0)"/>
      <use xlink:href="#DejaVuSans-65" transform="translate(102.685547 0)"/>
      <use xlink:href="#DejaVuSans-70" transform="translate(164.208984 0)"/>
     </g>
    </g>
   </g>
   <g id="matplotlib.axis_2">
    <g id="ytick_1">
     <g id="line2d_7">
      <defs>
       <path id="mc078a871ab" d="M 0 0 
L -3.5 0 
" style="stroke: #000000; stroke-width: 0.8"/>
      </defs>
      <g>
       <use xlink:href="#mc078a871ab" x="50.87" y="382.981403" style="stroke: #000000; stroke-width: 0.8"/>
      </g>
     </g>
     <g id="text_8">
      <!-- 20 -->
      <g transform="translate(31.145 386.780622) scale(0.1 -0.1)">
       <use xlink:href="#DejaVuSans-32"/>
       <use xlink:href="#DejaVuSans-30" transform="translate(63.623047 0)"/>
      </g>
     </g>
    </g>
    <g id="ytick_2">
     <g id="line2d_8">
      <g>
       <use xlink:href="#mc078a871ab" x="50.87" y="327.748123" style="stroke: #000000; stroke-width: 0.8"/>
      </g>
     </g>
     <g id="text_9">
      <!-- 40 -->
      <g transform="translate(31.145 331.547342) scale(0.1 -0.1)">
       <defs>
        <path id="DejaVuSans-34" d="M 2419 4116 
L 825 1625 
L 2419 1625 
L 2419 4116 
z
M 2253 4666 
L 3047 4666 
L 3047 1625 
L 3713 1625 
L 3713 1100 
L 3047 1100 
L 3047 0 
L 2419 0 
L 2419 1100 
L 313 1100 
L 313 1709 
L 2253 4666 
z
" transform="scale(0.015625)"/>
       </defs>
       <use xlink:href="#DejaVuSans-34"/>
       <use xlink:href="#DejaVuSans-30" transform="translate(63.623047 0)"/>
      </g>
     </g>
    </g>
    <g id="ytick_3">
     <g id="line2d_9">
      <g>
       <use xlink:href="#mc078a871ab" x="50.87" y="272.514843" style="stroke: #000000; stroke-width: 0.8"/>
      </g>
     </g>
     <g id="text_10">
      <!-- 60 -->
      <g transform="translate(31.145 276.314062) scale(0.1 -0.1)">
       <defs>
        <path id="DejaVuSans-36" d="M 2113 2584 
Q 1688 2584 1439 2293 
Q 1191 2003 1191 1497 
Q 1191 994 1439 701 
Q 1688 409 2113 409 
Q 2538 409 2786 701 
Q 3034 994 3034 1497 
Q 3034 2003 2786 2293 
Q 2538 2584 2113 2584 
z
M 3366 4563 
L 3366 3988 
Q 3128 4100 2886 4159 
Q 2644 4219 2406 4219 
Q 1781 4219 1451 3797 
Q 1122 3375 1075 2522 
Q 1259 2794 1537 2939 
Q 1816 3084 2150 3084 
Q 2853 3084 3261 2657 
Q 3669 2231 3669 1497 
Q 3669 778 3244 343 
Q 2819 -91 2113 -91 
Q 1303 -91 875 529 
Q 447 1150 447 2328 
Q 447 3434 972 4092 
Q 1497 4750 2381 4750 
Q 2619 4750 2861 4703 
Q 3103 4656 3366 4563 
z
" transform="scale(0.015625)"/>
       </defs>
       <use xlink:href="#DejaVuSans-36"/>
       <use xlink:href="#DejaVuSans-30" transform="translate(63.623047 0)"/>
      </g>
     </g>
    </g>
    <g id="ytick_4">
     <g id="line2d_10">
      <g>
       <use xlink:href="#mc078a871ab" x="50.87" y="217.281563" style="stroke: #000000; stroke-width: 0.8"/>
      </g>
     </g>
     <g id="text_11">
      <!-- 80 -->
      <g transform="translate(31.145 221.080782) scale(0.1 -0.1)">
       <defs>
        <path id="DejaVuSans-38" d="M 2034 2216 
Q 1584 2216 1326 1975 
Q 1069 1734 1069 1313 
Q 1069 891 1326 650 
Q 1584 409 2034 409 
Q 2484 409 2743 651 
Q 3003 894 3003 1313 
Q 3003 1734 2745 1975 
Q 2488 2216 2034 2216 
z
M 1403 2484 
Q 997 2584 770 2862 
Q 544 3141 544 3541 
Q 544 4100 942 4425 
Q 1341 4750 2034 4750 
Q 2731 4750 3128 4425 
Q 3525 4100 3525 3541 
Q 3525 3141 3298 2862 
Q 3072 2584 2669 2484 
Q 3125 2378 3379 2068 
Q 3634 1759 3634 1313 
Q 3634 634 3220 271 
Q 2806 -91 2034 -91 
Q 1263 -91 848 271 
Q 434 634 434 1313 
Q 434 1759 690 2068 
Q 947 2378 1403 2484 
z
M 1172 3481 
Q 1172 3119 1398 2916 
Q 1625 2713 2034 2713 
Q 2441 2713 2670 2916 
Q 2900 3119 2900 3481 
Q 2900 3844 2670 4047 
Q 2441 4250 2034 4250 
Q 1625 4250 1398 4047 
Q 1172 3844 1172 3481 
z
" transform="scale(0.015625)"/>
       </defs>
       <use xlink:href="#DejaVuSans-38"/>
       <use xlink:href="#DejaVuSans-30" transform="translate(63.623047 0)"/>
      </g>
     </g>
    </g>
    <g id="ytick_5">
     <g id="line2d_11">
      <g>
       <use xlink:href="#mc078a871ab" x="50.87" y="162.048283" style="stroke: #000000; stroke-width: 0.8"/>
      </g>
     </g>
     <g id="text_12">
      <!-- 100 -->
      <g transform="translate(24.7825 165.847502) scale(0.1 -0.1)">
       <use xlink:href="#DejaVuSans-31"/>
       <use xlink:href="#DejaVuSans-30" transform="translate(63.623047 0)"/>
       <use xlink:href="#DejaVuSans-30" transform="translate(127.246094 0)"/>
      </g>
     </g>
    </g>
    <g id="ytick_6">
     <g id="line2d_12">
      <g>
       <use xlink:href="#mc078a871ab" x="50.87" y="106.815003" style="stroke: #000000; stroke-width: 0.8"/>
      </g>
     </g>
     <g id="text_13">
      <!-- 120 -->
      <g transform="translate(24.7825 110.614222) scale(0.1 -0.1)">
       <use xlink:href="#DejaVuSans-31"/>
       <use xlink:href="#DejaVuSans-32" transform="translate(63.623047 0)"/>
       <use xlink:href="#DejaVuSans-30" transform="translate(127.246094 0)"/>
      </g>
     </g>
    </g>
    <g id="ytick_7">
     <g id="line2d_13">
      <g>
       <use xlink:href="#mc078a871ab" x="50.87" y="51.581723" style="stroke: #000000; stroke-width: 0.8"/>
      </g>
     </g>
     <g id="text_14">
      <!-- 140 -->
      <g transform="translate(24.7825 55.380942) scale(0.1 -0.1)">
       <use xlink:href="#DejaVuSans-31"/>
       <use xlink:href="#DejaVuSans-34" transform="translate(63.623047 0)"/>
       <use xlink:href="#DejaVuSans-30" transform="translate(127.246094 0)"/>
      </g>
     </g>
    </g>
    <g id="text_15">
     <!-- Profit -->
     <g transform="translate(18.702813 229.779063) rotate(-90) scale(0.1 -0.1)">
      <defs>
       <path id="DejaVuSans-50" d="M 1259 4147 
L 1259 2394 
L 2053 2394 
Q 2494 2394 2734 2622 
Q 2975 2850 2975 3272 
Q 2975 3691 2734 3919 
Q 2494 4147 2053 4147 
L 1259 4147 
z
M 628 4666 
L 2053 4666 
Q 2838 4666 3239 4311 
Q 3641 3956 3641 3272 
Q 3641 2581 3239 2228 
Q 2838 1875 2053 1875 
L 1259 1875 
L 1259 0 
L 628 0 
L 628 4666 
z
" transform="scale(0.015625)"/>
       <path id="DejaVuSans-72" d="M 2631 2963 
Q 2534 3019 2420 3045 
Q 2306 3072 2169 3072 
Q 1681 3072 1420 2755 
Q 1159 2438 1159 1844 
L 1159 0 
L 581 0 
L 581 3500 
L 1159 3500 
L 1159 2956 
Q 1341 3275 1631 3429 
Q 1922 3584 2338 3584 
Q 2397 3584 2469 3576 
Q 2541 3569 2628 3553 
L 2631 2963 
z
" transform="scale(0.015625)"/>
       <path id="DejaVuSans-6f" d="M 1959 3097 
Q 1497 3097 1228 2736 
Q 959 2375 959 1747 
Q 959 1119 1226 758 
Q 1494 397 1959 397 
Q 2419 397 2687 759 
Q 2956 1122 2956 1747 
Q 2956 2369 2687 2733 
Q 2419 3097 1959 3097 
z
M 1959 3584 
Q 2709 3584 3137 3096 
Q 3566 2609 3566 1747 
Q 3566 888 3137 398 
Q 2709 -91 1959 -91 
Q 1206 -91 779 398 
Q 353 888 353 1747 
Q 353 2609 779 3096 
Q 1206 3584 1959 3584 
z
" transform="scale(0.015625)"/>
       <path id="DejaVuSans-66" d="M 2375 4863 
L 2375 4384 
L 1825 4384 
Q 1516 4384 1395 4259 
Q 1275 4134 1275 3809 
L 1275 3500 
L 2222 3500 
L 2222 3053 
L 1275 3053 
L 1275 0 
L 697 0 
L 697 3053 
L 147 3053 
L 147 3500 
L 697 3500 
L 697 3744 
Q 697 4328 969 4595 
Q 1241 4863 1831 4863 
L 2375 4863 
z
" transform="scale(0.015625)"/>
       <path id="DejaVuSans-69" d="M 603 3500 
L 1178 3500 
L 1178 0 
L 603 0 
L 603 3500 
z
M 603 4863 
L 1178 4863 
L 1178 4134 
L 603 4134 
L 603 4863 
z
" transform="scale(0.015625)"/>
      </defs>
      <use xlink:href="#DejaVuSans-50"/>
      <use xlink:href="#DejaVuSans-72" transform="translate(58.552734 0)"/>
      <use xlink:href="#DejaVuSans-6f" transform="translate(97.416016 0)"/>
      <use xlink:href="#DejaVuSans-66" transform="translate(158.597656 0)"/>
      <use xlink:href="#DejaVuSans-69" transform="translate(193.802734 0)"/>
      <use xlink:href="#DejaVuSans-74" transform="translate(221.585938 0)"/>
     </g>
    </g>
   </g>
   <g id="line2d_14">
    <path d="M 52.193327 252.921508 
L 54.83998 252.83057 
L 60.133287 241.672581 
L 62.77994 236.084358 
L 65.426593 231.168031 
L 68.073247 226.65104 
L 70.7199 222.502518 
L 76.013207 215.876964 
L 78.65986 213.001081 
L 81.306513 209.934157 
L 83.953167 207.520609 
L 86.59982 205.532692 
L 89.246473 203.816239 
L 94.53978 199.822517 
L 97.186433 198.057982 
L 105.126393 193.646719 
L 107.773047 192.134327 
L 113.066353 189.870143 
L 115.713007 188.714316 
L 118.35966 187.723191 
L 123.652967 185.454182 
L 126.29962 184.399995 
L 134.23958 181.729774 
L 136.886233 181.064642 
L 139.532887 180.087929 
L 152.766153 177.155221 
L 158.05946 176.149832 
L 160.706113 175.819752 
L 165.99942 174.296151 
L 168.646073 173.733334 
L 171.292727 173.410038 
L 176.586033 172.210428 
L 179.232687 171.862333 
L 181.87934 171.241932 
L 192.465953 169.481675 
L 195.112607 169.117104 
L 197.75926 168.895997 
L 208.345873 167.461858 
L 213.63918 166.970636 
L 218.932487 165.967144 
L 226.872447 165.391179 
L 234.812407 164.185121 
L 237.45906 163.837596 
L 240.105713 163.344393 
L 245.39902 162.691776 
L 250.692327 162.056816 
L 261.27894 161.322596 
L 266.572247 160.612374 
L 271.865553 160.118856 
L 279.805513 159.190372 
L 282.452167 159.161633 
L 306.272047 157.102963 
L 311.565353 156.500514 
L 314.212007 156.387264 
L 319.505313 155.823035 
L 322.151967 155.765177 
L 324.79862 155.48223 
L 330.091927 155.313335 
L 335.385233 154.786421 
L 340.67854 154.430657 
L 343.325193 154.191261 
L 345.971847 154.134036 
L 359.205113 152.828381 
L 385.671647 151.475803 
L 406.844873 149.937959 
L 428.0181 148.931938 
L 433.311407 148.487449 
L 446.544673 147.939865 
L 462.424593 147.231603 
L 465.071247 147.230086 
L 473.011207 146.917052 
L 478.304513 146.886669 
L 480.951167 146.688866 
L 486.244473 146.622138 
L 510.064353 145.455691 
L 515.35766 145.241727 
L 520.650967 144.927344 
L 544.470847 144.004949 
L 547.1175 144.028906 
L 549.764153 143.848085 
L 555.05746 143.71191 
L 562.99742 143.392344 
L 565.644073 143.416617 
L 589.463953 142.61866 
L 594.75726 142.441716 
L 597.403913 142.261716 
L 600.050567 142.225497 
L 602.69722 142.316772 
L 610.63718 142.171306 
L 613.283833 141.97424 
L 618.57714 141.865667 
L 637.103713 141.07913 
L 642.39702 141.044028 
L 647.690327 140.924478 
L 652.983633 140.600466 
L 676.803513 140.086426 
L 684.743473 139.661995 
L 687.390127 139.673878 
L 692.683433 139.476412 
L 697.97674 139.46219 
L 721.79662 138.948381 
L 724.443273 138.789346 
L 729.73658 138.654541 
L 740.323193 138.435373 
L 745.6165 138.477281 
L 750.909807 138.354339 
L 753.55646 138.179522 
L 761.49642 138.061826 
L 790.609607 137.427603 
L 793.25626 137.480046 
L 798.549567 137.343029 
L 806.489527 137.248447 
L 825.0161 137.000602 
L 830.309407 136.861457 
L 835.602713 136.967607 
L 843.542673 136.693784 
L 843.542673 136.693784 
" clip-path="url(#p2b242f87d0)" style="fill: none; stroke: #0000ff; stroke-width: 1.5; stroke-linecap: square"/>
   </g>
   <g id="patch_3">
    <path d="M 50.87 390.04 
L 50.87 43.44 
" style="fill: none; stroke: #000000; stroke-width: 0.8; stroke-linejoin: miter; stroke-linecap: square"/>
   </g>
   <g id="patch_4">
    <path d="M 844.866 390.04 
L 844.866 43.44 
" style="fill: none; stroke: #000000; stroke-width: 0.8; stroke-linejoin: miter; stroke-linecap: square"/>
   </g>
   <g id="patch_5">
    <path d="M 50.87 390.04 
L 844.866 390.04 
" style="fill: none; stroke: #000000; stroke-width: 0.8; stroke-linejoin: miter; stroke-linecap: square"/>
   </g>
   <g id="patch_6">
    <path d="M 50.87 43.44 
L 844.866 43.44 
" style="fill: none; stroke: #000000; stroke-width: 0.8; stroke-linejoin: miter; stroke-linecap: square"/>
   </g>
   <g id="text_16">
    <!-- Mean profit per step with confidence interval per simulation step -->
    <g transform="translate(220.284875 21.763062) scale(0.14 -0.14)">
     <defs>
      <path id="DejaVuSans-4d" d="M 628 4666 
L 1569 4666 
L 2759 1491 
L 3956 4666 
L 4897 4666 
L 4897 0 
L 4281 0 
L 4281 4097 
L 3078 897 
L 2444 897 
L 1241 4097 
L 1241 0 
L 628 0 
L 628 4666 
z
" transform="scale(0.015625)"/>
      <path id="DejaVuSans-61" d="M 2194 1759 
Q 1497 1759 1228 1600 
Q 959 1441 959 1056 
Q 959 750 1161 570 
Q 1363 391 1709 391 
Q 2188 391 2477 730 
Q 2766 1069 2766 1631 
L 2766 1759 
L 2194 1759 
z
M 3341 1997 
L 3341 0 
L 2766 0 
L 2766 531 
Q 2569 213 2275 61 
Q 1981 -91 1556 -91 
Q 1019 -91 701 211 
Q 384 513 384 1019 
Q 384 1609 779 1909 
Q 1175 2209 1959 2209 
L 2766 2209 
L 2766 2266 
Q 2766 2663 2505 2880 
Q 2244 3097 1772 3097 
Q 1472 3097 1187 3025 
Q 903 2953 641 2809 
L 641 3341 
Q 956 3463 1253 3523 
Q 1550 3584 1831 3584 
Q 2591 3584 2966 3190 
Q 3341 2797 3341 1997 
z
" transform="scale(0.015625)"/>
      <path id="DejaVuSans-6e" d="M 3513 2113 
L 3513 0 
L 2938 0 
L 2938 2094 
Q 2938 2591 2744 2837 
Q 2550 3084 2163 3084 
Q 1697 3084 1428 2787 
Q 1159 2491 1159 1978 
L 1159 0 
L 581 0 
L 581 3500 
L 1159 3500 
L 1159 2956 
Q 1366 3272 1645 3428 
Q 1925 3584 2291 3584 
Q 2894 3584 3203 3211 
Q 3513 2838 3513 2113 
z
" transform="scale(0.015625)"/>
      <path id="DejaVuSans-20" transform="scale(0.015625)"/>
      <path id="DejaVuSans-73" d="M 2834 3397 
L 2834 2853 
Q 2591 2978 2328 3040 
Q 2066 3103 1784 3103 
Q 1356 3103 1142 2972 
Q 928 2841 928 2578 
Q 928 2378 1081 2264 
Q 1234 2150 1697 2047 
L 1894 2003 
Q 2506 1872 2764 1633 
Q 3022 1394 3022 966 
Q 3022 478 2636 193 
Q 2250 -91 1575 -91 
Q 1294 -91 989 -36 
Q 684 19 347 128 
L 347 722 
Q 666 556 975 473 
Q 1284 391 1588 391 
Q 1994 391 2212 530 
Q 2431 669 2431 922 
Q 2431 1156 2273 1281 
Q 2116 1406 1581 1522 
L 1381 1569 
Q 847 1681 609 1914 
Q 372 2147 372 2553 
Q 372 3047 722 3315 
Q 1072 3584 1716 3584 
Q 2034 3584 2315 3537 
Q 2597 3491 2834 3397 
z
" transform="scale(0.015625)"/>
      <path id="DejaVuSans-77" d="M 269 3500 
L 844 3500 
L 1563 769 
L 2278 3500 
L 2956 3500 
L 3675 769 
L 4391 3500 
L 4966 3500 
L 4050 0 
L 3372 0 
L 2619 2869 
L 1863 0 
L 1184 0 
L 269 3500 
z
" transform="scale(0.015625)"/>
      <path id="DejaVuSans-68" d="M 3513 2113 
L 3513 0 
L 2938 0 
L 2938 2094 
Q 2938 2591 2744 2837 
Q 2550 3084 2163 3084 
Q 1697 3084 1428 2787 
Q 1159 2491 1159 1978 
L 1159 0 
L 581 0 
L 581 4863 
L 1159 4863 
L 1159 2956 
Q 1366 3272 1645 3428 
Q 1925 3584 2291 3584 
Q 2894 3584 3203 3211 
Q 3513 2838 3513 2113 
z
" transform="scale(0.015625)"/>
      <path id="DejaVuSans-63" d="M 3122 3366 
L 3122 2828 
Q 2878 2963 2633 3030 
Q 2388 3097 2138 3097 
Q 1578 3097 1268 2742 
Q 959 2388 959 1747 
Q 959 1106 1268 751 
Q 1578 397 2138 397 
Q 2388 397 2633 464 
Q 2878 531 3122 666 
L 3122 134 
Q 2881 22 2623 -34 
Q 2366 -91 2075 -91 
Q 1284 -91 818 406 
Q 353 903 353 1747 
Q 353 2603 823 3093 
Q 1294 3584 2113 3584 
Q 2378 3584 2631 3529 
Q 2884 3475 3122 3366 
z
" transform="scale(0.015625)"/>
      <path id="DejaVuSans-64" d="M 2906 2969 
L 2906 4863 
L 3481 4863 
L 3481 0 
L 2906 0 
L 2906 525 
Q 2725 213 2448 61 
Q 2172 -91 1784 -91 
Q 1150 -91 751 415 
Q 353 922 353 1747 
Q 353 2572 751 3078 
Q 1150 3584 1784 3584 
Q 2172 3584 2448 3432 
Q 2725 3281 2906 2969 
z
M 947 1747 
Q 947 1113 1208 752 
Q 1469 391 1925 391 
Q 2381 391 2643 752 
Q 2906 1113 2906 1747 
Q 2906 2381 2643 2742 
Q 2381 3103 1925 3103 
Q 1469 3103 1208 2742 
Q 947 2381 947 1747 
z
" transform="scale(0.015625)"/>
      <path id="DejaVuSans-76" d="M 191 3500 
L 800 3500 
L 1894 563 
L 2988 3500 
L 3597 3500 
L 2284 0 
L 1503 0 
L 191 3500 
z
" transform="scale(0.015625)"/>
      <path id="DejaVuSans-6c" d="M 603 4863 
L 1178 4863 
L 1178 0 
L 603 0 
L 603 4863 
z
" transform="scale(0.015625)"/>
      <path id="DejaVuSans-6d" d="M 3328 2828 
Q 3544 3216 3844 3400 
Q 4144 3584 4550 3584 
Q 5097 3584 5394 3201 
Q 5691 2819 5691 2113 
L 5691 0 
L 5113 0 
L 5113 2094 
Q 5113 2597 4934 2840 
Q 4756 3084 4391 3084 
Q 3944 3084 3684 2787 
Q 3425 2491 3425 1978 
L 3425 0 
L 2847 0 
L 2847 2094 
Q 2847 2600 2669 2842 
Q 2491 3084 2119 3084 
Q 1678 3084 1418 2786 
Q 1159 2488 1159 1978 
L 1159 0 
L 581 0 
L 581 3500 
L 1159 3500 
L 1159 2956 
Q 1356 3278 1631 3431 
Q 1906 3584 2284 3584 
Q 2666 3584 2933 3390 
Q 3200 3197 3328 2828 
z
" transform="scale(0.015625)"/>
      <path id="DejaVuSans-75" d="M 544 1381 
L 544 3500 
L 1119 3500 
L 1119 1403 
Q 1119 906 1312 657 
Q 1506 409 1894 409 
Q 2359 409 2629 706 
Q 2900 1003 2900 1516 
L 2900 3500 
L 3475 3500 
L 3475 0 
L 2900 0 
L 2900 538 
Q 2691 219 2414 64 
Q 2138 -91 1772 -91 
Q 1169 -91 856 284 
Q 544 659 544 1381 
z
M 1991 3584 
L 1991 3584 
z
" transform="scale(0.015625)"/>
     </defs>
     <use xlink:href="#DejaVuSans-4d"/>
     <use xlink:href="#DejaVuSans-65" transform="translate(86.279297 0)"/>
     <use xlink:href="#DejaVuSans-61" transform="translate(147.802734 0)"/>
     <use xlink:href="#DejaVuSans-6e" transform="translate(209.082031 0)"/>
     <use xlink:href="#DejaVuSans-20" transform="translate(272.460938 0)"/>
     <use xlink:href="#DejaVuSans-70" transform="translate(304.248047 0)"/>
     <use xlink:href="#DejaVuSans-72" transform="translate(367.724609 0)"/>
     <use xlink:href="#DejaVuSans-6f" transform="translate(406.587891 0)"/>
     <use xlink:href="#DejaVuSans-66" transform="translate(467.769531 0)"/>
     <use xlink:href="#DejaVuSans-69" transform="translate(502.974609 0)"/>
     <use xlink:href="#DejaVuSans-74" transform="translate(530.757812 0)"/>
     <use xlink:href="#DejaVuSans-20" transform="translate(569.966797 0)"/>
     <use xlink:href="#DejaVuSans-70" transform="translate(601.753906 0)"/>
     <use xlink:href="#DejaVuSans-65" transform="translate(665.230469 0)"/>
     <use xlink:href="#DejaVuSans-72" transform="translate(726.753906 0)"/>
     <use xlink:href="#DejaVuSans-20" transform="translate(767.867188 0)"/>
     <use xlink:href="#DejaVuSans-73" transform="translate(799.654297 0)"/>
     <use xlink:href="#DejaVuSans-74" transform="translate(851.753906 0)"/>
     <use xlink:href="#DejaVuSans-65" transform="translate(890.962891 0)"/>
     <use xlink:href="#DejaVuSans-70" transform="translate(952.486328 0)"/>
     <use xlink:href="#DejaVuSans-20" transform="translate(1015.962891 0)"/>
     <use xlink:href="#DejaVuSans-77" transform="translate(1047.75 0)"/>
     <use xlink:href="#DejaVuSans-69" transform="translate(1129.537109 0)"/>
     <use xlink:href="#DejaVuSans-74" transform="translate(1157.320312 0)"/>
     <use xlink:href="#DejaVuSans-68" transform="translate(1196.529297 0)"/>
     <use xlink:href="#DejaVuSans-20" transform="translate(1259.908203 0)"/>
     <use xlink:href="#DejaVuSans-63" transform="translate(1291.695312 0)"/>
     <use xlink:href="#DejaVuSans-6f" transform="translate(1346.675781 0)"/>
     <use xlink:href="#DejaVuSans-6e" transform="translate(1407.857422 0)"/>
     <use xlink:href="#DejaVuSans-66" transform="translate(1471.236328 0)"/>
     <use xlink:href="#DejaVuSans-69" transform="translate(1506.441406 0)"/>
     <use xlink:href="#DejaVuSans-64" transform="translate(1534.224609 0)"/>
     <use xlink:href="#DejaVuSans-65" transform="translate(1597.701172 0)"/>
     <use xlink:href="#DejaVuSans-6e" transform="translate(1659.224609 0)"/>
     <use xlink:href="#DejaVuSans-63" transform="translate(1722.603516 0)"/>
     <use xlink:href="#DejaVuSans-65" transform="translate(1777.583984 0)"/>
     <use xlink:href="#DejaVuSans-20" transform="translate(1839.107422 0)"/>
     <use xlink:href="#DejaVuSans-69" transform="translate(1870.894531 0)"/>
     <use xlink:href="#DejaVuSans-6e" transform="translate(1898.677734 0)"/>
     <use xlink:href="#DejaVuSans-74" transform="translate(1962.056641 0)"/>
     <use xlink:href="#DejaVuSans-65" transform="translate(2001.265625 0)"/>
     <use xlink:href="#DejaVuSans-72" transform="translate(2062.789062 0)"/>
     <use xlink:href="#DejaVuSans-76" transform="translate(2103.902344 0)"/>
     <use xlink:href="#DejaVuSans-61" transform="translate(2163.082031 0)"/>
     <use xlink:href="#DejaVuSans-6c" transform="translate(2224.361328 0)"/>
     <use xlink:href="#DejaVuSans-20" transform="translate(2252.144531 0)"/>
     <use xlink:href="#DejaVuSans-70" transform="translate(2283.931641 0)"/>
     <use xlink:href="#DejaVuSans-65" transform="translate(2347.408203 0)"/>
     <use xlink:href="#DejaVuSans-72" transform="translate(2408.931641 0)"/>
     <use xlink:href="#DejaVuSans-20" transform="translate(2450.044922 0)"/>
     <use xlink:href="#DejaVuSans-73" transform="translate(2481.832031 0)"/>
     <use xlink:href="#DejaVuSans-69" transform="translate(2533.931641 0)"/>
     <use xlink:href="#DejaVuSans-6d" transform="translate(2561.714844 0)"/>
     <use xlink:href="#DejaVuSans-75" transform="translate(2659.126953 0)"/>
     <use xlink:href="#DejaVuSans-6c" transform="translate(2722.505859 0)"/>
     <use xlink:href="#DejaVuSans-61" transform="translate(2750.289062 0)"/>
     <use xlink:href="#DejaVuSans-74" transform="translate(2811.568359 0)"/>
     <use xlink:href="#DejaVuSans-69" transform="translate(2850.777344 0)"/>
     <use xlink:href="#DejaVuSans-6f" transform="translate(2878.560547 0)"/>
     <use xlink:href="#DejaVuSans-6e" transform="translate(2939.742188 0)"/>
     <use xlink:href="#DejaVuSans-20" transform="translate(3003.121094 0)"/>
     <use xlink:href="#DejaVuSans-73" transform="translate(3034.908203 0)"/>
     <use xlink:href="#DejaVuSans-74" transform="translate(3087.007812 0)"/>
     <use xlink:href="#DejaVuSans-65" transform="translate(3126.216797 0)"/>
     <use xlink:href="#DejaVuSans-70" transform="translate(3187.740234 0)"/>
    </g>
    <!-- Base Product: OG Kush, Recipe size: 7, T0: 20.0 -->
    <g transform="translate(281.490031 37.44) scale(0.14 -0.14)">
     <defs>
      <path id="DejaVuSans-42" d="M 1259 2228 
L 1259 519 
L 2272 519 
Q 2781 519 3026 730 
Q 3272 941 3272 1375 
Q 3272 1813 3026 2020 
Q 2781 2228 2272 2228 
L 1259 2228 
z
M 1259 4147 
L 1259 2741 
L 2194 2741 
Q 2656 2741 2882 2914 
Q 3109 3088 3109 3444 
Q 3109 3797 2882 3972 
Q 2656 4147 2194 4147 
L 1259 4147 
z
M 628 4666 
L 2241 4666 
Q 2963 4666 3353 4366 
Q 3744 4066 3744 3513 
Q 3744 3084 3544 2831 
Q 3344 2578 2956 2516 
Q 3422 2416 3680 2098 
Q 3938 1781 3938 1306 
Q 3938 681 3513 340 
Q 3088 0 2303 0 
L 628 0 
L 628 4666 
z
" transform="scale(0.015625)"/>
      <path id="DejaVuSans-3a" d="M 750 794 
L 1409 794 
L 1409 0 
L 750 0 
L 750 794 
z
M 750 3309 
L 1409 3309 
L 1409 2516 
L 750 2516 
L 750 3309 
z
" transform="scale(0.015625)"/>
      <path id="DejaVuSans-4f" d="M 2522 4238 
Q 1834 4238 1429 3725 
Q 1025 3213 1025 2328 
Q 1025 1447 1429 934 
Q 1834 422 2522 422 
Q 3209 422 3611 934 
Q 4013 1447 4013 2328 
Q 4013 3213 3611 3725 
Q 3209 4238 2522 4238 
z
M 2522 4750 
Q 3503 4750 4090 4092 
Q 4678 3434 4678 2328 
Q 4678 1225 4090 567 
Q 3503 -91 2522 -91 
Q 1538 -91 948 565 
Q 359 1222 359 2328 
Q 359 3434 948 4092 
Q 1538 4750 2522 4750 
z
" transform="scale(0.015625)"/>
      <path id="DejaVuSans-47" d="M 3809 666 
L 3809 1919 
L 2778 1919 
L 2778 2438 
L 4434 2438 
L 4434 434 
Q 4069 175 3628 42 
Q 3188 -91 2688 -91 
Q 1594 -91 976 548 
Q 359 1188 359 2328 
Q 359 3472 976 4111 
Q 1594 4750 2688 4750 
Q 3144 4750 3555 4637 
Q 3966 4525 4313 4306 
L 4313 3634 
Q 3963 3931 3569 4081 
Q 3175 4231 2741 4231 
Q 1884 4231 1454 3753 
Q 1025 3275 1025 2328 
Q 1025 1384 1454 906 
Q 1884 428 2741 428 
Q 3075 428 3337 486 
Q 3600 544 3809 666 
z
" transform="scale(0.015625)"/>
      <path id="DejaVuSans-4b" d="M 628 4666 
L 1259 4666 
L 1259 2694 
L 3353 4666 
L 4166 4666 
L 1850 2491 
L 4331 0 
L 3500 0 
L 1259 2247 
L 1259 0 
L 628 0 
L 628 4666 
z
" transform="scale(0.015625)"/>
      <path id="DejaVuSans-2c" d="M 750 794 
L 1409 794 
L 1409 256 
L 897 -744 
L 494 -744 
L 750 256 
L 750 794 
z
" transform="scale(0.015625)"/>
      <path id="DejaVuSans-52" d="M 2841 2188 
Q 3044 2119 3236 1894 
Q 3428 1669 3622 1275 
L 4263 0 
L 3584 0 
L 2988 1197 
Q 2756 1666 2539 1819 
Q 2322 1972 1947 1972 
L 1259 1972 
L 1259 0 
L 628 0 
L 628 4666 
L 2053 4666 
Q 2853 4666 3247 4331 
Q 3641 3997 3641 3322 
Q 3641 2881 3436 2590 
Q 3231 2300 2841 2188 
z
M 1259 4147 
L 1259 2491 
L 2053 2491 
Q 2509 2491 2742 2702 
Q 2975 2913 2975 3322 
Q 2975 3731 2742 3939 
Q 2509 4147 2053 4147 
L 1259 4147 
z
" transform="scale(0.015625)"/>
      <path id="DejaVuSans-7a" d="M 353 3500 
L 3084 3500 
L 3084 2975 
L 922 459 
L 3084 459 
L 3084 0 
L 275 0 
L 275 525 
L 2438 3041 
L 353 3041 
L 353 3500 
z
" transform="scale(0.015625)"/>
      <path id="DejaVuSans-37" d="M 525 4666 
L 3525 4666 
L 3525 4397 
L 1831 0 
L 1172 0 
L 2766 4134 
L 525 4134 
L 525 4666 
z
" transform="scale(0.015625)"/>
      <path id="DejaVuSans-54" d="M -19 4666 
L 3928 4666 
L 3928 4134 
L 2272 4134 
L 2272 0 
L 1638 0 
L 1638 4134 
L -19 4134 
L -19 4666 
z
" transform="scale(0.015625)"/>
      <path id="DejaVuSans-2e" d="M 684 794 
L 1344 794 
L 1344 0 
L 684 0 
L 684 794 
z
" transform="scale(0.015625)"/>
     </defs>
     <use xlink:href="#DejaVuSans-42"/>
     <use xlink:href="#DejaVuSans-61" transform="translate(68.603516 0)"/>
     <use xlink:href="#DejaVuSans-73" transform="translate(129.882812 0)"/>
     <use xlink:href="#DejaVuSans-65" transform="translate(181.982422 0)"/>
     <use xlink:href="#DejaVuSans-20" transform="translate(243.505859 0)"/>
     <use xlink:href="#DejaVuSans-50" transform="translate(275.292969 0)"/>
     <use xlink:href="#DejaVuSans-72" transform="translate(333.845703 0)"/>
     <use xlink:href="#DejaVuSans-6f" transform="translate(372.708984 0)"/>
     <use xlink:href="#DejaVuSans-64" transform="translate(433.890625 0)"/>
     <use xlink:href="#DejaVuSans-75" transform="translate(497.367188 0)"/>
     <use xlink:href="#DejaVuSans-63" transform="translate(560.746094 0)"/>
     <use xlink:href="#DejaVuSans-74" transform="translate(615.726562 0)"/>
     <use xlink:href="#DejaVuSans-3a" transform="translate(654.935547 0)"/>
     <use xlink:href="#DejaVuSans-20" transform="translate(688.626953 0)"/>
     <use xlink:href="#DejaVuSans-4f" transform="translate(720.414062 0)"/>
     <use xlink:href="#DejaVuSans-47" transform="translate(799.125 0)"/>
     <use xlink:href="#DejaVuSans-20" transform="translate(876.615234 0)"/>
     <use xlink:href="#DejaVuSans-4b" transform="translate(908.402344 0)"/>
     <use xlink:href="#DejaVuSans-75" transform="translate(968.978516 0)"/>
     <use xlink:href="#DejaVuSans-73" transform="translate(1032.357422 0)"/>
     <use xlink:href="#DejaVuSans-68" transform="translate(1084.457031 0)"/>
     <use xlink:href="#DejaVuSans-2c" transform="translate(1147.835938 0)"/>
     <use xlink:href="#DejaVuSans-20" transform="translate(1179.623047 0)"/>
     <use xlink:href="#DejaVuSans-52" transform="translate(1211.410156 0)"/>
     <use xlink:href="#DejaVuSans-65" transform="translate(1276.392578 0)"/>
     <use xlink:href="#DejaVuSans-63" transform="translate(1337.916016 0)"/>
     <use xlink:href="#DejaVuSans-69" transform="translate(1392.896484 0)"/>
     <use xlink:href="#DejaVuSans-70" transform="translate(1420.679688 0)"/>
     <use xlink:href="#DejaVuSans-65" transform="translate(1484.15625 0)"/>
     <use xlink:href="#DejaVuSans-20" transform="translate(1545.679688 0)"/>
     <use xlink:href="#DejaVuSans-73" transform="translate(1577.466797 0)"/>
     <use xlink:href="#DejaVuSans-69" transform="translate(1629.566406 0)"/>
     <use xlink:href="#DejaVuSans-7a" transform="translate(1657.349609 0)"/>
     <use xlink:href="#DejaVuSans-65" transform="translate(1709.839844 0)"/>
     <use xlink:href="#DejaVuSans-3a" transform="translate(1771.363281 0)"/>
     <use xlink:href="#DejaVuSans-20" transform="translate(1805.054688 0)"/>
     <use xlink:href="#DejaVuSans-37" transform="translate(1836.841797 0)"/>
     <use xlink:href="#DejaVuSans-2c" transform="translate(1900.464844 0)"/>
     <use xlink:href="#DejaVuSans-20" transform="translate(1932.251953 0)"/>
     <use xlink:href="#DejaVuSans-54" transform="translate(1964.039062 0)"/>
     <use xlink:href="#DejaVuSans-30" transform="translate(2025.123047 0)"/>
     <use xlink:href="#DejaVuSans-3a" transform="translate(2088.746094 0)"/>
     <use xlink:href="#DejaVuSans-20" transform="translate(2122.4375 0)"/>
     <use xlink:href="#DejaVuSans-32" transform="translate(2154.224609 0)"/>
     <use xlink:href="#DejaVuSans-30" transform="translate(2217.847656 0)"/>
     <use xlink:href="#DejaVuSans-2e" transform="translate(2281.470703 0)"/>
     <use xlink:href="#DejaVuSans-30" transform="translate(2313.257812 0)"/>
    </g>
   </g>
  </g>
 </g>
 <defs>
  <clipPath id="p2b242f87d0">
   <rect x="50.87" y="43.44" width="793.996" height="346.6"/>
  </clipPath>
 </defs>
</svg>
