<?xml version="1.0" encoding="utf-8" standalone="no"?>
<!DOCTYPE svg PUBLIC "-//W3C//DTD SVG 1.1//EN"
  "http://www.w3.org/Graphics/SVG/1.1/DTD/svg11.dtd">
<svg xmlns:xlink="http://www.w3.org/1999/xlink" width="864pt" height="432pt" viewBox="0 0 864 432" xmlns="http://www.w3.org/2000/svg" version="1.1">
 <metadata>
  <rdf:RDF xmlns:dc="http://purl.org/dc/elements/1.1/" xmlns:cc="http://creativecommons.org/ns#" xmlns:rdf="http://www.w3.org/1999/02/22-rdf-syntax-ns#">
   <cc:Work>
    <dc:type rdf:resource="http://purl.org/dc/dcmitype/StillImage"/>
    <dc:date>2025-05-24T02:03:18.059020</dc:date>
    <dc:format>image/svg+xml</dc:format>
    <dc:creator>
     <cc:Agent>
      <dc:title>Matplotlib v3.10.3, https://matplotlib.org/</dc:title>
     </cc:Agent>
    </dc:creator>
   </cc:Work>
  </rdf:RDF>
 </metadata>
 <defs>
  <style type="text/css">*{stroke-linejoin: round; stroke-linecap: butt}</style>
 </defs>
 <g id="figure_1">
  <g id="patch_1">
   <path d="M 0 432 
L 864 432 
L 864 0 
L 0 0 
z
" style="fill: #ffffff"/>
  </g>
  <g id="axes_1">
   <g id="patch_2">
    <path d="M 50.87 390.04 
L 844.866 390.04 
L 844.866 43.44 
L 50.87 43.44 
z
" style="fill: #ffffff"/>
   </g>
   <g id="FillBetweenPolyCollection_1">
    <defs>
     <path id="m1f93801940" d="M 52.193327 -303.244563 
L 52.193327 -59.333502 
L 54.83998 -57.714545 
L 57.486633 -64.970405 
L 60.133287 -72.061521 
L 62.77994 -80.30926 
L 65.426593 -85.542781 
L 68.073247 -91.51388 
L 70.7199 -97.613295 
L 73.366553 -101.110651 
L 76.013207 -105.14386 
L 78.65986 -109.79873 
L 81.306513 -113.140964 
L 83.953167 -116.765121 
L 86.59982 -119.924763 
L 89.246473 -122.545127 
L 91.893127 -125.649476 
L 94.53978 -129.489971 
L 97.186433 -131.075934 
L 99.833087 -133.553015 
L 102.47974 -135.494126 
L 105.126393 -137.364184 
L 107.773047 -139.098845 
L 110.4197 -140.970271 
L 113.066353 -141.880255 
L 115.713007 -143.066259 
L 118.35966 -145.021657 
L 121.006313 -146.694825 
L 123.652967 -148.202464 
L 126.29962 -148.933618 
L 128.946273 -150.286995 
L 131.592927 -150.905804 
L 134.23958 -152.606158 
L 136.886233 -153.423712 
L 139.532887 -154.810643 
L 142.17954 -155.52908 
L 144.826193 -156.944288 
L 147.472847 -157.920048 
L 150.1195 -158.793647 
L 152.766153 -159.691507 
L 155.412807 -160.430918 
L 158.05946 -162.242885 
L 160.706113 -164.177976 
L 163.352767 -164.123605 
L 165.99942 -164.468409 
L 168.646073 -165.537298 
L 171.292727 -166.170374 
L 173.93938 -166.561154 
L 176.586033 -167.66114 
L 179.232687 -168.093297 
L 181.87934 -168.191196 
L 184.525993 -167.871458 
L 187.172647 -168.46747 
L 189.8193 -169.966959 
L 192.465953 -170.805784 
L 195.112607 -171.22003 
L 197.75926 -171.149327 
L 200.405913 -171.08068 
L 203.052567 -171.914842 
L 205.69922 -172.141854 
L 208.345873 -172.68801 
L 210.992527 -174.319398 
L 213.63918 -174.793791 
L 216.285833 -174.880678 
L 218.932487 -175.556052 
L 221.57914 -175.699472 
L 224.225793 -175.882786 
L 226.872447 -176.381343 
L 229.5191 -176.227537 
L 232.165753 -176.918544 
L 234.812407 -177.593165 
L 237.45906 -177.942442 
L 240.105713 -178.368569 
L 242.752367 -178.89906 
L 245.39902 -179.730446 
L 248.045673 -179.661798 
L 250.692327 -180.370717 
L 253.33898 -180.889009 
L 255.985633 -181.807632 
L 258.632287 -181.851457 
L 261.27894 -182.455693 
L 263.925593 -182.468825 
L 266.572247 -182.487372 
L 269.2189 -182.627157 
L 271.865553 -182.227272 
L 274.512207 -183.248659 
L 277.15886 -183.735558 
L 279.805513 -183.412683 
L 282.452167 -183.274922 
L 285.09882 -183.702914 
L 287.745473 -184.035498 
L 290.392127 -184.109074 
L 293.03878 -183.995563 
L 295.685433 -185.016589 
L 298.332087 -184.906448 
L 300.97874 -184.540012 
L 303.625393 -185.007559 
L 306.272047 -185.716605 
L 308.9187 -186.427728 
L 311.565353 -186.920944 
L 314.212007 -186.633192 
L 316.85866 -186.882598 
L 319.505313 -187.135417 
L 322.151967 -187.82831 
L 324.79862 -187.917784 
L 327.445273 -187.924715 
L 330.091927 -188.60718 
L 332.73858 -188.627465 
L 335.385233 -188.813916 
L 338.031887 -189.328626 
L 340.67854 -188.999667 
L 343.325193 -189.083989 
L 345.971847 -189.495066 
L 348.6185 -189.826187 
L 351.265153 -189.651226 
L 353.911807 -188.932323 
L 356.55846 -188.804568 
L 359.205113 -189.322203 
L 361.851767 -189.687855 
L 364.49842 -190.085153 
L 367.145073 -190.304862 
L 369.791727 -190.67115 
L 372.43838 -190.867139 
L 375.085033 -190.727237 
L 377.731687 -191.073324 
L 380.37834 -191.919028 
L 383.024993 -192.432254 
L 385.671647 -192.601556 
L 388.3183 -193.094518 
L 390.964953 -193.43416 
L 393.611607 -192.821986 
L 396.25826 -192.930324 
L 398.904913 -192.790953 
L 401.551567 -192.737896 
L 404.19822 -193.829784 
L 406.844873 -193.426042 
L 409.491527 -193.766447 
L 412.13818 -193.638056 
L 414.784833 -193.31075 
L 417.431487 -193.625571 
L 420.07814 -194.420953 
L 422.724793 -195.10151 
L 425.371447 -195.4119 
L 428.0181 -195.887204 
L 430.664753 -195.933859 
L 433.311407 -196.031833 
L 435.95806 -196.782743 
L 438.604713 -197.322996 
L 441.251367 -197.441573 
L 443.89802 -197.517056 
L 446.544673 -197.510421 
L 449.191327 -197.869692 
L 451.83798 -198.137137 
L 454.484633 -198.526423 
L 457.131287 -198.367339 
L 459.77794 -199.204415 
L 462.424593 -199.034986 
L 465.071247 -199.466667 
L 467.7179 -198.918275 
L 470.364553 -198.919928 
L 473.011207 -199.320385 
L 475.65786 -199.604703 
L 478.304513 -199.635079 
L 480.951167 -199.944515 
L 483.59782 -199.935867 
L 486.244473 -200.306478 
L 488.891127 -200.172236 
L 491.53778 -200.332021 
L 494.184433 -200.491487 
L 496.831087 -200.470057 
L 499.47774 -200.673295 
L 502.124393 -200.430185 
L 504.771047 -200.682029 
L 507.4177 -200.907037 
L 510.064353 -201.163501 
L 512.711007 -201.723277 
L 515.35766 -201.769593 
L 518.004313 -201.941141 
L 520.650967 -202.015056 
L 523.29762 -202.372758 
L 525.944273 -202.368901 
L 528.590927 -202.785446 
L 531.23758 -202.776141 
L 533.884233 -202.930202 
L 536.530887 -203.261853 
L 539.17754 -203.372418 
L 541.824193 -203.180371 
L 544.470847 -203.256511 
L 547.1175 -203.473443 
L 549.764153 -203.187387 
L 552.410807 -203.203985 
L 555.05746 -203.194849 
L 557.704113 -203.600563 
L 560.350767 -203.929755 
L 562.99742 -204.281162 
L 565.644073 -204.255938 
L 568.290727 -204.648954 
L 570.93738 -204.792756 
L 573.584033 -205.250255 
L 576.230687 -204.802125 
L 578.87734 -204.395648 
L 581.523993 -204.477512 
L 584.170647 -204.964326 
L 586.8173 -205.317005 
L 589.463953 -205.565033 
L 592.110607 -206.017996 
L 594.75726 -205.822261 
L 597.403913 -206.25532 
L 600.050567 -206.208071 
L 602.69722 -205.978357 
L 605.343873 -206.245357 
L 607.990527 -206.362832 
L 610.63718 -206.182931 
L 613.283833 -206.109864 
L 615.930487 -206.263099 
L 618.57714 -206.169937 
L 621.223793 -206.102763 
L 623.870447 -206.20415 
L 626.5171 -206.063824 
L 629.163753 -206.512441 
L 631.810407 -206.692554 
L 634.45706 -206.716337 
L 637.103713 -206.535716 
L 639.750367 -206.490142 
L 642.39702 -206.643716 
L 645.043673 -207.002987 
L 647.690327 -206.549706 
L 650.33698 -206.93223 
L 652.983633 -207.568655 
L 655.630287 -207.42869 
L 658.27694 -207.317616 
L 660.923593 -207.537622 
L 663.570247 -207.591844 
L 666.2169 -207.519626 
L 668.863553 -207.95616 
L 671.510207 -208.477971 
L 674.15686 -208.901724 
L 676.803513 -208.918937 
L 679.450167 -209.081053 
L 682.09682 -209.726252 
L 684.743473 -209.667685 
L 687.390127 -209.615667 
L 690.03678 -209.793363 
L 692.683433 -209.899391 
L 695.330087 -210.261248 
L 697.97674 -210.672283 
L 700.623393 -210.834908 
L 703.270047 -211.219191 
L 705.9167 -210.63788 
L 708.563353 -210.988163 
L 711.210007 -211.324457 
L 713.85666 -210.757347 
L 716.503313 -210.948313 
L 719.149967 -210.545778 
L 721.79662 -210.681737 
L 724.443273 -210.957449 
L 727.089927 -211.043064 
L 729.73658 -211.512348 
L 732.383233 -211.358202 
L 735.029887 -211.196722 
L 737.67654 -210.948058 
L 740.323193 -211.09239 
L 742.969847 -211.067292 
L 745.6165 -210.903163 
L 748.263153 -210.958106 
L 750.909807 -211.711051 
L 753.55646 -211.354726 
L 756.203113 -211.4644 
L 758.849767 -211.843152 
L 761.49642 -211.685317 
L 764.143073 -212.07649 
L 766.789727 -212.124438 
L 769.43638 -212.175651 
L 772.083033 -212.68468 
L 774.729687 -213.0434 
L 777.37634 -212.7378 
L 780.022993 -212.938453 
L 782.669647 -212.73231 
L 785.3163 -212.653393 
L 787.962953 -213.608241 
L 790.609607 -213.266119 
L 793.25626 -213.305906 
L 795.902913 -213.661595 
L 798.549567 -213.352752 
L 801.19622 -213.494052 
L 803.842873 -213.601458 
L 806.489527 -213.290877 
L 809.13618 -213.405808 
L 811.782833 -213.814871 
L 814.429487 -213.8947 
L 817.07614 -214.111547 
L 819.722793 -214.283372 
L 822.369447 -214.20066 
L 825.0161 -214.013489 
L 827.662753 -213.796557 
L 830.309407 -214.120789 
L 832.95606 -214.400401 
L 835.602713 -214.779216 
L 838.249367 -215.043354 
L 840.89602 -215.247971 
L 843.542673 -215.123607 
L 843.542673 -372.274126 
L 843.542673 -372.274126 
L 840.89602 -372.25331 
L 838.249367 -372.25454 
L 835.602713 -372.348443 
L 832.95606 -372.540405 
L 830.309407 -372.451589 
L 827.662753 -372.618919 
L 825.0161 -372.592465 
L 822.369447 -372.487497 
L 819.722793 -372.221642 
L 817.07614 -372.340431 
L 814.429487 -372.346154 
L 811.782833 -372.517936 
L 809.13618 -372.688488 
L 806.489527 -372.805455 
L 803.842873 -372.480502 
L 801.19622 -372.178442 
L 798.549567 -372.141389 
L 795.902913 -371.784895 
L 793.25626 -372.16123 
L 790.609607 -372.138379 
L 787.962953 -371.893552 
L 785.3163 -372.396646 
L 782.669647 -372.308084 
L 780.022993 -372.103149 
L 777.37634 -372.065546 
L 774.729687 -371.843781 
L 772.083033 -371.999834 
L 769.43638 -372.175644 
L 766.789727 -372.175941 
L 764.143073 -371.99161 
L 761.49642 -372.155125 
L 758.849767 -371.927043 
L 756.203113 -372.070548 
L 753.55646 -371.954133 
L 750.909807 -371.538287 
L 748.263153 -371.865063 
L 745.6165 -371.713376 
L 742.969847 -371.56915 
L 740.323193 -371.451887 
L 737.67654 -371.368582 
L 735.029887 -371.148174 
L 732.383233 -370.918015 
L 729.73658 -370.586279 
L 727.089927 -370.729318 
L 724.443273 -370.572289 
L 721.79662 -370.636304 
L 719.149967 -370.781463 
L 716.503313 -370.353364 
L 713.85666 -370.432218 
L 711.210007 -369.951126 
L 708.563353 -370.086025 
L 705.9167 -370.5176 
L 703.270047 -369.963336 
L 700.623393 -370.113921 
L 697.97674 -370.213124 
L 695.330087 -370.415345 
L 692.683433 -370.598658 
L 690.03678 -370.605568 
L 687.390127 -370.588568 
L 684.743473 -370.518575 
L 682.09682 -370.308681 
L 679.450167 -370.720966 
L 676.803513 -370.642409 
L 674.15686 -370.479954 
L 671.510207 -370.731395 
L 668.863553 -370.957738 
L 666.2169 -371.200319 
L 663.570247 -370.928741 
L 660.923593 -370.809612 
L 658.27694 -370.737288 
L 655.630287 -370.689976 
L 652.983633 -370.621763 
L 650.33698 -370.747971 
L 647.690327 -370.827037 
L 645.043673 -370.276164 
L 642.39702 -370.473256 
L 639.750367 -370.422382 
L 637.103713 -370.182897 
L 634.45706 -369.990341 
L 631.810407 -369.935992 
L 629.163753 -369.910258 
L 626.5171 -370.116295 
L 623.870447 -369.836577 
L 621.223793 -369.73093 
L 618.57714 -369.615745 
L 615.930487 -369.465202 
L 613.283833 -369.552068 
L 610.63718 -369.380329 
L 607.990527 -369.117738 
L 605.343873 -368.895083 
L 602.69722 -369.069578 
L 600.050567 -368.876811 
L 597.403913 -368.761074 
L 594.75726 -369.060463 
L 592.110607 -368.786087 
L 589.463953 -368.903307 
L 586.8173 -368.754969 
L 584.170647 -368.830728 
L 581.523993 -368.963422 
L 578.87734 -368.930101 
L 576.230687 -368.619053 
L 573.584033 -368.140802 
L 570.93738 -368.278499 
L 568.290727 -368.141099 
L 565.644073 -368.087724 
L 562.99742 -368.141904 
L 560.350767 -368.201257 
L 557.704113 -368.302409 
L 555.05746 -368.441548 
L 552.410807 -368.316569 
L 549.764153 -368.26188 
L 547.1175 -367.897882 
L 544.470847 -367.777228 
L 541.824193 -367.786046 
L 539.17754 -367.707235 
L 536.530887 -367.484241 
L 533.884233 -367.496662 
L 531.23758 -367.409923 
L 528.590927 -367.388896 
L 525.944273 -367.41005 
L 523.29762 -367.400978 
L 520.650967 -367.482672 
L 518.004313 -367.481273 
L 515.35766 -367.541176 
L 512.711007 -367.539565 
L 510.064353 -367.664035 
L 507.4177 -367.648434 
L 504.771047 -367.563603 
L 502.124393 -367.701851 
L 499.47774 -367.374651 
L 496.831087 -367.334928 
L 494.184433 -367.137158 
L 491.53778 -367.164757 
L 488.891127 -367.170098 
L 486.244473 -366.728052 
L 483.59782 -366.878213 
L 480.951167 -366.755524 
L 478.304513 -366.639999 
L 475.65786 -366.59735 
L 473.011207 -366.428154 
L 470.364553 -366.662171 
L 467.7179 -366.370456 
L 465.071247 -365.974535 
L 462.424593 -366.163783 
L 459.77794 -365.87902 
L 457.131287 -366.264767 
L 454.484633 -365.707281 
L 451.83798 -365.712241 
L 449.191327 -365.675824 
L 446.544673 -365.555 
L 443.89802 -365.464912 
L 441.251367 -365.306442 
L 438.604713 -365.373637 
L 435.95806 -365.306315 
L 433.311407 -365.436805 
L 430.664753 -365.338746 
L 428.0181 -365.108842 
L 425.371447 -365.21593 
L 422.724793 -365.433328 
L 420.07814 -365.759256 
L 417.431487 -366.164165 
L 414.784833 -366.062503 
L 412.13818 -365.563479 
L 409.491527 -365.346377 
L 406.844873 -365.210503 
L 404.19822 -364.544657 
L 401.551567 -364.944945 
L 398.904913 -364.485941 
L 396.25826 -364.085102 
L 393.611607 -363.726828 
L 390.964953 -362.979585 
L 388.3183 -362.946814 
L 385.671647 -362.942235 
L 383.024993 -363.032238 
L 380.37834 -363.128007 
L 377.731687 -363.329635 
L 375.085033 -363.420868 
L 372.43838 -363.167137 
L 369.791727 -362.979373 
L 367.145073 -362.928542 
L 364.49842 -362.934647 
L 361.851767 -362.940963 
L 359.205113 -363.047416 
L 356.55846 -362.909973 
L 353.911807 -362.704572 
L 351.265153 -362.009686 
L 348.6185 -361.460594 
L 345.971847 -361.285887 
L 343.325193 -361.53063 
L 340.67854 -361.151836 
L 338.031887 -360.698534 
L 335.385233 -360.799942 
L 332.73858 -360.424158 
L 330.091927 -359.880683 
L 327.445273 -360.228275 
L 324.79862 -359.821946 
L 322.151967 -359.721916 
L 319.505313 -360.096852 
L 316.85866 -359.94879 
L 314.212007 -359.729823 
L 311.565353 -359.53076 
L 308.9187 -359.119789 
L 306.272047 -359.263633 
L 303.625393 -359.274062 
L 300.97874 -359.304141 
L 298.332087 -358.844735 
L 295.685433 -358.463185 
L 293.03878 -358.861523 
L 290.392127 -358.405169 
L 287.745473 -358.049925 
L 285.09882 -357.703605 
L 282.452167 -357.457358 
L 279.805513 -357.318834 
L 277.15886 -357.015587 
L 274.512207 -356.695934 
L 271.865553 -357.004671 
L 269.2189 -356.517072 
L 266.572247 -356.326297 
L 263.925593 -355.792043 
L 261.27894 -355.523369 
L 258.632287 -355.415624 
L 255.985633 -354.860893 
L 253.33898 -355.194134 
L 250.692327 -355.117379 
L 248.045673 -355.332276 
L 245.39902 -354.753848 
L 242.752367 -354.879568 
L 240.105713 -354.755374 
L 237.45906 -354.514913 
L 234.812407 -354.085797 
L 232.165753 -353.914905 
L 229.5191 -353.903056 
L 226.872447 -353.132242 
L 224.225793 -352.7749 
L 221.57914 -352.124485 
L 218.932487 -351.976953 
L 216.285833 -352.056845 
L 213.63918 -351.468623 
L 210.992527 -351.288998 
L 208.345873 -351.993253 
L 205.69922 -351.627772 
L 203.052567 -351.011887 
L 200.405913 -350.903421 
L 197.75926 -350.232467 
L 195.112607 -349.320246 
L 192.465953 -348.730074 
L 189.8193 -348.841995 
L 187.172647 -348.893632 
L 184.525993 -348.698533 
L 181.87934 -347.630746 
L 179.232687 -347.039005 
L 176.586033 -346.236904 
L 173.93938 -346.318831 
L 171.292727 -345.752039 
L 168.646073 -345.372737 
L 165.99942 -345.353999 
L 163.352767 -344.536826 
L 160.706113 -343.550966 
L 158.05946 -343.874944 
L 155.412807 -344.279598 
L 152.766153 -343.96287 
L 150.1195 -343.439893 
L 147.472847 -342.864093 
L 144.826193 -342.385609 
L 142.17954 -342.41113 
L 139.532887 -342.238606 
L 136.886233 -341.704607 
L 134.23958 -340.704163 
L 131.592927 -340.721799 
L 128.946273 -340.064072 
L 126.29962 -339.633536 
L 123.652967 -338.387332 
L 121.006313 -338.357402 
L 118.35966 -337.654673 
L 115.713007 -337.408149 
L 113.066353 -336.657281 
L 110.4197 -335.409933 
L 107.773047 -334.803291 
L 105.126393 -333.81086 
L 102.47974 -332.780974 
L 99.833087 -332.37687 
L 97.186433 -331.490701 
L 94.53978 -330.204837 
L 91.893127 -330.371108 
L 89.246473 -329.195512 
L 86.59982 -328.213977 
L 83.953167 -327.014831 
L 81.306513 -326.209253 
L 78.65986 -324.734946 
L 76.013207 -323.85043 
L 73.366553 -321.499811 
L 70.7199 -319.005051 
L 68.073247 -317.895569 
L 65.426593 -315.359262 
L 62.77994 -312.585335 
L 60.133287 -311.363614 
L 57.486633 -307.552085 
L 54.83998 -304.078863 
L 52.193327 -303.244563 
z
" style="stroke: #0000ff; stroke-opacity: 0.2"/>
    </defs>
    <g clip-path="url(#p56593ddad1)">
     <use xlink:href="#m1f93801940" x="0" y="432" style="fill: #0000ff; fill-opacity: 0.2; stroke: #0000ff; stroke-opacity: 0.2"/>
    </g>
   </g>
   <g id="matplotlib.axis_1">
    <g id="xtick_1">
     <g id="line2d_1">
      <defs>
       <path id="m288497f599" d="M 0 0 
L 0 3.5 
" style="stroke: #000000; stroke-width: 0.8"/>
      </defs>
      <g>
       <use xlink:href="#m288497f599" x="181.87934" y="390.04" style="stroke: #000000; stroke-width: 0.8"/>
      </g>
     </g>
     <g id="text_1">
      <!-- 50 -->
      <g transform="translate(175.51684 404.638438) scale(0.1 -0.1)">
       <defs>
        <path id="DejaVuSans-35" d="M 691 4666 
L 3169 4666 
L 3169 4134 
L 1269 4134 
L 1269 2991 
Q 1406 3038 1543 3061 
Q 1681 3084 1819 3084 
Q 2600 3084 3056 2656 
Q 3513 2228 3513 1497 
Q 3513 744 3044 326 
Q 2575 -91 1722 -91 
Q 1428 -91 1123 -41 
Q 819 9 494 109 
L 494 744 
Q 775 591 1075 516 
Q 1375 441 1709 441 
Q 2250 441 2565 725 
Q 2881 1009 2881 1497 
Q 2881 1984 2565 2268 
Q 2250 2553 1709 2553 
Q 1456 2553 1204 2497 
Q 953 2441 691 2322 
L 691 4666 
z
" transform="scale(0.015625)"/>
        <path id="DejaVuSans-30" d="M 2034 4250 
Q 1547 4250 1301 3770 
Q 1056 3291 1056 2328 
Q 1056 1369 1301 889 
Q 1547 409 2034 409 
Q 2525 409 2770 889 
Q 3016 1369 3016 2328 
Q 3016 3291 2770 3770 
Q 2525 4250 2034 4250 
z
M 2034 4750 
Q 2819 4750 3233 4129 
Q 3647 3509 3647 2328 
Q 3647 1150 3233 529 
Q 2819 -91 2034 -91 
Q 1250 -91 836 529 
Q 422 1150 422 2328 
Q 422 3509 836 4129 
Q 1250 4750 2034 4750 
z
" transform="scale(0.015625)"/>
       </defs>
       <use xlink:href="#DejaVuSans-35"/>
       <use xlink:href="#DejaVuSans-30" transform="translate(63.623047 0)"/>
      </g>
     </g>
    </g>
    <g id="xtick_2">
     <g id="line2d_2">
      <g>
       <use xlink:href="#m288497f599" x="314.212007" y="390.04" style="stroke: #000000; stroke-width: 0.8"/>
      </g>
     </g>
     <g id="text_2">
      <!-- 100 -->
      <g transform="translate(304.668257 404.638438) scale(0.1 -0.1)">
       <defs>
        <path id="DejaVuSans-31" d="M 794 531 
L 1825 531 
L 1825 4091 
L 703 3866 
L 703 4441 
L 1819 4666 
L 2450 4666 
L 2450 531 
L 3481 531 
L 3481 0 
L 794 0 
L 794 531 
z
" transform="scale(0.015625)"/>
       </defs>
       <use xlink:href="#DejaVuSans-31"/>
       <use xlink:href="#DejaVuSans-30" transform="translate(63.623047 0)"/>
       <use xlink:href="#DejaVuSans-30" transform="translate(127.246094 0)"/>
      </g>
     </g>
    </g>
    <g id="xtick_3">
     <g id="line2d_3">
      <g>
       <use xlink:href="#m288497f599" x="446.544673" y="390.04" style="stroke: #000000; stroke-width: 0.8"/>
      </g>
     </g>
     <g id="text_3">
      <!-- 150 -->
      <g transform="translate(437.000923 404.638438) scale(0.1 -0.1)">
       <use xlink:href="#DejaVuSans-31"/>
       <use xlink:href="#DejaVuSans-35" transform="translate(63.623047 0)"/>
       <use xlink:href="#DejaVuSans-30" transform="translate(127.246094 0)"/>
      </g>
     </g>
    </g>
    <g id="xtick_4">
     <g id="line2d_4">
      <g>
       <use xlink:href="#m288497f599" x="578.87734" y="390.04" style="stroke: #000000; stroke-width: 0.8"/>
      </g>
     </g>
     <g id="text_4">
      <!-- 200 -->
      <g transform="translate(569.33359 404.638438) scale(0.1 -0.1)">
       <defs>
        <path id="DejaVuSans-32" d="M 1228 531 
L 3431 531 
L 3431 0 
L 469 0 
L 469 531 
Q 828 903 1448 1529 
Q 2069 2156 2228 2338 
Q 2531 2678 2651 2914 
Q 2772 3150 2772 3378 
Q 2772 3750 2511 3984 
Q 2250 4219 1831 4219 
Q 1534 4219 1204 4116 
Q 875 4013 500 3803 
L 500 4441 
Q 881 4594 1212 4672 
Q 1544 4750 1819 4750 
Q 2544 4750 2975 4387 
Q 3406 4025 3406 3419 
Q 3406 3131 3298 2873 
Q 3191 2616 2906 2266 
Q 2828 2175 2409 1742 
Q 1991 1309 1228 531 
z
" transform="scale(0.015625)"/>
       </defs>
       <use xlink:href="#DejaVuSans-32"/>
       <use xlink:href="#DejaVuSans-30" transform="translate(63.623047 0)"/>
       <use xlink:href="#DejaVuSans-30" transform="translate(127.246094 0)"/>
      </g>
     </g>
    </g>
    <g id="xtick_5">
     <g id="line2d_5">
      <g>
       <use xlink:href="#m288497f599" x="711.210007" y="390.04" style="stroke: #000000; stroke-width: 0.8"/>
      </g>
     </g>
     <g id="text_5">
      <!-- 250 -->
      <g transform="translate(701.666257 404.638438) scale(0.1 -0.1)">
       <use xlink:href="#DejaVuSans-32"/>
       <use xlink:href="#DejaVuSans-35" transform="translate(63.623047 0)"/>
       <use xlink:href="#DejaVuSans-30" transform="translate(127.246094 0)"/>
      </g>
     </g>
    </g>
    <g id="xtick_6">
     <g id="line2d_6">
      <g>
       <use xlink:href="#m288497f599" x="843.542673" y="390.04" style="stroke: #000000; stroke-width: 0.8"/>
      </g>
     </g>
     <g id="text_6">
      <!-- 300 -->
      <g transform="translate(833.998923 404.638438) scale(0.1 -0.1)">
       <defs>
        <path id="DejaVuSans-33" d="M 2597 2516 
Q 3050 2419 3304 2112 
Q 3559 1806 3559 1356 
Q 3559 666 3084 287 
Q 2609 -91 1734 -91 
Q 1441 -91 1130 -33 
Q 819 25 488 141 
L 488 750 
Q 750 597 1062 519 
Q 1375 441 1716 441 
Q 2309 441 2620 675 
Q 2931 909 2931 1356 
Q 2931 1769 2642 2001 
Q 2353 2234 1838 2234 
L 1294 2234 
L 1294 2753 
L 1863 2753 
Q 2328 2753 2575 2939 
Q 2822 3125 2822 3475 
Q 2822 3834 2567 4026 
Q 2313 4219 1838 4219 
Q 1578 4219 1281 4162 
Q 984 4106 628 3988 
L 628 4550 
Q 988 4650 1302 4700 
Q 1616 4750 1894 4750 
Q 2613 4750 3031 4423 
Q 3450 4097 3450 3541 
Q 3450 3153 3228 2886 
Q 3006 2619 2597 2516 
z
" transform="scale(0.015625)"/>
       </defs>
       <use xlink:href="#DejaVuSans-33"/>
       <use xlink:href="#DejaVuSans-30" transform="translate(63.623047 0)"/>
       <use xlink:href="#DejaVuSans-30" transform="translate(127.246094 0)"/>
      </g>
     </g>
    </g>
    <g id="text_7">
     <!-- Step -->
     <g transform="translate(436.482844 418.316562) scale(0.1 -0.1)">
      <defs>
       <path id="DejaVuSans-53" d="M 3425 4513 
L 3425 3897 
Q 3066 4069 2747 4153 
Q 2428 4238 2131 4238 
Q 1616 4238 1336 4038 
Q 1056 3838 1056 3469 
Q 1056 3159 1242 3001 
Q 1428 2844 1947 2747 
L 2328 2669 
Q 3034 2534 3370 2195 
Q 3706 1856 3706 1288 
Q 3706 609 3251 259 
Q 2797 -91 1919 -91 
Q 1588 -91 1214 -16 
Q 841 59 441 206 
L 441 856 
Q 825 641 1194 531 
Q 1563 422 1919 422 
Q 2459 422 2753 634 
Q 3047 847 3047 1241 
Q 3047 1584 2836 1778 
Q 2625 1972 2144 2069 
L 1759 2144 
Q 1053 2284 737 2584 
Q 422 2884 422 3419 
Q 422 4038 858 4394 
Q 1294 4750 2059 4750 
Q 2388 4750 2728 4690 
Q 3069 4631 3425 4513 
z
" transform="scale(0.015625)"/>
       <path id="DejaVuSans-74" d="M 1172 4494 
L 1172 3500 
L 2356 3500 
L 2356 3053 
L 1172 3053 
L 1172 1153 
Q 1172 725 1289 603 
Q 1406 481 1766 481 
L 2356 481 
L 2356 0 
L 1766 0 
Q 1100 0 847 248 
Q 594 497 594 1153 
L 594 3053 
L 172 3053 
L 172 3500 
L 594 3500 
L 594 4494 
L 1172 4494 
z
" transform="scale(0.015625)"/>
       <path id="DejaVuSans-65" d="M 3597 1894 
L 3597 1613 
L 953 1613 
Q 991 1019 1311 708 
Q 1631 397 2203 397 
Q 2534 397 2845 478 
Q 3156 559 3463 722 
L 3463 178 
Q 3153 47 2828 -22 
Q 2503 -91 2169 -91 
Q 1331 -91 842 396 
Q 353 884 353 1716 
Q 353 2575 817 3079 
Q 1281 3584 2069 3584 
Q 2775 3584 3186 3129 
Q 3597 2675 3597 1894 
z
M 3022 2063 
Q 3016 2534 2758 2815 
Q 2500 3097 2075 3097 
Q 1594 3097 1305 2825 
Q 1016 2553 972 2059 
L 3022 2063 
z
" transform="scale(0.015625)"/>
       <path id="DejaVuSans-70" d="M 1159 525 
L 1159 -1331 
L 581 -1331 
L 581 3500 
L 1159 3500 
L 1159 2969 
Q 1341 3281 1617 3432 
Q 1894 3584 2278 3584 
Q 2916 3584 3314 3078 
Q 3713 2572 3713 1747 
Q 3713 922 3314 415 
Q 2916 -91 2278 -91 
Q 1894 -91 1617 61 
Q 1341 213 1159 525 
z
M 3116 1747 
Q 3116 2381 2855 2742 
Q 2594 3103 2138 3103 
Q 1681 3103 1420 2742 
Q 1159 2381 1159 1747 
Q 1159 1113 1420 752 
Q 1681 391 2138 391 
Q 2594 391 2855 752 
Q 3116 1113 3116 1747 
z
" transform="scale(0.015625)"/>
      </defs>
      <use xlink:href="#DejaVuSans-53"/>
      <use xlink:href="#DejaVuSans-74" transform="translate(63.476562 0)"/>
      <use xlink:href="#DejaVuSans-65" transform="translate(102.685547 0)"/>
      <use xlink:href="#DejaVuSans-70" transform="translate(164.208984 0)"/>
     </g>
    </g>
   </g>
   <g id="matplotlib.axis_2">
    <g id="ytick_1">
     <g id="line2d_7">
      <defs>
       <path id="m2bde64f6be" d="M 0 0 
L -3.5 0 
" style="stroke: #000000; stroke-width: 0.8"/>
      </defs>
      <g>
       <use xlink:href="#m2bde64f6be" x="50.87" y="371.211333" style="stroke: #000000; stroke-width: 0.8"/>
      </g>
     </g>
     <g id="text_8">
      <!-- 20 -->
      <g transform="translate(31.145 375.010552) scale(0.1 -0.1)">
       <use xlink:href="#DejaVuSans-32"/>
       <use xlink:href="#DejaVuSans-30" transform="translate(63.623047 0)"/>
      </g>
     </g>
    </g>
    <g id="ytick_2">
     <g id="line2d_8">
      <g>
       <use xlink:href="#m2bde64f6be" x="50.87" y="315.644186" style="stroke: #000000; stroke-width: 0.8"/>
      </g>
     </g>
     <g id="text_9">
      <!-- 40 -->
      <g transform="translate(31.145 319.443405) scale(0.1 -0.1)">
       <defs>
        <path id="DejaVuSans-34" d="M 2419 4116 
L 825 1625 
L 2419 1625 
L 2419 4116 
z
M 2253 4666 
L 3047 4666 
L 3047 1625 
L 3713 1625 
L 3713 1100 
L 3047 1100 
L 3047 0 
L 2419 0 
L 2419 1100 
L 313 1100 
L 313 1709 
L 2253 4666 
z
" transform="scale(0.015625)"/>
       </defs>
       <use xlink:href="#DejaVuSans-34"/>
       <use xlink:href="#DejaVuSans-30" transform="translate(63.623047 0)"/>
      </g>
     </g>
    </g>
    <g id="ytick_3">
     <g id="line2d_9">
      <g>
       <use xlink:href="#m2bde64f6be" x="50.87" y="260.077039" style="stroke: #000000; stroke-width: 0.8"/>
      </g>
     </g>
     <g id="text_10">
      <!-- 60 -->
      <g transform="translate(31.145 263.876258) scale(0.1 -0.1)">
       <defs>
        <path id="DejaVuSans-36" d="M 2113 2584 
Q 1688 2584 1439 2293 
Q 1191 2003 1191 1497 
Q 1191 994 1439 701 
Q 1688 409 2113 409 
Q 2538 409 2786 701 
Q 3034 994 3034 1497 
Q 3034 2003 2786 2293 
Q 2538 2584 2113 2584 
z
M 3366 4563 
L 3366 3988 
Q 3128 4100 2886 4159 
Q 2644 4219 2406 4219 
Q 1781 4219 1451 3797 
Q 1122 3375 1075 2522 
Q 1259 2794 1537 2939 
Q 1816 3084 2150 3084 
Q 2853 3084 3261 2657 
Q 3669 2231 3669 1497 
Q 3669 778 3244 343 
Q 2819 -91 2113 -91 
Q 1303 -91 875 529 
Q 447 1150 447 2328 
Q 447 3434 972 4092 
Q 1497 4750 2381 4750 
Q 2619 4750 2861 4703 
Q 3103 4656 3366 4563 
z
" transform="scale(0.015625)"/>
       </defs>
       <use xlink:href="#DejaVuSans-36"/>
       <use xlink:href="#DejaVuSans-30" transform="translate(63.623047 0)"/>
      </g>
     </g>
    </g>
    <g id="ytick_4">
     <g id="line2d_10">
      <g>
       <use xlink:href="#m2bde64f6be" x="50.87" y="204.509892" style="stroke: #000000; stroke-width: 0.8"/>
      </g>
     </g>
     <g id="text_11">
      <!-- 80 -->
      <g transform="translate(31.145 208.309111) scale(0.1 -0.1)">
       <defs>
        <path id="DejaVuSans-38" d="M 2034 2216 
Q 1584 2216 1326 1975 
Q 1069 1734 1069 1313 
Q 1069 891 1326 650 
Q 1584 409 2034 409 
Q 2484 409 2743 651 
Q 3003 894 3003 1313 
Q 3003 1734 2745 1975 
Q 2488 2216 2034 2216 
z
M 1403 2484 
Q 997 2584 770 2862 
Q 544 3141 544 3541 
Q 544 4100 942 4425 
Q 1341 4750 2034 4750 
Q 2731 4750 3128 4425 
Q 3525 4100 3525 3541 
Q 3525 3141 3298 2862 
Q 3072 2584 2669 2484 
Q 3125 2378 3379 2068 
Q 3634 1759 3634 1313 
Q 3634 634 3220 271 
Q 2806 -91 2034 -91 
Q 1263 -91 848 271 
Q 434 634 434 1313 
Q 434 1759 690 2068 
Q 947 2378 1403 2484 
z
M 1172 3481 
Q 1172 3119 1398 2916 
Q 1625 2713 2034 2713 
Q 2441 2713 2670 2916 
Q 2900 3119 2900 3481 
Q 2900 3844 2670 4047 
Q 2441 4250 2034 4250 
Q 1625 4250 1398 4047 
Q 1172 3844 1172 3481 
z
" transform="scale(0.015625)"/>
       </defs>
       <use xlink:href="#DejaVuSans-38"/>
       <use xlink:href="#DejaVuSans-30" transform="translate(63.623047 0)"/>
      </g>
     </g>
    </g>
    <g id="ytick_5">
     <g id="line2d_11">
      <g>
       <use xlink:href="#m2bde64f6be" x="50.87" y="148.942746" style="stroke: #000000; stroke-width: 0.8"/>
      </g>
     </g>
     <g id="text_12">
      <!-- 100 -->
      <g transform="translate(24.7825 152.741964) scale(0.1 -0.1)">
       <use xlink:href="#DejaVuSans-31"/>
       <use xlink:href="#DejaVuSans-30" transform="translate(63.623047 0)"/>
       <use xlink:href="#DejaVuSans-30" transform="translate(127.246094 0)"/>
      </g>
     </g>
    </g>
    <g id="ytick_6">
     <g id="line2d_12">
      <g>
       <use xlink:href="#m2bde64f6be" x="50.87" y="93.375599" style="stroke: #000000; stroke-width: 0.8"/>
      </g>
     </g>
     <g id="text_13">
      <!-- 120 -->
      <g transform="translate(24.7825 97.174817) scale(0.1 -0.1)">
       <use xlink:href="#DejaVuSans-31"/>
       <use xlink:href="#DejaVuSans-32" transform="translate(63.623047 0)"/>
       <use xlink:href="#DejaVuSans-30" transform="translate(127.246094 0)"/>
      </g>
     </g>
    </g>
    <g id="text_14">
     <!-- Profit -->
     <g transform="translate(18.702813 229.779063) rotate(-90) scale(0.1 -0.1)">
      <defs>
       <path id="DejaVuSans-50" d="M 1259 4147 
L 1259 2394 
L 2053 2394 
Q 2494 2394 2734 2622 
Q 2975 2850 2975 3272 
Q 2975 3691 2734 3919 
Q 2494 4147 2053 4147 
L 1259 4147 
z
M 628 4666 
L 2053 4666 
Q 2838 4666 3239 4311 
Q 3641 3956 3641 3272 
Q 3641 2581 3239 2228 
Q 2838 1875 2053 1875 
L 1259 1875 
L 1259 0 
L 628 0 
L 628 4666 
z
" transform="scale(0.015625)"/>
       <path id="DejaVuSans-72" d="M 2631 2963 
Q 2534 3019 2420 3045 
Q 2306 3072 2169 3072 
Q 1681 3072 1420 2755 
Q 1159 2438 1159 1844 
L 1159 0 
L 581 0 
L 581 3500 
L 1159 3500 
L 1159 2956 
Q 1341 3275 1631 3429 
Q 1922 3584 2338 3584 
Q 2397 3584 2469 3576 
Q 2541 3569 2628 3553 
L 2631 2963 
z
" transform="scale(0.015625)"/>
       <path id="DejaVuSans-6f" d="M 1959 3097 
Q 1497 3097 1228 2736 
Q 959 2375 959 1747 
Q 959 1119 1226 758 
Q 1494 397 1959 397 
Q 2419 397 2687 759 
Q 2956 1122 2956 1747 
Q 2956 2369 2687 2733 
Q 2419 3097 1959 3097 
z
M 1959 3584 
Q 2709 3584 3137 3096 
Q 3566 2609 3566 1747 
Q 3566 888 3137 398 
Q 2709 -91 1959 -91 
Q 1206 -91 779 398 
Q 353 888 353 1747 
Q 353 2609 779 3096 
Q 1206 3584 1959 3584 
z
" transform="scale(0.015625)"/>
       <path id="DejaVuSans-66" d="M 2375 4863 
L 2375 4384 
L 1825 4384 
Q 1516 4384 1395 4259 
Q 1275 4134 1275 3809 
L 1275 3500 
L 2222 3500 
L 2222 3053 
L 1275 3053 
L 1275 0 
L 697 0 
L 697 3053 
L 147 3053 
L 147 3500 
L 697 3500 
L 697 3744 
Q 697 4328 969 4595 
Q 1241 4863 1831 4863 
L 2375 4863 
z
" transform="scale(0.015625)"/>
       <path id="DejaVuSans-69" d="M 603 3500 
L 1178 3500 
L 1178 0 
L 603 0 
L 603 3500 
z
M 603 4863 
L 1178 4863 
L 1178 4134 
L 603 4134 
L 603 4863 
z
" transform="scale(0.015625)"/>
      </defs>
      <use xlink:href="#DejaVuSans-50"/>
      <use xlink:href="#DejaVuSans-72" transform="translate(58.552734 0)"/>
      <use xlink:href="#DejaVuSans-6f" transform="translate(97.416016 0)"/>
      <use xlink:href="#DejaVuSans-66" transform="translate(158.597656 0)"/>
      <use xlink:href="#DejaVuSans-69" transform="translate(193.802734 0)"/>
      <use xlink:href="#DejaVuSans-74" transform="translate(221.585938 0)"/>
     </g>
    </g>
   </g>
   <g id="line2d_13">
    <path d="M 52.193327 250.710968 
L 54.83998 251.103296 
L 60.133287 240.287433 
L 62.77994 235.552702 
L 65.426593 231.548978 
L 68.073247 227.295276 
L 70.7199 223.690822 
L 73.366553 220.694769 
L 76.013207 217.502855 
L 78.65986 214.733167 
L 81.306513 212.324891 
L 86.59982 207.93063 
L 89.246473 206.129675 
L 91.893127 203.989713 
L 94.53978 202.152596 
L 97.186433 200.716677 
L 99.833087 199.035062 
L 102.47974 197.862455 
L 107.773047 195.048932 
L 110.4197 193.809893 
L 121.006313 189.473882 
L 123.652967 188.705102 
L 128.946273 186.824467 
L 131.592927 186.186198 
L 136.886233 184.435841 
L 139.532887 183.475375 
L 142.17954 183.029895 
L 160.706113 178.135529 
L 163.352767 177.669784 
L 171.292727 176.038788 
L 176.586033 175.050978 
L 179.232687 174.433843 
L 187.172647 173.319444 
L 189.8193 172.595518 
L 192.465953 172.232071 
L 197.75926 171.309103 
L 200.405913 171.007955 
L 210.992527 169.195807 
L 218.932487 168.233497 
L 221.57914 168.088021 
L 229.5191 166.934704 
L 248.045673 164.502963 
L 255.985633 163.665737 
L 263.925593 162.869571 
L 269.2189 162.427885 
L 271.865553 162.384028 
L 277.15886 161.624427 
L 282.452167 161.63386 
L 287.745473 160.957288 
L 298.332087 160.124409 
L 300.97874 160.077923 
L 303.625393 159.859189 
L 311.565353 158.774148 
L 314.212007 158.818492 
L 322.151967 158.224887 
L 324.79862 158.130135 
L 343.325193 156.69269 
L 345.971847 156.609513 
L 351.265153 156.169544 
L 356.55846 156.14273 
L 359.205113 155.815191 
L 367.145073 155.383298 
L 372.43838 154.982862 
L 377.731687 154.79851 
L 380.37834 154.476482 
L 383.024993 154.267754 
L 385.671647 154.228094 
L 390.964953 153.793128 
L 393.611607 153.725593 
L 398.904913 153.361553 
L 401.551567 153.15859 
L 404.19822 152.812779 
L 417.431487 152.105132 
L 422.724793 151.732571 
L 425.371447 151.686085 
L 430.664753 151.363697 
L 433.311407 151.265681 
L 438.604713 150.651684 
L 446.544673 150.467289 
L 451.83798 150.075311 
L 462.424593 149.400626 
L 465.071247 149.279399 
L 467.7179 149.355645 
L 480.951167 148.64997 
L 486.244473 148.482745 
L 491.53778 148.251611 
L 504.771047 147.877184 
L 515.35766 147.344605 
L 525.944273 147.110525 
L 528.590927 146.91284 
L 531.23758 146.906968 
L 541.824193 146.516791 
L 544.470847 146.48313 
L 547.1175 146.314337 
L 557.704113 146.048503 
L 562.99742 145.788477 
L 565.644073 145.82818 
L 570.93738 145.464372 
L 573.584033 145.304482 
L 581.523993 145.279533 
L 592.110607 144.597959 
L 610.63718 144.218381 
L 629.163753 143.78865 
L 634.45706 143.64665 
L 639.750367 143.543738 
L 650.33698 143.159899 
L 652.983633 142.904791 
L 658.27694 142.972537 
L 666.2169 142.640038 
L 697.97674 141.557307 
L 727.089927 141.11382 
L 732.383233 140.861891 
L 748.263153 140.588426 
L 750.909807 140.375331 
L 756.203113 140.232526 
L 766.789727 139.849811 
L 769.43638 139.824353 
L 774.729687 139.55642 
L 777.37634 139.598327 
L 780.022993 139.479199 
L 785.3163 139.474981 
L 787.962953 139.249104 
L 793.25626 139.266422 
L 798.549567 139.252919 
L 801.19622 139.163764 
L 803.842873 138.95902 
L 814.429487 138.879573 
L 822.369447 138.655922 
L 830.309407 138.713811 
L 835.602713 138.43617 
L 840.89602 138.24936 
L 843.542673 138.301123 
L 843.542673 138.301123 
" clip-path="url(#p56593ddad1)" style="fill: none; stroke: #0000ff; stroke-width: 1.5; stroke-linecap: square"/>
   </g>
   <g id="patch_3">
    <path d="M 50.87 390.04 
L 50.87 43.44 
" style="fill: none; stroke: #000000; stroke-width: 0.8; stroke-linejoin: miter; stroke-linecap: square"/>
   </g>
   <g id="patch_4">
    <path d="M 844.866 390.04 
L 844.866 43.44 
" style="fill: none; stroke: #000000; stroke-width: 0.8; stroke-linejoin: miter; stroke-linecap: square"/>
   </g>
   <g id="patch_5">
    <path d="M 50.87 390.04 
L 844.866 390.04 
" style="fill: none; stroke: #000000; stroke-width: 0.8; stroke-linejoin: miter; stroke-linecap: square"/>
   </g>
   <g id="patch_6">
    <path d="M 50.87 43.44 
L 844.866 43.44 
" style="fill: none; stroke: #000000; stroke-width: 0.8; stroke-linejoin: miter; stroke-linecap: square"/>
   </g>
   <g id="text_15">
    <!-- Mean profit per step with confidence interval per simulation step -->
    <g transform="translate(220.284875 21.763062) scale(0.14 -0.14)">
     <defs>
      <path id="DejaVuSans-4d" d="M 628 4666 
L 1569 4666 
L 2759 1491 
L 3956 4666 
L 4897 4666 
L 4897 0 
L 4281 0 
L 4281 4097 
L 3078 897 
L 2444 897 
L 1241 4097 
L 1241 0 
L 628 0 
L 628 4666 
z
" transform="scale(0.015625)"/>
      <path id="DejaVuSans-61" d="M 2194 1759 
Q 1497 1759 1228 1600 
Q 959 1441 959 1056 
Q 959 750 1161 570 
Q 1363 391 1709 391 
Q 2188 391 2477 730 
Q 2766 1069 2766 1631 
L 2766 1759 
L 2194 1759 
z
M 3341 1997 
L 3341 0 
L 2766 0 
L 2766 531 
Q 2569 213 2275 61 
Q 1981 -91 1556 -91 
Q 1019 -91 701 211 
Q 384 513 384 1019 
Q 384 1609 779 1909 
Q 1175 2209 1959 2209 
L 2766 2209 
L 2766 2266 
Q 2766 2663 2505 2880 
Q 2244 3097 1772 3097 
Q 1472 3097 1187 3025 
Q 903 2953 641 2809 
L 641 3341 
Q 956 3463 1253 3523 
Q 1550 3584 1831 3584 
Q 2591 3584 2966 3190 
Q 3341 2797 3341 1997 
z
" transform="scale(0.015625)"/>
      <path id="DejaVuSans-6e" d="M 3513 2113 
L 3513 0 
L 2938 0 
L 2938 2094 
Q 2938 2591 2744 2837 
Q 2550 3084 2163 3084 
Q 1697 3084 1428 2787 
Q 1159 2491 1159 1978 
L 1159 0 
L 581 0 
L 581 3500 
L 1159 3500 
L 1159 2956 
Q 1366 3272 1645 3428 
Q 1925 3584 2291 3584 
Q 2894 3584 3203 3211 
Q 3513 2838 3513 2113 
z
" transform="scale(0.015625)"/>
      <path id="DejaVuSans-20" transform="scale(0.015625)"/>
      <path id="DejaVuSans-73" d="M 2834 3397 
L 2834 2853 
Q 2591 2978 2328 3040 
Q 2066 3103 1784 3103 
Q 1356 3103 1142 2972 
Q 928 2841 928 2578 
Q 928 2378 1081 2264 
Q 1234 2150 1697 2047 
L 1894 2003 
Q 2506 1872 2764 1633 
Q 3022 1394 3022 966 
Q 3022 478 2636 193 
Q 2250 -91 1575 -91 
Q 1294 -91 989 -36 
Q 684 19 347 128 
L 347 722 
Q 666 556 975 473 
Q 1284 391 1588 391 
Q 1994 391 2212 530 
Q 2431 669 2431 922 
Q 2431 1156 2273 1281 
Q 2116 1406 1581 1522 
L 1381 1569 
Q 847 1681 609 1914 
Q 372 2147 372 2553 
Q 372 3047 722 3315 
Q 1072 3584 1716 3584 
Q 2034 3584 2315 3537 
Q 2597 3491 2834 3397 
z
" transform="scale(0.015625)"/>
      <path id="DejaVuSans-77" d="M 269 3500 
L 844 3500 
L 1563 769 
L 2278 3500 
L 2956 3500 
L 3675 769 
L 4391 3500 
L 4966 3500 
L 4050 0 
L 3372 0 
L 2619 2869 
L 1863 0 
L 1184 0 
L 269 3500 
z
" transform="scale(0.015625)"/>
      <path id="DejaVuSans-68" d="M 3513 2113 
L 3513 0 
L 2938 0 
L 2938 2094 
Q 2938 2591 2744 2837 
Q 2550 3084 2163 3084 
Q 1697 3084 1428 2787 
Q 1159 2491 1159 1978 
L 1159 0 
L 581 0 
L 581 4863 
L 1159 4863 
L 1159 2956 
Q 1366 3272 1645 3428 
Q 1925 3584 2291 3584 
Q 2894 3584 3203 3211 
Q 3513 2838 3513 2113 
z
" transform="scale(0.015625)"/>
      <path id="DejaVuSans-63" d="M 3122 3366 
L 3122 2828 
Q 2878 2963 2633 3030 
Q 2388 3097 2138 3097 
Q 1578 3097 1268 2742 
Q 959 2388 959 1747 
Q 959 1106 1268 751 
Q 1578 397 2138 397 
Q 2388 397 2633 464 
Q 2878 531 3122 666 
L 3122 134 
Q 2881 22 2623 -34 
Q 2366 -91 2075 -91 
Q 1284 -91 818 406 
Q 353 903 353 1747 
Q 353 2603 823 3093 
Q 1294 3584 2113 3584 
Q 2378 3584 2631 3529 
Q 2884 3475 3122 3366 
z
" transform="scale(0.015625)"/>
      <path id="DejaVuSans-64" d="M 2906 2969 
L 2906 4863 
L 3481 4863 
L 3481 0 
L 2906 0 
L 2906 525 
Q 2725 213 2448 61 
Q 2172 -91 1784 -91 
Q 1150 -91 751 415 
Q 353 922 353 1747 
Q 353 2572 751 3078 
Q 1150 3584 1784 3584 
Q 2172 3584 2448 3432 
Q 2725 3281 2906 2969 
z
M 947 1747 
Q 947 1113 1208 752 
Q 1469 391 1925 391 
Q 2381 391 2643 752 
Q 2906 1113 2906 1747 
Q 2906 2381 2643 2742 
Q 2381 3103 1925 3103 
Q 1469 3103 1208 2742 
Q 947 2381 947 1747 
z
" transform="scale(0.015625)"/>
      <path id="DejaVuSans-76" d="M 191 3500 
L 800 3500 
L 1894 563 
L 2988 3500 
L 3597 3500 
L 2284 0 
L 1503 0 
L 191 3500 
z
" transform="scale(0.015625)"/>
      <path id="DejaVuSans-6c" d="M 603 4863 
L 1178 4863 
L 1178 0 
L 603 0 
L 603 4863 
z
" transform="scale(0.015625)"/>
      <path id="DejaVuSans-6d" d="M 3328 2828 
Q 3544 3216 3844 3400 
Q 4144 3584 4550 3584 
Q 5097 3584 5394 3201 
Q 5691 2819 5691 2113 
L 5691 0 
L 5113 0 
L 5113 2094 
Q 5113 2597 4934 2840 
Q 4756 3084 4391 3084 
Q 3944 3084 3684 2787 
Q 3425 2491 3425 1978 
L 3425 0 
L 2847 0 
L 2847 2094 
Q 2847 2600 2669 2842 
Q 2491 3084 2119 3084 
Q 1678 3084 1418 2786 
Q 1159 2488 1159 1978 
L 1159 0 
L 581 0 
L 581 3500 
L 1159 3500 
L 1159 2956 
Q 1356 3278 1631 3431 
Q 1906 3584 2284 3584 
Q 2666 3584 2933 3390 
Q 3200 3197 3328 2828 
z
" transform="scale(0.015625)"/>
      <path id="DejaVuSans-75" d="M 544 1381 
L 544 3500 
L 1119 3500 
L 1119 1403 
Q 1119 906 1312 657 
Q 1506 409 1894 409 
Q 2359 409 2629 706 
Q 2900 1003 2900 1516 
L 2900 3500 
L 3475 3500 
L 3475 0 
L 2900 0 
L 2900 538 
Q 2691 219 2414 64 
Q 2138 -91 1772 -91 
Q 1169 -91 856 284 
Q 544 659 544 1381 
z
M 1991 3584 
L 1991 3584 
z
" transform="scale(0.015625)"/>
     </defs>
     <use xlink:href="#DejaVuSans-4d"/>
     <use xlink:href="#DejaVuSans-65" transform="translate(86.279297 0)"/>
     <use xlink:href="#DejaVuSans-61" transform="translate(147.802734 0)"/>
     <use xlink:href="#DejaVuSans-6e" transform="translate(209.082031 0)"/>
     <use xlink:href="#DejaVuSans-20" transform="translate(272.460938 0)"/>
     <use xlink:href="#DejaVuSans-70" transform="translate(304.248047 0)"/>
     <use xlink:href="#DejaVuSans-72" transform="translate(367.724609 0)"/>
     <use xlink:href="#DejaVuSans-6f" transform="translate(406.587891 0)"/>
     <use xlink:href="#DejaVuSans-66" transform="translate(467.769531 0)"/>
     <use xlink:href="#DejaVuSans-69" transform="translate(502.974609 0)"/>
     <use xlink:href="#DejaVuSans-74" transform="translate(530.757812 0)"/>
     <use xlink:href="#DejaVuSans-20" transform="translate(569.966797 0)"/>
     <use xlink:href="#DejaVuSans-70" transform="translate(601.753906 0)"/>
     <use xlink:href="#DejaVuSans-65" transform="translate(665.230469 0)"/>
     <use xlink:href="#DejaVuSans-72" transform="translate(726.753906 0)"/>
     <use xlink:href="#DejaVuSans-20" transform="translate(767.867188 0)"/>
     <use xlink:href="#DejaVuSans-73" transform="translate(799.654297 0)"/>
     <use xlink:href="#DejaVuSans-74" transform="translate(851.753906 0)"/>
     <use xlink:href="#DejaVuSans-65" transform="translate(890.962891 0)"/>
     <use xlink:href="#DejaVuSans-70" transform="translate(952.486328 0)"/>
     <use xlink:href="#DejaVuSans-20" transform="translate(1015.962891 0)"/>
     <use xlink:href="#DejaVuSans-77" transform="translate(1047.75 0)"/>
     <use xlink:href="#DejaVuSans-69" transform="translate(1129.537109 0)"/>
     <use xlink:href="#DejaVuSans-74" transform="translate(1157.320312 0)"/>
     <use xlink:href="#DejaVuSans-68" transform="translate(1196.529297 0)"/>
     <use xlink:href="#DejaVuSans-20" transform="translate(1259.908203 0)"/>
     <use xlink:href="#DejaVuSans-63" transform="translate(1291.695312 0)"/>
     <use xlink:href="#DejaVuSans-6f" transform="translate(1346.675781 0)"/>
     <use xlink:href="#DejaVuSans-6e" transform="translate(1407.857422 0)"/>
     <use xlink:href="#DejaVuSans-66" transform="translate(1471.236328 0)"/>
     <use xlink:href="#DejaVuSans-69" transform="translate(1506.441406 0)"/>
     <use xlink:href="#DejaVuSans-64" transform="translate(1534.224609 0)"/>
     <use xlink:href="#DejaVuSans-65" transform="translate(1597.701172 0)"/>
     <use xlink:href="#DejaVuSans-6e" transform="translate(1659.224609 0)"/>
     <use xlink:href="#DejaVuSans-63" transform="translate(1722.603516 0)"/>
     <use xlink:href="#DejaVuSans-65" transform="translate(1777.583984 0)"/>
     <use xlink:href="#DejaVuSans-20" transform="translate(1839.107422 0)"/>
     <use xlink:href="#DejaVuSans-69" transform="translate(1870.894531 0)"/>
     <use xlink:href="#DejaVuSans-6e" transform="translate(1898.677734 0)"/>
     <use xlink:href="#DejaVuSans-74" transform="translate(1962.056641 0)"/>
     <use xlink:href="#DejaVuSans-65" transform="translate(2001.265625 0)"/>
     <use xlink:href="#DejaVuSans-72" transform="translate(2062.789062 0)"/>
     <use xlink:href="#DejaVuSans-76" transform="translate(2103.902344 0)"/>
     <use xlink:href="#DejaVuSans-61" transform="translate(2163.082031 0)"/>
     <use xlink:href="#DejaVuSans-6c" transform="translate(2224.361328 0)"/>
     <use xlink:href="#DejaVuSans-20" transform="translate(2252.144531 0)"/>
     <use xlink:href="#DejaVuSans-70" transform="translate(2283.931641 0)"/>
     <use xlink:href="#DejaVuSans-65" transform="translate(2347.408203 0)"/>
     <use xlink:href="#DejaVuSans-72" transform="translate(2408.931641 0)"/>
     <use xlink:href="#DejaVuSans-20" transform="translate(2450.044922 0)"/>
     <use xlink:href="#DejaVuSans-73" transform="translate(2481.832031 0)"/>
     <use xlink:href="#DejaVuSans-69" transform="translate(2533.931641 0)"/>
     <use xlink:href="#DejaVuSans-6d" transform="translate(2561.714844 0)"/>
     <use xlink:href="#DejaVuSans-75" transform="translate(2659.126953 0)"/>
     <use xlink:href="#DejaVuSans-6c" transform="translate(2722.505859 0)"/>
     <use xlink:href="#DejaVuSans-61" transform="translate(2750.289062 0)"/>
     <use xlink:href="#DejaVuSans-74" transform="translate(2811.568359 0)"/>
     <use xlink:href="#DejaVuSans-69" transform="translate(2850.777344 0)"/>
     <use xlink:href="#DejaVuSans-6f" transform="translate(2878.560547 0)"/>
     <use xlink:href="#DejaVuSans-6e" transform="translate(2939.742188 0)"/>
     <use xlink:href="#DejaVuSans-20" transform="translate(3003.121094 0)"/>
     <use xlink:href="#DejaVuSans-73" transform="translate(3034.908203 0)"/>
     <use xlink:href="#DejaVuSans-74" transform="translate(3087.007812 0)"/>
     <use xlink:href="#DejaVuSans-65" transform="translate(3126.216797 0)"/>
     <use xlink:href="#DejaVuSans-70" transform="translate(3187.740234 0)"/>
    </g>
    <!-- Base Product: OG Kush, Recipe size: 9, T0: 20.0 -->
    <g transform="translate(281.490031 37.44) scale(0.14 -0.14)">
     <defs>
      <path id="DejaVuSans-42" d="M 1259 2228 
L 1259 519 
L 2272 519 
Q 2781 519 3026 730 
Q 3272 941 3272 1375 
Q 3272 1813 3026 2020 
Q 2781 2228 2272 2228 
L 1259 2228 
z
M 1259 4147 
L 1259 2741 
L 2194 2741 
Q 2656 2741 2882 2914 
Q 3109 3088 3109 3444 
Q 3109 3797 2882 3972 
Q 2656 4147 2194 4147 
L 1259 4147 
z
M 628 4666 
L 2241 4666 
Q 2963 4666 3353 4366 
Q 3744 4066 3744 3513 
Q 3744 3084 3544 2831 
Q 3344 2578 2956 2516 
Q 3422 2416 3680 2098 
Q 3938 1781 3938 1306 
Q 3938 681 3513 340 
Q 3088 0 2303 0 
L 628 0 
L 628 4666 
z
" transform="scale(0.015625)"/>
      <path id="DejaVuSans-3a" d="M 750 794 
L 1409 794 
L 1409 0 
L 750 0 
L 750 794 
z
M 750 3309 
L 1409 3309 
L 1409 2516 
L 750 2516 
L 750 3309 
z
" transform="scale(0.015625)"/>
      <path id="DejaVuSans-4f" d="M 2522 4238 
Q 1834 4238 1429 3725 
Q 1025 3213 1025 2328 
Q 1025 1447 1429 934 
Q 1834 422 2522 422 
Q 3209 422 3611 934 
Q 4013 1447 4013 2328 
Q 4013 3213 3611 3725 
Q 3209 4238 2522 4238 
z
M 2522 4750 
Q 3503 4750 4090 4092 
Q 4678 3434 4678 2328 
Q 4678 1225 4090 567 
Q 3503 -91 2522 -91 
Q 1538 -91 948 565 
Q 359 1222 359 2328 
Q 359 3434 948 4092 
Q 1538 4750 2522 4750 
z
" transform="scale(0.015625)"/>
      <path id="DejaVuSans-47" d="M 3809 666 
L 3809 1919 
L 2778 1919 
L 2778 2438 
L 4434 2438 
L 4434 434 
Q 4069 175 3628 42 
Q 3188 -91 2688 -91 
Q 1594 -91 976 548 
Q 359 1188 359 2328 
Q 359 3472 976 4111 
Q 1594 4750 2688 4750 
Q 3144 4750 3555 4637 
Q 3966 4525 4313 4306 
L 4313 3634 
Q 3963 3931 3569 4081 
Q 3175 4231 2741 4231 
Q 1884 4231 1454 3753 
Q 1025 3275 1025 2328 
Q 1025 1384 1454 906 
Q 1884 428 2741 428 
Q 3075 428 3337 486 
Q 3600 544 3809 666 
z
" transform="scale(0.015625)"/>
      <path id="DejaVuSans-4b" d="M 628 4666 
L 1259 4666 
L 1259 2694 
L 3353 4666 
L 4166 4666 
L 1850 2491 
L 4331 0 
L 3500 0 
L 1259 2247 
L 1259 0 
L 628 0 
L 628 4666 
z
" transform="scale(0.015625)"/>
      <path id="DejaVuSans-2c" d="M 750 794 
L 1409 794 
L 1409 256 
L 897 -744 
L 494 -744 
L 750 256 
L 750 794 
z
" transform="scale(0.015625)"/>
      <path id="DejaVuSans-52" d="M 2841 2188 
Q 3044 2119 3236 1894 
Q 3428 1669 3622 1275 
L 4263 0 
L 3584 0 
L 2988 1197 
Q 2756 1666 2539 1819 
Q 2322 1972 1947 1972 
L 1259 1972 
L 1259 0 
L 628 0 
L 628 4666 
L 2053 4666 
Q 2853 4666 3247 4331 
Q 3641 3997 3641 3322 
Q 3641 2881 3436 2590 
Q 3231 2300 2841 2188 
z
M 1259 4147 
L 1259 2491 
L 2053 2491 
Q 2509 2491 2742 2702 
Q 2975 2913 2975 3322 
Q 2975 3731 2742 3939 
Q 2509 4147 2053 4147 
L 1259 4147 
z
" transform="scale(0.015625)"/>
      <path id="DejaVuSans-7a" d="M 353 3500 
L 3084 3500 
L 3084 2975 
L 922 459 
L 3084 459 
L 3084 0 
L 275 0 
L 275 525 
L 2438 3041 
L 353 3041 
L 353 3500 
z
" transform="scale(0.015625)"/>
      <path id="DejaVuSans-39" d="M 703 97 
L 703 672 
Q 941 559 1184 500 
Q 1428 441 1663 441 
Q 2288 441 2617 861 
Q 2947 1281 2994 2138 
Q 2813 1869 2534 1725 
Q 2256 1581 1919 1581 
Q 1219 1581 811 2004 
Q 403 2428 403 3163 
Q 403 3881 828 4315 
Q 1253 4750 1959 4750 
Q 2769 4750 3195 4129 
Q 3622 3509 3622 2328 
Q 3622 1225 3098 567 
Q 2575 -91 1691 -91 
Q 1453 -91 1209 -44 
Q 966 3 703 97 
z
M 1959 2075 
Q 2384 2075 2632 2365 
Q 2881 2656 2881 3163 
Q 2881 3666 2632 3958 
Q 2384 4250 1959 4250 
Q 1534 4250 1286 3958 
Q 1038 3666 1038 3163 
Q 1038 2656 1286 2365 
Q 1534 2075 1959 2075 
z
" transform="scale(0.015625)"/>
      <path id="DejaVuSans-54" d="M -19 4666 
L 3928 4666 
L 3928 4134 
L 2272 4134 
L 2272 0 
L 1638 0 
L 1638 4134 
L -19 4134 
L -19 4666 
z
" transform="scale(0.015625)"/>
      <path id="DejaVuSans-2e" d="M 684 794 
L 1344 794 
L 1344 0 
L 684 0 
L 684 794 
z
" transform="scale(0.015625)"/>
     </defs>
     <use xlink:href="#DejaVuSans-42"/>
     <use xlink:href="#DejaVuSans-61" transform="translate(68.603516 0)"/>
     <use xlink:href="#DejaVuSans-73" transform="translate(129.882812 0)"/>
     <use xlink:href="#DejaVuSans-65" transform="translate(181.982422 0)"/>
     <use xlink:href="#DejaVuSans-20" transform="translate(243.505859 0)"/>
     <use xlink:href="#DejaVuSans-50" transform="translate(275.292969 0)"/>
     <use xlink:href="#DejaVuSans-72" transform="translate(333.845703 0)"/>
     <use xlink:href="#DejaVuSans-6f" transform="translate(372.708984 0)"/>
     <use xlink:href="#DejaVuSans-64" transform="translate(433.890625 0)"/>
     <use xlink:href="#DejaVuSans-75" transform="translate(497.367188 0)"/>
     <use xlink:href="#DejaVuSans-63" transform="translate(560.746094 0)"/>
     <use xlink:href="#DejaVuSans-74" transform="translate(615.726562 0)"/>
     <use xlink:href="#DejaVuSans-3a" transform="translate(654.935547 0)"/>
     <use xlink:href="#DejaVuSans-20" transform="translate(688.626953 0)"/>
     <use xlink:href="#DejaVuSans-4f" transform="translate(720.414062 0)"/>
     <use xlink:href="#DejaVuSans-47" transform="translate(799.125 0)"/>
     <use xlink:href="#DejaVuSans-20" transform="translate(876.615234 0)"/>
     <use xlink:href="#DejaVuSans-4b" transform="translate(908.402344 0)"/>
     <use xlink:href="#DejaVuSans-75" transform="translate(968.978516 0)"/>
     <use xlink:href="#DejaVuSans-73" transform="translate(1032.357422 0)"/>
     <use xlink:href="#DejaVuSans-68" transform="translate(1084.457031 0)"/>
     <use xlink:href="#DejaVuSans-2c" transform="translate(1147.835938 0)"/>
     <use xlink:href="#DejaVuSans-20" transform="translate(1179.623047 0)"/>
     <use xlink:href="#DejaVuSans-52" transform="translate(1211.410156 0)"/>
     <use xlink:href="#DejaVuSans-65" transform="translate(1276.392578 0)"/>
     <use xlink:href="#DejaVuSans-63" transform="translate(1337.916016 0)"/>
     <use xlink:href="#DejaVuSans-69" transform="translate(1392.896484 0)"/>
     <use xlink:href="#DejaVuSans-70" transform="translate(1420.679688 0)"/>
     <use xlink:href="#DejaVuSans-65" transform="translate(1484.15625 0)"/>
     <use xlink:href="#DejaVuSans-20" transform="translate(1545.679688 0)"/>
     <use xlink:href="#DejaVuSans-73" transform="translate(1577.466797 0)"/>
     <use xlink:href="#DejaVuSans-69" transform="translate(1629.566406 0)"/>
     <use xlink:href="#DejaVuSans-7a" transform="translate(1657.349609 0)"/>
     <use xlink:href="#DejaVuSans-65" transform="translate(1709.839844 0)"/>
     <use xlink:href="#DejaVuSans-3a" transform="translate(1771.363281 0)"/>
     <use xlink:href="#DejaVuSans-20" transform="translate(1805.054688 0)"/>
     <use xlink:href="#DejaVuSans-39" transform="translate(1836.841797 0)"/>
     <use xlink:href="#DejaVuSans-2c" transform="translate(1900.464844 0)"/>
     <use xlink:href="#DejaVuSans-20" transform="translate(1932.251953 0)"/>
     <use xlink:href="#DejaVuSans-54" transform="translate(1964.039062 0)"/>
     <use xlink:href="#DejaVuSans-30" transform="translate(2025.123047 0)"/>
     <use xlink:href="#DejaVuSans-3a" transform="translate(2088.746094 0)"/>
     <use xlink:href="#DejaVuSans-20" transform="translate(2122.4375 0)"/>
     <use xlink:href="#DejaVuSans-32" transform="translate(2154.224609 0)"/>
     <use xlink:href="#DejaVuSans-30" transform="translate(2217.847656 0)"/>
     <use xlink:href="#DejaVuSans-2e" transform="translate(2281.470703 0)"/>
     <use xlink:href="#DejaVuSans-30" transform="translate(2313.257812 0)"/>
    </g>
   </g>
  </g>
 </g>
 <defs>
  <clipPath id="p56593ddad1">
   <rect x="50.87" y="43.44" width="793.996" height="346.6"/>
  </clipPath>
 </defs>
</svg>
