<?xml version="1.0" encoding="utf-8" standalone="no"?>
<!DOCTYPE svg PUBLIC "-//W3C//DTD SVG 1.1//EN"
  "http://www.w3.org/Graphics/SVG/1.1/DTD/svg11.dtd">
<svg xmlns:xlink="http://www.w3.org/1999/xlink" width="864pt" height="432pt" viewBox="0 0 864 432" xmlns="http://www.w3.org/2000/svg" version="1.1">
 <metadata>
  <rdf:RDF xmlns:dc="http://purl.org/dc/elements/1.1/" xmlns:cc="http://creativecommons.org/ns#" xmlns:rdf="http://www.w3.org/1999/02/22-rdf-syntax-ns#">
   <cc:Work>
    <dc:type rdf:resource="http://purl.org/dc/dcmitype/StillImage"/>
    <dc:date>2025-05-24T02:05:19.683478</dc:date>
    <dc:format>image/svg+xml</dc:format>
    <dc:creator>
     <cc:Agent>
      <dc:title>Matplotlib v3.10.3, https://matplotlib.org/</dc:title>
     </cc:Agent>
    </dc:creator>
   </cc:Work>
  </rdf:RDF>
 </metadata>
 <defs>
  <style type="text/css">*{stroke-linejoin: round; stroke-linecap: butt}</style>
 </defs>
 <g id="figure_1">
  <g id="patch_1">
   <path d="M 0 432 
L 864 432 
L 864 0 
L 0 0 
z
" style="fill: #ffffff"/>
  </g>
  <g id="axes_1">
   <g id="patch_2">
    <path d="M 50.87 390.04 
L 844.866 390.04 
L 844.866 43.44 
L 50.87 43.44 
z
" style="fill: #ffffff"/>
   </g>
   <g id="FillBetweenPolyCollection_1">
    <defs>
     <path id="m17850ac61f" d="M 52.193327 -308.39311 
L 52.193327 -57.714545 
L 54.83998 -57.72222 
L 57.486633 -62.345591 
L 60.133287 -70.307447 
L 62.77994 -78.185463 
L 65.426593 -84.253006 
L 68.073247 -90.719291 
L 70.7199 -96.574896 
L 73.366553 -101.807027 
L 76.013207 -106.033 
L 78.65986 -109.716217 
L 81.306513 -113.493915 
L 83.953167 -117.805127 
L 86.59982 -120.920767 
L 89.246473 -124.82323 
L 91.893127 -127.06844 
L 94.53978 -129.769379 
L 97.186433 -133.039816 
L 99.833087 -135.314601 
L 102.47974 -137.817329 
L 105.126393 -139.999168 
L 107.773047 -141.483099 
L 110.4197 -142.977681 
L 113.066353 -145.339749 
L 115.713007 -148.229191 
L 118.35966 -149.705437 
L 121.006313 -151.541943 
L 123.652967 -153.47446 
L 126.29962 -155.127982 
L 128.946273 -156.476285 
L 131.592927 -157.010522 
L 134.23958 -157.278046 
L 136.886233 -158.25274 
L 139.532887 -159.582807 
L 142.17954 -161.518579 
L 144.826193 -162.309756 
L 147.472847 -163.630782 
L 150.1195 -164.527134 
L 152.766153 -164.661585 
L 155.412807 -166.058033 
L 158.05946 -167.20305 
L 160.706113 -168.068804 
L 163.352767 -168.976084 
L 165.99942 -169.315287 
L 168.646073 -169.586931 
L 171.292727 -170.47362 
L 173.93938 -171.754587 
L 176.586033 -172.137059 
L 179.232687 -173.071905 
L 181.87934 -174.029429 
L 184.525993 -174.334802 
L 187.172647 -174.974492 
L 189.8193 -176.400893 
L 192.465953 -176.222274 
L 195.112607 -177.942354 
L 197.75926 -178.49084 
L 200.405913 -178.781487 
L 203.052567 -179.455761 
L 205.69922 -179.556338 
L 208.345873 -180.176902 
L 210.992527 -181.067323 
L 213.63918 -181.163569 
L 216.285833 -181.813409 
L 218.932487 -182.151568 
L 221.57914 -183.495495 
L 224.225793 -184.019393 
L 226.872447 -184.835314 
L 229.5191 -185.1868 
L 232.165753 -184.477231 
L 234.812407 -184.51699 
L 237.45906 -185.23309 
L 240.105713 -185.921624 
L 242.752367 -186.903959 
L 245.39902 -187.685385 
L 248.045673 -188.130739 
L 250.692327 -188.213369 
L 253.33898 -188.364723 
L 255.985633 -188.631225 
L 258.632287 -188.433847 
L 261.27894 -188.923671 
L 263.925593 -189.140662 
L 266.572247 -189.303455 
L 269.2189 -189.660006 
L 271.865553 -190.243854 
L 274.512207 -190.159292 
L 277.15886 -190.495118 
L 279.805513 -190.842428 
L 282.452167 -191.440292 
L 285.09882 -191.880538 
L 287.745473 -192.463564 
L 290.392127 -193.226243 
L 293.03878 -193.454384 
L 295.685433 -194.087055 
L 298.332087 -193.653406 
L 300.97874 -193.625751 
L 303.625393 -194.109755 
L 306.272047 -194.471792 
L 308.9187 -194.406933 
L 311.565353 -194.233455 
L 314.212007 -194.331855 
L 316.85866 -194.977564 
L 319.505313 -195.588445 
L 322.151967 -196.181688 
L 324.79862 -196.189463 
L 327.445273 -195.924649 
L 330.091927 -196.155322 
L 332.73858 -196.520069 
L 335.385233 -196.413384 
L 338.031887 -196.420936 
L 340.67854 -197.556935 
L 343.325193 -197.610866 
L 345.971847 -197.776592 
L 348.6185 -198.344047 
L 351.265153 -197.722105 
L 353.911807 -198.203444 
L 356.55846 -198.309418 
L 359.205113 -199.052194 
L 361.851767 -199.020098 
L 364.49842 -199.051106 
L 367.145073 -199.209168 
L 369.791727 -199.246796 
L 372.43838 -199.81836 
L 375.085033 -200.500075 
L 377.731687 -200.06456 
L 380.37834 -199.951678 
L 383.024993 -199.840395 
L 385.671647 -199.980842 
L 388.3183 -200.144435 
L 390.964953 -200.629528 
L 393.611607 -200.440746 
L 396.25826 -200.759136 
L 398.904913 -201.176592 
L 401.551567 -201.124838 
L 404.19822 -201.517483 
L 406.844873 -202.589245 
L 409.491527 -202.449596 
L 412.13818 -202.033739 
L 414.784833 -201.899467 
L 417.431487 -201.761462 
L 420.07814 -201.900511 
L 422.724793 -201.827166 
L 425.371447 -202.541666 
L 428.0181 -202.006441 
L 430.664753 -202.351552 
L 433.311407 -203.176335 
L 435.95806 -203.209409 
L 438.604713 -204.043078 
L 441.251367 -204.170665 
L 443.89802 -204.076707 
L 446.544673 -204.079595 
L 449.191327 -203.266673 
L 451.83798 -203.40772 
L 454.484633 -203.274713 
L 457.131287 -203.487107 
L 459.77794 -204.048987 
L 462.424593 -204.404115 
L 465.071247 -204.171887 
L 467.7179 -204.99576 
L 470.364553 -205.321124 
L 473.011207 -205.832316 
L 475.65786 -205.910459 
L 478.304513 -206.600148 
L 480.951167 -206.770071 
L 483.59782 -206.469651 
L 486.244473 -206.197529 
L 488.891127 -206.725602 
L 491.53778 -207.490347 
L 494.184433 -207.792921 
L 496.831087 -207.852006 
L 499.47774 -208.073928 
L 502.124393 -208.122595 
L 504.771047 -208.187343 
L 507.4177 -207.630195 
L 510.064353 -207.879482 
L 512.711007 -207.765445 
L 515.35766 -208.624991 
L 518.004313 -208.928143 
L 520.650967 -209.024788 
L 523.29762 -209.093691 
L 525.944273 -209.166769 
L 528.590927 -209.500352 
L 531.23758 -209.679027 
L 533.884233 -209.589134 
L 536.530887 -209.206706 
L 539.17754 -209.147977 
L 541.824193 -209.31719 
L 544.470847 -209.303152 
L 547.1175 -209.593576 
L 549.764153 -209.786045 
L 552.410807 -209.688511 
L 555.05746 -210.030135 
L 557.704113 -209.859878 
L 560.350767 -209.809812 
L 562.99742 -210.66325 
L 565.644073 -210.579821 
L 568.290727 -210.77902 
L 570.93738 -211.080306 
L 573.584033 -211.434991 
L 576.230687 -211.190745 
L 578.87734 -210.88475 
L 581.523993 -211.648805 
L 584.170647 -211.815686 
L 586.8173 -211.3401 
L 589.463953 -212.005134 
L 592.110607 -212.414727 
L 594.75726 -212.400755 
L 597.403913 -212.448001 
L 600.050567 -212.417859 
L 602.69722 -212.844711 
L 605.343873 -213.201328 
L 607.990527 -213.214078 
L 610.63718 -212.794023 
L 613.283833 -213.102239 
L 615.930487 -213.362078 
L 618.57714 -212.77412 
L 621.223793 -212.193027 
L 623.870447 -212.403821 
L 626.5171 -212.792334 
L 629.163753 -212.574833 
L 631.810407 -212.663903 
L 634.45706 -212.659195 
L 637.103713 -212.518347 
L 639.750367 -212.43916 
L 642.39702 -212.560883 
L 645.043673 -212.403732 
L 647.690327 -212.795666 
L 650.33698 -212.645689 
L 652.983633 -212.834093 
L 655.630287 -213.205082 
L 658.27694 -213.07554 
L 660.923593 -212.440049 
L 663.570247 -213.05626 
L 666.2169 -213.213478 
L 668.863553 -213.165366 
L 671.510207 -213.19382 
L 674.15686 -213.628002 
L 676.803513 -213.326605 
L 679.450167 -213.858476 
L 682.09682 -213.718273 
L 684.743473 -213.848081 
L 687.390127 -213.788508 
L 690.03678 -213.839951 
L 692.683433 -213.777179 
L 695.330087 -214.224978 
L 697.97674 -214.670021 
L 700.623393 -215.047718 
L 703.270047 -215.275193 
L 705.9167 -215.433122 
L 708.563353 -215.499514 
L 711.210007 -215.707865 
L 713.85666 -215.445094 
L 716.503313 -215.33541 
L 719.149967 -215.543406 
L 721.79662 -215.749335 
L 724.443273 -215.479035 
L 727.089927 -216.119413 
L 729.73658 -216.103731 
L 732.383233 -216.25162 
L 735.029887 -216.49391 
L 737.67654 -216.725495 
L 740.323193 -216.825894 
L 742.969847 -216.734491 
L 745.6165 -216.680315 
L 748.263153 -216.429673 
L 750.909807 -216.361037 
L 753.55646 -216.932713 
L 756.203113 -217.040175 
L 758.849767 -217.324425 
L 761.49642 -217.236509 
L 764.143073 -217.413674 
L 766.789727 -216.807902 
L 769.43638 -216.750017 
L 772.083033 -217.032956 
L 774.729687 -216.915854 
L 777.37634 -216.750373 
L 780.022993 -216.905369 
L 782.669647 -217.038376 
L 785.3163 -217.583753 
L 787.962953 -218.058872 
L 790.609607 -218.257938 
L 793.25626 -218.212936 
L 795.902913 -218.277085 
L 798.549567 -218.481215 
L 801.19622 -218.949204 
L 803.842873 -219.234431 
L 806.489527 -219.526743 
L 809.13618 -219.5745 
L 811.782833 -219.434141 
L 814.429487 -219.455642 
L 817.07614 -219.017617 
L 819.722793 -219.216106 
L 822.369447 -219.217127 
L 825.0161 -219.439783 
L 827.662753 -219.56446 
L 830.309407 -219.672056 
L 832.95606 -219.605619 
L 835.602713 -219.504176 
L 838.249367 -219.303178 
L 840.89602 -219.213662 
L 843.542673 -219.12839 
L 843.542673 -372.361077 
L 843.542673 -372.361077 
L 840.89602 -372.229758 
L 838.249367 -372.274627 
L 835.602713 -372.132247 
L 832.95606 -371.936868 
L 830.309407 -371.97112 
L 827.662753 -372.068098 
L 825.0161 -372.18027 
L 822.369447 -372.217675 
L 819.722793 -372.170941 
L 817.07614 -372.412432 
L 814.429487 -372.130514 
L 811.782833 -372.138955 
L 809.13618 -371.921409 
L 806.489527 -371.863213 
L 803.842873 -372.140599 
L 801.19622 -372.154814 
L 798.549567 -372.349838 
L 795.902913 -372.434066 
L 793.25626 -372.274183 
L 790.609607 -372.207058 
L 787.962953 -372.262055 
L 785.3163 -372.520472 
L 782.669647 -372.805455 
L 780.022993 -372.684753 
L 777.37634 -372.552146 
L 774.729687 -372.248461 
L 772.083033 -372.212166 
L 769.43638 -372.312832 
L 766.789727 -372.024962 
L 764.143073 -371.541846 
L 761.49642 -371.489248 
L 758.849767 -371.371168 
L 756.203113 -371.392136 
L 753.55646 -371.454774 
L 750.909807 -371.793022 
L 748.263153 -371.682627 
L 745.6165 -371.349577 
L 742.969847 -371.109686 
L 740.323193 -371.013018 
L 737.67654 -370.917816 
L 735.029887 -370.956954 
L 732.383233 -371.182097 
L 729.73658 -371.100801 
L 727.089927 -371.05651 
L 724.443273 -371.568234 
L 721.79662 -371.329764 
L 719.149967 -371.390403 
L 716.503313 -371.339893 
L 713.85666 -371.129943 
L 711.210007 -370.803868 
L 708.563353 -371.02137 
L 705.9167 -370.900491 
L 703.270047 -370.791074 
L 700.623393 -370.886275 
L 697.97674 -370.99045 
L 695.330087 -371.184718 
L 692.683433 -371.390093 
L 690.03678 -371.150334 
L 687.390127 -370.969571 
L 684.743473 -370.868683 
L 682.09682 -371.117949 
L 679.450167 -370.952157 
L 676.803513 -371.22359 
L 674.15686 -371.134519 
L 671.510207 -371.155443 
L 668.863553 -371.205909 
L 666.2169 -370.988007 
L 663.570247 -371.123235 
L 660.923593 -371.448688 
L 658.27694 -370.803113 
L 655.630287 -370.575171 
L 652.983633 -370.674904 
L 650.33698 -370.681745 
L 647.690327 -370.554203 
L 645.043673 -370.900669 
L 642.39702 -370.784987 
L 639.750367 -370.76784 
L 637.103713 -370.564287 
L 634.45706 -370.476149 
L 631.810407 -370.192588 
L 629.163753 -370.167444 
L 626.5171 -369.897521 
L 623.870447 -369.903918 
L 621.223793 -369.910759 
L 618.57714 -369.503432 
L 615.930487 -368.991973 
L 613.283833 -369.087219 
L 610.63718 -369.177845 
L 607.990527 -368.727915 
L 605.343873 -368.513967 
L 602.69722 -368.786377 
L 600.050567 -368.958788 
L 597.403913 -368.877136 
L 594.75726 -368.687622 
L 592.110607 -368.46741 
L 589.463953 -368.606014 
L 586.8173 -368.950348 
L 584.170647 -368.475095 
L 581.523993 -368.466033 
L 578.87734 -368.805258 
L 576.230687 -368.448707 
L 573.584033 -368.103485 
L 570.93738 -368.220321 
L 568.290727 -368.453194 
L 565.644073 -368.632758 
L 562.99742 -368.396731 
L 560.350767 -368.767986 
L 557.704113 -368.556348 
L 555.05746 -368.344887 
L 552.410807 -368.342444 
L 549.764153 -368.087181 
L 547.1175 -368.190113 
L 544.470847 -368.189446 
L 541.824193 -367.978919 
L 539.17754 -367.840448 
L 536.530887 -367.56093 
L 533.884233 -367.300292 
L 531.23758 -367.099849 
L 528.590927 -367.478256 
L 525.944273 -367.4779 
L 523.29762 -367.411886 
L 520.650967 -367.245516 
L 518.004313 -367.229301 
L 515.35766 -367.269639 
L 512.711007 -367.699134 
L 510.064353 -367.437785 
L 507.4177 -367.388518 
L 504.771047 -366.98239 
L 502.124393 -366.860045 
L 499.47774 -366.683725 
L 496.831087 -366.78599 
L 494.184433 -366.76129 
L 491.53778 -366.949605 
L 488.891127 -367.307799 
L 486.244473 -367.542849 
L 483.59782 -367.264397 
L 480.951167 -366.724507 
L 478.304513 -366.497764 
L 475.65786 -366.748984 
L 473.011207 -366.714022 
L 470.364553 -366.991942 
L 467.7179 -367.094695 
L 465.071247 -367.600512 
L 462.424593 -367.259865 
L 459.77794 -367.503356 
L 457.131287 -367.648623 
L 454.484633 -367.591449 
L 451.83798 -367.291762 
L 449.191327 -367.223348 
L 446.544673 -366.713711 
L 443.89802 -366.393323 
L 441.251367 -366.071601 
L 438.604713 -366.145168 
L 435.95806 -366.622108 
L 433.311407 -366.363603 
L 430.664753 -366.790033 
L 428.0181 -366.788878 
L 425.371447 -366.415757 
L 422.724793 -366.717132 
L 420.07814 -366.589234 
L 417.431487 -366.586835 
L 414.784833 -366.367645 
L 412.13818 -366.140459 
L 409.491527 -365.855165 
L 406.844873 -365.768848 
L 404.19822 -366.069735 
L 401.551567 -365.981997 
L 398.904913 -365.809097 
L 396.25826 -366.02229 
L 393.611607 -366.039571 
L 390.964953 -365.705455 
L 388.3183 -365.957608 
L 385.671647 -366.127709 
L 383.024993 -365.969825 
L 380.37834 -365.591639 
L 377.731687 -365.357923 
L 375.085033 -364.931137 
L 372.43838 -365.179114 
L 369.791727 -365.179203 
L 367.145073 -364.928605 
L 364.49842 -364.719721 
L 361.851767 -364.34238 
L 359.205113 -364.079588 
L 356.55846 -364.459283 
L 353.911807 -364.43576 
L 351.265153 -364.432606 
L 348.6185 -363.929366 
L 345.971847 -364.183274 
L 343.325193 -363.765263 
L 340.67854 -363.595162 
L 338.031887 -364.247334 
L 335.385233 -364.124279 
L 332.73858 -363.744961 
L 330.091927 -363.787053 
L 327.445273 -363.671616 
L 324.79862 -363.120798 
L 322.151967 -362.939279 
L 319.505313 -362.909782 
L 316.85866 -363.117466 
L 314.212007 -363.477259 
L 311.565353 -363.199251 
L 308.9187 -362.824442 
L 306.272047 -362.373712 
L 303.625393 -362.359741 
L 300.97874 -362.352277 
L 298.332087 -361.965274 
L 295.685433 -361.442954 
L 293.03878 -361.551816 
L 290.392127 -361.269343 
L 287.745473 -361.653614 
L 285.09882 -361.976447 
L 282.452167 -361.978446 
L 279.805513 -361.843662 
L 277.15886 -361.579026 
L 274.512207 -361.405215 
L 271.865553 -360.838382 
L 269.2189 -360.812549 
L 266.572247 -360.856574 
L 263.925593 -360.831274 
L 261.27894 -360.543382 
L 258.632287 -360.641071 
L 255.985633 -360.217573 
L 253.33898 -360.195316 
L 250.692327 -360.058311 
L 248.045673 -359.808646 
L 245.39902 -359.734013 
L 242.752367 -359.852715 
L 240.105713 -359.845096 
L 237.45906 -359.879259 
L 234.812407 -360.069551 
L 232.165753 -359.74734 
L 229.5191 -358.705121 
L 226.872447 -358.323871 
L 224.225793 -358.216786 
L 221.57914 -358.259078 
L 218.932487 -358.500436 
L 216.285833 -358.112388 
L 213.63918 -358.056058 
L 210.992527 -357.556483 
L 208.345873 -357.856904 
L 205.69922 -358.049084 
L 203.052567 -357.36126 
L 200.405913 -357.179875 
L 197.75926 -356.983497 
L 195.112607 -356.56402 
L 192.465953 -357.324921 
L 189.8193 -356.80691 
L 187.172647 -356.905199 
L 184.525993 -356.633877 
L 181.87934 -356.161379 
L 179.232687 -355.998297 
L 176.586033 -355.762248 
L 173.93938 -354.947126 
L 171.292727 -355.046259 
L 168.646073 -354.935065 
L 165.99942 -354.413367 
L 163.352767 -353.952486 
L 160.706113 -353.885893 
L 158.05946 -353.724677 
L 155.412807 -353.392916 
L 152.766153 -353.315395 
L 150.1195 -352.480594 
L 147.472847 -352.517421 
L 144.826193 -352.141169 
L 142.17954 -351.564029 
L 139.532887 -351.805676 
L 136.886233 -351.3581 
L 134.23958 -350.701173 
L 131.592927 -349.530279 
L 128.946273 -348.861625 
L 126.29962 -348.630485 
L 123.652967 -348.186018 
L 121.006313 -347.961897 
L 118.35966 -347.842351 
L 115.713007 -347.203861 
L 113.066353 -347.419564 
L 110.4197 -347.008993 
L 107.773047 -346.083899 
L 105.126393 -344.416806 
L 102.47974 -343.749396 
L 99.833087 -343.040293 
L 97.186433 -342.188966 
L 94.53978 -341.666357 
L 91.893127 -341.057454 
L 89.246473 -339.171903 
L 86.59982 -338.2927 
L 83.953167 -336.594554 
L 81.306513 -336.087627 
L 78.65986 -334.665712 
L 76.013207 -332.481719 
L 73.366553 -330.369915 
L 70.7199 -328.540607 
L 68.073247 -326.426648 
L 65.426593 -324.107205 
L 62.77994 -320.767621 
L 60.133287 -317.641386 
L 57.486633 -313.159384 
L 54.83998 -308.186581 
L 52.193327 -308.39311 
z
" style="stroke: #0000ff; stroke-opacity: 0.2"/>
    </defs>
    <g clip-path="url(#p3c5a7dfecf)">
     <use xlink:href="#m17850ac61f" x="0" y="432" style="fill: #0000ff; fill-opacity: 0.2; stroke: #0000ff; stroke-opacity: 0.2"/>
    </g>
   </g>
   <g id="matplotlib.axis_1">
    <g id="xtick_1">
     <g id="line2d_1">
      <defs>
       <path id="m185a5392e6" d="M 0 0 
L 0 3.5 
" style="stroke: #000000; stroke-width: 0.8"/>
      </defs>
      <g>
       <use xlink:href="#m185a5392e6" x="181.87934" y="390.04" style="stroke: #000000; stroke-width: 0.8"/>
      </g>
     </g>
     <g id="text_1">
      <!-- 50 -->
      <g transform="translate(175.51684 404.638438) scale(0.1 -0.1)">
       <defs>
        <path id="DejaVuSans-35" d="M 691 4666 
L 3169 4666 
L 3169 4134 
L 1269 4134 
L 1269 2991 
Q 1406 3038 1543 3061 
Q 1681 3084 1819 3084 
Q 2600 3084 3056 2656 
Q 3513 2228 3513 1497 
Q 3513 744 3044 326 
Q 2575 -91 1722 -91 
Q 1428 -91 1123 -41 
Q 819 9 494 109 
L 494 744 
Q 775 591 1075 516 
Q 1375 441 1709 441 
Q 2250 441 2565 725 
Q 2881 1009 2881 1497 
Q 2881 1984 2565 2268 
Q 2250 2553 1709 2553 
Q 1456 2553 1204 2497 
Q 953 2441 691 2322 
L 691 4666 
z
" transform="scale(0.015625)"/>
        <path id="DejaVuSans-30" d="M 2034 4250 
Q 1547 4250 1301 3770 
Q 1056 3291 1056 2328 
Q 1056 1369 1301 889 
Q 1547 409 2034 409 
Q 2525 409 2770 889 
Q 3016 1369 3016 2328 
Q 3016 3291 2770 3770 
Q 2525 4250 2034 4250 
z
M 2034 4750 
Q 2819 4750 3233 4129 
Q 3647 3509 3647 2328 
Q 3647 1150 3233 529 
Q 2819 -91 2034 -91 
Q 1250 -91 836 529 
Q 422 1150 422 2328 
Q 422 3509 836 4129 
Q 1250 4750 2034 4750 
z
" transform="scale(0.015625)"/>
       </defs>
       <use xlink:href="#DejaVuSans-35"/>
       <use xlink:href="#DejaVuSans-30" transform="translate(63.623047 0)"/>
      </g>
     </g>
    </g>
    <g id="xtick_2">
     <g id="line2d_2">
      <g>
       <use xlink:href="#m185a5392e6" x="314.212007" y="390.04" style="stroke: #000000; stroke-width: 0.8"/>
      </g>
     </g>
     <g id="text_2">
      <!-- 100 -->
      <g transform="translate(304.668257 404.638438) scale(0.1 -0.1)">
       <defs>
        <path id="DejaVuSans-31" d="M 794 531 
L 1825 531 
L 1825 4091 
L 703 3866 
L 703 4441 
L 1819 4666 
L 2450 4666 
L 2450 531 
L 3481 531 
L 3481 0 
L 794 0 
L 794 531 
z
" transform="scale(0.015625)"/>
       </defs>
       <use xlink:href="#DejaVuSans-31"/>
       <use xlink:href="#DejaVuSans-30" transform="translate(63.623047 0)"/>
       <use xlink:href="#DejaVuSans-30" transform="translate(127.246094 0)"/>
      </g>
     </g>
    </g>
    <g id="xtick_3">
     <g id="line2d_3">
      <g>
       <use xlink:href="#m185a5392e6" x="446.544673" y="390.04" style="stroke: #000000; stroke-width: 0.8"/>
      </g>
     </g>
     <g id="text_3">
      <!-- 150 -->
      <g transform="translate(437.000923 404.638438) scale(0.1 -0.1)">
       <use xlink:href="#DejaVuSans-31"/>
       <use xlink:href="#DejaVuSans-35" transform="translate(63.623047 0)"/>
       <use xlink:href="#DejaVuSans-30" transform="translate(127.246094 0)"/>
      </g>
     </g>
    </g>
    <g id="xtick_4">
     <g id="line2d_4">
      <g>
       <use xlink:href="#m185a5392e6" x="578.87734" y="390.04" style="stroke: #000000; stroke-width: 0.8"/>
      </g>
     </g>
     <g id="text_4">
      <!-- 200 -->
      <g transform="translate(569.33359 404.638438) scale(0.1 -0.1)">
       <defs>
        <path id="DejaVuSans-32" d="M 1228 531 
L 3431 531 
L 3431 0 
L 469 0 
L 469 531 
Q 828 903 1448 1529 
Q 2069 2156 2228 2338 
Q 2531 2678 2651 2914 
Q 2772 3150 2772 3378 
Q 2772 3750 2511 3984 
Q 2250 4219 1831 4219 
Q 1534 4219 1204 4116 
Q 875 4013 500 3803 
L 500 4441 
Q 881 4594 1212 4672 
Q 1544 4750 1819 4750 
Q 2544 4750 2975 4387 
Q 3406 4025 3406 3419 
Q 3406 3131 3298 2873 
Q 3191 2616 2906 2266 
Q 2828 2175 2409 1742 
Q 1991 1309 1228 531 
z
" transform="scale(0.015625)"/>
       </defs>
       <use xlink:href="#DejaVuSans-32"/>
       <use xlink:href="#DejaVuSans-30" transform="translate(63.623047 0)"/>
       <use xlink:href="#DejaVuSans-30" transform="translate(127.246094 0)"/>
      </g>
     </g>
    </g>
    <g id="xtick_5">
     <g id="line2d_5">
      <g>
       <use xlink:href="#m185a5392e6" x="711.210007" y="390.04" style="stroke: #000000; stroke-width: 0.8"/>
      </g>
     </g>
     <g id="text_5">
      <!-- 250 -->
      <g transform="translate(701.666257 404.638438) scale(0.1 -0.1)">
       <use xlink:href="#DejaVuSans-32"/>
       <use xlink:href="#DejaVuSans-35" transform="translate(63.623047 0)"/>
       <use xlink:href="#DejaVuSans-30" transform="translate(127.246094 0)"/>
      </g>
     </g>
    </g>
    <g id="xtick_6">
     <g id="line2d_6">
      <g>
       <use xlink:href="#m185a5392e6" x="843.542673" y="390.04" style="stroke: #000000; stroke-width: 0.8"/>
      </g>
     </g>
     <g id="text_6">
      <!-- 300 -->
      <g transform="translate(833.998923 404.638438) scale(0.1 -0.1)">
       <defs>
        <path id="DejaVuSans-33" d="M 2597 2516 
Q 3050 2419 3304 2112 
Q 3559 1806 3559 1356 
Q 3559 666 3084 287 
Q 2609 -91 1734 -91 
Q 1441 -91 1130 -33 
Q 819 25 488 141 
L 488 750 
Q 750 597 1062 519 
Q 1375 441 1716 441 
Q 2309 441 2620 675 
Q 2931 909 2931 1356 
Q 2931 1769 2642 2001 
Q 2353 2234 1838 2234 
L 1294 2234 
L 1294 2753 
L 1863 2753 
Q 2328 2753 2575 2939 
Q 2822 3125 2822 3475 
Q 2822 3834 2567 4026 
Q 2313 4219 1838 4219 
Q 1578 4219 1281 4162 
Q 984 4106 628 3988 
L 628 4550 
Q 988 4650 1302 4700 
Q 1616 4750 1894 4750 
Q 2613 4750 3031 4423 
Q 3450 4097 3450 3541 
Q 3450 3153 3228 2886 
Q 3006 2619 2597 2516 
z
" transform="scale(0.015625)"/>
       </defs>
       <use xlink:href="#DejaVuSans-33"/>
       <use xlink:href="#DejaVuSans-30" transform="translate(63.623047 0)"/>
       <use xlink:href="#DejaVuSans-30" transform="translate(127.246094 0)"/>
      </g>
     </g>
    </g>
    <g id="text_7">
     <!-- Step -->
     <g transform="translate(436.482844 418.316562) scale(0.1 -0.1)">
      <defs>
       <path id="DejaVuSans-53" d="M 3425 4513 
L 3425 3897 
Q 3066 4069 2747 4153 
Q 2428 4238 2131 4238 
Q 1616 4238 1336 4038 
Q 1056 3838 1056 3469 
Q 1056 3159 1242 3001 
Q 1428 2844 1947 2747 
L 2328 2669 
Q 3034 2534 3370 2195 
Q 3706 1856 3706 1288 
Q 3706 609 3251 259 
Q 2797 -91 1919 -91 
Q 1588 -91 1214 -16 
Q 841 59 441 206 
L 441 856 
Q 825 641 1194 531 
Q 1563 422 1919 422 
Q 2459 422 2753 634 
Q 3047 847 3047 1241 
Q 3047 1584 2836 1778 
Q 2625 1972 2144 2069 
L 1759 2144 
Q 1053 2284 737 2584 
Q 422 2884 422 3419 
Q 422 4038 858 4394 
Q 1294 4750 2059 4750 
Q 2388 4750 2728 4690 
Q 3069 4631 3425 4513 
z
" transform="scale(0.015625)"/>
       <path id="DejaVuSans-74" d="M 1172 4494 
L 1172 3500 
L 2356 3500 
L 2356 3053 
L 1172 3053 
L 1172 1153 
Q 1172 725 1289 603 
Q 1406 481 1766 481 
L 2356 481 
L 2356 0 
L 1766 0 
Q 1100 0 847 248 
Q 594 497 594 1153 
L 594 3053 
L 172 3053 
L 172 3500 
L 594 3500 
L 594 4494 
L 1172 4494 
z
" transform="scale(0.015625)"/>
       <path id="DejaVuSans-65" d="M 3597 1894 
L 3597 1613 
L 953 1613 
Q 991 1019 1311 708 
Q 1631 397 2203 397 
Q 2534 397 2845 478 
Q 3156 559 3463 722 
L 3463 178 
Q 3153 47 2828 -22 
Q 2503 -91 2169 -91 
Q 1331 -91 842 396 
Q 353 884 353 1716 
Q 353 2575 817 3079 
Q 1281 3584 2069 3584 
Q 2775 3584 3186 3129 
Q 3597 2675 3597 1894 
z
M 3022 2063 
Q 3016 2534 2758 2815 
Q 2500 3097 2075 3097 
Q 1594 3097 1305 2825 
Q 1016 2553 972 2059 
L 3022 2063 
z
" transform="scale(0.015625)"/>
       <path id="DejaVuSans-70" d="M 1159 525 
L 1159 -1331 
L 581 -1331 
L 581 3500 
L 1159 3500 
L 1159 2969 
Q 1341 3281 1617 3432 
Q 1894 3584 2278 3584 
Q 2916 3584 3314 3078 
Q 3713 2572 3713 1747 
Q 3713 922 3314 415 
Q 2916 -91 2278 -91 
Q 1894 -91 1617 61 
Q 1341 213 1159 525 
z
M 3116 1747 
Q 3116 2381 2855 2742 
Q 2594 3103 2138 3103 
Q 1681 3103 1420 2742 
Q 1159 2381 1159 1747 
Q 1159 1113 1420 752 
Q 1681 391 2138 391 
Q 2594 391 2855 752 
Q 3116 1113 3116 1747 
z
" transform="scale(0.015625)"/>
      </defs>
      <use xlink:href="#DejaVuSans-53"/>
      <use xlink:href="#DejaVuSans-74" transform="translate(63.476562 0)"/>
      <use xlink:href="#DejaVuSans-65" transform="translate(102.685547 0)"/>
      <use xlink:href="#DejaVuSans-70" transform="translate(164.208984 0)"/>
     </g>
    </g>
   </g>
   <g id="matplotlib.axis_2">
    <g id="ytick_1">
     <g id="line2d_7">
      <defs>
       <path id="m2cc1674a4b" d="M 0 0 
L -3.5 0 
" style="stroke: #000000; stroke-width: 0.8"/>
      </defs>
      <g>
       <use xlink:href="#m2cc1674a4b" x="50.87" y="381.582121" style="stroke: #000000; stroke-width: 0.8"/>
      </g>
     </g>
     <g id="text_8">
      <!-- 20 -->
      <g transform="translate(31.145 385.38134) scale(0.1 -0.1)">
       <use xlink:href="#DejaVuSans-32"/>
       <use xlink:href="#DejaVuSans-30" transform="translate(63.623047 0)"/>
      </g>
     </g>
    </g>
    <g id="ytick_2">
     <g id="line2d_8">
      <g>
       <use xlink:href="#m2cc1674a4b" x="50.87" y="323.354145" style="stroke: #000000; stroke-width: 0.8"/>
      </g>
     </g>
     <g id="text_9">
      <!-- 40 -->
      <g transform="translate(31.145 327.153363) scale(0.1 -0.1)">
       <defs>
        <path id="DejaVuSans-34" d="M 2419 4116 
L 825 1625 
L 2419 1625 
L 2419 4116 
z
M 2253 4666 
L 3047 4666 
L 3047 1625 
L 3713 1625 
L 3713 1100 
L 3047 1100 
L 3047 0 
L 2419 0 
L 2419 1100 
L 313 1100 
L 313 1709 
L 2253 4666 
z
" transform="scale(0.015625)"/>
       </defs>
       <use xlink:href="#DejaVuSans-34"/>
       <use xlink:href="#DejaVuSans-30" transform="translate(63.623047 0)"/>
      </g>
     </g>
    </g>
    <g id="ytick_3">
     <g id="line2d_9">
      <g>
       <use xlink:href="#m2cc1674a4b" x="50.87" y="265.126168" style="stroke: #000000; stroke-width: 0.8"/>
      </g>
     </g>
     <g id="text_10">
      <!-- 60 -->
      <g transform="translate(31.145 268.925387) scale(0.1 -0.1)">
       <defs>
        <path id="DejaVuSans-36" d="M 2113 2584 
Q 1688 2584 1439 2293 
Q 1191 2003 1191 1497 
Q 1191 994 1439 701 
Q 1688 409 2113 409 
Q 2538 409 2786 701 
Q 3034 994 3034 1497 
Q 3034 2003 2786 2293 
Q 2538 2584 2113 2584 
z
M 3366 4563 
L 3366 3988 
Q 3128 4100 2886 4159 
Q 2644 4219 2406 4219 
Q 1781 4219 1451 3797 
Q 1122 3375 1075 2522 
Q 1259 2794 1537 2939 
Q 1816 3084 2150 3084 
Q 2853 3084 3261 2657 
Q 3669 2231 3669 1497 
Q 3669 778 3244 343 
Q 2819 -91 2113 -91 
Q 1303 -91 875 529 
Q 447 1150 447 2328 
Q 447 3434 972 4092 
Q 1497 4750 2381 4750 
Q 2619 4750 2861 4703 
Q 3103 4656 3366 4563 
z
" transform="scale(0.015625)"/>
       </defs>
       <use xlink:href="#DejaVuSans-36"/>
       <use xlink:href="#DejaVuSans-30" transform="translate(63.623047 0)"/>
      </g>
     </g>
    </g>
    <g id="ytick_4">
     <g id="line2d_10">
      <g>
       <use xlink:href="#m2cc1674a4b" x="50.87" y="206.898192" style="stroke: #000000; stroke-width: 0.8"/>
      </g>
     </g>
     <g id="text_11">
      <!-- 80 -->
      <g transform="translate(31.145 210.69741) scale(0.1 -0.1)">
       <defs>
        <path id="DejaVuSans-38" d="M 2034 2216 
Q 1584 2216 1326 1975 
Q 1069 1734 1069 1313 
Q 1069 891 1326 650 
Q 1584 409 2034 409 
Q 2484 409 2743 651 
Q 3003 894 3003 1313 
Q 3003 1734 2745 1975 
Q 2488 2216 2034 2216 
z
M 1403 2484 
Q 997 2584 770 2862 
Q 544 3141 544 3541 
Q 544 4100 942 4425 
Q 1341 4750 2034 4750 
Q 2731 4750 3128 4425 
Q 3525 4100 3525 3541 
Q 3525 3141 3298 2862 
Q 3072 2584 2669 2484 
Q 3125 2378 3379 2068 
Q 3634 1759 3634 1313 
Q 3634 634 3220 271 
Q 2806 -91 2034 -91 
Q 1263 -91 848 271 
Q 434 634 434 1313 
Q 434 1759 690 2068 
Q 947 2378 1403 2484 
z
M 1172 3481 
Q 1172 3119 1398 2916 
Q 1625 2713 2034 2713 
Q 2441 2713 2670 2916 
Q 2900 3119 2900 3481 
Q 2900 3844 2670 4047 
Q 2441 4250 2034 4250 
Q 1625 4250 1398 4047 
Q 1172 3844 1172 3481 
z
" transform="scale(0.015625)"/>
       </defs>
       <use xlink:href="#DejaVuSans-38"/>
       <use xlink:href="#DejaVuSans-30" transform="translate(63.623047 0)"/>
      </g>
     </g>
    </g>
    <g id="ytick_5">
     <g id="line2d_11">
      <g>
       <use xlink:href="#m2cc1674a4b" x="50.87" y="148.670215" style="stroke: #000000; stroke-width: 0.8"/>
      </g>
     </g>
     <g id="text_12">
      <!-- 100 -->
      <g transform="translate(24.7825 152.469434) scale(0.1 -0.1)">
       <use xlink:href="#DejaVuSans-31"/>
       <use xlink:href="#DejaVuSans-30" transform="translate(63.623047 0)"/>
       <use xlink:href="#DejaVuSans-30" transform="translate(127.246094 0)"/>
      </g>
     </g>
    </g>
    <g id="ytick_6">
     <g id="line2d_12">
      <g>
       <use xlink:href="#m2cc1674a4b" x="50.87" y="90.442239" style="stroke: #000000; stroke-width: 0.8"/>
      </g>
     </g>
     <g id="text_13">
      <!-- 120 -->
      <g transform="translate(24.7825 94.241457) scale(0.1 -0.1)">
       <use xlink:href="#DejaVuSans-31"/>
       <use xlink:href="#DejaVuSans-32" transform="translate(63.623047 0)"/>
       <use xlink:href="#DejaVuSans-30" transform="translate(127.246094 0)"/>
      </g>
     </g>
    </g>
    <g id="text_14">
     <!-- Profit -->
     <g transform="translate(18.702813 229.779063) rotate(-90) scale(0.1 -0.1)">
      <defs>
       <path id="DejaVuSans-50" d="M 1259 4147 
L 1259 2394 
L 2053 2394 
Q 2494 2394 2734 2622 
Q 2975 2850 2975 3272 
Q 2975 3691 2734 3919 
Q 2494 4147 2053 4147 
L 1259 4147 
z
M 628 4666 
L 2053 4666 
Q 2838 4666 3239 4311 
Q 3641 3956 3641 3272 
Q 3641 2581 3239 2228 
Q 2838 1875 2053 1875 
L 1259 1875 
L 1259 0 
L 628 0 
L 628 4666 
z
" transform="scale(0.015625)"/>
       <path id="DejaVuSans-72" d="M 2631 2963 
Q 2534 3019 2420 3045 
Q 2306 3072 2169 3072 
Q 1681 3072 1420 2755 
Q 1159 2438 1159 1844 
L 1159 0 
L 581 0 
L 581 3500 
L 1159 3500 
L 1159 2956 
Q 1341 3275 1631 3429 
Q 1922 3584 2338 3584 
Q 2397 3584 2469 3576 
Q 2541 3569 2628 3553 
L 2631 2963 
z
" transform="scale(0.015625)"/>
       <path id="DejaVuSans-6f" d="M 1959 3097 
Q 1497 3097 1228 2736 
Q 959 2375 959 1747 
Q 959 1119 1226 758 
Q 1494 397 1959 397 
Q 2419 397 2687 759 
Q 2956 1122 2956 1747 
Q 2956 2369 2687 2733 
Q 2419 3097 1959 3097 
z
M 1959 3584 
Q 2709 3584 3137 3096 
Q 3566 2609 3566 1747 
Q 3566 888 3137 398 
Q 2709 -91 1959 -91 
Q 1206 -91 779 398 
Q 353 888 353 1747 
Q 353 2609 779 3096 
Q 1206 3584 1959 3584 
z
" transform="scale(0.015625)"/>
       <path id="DejaVuSans-66" d="M 2375 4863 
L 2375 4384 
L 1825 4384 
Q 1516 4384 1395 4259 
Q 1275 4134 1275 3809 
L 1275 3500 
L 2222 3500 
L 2222 3053 
L 1275 3053 
L 1275 0 
L 697 0 
L 697 3053 
L 147 3053 
L 147 3500 
L 697 3500 
L 697 3744 
Q 697 4328 969 4595 
Q 1241 4863 1831 4863 
L 2375 4863 
z
" transform="scale(0.015625)"/>
       <path id="DejaVuSans-69" d="M 603 3500 
L 1178 3500 
L 1178 0 
L 603 0 
L 603 3500 
z
M 603 4863 
L 1178 4863 
L 1178 4134 
L 603 4134 
L 603 4863 
z
" transform="scale(0.015625)"/>
      </defs>
      <use xlink:href="#DejaVuSans-50"/>
      <use xlink:href="#DejaVuSans-72" transform="translate(58.552734 0)"/>
      <use xlink:href="#DejaVuSans-6f" transform="translate(97.416016 0)"/>
      <use xlink:href="#DejaVuSans-66" transform="translate(158.597656 0)"/>
      <use xlink:href="#DejaVuSans-69" transform="translate(193.802734 0)"/>
      <use xlink:href="#DejaVuSans-74" transform="translate(221.585938 0)"/>
     </g>
    </g>
   </g>
   <g id="line2d_13">
    <path d="M 52.193327 248.946172 
L 54.83998 249.045594 
L 57.486633 244.247512 
L 60.133287 238.025584 
L 62.77994 232.523464 
L 65.426593 227.819895 
L 68.073247 223.42703 
L 70.7199 219.442249 
L 73.366553 215.911529 
L 76.013207 212.742646 
L 78.65986 209.809035 
L 81.306513 207.209229 
L 89.246473 200.002433 
L 91.893127 197.937053 
L 94.53978 196.282132 
L 97.186433 194.385609 
L 107.773047 188.216501 
L 110.4197 187.006669 
L 115.713007 184.283474 
L 126.29962 180.120772 
L 128.946273 179.33104 
L 131.592927 178.729599 
L 136.886233 177.19458 
L 142.17954 175.458696 
L 144.826193 174.774538 
L 147.472847 173.925898 
L 152.766153 173.01151 
L 158.05946 171.536131 
L 163.352767 170.535715 
L 171.292727 169.240055 
L 181.87934 166.904596 
L 187.172647 166.060155 
L 189.8193 165.396098 
L 192.465953 165.226397 
L 197.75926 164.262831 
L 200.405913 164.019319 
L 205.69922 163.197289 
L 210.992527 162.688097 
L 216.285833 162.037101 
L 218.932487 161.673998 
L 221.57914 161.122713 
L 224.225793 160.881911 
L 229.5191 160.05404 
L 237.45906 159.443826 
L 240.105713 159.11664 
L 242.752367 158.621663 
L 248.045673 158.030307 
L 271.865553 156.458882 
L 279.805513 155.656955 
L 282.452167 155.290631 
L 287.745473 154.941411 
L 293.03878 154.4969 
L 295.685433 154.234996 
L 298.332087 154.19066 
L 319.505313 152.750887 
L 322.151967 152.439516 
L 327.445273 152.201868 
L 335.385233 151.731169 
L 338.031887 151.665865 
L 340.67854 151.423952 
L 343.325193 151.311936 
L 345.971847 151.020067 
L 348.6185 150.863293 
L 351.265153 150.922644 
L 353.911807 150.680398 
L 356.55846 150.615649 
L 375.085033 149.284383 
L 380.37834 149.228341 
L 385.671647 148.945713 
L 388.3183 148.948978 
L 404.19822 148.206402 
L 406.844873 147.820953 
L 417.431487 147.825862 
L 430.664753 147.429197 
L 438.604713 146.905877 
L 443.89802 146.764985 
L 446.544673 146.603347 
L 449.191327 146.75499 
L 457.131287 146.432135 
L 459.77794 146.223829 
L 467.7179 145.954772 
L 478.304513 145.451044 
L 483.59782 145.132965 
L 486.244473 145.129811 
L 494.184433 144.722883 
L 502.124393 144.508669 
L 504.771047 144.415133 
L 507.4177 144.490655 
L 518.004313 143.921289 
L 525.944273 143.677665 
L 528.590927 143.510696 
L 531.23758 143.610562 
L 533.884233 143.555298 
L 536.530887 143.616182 
L 568.290727 142.383893 
L 578.87734 142.154996 
L 581.523993 141.942581 
L 615.930487 140.822974 
L 623.870447 140.84612 
L 626.5171 140.655072 
L 631.810407 140.571754 
L 634.45706 140.432328 
L 639.750367 140.3965 
L 645.043673 140.347811 
L 652.983633 140.245501 
L 658.27694 140.060674 
L 660.923593 140.055631 
L 663.570247 139.910253 
L 671.510207 139.82538 
L 674.15686 139.618739 
L 676.803513 139.724892 
L 679.450167 139.594684 
L 690.03678 139.504857 
L 697.97674 139.169764 
L 705.9167 138.833205 
L 711.210007 138.744134 
L 716.503313 138.662348 
L 721.79662 138.460439 
L 729.73658 138.397734 
L 735.029887 138.274568 
L 745.6165 137.985054 
L 756.203113 137.783833 
L 758.849767 137.652204 
L 766.789727 137.583568 
L 772.083033 137.377439 
L 777.37634 137.34874 
L 787.962953 136.839525 
L 814.429487 136.206922 
L 819.722793 136.306477 
L 838.249367 136.211098 
L 843.542673 136.255256 
L 843.542673 136.255256 
" clip-path="url(#p3c5a7dfecf)" style="fill: none; stroke: #0000ff; stroke-width: 1.5; stroke-linecap: square"/>
   </g>
   <g id="patch_3">
    <path d="M 50.87 390.04 
L 50.87 43.44 
" style="fill: none; stroke: #000000; stroke-width: 0.8; stroke-linejoin: miter; stroke-linecap: square"/>
   </g>
   <g id="patch_4">
    <path d="M 844.866 390.04 
L 844.866 43.44 
" style="fill: none; stroke: #000000; stroke-width: 0.8; stroke-linejoin: miter; stroke-linecap: square"/>
   </g>
   <g id="patch_5">
    <path d="M 50.87 390.04 
L 844.866 390.04 
" style="fill: none; stroke: #000000; stroke-width: 0.8; stroke-linejoin: miter; stroke-linecap: square"/>
   </g>
   <g id="patch_6">
    <path d="M 50.87 43.44 
L 844.866 43.44 
" style="fill: none; stroke: #000000; stroke-width: 0.8; stroke-linejoin: miter; stroke-linecap: square"/>
   </g>
   <g id="text_15">
    <!-- Mean profit per step with confidence interval per simulation step -->
    <g transform="translate(220.284875 21.763062) scale(0.14 -0.14)">
     <defs>
      <path id="DejaVuSans-4d" d="M 628 4666 
L 1569 4666 
L 2759 1491 
L 3956 4666 
L 4897 4666 
L 4897 0 
L 4281 0 
L 4281 4097 
L 3078 897 
L 2444 897 
L 1241 4097 
L 1241 0 
L 628 0 
L 628 4666 
z
" transform="scale(0.015625)"/>
      <path id="DejaVuSans-61" d="M 2194 1759 
Q 1497 1759 1228 1600 
Q 959 1441 959 1056 
Q 959 750 1161 570 
Q 1363 391 1709 391 
Q 2188 391 2477 730 
Q 2766 1069 2766 1631 
L 2766 1759 
L 2194 1759 
z
M 3341 1997 
L 3341 0 
L 2766 0 
L 2766 531 
Q 2569 213 2275 61 
Q 1981 -91 1556 -91 
Q 1019 -91 701 211 
Q 384 513 384 1019 
Q 384 1609 779 1909 
Q 1175 2209 1959 2209 
L 2766 2209 
L 2766 2266 
Q 2766 2663 2505 2880 
Q 2244 3097 1772 3097 
Q 1472 3097 1187 3025 
Q 903 2953 641 2809 
L 641 3341 
Q 956 3463 1253 3523 
Q 1550 3584 1831 3584 
Q 2591 3584 2966 3190 
Q 3341 2797 3341 1997 
z
" transform="scale(0.015625)"/>
      <path id="DejaVuSans-6e" d="M 3513 2113 
L 3513 0 
L 2938 0 
L 2938 2094 
Q 2938 2591 2744 2837 
Q 2550 3084 2163 3084 
Q 1697 3084 1428 2787 
Q 1159 2491 1159 1978 
L 1159 0 
L 581 0 
L 581 3500 
L 1159 3500 
L 1159 2956 
Q 1366 3272 1645 3428 
Q 1925 3584 2291 3584 
Q 2894 3584 3203 3211 
Q 3513 2838 3513 2113 
z
" transform="scale(0.015625)"/>
      <path id="DejaVuSans-20" transform="scale(0.015625)"/>
      <path id="DejaVuSans-73" d="M 2834 3397 
L 2834 2853 
Q 2591 2978 2328 3040 
Q 2066 3103 1784 3103 
Q 1356 3103 1142 2972 
Q 928 2841 928 2578 
Q 928 2378 1081 2264 
Q 1234 2150 1697 2047 
L 1894 2003 
Q 2506 1872 2764 1633 
Q 3022 1394 3022 966 
Q 3022 478 2636 193 
Q 2250 -91 1575 -91 
Q 1294 -91 989 -36 
Q 684 19 347 128 
L 347 722 
Q 666 556 975 473 
Q 1284 391 1588 391 
Q 1994 391 2212 530 
Q 2431 669 2431 922 
Q 2431 1156 2273 1281 
Q 2116 1406 1581 1522 
L 1381 1569 
Q 847 1681 609 1914 
Q 372 2147 372 2553 
Q 372 3047 722 3315 
Q 1072 3584 1716 3584 
Q 2034 3584 2315 3537 
Q 2597 3491 2834 3397 
z
" transform="scale(0.015625)"/>
      <path id="DejaVuSans-77" d="M 269 3500 
L 844 3500 
L 1563 769 
L 2278 3500 
L 2956 3500 
L 3675 769 
L 4391 3500 
L 4966 3500 
L 4050 0 
L 3372 0 
L 2619 2869 
L 1863 0 
L 1184 0 
L 269 3500 
z
" transform="scale(0.015625)"/>
      <path id="DejaVuSans-68" d="M 3513 2113 
L 3513 0 
L 2938 0 
L 2938 2094 
Q 2938 2591 2744 2837 
Q 2550 3084 2163 3084 
Q 1697 3084 1428 2787 
Q 1159 2491 1159 1978 
L 1159 0 
L 581 0 
L 581 4863 
L 1159 4863 
L 1159 2956 
Q 1366 3272 1645 3428 
Q 1925 3584 2291 3584 
Q 2894 3584 3203 3211 
Q 3513 2838 3513 2113 
z
" transform="scale(0.015625)"/>
      <path id="DejaVuSans-63" d="M 3122 3366 
L 3122 2828 
Q 2878 2963 2633 3030 
Q 2388 3097 2138 3097 
Q 1578 3097 1268 2742 
Q 959 2388 959 1747 
Q 959 1106 1268 751 
Q 1578 397 2138 397 
Q 2388 397 2633 464 
Q 2878 531 3122 666 
L 3122 134 
Q 2881 22 2623 -34 
Q 2366 -91 2075 -91 
Q 1284 -91 818 406 
Q 353 903 353 1747 
Q 353 2603 823 3093 
Q 1294 3584 2113 3584 
Q 2378 3584 2631 3529 
Q 2884 3475 3122 3366 
z
" transform="scale(0.015625)"/>
      <path id="DejaVuSans-64" d="M 2906 2969 
L 2906 4863 
L 3481 4863 
L 3481 0 
L 2906 0 
L 2906 525 
Q 2725 213 2448 61 
Q 2172 -91 1784 -91 
Q 1150 -91 751 415 
Q 353 922 353 1747 
Q 353 2572 751 3078 
Q 1150 3584 1784 3584 
Q 2172 3584 2448 3432 
Q 2725 3281 2906 2969 
z
M 947 1747 
Q 947 1113 1208 752 
Q 1469 391 1925 391 
Q 2381 391 2643 752 
Q 2906 1113 2906 1747 
Q 2906 2381 2643 2742 
Q 2381 3103 1925 3103 
Q 1469 3103 1208 2742 
Q 947 2381 947 1747 
z
" transform="scale(0.015625)"/>
      <path id="DejaVuSans-76" d="M 191 3500 
L 800 3500 
L 1894 563 
L 2988 3500 
L 3597 3500 
L 2284 0 
L 1503 0 
L 191 3500 
z
" transform="scale(0.015625)"/>
      <path id="DejaVuSans-6c" d="M 603 4863 
L 1178 4863 
L 1178 0 
L 603 0 
L 603 4863 
z
" transform="scale(0.015625)"/>
      <path id="DejaVuSans-6d" d="M 3328 2828 
Q 3544 3216 3844 3400 
Q 4144 3584 4550 3584 
Q 5097 3584 5394 3201 
Q 5691 2819 5691 2113 
L 5691 0 
L 5113 0 
L 5113 2094 
Q 5113 2597 4934 2840 
Q 4756 3084 4391 3084 
Q 3944 3084 3684 2787 
Q 3425 2491 3425 1978 
L 3425 0 
L 2847 0 
L 2847 2094 
Q 2847 2600 2669 2842 
Q 2491 3084 2119 3084 
Q 1678 3084 1418 2786 
Q 1159 2488 1159 1978 
L 1159 0 
L 581 0 
L 581 3500 
L 1159 3500 
L 1159 2956 
Q 1356 3278 1631 3431 
Q 1906 3584 2284 3584 
Q 2666 3584 2933 3390 
Q 3200 3197 3328 2828 
z
" transform="scale(0.015625)"/>
      <path id="DejaVuSans-75" d="M 544 1381 
L 544 3500 
L 1119 3500 
L 1119 1403 
Q 1119 906 1312 657 
Q 1506 409 1894 409 
Q 2359 409 2629 706 
Q 2900 1003 2900 1516 
L 2900 3500 
L 3475 3500 
L 3475 0 
L 2900 0 
L 2900 538 
Q 2691 219 2414 64 
Q 2138 -91 1772 -91 
Q 1169 -91 856 284 
Q 544 659 544 1381 
z
M 1991 3584 
L 1991 3584 
z
" transform="scale(0.015625)"/>
     </defs>
     <use xlink:href="#DejaVuSans-4d"/>
     <use xlink:href="#DejaVuSans-65" transform="translate(86.279297 0)"/>
     <use xlink:href="#DejaVuSans-61" transform="translate(147.802734 0)"/>
     <use xlink:href="#DejaVuSans-6e" transform="translate(209.082031 0)"/>
     <use xlink:href="#DejaVuSans-20" transform="translate(272.460938 0)"/>
     <use xlink:href="#DejaVuSans-70" transform="translate(304.248047 0)"/>
     <use xlink:href="#DejaVuSans-72" transform="translate(367.724609 0)"/>
     <use xlink:href="#DejaVuSans-6f" transform="translate(406.587891 0)"/>
     <use xlink:href="#DejaVuSans-66" transform="translate(467.769531 0)"/>
     <use xlink:href="#DejaVuSans-69" transform="translate(502.974609 0)"/>
     <use xlink:href="#DejaVuSans-74" transform="translate(530.757812 0)"/>
     <use xlink:href="#DejaVuSans-20" transform="translate(569.966797 0)"/>
     <use xlink:href="#DejaVuSans-70" transform="translate(601.753906 0)"/>
     <use xlink:href="#DejaVuSans-65" transform="translate(665.230469 0)"/>
     <use xlink:href="#DejaVuSans-72" transform="translate(726.753906 0)"/>
     <use xlink:href="#DejaVuSans-20" transform="translate(767.867188 0)"/>
     <use xlink:href="#DejaVuSans-73" transform="translate(799.654297 0)"/>
     <use xlink:href="#DejaVuSans-74" transform="translate(851.753906 0)"/>
     <use xlink:href="#DejaVuSans-65" transform="translate(890.962891 0)"/>
     <use xlink:href="#DejaVuSans-70" transform="translate(952.486328 0)"/>
     <use xlink:href="#DejaVuSans-20" transform="translate(1015.962891 0)"/>
     <use xlink:href="#DejaVuSans-77" transform="translate(1047.75 0)"/>
     <use xlink:href="#DejaVuSans-69" transform="translate(1129.537109 0)"/>
     <use xlink:href="#DejaVuSans-74" transform="translate(1157.320312 0)"/>
     <use xlink:href="#DejaVuSans-68" transform="translate(1196.529297 0)"/>
     <use xlink:href="#DejaVuSans-20" transform="translate(1259.908203 0)"/>
     <use xlink:href="#DejaVuSans-63" transform="translate(1291.695312 0)"/>
     <use xlink:href="#DejaVuSans-6f" transform="translate(1346.675781 0)"/>
     <use xlink:href="#DejaVuSans-6e" transform="translate(1407.857422 0)"/>
     <use xlink:href="#DejaVuSans-66" transform="translate(1471.236328 0)"/>
     <use xlink:href="#DejaVuSans-69" transform="translate(1506.441406 0)"/>
     <use xlink:href="#DejaVuSans-64" transform="translate(1534.224609 0)"/>
     <use xlink:href="#DejaVuSans-65" transform="translate(1597.701172 0)"/>
     <use xlink:href="#DejaVuSans-6e" transform="translate(1659.224609 0)"/>
     <use xlink:href="#DejaVuSans-63" transform="translate(1722.603516 0)"/>
     <use xlink:href="#DejaVuSans-65" transform="translate(1777.583984 0)"/>
     <use xlink:href="#DejaVuSans-20" transform="translate(1839.107422 0)"/>
     <use xlink:href="#DejaVuSans-69" transform="translate(1870.894531 0)"/>
     <use xlink:href="#DejaVuSans-6e" transform="translate(1898.677734 0)"/>
     <use xlink:href="#DejaVuSans-74" transform="translate(1962.056641 0)"/>
     <use xlink:href="#DejaVuSans-65" transform="translate(2001.265625 0)"/>
     <use xlink:href="#DejaVuSans-72" transform="translate(2062.789062 0)"/>
     <use xlink:href="#DejaVuSans-76" transform="translate(2103.902344 0)"/>
     <use xlink:href="#DejaVuSans-61" transform="translate(2163.082031 0)"/>
     <use xlink:href="#DejaVuSans-6c" transform="translate(2224.361328 0)"/>
     <use xlink:href="#DejaVuSans-20" transform="translate(2252.144531 0)"/>
     <use xlink:href="#DejaVuSans-70" transform="translate(2283.931641 0)"/>
     <use xlink:href="#DejaVuSans-65" transform="translate(2347.408203 0)"/>
     <use xlink:href="#DejaVuSans-72" transform="translate(2408.931641 0)"/>
     <use xlink:href="#DejaVuSans-20" transform="translate(2450.044922 0)"/>
     <use xlink:href="#DejaVuSans-73" transform="translate(2481.832031 0)"/>
     <use xlink:href="#DejaVuSans-69" transform="translate(2533.931641 0)"/>
     <use xlink:href="#DejaVuSans-6d" transform="translate(2561.714844 0)"/>
     <use xlink:href="#DejaVuSans-75" transform="translate(2659.126953 0)"/>
     <use xlink:href="#DejaVuSans-6c" transform="translate(2722.505859 0)"/>
     <use xlink:href="#DejaVuSans-61" transform="translate(2750.289062 0)"/>
     <use xlink:href="#DejaVuSans-74" transform="translate(2811.568359 0)"/>
     <use xlink:href="#DejaVuSans-69" transform="translate(2850.777344 0)"/>
     <use xlink:href="#DejaVuSans-6f" transform="translate(2878.560547 0)"/>
     <use xlink:href="#DejaVuSans-6e" transform="translate(2939.742188 0)"/>
     <use xlink:href="#DejaVuSans-20" transform="translate(3003.121094 0)"/>
     <use xlink:href="#DejaVuSans-73" transform="translate(3034.908203 0)"/>
     <use xlink:href="#DejaVuSans-74" transform="translate(3087.007812 0)"/>
     <use xlink:href="#DejaVuSans-65" transform="translate(3126.216797 0)"/>
     <use xlink:href="#DejaVuSans-70" transform="translate(3187.740234 0)"/>
    </g>
    <!-- Base Product: Sour Diesel, Recipe size: 7, T0: 20.0 -->
    <g transform="translate(271.602531 37.44) scale(0.14 -0.14)">
     <defs>
      <path id="DejaVuSans-42" d="M 1259 2228 
L 1259 519 
L 2272 519 
Q 2781 519 3026 730 
Q 3272 941 3272 1375 
Q 3272 1813 3026 2020 
Q 2781 2228 2272 2228 
L 1259 2228 
z
M 1259 4147 
L 1259 2741 
L 2194 2741 
Q 2656 2741 2882 2914 
Q 3109 3088 3109 3444 
Q 3109 3797 2882 3972 
Q 2656 4147 2194 4147 
L 1259 4147 
z
M 628 4666 
L 2241 4666 
Q 2963 4666 3353 4366 
Q 3744 4066 3744 3513 
Q 3744 3084 3544 2831 
Q 3344 2578 2956 2516 
Q 3422 2416 3680 2098 
Q 3938 1781 3938 1306 
Q 3938 681 3513 340 
Q 3088 0 2303 0 
L 628 0 
L 628 4666 
z
" transform="scale(0.015625)"/>
      <path id="DejaVuSans-3a" d="M 750 794 
L 1409 794 
L 1409 0 
L 750 0 
L 750 794 
z
M 750 3309 
L 1409 3309 
L 1409 2516 
L 750 2516 
L 750 3309 
z
" transform="scale(0.015625)"/>
      <path id="DejaVuSans-44" d="M 1259 4147 
L 1259 519 
L 2022 519 
Q 2988 519 3436 956 
Q 3884 1394 3884 2338 
Q 3884 3275 3436 3711 
Q 2988 4147 2022 4147 
L 1259 4147 
z
M 628 4666 
L 1925 4666 
Q 3281 4666 3915 4102 
Q 4550 3538 4550 2338 
Q 4550 1131 3912 565 
Q 3275 0 1925 0 
L 628 0 
L 628 4666 
z
" transform="scale(0.015625)"/>
      <path id="DejaVuSans-2c" d="M 750 794 
L 1409 794 
L 1409 256 
L 897 -744 
L 494 -744 
L 750 256 
L 750 794 
z
" transform="scale(0.015625)"/>
      <path id="DejaVuSans-52" d="M 2841 2188 
Q 3044 2119 3236 1894 
Q 3428 1669 3622 1275 
L 4263 0 
L 3584 0 
L 2988 1197 
Q 2756 1666 2539 1819 
Q 2322 1972 1947 1972 
L 1259 1972 
L 1259 0 
L 628 0 
L 628 4666 
L 2053 4666 
Q 2853 4666 3247 4331 
Q 3641 3997 3641 3322 
Q 3641 2881 3436 2590 
Q 3231 2300 2841 2188 
z
M 1259 4147 
L 1259 2491 
L 2053 2491 
Q 2509 2491 2742 2702 
Q 2975 2913 2975 3322 
Q 2975 3731 2742 3939 
Q 2509 4147 2053 4147 
L 1259 4147 
z
" transform="scale(0.015625)"/>
      <path id="DejaVuSans-7a" d="M 353 3500 
L 3084 3500 
L 3084 2975 
L 922 459 
L 3084 459 
L 3084 0 
L 275 0 
L 275 525 
L 2438 3041 
L 353 3041 
L 353 3500 
z
" transform="scale(0.015625)"/>
      <path id="DejaVuSans-37" d="M 525 4666 
L 3525 4666 
L 3525 4397 
L 1831 0 
L 1172 0 
L 2766 4134 
L 525 4134 
L 525 4666 
z
" transform="scale(0.015625)"/>
      <path id="DejaVuSans-54" d="M -19 4666 
L 3928 4666 
L 3928 4134 
L 2272 4134 
L 2272 0 
L 1638 0 
L 1638 4134 
L -19 4134 
L -19 4666 
z
" transform="scale(0.015625)"/>
      <path id="DejaVuSans-2e" d="M 684 794 
L 1344 794 
L 1344 0 
L 684 0 
L 684 794 
z
" transform="scale(0.015625)"/>
     </defs>
     <use xlink:href="#DejaVuSans-42"/>
     <use xlink:href="#DejaVuSans-61" transform="translate(68.603516 0)"/>
     <use xlink:href="#DejaVuSans-73" transform="translate(129.882812 0)"/>
     <use xlink:href="#DejaVuSans-65" transform="translate(181.982422 0)"/>
     <use xlink:href="#DejaVuSans-20" transform="translate(243.505859 0)"/>
     <use xlink:href="#DejaVuSans-50" transform="translate(275.292969 0)"/>
     <use xlink:href="#DejaVuSans-72" transform="translate(333.845703 0)"/>
     <use xlink:href="#DejaVuSans-6f" transform="translate(372.708984 0)"/>
     <use xlink:href="#DejaVuSans-64" transform="translate(433.890625 0)"/>
     <use xlink:href="#DejaVuSans-75" transform="translate(497.367188 0)"/>
     <use xlink:href="#DejaVuSans-63" transform="translate(560.746094 0)"/>
     <use xlink:href="#DejaVuSans-74" transform="translate(615.726562 0)"/>
     <use xlink:href="#DejaVuSans-3a" transform="translate(654.935547 0)"/>
     <use xlink:href="#DejaVuSans-20" transform="translate(688.626953 0)"/>
     <use xlink:href="#DejaVuSans-53" transform="translate(720.414062 0)"/>
     <use xlink:href="#DejaVuSans-6f" transform="translate(783.890625 0)"/>
     <use xlink:href="#DejaVuSans-75" transform="translate(845.072266 0)"/>
     <use xlink:href="#DejaVuSans-72" transform="translate(908.451172 0)"/>
     <use xlink:href="#DejaVuSans-20" transform="translate(949.564453 0)"/>
     <use xlink:href="#DejaVuSans-44" transform="translate(981.351562 0)"/>
     <use xlink:href="#DejaVuSans-69" transform="translate(1058.353516 0)"/>
     <use xlink:href="#DejaVuSans-65" transform="translate(1086.136719 0)"/>
     <use xlink:href="#DejaVuSans-73" transform="translate(1147.660156 0)"/>
     <use xlink:href="#DejaVuSans-65" transform="translate(1199.759766 0)"/>
     <use xlink:href="#DejaVuSans-6c" transform="translate(1261.283203 0)"/>
     <use xlink:href="#DejaVuSans-2c" transform="translate(1289.066406 0)"/>
     <use xlink:href="#DejaVuSans-20" transform="translate(1320.853516 0)"/>
     <use xlink:href="#DejaVuSans-52" transform="translate(1352.640625 0)"/>
     <use xlink:href="#DejaVuSans-65" transform="translate(1417.623047 0)"/>
     <use xlink:href="#DejaVuSans-63" transform="translate(1479.146484 0)"/>
     <use xlink:href="#DejaVuSans-69" transform="translate(1534.126953 0)"/>
     <use xlink:href="#DejaVuSans-70" transform="translate(1561.910156 0)"/>
     <use xlink:href="#DejaVuSans-65" transform="translate(1625.386719 0)"/>
     <use xlink:href="#DejaVuSans-20" transform="translate(1686.910156 0)"/>
     <use xlink:href="#DejaVuSans-73" transform="translate(1718.697266 0)"/>
     <use xlink:href="#DejaVuSans-69" transform="translate(1770.796875 0)"/>
     <use xlink:href="#DejaVuSans-7a" transform="translate(1798.580078 0)"/>
     <use xlink:href="#DejaVuSans-65" transform="translate(1851.070312 0)"/>
     <use xlink:href="#DejaVuSans-3a" transform="translate(1912.59375 0)"/>
     <use xlink:href="#DejaVuSans-20" transform="translate(1946.285156 0)"/>
     <use xlink:href="#DejaVuSans-37" transform="translate(1978.072266 0)"/>
     <use xlink:href="#DejaVuSans-2c" transform="translate(2041.695312 0)"/>
     <use xlink:href="#DejaVuSans-20" transform="translate(2073.482422 0)"/>
     <use xlink:href="#DejaVuSans-54" transform="translate(2105.269531 0)"/>
     <use xlink:href="#DejaVuSans-30" transform="translate(2166.353516 0)"/>
     <use xlink:href="#DejaVuSans-3a" transform="translate(2229.976562 0)"/>
     <use xlink:href="#DejaVuSans-20" transform="translate(2263.667969 0)"/>
     <use xlink:href="#DejaVuSans-32" transform="translate(2295.455078 0)"/>
     <use xlink:href="#DejaVuSans-30" transform="translate(2359.078125 0)"/>
     <use xlink:href="#DejaVuSans-2e" transform="translate(2422.701172 0)"/>
     <use xlink:href="#DejaVuSans-30" transform="translate(2454.488281 0)"/>
    </g>
   </g>
  </g>
 </g>
 <defs>
  <clipPath id="p3c5a7dfecf">
   <rect x="50.87" y="43.44" width="793.996" height="346.6"/>
  </clipPath>
 </defs>
</svg>
