<?xml version="1.0" encoding="utf-8" standalone="no"?>
<!DOCTYPE svg PUBLIC "-//W3C//DTD SVG 1.1//EN"
  "http://www.w3.org/Graphics/SVG/1.1/DTD/svg11.dtd">
<svg xmlns:xlink="http://www.w3.org/1999/xlink" width="864pt" height="432pt" viewBox="0 0 864 432" xmlns="http://www.w3.org/2000/svg" version="1.1">
 <metadata>
  <rdf:RDF xmlns:dc="http://purl.org/dc/elements/1.1/" xmlns:cc="http://creativecommons.org/ns#" xmlns:rdf="http://www.w3.org/1999/02/22-rdf-syntax-ns#">
   <cc:Work>
    <dc:type rdf:resource="http://purl.org/dc/dcmitype/StillImage"/>
    <dc:date>2025-05-24T02:06:26.948464</dc:date>
    <dc:format>image/svg+xml</dc:format>
    <dc:creator>
     <cc:Agent>
      <dc:title>Matplotlib v3.10.3, https://matplotlib.org/</dc:title>
     </cc:Agent>
    </dc:creator>
   </cc:Work>
  </rdf:RDF>
 </metadata>
 <defs>
  <style type="text/css">*{stroke-linejoin: round; stroke-linecap: butt}</style>
 </defs>
 <g id="figure_1">
  <g id="patch_1">
   <path d="M 0 432 
L 864 432 
L 864 0 
L 0 0 
z
" style="fill: #ffffff"/>
  </g>
  <g id="axes_1">
   <g id="patch_2">
    <path d="M 50.87 390.04 
L 844.866 390.04 
L 844.866 43.44 
L 50.87 43.44 
z
" style="fill: #ffffff"/>
   </g>
   <g id="FillBetweenPolyCollection_1">
    <defs>
     <path id="m2cb5273abd" d="M 52.193327 -336.039982 
L 52.193327 -57.714545 
L 54.83998 -59.521196 
L 57.486633 -63.012357 
L 60.133287 -66.846162 
L 62.77994 -71.491639 
L 65.426593 -75.571353 
L 68.073247 -75.170938 
L 70.7199 -79.587226 
L 73.366553 -81.227191 
L 76.013207 -83.540209 
L 78.65986 -86.744097 
L 81.306513 -88.64192 
L 83.953167 -90.781098 
L 86.59982 -93.257452 
L 89.246473 -95.864981 
L 91.893127 -96.558583 
L 94.53978 -97.822417 
L 97.186433 -101.244714 
L 99.833087 -102.251449 
L 102.47974 -104.042333 
L 105.126393 -105.650245 
L 107.773047 -105.280257 
L 110.4197 -105.342568 
L 113.066353 -106.566146 
L 115.713007 -106.572313 
L 118.35966 -107.631266 
L 121.006313 -107.333454 
L 123.652967 -109.076926 
L 126.29962 -109.348804 
L 128.946273 -109.071036 
L 131.592927 -108.682943 
L 134.23958 -111.373514 
L 136.886233 -112.342174 
L 139.532887 -113.000772 
L 142.17954 -114.438976 
L 144.826193 -115.351082 
L 147.472847 -116.719459 
L 150.1195 -115.608132 
L 152.766153 -116.01292 
L 155.412807 -115.936154 
L 158.05946 -117.315733 
L 160.706113 -118.189728 
L 163.352767 -117.104299 
L 165.99942 -117.308843 
L 168.646073 -118.663934 
L 171.292727 -119.560068 
L 173.93938 -119.647951 
L 176.586033 -116.90697 
L 179.232687 -117.821558 
L 181.87934 -119.2919 
L 184.525993 -119.652119 
L 187.172647 -120.404455 
L 189.8193 -120.309886 
L 192.465953 -119.892342 
L 195.112607 -119.96123 
L 197.75926 -120.738247 
L 200.405913 -121.241542 
L 203.052567 -122.710028 
L 205.69922 -122.55204 
L 208.345873 -122.462651 
L 210.992527 -123.209602 
L 213.63918 -125.332566 
L 216.285833 -125.223121 
L 218.932487 -126.35619 
L 221.57914 -125.288721 
L 224.225793 -124.627931 
L 226.872447 -125.197621 
L 229.5191 -125.168315 
L 232.165753 -125.085406 
L 234.812407 -124.522124 
L 237.45906 -124.09946 
L 240.105713 -124.296609 
L 242.752367 -124.975214 
L 245.39902 -125.803122 
L 248.045673 -125.843282 
L 250.692327 -126.682766 
L 253.33898 -127.582322 
L 255.985633 -127.80179 
L 258.632287 -128.428684 
L 261.27894 -128.101023 
L 263.925593 -127.658798 
L 266.572247 -127.675192 
L 269.2189 -127.872436 
L 271.865553 -129.699914 
L 274.512207 -130.339624 
L 277.15886 -128.478745 
L 279.805513 -129.386828 
L 282.452167 -129.619715 
L 285.09882 -130.210473 
L 287.745473 -129.836317 
L 290.392127 -130.955292 
L 293.03878 -130.126444 
L 295.685433 -130.086091 
L 298.332087 -129.67198 
L 300.97874 -130.302356 
L 303.625393 -130.38512 
L 306.272047 -131.142454 
L 308.9187 -131.203814 
L 311.565353 -130.524847 
L 314.212007 -129.683195 
L 316.85866 -129.978019 
L 319.505313 -130.021684 
L 322.151967 -130.150414 
L 324.79862 -131.657301 
L 327.445273 -131.994261 
L 330.091927 -131.747787 
L 332.73858 -132.164295 
L 335.385233 -132.201841 
L 338.031887 -132.447375 
L 340.67854 -132.594896 
L 343.325193 -133.356434 
L 345.971847 -133.463711 
L 348.6185 -133.717798 
L 351.265153 -133.755332 
L 353.911807 -133.777664 
L 356.55846 -133.589249 
L 359.205113 -134.439104 
L 361.851767 -133.419022 
L 364.49842 -133.614918 
L 367.145073 -134.581578 
L 369.791727 -133.068728 
L 372.43838 -134.168961 
L 375.085033 -134.467207 
L 377.731687 -135.078261 
L 380.37834 -134.453583 
L 383.024993 -133.930641 
L 385.671647 -133.991676 
L 388.3183 -134.879246 
L 390.964953 -135.447779 
L 393.611607 -134.886786 
L 396.25826 -134.289753 
L 398.904913 -134.57417 
L 401.551567 -132.872496 
L 404.19822 -134.591998 
L 406.844873 -134.538455 
L 409.491527 -135.61656 
L 412.13818 -136.18242 
L 414.784833 -135.222035 
L 417.431487 -135.011758 
L 420.07814 -135.010192 
L 422.724793 -135.556369 
L 425.371447 -135.913385 
L 428.0181 -136.169242 
L 430.664753 -136.350551 
L 433.311407 -135.542613 
L 435.95806 -135.459114 
L 438.604713 -136.357103 
L 441.251367 -136.777659 
L 443.89802 -137.571467 
L 446.544673 -137.769482 
L 449.191327 -137.329883 
L 451.83798 -137.974363 
L 454.484633 -137.924435 
L 457.131287 -139.018115 
L 459.77794 -137.923266 
L 462.424593 -137.4066 
L 465.071247 -137.603026 
L 467.7179 -137.643932 
L 470.364553 -136.670225 
L 473.011207 -135.783956 
L 475.65786 -136.255271 
L 478.304513 -137.116329 
L 480.951167 -138.268261 
L 483.59782 -138.630624 
L 486.244473 -138.631744 
L 488.891127 -138.813041 
L 491.53778 -138.971655 
L 494.184433 -139.471675 
L 496.831087 -139.292028 
L 499.47774 -138.654956 
L 502.124393 -138.849165 
L 504.771047 -139.040062 
L 507.4177 -137.517804 
L 510.064353 -138.978184 
L 512.711007 -139.29145 
L 515.35766 -140.069527 
L 518.004313 -138.843046 
L 520.650967 -138.633527 
L 523.29762 -138.739286 
L 525.944273 -138.608111 
L 528.590927 -140.377096 
L 531.23758 -140.375108 
L 533.884233 -140.298559 
L 536.530887 -141.088718 
L 539.17754 -140.970154 
L 541.824193 -141.59541 
L 544.470847 -140.943594 
L 547.1175 -140.948147 
L 549.764153 -140.359546 
L 552.410807 -140.334166 
L 555.05746 -140.451079 
L 557.704113 -140.117456 
L 560.350767 -140.990511 
L 562.99742 -141.844763 
L 565.644073 -141.632209 
L 568.290727 -140.867864 
L 570.93738 -140.504175 
L 573.584033 -139.486587 
L 576.230687 -139.352003 
L 578.87734 -139.823474 
L 581.523993 -140.000555 
L 584.170647 -140.669258 
L 586.8173 -140.515077 
L 589.463953 -140.116324 
L 592.110607 -139.99729 
L 594.75726 -140.673306 
L 597.403913 -140.614464 
L 600.050567 -140.927453 
L 602.69722 -140.523267 
L 605.343873 -140.2935 
L 607.990527 -140.024585 
L 610.63718 -141.125384 
L 613.283833 -141.133298 
L 615.930487 -140.076031 
L 618.57714 -140.146449 
L 621.223793 -140.912818 
L 623.870447 -140.511198 
L 626.5171 -140.474604 
L 629.163753 -141.309643 
L 631.810407 -141.946716 
L 634.45706 -142.01664 
L 637.103713 -141.209979 
L 639.750367 -141.986177 
L 642.39702 -141.830573 
L 645.043673 -142.054185 
L 647.690327 -142.064484 
L 650.33698 -143.805812 
L 652.983633 -143.005741 
L 655.630287 -143.074966 
L 658.27694 -143.719699 
L 660.923593 -142.97947 
L 663.570247 -143.273969 
L 666.2169 -143.735599 
L 668.863553 -142.758086 
L 671.510207 -142.826914 
L 674.15686 -143.127569 
L 676.803513 -143.162537 
L 679.450167 -142.720022 
L 682.09682 -142.831889 
L 684.743473 -143.438269 
L 687.390127 -142.218907 
L 690.03678 -142.321715 
L 692.683433 -142.585426 
L 695.330087 -143.09295 
L 697.97674 -143.518215 
L 700.623393 -143.63714 
L 703.270047 -143.435824 
L 705.9167 -144.286342 
L 708.563353 -144.631758 
L 711.210007 -144.184522 
L 713.85666 -143.076689 
L 716.503313 -143.87994 
L 719.149967 -143.139903 
L 721.79662 -142.777455 
L 724.443273 -142.969231 
L 727.089927 -144.00979 
L 729.73658 -143.59904 
L 732.383233 -143.892504 
L 735.029887 -143.058283 
L 737.67654 -143.565927 
L 740.323193 -144.123066 
L 742.969847 -143.979002 
L 745.6165 -143.902525 
L 748.263153 -144.329802 
L 750.909807 -144.086303 
L 753.55646 -144.142146 
L 756.203113 -145.719318 
L 758.849767 -144.815668 
L 761.49642 -144.812054 
L 764.143073 -144.483237 
L 766.789727 -145.724739 
L 769.43638 -146.38006 
L 772.083033 -144.680783 
L 774.729687 -144.704922 
L 777.37634 -145.318638 
L 780.022993 -145.564113 
L 782.669647 -146.61626 
L 785.3163 -147.118025 
L 787.962953 -148.513842 
L 790.609607 -147.697484 
L 793.25626 -147.240058 
L 795.902913 -146.69588 
L 798.549567 -145.453463 
L 801.19622 -146.238622 
L 803.842873 -146.795605 
L 806.489527 -147.047812 
L 809.13618 -147.118965 
L 811.782833 -146.965891 
L 814.429487 -146.581725 
L 817.07614 -146.497696 
L 819.722793 -146.067228 
L 822.369447 -144.854442 
L 825.0161 -145.56074 
L 827.662753 -145.441598 
L 830.309407 -146.408704 
L 832.95606 -145.931993 
L 835.602713 -147.024179 
L 838.249367 -146.942379 
L 840.89602 -148.593944 
L 843.542673 -148.96056 
L 843.542673 -370.507927 
L 843.542673 -370.507927 
L 840.89602 -369.999512 
L 838.249367 -371.309071 
L 835.602713 -371.406567 
L 832.95606 -372.611402 
L 830.309407 -371.840252 
L 827.662753 -372.584902 
L 825.0161 -372.457967 
L 822.369447 -372.805455 
L 819.722793 -372.036183 
L 817.07614 -371.856393 
L 814.429487 -372.047819 
L 811.782833 -371.514422 
L 809.13618 -371.165634 
L 806.489527 -370.753438 
L 803.842873 -370.567046 
L 801.19622 -371.31507 
L 798.549567 -371.851117 
L 795.902913 -371.121258 
L 793.25626 -371.231113 
L 790.609607 -370.928338 
L 787.962953 -369.624152 
L 785.3163 -370.922604 
L 782.669647 -371.122366 
L 780.022993 -371.488307 
L 777.37634 -371.120752 
L 774.729687 -371.432657 
L 772.083033 -371.384475 
L 769.43638 -370.381329 
L 766.789727 -370.548424 
L 764.143073 -371.195603 
L 761.49642 -370.996443 
L 758.849767 -370.615373 
L 756.203113 -369.635402 
L 753.55646 -371.127136 
L 750.909807 -370.813472 
L 748.263153 -370.749415 
L 745.6165 -370.980832 
L 742.969847 -370.658712 
L 740.323193 -370.64315 
L 737.67654 -370.992685 
L 735.029887 -371.197313 
L 732.383233 -370.519924 
L 729.73658 -371.245326 
L 727.089927 -370.653316 
L 724.443273 -371.809488 
L 721.79662 -372.233343 
L 719.149967 -372.348233 
L 716.503313 -371.544343 
L 713.85666 -371.933628 
L 711.210007 -370.154345 
L 708.563353 -370.01257 
L 705.9167 -370.076073 
L 703.270047 -370.45153 
L 700.623393 -370.526766 
L 697.97674 -371.124101 
L 695.330087 -370.682996 
L 692.683433 -371.284185 
L 690.03678 -371.243833 
L 687.390127 -370.994901 
L 684.743473 -370.107849 
L 682.09682 -370.893743 
L 679.450167 -370.73537 
L 676.803513 -370.690175 
L 674.15686 -370.936794 
L 671.510207 -371.230848 
L 668.863553 -371.566362 
L 666.2169 -371.232847 
L 663.570247 -371.509652 
L 660.923593 -371.683733 
L 658.27694 -371.09047 
L 655.630287 -371.290762 
L 652.983633 -370.937348 
L 650.33698 -370.493641 
L 647.690327 -371.577853 
L 645.043673 -371.393485 
L 642.39702 -371.314323 
L 639.750367 -371.398834 
L 637.103713 -371.751501 
L 634.45706 -371.127883 
L 631.810407 -371.127666 
L 629.163753 -371.732252 
L 626.5171 -372.176055 
L 623.870447 -372.637854 
L 621.223793 -372.62458 
L 618.57714 -372.579723 
L 615.930487 -372.197881 
L 613.283833 -371.265322 
L 610.63718 -371.574842 
L 607.990527 -372.108938 
L 605.343873 -371.929364 
L 602.69722 -371.730277 
L 600.050567 -371.316057 
L 597.403913 -371.500449 
L 594.75726 -371.00673 
L 592.110607 -371.435861 
L 589.463953 -371.360818 
L 586.8173 -370.704919 
L 584.170647 -370.648305 
L 581.523993 -371.052743 
L 578.87734 -371.133303 
L 576.230687 -371.344099 
L 573.584033 -370.774301 
L 570.93738 -370.230857 
L 568.290727 -370.136132 
L 565.644073 -369.596158 
L 562.99742 -369.481052 
L 560.350767 -370.2569 
L 557.704113 -370.237868 
L 555.05746 -369.99202 
L 552.410807 -370.036685 
L 549.764153 -369.956076 
L 547.1175 -369.42174 
L 544.470847 -369.382086 
L 541.824193 -368.2157 
L 539.17754 -368.776537 
L 536.530887 -368.283106 
L 533.884233 -369.50071 
L 531.23758 -368.844425 
L 528.590927 -369.237203 
L 525.944273 -370.320018 
L 523.29762 -370.238759 
L 520.650967 -370.480921 
L 518.004313 -369.855111 
L 515.35766 -369.652868 
L 512.711007 -370.310261 
L 510.064353 -370.534692 
L 507.4177 -371.145421 
L 504.771047 -369.978216 
L 502.124393 -369.898186 
L 499.47774 -369.725623 
L 496.831087 -369.183866 
L 494.184433 -368.99733 
L 491.53778 -369.061773 
L 488.891127 -368.972251 
L 486.244473 -369.045969 
L 483.59782 -368.726717 
L 480.951167 -368.553792 
L 478.304513 -369.426124 
L 475.65786 -369.5871 
L 473.011207 -369.6825 
L 470.364553 -368.78439 
L 467.7179 -368.234828 
L 465.071247 -368.630305 
L 462.424593 -368.820358 
L 459.77794 -368.602889 
L 457.131287 -368.131333 
L 454.484633 -368.838161 
L 451.83798 -369.195911 
L 449.191327 -369.030069 
L 446.544673 -368.296983 
L 443.89802 -367.81473 
L 441.251367 -368.206401 
L 438.604713 -368.824164 
L 435.95806 -369.322051 
L 433.311407 -368.602841 
L 430.664753 -368.297729 
L 428.0181 -368.79434 
L 425.371447 -368.754903 
L 422.724793 -368.666658 
L 420.07814 -369.290059 
L 417.431487 -369.227663 
L 414.784833 -368.828212 
L 412.13818 -368.435939 
L 409.491527 -368.542373 
L 406.844873 -368.619078 
L 404.19822 -368.409535 
L 401.551567 -369.080829 
L 398.904913 -368.241863 
L 396.25826 -367.747758 
L 393.611607 -367.394994 
L 390.964953 -367.008118 
L 388.3183 -367.401282 
L 385.671647 -367.577531 
L 383.024993 -367.479192 
L 380.37834 -367.317132 
L 377.731687 -367.489961 
L 375.085033 -367.754455 
L 372.43838 -366.851961 
L 369.791727 -367.873031 
L 367.145073 -366.409266 
L 364.49842 -367.408461 
L 361.851767 -367.391573 
L 359.205113 -366.551258 
L 356.55846 -366.954709 
L 353.911807 -367.750311 
L 351.265153 -367.194751 
L 348.6185 -366.521506 
L 345.971847 -366.487561 
L 343.325193 -366.623844 
L 340.67854 -367.286465 
L 338.031887 -367.131223 
L 335.385233 -367.558837 
L 332.73858 -367.198533 
L 330.091927 -367.746336 
L 327.445273 -367.601429 
L 324.79862 -367.695408 
L 322.151967 -368.42199 
L 319.505313 -368.297224 
L 316.85866 -367.941376 
L 314.212007 -367.798565 
L 311.565353 -366.926257 
L 308.9187 -366.371371 
L 306.272047 -366.198085 
L 303.625393 -366.555883 
L 300.97874 -366.264961 
L 298.332087 -366.825557 
L 295.685433 -366.214394 
L 293.03878 -366.484671 
L 290.392127 -365.919666 
L 287.745473 -366.79089 
L 285.09882 -366.021932 
L 282.452167 -366.021258 
L 279.805513 -366.175704 
L 277.15886 -366.398353 
L 274.512207 -364.619864 
L 271.865553 -365.525009 
L 269.2189 -366.164695 
L 266.572247 -365.954622 
L 263.925593 -365.781842 
L 261.27894 -365.689333 
L 258.632287 -365.472635 
L 255.985633 -364.971206 
L 253.33898 -364.952656 
L 250.692327 -365.408023 
L 248.045673 -366.644249 
L 245.39902 -366.275947 
L 242.752367 -365.917281 
L 240.105713 -365.866425 
L 237.45906 -365.959681 
L 234.812407 -364.750076 
L 232.165753 -364.232458 
L 229.5191 -363.51968 
L 226.872447 -363.648735 
L 224.225793 -364.192853 
L 221.57914 -363.010591 
L 218.932487 -362.262134 
L 216.285833 -362.731931 
L 213.63918 -362.421134 
L 210.992527 -363.813854 
L 208.345873 -363.924769 
L 205.69922 -362.557151 
L 203.052567 -362.347175 
L 200.405913 -362.71591 
L 197.75926 -363.051521 
L 195.112607 -363.111797 
L 192.465953 -362.597166 
L 189.8193 -361.555812 
L 187.172647 -361.718667 
L 184.525993 -361.693973 
L 181.87934 -362.180971 
L 179.232687 -362.748843 
L 176.586033 -362.587771 
L 173.93938 -360.437608 
L 171.292727 -360.044492 
L 168.646073 -360.071088 
L 165.99942 -360.648765 
L 163.352767 -360.44999 
L 160.706113 -359.743307 
L 158.05946 -359.859642 
L 155.412807 -360.348712 
L 152.766153 -359.434172 
L 150.1195 -358.933997 
L 147.472847 -357.143463 
L 144.826193 -357.673704 
L 142.17954 -358.316739 
L 139.532887 -359.286977 
L 136.886233 -359.043273 
L 134.23958 -358.909593 
L 131.592927 -360.902008 
L 128.946273 -359.4043 
L 126.29962 -358.385446 
L 123.652967 -357.87402 
L 121.006313 -358.228663 
L 118.35966 -357.559947 
L 115.713007 -356.634325 
L 113.066353 -355.386656 
L 110.4197 -355.085231 
L 107.773047 -353.990973 
L 105.126393 -353.885792 
L 102.47974 -353.781285 
L 99.833087 -353.766445 
L 97.186433 -353.24319 
L 94.53978 -354.192734 
L 91.893127 -353.585378 
L 89.246473 -352.373339 
L 86.59982 -352.89922 
L 83.953167 -352.026743 
L 81.306513 -351.635025 
L 78.65986 -349.628203 
L 76.013207 -348.730984 
L 73.366553 -346.422399 
L 70.7199 -344.923125 
L 68.073247 -344.87222 
L 65.426593 -340.580471 
L 62.77994 -340.100868 
L 60.133287 -337.252044 
L 57.486633 -335.091787 
L 54.83998 -333.822822 
L 52.193327 -336.039982 
z
" style="stroke: #0000ff; stroke-opacity: 0.2"/>
    </defs>
    <g clip-path="url(#p9adff17c45)">
     <use xlink:href="#m2cb5273abd" x="0" y="432" style="fill: #0000ff; fill-opacity: 0.2; stroke: #0000ff; stroke-opacity: 0.2"/>
    </g>
   </g>
   <g id="matplotlib.axis_1">
    <g id="xtick_1">
     <g id="line2d_1">
      <defs>
       <path id="mc9e9d84594" d="M 0 0 
L 0 3.5 
" style="stroke: #000000; stroke-width: 0.8"/>
      </defs>
      <g>
       <use xlink:href="#mc9e9d84594" x="181.87934" y="390.04" style="stroke: #000000; stroke-width: 0.8"/>
      </g>
     </g>
     <g id="text_1">
      <!-- 50 -->
      <g transform="translate(175.51684 404.638438) scale(0.1 -0.1)">
       <defs>
        <path id="DejaVuSans-35" d="M 691 4666 
L 3169 4666 
L 3169 4134 
L 1269 4134 
L 1269 2991 
Q 1406 3038 1543 3061 
Q 1681 3084 1819 3084 
Q 2600 3084 3056 2656 
Q 3513 2228 3513 1497 
Q 3513 744 3044 326 
Q 2575 -91 1722 -91 
Q 1428 -91 1123 -41 
Q 819 9 494 109 
L 494 744 
Q 775 591 1075 516 
Q 1375 441 1709 441 
Q 2250 441 2565 725 
Q 2881 1009 2881 1497 
Q 2881 1984 2565 2268 
Q 2250 2553 1709 2553 
Q 1456 2553 1204 2497 
Q 953 2441 691 2322 
L 691 4666 
z
" transform="scale(0.015625)"/>
        <path id="DejaVuSans-30" d="M 2034 4250 
Q 1547 4250 1301 3770 
Q 1056 3291 1056 2328 
Q 1056 1369 1301 889 
Q 1547 409 2034 409 
Q 2525 409 2770 889 
Q 3016 1369 3016 2328 
Q 3016 3291 2770 3770 
Q 2525 4250 2034 4250 
z
M 2034 4750 
Q 2819 4750 3233 4129 
Q 3647 3509 3647 2328 
Q 3647 1150 3233 529 
Q 2819 -91 2034 -91 
Q 1250 -91 836 529 
Q 422 1150 422 2328 
Q 422 3509 836 4129 
Q 1250 4750 2034 4750 
z
" transform="scale(0.015625)"/>
       </defs>
       <use xlink:href="#DejaVuSans-35"/>
       <use xlink:href="#DejaVuSans-30" transform="translate(63.623047 0)"/>
      </g>
     </g>
    </g>
    <g id="xtick_2">
     <g id="line2d_2">
      <g>
       <use xlink:href="#mc9e9d84594" x="314.212007" y="390.04" style="stroke: #000000; stroke-width: 0.8"/>
      </g>
     </g>
     <g id="text_2">
      <!-- 100 -->
      <g transform="translate(304.668257 404.638438) scale(0.1 -0.1)">
       <defs>
        <path id="DejaVuSans-31" d="M 794 531 
L 1825 531 
L 1825 4091 
L 703 3866 
L 703 4441 
L 1819 4666 
L 2450 4666 
L 2450 531 
L 3481 531 
L 3481 0 
L 794 0 
L 794 531 
z
" transform="scale(0.015625)"/>
       </defs>
       <use xlink:href="#DejaVuSans-31"/>
       <use xlink:href="#DejaVuSans-30" transform="translate(63.623047 0)"/>
       <use xlink:href="#DejaVuSans-30" transform="translate(127.246094 0)"/>
      </g>
     </g>
    </g>
    <g id="xtick_3">
     <g id="line2d_3">
      <g>
       <use xlink:href="#mc9e9d84594" x="446.544673" y="390.04" style="stroke: #000000; stroke-width: 0.8"/>
      </g>
     </g>
     <g id="text_3">
      <!-- 150 -->
      <g transform="translate(437.000923 404.638438) scale(0.1 -0.1)">
       <use xlink:href="#DejaVuSans-31"/>
       <use xlink:href="#DejaVuSans-35" transform="translate(63.623047 0)"/>
       <use xlink:href="#DejaVuSans-30" transform="translate(127.246094 0)"/>
      </g>
     </g>
    </g>
    <g id="xtick_4">
     <g id="line2d_4">
      <g>
       <use xlink:href="#mc9e9d84594" x="578.87734" y="390.04" style="stroke: #000000; stroke-width: 0.8"/>
      </g>
     </g>
     <g id="text_4">
      <!-- 200 -->
      <g transform="translate(569.33359 404.638438) scale(0.1 -0.1)">
       <defs>
        <path id="DejaVuSans-32" d="M 1228 531 
L 3431 531 
L 3431 0 
L 469 0 
L 469 531 
Q 828 903 1448 1529 
Q 2069 2156 2228 2338 
Q 2531 2678 2651 2914 
Q 2772 3150 2772 3378 
Q 2772 3750 2511 3984 
Q 2250 4219 1831 4219 
Q 1534 4219 1204 4116 
Q 875 4013 500 3803 
L 500 4441 
Q 881 4594 1212 4672 
Q 1544 4750 1819 4750 
Q 2544 4750 2975 4387 
Q 3406 4025 3406 3419 
Q 3406 3131 3298 2873 
Q 3191 2616 2906 2266 
Q 2828 2175 2409 1742 
Q 1991 1309 1228 531 
z
" transform="scale(0.015625)"/>
       </defs>
       <use xlink:href="#DejaVuSans-32"/>
       <use xlink:href="#DejaVuSans-30" transform="translate(63.623047 0)"/>
       <use xlink:href="#DejaVuSans-30" transform="translate(127.246094 0)"/>
      </g>
     </g>
    </g>
    <g id="xtick_5">
     <g id="line2d_5">
      <g>
       <use xlink:href="#mc9e9d84594" x="711.210007" y="390.04" style="stroke: #000000; stroke-width: 0.8"/>
      </g>
     </g>
     <g id="text_5">
      <!-- 250 -->
      <g transform="translate(701.666257 404.638438) scale(0.1 -0.1)">
       <use xlink:href="#DejaVuSans-32"/>
       <use xlink:href="#DejaVuSans-35" transform="translate(63.623047 0)"/>
       <use xlink:href="#DejaVuSans-30" transform="translate(127.246094 0)"/>
      </g>
     </g>
    </g>
    <g id="xtick_6">
     <g id="line2d_6">
      <g>
       <use xlink:href="#mc9e9d84594" x="843.542673" y="390.04" style="stroke: #000000; stroke-width: 0.8"/>
      </g>
     </g>
     <g id="text_6">
      <!-- 300 -->
      <g transform="translate(833.998923 404.638438) scale(0.1 -0.1)">
       <defs>
        <path id="DejaVuSans-33" d="M 2597 2516 
Q 3050 2419 3304 2112 
Q 3559 1806 3559 1356 
Q 3559 666 3084 287 
Q 2609 -91 1734 -91 
Q 1441 -91 1130 -33 
Q 819 25 488 141 
L 488 750 
Q 750 597 1062 519 
Q 1375 441 1716 441 
Q 2309 441 2620 675 
Q 2931 909 2931 1356 
Q 2931 1769 2642 2001 
Q 2353 2234 1838 2234 
L 1294 2234 
L 1294 2753 
L 1863 2753 
Q 2328 2753 2575 2939 
Q 2822 3125 2822 3475 
Q 2822 3834 2567 4026 
Q 2313 4219 1838 4219 
Q 1578 4219 1281 4162 
Q 984 4106 628 3988 
L 628 4550 
Q 988 4650 1302 4700 
Q 1616 4750 1894 4750 
Q 2613 4750 3031 4423 
Q 3450 4097 3450 3541 
Q 3450 3153 3228 2886 
Q 3006 2619 2597 2516 
z
" transform="scale(0.015625)"/>
       </defs>
       <use xlink:href="#DejaVuSans-33"/>
       <use xlink:href="#DejaVuSans-30" transform="translate(63.623047 0)"/>
       <use xlink:href="#DejaVuSans-30" transform="translate(127.246094 0)"/>
      </g>
     </g>
    </g>
    <g id="text_7">
     <!-- Step -->
     <g transform="translate(436.482844 418.316562) scale(0.1 -0.1)">
      <defs>
       <path id="DejaVuSans-53" d="M 3425 4513 
L 3425 3897 
Q 3066 4069 2747 4153 
Q 2428 4238 2131 4238 
Q 1616 4238 1336 4038 
Q 1056 3838 1056 3469 
Q 1056 3159 1242 3001 
Q 1428 2844 1947 2747 
L 2328 2669 
Q 3034 2534 3370 2195 
Q 3706 1856 3706 1288 
Q 3706 609 3251 259 
Q 2797 -91 1919 -91 
Q 1588 -91 1214 -16 
Q 841 59 441 206 
L 441 856 
Q 825 641 1194 531 
Q 1563 422 1919 422 
Q 2459 422 2753 634 
Q 3047 847 3047 1241 
Q 3047 1584 2836 1778 
Q 2625 1972 2144 2069 
L 1759 2144 
Q 1053 2284 737 2584 
Q 422 2884 422 3419 
Q 422 4038 858 4394 
Q 1294 4750 2059 4750 
Q 2388 4750 2728 4690 
Q 3069 4631 3425 4513 
z
" transform="scale(0.015625)"/>
       <path id="DejaVuSans-74" d="M 1172 4494 
L 1172 3500 
L 2356 3500 
L 2356 3053 
L 1172 3053 
L 1172 1153 
Q 1172 725 1289 603 
Q 1406 481 1766 481 
L 2356 481 
L 2356 0 
L 1766 0 
Q 1100 0 847 248 
Q 594 497 594 1153 
L 594 3053 
L 172 3053 
L 172 3500 
L 594 3500 
L 594 4494 
L 1172 4494 
z
" transform="scale(0.015625)"/>
       <path id="DejaVuSans-65" d="M 3597 1894 
L 3597 1613 
L 953 1613 
Q 991 1019 1311 708 
Q 1631 397 2203 397 
Q 2534 397 2845 478 
Q 3156 559 3463 722 
L 3463 178 
Q 3153 47 2828 -22 
Q 2503 -91 2169 -91 
Q 1331 -91 842 396 
Q 353 884 353 1716 
Q 353 2575 817 3079 
Q 1281 3584 2069 3584 
Q 2775 3584 3186 3129 
Q 3597 2675 3597 1894 
z
M 3022 2063 
Q 3016 2534 2758 2815 
Q 2500 3097 2075 3097 
Q 1594 3097 1305 2825 
Q 1016 2553 972 2059 
L 3022 2063 
z
" transform="scale(0.015625)"/>
       <path id="DejaVuSans-70" d="M 1159 525 
L 1159 -1331 
L 581 -1331 
L 581 3500 
L 1159 3500 
L 1159 2969 
Q 1341 3281 1617 3432 
Q 1894 3584 2278 3584 
Q 2916 3584 3314 3078 
Q 3713 2572 3713 1747 
Q 3713 922 3314 415 
Q 2916 -91 2278 -91 
Q 1894 -91 1617 61 
Q 1341 213 1159 525 
z
M 3116 1747 
Q 3116 2381 2855 2742 
Q 2594 3103 2138 3103 
Q 1681 3103 1420 2742 
Q 1159 2381 1159 1747 
Q 1159 1113 1420 752 
Q 1681 391 2138 391 
Q 2594 391 2855 752 
Q 3116 1113 3116 1747 
z
" transform="scale(0.015625)"/>
      </defs>
      <use xlink:href="#DejaVuSans-53"/>
      <use xlink:href="#DejaVuSans-74" transform="translate(63.476562 0)"/>
      <use xlink:href="#DejaVuSans-65" transform="translate(102.685547 0)"/>
      <use xlink:href="#DejaVuSans-70" transform="translate(164.208984 0)"/>
     </g>
    </g>
   </g>
   <g id="matplotlib.axis_2">
    <g id="ytick_1">
     <g id="line2d_7">
      <defs>
       <path id="mcf6574783e" d="M 0 0 
L -3.5 0 
" style="stroke: #000000; stroke-width: 0.8"/>
      </defs>
      <g>
       <use xlink:href="#mcf6574783e" x="50.87" y="377.019606" style="stroke: #000000; stroke-width: 0.8"/>
      </g>
     </g>
     <g id="text_8">
      <!-- 20 -->
      <g transform="translate(31.145 380.818825) scale(0.1 -0.1)">
       <use xlink:href="#DejaVuSans-32"/>
       <use xlink:href="#DejaVuSans-30" transform="translate(63.623047 0)"/>
      </g>
     </g>
    </g>
    <g id="ytick_2">
     <g id="line2d_8">
      <g>
       <use xlink:href="#mcf6574783e" x="50.87" y="313.866693" style="stroke: #000000; stroke-width: 0.8"/>
      </g>
     </g>
     <g id="text_9">
      <!-- 40 -->
      <g transform="translate(31.145 317.665912) scale(0.1 -0.1)">
       <defs>
        <path id="DejaVuSans-34" d="M 2419 4116 
L 825 1625 
L 2419 1625 
L 2419 4116 
z
M 2253 4666 
L 3047 4666 
L 3047 1625 
L 3713 1625 
L 3713 1100 
L 3047 1100 
L 3047 0 
L 2419 0 
L 2419 1100 
L 313 1100 
L 313 1709 
L 2253 4666 
z
" transform="scale(0.015625)"/>
       </defs>
       <use xlink:href="#DejaVuSans-34"/>
       <use xlink:href="#DejaVuSans-30" transform="translate(63.623047 0)"/>
      </g>
     </g>
    </g>
    <g id="ytick_3">
     <g id="line2d_9">
      <g>
       <use xlink:href="#mcf6574783e" x="50.87" y="250.71378" style="stroke: #000000; stroke-width: 0.8"/>
      </g>
     </g>
     <g id="text_10">
      <!-- 60 -->
      <g transform="translate(31.145 254.512999) scale(0.1 -0.1)">
       <defs>
        <path id="DejaVuSans-36" d="M 2113 2584 
Q 1688 2584 1439 2293 
Q 1191 2003 1191 1497 
Q 1191 994 1439 701 
Q 1688 409 2113 409 
Q 2538 409 2786 701 
Q 3034 994 3034 1497 
Q 3034 2003 2786 2293 
Q 2538 2584 2113 2584 
z
M 3366 4563 
L 3366 3988 
Q 3128 4100 2886 4159 
Q 2644 4219 2406 4219 
Q 1781 4219 1451 3797 
Q 1122 3375 1075 2522 
Q 1259 2794 1537 2939 
Q 1816 3084 2150 3084 
Q 2853 3084 3261 2657 
Q 3669 2231 3669 1497 
Q 3669 778 3244 343 
Q 2819 -91 2113 -91 
Q 1303 -91 875 529 
Q 447 1150 447 2328 
Q 447 3434 972 4092 
Q 1497 4750 2381 4750 
Q 2619 4750 2861 4703 
Q 3103 4656 3366 4563 
z
" transform="scale(0.015625)"/>
       </defs>
       <use xlink:href="#DejaVuSans-36"/>
       <use xlink:href="#DejaVuSans-30" transform="translate(63.623047 0)"/>
      </g>
     </g>
    </g>
    <g id="ytick_4">
     <g id="line2d_10">
      <g>
       <use xlink:href="#mcf6574783e" x="50.87" y="187.560868" style="stroke: #000000; stroke-width: 0.8"/>
      </g>
     </g>
     <g id="text_11">
      <!-- 80 -->
      <g transform="translate(31.145 191.360086) scale(0.1 -0.1)">
       <defs>
        <path id="DejaVuSans-38" d="M 2034 2216 
Q 1584 2216 1326 1975 
Q 1069 1734 1069 1313 
Q 1069 891 1326 650 
Q 1584 409 2034 409 
Q 2484 409 2743 651 
Q 3003 894 3003 1313 
Q 3003 1734 2745 1975 
Q 2488 2216 2034 2216 
z
M 1403 2484 
Q 997 2584 770 2862 
Q 544 3141 544 3541 
Q 544 4100 942 4425 
Q 1341 4750 2034 4750 
Q 2731 4750 3128 4425 
Q 3525 4100 3525 3541 
Q 3525 3141 3298 2862 
Q 3072 2584 2669 2484 
Q 3125 2378 3379 2068 
Q 3634 1759 3634 1313 
Q 3634 634 3220 271 
Q 2806 -91 2034 -91 
Q 1263 -91 848 271 
Q 434 634 434 1313 
Q 434 1759 690 2068 
Q 947 2378 1403 2484 
z
M 1172 3481 
Q 1172 3119 1398 2916 
Q 1625 2713 2034 2713 
Q 2441 2713 2670 2916 
Q 2900 3119 2900 3481 
Q 2900 3844 2670 4047 
Q 2441 4250 2034 4250 
Q 1625 4250 1398 4047 
Q 1172 3844 1172 3481 
z
" transform="scale(0.015625)"/>
       </defs>
       <use xlink:href="#DejaVuSans-38"/>
       <use xlink:href="#DejaVuSans-30" transform="translate(63.623047 0)"/>
      </g>
     </g>
    </g>
    <g id="ytick_5">
     <g id="line2d_11">
      <g>
       <use xlink:href="#mcf6574783e" x="50.87" y="124.407955" style="stroke: #000000; stroke-width: 0.8"/>
      </g>
     </g>
     <g id="text_12">
      <!-- 100 -->
      <g transform="translate(24.7825 128.207174) scale(0.1 -0.1)">
       <use xlink:href="#DejaVuSans-31"/>
       <use xlink:href="#DejaVuSans-30" transform="translate(63.623047 0)"/>
       <use xlink:href="#DejaVuSans-30" transform="translate(127.246094 0)"/>
      </g>
     </g>
    </g>
    <g id="ytick_6">
     <g id="line2d_12">
      <g>
       <use xlink:href="#mcf6574783e" x="50.87" y="61.255042" style="stroke: #000000; stroke-width: 0.8"/>
      </g>
     </g>
     <g id="text_13">
      <!-- 120 -->
      <g transform="translate(24.7825 65.054261) scale(0.1 -0.1)">
       <use xlink:href="#DejaVuSans-31"/>
       <use xlink:href="#DejaVuSans-32" transform="translate(63.623047 0)"/>
       <use xlink:href="#DejaVuSans-30" transform="translate(127.246094 0)"/>
      </g>
     </g>
    </g>
    <g id="text_14">
     <!-- Profit -->
     <g transform="translate(18.702813 229.779063) rotate(-90) scale(0.1 -0.1)">
      <defs>
       <path id="DejaVuSans-50" d="M 1259 4147 
L 1259 2394 
L 2053 2394 
Q 2494 2394 2734 2622 
Q 2975 2850 2975 3272 
Q 2975 3691 2734 3919 
Q 2494 4147 2053 4147 
L 1259 4147 
z
M 628 4666 
L 2053 4666 
Q 2838 4666 3239 4311 
Q 3641 3956 3641 3272 
Q 3641 2581 3239 2228 
Q 2838 1875 2053 1875 
L 1259 1875 
L 1259 0 
L 628 0 
L 628 4666 
z
" transform="scale(0.015625)"/>
       <path id="DejaVuSans-72" d="M 2631 2963 
Q 2534 3019 2420 3045 
Q 2306 3072 2169 3072 
Q 1681 3072 1420 2755 
Q 1159 2438 1159 1844 
L 1159 0 
L 581 0 
L 581 3500 
L 1159 3500 
L 1159 2956 
Q 1341 3275 1631 3429 
Q 1922 3584 2338 3584 
Q 2397 3584 2469 3576 
Q 2541 3569 2628 3553 
L 2631 2963 
z
" transform="scale(0.015625)"/>
       <path id="DejaVuSans-6f" d="M 1959 3097 
Q 1497 3097 1228 2736 
Q 959 2375 959 1747 
Q 959 1119 1226 758 
Q 1494 397 1959 397 
Q 2419 397 2687 759 
Q 2956 1122 2956 1747 
Q 2956 2369 2687 2733 
Q 2419 3097 1959 3097 
z
M 1959 3584 
Q 2709 3584 3137 3096 
Q 3566 2609 3566 1747 
Q 3566 888 3137 398 
Q 2709 -91 1959 -91 
Q 1206 -91 779 398 
Q 353 888 353 1747 
Q 353 2609 779 3096 
Q 1206 3584 1959 3584 
z
" transform="scale(0.015625)"/>
       <path id="DejaVuSans-66" d="M 2375 4863 
L 2375 4384 
L 1825 4384 
Q 1516 4384 1395 4259 
Q 1275 4134 1275 3809 
L 1275 3500 
L 2222 3500 
L 2222 3053 
L 1275 3053 
L 1275 0 
L 697 0 
L 697 3053 
L 147 3053 
L 147 3500 
L 697 3500 
L 697 3744 
Q 697 4328 969 4595 
Q 1241 4863 1831 4863 
L 2375 4863 
z
" transform="scale(0.015625)"/>
       <path id="DejaVuSans-69" d="M 603 3500 
L 1178 3500 
L 1178 0 
L 603 0 
L 603 3500 
z
M 603 4863 
L 1178 4863 
L 1178 4134 
L 603 4134 
L 603 4863 
z
" transform="scale(0.015625)"/>
      </defs>
      <use xlink:href="#DejaVuSans-50"/>
      <use xlink:href="#DejaVuSans-72" transform="translate(58.552734 0)"/>
      <use xlink:href="#DejaVuSans-6f" transform="translate(97.416016 0)"/>
      <use xlink:href="#DejaVuSans-66" transform="translate(158.597656 0)"/>
      <use xlink:href="#DejaVuSans-69" transform="translate(193.802734 0)"/>
      <use xlink:href="#DejaVuSans-74" transform="translate(221.585938 0)"/>
     </g>
    </g>
   </g>
   <g id="line2d_13">
    <path d="M 52.193327 235.122736 
L 54.83998 235.327991 
L 57.486633 232.947928 
L 60.133287 229.950897 
L 62.77994 226.203746 
L 65.426593 223.924094 
L 68.073247 221.978415 
L 70.7199 219.744825 
L 73.366553 218.175205 
L 76.013207 215.864403 
L 81.306513 211.861528 
L 83.953167 210.59608 
L 86.59982 208.921664 
L 91.893127 206.928019 
L 94.53978 205.992424 
L 97.186433 204.756054 
L 99.833087 203.991047 
L 105.126393 202.231976 
L 107.773047 202.364379 
L 110.4197 201.786101 
L 113.066353 201.023599 
L 115.713007 200.396681 
L 118.35966 199.4044 
L 121.006313 199.218948 
L 123.652967 198.524527 
L 128.946273 197.762338 
L 131.592927 197.207524 
L 134.23958 196.858447 
L 139.532887 195.85612 
L 147.472847 195.068539 
L 150.1195 194.728929 
L 158.05946 193.412312 
L 160.706113 193.033482 
L 163.352767 193.222861 
L 165.99942 193.021196 
L 173.93938 191.95722 
L 176.586033 192.252623 
L 181.87934 191.26357 
L 184.525993 191.326954 
L 187.172647 190.938439 
L 189.8193 191.067157 
L 197.75926 190.10511 
L 200.405913 190.021274 
L 203.052567 189.471398 
L 205.69922 189.445404 
L 208.345873 188.806296 
L 213.63918 188.12315 
L 216.285833 188.022474 
L 218.932487 187.690838 
L 221.57914 187.850344 
L 224.225793 187.589608 
L 229.5191 187.656003 
L 232.165753 187.341062 
L 234.812407 187.3639 
L 237.45906 186.970423 
L 240.105713 186.918483 
L 242.752367 186.553747 
L 245.39902 185.960459 
L 248.045673 185.756241 
L 250.692327 185.954605 
L 255.985633 185.613502 
L 258.632287 185.049341 
L 261.27894 185.104822 
L 263.925593 185.279674 
L 269.2189 184.981428 
L 271.865553 184.387539 
L 277.15886 184.561451 
L 279.805513 184.218734 
L 282.452167 184.179514 
L 287.745473 183.686397 
L 290.392127 183.562521 
L 295.685433 183.849757 
L 303.625393 183.529492 
L 308.9187 183.212408 
L 314.212007 183.25912 
L 327.445273 182.202155 
L 332.73858 182.318586 
L 335.385233 182.119667 
L 338.031887 182.210707 
L 343.325193 182.009861 
L 345.971847 182.024364 
L 348.6185 181.880348 
L 353.911807 181.236012 
L 356.55846 181.728021 
L 359.205113 181.504819 
L 361.851767 181.594702 
L 364.49842 181.488317 
L 372.43838 181.489545 
L 375.085033 180.889175 
L 377.731687 180.715889 
L 380.37834 181.114642 
L 383.024993 181.295083 
L 385.671647 181.21539 
L 388.3183 180.859736 
L 390.964953 180.772045 
L 396.25826 180.981251 
L 398.904913 180.59199 
L 401.551567 181.023338 
L 404.19822 180.49924 
L 406.844873 180.421233 
L 409.491527 179.920527 
L 412.13818 179.69082 
L 414.784833 179.974876 
L 420.07814 179.849869 
L 422.724793 179.888486 
L 428.0181 179.518209 
L 433.311407 179.927273 
L 435.95806 179.609417 
L 438.604713 179.409366 
L 441.251367 179.50797 
L 443.89802 179.306907 
L 446.544673 178.966768 
L 449.191327 178.82003 
L 451.83798 178.414869 
L 454.484633 178.618702 
L 457.131287 178.425276 
L 459.77794 178.736916 
L 462.424593 178.886521 
L 465.071247 178.883341 
L 470.364553 179.272698 
L 473.011207 179.266772 
L 475.65786 179.078815 
L 478.304513 178.728773 
L 480.951167 178.588974 
L 486.244473 178.161143 
L 491.53778 177.98328 
L 494.184433 177.765498 
L 499.47774 177.809705 
L 504.771047 177.490861 
L 507.4177 177.668387 
L 510.064353 177.243568 
L 515.35766 177.138797 
L 518.004313 177.650921 
L 520.650967 177.442776 
L 525.944273 177.535935 
L 528.590927 177.192857 
L 531.23758 177.390233 
L 533.884233 177.100371 
L 536.530887 177.314082 
L 539.17754 177.126655 
L 541.824193 177.094445 
L 544.470847 176.837154 
L 557.704113 176.822338 
L 560.350767 176.376295 
L 565.644073 176.385811 
L 570.93738 176.632478 
L 573.584033 176.869556 
L 578.87734 176.521611 
L 594.75726 176.159982 
L 597.403913 175.942538 
L 602.69722 175.873228 
L 607.990527 175.933238 
L 610.63718 175.649881 
L 615.930487 175.863038 
L 618.57714 175.63692 
L 621.223793 175.231301 
L 626.5171 175.674671 
L 629.163753 175.479052 
L 645.043673 175.276159 
L 647.690327 175.178831 
L 650.33698 174.850279 
L 652.983633 175.028456 
L 658.27694 174.594915 
L 660.923593 174.668393 
L 666.2169 174.515777 
L 668.863553 174.837776 
L 671.510207 174.971119 
L 676.803513 175.07365 
L 679.450167 175.272304 
L 682.09682 175.137178 
L 687.390127 175.393096 
L 692.683433 175.065194 
L 695.330087 175.112027 
L 697.97674 174.678848 
L 703.270047 175.056329 
L 708.563353 174.677836 
L 711.210007 174.830573 
L 713.85666 174.494842 
L 716.503313 174.287852 
L 719.149967 174.255932 
L 721.79662 174.494601 
L 727.089927 174.668441 
L 729.73658 174.577811 
L 732.383233 174.793786 
L 735.029887 174.872202 
L 740.323193 174.616886 
L 742.969847 174.681137 
L 748.263153 174.460392 
L 750.909807 174.550106 
L 753.55646 174.365353 
L 758.849767 174.28448 
L 761.49642 174.095751 
L 764.143073 174.16058 
L 769.43638 173.619305 
L 772.083033 173.967371 
L 774.729687 173.93121 
L 777.37634 173.780305 
L 782.669647 173.130693 
L 790.609607 172.687083 
L 793.25626 172.764415 
L 798.549567 173.347704 
L 801.19622 173.223154 
L 803.842873 173.318675 
L 811.782833 172.759837 
L 814.429487 172.685228 
L 822.369447 173.170058 
L 825.0161 172.990653 
L 830.309407 172.875522 
L 832.95606 172.728302 
L 838.249367 172.874269 
L 840.89602 172.703272 
L 843.542673 172.265757 
L 843.542673 172.265757 
" clip-path="url(#p9adff17c45)" style="fill: none; stroke: #0000ff; stroke-width: 1.5; stroke-linecap: square"/>
   </g>
   <g id="patch_3">
    <path d="M 50.87 390.04 
L 50.87 43.44 
" style="fill: none; stroke: #000000; stroke-width: 0.8; stroke-linejoin: miter; stroke-linecap: square"/>
   </g>
   <g id="patch_4">
    <path d="M 844.866 390.04 
L 844.866 43.44 
" style="fill: none; stroke: #000000; stroke-width: 0.8; stroke-linejoin: miter; stroke-linecap: square"/>
   </g>
   <g id="patch_5">
    <path d="M 50.87 390.04 
L 844.866 390.04 
" style="fill: none; stroke: #000000; stroke-width: 0.8; stroke-linejoin: miter; stroke-linecap: square"/>
   </g>
   <g id="patch_6">
    <path d="M 50.87 43.44 
L 844.866 43.44 
" style="fill: none; stroke: #000000; stroke-width: 0.8; stroke-linejoin: miter; stroke-linecap: square"/>
   </g>
   <g id="text_15">
    <!-- Mean profit per step with confidence interval per simulation step -->
    <g transform="translate(220.284875 21.763062) scale(0.14 -0.14)">
     <defs>
      <path id="DejaVuSans-4d" d="M 628 4666 
L 1569 4666 
L 2759 1491 
L 3956 4666 
L 4897 4666 
L 4897 0 
L 4281 0 
L 4281 4097 
L 3078 897 
L 2444 897 
L 1241 4097 
L 1241 0 
L 628 0 
L 628 4666 
z
" transform="scale(0.015625)"/>
      <path id="DejaVuSans-61" d="M 2194 1759 
Q 1497 1759 1228 1600 
Q 959 1441 959 1056 
Q 959 750 1161 570 
Q 1363 391 1709 391 
Q 2188 391 2477 730 
Q 2766 1069 2766 1631 
L 2766 1759 
L 2194 1759 
z
M 3341 1997 
L 3341 0 
L 2766 0 
L 2766 531 
Q 2569 213 2275 61 
Q 1981 -91 1556 -91 
Q 1019 -91 701 211 
Q 384 513 384 1019 
Q 384 1609 779 1909 
Q 1175 2209 1959 2209 
L 2766 2209 
L 2766 2266 
Q 2766 2663 2505 2880 
Q 2244 3097 1772 3097 
Q 1472 3097 1187 3025 
Q 903 2953 641 2809 
L 641 3341 
Q 956 3463 1253 3523 
Q 1550 3584 1831 3584 
Q 2591 3584 2966 3190 
Q 3341 2797 3341 1997 
z
" transform="scale(0.015625)"/>
      <path id="DejaVuSans-6e" d="M 3513 2113 
L 3513 0 
L 2938 0 
L 2938 2094 
Q 2938 2591 2744 2837 
Q 2550 3084 2163 3084 
Q 1697 3084 1428 2787 
Q 1159 2491 1159 1978 
L 1159 0 
L 581 0 
L 581 3500 
L 1159 3500 
L 1159 2956 
Q 1366 3272 1645 3428 
Q 1925 3584 2291 3584 
Q 2894 3584 3203 3211 
Q 3513 2838 3513 2113 
z
" transform="scale(0.015625)"/>
      <path id="DejaVuSans-20" transform="scale(0.015625)"/>
      <path id="DejaVuSans-73" d="M 2834 3397 
L 2834 2853 
Q 2591 2978 2328 3040 
Q 2066 3103 1784 3103 
Q 1356 3103 1142 2972 
Q 928 2841 928 2578 
Q 928 2378 1081 2264 
Q 1234 2150 1697 2047 
L 1894 2003 
Q 2506 1872 2764 1633 
Q 3022 1394 3022 966 
Q 3022 478 2636 193 
Q 2250 -91 1575 -91 
Q 1294 -91 989 -36 
Q 684 19 347 128 
L 347 722 
Q 666 556 975 473 
Q 1284 391 1588 391 
Q 1994 391 2212 530 
Q 2431 669 2431 922 
Q 2431 1156 2273 1281 
Q 2116 1406 1581 1522 
L 1381 1569 
Q 847 1681 609 1914 
Q 372 2147 372 2553 
Q 372 3047 722 3315 
Q 1072 3584 1716 3584 
Q 2034 3584 2315 3537 
Q 2597 3491 2834 3397 
z
" transform="scale(0.015625)"/>
      <path id="DejaVuSans-77" d="M 269 3500 
L 844 3500 
L 1563 769 
L 2278 3500 
L 2956 3500 
L 3675 769 
L 4391 3500 
L 4966 3500 
L 4050 0 
L 3372 0 
L 2619 2869 
L 1863 0 
L 1184 0 
L 269 3500 
z
" transform="scale(0.015625)"/>
      <path id="DejaVuSans-68" d="M 3513 2113 
L 3513 0 
L 2938 0 
L 2938 2094 
Q 2938 2591 2744 2837 
Q 2550 3084 2163 3084 
Q 1697 3084 1428 2787 
Q 1159 2491 1159 1978 
L 1159 0 
L 581 0 
L 581 4863 
L 1159 4863 
L 1159 2956 
Q 1366 3272 1645 3428 
Q 1925 3584 2291 3584 
Q 2894 3584 3203 3211 
Q 3513 2838 3513 2113 
z
" transform="scale(0.015625)"/>
      <path id="DejaVuSans-63" d="M 3122 3366 
L 3122 2828 
Q 2878 2963 2633 3030 
Q 2388 3097 2138 3097 
Q 1578 3097 1268 2742 
Q 959 2388 959 1747 
Q 959 1106 1268 751 
Q 1578 397 2138 397 
Q 2388 397 2633 464 
Q 2878 531 3122 666 
L 3122 134 
Q 2881 22 2623 -34 
Q 2366 -91 2075 -91 
Q 1284 -91 818 406 
Q 353 903 353 1747 
Q 353 2603 823 3093 
Q 1294 3584 2113 3584 
Q 2378 3584 2631 3529 
Q 2884 3475 3122 3366 
z
" transform="scale(0.015625)"/>
      <path id="DejaVuSans-64" d="M 2906 2969 
L 2906 4863 
L 3481 4863 
L 3481 0 
L 2906 0 
L 2906 525 
Q 2725 213 2448 61 
Q 2172 -91 1784 -91 
Q 1150 -91 751 415 
Q 353 922 353 1747 
Q 353 2572 751 3078 
Q 1150 3584 1784 3584 
Q 2172 3584 2448 3432 
Q 2725 3281 2906 2969 
z
M 947 1747 
Q 947 1113 1208 752 
Q 1469 391 1925 391 
Q 2381 391 2643 752 
Q 2906 1113 2906 1747 
Q 2906 2381 2643 2742 
Q 2381 3103 1925 3103 
Q 1469 3103 1208 2742 
Q 947 2381 947 1747 
z
" transform="scale(0.015625)"/>
      <path id="DejaVuSans-76" d="M 191 3500 
L 800 3500 
L 1894 563 
L 2988 3500 
L 3597 3500 
L 2284 0 
L 1503 0 
L 191 3500 
z
" transform="scale(0.015625)"/>
      <path id="DejaVuSans-6c" d="M 603 4863 
L 1178 4863 
L 1178 0 
L 603 0 
L 603 4863 
z
" transform="scale(0.015625)"/>
      <path id="DejaVuSans-6d" d="M 3328 2828 
Q 3544 3216 3844 3400 
Q 4144 3584 4550 3584 
Q 5097 3584 5394 3201 
Q 5691 2819 5691 2113 
L 5691 0 
L 5113 0 
L 5113 2094 
Q 5113 2597 4934 2840 
Q 4756 3084 4391 3084 
Q 3944 3084 3684 2787 
Q 3425 2491 3425 1978 
L 3425 0 
L 2847 0 
L 2847 2094 
Q 2847 2600 2669 2842 
Q 2491 3084 2119 3084 
Q 1678 3084 1418 2786 
Q 1159 2488 1159 1978 
L 1159 0 
L 581 0 
L 581 3500 
L 1159 3500 
L 1159 2956 
Q 1356 3278 1631 3431 
Q 1906 3584 2284 3584 
Q 2666 3584 2933 3390 
Q 3200 3197 3328 2828 
z
" transform="scale(0.015625)"/>
      <path id="DejaVuSans-75" d="M 544 1381 
L 544 3500 
L 1119 3500 
L 1119 1403 
Q 1119 906 1312 657 
Q 1506 409 1894 409 
Q 2359 409 2629 706 
Q 2900 1003 2900 1516 
L 2900 3500 
L 3475 3500 
L 3475 0 
L 2900 0 
L 2900 538 
Q 2691 219 2414 64 
Q 2138 -91 1772 -91 
Q 1169 -91 856 284 
Q 544 659 544 1381 
z
M 1991 3584 
L 1991 3584 
z
" transform="scale(0.015625)"/>
     </defs>
     <use xlink:href="#DejaVuSans-4d"/>
     <use xlink:href="#DejaVuSans-65" transform="translate(86.279297 0)"/>
     <use xlink:href="#DejaVuSans-61" transform="translate(147.802734 0)"/>
     <use xlink:href="#DejaVuSans-6e" transform="translate(209.082031 0)"/>
     <use xlink:href="#DejaVuSans-20" transform="translate(272.460938 0)"/>
     <use xlink:href="#DejaVuSans-70" transform="translate(304.248047 0)"/>
     <use xlink:href="#DejaVuSans-72" transform="translate(367.724609 0)"/>
     <use xlink:href="#DejaVuSans-6f" transform="translate(406.587891 0)"/>
     <use xlink:href="#DejaVuSans-66" transform="translate(467.769531 0)"/>
     <use xlink:href="#DejaVuSans-69" transform="translate(502.974609 0)"/>
     <use xlink:href="#DejaVuSans-74" transform="translate(530.757812 0)"/>
     <use xlink:href="#DejaVuSans-20" transform="translate(569.966797 0)"/>
     <use xlink:href="#DejaVuSans-70" transform="translate(601.753906 0)"/>
     <use xlink:href="#DejaVuSans-65" transform="translate(665.230469 0)"/>
     <use xlink:href="#DejaVuSans-72" transform="translate(726.753906 0)"/>
     <use xlink:href="#DejaVuSans-20" transform="translate(767.867188 0)"/>
     <use xlink:href="#DejaVuSans-73" transform="translate(799.654297 0)"/>
     <use xlink:href="#DejaVuSans-74" transform="translate(851.753906 0)"/>
     <use xlink:href="#DejaVuSans-65" transform="translate(890.962891 0)"/>
     <use xlink:href="#DejaVuSans-70" transform="translate(952.486328 0)"/>
     <use xlink:href="#DejaVuSans-20" transform="translate(1015.962891 0)"/>
     <use xlink:href="#DejaVuSans-77" transform="translate(1047.75 0)"/>
     <use xlink:href="#DejaVuSans-69" transform="translate(1129.537109 0)"/>
     <use xlink:href="#DejaVuSans-74" transform="translate(1157.320312 0)"/>
     <use xlink:href="#DejaVuSans-68" transform="translate(1196.529297 0)"/>
     <use xlink:href="#DejaVuSans-20" transform="translate(1259.908203 0)"/>
     <use xlink:href="#DejaVuSans-63" transform="translate(1291.695312 0)"/>
     <use xlink:href="#DejaVuSans-6f" transform="translate(1346.675781 0)"/>
     <use xlink:href="#DejaVuSans-6e" transform="translate(1407.857422 0)"/>
     <use xlink:href="#DejaVuSans-66" transform="translate(1471.236328 0)"/>
     <use xlink:href="#DejaVuSans-69" transform="translate(1506.441406 0)"/>
     <use xlink:href="#DejaVuSans-64" transform="translate(1534.224609 0)"/>
     <use xlink:href="#DejaVuSans-65" transform="translate(1597.701172 0)"/>
     <use xlink:href="#DejaVuSans-6e" transform="translate(1659.224609 0)"/>
     <use xlink:href="#DejaVuSans-63" transform="translate(1722.603516 0)"/>
     <use xlink:href="#DejaVuSans-65" transform="translate(1777.583984 0)"/>
     <use xlink:href="#DejaVuSans-20" transform="translate(1839.107422 0)"/>
     <use xlink:href="#DejaVuSans-69" transform="translate(1870.894531 0)"/>
     <use xlink:href="#DejaVuSans-6e" transform="translate(1898.677734 0)"/>
     <use xlink:href="#DejaVuSans-74" transform="translate(1962.056641 0)"/>
     <use xlink:href="#DejaVuSans-65" transform="translate(2001.265625 0)"/>
     <use xlink:href="#DejaVuSans-72" transform="translate(2062.789062 0)"/>
     <use xlink:href="#DejaVuSans-76" transform="translate(2103.902344 0)"/>
     <use xlink:href="#DejaVuSans-61" transform="translate(2163.082031 0)"/>
     <use xlink:href="#DejaVuSans-6c" transform="translate(2224.361328 0)"/>
     <use xlink:href="#DejaVuSans-20" transform="translate(2252.144531 0)"/>
     <use xlink:href="#DejaVuSans-70" transform="translate(2283.931641 0)"/>
     <use xlink:href="#DejaVuSans-65" transform="translate(2347.408203 0)"/>
     <use xlink:href="#DejaVuSans-72" transform="translate(2408.931641 0)"/>
     <use xlink:href="#DejaVuSans-20" transform="translate(2450.044922 0)"/>
     <use xlink:href="#DejaVuSans-73" transform="translate(2481.832031 0)"/>
     <use xlink:href="#DejaVuSans-69" transform="translate(2533.931641 0)"/>
     <use xlink:href="#DejaVuSans-6d" transform="translate(2561.714844 0)"/>
     <use xlink:href="#DejaVuSans-75" transform="translate(2659.126953 0)"/>
     <use xlink:href="#DejaVuSans-6c" transform="translate(2722.505859 0)"/>
     <use xlink:href="#DejaVuSans-61" transform="translate(2750.289062 0)"/>
     <use xlink:href="#DejaVuSans-74" transform="translate(2811.568359 0)"/>
     <use xlink:href="#DejaVuSans-69" transform="translate(2850.777344 0)"/>
     <use xlink:href="#DejaVuSans-6f" transform="translate(2878.560547 0)"/>
     <use xlink:href="#DejaVuSans-6e" transform="translate(2939.742188 0)"/>
     <use xlink:href="#DejaVuSans-20" transform="translate(3003.121094 0)"/>
     <use xlink:href="#DejaVuSans-73" transform="translate(3034.908203 0)"/>
     <use xlink:href="#DejaVuSans-74" transform="translate(3087.007812 0)"/>
     <use xlink:href="#DejaVuSans-65" transform="translate(3126.216797 0)"/>
     <use xlink:href="#DejaVuSans-70" transform="translate(3187.740234 0)"/>
    </g>
    <!-- Base Product: Sour Diesel, Recipe size: 8, T0: 50.0 -->
    <g transform="translate(271.602531 37.44) scale(0.14 -0.14)">
     <defs>
      <path id="DejaVuSans-42" d="M 1259 2228 
L 1259 519 
L 2272 519 
Q 2781 519 3026 730 
Q 3272 941 3272 1375 
Q 3272 1813 3026 2020 
Q 2781 2228 2272 2228 
L 1259 2228 
z
M 1259 4147 
L 1259 2741 
L 2194 2741 
Q 2656 2741 2882 2914 
Q 3109 3088 3109 3444 
Q 3109 3797 2882 3972 
Q 2656 4147 2194 4147 
L 1259 4147 
z
M 628 4666 
L 2241 4666 
Q 2963 4666 3353 4366 
Q 3744 4066 3744 3513 
Q 3744 3084 3544 2831 
Q 3344 2578 2956 2516 
Q 3422 2416 3680 2098 
Q 3938 1781 3938 1306 
Q 3938 681 3513 340 
Q 3088 0 2303 0 
L 628 0 
L 628 4666 
z
" transform="scale(0.015625)"/>
      <path id="DejaVuSans-3a" d="M 750 794 
L 1409 794 
L 1409 0 
L 750 0 
L 750 794 
z
M 750 3309 
L 1409 3309 
L 1409 2516 
L 750 2516 
L 750 3309 
z
" transform="scale(0.015625)"/>
      <path id="DejaVuSans-44" d="M 1259 4147 
L 1259 519 
L 2022 519 
Q 2988 519 3436 956 
Q 3884 1394 3884 2338 
Q 3884 3275 3436 3711 
Q 2988 4147 2022 4147 
L 1259 4147 
z
M 628 4666 
L 1925 4666 
Q 3281 4666 3915 4102 
Q 4550 3538 4550 2338 
Q 4550 1131 3912 565 
Q 3275 0 1925 0 
L 628 0 
L 628 4666 
z
" transform="scale(0.015625)"/>
      <path id="DejaVuSans-2c" d="M 750 794 
L 1409 794 
L 1409 256 
L 897 -744 
L 494 -744 
L 750 256 
L 750 794 
z
" transform="scale(0.015625)"/>
      <path id="DejaVuSans-52" d="M 2841 2188 
Q 3044 2119 3236 1894 
Q 3428 1669 3622 1275 
L 4263 0 
L 3584 0 
L 2988 1197 
Q 2756 1666 2539 1819 
Q 2322 1972 1947 1972 
L 1259 1972 
L 1259 0 
L 628 0 
L 628 4666 
L 2053 4666 
Q 2853 4666 3247 4331 
Q 3641 3997 3641 3322 
Q 3641 2881 3436 2590 
Q 3231 2300 2841 2188 
z
M 1259 4147 
L 1259 2491 
L 2053 2491 
Q 2509 2491 2742 2702 
Q 2975 2913 2975 3322 
Q 2975 3731 2742 3939 
Q 2509 4147 2053 4147 
L 1259 4147 
z
" transform="scale(0.015625)"/>
      <path id="DejaVuSans-7a" d="M 353 3500 
L 3084 3500 
L 3084 2975 
L 922 459 
L 3084 459 
L 3084 0 
L 275 0 
L 275 525 
L 2438 3041 
L 353 3041 
L 353 3500 
z
" transform="scale(0.015625)"/>
      <path id="DejaVuSans-54" d="M -19 4666 
L 3928 4666 
L 3928 4134 
L 2272 4134 
L 2272 0 
L 1638 0 
L 1638 4134 
L -19 4134 
L -19 4666 
z
" transform="scale(0.015625)"/>
      <path id="DejaVuSans-2e" d="M 684 794 
L 1344 794 
L 1344 0 
L 684 0 
L 684 794 
z
" transform="scale(0.015625)"/>
     </defs>
     <use xlink:href="#DejaVuSans-42"/>
     <use xlink:href="#DejaVuSans-61" transform="translate(68.603516 0)"/>
     <use xlink:href="#DejaVuSans-73" transform="translate(129.882812 0)"/>
     <use xlink:href="#DejaVuSans-65" transform="translate(181.982422 0)"/>
     <use xlink:href="#DejaVuSans-20" transform="translate(243.505859 0)"/>
     <use xlink:href="#DejaVuSans-50" transform="translate(275.292969 0)"/>
     <use xlink:href="#DejaVuSans-72" transform="translate(333.845703 0)"/>
     <use xlink:href="#DejaVuSans-6f" transform="translate(372.708984 0)"/>
     <use xlink:href="#DejaVuSans-64" transform="translate(433.890625 0)"/>
     <use xlink:href="#DejaVuSans-75" transform="translate(497.367188 0)"/>
     <use xlink:href="#DejaVuSans-63" transform="translate(560.746094 0)"/>
     <use xlink:href="#DejaVuSans-74" transform="translate(615.726562 0)"/>
     <use xlink:href="#DejaVuSans-3a" transform="translate(654.935547 0)"/>
     <use xlink:href="#DejaVuSans-20" transform="translate(688.626953 0)"/>
     <use xlink:href="#DejaVuSans-53" transform="translate(720.414062 0)"/>
     <use xlink:href="#DejaVuSans-6f" transform="translate(783.890625 0)"/>
     <use xlink:href="#DejaVuSans-75" transform="translate(845.072266 0)"/>
     <use xlink:href="#DejaVuSans-72" transform="translate(908.451172 0)"/>
     <use xlink:href="#DejaVuSans-20" transform="translate(949.564453 0)"/>
     <use xlink:href="#DejaVuSans-44" transform="translate(981.351562 0)"/>
     <use xlink:href="#DejaVuSans-69" transform="translate(1058.353516 0)"/>
     <use xlink:href="#DejaVuSans-65" transform="translate(1086.136719 0)"/>
     <use xlink:href="#DejaVuSans-73" transform="translate(1147.660156 0)"/>
     <use xlink:href="#DejaVuSans-65" transform="translate(1199.759766 0)"/>
     <use xlink:href="#DejaVuSans-6c" transform="translate(1261.283203 0)"/>
     <use xlink:href="#DejaVuSans-2c" transform="translate(1289.066406 0)"/>
     <use xlink:href="#DejaVuSans-20" transform="translate(1320.853516 0)"/>
     <use xlink:href="#DejaVuSans-52" transform="translate(1352.640625 0)"/>
     <use xlink:href="#DejaVuSans-65" transform="translate(1417.623047 0)"/>
     <use xlink:href="#DejaVuSans-63" transform="translate(1479.146484 0)"/>
     <use xlink:href="#DejaVuSans-69" transform="translate(1534.126953 0)"/>
     <use xlink:href="#DejaVuSans-70" transform="translate(1561.910156 0)"/>
     <use xlink:href="#DejaVuSans-65" transform="translate(1625.386719 0)"/>
     <use xlink:href="#DejaVuSans-20" transform="translate(1686.910156 0)"/>
     <use xlink:href="#DejaVuSans-73" transform="translate(1718.697266 0)"/>
     <use xlink:href="#DejaVuSans-69" transform="translate(1770.796875 0)"/>
     <use xlink:href="#DejaVuSans-7a" transform="translate(1798.580078 0)"/>
     <use xlink:href="#DejaVuSans-65" transform="translate(1851.070312 0)"/>
     <use xlink:href="#DejaVuSans-3a" transform="translate(1912.59375 0)"/>
     <use xlink:href="#DejaVuSans-20" transform="translate(1946.285156 0)"/>
     <use xlink:href="#DejaVuSans-38" transform="translate(1978.072266 0)"/>
     <use xlink:href="#DejaVuSans-2c" transform="translate(2041.695312 0)"/>
     <use xlink:href="#DejaVuSans-20" transform="translate(2073.482422 0)"/>
     <use xlink:href="#DejaVuSans-54" transform="translate(2105.269531 0)"/>
     <use xlink:href="#DejaVuSans-30" transform="translate(2166.353516 0)"/>
     <use xlink:href="#DejaVuSans-3a" transform="translate(2229.976562 0)"/>
     <use xlink:href="#DejaVuSans-20" transform="translate(2263.667969 0)"/>
     <use xlink:href="#DejaVuSans-35" transform="translate(2295.455078 0)"/>
     <use xlink:href="#DejaVuSans-30" transform="translate(2359.078125 0)"/>
     <use xlink:href="#DejaVuSans-2e" transform="translate(2422.701172 0)"/>
     <use xlink:href="#DejaVuSans-30" transform="translate(2454.488281 0)"/>
    </g>
   </g>
  </g>
 </g>
 <defs>
  <clipPath id="p9adff17c45">
   <rect x="50.87" y="43.44" width="793.996" height="346.6"/>
  </clipPath>
 </defs>
</svg>
