<?xml version="1.0" encoding="utf-8" standalone="no"?>
<!DOCTYPE svg PUBLIC "-//W3C//DTD SVG 1.1//EN"
  "http://www.w3.org/Graphics/SVG/1.1/DTD/svg11.dtd">
<svg xmlns:xlink="http://www.w3.org/1999/xlink" width="864pt" height="432pt" viewBox="0 0 864 432" xmlns="http://www.w3.org/2000/svg" version="1.1">
 <metadata>
  <rdf:RDF xmlns:dc="http://purl.org/dc/elements/1.1/" xmlns:cc="http://creativecommons.org/ns#" xmlns:rdf="http://www.w3.org/1999/02/22-rdf-syntax-ns#">
   <cc:Work>
    <dc:type rdf:resource="http://purl.org/dc/dcmitype/StillImage"/>
    <dc:date>2025-05-24T02:05:31.647652</dc:date>
    <dc:format>image/svg+xml</dc:format>
    <dc:creator>
     <cc:Agent>
      <dc:title>Matplotlib v3.10.3, https://matplotlib.org/</dc:title>
     </cc:Agent>
    </dc:creator>
   </cc:Work>
  </rdf:RDF>
 </metadata>
 <defs>
  <style type="text/css">*{stroke-linejoin: round; stroke-linecap: butt}</style>
 </defs>
 <g id="figure_1">
  <g id="patch_1">
   <path d="M 0 432 
L 864 432 
L 864 0 
L 0 0 
z
" style="fill: #ffffff"/>
  </g>
  <g id="axes_1">
   <g id="patch_2">
    <path d="M 50.87 390.04 
L 844.866 390.04 
L 844.866 43.44 
L 50.87 43.44 
z
" style="fill: #ffffff"/>
   </g>
   <g id="FillBetweenPolyCollection_1">
    <defs>
     <path id="m87803b952d" d="M 52.193327 -326.013757 
L 52.193327 -57.714545 
L 54.83998 -57.888144 
L 57.486633 -61.156044 
L 60.133287 -65.406188 
L 62.77994 -68.190906 
L 65.426593 -73.515685 
L 68.073247 -76.776377 
L 70.7199 -78.531022 
L 73.366553 -80.676375 
L 76.013207 -83.127997 
L 78.65986 -86.173006 
L 81.306513 -86.589021 
L 83.953167 -90.472006 
L 86.59982 -91.458662 
L 89.246473 -91.659609 
L 91.893127 -93.217154 
L 94.53978 -94.885036 
L 97.186433 -96.315621 
L 99.833087 -96.915522 
L 102.47974 -100.011016 
L 105.126393 -99.705007 
L 107.773047 -101.668656 
L 110.4197 -102.732437 
L 113.066353 -102.518183 
L 115.713007 -102.748176 
L 118.35966 -102.848814 
L 121.006313 -105.292425 
L 123.652967 -104.422688 
L 126.29962 -105.961168 
L 128.946273 -105.351875 
L 131.592927 -105.833771 
L 134.23958 -107.002614 
L 136.886233 -106.349775 
L 139.532887 -107.698989 
L 142.17954 -108.142871 
L 144.826193 -108.653684 
L 147.472847 -109.609027 
L 150.1195 -109.958324 
L 152.766153 -110.435665 
L 155.412807 -110.399032 
L 158.05946 -111.705418 
L 160.706113 -112.050101 
L 163.352767 -110.318757 
L 165.99942 -112.340088 
L 168.646073 -113.837663 
L 171.292727 -114.732907 
L 173.93938 -114.471944 
L 176.586033 -114.002354 
L 179.232687 -115.156992 
L 181.87934 -115.004312 
L 184.525993 -115.295762 
L 187.172647 -115.638581 
L 189.8193 -115.829168 
L 192.465953 -117.148533 
L 195.112607 -118.286547 
L 197.75926 -117.573384 
L 200.405913 -117.845202 
L 203.052567 -117.939446 
L 205.69922 -118.006848 
L 208.345873 -118.173509 
L 210.992527 -118.584934 
L 213.63918 -118.943716 
L 216.285833 -118.57395 
L 218.932487 -119.802775 
L 221.57914 -119.325811 
L 224.225793 -119.67499 
L 226.872447 -119.722937 
L 229.5191 -119.851195 
L 232.165753 -120.229963 
L 234.812407 -120.799543 
L 237.45906 -120.368155 
L 240.105713 -120.903697 
L 242.752367 -120.767522 
L 245.39902 -121.328784 
L 248.045673 -120.390807 
L 250.692327 -121.793254 
L 253.33898 -122.616152 
L 255.985633 -122.075336 
L 258.632287 -123.355353 
L 261.27894 -122.469548 
L 263.925593 -121.427865 
L 266.572247 -122.059845 
L 269.2189 -121.339898 
L 271.865553 -121.391079 
L 274.512207 -122.822761 
L 277.15886 -123.594231 
L 279.805513 -124.178924 
L 282.452167 -124.131342 
L 285.09882 -125.412102 
L 287.745473 -124.349749 
L 290.392127 -124.167774 
L 293.03878 -125.162548 
L 295.685433 -124.493923 
L 298.332087 -124.913571 
L 300.97874 -125.484331 
L 303.625393 -125.16637 
L 306.272047 -125.290628 
L 308.9187 -126.408539 
L 311.565353 -125.973081 
L 314.212007 -125.630899 
L 316.85866 -126.360391 
L 319.505313 -126.875687 
L 322.151967 -126.966344 
L 324.79862 -126.422496 
L 327.445273 -125.398169 
L 330.091927 -125.509036 
L 332.73858 -126.108807 
L 335.385233 -126.205104 
L 338.031887 -127.206307 
L 340.67854 -127.139517 
L 343.325193 -127.84441 
L 345.971847 -127.313788 
L 348.6185 -126.156094 
L 351.265153 -126.382866 
L 353.911807 -128.404929 
L 356.55846 -128.665939 
L 359.205113 -129.450847 
L 361.851767 -129.726829 
L 364.49842 -129.725897 
L 367.145073 -128.526733 
L 369.791727 -129.303228 
L 372.43838 -128.785926 
L 375.085033 -129.329975 
L 377.731687 -129.018704 
L 380.37834 -129.077565 
L 383.024993 -127.85071 
L 385.671647 -127.935645 
L 388.3183 -128.844257 
L 390.964953 -128.126374 
L 393.611607 -129.051066 
L 396.25826 -129.726015 
L 398.904913 -130.847159 
L 401.551567 -132.27647 
L 404.19822 -130.705439 
L 406.844873 -131.620669 
L 409.491527 -131.740255 
L 412.13818 -131.93076 
L 414.784833 -131.816401 
L 417.431487 -131.647168 
L 420.07814 -132.390888 
L 422.724793 -131.751039 
L 425.371447 -131.944623 
L 428.0181 -131.169732 
L 430.664753 -130.970768 
L 433.311407 -131.265167 
L 435.95806 -131.19544 
L 438.604713 -132.143776 
L 441.251367 -132.311404 
L 443.89802 -133.431462 
L 446.544673 -134.227236 
L 449.191327 -133.435037 
L 451.83798 -133.215827 
L 454.484633 -133.104653 
L 457.131287 -134.034855 
L 459.77794 -134.122126 
L 462.424593 -133.420195 
L 465.071247 -134.499266 
L 467.7179 -134.335555 
L 470.364553 -134.577464 
L 473.011207 -133.595586 
L 475.65786 -132.205881 
L 478.304513 -132.57061 
L 480.951167 -133.66103 
L 483.59782 -132.538424 
L 486.244473 -132.710146 
L 488.891127 -134.17661 
L 491.53778 -134.615218 
L 494.184433 -135.337277 
L 496.831087 -135.4657 
L 499.47774 -135.399548 
L 502.124393 -135.725425 
L 504.771047 -136.810666 
L 507.4177 -136.327768 
L 510.064353 -135.37404 
L 512.711007 -136.088442 
L 515.35766 -135.816259 
L 518.004313 -136.197374 
L 520.650967 -135.832068 
L 523.29762 -134.906892 
L 525.944273 -135.197056 
L 528.590927 -135.385461 
L 531.23758 -135.306378 
L 533.884233 -134.210069 
L 536.530887 -135.963417 
L 539.17754 -136.747652 
L 541.824193 -136.91029 
L 544.470847 -136.704435 
L 547.1175 -138.143327 
L 549.764153 -138.057011 
L 552.410807 -136.495242 
L 555.05746 -137.326529 
L 557.704113 -136.702701 
L 560.350767 -135.842427 
L 562.99742 -135.416856 
L 565.644073 -135.500387 
L 568.290727 -136.502156 
L 570.93738 -137.248507 
L 573.584033 -136.525328 
L 576.230687 -135.785159 
L 578.87734 -136.416726 
L 581.523993 -136.503796 
L 584.170647 -135.372565 
L 586.8173 -135.083463 
L 589.463953 -135.821851 
L 592.110607 -135.965918 
L 594.75726 -134.725377 
L 597.403913 -136.360295 
L 600.050567 -137.26493 
L 602.69722 -137.543508 
L 605.343873 -138.425291 
L 607.990527 -137.561571 
L 610.63718 -137.763013 
L 613.283833 -137.716045 
L 615.930487 -136.895223 
L 618.57714 -136.860266 
L 621.223793 -136.425232 
L 623.870447 -136.315073 
L 626.5171 -136.90839 
L 629.163753 -136.373627 
L 631.810407 -137.042665 
L 634.45706 -137.569488 
L 637.103713 -137.351022 
L 639.750367 -137.751817 
L 642.39702 -138.400137 
L 645.043673 -138.023906 
L 647.690327 -138.167395 
L 650.33698 -138.024449 
L 652.983633 -138.338067 
L 655.630287 -138.34786 
L 658.27694 -137.307003 
L 660.923593 -138.149367 
L 663.570247 -138.209231 
L 666.2169 -138.625895 
L 668.863553 -138.870789 
L 671.510207 -139.357003 
L 674.15686 -139.201621 
L 676.803513 -139.871792 
L 679.450167 -139.298555 
L 682.09682 -139.927998 
L 684.743473 -139.41105 
L 687.390127 -139.689074 
L 690.03678 -139.787093 
L 692.683433 -139.26473 
L 695.330087 -139.079735 
L 697.97674 -139.002952 
L 700.623393 -139.361239 
L 703.270047 -138.727701 
L 705.9167 -138.544499 
L 708.563353 -138.168575 
L 711.210007 -137.847653 
L 713.85666 -138.440003 
L 716.503313 -138.773183 
L 719.149967 -137.962178 
L 721.79662 -138.706972 
L 724.443273 -138.757374 
L 727.089927 -139.831513 
L 729.73658 -140.303758 
L 732.383233 -140.311934 
L 735.029887 -139.378653 
L 737.67654 -140.240425 
L 740.323193 -141.20109 
L 742.969847 -141.0906 
L 745.6165 -140.392492 
L 748.263153 -139.988747 
L 750.909807 -139.503453 
L 753.55646 -139.406343 
L 756.203113 -140.286886 
L 758.849767 -140.279288 
L 761.49642 -139.436346 
L 764.143073 -140.246018 
L 766.789727 -140.09519 
L 769.43638 -140.754294 
L 772.083033 -140.502333 
L 774.729687 -140.230456 
L 777.37634 -141.612114 
L 780.022993 -140.975096 
L 782.669647 -141.274168 
L 785.3163 -141.117465 
L 787.962953 -141.361097 
L 790.609607 -141.044599 
L 793.25626 -141.188336 
L 795.902913 -140.9887 
L 798.549567 -141.435543 
L 801.19622 -140.75532 
L 803.842873 -140.839288 
L 806.489527 -140.433349 
L 809.13618 -140.268434 
L 811.782833 -140.112168 
L 814.429487 -140.900992 
L 817.07614 -141.11376 
L 819.722793 -140.529846 
L 822.369447 -141.019457 
L 825.0161 -141.53322 
L 827.662753 -141.144329 
L 830.309407 -141.350065 
L 832.95606 -141.715218 
L 835.602713 -142.503394 
L 838.249367 -142.836491 
L 840.89602 -142.975922 
L 843.542673 -143.289965 
L 843.542673 -372.377064 
L 843.542673 -372.377064 
L 840.89602 -372.293698 
L 838.249367 -372.278761 
L 835.602713 -372.022859 
L 832.95606 -372.392236 
L 830.309407 -372.07253 
L 827.662753 -371.966181 
L 825.0161 -371.676395 
L 822.369447 -372.001481 
L 819.722793 -372.283551 
L 817.07614 -372.316539 
L 814.429487 -372.471991 
L 811.782833 -372.372981 
L 809.13618 -372.66114 
L 806.489527 -372.196363 
L 803.842873 -371.756646 
L 801.19622 -371.942726 
L 798.549567 -371.593784 
L 795.902913 -371.540315 
L 793.25626 -371.01315 
L 790.609607 -370.958571 
L 787.962953 -370.862157 
L 785.3163 -371.057204 
L 782.669647 -370.644599 
L 780.022993 -371.336207 
L 777.37634 -370.905621 
L 774.729687 -371.401096 
L 772.083033 -370.783487 
L 769.43638 -370.18499 
L 766.789727 -370.202734 
L 764.143073 -369.637555 
L 761.49642 -370.34049 
L 758.849767 -369.811413 
L 756.203113 -369.646616 
L 753.55646 -370.228147 
L 750.909807 -370.442142 
L 748.263153 -370.024747 
L 745.6165 -370.589431 
L 742.969847 -369.766745 
L 740.323193 -370.599011 
L 737.67654 -370.598279 
L 735.029887 -371.173251 
L 732.383233 -370.902884 
L 729.73658 -370.663783 
L 727.089927 -370.839646 
L 724.443273 -371.769293 
L 721.79662 -371.619174 
L 719.149967 -372.389121 
L 716.503313 -372.159954 
L 713.85666 -372.353585 
L 711.210007 -372.805455 
L 708.563353 -372.584334 
L 705.9167 -371.566743 
L 703.270047 -370.954088 
L 700.623393 -370.905763 
L 697.97674 -371.305862 
L 695.330087 -371.46391 
L 692.683433 -371.016146 
L 690.03678 -370.636411 
L 687.390127 -370.186382 
L 684.743473 -370.452147 
L 682.09682 -369.740766 
L 679.450167 -370.33938 
L 676.803513 -370.131662 
L 674.15686 -370.74434 
L 671.510207 -371.314592 
L 668.863553 -371.2178 
L 666.2169 -371.205861 
L 663.570247 -371.326863 
L 660.923593 -370.977519 
L 658.27694 -371.328514 
L 655.630287 -370.890166 
L 652.983633 -370.658049 
L 650.33698 -370.490255 
L 647.690327 -370.251225 
L 645.043673 -370.371259 
L 642.39702 -370.220337 
L 639.750367 -370.772326 
L 637.103713 -371.041442 
L 634.45706 -371.061357 
L 631.810407 -370.939458 
L 629.163753 -371.006802 
L 626.5171 -370.193838 
L 623.870447 -370.201083 
L 621.223793 -370.544244 
L 618.57714 -370.420953 
L 615.930487 -370.131355 
L 613.283833 -369.111287 
L 610.63718 -368.71409 
L 607.990527 -369.15468 
L 605.343873 -368.778933 
L 602.69722 -368.465173 
L 600.050567 -369.315489 
L 597.403913 -370.515315 
L 594.75726 -371.703743 
L 592.110607 -370.56272 
L 589.463953 -370.896135 
L 586.8173 -371.208126 
L 584.170647 -370.69887 
L 581.523993 -369.861484 
L 578.87734 -369.858653 
L 576.230687 -370.262079 
L 573.584033 -369.374858 
L 570.93738 -368.383388 
L 568.290727 -369.507705 
L 565.644073 -370.050868 
L 562.99742 -369.978192 
L 560.350767 -369.922552 
L 557.704113 -369.327925 
L 555.05746 -368.785445 
L 552.410807 -368.954112 
L 549.764153 -368.261395 
L 547.1175 -367.679321 
L 544.470847 -368.379447 
L 541.824193 -368.335464 
L 539.17754 -368.105659 
L 536.530887 -368.234094 
L 533.884233 -369.695697 
L 531.23758 -368.554673 
L 528.590927 -368.24273 
L 525.944273 -368.174962 
L 523.29762 -368.555617 
L 520.650967 -367.391446 
L 518.004313 -367.04904 
L 515.35766 -367.920759 
L 512.711007 -367.619646 
L 510.064353 -368.171186 
L 507.4177 -367.119451 
L 504.771047 -366.705053 
L 502.124393 -367.239934 
L 499.47774 -367.237645 
L 496.831087 -368.032015 
L 494.184433 -368.357125 
L 491.53778 -368.536646 
L 488.891127 -368.187043 
L 486.244473 -369.213199 
L 483.59782 -369.208527 
L 480.951167 -368.789362 
L 478.304513 -369.182288 
L 475.65786 -369.488875 
L 473.011207 -368.521167 
L 470.364553 -367.630453 
L 467.7179 -367.884774 
L 465.071247 -367.462447 
L 462.424593 -367.872669 
L 459.77794 -367.76448 
L 457.131287 -367.395056 
L 454.484633 -368.06387 
L 451.83798 -367.788832 
L 449.191327 -367.679345 
L 446.544673 -367.228773 
L 443.89802 -367.709642 
L 441.251367 -368.072577 
L 438.604713 -368.272391 
L 435.95806 -368.833275 
L 433.311407 -368.178076 
L 430.664753 -367.87392 
L 428.0181 -367.524789 
L 425.371447 -366.649908 
L 422.724793 -366.69493 
L 420.07814 -366.401746 
L 417.431487 -366.974122 
L 414.784833 -367.109423 
L 412.13818 -366.746299 
L 409.491527 -366.642523 
L 406.844873 -367.136913 
L 404.19822 -367.696641 
L 401.551567 -366.213967 
L 398.904913 -366.454861 
L 396.25826 -367.92989 
L 393.611607 -368.008844 
L 390.964953 -368.294359 
L 388.3183 -367.210604 
L 385.671647 -367.243379 
L 383.024993 -367.882721 
L 380.37834 -366.399906 
L 377.731687 -366.72091 
L 375.085033 -366.442992 
L 372.43838 -366.169157 
L 369.791727 -365.959457 
L 367.145073 -366.341009 
L 364.49842 -365.967763 
L 361.851767 -366.25611 
L 359.205113 -366.356819 
L 356.55846 -366.474753 
L 353.911807 -365.925289 
L 351.265153 -367.505157 
L 348.6185 -367.211147 
L 345.971847 -365.959504 
L 343.325193 -366.008254 
L 340.67854 -366.933536 
L 338.031887 -367.129315 
L 335.385233 -367.112491 
L 332.73858 -366.120431 
L 330.091927 -366.683816 
L 327.445273 -366.715955 
L 324.79862 -365.697632 
L 322.151967 -365.709289 
L 319.505313 -365.618773 
L 316.85866 -365.43812 
L 314.212007 -365.249349 
L 311.565353 -364.856896 
L 308.9187 -364.235793 
L 306.272047 -364.665294 
L 303.625393 -364.279824 
L 300.97874 -363.508862 
L 298.332087 -363.880244 
L 295.685433 -363.443335 
L 293.03878 -362.758004 
L 290.392127 -363.293546 
L 287.745473 -363.904313 
L 285.09882 -363.006001 
L 282.452167 -363.639562 
L 279.805513 -363.588452 
L 277.15886 -363.045076 
L 274.512207 -362.686059 
L 271.865553 -363.668231 
L 269.2189 -364.170573 
L 266.572247 -363.116078 
L 263.925593 -363.820026 
L 261.27894 -363.292555 
L 258.632287 -362.247993 
L 255.985633 -362.974995 
L 253.33898 -362.810883 
L 250.692327 -363.666532 
L 248.045673 -364.012667 
L 245.39902 -363.090075 
L 242.752367 -363.025704 
L 240.105713 -363.203408 
L 237.45906 -362.954231 
L 234.812407 -361.861061 
L 232.165753 -361.821136 
L 229.5191 -361.580548 
L 226.872447 -361.98631 
L 224.225793 -361.623304 
L 221.57914 -361.757567 
L 218.932487 -361.458932 
L 216.285833 -362.146576 
L 213.63918 -361.533379 
L 210.992527 -361.152228 
L 208.345873 -361.131935 
L 205.69922 -361.501052 
L 203.052567 -361.99084 
L 200.405913 -361.74827 
L 197.75926 -361.239558 
L 195.112607 -360.028477 
L 192.465953 -360.195208 
L 189.8193 -361.242743 
L 187.172647 -360.844319 
L 184.525993 -361.222261 
L 181.87934 -361.219217 
L 179.232687 -360.664728 
L 176.586033 -361.02594 
L 173.93938 -359.969628 
L 171.292727 -359.356147 
L 168.646073 -359.564833 
L 165.99942 -359.688312 
L 163.352767 -360.290018 
L 160.706113 -359.267095 
L 158.05946 -358.064697 
L 155.412807 -358.706376 
L 152.766153 -358.24318 
L 150.1195 -357.349965 
L 147.472847 -357.039862 
L 144.826193 -357.145385 
L 142.17954 -356.82608 
L 139.532887 -356.75942 
L 136.886233 -356.24344 
L 134.23958 -356.111985 
L 131.592927 -355.928854 
L 128.946273 -354.971504 
L 126.29962 -353.483167 
L 123.652967 -353.80167 
L 121.006313 -351.842822 
L 118.35966 -353.137434 
L 115.713007 -351.937727 
L 113.066353 -351.212919 
L 110.4197 -350.478413 
L 107.773047 -349.989238 
L 105.126393 -350.449602 
L 102.47974 -349.029528 
L 99.833087 -350.83349 
L 97.186433 -349.434913 
L 94.53978 -348.208943 
L 91.893127 -348.689411 
L 89.246473 -347.226865 
L 86.59982 -345.701788 
L 83.953167 -344.355005 
L 81.306513 -345.064098 
L 78.65986 -342.962586 
L 76.013207 -342.700903 
L 73.366553 -341.530385 
L 70.7199 -338.723061 
L 68.073247 -336.08379 
L 65.426593 -334.432614 
L 62.77994 -333.62529 
L 60.133287 -329.062873 
L 57.486633 -327.659671 
L 54.83998 -326.356163 
L 52.193327 -326.013757 
z
" style="stroke: #0000ff; stroke-opacity: 0.2"/>
    </defs>
    <g clip-path="url(#pfa3deb3272)">
     <use xlink:href="#m87803b952d" x="0" y="432" style="fill: #0000ff; fill-opacity: 0.2; stroke: #0000ff; stroke-opacity: 0.2"/>
    </g>
   </g>
   <g id="matplotlib.axis_1">
    <g id="xtick_1">
     <g id="line2d_1">
      <defs>
       <path id="m6deb903c00" d="M 0 0 
L 0 3.5 
" style="stroke: #000000; stroke-width: 0.8"/>
      </defs>
      <g>
       <use xlink:href="#m6deb903c00" x="181.87934" y="390.04" style="stroke: #000000; stroke-width: 0.8"/>
      </g>
     </g>
     <g id="text_1">
      <!-- 50 -->
      <g transform="translate(175.51684 404.638438) scale(0.1 -0.1)">
       <defs>
        <path id="DejaVuSans-35" d="M 691 4666 
L 3169 4666 
L 3169 4134 
L 1269 4134 
L 1269 2991 
Q 1406 3038 1543 3061 
Q 1681 3084 1819 3084 
Q 2600 3084 3056 2656 
Q 3513 2228 3513 1497 
Q 3513 744 3044 326 
Q 2575 -91 1722 -91 
Q 1428 -91 1123 -41 
Q 819 9 494 109 
L 494 744 
Q 775 591 1075 516 
Q 1375 441 1709 441 
Q 2250 441 2565 725 
Q 2881 1009 2881 1497 
Q 2881 1984 2565 2268 
Q 2250 2553 1709 2553 
Q 1456 2553 1204 2497 
Q 953 2441 691 2322 
L 691 4666 
z
" transform="scale(0.015625)"/>
        <path id="DejaVuSans-30" d="M 2034 4250 
Q 1547 4250 1301 3770 
Q 1056 3291 1056 2328 
Q 1056 1369 1301 889 
Q 1547 409 2034 409 
Q 2525 409 2770 889 
Q 3016 1369 3016 2328 
Q 3016 3291 2770 3770 
Q 2525 4250 2034 4250 
z
M 2034 4750 
Q 2819 4750 3233 4129 
Q 3647 3509 3647 2328 
Q 3647 1150 3233 529 
Q 2819 -91 2034 -91 
Q 1250 -91 836 529 
Q 422 1150 422 2328 
Q 422 3509 836 4129 
Q 1250 4750 2034 4750 
z
" transform="scale(0.015625)"/>
       </defs>
       <use xlink:href="#DejaVuSans-35"/>
       <use xlink:href="#DejaVuSans-30" transform="translate(63.623047 0)"/>
      </g>
     </g>
    </g>
    <g id="xtick_2">
     <g id="line2d_2">
      <g>
       <use xlink:href="#m6deb903c00" x="314.212007" y="390.04" style="stroke: #000000; stroke-width: 0.8"/>
      </g>
     </g>
     <g id="text_2">
      <!-- 100 -->
      <g transform="translate(304.668257 404.638438) scale(0.1 -0.1)">
       <defs>
        <path id="DejaVuSans-31" d="M 794 531 
L 1825 531 
L 1825 4091 
L 703 3866 
L 703 4441 
L 1819 4666 
L 2450 4666 
L 2450 531 
L 3481 531 
L 3481 0 
L 794 0 
L 794 531 
z
" transform="scale(0.015625)"/>
       </defs>
       <use xlink:href="#DejaVuSans-31"/>
       <use xlink:href="#DejaVuSans-30" transform="translate(63.623047 0)"/>
       <use xlink:href="#DejaVuSans-30" transform="translate(127.246094 0)"/>
      </g>
     </g>
    </g>
    <g id="xtick_3">
     <g id="line2d_3">
      <g>
       <use xlink:href="#m6deb903c00" x="446.544673" y="390.04" style="stroke: #000000; stroke-width: 0.8"/>
      </g>
     </g>
     <g id="text_3">
      <!-- 150 -->
      <g transform="translate(437.000923 404.638438) scale(0.1 -0.1)">
       <use xlink:href="#DejaVuSans-31"/>
       <use xlink:href="#DejaVuSans-35" transform="translate(63.623047 0)"/>
       <use xlink:href="#DejaVuSans-30" transform="translate(127.246094 0)"/>
      </g>
     </g>
    </g>
    <g id="xtick_4">
     <g id="line2d_4">
      <g>
       <use xlink:href="#m6deb903c00" x="578.87734" y="390.04" style="stroke: #000000; stroke-width: 0.8"/>
      </g>
     </g>
     <g id="text_4">
      <!-- 200 -->
      <g transform="translate(569.33359 404.638438) scale(0.1 -0.1)">
       <defs>
        <path id="DejaVuSans-32" d="M 1228 531 
L 3431 531 
L 3431 0 
L 469 0 
L 469 531 
Q 828 903 1448 1529 
Q 2069 2156 2228 2338 
Q 2531 2678 2651 2914 
Q 2772 3150 2772 3378 
Q 2772 3750 2511 3984 
Q 2250 4219 1831 4219 
Q 1534 4219 1204 4116 
Q 875 4013 500 3803 
L 500 4441 
Q 881 4594 1212 4672 
Q 1544 4750 1819 4750 
Q 2544 4750 2975 4387 
Q 3406 4025 3406 3419 
Q 3406 3131 3298 2873 
Q 3191 2616 2906 2266 
Q 2828 2175 2409 1742 
Q 1991 1309 1228 531 
z
" transform="scale(0.015625)"/>
       </defs>
       <use xlink:href="#DejaVuSans-32"/>
       <use xlink:href="#DejaVuSans-30" transform="translate(63.623047 0)"/>
       <use xlink:href="#DejaVuSans-30" transform="translate(127.246094 0)"/>
      </g>
     </g>
    </g>
    <g id="xtick_5">
     <g id="line2d_5">
      <g>
       <use xlink:href="#m6deb903c00" x="711.210007" y="390.04" style="stroke: #000000; stroke-width: 0.8"/>
      </g>
     </g>
     <g id="text_5">
      <!-- 250 -->
      <g transform="translate(701.666257 404.638438) scale(0.1 -0.1)">
       <use xlink:href="#DejaVuSans-32"/>
       <use xlink:href="#DejaVuSans-35" transform="translate(63.623047 0)"/>
       <use xlink:href="#DejaVuSans-30" transform="translate(127.246094 0)"/>
      </g>
     </g>
    </g>
    <g id="xtick_6">
     <g id="line2d_6">
      <g>
       <use xlink:href="#m6deb903c00" x="843.542673" y="390.04" style="stroke: #000000; stroke-width: 0.8"/>
      </g>
     </g>
     <g id="text_6">
      <!-- 300 -->
      <g transform="translate(833.998923 404.638438) scale(0.1 -0.1)">
       <defs>
        <path id="DejaVuSans-33" d="M 2597 2516 
Q 3050 2419 3304 2112 
Q 3559 1806 3559 1356 
Q 3559 666 3084 287 
Q 2609 -91 1734 -91 
Q 1441 -91 1130 -33 
Q 819 25 488 141 
L 488 750 
Q 750 597 1062 519 
Q 1375 441 1716 441 
Q 2309 441 2620 675 
Q 2931 909 2931 1356 
Q 2931 1769 2642 2001 
Q 2353 2234 1838 2234 
L 1294 2234 
L 1294 2753 
L 1863 2753 
Q 2328 2753 2575 2939 
Q 2822 3125 2822 3475 
Q 2822 3834 2567 4026 
Q 2313 4219 1838 4219 
Q 1578 4219 1281 4162 
Q 984 4106 628 3988 
L 628 4550 
Q 988 4650 1302 4700 
Q 1616 4750 1894 4750 
Q 2613 4750 3031 4423 
Q 3450 4097 3450 3541 
Q 3450 3153 3228 2886 
Q 3006 2619 2597 2516 
z
" transform="scale(0.015625)"/>
       </defs>
       <use xlink:href="#DejaVuSans-33"/>
       <use xlink:href="#DejaVuSans-30" transform="translate(63.623047 0)"/>
       <use xlink:href="#DejaVuSans-30" transform="translate(127.246094 0)"/>
      </g>
     </g>
    </g>
    <g id="text_7">
     <!-- Step -->
     <g transform="translate(436.482844 418.316562) scale(0.1 -0.1)">
      <defs>
       <path id="DejaVuSans-53" d="M 3425 4513 
L 3425 3897 
Q 3066 4069 2747 4153 
Q 2428 4238 2131 4238 
Q 1616 4238 1336 4038 
Q 1056 3838 1056 3469 
Q 1056 3159 1242 3001 
Q 1428 2844 1947 2747 
L 2328 2669 
Q 3034 2534 3370 2195 
Q 3706 1856 3706 1288 
Q 3706 609 3251 259 
Q 2797 -91 1919 -91 
Q 1588 -91 1214 -16 
Q 841 59 441 206 
L 441 856 
Q 825 641 1194 531 
Q 1563 422 1919 422 
Q 2459 422 2753 634 
Q 3047 847 3047 1241 
Q 3047 1584 2836 1778 
Q 2625 1972 2144 2069 
L 1759 2144 
Q 1053 2284 737 2584 
Q 422 2884 422 3419 
Q 422 4038 858 4394 
Q 1294 4750 2059 4750 
Q 2388 4750 2728 4690 
Q 3069 4631 3425 4513 
z
" transform="scale(0.015625)"/>
       <path id="DejaVuSans-74" d="M 1172 4494 
L 1172 3500 
L 2356 3500 
L 2356 3053 
L 1172 3053 
L 1172 1153 
Q 1172 725 1289 603 
Q 1406 481 1766 481 
L 2356 481 
L 2356 0 
L 1766 0 
Q 1100 0 847 248 
Q 594 497 594 1153 
L 594 3053 
L 172 3053 
L 172 3500 
L 594 3500 
L 594 4494 
L 1172 4494 
z
" transform="scale(0.015625)"/>
       <path id="DejaVuSans-65" d="M 3597 1894 
L 3597 1613 
L 953 1613 
Q 991 1019 1311 708 
Q 1631 397 2203 397 
Q 2534 397 2845 478 
Q 3156 559 3463 722 
L 3463 178 
Q 3153 47 2828 -22 
Q 2503 -91 2169 -91 
Q 1331 -91 842 396 
Q 353 884 353 1716 
Q 353 2575 817 3079 
Q 1281 3584 2069 3584 
Q 2775 3584 3186 3129 
Q 3597 2675 3597 1894 
z
M 3022 2063 
Q 3016 2534 2758 2815 
Q 2500 3097 2075 3097 
Q 1594 3097 1305 2825 
Q 1016 2553 972 2059 
L 3022 2063 
z
" transform="scale(0.015625)"/>
       <path id="DejaVuSans-70" d="M 1159 525 
L 1159 -1331 
L 581 -1331 
L 581 3500 
L 1159 3500 
L 1159 2969 
Q 1341 3281 1617 3432 
Q 1894 3584 2278 3584 
Q 2916 3584 3314 3078 
Q 3713 2572 3713 1747 
Q 3713 922 3314 415 
Q 2916 -91 2278 -91 
Q 1894 -91 1617 61 
Q 1341 213 1159 525 
z
M 3116 1747 
Q 3116 2381 2855 2742 
Q 2594 3103 2138 3103 
Q 1681 3103 1420 2742 
Q 1159 2381 1159 1747 
Q 1159 1113 1420 752 
Q 1681 391 2138 391 
Q 2594 391 2855 752 
Q 3116 1113 3116 1747 
z
" transform="scale(0.015625)"/>
      </defs>
      <use xlink:href="#DejaVuSans-53"/>
      <use xlink:href="#DejaVuSans-74" transform="translate(63.476562 0)"/>
      <use xlink:href="#DejaVuSans-65" transform="translate(102.685547 0)"/>
      <use xlink:href="#DejaVuSans-70" transform="translate(164.208984 0)"/>
     </g>
    </g>
   </g>
   <g id="matplotlib.axis_2">
    <g id="ytick_1">
     <g id="line2d_7">
      <defs>
       <path id="mde977a5b7a" d="M 0 0 
L -3.5 0 
" style="stroke: #000000; stroke-width: 0.8"/>
      </defs>
      <g>
       <use xlink:href="#mde977a5b7a" x="50.87" y="380.02764" style="stroke: #000000; stroke-width: 0.8"/>
      </g>
     </g>
     <g id="text_8">
      <!-- 20 -->
      <g transform="translate(31.145 383.826859) scale(0.1 -0.1)">
       <use xlink:href="#DejaVuSans-32"/>
       <use xlink:href="#DejaVuSans-30" transform="translate(63.623047 0)"/>
      </g>
     </g>
    </g>
    <g id="ytick_2">
     <g id="line2d_8">
      <g>
       <use xlink:href="#mde977a5b7a" x="50.87" y="318.171327" style="stroke: #000000; stroke-width: 0.8"/>
      </g>
     </g>
     <g id="text_9">
      <!-- 40 -->
      <g transform="translate(31.145 321.970546) scale(0.1 -0.1)">
       <defs>
        <path id="DejaVuSans-34" d="M 2419 4116 
L 825 1625 
L 2419 1625 
L 2419 4116 
z
M 2253 4666 
L 3047 4666 
L 3047 1625 
L 3713 1625 
L 3713 1100 
L 3047 1100 
L 3047 0 
L 2419 0 
L 2419 1100 
L 313 1100 
L 313 1709 
L 2253 4666 
z
" transform="scale(0.015625)"/>
       </defs>
       <use xlink:href="#DejaVuSans-34"/>
       <use xlink:href="#DejaVuSans-30" transform="translate(63.623047 0)"/>
      </g>
     </g>
    </g>
    <g id="ytick_3">
     <g id="line2d_9">
      <g>
       <use xlink:href="#mde977a5b7a" x="50.87" y="256.315013" style="stroke: #000000; stroke-width: 0.8"/>
      </g>
     </g>
     <g id="text_10">
      <!-- 60 -->
      <g transform="translate(31.145 260.114232) scale(0.1 -0.1)">
       <defs>
        <path id="DejaVuSans-36" d="M 2113 2584 
Q 1688 2584 1439 2293 
Q 1191 2003 1191 1497 
Q 1191 994 1439 701 
Q 1688 409 2113 409 
Q 2538 409 2786 701 
Q 3034 994 3034 1497 
Q 3034 2003 2786 2293 
Q 2538 2584 2113 2584 
z
M 3366 4563 
L 3366 3988 
Q 3128 4100 2886 4159 
Q 2644 4219 2406 4219 
Q 1781 4219 1451 3797 
Q 1122 3375 1075 2522 
Q 1259 2794 1537 2939 
Q 1816 3084 2150 3084 
Q 2853 3084 3261 2657 
Q 3669 2231 3669 1497 
Q 3669 778 3244 343 
Q 2819 -91 2113 -91 
Q 1303 -91 875 529 
Q 447 1150 447 2328 
Q 447 3434 972 4092 
Q 1497 4750 2381 4750 
Q 2619 4750 2861 4703 
Q 3103 4656 3366 4563 
z
" transform="scale(0.015625)"/>
       </defs>
       <use xlink:href="#DejaVuSans-36"/>
       <use xlink:href="#DejaVuSans-30" transform="translate(63.623047 0)"/>
      </g>
     </g>
    </g>
    <g id="ytick_4">
     <g id="line2d_10">
      <g>
       <use xlink:href="#mde977a5b7a" x="50.87" y="194.4587" style="stroke: #000000; stroke-width: 0.8"/>
      </g>
     </g>
     <g id="text_11">
      <!-- 80 -->
      <g transform="translate(31.145 198.257918) scale(0.1 -0.1)">
       <defs>
        <path id="DejaVuSans-38" d="M 2034 2216 
Q 1584 2216 1326 1975 
Q 1069 1734 1069 1313 
Q 1069 891 1326 650 
Q 1584 409 2034 409 
Q 2484 409 2743 651 
Q 3003 894 3003 1313 
Q 3003 1734 2745 1975 
Q 2488 2216 2034 2216 
z
M 1403 2484 
Q 997 2584 770 2862 
Q 544 3141 544 3541 
Q 544 4100 942 4425 
Q 1341 4750 2034 4750 
Q 2731 4750 3128 4425 
Q 3525 4100 3525 3541 
Q 3525 3141 3298 2862 
Q 3072 2584 2669 2484 
Q 3125 2378 3379 2068 
Q 3634 1759 3634 1313 
Q 3634 634 3220 271 
Q 2806 -91 2034 -91 
Q 1263 -91 848 271 
Q 434 634 434 1313 
Q 434 1759 690 2068 
Q 947 2378 1403 2484 
z
M 1172 3481 
Q 1172 3119 1398 2916 
Q 1625 2713 2034 2713 
Q 2441 2713 2670 2916 
Q 2900 3119 2900 3481 
Q 2900 3844 2670 4047 
Q 2441 4250 2034 4250 
Q 1625 4250 1398 4047 
Q 1172 3844 1172 3481 
z
" transform="scale(0.015625)"/>
       </defs>
       <use xlink:href="#DejaVuSans-38"/>
       <use xlink:href="#DejaVuSans-30" transform="translate(63.623047 0)"/>
      </g>
     </g>
    </g>
    <g id="ytick_5">
     <g id="line2d_11">
      <g>
       <use xlink:href="#mde977a5b7a" x="50.87" y="132.602386" style="stroke: #000000; stroke-width: 0.8"/>
      </g>
     </g>
     <g id="text_12">
      <!-- 100 -->
      <g transform="translate(24.7825 136.401605) scale(0.1 -0.1)">
       <use xlink:href="#DejaVuSans-31"/>
       <use xlink:href="#DejaVuSans-30" transform="translate(63.623047 0)"/>
       <use xlink:href="#DejaVuSans-30" transform="translate(127.246094 0)"/>
      </g>
     </g>
    </g>
    <g id="ytick_6">
     <g id="line2d_12">
      <g>
       <use xlink:href="#mde977a5b7a" x="50.87" y="70.746072" style="stroke: #000000; stroke-width: 0.8"/>
      </g>
     </g>
     <g id="text_13">
      <!-- 120 -->
      <g transform="translate(24.7825 74.545291) scale(0.1 -0.1)">
       <use xlink:href="#DejaVuSans-31"/>
       <use xlink:href="#DejaVuSans-32" transform="translate(63.623047 0)"/>
       <use xlink:href="#DejaVuSans-30" transform="translate(127.246094 0)"/>
      </g>
     </g>
    </g>
    <g id="text_14">
     <!-- Profit -->
     <g transform="translate(18.702813 229.779063) rotate(-90) scale(0.1 -0.1)">
      <defs>
       <path id="DejaVuSans-50" d="M 1259 4147 
L 1259 2394 
L 2053 2394 
Q 2494 2394 2734 2622 
Q 2975 2850 2975 3272 
Q 2975 3691 2734 3919 
Q 2494 4147 2053 4147 
L 1259 4147 
z
M 628 4666 
L 2053 4666 
Q 2838 4666 3239 4311 
Q 3641 3956 3641 3272 
Q 3641 2581 3239 2228 
Q 2838 1875 2053 1875 
L 1259 1875 
L 1259 0 
L 628 0 
L 628 4666 
z
" transform="scale(0.015625)"/>
       <path id="DejaVuSans-72" d="M 2631 2963 
Q 2534 3019 2420 3045 
Q 2306 3072 2169 3072 
Q 1681 3072 1420 2755 
Q 1159 2438 1159 1844 
L 1159 0 
L 581 0 
L 581 3500 
L 1159 3500 
L 1159 2956 
Q 1341 3275 1631 3429 
Q 1922 3584 2338 3584 
Q 2397 3584 2469 3576 
Q 2541 3569 2628 3553 
L 2631 2963 
z
" transform="scale(0.015625)"/>
       <path id="DejaVuSans-6f" d="M 1959 3097 
Q 1497 3097 1228 2736 
Q 959 2375 959 1747 
Q 959 1119 1226 758 
Q 1494 397 1959 397 
Q 2419 397 2687 759 
Q 2956 1122 2956 1747 
Q 2956 2369 2687 2733 
Q 2419 3097 1959 3097 
z
M 1959 3584 
Q 2709 3584 3137 3096 
Q 3566 2609 3566 1747 
Q 3566 888 3137 398 
Q 2709 -91 1959 -91 
Q 1206 -91 779 398 
Q 353 888 353 1747 
Q 353 2609 779 3096 
Q 1206 3584 1959 3584 
z
" transform="scale(0.015625)"/>
       <path id="DejaVuSans-66" d="M 2375 4863 
L 2375 4384 
L 1825 4384 
Q 1516 4384 1395 4259 
Q 1275 4134 1275 3809 
L 1275 3500 
L 2222 3500 
L 2222 3053 
L 1275 3053 
L 1275 0 
L 697 0 
L 697 3053 
L 147 3053 
L 147 3500 
L 697 3500 
L 697 3744 
Q 697 4328 969 4595 
Q 1241 4863 1831 4863 
L 2375 4863 
z
" transform="scale(0.015625)"/>
       <path id="DejaVuSans-69" d="M 603 3500 
L 1178 3500 
L 1178 0 
L 603 0 
L 603 3500 
z
M 603 4863 
L 1178 4863 
L 1178 4134 
L 603 4134 
L 603 4863 
z
" transform="scale(0.015625)"/>
      </defs>
      <use xlink:href="#DejaVuSans-50"/>
      <use xlink:href="#DejaVuSans-72" transform="translate(58.552734 0)"/>
      <use xlink:href="#DejaVuSans-6f" transform="translate(97.416016 0)"/>
      <use xlink:href="#DejaVuSans-66" transform="translate(158.597656 0)"/>
      <use xlink:href="#DejaVuSans-69" transform="translate(193.802734 0)"/>
      <use xlink:href="#DejaVuSans-74" transform="translate(221.585938 0)"/>
     </g>
    </g>
   </g>
   <g id="line2d_13">
    <path d="M 52.193327 240.135849 
L 54.83998 239.877847 
L 57.486633 237.592143 
L 60.133287 234.76547 
L 62.77994 231.091902 
L 65.426593 228.025844 
L 68.073247 225.569917 
L 70.7199 223.372958 
L 73.366553 220.89662 
L 76.013207 219.085556 
L 78.65986 217.43221 
L 81.306513 216.173441 
L 83.953167 214.586494 
L 86.59982 213.419775 
L 89.246473 212.556763 
L 91.893127 211.046717 
L 94.53978 210.453011 
L 97.186433 209.124727 
L 99.833087 208.125494 
L 107.773047 206.171059 
L 110.4197 205.394575 
L 113.066353 205.134449 
L 115.713007 204.657049 
L 121.006313 203.432377 
L 128.946273 201.838304 
L 134.23958 200.4427 
L 136.886233 200.703393 
L 139.532887 199.770796 
L 142.17954 199.515531 
L 150.1195 198.345861 
L 152.766153 197.660577 
L 155.412807 197.44729 
L 158.05946 197.114936 
L 160.706113 196.341402 
L 163.352767 196.695606 
L 168.646073 195.298752 
L 171.292727 194.955473 
L 173.93938 194.779208 
L 181.87934 193.888235 
L 184.525993 193.740994 
L 187.172647 193.75855 
L 189.8193 193.464044 
L 192.465953 193.32813 
L 195.112607 192.842494 
L 197.75926 192.593529 
L 200.405913 192.20327 
L 203.052567 192.034863 
L 208.345873 192.347278 
L 210.992527 192.131419 
L 213.63918 191.761452 
L 216.285833 191.639743 
L 218.932487 191.36914 
L 221.57914 191.458311 
L 226.872447 191.145376 
L 229.5191 191.284123 
L 240.105713 189.946448 
L 242.752367 190.103387 
L 245.39902 189.790571 
L 248.045673 189.798263 
L 250.692327 189.270107 
L 253.33898 189.286483 
L 255.985633 189.474828 
L 258.632287 189.198327 
L 261.27894 189.118949 
L 263.925593 189.376054 
L 266.572247 189.412039 
L 269.2189 189.244764 
L 271.865553 189.470345 
L 274.512207 189.24559 
L 279.805513 188.116318 
L 282.452167 188.114548 
L 285.09882 187.790948 
L 287.745473 187.872969 
L 290.392127 188.26934 
L 293.03878 188.039724 
L 295.685433 188.031371 
L 298.332087 187.603098 
L 300.97874 187.503404 
L 306.272047 187.022039 
L 308.9187 186.67784 
L 314.212007 186.559882 
L 319.505313 185.75277 
L 322.151967 185.662184 
L 324.79862 185.939936 
L 332.73858 185.885381 
L 338.031887 184.832183 
L 343.325193 185.073668 
L 345.971847 185.36336 
L 348.6185 185.31638 
L 356.55846 184.429654 
L 359.205113 184.096167 
L 361.851767 184.008531 
L 364.49842 184.153176 
L 367.145073 184.566135 
L 369.791727 184.368657 
L 372.43838 184.522458 
L 375.085033 184.113511 
L 377.731687 184.130193 
L 380.37834 184.261271 
L 383.024993 184.133284 
L 385.671647 184.410494 
L 388.3183 183.97257 
L 390.964953 183.789628 
L 396.25826 183.172041 
L 398.904913 183.34899 
L 401.551567 182.754788 
L 404.19822 182.79896 
L 406.844873 182.621209 
L 409.491527 182.808611 
L 414.784833 182.537088 
L 417.431487 182.689355 
L 420.07814 182.603677 
L 422.724793 182.777015 
L 430.664753 182.57765 
L 435.95806 181.985642 
L 438.604713 181.791917 
L 441.251367 181.808009 
L 443.89802 181.429454 
L 446.544673 181.271996 
L 449.191327 181.442809 
L 451.83798 181.497671 
L 457.131287 181.285044 
L 459.77794 181.056703 
L 462.424593 181.353568 
L 465.071247 181.019137 
L 467.7179 180.88983 
L 473.011207 180.941624 
L 475.65786 181.152622 
L 478.304513 181.123551 
L 480.951167 180.774798 
L 483.59782 181.126524 
L 486.244473 181.038321 
L 488.891127 180.818168 
L 491.53778 180.424062 
L 494.184433 180.152799 
L 496.831087 180.251148 
L 499.47774 180.681403 
L 507.4177 180.276396 
L 515.35766 180.131491 
L 518.004313 180.376799 
L 520.650967 180.388243 
L 523.29762 180.268751 
L 525.944273 180.313985 
L 531.23758 180.06948 
L 533.884233 180.047111 
L 536.530887 179.901239 
L 539.17754 179.573344 
L 541.824193 179.377117 
L 544.470847 179.458053 
L 547.1175 179.088676 
L 549.764153 178.840797 
L 552.410807 179.275323 
L 555.05746 178.944007 
L 560.350767 179.117511 
L 562.99742 179.302482 
L 565.644073 179.224378 
L 568.290727 178.995069 
L 570.93738 179.184052 
L 578.87734 178.862317 
L 581.523993 178.817366 
L 584.170647 178.964276 
L 592.110607 178.735675 
L 594.75726 178.78544 
L 597.403913 178.562195 
L 600.050567 178.70979 
L 602.69722 178.995659 
L 605.343873 178.397894 
L 607.990527 178.64188 
L 610.63718 178.761442 
L 615.930487 178.486711 
L 618.57714 178.359385 
L 623.870447 178.741928 
L 626.5171 178.448886 
L 629.163753 178.309785 
L 634.45706 177.684578 
L 637.103713 177.803763 
L 642.39702 177.689769 
L 645.043673 177.802418 
L 650.33698 177.742648 
L 652.983633 177.501942 
L 655.630287 177.380987 
L 658.27694 177.682242 
L 663.570247 177.231953 
L 668.863553 176.955711 
L 671.510207 176.664202 
L 674.15686 177.027019 
L 676.803513 176.998279 
L 679.450167 177.181032 
L 687.390127 177.062272 
L 690.03678 176.788248 
L 692.683433 176.859556 
L 695.330087 176.728172 
L 703.270047 177.159111 
L 708.563353 176.623546 
L 711.210007 176.673452 
L 716.503313 176.533432 
L 719.149967 176.82435 
L 721.79662 176.836927 
L 732.383233 176.392585 
L 735.029887 176.724043 
L 737.67654 176.580648 
L 740.323193 176.099944 
L 742.969847 176.571327 
L 745.6165 176.509033 
L 748.263153 176.993253 
L 750.909807 177.027208 
L 753.55646 177.182755 
L 758.849767 176.954649 
L 761.49642 177.111588 
L 764.143073 177.058213 
L 766.789727 176.851038 
L 769.43638 176.530364 
L 774.729687 176.18423 
L 777.37634 175.741138 
L 782.669647 176.040623 
L 787.962953 175.888379 
L 790.609607 175.998409 
L 795.902913 175.735499 
L 798.549567 175.485331 
L 801.19622 175.650977 
L 806.489527 175.685144 
L 809.13618 175.535213 
L 811.782833 175.75742 
L 814.429487 175.313502 
L 817.07614 175.284856 
L 819.722793 175.593307 
L 825.0161 175.395193 
L 827.662753 175.444745 
L 830.309407 175.288703 
L 832.95606 174.946273 
L 843.542673 174.166486 
L 843.542673 174.166486 
" clip-path="url(#pfa3deb3272)" style="fill: none; stroke: #0000ff; stroke-width: 1.5; stroke-linecap: square"/>
   </g>
   <g id="patch_3">
    <path d="M 50.87 390.04 
L 50.87 43.44 
" style="fill: none; stroke: #000000; stroke-width: 0.8; stroke-linejoin: miter; stroke-linecap: square"/>
   </g>
   <g id="patch_4">
    <path d="M 844.866 390.04 
L 844.866 43.44 
" style="fill: none; stroke: #000000; stroke-width: 0.8; stroke-linejoin: miter; stroke-linecap: square"/>
   </g>
   <g id="patch_5">
    <path d="M 50.87 390.04 
L 844.866 390.04 
" style="fill: none; stroke: #000000; stroke-width: 0.8; stroke-linejoin: miter; stroke-linecap: square"/>
   </g>
   <g id="patch_6">
    <path d="M 50.87 43.44 
L 844.866 43.44 
" style="fill: none; stroke: #000000; stroke-width: 0.8; stroke-linejoin: miter; stroke-linecap: square"/>
   </g>
   <g id="text_15">
    <!-- Mean profit per step with confidence interval per simulation step -->
    <g transform="translate(220.284875 21.763062) scale(0.14 -0.14)">
     <defs>
      <path id="DejaVuSans-4d" d="M 628 4666 
L 1569 4666 
L 2759 1491 
L 3956 4666 
L 4897 4666 
L 4897 0 
L 4281 0 
L 4281 4097 
L 3078 897 
L 2444 897 
L 1241 4097 
L 1241 0 
L 628 0 
L 628 4666 
z
" transform="scale(0.015625)"/>
      <path id="DejaVuSans-61" d="M 2194 1759 
Q 1497 1759 1228 1600 
Q 959 1441 959 1056 
Q 959 750 1161 570 
Q 1363 391 1709 391 
Q 2188 391 2477 730 
Q 2766 1069 2766 1631 
L 2766 1759 
L 2194 1759 
z
M 3341 1997 
L 3341 0 
L 2766 0 
L 2766 531 
Q 2569 213 2275 61 
Q 1981 -91 1556 -91 
Q 1019 -91 701 211 
Q 384 513 384 1019 
Q 384 1609 779 1909 
Q 1175 2209 1959 2209 
L 2766 2209 
L 2766 2266 
Q 2766 2663 2505 2880 
Q 2244 3097 1772 3097 
Q 1472 3097 1187 3025 
Q 903 2953 641 2809 
L 641 3341 
Q 956 3463 1253 3523 
Q 1550 3584 1831 3584 
Q 2591 3584 2966 3190 
Q 3341 2797 3341 1997 
z
" transform="scale(0.015625)"/>
      <path id="DejaVuSans-6e" d="M 3513 2113 
L 3513 0 
L 2938 0 
L 2938 2094 
Q 2938 2591 2744 2837 
Q 2550 3084 2163 3084 
Q 1697 3084 1428 2787 
Q 1159 2491 1159 1978 
L 1159 0 
L 581 0 
L 581 3500 
L 1159 3500 
L 1159 2956 
Q 1366 3272 1645 3428 
Q 1925 3584 2291 3584 
Q 2894 3584 3203 3211 
Q 3513 2838 3513 2113 
z
" transform="scale(0.015625)"/>
      <path id="DejaVuSans-20" transform="scale(0.015625)"/>
      <path id="DejaVuSans-73" d="M 2834 3397 
L 2834 2853 
Q 2591 2978 2328 3040 
Q 2066 3103 1784 3103 
Q 1356 3103 1142 2972 
Q 928 2841 928 2578 
Q 928 2378 1081 2264 
Q 1234 2150 1697 2047 
L 1894 2003 
Q 2506 1872 2764 1633 
Q 3022 1394 3022 966 
Q 3022 478 2636 193 
Q 2250 -91 1575 -91 
Q 1294 -91 989 -36 
Q 684 19 347 128 
L 347 722 
Q 666 556 975 473 
Q 1284 391 1588 391 
Q 1994 391 2212 530 
Q 2431 669 2431 922 
Q 2431 1156 2273 1281 
Q 2116 1406 1581 1522 
L 1381 1569 
Q 847 1681 609 1914 
Q 372 2147 372 2553 
Q 372 3047 722 3315 
Q 1072 3584 1716 3584 
Q 2034 3584 2315 3537 
Q 2597 3491 2834 3397 
z
" transform="scale(0.015625)"/>
      <path id="DejaVuSans-77" d="M 269 3500 
L 844 3500 
L 1563 769 
L 2278 3500 
L 2956 3500 
L 3675 769 
L 4391 3500 
L 4966 3500 
L 4050 0 
L 3372 0 
L 2619 2869 
L 1863 0 
L 1184 0 
L 269 3500 
z
" transform="scale(0.015625)"/>
      <path id="DejaVuSans-68" d="M 3513 2113 
L 3513 0 
L 2938 0 
L 2938 2094 
Q 2938 2591 2744 2837 
Q 2550 3084 2163 3084 
Q 1697 3084 1428 2787 
Q 1159 2491 1159 1978 
L 1159 0 
L 581 0 
L 581 4863 
L 1159 4863 
L 1159 2956 
Q 1366 3272 1645 3428 
Q 1925 3584 2291 3584 
Q 2894 3584 3203 3211 
Q 3513 2838 3513 2113 
z
" transform="scale(0.015625)"/>
      <path id="DejaVuSans-63" d="M 3122 3366 
L 3122 2828 
Q 2878 2963 2633 3030 
Q 2388 3097 2138 3097 
Q 1578 3097 1268 2742 
Q 959 2388 959 1747 
Q 959 1106 1268 751 
Q 1578 397 2138 397 
Q 2388 397 2633 464 
Q 2878 531 3122 666 
L 3122 134 
Q 2881 22 2623 -34 
Q 2366 -91 2075 -91 
Q 1284 -91 818 406 
Q 353 903 353 1747 
Q 353 2603 823 3093 
Q 1294 3584 2113 3584 
Q 2378 3584 2631 3529 
Q 2884 3475 3122 3366 
z
" transform="scale(0.015625)"/>
      <path id="DejaVuSans-64" d="M 2906 2969 
L 2906 4863 
L 3481 4863 
L 3481 0 
L 2906 0 
L 2906 525 
Q 2725 213 2448 61 
Q 2172 -91 1784 -91 
Q 1150 -91 751 415 
Q 353 922 353 1747 
Q 353 2572 751 3078 
Q 1150 3584 1784 3584 
Q 2172 3584 2448 3432 
Q 2725 3281 2906 2969 
z
M 947 1747 
Q 947 1113 1208 752 
Q 1469 391 1925 391 
Q 2381 391 2643 752 
Q 2906 1113 2906 1747 
Q 2906 2381 2643 2742 
Q 2381 3103 1925 3103 
Q 1469 3103 1208 2742 
Q 947 2381 947 1747 
z
" transform="scale(0.015625)"/>
      <path id="DejaVuSans-76" d="M 191 3500 
L 800 3500 
L 1894 563 
L 2988 3500 
L 3597 3500 
L 2284 0 
L 1503 0 
L 191 3500 
z
" transform="scale(0.015625)"/>
      <path id="DejaVuSans-6c" d="M 603 4863 
L 1178 4863 
L 1178 0 
L 603 0 
L 603 4863 
z
" transform="scale(0.015625)"/>
      <path id="DejaVuSans-6d" d="M 3328 2828 
Q 3544 3216 3844 3400 
Q 4144 3584 4550 3584 
Q 5097 3584 5394 3201 
Q 5691 2819 5691 2113 
L 5691 0 
L 5113 0 
L 5113 2094 
Q 5113 2597 4934 2840 
Q 4756 3084 4391 3084 
Q 3944 3084 3684 2787 
Q 3425 2491 3425 1978 
L 3425 0 
L 2847 0 
L 2847 2094 
Q 2847 2600 2669 2842 
Q 2491 3084 2119 3084 
Q 1678 3084 1418 2786 
Q 1159 2488 1159 1978 
L 1159 0 
L 581 0 
L 581 3500 
L 1159 3500 
L 1159 2956 
Q 1356 3278 1631 3431 
Q 1906 3584 2284 3584 
Q 2666 3584 2933 3390 
Q 3200 3197 3328 2828 
z
" transform="scale(0.015625)"/>
      <path id="DejaVuSans-75" d="M 544 1381 
L 544 3500 
L 1119 3500 
L 1119 1403 
Q 1119 906 1312 657 
Q 1506 409 1894 409 
Q 2359 409 2629 706 
Q 2900 1003 2900 1516 
L 2900 3500 
L 3475 3500 
L 3475 0 
L 2900 0 
L 2900 538 
Q 2691 219 2414 64 
Q 2138 -91 1772 -91 
Q 1169 -91 856 284 
Q 544 659 544 1381 
z
M 1991 3584 
L 1991 3584 
z
" transform="scale(0.015625)"/>
     </defs>
     <use xlink:href="#DejaVuSans-4d"/>
     <use xlink:href="#DejaVuSans-65" transform="translate(86.279297 0)"/>
     <use xlink:href="#DejaVuSans-61" transform="translate(147.802734 0)"/>
     <use xlink:href="#DejaVuSans-6e" transform="translate(209.082031 0)"/>
     <use xlink:href="#DejaVuSans-20" transform="translate(272.460938 0)"/>
     <use xlink:href="#DejaVuSans-70" transform="translate(304.248047 0)"/>
     <use xlink:href="#DejaVuSans-72" transform="translate(367.724609 0)"/>
     <use xlink:href="#DejaVuSans-6f" transform="translate(406.587891 0)"/>
     <use xlink:href="#DejaVuSans-66" transform="translate(467.769531 0)"/>
     <use xlink:href="#DejaVuSans-69" transform="translate(502.974609 0)"/>
     <use xlink:href="#DejaVuSans-74" transform="translate(530.757812 0)"/>
     <use xlink:href="#DejaVuSans-20" transform="translate(569.966797 0)"/>
     <use xlink:href="#DejaVuSans-70" transform="translate(601.753906 0)"/>
     <use xlink:href="#DejaVuSans-65" transform="translate(665.230469 0)"/>
     <use xlink:href="#DejaVuSans-72" transform="translate(726.753906 0)"/>
     <use xlink:href="#DejaVuSans-20" transform="translate(767.867188 0)"/>
     <use xlink:href="#DejaVuSans-73" transform="translate(799.654297 0)"/>
     <use xlink:href="#DejaVuSans-74" transform="translate(851.753906 0)"/>
     <use xlink:href="#DejaVuSans-65" transform="translate(890.962891 0)"/>
     <use xlink:href="#DejaVuSans-70" transform="translate(952.486328 0)"/>
     <use xlink:href="#DejaVuSans-20" transform="translate(1015.962891 0)"/>
     <use xlink:href="#DejaVuSans-77" transform="translate(1047.75 0)"/>
     <use xlink:href="#DejaVuSans-69" transform="translate(1129.537109 0)"/>
     <use xlink:href="#DejaVuSans-74" transform="translate(1157.320312 0)"/>
     <use xlink:href="#DejaVuSans-68" transform="translate(1196.529297 0)"/>
     <use xlink:href="#DejaVuSans-20" transform="translate(1259.908203 0)"/>
     <use xlink:href="#DejaVuSans-63" transform="translate(1291.695312 0)"/>
     <use xlink:href="#DejaVuSans-6f" transform="translate(1346.675781 0)"/>
     <use xlink:href="#DejaVuSans-6e" transform="translate(1407.857422 0)"/>
     <use xlink:href="#DejaVuSans-66" transform="translate(1471.236328 0)"/>
     <use xlink:href="#DejaVuSans-69" transform="translate(1506.441406 0)"/>
     <use xlink:href="#DejaVuSans-64" transform="translate(1534.224609 0)"/>
     <use xlink:href="#DejaVuSans-65" transform="translate(1597.701172 0)"/>
     <use xlink:href="#DejaVuSans-6e" transform="translate(1659.224609 0)"/>
     <use xlink:href="#DejaVuSans-63" transform="translate(1722.603516 0)"/>
     <use xlink:href="#DejaVuSans-65" transform="translate(1777.583984 0)"/>
     <use xlink:href="#DejaVuSans-20" transform="translate(1839.107422 0)"/>
     <use xlink:href="#DejaVuSans-69" transform="translate(1870.894531 0)"/>
     <use xlink:href="#DejaVuSans-6e" transform="translate(1898.677734 0)"/>
     <use xlink:href="#DejaVuSans-74" transform="translate(1962.056641 0)"/>
     <use xlink:href="#DejaVuSans-65" transform="translate(2001.265625 0)"/>
     <use xlink:href="#DejaVuSans-72" transform="translate(2062.789062 0)"/>
     <use xlink:href="#DejaVuSans-76" transform="translate(2103.902344 0)"/>
     <use xlink:href="#DejaVuSans-61" transform="translate(2163.082031 0)"/>
     <use xlink:href="#DejaVuSans-6c" transform="translate(2224.361328 0)"/>
     <use xlink:href="#DejaVuSans-20" transform="translate(2252.144531 0)"/>
     <use xlink:href="#DejaVuSans-70" transform="translate(2283.931641 0)"/>
     <use xlink:href="#DejaVuSans-65" transform="translate(2347.408203 0)"/>
     <use xlink:href="#DejaVuSans-72" transform="translate(2408.931641 0)"/>
     <use xlink:href="#DejaVuSans-20" transform="translate(2450.044922 0)"/>
     <use xlink:href="#DejaVuSans-73" transform="translate(2481.832031 0)"/>
     <use xlink:href="#DejaVuSans-69" transform="translate(2533.931641 0)"/>
     <use xlink:href="#DejaVuSans-6d" transform="translate(2561.714844 0)"/>
     <use xlink:href="#DejaVuSans-75" transform="translate(2659.126953 0)"/>
     <use xlink:href="#DejaVuSans-6c" transform="translate(2722.505859 0)"/>
     <use xlink:href="#DejaVuSans-61" transform="translate(2750.289062 0)"/>
     <use xlink:href="#DejaVuSans-74" transform="translate(2811.568359 0)"/>
     <use xlink:href="#DejaVuSans-69" transform="translate(2850.777344 0)"/>
     <use xlink:href="#DejaVuSans-6f" transform="translate(2878.560547 0)"/>
     <use xlink:href="#DejaVuSans-6e" transform="translate(2939.742188 0)"/>
     <use xlink:href="#DejaVuSans-20" transform="translate(3003.121094 0)"/>
     <use xlink:href="#DejaVuSans-73" transform="translate(3034.908203 0)"/>
     <use xlink:href="#DejaVuSans-74" transform="translate(3087.007812 0)"/>
     <use xlink:href="#DejaVuSans-65" transform="translate(3126.216797 0)"/>
     <use xlink:href="#DejaVuSans-70" transform="translate(3187.740234 0)"/>
    </g>
    <!-- Base Product: Sour Diesel, Recipe size: 7, T0: 50.0 -->
    <g transform="translate(271.602531 37.44) scale(0.14 -0.14)">
     <defs>
      <path id="DejaVuSans-42" d="M 1259 2228 
L 1259 519 
L 2272 519 
Q 2781 519 3026 730 
Q 3272 941 3272 1375 
Q 3272 1813 3026 2020 
Q 2781 2228 2272 2228 
L 1259 2228 
z
M 1259 4147 
L 1259 2741 
L 2194 2741 
Q 2656 2741 2882 2914 
Q 3109 3088 3109 3444 
Q 3109 3797 2882 3972 
Q 2656 4147 2194 4147 
L 1259 4147 
z
M 628 4666 
L 2241 4666 
Q 2963 4666 3353 4366 
Q 3744 4066 3744 3513 
Q 3744 3084 3544 2831 
Q 3344 2578 2956 2516 
Q 3422 2416 3680 2098 
Q 3938 1781 3938 1306 
Q 3938 681 3513 340 
Q 3088 0 2303 0 
L 628 0 
L 628 4666 
z
" transform="scale(0.015625)"/>
      <path id="DejaVuSans-3a" d="M 750 794 
L 1409 794 
L 1409 0 
L 750 0 
L 750 794 
z
M 750 3309 
L 1409 3309 
L 1409 2516 
L 750 2516 
L 750 3309 
z
" transform="scale(0.015625)"/>
      <path id="DejaVuSans-44" d="M 1259 4147 
L 1259 519 
L 2022 519 
Q 2988 519 3436 956 
Q 3884 1394 3884 2338 
Q 3884 3275 3436 3711 
Q 2988 4147 2022 4147 
L 1259 4147 
z
M 628 4666 
L 1925 4666 
Q 3281 4666 3915 4102 
Q 4550 3538 4550 2338 
Q 4550 1131 3912 565 
Q 3275 0 1925 0 
L 628 0 
L 628 4666 
z
" transform="scale(0.015625)"/>
      <path id="DejaVuSans-2c" d="M 750 794 
L 1409 794 
L 1409 256 
L 897 -744 
L 494 -744 
L 750 256 
L 750 794 
z
" transform="scale(0.015625)"/>
      <path id="DejaVuSans-52" d="M 2841 2188 
Q 3044 2119 3236 1894 
Q 3428 1669 3622 1275 
L 4263 0 
L 3584 0 
L 2988 1197 
Q 2756 1666 2539 1819 
Q 2322 1972 1947 1972 
L 1259 1972 
L 1259 0 
L 628 0 
L 628 4666 
L 2053 4666 
Q 2853 4666 3247 4331 
Q 3641 3997 3641 3322 
Q 3641 2881 3436 2590 
Q 3231 2300 2841 2188 
z
M 1259 4147 
L 1259 2491 
L 2053 2491 
Q 2509 2491 2742 2702 
Q 2975 2913 2975 3322 
Q 2975 3731 2742 3939 
Q 2509 4147 2053 4147 
L 1259 4147 
z
" transform="scale(0.015625)"/>
      <path id="DejaVuSans-7a" d="M 353 3500 
L 3084 3500 
L 3084 2975 
L 922 459 
L 3084 459 
L 3084 0 
L 275 0 
L 275 525 
L 2438 3041 
L 353 3041 
L 353 3500 
z
" transform="scale(0.015625)"/>
      <path id="DejaVuSans-37" d="M 525 4666 
L 3525 4666 
L 3525 4397 
L 1831 0 
L 1172 0 
L 2766 4134 
L 525 4134 
L 525 4666 
z
" transform="scale(0.015625)"/>
      <path id="DejaVuSans-54" d="M -19 4666 
L 3928 4666 
L 3928 4134 
L 2272 4134 
L 2272 0 
L 1638 0 
L 1638 4134 
L -19 4134 
L -19 4666 
z
" transform="scale(0.015625)"/>
      <path id="DejaVuSans-2e" d="M 684 794 
L 1344 794 
L 1344 0 
L 684 0 
L 684 794 
z
" transform="scale(0.015625)"/>
     </defs>
     <use xlink:href="#DejaVuSans-42"/>
     <use xlink:href="#DejaVuSans-61" transform="translate(68.603516 0)"/>
     <use xlink:href="#DejaVuSans-73" transform="translate(129.882812 0)"/>
     <use xlink:href="#DejaVuSans-65" transform="translate(181.982422 0)"/>
     <use xlink:href="#DejaVuSans-20" transform="translate(243.505859 0)"/>
     <use xlink:href="#DejaVuSans-50" transform="translate(275.292969 0)"/>
     <use xlink:href="#DejaVuSans-72" transform="translate(333.845703 0)"/>
     <use xlink:href="#DejaVuSans-6f" transform="translate(372.708984 0)"/>
     <use xlink:href="#DejaVuSans-64" transform="translate(433.890625 0)"/>
     <use xlink:href="#DejaVuSans-75" transform="translate(497.367188 0)"/>
     <use xlink:href="#DejaVuSans-63" transform="translate(560.746094 0)"/>
     <use xlink:href="#DejaVuSans-74" transform="translate(615.726562 0)"/>
     <use xlink:href="#DejaVuSans-3a" transform="translate(654.935547 0)"/>
     <use xlink:href="#DejaVuSans-20" transform="translate(688.626953 0)"/>
     <use xlink:href="#DejaVuSans-53" transform="translate(720.414062 0)"/>
     <use xlink:href="#DejaVuSans-6f" transform="translate(783.890625 0)"/>
     <use xlink:href="#DejaVuSans-75" transform="translate(845.072266 0)"/>
     <use xlink:href="#DejaVuSans-72" transform="translate(908.451172 0)"/>
     <use xlink:href="#DejaVuSans-20" transform="translate(949.564453 0)"/>
     <use xlink:href="#DejaVuSans-44" transform="translate(981.351562 0)"/>
     <use xlink:href="#DejaVuSans-69" transform="translate(1058.353516 0)"/>
     <use xlink:href="#DejaVuSans-65" transform="translate(1086.136719 0)"/>
     <use xlink:href="#DejaVuSans-73" transform="translate(1147.660156 0)"/>
     <use xlink:href="#DejaVuSans-65" transform="translate(1199.759766 0)"/>
     <use xlink:href="#DejaVuSans-6c" transform="translate(1261.283203 0)"/>
     <use xlink:href="#DejaVuSans-2c" transform="translate(1289.066406 0)"/>
     <use xlink:href="#DejaVuSans-20" transform="translate(1320.853516 0)"/>
     <use xlink:href="#DejaVuSans-52" transform="translate(1352.640625 0)"/>
     <use xlink:href="#DejaVuSans-65" transform="translate(1417.623047 0)"/>
     <use xlink:href="#DejaVuSans-63" transform="translate(1479.146484 0)"/>
     <use xlink:href="#DejaVuSans-69" transform="translate(1534.126953 0)"/>
     <use xlink:href="#DejaVuSans-70" transform="translate(1561.910156 0)"/>
     <use xlink:href="#DejaVuSans-65" transform="translate(1625.386719 0)"/>
     <use xlink:href="#DejaVuSans-20" transform="translate(1686.910156 0)"/>
     <use xlink:href="#DejaVuSans-73" transform="translate(1718.697266 0)"/>
     <use xlink:href="#DejaVuSans-69" transform="translate(1770.796875 0)"/>
     <use xlink:href="#DejaVuSans-7a" transform="translate(1798.580078 0)"/>
     <use xlink:href="#DejaVuSans-65" transform="translate(1851.070312 0)"/>
     <use xlink:href="#DejaVuSans-3a" transform="translate(1912.59375 0)"/>
     <use xlink:href="#DejaVuSans-20" transform="translate(1946.285156 0)"/>
     <use xlink:href="#DejaVuSans-37" transform="translate(1978.072266 0)"/>
     <use xlink:href="#DejaVuSans-2c" transform="translate(2041.695312 0)"/>
     <use xlink:href="#DejaVuSans-20" transform="translate(2073.482422 0)"/>
     <use xlink:href="#DejaVuSans-54" transform="translate(2105.269531 0)"/>
     <use xlink:href="#DejaVuSans-30" transform="translate(2166.353516 0)"/>
     <use xlink:href="#DejaVuSans-3a" transform="translate(2229.976562 0)"/>
     <use xlink:href="#DejaVuSans-20" transform="translate(2263.667969 0)"/>
     <use xlink:href="#DejaVuSans-35" transform="translate(2295.455078 0)"/>
     <use xlink:href="#DejaVuSans-30" transform="translate(2359.078125 0)"/>
     <use xlink:href="#DejaVuSans-2e" transform="translate(2422.701172 0)"/>
     <use xlink:href="#DejaVuSans-30" transform="translate(2454.488281 0)"/>
    </g>
   </g>
  </g>
 </g>
 <defs>
  <clipPath id="pfa3deb3272">
   <rect x="50.87" y="43.44" width="793.996" height="346.6"/>
  </clipPath>
 </defs>
</svg>
