<?xml version="1.0" encoding="utf-8" standalone="no"?>
<!DOCTYPE svg PUBLIC "-//W3C//DTD SVG 1.1//EN"
  "http://www.w3.org/Graphics/SVG/1.1/DTD/svg11.dtd">
<svg xmlns:xlink="http://www.w3.org/1999/xlink" width="864pt" height="432pt" viewBox="0 0 864 432" xmlns="http://www.w3.org/2000/svg" version="1.1">
 <metadata>
  <rdf:RDF xmlns:dc="http://purl.org/dc/elements/1.1/" xmlns:cc="http://creativecommons.org/ns#" xmlns:rdf="http://www.w3.org/1999/02/22-rdf-syntax-ns#">
   <cc:Work>
    <dc:type rdf:resource="http://purl.org/dc/dcmitype/StillImage"/>
    <dc:date>2025-05-24T02:07:29.230414</dc:date>
    <dc:format>image/svg+xml</dc:format>
    <dc:creator>
     <cc:Agent>
      <dc:title>Matplotlib v3.10.3, https://matplotlib.org/</dc:title>
     </cc:Agent>
    </dc:creator>
   </cc:Work>
  </rdf:RDF>
 </metadata>
 <defs>
  <style type="text/css">*{stroke-linejoin: round; stroke-linecap: butt}</style>
 </defs>
 <g id="figure_1">
  <g id="patch_1">
   <path d="M 0 432 
L 864 432 
L 864 0 
L 0 0 
z
" style="fill: #ffffff"/>
  </g>
  <g id="axes_1">
   <g id="patch_2">
    <path d="M 50.87 390.04 
L 844.866 390.04 
L 844.866 43.44 
L 50.87 43.44 
z
" style="fill: #ffffff"/>
   </g>
   <g id="FillBetweenPolyCollection_1">
    <defs>
     <path id="m52b85e2b19" d="M 52.193327 -335.005139 
L 52.193327 -57.714545 
L 54.83998 -59.028495 
L 57.486633 -62.859802 
L 60.133287 -66.768075 
L 62.77994 -70.761799 
L 65.426593 -74.060374 
L 68.073247 -77.551799 
L 70.7199 -79.685872 
L 73.366553 -81.768046 
L 76.013207 -86.220534 
L 78.65986 -87.50683 
L 81.306513 -89.22287 
L 83.953167 -90.177962 
L 86.59982 -92.520635 
L 89.246473 -95.563352 
L 91.893127 -97.881622 
L 94.53978 -97.867009 
L 97.186433 -98.790495 
L 99.833087 -101.625532 
L 102.47974 -103.120161 
L 105.126393 -104.64943 
L 107.773047 -106.040334 
L 110.4197 -107.205271 
L 113.066353 -106.400993 
L 115.713007 -107.761753 
L 118.35966 -107.172734 
L 121.006313 -108.172232 
L 123.652967 -109.217416 
L 126.29962 -109.624764 
L 128.946273 -109.378624 
L 131.592927 -109.656443 
L 134.23958 -110.769214 
L 136.886233 -111.668104 
L 139.532887 -112.307693 
L 142.17954 -112.643139 
L 144.826193 -111.491836 
L 147.472847 -112.8313 
L 150.1195 -113.882927 
L 152.766153 -114.751758 
L 155.412807 -115.157402 
L 158.05946 -116.062747 
L 160.706113 -116.1547 
L 163.352767 -115.659254 
L 165.99942 -116.617755 
L 168.646073 -117.078501 
L 171.292727 -117.543296 
L 173.93938 -119.092773 
L 176.586033 -119.29516 
L 179.232687 -120.467264 
L 181.87934 -119.635538 
L 184.525993 -120.648089 
L 187.172647 -120.998981 
L 189.8193 -121.865685 
L 192.465953 -123.216547 
L 195.112607 -121.859485 
L 197.75926 -122.496801 
L 200.405913 -121.821244 
L 203.052567 -122.733369 
L 205.69922 -122.227009 
L 208.345873 -122.579823 
L 210.992527 -122.390308 
L 213.63918 -123.053985 
L 216.285833 -124.380239 
L 218.932487 -124.61434 
L 221.57914 -125.025762 
L 224.225793 -124.621193 
L 226.872447 -124.544964 
L 229.5191 -124.679571 
L 232.165753 -124.283269 
L 234.812407 -123.751359 
L 237.45906 -124.680501 
L 240.105713 -125.275793 
L 242.752367 -125.290152 
L 245.39902 -126.240832 
L 248.045673 -125.533778 
L 250.692327 -125.467895 
L 253.33898 -125.924011 
L 255.985633 -126.261923 
L 258.632287 -126.60357 
L 261.27894 -127.512359 
L 263.925593 -128.524076 
L 266.572247 -127.214828 
L 269.2189 -128.352691 
L 271.865553 -128.657425 
L 274.512207 -130.43345 
L 277.15886 -129.460362 
L 279.805513 -128.744266 
L 282.452167 -129.607937 
L 285.09882 -129.265577 
L 287.745473 -128.309542 
L 290.392127 -127.817782 
L 293.03878 -128.182973 
L 295.685433 -128.71434 
L 298.332087 -129.032986 
L 300.97874 -129.446402 
L 303.625393 -130.001325 
L 306.272047 -130.63093 
L 308.9187 -131.035716 
L 311.565353 -130.262972 
L 314.212007 -131.030483 
L 316.85866 -131.227407 
L 319.505313 -131.308398 
L 322.151967 -131.038351 
L 324.79862 -131.130002 
L 327.445273 -131.845663 
L 330.091927 -132.01642 
L 332.73858 -132.623169 
L 335.385233 -131.641813 
L 338.031887 -132.264215 
L 340.67854 -132.03519 
L 343.325193 -132.320272 
L 345.971847 -132.328515 
L 348.6185 -132.243874 
L 351.265153 -132.213899 
L 353.911807 -133.316434 
L 356.55846 -133.112512 
L 359.205113 -133.256884 
L 361.851767 -134.053813 
L 364.49842 -133.94222 
L 367.145073 -135.338877 
L 369.791727 -134.665712 
L 372.43838 -133.421561 
L 375.085033 -134.315146 
L 377.731687 -134.137125 
L 380.37834 -133.282809 
L 383.024993 -133.853239 
L 385.671647 -133.902153 
L 388.3183 -134.14538 
L 390.964953 -134.70683 
L 393.611607 -135.337015 
L 396.25826 -135.558487 
L 398.904913 -135.016496 
L 401.551567 -134.929292 
L 404.19822 -134.614091 
L 406.844873 -133.851656 
L 409.491527 -134.429544 
L 412.13818 -133.864504 
L 414.784833 -135.485001 
L 417.431487 -135.92856 
L 420.07814 -135.67361 
L 422.724793 -136.282898 
L 425.371447 -136.392545 
L 428.0181 -136.184248 
L 430.664753 -136.186569 
L 433.311407 -137.927253 
L 435.95806 -138.416753 
L 438.604713 -138.539926 
L 441.251367 -138.720666 
L 443.89802 -137.929187 
L 446.544673 -137.201295 
L 449.191327 -136.692216 
L 451.83798 -136.935044 
L 454.484633 -136.635736 
L 457.131287 -136.499087 
L 459.77794 -136.760673 
L 462.424593 -136.221728 
L 465.071247 -135.928464 
L 467.7179 -137.655188 
L 470.364553 -138.354871 
L 473.011207 -138.776167 
L 475.65786 -137.684123 
L 478.304513 -138.166286 
L 480.951167 -137.604051 
L 483.59782 -137.957482 
L 486.244473 -139.256577 
L 488.891127 -139.691821 
L 491.53778 -139.013773 
L 494.184433 -138.13074 
L 496.831087 -138.323035 
L 499.47774 -137.818343 
L 502.124393 -138.737478 
L 504.771047 -138.532734 
L 507.4177 -138.851695 
L 510.064353 -139.515359 
L 512.711007 -139.313395 
L 515.35766 -138.605954 
L 518.004313 -138.342688 
L 520.650967 -138.958103 
L 523.29762 -138.638176 
L 525.944273 -138.66496 
L 528.590927 -138.960569 
L 531.23758 -139.179405 
L 533.884233 -140.091941 
L 536.530887 -139.3213 
L 539.17754 -137.895768 
L 541.824193 -138.508997 
L 544.470847 -138.481657 
L 547.1175 -138.90282 
L 549.764153 -139.544258 
L 552.410807 -140.75528 
L 555.05746 -140.492666 
L 557.704113 -140.779598 
L 560.350767 -140.838531 
L 562.99742 -140.396338 
L 565.644073 -140.123717 
L 568.290727 -139.692933 
L 570.93738 -140.174069 
L 573.584033 -140.577585 
L 576.230687 -141.05802 
L 578.87734 -141.857427 
L 581.523993 -140.858522 
L 584.170647 -140.749285 
L 586.8173 -140.890841 
L 589.463953 -141.316512 
L 592.110607 -141.151593 
L 594.75726 -141.156754 
L 597.403913 -140.703139 
L 600.050567 -141.663839 
L 602.69722 -141.969396 
L 605.343873 -141.144631 
L 607.990527 -140.984329 
L 610.63718 -141.13269 
L 613.283833 -141.316548 
L 615.930487 -142.466014 
L 618.57714 -143.352395 
L 621.223793 -142.582346 
L 623.870447 -141.151859 
L 626.5171 -141.648139 
L 629.163753 -141.460159 
L 631.810407 -141.89133 
L 634.45706 -142.300551 
L 637.103713 -142.781131 
L 639.750367 -143.267899 
L 642.39702 -143.619783 
L 645.043673 -143.963218 
L 647.690327 -143.566723 
L 650.33698 -143.725007 
L 652.983633 -143.854477 
L 655.630287 -144.115446 
L 658.27694 -143.811981 
L 660.923593 -144.217311 
L 663.570247 -143.855105 
L 666.2169 -143.120626 
L 668.863553 -142.602905 
L 671.510207 -143.354438 
L 674.15686 -144.378616 
L 676.803513 -144.127678 
L 679.450167 -143.573951 
L 682.09682 -143.61797 
L 684.743473 -143.959991 
L 687.390127 -144.007805 
L 690.03678 -143.401937 
L 692.683433 -143.68772 
L 695.330087 -143.777788 
L 697.97674 -144.283665 
L 700.623393 -144.913053 
L 703.270047 -145.150128 
L 705.9167 -144.64303 
L 708.563353 -143.853401 
L 711.210007 -144.218229 
L 713.85666 -144.21163 
L 716.503313 -143.76801 
L 719.149967 -142.74185 
L 721.79662 -143.859239 
L 724.443273 -143.714202 
L 727.089927 -143.933268 
L 729.73658 -144.070304 
L 732.383233 -144.267663 
L 735.029887 -144.209817 
L 737.67654 -144.172688 
L 740.323193 -144.039012 
L 742.969847 -144.439241 
L 745.6165 -144.391887 
L 748.263153 -144.396359 
L 750.909807 -144.433198 
L 753.55646 -143.264116 
L 756.203113 -143.044446 
L 758.849767 -144.038915 
L 761.49642 -144.856222 
L 764.143073 -145.352128 
L 766.789727 -146.168891 
L 769.43638 -146.30386 
L 772.083033 -146.533876 
L 774.729687 -146.815574 
L 777.37634 -145.84784 
L 780.022993 -146.326498 
L 782.669647 -145.825879 
L 785.3163 -146.197669 
L 787.962953 -145.547444 
L 790.609607 -147.182445 
L 793.25626 -146.682503 
L 795.902913 -146.194587 
L 798.549567 -146.742802 
L 801.19622 -146.470302 
L 803.842873 -146.549432 
L 806.489527 -146.216983 
L 809.13618 -146.746222 
L 811.782833 -146.083766 
L 814.429487 -146.360751 
L 817.07614 -145.071844 
L 819.722793 -145.698246 
L 822.369447 -145.949293 
L 825.0161 -145.416536 
L 827.662753 -146.517548 
L 830.309407 -145.548532 
L 832.95606 -146.199482 
L 835.602713 -146.927011 
L 838.249367 -147.058003 
L 840.89602 -147.551951 
L 843.542673 -146.329483 
L 843.542673 -372.542333 
L 843.542673 -372.542333 
L 840.89602 -371.483371 
L 838.249367 -371.618448 
L 835.602713 -371.536043 
L 832.95606 -372.023295 
L 830.309407 -372.361207 
L 827.662753 -371.809897 
L 825.0161 -372.484029 
L 822.369447 -372.335124 
L 819.722793 -372.686839 
L 817.07614 -372.805455 
L 814.429487 -371.831991 
L 811.782833 -371.97623 
L 809.13618 -371.286942 
L 806.489527 -371.683328 
L 803.842873 -371.339518 
L 801.19622 -371.384939 
L 798.549567 -371.284042 
L 795.902913 -371.739554 
L 793.25626 -371.042168 
L 790.609607 -370.265496 
L 787.962953 -371.712239 
L 785.3163 -371.029623 
L 782.669647 -371.426371 
L 780.022993 -371.294097 
L 777.37634 -371.46923 
L 774.729687 -370.538238 
L 772.083033 -370.380752 
L 769.43638 -370.743489 
L 766.789727 -370.523371 
L 764.143073 -371.347761 
L 761.49642 -371.539524 
L 758.849767 -371.613952 
L 756.203113 -372.194051 
L 753.55646 -372.072559 
L 750.909807 -370.766139 
L 748.263153 -370.925341 
L 745.6165 -371.064021 
L 742.969847 -370.826088 
L 740.323193 -371.297723 
L 737.67654 -371.11459 
L 735.029887 -371.34868 
L 732.383233 -371.37162 
L 729.73658 -371.235164 
L 727.089927 -371.145 
L 724.443273 -371.403479 
L 721.79662 -371.555913 
L 719.149967 -372.222527 
L 716.503313 -371.836511 
L 713.85666 -372.054598 
L 711.210007 -371.453251 
L 708.563353 -372.039442 
L 705.9167 -370.801842 
L 703.270047 -370.411838 
L 700.623393 -370.61518 
L 697.97674 -371.901681 
L 695.330087 -371.97843 
L 692.683433 -372.354752 
L 690.03678 -372.368313 
L 687.390127 -371.643902 
L 684.743473 -371.732617 
L 682.09682 -371.219645 
L 679.450167 -371.2933 
L 676.803513 -370.938902 
L 674.15686 -370.640344 
L 671.510207 -371.37643 
L 668.863553 -371.532006 
L 666.2169 -370.906607 
L 663.570247 -370.764519 
L 660.923593 -370.678029 
L 658.27694 -370.793672 
L 655.630287 -370.692871 
L 652.983633 -370.747357 
L 650.33698 -370.517231 
L 647.690327 -371.005232 
L 645.043673 -370.195781 
L 642.39702 -370.553273 
L 639.750367 -370.356192 
L 637.103713 -370.40142 
L 634.45706 -370.564272 
L 631.810407 -371.123993 
L 629.163753 -371.021138 
L 626.5171 -371.361395 
L 623.870447 -371.311018 
L 621.223793 -369.572219 
L 618.57714 -368.790132 
L 615.930487 -369.17228 
L 613.283833 -369.79357 
L 610.63718 -369.623006 
L 607.990527 -370.082991 
L 605.343873 -370.331947 
L 602.69722 -369.561873 
L 600.050567 -369.734467 
L 597.403913 -370.354911 
L 594.75726 -369.783345 
L 592.110607 -370.071219 
L 589.463953 -369.454014 
L 586.8173 -369.608527 
L 584.170647 -368.99067 
L 581.523993 -368.819792 
L 578.87734 -368.621406 
L 576.230687 -368.854673 
L 573.584033 -369.212697 
L 570.93738 -369.490225 
L 568.290727 -369.871576 
L 565.644073 -369.207717 
L 562.99742 -368.954821 
L 560.350767 -367.918219 
L 557.704113 -368.198527 
L 555.05746 -368.993474 
L 552.410807 -368.500542 
L 549.764153 -368.94421 
L 547.1175 -369.055211 
L 544.470847 -369.842351 
L 541.824193 -370.121087 
L 539.17754 -370.880549 
L 536.530887 -369.872107 
L 533.884233 -369.288721 
L 531.23758 -369.848176 
L 528.590927 -370.280797 
L 525.944273 -370.176491 
L 523.29762 -369.876217 
L 520.650967 -369.193649 
L 518.004313 -370.09677 
L 515.35766 -370.007209 
L 512.711007 -369.648291 
L 510.064353 -369.398804 
L 507.4177 -369.504221 
L 504.771047 -369.696468 
L 502.124393 -369.289929 
L 499.47774 -370.502921 
L 496.831087 -369.815567 
L 494.184433 -369.908898 
L 491.53778 -369.248014 
L 488.891127 -368.189631 
L 486.244473 -368.574269 
L 483.59782 -369.454014 
L 480.951167 -369.234283 
L 478.304513 -368.890498 
L 475.65786 -369.117867 
L 473.011207 -368.122044 
L 470.364553 -368.655538 
L 467.7179 -368.84498 
L 465.071247 -369.986541 
L 462.424593 -369.627285 
L 459.77794 -369.021224 
L 457.131287 -369.542052 
L 454.484633 -369.768406 
L 451.83798 -369.466342 
L 449.191327 -369.033166 
L 446.544673 -367.649804 
L 443.89802 -367.68147 
L 441.251367 -367.241041 
L 438.604713 -368.343467 
L 435.95806 -367.408607 
L 433.311407 -367.839415 
L 430.664753 -368.307739 
L 428.0181 -368.490292 
L 425.371447 -368.582222 
L 422.724793 -368.88298 
L 420.07814 -368.312284 
L 417.431487 -367.410589 
L 414.784833 -368.078412 
L 412.13818 -368.885542 
L 409.491527 -368.798351 
L 406.844873 -368.827455 
L 404.19822 -368.678212 
L 401.551567 -368.246195 
L 398.904913 -368.216463 
L 396.25826 -367.369423 
L 393.611607 -367.25789 
L 390.964953 -367.596454 
L 388.3183 -367.530825 
L 385.671647 -368.044546 
L 383.024993 -367.780748 
L 380.37834 -368.834489 
L 377.731687 -367.88092 
L 375.085033 -367.525797 
L 372.43838 -368.40431 
L 369.791727 -367.497031 
L 367.145073 -366.407272 
L 364.49842 -367.066755 
L 361.851767 -366.810958 
L 359.205113 -366.972481 
L 356.55846 -366.78606 
L 353.911807 -367.055877 
L 351.265153 -367.561669 
L 348.6185 -367.295285 
L 345.971847 -366.375824 
L 343.325193 -366.348823 
L 340.67854 -366.534711 
L 338.031887 -366.482087 
L 335.385233 -366.57201 
L 332.73858 -365.459456 
L 330.091927 -366.137069 
L 327.445273 -365.860628 
L 324.79862 -366.321362 
L 322.151967 -365.840807 
L 319.505313 -364.696127 
L 316.85866 -364.690277 
L 314.212007 -364.749863 
L 311.565353 -365.497504 
L 308.9187 -364.578309 
L 306.272047 -364.333728 
L 303.625393 -364.469483 
L 300.97874 -364.687473 
L 298.332087 -364.814743 
L 295.685433 -364.325002 
L 293.03878 -365.265566 
L 290.392127 -365.363925 
L 287.745473 -365.079725 
L 285.09882 -364.545845 
L 282.452167 -364.122651 
L 279.805513 -364.60091 
L 277.15886 -363.960911 
L 274.512207 -363.099706 
L 271.865553 -364.521841 
L 269.2189 -364.68317 
L 266.572247 -364.453625 
L 263.925593 -363.433146 
L 261.27894 -363.991731 
L 258.632287 -364.614979 
L 255.985633 -365.119635 
L 253.33898 -365.211782 
L 250.692327 -365.545318 
L 248.045673 -365.000777 
L 245.39902 -364.475163 
L 242.752367 -364.881871 
L 240.105713 -363.883582 
L 237.45906 -364.488821 
L 234.812407 -364.226933 
L 232.165753 -363.425966 
L 229.5191 -362.974442 
L 226.872447 -362.559999 
L 224.225793 -361.797033 
L 221.57914 -361.995806 
L 218.932487 -362.009488 
L 216.285833 -361.471812 
L 213.63918 -362.057882 
L 210.992527 -363.269689 
L 208.345873 -362.820945 
L 205.69922 -362.406188 
L 203.052567 -361.717504 
L 200.405913 -361.877577 
L 197.75926 -360.719771 
L 195.112607 -360.564896 
L 192.465953 -359.221806 
L 189.8193 -359.74974 
L 187.172647 -359.858614 
L 184.525993 -359.739781 
L 181.87934 -360.391818 
L 179.232687 -359.830429 
L 176.586033 -359.812904 
L 173.93938 -359.822887 
L 171.292727 -361.289258 
L 168.646073 -360.872616 
L 165.99942 -360.600527 
L 163.352767 -360.325827 
L 160.706113 -359.073916 
L 158.05946 -359.751916 
L 155.412807 -358.778452 
L 152.766153 -358.531914 
L 150.1195 -358.951989 
L 147.472847 -358.354074 
L 144.826193 -359.143172 
L 142.17954 -357.533407 
L 139.532887 -358.09163 
L 136.886233 -357.345729 
L 134.23958 -357.875017 
L 131.592927 -358.078214 
L 128.946273 -357.496979 
L 126.29962 -355.455681 
L 123.652967 -354.364689 
L 121.006313 -355.617179 
L 118.35966 -355.573958 
L 115.713007 -354.961588 
L 113.066353 -355.926011 
L 110.4197 -353.685143 
L 107.773047 -353.230597 
L 105.126393 -352.566522 
L 102.47974 -351.534246 
L 99.833087 -351.50942 
L 97.186433 -352.491417 
L 94.53978 -351.929399 
L 91.893127 -350.227753 
L 89.246473 -350.247478 
L 86.59982 -350.321229 
L 83.953167 -349.050174 
L 81.306513 -347.819609 
L 78.65986 -346.610847 
L 76.013207 -345.401094 
L 73.366553 -345.951558 
L 70.7199 -344.720315 
L 68.073247 -342.641936 
L 65.426593 -341.440306 
L 62.77994 -338.728696 
L 60.133287 -339.264873 
L 57.486633 -337.23119 
L 54.83998 -335.206257 
L 52.193327 -335.005139 
z
" style="stroke: #0000ff; stroke-opacity: 0.2"/>
    </defs>
    <g clip-path="url(#p17b90922d3)">
     <use xlink:href="#m52b85e2b19" x="0" y="432" style="fill: #0000ff; fill-opacity: 0.2; stroke: #0000ff; stroke-opacity: 0.2"/>
    </g>
   </g>
   <g id="matplotlib.axis_1">
    <g id="xtick_1">
     <g id="line2d_1">
      <defs>
       <path id="m25fec137f5" d="M 0 0 
L 0 3.5 
" style="stroke: #000000; stroke-width: 0.8"/>
      </defs>
      <g>
       <use xlink:href="#m25fec137f5" x="181.87934" y="390.04" style="stroke: #000000; stroke-width: 0.8"/>
      </g>
     </g>
     <g id="text_1">
      <!-- 50 -->
      <g transform="translate(175.51684 404.638438) scale(0.1 -0.1)">
       <defs>
        <path id="DejaVuSans-35" d="M 691 4666 
L 3169 4666 
L 3169 4134 
L 1269 4134 
L 1269 2991 
Q 1406 3038 1543 3061 
Q 1681 3084 1819 3084 
Q 2600 3084 3056 2656 
Q 3513 2228 3513 1497 
Q 3513 744 3044 326 
Q 2575 -91 1722 -91 
Q 1428 -91 1123 -41 
Q 819 9 494 109 
L 494 744 
Q 775 591 1075 516 
Q 1375 441 1709 441 
Q 2250 441 2565 725 
Q 2881 1009 2881 1497 
Q 2881 1984 2565 2268 
Q 2250 2553 1709 2553 
Q 1456 2553 1204 2497 
Q 953 2441 691 2322 
L 691 4666 
z
" transform="scale(0.015625)"/>
        <path id="DejaVuSans-30" d="M 2034 4250 
Q 1547 4250 1301 3770 
Q 1056 3291 1056 2328 
Q 1056 1369 1301 889 
Q 1547 409 2034 409 
Q 2525 409 2770 889 
Q 3016 1369 3016 2328 
Q 3016 3291 2770 3770 
Q 2525 4250 2034 4250 
z
M 2034 4750 
Q 2819 4750 3233 4129 
Q 3647 3509 3647 2328 
Q 3647 1150 3233 529 
Q 2819 -91 2034 -91 
Q 1250 -91 836 529 
Q 422 1150 422 2328 
Q 422 3509 836 4129 
Q 1250 4750 2034 4750 
z
" transform="scale(0.015625)"/>
       </defs>
       <use xlink:href="#DejaVuSans-35"/>
       <use xlink:href="#DejaVuSans-30" transform="translate(63.623047 0)"/>
      </g>
     </g>
    </g>
    <g id="xtick_2">
     <g id="line2d_2">
      <g>
       <use xlink:href="#m25fec137f5" x="314.212007" y="390.04" style="stroke: #000000; stroke-width: 0.8"/>
      </g>
     </g>
     <g id="text_2">
      <!-- 100 -->
      <g transform="translate(304.668257 404.638438) scale(0.1 -0.1)">
       <defs>
        <path id="DejaVuSans-31" d="M 794 531 
L 1825 531 
L 1825 4091 
L 703 3866 
L 703 4441 
L 1819 4666 
L 2450 4666 
L 2450 531 
L 3481 531 
L 3481 0 
L 794 0 
L 794 531 
z
" transform="scale(0.015625)"/>
       </defs>
       <use xlink:href="#DejaVuSans-31"/>
       <use xlink:href="#DejaVuSans-30" transform="translate(63.623047 0)"/>
       <use xlink:href="#DejaVuSans-30" transform="translate(127.246094 0)"/>
      </g>
     </g>
    </g>
    <g id="xtick_3">
     <g id="line2d_3">
      <g>
       <use xlink:href="#m25fec137f5" x="446.544673" y="390.04" style="stroke: #000000; stroke-width: 0.8"/>
      </g>
     </g>
     <g id="text_3">
      <!-- 150 -->
      <g transform="translate(437.000923 404.638438) scale(0.1 -0.1)">
       <use xlink:href="#DejaVuSans-31"/>
       <use xlink:href="#DejaVuSans-35" transform="translate(63.623047 0)"/>
       <use xlink:href="#DejaVuSans-30" transform="translate(127.246094 0)"/>
      </g>
     </g>
    </g>
    <g id="xtick_4">
     <g id="line2d_4">
      <g>
       <use xlink:href="#m25fec137f5" x="578.87734" y="390.04" style="stroke: #000000; stroke-width: 0.8"/>
      </g>
     </g>
     <g id="text_4">
      <!-- 200 -->
      <g transform="translate(569.33359 404.638438) scale(0.1 -0.1)">
       <defs>
        <path id="DejaVuSans-32" d="M 1228 531 
L 3431 531 
L 3431 0 
L 469 0 
L 469 531 
Q 828 903 1448 1529 
Q 2069 2156 2228 2338 
Q 2531 2678 2651 2914 
Q 2772 3150 2772 3378 
Q 2772 3750 2511 3984 
Q 2250 4219 1831 4219 
Q 1534 4219 1204 4116 
Q 875 4013 500 3803 
L 500 4441 
Q 881 4594 1212 4672 
Q 1544 4750 1819 4750 
Q 2544 4750 2975 4387 
Q 3406 4025 3406 3419 
Q 3406 3131 3298 2873 
Q 3191 2616 2906 2266 
Q 2828 2175 2409 1742 
Q 1991 1309 1228 531 
z
" transform="scale(0.015625)"/>
       </defs>
       <use xlink:href="#DejaVuSans-32"/>
       <use xlink:href="#DejaVuSans-30" transform="translate(63.623047 0)"/>
       <use xlink:href="#DejaVuSans-30" transform="translate(127.246094 0)"/>
      </g>
     </g>
    </g>
    <g id="xtick_5">
     <g id="line2d_5">
      <g>
       <use xlink:href="#m25fec137f5" x="711.210007" y="390.04" style="stroke: #000000; stroke-width: 0.8"/>
      </g>
     </g>
     <g id="text_5">
      <!-- 250 -->
      <g transform="translate(701.666257 404.638438) scale(0.1 -0.1)">
       <use xlink:href="#DejaVuSans-32"/>
       <use xlink:href="#DejaVuSans-35" transform="translate(63.623047 0)"/>
       <use xlink:href="#DejaVuSans-30" transform="translate(127.246094 0)"/>
      </g>
     </g>
    </g>
    <g id="xtick_6">
     <g id="line2d_6">
      <g>
       <use xlink:href="#m25fec137f5" x="843.542673" y="390.04" style="stroke: #000000; stroke-width: 0.8"/>
      </g>
     </g>
     <g id="text_6">
      <!-- 300 -->
      <g transform="translate(833.998923 404.638438) scale(0.1 -0.1)">
       <defs>
        <path id="DejaVuSans-33" d="M 2597 2516 
Q 3050 2419 3304 2112 
Q 3559 1806 3559 1356 
Q 3559 666 3084 287 
Q 2609 -91 1734 -91 
Q 1441 -91 1130 -33 
Q 819 25 488 141 
L 488 750 
Q 750 597 1062 519 
Q 1375 441 1716 441 
Q 2309 441 2620 675 
Q 2931 909 2931 1356 
Q 2931 1769 2642 2001 
Q 2353 2234 1838 2234 
L 1294 2234 
L 1294 2753 
L 1863 2753 
Q 2328 2753 2575 2939 
Q 2822 3125 2822 3475 
Q 2822 3834 2567 4026 
Q 2313 4219 1838 4219 
Q 1578 4219 1281 4162 
Q 984 4106 628 3988 
L 628 4550 
Q 988 4650 1302 4700 
Q 1616 4750 1894 4750 
Q 2613 4750 3031 4423 
Q 3450 4097 3450 3541 
Q 3450 3153 3228 2886 
Q 3006 2619 2597 2516 
z
" transform="scale(0.015625)"/>
       </defs>
       <use xlink:href="#DejaVuSans-33"/>
       <use xlink:href="#DejaVuSans-30" transform="translate(63.623047 0)"/>
       <use xlink:href="#DejaVuSans-30" transform="translate(127.246094 0)"/>
      </g>
     </g>
    </g>
    <g id="text_7">
     <!-- Step -->
     <g transform="translate(436.482844 418.316562) scale(0.1 -0.1)">
      <defs>
       <path id="DejaVuSans-53" d="M 3425 4513 
L 3425 3897 
Q 3066 4069 2747 4153 
Q 2428 4238 2131 4238 
Q 1616 4238 1336 4038 
Q 1056 3838 1056 3469 
Q 1056 3159 1242 3001 
Q 1428 2844 1947 2747 
L 2328 2669 
Q 3034 2534 3370 2195 
Q 3706 1856 3706 1288 
Q 3706 609 3251 259 
Q 2797 -91 1919 -91 
Q 1588 -91 1214 -16 
Q 841 59 441 206 
L 441 856 
Q 825 641 1194 531 
Q 1563 422 1919 422 
Q 2459 422 2753 634 
Q 3047 847 3047 1241 
Q 3047 1584 2836 1778 
Q 2625 1972 2144 2069 
L 1759 2144 
Q 1053 2284 737 2584 
Q 422 2884 422 3419 
Q 422 4038 858 4394 
Q 1294 4750 2059 4750 
Q 2388 4750 2728 4690 
Q 3069 4631 3425 4513 
z
" transform="scale(0.015625)"/>
       <path id="DejaVuSans-74" d="M 1172 4494 
L 1172 3500 
L 2356 3500 
L 2356 3053 
L 1172 3053 
L 1172 1153 
Q 1172 725 1289 603 
Q 1406 481 1766 481 
L 2356 481 
L 2356 0 
L 1766 0 
Q 1100 0 847 248 
Q 594 497 594 1153 
L 594 3053 
L 172 3053 
L 172 3500 
L 594 3500 
L 594 4494 
L 1172 4494 
z
" transform="scale(0.015625)"/>
       <path id="DejaVuSans-65" d="M 3597 1894 
L 3597 1613 
L 953 1613 
Q 991 1019 1311 708 
Q 1631 397 2203 397 
Q 2534 397 2845 478 
Q 3156 559 3463 722 
L 3463 178 
Q 3153 47 2828 -22 
Q 2503 -91 2169 -91 
Q 1331 -91 842 396 
Q 353 884 353 1716 
Q 353 2575 817 3079 
Q 1281 3584 2069 3584 
Q 2775 3584 3186 3129 
Q 3597 2675 3597 1894 
z
M 3022 2063 
Q 3016 2534 2758 2815 
Q 2500 3097 2075 3097 
Q 1594 3097 1305 2825 
Q 1016 2553 972 2059 
L 3022 2063 
z
" transform="scale(0.015625)"/>
       <path id="DejaVuSans-70" d="M 1159 525 
L 1159 -1331 
L 581 -1331 
L 581 3500 
L 1159 3500 
L 1159 2969 
Q 1341 3281 1617 3432 
Q 1894 3584 2278 3584 
Q 2916 3584 3314 3078 
Q 3713 2572 3713 1747 
Q 3713 922 3314 415 
Q 2916 -91 2278 -91 
Q 1894 -91 1617 61 
Q 1341 213 1159 525 
z
M 3116 1747 
Q 3116 2381 2855 2742 
Q 2594 3103 2138 3103 
Q 1681 3103 1420 2742 
Q 1159 2381 1159 1747 
Q 1159 1113 1420 752 
Q 1681 391 2138 391 
Q 2594 391 2855 752 
Q 3116 1113 3116 1747 
z
" transform="scale(0.015625)"/>
      </defs>
      <use xlink:href="#DejaVuSans-53"/>
      <use xlink:href="#DejaVuSans-74" transform="translate(63.476562 0)"/>
      <use xlink:href="#DejaVuSans-65" transform="translate(102.685547 0)"/>
      <use xlink:href="#DejaVuSans-70" transform="translate(164.208984 0)"/>
     </g>
    </g>
   </g>
   <g id="matplotlib.axis_2">
    <g id="ytick_1">
     <g id="line2d_7">
      <defs>
       <path id="mc8f08668b9" d="M 0 0 
L -3.5 0 
" style="stroke: #000000; stroke-width: 0.8"/>
      </defs>
      <g>
       <use xlink:href="#mc8f08668b9" x="50.87" y="367.995156" style="stroke: #000000; stroke-width: 0.8"/>
      </g>
     </g>
     <g id="text_8">
      <!-- 20 -->
      <g transform="translate(31.145 371.794374) scale(0.1 -0.1)">
       <use xlink:href="#DejaVuSans-32"/>
       <use xlink:href="#DejaVuSans-30" transform="translate(63.623047 0)"/>
      </g>
     </g>
    </g>
    <g id="ytick_2">
     <g id="line2d_8">
      <g>
       <use xlink:href="#mc8f08668b9" x="50.87" y="304.627565" style="stroke: #000000; stroke-width: 0.8"/>
      </g>
     </g>
     <g id="text_9">
      <!-- 40 -->
      <g transform="translate(31.145 308.426784) scale(0.1 -0.1)">
       <defs>
        <path id="DejaVuSans-34" d="M 2419 4116 
L 825 1625 
L 2419 1625 
L 2419 4116 
z
M 2253 4666 
L 3047 4666 
L 3047 1625 
L 3713 1625 
L 3713 1100 
L 3047 1100 
L 3047 0 
L 2419 0 
L 2419 1100 
L 313 1100 
L 313 1709 
L 2253 4666 
z
" transform="scale(0.015625)"/>
       </defs>
       <use xlink:href="#DejaVuSans-34"/>
       <use xlink:href="#DejaVuSans-30" transform="translate(63.623047 0)"/>
      </g>
     </g>
    </g>
    <g id="ytick_3">
     <g id="line2d_9">
      <g>
       <use xlink:href="#mc8f08668b9" x="50.87" y="241.259975" style="stroke: #000000; stroke-width: 0.8"/>
      </g>
     </g>
     <g id="text_10">
      <!-- 60 -->
      <g transform="translate(31.145 245.059194) scale(0.1 -0.1)">
       <defs>
        <path id="DejaVuSans-36" d="M 2113 2584 
Q 1688 2584 1439 2293 
Q 1191 2003 1191 1497 
Q 1191 994 1439 701 
Q 1688 409 2113 409 
Q 2538 409 2786 701 
Q 3034 994 3034 1497 
Q 3034 2003 2786 2293 
Q 2538 2584 2113 2584 
z
M 3366 4563 
L 3366 3988 
Q 3128 4100 2886 4159 
Q 2644 4219 2406 4219 
Q 1781 4219 1451 3797 
Q 1122 3375 1075 2522 
Q 1259 2794 1537 2939 
Q 1816 3084 2150 3084 
Q 2853 3084 3261 2657 
Q 3669 2231 3669 1497 
Q 3669 778 3244 343 
Q 2819 -91 2113 -91 
Q 1303 -91 875 529 
Q 447 1150 447 2328 
Q 447 3434 972 4092 
Q 1497 4750 2381 4750 
Q 2619 4750 2861 4703 
Q 3103 4656 3366 4563 
z
" transform="scale(0.015625)"/>
       </defs>
       <use xlink:href="#DejaVuSans-36"/>
       <use xlink:href="#DejaVuSans-30" transform="translate(63.623047 0)"/>
      </g>
     </g>
    </g>
    <g id="ytick_4">
     <g id="line2d_10">
      <g>
       <use xlink:href="#mc8f08668b9" x="50.87" y="177.892385" style="stroke: #000000; stroke-width: 0.8"/>
      </g>
     </g>
     <g id="text_11">
      <!-- 80 -->
      <g transform="translate(31.145 181.691604) scale(0.1 -0.1)">
       <defs>
        <path id="DejaVuSans-38" d="M 2034 2216 
Q 1584 2216 1326 1975 
Q 1069 1734 1069 1313 
Q 1069 891 1326 650 
Q 1584 409 2034 409 
Q 2484 409 2743 651 
Q 3003 894 3003 1313 
Q 3003 1734 2745 1975 
Q 2488 2216 2034 2216 
z
M 1403 2484 
Q 997 2584 770 2862 
Q 544 3141 544 3541 
Q 544 4100 942 4425 
Q 1341 4750 2034 4750 
Q 2731 4750 3128 4425 
Q 3525 4100 3525 3541 
Q 3525 3141 3298 2862 
Q 3072 2584 2669 2484 
Q 3125 2378 3379 2068 
Q 3634 1759 3634 1313 
Q 3634 634 3220 271 
Q 2806 -91 2034 -91 
Q 1263 -91 848 271 
Q 434 634 434 1313 
Q 434 1759 690 2068 
Q 947 2378 1403 2484 
z
M 1172 3481 
Q 1172 3119 1398 2916 
Q 1625 2713 2034 2713 
Q 2441 2713 2670 2916 
Q 2900 3119 2900 3481 
Q 2900 3844 2670 4047 
Q 2441 4250 2034 4250 
Q 1625 4250 1398 4047 
Q 1172 3844 1172 3481 
z
" transform="scale(0.015625)"/>
       </defs>
       <use xlink:href="#DejaVuSans-38"/>
       <use xlink:href="#DejaVuSans-30" transform="translate(63.623047 0)"/>
      </g>
     </g>
    </g>
    <g id="ytick_5">
     <g id="line2d_11">
      <g>
       <use xlink:href="#mc8f08668b9" x="50.87" y="114.524795" style="stroke: #000000; stroke-width: 0.8"/>
      </g>
     </g>
     <g id="text_12">
      <!-- 100 -->
      <g transform="translate(24.7825 118.324014) scale(0.1 -0.1)">
       <use xlink:href="#DejaVuSans-31"/>
       <use xlink:href="#DejaVuSans-30" transform="translate(63.623047 0)"/>
       <use xlink:href="#DejaVuSans-30" transform="translate(127.246094 0)"/>
      </g>
     </g>
    </g>
    <g id="ytick_6">
     <g id="line2d_12">
      <g>
       <use xlink:href="#mc8f08668b9" x="50.87" y="51.157205" style="stroke: #000000; stroke-width: 0.8"/>
      </g>
     </g>
     <g id="text_13">
      <!-- 120 -->
      <g transform="translate(24.7825 54.956423) scale(0.1 -0.1)">
       <use xlink:href="#DejaVuSans-31"/>
       <use xlink:href="#DejaVuSans-32" transform="translate(63.623047 0)"/>
       <use xlink:href="#DejaVuSans-30" transform="translate(127.246094 0)"/>
      </g>
     </g>
    </g>
    <g id="text_14">
     <!-- Profit -->
     <g transform="translate(18.702813 229.779063) rotate(-90) scale(0.1 -0.1)">
      <defs>
       <path id="DejaVuSans-50" d="M 1259 4147 
L 1259 2394 
L 2053 2394 
Q 2494 2394 2734 2622 
Q 2975 2850 2975 3272 
Q 2975 3691 2734 3919 
Q 2494 4147 2053 4147 
L 1259 4147 
z
M 628 4666 
L 2053 4666 
Q 2838 4666 3239 4311 
Q 3641 3956 3641 3272 
Q 3641 2581 3239 2228 
Q 2838 1875 2053 1875 
L 1259 1875 
L 1259 0 
L 628 0 
L 628 4666 
z
" transform="scale(0.015625)"/>
       <path id="DejaVuSans-72" d="M 2631 2963 
Q 2534 3019 2420 3045 
Q 2306 3072 2169 3072 
Q 1681 3072 1420 2755 
Q 1159 2438 1159 1844 
L 1159 0 
L 581 0 
L 581 3500 
L 1159 3500 
L 1159 2956 
Q 1341 3275 1631 3429 
Q 1922 3584 2338 3584 
Q 2397 3584 2469 3576 
Q 2541 3569 2628 3553 
L 2631 2963 
z
" transform="scale(0.015625)"/>
       <path id="DejaVuSans-6f" d="M 1959 3097 
Q 1497 3097 1228 2736 
Q 959 2375 959 1747 
Q 959 1119 1226 758 
Q 1494 397 1959 397 
Q 2419 397 2687 759 
Q 2956 1122 2956 1747 
Q 2956 2369 2687 2733 
Q 2419 3097 1959 3097 
z
M 1959 3584 
Q 2709 3584 3137 3096 
Q 3566 2609 3566 1747 
Q 3566 888 3137 398 
Q 2709 -91 1959 -91 
Q 1206 -91 779 398 
Q 353 888 353 1747 
Q 353 2609 779 3096 
Q 1206 3584 1959 3584 
z
" transform="scale(0.015625)"/>
       <path id="DejaVuSans-66" d="M 2375 4863 
L 2375 4384 
L 1825 4384 
Q 1516 4384 1395 4259 
Q 1275 4134 1275 3809 
L 1275 3500 
L 2222 3500 
L 2222 3053 
L 1275 3053 
L 1275 0 
L 697 0 
L 697 3053 
L 147 3053 
L 147 3500 
L 697 3500 
L 697 3744 
Q 697 4328 969 4595 
Q 1241 4863 1831 4863 
L 2375 4863 
z
" transform="scale(0.015625)"/>
       <path id="DejaVuSans-69" d="M 603 3500 
L 1178 3500 
L 1178 0 
L 603 0 
L 603 3500 
z
M 603 4863 
L 1178 4863 
L 1178 4134 
L 603 4134 
L 603 4863 
z
" transform="scale(0.015625)"/>
      </defs>
      <use xlink:href="#DejaVuSans-50"/>
      <use xlink:href="#DejaVuSans-72" transform="translate(58.552734 0)"/>
      <use xlink:href="#DejaVuSans-6f" transform="translate(97.416016 0)"/>
      <use xlink:href="#DejaVuSans-66" transform="translate(158.597656 0)"/>
      <use xlink:href="#DejaVuSans-69" transform="translate(193.802734 0)"/>
      <use xlink:href="#DejaVuSans-74" transform="translate(221.585938 0)"/>
     </g>
    </g>
   </g>
   <g id="line2d_13">
    <path d="M 52.193327 235.640158 
L 54.83998 234.882618 
L 60.133287 228.98352 
L 62.77994 227.254753 
L 65.426593 224.24966 
L 68.073247 221.903132 
L 70.7199 219.796907 
L 73.366553 218.140198 
L 76.013207 216.189186 
L 78.65986 214.941168 
L 81.306513 213.478761 
L 83.953167 212.385932 
L 86.59982 210.579062 
L 89.246473 209.094585 
L 91.893127 207.945313 
L 102.47974 204.672797 
L 105.126393 203.392024 
L 107.773047 202.364534 
L 113.066353 200.836498 
L 115.713007 200.638329 
L 118.35966 200.626654 
L 121.006313 200.105294 
L 123.652967 200.208948 
L 126.29962 199.459784 
L 128.946273 198.562199 
L 134.23958 197.677884 
L 136.886233 197.493083 
L 139.532887 196.800339 
L 142.17954 196.911727 
L 147.472847 196.407313 
L 150.1195 195.582536 
L 155.412807 195.032073 
L 158.05946 194.092669 
L 160.706113 194.385692 
L 163.352767 194.00746 
L 165.99942 193.390859 
L 171.292727 192.583729 
L 176.586033 192.445968 
L 179.232687 191.851148 
L 181.87934 191.986322 
L 187.172647 191.571202 
L 192.465953 190.780824 
L 195.112607 190.78781 
L 197.75926 190.391714 
L 200.405913 190.15059 
L 203.052567 189.774558 
L 205.69922 189.683402 
L 208.345873 189.29961 
L 210.992527 189.169995 
L 213.63918 189.444067 
L 218.932487 188.688086 
L 221.57914 188.489216 
L 224.225793 188.790893 
L 229.5191 188.172988 
L 234.812407 188.01086 
L 237.45906 187.415339 
L 240.105713 187.420319 
L 242.752367 186.913995 
L 245.39902 186.642002 
L 248.045673 186.732723 
L 250.692327 186.493388 
L 261.27894 186.247961 
L 263.925593 186.021389 
L 266.572247 186.165773 
L 269.2189 185.482069 
L 277.15886 185.289364 
L 279.805513 185.327412 
L 282.452167 185.134706 
L 285.09882 185.094289 
L 290.392127 185.40914 
L 293.03878 185.27573 
L 295.685433 185.480329 
L 298.332087 185.076135 
L 303.625393 184.764596 
L 311.565353 184.119762 
L 319.505313 183.997738 
L 322.151967 183.560427 
L 324.79862 183.274318 
L 332.73858 182.958693 
L 335.385233 182.893088 
L 338.031887 182.626849 
L 340.67854 182.715055 
L 345.971847 182.647831 
L 348.6185 182.230415 
L 351.265153 182.11221 
L 353.911807 181.813844 
L 356.55846 182.050714 
L 359.205113 181.885323 
L 361.851767 181.56762 
L 364.49842 181.495513 
L 367.145073 181.126926 
L 369.791727 180.918628 
L 372.43838 181.087065 
L 377.731687 180.990978 
L 380.37834 180.941351 
L 383.024993 181.183006 
L 385.671647 181.026657 
L 388.3183 181.161904 
L 390.964953 180.848358 
L 398.904913 180.383515 
L 404.19822 180.353855 
L 406.844873 180.660438 
L 409.491527 180.386053 
L 412.13818 180.624977 
L 414.784833 180.218293 
L 417.431487 180.330431 
L 420.07814 180.007047 
L 422.724793 179.417061 
L 430.664753 179.752846 
L 433.311407 179.116666 
L 435.95806 179.08732 
L 438.604713 178.558298 
L 441.251367 179.019153 
L 443.89802 179.194671 
L 446.544673 179.574451 
L 451.83798 178.799301 
L 454.484633 178.797923 
L 459.77794 179.109051 
L 465.071247 179.042503 
L 470.364553 178.494796 
L 475.65786 178.599005 
L 478.304513 178.471614 
L 480.951167 178.580827 
L 486.244473 178.084583 
L 488.891127 178.059274 
L 491.53778 177.869107 
L 494.184433 177.980181 
L 499.47774 177.839374 
L 502.124393 177.986296 
L 507.4177 177.822042 
L 510.064353 177.542919 
L 512.711007 177.519157 
L 518.004313 177.780271 
L 520.650967 177.924124 
L 528.590927 177.379317 
L 531.23758 177.486209 
L 533.884233 177.309675 
L 536.530887 177.403296 
L 539.17754 177.611835 
L 544.470847 177.837996 
L 547.1175 178.020984 
L 549.764153 177.75576 
L 552.410807 177.372089 
L 555.05746 177.25693 
L 557.704113 177.510938 
L 560.350767 177.621625 
L 562.99742 177.32442 
L 565.644073 177.334283 
L 570.93738 177.167853 
L 576.230687 177.043653 
L 578.87734 176.76059 
L 581.523993 177.160843 
L 584.170647 177.130023 
L 586.8173 176.750316 
L 592.110607 176.388594 
L 594.75726 176.529957 
L 597.403913 176.470975 
L 602.69722 176.234371 
L 605.343873 176.261711 
L 610.63718 176.622152 
L 615.930487 176.180853 
L 618.57714 175.92873 
L 621.223793 175.922711 
L 623.870447 175.768561 
L 626.5171 175.495239 
L 629.163753 175.759351 
L 631.810407 175.492338 
L 634.45706 175.567588 
L 639.750367 175.187954 
L 642.39702 174.913472 
L 645.043673 174.920506 
L 647.690327 174.714022 
L 650.33698 174.878881 
L 655.630287 174.595841 
L 658.27694 174.697174 
L 660.923593 174.55233 
L 663.570247 174.690188 
L 666.2169 174.986377 
L 668.863553 174.932544 
L 671.510207 174.634566 
L 674.15686 174.49052 
L 676.803513 174.46671 
L 682.09682 174.581192 
L 684.743473 174.153696 
L 690.03678 174.114875 
L 692.683433 173.978758 
L 695.330087 174.121885 
L 697.97674 173.907327 
L 700.623393 174.235884 
L 705.9167 174.277558 
L 708.563353 174.053572 
L 711.210007 174.16426 
L 713.85666 173.866886 
L 719.149967 174.517811 
L 721.79662 174.292424 
L 724.443273 174.441159 
L 727.089927 174.46086 
L 735.029887 174.220752 
L 737.67654 174.356361 
L 748.263153 174.33915 
L 750.909807 174.400331 
L 753.55646 174.331656 
L 756.203113 174.380751 
L 758.849767 174.173566 
L 761.49642 173.802127 
L 764.143073 173.650056 
L 766.789727 173.653875 
L 769.43638 173.476326 
L 772.083033 173.54268 
L 774.729687 173.323094 
L 777.37634 173.341465 
L 780.022993 173.189708 
L 782.669647 173.373881 
L 787.962953 173.370159 
L 798.549567 172.986584 
L 803.842873 173.055525 
L 811.782833 172.970002 
L 814.429487 172.903623 
L 817.07614 173.061351 
L 819.722793 172.807464 
L 822.369447 172.857791 
L 825.0161 173.049724 
L 827.662753 172.836278 
L 830.309407 173.045131 
L 840.89602 172.482339 
L 843.542673 172.564092 
L 843.542673 172.564092 
" clip-path="url(#p17b90922d3)" style="fill: none; stroke: #0000ff; stroke-width: 1.5; stroke-linecap: square"/>
   </g>
   <g id="patch_3">
    <path d="M 50.87 390.04 
L 50.87 43.44 
" style="fill: none; stroke: #000000; stroke-width: 0.8; stroke-linejoin: miter; stroke-linecap: square"/>
   </g>
   <g id="patch_4">
    <path d="M 844.866 390.04 
L 844.866 43.44 
" style="fill: none; stroke: #000000; stroke-width: 0.8; stroke-linejoin: miter; stroke-linecap: square"/>
   </g>
   <g id="patch_5">
    <path d="M 50.87 390.04 
L 844.866 390.04 
" style="fill: none; stroke: #000000; stroke-width: 0.8; stroke-linejoin: miter; stroke-linecap: square"/>
   </g>
   <g id="patch_6">
    <path d="M 50.87 43.44 
L 844.866 43.44 
" style="fill: none; stroke: #000000; stroke-width: 0.8; stroke-linejoin: miter; stroke-linecap: square"/>
   </g>
   <g id="text_15">
    <!-- Mean profit per step with confidence interval per simulation step -->
    <g transform="translate(220.284875 21.763062) scale(0.14 -0.14)">
     <defs>
      <path id="DejaVuSans-4d" d="M 628 4666 
L 1569 4666 
L 2759 1491 
L 3956 4666 
L 4897 4666 
L 4897 0 
L 4281 0 
L 4281 4097 
L 3078 897 
L 2444 897 
L 1241 4097 
L 1241 0 
L 628 0 
L 628 4666 
z
" transform="scale(0.015625)"/>
      <path id="DejaVuSans-61" d="M 2194 1759 
Q 1497 1759 1228 1600 
Q 959 1441 959 1056 
Q 959 750 1161 570 
Q 1363 391 1709 391 
Q 2188 391 2477 730 
Q 2766 1069 2766 1631 
L 2766 1759 
L 2194 1759 
z
M 3341 1997 
L 3341 0 
L 2766 0 
L 2766 531 
Q 2569 213 2275 61 
Q 1981 -91 1556 -91 
Q 1019 -91 701 211 
Q 384 513 384 1019 
Q 384 1609 779 1909 
Q 1175 2209 1959 2209 
L 2766 2209 
L 2766 2266 
Q 2766 2663 2505 2880 
Q 2244 3097 1772 3097 
Q 1472 3097 1187 3025 
Q 903 2953 641 2809 
L 641 3341 
Q 956 3463 1253 3523 
Q 1550 3584 1831 3584 
Q 2591 3584 2966 3190 
Q 3341 2797 3341 1997 
z
" transform="scale(0.015625)"/>
      <path id="DejaVuSans-6e" d="M 3513 2113 
L 3513 0 
L 2938 0 
L 2938 2094 
Q 2938 2591 2744 2837 
Q 2550 3084 2163 3084 
Q 1697 3084 1428 2787 
Q 1159 2491 1159 1978 
L 1159 0 
L 581 0 
L 581 3500 
L 1159 3500 
L 1159 2956 
Q 1366 3272 1645 3428 
Q 1925 3584 2291 3584 
Q 2894 3584 3203 3211 
Q 3513 2838 3513 2113 
z
" transform="scale(0.015625)"/>
      <path id="DejaVuSans-20" transform="scale(0.015625)"/>
      <path id="DejaVuSans-73" d="M 2834 3397 
L 2834 2853 
Q 2591 2978 2328 3040 
Q 2066 3103 1784 3103 
Q 1356 3103 1142 2972 
Q 928 2841 928 2578 
Q 928 2378 1081 2264 
Q 1234 2150 1697 2047 
L 1894 2003 
Q 2506 1872 2764 1633 
Q 3022 1394 3022 966 
Q 3022 478 2636 193 
Q 2250 -91 1575 -91 
Q 1294 -91 989 -36 
Q 684 19 347 128 
L 347 722 
Q 666 556 975 473 
Q 1284 391 1588 391 
Q 1994 391 2212 530 
Q 2431 669 2431 922 
Q 2431 1156 2273 1281 
Q 2116 1406 1581 1522 
L 1381 1569 
Q 847 1681 609 1914 
Q 372 2147 372 2553 
Q 372 3047 722 3315 
Q 1072 3584 1716 3584 
Q 2034 3584 2315 3537 
Q 2597 3491 2834 3397 
z
" transform="scale(0.015625)"/>
      <path id="DejaVuSans-77" d="M 269 3500 
L 844 3500 
L 1563 769 
L 2278 3500 
L 2956 3500 
L 3675 769 
L 4391 3500 
L 4966 3500 
L 4050 0 
L 3372 0 
L 2619 2869 
L 1863 0 
L 1184 0 
L 269 3500 
z
" transform="scale(0.015625)"/>
      <path id="DejaVuSans-68" d="M 3513 2113 
L 3513 0 
L 2938 0 
L 2938 2094 
Q 2938 2591 2744 2837 
Q 2550 3084 2163 3084 
Q 1697 3084 1428 2787 
Q 1159 2491 1159 1978 
L 1159 0 
L 581 0 
L 581 4863 
L 1159 4863 
L 1159 2956 
Q 1366 3272 1645 3428 
Q 1925 3584 2291 3584 
Q 2894 3584 3203 3211 
Q 3513 2838 3513 2113 
z
" transform="scale(0.015625)"/>
      <path id="DejaVuSans-63" d="M 3122 3366 
L 3122 2828 
Q 2878 2963 2633 3030 
Q 2388 3097 2138 3097 
Q 1578 3097 1268 2742 
Q 959 2388 959 1747 
Q 959 1106 1268 751 
Q 1578 397 2138 397 
Q 2388 397 2633 464 
Q 2878 531 3122 666 
L 3122 134 
Q 2881 22 2623 -34 
Q 2366 -91 2075 -91 
Q 1284 -91 818 406 
Q 353 903 353 1747 
Q 353 2603 823 3093 
Q 1294 3584 2113 3584 
Q 2378 3584 2631 3529 
Q 2884 3475 3122 3366 
z
" transform="scale(0.015625)"/>
      <path id="DejaVuSans-64" d="M 2906 2969 
L 2906 4863 
L 3481 4863 
L 3481 0 
L 2906 0 
L 2906 525 
Q 2725 213 2448 61 
Q 2172 -91 1784 -91 
Q 1150 -91 751 415 
Q 353 922 353 1747 
Q 353 2572 751 3078 
Q 1150 3584 1784 3584 
Q 2172 3584 2448 3432 
Q 2725 3281 2906 2969 
z
M 947 1747 
Q 947 1113 1208 752 
Q 1469 391 1925 391 
Q 2381 391 2643 752 
Q 2906 1113 2906 1747 
Q 2906 2381 2643 2742 
Q 2381 3103 1925 3103 
Q 1469 3103 1208 2742 
Q 947 2381 947 1747 
z
" transform="scale(0.015625)"/>
      <path id="DejaVuSans-76" d="M 191 3500 
L 800 3500 
L 1894 563 
L 2988 3500 
L 3597 3500 
L 2284 0 
L 1503 0 
L 191 3500 
z
" transform="scale(0.015625)"/>
      <path id="DejaVuSans-6c" d="M 603 4863 
L 1178 4863 
L 1178 0 
L 603 0 
L 603 4863 
z
" transform="scale(0.015625)"/>
      <path id="DejaVuSans-6d" d="M 3328 2828 
Q 3544 3216 3844 3400 
Q 4144 3584 4550 3584 
Q 5097 3584 5394 3201 
Q 5691 2819 5691 2113 
L 5691 0 
L 5113 0 
L 5113 2094 
Q 5113 2597 4934 2840 
Q 4756 3084 4391 3084 
Q 3944 3084 3684 2787 
Q 3425 2491 3425 1978 
L 3425 0 
L 2847 0 
L 2847 2094 
Q 2847 2600 2669 2842 
Q 2491 3084 2119 3084 
Q 1678 3084 1418 2786 
Q 1159 2488 1159 1978 
L 1159 0 
L 581 0 
L 581 3500 
L 1159 3500 
L 1159 2956 
Q 1356 3278 1631 3431 
Q 1906 3584 2284 3584 
Q 2666 3584 2933 3390 
Q 3200 3197 3328 2828 
z
" transform="scale(0.015625)"/>
      <path id="DejaVuSans-75" d="M 544 1381 
L 544 3500 
L 1119 3500 
L 1119 1403 
Q 1119 906 1312 657 
Q 1506 409 1894 409 
Q 2359 409 2629 706 
Q 2900 1003 2900 1516 
L 2900 3500 
L 3475 3500 
L 3475 0 
L 2900 0 
L 2900 538 
Q 2691 219 2414 64 
Q 2138 -91 1772 -91 
Q 1169 -91 856 284 
Q 544 659 544 1381 
z
M 1991 3584 
L 1991 3584 
z
" transform="scale(0.015625)"/>
     </defs>
     <use xlink:href="#DejaVuSans-4d"/>
     <use xlink:href="#DejaVuSans-65" transform="translate(86.279297 0)"/>
     <use xlink:href="#DejaVuSans-61" transform="translate(147.802734 0)"/>
     <use xlink:href="#DejaVuSans-6e" transform="translate(209.082031 0)"/>
     <use xlink:href="#DejaVuSans-20" transform="translate(272.460938 0)"/>
     <use xlink:href="#DejaVuSans-70" transform="translate(304.248047 0)"/>
     <use xlink:href="#DejaVuSans-72" transform="translate(367.724609 0)"/>
     <use xlink:href="#DejaVuSans-6f" transform="translate(406.587891 0)"/>
     <use xlink:href="#DejaVuSans-66" transform="translate(467.769531 0)"/>
     <use xlink:href="#DejaVuSans-69" transform="translate(502.974609 0)"/>
     <use xlink:href="#DejaVuSans-74" transform="translate(530.757812 0)"/>
     <use xlink:href="#DejaVuSans-20" transform="translate(569.966797 0)"/>
     <use xlink:href="#DejaVuSans-70" transform="translate(601.753906 0)"/>
     <use xlink:href="#DejaVuSans-65" transform="translate(665.230469 0)"/>
     <use xlink:href="#DejaVuSans-72" transform="translate(726.753906 0)"/>
     <use xlink:href="#DejaVuSans-20" transform="translate(767.867188 0)"/>
     <use xlink:href="#DejaVuSans-73" transform="translate(799.654297 0)"/>
     <use xlink:href="#DejaVuSans-74" transform="translate(851.753906 0)"/>
     <use xlink:href="#DejaVuSans-65" transform="translate(890.962891 0)"/>
     <use xlink:href="#DejaVuSans-70" transform="translate(952.486328 0)"/>
     <use xlink:href="#DejaVuSans-20" transform="translate(1015.962891 0)"/>
     <use xlink:href="#DejaVuSans-77" transform="translate(1047.75 0)"/>
     <use xlink:href="#DejaVuSans-69" transform="translate(1129.537109 0)"/>
     <use xlink:href="#DejaVuSans-74" transform="translate(1157.320312 0)"/>
     <use xlink:href="#DejaVuSans-68" transform="translate(1196.529297 0)"/>
     <use xlink:href="#DejaVuSans-20" transform="translate(1259.908203 0)"/>
     <use xlink:href="#DejaVuSans-63" transform="translate(1291.695312 0)"/>
     <use xlink:href="#DejaVuSans-6f" transform="translate(1346.675781 0)"/>
     <use xlink:href="#DejaVuSans-6e" transform="translate(1407.857422 0)"/>
     <use xlink:href="#DejaVuSans-66" transform="translate(1471.236328 0)"/>
     <use xlink:href="#DejaVuSans-69" transform="translate(1506.441406 0)"/>
     <use xlink:href="#DejaVuSans-64" transform="translate(1534.224609 0)"/>
     <use xlink:href="#DejaVuSans-65" transform="translate(1597.701172 0)"/>
     <use xlink:href="#DejaVuSans-6e" transform="translate(1659.224609 0)"/>
     <use xlink:href="#DejaVuSans-63" transform="translate(1722.603516 0)"/>
     <use xlink:href="#DejaVuSans-65" transform="translate(1777.583984 0)"/>
     <use xlink:href="#DejaVuSans-20" transform="translate(1839.107422 0)"/>
     <use xlink:href="#DejaVuSans-69" transform="translate(1870.894531 0)"/>
     <use xlink:href="#DejaVuSans-6e" transform="translate(1898.677734 0)"/>
     <use xlink:href="#DejaVuSans-74" transform="translate(1962.056641 0)"/>
     <use xlink:href="#DejaVuSans-65" transform="translate(2001.265625 0)"/>
     <use xlink:href="#DejaVuSans-72" transform="translate(2062.789062 0)"/>
     <use xlink:href="#DejaVuSans-76" transform="translate(2103.902344 0)"/>
     <use xlink:href="#DejaVuSans-61" transform="translate(2163.082031 0)"/>
     <use xlink:href="#DejaVuSans-6c" transform="translate(2224.361328 0)"/>
     <use xlink:href="#DejaVuSans-20" transform="translate(2252.144531 0)"/>
     <use xlink:href="#DejaVuSans-70" transform="translate(2283.931641 0)"/>
     <use xlink:href="#DejaVuSans-65" transform="translate(2347.408203 0)"/>
     <use xlink:href="#DejaVuSans-72" transform="translate(2408.931641 0)"/>
     <use xlink:href="#DejaVuSans-20" transform="translate(2450.044922 0)"/>
     <use xlink:href="#DejaVuSans-73" transform="translate(2481.832031 0)"/>
     <use xlink:href="#DejaVuSans-69" transform="translate(2533.931641 0)"/>
     <use xlink:href="#DejaVuSans-6d" transform="translate(2561.714844 0)"/>
     <use xlink:href="#DejaVuSans-75" transform="translate(2659.126953 0)"/>
     <use xlink:href="#DejaVuSans-6c" transform="translate(2722.505859 0)"/>
     <use xlink:href="#DejaVuSans-61" transform="translate(2750.289062 0)"/>
     <use xlink:href="#DejaVuSans-74" transform="translate(2811.568359 0)"/>
     <use xlink:href="#DejaVuSans-69" transform="translate(2850.777344 0)"/>
     <use xlink:href="#DejaVuSans-6f" transform="translate(2878.560547 0)"/>
     <use xlink:href="#DejaVuSans-6e" transform="translate(2939.742188 0)"/>
     <use xlink:href="#DejaVuSans-20" transform="translate(3003.121094 0)"/>
     <use xlink:href="#DejaVuSans-73" transform="translate(3034.908203 0)"/>
     <use xlink:href="#DejaVuSans-74" transform="translate(3087.007812 0)"/>
     <use xlink:href="#DejaVuSans-65" transform="translate(3126.216797 0)"/>
     <use xlink:href="#DejaVuSans-70" transform="translate(3187.740234 0)"/>
    </g>
    <!-- Base Product: Sour Diesel, Recipe size: 9, T0: 50.0 -->
    <g transform="translate(271.602531 37.44) scale(0.14 -0.14)">
     <defs>
      <path id="DejaVuSans-42" d="M 1259 2228 
L 1259 519 
L 2272 519 
Q 2781 519 3026 730 
Q 3272 941 3272 1375 
Q 3272 1813 3026 2020 
Q 2781 2228 2272 2228 
L 1259 2228 
z
M 1259 4147 
L 1259 2741 
L 2194 2741 
Q 2656 2741 2882 2914 
Q 3109 3088 3109 3444 
Q 3109 3797 2882 3972 
Q 2656 4147 2194 4147 
L 1259 4147 
z
M 628 4666 
L 2241 4666 
Q 2963 4666 3353 4366 
Q 3744 4066 3744 3513 
Q 3744 3084 3544 2831 
Q 3344 2578 2956 2516 
Q 3422 2416 3680 2098 
Q 3938 1781 3938 1306 
Q 3938 681 3513 340 
Q 3088 0 2303 0 
L 628 0 
L 628 4666 
z
" transform="scale(0.015625)"/>
      <path id="DejaVuSans-3a" d="M 750 794 
L 1409 794 
L 1409 0 
L 750 0 
L 750 794 
z
M 750 3309 
L 1409 3309 
L 1409 2516 
L 750 2516 
L 750 3309 
z
" transform="scale(0.015625)"/>
      <path id="DejaVuSans-44" d="M 1259 4147 
L 1259 519 
L 2022 519 
Q 2988 519 3436 956 
Q 3884 1394 3884 2338 
Q 3884 3275 3436 3711 
Q 2988 4147 2022 4147 
L 1259 4147 
z
M 628 4666 
L 1925 4666 
Q 3281 4666 3915 4102 
Q 4550 3538 4550 2338 
Q 4550 1131 3912 565 
Q 3275 0 1925 0 
L 628 0 
L 628 4666 
z
" transform="scale(0.015625)"/>
      <path id="DejaVuSans-2c" d="M 750 794 
L 1409 794 
L 1409 256 
L 897 -744 
L 494 -744 
L 750 256 
L 750 794 
z
" transform="scale(0.015625)"/>
      <path id="DejaVuSans-52" d="M 2841 2188 
Q 3044 2119 3236 1894 
Q 3428 1669 3622 1275 
L 4263 0 
L 3584 0 
L 2988 1197 
Q 2756 1666 2539 1819 
Q 2322 1972 1947 1972 
L 1259 1972 
L 1259 0 
L 628 0 
L 628 4666 
L 2053 4666 
Q 2853 4666 3247 4331 
Q 3641 3997 3641 3322 
Q 3641 2881 3436 2590 
Q 3231 2300 2841 2188 
z
M 1259 4147 
L 1259 2491 
L 2053 2491 
Q 2509 2491 2742 2702 
Q 2975 2913 2975 3322 
Q 2975 3731 2742 3939 
Q 2509 4147 2053 4147 
L 1259 4147 
z
" transform="scale(0.015625)"/>
      <path id="DejaVuSans-7a" d="M 353 3500 
L 3084 3500 
L 3084 2975 
L 922 459 
L 3084 459 
L 3084 0 
L 275 0 
L 275 525 
L 2438 3041 
L 353 3041 
L 353 3500 
z
" transform="scale(0.015625)"/>
      <path id="DejaVuSans-39" d="M 703 97 
L 703 672 
Q 941 559 1184 500 
Q 1428 441 1663 441 
Q 2288 441 2617 861 
Q 2947 1281 2994 2138 
Q 2813 1869 2534 1725 
Q 2256 1581 1919 1581 
Q 1219 1581 811 2004 
Q 403 2428 403 3163 
Q 403 3881 828 4315 
Q 1253 4750 1959 4750 
Q 2769 4750 3195 4129 
Q 3622 3509 3622 2328 
Q 3622 1225 3098 567 
Q 2575 -91 1691 -91 
Q 1453 -91 1209 -44 
Q 966 3 703 97 
z
M 1959 2075 
Q 2384 2075 2632 2365 
Q 2881 2656 2881 3163 
Q 2881 3666 2632 3958 
Q 2384 4250 1959 4250 
Q 1534 4250 1286 3958 
Q 1038 3666 1038 3163 
Q 1038 2656 1286 2365 
Q 1534 2075 1959 2075 
z
" transform="scale(0.015625)"/>
      <path id="DejaVuSans-54" d="M -19 4666 
L 3928 4666 
L 3928 4134 
L 2272 4134 
L 2272 0 
L 1638 0 
L 1638 4134 
L -19 4134 
L -19 4666 
z
" transform="scale(0.015625)"/>
      <path id="DejaVuSans-2e" d="M 684 794 
L 1344 794 
L 1344 0 
L 684 0 
L 684 794 
z
" transform="scale(0.015625)"/>
     </defs>
     <use xlink:href="#DejaVuSans-42"/>
     <use xlink:href="#DejaVuSans-61" transform="translate(68.603516 0)"/>
     <use xlink:href="#DejaVuSans-73" transform="translate(129.882812 0)"/>
     <use xlink:href="#DejaVuSans-65" transform="translate(181.982422 0)"/>
     <use xlink:href="#DejaVuSans-20" transform="translate(243.505859 0)"/>
     <use xlink:href="#DejaVuSans-50" transform="translate(275.292969 0)"/>
     <use xlink:href="#DejaVuSans-72" transform="translate(333.845703 0)"/>
     <use xlink:href="#DejaVuSans-6f" transform="translate(372.708984 0)"/>
     <use xlink:href="#DejaVuSans-64" transform="translate(433.890625 0)"/>
     <use xlink:href="#DejaVuSans-75" transform="translate(497.367188 0)"/>
     <use xlink:href="#DejaVuSans-63" transform="translate(560.746094 0)"/>
     <use xlink:href="#DejaVuSans-74" transform="translate(615.726562 0)"/>
     <use xlink:href="#DejaVuSans-3a" transform="translate(654.935547 0)"/>
     <use xlink:href="#DejaVuSans-20" transform="translate(688.626953 0)"/>
     <use xlink:href="#DejaVuSans-53" transform="translate(720.414062 0)"/>
     <use xlink:href="#DejaVuSans-6f" transform="translate(783.890625 0)"/>
     <use xlink:href="#DejaVuSans-75" transform="translate(845.072266 0)"/>
     <use xlink:href="#DejaVuSans-72" transform="translate(908.451172 0)"/>
     <use xlink:href="#DejaVuSans-20" transform="translate(949.564453 0)"/>
     <use xlink:href="#DejaVuSans-44" transform="translate(981.351562 0)"/>
     <use xlink:href="#DejaVuSans-69" transform="translate(1058.353516 0)"/>
     <use xlink:href="#DejaVuSans-65" transform="translate(1086.136719 0)"/>
     <use xlink:href="#DejaVuSans-73" transform="translate(1147.660156 0)"/>
     <use xlink:href="#DejaVuSans-65" transform="translate(1199.759766 0)"/>
     <use xlink:href="#DejaVuSans-6c" transform="translate(1261.283203 0)"/>
     <use xlink:href="#DejaVuSans-2c" transform="translate(1289.066406 0)"/>
     <use xlink:href="#DejaVuSans-20" transform="translate(1320.853516 0)"/>
     <use xlink:href="#DejaVuSans-52" transform="translate(1352.640625 0)"/>
     <use xlink:href="#DejaVuSans-65" transform="translate(1417.623047 0)"/>
     <use xlink:href="#DejaVuSans-63" transform="translate(1479.146484 0)"/>
     <use xlink:href="#DejaVuSans-69" transform="translate(1534.126953 0)"/>
     <use xlink:href="#DejaVuSans-70" transform="translate(1561.910156 0)"/>
     <use xlink:href="#DejaVuSans-65" transform="translate(1625.386719 0)"/>
     <use xlink:href="#DejaVuSans-20" transform="translate(1686.910156 0)"/>
     <use xlink:href="#DejaVuSans-73" transform="translate(1718.697266 0)"/>
     <use xlink:href="#DejaVuSans-69" transform="translate(1770.796875 0)"/>
     <use xlink:href="#DejaVuSans-7a" transform="translate(1798.580078 0)"/>
     <use xlink:href="#DejaVuSans-65" transform="translate(1851.070312 0)"/>
     <use xlink:href="#DejaVuSans-3a" transform="translate(1912.59375 0)"/>
     <use xlink:href="#DejaVuSans-20" transform="translate(1946.285156 0)"/>
     <use xlink:href="#DejaVuSans-39" transform="translate(1978.072266 0)"/>
     <use xlink:href="#DejaVuSans-2c" transform="translate(2041.695312 0)"/>
     <use xlink:href="#DejaVuSans-20" transform="translate(2073.482422 0)"/>
     <use xlink:href="#DejaVuSans-54" transform="translate(2105.269531 0)"/>
     <use xlink:href="#DejaVuSans-30" transform="translate(2166.353516 0)"/>
     <use xlink:href="#DejaVuSans-3a" transform="translate(2229.976562 0)"/>
     <use xlink:href="#DejaVuSans-20" transform="translate(2263.667969 0)"/>
     <use xlink:href="#DejaVuSans-35" transform="translate(2295.455078 0)"/>
     <use xlink:href="#DejaVuSans-30" transform="translate(2359.078125 0)"/>
     <use xlink:href="#DejaVuSans-2e" transform="translate(2422.701172 0)"/>
     <use xlink:href="#DejaVuSans-30" transform="translate(2454.488281 0)"/>
    </g>
   </g>
  </g>
 </g>
 <defs>
  <clipPath id="p17b90922d3">
   <rect x="50.87" y="43.44" width="793.996" height="346.6"/>
  </clipPath>
 </defs>
</svg>
