<?xml version="1.0" encoding="utf-8" standalone="no"?>
<!DOCTYPE svg PUBLIC "-//W3C//DTD SVG 1.1//EN"
  "http://www.w3.org/Graphics/SVG/1.1/DTD/svg11.dtd">
<svg xmlns:xlink="http://www.w3.org/1999/xlink" width="864pt" height="432pt" viewBox="0 0 864 432" xmlns="http://www.w3.org/2000/svg" version="1.1">
 <metadata>
  <rdf:RDF xmlns:dc="http://purl.org/dc/elements/1.1/" xmlns:cc="http://creativecommons.org/ns#" xmlns:rdf="http://www.w3.org/1999/02/22-rdf-syntax-ns#">
   <cc:Work>
    <dc:type rdf:resource="http://purl.org/dc/dcmitype/StillImage"/>
    <dc:date>2025-05-24T02:05:45.372054</dc:date>
    <dc:format>image/svg+xml</dc:format>
    <dc:creator>
     <cc:Agent>
      <dc:title>Matplotlib v3.10.3, https://matplotlib.org/</dc:title>
     </cc:Agent>
    </dc:creator>
   </cc:Work>
  </rdf:RDF>
 </metadata>
 <defs>
  <style type="text/css">*{stroke-linejoin: round; stroke-linecap: butt}</style>
 </defs>
 <g id="figure_1">
  <g id="patch_1">
   <path d="M 0 432 
L 864 432 
L 864 0 
L 0 0 
z
" style="fill: #ffffff"/>
  </g>
  <g id="axes_1">
   <g id="patch_2">
    <path d="M 50.87 390.04 
L 844.866 390.04 
L 844.866 43.44 
L 50.87 43.44 
z
" style="fill: #ffffff"/>
   </g>
   <g id="FillBetweenPolyCollection_1">
    <defs>
     <path id="m5dea5c92a3" d="M 52.193327 -312.292669 
L 52.193327 -58.00058 
L 54.83998 -57.714545 
L 57.486633 -73.451592 
L 60.133287 -87.194901 
L 62.77994 -99.860724 
L 65.426593 -112.268913 
L 68.073247 -123.026569 
L 70.7199 -131.645589 
L 73.366553 -139.679576 
L 76.013207 -145.438598 
L 78.65986 -151.723899 
L 81.306513 -157.279953 
L 83.953167 -162.451055 
L 86.59982 -167.371061 
L 89.246473 -172.015693 
L 91.893127 -176.212518 
L 94.53978 -180.171324 
L 97.186433 -183.580529 
L 99.833087 -186.77307 
L 102.47974 -189.73358 
L 105.126393 -192.469024 
L 107.773047 -194.609391 
L 110.4197 -197.305851 
L 113.066353 -199.670296 
L 115.713007 -201.589101 
L 118.35966 -203.811186 
L 121.006313 -205.589429 
L 123.652967 -207.199675 
L 126.29962 -208.954753 
L 128.946273 -210.510895 
L 131.592927 -212.124107 
L 134.23958 -213.673711 
L 136.886233 -214.88285 
L 139.532887 -216.206264 
L 142.17954 -217.504087 
L 144.826193 -218.359438 
L 147.472847 -219.629871 
L 150.1195 -220.885948 
L 152.766153 -221.916373 
L 155.412807 -223.030741 
L 158.05946 -224.124729 
L 160.706113 -225.097815 
L 163.352767 -225.995946 
L 165.99942 -227.051065 
L 168.646073 -227.93913 
L 171.292727 -228.637382 
L 173.93938 -229.704678 
L 176.586033 -230.436161 
L 179.232687 -231.206919 
L 181.87934 -231.980867 
L 184.525993 -232.593649 
L 187.172647 -233.437631 
L 189.8193 -234.276153 
L 192.465953 -235.34345 
L 195.112607 -235.908194 
L 197.75926 -236.350059 
L 200.405913 -236.947921 
L 203.052567 -237.564141 
L 205.69922 -238.170812 
L 208.345873 -238.758249 
L 210.992527 -239.344226 
L 213.63918 -239.978016 
L 216.285833 -240.514742 
L 218.932487 -241.147791 
L 221.57914 -241.485357 
L 224.225793 -241.997593 
L 226.872447 -242.654862 
L 229.5191 -243.137754 
L 232.165753 -243.620601 
L 234.812407 -243.947022 
L 237.45906 -244.445844 
L 240.105713 -244.930174 
L 242.752367 -245.332921 
L 245.39902 -245.725557 
L 248.045673 -246.186857 
L 250.692327 -246.670827 
L 253.33898 -246.986464 
L 255.985633 -247.371528 
L 258.632287 -247.732978 
L 261.27894 -248.146016 
L 263.925593 -248.432444 
L 266.572247 -248.867388 
L 269.2189 -249.24643 
L 271.865553 -249.583817 
L 274.512207 -249.935448 
L 277.15886 -250.240187 
L 279.805513 -250.533603 
L 282.452167 -250.967087 
L 285.09882 -251.378372 
L 287.745473 -251.676303 
L 290.392127 -252.003309 
L 293.03878 -252.177327 
L 295.685433 -252.466833 
L 298.332087 -252.735601 
L 300.97874 -253.128394 
L 303.625393 -253.446659 
L 306.272047 -253.694329 
L 308.9187 -253.90214 
L 311.565353 -254.223214 
L 314.212007 -254.443787 
L 316.85866 -254.641397 
L 319.505313 -254.831345 
L 322.151967 -254.963931 
L 324.79862 -255.311608 
L 327.445273 -255.506904 
L 330.091927 -255.772571 
L 332.73858 -255.993952 
L 335.385233 -256.167341 
L 338.031887 -256.33736 
L 340.67854 -256.482192 
L 343.325193 -256.689396 
L 345.971847 -256.93046 
L 348.6185 -257.293999 
L 351.265153 -257.458221 
L 353.911807 -257.604243 
L 356.55846 -257.823041 
L 359.205113 -257.919745 
L 361.851767 -258.167393 
L 364.49842 -258.312853 
L 367.145073 -258.510396 
L 369.791727 -258.745663 
L 372.43838 -258.833897 
L 375.085033 -258.973538 
L 377.731687 -259.188179 
L 380.37834 -259.369005 
L 383.024993 -259.547742 
L 385.671647 -259.786514 
L 388.3183 -259.929031 
L 390.964953 -260.151716 
L 393.611607 -260.389882 
L 396.25826 -260.660716 
L 398.904913 -260.905038 
L 401.551567 -261.170413 
L 404.19822 -261.253029 
L 406.844873 -261.551702 
L 409.491527 -261.650384 
L 412.13818 -261.79171 
L 414.784833 -262.068072 
L 417.431487 -262.252898 
L 420.07814 -262.334908 
L 422.724793 -262.462169 
L 425.371447 -262.578488 
L 428.0181 -262.761583 
L 430.664753 -262.883834 
L 433.311407 -263.116854 
L 435.95806 -263.224995 
L 438.604713 -263.346684 
L 441.251367 -263.521039 
L 443.89802 -263.675487 
L 446.544673 -263.749903 
L 449.191327 -263.884287 
L 451.83798 -263.983889 
L 454.484633 -264.218527 
L 457.131287 -264.448582 
L 459.77794 -264.636126 
L 462.424593 -264.677917 
L 465.071247 -264.862698 
L 467.7179 -264.922419 
L 470.364553 -265.100391 
L 473.011207 -265.222597 
L 475.65786 -265.355498 
L 478.304513 -265.421645 
L 480.951167 -265.46083 
L 483.59782 -265.66026 
L 486.244473 -265.873778 
L 488.891127 -266.03063 
L 491.53778 -266.135782 
L 494.184433 -266.332179 
L 496.831087 -266.491413 
L 499.47774 -266.588095 
L 502.124393 -266.716502 
L 504.771047 -266.877736 
L 507.4177 -267.021848 
L 510.064353 -267.124125 
L 512.711007 -267.266754 
L 515.35766 -267.308366 
L 518.004313 -267.456051 
L 520.650967 -267.564618 
L 523.29762 -267.66867 
L 525.944273 -267.808356 
L 528.590927 -267.911733 
L 531.23758 -268.001248 
L 533.884233 -268.138215 
L 536.530887 -268.361147 
L 539.17754 -268.403815 
L 541.824193 -268.457784 
L 544.470847 -268.577698 
L 547.1175 -268.67602 
L 549.764153 -268.877405 
L 552.410807 -268.962538 
L 555.05746 -269.168843 
L 557.704113 -269.297273 
L 560.350767 -269.345086 
L 562.99742 -269.422197 
L 565.644073 -269.515823 
L 568.290727 -269.578757 
L 570.93738 -269.629491 
L 573.584033 -269.677776 
L 576.230687 -269.755247 
L 578.87734 -269.899337 
L 581.523993 -270.012668 
L 584.170647 -270.109395 
L 586.8173 -270.242408 
L 589.463953 -270.344684 
L 592.110607 -270.46916 
L 594.75726 -270.583749 
L 597.403913 -270.677981 
L 600.050567 -270.813354 
L 602.69722 -270.8074 
L 605.343873 -270.918753 
L 607.990527 -271.012402 
L 610.63718 -271.089266 
L 613.283833 -271.21855 
L 615.930487 -271.340778 
L 618.57714 -271.494979 
L 621.223793 -271.664728 
L 623.870447 -271.799404 
L 626.5171 -271.884492 
L 629.163753 -271.964974 
L 631.810407 -272.08017 
L 634.45706 -272.223428 
L 637.103713 -272.254749 
L 639.750367 -272.287576 
L 642.39702 -272.326064 
L 645.043673 -272.440788 
L 647.690327 -272.480647 
L 650.33698 -272.570386 
L 652.983633 -272.602381 
L 655.630287 -272.701602 
L 658.27694 -272.792689 
L 660.923593 -272.83857 
L 663.570247 -272.886203 
L 666.2169 -273.02371 
L 668.863553 -273.094395 
L 671.510207 -273.142927 
L 674.15686 -273.262235 
L 676.803513 -273.347165 
L 679.450167 -273.370757 
L 682.09682 -273.391338 
L 684.743473 -273.505186 
L 687.390127 -273.563469 
L 690.03678 -273.736162 
L 692.683433 -273.81925 
L 695.330087 -273.923369 
L 697.97674 -274.041395 
L 700.623393 -274.088018 
L 703.270047 -274.136639 
L 705.9167 -274.139875 
L 708.563353 -274.199079 
L 711.210007 -274.259474 
L 713.85666 -274.359324 
L 716.503313 -274.440929 
L 719.149967 -274.452928 
L 721.79662 -274.500291 
L 724.443273 -274.555114 
L 727.089927 -274.632046 
L 729.73658 -274.74158 
L 732.383233 -274.817995 
L 735.029887 -274.887265 
L 737.67654 -274.968129 
L 740.323193 -275.039669 
L 742.969847 -275.058857 
L 745.6165 -275.09193 
L 748.263153 -275.124802 
L 750.909807 -275.121544 
L 753.55646 -275.21636 
L 756.203113 -275.327085 
L 758.849767 -275.394445 
L 761.49642 -275.424755 
L 764.143073 -275.525526 
L 766.789727 -275.567318 
L 769.43638 -275.631847 
L 772.083033 -275.708082 
L 774.729687 -275.734146 
L 777.37634 -275.869968 
L 780.022993 -275.888864 
L 782.669647 -275.900165 
L 785.3163 -275.966177 
L 787.962953 -276.018394 
L 790.609607 -276.082654 
L 793.25626 -276.139117 
L 795.902913 -276.233911 
L 798.549567 -276.3201 
L 801.19622 -276.419231 
L 803.842873 -276.500073 
L 806.489527 -276.612437 
L 809.13618 -276.704356 
L 811.782833 -276.76583 
L 814.429487 -276.845817 
L 817.07614 -276.941915 
L 819.722793 -276.961732 
L 822.369447 -276.98301 
L 825.0161 -277.081197 
L 827.662753 -277.192752 
L 830.309407 -277.248991 
L 832.95606 -277.346751 
L 835.602713 -277.377848 
L 838.249367 -277.38169 
L 840.89602 -277.49556 
L 843.542673 -277.555124 
L 843.542673 -372.805455 
L 843.542673 -372.805455 
L 840.89602 -372.782132 
L 838.249367 -372.786446 
L 835.602713 -372.750362 
L 832.95606 -372.697022 
L 830.309407 -372.728612 
L 827.662753 -372.715985 
L 825.0161 -372.730994 
L 822.369447 -372.742723 
L 819.722793 -372.69846 
L 817.07614 -372.59506 
L 814.429487 -372.568412 
L 811.782833 -372.525093 
L 809.13618 -372.506849 
L 806.489527 -372.489728 
L 803.842873 -372.482448 
L 801.19622 -372.493458 
L 798.549567 -372.509051 
L 795.902913 -372.499524 
L 793.25626 -372.502625 
L 790.609607 -372.461103 
L 787.962953 -372.424974 
L 785.3163 -372.365837 
L 782.669647 -372.339908 
L 780.022993 -372.287916 
L 777.37634 -372.225814 
L 774.729687 -372.266077 
L 772.083033 -372.200649 
L 769.43638 -372.156611 
L 766.789727 -372.11091 
L 764.143073 -372.065838 
L 761.49642 -372.080443 
L 758.849767 -371.987738 
L 756.203113 -371.969718 
L 753.55646 -371.99012 
L 750.909807 -371.971246 
L 748.263153 -371.887394 
L 745.6165 -371.824752 
L 742.969847 -371.771007 
L 740.323193 -371.715465 
L 737.67654 -371.680684 
L 735.029887 -371.642712 
L 732.383233 -371.623884 
L 729.73658 -371.605774 
L 727.089927 -371.624153 
L 724.443273 -371.585283 
L 721.79662 -371.540166 
L 719.149967 -371.505745 
L 716.503313 -371.437351 
L 713.85666 -371.3952 
L 711.210007 -371.390571 
L 708.563353 -371.357902 
L 705.9167 -371.295036 
L 703.270047 -371.219047 
L 700.623393 -371.186962 
L 697.97674 -371.167999 
L 695.330087 -371.148586 
L 692.683433 -371.134431 
L 690.03678 -371.072283 
L 687.390127 -371.108098 
L 684.743473 -371.080192 
L 682.09682 -371.061184 
L 679.450167 -370.974366 
L 676.803513 -370.918824 
L 674.15686 -370.850655 
L 671.510207 -370.857755 
L 668.863553 -370.788507 
L 666.2169 -370.728876 
L 663.570247 -370.686725 
L 660.923593 -370.620982 
L 658.27694 -370.553128 
L 655.630287 -370.527289 
L 652.983633 -370.512819 
L 650.33698 -370.377694 
L 647.690327 -370.326466 
L 645.043673 -370.226706 
L 642.39702 -370.197632 
L 639.750367 -370.11879 
L 637.103713 -370.025029 
L 634.45706 -369.921854 
L 631.810407 -369.948547 
L 629.163753 -369.959803 
L 626.5171 -369.928078 
L 623.870447 -369.872379 
L 621.223793 -369.87485 
L 618.57714 -369.906194 
L 615.930487 -369.887972 
L 613.283833 -369.855213 
L 610.63718 -369.821195 
L 607.990527 -369.772596 
L 605.343873 -369.747611 
L 602.69722 -369.718941 
L 600.050567 -369.567167 
L 597.403913 -369.517265 
L 594.75726 -369.479563 
L 592.110607 -369.469002 
L 589.463953 -369.460599 
L 586.8173 -369.426133 
L 584.170647 -369.345786 
L 581.523993 -369.304107 
L 578.87734 -369.263124 
L 576.230687 -369.250609 
L 573.584033 -369.194663 
L 570.93738 -369.118248 
L 568.290727 -369.022757 
L 565.644073 -368.959059 
L 562.99742 -368.898371 
L 560.350767 -368.835954 
L 557.704113 -368.743878 
L 555.05746 -368.71058 
L 552.410807 -368.745451 
L 549.764153 -368.659195 
L 547.1175 -368.652162 
L 544.470847 -368.609023 
L 541.824193 -368.576646 
L 539.17754 -368.493288 
L 536.530887 -368.361016 
L 533.884233 -368.386855 
L 531.23758 -368.304485 
L 528.590927 -368.206208 
L 525.944273 -368.208568 
L 523.29762 -368.153947 
L 520.650967 -368.073892 
L 518.004313 -367.983524 
L 515.35766 -367.917893 
L 512.711007 -367.786722 
L 510.064353 -367.810584 
L 507.4177 -367.715183 
L 504.771047 -367.663461 
L 502.124393 -367.598796 
L 499.47774 -367.482927 
L 496.831087 -367.38265 
L 494.184433 -367.343982 
L 491.53778 -367.322974 
L 488.891127 -367.249367 
L 486.244473 -367.229393 
L 483.59782 -367.20789 
L 480.951167 -367.169065 
L 478.304513 -367.031828 
L 475.65786 -366.882502 
L 473.011207 -366.778046 
L 470.364553 -366.720145 
L 467.7179 -366.67914 
L 465.071247 -366.52258 
L 462.424593 -366.503257 
L 459.77794 -366.36966 
L 457.131287 -366.269293 
L 454.484633 -366.214313 
L 451.83798 -366.214201 
L 449.191327 -366.086378 
L 446.544673 -366.034453 
L 443.89802 -365.911775 
L 441.251367 -365.817408 
L 438.604713 -365.734859 
L 435.95806 -365.573895 
L 433.311407 -365.451689 
L 430.664753 -365.419087 
L 428.0181 -365.319035 
L 425.371447 -365.233633 
L 422.724793 -365.107742 
L 420.07814 -364.943453 
L 417.431487 -364.801677 
L 414.784833 -364.73899 
L 412.13818 -364.661384 
L 409.491527 -364.559242 
L 406.844873 -364.429959 
L 404.19822 -364.392369 
L 401.551567 -364.202533 
L 398.904913 -364.179233 
L 396.25826 -364.116097 
L 393.611607 -364.07116 
L 390.964953 -364.01818 
L 388.3183 -363.871933 
L 385.671647 -363.735212 
L 383.024993 -363.707329 
L 380.37834 -363.598963 
L 377.731687 -363.488194 
L 375.085033 -363.385356 
L 372.43838 -363.244906 
L 369.791727 -363.102883 
L 367.145073 -363.00328 
L 364.49842 -362.823937 
L 361.851767 -362.677038 
L 359.205113 -362.611924 
L 356.55846 -362.347066 
L 353.911807 -362.253193 
L 351.265153 -362.121056 
L 348.6185 -361.991795 
L 345.971847 -361.96717 
L 343.325193 -361.866174 
L 340.67854 -361.768886 
L 338.031887 -361.606843 
L 335.385233 -361.459832 
L 332.73858 -361.236923 
L 330.091927 -361.087171 
L 327.445273 -360.973301 
L 324.79862 -360.791756 
L 322.151967 -360.777151 
L 319.505313 -360.53065 
L 316.85866 -360.36636 
L 314.212007 -360.256377 
L 311.565353 -360.123117 
L 308.9187 -360.053375 
L 306.272047 -359.838959 
L 303.625393 -359.689117 
L 300.97874 -359.548576 
L 298.332087 -359.537073 
L 295.685433 -359.390264 
L 293.03878 -359.255386 
L 290.392127 -359.004436 
L 287.745473 -358.900452 
L 285.09882 -358.71302 
L 282.452167 -358.640244 
L 279.805513 -358.539159 
L 277.15886 -358.371657 
L 274.512207 -358.242306 
L 271.865553 -358.112663 
L 269.2189 -357.924602 
L 266.572247 -357.784713 
L 263.925593 -357.695109 
L 261.27894 -357.457483 
L 258.632287 -357.437194 
L 255.985633 -357.185435 
L 253.33898 -357.002901 
L 250.692327 -356.718496 
L 248.045673 -356.620938 
L 245.39902 -356.506731 
L 242.752367 -356.24895 
L 240.105713 -356.066439 
L 237.45906 -355.966859 
L 234.812407 -355.749342 
L 232.165753 -355.466509 
L 229.5191 -355.305006 
L 226.872447 -355.177834 
L 224.225793 -355.014646 
L 221.57914 -354.77356 
L 218.932487 -354.473067 
L 216.285833 -354.266649 
L 213.63918 -354.024394 
L 210.992527 -353.943238 
L 208.345873 -353.759446 
L 205.69922 -353.607447 
L 203.052567 -353.466862 
L 200.405913 -353.20452 
L 197.75926 -352.986689 
L 195.112607 -352.596816 
L 192.465953 -352.284662 
L 189.8193 -352.355573 
L 187.172647 -352.247679 
L 184.525993 -352.152975 
L 181.87934 -351.871333 
L 179.232687 -351.611418 
L 176.586033 -351.278121 
L 173.93938 -350.929815 
L 171.292727 -350.824707 
L 168.646073 -350.472919 
L 165.99942 -350.190333 
L 163.352767 -350.082395 
L 160.706113 -349.731595 
L 158.05946 -349.430585 
L 155.412807 -349.086998 
L 152.766153 -348.739119 
L 150.1195 -348.424044 
L 147.472847 -348.201561 
L 144.826193 -347.884194 
L 142.17954 -347.211287 
L 139.532887 -346.695276 
L 136.886233 -346.341241 
L 134.23958 -345.984015 
L 131.592927 -345.619532 
L 128.946273 -345.108577 
L 126.29962 -344.535025 
L 123.652967 -344.315935 
L 121.006313 -343.854321 
L 118.35966 -343.339524 
L 115.713007 -343.13942 
L 113.066353 -342.356215 
L 110.4197 -342.2139 
L 107.773047 -341.797941 
L 105.126393 -341.111643 
L 102.47974 -340.713547 
L 99.833087 -340.447004 
L 97.186433 -340.135546 
L 94.53978 -339.504115 
L 91.893127 -339.209644 
L 89.246473 -338.484722 
L 86.59982 -338.032342 
L 83.953167 -337.428255 
L 81.306513 -336.8179 
L 78.65986 -336.027348 
L 76.013207 -334.944054 
L 73.366553 -333.207872 
L 70.7199 -331.873067 
L 68.073247 -330.145692 
L 65.426593 -329.041525 
L 62.77994 -326.965104 
L 60.133287 -323.444658 
L 57.486633 -318.512249 
L 54.83998 -312.180147 
L 52.193327 -312.292669 
z
" style="stroke: #0000ff; stroke-opacity: 0.2"/>
    </defs>
    <g clip-path="url(#p00e10cef35)">
     <use xlink:href="#m5dea5c92a3" x="0" y="432" style="fill: #0000ff; fill-opacity: 0.2; stroke: #0000ff; stroke-opacity: 0.2"/>
    </g>
   </g>
   <g id="matplotlib.axis_1">
    <g id="xtick_1">
     <g id="line2d_1">
      <defs>
       <path id="md2e4c65c38" d="M 0 0 
L 0 3.5 
" style="stroke: #000000; stroke-width: 0.8"/>
      </defs>
      <g>
       <use xlink:href="#md2e4c65c38" x="181.87934" y="390.04" style="stroke: #000000; stroke-width: 0.8"/>
      </g>
     </g>
     <g id="text_1">
      <!-- 50 -->
      <g transform="translate(175.51684 404.638438) scale(0.1 -0.1)">
       <defs>
        <path id="DejaVuSans-35" d="M 691 4666 
L 3169 4666 
L 3169 4134 
L 1269 4134 
L 1269 2991 
Q 1406 3038 1543 3061 
Q 1681 3084 1819 3084 
Q 2600 3084 3056 2656 
Q 3513 2228 3513 1497 
Q 3513 744 3044 326 
Q 2575 -91 1722 -91 
Q 1428 -91 1123 -41 
Q 819 9 494 109 
L 494 744 
Q 775 591 1075 516 
Q 1375 441 1709 441 
Q 2250 441 2565 725 
Q 2881 1009 2881 1497 
Q 2881 1984 2565 2268 
Q 2250 2553 1709 2553 
Q 1456 2553 1204 2497 
Q 953 2441 691 2322 
L 691 4666 
z
" transform="scale(0.015625)"/>
        <path id="DejaVuSans-30" d="M 2034 4250 
Q 1547 4250 1301 3770 
Q 1056 3291 1056 2328 
Q 1056 1369 1301 889 
Q 1547 409 2034 409 
Q 2525 409 2770 889 
Q 3016 1369 3016 2328 
Q 3016 3291 2770 3770 
Q 2525 4250 2034 4250 
z
M 2034 4750 
Q 2819 4750 3233 4129 
Q 3647 3509 3647 2328 
Q 3647 1150 3233 529 
Q 2819 -91 2034 -91 
Q 1250 -91 836 529 
Q 422 1150 422 2328 
Q 422 3509 836 4129 
Q 1250 4750 2034 4750 
z
" transform="scale(0.015625)"/>
       </defs>
       <use xlink:href="#DejaVuSans-35"/>
       <use xlink:href="#DejaVuSans-30" transform="translate(63.623047 0)"/>
      </g>
     </g>
    </g>
    <g id="xtick_2">
     <g id="line2d_2">
      <g>
       <use xlink:href="#md2e4c65c38" x="314.212007" y="390.04" style="stroke: #000000; stroke-width: 0.8"/>
      </g>
     </g>
     <g id="text_2">
      <!-- 100 -->
      <g transform="translate(304.668257 404.638438) scale(0.1 -0.1)">
       <defs>
        <path id="DejaVuSans-31" d="M 794 531 
L 1825 531 
L 1825 4091 
L 703 3866 
L 703 4441 
L 1819 4666 
L 2450 4666 
L 2450 531 
L 3481 531 
L 3481 0 
L 794 0 
L 794 531 
z
" transform="scale(0.015625)"/>
       </defs>
       <use xlink:href="#DejaVuSans-31"/>
       <use xlink:href="#DejaVuSans-30" transform="translate(63.623047 0)"/>
       <use xlink:href="#DejaVuSans-30" transform="translate(127.246094 0)"/>
      </g>
     </g>
    </g>
    <g id="xtick_3">
     <g id="line2d_3">
      <g>
       <use xlink:href="#md2e4c65c38" x="446.544673" y="390.04" style="stroke: #000000; stroke-width: 0.8"/>
      </g>
     </g>
     <g id="text_3">
      <!-- 150 -->
      <g transform="translate(437.000923 404.638438) scale(0.1 -0.1)">
       <use xlink:href="#DejaVuSans-31"/>
       <use xlink:href="#DejaVuSans-35" transform="translate(63.623047 0)"/>
       <use xlink:href="#DejaVuSans-30" transform="translate(127.246094 0)"/>
      </g>
     </g>
    </g>
    <g id="xtick_4">
     <g id="line2d_4">
      <g>
       <use xlink:href="#md2e4c65c38" x="578.87734" y="390.04" style="stroke: #000000; stroke-width: 0.8"/>
      </g>
     </g>
     <g id="text_4">
      <!-- 200 -->
      <g transform="translate(569.33359 404.638438) scale(0.1 -0.1)">
       <defs>
        <path id="DejaVuSans-32" d="M 1228 531 
L 3431 531 
L 3431 0 
L 469 0 
L 469 531 
Q 828 903 1448 1529 
Q 2069 2156 2228 2338 
Q 2531 2678 2651 2914 
Q 2772 3150 2772 3378 
Q 2772 3750 2511 3984 
Q 2250 4219 1831 4219 
Q 1534 4219 1204 4116 
Q 875 4013 500 3803 
L 500 4441 
Q 881 4594 1212 4672 
Q 1544 4750 1819 4750 
Q 2544 4750 2975 4387 
Q 3406 4025 3406 3419 
Q 3406 3131 3298 2873 
Q 3191 2616 2906 2266 
Q 2828 2175 2409 1742 
Q 1991 1309 1228 531 
z
" transform="scale(0.015625)"/>
       </defs>
       <use xlink:href="#DejaVuSans-32"/>
       <use xlink:href="#DejaVuSans-30" transform="translate(63.623047 0)"/>
       <use xlink:href="#DejaVuSans-30" transform="translate(127.246094 0)"/>
      </g>
     </g>
    </g>
    <g id="xtick_5">
     <g id="line2d_5">
      <g>
       <use xlink:href="#md2e4c65c38" x="711.210007" y="390.04" style="stroke: #000000; stroke-width: 0.8"/>
      </g>
     </g>
     <g id="text_5">
      <!-- 250 -->
      <g transform="translate(701.666257 404.638438) scale(0.1 -0.1)">
       <use xlink:href="#DejaVuSans-32"/>
       <use xlink:href="#DejaVuSans-35" transform="translate(63.623047 0)"/>
       <use xlink:href="#DejaVuSans-30" transform="translate(127.246094 0)"/>
      </g>
     </g>
    </g>
    <g id="xtick_6">
     <g id="line2d_6">
      <g>
       <use xlink:href="#md2e4c65c38" x="843.542673" y="390.04" style="stroke: #000000; stroke-width: 0.8"/>
      </g>
     </g>
     <g id="text_6">
      <!-- 300 -->
      <g transform="translate(833.998923 404.638438) scale(0.1 -0.1)">
       <defs>
        <path id="DejaVuSans-33" d="M 2597 2516 
Q 3050 2419 3304 2112 
Q 3559 1806 3559 1356 
Q 3559 666 3084 287 
Q 2609 -91 1734 -91 
Q 1441 -91 1130 -33 
Q 819 25 488 141 
L 488 750 
Q 750 597 1062 519 
Q 1375 441 1716 441 
Q 2309 441 2620 675 
Q 2931 909 2931 1356 
Q 2931 1769 2642 2001 
Q 2353 2234 1838 2234 
L 1294 2234 
L 1294 2753 
L 1863 2753 
Q 2328 2753 2575 2939 
Q 2822 3125 2822 3475 
Q 2822 3834 2567 4026 
Q 2313 4219 1838 4219 
Q 1578 4219 1281 4162 
Q 984 4106 628 3988 
L 628 4550 
Q 988 4650 1302 4700 
Q 1616 4750 1894 4750 
Q 2613 4750 3031 4423 
Q 3450 4097 3450 3541 
Q 3450 3153 3228 2886 
Q 3006 2619 2597 2516 
z
" transform="scale(0.015625)"/>
       </defs>
       <use xlink:href="#DejaVuSans-33"/>
       <use xlink:href="#DejaVuSans-30" transform="translate(63.623047 0)"/>
       <use xlink:href="#DejaVuSans-30" transform="translate(127.246094 0)"/>
      </g>
     </g>
    </g>
    <g id="text_7">
     <!-- Step -->
     <g transform="translate(436.482844 418.316562) scale(0.1 -0.1)">
      <defs>
       <path id="DejaVuSans-53" d="M 3425 4513 
L 3425 3897 
Q 3066 4069 2747 4153 
Q 2428 4238 2131 4238 
Q 1616 4238 1336 4038 
Q 1056 3838 1056 3469 
Q 1056 3159 1242 3001 
Q 1428 2844 1947 2747 
L 2328 2669 
Q 3034 2534 3370 2195 
Q 3706 1856 3706 1288 
Q 3706 609 3251 259 
Q 2797 -91 1919 -91 
Q 1588 -91 1214 -16 
Q 841 59 441 206 
L 441 856 
Q 825 641 1194 531 
Q 1563 422 1919 422 
Q 2459 422 2753 634 
Q 3047 847 3047 1241 
Q 3047 1584 2836 1778 
Q 2625 1972 2144 2069 
L 1759 2144 
Q 1053 2284 737 2584 
Q 422 2884 422 3419 
Q 422 4038 858 4394 
Q 1294 4750 2059 4750 
Q 2388 4750 2728 4690 
Q 3069 4631 3425 4513 
z
" transform="scale(0.015625)"/>
       <path id="DejaVuSans-74" d="M 1172 4494 
L 1172 3500 
L 2356 3500 
L 2356 3053 
L 1172 3053 
L 1172 1153 
Q 1172 725 1289 603 
Q 1406 481 1766 481 
L 2356 481 
L 2356 0 
L 1766 0 
Q 1100 0 847 248 
Q 594 497 594 1153 
L 594 3053 
L 172 3053 
L 172 3500 
L 594 3500 
L 594 4494 
L 1172 4494 
z
" transform="scale(0.015625)"/>
       <path id="DejaVuSans-65" d="M 3597 1894 
L 3597 1613 
L 953 1613 
Q 991 1019 1311 708 
Q 1631 397 2203 397 
Q 2534 397 2845 478 
Q 3156 559 3463 722 
L 3463 178 
Q 3153 47 2828 -22 
Q 2503 -91 2169 -91 
Q 1331 -91 842 396 
Q 353 884 353 1716 
Q 353 2575 817 3079 
Q 1281 3584 2069 3584 
Q 2775 3584 3186 3129 
Q 3597 2675 3597 1894 
z
M 3022 2063 
Q 3016 2534 2758 2815 
Q 2500 3097 2075 3097 
Q 1594 3097 1305 2825 
Q 1016 2553 972 2059 
L 3022 2063 
z
" transform="scale(0.015625)"/>
       <path id="DejaVuSans-70" d="M 1159 525 
L 1159 -1331 
L 581 -1331 
L 581 3500 
L 1159 3500 
L 1159 2969 
Q 1341 3281 1617 3432 
Q 1894 3584 2278 3584 
Q 2916 3584 3314 3078 
Q 3713 2572 3713 1747 
Q 3713 922 3314 415 
Q 2916 -91 2278 -91 
Q 1894 -91 1617 61 
Q 1341 213 1159 525 
z
M 3116 1747 
Q 3116 2381 2855 2742 
Q 2594 3103 2138 3103 
Q 1681 3103 1420 2742 
Q 1159 2381 1159 1747 
Q 1159 1113 1420 752 
Q 1681 391 2138 391 
Q 2594 391 2855 752 
Q 3116 1113 3116 1747 
z
" transform="scale(0.015625)"/>
      </defs>
      <use xlink:href="#DejaVuSans-53"/>
      <use xlink:href="#DejaVuSans-74" transform="translate(63.476562 0)"/>
      <use xlink:href="#DejaVuSans-65" transform="translate(102.685547 0)"/>
      <use xlink:href="#DejaVuSans-70" transform="translate(164.208984 0)"/>
     </g>
    </g>
   </g>
   <g id="matplotlib.axis_2">
    <g id="ytick_1">
     <g id="line2d_7">
      <defs>
       <path id="m0ec3d46c84" d="M 0 0 
L -3.5 0 
" style="stroke: #000000; stroke-width: 0.8"/>
      </defs>
      <g>
       <use xlink:href="#m0ec3d46c84" x="50.87" y="378.995549" style="stroke: #000000; stroke-width: 0.8"/>
      </g>
     </g>
     <g id="text_8">
      <!-- 20 -->
      <g transform="translate(31.145 382.794768) scale(0.1 -0.1)">
       <use xlink:href="#DejaVuSans-32"/>
       <use xlink:href="#DejaVuSans-30" transform="translate(63.623047 0)"/>
      </g>
     </g>
    </g>
    <g id="ytick_2">
     <g id="line2d_8">
      <g>
       <use xlink:href="#m0ec3d46c84" x="50.87" y="320.095863" style="stroke: #000000; stroke-width: 0.8"/>
      </g>
     </g>
     <g id="text_9">
      <!-- 40 -->
      <g transform="translate(31.145 323.895081) scale(0.1 -0.1)">
       <defs>
        <path id="DejaVuSans-34" d="M 2419 4116 
L 825 1625 
L 2419 1625 
L 2419 4116 
z
M 2253 4666 
L 3047 4666 
L 3047 1625 
L 3713 1625 
L 3713 1100 
L 3047 1100 
L 3047 0 
L 2419 0 
L 2419 1100 
L 313 1100 
L 313 1709 
L 2253 4666 
z
" transform="scale(0.015625)"/>
       </defs>
       <use xlink:href="#DejaVuSans-34"/>
       <use xlink:href="#DejaVuSans-30" transform="translate(63.623047 0)"/>
      </g>
     </g>
    </g>
    <g id="ytick_3">
     <g id="line2d_9">
      <g>
       <use xlink:href="#m0ec3d46c84" x="50.87" y="261.196176" style="stroke: #000000; stroke-width: 0.8"/>
      </g>
     </g>
     <g id="text_10">
      <!-- 60 -->
      <g transform="translate(31.145 264.995395) scale(0.1 -0.1)">
       <defs>
        <path id="DejaVuSans-36" d="M 2113 2584 
Q 1688 2584 1439 2293 
Q 1191 2003 1191 1497 
Q 1191 994 1439 701 
Q 1688 409 2113 409 
Q 2538 409 2786 701 
Q 3034 994 3034 1497 
Q 3034 2003 2786 2293 
Q 2538 2584 2113 2584 
z
M 3366 4563 
L 3366 3988 
Q 3128 4100 2886 4159 
Q 2644 4219 2406 4219 
Q 1781 4219 1451 3797 
Q 1122 3375 1075 2522 
Q 1259 2794 1537 2939 
Q 1816 3084 2150 3084 
Q 2853 3084 3261 2657 
Q 3669 2231 3669 1497 
Q 3669 778 3244 343 
Q 2819 -91 2113 -91 
Q 1303 -91 875 529 
Q 447 1150 447 2328 
Q 447 3434 972 4092 
Q 1497 4750 2381 4750 
Q 2619 4750 2861 4703 
Q 3103 4656 3366 4563 
z
" transform="scale(0.015625)"/>
       </defs>
       <use xlink:href="#DejaVuSans-36"/>
       <use xlink:href="#DejaVuSans-30" transform="translate(63.623047 0)"/>
      </g>
     </g>
    </g>
    <g id="ytick_4">
     <g id="line2d_10">
      <g>
       <use xlink:href="#m0ec3d46c84" x="50.87" y="202.29649" style="stroke: #000000; stroke-width: 0.8"/>
      </g>
     </g>
     <g id="text_11">
      <!-- 80 -->
      <g transform="translate(31.145 206.095709) scale(0.1 -0.1)">
       <defs>
        <path id="DejaVuSans-38" d="M 2034 2216 
Q 1584 2216 1326 1975 
Q 1069 1734 1069 1313 
Q 1069 891 1326 650 
Q 1584 409 2034 409 
Q 2484 409 2743 651 
Q 3003 894 3003 1313 
Q 3003 1734 2745 1975 
Q 2488 2216 2034 2216 
z
M 1403 2484 
Q 997 2584 770 2862 
Q 544 3141 544 3541 
Q 544 4100 942 4425 
Q 1341 4750 2034 4750 
Q 2731 4750 3128 4425 
Q 3525 4100 3525 3541 
Q 3525 3141 3298 2862 
Q 3072 2584 2669 2484 
Q 3125 2378 3379 2068 
Q 3634 1759 3634 1313 
Q 3634 634 3220 271 
Q 2806 -91 2034 -91 
Q 1263 -91 848 271 
Q 434 634 434 1313 
Q 434 1759 690 2068 
Q 947 2378 1403 2484 
z
M 1172 3481 
Q 1172 3119 1398 2916 
Q 1625 2713 2034 2713 
Q 2441 2713 2670 2916 
Q 2900 3119 2900 3481 
Q 2900 3844 2670 4047 
Q 2441 4250 2034 4250 
Q 1625 4250 1398 4047 
Q 1172 3844 1172 3481 
z
" transform="scale(0.015625)"/>
       </defs>
       <use xlink:href="#DejaVuSans-38"/>
       <use xlink:href="#DejaVuSans-30" transform="translate(63.623047 0)"/>
      </g>
     </g>
    </g>
    <g id="ytick_5">
     <g id="line2d_11">
      <g>
       <use xlink:href="#m0ec3d46c84" x="50.87" y="143.396804" style="stroke: #000000; stroke-width: 0.8"/>
      </g>
     </g>
     <g id="text_12">
      <!-- 100 -->
      <g transform="translate(24.7825 147.196023) scale(0.1 -0.1)">
       <use xlink:href="#DejaVuSans-31"/>
       <use xlink:href="#DejaVuSans-30" transform="translate(63.623047 0)"/>
       <use xlink:href="#DejaVuSans-30" transform="translate(127.246094 0)"/>
      </g>
     </g>
    </g>
    <g id="ytick_6">
     <g id="line2d_12">
      <g>
       <use xlink:href="#m0ec3d46c84" x="50.87" y="84.497118" style="stroke: #000000; stroke-width: 0.8"/>
      </g>
     </g>
     <g id="text_13">
      <!-- 120 -->
      <g transform="translate(24.7825 88.296336) scale(0.1 -0.1)">
       <use xlink:href="#DejaVuSans-31"/>
       <use xlink:href="#DejaVuSans-32" transform="translate(63.623047 0)"/>
       <use xlink:href="#DejaVuSans-30" transform="translate(127.246094 0)"/>
      </g>
     </g>
    </g>
    <g id="text_14">
     <!-- Profit -->
     <g transform="translate(18.702813 229.779063) rotate(-90) scale(0.1 -0.1)">
      <defs>
       <path id="DejaVuSans-50" d="M 1259 4147 
L 1259 2394 
L 2053 2394 
Q 2494 2394 2734 2622 
Q 2975 2850 2975 3272 
Q 2975 3691 2734 3919 
Q 2494 4147 2053 4147 
L 1259 4147 
z
M 628 4666 
L 2053 4666 
Q 2838 4666 3239 4311 
Q 3641 3956 3641 3272 
Q 3641 2581 3239 2228 
Q 2838 1875 2053 1875 
L 1259 1875 
L 1259 0 
L 628 0 
L 628 4666 
z
" transform="scale(0.015625)"/>
       <path id="DejaVuSans-72" d="M 2631 2963 
Q 2534 3019 2420 3045 
Q 2306 3072 2169 3072 
Q 1681 3072 1420 2755 
Q 1159 2438 1159 1844 
L 1159 0 
L 581 0 
L 581 3500 
L 1159 3500 
L 1159 2956 
Q 1341 3275 1631 3429 
Q 1922 3584 2338 3584 
Q 2397 3584 2469 3576 
Q 2541 3569 2628 3553 
L 2631 2963 
z
" transform="scale(0.015625)"/>
       <path id="DejaVuSans-6f" d="M 1959 3097 
Q 1497 3097 1228 2736 
Q 959 2375 959 1747 
Q 959 1119 1226 758 
Q 1494 397 1959 397 
Q 2419 397 2687 759 
Q 2956 1122 2956 1747 
Q 2956 2369 2687 2733 
Q 2419 3097 1959 3097 
z
M 1959 3584 
Q 2709 3584 3137 3096 
Q 3566 2609 3566 1747 
Q 3566 888 3137 398 
Q 2709 -91 1959 -91 
Q 1206 -91 779 398 
Q 353 888 353 1747 
Q 353 2609 779 3096 
Q 1206 3584 1959 3584 
z
" transform="scale(0.015625)"/>
       <path id="DejaVuSans-66" d="M 2375 4863 
L 2375 4384 
L 1825 4384 
Q 1516 4384 1395 4259 
Q 1275 4134 1275 3809 
L 1275 3500 
L 2222 3500 
L 2222 3053 
L 1275 3053 
L 1275 0 
L 697 0 
L 697 3053 
L 147 3053 
L 147 3500 
L 697 3500 
L 697 3744 
Q 697 4328 969 4595 
Q 1241 4863 1831 4863 
L 2375 4863 
z
" transform="scale(0.015625)"/>
       <path id="DejaVuSans-69" d="M 603 3500 
L 1178 3500 
L 1178 0 
L 603 0 
L 603 3500 
z
M 603 4863 
L 1178 4863 
L 1178 4134 
L 603 4134 
L 603 4863 
z
" transform="scale(0.015625)"/>
      </defs>
      <use xlink:href="#DejaVuSans-50"/>
      <use xlink:href="#DejaVuSans-72" transform="translate(58.552734 0)"/>
      <use xlink:href="#DejaVuSans-6f" transform="translate(97.416016 0)"/>
      <use xlink:href="#DejaVuSans-66" transform="translate(158.597656 0)"/>
      <use xlink:href="#DejaVuSans-69" transform="translate(193.802734 0)"/>
      <use xlink:href="#DejaVuSans-74" transform="translate(221.585938 0)"/>
     </g>
    </g>
   </g>
   <g id="line2d_13">
    <path d="M 52.193327 246.853376 
L 54.83998 247.052648 
L 57.486633 236.018079 
L 60.133287 226.680215 
L 62.77994 218.58708 
L 65.426593 211.344781 
L 68.073247 205.413875 
L 70.7199 200.240672 
L 73.366553 195.556271 
L 78.65986 188.124382 
L 81.306513 184.951074 
L 86.59982 179.298304 
L 91.893127 174.288919 
L 97.186433 170.141963 
L 99.833087 168.389963 
L 105.126393 165.209667 
L 107.773047 163.796334 
L 110.4197 162.240124 
L 121.006313 157.278125 
L 134.23958 152.171137 
L 139.532887 150.54923 
L 142.17954 149.642313 
L 152.766153 146.672254 
L 160.706113 144.585295 
L 168.646073 142.793975 
L 189.8193 138.684137 
L 195.112607 137.747495 
L 210.992527 135.356268 
L 224.225793 133.493881 
L 229.5191 132.77862 
L 250.692327 130.305338 
L 261.27894 129.198251 
L 282.452167 127.196334 
L 295.685433 126.071452 
L 316.85866 124.496121 
L 361.851767 121.577785 
L 433.311407 117.715728 
L 494.184433 115.16192 
L 541.824193 113.482785 
L 634.45706 110.927359 
L 697.97674 109.395303 
L 716.503313 109.06086 
L 758.849767 108.308908 
L 780.022993 107.911621 
L 798.549567 107.585424 
L 843.542673 106.819722 
L 843.542673 106.819722 
" clip-path="url(#p00e10cef35)" style="fill: none; stroke: #0000ff; stroke-width: 1.5; stroke-linecap: square"/>
   </g>
   <g id="patch_3">
    <path d="M 50.87 390.04 
L 50.87 43.44 
" style="fill: none; stroke: #000000; stroke-width: 0.8; stroke-linejoin: miter; stroke-linecap: square"/>
   </g>
   <g id="patch_4">
    <path d="M 844.866 390.04 
L 844.866 43.44 
" style="fill: none; stroke: #000000; stroke-width: 0.8; stroke-linejoin: miter; stroke-linecap: square"/>
   </g>
   <g id="patch_5">
    <path d="M 50.87 390.04 
L 844.866 390.04 
" style="fill: none; stroke: #000000; stroke-width: 0.8; stroke-linejoin: miter; stroke-linecap: square"/>
   </g>
   <g id="patch_6">
    <path d="M 50.87 43.44 
L 844.866 43.44 
" style="fill: none; stroke: #000000; stroke-width: 0.8; stroke-linejoin: miter; stroke-linecap: square"/>
   </g>
   <g id="text_15">
    <!-- Mean profit per step with confidence interval per simulation step -->
    <g transform="translate(220.284875 21.763062) scale(0.14 -0.14)">
     <defs>
      <path id="DejaVuSans-4d" d="M 628 4666 
L 1569 4666 
L 2759 1491 
L 3956 4666 
L 4897 4666 
L 4897 0 
L 4281 0 
L 4281 4097 
L 3078 897 
L 2444 897 
L 1241 4097 
L 1241 0 
L 628 0 
L 628 4666 
z
" transform="scale(0.015625)"/>
      <path id="DejaVuSans-61" d="M 2194 1759 
Q 1497 1759 1228 1600 
Q 959 1441 959 1056 
Q 959 750 1161 570 
Q 1363 391 1709 391 
Q 2188 391 2477 730 
Q 2766 1069 2766 1631 
L 2766 1759 
L 2194 1759 
z
M 3341 1997 
L 3341 0 
L 2766 0 
L 2766 531 
Q 2569 213 2275 61 
Q 1981 -91 1556 -91 
Q 1019 -91 701 211 
Q 384 513 384 1019 
Q 384 1609 779 1909 
Q 1175 2209 1959 2209 
L 2766 2209 
L 2766 2266 
Q 2766 2663 2505 2880 
Q 2244 3097 1772 3097 
Q 1472 3097 1187 3025 
Q 903 2953 641 2809 
L 641 3341 
Q 956 3463 1253 3523 
Q 1550 3584 1831 3584 
Q 2591 3584 2966 3190 
Q 3341 2797 3341 1997 
z
" transform="scale(0.015625)"/>
      <path id="DejaVuSans-6e" d="M 3513 2113 
L 3513 0 
L 2938 0 
L 2938 2094 
Q 2938 2591 2744 2837 
Q 2550 3084 2163 3084 
Q 1697 3084 1428 2787 
Q 1159 2491 1159 1978 
L 1159 0 
L 581 0 
L 581 3500 
L 1159 3500 
L 1159 2956 
Q 1366 3272 1645 3428 
Q 1925 3584 2291 3584 
Q 2894 3584 3203 3211 
Q 3513 2838 3513 2113 
z
" transform="scale(0.015625)"/>
      <path id="DejaVuSans-20" transform="scale(0.015625)"/>
      <path id="DejaVuSans-73" d="M 2834 3397 
L 2834 2853 
Q 2591 2978 2328 3040 
Q 2066 3103 1784 3103 
Q 1356 3103 1142 2972 
Q 928 2841 928 2578 
Q 928 2378 1081 2264 
Q 1234 2150 1697 2047 
L 1894 2003 
Q 2506 1872 2764 1633 
Q 3022 1394 3022 966 
Q 3022 478 2636 193 
Q 2250 -91 1575 -91 
Q 1294 -91 989 -36 
Q 684 19 347 128 
L 347 722 
Q 666 556 975 473 
Q 1284 391 1588 391 
Q 1994 391 2212 530 
Q 2431 669 2431 922 
Q 2431 1156 2273 1281 
Q 2116 1406 1581 1522 
L 1381 1569 
Q 847 1681 609 1914 
Q 372 2147 372 2553 
Q 372 3047 722 3315 
Q 1072 3584 1716 3584 
Q 2034 3584 2315 3537 
Q 2597 3491 2834 3397 
z
" transform="scale(0.015625)"/>
      <path id="DejaVuSans-77" d="M 269 3500 
L 844 3500 
L 1563 769 
L 2278 3500 
L 2956 3500 
L 3675 769 
L 4391 3500 
L 4966 3500 
L 4050 0 
L 3372 0 
L 2619 2869 
L 1863 0 
L 1184 0 
L 269 3500 
z
" transform="scale(0.015625)"/>
      <path id="DejaVuSans-68" d="M 3513 2113 
L 3513 0 
L 2938 0 
L 2938 2094 
Q 2938 2591 2744 2837 
Q 2550 3084 2163 3084 
Q 1697 3084 1428 2787 
Q 1159 2491 1159 1978 
L 1159 0 
L 581 0 
L 581 4863 
L 1159 4863 
L 1159 2956 
Q 1366 3272 1645 3428 
Q 1925 3584 2291 3584 
Q 2894 3584 3203 3211 
Q 3513 2838 3513 2113 
z
" transform="scale(0.015625)"/>
      <path id="DejaVuSans-63" d="M 3122 3366 
L 3122 2828 
Q 2878 2963 2633 3030 
Q 2388 3097 2138 3097 
Q 1578 3097 1268 2742 
Q 959 2388 959 1747 
Q 959 1106 1268 751 
Q 1578 397 2138 397 
Q 2388 397 2633 464 
Q 2878 531 3122 666 
L 3122 134 
Q 2881 22 2623 -34 
Q 2366 -91 2075 -91 
Q 1284 -91 818 406 
Q 353 903 353 1747 
Q 353 2603 823 3093 
Q 1294 3584 2113 3584 
Q 2378 3584 2631 3529 
Q 2884 3475 3122 3366 
z
" transform="scale(0.015625)"/>
      <path id="DejaVuSans-64" d="M 2906 2969 
L 2906 4863 
L 3481 4863 
L 3481 0 
L 2906 0 
L 2906 525 
Q 2725 213 2448 61 
Q 2172 -91 1784 -91 
Q 1150 -91 751 415 
Q 353 922 353 1747 
Q 353 2572 751 3078 
Q 1150 3584 1784 3584 
Q 2172 3584 2448 3432 
Q 2725 3281 2906 2969 
z
M 947 1747 
Q 947 1113 1208 752 
Q 1469 391 1925 391 
Q 2381 391 2643 752 
Q 2906 1113 2906 1747 
Q 2906 2381 2643 2742 
Q 2381 3103 1925 3103 
Q 1469 3103 1208 2742 
Q 947 2381 947 1747 
z
" transform="scale(0.015625)"/>
      <path id="DejaVuSans-76" d="M 191 3500 
L 800 3500 
L 1894 563 
L 2988 3500 
L 3597 3500 
L 2284 0 
L 1503 0 
L 191 3500 
z
" transform="scale(0.015625)"/>
      <path id="DejaVuSans-6c" d="M 603 4863 
L 1178 4863 
L 1178 0 
L 603 0 
L 603 4863 
z
" transform="scale(0.015625)"/>
      <path id="DejaVuSans-6d" d="M 3328 2828 
Q 3544 3216 3844 3400 
Q 4144 3584 4550 3584 
Q 5097 3584 5394 3201 
Q 5691 2819 5691 2113 
L 5691 0 
L 5113 0 
L 5113 2094 
Q 5113 2597 4934 2840 
Q 4756 3084 4391 3084 
Q 3944 3084 3684 2787 
Q 3425 2491 3425 1978 
L 3425 0 
L 2847 0 
L 2847 2094 
Q 2847 2600 2669 2842 
Q 2491 3084 2119 3084 
Q 1678 3084 1418 2786 
Q 1159 2488 1159 1978 
L 1159 0 
L 581 0 
L 581 3500 
L 1159 3500 
L 1159 2956 
Q 1356 3278 1631 3431 
Q 1906 3584 2284 3584 
Q 2666 3584 2933 3390 
Q 3200 3197 3328 2828 
z
" transform="scale(0.015625)"/>
      <path id="DejaVuSans-75" d="M 544 1381 
L 544 3500 
L 1119 3500 
L 1119 1403 
Q 1119 906 1312 657 
Q 1506 409 1894 409 
Q 2359 409 2629 706 
Q 2900 1003 2900 1516 
L 2900 3500 
L 3475 3500 
L 3475 0 
L 2900 0 
L 2900 538 
Q 2691 219 2414 64 
Q 2138 -91 1772 -91 
Q 1169 -91 856 284 
Q 544 659 544 1381 
z
M 1991 3584 
L 1991 3584 
z
" transform="scale(0.015625)"/>
     </defs>
     <use xlink:href="#DejaVuSans-4d"/>
     <use xlink:href="#DejaVuSans-65" transform="translate(86.279297 0)"/>
     <use xlink:href="#DejaVuSans-61" transform="translate(147.802734 0)"/>
     <use xlink:href="#DejaVuSans-6e" transform="translate(209.082031 0)"/>
     <use xlink:href="#DejaVuSans-20" transform="translate(272.460938 0)"/>
     <use xlink:href="#DejaVuSans-70" transform="translate(304.248047 0)"/>
     <use xlink:href="#DejaVuSans-72" transform="translate(367.724609 0)"/>
     <use xlink:href="#DejaVuSans-6f" transform="translate(406.587891 0)"/>
     <use xlink:href="#DejaVuSans-66" transform="translate(467.769531 0)"/>
     <use xlink:href="#DejaVuSans-69" transform="translate(502.974609 0)"/>
     <use xlink:href="#DejaVuSans-74" transform="translate(530.757812 0)"/>
     <use xlink:href="#DejaVuSans-20" transform="translate(569.966797 0)"/>
     <use xlink:href="#DejaVuSans-70" transform="translate(601.753906 0)"/>
     <use xlink:href="#DejaVuSans-65" transform="translate(665.230469 0)"/>
     <use xlink:href="#DejaVuSans-72" transform="translate(726.753906 0)"/>
     <use xlink:href="#DejaVuSans-20" transform="translate(767.867188 0)"/>
     <use xlink:href="#DejaVuSans-73" transform="translate(799.654297 0)"/>
     <use xlink:href="#DejaVuSans-74" transform="translate(851.753906 0)"/>
     <use xlink:href="#DejaVuSans-65" transform="translate(890.962891 0)"/>
     <use xlink:href="#DejaVuSans-70" transform="translate(952.486328 0)"/>
     <use xlink:href="#DejaVuSans-20" transform="translate(1015.962891 0)"/>
     <use xlink:href="#DejaVuSans-77" transform="translate(1047.75 0)"/>
     <use xlink:href="#DejaVuSans-69" transform="translate(1129.537109 0)"/>
     <use xlink:href="#DejaVuSans-74" transform="translate(1157.320312 0)"/>
     <use xlink:href="#DejaVuSans-68" transform="translate(1196.529297 0)"/>
     <use xlink:href="#DejaVuSans-20" transform="translate(1259.908203 0)"/>
     <use xlink:href="#DejaVuSans-63" transform="translate(1291.695312 0)"/>
     <use xlink:href="#DejaVuSans-6f" transform="translate(1346.675781 0)"/>
     <use xlink:href="#DejaVuSans-6e" transform="translate(1407.857422 0)"/>
     <use xlink:href="#DejaVuSans-66" transform="translate(1471.236328 0)"/>
     <use xlink:href="#DejaVuSans-69" transform="translate(1506.441406 0)"/>
     <use xlink:href="#DejaVuSans-64" transform="translate(1534.224609 0)"/>
     <use xlink:href="#DejaVuSans-65" transform="translate(1597.701172 0)"/>
     <use xlink:href="#DejaVuSans-6e" transform="translate(1659.224609 0)"/>
     <use xlink:href="#DejaVuSans-63" transform="translate(1722.603516 0)"/>
     <use xlink:href="#DejaVuSans-65" transform="translate(1777.583984 0)"/>
     <use xlink:href="#DejaVuSans-20" transform="translate(1839.107422 0)"/>
     <use xlink:href="#DejaVuSans-69" transform="translate(1870.894531 0)"/>
     <use xlink:href="#DejaVuSans-6e" transform="translate(1898.677734 0)"/>
     <use xlink:href="#DejaVuSans-74" transform="translate(1962.056641 0)"/>
     <use xlink:href="#DejaVuSans-65" transform="translate(2001.265625 0)"/>
     <use xlink:href="#DejaVuSans-72" transform="translate(2062.789062 0)"/>
     <use xlink:href="#DejaVuSans-76" transform="translate(2103.902344 0)"/>
     <use xlink:href="#DejaVuSans-61" transform="translate(2163.082031 0)"/>
     <use xlink:href="#DejaVuSans-6c" transform="translate(2224.361328 0)"/>
     <use xlink:href="#DejaVuSans-20" transform="translate(2252.144531 0)"/>
     <use xlink:href="#DejaVuSans-70" transform="translate(2283.931641 0)"/>
     <use xlink:href="#DejaVuSans-65" transform="translate(2347.408203 0)"/>
     <use xlink:href="#DejaVuSans-72" transform="translate(2408.931641 0)"/>
     <use xlink:href="#DejaVuSans-20" transform="translate(2450.044922 0)"/>
     <use xlink:href="#DejaVuSans-73" transform="translate(2481.832031 0)"/>
     <use xlink:href="#DejaVuSans-69" transform="translate(2533.931641 0)"/>
     <use xlink:href="#DejaVuSans-6d" transform="translate(2561.714844 0)"/>
     <use xlink:href="#DejaVuSans-75" transform="translate(2659.126953 0)"/>
     <use xlink:href="#DejaVuSans-6c" transform="translate(2722.505859 0)"/>
     <use xlink:href="#DejaVuSans-61" transform="translate(2750.289062 0)"/>
     <use xlink:href="#DejaVuSans-74" transform="translate(2811.568359 0)"/>
     <use xlink:href="#DejaVuSans-69" transform="translate(2850.777344 0)"/>
     <use xlink:href="#DejaVuSans-6f" transform="translate(2878.560547 0)"/>
     <use xlink:href="#DejaVuSans-6e" transform="translate(2939.742188 0)"/>
     <use xlink:href="#DejaVuSans-20" transform="translate(3003.121094 0)"/>
     <use xlink:href="#DejaVuSans-73" transform="translate(3034.908203 0)"/>
     <use xlink:href="#DejaVuSans-74" transform="translate(3087.007812 0)"/>
     <use xlink:href="#DejaVuSans-65" transform="translate(3126.216797 0)"/>
     <use xlink:href="#DejaVuSans-70" transform="translate(3187.740234 0)"/>
    </g>
    <!-- Base Product: Sour Diesel, Recipe size: 8, T0: 5.0 -->
    <g transform="translate(276.056281 37.44) scale(0.14 -0.14)">
     <defs>
      <path id="DejaVuSans-42" d="M 1259 2228 
L 1259 519 
L 2272 519 
Q 2781 519 3026 730 
Q 3272 941 3272 1375 
Q 3272 1813 3026 2020 
Q 2781 2228 2272 2228 
L 1259 2228 
z
M 1259 4147 
L 1259 2741 
L 2194 2741 
Q 2656 2741 2882 2914 
Q 3109 3088 3109 3444 
Q 3109 3797 2882 3972 
Q 2656 4147 2194 4147 
L 1259 4147 
z
M 628 4666 
L 2241 4666 
Q 2963 4666 3353 4366 
Q 3744 4066 3744 3513 
Q 3744 3084 3544 2831 
Q 3344 2578 2956 2516 
Q 3422 2416 3680 2098 
Q 3938 1781 3938 1306 
Q 3938 681 3513 340 
Q 3088 0 2303 0 
L 628 0 
L 628 4666 
z
" transform="scale(0.015625)"/>
      <path id="DejaVuSans-3a" d="M 750 794 
L 1409 794 
L 1409 0 
L 750 0 
L 750 794 
z
M 750 3309 
L 1409 3309 
L 1409 2516 
L 750 2516 
L 750 3309 
z
" transform="scale(0.015625)"/>
      <path id="DejaVuSans-44" d="M 1259 4147 
L 1259 519 
L 2022 519 
Q 2988 519 3436 956 
Q 3884 1394 3884 2338 
Q 3884 3275 3436 3711 
Q 2988 4147 2022 4147 
L 1259 4147 
z
M 628 4666 
L 1925 4666 
Q 3281 4666 3915 4102 
Q 4550 3538 4550 2338 
Q 4550 1131 3912 565 
Q 3275 0 1925 0 
L 628 0 
L 628 4666 
z
" transform="scale(0.015625)"/>
      <path id="DejaVuSans-2c" d="M 750 794 
L 1409 794 
L 1409 256 
L 897 -744 
L 494 -744 
L 750 256 
L 750 794 
z
" transform="scale(0.015625)"/>
      <path id="DejaVuSans-52" d="M 2841 2188 
Q 3044 2119 3236 1894 
Q 3428 1669 3622 1275 
L 4263 0 
L 3584 0 
L 2988 1197 
Q 2756 1666 2539 1819 
Q 2322 1972 1947 1972 
L 1259 1972 
L 1259 0 
L 628 0 
L 628 4666 
L 2053 4666 
Q 2853 4666 3247 4331 
Q 3641 3997 3641 3322 
Q 3641 2881 3436 2590 
Q 3231 2300 2841 2188 
z
M 1259 4147 
L 1259 2491 
L 2053 2491 
Q 2509 2491 2742 2702 
Q 2975 2913 2975 3322 
Q 2975 3731 2742 3939 
Q 2509 4147 2053 4147 
L 1259 4147 
z
" transform="scale(0.015625)"/>
      <path id="DejaVuSans-7a" d="M 353 3500 
L 3084 3500 
L 3084 2975 
L 922 459 
L 3084 459 
L 3084 0 
L 275 0 
L 275 525 
L 2438 3041 
L 353 3041 
L 353 3500 
z
" transform="scale(0.015625)"/>
      <path id="DejaVuSans-54" d="M -19 4666 
L 3928 4666 
L 3928 4134 
L 2272 4134 
L 2272 0 
L 1638 0 
L 1638 4134 
L -19 4134 
L -19 4666 
z
" transform="scale(0.015625)"/>
      <path id="DejaVuSans-2e" d="M 684 794 
L 1344 794 
L 1344 0 
L 684 0 
L 684 794 
z
" transform="scale(0.015625)"/>
     </defs>
     <use xlink:href="#DejaVuSans-42"/>
     <use xlink:href="#DejaVuSans-61" transform="translate(68.603516 0)"/>
     <use xlink:href="#DejaVuSans-73" transform="translate(129.882812 0)"/>
     <use xlink:href="#DejaVuSans-65" transform="translate(181.982422 0)"/>
     <use xlink:href="#DejaVuSans-20" transform="translate(243.505859 0)"/>
     <use xlink:href="#DejaVuSans-50" transform="translate(275.292969 0)"/>
     <use xlink:href="#DejaVuSans-72" transform="translate(333.845703 0)"/>
     <use xlink:href="#DejaVuSans-6f" transform="translate(372.708984 0)"/>
     <use xlink:href="#DejaVuSans-64" transform="translate(433.890625 0)"/>
     <use xlink:href="#DejaVuSans-75" transform="translate(497.367188 0)"/>
     <use xlink:href="#DejaVuSans-63" transform="translate(560.746094 0)"/>
     <use xlink:href="#DejaVuSans-74" transform="translate(615.726562 0)"/>
     <use xlink:href="#DejaVuSans-3a" transform="translate(654.935547 0)"/>
     <use xlink:href="#DejaVuSans-20" transform="translate(688.626953 0)"/>
     <use xlink:href="#DejaVuSans-53" transform="translate(720.414062 0)"/>
     <use xlink:href="#DejaVuSans-6f" transform="translate(783.890625 0)"/>
     <use xlink:href="#DejaVuSans-75" transform="translate(845.072266 0)"/>
     <use xlink:href="#DejaVuSans-72" transform="translate(908.451172 0)"/>
     <use xlink:href="#DejaVuSans-20" transform="translate(949.564453 0)"/>
     <use xlink:href="#DejaVuSans-44" transform="translate(981.351562 0)"/>
     <use xlink:href="#DejaVuSans-69" transform="translate(1058.353516 0)"/>
     <use xlink:href="#DejaVuSans-65" transform="translate(1086.136719 0)"/>
     <use xlink:href="#DejaVuSans-73" transform="translate(1147.660156 0)"/>
     <use xlink:href="#DejaVuSans-65" transform="translate(1199.759766 0)"/>
     <use xlink:href="#DejaVuSans-6c" transform="translate(1261.283203 0)"/>
     <use xlink:href="#DejaVuSans-2c" transform="translate(1289.066406 0)"/>
     <use xlink:href="#DejaVuSans-20" transform="translate(1320.853516 0)"/>
     <use xlink:href="#DejaVuSans-52" transform="translate(1352.640625 0)"/>
     <use xlink:href="#DejaVuSans-65" transform="translate(1417.623047 0)"/>
     <use xlink:href="#DejaVuSans-63" transform="translate(1479.146484 0)"/>
     <use xlink:href="#DejaVuSans-69" transform="translate(1534.126953 0)"/>
     <use xlink:href="#DejaVuSans-70" transform="translate(1561.910156 0)"/>
     <use xlink:href="#DejaVuSans-65" transform="translate(1625.386719 0)"/>
     <use xlink:href="#DejaVuSans-20" transform="translate(1686.910156 0)"/>
     <use xlink:href="#DejaVuSans-73" transform="translate(1718.697266 0)"/>
     <use xlink:href="#DejaVuSans-69" transform="translate(1770.796875 0)"/>
     <use xlink:href="#DejaVuSans-7a" transform="translate(1798.580078 0)"/>
     <use xlink:href="#DejaVuSans-65" transform="translate(1851.070312 0)"/>
     <use xlink:href="#DejaVuSans-3a" transform="translate(1912.59375 0)"/>
     <use xlink:href="#DejaVuSans-20" transform="translate(1946.285156 0)"/>
     <use xlink:href="#DejaVuSans-38" transform="translate(1978.072266 0)"/>
     <use xlink:href="#DejaVuSans-2c" transform="translate(2041.695312 0)"/>
     <use xlink:href="#DejaVuSans-20" transform="translate(2073.482422 0)"/>
     <use xlink:href="#DejaVuSans-54" transform="translate(2105.269531 0)"/>
     <use xlink:href="#DejaVuSans-30" transform="translate(2166.353516 0)"/>
     <use xlink:href="#DejaVuSans-3a" transform="translate(2229.976562 0)"/>
     <use xlink:href="#DejaVuSans-20" transform="translate(2263.667969 0)"/>
     <use xlink:href="#DejaVuSans-35" transform="translate(2295.455078 0)"/>
     <use xlink:href="#DejaVuSans-2e" transform="translate(2359.078125 0)"/>
     <use xlink:href="#DejaVuSans-30" transform="translate(2390.865234 0)"/>
    </g>
   </g>
  </g>
 </g>
 <defs>
  <clipPath id="p00e10cef35">
   <rect x="50.87" y="43.44" width="793.996" height="346.6"/>
  </clipPath>
 </defs>
</svg>
