<?xml version="1.0" encoding="utf-8" standalone="no"?>
<!DOCTYPE svg PUBLIC "-//W3C//DTD SVG 1.1//EN"
  "http://www.w3.org/Graphics/SVG/1.1/DTD/svg11.dtd">
<svg xmlns:xlink="http://www.w3.org/1999/xlink" width="864pt" height="432pt" viewBox="0 0 864 432" xmlns="http://www.w3.org/2000/svg" version="1.1">
 <metadata>
  <rdf:RDF xmlns:dc="http://purl.org/dc/elements/1.1/" xmlns:cc="http://creativecommons.org/ns#" xmlns:rdf="http://www.w3.org/1999/02/22-rdf-syntax-ns#">
   <cc:Work>
    <dc:type rdf:resource="http://purl.org/dc/dcmitype/StillImage"/>
    <dc:date>2025-05-24T02:04:55.743485</dc:date>
    <dc:format>image/svg+xml</dc:format>
    <dc:creator>
     <cc:Agent>
      <dc:title>Matplotlib v3.10.3, https://matplotlib.org/</dc:title>
     </cc:Agent>
    </dc:creator>
   </cc:Work>
  </rdf:RDF>
 </metadata>
 <defs>
  <style type="text/css">*{stroke-linejoin: round; stroke-linecap: butt}</style>
 </defs>
 <g id="figure_1">
  <g id="patch_1">
   <path d="M 0 432 
L 864 432 
L 864 0 
L 0 0 
z
" style="fill: #ffffff"/>
  </g>
  <g id="axes_1">
   <g id="patch_2">
    <path d="M 50.87 390.04 
L 844.866 390.04 
L 844.866 43.44 
L 50.87 43.44 
z
" style="fill: #ffffff"/>
   </g>
   <g id="FillBetweenPolyCollection_1">
    <defs>
     <path id="m1fe6b17b31" d="M 52.193327 -312.650696 
L 52.193327 -59.119849 
L 54.83998 -57.714545 
L 57.486633 -74.817472 
L 60.133287 -90.282794 
L 62.77994 -104.088882 
L 65.426593 -115.952308 
L 68.073247 -125.051604 
L 70.7199 -133.826581 
L 73.366553 -141.550492 
L 76.013207 -149.034432 
L 78.65986 -155.528456 
L 81.306513 -161.574188 
L 83.953167 -167.103193 
L 86.59982 -171.739967 
L 89.246473 -176.433683 
L 91.893127 -180.454824 
L 94.53978 -183.738756 
L 97.186433 -187.59811 
L 99.833087 -191.119955 
L 102.47974 -194.2207 
L 105.126393 -196.92808 
L 107.773047 -199.770291 
L 110.4197 -202.490657 
L 113.066353 -204.938101 
L 115.713007 -207.235873 
L 118.35966 -209.314861 
L 121.006313 -211.360547 
L 123.652967 -213.140869 
L 126.29962 -215.116606 
L 128.946273 -216.673233 
L 131.592927 -218.145885 
L 134.23958 -219.682785 
L 136.886233 -221.121616 
L 139.532887 -222.530969 
L 142.17954 -223.946069 
L 144.826193 -225.478784 
L 147.472847 -226.642432 
L 150.1195 -227.781239 
L 152.766153 -228.760488 
L 155.412807 -229.985172 
L 158.05946 -231.25216 
L 160.706113 -232.377869 
L 163.352767 -233.237354 
L 165.99942 -233.94108 
L 168.646073 -234.959919 
L 171.292727 -235.860486 
L 173.93938 -236.599572 
L 176.586033 -237.417046 
L 179.232687 -238.188075 
L 181.87934 -238.913045 
L 184.525993 -239.76081 
L 187.172647 -240.363617 
L 189.8193 -240.984793 
L 192.465953 -241.733832 
L 195.112607 -242.480361 
L 197.75926 -242.995097 
L 200.405913 -243.573064 
L 203.052567 -244.127887 
L 205.69922 -244.704225 
L 208.345873 -245.480706 
L 210.992527 -246.089259 
L 213.63918 -246.732786 
L 216.285833 -247.201326 
L 218.932487 -247.738278 
L 221.57914 -248.230051 
L 224.225793 -248.737073 
L 226.872447 -249.133265 
L 229.5191 -249.404603 
L 232.165753 -249.868641 
L 234.812407 -250.287909 
L 237.45906 -250.729845 
L 240.105713 -251.103686 
L 242.752367 -251.513656 
L 245.39902 -251.822389 
L 248.045673 -252.250547 
L 250.692327 -252.502814 
L 253.33898 -252.943935 
L 255.985633 -253.326373 
L 258.632287 -253.56579 
L 261.27894 -253.888368 
L 263.925593 -254.374101 
L 266.572247 -254.663017 
L 269.2189 -255.022131 
L 271.865553 -255.345048 
L 274.512207 -255.552227 
L 277.15886 -255.812502 
L 279.805513 -256.145736 
L 282.452167 -256.459446 
L 285.09882 -256.779739 
L 287.745473 -257.086368 
L 290.392127 -257.497786 
L 293.03878 -257.735325 
L 295.685433 -258.029737 
L 298.332087 -258.419754 
L 300.97874 -258.603587 
L 303.625393 -258.883068 
L 306.272047 -259.209289 
L 308.9187 -259.464247 
L 311.565353 -259.842455 
L 314.212007 -260.120624 
L 316.85866 -260.347123 
L 319.505313 -260.631379 
L 322.151967 -260.845526 
L 324.79862 -261.067636 
L 327.445273 -261.370283 
L 330.091927 -261.653317 
L 332.73858 -261.936622 
L 335.385233 -262.118102 
L 338.031887 -262.367382 
L 340.67854 -262.535899 
L 343.325193 -262.669939 
L 345.971847 -262.827326 
L 348.6185 -263.016542 
L 351.265153 -263.289531 
L 353.911807 -263.393777 
L 356.55846 -263.600685 
L 359.205113 -263.718957 
L 361.851767 -263.8494 
L 364.49842 -264.125397 
L 367.145073 -264.262582 
L 369.791727 -264.447614 
L 372.43838 -264.470576 
L 375.085033 -264.609479 
L 377.731687 -264.812496 
L 380.37834 -265.030421 
L 383.024993 -265.17109 
L 385.671647 -265.317595 
L 388.3183 -265.450549 
L 390.964953 -265.564816 
L 393.611607 -265.764824 
L 396.25826 -265.925944 
L 398.904913 -266.108532 
L 401.551567 -266.223365 
L 404.19822 -266.420229 
L 406.844873 -266.500539 
L 409.491527 -266.593609 
L 412.13818 -266.756267 
L 414.784833 -266.904243 
L 417.431487 -267.037152 
L 420.07814 -267.159066 
L 422.724793 -267.275369 
L 425.371447 -267.529491 
L 428.0181 -267.6367 
L 430.664753 -267.819628 
L 433.311407 -268.016785 
L 435.95806 -268.118294 
L 438.604713 -268.243352 
L 441.251367 -268.394676 
L 443.89802 -268.481276 
L 446.544673 -268.663638 
L 449.191327 -268.783426 
L 451.83798 -268.906335 
L 454.484633 -268.982642 
L 457.131287 -269.160479 
L 459.77794 -269.299112 
L 462.424593 -269.402294 
L 465.071247 -269.528484 
L 467.7179 -269.704829 
L 470.364553 -269.884431 
L 473.011207 -270.040211 
L 475.65786 -270.146334 
L 478.304513 -270.205606 
L 480.951167 -270.392538 
L 483.59782 -270.563906 
L 486.244473 -270.653107 
L 488.891127 -270.751878 
L 491.53778 -270.846057 
L 494.184433 -270.940394 
L 496.831087 -271.025546 
L 499.47774 -271.159586 
L 502.124393 -271.31799 
L 504.771047 -271.424589 
L 507.4177 -271.588016 
L 510.064353 -271.641405 
L 512.711007 -271.676878 
L 515.35766 -271.791802 
L 518.004313 -271.822863 
L 520.650967 -271.920525 
L 523.29762 -272.011446 
L 525.944273 -272.081373 
L 528.590927 -272.155304 
L 531.23758 -272.197609 
L 533.884233 -272.257695 
L 536.530887 -272.427004 
L 539.17754 -272.520481 
L 541.824193 -272.688365 
L 544.470847 -272.664113 
L 547.1175 -272.746121 
L 549.764153 -272.8824 
L 552.410807 -272.938889 
L 555.05746 -273.023023 
L 557.704113 -273.147109 
L 560.350767 -273.287891 
L 562.99742 -273.387227 
L 565.644073 -273.443762 
L 568.290727 -273.601849 
L 570.93738 -273.691074 
L 573.584033 -273.801925 
L 576.230687 -273.941146 
L 578.87734 -274.049599 
L 581.523993 -274.144615 
L 584.170647 -274.263023 
L 586.8173 -274.373806 
L 589.463953 -274.443552 
L 592.110607 -274.460904 
L 594.75726 -274.539857 
L 597.403913 -274.64546 
L 600.050567 -274.690321 
L 602.69722 -274.829203 
L 605.343873 -274.88913 
L 607.990527 -274.959962 
L 610.63718 -275.002878 
L 613.283833 -275.001407 
L 615.930487 -275.105856 
L 618.57714 -275.192999 
L 621.223793 -275.254443 
L 623.870447 -275.342242 
L 626.5171 -275.448139 
L 629.163753 -275.477187 
L 631.810407 -275.585097 
L 634.45706 -275.69941 
L 637.103713 -275.779653 
L 639.750367 -275.822387 
L 642.39702 -275.900707 
L 645.043673 -275.943691 
L 647.690327 -275.984796 
L 650.33698 -276.023481 
L 652.983633 -276.029408 
L 655.630287 -276.093567 
L 658.27694 -276.110217 
L 660.923593 -276.172543 
L 663.570247 -276.199532 
L 666.2169 -276.320088 
L 668.863553 -276.376125 
L 671.510207 -276.506387 
L 674.15686 -276.533285 
L 676.803513 -276.599457 
L 679.450167 -276.662416 
L 682.09682 -276.703748 
L 684.743473 -276.788651 
L 687.390127 -276.9364 
L 690.03678 -276.992007 
L 692.683433 -277.111885 
L 695.330087 -277.178781 
L 697.97674 -277.197377 
L 700.623393 -277.260291 
L 703.270047 -277.276624 
L 705.9167 -277.369242 
L 708.563353 -277.366957 
L 711.210007 -277.414872 
L 713.85666 -277.405257 
L 716.503313 -277.512399 
L 719.149967 -277.543844 
L 721.79662 -277.566399 
L 724.443273 -277.627096 
L 727.089927 -277.676979 
L 729.73658 -277.736794 
L 732.383233 -277.835361 
L 735.029887 -277.896307 
L 737.67654 -277.968248 
L 740.323193 -278.046975 
L 742.969847 -278.139231 
L 745.6165 -278.179906 
L 748.263153 -278.246779 
L 750.909807 -278.32485 
L 753.55646 -278.348649 
L 756.203113 -278.412785 
L 758.849767 -278.407152 
L 761.49642 -278.472713 
L 764.143073 -278.501987 
L 766.789727 -278.574922 
L 769.43638 -278.635438 
L 772.083033 -278.732015 
L 774.729687 -278.824904 
L 777.37634 -278.924897 
L 780.022993 -278.95227 
L 782.669647 -278.983535 
L 785.3163 -279.110132 
L 787.962953 -279.139293 
L 790.609607 -279.197818 
L 793.25626 -279.215056 
L 795.902913 -279.304507 
L 798.549567 -279.337898 
L 801.19622 -279.413006 
L 803.842873 -279.465219 
L 806.489527 -279.464789 
L 809.13618 -279.533585 
L 811.782833 -279.660453 
L 814.429487 -279.753162 
L 817.07614 -279.785014 
L 819.722793 -279.851073 
L 822.369447 -279.929981 
L 825.0161 -280.002985 
L 827.662753 -280.080943 
L 830.309407 -280.088363 
L 832.95606 -280.180212 
L 835.602713 -280.22971 
L 838.249367 -280.32683 
L 840.89602 -280.397956 
L 843.542673 -280.455078 
L 843.542673 -372.805455 
L 843.542673 -372.805455 
L 840.89602 -372.786135 
L 838.249367 -372.758987 
L 835.602713 -372.741975 
L 832.95606 -372.72727 
L 830.309407 -372.723651 
L 827.662753 -372.689943 
L 825.0161 -372.691617 
L 822.369447 -372.704602 
L 819.722793 -372.704467 
L 817.07614 -372.712023 
L 814.429487 -372.670442 
L 811.782833 -372.689309 
L 809.13618 -372.738763 
L 806.489527 -372.719443 
L 803.842873 -372.648272 
L 801.19622 -372.618952 
L 798.549567 -372.623703 
L 795.902913 -372.59262 
L 793.25626 -372.575969 
L 790.609607 -372.525837 
L 787.962953 -372.492989 
L 785.3163 -372.443762 
L 782.669647 -372.445526 
L 780.022993 -372.418062 
L 777.37634 -372.373088 
L 774.729687 -372.384445 
L 772.083033 -372.40562 
L 769.43638 -372.436206 
L 766.789727 -372.439282 
L 764.143073 -372.419374 
L 761.49642 -372.384943 
L 758.849767 -372.366437 
L 756.203113 -372.311283 
L 753.55646 -372.273865 
L 750.909807 -372.216493 
L 748.263153 -372.183509 
L 745.6165 -372.154959 
L 742.969847 -372.089263 
L 740.323193 -372.063292 
L 737.67654 -372.051076 
L 735.029887 -372.024019 
L 732.383233 -371.964928 
L 729.73658 -371.967688 
L 727.089927 -371.932035 
L 724.443273 -371.924343 
L 721.79662 -371.917194 
L 719.149967 -371.849733 
L 716.503313 -371.798153 
L 713.85666 -371.781774 
L 711.210007 -371.698341 
L 708.563353 -371.674135 
L 705.9167 -371.561836 
L 703.270047 -371.543783 
L 700.623393 -371.48424 
L 697.97674 -371.435555 
L 695.330087 -371.366013 
L 692.683433 -371.351806 
L 690.03678 -371.376193 
L 687.390127 -371.329817 
L 684.743473 -371.346105 
L 682.09682 -371.334748 
L 679.450167 -371.292172 
L 676.803513 -371.261541 
L 674.15686 -371.244076 
L 671.510207 -371.159603 
L 668.863553 -371.191999 
L 666.2169 -371.153359 
L 663.570247 -371.153766 
L 660.923593 -371.079428 
L 658.27694 -371.01527 
L 655.630287 -370.951111 
L 652.983633 -370.911205 
L 650.33698 -370.792752 
L 647.690327 -370.74995 
L 645.043673 -370.723934 
L 642.39702 -370.660454 
L 639.750367 -370.612856 
L 637.103713 -370.578831 
L 634.45706 -370.543223 
L 631.810407 -370.546481 
L 629.163753 -370.51974 
L 626.5171 -370.43486 
L 623.870447 -370.419092 
L 621.223793 -370.365634 
L 618.57714 -370.322017 
L 615.930487 -370.279441 
L 613.283833 -370.260461 
L 610.63718 -370.179132 
L 607.990527 -370.141465 
L 605.343873 -370.114476 
L 602.69722 -370.068032 
L 600.050567 -370.098278 
L 597.403913 -369.990662 
L 594.75726 -369.952293 
L 592.110607 -369.917635 
L 589.463953 -369.840695 
L 586.8173 -369.788867 
L 584.170647 -369.783867 
L 581.523993 -369.780157 
L 578.87734 -369.73197 
L 576.230687 -369.71817 
L 573.584033 -369.726496 
L 570.93738 -369.6941 
L 568.290727 -369.655686 
L 565.644073 -369.650664 
L 562.99742 -369.554268 
L 560.350767 -369.509815 
L 557.704113 -369.484771 
L 555.05746 -369.46561 
L 552.410807 -369.411745 
L 549.764153 -369.32648 
L 547.1175 -369.291279 
L 544.470847 -369.265647 
L 541.824193 -369.134435 
L 539.17754 -369.126042 
L 536.530887 -369.086678 
L 533.884233 -369.125952 
L 531.23758 -369.024873 
L 528.590927 -368.934427 
L 525.944273 -368.840678 
L 523.29762 -368.728085 
L 520.650967 -368.666393 
L 518.004313 -368.60565 
L 515.35766 -368.537805 
L 512.711007 -368.516494 
L 510.064353 -368.437495 
L 507.4177 -368.329132 
L 504.771047 -368.30746 
L 502.124393 -368.236289 
L 499.47774 -368.212716 
L 496.831087 -368.188713 
L 494.184433 -368.080531 
L 491.53778 -368.044832 
L 488.891127 -367.984588 
L 486.244473 -367.915181 
L 483.59782 -367.856022 
L 480.951167 -367.824554 
L 478.304513 -367.793041 
L 475.65786 -367.698658 
L 473.011207 -367.656738 
L 470.364553 -367.619275 
L 467.7179 -367.624501 
L 465.071247 -367.617872 
L 462.424593 -367.587151 
L 459.77794 -367.52392 
L 457.131287 -367.470168 
L 454.484633 -367.417978 
L 451.83798 -367.298281 
L 449.191327 -367.221567 
L 446.544673 -367.176208 
L 443.89802 -367.170711 
L 441.251367 -367.071397 
L 438.604713 -366.98586 
L 435.95806 -366.906454 
L 433.311407 -366.79092 
L 430.664753 -366.777685 
L 428.0181 -366.745199 
L 425.371447 -366.628714 
L 422.724793 -366.633126 
L 420.07814 -366.505194 
L 417.431487 -366.418934 
L 414.784833 -366.316927 
L 412.13818 -366.254602 
L 409.491527 -366.160762 
L 406.844873 -366.051087 
L 404.19822 -365.901325 
L 401.551567 -365.844722 
L 398.904913 -365.787849 
L 396.25826 -365.698828 
L 393.611607 -365.631096 
L 390.964953 -365.582117 
L 388.3183 -365.464502 
L 385.671647 -365.386204 
L 383.024993 -365.280872 
L 380.37834 -365.224044 
L 377.731687 -365.203344 
L 375.085033 -365.15647 
L 372.43838 -365.060187 
L 369.791727 -364.789596 
L 367.145073 -364.714059 
L 364.49842 -364.643566 
L 361.851767 -364.634472 
L 359.205113 -364.509187 
L 356.55846 -364.308252 
L 353.911807 -364.231018 
L 351.265153 -364.103516 
L 348.6185 -364.041869 
L 345.971847 -363.921516 
L 343.325193 -363.768337 
L 340.67854 -363.585613 
L 338.031887 -363.48338 
L 335.385233 -363.369882 
L 332.73858 -363.279617 
L 330.091927 -363.193492 
L 327.445273 -363.157137 
L 324.79862 -363.184601 
L 322.151967 -363.060583 
L 319.505313 -362.915481 
L 316.85866 -362.876321 
L 314.212007 -362.6919 
L 311.565353 -362.587881 
L 308.9187 -362.617064 
L 306.272047 -362.4283 
L 303.625393 -362.381063 
L 300.97874 -362.33161 
L 298.332087 -362.161894 
L 295.685433 -362.131308 
L 293.03878 -362.007335 
L 290.392127 -361.832054 
L 287.745473 -361.788211 
L 285.09882 -361.691159 
L 282.452167 -361.575014 
L 279.805513 -361.421066 
L 277.15886 -361.25144 
L 274.512207 -361.078897 
L 271.865553 -360.781452 
L 269.2189 -360.712363 
L 266.572247 -360.607121 
L 263.925593 -360.390689 
L 261.27894 -360.398132 
L 258.632287 -360.249252 
L 255.985633 -360.020558 
L 253.33898 -359.929502 
L 250.692327 -359.928981 
L 248.045673 -359.689745 
L 245.39902 -359.55229 
L 242.752367 -359.336762 
L 240.105713 -359.173652 
L 237.45906 -358.948216 
L 234.812407 -358.840555 
L 232.165753 -358.668463 
L 229.5191 -358.524039 
L 226.872447 -358.182933 
L 224.225793 -357.897999 
L 221.57914 -357.725931 
L 218.932487 -357.635349 
L 216.285833 -357.501264 
L 213.63918 -357.351388 
L 210.992527 -357.232664 
L 208.345873 -357.16656 
L 205.69922 -357.175044 
L 203.052567 -357.022385 
L 200.405913 -356.819074 
L 197.75926 -356.635739 
L 195.112607 -356.415823 
L 192.465953 -356.326215 
L 189.8193 -356.14021 
L 187.172647 -355.815845 
L 184.525993 -355.511297 
L 181.87934 -355.376285 
L 179.232687 -355.204894 
L 176.586033 -355.08056 
L 173.93938 -354.7992 
L 171.292727 -354.385158 
L 168.646073 -354.241097 
L 165.99942 -354.243449 
L 163.352767 -353.870242 
L 160.706113 -353.52719 
L 158.05946 -353.370052 
L 155.412807 -353.293112 
L 152.766153 -353.270874 
L 150.1195 -352.799958 
L 147.472847 -352.597733 
L 144.826193 -352.307325 
L 142.17954 -352.321328 
L 139.532887 -352.050081 
L 136.886233 -351.801005 
L 134.23958 -351.427571 
L 131.592927 -351.000905 
L 128.946273 -350.760651 
L 126.29962 -350.341089 
L 123.652967 -350.332945 
L 121.006313 -349.993966 
L 118.35966 -349.736428 
L 115.713007 -349.2918 
L 113.066353 -349.050483 
L 110.4197 -348.759622 
L 107.773047 -348.628885 
L 105.126393 -348.21283 
L 102.47974 -347.863647 
L 99.833087 -347.506909 
L 97.186433 -347.25971 
L 94.53978 -346.819607 
L 91.893127 -345.753418 
L 89.246473 -344.817989 
L 86.59982 -344.154531 
L 83.953167 -343.266836 
L 81.306513 -342.736694 
L 78.65986 -341.443961 
L 76.013207 -340.291716 
L 73.366553 -339.080289 
L 70.7199 -337.028947 
L 68.073247 -334.947019 
L 65.426593 -331.462931 
L 62.77994 -328.493104 
L 60.133287 -324.672345 
L 57.486633 -319.947941 
L 54.83998 -314.744998 
L 52.193327 -312.650696 
z
" style="stroke: #0000ff; stroke-opacity: 0.2"/>
    </defs>
    <g clip-path="url(#p282218b592)">
     <use xlink:href="#m1fe6b17b31" x="0" y="432" style="fill: #0000ff; fill-opacity: 0.2; stroke: #0000ff; stroke-opacity: 0.2"/>
    </g>
   </g>
   <g id="matplotlib.axis_1">
    <g id="xtick_1">
     <g id="line2d_1">
      <defs>
       <path id="m1f9c8c99c5" d="M 0 0 
L 0 3.5 
" style="stroke: #000000; stroke-width: 0.8"/>
      </defs>
      <g>
       <use xlink:href="#m1f9c8c99c5" x="181.87934" y="390.04" style="stroke: #000000; stroke-width: 0.8"/>
      </g>
     </g>
     <g id="text_1">
      <!-- 50 -->
      <g transform="translate(175.51684 404.638438) scale(0.1 -0.1)">
       <defs>
        <path id="DejaVuSans-35" d="M 691 4666 
L 3169 4666 
L 3169 4134 
L 1269 4134 
L 1269 2991 
Q 1406 3038 1543 3061 
Q 1681 3084 1819 3084 
Q 2600 3084 3056 2656 
Q 3513 2228 3513 1497 
Q 3513 744 3044 326 
Q 2575 -91 1722 -91 
Q 1428 -91 1123 -41 
Q 819 9 494 109 
L 494 744 
Q 775 591 1075 516 
Q 1375 441 1709 441 
Q 2250 441 2565 725 
Q 2881 1009 2881 1497 
Q 2881 1984 2565 2268 
Q 2250 2553 1709 2553 
Q 1456 2553 1204 2497 
Q 953 2441 691 2322 
L 691 4666 
z
" transform="scale(0.015625)"/>
        <path id="DejaVuSans-30" d="M 2034 4250 
Q 1547 4250 1301 3770 
Q 1056 3291 1056 2328 
Q 1056 1369 1301 889 
Q 1547 409 2034 409 
Q 2525 409 2770 889 
Q 3016 1369 3016 2328 
Q 3016 3291 2770 3770 
Q 2525 4250 2034 4250 
z
M 2034 4750 
Q 2819 4750 3233 4129 
Q 3647 3509 3647 2328 
Q 3647 1150 3233 529 
Q 2819 -91 2034 -91 
Q 1250 -91 836 529 
Q 422 1150 422 2328 
Q 422 3509 836 4129 
Q 1250 4750 2034 4750 
z
" transform="scale(0.015625)"/>
       </defs>
       <use xlink:href="#DejaVuSans-35"/>
       <use xlink:href="#DejaVuSans-30" transform="translate(63.623047 0)"/>
      </g>
     </g>
    </g>
    <g id="xtick_2">
     <g id="line2d_2">
      <g>
       <use xlink:href="#m1f9c8c99c5" x="314.212007" y="390.04" style="stroke: #000000; stroke-width: 0.8"/>
      </g>
     </g>
     <g id="text_2">
      <!-- 100 -->
      <g transform="translate(304.668257 404.638438) scale(0.1 -0.1)">
       <defs>
        <path id="DejaVuSans-31" d="M 794 531 
L 1825 531 
L 1825 4091 
L 703 3866 
L 703 4441 
L 1819 4666 
L 2450 4666 
L 2450 531 
L 3481 531 
L 3481 0 
L 794 0 
L 794 531 
z
" transform="scale(0.015625)"/>
       </defs>
       <use xlink:href="#DejaVuSans-31"/>
       <use xlink:href="#DejaVuSans-30" transform="translate(63.623047 0)"/>
       <use xlink:href="#DejaVuSans-30" transform="translate(127.246094 0)"/>
      </g>
     </g>
    </g>
    <g id="xtick_3">
     <g id="line2d_3">
      <g>
       <use xlink:href="#m1f9c8c99c5" x="446.544673" y="390.04" style="stroke: #000000; stroke-width: 0.8"/>
      </g>
     </g>
     <g id="text_3">
      <!-- 150 -->
      <g transform="translate(437.000923 404.638438) scale(0.1 -0.1)">
       <use xlink:href="#DejaVuSans-31"/>
       <use xlink:href="#DejaVuSans-35" transform="translate(63.623047 0)"/>
       <use xlink:href="#DejaVuSans-30" transform="translate(127.246094 0)"/>
      </g>
     </g>
    </g>
    <g id="xtick_4">
     <g id="line2d_4">
      <g>
       <use xlink:href="#m1f9c8c99c5" x="578.87734" y="390.04" style="stroke: #000000; stroke-width: 0.8"/>
      </g>
     </g>
     <g id="text_4">
      <!-- 200 -->
      <g transform="translate(569.33359 404.638438) scale(0.1 -0.1)">
       <defs>
        <path id="DejaVuSans-32" d="M 1228 531 
L 3431 531 
L 3431 0 
L 469 0 
L 469 531 
Q 828 903 1448 1529 
Q 2069 2156 2228 2338 
Q 2531 2678 2651 2914 
Q 2772 3150 2772 3378 
Q 2772 3750 2511 3984 
Q 2250 4219 1831 4219 
Q 1534 4219 1204 4116 
Q 875 4013 500 3803 
L 500 4441 
Q 881 4594 1212 4672 
Q 1544 4750 1819 4750 
Q 2544 4750 2975 4387 
Q 3406 4025 3406 3419 
Q 3406 3131 3298 2873 
Q 3191 2616 2906 2266 
Q 2828 2175 2409 1742 
Q 1991 1309 1228 531 
z
" transform="scale(0.015625)"/>
       </defs>
       <use xlink:href="#DejaVuSans-32"/>
       <use xlink:href="#DejaVuSans-30" transform="translate(63.623047 0)"/>
       <use xlink:href="#DejaVuSans-30" transform="translate(127.246094 0)"/>
      </g>
     </g>
    </g>
    <g id="xtick_5">
     <g id="line2d_5">
      <g>
       <use xlink:href="#m1f9c8c99c5" x="711.210007" y="390.04" style="stroke: #000000; stroke-width: 0.8"/>
      </g>
     </g>
     <g id="text_5">
      <!-- 250 -->
      <g transform="translate(701.666257 404.638438) scale(0.1 -0.1)">
       <use xlink:href="#DejaVuSans-32"/>
       <use xlink:href="#DejaVuSans-35" transform="translate(63.623047 0)"/>
       <use xlink:href="#DejaVuSans-30" transform="translate(127.246094 0)"/>
      </g>
     </g>
    </g>
    <g id="xtick_6">
     <g id="line2d_6">
      <g>
       <use xlink:href="#m1f9c8c99c5" x="843.542673" y="390.04" style="stroke: #000000; stroke-width: 0.8"/>
      </g>
     </g>
     <g id="text_6">
      <!-- 300 -->
      <g transform="translate(833.998923 404.638438) scale(0.1 -0.1)">
       <defs>
        <path id="DejaVuSans-33" d="M 2597 2516 
Q 3050 2419 3304 2112 
Q 3559 1806 3559 1356 
Q 3559 666 3084 287 
Q 2609 -91 1734 -91 
Q 1441 -91 1130 -33 
Q 819 25 488 141 
L 488 750 
Q 750 597 1062 519 
Q 1375 441 1716 441 
Q 2309 441 2620 675 
Q 2931 909 2931 1356 
Q 2931 1769 2642 2001 
Q 2353 2234 1838 2234 
L 1294 2234 
L 1294 2753 
L 1863 2753 
Q 2328 2753 2575 2939 
Q 2822 3125 2822 3475 
Q 2822 3834 2567 4026 
Q 2313 4219 1838 4219 
Q 1578 4219 1281 4162 
Q 984 4106 628 3988 
L 628 4550 
Q 988 4650 1302 4700 
Q 1616 4750 1894 4750 
Q 2613 4750 3031 4423 
Q 3450 4097 3450 3541 
Q 3450 3153 3228 2886 
Q 3006 2619 2597 2516 
z
" transform="scale(0.015625)"/>
       </defs>
       <use xlink:href="#DejaVuSans-33"/>
       <use xlink:href="#DejaVuSans-30" transform="translate(63.623047 0)"/>
       <use xlink:href="#DejaVuSans-30" transform="translate(127.246094 0)"/>
      </g>
     </g>
    </g>
    <g id="text_7">
     <!-- Step -->
     <g transform="translate(436.482844 418.316562) scale(0.1 -0.1)">
      <defs>
       <path id="DejaVuSans-53" d="M 3425 4513 
L 3425 3897 
Q 3066 4069 2747 4153 
Q 2428 4238 2131 4238 
Q 1616 4238 1336 4038 
Q 1056 3838 1056 3469 
Q 1056 3159 1242 3001 
Q 1428 2844 1947 2747 
L 2328 2669 
Q 3034 2534 3370 2195 
Q 3706 1856 3706 1288 
Q 3706 609 3251 259 
Q 2797 -91 1919 -91 
Q 1588 -91 1214 -16 
Q 841 59 441 206 
L 441 856 
Q 825 641 1194 531 
Q 1563 422 1919 422 
Q 2459 422 2753 634 
Q 3047 847 3047 1241 
Q 3047 1584 2836 1778 
Q 2625 1972 2144 2069 
L 1759 2144 
Q 1053 2284 737 2584 
Q 422 2884 422 3419 
Q 422 4038 858 4394 
Q 1294 4750 2059 4750 
Q 2388 4750 2728 4690 
Q 3069 4631 3425 4513 
z
" transform="scale(0.015625)"/>
       <path id="DejaVuSans-74" d="M 1172 4494 
L 1172 3500 
L 2356 3500 
L 2356 3053 
L 1172 3053 
L 1172 1153 
Q 1172 725 1289 603 
Q 1406 481 1766 481 
L 2356 481 
L 2356 0 
L 1766 0 
Q 1100 0 847 248 
Q 594 497 594 1153 
L 594 3053 
L 172 3053 
L 172 3500 
L 594 3500 
L 594 4494 
L 1172 4494 
z
" transform="scale(0.015625)"/>
       <path id="DejaVuSans-65" d="M 3597 1894 
L 3597 1613 
L 953 1613 
Q 991 1019 1311 708 
Q 1631 397 2203 397 
Q 2534 397 2845 478 
Q 3156 559 3463 722 
L 3463 178 
Q 3153 47 2828 -22 
Q 2503 -91 2169 -91 
Q 1331 -91 842 396 
Q 353 884 353 1716 
Q 353 2575 817 3079 
Q 1281 3584 2069 3584 
Q 2775 3584 3186 3129 
Q 3597 2675 3597 1894 
z
M 3022 2063 
Q 3016 2534 2758 2815 
Q 2500 3097 2075 3097 
Q 1594 3097 1305 2825 
Q 1016 2553 972 2059 
L 3022 2063 
z
" transform="scale(0.015625)"/>
       <path id="DejaVuSans-70" d="M 1159 525 
L 1159 -1331 
L 581 -1331 
L 581 3500 
L 1159 3500 
L 1159 2969 
Q 1341 3281 1617 3432 
Q 1894 3584 2278 3584 
Q 2916 3584 3314 3078 
Q 3713 2572 3713 1747 
Q 3713 922 3314 415 
Q 2916 -91 2278 -91 
Q 1894 -91 1617 61 
Q 1341 213 1159 525 
z
M 3116 1747 
Q 3116 2381 2855 2742 
Q 2594 3103 2138 3103 
Q 1681 3103 1420 2742 
Q 1159 2381 1159 1747 
Q 1159 1113 1420 752 
Q 1681 391 2138 391 
Q 2594 391 2855 752 
Q 3116 1113 3116 1747 
z
" transform="scale(0.015625)"/>
      </defs>
      <use xlink:href="#DejaVuSans-53"/>
      <use xlink:href="#DejaVuSans-74" transform="translate(63.476562 0)"/>
      <use xlink:href="#DejaVuSans-65" transform="translate(102.685547 0)"/>
      <use xlink:href="#DejaVuSans-70" transform="translate(164.208984 0)"/>
     </g>
    </g>
   </g>
   <g id="matplotlib.axis_2">
    <g id="ytick_1">
     <g id="line2d_7">
      <defs>
       <path id="m854e8c1aa2" d="M 0 0 
L -3.5 0 
" style="stroke: #000000; stroke-width: 0.8"/>
      </defs>
      <g>
       <use xlink:href="#m854e8c1aa2" x="50.87" y="381.774836" style="stroke: #000000; stroke-width: 0.8"/>
      </g>
     </g>
     <g id="text_8">
      <!-- 20 -->
      <g transform="translate(31.145 385.574054) scale(0.1 -0.1)">
       <use xlink:href="#DejaVuSans-32"/>
       <use xlink:href="#DejaVuSans-30" transform="translate(63.623047 0)"/>
      </g>
     </g>
    </g>
    <g id="ytick_2">
     <g id="line2d_8">
      <g>
       <use xlink:href="#m854e8c1aa2" x="50.87" y="322.470602" style="stroke: #000000; stroke-width: 0.8"/>
      </g>
     </g>
     <g id="text_9">
      <!-- 40 -->
      <g transform="translate(31.145 326.269821) scale(0.1 -0.1)">
       <defs>
        <path id="DejaVuSans-34" d="M 2419 4116 
L 825 1625 
L 2419 1625 
L 2419 4116 
z
M 2253 4666 
L 3047 4666 
L 3047 1625 
L 3713 1625 
L 3713 1100 
L 3047 1100 
L 3047 0 
L 2419 0 
L 2419 1100 
L 313 1100 
L 313 1709 
L 2253 4666 
z
" transform="scale(0.015625)"/>
       </defs>
       <use xlink:href="#DejaVuSans-34"/>
       <use xlink:href="#DejaVuSans-30" transform="translate(63.623047 0)"/>
      </g>
     </g>
    </g>
    <g id="ytick_3">
     <g id="line2d_9">
      <g>
       <use xlink:href="#m854e8c1aa2" x="50.87" y="263.166369" style="stroke: #000000; stroke-width: 0.8"/>
      </g>
     </g>
     <g id="text_10">
      <!-- 60 -->
      <g transform="translate(31.145 266.965588) scale(0.1 -0.1)">
       <defs>
        <path id="DejaVuSans-36" d="M 2113 2584 
Q 1688 2584 1439 2293 
Q 1191 2003 1191 1497 
Q 1191 994 1439 701 
Q 1688 409 2113 409 
Q 2538 409 2786 701 
Q 3034 994 3034 1497 
Q 3034 2003 2786 2293 
Q 2538 2584 2113 2584 
z
M 3366 4563 
L 3366 3988 
Q 3128 4100 2886 4159 
Q 2644 4219 2406 4219 
Q 1781 4219 1451 3797 
Q 1122 3375 1075 2522 
Q 1259 2794 1537 2939 
Q 1816 3084 2150 3084 
Q 2853 3084 3261 2657 
Q 3669 2231 3669 1497 
Q 3669 778 3244 343 
Q 2819 -91 2113 -91 
Q 1303 -91 875 529 
Q 447 1150 447 2328 
Q 447 3434 972 4092 
Q 1497 4750 2381 4750 
Q 2619 4750 2861 4703 
Q 3103 4656 3366 4563 
z
" transform="scale(0.015625)"/>
       </defs>
       <use xlink:href="#DejaVuSans-36"/>
       <use xlink:href="#DejaVuSans-30" transform="translate(63.623047 0)"/>
      </g>
     </g>
    </g>
    <g id="ytick_4">
     <g id="line2d_10">
      <g>
       <use xlink:href="#m854e8c1aa2" x="50.87" y="203.862135" style="stroke: #000000; stroke-width: 0.8"/>
      </g>
     </g>
     <g id="text_11">
      <!-- 80 -->
      <g transform="translate(31.145 207.661354) scale(0.1 -0.1)">
       <defs>
        <path id="DejaVuSans-38" d="M 2034 2216 
Q 1584 2216 1326 1975 
Q 1069 1734 1069 1313 
Q 1069 891 1326 650 
Q 1584 409 2034 409 
Q 2484 409 2743 651 
Q 3003 894 3003 1313 
Q 3003 1734 2745 1975 
Q 2488 2216 2034 2216 
z
M 1403 2484 
Q 997 2584 770 2862 
Q 544 3141 544 3541 
Q 544 4100 942 4425 
Q 1341 4750 2034 4750 
Q 2731 4750 3128 4425 
Q 3525 4100 3525 3541 
Q 3525 3141 3298 2862 
Q 3072 2584 2669 2484 
Q 3125 2378 3379 2068 
Q 3634 1759 3634 1313 
Q 3634 634 3220 271 
Q 2806 -91 2034 -91 
Q 1263 -91 848 271 
Q 434 634 434 1313 
Q 434 1759 690 2068 
Q 947 2378 1403 2484 
z
M 1172 3481 
Q 1172 3119 1398 2916 
Q 1625 2713 2034 2713 
Q 2441 2713 2670 2916 
Q 2900 3119 2900 3481 
Q 2900 3844 2670 4047 
Q 2441 4250 2034 4250 
Q 1625 4250 1398 4047 
Q 1172 3844 1172 3481 
z
" transform="scale(0.015625)"/>
       </defs>
       <use xlink:href="#DejaVuSans-38"/>
       <use xlink:href="#DejaVuSans-30" transform="translate(63.623047 0)"/>
      </g>
     </g>
    </g>
    <g id="ytick_5">
     <g id="line2d_11">
      <g>
       <use xlink:href="#m854e8c1aa2" x="50.87" y="144.557902" style="stroke: #000000; stroke-width: 0.8"/>
      </g>
     </g>
     <g id="text_12">
      <!-- 100 -->
      <g transform="translate(24.7825 148.357121) scale(0.1 -0.1)">
       <use xlink:href="#DejaVuSans-31"/>
       <use xlink:href="#DejaVuSans-30" transform="translate(63.623047 0)"/>
       <use xlink:href="#DejaVuSans-30" transform="translate(127.246094 0)"/>
      </g>
     </g>
    </g>
    <g id="ytick_6">
     <g id="line2d_12">
      <g>
       <use xlink:href="#m854e8c1aa2" x="50.87" y="85.253669" style="stroke: #000000; stroke-width: 0.8"/>
      </g>
     </g>
     <g id="text_13">
      <!-- 120 -->
      <g transform="translate(24.7825 89.052887) scale(0.1 -0.1)">
       <use xlink:href="#DejaVuSans-31"/>
       <use xlink:href="#DejaVuSans-32" transform="translate(63.623047 0)"/>
       <use xlink:href="#DejaVuSans-30" transform="translate(127.246094 0)"/>
      </g>
     </g>
    </g>
    <g id="text_14">
     <!-- Profit -->
     <g transform="translate(18.702813 229.779063) rotate(-90) scale(0.1 -0.1)">
      <defs>
       <path id="DejaVuSans-50" d="M 1259 4147 
L 1259 2394 
L 2053 2394 
Q 2494 2394 2734 2622 
Q 2975 2850 2975 3272 
Q 2975 3691 2734 3919 
Q 2494 4147 2053 4147 
L 1259 4147 
z
M 628 4666 
L 2053 4666 
Q 2838 4666 3239 4311 
Q 3641 3956 3641 3272 
Q 3641 2581 3239 2228 
Q 2838 1875 2053 1875 
L 1259 1875 
L 1259 0 
L 628 0 
L 628 4666 
z
" transform="scale(0.015625)"/>
       <path id="DejaVuSans-72" d="M 2631 2963 
Q 2534 3019 2420 3045 
Q 2306 3072 2169 3072 
Q 1681 3072 1420 2755 
Q 1159 2438 1159 1844 
L 1159 0 
L 581 0 
L 581 3500 
L 1159 3500 
L 1159 2956 
Q 1341 3275 1631 3429 
Q 1922 3584 2338 3584 
Q 2397 3584 2469 3576 
Q 2541 3569 2628 3553 
L 2631 2963 
z
" transform="scale(0.015625)"/>
       <path id="DejaVuSans-6f" d="M 1959 3097 
Q 1497 3097 1228 2736 
Q 959 2375 959 1747 
Q 959 1119 1226 758 
Q 1494 397 1959 397 
Q 2419 397 2687 759 
Q 2956 1122 2956 1747 
Q 2956 2369 2687 2733 
Q 2419 3097 1959 3097 
z
M 1959 3584 
Q 2709 3584 3137 3096 
Q 3566 2609 3566 1747 
Q 3566 888 3137 398 
Q 2709 -91 1959 -91 
Q 1206 -91 779 398 
Q 353 888 353 1747 
Q 353 2609 779 3096 
Q 1206 3584 1959 3584 
z
" transform="scale(0.015625)"/>
       <path id="DejaVuSans-66" d="M 2375 4863 
L 2375 4384 
L 1825 4384 
Q 1516 4384 1395 4259 
Q 1275 4134 1275 3809 
L 1275 3500 
L 2222 3500 
L 2222 3053 
L 1275 3053 
L 1275 0 
L 697 0 
L 697 3053 
L 147 3053 
L 147 3500 
L 697 3500 
L 697 3744 
Q 697 4328 969 4595 
Q 1241 4863 1831 4863 
L 2375 4863 
z
" transform="scale(0.015625)"/>
       <path id="DejaVuSans-69" d="M 603 3500 
L 1178 3500 
L 1178 0 
L 603 0 
L 603 3500 
z
M 603 4863 
L 1178 4863 
L 1178 4134 
L 603 4134 
L 603 4863 
z
" transform="scale(0.015625)"/>
      </defs>
      <use xlink:href="#DejaVuSans-50"/>
      <use xlink:href="#DejaVuSans-72" transform="translate(58.552734 0)"/>
      <use xlink:href="#DejaVuSans-6f" transform="translate(97.416016 0)"/>
      <use xlink:href="#DejaVuSans-66" transform="translate(158.597656 0)"/>
      <use xlink:href="#DejaVuSans-69" transform="translate(193.802734 0)"/>
      <use xlink:href="#DejaVuSans-74" transform="translate(221.585938 0)"/>
     </g>
    </g>
   </g>
   <g id="line2d_13">
    <path d="M 52.193327 246.114728 
L 54.83998 245.770228 
L 57.486633 234.617293 
L 60.133287 224.522425 
L 62.77994 215.709001 
L 65.426593 208.292375 
L 68.073247 202.000689 
L 70.7199 196.572242 
L 73.366553 191.684615 
L 76.013207 187.336926 
L 81.306513 179.844559 
L 83.953167 176.814985 
L 89.246473 171.374164 
L 91.893127 168.895885 
L 97.186433 164.57109 
L 99.833087 162.686568 
L 102.47974 160.957826 
L 110.4197 156.374861 
L 115.713007 153.736163 
L 121.006313 151.322744 
L 126.29962 149.271152 
L 128.946273 148.283058 
L 131.592927 147.426605 
L 136.886233 145.53869 
L 144.826193 143.106945 
L 152.766153 140.984319 
L 165.99942 137.907735 
L 173.93938 136.300614 
L 179.232687 135.303515 
L 200.405913 131.803931 
L 213.63918 129.957913 
L 248.045673 126.029854 
L 269.2189 124.132753 
L 277.15886 123.468029 
L 287.745473 122.562711 
L 300.97874 121.532402 
L 311.565353 120.784832 
L 327.445273 119.73629 
L 361.851767 117.758064 
L 377.731687 116.99208 
L 433.311407 114.596147 
L 462.424593 113.505278 
L 502.124393 112.222861 
L 520.650967 111.706541 
L 584.170647 109.976555 
L 674.15686 108.111331 
L 735.029887 107.039848 
L 777.37634 106.351008 
L 843.542673 105.369745 
L 843.542673 105.369745 
" clip-path="url(#p282218b592)" style="fill: none; stroke: #0000ff; stroke-width: 1.5; stroke-linecap: square"/>
   </g>
   <g id="patch_3">
    <path d="M 50.87 390.04 
L 50.87 43.44 
" style="fill: none; stroke: #000000; stroke-width: 0.8; stroke-linejoin: miter; stroke-linecap: square"/>
   </g>
   <g id="patch_4">
    <path d="M 844.866 390.04 
L 844.866 43.44 
" style="fill: none; stroke: #000000; stroke-width: 0.8; stroke-linejoin: miter; stroke-linecap: square"/>
   </g>
   <g id="patch_5">
    <path d="M 50.87 390.04 
L 844.866 390.04 
" style="fill: none; stroke: #000000; stroke-width: 0.8; stroke-linejoin: miter; stroke-linecap: square"/>
   </g>
   <g id="patch_6">
    <path d="M 50.87 43.44 
L 844.866 43.44 
" style="fill: none; stroke: #000000; stroke-width: 0.8; stroke-linejoin: miter; stroke-linecap: square"/>
   </g>
   <g id="text_15">
    <!-- Mean profit per step with confidence interval per simulation step -->
    <g transform="translate(220.284875 21.763062) scale(0.14 -0.14)">
     <defs>
      <path id="DejaVuSans-4d" d="M 628 4666 
L 1569 4666 
L 2759 1491 
L 3956 4666 
L 4897 4666 
L 4897 0 
L 4281 0 
L 4281 4097 
L 3078 897 
L 2444 897 
L 1241 4097 
L 1241 0 
L 628 0 
L 628 4666 
z
" transform="scale(0.015625)"/>
      <path id="DejaVuSans-61" d="M 2194 1759 
Q 1497 1759 1228 1600 
Q 959 1441 959 1056 
Q 959 750 1161 570 
Q 1363 391 1709 391 
Q 2188 391 2477 730 
Q 2766 1069 2766 1631 
L 2766 1759 
L 2194 1759 
z
M 3341 1997 
L 3341 0 
L 2766 0 
L 2766 531 
Q 2569 213 2275 61 
Q 1981 -91 1556 -91 
Q 1019 -91 701 211 
Q 384 513 384 1019 
Q 384 1609 779 1909 
Q 1175 2209 1959 2209 
L 2766 2209 
L 2766 2266 
Q 2766 2663 2505 2880 
Q 2244 3097 1772 3097 
Q 1472 3097 1187 3025 
Q 903 2953 641 2809 
L 641 3341 
Q 956 3463 1253 3523 
Q 1550 3584 1831 3584 
Q 2591 3584 2966 3190 
Q 3341 2797 3341 1997 
z
" transform="scale(0.015625)"/>
      <path id="DejaVuSans-6e" d="M 3513 2113 
L 3513 0 
L 2938 0 
L 2938 2094 
Q 2938 2591 2744 2837 
Q 2550 3084 2163 3084 
Q 1697 3084 1428 2787 
Q 1159 2491 1159 1978 
L 1159 0 
L 581 0 
L 581 3500 
L 1159 3500 
L 1159 2956 
Q 1366 3272 1645 3428 
Q 1925 3584 2291 3584 
Q 2894 3584 3203 3211 
Q 3513 2838 3513 2113 
z
" transform="scale(0.015625)"/>
      <path id="DejaVuSans-20" transform="scale(0.015625)"/>
      <path id="DejaVuSans-73" d="M 2834 3397 
L 2834 2853 
Q 2591 2978 2328 3040 
Q 2066 3103 1784 3103 
Q 1356 3103 1142 2972 
Q 928 2841 928 2578 
Q 928 2378 1081 2264 
Q 1234 2150 1697 2047 
L 1894 2003 
Q 2506 1872 2764 1633 
Q 3022 1394 3022 966 
Q 3022 478 2636 193 
Q 2250 -91 1575 -91 
Q 1294 -91 989 -36 
Q 684 19 347 128 
L 347 722 
Q 666 556 975 473 
Q 1284 391 1588 391 
Q 1994 391 2212 530 
Q 2431 669 2431 922 
Q 2431 1156 2273 1281 
Q 2116 1406 1581 1522 
L 1381 1569 
Q 847 1681 609 1914 
Q 372 2147 372 2553 
Q 372 3047 722 3315 
Q 1072 3584 1716 3584 
Q 2034 3584 2315 3537 
Q 2597 3491 2834 3397 
z
" transform="scale(0.015625)"/>
      <path id="DejaVuSans-77" d="M 269 3500 
L 844 3500 
L 1563 769 
L 2278 3500 
L 2956 3500 
L 3675 769 
L 4391 3500 
L 4966 3500 
L 4050 0 
L 3372 0 
L 2619 2869 
L 1863 0 
L 1184 0 
L 269 3500 
z
" transform="scale(0.015625)"/>
      <path id="DejaVuSans-68" d="M 3513 2113 
L 3513 0 
L 2938 0 
L 2938 2094 
Q 2938 2591 2744 2837 
Q 2550 3084 2163 3084 
Q 1697 3084 1428 2787 
Q 1159 2491 1159 1978 
L 1159 0 
L 581 0 
L 581 4863 
L 1159 4863 
L 1159 2956 
Q 1366 3272 1645 3428 
Q 1925 3584 2291 3584 
Q 2894 3584 3203 3211 
Q 3513 2838 3513 2113 
z
" transform="scale(0.015625)"/>
      <path id="DejaVuSans-63" d="M 3122 3366 
L 3122 2828 
Q 2878 2963 2633 3030 
Q 2388 3097 2138 3097 
Q 1578 3097 1268 2742 
Q 959 2388 959 1747 
Q 959 1106 1268 751 
Q 1578 397 2138 397 
Q 2388 397 2633 464 
Q 2878 531 3122 666 
L 3122 134 
Q 2881 22 2623 -34 
Q 2366 -91 2075 -91 
Q 1284 -91 818 406 
Q 353 903 353 1747 
Q 353 2603 823 3093 
Q 1294 3584 2113 3584 
Q 2378 3584 2631 3529 
Q 2884 3475 3122 3366 
z
" transform="scale(0.015625)"/>
      <path id="DejaVuSans-64" d="M 2906 2969 
L 2906 4863 
L 3481 4863 
L 3481 0 
L 2906 0 
L 2906 525 
Q 2725 213 2448 61 
Q 2172 -91 1784 -91 
Q 1150 -91 751 415 
Q 353 922 353 1747 
Q 353 2572 751 3078 
Q 1150 3584 1784 3584 
Q 2172 3584 2448 3432 
Q 2725 3281 2906 2969 
z
M 947 1747 
Q 947 1113 1208 752 
Q 1469 391 1925 391 
Q 2381 391 2643 752 
Q 2906 1113 2906 1747 
Q 2906 2381 2643 2742 
Q 2381 3103 1925 3103 
Q 1469 3103 1208 2742 
Q 947 2381 947 1747 
z
" transform="scale(0.015625)"/>
      <path id="DejaVuSans-76" d="M 191 3500 
L 800 3500 
L 1894 563 
L 2988 3500 
L 3597 3500 
L 2284 0 
L 1503 0 
L 191 3500 
z
" transform="scale(0.015625)"/>
      <path id="DejaVuSans-6c" d="M 603 4863 
L 1178 4863 
L 1178 0 
L 603 0 
L 603 4863 
z
" transform="scale(0.015625)"/>
      <path id="DejaVuSans-6d" d="M 3328 2828 
Q 3544 3216 3844 3400 
Q 4144 3584 4550 3584 
Q 5097 3584 5394 3201 
Q 5691 2819 5691 2113 
L 5691 0 
L 5113 0 
L 5113 2094 
Q 5113 2597 4934 2840 
Q 4756 3084 4391 3084 
Q 3944 3084 3684 2787 
Q 3425 2491 3425 1978 
L 3425 0 
L 2847 0 
L 2847 2094 
Q 2847 2600 2669 2842 
Q 2491 3084 2119 3084 
Q 1678 3084 1418 2786 
Q 1159 2488 1159 1978 
L 1159 0 
L 581 0 
L 581 3500 
L 1159 3500 
L 1159 2956 
Q 1356 3278 1631 3431 
Q 1906 3584 2284 3584 
Q 2666 3584 2933 3390 
Q 3200 3197 3328 2828 
z
" transform="scale(0.015625)"/>
      <path id="DejaVuSans-75" d="M 544 1381 
L 544 3500 
L 1119 3500 
L 1119 1403 
Q 1119 906 1312 657 
Q 1506 409 1894 409 
Q 2359 409 2629 706 
Q 2900 1003 2900 1516 
L 2900 3500 
L 3475 3500 
L 3475 0 
L 2900 0 
L 2900 538 
Q 2691 219 2414 64 
Q 2138 -91 1772 -91 
Q 1169 -91 856 284 
Q 544 659 544 1381 
z
M 1991 3584 
L 1991 3584 
z
" transform="scale(0.015625)"/>
     </defs>
     <use xlink:href="#DejaVuSans-4d"/>
     <use xlink:href="#DejaVuSans-65" transform="translate(86.279297 0)"/>
     <use xlink:href="#DejaVuSans-61" transform="translate(147.802734 0)"/>
     <use xlink:href="#DejaVuSans-6e" transform="translate(209.082031 0)"/>
     <use xlink:href="#DejaVuSans-20" transform="translate(272.460938 0)"/>
     <use xlink:href="#DejaVuSans-70" transform="translate(304.248047 0)"/>
     <use xlink:href="#DejaVuSans-72" transform="translate(367.724609 0)"/>
     <use xlink:href="#DejaVuSans-6f" transform="translate(406.587891 0)"/>
     <use xlink:href="#DejaVuSans-66" transform="translate(467.769531 0)"/>
     <use xlink:href="#DejaVuSans-69" transform="translate(502.974609 0)"/>
     <use xlink:href="#DejaVuSans-74" transform="translate(530.757812 0)"/>
     <use xlink:href="#DejaVuSans-20" transform="translate(569.966797 0)"/>
     <use xlink:href="#DejaVuSans-70" transform="translate(601.753906 0)"/>
     <use xlink:href="#DejaVuSans-65" transform="translate(665.230469 0)"/>
     <use xlink:href="#DejaVuSans-72" transform="translate(726.753906 0)"/>
     <use xlink:href="#DejaVuSans-20" transform="translate(767.867188 0)"/>
     <use xlink:href="#DejaVuSans-73" transform="translate(799.654297 0)"/>
     <use xlink:href="#DejaVuSans-74" transform="translate(851.753906 0)"/>
     <use xlink:href="#DejaVuSans-65" transform="translate(890.962891 0)"/>
     <use xlink:href="#DejaVuSans-70" transform="translate(952.486328 0)"/>
     <use xlink:href="#DejaVuSans-20" transform="translate(1015.962891 0)"/>
     <use xlink:href="#DejaVuSans-77" transform="translate(1047.75 0)"/>
     <use xlink:href="#DejaVuSans-69" transform="translate(1129.537109 0)"/>
     <use xlink:href="#DejaVuSans-74" transform="translate(1157.320312 0)"/>
     <use xlink:href="#DejaVuSans-68" transform="translate(1196.529297 0)"/>
     <use xlink:href="#DejaVuSans-20" transform="translate(1259.908203 0)"/>
     <use xlink:href="#DejaVuSans-63" transform="translate(1291.695312 0)"/>
     <use xlink:href="#DejaVuSans-6f" transform="translate(1346.675781 0)"/>
     <use xlink:href="#DejaVuSans-6e" transform="translate(1407.857422 0)"/>
     <use xlink:href="#DejaVuSans-66" transform="translate(1471.236328 0)"/>
     <use xlink:href="#DejaVuSans-69" transform="translate(1506.441406 0)"/>
     <use xlink:href="#DejaVuSans-64" transform="translate(1534.224609 0)"/>
     <use xlink:href="#DejaVuSans-65" transform="translate(1597.701172 0)"/>
     <use xlink:href="#DejaVuSans-6e" transform="translate(1659.224609 0)"/>
     <use xlink:href="#DejaVuSans-63" transform="translate(1722.603516 0)"/>
     <use xlink:href="#DejaVuSans-65" transform="translate(1777.583984 0)"/>
     <use xlink:href="#DejaVuSans-20" transform="translate(1839.107422 0)"/>
     <use xlink:href="#DejaVuSans-69" transform="translate(1870.894531 0)"/>
     <use xlink:href="#DejaVuSans-6e" transform="translate(1898.677734 0)"/>
     <use xlink:href="#DejaVuSans-74" transform="translate(1962.056641 0)"/>
     <use xlink:href="#DejaVuSans-65" transform="translate(2001.265625 0)"/>
     <use xlink:href="#DejaVuSans-72" transform="translate(2062.789062 0)"/>
     <use xlink:href="#DejaVuSans-76" transform="translate(2103.902344 0)"/>
     <use xlink:href="#DejaVuSans-61" transform="translate(2163.082031 0)"/>
     <use xlink:href="#DejaVuSans-6c" transform="translate(2224.361328 0)"/>
     <use xlink:href="#DejaVuSans-20" transform="translate(2252.144531 0)"/>
     <use xlink:href="#DejaVuSans-70" transform="translate(2283.931641 0)"/>
     <use xlink:href="#DejaVuSans-65" transform="translate(2347.408203 0)"/>
     <use xlink:href="#DejaVuSans-72" transform="translate(2408.931641 0)"/>
     <use xlink:href="#DejaVuSans-20" transform="translate(2450.044922 0)"/>
     <use xlink:href="#DejaVuSans-73" transform="translate(2481.832031 0)"/>
     <use xlink:href="#DejaVuSans-69" transform="translate(2533.931641 0)"/>
     <use xlink:href="#DejaVuSans-6d" transform="translate(2561.714844 0)"/>
     <use xlink:href="#DejaVuSans-75" transform="translate(2659.126953 0)"/>
     <use xlink:href="#DejaVuSans-6c" transform="translate(2722.505859 0)"/>
     <use xlink:href="#DejaVuSans-61" transform="translate(2750.289062 0)"/>
     <use xlink:href="#DejaVuSans-74" transform="translate(2811.568359 0)"/>
     <use xlink:href="#DejaVuSans-69" transform="translate(2850.777344 0)"/>
     <use xlink:href="#DejaVuSans-6f" transform="translate(2878.560547 0)"/>
     <use xlink:href="#DejaVuSans-6e" transform="translate(2939.742188 0)"/>
     <use xlink:href="#DejaVuSans-20" transform="translate(3003.121094 0)"/>
     <use xlink:href="#DejaVuSans-73" transform="translate(3034.908203 0)"/>
     <use xlink:href="#DejaVuSans-74" transform="translate(3087.007812 0)"/>
     <use xlink:href="#DejaVuSans-65" transform="translate(3126.216797 0)"/>
     <use xlink:href="#DejaVuSans-70" transform="translate(3187.740234 0)"/>
    </g>
    <!-- Base Product: Sour Diesel, Recipe size: 7, T0: 5.0 -->
    <g transform="translate(276.056281 37.44) scale(0.14 -0.14)">
     <defs>
      <path id="DejaVuSans-42" d="M 1259 2228 
L 1259 519 
L 2272 519 
Q 2781 519 3026 730 
Q 3272 941 3272 1375 
Q 3272 1813 3026 2020 
Q 2781 2228 2272 2228 
L 1259 2228 
z
M 1259 4147 
L 1259 2741 
L 2194 2741 
Q 2656 2741 2882 2914 
Q 3109 3088 3109 3444 
Q 3109 3797 2882 3972 
Q 2656 4147 2194 4147 
L 1259 4147 
z
M 628 4666 
L 2241 4666 
Q 2963 4666 3353 4366 
Q 3744 4066 3744 3513 
Q 3744 3084 3544 2831 
Q 3344 2578 2956 2516 
Q 3422 2416 3680 2098 
Q 3938 1781 3938 1306 
Q 3938 681 3513 340 
Q 3088 0 2303 0 
L 628 0 
L 628 4666 
z
" transform="scale(0.015625)"/>
      <path id="DejaVuSans-3a" d="M 750 794 
L 1409 794 
L 1409 0 
L 750 0 
L 750 794 
z
M 750 3309 
L 1409 3309 
L 1409 2516 
L 750 2516 
L 750 3309 
z
" transform="scale(0.015625)"/>
      <path id="DejaVuSans-44" d="M 1259 4147 
L 1259 519 
L 2022 519 
Q 2988 519 3436 956 
Q 3884 1394 3884 2338 
Q 3884 3275 3436 3711 
Q 2988 4147 2022 4147 
L 1259 4147 
z
M 628 4666 
L 1925 4666 
Q 3281 4666 3915 4102 
Q 4550 3538 4550 2338 
Q 4550 1131 3912 565 
Q 3275 0 1925 0 
L 628 0 
L 628 4666 
z
" transform="scale(0.015625)"/>
      <path id="DejaVuSans-2c" d="M 750 794 
L 1409 794 
L 1409 256 
L 897 -744 
L 494 -744 
L 750 256 
L 750 794 
z
" transform="scale(0.015625)"/>
      <path id="DejaVuSans-52" d="M 2841 2188 
Q 3044 2119 3236 1894 
Q 3428 1669 3622 1275 
L 4263 0 
L 3584 0 
L 2988 1197 
Q 2756 1666 2539 1819 
Q 2322 1972 1947 1972 
L 1259 1972 
L 1259 0 
L 628 0 
L 628 4666 
L 2053 4666 
Q 2853 4666 3247 4331 
Q 3641 3997 3641 3322 
Q 3641 2881 3436 2590 
Q 3231 2300 2841 2188 
z
M 1259 4147 
L 1259 2491 
L 2053 2491 
Q 2509 2491 2742 2702 
Q 2975 2913 2975 3322 
Q 2975 3731 2742 3939 
Q 2509 4147 2053 4147 
L 1259 4147 
z
" transform="scale(0.015625)"/>
      <path id="DejaVuSans-7a" d="M 353 3500 
L 3084 3500 
L 3084 2975 
L 922 459 
L 3084 459 
L 3084 0 
L 275 0 
L 275 525 
L 2438 3041 
L 353 3041 
L 353 3500 
z
" transform="scale(0.015625)"/>
      <path id="DejaVuSans-37" d="M 525 4666 
L 3525 4666 
L 3525 4397 
L 1831 0 
L 1172 0 
L 2766 4134 
L 525 4134 
L 525 4666 
z
" transform="scale(0.015625)"/>
      <path id="DejaVuSans-54" d="M -19 4666 
L 3928 4666 
L 3928 4134 
L 2272 4134 
L 2272 0 
L 1638 0 
L 1638 4134 
L -19 4134 
L -19 4666 
z
" transform="scale(0.015625)"/>
      <path id="DejaVuSans-2e" d="M 684 794 
L 1344 794 
L 1344 0 
L 684 0 
L 684 794 
z
" transform="scale(0.015625)"/>
     </defs>
     <use xlink:href="#DejaVuSans-42"/>
     <use xlink:href="#DejaVuSans-61" transform="translate(68.603516 0)"/>
     <use xlink:href="#DejaVuSans-73" transform="translate(129.882812 0)"/>
     <use xlink:href="#DejaVuSans-65" transform="translate(181.982422 0)"/>
     <use xlink:href="#DejaVuSans-20" transform="translate(243.505859 0)"/>
     <use xlink:href="#DejaVuSans-50" transform="translate(275.292969 0)"/>
     <use xlink:href="#DejaVuSans-72" transform="translate(333.845703 0)"/>
     <use xlink:href="#DejaVuSans-6f" transform="translate(372.708984 0)"/>
     <use xlink:href="#DejaVuSans-64" transform="translate(433.890625 0)"/>
     <use xlink:href="#DejaVuSans-75" transform="translate(497.367188 0)"/>
     <use xlink:href="#DejaVuSans-63" transform="translate(560.746094 0)"/>
     <use xlink:href="#DejaVuSans-74" transform="translate(615.726562 0)"/>
     <use xlink:href="#DejaVuSans-3a" transform="translate(654.935547 0)"/>
     <use xlink:href="#DejaVuSans-20" transform="translate(688.626953 0)"/>
     <use xlink:href="#DejaVuSans-53" transform="translate(720.414062 0)"/>
     <use xlink:href="#DejaVuSans-6f" transform="translate(783.890625 0)"/>
     <use xlink:href="#DejaVuSans-75" transform="translate(845.072266 0)"/>
     <use xlink:href="#DejaVuSans-72" transform="translate(908.451172 0)"/>
     <use xlink:href="#DejaVuSans-20" transform="translate(949.564453 0)"/>
     <use xlink:href="#DejaVuSans-44" transform="translate(981.351562 0)"/>
     <use xlink:href="#DejaVuSans-69" transform="translate(1058.353516 0)"/>
     <use xlink:href="#DejaVuSans-65" transform="translate(1086.136719 0)"/>
     <use xlink:href="#DejaVuSans-73" transform="translate(1147.660156 0)"/>
     <use xlink:href="#DejaVuSans-65" transform="translate(1199.759766 0)"/>
     <use xlink:href="#DejaVuSans-6c" transform="translate(1261.283203 0)"/>
     <use xlink:href="#DejaVuSans-2c" transform="translate(1289.066406 0)"/>
     <use xlink:href="#DejaVuSans-20" transform="translate(1320.853516 0)"/>
     <use xlink:href="#DejaVuSans-52" transform="translate(1352.640625 0)"/>
     <use xlink:href="#DejaVuSans-65" transform="translate(1417.623047 0)"/>
     <use xlink:href="#DejaVuSans-63" transform="translate(1479.146484 0)"/>
     <use xlink:href="#DejaVuSans-69" transform="translate(1534.126953 0)"/>
     <use xlink:href="#DejaVuSans-70" transform="translate(1561.910156 0)"/>
     <use xlink:href="#DejaVuSans-65" transform="translate(1625.386719 0)"/>
     <use xlink:href="#DejaVuSans-20" transform="translate(1686.910156 0)"/>
     <use xlink:href="#DejaVuSans-73" transform="translate(1718.697266 0)"/>
     <use xlink:href="#DejaVuSans-69" transform="translate(1770.796875 0)"/>
     <use xlink:href="#DejaVuSans-7a" transform="translate(1798.580078 0)"/>
     <use xlink:href="#DejaVuSans-65" transform="translate(1851.070312 0)"/>
     <use xlink:href="#DejaVuSans-3a" transform="translate(1912.59375 0)"/>
     <use xlink:href="#DejaVuSans-20" transform="translate(1946.285156 0)"/>
     <use xlink:href="#DejaVuSans-37" transform="translate(1978.072266 0)"/>
     <use xlink:href="#DejaVuSans-2c" transform="translate(2041.695312 0)"/>
     <use xlink:href="#DejaVuSans-20" transform="translate(2073.482422 0)"/>
     <use xlink:href="#DejaVuSans-54" transform="translate(2105.269531 0)"/>
     <use xlink:href="#DejaVuSans-30" transform="translate(2166.353516 0)"/>
     <use xlink:href="#DejaVuSans-3a" transform="translate(2229.976562 0)"/>
     <use xlink:href="#DejaVuSans-20" transform="translate(2263.667969 0)"/>
     <use xlink:href="#DejaVuSans-35" transform="translate(2295.455078 0)"/>
     <use xlink:href="#DejaVuSans-2e" transform="translate(2359.078125 0)"/>
     <use xlink:href="#DejaVuSans-30" transform="translate(2390.865234 0)"/>
    </g>
   </g>
  </g>
 </g>
 <defs>
  <clipPath id="p282218b592">
   <rect x="50.87" y="43.44" width="793.996" height="346.6"/>
  </clipPath>
 </defs>
</svg>
