<?xml version="1.0" encoding="utf-8" standalone="no"?>
<!DOCTYPE svg PUBLIC "-//W3C//DTD SVG 1.1//EN"
  "http://www.w3.org/Graphics/SVG/1.1/DTD/svg11.dtd">
<svg xmlns:xlink="http://www.w3.org/1999/xlink" width="864pt" height="432pt" viewBox="0 0 864 432" xmlns="http://www.w3.org/2000/svg" version="1.1">
 <metadata>
  <rdf:RDF xmlns:dc="http://purl.org/dc/elements/1.1/" xmlns:cc="http://creativecommons.org/ns#" xmlns:rdf="http://www.w3.org/1999/02/22-rdf-syntax-ns#">
   <cc:Work>
    <dc:type rdf:resource="http://purl.org/dc/dcmitype/StillImage"/>
    <dc:date>2025-05-24T02:08:21.636056</dc:date>
    <dc:format>image/svg+xml</dc:format>
    <dc:creator>
     <cc:Agent>
      <dc:title>Matplotlib v3.10.3, https://matplotlib.org/</dc:title>
     </cc:Agent>
    </dc:creator>
   </cc:Work>
  </rdf:RDF>
 </metadata>
 <defs>
  <style type="text/css">*{stroke-linejoin: round; stroke-linecap: butt}</style>
 </defs>
 <g id="figure_1">
  <g id="patch_1">
   <path d="M 0 432 
L 864 432 
L 864 0 
L 0 0 
z
" style="fill: #ffffff"/>
  </g>
  <g id="axes_1">
   <g id="patch_2">
    <path d="M 50.87 390.04 
L 844.866 390.04 
L 844.866 43.44 
L 50.87 43.44 
z
" style="fill: #ffffff"/>
   </g>
   <g id="FillBetweenPolyCollection_1">
    <defs>
     <path id="m95bd0cb0b6" d="M 52.193327 -309.075134 
L 52.193327 -59.007118 
L 54.83998 -57.714545 
L 57.486633 -64.952149 
L 60.133287 -72.216809 
L 62.77994 -79.756149 
L 65.426593 -86.693434 
L 68.073247 -92.314613 
L 70.7199 -97.004552 
L 73.366553 -101.285328 
L 76.013207 -107.035908 
L 78.65986 -110.0258 
L 81.306513 -112.850294 
L 83.953167 -116.394521 
L 86.59982 -119.705092 
L 89.246473 -122.422202 
L 91.893127 -125.893538 
L 94.53978 -128.758316 
L 97.186433 -130.287564 
L 99.833087 -132.334582 
L 102.47974 -134.647861 
L 105.126393 -136.913811 
L 107.773047 -139.059935 
L 110.4197 -140.245866 
L 113.066353 -142.074539 
L 115.713007 -144.17605 
L 118.35966 -146.176262 
L 121.006313 -148.282091 
L 123.652967 -149.521152 
L 126.29962 -150.411028 
L 128.946273 -151.305092 
L 131.592927 -152.657229 
L 134.23958 -154.250503 
L 136.886233 -155.550546 
L 139.532887 -157.432229 
L 142.17954 -157.875624 
L 144.826193 -159.268841 
L 147.472847 -160.500421 
L 150.1195 -160.467717 
L 152.766153 -161.774314 
L 155.412807 -162.533295 
L 158.05946 -163.168916 
L 160.706113 -164.916247 
L 163.352767 -165.798217 
L 165.99942 -166.346651 
L 168.646073 -167.60761 
L 171.292727 -168.795405 
L 173.93938 -169.417788 
L 176.586033 -170.185449 
L 179.232687 -171.38776 
L 181.87934 -171.356745 
L 184.525993 -172.170405 
L 187.172647 -172.692568 
L 189.8193 -173.855762 
L 192.465953 -173.608802 
L 195.112607 -174.43461 
L 197.75926 -175.123754 
L 200.405913 -175.929279 
L 203.052567 -176.415117 
L 205.69922 -177.484951 
L 208.345873 -177.674233 
L 210.992527 -178.201816 
L 213.63918 -178.249875 
L 216.285833 -178.269592 
L 218.932487 -178.405427 
L 221.57914 -178.814024 
L 224.225793 -179.433036 
L 226.872447 -179.980456 
L 229.5191 -180.818107 
L 232.165753 -180.629927 
L 234.812407 -181.04607 
L 237.45906 -181.614471 
L 240.105713 -181.699804 
L 242.752367 -182.78026 
L 245.39902 -182.745134 
L 248.045673 -182.890479 
L 250.692327 -183.82474 
L 253.33898 -183.538281 
L 255.985633 -183.274114 
L 258.632287 -183.802384 
L 261.27894 -184.384984 
L 263.925593 -184.47481 
L 266.572247 -184.959896 
L 269.2189 -184.847747 
L 271.865553 -184.637658 
L 274.512207 -185.39172 
L 277.15886 -185.748484 
L 279.805513 -186.370921 
L 282.452167 -186.570966 
L 285.09882 -187.393601 
L 287.745473 -187.860061 
L 290.392127 -188.196061 
L 293.03878 -188.486227 
L 295.685433 -188.815488 
L 298.332087 -189.289952 
L 300.97874 -189.242994 
L 303.625393 -189.166745 
L 306.272047 -189.4357 
L 308.9187 -189.708897 
L 311.565353 -190.265281 
L 314.212007 -190.326732 
L 316.85866 -190.524575 
L 319.505313 -190.290723 
L 322.151967 -191.100315 
L 324.79862 -190.747826 
L 327.445273 -191.18591 
L 330.091927 -191.369838 
L 332.73858 -192.149233 
L 335.385233 -192.678452 
L 338.031887 -193.265022 
L 340.67854 -193.47679 
L 343.325193 -193.998692 
L 345.971847 -194.040949 
L 348.6185 -193.961123 
L 351.265153 -193.424859 
L 353.911807 -193.578361 
L 356.55846 -193.582701 
L 359.205113 -193.841384 
L 361.851767 -194.206719 
L 364.49842 -194.153589 
L 367.145073 -194.387212 
L 369.791727 -194.483297 
L 372.43838 -195.129028 
L 375.085033 -195.263489 
L 377.731687 -195.357514 
L 380.37834 -195.35735 
L 383.024993 -195.593732 
L 385.671647 -196.194445 
L 388.3183 -196.21703 
L 390.964953 -196.28931 
L 393.611607 -196.506389 
L 396.25826 -196.507632 
L 398.904913 -196.599192 
L 401.551567 -197.036666 
L 404.19822 -196.706347 
L 406.844873 -196.851822 
L 409.491527 -197.223483 
L 412.13818 -197.806944 
L 414.784833 -198.166162 
L 417.431487 -198.298006 
L 420.07814 -198.388868 
L 422.724793 -198.550233 
L 425.371447 -199.055962 
L 428.0181 -199.073748 
L 430.664753 -198.991763 
L 433.311407 -198.93234 
L 435.95806 -198.962199 
L 438.604713 -199.574799 
L 441.251367 -200.419724 
L 443.89802 -200.306506 
L 446.544673 -200.742431 
L 449.191327 -201.007395 
L 451.83798 -201.135673 
L 454.484633 -201.611675 
L 457.131287 -201.617989 
L 459.77794 -201.838307 
L 462.424593 -202.065975 
L 465.071247 -201.537879 
L 467.7179 -201.791229 
L 470.364553 -202.205398 
L 473.011207 -202.434691 
L 475.65786 -202.417297 
L 478.304513 -203.010955 
L 480.951167 -202.69767 
L 483.59782 -202.952034 
L 486.244473 -202.952819 
L 488.891127 -203.144762 
L 491.53778 -203.486793 
L 494.184433 -204.138118 
L 496.831087 -204.371468 
L 499.47774 -204.133407 
L 502.124393 -204.423202 
L 504.771047 -204.221041 
L 507.4177 -204.426452 
L 510.064353 -204.007168 
L 512.711007 -204.298752 
L 515.35766 -204.345055 
L 518.004313 -204.722943 
L 520.650967 -204.176962 
L 523.29762 -204.031748 
L 525.944273 -203.843939 
L 528.590927 -204.530051 
L 531.23758 -204.471337 
L 533.884233 -204.584403 
L 536.530887 -204.93518 
L 539.17754 -205.127657 
L 541.824193 -205.300199 
L 544.470847 -205.265978 
L 547.1175 -205.722863 
L 549.764153 -206.310829 
L 552.410807 -206.296041 
L 555.05746 -206.41011 
L 557.704113 -206.535912 
L 560.350767 -206.713667 
L 562.99742 -206.814606 
L 565.644073 -206.773035 
L 568.290727 -207.073408 
L 570.93738 -207.590315 
L 573.584033 -207.732628 
L 576.230687 -207.903731 
L 578.87734 -208.348489 
L 581.523993 -208.014179 
L 584.170647 -208.052827 
L 586.8173 -207.605626 
L 589.463953 -207.569072 
L 592.110607 -207.646368 
L 594.75726 -207.661984 
L 597.403913 -207.563183 
L 600.050567 -207.971038 
L 602.69722 -208.02925 
L 605.343873 -207.677295 
L 607.990527 -207.827962 
L 610.63718 -208.281749 
L 613.283833 -208.296297 
L 615.930487 -207.862858 
L 618.57714 -208.167834 
L 621.223793 -208.665547 
L 623.870447 -208.985528 
L 626.5171 -209.010872 
L 629.163753 -208.797849 
L 631.810407 -209.083457 
L 634.45706 -208.795036 
L 637.103713 -208.995779 
L 639.750367 -208.703999 
L 642.39702 -208.725722 
L 645.043673 -208.963303 
L 647.690327 -209.076718 
L 650.33698 -209.586885 
L 652.983633 -209.702262 
L 655.630287 -209.680932 
L 658.27694 -209.754215 
L 660.923593 -210.183662 
L 663.570247 -209.917488 
L 666.2169 -210.104447 
L 668.863553 -210.450055 
L 671.510207 -210.795924 
L 674.15686 -211.049165 
L 676.803513 -211.319789 
L 679.450167 -211.495559 
L 682.09682 -210.996297 
L 684.743473 -211.352308 
L 687.390127 -210.947463 
L 690.03678 -211.289036 
L 692.683433 -211.477195 
L 695.330087 -211.472309 
L 697.97674 -211.578395 
L 700.623393 -212.077243 
L 703.270047 -212.023677 
L 705.9167 -212.073208 
L 708.563353 -211.890677 
L 711.210007 -212.138181 
L 713.85666 -211.809411 
L 716.503313 -212.118028 
L 719.149967 -212.077461 
L 721.79662 -212.018966 
L 724.443273 -212.078726 
L 727.089927 -212.384421 
L 729.73658 -212.58307 
L 732.383233 -212.994982 
L 735.029887 -212.847609 
L 737.67654 -212.582547 
L 740.323193 -213.109596 
L 742.969847 -213.072038 
L 745.6165 -213.091559 
L 748.263153 -213.049203 
L 750.909807 -213.255966 
L 753.55646 -213.134394 
L 756.203113 -213.230753 
L 758.849767 -213.158037 
L 761.49642 -212.728371 
L 764.143073 -212.563964 
L 766.789727 -212.24828 
L 769.43638 -212.437377 
L 772.083033 -212.549526 
L 774.729687 -212.785776 
L 777.37634 -213.077949 
L 780.022993 -213.341462 
L 782.669647 -213.291909 
L 785.3163 -213.489097 
L 787.962953 -213.652806 
L 790.609607 -214.075754 
L 793.25626 -214.546488 
L 795.902913 -215.060255 
L 798.549567 -214.948564 
L 801.19622 -214.902871 
L 803.842873 -215.040407 
L 806.489527 -214.565551 
L 809.13618 -214.809936 
L 811.782833 -214.863198 
L 814.429487 -215.086689 
L 817.07614 -215.655505 
L 819.722793 -215.408109 
L 822.369447 -215.605341 
L 825.0161 -215.923162 
L 827.662753 -216.008877 
L 830.309407 -216.099063 
L 832.95606 -216.074418 
L 835.602713 -216.422708 
L 838.249367 -216.057056 
L 840.89602 -216.12962 
L 843.542673 -216.611499 
L 843.542673 -372.21003 
L 843.542673 -372.21003 
L 840.89602 -372.562181 
L 838.249367 -372.426368 
L 835.602713 -372.230139 
L 832.95606 -372.342965 
L 830.309407 -372.218209 
L 827.662753 -372.048371 
L 825.0161 -372.068349 
L 822.369447 -372.317468 
L 819.722793 -372.51265 
L 817.07614 -372.331209 
L 814.429487 -372.695399 
L 811.782833 -372.753306 
L 809.13618 -372.636227 
L 806.489527 -372.805455 
L 803.842873 -372.257315 
L 801.19622 -372.350358 
L 798.549567 -372.277315 
L 795.902913 -372.044445 
L 793.25626 -372.200084 
L 790.609607 -372.380653 
L 787.962953 -372.369791 
L 785.3163 -372.359933 
L 782.669647 -372.592498 
L 780.022993 -372.642923 
L 777.37634 -372.582988 
L 774.729687 -372.511188 
L 772.083033 -372.418232 
L 769.43638 -372.582596 
L 766.789727 -372.562661 
L 764.143073 -372.174348 
L 761.49642 -371.998033 
L 758.849767 -371.585467 
L 756.203113 -371.430089 
L 753.55646 -371.258179 
L 750.909807 -371.0423 
L 748.263153 -371.204133 
L 745.6165 -370.979748 
L 742.969847 -370.977283 
L 740.323193 -371.035735 
L 737.67654 -371.316937 
L 735.029887 -371.193206 
L 732.383233 -371.06363 
L 729.73658 -371.459882 
L 727.089927 -371.564092 
L 724.443273 -371.498967 
L 721.79662 -371.523525 
L 719.149967 -371.357853 
L 716.503313 -371.28095 
L 713.85666 -371.277547 
L 711.210007 -371.056128 
L 708.563353 -370.980925 
L 705.9167 -370.899027 
L 703.270047 -370.994404 
L 700.623393 -370.917544 
L 697.97674 -371.018352 
L 695.330087 -371.207579 
L 692.683433 -370.968406 
L 690.03678 -370.894054 
L 687.390127 -370.975298 
L 684.743473 -370.724391 
L 682.09682 -370.826878 
L 679.450167 -370.258651 
L 676.803513 -370.42958 
L 674.15686 -370.64956 
L 671.510207 -370.694598 
L 668.863553 -370.695252 
L 666.2169 -370.625764 
L 663.570247 -370.772854 
L 660.923593 -370.382796 
L 658.27694 -370.557236 
L 655.630287 -370.516974 
L 652.983633 -370.472524 
L 650.33698 -370.387638 
L 647.690327 -370.510365 
L 645.043673 -370.29213 
L 642.39702 -370.272959 
L 639.750367 -370.212457 
L 637.103713 -370.039587 
L 634.45706 -370.044953 
L 631.810407 -369.696553 
L 629.163753 -369.851385 
L 626.5171 -369.569835 
L 623.870447 -369.574371 
L 621.223793 -369.745605 
L 618.57714 -369.944516 
L 615.930487 -370.03335 
L 613.283833 -369.62604 
L 610.63718 -369.36076 
L 607.990527 -369.374893 
L 605.343873 -369.264401 
L 602.69722 -369.237422 
L 600.050567 -369.142219 
L 597.403913 -369.414326 
L 594.75726 -369.288306 
L 592.110607 -369.215982 
L 589.463953 -369.146625 
L 586.8173 -369.067192 
L 584.170647 -368.537155 
L 581.523993 -368.495846 
L 578.87734 -368.141121 
L 576.230687 -368.503436 
L 573.584033 -368.429695 
L 570.93738 -368.382344 
L 568.290727 -368.584309 
L 565.644073 -368.678355 
L 562.99742 -368.771355 
L 560.350767 -368.562978 
L 557.704113 -368.420033 
L 555.05746 -368.052789 
L 552.410807 -368.077434 
L 549.764153 -367.875252 
L 547.1175 -368.068361 
L 544.470847 -368.420294 
L 541.824193 -368.356673 
L 539.17754 -368.224568 
L 536.530887 -368.155101 
L 533.884233 -368.06112 
L 531.23758 -368.008034 
L 528.590927 -367.604323 
L 525.944273 -367.62766 
L 523.29762 -367.40539 
L 520.650967 -367.125649 
L 518.004313 -366.649026 
L 515.35766 -366.631229 
L 512.711007 -366.371445 
L 510.064353 -366.378751 
L 507.4177 -365.983198 
L 504.771047 -366.005401 
L 502.124393 -365.831811 
L 499.47774 -365.73626 
L 496.831087 -365.37894 
L 494.184433 -365.36762 
L 491.53778 -365.64904 
L 488.891127 -365.709848 
L 486.244473 -365.812117 
L 483.59782 -365.622933 
L 480.951167 -365.628735 
L 478.304513 -365.200727 
L 475.65786 -365.485462 
L 473.011207 -365.414556 
L 470.364553 -365.529715 
L 467.7179 -365.577742 
L 465.071247 -365.618222 
L 462.424593 -364.793766 
L 459.77794 -364.822185 
L 457.131287 -364.760701 
L 454.484633 -364.564953 
L 451.83798 -364.831847 
L 449.191327 -364.796492 
L 446.544673 -364.573481 
L 443.89802 -364.757016 
L 441.251367 -364.672195 
L 438.604713 -364.943538 
L 435.95806 -365.206005 
L 433.311407 -364.964716 
L 430.664753 -364.562641 
L 428.0181 -364.081547 
L 425.371447 -364.085625 
L 422.724793 -364.6566 
L 420.07814 -364.50299 
L 417.431487 -364.276379 
L 414.784833 -364.141438 
L 412.13818 -363.986802 
L 409.491527 -364.147065 
L 406.844873 -364.308157 
L 404.19822 -364.105669 
L 401.551567 -363.782068 
L 398.904913 -363.993542 
L 396.25826 -363.893999 
L 393.611607 -363.675916 
L 390.964953 -363.604749 
L 388.3183 -363.512273 
L 385.671647 -363.209828 
L 383.024993 -363.424639 
L 380.37834 -363.458663 
L 377.731687 -363.202107 
L 375.085033 -363.031244 
L 372.43838 -362.893228 
L 369.791727 -363.131397 
L 367.145073 -363.044199 
L 364.49842 -362.847709 
L 361.851767 -362.636802 
L 359.205113 -362.799879 
L 356.55846 -363.057678 
L 353.911807 -362.908953 
L 351.265153 -362.721776 
L 348.6185 -362.004235 
L 345.971847 -361.689161 
L 343.325193 -361.469029 
L 340.67854 -361.551319 
L 338.031887 -361.576576 
L 335.385233 -361.620502 
L 332.73858 -361.695181 
L 330.091927 -361.991781 
L 327.445273 -361.739064 
L 324.79862 -361.690383 
L 322.151967 -361.379322 
L 319.505313 -361.822554 
L 316.85866 -361.498974 
L 314.212007 -361.117445 
L 311.565353 -360.748172 
L 308.9187 -360.729633 
L 306.272047 -360.822022 
L 303.625393 -360.75236 
L 300.97874 -360.357417 
L 298.332087 -360.045026 
L 295.685433 -360.154165 
L 293.03878 -360.298005 
L 290.392127 -359.905374 
L 287.745473 -359.67691 
L 285.09882 -359.575949 
L 282.452167 -359.73438 
L 279.805513 -359.707074 
L 277.15886 -359.620617 
L 274.512207 -359.57246 
L 271.865553 -359.369296 
L 269.2189 -358.8665 
L 266.572247 -358.369179 
L 263.925593 -358.468852 
L 261.27894 -357.924508 
L 258.632287 -357.484853 
L 255.985633 -357.488583 
L 253.33898 -356.549949 
L 250.692327 -355.998843 
L 248.045673 -356.268922 
L 245.39902 -356.212302 
L 242.752367 -355.584729 
L 240.105713 -355.837512 
L 237.45906 -355.580301 
L 234.812407 -355.385425 
L 232.165753 -355.233363 
L 229.5191 -354.683479 
L 226.872447 -354.909217 
L 224.225793 -354.762236 
L 221.57914 -354.326311 
L 218.932487 -353.85176 
L 216.285833 -353.52613 
L 213.63918 -352.792079 
L 210.992527 -352.243416 
L 208.345873 -352.195869 
L 205.69922 -351.549713 
L 203.052567 -351.681884 
L 200.405913 -351.325524 
L 197.75926 -351.297236 
L 195.112607 -351.130757 
L 192.465953 -350.981813 
L 189.8193 -350.507459 
L 187.172647 -350.67758 
L 184.525993 -350.095481 
L 181.87934 -350.23328 
L 179.232687 -349.488541 
L 176.586033 -349.413862 
L 173.93938 -348.970762 
L 171.292727 -348.661184 
L 168.646073 -348.808492 
L 165.99942 -348.639396 
L 163.352767 -347.940524 
L 160.706113 -347.418208 
L 158.05946 -347.521393 
L 155.412807 -347.035697 
L 152.766153 -346.444569 
L 150.1195 -346.532574 
L 147.472847 -345.649165 
L 144.826193 -345.430581 
L 142.17954 -344.99398 
L 139.532887 -344.106295 
L 136.886233 -344.608982 
L 134.23958 -344.462656 
L 131.592927 -344.089283 
L 128.946273 -343.49327 
L 126.29962 -343.111391 
L 123.652967 -341.835089 
L 121.006313 -341.213317 
L 118.35966 -341.305619 
L 115.713007 -341.072356 
L 113.066353 -340.575798 
L 110.4197 -339.852739 
L 107.773047 -338.899122 
L 105.126393 -337.901841 
L 102.47974 -337.125237 
L 99.833087 -336.563553 
L 97.186433 -335.633578 
L 94.53978 -334.680136 
L 91.893127 -333.982813 
L 89.246473 -333.639931 
L 86.59982 -332.630697 
L 83.953167 -331.647658 
L 81.306513 -330.565294 
L 78.65986 -328.706391 
L 76.013207 -326.727728 
L 73.366553 -326.157603 
L 70.7199 -324.072614 
L 68.073247 -321.576847 
L 65.426593 -320.303533 
L 62.77994 -318.774731 
L 60.133287 -315.970783 
L 57.486633 -313.495518 
L 54.83998 -311.484662 
L 52.193327 -309.075134 
z
" style="stroke: #0000ff; stroke-opacity: 0.2"/>
    </defs>
    <g clip-path="url(#p65cfb46f7a)">
     <use xlink:href="#m95bd0cb0b6" x="0" y="432" style="fill: #0000ff; fill-opacity: 0.2; stroke: #0000ff; stroke-opacity: 0.2"/>
    </g>
   </g>
   <g id="matplotlib.axis_1">
    <g id="xtick_1">
     <g id="line2d_1">
      <defs>
       <path id="mbfe01d6b9c" d="M 0 0 
L 0 3.5 
" style="stroke: #000000; stroke-width: 0.8"/>
      </defs>
      <g>
       <use xlink:href="#mbfe01d6b9c" x="181.87934" y="390.04" style="stroke: #000000; stroke-width: 0.8"/>
      </g>
     </g>
     <g id="text_1">
      <!-- 50 -->
      <g transform="translate(175.51684 404.638438) scale(0.1 -0.1)">
       <defs>
        <path id="DejaVuSans-35" d="M 691 4666 
L 3169 4666 
L 3169 4134 
L 1269 4134 
L 1269 2991 
Q 1406 3038 1543 3061 
Q 1681 3084 1819 3084 
Q 2600 3084 3056 2656 
Q 3513 2228 3513 1497 
Q 3513 744 3044 326 
Q 2575 -91 1722 -91 
Q 1428 -91 1123 -41 
Q 819 9 494 109 
L 494 744 
Q 775 591 1075 516 
Q 1375 441 1709 441 
Q 2250 441 2565 725 
Q 2881 1009 2881 1497 
Q 2881 1984 2565 2268 
Q 2250 2553 1709 2553 
Q 1456 2553 1204 2497 
Q 953 2441 691 2322 
L 691 4666 
z
" transform="scale(0.015625)"/>
        <path id="DejaVuSans-30" d="M 2034 4250 
Q 1547 4250 1301 3770 
Q 1056 3291 1056 2328 
Q 1056 1369 1301 889 
Q 1547 409 2034 409 
Q 2525 409 2770 889 
Q 3016 1369 3016 2328 
Q 3016 3291 2770 3770 
Q 2525 4250 2034 4250 
z
M 2034 4750 
Q 2819 4750 3233 4129 
Q 3647 3509 3647 2328 
Q 3647 1150 3233 529 
Q 2819 -91 2034 -91 
Q 1250 -91 836 529 
Q 422 1150 422 2328 
Q 422 3509 836 4129 
Q 1250 4750 2034 4750 
z
" transform="scale(0.015625)"/>
       </defs>
       <use xlink:href="#DejaVuSans-35"/>
       <use xlink:href="#DejaVuSans-30" transform="translate(63.623047 0)"/>
      </g>
     </g>
    </g>
    <g id="xtick_2">
     <g id="line2d_2">
      <g>
       <use xlink:href="#mbfe01d6b9c" x="314.212007" y="390.04" style="stroke: #000000; stroke-width: 0.8"/>
      </g>
     </g>
     <g id="text_2">
      <!-- 100 -->
      <g transform="translate(304.668257 404.638438) scale(0.1 -0.1)">
       <defs>
        <path id="DejaVuSans-31" d="M 794 531 
L 1825 531 
L 1825 4091 
L 703 3866 
L 703 4441 
L 1819 4666 
L 2450 4666 
L 2450 531 
L 3481 531 
L 3481 0 
L 794 0 
L 794 531 
z
" transform="scale(0.015625)"/>
       </defs>
       <use xlink:href="#DejaVuSans-31"/>
       <use xlink:href="#DejaVuSans-30" transform="translate(63.623047 0)"/>
       <use xlink:href="#DejaVuSans-30" transform="translate(127.246094 0)"/>
      </g>
     </g>
    </g>
    <g id="xtick_3">
     <g id="line2d_3">
      <g>
       <use xlink:href="#mbfe01d6b9c" x="446.544673" y="390.04" style="stroke: #000000; stroke-width: 0.8"/>
      </g>
     </g>
     <g id="text_3">
      <!-- 150 -->
      <g transform="translate(437.000923 404.638438) scale(0.1 -0.1)">
       <use xlink:href="#DejaVuSans-31"/>
       <use xlink:href="#DejaVuSans-35" transform="translate(63.623047 0)"/>
       <use xlink:href="#DejaVuSans-30" transform="translate(127.246094 0)"/>
      </g>
     </g>
    </g>
    <g id="xtick_4">
     <g id="line2d_4">
      <g>
       <use xlink:href="#mbfe01d6b9c" x="578.87734" y="390.04" style="stroke: #000000; stroke-width: 0.8"/>
      </g>
     </g>
     <g id="text_4">
      <!-- 200 -->
      <g transform="translate(569.33359 404.638438) scale(0.1 -0.1)">
       <defs>
        <path id="DejaVuSans-32" d="M 1228 531 
L 3431 531 
L 3431 0 
L 469 0 
L 469 531 
Q 828 903 1448 1529 
Q 2069 2156 2228 2338 
Q 2531 2678 2651 2914 
Q 2772 3150 2772 3378 
Q 2772 3750 2511 3984 
Q 2250 4219 1831 4219 
Q 1534 4219 1204 4116 
Q 875 4013 500 3803 
L 500 4441 
Q 881 4594 1212 4672 
Q 1544 4750 1819 4750 
Q 2544 4750 2975 4387 
Q 3406 4025 3406 3419 
Q 3406 3131 3298 2873 
Q 3191 2616 2906 2266 
Q 2828 2175 2409 1742 
Q 1991 1309 1228 531 
z
" transform="scale(0.015625)"/>
       </defs>
       <use xlink:href="#DejaVuSans-32"/>
       <use xlink:href="#DejaVuSans-30" transform="translate(63.623047 0)"/>
       <use xlink:href="#DejaVuSans-30" transform="translate(127.246094 0)"/>
      </g>
     </g>
    </g>
    <g id="xtick_5">
     <g id="line2d_5">
      <g>
       <use xlink:href="#mbfe01d6b9c" x="711.210007" y="390.04" style="stroke: #000000; stroke-width: 0.8"/>
      </g>
     </g>
     <g id="text_5">
      <!-- 250 -->
      <g transform="translate(701.666257 404.638438) scale(0.1 -0.1)">
       <use xlink:href="#DejaVuSans-32"/>
       <use xlink:href="#DejaVuSans-35" transform="translate(63.623047 0)"/>
       <use xlink:href="#DejaVuSans-30" transform="translate(127.246094 0)"/>
      </g>
     </g>
    </g>
    <g id="xtick_6">
     <g id="line2d_6">
      <g>
       <use xlink:href="#mbfe01d6b9c" x="843.542673" y="390.04" style="stroke: #000000; stroke-width: 0.8"/>
      </g>
     </g>
     <g id="text_6">
      <!-- 300 -->
      <g transform="translate(833.998923 404.638438) scale(0.1 -0.1)">
       <defs>
        <path id="DejaVuSans-33" d="M 2597 2516 
Q 3050 2419 3304 2112 
Q 3559 1806 3559 1356 
Q 3559 666 3084 287 
Q 2609 -91 1734 -91 
Q 1441 -91 1130 -33 
Q 819 25 488 141 
L 488 750 
Q 750 597 1062 519 
Q 1375 441 1716 441 
Q 2309 441 2620 675 
Q 2931 909 2931 1356 
Q 2931 1769 2642 2001 
Q 2353 2234 1838 2234 
L 1294 2234 
L 1294 2753 
L 1863 2753 
Q 2328 2753 2575 2939 
Q 2822 3125 2822 3475 
Q 2822 3834 2567 4026 
Q 2313 4219 1838 4219 
Q 1578 4219 1281 4162 
Q 984 4106 628 3988 
L 628 4550 
Q 988 4650 1302 4700 
Q 1616 4750 1894 4750 
Q 2613 4750 3031 4423 
Q 3450 4097 3450 3541 
Q 3450 3153 3228 2886 
Q 3006 2619 2597 2516 
z
" transform="scale(0.015625)"/>
       </defs>
       <use xlink:href="#DejaVuSans-33"/>
       <use xlink:href="#DejaVuSans-30" transform="translate(63.623047 0)"/>
       <use xlink:href="#DejaVuSans-30" transform="translate(127.246094 0)"/>
      </g>
     </g>
    </g>
    <g id="text_7">
     <!-- Step -->
     <g transform="translate(436.482844 418.316562) scale(0.1 -0.1)">
      <defs>
       <path id="DejaVuSans-53" d="M 3425 4513 
L 3425 3897 
Q 3066 4069 2747 4153 
Q 2428 4238 2131 4238 
Q 1616 4238 1336 4038 
Q 1056 3838 1056 3469 
Q 1056 3159 1242 3001 
Q 1428 2844 1947 2747 
L 2328 2669 
Q 3034 2534 3370 2195 
Q 3706 1856 3706 1288 
Q 3706 609 3251 259 
Q 2797 -91 1919 -91 
Q 1588 -91 1214 -16 
Q 841 59 441 206 
L 441 856 
Q 825 641 1194 531 
Q 1563 422 1919 422 
Q 2459 422 2753 634 
Q 3047 847 3047 1241 
Q 3047 1584 2836 1778 
Q 2625 1972 2144 2069 
L 1759 2144 
Q 1053 2284 737 2584 
Q 422 2884 422 3419 
Q 422 4038 858 4394 
Q 1294 4750 2059 4750 
Q 2388 4750 2728 4690 
Q 3069 4631 3425 4513 
z
" transform="scale(0.015625)"/>
       <path id="DejaVuSans-74" d="M 1172 4494 
L 1172 3500 
L 2356 3500 
L 2356 3053 
L 1172 3053 
L 1172 1153 
Q 1172 725 1289 603 
Q 1406 481 1766 481 
L 2356 481 
L 2356 0 
L 1766 0 
Q 1100 0 847 248 
Q 594 497 594 1153 
L 594 3053 
L 172 3053 
L 172 3500 
L 594 3500 
L 594 4494 
L 1172 4494 
z
" transform="scale(0.015625)"/>
       <path id="DejaVuSans-65" d="M 3597 1894 
L 3597 1613 
L 953 1613 
Q 991 1019 1311 708 
Q 1631 397 2203 397 
Q 2534 397 2845 478 
Q 3156 559 3463 722 
L 3463 178 
Q 3153 47 2828 -22 
Q 2503 -91 2169 -91 
Q 1331 -91 842 396 
Q 353 884 353 1716 
Q 353 2575 817 3079 
Q 1281 3584 2069 3584 
Q 2775 3584 3186 3129 
Q 3597 2675 3597 1894 
z
M 3022 2063 
Q 3016 2534 2758 2815 
Q 2500 3097 2075 3097 
Q 1594 3097 1305 2825 
Q 1016 2553 972 2059 
L 3022 2063 
z
" transform="scale(0.015625)"/>
       <path id="DejaVuSans-70" d="M 1159 525 
L 1159 -1331 
L 581 -1331 
L 581 3500 
L 1159 3500 
L 1159 2969 
Q 1341 3281 1617 3432 
Q 1894 3584 2278 3584 
Q 2916 3584 3314 3078 
Q 3713 2572 3713 1747 
Q 3713 922 3314 415 
Q 2916 -91 2278 -91 
Q 1894 -91 1617 61 
Q 1341 213 1159 525 
z
M 3116 1747 
Q 3116 2381 2855 2742 
Q 2594 3103 2138 3103 
Q 1681 3103 1420 2742 
Q 1159 2381 1159 1747 
Q 1159 1113 1420 752 
Q 1681 391 2138 391 
Q 2594 391 2855 752 
Q 3116 1113 3116 1747 
z
" transform="scale(0.015625)"/>
      </defs>
      <use xlink:href="#DejaVuSans-53"/>
      <use xlink:href="#DejaVuSans-74" transform="translate(63.476562 0)"/>
      <use xlink:href="#DejaVuSans-65" transform="translate(102.685547 0)"/>
      <use xlink:href="#DejaVuSans-70" transform="translate(164.208984 0)"/>
     </g>
    </g>
   </g>
   <g id="matplotlib.axis_2">
    <g id="ytick_1">
     <g id="line2d_7">
      <defs>
       <path id="m6839c84b45" d="M 0 0 
L -3.5 0 
" style="stroke: #000000; stroke-width: 0.8"/>
      </defs>
      <g>
       <use xlink:href="#m6839c84b45" x="50.87" y="354.777655" style="stroke: #000000; stroke-width: 0.8"/>
      </g>
     </g>
     <g id="text_8">
      <!-- 20 -->
      <g transform="translate(31.145 358.576874) scale(0.1 -0.1)">
       <use xlink:href="#DejaVuSans-32"/>
       <use xlink:href="#DejaVuSans-30" transform="translate(63.623047 0)"/>
      </g>
     </g>
    </g>
    <g id="ytick_2">
     <g id="line2d_8">
      <g>
       <use xlink:href="#m6839c84b45" x="50.87" y="297.602937" style="stroke: #000000; stroke-width: 0.8"/>
      </g>
     </g>
     <g id="text_9">
      <!-- 40 -->
      <g transform="translate(31.145 301.402156) scale(0.1 -0.1)">
       <defs>
        <path id="DejaVuSans-34" d="M 2419 4116 
L 825 1625 
L 2419 1625 
L 2419 4116 
z
M 2253 4666 
L 3047 4666 
L 3047 1625 
L 3713 1625 
L 3713 1100 
L 3047 1100 
L 3047 0 
L 2419 0 
L 2419 1100 
L 313 1100 
L 313 1709 
L 2253 4666 
z
" transform="scale(0.015625)"/>
       </defs>
       <use xlink:href="#DejaVuSans-34"/>
       <use xlink:href="#DejaVuSans-30" transform="translate(63.623047 0)"/>
      </g>
     </g>
    </g>
    <g id="ytick_3">
     <g id="line2d_9">
      <g>
       <use xlink:href="#m6839c84b45" x="50.87" y="240.42822" style="stroke: #000000; stroke-width: 0.8"/>
      </g>
     </g>
     <g id="text_10">
      <!-- 60 -->
      <g transform="translate(31.145 244.227438) scale(0.1 -0.1)">
       <defs>
        <path id="DejaVuSans-36" d="M 2113 2584 
Q 1688 2584 1439 2293 
Q 1191 2003 1191 1497 
Q 1191 994 1439 701 
Q 1688 409 2113 409 
Q 2538 409 2786 701 
Q 3034 994 3034 1497 
Q 3034 2003 2786 2293 
Q 2538 2584 2113 2584 
z
M 3366 4563 
L 3366 3988 
Q 3128 4100 2886 4159 
Q 2644 4219 2406 4219 
Q 1781 4219 1451 3797 
Q 1122 3375 1075 2522 
Q 1259 2794 1537 2939 
Q 1816 3084 2150 3084 
Q 2853 3084 3261 2657 
Q 3669 2231 3669 1497 
Q 3669 778 3244 343 
Q 2819 -91 2113 -91 
Q 1303 -91 875 529 
Q 447 1150 447 2328 
Q 447 3434 972 4092 
Q 1497 4750 2381 4750 
Q 2619 4750 2861 4703 
Q 3103 4656 3366 4563 
z
" transform="scale(0.015625)"/>
       </defs>
       <use xlink:href="#DejaVuSans-36"/>
       <use xlink:href="#DejaVuSans-30" transform="translate(63.623047 0)"/>
      </g>
     </g>
    </g>
    <g id="ytick_4">
     <g id="line2d_10">
      <g>
       <use xlink:href="#m6839c84b45" x="50.87" y="183.253502" style="stroke: #000000; stroke-width: 0.8"/>
      </g>
     </g>
     <g id="text_11">
      <!-- 80 -->
      <g transform="translate(31.145 187.052721) scale(0.1 -0.1)">
       <defs>
        <path id="DejaVuSans-38" d="M 2034 2216 
Q 1584 2216 1326 1975 
Q 1069 1734 1069 1313 
Q 1069 891 1326 650 
Q 1584 409 2034 409 
Q 2484 409 2743 651 
Q 3003 894 3003 1313 
Q 3003 1734 2745 1975 
Q 2488 2216 2034 2216 
z
M 1403 2484 
Q 997 2584 770 2862 
Q 544 3141 544 3541 
Q 544 4100 942 4425 
Q 1341 4750 2034 4750 
Q 2731 4750 3128 4425 
Q 3525 4100 3525 3541 
Q 3525 3141 3298 2862 
Q 3072 2584 2669 2484 
Q 3125 2378 3379 2068 
Q 3634 1759 3634 1313 
Q 3634 634 3220 271 
Q 2806 -91 2034 -91 
Q 1263 -91 848 271 
Q 434 634 434 1313 
Q 434 1759 690 2068 
Q 947 2378 1403 2484 
z
M 1172 3481 
Q 1172 3119 1398 2916 
Q 1625 2713 2034 2713 
Q 2441 2713 2670 2916 
Q 2900 3119 2900 3481 
Q 2900 3844 2670 4047 
Q 2441 4250 2034 4250 
Q 1625 4250 1398 4047 
Q 1172 3844 1172 3481 
z
" transform="scale(0.015625)"/>
       </defs>
       <use xlink:href="#DejaVuSans-38"/>
       <use xlink:href="#DejaVuSans-30" transform="translate(63.623047 0)"/>
      </g>
     </g>
    </g>
    <g id="ytick_5">
     <g id="line2d_11">
      <g>
       <use xlink:href="#m6839c84b45" x="50.87" y="126.078784" style="stroke: #000000; stroke-width: 0.8"/>
      </g>
     </g>
     <g id="text_12">
      <!-- 100 -->
      <g transform="translate(24.7825 129.878003) scale(0.1 -0.1)">
       <use xlink:href="#DejaVuSans-31"/>
       <use xlink:href="#DejaVuSans-30" transform="translate(63.623047 0)"/>
       <use xlink:href="#DejaVuSans-30" transform="translate(127.246094 0)"/>
      </g>
     </g>
    </g>
    <g id="ytick_6">
     <g id="line2d_12">
      <g>
       <use xlink:href="#m6839c84b45" x="50.87" y="68.904066" style="stroke: #000000; stroke-width: 0.8"/>
      </g>
     </g>
     <g id="text_13">
      <!-- 120 -->
      <g transform="translate(24.7825 72.703285) scale(0.1 -0.1)">
       <use xlink:href="#DejaVuSans-31"/>
       <use xlink:href="#DejaVuSans-32" transform="translate(63.623047 0)"/>
       <use xlink:href="#DejaVuSans-30" transform="translate(127.246094 0)"/>
      </g>
     </g>
    </g>
    <g id="text_14">
     <!-- Profit -->
     <g transform="translate(18.702813 229.779063) rotate(-90) scale(0.1 -0.1)">
      <defs>
       <path id="DejaVuSans-50" d="M 1259 4147 
L 1259 2394 
L 2053 2394 
Q 2494 2394 2734 2622 
Q 2975 2850 2975 3272 
Q 2975 3691 2734 3919 
Q 2494 4147 2053 4147 
L 1259 4147 
z
M 628 4666 
L 2053 4666 
Q 2838 4666 3239 4311 
Q 3641 3956 3641 3272 
Q 3641 2581 3239 2228 
Q 2838 1875 2053 1875 
L 1259 1875 
L 1259 0 
L 628 0 
L 628 4666 
z
" transform="scale(0.015625)"/>
       <path id="DejaVuSans-72" d="M 2631 2963 
Q 2534 3019 2420 3045 
Q 2306 3072 2169 3072 
Q 1681 3072 1420 2755 
Q 1159 2438 1159 1844 
L 1159 0 
L 581 0 
L 581 3500 
L 1159 3500 
L 1159 2956 
Q 1341 3275 1631 3429 
Q 1922 3584 2338 3584 
Q 2397 3584 2469 3576 
Q 2541 3569 2628 3553 
L 2631 2963 
z
" transform="scale(0.015625)"/>
       <path id="DejaVuSans-6f" d="M 1959 3097 
Q 1497 3097 1228 2736 
Q 959 2375 959 1747 
Q 959 1119 1226 758 
Q 1494 397 1959 397 
Q 2419 397 2687 759 
Q 2956 1122 2956 1747 
Q 2956 2369 2687 2733 
Q 2419 3097 1959 3097 
z
M 1959 3584 
Q 2709 3584 3137 3096 
Q 3566 2609 3566 1747 
Q 3566 888 3137 398 
Q 2709 -91 1959 -91 
Q 1206 -91 779 398 
Q 353 888 353 1747 
Q 353 2609 779 3096 
Q 1206 3584 1959 3584 
z
" transform="scale(0.015625)"/>
       <path id="DejaVuSans-66" d="M 2375 4863 
L 2375 4384 
L 1825 4384 
Q 1516 4384 1395 4259 
Q 1275 4134 1275 3809 
L 1275 3500 
L 2222 3500 
L 2222 3053 
L 1275 3053 
L 1275 0 
L 697 0 
L 697 3053 
L 147 3053 
L 147 3500 
L 697 3500 
L 697 3744 
Q 697 4328 969 4595 
Q 1241 4863 1831 4863 
L 2375 4863 
z
" transform="scale(0.015625)"/>
       <path id="DejaVuSans-69" d="M 603 3500 
L 1178 3500 
L 1178 0 
L 603 0 
L 603 3500 
z
M 603 4863 
L 1178 4863 
L 1178 4134 
L 603 4134 
L 603 4863 
z
" transform="scale(0.015625)"/>
      </defs>
      <use xlink:href="#DejaVuSans-50"/>
      <use xlink:href="#DejaVuSans-72" transform="translate(58.552734 0)"/>
      <use xlink:href="#DejaVuSans-6f" transform="translate(97.416016 0)"/>
      <use xlink:href="#DejaVuSans-66" transform="translate(158.597656 0)"/>
      <use xlink:href="#DejaVuSans-69" transform="translate(193.802734 0)"/>
      <use xlink:href="#DejaVuSans-74" transform="translate(221.585938 0)"/>
     </g>
    </g>
   </g>
   <g id="line2d_13">
    <path d="M 52.193327 247.958879 
L 54.83998 247.400391 
L 57.486633 242.776166 
L 60.133287 237.906204 
L 62.77994 232.73456 
L 65.426593 228.501516 
L 73.366553 218.278535 
L 76.013207 215.118182 
L 81.306513 210.292212 
L 83.953167 207.978911 
L 86.59982 205.832111 
L 94.53978 200.280769 
L 97.186433 199.039429 
L 107.773047 193.020471 
L 110.4197 191.950692 
L 115.713007 189.375797 
L 121.006313 187.25229 
L 123.652967 186.32188 
L 126.29962 185.238796 
L 128.946273 184.600819 
L 134.23958 182.643421 
L 147.472847 178.925201 
L 150.1195 178.499855 
L 158.05946 176.654845 
L 160.706113 175.832767 
L 168.646073 173.791944 
L 176.586033 172.20035 
L 179.232687 171.56185 
L 184.525993 170.867057 
L 189.8193 169.81839 
L 192.465953 169.704692 
L 197.75926 168.789505 
L 210.992527 166.777384 
L 218.932487 165.871401 
L 226.872447 164.555164 
L 229.5191 164.249207 
L 234.812407 163.784252 
L 237.45906 163.402614 
L 240.105713 163.231336 
L 242.752367 162.817505 
L 245.39902 162.521276 
L 248.045673 162.420294 
L 250.692327 162.088208 
L 253.33898 161.955885 
L 266.572247 160.335457 
L 271.865553 159.996523 
L 274.512207 159.517915 
L 277.15886 159.315449 
L 279.805513 158.961008 
L 282.452167 158.847332 
L 293.03878 157.607889 
L 298.332087 157.332511 
L 308.9187 156.780729 
L 316.85866 155.988225 
L 319.505313 155.943361 
L 322.151967 155.760176 
L 324.79862 155.780896 
L 338.031887 154.579207 
L 340.67854 154.485945 
L 345.971847 154.13495 
L 356.55846 153.67981 
L 361.851767 153.578239 
L 364.49842 153.499351 
L 367.145073 153.2843 
L 369.791727 153.192653 
L 375.085033 152.852628 
L 401.551567 151.590633 
L 404.19822 151.593992 
L 422.724793 150.396578 
L 428.0181 150.422358 
L 435.95806 149.915898 
L 438.604713 149.740826 
L 441.251367 149.454041 
L 443.89802 149.468239 
L 446.544673 149.342044 
L 449.191327 149.098051 
L 459.77794 148.66976 
L 467.7179 148.315515 
L 470.364553 148.132438 
L 480.951167 147.836798 
L 502.124393 146.872493 
L 510.064353 146.80704 
L 520.650967 146.348694 
L 525.944273 146.264201 
L 528.590927 145.932813 
L 541.824193 145.171564 
L 547.1175 145.104388 
L 552.410807 144.813262 
L 555.05746 144.768551 
L 560.350767 144.361677 
L 562.99742 144.20702 
L 565.644073 144.274305 
L 581.523993 143.744988 
L 602.69722 143.366664 
L 605.343873 143.529152 
L 623.870447 142.72005 
L 634.45706 142.580006 
L 637.103713 142.482317 
L 642.39702 142.500659 
L 655.630287 141.901047 
L 666.2169 141.634895 
L 671.510207 141.254739 
L 676.803513 141.125316 
L 682.09682 141.088413 
L 684.743473 140.96165 
L 687.390127 141.038619 
L 695.330087 140.660056 
L 697.97674 140.701626 
L 700.623393 140.502606 
L 713.85666 140.456521 
L 716.503313 140.300511 
L 724.443273 140.211154 
L 727.089927 140.025743 
L 735.029887 139.979592 
L 737.67654 140.050258 
L 740.323193 139.927335 
L 745.6165 139.964347 
L 750.909807 139.850867 
L 774.729687 139.351518 
L 780.022993 139.007807 
L 785.3163 139.075485 
L 787.962953 138.988701 
L 795.902913 138.44765 
L 806.489527 138.314497 
L 814.429487 138.108956 
L 817.07614 138.006643 
L 825.0161 138.004244 
L 830.309407 137.841364 
L 843.542673 137.589235 
L 843.542673 137.589235 
" clip-path="url(#p65cfb46f7a)" style="fill: none; stroke: #0000ff; stroke-width: 1.5; stroke-linecap: square"/>
   </g>
   <g id="patch_3">
    <path d="M 50.87 390.04 
L 50.87 43.44 
" style="fill: none; stroke: #000000; stroke-width: 0.8; stroke-linejoin: miter; stroke-linecap: square"/>
   </g>
   <g id="patch_4">
    <path d="M 844.866 390.04 
L 844.866 43.44 
" style="fill: none; stroke: #000000; stroke-width: 0.8; stroke-linejoin: miter; stroke-linecap: square"/>
   </g>
   <g id="patch_5">
    <path d="M 50.87 390.04 
L 844.866 390.04 
" style="fill: none; stroke: #000000; stroke-width: 0.8; stroke-linejoin: miter; stroke-linecap: square"/>
   </g>
   <g id="patch_6">
    <path d="M 50.87 43.44 
L 844.866 43.44 
" style="fill: none; stroke: #000000; stroke-width: 0.8; stroke-linejoin: miter; stroke-linecap: square"/>
   </g>
   <g id="text_15">
    <!-- Mean profit per step with confidence interval per simulation step -->
    <g transform="translate(220.284875 21.763062) scale(0.14 -0.14)">
     <defs>
      <path id="DejaVuSans-4d" d="M 628 4666 
L 1569 4666 
L 2759 1491 
L 3956 4666 
L 4897 4666 
L 4897 0 
L 4281 0 
L 4281 4097 
L 3078 897 
L 2444 897 
L 1241 4097 
L 1241 0 
L 628 0 
L 628 4666 
z
" transform="scale(0.015625)"/>
      <path id="DejaVuSans-61" d="M 2194 1759 
Q 1497 1759 1228 1600 
Q 959 1441 959 1056 
Q 959 750 1161 570 
Q 1363 391 1709 391 
Q 2188 391 2477 730 
Q 2766 1069 2766 1631 
L 2766 1759 
L 2194 1759 
z
M 3341 1997 
L 3341 0 
L 2766 0 
L 2766 531 
Q 2569 213 2275 61 
Q 1981 -91 1556 -91 
Q 1019 -91 701 211 
Q 384 513 384 1019 
Q 384 1609 779 1909 
Q 1175 2209 1959 2209 
L 2766 2209 
L 2766 2266 
Q 2766 2663 2505 2880 
Q 2244 3097 1772 3097 
Q 1472 3097 1187 3025 
Q 903 2953 641 2809 
L 641 3341 
Q 956 3463 1253 3523 
Q 1550 3584 1831 3584 
Q 2591 3584 2966 3190 
Q 3341 2797 3341 1997 
z
" transform="scale(0.015625)"/>
      <path id="DejaVuSans-6e" d="M 3513 2113 
L 3513 0 
L 2938 0 
L 2938 2094 
Q 2938 2591 2744 2837 
Q 2550 3084 2163 3084 
Q 1697 3084 1428 2787 
Q 1159 2491 1159 1978 
L 1159 0 
L 581 0 
L 581 3500 
L 1159 3500 
L 1159 2956 
Q 1366 3272 1645 3428 
Q 1925 3584 2291 3584 
Q 2894 3584 3203 3211 
Q 3513 2838 3513 2113 
z
" transform="scale(0.015625)"/>
      <path id="DejaVuSans-20" transform="scale(0.015625)"/>
      <path id="DejaVuSans-73" d="M 2834 3397 
L 2834 2853 
Q 2591 2978 2328 3040 
Q 2066 3103 1784 3103 
Q 1356 3103 1142 2972 
Q 928 2841 928 2578 
Q 928 2378 1081 2264 
Q 1234 2150 1697 2047 
L 1894 2003 
Q 2506 1872 2764 1633 
Q 3022 1394 3022 966 
Q 3022 478 2636 193 
Q 2250 -91 1575 -91 
Q 1294 -91 989 -36 
Q 684 19 347 128 
L 347 722 
Q 666 556 975 473 
Q 1284 391 1588 391 
Q 1994 391 2212 530 
Q 2431 669 2431 922 
Q 2431 1156 2273 1281 
Q 2116 1406 1581 1522 
L 1381 1569 
Q 847 1681 609 1914 
Q 372 2147 372 2553 
Q 372 3047 722 3315 
Q 1072 3584 1716 3584 
Q 2034 3584 2315 3537 
Q 2597 3491 2834 3397 
z
" transform="scale(0.015625)"/>
      <path id="DejaVuSans-77" d="M 269 3500 
L 844 3500 
L 1563 769 
L 2278 3500 
L 2956 3500 
L 3675 769 
L 4391 3500 
L 4966 3500 
L 4050 0 
L 3372 0 
L 2619 2869 
L 1863 0 
L 1184 0 
L 269 3500 
z
" transform="scale(0.015625)"/>
      <path id="DejaVuSans-68" d="M 3513 2113 
L 3513 0 
L 2938 0 
L 2938 2094 
Q 2938 2591 2744 2837 
Q 2550 3084 2163 3084 
Q 1697 3084 1428 2787 
Q 1159 2491 1159 1978 
L 1159 0 
L 581 0 
L 581 4863 
L 1159 4863 
L 1159 2956 
Q 1366 3272 1645 3428 
Q 1925 3584 2291 3584 
Q 2894 3584 3203 3211 
Q 3513 2838 3513 2113 
z
" transform="scale(0.015625)"/>
      <path id="DejaVuSans-63" d="M 3122 3366 
L 3122 2828 
Q 2878 2963 2633 3030 
Q 2388 3097 2138 3097 
Q 1578 3097 1268 2742 
Q 959 2388 959 1747 
Q 959 1106 1268 751 
Q 1578 397 2138 397 
Q 2388 397 2633 464 
Q 2878 531 3122 666 
L 3122 134 
Q 2881 22 2623 -34 
Q 2366 -91 2075 -91 
Q 1284 -91 818 406 
Q 353 903 353 1747 
Q 353 2603 823 3093 
Q 1294 3584 2113 3584 
Q 2378 3584 2631 3529 
Q 2884 3475 3122 3366 
z
" transform="scale(0.015625)"/>
      <path id="DejaVuSans-64" d="M 2906 2969 
L 2906 4863 
L 3481 4863 
L 3481 0 
L 2906 0 
L 2906 525 
Q 2725 213 2448 61 
Q 2172 -91 1784 -91 
Q 1150 -91 751 415 
Q 353 922 353 1747 
Q 353 2572 751 3078 
Q 1150 3584 1784 3584 
Q 2172 3584 2448 3432 
Q 2725 3281 2906 2969 
z
M 947 1747 
Q 947 1113 1208 752 
Q 1469 391 1925 391 
Q 2381 391 2643 752 
Q 2906 1113 2906 1747 
Q 2906 2381 2643 2742 
Q 2381 3103 1925 3103 
Q 1469 3103 1208 2742 
Q 947 2381 947 1747 
z
" transform="scale(0.015625)"/>
      <path id="DejaVuSans-76" d="M 191 3500 
L 800 3500 
L 1894 563 
L 2988 3500 
L 3597 3500 
L 2284 0 
L 1503 0 
L 191 3500 
z
" transform="scale(0.015625)"/>
      <path id="DejaVuSans-6c" d="M 603 4863 
L 1178 4863 
L 1178 0 
L 603 0 
L 603 4863 
z
" transform="scale(0.015625)"/>
      <path id="DejaVuSans-6d" d="M 3328 2828 
Q 3544 3216 3844 3400 
Q 4144 3584 4550 3584 
Q 5097 3584 5394 3201 
Q 5691 2819 5691 2113 
L 5691 0 
L 5113 0 
L 5113 2094 
Q 5113 2597 4934 2840 
Q 4756 3084 4391 3084 
Q 3944 3084 3684 2787 
Q 3425 2491 3425 1978 
L 3425 0 
L 2847 0 
L 2847 2094 
Q 2847 2600 2669 2842 
Q 2491 3084 2119 3084 
Q 1678 3084 1418 2786 
Q 1159 2488 1159 1978 
L 1159 0 
L 581 0 
L 581 3500 
L 1159 3500 
L 1159 2956 
Q 1356 3278 1631 3431 
Q 1906 3584 2284 3584 
Q 2666 3584 2933 3390 
Q 3200 3197 3328 2828 
z
" transform="scale(0.015625)"/>
      <path id="DejaVuSans-75" d="M 544 1381 
L 544 3500 
L 1119 3500 
L 1119 1403 
Q 1119 906 1312 657 
Q 1506 409 1894 409 
Q 2359 409 2629 706 
Q 2900 1003 2900 1516 
L 2900 3500 
L 3475 3500 
L 3475 0 
L 2900 0 
L 2900 538 
Q 2691 219 2414 64 
Q 2138 -91 1772 -91 
Q 1169 -91 856 284 
Q 544 659 544 1381 
z
M 1991 3584 
L 1991 3584 
z
" transform="scale(0.015625)"/>
     </defs>
     <use xlink:href="#DejaVuSans-4d"/>
     <use xlink:href="#DejaVuSans-65" transform="translate(86.279297 0)"/>
     <use xlink:href="#DejaVuSans-61" transform="translate(147.802734 0)"/>
     <use xlink:href="#DejaVuSans-6e" transform="translate(209.082031 0)"/>
     <use xlink:href="#DejaVuSans-20" transform="translate(272.460938 0)"/>
     <use xlink:href="#DejaVuSans-70" transform="translate(304.248047 0)"/>
     <use xlink:href="#DejaVuSans-72" transform="translate(367.724609 0)"/>
     <use xlink:href="#DejaVuSans-6f" transform="translate(406.587891 0)"/>
     <use xlink:href="#DejaVuSans-66" transform="translate(467.769531 0)"/>
     <use xlink:href="#DejaVuSans-69" transform="translate(502.974609 0)"/>
     <use xlink:href="#DejaVuSans-74" transform="translate(530.757812 0)"/>
     <use xlink:href="#DejaVuSans-20" transform="translate(569.966797 0)"/>
     <use xlink:href="#DejaVuSans-70" transform="translate(601.753906 0)"/>
     <use xlink:href="#DejaVuSans-65" transform="translate(665.230469 0)"/>
     <use xlink:href="#DejaVuSans-72" transform="translate(726.753906 0)"/>
     <use xlink:href="#DejaVuSans-20" transform="translate(767.867188 0)"/>
     <use xlink:href="#DejaVuSans-73" transform="translate(799.654297 0)"/>
     <use xlink:href="#DejaVuSans-74" transform="translate(851.753906 0)"/>
     <use xlink:href="#DejaVuSans-65" transform="translate(890.962891 0)"/>
     <use xlink:href="#DejaVuSans-70" transform="translate(952.486328 0)"/>
     <use xlink:href="#DejaVuSans-20" transform="translate(1015.962891 0)"/>
     <use xlink:href="#DejaVuSans-77" transform="translate(1047.75 0)"/>
     <use xlink:href="#DejaVuSans-69" transform="translate(1129.537109 0)"/>
     <use xlink:href="#DejaVuSans-74" transform="translate(1157.320312 0)"/>
     <use xlink:href="#DejaVuSans-68" transform="translate(1196.529297 0)"/>
     <use xlink:href="#DejaVuSans-20" transform="translate(1259.908203 0)"/>
     <use xlink:href="#DejaVuSans-63" transform="translate(1291.695312 0)"/>
     <use xlink:href="#DejaVuSans-6f" transform="translate(1346.675781 0)"/>
     <use xlink:href="#DejaVuSans-6e" transform="translate(1407.857422 0)"/>
     <use xlink:href="#DejaVuSans-66" transform="translate(1471.236328 0)"/>
     <use xlink:href="#DejaVuSans-69" transform="translate(1506.441406 0)"/>
     <use xlink:href="#DejaVuSans-64" transform="translate(1534.224609 0)"/>
     <use xlink:href="#DejaVuSans-65" transform="translate(1597.701172 0)"/>
     <use xlink:href="#DejaVuSans-6e" transform="translate(1659.224609 0)"/>
     <use xlink:href="#DejaVuSans-63" transform="translate(1722.603516 0)"/>
     <use xlink:href="#DejaVuSans-65" transform="translate(1777.583984 0)"/>
     <use xlink:href="#DejaVuSans-20" transform="translate(1839.107422 0)"/>
     <use xlink:href="#DejaVuSans-69" transform="translate(1870.894531 0)"/>
     <use xlink:href="#DejaVuSans-6e" transform="translate(1898.677734 0)"/>
     <use xlink:href="#DejaVuSans-74" transform="translate(1962.056641 0)"/>
     <use xlink:href="#DejaVuSans-65" transform="translate(2001.265625 0)"/>
     <use xlink:href="#DejaVuSans-72" transform="translate(2062.789062 0)"/>
     <use xlink:href="#DejaVuSans-76" transform="translate(2103.902344 0)"/>
     <use xlink:href="#DejaVuSans-61" transform="translate(2163.082031 0)"/>
     <use xlink:href="#DejaVuSans-6c" transform="translate(2224.361328 0)"/>
     <use xlink:href="#DejaVuSans-20" transform="translate(2252.144531 0)"/>
     <use xlink:href="#DejaVuSans-70" transform="translate(2283.931641 0)"/>
     <use xlink:href="#DejaVuSans-65" transform="translate(2347.408203 0)"/>
     <use xlink:href="#DejaVuSans-72" transform="translate(2408.931641 0)"/>
     <use xlink:href="#DejaVuSans-20" transform="translate(2450.044922 0)"/>
     <use xlink:href="#DejaVuSans-73" transform="translate(2481.832031 0)"/>
     <use xlink:href="#DejaVuSans-69" transform="translate(2533.931641 0)"/>
     <use xlink:href="#DejaVuSans-6d" transform="translate(2561.714844 0)"/>
     <use xlink:href="#DejaVuSans-75" transform="translate(2659.126953 0)"/>
     <use xlink:href="#DejaVuSans-6c" transform="translate(2722.505859 0)"/>
     <use xlink:href="#DejaVuSans-61" transform="translate(2750.289062 0)"/>
     <use xlink:href="#DejaVuSans-74" transform="translate(2811.568359 0)"/>
     <use xlink:href="#DejaVuSans-69" transform="translate(2850.777344 0)"/>
     <use xlink:href="#DejaVuSans-6f" transform="translate(2878.560547 0)"/>
     <use xlink:href="#DejaVuSans-6e" transform="translate(2939.742188 0)"/>
     <use xlink:href="#DejaVuSans-20" transform="translate(3003.121094 0)"/>
     <use xlink:href="#DejaVuSans-73" transform="translate(3034.908203 0)"/>
     <use xlink:href="#DejaVuSans-74" transform="translate(3087.007812 0)"/>
     <use xlink:href="#DejaVuSans-65" transform="translate(3126.216797 0)"/>
     <use xlink:href="#DejaVuSans-70" transform="translate(3187.740234 0)"/>
    </g>
    <!-- Base Product: Sour Diesel, Recipe size: 10, T0: 20.0 -->
    <g transform="translate(267.148781 37.44) scale(0.14 -0.14)">
     <defs>
      <path id="DejaVuSans-42" d="M 1259 2228 
L 1259 519 
L 2272 519 
Q 2781 519 3026 730 
Q 3272 941 3272 1375 
Q 3272 1813 3026 2020 
Q 2781 2228 2272 2228 
L 1259 2228 
z
M 1259 4147 
L 1259 2741 
L 2194 2741 
Q 2656 2741 2882 2914 
Q 3109 3088 3109 3444 
Q 3109 3797 2882 3972 
Q 2656 4147 2194 4147 
L 1259 4147 
z
M 628 4666 
L 2241 4666 
Q 2963 4666 3353 4366 
Q 3744 4066 3744 3513 
Q 3744 3084 3544 2831 
Q 3344 2578 2956 2516 
Q 3422 2416 3680 2098 
Q 3938 1781 3938 1306 
Q 3938 681 3513 340 
Q 3088 0 2303 0 
L 628 0 
L 628 4666 
z
" transform="scale(0.015625)"/>
      <path id="DejaVuSans-3a" d="M 750 794 
L 1409 794 
L 1409 0 
L 750 0 
L 750 794 
z
M 750 3309 
L 1409 3309 
L 1409 2516 
L 750 2516 
L 750 3309 
z
" transform="scale(0.015625)"/>
      <path id="DejaVuSans-44" d="M 1259 4147 
L 1259 519 
L 2022 519 
Q 2988 519 3436 956 
Q 3884 1394 3884 2338 
Q 3884 3275 3436 3711 
Q 2988 4147 2022 4147 
L 1259 4147 
z
M 628 4666 
L 1925 4666 
Q 3281 4666 3915 4102 
Q 4550 3538 4550 2338 
Q 4550 1131 3912 565 
Q 3275 0 1925 0 
L 628 0 
L 628 4666 
z
" transform="scale(0.015625)"/>
      <path id="DejaVuSans-2c" d="M 750 794 
L 1409 794 
L 1409 256 
L 897 -744 
L 494 -744 
L 750 256 
L 750 794 
z
" transform="scale(0.015625)"/>
      <path id="DejaVuSans-52" d="M 2841 2188 
Q 3044 2119 3236 1894 
Q 3428 1669 3622 1275 
L 4263 0 
L 3584 0 
L 2988 1197 
Q 2756 1666 2539 1819 
Q 2322 1972 1947 1972 
L 1259 1972 
L 1259 0 
L 628 0 
L 628 4666 
L 2053 4666 
Q 2853 4666 3247 4331 
Q 3641 3997 3641 3322 
Q 3641 2881 3436 2590 
Q 3231 2300 2841 2188 
z
M 1259 4147 
L 1259 2491 
L 2053 2491 
Q 2509 2491 2742 2702 
Q 2975 2913 2975 3322 
Q 2975 3731 2742 3939 
Q 2509 4147 2053 4147 
L 1259 4147 
z
" transform="scale(0.015625)"/>
      <path id="DejaVuSans-7a" d="M 353 3500 
L 3084 3500 
L 3084 2975 
L 922 459 
L 3084 459 
L 3084 0 
L 275 0 
L 275 525 
L 2438 3041 
L 353 3041 
L 353 3500 
z
" transform="scale(0.015625)"/>
      <path id="DejaVuSans-54" d="M -19 4666 
L 3928 4666 
L 3928 4134 
L 2272 4134 
L 2272 0 
L 1638 0 
L 1638 4134 
L -19 4134 
L -19 4666 
z
" transform="scale(0.015625)"/>
      <path id="DejaVuSans-2e" d="M 684 794 
L 1344 794 
L 1344 0 
L 684 0 
L 684 794 
z
" transform="scale(0.015625)"/>
     </defs>
     <use xlink:href="#DejaVuSans-42"/>
     <use xlink:href="#DejaVuSans-61" transform="translate(68.603516 0)"/>
     <use xlink:href="#DejaVuSans-73" transform="translate(129.882812 0)"/>
     <use xlink:href="#DejaVuSans-65" transform="translate(181.982422 0)"/>
     <use xlink:href="#DejaVuSans-20" transform="translate(243.505859 0)"/>
     <use xlink:href="#DejaVuSans-50" transform="translate(275.292969 0)"/>
     <use xlink:href="#DejaVuSans-72" transform="translate(333.845703 0)"/>
     <use xlink:href="#DejaVuSans-6f" transform="translate(372.708984 0)"/>
     <use xlink:href="#DejaVuSans-64" transform="translate(433.890625 0)"/>
     <use xlink:href="#DejaVuSans-75" transform="translate(497.367188 0)"/>
     <use xlink:href="#DejaVuSans-63" transform="translate(560.746094 0)"/>
     <use xlink:href="#DejaVuSans-74" transform="translate(615.726562 0)"/>
     <use xlink:href="#DejaVuSans-3a" transform="translate(654.935547 0)"/>
     <use xlink:href="#DejaVuSans-20" transform="translate(688.626953 0)"/>
     <use xlink:href="#DejaVuSans-53" transform="translate(720.414062 0)"/>
     <use xlink:href="#DejaVuSans-6f" transform="translate(783.890625 0)"/>
     <use xlink:href="#DejaVuSans-75" transform="translate(845.072266 0)"/>
     <use xlink:href="#DejaVuSans-72" transform="translate(908.451172 0)"/>
     <use xlink:href="#DejaVuSans-20" transform="translate(949.564453 0)"/>
     <use xlink:href="#DejaVuSans-44" transform="translate(981.351562 0)"/>
     <use xlink:href="#DejaVuSans-69" transform="translate(1058.353516 0)"/>
     <use xlink:href="#DejaVuSans-65" transform="translate(1086.136719 0)"/>
     <use xlink:href="#DejaVuSans-73" transform="translate(1147.660156 0)"/>
     <use xlink:href="#DejaVuSans-65" transform="translate(1199.759766 0)"/>
     <use xlink:href="#DejaVuSans-6c" transform="translate(1261.283203 0)"/>
     <use xlink:href="#DejaVuSans-2c" transform="translate(1289.066406 0)"/>
     <use xlink:href="#DejaVuSans-20" transform="translate(1320.853516 0)"/>
     <use xlink:href="#DejaVuSans-52" transform="translate(1352.640625 0)"/>
     <use xlink:href="#DejaVuSans-65" transform="translate(1417.623047 0)"/>
     <use xlink:href="#DejaVuSans-63" transform="translate(1479.146484 0)"/>
     <use xlink:href="#DejaVuSans-69" transform="translate(1534.126953 0)"/>
     <use xlink:href="#DejaVuSans-70" transform="translate(1561.910156 0)"/>
     <use xlink:href="#DejaVuSans-65" transform="translate(1625.386719 0)"/>
     <use xlink:href="#DejaVuSans-20" transform="translate(1686.910156 0)"/>
     <use xlink:href="#DejaVuSans-73" transform="translate(1718.697266 0)"/>
     <use xlink:href="#DejaVuSans-69" transform="translate(1770.796875 0)"/>
     <use xlink:href="#DejaVuSans-7a" transform="translate(1798.580078 0)"/>
     <use xlink:href="#DejaVuSans-65" transform="translate(1851.070312 0)"/>
     <use xlink:href="#DejaVuSans-3a" transform="translate(1912.59375 0)"/>
     <use xlink:href="#DejaVuSans-20" transform="translate(1946.285156 0)"/>
     <use xlink:href="#DejaVuSans-31" transform="translate(1978.072266 0)"/>
     <use xlink:href="#DejaVuSans-30" transform="translate(2041.695312 0)"/>
     <use xlink:href="#DejaVuSans-2c" transform="translate(2105.318359 0)"/>
     <use xlink:href="#DejaVuSans-20" transform="translate(2137.105469 0)"/>
     <use xlink:href="#DejaVuSans-54" transform="translate(2168.892578 0)"/>
     <use xlink:href="#DejaVuSans-30" transform="translate(2229.976562 0)"/>
     <use xlink:href="#DejaVuSans-3a" transform="translate(2293.599609 0)"/>
     <use xlink:href="#DejaVuSans-20" transform="translate(2327.291016 0)"/>
     <use xlink:href="#DejaVuSans-32" transform="translate(2359.078125 0)"/>
     <use xlink:href="#DejaVuSans-30" transform="translate(2422.701172 0)"/>
     <use xlink:href="#DejaVuSans-2e" transform="translate(2486.324219 0)"/>
     <use xlink:href="#DejaVuSans-30" transform="translate(2518.111328 0)"/>
    </g>
   </g>
  </g>
 </g>
 <defs>
  <clipPath id="p65cfb46f7a">
   <rect x="50.87" y="43.44" width="793.996" height="346.6"/>
  </clipPath>
 </defs>
</svg>
