<?xml version="1.0" encoding="utf-8" standalone="no"?>
<!DOCTYPE svg PUBLIC "-//W3C//DTD SVG 1.1//EN"
  "http://www.w3.org/Graphics/SVG/1.1/DTD/svg11.dtd">
<svg xmlns:xlink="http://www.w3.org/1999/xlink" width="864pt" height="432pt" viewBox="0 0 864 432" xmlns="http://www.w3.org/2000/svg" version="1.1">
 <metadata>
  <rdf:RDF xmlns:dc="http://purl.org/dc/elements/1.1/" xmlns:cc="http://creativecommons.org/ns#" xmlns:rdf="http://www.w3.org/1999/02/22-rdf-syntax-ns#">
   <cc:Work>
    <dc:type rdf:resource="http://purl.org/dc/dcmitype/StillImage"/>
    <dc:date>2025-05-24T02:05:59.402243</dc:date>
    <dc:format>image/svg+xml</dc:format>
    <dc:creator>
     <cc:Agent>
      <dc:title>Matplotlib v3.10.3, https://matplotlib.org/</dc:title>
     </cc:Agent>
    </dc:creator>
   </cc:Work>
  </rdf:RDF>
 </metadata>
 <defs>
  <style type="text/css">*{stroke-linejoin: round; stroke-linecap: butt}</style>
 </defs>
 <g id="figure_1">
  <g id="patch_1">
   <path d="M 0 432 
L 864 432 
L 864 0 
L 0 0 
z
" style="fill: #ffffff"/>
  </g>
  <g id="axes_1">
   <g id="patch_2">
    <path d="M 50.87 390.04 
L 844.866 390.04 
L 844.866 43.44 
L 50.87 43.44 
z
" style="fill: #ffffff"/>
   </g>
   <g id="FillBetweenPolyCollection_1">
    <defs>
     <path id="mfee1e2e8b9" d="M 52.193327 -312.110457 
L 52.193327 -57.714545 
L 54.83998 -59.267433 
L 57.486633 -69.665132 
L 60.133287 -79.953257 
L 62.77994 -91.08717 
L 65.426593 -101.013495 
L 68.073247 -110.092958 
L 70.7199 -117.862635 
L 73.366553 -125.354129 
L 76.013207 -131.923752 
L 78.65986 -137.777925 
L 81.306513 -144.086413 
L 83.953167 -148.892507 
L 86.59982 -153.164969 
L 89.246473 -157.647781 
L 91.893127 -161.199341 
L 94.53978 -164.596463 
L 97.186433 -167.581762 
L 99.833087 -170.18855 
L 102.47974 -173.003224 
L 105.126393 -175.719373 
L 107.773047 -178.025758 
L 110.4197 -180.465861 
L 113.066353 -182.16665 
L 115.713007 -184.476382 
L 118.35966 -186.626179 
L 121.006313 -188.056005 
L 123.652967 -189.548313 
L 126.29962 -191.06762 
L 128.946273 -192.816664 
L 131.592927 -194.697994 
L 134.23958 -196.121641 
L 136.886233 -197.761346 
L 139.532887 -198.652491 
L 142.17954 -199.927956 
L 144.826193 -201.070464 
L 147.472847 -202.225062 
L 150.1195 -203.393718 
L 152.766153 -204.392814 
L 155.412807 -206.149044 
L 158.05946 -207.369796 
L 160.706113 -208.449328 
L 163.352767 -209.746846 
L 165.99942 -210.898219 
L 168.646073 -211.960357 
L 171.292727 -212.82795 
L 173.93938 -213.551504 
L 176.586033 -213.954698 
L 179.232687 -214.994717 
L 181.87934 -215.646789 
L 184.525993 -216.198253 
L 187.172647 -217.020602 
L 189.8193 -217.5028 
L 192.465953 -218.093463 
L 195.112607 -218.563953 
L 197.75926 -219.361407 
L 200.405913 -220.106139 
L 203.052567 -220.401337 
L 205.69922 -221.235148 
L 208.345873 -221.590209 
L 210.992527 -222.578581 
L 213.63918 -222.955335 
L 216.285833 -223.679695 
L 218.932487 -224.477843 
L 221.57914 -224.880007 
L 224.225793 -225.023957 
L 226.872447 -225.723377 
L 229.5191 -226.594351 
L 232.165753 -226.889526 
L 234.812407 -227.171292 
L 237.45906 -227.714472 
L 240.105713 -228.506038 
L 242.752367 -228.833742 
L 245.39902 -229.165722 
L 248.045673 -229.630637 
L 250.692327 -229.868165 
L 253.33898 -230.048852 
L 255.985633 -230.381884 
L 258.632287 -230.825016 
L 261.27894 -231.163779 
L 263.925593 -231.486692 
L 266.572247 -231.901773 
L 269.2189 -232.017268 
L 271.865553 -232.609007 
L 274.512207 -232.826409 
L 277.15886 -233.192238 
L 279.805513 -233.482376 
L 282.452167 -233.955507 
L 285.09882 -234.450622 
L 287.745473 -234.858965 
L 290.392127 -235.160207 
L 293.03878 -235.86997 
L 295.685433 -236.273164 
L 298.332087 -236.384047 
L 300.97874 -236.798815 
L 303.625393 -236.816635 
L 306.272047 -237.209642 
L 308.9187 -237.265454 
L 311.565353 -237.645297 
L 314.212007 -237.919473 
L 316.85866 -238.049408 
L 319.505313 -238.397171 
L 322.151967 -238.661474 
L 324.79862 -238.945478 
L 327.445273 -238.878585 
L 330.091927 -239.17741 
L 332.73858 -239.625288 
L 335.385233 -239.783118 
L 338.031887 -239.922388 
L 340.67854 -240.079703 
L 343.325193 -240.248592 
L 345.971847 -240.492523 
L 348.6185 -240.877225 
L 351.265153 -240.999056 
L 353.911807 -241.126909 
L 356.55846 -241.348318 
L 359.205113 -241.486246 
L 361.851767 -241.584794 
L 364.49842 -241.930296 
L 367.145073 -241.98951 
L 369.791727 -242.324624 
L 372.43838 -242.234292 
L 375.085033 -242.596315 
L 377.731687 -242.82997 
L 380.37834 -243.068259 
L 383.024993 -243.190023 
L 385.671647 -243.685474 
L 388.3183 -243.583859 
L 390.964953 -243.891101 
L 393.611607 -243.978814 
L 396.25826 -244.193932 
L 398.904913 -244.439117 
L 401.551567 -244.735053 
L 404.19822 -245.020176 
L 406.844873 -245.124478 
L 409.491527 -245.26995 
L 412.13818 -245.651316 
L 414.784833 -245.760969 
L 417.431487 -246.163334 
L 420.07814 -246.326939 
L 422.724793 -246.524193 
L 425.371447 -246.663016 
L 428.0181 -246.954363 
L 430.664753 -246.904596 
L 433.311407 -247.162429 
L 435.95806 -247.475134 
L 438.604713 -247.883566 
L 441.251367 -248.080976 
L 443.89802 -248.235582 
L 446.544673 -248.316355 
L 449.191327 -248.456745 
L 451.83798 -248.394464 
L 454.484633 -248.564562 
L 457.131287 -248.663401 
L 459.77794 -248.67408 
L 462.424593 -248.7251 
L 465.071247 -248.91228 
L 467.7179 -249.103556 
L 470.364553 -249.134786 
L 473.011207 -249.350934 
L 475.65786 -249.578903 
L 478.304513 -249.717211 
L 480.951167 -249.882093 
L 483.59782 -249.880033 
L 486.244473 -249.900607 
L 488.891127 -249.933852 
L 491.53778 -250.155821 
L 494.184433 -250.13265 
L 496.831087 -250.245236 
L 499.47774 -250.549813 
L 502.124393 -250.912396 
L 504.771047 -250.913404 
L 507.4177 -251.034429 
L 510.064353 -251.300859 
L 512.711007 -251.381319 
L 515.35766 -251.432317 
L 518.004313 -251.472502 
L 520.650967 -251.678285 
L 523.29762 -251.998287 
L 525.944273 -251.947401 
L 528.590927 -252.278709 
L 531.23758 -252.279157 
L 533.884233 -252.365393 
L 536.530887 -252.571041 
L 539.17754 -252.560027 
L 541.824193 -252.609592 
L 544.470847 -252.872776 
L 547.1175 -252.948355 
L 549.764153 -253.224703 
L 552.410807 -253.322647 
L 555.05746 -253.365182 
L 557.704113 -253.542869 
L 560.350767 -253.736608 
L 562.99742 -253.782502 
L 565.644073 -253.924571 
L 568.290727 -253.96254 
L 570.93738 -254.069192 
L 573.584033 -254.199665 
L 576.230687 -254.49737 
L 578.87734 -254.633215 
L 581.523993 -254.798657 
L 584.170647 -254.83564 
L 586.8173 -254.980709 
L 589.463953 -254.938621 
L 592.110607 -255.044356 
L 594.75726 -255.172769 
L 597.403913 -255.357598 
L 600.050567 -255.558456 
L 602.69722 -255.709323 
L 605.343873 -255.802409 
L 607.990527 -255.980813 
L 610.63718 -255.987148 
L 613.283833 -256.033243 
L 615.930487 -256.101771 
L 618.57714 -256.363947 
L 621.223793 -256.475234 
L 623.870447 -256.580677 
L 626.5171 -256.714239 
L 629.163753 -256.780573 
L 631.810407 -256.879143 
L 634.45706 -257.180117 
L 637.103713 -257.306157 
L 639.750367 -257.51241 
L 642.39702 -257.707828 
L 645.043673 -257.840181 
L 647.690327 -257.863061 
L 650.33698 -258.120133 
L 652.983633 -258.207018 
L 655.630287 -258.168243 
L 658.27694 -258.145363 
L 660.923593 -258.177108 
L 663.570247 -258.139632 
L 666.2169 -258.270732 
L 668.863553 -258.529035 
L 671.510207 -258.65756 
L 674.15686 -258.629195 
L 676.803513 -258.594003 
L 679.450167 -258.704304 
L 682.09682 -258.719684 
L 684.743473 -258.683753 
L 687.390127 -258.92634 
L 690.03678 -258.862649 
L 692.683433 -258.860656 
L 695.330087 -258.985129 
L 697.97674 -258.965249 
L 700.623393 -258.957436 
L 703.270047 -258.975928 
L 705.9167 -259.046873 
L 708.563353 -259.146183 
L 711.210007 -259.237769 
L 713.85666 -259.393449 
L 716.503313 -259.488214 
L 719.149967 -259.632634 
L 721.79662 -259.557413 
L 724.443273 -259.707945 
L 727.089927 -259.860491 
L 729.73658 -259.916325 
L 732.383233 -259.942092 
L 735.029887 -260.336487 
L 737.67654 -260.457311 
L 740.323193 -260.52595 
L 742.969847 -260.572404 
L 745.6165 -260.833976 
L 748.263153 -260.994044 
L 750.909807 -261.233363 
L 753.55646 -261.310913 
L 756.203113 -261.44434 
L 758.849767 -261.585357 
L 761.49642 -261.596752 
L 764.143073 -261.542844 
L 766.789727 -261.827228 
L 769.43638 -262.051391 
L 772.083033 -262.192565 
L 774.729687 -262.086629 
L 777.37634 -262.145552 
L 780.022993 -262.298322 
L 782.669647 -262.387625 
L 785.3163 -262.433787 
L 787.962953 -262.608116 
L 790.609607 -262.672188 
L 793.25626 -262.479591 
L 795.902913 -262.404393 
L 798.549567 -262.38308 
L 801.19622 -262.433474 
L 803.842873 -262.534306 
L 806.489527 -262.402937 
L 809.13618 -262.540887 
L 811.782833 -262.659517 
L 814.429487 -262.705657 
L 817.07614 -262.769326 
L 819.722793 -262.843764 
L 822.369447 -262.781035 
L 825.0161 -262.791199 
L 827.662753 -262.744096 
L 830.309407 -262.817839 
L 832.95606 -262.728626 
L 835.602713 -262.713896 
L 838.249367 -262.874345 
L 840.89602 -262.861942 
L 843.542673 -263.036697 
L 843.542673 -372.732293 
L 843.542673 -372.732293 
L 840.89602 -372.805455 
L 838.249367 -372.726025 
L 835.602713 -372.740711 
L 832.95606 -372.656087 
L 830.309407 -372.470587 
L 827.662753 -372.387486 
L 825.0161 -372.244028 
L 822.369447 -372.187255 
L 819.722793 -372.093139 
L 817.07614 -372.098467 
L 814.429487 -372.105676 
L 811.782833 -372.081139 
L 809.13618 -372.094706 
L 806.489527 -372.112929 
L 803.842873 -371.99177 
L 801.19622 -371.946906 
L 798.549567 -371.923175 
L 795.902913 -371.784822 
L 793.25626 -371.592024 
L 790.609607 -371.398554 
L 787.962953 -371.351048 
L 785.3163 -371.372316 
L 782.669647 -371.29799 
L 780.022993 -371.27332 
L 777.37634 -371.264186 
L 774.729687 -371.21283 
L 772.083033 -370.990793 
L 769.43638 -371.040538 
L 766.789727 -371.101117 
L 764.143073 -371.213635 
L 761.49642 -371.061268 
L 758.849767 -371.029523 
L 756.203113 -371.109222 
L 753.55646 -371.107296 
L 750.909807 -371.033866 
L 748.263153 -371.076178 
L 745.6165 -371.109177 
L 742.969847 -371.17701 
L 740.323193 -371.137609 
L 737.67654 -371.111684 
L 735.029887 -371.051507 
L 732.383233 -371.196039 
L 729.73658 -371.052269 
L 727.089927 -371.023523 
L 724.443273 -371.075327 
L 721.79662 -371.070581 
L 719.149967 -370.898648 
L 716.503313 -370.827994 
L 713.85666 -370.829023 
L 711.210007 -370.805472 
L 708.563353 -370.821725 
L 705.9167 -370.736743 
L 703.270047 -370.648493 
L 700.623393 -370.525856 
L 697.97674 -370.388802 
L 695.330087 -370.213062 
L 692.683433 -370.229718 
L 690.03678 -370.154676 
L 687.390127 -369.980638 
L 684.743473 -370.047487 
L 682.09682 -369.916029 
L 679.450167 -369.824555 
L 676.803513 -369.804272 
L 674.15686 -369.673934 
L 671.510207 -369.505537 
L 668.863553 -369.523313 
L 666.2169 -369.569654 
L 663.570247 -369.55358 
L 660.923593 -369.385452 
L 658.27694 -369.294381 
L 655.630287 -369.133283 
L 652.983633 -369.064151 
L 650.33698 -368.947492 
L 647.690327 -369.051167 
L 645.043673 -369.023272 
L 642.39702 -368.942902 
L 639.750367 -368.950447 
L 637.103713 -368.927366 
L 634.45706 -368.948723 
L 631.810407 -369.076957 
L 629.163753 -369.028578 
L 626.5171 -368.987856 
L 623.870447 -368.919172 
L 621.223793 -368.907531 
L 618.57714 -368.881673 
L 615.930487 -368.903949 
L 613.283833 -368.797453 
L 610.63718 -368.708553 
L 607.990527 -368.608012 
L 605.343873 -368.560842 
L 602.69722 -368.488129 
L 600.050567 -368.491688 
L 597.403913 -368.532567 
L 594.75726 -368.509061 
L 592.110607 -368.37617 
L 589.463953 -368.291032 
L 586.8173 -368.146545 
L 584.170647 -368.155097 
L 581.523993 -368.086279 
L 578.87734 -368.05422 
L 576.230687 -368.072175 
L 573.584033 -368.142784 
L 570.93738 -368.063399 
L 568.290727 -367.972552 
L 565.644073 -367.821752 
L 562.99742 -367.735919 
L 560.350767 -367.671489 
L 557.704113 -367.608536 
L 555.05746 -367.55662 
L 552.410807 -367.54471 
L 549.764153 -367.472332 
L 547.1175 -367.550374 
L 544.470847 -367.47278 
L 541.824193 -367.542315 
L 539.17754 -367.397111 
L 536.530887 -367.274295 
L 533.884233 -367.216715 
L 531.23758 -367.193209 
L 528.590927 -367.017245 
L 525.944273 -367.040461 
L 523.29762 -366.94489 
L 520.650967 -367.001395 
L 518.004313 -366.924876 
L 515.35766 -366.809559 
L 512.711007 -366.793217 
L 510.064353 -366.750994 
L 507.4177 -366.751375 
L 504.771047 -366.721511 
L 502.124393 -366.595806 
L 499.47774 -366.760621 
L 496.831087 -366.770941 
L 494.184433 -366.757666 
L 491.53778 -366.549935 
L 488.891127 -366.599791 
L 486.244473 -366.419552 
L 483.59782 -366.279699 
L 480.951167 -366.132884 
L 478.304513 -366.082132 
L 475.65786 -365.972301 
L 473.011207 -365.927817 
L 470.364553 -365.908229 
L 467.7179 -365.787002 
L 465.071247 -365.762107 
L 462.424593 -365.638015 
L 459.77794 -365.499461 
L 457.131287 -365.381771 
L 454.484633 -365.315796 
L 451.83798 -365.235426 
L 449.191327 -364.976182 
L 446.544673 -364.886074 
L 443.89802 -364.746288 
L 441.251367 -364.651322 
L 438.604713 -364.588593 
L 435.95806 -364.570683 
L 433.311407 -364.603861 
L 430.664753 -364.597391 
L 428.0181 -364.328722 
L 425.371447 -364.333916 
L 422.724793 -364.181571 
L 420.07814 -364.016555 
L 417.431487 -364.003257 
L 414.784833 -364.155916 
L 412.13818 -364.088262 
L 409.491527 -364.070911 
L 406.844873 -364.003839 
L 404.19822 -363.828794 
L 401.551567 -363.768035 
L 398.904913 -363.768058 
L 396.25826 -363.696777 
L 393.611607 -363.550835 
L 390.964953 -363.365513 
L 388.3183 -363.387811 
L 385.671647 -363.046518 
L 383.024993 -363.150238 
L 380.37834 -362.886092 
L 377.731687 -362.808766 
L 375.085033 -362.77767 
L 372.43838 -362.790454 
L 369.791727 -362.473294 
L 367.145073 -362.528479 
L 364.49842 -362.351194 
L 361.851767 -362.360843 
L 359.205113 -362.158015 
L 356.55846 -361.919793 
L 353.911807 -361.785112 
L 351.265153 -361.503011 
L 348.6185 -361.342718 
L 345.971847 -361.320824 
L 343.325193 -361.301974 
L 340.67854 -361.152427 
L 338.031887 -360.917295 
L 335.385233 -360.597046 
L 332.73858 -360.465275 
L 330.091927 -360.464961 
L 327.445273 -360.3948 
L 324.79862 -359.997651 
L 322.151967 -359.94419 
L 319.505313 -359.858671 
L 316.85866 -359.831986 
L 314.212007 -359.540415 
L 311.565353 -359.393353 
L 308.9187 -359.232949 
L 306.272047 -358.925954 
L 303.625393 -358.865351 
L 300.97874 -358.599168 
L 298.332087 -358.576131 
L 295.685433 -358.35358 
L 293.03878 -358.369923 
L 290.392127 -358.597153 
L 287.745473 -358.405026 
L 285.09882 -358.331327 
L 282.452167 -358.248629 
L 279.805513 -358.112784 
L 277.15886 -357.798467 
L 274.512207 -357.659017 
L 271.865553 -357.421422 
L 269.2189 -357.266279 
L 266.572247 -356.961477 
L 263.925593 -356.826863 
L 261.27894 -356.549396 
L 258.632287 -356.451609 
L 255.985633 -356.308376 
L 253.33898 -356.099369 
L 250.692327 -355.762106 
L 248.045673 -355.316063 
L 245.39902 -355.226313 
L 242.752367 -355.04688 
L 240.105713 -354.803889 
L 237.45906 -354.816918 
L 234.812407 -354.65638 
L 232.165753 -354.291513 
L 229.5191 -354.139616 
L 226.872447 -354.179577 
L 224.225793 -354.215621 
L 221.57914 -353.658403 
L 218.932487 -353.400234 
L 216.285833 -353.415861 
L 213.63918 -353.179407 
L 210.992527 -352.862203 
L 208.345873 -353.026144 
L 205.69922 -352.565461 
L 203.052567 -352.450055 
L 200.405913 -352.026355 
L 197.75926 -351.810005 
L 195.112607 -351.662451 
L 192.465953 -351.248646 
L 189.8193 -350.974134 
L 187.172647 -350.720554 
L 184.525993 -350.568971 
L 181.87934 -350.284049 
L 179.232687 -349.807851 
L 176.586033 -349.725063 
L 173.93938 -349.164622 
L 171.292727 -348.830471 
L 168.646073 -348.622135 
L 165.99942 -348.514184 
L 163.352767 -348.381383 
L 160.706113 -348.406905 
L 158.05946 -348.253082 
L 155.412807 -348.151825 
L 152.766153 -348.07647 
L 150.1195 -347.587041 
L 147.472847 -347.348483 
L 144.826193 -347.000317 
L 142.17954 -346.589065 
L 139.532887 -346.190058 
L 136.886233 -345.451907 
L 134.23958 -345.215118 
L 131.592927 -344.81188 
L 128.946273 -344.721928 
L 126.29962 -344.397426 
L 123.652967 -343.722877 
L 121.006313 -343.026881 
L 118.35966 -342.411457 
L 115.713007 -342.086619 
L 113.066353 -341.731514 
L 110.4197 -340.737679 
L 107.773047 -340.601923 
L 105.126393 -340.042601 
L 102.47974 -339.623558 
L 99.833087 -338.988433 
L 97.186433 -337.983024 
L 94.53978 -337.181764 
L 91.893127 -336.551251 
L 89.246473 -335.825525 
L 86.59982 -335.445928 
L 83.953167 -334.531053 
L 81.306513 -333.536972 
L 78.65986 -333.375068 
L 76.013207 -332.285528 
L 73.366553 -331.74575 
L 70.7199 -330.224249 
L 68.073247 -328.065116 
L 65.426593 -326.776039 
L 62.77994 -324.349603 
L 60.133287 -321.284125 
L 57.486633 -316.467162 
L 54.83998 -310.825163 
L 52.193327 -312.110457 
z
" style="stroke: #0000ff; stroke-opacity: 0.2"/>
    </defs>
    <g clip-path="url(#p826cd81c65)">
     <use xlink:href="#mfee1e2e8b9" x="0" y="432" style="fill: #0000ff; fill-opacity: 0.2; stroke: #0000ff; stroke-opacity: 0.2"/>
    </g>
   </g>
   <g id="matplotlib.axis_1">
    <g id="xtick_1">
     <g id="line2d_1">
      <defs>
       <path id="mfc9a536720" d="M 0 0 
L 0 3.5 
" style="stroke: #000000; stroke-width: 0.8"/>
      </defs>
      <g>
       <use xlink:href="#mfc9a536720" x="181.87934" y="390.04" style="stroke: #000000; stroke-width: 0.8"/>
      </g>
     </g>
     <g id="text_1">
      <!-- 50 -->
      <g transform="translate(175.51684 404.638438) scale(0.1 -0.1)">
       <defs>
        <path id="DejaVuSans-35" d="M 691 4666 
L 3169 4666 
L 3169 4134 
L 1269 4134 
L 1269 2991 
Q 1406 3038 1543 3061 
Q 1681 3084 1819 3084 
Q 2600 3084 3056 2656 
Q 3513 2228 3513 1497 
Q 3513 744 3044 326 
Q 2575 -91 1722 -91 
Q 1428 -91 1123 -41 
Q 819 9 494 109 
L 494 744 
Q 775 591 1075 516 
Q 1375 441 1709 441 
Q 2250 441 2565 725 
Q 2881 1009 2881 1497 
Q 2881 1984 2565 2268 
Q 2250 2553 1709 2553 
Q 1456 2553 1204 2497 
Q 953 2441 691 2322 
L 691 4666 
z
" transform="scale(0.015625)"/>
        <path id="DejaVuSans-30" d="M 2034 4250 
Q 1547 4250 1301 3770 
Q 1056 3291 1056 2328 
Q 1056 1369 1301 889 
Q 1547 409 2034 409 
Q 2525 409 2770 889 
Q 3016 1369 3016 2328 
Q 3016 3291 2770 3770 
Q 2525 4250 2034 4250 
z
M 2034 4750 
Q 2819 4750 3233 4129 
Q 3647 3509 3647 2328 
Q 3647 1150 3233 529 
Q 2819 -91 2034 -91 
Q 1250 -91 836 529 
Q 422 1150 422 2328 
Q 422 3509 836 4129 
Q 1250 4750 2034 4750 
z
" transform="scale(0.015625)"/>
       </defs>
       <use xlink:href="#DejaVuSans-35"/>
       <use xlink:href="#DejaVuSans-30" transform="translate(63.623047 0)"/>
      </g>
     </g>
    </g>
    <g id="xtick_2">
     <g id="line2d_2">
      <g>
       <use xlink:href="#mfc9a536720" x="314.212007" y="390.04" style="stroke: #000000; stroke-width: 0.8"/>
      </g>
     </g>
     <g id="text_2">
      <!-- 100 -->
      <g transform="translate(304.668257 404.638438) scale(0.1 -0.1)">
       <defs>
        <path id="DejaVuSans-31" d="M 794 531 
L 1825 531 
L 1825 4091 
L 703 3866 
L 703 4441 
L 1819 4666 
L 2450 4666 
L 2450 531 
L 3481 531 
L 3481 0 
L 794 0 
L 794 531 
z
" transform="scale(0.015625)"/>
       </defs>
       <use xlink:href="#DejaVuSans-31"/>
       <use xlink:href="#DejaVuSans-30" transform="translate(63.623047 0)"/>
       <use xlink:href="#DejaVuSans-30" transform="translate(127.246094 0)"/>
      </g>
     </g>
    </g>
    <g id="xtick_3">
     <g id="line2d_3">
      <g>
       <use xlink:href="#mfc9a536720" x="446.544673" y="390.04" style="stroke: #000000; stroke-width: 0.8"/>
      </g>
     </g>
     <g id="text_3">
      <!-- 150 -->
      <g transform="translate(437.000923 404.638438) scale(0.1 -0.1)">
       <use xlink:href="#DejaVuSans-31"/>
       <use xlink:href="#DejaVuSans-35" transform="translate(63.623047 0)"/>
       <use xlink:href="#DejaVuSans-30" transform="translate(127.246094 0)"/>
      </g>
     </g>
    </g>
    <g id="xtick_4">
     <g id="line2d_4">
      <g>
       <use xlink:href="#mfc9a536720" x="578.87734" y="390.04" style="stroke: #000000; stroke-width: 0.8"/>
      </g>
     </g>
     <g id="text_4">
      <!-- 200 -->
      <g transform="translate(569.33359 404.638438) scale(0.1 -0.1)">
       <defs>
        <path id="DejaVuSans-32" d="M 1228 531 
L 3431 531 
L 3431 0 
L 469 0 
L 469 531 
Q 828 903 1448 1529 
Q 2069 2156 2228 2338 
Q 2531 2678 2651 2914 
Q 2772 3150 2772 3378 
Q 2772 3750 2511 3984 
Q 2250 4219 1831 4219 
Q 1534 4219 1204 4116 
Q 875 4013 500 3803 
L 500 4441 
Q 881 4594 1212 4672 
Q 1544 4750 1819 4750 
Q 2544 4750 2975 4387 
Q 3406 4025 3406 3419 
Q 3406 3131 3298 2873 
Q 3191 2616 2906 2266 
Q 2828 2175 2409 1742 
Q 1991 1309 1228 531 
z
" transform="scale(0.015625)"/>
       </defs>
       <use xlink:href="#DejaVuSans-32"/>
       <use xlink:href="#DejaVuSans-30" transform="translate(63.623047 0)"/>
       <use xlink:href="#DejaVuSans-30" transform="translate(127.246094 0)"/>
      </g>
     </g>
    </g>
    <g id="xtick_5">
     <g id="line2d_5">
      <g>
       <use xlink:href="#mfc9a536720" x="711.210007" y="390.04" style="stroke: #000000; stroke-width: 0.8"/>
      </g>
     </g>
     <g id="text_5">
      <!-- 250 -->
      <g transform="translate(701.666257 404.638438) scale(0.1 -0.1)">
       <use xlink:href="#DejaVuSans-32"/>
       <use xlink:href="#DejaVuSans-35" transform="translate(63.623047 0)"/>
       <use xlink:href="#DejaVuSans-30" transform="translate(127.246094 0)"/>
      </g>
     </g>
    </g>
    <g id="xtick_6">
     <g id="line2d_6">
      <g>
       <use xlink:href="#mfc9a536720" x="843.542673" y="390.04" style="stroke: #000000; stroke-width: 0.8"/>
      </g>
     </g>
     <g id="text_6">
      <!-- 300 -->
      <g transform="translate(833.998923 404.638438) scale(0.1 -0.1)">
       <defs>
        <path id="DejaVuSans-33" d="M 2597 2516 
Q 3050 2419 3304 2112 
Q 3559 1806 3559 1356 
Q 3559 666 3084 287 
Q 2609 -91 1734 -91 
Q 1441 -91 1130 -33 
Q 819 25 488 141 
L 488 750 
Q 750 597 1062 519 
Q 1375 441 1716 441 
Q 2309 441 2620 675 
Q 2931 909 2931 1356 
Q 2931 1769 2642 2001 
Q 2353 2234 1838 2234 
L 1294 2234 
L 1294 2753 
L 1863 2753 
Q 2328 2753 2575 2939 
Q 2822 3125 2822 3475 
Q 2822 3834 2567 4026 
Q 2313 4219 1838 4219 
Q 1578 4219 1281 4162 
Q 984 4106 628 3988 
L 628 4550 
Q 988 4650 1302 4700 
Q 1616 4750 1894 4750 
Q 2613 4750 3031 4423 
Q 3450 4097 3450 3541 
Q 3450 3153 3228 2886 
Q 3006 2619 2597 2516 
z
" transform="scale(0.015625)"/>
       </defs>
       <use xlink:href="#DejaVuSans-33"/>
       <use xlink:href="#DejaVuSans-30" transform="translate(63.623047 0)"/>
       <use xlink:href="#DejaVuSans-30" transform="translate(127.246094 0)"/>
      </g>
     </g>
    </g>
    <g id="text_7">
     <!-- Step -->
     <g transform="translate(436.482844 418.316562) scale(0.1 -0.1)">
      <defs>
       <path id="DejaVuSans-53" d="M 3425 4513 
L 3425 3897 
Q 3066 4069 2747 4153 
Q 2428 4238 2131 4238 
Q 1616 4238 1336 4038 
Q 1056 3838 1056 3469 
Q 1056 3159 1242 3001 
Q 1428 2844 1947 2747 
L 2328 2669 
Q 3034 2534 3370 2195 
Q 3706 1856 3706 1288 
Q 3706 609 3251 259 
Q 2797 -91 1919 -91 
Q 1588 -91 1214 -16 
Q 841 59 441 206 
L 441 856 
Q 825 641 1194 531 
Q 1563 422 1919 422 
Q 2459 422 2753 634 
Q 3047 847 3047 1241 
Q 3047 1584 2836 1778 
Q 2625 1972 2144 2069 
L 1759 2144 
Q 1053 2284 737 2584 
Q 422 2884 422 3419 
Q 422 4038 858 4394 
Q 1294 4750 2059 4750 
Q 2388 4750 2728 4690 
Q 3069 4631 3425 4513 
z
" transform="scale(0.015625)"/>
       <path id="DejaVuSans-74" d="M 1172 4494 
L 1172 3500 
L 2356 3500 
L 2356 3053 
L 1172 3053 
L 1172 1153 
Q 1172 725 1289 603 
Q 1406 481 1766 481 
L 2356 481 
L 2356 0 
L 1766 0 
Q 1100 0 847 248 
Q 594 497 594 1153 
L 594 3053 
L 172 3053 
L 172 3500 
L 594 3500 
L 594 4494 
L 1172 4494 
z
" transform="scale(0.015625)"/>
       <path id="DejaVuSans-65" d="M 3597 1894 
L 3597 1613 
L 953 1613 
Q 991 1019 1311 708 
Q 1631 397 2203 397 
Q 2534 397 2845 478 
Q 3156 559 3463 722 
L 3463 178 
Q 3153 47 2828 -22 
Q 2503 -91 2169 -91 
Q 1331 -91 842 396 
Q 353 884 353 1716 
Q 353 2575 817 3079 
Q 1281 3584 2069 3584 
Q 2775 3584 3186 3129 
Q 3597 2675 3597 1894 
z
M 3022 2063 
Q 3016 2534 2758 2815 
Q 2500 3097 2075 3097 
Q 1594 3097 1305 2825 
Q 1016 2553 972 2059 
L 3022 2063 
z
" transform="scale(0.015625)"/>
       <path id="DejaVuSans-70" d="M 1159 525 
L 1159 -1331 
L 581 -1331 
L 581 3500 
L 1159 3500 
L 1159 2969 
Q 1341 3281 1617 3432 
Q 1894 3584 2278 3584 
Q 2916 3584 3314 3078 
Q 3713 2572 3713 1747 
Q 3713 922 3314 415 
Q 2916 -91 2278 -91 
Q 1894 -91 1617 61 
Q 1341 213 1159 525 
z
M 3116 1747 
Q 3116 2381 2855 2742 
Q 2594 3103 2138 3103 
Q 1681 3103 1420 2742 
Q 1159 2381 1159 1747 
Q 1159 1113 1420 752 
Q 1681 391 2138 391 
Q 2594 391 2855 752 
Q 3116 1113 3116 1747 
z
" transform="scale(0.015625)"/>
      </defs>
      <use xlink:href="#DejaVuSans-53"/>
      <use xlink:href="#DejaVuSans-74" transform="translate(63.476562 0)"/>
      <use xlink:href="#DejaVuSans-65" transform="translate(102.685547 0)"/>
      <use xlink:href="#DejaVuSans-70" transform="translate(164.208984 0)"/>
     </g>
    </g>
   </g>
   <g id="matplotlib.axis_2">
    <g id="ytick_1">
     <g id="line2d_7">
      <defs>
       <path id="m80bd507374" d="M 0 0 
L -3.5 0 
" style="stroke: #000000; stroke-width: 0.8"/>
      </defs>
      <g>
       <use xlink:href="#m80bd507374" x="50.87" y="379.659221" style="stroke: #000000; stroke-width: 0.8"/>
      </g>
     </g>
     <g id="text_8">
      <!-- 20 -->
      <g transform="translate(31.145 383.45844) scale(0.1 -0.1)">
       <use xlink:href="#DejaVuSans-32"/>
       <use xlink:href="#DejaVuSans-30" transform="translate(63.623047 0)"/>
      </g>
     </g>
    </g>
    <g id="ytick_2">
     <g id="line2d_8">
      <g>
       <use xlink:href="#m80bd507374" x="50.87" y="320.972533" style="stroke: #000000; stroke-width: 0.8"/>
      </g>
     </g>
     <g id="text_9">
      <!-- 40 -->
      <g transform="translate(31.145 324.771752) scale(0.1 -0.1)">
       <defs>
        <path id="DejaVuSans-34" d="M 2419 4116 
L 825 1625 
L 2419 1625 
L 2419 4116 
z
M 2253 4666 
L 3047 4666 
L 3047 1625 
L 3713 1625 
L 3713 1100 
L 3047 1100 
L 3047 0 
L 2419 0 
L 2419 1100 
L 313 1100 
L 313 1709 
L 2253 4666 
z
" transform="scale(0.015625)"/>
       </defs>
       <use xlink:href="#DejaVuSans-34"/>
       <use xlink:href="#DejaVuSans-30" transform="translate(63.623047 0)"/>
      </g>
     </g>
    </g>
    <g id="ytick_3">
     <g id="line2d_9">
      <g>
       <use xlink:href="#m80bd507374" x="50.87" y="262.285846" style="stroke: #000000; stroke-width: 0.8"/>
      </g>
     </g>
     <g id="text_10">
      <!-- 60 -->
      <g transform="translate(31.145 266.085065) scale(0.1 -0.1)">
       <defs>
        <path id="DejaVuSans-36" d="M 2113 2584 
Q 1688 2584 1439 2293 
Q 1191 2003 1191 1497 
Q 1191 994 1439 701 
Q 1688 409 2113 409 
Q 2538 409 2786 701 
Q 3034 994 3034 1497 
Q 3034 2003 2786 2293 
Q 2538 2584 2113 2584 
z
M 3366 4563 
L 3366 3988 
Q 3128 4100 2886 4159 
Q 2644 4219 2406 4219 
Q 1781 4219 1451 3797 
Q 1122 3375 1075 2522 
Q 1259 2794 1537 2939 
Q 1816 3084 2150 3084 
Q 2853 3084 3261 2657 
Q 3669 2231 3669 1497 
Q 3669 778 3244 343 
Q 2819 -91 2113 -91 
Q 1303 -91 875 529 
Q 447 1150 447 2328 
Q 447 3434 972 4092 
Q 1497 4750 2381 4750 
Q 2619 4750 2861 4703 
Q 3103 4656 3366 4563 
z
" transform="scale(0.015625)"/>
       </defs>
       <use xlink:href="#DejaVuSans-36"/>
       <use xlink:href="#DejaVuSans-30" transform="translate(63.623047 0)"/>
      </g>
     </g>
    </g>
    <g id="ytick_4">
     <g id="line2d_10">
      <g>
       <use xlink:href="#m80bd507374" x="50.87" y="203.599159" style="stroke: #000000; stroke-width: 0.8"/>
      </g>
     </g>
     <g id="text_11">
      <!-- 80 -->
      <g transform="translate(31.145 207.398378) scale(0.1 -0.1)">
       <defs>
        <path id="DejaVuSans-38" d="M 2034 2216 
Q 1584 2216 1326 1975 
Q 1069 1734 1069 1313 
Q 1069 891 1326 650 
Q 1584 409 2034 409 
Q 2484 409 2743 651 
Q 3003 894 3003 1313 
Q 3003 1734 2745 1975 
Q 2488 2216 2034 2216 
z
M 1403 2484 
Q 997 2584 770 2862 
Q 544 3141 544 3541 
Q 544 4100 942 4425 
Q 1341 4750 2034 4750 
Q 2731 4750 3128 4425 
Q 3525 4100 3525 3541 
Q 3525 3141 3298 2862 
Q 3072 2584 2669 2484 
Q 3125 2378 3379 2068 
Q 3634 1759 3634 1313 
Q 3634 634 3220 271 
Q 2806 -91 2034 -91 
Q 1263 -91 848 271 
Q 434 634 434 1313 
Q 434 1759 690 2068 
Q 947 2378 1403 2484 
z
M 1172 3481 
Q 1172 3119 1398 2916 
Q 1625 2713 2034 2713 
Q 2441 2713 2670 2916 
Q 2900 3119 2900 3481 
Q 2900 3844 2670 4047 
Q 2441 4250 2034 4250 
Q 1625 4250 1398 4047 
Q 1172 3844 1172 3481 
z
" transform="scale(0.015625)"/>
       </defs>
       <use xlink:href="#DejaVuSans-38"/>
       <use xlink:href="#DejaVuSans-30" transform="translate(63.623047 0)"/>
      </g>
     </g>
    </g>
    <g id="ytick_5">
     <g id="line2d_11">
      <g>
       <use xlink:href="#m80bd507374" x="50.87" y="144.912472" style="stroke: #000000; stroke-width: 0.8"/>
      </g>
     </g>
     <g id="text_12">
      <!-- 100 -->
      <g transform="translate(24.7825 148.71169) scale(0.1 -0.1)">
       <use xlink:href="#DejaVuSans-31"/>
       <use xlink:href="#DejaVuSans-30" transform="translate(63.623047 0)"/>
       <use xlink:href="#DejaVuSans-30" transform="translate(127.246094 0)"/>
      </g>
     </g>
    </g>
    <g id="ytick_6">
     <g id="line2d_12">
      <g>
       <use xlink:href="#m80bd507374" x="50.87" y="86.225784" style="stroke: #000000; stroke-width: 0.8"/>
      </g>
     </g>
     <g id="text_13">
      <!-- 120 -->
      <g transform="translate(24.7825 90.025003) scale(0.1 -0.1)">
       <use xlink:href="#DejaVuSans-31"/>
       <use xlink:href="#DejaVuSans-32" transform="translate(63.623047 0)"/>
       <use xlink:href="#DejaVuSans-30" transform="translate(127.246094 0)"/>
      </g>
     </g>
    </g>
    <g id="text_14">
     <!-- Profit -->
     <g transform="translate(18.702813 229.779063) rotate(-90) scale(0.1 -0.1)">
      <defs>
       <path id="DejaVuSans-50" d="M 1259 4147 
L 1259 2394 
L 2053 2394 
Q 2494 2394 2734 2622 
Q 2975 2850 2975 3272 
Q 2975 3691 2734 3919 
Q 2494 4147 2053 4147 
L 1259 4147 
z
M 628 4666 
L 2053 4666 
Q 2838 4666 3239 4311 
Q 3641 3956 3641 3272 
Q 3641 2581 3239 2228 
Q 2838 1875 2053 1875 
L 1259 1875 
L 1259 0 
L 628 0 
L 628 4666 
z
" transform="scale(0.015625)"/>
       <path id="DejaVuSans-72" d="M 2631 2963 
Q 2534 3019 2420 3045 
Q 2306 3072 2169 3072 
Q 1681 3072 1420 2755 
Q 1159 2438 1159 1844 
L 1159 0 
L 581 0 
L 581 3500 
L 1159 3500 
L 1159 2956 
Q 1341 3275 1631 3429 
Q 1922 3584 2338 3584 
Q 2397 3584 2469 3576 
Q 2541 3569 2628 3553 
L 2631 2963 
z
" transform="scale(0.015625)"/>
       <path id="DejaVuSans-6f" d="M 1959 3097 
Q 1497 3097 1228 2736 
Q 959 2375 959 1747 
Q 959 1119 1226 758 
Q 1494 397 1959 397 
Q 2419 397 2687 759 
Q 2956 1122 2956 1747 
Q 2956 2369 2687 2733 
Q 2419 3097 1959 3097 
z
M 1959 3584 
Q 2709 3584 3137 3096 
Q 3566 2609 3566 1747 
Q 3566 888 3137 398 
Q 2709 -91 1959 -91 
Q 1206 -91 779 398 
Q 353 888 353 1747 
Q 353 2609 779 3096 
Q 1206 3584 1959 3584 
z
" transform="scale(0.015625)"/>
       <path id="DejaVuSans-66" d="M 2375 4863 
L 2375 4384 
L 1825 4384 
Q 1516 4384 1395 4259 
Q 1275 4134 1275 3809 
L 1275 3500 
L 2222 3500 
L 2222 3053 
L 1275 3053 
L 1275 0 
L 697 0 
L 697 3053 
L 147 3053 
L 147 3500 
L 697 3500 
L 697 3744 
Q 697 4328 969 4595 
Q 1241 4863 1831 4863 
L 2375 4863 
z
" transform="scale(0.015625)"/>
       <path id="DejaVuSans-69" d="M 603 3500 
L 1178 3500 
L 1178 0 
L 603 0 
L 603 3500 
z
M 603 4863 
L 1178 4863 
L 1178 4134 
L 603 4134 
L 603 4863 
z
" transform="scale(0.015625)"/>
      </defs>
      <use xlink:href="#DejaVuSans-50"/>
      <use xlink:href="#DejaVuSans-72" transform="translate(58.552734 0)"/>
      <use xlink:href="#DejaVuSans-6f" transform="translate(97.416016 0)"/>
      <use xlink:href="#DejaVuSans-66" transform="translate(158.597656 0)"/>
      <use xlink:href="#DejaVuSans-69" transform="translate(193.802734 0)"/>
      <use xlink:href="#DejaVuSans-74" transform="translate(221.585938 0)"/>
     </g>
    </g>
   </g>
   <g id="line2d_13">
    <path d="M 52.193327 247.087493 
L 54.83998 246.953707 
L 57.486633 238.933853 
L 60.133287 231.381309 
L 62.77994 224.281613 
L 65.426593 218.105233 
L 70.7199 207.956558 
L 73.366553 203.45006 
L 78.65986 196.423503 
L 81.306513 193.188308 
L 83.953167 190.288226 
L 86.59982 187.694557 
L 89.246473 185.263353 
L 94.53978 181.110886 
L 99.833087 177.411514 
L 102.47974 175.686603 
L 105.126393 174.119007 
L 107.773047 172.68616 
L 118.35966 167.481182 
L 123.652967 165.364405 
L 128.946273 163.230704 
L 134.23958 161.331621 
L 136.886233 160.393373 
L 147.472847 157.213228 
L 152.766153 155.765358 
L 155.412807 154.849565 
L 165.99942 152.293798 
L 173.93938 150.641937 
L 179.232687 149.598716 
L 181.87934 149.034581 
L 197.75926 146.414294 
L 200.405913 145.933753 
L 203.052567 145.574304 
L 208.345873 144.691823 
L 221.57914 142.730795 
L 240.105713 140.345036 
L 266.572247 137.568375 
L 269.2189 137.358226 
L 271.865553 136.984786 
L 279.805513 136.20242 
L 287.745473 135.368005 
L 295.685433 134.686628 
L 308.9187 133.750799 
L 314.212007 133.270056 
L 324.79862 132.528435 
L 335.385233 131.809918 
L 343.325193 131.224717 
L 351.265153 130.748967 
L 361.851767 130.027181 
L 369.791727 129.601041 
L 377.731687 129.180632 
L 417.431487 126.916704 
L 422.724793 126.647118 
L 449.191327 125.283536 
L 549.764153 121.651483 
L 655.630287 118.349237 
L 774.729687 115.350271 
L 817.07614 114.566092 
L 843.542673 114.115505 
L 843.542673 114.115505 
" clip-path="url(#p826cd81c65)" style="fill: none; stroke: #0000ff; stroke-width: 1.5; stroke-linecap: square"/>
   </g>
   <g id="patch_3">
    <path d="M 50.87 390.04 
L 50.87 43.44 
" style="fill: none; stroke: #000000; stroke-width: 0.8; stroke-linejoin: miter; stroke-linecap: square"/>
   </g>
   <g id="patch_4">
    <path d="M 844.866 390.04 
L 844.866 43.44 
" style="fill: none; stroke: #000000; stroke-width: 0.8; stroke-linejoin: miter; stroke-linecap: square"/>
   </g>
   <g id="patch_5">
    <path d="M 50.87 390.04 
L 844.866 390.04 
" style="fill: none; stroke: #000000; stroke-width: 0.8; stroke-linejoin: miter; stroke-linecap: square"/>
   </g>
   <g id="patch_6">
    <path d="M 50.87 43.44 
L 844.866 43.44 
" style="fill: none; stroke: #000000; stroke-width: 0.8; stroke-linejoin: miter; stroke-linecap: square"/>
   </g>
   <g id="text_15">
    <!-- Mean profit per step with confidence interval per simulation step -->
    <g transform="translate(220.284875 21.763062) scale(0.14 -0.14)">
     <defs>
      <path id="DejaVuSans-4d" d="M 628 4666 
L 1569 4666 
L 2759 1491 
L 3956 4666 
L 4897 4666 
L 4897 0 
L 4281 0 
L 4281 4097 
L 3078 897 
L 2444 897 
L 1241 4097 
L 1241 0 
L 628 0 
L 628 4666 
z
" transform="scale(0.015625)"/>
      <path id="DejaVuSans-61" d="M 2194 1759 
Q 1497 1759 1228 1600 
Q 959 1441 959 1056 
Q 959 750 1161 570 
Q 1363 391 1709 391 
Q 2188 391 2477 730 
Q 2766 1069 2766 1631 
L 2766 1759 
L 2194 1759 
z
M 3341 1997 
L 3341 0 
L 2766 0 
L 2766 531 
Q 2569 213 2275 61 
Q 1981 -91 1556 -91 
Q 1019 -91 701 211 
Q 384 513 384 1019 
Q 384 1609 779 1909 
Q 1175 2209 1959 2209 
L 2766 2209 
L 2766 2266 
Q 2766 2663 2505 2880 
Q 2244 3097 1772 3097 
Q 1472 3097 1187 3025 
Q 903 2953 641 2809 
L 641 3341 
Q 956 3463 1253 3523 
Q 1550 3584 1831 3584 
Q 2591 3584 2966 3190 
Q 3341 2797 3341 1997 
z
" transform="scale(0.015625)"/>
      <path id="DejaVuSans-6e" d="M 3513 2113 
L 3513 0 
L 2938 0 
L 2938 2094 
Q 2938 2591 2744 2837 
Q 2550 3084 2163 3084 
Q 1697 3084 1428 2787 
Q 1159 2491 1159 1978 
L 1159 0 
L 581 0 
L 581 3500 
L 1159 3500 
L 1159 2956 
Q 1366 3272 1645 3428 
Q 1925 3584 2291 3584 
Q 2894 3584 3203 3211 
Q 3513 2838 3513 2113 
z
" transform="scale(0.015625)"/>
      <path id="DejaVuSans-20" transform="scale(0.015625)"/>
      <path id="DejaVuSans-73" d="M 2834 3397 
L 2834 2853 
Q 2591 2978 2328 3040 
Q 2066 3103 1784 3103 
Q 1356 3103 1142 2972 
Q 928 2841 928 2578 
Q 928 2378 1081 2264 
Q 1234 2150 1697 2047 
L 1894 2003 
Q 2506 1872 2764 1633 
Q 3022 1394 3022 966 
Q 3022 478 2636 193 
Q 2250 -91 1575 -91 
Q 1294 -91 989 -36 
Q 684 19 347 128 
L 347 722 
Q 666 556 975 473 
Q 1284 391 1588 391 
Q 1994 391 2212 530 
Q 2431 669 2431 922 
Q 2431 1156 2273 1281 
Q 2116 1406 1581 1522 
L 1381 1569 
Q 847 1681 609 1914 
Q 372 2147 372 2553 
Q 372 3047 722 3315 
Q 1072 3584 1716 3584 
Q 2034 3584 2315 3537 
Q 2597 3491 2834 3397 
z
" transform="scale(0.015625)"/>
      <path id="DejaVuSans-77" d="M 269 3500 
L 844 3500 
L 1563 769 
L 2278 3500 
L 2956 3500 
L 3675 769 
L 4391 3500 
L 4966 3500 
L 4050 0 
L 3372 0 
L 2619 2869 
L 1863 0 
L 1184 0 
L 269 3500 
z
" transform="scale(0.015625)"/>
      <path id="DejaVuSans-68" d="M 3513 2113 
L 3513 0 
L 2938 0 
L 2938 2094 
Q 2938 2591 2744 2837 
Q 2550 3084 2163 3084 
Q 1697 3084 1428 2787 
Q 1159 2491 1159 1978 
L 1159 0 
L 581 0 
L 581 4863 
L 1159 4863 
L 1159 2956 
Q 1366 3272 1645 3428 
Q 1925 3584 2291 3584 
Q 2894 3584 3203 3211 
Q 3513 2838 3513 2113 
z
" transform="scale(0.015625)"/>
      <path id="DejaVuSans-63" d="M 3122 3366 
L 3122 2828 
Q 2878 2963 2633 3030 
Q 2388 3097 2138 3097 
Q 1578 3097 1268 2742 
Q 959 2388 959 1747 
Q 959 1106 1268 751 
Q 1578 397 2138 397 
Q 2388 397 2633 464 
Q 2878 531 3122 666 
L 3122 134 
Q 2881 22 2623 -34 
Q 2366 -91 2075 -91 
Q 1284 -91 818 406 
Q 353 903 353 1747 
Q 353 2603 823 3093 
Q 1294 3584 2113 3584 
Q 2378 3584 2631 3529 
Q 2884 3475 3122 3366 
z
" transform="scale(0.015625)"/>
      <path id="DejaVuSans-64" d="M 2906 2969 
L 2906 4863 
L 3481 4863 
L 3481 0 
L 2906 0 
L 2906 525 
Q 2725 213 2448 61 
Q 2172 -91 1784 -91 
Q 1150 -91 751 415 
Q 353 922 353 1747 
Q 353 2572 751 3078 
Q 1150 3584 1784 3584 
Q 2172 3584 2448 3432 
Q 2725 3281 2906 2969 
z
M 947 1747 
Q 947 1113 1208 752 
Q 1469 391 1925 391 
Q 2381 391 2643 752 
Q 2906 1113 2906 1747 
Q 2906 2381 2643 2742 
Q 2381 3103 1925 3103 
Q 1469 3103 1208 2742 
Q 947 2381 947 1747 
z
" transform="scale(0.015625)"/>
      <path id="DejaVuSans-76" d="M 191 3500 
L 800 3500 
L 1894 563 
L 2988 3500 
L 3597 3500 
L 2284 0 
L 1503 0 
L 191 3500 
z
" transform="scale(0.015625)"/>
      <path id="DejaVuSans-6c" d="M 603 4863 
L 1178 4863 
L 1178 0 
L 603 0 
L 603 4863 
z
" transform="scale(0.015625)"/>
      <path id="DejaVuSans-6d" d="M 3328 2828 
Q 3544 3216 3844 3400 
Q 4144 3584 4550 3584 
Q 5097 3584 5394 3201 
Q 5691 2819 5691 2113 
L 5691 0 
L 5113 0 
L 5113 2094 
Q 5113 2597 4934 2840 
Q 4756 3084 4391 3084 
Q 3944 3084 3684 2787 
Q 3425 2491 3425 1978 
L 3425 0 
L 2847 0 
L 2847 2094 
Q 2847 2600 2669 2842 
Q 2491 3084 2119 3084 
Q 1678 3084 1418 2786 
Q 1159 2488 1159 1978 
L 1159 0 
L 581 0 
L 581 3500 
L 1159 3500 
L 1159 2956 
Q 1356 3278 1631 3431 
Q 1906 3584 2284 3584 
Q 2666 3584 2933 3390 
Q 3200 3197 3328 2828 
z
" transform="scale(0.015625)"/>
      <path id="DejaVuSans-75" d="M 544 1381 
L 544 3500 
L 1119 3500 
L 1119 1403 
Q 1119 906 1312 657 
Q 1506 409 1894 409 
Q 2359 409 2629 706 
Q 2900 1003 2900 1516 
L 2900 3500 
L 3475 3500 
L 3475 0 
L 2900 0 
L 2900 538 
Q 2691 219 2414 64 
Q 2138 -91 1772 -91 
Q 1169 -91 856 284 
Q 544 659 544 1381 
z
M 1991 3584 
L 1991 3584 
z
" transform="scale(0.015625)"/>
     </defs>
     <use xlink:href="#DejaVuSans-4d"/>
     <use xlink:href="#DejaVuSans-65" transform="translate(86.279297 0)"/>
     <use xlink:href="#DejaVuSans-61" transform="translate(147.802734 0)"/>
     <use xlink:href="#DejaVuSans-6e" transform="translate(209.082031 0)"/>
     <use xlink:href="#DejaVuSans-20" transform="translate(272.460938 0)"/>
     <use xlink:href="#DejaVuSans-70" transform="translate(304.248047 0)"/>
     <use xlink:href="#DejaVuSans-72" transform="translate(367.724609 0)"/>
     <use xlink:href="#DejaVuSans-6f" transform="translate(406.587891 0)"/>
     <use xlink:href="#DejaVuSans-66" transform="translate(467.769531 0)"/>
     <use xlink:href="#DejaVuSans-69" transform="translate(502.974609 0)"/>
     <use xlink:href="#DejaVuSans-74" transform="translate(530.757812 0)"/>
     <use xlink:href="#DejaVuSans-20" transform="translate(569.966797 0)"/>
     <use xlink:href="#DejaVuSans-70" transform="translate(601.753906 0)"/>
     <use xlink:href="#DejaVuSans-65" transform="translate(665.230469 0)"/>
     <use xlink:href="#DejaVuSans-72" transform="translate(726.753906 0)"/>
     <use xlink:href="#DejaVuSans-20" transform="translate(767.867188 0)"/>
     <use xlink:href="#DejaVuSans-73" transform="translate(799.654297 0)"/>
     <use xlink:href="#DejaVuSans-74" transform="translate(851.753906 0)"/>
     <use xlink:href="#DejaVuSans-65" transform="translate(890.962891 0)"/>
     <use xlink:href="#DejaVuSans-70" transform="translate(952.486328 0)"/>
     <use xlink:href="#DejaVuSans-20" transform="translate(1015.962891 0)"/>
     <use xlink:href="#DejaVuSans-77" transform="translate(1047.75 0)"/>
     <use xlink:href="#DejaVuSans-69" transform="translate(1129.537109 0)"/>
     <use xlink:href="#DejaVuSans-74" transform="translate(1157.320312 0)"/>
     <use xlink:href="#DejaVuSans-68" transform="translate(1196.529297 0)"/>
     <use xlink:href="#DejaVuSans-20" transform="translate(1259.908203 0)"/>
     <use xlink:href="#DejaVuSans-63" transform="translate(1291.695312 0)"/>
     <use xlink:href="#DejaVuSans-6f" transform="translate(1346.675781 0)"/>
     <use xlink:href="#DejaVuSans-6e" transform="translate(1407.857422 0)"/>
     <use xlink:href="#DejaVuSans-66" transform="translate(1471.236328 0)"/>
     <use xlink:href="#DejaVuSans-69" transform="translate(1506.441406 0)"/>
     <use xlink:href="#DejaVuSans-64" transform="translate(1534.224609 0)"/>
     <use xlink:href="#DejaVuSans-65" transform="translate(1597.701172 0)"/>
     <use xlink:href="#DejaVuSans-6e" transform="translate(1659.224609 0)"/>
     <use xlink:href="#DejaVuSans-63" transform="translate(1722.603516 0)"/>
     <use xlink:href="#DejaVuSans-65" transform="translate(1777.583984 0)"/>
     <use xlink:href="#DejaVuSans-20" transform="translate(1839.107422 0)"/>
     <use xlink:href="#DejaVuSans-69" transform="translate(1870.894531 0)"/>
     <use xlink:href="#DejaVuSans-6e" transform="translate(1898.677734 0)"/>
     <use xlink:href="#DejaVuSans-74" transform="translate(1962.056641 0)"/>
     <use xlink:href="#DejaVuSans-65" transform="translate(2001.265625 0)"/>
     <use xlink:href="#DejaVuSans-72" transform="translate(2062.789062 0)"/>
     <use xlink:href="#DejaVuSans-76" transform="translate(2103.902344 0)"/>
     <use xlink:href="#DejaVuSans-61" transform="translate(2163.082031 0)"/>
     <use xlink:href="#DejaVuSans-6c" transform="translate(2224.361328 0)"/>
     <use xlink:href="#DejaVuSans-20" transform="translate(2252.144531 0)"/>
     <use xlink:href="#DejaVuSans-70" transform="translate(2283.931641 0)"/>
     <use xlink:href="#DejaVuSans-65" transform="translate(2347.408203 0)"/>
     <use xlink:href="#DejaVuSans-72" transform="translate(2408.931641 0)"/>
     <use xlink:href="#DejaVuSans-20" transform="translate(2450.044922 0)"/>
     <use xlink:href="#DejaVuSans-73" transform="translate(2481.832031 0)"/>
     <use xlink:href="#DejaVuSans-69" transform="translate(2533.931641 0)"/>
     <use xlink:href="#DejaVuSans-6d" transform="translate(2561.714844 0)"/>
     <use xlink:href="#DejaVuSans-75" transform="translate(2659.126953 0)"/>
     <use xlink:href="#DejaVuSans-6c" transform="translate(2722.505859 0)"/>
     <use xlink:href="#DejaVuSans-61" transform="translate(2750.289062 0)"/>
     <use xlink:href="#DejaVuSans-74" transform="translate(2811.568359 0)"/>
     <use xlink:href="#DejaVuSans-69" transform="translate(2850.777344 0)"/>
     <use xlink:href="#DejaVuSans-6f" transform="translate(2878.560547 0)"/>
     <use xlink:href="#DejaVuSans-6e" transform="translate(2939.742188 0)"/>
     <use xlink:href="#DejaVuSans-20" transform="translate(3003.121094 0)"/>
     <use xlink:href="#DejaVuSans-73" transform="translate(3034.908203 0)"/>
     <use xlink:href="#DejaVuSans-74" transform="translate(3087.007812 0)"/>
     <use xlink:href="#DejaVuSans-65" transform="translate(3126.216797 0)"/>
     <use xlink:href="#DejaVuSans-70" transform="translate(3187.740234 0)"/>
    </g>
    <!-- Base Product: Sour Diesel, Recipe size: 8, T0: 10.0 -->
    <g transform="translate(271.602531 37.44) scale(0.14 -0.14)">
     <defs>
      <path id="DejaVuSans-42" d="M 1259 2228 
L 1259 519 
L 2272 519 
Q 2781 519 3026 730 
Q 3272 941 3272 1375 
Q 3272 1813 3026 2020 
Q 2781 2228 2272 2228 
L 1259 2228 
z
M 1259 4147 
L 1259 2741 
L 2194 2741 
Q 2656 2741 2882 2914 
Q 3109 3088 3109 3444 
Q 3109 3797 2882 3972 
Q 2656 4147 2194 4147 
L 1259 4147 
z
M 628 4666 
L 2241 4666 
Q 2963 4666 3353 4366 
Q 3744 4066 3744 3513 
Q 3744 3084 3544 2831 
Q 3344 2578 2956 2516 
Q 3422 2416 3680 2098 
Q 3938 1781 3938 1306 
Q 3938 681 3513 340 
Q 3088 0 2303 0 
L 628 0 
L 628 4666 
z
" transform="scale(0.015625)"/>
      <path id="DejaVuSans-3a" d="M 750 794 
L 1409 794 
L 1409 0 
L 750 0 
L 750 794 
z
M 750 3309 
L 1409 3309 
L 1409 2516 
L 750 2516 
L 750 3309 
z
" transform="scale(0.015625)"/>
      <path id="DejaVuSans-44" d="M 1259 4147 
L 1259 519 
L 2022 519 
Q 2988 519 3436 956 
Q 3884 1394 3884 2338 
Q 3884 3275 3436 3711 
Q 2988 4147 2022 4147 
L 1259 4147 
z
M 628 4666 
L 1925 4666 
Q 3281 4666 3915 4102 
Q 4550 3538 4550 2338 
Q 4550 1131 3912 565 
Q 3275 0 1925 0 
L 628 0 
L 628 4666 
z
" transform="scale(0.015625)"/>
      <path id="DejaVuSans-2c" d="M 750 794 
L 1409 794 
L 1409 256 
L 897 -744 
L 494 -744 
L 750 256 
L 750 794 
z
" transform="scale(0.015625)"/>
      <path id="DejaVuSans-52" d="M 2841 2188 
Q 3044 2119 3236 1894 
Q 3428 1669 3622 1275 
L 4263 0 
L 3584 0 
L 2988 1197 
Q 2756 1666 2539 1819 
Q 2322 1972 1947 1972 
L 1259 1972 
L 1259 0 
L 628 0 
L 628 4666 
L 2053 4666 
Q 2853 4666 3247 4331 
Q 3641 3997 3641 3322 
Q 3641 2881 3436 2590 
Q 3231 2300 2841 2188 
z
M 1259 4147 
L 1259 2491 
L 2053 2491 
Q 2509 2491 2742 2702 
Q 2975 2913 2975 3322 
Q 2975 3731 2742 3939 
Q 2509 4147 2053 4147 
L 1259 4147 
z
" transform="scale(0.015625)"/>
      <path id="DejaVuSans-7a" d="M 353 3500 
L 3084 3500 
L 3084 2975 
L 922 459 
L 3084 459 
L 3084 0 
L 275 0 
L 275 525 
L 2438 3041 
L 353 3041 
L 353 3500 
z
" transform="scale(0.015625)"/>
      <path id="DejaVuSans-54" d="M -19 4666 
L 3928 4666 
L 3928 4134 
L 2272 4134 
L 2272 0 
L 1638 0 
L 1638 4134 
L -19 4134 
L -19 4666 
z
" transform="scale(0.015625)"/>
      <path id="DejaVuSans-2e" d="M 684 794 
L 1344 794 
L 1344 0 
L 684 0 
L 684 794 
z
" transform="scale(0.015625)"/>
     </defs>
     <use xlink:href="#DejaVuSans-42"/>
     <use xlink:href="#DejaVuSans-61" transform="translate(68.603516 0)"/>
     <use xlink:href="#DejaVuSans-73" transform="translate(129.882812 0)"/>
     <use xlink:href="#DejaVuSans-65" transform="translate(181.982422 0)"/>
     <use xlink:href="#DejaVuSans-20" transform="translate(243.505859 0)"/>
     <use xlink:href="#DejaVuSans-50" transform="translate(275.292969 0)"/>
     <use xlink:href="#DejaVuSans-72" transform="translate(333.845703 0)"/>
     <use xlink:href="#DejaVuSans-6f" transform="translate(372.708984 0)"/>
     <use xlink:href="#DejaVuSans-64" transform="translate(433.890625 0)"/>
     <use xlink:href="#DejaVuSans-75" transform="translate(497.367188 0)"/>
     <use xlink:href="#DejaVuSans-63" transform="translate(560.746094 0)"/>
     <use xlink:href="#DejaVuSans-74" transform="translate(615.726562 0)"/>
     <use xlink:href="#DejaVuSans-3a" transform="translate(654.935547 0)"/>
     <use xlink:href="#DejaVuSans-20" transform="translate(688.626953 0)"/>
     <use xlink:href="#DejaVuSans-53" transform="translate(720.414062 0)"/>
     <use xlink:href="#DejaVuSans-6f" transform="translate(783.890625 0)"/>
     <use xlink:href="#DejaVuSans-75" transform="translate(845.072266 0)"/>
     <use xlink:href="#DejaVuSans-72" transform="translate(908.451172 0)"/>
     <use xlink:href="#DejaVuSans-20" transform="translate(949.564453 0)"/>
     <use xlink:href="#DejaVuSans-44" transform="translate(981.351562 0)"/>
     <use xlink:href="#DejaVuSans-69" transform="translate(1058.353516 0)"/>
     <use xlink:href="#DejaVuSans-65" transform="translate(1086.136719 0)"/>
     <use xlink:href="#DejaVuSans-73" transform="translate(1147.660156 0)"/>
     <use xlink:href="#DejaVuSans-65" transform="translate(1199.759766 0)"/>
     <use xlink:href="#DejaVuSans-6c" transform="translate(1261.283203 0)"/>
     <use xlink:href="#DejaVuSans-2c" transform="translate(1289.066406 0)"/>
     <use xlink:href="#DejaVuSans-20" transform="translate(1320.853516 0)"/>
     <use xlink:href="#DejaVuSans-52" transform="translate(1352.640625 0)"/>
     <use xlink:href="#DejaVuSans-65" transform="translate(1417.623047 0)"/>
     <use xlink:href="#DejaVuSans-63" transform="translate(1479.146484 0)"/>
     <use xlink:href="#DejaVuSans-69" transform="translate(1534.126953 0)"/>
     <use xlink:href="#DejaVuSans-70" transform="translate(1561.910156 0)"/>
     <use xlink:href="#DejaVuSans-65" transform="translate(1625.386719 0)"/>
     <use xlink:href="#DejaVuSans-20" transform="translate(1686.910156 0)"/>
     <use xlink:href="#DejaVuSans-73" transform="translate(1718.697266 0)"/>
     <use xlink:href="#DejaVuSans-69" transform="translate(1770.796875 0)"/>
     <use xlink:href="#DejaVuSans-7a" transform="translate(1798.580078 0)"/>
     <use xlink:href="#DejaVuSans-65" transform="translate(1851.070312 0)"/>
     <use xlink:href="#DejaVuSans-3a" transform="translate(1912.59375 0)"/>
     <use xlink:href="#DejaVuSans-20" transform="translate(1946.285156 0)"/>
     <use xlink:href="#DejaVuSans-38" transform="translate(1978.072266 0)"/>
     <use xlink:href="#DejaVuSans-2c" transform="translate(2041.695312 0)"/>
     <use xlink:href="#DejaVuSans-20" transform="translate(2073.482422 0)"/>
     <use xlink:href="#DejaVuSans-54" transform="translate(2105.269531 0)"/>
     <use xlink:href="#DejaVuSans-30" transform="translate(2166.353516 0)"/>
     <use xlink:href="#DejaVuSans-3a" transform="translate(2229.976562 0)"/>
     <use xlink:href="#DejaVuSans-20" transform="translate(2263.667969 0)"/>
     <use xlink:href="#DejaVuSans-31" transform="translate(2295.455078 0)"/>
     <use xlink:href="#DejaVuSans-30" transform="translate(2359.078125 0)"/>
     <use xlink:href="#DejaVuSans-2e" transform="translate(2422.701172 0)"/>
     <use xlink:href="#DejaVuSans-30" transform="translate(2454.488281 0)"/>
    </g>
   </g>
  </g>
 </g>
 <defs>
  <clipPath id="p826cd81c65">
   <rect x="50.87" y="43.44" width="793.996" height="346.6"/>
  </clipPath>
 </defs>
</svg>
