<?xml version="1.0" encoding="utf-8" standalone="no"?>
<!DOCTYPE svg PUBLIC "-//W3C//DTD SVG 1.1//EN"
  "http://www.w3.org/Graphics/SVG/1.1/DTD/svg11.dtd">
<svg xmlns:xlink="http://www.w3.org/1999/xlink" width="864pt" height="432pt" viewBox="0 0 864 432" xmlns="http://www.w3.org/2000/svg" version="1.1">
 <metadata>
  <rdf:RDF xmlns:dc="http://purl.org/dc/elements/1.1/" xmlns:cc="http://creativecommons.org/ns#" xmlns:rdf="http://www.w3.org/1999/02/22-rdf-syntax-ns#">
   <cc:Work>
    <dc:type rdf:resource="http://purl.org/dc/dcmitype/StillImage"/>
    <dc:date>2025-05-24T02:08:04.252377</dc:date>
    <dc:format>image/svg+xml</dc:format>
    <dc:creator>
     <cc:Agent>
      <dc:title>Matplotlib v3.10.3, https://matplotlib.org/</dc:title>
     </cc:Agent>
    </dc:creator>
   </cc:Work>
  </rdf:RDF>
 </metadata>
 <defs>
  <style type="text/css">*{stroke-linejoin: round; stroke-linecap: butt}</style>
 </defs>
 <g id="figure_1">
  <g id="patch_1">
   <path d="M 0 432 
L 864 432 
L 864 0 
L 0 0 
z
" style="fill: #ffffff"/>
  </g>
  <g id="axes_1">
   <g id="patch_2">
    <path d="M 50.87 390.04 
L 844.866 390.04 
L 844.866 43.44 
L 50.87 43.44 
z
" style="fill: #ffffff"/>
   </g>
   <g id="FillBetweenPolyCollection_1">
    <defs>
     <path id="maa105e3ce8" d="M 52.193327 -304.161305 
L 52.193327 -57.714545 
L 54.83998 -58.781572 
L 57.486633 -68.4239 
L 60.133287 -78.346937 
L 62.77994 -88.177991 
L 65.426593 -96.779017 
L 68.073247 -104.955618 
L 70.7199 -111.148964 
L 73.366553 -116.959273 
L 76.013207 -123.692614 
L 78.65986 -129.277262 
L 81.306513 -134.330575 
L 83.953167 -138.425095 
L 86.59982 -142.525457 
L 89.246473 -146.473783 
L 91.893127 -150.415221 
L 94.53978 -153.304006 
L 97.186433 -156.040264 
L 99.833087 -159.042409 
L 102.47974 -161.951002 
L 105.126393 -164.572673 
L 107.773047 -167.130584 
L 110.4197 -169.429635 
L 113.066353 -171.052012 
L 115.713007 -173.713298 
L 118.35966 -175.845909 
L 121.006313 -177.462551 
L 123.652967 -179.134314 
L 126.29962 -181.062758 
L 128.946273 -182.4144 
L 131.592927 -184.185865 
L 134.23958 -185.59093 
L 136.886233 -187.096967 
L 139.532887 -188.223845 
L 142.17954 -189.637399 
L 144.826193 -191.164536 
L 147.472847 -192.611246 
L 150.1195 -194.257381 
L 152.766153 -195.725383 
L 155.412807 -196.688703 
L 158.05946 -197.347236 
L 160.706113 -198.314581 
L 163.352767 -199.466499 
L 165.99942 -200.5643 
L 168.646073 -201.607791 
L 171.292727 -202.646926 
L 173.93938 -203.509615 
L 176.586033 -204.133348 
L 179.232687 -204.499395 
L 181.87934 -205.540687 
L 184.525993 -206.786466 
L 187.172647 -208.035875 
L 189.8193 -208.565939 
L 192.465953 -209.686207 
L 195.112607 -210.632249 
L 197.75926 -211.219506 
L 200.405913 -211.7384 
L 203.052567 -212.642264 
L 205.69922 -213.029625 
L 208.345873 -214.03995 
L 210.992527 -214.797075 
L 213.63918 -215.08137 
L 216.285833 -215.783161 
L 218.932487 -216.064359 
L 221.57914 -216.755749 
L 224.225793 -217.115432 
L 226.872447 -218.02739 
L 229.5191 -218.521832 
L 232.165753 -219.0844 
L 234.812407 -219.712896 
L 237.45906 -220.31807 
L 240.105713 -220.733686 
L 242.752367 -221.163781 
L 245.39902 -221.832511 
L 248.045673 -222.493063 
L 250.692327 -222.946222 
L 253.33898 -223.55932 
L 255.985633 -223.916376 
L 258.632287 -224.502031 
L 261.27894 -225.304388 
L 263.925593 -225.7697 
L 266.572247 -226.016045 
L 269.2189 -226.445457 
L 271.865553 -226.826881 
L 274.512207 -226.975734 
L 277.15886 -227.57982 
L 279.805513 -228.070268 
L 282.452167 -228.452375 
L 285.09882 -228.662308 
L 287.745473 -228.842406 
L 290.392127 -229.033417 
L 293.03878 -229.533347 
L 295.685433 -230.030608 
L 298.332087 -230.312169 
L 300.97874 -230.578761 
L 303.625393 -230.8776 
L 306.272047 -230.875977 
L 308.9187 -231.171036 
L 311.565353 -231.242216 
L 314.212007 -231.656016 
L 316.85866 -231.771575 
L 319.505313 -232.221062 
L 322.151967 -232.597083 
L 324.79862 -232.867283 
L 327.445273 -233.237495 
L 330.091927 -233.668509 
L 332.73858 -234.032677 
L 335.385233 -234.213672 
L 338.031887 -234.532821 
L 340.67854 -234.523296 
L 343.325193 -235.17067 
L 345.971847 -235.542953 
L 348.6185 -235.855354 
L 351.265153 -236.507982 
L 353.911807 -236.767824 
L 356.55846 -236.945979 
L 359.205113 -237.229399 
L 361.851767 -237.811081 
L 364.49842 -238.319063 
L 367.145073 -238.290616 
L 369.791727 -238.54986 
L 372.43838 -238.902859 
L 375.085033 -239.334492 
L 377.731687 -239.576779 
L 380.37834 -239.759568 
L 383.024993 -240.108125 
L 385.671647 -240.358229 
L 388.3183 -240.235152 
L 390.964953 -240.376147 
L 393.611607 -240.698072 
L 396.25826 -241.077296 
L 398.904913 -241.256711 
L 401.551567 -241.268606 
L 404.19822 -241.537269 
L 406.844873 -241.992629 
L 409.491527 -242.41023 
L 412.13818 -242.535101 
L 414.784833 -242.705674 
L 417.431487 -242.847885 
L 420.07814 -242.925195 
L 422.724793 -242.956824 
L 425.371447 -243.125005 
L 428.0181 -243.515292 
L 430.664753 -243.640291 
L 433.311407 -243.799993 
L 435.95806 -244.132276 
L 438.604713 -244.340372 
L 441.251367 -244.438206 
L 443.89802 -244.659052 
L 446.544673 -245.060593 
L 449.191327 -245.470507 
L 451.83798 -245.56676 
L 454.484633 -245.597342 
L 457.131287 -245.699382 
L 459.77794 -245.707113 
L 462.424593 -245.898274 
L 465.071247 -246.084586 
L 467.7179 -246.193931 
L 470.364553 -246.386757 
L 473.011207 -246.591393 
L 475.65786 -246.705607 
L 478.304513 -247.082269 
L 480.951167 -247.23251 
L 483.59782 -247.339783 
L 486.244473 -247.424632 
L 488.891127 -247.408188 
L 491.53778 -247.700727 
L 494.184433 -248.024125 
L 496.831087 -248.399143 
L 499.47774 -248.637073 
L 502.124393 -248.673358 
L 504.771047 -248.732707 
L 507.4177 -249.079683 
L 510.064353 -249.319835 
L 512.711007 -249.573249 
L 515.35766 -249.604558 
L 518.004313 -249.785916 
L 520.650967 -249.837 
L 523.29762 -250.178402 
L 525.944273 -250.394571 
L 528.590927 -250.280101 
L 531.23758 -250.476174 
L 533.884233 -250.540905 
L 536.530887 -250.804057 
L 539.17754 -250.952633 
L 541.824193 -251.025309 
L 544.470847 -251.183687 
L 547.1175 -251.461106 
L 549.764153 -251.583948 
L 552.410807 -251.780084 
L 555.05746 -252.189784 
L 557.704113 -252.536376 
L 560.350767 -252.684119 
L 562.99742 -252.774221 
L 565.644073 -252.753698 
L 568.290727 -253.027465 
L 570.93738 -253.077203 
L 573.584033 -253.065052 
L 576.230687 -253.394174 
L 578.87734 -253.452156 
L 581.523993 -253.717808 
L 584.170647 -253.880394 
L 586.8173 -253.823714 
L 589.463953 -253.949759 
L 592.110607 -254.154502 
L 594.75726 -254.302266 
L 597.403913 -254.4316 
L 600.050567 -254.627118 
L 602.69722 -254.671987 
L 605.343873 -254.749959 
L 607.990527 -254.768176 
L 610.63718 -254.833761 
L 613.283833 -255.149728 
L 615.930487 -255.411749 
L 618.57714 -255.484232 
L 621.223793 -255.50403 
L 623.870447 -255.472807 
L 626.5171 -255.455081 
L 629.163753 -255.496854 
L 631.810407 -255.730578 
L 634.45706 -255.850493 
L 637.103713 -255.919581 
L 639.750367 -255.99057 
L 642.39702 -256.203791 
L 645.043673 -256.309313 
L 647.690327 -256.355677 
L 650.33698 -256.630384 
L 652.983633 -256.586005 
L 655.630287 -256.679055 
L 658.27694 -256.853173 
L 660.923593 -256.696119 
L 663.570247 -256.878993 
L 666.2169 -256.924119 
L 668.863553 -257.013367 
L 671.510207 -257.127346 
L 674.15686 -257.188126 
L 676.803513 -257.390712 
L 679.450167 -257.392036 
L 682.09682 -257.680453 
L 684.743473 -257.651238 
L 687.390127 -257.711804 
L 690.03678 -257.779376 
L 692.683433 -257.830994 
L 695.330087 -257.835415 
L 697.97674 -258.152812 
L 700.623393 -258.116998 
L 703.270047 -258.274031 
L 705.9167 -258.437108 
L 708.563353 -258.493125 
L 711.210007 -258.717965 
L 713.85666 -258.897785 
L 716.503313 -258.856866 
L 719.149967 -259.101973 
L 721.79662 -259.130206 
L 724.443273 -259.193805 
L 727.089927 -259.140543 
L 729.73658 -259.385841 
L 732.383233 -259.49824 
L 735.029887 -259.479147 
L 737.67654 -259.72325 
L 740.323193 -259.816983 
L 742.969847 -259.805023 
L 745.6165 -259.870993 
L 748.263153 -259.890918 
L 750.909807 -260.082357 
L 753.55646 -260.165305 
L 756.203113 -260.18271 
L 758.849767 -260.275567 
L 761.49642 -260.410945 
L 764.143073 -260.576158 
L 766.789727 -260.835765 
L 769.43638 -260.828696 
L 772.083033 -260.920037 
L 774.729687 -260.915851 
L 777.37634 -261.067695 
L 780.022993 -261.124204 
L 782.669647 -261.001042 
L 785.3163 -261.219923 
L 787.962953 -261.22082 
L 790.609607 -261.274061 
L 793.25626 -261.444485 
L 795.902913 -261.486108 
L 798.549567 -261.536125 
L 801.19622 -261.689719 
L 803.842873 -261.893523 
L 806.489527 -262.01677 
L 809.13618 -262.098522 
L 811.782833 -262.176878 
L 814.429487 -262.353303 
L 817.07614 -262.221919 
L 819.722793 -262.322336 
L 822.369447 -262.380789 
L 825.0161 -262.220381 
L 827.662753 -262.29752 
L 830.309407 -262.27185 
L 832.95606 -262.554437 
L 835.602713 -262.59779 
L 838.249367 -262.587134 
L 840.89602 -262.730926 
L 843.542673 -262.663312 
L 843.542673 -372.805455 
L 843.542673 -372.805455 
L 840.89602 -372.65596 
L 838.249367 -372.598704 
L 835.602713 -372.564043 
L 832.95606 -372.544822 
L 830.309407 -372.59864 
L 827.662753 -372.510908 
L 825.0161 -372.50527 
L 822.369447 -372.265118 
L 819.722793 -372.217002 
L 817.07614 -372.212816 
L 814.429487 -372.015783 
L 811.782833 -372.097471 
L 809.13618 -372.056574 
L 806.489527 -371.966578 
L 803.842873 -371.971511 
L 801.19622 -372.015441 
L 798.549567 -371.968329 
L 795.902913 -371.849844 
L 793.25626 -371.750473 
L 790.609607 -371.768754 
L 787.962953 -371.656612 
L 785.3163 -371.556494 
L 782.669647 -371.617979 
L 780.022993 -371.408238 
L 777.37634 -371.426476 
L 774.729687 -371.363902 
L 772.083033 -371.259128 
L 769.43638 -371.254836 
L 766.789727 -371.125566 
L 764.143073 -371.161402 
L 761.49642 -371.243453 
L 758.849767 -371.241552 
L 756.203113 -371.213533 
L 753.55646 -371.152902 
L 750.909807 -371.081273 
L 748.263153 -371.047231 
L 745.6165 -370.91685 
L 742.969847 -370.885051 
L 740.323193 -370.766993 
L 737.67654 -370.672491 
L 735.029887 -370.799946 
L 732.383233 -370.662625 
L 729.73658 -370.592127 
L 727.089927 -370.625999 
L 724.443273 -370.570985 
L 721.79662 -370.465442 
L 719.149967 -370.413888 
L 716.503313 -370.507492 
L 713.85666 -370.382729 
L 711.210007 -370.388922 
L 708.563353 -370.442398 
L 705.9167 -370.342216 
L 703.270047 -370.254185 
L 700.623393 -370.252669 
L 697.97674 -370.127755 
L 695.330087 -370.150009 
L 692.683433 -370.098348 
L 690.03678 -370.025373 
L 687.390127 -369.949985 
L 684.743473 -369.869173 
L 682.09682 -369.775419 
L 679.450167 -369.86424 
L 676.803513 -369.845532 
L 674.15686 -369.929291 
L 671.510207 -369.899179 
L 668.863553 -369.811767 
L 666.2169 -369.742381 
L 663.570247 -369.596581 
L 660.923593 -369.613303 
L 658.27694 -369.329947 
L 655.630287 -369.341629 
L 652.983633 -369.293556 
L 650.33698 -369.152647 
L 647.690327 -369.244799 
L 645.043673 -369.052443 
L 642.39702 -369.009282 
L 639.750367 -368.971823 
L 637.103713 -368.861112 
L 634.45706 -368.759733 
L 631.810407 -368.744891 
L 629.163753 -368.750699 
L 626.5171 -368.73229 
L 623.870447 -368.506255 
L 621.223793 -368.376109 
L 618.57714 -368.203059 
L 615.930487 -368.062278 
L 613.283833 -368.106593 
L 610.63718 -368.157186 
L 607.990527 -368.032315 
L 605.343873 -367.894375 
L 602.69722 -367.797567 
L 600.050567 -367.670988 
L 597.403913 -367.72991 
L 594.75726 -367.601558 
L 592.110607 -367.574799 
L 589.463953 -367.610998 
L 586.8173 -367.620437 
L 584.170647 -367.464493 
L 581.523993 -367.417787 
L 578.87734 -367.452192 
L 576.230687 -367.365763 
L 573.584033 -367.393676 
L 570.93738 -367.256589 
L 568.290727 -367.188868 
L 565.644073 -367.285121 
L 562.99742 -367.103187 
L 560.350767 -366.961701 
L 557.704113 -366.825619 
L 555.05746 -366.891973 
L 552.410807 -366.986752 
L 549.764153 -366.896372 
L 547.1175 -366.742692 
L 544.470847 -366.852805 
L 541.824193 -366.784593 
L 539.17754 -366.668735 
L 536.530887 -366.462625 
L 533.884233 -366.454125 
L 531.23758 -366.351764 
L 528.590927 -366.3476 
L 525.944273 -366.171538 
L 523.29762 -366.186659 
L 520.650967 -366.223349 
L 518.004313 -366.069028 
L 515.35766 -365.967842 
L 512.711007 -365.821893 
L 510.064353 -365.766494 
L 507.4177 -365.786334 
L 504.771047 -365.862598 
L 502.124393 -365.680193 
L 499.47774 -365.502915 
L 496.831087 -365.420201 
L 494.184433 -365.484569 
L 491.53778 -365.444014 
L 488.891127 -365.545755 
L 486.244473 -365.349619 
L 483.59782 -365.260072 
L 480.951167 -365.181715 
L 478.304513 -365.203947 
L 475.65786 -365.192564 
L 473.011207 -364.973833 
L 470.364553 -364.878797 
L 467.7179 -364.890565 
L 465.071247 -364.790403 
L 462.424593 -364.724412 
L 459.77794 -364.632431 
L 457.131287 -364.360436 
L 454.484633 -364.264461 
L 451.83798 -363.95804 
L 449.191327 -363.77837 
L 446.544673 -363.877378 
L 443.89802 -364.003081 
L 441.251367 -363.876032 
L 438.604713 -363.686836 
L 435.95806 -363.688075 
L 433.311407 -363.679725 
L 430.664753 -363.598229 
L 428.0181 -363.42347 
L 425.371447 -363.421783 
L 422.724793 -363.343427 
L 420.07814 -363.225817 
L 417.431487 -362.998629 
L 414.784833 -362.890673 
L 412.13818 -362.823507 
L 409.491527 -362.727852 
L 406.844873 -362.774409 
L 404.19822 -362.860646 
L 401.551567 -362.959611 
L 398.904913 -362.752006 
L 396.25826 -362.564348 
L 393.611607 -362.587178 
L 390.964953 -362.566291 
L 388.3183 -362.338889 
L 385.671647 -361.949627 
L 383.024993 -361.858842 
L 380.37834 -361.809145 
L 377.731687 -361.665481 
L 375.085033 -361.597931 
L 372.43838 -361.592699 
L 369.791727 -361.455356 
L 367.145073 -361.34787 
L 364.49842 -361.211104 
L 361.851767 -361.287261 
L 359.205113 -361.392441 
L 356.55846 -361.236305 
L 353.911807 -361.090654 
L 351.265153 -360.916494 
L 348.6185 -360.916344 
L 345.971847 -360.885249 
L 343.325193 -360.822419 
L 340.67854 -361.000082 
L 338.031887 -360.646165 
L 335.385233 -360.551728 
L 332.73858 -360.341987 
L 330.091927 -360.22803 
L 327.445273 -360.216754 
L 324.79862 -360.165434 
L 322.151967 -360.040201 
L 319.505313 -359.949116 
L 316.85866 -359.936665 
L 314.212007 -359.52404 
L 311.565353 -359.373093 
L 308.9187 -359.050121 
L 306.272047 -358.909896 
L 303.625393 -358.440911 
L 300.97874 -358.313307 
L 298.332087 -358.11181 
L 295.685433 -357.900297 
L 293.03878 -357.851177 
L 290.392127 -357.733611 
L 287.745473 -357.441541 
L 285.09882 -357.088286 
L 282.452167 -356.71895 
L 279.805513 -356.589616 
L 277.15886 -356.562857 
L 274.512207 -356.536973 
L 271.865553 -356.218465 
L 269.2189 -356.144273 
L 266.572247 -355.943929 
L 263.925593 -355.563936 
L 261.27894 -355.424394 
L 258.632287 -355.46228 
L 255.985633 -355.283292 
L 253.33898 -355.030882 
L 250.692327 -354.998207 
L 248.045673 -354.917288 
L 245.39902 -354.736784 
L 242.752367 -354.677264 
L 240.105713 -354.433908 
L 237.45906 -354.164883 
L 234.812407 -354.003408 
L 232.165753 -353.81293 
L 229.5191 -353.629864 
L 226.872447 -353.266593 
L 224.225793 -353.258947 
L 221.57914 -352.928864 
L 218.932487 -352.672759 
L 216.285833 -352.185728 
L 213.63918 -352.103485 
L 210.992527 -351.74346 
L 208.345873 -351.426617 
L 205.69922 -351.424353 
L 203.052567 -350.851918 
L 200.405913 -350.62159 
L 197.75926 -350.232414 
L 195.112607 -349.947691 
L 192.465953 -349.779404 
L 189.8193 -349.76958 
L 187.172647 -349.371071 
L 184.525993 -349.287503 
L 181.87934 -349.308966 
L 179.232687 -349.183092 
L 176.586033 -348.494863 
L 173.93938 -347.911964 
L 171.292727 -347.544699 
L 168.646073 -347.262774 
L 165.99942 -346.823624 
L 163.352767 -346.360277 
L 160.706113 -346.125314 
L 158.05946 -345.728834 
L 155.412807 -345.13752 
L 152.766153 -344.650874 
L 150.1195 -344.439766 
L 147.472847 -344.421464 
L 144.826193 -343.970141 
L 142.17954 -343.730565 
L 139.532887 -343.213037 
L 136.886233 -342.463281 
L 134.23958 -341.902805 
L 131.592927 -341.419597 
L 128.946273 -341.032321 
L 126.29962 -340.321412 
L 123.652967 -339.882155 
L 121.006313 -339.055793 
L 118.35966 -338.345653 
L 115.713007 -337.82285 
L 113.066353 -337.395937 
L 110.4197 -336.290427 
L 107.773047 -335.894267 
L 105.126393 -335.23835 
L 102.47974 -334.43343 
L 99.833087 -333.751522 
L 97.186433 -332.914269 
L 94.53978 -331.429918 
L 91.893127 -330.517875 
L 89.246473 -329.952488 
L 86.59982 -329.017679 
L 83.953167 -327.985015 
L 81.306513 -326.973622 
L 78.65986 -326.148349 
L 76.013207 -324.75581 
L 73.366553 -323.61425 
L 70.7199 -321.792107 
L 68.073247 -319.121882 
L 65.426593 -317.888896 
L 62.77994 -315.281523 
L 60.133287 -313.30066 
L 57.486633 -309.166182 
L 54.83998 -305.197514 
L 52.193327 -304.161305 
z
" style="stroke: #0000ff; stroke-opacity: 0.2"/>
    </defs>
    <g clip-path="url(#p1b268477a4)">
     <use xlink:href="#maa105e3ce8" x="0" y="432" style="fill: #0000ff; fill-opacity: 0.2; stroke: #0000ff; stroke-opacity: 0.2"/>
    </g>
   </g>
   <g id="matplotlib.axis_1">
    <g id="xtick_1">
     <g id="line2d_1">
      <defs>
       <path id="mab003eb5a5" d="M 0 0 
L 0 3.5 
" style="stroke: #000000; stroke-width: 0.8"/>
      </defs>
      <g>
       <use xlink:href="#mab003eb5a5" x="181.87934" y="390.04" style="stroke: #000000; stroke-width: 0.8"/>
      </g>
     </g>
     <g id="text_1">
      <!-- 50 -->
      <g transform="translate(175.51684 404.638438) scale(0.1 -0.1)">
       <defs>
        <path id="DejaVuSans-35" d="M 691 4666 
L 3169 4666 
L 3169 4134 
L 1269 4134 
L 1269 2991 
Q 1406 3038 1543 3061 
Q 1681 3084 1819 3084 
Q 2600 3084 3056 2656 
Q 3513 2228 3513 1497 
Q 3513 744 3044 326 
Q 2575 -91 1722 -91 
Q 1428 -91 1123 -41 
Q 819 9 494 109 
L 494 744 
Q 775 591 1075 516 
Q 1375 441 1709 441 
Q 2250 441 2565 725 
Q 2881 1009 2881 1497 
Q 2881 1984 2565 2268 
Q 2250 2553 1709 2553 
Q 1456 2553 1204 2497 
Q 953 2441 691 2322 
L 691 4666 
z
" transform="scale(0.015625)"/>
        <path id="DejaVuSans-30" d="M 2034 4250 
Q 1547 4250 1301 3770 
Q 1056 3291 1056 2328 
Q 1056 1369 1301 889 
Q 1547 409 2034 409 
Q 2525 409 2770 889 
Q 3016 1369 3016 2328 
Q 3016 3291 2770 3770 
Q 2525 4250 2034 4250 
z
M 2034 4750 
Q 2819 4750 3233 4129 
Q 3647 3509 3647 2328 
Q 3647 1150 3233 529 
Q 2819 -91 2034 -91 
Q 1250 -91 836 529 
Q 422 1150 422 2328 
Q 422 3509 836 4129 
Q 1250 4750 2034 4750 
z
" transform="scale(0.015625)"/>
       </defs>
       <use xlink:href="#DejaVuSans-35"/>
       <use xlink:href="#DejaVuSans-30" transform="translate(63.623047 0)"/>
      </g>
     </g>
    </g>
    <g id="xtick_2">
     <g id="line2d_2">
      <g>
       <use xlink:href="#mab003eb5a5" x="314.212007" y="390.04" style="stroke: #000000; stroke-width: 0.8"/>
      </g>
     </g>
     <g id="text_2">
      <!-- 100 -->
      <g transform="translate(304.668257 404.638438) scale(0.1 -0.1)">
       <defs>
        <path id="DejaVuSans-31" d="M 794 531 
L 1825 531 
L 1825 4091 
L 703 3866 
L 703 4441 
L 1819 4666 
L 2450 4666 
L 2450 531 
L 3481 531 
L 3481 0 
L 794 0 
L 794 531 
z
" transform="scale(0.015625)"/>
       </defs>
       <use xlink:href="#DejaVuSans-31"/>
       <use xlink:href="#DejaVuSans-30" transform="translate(63.623047 0)"/>
       <use xlink:href="#DejaVuSans-30" transform="translate(127.246094 0)"/>
      </g>
     </g>
    </g>
    <g id="xtick_3">
     <g id="line2d_3">
      <g>
       <use xlink:href="#mab003eb5a5" x="446.544673" y="390.04" style="stroke: #000000; stroke-width: 0.8"/>
      </g>
     </g>
     <g id="text_3">
      <!-- 150 -->
      <g transform="translate(437.000923 404.638438) scale(0.1 -0.1)">
       <use xlink:href="#DejaVuSans-31"/>
       <use xlink:href="#DejaVuSans-35" transform="translate(63.623047 0)"/>
       <use xlink:href="#DejaVuSans-30" transform="translate(127.246094 0)"/>
      </g>
     </g>
    </g>
    <g id="xtick_4">
     <g id="line2d_4">
      <g>
       <use xlink:href="#mab003eb5a5" x="578.87734" y="390.04" style="stroke: #000000; stroke-width: 0.8"/>
      </g>
     </g>
     <g id="text_4">
      <!-- 200 -->
      <g transform="translate(569.33359 404.638438) scale(0.1 -0.1)">
       <defs>
        <path id="DejaVuSans-32" d="M 1228 531 
L 3431 531 
L 3431 0 
L 469 0 
L 469 531 
Q 828 903 1448 1529 
Q 2069 2156 2228 2338 
Q 2531 2678 2651 2914 
Q 2772 3150 2772 3378 
Q 2772 3750 2511 3984 
Q 2250 4219 1831 4219 
Q 1534 4219 1204 4116 
Q 875 4013 500 3803 
L 500 4441 
Q 881 4594 1212 4672 
Q 1544 4750 1819 4750 
Q 2544 4750 2975 4387 
Q 3406 4025 3406 3419 
Q 3406 3131 3298 2873 
Q 3191 2616 2906 2266 
Q 2828 2175 2409 1742 
Q 1991 1309 1228 531 
z
" transform="scale(0.015625)"/>
       </defs>
       <use xlink:href="#DejaVuSans-32"/>
       <use xlink:href="#DejaVuSans-30" transform="translate(63.623047 0)"/>
       <use xlink:href="#DejaVuSans-30" transform="translate(127.246094 0)"/>
      </g>
     </g>
    </g>
    <g id="xtick_5">
     <g id="line2d_5">
      <g>
       <use xlink:href="#mab003eb5a5" x="711.210007" y="390.04" style="stroke: #000000; stroke-width: 0.8"/>
      </g>
     </g>
     <g id="text_5">
      <!-- 250 -->
      <g transform="translate(701.666257 404.638438) scale(0.1 -0.1)">
       <use xlink:href="#DejaVuSans-32"/>
       <use xlink:href="#DejaVuSans-35" transform="translate(63.623047 0)"/>
       <use xlink:href="#DejaVuSans-30" transform="translate(127.246094 0)"/>
      </g>
     </g>
    </g>
    <g id="xtick_6">
     <g id="line2d_6">
      <g>
       <use xlink:href="#mab003eb5a5" x="843.542673" y="390.04" style="stroke: #000000; stroke-width: 0.8"/>
      </g>
     </g>
     <g id="text_6">
      <!-- 300 -->
      <g transform="translate(833.998923 404.638438) scale(0.1 -0.1)">
       <defs>
        <path id="DejaVuSans-33" d="M 2597 2516 
Q 3050 2419 3304 2112 
Q 3559 1806 3559 1356 
Q 3559 666 3084 287 
Q 2609 -91 1734 -91 
Q 1441 -91 1130 -33 
Q 819 25 488 141 
L 488 750 
Q 750 597 1062 519 
Q 1375 441 1716 441 
Q 2309 441 2620 675 
Q 2931 909 2931 1356 
Q 2931 1769 2642 2001 
Q 2353 2234 1838 2234 
L 1294 2234 
L 1294 2753 
L 1863 2753 
Q 2328 2753 2575 2939 
Q 2822 3125 2822 3475 
Q 2822 3834 2567 4026 
Q 2313 4219 1838 4219 
Q 1578 4219 1281 4162 
Q 984 4106 628 3988 
L 628 4550 
Q 988 4650 1302 4700 
Q 1616 4750 1894 4750 
Q 2613 4750 3031 4423 
Q 3450 4097 3450 3541 
Q 3450 3153 3228 2886 
Q 3006 2619 2597 2516 
z
" transform="scale(0.015625)"/>
       </defs>
       <use xlink:href="#DejaVuSans-33"/>
       <use xlink:href="#DejaVuSans-30" transform="translate(63.623047 0)"/>
       <use xlink:href="#DejaVuSans-30" transform="translate(127.246094 0)"/>
      </g>
     </g>
    </g>
    <g id="text_7">
     <!-- Step -->
     <g transform="translate(436.482844 418.316562) scale(0.1 -0.1)">
      <defs>
       <path id="DejaVuSans-53" d="M 3425 4513 
L 3425 3897 
Q 3066 4069 2747 4153 
Q 2428 4238 2131 4238 
Q 1616 4238 1336 4038 
Q 1056 3838 1056 3469 
Q 1056 3159 1242 3001 
Q 1428 2844 1947 2747 
L 2328 2669 
Q 3034 2534 3370 2195 
Q 3706 1856 3706 1288 
Q 3706 609 3251 259 
Q 2797 -91 1919 -91 
Q 1588 -91 1214 -16 
Q 841 59 441 206 
L 441 856 
Q 825 641 1194 531 
Q 1563 422 1919 422 
Q 2459 422 2753 634 
Q 3047 847 3047 1241 
Q 3047 1584 2836 1778 
Q 2625 1972 2144 2069 
L 1759 2144 
Q 1053 2284 737 2584 
Q 422 2884 422 3419 
Q 422 4038 858 4394 
Q 1294 4750 2059 4750 
Q 2388 4750 2728 4690 
Q 3069 4631 3425 4513 
z
" transform="scale(0.015625)"/>
       <path id="DejaVuSans-74" d="M 1172 4494 
L 1172 3500 
L 2356 3500 
L 2356 3053 
L 1172 3053 
L 1172 1153 
Q 1172 725 1289 603 
Q 1406 481 1766 481 
L 2356 481 
L 2356 0 
L 1766 0 
Q 1100 0 847 248 
Q 594 497 594 1153 
L 594 3053 
L 172 3053 
L 172 3500 
L 594 3500 
L 594 4494 
L 1172 4494 
z
" transform="scale(0.015625)"/>
       <path id="DejaVuSans-65" d="M 3597 1894 
L 3597 1613 
L 953 1613 
Q 991 1019 1311 708 
Q 1631 397 2203 397 
Q 2534 397 2845 478 
Q 3156 559 3463 722 
L 3463 178 
Q 3153 47 2828 -22 
Q 2503 -91 2169 -91 
Q 1331 -91 842 396 
Q 353 884 353 1716 
Q 353 2575 817 3079 
Q 1281 3584 2069 3584 
Q 2775 3584 3186 3129 
Q 3597 2675 3597 1894 
z
M 3022 2063 
Q 3016 2534 2758 2815 
Q 2500 3097 2075 3097 
Q 1594 3097 1305 2825 
Q 1016 2553 972 2059 
L 3022 2063 
z
" transform="scale(0.015625)"/>
       <path id="DejaVuSans-70" d="M 1159 525 
L 1159 -1331 
L 581 -1331 
L 581 3500 
L 1159 3500 
L 1159 2969 
Q 1341 3281 1617 3432 
Q 1894 3584 2278 3584 
Q 2916 3584 3314 3078 
Q 3713 2572 3713 1747 
Q 3713 922 3314 415 
Q 2916 -91 2278 -91 
Q 1894 -91 1617 61 
Q 1341 213 1159 525 
z
M 3116 1747 
Q 3116 2381 2855 2742 
Q 2594 3103 2138 3103 
Q 1681 3103 1420 2742 
Q 1159 2381 1159 1747 
Q 1159 1113 1420 752 
Q 1681 391 2138 391 
Q 2594 391 2855 752 
Q 3116 1113 3116 1747 
z
" transform="scale(0.015625)"/>
      </defs>
      <use xlink:href="#DejaVuSans-53"/>
      <use xlink:href="#DejaVuSans-74" transform="translate(63.476562 0)"/>
      <use xlink:href="#DejaVuSans-65" transform="translate(102.685547 0)"/>
      <use xlink:href="#DejaVuSans-70" transform="translate(164.208984 0)"/>
     </g>
    </g>
   </g>
   <g id="matplotlib.axis_2">
    <g id="ytick_1">
     <g id="line2d_7">
      <defs>
       <path id="m394c93c252" d="M 0 0 
L -3.5 0 
" style="stroke: #000000; stroke-width: 0.8"/>
      </defs>
      <g>
       <use xlink:href="#m394c93c252" x="50.87" y="355.423172" style="stroke: #000000; stroke-width: 0.8"/>
      </g>
     </g>
     <g id="text_8">
      <!-- 20 -->
      <g transform="translate(31.145 359.222391) scale(0.1 -0.1)">
       <use xlink:href="#DejaVuSans-32"/>
       <use xlink:href="#DejaVuSans-30" transform="translate(63.623047 0)"/>
      </g>
     </g>
    </g>
    <g id="ytick_2">
     <g id="line2d_8">
      <g>
       <use xlink:href="#m394c93c252" x="50.87" y="299.43884" style="stroke: #000000; stroke-width: 0.8"/>
      </g>
     </g>
     <g id="text_9">
      <!-- 40 -->
      <g transform="translate(31.145 303.238059) scale(0.1 -0.1)">
       <defs>
        <path id="DejaVuSans-34" d="M 2419 4116 
L 825 1625 
L 2419 1625 
L 2419 4116 
z
M 2253 4666 
L 3047 4666 
L 3047 1625 
L 3713 1625 
L 3713 1100 
L 3047 1100 
L 3047 0 
L 2419 0 
L 2419 1100 
L 313 1100 
L 313 1709 
L 2253 4666 
z
" transform="scale(0.015625)"/>
       </defs>
       <use xlink:href="#DejaVuSans-34"/>
       <use xlink:href="#DejaVuSans-30" transform="translate(63.623047 0)"/>
      </g>
     </g>
    </g>
    <g id="ytick_3">
     <g id="line2d_9">
      <g>
       <use xlink:href="#m394c93c252" x="50.87" y="243.454508" style="stroke: #000000; stroke-width: 0.8"/>
      </g>
     </g>
     <g id="text_10">
      <!-- 60 -->
      <g transform="translate(31.145 247.253726) scale(0.1 -0.1)">
       <defs>
        <path id="DejaVuSans-36" d="M 2113 2584 
Q 1688 2584 1439 2293 
Q 1191 2003 1191 1497 
Q 1191 994 1439 701 
Q 1688 409 2113 409 
Q 2538 409 2786 701 
Q 3034 994 3034 1497 
Q 3034 2003 2786 2293 
Q 2538 2584 2113 2584 
z
M 3366 4563 
L 3366 3988 
Q 3128 4100 2886 4159 
Q 2644 4219 2406 4219 
Q 1781 4219 1451 3797 
Q 1122 3375 1075 2522 
Q 1259 2794 1537 2939 
Q 1816 3084 2150 3084 
Q 2853 3084 3261 2657 
Q 3669 2231 3669 1497 
Q 3669 778 3244 343 
Q 2819 -91 2113 -91 
Q 1303 -91 875 529 
Q 447 1150 447 2328 
Q 447 3434 972 4092 
Q 1497 4750 2381 4750 
Q 2619 4750 2861 4703 
Q 3103 4656 3366 4563 
z
" transform="scale(0.015625)"/>
       </defs>
       <use xlink:href="#DejaVuSans-36"/>
       <use xlink:href="#DejaVuSans-30" transform="translate(63.623047 0)"/>
      </g>
     </g>
    </g>
    <g id="ytick_4">
     <g id="line2d_10">
      <g>
       <use xlink:href="#m394c93c252" x="50.87" y="187.470176" style="stroke: #000000; stroke-width: 0.8"/>
      </g>
     </g>
     <g id="text_11">
      <!-- 80 -->
      <g transform="translate(31.145 191.269394) scale(0.1 -0.1)">
       <defs>
        <path id="DejaVuSans-38" d="M 2034 2216 
Q 1584 2216 1326 1975 
Q 1069 1734 1069 1313 
Q 1069 891 1326 650 
Q 1584 409 2034 409 
Q 2484 409 2743 651 
Q 3003 894 3003 1313 
Q 3003 1734 2745 1975 
Q 2488 2216 2034 2216 
z
M 1403 2484 
Q 997 2584 770 2862 
Q 544 3141 544 3541 
Q 544 4100 942 4425 
Q 1341 4750 2034 4750 
Q 2731 4750 3128 4425 
Q 3525 4100 3525 3541 
Q 3525 3141 3298 2862 
Q 3072 2584 2669 2484 
Q 3125 2378 3379 2068 
Q 3634 1759 3634 1313 
Q 3634 634 3220 271 
Q 2806 -91 2034 -91 
Q 1263 -91 848 271 
Q 434 634 434 1313 
Q 434 1759 690 2068 
Q 947 2378 1403 2484 
z
M 1172 3481 
Q 1172 3119 1398 2916 
Q 1625 2713 2034 2713 
Q 2441 2713 2670 2916 
Q 2900 3119 2900 3481 
Q 2900 3844 2670 4047 
Q 2441 4250 2034 4250 
Q 1625 4250 1398 4047 
Q 1172 3844 1172 3481 
z
" transform="scale(0.015625)"/>
       </defs>
       <use xlink:href="#DejaVuSans-38"/>
       <use xlink:href="#DejaVuSans-30" transform="translate(63.623047 0)"/>
      </g>
     </g>
    </g>
    <g id="ytick_5">
     <g id="line2d_11">
      <g>
       <use xlink:href="#m394c93c252" x="50.87" y="131.485843" style="stroke: #000000; stroke-width: 0.8"/>
      </g>
     </g>
     <g id="text_12">
      <!-- 100 -->
      <g transform="translate(24.7825 135.285062) scale(0.1 -0.1)">
       <use xlink:href="#DejaVuSans-31"/>
       <use xlink:href="#DejaVuSans-30" transform="translate(63.623047 0)"/>
       <use xlink:href="#DejaVuSans-30" transform="translate(127.246094 0)"/>
      </g>
     </g>
    </g>
    <g id="ytick_6">
     <g id="line2d_12">
      <g>
       <use xlink:href="#m394c93c252" x="50.87" y="75.501511" style="stroke: #000000; stroke-width: 0.8"/>
      </g>
     </g>
     <g id="text_13">
      <!-- 120 -->
      <g transform="translate(24.7825 79.30073) scale(0.1 -0.1)">
       <use xlink:href="#DejaVuSans-31"/>
       <use xlink:href="#DejaVuSans-32" transform="translate(63.623047 0)"/>
       <use xlink:href="#DejaVuSans-30" transform="translate(127.246094 0)"/>
      </g>
     </g>
    </g>
    <g id="text_14">
     <!-- Profit -->
     <g transform="translate(18.702813 229.779063) rotate(-90) scale(0.1 -0.1)">
      <defs>
       <path id="DejaVuSans-50" d="M 1259 4147 
L 1259 2394 
L 2053 2394 
Q 2494 2394 2734 2622 
Q 2975 2850 2975 3272 
Q 2975 3691 2734 3919 
Q 2494 4147 2053 4147 
L 1259 4147 
z
M 628 4666 
L 2053 4666 
Q 2838 4666 3239 4311 
Q 3641 3956 3641 3272 
Q 3641 2581 3239 2228 
Q 2838 1875 2053 1875 
L 1259 1875 
L 1259 0 
L 628 0 
L 628 4666 
z
" transform="scale(0.015625)"/>
       <path id="DejaVuSans-72" d="M 2631 2963 
Q 2534 3019 2420 3045 
Q 2306 3072 2169 3072 
Q 1681 3072 1420 2755 
Q 1159 2438 1159 1844 
L 1159 0 
L 581 0 
L 581 3500 
L 1159 3500 
L 1159 2956 
Q 1341 3275 1631 3429 
Q 1922 3584 2338 3584 
Q 2397 3584 2469 3576 
Q 2541 3569 2628 3553 
L 2631 2963 
z
" transform="scale(0.015625)"/>
       <path id="DejaVuSans-6f" d="M 1959 3097 
Q 1497 3097 1228 2736 
Q 959 2375 959 1747 
Q 959 1119 1226 758 
Q 1494 397 1959 397 
Q 2419 397 2687 759 
Q 2956 1122 2956 1747 
Q 2956 2369 2687 2733 
Q 2419 3097 1959 3097 
z
M 1959 3584 
Q 2709 3584 3137 3096 
Q 3566 2609 3566 1747 
Q 3566 888 3137 398 
Q 2709 -91 1959 -91 
Q 1206 -91 779 398 
Q 353 888 353 1747 
Q 353 2609 779 3096 
Q 1206 3584 1959 3584 
z
" transform="scale(0.015625)"/>
       <path id="DejaVuSans-66" d="M 2375 4863 
L 2375 4384 
L 1825 4384 
Q 1516 4384 1395 4259 
Q 1275 4134 1275 3809 
L 1275 3500 
L 2222 3500 
L 2222 3053 
L 1275 3053 
L 1275 0 
L 697 0 
L 697 3053 
L 147 3053 
L 147 3500 
L 697 3500 
L 697 3744 
Q 697 4328 969 4595 
Q 1241 4863 1831 4863 
L 2375 4863 
z
" transform="scale(0.015625)"/>
       <path id="DejaVuSans-69" d="M 603 3500 
L 1178 3500 
L 1178 0 
L 603 0 
L 603 3500 
z
M 603 4863 
L 1178 4863 
L 1178 4134 
L 603 4134 
L 603 4863 
z
" transform="scale(0.015625)"/>
      </defs>
      <use xlink:href="#DejaVuSans-50"/>
      <use xlink:href="#DejaVuSans-72" transform="translate(58.552734 0)"/>
      <use xlink:href="#DejaVuSans-6f" transform="translate(97.416016 0)"/>
      <use xlink:href="#DejaVuSans-66" transform="translate(158.597656 0)"/>
      <use xlink:href="#DejaVuSans-69" transform="translate(193.802734 0)"/>
      <use xlink:href="#DejaVuSans-74" transform="translate(221.585938 0)"/>
     </g>
    </g>
   </g>
   <g id="line2d_13">
    <path d="M 52.193327 251.06208 
L 54.83998 250.010463 
L 60.133287 236.176196 
L 62.77994 230.270243 
L 65.426593 224.666043 
L 68.073247 219.961244 
L 70.7199 215.529465 
L 76.013207 207.775793 
L 78.65986 204.287195 
L 81.306513 201.347902 
L 89.246473 193.786865 
L 91.893127 191.533452 
L 94.53978 189.633038 
L 97.186433 187.522734 
L 102.47974 183.807779 
L 107.773047 180.487575 
L 113.066353 177.776026 
L 115.713007 176.231921 
L 118.35966 174.904219 
L 131.592927 169.197274 
L 150.1195 162.651432 
L 155.412807 161.086888 
L 160.706113 159.780052 
L 165.99942 158.306038 
L 171.292727 156.904188 
L 179.232687 155.158756 
L 195.112607 151.71003 
L 200.405913 150.820005 
L 205.69922 149.773011 
L 210.992527 148.729733 
L 216.285833 148.015556 
L 224.225793 146.81281 
L 229.5191 145.924152 
L 250.692327 143.027785 
L 271.865553 140.477327 
L 279.805513 139.670058 
L 322.151967 135.681358 
L 343.325193 134.003456 
L 364.49842 132.234917 
L 367.145073 132.180757 
L 401.551567 129.885891 
L 406.844873 129.616481 
L 412.13818 129.320696 
L 433.311407 128.260141 
L 443.89802 127.668934 
L 483.59782 125.700073 
L 494.184433 125.245653 
L 507.4177 124.566991 
L 552.410807 122.616582 
L 562.99742 122.061296 
L 610.63718 120.504526 
L 621.223793 120.05993 
L 631.810407 119.762266 
L 645.043673 119.319122 
L 652.983633 119.060219 
L 817.07614 114.782632 
L 843.542673 114.265617 
L 843.542673 114.265617 
" clip-path="url(#p1b268477a4)" style="fill: none; stroke: #0000ff; stroke-width: 1.5; stroke-linecap: square"/>
   </g>
   <g id="patch_3">
    <path d="M 50.87 390.04 
L 50.87 43.44 
" style="fill: none; stroke: #000000; stroke-width: 0.8; stroke-linejoin: miter; stroke-linecap: square"/>
   </g>
   <g id="patch_4">
    <path d="M 844.866 390.04 
L 844.866 43.44 
" style="fill: none; stroke: #000000; stroke-width: 0.8; stroke-linejoin: miter; stroke-linecap: square"/>
   </g>
   <g id="patch_5">
    <path d="M 50.87 390.04 
L 844.866 390.04 
" style="fill: none; stroke: #000000; stroke-width: 0.8; stroke-linejoin: miter; stroke-linecap: square"/>
   </g>
   <g id="patch_6">
    <path d="M 50.87 43.44 
L 844.866 43.44 
" style="fill: none; stroke: #000000; stroke-width: 0.8; stroke-linejoin: miter; stroke-linecap: square"/>
   </g>
   <g id="text_15">
    <!-- Mean profit per step with confidence interval per simulation step -->
    <g transform="translate(220.284875 21.763062) scale(0.14 -0.14)">
     <defs>
      <path id="DejaVuSans-4d" d="M 628 4666 
L 1569 4666 
L 2759 1491 
L 3956 4666 
L 4897 4666 
L 4897 0 
L 4281 0 
L 4281 4097 
L 3078 897 
L 2444 897 
L 1241 4097 
L 1241 0 
L 628 0 
L 628 4666 
z
" transform="scale(0.015625)"/>
      <path id="DejaVuSans-61" d="M 2194 1759 
Q 1497 1759 1228 1600 
Q 959 1441 959 1056 
Q 959 750 1161 570 
Q 1363 391 1709 391 
Q 2188 391 2477 730 
Q 2766 1069 2766 1631 
L 2766 1759 
L 2194 1759 
z
M 3341 1997 
L 3341 0 
L 2766 0 
L 2766 531 
Q 2569 213 2275 61 
Q 1981 -91 1556 -91 
Q 1019 -91 701 211 
Q 384 513 384 1019 
Q 384 1609 779 1909 
Q 1175 2209 1959 2209 
L 2766 2209 
L 2766 2266 
Q 2766 2663 2505 2880 
Q 2244 3097 1772 3097 
Q 1472 3097 1187 3025 
Q 903 2953 641 2809 
L 641 3341 
Q 956 3463 1253 3523 
Q 1550 3584 1831 3584 
Q 2591 3584 2966 3190 
Q 3341 2797 3341 1997 
z
" transform="scale(0.015625)"/>
      <path id="DejaVuSans-6e" d="M 3513 2113 
L 3513 0 
L 2938 0 
L 2938 2094 
Q 2938 2591 2744 2837 
Q 2550 3084 2163 3084 
Q 1697 3084 1428 2787 
Q 1159 2491 1159 1978 
L 1159 0 
L 581 0 
L 581 3500 
L 1159 3500 
L 1159 2956 
Q 1366 3272 1645 3428 
Q 1925 3584 2291 3584 
Q 2894 3584 3203 3211 
Q 3513 2838 3513 2113 
z
" transform="scale(0.015625)"/>
      <path id="DejaVuSans-20" transform="scale(0.015625)"/>
      <path id="DejaVuSans-73" d="M 2834 3397 
L 2834 2853 
Q 2591 2978 2328 3040 
Q 2066 3103 1784 3103 
Q 1356 3103 1142 2972 
Q 928 2841 928 2578 
Q 928 2378 1081 2264 
Q 1234 2150 1697 2047 
L 1894 2003 
Q 2506 1872 2764 1633 
Q 3022 1394 3022 966 
Q 3022 478 2636 193 
Q 2250 -91 1575 -91 
Q 1294 -91 989 -36 
Q 684 19 347 128 
L 347 722 
Q 666 556 975 473 
Q 1284 391 1588 391 
Q 1994 391 2212 530 
Q 2431 669 2431 922 
Q 2431 1156 2273 1281 
Q 2116 1406 1581 1522 
L 1381 1569 
Q 847 1681 609 1914 
Q 372 2147 372 2553 
Q 372 3047 722 3315 
Q 1072 3584 1716 3584 
Q 2034 3584 2315 3537 
Q 2597 3491 2834 3397 
z
" transform="scale(0.015625)"/>
      <path id="DejaVuSans-77" d="M 269 3500 
L 844 3500 
L 1563 769 
L 2278 3500 
L 2956 3500 
L 3675 769 
L 4391 3500 
L 4966 3500 
L 4050 0 
L 3372 0 
L 2619 2869 
L 1863 0 
L 1184 0 
L 269 3500 
z
" transform="scale(0.015625)"/>
      <path id="DejaVuSans-68" d="M 3513 2113 
L 3513 0 
L 2938 0 
L 2938 2094 
Q 2938 2591 2744 2837 
Q 2550 3084 2163 3084 
Q 1697 3084 1428 2787 
Q 1159 2491 1159 1978 
L 1159 0 
L 581 0 
L 581 4863 
L 1159 4863 
L 1159 2956 
Q 1366 3272 1645 3428 
Q 1925 3584 2291 3584 
Q 2894 3584 3203 3211 
Q 3513 2838 3513 2113 
z
" transform="scale(0.015625)"/>
      <path id="DejaVuSans-63" d="M 3122 3366 
L 3122 2828 
Q 2878 2963 2633 3030 
Q 2388 3097 2138 3097 
Q 1578 3097 1268 2742 
Q 959 2388 959 1747 
Q 959 1106 1268 751 
Q 1578 397 2138 397 
Q 2388 397 2633 464 
Q 2878 531 3122 666 
L 3122 134 
Q 2881 22 2623 -34 
Q 2366 -91 2075 -91 
Q 1284 -91 818 406 
Q 353 903 353 1747 
Q 353 2603 823 3093 
Q 1294 3584 2113 3584 
Q 2378 3584 2631 3529 
Q 2884 3475 3122 3366 
z
" transform="scale(0.015625)"/>
      <path id="DejaVuSans-64" d="M 2906 2969 
L 2906 4863 
L 3481 4863 
L 3481 0 
L 2906 0 
L 2906 525 
Q 2725 213 2448 61 
Q 2172 -91 1784 -91 
Q 1150 -91 751 415 
Q 353 922 353 1747 
Q 353 2572 751 3078 
Q 1150 3584 1784 3584 
Q 2172 3584 2448 3432 
Q 2725 3281 2906 2969 
z
M 947 1747 
Q 947 1113 1208 752 
Q 1469 391 1925 391 
Q 2381 391 2643 752 
Q 2906 1113 2906 1747 
Q 2906 2381 2643 2742 
Q 2381 3103 1925 3103 
Q 1469 3103 1208 2742 
Q 947 2381 947 1747 
z
" transform="scale(0.015625)"/>
      <path id="DejaVuSans-76" d="M 191 3500 
L 800 3500 
L 1894 563 
L 2988 3500 
L 3597 3500 
L 2284 0 
L 1503 0 
L 191 3500 
z
" transform="scale(0.015625)"/>
      <path id="DejaVuSans-6c" d="M 603 4863 
L 1178 4863 
L 1178 0 
L 603 0 
L 603 4863 
z
" transform="scale(0.015625)"/>
      <path id="DejaVuSans-6d" d="M 3328 2828 
Q 3544 3216 3844 3400 
Q 4144 3584 4550 3584 
Q 5097 3584 5394 3201 
Q 5691 2819 5691 2113 
L 5691 0 
L 5113 0 
L 5113 2094 
Q 5113 2597 4934 2840 
Q 4756 3084 4391 3084 
Q 3944 3084 3684 2787 
Q 3425 2491 3425 1978 
L 3425 0 
L 2847 0 
L 2847 2094 
Q 2847 2600 2669 2842 
Q 2491 3084 2119 3084 
Q 1678 3084 1418 2786 
Q 1159 2488 1159 1978 
L 1159 0 
L 581 0 
L 581 3500 
L 1159 3500 
L 1159 2956 
Q 1356 3278 1631 3431 
Q 1906 3584 2284 3584 
Q 2666 3584 2933 3390 
Q 3200 3197 3328 2828 
z
" transform="scale(0.015625)"/>
      <path id="DejaVuSans-75" d="M 544 1381 
L 544 3500 
L 1119 3500 
L 1119 1403 
Q 1119 906 1312 657 
Q 1506 409 1894 409 
Q 2359 409 2629 706 
Q 2900 1003 2900 1516 
L 2900 3500 
L 3475 3500 
L 3475 0 
L 2900 0 
L 2900 538 
Q 2691 219 2414 64 
Q 2138 -91 1772 -91 
Q 1169 -91 856 284 
Q 544 659 544 1381 
z
M 1991 3584 
L 1991 3584 
z
" transform="scale(0.015625)"/>
     </defs>
     <use xlink:href="#DejaVuSans-4d"/>
     <use xlink:href="#DejaVuSans-65" transform="translate(86.279297 0)"/>
     <use xlink:href="#DejaVuSans-61" transform="translate(147.802734 0)"/>
     <use xlink:href="#DejaVuSans-6e" transform="translate(209.082031 0)"/>
     <use xlink:href="#DejaVuSans-20" transform="translate(272.460938 0)"/>
     <use xlink:href="#DejaVuSans-70" transform="translate(304.248047 0)"/>
     <use xlink:href="#DejaVuSans-72" transform="translate(367.724609 0)"/>
     <use xlink:href="#DejaVuSans-6f" transform="translate(406.587891 0)"/>
     <use xlink:href="#DejaVuSans-66" transform="translate(467.769531 0)"/>
     <use xlink:href="#DejaVuSans-69" transform="translate(502.974609 0)"/>
     <use xlink:href="#DejaVuSans-74" transform="translate(530.757812 0)"/>
     <use xlink:href="#DejaVuSans-20" transform="translate(569.966797 0)"/>
     <use xlink:href="#DejaVuSans-70" transform="translate(601.753906 0)"/>
     <use xlink:href="#DejaVuSans-65" transform="translate(665.230469 0)"/>
     <use xlink:href="#DejaVuSans-72" transform="translate(726.753906 0)"/>
     <use xlink:href="#DejaVuSans-20" transform="translate(767.867188 0)"/>
     <use xlink:href="#DejaVuSans-73" transform="translate(799.654297 0)"/>
     <use xlink:href="#DejaVuSans-74" transform="translate(851.753906 0)"/>
     <use xlink:href="#DejaVuSans-65" transform="translate(890.962891 0)"/>
     <use xlink:href="#DejaVuSans-70" transform="translate(952.486328 0)"/>
     <use xlink:href="#DejaVuSans-20" transform="translate(1015.962891 0)"/>
     <use xlink:href="#DejaVuSans-77" transform="translate(1047.75 0)"/>
     <use xlink:href="#DejaVuSans-69" transform="translate(1129.537109 0)"/>
     <use xlink:href="#DejaVuSans-74" transform="translate(1157.320312 0)"/>
     <use xlink:href="#DejaVuSans-68" transform="translate(1196.529297 0)"/>
     <use xlink:href="#DejaVuSans-20" transform="translate(1259.908203 0)"/>
     <use xlink:href="#DejaVuSans-63" transform="translate(1291.695312 0)"/>
     <use xlink:href="#DejaVuSans-6f" transform="translate(1346.675781 0)"/>
     <use xlink:href="#DejaVuSans-6e" transform="translate(1407.857422 0)"/>
     <use xlink:href="#DejaVuSans-66" transform="translate(1471.236328 0)"/>
     <use xlink:href="#DejaVuSans-69" transform="translate(1506.441406 0)"/>
     <use xlink:href="#DejaVuSans-64" transform="translate(1534.224609 0)"/>
     <use xlink:href="#DejaVuSans-65" transform="translate(1597.701172 0)"/>
     <use xlink:href="#DejaVuSans-6e" transform="translate(1659.224609 0)"/>
     <use xlink:href="#DejaVuSans-63" transform="translate(1722.603516 0)"/>
     <use xlink:href="#DejaVuSans-65" transform="translate(1777.583984 0)"/>
     <use xlink:href="#DejaVuSans-20" transform="translate(1839.107422 0)"/>
     <use xlink:href="#DejaVuSans-69" transform="translate(1870.894531 0)"/>
     <use xlink:href="#DejaVuSans-6e" transform="translate(1898.677734 0)"/>
     <use xlink:href="#DejaVuSans-74" transform="translate(1962.056641 0)"/>
     <use xlink:href="#DejaVuSans-65" transform="translate(2001.265625 0)"/>
     <use xlink:href="#DejaVuSans-72" transform="translate(2062.789062 0)"/>
     <use xlink:href="#DejaVuSans-76" transform="translate(2103.902344 0)"/>
     <use xlink:href="#DejaVuSans-61" transform="translate(2163.082031 0)"/>
     <use xlink:href="#DejaVuSans-6c" transform="translate(2224.361328 0)"/>
     <use xlink:href="#DejaVuSans-20" transform="translate(2252.144531 0)"/>
     <use xlink:href="#DejaVuSans-70" transform="translate(2283.931641 0)"/>
     <use xlink:href="#DejaVuSans-65" transform="translate(2347.408203 0)"/>
     <use xlink:href="#DejaVuSans-72" transform="translate(2408.931641 0)"/>
     <use xlink:href="#DejaVuSans-20" transform="translate(2450.044922 0)"/>
     <use xlink:href="#DejaVuSans-73" transform="translate(2481.832031 0)"/>
     <use xlink:href="#DejaVuSans-69" transform="translate(2533.931641 0)"/>
     <use xlink:href="#DejaVuSans-6d" transform="translate(2561.714844 0)"/>
     <use xlink:href="#DejaVuSans-75" transform="translate(2659.126953 0)"/>
     <use xlink:href="#DejaVuSans-6c" transform="translate(2722.505859 0)"/>
     <use xlink:href="#DejaVuSans-61" transform="translate(2750.289062 0)"/>
     <use xlink:href="#DejaVuSans-74" transform="translate(2811.568359 0)"/>
     <use xlink:href="#DejaVuSans-69" transform="translate(2850.777344 0)"/>
     <use xlink:href="#DejaVuSans-6f" transform="translate(2878.560547 0)"/>
     <use xlink:href="#DejaVuSans-6e" transform="translate(2939.742188 0)"/>
     <use xlink:href="#DejaVuSans-20" transform="translate(3003.121094 0)"/>
     <use xlink:href="#DejaVuSans-73" transform="translate(3034.908203 0)"/>
     <use xlink:href="#DejaVuSans-74" transform="translate(3087.007812 0)"/>
     <use xlink:href="#DejaVuSans-65" transform="translate(3126.216797 0)"/>
     <use xlink:href="#DejaVuSans-70" transform="translate(3187.740234 0)"/>
    </g>
    <!-- Base Product: Sour Diesel, Recipe size: 10, T0: 10.0 -->
    <g transform="translate(267.148781 37.44) scale(0.14 -0.14)">
     <defs>
      <path id="DejaVuSans-42" d="M 1259 2228 
L 1259 519 
L 2272 519 
Q 2781 519 3026 730 
Q 3272 941 3272 1375 
Q 3272 1813 3026 2020 
Q 2781 2228 2272 2228 
L 1259 2228 
z
M 1259 4147 
L 1259 2741 
L 2194 2741 
Q 2656 2741 2882 2914 
Q 3109 3088 3109 3444 
Q 3109 3797 2882 3972 
Q 2656 4147 2194 4147 
L 1259 4147 
z
M 628 4666 
L 2241 4666 
Q 2963 4666 3353 4366 
Q 3744 4066 3744 3513 
Q 3744 3084 3544 2831 
Q 3344 2578 2956 2516 
Q 3422 2416 3680 2098 
Q 3938 1781 3938 1306 
Q 3938 681 3513 340 
Q 3088 0 2303 0 
L 628 0 
L 628 4666 
z
" transform="scale(0.015625)"/>
      <path id="DejaVuSans-3a" d="M 750 794 
L 1409 794 
L 1409 0 
L 750 0 
L 750 794 
z
M 750 3309 
L 1409 3309 
L 1409 2516 
L 750 2516 
L 750 3309 
z
" transform="scale(0.015625)"/>
      <path id="DejaVuSans-44" d="M 1259 4147 
L 1259 519 
L 2022 519 
Q 2988 519 3436 956 
Q 3884 1394 3884 2338 
Q 3884 3275 3436 3711 
Q 2988 4147 2022 4147 
L 1259 4147 
z
M 628 4666 
L 1925 4666 
Q 3281 4666 3915 4102 
Q 4550 3538 4550 2338 
Q 4550 1131 3912 565 
Q 3275 0 1925 0 
L 628 0 
L 628 4666 
z
" transform="scale(0.015625)"/>
      <path id="DejaVuSans-2c" d="M 750 794 
L 1409 794 
L 1409 256 
L 897 -744 
L 494 -744 
L 750 256 
L 750 794 
z
" transform="scale(0.015625)"/>
      <path id="DejaVuSans-52" d="M 2841 2188 
Q 3044 2119 3236 1894 
Q 3428 1669 3622 1275 
L 4263 0 
L 3584 0 
L 2988 1197 
Q 2756 1666 2539 1819 
Q 2322 1972 1947 1972 
L 1259 1972 
L 1259 0 
L 628 0 
L 628 4666 
L 2053 4666 
Q 2853 4666 3247 4331 
Q 3641 3997 3641 3322 
Q 3641 2881 3436 2590 
Q 3231 2300 2841 2188 
z
M 1259 4147 
L 1259 2491 
L 2053 2491 
Q 2509 2491 2742 2702 
Q 2975 2913 2975 3322 
Q 2975 3731 2742 3939 
Q 2509 4147 2053 4147 
L 1259 4147 
z
" transform="scale(0.015625)"/>
      <path id="DejaVuSans-7a" d="M 353 3500 
L 3084 3500 
L 3084 2975 
L 922 459 
L 3084 459 
L 3084 0 
L 275 0 
L 275 525 
L 2438 3041 
L 353 3041 
L 353 3500 
z
" transform="scale(0.015625)"/>
      <path id="DejaVuSans-54" d="M -19 4666 
L 3928 4666 
L 3928 4134 
L 2272 4134 
L 2272 0 
L 1638 0 
L 1638 4134 
L -19 4134 
L -19 4666 
z
" transform="scale(0.015625)"/>
      <path id="DejaVuSans-2e" d="M 684 794 
L 1344 794 
L 1344 0 
L 684 0 
L 684 794 
z
" transform="scale(0.015625)"/>
     </defs>
     <use xlink:href="#DejaVuSans-42"/>
     <use xlink:href="#DejaVuSans-61" transform="translate(68.603516 0)"/>
     <use xlink:href="#DejaVuSans-73" transform="translate(129.882812 0)"/>
     <use xlink:href="#DejaVuSans-65" transform="translate(181.982422 0)"/>
     <use xlink:href="#DejaVuSans-20" transform="translate(243.505859 0)"/>
     <use xlink:href="#DejaVuSans-50" transform="translate(275.292969 0)"/>
     <use xlink:href="#DejaVuSans-72" transform="translate(333.845703 0)"/>
     <use xlink:href="#DejaVuSans-6f" transform="translate(372.708984 0)"/>
     <use xlink:href="#DejaVuSans-64" transform="translate(433.890625 0)"/>
     <use xlink:href="#DejaVuSans-75" transform="translate(497.367188 0)"/>
     <use xlink:href="#DejaVuSans-63" transform="translate(560.746094 0)"/>
     <use xlink:href="#DejaVuSans-74" transform="translate(615.726562 0)"/>
     <use xlink:href="#DejaVuSans-3a" transform="translate(654.935547 0)"/>
     <use xlink:href="#DejaVuSans-20" transform="translate(688.626953 0)"/>
     <use xlink:href="#DejaVuSans-53" transform="translate(720.414062 0)"/>
     <use xlink:href="#DejaVuSans-6f" transform="translate(783.890625 0)"/>
     <use xlink:href="#DejaVuSans-75" transform="translate(845.072266 0)"/>
     <use xlink:href="#DejaVuSans-72" transform="translate(908.451172 0)"/>
     <use xlink:href="#DejaVuSans-20" transform="translate(949.564453 0)"/>
     <use xlink:href="#DejaVuSans-44" transform="translate(981.351562 0)"/>
     <use xlink:href="#DejaVuSans-69" transform="translate(1058.353516 0)"/>
     <use xlink:href="#DejaVuSans-65" transform="translate(1086.136719 0)"/>
     <use xlink:href="#DejaVuSans-73" transform="translate(1147.660156 0)"/>
     <use xlink:href="#DejaVuSans-65" transform="translate(1199.759766 0)"/>
     <use xlink:href="#DejaVuSans-6c" transform="translate(1261.283203 0)"/>
     <use xlink:href="#DejaVuSans-2c" transform="translate(1289.066406 0)"/>
     <use xlink:href="#DejaVuSans-20" transform="translate(1320.853516 0)"/>
     <use xlink:href="#DejaVuSans-52" transform="translate(1352.640625 0)"/>
     <use xlink:href="#DejaVuSans-65" transform="translate(1417.623047 0)"/>
     <use xlink:href="#DejaVuSans-63" transform="translate(1479.146484 0)"/>
     <use xlink:href="#DejaVuSans-69" transform="translate(1534.126953 0)"/>
     <use xlink:href="#DejaVuSans-70" transform="translate(1561.910156 0)"/>
     <use xlink:href="#DejaVuSans-65" transform="translate(1625.386719 0)"/>
     <use xlink:href="#DejaVuSans-20" transform="translate(1686.910156 0)"/>
     <use xlink:href="#DejaVuSans-73" transform="translate(1718.697266 0)"/>
     <use xlink:href="#DejaVuSans-69" transform="translate(1770.796875 0)"/>
     <use xlink:href="#DejaVuSans-7a" transform="translate(1798.580078 0)"/>
     <use xlink:href="#DejaVuSans-65" transform="translate(1851.070312 0)"/>
     <use xlink:href="#DejaVuSans-3a" transform="translate(1912.59375 0)"/>
     <use xlink:href="#DejaVuSans-20" transform="translate(1946.285156 0)"/>
     <use xlink:href="#DejaVuSans-31" transform="translate(1978.072266 0)"/>
     <use xlink:href="#DejaVuSans-30" transform="translate(2041.695312 0)"/>
     <use xlink:href="#DejaVuSans-2c" transform="translate(2105.318359 0)"/>
     <use xlink:href="#DejaVuSans-20" transform="translate(2137.105469 0)"/>
     <use xlink:href="#DejaVuSans-54" transform="translate(2168.892578 0)"/>
     <use xlink:href="#DejaVuSans-30" transform="translate(2229.976562 0)"/>
     <use xlink:href="#DejaVuSans-3a" transform="translate(2293.599609 0)"/>
     <use xlink:href="#DejaVuSans-20" transform="translate(2327.291016 0)"/>
     <use xlink:href="#DejaVuSans-31" transform="translate(2359.078125 0)"/>
     <use xlink:href="#DejaVuSans-30" transform="translate(2422.701172 0)"/>
     <use xlink:href="#DejaVuSans-2e" transform="translate(2486.324219 0)"/>
     <use xlink:href="#DejaVuSans-30" transform="translate(2518.111328 0)"/>
    </g>
   </g>
  </g>
 </g>
 <defs>
  <clipPath id="p1b268477a4">
   <rect x="50.87" y="43.44" width="793.996" height="346.6"/>
  </clipPath>
 </defs>
</svg>
