<?xml version="1.0" encoding="utf-8" standalone="no"?>
<!DOCTYPE svg PUBLIC "-//W3C//DTD SVG 1.1//EN"
  "http://www.w3.org/Graphics/SVG/1.1/DTD/svg11.dtd">
<svg xmlns:xlink="http://www.w3.org/1999/xlink" width="864pt" height="432pt" viewBox="0 0 864 432" xmlns="http://www.w3.org/2000/svg" version="1.1">
 <metadata>
  <rdf:RDF xmlns:dc="http://purl.org/dc/elements/1.1/" xmlns:cc="http://creativecommons.org/ns#" xmlns:rdf="http://www.w3.org/1999/02/22-rdf-syntax-ns#">
   <cc:Work>
    <dc:type rdf:resource="http://purl.org/dc/dcmitype/StillImage"/>
    <dc:date>2025-05-24T02:08:39.049753</dc:date>
    <dc:format>image/svg+xml</dc:format>
    <dc:creator>
     <cc:Agent>
      <dc:title>Matplotlib v3.10.3, https://matplotlib.org/</dc:title>
     </cc:Agent>
    </dc:creator>
   </cc:Work>
  </rdf:RDF>
 </metadata>
 <defs>
  <style type="text/css">*{stroke-linejoin: round; stroke-linecap: butt}</style>
 </defs>
 <g id="figure_1">
  <g id="patch_1">
   <path d="M 0 432 
L 864 432 
L 864 0 
L 0 0 
z
" style="fill: #ffffff"/>
  </g>
  <g id="axes_1">
   <g id="patch_2">
    <path d="M 50.87 390.04 
L 844.866 390.04 
L 844.866 43.44 
L 50.87 43.44 
z
" style="fill: #ffffff"/>
   </g>
   <g id="FillBetweenPolyCollection_1">
    <defs>
     <path id="m5affcab3b8" d="M 52.193327 -332.236742 
L 52.193327 -57.714545 
L 54.83998 -58.875628 
L 57.486633 -61.063911 
L 60.133287 -64.145142 
L 62.77994 -68.301895 
L 65.426593 -72.211949 
L 68.073247 -76.988233 
L 70.7199 -80.025786 
L 73.366553 -80.805526 
L 76.013207 -82.740112 
L 78.65986 -85.329077 
L 81.306513 -86.628029 
L 83.953167 -88.302265 
L 86.59982 -92.304676 
L 89.246473 -94.243178 
L 91.893127 -95.87095 
L 94.53978 -95.28829 
L 97.186433 -98.055008 
L 99.833087 -97.717713 
L 102.47974 -99.565226 
L 105.126393 -101.8554 
L 107.773047 -102.218711 
L 110.4197 -103.365726 
L 113.066353 -103.844019 
L 115.713007 -105.402488 
L 118.35966 -106.814506 
L 121.006313 -108.249637 
L 123.652967 -108.462879 
L 126.29962 -109.62157 
L 128.946273 -110.953679 
L 131.592927 -111.782919 
L 134.23958 -111.151367 
L 136.886233 -112.403521 
L 139.532887 -112.183935 
L 142.17954 -111.373976 
L 144.826193 -112.194896 
L 147.472847 -112.862415 
L 150.1195 -113.634538 
L 152.766153 -114.771186 
L 155.412807 -115.913607 
L 158.05946 -115.414283 
L 160.706113 -115.381125 
L 163.352767 -115.513614 
L 165.99942 -114.915494 
L 168.646073 -116.879989 
L 171.292727 -115.592415 
L 173.93938 -117.10824 
L 176.586033 -118.23232 
L 179.232687 -118.83826 
L 181.87934 -119.117426 
L 184.525993 -118.37251 
L 187.172647 -119.857509 
L 189.8193 -120.878354 
L 192.465953 -121.789037 
L 195.112607 -120.652341 
L 197.75926 -121.592861 
L 200.405913 -121.990544 
L 203.052567 -122.529834 
L 205.69922 -122.248966 
L 208.345873 -123.21542 
L 210.992527 -123.596203 
L 213.63918 -123.450895 
L 216.285833 -125.019992 
L 218.932487 -124.814235 
L 221.57914 -123.993982 
L 224.225793 -124.136564 
L 226.872447 -123.536111 
L 229.5191 -123.442588 
L 232.165753 -124.520572 
L 234.812407 -124.725234 
L 237.45906 -125.010125 
L 240.105713 -124.10994 
L 242.752367 -125.707577 
L 245.39902 -126.587422 
L 248.045673 -126.813459 
L 250.692327 -129.309984 
L 253.33898 -128.704318 
L 255.985633 -129.033995 
L 258.632287 -129.304807 
L 261.27894 -128.793819 
L 263.925593 -128.573435 
L 266.572247 -129.238955 
L 269.2189 -127.812833 
L 271.865553 -127.114929 
L 274.512207 -128.362882 
L 277.15886 -128.465677 
L 279.805513 -129.084137 
L 282.452167 -129.964244 
L 285.09882 -129.173698 
L 287.745473 -129.029211 
L 290.392127 -129.10725 
L 293.03878 -128.83976 
L 295.685433 -128.557475 
L 298.332087 -130.847148 
L 300.97874 -130.955144 
L 303.625393 -130.43623 
L 306.272047 -129.889026 
L 308.9187 -130.759623 
L 311.565353 -131.479783 
L 314.212007 -131.818946 
L 316.85866 -132.214404 
L 319.505313 -131.669425 
L 322.151967 -131.428677 
L 324.79862 -130.657602 
L 327.445273 -130.715932 
L 330.091927 -130.567923 
L 332.73858 -129.081519 
L 335.385233 -129.543436 
L 338.031887 -129.88336 
L 340.67854 -130.809813 
L 343.325193 -130.259478 
L 345.971847 -131.173279 
L 348.6185 -131.001394 
L 351.265153 -131.550265 
L 353.911807 -131.878609 
L 356.55846 -131.480236 
L 359.205113 -133.054355 
L 361.851767 -132.842635 
L 364.49842 -134.100895 
L 367.145073 -133.728741 
L 369.791727 -133.759126 
L 372.43838 -133.967596 
L 375.085033 -133.486422 
L 377.731687 -134.195918 
L 380.37834 -134.805381 
L 383.024993 -133.853078 
L 385.671647 -135.159909 
L 388.3183 -135.044867 
L 390.964953 -134.776817 
L 393.611607 -134.488415 
L 396.25826 -136.052227 
L 398.904913 -135.708161 
L 401.551567 -135.530563 
L 404.19822 -136.240893 
L 406.844873 -136.793132 
L 409.491527 -136.506086 
L 412.13818 -136.135598 
L 414.784833 -136.524427 
L 417.431487 -137.314105 
L 420.07814 -137.068894 
L 422.724793 -136.745834 
L 425.371447 -136.831991 
L 428.0181 -135.385136 
L 430.664753 -135.155957 
L 433.311407 -136.032577 
L 435.95806 -136.622092 
L 438.604713 -136.864554 
L 441.251367 -135.28133 
L 443.89802 -135.356691 
L 446.544673 -136.761854 
L 449.191327 -136.550408 
L 451.83798 -136.652025 
L 454.484633 -137.188244 
L 457.131287 -136.469381 
L 459.77794 -138.044239 
L 462.424593 -137.541439 
L 465.071247 -138.798307 
L 467.7179 -139.831993 
L 470.364553 -139.147181 
L 473.011207 -138.713995 
L 475.65786 -139.422551 
L 478.304513 -138.368929 
L 480.951167 -138.317668 
L 483.59782 -139.566133 
L 486.244473 -138.218146 
L 488.891127 -137.45589 
L 491.53778 -137.078927 
L 494.184433 -136.002716 
L 496.831087 -136.601752 
L 499.47774 -137.095471 
L 502.124393 -137.387526 
L 504.771047 -137.41546 
L 507.4177 -138.000416 
L 510.064353 -138.093274 
L 512.711007 -138.038288 
L 515.35766 -138.076647 
L 518.004313 -138.451919 
L 520.650967 -138.056783 
L 523.29762 -138.05326 
L 525.944273 -137.482145 
L 528.590927 -138.420428 
L 531.23758 -138.10796 
L 533.884233 -138.318192 
L 536.530887 -139.42217 
L 539.17754 -139.530654 
L 541.824193 -140.025634 
L 544.470847 -139.794003 
L 547.1175 -139.925624 
L 549.764153 -139.442938 
L 552.410807 -139.595292 
L 555.05746 -140.033965 
L 557.704113 -140.101614 
L 560.350767 -140.339958 
L 562.99742 -139.862271 
L 565.644073 -140.289042 
L 568.290727 -139.718665 
L 570.93738 -140.202803 
L 573.584033 -140.242995 
L 576.230687 -139.786695 
L 578.87734 -141.038516 
L 581.523993 -141.57495 
L 584.170647 -140.451441 
L 586.8173 -140.20967 
L 589.463953 -140.748365 
L 592.110607 -140.882783 
L 594.75726 -140.615827 
L 597.403913 -140.02968 
L 600.050567 -140.621195 
L 602.69722 -140.257431 
L 605.343873 -140.261871 
L 607.990527 -141.504278 
L 610.63718 -141.719425 
L 613.283833 -141.21722 
L 615.930487 -141.633958 
L 618.57714 -142.161061 
L 621.223793 -142.513137 
L 623.870447 -142.477587 
L 626.5171 -143.387472 
L 629.163753 -143.068018 
L 631.810407 -142.354369 
L 634.45706 -142.61567 
L 637.103713 -142.570658 
L 639.750367 -142.873473 
L 642.39702 -143.605737 
L 645.043673 -143.559011 
L 647.690327 -143.586992 
L 650.33698 -144.020976 
L 652.983633 -143.677076 
L 655.630287 -143.705402 
L 658.27694 -143.581791 
L 660.923593 -144.648921 
L 663.570247 -144.59822 
L 666.2169 -144.081996 
L 668.863553 -144.383133 
L 671.510207 -144.114285 
L 674.15686 -143.474569 
L 676.803513 -143.809328 
L 679.450167 -143.934688 
L 682.09682 -145.002902 
L 684.743473 -144.310437 
L 687.390127 -143.755615 
L 690.03678 -142.833281 
L 692.683433 -142.887041 
L 695.330087 -143.161304 
L 697.97674 -142.762347 
L 700.623393 -143.116208 
L 703.270047 -142.758265 
L 705.9167 -143.280773 
L 708.563353 -143.481983 
L 711.210007 -143.703843 
L 713.85666 -144.095242 
L 716.503313 -144.966149 
L 719.149967 -144.729686 
L 721.79662 -145.089689 
L 724.443273 -144.175817 
L 727.089927 -143.738239 
L 729.73658 -144.053705 
L 732.383233 -143.499431 
L 735.029887 -143.773765 
L 737.67654 -144.086471 
L 740.323193 -145.199589 
L 742.969847 -144.611145 
L 745.6165 -144.82033 
L 748.263153 -144.562265 
L 750.909807 -144.70943 
L 753.55646 -144.853238 
L 756.203113 -145.077656 
L 758.849767 -146.243523 
L 761.49642 -146.417205 
L 764.143073 -145.949301 
L 766.789727 -145.836116 
L 769.43638 -145.926403 
L 772.083033 -146.224612 
L 774.729687 -146.289119 
L 777.37634 -144.678378 
L 780.022993 -145.155101 
L 782.669647 -145.98071 
L 785.3163 -145.765194 
L 787.962953 -144.879898 
L 790.609607 -145.047105 
L 793.25626 -145.887912 
L 795.902913 -145.114064 
L 798.549567 -145.507915 
L 801.19622 -146.338261 
L 803.842873 -146.265042 
L 806.489527 -146.326443 
L 809.13618 -145.87413 
L 811.782833 -145.085714 
L 814.429487 -144.635127 
L 817.07614 -144.964828 
L 819.722793 -145.443384 
L 822.369447 -145.468663 
L 825.0161 -145.320356 
L 827.662753 -145.058126 
L 830.309407 -145.648236 
L 832.95606 -145.501179 
L 835.602713 -145.391028 
L 838.249367 -146.547338 
L 840.89602 -145.568304 
L 843.542673 -145.691154 
L 843.542673 -372.460615 
L 843.542673 -372.460615 
L 840.89602 -372.601459 
L 838.249367 -371.980429 
L 835.602713 -372.617455 
L 832.95606 -372.805455 
L 830.309407 -372.332862 
L 827.662753 -372.656517 
L 825.0161 -372.591224 
L 822.369447 -372.008231 
L 819.722793 -371.920634 
L 817.07614 -371.882739 
L 814.429487 -371.552301 
L 811.782833 -371.337641 
L 809.13618 -370.758124 
L 806.489527 -370.450108 
L 803.842873 -371.32155 
L 801.19622 -371.045621 
L 798.549567 -371.589458 
L 795.902913 -372.336408 
L 793.25626 -372.115941 
L 790.609607 -372.673393 
L 787.962953 -372.575942 
L 785.3163 -371.785907 
L 782.669647 -371.697501 
L 780.022993 -371.496005 
L 777.37634 -372.024274 
L 774.729687 -371.722447 
L 772.083033 -371.485223 
L 769.43638 -371.813138 
L 766.789727 -371.617308 
L 764.143073 -371.578627 
L 761.49642 -371.381606 
L 758.849767 -371.55887 
L 756.203113 -372.325816 
L 753.55646 -372.332576 
L 750.909807 -372.499105 
L 748.263153 -372.173617 
L 745.6165 -371.407314 
L 742.969847 -371.527045 
L 740.323193 -370.681667 
L 737.67654 -371.357565 
L 735.029887 -371.655131 
L 732.383233 -372.242004 
L 729.73658 -371.840036 
L 727.089927 -372.592128 
L 724.443273 -371.748155 
L 721.79662 -370.949289 
L 719.149967 -371.06326 
L 716.503313 -371.06683 
L 713.85666 -371.824611 
L 711.210007 -372.231459 
L 708.563353 -372.027083 
L 705.9167 -372.037438 
L 703.270047 -372.174569 
L 700.623393 -371.616951 
L 697.97674 -372.045317 
L 695.330087 -371.735682 
L 692.683433 -372.120155 
L 690.03678 -372.057932 
L 687.390127 -371.129695 
L 684.743473 -370.795828 
L 682.09682 -369.869281 
L 679.450167 -370.323426 
L 676.803513 -370.076823 
L 674.15686 -369.951331 
L 671.510207 -369.920958 
L 668.863553 -369.33925 
L 666.2169 -369.922981 
L 663.570247 -369.367386 
L 660.923593 -369.124258 
L 658.27694 -370.06066 
L 655.630287 -370.078394 
L 652.983633 -369.998176 
L 650.33698 -369.750907 
L 647.690327 -370.145853 
L 645.043673 -370.264251 
L 642.39702 -369.919696 
L 639.750367 -370.582217 
L 637.103713 -370.447775 
L 634.45706 -369.578427 
L 631.810407 -369.594518 
L 629.163753 -369.822626 
L 626.5171 -369.630128 
L 623.870447 -370.045497 
L 621.223793 -370.23264 
L 618.57714 -370.239376 
L 615.930487 -369.98368 
L 613.283833 -370.160135 
L 610.63718 -370.015743 
L 607.990527 -370.124787 
L 605.343873 -370.943457 
L 602.69722 -371.174398 
L 600.050567 -370.873237 
L 597.403913 -371.805426 
L 594.75726 -371.513358 
L 592.110607 -371.564059 
L 589.463953 -370.827106 
L 586.8173 -371.373347 
L 584.170647 -370.564602 
L 581.523993 -369.508731 
L 578.87734 -370.052496 
L 576.230687 -370.544322 
L 573.584033 -370.652008 
L 570.93738 -370.487646 
L 568.290727 -370.95693 
L 565.644073 -370.374413 
L 562.99742 -370.328258 
L 560.350767 -369.615489 
L 557.704113 -369.79461 
L 555.05746 -369.597803 
L 552.410807 -369.80663 
L 549.764153 -369.752049 
L 547.1175 -369.714297 
L 544.470847 -369.2592 
L 541.824193 -369.475168 
L 539.17754 -369.958996 
L 536.530887 -369.666357 
L 533.884233 -369.80763 
L 531.23758 -370.064278 
L 528.590927 -369.878778 
L 525.944273 -370.434207 
L 523.29762 -370.377484 
L 520.650967 -370.296504 
L 518.004313 -370.380102 
L 515.35766 -370.48348 
L 512.711007 -370.26049 
L 510.064353 -369.950712 
L 507.4177 -370.197863 
L 504.771047 -370.449346 
L 502.124393 -370.352538 
L 499.47774 -370.851576 
L 496.831087 -370.803112 
L 494.184433 -370.793448 
L 491.53778 -370.251254 
L 488.891127 -370.173393 
L 486.244473 -370.084154 
L 483.59782 -368.402063 
L 480.951167 -368.594656 
L 478.304513 -368.080193 
L 475.65786 -367.565421 
L 473.011207 -368.16848 
L 470.364553 -367.525669 
L 467.7179 -367.166071 
L 465.071247 -367.441572 
L 462.424593 -368.441553 
L 459.77794 -367.911903 
L 457.131287 -368.932903 
L 454.484633 -368.211993 
L 451.83798 -368.491278 
L 449.191327 -368.005236 
L 446.544673 -367.767369 
L 443.89802 -368.461238 
L 441.251367 -368.722123 
L 438.604713 -367.601031 
L 435.95806 -367.590557 
L 433.311407 -368.015448 
L 430.664753 -368.279547 
L 428.0181 -367.988003 
L 425.371447 -366.750963 
L 422.724793 -367.377064 
L 420.07814 -367.159692 
L 417.431487 -367.064835 
L 414.784833 -367.581226 
L 412.13818 -367.125867 
L 409.491527 -366.724708 
L 406.844873 -366.821993 
L 404.19822 -367.140911 
L 401.551567 -368.165885 
L 398.904913 -368.08305 
L 396.25826 -367.480205 
L 393.611607 -368.442314 
L 390.964953 -368.013425 
L 388.3183 -367.26307 
L 385.671647 -367.075237 
L 383.024993 -367.640878 
L 380.37834 -366.929941 
L 377.731687 -366.251687 
L 375.085033 -366.871218 
L 372.43838 -367.267759 
L 369.791727 -366.970598 
L 367.145073 -367.299108 
L 364.49842 -366.809686 
L 361.851767 -367.516909 
L 359.205113 -367.215106 
L 356.55846 -367.946442 
L 353.911807 -367.071762 
L 351.265153 -367.014396 
L 348.6185 -366.94201 
L 345.971847 -366.477129 
L 343.325193 -367.210845 
L 340.67854 -367.072786 
L 338.031887 -367.152265 
L 335.385233 -367.573609 
L 332.73858 -368.242461 
L 330.091927 -366.863649 
L 327.445273 -367.418411 
L 324.79862 -367.707003 
L 322.151967 -366.775314 
L 319.505313 -366.61307 
L 316.85866 -365.873522 
L 314.212007 -365.730845 
L 311.565353 -366.135074 
L 308.9187 -366.376346 
L 306.272047 -367.154788 
L 303.625393 -366.485318 
L 300.97874 -365.478386 
L 298.332087 -365.450488 
L 295.685433 -366.576199 
L 293.03878 -366.199534 
L 290.392127 -365.482385 
L 287.745473 -365.707041 
L 285.09882 -365.901277 
L 282.452167 -364.771211 
L 279.805513 -365.636655 
L 277.15886 -365.314309 
L 274.512207 -365.405595 
L 271.865553 -365.682643 
L 269.2189 -365.165181 
L 266.572247 -363.692297 
L 263.925593 -364.008002 
L 261.27894 -363.605534 
L 258.632287 -363.297994 
L 255.985633 -363.048772 
L 253.33898 -363.674135 
L 250.692327 -362.711074 
L 248.045673 -363.999718 
L 245.39902 -364.052657 
L 242.752367 -363.767707 
L 240.105713 -363.890627 
L 237.45906 -362.861582 
L 234.812407 -363.710079 
L 232.165753 -362.938039 
L 229.5191 -363.86173 
L 226.872447 -363.753686 
L 224.225793 -362.791267 
L 221.57914 -362.942895 
L 218.932487 -362.015014 
L 216.285833 -361.669675 
L 213.63918 -362.218319 
L 210.992527 -361.500409 
L 208.345873 -361.691645 
L 205.69922 -361.891022 
L 203.052567 -361.388009 
L 200.405913 -361.392865 
L 197.75926 -361.553585 
L 195.112607 -361.541208 
L 192.465953 -359.986417 
L 189.8193 -360.247826 
L 187.172647 -360.913155 
L 184.525993 -361.603311 
L 181.87934 -361.570533 
L 179.232687 -361.254472 
L 176.586033 -361.138073 
L 173.93938 -361.27699 
L 171.292727 -362.059765 
L 168.646073 -359.925361 
L 165.99942 -361.202366 
L 163.352767 -360.721085 
L 160.706113 -360.483956 
L 158.05946 -360.168751 
L 155.412807 -359.101216 
L 152.766153 -358.94816 
L 150.1195 -358.925809 
L 147.472847 -359.031853 
L 144.826193 -357.981599 
L 142.17954 -357.766583 
L 139.532887 -356.166827 
L 136.886233 -354.896844 
L 134.23958 -355.758337 
L 131.592927 -354.981108 
L 128.946273 -354.694206 
L 126.29962 -354.945641 
L 123.652967 -355.371889 
L 121.006313 -354.32204 
L 118.35966 -354.263936 
L 115.713007 -353.65533 
L 113.066353 -353.96287 
L 110.4197 -352.998452 
L 107.773047 -352.67394 
L 105.126393 -352.176996 
L 102.47974 -351.979285 
L 99.833087 -351.731015 
L 97.186433 -350.471101 
L 94.53978 -350.122334 
L 91.893127 -347.824163 
L 89.246473 -346.56144 
L 86.59982 -346.074327 
L 83.953167 -346.843272 
L 81.306513 -346.400672 
L 78.65986 -345.304906 
L 76.013207 -344.830504 
L 73.366553 -342.059692 
L 70.7199 -339.172054 
L 68.073247 -338.035203 
L 65.426593 -338.603676 
L 62.77994 -337.547471 
L 60.133287 -336.760007 
L 57.486633 -335.034808 
L 54.83998 -331.875454 
L 52.193327 -332.236742 
z
" style="stroke: #0000ff; stroke-opacity: 0.2"/>
    </defs>
    <g clip-path="url(#p9bb97c6259)">
     <use xlink:href="#m5affcab3b8" x="0" y="432" style="fill: #0000ff; fill-opacity: 0.2; stroke: #0000ff; stroke-opacity: 0.2"/>
    </g>
   </g>
   <g id="matplotlib.axis_1">
    <g id="xtick_1">
     <g id="line2d_1">
      <defs>
       <path id="md52163f6ca" d="M 0 0 
L 0 3.5 
" style="stroke: #000000; stroke-width: 0.8"/>
      </defs>
      <g>
       <use xlink:href="#md52163f6ca" x="181.87934" y="390.04" style="stroke: #000000; stroke-width: 0.8"/>
      </g>
     </g>
     <g id="text_1">
      <!-- 50 -->
      <g transform="translate(175.51684 404.638438) scale(0.1 -0.1)">
       <defs>
        <path id="DejaVuSans-35" d="M 691 4666 
L 3169 4666 
L 3169 4134 
L 1269 4134 
L 1269 2991 
Q 1406 3038 1543 3061 
Q 1681 3084 1819 3084 
Q 2600 3084 3056 2656 
Q 3513 2228 3513 1497 
Q 3513 744 3044 326 
Q 2575 -91 1722 -91 
Q 1428 -91 1123 -41 
Q 819 9 494 109 
L 494 744 
Q 775 591 1075 516 
Q 1375 441 1709 441 
Q 2250 441 2565 725 
Q 2881 1009 2881 1497 
Q 2881 1984 2565 2268 
Q 2250 2553 1709 2553 
Q 1456 2553 1204 2497 
Q 953 2441 691 2322 
L 691 4666 
z
" transform="scale(0.015625)"/>
        <path id="DejaVuSans-30" d="M 2034 4250 
Q 1547 4250 1301 3770 
Q 1056 3291 1056 2328 
Q 1056 1369 1301 889 
Q 1547 409 2034 409 
Q 2525 409 2770 889 
Q 3016 1369 3016 2328 
Q 3016 3291 2770 3770 
Q 2525 4250 2034 4250 
z
M 2034 4750 
Q 2819 4750 3233 4129 
Q 3647 3509 3647 2328 
Q 3647 1150 3233 529 
Q 2819 -91 2034 -91 
Q 1250 -91 836 529 
Q 422 1150 422 2328 
Q 422 3509 836 4129 
Q 1250 4750 2034 4750 
z
" transform="scale(0.015625)"/>
       </defs>
       <use xlink:href="#DejaVuSans-35"/>
       <use xlink:href="#DejaVuSans-30" transform="translate(63.623047 0)"/>
      </g>
     </g>
    </g>
    <g id="xtick_2">
     <g id="line2d_2">
      <g>
       <use xlink:href="#md52163f6ca" x="314.212007" y="390.04" style="stroke: #000000; stroke-width: 0.8"/>
      </g>
     </g>
     <g id="text_2">
      <!-- 100 -->
      <g transform="translate(304.668257 404.638438) scale(0.1 -0.1)">
       <defs>
        <path id="DejaVuSans-31" d="M 794 531 
L 1825 531 
L 1825 4091 
L 703 3866 
L 703 4441 
L 1819 4666 
L 2450 4666 
L 2450 531 
L 3481 531 
L 3481 0 
L 794 0 
L 794 531 
z
" transform="scale(0.015625)"/>
       </defs>
       <use xlink:href="#DejaVuSans-31"/>
       <use xlink:href="#DejaVuSans-30" transform="translate(63.623047 0)"/>
       <use xlink:href="#DejaVuSans-30" transform="translate(127.246094 0)"/>
      </g>
     </g>
    </g>
    <g id="xtick_3">
     <g id="line2d_3">
      <g>
       <use xlink:href="#md52163f6ca" x="446.544673" y="390.04" style="stroke: #000000; stroke-width: 0.8"/>
      </g>
     </g>
     <g id="text_3">
      <!-- 150 -->
      <g transform="translate(437.000923 404.638438) scale(0.1 -0.1)">
       <use xlink:href="#DejaVuSans-31"/>
       <use xlink:href="#DejaVuSans-35" transform="translate(63.623047 0)"/>
       <use xlink:href="#DejaVuSans-30" transform="translate(127.246094 0)"/>
      </g>
     </g>
    </g>
    <g id="xtick_4">
     <g id="line2d_4">
      <g>
       <use xlink:href="#md52163f6ca" x="578.87734" y="390.04" style="stroke: #000000; stroke-width: 0.8"/>
      </g>
     </g>
     <g id="text_4">
      <!-- 200 -->
      <g transform="translate(569.33359 404.638438) scale(0.1 -0.1)">
       <defs>
        <path id="DejaVuSans-32" d="M 1228 531 
L 3431 531 
L 3431 0 
L 469 0 
L 469 531 
Q 828 903 1448 1529 
Q 2069 2156 2228 2338 
Q 2531 2678 2651 2914 
Q 2772 3150 2772 3378 
Q 2772 3750 2511 3984 
Q 2250 4219 1831 4219 
Q 1534 4219 1204 4116 
Q 875 4013 500 3803 
L 500 4441 
Q 881 4594 1212 4672 
Q 1544 4750 1819 4750 
Q 2544 4750 2975 4387 
Q 3406 4025 3406 3419 
Q 3406 3131 3298 2873 
Q 3191 2616 2906 2266 
Q 2828 2175 2409 1742 
Q 1991 1309 1228 531 
z
" transform="scale(0.015625)"/>
       </defs>
       <use xlink:href="#DejaVuSans-32"/>
       <use xlink:href="#DejaVuSans-30" transform="translate(63.623047 0)"/>
       <use xlink:href="#DejaVuSans-30" transform="translate(127.246094 0)"/>
      </g>
     </g>
    </g>
    <g id="xtick_5">
     <g id="line2d_5">
      <g>
       <use xlink:href="#md52163f6ca" x="711.210007" y="390.04" style="stroke: #000000; stroke-width: 0.8"/>
      </g>
     </g>
     <g id="text_5">
      <!-- 250 -->
      <g transform="translate(701.666257 404.638438) scale(0.1 -0.1)">
       <use xlink:href="#DejaVuSans-32"/>
       <use xlink:href="#DejaVuSans-35" transform="translate(63.623047 0)"/>
       <use xlink:href="#DejaVuSans-30" transform="translate(127.246094 0)"/>
      </g>
     </g>
    </g>
    <g id="xtick_6">
     <g id="line2d_6">
      <g>
       <use xlink:href="#md52163f6ca" x="843.542673" y="390.04" style="stroke: #000000; stroke-width: 0.8"/>
      </g>
     </g>
     <g id="text_6">
      <!-- 300 -->
      <g transform="translate(833.998923 404.638438) scale(0.1 -0.1)">
       <defs>
        <path id="DejaVuSans-33" d="M 2597 2516 
Q 3050 2419 3304 2112 
Q 3559 1806 3559 1356 
Q 3559 666 3084 287 
Q 2609 -91 1734 -91 
Q 1441 -91 1130 -33 
Q 819 25 488 141 
L 488 750 
Q 750 597 1062 519 
Q 1375 441 1716 441 
Q 2309 441 2620 675 
Q 2931 909 2931 1356 
Q 2931 1769 2642 2001 
Q 2353 2234 1838 2234 
L 1294 2234 
L 1294 2753 
L 1863 2753 
Q 2328 2753 2575 2939 
Q 2822 3125 2822 3475 
Q 2822 3834 2567 4026 
Q 2313 4219 1838 4219 
Q 1578 4219 1281 4162 
Q 984 4106 628 3988 
L 628 4550 
Q 988 4650 1302 4700 
Q 1616 4750 1894 4750 
Q 2613 4750 3031 4423 
Q 3450 4097 3450 3541 
Q 3450 3153 3228 2886 
Q 3006 2619 2597 2516 
z
" transform="scale(0.015625)"/>
       </defs>
       <use xlink:href="#DejaVuSans-33"/>
       <use xlink:href="#DejaVuSans-30" transform="translate(63.623047 0)"/>
       <use xlink:href="#DejaVuSans-30" transform="translate(127.246094 0)"/>
      </g>
     </g>
    </g>
    <g id="text_7">
     <!-- Step -->
     <g transform="translate(436.482844 418.316562) scale(0.1 -0.1)">
      <defs>
       <path id="DejaVuSans-53" d="M 3425 4513 
L 3425 3897 
Q 3066 4069 2747 4153 
Q 2428 4238 2131 4238 
Q 1616 4238 1336 4038 
Q 1056 3838 1056 3469 
Q 1056 3159 1242 3001 
Q 1428 2844 1947 2747 
L 2328 2669 
Q 3034 2534 3370 2195 
Q 3706 1856 3706 1288 
Q 3706 609 3251 259 
Q 2797 -91 1919 -91 
Q 1588 -91 1214 -16 
Q 841 59 441 206 
L 441 856 
Q 825 641 1194 531 
Q 1563 422 1919 422 
Q 2459 422 2753 634 
Q 3047 847 3047 1241 
Q 3047 1584 2836 1778 
Q 2625 1972 2144 2069 
L 1759 2144 
Q 1053 2284 737 2584 
Q 422 2884 422 3419 
Q 422 4038 858 4394 
Q 1294 4750 2059 4750 
Q 2388 4750 2728 4690 
Q 3069 4631 3425 4513 
z
" transform="scale(0.015625)"/>
       <path id="DejaVuSans-74" d="M 1172 4494 
L 1172 3500 
L 2356 3500 
L 2356 3053 
L 1172 3053 
L 1172 1153 
Q 1172 725 1289 603 
Q 1406 481 1766 481 
L 2356 481 
L 2356 0 
L 1766 0 
Q 1100 0 847 248 
Q 594 497 594 1153 
L 594 3053 
L 172 3053 
L 172 3500 
L 594 3500 
L 594 4494 
L 1172 4494 
z
" transform="scale(0.015625)"/>
       <path id="DejaVuSans-65" d="M 3597 1894 
L 3597 1613 
L 953 1613 
Q 991 1019 1311 708 
Q 1631 397 2203 397 
Q 2534 397 2845 478 
Q 3156 559 3463 722 
L 3463 178 
Q 3153 47 2828 -22 
Q 2503 -91 2169 -91 
Q 1331 -91 842 396 
Q 353 884 353 1716 
Q 353 2575 817 3079 
Q 1281 3584 2069 3584 
Q 2775 3584 3186 3129 
Q 3597 2675 3597 1894 
z
M 3022 2063 
Q 3016 2534 2758 2815 
Q 2500 3097 2075 3097 
Q 1594 3097 1305 2825 
Q 1016 2553 972 2059 
L 3022 2063 
z
" transform="scale(0.015625)"/>
       <path id="DejaVuSans-70" d="M 1159 525 
L 1159 -1331 
L 581 -1331 
L 581 3500 
L 1159 3500 
L 1159 2969 
Q 1341 3281 1617 3432 
Q 1894 3584 2278 3584 
Q 2916 3584 3314 3078 
Q 3713 2572 3713 1747 
Q 3713 922 3314 415 
Q 2916 -91 2278 -91 
Q 1894 -91 1617 61 
Q 1341 213 1159 525 
z
M 3116 1747 
Q 3116 2381 2855 2742 
Q 2594 3103 2138 3103 
Q 1681 3103 1420 2742 
Q 1159 2381 1159 1747 
Q 1159 1113 1420 752 
Q 1681 391 2138 391 
Q 2594 391 2855 752 
Q 3116 1113 3116 1747 
z
" transform="scale(0.015625)"/>
      </defs>
      <use xlink:href="#DejaVuSans-53"/>
      <use xlink:href="#DejaVuSans-74" transform="translate(63.476562 0)"/>
      <use xlink:href="#DejaVuSans-65" transform="translate(102.685547 0)"/>
      <use xlink:href="#DejaVuSans-70" transform="translate(164.208984 0)"/>
     </g>
    </g>
   </g>
   <g id="matplotlib.axis_2">
    <g id="ytick_1">
     <g id="line2d_7">
      <defs>
       <path id="m61246854cf" d="M 0 0 
L -3.5 0 
" style="stroke: #000000; stroke-width: 0.8"/>
      </defs>
      <g>
       <use xlink:href="#m61246854cf" x="50.87" y="353.29641" style="stroke: #000000; stroke-width: 0.8"/>
      </g>
     </g>
     <g id="text_8">
      <!-- 20 -->
      <g transform="translate(31.145 357.095629) scale(0.1 -0.1)">
       <use xlink:href="#DejaVuSans-32"/>
       <use xlink:href="#DejaVuSans-30" transform="translate(63.623047 0)"/>
      </g>
     </g>
    </g>
    <g id="ytick_2">
     <g id="line2d_8">
      <g>
       <use xlink:href="#m61246854cf" x="50.87" y="290.897214" style="stroke: #000000; stroke-width: 0.8"/>
      </g>
     </g>
     <g id="text_9">
      <!-- 40 -->
      <g transform="translate(31.145 294.696433) scale(0.1 -0.1)">
       <defs>
        <path id="DejaVuSans-34" d="M 2419 4116 
L 825 1625 
L 2419 1625 
L 2419 4116 
z
M 2253 4666 
L 3047 4666 
L 3047 1625 
L 3713 1625 
L 3713 1100 
L 3047 1100 
L 3047 0 
L 2419 0 
L 2419 1100 
L 313 1100 
L 313 1709 
L 2253 4666 
z
" transform="scale(0.015625)"/>
       </defs>
       <use xlink:href="#DejaVuSans-34"/>
       <use xlink:href="#DejaVuSans-30" transform="translate(63.623047 0)"/>
      </g>
     </g>
    </g>
    <g id="ytick_3">
     <g id="line2d_9">
      <g>
       <use xlink:href="#m61246854cf" x="50.87" y="228.498019" style="stroke: #000000; stroke-width: 0.8"/>
      </g>
     </g>
     <g id="text_10">
      <!-- 60 -->
      <g transform="translate(31.145 232.297238) scale(0.1 -0.1)">
       <defs>
        <path id="DejaVuSans-36" d="M 2113 2584 
Q 1688 2584 1439 2293 
Q 1191 2003 1191 1497 
Q 1191 994 1439 701 
Q 1688 409 2113 409 
Q 2538 409 2786 701 
Q 3034 994 3034 1497 
Q 3034 2003 2786 2293 
Q 2538 2584 2113 2584 
z
M 3366 4563 
L 3366 3988 
Q 3128 4100 2886 4159 
Q 2644 4219 2406 4219 
Q 1781 4219 1451 3797 
Q 1122 3375 1075 2522 
Q 1259 2794 1537 2939 
Q 1816 3084 2150 3084 
Q 2853 3084 3261 2657 
Q 3669 2231 3669 1497 
Q 3669 778 3244 343 
Q 2819 -91 2113 -91 
Q 1303 -91 875 529 
Q 447 1150 447 2328 
Q 447 3434 972 4092 
Q 1497 4750 2381 4750 
Q 2619 4750 2861 4703 
Q 3103 4656 3366 4563 
z
" transform="scale(0.015625)"/>
       </defs>
       <use xlink:href="#DejaVuSans-36"/>
       <use xlink:href="#DejaVuSans-30" transform="translate(63.623047 0)"/>
      </g>
     </g>
    </g>
    <g id="ytick_4">
     <g id="line2d_10">
      <g>
       <use xlink:href="#m61246854cf" x="50.87" y="166.098823" style="stroke: #000000; stroke-width: 0.8"/>
      </g>
     </g>
     <g id="text_11">
      <!-- 80 -->
      <g transform="translate(31.145 169.898042) scale(0.1 -0.1)">
       <defs>
        <path id="DejaVuSans-38" d="M 2034 2216 
Q 1584 2216 1326 1975 
Q 1069 1734 1069 1313 
Q 1069 891 1326 650 
Q 1584 409 2034 409 
Q 2484 409 2743 651 
Q 3003 894 3003 1313 
Q 3003 1734 2745 1975 
Q 2488 2216 2034 2216 
z
M 1403 2484 
Q 997 2584 770 2862 
Q 544 3141 544 3541 
Q 544 4100 942 4425 
Q 1341 4750 2034 4750 
Q 2731 4750 3128 4425 
Q 3525 4100 3525 3541 
Q 3525 3141 3298 2862 
Q 3072 2584 2669 2484 
Q 3125 2378 3379 2068 
Q 3634 1759 3634 1313 
Q 3634 634 3220 271 
Q 2806 -91 2034 -91 
Q 1263 -91 848 271 
Q 434 634 434 1313 
Q 434 1759 690 2068 
Q 947 2378 1403 2484 
z
M 1172 3481 
Q 1172 3119 1398 2916 
Q 1625 2713 2034 2713 
Q 2441 2713 2670 2916 
Q 2900 3119 2900 3481 
Q 2900 3844 2670 4047 
Q 2441 4250 2034 4250 
Q 1625 4250 1398 4047 
Q 1172 3844 1172 3481 
z
" transform="scale(0.015625)"/>
       </defs>
       <use xlink:href="#DejaVuSans-38"/>
       <use xlink:href="#DejaVuSans-30" transform="translate(63.623047 0)"/>
      </g>
     </g>
    </g>
    <g id="ytick_5">
     <g id="line2d_11">
      <g>
       <use xlink:href="#m61246854cf" x="50.87" y="103.699627" style="stroke: #000000; stroke-width: 0.8"/>
      </g>
     </g>
     <g id="text_12">
      <!-- 100 -->
      <g transform="translate(24.7825 107.498846) scale(0.1 -0.1)">
       <use xlink:href="#DejaVuSans-31"/>
       <use xlink:href="#DejaVuSans-30" transform="translate(63.623047 0)"/>
       <use xlink:href="#DejaVuSans-30" transform="translate(127.246094 0)"/>
      </g>
     </g>
    </g>
    <g id="text_13">
     <!-- Profit -->
     <g transform="translate(18.702813 229.779063) rotate(-90) scale(0.1 -0.1)">
      <defs>
       <path id="DejaVuSans-50" d="M 1259 4147 
L 1259 2394 
L 2053 2394 
Q 2494 2394 2734 2622 
Q 2975 2850 2975 3272 
Q 2975 3691 2734 3919 
Q 2494 4147 2053 4147 
L 1259 4147 
z
M 628 4666 
L 2053 4666 
Q 2838 4666 3239 4311 
Q 3641 3956 3641 3272 
Q 3641 2581 3239 2228 
Q 2838 1875 2053 1875 
L 1259 1875 
L 1259 0 
L 628 0 
L 628 4666 
z
" transform="scale(0.015625)"/>
       <path id="DejaVuSans-72" d="M 2631 2963 
Q 2534 3019 2420 3045 
Q 2306 3072 2169 3072 
Q 1681 3072 1420 2755 
Q 1159 2438 1159 1844 
L 1159 0 
L 581 0 
L 581 3500 
L 1159 3500 
L 1159 2956 
Q 1341 3275 1631 3429 
Q 1922 3584 2338 3584 
Q 2397 3584 2469 3576 
Q 2541 3569 2628 3553 
L 2631 2963 
z
" transform="scale(0.015625)"/>
       <path id="DejaVuSans-6f" d="M 1959 3097 
Q 1497 3097 1228 2736 
Q 959 2375 959 1747 
Q 959 1119 1226 758 
Q 1494 397 1959 397 
Q 2419 397 2687 759 
Q 2956 1122 2956 1747 
Q 2956 2369 2687 2733 
Q 2419 3097 1959 3097 
z
M 1959 3584 
Q 2709 3584 3137 3096 
Q 3566 2609 3566 1747 
Q 3566 888 3137 398 
Q 2709 -91 1959 -91 
Q 1206 -91 779 398 
Q 353 888 353 1747 
Q 353 2609 779 3096 
Q 1206 3584 1959 3584 
z
" transform="scale(0.015625)"/>
       <path id="DejaVuSans-66" d="M 2375 4863 
L 2375 4384 
L 1825 4384 
Q 1516 4384 1395 4259 
Q 1275 4134 1275 3809 
L 1275 3500 
L 2222 3500 
L 2222 3053 
L 1275 3053 
L 1275 0 
L 697 0 
L 697 3053 
L 147 3053 
L 147 3500 
L 697 3500 
L 697 3744 
Q 697 4328 969 4595 
Q 1241 4863 1831 4863 
L 2375 4863 
z
" transform="scale(0.015625)"/>
       <path id="DejaVuSans-69" d="M 603 3500 
L 1178 3500 
L 1178 0 
L 603 0 
L 603 3500 
z
M 603 4863 
L 1178 4863 
L 1178 4134 
L 603 4134 
L 603 4863 
z
" transform="scale(0.015625)"/>
      </defs>
      <use xlink:href="#DejaVuSans-50"/>
      <use xlink:href="#DejaVuSans-72" transform="translate(58.552734 0)"/>
      <use xlink:href="#DejaVuSans-6f" transform="translate(97.416016 0)"/>
      <use xlink:href="#DejaVuSans-66" transform="translate(158.597656 0)"/>
      <use xlink:href="#DejaVuSans-69" transform="translate(193.802734 0)"/>
      <use xlink:href="#DejaVuSans-74" transform="translate(221.585938 0)"/>
     </g>
    </g>
   </g>
   <g id="line2d_12">
    <path d="M 52.193327 237.024362 
L 54.83998 236.624465 
L 57.486633 233.950641 
L 65.426593 226.592187 
L 70.7199 222.401074 
L 73.366553 220.567391 
L 76.013207 218.214686 
L 78.65986 216.683009 
L 81.306513 215.48565 
L 83.953167 214.427232 
L 86.59982 212.810504 
L 89.246473 211.597697 
L 91.893127 210.15245 
L 94.53978 209.294694 
L 97.186433 207.736952 
L 99.833087 207.275642 
L 102.47974 206.227744 
L 105.126393 204.983802 
L 107.773047 204.553675 
L 113.066353 203.096549 
L 115.713007 202.471091 
L 118.35966 201.460779 
L 123.652967 200.08261 
L 126.29962 199.716395 
L 131.592927 198.617986 
L 134.23958 198.545148 
L 136.886233 198.349817 
L 139.532887 197.824619 
L 142.17954 197.42972 
L 144.826193 196.911758 
L 147.472847 196.05286 
L 150.1195 195.719827 
L 155.412807 194.492595 
L 158.05946 194.208477 
L 163.352767 193.882656 
L 165.99942 193.94107 
L 173.93938 192.807385 
L 176.586033 192.314797 
L 181.87934 191.656014 
L 184.525993 192.01209 
L 187.172647 191.614668 
L 189.8193 191.436904 
L 192.465953 191.112273 
L 195.112607 190.903232 
L 197.75926 190.426783 
L 200.405913 190.308289 
L 203.052567 190.041072 
L 205.69922 189.930006 
L 208.345873 189.546461 
L 210.992527 189.4517 
L 213.63918 189.165393 
L 216.285833 188.655167 
L 232.165753 188.270694 
L 234.812407 187.782344 
L 237.45906 188.064152 
L 240.105713 187.999716 
L 242.752367 187.262358 
L 245.39902 186.67996 
L 248.045673 186.593411 
L 250.692327 185.989471 
L 253.33898 185.810779 
L 255.985633 185.958622 
L 258.632287 185.698594 
L 261.27894 185.800329 
L 269.2189 185.510999 
L 271.865553 185.601214 
L 274.512207 185.115767 
L 277.15886 185.110007 
L 279.805513 184.639604 
L 282.452167 184.632273 
L 285.09882 184.462507 
L 290.392127 184.705182 
L 293.03878 184.480359 
L 295.685433 184.433157 
L 298.332087 183.851188 
L 300.97874 183.783229 
L 303.625393 183.53922 
L 308.9187 183.43201 
L 311.565353 183.192571 
L 314.212007 183.22511 
L 316.85866 182.956037 
L 319.505313 182.858752 
L 322.151967 182.898004 
L 324.79862 182.817691 
L 327.445273 182.932828 
L 330.091927 183.284214 
L 338.031887 183.482187 
L 340.67854 183.058701 
L 343.325193 183.264838 
L 348.6185 183.028304 
L 351.265153 182.71767 
L 356.55846 182.286661 
L 359.205113 181.86527 
L 361.851767 181.820234 
L 364.49842 181.544709 
L 367.145073 181.486081 
L 369.791727 181.635138 
L 372.43838 181.382322 
L 375.085033 181.821186 
L 377.731687 181.776197 
L 380.37834 181.132339 
L 383.024993 181.253022 
L 385.671647 180.882427 
L 388.3183 180.846032 
L 390.964953 180.604879 
L 393.611607 180.534636 
L 396.25826 180.233784 
L 398.904913 180.104389 
L 412.13818 180.369273 
L 414.784833 179.947168 
L 417.431487 179.810536 
L 422.724793 179.938551 
L 425.371447 180.208529 
L 428.0181 180.31343 
L 430.664753 180.282248 
L 433.311407 179.975993 
L 438.604713 179.767214 
L 441.251367 179.998273 
L 443.89802 180.091035 
L 446.544673 179.735389 
L 449.191327 179.722178 
L 451.83798 179.428349 
L 454.484633 179.299882 
L 457.131287 179.298858 
L 459.77794 179.021929 
L 462.424593 179.008504 
L 465.071247 178.880061 
L 467.7179 178.500968 
L 470.364553 178.663569 
L 475.65786 178.506014 
L 478.304513 178.775445 
L 480.951167 178.543838 
L 483.59782 178.015902 
L 486.244473 177.84885 
L 488.891127 178.185359 
L 491.53778 178.334915 
L 494.184433 178.601918 
L 499.47774 178.026471 
L 502.124393 178.129968 
L 515.35766 177.719931 
L 518.004313 177.583989 
L 520.650967 177.823356 
L 523.29762 177.784628 
L 525.944273 178.041824 
L 528.590927 177.850397 
L 533.884233 177.937089 
L 536.530887 177.455737 
L 539.17754 177.255169 
L 541.824193 177.249599 
L 544.470847 177.473399 
L 547.1175 177.180046 
L 549.764153 177.402512 
L 562.99742 176.904735 
L 565.644073 176.668272 
L 573.584033 176.552493 
L 576.230687 176.834492 
L 578.87734 176.454494 
L 584.170647 176.491984 
L 586.8173 176.208486 
L 589.463953 176.212271 
L 592.110607 175.776573 
L 600.050567 176.252784 
L 605.343873 176.397342 
L 607.990527 176.185468 
L 610.63718 176.13241 
L 613.283833 176.311317 
L 615.930487 176.191181 
L 618.57714 175.799781 
L 621.223793 175.627111 
L 623.870447 175.738464 
L 626.5171 175.491194 
L 629.163753 175.554678 
L 631.810407 176.025557 
L 634.45706 175.902945 
L 637.103713 175.490789 
L 639.750367 175.272155 
L 642.39702 175.237283 
L 645.043673 175.088369 
L 652.983633 175.162374 
L 655.630287 175.108102 
L 658.27694 175.178774 
L 666.2169 174.997511 
L 668.863553 175.138808 
L 671.510207 174.982372 
L 674.15686 175.287056 
L 684.743473 174.446867 
L 687.390127 174.557339 
L 703.270047 174.533583 
L 711.210007 174.032355 
L 724.443273 174.03802 
L 727.089927 173.83481 
L 729.73658 174.053135 
L 737.67654 174.277982 
L 742.969847 173.930905 
L 745.6165 173.886178 
L 750.909807 173.395733 
L 753.55646 173.407087 
L 761.49642 173.100594 
L 766.789727 173.273288 
L 769.43638 173.13023 
L 772.083033 173.145083 
L 774.729687 172.994217 
L 777.37634 173.648668 
L 780.022993 173.674447 
L 782.669647 173.160888 
L 787.962953 173.272074 
L 793.25626 172.998073 
L 798.549567 173.451314 
L 803.842873 173.20671 
L 806.489527 173.611725 
L 814.429487 173.906292 
L 819.722793 173.317991 
L 822.369447 173.261553 
L 825.0161 173.044204 
L 827.662753 173.142679 
L 832.95606 172.846683 
L 835.602713 172.995764 
L 838.249367 172.736117 
L 840.89602 172.915118 
L 843.542673 172.924116 
L 843.542673 172.924116 
" clip-path="url(#p9bb97c6259)" style="fill: none; stroke: #0000ff; stroke-width: 1.5; stroke-linecap: square"/>
   </g>
   <g id="patch_3">
    <path d="M 50.87 390.04 
L 50.87 43.44 
" style="fill: none; stroke: #000000; stroke-width: 0.8; stroke-linejoin: miter; stroke-linecap: square"/>
   </g>
   <g id="patch_4">
    <path d="M 844.866 390.04 
L 844.866 43.44 
" style="fill: none; stroke: #000000; stroke-width: 0.8; stroke-linejoin: miter; stroke-linecap: square"/>
   </g>
   <g id="patch_5">
    <path d="M 50.87 390.04 
L 844.866 390.04 
" style="fill: none; stroke: #000000; stroke-width: 0.8; stroke-linejoin: miter; stroke-linecap: square"/>
   </g>
   <g id="patch_6">
    <path d="M 50.87 43.44 
L 844.866 43.44 
" style="fill: none; stroke: #000000; stroke-width: 0.8; stroke-linejoin: miter; stroke-linecap: square"/>
   </g>
   <g id="text_14">
    <!-- Mean profit per step with confidence interval per simulation step -->
    <g transform="translate(220.284875 21.763062) scale(0.14 -0.14)">
     <defs>
      <path id="DejaVuSans-4d" d="M 628 4666 
L 1569 4666 
L 2759 1491 
L 3956 4666 
L 4897 4666 
L 4897 0 
L 4281 0 
L 4281 4097 
L 3078 897 
L 2444 897 
L 1241 4097 
L 1241 0 
L 628 0 
L 628 4666 
z
" transform="scale(0.015625)"/>
      <path id="DejaVuSans-61" d="M 2194 1759 
Q 1497 1759 1228 1600 
Q 959 1441 959 1056 
Q 959 750 1161 570 
Q 1363 391 1709 391 
Q 2188 391 2477 730 
Q 2766 1069 2766 1631 
L 2766 1759 
L 2194 1759 
z
M 3341 1997 
L 3341 0 
L 2766 0 
L 2766 531 
Q 2569 213 2275 61 
Q 1981 -91 1556 -91 
Q 1019 -91 701 211 
Q 384 513 384 1019 
Q 384 1609 779 1909 
Q 1175 2209 1959 2209 
L 2766 2209 
L 2766 2266 
Q 2766 2663 2505 2880 
Q 2244 3097 1772 3097 
Q 1472 3097 1187 3025 
Q 903 2953 641 2809 
L 641 3341 
Q 956 3463 1253 3523 
Q 1550 3584 1831 3584 
Q 2591 3584 2966 3190 
Q 3341 2797 3341 1997 
z
" transform="scale(0.015625)"/>
      <path id="DejaVuSans-6e" d="M 3513 2113 
L 3513 0 
L 2938 0 
L 2938 2094 
Q 2938 2591 2744 2837 
Q 2550 3084 2163 3084 
Q 1697 3084 1428 2787 
Q 1159 2491 1159 1978 
L 1159 0 
L 581 0 
L 581 3500 
L 1159 3500 
L 1159 2956 
Q 1366 3272 1645 3428 
Q 1925 3584 2291 3584 
Q 2894 3584 3203 3211 
Q 3513 2838 3513 2113 
z
" transform="scale(0.015625)"/>
      <path id="DejaVuSans-20" transform="scale(0.015625)"/>
      <path id="DejaVuSans-73" d="M 2834 3397 
L 2834 2853 
Q 2591 2978 2328 3040 
Q 2066 3103 1784 3103 
Q 1356 3103 1142 2972 
Q 928 2841 928 2578 
Q 928 2378 1081 2264 
Q 1234 2150 1697 2047 
L 1894 2003 
Q 2506 1872 2764 1633 
Q 3022 1394 3022 966 
Q 3022 478 2636 193 
Q 2250 -91 1575 -91 
Q 1294 -91 989 -36 
Q 684 19 347 128 
L 347 722 
Q 666 556 975 473 
Q 1284 391 1588 391 
Q 1994 391 2212 530 
Q 2431 669 2431 922 
Q 2431 1156 2273 1281 
Q 2116 1406 1581 1522 
L 1381 1569 
Q 847 1681 609 1914 
Q 372 2147 372 2553 
Q 372 3047 722 3315 
Q 1072 3584 1716 3584 
Q 2034 3584 2315 3537 
Q 2597 3491 2834 3397 
z
" transform="scale(0.015625)"/>
      <path id="DejaVuSans-77" d="M 269 3500 
L 844 3500 
L 1563 769 
L 2278 3500 
L 2956 3500 
L 3675 769 
L 4391 3500 
L 4966 3500 
L 4050 0 
L 3372 0 
L 2619 2869 
L 1863 0 
L 1184 0 
L 269 3500 
z
" transform="scale(0.015625)"/>
      <path id="DejaVuSans-68" d="M 3513 2113 
L 3513 0 
L 2938 0 
L 2938 2094 
Q 2938 2591 2744 2837 
Q 2550 3084 2163 3084 
Q 1697 3084 1428 2787 
Q 1159 2491 1159 1978 
L 1159 0 
L 581 0 
L 581 4863 
L 1159 4863 
L 1159 2956 
Q 1366 3272 1645 3428 
Q 1925 3584 2291 3584 
Q 2894 3584 3203 3211 
Q 3513 2838 3513 2113 
z
" transform="scale(0.015625)"/>
      <path id="DejaVuSans-63" d="M 3122 3366 
L 3122 2828 
Q 2878 2963 2633 3030 
Q 2388 3097 2138 3097 
Q 1578 3097 1268 2742 
Q 959 2388 959 1747 
Q 959 1106 1268 751 
Q 1578 397 2138 397 
Q 2388 397 2633 464 
Q 2878 531 3122 666 
L 3122 134 
Q 2881 22 2623 -34 
Q 2366 -91 2075 -91 
Q 1284 -91 818 406 
Q 353 903 353 1747 
Q 353 2603 823 3093 
Q 1294 3584 2113 3584 
Q 2378 3584 2631 3529 
Q 2884 3475 3122 3366 
z
" transform="scale(0.015625)"/>
      <path id="DejaVuSans-64" d="M 2906 2969 
L 2906 4863 
L 3481 4863 
L 3481 0 
L 2906 0 
L 2906 525 
Q 2725 213 2448 61 
Q 2172 -91 1784 -91 
Q 1150 -91 751 415 
Q 353 922 353 1747 
Q 353 2572 751 3078 
Q 1150 3584 1784 3584 
Q 2172 3584 2448 3432 
Q 2725 3281 2906 2969 
z
M 947 1747 
Q 947 1113 1208 752 
Q 1469 391 1925 391 
Q 2381 391 2643 752 
Q 2906 1113 2906 1747 
Q 2906 2381 2643 2742 
Q 2381 3103 1925 3103 
Q 1469 3103 1208 2742 
Q 947 2381 947 1747 
z
" transform="scale(0.015625)"/>
      <path id="DejaVuSans-76" d="M 191 3500 
L 800 3500 
L 1894 563 
L 2988 3500 
L 3597 3500 
L 2284 0 
L 1503 0 
L 191 3500 
z
" transform="scale(0.015625)"/>
      <path id="DejaVuSans-6c" d="M 603 4863 
L 1178 4863 
L 1178 0 
L 603 0 
L 603 4863 
z
" transform="scale(0.015625)"/>
      <path id="DejaVuSans-6d" d="M 3328 2828 
Q 3544 3216 3844 3400 
Q 4144 3584 4550 3584 
Q 5097 3584 5394 3201 
Q 5691 2819 5691 2113 
L 5691 0 
L 5113 0 
L 5113 2094 
Q 5113 2597 4934 2840 
Q 4756 3084 4391 3084 
Q 3944 3084 3684 2787 
Q 3425 2491 3425 1978 
L 3425 0 
L 2847 0 
L 2847 2094 
Q 2847 2600 2669 2842 
Q 2491 3084 2119 3084 
Q 1678 3084 1418 2786 
Q 1159 2488 1159 1978 
L 1159 0 
L 581 0 
L 581 3500 
L 1159 3500 
L 1159 2956 
Q 1356 3278 1631 3431 
Q 1906 3584 2284 3584 
Q 2666 3584 2933 3390 
Q 3200 3197 3328 2828 
z
" transform="scale(0.015625)"/>
      <path id="DejaVuSans-75" d="M 544 1381 
L 544 3500 
L 1119 3500 
L 1119 1403 
Q 1119 906 1312 657 
Q 1506 409 1894 409 
Q 2359 409 2629 706 
Q 2900 1003 2900 1516 
L 2900 3500 
L 3475 3500 
L 3475 0 
L 2900 0 
L 2900 538 
Q 2691 219 2414 64 
Q 2138 -91 1772 -91 
Q 1169 -91 856 284 
Q 544 659 544 1381 
z
M 1991 3584 
L 1991 3584 
z
" transform="scale(0.015625)"/>
     </defs>
     <use xlink:href="#DejaVuSans-4d"/>
     <use xlink:href="#DejaVuSans-65" transform="translate(86.279297 0)"/>
     <use xlink:href="#DejaVuSans-61" transform="translate(147.802734 0)"/>
     <use xlink:href="#DejaVuSans-6e" transform="translate(209.082031 0)"/>
     <use xlink:href="#DejaVuSans-20" transform="translate(272.460938 0)"/>
     <use xlink:href="#DejaVuSans-70" transform="translate(304.248047 0)"/>
     <use xlink:href="#DejaVuSans-72" transform="translate(367.724609 0)"/>
     <use xlink:href="#DejaVuSans-6f" transform="translate(406.587891 0)"/>
     <use xlink:href="#DejaVuSans-66" transform="translate(467.769531 0)"/>
     <use xlink:href="#DejaVuSans-69" transform="translate(502.974609 0)"/>
     <use xlink:href="#DejaVuSans-74" transform="translate(530.757812 0)"/>
     <use xlink:href="#DejaVuSans-20" transform="translate(569.966797 0)"/>
     <use xlink:href="#DejaVuSans-70" transform="translate(601.753906 0)"/>
     <use xlink:href="#DejaVuSans-65" transform="translate(665.230469 0)"/>
     <use xlink:href="#DejaVuSans-72" transform="translate(726.753906 0)"/>
     <use xlink:href="#DejaVuSans-20" transform="translate(767.867188 0)"/>
     <use xlink:href="#DejaVuSans-73" transform="translate(799.654297 0)"/>
     <use xlink:href="#DejaVuSans-74" transform="translate(851.753906 0)"/>
     <use xlink:href="#DejaVuSans-65" transform="translate(890.962891 0)"/>
     <use xlink:href="#DejaVuSans-70" transform="translate(952.486328 0)"/>
     <use xlink:href="#DejaVuSans-20" transform="translate(1015.962891 0)"/>
     <use xlink:href="#DejaVuSans-77" transform="translate(1047.75 0)"/>
     <use xlink:href="#DejaVuSans-69" transform="translate(1129.537109 0)"/>
     <use xlink:href="#DejaVuSans-74" transform="translate(1157.320312 0)"/>
     <use xlink:href="#DejaVuSans-68" transform="translate(1196.529297 0)"/>
     <use xlink:href="#DejaVuSans-20" transform="translate(1259.908203 0)"/>
     <use xlink:href="#DejaVuSans-63" transform="translate(1291.695312 0)"/>
     <use xlink:href="#DejaVuSans-6f" transform="translate(1346.675781 0)"/>
     <use xlink:href="#DejaVuSans-6e" transform="translate(1407.857422 0)"/>
     <use xlink:href="#DejaVuSans-66" transform="translate(1471.236328 0)"/>
     <use xlink:href="#DejaVuSans-69" transform="translate(1506.441406 0)"/>
     <use xlink:href="#DejaVuSans-64" transform="translate(1534.224609 0)"/>
     <use xlink:href="#DejaVuSans-65" transform="translate(1597.701172 0)"/>
     <use xlink:href="#DejaVuSans-6e" transform="translate(1659.224609 0)"/>
     <use xlink:href="#DejaVuSans-63" transform="translate(1722.603516 0)"/>
     <use xlink:href="#DejaVuSans-65" transform="translate(1777.583984 0)"/>
     <use xlink:href="#DejaVuSans-20" transform="translate(1839.107422 0)"/>
     <use xlink:href="#DejaVuSans-69" transform="translate(1870.894531 0)"/>
     <use xlink:href="#DejaVuSans-6e" transform="translate(1898.677734 0)"/>
     <use xlink:href="#DejaVuSans-74" transform="translate(1962.056641 0)"/>
     <use xlink:href="#DejaVuSans-65" transform="translate(2001.265625 0)"/>
     <use xlink:href="#DejaVuSans-72" transform="translate(2062.789062 0)"/>
     <use xlink:href="#DejaVuSans-76" transform="translate(2103.902344 0)"/>
     <use xlink:href="#DejaVuSans-61" transform="translate(2163.082031 0)"/>
     <use xlink:href="#DejaVuSans-6c" transform="translate(2224.361328 0)"/>
     <use xlink:href="#DejaVuSans-20" transform="translate(2252.144531 0)"/>
     <use xlink:href="#DejaVuSans-70" transform="translate(2283.931641 0)"/>
     <use xlink:href="#DejaVuSans-65" transform="translate(2347.408203 0)"/>
     <use xlink:href="#DejaVuSans-72" transform="translate(2408.931641 0)"/>
     <use xlink:href="#DejaVuSans-20" transform="translate(2450.044922 0)"/>
     <use xlink:href="#DejaVuSans-73" transform="translate(2481.832031 0)"/>
     <use xlink:href="#DejaVuSans-69" transform="translate(2533.931641 0)"/>
     <use xlink:href="#DejaVuSans-6d" transform="translate(2561.714844 0)"/>
     <use xlink:href="#DejaVuSans-75" transform="translate(2659.126953 0)"/>
     <use xlink:href="#DejaVuSans-6c" transform="translate(2722.505859 0)"/>
     <use xlink:href="#DejaVuSans-61" transform="translate(2750.289062 0)"/>
     <use xlink:href="#DejaVuSans-74" transform="translate(2811.568359 0)"/>
     <use xlink:href="#DejaVuSans-69" transform="translate(2850.777344 0)"/>
     <use xlink:href="#DejaVuSans-6f" transform="translate(2878.560547 0)"/>
     <use xlink:href="#DejaVuSans-6e" transform="translate(2939.742188 0)"/>
     <use xlink:href="#DejaVuSans-20" transform="translate(3003.121094 0)"/>
     <use xlink:href="#DejaVuSans-73" transform="translate(3034.908203 0)"/>
     <use xlink:href="#DejaVuSans-74" transform="translate(3087.007812 0)"/>
     <use xlink:href="#DejaVuSans-65" transform="translate(3126.216797 0)"/>
     <use xlink:href="#DejaVuSans-70" transform="translate(3187.740234 0)"/>
    </g>
    <!-- Base Product: Sour Diesel, Recipe size: 10, T0: 50.0 -->
    <g transform="translate(267.148781 37.44) scale(0.14 -0.14)">
     <defs>
      <path id="DejaVuSans-42" d="M 1259 2228 
L 1259 519 
L 2272 519 
Q 2781 519 3026 730 
Q 3272 941 3272 1375 
Q 3272 1813 3026 2020 
Q 2781 2228 2272 2228 
L 1259 2228 
z
M 1259 4147 
L 1259 2741 
L 2194 2741 
Q 2656 2741 2882 2914 
Q 3109 3088 3109 3444 
Q 3109 3797 2882 3972 
Q 2656 4147 2194 4147 
L 1259 4147 
z
M 628 4666 
L 2241 4666 
Q 2963 4666 3353 4366 
Q 3744 4066 3744 3513 
Q 3744 3084 3544 2831 
Q 3344 2578 2956 2516 
Q 3422 2416 3680 2098 
Q 3938 1781 3938 1306 
Q 3938 681 3513 340 
Q 3088 0 2303 0 
L 628 0 
L 628 4666 
z
" transform="scale(0.015625)"/>
      <path id="DejaVuSans-3a" d="M 750 794 
L 1409 794 
L 1409 0 
L 750 0 
L 750 794 
z
M 750 3309 
L 1409 3309 
L 1409 2516 
L 750 2516 
L 750 3309 
z
" transform="scale(0.015625)"/>
      <path id="DejaVuSans-44" d="M 1259 4147 
L 1259 519 
L 2022 519 
Q 2988 519 3436 956 
Q 3884 1394 3884 2338 
Q 3884 3275 3436 3711 
Q 2988 4147 2022 4147 
L 1259 4147 
z
M 628 4666 
L 1925 4666 
Q 3281 4666 3915 4102 
Q 4550 3538 4550 2338 
Q 4550 1131 3912 565 
Q 3275 0 1925 0 
L 628 0 
L 628 4666 
z
" transform="scale(0.015625)"/>
      <path id="DejaVuSans-2c" d="M 750 794 
L 1409 794 
L 1409 256 
L 897 -744 
L 494 -744 
L 750 256 
L 750 794 
z
" transform="scale(0.015625)"/>
      <path id="DejaVuSans-52" d="M 2841 2188 
Q 3044 2119 3236 1894 
Q 3428 1669 3622 1275 
L 4263 0 
L 3584 0 
L 2988 1197 
Q 2756 1666 2539 1819 
Q 2322 1972 1947 1972 
L 1259 1972 
L 1259 0 
L 628 0 
L 628 4666 
L 2053 4666 
Q 2853 4666 3247 4331 
Q 3641 3997 3641 3322 
Q 3641 2881 3436 2590 
Q 3231 2300 2841 2188 
z
M 1259 4147 
L 1259 2491 
L 2053 2491 
Q 2509 2491 2742 2702 
Q 2975 2913 2975 3322 
Q 2975 3731 2742 3939 
Q 2509 4147 2053 4147 
L 1259 4147 
z
" transform="scale(0.015625)"/>
      <path id="DejaVuSans-7a" d="M 353 3500 
L 3084 3500 
L 3084 2975 
L 922 459 
L 3084 459 
L 3084 0 
L 275 0 
L 275 525 
L 2438 3041 
L 353 3041 
L 353 3500 
z
" transform="scale(0.015625)"/>
      <path id="DejaVuSans-54" d="M -19 4666 
L 3928 4666 
L 3928 4134 
L 2272 4134 
L 2272 0 
L 1638 0 
L 1638 4134 
L -19 4134 
L -19 4666 
z
" transform="scale(0.015625)"/>
      <path id="DejaVuSans-2e" d="M 684 794 
L 1344 794 
L 1344 0 
L 684 0 
L 684 794 
z
" transform="scale(0.015625)"/>
     </defs>
     <use xlink:href="#DejaVuSans-42"/>
     <use xlink:href="#DejaVuSans-61" transform="translate(68.603516 0)"/>
     <use xlink:href="#DejaVuSans-73" transform="translate(129.882812 0)"/>
     <use xlink:href="#DejaVuSans-65" transform="translate(181.982422 0)"/>
     <use xlink:href="#DejaVuSans-20" transform="translate(243.505859 0)"/>
     <use xlink:href="#DejaVuSans-50" transform="translate(275.292969 0)"/>
     <use xlink:href="#DejaVuSans-72" transform="translate(333.845703 0)"/>
     <use xlink:href="#DejaVuSans-6f" transform="translate(372.708984 0)"/>
     <use xlink:href="#DejaVuSans-64" transform="translate(433.890625 0)"/>
     <use xlink:href="#DejaVuSans-75" transform="translate(497.367188 0)"/>
     <use xlink:href="#DejaVuSans-63" transform="translate(560.746094 0)"/>
     <use xlink:href="#DejaVuSans-74" transform="translate(615.726562 0)"/>
     <use xlink:href="#DejaVuSans-3a" transform="translate(654.935547 0)"/>
     <use xlink:href="#DejaVuSans-20" transform="translate(688.626953 0)"/>
     <use xlink:href="#DejaVuSans-53" transform="translate(720.414062 0)"/>
     <use xlink:href="#DejaVuSans-6f" transform="translate(783.890625 0)"/>
     <use xlink:href="#DejaVuSans-75" transform="translate(845.072266 0)"/>
     <use xlink:href="#DejaVuSans-72" transform="translate(908.451172 0)"/>
     <use xlink:href="#DejaVuSans-20" transform="translate(949.564453 0)"/>
     <use xlink:href="#DejaVuSans-44" transform="translate(981.351562 0)"/>
     <use xlink:href="#DejaVuSans-69" transform="translate(1058.353516 0)"/>
     <use xlink:href="#DejaVuSans-65" transform="translate(1086.136719 0)"/>
     <use xlink:href="#DejaVuSans-73" transform="translate(1147.660156 0)"/>
     <use xlink:href="#DejaVuSans-65" transform="translate(1199.759766 0)"/>
     <use xlink:href="#DejaVuSans-6c" transform="translate(1261.283203 0)"/>
     <use xlink:href="#DejaVuSans-2c" transform="translate(1289.066406 0)"/>
     <use xlink:href="#DejaVuSans-20" transform="translate(1320.853516 0)"/>
     <use xlink:href="#DejaVuSans-52" transform="translate(1352.640625 0)"/>
     <use xlink:href="#DejaVuSans-65" transform="translate(1417.623047 0)"/>
     <use xlink:href="#DejaVuSans-63" transform="translate(1479.146484 0)"/>
     <use xlink:href="#DejaVuSans-69" transform="translate(1534.126953 0)"/>
     <use xlink:href="#DejaVuSans-70" transform="translate(1561.910156 0)"/>
     <use xlink:href="#DejaVuSans-65" transform="translate(1625.386719 0)"/>
     <use xlink:href="#DejaVuSans-20" transform="translate(1686.910156 0)"/>
     <use xlink:href="#DejaVuSans-73" transform="translate(1718.697266 0)"/>
     <use xlink:href="#DejaVuSans-69" transform="translate(1770.796875 0)"/>
     <use xlink:href="#DejaVuSans-7a" transform="translate(1798.580078 0)"/>
     <use xlink:href="#DejaVuSans-65" transform="translate(1851.070312 0)"/>
     <use xlink:href="#DejaVuSans-3a" transform="translate(1912.59375 0)"/>
     <use xlink:href="#DejaVuSans-20" transform="translate(1946.285156 0)"/>
     <use xlink:href="#DejaVuSans-31" transform="translate(1978.072266 0)"/>
     <use xlink:href="#DejaVuSans-30" transform="translate(2041.695312 0)"/>
     <use xlink:href="#DejaVuSans-2c" transform="translate(2105.318359 0)"/>
     <use xlink:href="#DejaVuSans-20" transform="translate(2137.105469 0)"/>
     <use xlink:href="#DejaVuSans-54" transform="translate(2168.892578 0)"/>
     <use xlink:href="#DejaVuSans-30" transform="translate(2229.976562 0)"/>
     <use xlink:href="#DejaVuSans-3a" transform="translate(2293.599609 0)"/>
     <use xlink:href="#DejaVuSans-20" transform="translate(2327.291016 0)"/>
     <use xlink:href="#DejaVuSans-35" transform="translate(2359.078125 0)"/>
     <use xlink:href="#DejaVuSans-30" transform="translate(2422.701172 0)"/>
     <use xlink:href="#DejaVuSans-2e" transform="translate(2486.324219 0)"/>
     <use xlink:href="#DejaVuSans-30" transform="translate(2518.111328 0)"/>
    </g>
   </g>
  </g>
 </g>
 <defs>
  <clipPath id="p9bb97c6259">
   <rect x="50.87" y="43.44" width="793.996" height="346.6"/>
  </clipPath>
 </defs>
</svg>
