<?xml version="1.0" encoding="utf-8" standalone="no"?>
<!DOCTYPE svg PUBLIC "-//W3C//DTD SVG 1.1//EN"
  "http://www.w3.org/Graphics/SVG/1.1/DTD/svg11.dtd">
<svg xmlns:xlink="http://www.w3.org/1999/xlink" width="864pt" height="432pt" viewBox="0 0 864 432" xmlns="http://www.w3.org/2000/svg" version="1.1">
 <metadata>
  <rdf:RDF xmlns:dc="http://purl.org/dc/elements/1.1/" xmlns:cc="http://creativecommons.org/ns#" xmlns:rdf="http://www.w3.org/1999/02/22-rdf-syntax-ns#">
   <cc:Work>
    <dc:type rdf:resource="http://purl.org/dc/dcmitype/StillImage"/>
    <dc:date>2025-05-24T02:07:46.874882</dc:date>
    <dc:format>image/svg+xml</dc:format>
    <dc:creator>
     <cc:Agent>
      <dc:title>Matplotlib v3.10.3, https://matplotlib.org/</dc:title>
     </cc:Agent>
    </dc:creator>
   </cc:Work>
  </rdf:RDF>
 </metadata>
 <defs>
  <style type="text/css">*{stroke-linejoin: round; stroke-linecap: butt}</style>
 </defs>
 <g id="figure_1">
  <g id="patch_1">
   <path d="M 0 432 
L 864 432 
L 864 0 
L 0 0 
z
" style="fill: #ffffff"/>
  </g>
  <g id="axes_1">
   <g id="patch_2">
    <path d="M 50.87 390.04 
L 844.866 390.04 
L 844.866 43.44 
L 50.87 43.44 
z
" style="fill: #ffffff"/>
   </g>
   <g id="FillBetweenPolyCollection_1">
    <defs>
     <path id="mdc7529338a" d="M 52.193327 -302.88505 
L 52.193327 -57.714545 
L 54.83998 -58.771751 
L 57.486633 -73.039555 
L 60.133287 -86.42991 
L 62.77994 -98.484887 
L 65.426593 -108.183229 
L 68.073247 -116.773161 
L 70.7199 -123.890191 
L 73.366553 -130.360723 
L 76.013207 -136.55123 
L 78.65986 -141.316165 
L 81.306513 -147.005952 
L 83.953167 -151.089349 
L 86.59982 -154.858143 
L 89.246473 -158.782145 
L 91.893127 -162.704788 
L 94.53978 -166.203631 
L 97.186433 -169.727674 
L 99.833087 -172.830657 
L 102.47974 -175.191595 
L 105.126393 -177.893955 
L 107.773047 -181.04992 
L 110.4197 -183.27782 
L 113.066353 -185.327976 
L 115.713007 -187.322892 
L 118.35966 -189.427432 
L 121.006313 -191.600392 
L 123.652967 -193.30661 
L 126.29962 -195.049881 
L 128.946273 -196.496608 
L 131.592927 -198.458572 
L 134.23958 -199.99681 
L 136.886233 -201.549693 
L 139.532887 -203.10476 
L 142.17954 -204.453275 
L 144.826193 -205.966397 
L 147.472847 -207.427834 
L 150.1195 -208.873961 
L 152.766153 -210.18749 
L 155.412807 -211.342769 
L 158.05946 -212.543996 
L 160.706113 -213.587894 
L 163.352767 -214.506067 
L 165.99942 -215.561142 
L 168.646073 -216.526911 
L 171.292727 -217.739058 
L 173.93938 -218.691745 
L 176.586033 -219.615741 
L 179.232687 -220.525692 
L 181.87934 -221.537816 
L 184.525993 -222.406765 
L 187.172647 -223.366903 
L 189.8193 -224.17074 
L 192.465953 -224.881974 
L 195.112607 -225.806184 
L 197.75926 -226.552704 
L 200.405913 -227.435998 
L 203.052567 -228.116229 
L 205.69922 -228.894865 
L 208.345873 -229.39931 
L 210.992527 -230.06738 
L 213.63918 -230.569128 
L 216.285833 -231.246532 
L 218.932487 -231.824247 
L 221.57914 -232.311777 
L 224.225793 -232.8441 
L 226.872447 -233.524053 
L 229.5191 -234.052543 
L 232.165753 -234.547718 
L 234.812407 -235.237819 
L 237.45906 -235.718991 
L 240.105713 -236.256238 
L 242.752367 -236.798175 
L 245.39902 -237.239415 
L 248.045673 -237.710973 
L 250.692327 -238.269289 
L 253.33898 -239.000178 
L 255.985633 -239.485932 
L 258.632287 -240.096127 
L 261.27894 -240.600701 
L 263.925593 -241.064445 
L 266.572247 -241.587646 
L 269.2189 -242.04775 
L 271.865553 -242.419789 
L 274.512207 -242.68079 
L 277.15886 -243.024267 
L 279.805513 -243.522482 
L 282.452167 -243.848274 
L 285.09882 -244.209886 
L 287.745473 -244.591667 
L 290.392127 -244.992183 
L 293.03878 -245.295836 
L 295.685433 -245.724828 
L 298.332087 -246.088796 
L 300.97874 -246.510466 
L 303.625393 -246.94312 
L 306.272047 -247.242255 
L 308.9187 -247.508652 
L 311.565353 -247.807123 
L 314.212007 -248.168521 
L 316.85866 -248.511591 
L 319.505313 -248.756555 
L 322.151967 -248.911165 
L 324.79862 -249.219057 
L 327.445273 -249.453872 
L 330.091927 -249.763605 
L 332.73858 -250.188102 
L 335.385233 -250.481755 
L 338.031887 -250.842746 
L 340.67854 -251.244483 
L 343.325193 -251.51756 
L 345.971847 -251.766743 
L 348.6185 -252.095168 
L 351.265153 -252.347476 
L 353.911807 -252.659393 
L 356.55846 -252.890419 
L 359.205113 -253.129795 
L 361.851767 -253.402787 
L 364.49842 -253.628995 
L 367.145073 -253.869228 
L 369.791727 -254.056917 
L 372.43838 -254.316869 
L 375.085033 -254.481478 
L 377.731687 -254.735071 
L 380.37834 -254.894755 
L 383.024993 -255.155971 
L 385.671647 -255.432324 
L 388.3183 -255.627486 
L 390.964953 -255.890778 
L 393.611607 -256.044489 
L 396.25826 -256.249372 
L 398.904913 -256.392376 
L 401.551567 -256.561053 
L 404.19822 -256.785013 
L 406.844873 -257.107978 
L 409.491527 -257.346241 
L 412.13818 -257.530355 
L 414.784833 -257.726417 
L 417.431487 -257.931235 
L 420.07814 -258.120231 
L 422.724793 -258.331966 
L 425.371447 -258.408446 
L 428.0181 -258.612537 
L 430.664753 -258.770658 
L 433.311407 -258.894478 
L 435.95806 -259.146444 
L 438.604713 -259.407959 
L 441.251367 -259.657527 
L 443.89802 -259.727627 
L 446.544673 -259.805927 
L 449.191327 -259.932017 
L 451.83798 -260.06877 
L 454.484633 -260.19289 
L 457.131287 -260.349448 
L 459.77794 -260.480613 
L 462.424593 -260.653807 
L 465.071247 -260.782745 
L 467.7179 -260.98645 
L 470.364553 -261.137013 
L 473.011207 -261.399792 
L 475.65786 -261.561296 
L 478.304513 -261.757336 
L 480.951167 -261.911174 
L 483.59782 -262.072678 
L 486.244473 -262.151321 
L 488.891127 -262.312568 
L 491.53778 -262.481887 
L 494.184433 -262.599413 
L 496.831087 -262.735352 
L 499.47774 -262.940235 
L 502.124393 -263.101054 
L 504.771047 -263.192265 
L 507.4177 -263.354411 
L 510.064353 -263.514053 
L 512.711007 -263.630829 
L 515.35766 -263.774669 
L 518.004313 -263.898125 
L 520.650967 -264.056246 
L 523.29762 -264.165871 
L 525.944273 -264.33367 
L 528.590927 -264.35097 
L 531.23758 -264.546218 
L 533.884233 -264.686503 
L 536.530887 -264.830493 
L 539.17754 -264.965083 
L 541.824193 -265.023792 
L 544.470847 -265.212253 
L 547.1175 -265.398615 
L 549.764153 -265.533377 
L 552.410807 -265.651416 
L 555.05746 -265.830734 
L 557.704113 -266.004185 
L 560.350767 -266.25735 
L 562.99742 -266.408277 
L 565.644073 -266.533982 
L 568.290727 -266.658937 
L 570.93738 -266.782372 
L 573.584033 -266.892489 
L 576.230687 -267.037828 
L 578.87734 -267.195564 
L 581.523993 -267.322146 
L 584.170647 -267.47727 
L 586.8173 -267.533859 
L 589.463953 -267.64691 
L 592.110607 -267.791563 
L 594.75726 -267.853505 
L 597.403913 -267.97011 
L 600.050567 -268.067017 
L 602.69722 -268.14566 
L 605.343873 -268.350992 
L 607.990527 -268.431584 
L 610.63718 -268.517014 
L 613.283833 -268.593623 
L 615.930487 -268.717229 
L 618.57714 -268.798442 
L 621.223793 -268.933096 
L 623.870447 -269.049444 
L 626.5171 -269.145237 
L 629.163753 -269.223902 
L 631.810407 -269.297642 
L 634.45706 -269.423518 
L 637.103713 -269.462314 
L 639.750367 -269.437906 
L 642.39702 -269.455634 
L 645.043673 -269.548644 
L 647.690327 -269.596091 
L 650.33698 -269.664607 
L 652.983633 -269.739931 
L 655.630287 -269.791617 
L 658.27694 -269.937084 
L 660.923593 -269.971042 
L 663.570247 -270.099894 
L 666.2169 -270.172949 
L 668.863553 -270.239987 
L 671.510207 -270.322163 
L 674.15686 -270.405003 
L 676.803513 -270.522678 
L 679.450167 -270.654164 
L 682.09682 -270.785842 
L 684.743473 -270.824853 
L 687.390127 -270.851681 
L 690.03678 -270.920732 
L 692.683433 -271.046608 
L 695.330087 -271.120241 
L 697.97674 -271.174261 
L 700.623393 -271.232735 
L 703.270047 -271.321269 
L 705.9167 -271.363985 
L 708.563353 -271.456031 
L 711.210007 -271.502707 
L 713.85666 -271.606936 
L 716.503313 -271.660207 
L 719.149967 -271.736088 
L 721.79662 -271.84719 
L 724.443273 -271.86342 
L 727.089927 -271.921059 
L 729.73658 -271.987797 
L 732.383233 -272.08192 
L 735.029887 -272.18176 
L 737.67654 -272.262437 
L 740.323193 -272.416212 
L 742.969847 -272.458285 
L 745.6165 -272.501749 
L 748.263153 -272.582769 
L 750.909807 -272.595423 
L 753.55646 -272.693678 
L 756.203113 -272.741939 
L 758.849767 -272.859315 
L 761.49642 -272.979731 
L 764.143073 -273.066018 
L 766.789727 -273.166307 
L 769.43638 -273.281991 
L 772.083033 -273.359928 
L 774.729687 -273.450989 
L 777.37634 -273.533508 
L 780.022993 -273.577936 
L 782.669647 -273.630543 
L 785.3163 -273.750616 
L 787.962953 -273.889146 
L 790.609607 -273.960745 
L 793.25626 -274.105077 
L 795.902913 -274.114819 
L 798.549567 -274.181793 
L 801.19622 -274.260265 
L 803.842873 -274.312551 
L 806.489527 -274.415046 
L 809.13618 -274.490755 
L 811.782833 -274.501675 
L 814.429487 -274.566101 
L 817.07614 -274.603228 
L 819.722793 -274.677674 
L 822.369447 -274.745076 
L 825.0161 -274.800124 
L 827.662753 -274.825154 
L 830.309407 -274.848449 
L 832.95606 -274.954627 
L 835.602713 -274.982269 
L 838.249367 -275.024748 
L 840.89602 -275.137927 
L 843.542673 -275.18409 
L 843.542673 -372.805455 
L 843.542673 -372.805455 
L 840.89602 -372.757108 
L 838.249367 -372.743791 
L 835.602713 -372.623503 
L 832.95606 -372.557278 
L 830.309407 -372.583336 
L 827.662753 -372.510624 
L 825.0161 -372.425043 
L 822.369447 -372.371623 
L 819.722793 -372.327687 
L 817.07614 -372.334432 
L 814.429487 -372.308053 
L 811.782833 -372.266751 
L 809.13618 -372.174298 
L 806.489527 -372.164149 
L 803.842873 -372.13852 
L 801.19622 -372.102121 
L 798.549567 -372.054396 
L 795.902913 -372.006777 
L 793.25626 -371.88801 
L 790.609607 -371.903876 
L 787.962953 -371.896767 
L 785.3163 -371.922461 
L 782.669647 -371.900536 
L 780.022993 -371.819409 
L 777.37634 -371.802516 
L 774.729687 -371.763033 
L 772.083033 -371.772133 
L 769.43638 -371.759843 
L 766.789727 -371.697815 
L 764.143073 -371.673792 
L 761.49642 -371.656535 
L 758.849767 -371.638635 
L 756.203113 -371.661545 
L 753.55646 -371.591573 
L 750.909807 -371.542563 
L 748.263153 -371.467988 
L 745.6165 -371.42538 
L 742.969847 -371.316698 
L 740.323193 -371.254584 
L 737.67654 -371.257582 
L 735.029887 -371.250987 
L 732.383233 -371.246212 
L 729.73658 -371.185919 
L 727.089927 -371.10582 
L 724.443273 -371.036876 
L 721.79662 -370.980008 
L 719.149967 -370.915839 
L 716.503313 -370.892801 
L 713.85666 -370.843212 
L 711.210007 -370.807113 
L 708.563353 -370.725537 
L 705.9167 -370.693399 
L 703.270047 -370.654238 
L 700.623393 -370.617389 
L 697.97674 -370.547011 
L 695.330087 -370.473164 
L 692.683433 -370.415419 
L 690.03678 -370.36097 
L 687.390127 -370.300912 
L 684.743473 -370.249889 
L 682.09682 -370.176278 
L 679.450167 -370.156751 
L 676.803513 -370.169619 
L 674.15686 -370.114635 
L 671.510207 -370.034965 
L 668.863553 -369.96054 
L 666.2169 -369.907419 
L 663.570247 -369.897184 
L 660.923593 -369.89727 
L 658.27694 -369.841215 
L 655.630287 -369.809313 
L 652.983633 -369.72658 
L 650.33698 -369.642949 
L 647.690327 -369.585567 
L 645.043673 -369.47166 
L 642.39702 -369.386872 
L 639.750367 -369.275962 
L 637.103713 -369.147967 
L 634.45706 -369.052773 
L 631.810407 -368.984364 
L 629.163753 -368.905229 
L 626.5171 -368.863863 
L 623.870447 -368.761946 
L 621.223793 -368.730943 
L 618.57714 -368.686814 
L 615.930487 -368.587445 
L 613.283833 -368.557149 
L 610.63718 -368.510258 
L 607.990527 -368.44337 
L 605.343873 -368.362094 
L 602.69722 -368.340169 
L 600.050567 -368.293728 
L 597.403913 -368.226069 
L 594.75726 -368.152158 
L 592.110607 -368.039128 
L 589.463953 -368.041569 
L 586.8173 -367.973182 
L 584.170647 -367.89895 
L 581.523993 -367.903082 
L 578.87734 -367.815168 
L 576.230687 -367.79926 
L 573.584033 -367.720595 
L 570.93738 -367.645549 
L 568.290727 -367.600436 
L 565.644073 -367.550077 
L 562.99742 -367.484752 
L 560.350767 -367.391507 
L 557.704113 -367.416044 
L 555.05746 -367.393455 
L 552.410807 -367.401784 
L 549.764153 -367.335645 
L 547.1175 -367.299375 
L 544.470847 -367.22131 
L 541.824193 -367.19172 
L 539.17754 -367.03756 
L 536.530887 -366.98643 
L 533.884233 -366.926115 
L 531.23758 -366.877683 
L 528.590927 -366.808418 
L 525.944273 -366.680251 
L 523.29762 -366.655136 
L 520.650967 -366.564952 
L 518.004313 -366.513844 
L 515.35766 -366.41925 
L 512.711007 -366.358271 
L 510.064353 -366.245563 
L 507.4177 -366.134653 
L 504.771047 -366.097848 
L 502.124393 -366.009805 
L 499.47774 -365.919643 
L 496.831087 -365.87757 
L 494.184433 -365.738077 
L 491.53778 -365.634083 
L 488.891127 -365.511269 
L 486.244473 -365.462816 
L 483.59782 -365.315614 
L 480.951167 -365.255128 
L 478.304513 -365.169419 
L 475.65786 -365.084075 
L 473.011207 -365.063285 
L 470.364553 -365.061764 
L 467.7179 -364.987725 
L 465.071247 -364.938179 
L 462.424593 -364.827441 
L 459.77794 -364.768025 
L 457.131287 -364.645126 
L 454.484633 -364.53533 
L 451.83798 -364.436474 
L 449.191327 -364.317065 
L 446.544673 -364.213756 
L 443.89802 -364.083941 
L 441.251367 -363.976971 
L 438.604713 -363.989432 
L 435.95806 -363.937317 
L 433.311407 -363.872998 
L 430.664753 -363.798167 
L 428.0181 -363.709503 
L 425.371447 -363.604417 
L 422.724793 -363.470213 
L 420.07814 -363.427412 
L 417.431487 -363.245953 
L 414.784833 -363.186387 
L 412.13818 -363.11618 
L 409.491527 -363.021907 
L 406.844873 -362.96354 
L 404.19822 -362.955404 
L 401.551567 -362.877639 
L 398.904913 -362.729945 
L 396.25826 -362.633831 
L 393.611607 -362.525555 
L 390.964953 -362.325682 
L 388.3183 -362.219419 
L 385.671647 -362.11247 
L 383.024993 -362.049329 
L 380.37834 -362.001882 
L 377.731687 -361.834447 
L 375.085033 -361.68534 
L 372.43838 -361.551949 
L 369.791727 -361.437978 
L 367.145073 -361.286515 
L 364.49842 -361.161817 
L 361.851767 -361.048531 
L 359.205113 -360.960189 
L 356.55846 -360.847053 
L 353.911807 -360.754942 
L 351.265153 -360.628402 
L 348.6185 -360.440456 
L 345.971847 -360.395557 
L 343.325193 -360.230905 
L 340.67854 -360.100169 
L 338.031887 -359.980802 
L 335.385233 -359.8955 
L 332.73858 -359.805766 
L 330.091927 -359.833087 
L 327.445273 -359.665823 
L 324.79862 -359.413365 
L 322.151967 -359.297531 
L 319.505313 -359.032226 
L 316.85866 -358.840361 
L 314.212007 -358.754609 
L 311.565353 -358.560347 
L 308.9187 -358.405459 
L 306.272047 -358.291551 
L 303.625393 -358.088296 
L 300.97874 -357.95407 
L 298.332087 -357.845644 
L 295.685433 -357.638063 
L 293.03878 -357.58445 
L 290.392127 -357.427678 
L 287.745473 -357.302594 
L 285.09882 -357.128586 
L 282.452167 -356.94991 
L 279.805513 -356.727791 
L 277.15886 -356.662338 
L 274.512207 -356.516785 
L 271.865553 -356.192492 
L 269.2189 -356.031652 
L 266.572247 -355.905519 
L 263.925593 -355.827626 
L 261.27894 -355.741146 
L 258.632287 -355.635033 
L 255.985633 -355.622422 
L 253.33898 -355.469268 
L 250.692327 -355.452396 
L 248.045673 -355.334164 
L 245.39902 -355.175422 
L 242.752367 -354.971717 
L 240.105713 -354.77861 
L 237.45906 -354.523004 
L 234.812407 -354.280652 
L 232.165753 -354.167109 
L 229.5191 -353.921845 
L 226.872447 -353.692468 
L 224.225793 -353.53409 
L 221.57914 -353.351624 
L 218.932487 -353.003437 
L 216.285833 -352.764703 
L 213.63918 -352.578555 
L 210.992527 -352.28458 
L 208.345873 -352.089868 
L 205.69922 -351.720826 
L 203.052567 -351.479737 
L 200.405913 -351.139728 
L 197.75926 -350.978246 
L 195.112607 -350.667614 
L 192.465953 -350.51416 
L 189.8193 -350.245494 
L 187.172647 -349.897585 
L 184.525993 -349.726831 
L 181.87934 -349.450628 
L 179.232687 -349.263516 
L 176.586033 -348.932351 
L 173.93938 -348.549627 
L 171.292727 -348.269805 
L 168.646073 -348.147141 
L 165.99942 -347.781739 
L 163.352767 -347.425565 
L 160.706113 -347.024557 
L 158.05946 -346.632669 
L 155.412807 -346.330966 
L 152.766153 -345.890261 
L 150.1195 -345.558175 
L 147.472847 -345.256685 
L 144.826193 -344.864005 
L 142.17954 -344.340932 
L 139.532887 -343.893011 
L 136.886233 -343.625266 
L 134.23958 -343.147991 
L 131.592927 -342.572225 
L 128.946273 -342.284481 
L 126.29962 -341.576908 
L 123.652967 -340.987139 
L 121.006313 -340.379321 
L 118.35966 -339.797795 
L 115.713007 -339.381435 
L 113.066353 -338.528887 
L 110.4197 -337.599645 
L 107.773047 -336.79493 
L 105.126393 -336.625055 
L 102.47974 -335.746407 
L 99.833087 -334.698269 
L 97.186433 -333.868803 
L 94.53978 -333.300895 
L 91.893127 -332.371996 
L 89.246473 -331.489258 
L 86.59982 -330.630802 
L 83.953167 -329.053617 
L 81.306513 -327.304287 
L 78.65986 -326.44219 
L 76.013207 -324.636484 
L 73.366553 -323.157962 
L 70.7199 -321.191159 
L 68.073247 -319.15719 
L 65.426593 -317.037769 
L 62.77994 -314.06914 
L 60.133287 -311.416818 
L 57.486633 -308.190957 
L 54.83998 -303.376713 
L 52.193327 -302.88505 
z
" style="stroke: #0000ff; stroke-opacity: 0.2"/>
    </defs>
    <g clip-path="url(#p544a31a5c6)">
     <use xlink:href="#mdc7529338a" x="0" y="432" style="fill: #0000ff; fill-opacity: 0.2; stroke: #0000ff; stroke-opacity: 0.2"/>
    </g>
   </g>
   <g id="matplotlib.axis_1">
    <g id="xtick_1">
     <g id="line2d_1">
      <defs>
       <path id="mf8f6183ec6" d="M 0 0 
L 0 3.5 
" style="stroke: #000000; stroke-width: 0.8"/>
      </defs>
      <g>
       <use xlink:href="#mf8f6183ec6" x="181.87934" y="390.04" style="stroke: #000000; stroke-width: 0.8"/>
      </g>
     </g>
     <g id="text_1">
      <!-- 50 -->
      <g transform="translate(175.51684 404.638438) scale(0.1 -0.1)">
       <defs>
        <path id="DejaVuSans-35" d="M 691 4666 
L 3169 4666 
L 3169 4134 
L 1269 4134 
L 1269 2991 
Q 1406 3038 1543 3061 
Q 1681 3084 1819 3084 
Q 2600 3084 3056 2656 
Q 3513 2228 3513 1497 
Q 3513 744 3044 326 
Q 2575 -91 1722 -91 
Q 1428 -91 1123 -41 
Q 819 9 494 109 
L 494 744 
Q 775 591 1075 516 
Q 1375 441 1709 441 
Q 2250 441 2565 725 
Q 2881 1009 2881 1497 
Q 2881 1984 2565 2268 
Q 2250 2553 1709 2553 
Q 1456 2553 1204 2497 
Q 953 2441 691 2322 
L 691 4666 
z
" transform="scale(0.015625)"/>
        <path id="DejaVuSans-30" d="M 2034 4250 
Q 1547 4250 1301 3770 
Q 1056 3291 1056 2328 
Q 1056 1369 1301 889 
Q 1547 409 2034 409 
Q 2525 409 2770 889 
Q 3016 1369 3016 2328 
Q 3016 3291 2770 3770 
Q 2525 4250 2034 4250 
z
M 2034 4750 
Q 2819 4750 3233 4129 
Q 3647 3509 3647 2328 
Q 3647 1150 3233 529 
Q 2819 -91 2034 -91 
Q 1250 -91 836 529 
Q 422 1150 422 2328 
Q 422 3509 836 4129 
Q 1250 4750 2034 4750 
z
" transform="scale(0.015625)"/>
       </defs>
       <use xlink:href="#DejaVuSans-35"/>
       <use xlink:href="#DejaVuSans-30" transform="translate(63.623047 0)"/>
      </g>
     </g>
    </g>
    <g id="xtick_2">
     <g id="line2d_2">
      <g>
       <use xlink:href="#mf8f6183ec6" x="314.212007" y="390.04" style="stroke: #000000; stroke-width: 0.8"/>
      </g>
     </g>
     <g id="text_2">
      <!-- 100 -->
      <g transform="translate(304.668257 404.638438) scale(0.1 -0.1)">
       <defs>
        <path id="DejaVuSans-31" d="M 794 531 
L 1825 531 
L 1825 4091 
L 703 3866 
L 703 4441 
L 1819 4666 
L 2450 4666 
L 2450 531 
L 3481 531 
L 3481 0 
L 794 0 
L 794 531 
z
" transform="scale(0.015625)"/>
       </defs>
       <use xlink:href="#DejaVuSans-31"/>
       <use xlink:href="#DejaVuSans-30" transform="translate(63.623047 0)"/>
       <use xlink:href="#DejaVuSans-30" transform="translate(127.246094 0)"/>
      </g>
     </g>
    </g>
    <g id="xtick_3">
     <g id="line2d_3">
      <g>
       <use xlink:href="#mf8f6183ec6" x="446.544673" y="390.04" style="stroke: #000000; stroke-width: 0.8"/>
      </g>
     </g>
     <g id="text_3">
      <!-- 150 -->
      <g transform="translate(437.000923 404.638438) scale(0.1 -0.1)">
       <use xlink:href="#DejaVuSans-31"/>
       <use xlink:href="#DejaVuSans-35" transform="translate(63.623047 0)"/>
       <use xlink:href="#DejaVuSans-30" transform="translate(127.246094 0)"/>
      </g>
     </g>
    </g>
    <g id="xtick_4">
     <g id="line2d_4">
      <g>
       <use xlink:href="#mf8f6183ec6" x="578.87734" y="390.04" style="stroke: #000000; stroke-width: 0.8"/>
      </g>
     </g>
     <g id="text_4">
      <!-- 200 -->
      <g transform="translate(569.33359 404.638438) scale(0.1 -0.1)">
       <defs>
        <path id="DejaVuSans-32" d="M 1228 531 
L 3431 531 
L 3431 0 
L 469 0 
L 469 531 
Q 828 903 1448 1529 
Q 2069 2156 2228 2338 
Q 2531 2678 2651 2914 
Q 2772 3150 2772 3378 
Q 2772 3750 2511 3984 
Q 2250 4219 1831 4219 
Q 1534 4219 1204 4116 
Q 875 4013 500 3803 
L 500 4441 
Q 881 4594 1212 4672 
Q 1544 4750 1819 4750 
Q 2544 4750 2975 4387 
Q 3406 4025 3406 3419 
Q 3406 3131 3298 2873 
Q 3191 2616 2906 2266 
Q 2828 2175 2409 1742 
Q 1991 1309 1228 531 
z
" transform="scale(0.015625)"/>
       </defs>
       <use xlink:href="#DejaVuSans-32"/>
       <use xlink:href="#DejaVuSans-30" transform="translate(63.623047 0)"/>
       <use xlink:href="#DejaVuSans-30" transform="translate(127.246094 0)"/>
      </g>
     </g>
    </g>
    <g id="xtick_5">
     <g id="line2d_5">
      <g>
       <use xlink:href="#mf8f6183ec6" x="711.210007" y="390.04" style="stroke: #000000; stroke-width: 0.8"/>
      </g>
     </g>
     <g id="text_5">
      <!-- 250 -->
      <g transform="translate(701.666257 404.638438) scale(0.1 -0.1)">
       <use xlink:href="#DejaVuSans-32"/>
       <use xlink:href="#DejaVuSans-35" transform="translate(63.623047 0)"/>
       <use xlink:href="#DejaVuSans-30" transform="translate(127.246094 0)"/>
      </g>
     </g>
    </g>
    <g id="xtick_6">
     <g id="line2d_6">
      <g>
       <use xlink:href="#mf8f6183ec6" x="843.542673" y="390.04" style="stroke: #000000; stroke-width: 0.8"/>
      </g>
     </g>
     <g id="text_6">
      <!-- 300 -->
      <g transform="translate(833.998923 404.638438) scale(0.1 -0.1)">
       <defs>
        <path id="DejaVuSans-33" d="M 2597 2516 
Q 3050 2419 3304 2112 
Q 3559 1806 3559 1356 
Q 3559 666 3084 287 
Q 2609 -91 1734 -91 
Q 1441 -91 1130 -33 
Q 819 25 488 141 
L 488 750 
Q 750 597 1062 519 
Q 1375 441 1716 441 
Q 2309 441 2620 675 
Q 2931 909 2931 1356 
Q 2931 1769 2642 2001 
Q 2353 2234 1838 2234 
L 1294 2234 
L 1294 2753 
L 1863 2753 
Q 2328 2753 2575 2939 
Q 2822 3125 2822 3475 
Q 2822 3834 2567 4026 
Q 2313 4219 1838 4219 
Q 1578 4219 1281 4162 
Q 984 4106 628 3988 
L 628 4550 
Q 988 4650 1302 4700 
Q 1616 4750 1894 4750 
Q 2613 4750 3031 4423 
Q 3450 4097 3450 3541 
Q 3450 3153 3228 2886 
Q 3006 2619 2597 2516 
z
" transform="scale(0.015625)"/>
       </defs>
       <use xlink:href="#DejaVuSans-33"/>
       <use xlink:href="#DejaVuSans-30" transform="translate(63.623047 0)"/>
       <use xlink:href="#DejaVuSans-30" transform="translate(127.246094 0)"/>
      </g>
     </g>
    </g>
    <g id="text_7">
     <!-- Step -->
     <g transform="translate(436.482844 418.316562) scale(0.1 -0.1)">
      <defs>
       <path id="DejaVuSans-53" d="M 3425 4513 
L 3425 3897 
Q 3066 4069 2747 4153 
Q 2428 4238 2131 4238 
Q 1616 4238 1336 4038 
Q 1056 3838 1056 3469 
Q 1056 3159 1242 3001 
Q 1428 2844 1947 2747 
L 2328 2669 
Q 3034 2534 3370 2195 
Q 3706 1856 3706 1288 
Q 3706 609 3251 259 
Q 2797 -91 1919 -91 
Q 1588 -91 1214 -16 
Q 841 59 441 206 
L 441 856 
Q 825 641 1194 531 
Q 1563 422 1919 422 
Q 2459 422 2753 634 
Q 3047 847 3047 1241 
Q 3047 1584 2836 1778 
Q 2625 1972 2144 2069 
L 1759 2144 
Q 1053 2284 737 2584 
Q 422 2884 422 3419 
Q 422 4038 858 4394 
Q 1294 4750 2059 4750 
Q 2388 4750 2728 4690 
Q 3069 4631 3425 4513 
z
" transform="scale(0.015625)"/>
       <path id="DejaVuSans-74" d="M 1172 4494 
L 1172 3500 
L 2356 3500 
L 2356 3053 
L 1172 3053 
L 1172 1153 
Q 1172 725 1289 603 
Q 1406 481 1766 481 
L 2356 481 
L 2356 0 
L 1766 0 
Q 1100 0 847 248 
Q 594 497 594 1153 
L 594 3053 
L 172 3053 
L 172 3500 
L 594 3500 
L 594 4494 
L 1172 4494 
z
" transform="scale(0.015625)"/>
       <path id="DejaVuSans-65" d="M 3597 1894 
L 3597 1613 
L 953 1613 
Q 991 1019 1311 708 
Q 1631 397 2203 397 
Q 2534 397 2845 478 
Q 3156 559 3463 722 
L 3463 178 
Q 3153 47 2828 -22 
Q 2503 -91 2169 -91 
Q 1331 -91 842 396 
Q 353 884 353 1716 
Q 353 2575 817 3079 
Q 1281 3584 2069 3584 
Q 2775 3584 3186 3129 
Q 3597 2675 3597 1894 
z
M 3022 2063 
Q 3016 2534 2758 2815 
Q 2500 3097 2075 3097 
Q 1594 3097 1305 2825 
Q 1016 2553 972 2059 
L 3022 2063 
z
" transform="scale(0.015625)"/>
       <path id="DejaVuSans-70" d="M 1159 525 
L 1159 -1331 
L 581 -1331 
L 581 3500 
L 1159 3500 
L 1159 2969 
Q 1341 3281 1617 3432 
Q 1894 3584 2278 3584 
Q 2916 3584 3314 3078 
Q 3713 2572 3713 1747 
Q 3713 922 3314 415 
Q 2916 -91 2278 -91 
Q 1894 -91 1617 61 
Q 1341 213 1159 525 
z
M 3116 1747 
Q 3116 2381 2855 2742 
Q 2594 3103 2138 3103 
Q 1681 3103 1420 2742 
Q 1159 2381 1159 1747 
Q 1159 1113 1420 752 
Q 1681 391 2138 391 
Q 2594 391 2855 752 
Q 3116 1113 3116 1747 
z
" transform="scale(0.015625)"/>
      </defs>
      <use xlink:href="#DejaVuSans-53"/>
      <use xlink:href="#DejaVuSans-74" transform="translate(63.476562 0)"/>
      <use xlink:href="#DejaVuSans-65" transform="translate(102.685547 0)"/>
      <use xlink:href="#DejaVuSans-70" transform="translate(164.208984 0)"/>
     </g>
    </g>
   </g>
   <g id="matplotlib.axis_2">
    <g id="ytick_1">
     <g id="line2d_7">
      <defs>
       <path id="m9f7c19a1df" d="M 0 0 
L -3.5 0 
" style="stroke: #000000; stroke-width: 0.8"/>
      </defs>
      <g>
       <use xlink:href="#m9f7c19a1df" x="50.87" y="356.914764" style="stroke: #000000; stroke-width: 0.8"/>
      </g>
     </g>
     <g id="text_8">
      <!-- 20 -->
      <g transform="translate(31.145 360.713983) scale(0.1 -0.1)">
       <use xlink:href="#DejaVuSans-32"/>
       <use xlink:href="#DejaVuSans-30" transform="translate(63.623047 0)"/>
      </g>
     </g>
    </g>
    <g id="ytick_2">
     <g id="line2d_8">
      <g>
       <use xlink:href="#m9f7c19a1df" x="50.87" y="300.786836" style="stroke: #000000; stroke-width: 0.8"/>
      </g>
     </g>
     <g id="text_9">
      <!-- 40 -->
      <g transform="translate(31.145 304.586055) scale(0.1 -0.1)">
       <defs>
        <path id="DejaVuSans-34" d="M 2419 4116 
L 825 1625 
L 2419 1625 
L 2419 4116 
z
M 2253 4666 
L 3047 4666 
L 3047 1625 
L 3713 1625 
L 3713 1100 
L 3047 1100 
L 3047 0 
L 2419 0 
L 2419 1100 
L 313 1100 
L 313 1709 
L 2253 4666 
z
" transform="scale(0.015625)"/>
       </defs>
       <use xlink:href="#DejaVuSans-34"/>
       <use xlink:href="#DejaVuSans-30" transform="translate(63.623047 0)"/>
      </g>
     </g>
    </g>
    <g id="ytick_3">
     <g id="line2d_9">
      <g>
       <use xlink:href="#m9f7c19a1df" x="50.87" y="244.658909" style="stroke: #000000; stroke-width: 0.8"/>
      </g>
     </g>
     <g id="text_10">
      <!-- 60 -->
      <g transform="translate(31.145 248.458128) scale(0.1 -0.1)">
       <defs>
        <path id="DejaVuSans-36" d="M 2113 2584 
Q 1688 2584 1439 2293 
Q 1191 2003 1191 1497 
Q 1191 994 1439 701 
Q 1688 409 2113 409 
Q 2538 409 2786 701 
Q 3034 994 3034 1497 
Q 3034 2003 2786 2293 
Q 2538 2584 2113 2584 
z
M 3366 4563 
L 3366 3988 
Q 3128 4100 2886 4159 
Q 2644 4219 2406 4219 
Q 1781 4219 1451 3797 
Q 1122 3375 1075 2522 
Q 1259 2794 1537 2939 
Q 1816 3084 2150 3084 
Q 2853 3084 3261 2657 
Q 3669 2231 3669 1497 
Q 3669 778 3244 343 
Q 2819 -91 2113 -91 
Q 1303 -91 875 529 
Q 447 1150 447 2328 
Q 447 3434 972 4092 
Q 1497 4750 2381 4750 
Q 2619 4750 2861 4703 
Q 3103 4656 3366 4563 
z
" transform="scale(0.015625)"/>
       </defs>
       <use xlink:href="#DejaVuSans-36"/>
       <use xlink:href="#DejaVuSans-30" transform="translate(63.623047 0)"/>
      </g>
     </g>
    </g>
    <g id="ytick_4">
     <g id="line2d_10">
      <g>
       <use xlink:href="#m9f7c19a1df" x="50.87" y="188.530981" style="stroke: #000000; stroke-width: 0.8"/>
      </g>
     </g>
     <g id="text_11">
      <!-- 80 -->
      <g transform="translate(31.145 192.3302) scale(0.1 -0.1)">
       <defs>
        <path id="DejaVuSans-38" d="M 2034 2216 
Q 1584 2216 1326 1975 
Q 1069 1734 1069 1313 
Q 1069 891 1326 650 
Q 1584 409 2034 409 
Q 2484 409 2743 651 
Q 3003 894 3003 1313 
Q 3003 1734 2745 1975 
Q 2488 2216 2034 2216 
z
M 1403 2484 
Q 997 2584 770 2862 
Q 544 3141 544 3541 
Q 544 4100 942 4425 
Q 1341 4750 2034 4750 
Q 2731 4750 3128 4425 
Q 3525 4100 3525 3541 
Q 3525 3141 3298 2862 
Q 3072 2584 2669 2484 
Q 3125 2378 3379 2068 
Q 3634 1759 3634 1313 
Q 3634 634 3220 271 
Q 2806 -91 2034 -91 
Q 1263 -91 848 271 
Q 434 634 434 1313 
Q 434 1759 690 2068 
Q 947 2378 1403 2484 
z
M 1172 3481 
Q 1172 3119 1398 2916 
Q 1625 2713 2034 2713 
Q 2441 2713 2670 2916 
Q 2900 3119 2900 3481 
Q 2900 3844 2670 4047 
Q 2441 4250 2034 4250 
Q 1625 4250 1398 4047 
Q 1172 3844 1172 3481 
z
" transform="scale(0.015625)"/>
       </defs>
       <use xlink:href="#DejaVuSans-38"/>
       <use xlink:href="#DejaVuSans-30" transform="translate(63.623047 0)"/>
      </g>
     </g>
    </g>
    <g id="ytick_5">
     <g id="line2d_11">
      <g>
       <use xlink:href="#m9f7c19a1df" x="50.87" y="132.403054" style="stroke: #000000; stroke-width: 0.8"/>
      </g>
     </g>
     <g id="text_12">
      <!-- 100 -->
      <g transform="translate(24.7825 136.202272) scale(0.1 -0.1)">
       <use xlink:href="#DejaVuSans-31"/>
       <use xlink:href="#DejaVuSans-30" transform="translate(63.623047 0)"/>
       <use xlink:href="#DejaVuSans-30" transform="translate(127.246094 0)"/>
      </g>
     </g>
    </g>
    <g id="ytick_6">
     <g id="line2d_12">
      <g>
       <use xlink:href="#m9f7c19a1df" x="50.87" y="76.275126" style="stroke: #000000; stroke-width: 0.8"/>
      </g>
     </g>
     <g id="text_13">
      <!-- 120 -->
      <g transform="translate(24.7825 80.074345) scale(0.1 -0.1)">
       <use xlink:href="#DejaVuSans-31"/>
       <use xlink:href="#DejaVuSans-32" transform="translate(63.623047 0)"/>
       <use xlink:href="#DejaVuSans-30" transform="translate(127.246094 0)"/>
      </g>
     </g>
    </g>
    <g id="text_14">
     <!-- Profit -->
     <g transform="translate(18.702813 229.779063) rotate(-90) scale(0.1 -0.1)">
      <defs>
       <path id="DejaVuSans-50" d="M 1259 4147 
L 1259 2394 
L 2053 2394 
Q 2494 2394 2734 2622 
Q 2975 2850 2975 3272 
Q 2975 3691 2734 3919 
Q 2494 4147 2053 4147 
L 1259 4147 
z
M 628 4666 
L 2053 4666 
Q 2838 4666 3239 4311 
Q 3641 3956 3641 3272 
Q 3641 2581 3239 2228 
Q 2838 1875 2053 1875 
L 1259 1875 
L 1259 0 
L 628 0 
L 628 4666 
z
" transform="scale(0.015625)"/>
       <path id="DejaVuSans-72" d="M 2631 2963 
Q 2534 3019 2420 3045 
Q 2306 3072 2169 3072 
Q 1681 3072 1420 2755 
Q 1159 2438 1159 1844 
L 1159 0 
L 581 0 
L 581 3500 
L 1159 3500 
L 1159 2956 
Q 1341 3275 1631 3429 
Q 1922 3584 2338 3584 
Q 2397 3584 2469 3576 
Q 2541 3569 2628 3553 
L 2631 2963 
z
" transform="scale(0.015625)"/>
       <path id="DejaVuSans-6f" d="M 1959 3097 
Q 1497 3097 1228 2736 
Q 959 2375 959 1747 
Q 959 1119 1226 758 
Q 1494 397 1959 397 
Q 2419 397 2687 759 
Q 2956 1122 2956 1747 
Q 2956 2369 2687 2733 
Q 2419 3097 1959 3097 
z
M 1959 3584 
Q 2709 3584 3137 3096 
Q 3566 2609 3566 1747 
Q 3566 888 3137 398 
Q 2709 -91 1959 -91 
Q 1206 -91 779 398 
Q 353 888 353 1747 
Q 353 2609 779 3096 
Q 1206 3584 1959 3584 
z
" transform="scale(0.015625)"/>
       <path id="DejaVuSans-66" d="M 2375 4863 
L 2375 4384 
L 1825 4384 
Q 1516 4384 1395 4259 
Q 1275 4134 1275 3809 
L 1275 3500 
L 2222 3500 
L 2222 3053 
L 1275 3053 
L 1275 0 
L 697 0 
L 697 3053 
L 147 3053 
L 147 3500 
L 697 3500 
L 697 3744 
Q 697 4328 969 4595 
Q 1241 4863 1831 4863 
L 2375 4863 
z
" transform="scale(0.015625)"/>
       <path id="DejaVuSans-69" d="M 603 3500 
L 1178 3500 
L 1178 0 
L 603 0 
L 603 3500 
z
M 603 4863 
L 1178 4863 
L 1178 4134 
L 603 4134 
L 603 4863 
z
" transform="scale(0.015625)"/>
      </defs>
      <use xlink:href="#DejaVuSans-50"/>
      <use xlink:href="#DejaVuSans-72" transform="translate(58.552734 0)"/>
      <use xlink:href="#DejaVuSans-6f" transform="translate(97.416016 0)"/>
      <use xlink:href="#DejaVuSans-66" transform="translate(158.597656 0)"/>
      <use xlink:href="#DejaVuSans-69" transform="translate(193.802734 0)"/>
      <use xlink:href="#DejaVuSans-74" transform="translate(221.585938 0)"/>
     </g>
    </g>
   </g>
   <g id="line2d_13">
    <path d="M 52.193327 251.700197 
L 54.83998 250.925768 
L 57.486633 241.384744 
L 60.133287 233.076636 
L 62.77994 225.722992 
L 65.426593 219.389501 
L 68.073247 214.034819 
L 70.7199 209.45933 
L 73.366553 205.240657 
L 76.013207 201.406143 
L 81.306513 194.844881 
L 83.953167 191.928517 
L 86.59982 189.255533 
L 91.893127 184.461608 
L 94.53978 182.247743 
L 99.833087 178.235537 
L 107.773047 173.07758 
L 115.713007 168.647837 
L 126.29962 163.686605 
L 136.886233 159.412521 
L 152.766153 153.961125 
L 158.05946 152.411667 
L 165.99942 150.328559 
L 179.232687 147.105396 
L 189.8193 144.791883 
L 197.75926 143.234525 
L 208.345873 141.255411 
L 221.57914 139.168299 
L 232.165753 137.642587 
L 242.752367 136.115054 
L 269.2189 132.960299 
L 308.9187 129.042945 
L 353.911807 125.292833 
L 375.085033 123.916591 
L 383.024993 123.39735 
L 406.844873 121.964241 
L 430.664753 120.715588 
L 435.95806 120.458119 
L 443.89802 120.094216 
L 462.424593 119.259376 
L 525.944273 116.49304 
L 536.530887 116.091539 
L 562.99742 115.053485 
L 600.050567 113.819628 
L 615.930487 113.347663 
L 639.750367 112.643066 
L 801.19622 108.818807 
L 843.542673 108.005228 
L 843.542673 108.005228 
" clip-path="url(#p544a31a5c6)" style="fill: none; stroke: #0000ff; stroke-width: 1.5; stroke-linecap: square"/>
   </g>
   <g id="patch_3">
    <path d="M 50.87 390.04 
L 50.87 43.44 
" style="fill: none; stroke: #000000; stroke-width: 0.8; stroke-linejoin: miter; stroke-linecap: square"/>
   </g>
   <g id="patch_4">
    <path d="M 844.866 390.04 
L 844.866 43.44 
" style="fill: none; stroke: #000000; stroke-width: 0.8; stroke-linejoin: miter; stroke-linecap: square"/>
   </g>
   <g id="patch_5">
    <path d="M 50.87 390.04 
L 844.866 390.04 
" style="fill: none; stroke: #000000; stroke-width: 0.8; stroke-linejoin: miter; stroke-linecap: square"/>
   </g>
   <g id="patch_6">
    <path d="M 50.87 43.44 
L 844.866 43.44 
" style="fill: none; stroke: #000000; stroke-width: 0.8; stroke-linejoin: miter; stroke-linecap: square"/>
   </g>
   <g id="text_15">
    <!-- Mean profit per step with confidence interval per simulation step -->
    <g transform="translate(220.284875 21.763062) scale(0.14 -0.14)">
     <defs>
      <path id="DejaVuSans-4d" d="M 628 4666 
L 1569 4666 
L 2759 1491 
L 3956 4666 
L 4897 4666 
L 4897 0 
L 4281 0 
L 4281 4097 
L 3078 897 
L 2444 897 
L 1241 4097 
L 1241 0 
L 628 0 
L 628 4666 
z
" transform="scale(0.015625)"/>
      <path id="DejaVuSans-61" d="M 2194 1759 
Q 1497 1759 1228 1600 
Q 959 1441 959 1056 
Q 959 750 1161 570 
Q 1363 391 1709 391 
Q 2188 391 2477 730 
Q 2766 1069 2766 1631 
L 2766 1759 
L 2194 1759 
z
M 3341 1997 
L 3341 0 
L 2766 0 
L 2766 531 
Q 2569 213 2275 61 
Q 1981 -91 1556 -91 
Q 1019 -91 701 211 
Q 384 513 384 1019 
Q 384 1609 779 1909 
Q 1175 2209 1959 2209 
L 2766 2209 
L 2766 2266 
Q 2766 2663 2505 2880 
Q 2244 3097 1772 3097 
Q 1472 3097 1187 3025 
Q 903 2953 641 2809 
L 641 3341 
Q 956 3463 1253 3523 
Q 1550 3584 1831 3584 
Q 2591 3584 2966 3190 
Q 3341 2797 3341 1997 
z
" transform="scale(0.015625)"/>
      <path id="DejaVuSans-6e" d="M 3513 2113 
L 3513 0 
L 2938 0 
L 2938 2094 
Q 2938 2591 2744 2837 
Q 2550 3084 2163 3084 
Q 1697 3084 1428 2787 
Q 1159 2491 1159 1978 
L 1159 0 
L 581 0 
L 581 3500 
L 1159 3500 
L 1159 2956 
Q 1366 3272 1645 3428 
Q 1925 3584 2291 3584 
Q 2894 3584 3203 3211 
Q 3513 2838 3513 2113 
z
" transform="scale(0.015625)"/>
      <path id="DejaVuSans-20" transform="scale(0.015625)"/>
      <path id="DejaVuSans-73" d="M 2834 3397 
L 2834 2853 
Q 2591 2978 2328 3040 
Q 2066 3103 1784 3103 
Q 1356 3103 1142 2972 
Q 928 2841 928 2578 
Q 928 2378 1081 2264 
Q 1234 2150 1697 2047 
L 1894 2003 
Q 2506 1872 2764 1633 
Q 3022 1394 3022 966 
Q 3022 478 2636 193 
Q 2250 -91 1575 -91 
Q 1294 -91 989 -36 
Q 684 19 347 128 
L 347 722 
Q 666 556 975 473 
Q 1284 391 1588 391 
Q 1994 391 2212 530 
Q 2431 669 2431 922 
Q 2431 1156 2273 1281 
Q 2116 1406 1581 1522 
L 1381 1569 
Q 847 1681 609 1914 
Q 372 2147 372 2553 
Q 372 3047 722 3315 
Q 1072 3584 1716 3584 
Q 2034 3584 2315 3537 
Q 2597 3491 2834 3397 
z
" transform="scale(0.015625)"/>
      <path id="DejaVuSans-77" d="M 269 3500 
L 844 3500 
L 1563 769 
L 2278 3500 
L 2956 3500 
L 3675 769 
L 4391 3500 
L 4966 3500 
L 4050 0 
L 3372 0 
L 2619 2869 
L 1863 0 
L 1184 0 
L 269 3500 
z
" transform="scale(0.015625)"/>
      <path id="DejaVuSans-68" d="M 3513 2113 
L 3513 0 
L 2938 0 
L 2938 2094 
Q 2938 2591 2744 2837 
Q 2550 3084 2163 3084 
Q 1697 3084 1428 2787 
Q 1159 2491 1159 1978 
L 1159 0 
L 581 0 
L 581 4863 
L 1159 4863 
L 1159 2956 
Q 1366 3272 1645 3428 
Q 1925 3584 2291 3584 
Q 2894 3584 3203 3211 
Q 3513 2838 3513 2113 
z
" transform="scale(0.015625)"/>
      <path id="DejaVuSans-63" d="M 3122 3366 
L 3122 2828 
Q 2878 2963 2633 3030 
Q 2388 3097 2138 3097 
Q 1578 3097 1268 2742 
Q 959 2388 959 1747 
Q 959 1106 1268 751 
Q 1578 397 2138 397 
Q 2388 397 2633 464 
Q 2878 531 3122 666 
L 3122 134 
Q 2881 22 2623 -34 
Q 2366 -91 2075 -91 
Q 1284 -91 818 406 
Q 353 903 353 1747 
Q 353 2603 823 3093 
Q 1294 3584 2113 3584 
Q 2378 3584 2631 3529 
Q 2884 3475 3122 3366 
z
" transform="scale(0.015625)"/>
      <path id="DejaVuSans-64" d="M 2906 2969 
L 2906 4863 
L 3481 4863 
L 3481 0 
L 2906 0 
L 2906 525 
Q 2725 213 2448 61 
Q 2172 -91 1784 -91 
Q 1150 -91 751 415 
Q 353 922 353 1747 
Q 353 2572 751 3078 
Q 1150 3584 1784 3584 
Q 2172 3584 2448 3432 
Q 2725 3281 2906 2969 
z
M 947 1747 
Q 947 1113 1208 752 
Q 1469 391 1925 391 
Q 2381 391 2643 752 
Q 2906 1113 2906 1747 
Q 2906 2381 2643 2742 
Q 2381 3103 1925 3103 
Q 1469 3103 1208 2742 
Q 947 2381 947 1747 
z
" transform="scale(0.015625)"/>
      <path id="DejaVuSans-76" d="M 191 3500 
L 800 3500 
L 1894 563 
L 2988 3500 
L 3597 3500 
L 2284 0 
L 1503 0 
L 191 3500 
z
" transform="scale(0.015625)"/>
      <path id="DejaVuSans-6c" d="M 603 4863 
L 1178 4863 
L 1178 0 
L 603 0 
L 603 4863 
z
" transform="scale(0.015625)"/>
      <path id="DejaVuSans-6d" d="M 3328 2828 
Q 3544 3216 3844 3400 
Q 4144 3584 4550 3584 
Q 5097 3584 5394 3201 
Q 5691 2819 5691 2113 
L 5691 0 
L 5113 0 
L 5113 2094 
Q 5113 2597 4934 2840 
Q 4756 3084 4391 3084 
Q 3944 3084 3684 2787 
Q 3425 2491 3425 1978 
L 3425 0 
L 2847 0 
L 2847 2094 
Q 2847 2600 2669 2842 
Q 2491 3084 2119 3084 
Q 1678 3084 1418 2786 
Q 1159 2488 1159 1978 
L 1159 0 
L 581 0 
L 581 3500 
L 1159 3500 
L 1159 2956 
Q 1356 3278 1631 3431 
Q 1906 3584 2284 3584 
Q 2666 3584 2933 3390 
Q 3200 3197 3328 2828 
z
" transform="scale(0.015625)"/>
      <path id="DejaVuSans-75" d="M 544 1381 
L 544 3500 
L 1119 3500 
L 1119 1403 
Q 1119 906 1312 657 
Q 1506 409 1894 409 
Q 2359 409 2629 706 
Q 2900 1003 2900 1516 
L 2900 3500 
L 3475 3500 
L 3475 0 
L 2900 0 
L 2900 538 
Q 2691 219 2414 64 
Q 2138 -91 1772 -91 
Q 1169 -91 856 284 
Q 544 659 544 1381 
z
M 1991 3584 
L 1991 3584 
z
" transform="scale(0.015625)"/>
     </defs>
     <use xlink:href="#DejaVuSans-4d"/>
     <use xlink:href="#DejaVuSans-65" transform="translate(86.279297 0)"/>
     <use xlink:href="#DejaVuSans-61" transform="translate(147.802734 0)"/>
     <use xlink:href="#DejaVuSans-6e" transform="translate(209.082031 0)"/>
     <use xlink:href="#DejaVuSans-20" transform="translate(272.460938 0)"/>
     <use xlink:href="#DejaVuSans-70" transform="translate(304.248047 0)"/>
     <use xlink:href="#DejaVuSans-72" transform="translate(367.724609 0)"/>
     <use xlink:href="#DejaVuSans-6f" transform="translate(406.587891 0)"/>
     <use xlink:href="#DejaVuSans-66" transform="translate(467.769531 0)"/>
     <use xlink:href="#DejaVuSans-69" transform="translate(502.974609 0)"/>
     <use xlink:href="#DejaVuSans-74" transform="translate(530.757812 0)"/>
     <use xlink:href="#DejaVuSans-20" transform="translate(569.966797 0)"/>
     <use xlink:href="#DejaVuSans-70" transform="translate(601.753906 0)"/>
     <use xlink:href="#DejaVuSans-65" transform="translate(665.230469 0)"/>
     <use xlink:href="#DejaVuSans-72" transform="translate(726.753906 0)"/>
     <use xlink:href="#DejaVuSans-20" transform="translate(767.867188 0)"/>
     <use xlink:href="#DejaVuSans-73" transform="translate(799.654297 0)"/>
     <use xlink:href="#DejaVuSans-74" transform="translate(851.753906 0)"/>
     <use xlink:href="#DejaVuSans-65" transform="translate(890.962891 0)"/>
     <use xlink:href="#DejaVuSans-70" transform="translate(952.486328 0)"/>
     <use xlink:href="#DejaVuSans-20" transform="translate(1015.962891 0)"/>
     <use xlink:href="#DejaVuSans-77" transform="translate(1047.75 0)"/>
     <use xlink:href="#DejaVuSans-69" transform="translate(1129.537109 0)"/>
     <use xlink:href="#DejaVuSans-74" transform="translate(1157.320312 0)"/>
     <use xlink:href="#DejaVuSans-68" transform="translate(1196.529297 0)"/>
     <use xlink:href="#DejaVuSans-20" transform="translate(1259.908203 0)"/>
     <use xlink:href="#DejaVuSans-63" transform="translate(1291.695312 0)"/>
     <use xlink:href="#DejaVuSans-6f" transform="translate(1346.675781 0)"/>
     <use xlink:href="#DejaVuSans-6e" transform="translate(1407.857422 0)"/>
     <use xlink:href="#DejaVuSans-66" transform="translate(1471.236328 0)"/>
     <use xlink:href="#DejaVuSans-69" transform="translate(1506.441406 0)"/>
     <use xlink:href="#DejaVuSans-64" transform="translate(1534.224609 0)"/>
     <use xlink:href="#DejaVuSans-65" transform="translate(1597.701172 0)"/>
     <use xlink:href="#DejaVuSans-6e" transform="translate(1659.224609 0)"/>
     <use xlink:href="#DejaVuSans-63" transform="translate(1722.603516 0)"/>
     <use xlink:href="#DejaVuSans-65" transform="translate(1777.583984 0)"/>
     <use xlink:href="#DejaVuSans-20" transform="translate(1839.107422 0)"/>
     <use xlink:href="#DejaVuSans-69" transform="translate(1870.894531 0)"/>
     <use xlink:href="#DejaVuSans-6e" transform="translate(1898.677734 0)"/>
     <use xlink:href="#DejaVuSans-74" transform="translate(1962.056641 0)"/>
     <use xlink:href="#DejaVuSans-65" transform="translate(2001.265625 0)"/>
     <use xlink:href="#DejaVuSans-72" transform="translate(2062.789062 0)"/>
     <use xlink:href="#DejaVuSans-76" transform="translate(2103.902344 0)"/>
     <use xlink:href="#DejaVuSans-61" transform="translate(2163.082031 0)"/>
     <use xlink:href="#DejaVuSans-6c" transform="translate(2224.361328 0)"/>
     <use xlink:href="#DejaVuSans-20" transform="translate(2252.144531 0)"/>
     <use xlink:href="#DejaVuSans-70" transform="translate(2283.931641 0)"/>
     <use xlink:href="#DejaVuSans-65" transform="translate(2347.408203 0)"/>
     <use xlink:href="#DejaVuSans-72" transform="translate(2408.931641 0)"/>
     <use xlink:href="#DejaVuSans-20" transform="translate(2450.044922 0)"/>
     <use xlink:href="#DejaVuSans-73" transform="translate(2481.832031 0)"/>
     <use xlink:href="#DejaVuSans-69" transform="translate(2533.931641 0)"/>
     <use xlink:href="#DejaVuSans-6d" transform="translate(2561.714844 0)"/>
     <use xlink:href="#DejaVuSans-75" transform="translate(2659.126953 0)"/>
     <use xlink:href="#DejaVuSans-6c" transform="translate(2722.505859 0)"/>
     <use xlink:href="#DejaVuSans-61" transform="translate(2750.289062 0)"/>
     <use xlink:href="#DejaVuSans-74" transform="translate(2811.568359 0)"/>
     <use xlink:href="#DejaVuSans-69" transform="translate(2850.777344 0)"/>
     <use xlink:href="#DejaVuSans-6f" transform="translate(2878.560547 0)"/>
     <use xlink:href="#DejaVuSans-6e" transform="translate(2939.742188 0)"/>
     <use xlink:href="#DejaVuSans-20" transform="translate(3003.121094 0)"/>
     <use xlink:href="#DejaVuSans-73" transform="translate(3034.908203 0)"/>
     <use xlink:href="#DejaVuSans-74" transform="translate(3087.007812 0)"/>
     <use xlink:href="#DejaVuSans-65" transform="translate(3126.216797 0)"/>
     <use xlink:href="#DejaVuSans-70" transform="translate(3187.740234 0)"/>
    </g>
    <!-- Base Product: Sour Diesel, Recipe size: 10, T0: 5.0 -->
    <g transform="translate(271.602531 37.44) scale(0.14 -0.14)">
     <defs>
      <path id="DejaVuSans-42" d="M 1259 2228 
L 1259 519 
L 2272 519 
Q 2781 519 3026 730 
Q 3272 941 3272 1375 
Q 3272 1813 3026 2020 
Q 2781 2228 2272 2228 
L 1259 2228 
z
M 1259 4147 
L 1259 2741 
L 2194 2741 
Q 2656 2741 2882 2914 
Q 3109 3088 3109 3444 
Q 3109 3797 2882 3972 
Q 2656 4147 2194 4147 
L 1259 4147 
z
M 628 4666 
L 2241 4666 
Q 2963 4666 3353 4366 
Q 3744 4066 3744 3513 
Q 3744 3084 3544 2831 
Q 3344 2578 2956 2516 
Q 3422 2416 3680 2098 
Q 3938 1781 3938 1306 
Q 3938 681 3513 340 
Q 3088 0 2303 0 
L 628 0 
L 628 4666 
z
" transform="scale(0.015625)"/>
      <path id="DejaVuSans-3a" d="M 750 794 
L 1409 794 
L 1409 0 
L 750 0 
L 750 794 
z
M 750 3309 
L 1409 3309 
L 1409 2516 
L 750 2516 
L 750 3309 
z
" transform="scale(0.015625)"/>
      <path id="DejaVuSans-44" d="M 1259 4147 
L 1259 519 
L 2022 519 
Q 2988 519 3436 956 
Q 3884 1394 3884 2338 
Q 3884 3275 3436 3711 
Q 2988 4147 2022 4147 
L 1259 4147 
z
M 628 4666 
L 1925 4666 
Q 3281 4666 3915 4102 
Q 4550 3538 4550 2338 
Q 4550 1131 3912 565 
Q 3275 0 1925 0 
L 628 0 
L 628 4666 
z
" transform="scale(0.015625)"/>
      <path id="DejaVuSans-2c" d="M 750 794 
L 1409 794 
L 1409 256 
L 897 -744 
L 494 -744 
L 750 256 
L 750 794 
z
" transform="scale(0.015625)"/>
      <path id="DejaVuSans-52" d="M 2841 2188 
Q 3044 2119 3236 1894 
Q 3428 1669 3622 1275 
L 4263 0 
L 3584 0 
L 2988 1197 
Q 2756 1666 2539 1819 
Q 2322 1972 1947 1972 
L 1259 1972 
L 1259 0 
L 628 0 
L 628 4666 
L 2053 4666 
Q 2853 4666 3247 4331 
Q 3641 3997 3641 3322 
Q 3641 2881 3436 2590 
Q 3231 2300 2841 2188 
z
M 1259 4147 
L 1259 2491 
L 2053 2491 
Q 2509 2491 2742 2702 
Q 2975 2913 2975 3322 
Q 2975 3731 2742 3939 
Q 2509 4147 2053 4147 
L 1259 4147 
z
" transform="scale(0.015625)"/>
      <path id="DejaVuSans-7a" d="M 353 3500 
L 3084 3500 
L 3084 2975 
L 922 459 
L 3084 459 
L 3084 0 
L 275 0 
L 275 525 
L 2438 3041 
L 353 3041 
L 353 3500 
z
" transform="scale(0.015625)"/>
      <path id="DejaVuSans-54" d="M -19 4666 
L 3928 4666 
L 3928 4134 
L 2272 4134 
L 2272 0 
L 1638 0 
L 1638 4134 
L -19 4134 
L -19 4666 
z
" transform="scale(0.015625)"/>
      <path id="DejaVuSans-2e" d="M 684 794 
L 1344 794 
L 1344 0 
L 684 0 
L 684 794 
z
" transform="scale(0.015625)"/>
     </defs>
     <use xlink:href="#DejaVuSans-42"/>
     <use xlink:href="#DejaVuSans-61" transform="translate(68.603516 0)"/>
     <use xlink:href="#DejaVuSans-73" transform="translate(129.882812 0)"/>
     <use xlink:href="#DejaVuSans-65" transform="translate(181.982422 0)"/>
     <use xlink:href="#DejaVuSans-20" transform="translate(243.505859 0)"/>
     <use xlink:href="#DejaVuSans-50" transform="translate(275.292969 0)"/>
     <use xlink:href="#DejaVuSans-72" transform="translate(333.845703 0)"/>
     <use xlink:href="#DejaVuSans-6f" transform="translate(372.708984 0)"/>
     <use xlink:href="#DejaVuSans-64" transform="translate(433.890625 0)"/>
     <use xlink:href="#DejaVuSans-75" transform="translate(497.367188 0)"/>
     <use xlink:href="#DejaVuSans-63" transform="translate(560.746094 0)"/>
     <use xlink:href="#DejaVuSans-74" transform="translate(615.726562 0)"/>
     <use xlink:href="#DejaVuSans-3a" transform="translate(654.935547 0)"/>
     <use xlink:href="#DejaVuSans-20" transform="translate(688.626953 0)"/>
     <use xlink:href="#DejaVuSans-53" transform="translate(720.414062 0)"/>
     <use xlink:href="#DejaVuSans-6f" transform="translate(783.890625 0)"/>
     <use xlink:href="#DejaVuSans-75" transform="translate(845.072266 0)"/>
     <use xlink:href="#DejaVuSans-72" transform="translate(908.451172 0)"/>
     <use xlink:href="#DejaVuSans-20" transform="translate(949.564453 0)"/>
     <use xlink:href="#DejaVuSans-44" transform="translate(981.351562 0)"/>
     <use xlink:href="#DejaVuSans-69" transform="translate(1058.353516 0)"/>
     <use xlink:href="#DejaVuSans-65" transform="translate(1086.136719 0)"/>
     <use xlink:href="#DejaVuSans-73" transform="translate(1147.660156 0)"/>
     <use xlink:href="#DejaVuSans-65" transform="translate(1199.759766 0)"/>
     <use xlink:href="#DejaVuSans-6c" transform="translate(1261.283203 0)"/>
     <use xlink:href="#DejaVuSans-2c" transform="translate(1289.066406 0)"/>
     <use xlink:href="#DejaVuSans-20" transform="translate(1320.853516 0)"/>
     <use xlink:href="#DejaVuSans-52" transform="translate(1352.640625 0)"/>
     <use xlink:href="#DejaVuSans-65" transform="translate(1417.623047 0)"/>
     <use xlink:href="#DejaVuSans-63" transform="translate(1479.146484 0)"/>
     <use xlink:href="#DejaVuSans-69" transform="translate(1534.126953 0)"/>
     <use xlink:href="#DejaVuSans-70" transform="translate(1561.910156 0)"/>
     <use xlink:href="#DejaVuSans-65" transform="translate(1625.386719 0)"/>
     <use xlink:href="#DejaVuSans-20" transform="translate(1686.910156 0)"/>
     <use xlink:href="#DejaVuSans-73" transform="translate(1718.697266 0)"/>
     <use xlink:href="#DejaVuSans-69" transform="translate(1770.796875 0)"/>
     <use xlink:href="#DejaVuSans-7a" transform="translate(1798.580078 0)"/>
     <use xlink:href="#DejaVuSans-65" transform="translate(1851.070312 0)"/>
     <use xlink:href="#DejaVuSans-3a" transform="translate(1912.59375 0)"/>
     <use xlink:href="#DejaVuSans-20" transform="translate(1946.285156 0)"/>
     <use xlink:href="#DejaVuSans-31" transform="translate(1978.072266 0)"/>
     <use xlink:href="#DejaVuSans-30" transform="translate(2041.695312 0)"/>
     <use xlink:href="#DejaVuSans-2c" transform="translate(2105.318359 0)"/>
     <use xlink:href="#DejaVuSans-20" transform="translate(2137.105469 0)"/>
     <use xlink:href="#DejaVuSans-54" transform="translate(2168.892578 0)"/>
     <use xlink:href="#DejaVuSans-30" transform="translate(2229.976562 0)"/>
     <use xlink:href="#DejaVuSans-3a" transform="translate(2293.599609 0)"/>
     <use xlink:href="#DejaVuSans-20" transform="translate(2327.291016 0)"/>
     <use xlink:href="#DejaVuSans-35" transform="translate(2359.078125 0)"/>
     <use xlink:href="#DejaVuSans-2e" transform="translate(2422.701172 0)"/>
     <use xlink:href="#DejaVuSans-30" transform="translate(2454.488281 0)"/>
    </g>
   </g>
  </g>
 </g>
 <defs>
  <clipPath id="p544a31a5c6">
   <rect x="50.87" y="43.44" width="793.996" height="346.6"/>
  </clipPath>
 </defs>
</svg>
