<?xml version="1.0" encoding="utf-8" standalone="no"?>
<!DOCTYPE svg PUBLIC "-//W3C//DTD SVG 1.1//EN"
  "http://www.w3.org/Graphics/SVG/1.1/DTD/svg11.dtd">
<svg xmlns:xlink="http://www.w3.org/1999/xlink" width="864pt" height="432pt" viewBox="0 0 864 432" xmlns="http://www.w3.org/2000/svg" version="1.1">
 <metadata>
  <rdf:RDF xmlns:dc="http://purl.org/dc/elements/1.1/" xmlns:cc="http://creativecommons.org/ns#" xmlns:rdf="http://www.w3.org/1999/02/22-rdf-syntax-ns#">
   <cc:Work>
    <dc:type rdf:resource="http://purl.org/dc/dcmitype/StillImage"/>
    <dc:date>2025-05-24T02:06:13.188363</dc:date>
    <dc:format>image/svg+xml</dc:format>
    <dc:creator>
     <cc:Agent>
      <dc:title>Matplotlib v3.10.3, https://matplotlib.org/</dc:title>
     </cc:Agent>
    </dc:creator>
   </cc:Work>
  </rdf:RDF>
 </metadata>
 <defs>
  <style type="text/css">*{stroke-linejoin: round; stroke-linecap: butt}</style>
 </defs>
 <g id="figure_1">
  <g id="patch_1">
   <path d="M 0 432 
L 864 432 
L 864 0 
L 0 0 
z
" style="fill: #ffffff"/>
  </g>
  <g id="axes_1">
   <g id="patch_2">
    <path d="M 50.87 390.04 
L 844.866 390.04 
L 844.866 43.44 
L 50.87 43.44 
z
" style="fill: #ffffff"/>
   </g>
   <g id="FillBetweenPolyCollection_1">
    <defs>
     <path id="m568ae5bf4f" d="M 52.193327 -312.211124 
L 52.193327 -58.139439 
L 54.83998 -57.714545 
L 57.486633 -64.926599 
L 60.133287 -72.64899 
L 62.77994 -79.479831 
L 65.426593 -86.320291 
L 68.073247 -93.132392 
L 70.7199 -98.5476 
L 73.366553 -104.401005 
L 76.013207 -108.841224 
L 78.65986 -114.448971 
L 81.306513 -117.04068 
L 83.953167 -121.527433 
L 86.59982 -125.366027 
L 89.246473 -128.201771 
L 91.893127 -130.113705 
L 94.53978 -133.73121 
L 97.186433 -136.254578 
L 99.833087 -138.816813 
L 102.47974 -140.637698 
L 105.126393 -142.60301 
L 107.773047 -145.019442 
L 110.4197 -145.870954 
L 113.066353 -147.666142 
L 115.713007 -149.108047 
L 118.35966 -151.02412 
L 121.006313 -153.033688 
L 123.652967 -154.137093 
L 126.29962 -155.516679 
L 128.946273 -157.262886 
L 131.592927 -157.83453 
L 134.23958 -160.191236 
L 136.886233 -161.715283 
L 139.532887 -162.737166 
L 142.17954 -163.775805 
L 144.826193 -165.226291 
L 147.472847 -165.279872 
L 150.1195 -166.125588 
L 152.766153 -166.971709 
L 155.412807 -167.32365 
L 158.05946 -168.653128 
L 160.706113 -169.529287 
L 163.352767 -170.29833 
L 165.99942 -170.923859 
L 168.646073 -172.132396 
L 171.292727 -172.581069 
L 173.93938 -173.569171 
L 176.586033 -173.839184 
L 179.232687 -174.856355 
L 181.87934 -174.901716 
L 184.525993 -175.772068 
L 187.172647 -175.85023 
L 189.8193 -176.310099 
L 192.465953 -176.253046 
L 195.112607 -176.936011 
L 197.75926 -178.194093 
L 200.405913 -178.146037 
L 203.052567 -179.478514 
L 205.69922 -179.27559 
L 208.345873 -180.134836 
L 210.992527 -181.166022 
L 213.63918 -182.055802 
L 216.285833 -182.268175 
L 218.932487 -182.45457 
L 221.57914 -181.962588 
L 224.225793 -182.759402 
L 226.872447 -183.577256 
L 229.5191 -184.198376 
L 232.165753 -185.003894 
L 234.812407 -185.037405 
L 237.45906 -185.333769 
L 240.105713 -185.981815 
L 242.752367 -186.184547 
L 245.39902 -187.152094 
L 248.045673 -187.598557 
L 250.692327 -187.910324 
L 253.33898 -188.510404 
L 255.985633 -188.276438 
L 258.632287 -188.377038 
L 261.27894 -188.804355 
L 263.925593 -189.650849 
L 266.572247 -190.167716 
L 269.2189 -190.04258 
L 271.865553 -190.655492 
L 274.512207 -190.908175 
L 277.15886 -191.438775 
L 279.805513 -191.774513 
L 282.452167 -191.769011 
L 285.09882 -192.100149 
L 287.745473 -192.242197 
L 290.392127 -192.630884 
L 293.03878 -192.5382 
L 295.685433 -192.958053 
L 298.332087 -193.094779 
L 300.97874 -193.335894 
L 303.625393 -192.850034 
L 306.272047 -193.015874 
L 308.9187 -193.745802 
L 311.565353 -194.055809 
L 314.212007 -194.211185 
L 316.85866 -193.966552 
L 319.505313 -193.677066 
L 322.151967 -193.518849 
L 324.79862 -193.813116 
L 327.445273 -194.167165 
L 330.091927 -194.640148 
L 332.73858 -193.996861 
L 335.385233 -194.893733 
L 338.031887 -195.459017 
L 340.67854 -195.328515 
L 343.325193 -195.555445 
L 345.971847 -195.925663 
L 348.6185 -196.384259 
L 351.265153 -197.178524 
L 353.911807 -197.403041 
L 356.55846 -197.147765 
L 359.205113 -197.31401 
L 361.851767 -197.243358 
L 364.49842 -197.304043 
L 367.145073 -197.812205 
L 369.791727 -197.908001 
L 372.43838 -198.676221 
L 375.085033 -199.053498 
L 377.731687 -198.515117 
L 380.37834 -198.689345 
L 383.024993 -198.66835 
L 385.671647 -199.335474 
L 388.3183 -199.938125 
L 390.964953 -200.191462 
L 393.611607 -200.213291 
L 396.25826 -200.238864 
L 398.904913 -200.482639 
L 401.551567 -200.373944 
L 404.19822 -200.127823 
L 406.844873 -200.237105 
L 409.491527 -200.650734 
L 412.13818 -200.88506 
L 414.784833 -201.12304 
L 417.431487 -201.108743 
L 420.07814 -201.707515 
L 422.724793 -202.297334 
L 425.371447 -201.961032 
L 428.0181 -202.15921 
L 430.664753 -201.991183 
L 433.311407 -202.390424 
L 435.95806 -202.645903 
L 438.604713 -202.354816 
L 441.251367 -202.683834 
L 443.89802 -203.215494 
L 446.544673 -203.351837 
L 449.191327 -203.682321 
L 451.83798 -203.38395 
L 454.484633 -203.594102 
L 457.131287 -203.588171 
L 459.77794 -203.914708 
L 462.424593 -203.573783 
L 465.071247 -204.096919 
L 467.7179 -204.287655 
L 470.364553 -204.730533 
L 473.011207 -204.392246 
L 475.65786 -204.931935 
L 478.304513 -204.951193 
L 480.951167 -205.342677 
L 483.59782 -205.730801 
L 486.244473 -205.712354 
L 488.891127 -205.620324 
L 491.53778 -205.593037 
L 494.184433 -206.224688 
L 496.831087 -206.689102 
L 499.47774 -206.55993 
L 502.124393 -206.379207 
L 504.771047 -206.313404 
L 507.4177 -206.635431 
L 510.064353 -207.00707 
L 512.711007 -206.405863 
L 515.35766 -206.456534 
L 518.004313 -206.899164 
L 520.650967 -206.947265 
L 523.29762 -207.317641 
L 525.944273 -207.302081 
L 528.590927 -207.118922 
L 531.23758 -207.291753 
L 533.884233 -207.383197 
L 536.530887 -207.731811 
L 539.17754 -208.011961 
L 541.824193 -208.852434 
L 544.470847 -209.300656 
L 547.1175 -209.636867 
L 549.764153 -209.634432 
L 552.410807 -209.73749 
L 555.05746 -209.322733 
L 557.704113 -209.84932 
L 560.350767 -209.319396 
L 562.99742 -209.194486 
L 565.644073 -209.43188 
L 568.290727 -208.97811 
L 570.93738 -209.069035 
L 573.584033 -208.822509 
L 576.230687 -209.052393 
L 578.87734 -209.18197 
L 581.523993 -209.165869 
L 584.170647 -209.375277 
L 586.8173 -209.644332 
L 589.463953 -209.755079 
L 592.110607 -209.734017 
L 594.75726 -209.99881 
L 597.403913 -210.346905 
L 600.050567 -210.002801 
L 602.69722 -210.053135 
L 605.343873 -210.43084 
L 607.990527 -210.893201 
L 610.63718 -210.952082 
L 613.283833 -210.377169 
L 615.930487 -210.713403 
L 618.57714 -210.672496 
L 621.223793 -210.905717 
L 623.870447 -211.056628 
L 626.5171 -211.274966 
L 629.163753 -211.793141 
L 631.810407 -211.862958 
L 634.45706 -211.90921 
L 637.103713 -211.918073 
L 639.750367 -211.10094 
L 642.39702 -211.115553 
L 645.043673 -211.183454 
L 647.690327 -211.224813 
L 650.33698 -211.556762 
L 652.983633 -211.636953 
L 655.630287 -211.489605 
L 658.27694 -211.666946 
L 660.923593 -211.524965 
L 663.570247 -212.11183 
L 666.2169 -212.096721 
L 668.863553 -211.81612 
L 671.510207 -212.144056 
L 674.15686 -212.150618 
L 676.803513 -212.633681 
L 679.450167 -213.115256 
L 682.09682 -213.310637 
L 684.743473 -212.999434 
L 687.390127 -213.47598 
L 690.03678 -213.994719 
L 692.683433 -213.717455 
L 695.330087 -213.952323 
L 697.97674 -213.673256 
L 700.623393 -213.636317 
L 703.270047 -213.753402 
L 705.9167 -213.866585 
L 708.563353 -213.698197 
L 711.210007 -214.447248 
L 713.85666 -214.569474 
L 716.503313 -214.113201 
L 719.149967 -214.599106 
L 721.79662 -214.970204 
L 724.443273 -215.281835 
L 727.089927 -215.668155 
L 729.73658 -215.436016 
L 732.383233 -215.481433 
L 735.029887 -216.088053 
L 737.67654 -216.032983 
L 740.323193 -215.880291 
L 742.969847 -215.955995 
L 745.6165 -216.277368 
L 748.263153 -216.00608 
L 750.909807 -215.754615 
L 753.55646 -216.437547 
L 756.203113 -216.308646 
L 758.849767 -215.511764 
L 761.49642 -216.006666 
L 764.143073 -215.726516 
L 766.789727 -215.784495 
L 769.43638 -215.784472 
L 772.083033 -216.127968 
L 774.729687 -215.872556 
L 777.37634 -215.545816 
L 780.022993 -215.39353 
L 782.669647 -215.436106 
L 785.3163 -215.477802 
L 787.962953 -215.283256 
L 790.609607 -215.206853 
L 793.25626 -215.604381 
L 795.902913 -215.799491 
L 798.549567 -215.423973 
L 801.19622 -215.590467 
L 803.842873 -215.780142 
L 806.489527 -216.019926 
L 809.13618 -215.684933 
L 811.782833 -215.575944 
L 814.429487 -215.80001 
L 817.07614 -215.677603 
L 819.722793 -215.376571 
L 822.369447 -215.382976 
L 825.0161 -215.547958 
L 827.662753 -215.669395 
L 830.309407 -215.74812 
L 832.95606 -216.055354 
L 835.602713 -216.17546 
L 838.249367 -216.201258 
L 840.89602 -216.331783 
L 843.542673 -216.659109 
L 843.542673 -371.971815 
L 843.542673 -371.971815 
L 840.89602 -372.210561 
L 838.249367 -372.309785 
L 835.602713 -372.375679 
L 832.95606 -372.445136 
L 830.309407 -372.556447 
L 827.662753 -372.563168 
L 825.0161 -372.735051 
L 822.369447 -372.805455 
L 819.722793 -372.707448 
L 817.07614 -372.313168 
L 814.429487 -372.050878 
L 811.782833 -372.144487 
L 809.13618 -371.97071 
L 806.489527 -371.487376 
L 803.842873 -371.574941 
L 801.19622 -371.743735 
L 798.549567 -371.837885 
L 795.902913 -371.618284 
L 793.25626 -371.74475 
L 790.609607 -371.961644 
L 787.962953 -371.982436 
L 785.3163 -371.627823 
L 782.669647 -371.662168 
L 780.022993 -371.642098 
L 777.37634 -371.48237 
L 774.729687 -371.014506 
L 772.083033 -370.600155 
L 769.43638 -370.937833 
L 766.789727 -370.956708 
L 764.143073 -370.963857 
L 761.49642 -370.727501 
L 758.849767 -371.042131 
L 756.203113 -370.693652 
L 753.55646 -370.398866 
L 750.909807 -370.761124 
L 748.263153 -370.607665 
L 745.6165 -370.260516 
L 742.969847 -370.493309 
L 740.323193 -370.543756 
L 737.67654 -370.281286 
L 735.029887 -370.137726 
L 732.383233 -370.47608 
L 729.73658 -370.421237 
L 727.089927 -370.066691 
L 724.443273 -370.198231 
L 721.79662 -370.33843 
L 719.149967 -370.437924 
L 716.503313 -370.695162 
L 713.85666 -370.58216 
L 711.210007 -370.665779 
L 708.563353 -371.062359 
L 705.9167 -370.865557 
L 703.270047 -370.756118 
L 700.623393 -370.664741 
L 697.97674 -370.515499 
L 695.330087 -370.380352 
L 692.683433 -370.457814 
L 690.03678 -370.085882 
L 687.390127 -370.197216 
L 684.743473 -370.469495 
L 682.09682 -370.3097 
L 679.450167 -370.383306 
L 676.803513 -370.464467 
L 674.15686 -370.701138 
L 671.510207 -370.484447 
L 668.863553 -370.495226 
L 666.2169 -370.205424 
L 663.570247 -369.95123 
L 660.923593 -370.169208 
L 658.27694 -370.039089 
L 655.630287 -370.087212 
L 652.983633 -369.925071 
L 650.33698 -369.958943 
L 647.690327 -369.995701 
L 645.043673 -369.914833 
L 642.39702 -369.809272 
L 639.750367 -369.968527 
L 637.103713 -369.340822 
L 634.45706 -369.193226 
L 631.810407 -368.921059 
L 629.163753 -368.864141 
L 626.5171 -369.082299 
L 623.870447 -369.059026 
L 621.223793 -368.839786 
L 618.57714 -368.830766 
L 615.930487 -368.467064 
L 613.283833 -368.673856 
L 610.63718 -368.176248 
L 607.990527 -367.909583 
L 605.343873 -368.101965 
L 602.69722 -368.407823 
L 600.050567 -368.338006 
L 597.403913 -367.877358 
L 594.75726 -368.043964 
L 592.110607 -368.112158 
L 589.463953 -367.983392 
L 586.8173 -367.958338 
L 584.170647 -368.037334 
L 581.523993 -368.119284 
L 578.87734 -367.936622 
L 576.230687 -367.766723 
L 573.584033 -367.831129 
L 570.93738 -367.564081 
L 568.290727 -367.665695 
L 565.644073 -367.411005 
L 562.99742 -367.568433 
L 560.350767 -367.309842 
L 557.704113 -366.939804 
L 555.05746 -367.26262 
L 552.410807 -366.575404 
L 549.764153 -366.710935 
L 547.1175 -366.517087 
L 544.470847 -366.653227 
L 541.824193 -366.775543 
L 539.17754 -367.282307 
L 536.530887 -367.525879 
L 533.884233 -367.870119 
L 531.23758 -367.680353 
L 528.590927 -367.469322 
L 525.944273 -367.282871 
L 523.29762 -367.298431 
L 520.650967 -367.43288 
L 518.004313 -367.411343 
L 515.35766 -367.537944 
L 512.711007 -367.354132 
L 510.064353 -366.559934 
L 507.4177 -366.641072 
L 504.771047 -366.668719 
L 502.124393 -366.427019 
L 499.47774 -366.185273 
L 496.831087 -365.950653 
L 494.184433 -365.99156 
L 491.53778 -366.18171 
L 488.891127 -366.054838 
L 486.244473 -365.72891 
L 483.59782 -365.42542 
L 480.951167 -365.562326 
L 478.304513 -365.592499 
L 475.65786 -365.412678 
L 473.011207 -365.675848 
L 470.364553 -365.245554 
L 467.7179 -365.315619 
L 465.071247 -365.3669 
L 462.424593 -365.485563 
L 459.77794 -365.053487 
L 457.131287 -365.144864 
L 454.484633 -365.218943 
L 451.83798 -365.57951 
L 449.191327 -365.103167 
L 446.544673 -365.109594 
L 443.89802 -364.998283 
L 441.251367 -365.214005 
L 438.604713 -365.300194 
L 435.95806 -365.137332 
L 433.311407 -364.961908 
L 430.664753 -364.909545 
L 428.0181 -364.641302 
L 425.371447 -364.539327 
L 422.724793 -364.11219 
L 420.07814 -364.368436 
L 417.431487 -364.830324 
L 414.784833 -364.631199 
L 412.13818 -364.440711 
L 409.491527 -364.366496 
L 406.844873 -364.211932 
L 404.19822 -364.359325 
L 401.551567 -363.831183 
L 398.904913 -363.631878 
L 396.25826 -363.475555 
L 393.611607 -363.385351 
L 390.964953 -363.144688 
L 388.3183 -363.135848 
L 385.671647 -363.098729 
L 383.024993 -363.467098 
L 380.37834 -363.206252 
L 377.731687 -363.400415 
L 375.085033 -363.118303 
L 372.43838 -363.062287 
L 369.791727 -363.396491 
L 367.145073 -363.413946 
L 364.49842 -363.49328 
L 361.851767 -363.329989 
L 359.205113 -362.987824 
L 356.55846 -363.023003 
L 353.911807 -362.557552 
L 351.265153 -362.344626 
L 348.6185 -362.525958 
L 345.971847 -362.532994 
L 343.325193 -362.558409 
L 340.67854 -362.699961 
L 338.031887 -362.327037 
L 335.385233 -362.483337 
L 332.73858 -362.75131 
L 330.091927 -361.856625 
L 327.445273 -361.890451 
L 324.79862 -362.116727 
L 322.151967 -362.291564 
L 319.505313 -361.669339 
L 316.85866 -361.310126 
L 314.212007 -360.745721 
L 311.565353 -360.421349 
L 308.9187 -360.573635 
L 306.272047 -360.924347 
L 303.625393 -360.693291 
L 300.97874 -359.960634 
L 298.332087 -359.917156 
L 295.685433 -359.622799 
L 293.03878 -359.662488 
L 290.392127 -359.261217 
L 287.745473 -359.251205 
L 285.09882 -359.100587 
L 282.452167 -359.118042 
L 279.805513 -358.766202 
L 277.15886 -358.709374 
L 274.512207 -358.8903 
L 271.865553 -358.584216 
L 269.2189 -358.579819 
L 266.572247 -358.277389 
L 263.925593 -358.077993 
L 261.27894 -358.535258 
L 258.632287 -358.633783 
L 255.985633 -358.270691 
L 253.33898 -357.780051 
L 250.692327 -357.654171 
L 248.045673 -357.317013 
L 245.39902 -357.471441 
L 242.752367 -357.49618 
L 240.105713 -357.195802 
L 237.45906 -357.339654 
L 234.812407 -357.446906 
L 232.165753 -357.028541 
L 229.5191 -357.063315 
L 226.872447 -356.967361 
L 224.225793 -357.071839 
L 221.57914 -357.349125 
L 218.932487 -356.309325 
L 216.285833 -356.037316 
L 213.63918 -355.520133 
L 210.992527 -355.701713 
L 208.345873 -355.925125 
L 205.69922 -355.951532 
L 203.052567 -355.067965 
L 200.405913 -355.733465 
L 197.75926 -355.085712 
L 195.112607 -355.195851 
L 192.465953 -355.050894 
L 189.8193 -354.449867 
L 187.172647 -354.295258 
L 184.525993 -353.770408 
L 181.87934 -353.284458 
L 179.232687 -352.69969 
L 176.586033 -352.791518 
L 173.93938 -352.259181 
L 171.292727 -352.091943 
L 168.646073 -351.546076 
L 165.99942 -351.588787 
L 163.352767 -351.450685 
L 160.706113 -351.322235 
L 158.05946 -350.91341 
L 155.412807 -351.089645 
L 152.766153 -350.633891 
L 150.1195 -350.287645 
L 147.472847 -349.774904 
L 144.826193 -348.994598 
L 142.17954 -348.822015 
L 139.532887 -348.323482 
L 136.886233 -347.969005 
L 134.23958 -347.631372 
L 131.592927 -347.884303 
L 128.946273 -347.429699 
L 126.29962 -347.56717 
L 123.652967 -346.969503 
L 121.006313 -346.344865 
L 118.35966 -346.091776 
L 115.713007 -346.012622 
L 113.066353 -345.129123 
L 110.4197 -344.679863 
L 107.773047 -343.041539 
L 105.126393 -342.622634 
L 102.47974 -341.755731 
L 99.833087 -341.097651 
L 97.186433 -340.723666 
L 94.53978 -340.532209 
L 91.893127 -340.14404 
L 89.246473 -338.807831 
L 86.59982 -337.708744 
L 83.953167 -336.617776 
L 81.306513 -336.646641 
L 78.65986 -334.00178 
L 76.013207 -333.535517 
L 73.366553 -332.148906 
L 70.7199 -330.334099 
L 68.073247 -328.420203 
L 65.426593 -326.278542 
L 62.77994 -324.508566 
L 60.133287 -320.649158 
L 57.486633 -316.295974 
L 54.83998 -313.61873 
L 52.193327 -312.211124 
z
" style="stroke: #0000ff; stroke-opacity: 0.2"/>
    </defs>
    <g clip-path="url(#p17345513eb)">
     <use xlink:href="#m568ae5bf4f" x="0" y="432" style="fill: #0000ff; fill-opacity: 0.2; stroke: #0000ff; stroke-opacity: 0.2"/>
    </g>
   </g>
   <g id="matplotlib.axis_1">
    <g id="xtick_1">
     <g id="line2d_1">
      <defs>
       <path id="m8356e50be3" d="M 0 0 
L 0 3.5 
" style="stroke: #000000; stroke-width: 0.8"/>
      </defs>
      <g>
       <use xlink:href="#m8356e50be3" x="181.87934" y="390.04" style="stroke: #000000; stroke-width: 0.8"/>
      </g>
     </g>
     <g id="text_1">
      <!-- 50 -->
      <g transform="translate(175.51684 404.638438) scale(0.1 -0.1)">
       <defs>
        <path id="DejaVuSans-35" d="M 691 4666 
L 3169 4666 
L 3169 4134 
L 1269 4134 
L 1269 2991 
Q 1406 3038 1543 3061 
Q 1681 3084 1819 3084 
Q 2600 3084 3056 2656 
Q 3513 2228 3513 1497 
Q 3513 744 3044 326 
Q 2575 -91 1722 -91 
Q 1428 -91 1123 -41 
Q 819 9 494 109 
L 494 744 
Q 775 591 1075 516 
Q 1375 441 1709 441 
Q 2250 441 2565 725 
Q 2881 1009 2881 1497 
Q 2881 1984 2565 2268 
Q 2250 2553 1709 2553 
Q 1456 2553 1204 2497 
Q 953 2441 691 2322 
L 691 4666 
z
" transform="scale(0.015625)"/>
        <path id="DejaVuSans-30" d="M 2034 4250 
Q 1547 4250 1301 3770 
Q 1056 3291 1056 2328 
Q 1056 1369 1301 889 
Q 1547 409 2034 409 
Q 2525 409 2770 889 
Q 3016 1369 3016 2328 
Q 3016 3291 2770 3770 
Q 2525 4250 2034 4250 
z
M 2034 4750 
Q 2819 4750 3233 4129 
Q 3647 3509 3647 2328 
Q 3647 1150 3233 529 
Q 2819 -91 2034 -91 
Q 1250 -91 836 529 
Q 422 1150 422 2328 
Q 422 3509 836 4129 
Q 1250 4750 2034 4750 
z
" transform="scale(0.015625)"/>
       </defs>
       <use xlink:href="#DejaVuSans-35"/>
       <use xlink:href="#DejaVuSans-30" transform="translate(63.623047 0)"/>
      </g>
     </g>
    </g>
    <g id="xtick_2">
     <g id="line2d_2">
      <g>
       <use xlink:href="#m8356e50be3" x="314.212007" y="390.04" style="stroke: #000000; stroke-width: 0.8"/>
      </g>
     </g>
     <g id="text_2">
      <!-- 100 -->
      <g transform="translate(304.668257 404.638438) scale(0.1 -0.1)">
       <defs>
        <path id="DejaVuSans-31" d="M 794 531 
L 1825 531 
L 1825 4091 
L 703 3866 
L 703 4441 
L 1819 4666 
L 2450 4666 
L 2450 531 
L 3481 531 
L 3481 0 
L 794 0 
L 794 531 
z
" transform="scale(0.015625)"/>
       </defs>
       <use xlink:href="#DejaVuSans-31"/>
       <use xlink:href="#DejaVuSans-30" transform="translate(63.623047 0)"/>
       <use xlink:href="#DejaVuSans-30" transform="translate(127.246094 0)"/>
      </g>
     </g>
    </g>
    <g id="xtick_3">
     <g id="line2d_3">
      <g>
       <use xlink:href="#m8356e50be3" x="446.544673" y="390.04" style="stroke: #000000; stroke-width: 0.8"/>
      </g>
     </g>
     <g id="text_3">
      <!-- 150 -->
      <g transform="translate(437.000923 404.638438) scale(0.1 -0.1)">
       <use xlink:href="#DejaVuSans-31"/>
       <use xlink:href="#DejaVuSans-35" transform="translate(63.623047 0)"/>
       <use xlink:href="#DejaVuSans-30" transform="translate(127.246094 0)"/>
      </g>
     </g>
    </g>
    <g id="xtick_4">
     <g id="line2d_4">
      <g>
       <use xlink:href="#m8356e50be3" x="578.87734" y="390.04" style="stroke: #000000; stroke-width: 0.8"/>
      </g>
     </g>
     <g id="text_4">
      <!-- 200 -->
      <g transform="translate(569.33359 404.638438) scale(0.1 -0.1)">
       <defs>
        <path id="DejaVuSans-32" d="M 1228 531 
L 3431 531 
L 3431 0 
L 469 0 
L 469 531 
Q 828 903 1448 1529 
Q 2069 2156 2228 2338 
Q 2531 2678 2651 2914 
Q 2772 3150 2772 3378 
Q 2772 3750 2511 3984 
Q 2250 4219 1831 4219 
Q 1534 4219 1204 4116 
Q 875 4013 500 3803 
L 500 4441 
Q 881 4594 1212 4672 
Q 1544 4750 1819 4750 
Q 2544 4750 2975 4387 
Q 3406 4025 3406 3419 
Q 3406 3131 3298 2873 
Q 3191 2616 2906 2266 
Q 2828 2175 2409 1742 
Q 1991 1309 1228 531 
z
" transform="scale(0.015625)"/>
       </defs>
       <use xlink:href="#DejaVuSans-32"/>
       <use xlink:href="#DejaVuSans-30" transform="translate(63.623047 0)"/>
       <use xlink:href="#DejaVuSans-30" transform="translate(127.246094 0)"/>
      </g>
     </g>
    </g>
    <g id="xtick_5">
     <g id="line2d_5">
      <g>
       <use xlink:href="#m8356e50be3" x="711.210007" y="390.04" style="stroke: #000000; stroke-width: 0.8"/>
      </g>
     </g>
     <g id="text_5">
      <!-- 250 -->
      <g transform="translate(701.666257 404.638438) scale(0.1 -0.1)">
       <use xlink:href="#DejaVuSans-32"/>
       <use xlink:href="#DejaVuSans-35" transform="translate(63.623047 0)"/>
       <use xlink:href="#DejaVuSans-30" transform="translate(127.246094 0)"/>
      </g>
     </g>
    </g>
    <g id="xtick_6">
     <g id="line2d_6">
      <g>
       <use xlink:href="#m8356e50be3" x="843.542673" y="390.04" style="stroke: #000000; stroke-width: 0.8"/>
      </g>
     </g>
     <g id="text_6">
      <!-- 300 -->
      <g transform="translate(833.998923 404.638438) scale(0.1 -0.1)">
       <defs>
        <path id="DejaVuSans-33" d="M 2597 2516 
Q 3050 2419 3304 2112 
Q 3559 1806 3559 1356 
Q 3559 666 3084 287 
Q 2609 -91 1734 -91 
Q 1441 -91 1130 -33 
Q 819 25 488 141 
L 488 750 
Q 750 597 1062 519 
Q 1375 441 1716 441 
Q 2309 441 2620 675 
Q 2931 909 2931 1356 
Q 2931 1769 2642 2001 
Q 2353 2234 1838 2234 
L 1294 2234 
L 1294 2753 
L 1863 2753 
Q 2328 2753 2575 2939 
Q 2822 3125 2822 3475 
Q 2822 3834 2567 4026 
Q 2313 4219 1838 4219 
Q 1578 4219 1281 4162 
Q 984 4106 628 3988 
L 628 4550 
Q 988 4650 1302 4700 
Q 1616 4750 1894 4750 
Q 2613 4750 3031 4423 
Q 3450 4097 3450 3541 
Q 3450 3153 3228 2886 
Q 3006 2619 2597 2516 
z
" transform="scale(0.015625)"/>
       </defs>
       <use xlink:href="#DejaVuSans-33"/>
       <use xlink:href="#DejaVuSans-30" transform="translate(63.623047 0)"/>
       <use xlink:href="#DejaVuSans-30" transform="translate(127.246094 0)"/>
      </g>
     </g>
    </g>
    <g id="text_7">
     <!-- Step -->
     <g transform="translate(436.482844 418.316562) scale(0.1 -0.1)">
      <defs>
       <path id="DejaVuSans-53" d="M 3425 4513 
L 3425 3897 
Q 3066 4069 2747 4153 
Q 2428 4238 2131 4238 
Q 1616 4238 1336 4038 
Q 1056 3838 1056 3469 
Q 1056 3159 1242 3001 
Q 1428 2844 1947 2747 
L 2328 2669 
Q 3034 2534 3370 2195 
Q 3706 1856 3706 1288 
Q 3706 609 3251 259 
Q 2797 -91 1919 -91 
Q 1588 -91 1214 -16 
Q 841 59 441 206 
L 441 856 
Q 825 641 1194 531 
Q 1563 422 1919 422 
Q 2459 422 2753 634 
Q 3047 847 3047 1241 
Q 3047 1584 2836 1778 
Q 2625 1972 2144 2069 
L 1759 2144 
Q 1053 2284 737 2584 
Q 422 2884 422 3419 
Q 422 4038 858 4394 
Q 1294 4750 2059 4750 
Q 2388 4750 2728 4690 
Q 3069 4631 3425 4513 
z
" transform="scale(0.015625)"/>
       <path id="DejaVuSans-74" d="M 1172 4494 
L 1172 3500 
L 2356 3500 
L 2356 3053 
L 1172 3053 
L 1172 1153 
Q 1172 725 1289 603 
Q 1406 481 1766 481 
L 2356 481 
L 2356 0 
L 1766 0 
Q 1100 0 847 248 
Q 594 497 594 1153 
L 594 3053 
L 172 3053 
L 172 3500 
L 594 3500 
L 594 4494 
L 1172 4494 
z
" transform="scale(0.015625)"/>
       <path id="DejaVuSans-65" d="M 3597 1894 
L 3597 1613 
L 953 1613 
Q 991 1019 1311 708 
Q 1631 397 2203 397 
Q 2534 397 2845 478 
Q 3156 559 3463 722 
L 3463 178 
Q 3153 47 2828 -22 
Q 2503 -91 2169 -91 
Q 1331 -91 842 396 
Q 353 884 353 1716 
Q 353 2575 817 3079 
Q 1281 3584 2069 3584 
Q 2775 3584 3186 3129 
Q 3597 2675 3597 1894 
z
M 3022 2063 
Q 3016 2534 2758 2815 
Q 2500 3097 2075 3097 
Q 1594 3097 1305 2825 
Q 1016 2553 972 2059 
L 3022 2063 
z
" transform="scale(0.015625)"/>
       <path id="DejaVuSans-70" d="M 1159 525 
L 1159 -1331 
L 581 -1331 
L 581 3500 
L 1159 3500 
L 1159 2969 
Q 1341 3281 1617 3432 
Q 1894 3584 2278 3584 
Q 2916 3584 3314 3078 
Q 3713 2572 3713 1747 
Q 3713 922 3314 415 
Q 2916 -91 2278 -91 
Q 1894 -91 1617 61 
Q 1341 213 1159 525 
z
M 3116 1747 
Q 3116 2381 2855 2742 
Q 2594 3103 2138 3103 
Q 1681 3103 1420 2742 
Q 1159 2381 1159 1747 
Q 1159 1113 1420 752 
Q 1681 391 2138 391 
Q 2594 391 2855 752 
Q 3116 1113 3116 1747 
z
" transform="scale(0.015625)"/>
      </defs>
      <use xlink:href="#DejaVuSans-53"/>
      <use xlink:href="#DejaVuSans-74" transform="translate(63.476562 0)"/>
      <use xlink:href="#DejaVuSans-65" transform="translate(102.685547 0)"/>
      <use xlink:href="#DejaVuSans-70" transform="translate(164.208984 0)"/>
     </g>
    </g>
   </g>
   <g id="matplotlib.axis_2">
    <g id="ytick_1">
     <g id="line2d_7">
      <defs>
       <path id="m506fe01f06" d="M 0 0 
L -3.5 0 
" style="stroke: #000000; stroke-width: 0.8"/>
      </defs>
      <g>
       <use xlink:href="#m506fe01f06" x="50.87" y="379.114767" style="stroke: #000000; stroke-width: 0.8"/>
      </g>
     </g>
     <g id="text_8">
      <!-- 20 -->
      <g transform="translate(31.145 382.913986) scale(0.1 -0.1)">
       <use xlink:href="#DejaVuSans-32"/>
       <use xlink:href="#DejaVuSans-30" transform="translate(63.623047 0)"/>
      </g>
     </g>
    </g>
    <g id="ytick_2">
     <g id="line2d_8">
      <g>
       <use xlink:href="#m506fe01f06" x="50.87" y="319.998897" style="stroke: #000000; stroke-width: 0.8"/>
      </g>
     </g>
     <g id="text_9">
      <!-- 40 -->
      <g transform="translate(31.145 323.798115) scale(0.1 -0.1)">
       <defs>
        <path id="DejaVuSans-34" d="M 2419 4116 
L 825 1625 
L 2419 1625 
L 2419 4116 
z
M 2253 4666 
L 3047 4666 
L 3047 1625 
L 3713 1625 
L 3713 1100 
L 3047 1100 
L 3047 0 
L 2419 0 
L 2419 1100 
L 313 1100 
L 313 1709 
L 2253 4666 
z
" transform="scale(0.015625)"/>
       </defs>
       <use xlink:href="#DejaVuSans-34"/>
       <use xlink:href="#DejaVuSans-30" transform="translate(63.623047 0)"/>
      </g>
     </g>
    </g>
    <g id="ytick_3">
     <g id="line2d_9">
      <g>
       <use xlink:href="#m506fe01f06" x="50.87" y="260.883027" style="stroke: #000000; stroke-width: 0.8"/>
      </g>
     </g>
     <g id="text_10">
      <!-- 60 -->
      <g transform="translate(31.145 264.682245) scale(0.1 -0.1)">
       <defs>
        <path id="DejaVuSans-36" d="M 2113 2584 
Q 1688 2584 1439 2293 
Q 1191 2003 1191 1497 
Q 1191 994 1439 701 
Q 1688 409 2113 409 
Q 2538 409 2786 701 
Q 3034 994 3034 1497 
Q 3034 2003 2786 2293 
Q 2538 2584 2113 2584 
z
M 3366 4563 
L 3366 3988 
Q 3128 4100 2886 4159 
Q 2644 4219 2406 4219 
Q 1781 4219 1451 3797 
Q 1122 3375 1075 2522 
Q 1259 2794 1537 2939 
Q 1816 3084 2150 3084 
Q 2853 3084 3261 2657 
Q 3669 2231 3669 1497 
Q 3669 778 3244 343 
Q 2819 -91 2113 -91 
Q 1303 -91 875 529 
Q 447 1150 447 2328 
Q 447 3434 972 4092 
Q 1497 4750 2381 4750 
Q 2619 4750 2861 4703 
Q 3103 4656 3366 4563 
z
" transform="scale(0.015625)"/>
       </defs>
       <use xlink:href="#DejaVuSans-36"/>
       <use xlink:href="#DejaVuSans-30" transform="translate(63.623047 0)"/>
      </g>
     </g>
    </g>
    <g id="ytick_4">
     <g id="line2d_10">
      <g>
       <use xlink:href="#m506fe01f06" x="50.87" y="201.767157" style="stroke: #000000; stroke-width: 0.8"/>
      </g>
     </g>
     <g id="text_11">
      <!-- 80 -->
      <g transform="translate(31.145 205.566375) scale(0.1 -0.1)">
       <defs>
        <path id="DejaVuSans-38" d="M 2034 2216 
Q 1584 2216 1326 1975 
Q 1069 1734 1069 1313 
Q 1069 891 1326 650 
Q 1584 409 2034 409 
Q 2484 409 2743 651 
Q 3003 894 3003 1313 
Q 3003 1734 2745 1975 
Q 2488 2216 2034 2216 
z
M 1403 2484 
Q 997 2584 770 2862 
Q 544 3141 544 3541 
Q 544 4100 942 4425 
Q 1341 4750 2034 4750 
Q 2731 4750 3128 4425 
Q 3525 4100 3525 3541 
Q 3525 3141 3298 2862 
Q 3072 2584 2669 2484 
Q 3125 2378 3379 2068 
Q 3634 1759 3634 1313 
Q 3634 634 3220 271 
Q 2806 -91 2034 -91 
Q 1263 -91 848 271 
Q 434 634 434 1313 
Q 434 1759 690 2068 
Q 947 2378 1403 2484 
z
M 1172 3481 
Q 1172 3119 1398 2916 
Q 1625 2713 2034 2713 
Q 2441 2713 2670 2916 
Q 2900 3119 2900 3481 
Q 2900 3844 2670 4047 
Q 2441 4250 2034 4250 
Q 1625 4250 1398 4047 
Q 1172 3844 1172 3481 
z
" transform="scale(0.015625)"/>
       </defs>
       <use xlink:href="#DejaVuSans-38"/>
       <use xlink:href="#DejaVuSans-30" transform="translate(63.623047 0)"/>
      </g>
     </g>
    </g>
    <g id="ytick_5">
     <g id="line2d_11">
      <g>
       <use xlink:href="#m506fe01f06" x="50.87" y="142.651287" style="stroke: #000000; stroke-width: 0.8"/>
      </g>
     </g>
     <g id="text_12">
      <!-- 100 -->
      <g transform="translate(24.7825 146.450505) scale(0.1 -0.1)">
       <use xlink:href="#DejaVuSans-31"/>
       <use xlink:href="#DejaVuSans-30" transform="translate(63.623047 0)"/>
       <use xlink:href="#DejaVuSans-30" transform="translate(127.246094 0)"/>
      </g>
     </g>
    </g>
    <g id="ytick_6">
     <g id="line2d_12">
      <g>
       <use xlink:href="#m506fe01f06" x="50.87" y="83.535417" style="stroke: #000000; stroke-width: 0.8"/>
      </g>
     </g>
     <g id="text_13">
      <!-- 120 -->
      <g transform="translate(24.7825 87.334635) scale(0.1 -0.1)">
       <use xlink:href="#DejaVuSans-31"/>
       <use xlink:href="#DejaVuSans-32" transform="translate(63.623047 0)"/>
       <use xlink:href="#DejaVuSans-30" transform="translate(127.246094 0)"/>
      </g>
     </g>
    </g>
    <g id="text_14">
     <!-- Profit -->
     <g transform="translate(18.702813 229.779063) rotate(-90) scale(0.1 -0.1)">
      <defs>
       <path id="DejaVuSans-50" d="M 1259 4147 
L 1259 2394 
L 2053 2394 
Q 2494 2394 2734 2622 
Q 2975 2850 2975 3272 
Q 2975 3691 2734 3919 
Q 2494 4147 2053 4147 
L 1259 4147 
z
M 628 4666 
L 2053 4666 
Q 2838 4666 3239 4311 
Q 3641 3956 3641 3272 
Q 3641 2581 3239 2228 
Q 2838 1875 2053 1875 
L 1259 1875 
L 1259 0 
L 628 0 
L 628 4666 
z
" transform="scale(0.015625)"/>
       <path id="DejaVuSans-72" d="M 2631 2963 
Q 2534 3019 2420 3045 
Q 2306 3072 2169 3072 
Q 1681 3072 1420 2755 
Q 1159 2438 1159 1844 
L 1159 0 
L 581 0 
L 581 3500 
L 1159 3500 
L 1159 2956 
Q 1341 3275 1631 3429 
Q 1922 3584 2338 3584 
Q 2397 3584 2469 3576 
Q 2541 3569 2628 3553 
L 2631 2963 
z
" transform="scale(0.015625)"/>
       <path id="DejaVuSans-6f" d="M 1959 3097 
Q 1497 3097 1228 2736 
Q 959 2375 959 1747 
Q 959 1119 1226 758 
Q 1494 397 1959 397 
Q 2419 397 2687 759 
Q 2956 1122 2956 1747 
Q 2956 2369 2687 2733 
Q 2419 3097 1959 3097 
z
M 1959 3584 
Q 2709 3584 3137 3096 
Q 3566 2609 3566 1747 
Q 3566 888 3137 398 
Q 2709 -91 1959 -91 
Q 1206 -91 779 398 
Q 353 888 353 1747 
Q 353 2609 779 3096 
Q 1206 3584 1959 3584 
z
" transform="scale(0.015625)"/>
       <path id="DejaVuSans-66" d="M 2375 4863 
L 2375 4384 
L 1825 4384 
Q 1516 4384 1395 4259 
Q 1275 4134 1275 3809 
L 1275 3500 
L 2222 3500 
L 2222 3053 
L 1275 3053 
L 1275 0 
L 697 0 
L 697 3053 
L 147 3053 
L 147 3500 
L 697 3500 
L 697 3744 
Q 697 4328 969 4595 
Q 1241 4863 1831 4863 
L 2375 4863 
z
" transform="scale(0.015625)"/>
       <path id="DejaVuSans-69" d="M 603 3500 
L 1178 3500 
L 1178 0 
L 603 0 
L 603 3500 
z
M 603 4863 
L 1178 4863 
L 1178 4134 
L 603 4134 
L 603 4863 
z
" transform="scale(0.015625)"/>
      </defs>
      <use xlink:href="#DejaVuSans-50"/>
      <use xlink:href="#DejaVuSans-72" transform="translate(58.552734 0)"/>
      <use xlink:href="#DejaVuSans-6f" transform="translate(97.416016 0)"/>
      <use xlink:href="#DejaVuSans-66" transform="translate(158.597656 0)"/>
      <use xlink:href="#DejaVuSans-69" transform="translate(193.802734 0)"/>
      <use xlink:href="#DejaVuSans-74" transform="translate(221.585938 0)"/>
     </g>
    </g>
   </g>
   <g id="line2d_13">
    <path d="M 52.193327 246.824719 
L 54.83998 246.333357 
L 57.486633 241.388708 
L 60.133287 235.350926 
L 62.77994 230.005795 
L 68.073247 221.223703 
L 73.366553 213.72505 
L 78.65986 207.77463 
L 81.306513 205.156334 
L 83.953167 202.927401 
L 86.59982 200.462609 
L 89.246473 198.495199 
L 91.893127 196.871128 
L 94.53978 194.868291 
L 110.4197 186.724591 
L 121.006313 182.310723 
L 123.652967 181.446708 
L 126.29962 180.458076 
L 128.946273 179.653707 
L 131.592927 179.140584 
L 134.23958 178.088696 
L 136.886233 177.157862 
L 142.17954 175.701095 
L 144.826193 174.889556 
L 147.472847 174.472612 
L 152.766153 173.1972 
L 155.412807 172.793358 
L 163.352767 171.125492 
L 165.99942 170.743683 
L 173.93938 169.08583 
L 181.87934 167.906913 
L 184.525993 167.228762 
L 195.112607 165.934069 
L 197.75926 165.360103 
L 205.69922 164.386445 
L 213.63918 163.212038 
L 216.285833 162.847254 
L 224.225793 162.08438 
L 234.812407 160.757845 
L 237.45906 160.663289 
L 242.752367 160.159636 
L 245.39902 159.688232 
L 248.045673 159.542215 
L 253.33898 158.854773 
L 258.632287 158.49459 
L 263.925593 158.135579 
L 266.572247 157.777448 
L 269.2189 157.6888 
L 274.512207 157.100763 
L 316.85866 154.361661 
L 319.505313 154.326797 
L 322.151967 154.094793 
L 327.445273 153.971192 
L 338.031887 153.106973 
L 348.6185 152.544892 
L 353.911807 152.019703 
L 369.791727 151.347754 
L 375.085033 150.9141 
L 377.731687 151.042234 
L 380.37834 151.052201 
L 385.671647 150.782898 
L 388.3183 150.463014 
L 404.19822 149.756426 
L 406.844873 149.775481 
L 409.491527 149.491385 
L 422.724793 148.795238 
L 430.664753 148.549636 
L 435.95806 148.108382 
L 438.604713 148.172495 
L 451.83798 147.51827 
L 457.131287 147.633483 
L 494.184433 145.891876 
L 496.831087 145.680123 
L 507.4177 145.361749 
L 518.004313 144.844746 
L 528.590927 144.705878 
L 533.884233 144.373342 
L 539.17754 144.352866 
L 547.1175 143.923023 
L 549.764153 143.827317 
L 552.410807 143.843553 
L 557.704113 143.605438 
L 560.350767 143.685381 
L 565.644073 143.578558 
L 570.93738 143.683442 
L 576.230687 143.590442 
L 581.523993 143.357423 
L 605.343873 142.733597 
L 610.63718 142.435835 
L 615.930487 142.409766 
L 629.163753 141.671359 
L 639.750367 141.465266 
L 642.39702 141.537587 
L 655.630287 141.211591 
L 668.863553 140.844327 
L 679.450167 140.250719 
L 682.09682 140.189832 
L 684.743473 140.265535 
L 695.330087 139.833663 
L 697.97674 139.905623 
L 708.563353 139.619722 
L 711.210007 139.443487 
L 713.85666 139.424183 
L 716.503313 139.595818 
L 729.73658 139.071374 
L 756.203113 138.498851 
L 758.849767 138.723053 
L 761.49642 138.632917 
L 772.083033 138.635938 
L 780.022993 138.482186 
L 801.19622 138.332899 
L 806.489527 138.246349 
L 822.369447 137.905785 
L 835.602713 137.72443 
L 843.542673 137.684538 
L 843.542673 137.684538 
" clip-path="url(#p17345513eb)" style="fill: none; stroke: #0000ff; stroke-width: 1.5; stroke-linecap: square"/>
   </g>
   <g id="patch_3">
    <path d="M 50.87 390.04 
L 50.87 43.44 
" style="fill: none; stroke: #000000; stroke-width: 0.8; stroke-linejoin: miter; stroke-linecap: square"/>
   </g>
   <g id="patch_4">
    <path d="M 844.866 390.04 
L 844.866 43.44 
" style="fill: none; stroke: #000000; stroke-width: 0.8; stroke-linejoin: miter; stroke-linecap: square"/>
   </g>
   <g id="patch_5">
    <path d="M 50.87 390.04 
L 844.866 390.04 
" style="fill: none; stroke: #000000; stroke-width: 0.8; stroke-linejoin: miter; stroke-linecap: square"/>
   </g>
   <g id="patch_6">
    <path d="M 50.87 43.44 
L 844.866 43.44 
" style="fill: none; stroke: #000000; stroke-width: 0.8; stroke-linejoin: miter; stroke-linecap: square"/>
   </g>
   <g id="text_15">
    <!-- Mean profit per step with confidence interval per simulation step -->
    <g transform="translate(220.284875 21.763062) scale(0.14 -0.14)">
     <defs>
      <path id="DejaVuSans-4d" d="M 628 4666 
L 1569 4666 
L 2759 1491 
L 3956 4666 
L 4897 4666 
L 4897 0 
L 4281 0 
L 4281 4097 
L 3078 897 
L 2444 897 
L 1241 4097 
L 1241 0 
L 628 0 
L 628 4666 
z
" transform="scale(0.015625)"/>
      <path id="DejaVuSans-61" d="M 2194 1759 
Q 1497 1759 1228 1600 
Q 959 1441 959 1056 
Q 959 750 1161 570 
Q 1363 391 1709 391 
Q 2188 391 2477 730 
Q 2766 1069 2766 1631 
L 2766 1759 
L 2194 1759 
z
M 3341 1997 
L 3341 0 
L 2766 0 
L 2766 531 
Q 2569 213 2275 61 
Q 1981 -91 1556 -91 
Q 1019 -91 701 211 
Q 384 513 384 1019 
Q 384 1609 779 1909 
Q 1175 2209 1959 2209 
L 2766 2209 
L 2766 2266 
Q 2766 2663 2505 2880 
Q 2244 3097 1772 3097 
Q 1472 3097 1187 3025 
Q 903 2953 641 2809 
L 641 3341 
Q 956 3463 1253 3523 
Q 1550 3584 1831 3584 
Q 2591 3584 2966 3190 
Q 3341 2797 3341 1997 
z
" transform="scale(0.015625)"/>
      <path id="DejaVuSans-6e" d="M 3513 2113 
L 3513 0 
L 2938 0 
L 2938 2094 
Q 2938 2591 2744 2837 
Q 2550 3084 2163 3084 
Q 1697 3084 1428 2787 
Q 1159 2491 1159 1978 
L 1159 0 
L 581 0 
L 581 3500 
L 1159 3500 
L 1159 2956 
Q 1366 3272 1645 3428 
Q 1925 3584 2291 3584 
Q 2894 3584 3203 3211 
Q 3513 2838 3513 2113 
z
" transform="scale(0.015625)"/>
      <path id="DejaVuSans-20" transform="scale(0.015625)"/>
      <path id="DejaVuSans-73" d="M 2834 3397 
L 2834 2853 
Q 2591 2978 2328 3040 
Q 2066 3103 1784 3103 
Q 1356 3103 1142 2972 
Q 928 2841 928 2578 
Q 928 2378 1081 2264 
Q 1234 2150 1697 2047 
L 1894 2003 
Q 2506 1872 2764 1633 
Q 3022 1394 3022 966 
Q 3022 478 2636 193 
Q 2250 -91 1575 -91 
Q 1294 -91 989 -36 
Q 684 19 347 128 
L 347 722 
Q 666 556 975 473 
Q 1284 391 1588 391 
Q 1994 391 2212 530 
Q 2431 669 2431 922 
Q 2431 1156 2273 1281 
Q 2116 1406 1581 1522 
L 1381 1569 
Q 847 1681 609 1914 
Q 372 2147 372 2553 
Q 372 3047 722 3315 
Q 1072 3584 1716 3584 
Q 2034 3584 2315 3537 
Q 2597 3491 2834 3397 
z
" transform="scale(0.015625)"/>
      <path id="DejaVuSans-77" d="M 269 3500 
L 844 3500 
L 1563 769 
L 2278 3500 
L 2956 3500 
L 3675 769 
L 4391 3500 
L 4966 3500 
L 4050 0 
L 3372 0 
L 2619 2869 
L 1863 0 
L 1184 0 
L 269 3500 
z
" transform="scale(0.015625)"/>
      <path id="DejaVuSans-68" d="M 3513 2113 
L 3513 0 
L 2938 0 
L 2938 2094 
Q 2938 2591 2744 2837 
Q 2550 3084 2163 3084 
Q 1697 3084 1428 2787 
Q 1159 2491 1159 1978 
L 1159 0 
L 581 0 
L 581 4863 
L 1159 4863 
L 1159 2956 
Q 1366 3272 1645 3428 
Q 1925 3584 2291 3584 
Q 2894 3584 3203 3211 
Q 3513 2838 3513 2113 
z
" transform="scale(0.015625)"/>
      <path id="DejaVuSans-63" d="M 3122 3366 
L 3122 2828 
Q 2878 2963 2633 3030 
Q 2388 3097 2138 3097 
Q 1578 3097 1268 2742 
Q 959 2388 959 1747 
Q 959 1106 1268 751 
Q 1578 397 2138 397 
Q 2388 397 2633 464 
Q 2878 531 3122 666 
L 3122 134 
Q 2881 22 2623 -34 
Q 2366 -91 2075 -91 
Q 1284 -91 818 406 
Q 353 903 353 1747 
Q 353 2603 823 3093 
Q 1294 3584 2113 3584 
Q 2378 3584 2631 3529 
Q 2884 3475 3122 3366 
z
" transform="scale(0.015625)"/>
      <path id="DejaVuSans-64" d="M 2906 2969 
L 2906 4863 
L 3481 4863 
L 3481 0 
L 2906 0 
L 2906 525 
Q 2725 213 2448 61 
Q 2172 -91 1784 -91 
Q 1150 -91 751 415 
Q 353 922 353 1747 
Q 353 2572 751 3078 
Q 1150 3584 1784 3584 
Q 2172 3584 2448 3432 
Q 2725 3281 2906 2969 
z
M 947 1747 
Q 947 1113 1208 752 
Q 1469 391 1925 391 
Q 2381 391 2643 752 
Q 2906 1113 2906 1747 
Q 2906 2381 2643 2742 
Q 2381 3103 1925 3103 
Q 1469 3103 1208 2742 
Q 947 2381 947 1747 
z
" transform="scale(0.015625)"/>
      <path id="DejaVuSans-76" d="M 191 3500 
L 800 3500 
L 1894 563 
L 2988 3500 
L 3597 3500 
L 2284 0 
L 1503 0 
L 191 3500 
z
" transform="scale(0.015625)"/>
      <path id="DejaVuSans-6c" d="M 603 4863 
L 1178 4863 
L 1178 0 
L 603 0 
L 603 4863 
z
" transform="scale(0.015625)"/>
      <path id="DejaVuSans-6d" d="M 3328 2828 
Q 3544 3216 3844 3400 
Q 4144 3584 4550 3584 
Q 5097 3584 5394 3201 
Q 5691 2819 5691 2113 
L 5691 0 
L 5113 0 
L 5113 2094 
Q 5113 2597 4934 2840 
Q 4756 3084 4391 3084 
Q 3944 3084 3684 2787 
Q 3425 2491 3425 1978 
L 3425 0 
L 2847 0 
L 2847 2094 
Q 2847 2600 2669 2842 
Q 2491 3084 2119 3084 
Q 1678 3084 1418 2786 
Q 1159 2488 1159 1978 
L 1159 0 
L 581 0 
L 581 3500 
L 1159 3500 
L 1159 2956 
Q 1356 3278 1631 3431 
Q 1906 3584 2284 3584 
Q 2666 3584 2933 3390 
Q 3200 3197 3328 2828 
z
" transform="scale(0.015625)"/>
      <path id="DejaVuSans-75" d="M 544 1381 
L 544 3500 
L 1119 3500 
L 1119 1403 
Q 1119 906 1312 657 
Q 1506 409 1894 409 
Q 2359 409 2629 706 
Q 2900 1003 2900 1516 
L 2900 3500 
L 3475 3500 
L 3475 0 
L 2900 0 
L 2900 538 
Q 2691 219 2414 64 
Q 2138 -91 1772 -91 
Q 1169 -91 856 284 
Q 544 659 544 1381 
z
M 1991 3584 
L 1991 3584 
z
" transform="scale(0.015625)"/>
     </defs>
     <use xlink:href="#DejaVuSans-4d"/>
     <use xlink:href="#DejaVuSans-65" transform="translate(86.279297 0)"/>
     <use xlink:href="#DejaVuSans-61" transform="translate(147.802734 0)"/>
     <use xlink:href="#DejaVuSans-6e" transform="translate(209.082031 0)"/>
     <use xlink:href="#DejaVuSans-20" transform="translate(272.460938 0)"/>
     <use xlink:href="#DejaVuSans-70" transform="translate(304.248047 0)"/>
     <use xlink:href="#DejaVuSans-72" transform="translate(367.724609 0)"/>
     <use xlink:href="#DejaVuSans-6f" transform="translate(406.587891 0)"/>
     <use xlink:href="#DejaVuSans-66" transform="translate(467.769531 0)"/>
     <use xlink:href="#DejaVuSans-69" transform="translate(502.974609 0)"/>
     <use xlink:href="#DejaVuSans-74" transform="translate(530.757812 0)"/>
     <use xlink:href="#DejaVuSans-20" transform="translate(569.966797 0)"/>
     <use xlink:href="#DejaVuSans-70" transform="translate(601.753906 0)"/>
     <use xlink:href="#DejaVuSans-65" transform="translate(665.230469 0)"/>
     <use xlink:href="#DejaVuSans-72" transform="translate(726.753906 0)"/>
     <use xlink:href="#DejaVuSans-20" transform="translate(767.867188 0)"/>
     <use xlink:href="#DejaVuSans-73" transform="translate(799.654297 0)"/>
     <use xlink:href="#DejaVuSans-74" transform="translate(851.753906 0)"/>
     <use xlink:href="#DejaVuSans-65" transform="translate(890.962891 0)"/>
     <use xlink:href="#DejaVuSans-70" transform="translate(952.486328 0)"/>
     <use xlink:href="#DejaVuSans-20" transform="translate(1015.962891 0)"/>
     <use xlink:href="#DejaVuSans-77" transform="translate(1047.75 0)"/>
     <use xlink:href="#DejaVuSans-69" transform="translate(1129.537109 0)"/>
     <use xlink:href="#DejaVuSans-74" transform="translate(1157.320312 0)"/>
     <use xlink:href="#DejaVuSans-68" transform="translate(1196.529297 0)"/>
     <use xlink:href="#DejaVuSans-20" transform="translate(1259.908203 0)"/>
     <use xlink:href="#DejaVuSans-63" transform="translate(1291.695312 0)"/>
     <use xlink:href="#DejaVuSans-6f" transform="translate(1346.675781 0)"/>
     <use xlink:href="#DejaVuSans-6e" transform="translate(1407.857422 0)"/>
     <use xlink:href="#DejaVuSans-66" transform="translate(1471.236328 0)"/>
     <use xlink:href="#DejaVuSans-69" transform="translate(1506.441406 0)"/>
     <use xlink:href="#DejaVuSans-64" transform="translate(1534.224609 0)"/>
     <use xlink:href="#DejaVuSans-65" transform="translate(1597.701172 0)"/>
     <use xlink:href="#DejaVuSans-6e" transform="translate(1659.224609 0)"/>
     <use xlink:href="#DejaVuSans-63" transform="translate(1722.603516 0)"/>
     <use xlink:href="#DejaVuSans-65" transform="translate(1777.583984 0)"/>
     <use xlink:href="#DejaVuSans-20" transform="translate(1839.107422 0)"/>
     <use xlink:href="#DejaVuSans-69" transform="translate(1870.894531 0)"/>
     <use xlink:href="#DejaVuSans-6e" transform="translate(1898.677734 0)"/>
     <use xlink:href="#DejaVuSans-74" transform="translate(1962.056641 0)"/>
     <use xlink:href="#DejaVuSans-65" transform="translate(2001.265625 0)"/>
     <use xlink:href="#DejaVuSans-72" transform="translate(2062.789062 0)"/>
     <use xlink:href="#DejaVuSans-76" transform="translate(2103.902344 0)"/>
     <use xlink:href="#DejaVuSans-61" transform="translate(2163.082031 0)"/>
     <use xlink:href="#DejaVuSans-6c" transform="translate(2224.361328 0)"/>
     <use xlink:href="#DejaVuSans-20" transform="translate(2252.144531 0)"/>
     <use xlink:href="#DejaVuSans-70" transform="translate(2283.931641 0)"/>
     <use xlink:href="#DejaVuSans-65" transform="translate(2347.408203 0)"/>
     <use xlink:href="#DejaVuSans-72" transform="translate(2408.931641 0)"/>
     <use xlink:href="#DejaVuSans-20" transform="translate(2450.044922 0)"/>
     <use xlink:href="#DejaVuSans-73" transform="translate(2481.832031 0)"/>
     <use xlink:href="#DejaVuSans-69" transform="translate(2533.931641 0)"/>
     <use xlink:href="#DejaVuSans-6d" transform="translate(2561.714844 0)"/>
     <use xlink:href="#DejaVuSans-75" transform="translate(2659.126953 0)"/>
     <use xlink:href="#DejaVuSans-6c" transform="translate(2722.505859 0)"/>
     <use xlink:href="#DejaVuSans-61" transform="translate(2750.289062 0)"/>
     <use xlink:href="#DejaVuSans-74" transform="translate(2811.568359 0)"/>
     <use xlink:href="#DejaVuSans-69" transform="translate(2850.777344 0)"/>
     <use xlink:href="#DejaVuSans-6f" transform="translate(2878.560547 0)"/>
     <use xlink:href="#DejaVuSans-6e" transform="translate(2939.742188 0)"/>
     <use xlink:href="#DejaVuSans-20" transform="translate(3003.121094 0)"/>
     <use xlink:href="#DejaVuSans-73" transform="translate(3034.908203 0)"/>
     <use xlink:href="#DejaVuSans-74" transform="translate(3087.007812 0)"/>
     <use xlink:href="#DejaVuSans-65" transform="translate(3126.216797 0)"/>
     <use xlink:href="#DejaVuSans-70" transform="translate(3187.740234 0)"/>
    </g>
    <!-- Base Product: Sour Diesel, Recipe size: 8, T0: 20.0 -->
    <g transform="translate(271.602531 37.44) scale(0.14 -0.14)">
     <defs>
      <path id="DejaVuSans-42" d="M 1259 2228 
L 1259 519 
L 2272 519 
Q 2781 519 3026 730 
Q 3272 941 3272 1375 
Q 3272 1813 3026 2020 
Q 2781 2228 2272 2228 
L 1259 2228 
z
M 1259 4147 
L 1259 2741 
L 2194 2741 
Q 2656 2741 2882 2914 
Q 3109 3088 3109 3444 
Q 3109 3797 2882 3972 
Q 2656 4147 2194 4147 
L 1259 4147 
z
M 628 4666 
L 2241 4666 
Q 2963 4666 3353 4366 
Q 3744 4066 3744 3513 
Q 3744 3084 3544 2831 
Q 3344 2578 2956 2516 
Q 3422 2416 3680 2098 
Q 3938 1781 3938 1306 
Q 3938 681 3513 340 
Q 3088 0 2303 0 
L 628 0 
L 628 4666 
z
" transform="scale(0.015625)"/>
      <path id="DejaVuSans-3a" d="M 750 794 
L 1409 794 
L 1409 0 
L 750 0 
L 750 794 
z
M 750 3309 
L 1409 3309 
L 1409 2516 
L 750 2516 
L 750 3309 
z
" transform="scale(0.015625)"/>
      <path id="DejaVuSans-44" d="M 1259 4147 
L 1259 519 
L 2022 519 
Q 2988 519 3436 956 
Q 3884 1394 3884 2338 
Q 3884 3275 3436 3711 
Q 2988 4147 2022 4147 
L 1259 4147 
z
M 628 4666 
L 1925 4666 
Q 3281 4666 3915 4102 
Q 4550 3538 4550 2338 
Q 4550 1131 3912 565 
Q 3275 0 1925 0 
L 628 0 
L 628 4666 
z
" transform="scale(0.015625)"/>
      <path id="DejaVuSans-2c" d="M 750 794 
L 1409 794 
L 1409 256 
L 897 -744 
L 494 -744 
L 750 256 
L 750 794 
z
" transform="scale(0.015625)"/>
      <path id="DejaVuSans-52" d="M 2841 2188 
Q 3044 2119 3236 1894 
Q 3428 1669 3622 1275 
L 4263 0 
L 3584 0 
L 2988 1197 
Q 2756 1666 2539 1819 
Q 2322 1972 1947 1972 
L 1259 1972 
L 1259 0 
L 628 0 
L 628 4666 
L 2053 4666 
Q 2853 4666 3247 4331 
Q 3641 3997 3641 3322 
Q 3641 2881 3436 2590 
Q 3231 2300 2841 2188 
z
M 1259 4147 
L 1259 2491 
L 2053 2491 
Q 2509 2491 2742 2702 
Q 2975 2913 2975 3322 
Q 2975 3731 2742 3939 
Q 2509 4147 2053 4147 
L 1259 4147 
z
" transform="scale(0.015625)"/>
      <path id="DejaVuSans-7a" d="M 353 3500 
L 3084 3500 
L 3084 2975 
L 922 459 
L 3084 459 
L 3084 0 
L 275 0 
L 275 525 
L 2438 3041 
L 353 3041 
L 353 3500 
z
" transform="scale(0.015625)"/>
      <path id="DejaVuSans-54" d="M -19 4666 
L 3928 4666 
L 3928 4134 
L 2272 4134 
L 2272 0 
L 1638 0 
L 1638 4134 
L -19 4134 
L -19 4666 
z
" transform="scale(0.015625)"/>
      <path id="DejaVuSans-2e" d="M 684 794 
L 1344 794 
L 1344 0 
L 684 0 
L 684 794 
z
" transform="scale(0.015625)"/>
     </defs>
     <use xlink:href="#DejaVuSans-42"/>
     <use xlink:href="#DejaVuSans-61" transform="translate(68.603516 0)"/>
     <use xlink:href="#DejaVuSans-73" transform="translate(129.882812 0)"/>
     <use xlink:href="#DejaVuSans-65" transform="translate(181.982422 0)"/>
     <use xlink:href="#DejaVuSans-20" transform="translate(243.505859 0)"/>
     <use xlink:href="#DejaVuSans-50" transform="translate(275.292969 0)"/>
     <use xlink:href="#DejaVuSans-72" transform="translate(333.845703 0)"/>
     <use xlink:href="#DejaVuSans-6f" transform="translate(372.708984 0)"/>
     <use xlink:href="#DejaVuSans-64" transform="translate(433.890625 0)"/>
     <use xlink:href="#DejaVuSans-75" transform="translate(497.367188 0)"/>
     <use xlink:href="#DejaVuSans-63" transform="translate(560.746094 0)"/>
     <use xlink:href="#DejaVuSans-74" transform="translate(615.726562 0)"/>
     <use xlink:href="#DejaVuSans-3a" transform="translate(654.935547 0)"/>
     <use xlink:href="#DejaVuSans-20" transform="translate(688.626953 0)"/>
     <use xlink:href="#DejaVuSans-53" transform="translate(720.414062 0)"/>
     <use xlink:href="#DejaVuSans-6f" transform="translate(783.890625 0)"/>
     <use xlink:href="#DejaVuSans-75" transform="translate(845.072266 0)"/>
     <use xlink:href="#DejaVuSans-72" transform="translate(908.451172 0)"/>
     <use xlink:href="#DejaVuSans-20" transform="translate(949.564453 0)"/>
     <use xlink:href="#DejaVuSans-44" transform="translate(981.351562 0)"/>
     <use xlink:href="#DejaVuSans-69" transform="translate(1058.353516 0)"/>
     <use xlink:href="#DejaVuSans-65" transform="translate(1086.136719 0)"/>
     <use xlink:href="#DejaVuSans-73" transform="translate(1147.660156 0)"/>
     <use xlink:href="#DejaVuSans-65" transform="translate(1199.759766 0)"/>
     <use xlink:href="#DejaVuSans-6c" transform="translate(1261.283203 0)"/>
     <use xlink:href="#DejaVuSans-2c" transform="translate(1289.066406 0)"/>
     <use xlink:href="#DejaVuSans-20" transform="translate(1320.853516 0)"/>
     <use xlink:href="#DejaVuSans-52" transform="translate(1352.640625 0)"/>
     <use xlink:href="#DejaVuSans-65" transform="translate(1417.623047 0)"/>
     <use xlink:href="#DejaVuSans-63" transform="translate(1479.146484 0)"/>
     <use xlink:href="#DejaVuSans-69" transform="translate(1534.126953 0)"/>
     <use xlink:href="#DejaVuSans-70" transform="translate(1561.910156 0)"/>
     <use xlink:href="#DejaVuSans-65" transform="translate(1625.386719 0)"/>
     <use xlink:href="#DejaVuSans-20" transform="translate(1686.910156 0)"/>
     <use xlink:href="#DejaVuSans-73" transform="translate(1718.697266 0)"/>
     <use xlink:href="#DejaVuSans-69" transform="translate(1770.796875 0)"/>
     <use xlink:href="#DejaVuSans-7a" transform="translate(1798.580078 0)"/>
     <use xlink:href="#DejaVuSans-65" transform="translate(1851.070312 0)"/>
     <use xlink:href="#DejaVuSans-3a" transform="translate(1912.59375 0)"/>
     <use xlink:href="#DejaVuSans-20" transform="translate(1946.285156 0)"/>
     <use xlink:href="#DejaVuSans-38" transform="translate(1978.072266 0)"/>
     <use xlink:href="#DejaVuSans-2c" transform="translate(2041.695312 0)"/>
     <use xlink:href="#DejaVuSans-20" transform="translate(2073.482422 0)"/>
     <use xlink:href="#DejaVuSans-54" transform="translate(2105.269531 0)"/>
     <use xlink:href="#DejaVuSans-30" transform="translate(2166.353516 0)"/>
     <use xlink:href="#DejaVuSans-3a" transform="translate(2229.976562 0)"/>
     <use xlink:href="#DejaVuSans-20" transform="translate(2263.667969 0)"/>
     <use xlink:href="#DejaVuSans-32" transform="translate(2295.455078 0)"/>
     <use xlink:href="#DejaVuSans-30" transform="translate(2359.078125 0)"/>
     <use xlink:href="#DejaVuSans-2e" transform="translate(2422.701172 0)"/>
     <use xlink:href="#DejaVuSans-30" transform="translate(2454.488281 0)"/>
    </g>
   </g>
  </g>
 </g>
 <defs>
  <clipPath id="p17345513eb">
   <rect x="50.87" y="43.44" width="793.996" height="346.6"/>
  </clipPath>
 </defs>
</svg>
