<?xml version="1.0" encoding="utf-8" standalone="no"?>
<!DOCTYPE svg PUBLIC "-//W3C//DTD SVG 1.1//EN"
  "http://www.w3.org/Graphics/SVG/1.1/DTD/svg11.dtd">
<svg xmlns:xlink="http://www.w3.org/1999/xlink" width="864pt" height="432pt" viewBox="0 0 864 432" xmlns="http://www.w3.org/2000/svg" version="1.1">
 <metadata>
  <rdf:RDF xmlns:dc="http://purl.org/dc/elements/1.1/" xmlns:cc="http://creativecommons.org/ns#" xmlns:rdf="http://www.w3.org/1999/02/22-rdf-syntax-ns#">
   <cc:Work>
    <dc:type rdf:resource="http://purl.org/dc/dcmitype/StillImage"/>
    <dc:date>2025-05-24T02:05:07.675519</dc:date>
    <dc:format>image/svg+xml</dc:format>
    <dc:creator>
     <cc:Agent>
      <dc:title>Matplotlib v3.10.3, https://matplotlib.org/</dc:title>
     </cc:Agent>
    </dc:creator>
   </cc:Work>
  </rdf:RDF>
 </metadata>
 <defs>
  <style type="text/css">*{stroke-linejoin: round; stroke-linecap: butt}</style>
 </defs>
 <g id="figure_1">
  <g id="patch_1">
   <path d="M 0 432 
L 864 432 
L 864 0 
L 0 0 
z
" style="fill: #ffffff"/>
  </g>
  <g id="axes_1">
   <g id="patch_2">
    <path d="M 50.87 390.04 
L 844.866 390.04 
L 844.866 43.44 
L 50.87 43.44 
z
" style="fill: #ffffff"/>
   </g>
   <g id="FillBetweenPolyCollection_1">
    <defs>
     <path id="macc518c034" d="M 52.193327 -311.116107 
L 52.193327 -58.553872 
L 54.83998 -57.714545 
L 57.486633 -67.798674 
L 60.133287 -79.634492 
L 62.77994 -91.114381 
L 65.426593 -100.386386 
L 68.073247 -109.281392 
L 70.7199 -117.700295 
L 73.366553 -125.578912 
L 76.013207 -131.853659 
L 78.65986 -137.924496 
L 81.306513 -144.340617 
L 83.953167 -149.610444 
L 86.59982 -154.431594 
L 89.246473 -158.915376 
L 91.893127 -162.848927 
L 94.53978 -166.798346 
L 97.186433 -170.222288 
L 99.833087 -173.599495 
L 102.47974 -176.452382 
L 105.126393 -179.774681 
L 107.773047 -181.712922 
L 110.4197 -184.201962 
L 113.066353 -186.625036 
L 115.713007 -188.744895 
L 118.35966 -191.063431 
L 121.006313 -193.597458 
L 123.652967 -195.169101 
L 126.29962 -197.147207 
L 128.946273 -199.12803 
L 131.592927 -200.149253 
L 134.23958 -201.864943 
L 136.886233 -203.131856 
L 139.532887 -204.61896 
L 142.17954 -205.836811 
L 144.826193 -207.457984 
L 147.472847 -208.724318 
L 150.1195 -209.515641 
L 152.766153 -210.88736 
L 155.412807 -211.973324 
L 158.05946 -213.418336 
L 160.706113 -214.282684 
L 163.352767 -215.414058 
L 165.99942 -216.09975 
L 168.646073 -216.983251 
L 171.292727 -217.682662 
L 173.93938 -218.420602 
L 176.586033 -219.75896 
L 179.232687 -220.673305 
L 181.87934 -221.234104 
L 184.525993 -222.060748 
L 187.172647 -222.846592 
L 189.8193 -223.68829 
L 192.465953 -224.05353 
L 195.112607 -224.638314 
L 197.75926 -225.307103 
L 200.405913 -225.952307 
L 203.052567 -226.704255 
L 205.69922 -227.005979 
L 208.345873 -227.581342 
L 210.992527 -228.862576 
L 213.63918 -229.689709 
L 216.285833 -230.352753 
L 218.932487 -230.818589 
L 221.57914 -231.426312 
L 224.225793 -231.908539 
L 226.872447 -232.477377 
L 229.5191 -232.939762 
L 232.165753 -233.309233 
L 234.812407 -233.471497 
L 237.45906 -234.057239 
L 240.105713 -234.338584 
L 242.752367 -234.402501 
L 245.39902 -235.036503 
L 248.045673 -235.543652 
L 250.692327 -236.072715 
L 253.33898 -236.315042 
L 255.985633 -236.848225 
L 258.632287 -237.038907 
L 261.27894 -237.30228 
L 263.925593 -238.008038 
L 266.572247 -238.485344 
L 269.2189 -238.55053 
L 271.865553 -238.974631 
L 274.512207 -239.43441 
L 277.15886 -239.917907 
L 279.805513 -240.142997 
L 282.452167 -240.91461 
L 285.09882 -241.118052 
L 287.745473 -241.399732 
L 290.392127 -241.739605 
L 293.03878 -241.84724 
L 295.685433 -242.254081 
L 298.332087 -242.616581 
L 300.97874 -242.831783 
L 303.625393 -242.849154 
L 306.272047 -243.183704 
L 308.9187 -243.279691 
L 311.565353 -243.420754 
L 314.212007 -243.985628 
L 316.85866 -244.20584 
L 319.505313 -244.387792 
L 322.151967 -244.694794 
L 324.79862 -244.956452 
L 327.445273 -245.277462 
L 330.091927 -245.647311 
L 332.73858 -245.770535 
L 335.385233 -245.814787 
L 338.031887 -245.909772 
L 340.67854 -246.01676 
L 343.325193 -246.182187 
L 345.971847 -246.421597 
L 348.6185 -246.920282 
L 351.265153 -247.201828 
L 353.911807 -247.288551 
L 356.55846 -247.600741 
L 359.205113 -247.945313 
L 361.851767 -248.157375 
L 364.49842 -248.497983 
L 367.145073 -248.784963 
L 369.791727 -249.045263 
L 372.43838 -249.152118 
L 375.085033 -249.480032 
L 377.731687 -249.61379 
L 380.37834 -249.778237 
L 383.024993 -249.670558 
L 385.671647 -249.52346 
L 388.3183 -249.742514 
L 390.964953 -250.130047 
L 393.611607 -250.526955 
L 396.25826 -250.673051 
L 398.904913 -250.931213 
L 401.551567 -251.148152 
L 404.19822 -251.279193 
L 406.844873 -251.330571 
L 409.491527 -251.680332 
L 412.13818 -251.833443 
L 414.784833 -252.294157 
L 417.431487 -252.468782 
L 420.07814 -252.444173 
L 422.724793 -252.464038 
L 425.371447 -252.77124 
L 428.0181 -253.088553 
L 430.664753 -253.326805 
L 433.311407 -253.367382 
L 435.95806 -253.447468 
L 438.604713 -253.493813 
L 441.251367 -253.505461 
L 443.89802 -253.763645 
L 446.544673 -253.989225 
L 449.191327 -253.929339 
L 451.83798 -254.152915 
L 454.484633 -254.400832 
L 457.131287 -254.65837 
L 459.77794 -254.84344 
L 462.424593 -254.885131 
L 465.071247 -255.094208 
L 467.7179 -254.960784 
L 470.364553 -255.124318 
L 473.011207 -255.341702 
L 475.65786 -255.681308 
L 478.304513 -255.941653 
L 480.951167 -256.391565 
L 483.59782 -256.44408 
L 486.244473 -256.470047 
L 488.891127 -256.672844 
L 491.53778 -256.740703 
L 494.184433 -256.989712 
L 496.831087 -256.912922 
L 499.47774 -256.904704 
L 502.124393 -256.789142 
L 504.771047 -256.7854 
L 507.4177 -256.745603 
L 510.064353 -256.834797 
L 512.711007 -257.039821 
L 515.35766 -257.190282 
L 518.004313 -257.293395 
L 520.650967 -257.359183 
L 523.29762 -257.875907 
L 525.944273 -257.972184 
L 528.590927 -258.169279 
L 531.23758 -258.284575 
L 533.884233 -258.439445 
L 536.530887 -258.491893 
L 539.17754 -258.604738 
L 541.824193 -258.790253 
L 544.470847 -258.947039 
L 547.1175 -259.00031 
L 549.764153 -259.101687 
L 552.410807 -259.091264 
L 555.05746 -259.165915 
L 557.704113 -259.252014 
L 560.350767 -259.48089 
L 562.99742 -259.520465 
L 565.644073 -259.555474 
L 568.290727 -259.625048 
L 570.93738 -259.846797 
L 573.584033 -259.960846 
L 576.230687 -260.021088 
L 578.87734 -259.995699 
L 581.523993 -260.053091 
L 584.170647 -259.972026 
L 586.8173 -260.075339 
L 589.463953 -260.133221 
L 592.110607 -260.406037 
L 594.75726 -260.522424 
L 597.403913 -260.767357 
L 600.050567 -260.878978 
L 602.69722 -260.744641 
L 605.343873 -260.730187 
L 607.990527 -260.824637 
L 610.63718 -260.845928 
L 613.283833 -260.997747 
L 615.930487 -260.919243 
L 618.57714 -260.95256 
L 621.223793 -261.009083 
L 623.870447 -261.147807 
L 626.5171 -261.114668 
L 629.163753 -261.492268 
L 631.810407 -261.626516 
L 634.45706 -261.71424 
L 637.103713 -261.723104 
L 639.750367 -261.902138 
L 642.39702 -261.91795 
L 645.043673 -261.920667 
L 647.690327 -262.05104 
L 650.33698 -262.167827 
L 652.983633 -262.412293 
L 655.630287 -262.491911 
L 658.27694 -262.46287 
L 660.923593 -262.533445 
L 663.570247 -262.521709 
L 666.2169 -262.609322 
L 668.863553 -262.85372 
L 671.510207 -262.946411 
L 674.15686 -262.996899 
L 676.803513 -262.916034 
L 679.450167 -263.032554 
L 682.09682 -263.257822 
L 684.743473 -263.27241 
L 687.390127 -263.347885 
L 690.03678 -263.586204 
L 692.683433 -263.4618 
L 695.330087 -263.524648 
L 697.97674 -263.672926 
L 700.623393 -263.684106 
L 703.270047 -263.624821 
L 705.9167 -263.587117 
L 708.563353 -263.668895 
L 711.210007 -263.794257 
L 713.85666 -263.728224 
L 716.503313 -263.764726 
L 719.149967 -263.898528 
L 721.79662 -263.978881 
L 724.443273 -264.086181 
L 727.089927 -264.386702 
L 729.73658 -264.666288 
L 732.383233 -264.706331 
L 735.029887 -264.930508 
L 737.67654 -265.036516 
L 740.323193 -265.10119 
L 742.969847 -265.028566 
L 745.6165 -265.300758 
L 748.263153 -265.384117 
L 750.909807 -265.466719 
L 753.55646 -265.634351 
L 756.203113 -265.716396 
L 758.849767 -265.769044 
L 761.49642 -265.829197 
L 764.143073 -265.991885 
L 766.789727 -266.140363 
L 769.43638 -266.23105 
L 772.083033 -266.274723 
L 774.729687 -266.290446 
L 777.37634 -266.300534 
L 780.022993 -266.389951 
L 782.669647 -266.578584 
L 785.3163 -266.550011 
L 787.962953 -266.719825 
L 790.609607 -266.950861 
L 793.25626 -267.022394 
L 795.902913 -266.908992 
L 798.549567 -266.878437 
L 801.19622 -266.938657 
L 803.842873 -266.860175 
L 806.489527 -266.9281 
L 809.13618 -266.931842 
L 811.782833 -266.96743 
L 814.429487 -267.151965 
L 817.07614 -267.289821 
L 819.722793 -267.309085 
L 822.369447 -267.36494 
L 825.0161 -267.380418 
L 827.662753 -267.625685 
L 830.309407 -267.581567 
L 832.95606 -267.590431 
L 835.602713 -267.659515 
L 838.249367 -267.628113 
L 840.89602 -267.766548 
L 843.542673 -267.714701 
L 843.542673 -372.805455 
L 843.542673 -372.805455 
L 840.89602 -372.632589 
L 838.249367 -372.625151 
L 835.602713 -372.510145 
L 832.95606 -372.507205 
L 830.309407 -372.457319 
L 827.662753 -372.327793 
L 825.0161 -372.506804 
L 822.369447 -372.471661 
L 819.722793 -372.463109 
L 817.07614 -372.410595 
L 814.429487 -372.421018 
L 811.782833 -372.452909 
L 809.13618 -372.458433 
L 806.489527 -372.419548 
L 803.842873 -372.39505 
L 801.19622 -372.288284 
L 798.549567 -372.232741 
L 795.902913 -372.175105 
L 793.25626 -372.051146 
L 790.609607 -372.02892 
L 787.962953 -372.105754 
L 785.3163 -372.179915 
L 782.669647 -372.081969 
L 780.022993 -372.099696 
L 777.37634 -372.170651 
L 774.729687 -372.119873 
L 772.083033 -372.052126 
L 769.43638 -372.025624 
L 766.789727 -372.030345 
L 764.143073 -372.041302 
L 761.49642 -372.096667 
L 758.849767 -372.077381 
L 756.203113 -372.006248 
L 753.55646 -371.986739 
L 750.909807 -372.016983 
L 748.263153 -371.927187 
L 745.6165 -371.881666 
L 742.969847 -372.016671 
L 740.323193 -371.913513 
L 737.67654 -371.814898 
L 735.029887 -371.745236 
L 732.383233 -371.83267 
L 729.73658 -371.792583 
L 727.089927 -371.898324 
L 724.443273 -372.007629 
L 721.79662 -371.929592 
L 719.149967 -371.842158 
L 716.503313 -371.83561 
L 713.85666 -371.73459 
L 711.210007 -371.706396 
L 708.563353 -371.737708 
L 705.9167 -371.729156 
L 703.270047 -371.566847 
L 700.623393 -371.42623 
L 697.97674 -371.326324 
L 695.330087 -371.344541 
L 692.683433 -371.256037 
L 690.03678 -371.081168 
L 687.390127 -371.144951 
L 684.743473 -371.089096 
L 682.09682 -371.018454 
L 679.450167 -371.058496 
L 676.803513 -371.003666 
L 674.15686 -370.824699 
L 671.510207 -370.753566 
L 668.863553 -370.738778 
L 666.2169 -370.781315 
L 663.570247 -370.72448 
L 660.923593 -370.610143 
L 658.27694 -370.610944 
L 655.630287 -370.487876 
L 652.983633 -370.4424 
L 650.33698 -370.446854 
L 647.690327 -370.447745 
L 645.043673 -370.394072 
L 642.39702 -370.235639 
L 639.750367 -370.202633 
L 637.103713 -370.268376 
L 634.45706 -370.164105 
L 631.810407 -370.15003 
L 629.163753 -370.163704 
L 626.5171 -370.366189 
L 623.870447 -370.210651 
L 621.223793 -370.196398 
L 618.57714 -370.172078 
L 615.930487 -370.093507 
L 613.283833 -369.880688 
L 610.63718 -369.84559 
L 607.990527 -369.768266 
L 605.343873 -369.690407 
L 602.69722 -369.611257 
L 600.050567 -369.413493 
L 597.403913 -369.421867 
L 594.75726 -369.45269 
L 592.110607 -369.422803 
L 589.463953 -369.463914 
L 586.8173 -369.395677 
L 584.170647 -369.254392 
L 581.523993 -369.065981 
L 578.87734 -368.916634 
L 576.230687 -368.771251 
L 573.584033 -368.641146 
L 570.93738 -368.659096 
L 568.290727 -368.709695 
L 565.644073 -368.604755 
L 562.99742 -368.514782 
L 560.350767 -368.400221 
L 557.704113 -368.456299 
L 555.05746 -368.408417 
L 552.410807 -368.397014 
L 549.764153 -368.26486 
L 547.1175 -368.236977 
L 544.470847 -368.109455 
L 541.824193 -368.066695 
L 539.17754 -368.101437 
L 536.530887 -368.074356 
L 533.884233 -367.95748 
L 531.23758 -367.994404 
L 528.590927 -367.912938 
L 525.944273 -367.936768 
L 523.29762 -367.764972 
L 520.650967 -368.038812 
L 518.004313 -367.937926 
L 515.35766 -367.891737 
L 512.711007 -367.905143 
L 510.064353 -367.853297 
L 507.4177 -367.742968 
L 504.771047 -367.573355 
L 502.124393 -367.409843 
L 499.47774 -367.18776 
L 496.831087 -367.066073 
L 494.184433 -366.80359 
L 491.53778 -366.809982 
L 488.891127 -366.762523 
L 486.244473 -366.7623 
L 483.59782 -366.660033 
L 480.951167 -366.546096 
L 478.304513 -366.688139 
L 475.65786 -366.658341 
L 473.011207 -366.791497 
L 470.364553 -366.854456 
L 467.7179 -366.781698 
L 465.071247 -366.553668 
L 462.424593 -366.584491 
L 459.77794 -366.433228 
L 457.131287 -366.367084 
L 454.484633 -366.371984 
L 451.83798 -366.376037 
L 449.191327 -366.319715 
L 446.544673 -366.098411 
L 443.89802 -366.121773 
L 441.251367 -366.143888 
L 438.604713 -366.011265 
L 435.95806 -365.786354 
L 433.311407 -365.585561 
L 430.664753 -365.404367 
L 428.0181 -365.377018 
L 425.371447 -365.343033 
L 422.724793 -365.324771 
L 420.07814 -365.165981 
L 417.431487 -364.975143 
L 414.784833 -364.783771 
L 412.13818 -364.909311 
L 409.491527 -364.785998 
L 406.844873 -364.785664 
L 404.19822 -364.629168 
L 401.551567 -364.525788 
L 398.904913 -364.512581 
L 396.25826 -364.570129 
L 393.611607 -364.523538 
L 390.964953 -364.624692 
L 388.3183 -364.674467 
L 385.671647 -364.620527 
L 383.024993 -364.31994 
L 380.37834 -364.055965 
L 377.731687 -363.975657 
L 375.085033 -363.868802 
L 372.43838 -363.891963 
L 369.791727 -363.805598 
L 367.145073 -363.673844 
L 364.49842 -363.723508 
L 361.851767 -363.755132 
L 359.205113 -363.637409 
L 356.55846 -363.651484 
L 353.911807 -363.605785 
L 351.265153 -363.424412 
L 348.6185 -363.343169 
L 345.971847 -363.401964 
L 343.325193 -363.314484 
L 340.67854 -363.081934 
L 338.031887 -362.880339 
L 335.385233 -362.667231 
L 332.73858 -362.370162 
L 330.091927 -362.059063 
L 327.445273 -361.956372 
L 324.79862 -361.913613 
L 322.151967 -361.771548 
L 319.505313 -361.66819 
L 316.85866 -361.533051 
L 314.212007 -361.423256 
L 311.565353 -361.503164 
L 308.9187 -361.301302 
L 306.272047 -361.086969 
L 303.625393 -361.026214 
L 300.97874 -360.784756 
L 298.332087 -360.583228 
L 295.685433 -360.536883 
L 293.03878 -360.349319 
L 290.392127 -360.081202 
L 287.745473 -359.953658 
L 285.09882 -359.851079 
L 282.452167 -359.578953 
L 279.805513 -359.762798 
L 277.15886 -359.552095 
L 274.512207 -359.535971 
L 271.865553 -359.51056 
L 269.2189 -359.408939 
L 266.572247 -359.016596 
L 263.925593 -358.865734 
L 261.27894 -358.940474 
L 258.632287 -358.790014 
L 255.985633 -358.575725 
L 253.33898 -358.607505 
L 250.692327 -358.361525 
L 248.045673 -358.311193 
L 245.39902 -358.262109 
L 242.752367 -358.277832 
L 240.105713 -358.066394 
L 237.45906 -357.845535 
L 234.812407 -357.847918 
L 232.165753 -357.541295 
L 229.5191 -357.445576 
L 226.872447 -357.378096 
L 224.225793 -357.246966 
L 221.57914 -356.969985 
L 218.932487 -356.898674 
L 216.285833 -356.77986 
L 213.63918 -356.740218 
L 210.992527 -356.749706 
L 208.345873 -357.121047 
L 205.69922 -356.954173 
L 203.052567 -356.582742 
L 200.405913 -356.452548 
L 197.75926 -356.310527 
L 195.112607 -355.967514 
L 192.465953 -355.605526 
L 189.8193 -355.158954 
L 187.172647 -355.106573 
L 184.525993 -354.886851 
L 181.87934 -354.737949 
L 179.232687 -354.268683 
L 176.586033 -354.218396 
L 173.93938 -354.303492 
L 171.292727 -354.033683 
L 168.646073 -353.599426 
L 165.99942 -353.354738 
L 163.352767 -352.933042 
L 160.706113 -352.859972 
L 158.05946 -352.639693 
L 155.412807 -352.599917 
L 152.766153 -352.231248 
L 150.1195 -352.131364 
L 147.472847 -351.629249 
L 144.826193 -351.239578 
L 142.17954 -351.241583 
L 139.532887 -350.743966 
L 136.886233 -350.62268 
L 134.23958 -350.27715 
L 131.592927 -350.200628 
L 128.946273 -349.591235 
L 126.29962 -349.328641 
L 123.652967 -349.105155 
L 121.006313 -348.803342 
L 118.35966 -348.86786 
L 115.713007 -348.580813 
L 113.066353 -348.198826 
L 110.4197 -347.731832 
L 107.773047 -347.437302 
L 105.126393 -346.298846 
L 102.47974 -346.356883 
L 99.833087 -345.862585 
L 97.186433 -345.153865 
L 94.53978 -344.584982 
L 91.893127 -344.298959 
L 89.246473 -343.563269 
L 86.59982 -342.615428 
L 83.953167 -341.303528 
L 81.306513 -340.446507 
L 78.65986 -339.517218 
L 76.013207 -337.933749 
L 73.366553 -335.865491 
L 70.7199 -334.131717 
L 68.073247 -332.019653 
L 65.426593 -328.833696 
L 62.77994 -325.178495 
L 60.133287 -321.078593 
L 57.486633 -316.977956 
L 54.83998 -311.576421 
L 52.193327 -311.116107 
z
" style="stroke: #0000ff; stroke-opacity: 0.2"/>
    </defs>
    <g clip-path="url(#p21b47704be)">
     <use xlink:href="#macc518c034" x="0" y="432" style="fill: #0000ff; fill-opacity: 0.2; stroke: #0000ff; stroke-opacity: 0.2"/>
    </g>
   </g>
   <g id="matplotlib.axis_1">
    <g id="xtick_1">
     <g id="line2d_1">
      <defs>
       <path id="m5b36a3ad47" d="M 0 0 
L 0 3.5 
" style="stroke: #000000; stroke-width: 0.8"/>
      </defs>
      <g>
       <use xlink:href="#m5b36a3ad47" x="181.87934" y="390.04" style="stroke: #000000; stroke-width: 0.8"/>
      </g>
     </g>
     <g id="text_1">
      <!-- 50 -->
      <g transform="translate(175.51684 404.638438) scale(0.1 -0.1)">
       <defs>
        <path id="DejaVuSans-35" d="M 691 4666 
L 3169 4666 
L 3169 4134 
L 1269 4134 
L 1269 2991 
Q 1406 3038 1543 3061 
Q 1681 3084 1819 3084 
Q 2600 3084 3056 2656 
Q 3513 2228 3513 1497 
Q 3513 744 3044 326 
Q 2575 -91 1722 -91 
Q 1428 -91 1123 -41 
Q 819 9 494 109 
L 494 744 
Q 775 591 1075 516 
Q 1375 441 1709 441 
Q 2250 441 2565 725 
Q 2881 1009 2881 1497 
Q 2881 1984 2565 2268 
Q 2250 2553 1709 2553 
Q 1456 2553 1204 2497 
Q 953 2441 691 2322 
L 691 4666 
z
" transform="scale(0.015625)"/>
        <path id="DejaVuSans-30" d="M 2034 4250 
Q 1547 4250 1301 3770 
Q 1056 3291 1056 2328 
Q 1056 1369 1301 889 
Q 1547 409 2034 409 
Q 2525 409 2770 889 
Q 3016 1369 3016 2328 
Q 3016 3291 2770 3770 
Q 2525 4250 2034 4250 
z
M 2034 4750 
Q 2819 4750 3233 4129 
Q 3647 3509 3647 2328 
Q 3647 1150 3233 529 
Q 2819 -91 2034 -91 
Q 1250 -91 836 529 
Q 422 1150 422 2328 
Q 422 3509 836 4129 
Q 1250 4750 2034 4750 
z
" transform="scale(0.015625)"/>
       </defs>
       <use xlink:href="#DejaVuSans-35"/>
       <use xlink:href="#DejaVuSans-30" transform="translate(63.623047 0)"/>
      </g>
     </g>
    </g>
    <g id="xtick_2">
     <g id="line2d_2">
      <g>
       <use xlink:href="#m5b36a3ad47" x="314.212007" y="390.04" style="stroke: #000000; stroke-width: 0.8"/>
      </g>
     </g>
     <g id="text_2">
      <!-- 100 -->
      <g transform="translate(304.668257 404.638438) scale(0.1 -0.1)">
       <defs>
        <path id="DejaVuSans-31" d="M 794 531 
L 1825 531 
L 1825 4091 
L 703 3866 
L 703 4441 
L 1819 4666 
L 2450 4666 
L 2450 531 
L 3481 531 
L 3481 0 
L 794 0 
L 794 531 
z
" transform="scale(0.015625)"/>
       </defs>
       <use xlink:href="#DejaVuSans-31"/>
       <use xlink:href="#DejaVuSans-30" transform="translate(63.623047 0)"/>
       <use xlink:href="#DejaVuSans-30" transform="translate(127.246094 0)"/>
      </g>
     </g>
    </g>
    <g id="xtick_3">
     <g id="line2d_3">
      <g>
       <use xlink:href="#m5b36a3ad47" x="446.544673" y="390.04" style="stroke: #000000; stroke-width: 0.8"/>
      </g>
     </g>
     <g id="text_3">
      <!-- 150 -->
      <g transform="translate(437.000923 404.638438) scale(0.1 -0.1)">
       <use xlink:href="#DejaVuSans-31"/>
       <use xlink:href="#DejaVuSans-35" transform="translate(63.623047 0)"/>
       <use xlink:href="#DejaVuSans-30" transform="translate(127.246094 0)"/>
      </g>
     </g>
    </g>
    <g id="xtick_4">
     <g id="line2d_4">
      <g>
       <use xlink:href="#m5b36a3ad47" x="578.87734" y="390.04" style="stroke: #000000; stroke-width: 0.8"/>
      </g>
     </g>
     <g id="text_4">
      <!-- 200 -->
      <g transform="translate(569.33359 404.638438) scale(0.1 -0.1)">
       <defs>
        <path id="DejaVuSans-32" d="M 1228 531 
L 3431 531 
L 3431 0 
L 469 0 
L 469 531 
Q 828 903 1448 1529 
Q 2069 2156 2228 2338 
Q 2531 2678 2651 2914 
Q 2772 3150 2772 3378 
Q 2772 3750 2511 3984 
Q 2250 4219 1831 4219 
Q 1534 4219 1204 4116 
Q 875 4013 500 3803 
L 500 4441 
Q 881 4594 1212 4672 
Q 1544 4750 1819 4750 
Q 2544 4750 2975 4387 
Q 3406 4025 3406 3419 
Q 3406 3131 3298 2873 
Q 3191 2616 2906 2266 
Q 2828 2175 2409 1742 
Q 1991 1309 1228 531 
z
" transform="scale(0.015625)"/>
       </defs>
       <use xlink:href="#DejaVuSans-32"/>
       <use xlink:href="#DejaVuSans-30" transform="translate(63.623047 0)"/>
       <use xlink:href="#DejaVuSans-30" transform="translate(127.246094 0)"/>
      </g>
     </g>
    </g>
    <g id="xtick_5">
     <g id="line2d_5">
      <g>
       <use xlink:href="#m5b36a3ad47" x="711.210007" y="390.04" style="stroke: #000000; stroke-width: 0.8"/>
      </g>
     </g>
     <g id="text_5">
      <!-- 250 -->
      <g transform="translate(701.666257 404.638438) scale(0.1 -0.1)">
       <use xlink:href="#DejaVuSans-32"/>
       <use xlink:href="#DejaVuSans-35" transform="translate(63.623047 0)"/>
       <use xlink:href="#DejaVuSans-30" transform="translate(127.246094 0)"/>
      </g>
     </g>
    </g>
    <g id="xtick_6">
     <g id="line2d_6">
      <g>
       <use xlink:href="#m5b36a3ad47" x="843.542673" y="390.04" style="stroke: #000000; stroke-width: 0.8"/>
      </g>
     </g>
     <g id="text_6">
      <!-- 300 -->
      <g transform="translate(833.998923 404.638438) scale(0.1 -0.1)">
       <defs>
        <path id="DejaVuSans-33" d="M 2597 2516 
Q 3050 2419 3304 2112 
Q 3559 1806 3559 1356 
Q 3559 666 3084 287 
Q 2609 -91 1734 -91 
Q 1441 -91 1130 -33 
Q 819 25 488 141 
L 488 750 
Q 750 597 1062 519 
Q 1375 441 1716 441 
Q 2309 441 2620 675 
Q 2931 909 2931 1356 
Q 2931 1769 2642 2001 
Q 2353 2234 1838 2234 
L 1294 2234 
L 1294 2753 
L 1863 2753 
Q 2328 2753 2575 2939 
Q 2822 3125 2822 3475 
Q 2822 3834 2567 4026 
Q 2313 4219 1838 4219 
Q 1578 4219 1281 4162 
Q 984 4106 628 3988 
L 628 4550 
Q 988 4650 1302 4700 
Q 1616 4750 1894 4750 
Q 2613 4750 3031 4423 
Q 3450 4097 3450 3541 
Q 3450 3153 3228 2886 
Q 3006 2619 2597 2516 
z
" transform="scale(0.015625)"/>
       </defs>
       <use xlink:href="#DejaVuSans-33"/>
       <use xlink:href="#DejaVuSans-30" transform="translate(63.623047 0)"/>
       <use xlink:href="#DejaVuSans-30" transform="translate(127.246094 0)"/>
      </g>
     </g>
    </g>
    <g id="text_7">
     <!-- Step -->
     <g transform="translate(436.482844 418.316562) scale(0.1 -0.1)">
      <defs>
       <path id="DejaVuSans-53" d="M 3425 4513 
L 3425 3897 
Q 3066 4069 2747 4153 
Q 2428 4238 2131 4238 
Q 1616 4238 1336 4038 
Q 1056 3838 1056 3469 
Q 1056 3159 1242 3001 
Q 1428 2844 1947 2747 
L 2328 2669 
Q 3034 2534 3370 2195 
Q 3706 1856 3706 1288 
Q 3706 609 3251 259 
Q 2797 -91 1919 -91 
Q 1588 -91 1214 -16 
Q 841 59 441 206 
L 441 856 
Q 825 641 1194 531 
Q 1563 422 1919 422 
Q 2459 422 2753 634 
Q 3047 847 3047 1241 
Q 3047 1584 2836 1778 
Q 2625 1972 2144 2069 
L 1759 2144 
Q 1053 2284 737 2584 
Q 422 2884 422 3419 
Q 422 4038 858 4394 
Q 1294 4750 2059 4750 
Q 2388 4750 2728 4690 
Q 3069 4631 3425 4513 
z
" transform="scale(0.015625)"/>
       <path id="DejaVuSans-74" d="M 1172 4494 
L 1172 3500 
L 2356 3500 
L 2356 3053 
L 1172 3053 
L 1172 1153 
Q 1172 725 1289 603 
Q 1406 481 1766 481 
L 2356 481 
L 2356 0 
L 1766 0 
Q 1100 0 847 248 
Q 594 497 594 1153 
L 594 3053 
L 172 3053 
L 172 3500 
L 594 3500 
L 594 4494 
L 1172 4494 
z
" transform="scale(0.015625)"/>
       <path id="DejaVuSans-65" d="M 3597 1894 
L 3597 1613 
L 953 1613 
Q 991 1019 1311 708 
Q 1631 397 2203 397 
Q 2534 397 2845 478 
Q 3156 559 3463 722 
L 3463 178 
Q 3153 47 2828 -22 
Q 2503 -91 2169 -91 
Q 1331 -91 842 396 
Q 353 884 353 1716 
Q 353 2575 817 3079 
Q 1281 3584 2069 3584 
Q 2775 3584 3186 3129 
Q 3597 2675 3597 1894 
z
M 3022 2063 
Q 3016 2534 2758 2815 
Q 2500 3097 2075 3097 
Q 1594 3097 1305 2825 
Q 1016 2553 972 2059 
L 3022 2063 
z
" transform="scale(0.015625)"/>
       <path id="DejaVuSans-70" d="M 1159 525 
L 1159 -1331 
L 581 -1331 
L 581 3500 
L 1159 3500 
L 1159 2969 
Q 1341 3281 1617 3432 
Q 1894 3584 2278 3584 
Q 2916 3584 3314 3078 
Q 3713 2572 3713 1747 
Q 3713 922 3314 415 
Q 2916 -91 2278 -91 
Q 1894 -91 1617 61 
Q 1341 213 1159 525 
z
M 3116 1747 
Q 3116 2381 2855 2742 
Q 2594 3103 2138 3103 
Q 1681 3103 1420 2742 
Q 1159 2381 1159 1747 
Q 1159 1113 1420 752 
Q 1681 391 2138 391 
Q 2594 391 2855 752 
Q 3116 1113 3116 1747 
z
" transform="scale(0.015625)"/>
      </defs>
      <use xlink:href="#DejaVuSans-53"/>
      <use xlink:href="#DejaVuSans-74" transform="translate(63.476562 0)"/>
      <use xlink:href="#DejaVuSans-65" transform="translate(102.685547 0)"/>
      <use xlink:href="#DejaVuSans-70" transform="translate(164.208984 0)"/>
     </g>
    </g>
   </g>
   <g id="matplotlib.axis_2">
    <g id="ytick_1">
     <g id="line2d_7">
      <defs>
       <path id="m7b946bbbb9" d="M 0 0 
L -3.5 0 
" style="stroke: #000000; stroke-width: 0.8"/>
      </defs>
      <g>
       <use xlink:href="#m7b946bbbb9" x="50.87" y="380.156389" style="stroke: #000000; stroke-width: 0.8"/>
      </g>
     </g>
     <g id="text_8">
      <!-- 20 -->
      <g transform="translate(31.145 383.955608) scale(0.1 -0.1)">
       <use xlink:href="#DejaVuSans-32"/>
       <use xlink:href="#DejaVuSans-30" transform="translate(63.623047 0)"/>
      </g>
     </g>
    </g>
    <g id="ytick_2">
     <g id="line2d_8">
      <g>
       <use xlink:href="#m7b946bbbb9" x="50.87" y="321.775088" style="stroke: #000000; stroke-width: 0.8"/>
      </g>
     </g>
     <g id="text_9">
      <!-- 40 -->
      <g transform="translate(31.145 325.574306) scale(0.1 -0.1)">
       <defs>
        <path id="DejaVuSans-34" d="M 2419 4116 
L 825 1625 
L 2419 1625 
L 2419 4116 
z
M 2253 4666 
L 3047 4666 
L 3047 1625 
L 3713 1625 
L 3713 1100 
L 3047 1100 
L 3047 0 
L 2419 0 
L 2419 1100 
L 313 1100 
L 313 1709 
L 2253 4666 
z
" transform="scale(0.015625)"/>
       </defs>
       <use xlink:href="#DejaVuSans-34"/>
       <use xlink:href="#DejaVuSans-30" transform="translate(63.623047 0)"/>
      </g>
     </g>
    </g>
    <g id="ytick_3">
     <g id="line2d_9">
      <g>
       <use xlink:href="#m7b946bbbb9" x="50.87" y="263.393786" style="stroke: #000000; stroke-width: 0.8"/>
      </g>
     </g>
     <g id="text_10">
      <!-- 60 -->
      <g transform="translate(31.145 267.193004) scale(0.1 -0.1)">
       <defs>
        <path id="DejaVuSans-36" d="M 2113 2584 
Q 1688 2584 1439 2293 
Q 1191 2003 1191 1497 
Q 1191 994 1439 701 
Q 1688 409 2113 409 
Q 2538 409 2786 701 
Q 3034 994 3034 1497 
Q 3034 2003 2786 2293 
Q 2538 2584 2113 2584 
z
M 3366 4563 
L 3366 3988 
Q 3128 4100 2886 4159 
Q 2644 4219 2406 4219 
Q 1781 4219 1451 3797 
Q 1122 3375 1075 2522 
Q 1259 2794 1537 2939 
Q 1816 3084 2150 3084 
Q 2853 3084 3261 2657 
Q 3669 2231 3669 1497 
Q 3669 778 3244 343 
Q 2819 -91 2113 -91 
Q 1303 -91 875 529 
Q 447 1150 447 2328 
Q 447 3434 972 4092 
Q 1497 4750 2381 4750 
Q 2619 4750 2861 4703 
Q 3103 4656 3366 4563 
z
" transform="scale(0.015625)"/>
       </defs>
       <use xlink:href="#DejaVuSans-36"/>
       <use xlink:href="#DejaVuSans-30" transform="translate(63.623047 0)"/>
      </g>
     </g>
    </g>
    <g id="ytick_4">
     <g id="line2d_10">
      <g>
       <use xlink:href="#m7b946bbbb9" x="50.87" y="205.012484" style="stroke: #000000; stroke-width: 0.8"/>
      </g>
     </g>
     <g id="text_11">
      <!-- 80 -->
      <g transform="translate(31.145 208.811702) scale(0.1 -0.1)">
       <defs>
        <path id="DejaVuSans-38" d="M 2034 2216 
Q 1584 2216 1326 1975 
Q 1069 1734 1069 1313 
Q 1069 891 1326 650 
Q 1584 409 2034 409 
Q 2484 409 2743 651 
Q 3003 894 3003 1313 
Q 3003 1734 2745 1975 
Q 2488 2216 2034 2216 
z
M 1403 2484 
Q 997 2584 770 2862 
Q 544 3141 544 3541 
Q 544 4100 942 4425 
Q 1341 4750 2034 4750 
Q 2731 4750 3128 4425 
Q 3525 4100 3525 3541 
Q 3525 3141 3298 2862 
Q 3072 2584 2669 2484 
Q 3125 2378 3379 2068 
Q 3634 1759 3634 1313 
Q 3634 634 3220 271 
Q 2806 -91 2034 -91 
Q 1263 -91 848 271 
Q 434 634 434 1313 
Q 434 1759 690 2068 
Q 947 2378 1403 2484 
z
M 1172 3481 
Q 1172 3119 1398 2916 
Q 1625 2713 2034 2713 
Q 2441 2713 2670 2916 
Q 2900 3119 2900 3481 
Q 2900 3844 2670 4047 
Q 2441 4250 2034 4250 
Q 1625 4250 1398 4047 
Q 1172 3844 1172 3481 
z
" transform="scale(0.015625)"/>
       </defs>
       <use xlink:href="#DejaVuSans-38"/>
       <use xlink:href="#DejaVuSans-30" transform="translate(63.623047 0)"/>
      </g>
     </g>
    </g>
    <g id="ytick_5">
     <g id="line2d_11">
      <g>
       <use xlink:href="#m7b946bbbb9" x="50.87" y="146.631182" style="stroke: #000000; stroke-width: 0.8"/>
      </g>
     </g>
     <g id="text_12">
      <!-- 100 -->
      <g transform="translate(24.7825 150.4304) scale(0.1 -0.1)">
       <use xlink:href="#DejaVuSans-31"/>
       <use xlink:href="#DejaVuSans-30" transform="translate(63.623047 0)"/>
       <use xlink:href="#DejaVuSans-30" transform="translate(127.246094 0)"/>
      </g>
     </g>
    </g>
    <g id="ytick_6">
     <g id="line2d_12">
      <g>
       <use xlink:href="#m7b946bbbb9" x="50.87" y="88.24988" style="stroke: #000000; stroke-width: 0.8"/>
      </g>
     </g>
     <g id="text_13">
      <!-- 120 -->
      <g transform="translate(24.7825 92.049098) scale(0.1 -0.1)">
       <use xlink:href="#DejaVuSans-31"/>
       <use xlink:href="#DejaVuSans-32" transform="translate(63.623047 0)"/>
       <use xlink:href="#DejaVuSans-30" transform="translate(127.246094 0)"/>
      </g>
     </g>
    </g>
    <g id="text_14">
     <!-- Profit -->
     <g transform="translate(18.702813 229.779063) rotate(-90) scale(0.1 -0.1)">
      <defs>
       <path id="DejaVuSans-50" d="M 1259 4147 
L 1259 2394 
L 2053 2394 
Q 2494 2394 2734 2622 
Q 2975 2850 2975 3272 
Q 2975 3691 2734 3919 
Q 2494 4147 2053 4147 
L 1259 4147 
z
M 628 4666 
L 2053 4666 
Q 2838 4666 3239 4311 
Q 3641 3956 3641 3272 
Q 3641 2581 3239 2228 
Q 2838 1875 2053 1875 
L 1259 1875 
L 1259 0 
L 628 0 
L 628 4666 
z
" transform="scale(0.015625)"/>
       <path id="DejaVuSans-72" d="M 2631 2963 
Q 2534 3019 2420 3045 
Q 2306 3072 2169 3072 
Q 1681 3072 1420 2755 
Q 1159 2438 1159 1844 
L 1159 0 
L 581 0 
L 581 3500 
L 1159 3500 
L 1159 2956 
Q 1341 3275 1631 3429 
Q 1922 3584 2338 3584 
Q 2397 3584 2469 3576 
Q 2541 3569 2628 3553 
L 2631 2963 
z
" transform="scale(0.015625)"/>
       <path id="DejaVuSans-6f" d="M 1959 3097 
Q 1497 3097 1228 2736 
Q 959 2375 959 1747 
Q 959 1119 1226 758 
Q 1494 397 1959 397 
Q 2419 397 2687 759 
Q 2956 1122 2956 1747 
Q 2956 2369 2687 2733 
Q 2419 3097 1959 3097 
z
M 1959 3584 
Q 2709 3584 3137 3096 
Q 3566 2609 3566 1747 
Q 3566 888 3137 398 
Q 2709 -91 1959 -91 
Q 1206 -91 779 398 
Q 353 888 353 1747 
Q 353 2609 779 3096 
Q 1206 3584 1959 3584 
z
" transform="scale(0.015625)"/>
       <path id="DejaVuSans-66" d="M 2375 4863 
L 2375 4384 
L 1825 4384 
Q 1516 4384 1395 4259 
Q 1275 4134 1275 3809 
L 1275 3500 
L 2222 3500 
L 2222 3053 
L 1275 3053 
L 1275 0 
L 697 0 
L 697 3053 
L 147 3053 
L 147 3500 
L 697 3500 
L 697 3744 
Q 697 4328 969 4595 
Q 1241 4863 1831 4863 
L 2375 4863 
z
" transform="scale(0.015625)"/>
       <path id="DejaVuSans-69" d="M 603 3500 
L 1178 3500 
L 1178 0 
L 603 0 
L 603 3500 
z
M 603 4863 
L 1178 4863 
L 1178 4134 
L 603 4134 
L 603 4863 
z
" transform="scale(0.015625)"/>
      </defs>
      <use xlink:href="#DejaVuSans-50"/>
      <use xlink:href="#DejaVuSans-72" transform="translate(58.552734 0)"/>
      <use xlink:href="#DejaVuSans-6f" transform="translate(97.416016 0)"/>
      <use xlink:href="#DejaVuSans-66" transform="translate(158.597656 0)"/>
      <use xlink:href="#DejaVuSans-69" transform="translate(193.802734 0)"/>
      <use xlink:href="#DejaVuSans-74" transform="translate(221.585938 0)"/>
     </g>
    </g>
   </g>
   <g id="line2d_13">
    <path d="M 52.193327 247.165016 
L 54.83998 247.354517 
L 62.77994 223.853562 
L 65.426593 217.389959 
L 68.073247 211.349477 
L 70.7199 206.083994 
L 73.366553 201.277799 
L 76.013207 197.106296 
L 81.306513 189.606438 
L 86.59982 183.476495 
L 89.246473 180.760672 
L 91.893127 178.426057 
L 97.186433 174.311924 
L 99.833087 172.268966 
L 105.126393 168.963237 
L 107.773047 167.424888 
L 115.713007 163.337146 
L 121.006313 160.7996 
L 123.652967 159.862872 
L 128.946273 157.640368 
L 150.1195 151.176498 
L 158.05946 148.970986 
L 168.646073 146.708661 
L 179.232687 144.529006 
L 189.8193 142.576378 
L 195.112607 141.697086 
L 200.405913 140.797572 
L 205.69922 140.019924 
L 210.992527 139.193859 
L 216.285833 138.433694 
L 221.57914 137.801852 
L 226.872447 137.072263 
L 240.105713 135.797511 
L 242.752367 135.659833 
L 250.692327 134.78288 
L 300.97874 130.191731 
L 308.9187 129.709503 
L 322.151967 128.766829 
L 343.325193 127.251665 
L 377.731687 125.205277 
L 425.371447 122.942863 
L 433.311407 122.523528 
L 443.89802 122.057291 
L 504.771047 119.820623 
L 515.35766 119.458991 
L 523.29762 119.17956 
L 531.23758 118.86051 
L 544.470847 118.471753 
L 555.05746 118.212834 
L 584.170647 117.386791 
L 592.110607 117.08558 
L 618.57714 116.437681 
L 629.163753 116.172014 
L 687.390127 114.753571 
L 697.97674 114.500375 
L 737.67654 113.574293 
L 753.55646 113.189455 
L 795.902913 112.457952 
L 811.782833 112.28983 
L 822.369447 112.08171 
L 840.89602 111.800432 
L 843.542673 111.739922 
L 843.542673 111.739922 
" clip-path="url(#p21b47704be)" style="fill: none; stroke: #0000ff; stroke-width: 1.5; stroke-linecap: square"/>
   </g>
   <g id="patch_3">
    <path d="M 50.87 390.04 
L 50.87 43.44 
" style="fill: none; stroke: #000000; stroke-width: 0.8; stroke-linejoin: miter; stroke-linecap: square"/>
   </g>
   <g id="patch_4">
    <path d="M 844.866 390.04 
L 844.866 43.44 
" style="fill: none; stroke: #000000; stroke-width: 0.8; stroke-linejoin: miter; stroke-linecap: square"/>
   </g>
   <g id="patch_5">
    <path d="M 50.87 390.04 
L 844.866 390.04 
" style="fill: none; stroke: #000000; stroke-width: 0.8; stroke-linejoin: miter; stroke-linecap: square"/>
   </g>
   <g id="patch_6">
    <path d="M 50.87 43.44 
L 844.866 43.44 
" style="fill: none; stroke: #000000; stroke-width: 0.8; stroke-linejoin: miter; stroke-linecap: square"/>
   </g>
   <g id="text_15">
    <!-- Mean profit per step with confidence interval per simulation step -->
    <g transform="translate(220.284875 21.763062) scale(0.14 -0.14)">
     <defs>
      <path id="DejaVuSans-4d" d="M 628 4666 
L 1569 4666 
L 2759 1491 
L 3956 4666 
L 4897 4666 
L 4897 0 
L 4281 0 
L 4281 4097 
L 3078 897 
L 2444 897 
L 1241 4097 
L 1241 0 
L 628 0 
L 628 4666 
z
" transform="scale(0.015625)"/>
      <path id="DejaVuSans-61" d="M 2194 1759 
Q 1497 1759 1228 1600 
Q 959 1441 959 1056 
Q 959 750 1161 570 
Q 1363 391 1709 391 
Q 2188 391 2477 730 
Q 2766 1069 2766 1631 
L 2766 1759 
L 2194 1759 
z
M 3341 1997 
L 3341 0 
L 2766 0 
L 2766 531 
Q 2569 213 2275 61 
Q 1981 -91 1556 -91 
Q 1019 -91 701 211 
Q 384 513 384 1019 
Q 384 1609 779 1909 
Q 1175 2209 1959 2209 
L 2766 2209 
L 2766 2266 
Q 2766 2663 2505 2880 
Q 2244 3097 1772 3097 
Q 1472 3097 1187 3025 
Q 903 2953 641 2809 
L 641 3341 
Q 956 3463 1253 3523 
Q 1550 3584 1831 3584 
Q 2591 3584 2966 3190 
Q 3341 2797 3341 1997 
z
" transform="scale(0.015625)"/>
      <path id="DejaVuSans-6e" d="M 3513 2113 
L 3513 0 
L 2938 0 
L 2938 2094 
Q 2938 2591 2744 2837 
Q 2550 3084 2163 3084 
Q 1697 3084 1428 2787 
Q 1159 2491 1159 1978 
L 1159 0 
L 581 0 
L 581 3500 
L 1159 3500 
L 1159 2956 
Q 1366 3272 1645 3428 
Q 1925 3584 2291 3584 
Q 2894 3584 3203 3211 
Q 3513 2838 3513 2113 
z
" transform="scale(0.015625)"/>
      <path id="DejaVuSans-20" transform="scale(0.015625)"/>
      <path id="DejaVuSans-73" d="M 2834 3397 
L 2834 2853 
Q 2591 2978 2328 3040 
Q 2066 3103 1784 3103 
Q 1356 3103 1142 2972 
Q 928 2841 928 2578 
Q 928 2378 1081 2264 
Q 1234 2150 1697 2047 
L 1894 2003 
Q 2506 1872 2764 1633 
Q 3022 1394 3022 966 
Q 3022 478 2636 193 
Q 2250 -91 1575 -91 
Q 1294 -91 989 -36 
Q 684 19 347 128 
L 347 722 
Q 666 556 975 473 
Q 1284 391 1588 391 
Q 1994 391 2212 530 
Q 2431 669 2431 922 
Q 2431 1156 2273 1281 
Q 2116 1406 1581 1522 
L 1381 1569 
Q 847 1681 609 1914 
Q 372 2147 372 2553 
Q 372 3047 722 3315 
Q 1072 3584 1716 3584 
Q 2034 3584 2315 3537 
Q 2597 3491 2834 3397 
z
" transform="scale(0.015625)"/>
      <path id="DejaVuSans-77" d="M 269 3500 
L 844 3500 
L 1563 769 
L 2278 3500 
L 2956 3500 
L 3675 769 
L 4391 3500 
L 4966 3500 
L 4050 0 
L 3372 0 
L 2619 2869 
L 1863 0 
L 1184 0 
L 269 3500 
z
" transform="scale(0.015625)"/>
      <path id="DejaVuSans-68" d="M 3513 2113 
L 3513 0 
L 2938 0 
L 2938 2094 
Q 2938 2591 2744 2837 
Q 2550 3084 2163 3084 
Q 1697 3084 1428 2787 
Q 1159 2491 1159 1978 
L 1159 0 
L 581 0 
L 581 4863 
L 1159 4863 
L 1159 2956 
Q 1366 3272 1645 3428 
Q 1925 3584 2291 3584 
Q 2894 3584 3203 3211 
Q 3513 2838 3513 2113 
z
" transform="scale(0.015625)"/>
      <path id="DejaVuSans-63" d="M 3122 3366 
L 3122 2828 
Q 2878 2963 2633 3030 
Q 2388 3097 2138 3097 
Q 1578 3097 1268 2742 
Q 959 2388 959 1747 
Q 959 1106 1268 751 
Q 1578 397 2138 397 
Q 2388 397 2633 464 
Q 2878 531 3122 666 
L 3122 134 
Q 2881 22 2623 -34 
Q 2366 -91 2075 -91 
Q 1284 -91 818 406 
Q 353 903 353 1747 
Q 353 2603 823 3093 
Q 1294 3584 2113 3584 
Q 2378 3584 2631 3529 
Q 2884 3475 3122 3366 
z
" transform="scale(0.015625)"/>
      <path id="DejaVuSans-64" d="M 2906 2969 
L 2906 4863 
L 3481 4863 
L 3481 0 
L 2906 0 
L 2906 525 
Q 2725 213 2448 61 
Q 2172 -91 1784 -91 
Q 1150 -91 751 415 
Q 353 922 353 1747 
Q 353 2572 751 3078 
Q 1150 3584 1784 3584 
Q 2172 3584 2448 3432 
Q 2725 3281 2906 2969 
z
M 947 1747 
Q 947 1113 1208 752 
Q 1469 391 1925 391 
Q 2381 391 2643 752 
Q 2906 1113 2906 1747 
Q 2906 2381 2643 2742 
Q 2381 3103 1925 3103 
Q 1469 3103 1208 2742 
Q 947 2381 947 1747 
z
" transform="scale(0.015625)"/>
      <path id="DejaVuSans-76" d="M 191 3500 
L 800 3500 
L 1894 563 
L 2988 3500 
L 3597 3500 
L 2284 0 
L 1503 0 
L 191 3500 
z
" transform="scale(0.015625)"/>
      <path id="DejaVuSans-6c" d="M 603 4863 
L 1178 4863 
L 1178 0 
L 603 0 
L 603 4863 
z
" transform="scale(0.015625)"/>
      <path id="DejaVuSans-6d" d="M 3328 2828 
Q 3544 3216 3844 3400 
Q 4144 3584 4550 3584 
Q 5097 3584 5394 3201 
Q 5691 2819 5691 2113 
L 5691 0 
L 5113 0 
L 5113 2094 
Q 5113 2597 4934 2840 
Q 4756 3084 4391 3084 
Q 3944 3084 3684 2787 
Q 3425 2491 3425 1978 
L 3425 0 
L 2847 0 
L 2847 2094 
Q 2847 2600 2669 2842 
Q 2491 3084 2119 3084 
Q 1678 3084 1418 2786 
Q 1159 2488 1159 1978 
L 1159 0 
L 581 0 
L 581 3500 
L 1159 3500 
L 1159 2956 
Q 1356 3278 1631 3431 
Q 1906 3584 2284 3584 
Q 2666 3584 2933 3390 
Q 3200 3197 3328 2828 
z
" transform="scale(0.015625)"/>
      <path id="DejaVuSans-75" d="M 544 1381 
L 544 3500 
L 1119 3500 
L 1119 1403 
Q 1119 906 1312 657 
Q 1506 409 1894 409 
Q 2359 409 2629 706 
Q 2900 1003 2900 1516 
L 2900 3500 
L 3475 3500 
L 3475 0 
L 2900 0 
L 2900 538 
Q 2691 219 2414 64 
Q 2138 -91 1772 -91 
Q 1169 -91 856 284 
Q 544 659 544 1381 
z
M 1991 3584 
L 1991 3584 
z
" transform="scale(0.015625)"/>
     </defs>
     <use xlink:href="#DejaVuSans-4d"/>
     <use xlink:href="#DejaVuSans-65" transform="translate(86.279297 0)"/>
     <use xlink:href="#DejaVuSans-61" transform="translate(147.802734 0)"/>
     <use xlink:href="#DejaVuSans-6e" transform="translate(209.082031 0)"/>
     <use xlink:href="#DejaVuSans-20" transform="translate(272.460938 0)"/>
     <use xlink:href="#DejaVuSans-70" transform="translate(304.248047 0)"/>
     <use xlink:href="#DejaVuSans-72" transform="translate(367.724609 0)"/>
     <use xlink:href="#DejaVuSans-6f" transform="translate(406.587891 0)"/>
     <use xlink:href="#DejaVuSans-66" transform="translate(467.769531 0)"/>
     <use xlink:href="#DejaVuSans-69" transform="translate(502.974609 0)"/>
     <use xlink:href="#DejaVuSans-74" transform="translate(530.757812 0)"/>
     <use xlink:href="#DejaVuSans-20" transform="translate(569.966797 0)"/>
     <use xlink:href="#DejaVuSans-70" transform="translate(601.753906 0)"/>
     <use xlink:href="#DejaVuSans-65" transform="translate(665.230469 0)"/>
     <use xlink:href="#DejaVuSans-72" transform="translate(726.753906 0)"/>
     <use xlink:href="#DejaVuSans-20" transform="translate(767.867188 0)"/>
     <use xlink:href="#DejaVuSans-73" transform="translate(799.654297 0)"/>
     <use xlink:href="#DejaVuSans-74" transform="translate(851.753906 0)"/>
     <use xlink:href="#DejaVuSans-65" transform="translate(890.962891 0)"/>
     <use xlink:href="#DejaVuSans-70" transform="translate(952.486328 0)"/>
     <use xlink:href="#DejaVuSans-20" transform="translate(1015.962891 0)"/>
     <use xlink:href="#DejaVuSans-77" transform="translate(1047.75 0)"/>
     <use xlink:href="#DejaVuSans-69" transform="translate(1129.537109 0)"/>
     <use xlink:href="#DejaVuSans-74" transform="translate(1157.320312 0)"/>
     <use xlink:href="#DejaVuSans-68" transform="translate(1196.529297 0)"/>
     <use xlink:href="#DejaVuSans-20" transform="translate(1259.908203 0)"/>
     <use xlink:href="#DejaVuSans-63" transform="translate(1291.695312 0)"/>
     <use xlink:href="#DejaVuSans-6f" transform="translate(1346.675781 0)"/>
     <use xlink:href="#DejaVuSans-6e" transform="translate(1407.857422 0)"/>
     <use xlink:href="#DejaVuSans-66" transform="translate(1471.236328 0)"/>
     <use xlink:href="#DejaVuSans-69" transform="translate(1506.441406 0)"/>
     <use xlink:href="#DejaVuSans-64" transform="translate(1534.224609 0)"/>
     <use xlink:href="#DejaVuSans-65" transform="translate(1597.701172 0)"/>
     <use xlink:href="#DejaVuSans-6e" transform="translate(1659.224609 0)"/>
     <use xlink:href="#DejaVuSans-63" transform="translate(1722.603516 0)"/>
     <use xlink:href="#DejaVuSans-65" transform="translate(1777.583984 0)"/>
     <use xlink:href="#DejaVuSans-20" transform="translate(1839.107422 0)"/>
     <use xlink:href="#DejaVuSans-69" transform="translate(1870.894531 0)"/>
     <use xlink:href="#DejaVuSans-6e" transform="translate(1898.677734 0)"/>
     <use xlink:href="#DejaVuSans-74" transform="translate(1962.056641 0)"/>
     <use xlink:href="#DejaVuSans-65" transform="translate(2001.265625 0)"/>
     <use xlink:href="#DejaVuSans-72" transform="translate(2062.789062 0)"/>
     <use xlink:href="#DejaVuSans-76" transform="translate(2103.902344 0)"/>
     <use xlink:href="#DejaVuSans-61" transform="translate(2163.082031 0)"/>
     <use xlink:href="#DejaVuSans-6c" transform="translate(2224.361328 0)"/>
     <use xlink:href="#DejaVuSans-20" transform="translate(2252.144531 0)"/>
     <use xlink:href="#DejaVuSans-70" transform="translate(2283.931641 0)"/>
     <use xlink:href="#DejaVuSans-65" transform="translate(2347.408203 0)"/>
     <use xlink:href="#DejaVuSans-72" transform="translate(2408.931641 0)"/>
     <use xlink:href="#DejaVuSans-20" transform="translate(2450.044922 0)"/>
     <use xlink:href="#DejaVuSans-73" transform="translate(2481.832031 0)"/>
     <use xlink:href="#DejaVuSans-69" transform="translate(2533.931641 0)"/>
     <use xlink:href="#DejaVuSans-6d" transform="translate(2561.714844 0)"/>
     <use xlink:href="#DejaVuSans-75" transform="translate(2659.126953 0)"/>
     <use xlink:href="#DejaVuSans-6c" transform="translate(2722.505859 0)"/>
     <use xlink:href="#DejaVuSans-61" transform="translate(2750.289062 0)"/>
     <use xlink:href="#DejaVuSans-74" transform="translate(2811.568359 0)"/>
     <use xlink:href="#DejaVuSans-69" transform="translate(2850.777344 0)"/>
     <use xlink:href="#DejaVuSans-6f" transform="translate(2878.560547 0)"/>
     <use xlink:href="#DejaVuSans-6e" transform="translate(2939.742188 0)"/>
     <use xlink:href="#DejaVuSans-20" transform="translate(3003.121094 0)"/>
     <use xlink:href="#DejaVuSans-73" transform="translate(3034.908203 0)"/>
     <use xlink:href="#DejaVuSans-74" transform="translate(3087.007812 0)"/>
     <use xlink:href="#DejaVuSans-65" transform="translate(3126.216797 0)"/>
     <use xlink:href="#DejaVuSans-70" transform="translate(3187.740234 0)"/>
    </g>
    <!-- Base Product: Sour Diesel, Recipe size: 7, T0: 10.0 -->
    <g transform="translate(271.602531 37.44) scale(0.14 -0.14)">
     <defs>
      <path id="DejaVuSans-42" d="M 1259 2228 
L 1259 519 
L 2272 519 
Q 2781 519 3026 730 
Q 3272 941 3272 1375 
Q 3272 1813 3026 2020 
Q 2781 2228 2272 2228 
L 1259 2228 
z
M 1259 4147 
L 1259 2741 
L 2194 2741 
Q 2656 2741 2882 2914 
Q 3109 3088 3109 3444 
Q 3109 3797 2882 3972 
Q 2656 4147 2194 4147 
L 1259 4147 
z
M 628 4666 
L 2241 4666 
Q 2963 4666 3353 4366 
Q 3744 4066 3744 3513 
Q 3744 3084 3544 2831 
Q 3344 2578 2956 2516 
Q 3422 2416 3680 2098 
Q 3938 1781 3938 1306 
Q 3938 681 3513 340 
Q 3088 0 2303 0 
L 628 0 
L 628 4666 
z
" transform="scale(0.015625)"/>
      <path id="DejaVuSans-3a" d="M 750 794 
L 1409 794 
L 1409 0 
L 750 0 
L 750 794 
z
M 750 3309 
L 1409 3309 
L 1409 2516 
L 750 2516 
L 750 3309 
z
" transform="scale(0.015625)"/>
      <path id="DejaVuSans-44" d="M 1259 4147 
L 1259 519 
L 2022 519 
Q 2988 519 3436 956 
Q 3884 1394 3884 2338 
Q 3884 3275 3436 3711 
Q 2988 4147 2022 4147 
L 1259 4147 
z
M 628 4666 
L 1925 4666 
Q 3281 4666 3915 4102 
Q 4550 3538 4550 2338 
Q 4550 1131 3912 565 
Q 3275 0 1925 0 
L 628 0 
L 628 4666 
z
" transform="scale(0.015625)"/>
      <path id="DejaVuSans-2c" d="M 750 794 
L 1409 794 
L 1409 256 
L 897 -744 
L 494 -744 
L 750 256 
L 750 794 
z
" transform="scale(0.015625)"/>
      <path id="DejaVuSans-52" d="M 2841 2188 
Q 3044 2119 3236 1894 
Q 3428 1669 3622 1275 
L 4263 0 
L 3584 0 
L 2988 1197 
Q 2756 1666 2539 1819 
Q 2322 1972 1947 1972 
L 1259 1972 
L 1259 0 
L 628 0 
L 628 4666 
L 2053 4666 
Q 2853 4666 3247 4331 
Q 3641 3997 3641 3322 
Q 3641 2881 3436 2590 
Q 3231 2300 2841 2188 
z
M 1259 4147 
L 1259 2491 
L 2053 2491 
Q 2509 2491 2742 2702 
Q 2975 2913 2975 3322 
Q 2975 3731 2742 3939 
Q 2509 4147 2053 4147 
L 1259 4147 
z
" transform="scale(0.015625)"/>
      <path id="DejaVuSans-7a" d="M 353 3500 
L 3084 3500 
L 3084 2975 
L 922 459 
L 3084 459 
L 3084 0 
L 275 0 
L 275 525 
L 2438 3041 
L 353 3041 
L 353 3500 
z
" transform="scale(0.015625)"/>
      <path id="DejaVuSans-37" d="M 525 4666 
L 3525 4666 
L 3525 4397 
L 1831 0 
L 1172 0 
L 2766 4134 
L 525 4134 
L 525 4666 
z
" transform="scale(0.015625)"/>
      <path id="DejaVuSans-54" d="M -19 4666 
L 3928 4666 
L 3928 4134 
L 2272 4134 
L 2272 0 
L 1638 0 
L 1638 4134 
L -19 4134 
L -19 4666 
z
" transform="scale(0.015625)"/>
      <path id="DejaVuSans-2e" d="M 684 794 
L 1344 794 
L 1344 0 
L 684 0 
L 684 794 
z
" transform="scale(0.015625)"/>
     </defs>
     <use xlink:href="#DejaVuSans-42"/>
     <use xlink:href="#DejaVuSans-61" transform="translate(68.603516 0)"/>
     <use xlink:href="#DejaVuSans-73" transform="translate(129.882812 0)"/>
     <use xlink:href="#DejaVuSans-65" transform="translate(181.982422 0)"/>
     <use xlink:href="#DejaVuSans-20" transform="translate(243.505859 0)"/>
     <use xlink:href="#DejaVuSans-50" transform="translate(275.292969 0)"/>
     <use xlink:href="#DejaVuSans-72" transform="translate(333.845703 0)"/>
     <use xlink:href="#DejaVuSans-6f" transform="translate(372.708984 0)"/>
     <use xlink:href="#DejaVuSans-64" transform="translate(433.890625 0)"/>
     <use xlink:href="#DejaVuSans-75" transform="translate(497.367188 0)"/>
     <use xlink:href="#DejaVuSans-63" transform="translate(560.746094 0)"/>
     <use xlink:href="#DejaVuSans-74" transform="translate(615.726562 0)"/>
     <use xlink:href="#DejaVuSans-3a" transform="translate(654.935547 0)"/>
     <use xlink:href="#DejaVuSans-20" transform="translate(688.626953 0)"/>
     <use xlink:href="#DejaVuSans-53" transform="translate(720.414062 0)"/>
     <use xlink:href="#DejaVuSans-6f" transform="translate(783.890625 0)"/>
     <use xlink:href="#DejaVuSans-75" transform="translate(845.072266 0)"/>
     <use xlink:href="#DejaVuSans-72" transform="translate(908.451172 0)"/>
     <use xlink:href="#DejaVuSans-20" transform="translate(949.564453 0)"/>
     <use xlink:href="#DejaVuSans-44" transform="translate(981.351562 0)"/>
     <use xlink:href="#DejaVuSans-69" transform="translate(1058.353516 0)"/>
     <use xlink:href="#DejaVuSans-65" transform="translate(1086.136719 0)"/>
     <use xlink:href="#DejaVuSans-73" transform="translate(1147.660156 0)"/>
     <use xlink:href="#DejaVuSans-65" transform="translate(1199.759766 0)"/>
     <use xlink:href="#DejaVuSans-6c" transform="translate(1261.283203 0)"/>
     <use xlink:href="#DejaVuSans-2c" transform="translate(1289.066406 0)"/>
     <use xlink:href="#DejaVuSans-20" transform="translate(1320.853516 0)"/>
     <use xlink:href="#DejaVuSans-52" transform="translate(1352.640625 0)"/>
     <use xlink:href="#DejaVuSans-65" transform="translate(1417.623047 0)"/>
     <use xlink:href="#DejaVuSans-63" transform="translate(1479.146484 0)"/>
     <use xlink:href="#DejaVuSans-69" transform="translate(1534.126953 0)"/>
     <use xlink:href="#DejaVuSans-70" transform="translate(1561.910156 0)"/>
     <use xlink:href="#DejaVuSans-65" transform="translate(1625.386719 0)"/>
     <use xlink:href="#DejaVuSans-20" transform="translate(1686.910156 0)"/>
     <use xlink:href="#DejaVuSans-73" transform="translate(1718.697266 0)"/>
     <use xlink:href="#DejaVuSans-69" transform="translate(1770.796875 0)"/>
     <use xlink:href="#DejaVuSans-7a" transform="translate(1798.580078 0)"/>
     <use xlink:href="#DejaVuSans-65" transform="translate(1851.070312 0)"/>
     <use xlink:href="#DejaVuSans-3a" transform="translate(1912.59375 0)"/>
     <use xlink:href="#DejaVuSans-20" transform="translate(1946.285156 0)"/>
     <use xlink:href="#DejaVuSans-37" transform="translate(1978.072266 0)"/>
     <use xlink:href="#DejaVuSans-2c" transform="translate(2041.695312 0)"/>
     <use xlink:href="#DejaVuSans-20" transform="translate(2073.482422 0)"/>
     <use xlink:href="#DejaVuSans-54" transform="translate(2105.269531 0)"/>
     <use xlink:href="#DejaVuSans-30" transform="translate(2166.353516 0)"/>
     <use xlink:href="#DejaVuSans-3a" transform="translate(2229.976562 0)"/>
     <use xlink:href="#DejaVuSans-20" transform="translate(2263.667969 0)"/>
     <use xlink:href="#DejaVuSans-31" transform="translate(2295.455078 0)"/>
     <use xlink:href="#DejaVuSans-30" transform="translate(2359.078125 0)"/>
     <use xlink:href="#DejaVuSans-2e" transform="translate(2422.701172 0)"/>
     <use xlink:href="#DejaVuSans-30" transform="translate(2454.488281 0)"/>
    </g>
   </g>
  </g>
 </g>
 <defs>
  <clipPath id="p21b47704be">
   <rect x="50.87" y="43.44" width="793.996" height="346.6"/>
  </clipPath>
 </defs>
</svg>
