<?xml version="1.0" encoding="utf-8" standalone="no"?>
<!DOCTYPE svg PUBLIC "-//W3C//DTD SVG 1.1//EN"
  "http://www.w3.org/Graphics/SVG/1.1/DTD/svg11.dtd">
<svg xmlns:xlink="http://www.w3.org/1999/xlink" width="864pt" height="432pt" viewBox="0 0 864 432" xmlns="http://www.w3.org/2000/svg" version="1.1">
 <metadata>
  <rdf:RDF xmlns:dc="http://purl.org/dc/elements/1.1/" xmlns:cc="http://creativecommons.org/ns#" xmlns:rdf="http://www.w3.org/1999/02/22-rdf-syntax-ns#">
   <cc:Work>
    <dc:type rdf:resource="http://purl.org/dc/dcmitype/StillImage"/>
    <dc:date>2025-05-24T02:07:13.675220</dc:date>
    <dc:format>image/svg+xml</dc:format>
    <dc:creator>
     <cc:Agent>
      <dc:title>Matplotlib v3.10.3, https://matplotlib.org/</dc:title>
     </cc:Agent>
    </dc:creator>
   </cc:Work>
  </rdf:RDF>
 </metadata>
 <defs>
  <style type="text/css">*{stroke-linejoin: round; stroke-linecap: butt}</style>
 </defs>
 <g id="figure_1">
  <g id="patch_1">
   <path d="M 0 432 
L 864 432 
L 864 0 
L 0 0 
z
" style="fill: #ffffff"/>
  </g>
  <g id="axes_1">
   <g id="patch_2">
    <path d="M 50.87 390.04 
L 844.866 390.04 
L 844.866 43.44 
L 50.87 43.44 
z
" style="fill: #ffffff"/>
   </g>
   <g id="FillBetweenPolyCollection_1">
    <defs>
     <path id="me1d351c636" d="M 52.193327 -312.810227 
L 52.193327 -58.937184 
L 54.83998 -57.714545 
L 57.486633 -66.09514 
L 60.133287 -74.652621 
L 62.77994 -81.469826 
L 65.426593 -87.917185 
L 68.073247 -94.142858 
L 70.7199 -99.572705 
L 73.366553 -103.416084 
L 76.013207 -109.122251 
L 78.65986 -112.804336 
L 81.306513 -117.241229 
L 83.953167 -120.158354 
L 86.59982 -122.83931 
L 89.246473 -126.511141 
L 91.893127 -128.524144 
L 94.53978 -131.487804 
L 97.186433 -133.350135 
L 99.833087 -135.87587 
L 102.47974 -138.580261 
L 105.126393 -140.009538 
L 107.773047 -142.277784 
L 110.4197 -144.659732 
L 113.066353 -146.803432 
L 115.713007 -148.450448 
L 118.35966 -149.650931 
L 121.006313 -151.201452 
L 123.652967 -152.53162 
L 126.29962 -153.413842 
L 128.946273 -154.724824 
L 131.592927 -155.907001 
L 134.23958 -156.68166 
L 136.886233 -157.807002 
L 139.532887 -158.704439 
L 142.17954 -160.027812 
L 144.826193 -162.066329 
L 147.472847 -162.67687 
L 150.1195 -163.174454 
L 152.766153 -164.489117 
L 155.412807 -164.55565 
L 158.05946 -164.998079 
L 160.706113 -165.970224 
L 163.352767 -166.946173 
L 165.99942 -168.262872 
L 168.646073 -168.751447 
L 171.292727 -169.588725 
L 173.93938 -170.709862 
L 176.586033 -171.704474 
L 179.232687 -171.998456 
L 181.87934 -172.660993 
L 184.525993 -173.467473 
L 187.172647 -174.576443 
L 189.8193 -175.466039 
L 192.465953 -176.104063 
L 195.112607 -176.098813 
L 197.75926 -176.146227 
L 200.405913 -176.48968 
L 203.052567 -177.030173 
L 205.69922 -177.58339 
L 208.345873 -177.252539 
L 210.992527 -177.765961 
L 213.63918 -178.470629 
L 216.285833 -179.53372 
L 218.932487 -179.969375 
L 221.57914 -180.742901 
L 224.225793 -181.534588 
L 226.872447 -182.206746 
L 229.5191 -182.902705 
L 232.165753 -183.485963 
L 234.812407 -183.539194 
L 237.45906 -183.573172 
L 240.105713 -184.108683 
L 242.752367 -184.134731 
L 245.39902 -184.471232 
L 248.045673 -184.672388 
L 250.692327 -185.451096 
L 253.33898 -185.412858 
L 255.985633 -185.785907 
L 258.632287 -186.231873 
L 261.27894 -185.703703 
L 263.925593 -185.83579 
L 266.572247 -186.115891 
L 269.2189 -186.433129 
L 271.865553 -187.105498 
L 274.512207 -187.729152 
L 277.15886 -188.144799 
L 279.805513 -188.638123 
L 282.452167 -189.048665 
L 285.09882 -189.506075 
L 287.745473 -189.834602 
L 290.392127 -189.931298 
L 293.03878 -190.610919 
L 295.685433 -190.363884 
L 298.332087 -190.654318 
L 300.97874 -191.271665 
L 303.625393 -191.081187 
L 306.272047 -190.868876 
L 308.9187 -191.180186 
L 311.565353 -191.275225 
L 314.212007 -191.137743 
L 316.85866 -191.842867 
L 319.505313 -192.554664 
L 322.151967 -192.377933 
L 324.79862 -192.589299 
L 327.445273 -192.946454 
L 330.091927 -193.128213 
L 332.73858 -193.314732 
L 335.385233 -193.238122 
L 338.031887 -193.801594 
L 340.67854 -194.394117 
L 343.325193 -194.678133 
L 345.971847 -194.129053 
L 348.6185 -195.16782 
L 351.265153 -195.72771 
L 353.911807 -195.494367 
L 356.55846 -195.60719 
L 359.205113 -196.250319 
L 361.851767 -196.499967 
L 364.49842 -196.163588 
L 367.145073 -196.487288 
L 369.791727 -196.91498 
L 372.43838 -197.550813 
L 375.085033 -197.785046 
L 377.731687 -197.790118 
L 380.37834 -197.639012 
L 383.024993 -197.294402 
L 385.671647 -197.440081 
L 388.3183 -197.801084 
L 390.964953 -197.623597 
L 393.611607 -198.253601 
L 396.25826 -198.584597 
L 398.904913 -199.053419 
L 401.551567 -198.933455 
L 404.19822 -199.498796 
L 406.844873 -199.450436 
L 409.491527 -199.897526 
L 412.13818 -199.570823 
L 414.784833 -199.804767 
L 417.431487 -199.349981 
L 420.07814 -199.665806 
L 422.724793 -199.574026 
L 425.371447 -200.159097 
L 428.0181 -199.72769 
L 430.664753 -200.055372 
L 433.311407 -200.553401 
L 435.95806 -200.981093 
L 438.604713 -200.981026 
L 441.251367 -200.847782 
L 443.89802 -201.680655 
L 446.544673 -201.897004 
L 449.191327 -201.80647 
L 451.83798 -201.952837 
L 454.484633 -201.415881 
L 457.131287 -201.930993 
L 459.77794 -202.172033 
L 462.424593 -201.840993 
L 465.071247 -202.388716 
L 467.7179 -202.856581 
L 470.364553 -202.926139 
L 473.011207 -202.201374 
L 475.65786 -202.398926 
L 478.304513 -202.530234 
L 480.951167 -202.615341 
L 483.59782 -202.874065 
L 486.244473 -202.842923 
L 488.891127 -203.25262 
L 491.53778 -203.68961 
L 494.184433 -203.104962 
L 496.831087 -203.271305 
L 499.47774 -203.819873 
L 502.124393 -204.215311 
L 504.771047 -204.266517 
L 507.4177 -204.630568 
L 510.064353 -204.302954 
L 512.711007 -204.777047 
L 515.35766 -205.071251 
L 518.004313 -204.337188 
L 520.650967 -204.292232 
L 523.29762 -204.490607 
L 525.944273 -204.170555 
L 528.590927 -204.307647 
L 531.23758 -204.266295 
L 533.884233 -204.338989 
L 536.530887 -204.136944 
L 539.17754 -205.135938 
L 541.824193 -204.798958 
L 544.470847 -204.71612 
L 547.1175 -205.22694 
L 549.764153 -205.604693 
L 552.410807 -206.0022 
L 555.05746 -205.97713 
L 557.704113 -206.063149 
L 560.350767 -206.047356 
L 562.99742 -206.459677 
L 565.644073 -206.591608 
L 568.290727 -206.535175 
L 570.93738 -206.726721 
L 573.584033 -206.790228 
L 576.230687 -207.131546 
L 578.87734 -206.899826 
L 581.523993 -207.300269 
L 584.170647 -207.453644 
L 586.8173 -207.876954 
L 589.463953 -208.162082 
L 592.110607 -208.137992 
L 594.75726 -208.396805 
L 597.403913 -208.602587 
L 600.050567 -208.83097 
L 602.69722 -208.771978 
L 605.343873 -209.083599 
L 607.990527 -208.612174 
L 610.63718 -209.186613 
L 613.283833 -208.911583 
L 615.930487 -209.367637 
L 618.57714 -209.526373 
L 621.223793 -209.587968 
L 623.870447 -209.437707 
L 626.5171 -209.20314 
L 629.163753 -209.14337 
L 631.810407 -209.61148 
L 634.45706 -209.543012 
L 637.103713 -209.626495 
L 639.750367 -209.564722 
L 642.39702 -209.606697 
L 645.043673 -210.155755 
L 647.690327 -210.282748 
L 650.33698 -210.588096 
L 652.983633 -210.929169 
L 655.630287 -210.842727 
L 658.27694 -210.924653 
L 660.923593 -211.39065 
L 663.570247 -211.074536 
L 666.2169 -210.959844 
L 668.863553 -210.790764 
L 671.510207 -211.244638 
L 674.15686 -210.789763 
L 676.803513 -211.298447 
L 679.450167 -211.339043 
L 682.09682 -211.355348 
L 684.743473 -211.282387 
L 687.390127 -211.43049 
L 690.03678 -211.738641 
L 692.683433 -211.593118 
L 695.330087 -211.841098 
L 697.97674 -212.109209 
L 700.623393 -211.728208 
L 703.270047 -212.191736 
L 705.9167 -211.921823 
L 708.563353 -211.189494 
L 711.210007 -211.334995 
L 713.85666 -211.427976 
L 716.503313 -211.577258 
L 719.149967 -211.719978 
L 721.79662 -212.199566 
L 724.443273 -212.535389 
L 727.089927 -211.80375 
L 729.73658 -211.987377 
L 732.383233 -212.067435 
L 735.029887 -212.138572 
L 737.67654 -212.39803 
L 740.323193 -212.256289 
L 742.969847 -212.237515 
L 745.6165 -212.434444 
L 748.263153 -212.540394 
L 750.909807 -212.705714 
L 753.55646 -212.752983 
L 756.203113 -212.578343 
L 758.849767 -212.890854 
L 761.49642 -212.723287 
L 764.143073 -213.34059 
L 766.789727 -213.3054 
L 769.43638 -213.395689 
L 772.083033 -213.114098 
L 774.729687 -212.710875 
L 777.37634 -213.068564 
L 780.022993 -213.293566 
L 782.669647 -213.636418 
L 785.3163 -213.779938 
L 787.962953 -213.59907 
L 790.609607 -213.963098 
L 793.25626 -214.06867 
L 795.902913 -213.99493 
L 798.549567 -214.388144 
L 801.19622 -214.347436 
L 803.842873 -214.674362 
L 806.489527 -214.587564 
L 809.13618 -214.726436 
L 811.782833 -214.426871 
L 814.429487 -214.086977 
L 817.07614 -214.265155 
L 819.722793 -213.99949 
L 822.369447 -214.05539 
L 825.0161 -214.328484 
L 827.662753 -214.43301 
L 830.309407 -214.811031 
L 832.95606 -214.966541 
L 835.602713 -214.668222 
L 838.249367 -214.74372 
L 840.89602 -214.878765 
L 843.542673 -214.726525 
L 843.542673 -372.449367 
L 843.542673 -372.449367 
L 840.89602 -372.261447 
L 838.249367 -372.303911 
L 835.602713 -372.401964 
L 832.95606 -372.077352 
L 830.309407 -372.130183 
L 827.662753 -372.46189 
L 825.0161 -372.583278 
L 822.369447 -372.688872 
L 819.722793 -372.805455 
L 817.07614 -372.509938 
L 814.429487 -372.43929 
L 811.782833 -372.193446 
L 809.13618 -371.713791 
L 806.489527 -371.555566 
L 803.842873 -371.409644 
L 801.19622 -371.562351 
L 798.549567 -371.376967 
L 795.902913 -371.663363 
L 793.25626 -371.619519 
L 790.609607 -371.759747 
L 787.962953 -371.864051 
L 785.3163 -371.663652 
L 782.669647 -371.688565 
L 780.022993 -371.859157 
L 777.37634 -371.883471 
L 774.729687 -372.073259 
L 772.083033 -371.793092 
L 769.43638 -371.627705 
L 766.789727 -371.589378 
L 764.143073 -371.491458 
L 761.49642 -371.721042 
L 758.849767 -371.390602 
L 756.203113 -371.375854 
L 753.55646 -371.17461 
L 750.909807 -371.086099 
L 748.263153 -371.105452 
L 745.6165 -371.063076 
L 742.969847 -371.198567 
L 740.323193 -370.842123 
L 737.67654 -370.906232 
L 735.029887 -371.026485 
L 732.383233 -370.990449 
L 729.73658 -370.894331 
L 727.089927 -370.953879 
L 724.443273 -370.383689 
L 721.79662 -370.316178 
L 719.149967 -370.497113 
L 716.503313 -370.486258 
L 713.85666 -370.408514 
L 711.210007 -370.333551 
L 708.563353 -370.386203 
L 705.9167 -369.759224 
L 703.270047 -369.42805 
L 700.623393 -369.737558 
L 697.97674 -369.61339 
L 695.330087 -369.83332 
L 692.683433 -369.785494 
L 690.03678 -369.643086 
L 687.390127 -369.704591 
L 684.743473 -369.689065 
L 682.09682 -369.605916 
L 679.450167 -369.706171 
L 676.803513 -369.754508 
L 674.15686 -369.86177 
L 671.510207 -369.719428 
L 668.863553 -369.799419 
L 666.2169 -369.69338 
L 663.570247 -369.512133 
L 660.923593 -369.259148 
L 658.27694 -369.362607 
L 655.630287 -369.318852 
L 652.983633 -369.049651 
L 650.33698 -369.224558 
L 647.690327 -369.214215 
L 645.043673 -369.094384 
L 642.39702 -369.42389 
L 639.750367 -369.304149 
L 637.103713 -369.066379 
L 634.45706 -368.985165 
L 631.810407 -368.814906 
L 629.163753 -368.98948 
L 626.5171 -368.854701 
L 623.870447 -368.489427 
L 621.223793 -368.252369 
L 618.57714 -368.401562 
L 615.930487 -368.184056 
L 613.283833 -368.219514 
L 610.63718 -367.834464 
L 607.990527 -368.154605 
L 605.343873 -367.775583 
L 602.69722 -367.966462 
L 600.050567 -367.638669 
L 597.403913 -367.817225 
L 594.75726 -367.876862 
L 592.110607 -367.936632 
L 589.463953 -367.739347 
L 586.8173 -367.803767 
L 584.170647 -367.929714 
L 581.523993 -367.729404 
L 578.87734 -367.760101 
L 576.230687 -367.529316 
L 573.584033 -367.872947 
L 570.93738 -367.927334 
L 568.290727 -368.178807 
L 565.644073 -367.924754 
L 562.99742 -367.71688 
L 560.350767 -367.861558 
L 557.704113 -367.591378 
L 555.05746 -367.494593 
L 552.410807 -367.182571 
L 549.764153 -367.340506 
L 547.1175 -367.57901 
L 544.470847 -367.857465 
L 541.824193 -367.649791 
L 539.17754 -367.091703 
L 536.530887 -367.770556 
L 533.884233 -367.592801 
L 531.23758 -367.420853 
L 528.590927 -367.213513 
L 525.944273 -367.427882 
L 523.29762 -366.964042 
L 520.650967 -367.18088 
L 518.004313 -366.85351 
L 515.35766 -366.357639 
L 512.711007 -366.251445 
L 510.064353 -366.464701 
L 507.4177 -366.050778 
L 504.771047 -366.415007 
L 502.124393 -366.542912 
L 499.47774 -366.530522 
L 496.831087 -366.677135 
L 494.184433 -366.682874 
L 491.53778 -366.056451 
L 488.891127 -366.137754 
L 486.244473 -366.301428 
L 483.59782 -366.277137 
L 480.951167 -366.385 
L 478.304513 -366.301005 
L 475.65786 -366.250444 
L 473.011207 -365.952569 
L 470.364553 -364.980536 
L 467.7179 -364.767768 
L 465.071247 -364.97146 
L 462.424593 -365.337179 
L 459.77794 -365.025847 
L 457.131287 -364.798243 
L 454.484633 -365.018974 
L 451.83798 -364.594707 
L 449.191327 -364.365724 
L 446.544673 -364.141234 
L 443.89802 -364.092474 
L 441.251367 -364.357671 
L 438.604713 -364.131268 
L 435.95806 -364.009125 
L 433.311407 -364.091896 
L 430.664753 -364.431367 
L 428.0181 -364.520634 
L 425.371447 -364.031124 
L 422.724793 -364.307978 
L 420.07814 -364.176291 
L 417.431487 -364.231146 
L 414.784833 -363.779607 
L 412.13818 -363.657553 
L 409.491527 -363.269989 
L 406.844873 -363.717078 
L 404.19822 -363.627745 
L 401.551567 -363.423564 
L 398.904913 -363.377185 
L 396.25826 -363.483958 
L 393.611607 -363.484314 
L 390.964953 -363.819269 
L 388.3183 -363.456664 
L 385.671647 -363.700662 
L 383.024993 -363.541237 
L 380.37834 -363.307627 
L 377.731687 -362.997963 
L 375.085033 -362.836558 
L 372.43838 -362.721733 
L 369.791727 -362.974473 
L 367.145073 -363.112766 
L 364.49842 -362.844855 
L 361.851767 -362.456825 
L 359.205113 -362.191694 
L 356.55846 -362.172475 
L 353.911807 -361.753525 
L 351.265153 -361.479875 
L 348.6185 -361.439479 
L 345.971847 -361.934772 
L 343.325193 -361.513375 
L 340.67854 -361.42373 
L 338.031887 -361.634985 
L 335.385233 -361.958395 
L 332.73858 -361.517468 
L 330.091927 -361.364048 
L 327.445273 -361.279231 
L 324.79862 -361.382578 
L 322.151967 -361.259522 
L 319.505313 -361.064194 
L 316.85866 -361.311974 
L 314.212007 -361.133997 
L 311.565353 -360.695717 
L 308.9187 -360.361006 
L 306.272047 -360.353821 
L 303.625393 -359.942389 
L 300.97874 -359.545283 
L 298.332087 -359.742057 
L 295.685433 -359.443715 
L 293.03878 -358.818338 
L 290.392127 -359.11421 
L 287.745473 -358.586462 
L 285.09882 -358.592669 
L 282.452167 -358.289678 
L 279.805513 -358.132544 
L 277.15886 -358.190869 
L 274.512207 -358.348426 
L 271.865553 -358.259648 
L 269.2189 -358.352852 
L 266.572247 -358.388888 
L 263.925593 -358.110834 
L 261.27894 -357.811647 
L 258.632287 -357.007024 
L 255.985633 -356.79904 
L 253.33898 -356.525256 
L 250.692327 -355.952553 
L 248.045673 -355.974041 
L 245.39902 -355.881149 
L 242.752367 -355.635415 
L 240.105713 -354.991819 
L 237.45906 -355.129067 
L 234.812407 -354.933672 
L 232.165753 -354.643206 
L 229.5191 -354.711518 
L 226.872447 -354.633819 
L 224.225793 -354.473681 
L 221.57914 -354.734452 
L 218.932487 -354.782233 
L 216.285833 -354.564772 
L 213.63918 -354.779074 
L 210.992527 -354.383125 
L 208.345873 -354.3587 
L 205.69922 -353.743333 
L 203.052567 -353.643366 
L 200.405913 -353.198835 
L 197.75926 -352.956461 
L 195.112607 -352.514287 
L 192.465953 -351.89456 
L 189.8193 -351.597731 
L 187.172647 -351.371328 
L 184.525993 -351.274476 
L 181.87934 -351.791212 
L 179.232687 -351.503815 
L 176.586033 -350.952956 
L 173.93938 -350.550889 
L 171.292727 -350.29697 
L 168.646073 -350.205902 
L 165.99942 -349.620831 
L 163.352767 -349.760525 
L 160.706113 -349.720886 
L 158.05946 -349.369514 
L 155.412807 -348.811692 
L 152.766153 -347.935287 
L 150.1195 -347.68813 
L 147.472847 -347.065622 
L 144.826193 -346.780872 
L 142.17954 -347.242264 
L 139.532887 -347.149483 
L 136.886233 -346.255349 
L 134.23958 -345.549713 
L 131.592927 -344.916706 
L 128.946273 -344.213584 
L 126.29962 -343.779908 
L 123.652967 -342.697676 
L 121.006313 -342.135338 
L 118.35966 -341.556451 
L 115.713007 -340.796095 
L 113.066353 -340.215428 
L 110.4197 -340.556479 
L 107.773047 -340.399033 
L 105.126393 -340.349272 
L 102.47974 -338.644977 
L 99.833087 -338.043022 
L 97.186433 -337.241313 
L 94.53978 -336.059649 
L 91.893127 -334.938177 
L 89.246473 -333.386678 
L 86.59982 -333.522636 
L 83.953167 -332.109674 
L 81.306513 -330.759976 
L 78.65986 -330.607268 
L 76.013207 -329.562117 
L 73.366553 -329.157136 
L 70.7199 -326.873309 
L 68.073247 -324.995663 
L 65.426593 -323.533185 
L 62.77994 -320.890578 
L 60.133287 -318.171806 
L 57.486633 -315.770083 
L 54.83998 -313.71575 
L 52.193327 -312.810227 
z
" style="stroke: #0000ff; stroke-opacity: 0.2"/>
    </defs>
    <g clip-path="url(#p026dd82435)">
     <use xlink:href="#me1d351c636" x="0" y="432" style="fill: #0000ff; fill-opacity: 0.2; stroke: #0000ff; stroke-opacity: 0.2"/>
    </g>
   </g>
   <g id="matplotlib.axis_1">
    <g id="xtick_1">
     <g id="line2d_1">
      <defs>
       <path id="m85d3a24c27" d="M 0 0 
L 0 3.5 
" style="stroke: #000000; stroke-width: 0.8"/>
      </defs>
      <g>
       <use xlink:href="#m85d3a24c27" x="181.87934" y="390.04" style="stroke: #000000; stroke-width: 0.8"/>
      </g>
     </g>
     <g id="text_1">
      <!-- 50 -->
      <g transform="translate(175.51684 404.638438) scale(0.1 -0.1)">
       <defs>
        <path id="DejaVuSans-35" d="M 691 4666 
L 3169 4666 
L 3169 4134 
L 1269 4134 
L 1269 2991 
Q 1406 3038 1543 3061 
Q 1681 3084 1819 3084 
Q 2600 3084 3056 2656 
Q 3513 2228 3513 1497 
Q 3513 744 3044 326 
Q 2575 -91 1722 -91 
Q 1428 -91 1123 -41 
Q 819 9 494 109 
L 494 744 
Q 775 591 1075 516 
Q 1375 441 1709 441 
Q 2250 441 2565 725 
Q 2881 1009 2881 1497 
Q 2881 1984 2565 2268 
Q 2250 2553 1709 2553 
Q 1456 2553 1204 2497 
Q 953 2441 691 2322 
L 691 4666 
z
" transform="scale(0.015625)"/>
        <path id="DejaVuSans-30" d="M 2034 4250 
Q 1547 4250 1301 3770 
Q 1056 3291 1056 2328 
Q 1056 1369 1301 889 
Q 1547 409 2034 409 
Q 2525 409 2770 889 
Q 3016 1369 3016 2328 
Q 3016 3291 2770 3770 
Q 2525 4250 2034 4250 
z
M 2034 4750 
Q 2819 4750 3233 4129 
Q 3647 3509 3647 2328 
Q 3647 1150 3233 529 
Q 2819 -91 2034 -91 
Q 1250 -91 836 529 
Q 422 1150 422 2328 
Q 422 3509 836 4129 
Q 1250 4750 2034 4750 
z
" transform="scale(0.015625)"/>
       </defs>
       <use xlink:href="#DejaVuSans-35"/>
       <use xlink:href="#DejaVuSans-30" transform="translate(63.623047 0)"/>
      </g>
     </g>
    </g>
    <g id="xtick_2">
     <g id="line2d_2">
      <g>
       <use xlink:href="#m85d3a24c27" x="314.212007" y="390.04" style="stroke: #000000; stroke-width: 0.8"/>
      </g>
     </g>
     <g id="text_2">
      <!-- 100 -->
      <g transform="translate(304.668257 404.638438) scale(0.1 -0.1)">
       <defs>
        <path id="DejaVuSans-31" d="M 794 531 
L 1825 531 
L 1825 4091 
L 703 3866 
L 703 4441 
L 1819 4666 
L 2450 4666 
L 2450 531 
L 3481 531 
L 3481 0 
L 794 0 
L 794 531 
z
" transform="scale(0.015625)"/>
       </defs>
       <use xlink:href="#DejaVuSans-31"/>
       <use xlink:href="#DejaVuSans-30" transform="translate(63.623047 0)"/>
       <use xlink:href="#DejaVuSans-30" transform="translate(127.246094 0)"/>
      </g>
     </g>
    </g>
    <g id="xtick_3">
     <g id="line2d_3">
      <g>
       <use xlink:href="#m85d3a24c27" x="446.544673" y="390.04" style="stroke: #000000; stroke-width: 0.8"/>
      </g>
     </g>
     <g id="text_3">
      <!-- 150 -->
      <g transform="translate(437.000923 404.638438) scale(0.1 -0.1)">
       <use xlink:href="#DejaVuSans-31"/>
       <use xlink:href="#DejaVuSans-35" transform="translate(63.623047 0)"/>
       <use xlink:href="#DejaVuSans-30" transform="translate(127.246094 0)"/>
      </g>
     </g>
    </g>
    <g id="xtick_4">
     <g id="line2d_4">
      <g>
       <use xlink:href="#m85d3a24c27" x="578.87734" y="390.04" style="stroke: #000000; stroke-width: 0.8"/>
      </g>
     </g>
     <g id="text_4">
      <!-- 200 -->
      <g transform="translate(569.33359 404.638438) scale(0.1 -0.1)">
       <defs>
        <path id="DejaVuSans-32" d="M 1228 531 
L 3431 531 
L 3431 0 
L 469 0 
L 469 531 
Q 828 903 1448 1529 
Q 2069 2156 2228 2338 
Q 2531 2678 2651 2914 
Q 2772 3150 2772 3378 
Q 2772 3750 2511 3984 
Q 2250 4219 1831 4219 
Q 1534 4219 1204 4116 
Q 875 4013 500 3803 
L 500 4441 
Q 881 4594 1212 4672 
Q 1544 4750 1819 4750 
Q 2544 4750 2975 4387 
Q 3406 4025 3406 3419 
Q 3406 3131 3298 2873 
Q 3191 2616 2906 2266 
Q 2828 2175 2409 1742 
Q 1991 1309 1228 531 
z
" transform="scale(0.015625)"/>
       </defs>
       <use xlink:href="#DejaVuSans-32"/>
       <use xlink:href="#DejaVuSans-30" transform="translate(63.623047 0)"/>
       <use xlink:href="#DejaVuSans-30" transform="translate(127.246094 0)"/>
      </g>
     </g>
    </g>
    <g id="xtick_5">
     <g id="line2d_5">
      <g>
       <use xlink:href="#m85d3a24c27" x="711.210007" y="390.04" style="stroke: #000000; stroke-width: 0.8"/>
      </g>
     </g>
     <g id="text_5">
      <!-- 250 -->
      <g transform="translate(701.666257 404.638438) scale(0.1 -0.1)">
       <use xlink:href="#DejaVuSans-32"/>
       <use xlink:href="#DejaVuSans-35" transform="translate(63.623047 0)"/>
       <use xlink:href="#DejaVuSans-30" transform="translate(127.246094 0)"/>
      </g>
     </g>
    </g>
    <g id="xtick_6">
     <g id="line2d_6">
      <g>
       <use xlink:href="#m85d3a24c27" x="843.542673" y="390.04" style="stroke: #000000; stroke-width: 0.8"/>
      </g>
     </g>
     <g id="text_6">
      <!-- 300 -->
      <g transform="translate(833.998923 404.638438) scale(0.1 -0.1)">
       <defs>
        <path id="DejaVuSans-33" d="M 2597 2516 
Q 3050 2419 3304 2112 
Q 3559 1806 3559 1356 
Q 3559 666 3084 287 
Q 2609 -91 1734 -91 
Q 1441 -91 1130 -33 
Q 819 25 488 141 
L 488 750 
Q 750 597 1062 519 
Q 1375 441 1716 441 
Q 2309 441 2620 675 
Q 2931 909 2931 1356 
Q 2931 1769 2642 2001 
Q 2353 2234 1838 2234 
L 1294 2234 
L 1294 2753 
L 1863 2753 
Q 2328 2753 2575 2939 
Q 2822 3125 2822 3475 
Q 2822 3834 2567 4026 
Q 2313 4219 1838 4219 
Q 1578 4219 1281 4162 
Q 984 4106 628 3988 
L 628 4550 
Q 988 4650 1302 4700 
Q 1616 4750 1894 4750 
Q 2613 4750 3031 4423 
Q 3450 4097 3450 3541 
Q 3450 3153 3228 2886 
Q 3006 2619 2597 2516 
z
" transform="scale(0.015625)"/>
       </defs>
       <use xlink:href="#DejaVuSans-33"/>
       <use xlink:href="#DejaVuSans-30" transform="translate(63.623047 0)"/>
       <use xlink:href="#DejaVuSans-30" transform="translate(127.246094 0)"/>
      </g>
     </g>
    </g>
    <g id="text_7">
     <!-- Step -->
     <g transform="translate(436.482844 418.316562) scale(0.1 -0.1)">
      <defs>
       <path id="DejaVuSans-53" d="M 3425 4513 
L 3425 3897 
Q 3066 4069 2747 4153 
Q 2428 4238 2131 4238 
Q 1616 4238 1336 4038 
Q 1056 3838 1056 3469 
Q 1056 3159 1242 3001 
Q 1428 2844 1947 2747 
L 2328 2669 
Q 3034 2534 3370 2195 
Q 3706 1856 3706 1288 
Q 3706 609 3251 259 
Q 2797 -91 1919 -91 
Q 1588 -91 1214 -16 
Q 841 59 441 206 
L 441 856 
Q 825 641 1194 531 
Q 1563 422 1919 422 
Q 2459 422 2753 634 
Q 3047 847 3047 1241 
Q 3047 1584 2836 1778 
Q 2625 1972 2144 2069 
L 1759 2144 
Q 1053 2284 737 2584 
Q 422 2884 422 3419 
Q 422 4038 858 4394 
Q 1294 4750 2059 4750 
Q 2388 4750 2728 4690 
Q 3069 4631 3425 4513 
z
" transform="scale(0.015625)"/>
       <path id="DejaVuSans-74" d="M 1172 4494 
L 1172 3500 
L 2356 3500 
L 2356 3053 
L 1172 3053 
L 1172 1153 
Q 1172 725 1289 603 
Q 1406 481 1766 481 
L 2356 481 
L 2356 0 
L 1766 0 
Q 1100 0 847 248 
Q 594 497 594 1153 
L 594 3053 
L 172 3053 
L 172 3500 
L 594 3500 
L 594 4494 
L 1172 4494 
z
" transform="scale(0.015625)"/>
       <path id="DejaVuSans-65" d="M 3597 1894 
L 3597 1613 
L 953 1613 
Q 991 1019 1311 708 
Q 1631 397 2203 397 
Q 2534 397 2845 478 
Q 3156 559 3463 722 
L 3463 178 
Q 3153 47 2828 -22 
Q 2503 -91 2169 -91 
Q 1331 -91 842 396 
Q 353 884 353 1716 
Q 353 2575 817 3079 
Q 1281 3584 2069 3584 
Q 2775 3584 3186 3129 
Q 3597 2675 3597 1894 
z
M 3022 2063 
Q 3016 2534 2758 2815 
Q 2500 3097 2075 3097 
Q 1594 3097 1305 2825 
Q 1016 2553 972 2059 
L 3022 2063 
z
" transform="scale(0.015625)"/>
       <path id="DejaVuSans-70" d="M 1159 525 
L 1159 -1331 
L 581 -1331 
L 581 3500 
L 1159 3500 
L 1159 2969 
Q 1341 3281 1617 3432 
Q 1894 3584 2278 3584 
Q 2916 3584 3314 3078 
Q 3713 2572 3713 1747 
Q 3713 922 3314 415 
Q 2916 -91 2278 -91 
Q 1894 -91 1617 61 
Q 1341 213 1159 525 
z
M 3116 1747 
Q 3116 2381 2855 2742 
Q 2594 3103 2138 3103 
Q 1681 3103 1420 2742 
Q 1159 2381 1159 1747 
Q 1159 1113 1420 752 
Q 1681 391 2138 391 
Q 2594 391 2855 752 
Q 3116 1113 3116 1747 
z
" transform="scale(0.015625)"/>
      </defs>
      <use xlink:href="#DejaVuSans-53"/>
      <use xlink:href="#DejaVuSans-74" transform="translate(63.476562 0)"/>
      <use xlink:href="#DejaVuSans-65" transform="translate(102.685547 0)"/>
      <use xlink:href="#DejaVuSans-70" transform="translate(164.208984 0)"/>
     </g>
    </g>
   </g>
   <g id="matplotlib.axis_2">
    <g id="ytick_1">
     <g id="line2d_7">
      <defs>
       <path id="m2631c793a1" d="M 0 0 
L -3.5 0 
" style="stroke: #000000; stroke-width: 0.8"/>
      </defs>
      <g>
       <use xlink:href="#m2631c793a1" x="50.87" y="368.415903" style="stroke: #000000; stroke-width: 0.8"/>
      </g>
     </g>
     <g id="text_8">
      <!-- 20 -->
      <g transform="translate(31.145 372.215122) scale(0.1 -0.1)">
       <use xlink:href="#DejaVuSans-32"/>
       <use xlink:href="#DejaVuSans-30" transform="translate(63.623047 0)"/>
      </g>
     </g>
    </g>
    <g id="ytick_2">
     <g id="line2d_8">
      <g>
       <use xlink:href="#m2631c793a1" x="50.87" y="310.103662" style="stroke: #000000; stroke-width: 0.8"/>
      </g>
     </g>
     <g id="text_9">
      <!-- 40 -->
      <g transform="translate(31.145 313.90288) scale(0.1 -0.1)">
       <defs>
        <path id="DejaVuSans-34" d="M 2419 4116 
L 825 1625 
L 2419 1625 
L 2419 4116 
z
M 2253 4666 
L 3047 4666 
L 3047 1625 
L 3713 1625 
L 3713 1100 
L 3047 1100 
L 3047 0 
L 2419 0 
L 2419 1100 
L 313 1100 
L 313 1709 
L 2253 4666 
z
" transform="scale(0.015625)"/>
       </defs>
       <use xlink:href="#DejaVuSans-34"/>
       <use xlink:href="#DejaVuSans-30" transform="translate(63.623047 0)"/>
      </g>
     </g>
    </g>
    <g id="ytick_3">
     <g id="line2d_9">
      <g>
       <use xlink:href="#m2631c793a1" x="50.87" y="251.79142" style="stroke: #000000; stroke-width: 0.8"/>
      </g>
     </g>
     <g id="text_10">
      <!-- 60 -->
      <g transform="translate(31.145 255.590639) scale(0.1 -0.1)">
       <defs>
        <path id="DejaVuSans-36" d="M 2113 2584 
Q 1688 2584 1439 2293 
Q 1191 2003 1191 1497 
Q 1191 994 1439 701 
Q 1688 409 2113 409 
Q 2538 409 2786 701 
Q 3034 994 3034 1497 
Q 3034 2003 2786 2293 
Q 2538 2584 2113 2584 
z
M 3366 4563 
L 3366 3988 
Q 3128 4100 2886 4159 
Q 2644 4219 2406 4219 
Q 1781 4219 1451 3797 
Q 1122 3375 1075 2522 
Q 1259 2794 1537 2939 
Q 1816 3084 2150 3084 
Q 2853 3084 3261 2657 
Q 3669 2231 3669 1497 
Q 3669 778 3244 343 
Q 2819 -91 2113 -91 
Q 1303 -91 875 529 
Q 447 1150 447 2328 
Q 447 3434 972 4092 
Q 1497 4750 2381 4750 
Q 2619 4750 2861 4703 
Q 3103 4656 3366 4563 
z
" transform="scale(0.015625)"/>
       </defs>
       <use xlink:href="#DejaVuSans-36"/>
       <use xlink:href="#DejaVuSans-30" transform="translate(63.623047 0)"/>
      </g>
     </g>
    </g>
    <g id="ytick_4">
     <g id="line2d_10">
      <g>
       <use xlink:href="#m2631c793a1" x="50.87" y="193.479178" style="stroke: #000000; stroke-width: 0.8"/>
      </g>
     </g>
     <g id="text_11">
      <!-- 80 -->
      <g transform="translate(31.145 197.278397) scale(0.1 -0.1)">
       <defs>
        <path id="DejaVuSans-38" d="M 2034 2216 
Q 1584 2216 1326 1975 
Q 1069 1734 1069 1313 
Q 1069 891 1326 650 
Q 1584 409 2034 409 
Q 2484 409 2743 651 
Q 3003 894 3003 1313 
Q 3003 1734 2745 1975 
Q 2488 2216 2034 2216 
z
M 1403 2484 
Q 997 2584 770 2862 
Q 544 3141 544 3541 
Q 544 4100 942 4425 
Q 1341 4750 2034 4750 
Q 2731 4750 3128 4425 
Q 3525 4100 3525 3541 
Q 3525 3141 3298 2862 
Q 3072 2584 2669 2484 
Q 3125 2378 3379 2068 
Q 3634 1759 3634 1313 
Q 3634 634 3220 271 
Q 2806 -91 2034 -91 
Q 1263 -91 848 271 
Q 434 634 434 1313 
Q 434 1759 690 2068 
Q 947 2378 1403 2484 
z
M 1172 3481 
Q 1172 3119 1398 2916 
Q 1625 2713 2034 2713 
Q 2441 2713 2670 2916 
Q 2900 3119 2900 3481 
Q 2900 3844 2670 4047 
Q 2441 4250 2034 4250 
Q 1625 4250 1398 4047 
Q 1172 3844 1172 3481 
z
" transform="scale(0.015625)"/>
       </defs>
       <use xlink:href="#DejaVuSans-38"/>
       <use xlink:href="#DejaVuSans-30" transform="translate(63.623047 0)"/>
      </g>
     </g>
    </g>
    <g id="ytick_5">
     <g id="line2d_11">
      <g>
       <use xlink:href="#m2631c793a1" x="50.87" y="135.166936" style="stroke: #000000; stroke-width: 0.8"/>
      </g>
     </g>
     <g id="text_12">
      <!-- 100 -->
      <g transform="translate(24.7825 138.966155) scale(0.1 -0.1)">
       <use xlink:href="#DejaVuSans-31"/>
       <use xlink:href="#DejaVuSans-30" transform="translate(63.623047 0)"/>
       <use xlink:href="#DejaVuSans-30" transform="translate(127.246094 0)"/>
      </g>
     </g>
    </g>
    <g id="ytick_6">
     <g id="line2d_12">
      <g>
       <use xlink:href="#m2631c793a1" x="50.87" y="76.854695" style="stroke: #000000; stroke-width: 0.8"/>
      </g>
     </g>
     <g id="text_13">
      <!-- 120 -->
      <g transform="translate(24.7825 80.653913) scale(0.1 -0.1)">
       <use xlink:href="#DejaVuSans-31"/>
       <use xlink:href="#DejaVuSans-32" transform="translate(63.623047 0)"/>
       <use xlink:href="#DejaVuSans-30" transform="translate(127.246094 0)"/>
      </g>
     </g>
    </g>
    <g id="text_14">
     <!-- Profit -->
     <g transform="translate(18.702813 229.779063) rotate(-90) scale(0.1 -0.1)">
      <defs>
       <path id="DejaVuSans-50" d="M 1259 4147 
L 1259 2394 
L 2053 2394 
Q 2494 2394 2734 2622 
Q 2975 2850 2975 3272 
Q 2975 3691 2734 3919 
Q 2494 4147 2053 4147 
L 1259 4147 
z
M 628 4666 
L 2053 4666 
Q 2838 4666 3239 4311 
Q 3641 3956 3641 3272 
Q 3641 2581 3239 2228 
Q 2838 1875 2053 1875 
L 1259 1875 
L 1259 0 
L 628 0 
L 628 4666 
z
" transform="scale(0.015625)"/>
       <path id="DejaVuSans-72" d="M 2631 2963 
Q 2534 3019 2420 3045 
Q 2306 3072 2169 3072 
Q 1681 3072 1420 2755 
Q 1159 2438 1159 1844 
L 1159 0 
L 581 0 
L 581 3500 
L 1159 3500 
L 1159 2956 
Q 1341 3275 1631 3429 
Q 1922 3584 2338 3584 
Q 2397 3584 2469 3576 
Q 2541 3569 2628 3553 
L 2631 2963 
z
" transform="scale(0.015625)"/>
       <path id="DejaVuSans-6f" d="M 1959 3097 
Q 1497 3097 1228 2736 
Q 959 2375 959 1747 
Q 959 1119 1226 758 
Q 1494 397 1959 397 
Q 2419 397 2687 759 
Q 2956 1122 2956 1747 
Q 2956 2369 2687 2733 
Q 2419 3097 1959 3097 
z
M 1959 3584 
Q 2709 3584 3137 3096 
Q 3566 2609 3566 1747 
Q 3566 888 3137 398 
Q 2709 -91 1959 -91 
Q 1206 -91 779 398 
Q 353 888 353 1747 
Q 353 2609 779 3096 
Q 1206 3584 1959 3584 
z
" transform="scale(0.015625)"/>
       <path id="DejaVuSans-66" d="M 2375 4863 
L 2375 4384 
L 1825 4384 
Q 1516 4384 1395 4259 
Q 1275 4134 1275 3809 
L 1275 3500 
L 2222 3500 
L 2222 3053 
L 1275 3053 
L 1275 0 
L 697 0 
L 697 3053 
L 147 3053 
L 147 3500 
L 697 3500 
L 697 3744 
Q 697 4328 969 4595 
Q 1241 4863 1831 4863 
L 2375 4863 
z
" transform="scale(0.015625)"/>
       <path id="DejaVuSans-69" d="M 603 3500 
L 1178 3500 
L 1178 0 
L 603 0 
L 603 3500 
z
M 603 4863 
L 1178 4863 
L 1178 4134 
L 603 4134 
L 603 4863 
z
" transform="scale(0.015625)"/>
      </defs>
      <use xlink:href="#DejaVuSans-50"/>
      <use xlink:href="#DejaVuSans-72" transform="translate(58.552734 0)"/>
      <use xlink:href="#DejaVuSans-6f" transform="translate(97.416016 0)"/>
      <use xlink:href="#DejaVuSans-66" transform="translate(158.597656 0)"/>
      <use xlink:href="#DejaVuSans-69" transform="translate(193.802734 0)"/>
      <use xlink:href="#DejaVuSans-74" transform="translate(221.585938 0)"/>
     </g>
    </g>
   </g>
   <g id="line2d_13">
    <path d="M 52.193327 246.126294 
L 54.83998 246.284852 
L 57.486633 241.067383 
L 60.133287 235.587787 
L 65.426593 226.274809 
L 70.7199 218.776993 
L 76.013207 212.657816 
L 81.306513 207.999403 
L 86.59982 203.819022 
L 91.893127 200.268845 
L 94.53978 198.226279 
L 97.186433 196.704276 
L 105.126393 191.820595 
L 110.4197 189.391889 
L 113.066353 188.49057 
L 115.713007 187.376729 
L 131.592927 181.588147 
L 134.23958 180.884313 
L 139.532887 179.073044 
L 144.826193 177.5764 
L 150.1195 176.568708 
L 152.766153 175.787798 
L 158.05946 174.816209 
L 160.706113 174.154439 
L 171.292727 172.057153 
L 176.586033 170.671285 
L 181.87934 169.773903 
L 184.525993 169.629026 
L 189.8193 168.468115 
L 192.465953 168.000694 
L 203.052567 166.66323 
L 205.69922 166.336639 
L 208.345873 166.194386 
L 210.992527 165.925452 
L 213.63918 165.375149 
L 218.932487 164.624201 
L 229.5191 163.192888 
L 234.812407 162.763572 
L 240.105713 162.449749 
L 245.39902 161.823815 
L 248.045673 161.67678 
L 253.33898 161.030937 
L 258.632287 160.380557 
L 263.925593 160.026694 
L 266.572247 159.747616 
L 269.2189 159.607009 
L 277.15886 158.832172 
L 282.452167 158.330828 
L 285.09882 157.950628 
L 287.745473 157.789468 
L 290.392127 157.477246 
L 298.332087 156.801818 
L 303.625393 156.488217 
L 308.9187 156.229404 
L 314.212007 155.86413 
L 316.85866 155.422579 
L 319.505313 155.190571 
L 322.151967 155.181273 
L 343.325193 153.904246 
L 345.971847 153.968088 
L 351.265153 153.396208 
L 353.911807 153.376054 
L 361.851767 152.521604 
L 364.49842 152.495778 
L 367.145073 152.199973 
L 380.37834 151.526681 
L 383.024993 151.58218 
L 388.3183 151.371126 
L 393.611607 151.131043 
L 398.904913 150.784698 
L 401.551567 150.82149 
L 404.19822 150.43673 
L 412.13818 150.385812 
L 414.784833 150.207813 
L 417.431487 150.209437 
L 425.371447 149.904889 
L 430.664753 149.756631 
L 441.251367 149.397273 
L 443.89802 149.113435 
L 451.83798 148.726228 
L 454.484633 148.782573 
L 462.424593 148.410914 
L 470.364553 148.046663 
L 473.011207 147.923029 
L 475.65786 147.675315 
L 483.59782 147.424399 
L 486.244473 147.427825 
L 504.771047 146.659238 
L 510.064353 146.616173 
L 515.35766 146.285555 
L 518.004313 146.404651 
L 520.650967 146.263444 
L 528.590927 146.23942 
L 552.410807 145.407615 
L 568.290727 144.643009 
L 578.87734 144.670036 
L 586.8173 144.15964 
L 597.403913 143.790094 
L 602.69722 143.63078 
L 615.930487 143.224153 
L 618.57714 143.036033 
L 623.870447 143.036433 
L 642.39702 142.484706 
L 663.570247 141.706666 
L 692.683433 141.310694 
L 695.330087 141.162791 
L 697.97674 141.1387 
L 700.623393 141.267117 
L 705.9167 141.159477 
L 711.210007 141.165727 
L 721.79662 140.742128 
L 724.443273 140.540461 
L 727.089927 140.621186 
L 737.67654 140.347869 
L 740.323193 140.450794 
L 742.969847 140.281959 
L 750.909807 140.104093 
L 761.49642 139.777835 
L 764.143073 139.583976 
L 772.083033 139.546405 
L 774.729687 139.607933 
L 790.609607 139.138577 
L 798.549567 139.117445 
L 819.722793 138.597528 
L 822.369447 138.627869 
L 827.662753 138.55255 
L 843.542673 138.412054 
L 843.542673 138.412054 
" clip-path="url(#p026dd82435)" style="fill: none; stroke: #0000ff; stroke-width: 1.5; stroke-linecap: square"/>
   </g>
   <g id="patch_3">
    <path d="M 50.87 390.04 
L 50.87 43.44 
" style="fill: none; stroke: #000000; stroke-width: 0.8; stroke-linejoin: miter; stroke-linecap: square"/>
   </g>
   <g id="patch_4">
    <path d="M 844.866 390.04 
L 844.866 43.44 
" style="fill: none; stroke: #000000; stroke-width: 0.8; stroke-linejoin: miter; stroke-linecap: square"/>
   </g>
   <g id="patch_5">
    <path d="M 50.87 390.04 
L 844.866 390.04 
" style="fill: none; stroke: #000000; stroke-width: 0.8; stroke-linejoin: miter; stroke-linecap: square"/>
   </g>
   <g id="patch_6">
    <path d="M 50.87 43.44 
L 844.866 43.44 
" style="fill: none; stroke: #000000; stroke-width: 0.8; stroke-linejoin: miter; stroke-linecap: square"/>
   </g>
   <g id="text_15">
    <!-- Mean profit per step with confidence interval per simulation step -->
    <g transform="translate(220.284875 21.763062) scale(0.14 -0.14)">
     <defs>
      <path id="DejaVuSans-4d" d="M 628 4666 
L 1569 4666 
L 2759 1491 
L 3956 4666 
L 4897 4666 
L 4897 0 
L 4281 0 
L 4281 4097 
L 3078 897 
L 2444 897 
L 1241 4097 
L 1241 0 
L 628 0 
L 628 4666 
z
" transform="scale(0.015625)"/>
      <path id="DejaVuSans-61" d="M 2194 1759 
Q 1497 1759 1228 1600 
Q 959 1441 959 1056 
Q 959 750 1161 570 
Q 1363 391 1709 391 
Q 2188 391 2477 730 
Q 2766 1069 2766 1631 
L 2766 1759 
L 2194 1759 
z
M 3341 1997 
L 3341 0 
L 2766 0 
L 2766 531 
Q 2569 213 2275 61 
Q 1981 -91 1556 -91 
Q 1019 -91 701 211 
Q 384 513 384 1019 
Q 384 1609 779 1909 
Q 1175 2209 1959 2209 
L 2766 2209 
L 2766 2266 
Q 2766 2663 2505 2880 
Q 2244 3097 1772 3097 
Q 1472 3097 1187 3025 
Q 903 2953 641 2809 
L 641 3341 
Q 956 3463 1253 3523 
Q 1550 3584 1831 3584 
Q 2591 3584 2966 3190 
Q 3341 2797 3341 1997 
z
" transform="scale(0.015625)"/>
      <path id="DejaVuSans-6e" d="M 3513 2113 
L 3513 0 
L 2938 0 
L 2938 2094 
Q 2938 2591 2744 2837 
Q 2550 3084 2163 3084 
Q 1697 3084 1428 2787 
Q 1159 2491 1159 1978 
L 1159 0 
L 581 0 
L 581 3500 
L 1159 3500 
L 1159 2956 
Q 1366 3272 1645 3428 
Q 1925 3584 2291 3584 
Q 2894 3584 3203 3211 
Q 3513 2838 3513 2113 
z
" transform="scale(0.015625)"/>
      <path id="DejaVuSans-20" transform="scale(0.015625)"/>
      <path id="DejaVuSans-73" d="M 2834 3397 
L 2834 2853 
Q 2591 2978 2328 3040 
Q 2066 3103 1784 3103 
Q 1356 3103 1142 2972 
Q 928 2841 928 2578 
Q 928 2378 1081 2264 
Q 1234 2150 1697 2047 
L 1894 2003 
Q 2506 1872 2764 1633 
Q 3022 1394 3022 966 
Q 3022 478 2636 193 
Q 2250 -91 1575 -91 
Q 1294 -91 989 -36 
Q 684 19 347 128 
L 347 722 
Q 666 556 975 473 
Q 1284 391 1588 391 
Q 1994 391 2212 530 
Q 2431 669 2431 922 
Q 2431 1156 2273 1281 
Q 2116 1406 1581 1522 
L 1381 1569 
Q 847 1681 609 1914 
Q 372 2147 372 2553 
Q 372 3047 722 3315 
Q 1072 3584 1716 3584 
Q 2034 3584 2315 3537 
Q 2597 3491 2834 3397 
z
" transform="scale(0.015625)"/>
      <path id="DejaVuSans-77" d="M 269 3500 
L 844 3500 
L 1563 769 
L 2278 3500 
L 2956 3500 
L 3675 769 
L 4391 3500 
L 4966 3500 
L 4050 0 
L 3372 0 
L 2619 2869 
L 1863 0 
L 1184 0 
L 269 3500 
z
" transform="scale(0.015625)"/>
      <path id="DejaVuSans-68" d="M 3513 2113 
L 3513 0 
L 2938 0 
L 2938 2094 
Q 2938 2591 2744 2837 
Q 2550 3084 2163 3084 
Q 1697 3084 1428 2787 
Q 1159 2491 1159 1978 
L 1159 0 
L 581 0 
L 581 4863 
L 1159 4863 
L 1159 2956 
Q 1366 3272 1645 3428 
Q 1925 3584 2291 3584 
Q 2894 3584 3203 3211 
Q 3513 2838 3513 2113 
z
" transform="scale(0.015625)"/>
      <path id="DejaVuSans-63" d="M 3122 3366 
L 3122 2828 
Q 2878 2963 2633 3030 
Q 2388 3097 2138 3097 
Q 1578 3097 1268 2742 
Q 959 2388 959 1747 
Q 959 1106 1268 751 
Q 1578 397 2138 397 
Q 2388 397 2633 464 
Q 2878 531 3122 666 
L 3122 134 
Q 2881 22 2623 -34 
Q 2366 -91 2075 -91 
Q 1284 -91 818 406 
Q 353 903 353 1747 
Q 353 2603 823 3093 
Q 1294 3584 2113 3584 
Q 2378 3584 2631 3529 
Q 2884 3475 3122 3366 
z
" transform="scale(0.015625)"/>
      <path id="DejaVuSans-64" d="M 2906 2969 
L 2906 4863 
L 3481 4863 
L 3481 0 
L 2906 0 
L 2906 525 
Q 2725 213 2448 61 
Q 2172 -91 1784 -91 
Q 1150 -91 751 415 
Q 353 922 353 1747 
Q 353 2572 751 3078 
Q 1150 3584 1784 3584 
Q 2172 3584 2448 3432 
Q 2725 3281 2906 2969 
z
M 947 1747 
Q 947 1113 1208 752 
Q 1469 391 1925 391 
Q 2381 391 2643 752 
Q 2906 1113 2906 1747 
Q 2906 2381 2643 2742 
Q 2381 3103 1925 3103 
Q 1469 3103 1208 2742 
Q 947 2381 947 1747 
z
" transform="scale(0.015625)"/>
      <path id="DejaVuSans-76" d="M 191 3500 
L 800 3500 
L 1894 563 
L 2988 3500 
L 3597 3500 
L 2284 0 
L 1503 0 
L 191 3500 
z
" transform="scale(0.015625)"/>
      <path id="DejaVuSans-6c" d="M 603 4863 
L 1178 4863 
L 1178 0 
L 603 0 
L 603 4863 
z
" transform="scale(0.015625)"/>
      <path id="DejaVuSans-6d" d="M 3328 2828 
Q 3544 3216 3844 3400 
Q 4144 3584 4550 3584 
Q 5097 3584 5394 3201 
Q 5691 2819 5691 2113 
L 5691 0 
L 5113 0 
L 5113 2094 
Q 5113 2597 4934 2840 
Q 4756 3084 4391 3084 
Q 3944 3084 3684 2787 
Q 3425 2491 3425 1978 
L 3425 0 
L 2847 0 
L 2847 2094 
Q 2847 2600 2669 2842 
Q 2491 3084 2119 3084 
Q 1678 3084 1418 2786 
Q 1159 2488 1159 1978 
L 1159 0 
L 581 0 
L 581 3500 
L 1159 3500 
L 1159 2956 
Q 1356 3278 1631 3431 
Q 1906 3584 2284 3584 
Q 2666 3584 2933 3390 
Q 3200 3197 3328 2828 
z
" transform="scale(0.015625)"/>
      <path id="DejaVuSans-75" d="M 544 1381 
L 544 3500 
L 1119 3500 
L 1119 1403 
Q 1119 906 1312 657 
Q 1506 409 1894 409 
Q 2359 409 2629 706 
Q 2900 1003 2900 1516 
L 2900 3500 
L 3475 3500 
L 3475 0 
L 2900 0 
L 2900 538 
Q 2691 219 2414 64 
Q 2138 -91 1772 -91 
Q 1169 -91 856 284 
Q 544 659 544 1381 
z
M 1991 3584 
L 1991 3584 
z
" transform="scale(0.015625)"/>
     </defs>
     <use xlink:href="#DejaVuSans-4d"/>
     <use xlink:href="#DejaVuSans-65" transform="translate(86.279297 0)"/>
     <use xlink:href="#DejaVuSans-61" transform="translate(147.802734 0)"/>
     <use xlink:href="#DejaVuSans-6e" transform="translate(209.082031 0)"/>
     <use xlink:href="#DejaVuSans-20" transform="translate(272.460938 0)"/>
     <use xlink:href="#DejaVuSans-70" transform="translate(304.248047 0)"/>
     <use xlink:href="#DejaVuSans-72" transform="translate(367.724609 0)"/>
     <use xlink:href="#DejaVuSans-6f" transform="translate(406.587891 0)"/>
     <use xlink:href="#DejaVuSans-66" transform="translate(467.769531 0)"/>
     <use xlink:href="#DejaVuSans-69" transform="translate(502.974609 0)"/>
     <use xlink:href="#DejaVuSans-74" transform="translate(530.757812 0)"/>
     <use xlink:href="#DejaVuSans-20" transform="translate(569.966797 0)"/>
     <use xlink:href="#DejaVuSans-70" transform="translate(601.753906 0)"/>
     <use xlink:href="#DejaVuSans-65" transform="translate(665.230469 0)"/>
     <use xlink:href="#DejaVuSans-72" transform="translate(726.753906 0)"/>
     <use xlink:href="#DejaVuSans-20" transform="translate(767.867188 0)"/>
     <use xlink:href="#DejaVuSans-73" transform="translate(799.654297 0)"/>
     <use xlink:href="#DejaVuSans-74" transform="translate(851.753906 0)"/>
     <use xlink:href="#DejaVuSans-65" transform="translate(890.962891 0)"/>
     <use xlink:href="#DejaVuSans-70" transform="translate(952.486328 0)"/>
     <use xlink:href="#DejaVuSans-20" transform="translate(1015.962891 0)"/>
     <use xlink:href="#DejaVuSans-77" transform="translate(1047.75 0)"/>
     <use xlink:href="#DejaVuSans-69" transform="translate(1129.537109 0)"/>
     <use xlink:href="#DejaVuSans-74" transform="translate(1157.320312 0)"/>
     <use xlink:href="#DejaVuSans-68" transform="translate(1196.529297 0)"/>
     <use xlink:href="#DejaVuSans-20" transform="translate(1259.908203 0)"/>
     <use xlink:href="#DejaVuSans-63" transform="translate(1291.695312 0)"/>
     <use xlink:href="#DejaVuSans-6f" transform="translate(1346.675781 0)"/>
     <use xlink:href="#DejaVuSans-6e" transform="translate(1407.857422 0)"/>
     <use xlink:href="#DejaVuSans-66" transform="translate(1471.236328 0)"/>
     <use xlink:href="#DejaVuSans-69" transform="translate(1506.441406 0)"/>
     <use xlink:href="#DejaVuSans-64" transform="translate(1534.224609 0)"/>
     <use xlink:href="#DejaVuSans-65" transform="translate(1597.701172 0)"/>
     <use xlink:href="#DejaVuSans-6e" transform="translate(1659.224609 0)"/>
     <use xlink:href="#DejaVuSans-63" transform="translate(1722.603516 0)"/>
     <use xlink:href="#DejaVuSans-65" transform="translate(1777.583984 0)"/>
     <use xlink:href="#DejaVuSans-20" transform="translate(1839.107422 0)"/>
     <use xlink:href="#DejaVuSans-69" transform="translate(1870.894531 0)"/>
     <use xlink:href="#DejaVuSans-6e" transform="translate(1898.677734 0)"/>
     <use xlink:href="#DejaVuSans-74" transform="translate(1962.056641 0)"/>
     <use xlink:href="#DejaVuSans-65" transform="translate(2001.265625 0)"/>
     <use xlink:href="#DejaVuSans-72" transform="translate(2062.789062 0)"/>
     <use xlink:href="#DejaVuSans-76" transform="translate(2103.902344 0)"/>
     <use xlink:href="#DejaVuSans-61" transform="translate(2163.082031 0)"/>
     <use xlink:href="#DejaVuSans-6c" transform="translate(2224.361328 0)"/>
     <use xlink:href="#DejaVuSans-20" transform="translate(2252.144531 0)"/>
     <use xlink:href="#DejaVuSans-70" transform="translate(2283.931641 0)"/>
     <use xlink:href="#DejaVuSans-65" transform="translate(2347.408203 0)"/>
     <use xlink:href="#DejaVuSans-72" transform="translate(2408.931641 0)"/>
     <use xlink:href="#DejaVuSans-20" transform="translate(2450.044922 0)"/>
     <use xlink:href="#DejaVuSans-73" transform="translate(2481.832031 0)"/>
     <use xlink:href="#DejaVuSans-69" transform="translate(2533.931641 0)"/>
     <use xlink:href="#DejaVuSans-6d" transform="translate(2561.714844 0)"/>
     <use xlink:href="#DejaVuSans-75" transform="translate(2659.126953 0)"/>
     <use xlink:href="#DejaVuSans-6c" transform="translate(2722.505859 0)"/>
     <use xlink:href="#DejaVuSans-61" transform="translate(2750.289062 0)"/>
     <use xlink:href="#DejaVuSans-74" transform="translate(2811.568359 0)"/>
     <use xlink:href="#DejaVuSans-69" transform="translate(2850.777344 0)"/>
     <use xlink:href="#DejaVuSans-6f" transform="translate(2878.560547 0)"/>
     <use xlink:href="#DejaVuSans-6e" transform="translate(2939.742188 0)"/>
     <use xlink:href="#DejaVuSans-20" transform="translate(3003.121094 0)"/>
     <use xlink:href="#DejaVuSans-73" transform="translate(3034.908203 0)"/>
     <use xlink:href="#DejaVuSans-74" transform="translate(3087.007812 0)"/>
     <use xlink:href="#DejaVuSans-65" transform="translate(3126.216797 0)"/>
     <use xlink:href="#DejaVuSans-70" transform="translate(3187.740234 0)"/>
    </g>
    <!-- Base Product: Sour Diesel, Recipe size: 9, T0: 20.0 -->
    <g transform="translate(271.602531 37.44) scale(0.14 -0.14)">
     <defs>
      <path id="DejaVuSans-42" d="M 1259 2228 
L 1259 519 
L 2272 519 
Q 2781 519 3026 730 
Q 3272 941 3272 1375 
Q 3272 1813 3026 2020 
Q 2781 2228 2272 2228 
L 1259 2228 
z
M 1259 4147 
L 1259 2741 
L 2194 2741 
Q 2656 2741 2882 2914 
Q 3109 3088 3109 3444 
Q 3109 3797 2882 3972 
Q 2656 4147 2194 4147 
L 1259 4147 
z
M 628 4666 
L 2241 4666 
Q 2963 4666 3353 4366 
Q 3744 4066 3744 3513 
Q 3744 3084 3544 2831 
Q 3344 2578 2956 2516 
Q 3422 2416 3680 2098 
Q 3938 1781 3938 1306 
Q 3938 681 3513 340 
Q 3088 0 2303 0 
L 628 0 
L 628 4666 
z
" transform="scale(0.015625)"/>
      <path id="DejaVuSans-3a" d="M 750 794 
L 1409 794 
L 1409 0 
L 750 0 
L 750 794 
z
M 750 3309 
L 1409 3309 
L 1409 2516 
L 750 2516 
L 750 3309 
z
" transform="scale(0.015625)"/>
      <path id="DejaVuSans-44" d="M 1259 4147 
L 1259 519 
L 2022 519 
Q 2988 519 3436 956 
Q 3884 1394 3884 2338 
Q 3884 3275 3436 3711 
Q 2988 4147 2022 4147 
L 1259 4147 
z
M 628 4666 
L 1925 4666 
Q 3281 4666 3915 4102 
Q 4550 3538 4550 2338 
Q 4550 1131 3912 565 
Q 3275 0 1925 0 
L 628 0 
L 628 4666 
z
" transform="scale(0.015625)"/>
      <path id="DejaVuSans-2c" d="M 750 794 
L 1409 794 
L 1409 256 
L 897 -744 
L 494 -744 
L 750 256 
L 750 794 
z
" transform="scale(0.015625)"/>
      <path id="DejaVuSans-52" d="M 2841 2188 
Q 3044 2119 3236 1894 
Q 3428 1669 3622 1275 
L 4263 0 
L 3584 0 
L 2988 1197 
Q 2756 1666 2539 1819 
Q 2322 1972 1947 1972 
L 1259 1972 
L 1259 0 
L 628 0 
L 628 4666 
L 2053 4666 
Q 2853 4666 3247 4331 
Q 3641 3997 3641 3322 
Q 3641 2881 3436 2590 
Q 3231 2300 2841 2188 
z
M 1259 4147 
L 1259 2491 
L 2053 2491 
Q 2509 2491 2742 2702 
Q 2975 2913 2975 3322 
Q 2975 3731 2742 3939 
Q 2509 4147 2053 4147 
L 1259 4147 
z
" transform="scale(0.015625)"/>
      <path id="DejaVuSans-7a" d="M 353 3500 
L 3084 3500 
L 3084 2975 
L 922 459 
L 3084 459 
L 3084 0 
L 275 0 
L 275 525 
L 2438 3041 
L 353 3041 
L 353 3500 
z
" transform="scale(0.015625)"/>
      <path id="DejaVuSans-39" d="M 703 97 
L 703 672 
Q 941 559 1184 500 
Q 1428 441 1663 441 
Q 2288 441 2617 861 
Q 2947 1281 2994 2138 
Q 2813 1869 2534 1725 
Q 2256 1581 1919 1581 
Q 1219 1581 811 2004 
Q 403 2428 403 3163 
Q 403 3881 828 4315 
Q 1253 4750 1959 4750 
Q 2769 4750 3195 4129 
Q 3622 3509 3622 2328 
Q 3622 1225 3098 567 
Q 2575 -91 1691 -91 
Q 1453 -91 1209 -44 
Q 966 3 703 97 
z
M 1959 2075 
Q 2384 2075 2632 2365 
Q 2881 2656 2881 3163 
Q 2881 3666 2632 3958 
Q 2384 4250 1959 4250 
Q 1534 4250 1286 3958 
Q 1038 3666 1038 3163 
Q 1038 2656 1286 2365 
Q 1534 2075 1959 2075 
z
" transform="scale(0.015625)"/>
      <path id="DejaVuSans-54" d="M -19 4666 
L 3928 4666 
L 3928 4134 
L 2272 4134 
L 2272 0 
L 1638 0 
L 1638 4134 
L -19 4134 
L -19 4666 
z
" transform="scale(0.015625)"/>
      <path id="DejaVuSans-2e" d="M 684 794 
L 1344 794 
L 1344 0 
L 684 0 
L 684 794 
z
" transform="scale(0.015625)"/>
     </defs>
     <use xlink:href="#DejaVuSans-42"/>
     <use xlink:href="#DejaVuSans-61" transform="translate(68.603516 0)"/>
     <use xlink:href="#DejaVuSans-73" transform="translate(129.882812 0)"/>
     <use xlink:href="#DejaVuSans-65" transform="translate(181.982422 0)"/>
     <use xlink:href="#DejaVuSans-20" transform="translate(243.505859 0)"/>
     <use xlink:href="#DejaVuSans-50" transform="translate(275.292969 0)"/>
     <use xlink:href="#DejaVuSans-72" transform="translate(333.845703 0)"/>
     <use xlink:href="#DejaVuSans-6f" transform="translate(372.708984 0)"/>
     <use xlink:href="#DejaVuSans-64" transform="translate(433.890625 0)"/>
     <use xlink:href="#DejaVuSans-75" transform="translate(497.367188 0)"/>
     <use xlink:href="#DejaVuSans-63" transform="translate(560.746094 0)"/>
     <use xlink:href="#DejaVuSans-74" transform="translate(615.726562 0)"/>
     <use xlink:href="#DejaVuSans-3a" transform="translate(654.935547 0)"/>
     <use xlink:href="#DejaVuSans-20" transform="translate(688.626953 0)"/>
     <use xlink:href="#DejaVuSans-53" transform="translate(720.414062 0)"/>
     <use xlink:href="#DejaVuSans-6f" transform="translate(783.890625 0)"/>
     <use xlink:href="#DejaVuSans-75" transform="translate(845.072266 0)"/>
     <use xlink:href="#DejaVuSans-72" transform="translate(908.451172 0)"/>
     <use xlink:href="#DejaVuSans-20" transform="translate(949.564453 0)"/>
     <use xlink:href="#DejaVuSans-44" transform="translate(981.351562 0)"/>
     <use xlink:href="#DejaVuSans-69" transform="translate(1058.353516 0)"/>
     <use xlink:href="#DejaVuSans-65" transform="translate(1086.136719 0)"/>
     <use xlink:href="#DejaVuSans-73" transform="translate(1147.660156 0)"/>
     <use xlink:href="#DejaVuSans-65" transform="translate(1199.759766 0)"/>
     <use xlink:href="#DejaVuSans-6c" transform="translate(1261.283203 0)"/>
     <use xlink:href="#DejaVuSans-2c" transform="translate(1289.066406 0)"/>
     <use xlink:href="#DejaVuSans-20" transform="translate(1320.853516 0)"/>
     <use xlink:href="#DejaVuSans-52" transform="translate(1352.640625 0)"/>
     <use xlink:href="#DejaVuSans-65" transform="translate(1417.623047 0)"/>
     <use xlink:href="#DejaVuSans-63" transform="translate(1479.146484 0)"/>
     <use xlink:href="#DejaVuSans-69" transform="translate(1534.126953 0)"/>
     <use xlink:href="#DejaVuSans-70" transform="translate(1561.910156 0)"/>
     <use xlink:href="#DejaVuSans-65" transform="translate(1625.386719 0)"/>
     <use xlink:href="#DejaVuSans-20" transform="translate(1686.910156 0)"/>
     <use xlink:href="#DejaVuSans-73" transform="translate(1718.697266 0)"/>
     <use xlink:href="#DejaVuSans-69" transform="translate(1770.796875 0)"/>
     <use xlink:href="#DejaVuSans-7a" transform="translate(1798.580078 0)"/>
     <use xlink:href="#DejaVuSans-65" transform="translate(1851.070312 0)"/>
     <use xlink:href="#DejaVuSans-3a" transform="translate(1912.59375 0)"/>
     <use xlink:href="#DejaVuSans-20" transform="translate(1946.285156 0)"/>
     <use xlink:href="#DejaVuSans-39" transform="translate(1978.072266 0)"/>
     <use xlink:href="#DejaVuSans-2c" transform="translate(2041.695312 0)"/>
     <use xlink:href="#DejaVuSans-20" transform="translate(2073.482422 0)"/>
     <use xlink:href="#DejaVuSans-54" transform="translate(2105.269531 0)"/>
     <use xlink:href="#DejaVuSans-30" transform="translate(2166.353516 0)"/>
     <use xlink:href="#DejaVuSans-3a" transform="translate(2229.976562 0)"/>
     <use xlink:href="#DejaVuSans-20" transform="translate(2263.667969 0)"/>
     <use xlink:href="#DejaVuSans-32" transform="translate(2295.455078 0)"/>
     <use xlink:href="#DejaVuSans-30" transform="translate(2359.078125 0)"/>
     <use xlink:href="#DejaVuSans-2e" transform="translate(2422.701172 0)"/>
     <use xlink:href="#DejaVuSans-30" transform="translate(2454.488281 0)"/>
    </g>
   </g>
  </g>
 </g>
 <defs>
  <clipPath id="p026dd82435">
   <rect x="50.87" y="43.44" width="793.996" height="346.6"/>
  </clipPath>
 </defs>
</svg>
