<?xml version="1.0" encoding="utf-8" standalone="no"?>
<!DOCTYPE svg PUBLIC "-//W3C//DTD SVG 1.1//EN"
  "http://www.w3.org/Graphics/SVG/1.1/DTD/svg11.dtd">
<svg xmlns:xlink="http://www.w3.org/1999/xlink" width="864pt" height="432pt" viewBox="0 0 864 432" xmlns="http://www.w3.org/2000/svg" version="1.1">
 <metadata>
  <rdf:RDF xmlns:dc="http://purl.org/dc/elements/1.1/" xmlns:cc="http://creativecommons.org/ns#" xmlns:rdf="http://www.w3.org/1999/02/22-rdf-syntax-ns#">
   <cc:Work>
    <dc:type rdf:resource="http://purl.org/dc/dcmitype/StillImage"/>
    <dc:date>2025-05-24T02:06:42.479605</dc:date>
    <dc:format>image/svg+xml</dc:format>
    <dc:creator>
     <cc:Agent>
      <dc:title>Matplotlib v3.10.3, https://matplotlib.org/</dc:title>
     </cc:Agent>
    </dc:creator>
   </cc:Work>
  </rdf:RDF>
 </metadata>
 <defs>
  <style type="text/css">*{stroke-linejoin: round; stroke-linecap: butt}</style>
 </defs>
 <g id="figure_1">
  <g id="patch_1">
   <path d="M 0 432 
L 864 432 
L 864 0 
L 0 0 
z
" style="fill: #ffffff"/>
  </g>
  <g id="axes_1">
   <g id="patch_2">
    <path d="M 50.87 390.04 
L 844.866 390.04 
L 844.866 43.44 
L 50.87 43.44 
z
" style="fill: #ffffff"/>
   </g>
   <g id="FillBetweenPolyCollection_1">
    <defs>
     <path id="mcc9661db0d" d="M 52.193327 -309.510728 
L 52.193327 -57.714545 
L 54.83998 -58.5304 
L 57.486633 -74.135001 
L 60.133287 -89.086972 
L 62.77994 -101.991782 
L 65.426593 -113.536544 
L 68.073247 -122.566339 
L 70.7199 -130.019951 
L 73.366553 -137.420059 
L 76.013207 -143.366076 
L 78.65986 -148.584898 
L 81.306513 -153.854467 
L 83.953167 -159.055514 
L 86.59982 -163.301672 
L 89.246473 -166.953638 
L 91.893127 -170.501991 
L 94.53978 -173.67531 
L 97.186433 -176.901023 
L 99.833087 -179.834101 
L 102.47974 -182.507261 
L 105.126393 -185.166666 
L 107.773047 -187.41821 
L 110.4197 -189.494542 
L 113.066353 -191.528114 
L 115.713007 -193.689635 
L 118.35966 -195.949243 
L 121.006313 -198.095338 
L 123.652967 -199.922079 
L 126.29962 -201.856048 
L 128.946273 -203.508149 
L 131.592927 -205.123994 
L 134.23958 -206.684049 
L 136.886233 -208.159773 
L 139.532887 -209.393267 
L 142.17954 -210.710193 
L 144.826193 -211.743733 
L 147.472847 -213.058022 
L 150.1195 -214.377408 
L 152.766153 -215.715647 
L 155.412807 -217.016708 
L 158.05946 -218.078616 
L 160.706113 -219.348585 
L 163.352767 -220.393507 
L 165.99942 -221.244035 
L 168.646073 -221.940928 
L 171.292727 -222.847026 
L 173.93938 -223.588942 
L 176.586033 -224.501521 
L 179.232687 -225.309202 
L 181.87934 -226.095481 
L 184.525993 -226.88721 
L 187.172647 -227.738309 
L 189.8193 -228.426721 
L 192.465953 -229.070528 
L 195.112607 -229.794404 
L 197.75926 -230.343859 
L 200.405913 -230.905465 
L 203.052567 -231.589768 
L 205.69922 -232.356711 
L 208.345873 -232.78215 
L 210.992527 -233.399326 
L 213.63918 -233.953417 
L 216.285833 -234.356752 
L 218.932487 -234.956371 
L 221.57914 -235.403586 
L 224.225793 -236.054996 
L 226.872447 -236.664722 
L 229.5191 -237.250125 
L 232.165753 -237.919794 
L 234.812407 -238.395793 
L 237.45906 -238.852984 
L 240.105713 -239.36146 
L 242.752367 -239.80061 
L 245.39902 -240.325719 
L 248.045673 -240.788601 
L 250.692327 -241.173479 
L 253.33898 -241.806607 
L 255.985633 -242.403325 
L 258.632287 -242.789456 
L 261.27894 -243.204612 
L 263.925593 -243.661957 
L 266.572247 -243.947846 
L 269.2189 -244.297502 
L 271.865553 -244.829949 
L 274.512207 -245.166531 
L 277.15886 -245.515812 
L 279.805513 -245.926135 
L 282.452167 -246.204686 
L 285.09882 -246.67038 
L 287.745473 -246.984395 
L 290.392127 -247.338115 
L 293.03878 -247.598978 
L 295.685433 -247.823805 
L 298.332087 -248.171922 
L 300.97874 -248.710061 
L 303.625393 -249.147058 
L 306.272047 -249.445956 
L 308.9187 -249.763113 
L 311.565353 -249.97781 
L 314.212007 -250.200967 
L 316.85866 -250.527925 
L 319.505313 -250.675868 
L 322.151967 -250.881117 
L 324.79862 -251.26338 
L 327.445273 -251.56575 
L 330.091927 -251.842872 
L 332.73858 -252.005714 
L 335.385233 -252.258402 
L 338.031887 -252.568946 
L 340.67854 -252.819327 
L 343.325193 -253.162259 
L 345.971847 -253.403258 
L 348.6185 -253.675019 
L 351.265153 -253.884794 
L 353.911807 -254.010765 
L 356.55846 -254.234669 
L 359.205113 -254.393094 
L 361.851767 -254.546026 
L 364.49842 -254.764854 
L 367.145073 -255.083044 
L 369.791727 -255.361661 
L 372.43838 -255.523953 
L 375.085033 -255.756163 
L 377.731687 -256.005116 
L 380.37834 -256.125637 
L 383.024993 -256.36824 
L 385.671647 -256.559383 
L 388.3183 -256.714138 
L 390.964953 -256.87208 
L 393.611607 -256.994864 
L 396.25826 -257.100378 
L 398.904913 -257.378248 
L 401.551567 -257.539112 
L 404.19822 -257.816849 
L 406.844873 -258.017177 
L 409.491527 -258.269777 
L 412.13818 -258.499856 
L 414.784833 -258.654567 
L 417.431487 -258.937183 
L 420.07814 -259.145574 
L 422.724793 -259.366732 
L 425.371447 -259.450558 
L 428.0181 -259.598107 
L 430.664753 -259.816452 
L 433.311407 -260.095288 
L 435.95806 -260.249538 
L 438.604713 -260.448107 
L 441.251367 -260.559488 
L 443.89802 -260.640634 
L 446.544673 -260.818263 
L 449.191327 -261.033927 
L 451.83798 -261.161502 
L 454.484633 -261.315532 
L 457.131287 -261.490239 
L 459.77794 -261.729876 
L 462.424593 -261.828403 
L 465.071247 -262.070302 
L 467.7179 -262.275354 
L 470.364553 -262.481372 
L 473.011207 -262.562957 
L 475.65786 -262.697915 
L 478.304513 -262.852978 
L 480.951167 -262.987628 
L 483.59782 -263.1762 
L 486.244473 -263.320035 
L 488.891127 -263.466814 
L 491.53778 -263.608188 
L 494.184433 -263.707066 
L 496.831087 -263.80434 
L 499.47774 -263.960853 
L 502.124393 -264.118882 
L 504.771047 -264.2652 
L 507.4177 -264.368539 
L 510.064353 -264.542147 
L 512.711007 -264.681104 
L 515.35766 -264.82072 
L 518.004313 -264.984418 
L 520.650967 -265.098479 
L 523.29762 -265.184284 
L 525.944273 -265.34495 
L 528.590927 -265.443542 
L 531.23758 -265.472063 
L 533.884233 -265.633256 
L 536.530887 -265.716534 
L 539.17754 -265.90293 
L 541.824193 -266.058718 
L 544.470847 -266.112508 
L 547.1175 -266.270735 
L 549.764153 -266.281655 
L 552.410807 -266.442629 
L 555.05746 -266.5216 
L 557.704113 -266.664622 
L 560.350767 -266.759918 
L 562.99742 -266.809072 
L 565.644073 -266.912015 
L 568.290727 -266.950841 
L 570.93738 -267.092127 
L 573.584033 -267.220053 
L 576.230687 -267.27971 
L 578.87734 -267.381378 
L 581.523993 -267.552943 
L 584.170647 -267.658523 
L 586.8173 -267.729517 
L 589.463953 -267.784538 
L 592.110607 -267.919627 
L 594.75726 -268.039402 
L 597.403913 -268.149046 
L 600.050567 -268.332103 
L 602.69722 -268.426916 
L 605.343873 -268.626738 
L 607.990527 -268.675847 
L 610.63718 -268.765563 
L 613.283833 -268.884524 
L 615.930487 -268.985006 
L 618.57714 -269.152001 
L 621.223793 -269.231609 
L 623.870447 -269.315128 
L 626.5171 -269.386957 
L 629.163753 -269.420883 
L 631.810407 -269.478606 
L 634.45706 -269.572782 
L 637.103713 -269.633845 
L 639.750367 -269.705015 
L 642.39702 -269.844807 
L 645.043673 -269.956473 
L 647.690327 -270.025403 
L 650.33698 -270.102242 
L 652.983633 -270.204811 
L 655.630287 -270.253547 
L 658.27694 -270.305447 
L 660.923593 -270.351085 
L 663.570247 -270.440669 
L 666.2169 -270.509246 
L 668.863553 -270.597687 
L 671.510207 -270.723636 
L 674.15686 -270.767406 
L 676.803513 -270.859209 
L 679.450167 -270.897816 
L 682.09682 -270.966569 
L 684.743473 -271.05679 
L 687.390127 -271.087222 
L 690.03678 -271.172082 
L 692.683433 -271.267334 
L 695.330087 -271.386603 
L 697.97674 -271.489305 
L 700.623393 -271.610376 
L 703.270047 -271.623296 
L 705.9167 -271.811274 
L 708.563353 -271.870513 
L 711.210007 -272.047922 
L 713.85666 -272.124278 
L 716.503313 -272.23779 
L 719.149967 -272.313773 
L 721.79662 -272.441304 
L 724.443273 -272.505596 
L 727.089927 -272.587424 
L 729.73658 -272.645674 
L 732.383233 -272.728512 
L 735.029887 -272.85134 
L 737.67654 -272.888343 
L 740.323193 -272.975224 
L 742.969847 -273.097987 
L 745.6165 -273.172695 
L 748.263153 -273.24114 
L 750.909807 -273.316705 
L 753.55646 -273.417824 
L 756.203113 -273.535621 
L 758.849767 -273.60789 
L 761.49642 -273.669788 
L 764.143073 -273.717206 
L 766.789727 -273.774731 
L 769.43638 -273.788464 
L 772.083033 -273.832476 
L 774.729687 -273.874136 
L 777.37634 -273.918917 
L 780.022993 -274.017554 
L 782.669647 -274.054424 
L 785.3163 -274.098282 
L 787.962953 -274.149501 
L 790.609607 -274.240579 
L 793.25626 -274.302147 
L 795.902913 -274.324274 
L 798.549567 -274.359892 
L 801.19622 -274.404189 
L 803.842873 -274.456529 
L 806.489527 -274.480699 
L 809.13618 -274.556022 
L 811.782833 -274.613723 
L 814.429487 -274.630576 
L 817.07614 -274.701703 
L 819.722793 -274.739716 
L 822.369447 -274.741144 
L 825.0161 -274.872081 
L 827.662753 -274.925629 
L 830.309407 -274.967487 
L 832.95606 -275.031472 
L 835.602713 -275.042239 
L 838.249367 -275.076407 
L 840.89602 -275.145687 
L 843.542673 -275.187568 
L 843.542673 -372.805455 
L 843.542673 -372.805455 
L 840.89602 -372.740283 
L 838.249367 -372.692184 
L 835.602713 -372.641537 
L 832.95606 -372.596228 
L 830.309407 -372.507765 
L 827.662753 -372.470741 
L 825.0161 -372.479201 
L 822.369447 -372.477816 
L 819.722793 -372.431344 
L 817.07614 -372.395 
L 814.429487 -372.362766 
L 811.782833 -372.271117 
L 809.13618 -372.208538 
L 806.489527 -372.1845 
L 803.842873 -372.123898 
L 801.19622 -372.083952 
L 798.549567 -372.050904 
L 795.902913 -371.97134 
L 793.25626 -371.920825 
L 790.609607 -371.875604 
L 787.962953 -371.903796 
L 785.3163 -371.846468 
L 782.669647 -371.781956 
L 780.022993 -371.73467 
L 777.37634 -371.709028 
L 774.729687 -371.655238 
L 772.083033 -371.575344 
L 769.43638 -371.504833 
L 766.789727 -371.40356 
L 764.143073 -371.339619 
L 761.49642 -371.323403 
L 758.849767 -371.297497 
L 756.203113 -371.266405 
L 753.55646 -371.262428 
L 750.909807 -371.227711 
L 748.263153 -371.188049 
L 745.6165 -371.14417 
L 742.969847 -371.109892 
L 740.323193 -371.114792 
L 737.67654 -371.074274 
L 735.029887 -371.013804 
L 732.383233 -370.977373 
L 729.73658 -370.956367 
L 727.089927 -370.905456 
L 724.443273 -370.881681 
L 721.79662 -370.811675 
L 719.149967 -370.796206 
L 716.503313 -370.724443 
L 713.85666 -370.727651 
L 711.210007 -370.673839 
L 708.563353 -370.708556 
L 705.9167 -370.67296 
L 703.270047 -370.731122 
L 700.623393 -370.67641 
L 697.97674 -370.645648 
L 695.330087 -370.628817 
L 692.683433 -370.644154 
L 690.03678 -370.611084 
L 687.390127 -370.588672 
L 684.743473 -370.497462 
L 682.09682 -370.456812 
L 679.450167 -370.410428 
L 676.803513 -370.348398 
L 674.15686 -370.307792 
L 671.510207 -370.221702 
L 668.863553 -370.186106 
L 666.2169 -370.122407 
L 663.570247 -370.055894 
L 660.923593 -370.029725 
L 658.27694 -369.960796 
L 655.630287 -369.882308 
L 652.983633 -369.804832 
L 650.33698 -369.761106 
L 647.690327 -369.723246 
L 645.043673 -369.656954 
L 642.39702 -369.606768 
L 639.750367 -369.580225 
L 637.103713 -369.492838 
L 634.45706 -369.42681 
L 631.810407 -369.366428 
L 629.163753 -369.266297 
L 626.5171 -369.200818 
L 623.870447 -369.132812 
L 621.223793 -369.020069 
L 618.57714 -368.945383 
L 615.930487 -368.921696 
L 613.283833 -368.859403 
L 610.63718 -368.823763 
L 607.990527 -368.734575 
L 605.343873 -368.649957 
L 602.69722 -368.664107 
L 600.050567 -368.602957 
L 597.403913 -368.574634 
L 594.75726 -368.542641 
L 592.110607 -368.48861 
L 589.463953 -368.459386 
L 586.8173 -368.336557 
L 584.170647 -368.272638 
L 581.523993 -368.206565 
L 578.87734 -368.20595 
L 576.230687 -368.170991 
L 573.584033 -368.053809 
L 570.93738 -367.994087 
L 568.290727 -367.919643 
L 565.644073 -367.814634 
L 562.99742 -367.771677 
L 560.350767 -367.656693 
L 557.704113 -367.582051 
L 555.05746 -367.58238 
L 552.410807 -367.504816 
L 549.764153 -367.490841 
L 547.1175 -367.387898 
L 544.470847 -367.333603 
L 541.824193 -367.203303 
L 539.17754 -367.185329 
L 536.530887 -367.142988 
L 533.884233 -367.093417 
L 531.23758 -367.094911 
L 528.590927 -366.933586 
L 525.944273 -366.813987 
L 523.29762 -366.747277 
L 520.650967 -366.641917 
L 518.004313 -366.558354 
L 515.35766 -366.498632 
L 512.711007 -366.45262 
L 510.064353 -366.394963 
L 507.4177 -366.357499 
L 504.771047 -366.367629 
L 502.124393 -366.342206 
L 499.47774 -366.270179 
L 496.831087 -366.208193 
L 494.184433 -366.103229 
L 491.53778 -366.04355 
L 488.891127 -365.983608 
L 486.244473 -365.873831 
L 483.59782 -365.798728 
L 480.951167 -365.753727 
L 478.304513 -365.637447 
L 475.65786 -365.583064 
L 473.011207 -365.431231 
L 470.364553 -365.277047 
L 467.7179 -365.218599 
L 465.071247 -365.198911 
L 462.424593 -365.215237 
L 459.77794 -365.092013 
L 457.131287 -365.063096 
L 454.484633 -365.013811 
L 451.83798 -364.929567 
L 449.191327 -364.859078 
L 446.544673 -364.769143 
L 443.89802 -364.672594 
L 441.251367 -364.45504 
L 438.604713 -364.35113 
L 435.95806 -364.339242 
L 433.311407 -364.29534 
L 430.664753 -364.296087 
L 428.0181 -364.235244 
L 425.371447 -364.177566 
L 422.724793 -363.987522 
L 420.07814 -363.948739 
L 417.431487 -363.910111 
L 414.784833 -363.876932 
L 412.13818 -363.731317 
L 409.491527 -363.666827 
L 406.844873 -363.63211 
L 404.19822 -363.544855 
L 401.551567 -363.5086 
L 398.904913 -363.414622 
L 396.25826 -363.373312 
L 393.611607 -363.208603 
L 390.964953 -363.093246 
L 388.3183 -362.995642 
L 385.671647 -362.855564 
L 383.024993 -362.799028 
L 380.37834 -362.715685 
L 377.731687 -362.588484 
L 375.085033 -362.490704 
L 372.43838 -362.393847 
L 369.791727 -362.316415 
L 367.145073 -362.186906 
L 364.49842 -362.094334 
L 361.851767 -361.9906 
L 359.205113 -361.860477 
L 356.55846 -361.621104 
L 353.911807 -361.511019 
L 351.265153 -361.292015 
L 348.6185 -361.149565 
L 345.971847 -361.058597 
L 343.325193 -360.88211 
L 340.67854 -360.802326 
L 338.031887 -360.66326 
L 335.385233 -360.541815 
L 332.73858 -360.444256 
L 330.091927 -360.238787 
L 327.445273 -360.127472 
L 324.79862 -360.027605 
L 322.151967 -359.944965 
L 319.505313 -359.778827 
L 316.85866 -359.592255 
L 314.212007 -359.48015 
L 311.565353 -359.269429 
L 308.9187 -359.072574 
L 306.272047 -358.978969 
L 303.625393 -358.802724 
L 300.97874 -358.690926 
L 298.332087 -358.641113 
L 295.685433 -358.484073 
L 293.03878 -358.285218 
L 290.392127 -358.054282 
L 287.745473 -357.875027 
L 285.09882 -357.665032 
L 282.452167 -357.584919 
L 279.805513 -357.297886 
L 277.15886 -357.191406 
L 274.512207 -357.039792 
L 271.865553 -356.797827 
L 269.2189 -356.737225 
L 266.572247 -356.501478 
L 263.925593 -356.233254 
L 261.27894 -356.033608 
L 258.632287 -355.877996 
L 255.985633 -355.664397 
L 253.33898 -355.581757 
L 250.692327 -355.546776 
L 248.045673 -355.359479 
L 245.39902 -355.132059 
L 242.752367 -354.987126 
L 240.105713 -354.791171 
L 237.45906 -354.635185 
L 234.812407 -354.45125 
L 232.165753 -354.247934 
L 229.5191 -354.074722 
L 226.872447 -353.915462 
L 224.225793 -353.777011 
L 221.57914 -353.565543 
L 218.932487 -353.291299 
L 216.285833 -353.009452 
L 213.63918 -352.708248 
L 210.992527 -352.398671 
L 208.345873 -352.150377 
L 205.69922 -351.772047 
L 203.052567 -351.61226 
L 200.405913 -351.421118 
L 197.75926 -351.186073 
L 195.112607 -350.860962 
L 192.465953 -350.559317 
L 189.8193 -350.332469 
L 187.172647 -349.951986 
L 184.525993 -349.732784 
L 181.87934 -349.543333 
L 179.232687 -349.17889 
L 176.586033 -348.948087 
L 173.93938 -348.713064 
L 171.292727 -348.332823 
L 168.646073 -347.998197 
L 165.99942 -347.503894 
L 163.352767 -347.067292 
L 160.706113 -346.718384 
L 158.05946 -346.607443 
L 155.412807 -346.224543 
L 152.766153 -345.952562 
L 150.1195 -345.844323 
L 147.472847 -345.517498 
L 144.826193 -345.328091 
L 142.17954 -344.788019 
L 139.532887 -344.310371 
L 136.886233 -343.716729 
L 134.23958 -343.363778 
L 131.592927 -342.920913 
L 128.946273 -342.401913 
L 126.29962 -341.807457 
L 123.652967 -341.351475 
L 121.006313 -340.809271 
L 118.35966 -340.340896 
L 115.713007 -340.111587 
L 113.066353 -339.622601 
L 110.4197 -338.840079 
L 107.773047 -338.311389 
L 105.126393 -337.601554 
L 102.47974 -336.980357 
L 99.833087 -336.228729 
L 97.186433 -335.375608 
L 94.53978 -334.492077 
L 91.893127 -333.418765 
L 89.246473 -332.412274 
L 86.59982 -331.341731 
L 83.953167 -330.343523 
L 81.306513 -329.927575 
L 78.65986 -328.661188 
L 76.013207 -327.221016 
L 73.366553 -325.738481 
L 70.7199 -324.641241 
L 68.073247 -322.70692 
L 65.426593 -320.891737 
L 62.77994 -319.207688 
L 60.133287 -316.783349 
L 57.486633 -313.829595 
L 54.83998 -309.42789 
L 52.193327 -309.510728 
z
" style="stroke: #0000ff; stroke-opacity: 0.2"/>
    </defs>
    <g clip-path="url(#pbf763853f8)">
     <use xlink:href="#mcc9661db0d" x="0" y="432" style="fill: #0000ff; fill-opacity: 0.2; stroke: #0000ff; stroke-opacity: 0.2"/>
    </g>
   </g>
   <g id="matplotlib.axis_1">
    <g id="xtick_1">
     <g id="line2d_1">
      <defs>
       <path id="mb51c578288" d="M 0 0 
L 0 3.5 
" style="stroke: #000000; stroke-width: 0.8"/>
      </defs>
      <g>
       <use xlink:href="#mb51c578288" x="181.87934" y="390.04" style="stroke: #000000; stroke-width: 0.8"/>
      </g>
     </g>
     <g id="text_1">
      <!-- 50 -->
      <g transform="translate(175.51684 404.638438) scale(0.1 -0.1)">
       <defs>
        <path id="DejaVuSans-35" d="M 691 4666 
L 3169 4666 
L 3169 4134 
L 1269 4134 
L 1269 2991 
Q 1406 3038 1543 3061 
Q 1681 3084 1819 3084 
Q 2600 3084 3056 2656 
Q 3513 2228 3513 1497 
Q 3513 744 3044 326 
Q 2575 -91 1722 -91 
Q 1428 -91 1123 -41 
Q 819 9 494 109 
L 494 744 
Q 775 591 1075 516 
Q 1375 441 1709 441 
Q 2250 441 2565 725 
Q 2881 1009 2881 1497 
Q 2881 1984 2565 2268 
Q 2250 2553 1709 2553 
Q 1456 2553 1204 2497 
Q 953 2441 691 2322 
L 691 4666 
z
" transform="scale(0.015625)"/>
        <path id="DejaVuSans-30" d="M 2034 4250 
Q 1547 4250 1301 3770 
Q 1056 3291 1056 2328 
Q 1056 1369 1301 889 
Q 1547 409 2034 409 
Q 2525 409 2770 889 
Q 3016 1369 3016 2328 
Q 3016 3291 2770 3770 
Q 2525 4250 2034 4250 
z
M 2034 4750 
Q 2819 4750 3233 4129 
Q 3647 3509 3647 2328 
Q 3647 1150 3233 529 
Q 2819 -91 2034 -91 
Q 1250 -91 836 529 
Q 422 1150 422 2328 
Q 422 3509 836 4129 
Q 1250 4750 2034 4750 
z
" transform="scale(0.015625)"/>
       </defs>
       <use xlink:href="#DejaVuSans-35"/>
       <use xlink:href="#DejaVuSans-30" transform="translate(63.623047 0)"/>
      </g>
     </g>
    </g>
    <g id="xtick_2">
     <g id="line2d_2">
      <g>
       <use xlink:href="#mb51c578288" x="314.212007" y="390.04" style="stroke: #000000; stroke-width: 0.8"/>
      </g>
     </g>
     <g id="text_2">
      <!-- 100 -->
      <g transform="translate(304.668257 404.638438) scale(0.1 -0.1)">
       <defs>
        <path id="DejaVuSans-31" d="M 794 531 
L 1825 531 
L 1825 4091 
L 703 3866 
L 703 4441 
L 1819 4666 
L 2450 4666 
L 2450 531 
L 3481 531 
L 3481 0 
L 794 0 
L 794 531 
z
" transform="scale(0.015625)"/>
       </defs>
       <use xlink:href="#DejaVuSans-31"/>
       <use xlink:href="#DejaVuSans-30" transform="translate(63.623047 0)"/>
       <use xlink:href="#DejaVuSans-30" transform="translate(127.246094 0)"/>
      </g>
     </g>
    </g>
    <g id="xtick_3">
     <g id="line2d_3">
      <g>
       <use xlink:href="#mb51c578288" x="446.544673" y="390.04" style="stroke: #000000; stroke-width: 0.8"/>
      </g>
     </g>
     <g id="text_3">
      <!-- 150 -->
      <g transform="translate(437.000923 404.638438) scale(0.1 -0.1)">
       <use xlink:href="#DejaVuSans-31"/>
       <use xlink:href="#DejaVuSans-35" transform="translate(63.623047 0)"/>
       <use xlink:href="#DejaVuSans-30" transform="translate(127.246094 0)"/>
      </g>
     </g>
    </g>
    <g id="xtick_4">
     <g id="line2d_4">
      <g>
       <use xlink:href="#mb51c578288" x="578.87734" y="390.04" style="stroke: #000000; stroke-width: 0.8"/>
      </g>
     </g>
     <g id="text_4">
      <!-- 200 -->
      <g transform="translate(569.33359 404.638438) scale(0.1 -0.1)">
       <defs>
        <path id="DejaVuSans-32" d="M 1228 531 
L 3431 531 
L 3431 0 
L 469 0 
L 469 531 
Q 828 903 1448 1529 
Q 2069 2156 2228 2338 
Q 2531 2678 2651 2914 
Q 2772 3150 2772 3378 
Q 2772 3750 2511 3984 
Q 2250 4219 1831 4219 
Q 1534 4219 1204 4116 
Q 875 4013 500 3803 
L 500 4441 
Q 881 4594 1212 4672 
Q 1544 4750 1819 4750 
Q 2544 4750 2975 4387 
Q 3406 4025 3406 3419 
Q 3406 3131 3298 2873 
Q 3191 2616 2906 2266 
Q 2828 2175 2409 1742 
Q 1991 1309 1228 531 
z
" transform="scale(0.015625)"/>
       </defs>
       <use xlink:href="#DejaVuSans-32"/>
       <use xlink:href="#DejaVuSans-30" transform="translate(63.623047 0)"/>
       <use xlink:href="#DejaVuSans-30" transform="translate(127.246094 0)"/>
      </g>
     </g>
    </g>
    <g id="xtick_5">
     <g id="line2d_5">
      <g>
       <use xlink:href="#mb51c578288" x="711.210007" y="390.04" style="stroke: #000000; stroke-width: 0.8"/>
      </g>
     </g>
     <g id="text_5">
      <!-- 250 -->
      <g transform="translate(701.666257 404.638438) scale(0.1 -0.1)">
       <use xlink:href="#DejaVuSans-32"/>
       <use xlink:href="#DejaVuSans-35" transform="translate(63.623047 0)"/>
       <use xlink:href="#DejaVuSans-30" transform="translate(127.246094 0)"/>
      </g>
     </g>
    </g>
    <g id="xtick_6">
     <g id="line2d_6">
      <g>
       <use xlink:href="#mb51c578288" x="843.542673" y="390.04" style="stroke: #000000; stroke-width: 0.8"/>
      </g>
     </g>
     <g id="text_6">
      <!-- 300 -->
      <g transform="translate(833.998923 404.638438) scale(0.1 -0.1)">
       <defs>
        <path id="DejaVuSans-33" d="M 2597 2516 
Q 3050 2419 3304 2112 
Q 3559 1806 3559 1356 
Q 3559 666 3084 287 
Q 2609 -91 1734 -91 
Q 1441 -91 1130 -33 
Q 819 25 488 141 
L 488 750 
Q 750 597 1062 519 
Q 1375 441 1716 441 
Q 2309 441 2620 675 
Q 2931 909 2931 1356 
Q 2931 1769 2642 2001 
Q 2353 2234 1838 2234 
L 1294 2234 
L 1294 2753 
L 1863 2753 
Q 2328 2753 2575 2939 
Q 2822 3125 2822 3475 
Q 2822 3834 2567 4026 
Q 2313 4219 1838 4219 
Q 1578 4219 1281 4162 
Q 984 4106 628 3988 
L 628 4550 
Q 988 4650 1302 4700 
Q 1616 4750 1894 4750 
Q 2613 4750 3031 4423 
Q 3450 4097 3450 3541 
Q 3450 3153 3228 2886 
Q 3006 2619 2597 2516 
z
" transform="scale(0.015625)"/>
       </defs>
       <use xlink:href="#DejaVuSans-33"/>
       <use xlink:href="#DejaVuSans-30" transform="translate(63.623047 0)"/>
       <use xlink:href="#DejaVuSans-30" transform="translate(127.246094 0)"/>
      </g>
     </g>
    </g>
    <g id="text_7">
     <!-- Step -->
     <g transform="translate(436.482844 418.316562) scale(0.1 -0.1)">
      <defs>
       <path id="DejaVuSans-53" d="M 3425 4513 
L 3425 3897 
Q 3066 4069 2747 4153 
Q 2428 4238 2131 4238 
Q 1616 4238 1336 4038 
Q 1056 3838 1056 3469 
Q 1056 3159 1242 3001 
Q 1428 2844 1947 2747 
L 2328 2669 
Q 3034 2534 3370 2195 
Q 3706 1856 3706 1288 
Q 3706 609 3251 259 
Q 2797 -91 1919 -91 
Q 1588 -91 1214 -16 
Q 841 59 441 206 
L 441 856 
Q 825 641 1194 531 
Q 1563 422 1919 422 
Q 2459 422 2753 634 
Q 3047 847 3047 1241 
Q 3047 1584 2836 1778 
Q 2625 1972 2144 2069 
L 1759 2144 
Q 1053 2284 737 2584 
Q 422 2884 422 3419 
Q 422 4038 858 4394 
Q 1294 4750 2059 4750 
Q 2388 4750 2728 4690 
Q 3069 4631 3425 4513 
z
" transform="scale(0.015625)"/>
       <path id="DejaVuSans-74" d="M 1172 4494 
L 1172 3500 
L 2356 3500 
L 2356 3053 
L 1172 3053 
L 1172 1153 
Q 1172 725 1289 603 
Q 1406 481 1766 481 
L 2356 481 
L 2356 0 
L 1766 0 
Q 1100 0 847 248 
Q 594 497 594 1153 
L 594 3053 
L 172 3053 
L 172 3500 
L 594 3500 
L 594 4494 
L 1172 4494 
z
" transform="scale(0.015625)"/>
       <path id="DejaVuSans-65" d="M 3597 1894 
L 3597 1613 
L 953 1613 
Q 991 1019 1311 708 
Q 1631 397 2203 397 
Q 2534 397 2845 478 
Q 3156 559 3463 722 
L 3463 178 
Q 3153 47 2828 -22 
Q 2503 -91 2169 -91 
Q 1331 -91 842 396 
Q 353 884 353 1716 
Q 353 2575 817 3079 
Q 1281 3584 2069 3584 
Q 2775 3584 3186 3129 
Q 3597 2675 3597 1894 
z
M 3022 2063 
Q 3016 2534 2758 2815 
Q 2500 3097 2075 3097 
Q 1594 3097 1305 2825 
Q 1016 2553 972 2059 
L 3022 2063 
z
" transform="scale(0.015625)"/>
       <path id="DejaVuSans-70" d="M 1159 525 
L 1159 -1331 
L 581 -1331 
L 581 3500 
L 1159 3500 
L 1159 2969 
Q 1341 3281 1617 3432 
Q 1894 3584 2278 3584 
Q 2916 3584 3314 3078 
Q 3713 2572 3713 1747 
Q 3713 922 3314 415 
Q 2916 -91 2278 -91 
Q 1894 -91 1617 61 
Q 1341 213 1159 525 
z
M 3116 1747 
Q 3116 2381 2855 2742 
Q 2594 3103 2138 3103 
Q 1681 3103 1420 2742 
Q 1159 2381 1159 1747 
Q 1159 1113 1420 752 
Q 1681 391 2138 391 
Q 2594 391 2855 752 
Q 3116 1113 3116 1747 
z
" transform="scale(0.015625)"/>
      </defs>
      <use xlink:href="#DejaVuSans-53"/>
      <use xlink:href="#DejaVuSans-74" transform="translate(63.476562 0)"/>
      <use xlink:href="#DejaVuSans-65" transform="translate(102.685547 0)"/>
      <use xlink:href="#DejaVuSans-70" transform="translate(164.208984 0)"/>
     </g>
    </g>
   </g>
   <g id="matplotlib.axis_2">
    <g id="ytick_1">
     <g id="line2d_7">
      <defs>
       <path id="m4c8f44255c" d="M 0 0 
L -3.5 0 
" style="stroke: #000000; stroke-width: 0.8"/>
      </defs>
      <g>
       <use xlink:href="#m4c8f44255c" x="50.87" y="369.170168" style="stroke: #000000; stroke-width: 0.8"/>
      </g>
     </g>
     <g id="text_8">
      <!-- 20 -->
      <g transform="translate(31.145 372.969387) scale(0.1 -0.1)">
       <use xlink:href="#DejaVuSans-32"/>
       <use xlink:href="#DejaVuSans-30" transform="translate(63.623047 0)"/>
      </g>
     </g>
    </g>
    <g id="ytick_2">
     <g id="line2d_8">
      <g>
       <use xlink:href="#m4c8f44255c" x="50.87" y="311.569462" style="stroke: #000000; stroke-width: 0.8"/>
      </g>
     </g>
     <g id="text_9">
      <!-- 40 -->
      <g transform="translate(31.145 315.368681) scale(0.1 -0.1)">
       <defs>
        <path id="DejaVuSans-34" d="M 2419 4116 
L 825 1625 
L 2419 1625 
L 2419 4116 
z
M 2253 4666 
L 3047 4666 
L 3047 1625 
L 3713 1625 
L 3713 1100 
L 3047 1100 
L 3047 0 
L 2419 0 
L 2419 1100 
L 313 1100 
L 313 1709 
L 2253 4666 
z
" transform="scale(0.015625)"/>
       </defs>
       <use xlink:href="#DejaVuSans-34"/>
       <use xlink:href="#DejaVuSans-30" transform="translate(63.623047 0)"/>
      </g>
     </g>
    </g>
    <g id="ytick_3">
     <g id="line2d_9">
      <g>
       <use xlink:href="#m4c8f44255c" x="50.87" y="253.968756" style="stroke: #000000; stroke-width: 0.8"/>
      </g>
     </g>
     <g id="text_10">
      <!-- 60 -->
      <g transform="translate(31.145 257.767974) scale(0.1 -0.1)">
       <defs>
        <path id="DejaVuSans-36" d="M 2113 2584 
Q 1688 2584 1439 2293 
Q 1191 2003 1191 1497 
Q 1191 994 1439 701 
Q 1688 409 2113 409 
Q 2538 409 2786 701 
Q 3034 994 3034 1497 
Q 3034 2003 2786 2293 
Q 2538 2584 2113 2584 
z
M 3366 4563 
L 3366 3988 
Q 3128 4100 2886 4159 
Q 2644 4219 2406 4219 
Q 1781 4219 1451 3797 
Q 1122 3375 1075 2522 
Q 1259 2794 1537 2939 
Q 1816 3084 2150 3084 
Q 2853 3084 3261 2657 
Q 3669 2231 3669 1497 
Q 3669 778 3244 343 
Q 2819 -91 2113 -91 
Q 1303 -91 875 529 
Q 447 1150 447 2328 
Q 447 3434 972 4092 
Q 1497 4750 2381 4750 
Q 2619 4750 2861 4703 
Q 3103 4656 3366 4563 
z
" transform="scale(0.015625)"/>
       </defs>
       <use xlink:href="#DejaVuSans-36"/>
       <use xlink:href="#DejaVuSans-30" transform="translate(63.623047 0)"/>
      </g>
     </g>
    </g>
    <g id="ytick_4">
     <g id="line2d_10">
      <g>
       <use xlink:href="#m4c8f44255c" x="50.87" y="196.368049" style="stroke: #000000; stroke-width: 0.8"/>
      </g>
     </g>
     <g id="text_11">
      <!-- 80 -->
      <g transform="translate(31.145 200.167268) scale(0.1 -0.1)">
       <defs>
        <path id="DejaVuSans-38" d="M 2034 2216 
Q 1584 2216 1326 1975 
Q 1069 1734 1069 1313 
Q 1069 891 1326 650 
Q 1584 409 2034 409 
Q 2484 409 2743 651 
Q 3003 894 3003 1313 
Q 3003 1734 2745 1975 
Q 2488 2216 2034 2216 
z
M 1403 2484 
Q 997 2584 770 2862 
Q 544 3141 544 3541 
Q 544 4100 942 4425 
Q 1341 4750 2034 4750 
Q 2731 4750 3128 4425 
Q 3525 4100 3525 3541 
Q 3525 3141 3298 2862 
Q 3072 2584 2669 2484 
Q 3125 2378 3379 2068 
Q 3634 1759 3634 1313 
Q 3634 634 3220 271 
Q 2806 -91 2034 -91 
Q 1263 -91 848 271 
Q 434 634 434 1313 
Q 434 1759 690 2068 
Q 947 2378 1403 2484 
z
M 1172 3481 
Q 1172 3119 1398 2916 
Q 1625 2713 2034 2713 
Q 2441 2713 2670 2916 
Q 2900 3119 2900 3481 
Q 2900 3844 2670 4047 
Q 2441 4250 2034 4250 
Q 1625 4250 1398 4047 
Q 1172 3844 1172 3481 
z
" transform="scale(0.015625)"/>
       </defs>
       <use xlink:href="#DejaVuSans-38"/>
       <use xlink:href="#DejaVuSans-30" transform="translate(63.623047 0)"/>
      </g>
     </g>
    </g>
    <g id="ytick_5">
     <g id="line2d_11">
      <g>
       <use xlink:href="#m4c8f44255c" x="50.87" y="138.767343" style="stroke: #000000; stroke-width: 0.8"/>
      </g>
     </g>
     <g id="text_12">
      <!-- 100 -->
      <g transform="translate(24.7825 142.566561) scale(0.1 -0.1)">
       <use xlink:href="#DejaVuSans-31"/>
       <use xlink:href="#DejaVuSans-30" transform="translate(63.623047 0)"/>
       <use xlink:href="#DejaVuSans-30" transform="translate(127.246094 0)"/>
      </g>
     </g>
    </g>
    <g id="ytick_6">
     <g id="line2d_12">
      <g>
       <use xlink:href="#m4c8f44255c" x="50.87" y="81.166636" style="stroke: #000000; stroke-width: 0.8"/>
      </g>
     </g>
     <g id="text_13">
      <!-- 120 -->
      <g transform="translate(24.7825 84.965855) scale(0.1 -0.1)">
       <use xlink:href="#DejaVuSans-31"/>
       <use xlink:href="#DejaVuSans-32" transform="translate(63.623047 0)"/>
       <use xlink:href="#DejaVuSans-30" transform="translate(127.246094 0)"/>
      </g>
     </g>
    </g>
    <g id="text_14">
     <!-- Profit -->
     <g transform="translate(18.702813 229.779063) rotate(-90) scale(0.1 -0.1)">
      <defs>
       <path id="DejaVuSans-50" d="M 1259 4147 
L 1259 2394 
L 2053 2394 
Q 2494 2394 2734 2622 
Q 2975 2850 2975 3272 
Q 2975 3691 2734 3919 
Q 2494 4147 2053 4147 
L 1259 4147 
z
M 628 4666 
L 2053 4666 
Q 2838 4666 3239 4311 
Q 3641 3956 3641 3272 
Q 3641 2581 3239 2228 
Q 2838 1875 2053 1875 
L 1259 1875 
L 1259 0 
L 628 0 
L 628 4666 
z
" transform="scale(0.015625)"/>
       <path id="DejaVuSans-72" d="M 2631 2963 
Q 2534 3019 2420 3045 
Q 2306 3072 2169 3072 
Q 1681 3072 1420 2755 
Q 1159 2438 1159 1844 
L 1159 0 
L 581 0 
L 581 3500 
L 1159 3500 
L 1159 2956 
Q 1341 3275 1631 3429 
Q 1922 3584 2338 3584 
Q 2397 3584 2469 3576 
Q 2541 3569 2628 3553 
L 2631 2963 
z
" transform="scale(0.015625)"/>
       <path id="DejaVuSans-6f" d="M 1959 3097 
Q 1497 3097 1228 2736 
Q 959 2375 959 1747 
Q 959 1119 1226 758 
Q 1494 397 1959 397 
Q 2419 397 2687 759 
Q 2956 1122 2956 1747 
Q 2956 2369 2687 2733 
Q 2419 3097 1959 3097 
z
M 1959 3584 
Q 2709 3584 3137 3096 
Q 3566 2609 3566 1747 
Q 3566 888 3137 398 
Q 2709 -91 1959 -91 
Q 1206 -91 779 398 
Q 353 888 353 1747 
Q 353 2609 779 3096 
Q 1206 3584 1959 3584 
z
" transform="scale(0.015625)"/>
       <path id="DejaVuSans-66" d="M 2375 4863 
L 2375 4384 
L 1825 4384 
Q 1516 4384 1395 4259 
Q 1275 4134 1275 3809 
L 1275 3500 
L 2222 3500 
L 2222 3053 
L 1275 3053 
L 1275 0 
L 697 0 
L 697 3053 
L 147 3053 
L 147 3500 
L 697 3500 
L 697 3744 
Q 697 4328 969 4595 
Q 1241 4863 1831 4863 
L 2375 4863 
z
" transform="scale(0.015625)"/>
       <path id="DejaVuSans-69" d="M 603 3500 
L 1178 3500 
L 1178 0 
L 603 0 
L 603 3500 
z
M 603 4863 
L 1178 4863 
L 1178 4134 
L 603 4134 
L 603 4863 
z
" transform="scale(0.015625)"/>
      </defs>
      <use xlink:href="#DejaVuSans-50"/>
      <use xlink:href="#DejaVuSans-72" transform="translate(58.552734 0)"/>
      <use xlink:href="#DejaVuSans-6f" transform="translate(97.416016 0)"/>
      <use xlink:href="#DejaVuSans-66" transform="translate(158.597656 0)"/>
      <use xlink:href="#DejaVuSans-69" transform="translate(193.802734 0)"/>
      <use xlink:href="#DejaVuSans-74" transform="translate(221.585938 0)"/>
     </g>
    </g>
   </g>
   <g id="line2d_13">
    <path d="M 52.193327 248.387358 
L 54.83998 248.020849 
L 57.486633 238.017708 
L 60.133287 229.064839 
L 62.77994 221.400265 
L 65.426593 214.785865 
L 68.073247 209.363365 
L 70.7199 204.669398 
L 73.366553 200.420736 
L 76.013207 196.706454 
L 81.306513 190.108973 
L 83.953167 187.300482 
L 86.59982 184.678299 
L 91.893127 180.039616 
L 97.186433 175.861684 
L 99.833087 173.968585 
L 105.126393 170.61589 
L 107.773047 169.1352 
L 113.066353 166.424642 
L 121.006313 162.547695 
L 128.946273 159.044969 
L 134.23958 156.976086 
L 142.17954 154.250894 
L 155.412807 150.379375 
L 163.352767 148.2696 
L 171.292727 146.410076 
L 187.172647 143.154853 
L 192.465953 142.185077 
L 197.75926 141.235034 
L 208.345873 139.533736 
L 218.932487 137.876165 
L 229.5191 136.337577 
L 234.812407 135.576478 
L 271.865553 131.186112 
L 285.09882 129.832294 
L 308.9187 127.582157 
L 348.6185 124.587708 
L 380.37834 122.579339 
L 390.964953 122.017337 
L 404.19822 121.319148 
L 433.311407 119.804686 
L 446.544673 119.206297 
L 454.484633 118.835328 
L 525.944273 115.920532 
L 541.824193 115.368989 
L 565.644073 114.636676 
L 586.8173 113.966963 
L 626.5171 112.706112 
L 639.750367 112.35738 
L 658.27694 111.866878 
L 719.149967 110.44501 
L 742.969847 109.896061 
L 819.722793 108.41447 
L 832.95606 108.18615 
L 843.542673 108.003489 
L 843.542673 108.003489 
" clip-path="url(#pbf763853f8)" style="fill: none; stroke: #0000ff; stroke-width: 1.5; stroke-linecap: square"/>
   </g>
   <g id="patch_3">
    <path d="M 50.87 390.04 
L 50.87 43.44 
" style="fill: none; stroke: #000000; stroke-width: 0.8; stroke-linejoin: miter; stroke-linecap: square"/>
   </g>
   <g id="patch_4">
    <path d="M 844.866 390.04 
L 844.866 43.44 
" style="fill: none; stroke: #000000; stroke-width: 0.8; stroke-linejoin: miter; stroke-linecap: square"/>
   </g>
   <g id="patch_5">
    <path d="M 50.87 390.04 
L 844.866 390.04 
" style="fill: none; stroke: #000000; stroke-width: 0.8; stroke-linejoin: miter; stroke-linecap: square"/>
   </g>
   <g id="patch_6">
    <path d="M 50.87 43.44 
L 844.866 43.44 
" style="fill: none; stroke: #000000; stroke-width: 0.8; stroke-linejoin: miter; stroke-linecap: square"/>
   </g>
   <g id="text_15">
    <!-- Mean profit per step with confidence interval per simulation step -->
    <g transform="translate(220.284875 21.763062) scale(0.14 -0.14)">
     <defs>
      <path id="DejaVuSans-4d" d="M 628 4666 
L 1569 4666 
L 2759 1491 
L 3956 4666 
L 4897 4666 
L 4897 0 
L 4281 0 
L 4281 4097 
L 3078 897 
L 2444 897 
L 1241 4097 
L 1241 0 
L 628 0 
L 628 4666 
z
" transform="scale(0.015625)"/>
      <path id="DejaVuSans-61" d="M 2194 1759 
Q 1497 1759 1228 1600 
Q 959 1441 959 1056 
Q 959 750 1161 570 
Q 1363 391 1709 391 
Q 2188 391 2477 730 
Q 2766 1069 2766 1631 
L 2766 1759 
L 2194 1759 
z
M 3341 1997 
L 3341 0 
L 2766 0 
L 2766 531 
Q 2569 213 2275 61 
Q 1981 -91 1556 -91 
Q 1019 -91 701 211 
Q 384 513 384 1019 
Q 384 1609 779 1909 
Q 1175 2209 1959 2209 
L 2766 2209 
L 2766 2266 
Q 2766 2663 2505 2880 
Q 2244 3097 1772 3097 
Q 1472 3097 1187 3025 
Q 903 2953 641 2809 
L 641 3341 
Q 956 3463 1253 3523 
Q 1550 3584 1831 3584 
Q 2591 3584 2966 3190 
Q 3341 2797 3341 1997 
z
" transform="scale(0.015625)"/>
      <path id="DejaVuSans-6e" d="M 3513 2113 
L 3513 0 
L 2938 0 
L 2938 2094 
Q 2938 2591 2744 2837 
Q 2550 3084 2163 3084 
Q 1697 3084 1428 2787 
Q 1159 2491 1159 1978 
L 1159 0 
L 581 0 
L 581 3500 
L 1159 3500 
L 1159 2956 
Q 1366 3272 1645 3428 
Q 1925 3584 2291 3584 
Q 2894 3584 3203 3211 
Q 3513 2838 3513 2113 
z
" transform="scale(0.015625)"/>
      <path id="DejaVuSans-20" transform="scale(0.015625)"/>
      <path id="DejaVuSans-73" d="M 2834 3397 
L 2834 2853 
Q 2591 2978 2328 3040 
Q 2066 3103 1784 3103 
Q 1356 3103 1142 2972 
Q 928 2841 928 2578 
Q 928 2378 1081 2264 
Q 1234 2150 1697 2047 
L 1894 2003 
Q 2506 1872 2764 1633 
Q 3022 1394 3022 966 
Q 3022 478 2636 193 
Q 2250 -91 1575 -91 
Q 1294 -91 989 -36 
Q 684 19 347 128 
L 347 722 
Q 666 556 975 473 
Q 1284 391 1588 391 
Q 1994 391 2212 530 
Q 2431 669 2431 922 
Q 2431 1156 2273 1281 
Q 2116 1406 1581 1522 
L 1381 1569 
Q 847 1681 609 1914 
Q 372 2147 372 2553 
Q 372 3047 722 3315 
Q 1072 3584 1716 3584 
Q 2034 3584 2315 3537 
Q 2597 3491 2834 3397 
z
" transform="scale(0.015625)"/>
      <path id="DejaVuSans-77" d="M 269 3500 
L 844 3500 
L 1563 769 
L 2278 3500 
L 2956 3500 
L 3675 769 
L 4391 3500 
L 4966 3500 
L 4050 0 
L 3372 0 
L 2619 2869 
L 1863 0 
L 1184 0 
L 269 3500 
z
" transform="scale(0.015625)"/>
      <path id="DejaVuSans-68" d="M 3513 2113 
L 3513 0 
L 2938 0 
L 2938 2094 
Q 2938 2591 2744 2837 
Q 2550 3084 2163 3084 
Q 1697 3084 1428 2787 
Q 1159 2491 1159 1978 
L 1159 0 
L 581 0 
L 581 4863 
L 1159 4863 
L 1159 2956 
Q 1366 3272 1645 3428 
Q 1925 3584 2291 3584 
Q 2894 3584 3203 3211 
Q 3513 2838 3513 2113 
z
" transform="scale(0.015625)"/>
      <path id="DejaVuSans-63" d="M 3122 3366 
L 3122 2828 
Q 2878 2963 2633 3030 
Q 2388 3097 2138 3097 
Q 1578 3097 1268 2742 
Q 959 2388 959 1747 
Q 959 1106 1268 751 
Q 1578 397 2138 397 
Q 2388 397 2633 464 
Q 2878 531 3122 666 
L 3122 134 
Q 2881 22 2623 -34 
Q 2366 -91 2075 -91 
Q 1284 -91 818 406 
Q 353 903 353 1747 
Q 353 2603 823 3093 
Q 1294 3584 2113 3584 
Q 2378 3584 2631 3529 
Q 2884 3475 3122 3366 
z
" transform="scale(0.015625)"/>
      <path id="DejaVuSans-64" d="M 2906 2969 
L 2906 4863 
L 3481 4863 
L 3481 0 
L 2906 0 
L 2906 525 
Q 2725 213 2448 61 
Q 2172 -91 1784 -91 
Q 1150 -91 751 415 
Q 353 922 353 1747 
Q 353 2572 751 3078 
Q 1150 3584 1784 3584 
Q 2172 3584 2448 3432 
Q 2725 3281 2906 2969 
z
M 947 1747 
Q 947 1113 1208 752 
Q 1469 391 1925 391 
Q 2381 391 2643 752 
Q 2906 1113 2906 1747 
Q 2906 2381 2643 2742 
Q 2381 3103 1925 3103 
Q 1469 3103 1208 2742 
Q 947 2381 947 1747 
z
" transform="scale(0.015625)"/>
      <path id="DejaVuSans-76" d="M 191 3500 
L 800 3500 
L 1894 563 
L 2988 3500 
L 3597 3500 
L 2284 0 
L 1503 0 
L 191 3500 
z
" transform="scale(0.015625)"/>
      <path id="DejaVuSans-6c" d="M 603 4863 
L 1178 4863 
L 1178 0 
L 603 0 
L 603 4863 
z
" transform="scale(0.015625)"/>
      <path id="DejaVuSans-6d" d="M 3328 2828 
Q 3544 3216 3844 3400 
Q 4144 3584 4550 3584 
Q 5097 3584 5394 3201 
Q 5691 2819 5691 2113 
L 5691 0 
L 5113 0 
L 5113 2094 
Q 5113 2597 4934 2840 
Q 4756 3084 4391 3084 
Q 3944 3084 3684 2787 
Q 3425 2491 3425 1978 
L 3425 0 
L 2847 0 
L 2847 2094 
Q 2847 2600 2669 2842 
Q 2491 3084 2119 3084 
Q 1678 3084 1418 2786 
Q 1159 2488 1159 1978 
L 1159 0 
L 581 0 
L 581 3500 
L 1159 3500 
L 1159 2956 
Q 1356 3278 1631 3431 
Q 1906 3584 2284 3584 
Q 2666 3584 2933 3390 
Q 3200 3197 3328 2828 
z
" transform="scale(0.015625)"/>
      <path id="DejaVuSans-75" d="M 544 1381 
L 544 3500 
L 1119 3500 
L 1119 1403 
Q 1119 906 1312 657 
Q 1506 409 1894 409 
Q 2359 409 2629 706 
Q 2900 1003 2900 1516 
L 2900 3500 
L 3475 3500 
L 3475 0 
L 2900 0 
L 2900 538 
Q 2691 219 2414 64 
Q 2138 -91 1772 -91 
Q 1169 -91 856 284 
Q 544 659 544 1381 
z
M 1991 3584 
L 1991 3584 
z
" transform="scale(0.015625)"/>
     </defs>
     <use xlink:href="#DejaVuSans-4d"/>
     <use xlink:href="#DejaVuSans-65" transform="translate(86.279297 0)"/>
     <use xlink:href="#DejaVuSans-61" transform="translate(147.802734 0)"/>
     <use xlink:href="#DejaVuSans-6e" transform="translate(209.082031 0)"/>
     <use xlink:href="#DejaVuSans-20" transform="translate(272.460938 0)"/>
     <use xlink:href="#DejaVuSans-70" transform="translate(304.248047 0)"/>
     <use xlink:href="#DejaVuSans-72" transform="translate(367.724609 0)"/>
     <use xlink:href="#DejaVuSans-6f" transform="translate(406.587891 0)"/>
     <use xlink:href="#DejaVuSans-66" transform="translate(467.769531 0)"/>
     <use xlink:href="#DejaVuSans-69" transform="translate(502.974609 0)"/>
     <use xlink:href="#DejaVuSans-74" transform="translate(530.757812 0)"/>
     <use xlink:href="#DejaVuSans-20" transform="translate(569.966797 0)"/>
     <use xlink:href="#DejaVuSans-70" transform="translate(601.753906 0)"/>
     <use xlink:href="#DejaVuSans-65" transform="translate(665.230469 0)"/>
     <use xlink:href="#DejaVuSans-72" transform="translate(726.753906 0)"/>
     <use xlink:href="#DejaVuSans-20" transform="translate(767.867188 0)"/>
     <use xlink:href="#DejaVuSans-73" transform="translate(799.654297 0)"/>
     <use xlink:href="#DejaVuSans-74" transform="translate(851.753906 0)"/>
     <use xlink:href="#DejaVuSans-65" transform="translate(890.962891 0)"/>
     <use xlink:href="#DejaVuSans-70" transform="translate(952.486328 0)"/>
     <use xlink:href="#DejaVuSans-20" transform="translate(1015.962891 0)"/>
     <use xlink:href="#DejaVuSans-77" transform="translate(1047.75 0)"/>
     <use xlink:href="#DejaVuSans-69" transform="translate(1129.537109 0)"/>
     <use xlink:href="#DejaVuSans-74" transform="translate(1157.320312 0)"/>
     <use xlink:href="#DejaVuSans-68" transform="translate(1196.529297 0)"/>
     <use xlink:href="#DejaVuSans-20" transform="translate(1259.908203 0)"/>
     <use xlink:href="#DejaVuSans-63" transform="translate(1291.695312 0)"/>
     <use xlink:href="#DejaVuSans-6f" transform="translate(1346.675781 0)"/>
     <use xlink:href="#DejaVuSans-6e" transform="translate(1407.857422 0)"/>
     <use xlink:href="#DejaVuSans-66" transform="translate(1471.236328 0)"/>
     <use xlink:href="#DejaVuSans-69" transform="translate(1506.441406 0)"/>
     <use xlink:href="#DejaVuSans-64" transform="translate(1534.224609 0)"/>
     <use xlink:href="#DejaVuSans-65" transform="translate(1597.701172 0)"/>
     <use xlink:href="#DejaVuSans-6e" transform="translate(1659.224609 0)"/>
     <use xlink:href="#DejaVuSans-63" transform="translate(1722.603516 0)"/>
     <use xlink:href="#DejaVuSans-65" transform="translate(1777.583984 0)"/>
     <use xlink:href="#DejaVuSans-20" transform="translate(1839.107422 0)"/>
     <use xlink:href="#DejaVuSans-69" transform="translate(1870.894531 0)"/>
     <use xlink:href="#DejaVuSans-6e" transform="translate(1898.677734 0)"/>
     <use xlink:href="#DejaVuSans-74" transform="translate(1962.056641 0)"/>
     <use xlink:href="#DejaVuSans-65" transform="translate(2001.265625 0)"/>
     <use xlink:href="#DejaVuSans-72" transform="translate(2062.789062 0)"/>
     <use xlink:href="#DejaVuSans-76" transform="translate(2103.902344 0)"/>
     <use xlink:href="#DejaVuSans-61" transform="translate(2163.082031 0)"/>
     <use xlink:href="#DejaVuSans-6c" transform="translate(2224.361328 0)"/>
     <use xlink:href="#DejaVuSans-20" transform="translate(2252.144531 0)"/>
     <use xlink:href="#DejaVuSans-70" transform="translate(2283.931641 0)"/>
     <use xlink:href="#DejaVuSans-65" transform="translate(2347.408203 0)"/>
     <use xlink:href="#DejaVuSans-72" transform="translate(2408.931641 0)"/>
     <use xlink:href="#DejaVuSans-20" transform="translate(2450.044922 0)"/>
     <use xlink:href="#DejaVuSans-73" transform="translate(2481.832031 0)"/>
     <use xlink:href="#DejaVuSans-69" transform="translate(2533.931641 0)"/>
     <use xlink:href="#DejaVuSans-6d" transform="translate(2561.714844 0)"/>
     <use xlink:href="#DejaVuSans-75" transform="translate(2659.126953 0)"/>
     <use xlink:href="#DejaVuSans-6c" transform="translate(2722.505859 0)"/>
     <use xlink:href="#DejaVuSans-61" transform="translate(2750.289062 0)"/>
     <use xlink:href="#DejaVuSans-74" transform="translate(2811.568359 0)"/>
     <use xlink:href="#DejaVuSans-69" transform="translate(2850.777344 0)"/>
     <use xlink:href="#DejaVuSans-6f" transform="translate(2878.560547 0)"/>
     <use xlink:href="#DejaVuSans-6e" transform="translate(2939.742188 0)"/>
     <use xlink:href="#DejaVuSans-20" transform="translate(3003.121094 0)"/>
     <use xlink:href="#DejaVuSans-73" transform="translate(3034.908203 0)"/>
     <use xlink:href="#DejaVuSans-74" transform="translate(3087.007812 0)"/>
     <use xlink:href="#DejaVuSans-65" transform="translate(3126.216797 0)"/>
     <use xlink:href="#DejaVuSans-70" transform="translate(3187.740234 0)"/>
    </g>
    <!-- Base Product: Sour Diesel, Recipe size: 9, T0: 5.0 -->
    <g transform="translate(276.056281 37.44) scale(0.14 -0.14)">
     <defs>
      <path id="DejaVuSans-42" d="M 1259 2228 
L 1259 519 
L 2272 519 
Q 2781 519 3026 730 
Q 3272 941 3272 1375 
Q 3272 1813 3026 2020 
Q 2781 2228 2272 2228 
L 1259 2228 
z
M 1259 4147 
L 1259 2741 
L 2194 2741 
Q 2656 2741 2882 2914 
Q 3109 3088 3109 3444 
Q 3109 3797 2882 3972 
Q 2656 4147 2194 4147 
L 1259 4147 
z
M 628 4666 
L 2241 4666 
Q 2963 4666 3353 4366 
Q 3744 4066 3744 3513 
Q 3744 3084 3544 2831 
Q 3344 2578 2956 2516 
Q 3422 2416 3680 2098 
Q 3938 1781 3938 1306 
Q 3938 681 3513 340 
Q 3088 0 2303 0 
L 628 0 
L 628 4666 
z
" transform="scale(0.015625)"/>
      <path id="DejaVuSans-3a" d="M 750 794 
L 1409 794 
L 1409 0 
L 750 0 
L 750 794 
z
M 750 3309 
L 1409 3309 
L 1409 2516 
L 750 2516 
L 750 3309 
z
" transform="scale(0.015625)"/>
      <path id="DejaVuSans-44" d="M 1259 4147 
L 1259 519 
L 2022 519 
Q 2988 519 3436 956 
Q 3884 1394 3884 2338 
Q 3884 3275 3436 3711 
Q 2988 4147 2022 4147 
L 1259 4147 
z
M 628 4666 
L 1925 4666 
Q 3281 4666 3915 4102 
Q 4550 3538 4550 2338 
Q 4550 1131 3912 565 
Q 3275 0 1925 0 
L 628 0 
L 628 4666 
z
" transform="scale(0.015625)"/>
      <path id="DejaVuSans-2c" d="M 750 794 
L 1409 794 
L 1409 256 
L 897 -744 
L 494 -744 
L 750 256 
L 750 794 
z
" transform="scale(0.015625)"/>
      <path id="DejaVuSans-52" d="M 2841 2188 
Q 3044 2119 3236 1894 
Q 3428 1669 3622 1275 
L 4263 0 
L 3584 0 
L 2988 1197 
Q 2756 1666 2539 1819 
Q 2322 1972 1947 1972 
L 1259 1972 
L 1259 0 
L 628 0 
L 628 4666 
L 2053 4666 
Q 2853 4666 3247 4331 
Q 3641 3997 3641 3322 
Q 3641 2881 3436 2590 
Q 3231 2300 2841 2188 
z
M 1259 4147 
L 1259 2491 
L 2053 2491 
Q 2509 2491 2742 2702 
Q 2975 2913 2975 3322 
Q 2975 3731 2742 3939 
Q 2509 4147 2053 4147 
L 1259 4147 
z
" transform="scale(0.015625)"/>
      <path id="DejaVuSans-7a" d="M 353 3500 
L 3084 3500 
L 3084 2975 
L 922 459 
L 3084 459 
L 3084 0 
L 275 0 
L 275 525 
L 2438 3041 
L 353 3041 
L 353 3500 
z
" transform="scale(0.015625)"/>
      <path id="DejaVuSans-39" d="M 703 97 
L 703 672 
Q 941 559 1184 500 
Q 1428 441 1663 441 
Q 2288 441 2617 861 
Q 2947 1281 2994 2138 
Q 2813 1869 2534 1725 
Q 2256 1581 1919 1581 
Q 1219 1581 811 2004 
Q 403 2428 403 3163 
Q 403 3881 828 4315 
Q 1253 4750 1959 4750 
Q 2769 4750 3195 4129 
Q 3622 3509 3622 2328 
Q 3622 1225 3098 567 
Q 2575 -91 1691 -91 
Q 1453 -91 1209 -44 
Q 966 3 703 97 
z
M 1959 2075 
Q 2384 2075 2632 2365 
Q 2881 2656 2881 3163 
Q 2881 3666 2632 3958 
Q 2384 4250 1959 4250 
Q 1534 4250 1286 3958 
Q 1038 3666 1038 3163 
Q 1038 2656 1286 2365 
Q 1534 2075 1959 2075 
z
" transform="scale(0.015625)"/>
      <path id="DejaVuSans-54" d="M -19 4666 
L 3928 4666 
L 3928 4134 
L 2272 4134 
L 2272 0 
L 1638 0 
L 1638 4134 
L -19 4134 
L -19 4666 
z
" transform="scale(0.015625)"/>
      <path id="DejaVuSans-2e" d="M 684 794 
L 1344 794 
L 1344 0 
L 684 0 
L 684 794 
z
" transform="scale(0.015625)"/>
     </defs>
     <use xlink:href="#DejaVuSans-42"/>
     <use xlink:href="#DejaVuSans-61" transform="translate(68.603516 0)"/>
     <use xlink:href="#DejaVuSans-73" transform="translate(129.882812 0)"/>
     <use xlink:href="#DejaVuSans-65" transform="translate(181.982422 0)"/>
     <use xlink:href="#DejaVuSans-20" transform="translate(243.505859 0)"/>
     <use xlink:href="#DejaVuSans-50" transform="translate(275.292969 0)"/>
     <use xlink:href="#DejaVuSans-72" transform="translate(333.845703 0)"/>
     <use xlink:href="#DejaVuSans-6f" transform="translate(372.708984 0)"/>
     <use xlink:href="#DejaVuSans-64" transform="translate(433.890625 0)"/>
     <use xlink:href="#DejaVuSans-75" transform="translate(497.367188 0)"/>
     <use xlink:href="#DejaVuSans-63" transform="translate(560.746094 0)"/>
     <use xlink:href="#DejaVuSans-74" transform="translate(615.726562 0)"/>
     <use xlink:href="#DejaVuSans-3a" transform="translate(654.935547 0)"/>
     <use xlink:href="#DejaVuSans-20" transform="translate(688.626953 0)"/>
     <use xlink:href="#DejaVuSans-53" transform="translate(720.414062 0)"/>
     <use xlink:href="#DejaVuSans-6f" transform="translate(783.890625 0)"/>
     <use xlink:href="#DejaVuSans-75" transform="translate(845.072266 0)"/>
     <use xlink:href="#DejaVuSans-72" transform="translate(908.451172 0)"/>
     <use xlink:href="#DejaVuSans-20" transform="translate(949.564453 0)"/>
     <use xlink:href="#DejaVuSans-44" transform="translate(981.351562 0)"/>
     <use xlink:href="#DejaVuSans-69" transform="translate(1058.353516 0)"/>
     <use xlink:href="#DejaVuSans-65" transform="translate(1086.136719 0)"/>
     <use xlink:href="#DejaVuSans-73" transform="translate(1147.660156 0)"/>
     <use xlink:href="#DejaVuSans-65" transform="translate(1199.759766 0)"/>
     <use xlink:href="#DejaVuSans-6c" transform="translate(1261.283203 0)"/>
     <use xlink:href="#DejaVuSans-2c" transform="translate(1289.066406 0)"/>
     <use xlink:href="#DejaVuSans-20" transform="translate(1320.853516 0)"/>
     <use xlink:href="#DejaVuSans-52" transform="translate(1352.640625 0)"/>
     <use xlink:href="#DejaVuSans-65" transform="translate(1417.623047 0)"/>
     <use xlink:href="#DejaVuSans-63" transform="translate(1479.146484 0)"/>
     <use xlink:href="#DejaVuSans-69" transform="translate(1534.126953 0)"/>
     <use xlink:href="#DejaVuSans-70" transform="translate(1561.910156 0)"/>
     <use xlink:href="#DejaVuSans-65" transform="translate(1625.386719 0)"/>
     <use xlink:href="#DejaVuSans-20" transform="translate(1686.910156 0)"/>
     <use xlink:href="#DejaVuSans-73" transform="translate(1718.697266 0)"/>
     <use xlink:href="#DejaVuSans-69" transform="translate(1770.796875 0)"/>
     <use xlink:href="#DejaVuSans-7a" transform="translate(1798.580078 0)"/>
     <use xlink:href="#DejaVuSans-65" transform="translate(1851.070312 0)"/>
     <use xlink:href="#DejaVuSans-3a" transform="translate(1912.59375 0)"/>
     <use xlink:href="#DejaVuSans-20" transform="translate(1946.285156 0)"/>
     <use xlink:href="#DejaVuSans-39" transform="translate(1978.072266 0)"/>
     <use xlink:href="#DejaVuSans-2c" transform="translate(2041.695312 0)"/>
     <use xlink:href="#DejaVuSans-20" transform="translate(2073.482422 0)"/>
     <use xlink:href="#DejaVuSans-54" transform="translate(2105.269531 0)"/>
     <use xlink:href="#DejaVuSans-30" transform="translate(2166.353516 0)"/>
     <use xlink:href="#DejaVuSans-3a" transform="translate(2229.976562 0)"/>
     <use xlink:href="#DejaVuSans-20" transform="translate(2263.667969 0)"/>
     <use xlink:href="#DejaVuSans-35" transform="translate(2295.455078 0)"/>
     <use xlink:href="#DejaVuSans-2e" transform="translate(2359.078125 0)"/>
     <use xlink:href="#DejaVuSans-30" transform="translate(2390.865234 0)"/>
    </g>
   </g>
  </g>
 </g>
 <defs>
  <clipPath id="pbf763853f8">
   <rect x="50.87" y="43.44" width="793.996" height="346.6"/>
  </clipPath>
 </defs>
</svg>
