<?xml version="1.0" encoding="utf-8" standalone="no"?>
<!DOCTYPE svg PUBLIC "-//W3C//DTD SVG 1.1//EN"
  "http://www.w3.org/Graphics/SVG/1.1/DTD/svg11.dtd">
<svg xmlns:xlink="http://www.w3.org/1999/xlink" width="864pt" height="432pt" viewBox="0 0 864 432" xmlns="http://www.w3.org/2000/svg" version="1.1">
 <metadata>
  <rdf:RDF xmlns:dc="http://purl.org/dc/elements/1.1/" xmlns:cc="http://creativecommons.org/ns#" xmlns:rdf="http://www.w3.org/1999/02/22-rdf-syntax-ns#">
   <cc:Work>
    <dc:type rdf:resource="http://purl.org/dc/dcmitype/StillImage"/>
    <dc:date>2025-05-24T02:06:58.082462</dc:date>
    <dc:format>image/svg+xml</dc:format>
    <dc:creator>
     <cc:Agent>
      <dc:title>Matplotlib v3.10.3, https://matplotlib.org/</dc:title>
     </cc:Agent>
    </dc:creator>
   </cc:Work>
  </rdf:RDF>
 </metadata>
 <defs>
  <style type="text/css">*{stroke-linejoin: round; stroke-linecap: butt}</style>
 </defs>
 <g id="figure_1">
  <g id="patch_1">
   <path d="M 0 432 
L 864 432 
L 864 0 
L 0 0 
z
" style="fill: #ffffff"/>
  </g>
  <g id="axes_1">
   <g id="patch_2">
    <path d="M 50.87 390.04 
L 844.866 390.04 
L 844.866 43.44 
L 50.87 43.44 
z
" style="fill: #ffffff"/>
   </g>
   <g id="FillBetweenPolyCollection_1">
    <defs>
     <path id="m900350a25c" d="M 52.193327 -307.495496 
L 52.193327 -57.89974 
L 54.83998 -57.714545 
L 57.486633 -69.620741 
L 60.133287 -79.564686 
L 62.77994 -89.5115 
L 65.426593 -99.489176 
L 68.073247 -107.007628 
L 70.7199 -114.281203 
L 73.366553 -121.769355 
L 76.013207 -128.705908 
L 78.65986 -134.555508 
L 81.306513 -139.270804 
L 83.953167 -143.469147 
L 86.59982 -147.43895 
L 89.246473 -151.040283 
L 91.893127 -154.521126 
L 94.53978 -157.915023 
L 97.186433 -160.959249 
L 99.833087 -164.033188 
L 102.47974 -166.443746 
L 105.126393 -169.308417 
L 107.773047 -171.992971 
L 110.4197 -174.953893 
L 113.066353 -177.012274 
L 115.713007 -179.18173 
L 118.35966 -180.750356 
L 121.006313 -182.698689 
L 123.652967 -184.155159 
L 126.29962 -185.640416 
L 128.946273 -186.944176 
L 131.592927 -188.366869 
L 134.23958 -190.030003 
L 136.886233 -191.295616 
L 139.532887 -192.643792 
L 142.17954 -193.672685 
L 144.826193 -194.786945 
L 147.472847 -195.955158 
L 150.1195 -197.457226 
L 152.766153 -198.18465 
L 155.412807 -199.201997 
L 158.05946 -200.504344 
L 160.706113 -201.727063 
L 163.352767 -202.545682 
L 165.99942 -203.296352 
L 168.646073 -204.248663 
L 171.292727 -205.24645 
L 173.93938 -206.146618 
L 176.586033 -207.086743 
L 179.232687 -207.819708 
L 181.87934 -208.933129 
L 184.525993 -209.699738 
L 187.172647 -210.283248 
L 189.8193 -211.243242 
L 192.465953 -211.728162 
L 195.112607 -212.304365 
L 197.75926 -212.892137 
L 200.405913 -213.855839 
L 203.052567 -214.352194 
L 205.69922 -214.874312 
L 208.345873 -215.428837 
L 210.992527 -215.988086 
L 213.63918 -216.580847 
L 216.285833 -217.45927 
L 218.932487 -218.076888 
L 221.57914 -218.641501 
L 224.225793 -219.180463 
L 226.872447 -219.470011 
L 229.5191 -219.683352 
L 232.165753 -220.100654 
L 234.812407 -220.889581 
L 237.45906 -221.438565 
L 240.105713 -222.116207 
L 242.752367 -222.733141 
L 245.39902 -223.032226 
L 248.045673 -223.295238 
L 250.692327 -223.301044 
L 253.33898 -223.55984 
L 255.985633 -223.670352 
L 258.632287 -224.316691 
L 261.27894 -224.979565 
L 263.925593 -225.383311 
L 266.572247 -226.203388 
L 269.2189 -226.674841 
L 271.865553 -227.090663 
L 274.512207 -227.301952 
L 277.15886 -227.729187 
L 279.805513 -228.039265 
L 282.452167 -228.320115 
L 285.09882 -228.485243 
L 287.745473 -228.786138 
L 290.392127 -229.160899 
L 293.03878 -229.846753 
L 295.685433 -230.088087 
L 298.332087 -230.671201 
L 300.97874 -231.103668 
L 303.625393 -231.448936 
L 306.272047 -231.548277 
L 308.9187 -231.957587 
L 311.565353 -232.547853 
L 314.212007 -232.683002 
L 316.85866 -232.988047 
L 319.505313 -233.308346 
L 322.151967 -233.426784 
L 324.79862 -233.633348 
L 327.445273 -233.914198 
L 330.091927 -234.30673 
L 332.73858 -233.892144 
L 335.385233 -233.934287 
L 338.031887 -234.34097 
L 340.67854 -234.377152 
L 343.325193 -234.958566 
L 345.971847 -235.448055 
L 348.6185 -235.505386 
L 351.265153 -235.771975 
L 353.911807 -236.057836 
L 356.55846 -236.308508 
L 359.205113 -236.813517 
L 361.851767 -237.257685 
L 364.49842 -237.505067 
L 367.145073 -237.475221 
L 369.791727 -237.87559 
L 372.43838 -237.910028 
L 375.085033 -237.890027 
L 377.731687 -238.07414 
L 380.37834 -238.418613 
L 383.024993 -238.452102 
L 385.671647 -238.528419 
L 388.3183 -238.632573 
L 390.964953 -239.154227 
L 393.611607 -239.325139 
L 396.25826 -239.507442 
L 398.904913 -239.980065 
L 401.551567 -240.133073 
L 404.19822 -240.332154 
L 406.844873 -240.717313 
L 409.491527 -241.17073 
L 412.13818 -241.209937 
L 414.784833 -241.336962 
L 417.431487 -241.220025 
L 420.07814 -241.600195 
L 422.724793 -241.904865 
L 425.371447 -242.099574 
L 428.0181 -242.276292 
L 430.664753 -242.488839 
L 433.311407 -242.689178 
L 435.95806 -242.970756 
L 438.604713 -243.145686 
L 441.251367 -243.428589 
L 443.89802 -243.836133 
L 446.544673 -244.003512 
L 449.191327 -244.348515 
L 451.83798 -244.540045 
L 454.484633 -244.814162 
L 457.131287 -244.895203 
L 459.77794 -244.928361 
L 462.424593 -245.218438 
L 465.071247 -245.375067 
L 467.7179 -245.906523 
L 470.364553 -246.09876 
L 473.011207 -246.361441 
L 475.65786 -246.342235 
L 478.304513 -246.504847 
L 480.951167 -246.600855 
L 483.59782 -246.635889 
L 486.244473 -246.779626 
L 488.891127 -246.826515 
L 491.53778 -247.032284 
L 494.184433 -247.331899 
L 496.831087 -247.412211 
L 499.47774 -247.448791 
L 502.124393 -247.549148 
L 504.771047 -247.80556 
L 507.4177 -247.835318 
L 510.064353 -248.086564 
L 512.711007 -248.216856 
L 515.35766 -248.45808 
L 518.004313 -248.738886 
L 520.650967 -248.994922 
L 523.29762 -249.279966 
L 525.944273 -249.288355 
L 528.590927 -249.325112 
L 531.23758 -249.392223 
L 533.884233 -249.507128 
L 536.530887 -249.545231 
L 539.17754 -249.608346 
L 541.824193 -249.604483 
L 544.470847 -249.630709 
L 547.1175 -249.632784 
L 549.764153 -249.70612 
L 552.410807 -250.010481 
L 555.05746 -250.316321 
L 557.704113 -250.442396 
L 560.350767 -250.536705 
L 562.99742 -250.671765 
L 565.644073 -250.66576 
L 568.290727 -250.844686 
L 570.93738 -251.000652 
L 573.584033 -251.239558 
L 576.230687 -251.415746 
L 578.87734 -251.555552 
L 581.523993 -251.599528 
L 584.170647 -251.610477 
L 586.8173 -251.818212 
L 589.463953 -251.863048 
L 592.110607 -252.045748 
L 594.75726 -252.075838 
L 597.403913 -252.355231 
L 600.050567 -252.406668 
L 602.69722 -252.546143 
L 605.343873 -252.662616 
L 607.990527 -252.557976 
L 610.63718 -252.612901 
L 613.283833 -252.834852 
L 615.930487 -253.022034 
L 618.57714 -253.168927 
L 621.223793 -253.265112 
L 623.870447 -253.601792 
L 626.5171 -253.595103 
L 629.163753 -253.960525 
L 631.810407 -254.004479 
L 634.45706 -254.034988 
L 637.103713 -254.094283 
L 639.750367 -254.023773 
L 642.39702 -254.141416 
L 645.043673 -254.26833 
L 647.690327 -254.713646 
L 650.33698 -254.760071 
L 652.983633 -254.949461 
L 655.630287 -255.153619 
L 658.27694 -255.383848 
L 660.923593 -255.458134 
L 663.570247 -255.571141 
L 666.2169 -255.804373 
L 668.863553 -255.871285 
L 671.510207 -255.873912 
L 674.15686 -256.01522 
L 676.803513 -256.056104 
L 679.450167 -256.082662 
L 682.09682 -256.425699 
L 684.743473 -256.634494 
L 687.390127 -256.706461 
L 690.03678 -256.851787 
L 692.683433 -256.924019 
L 695.330087 -257.180806 
L 697.97674 -257.064201 
L 700.623393 -257.112548 
L 703.270047 -257.197672 
L 705.9167 -257.265181 
L 708.563353 -257.279177 
L 711.210007 -257.391168 
L 713.85666 -257.517067 
L 716.503313 -257.710982 
L 719.149967 -257.827454 
L 721.79662 -257.942823 
L 724.443273 -257.991456 
L 727.089927 -258.122344 
L 729.73658 -258.309504 
L 732.383233 -258.271666 
L 735.029887 -258.603511 
L 737.67654 -258.743208 
L 740.323193 -258.854757 
L 742.969847 -258.968934 
L 745.6165 -259.036552 
L 748.263153 -259.275745 
L 750.909807 -259.247024 
L 753.55646 -259.386257 
L 756.203113 -259.423455 
L 758.849767 -259.599864 
L 761.49642 -259.563394 
L 764.143073 -259.611123 
L 766.789727 -259.496261 
L 769.43638 -259.585316 
L 772.083033 -259.614743 
L 774.729687 -259.563858 
L 777.37634 -259.674105 
L 780.022993 -259.832345 
L 782.669647 -260.187525 
L 785.3163 -260.252538 
L 787.962953 -260.344639 
L 790.609607 -260.420337 
L 793.25626 -260.439389 
L 795.902913 -260.627652 
L 798.549567 -260.752977 
L 801.19622 -260.83 
L 803.842873 -260.846513 
L 806.489527 -260.881724 
L 809.13618 -260.926384 
L 811.782833 -261.203392 
L 814.429487 -261.184893 
L 817.07614 -261.336245 
L 819.722793 -261.270857 
L 822.369447 -261.366997 
L 825.0161 -261.532854 
L 827.662753 -261.582061 
L 830.309407 -261.675067 
L 832.95606 -261.774761 
L 835.602713 -261.825249 
L 838.249367 -261.872425 
L 840.89602 -261.974747 
L 843.542673 -262.00009 
L 843.542673 -372.805455 
L 843.542673 -372.805455 
L 840.89602 -372.724524 
L 838.249367 -372.671873 
L 835.602713 -372.657943 
L 832.95606 -372.574607 
L 830.309407 -372.549308 
L 827.662753 -372.516569 
L 825.0161 -372.458002 
L 822.369447 -372.500939 
L 819.722793 -372.513986 
L 817.07614 -372.342545 
L 814.429487 -372.27274 
L 811.782833 -372.213533 
L 809.13618 -372.351066 
L 806.489527 -372.309585 
L 803.842873 -372.281571 
L 801.19622 -372.22488 
L 798.549567 -372.125516 
L 795.902913 -372.149998 
L 793.25626 -372.187792 
L 790.609607 -372.058582 
L 787.962953 -372.052114 
L 785.3163 -372.031495 
L 782.669647 -372.007896 
L 780.022993 -372.154149 
L 777.37634 -372.130616 
L 774.729687 -372.1213 
L 772.083033 -371.951558 
L 769.43638 -371.83056 
L 766.789727 -371.70146 
L 764.143073 -371.565406 
L 761.49642 -371.478736 
L 758.849767 -371.366723 
L 756.203113 -371.40838 
L 753.55646 -371.306323 
L 750.909807 -371.290097 
L 748.263153 -371.206186 
L 745.6165 -371.218262 
L 742.969847 -371.261244 
L 740.323193 -371.171395 
L 737.67654 -371.199807 
L 735.029887 -371.161968 
L 732.383233 -371.316588 
L 729.73658 -371.203383 
L 727.089927 -371.205811 
L 724.443273 -371.152145 
L 721.79662 -371.100465 
L 719.149967 -371.032206 
L 716.503313 -370.979356 
L 713.85666 -370.942445 
L 711.210007 -370.882289 
L 708.563353 -370.830918 
L 705.9167 -370.736698 
L 703.270047 -370.638857 
L 700.623393 -370.663273 
L 697.97674 -370.536116 
L 695.330087 -370.38547 
L 692.683433 -370.454082 
L 690.03678 -370.378229 
L 687.390127 -370.324651 
L 684.743473 -370.291714 
L 682.09682 -370.321472 
L 679.450167 -370.481368 
L 676.803513 -370.326505 
L 674.15686 -370.257761 
L 671.510207 -370.231248 
L 668.863553 -370.116254 
L 666.2169 -370.023248 
L 663.570247 -370.07325 
L 660.923593 -370.059718 
L 658.27694 -369.957881 
L 655.630287 -370.024617 
L 652.983633 -370.032388 
L 650.33698 -370.089012 
L 647.690327 -369.996757 
L 645.043673 -370.111773 
L 642.39702 -369.948433 
L 639.750367 -369.887879 
L 637.103713 -369.662219 
L 634.45706 -369.640054 
L 631.810407 -369.579434 
L 629.163753 -369.472167 
L 626.5171 -369.553252 
L 623.870447 -369.438612 
L 621.223793 -369.612018 
L 618.57714 -369.596234 
L 615.930487 -369.56259 
L 613.283833 -369.475721 
L 610.63718 -369.44689 
L 607.990527 -369.406844 
L 605.343873 -369.21187 
L 602.69722 -369.211075 
L 600.050567 -369.123963 
L 597.403913 -369.032393 
L 594.75726 -369.080606 
L 592.110607 -368.898811 
L 589.463953 -368.90433 
L 586.8173 -368.786069 
L 584.170647 -368.773398 
L 581.523993 -368.608535 
L 578.87734 -368.454754 
L 576.230687 -368.420603 
L 573.584033 -368.469677 
L 570.93738 -368.389409 
L 568.290727 -368.339275 
L 565.644073 -368.275807 
L 562.99742 -368.195539 
L 560.350767 -368.068293 
L 557.704113 -368.0169 
L 555.05746 -367.960894 
L 552.410807 -367.95798 
L 549.764153 -368.066968 
L 547.1175 -368.01041 
L 544.470847 -367.873627 
L 541.824193 -367.773226 
L 539.17754 -367.577214 
L 536.530887 -367.501295 
L 533.884233 -367.245126 
L 531.23758 -367.174284 
L 528.590927 -367.019576 
L 525.944273 -366.916592 
L 523.29762 -366.838311 
L 520.650967 -366.78003 
L 518.004313 -366.722986 
L 515.35766 -366.757999 
L 512.711007 -366.738506 
L 510.064353 -366.764776 
L 507.4177 -366.715701 
L 504.771047 -366.554988 
L 502.124393 -366.546533 
L 499.47774 -366.47227 
L 496.831087 -366.278245 
L 494.184433 -366.048788 
L 491.53778 -366.100754 
L 488.891127 -366.106914 
L 486.244473 -365.963641 
L 483.59782 -365.883527 
L 480.951167 -365.681113 
L 478.304513 -365.578615 
L 475.65786 -365.490178 
L 473.011207 -365.332998 
L 470.364553 -365.345073 
L 467.7179 -365.2924 
L 465.071247 -365.464239 
L 462.424593 -365.403332 
L 459.77794 -365.460155 
L 457.131287 -365.288228 
L 454.484633 -365.175663 
L 451.83798 -365.237144 
L 449.191327 -365.099655 
L 446.544673 -365.116477 
L 443.89802 -364.990645 
L 441.251367 -365.001705 
L 438.604713 -364.940488 
L 435.95806 -364.888742 
L 433.311407 -364.836135 
L 430.664753 -364.824987 
L 428.0181 -364.750282 
L 425.371447 -364.676659 
L 422.724793 -364.620498 
L 420.07814 -364.5648 
L 417.431487 -364.592638 
L 414.784833 -364.22695 
L 412.13818 -364.06222 
L 409.491527 -363.839915 
L 406.844873 -363.893714 
L 404.19822 -363.998553 
L 401.551567 -363.806536 
L 398.904913 -363.645448 
L 396.25826 -363.680792 
L 393.611607 -363.566218 
L 390.964953 -363.398882 
L 388.3183 -363.503522 
L 385.671647 -363.279937 
L 383.024993 -363.129004 
L 380.37834 -362.809543 
L 377.731687 -362.784907 
L 375.085033 -362.736207 
L 372.43838 -362.435666 
L 369.791727 -362.245283 
L 367.145073 -362.205635 
L 364.49842 -361.994898 
L 361.851767 -361.848844 
L 359.205113 -361.834185 
L 356.55846 -361.827695 
L 353.911807 -361.746522 
L 351.265153 -361.663317 
L 348.6185 -361.419864 
L 345.971847 -361.200761 
L 343.325193 -361.205419 
L 340.67854 -361.198465 
L 338.031887 -360.839841 
L 335.385233 -360.722044 
L 332.73858 -360.508151 
L 330.091927 -360.052813 
L 327.445273 -360.054204 
L 324.79862 -359.911814 
L 322.151967 -359.683571 
L 319.505313 -359.50778 
L 316.85866 -359.28042 
L 314.212007 -359.228189 
L 311.565353 -359.034406 
L 308.9187 -359.141386 
L 306.272047 -359.019284 
L 303.625393 -358.807753 
L 300.97874 -358.575602 
L 298.332087 -358.553482 
L 295.685433 -358.477718 
L 293.03878 -358.276032 
L 290.392127 -358.297578 
L 287.745473 -358.240093 
L 285.09882 -358.101632 
L 282.452167 -357.807316 
L 279.805513 -357.561037 
L 277.15886 -357.347475 
L 274.512207 -357.183561 
L 271.865553 -356.855756 
L 269.2189 -356.651421 
L 266.572247 -356.511327 
L 263.925593 -356.600691 
L 261.27894 -356.338009 
L 258.632287 -356.211624 
L 255.985633 -356.278029 
L 253.33898 -355.778451 
L 250.692327 -355.434353 
L 248.045673 -354.951089 
L 245.39902 -354.590016 
L 242.752367 -354.211767 
L 240.105713 -354.178874 
L 237.45906 -354.131499 
L 234.812407 -354.011803 
L 232.165753 -354.055271 
L 229.5191 -353.603928 
L 226.872447 -353.259588 
L 224.225793 -352.967215 
L 221.57914 -352.933571 
L 218.932487 -352.713606 
L 216.285833 -352.542717 
L 213.63918 -352.598591 
L 210.992527 -352.391408 
L 208.345873 -352.050269 
L 205.69922 -351.6701 
L 203.052567 -351.35629 
L 200.405913 -351.031686 
L 197.75926 -350.932124 
L 195.112607 -350.685955 
L 192.465953 -350.339871 
L 189.8193 -349.971777 
L 187.172647 -349.821131 
L 184.525993 -349.523018 
L 181.87934 -349.360671 
L 179.232687 -349.049445 
L 176.586033 -348.675214 
L 173.93938 -348.499269 
L 171.292727 -348.207116 
L 168.646073 -348.023312 
L 165.99942 -347.775797 
L 163.352767 -347.268315 
L 160.706113 -346.694253 
L 158.05946 -346.391968 
L 155.412807 -346.194388 
L 152.766153 -345.799317 
L 150.1195 -345.22828 
L 147.472847 -344.879281 
L 144.826193 -344.372904 
L 142.17954 -343.692303 
L 139.532887 -343.135659 
L 136.886233 -342.887525 
L 134.23958 -342.275272 
L 131.592927 -341.952941 
L 128.946273 -341.396915 
L 126.29962 -340.906432 
L 123.652967 -340.069887 
L 121.006313 -339.281998 
L 118.35966 -338.720784 
L 115.713007 -338.106102 
L 113.066353 -337.51014 
L 110.4197 -336.774195 
L 107.773047 -336.514913 
L 105.126393 -335.972088 
L 102.47974 -335.650244 
L 99.833087 -335.007393 
L 97.186433 -334.347853 
L 94.53978 -333.644558 
L 91.893127 -332.979962 
L 89.246473 -332.306028 
L 86.59982 -331.095341 
L 83.953167 -329.738886 
L 81.306513 -328.235957 
L 78.65986 -327.401973 
L 76.013207 -326.428778 
L 73.366553 -325.88284 
L 70.7199 -324.918829 
L 68.073247 -323.031647 
L 65.426593 -320.3277 
L 62.77994 -318.598846 
L 60.133287 -315.410906 
L 57.486633 -311.130959 
L 54.83998 -307.639233 
L 52.193327 -307.495496 
z
" style="stroke: #0000ff; stroke-opacity: 0.2"/>
    </defs>
    <g clip-path="url(#p32fb39ad83)">
     <use xlink:href="#m900350a25c" x="0" y="432" style="fill: #0000ff; fill-opacity: 0.2; stroke: #0000ff; stroke-opacity: 0.2"/>
    </g>
   </g>
   <g id="matplotlib.axis_1">
    <g id="xtick_1">
     <g id="line2d_1">
      <defs>
       <path id="mb3919edc8f" d="M 0 0 
L 0 3.5 
" style="stroke: #000000; stroke-width: 0.8"/>
      </defs>
      <g>
       <use xlink:href="#mb3919edc8f" x="181.87934" y="390.04" style="stroke: #000000; stroke-width: 0.8"/>
      </g>
     </g>
     <g id="text_1">
      <!-- 50 -->
      <g transform="translate(175.51684 404.638438) scale(0.1 -0.1)">
       <defs>
        <path id="DejaVuSans-35" d="M 691 4666 
L 3169 4666 
L 3169 4134 
L 1269 4134 
L 1269 2991 
Q 1406 3038 1543 3061 
Q 1681 3084 1819 3084 
Q 2600 3084 3056 2656 
Q 3513 2228 3513 1497 
Q 3513 744 3044 326 
Q 2575 -91 1722 -91 
Q 1428 -91 1123 -41 
Q 819 9 494 109 
L 494 744 
Q 775 591 1075 516 
Q 1375 441 1709 441 
Q 2250 441 2565 725 
Q 2881 1009 2881 1497 
Q 2881 1984 2565 2268 
Q 2250 2553 1709 2553 
Q 1456 2553 1204 2497 
Q 953 2441 691 2322 
L 691 4666 
z
" transform="scale(0.015625)"/>
        <path id="DejaVuSans-30" d="M 2034 4250 
Q 1547 4250 1301 3770 
Q 1056 3291 1056 2328 
Q 1056 1369 1301 889 
Q 1547 409 2034 409 
Q 2525 409 2770 889 
Q 3016 1369 3016 2328 
Q 3016 3291 2770 3770 
Q 2525 4250 2034 4250 
z
M 2034 4750 
Q 2819 4750 3233 4129 
Q 3647 3509 3647 2328 
Q 3647 1150 3233 529 
Q 2819 -91 2034 -91 
Q 1250 -91 836 529 
Q 422 1150 422 2328 
Q 422 3509 836 4129 
Q 1250 4750 2034 4750 
z
" transform="scale(0.015625)"/>
       </defs>
       <use xlink:href="#DejaVuSans-35"/>
       <use xlink:href="#DejaVuSans-30" transform="translate(63.623047 0)"/>
      </g>
     </g>
    </g>
    <g id="xtick_2">
     <g id="line2d_2">
      <g>
       <use xlink:href="#mb3919edc8f" x="314.212007" y="390.04" style="stroke: #000000; stroke-width: 0.8"/>
      </g>
     </g>
     <g id="text_2">
      <!-- 100 -->
      <g transform="translate(304.668257 404.638438) scale(0.1 -0.1)">
       <defs>
        <path id="DejaVuSans-31" d="M 794 531 
L 1825 531 
L 1825 4091 
L 703 3866 
L 703 4441 
L 1819 4666 
L 2450 4666 
L 2450 531 
L 3481 531 
L 3481 0 
L 794 0 
L 794 531 
z
" transform="scale(0.015625)"/>
       </defs>
       <use xlink:href="#DejaVuSans-31"/>
       <use xlink:href="#DejaVuSans-30" transform="translate(63.623047 0)"/>
       <use xlink:href="#DejaVuSans-30" transform="translate(127.246094 0)"/>
      </g>
     </g>
    </g>
    <g id="xtick_3">
     <g id="line2d_3">
      <g>
       <use xlink:href="#mb3919edc8f" x="446.544673" y="390.04" style="stroke: #000000; stroke-width: 0.8"/>
      </g>
     </g>
     <g id="text_3">
      <!-- 150 -->
      <g transform="translate(437.000923 404.638438) scale(0.1 -0.1)">
       <use xlink:href="#DejaVuSans-31"/>
       <use xlink:href="#DejaVuSans-35" transform="translate(63.623047 0)"/>
       <use xlink:href="#DejaVuSans-30" transform="translate(127.246094 0)"/>
      </g>
     </g>
    </g>
    <g id="xtick_4">
     <g id="line2d_4">
      <g>
       <use xlink:href="#mb3919edc8f" x="578.87734" y="390.04" style="stroke: #000000; stroke-width: 0.8"/>
      </g>
     </g>
     <g id="text_4">
      <!-- 200 -->
      <g transform="translate(569.33359 404.638438) scale(0.1 -0.1)">
       <defs>
        <path id="DejaVuSans-32" d="M 1228 531 
L 3431 531 
L 3431 0 
L 469 0 
L 469 531 
Q 828 903 1448 1529 
Q 2069 2156 2228 2338 
Q 2531 2678 2651 2914 
Q 2772 3150 2772 3378 
Q 2772 3750 2511 3984 
Q 2250 4219 1831 4219 
Q 1534 4219 1204 4116 
Q 875 4013 500 3803 
L 500 4441 
Q 881 4594 1212 4672 
Q 1544 4750 1819 4750 
Q 2544 4750 2975 4387 
Q 3406 4025 3406 3419 
Q 3406 3131 3298 2873 
Q 3191 2616 2906 2266 
Q 2828 2175 2409 1742 
Q 1991 1309 1228 531 
z
" transform="scale(0.015625)"/>
       </defs>
       <use xlink:href="#DejaVuSans-32"/>
       <use xlink:href="#DejaVuSans-30" transform="translate(63.623047 0)"/>
       <use xlink:href="#DejaVuSans-30" transform="translate(127.246094 0)"/>
      </g>
     </g>
    </g>
    <g id="xtick_5">
     <g id="line2d_5">
      <g>
       <use xlink:href="#mb3919edc8f" x="711.210007" y="390.04" style="stroke: #000000; stroke-width: 0.8"/>
      </g>
     </g>
     <g id="text_5">
      <!-- 250 -->
      <g transform="translate(701.666257 404.638438) scale(0.1 -0.1)">
       <use xlink:href="#DejaVuSans-32"/>
       <use xlink:href="#DejaVuSans-35" transform="translate(63.623047 0)"/>
       <use xlink:href="#DejaVuSans-30" transform="translate(127.246094 0)"/>
      </g>
     </g>
    </g>
    <g id="xtick_6">
     <g id="line2d_6">
      <g>
       <use xlink:href="#mb3919edc8f" x="843.542673" y="390.04" style="stroke: #000000; stroke-width: 0.8"/>
      </g>
     </g>
     <g id="text_6">
      <!-- 300 -->
      <g transform="translate(833.998923 404.638438) scale(0.1 -0.1)">
       <defs>
        <path id="DejaVuSans-33" d="M 2597 2516 
Q 3050 2419 3304 2112 
Q 3559 1806 3559 1356 
Q 3559 666 3084 287 
Q 2609 -91 1734 -91 
Q 1441 -91 1130 -33 
Q 819 25 488 141 
L 488 750 
Q 750 597 1062 519 
Q 1375 441 1716 441 
Q 2309 441 2620 675 
Q 2931 909 2931 1356 
Q 2931 1769 2642 2001 
Q 2353 2234 1838 2234 
L 1294 2234 
L 1294 2753 
L 1863 2753 
Q 2328 2753 2575 2939 
Q 2822 3125 2822 3475 
Q 2822 3834 2567 4026 
Q 2313 4219 1838 4219 
Q 1578 4219 1281 4162 
Q 984 4106 628 3988 
L 628 4550 
Q 988 4650 1302 4700 
Q 1616 4750 1894 4750 
Q 2613 4750 3031 4423 
Q 3450 4097 3450 3541 
Q 3450 3153 3228 2886 
Q 3006 2619 2597 2516 
z
" transform="scale(0.015625)"/>
       </defs>
       <use xlink:href="#DejaVuSans-33"/>
       <use xlink:href="#DejaVuSans-30" transform="translate(63.623047 0)"/>
       <use xlink:href="#DejaVuSans-30" transform="translate(127.246094 0)"/>
      </g>
     </g>
    </g>
    <g id="text_7">
     <!-- Step -->
     <g transform="translate(436.482844 418.316562) scale(0.1 -0.1)">
      <defs>
       <path id="DejaVuSans-53" d="M 3425 4513 
L 3425 3897 
Q 3066 4069 2747 4153 
Q 2428 4238 2131 4238 
Q 1616 4238 1336 4038 
Q 1056 3838 1056 3469 
Q 1056 3159 1242 3001 
Q 1428 2844 1947 2747 
L 2328 2669 
Q 3034 2534 3370 2195 
Q 3706 1856 3706 1288 
Q 3706 609 3251 259 
Q 2797 -91 1919 -91 
Q 1588 -91 1214 -16 
Q 841 59 441 206 
L 441 856 
Q 825 641 1194 531 
Q 1563 422 1919 422 
Q 2459 422 2753 634 
Q 3047 847 3047 1241 
Q 3047 1584 2836 1778 
Q 2625 1972 2144 2069 
L 1759 2144 
Q 1053 2284 737 2584 
Q 422 2884 422 3419 
Q 422 4038 858 4394 
Q 1294 4750 2059 4750 
Q 2388 4750 2728 4690 
Q 3069 4631 3425 4513 
z
" transform="scale(0.015625)"/>
       <path id="DejaVuSans-74" d="M 1172 4494 
L 1172 3500 
L 2356 3500 
L 2356 3053 
L 1172 3053 
L 1172 1153 
Q 1172 725 1289 603 
Q 1406 481 1766 481 
L 2356 481 
L 2356 0 
L 1766 0 
Q 1100 0 847 248 
Q 594 497 594 1153 
L 594 3053 
L 172 3053 
L 172 3500 
L 594 3500 
L 594 4494 
L 1172 4494 
z
" transform="scale(0.015625)"/>
       <path id="DejaVuSans-65" d="M 3597 1894 
L 3597 1613 
L 953 1613 
Q 991 1019 1311 708 
Q 1631 397 2203 397 
Q 2534 397 2845 478 
Q 3156 559 3463 722 
L 3463 178 
Q 3153 47 2828 -22 
Q 2503 -91 2169 -91 
Q 1331 -91 842 396 
Q 353 884 353 1716 
Q 353 2575 817 3079 
Q 1281 3584 2069 3584 
Q 2775 3584 3186 3129 
Q 3597 2675 3597 1894 
z
M 3022 2063 
Q 3016 2534 2758 2815 
Q 2500 3097 2075 3097 
Q 1594 3097 1305 2825 
Q 1016 2553 972 2059 
L 3022 2063 
z
" transform="scale(0.015625)"/>
       <path id="DejaVuSans-70" d="M 1159 525 
L 1159 -1331 
L 581 -1331 
L 581 3500 
L 1159 3500 
L 1159 2969 
Q 1341 3281 1617 3432 
Q 1894 3584 2278 3584 
Q 2916 3584 3314 3078 
Q 3713 2572 3713 1747 
Q 3713 922 3314 415 
Q 2916 -91 2278 -91 
Q 1894 -91 1617 61 
Q 1341 213 1159 525 
z
M 3116 1747 
Q 3116 2381 2855 2742 
Q 2594 3103 2138 3103 
Q 1681 3103 1420 2742 
Q 1159 2381 1159 1747 
Q 1159 1113 1420 752 
Q 1681 391 2138 391 
Q 2594 391 2855 752 
Q 3116 1113 3116 1747 
z
" transform="scale(0.015625)"/>
      </defs>
      <use xlink:href="#DejaVuSans-53"/>
      <use xlink:href="#DejaVuSans-74" transform="translate(63.476562 0)"/>
      <use xlink:href="#DejaVuSans-65" transform="translate(102.685547 0)"/>
      <use xlink:href="#DejaVuSans-70" transform="translate(164.208984 0)"/>
     </g>
    </g>
   </g>
   <g id="matplotlib.axis_2">
    <g id="ytick_1">
     <g id="line2d_7">
      <defs>
       <path id="m6140da8e3d" d="M 0 0 
L -3.5 0 
" style="stroke: #000000; stroke-width: 0.8"/>
      </defs>
      <g>
       <use xlink:href="#m6140da8e3d" x="50.87" y="370.997621" style="stroke: #000000; stroke-width: 0.8"/>
      </g>
     </g>
     <g id="text_8">
      <!-- 20 -->
      <g transform="translate(31.145 374.79684) scale(0.1 -0.1)">
       <use xlink:href="#DejaVuSans-32"/>
       <use xlink:href="#DejaVuSans-30" transform="translate(63.623047 0)"/>
      </g>
     </g>
    </g>
    <g id="ytick_2">
     <g id="line2d_8">
      <g>
       <use xlink:href="#m6140da8e3d" x="50.87" y="313.126917" style="stroke: #000000; stroke-width: 0.8"/>
      </g>
     </g>
     <g id="text_9">
      <!-- 40 -->
      <g transform="translate(31.145 316.926136) scale(0.1 -0.1)">
       <defs>
        <path id="DejaVuSans-34" d="M 2419 4116 
L 825 1625 
L 2419 1625 
L 2419 4116 
z
M 2253 4666 
L 3047 4666 
L 3047 1625 
L 3713 1625 
L 3713 1100 
L 3047 1100 
L 3047 0 
L 2419 0 
L 2419 1100 
L 313 1100 
L 313 1709 
L 2253 4666 
z
" transform="scale(0.015625)"/>
       </defs>
       <use xlink:href="#DejaVuSans-34"/>
       <use xlink:href="#DejaVuSans-30" transform="translate(63.623047 0)"/>
      </g>
     </g>
    </g>
    <g id="ytick_3">
     <g id="line2d_9">
      <g>
       <use xlink:href="#m6140da8e3d" x="50.87" y="255.256214" style="stroke: #000000; stroke-width: 0.8"/>
      </g>
     </g>
     <g id="text_10">
      <!-- 60 -->
      <g transform="translate(31.145 259.055432) scale(0.1 -0.1)">
       <defs>
        <path id="DejaVuSans-36" d="M 2113 2584 
Q 1688 2584 1439 2293 
Q 1191 2003 1191 1497 
Q 1191 994 1439 701 
Q 1688 409 2113 409 
Q 2538 409 2786 701 
Q 3034 994 3034 1497 
Q 3034 2003 2786 2293 
Q 2538 2584 2113 2584 
z
M 3366 4563 
L 3366 3988 
Q 3128 4100 2886 4159 
Q 2644 4219 2406 4219 
Q 1781 4219 1451 3797 
Q 1122 3375 1075 2522 
Q 1259 2794 1537 2939 
Q 1816 3084 2150 3084 
Q 2853 3084 3261 2657 
Q 3669 2231 3669 1497 
Q 3669 778 3244 343 
Q 2819 -91 2113 -91 
Q 1303 -91 875 529 
Q 447 1150 447 2328 
Q 447 3434 972 4092 
Q 1497 4750 2381 4750 
Q 2619 4750 2861 4703 
Q 3103 4656 3366 4563 
z
" transform="scale(0.015625)"/>
       </defs>
       <use xlink:href="#DejaVuSans-36"/>
       <use xlink:href="#DejaVuSans-30" transform="translate(63.623047 0)"/>
      </g>
     </g>
    </g>
    <g id="ytick_4">
     <g id="line2d_10">
      <g>
       <use xlink:href="#m6140da8e3d" x="50.87" y="197.38551" style="stroke: #000000; stroke-width: 0.8"/>
      </g>
     </g>
     <g id="text_11">
      <!-- 80 -->
      <g transform="translate(31.145 201.184728) scale(0.1 -0.1)">
       <defs>
        <path id="DejaVuSans-38" d="M 2034 2216 
Q 1584 2216 1326 1975 
Q 1069 1734 1069 1313 
Q 1069 891 1326 650 
Q 1584 409 2034 409 
Q 2484 409 2743 651 
Q 3003 894 3003 1313 
Q 3003 1734 2745 1975 
Q 2488 2216 2034 2216 
z
M 1403 2484 
Q 997 2584 770 2862 
Q 544 3141 544 3541 
Q 544 4100 942 4425 
Q 1341 4750 2034 4750 
Q 2731 4750 3128 4425 
Q 3525 4100 3525 3541 
Q 3525 3141 3298 2862 
Q 3072 2584 2669 2484 
Q 3125 2378 3379 2068 
Q 3634 1759 3634 1313 
Q 3634 634 3220 271 
Q 2806 -91 2034 -91 
Q 1263 -91 848 271 
Q 434 634 434 1313 
Q 434 1759 690 2068 
Q 947 2378 1403 2484 
z
M 1172 3481 
Q 1172 3119 1398 2916 
Q 1625 2713 2034 2713 
Q 2441 2713 2670 2916 
Q 2900 3119 2900 3481 
Q 2900 3844 2670 4047 
Q 2441 4250 2034 4250 
Q 1625 4250 1398 4047 
Q 1172 3844 1172 3481 
z
" transform="scale(0.015625)"/>
       </defs>
       <use xlink:href="#DejaVuSans-38"/>
       <use xlink:href="#DejaVuSans-30" transform="translate(63.623047 0)"/>
      </g>
     </g>
    </g>
    <g id="ytick_5">
     <g id="line2d_11">
      <g>
       <use xlink:href="#m6140da8e3d" x="50.87" y="139.514806" style="stroke: #000000; stroke-width: 0.8"/>
      </g>
     </g>
     <g id="text_12">
      <!-- 100 -->
      <g transform="translate(24.7825 143.314025) scale(0.1 -0.1)">
       <use xlink:href="#DejaVuSans-31"/>
       <use xlink:href="#DejaVuSans-30" transform="translate(63.623047 0)"/>
       <use xlink:href="#DejaVuSans-30" transform="translate(127.246094 0)"/>
      </g>
     </g>
    </g>
    <g id="ytick_6">
     <g id="line2d_12">
      <g>
       <use xlink:href="#m6140da8e3d" x="50.87" y="81.644102" style="stroke: #000000; stroke-width: 0.8"/>
      </g>
     </g>
     <g id="text_13">
      <!-- 120 -->
      <g transform="translate(24.7825 85.443321) scale(0.1 -0.1)">
       <use xlink:href="#DejaVuSans-31"/>
       <use xlink:href="#DejaVuSans-32" transform="translate(63.623047 0)"/>
       <use xlink:href="#DejaVuSans-30" transform="translate(127.246094 0)"/>
      </g>
     </g>
    </g>
    <g id="text_14">
     <!-- Profit -->
     <g transform="translate(18.702813 229.779063) rotate(-90) scale(0.1 -0.1)">
      <defs>
       <path id="DejaVuSans-50" d="M 1259 4147 
L 1259 2394 
L 2053 2394 
Q 2494 2394 2734 2622 
Q 2975 2850 2975 3272 
Q 2975 3691 2734 3919 
Q 2494 4147 2053 4147 
L 1259 4147 
z
M 628 4666 
L 2053 4666 
Q 2838 4666 3239 4311 
Q 3641 3956 3641 3272 
Q 3641 2581 3239 2228 
Q 2838 1875 2053 1875 
L 1259 1875 
L 1259 0 
L 628 0 
L 628 4666 
z
" transform="scale(0.015625)"/>
       <path id="DejaVuSans-72" d="M 2631 2963 
Q 2534 3019 2420 3045 
Q 2306 3072 2169 3072 
Q 1681 3072 1420 2755 
Q 1159 2438 1159 1844 
L 1159 0 
L 581 0 
L 581 3500 
L 1159 3500 
L 1159 2956 
Q 1341 3275 1631 3429 
Q 1922 3584 2338 3584 
Q 2397 3584 2469 3576 
Q 2541 3569 2628 3553 
L 2631 2963 
z
" transform="scale(0.015625)"/>
       <path id="DejaVuSans-6f" d="M 1959 3097 
Q 1497 3097 1228 2736 
Q 959 2375 959 1747 
Q 959 1119 1226 758 
Q 1494 397 1959 397 
Q 2419 397 2687 759 
Q 2956 1122 2956 1747 
Q 2956 2369 2687 2733 
Q 2419 3097 1959 3097 
z
M 1959 3584 
Q 2709 3584 3137 3096 
Q 3566 2609 3566 1747 
Q 3566 888 3137 398 
Q 2709 -91 1959 -91 
Q 1206 -91 779 398 
Q 353 888 353 1747 
Q 353 2609 779 3096 
Q 1206 3584 1959 3584 
z
" transform="scale(0.015625)"/>
       <path id="DejaVuSans-66" d="M 2375 4863 
L 2375 4384 
L 1825 4384 
Q 1516 4384 1395 4259 
Q 1275 4134 1275 3809 
L 1275 3500 
L 2222 3500 
L 2222 3053 
L 1275 3053 
L 1275 0 
L 697 0 
L 697 3053 
L 147 3053 
L 147 3500 
L 697 3500 
L 697 3744 
Q 697 4328 969 4595 
Q 1241 4863 1831 4863 
L 2375 4863 
z
" transform="scale(0.015625)"/>
       <path id="DejaVuSans-69" d="M 603 3500 
L 1178 3500 
L 1178 0 
L 603 0 
L 603 3500 
z
M 603 4863 
L 1178 4863 
L 1178 4134 
L 603 4134 
L 603 4863 
z
" transform="scale(0.015625)"/>
      </defs>
      <use xlink:href="#DejaVuSans-50"/>
      <use xlink:href="#DejaVuSans-72" transform="translate(58.552734 0)"/>
      <use xlink:href="#DejaVuSans-6f" transform="translate(97.416016 0)"/>
      <use xlink:href="#DejaVuSans-66" transform="translate(158.597656 0)"/>
      <use xlink:href="#DejaVuSans-69" transform="translate(193.802734 0)"/>
      <use xlink:href="#DejaVuSans-74" transform="translate(221.585938 0)"/>
     </g>
    </g>
   </g>
   <g id="line2d_13">
    <path d="M 52.193327 249.302382 
L 54.83998 249.323111 
L 57.486633 241.624155 
L 60.133287 234.512199 
L 62.77994 227.944833 
L 65.426593 222.091557 
L 68.073247 216.980363 
L 70.7199 212.399984 
L 73.366553 208.173902 
L 76.013207 204.432652 
L 78.65986 201.021259 
L 86.59982 192.732855 
L 89.246473 190.326844 
L 94.53978 186.220215 
L 99.833087 182.479715 
L 105.126393 179.359747 
L 110.4197 176.135956 
L 115.713007 173.35609 
L 118.35966 172.264436 
L 121.006313 171.009662 
L 126.29962 168.72657 
L 131.592927 166.840095 
L 136.886233 164.908429 
L 144.826193 162.420076 
L 152.766153 160.008016 
L 168.646073 155.864013 
L 184.525993 152.388622 
L 187.172647 151.94781 
L 189.8193 151.392491 
L 197.75926 150.08787 
L 200.405913 149.556237 
L 224.225793 145.926161 
L 229.5191 145.35636 
L 234.812407 144.549308 
L 250.692327 142.632301 
L 261.27894 141.341213 
L 274.512207 139.757244 
L 282.452167 138.936284 
L 295.685433 137.717097 
L 300.97874 137.160365 
L 303.625393 136.871656 
L 308.9187 136.450513 
L 314.212007 136.044405 
L 324.79862 135.227419 
L 330.091927 134.820229 
L 335.385233 134.671834 
L 345.971847 133.675592 
L 348.6185 133.537375 
L 353.911807 133.097821 
L 359.205113 132.676149 
L 364.49842 132.250017 
L 367.145073 132.159572 
L 372.43838 131.827153 
L 388.3183 130.931952 
L 398.904913 130.187243 
L 435.95806 128.070251 
L 441.251367 127.784853 
L 449.191327 127.275915 
L 454.484633 127.005088 
L 465.071247 126.580347 
L 470.364553 126.278083 
L 486.244473 125.628367 
L 496.831087 125.154772 
L 539.17754 123.40722 
L 607.990527 121.01759 
L 613.283833 120.844713 
L 618.57714 120.61742 
L 629.163753 120.283654 
L 652.983633 119.509076 
L 668.863553 119.006231 
L 682.09682 118.626414 
L 697.97674 118.199841 
L 729.73658 117.243557 
L 740.323193 116.986924 
L 748.263153 116.759034 
L 756.203113 116.584083 
L 806.489527 115.404345 
L 827.662753 114.950685 
L 843.542673 114.597228 
L 843.542673 114.597228 
" clip-path="url(#p32fb39ad83)" style="fill: none; stroke: #0000ff; stroke-width: 1.5; stroke-linecap: square"/>
   </g>
   <g id="patch_3">
    <path d="M 50.87 390.04 
L 50.87 43.44 
" style="fill: none; stroke: #000000; stroke-width: 0.8; stroke-linejoin: miter; stroke-linecap: square"/>
   </g>
   <g id="patch_4">
    <path d="M 844.866 390.04 
L 844.866 43.44 
" style="fill: none; stroke: #000000; stroke-width: 0.8; stroke-linejoin: miter; stroke-linecap: square"/>
   </g>
   <g id="patch_5">
    <path d="M 50.87 390.04 
L 844.866 390.04 
" style="fill: none; stroke: #000000; stroke-width: 0.8; stroke-linejoin: miter; stroke-linecap: square"/>
   </g>
   <g id="patch_6">
    <path d="M 50.87 43.44 
L 844.866 43.44 
" style="fill: none; stroke: #000000; stroke-width: 0.8; stroke-linejoin: miter; stroke-linecap: square"/>
   </g>
   <g id="text_15">
    <!-- Mean profit per step with confidence interval per simulation step -->
    <g transform="translate(220.284875 21.763062) scale(0.14 -0.14)">
     <defs>
      <path id="DejaVuSans-4d" d="M 628 4666 
L 1569 4666 
L 2759 1491 
L 3956 4666 
L 4897 4666 
L 4897 0 
L 4281 0 
L 4281 4097 
L 3078 897 
L 2444 897 
L 1241 4097 
L 1241 0 
L 628 0 
L 628 4666 
z
" transform="scale(0.015625)"/>
      <path id="DejaVuSans-61" d="M 2194 1759 
Q 1497 1759 1228 1600 
Q 959 1441 959 1056 
Q 959 750 1161 570 
Q 1363 391 1709 391 
Q 2188 391 2477 730 
Q 2766 1069 2766 1631 
L 2766 1759 
L 2194 1759 
z
M 3341 1997 
L 3341 0 
L 2766 0 
L 2766 531 
Q 2569 213 2275 61 
Q 1981 -91 1556 -91 
Q 1019 -91 701 211 
Q 384 513 384 1019 
Q 384 1609 779 1909 
Q 1175 2209 1959 2209 
L 2766 2209 
L 2766 2266 
Q 2766 2663 2505 2880 
Q 2244 3097 1772 3097 
Q 1472 3097 1187 3025 
Q 903 2953 641 2809 
L 641 3341 
Q 956 3463 1253 3523 
Q 1550 3584 1831 3584 
Q 2591 3584 2966 3190 
Q 3341 2797 3341 1997 
z
" transform="scale(0.015625)"/>
      <path id="DejaVuSans-6e" d="M 3513 2113 
L 3513 0 
L 2938 0 
L 2938 2094 
Q 2938 2591 2744 2837 
Q 2550 3084 2163 3084 
Q 1697 3084 1428 2787 
Q 1159 2491 1159 1978 
L 1159 0 
L 581 0 
L 581 3500 
L 1159 3500 
L 1159 2956 
Q 1366 3272 1645 3428 
Q 1925 3584 2291 3584 
Q 2894 3584 3203 3211 
Q 3513 2838 3513 2113 
z
" transform="scale(0.015625)"/>
      <path id="DejaVuSans-20" transform="scale(0.015625)"/>
      <path id="DejaVuSans-73" d="M 2834 3397 
L 2834 2853 
Q 2591 2978 2328 3040 
Q 2066 3103 1784 3103 
Q 1356 3103 1142 2972 
Q 928 2841 928 2578 
Q 928 2378 1081 2264 
Q 1234 2150 1697 2047 
L 1894 2003 
Q 2506 1872 2764 1633 
Q 3022 1394 3022 966 
Q 3022 478 2636 193 
Q 2250 -91 1575 -91 
Q 1294 -91 989 -36 
Q 684 19 347 128 
L 347 722 
Q 666 556 975 473 
Q 1284 391 1588 391 
Q 1994 391 2212 530 
Q 2431 669 2431 922 
Q 2431 1156 2273 1281 
Q 2116 1406 1581 1522 
L 1381 1569 
Q 847 1681 609 1914 
Q 372 2147 372 2553 
Q 372 3047 722 3315 
Q 1072 3584 1716 3584 
Q 2034 3584 2315 3537 
Q 2597 3491 2834 3397 
z
" transform="scale(0.015625)"/>
      <path id="DejaVuSans-77" d="M 269 3500 
L 844 3500 
L 1563 769 
L 2278 3500 
L 2956 3500 
L 3675 769 
L 4391 3500 
L 4966 3500 
L 4050 0 
L 3372 0 
L 2619 2869 
L 1863 0 
L 1184 0 
L 269 3500 
z
" transform="scale(0.015625)"/>
      <path id="DejaVuSans-68" d="M 3513 2113 
L 3513 0 
L 2938 0 
L 2938 2094 
Q 2938 2591 2744 2837 
Q 2550 3084 2163 3084 
Q 1697 3084 1428 2787 
Q 1159 2491 1159 1978 
L 1159 0 
L 581 0 
L 581 4863 
L 1159 4863 
L 1159 2956 
Q 1366 3272 1645 3428 
Q 1925 3584 2291 3584 
Q 2894 3584 3203 3211 
Q 3513 2838 3513 2113 
z
" transform="scale(0.015625)"/>
      <path id="DejaVuSans-63" d="M 3122 3366 
L 3122 2828 
Q 2878 2963 2633 3030 
Q 2388 3097 2138 3097 
Q 1578 3097 1268 2742 
Q 959 2388 959 1747 
Q 959 1106 1268 751 
Q 1578 397 2138 397 
Q 2388 397 2633 464 
Q 2878 531 3122 666 
L 3122 134 
Q 2881 22 2623 -34 
Q 2366 -91 2075 -91 
Q 1284 -91 818 406 
Q 353 903 353 1747 
Q 353 2603 823 3093 
Q 1294 3584 2113 3584 
Q 2378 3584 2631 3529 
Q 2884 3475 3122 3366 
z
" transform="scale(0.015625)"/>
      <path id="DejaVuSans-64" d="M 2906 2969 
L 2906 4863 
L 3481 4863 
L 3481 0 
L 2906 0 
L 2906 525 
Q 2725 213 2448 61 
Q 2172 -91 1784 -91 
Q 1150 -91 751 415 
Q 353 922 353 1747 
Q 353 2572 751 3078 
Q 1150 3584 1784 3584 
Q 2172 3584 2448 3432 
Q 2725 3281 2906 2969 
z
M 947 1747 
Q 947 1113 1208 752 
Q 1469 391 1925 391 
Q 2381 391 2643 752 
Q 2906 1113 2906 1747 
Q 2906 2381 2643 2742 
Q 2381 3103 1925 3103 
Q 1469 3103 1208 2742 
Q 947 2381 947 1747 
z
" transform="scale(0.015625)"/>
      <path id="DejaVuSans-76" d="M 191 3500 
L 800 3500 
L 1894 563 
L 2988 3500 
L 3597 3500 
L 2284 0 
L 1503 0 
L 191 3500 
z
" transform="scale(0.015625)"/>
      <path id="DejaVuSans-6c" d="M 603 4863 
L 1178 4863 
L 1178 0 
L 603 0 
L 603 4863 
z
" transform="scale(0.015625)"/>
      <path id="DejaVuSans-6d" d="M 3328 2828 
Q 3544 3216 3844 3400 
Q 4144 3584 4550 3584 
Q 5097 3584 5394 3201 
Q 5691 2819 5691 2113 
L 5691 0 
L 5113 0 
L 5113 2094 
Q 5113 2597 4934 2840 
Q 4756 3084 4391 3084 
Q 3944 3084 3684 2787 
Q 3425 2491 3425 1978 
L 3425 0 
L 2847 0 
L 2847 2094 
Q 2847 2600 2669 2842 
Q 2491 3084 2119 3084 
Q 1678 3084 1418 2786 
Q 1159 2488 1159 1978 
L 1159 0 
L 581 0 
L 581 3500 
L 1159 3500 
L 1159 2956 
Q 1356 3278 1631 3431 
Q 1906 3584 2284 3584 
Q 2666 3584 2933 3390 
Q 3200 3197 3328 2828 
z
" transform="scale(0.015625)"/>
      <path id="DejaVuSans-75" d="M 544 1381 
L 544 3500 
L 1119 3500 
L 1119 1403 
Q 1119 906 1312 657 
Q 1506 409 1894 409 
Q 2359 409 2629 706 
Q 2900 1003 2900 1516 
L 2900 3500 
L 3475 3500 
L 3475 0 
L 2900 0 
L 2900 538 
Q 2691 219 2414 64 
Q 2138 -91 1772 -91 
Q 1169 -91 856 284 
Q 544 659 544 1381 
z
M 1991 3584 
L 1991 3584 
z
" transform="scale(0.015625)"/>
     </defs>
     <use xlink:href="#DejaVuSans-4d"/>
     <use xlink:href="#DejaVuSans-65" transform="translate(86.279297 0)"/>
     <use xlink:href="#DejaVuSans-61" transform="translate(147.802734 0)"/>
     <use xlink:href="#DejaVuSans-6e" transform="translate(209.082031 0)"/>
     <use xlink:href="#DejaVuSans-20" transform="translate(272.460938 0)"/>
     <use xlink:href="#DejaVuSans-70" transform="translate(304.248047 0)"/>
     <use xlink:href="#DejaVuSans-72" transform="translate(367.724609 0)"/>
     <use xlink:href="#DejaVuSans-6f" transform="translate(406.587891 0)"/>
     <use xlink:href="#DejaVuSans-66" transform="translate(467.769531 0)"/>
     <use xlink:href="#DejaVuSans-69" transform="translate(502.974609 0)"/>
     <use xlink:href="#DejaVuSans-74" transform="translate(530.757812 0)"/>
     <use xlink:href="#DejaVuSans-20" transform="translate(569.966797 0)"/>
     <use xlink:href="#DejaVuSans-70" transform="translate(601.753906 0)"/>
     <use xlink:href="#DejaVuSans-65" transform="translate(665.230469 0)"/>
     <use xlink:href="#DejaVuSans-72" transform="translate(726.753906 0)"/>
     <use xlink:href="#DejaVuSans-20" transform="translate(767.867188 0)"/>
     <use xlink:href="#DejaVuSans-73" transform="translate(799.654297 0)"/>
     <use xlink:href="#DejaVuSans-74" transform="translate(851.753906 0)"/>
     <use xlink:href="#DejaVuSans-65" transform="translate(890.962891 0)"/>
     <use xlink:href="#DejaVuSans-70" transform="translate(952.486328 0)"/>
     <use xlink:href="#DejaVuSans-20" transform="translate(1015.962891 0)"/>
     <use xlink:href="#DejaVuSans-77" transform="translate(1047.75 0)"/>
     <use xlink:href="#DejaVuSans-69" transform="translate(1129.537109 0)"/>
     <use xlink:href="#DejaVuSans-74" transform="translate(1157.320312 0)"/>
     <use xlink:href="#DejaVuSans-68" transform="translate(1196.529297 0)"/>
     <use xlink:href="#DejaVuSans-20" transform="translate(1259.908203 0)"/>
     <use xlink:href="#DejaVuSans-63" transform="translate(1291.695312 0)"/>
     <use xlink:href="#DejaVuSans-6f" transform="translate(1346.675781 0)"/>
     <use xlink:href="#DejaVuSans-6e" transform="translate(1407.857422 0)"/>
     <use xlink:href="#DejaVuSans-66" transform="translate(1471.236328 0)"/>
     <use xlink:href="#DejaVuSans-69" transform="translate(1506.441406 0)"/>
     <use xlink:href="#DejaVuSans-64" transform="translate(1534.224609 0)"/>
     <use xlink:href="#DejaVuSans-65" transform="translate(1597.701172 0)"/>
     <use xlink:href="#DejaVuSans-6e" transform="translate(1659.224609 0)"/>
     <use xlink:href="#DejaVuSans-63" transform="translate(1722.603516 0)"/>
     <use xlink:href="#DejaVuSans-65" transform="translate(1777.583984 0)"/>
     <use xlink:href="#DejaVuSans-20" transform="translate(1839.107422 0)"/>
     <use xlink:href="#DejaVuSans-69" transform="translate(1870.894531 0)"/>
     <use xlink:href="#DejaVuSans-6e" transform="translate(1898.677734 0)"/>
     <use xlink:href="#DejaVuSans-74" transform="translate(1962.056641 0)"/>
     <use xlink:href="#DejaVuSans-65" transform="translate(2001.265625 0)"/>
     <use xlink:href="#DejaVuSans-72" transform="translate(2062.789062 0)"/>
     <use xlink:href="#DejaVuSans-76" transform="translate(2103.902344 0)"/>
     <use xlink:href="#DejaVuSans-61" transform="translate(2163.082031 0)"/>
     <use xlink:href="#DejaVuSans-6c" transform="translate(2224.361328 0)"/>
     <use xlink:href="#DejaVuSans-20" transform="translate(2252.144531 0)"/>
     <use xlink:href="#DejaVuSans-70" transform="translate(2283.931641 0)"/>
     <use xlink:href="#DejaVuSans-65" transform="translate(2347.408203 0)"/>
     <use xlink:href="#DejaVuSans-72" transform="translate(2408.931641 0)"/>
     <use xlink:href="#DejaVuSans-20" transform="translate(2450.044922 0)"/>
     <use xlink:href="#DejaVuSans-73" transform="translate(2481.832031 0)"/>
     <use xlink:href="#DejaVuSans-69" transform="translate(2533.931641 0)"/>
     <use xlink:href="#DejaVuSans-6d" transform="translate(2561.714844 0)"/>
     <use xlink:href="#DejaVuSans-75" transform="translate(2659.126953 0)"/>
     <use xlink:href="#DejaVuSans-6c" transform="translate(2722.505859 0)"/>
     <use xlink:href="#DejaVuSans-61" transform="translate(2750.289062 0)"/>
     <use xlink:href="#DejaVuSans-74" transform="translate(2811.568359 0)"/>
     <use xlink:href="#DejaVuSans-69" transform="translate(2850.777344 0)"/>
     <use xlink:href="#DejaVuSans-6f" transform="translate(2878.560547 0)"/>
     <use xlink:href="#DejaVuSans-6e" transform="translate(2939.742188 0)"/>
     <use xlink:href="#DejaVuSans-20" transform="translate(3003.121094 0)"/>
     <use xlink:href="#DejaVuSans-73" transform="translate(3034.908203 0)"/>
     <use xlink:href="#DejaVuSans-74" transform="translate(3087.007812 0)"/>
     <use xlink:href="#DejaVuSans-65" transform="translate(3126.216797 0)"/>
     <use xlink:href="#DejaVuSans-70" transform="translate(3187.740234 0)"/>
    </g>
    <!-- Base Product: Sour Diesel, Recipe size: 9, T0: 10.0 -->
    <g transform="translate(271.602531 37.44) scale(0.14 -0.14)">
     <defs>
      <path id="DejaVuSans-42" d="M 1259 2228 
L 1259 519 
L 2272 519 
Q 2781 519 3026 730 
Q 3272 941 3272 1375 
Q 3272 1813 3026 2020 
Q 2781 2228 2272 2228 
L 1259 2228 
z
M 1259 4147 
L 1259 2741 
L 2194 2741 
Q 2656 2741 2882 2914 
Q 3109 3088 3109 3444 
Q 3109 3797 2882 3972 
Q 2656 4147 2194 4147 
L 1259 4147 
z
M 628 4666 
L 2241 4666 
Q 2963 4666 3353 4366 
Q 3744 4066 3744 3513 
Q 3744 3084 3544 2831 
Q 3344 2578 2956 2516 
Q 3422 2416 3680 2098 
Q 3938 1781 3938 1306 
Q 3938 681 3513 340 
Q 3088 0 2303 0 
L 628 0 
L 628 4666 
z
" transform="scale(0.015625)"/>
      <path id="DejaVuSans-3a" d="M 750 794 
L 1409 794 
L 1409 0 
L 750 0 
L 750 794 
z
M 750 3309 
L 1409 3309 
L 1409 2516 
L 750 2516 
L 750 3309 
z
" transform="scale(0.015625)"/>
      <path id="DejaVuSans-44" d="M 1259 4147 
L 1259 519 
L 2022 519 
Q 2988 519 3436 956 
Q 3884 1394 3884 2338 
Q 3884 3275 3436 3711 
Q 2988 4147 2022 4147 
L 1259 4147 
z
M 628 4666 
L 1925 4666 
Q 3281 4666 3915 4102 
Q 4550 3538 4550 2338 
Q 4550 1131 3912 565 
Q 3275 0 1925 0 
L 628 0 
L 628 4666 
z
" transform="scale(0.015625)"/>
      <path id="DejaVuSans-2c" d="M 750 794 
L 1409 794 
L 1409 256 
L 897 -744 
L 494 -744 
L 750 256 
L 750 794 
z
" transform="scale(0.015625)"/>
      <path id="DejaVuSans-52" d="M 2841 2188 
Q 3044 2119 3236 1894 
Q 3428 1669 3622 1275 
L 4263 0 
L 3584 0 
L 2988 1197 
Q 2756 1666 2539 1819 
Q 2322 1972 1947 1972 
L 1259 1972 
L 1259 0 
L 628 0 
L 628 4666 
L 2053 4666 
Q 2853 4666 3247 4331 
Q 3641 3997 3641 3322 
Q 3641 2881 3436 2590 
Q 3231 2300 2841 2188 
z
M 1259 4147 
L 1259 2491 
L 2053 2491 
Q 2509 2491 2742 2702 
Q 2975 2913 2975 3322 
Q 2975 3731 2742 3939 
Q 2509 4147 2053 4147 
L 1259 4147 
z
" transform="scale(0.015625)"/>
      <path id="DejaVuSans-7a" d="M 353 3500 
L 3084 3500 
L 3084 2975 
L 922 459 
L 3084 459 
L 3084 0 
L 275 0 
L 275 525 
L 2438 3041 
L 353 3041 
L 353 3500 
z
" transform="scale(0.015625)"/>
      <path id="DejaVuSans-39" d="M 703 97 
L 703 672 
Q 941 559 1184 500 
Q 1428 441 1663 441 
Q 2288 441 2617 861 
Q 2947 1281 2994 2138 
Q 2813 1869 2534 1725 
Q 2256 1581 1919 1581 
Q 1219 1581 811 2004 
Q 403 2428 403 3163 
Q 403 3881 828 4315 
Q 1253 4750 1959 4750 
Q 2769 4750 3195 4129 
Q 3622 3509 3622 2328 
Q 3622 1225 3098 567 
Q 2575 -91 1691 -91 
Q 1453 -91 1209 -44 
Q 966 3 703 97 
z
M 1959 2075 
Q 2384 2075 2632 2365 
Q 2881 2656 2881 3163 
Q 2881 3666 2632 3958 
Q 2384 4250 1959 4250 
Q 1534 4250 1286 3958 
Q 1038 3666 1038 3163 
Q 1038 2656 1286 2365 
Q 1534 2075 1959 2075 
z
" transform="scale(0.015625)"/>
      <path id="DejaVuSans-54" d="M -19 4666 
L 3928 4666 
L 3928 4134 
L 2272 4134 
L 2272 0 
L 1638 0 
L 1638 4134 
L -19 4134 
L -19 4666 
z
" transform="scale(0.015625)"/>
      <path id="DejaVuSans-2e" d="M 684 794 
L 1344 794 
L 1344 0 
L 684 0 
L 684 794 
z
" transform="scale(0.015625)"/>
     </defs>
     <use xlink:href="#DejaVuSans-42"/>
     <use xlink:href="#DejaVuSans-61" transform="translate(68.603516 0)"/>
     <use xlink:href="#DejaVuSans-73" transform="translate(129.882812 0)"/>
     <use xlink:href="#DejaVuSans-65" transform="translate(181.982422 0)"/>
     <use xlink:href="#DejaVuSans-20" transform="translate(243.505859 0)"/>
     <use xlink:href="#DejaVuSans-50" transform="translate(275.292969 0)"/>
     <use xlink:href="#DejaVuSans-72" transform="translate(333.845703 0)"/>
     <use xlink:href="#DejaVuSans-6f" transform="translate(372.708984 0)"/>
     <use xlink:href="#DejaVuSans-64" transform="translate(433.890625 0)"/>
     <use xlink:href="#DejaVuSans-75" transform="translate(497.367188 0)"/>
     <use xlink:href="#DejaVuSans-63" transform="translate(560.746094 0)"/>
     <use xlink:href="#DejaVuSans-74" transform="translate(615.726562 0)"/>
     <use xlink:href="#DejaVuSans-3a" transform="translate(654.935547 0)"/>
     <use xlink:href="#DejaVuSans-20" transform="translate(688.626953 0)"/>
     <use xlink:href="#DejaVuSans-53" transform="translate(720.414062 0)"/>
     <use xlink:href="#DejaVuSans-6f" transform="translate(783.890625 0)"/>
     <use xlink:href="#DejaVuSans-75" transform="translate(845.072266 0)"/>
     <use xlink:href="#DejaVuSans-72" transform="translate(908.451172 0)"/>
     <use xlink:href="#DejaVuSans-20" transform="translate(949.564453 0)"/>
     <use xlink:href="#DejaVuSans-44" transform="translate(981.351562 0)"/>
     <use xlink:href="#DejaVuSans-69" transform="translate(1058.353516 0)"/>
     <use xlink:href="#DejaVuSans-65" transform="translate(1086.136719 0)"/>
     <use xlink:href="#DejaVuSans-73" transform="translate(1147.660156 0)"/>
     <use xlink:href="#DejaVuSans-65" transform="translate(1199.759766 0)"/>
     <use xlink:href="#DejaVuSans-6c" transform="translate(1261.283203 0)"/>
     <use xlink:href="#DejaVuSans-2c" transform="translate(1289.066406 0)"/>
     <use xlink:href="#DejaVuSans-20" transform="translate(1320.853516 0)"/>
     <use xlink:href="#DejaVuSans-52" transform="translate(1352.640625 0)"/>
     <use xlink:href="#DejaVuSans-65" transform="translate(1417.623047 0)"/>
     <use xlink:href="#DejaVuSans-63" transform="translate(1479.146484 0)"/>
     <use xlink:href="#DejaVuSans-69" transform="translate(1534.126953 0)"/>
     <use xlink:href="#DejaVuSans-70" transform="translate(1561.910156 0)"/>
     <use xlink:href="#DejaVuSans-65" transform="translate(1625.386719 0)"/>
     <use xlink:href="#DejaVuSans-20" transform="translate(1686.910156 0)"/>
     <use xlink:href="#DejaVuSans-73" transform="translate(1718.697266 0)"/>
     <use xlink:href="#DejaVuSans-69" transform="translate(1770.796875 0)"/>
     <use xlink:href="#DejaVuSans-7a" transform="translate(1798.580078 0)"/>
     <use xlink:href="#DejaVuSans-65" transform="translate(1851.070312 0)"/>
     <use xlink:href="#DejaVuSans-3a" transform="translate(1912.59375 0)"/>
     <use xlink:href="#DejaVuSans-20" transform="translate(1946.285156 0)"/>
     <use xlink:href="#DejaVuSans-39" transform="translate(1978.072266 0)"/>
     <use xlink:href="#DejaVuSans-2c" transform="translate(2041.695312 0)"/>
     <use xlink:href="#DejaVuSans-20" transform="translate(2073.482422 0)"/>
     <use xlink:href="#DejaVuSans-54" transform="translate(2105.269531 0)"/>
     <use xlink:href="#DejaVuSans-30" transform="translate(2166.353516 0)"/>
     <use xlink:href="#DejaVuSans-3a" transform="translate(2229.976562 0)"/>
     <use xlink:href="#DejaVuSans-20" transform="translate(2263.667969 0)"/>
     <use xlink:href="#DejaVuSans-31" transform="translate(2295.455078 0)"/>
     <use xlink:href="#DejaVuSans-30" transform="translate(2359.078125 0)"/>
     <use xlink:href="#DejaVuSans-2e" transform="translate(2422.701172 0)"/>
     <use xlink:href="#DejaVuSans-30" transform="translate(2454.488281 0)"/>
    </g>
   </g>
  </g>
 </g>
 <defs>
  <clipPath id="p32fb39ad83">
   <rect x="50.87" y="43.44" width="793.996" height="346.6"/>
  </clipPath>
 </defs>
</svg>
